<svg width="215" height="154" viewBox="0 0 215 154" xmlns="http://www.w3.org/2000/svg" font-family="&quot;JetBrains Mono&quot;, &quot;Menlo&quot;, &quot;Consolas&quot;, &quot;DejaVu Sans Mono&quot;, &quot;Liberation Mono&quot;, &quot;Roboto Mono&quot;, &quot;Noto Sans Mono&quot;, monospace" data-entviz-version="v15" data-entviz-lib="0.15.1" data-input-bytes="36" data-cols="3" data-rows="3" data-encoding="base64url" data-scheme="cesr" data-role="" data-size-basis="decoded" data-entropy-type="cesr" data-size-bits="216" data-qualifiers="{&quot;algorithm&quot;:&quot;datetime&quot;}" data-parts="[{&quot;text&quot;:&quot;1AAG2020-08-22T17c50c09d988921p00c00&quot;,&quot;bind&quot;:&quot;core&quot;}]"><defs><clipPath id="grid-clip-b3ffaf9824e993d2-3x3"><rect x="28" y="27" width="180" height="120"/></clipPath></defs><rect x="1" y="1" width="213" height="152" fill="#ffffff"/><g data-channel="grid"><rect x="28" y="27" width="180" height="120" fill="#e7be00"/><g><path fill="#000000" d="M28 27h6v10h-6zM34 27h6v10h-6zM40 27h6v10h-6zM46 27h6v10h-6zM58 27h6v10h-6zM70 27h6v10h-6zM76 27h6v10h-6zM82 27h6v10h-6zM82 37h6v10h-6zM82 47h6v10h-6zM82 57h6v10h-6zM76 57h6v10h-6zM70 57h6v10h-6zM64 57h6v10h-6zM58 57h6v10h-6zM52 57h6v10h-6zM34 57h6v10h-6zM28 57h6v10h-6zM28 37h6v10h-6z"/><path fill="#2f3fbf" d="M88 27h6v10h-6zM106 27h6v10h-6zM118 27h6v10h-6zM124 27h6v10h-6zM130 27h6v10h-6zM142 37h6v10h-6zM136 57h6v10h-6zM100 57h6v10h-6zM94 57h6v10h-6zM88 37h6v10h-6z"/><path fill="#2f3fbf" d="M148 27h6v10h-6zM160 27h6v10h-6zM202 27h6v10h-6zM202 57h6v10h-6zM190 57h6v10h-6zM184 57h6v10h-6zM178 57h6v10h-6zM172 57h6v10h-6zM154 57h6v10h-6zM148 37h6v10h-6z"/><path fill="#2f3fbf" d="M28 67h6v10h-6zM34 67h6v10h-6zM46 67h6v10h-6zM52 67h6v10h-6zM58 67h6v10h-6zM64 67h6v10h-6zM70 67h6v10h-6zM76 67h6v10h-6zM82 77h6v10h-6zM76 97h6v10h-6zM70 97h6v10h-6zM64 97h6v10h-6zM58 97h6v10h-6zM46 97h6v10h-6zM40 97h6v10h-6zM34 97h6v10h-6zM28 97h6v10h-6zM28 87h6v10h-6zM28 77h6v10h-6z"/><path fill="#ffffff" d="M106 67h6v10h-6zM118 67h6v10h-6zM124 67h6v10h-6zM136 67h6v10h-6zM142 67h6v10h-6zM142 77h6v10h-6zM130 97h6v10h-6zM124 97h6v10h-6zM118 97h6v10h-6zM106 97h6v10h-6zM100 97h6v10h-6zM94 97h6v10h-6zM88 97h6v10h-6zM88 77h6v10h-6z"/><path fill="#2f3fbf" d="M148 67h6v10h-6zM154 67h6v10h-6zM172 67h6v10h-6zM178 67h6v10h-6zM184 67h6v10h-6zM202 67h6v10h-6zM202 97h6v10h-6zM190 97h6v10h-6zM178 97h6v10h-6zM166 97h6v10h-6zM148 97h6v10h-6zM148 87h6v10h-6z"/><path fill="#ffffff" d="M28 107h6v10h-6zM58 107h6v10h-6zM64 107h6v10h-6zM70 107h6v10h-6zM82 107h6v10h-6zM82 127h6v10h-6zM82 137h6v10h-6zM70 137h6v10h-6zM34 137h6v10h-6zM28 137h6v10h-6zM28 127h6v10h-6z"/><path fill="#ffffff" d="M106 107h6v10h-6zM112 107h6v10h-6zM118 107h6v10h-6zM130 107h6v10h-6zM136 107h6v10h-6zM142 117h6v10h-6zM142 127h6v10h-6zM136 137h6v10h-6zM130 137h6v10h-6zM118 137h6v10h-6zM112 137h6v10h-6zM106 137h6v10h-6zM88 137h6v10h-6zM88 117h6v10h-6z"/><path fill="#000000" d="M148 107h6v10h-6zM154 107h6v10h-6zM160 107h6v10h-6zM166 107h6v10h-6zM172 107h6v10h-6zM178 107h6v10h-6zM202 117h6v10h-6zM196 137h6v10h-6zM184 137h6v10h-6zM172 137h6v10h-6zM166 137h6v10h-6zM154 137h6v10h-6z"/></g><g clip-path="url(#grid-clip-b3ffaf9824e993d2-3x3)" data-channel="ellipse" data-ellipse-anchor-x="208" data-ellipse-anchor-y="147" data-ellipse-rx="109.897" data-ellipse-ry="94.321" data-ellipse-rotation-deg="180"><ellipse cx="208" cy="147" rx="109.897" ry="94.321" transform="rotate(180 208 147)" fill="#000000" stroke="#000000" fill-opacity="0.2" stroke-opacity="0.3" stroke-width="2"/></g><g><g data-channel="cell" data-cell-index="0" data-cell-row="0" data-cell-col="0" data-surround-bits="0xb3ffaf" data-edge-color="#000000"><rect x="34" y="37" width="48" height="20" fill="#0600d4"/><text x="58" y="47" fill="#ffffff" font-size="16" text-anchor="middle" dominant-baseline="central">1AAG</text></g><g data-channel="cell" data-cell-index="1" data-cell-row="0" data-cell-col="1" data-surround-bits="0x9824e9" data-edge-color="#2f3fbf" data-cell-quartile="3"><rect x="94" y="37" width="48" height="20" fill="#b44ddb"/><text x="118" y="47" fill="#000000" font-size="16" text-anchor="middle" dominant-baseline="central">2020</text><polygon points="142,57 142,47 132,57" fill="#000000"/></g><g data-channel="cell" data-cell-index="2" data-cell-row="0" data-cell-col="2" data-surround-bits="0x93d205" data-edge-color="#2f3fbf"><rect x="154" y="37" width="48" height="20" fill="#3e4ffb"/><text x="178" y="47" fill="#ffffff" font-size="16" text-anchor="middle" dominant-baseline="central">-08-</text></g><g data-channel="cell" data-cell-index="3" data-cell-row="1" data-cell-col="0" data-surround-bits="0xfde5fb" data-edge-color="#2f3fbf"><rect x="34" y="77" width="48" height="20" fill="#f564db"/><text x="58" y="87" fill="#000000" font-size="16" text-anchor="middle" dominant-baseline="central">22T1</text></g><g data-channel="cell" data-cell-index="4" data-cell-row="1" data-cell-col="1" data-surround-bits="0xbdc768" data-edge-color="#ffffff"><rect x="94" y="77" width="48" height="20" fill="#74ceed"/><text x="118" y="87" fill="#000000" font-size="16" text-anchor="middle" dominant-baseline="central">7c50</text></g><g data-channel="cell" data-cell-index="5" data-cell-row="1" data-cell-col="2" data-surround-bits="0x655273" data-edge-color="#2f3fbf"><rect x="154" y="77" width="48" height="20" fill="#5d4f73"/><text x="178" y="87" fill="#ffffff" font-size="16" text-anchor="middle" dominant-baseline="central">c09d</text></g><g data-channel="cell" data-cell-index="6" data-cell-row="2" data-cell-col="0" data-surround-bits="0x705ae1" data-edge-color="#ffffff"><rect x="34" y="117" width="48" height="20" fill="#3dcff7"/><text x="58" y="127" fill="#000000" font-size="16" text-anchor="middle" dominant-baseline="central">9889</text></g><g data-channel="cell" data-cell-index="7" data-cell-row="2" data-cell-col="1" data-surround-bits="0xa76db8" data-edge-color="#ffffff" data-cell-quartile="1"><rect x="94" y="117" width="48" height="20" fill="#745adb"/><text x="118" y="127" fill="#ffffff" font-size="16" text-anchor="middle" dominant-baseline="central">21p0</text><polygon points="94,117 104,117 94,127" fill="#ffffff"/></g><g data-channel="cell" data-cell-index="8" data-cell-row="2" data-cell-col="2" data-surround-bits="0x16a43f" data-edge-color="#000000" data-cell-quartile="2"><rect x="154" y="117" width="48" height="20" fill="#34cdd1"/><text x="178" y="127" fill="#000000" font-size="16" text-anchor="middle" dominant-baseline="central">0c00</text><polygon points="202,117 192,117 202,127" fill="#000000"/></g></g></g><g data-channel="color-bar" data-bar-slots="12" data-bar-marker-left="4" data-bar-marker-right="9"><g data-color-bar-rank="0" data-color-bar-band="K"><rect x="2" y="2" width="20" height="75.341" fill="#000000"/><text x="12" y="73.821" fill="#ffffff" font-size="16" text-anchor="middle" data-color-bar-letter="true">k</text></g><g data-color-bar-rank="1" data-color-bar-band="W"><rect x="2" y="77.341" width="20" height="15.263" fill="#ffffff"/><text x="12" y="89.083" fill="#000000" font-size="16" text-anchor="middle" data-color-bar-letter="true">w</text></g><g data-color-bar-rank="2" data-color-bar-band="B"><rect x="2" y="92.603" width="20" height="20.418" fill="#2f3fbf"/><text x="12" y="109.502" fill="#ffffff" font-size="16" text-anchor="middle" data-color-bar-letter="true">b</text></g><g data-color-bar-rank="3" data-color-bar-band="R"><rect x="2" y="113.022" width="20" height="38.978" fill="#ff3f2f"/><text x="12" y="148.48" fill="#000000" font-size="16" text-anchor="middle" data-color-bar-letter="true">r</text></g><circle cx="6.6" cy="58.25" r="3.4" fill="#ffffff" stroke="#000000" stroke-width="0.75" data-bar-marker="left"/><circle cx="17.4" cy="120.75" r="3.4" fill="#ffffff" stroke="#000000" stroke-width="0.75" data-bar-marker="right"/></g><g data-channel="label-top"><text x="28" y="17" fill="#666666" font-size="12" dominant-baseline="central">CESR, datetime</text></g><line x1="1" y1="1.5" x2="214" y2="1.5" stroke="#808080" stroke-width="1" shape-rendering="crispEdges"/><line x1="213.5" y1="1" x2="213.5" y2="153" stroke="#808080" stroke-width="1" shape-rendering="crispEdges"/><line x1="1" y1="152.5" x2="214" y2="152.5" stroke="#808080" stroke-width="1" shape-rendering="crispEdges"/><line x1="1.5" y1="1" x2="1.5" y2="153" stroke="#808080" stroke-width="1" shape-rendering="crispEdges"/><line x1="22.5" y1="1" x2="22.5" y2="153" stroke="#808080" stroke-width="1" shape-rendering="crispEdges"/></svg>