<svg width="211.0" height="158.0" xmlns="http://www.w3.org/2000/svg"><defs data-v3-clip-seq="17"><clipPath id="grid-clip"><rect x="14.0" y="5.0" width="192.0" height="128.0"/></clipPath><path id="c1" d="M0,8 L0,6 L2,6 L2,0 L8,0 L8,8 L6,8 L6,4 L4,4 L4,8 Z M12,4 L14,4 L14,8 L12,8 Z M22,4 L24,4 L24,8 L22,8 Z" fill-rule="evenodd"/><path id="c2" d="M0,8 L0,2 L4,2 L4,4 L6,4 L6,8 L10,8 L10,2 L10,0 L24,0 L24,8 Z M18,0 L20,0 L20,4 L18,4 Z M14,0 L16,0 L16,2 L14,2 Z" fill-rule="evenodd"/><path id="c3" d="M16,0 L20,0 L20,8 L16,8 L16,6 L12,6 L12,4 L16,4 Z M0,6 L2,6 L2,8 L0,8 Z" fill-rule="evenodd"/><path id="p1" d="M0,8 L0,4 L3,3 L4,0 L12,0 L16,8 Z" fill-rule="evenodd"/><path id="p2" d="M16,0 L12,4 L8,8 L14,8 L18,0 L22,8 L24,8 L24,4 L20,0 Z" fill-rule="evenodd"/><path id="p3" d="M0,2 L4,0 L6,4 L10,8 L0,8 Z M20,8 L24,4 L24,8 Z" fill-rule="evenodd"/><linearGradient id="g0" gradientUnits="userSpaceOnUse" x1="34.0" y1="13.0" x2="34.0" y2="5.0"><stop offset="0%" stop-color="#0f0063"/><stop offset="100%" stop-color="#ffffff"/></linearGradient><linearGradient id="g1" gradientUnits="userSpaceOnUse" x1="58.0" y1="13.0" x2="58.0" y2="5.0"><stop offset="0%" stop-color="#0f0063"/><stop offset="100%" stop-color="#000000"/></linearGradient><linearGradient id="g2" gradientUnits="userSpaceOnUse" x1="58.0" y1="29.0" x2="58.0" y2="37.0"><stop offset="0%" stop-color="#0f0063"/><stop offset="100%" stop-color="#ffffff"/></linearGradient><linearGradient id="g3" gradientUnits="userSpaceOnUse" x1="34.0" y1="29.0" x2="34.0" y2="37.0"><stop offset="0%" stop-color="#0f0063"/><stop offset="100%" stop-color="#000000"/></linearGradient><linearGradient id="g4" gradientUnits="userSpaceOnUse" x1="122.0" y1="13.0" x2="122.0" y2="5.0"><stop offset="0%" stop-color="#f93b27"/><stop offset="100%" stop-color="#2f3fbf"/></linearGradient><linearGradient id="g5" gradientUnits="userSpaceOnUse" x1="98.0" y1="29.0" x2="98.0" y2="37.0"><stop offset="0%" stop-color="#f93b27"/><stop offset="100%" stop-color="#000000"/></linearGradient><linearGradient id="g6" gradientUnits="userSpaceOnUse" x1="86.0" y1="21.0" x2="78.0" y2="21.0"><stop offset="0%" stop-color="#f93b27"/><stop offset="100%" stop-color="#ff3f2f"/></linearGradient><clipPath id="v3clip-0"><rect x="78.0" y="13.0" width="8.0" height="16.0"/></clipPath><linearGradient id="g7" gradientUnits="userSpaceOnUse" x1="162.0" y1="13.0" x2="162.0" y2="5.0"><stop offset="0%" stop-color="#279b09"/><stop offset="100%" stop-color="#ff3f2f"/></linearGradient><linearGradient id="g8" gradientUnits="userSpaceOnUse" x1="186.0" y1="13.0" x2="186.0" y2="5.0"><stop offset="0%" stop-color="#279b09"/><stop offset="100%" stop-color="#ff3f2f"/></linearGradient><linearGradient id="g9" gradientUnits="userSpaceOnUse" x1="198.0" y1="21.0" x2="206.0" y2="21.0"><stop offset="0%" stop-color="#279b09"/><stop offset="100%" stop-color="#ffffff"/></linearGradient><clipPath id="v3clip-1"><rect x="198.0" y="13.0" width="8.0" height="16.0"/></clipPath><linearGradient id="g10" gradientUnits="userSpaceOnUse" x1="186.0" y1="29.0" x2="186.0" y2="37.0"><stop offset="0%" stop-color="#279b09"/><stop offset="100%" stop-color="#ffffff"/></linearGradient><linearGradient id="g11" gradientUnits="userSpaceOnUse" x1="162.0" y1="29.0" x2="162.0" y2="37.0"><stop offset="0%" stop-color="#279b09"/><stop offset="100%" stop-color="#2f3fbf"/></linearGradient><linearGradient id="g12" gradientUnits="userSpaceOnUse" x1="150.0" y1="21.0" x2="142.0" y2="21.0"><stop offset="0%" stop-color="#279b09"/><stop offset="100%" stop-color="#000000"/></linearGradient><clipPath id="v3clip-2"><rect x="142.0" y="13.0" width="8.0" height="16.0"/></clipPath><linearGradient id="g13" gradientUnits="userSpaceOnUse" x1="70.0" y1="53.0" x2="78.0" y2="53.0"><stop offset="0%" stop-color="#b9ad03"/><stop offset="100%" stop-color="#2f3fbf"/></linearGradient><clipPath id="v3clip-3"><rect x="70.0" y="45.0" width="8.0" height="16.0"/></clipPath><linearGradient id="g14" gradientUnits="userSpaceOnUse" x1="58.0" y1="61.0" x2="58.0" y2="69.0"><stop offset="0%" stop-color="#b9ad03"/><stop offset="100%" stop-color="#000000"/></linearGradient><linearGradient id="g15" gradientUnits="userSpaceOnUse" x1="22.0" y1="53.0" x2="14.0" y2="53.0"><stop offset="0%" stop-color="#b9ad03"/><stop offset="100%" stop-color="#ffffff"/></linearGradient><clipPath id="v3clip-4"><rect x="14.0" y="45.0" width="8.0" height="16.0"/></clipPath><linearGradient id="g16" gradientUnits="userSpaceOnUse" x1="98.0" y1="45.0" x2="98.0" y2="37.0"><stop offset="0%" stop-color="#df75b3"/><stop offset="100%" stop-color="#ffffff"/></linearGradient><linearGradient id="g17" gradientUnits="userSpaceOnUse" x1="122.0" y1="45.0" x2="122.0" y2="37.0"><stop offset="0%" stop-color="#df75b3"/><stop offset="100%" stop-color="#000000"/></linearGradient><linearGradient id="g18" gradientUnits="userSpaceOnUse" x1="134.0" y1="53.0" x2="142.0" y2="53.0"><stop offset="0%" stop-color="#df75b3"/><stop offset="100%" stop-color="#ff3f2f"/></linearGradient><clipPath id="v3clip-5"><rect x="134.0" y="45.0" width="8.0" height="16.0"/></clipPath><linearGradient id="g19" gradientUnits="userSpaceOnUse" x1="122.0" y1="61.0" x2="122.0" y2="69.0"><stop offset="0%" stop-color="#df75b3"/><stop offset="100%" stop-color="#000000"/></linearGradient><linearGradient id="g20" gradientUnits="userSpaceOnUse" x1="98.0" y1="61.0" x2="98.0" y2="69.0"><stop offset="0%" stop-color="#df75b3"/><stop offset="100%" stop-color="#ffffff"/></linearGradient><linearGradient id="g21" gradientUnits="userSpaceOnUse" x1="86.0" y1="53.0" x2="78.0" y2="53.0"><stop offset="0%" stop-color="#df75b3"/><stop offset="100%" stop-color="#2f3fbf"/></linearGradient><clipPath id="v3clip-6"><rect x="78.0" y="45.0" width="8.0" height="16.0"/></clipPath><linearGradient id="g22" gradientUnits="userSpaceOnUse" x1="162.0" y1="45.0" x2="162.0" y2="37.0"><stop offset="0%" stop-color="#a677da"/><stop offset="100%" stop-color="#000000"/></linearGradient><linearGradient id="g23" gradientUnits="userSpaceOnUse" x1="186.0" y1="45.0" x2="186.0" y2="37.0"><stop offset="0%" stop-color="#a677da"/><stop offset="100%" stop-color="#000000"/></linearGradient><linearGradient id="g24" gradientUnits="userSpaceOnUse" x1="198.0" y1="53.0" x2="206.0" y2="53.0"><stop offset="0%" stop-color="#a677da"/><stop offset="100%" stop-color="#000000"/></linearGradient><clipPath id="v3clip-7"><rect x="198.0" y="45.0" width="8.0" height="16.0"/></clipPath><linearGradient id="g25" gradientUnits="userSpaceOnUse" x1="150.0" y1="53.0" x2="142.0" y2="53.0"><stop offset="0%" stop-color="#a677da"/><stop offset="100%" stop-color="#000000"/></linearGradient><clipPath id="v3clip-8"><rect x="142.0" y="45.0" width="8.0" height="16.0"/></clipPath><linearGradient id="g26" gradientUnits="userSpaceOnUse" x1="98.0" y1="77.0" x2="98.0" y2="69.0"><stop offset="0%" stop-color="#0f88b5"/><stop offset="100%" stop-color="#ff3f2f"/></linearGradient><linearGradient id="g27" gradientUnits="userSpaceOnUse" x1="122.0" y1="77.0" x2="122.0" y2="69.0"><stop offset="0%" stop-color="#0f88b5"/><stop offset="100%" stop-color="#000000"/></linearGradient><linearGradient id="g28" gradientUnits="userSpaceOnUse" x1="134.0" y1="85.0" x2="142.0" y2="85.0"><stop offset="0%" stop-color="#0f88b5"/><stop offset="100%" stop-color="#000000"/></linearGradient><clipPath id="v3clip-9"><rect x="134.0" y="77.0" width="8.0" height="16.0"/></clipPath><linearGradient id="g29" gradientUnits="userSpaceOnUse" x1="122.0" y1="93.0" x2="122.0" y2="101.0"><stop offset="0%" stop-color="#0f88b5"/><stop offset="100%" stop-color="#ff3f2f"/></linearGradient><linearGradient id="g30" gradientUnits="userSpaceOnUse" x1="98.0" y1="93.0" x2="98.0" y2="101.0"><stop offset="0%" stop-color="#0f88b5"/><stop offset="100%" stop-color="#2f3fbf"/></linearGradient><linearGradient id="g31" gradientUnits="userSpaceOnUse" x1="86.0" y1="85.0" x2="78.0" y2="85.0"><stop offset="0%" stop-color="#0f88b5"/><stop offset="100%" stop-color="#000000"/></linearGradient><clipPath id="v3clip-10"><rect x="78.0" y="77.0" width="8.0" height="16.0"/></clipPath><linearGradient id="g32" gradientUnits="userSpaceOnUse" x1="162.0" y1="77.0" x2="162.0" y2="69.0"><stop offset="0%" stop-color="#5677a4"/><stop offset="100%" stop-color="#ffffff"/></linearGradient><linearGradient id="g33" gradientUnits="userSpaceOnUse" x1="186.0" y1="77.0" x2="186.0" y2="69.0"><stop offset="0%" stop-color="#5677a4"/><stop offset="100%" stop-color="#ff3f2f"/></linearGradient><linearGradient id="g34" gradientUnits="userSpaceOnUse" x1="198.0" y1="85.0" x2="206.0" y2="85.0"><stop offset="0%" stop-color="#5677a4"/><stop offset="100%" stop-color="#ffffff"/></linearGradient><clipPath id="v3clip-11"><rect x="198.0" y="77.0" width="8.0" height="16.0"/></clipPath><linearGradient id="g35" gradientUnits="userSpaceOnUse" x1="186.0" y1="93.0" x2="186.0" y2="101.0"><stop offset="0%" stop-color="#5677a4"/><stop offset="100%" stop-color="#000000"/></linearGradient><linearGradient id="g36" gradientUnits="userSpaceOnUse" x1="162.0" y1="93.0" x2="162.0" y2="101.0"><stop offset="0%" stop-color="#5677a4"/><stop offset="100%" stop-color="#2f3fbf"/></linearGradient><linearGradient id="g37" gradientUnits="userSpaceOnUse" x1="34.0" y1="109.0" x2="34.0" y2="101.0"><stop offset="0%" stop-color="#fd3e13"/><stop offset="100%" stop-color="#ffffff"/></linearGradient><linearGradient id="g38" gradientUnits="userSpaceOnUse" x1="70.0" y1="117.0" x2="78.0" y2="117.0"><stop offset="0%" stop-color="#fd3e13"/><stop offset="100%" stop-color="#ffffff"/></linearGradient><clipPath id="v3clip-12"><rect x="70.0" y="109.0" width="8.0" height="16.0"/></clipPath><linearGradient id="g39" gradientUnits="userSpaceOnUse" x1="34.0" y1="125.0" x2="34.0" y2="133.0"><stop offset="0%" stop-color="#fd3e13"/><stop offset="100%" stop-color="#ffffff"/></linearGradient><linearGradient id="g40" gradientUnits="userSpaceOnUse" x1="22.0" y1="117.0" x2="14.0" y2="117.0"><stop offset="0%" stop-color="#fd3e13"/><stop offset="100%" stop-color="#000000"/></linearGradient><clipPath id="v3clip-13"><rect x="14.0" y="109.0" width="8.0" height="16.0"/></clipPath><linearGradient id="g41" gradientUnits="userSpaceOnUse" x1="122.0" y1="125.0" x2="122.0" y2="133.0"><stop offset="0%" stop-color="#a735a2"/><stop offset="100%" stop-color="#000000"/></linearGradient><linearGradient id="g42" gradientUnits="userSpaceOnUse" x1="98.0" y1="125.0" x2="98.0" y2="133.0"><stop offset="0%" stop-color="#a735a2"/><stop offset="100%" stop-color="#ff3f2f"/></linearGradient><linearGradient id="g43" gradientUnits="userSpaceOnUse" x1="86.0" y1="117.0" x2="78.0" y2="117.0"><stop offset="0%" stop-color="#a735a2"/><stop offset="100%" stop-color="#2f3fbf"/></linearGradient><clipPath id="v3clip-14"><rect x="78.0" y="109.0" width="8.0" height="16.0"/></clipPath><linearGradient id="g44" gradientUnits="userSpaceOnUse" x1="162.0" y1="109.0" x2="162.0" y2="101.0"><stop offset="0%" stop-color="#46b73d"/><stop offset="100%" stop-color="#000000"/></linearGradient><linearGradient id="g45" gradientUnits="userSpaceOnUse" x1="186.0" y1="109.0" x2="186.0" y2="101.0"><stop offset="0%" stop-color="#46b73d"/><stop offset="100%" stop-color="#ff3f2f"/></linearGradient><linearGradient id="g46" gradientUnits="userSpaceOnUse" x1="198.0" y1="117.0" x2="206.0" y2="117.0"><stop offset="0%" stop-color="#46b73d"/><stop offset="100%" stop-color="#ffffff"/></linearGradient><clipPath id="v3clip-15"><rect x="198.0" y="109.0" width="8.0" height="16.0"/></clipPath><linearGradient id="g47" gradientUnits="userSpaceOnUse" x1="162.0" y1="125.0" x2="162.0" y2="133.0"><stop offset="0%" stop-color="#46b73d"/><stop offset="100%" stop-color="#ff3f2f"/></linearGradient><linearGradient id="g48" gradientUnits="userSpaceOnUse" x1="150.0" y1="117.0" x2="142.0" y2="117.0"><stop offset="0%" stop-color="#46b73d"/><stop offset="100%" stop-color="#ffffff"/></linearGradient><clipPath id="v3clip-16"><rect x="142.0" y="109.0" width="8.0" height="16.0"/></clipPath></defs><rect x="0" y="0" width="211.0" height="158.0" fill="#ffffff"/><rect x="14.0" y="5.0" width="192.0" height="128.0" fill="#ffd966"/><g><title>P1</title><use href="#p1" transform="translate(22.0, 5.0) scale(1.0)" fill="url(#g0)"/></g><g><title>C3</title><use href="#c3" transform="translate(46.0, 5.0) scale(1.0)" fill="url(#g1)"/></g><g><title>C2</title><use href="#c2" transform="translate(46.0, 29.0) rotate(180 12.0 4.0) scale(1.0)" fill="url(#g2)"/></g><g><title>C2</title><use href="#c2" transform="translate(22.0, 29.0) rotate(180 12.0 4.0) scale(1.0)" fill="url(#g3)"/></g><g><title>C3</title><use href="#c3" transform="translate(110.0, 5.0) scale(1.0)" fill="url(#g4)"/></g><g><title>C2</title><use href="#c2" transform="translate(86.0, 29.0) rotate(180 12.0 4.0) scale(1.0)" fill="url(#g5)"/></g><g><title>C2</title><g clip-path="url(#v3clip-0)"><use href="#c2" transform="translate(72.0, 29.0) rotate(270 6.0 0.0) scale(1.0)" fill="url(#g6)"/></g></g><g><title>C2</title><use href="#c2" transform="translate(150.0, 5.0) scale(1.0)" fill="url(#g7)"/></g><g><title>C2</title><use href="#c2" transform="translate(174.0, 5.0) scale(1.0)" fill="url(#g8)"/></g><g><title>P1</title><g clip-path="url(#v3clip-1)"><use href="#p1" transform="translate(206.0, 13.0) rotate(90 0.0 0.0) scale(1.0)" fill="url(#g9)"/></g></g><g><title>C3</title><use href="#c3" transform="translate(174.0, 29.0) rotate(180 12.0 4.0) scale(1.0)" fill="url(#g10)"/></g><g><title>C3</title><use href="#c3" transform="translate(150.0, 29.0) rotate(180 12.0 4.0) scale(1.0)" fill="url(#g11)"/></g><g><title>P1</title><g clip-path="url(#v3clip-2)"><use href="#p1" transform="translate(142.0, 29.0) rotate(270 0.0 0.0) scale(1.0)" fill="url(#g12)"/></g></g><g><title>C2</title><g clip-path="url(#v3clip-3)"><use href="#c2" transform="translate(72.0, 45.0) rotate(90 6.0 0.0) scale(1.0)" fill="url(#g13)"/></g></g><g><title>P1</title><use href="#p1" transform="translate(46.0, 61.0) rotate(180 12.0 4.0) scale(1.0)" fill="url(#g14)"/></g><g><title>C3</title><g clip-path="url(#v3clip-4)"><use href="#c3" transform="translate(10.0, 61.0) rotate(270 4.0 0.0) scale(1.0)" fill="url(#g15)"/></g></g><g><title>C2</title><use href="#c2" transform="translate(86.0, 37.0) scale(1.0)" fill="url(#g16)"/></g><g><title>C2</title><use href="#c2" transform="translate(110.0, 37.0) scale(1.0)" fill="url(#g17)"/></g><g><title>C3</title><g clip-path="url(#v3clip-5)"><use href="#c3" transform="translate(138.0, 45.0) rotate(90 4.0 0.0) scale(1.0)" fill="url(#g18)"/></g></g><g><title>C2</title><use href="#c2" transform="translate(110.0, 61.0) rotate(180 12.0 4.0) scale(1.0)" fill="url(#g19)"/></g><g><title>P1</title><use href="#p1" transform="translate(86.0, 61.0) rotate(180 12.0 4.0) scale(1.0)" fill="url(#g20)"/></g><g><title>P1</title><g clip-path="url(#v3clip-6)"><use href="#p1" transform="translate(78.0, 61.0) rotate(270 0.0 0.0) scale(1.0)" fill="url(#g21)"/></g></g><g><title>C3</title><use href="#c3" transform="translate(150.0, 37.0) scale(1.0)" fill="url(#g22)"/></g><g><title>P1</title><use href="#p1" transform="translate(174.0, 37.0) scale(1.0)" fill="url(#g23)"/></g><g><title>C3</title><g clip-path="url(#v3clip-7)"><use href="#c3" transform="translate(202.0, 45.0) rotate(90 4.0 0.0) scale(1.0)" fill="url(#g24)"/></g></g><g><title>P1</title><g clip-path="url(#v3clip-8)"><use href="#p1" transform="translate(142.0, 61.0) rotate(270 0.0 0.0) scale(1.0)" fill="url(#g25)"/></g></g><g><title>C3</title><use href="#c3" transform="translate(86.0, 69.0) scale(1.0)" fill="url(#g26)"/></g><g><title>C3</title><use href="#c3" transform="translate(110.0, 69.0) scale(1.0)" fill="url(#g27)"/></g><g><title>C2</title><g clip-path="url(#v3clip-9)"><use href="#c2" transform="translate(136.0, 77.0) rotate(90 6.0 0.0) scale(1.0)" fill="url(#g28)"/></g></g><g><title>C3</title><use href="#c3" transform="translate(110.0, 93.0) rotate(180 12.0 4.0) scale(1.0)" fill="url(#g29)"/></g><g><title>C3</title><use href="#c3" transform="translate(86.0, 93.0) rotate(180 12.0 4.0) scale(1.0)" fill="url(#g30)"/></g><g><title>P1</title><g clip-path="url(#v3clip-10)"><use href="#p1" transform="translate(78.0, 93.0) rotate(270 0.0 0.0) scale(1.0)" fill="url(#g31)"/></g></g><g><title>C2</title><use href="#c2" transform="translate(150.0, 69.0) scale(1.0)" fill="url(#g32)"/></g><g><title>C2</title><use href="#c2" transform="translate(174.0, 69.0) scale(1.0)" fill="url(#g33)"/></g><g><title>C3</title><g clip-path="url(#v3clip-11)"><use href="#c3" transform="translate(202.0, 77.0) rotate(90 4.0 0.0) scale(1.0)" fill="url(#g34)"/></g></g><g><title>P1</title><use href="#p1" transform="translate(174.0, 93.0) rotate(180 12.0 4.0) scale(1.0)" fill="url(#g35)"/></g><g><title>C2</title><use href="#c2" transform="translate(150.0, 93.0) rotate(180 12.0 4.0) scale(1.0)" fill="url(#g36)"/></g><g><title>C3</title><use href="#c3" transform="translate(22.0, 101.0) scale(1.0)" fill="url(#g37)"/></g><g><title>C3</title><g clip-path="url(#v3clip-12)"><use href="#c3" transform="translate(74.0, 109.0) rotate(90 4.0 0.0) scale(1.0)" fill="url(#g38)"/></g></g><g><title>C2</title><use href="#c2" transform="translate(22.0, 125.0) rotate(180 12.0 4.0) scale(1.0)" fill="url(#g39)"/></g><g><title>C2</title><g clip-path="url(#v3clip-13)"><use href="#c2" transform="translate(8.0, 125.0) rotate(270 6.0 0.0) scale(1.0)" fill="url(#g40)"/></g></g><g><title>C3</title><use href="#c3" transform="translate(110.0, 125.0) rotate(180 12.0 4.0) scale(1.0)" fill="url(#g41)"/></g><g><title>C2</title><use href="#c2" transform="translate(86.0, 125.0) rotate(180 12.0 4.0) scale(1.0)" fill="url(#g42)"/></g><g><title>C3</title><g clip-path="url(#v3clip-14)"><use href="#c3" transform="translate(74.0, 125.0) rotate(270 4.0 0.0) scale(1.0)" fill="url(#g43)"/></g></g><g><title>C3</title><use href="#c3" transform="translate(150.0, 101.0) scale(1.0)" fill="url(#g44)"/></g><g><title>C3</title><use href="#c3" transform="translate(174.0, 101.0) scale(1.0)" fill="url(#g45)"/></g><g><title>C2</title><g clip-path="url(#v3clip-15)"><use href="#c2" transform="translate(200.0, 109.0) rotate(90 6.0 0.0) scale(1.0)" fill="url(#g46)"/></g></g><g><title>P1</title><use href="#p1" transform="translate(150.0, 125.0) rotate(180 12.0 4.0) scale(1.0)" fill="url(#g47)"/></g><g><title>P1</title><g clip-path="url(#v3clip-16)"><use href="#p1" transform="translate(142.0, 125.0) rotate(270 0.0 0.0) scale(1.0)" fill="url(#g48)"/></g></g><g clip-path="url(#grid-clip)"><ellipse cx="142.0" cy="69.0" rx="72.82723715198834" ry="41.42167011199731" transform="rotate(156.0 142.0 69.0)" fill="#000000" fill-opacity="0.2"/></g><rect x="22.0" y="13.0" width="48.0" height="16.0" fill="#0f0063"/><text x="46.0" y="21.0" fill="#ffffff" style="font-family: monospace; font-size: 16.0px;" text-anchor="middle" dominant-baseline="central">YwAP</text><rect x="86.0" y="13.0" width="48.0" height="16.0" fill="#f93b27"/><text x="110.0" y="21.0" fill="#ffffff" style="font-family: monospace; font-size: 16.0px;" text-anchor="middle" dominant-baseline="central">Jzv5</text><rect x="150.0" y="13.0" width="48.0" height="16.0" fill="#279b09"/><text x="174.0" y="21.0" fill="#ffffff" style="font-family: monospace; font-size: 16.0px;" text-anchor="middle" dominant-baseline="central">CZsn</text><rect x="22.0" y="45.0" width="48.0" height="16.0" fill="#b9ad03"/><text x="46.0" y="53.0" fill="#ffffff" style="font-family: monospace; font-size: 16.0px;" text-anchor="middle" dominant-baseline="central">A625</text><rect x="86.0" y="45.0" width="48.0" height="16.0" fill="#df75b3"/><text x="110.0" y="53.0" fill="#ffffff" style="font-family: monospace; font-size: 16.0px;" text-anchor="middle" dominant-baseline="central">s3Xf</text><rect x="150.0" y="45.0" width="48.0" height="16.0" fill="#a677da"/><text x="174.0" y="53.0" fill="#ffffff" style="font-family: monospace; font-size: 16.0px;" text-anchor="middle" dominant-baseline="central">2nem</text><rect x="86.0" y="77.0" width="48.0" height="16.0" fill="#0f88b5"/><text x="110.0" y="85.0" fill="#ffffff" style="font-family: monospace; font-size: 16.0px;" text-anchor="middle" dominant-baseline="central">tYgP</text><rect x="150.0" y="77.0" width="48.0" height="16.0" fill="#5677a4"/><text x="174.0" y="85.0" fill="#ffffff" style="font-family: monospace; font-size: 16.0px;" text-anchor="middle" dominant-baseline="central">pHdW</text><rect x="22.0" y="109.0" width="48.0" height="16.0" fill="#fd3e13"/><text x="46.0" y="117.0" fill="#ffffff" style="font-family: monospace; font-size: 16.0px;" text-anchor="middle" dominant-baseline="central">Ez79</text><rect x="86.0" y="109.0" width="48.0" height="16.0" fill="#a735a2"/><text x="110.0" y="117.0" fill="#ffffff" style="font-family: monospace; font-size: 16.0px;" text-anchor="middle" dominant-baseline="central">ojWn</text><rect x="150.0" y="109.0" width="48.0" height="16.0" fill="#46b73d"/><text x="174.0" y="117.0" fill="#ffffff" style="font-family: monospace; font-size: 16.0px;" text-anchor="middle" dominant-baseline="central">PbdG</text><circle cx="80.0" cy="103.0" r="2.0" fill="#ffffff"/><circle cx="204.0" cy="39.0" r="2.0" fill="#ff3f2f"/><circle cx="204.0" cy="131.0" r="2.0" fill="#2f3fbf"/><circle cx="16.0" cy="67.0" r="2.0" fill="#000000"/><rect x="1" y="1" width="8.0" height="105.11548015636133" fill="#000000"/><rect x="1" y="106.11548015636133" width="8.0" height="38.46704280680133" fill="#ffffff"/><rect x="1" y="144.58252296316266" width="8.0" height="10.013286861412258" fill="#ff3f2f"/><rect x="1" y="154.59580982457493" width="8.0" height="2.4041901754250716" fill="#2f3fbf"/><text x="206.0" y="145.0" fill="#444444" style="font-family: monospace; font-size: 14.666666666666666px;" text-anchor="end" dominant-baseline="central">319 218 112</text><line x1="0" y1="0" x2="210.0" y2="0" stroke="#000000" stroke-width="1"/><line x1="210.0" y1="0" x2="210.0" y2="157.0" stroke="#000000" stroke-width="1"/><line x1="0" y1="157.0" x2="210.0" y2="157.0" stroke="#000000" stroke-width="1"/><line x1="0" y1="0" x2="0" y2="157.0" stroke="#000000" stroke-width="1"/><line x1="9.0" y1="0" x2="9.0" y2="157.0" stroke="#000000" stroke-width="1"/></svg>