<svg width="147.0" height="126.0" xmlns="http://www.w3.org/2000/svg"><defs data-v3-clip-seq="7"><clipPath id="grid-clip"><rect x="14.0" y="5.0" width="128.0" height="96.0"/></clipPath><path id="c1" d="M0,8 L0,6 L2,6 L2,0 L8,0 L8,8 L6,8 L6,4 L4,4 L4,8 Z M12,4 L14,4 L14,8 L12,8 Z M22,4 L24,4 L24,8 L22,8 Z" fill-rule="evenodd"/><path id="c2" d="M0,8 L0,2 L4,2 L4,4 L6,4 L6,8 L10,8 L10,2 L10,0 L24,0 L24,8 Z M18,0 L20,0 L20,4 L18,4 Z M14,0 L16,0 L16,2 L14,2 Z" fill-rule="evenodd"/><path id="c3" d="M16,0 L20,0 L20,8 L16,8 L16,6 L12,6 L12,4 L16,4 Z M0,6 L2,6 L2,8 L0,8 Z" fill-rule="evenodd"/><path id="p1" d="M0,8 L0,4 L3,3 L4,0 L12,0 L16,8 Z" fill-rule="evenodd"/><path id="p2" d="M16,0 L12,4 L8,8 L14,8 L18,0 L22,8 L24,8 L24,4 L20,0 Z" fill-rule="evenodd"/><path id="p3" d="M0,2 L4,0 L6,4 L10,8 L0,8 Z M20,8 L24,4 L24,8 Z" fill-rule="evenodd"/><linearGradient id="g0" gradientUnits="userSpaceOnUse" x1="34.0" y1="13.0" x2="34.0" y2="5.0"><stop offset="0%" stop-color="#b8c3f7"/><stop offset="100%" stop-color="#ff3f2f"/></linearGradient><linearGradient id="g1" gradientUnits="userSpaceOnUse" x1="58.0" y1="13.0" x2="58.0" y2="5.0"><stop offset="0%" stop-color="#b8c3f7"/><stop offset="100%" stop-color="#000000"/></linearGradient><linearGradient id="g2" gradientUnits="userSpaceOnUse" x1="70.0" y1="21.0" x2="78.0" y2="21.0"><stop offset="0%" stop-color="#b8c3f7"/><stop offset="100%" stop-color="#ffffff"/></linearGradient><clipPath id="v3clip-0"><rect x="70.0" y="13.0" width="8.0" height="16.0"/></clipPath><linearGradient id="g3" gradientUnits="userSpaceOnUse" x1="34.0" y1="29.0" x2="34.0" y2="37.0"><stop offset="0%" stop-color="#b8c3f7"/><stop offset="100%" stop-color="#2f3fbf"/></linearGradient><linearGradient id="g4" gradientUnits="userSpaceOnUse" x1="98.0" y1="13.0" x2="98.0" y2="5.0"><stop offset="0%" stop-color="#de19a2"/><stop offset="100%" stop-color="#ffffff"/></linearGradient><linearGradient id="g5" gradientUnits="userSpaceOnUse" x1="134.0" y1="21.0" x2="142.0" y2="21.0"><stop offset="0%" stop-color="#de19a2"/><stop offset="100%" stop-color="#2f3fbf"/></linearGradient><clipPath id="v3clip-1"><rect x="134.0" y="13.0" width="8.0" height="16.0"/></clipPath><linearGradient id="g6" gradientUnits="userSpaceOnUse" x1="122.0" y1="29.0" x2="122.0" y2="37.0"><stop offset="0%" stop-color="#de19a2"/><stop offset="100%" stop-color="#000000"/></linearGradient><linearGradient id="g7" gradientUnits="userSpaceOnUse" x1="98.0" y1="29.0" x2="98.0" y2="37.0"><stop offset="0%" stop-color="#de19a2"/><stop offset="100%" stop-color="#ffffff"/></linearGradient><linearGradient id="g8" gradientUnits="userSpaceOnUse" x1="86.0" y1="21.0" x2="78.0" y2="21.0"><stop offset="0%" stop-color="#de19a2"/><stop offset="100%" stop-color="#ffffff"/></linearGradient><clipPath id="v3clip-2"><rect x="78.0" y="13.0" width="8.0" height="16.0"/></clipPath><linearGradient id="g9" gradientUnits="userSpaceOnUse" x1="34.0" y1="45.0" x2="34.0" y2="37.0"><stop offset="0%" stop-color="#1a5e4f"/><stop offset="100%" stop-color="#ffffff"/></linearGradient><linearGradient id="g10" gradientUnits="userSpaceOnUse" x1="70.0" y1="53.0" x2="78.0" y2="53.0"><stop offset="0%" stop-color="#1a5e4f"/><stop offset="100%" stop-color="#000000"/></linearGradient><clipPath id="v3clip-3"><rect x="70.0" y="45.0" width="8.0" height="16.0"/></clipPath><linearGradient id="g11" gradientUnits="userSpaceOnUse" x1="58.0" y1="61.0" x2="58.0" y2="69.0"><stop offset="0%" stop-color="#1a5e4f"/><stop offset="100%" stop-color="#ff3f2f"/></linearGradient><linearGradient id="g12" gradientUnits="userSpaceOnUse" x1="22.0" y1="53.0" x2="14.0" y2="53.0"><stop offset="0%" stop-color="#1a5e4f"/><stop offset="100%" stop-color="#2f3fbf"/></linearGradient><clipPath id="v3clip-4"><rect x="14.0" y="45.0" width="8.0" height="16.0"/></clipPath><linearGradient id="g13" gradientUnits="userSpaceOnUse" x1="98.0" y1="45.0" x2="98.0" y2="37.0"><stop offset="0%" stop-color="#6db092"/><stop offset="100%" stop-color="#000000"/></linearGradient><linearGradient id="g14" gradientUnits="userSpaceOnUse" x1="134.0" y1="53.0" x2="142.0" y2="53.0"><stop offset="0%" stop-color="#6db092"/><stop offset="100%" stop-color="#2f3fbf"/></linearGradient><clipPath id="v3clip-5"><rect x="134.0" y="45.0" width="8.0" height="16.0"/></clipPath><linearGradient id="g15" gradientUnits="userSpaceOnUse" x1="122.0" y1="61.0" x2="122.0" y2="69.0"><stop offset="0%" stop-color="#6db092"/><stop offset="100%" stop-color="#000000"/></linearGradient><linearGradient id="g16" gradientUnits="userSpaceOnUse" x1="34.0" y1="77.0" x2="34.0" y2="69.0"><stop offset="0%" stop-color="#4e1f7c"/><stop offset="100%" stop-color="#ff3f2f"/></linearGradient><linearGradient id="g17" gradientUnits="userSpaceOnUse" x1="70.0" y1="85.0" x2="78.0" y2="85.0"><stop offset="0%" stop-color="#4e1f7c"/><stop offset="100%" stop-color="#ff3f2f"/></linearGradient><clipPath id="v3clip-6"><rect x="70.0" y="77.0" width="8.0" height="16.0"/></clipPath><linearGradient id="g18" gradientUnits="userSpaceOnUse" x1="58.0" y1="93.0" x2="58.0" y2="101.0"><stop offset="0%" stop-color="#4e1f7c"/><stop offset="100%" stop-color="#ffffff"/></linearGradient></defs><rect x="0" y="0" width="147.0" height="126.0" fill="#ffffff"/><rect x="14.0" y="5.0" width="128.0" height="96.0" fill="#ffd966"/><g><title>P1</title><use href="#p1" transform="translate(22.0, 5.0) scale(1.0)" fill="url(#g0)"/></g><g><title>P2</title><use href="#p2" transform="translate(46.0, 5.0) scale(1.0)" fill="url(#g1)"/></g><g><title>P3</title><g clip-path="url(#v3clip-0)"><use href="#p3" transform="translate(78.0, 13.0) rotate(90 0.0 0.0) scale(1.0)" fill="url(#g2)"/></g></g><g><title>P3</title><use href="#p3" transform="translate(22.0, 29.0) rotate(180 12.0 4.0) scale(1.0)" fill="url(#g3)"/></g><g><title>P3</title><use href="#p3" transform="translate(86.0, 5.0) scale(1.0)" fill="url(#g4)"/></g><g><title>P3</title><g clip-path="url(#v3clip-1)"><use href="#p3" transform="translate(142.0, 13.0) rotate(90 0.0 0.0) scale(1.0)" fill="url(#g5)"/></g></g><g><title>P3</title><use href="#p3" transform="translate(110.0, 29.0) rotate(180 12.0 4.0) scale(1.0)" fill="url(#g6)"/></g><g><title>P1</title><use href="#p1" transform="translate(86.0, 29.0) rotate(180 12.0 4.0) scale(1.0)" fill="url(#g7)"/></g><g><title>P1</title><g clip-path="url(#v3clip-2)"><use href="#p1" transform="translate(78.0, 29.0) rotate(270 0.0 0.0) scale(1.0)" fill="url(#g8)"/></g></g><g><title>P3</title><use href="#p3" transform="translate(22.0, 37.0) scale(1.0)" fill="url(#g9)"/></g><g><title>P1</title><g clip-path="url(#v3clip-3)"><use href="#p1" transform="translate(78.0, 45.0) rotate(90 0.0 0.0) scale(1.0)" fill="url(#g10)"/></g></g><g><title>P2</title><use href="#p2" transform="translate(46.0, 61.0) rotate(180 12.0 4.0) scale(1.0)" fill="url(#g11)"/></g><g><title>P3</title><g clip-path="url(#v3clip-4)"><use href="#p3" transform="translate(14.0, 61.0) rotate(270 0.0 0.0) scale(1.0)" fill="url(#g12)"/></g></g><g><title>P3</title><use href="#p3" transform="translate(86.0, 37.0) scale(1.0)" fill="url(#g13)"/></g><g><title>P2</title><g clip-path="url(#v3clip-5)"><use href="#p2" transform="translate(134.0, 45.0) rotate(90 8.0 0.0) scale(1.0)" fill="url(#g14)"/></g></g><g><title>P2</title><use href="#p2" transform="translate(110.0, 61.0) rotate(180 12.0 4.0) scale(1.0)" fill="url(#g15)"/></g><g><title>P2</title><use href="#p2" transform="translate(22.0, 69.0) scale(1.0)" fill="url(#g16)"/></g><g><title>P2</title><g clip-path="url(#v3clip-6)"><use href="#p2" transform="translate(70.0, 77.0) rotate(90 8.0 0.0) scale(1.0)" fill="url(#g17)"/></g></g><g><title>P2</title><use href="#p2" transform="translate(46.0, 93.0) rotate(180 12.0 4.0) scale(1.0)" fill="url(#g18)"/></g><rect x="22.0" y="13.0" width="48.0" height="16.0" fill="#b8c3f7"/><text x="46.0" y="21.0" fill="#000000" style="font-family: monospace; font-size: 12.0px;" text-anchor="middle" dominant-baseline="central">f7c3b8</text><rect x="86.0" y="13.0" width="48.0" height="16.0" fill="#de19a2"/><text x="110.0" y="21.0" fill="#ffffff" style="font-family: monospace; font-size: 12.0px;" text-anchor="middle" dominant-baseline="central">a219de</text><rect x="22.0" y="45.0" width="48.0" height="16.0" fill="#1a5e4f"/><text x="46.0" y="53.0" fill="#ffffff" style="font-family: monospace; font-size: 12.0px;" text-anchor="middle" dominant-baseline="central">4f5e1a</text><rect x="86.0" y="45.0" width="48.0" height="16.0" fill="#6db092"/><text x="110.0" y="53.0" fill="#ffffff" style="font-family: monospace; font-size: 12.0px;" text-anchor="middle" dominant-baseline="central">92b06d</text><rect x="22.0" y="77.0" width="48.0" height="16.0" fill="#4e1f7c"/><text x="46.0" y="85.0" fill="#ffffff" style="font-family: monospace; font-size: 12.0px;" text-anchor="middle" dominant-baseline="central">7c1f4e</text><rect x="86.0" y="77.0" width="48.0" height="16.0" fill="#090909"/><text x="110.0" y="85.0" fill="#ffffff" style="font-family: monospace; font-size: 12.0px;" text-anchor="middle" dominant-baseline="central">09</text><circle cx="80.0" cy="71.0" r="2.0" fill="#ffffff"/><circle cx="76.0" cy="71.0" r="2.0" fill="#ff3f2f"/><circle cx="140.0" cy="35.0" r="2.0" fill="#2f3fbf"/><rect x="1" y="1" width="8.0" height="66.0517879161529" fill="#ffffff"/><rect x="1" y="67.0517879161529" width="8.0" height="31.853678586107687" fill="#000000"/><rect x="1" y="98.9054665022606" width="8.0" height="13.047266748869708" fill="#ff3f2f"/><rect x="1" y="111.9527332511303" width="8.0" height="13.047266748869703" fill="#2f3fbf"/><text x="142.0" y="113.0" fill="#444444" style="font-family: monospace; font-size: 12.0px;" text-anchor="end" dominant-baseline="central">308 207 104</text><line x1="0" y1="0" x2="146.0" y2="0" stroke="#000000" stroke-width="1"/><line x1="146.0" y1="0" x2="146.0" y2="125.0" stroke="#000000" stroke-width="1"/><line x1="0" y1="125.0" x2="146.0" y2="125.0" stroke="#000000" stroke-width="1"/><line x1="0" y1="0" x2="0" y2="125.0" stroke="#000000" stroke-width="1"/><line x1="9.0" y1="0" x2="9.0" y2="125.0" stroke="#000000" stroke-width="1"/></svg>