<svg width="211.0" height="158.0" xmlns="http://www.w3.org/2000/svg"><defs data-v3-clip-seq="16"><clipPath id="grid-clip"><rect x="14.0" y="5.0" width="192.0" height="128.0"/></clipPath><path id="c1" d="M0,8 L0,6 L2,6 L2,0 L8,0 L8,8 L6,8 L6,4 L4,4 L4,8 Z M12,4 L14,4 L14,8 L12,8 Z M22,4 L24,4 L24,8 L22,8 Z" fill-rule="evenodd"/><path id="c2" d="M0,8 L0,2 L4,2 L4,4 L6,4 L6,8 L10,8 L10,2 L10,0 L24,0 L24,8 Z M18,0 L20,0 L20,4 L18,4 Z M14,0 L16,0 L16,2 L14,2 Z" fill-rule="evenodd"/><path id="c3" d="M16,0 L20,0 L20,8 L16,8 L16,6 L12,6 L12,4 L16,4 Z M0,6 L2,6 L2,8 L0,8 Z" fill-rule="evenodd"/><path id="p1" d="M0,8 L0,4 L3,3 L4,0 L12,0 L16,8 Z" fill-rule="evenodd"/><path id="p2" d="M16,0 L12,4 L8,8 L14,8 L18,0 L22,8 L24,8 L24,4 L20,0 Z" fill-rule="evenodd"/><path id="p3" d="M0,2 L4,0 L6,4 L10,8 L0,8 Z M20,8 L24,4 L24,8 Z" fill-rule="evenodd"/><linearGradient id="g0" gradientUnits="userSpaceOnUse" x1="12" y1="8" x2="12" y2="0"><stop offset="0%" stop-color="#c5b4a3"/><stop offset="100%" stop-color="#ffffff"/></linearGradient><linearGradient id="g1" gradientUnits="userSpaceOnUse" x1="12" y1="8" x2="12" y2="0"><stop offset="0%" stop-color="#c5b4a3"/><stop offset="100%" stop-color="#000000"/></linearGradient><linearGradient id="g2" gradientUnits="userSpaceOnUse" x1="12" y1="8" x2="12" y2="0"><stop offset="0%" stop-color="#c5b4a3"/><stop offset="100%" stop-color="#000000"/></linearGradient><clipPath id="v3clip-0"><rect x="78.0" y="13.0" width="8.0" height="16.0"/></clipPath><linearGradient id="g3" gradientUnits="userSpaceOnUse" x1="12" y1="8" x2="12" y2="0"><stop offset="0%" stop-color="#f8e7d6"/><stop offset="100%" stop-color="#ff3f2f"/></linearGradient><linearGradient id="g4" gradientUnits="userSpaceOnUse" x1="12" y1="8" x2="12" y2="0"><stop offset="0%" stop-color="#f8e7d6"/><stop offset="100%" stop-color="#ff3f2f"/></linearGradient><clipPath id="v3clip-1"><rect x="198.0" y="13.0" width="8.0" height="16.0"/></clipPath><linearGradient id="g5" gradientUnits="userSpaceOnUse" x1="12" y1="8" x2="12" y2="0"><stop offset="0%" stop-color="#f8e7d6"/><stop offset="100%" stop-color="#2f3fbf"/></linearGradient><linearGradient id="g6" gradientUnits="userSpaceOnUse" x1="12" y1="8" x2="12" y2="0"><stop offset="0%" stop-color="#f8e7d6"/><stop offset="100%" stop-color="#ffffff"/></linearGradient><linearGradient id="g7" gradientUnits="userSpaceOnUse" x1="12" y1="8" x2="12" y2="0"><stop offset="0%" stop-color="#f8e7d6"/><stop offset="100%" stop-color="#ff3f2f"/></linearGradient><clipPath id="v3clip-2"><rect x="142.0" y="13.0" width="8.0" height="16.0"/></clipPath><linearGradient id="g8" gradientUnits="userSpaceOnUse" x1="12" y1="8" x2="12" y2="0"><stop offset="0%" stop-color="#2b1a09"/><stop offset="100%" stop-color="#2f3fbf"/></linearGradient><linearGradient id="g9" gradientUnits="userSpaceOnUse" x1="12" y1="8" x2="12" y2="0"><stop offset="0%" stop-color="#2b1a09"/><stop offset="100%" stop-color="#000000"/></linearGradient><clipPath id="v3clip-3"><rect x="70.0" y="45.0" width="8.0" height="16.0"/></clipPath><linearGradient id="g10" gradientUnits="userSpaceOnUse" x1="12" y1="8" x2="12" y2="0"><stop offset="0%" stop-color="#2b1a09"/><stop offset="100%" stop-color="#ff3f2f"/></linearGradient><clipPath id="v3clip-4"><rect x="14.0" y="45.0" width="8.0" height="16.0"/></clipPath><linearGradient id="g11" gradientUnits="userSpaceOnUse" x1="12" y1="8" x2="12" y2="0"><stop offset="0%" stop-color="#5e4d3c"/><stop offset="100%" stop-color="#ff3f2f"/></linearGradient><linearGradient id="g12" gradientUnits="userSpaceOnUse" x1="12" y1="8" x2="12" y2="0"><stop offset="0%" stop-color="#5e4d3c"/><stop offset="100%" stop-color="#ff3f2f"/></linearGradient><linearGradient id="g13" gradientUnits="userSpaceOnUse" x1="12" y1="8" x2="12" y2="0"><stop offset="0%" stop-color="#5e4d3c"/><stop offset="100%" stop-color="#000000"/></linearGradient><clipPath id="v3clip-5"><rect x="134.0" y="45.0" width="8.0" height="16.0"/></clipPath><linearGradient id="g14" gradientUnits="userSpaceOnUse" x1="12" y1="8" x2="12" y2="0"><stop offset="0%" stop-color="#5e4d3c"/><stop offset="100%" stop-color="#000000"/></linearGradient><linearGradient id="g15" gradientUnits="userSpaceOnUse" x1="12" y1="8" x2="12" y2="0"><stop offset="0%" stop-color="#5e4d3c"/><stop offset="100%" stop-color="#000000"/></linearGradient><linearGradient id="g16" gradientUnits="userSpaceOnUse" x1="12" y1="8" x2="12" y2="0"><stop offset="0%" stop-color="#5e4d3c"/><stop offset="100%" stop-color="#000000"/></linearGradient><clipPath id="v3clip-6"><rect x="78.0" y="45.0" width="8.0" height="16.0"/></clipPath><linearGradient id="g17" gradientUnits="userSpaceOnUse" x1="12" y1="8" x2="12" y2="0"><stop offset="0%" stop-color="#81706f"/><stop offset="100%" stop-color="#ff3f2f"/></linearGradient><linearGradient id="g18" gradientUnits="userSpaceOnUse" x1="12" y1="8" x2="12" y2="0"><stop offset="0%" stop-color="#81706f"/><stop offset="100%" stop-color="#ffffff"/></linearGradient><linearGradient id="g19" gradientUnits="userSpaceOnUse" x1="12" y1="8" x2="12" y2="0"><stop offset="0%" stop-color="#81706f"/><stop offset="100%" stop-color="#ff3f2f"/></linearGradient><linearGradient id="g20" gradientUnits="userSpaceOnUse" x1="12" y1="8" x2="12" y2="0"><stop offset="0%" stop-color="#81706f"/><stop offset="100%" stop-color="#000000"/></linearGradient><linearGradient id="g21" gradientUnits="userSpaceOnUse" x1="12" y1="8" x2="12" y2="0"><stop offset="0%" stop-color="#81706f"/><stop offset="100%" stop-color="#ff3f2f"/></linearGradient><clipPath id="v3clip-7"><rect x="142.0" y="45.0" width="8.0" height="16.0"/></clipPath><linearGradient id="g22" gradientUnits="userSpaceOnUse" x1="12" y1="8" x2="12" y2="0"><stop offset="0%" stop-color="#b4a392"/><stop offset="100%" stop-color="#ffffff"/></linearGradient><linearGradient id="g23" gradientUnits="userSpaceOnUse" x1="12" y1="8" x2="12" y2="0"><stop offset="0%" stop-color="#b4a392"/><stop offset="100%" stop-color="#2f3fbf"/></linearGradient><linearGradient id="g24" gradientUnits="userSpaceOnUse" x1="12" y1="8" x2="12" y2="0"><stop offset="0%" stop-color="#b4a392"/><stop offset="100%" stop-color="#000000"/></linearGradient><clipPath id="v3clip-8"><rect x="70.0" y="77.0" width="8.0" height="16.0"/></clipPath><linearGradient id="g25" gradientUnits="userSpaceOnUse" x1="12" y1="8" x2="12" y2="0"><stop offset="0%" stop-color="#b4a392"/><stop offset="100%" stop-color="#000000"/></linearGradient><linearGradient id="g26" gradientUnits="userSpaceOnUse" x1="12" y1="8" x2="12" y2="0"><stop offset="0%" stop-color="#b4a392"/><stop offset="100%" stop-color="#2f3fbf"/></linearGradient><clipPath id="v3clip-9"><rect x="14.0" y="77.0" width="8.0" height="16.0"/></clipPath><linearGradient id="g27" gradientUnits="userSpaceOnUse" x1="12" y1="8" x2="12" y2="0"><stop offset="0%" stop-color="#e7d6c5"/><stop offset="100%" stop-color="#000000"/></linearGradient><linearGradient id="g28" gradientUnits="userSpaceOnUse" x1="12" y1="8" x2="12" y2="0"><stop offset="0%" stop-color="#e7d6c5"/><stop offset="100%" stop-color="#ffffff"/></linearGradient><clipPath id="v3clip-10"><rect x="134.0" y="77.0" width="8.0" height="16.0"/></clipPath><linearGradient id="g29" gradientUnits="userSpaceOnUse" x1="12" y1="8" x2="12" y2="0"><stop offset="0%" stop-color="#e7d6c5"/><stop offset="100%" stop-color="#ffffff"/></linearGradient><linearGradient id="g30" gradientUnits="userSpaceOnUse" x1="12" y1="8" x2="12" y2="0"><stop offset="0%" stop-color="#e7d6c5"/><stop offset="100%" stop-color="#2f3fbf"/></linearGradient><linearGradient id="g31" gradientUnits="userSpaceOnUse" x1="12" y1="8" x2="12" y2="0"><stop offset="0%" stop-color="#e7d6c5"/><stop offset="100%" stop-color="#2f3fbf"/></linearGradient><clipPath id="v3clip-11"><rect x="78.0" y="77.0" width="8.0" height="16.0"/></clipPath><linearGradient id="g32" gradientUnits="userSpaceOnUse" x1="12" y1="8" x2="12" y2="0"><stop offset="0%" stop-color="#1009f8"/><stop offset="100%" stop-color="#ffffff"/></linearGradient><linearGradient id="g33" gradientUnits="userSpaceOnUse" x1="12" y1="8" x2="12" y2="0"><stop offset="0%" stop-color="#1009f8"/><stop offset="100%" stop-color="#ff3f2f"/></linearGradient><clipPath id="v3clip-12"><rect x="198.0" y="77.0" width="8.0" height="16.0"/></clipPath><linearGradient id="g34" gradientUnits="userSpaceOnUse" x1="12" y1="8" x2="12" y2="0"><stop offset="0%" stop-color="#1009f8"/><stop offset="100%" stop-color="#ffffff"/></linearGradient><linearGradient id="g35" gradientUnits="userSpaceOnUse" x1="12" y1="8" x2="12" y2="0"><stop offset="0%" stop-color="#1009f8"/><stop offset="100%" stop-color="#000000"/></linearGradient><clipPath id="v3clip-13"><rect x="142.0" y="77.0" width="8.0" height="16.0"/></clipPath><linearGradient id="g36" gradientUnits="userSpaceOnUse" x1="12" y1="8" x2="12" y2="0"><stop offset="0%" stop-color="#c3b2a1"/><stop offset="100%" stop-color="#2f3fbf"/></linearGradient><linearGradient id="g37" gradientUnits="userSpaceOnUse" x1="12" y1="8" x2="12" y2="0"><stop offset="0%" stop-color="#c3b2a1"/><stop offset="100%" stop-color="#ff3f2f"/></linearGradient><linearGradient id="g38" gradientUnits="userSpaceOnUse" x1="12" y1="8" x2="12" y2="0"><stop offset="0%" stop-color="#c3b2a1"/><stop offset="100%" stop-color="#ffffff"/></linearGradient><clipPath id="v3clip-14"><rect x="70.0" y="109.0" width="8.0" height="16.0"/></clipPath><linearGradient id="g39" gradientUnits="userSpaceOnUse" x1="12" y1="8" x2="12" y2="0"><stop offset="0%" stop-color="#c3b2a1"/><stop offset="100%" stop-color="#ffffff"/></linearGradient><linearGradient id="g40" gradientUnits="userSpaceOnUse" x1="12" y1="8" x2="12" y2="0"><stop offset="0%" stop-color="#c3b2a1"/><stop offset="100%" stop-color="#ffffff"/></linearGradient><linearGradient id="g41" gradientUnits="userSpaceOnUse" x1="12" y1="8" x2="12" y2="0"><stop offset="0%" stop-color="#f6e5d4"/><stop offset="100%" stop-color="#ff3f2f"/></linearGradient><linearGradient id="g42" gradientUnits="userSpaceOnUse" x1="12" y1="8" x2="12" y2="0"><stop offset="0%" stop-color="#f6e5d4"/><stop offset="100%" stop-color="#ff3f2f"/></linearGradient><clipPath id="v3clip-15"><rect x="134.0" y="109.0" width="8.0" height="16.0"/></clipPath><linearGradient id="g43" gradientUnits="userSpaceOnUse" x1="12" y1="8" x2="12" y2="0"><stop offset="0%" stop-color="#f6e5d4"/><stop offset="100%" stop-color="#ffffff"/></linearGradient><linearGradient id="g44" gradientUnits="userSpaceOnUse" x1="12" y1="8" x2="12" y2="0"><stop offset="0%" stop-color="#f6e5d4"/><stop offset="100%" stop-color="#ffffff"/></linearGradient><linearGradient id="g45" gradientUnits="userSpaceOnUse" x1="12" y1="8" x2="12" y2="0"><stop offset="0%" stop-color="#181807"/><stop offset="100%" stop-color="#2f3fbf"/></linearGradient><linearGradient id="g46" gradientUnits="userSpaceOnUse" x1="12" y1="8" x2="12" y2="0"><stop offset="0%" stop-color="#181807"/><stop offset="100%" stop-color="#000000"/></linearGradient></defs><rect x="0" y="0" width="211.0" height="158.0" fill="#ffffff"/><rect x="14.0" y="5.0" width="192.0" height="128.0" fill="#ffd966"/><g><title>C3</title><use href="#c3" transform="translate(110.0, 5.0) scale(1.0)" fill="url(#g0)"/></g><g><title>C3</title><use href="#c3" transform="translate(86.0, 29.0) rotate(180 12.0 4.0) scale(1.0)" fill="url(#g1)"/></g><g><title>C1</title><g clip-path="url(#v3clip-0)"><use href="#c1" transform="translate(76.0, 29.0) rotate(270 2.0 0.0) scale(1.0)" fill="url(#g2)"/></g></g><g><title>C1</title><use href="#c1" transform="translate(174.0, 5.0) scale(1.0)" fill="url(#g3)"/></g><g><title>C2</title><g clip-path="url(#v3clip-1)"><use href="#c2" transform="translate(200.0, 13.0) rotate(90 6.0 0.0) scale(1.0)" fill="url(#g4)"/></g></g><g><title>C2</title><use href="#c2" transform="translate(174.0, 29.0) rotate(180 12.0 4.0) scale(1.0)" fill="url(#g5)"/></g><g><title>C3</title><use href="#c3" transform="translate(150.0, 29.0) rotate(180 12.0 4.0) scale(1.0)" fill="url(#g6)"/></g><g><title>C1</title><g clip-path="url(#v3clip-2)"><use href="#c1" transform="translate(140.0, 29.0) rotate(270 2.0 0.0) scale(1.0)" fill="url(#g7)"/></g></g><g><title>C1</title><use href="#c1" transform="translate(46.0, 37.0) scale(1.0)" fill="url(#g8)"/></g><g><title>C2</title><g clip-path="url(#v3clip-3)"><use href="#c2" transform="translate(72.0, 45.0) rotate(90 6.0 0.0) scale(1.0)" fill="url(#g9)"/></g></g><g><title>C3</title><g clip-path="url(#v3clip-4)"><use href="#c3" transform="translate(10.0, 61.0) rotate(270 4.0 0.0) scale(1.0)" fill="url(#g10)"/></g></g><g><title>C1</title><use href="#c1" transform="translate(86.0, 37.0) scale(1.0)" fill="url(#g11)"/></g><g><title>C1</title><use href="#c1" transform="translate(110.0, 37.0) scale(1.0)" fill="url(#g12)"/></g><g><title>C2</title><g clip-path="url(#v3clip-5)"><use href="#c2" transform="translate(136.0, 45.0) rotate(90 6.0 0.0) scale(1.0)" fill="url(#g13)"/></g></g><g><title>C1</title><use href="#c1" transform="translate(110.0, 61.0) rotate(180 12.0 4.0) scale(1.0)" fill="url(#g14)"/></g><g><title>C2</title><use href="#c2" transform="translate(86.0, 61.0) rotate(180 12.0 4.0) scale(1.0)" fill="url(#g15)"/></g><g><title>C3</title><g clip-path="url(#v3clip-6)"><use href="#c3" transform="translate(74.0, 61.0) rotate(270 4.0 0.0) scale(1.0)" fill="url(#g16)"/></g></g><g><title>C1</title><use href="#c1" transform="translate(150.0, 37.0) scale(1.0)" fill="url(#g17)"/></g><g><title>C3</title><use href="#c3" transform="translate(174.0, 37.0) scale(1.0)" fill="url(#g18)"/></g><g><title>C1</title><use href="#c1" transform="translate(174.0, 61.0) rotate(180 12.0 4.0) scale(1.0)" fill="url(#g19)"/></g><g><title>C1</title><use href="#c1" transform="translate(150.0, 61.0) rotate(180 12.0 4.0) scale(1.0)" fill="url(#g20)"/></g><g><title>C1</title><g clip-path="url(#v3clip-7)"><use href="#c1" transform="translate(140.0, 61.0) rotate(270 2.0 0.0) scale(1.0)" fill="url(#g21)"/></g></g><g><title>C2</title><use href="#c2" transform="translate(22.0, 69.0) scale(1.0)" fill="url(#g22)"/></g><g><title>C3</title><use href="#c3" transform="translate(46.0, 69.0) scale(1.0)" fill="url(#g23)"/></g><g><title>C2</title><g clip-path="url(#v3clip-8)"><use href="#c2" transform="translate(72.0, 77.0) rotate(90 6.0 0.0) scale(1.0)" fill="url(#g24)"/></g></g><g><title>C1</title><use href="#c1" transform="translate(22.0, 93.0) rotate(180 12.0 4.0) scale(1.0)" fill="url(#g25)"/></g><g><title>C3</title><g clip-path="url(#v3clip-9)"><use href="#c3" transform="translate(10.0, 93.0) rotate(270 4.0 0.0) scale(1.0)" fill="url(#g26)"/></g></g><g><title>C3</title><use href="#c3" transform="translate(86.0, 69.0) scale(1.0)" fill="url(#g27)"/></g><g><title>C3</title><g clip-path="url(#v3clip-10)"><use href="#c3" transform="translate(138.0, 77.0) rotate(90 4.0 0.0) scale(1.0)" fill="url(#g28)"/></g></g><g><title>C2</title><use href="#c2" transform="translate(110.0, 93.0) rotate(180 12.0 4.0) scale(1.0)" fill="url(#g29)"/></g><g><title>C3</title><use href="#c3" transform="translate(86.0, 93.0) rotate(180 12.0 4.0) scale(1.0)" fill="url(#g30)"/></g><g><title>C1</title><g clip-path="url(#v3clip-11)"><use href="#c1" transform="translate(76.0, 93.0) rotate(270 2.0 0.0) scale(1.0)" fill="url(#g31)"/></g></g><g><title>C3</title><use href="#c3" transform="translate(150.0, 69.0) scale(1.0)" fill="url(#g32)"/></g><g><title>C1</title><g clip-path="url(#v3clip-12)"><use href="#c1" transform="translate(204.0, 77.0) rotate(90 2.0 0.0) scale(1.0)" fill="url(#g33)"/></g></g><g><title>C2</title><use href="#c2" transform="translate(150.0, 93.0) rotate(180 12.0 4.0) scale(1.0)" fill="url(#g34)"/></g><g><title>C1</title><g clip-path="url(#v3clip-13)"><use href="#c1" transform="translate(140.0, 93.0) rotate(270 2.0 0.0) scale(1.0)" fill="url(#g35)"/></g></g><g><title>C3</title><use href="#c3" transform="translate(22.0, 101.0) scale(1.0)" fill="url(#g36)"/></g><g><title>C1</title><use href="#c1" transform="translate(46.0, 101.0) scale(1.0)" fill="url(#g37)"/></g><g><title>C1</title><g clip-path="url(#v3clip-14)"><use href="#c1" transform="translate(76.0, 109.0) rotate(90 2.0 0.0) scale(1.0)" fill="url(#g38)"/></g></g><g><title>C3</title><use href="#c3" transform="translate(46.0, 125.0) rotate(180 12.0 4.0) scale(1.0)" fill="url(#g39)"/></g><g><title>C1</title><use href="#c1" transform="translate(22.0, 125.0) rotate(180 12.0 4.0) scale(1.0)" fill="url(#g40)"/></g><g><title>C3</title><use href="#c3" transform="translate(110.0, 101.0) scale(1.0)" fill="url(#g41)"/></g><g><title>C2</title><g clip-path="url(#v3clip-15)"><use href="#c2" transform="translate(136.0, 109.0) rotate(90 6.0 0.0) scale(1.0)" fill="url(#g42)"/></g></g><g><title>C3</title><use href="#c3" transform="translate(110.0, 125.0) rotate(180 12.0 4.0) scale(1.0)" fill="url(#g43)"/></g><g><title>C2</title><use href="#c2" transform="translate(86.0, 125.0) rotate(180 12.0 4.0) scale(1.0)" fill="url(#g44)"/></g><g><title>C3</title><use href="#c3" transform="translate(174.0, 101.0) scale(1.0)" fill="url(#g45)"/></g><g><title>C3</title><use href="#c3" transform="translate(174.0, 125.0) rotate(180 12.0 4.0) scale(1.0)" fill="url(#g46)"/></g><g clip-path="url(#grid-clip)"><ellipse cx="78.0" cy="37.0" rx="49.06666666666666" ry="49.06666666666666" transform="rotate(60.0 78.0 37.0)" fill="#000000" fill-opacity="0.2"/></g><rect x="86.0" y="13.0" width="48.0" height="16.0" fill="#c5b4a3"/><text x="110.0" y="21.0" fill="#ffffff" style="font-family: monospace; font-size: 12.0px;" text-anchor="middle" dominant-baseline="central">A3B4C5</text><rect x="150.0" y="13.0" width="48.0" height="16.0" fill="#f8e7d6"/><text x="174.0" y="21.0" fill="#000000" style="font-family: monospace; font-size: 12.0px;" text-anchor="middle" dominant-baseline="central">D6E7F8</text><rect x="22.0" y="45.0" width="48.0" height="16.0" fill="#2b1a09"/><text x="46.0" y="53.0" fill="#ffffff" style="font-family: monospace; font-size: 12.0px;" text-anchor="middle" dominant-baseline="central">091A2B</text><rect x="86.0" y="45.0" width="48.0" height="16.0" fill="#5e4d3c"/><text x="110.0" y="53.0" fill="#ffffff" style="font-family: monospace; font-size: 12.0px;" text-anchor="middle" dominant-baseline="central">3C4D5E</text><rect x="150.0" y="45.0" width="48.0" height="16.0" fill="#81706f"/><text x="174.0" y="53.0" fill="#ffffff" style="font-family: monospace; font-size: 12.0px;" text-anchor="middle" dominant-baseline="central">6F7081</text><rect x="22.0" y="77.0" width="48.0" height="16.0" fill="#b4a392"/><text x="46.0" y="85.0" fill="#ffffff" style="font-family: monospace; font-size: 12.0px;" text-anchor="middle" dominant-baseline="central">92A3B4</text><rect x="86.0" y="77.0" width="48.0" height="16.0" fill="#e7d6c5"/><text x="110.0" y="85.0" fill="#000000" style="font-family: monospace; font-size: 12.0px;" text-anchor="middle" dominant-baseline="central">C5D6E7</text><rect x="150.0" y="77.0" width="48.0" height="16.0" fill="#1009f8"/><text x="174.0" y="85.0" fill="#ffffff" style="font-family: monospace; font-size: 12.0px;" text-anchor="middle" dominant-baseline="central">F80910</text><rect x="22.0" y="109.0" width="48.0" height="16.0" fill="#c3b2a1"/><text x="46.0" y="117.0" fill="#ffffff" style="font-family: monospace; font-size: 12.0px;" text-anchor="middle" dominant-baseline="central">A1B2C3</text><rect x="86.0" y="109.0" width="48.0" height="16.0" fill="#f6e5d4"/><text x="110.0" y="117.0" fill="#000000" style="font-family: monospace; font-size: 12.0px;" text-anchor="middle" dominant-baseline="central">D4E5F6</text><rect x="150.0" y="109.0" width="48.0" height="16.0" fill="#181807"/><text x="174.0" y="117.0" fill="#ffffff" style="font-family: monospace; font-size: 12.0px;" text-anchor="middle" dominant-baseline="central">0718</text><circle cx="80.0" cy="71.0" r="2.0" fill="#ffffff"/><circle cx="204.0" cy="71.0" r="2.0" fill="#ff3f2f"/><circle cx="76.0" cy="67.0" r="2.0" fill="#2f3fbf"/><circle cx="16.0" cy="131.0" r="2.0" fill="#000000"/><rect x="1" y="1" width="8.0" height="49.62759665400595" fill="#ffffff"/><rect x="1" y="50.62759665400595" width="8.0" height="49.62759665400595" fill="#ff3f2f"/><rect x="1" y="100.2551933080119" width="8.0" height="49.62759665400595" fill="#000000"/><rect x="1" y="149.88278996201785" width="8.0" height="7.117210037982147" fill="#2f3fbf"/><text x="206.0" y="145.0" fill="#444444" style="font-family: monospace; font-size: 12.0px;" text-anchor="end" dominant-baseline="central">118 318 211</text><line x1="0" y1="0.5" x2="211.0" y2="0.5" stroke="#808080" stroke-width="1" shape-rendering="crispEdges"/><line x1="210.5" y1="0" x2="210.5" y2="158.0" stroke="#808080" stroke-width="1" shape-rendering="crispEdges"/><line x1="0" y1="157.5" x2="211.0" y2="157.5" stroke="#808080" stroke-width="1" shape-rendering="crispEdges"/><line x1="0.5" y1="0" x2="0.5" y2="158.0" stroke="#808080" stroke-width="1" shape-rendering="crispEdges"/><line x1="9.5" y1="0" x2="9.5" y2="158.0" stroke="#808080" stroke-width="1" shape-rendering="crispEdges"/></svg>