<svg width="211.0" height="158.0" xmlns="http://www.w3.org/2000/svg"><defs data-v3-clip-seq="15"><clipPath id="grid-clip"><rect x="14.0" y="5.0" width="192.0" height="128.0"/></clipPath><path id="c1" d="M0,8 L0,6 L2,6 L2,0 L8,0 L8,8 L6,8 L6,4 L4,4 L4,8 Z M12,4 L14,4 L14,8 L12,8 Z M22,4 L24,4 L24,8 L22,8 Z" fill-rule="evenodd"/><path id="c2" d="M0,8 L0,2 L4,2 L4,4 L6,4 L6,8 L10,8 L10,2 L10,0 L24,0 L24,8 Z M18,0 L20,0 L20,4 L18,4 Z M14,0 L16,0 L16,2 L14,2 Z" fill-rule="evenodd"/><path id="c3" d="M16,0 L20,0 L20,8 L16,8 L16,6 L12,6 L12,4 L16,4 Z M0,6 L2,6 L2,8 L0,8 Z" fill-rule="evenodd"/><path id="p1" d="M0,8 L0,4 L3,3 L4,0 L12,0 L16,8 Z" fill-rule="evenodd"/><path id="p2" d="M16,0 L12,4 L8,8 L14,8 L18,0 L22,8 L24,8 L24,4 L20,0 Z" fill-rule="evenodd"/><path id="p3" d="M0,2 L4,0 L6,4 L10,8 L0,8 Z M20,8 L24,4 L24,8 Z" fill-rule="evenodd"/><linearGradient id="g0" gradientUnits="userSpaceOnUse" x1="12" y1="8" x2="12" y2="0"><stop offset="0%" stop-color="#1678ba"/><stop offset="100%" stop-color="#000000"/></linearGradient><linearGradient id="g1" gradientUnits="userSpaceOnUse" x1="12" y1="8" x2="12" y2="0"><stop offset="0%" stop-color="#1678ba"/><stop offset="100%" stop-color="#2f3fbf"/></linearGradient><linearGradient id="g2" gradientUnits="userSpaceOnUse" x1="12" y1="8" x2="12" y2="0"><stop offset="0%" stop-color="#1678ba"/><stop offset="100%" stop-color="#ffffff"/></linearGradient><clipPath id="v3clip-0"><rect x="70.0" y="13.0" width="8.0" height="16.0"/></clipPath><linearGradient id="g3" gradientUnits="userSpaceOnUse" x1="12" y1="8" x2="12" y2="0"><stop offset="0%" stop-color="#1678ba"/><stop offset="100%" stop-color="#000000"/></linearGradient><linearGradient id="g4" gradientUnits="userSpaceOnUse" x1="12" y1="8" x2="12" y2="0"><stop offset="0%" stop-color="#1678ba"/><stop offset="100%" stop-color="#000000"/></linearGradient><linearGradient id="g5" gradientUnits="userSpaceOnUse" x1="12" y1="8" x2="12" y2="0"><stop offset="0%" stop-color="#018fbf"/><stop offset="100%" stop-color="#2f3fbf"/></linearGradient><linearGradient id="g6" gradientUnits="userSpaceOnUse" x1="12" y1="8" x2="12" y2="0"><stop offset="0%" stop-color="#018fbf"/><stop offset="100%" stop-color="#ffffff"/></linearGradient><linearGradient id="g7" gradientUnits="userSpaceOnUse" x1="12" y1="8" x2="12" y2="0"><stop offset="0%" stop-color="#018fbf"/><stop offset="100%" stop-color="#ffffff"/></linearGradient><clipPath id="v3clip-1"><rect x="134.0" y="13.0" width="8.0" height="16.0"/></clipPath><linearGradient id="g8" gradientUnits="userSpaceOnUse" x1="12" y1="8" x2="12" y2="0"><stop offset="0%" stop-color="#018fbf"/><stop offset="100%" stop-color="#2f3fbf"/></linearGradient><linearGradient id="g9" gradientUnits="userSpaceOnUse" x1="12" y1="8" x2="12" y2="0"><stop offset="0%" stop-color="#018fbf"/><stop offset="100%" stop-color="#ffffff"/></linearGradient><clipPath id="v3clip-2"><rect x="78.0" y="13.0" width="8.0" height="16.0"/></clipPath><linearGradient id="g10" gradientUnits="userSpaceOnUse" x1="12" y1="8" x2="12" y2="0"><stop offset="0%" stop-color="#41eacf"/><stop offset="100%" stop-color="#ffd966"/></linearGradient><linearGradient id="g11" gradientUnits="userSpaceOnUse" x1="12" y1="8" x2="12" y2="0"><stop offset="0%" stop-color="#41eacf"/><stop offset="100%" stop-color="#ffd966"/></linearGradient><clipPath id="v3clip-3"><rect x="198.0" y="13.0" width="8.0" height="16.0"/></clipPath><linearGradient id="g12" gradientUnits="userSpaceOnUse" x1="12" y1="8" x2="12" y2="0"><stop offset="0%" stop-color="#41eacf"/><stop offset="100%" stop-color="#ffffff"/></linearGradient><linearGradient id="g13" gradientUnits="userSpaceOnUse" x1="12" y1="8" x2="12" y2="0"><stop offset="0%" stop-color="#41eacf"/><stop offset="100%" stop-color="#2f3fbf"/></linearGradient><linearGradient id="g14" gradientUnits="userSpaceOnUse" x1="12" y1="8" x2="12" y2="0"><stop offset="0%" stop-color="#41eacf"/><stop offset="100%" stop-color="#ffd966"/></linearGradient><clipPath id="v3clip-4"><rect x="142.0" y="13.0" width="8.0" height="16.0"/></clipPath><linearGradient id="g15" gradientUnits="userSpaceOnUse" x1="12" y1="8" x2="12" y2="0"><stop offset="0%" stop-color="#de4041"/><stop offset="100%" stop-color="#000000"/></linearGradient><linearGradient id="g16" gradientUnits="userSpaceOnUse" x1="12" y1="8" x2="12" y2="0"><stop offset="0%" stop-color="#de4041"/><stop offset="100%" stop-color="#ffd966"/></linearGradient><linearGradient id="g17" gradientUnits="userSpaceOnUse" x1="12" y1="8" x2="12" y2="0"><stop offset="0%" stop-color="#de4041"/><stop offset="100%" stop-color="#ffd966"/></linearGradient><linearGradient id="g18" gradientUnits="userSpaceOnUse" x1="12" y1="8" x2="12" y2="0"><stop offset="0%" stop-color="#22ae5d"/><stop offset="100%" stop-color="#ffffff"/></linearGradient><linearGradient id="g19" gradientUnits="userSpaceOnUse" x1="12" y1="8" x2="12" y2="0"><stop offset="0%" stop-color="#22ae5d"/><stop offset="100%" stop-color="#000000"/></linearGradient><linearGradient id="g20" gradientUnits="userSpaceOnUse" x1="12" y1="8" x2="12" y2="0"><stop offset="0%" stop-color="#22ae5d"/><stop offset="100%" stop-color="#000000"/></linearGradient><linearGradient id="g21" gradientUnits="userSpaceOnUse" x1="12" y1="8" x2="12" y2="0"><stop offset="0%" stop-color="#22ae5d"/><stop offset="100%" stop-color="#2f3fbf"/></linearGradient><clipPath id="v3clip-5"><rect x="78.0" y="45.0" width="8.0" height="16.0"/></clipPath><linearGradient id="g22" gradientUnits="userSpaceOnUse" x1="12" y1="8" x2="12" y2="0"><stop offset="0%" stop-color="#03b023"/><stop offset="100%" stop-color="#2f3fbf"/></linearGradient><linearGradient id="g23" gradientUnits="userSpaceOnUse" x1="12" y1="8" x2="12" y2="0"><stop offset="0%" stop-color="#03b023"/><stop offset="100%" stop-color="#000000"/></linearGradient><linearGradient id="g24" gradientUnits="userSpaceOnUse" x1="12" y1="8" x2="12" y2="0"><stop offset="0%" stop-color="#03b023"/><stop offset="100%" stop-color="#2f3fbf"/></linearGradient><linearGradient id="g25" gradientUnits="userSpaceOnUse" x1="12" y1="8" x2="12" y2="0"><stop offset="0%" stop-color="#03b023"/><stop offset="100%" stop-color="#000000"/></linearGradient><clipPath id="v3clip-6"><rect x="142.0" y="45.0" width="8.0" height="16.0"/></clipPath><linearGradient id="g26" gradientUnits="userSpaceOnUse" x1="12" y1="8" x2="12" y2="0"><stop offset="0%" stop-color="#96a361"/><stop offset="100%" stop-color="#ffffff"/></linearGradient><linearGradient id="g27" gradientUnits="userSpaceOnUse" x1="12" y1="8" x2="12" y2="0"><stop offset="0%" stop-color="#96a361"/><stop offset="100%" stop-color="#2f3fbf"/></linearGradient><linearGradient id="g28" gradientUnits="userSpaceOnUse" x1="12" y1="8" x2="12" y2="0"><stop offset="0%" stop-color="#96a361"/><stop offset="100%" stop-color="#ffffff"/></linearGradient><clipPath id="v3clip-7"><rect x="70.0" y="77.0" width="8.0" height="16.0"/></clipPath><linearGradient id="g29" gradientUnits="userSpaceOnUse" x1="12" y1="8" x2="12" y2="0"><stop offset="0%" stop-color="#96a361"/><stop offset="100%" stop-color="#ffd966"/></linearGradient><clipPath id="v3clip-8"><rect x="14.0" y="77.0" width="8.0" height="16.0"/></clipPath><linearGradient id="g30" gradientUnits="userSpaceOnUse" x1="12" y1="8" x2="12" y2="0"><stop offset="0%" stop-color="#9c7a17"/><stop offset="100%" stop-color="#ffffff"/></linearGradient><linearGradient id="g31" gradientUnits="userSpaceOnUse" x1="12" y1="8" x2="12" y2="0"><stop offset="0%" stop-color="#9c7a17"/><stop offset="100%" stop-color="#ffd966"/></linearGradient><linearGradient id="g32" gradientUnits="userSpaceOnUse" x1="12" y1="8" x2="12" y2="0"><stop offset="0%" stop-color="#9c7a17"/><stop offset="100%" stop-color="#2f3fbf"/></linearGradient><clipPath id="v3clip-9"><rect x="134.0" y="77.0" width="8.0" height="16.0"/></clipPath><linearGradient id="g33" gradientUnits="userSpaceOnUse" x1="12" y1="8" x2="12" y2="0"><stop offset="0%" stop-color="#9c7a17"/><stop offset="100%" stop-color="#000000"/></linearGradient><linearGradient id="g34" gradientUnits="userSpaceOnUse" x1="12" y1="8" x2="12" y2="0"><stop offset="0%" stop-color="#9c7a17"/><stop offset="100%" stop-color="#000000"/></linearGradient><linearGradient id="g35" gradientUnits="userSpaceOnUse" x1="12" y1="8" x2="12" y2="0"><stop offset="0%" stop-color="#9c7a17"/><stop offset="100%" stop-color="#ffd966"/></linearGradient><clipPath id="v3clip-10"><rect x="78.0" y="77.0" width="8.0" height="16.0"/></clipPath><linearGradient id="g36" gradientUnits="userSpaceOnUse" x1="12" y1="8" x2="12" y2="0"><stop offset="0%" stop-color="#ff10b4"/><stop offset="100%" stop-color="#000000"/></linearGradient><linearGradient id="g37" gradientUnits="userSpaceOnUse" x1="12" y1="8" x2="12" y2="0"><stop offset="0%" stop-color="#ff10b4"/><stop offset="100%" stop-color="#2f3fbf"/></linearGradient><clipPath id="v3clip-11"><rect x="198.0" y="77.0" width="8.0" height="16.0"/></clipPath><linearGradient id="g38" gradientUnits="userSpaceOnUse" x1="12" y1="8" x2="12" y2="0"><stop offset="0%" stop-color="#ff10b4"/><stop offset="100%" stop-color="#2f3fbf"/></linearGradient><linearGradient id="g39" gradientUnits="userSpaceOnUse" x1="12" y1="8" x2="12" y2="0"><stop offset="0%" stop-color="#ff10b4"/><stop offset="100%" stop-color="#ffffff"/></linearGradient><clipPath id="v3clip-12"><rect x="142.0" y="77.0" width="8.0" height="16.0"/></clipPath><linearGradient id="g40" gradientUnits="userSpaceOnUse" x1="12" y1="8" x2="12" y2="0"><stop offset="0%" stop-color="#00f261"/><stop offset="100%" stop-color="#ffd966"/></linearGradient><linearGradient id="g41" gradientUnits="userSpaceOnUse" x1="12" y1="8" x2="12" y2="0"><stop offset="0%" stop-color="#00f261"/><stop offset="100%" stop-color="#ffd966"/></linearGradient><linearGradient id="g42" gradientUnits="userSpaceOnUse" x1="12" y1="8" x2="12" y2="0"><stop offset="0%" stop-color="#00f261"/><stop offset="100%" stop-color="#2f3fbf"/></linearGradient><linearGradient id="g43" gradientUnits="userSpaceOnUse" x1="12" y1="8" x2="12" y2="0"><stop offset="0%" stop-color="#adad15"/><stop offset="100%" stop-color="#2f3fbf"/></linearGradient><linearGradient id="g44" gradientUnits="userSpaceOnUse" x1="12" y1="8" x2="12" y2="0"><stop offset="0%" stop-color="#adad15"/><stop offset="100%" stop-color="#ffffff"/></linearGradient><clipPath id="v3clip-13"><rect x="198.0" y="109.0" width="8.0" height="16.0"/></clipPath><linearGradient id="g45" gradientUnits="userSpaceOnUse" x1="12" y1="8" x2="12" y2="0"><stop offset="0%" stop-color="#adad15"/><stop offset="100%" stop-color="#2f3fbf"/></linearGradient><linearGradient id="g46" gradientUnits="userSpaceOnUse" x1="12" y1="8" x2="12" y2="0"><stop offset="0%" stop-color="#adad15"/><stop offset="100%" stop-color="#ffd966"/></linearGradient><linearGradient id="g47" gradientUnits="userSpaceOnUse" x1="12" y1="8" x2="12" y2="0"><stop offset="0%" stop-color="#adad15"/><stop offset="100%" stop-color="#ffffff"/></linearGradient><clipPath id="v3clip-14"><rect x="142.0" y="109.0" width="8.0" height="16.0"/></clipPath></defs><rect x="0" y="0" width="211.0" height="158.0" fill="#ffffff"/><rect x="14.0" y="5.0" width="192.0" height="128.0" fill="#ff3f2f"/><g><title>C2</title><use href="#c2" transform="translate(22.0, 5.0) scale(1.0)" fill="url(#g0)"/></g><g><title>C1</title><use href="#c1" transform="translate(46.0, 5.0) scale(1.0)" fill="url(#g1)"/></g><g><title>C2</title><g clip-path="url(#v3clip-0)"><use href="#c2" transform="translate(72.0, 13.0) rotate(90 6.0 0.0) scale(1.0)" fill="url(#g2)"/></g></g><g><title>C3</title><use href="#c3" transform="translate(46.0, 29.0) rotate(180 12.0 4.0) scale(1.0)" fill="url(#g3)"/></g><g><title>C3</title><use href="#c3" transform="translate(22.0, 29.0) rotate(180 12.0 4.0) scale(1.0)" fill="url(#g4)"/></g><g><title>C3</title><use href="#c3" transform="translate(86.0, 5.0) scale(1.0)" fill="url(#g5)"/></g><g><title>C3</title><use href="#c3" transform="translate(110.0, 5.0) scale(1.0)" fill="url(#g6)"/></g><g><title>C3</title><g clip-path="url(#v3clip-1)"><use href="#c3" transform="translate(138.0, 13.0) rotate(90 4.0 0.0) scale(1.0)" fill="url(#g7)"/></g></g><g><title>C2</title><use href="#c2" transform="translate(86.0, 29.0) rotate(180 12.0 4.0) scale(1.0)" fill="url(#g8)"/></g><g><title>C1</title><g clip-path="url(#v3clip-2)"><use href="#c1" transform="translate(76.0, 29.0) rotate(270 2.0 0.0) scale(1.0)" fill="url(#g9)"/></g></g><g><title>C2</title><use href="#c2" transform="translate(150.0, 5.0) scale(1.0)" fill="url(#g10)"/></g><g><title>C2</title><g clip-path="url(#v3clip-3)"><use href="#c2" transform="translate(200.0, 13.0) rotate(90 6.0 0.0) scale(1.0)" fill="url(#g11)"/></g></g><g><title>C1</title><use href="#c1" transform="translate(174.0, 29.0) rotate(180 12.0 4.0) scale(1.0)" fill="url(#g12)"/></g><g><title>C2</title><use href="#c2" transform="translate(150.0, 29.0) rotate(180 12.0 4.0) scale(1.0)" fill="url(#g13)"/></g><g><title>C2</title><g clip-path="url(#v3clip-4)"><use href="#c2" transform="translate(136.0, 29.0) rotate(270 6.0 0.0) scale(1.0)" fill="url(#g14)"/></g></g><g><title>C1</title><use href="#c1" transform="translate(46.0, 37.0) scale(1.0)" fill="url(#g15)"/></g><g><title>C3</title><use href="#c3" transform="translate(46.0, 61.0) rotate(180 12.0 4.0) scale(1.0)" fill="url(#g16)"/></g><g><title>C1</title><use href="#c1" transform="translate(22.0, 61.0) rotate(180 12.0 4.0) scale(1.0)" fill="url(#g17)"/></g><g><title>C2</title><use href="#c2" transform="translate(86.0, 37.0) scale(1.0)" fill="url(#g18)"/></g><g><title>C1</title><use href="#c1" transform="translate(110.0, 37.0) scale(1.0)" fill="url(#g19)"/></g><g><title>C2</title><use href="#c2" transform="translate(110.0, 61.0) rotate(180 12.0 4.0) scale(1.0)" fill="url(#g20)"/></g><g><title>C1</title><g clip-path="url(#v3clip-5)"><use href="#c1" transform="translate(76.0, 61.0) rotate(270 2.0 0.0) scale(1.0)" fill="url(#g21)"/></g></g><g><title>C2</title><use href="#c2" transform="translate(150.0, 37.0) scale(1.0)" fill="url(#g22)"/></g><g><title>C1</title><use href="#c1" transform="translate(174.0, 37.0) scale(1.0)" fill="url(#g23)"/></g><g><title>C1</title><use href="#c1" transform="translate(174.0, 61.0) rotate(180 12.0 4.0) scale(1.0)" fill="url(#g24)"/></g><g><title>C1</title><g clip-path="url(#v3clip-6)"><use href="#c1" transform="translate(140.0, 61.0) rotate(270 2.0 0.0) scale(1.0)" fill="url(#g25)"/></g></g><g><title>C1</title><use href="#c1" transform="translate(22.0, 69.0) scale(1.0)" fill="url(#g26)"/></g><g><title>C2</title><use href="#c2" transform="translate(46.0, 69.0) scale(1.0)" fill="url(#g27)"/></g><g><title>C3</title><g clip-path="url(#v3clip-7)"><use href="#c3" transform="translate(74.0, 77.0) rotate(90 4.0 0.0) scale(1.0)" fill="url(#g28)"/></g></g><g><title>C3</title><g clip-path="url(#v3clip-8)"><use href="#c3" transform="translate(10.0, 93.0) rotate(270 4.0 0.0) scale(1.0)" fill="url(#g29)"/></g></g><g><title>C3</title><use href="#c3" transform="translate(86.0, 69.0) scale(1.0)" fill="url(#g30)"/></g><g><title>C1</title><use href="#c1" transform="translate(110.0, 69.0) scale(1.0)" fill="url(#g31)"/></g><g><title>C3</title><g clip-path="url(#v3clip-9)"><use href="#c3" transform="translate(138.0, 77.0) rotate(90 4.0 0.0) scale(1.0)" fill="url(#g32)"/></g></g><g><title>C1</title><use href="#c1" transform="translate(110.0, 93.0) rotate(180 12.0 4.0) scale(1.0)" fill="url(#g33)"/></g><g><title>C1</title><use href="#c1" transform="translate(86.0, 93.0) rotate(180 12.0 4.0) scale(1.0)" fill="url(#g34)"/></g><g><title>C2</title><g clip-path="url(#v3clip-10)"><use href="#c2" transform="translate(72.0, 93.0) rotate(270 6.0 0.0) scale(1.0)" fill="url(#g35)"/></g></g><g><title>C3</title><use href="#c3" transform="translate(150.0, 69.0) scale(1.0)" fill="url(#g36)"/></g><g><title>C1</title><g clip-path="url(#v3clip-11)"><use href="#c1" transform="translate(204.0, 77.0) rotate(90 2.0 0.0) scale(1.0)" fill="url(#g37)"/></g></g><g><title>C3</title><use href="#c3" transform="translate(150.0, 93.0) rotate(180 12.0 4.0) scale(1.0)" fill="url(#g38)"/></g><g><title>C2</title><g clip-path="url(#v3clip-12)"><use href="#c2" transform="translate(136.0, 93.0) rotate(270 6.0 0.0) scale(1.0)" fill="url(#g39)"/></g></g><g><title>C3</title><use href="#c3" transform="translate(110.0, 101.0) scale(1.0)" fill="url(#g40)"/></g><g><title>C3</title><use href="#c3" transform="translate(110.0, 125.0) rotate(180 12.0 4.0) scale(1.0)" fill="url(#g41)"/></g><g><title>C3</title><use href="#c3" transform="translate(86.0, 125.0) rotate(180 12.0 4.0) scale(1.0)" fill="url(#g42)"/></g><g><title>C1</title><use href="#c1" transform="translate(174.0, 101.0) scale(1.0)" fill="url(#g43)"/></g><g><title>C2</title><g clip-path="url(#v3clip-13)"><use href="#c2" transform="translate(200.0, 109.0) rotate(90 6.0 0.0) scale(1.0)" fill="url(#g44)"/></g></g><g><title>C2</title><use href="#c2" transform="translate(174.0, 125.0) rotate(180 12.0 4.0) scale(1.0)" fill="url(#g45)"/></g><g><title>C2</title><use href="#c2" transform="translate(150.0, 125.0) rotate(180 12.0 4.0) scale(1.0)" fill="url(#g46)"/></g><g><title>C1</title><g clip-path="url(#v3clip-14)"><use href="#c1" transform="translate(140.0, 125.0) rotate(270 2.0 0.0) scale(1.0)" fill="url(#g47)"/></g></g><g clip-path="url(#grid-clip)"><ellipse cx="142.0" cy="69.0" rx="69.68668044798923" ry="57.12445363199282" transform="rotate(168.0 142.0 69.0)" fill="#000000" fill-opacity="0.3"/></g><rect x="22.0" y="13.0" width="48.0" height="16.0" fill="#1678ba"/><text x="46.0" y="21.0" fill="#ffffff" style="font-family: monospace; font-size: 12.0px;" text-anchor="middle" dominant-baseline="central">BA7816</text><rect x="86.0" y="13.0" width="48.0" height="16.0" fill="#018fbf"/><text x="110.0" y="21.0" fill="#ffffff" style="font-family: monospace; font-size: 12.0px;" text-anchor="middle" dominant-baseline="central">BF8F01</text><rect x="150.0" y="13.0" width="48.0" height="16.0" fill="#41eacf"/><text x="174.0" y="21.0" fill="#000000" style="font-family: monospace; font-size: 12.0px;" text-anchor="middle" dominant-baseline="central">CFEA41</text><rect x="22.0" y="45.0" width="48.0" height="16.0" fill="#de4041"/><text x="46.0" y="53.0" fill="#ffffff" style="font-family: monospace; font-size: 12.0px;" text-anchor="middle" dominant-baseline="central">4140DE</text><rect x="86.0" y="45.0" width="48.0" height="16.0" fill="#22ae5d"/><text x="110.0" y="53.0" fill="#ffffff" style="font-family: monospace; font-size: 12.0px;" text-anchor="middle" dominant-baseline="central">5DAE22</text><rect x="150.0" y="45.0" width="48.0" height="16.0" fill="#03b023"/><text x="174.0" y="53.0" fill="#ffffff" style="font-family: monospace; font-size: 12.0px;" text-anchor="middle" dominant-baseline="central">23B003</text><rect x="22.0" y="77.0" width="48.0" height="16.0" fill="#96a361"/><text x="46.0" y="85.0" fill="#ffffff" style="font-family: monospace; font-size: 12.0px;" text-anchor="middle" dominant-baseline="central">61A396</text><rect x="86.0" y="77.0" width="48.0" height="16.0" fill="#9c7a17"/><text x="110.0" y="85.0" fill="#ffffff" style="font-family: monospace; font-size: 12.0px;" text-anchor="middle" dominant-baseline="central">177A9C</text><rect x="150.0" y="77.0" width="48.0" height="16.0" fill="#ff10b4"/><text x="174.0" y="85.0" fill="#ffffff" style="font-family: monospace; font-size: 12.0px;" text-anchor="middle" dominant-baseline="central">B410FF</text><rect x="86.0" y="109.0" width="48.0" height="16.0" fill="#00f261"/><text x="110.0" y="117.0" fill="#000000" style="font-family: monospace; font-size: 12.0px;" text-anchor="middle" dominant-baseline="central">61F200</text><rect x="150.0" y="109.0" width="48.0" height="16.0" fill="#adad15"/><text x="174.0" y="117.0" fill="#ffffff" style="font-family: monospace; font-size: 12.0px;" text-anchor="middle" dominant-baseline="central">15AD</text><circle cx="144.0" cy="103.0" r="2.0" fill="#ffffff"/><circle cx="204.0" cy="39.0" r="2.0" fill="#ffd966"/><circle cx="204.0" cy="99.0" r="2.0" fill="#2f3fbf"/><circle cx="16.0" cy="99.0" r="2.0" fill="#000000"/><rect x="1" y="1" width="8.0" height="67.76687699301173" fill="#2f3fbf"/><rect x="1" y="68.76687699301173" width="8.0" height="36.57887237940159" fill="#ffffff"/><rect x="1" y="105.34574937241332" width="8.0" height="25.82712531379334" fill="#ffd966"/><rect x="1" y="131.17287468620665" width="8.0" height="25.827125313793346" fill="#000000"/><text x="206.0" y="145.0" fill="#444444" style="font-family: monospace; font-size: 12.0px;" text-anchor="end" dominant-baseline="central">117 216 315</text><line x1="0" y1="0.5" x2="211.0" y2="0.5" stroke="#808080" stroke-width="1" shape-rendering="crispEdges"/><line x1="210.5" y1="0" x2="210.5" y2="158.0" stroke="#808080" stroke-width="1" shape-rendering="crispEdges"/><line x1="0" y1="157.5" x2="211.0" y2="157.5" stroke="#808080" stroke-width="1" shape-rendering="crispEdges"/><line x1="0.5" y1="0" x2="0.5" y2="158.0" stroke="#808080" stroke-width="1" shape-rendering="crispEdges"/><line x1="9.5" y1="0" x2="9.5" y2="158.0" stroke="#808080" stroke-width="1" shape-rendering="crispEdges"/></svg>