<svg width="275.0" height="222.0" xmlns="http://www.w3.org/2000/svg"><defs data-v3-clip-seq="32"><clipPath id="grid-clip"><rect x="14.0" y="5.0" width="256.0" height="192.0"/></clipPath><path id="c1" d="M0,8 L0,6 L2,6 L2,0 L8,0 L8,8 L6,8 L6,4 L4,4 L4,8 Z M12,4 L14,4 L14,8 L12,8 Z M22,4 L24,4 L24,8 L22,8 Z" fill-rule="evenodd"/><path id="c2" d="M0,8 L0,2 L4,2 L4,4 L6,4 L6,8 L10,8 L10,2 L10,0 L24,0 L24,8 Z M18,0 L20,0 L20,4 L18,4 Z M14,0 L16,0 L16,2 L14,2 Z" fill-rule="evenodd"/><path id="c3" d="M16,0 L20,0 L20,8 L16,8 L16,6 L12,6 L12,4 L16,4 Z M0,6 L2,6 L2,8 L0,8 Z" fill-rule="evenodd"/><path id="p1" d="M0,8 L0,4 L3,3 L4,0 L12,0 L16,8 Z" fill-rule="evenodd"/><path id="p2" d="M16,0 L12,4 L8,8 L14,8 L18,0 L22,8 L24,8 L24,4 L20,0 Z" fill-rule="evenodd"/><path id="p3" d="M0,2 L4,0 L6,4 L10,8 L0,8 Z M20,8 L24,4 L24,8 Z" fill-rule="evenodd"/><linearGradient id="g0" gradientUnits="userSpaceOnUse" x1="12" y1="8" x2="12" y2="0"><stop offset="0%" stop-color="#d2719b"/><stop offset="100%" stop-color="#000000"/></linearGradient><linearGradient id="g1" gradientUnits="userSpaceOnUse" x1="12" y1="8" x2="12" y2="0"><stop offset="0%" stop-color="#d2719b"/><stop offset="100%" stop-color="#ffffff"/></linearGradient><linearGradient id="g2" gradientUnits="userSpaceOnUse" x1="12" y1="8" x2="12" y2="0"><stop offset="0%" stop-color="#d2719b"/><stop offset="100%" stop-color="#000000"/></linearGradient><clipPath id="v3clip-0"><rect x="70.0" y="13.0" width="8.0" height="16.0"/></clipPath><linearGradient id="g3" gradientUnits="userSpaceOnUse" x1="12" y1="8" x2="12" y2="0"><stop offset="0%" stop-color="#d2719b"/><stop offset="100%" stop-color="#ffffff"/></linearGradient><linearGradient id="g4" gradientUnits="userSpaceOnUse" x1="12" y1="8" x2="12" y2="0"><stop offset="0%" stop-color="#62bd24"/><stop offset="100%" stop-color="#ffd966"/></linearGradient><linearGradient id="g5" gradientUnits="userSpaceOnUse" x1="12" y1="8" x2="12" y2="0"><stop offset="0%" stop-color="#62bd24"/><stop offset="100%" stop-color="#ffd966"/></linearGradient><linearGradient id="g6" gradientUnits="userSpaceOnUse" x1="12" y1="8" x2="12" y2="0"><stop offset="0%" stop-color="#62bd24"/><stop offset="100%" stop-color="#2f3fbf"/></linearGradient><clipPath id="v3clip-1"><rect x="134.0" y="13.0" width="8.0" height="16.0"/></clipPath><linearGradient id="g7" gradientUnits="userSpaceOnUse" x1="12" y1="8" x2="12" y2="0"><stop offset="0%" stop-color="#62bd24"/><stop offset="100%" stop-color="#2f3fbf"/></linearGradient><linearGradient id="g8" gradientUnits="userSpaceOnUse" x1="12" y1="8" x2="12" y2="0"><stop offset="0%" stop-color="#5d78f3"/><stop offset="100%" stop-color="#000000"/></linearGradient><linearGradient id="g9" gradientUnits="userSpaceOnUse" x1="12" y1="8" x2="12" y2="0"><stop offset="0%" stop-color="#5d78f3"/><stop offset="100%" stop-color="#2f3fbf"/></linearGradient><linearGradient id="g10" gradientUnits="userSpaceOnUse" x1="12" y1="8" x2="12" y2="0"><stop offset="0%" stop-color="#5d78f3"/><stop offset="100%" stop-color="#2f3fbf"/></linearGradient><linearGradient id="g11" gradientUnits="userSpaceOnUse" x1="12" y1="8" x2="12" y2="0"><stop offset="0%" stop-color="#5d78f3"/><stop offset="100%" stop-color="#ffffff"/></linearGradient><clipPath id="v3clip-2"><rect x="142.0" y="13.0" width="8.0" height="16.0"/></clipPath><linearGradient id="g12" gradientUnits="userSpaceOnUse" x1="12" y1="8" x2="12" y2="0"><stop offset="0%" stop-color="#6ad496"/><stop offset="100%" stop-color="#ffffff"/></linearGradient><linearGradient id="g13" gradientUnits="userSpaceOnUse" x1="12" y1="8" x2="12" y2="0"><stop offset="0%" stop-color="#6ad496"/><stop offset="100%" stop-color="#ffd966"/></linearGradient><linearGradient id="g14" gradientUnits="userSpaceOnUse" x1="12" y1="8" x2="12" y2="0"><stop offset="0%" stop-color="#6ad496"/><stop offset="100%" stop-color="#000000"/></linearGradient><clipPath id="v3clip-3"><rect x="14.0" y="45.0" width="8.0" height="16.0"/></clipPath><linearGradient id="g15" gradientUnits="userSpaceOnUse" x1="12" y1="8" x2="12" y2="0"><stop offset="0%" stop-color="#3dead3"/><stop offset="100%" stop-color="#ffffff"/></linearGradient><linearGradient id="g16" gradientUnits="userSpaceOnUse" x1="12" y1="8" x2="12" y2="0"><stop offset="0%" stop-color="#3dead3"/><stop offset="100%" stop-color="#2f3fbf"/></linearGradient><linearGradient id="g17" gradientUnits="userSpaceOnUse" x1="12" y1="8" x2="12" y2="0"><stop offset="0%" stop-color="#3dead3"/><stop offset="100%" stop-color="#000000"/></linearGradient><linearGradient id="g18" gradientUnits="userSpaceOnUse" x1="12" y1="8" x2="12" y2="0"><stop offset="0%" stop-color="#3dead3"/><stop offset="100%" stop-color="#ffd966"/></linearGradient><linearGradient id="g19" gradientUnits="userSpaceOnUse" x1="12" y1="8" x2="12" y2="0"><stop offset="0%" stop-color="#3dead3"/><stop offset="100%" stop-color="#ffffff"/></linearGradient><clipPath id="v3clip-4"><rect x="78.0" y="45.0" width="8.0" height="16.0"/></clipPath><linearGradient id="g20" gradientUnits="userSpaceOnUse" x1="12" y1="8" x2="12" y2="0"><stop offset="0%" stop-color="#9b3173"/><stop offset="100%" stop-color="#2f3fbf"/></linearGradient><linearGradient id="g21" gradientUnits="userSpaceOnUse" x1="12" y1="8" x2="12" y2="0"><stop offset="0%" stop-color="#9b3173"/><stop offset="100%" stop-color="#2f3fbf"/></linearGradient><clipPath id="v3clip-5"><rect x="198.0" y="45.0" width="8.0" height="16.0"/></clipPath><linearGradient id="g22" gradientUnits="userSpaceOnUse" x1="12" y1="8" x2="12" y2="0"><stop offset="0%" stop-color="#9b3173"/><stop offset="100%" stop-color="#ffd966"/></linearGradient><linearGradient id="g23" gradientUnits="userSpaceOnUse" x1="12" y1="8" x2="12" y2="0"><stop offset="0%" stop-color="#9b3173"/><stop offset="100%" stop-color="#000000"/></linearGradient><clipPath id="v3clip-6"><rect x="142.0" y="45.0" width="8.0" height="16.0"/></clipPath><linearGradient id="g24" gradientUnits="userSpaceOnUse" x1="12" y1="8" x2="12" y2="0"><stop offset="0%" stop-color="#89c2fb"/><stop offset="100%" stop-color="#000000"/></linearGradient><linearGradient id="g25" gradientUnits="userSpaceOnUse" x1="12" y1="8" x2="12" y2="0"><stop offset="0%" stop-color="#89c2fb"/><stop offset="100%" stop-color="#000000"/></linearGradient><clipPath id="v3clip-7"><rect x="262.0" y="45.0" width="8.0" height="16.0"/></clipPath><linearGradient id="g26" gradientUnits="userSpaceOnUse" x1="12" y1="8" x2="12" y2="0"><stop offset="0%" stop-color="#89c2fb"/><stop offset="100%" stop-color="#ffffff"/></linearGradient><linearGradient id="g27" gradientUnits="userSpaceOnUse" x1="12" y1="8" x2="12" y2="0"><stop offset="0%" stop-color="#89c2fb"/><stop offset="100%" stop-color="#2f3fbf"/></linearGradient><clipPath id="v3clip-8"><rect x="206.0" y="45.0" width="8.0" height="16.0"/></clipPath><linearGradient id="g28" gradientUnits="userSpaceOnUse" x1="12" y1="8" x2="12" y2="0"><stop offset="0%" stop-color="#daaa0c"/><stop offset="100%" stop-color="#000000"/></linearGradient><linearGradient id="g29" gradientUnits="userSpaceOnUse" x1="12" y1="8" x2="12" y2="0"><stop offset="0%" stop-color="#daaa0c"/><stop offset="100%" stop-color="#000000"/></linearGradient><linearGradient id="g30" gradientUnits="userSpaceOnUse" x1="12" y1="8" x2="12" y2="0"><stop offset="0%" stop-color="#daaa0c"/><stop offset="100%" stop-color="#000000"/></linearGradient><clipPath id="v3clip-9"><rect x="70.0" y="77.0" width="8.0" height="16.0"/></clipPath><linearGradient id="g31" gradientUnits="userSpaceOnUse" x1="12" y1="8" x2="12" y2="0"><stop offset="0%" stop-color="#daaa0c"/><stop offset="100%" stop-color="#2f3fbf"/></linearGradient><linearGradient id="g32" gradientUnits="userSpaceOnUse" x1="12" y1="8" x2="12" y2="0"><stop offset="0%" stop-color="#daaa0c"/><stop offset="100%" stop-color="#ffd966"/></linearGradient><linearGradient id="g33" gradientUnits="userSpaceOnUse" x1="12" y1="8" x2="12" y2="0"><stop offset="0%" stop-color="#daaa0c"/><stop offset="100%" stop-color="#ffffff"/></linearGradient><clipPath id="v3clip-10"><rect x="14.0" y="77.0" width="8.0" height="16.0"/></clipPath><linearGradient id="g34" gradientUnits="userSpaceOnUse" x1="12" y1="8" x2="12" y2="0"><stop offset="0%" stop-color="#f7dfe2"/><stop offset="100%" stop-color="#ffd966"/></linearGradient><linearGradient id="g35" gradientUnits="userSpaceOnUse" x1="12" y1="8" x2="12" y2="0"><stop offset="0%" stop-color="#f7dfe2"/><stop offset="100%" stop-color="#ffd966"/></linearGradient><linearGradient id="g36" gradientUnits="userSpaceOnUse" x1="12" y1="8" x2="12" y2="0"><stop offset="0%" stop-color="#f7dfe2"/><stop offset="100%" stop-color="#ffffff"/></linearGradient><clipPath id="v3clip-11"><rect x="198.0" y="77.0" width="8.0" height="16.0"/></clipPath><linearGradient id="g37" gradientUnits="userSpaceOnUse" x1="12" y1="8" x2="12" y2="0"><stop offset="0%" stop-color="#f7dfe2"/><stop offset="100%" stop-color="#ffffff"/></linearGradient><linearGradient id="g38" gradientUnits="userSpaceOnUse" x1="12" y1="8" x2="12" y2="0"><stop offset="0%" stop-color="#f7dfe2"/><stop offset="100%" stop-color="#ffffff"/></linearGradient><linearGradient id="g39" gradientUnits="userSpaceOnUse" x1="12" y1="8" x2="12" y2="0"><stop offset="0%" stop-color="#f7dfe2"/><stop offset="100%" stop-color="#2f3fbf"/></linearGradient><clipPath id="v3clip-12"><rect x="142.0" y="77.0" width="8.0" height="16.0"/></clipPath><linearGradient id="g40" gradientUnits="userSpaceOnUse" x1="12" y1="8" x2="12" y2="0"><stop offset="0%" stop-color="#671925"/><stop offset="100%" stop-color="#ffffff"/></linearGradient><linearGradient id="g41" gradientUnits="userSpaceOnUse" x1="12" y1="8" x2="12" y2="0"><stop offset="0%" stop-color="#671925"/><stop offset="100%" stop-color="#ffd966"/></linearGradient><clipPath id="v3clip-13"><rect x="262.0" y="77.0" width="8.0" height="16.0"/></clipPath><linearGradient id="g42" gradientUnits="userSpaceOnUse" x1="12" y1="8" x2="12" y2="0"><stop offset="0%" stop-color="#671925"/><stop offset="100%" stop-color="#000000"/></linearGradient><linearGradient id="g43" gradientUnits="userSpaceOnUse" x1="12" y1="8" x2="12" y2="0"><stop offset="0%" stop-color="#23a73c"/><stop offset="100%" stop-color="#ffd966"/></linearGradient><linearGradient id="g44" gradientUnits="userSpaceOnUse" x1="12" y1="8" x2="12" y2="0"><stop offset="0%" stop-color="#23a73c"/><stop offset="100%" stop-color="#2f3fbf"/></linearGradient><linearGradient id="g45" gradientUnits="userSpaceOnUse" x1="12" y1="8" x2="12" y2="0"><stop offset="0%" stop-color="#23a73c"/><stop offset="100%" stop-color="#ffd966"/></linearGradient><clipPath id="v3clip-14"><rect x="70.0" y="109.0" width="8.0" height="16.0"/></clipPath><linearGradient id="g46" gradientUnits="userSpaceOnUse" x1="12" y1="8" x2="12" y2="0"><stop offset="0%" stop-color="#23a73c"/><stop offset="100%" stop-color="#ffd966"/></linearGradient><linearGradient id="g47" gradientUnits="userSpaceOnUse" x1="12" y1="8" x2="12" y2="0"><stop offset="0%" stop-color="#d9c323"/><stop offset="100%" stop-color="#000000"/></linearGradient><linearGradient id="g48" gradientUnits="userSpaceOnUse" x1="12" y1="8" x2="12" y2="0"><stop offset="0%" stop-color="#d9c323"/><stop offset="100%" stop-color="#ffffff"/></linearGradient><clipPath id="v3clip-15"><rect x="78.0" y="109.0" width="8.0" height="16.0"/></clipPath><linearGradient id="g49" gradientUnits="userSpaceOnUse" x1="12" y1="8" x2="12" y2="0"><stop offset="0%" stop-color="#c1a59b"/><stop offset="100%" stop-color="#ffd966"/></linearGradient><linearGradient id="g50" gradientUnits="userSpaceOnUse" x1="12" y1="8" x2="12" y2="0"><stop offset="0%" stop-color="#c1a59b"/><stop offset="100%" stop-color="#ffffff"/></linearGradient><linearGradient id="g51" gradientUnits="userSpaceOnUse" x1="12" y1="8" x2="12" y2="0"><stop offset="0%" stop-color="#c1a59b"/><stop offset="100%" stop-color="#ffffff"/></linearGradient><linearGradient id="g52" gradientUnits="userSpaceOnUse" x1="12" y1="8" x2="12" y2="0"><stop offset="0%" stop-color="#c1a59b"/><stop offset="100%" stop-color="#ffd966"/></linearGradient><clipPath id="v3clip-16"><rect x="142.0" y="109.0" width="8.0" height="16.0"/></clipPath><linearGradient id="g53" gradientUnits="userSpaceOnUse" x1="12" y1="8" x2="12" y2="0"><stop offset="0%" stop-color="#7a7c1d"/><stop offset="100%" stop-color="#ffd966"/></linearGradient><linearGradient id="g54" gradientUnits="userSpaceOnUse" x1="12" y1="8" x2="12" y2="0"><stop offset="0%" stop-color="#7a7c1d"/><stop offset="100%" stop-color="#000000"/></linearGradient><linearGradient id="g55" gradientUnits="userSpaceOnUse" x1="12" y1="8" x2="12" y2="0"><stop offset="0%" stop-color="#7a7c1d"/><stop offset="100%" stop-color="#000000"/></linearGradient><clipPath id="v3clip-17"><rect x="262.0" y="109.0" width="8.0" height="16.0"/></clipPath><linearGradient id="g56" gradientUnits="userSpaceOnUse" x1="12" y1="8" x2="12" y2="0"><stop offset="0%" stop-color="#7a7c1d"/><stop offset="100%" stop-color="#000000"/></linearGradient><linearGradient id="g57" gradientUnits="userSpaceOnUse" x1="12" y1="8" x2="12" y2="0"><stop offset="0%" stop-color="#7a7c1d"/><stop offset="100%" stop-color="#000000"/></linearGradient><linearGradient id="g58" gradientUnits="userSpaceOnUse" x1="12" y1="8" x2="12" y2="0"><stop offset="0%" stop-color="#7a7c1d"/><stop offset="100%" stop-color="#000000"/></linearGradient><clipPath id="v3clip-18"><rect x="206.0" y="109.0" width="8.0" height="16.0"/></clipPath><linearGradient id="g59" gradientUnits="userSpaceOnUse" x1="12" y1="8" x2="12" y2="0"><stop offset="0%" stop-color="#146ecc"/><stop offset="100%" stop-color="#ffffff"/></linearGradient><linearGradient id="g60" gradientUnits="userSpaceOnUse" x1="12" y1="8" x2="12" y2="0"><stop offset="0%" stop-color="#146ecc"/><stop offset="100%" stop-color="#000000"/></linearGradient><linearGradient id="g61" gradientUnits="userSpaceOnUse" x1="12" y1="8" x2="12" y2="0"><stop offset="0%" stop-color="#146ecc"/><stop offset="100%" stop-color="#ffffff"/></linearGradient><linearGradient id="g62" gradientUnits="userSpaceOnUse" x1="12" y1="8" x2="12" y2="0"><stop offset="0%" stop-color="#146ecc"/><stop offset="100%" stop-color="#ffd966"/></linearGradient><clipPath id="v3clip-19"><rect x="14.0" y="141.0" width="8.0" height="16.0"/></clipPath><linearGradient id="g63" gradientUnits="userSpaceOnUse" x1="12" y1="8" x2="12" y2="0"><stop offset="0%" stop-color="#dac5b8"/><stop offset="100%" stop-color="#000000"/></linearGradient><linearGradient id="g64" gradientUnits="userSpaceOnUse" x1="12" y1="8" x2="12" y2="0"><stop offset="0%" stop-color="#dac5b8"/><stop offset="100%" stop-color="#000000"/></linearGradient><linearGradient id="g65" gradientUnits="userSpaceOnUse" x1="12" y1="8" x2="12" y2="0"><stop offset="0%" stop-color="#dac5b8"/><stop offset="100%" stop-color="#2f3fbf"/></linearGradient><clipPath id="v3clip-20"><rect x="78.0" y="141.0" width="8.0" height="16.0"/></clipPath><linearGradient id="g66" gradientUnits="userSpaceOnUse" x1="12" y1="8" x2="12" y2="0"><stop offset="0%" stop-color="#63460c"/><stop offset="100%" stop-color="#ffffff"/></linearGradient><linearGradient id="g67" gradientUnits="userSpaceOnUse" x1="12" y1="8" x2="12" y2="0"><stop offset="0%" stop-color="#63460c"/><stop offset="100%" stop-color="#ffd966"/></linearGradient><clipPath id="v3clip-21"><rect x="198.0" y="141.0" width="8.0" height="16.0"/></clipPath><linearGradient id="g68" gradientUnits="userSpaceOnUse" x1="12" y1="8" x2="12" y2="0"><stop offset="0%" stop-color="#63460c"/><stop offset="100%" stop-color="#2f3fbf"/></linearGradient><linearGradient id="g69" gradientUnits="userSpaceOnUse" x1="12" y1="8" x2="12" y2="0"><stop offset="0%" stop-color="#63460c"/><stop offset="100%" stop-color="#ffd966"/></linearGradient><clipPath id="v3clip-22"><rect x="142.0" y="141.0" width="8.0" height="16.0"/></clipPath><linearGradient id="g70" gradientUnits="userSpaceOnUse" x1="12" y1="8" x2="12" y2="0"><stop offset="0%" stop-color="#2e5c47"/><stop offset="100%" stop-color="#000000"/></linearGradient><clipPath id="v3clip-23"><rect x="262.0" y="141.0" width="8.0" height="16.0"/></clipPath><linearGradient id="g71" gradientUnits="userSpaceOnUse" x1="12" y1="8" x2="12" y2="0"><stop offset="0%" stop-color="#2e5c47"/><stop offset="100%" stop-color="#000000"/></linearGradient><linearGradient id="g72" gradientUnits="userSpaceOnUse" x1="12" y1="8" x2="12" y2="0"><stop offset="0%" stop-color="#2e5c47"/><stop offset="100%" stop-color="#ffffff"/></linearGradient><linearGradient id="g73" gradientUnits="userSpaceOnUse" x1="12" y1="8" x2="12" y2="0"><stop offset="0%" stop-color="#2e5c47"/><stop offset="100%" stop-color="#000000"/></linearGradient><clipPath id="v3clip-24"><rect x="206.0" y="141.0" width="8.0" height="16.0"/></clipPath><linearGradient id="g74" gradientUnits="userSpaceOnUse" x1="12" y1="8" x2="12" y2="0"><stop offset="0%" stop-color="#de3a5c"/><stop offset="100%" stop-color="#000000"/></linearGradient><linearGradient id="g75" gradientUnits="userSpaceOnUse" x1="12" y1="8" x2="12" y2="0"><stop offset="0%" stop-color="#de3a5c"/><stop offset="100%" stop-color="#000000"/></linearGradient><linearGradient id="g76" gradientUnits="userSpaceOnUse" x1="12" y1="8" x2="12" y2="0"><stop offset="0%" stop-color="#de3a5c"/><stop offset="100%" stop-color="#ffffff"/></linearGradient><clipPath id="v3clip-25"><rect x="70.0" y="173.0" width="8.0" height="16.0"/></clipPath><linearGradient id="g77" gradientUnits="userSpaceOnUse" x1="12" y1="8" x2="12" y2="0"><stop offset="0%" stop-color="#de3a5c"/><stop offset="100%" stop-color="#2f3fbf"/></linearGradient><linearGradient id="g78" gradientUnits="userSpaceOnUse" x1="12" y1="8" x2="12" y2="0"><stop offset="0%" stop-color="#de3a5c"/><stop offset="100%" stop-color="#000000"/></linearGradient><linearGradient id="g79" gradientUnits="userSpaceOnUse" x1="12" y1="8" x2="12" y2="0"><stop offset="0%" stop-color="#de3a5c"/><stop offset="100%" stop-color="#2f3fbf"/></linearGradient><clipPath id="v3clip-26"><rect x="14.0" y="173.0" width="8.0" height="16.0"/></clipPath><linearGradient id="g80" gradientUnits="userSpaceOnUse" x1="12" y1="8" x2="12" y2="0"><stop offset="0%" stop-color="#736ff4"/><stop offset="100%" stop-color="#2f3fbf"/></linearGradient><linearGradient id="g81" gradientUnits="userSpaceOnUse" x1="12" y1="8" x2="12" y2="0"><stop offset="0%" stop-color="#736ff4"/><stop offset="100%" stop-color="#2f3fbf"/></linearGradient><linearGradient id="g82" gradientUnits="userSpaceOnUse" x1="12" y1="8" x2="12" y2="0"><stop offset="0%" stop-color="#736ff4"/><stop offset="100%" stop-color="#2f3fbf"/></linearGradient><clipPath id="v3clip-27"><rect x="78.0" y="173.0" width="8.0" height="16.0"/></clipPath><linearGradient id="g83" gradientUnits="userSpaceOnUse" x1="12" y1="8" x2="12" y2="0"><stop offset="0%" stop-color="#c0debc"/><stop offset="100%" stop-color="#000000"/></linearGradient><linearGradient id="g84" gradientUnits="userSpaceOnUse" x1="12" y1="8" x2="12" y2="0"><stop offset="0%" stop-color="#c0debc"/><stop offset="100%" stop-color="#000000"/></linearGradient><linearGradient id="g85" gradientUnits="userSpaceOnUse" x1="12" y1="8" x2="12" y2="0"><stop offset="0%" stop-color="#c0debc"/><stop offset="100%" stop-color="#ffffff"/></linearGradient><clipPath id="v3clip-28"><rect x="198.0" y="173.0" width="8.0" height="16.0"/></clipPath><linearGradient id="g86" gradientUnits="userSpaceOnUse" x1="12" y1="8" x2="12" y2="0"><stop offset="0%" stop-color="#c0debc"/><stop offset="100%" stop-color="#ffd966"/></linearGradient><linearGradient id="g87" gradientUnits="userSpaceOnUse" x1="12" y1="8" x2="12" y2="0"><stop offset="0%" stop-color="#c0debc"/><stop offset="100%" stop-color="#ffffff"/></linearGradient><linearGradient id="g88" gradientUnits="userSpaceOnUse" x1="12" y1="8" x2="12" y2="0"><stop offset="0%" stop-color="#c0debc"/><stop offset="100%" stop-color="#ffffff"/></linearGradient><clipPath id="v3clip-29"><rect x="142.0" y="173.0" width="8.0" height="16.0"/></clipPath><linearGradient id="g89" gradientUnits="userSpaceOnUse" x1="12" y1="8" x2="12" y2="0"><stop offset="0%" stop-color="#434343"/><stop offset="100%" stop-color="#ffffff"/></linearGradient><linearGradient id="g90" gradientUnits="userSpaceOnUse" x1="12" y1="8" x2="12" y2="0"><stop offset="0%" stop-color="#434343"/><stop offset="100%" stop-color="#ffd966"/></linearGradient><linearGradient id="g91" gradientUnits="userSpaceOnUse" x1="12" y1="8" x2="12" y2="0"><stop offset="0%" stop-color="#434343"/><stop offset="100%" stop-color="#ffd966"/></linearGradient><clipPath id="v3clip-30"><rect x="262.0" y="173.0" width="8.0" height="16.0"/></clipPath><linearGradient id="g92" gradientUnits="userSpaceOnUse" x1="12" y1="8" x2="12" y2="0"><stop offset="0%" stop-color="#434343"/><stop offset="100%" stop-color="#000000"/></linearGradient><linearGradient id="g93" gradientUnits="userSpaceOnUse" x1="12" y1="8" x2="12" y2="0"><stop offset="0%" stop-color="#434343"/><stop offset="100%" stop-color="#ffffff"/></linearGradient><linearGradient id="g94" gradientUnits="userSpaceOnUse" x1="12" y1="8" x2="12" y2="0"><stop offset="0%" stop-color="#434343"/><stop offset="100%" stop-color="#2f3fbf"/></linearGradient><clipPath id="v3clip-31"><rect x="206.0" y="173.0" width="8.0" height="16.0"/></clipPath></defs><rect x="0" y="0" width="275.0" height="222.0" fill="#ffffff"/><rect x="14.0" y="5.0" width="256.0" height="192.0" fill="#ff3f2f"/><g><title>P2</title><use href="#p2" transform="translate(22.0, 5.0) scale(1.0)" fill="url(#g0)"/></g><g><title>P3</title><use href="#p3" transform="translate(46.0, 5.0) scale(1.0)" fill="url(#g1)"/></g><g><title>P3</title><g clip-path="url(#v3clip-0)"><use href="#p3" transform="translate(78.0, 13.0) rotate(90 0.0 0.0) scale(1.0)" fill="url(#g2)"/></g></g><g><title>P2</title><use href="#p2" transform="translate(22.0, 29.0) rotate(180 12.0 4.0) scale(1.0)" fill="url(#g3)"/></g><g><title>P1</title><use href="#p1" transform="translate(86.0, 5.0) scale(1.0)" fill="url(#g4)"/></g><g><title>P1</title><use href="#p1" transform="translate(110.0, 5.0) scale(1.0)" fill="url(#g5)"/></g><g><title>P1</title><g clip-path="url(#v3clip-1)"><use href="#p1" transform="translate(142.0, 13.0) rotate(90 0.0 0.0) scale(1.0)" fill="url(#g6)"/></g></g><g><title>P2</title><use href="#p2" transform="translate(110.0, 29.0) rotate(180 12.0 4.0) scale(1.0)" fill="url(#g7)"/></g><g><title>P1</title><use href="#p1" transform="translate(150.0, 5.0) scale(1.0)" fill="url(#g8)"/></g><g><title>P1</title><use href="#p1" transform="translate(174.0, 5.0) scale(1.0)" fill="url(#g9)"/></g><g><title>P3</title><use href="#p3" transform="translate(150.0, 29.0) rotate(180 12.0 4.0) scale(1.0)" fill="url(#g10)"/></g><g><title>P3</title><g clip-path="url(#v3clip-2)"><use href="#p3" transform="translate(142.0, 29.0) rotate(270 0.0 0.0) scale(1.0)" fill="url(#g11)"/></g></g><g><title>P3</title><use href="#p3" transform="translate(22.0, 37.0) scale(1.0)" fill="url(#g12)"/></g><g><title>P1</title><use href="#p1" transform="translate(46.0, 37.0) scale(1.0)" fill="url(#g13)"/></g><g><title>P3</title><g clip-path="url(#v3clip-3)"><use href="#p3" transform="translate(14.0, 61.0) rotate(270 0.0 0.0) scale(1.0)" fill="url(#g14)"/></g></g><g><title>P1</title><use href="#p1" transform="translate(86.0, 37.0) scale(1.0)" fill="url(#g15)"/></g><g><title>P3</title><use href="#p3" transform="translate(110.0, 37.0) scale(1.0)" fill="url(#g16)"/></g><g><title>P3</title><use href="#p3" transform="translate(110.0, 61.0) rotate(180 12.0 4.0) scale(1.0)" fill="url(#g17)"/></g><g><title>P2</title><use href="#p2" transform="translate(86.0, 61.0) rotate(180 12.0 4.0) scale(1.0)" fill="url(#g18)"/></g><g><title>P2</title><g clip-path="url(#v3clip-4)"><use href="#p2" transform="translate(70.0, 61.0) rotate(270 8.0 0.0) scale(1.0)" fill="url(#g19)"/></g></g><g><title>P2</title><use href="#p2" transform="translate(150.0, 37.0) scale(1.0)" fill="url(#g20)"/></g><g><title>P3</title><g clip-path="url(#v3clip-5)"><use href="#p3" transform="translate(206.0, 45.0) rotate(90 0.0 0.0) scale(1.0)" fill="url(#g21)"/></g></g><g><title>P1</title><use href="#p1" transform="translate(174.0, 61.0) rotate(180 12.0 4.0) scale(1.0)" fill="url(#g22)"/></g><g><title>P3</title><g clip-path="url(#v3clip-6)"><use href="#p3" transform="translate(142.0, 61.0) rotate(270 0.0 0.0) scale(1.0)" fill="url(#g23)"/></g></g><g><title>P2</title><use href="#p2" transform="translate(238.0, 37.0) scale(1.0)" fill="url(#g24)"/></g><g><title>P2</title><g clip-path="url(#v3clip-7)"><use href="#p2" transform="translate(262.0, 45.0) rotate(90 8.0 0.0) scale(1.0)" fill="url(#g25)"/></g></g><g><title>P2</title><use href="#p2" transform="translate(238.0, 61.0) rotate(180 12.0 4.0) scale(1.0)" fill="url(#g26)"/></g><g><title>P3</title><g clip-path="url(#v3clip-8)"><use href="#p3" transform="translate(206.0, 61.0) rotate(270 0.0 0.0) scale(1.0)" fill="url(#g27)"/></g></g><g><title>P2</title><use href="#p2" transform="translate(22.0, 69.0) scale(1.0)" fill="url(#g28)"/></g><g><title>P1</title><use href="#p1" transform="translate(46.0, 69.0) scale(1.0)" fill="url(#g29)"/></g><g><title>P3</title><g clip-path="url(#v3clip-9)"><use href="#p3" transform="translate(78.0, 77.0) rotate(90 0.0 0.0) scale(1.0)" fill="url(#g30)"/></g></g><g><title>P2</title><use href="#p2" transform="translate(46.0, 93.0) rotate(180 12.0 4.0) scale(1.0)" fill="url(#g31)"/></g><g><title>P3</title><use href="#p3" transform="translate(22.0, 93.0) rotate(180 12.0 4.0) scale(1.0)" fill="url(#g32)"/></g><g><title>P1</title><g clip-path="url(#v3clip-10)"><use href="#p1" transform="translate(14.0, 93.0) rotate(270 0.0 0.0) scale(1.0)" fill="url(#g33)"/></g></g><g><title>P3</title><use href="#p3" transform="translate(150.0, 69.0) scale(1.0)" fill="url(#g34)"/></g><g><title>P3</title><use href="#p3" transform="translate(174.0, 69.0) scale(1.0)" fill="url(#g35)"/></g><g><title>P2</title><g clip-path="url(#v3clip-11)"><use href="#p2" transform="translate(198.0, 77.0) rotate(90 8.0 0.0) scale(1.0)" fill="url(#g36)"/></g></g><g><title>P3</title><use href="#p3" transform="translate(174.0, 93.0) rotate(180 12.0 4.0) scale(1.0)" fill="url(#g37)"/></g><g><title>P2</title><use href="#p2" transform="translate(150.0, 93.0) rotate(180 12.0 4.0) scale(1.0)" fill="url(#g38)"/></g><g><title>P2</title><g clip-path="url(#v3clip-12)"><use href="#p2" transform="translate(134.0, 93.0) rotate(270 8.0 0.0) scale(1.0)" fill="url(#g39)"/></g></g><g><title>P2</title><use href="#p2" transform="translate(214.0, 69.0) scale(1.0)" fill="url(#g40)"/></g><g><title>P1</title><g clip-path="url(#v3clip-13)"><use href="#p1" transform="translate(270.0, 77.0) rotate(90 0.0 0.0) scale(1.0)" fill="url(#g41)"/></g></g><g><title>P1</title><use href="#p1" transform="translate(238.0, 93.0) rotate(180 12.0 4.0) scale(1.0)" fill="url(#g42)"/></g><g><title>P1</title><use href="#p1" transform="translate(22.0, 101.0) scale(1.0)" fill="url(#g43)"/></g><g><title>P1</title><use href="#p1" transform="translate(46.0, 101.0) scale(1.0)" fill="url(#g44)"/></g><g><title>P3</title><g clip-path="url(#v3clip-14)"><use href="#p3" transform="translate(78.0, 109.0) rotate(90 0.0 0.0) scale(1.0)" fill="url(#g45)"/></g></g><g><title>P3</title><use href="#p3" transform="translate(22.0, 125.0) rotate(180 12.0 4.0) scale(1.0)" fill="url(#g46)"/></g><g><title>P3</title><use href="#p3" transform="translate(110.0, 101.0) scale(1.0)" fill="url(#g47)"/></g><g><title>P2</title><g clip-path="url(#v3clip-15)"><use href="#p2" transform="translate(70.0, 125.0) rotate(270 8.0 0.0) scale(1.0)" fill="url(#g48)"/></g></g><g><title>P1</title><use href="#p1" transform="translate(174.0, 101.0) scale(1.0)" fill="url(#g49)"/></g><g><title>P3</title><use href="#p3" transform="translate(174.0, 125.0) rotate(180 12.0 4.0) scale(1.0)" fill="url(#g50)"/></g><g><title>P1</title><use href="#p1" transform="translate(150.0, 125.0) rotate(180 12.0 4.0) scale(1.0)" fill="url(#g51)"/></g><g><title>P2</title><g clip-path="url(#v3clip-16)"><use href="#p2" transform="translate(134.0, 125.0) rotate(270 8.0 0.0) scale(1.0)" fill="url(#g52)"/></g></g><g><title>P1</title><use href="#p1" transform="translate(214.0, 101.0) scale(1.0)" fill="url(#g53)"/></g><g><title>P1</title><use href="#p1" transform="translate(238.0, 101.0) scale(1.0)" fill="url(#g54)"/></g><g><title>P1</title><g clip-path="url(#v3clip-17)"><use href="#p1" transform="translate(270.0, 109.0) rotate(90 0.0 0.0) scale(1.0)" fill="url(#g55)"/></g></g><g><title>P1</title><use href="#p1" transform="translate(238.0, 125.0) rotate(180 12.0 4.0) scale(1.0)" fill="url(#g56)"/></g><g><title>P1</title><use href="#p1" transform="translate(214.0, 125.0) rotate(180 12.0 4.0) scale(1.0)" fill="url(#g57)"/></g><g><title>P3</title><g clip-path="url(#v3clip-18)"><use href="#p3" transform="translate(206.0, 125.0) rotate(270 0.0 0.0) scale(1.0)" fill="url(#g58)"/></g></g><g><title>P3</title><use href="#p3" transform="translate(46.0, 133.0) scale(1.0)" fill="url(#g59)"/></g><g><title>P1</title><use href="#p1" transform="translate(46.0, 157.0) rotate(180 12.0 4.0) scale(1.0)" fill="url(#g60)"/></g><g><title>P1</title><use href="#p1" transform="translate(22.0, 157.0) rotate(180 12.0 4.0) scale(1.0)" fill="url(#g61)"/></g><g><title>P2</title><g clip-path="url(#v3clip-19)"><use href="#p2" transform="translate(6.0, 157.0) rotate(270 8.0 0.0) scale(1.0)" fill="url(#g62)"/></g></g><g><title>P2</title><use href="#p2" transform="translate(110.0, 133.0) scale(1.0)" fill="url(#g63)"/></g><g><title>P1</title><use href="#p1" transform="translate(110.0, 157.0) rotate(180 12.0 4.0) scale(1.0)" fill="url(#g64)"/></g><g><title>P1</title><g clip-path="url(#v3clip-20)"><use href="#p1" transform="translate(78.0, 157.0) rotate(270 0.0 0.0) scale(1.0)" fill="url(#g65)"/></g></g><g><title>P3</title><use href="#p3" transform="translate(150.0, 133.0) scale(1.0)" fill="url(#g66)"/></g><g><title>P3</title><g clip-path="url(#v3clip-21)"><use href="#p3" transform="translate(206.0, 141.0) rotate(90 0.0 0.0) scale(1.0)" fill="url(#g67)"/></g></g><g><title>P1</title><use href="#p1" transform="translate(150.0, 157.0) rotate(180 12.0 4.0) scale(1.0)" fill="url(#g68)"/></g><g><title>P2</title><g clip-path="url(#v3clip-22)"><use href="#p2" transform="translate(134.0, 157.0) rotate(270 8.0 0.0) scale(1.0)" fill="url(#g69)"/></g></g><g><title>P3</title><g clip-path="url(#v3clip-23)"><use href="#p3" transform="translate(270.0, 141.0) rotate(90 0.0 0.0) scale(1.0)" fill="url(#g70)"/></g></g><g><title>P3</title><use href="#p3" transform="translate(238.0, 157.0) rotate(180 12.0 4.0) scale(1.0)" fill="url(#g71)"/></g><g><title>P3</title><use href="#p3" transform="translate(214.0, 157.0) rotate(180 12.0 4.0) scale(1.0)" fill="url(#g72)"/></g><g><title>P1</title><g clip-path="url(#v3clip-24)"><use href="#p1" transform="translate(206.0, 157.0) rotate(270 0.0 0.0) scale(1.0)" fill="url(#g73)"/></g></g><g><title>P2</title><use href="#p2" transform="translate(22.0, 165.0) scale(1.0)" fill="url(#g74)"/></g><g><title>P3</title><use href="#p3" transform="translate(46.0, 165.0) scale(1.0)" fill="url(#g75)"/></g><g><title>P2</title><g clip-path="url(#v3clip-25)"><use href="#p2" transform="translate(70.0, 173.0) rotate(90 8.0 0.0) scale(1.0)" fill="url(#g76)"/></g></g><g><title>P3</title><use href="#p3" transform="translate(46.0, 189.0) rotate(180 12.0 4.0) scale(1.0)" fill="url(#g77)"/></g><g><title>P2</title><use href="#p2" transform="translate(22.0, 189.0) rotate(180 12.0 4.0) scale(1.0)" fill="url(#g78)"/></g><g><title>P3</title><g clip-path="url(#v3clip-26)"><use href="#p3" transform="translate(14.0, 189.0) rotate(270 0.0 0.0) scale(1.0)" fill="url(#g79)"/></g></g><g><title>P2</title><use href="#p2" transform="translate(86.0, 165.0) scale(1.0)" fill="url(#g80)"/></g><g><title>P3</title><use href="#p3" transform="translate(86.0, 189.0) rotate(180 12.0 4.0) scale(1.0)" fill="url(#g81)"/></g><g><title>P1</title><g clip-path="url(#v3clip-27)"><use href="#p1" transform="translate(78.0, 189.0) rotate(270 0.0 0.0) scale(1.0)" fill="url(#g82)"/></g></g><g><title>P1</title><use href="#p1" transform="translate(150.0, 165.0) scale(1.0)" fill="url(#g83)"/></g><g><title>P2</title><use href="#p2" transform="translate(174.0, 165.0) scale(1.0)" fill="url(#g84)"/></g><g><title>P2</title><g clip-path="url(#v3clip-28)"><use href="#p2" transform="translate(198.0, 173.0) rotate(90 8.0 0.0) scale(1.0)" fill="url(#g85)"/></g></g><g><title>P2</title><use href="#p2" transform="translate(174.0, 189.0) rotate(180 12.0 4.0) scale(1.0)" fill="url(#g86)"/></g><g><title>P1</title><use href="#p1" transform="translate(150.0, 189.0) rotate(180 12.0 4.0) scale(1.0)" fill="url(#g87)"/></g><g><title>P2</title><g clip-path="url(#v3clip-29)"><use href="#p2" transform="translate(134.0, 189.0) rotate(270 8.0 0.0) scale(1.0)" fill="url(#g88)"/></g></g><g><title>P3</title><use href="#p3" transform="translate(214.0, 165.0) scale(1.0)" fill="url(#g89)"/></g><g><title>P3</title><use href="#p3" transform="translate(238.0, 165.0) scale(1.0)" fill="url(#g90)"/></g><g><title>P1</title><g clip-path="url(#v3clip-30)"><use href="#p1" transform="translate(270.0, 173.0) rotate(90 0.0 0.0) scale(1.0)" fill="url(#g91)"/></g></g><g><title>P3</title><use href="#p3" transform="translate(238.0, 189.0) rotate(180 12.0 4.0) scale(1.0)" fill="url(#g92)"/></g><g><title>P3</title><use href="#p3" transform="translate(214.0, 189.0) rotate(180 12.0 4.0) scale(1.0)" fill="url(#g93)"/></g><g><title>P1</title><g clip-path="url(#v3clip-31)"><use href="#p1" transform="translate(206.0, 189.0) rotate(270 0.0 0.0) scale(1.0)" fill="url(#g94)"/></g></g><g clip-path="url(#grid-clip)"><ellipse cx="206.0" cy="69.0" rx="139.80422530375625" ry="40.98368544197969" transform="rotate(0.0 206.0 69.0)" fill="#ffffff" fill-opacity="0.3"/></g><rect x="22.0" y="13.0" width="48.0" height="16.0" fill="#d2719b"/><text x="46.0" y="21.0" fill="#ffffff" style="font-family: monospace; font-size: 12.0px;" text-anchor="middle" dominant-baseline="central">9B71D2</text><rect x="86.0" y="13.0" width="48.0" height="16.0" fill="#62bd24"/><text x="110.0" y="21.0" fill="#ffffff" style="font-family: monospace; font-size: 12.0px;" text-anchor="middle" dominant-baseline="central">24BD62</text><rect x="150.0" y="13.0" width="48.0" height="16.0" fill="#5d78f3"/><text x="174.0" y="21.0" fill="#ffffff" style="font-family: monospace; font-size: 12.0px;" text-anchor="middle" dominant-baseline="central">F3785D</text><rect x="22.0" y="45.0" width="48.0" height="16.0" fill="#6ad496"/><text x="46.0" y="53.0" fill="#000000" style="font-family: monospace; font-size: 12.0px;" text-anchor="middle" dominant-baseline="central">96D46A</text><rect x="86.0" y="45.0" width="48.0" height="16.0" fill="#3dead3"/><text x="110.0" y="53.0" fill="#000000" style="font-family: monospace; font-size: 12.0px;" text-anchor="middle" dominant-baseline="central">D3EA3D</text><rect x="150.0" y="45.0" width="48.0" height="16.0" fill="#9b3173"/><text x="174.0" y="53.0" fill="#ffffff" style="font-family: monospace; font-size: 12.0px;" text-anchor="middle" dominant-baseline="central">73319B</text><rect x="214.0" y="45.0" width="48.0" height="16.0" fill="#89c2fb"/><text x="238.0" y="53.0" fill="#000000" style="font-family: monospace; font-size: 12.0px;" text-anchor="middle" dominant-baseline="central">FBC289</text><rect x="22.0" y="77.0" width="48.0" height="16.0" fill="#daaa0c"/><text x="46.0" y="85.0" fill="#ffffff" style="font-family: monospace; font-size: 12.0px;" text-anchor="middle" dominant-baseline="central">0CAADA</text><rect x="150.0" y="77.0" width="48.0" height="16.0" fill="#f7dfe2"/><text x="174.0" y="85.0" fill="#000000" style="font-family: monospace; font-size: 12.0px;" text-anchor="middle" dominant-baseline="central">E2DFF7</text><rect x="214.0" y="77.0" width="48.0" height="16.0" fill="#671925"/><text x="238.0" y="85.0" fill="#ffffff" style="font-family: monospace; font-size: 12.0px;" text-anchor="middle" dominant-baseline="central">251967</text><rect x="22.0" y="109.0" width="48.0" height="16.0" fill="#23a73c"/><text x="46.0" y="117.0" fill="#ffffff" style="font-family: monospace; font-size: 12.0px;" text-anchor="middle" dominant-baseline="central">3CA723</text><rect x="86.0" y="109.0" width="48.0" height="16.0" fill="#d9c323"/><text x="110.0" y="117.0" fill="#000000" style="font-family: monospace; font-size: 12.0px;" text-anchor="middle" dominant-baseline="central">23C3D9</text><rect x="150.0" y="109.0" width="48.0" height="16.0" fill="#c1a59b"/><text x="174.0" y="117.0" fill="#ffffff" style="font-family: monospace; font-size: 12.0px;" text-anchor="middle" dominant-baseline="central">9BA5C1</text><rect x="214.0" y="109.0" width="48.0" height="16.0" fill="#7a7c1d"/><text x="238.0" y="117.0" fill="#ffffff" style="font-family: monospace; font-size: 12.0px;" text-anchor="middle" dominant-baseline="central">1D7C7A</text><rect x="22.0" y="141.0" width="48.0" height="16.0" fill="#146ecc"/><text x="46.0" y="149.0" fill="#ffffff" style="font-family: monospace; font-size: 12.0px;" text-anchor="middle" dominant-baseline="central">CC6E14</text><rect x="86.0" y="141.0" width="48.0" height="16.0" fill="#dac5b8"/><text x="110.0" y="149.0" fill="#000000" style="font-family: monospace; font-size: 12.0px;" text-anchor="middle" dominant-baseline="central">B8C5DA</text><rect x="150.0" y="141.0" width="48.0" height="16.0" fill="#63460c"/><text x="174.0" y="149.0" fill="#ffffff" style="font-family: monospace; font-size: 12.0px;" text-anchor="middle" dominant-baseline="central">0C4663</text><rect x="214.0" y="141.0" width="48.0" height="16.0" fill="#2e5c47"/><text x="238.0" y="149.0" fill="#ffffff" style="font-family: monospace; font-size: 12.0px;" text-anchor="middle" dominant-baseline="central">475C2E</text><rect x="22.0" y="173.0" width="48.0" height="16.0" fill="#de3a5c"/><text x="46.0" y="181.0" fill="#ffffff" style="font-family: monospace; font-size: 12.0px;" text-anchor="middle" dominant-baseline="central">5C3ADE</text><rect x="86.0" y="173.0" width="48.0" height="16.0" fill="#736ff4"/><text x="110.0" y="181.0" fill="#ffffff" style="font-family: monospace; font-size: 12.0px;" text-anchor="middle" dominant-baseline="central">F46F73</text><rect x="150.0" y="173.0" width="48.0" height="16.0" fill="#c0debc"/><text x="174.0" y="181.0" fill="#000000" style="font-family: monospace; font-size: 12.0px;" text-anchor="middle" dominant-baseline="central">BCDEC0</text><rect x="214.0" y="173.0" width="48.0" height="16.0" fill="#434343"/><text x="238.0" y="181.0" fill="#ffffff" style="font-family: monospace; font-size: 12.0px;" text-anchor="middle" dominant-baseline="central">43</text><circle cx="80.0" cy="167.0" r="2.0" fill="#ffffff"/><circle cx="204.0" cy="71.0" r="2.0" fill="#ffd966"/><circle cx="204.0" cy="131.0" r="2.0" fill="#2f3fbf"/><circle cx="80.0" cy="163.0" r="2.0" fill="#000000"/><rect x="1" y="1" width="8.0" height="116.81974948653722" fill="#000000"/><rect x="1" y="117.81974948653722" width="8.0" height="56.336684744664936" fill="#ffffff"/><rect x="1" y="174.15643423120216" width="8.0" height="28.048421851717585" fill="#ffd966"/><rect x="1" y="202.20485608291975" width="8.0" height="18.795143917080253" fill="#2f3fbf"/><text x="270.0" y="209.0" fill="#444444" style="font-family: monospace; font-size: 12.0px;" text-anchor="end" dominant-baseline="central">335 132 228</text><line x1="0" y1="0.5" x2="275.0" y2="0.5" stroke="#808080" stroke-width="1" shape-rendering="crispEdges"/><line x1="274.5" y1="0" x2="274.5" y2="222.0" stroke="#808080" stroke-width="1" shape-rendering="crispEdges"/><line x1="0" y1="221.5" x2="275.0" y2="221.5" stroke="#808080" stroke-width="1" shape-rendering="crispEdges"/><line x1="0.5" y1="0" x2="0.5" y2="222.0" stroke="#808080" stroke-width="1" shape-rendering="crispEdges"/><line x1="9.5" y1="0" x2="9.5" y2="222.0" stroke="#808080" stroke-width="1" shape-rendering="crispEdges"/></svg>