<svg width="275.0" height="254.0" xmlns="http://www.w3.org/2000/svg"><defs data-v3-clip-seq="28"><clipPath id="grid-clip"><rect x="14.0" y="5.0" width="256.0" height="224.0"/></clipPath><path id="c1" d="M0,8 L0,6 L2,6 L2,0 L8,0 L8,8 L6,8 L6,4 L4,4 L4,8 Z M12,4 L14,4 L14,8 L12,8 Z M22,4 L24,4 L24,8 L22,8 Z" fill-rule="evenodd"/><path id="c2" d="M0,8 L0,2 L4,2 L4,4 L6,4 L6,8 L10,8 L10,2 L10,0 L24,0 L24,8 Z M18,0 L20,0 L20,4 L18,4 Z M14,0 L16,0 L16,2 L14,2 Z" fill-rule="evenodd"/><path id="c3" d="M16,0 L20,0 L20,8 L16,8 L16,6 L12,6 L12,4 L16,4 Z M0,6 L2,6 L2,8 L0,8 Z" fill-rule="evenodd"/><path id="p1" d="M0,8 L0,4 L3,3 L4,0 L12,0 L16,8 Z" fill-rule="evenodd"/><path id="p2" d="M16,0 L12,4 L8,8 L14,8 L18,0 L22,8 L24,8 L24,4 L20,0 Z" fill-rule="evenodd"/><path id="p3" d="M0,2 L4,0 L6,4 L10,8 L0,8 Z M20,8 L24,4 L24,8 Z" fill-rule="evenodd"/><linearGradient id="g0" gradientUnits="userSpaceOnUse" x1="34.0" y1="13.0" x2="34.0" y2="5.0"><stop offset="0%" stop-color="#beadde"/><stop offset="100%" stop-color="#000000"/></linearGradient><linearGradient id="g1" gradientUnits="userSpaceOnUse" x1="58.0" y1="13.0" x2="58.0" y2="5.0"><stop offset="0%" stop-color="#beadde"/><stop offset="100%" stop-color="#000000"/></linearGradient><linearGradient id="g2" gradientUnits="userSpaceOnUse" x1="58.0" y1="29.0" x2="58.0" y2="37.0"><stop offset="0%" stop-color="#beadde"/><stop offset="100%" stop-color="#2f3fbf"/></linearGradient><linearGradient id="g3" gradientUnits="userSpaceOnUse" x1="22.0" y1="21.0" x2="14.0" y2="21.0"><stop offset="0%" stop-color="#beadde"/><stop offset="100%" stop-color="#000000"/></linearGradient><clipPath id="v3clip-0"><rect x="14.0" y="13.0" width="8.0" height="16.0"/></clipPath><linearGradient id="g4" gradientUnits="userSpaceOnUse" x1="98.0" y1="13.0" x2="98.0" y2="5.0"><stop offset="0%" stop-color="#addeef"/><stop offset="100%" stop-color="#2f3fbf"/></linearGradient><linearGradient id="g5" gradientUnits="userSpaceOnUse" x1="134.0" y1="21.0" x2="142.0" y2="21.0"><stop offset="0%" stop-color="#addeef"/><stop offset="100%" stop-color="#ffd966"/></linearGradient><clipPath id="v3clip-1"><rect x="134.0" y="13.0" width="8.0" height="16.0"/></clipPath><linearGradient id="g6" gradientUnits="userSpaceOnUse" x1="122.0" y1="29.0" x2="122.0" y2="37.0"><stop offset="0%" stop-color="#addeef"/><stop offset="100%" stop-color="#ffd966"/></linearGradient><linearGradient id="g7" gradientUnits="userSpaceOnUse" x1="98.0" y1="29.0" x2="98.0" y2="37.0"><stop offset="0%" stop-color="#addeef"/><stop offset="100%" stop-color="#000000"/></linearGradient><linearGradient id="g8" gradientUnits="userSpaceOnUse" x1="86.0" y1="21.0" x2="78.0" y2="21.0"><stop offset="0%" stop-color="#addeef"/><stop offset="100%" stop-color="#ff3f2f"/></linearGradient><clipPath id="v3clip-2"><rect x="78.0" y="13.0" width="8.0" height="16.0"/></clipPath><linearGradient id="g9" gradientUnits="userSpaceOnUse" x1="162.0" y1="13.0" x2="162.0" y2="5.0"><stop offset="0%" stop-color="#deefbe"/><stop offset="100%" stop-color="#ffd966"/></linearGradient><linearGradient id="g10" gradientUnits="userSpaceOnUse" x1="186.0" y1="13.0" x2="186.0" y2="5.0"><stop offset="0%" stop-color="#deefbe"/><stop offset="100%" stop-color="#2f3fbf"/></linearGradient><linearGradient id="g11" gradientUnits="userSpaceOnUse" x1="162.0" y1="29.0" x2="162.0" y2="37.0"><stop offset="0%" stop-color="#deefbe"/><stop offset="100%" stop-color="#2f3fbf"/></linearGradient><linearGradient id="g12" gradientUnits="userSpaceOnUse" x1="150.0" y1="21.0" x2="142.0" y2="21.0"><stop offset="0%" stop-color="#deefbe"/><stop offset="100%" stop-color="#ff3f2f"/></linearGradient><clipPath id="v3clip-3"><rect x="142.0" y="13.0" width="8.0" height="16.0"/></clipPath><linearGradient id="g13" gradientUnits="userSpaceOnUse" x1="226.0" y1="13.0" x2="226.0" y2="5.0"><stop offset="0%" stop-color="#efbead"/><stop offset="100%" stop-color="#000000"/></linearGradient><linearGradient id="g14" gradientUnits="userSpaceOnUse" x1="250.0" y1="13.0" x2="250.0" y2="5.0"><stop offset="0%" stop-color="#efbead"/><stop offset="100%" stop-color="#000000"/></linearGradient><linearGradient id="g15" gradientUnits="userSpaceOnUse" x1="250.0" y1="29.0" x2="250.0" y2="37.0"><stop offset="0%" stop-color="#efbead"/><stop offset="100%" stop-color="#ffd966"/></linearGradient><linearGradient id="g16" gradientUnits="userSpaceOnUse" x1="214.0" y1="21.0" x2="206.0" y2="21.0"><stop offset="0%" stop-color="#efbead"/><stop offset="100%" stop-color="#ff3f2f"/></linearGradient><clipPath id="v3clip-4"><rect x="206.0" y="13.0" width="8.0" height="16.0"/></clipPath><linearGradient id="g17" gradientUnits="userSpaceOnUse" x1="34.0" y1="45.0" x2="34.0" y2="37.0"><stop offset="0%" stop-color="#beadde"/><stop offset="100%" stop-color="#ff3f2f"/></linearGradient><linearGradient id="g18" gradientUnits="userSpaceOnUse" x1="58.0" y1="61.0" x2="58.0" y2="69.0"><stop offset="0%" stop-color="#beadde"/><stop offset="100%" stop-color="#000000"/></linearGradient><linearGradient id="g19" gradientUnits="userSpaceOnUse" x1="98.0" y1="45.0" x2="98.0" y2="37.0"><stop offset="0%" stop-color="#addeef"/><stop offset="100%" stop-color="#ff3f2f"/></linearGradient><linearGradient id="g20" gradientUnits="userSpaceOnUse" x1="134.0" y1="53.0" x2="142.0" y2="53.0"><stop offset="0%" stop-color="#addeef"/><stop offset="100%" stop-color="#ff3f2f"/></linearGradient><clipPath id="v3clip-5"><rect x="134.0" y="45.0" width="8.0" height="16.0"/></clipPath><linearGradient id="g21" gradientUnits="userSpaceOnUse" x1="98.0" y1="61.0" x2="98.0" y2="69.0"><stop offset="0%" stop-color="#addeef"/><stop offset="100%" stop-color="#ffd966"/></linearGradient><linearGradient id="g22" gradientUnits="userSpaceOnUse" x1="86.0" y1="53.0" x2="78.0" y2="53.0"><stop offset="0%" stop-color="#addeef"/><stop offset="100%" stop-color="#000000"/></linearGradient><clipPath id="v3clip-6"><rect x="78.0" y="45.0" width="8.0" height="16.0"/></clipPath><linearGradient id="g23" gradientUnits="userSpaceOnUse" x1="162.0" y1="45.0" x2="162.0" y2="37.0"><stop offset="0%" stop-color="#deefbe"/><stop offset="100%" stop-color="#ff3f2f"/></linearGradient><linearGradient id="g24" gradientUnits="userSpaceOnUse" x1="186.0" y1="45.0" x2="186.0" y2="37.0"><stop offset="0%" stop-color="#deefbe"/><stop offset="100%" stop-color="#000000"/></linearGradient><linearGradient id="g25" gradientUnits="userSpaceOnUse" x1="186.0" y1="61.0" x2="186.0" y2="69.0"><stop offset="0%" stop-color="#deefbe"/><stop offset="100%" stop-color="#000000"/></linearGradient><linearGradient id="g26" gradientUnits="userSpaceOnUse" x1="162.0" y1="61.0" x2="162.0" y2="69.0"><stop offset="0%" stop-color="#deefbe"/><stop offset="100%" stop-color="#ffd966"/></linearGradient><linearGradient id="g27" gradientUnits="userSpaceOnUse" x1="150.0" y1="53.0" x2="142.0" y2="53.0"><stop offset="0%" stop-color="#deefbe"/><stop offset="100%" stop-color="#ffd966"/></linearGradient><clipPath id="v3clip-7"><rect x="142.0" y="45.0" width="8.0" height="16.0"/></clipPath><linearGradient id="g28" gradientUnits="userSpaceOnUse" x1="226.0" y1="45.0" x2="226.0" y2="37.0"><stop offset="0%" stop-color="#efbead"/><stop offset="100%" stop-color="#000000"/></linearGradient><linearGradient id="g29" gradientUnits="userSpaceOnUse" x1="250.0" y1="45.0" x2="250.0" y2="37.0"><stop offset="0%" stop-color="#efbead"/><stop offset="100%" stop-color="#000000"/></linearGradient><linearGradient id="g30" gradientUnits="userSpaceOnUse" x1="250.0" y1="61.0" x2="250.0" y2="69.0"><stop offset="0%" stop-color="#efbead"/><stop offset="100%" stop-color="#ffd966"/></linearGradient><linearGradient id="g31" gradientUnits="userSpaceOnUse" x1="226.0" y1="61.0" x2="226.0" y2="69.0"><stop offset="0%" stop-color="#efbead"/><stop offset="100%" stop-color="#ff3f2f"/></linearGradient><linearGradient id="g32" gradientUnits="userSpaceOnUse" x1="214.0" y1="53.0" x2="206.0" y2="53.0"><stop offset="0%" stop-color="#efbead"/><stop offset="100%" stop-color="#2f3fbf"/></linearGradient><clipPath id="v3clip-8"><rect x="206.0" y="45.0" width="8.0" height="16.0"/></clipPath><linearGradient id="g33" gradientUnits="userSpaceOnUse" x1="98.0" y1="77.0" x2="98.0" y2="69.0"><stop offset="0%" stop-color="#beadde"/><stop offset="100%" stop-color="#2f3fbf"/></linearGradient><linearGradient id="g34" gradientUnits="userSpaceOnUse" x1="122.0" y1="77.0" x2="122.0" y2="69.0"><stop offset="0%" stop-color="#beadde"/><stop offset="100%" stop-color="#ffd966"/></linearGradient><linearGradient id="g35" gradientUnits="userSpaceOnUse" x1="122.0" y1="93.0" x2="122.0" y2="101.0"><stop offset="0%" stop-color="#beadde"/><stop offset="100%" stop-color="#ffd966"/></linearGradient><linearGradient id="g36" gradientUnits="userSpaceOnUse" x1="86.0" y1="85.0" x2="78.0" y2="85.0"><stop offset="0%" stop-color="#beadde"/><stop offset="100%" stop-color="#ffd966"/></linearGradient><clipPath id="v3clip-9"><rect x="78.0" y="77.0" width="8.0" height="16.0"/></clipPath><linearGradient id="g37" gradientUnits="userSpaceOnUse" x1="162.0" y1="77.0" x2="162.0" y2="69.0"><stop offset="0%" stop-color="#addeef"/><stop offset="100%" stop-color="#000000"/></linearGradient><linearGradient id="g38" gradientUnits="userSpaceOnUse" x1="186.0" y1="77.0" x2="186.0" y2="69.0"><stop offset="0%" stop-color="#addeef"/><stop offset="100%" stop-color="#2f3fbf"/></linearGradient><linearGradient id="g39" gradientUnits="userSpaceOnUse" x1="198.0" y1="85.0" x2="206.0" y2="85.0"><stop offset="0%" stop-color="#addeef"/><stop offset="100%" stop-color="#ff3f2f"/></linearGradient><clipPath id="v3clip-10"><rect x="198.0" y="77.0" width="8.0" height="16.0"/></clipPath><linearGradient id="g40" gradientUnits="userSpaceOnUse" x1="186.0" y1="93.0" x2="186.0" y2="101.0"><stop offset="0%" stop-color="#addeef"/><stop offset="100%" stop-color="#ffd966"/></linearGradient><linearGradient id="g41" gradientUnits="userSpaceOnUse" x1="162.0" y1="93.0" x2="162.0" y2="101.0"><stop offset="0%" stop-color="#addeef"/><stop offset="100%" stop-color="#2f3fbf"/></linearGradient><linearGradient id="g42" gradientUnits="userSpaceOnUse" x1="58.0" y1="109.0" x2="58.0" y2="101.0"><stop offset="0%" stop-color="#efefbe"/><stop offset="100%" stop-color="#ffd966"/></linearGradient><linearGradient id="g43" gradientUnits="userSpaceOnUse" x1="70.0" y1="117.0" x2="78.0" y2="117.0"><stop offset="0%" stop-color="#efefbe"/><stop offset="100%" stop-color="#2f3fbf"/></linearGradient><clipPath id="v3clip-11"><rect x="70.0" y="109.0" width="8.0" height="16.0"/></clipPath><linearGradient id="g44" gradientUnits="userSpaceOnUse" x1="22.0" y1="117.0" x2="14.0" y2="117.0"><stop offset="0%" stop-color="#efefbe"/><stop offset="100%" stop-color="#000000"/></linearGradient><clipPath id="v3clip-12"><rect x="14.0" y="109.0" width="8.0" height="16.0"/></clipPath><linearGradient id="g45" gradientUnits="userSpaceOnUse" x1="186.0" y1="109.0" x2="186.0" y2="101.0"><stop offset="0%" stop-color="#beadde"/><stop offset="100%" stop-color="#000000"/></linearGradient><linearGradient id="g46" gradientUnits="userSpaceOnUse" x1="186.0" y1="125.0" x2="186.0" y2="133.0"><stop offset="0%" stop-color="#beadde"/><stop offset="100%" stop-color="#ff3f2f"/></linearGradient><linearGradient id="g47" gradientUnits="userSpaceOnUse" x1="162.0" y1="125.0" x2="162.0" y2="133.0"><stop offset="0%" stop-color="#beadde"/><stop offset="100%" stop-color="#2f3fbf"/></linearGradient><linearGradient id="g48" gradientUnits="userSpaceOnUse" x1="226.0" y1="109.0" x2="226.0" y2="101.0"><stop offset="0%" stop-color="#addeef"/><stop offset="100%" stop-color="#2f3fbf"/></linearGradient><linearGradient id="g49" gradientUnits="userSpaceOnUse" x1="262.0" y1="117.0" x2="270.0" y2="117.0"><stop offset="0%" stop-color="#addeef"/><stop offset="100%" stop-color="#000000"/></linearGradient><clipPath id="v3clip-13"><rect x="262.0" y="109.0" width="8.0" height="16.0"/></clipPath><linearGradient id="g50" gradientUnits="userSpaceOnUse" x1="226.0" y1="125.0" x2="226.0" y2="133.0"><stop offset="0%" stop-color="#addeef"/><stop offset="100%" stop-color="#000000"/></linearGradient><linearGradient id="g51" gradientUnits="userSpaceOnUse" x1="214.0" y1="117.0" x2="206.0" y2="117.0"><stop offset="0%" stop-color="#addeef"/><stop offset="100%" stop-color="#2f3fbf"/></linearGradient><clipPath id="v3clip-14"><rect x="206.0" y="109.0" width="8.0" height="16.0"/></clipPath><linearGradient id="g52" gradientUnits="userSpaceOnUse" x1="98.0" y1="141.0" x2="98.0" y2="133.0"><stop offset="0%" stop-color="#deefbe"/><stop offset="100%" stop-color="#000000"/></linearGradient><linearGradient id="g53" gradientUnits="userSpaceOnUse" x1="134.0" y1="149.0" x2="142.0" y2="149.0"><stop offset="0%" stop-color="#deefbe"/><stop offset="100%" stop-color="#ffd966"/></linearGradient><clipPath id="v3clip-15"><rect x="134.0" y="141.0" width="8.0" height="16.0"/></clipPath><linearGradient id="g54" gradientUnits="userSpaceOnUse" x1="122.0" y1="157.0" x2="122.0" y2="165.0"><stop offset="0%" stop-color="#deefbe"/><stop offset="100%" stop-color="#000000"/></linearGradient><linearGradient id="g55" gradientUnits="userSpaceOnUse" x1="98.0" y1="157.0" x2="98.0" y2="165.0"><stop offset="0%" stop-color="#deefbe"/><stop offset="100%" stop-color="#000000"/></linearGradient><linearGradient id="g56" gradientUnits="userSpaceOnUse" x1="86.0" y1="149.0" x2="78.0" y2="149.0"><stop offset="0%" stop-color="#deefbe"/><stop offset="100%" stop-color="#000000"/></linearGradient><clipPath id="v3clip-16"><rect x="78.0" y="141.0" width="8.0" height="16.0"/></clipPath><linearGradient id="g57" gradientUnits="userSpaceOnUse" x1="162.0" y1="141.0" x2="162.0" y2="133.0"><stop offset="0%" stop-color="#efbead"/><stop offset="100%" stop-color="#ff3f2f"/></linearGradient><linearGradient id="g58" gradientUnits="userSpaceOnUse" x1="186.0" y1="141.0" x2="186.0" y2="133.0"><stop offset="0%" stop-color="#efbead"/><stop offset="100%" stop-color="#2f3fbf"/></linearGradient><linearGradient id="g59" gradientUnits="userSpaceOnUse" x1="186.0" y1="157.0" x2="186.0" y2="165.0"><stop offset="0%" stop-color="#efbead"/><stop offset="100%" stop-color="#ff3f2f"/></linearGradient><linearGradient id="g60" gradientUnits="userSpaceOnUse" x1="150.0" y1="149.0" x2="142.0" y2="149.0"><stop offset="0%" stop-color="#efbead"/><stop offset="100%" stop-color="#ffd966"/></linearGradient><clipPath id="v3clip-17"><rect x="142.0" y="141.0" width="8.0" height="16.0"/></clipPath><linearGradient id="g61" gradientUnits="userSpaceOnUse" x1="226.0" y1="141.0" x2="226.0" y2="133.0"><stop offset="0%" stop-color="#beadde"/><stop offset="100%" stop-color="#ffd966"/></linearGradient><linearGradient id="g62" gradientUnits="userSpaceOnUse" x1="250.0" y1="141.0" x2="250.0" y2="133.0"><stop offset="0%" stop-color="#beadde"/><stop offset="100%" stop-color="#000000"/></linearGradient><linearGradient id="g63" gradientUnits="userSpaceOnUse" x1="262.0" y1="149.0" x2="270.0" y2="149.0"><stop offset="0%" stop-color="#beadde"/><stop offset="100%" stop-color="#ff3f2f"/></linearGradient><clipPath id="v3clip-18"><rect x="262.0" y="141.0" width="8.0" height="16.0"/></clipPath><linearGradient id="g64" gradientUnits="userSpaceOnUse" x1="214.0" y1="149.0" x2="206.0" y2="149.0"><stop offset="0%" stop-color="#beadde"/><stop offset="100%" stop-color="#2f3fbf"/></linearGradient><clipPath id="v3clip-19"><rect x="206.0" y="141.0" width="8.0" height="16.0"/></clipPath><linearGradient id="g65" gradientUnits="userSpaceOnUse" x1="34.0" y1="173.0" x2="34.0" y2="165.0"><stop offset="0%" stop-color="#addeef"/><stop offset="100%" stop-color="#ff3f2f"/></linearGradient><linearGradient id="g66" gradientUnits="userSpaceOnUse" x1="58.0" y1="173.0" x2="58.0" y2="165.0"><stop offset="0%" stop-color="#addeef"/><stop offset="100%" stop-color="#2f3fbf"/></linearGradient><linearGradient id="g67" gradientUnits="userSpaceOnUse" x1="70.0" y1="181.0" x2="78.0" y2="181.0"><stop offset="0%" stop-color="#addeef"/><stop offset="100%" stop-color="#2f3fbf"/></linearGradient><clipPath id="v3clip-20"><rect x="70.0" y="173.0" width="8.0" height="16.0"/></clipPath><linearGradient id="g68" gradientUnits="userSpaceOnUse" x1="58.0" y1="189.0" x2="58.0" y2="197.0"><stop offset="0%" stop-color="#addeef"/><stop offset="100%" stop-color="#2f3fbf"/></linearGradient><linearGradient id="g69" gradientUnits="userSpaceOnUse" x1="34.0" y1="189.0" x2="34.0" y2="197.0"><stop offset="0%" stop-color="#addeef"/><stop offset="100%" stop-color="#000000"/></linearGradient><linearGradient id="g70" gradientUnits="userSpaceOnUse" x1="22.0" y1="181.0" x2="14.0" y2="181.0"><stop offset="0%" stop-color="#addeef"/><stop offset="100%" stop-color="#ff3f2f"/></linearGradient><clipPath id="v3clip-21"><rect x="14.0" y="173.0" width="8.0" height="16.0"/></clipPath><linearGradient id="g71" gradientUnits="userSpaceOnUse" x1="98.0" y1="173.0" x2="98.0" y2="165.0"><stop offset="0%" stop-color="#deefbe"/><stop offset="100%" stop-color="#ff3f2f"/></linearGradient><linearGradient id="g72" gradientUnits="userSpaceOnUse" x1="122.0" y1="189.0" x2="122.0" y2="197.0"><stop offset="0%" stop-color="#deefbe"/><stop offset="100%" stop-color="#000000"/></linearGradient><linearGradient id="g73" gradientUnits="userSpaceOnUse" x1="86.0" y1="181.0" x2="78.0" y2="181.0"><stop offset="0%" stop-color="#deefbe"/><stop offset="100%" stop-color="#ff3f2f"/></linearGradient><clipPath id="v3clip-22"><rect x="78.0" y="173.0" width="8.0" height="16.0"/></clipPath><linearGradient id="g74" gradientUnits="userSpaceOnUse" x1="162.0" y1="173.0" x2="162.0" y2="165.0"><stop offset="0%" stop-color="#efbead"/><stop offset="100%" stop-color="#2f3fbf"/></linearGradient><linearGradient id="g75" gradientUnits="userSpaceOnUse" x1="198.0" y1="181.0" x2="206.0" y2="181.0"><stop offset="0%" stop-color="#efbead"/><stop offset="100%" stop-color="#000000"/></linearGradient><clipPath id="v3clip-23"><rect x="198.0" y="173.0" width="8.0" height="16.0"/></clipPath><linearGradient id="g76" gradientUnits="userSpaceOnUse" x1="186.0" y1="189.0" x2="186.0" y2="197.0"><stop offset="0%" stop-color="#efbead"/><stop offset="100%" stop-color="#ffd966"/></linearGradient><linearGradient id="g77" gradientUnits="userSpaceOnUse" x1="226.0" y1="173.0" x2="226.0" y2="165.0"><stop offset="0%" stop-color="#beadde"/><stop offset="100%" stop-color="#000000"/></linearGradient><linearGradient id="g78" gradientUnits="userSpaceOnUse" x1="250.0" y1="173.0" x2="250.0" y2="165.0"><stop offset="0%" stop-color="#beadde"/><stop offset="100%" stop-color="#ffd966"/></linearGradient><linearGradient id="g79" gradientUnits="userSpaceOnUse" x1="262.0" y1="181.0" x2="270.0" y2="181.0"><stop offset="0%" stop-color="#beadde"/><stop offset="100%" stop-color="#2f3fbf"/></linearGradient><clipPath id="v3clip-24"><rect x="262.0" y="173.0" width="8.0" height="16.0"/></clipPath><linearGradient id="g80" gradientUnits="userSpaceOnUse" x1="250.0" y1="189.0" x2="250.0" y2="197.0"><stop offset="0%" stop-color="#beadde"/><stop offset="100%" stop-color="#2f3fbf"/></linearGradient><linearGradient id="g81" gradientUnits="userSpaceOnUse" x1="226.0" y1="189.0" x2="226.0" y2="197.0"><stop offset="0%" stop-color="#beadde"/><stop offset="100%" stop-color="#ffd966"/></linearGradient><linearGradient id="g82" gradientUnits="userSpaceOnUse" x1="34.0" y1="205.0" x2="34.0" y2="197.0"><stop offset="0%" stop-color="#addeef"/><stop offset="100%" stop-color="#ffd966"/></linearGradient><linearGradient id="g83" gradientUnits="userSpaceOnUse" x1="58.0" y1="205.0" x2="58.0" y2="197.0"><stop offset="0%" stop-color="#addeef"/><stop offset="100%" stop-color="#ffd966"/></linearGradient><linearGradient id="g84" gradientUnits="userSpaceOnUse" x1="70.0" y1="213.0" x2="78.0" y2="213.0"><stop offset="0%" stop-color="#addeef"/><stop offset="100%" stop-color="#ffd966"/></linearGradient><clipPath id="v3clip-25"><rect x="70.0" y="205.0" width="8.0" height="16.0"/></clipPath><linearGradient id="g85" gradientUnits="userSpaceOnUse" x1="58.0" y1="221.0" x2="58.0" y2="229.0"><stop offset="0%" stop-color="#addeef"/><stop offset="100%" stop-color="#2f3fbf"/></linearGradient><linearGradient id="g86" gradientUnits="userSpaceOnUse" x1="98.0" y1="205.0" x2="98.0" y2="197.0"><stop offset="0%" stop-color="#eeeebe"/><stop offset="100%" stop-color="#2f3fbf"/></linearGradient><linearGradient id="g87" gradientUnits="userSpaceOnUse" x1="122.0" y1="205.0" x2="122.0" y2="197.0"><stop offset="0%" stop-color="#eeeebe"/><stop offset="100%" stop-color="#ff3f2f"/></linearGradient><linearGradient id="g88" gradientUnits="userSpaceOnUse" x1="134.0" y1="213.0" x2="142.0" y2="213.0"><stop offset="0%" stop-color="#eeeebe"/><stop offset="100%" stop-color="#ffd966"/></linearGradient><clipPath id="v3clip-26"><rect x="134.0" y="205.0" width="8.0" height="16.0"/></clipPath><linearGradient id="g89" gradientUnits="userSpaceOnUse" x1="98.0" y1="221.0" x2="98.0" y2="229.0"><stop offset="0%" stop-color="#eeeebe"/><stop offset="100%" stop-color="#ffd966"/></linearGradient><linearGradient id="g90" gradientUnits="userSpaceOnUse" x1="86.0" y1="213.0" x2="78.0" y2="213.0"><stop offset="0%" stop-color="#eeeebe"/><stop offset="100%" stop-color="#000000"/></linearGradient><clipPath id="v3clip-27"><rect x="78.0" y="205.0" width="8.0" height="16.0"/></clipPath></defs><rect x="0" y="0" width="275.0" height="254.0" fill="#ffffff"/><rect x="14.0" y="5.0" width="256.0" height="224.0" fill="#ffffff"/><g><title>C3</title><use href="#c3" transform="translate(22.0, 5.0) scale(1.0)" fill="url(#g0)"/></g><g><title>P2</title><use href="#p2" transform="translate(46.0, 5.0) scale(1.0)" fill="url(#g1)"/></g><g><title>C3</title><use href="#c3" transform="translate(46.0, 29.0) rotate(180 12.0 4.0) scale(1.0)" fill="url(#g2)"/></g><g><title>C3</title><g clip-path="url(#v3clip-0)"><use href="#c3" transform="translate(10.0, 29.0) rotate(270 4.0 0.0) scale(1.0)" fill="url(#g3)"/></g></g><g><title>P2</title><use href="#p2" transform="translate(86.0, 5.0) scale(1.0)" fill="url(#g4)"/></g><g><title>C3</title><g clip-path="url(#v3clip-1)"><use href="#c3" transform="translate(138.0, 13.0) rotate(90 4.0 0.0) scale(1.0)" fill="url(#g5)"/></g></g><g><title>P1</title><use href="#p1" transform="translate(110.0, 29.0) rotate(180 12.0 4.0) scale(1.0)" fill="url(#g6)"/></g><g><title>C3</title><use href="#c3" transform="translate(86.0, 29.0) rotate(180 12.0 4.0) scale(1.0)" fill="url(#g7)"/></g><g><title>P1</title><g clip-path="url(#v3clip-2)"><use href="#p1" transform="translate(78.0, 29.0) rotate(270 0.0 0.0) scale(1.0)" fill="url(#g8)"/></g></g><g><title>P2</title><use href="#p2" transform="translate(150.0, 5.0) scale(1.0)" fill="url(#g9)"/></g><g><title>C3</title><use href="#c3" transform="translate(174.0, 5.0) scale(1.0)" fill="url(#g10)"/></g><g><title>C3</title><use href="#c3" transform="translate(150.0, 29.0) rotate(180 12.0 4.0) scale(1.0)" fill="url(#g11)"/></g><g><title>P2</title><g clip-path="url(#v3clip-3)"><use href="#p2" transform="translate(134.0, 29.0) rotate(270 8.0 0.0) scale(1.0)" fill="url(#g12)"/></g></g><g><title>P1</title><use href="#p1" transform="translate(214.0, 5.0) scale(1.0)" fill="url(#g13)"/></g><g><title>P1</title><use href="#p1" transform="translate(238.0, 5.0) scale(1.0)" fill="url(#g14)"/></g><g><title>P2</title><use href="#p2" transform="translate(238.0, 29.0) rotate(180 12.0 4.0) scale(1.0)" fill="url(#g15)"/></g><g><title>C3</title><g clip-path="url(#v3clip-4)"><use href="#c3" transform="translate(202.0, 29.0) rotate(270 4.0 0.0) scale(1.0)" fill="url(#g16)"/></g></g><g><title>C3</title><use href="#c3" transform="translate(22.0, 37.0) scale(1.0)" fill="url(#g17)"/></g><g><title>C3</title><use href="#c3" transform="translate(46.0, 61.0) rotate(180 12.0 4.0) scale(1.0)" fill="url(#g18)"/></g><g><title>C3</title><use href="#c3" transform="translate(86.0, 37.0) scale(1.0)" fill="url(#g19)"/></g><g><title>C3</title><g clip-path="url(#v3clip-5)"><use href="#c3" transform="translate(138.0, 45.0) rotate(90 4.0 0.0) scale(1.0)" fill="url(#g20)"/></g></g><g><title>C3</title><use href="#c3" transform="translate(86.0, 61.0) rotate(180 12.0 4.0) scale(1.0)" fill="url(#g21)"/></g><g><title>P1</title><g clip-path="url(#v3clip-6)"><use href="#p1" transform="translate(78.0, 61.0) rotate(270 0.0 0.0) scale(1.0)" fill="url(#g22)"/></g></g><g><title>P1</title><use href="#p1" transform="translate(150.0, 37.0) scale(1.0)" fill="url(#g23)"/></g><g><title>C3</title><use href="#c3" transform="translate(174.0, 37.0) scale(1.0)" fill="url(#g24)"/></g><g><title>C3</title><use href="#c3" transform="translate(174.0, 61.0) rotate(180 12.0 4.0) scale(1.0)" fill="url(#g25)"/></g><g><title>P2</title><use href="#p2" transform="translate(150.0, 61.0) rotate(180 12.0 4.0) scale(1.0)" fill="url(#g26)"/></g><g><title>P1</title><g clip-path="url(#v3clip-7)"><use href="#p1" transform="translate(142.0, 61.0) rotate(270 0.0 0.0) scale(1.0)" fill="url(#g27)"/></g></g><g><title>P2</title><use href="#p2" transform="translate(214.0, 37.0) scale(1.0)" fill="url(#g28)"/></g><g><title>P1</title><use href="#p1" transform="translate(238.0, 37.0) scale(1.0)" fill="url(#g29)"/></g><g><title>C3</title><use href="#c3" transform="translate(238.0, 61.0) rotate(180 12.0 4.0) scale(1.0)" fill="url(#g30)"/></g><g><title>P2</title><use href="#p2" transform="translate(214.0, 61.0) rotate(180 12.0 4.0) scale(1.0)" fill="url(#g31)"/></g><g><title>P2</title><g clip-path="url(#v3clip-8)"><use href="#p2" transform="translate(198.0, 61.0) rotate(270 8.0 0.0) scale(1.0)" fill="url(#g32)"/></g></g><g><title>P2</title><use href="#p2" transform="translate(86.0, 69.0) scale(1.0)" fill="url(#g33)"/></g><g><title>P1</title><use href="#p1" transform="translate(110.0, 69.0) scale(1.0)" fill="url(#g34)"/></g><g><title>C3</title><use href="#c3" transform="translate(110.0, 93.0) rotate(180 12.0 4.0) scale(1.0)" fill="url(#g35)"/></g><g><title>P2</title><g clip-path="url(#v3clip-9)"><use href="#p2" transform="translate(70.0, 93.0) rotate(270 8.0 0.0) scale(1.0)" fill="url(#g36)"/></g></g><g><title>C3</title><use href="#c3" transform="translate(150.0, 69.0) scale(1.0)" fill="url(#g37)"/></g><g><title>C3</title><use href="#c3" transform="translate(174.0, 69.0) scale(1.0)" fill="url(#g38)"/></g><g><title>C3</title><g clip-path="url(#v3clip-10)"><use href="#c3" transform="translate(202.0, 77.0) rotate(90 4.0 0.0) scale(1.0)" fill="url(#g39)"/></g></g><g><title>C3</title><use href="#c3" transform="translate(174.0, 93.0) rotate(180 12.0 4.0) scale(1.0)" fill="url(#g40)"/></g><g><title>P1</title><use href="#p1" transform="translate(150.0, 93.0) rotate(180 12.0 4.0) scale(1.0)" fill="url(#g41)"/></g><g><title>P2</title><use href="#p2" transform="translate(46.0, 101.0) scale(1.0)" fill="url(#g42)"/></g><g><title>P1</title><g clip-path="url(#v3clip-11)"><use href="#p1" transform="translate(78.0, 109.0) rotate(90 0.0 0.0) scale(1.0)" fill="url(#g43)"/></g></g><g><title>C3</title><g clip-path="url(#v3clip-12)"><use href="#c3" transform="translate(10.0, 125.0) rotate(270 4.0 0.0) scale(1.0)" fill="url(#g44)"/></g></g><g><title>C3</title><use href="#c3" transform="translate(174.0, 101.0) scale(1.0)" fill="url(#g45)"/></g><g><title>P1</title><use href="#p1" transform="translate(174.0, 125.0) rotate(180 12.0 4.0) scale(1.0)" fill="url(#g46)"/></g><g><title>P2</title><use href="#p2" transform="translate(150.0, 125.0) rotate(180 12.0 4.0) scale(1.0)" fill="url(#g47)"/></g><g><title>P2</title><use href="#p2" transform="translate(214.0, 101.0) scale(1.0)" fill="url(#g48)"/></g><g><title>P1</title><g clip-path="url(#v3clip-13)"><use href="#p1" transform="translate(270.0, 109.0) rotate(90 0.0 0.0) scale(1.0)" fill="url(#g49)"/></g></g><g><title>C3</title><use href="#c3" transform="translate(214.0, 125.0) rotate(180 12.0 4.0) scale(1.0)" fill="url(#g50)"/></g><g><title>C3</title><g clip-path="url(#v3clip-14)"><use href="#c3" transform="translate(202.0, 125.0) rotate(270 4.0 0.0) scale(1.0)" fill="url(#g51)"/></g></g><g><title>P1</title><use href="#p1" transform="translate(86.0, 133.0) scale(1.0)" fill="url(#g52)"/></g><g><title>C3</title><g clip-path="url(#v3clip-15)"><use href="#c3" transform="translate(138.0, 141.0) rotate(90 4.0 0.0) scale(1.0)" fill="url(#g53)"/></g></g><g><title>P2</title><use href="#p2" transform="translate(110.0, 157.0) rotate(180 12.0 4.0) scale(1.0)" fill="url(#g54)"/></g><g><title>P1</title><use href="#p1" transform="translate(86.0, 157.0) rotate(180 12.0 4.0) scale(1.0)" fill="url(#g55)"/></g><g><title>C3</title><g clip-path="url(#v3clip-16)"><use href="#c3" transform="translate(74.0, 157.0) rotate(270 4.0 0.0) scale(1.0)" fill="url(#g56)"/></g></g><g><title>C3</title><use href="#c3" transform="translate(150.0, 133.0) scale(1.0)" fill="url(#g57)"/></g><g><title>P1</title><use href="#p1" transform="translate(174.0, 133.0) scale(1.0)" fill="url(#g58)"/></g><g><title>P2</title><use href="#p2" transform="translate(174.0, 157.0) rotate(180 12.0 4.0) scale(1.0)" fill="url(#g59)"/></g><g><title>P2</title><g clip-path="url(#v3clip-17)"><use href="#p2" transform="translate(134.0, 157.0) rotate(270 8.0 0.0) scale(1.0)" fill="url(#g60)"/></g></g><g><title>C3</title><use href="#c3" transform="translate(214.0, 133.0) scale(1.0)" fill="url(#g61)"/></g><g><title>P1</title><use href="#p1" transform="translate(238.0, 133.0) scale(1.0)" fill="url(#g62)"/></g><g><title>P1</title><g clip-path="url(#v3clip-18)"><use href="#p1" transform="translate(270.0, 141.0) rotate(90 0.0 0.0) scale(1.0)" fill="url(#g63)"/></g></g><g><title>P1</title><g clip-path="url(#v3clip-19)"><use href="#p1" transform="translate(206.0, 157.0) rotate(270 0.0 0.0) scale(1.0)" fill="url(#g64)"/></g></g><g><title>P1</title><use href="#p1" transform="translate(22.0, 165.0) scale(1.0)" fill="url(#g65)"/></g><g><title>P1</title><use href="#p1" transform="translate(46.0, 165.0) scale(1.0)" fill="url(#g66)"/></g><g><title>C3</title><g clip-path="url(#v3clip-20)"><use href="#c3" transform="translate(74.0, 173.0) rotate(90 4.0 0.0) scale(1.0)" fill="url(#g67)"/></g></g><g><title>C3</title><use href="#c3" transform="translate(46.0, 189.0) rotate(180 12.0 4.0) scale(1.0)" fill="url(#g68)"/></g><g><title>P1</title><use href="#p1" transform="translate(22.0, 189.0) rotate(180 12.0 4.0) scale(1.0)" fill="url(#g69)"/></g><g><title>C3</title><g clip-path="url(#v3clip-21)"><use href="#c3" transform="translate(10.0, 189.0) rotate(270 4.0 0.0) scale(1.0)" fill="url(#g70)"/></g></g><g><title>C3</title><use href="#c3" transform="translate(86.0, 165.0) scale(1.0)" fill="url(#g71)"/></g><g><title>P2</title><use href="#p2" transform="translate(110.0, 189.0) rotate(180 12.0 4.0) scale(1.0)" fill="url(#g72)"/></g><g><title>P2</title><g clip-path="url(#v3clip-22)"><use href="#p2" transform="translate(70.0, 189.0) rotate(270 8.0 0.0) scale(1.0)" fill="url(#g73)"/></g></g><g><title>P2</title><use href="#p2" transform="translate(150.0, 165.0) scale(1.0)" fill="url(#g74)"/></g><g><title>P1</title><g clip-path="url(#v3clip-23)"><use href="#p1" transform="translate(206.0, 173.0) rotate(90 0.0 0.0) scale(1.0)" fill="url(#g75)"/></g></g><g><title>P1</title><use href="#p1" transform="translate(174.0, 189.0) rotate(180 12.0 4.0) scale(1.0)" fill="url(#g76)"/></g><g><title>C3</title><use href="#c3" transform="translate(214.0, 165.0) scale(1.0)" fill="url(#g77)"/></g><g><title>C3</title><use href="#c3" transform="translate(238.0, 165.0) scale(1.0)" fill="url(#g78)"/></g><g><title>P2</title><g clip-path="url(#v3clip-24)"><use href="#p2" transform="translate(262.0, 173.0) rotate(90 8.0 0.0) scale(1.0)" fill="url(#g79)"/></g></g><g><title>P2</title><use href="#p2" transform="translate(238.0, 189.0) rotate(180 12.0 4.0) scale(1.0)" fill="url(#g80)"/></g><g><title>C3</title><use href="#c3" transform="translate(214.0, 189.0) rotate(180 12.0 4.0) scale(1.0)" fill="url(#g81)"/></g><g><title>C3</title><use href="#c3" transform="translate(22.0, 197.0) scale(1.0)" fill="url(#g82)"/></g><g><title>P1</title><use href="#p1" transform="translate(46.0, 197.0) scale(1.0)" fill="url(#g83)"/></g><g><title>P2</title><g clip-path="url(#v3clip-25)"><use href="#p2" transform="translate(70.0, 205.0) rotate(90 8.0 0.0) scale(1.0)" fill="url(#g84)"/></g></g><g><title>P2</title><use href="#p2" transform="translate(46.0, 221.0) rotate(180 12.0 4.0) scale(1.0)" fill="url(#g85)"/></g><g><title>P1</title><use href="#p1" transform="translate(86.0, 197.0) scale(1.0)" fill="url(#g86)"/></g><g><title>P2</title><use href="#p2" transform="translate(110.0, 197.0) scale(1.0)" fill="url(#g87)"/></g><g><title>P2</title><g clip-path="url(#v3clip-26)"><use href="#p2" transform="translate(134.0, 205.0) rotate(90 8.0 0.0) scale(1.0)" fill="url(#g88)"/></g></g><g><title>P1</title><use href="#p1" transform="translate(86.0, 221.0) rotate(180 12.0 4.0) scale(1.0)" fill="url(#g89)"/></g><g><title>C3</title><g clip-path="url(#v3clip-27)"><use href="#c3" transform="translate(74.0, 221.0) rotate(270 4.0 0.0) scale(1.0)" fill="url(#g90)"/></g></g><g clip-path="url(#grid-clip)"><ellipse cx="78.0" cy="37.0" rx="102.2116015902537" ry="32.0" transform="rotate(24.0 78.0 37.0)" fill="#000000" fill-opacity="0.2"/></g><rect x="22.0" y="13.0" width="48.0" height="16.0" fill="#beadde"/><text x="46.0" y="21.0" fill="#ffffff" style="font-family: monospace; font-size: 12.0px;" text-anchor="middle" dominant-baseline="central">DEADBE</text><rect x="86.0" y="13.0" width="48.0" height="16.0" fill="#addeef"/><text x="110.0" y="21.0" fill="#000000" style="font-family: monospace; font-size: 12.0px;" text-anchor="middle" dominant-baseline="central">EFDEAD</text><rect x="150.0" y="13.0" width="48.0" height="16.0" fill="#deefbe"/><text x="174.0" y="21.0" fill="#000000" style="font-family: monospace; font-size: 12.0px;" text-anchor="middle" dominant-baseline="central">BEEFDE</text><rect x="214.0" y="13.0" width="48.0" height="16.0" fill="#efbead"/><text x="238.0" y="21.0" fill="#000000" style="font-family: monospace; font-size: 12.0px;" text-anchor="middle" dominant-baseline="central">ADBEEF</text><rect x="22.0" y="45.0" width="48.0" height="16.0" fill="#beadde"/><text x="46.0" y="53.0" fill="#ffffff" style="font-family: monospace; font-size: 12.0px;" text-anchor="middle" dominant-baseline="central">DEADBE</text><rect x="86.0" y="45.0" width="48.0" height="16.0" fill="#addeef"/><text x="110.0" y="53.0" fill="#000000" style="font-family: monospace; font-size: 12.0px;" text-anchor="middle" dominant-baseline="central">EFDEAD</text><rect x="150.0" y="45.0" width="48.0" height="16.0" fill="#deefbe"/><text x="174.0" y="53.0" fill="#000000" style="font-family: monospace; font-size: 12.0px;" text-anchor="middle" dominant-baseline="central">BEEFDE</text><rect x="214.0" y="45.0" width="48.0" height="16.0" fill="#efbead"/><text x="238.0" y="53.0" fill="#000000" style="font-family: monospace; font-size: 12.0px;" text-anchor="middle" dominant-baseline="central">ADBEEF</text><rect x="86.0" y="77.0" width="48.0" height="16.0" fill="#beadde"/><text x="110.0" y="85.0" fill="#ffffff" style="font-family: monospace; font-size: 12.0px;" text-anchor="middle" dominant-baseline="central">DEADBE</text><rect x="150.0" y="77.0" width="48.0" height="16.0" fill="#addeef"/><text x="174.0" y="85.0" fill="#000000" style="font-family: monospace; font-size: 12.0px;" text-anchor="middle" dominant-baseline="central">EFDEAD</text><rect x="22.0" y="109.0" width="48.0" height="16.0" fill="#efefbe"/><text x="46.0" y="117.0" fill="#000000" style="font-family: monospace; font-size: 12.0px;" text-anchor="middle" dominant-baseline="central">BEEF</text><rect x="150.0" y="109.0" width="48.0" height="16.0" fill="#beadde"/><text x="174.0" y="117.0" fill="#ffffff" style="font-family: monospace; font-size: 12.0px;" text-anchor="middle" dominant-baseline="central">DEADBE</text><rect x="214.0" y="109.0" width="48.0" height="16.0" fill="#addeef"/><text x="238.0" y="117.0" fill="#000000" style="font-family: monospace; font-size: 12.0px;" text-anchor="middle" dominant-baseline="central">EFDEAD</text><rect x="86.0" y="141.0" width="48.0" height="16.0" fill="#deefbe"/><text x="110.0" y="149.0" fill="#000000" style="font-family: monospace; font-size: 12.0px;" text-anchor="middle" dominant-baseline="central">BEEFDE</text><rect x="150.0" y="141.0" width="48.0" height="16.0" fill="#efbead"/><text x="174.0" y="149.0" fill="#000000" style="font-family: monospace; font-size: 12.0px;" text-anchor="middle" dominant-baseline="central">ADBEEF</text><rect x="214.0" y="141.0" width="48.0" height="16.0" fill="#beadde"/><text x="238.0" y="149.0" fill="#ffffff" style="font-family: monospace; font-size: 12.0px;" text-anchor="middle" dominant-baseline="central">DEADBE</text><rect x="22.0" y="173.0" width="48.0" height="16.0" fill="#addeef"/><text x="46.0" y="181.0" fill="#000000" style="font-family: monospace; font-size: 12.0px;" text-anchor="middle" dominant-baseline="central">EFDEAD</text><rect x="86.0" y="173.0" width="48.0" height="16.0" fill="#deefbe"/><text x="110.0" y="181.0" fill="#000000" style="font-family: monospace; font-size: 12.0px;" text-anchor="middle" dominant-baseline="central">BEEFDE</text><rect x="150.0" y="173.0" width="48.0" height="16.0" fill="#efbead"/><text x="174.0" y="181.0" fill="#000000" style="font-family: monospace; font-size: 12.0px;" text-anchor="middle" dominant-baseline="central">ADBEEF</text><rect x="214.0" y="173.0" width="48.0" height="16.0" fill="#beadde"/><text x="238.0" y="181.0" fill="#ffffff" style="font-family: monospace; font-size: 12.0px;" text-anchor="middle" dominant-baseline="central">DEADBE</text><rect x="22.0" y="205.0" width="48.0" height="16.0" fill="#addeef"/><text x="46.0" y="213.0" fill="#000000" style="font-family: monospace; font-size: 12.0px;" text-anchor="middle" dominant-baseline="central">EFDEAD</text><rect x="86.0" y="205.0" width="48.0" height="16.0" fill="#eeeebe"/><text x="110.0" y="213.0" fill="#000000" style="font-family: monospace; font-size: 12.0px;" text-anchor="middle" dominant-baseline="central">BEEE</text><circle cx="144.0" cy="7.0" r="2.0" fill="#ffd966"/><circle cx="204.0" cy="135.0" r="2.0" fill="#ff3f2f"/><circle cx="140.0" cy="35.0" r="2.0" fill="#2f3fbf"/><circle cx="16.0" cy="35.0" r="2.0" fill="#000000"/><rect x="1" y="1" width="8.0" height="111.37531155167495" fill="#000000"/><rect x="1" y="112.37531155167495" width="8.0" height="69.53105869770776" fill="#ffd966"/><rect x="1" y="181.90637024938272" width="8.0" height="49.09356820954569" fill="#2f3fbf"/><rect x="1" y="230.9999384589284" width="8.0" height="22.000061541071602" fill="#ff3f2f"/><text x="270.0" y="241.0" fill="#444444" style="font-family: monospace; font-size: 12.0px;" text-anchor="end" dominant-baseline="central">338 127 226</text><line x1="0" y1="0" x2="274.0" y2="0" stroke="#000000" stroke-width="1"/><line x1="274.0" y1="0" x2="274.0" y2="253.0" stroke="#000000" stroke-width="1"/><line x1="0" y1="253.0" x2="274.0" y2="253.0" stroke="#000000" stroke-width="1"/><line x1="0" y1="0" x2="0" y2="253.0" stroke="#000000" stroke-width="1"/><line x1="9.0" y1="0" x2="9.0" y2="253.0" stroke="#000000" stroke-width="1"/></svg>