<svg width="147.0" height="126.0" xmlns="http://www.w3.org/2000/svg"><defs data-v3-clip-seq="10"><clipPath id="grid-clip"><rect x="14.0" y="5.0" width="128.0" height="96.0"/></clipPath><path id="c1" d="M0,8 L0,6 L2,6 L2,0 L8,0 L8,8 L6,8 L6,4 L4,4 L4,8 Z M12,4 L14,4 L14,8 L12,8 Z M22,4 L24,4 L24,8 L22,8 Z" fill-rule="evenodd"/><path id="c2" d="M0,8 L0,2 L4,2 L4,4 L6,4 L6,8 L10,8 L10,2 L10,0 L24,0 L24,8 Z M18,0 L20,0 L20,4 L18,4 Z M14,0 L16,0 L16,2 L14,2 Z" fill-rule="evenodd"/><path id="c3" d="M16,0 L20,0 L20,8 L16,8 L16,6 L12,6 L12,4 L16,4 Z M0,6 L2,6 L2,8 L0,8 Z" fill-rule="evenodd"/><path id="p1" d="M0,8 L0,4 L3,3 L4,0 L12,0 L16,8 Z" fill-rule="evenodd"/><path id="p2" d="M16,0 L12,4 L8,8 L14,8 L18,0 L22,8 L24,8 L24,4 L20,0 Z" fill-rule="evenodd"/><path id="p3" d="M0,2 L4,0 L6,4 L10,8 L0,8 Z M20,8 L24,4 L24,8 Z" fill-rule="evenodd"/><linearGradient id="g0" gradientUnits="userSpaceOnUse" x1="12" y1="8" x2="12" y2="0"><stop offset="0%" stop-color="#840e55"/><stop offset="100%" stop-color="#000000"/></linearGradient><linearGradient id="g1" gradientUnits="userSpaceOnUse" x1="12" y1="8" x2="12" y2="0"><stop offset="0%" stop-color="#840e55"/><stop offset="100%" stop-color="#000000"/></linearGradient><clipPath id="v3clip-0"><rect x="70.0" y="13.0" width="8.0" height="16.0"/></clipPath><linearGradient id="g2" gradientUnits="userSpaceOnUse" x1="12" y1="8" x2="12" y2="0"><stop offset="0%" stop-color="#840e55"/><stop offset="100%" stop-color="#ffd966"/></linearGradient><linearGradient id="g3" gradientUnits="userSpaceOnUse" x1="12" y1="8" x2="12" y2="0"><stop offset="0%" stop-color="#840e55"/><stop offset="100%" stop-color="#000000"/></linearGradient><clipPath id="v3clip-1"><rect x="14.0" y="13.0" width="8.0" height="16.0"/></clipPath><linearGradient id="g4" gradientUnits="userSpaceOnUse" x1="12" y1="8" x2="12" y2="0"><stop offset="0%" stop-color="#9be200"/><stop offset="100%" stop-color="#2f3fbf"/></linearGradient><linearGradient id="g5" gradientUnits="userSpaceOnUse" x1="12" y1="8" x2="12" y2="0"><stop offset="0%" stop-color="#9be200"/><stop offset="100%" stop-color="#ffd966"/></linearGradient><linearGradient id="g6" gradientUnits="userSpaceOnUse" x1="12" y1="8" x2="12" y2="0"><stop offset="0%" stop-color="#9be200"/><stop offset="100%" stop-color="#ffd966"/></linearGradient><clipPath id="v3clip-2"><rect x="134.0" y="13.0" width="8.0" height="16.0"/></clipPath><linearGradient id="g7" gradientUnits="userSpaceOnUse" x1="12" y1="8" x2="12" y2="0"><stop offset="0%" stop-color="#9be200"/><stop offset="100%" stop-color="#000000"/></linearGradient><linearGradient id="g8" gradientUnits="userSpaceOnUse" x1="12" y1="8" x2="12" y2="0"><stop offset="0%" stop-color="#9be200"/><stop offset="100%" stop-color="#ff3f2f"/></linearGradient><linearGradient id="g9" gradientUnits="userSpaceOnUse" x1="12" y1="8" x2="12" y2="0"><stop offset="0%" stop-color="#9be200"/><stop offset="100%" stop-color="#ffd966"/></linearGradient><clipPath id="v3clip-3"><rect x="78.0" y="13.0" width="8.0" height="16.0"/></clipPath><linearGradient id="g10" gradientUnits="userSpaceOnUse" x1="12" y1="8" x2="12" y2="0"><stop offset="0%" stop-color="#a7d441"/><stop offset="100%" stop-color="#ff3f2f"/></linearGradient><linearGradient id="g11" gradientUnits="userSpaceOnUse" x1="12" y1="8" x2="12" y2="0"><stop offset="0%" stop-color="#a7d441"/><stop offset="100%" stop-color="#ffd966"/></linearGradient><linearGradient id="g12" gradientUnits="userSpaceOnUse" x1="12" y1="8" x2="12" y2="0"><stop offset="0%" stop-color="#a7d441"/><stop offset="100%" stop-color="#ffd966"/></linearGradient><clipPath id="v3clip-4"><rect x="70.0" y="45.0" width="8.0" height="16.0"/></clipPath><linearGradient id="g13" gradientUnits="userSpaceOnUse" x1="12" y1="8" x2="12" y2="0"><stop offset="0%" stop-color="#a7d441"/><stop offset="100%" stop-color="#ffd966"/></linearGradient><linearGradient id="g14" gradientUnits="userSpaceOnUse" x1="12" y1="8" x2="12" y2="0"><stop offset="0%" stop-color="#a7d441"/><stop offset="100%" stop-color="#000000"/></linearGradient><linearGradient id="g15" gradientUnits="userSpaceOnUse" x1="12" y1="8" x2="12" y2="0"><stop offset="0%" stop-color="#664416"/><stop offset="100%" stop-color="#2f3fbf"/></linearGradient><linearGradient id="g16" gradientUnits="userSpaceOnUse" x1="12" y1="8" x2="12" y2="0"><stop offset="0%" stop-color="#664416"/><stop offset="100%" stop-color="#ff3f2f"/></linearGradient><linearGradient id="g17" gradientUnits="userSpaceOnUse" x1="12" y1="8" x2="12" y2="0"><stop offset="0%" stop-color="#664416"/><stop offset="100%" stop-color="#000000"/></linearGradient><clipPath id="v3clip-5"><rect x="134.0" y="45.0" width="8.0" height="16.0"/></clipPath><linearGradient id="g18" gradientUnits="userSpaceOnUse" x1="12" y1="8" x2="12" y2="0"><stop offset="0%" stop-color="#664416"/><stop offset="100%" stop-color="#ff3f2f"/></linearGradient><linearGradient id="g19" gradientUnits="userSpaceOnUse" x1="12" y1="8" x2="12" y2="0"><stop offset="0%" stop-color="#664416"/><stop offset="100%" stop-color="#ff3f2f"/></linearGradient><clipPath id="v3clip-6"><rect x="78.0" y="45.0" width="8.0" height="16.0"/></clipPath><linearGradient id="g20" gradientUnits="userSpaceOnUse" x1="12" y1="8" x2="12" y2="0"><stop offset="0%" stop-color="#004455"/><stop offset="100%" stop-color="#ff3f2f"/></linearGradient><linearGradient id="g21" gradientUnits="userSpaceOnUse" x1="12" y1="8" x2="12" y2="0"><stop offset="0%" stop-color="#004455"/><stop offset="100%" stop-color="#ffd966"/></linearGradient><linearGradient id="g22" gradientUnits="userSpaceOnUse" x1="12" y1="8" x2="12" y2="0"><stop offset="0%" stop-color="#004455"/><stop offset="100%" stop-color="#ffd966"/></linearGradient><clipPath id="v3clip-7"><rect x="70.0" y="77.0" width="8.0" height="16.0"/></clipPath><linearGradient id="g23" gradientUnits="userSpaceOnUse" x1="12" y1="8" x2="12" y2="0"><stop offset="0%" stop-color="#004455"/><stop offset="100%" stop-color="#ff3f2f"/></linearGradient><linearGradient id="g24" gradientUnits="userSpaceOnUse" x1="12" y1="8" x2="12" y2="0"><stop offset="0%" stop-color="#004455"/><stop offset="100%" stop-color="#2f3fbf"/></linearGradient><linearGradient id="g25" gradientUnits="userSpaceOnUse" x1="12" y1="8" x2="12" y2="0"><stop offset="0%" stop-color="#000000"/><stop offset="100%" stop-color="#ffd966"/></linearGradient><linearGradient id="g26" gradientUnits="userSpaceOnUse" x1="12" y1="8" x2="12" y2="0"><stop offset="0%" stop-color="#000000"/><stop offset="100%" stop-color="#ff3f2f"/></linearGradient><linearGradient id="g27" gradientUnits="userSpaceOnUse" x1="12" y1="8" x2="12" y2="0"><stop offset="0%" stop-color="#000000"/><stop offset="100%" stop-color="#2f3fbf"/></linearGradient><clipPath id="v3clip-8"><rect x="134.0" y="77.0" width="8.0" height="16.0"/></clipPath><linearGradient id="g28" gradientUnits="userSpaceOnUse" x1="12" y1="8" x2="12" y2="0"><stop offset="0%" stop-color="#000000"/><stop offset="100%" stop-color="#2f3fbf"/></linearGradient><linearGradient id="g29" gradientUnits="userSpaceOnUse" x1="12" y1="8" x2="12" y2="0"><stop offset="0%" stop-color="#000000"/><stop offset="100%" stop-color="#000000"/></linearGradient><clipPath id="v3clip-9"><rect x="78.0" y="77.0" width="8.0" height="16.0"/></clipPath></defs><rect x="0" y="0" width="147.0" height="126.0" fill="#ffffff"/><rect x="14.0" y="5.0" width="128.0" height="96.0" fill="#ffffff"/><g><title>C2</title><use href="#c2" transform="translate(46.0, 5.0) scale(1.0)" fill="url(#g0)"/></g><g><title>C1</title><g clip-path="url(#v3clip-0)"><use href="#c1" transform="translate(76.0, 13.0) rotate(90 2.0 0.0) scale(1.0)" fill="url(#g1)"/></g></g><g><title>C2</title><use href="#c2" transform="translate(22.0, 29.0) rotate(180 12.0 4.0) scale(1.0)" fill="url(#g2)"/></g><g><title>C2</title><g clip-path="url(#v3clip-1)"><use href="#c2" transform="translate(8.0, 29.0) rotate(270 6.0 0.0) scale(1.0)" fill="url(#g3)"/></g></g><g><title>C2</title><use href="#c2" transform="translate(86.0, 5.0) scale(1.0)" fill="url(#g4)"/></g><g><title>C1</title><use href="#c1" transform="translate(110.0, 5.0) scale(1.0)" fill="url(#g5)"/></g><g><title>C2</title><g clip-path="url(#v3clip-2)"><use href="#c2" transform="translate(136.0, 13.0) rotate(90 6.0 0.0) scale(1.0)" fill="url(#g6)"/></g></g><g><title>C3</title><use href="#c3" transform="translate(110.0, 29.0) rotate(180 12.0 4.0) scale(1.0)" fill="url(#g7)"/></g><g><title>C2</title><use href="#c2" transform="translate(86.0, 29.0) rotate(180 12.0 4.0) scale(1.0)" fill="url(#g8)"/></g><g><title>C1</title><g clip-path="url(#v3clip-3)"><use href="#c1" transform="translate(76.0, 29.0) rotate(270 2.0 0.0) scale(1.0)" fill="url(#g9)"/></g></g><g><title>C2</title><use href="#c2" transform="translate(22.0, 37.0) scale(1.0)" fill="url(#g10)"/></g><g><title>C1</title><use href="#c1" transform="translate(46.0, 37.0) scale(1.0)" fill="url(#g11)"/></g><g><title>C3</title><g clip-path="url(#v3clip-4)"><use href="#c3" transform="translate(74.0, 45.0) rotate(90 4.0 0.0) scale(1.0)" fill="url(#g12)"/></g></g><g><title>C1</title><use href="#c1" transform="translate(46.0, 61.0) rotate(180 12.0 4.0) scale(1.0)" fill="url(#g13)"/></g><g><title>C2</title><use href="#c2" transform="translate(22.0, 61.0) rotate(180 12.0 4.0) scale(1.0)" fill="url(#g14)"/></g><g><title>C1</title><use href="#c1" transform="translate(86.0, 37.0) scale(1.0)" fill="url(#g15)"/></g><g><title>C3</title><use href="#c3" transform="translate(110.0, 37.0) scale(1.0)" fill="url(#g16)"/></g><g><title>C2</title><g clip-path="url(#v3clip-5)"><use href="#c2" transform="translate(136.0, 45.0) rotate(90 6.0 0.0) scale(1.0)" fill="url(#g17)"/></g></g><g><title>C1</title><use href="#c1" transform="translate(86.0, 61.0) rotate(180 12.0 4.0) scale(1.0)" fill="url(#g18)"/></g><g><title>C1</title><g clip-path="url(#v3clip-6)"><use href="#c1" transform="translate(76.0, 61.0) rotate(270 2.0 0.0) scale(1.0)" fill="url(#g19)"/></g></g><g><title>C2</title><use href="#c2" transform="translate(22.0, 69.0) scale(1.0)" fill="url(#g20)"/></g><g><title>C1</title><use href="#c1" transform="translate(46.0, 69.0) scale(1.0)" fill="url(#g21)"/></g><g><title>C1</title><g clip-path="url(#v3clip-7)"><use href="#c1" transform="translate(76.0, 77.0) rotate(90 2.0 0.0) scale(1.0)" fill="url(#g22)"/></g></g><g><title>C2</title><use href="#c2" transform="translate(46.0, 93.0) rotate(180 12.0 4.0) scale(1.0)" fill="url(#g23)"/></g><g><title>C3</title><use href="#c3" transform="translate(22.0, 93.0) rotate(180 12.0 4.0) scale(1.0)" fill="url(#g24)"/></g><g><title>C2</title><use href="#c2" transform="translate(86.0, 69.0) scale(1.0)" fill="url(#g25)"/></g><g><title>C1</title><use href="#c1" transform="translate(110.0, 69.0) scale(1.0)" fill="url(#g26)"/></g><g><title>C1</title><g clip-path="url(#v3clip-8)"><use href="#c1" transform="translate(140.0, 77.0) rotate(90 2.0 0.0) scale(1.0)" fill="url(#g27)"/></g></g><g><title>C2</title><use href="#c2" transform="translate(86.0, 93.0) rotate(180 12.0 4.0) scale(1.0)" fill="url(#g28)"/></g><g><title>C3</title><g clip-path="url(#v3clip-9)"><use href="#c3" transform="translate(74.0, 93.0) rotate(270 4.0 0.0) scale(1.0)" fill="url(#g29)"/></g></g><rect x="22.0" y="13.0" width="48.0" height="16.0" fill="#840e55"/><text x="46.0" y="21.0" fill="#ffffff" style="font-family: monospace; font-size: 12.0px;" text-anchor="middle" dominant-baseline="central">550e84</text><rect x="86.0" y="13.0" width="48.0" height="16.0" fill="#9be200"/><text x="110.0" y="21.0" fill="#000000" style="font-family: monospace; font-size: 12.0px;" text-anchor="middle" dominant-baseline="central">00e29b</text><rect x="22.0" y="45.0" width="48.0" height="16.0" fill="#a7d441"/><text x="46.0" y="53.0" fill="#000000" style="font-family: monospace; font-size: 12.0px;" text-anchor="middle" dominant-baseline="central">41d4a7</text><rect x="86.0" y="45.0" width="48.0" height="16.0" fill="#664416"/><text x="110.0" y="53.0" fill="#ffffff" style="font-family: monospace; font-size: 12.0px;" text-anchor="middle" dominant-baseline="central">164466</text><rect x="22.0" y="77.0" width="48.0" height="16.0" fill="#004455"/><text x="46.0" y="85.0" fill="#ffffff" style="font-family: monospace; font-size: 12.0px;" text-anchor="middle" dominant-baseline="central">554400</text><rect x="86.0" y="77.0" width="48.0" height="16.0" fill="#000000"/><text x="110.0" y="85.0" fill="#ffffff" style="font-family: monospace; font-size: 12.0px;" text-anchor="middle" dominant-baseline="central">00</text><circle cx="16.0" cy="71.0" r="2.0" fill="#ffd966"/><circle cx="140.0" cy="39.0" r="2.0" fill="#ff3f2f"/><circle cx="76.0" cy="67.0" r="2.0" fill="#2f3fbf"/><rect x="1" y="1" width="8.0" height="72.42144609274618" fill="#ffd966"/><rect x="1" y="73.42144609274618" width="8.0" height="29.663824319588834" fill="#ff3f2f"/><rect x="1" y="103.085270412335" width="8.0" height="17.388389206868357" fill="#000000"/><rect x="1" y="120.47365961920336" width="8.0" height="4.52634038079664" fill="#2f3fbf"/><text x="142.0" y="113.0" fill="#444444" style="font-family: monospace; font-size: 12.0px;" text-anchor="end" dominant-baseline="central">213 112 305</text><line x1="0" y1="0.5" x2="147.0" y2="0.5" stroke="#808080" stroke-width="1" shape-rendering="crispEdges"/><line x1="146.5" y1="0" x2="146.5" y2="126.0" stroke="#808080" stroke-width="1" shape-rendering="crispEdges"/><line x1="0" y1="125.5" x2="147.0" y2="125.5" stroke="#808080" stroke-width="1" shape-rendering="crispEdges"/><line x1="0.5" y1="0" x2="0.5" y2="126.0" stroke="#808080" stroke-width="1" shape-rendering="crispEdges"/><line x1="9.5" y1="0" x2="9.5" y2="126.0" stroke="#808080" stroke-width="1" shape-rendering="crispEdges"/></svg>