<svg width="269.0" height="222.0" xmlns="http://www.w3.org/2000/svg"><rect x="0" y="0" width="269.0" height="222.0" fill="#ffffff"/><rect x="8.0" y="5.0" width="256.0" height="192.0" fill="#ffd966"/><rect x="16.0" y="13.0" width="48.0" height="16.0" fill="#beadde"/><text x="40.0" y="21.0" fill="#ffffff" style="font-family: monospace; font-size: 16.0px;" text-anchor="middle" dominant-baseline="central">DEADBE</text><rect x="24.0" y="5.0" width="8.0" height="8.0" fill="#ffffff"/><polygon points="40.0,5.0 48.0,5.0 48.0,13.0" fill="#ff3f2f"/><rect x="48.0" y="5.0" width="8.0" height="8.0" fill="#ff3f2f"/><polygon points="56.0,5.0 56.0,13.0 64.0,13.0" fill="#ff3f2f"/><polygon points="64.0,21.0 72.0,13.0 72.0,21.0" fill="#ffffff"/><polygon points="64.0,21.0 72.0,21.0 64.0,29.0" fill="#ffffff"/><rect x="50.0" y="29.0" width="4.0" height="8.0" fill="#ff3f2f"/><rect x="43.0" y="33.0" width="18.0" height="2.0" fill="#ff3f2f"/><rect x="26.0" y="29.0" width="4.0" height="8.0" fill="#ffffff"/><rect x="19.0" y="33.0" width="18.0" height="2.0" fill="#ffffff"/><rect x="8.0" y="19.0" width="8.0" height="4.0" fill="#2f3fbf"/><rect x="11.0" y="16.0" width="2.0" height="10.0" fill="#2f3fbf"/><rect x="80.0" y="13.0" width="48.0" height="16.0" fill="#addeef"/><text x="104.0" y="21.0" fill="#000000" style="font-family: monospace; font-size: 16.0px;" text-anchor="middle" dominant-baseline="central">EFDEAD</text><polygon points="80.0,5.0 88.0,5.0 88.0,13.0" fill="#ff3f2f"/><rect x="88.0" y="5.0" width="8.0" height="8.0" fill="#ff3f2f"/><polygon points="96.0,5.0 96.0,13.0 104.0,13.0" fill="#ff3f2f"/><rect x="114.0" y="5.0" width="4.0" height="8.0" fill="#2f3fbf"/><rect x="107.0" y="7.0" width="18.0" height="2.0" fill="#2f3fbf"/><rect x="128.0" y="19.0" width="8.0" height="4.0" fill="#000000"/><rect x="131.0" y="16.0" width="2.0" height="10.0" fill="#000000"/><rect x="112.0" y="29.0" width="8.0" height="8.0" fill="#000000"/><rect x="88.0" y="29.0" width="8.0" height="8.0" fill="#2f3fbf"/><rect x="72.0" y="19.0" width="8.0" height="4.0" fill="#000000"/><rect x="75.0" y="16.0" width="2.0" height="10.0" fill="#000000"/><rect x="144.0" y="13.0" width="48.0" height="16.0" fill="#deefbe"/><text x="168.0" y="21.0" fill="#000000" style="font-family: monospace; font-size: 16.0px;" text-anchor="middle" dominant-baseline="central">BEEFDE</text><rect x="154.0" y="5.0" width="4.0" height="8.0" fill="#ff3f2f"/><rect x="147.0" y="7.0" width="18.0" height="2.0" fill="#ff3f2f"/><rect x="178.0" y="5.0" width="4.0" height="8.0" fill="#2f3fbf"/><rect x="171.0" y="7.0" width="18.0" height="2.0" fill="#2f3fbf"/><polygon points="192.0,13.0 192.0,21.0 200.0,21.0" fill="#ff3f2f"/><polygon points="192.0,21.0 200.0,21.0 200.0,29.0" fill="#ff3f2f"/><polygon points="168.0,29.0 168.0,37.0 176.0,37.0" fill="#000000"/><rect x="176.0" y="29.0" width="8.0" height="8.0" fill="#000000"/><polygon points="184.0,29.0 192.0,29.0 192.0,37.0" fill="#000000"/><polygon points="144.0,29.0 152.0,29.0 144.0,37.0" fill="#ffffff"/><polygon points="160.0,37.0 168.0,29.0 168.0,37.0" fill="#ffffff"/><rect x="136.0" y="17.0" width="8.0" height="8.0" fill="#ff3f2f"/><rect x="208.0" y="13.0" width="48.0" height="16.0" fill="#efbead"/><text x="232.0" y="21.0" fill="#000000" style="font-family: monospace; font-size: 16.0px;" text-anchor="middle" dominant-baseline="central">ADBEEF</text><polygon points="208.0,13.0 216.0,5.0 216.0,13.0" fill="#ff3f2f"/><polygon points="224.0,5.0 232.0,5.0 224.0,13.0" fill="#ff3f2f"/><rect x="242.0" y="5.0" width="4.0" height="8.0" fill="#ffffff"/><rect x="235.0" y="7.0" width="18.0" height="2.0" fill="#ffffff"/><polygon points="256.0,21.0 264.0,13.0 264.0,21.0" fill="#ff3f2f"/><polygon points="256.0,21.0 264.0,21.0 256.0,29.0" fill="#ff3f2f"/><polygon points="232.0,29.0 232.0,37.0 240.0,37.0" fill="#ff3f2f"/><rect x="240.0" y="29.0" width="8.0" height="8.0" fill="#ff3f2f"/><polygon points="248.0,29.0 256.0,29.0 256.0,37.0" fill="#ff3f2f"/><polygon points="208.0,29.0 216.0,29.0 208.0,37.0" fill="#ffffff"/><polygon points="224.0,37.0 232.0,29.0 232.0,37.0" fill="#ffffff"/><rect x="200.0" y="19.0" width="8.0" height="4.0" fill="#ffffff"/><rect x="203.0" y="16.0" width="2.0" height="10.0" fill="#ffffff"/><rect x="16.0" y="45.0" width="48.0" height="16.0" fill="#beadde"/><text x="40.0" y="53.0" fill="#ffffff" style="font-family: monospace; font-size: 16.0px;" text-anchor="middle" dominant-baseline="central">DEADBE</text><rect x="24.0" y="37.0" width="8.0" height="8.0" fill="#ff3f2f"/><rect x="48.0" y="37.0" width="8.0" height="8.0" fill="#000000"/><polygon points="64.0,53.0 72.0,45.0 72.0,53.0" fill="#2f3fbf"/><polygon points="64.0,53.0 72.0,53.0 64.0,61.0" fill="#2f3fbf"/><rect x="48.0" y="61.0" width="8.0" height="8.0" fill="#ffffff"/><polygon points="16.0,61.0 16.0,69.0 24.0,69.0" fill="#ff3f2f"/><rect x="24.0" y="61.0" width="8.0" height="8.0" fill="#ff3f2f"/><polygon points="32.0,61.0 40.0,61.0 40.0,69.0" fill="#ff3f2f"/><rect x="8.0" y="51.0" width="8.0" height="4.0" fill="#2f3fbf"/><rect x="11.0" y="48.0" width="2.0" height="10.0" fill="#2f3fbf"/><rect x="80.0" y="45.0" width="48.0" height="16.0" fill="#addeef"/><text x="104.0" y="53.0" fill="#000000" style="font-family: monospace; font-size: 16.0px;" text-anchor="middle" dominant-baseline="central">EFDEAD</text><rect x="88.0" y="37.0" width="8.0" height="8.0" fill="#000000"/><rect x="114.0" y="37.0" width="4.0" height="8.0" fill="#ff3f2f"/><rect x="107.0" y="39.0" width="18.0" height="2.0" fill="#ff3f2f"/><rect x="128.0" y="51.0" width="8.0" height="4.0" fill="#ffffff"/><rect x="131.0" y="48.0" width="2.0" height="10.0" fill="#ffffff"/><polygon points="104.0,61.0 104.0,69.0 112.0,69.0" fill="#000000"/><rect x="112.0" y="61.0" width="8.0" height="8.0" fill="#000000"/><polygon points="120.0,61.0 128.0,61.0 128.0,69.0" fill="#000000"/><polygon points="80.0,61.0 80.0,69.0 88.0,69.0" fill="#ff3f2f"/><rect x="88.0" y="61.0" width="8.0" height="8.0" fill="#ff3f2f"/><polygon points="96.0,61.0 104.0,61.0 104.0,69.0" fill="#ff3f2f"/><rect x="72.0" y="49.0" width="8.0" height="8.0" fill="#000000"/><rect x="144.0" y="45.0" width="48.0" height="16.0" fill="#deefbe"/><text x="168.0" y="53.0" fill="#000000" style="font-family: monospace; font-size: 16.0px;" text-anchor="middle" dominant-baseline="central">BEEFDE</text><rect x="154.0" y="37.0" width="4.0" height="8.0" fill="#ffffff"/><rect x="147.0" y="39.0" width="18.0" height="2.0" fill="#ffffff"/><rect x="178.0" y="37.0" width="4.0" height="8.0" fill="#ffffff"/><rect x="171.0" y="39.0" width="18.0" height="2.0" fill="#ffffff"/><polygon points="192.0,53.0 200.0,45.0 200.0,53.0" fill="#ff3f2f"/><polygon points="192.0,53.0 200.0,53.0 192.0,61.0" fill="#ff3f2f"/><rect x="176.0" y="61.0" width="8.0" height="8.0" fill="#000000"/><rect x="152.0" y="61.0" width="8.0" height="8.0" fill="#000000"/><rect x="136.0" y="49.0" width="8.0" height="8.0" fill="#ffffff"/><rect x="208.0" y="45.0" width="48.0" height="16.0" fill="#efbead"/><text x="232.0" y="53.0" fill="#000000" style="font-family: monospace; font-size: 16.0px;" text-anchor="middle" dominant-baseline="central">ADBEEF</text><rect x="218.0" y="37.0" width="4.0" height="8.0" fill="#000000"/><rect x="211.0" y="39.0" width="18.0" height="2.0" fill="#000000"/><rect x="242.0" y="37.0" width="4.0" height="8.0" fill="#ff3f2f"/><rect x="235.0" y="39.0" width="18.0" height="2.0" fill="#ff3f2f"/><rect x="256.0" y="51.0" width="8.0" height="4.0" fill="#ffffff"/><rect x="259.0" y="48.0" width="2.0" height="10.0" fill="#ffffff"/><rect x="242.0" y="61.0" width="4.0" height="8.0" fill="#ff3f2f"/><rect x="235.0" y="65.0" width="18.0" height="2.0" fill="#ff3f2f"/><polygon points="208.0,61.0 208.0,69.0 216.0,69.0" fill="#ff3f2f"/><rect x="216.0" y="61.0" width="8.0" height="8.0" fill="#ff3f2f"/><polygon points="224.0,61.0 232.0,61.0 232.0,69.0" fill="#ff3f2f"/><polygon points="200.0,45.0 208.0,45.0 208.0,53.0" fill="#2f3fbf"/><polygon points="200.0,53.0 200.0,61.0 208.0,61.0" fill="#2f3fbf"/><rect x="16.0" y="77.0" width="48.0" height="16.0" fill="#beadde"/><text x="40.0" y="85.0" fill="#ffffff" style="font-family: monospace; font-size: 16.0px;" text-anchor="middle" dominant-baseline="central">DEADBE</text><polygon points="16.0,77.0 24.0,69.0 24.0,77.0" fill="#ff3f2f"/><polygon points="32.0,69.0 40.0,69.0 32.0,77.0" fill="#ff3f2f"/><rect x="50.0" y="69.0" width="4.0" height="8.0" fill="#000000"/><rect x="43.0" y="71.0" width="18.0" height="2.0" fill="#000000"/><rect x="64.0" y="83.0" width="8.0" height="4.0" fill="#ff3f2f"/><rect x="67.0" y="80.0" width="2.0" height="10.0" fill="#ff3f2f"/><polygon points="40.0,93.0 40.0,101.0 48.0,101.0" fill="#2f3fbf"/><rect x="48.0" y="93.0" width="8.0" height="8.0" fill="#2f3fbf"/><polygon points="56.0,93.0 64.0,93.0 64.0,101.0" fill="#2f3fbf"/><polygon points="16.0,93.0 24.0,93.0 16.0,101.0" fill="#000000"/><polygon points="32.0,101.0 40.0,93.0 40.0,101.0" fill="#000000"/><rect x="8.0" y="83.0" width="8.0" height="4.0" fill="#2f3fbf"/><rect x="11.0" y="80.0" width="2.0" height="10.0" fill="#2f3fbf"/><rect x="80.0" y="77.0" width="48.0" height="16.0" fill="#addeef"/><text x="104.0" y="85.0" fill="#000000" style="font-family: monospace; font-size: 16.0px;" text-anchor="middle" dominant-baseline="central">EFDEAD</text><polygon points="80.0,69.0 88.0,69.0 88.0,77.0" fill="#ffffff"/><rect x="88.0" y="69.0" width="8.0" height="8.0" fill="#ffffff"/><polygon points="96.0,69.0 96.0,77.0 104.0,77.0" fill="#ffffff"/><polygon points="104.0,69.0 112.0,69.0 112.0,77.0" fill="#ffffff"/><rect x="112.0" y="69.0" width="8.0" height="8.0" fill="#ffffff"/><polygon points="120.0,69.0 120.0,77.0 128.0,77.0" fill="#ffffff"/><rect x="128.0" y="81.0" width="8.0" height="8.0" fill="#ffffff"/><polygon points="104.0,93.0 112.0,93.0 104.0,101.0" fill="#ffffff"/><polygon points="120.0,101.0 128.0,93.0 128.0,101.0" fill="#ffffff"/><rect x="88.0" y="93.0" width="8.0" height="8.0" fill="#ffffff"/><polygon points="72.0,77.0 80.0,77.0 80.0,85.0" fill="#ff3f2f"/><polygon points="72.0,85.0 72.0,93.0 80.0,93.0" fill="#ff3f2f"/><rect x="144.0" y="77.0" width="48.0" height="16.0" fill="#deefbe"/><text x="168.0" y="85.0" fill="#000000" style="font-family: monospace; font-size: 16.0px;" text-anchor="middle" dominant-baseline="central">BEEFDE</text><polygon points="144.0,69.0 152.0,69.0 152.0,77.0" fill="#000000"/><rect x="152.0" y="69.0" width="8.0" height="8.0" fill="#000000"/><polygon points="160.0,69.0 160.0,77.0 168.0,77.0" fill="#000000"/><rect x="176.0" y="69.0" width="8.0" height="8.0" fill="#2f3fbf"/><rect x="192.0" y="81.0" width="8.0" height="8.0" fill="#ff3f2f"/><rect x="176.0" y="93.0" width="8.0" height="8.0" fill="#2f3fbf"/><rect x="154.0" y="93.0" width="4.0" height="8.0" fill="#000000"/><rect x="147.0" y="97.0" width="18.0" height="2.0" fill="#000000"/><rect x="136.0" y="83.0" width="8.0" height="4.0" fill="#2f3fbf"/><rect x="139.0" y="80.0" width="2.0" height="10.0" fill="#2f3fbf"/><rect x="208.0" y="77.0" width="48.0" height="16.0" fill="#efbead"/><text x="232.0" y="85.0" fill="#000000" style="font-family: monospace; font-size: 16.0px;" text-anchor="middle" dominant-baseline="central">ADBEEF</text><rect x="218.0" y="69.0" width="4.0" height="8.0" fill="#000000"/><rect x="211.0" y="71.0" width="18.0" height="2.0" fill="#000000"/><rect x="240.0" y="69.0" width="8.0" height="8.0" fill="#2f3fbf"/><polygon points="256.0,85.0 264.0,77.0 264.0,85.0" fill="#ffffff"/><polygon points="256.0,85.0 264.0,85.0 256.0,93.0" fill="#ffffff"/><rect x="242.0" y="93.0" width="4.0" height="8.0" fill="#2f3fbf"/><rect x="235.0" y="97.0" width="18.0" height="2.0" fill="#2f3fbf"/><polygon points="208.0,93.0 208.0,101.0 216.0,101.0" fill="#ffffff"/><rect x="216.0" y="93.0" width="8.0" height="8.0" fill="#ffffff"/><polygon points="224.0,93.0 232.0,93.0 232.0,101.0" fill="#ffffff"/><polygon points="200.0,77.0 208.0,77.0 200.0,85.0" fill="#000000"/><polygon points="200.0,93.0 208.0,85.0 208.0,93.0" fill="#000000"/><rect x="16.0" y="109.0" width="48.0" height="16.0" fill="#beadde"/><text x="40.0" y="117.0" fill="#ffffff" style="font-family: monospace; font-size: 16.0px;" text-anchor="middle" dominant-baseline="central">DEADBE</text><rect x="26.0" y="101.0" width="4.0" height="8.0" fill="#000000"/><rect x="19.0" y="103.0" width="18.0" height="2.0" fill="#000000"/><rect x="50.0" y="101.0" width="4.0" height="8.0" fill="#ff3f2f"/><rect x="43.0" y="103.0" width="18.0" height="2.0" fill="#ff3f2f"/><rect x="64.0" y="113.0" width="8.0" height="8.0" fill="#000000"/><rect x="48.0" y="125.0" width="8.0" height="8.0" fill="#ffffff"/><rect x="26.0" y="125.0" width="4.0" height="8.0" fill="#000000"/><rect x="19.0" y="129.0" width="18.0" height="2.0" fill="#000000"/><polygon points="8.0,109.0 16.0,109.0 8.0,117.0" fill="#ff3f2f"/><polygon points="8.0,125.0 16.0,117.0 16.0,125.0" fill="#ff3f2f"/><rect x="80.0" y="109.0" width="48.0" height="16.0" fill="#addeef"/><text x="104.0" y="117.0" fill="#000000" style="font-family: monospace; font-size: 16.0px;" text-anchor="middle" dominant-baseline="central">EFDEAD</text><polygon points="80.0,109.0 88.0,101.0 88.0,109.0" fill="#2f3fbf"/><polygon points="96.0,101.0 104.0,101.0 96.0,109.0" fill="#2f3fbf"/><polygon points="104.0,109.0 112.0,101.0 112.0,109.0" fill="#2f3fbf"/><polygon points="120.0,101.0 128.0,101.0 120.0,109.0" fill="#2f3fbf"/><polygon points="128.0,109.0 128.0,117.0 136.0,117.0" fill="#2f3fbf"/><polygon points="128.0,117.0 136.0,117.0 136.0,125.0" fill="#2f3fbf"/><polygon points="104.0,125.0 104.0,133.0 112.0,133.0" fill="#ffffff"/><rect x="112.0" y="125.0" width="8.0" height="8.0" fill="#ffffff"/><polygon points="120.0,125.0 128.0,125.0 128.0,133.0" fill="#ffffff"/><rect x="90.0" y="125.0" width="4.0" height="8.0" fill="#2f3fbf"/><rect x="83.0" y="129.0" width="18.0" height="2.0" fill="#2f3fbf"/><polygon points="72.0,109.0 80.0,109.0 80.0,117.0" fill="#ff3f2f"/><polygon points="72.0,117.0 72.0,125.0 80.0,125.0" fill="#ff3f2f"/><rect x="208.0" y="109.0" width="48.0" height="16.0" fill="#deefbe"/><text x="232.0" y="117.0" fill="#000000" style="font-family: monospace; font-size: 16.0px;" text-anchor="middle" dominant-baseline="central">BEEFDE</text><rect x="216.0" y="101.0" width="8.0" height="8.0" fill="#000000"/><rect x="242.0" y="101.0" width="4.0" height="8.0" fill="#ffffff"/><rect x="235.0" y="103.0" width="18.0" height="2.0" fill="#ffffff"/><rect x="256.0" y="115.0" width="8.0" height="4.0" fill="#2f3fbf"/><rect x="259.0" y="112.0" width="2.0" height="10.0" fill="#2f3fbf"/><rect x="240.0" y="125.0" width="8.0" height="8.0" fill="#2f3fbf"/><rect x="218.0" y="125.0" width="4.0" height="8.0" fill="#2f3fbf"/><rect x="211.0" y="129.0" width="18.0" height="2.0" fill="#2f3fbf"/><rect x="200.0" y="115.0" width="8.0" height="4.0" fill="#ff3f2f"/><rect x="203.0" y="112.0" width="2.0" height="10.0" fill="#ff3f2f"/><rect x="16.0" y="141.0" width="48.0" height="16.0" fill="#efbead"/><text x="40.0" y="149.0" fill="#000000" style="font-family: monospace; font-size: 16.0px;" text-anchor="middle" dominant-baseline="central">ADBEEF</text><polygon points="16.0,133.0 24.0,133.0 24.0,141.0" fill="#ffffff"/><rect x="24.0" y="133.0" width="8.0" height="8.0" fill="#ffffff"/><polygon points="32.0,133.0 32.0,141.0 40.0,141.0" fill="#ffffff"/><rect x="48.0" y="133.0" width="8.0" height="8.0" fill="#ffffff"/><rect x="64.0" y="147.0" width="8.0" height="4.0" fill="#000000"/><rect x="67.0" y="144.0" width="2.0" height="10.0" fill="#000000"/><rect x="48.0" y="157.0" width="8.0" height="8.0" fill="#000000"/><rect x="26.0" y="157.0" width="4.0" height="8.0" fill="#ff3f2f"/><rect x="19.0" y="161.0" width="18.0" height="2.0" fill="#ff3f2f"/><polygon points="8.0,141.0 16.0,141.0 16.0,149.0" fill="#ff3f2f"/><polygon points="8.0,149.0 8.0,157.0 16.0,157.0" fill="#ff3f2f"/><rect x="80.0" y="141.0" width="48.0" height="16.0" fill="#beadde"/><text x="104.0" y="149.0" fill="#ffffff" style="font-family: monospace; font-size: 16.0px;" text-anchor="middle" dominant-baseline="central">DEADBE</text><rect x="90.0" y="133.0" width="4.0" height="8.0" fill="#000000"/><rect x="83.0" y="135.0" width="18.0" height="2.0" fill="#000000"/><polygon points="104.0,133.0 112.0,133.0 112.0,141.0" fill="#ff3f2f"/><rect x="112.0" y="133.0" width="8.0" height="8.0" fill="#ff3f2f"/><polygon points="120.0,133.0 120.0,141.0 128.0,141.0" fill="#ff3f2f"/><rect x="128.0" y="147.0" width="8.0" height="4.0" fill="#ffffff"/><rect x="131.0" y="144.0" width="2.0" height="10.0" fill="#ffffff"/><rect x="114.0" y="157.0" width="4.0" height="8.0" fill="#000000"/><rect x="107.0" y="161.0" width="18.0" height="2.0" fill="#000000"/><polygon points="80.0,157.0 80.0,165.0 88.0,165.0" fill="#ff3f2f"/><rect x="88.0" y="157.0" width="8.0" height="8.0" fill="#ff3f2f"/><polygon points="96.0,157.0 104.0,157.0 104.0,165.0" fill="#ff3f2f"/><polygon points="72.0,141.0 80.0,141.0 72.0,149.0" fill="#ffffff"/><polygon points="72.0,157.0 80.0,149.0 80.0,157.0" fill="#ffffff"/><rect x="144.0" y="141.0" width="48.0" height="16.0" fill="#addeef"/><text x="168.0" y="149.0" fill="#000000" style="font-family: monospace; font-size: 16.0px;" text-anchor="middle" dominant-baseline="central">EFDEAD</text><rect x="152.0" y="133.0" width="8.0" height="8.0" fill="#000000"/><rect x="178.0" y="133.0" width="4.0" height="8.0" fill="#ff3f2f"/><rect x="171.0" y="135.0" width="18.0" height="2.0" fill="#ff3f2f"/><polygon points="192.0,141.0 192.0,149.0 200.0,149.0" fill="#ffffff"/><polygon points="192.0,149.0 200.0,149.0 200.0,157.0" fill="#ffffff"/><rect x="176.0" y="157.0" width="8.0" height="8.0" fill="#ff3f2f"/><rect x="154.0" y="157.0" width="4.0" height="8.0" fill="#ffffff"/><rect x="147.0" y="161.0" width="18.0" height="2.0" fill="#ffffff"/><polygon points="136.0,141.0 144.0,141.0 144.0,149.0" fill="#ffffff"/><polygon points="136.0,149.0 136.0,157.0 144.0,157.0" fill="#ffffff"/><rect x="208.0" y="141.0" width="48.0" height="16.0" fill="#deefbe"/><text x="232.0" y="149.0" fill="#000000" style="font-family: monospace; font-size: 16.0px;" text-anchor="middle" dominant-baseline="central">BEEFDE</text><polygon points="208.0,133.0 216.0,133.0 216.0,141.0" fill="#ff3f2f"/><rect x="216.0" y="133.0" width="8.0" height="8.0" fill="#ff3f2f"/><polygon points="224.0,133.0 224.0,141.0 232.0,141.0" fill="#ff3f2f"/><rect x="242.0" y="133.0" width="4.0" height="8.0" fill="#ffffff"/><rect x="235.0" y="135.0" width="18.0" height="2.0" fill="#ffffff"/><polygon points="256.0,149.0 264.0,141.0 264.0,149.0" fill="#000000"/><polygon points="256.0,149.0 264.0,149.0 256.0,157.0" fill="#000000"/><polygon points="232.0,157.0 240.0,157.0 232.0,165.0" fill="#ff3f2f"/><polygon points="248.0,165.0 256.0,157.0 256.0,165.0" fill="#ff3f2f"/><polygon points="208.0,157.0 216.0,157.0 208.0,165.0" fill="#2f3fbf"/><polygon points="224.0,165.0 232.0,157.0 232.0,165.0" fill="#2f3fbf"/><rect x="200.0" y="145.0" width="8.0" height="8.0" fill="#000000"/><rect x="16.0" y="173.0" width="48.0" height="16.0" fill="#efbead"/><text x="40.0" y="181.0" fill="#000000" style="font-family: monospace; font-size: 16.0px;" text-anchor="middle" dominant-baseline="central">ADBEEF</text><rect x="26.0" y="165.0" width="4.0" height="8.0" fill="#2f3fbf"/><rect x="19.0" y="167.0" width="18.0" height="2.0" fill="#2f3fbf"/><polygon points="40.0,165.0 48.0,165.0 48.0,173.0" fill="#000000"/><rect x="48.0" y="165.0" width="8.0" height="8.0" fill="#000000"/><polygon points="56.0,165.0 56.0,173.0 64.0,173.0" fill="#000000"/><polygon points="64.0,181.0 72.0,173.0 72.0,181.0" fill="#ffffff"/><polygon points="64.0,181.0 72.0,181.0 64.0,189.0" fill="#ffffff"/><rect x="50.0" y="189.0" width="4.0" height="8.0" fill="#ffffff"/><rect x="43.0" y="193.0" width="18.0" height="2.0" fill="#ffffff"/><rect x="26.0" y="189.0" width="4.0" height="8.0" fill="#ff3f2f"/><rect x="19.0" y="193.0" width="18.0" height="2.0" fill="#ff3f2f"/><polygon points="8.0,173.0 16.0,173.0 8.0,181.0" fill="#2f3fbf"/><polygon points="8.0,189.0 16.0,181.0 16.0,189.0" fill="#2f3fbf"/><rect x="144.0" y="173.0" width="48.0" height="16.0" fill="#beadde"/><text x="168.0" y="181.0" fill="#ffffff" style="font-family: monospace; font-size: 16.0px;" text-anchor="middle" dominant-baseline="central">DEADBE</text><rect x="154.0" y="165.0" width="4.0" height="8.0" fill="#000000"/><rect x="147.0" y="167.0" width="18.0" height="2.0" fill="#000000"/><rect x="178.0" y="165.0" width="4.0" height="8.0" fill="#000000"/><rect x="171.0" y="167.0" width="18.0" height="2.0" fill="#000000"/><polygon points="192.0,173.0 192.0,181.0 200.0,181.0" fill="#000000"/><polygon points="192.0,181.0 200.0,181.0 200.0,189.0" fill="#000000"/><polygon points="168.0,189.0 168.0,197.0 176.0,197.0" fill="#ffffff"/><rect x="176.0" y="189.0" width="8.0" height="8.0" fill="#ffffff"/><polygon points="184.0,189.0 192.0,189.0 192.0,197.0" fill="#ffffff"/><polygon points="144.0,189.0 152.0,189.0 144.0,197.0" fill="#ffffff"/><polygon points="160.0,197.0 168.0,189.0 168.0,197.0" fill="#ffffff"/><polygon points="136.0,173.0 144.0,173.0 136.0,181.0" fill="#000000"/><polygon points="136.0,189.0 144.0,181.0 144.0,189.0" fill="#000000"/><rect x="208.0" y="173.0" width="48.0" height="16.0" fill="#efefef"/><text x="232.0" y="181.0" fill="#000000" style="font-family: monospace; font-size: 16.0px;" text-anchor="middle" dominant-baseline="central">EF</text><polygon points="208.0,173.0 216.0,165.0 216.0,173.0" fill="#ffffff"/><polygon points="224.0,165.0 232.0,165.0 224.0,173.0" fill="#ffffff"/><polygon points="232.0,173.0 240.0,165.0 240.0,173.0" fill="#000000"/><polygon points="248.0,165.0 256.0,165.0 248.0,173.0" fill="#000000"/><polygon points="256.0,181.0 264.0,173.0 264.0,181.0" fill="#ffffff"/><polygon points="256.0,181.0 264.0,181.0 256.0,189.0" fill="#ffffff"/><polygon points="232.0,189.0 240.0,189.0 232.0,197.0" fill="#000000"/><polygon points="248.0,197.0 256.0,189.0 256.0,197.0" fill="#000000"/><polygon points="208.0,189.0 216.0,189.0 208.0,197.0" fill="#2f3fbf"/><polygon points="224.0,197.0 232.0,189.0 232.0,197.0" fill="#2f3fbf"/><polygon points="200.0,173.0 208.0,173.0 200.0,181.0" fill="#000000"/><polygon points="200.0,189.0 208.0,181.0 208.0,189.0" fill="#000000"/><circle cx="138.0" cy="39.0" r="2.0" fill="#ffffff"/><circle cx="262.0" cy="39.0" r="2.0" fill="#ff3f2f"/><circle cx="134.0" cy="99.0" r="2.0" fill="#2f3fbf"/><circle cx="202.0" cy="99.0" r="2.0" fill="#000000"/><line x1="4.0" y1="0" x2="268.0" y2="0" stroke="#000000" stroke-width="1"/><line x1="268.0" y1="0" x2="268.0" y2="221.0" stroke="#000000" stroke-width="1"/><line x1="4.0" y1="221.0" x2="268.0" y2="221.0" stroke="#000000" stroke-width="1"/></svg>