<svg width="141.0" height="94.0" xmlns="http://www.w3.org/2000/svg"><rect x="0" y="0" width="141.0" height="94.0" fill="#ffffff"/><rect x="8.0" y="5.0" width="128.0" height="64.0" fill="#2f3fbf"/><rect x="80.0" y="13.0" width="48.0" height="16.0" fill="#9de675"/><text x="104.0" y="21.0" fill="#000000" style="font-family: monospace; font-size: 16.0px;" text-anchor="middle" dominant-baseline="central">dead</text><rect x="80.0" y="5.0" width="24.0" height="8.0" fill="#000000"/><polygon points="104.0,5.0 104.0,13.0 128.0,13.0" fill="#ff3f2f"/><rect x="128.0" y="13.0" width="8.0" height="16.0" fill="#ffffff"/><polygon points="104.0,29.0 128.0,29.0 128.0,37.0" fill="#ffffff"/><polygon points="80.0,29.0 104.0,29.0 104.0,37.0" fill="#ffd966"/><polygon points="72.0,29.0 80.0,13.0 80.0,29.0" fill="#ffffff"/><rect x="80.0" y="45.0" width="48.0" height="16.0" fill="#9fe76d"/><text x="104.0" y="53.0" fill="#000000" style="font-family: monospace; font-size: 16.0px;" text-anchor="middle" dominant-baseline="central">beef</text><rect x="80.0" y="37.0" width="24.0" height="8.0" fill="#ff3f2f"/><rect x="112.0" y="37.0" width="2.0" height="8.0" fill="#ff3f2f"/><rect x="118.0" y="37.0" width="2.0" height="8.0" fill="#ff3f2f"/><polygon points="128.0,45.0 136.0,45.0 128.0,61.0" fill="#000000"/><rect x="104.0" y="61.0" width="24.0" height="8.0" fill="#ffd966"/><rect x="84.0" y="67.0" width="20.0" height="2.0" fill="#ffd966"/><rect x="80.0" y="61.0" width="4.0" height="8.0" fill="#ffd966"/><rect x="72.0" y="49.0" width="8.0" height="2.0" fill="#000000"/><rect x="72.0" y="55.0" width="8.0" height="2.0" fill="#000000"/><circle cx="74.0" cy="7.0" r="2.0" fill="#ffffff"/><circle cx="134.0" cy="39.0" r="2.0" fill="#ffd966"/><line x1="4.0" y1="0" x2="140.0" y2="0" stroke="#000000" stroke-width="1"/><line x1="140.0" y1="0" x2="140.0" y2="93.0" stroke="#000000" stroke-width="1"/><line x1="4.0" y1="93.0" x2="140.0" y2="93.0" stroke="#000000" stroke-width="1"/></svg>