<svg width="147.0" height="158.0" xmlns="http://www.w3.org/2000/svg"><defs><clipPath id="grid-clip"><rect x="14.0" y="5.0" width="128.0" height="128.0"/></clipPath><linearGradient id="g0" gradientUnits="userSpaceOnUse" x1="34.0" y1="13.0" x2="34.0" y2="5.0"><stop offset="0%" stop-color="#1e9de7"/><stop offset="100%" stop-color="#000000"/></linearGradient><linearGradient id="g1" gradientUnits="userSpaceOnUse" x1="58.0" y1="13.0" x2="58.0" y2="5.0"><stop offset="0%" stop-color="#1e9de7"/><stop offset="100%" stop-color="#000000"/></linearGradient><linearGradient id="g2" gradientUnits="userSpaceOnUse" x1="70.0" y1="21.0" x2="78.0" y2="21.0"><stop offset="0%" stop-color="#1e9de7"/><stop offset="100%" stop-color="#000000"/></linearGradient><linearGradient id="g3" gradientUnits="userSpaceOnUse" x1="58.0" y1="29.0" x2="58.0" y2="37.0"><stop offset="0%" stop-color="#1e9de7"/><stop offset="100%" stop-color="#ffd966"/></linearGradient><linearGradient id="g4" gradientUnits="userSpaceOnUse" x1="34.0" y1="29.0" x2="34.0" y2="37.0"><stop offset="0%" stop-color="#1e9de7"/><stop offset="100%" stop-color="#ffffff"/></linearGradient><linearGradient id="g5" gradientUnits="userSpaceOnUse" x1="22.0" y1="21.0" x2="14.0" y2="21.0"><stop offset="0%" stop-color="#1e9de7"/><stop offset="100%" stop-color="#000000"/></linearGradient><linearGradient id="g6" gradientUnits="userSpaceOnUse" x1="98.0" y1="13.0" x2="98.0" y2="5.0"><stop offset="0%" stop-color="#348df3"/><stop offset="100%" stop-color="#ff3f2f"/></linearGradient><linearGradient id="g7" gradientUnits="userSpaceOnUse" x1="122.0" y1="13.0" x2="122.0" y2="5.0"><stop offset="0%" stop-color="#348df3"/><stop offset="100%" stop-color="#ffffff"/></linearGradient><linearGradient id="g8" gradientUnits="userSpaceOnUse" x1="134.0" y1="21.0" x2="142.0" y2="21.0"><stop offset="0%" stop-color="#348df3"/><stop offset="100%" stop-color="#ffffff"/></linearGradient><linearGradient id="g9" gradientUnits="userSpaceOnUse" x1="122.0" y1="29.0" x2="122.0" y2="37.0"><stop offset="0%" stop-color="#348df3"/><stop offset="100%" stop-color="#000000"/></linearGradient><linearGradient id="g10" gradientUnits="userSpaceOnUse" x1="98.0" y1="29.0" x2="98.0" y2="37.0"><stop offset="0%" stop-color="#348df3"/><stop offset="100%" stop-color="#ffd966"/></linearGradient><linearGradient id="g11" gradientUnits="userSpaceOnUse" x1="86.0" y1="21.0" x2="78.0" y2="21.0"><stop offset="0%" stop-color="#348df3"/><stop offset="100%" stop-color="#ffffff"/></linearGradient><linearGradient id="g12" gradientUnits="userSpaceOnUse" x1="34.0" y1="45.0" x2="34.0" y2="37.0"><stop offset="0%" stop-color="#5b6f7b"/><stop offset="100%" stop-color="#ffd966"/></linearGradient><linearGradient id="g13" gradientUnits="userSpaceOnUse" x1="58.0" y1="45.0" x2="58.0" y2="37.0"><stop offset="0%" stop-color="#5b6f7b"/><stop offset="100%" stop-color="#ffffff"/></linearGradient><linearGradient id="g14" gradientUnits="userSpaceOnUse" x1="70.0" y1="53.0" x2="78.0" y2="53.0"><stop offset="0%" stop-color="#5b6f7b"/><stop offset="100%" stop-color="#ffffff"/></linearGradient><linearGradient id="g15" gradientUnits="userSpaceOnUse" x1="58.0" y1="61.0" x2="58.0" y2="69.0"><stop offset="0%" stop-color="#5b6f7b"/><stop offset="100%" stop-color="#ffffff"/></linearGradient><linearGradient id="g16" gradientUnits="userSpaceOnUse" x1="34.0" y1="61.0" x2="34.0" y2="69.0"><stop offset="0%" stop-color="#5b6f7b"/><stop offset="100%" stop-color="#000000"/></linearGradient><linearGradient id="g17" gradientUnits="userSpaceOnUse" x1="22.0" y1="53.0" x2="14.0" y2="53.0"><stop offset="0%" stop-color="#5b6f7b"/><stop offset="100%" stop-color="#ffffff"/></linearGradient><linearGradient id="g18" gradientUnits="userSpaceOnUse" x1="98.0" y1="45.0" x2="98.0" y2="37.0"><stop offset="0%" stop-color="#7857e3"/><stop offset="100%" stop-color="#ff3f2f"/></linearGradient><linearGradient id="g19" gradientUnits="userSpaceOnUse" x1="122.0" y1="45.0" x2="122.0" y2="37.0"><stop offset="0%" stop-color="#7857e3"/><stop offset="100%" stop-color="#ffd966"/></linearGradient><linearGradient id="g20" gradientUnits="userSpaceOnUse" x1="134.0" y1="53.0" x2="142.0" y2="53.0"><stop offset="0%" stop-color="#7857e3"/><stop offset="100%" stop-color="#000000"/></linearGradient><linearGradient id="g21" gradientUnits="userSpaceOnUse" x1="122.0" y1="61.0" x2="122.0" y2="69.0"><stop offset="0%" stop-color="#7857e3"/><stop offset="100%" stop-color="#000000"/></linearGradient><linearGradient id="g22" gradientUnits="userSpaceOnUse" x1="98.0" y1="61.0" x2="98.0" y2="69.0"><stop offset="0%" stop-color="#7857e3"/><stop offset="100%" stop-color="#ffd966"/></linearGradient><linearGradient id="g23" gradientUnits="userSpaceOnUse" x1="86.0" y1="53.0" x2="78.0" y2="53.0"><stop offset="0%" stop-color="#7857e3"/><stop offset="100%" stop-color="#ffd966"/></linearGradient><linearGradient id="g24" gradientUnits="userSpaceOnUse" x1="34.0" y1="77.0" x2="34.0" y2="69.0"><stop offset="0%" stop-color="#7abd6b"/><stop offset="100%" stop-color="#ffd966"/></linearGradient><linearGradient id="g25" gradientUnits="userSpaceOnUse" x1="58.0" y1="77.0" x2="58.0" y2="69.0"><stop offset="0%" stop-color="#7abd6b"/><stop offset="100%" stop-color="#ffffff"/></linearGradient><linearGradient id="g26" gradientUnits="userSpaceOnUse" x1="70.0" y1="85.0" x2="78.0" y2="85.0"><stop offset="0%" stop-color="#7abd6b"/><stop offset="100%" stop-color="#ffffff"/></linearGradient><linearGradient id="g27" gradientUnits="userSpaceOnUse" x1="58.0" y1="93.0" x2="58.0" y2="101.0"><stop offset="0%" stop-color="#7abd6b"/><stop offset="100%" stop-color="#ffd966"/></linearGradient><linearGradient id="g28" gradientUnits="userSpaceOnUse" x1="34.0" y1="93.0" x2="34.0" y2="101.0"><stop offset="0%" stop-color="#7abd6b"/><stop offset="100%" stop-color="#ff3f2f"/></linearGradient><linearGradient id="g29" gradientUnits="userSpaceOnUse" x1="22.0" y1="85.0" x2="14.0" y2="85.0"><stop offset="0%" stop-color="#7abd6b"/><stop offset="100%" stop-color="#ffffff"/></linearGradient><linearGradient id="g30" gradientUnits="userSpaceOnUse" x1="98.0" y1="77.0" x2="98.0" y2="69.0"><stop offset="0%" stop-color="#ba8ee3"/><stop offset="100%" stop-color="#ffffff"/></linearGradient><linearGradient id="g31" gradientUnits="userSpaceOnUse" x1="122.0" y1="77.0" x2="122.0" y2="69.0"><stop offset="0%" stop-color="#ba8ee3"/><stop offset="100%" stop-color="#ffd966"/></linearGradient><linearGradient id="g32" gradientUnits="userSpaceOnUse" x1="134.0" y1="85.0" x2="142.0" y2="85.0"><stop offset="0%" stop-color="#ba8ee3"/><stop offset="100%" stop-color="#ff3f2f"/></linearGradient><linearGradient id="g33" gradientUnits="userSpaceOnUse" x1="122.0" y1="93.0" x2="122.0" y2="101.0"><stop offset="0%" stop-color="#ba8ee3"/><stop offset="100%" stop-color="#ff3f2f"/></linearGradient><linearGradient id="g34" gradientUnits="userSpaceOnUse" x1="98.0" y1="93.0" x2="98.0" y2="101.0"><stop offset="0%" stop-color="#ba8ee3"/><stop offset="100%" stop-color="#ff3f2f"/></linearGradient><linearGradient id="g35" gradientUnits="userSpaceOnUse" x1="86.0" y1="85.0" x2="78.0" y2="85.0"><stop offset="0%" stop-color="#ba8ee3"/><stop offset="100%" stop-color="#000000"/></linearGradient><linearGradient id="g36" gradientUnits="userSpaceOnUse" x1="34.0" y1="109.0" x2="34.0" y2="101.0"><stop offset="0%" stop-color="#389ee7"/><stop offset="100%" stop-color="#ffffff"/></linearGradient><linearGradient id="g37" gradientUnits="userSpaceOnUse" x1="58.0" y1="109.0" x2="58.0" y2="101.0"><stop offset="0%" stop-color="#389ee7"/><stop offset="100%" stop-color="#ff3f2f"/></linearGradient><linearGradient id="g38" gradientUnits="userSpaceOnUse" x1="70.0" y1="117.0" x2="78.0" y2="117.0"><stop offset="0%" stop-color="#389ee7"/><stop offset="100%" stop-color="#ffd966"/></linearGradient><linearGradient id="g39" gradientUnits="userSpaceOnUse" x1="58.0" y1="125.0" x2="58.0" y2="133.0"><stop offset="0%" stop-color="#389ee7"/><stop offset="100%" stop-color="#ff3f2f"/></linearGradient><linearGradient id="g40" gradientUnits="userSpaceOnUse" x1="34.0" y1="125.0" x2="34.0" y2="133.0"><stop offset="0%" stop-color="#389ee7"/><stop offset="100%" stop-color="#ffd966"/></linearGradient><linearGradient id="g41" gradientUnits="userSpaceOnUse" x1="22.0" y1="117.0" x2="14.0" y2="117.0"><stop offset="0%" stop-color="#389ee7"/><stop offset="100%" stop-color="#000000"/></linearGradient><linearGradient id="g42" gradientUnits="userSpaceOnUse" x1="98.0" y1="109.0" x2="98.0" y2="101.0"><stop offset="0%" stop-color="#344dd3"/><stop offset="100%" stop-color="#ffd966"/></linearGradient><linearGradient id="g43" gradientUnits="userSpaceOnUse" x1="122.0" y1="109.0" x2="122.0" y2="101.0"><stop offset="0%" stop-color="#344dd3"/><stop offset="100%" stop-color="#ff3f2f"/></linearGradient><linearGradient id="g44" gradientUnits="userSpaceOnUse" x1="134.0" y1="117.0" x2="142.0" y2="117.0"><stop offset="0%" stop-color="#344dd3"/><stop offset="100%" stop-color="#000000"/></linearGradient><linearGradient id="g45" gradientUnits="userSpaceOnUse" x1="122.0" y1="125.0" x2="122.0" y2="133.0"><stop offset="0%" stop-color="#344dd3"/><stop offset="100%" stop-color="#ff3f2f"/></linearGradient><linearGradient id="g46" gradientUnits="userSpaceOnUse" x1="98.0" y1="125.0" x2="98.0" y2="133.0"><stop offset="0%" stop-color="#344dd3"/><stop offset="100%" stop-color="#ffd966"/></linearGradient><linearGradient id="g47" gradientUnits="userSpaceOnUse" x1="86.0" y1="117.0" x2="78.0" y2="117.0"><stop offset="0%" stop-color="#344dd3"/><stop offset="100%" stop-color="#ffffff"/></linearGradient></defs><rect x="0" y="0" width="147.0" height="158.0" fill="#ffffff"/><rect x="14.0" y="5.0" width="128.0" height="128.0" fill="#2f3fbf"/><g><title>mound</title><rect x="30.0" y="5.0" width="2.0" height="8.0" fill="url(#g0)"/><rect x="36.0" y="5.0" width="2.0" height="8.0" fill="url(#g0)"/></g><g><title>axe</title><rect x="46.0" y="5.0" width="20.0" height="2.0" fill="url(#g1)"/><rect x="66.0" y="5.0" width="4.0" height="8.0" fill="url(#g1)"/></g><g><title>fin</title><polygon points="70.0,13.0 78.0,13.0 70.0,29.0" fill="url(#g2)"/></g><g><title>mound</title><rect x="54.0" y="29.0" width="2.0" height="8.0" fill="url(#g3)"/><rect x="60.0" y="29.0" width="2.0" height="8.0" fill="url(#g3)"/></g><g><title>axe</title><rect x="26.0" y="35.0" width="20.0" height="2.0" fill="url(#g4)"/><rect x="22.0" y="29.0" width="4.0" height="8.0" fill="url(#g4)"/></g><g><title>axe</title><rect x="20.0" y="17.0" width="2.0" height="12.0" fill="url(#g5)"/><rect x="14.0" y="13.0" width="8.0" height="4.0" fill="url(#g5)"/></g><g><title>axe</title><rect x="86.0" y="5.0" width="20.0" height="2.0" fill="url(#g6)"/><rect x="106.0" y="5.0" width="4.0" height="8.0" fill="url(#g6)"/></g><g><title>fin</title><polygon points="110.0,5.0 110.0,13.0 134.0,13.0" fill="url(#g7)"/></g><g><title>axe</title><rect x="134.0" y="13.0" width="2.0" height="12.0" fill="url(#g8)"/><rect x="134.0" y="25.0" width="8.0" height="4.0" fill="url(#g8)"/></g><g><title>keel</title><polygon points="110.0,29.0 110.0,37.0 118.0,37.0" fill="url(#g9)"/><rect x="118.0" y="29.0" width="8.0" height="8.0" fill="url(#g9)"/><polygon points="126.0,29.0 134.0,29.0 134.0,37.0" fill="url(#g9)"/></g><g><title>axe</title><rect x="90.0" y="35.0" width="20.0" height="2.0" fill="url(#g10)"/><rect x="86.0" y="29.0" width="4.0" height="8.0" fill="url(#g10)"/></g><g><title>fin</title><polygon points="78.0,29.0 86.0,13.0 86.0,29.0" fill="url(#g11)"/></g><g><title>axe</title><rect x="22.0" y="37.0" width="20.0" height="2.0" fill="url(#g12)"/><rect x="42.0" y="37.0" width="4.0" height="8.0" fill="url(#g12)"/></g><g><title>fin</title><polygon points="46.0,37.0 46.0,45.0 70.0,45.0" fill="url(#g13)"/></g><g><title>keel</title><polygon points="70.0,53.0 78.0,45.0 78.0,53.0" fill="url(#g14)"/><polygon points="70.0,53.0 78.0,53.0 70.0,61.0" fill="url(#g14)"/></g><g><title>fin</title><polygon points="46.0,61.0 70.0,61.0 70.0,69.0" fill="url(#g15)"/></g><g><title>axe</title><rect x="26.0" y="67.0" width="20.0" height="2.0" fill="url(#g16)"/><rect x="22.0" y="61.0" width="4.0" height="8.0" fill="url(#g16)"/></g><g><title>mound</title><rect x="14.0" y="49.0" width="8.0" height="2.0" fill="url(#g17)"/><rect x="14.0" y="55.0" width="8.0" height="2.0" fill="url(#g17)"/></g><g><title>fin</title><polygon points="86.0,37.0 86.0,45.0 110.0,45.0" fill="url(#g18)"/></g><g><title>keel</title><polygon points="110.0,37.0 118.0,37.0 118.0,45.0" fill="url(#g19)"/><rect x="118.0" y="37.0" width="8.0" height="8.0" fill="url(#g19)"/><polygon points="126.0,37.0 126.0,45.0 134.0,45.0" fill="url(#g19)"/></g><g><title>axe</title><rect x="134.0" y="45.0" width="2.0" height="12.0" fill="url(#g20)"/><rect x="134.0" y="57.0" width="8.0" height="4.0" fill="url(#g20)"/></g><g><title>mound</title><rect x="118.0" y="61.0" width="2.0" height="8.0" fill="url(#g21)"/><rect x="124.0" y="61.0" width="2.0" height="8.0" fill="url(#g21)"/></g><g><title>fin</title><polygon points="86.0,61.0 110.0,61.0 110.0,69.0" fill="url(#g22)"/></g><g><title>fin</title><polygon points="78.0,61.0 86.0,45.0 86.0,61.0" fill="url(#g23)"/></g><g><title>axe</title><rect x="22.0" y="69.0" width="20.0" height="2.0" fill="url(#g24)"/><rect x="42.0" y="69.0" width="4.0" height="8.0" fill="url(#g24)"/></g><g><title>fin</title><polygon points="46.0,69.0 46.0,77.0 70.0,77.0" fill="url(#g25)"/></g><g><title>fin</title><polygon points="70.0,77.0 78.0,77.0 70.0,93.0" fill="url(#g26)"/></g><g><title>axe</title><rect x="50.0" y="99.0" width="20.0" height="2.0" fill="url(#g27)"/><rect x="46.0" y="93.0" width="4.0" height="8.0" fill="url(#g27)"/></g><g><title>keel</title><polygon points="22.0,93.0 22.0,101.0 30.0,101.0" fill="url(#g28)"/><rect x="30.0" y="93.0" width="8.0" height="8.0" fill="url(#g28)"/><polygon points="38.0,93.0 46.0,93.0 46.0,101.0" fill="url(#g28)"/></g><g><title>mound</title><rect x="14.0" y="81.0" width="8.0" height="2.0" fill="url(#g29)"/><rect x="14.0" y="87.0" width="8.0" height="2.0" fill="url(#g29)"/></g><g><title>axe</title><rect x="86.0" y="69.0" width="20.0" height="2.0" fill="url(#g30)"/><rect x="106.0" y="69.0" width="4.0" height="8.0" fill="url(#g30)"/></g><g><title>fin</title><polygon points="110.0,69.0 110.0,77.0 134.0,77.0" fill="url(#g31)"/></g><g><title>fin</title><polygon points="134.0,77.0 142.0,77.0 134.0,93.0" fill="url(#g32)"/></g><g><title>mound</title><rect x="118.0" y="93.0" width="2.0" height="8.0" fill="url(#g33)"/><rect x="124.0" y="93.0" width="2.0" height="8.0" fill="url(#g33)"/></g><g><title>axe</title><rect x="90.0" y="99.0" width="20.0" height="2.0" fill="url(#g34)"/><rect x="86.0" y="93.0" width="4.0" height="8.0" fill="url(#g34)"/></g><g><title>keel</title><polygon points="78.0,77.0 86.0,77.0 78.0,85.0" fill="url(#g35)"/><polygon points="78.0,93.0 86.0,85.0 86.0,93.0" fill="url(#g35)"/></g><g><title>mound</title><rect x="30.0" y="101.0" width="2.0" height="8.0" fill="url(#g36)"/><rect x="36.0" y="101.0" width="2.0" height="8.0" fill="url(#g36)"/></g><g><title>axe</title><rect x="46.0" y="101.0" width="20.0" height="2.0" fill="url(#g37)"/><rect x="66.0" y="101.0" width="4.0" height="8.0" fill="url(#g37)"/></g><g><title>axe</title><rect x="70.0" y="109.0" width="2.0" height="12.0" fill="url(#g38)"/><rect x="70.0" y="121.0" width="8.0" height="4.0" fill="url(#g38)"/></g><g><title>fin</title><polygon points="46.0,125.0 70.0,125.0 70.0,133.0" fill="url(#g39)"/></g><g><title>fin</title><polygon points="22.0,125.0 46.0,125.0 46.0,133.0" fill="url(#g40)"/></g><g><title>axe</title><rect x="20.0" y="113.0" width="2.0" height="12.0" fill="url(#g41)"/><rect x="14.0" y="109.0" width="8.0" height="4.0" fill="url(#g41)"/></g><g><title>fin</title><polygon points="86.0,101.0 86.0,109.0 110.0,109.0" fill="url(#g42)"/></g><g><title>fin</title><polygon points="110.0,101.0 110.0,109.0 134.0,109.0" fill="url(#g43)"/></g><g><title>fin</title><polygon points="134.0,109.0 142.0,109.0 134.0,125.0" fill="url(#g44)"/></g><g><title>keel</title><polygon points="110.0,125.0 110.0,133.0 118.0,133.0" fill="url(#g45)"/><rect x="118.0" y="125.0" width="8.0" height="8.0" fill="url(#g45)"/><polygon points="126.0,125.0 134.0,125.0 134.0,133.0" fill="url(#g45)"/></g><g><title>mound</title><rect x="94.0" y="125.0" width="2.0" height="8.0" fill="url(#g46)"/><rect x="100.0" y="125.0" width="2.0" height="8.0" fill="url(#g46)"/></g><g><title>fin</title><polygon points="78.0,125.0 86.0,109.0 86.0,125.0" fill="url(#g47)"/></g><rect x="22.0" y="13.0" width="48.0" height="16.0" fill="#1e9de7"/><text x="46.0" y="21.0" fill="#ffffff" style="font-family: monospace; font-size: 16.0px;" text-anchor="middle" dominant-baseline="central">550e</text><rect x="86.0" y="13.0" width="48.0" height="16.0" fill="#348df3"/><text x="110.0" y="21.0" fill="#ffffff" style="font-family: monospace; font-size: 16.0px;" text-anchor="middle" dominant-baseline="central">8400</text><rect x="22.0" y="45.0" width="48.0" height="16.0" fill="#5b6f7b"/><text x="46.0" y="53.0" fill="#ffffff" style="font-family: monospace; font-size: 16.0px;" text-anchor="middle" dominant-baseline="central">e29b</text><rect x="86.0" y="45.0" width="48.0" height="16.0" fill="#7857e3"/><text x="110.0" y="53.0" fill="#ffffff" style="font-family: monospace; font-size: 16.0px;" text-anchor="middle" dominant-baseline="central">41d4</text><rect x="22.0" y="77.0" width="48.0" height="16.0" fill="#7abd6b"/><text x="46.0" y="85.0" fill="#ffffff" style="font-family: monospace; font-size: 16.0px;" text-anchor="middle" dominant-baseline="central">a716</text><rect x="86.0" y="77.0" width="48.0" height="16.0" fill="#ba8ee3"/><text x="110.0" y="85.0" fill="#ffffff" style="font-family: monospace; font-size: 16.0px;" text-anchor="middle" dominant-baseline="central">4466</text><rect x="22.0" y="109.0" width="48.0" height="16.0" fill="#389ee7"/><text x="46.0" y="117.0" fill="#ffffff" style="font-family: monospace; font-size: 16.0px;" text-anchor="middle" dominant-baseline="central">5544</text><rect x="86.0" y="109.0" width="48.0" height="16.0" fill="#344dd3"/><text x="110.0" y="117.0" fill="#ffffff" style="font-family: monospace; font-size: 16.0px;" text-anchor="middle" dominant-baseline="central">0000</text><circle cx="16.0" cy="103.0" r="2.0" fill="#ffffff"/><circle cx="140.0" cy="7.0" r="2.0" fill="#ffd966"/><circle cx="140.0" cy="99.0" r="2.0" fill="#ff3f2f"/><circle cx="16.0" cy="67.0" r="2.0" fill="#000000"/><rect x="1" y="1" width="8.0" height="65.41177497871597" fill="#ffffff"/><rect x="1" y="66.41177497871597" width="8.0" height="48.63144796873977" fill="#ffd966"/><rect x="1" y="115.04322294745575" width="8.0" height="24.929555327555722" fill="#000000"/><rect x="1" y="139.97277827501148" width="8.0" height="17.02722172498852" fill="#ff3f2f"/><text x="142.0" y="145.0" fill="#444444" style="font-family: monospace; font-size: 14.666666666666666px;" text-anchor="end" dominant-baseline="central">F18 A16 M08 K06</text><line x1="0" y1="0" x2="146.0" y2="0" stroke="#000000" stroke-width="1"/><line x1="146.0" y1="0" x2="146.0" y2="157.0" stroke="#000000" stroke-width="1"/><line x1="0" y1="157.0" x2="146.0" y2="157.0" stroke="#000000" stroke-width="1"/><line x1="0" y1="0" x2="0" y2="157.0" stroke="#000000" stroke-width="1"/><line x1="9.0" y1="0" x2="9.0" y2="157.0" stroke="#000000" stroke-width="1"/></svg>