<svg width="153" height="272" viewBox="0 0 153 272" xmlns="http://www.w3.org/2000/svg" font-family="&quot;JetBrains Mono&quot;, &quot;Menlo&quot;, &quot;Consolas&quot;, &quot;DejaVu Sans Mono&quot;, &quot;Liberation Mono&quot;, &quot;Roboto Mono&quot;, &quot;Noto Sans Mono&quot;, monospace" data-entviz-version="v10" data-entviz-lib="0.10.0" data-input-bytes="64" data-cols="2" data-rows="6"><defs><clipPath id="grid-clip-8ed0861e43294df7-2x6"><rect x="27" y="26" width="120" height="240"/></clipPath></defs><rect x="0" y="0" width="153" height="272" fill="#ffffff"/><g data-channel="grid"><rect x="27" y="26" width="120" height="240" fill="#2f3fbf"/><g><rect x="33" y="26" width="6" height="10" fill="#ff3f2f"/><rect x="39" y="26" width="6" height="10" fill="#ff3f2f"/><rect x="69" y="26" width="6" height="10" fill="#ff3f2f"/><rect x="81" y="56" width="6" height="10" fill="#ff3f2f"/><rect x="69" y="56" width="6" height="10" fill="#ff3f2f"/><rect x="63" y="56" width="6" height="10" fill="#ff3f2f"/><rect x="51" y="56" width="6" height="10" fill="#ff3f2f"/><rect x="45" y="56" width="6" height="10" fill="#ff3f2f"/><rect x="39" y="56" width="6" height="10" fill="#ff3f2f"/><rect x="27" y="36" width="6" height="10" fill="#ff3f2f"/><rect x="87" y="26" width="6" height="10" fill="#ffffff"/><rect x="105" y="26" width="6" height="10" fill="#ffffff"/><rect x="117" y="26" width="6" height="10" fill="#ffffff"/><rect x="135" y="26" width="6" height="10" fill="#ffffff"/><rect x="141" y="26" width="6" height="10" fill="#ffffff"/><rect x="129" y="56" width="6" height="10" fill="#ffffff"/><rect x="111" y="56" width="6" height="10" fill="#ffffff"/><rect x="105" y="56" width="6" height="10" fill="#ffffff"/><rect x="99" y="56" width="6" height="10" fill="#ffffff"/><rect x="93" y="56" width="6" height="10" fill="#ffffff"/><rect x="27" y="66" width="6" height="10" fill="#ffffff"/><rect x="57" y="66" width="6" height="10" fill="#ffffff"/><rect x="63" y="66" width="6" height="10" fill="#ffffff"/><rect x="75" y="66" width="6" height="10" fill="#ffffff"/><rect x="81" y="66" width="6" height="10" fill="#ffffff"/><rect x="81" y="76" width="6" height="10" fill="#ffffff"/><rect x="81" y="96" width="6" height="10" fill="#ffffff"/><rect x="75" y="96" width="6" height="10" fill="#ffffff"/><rect x="69" y="96" width="6" height="10" fill="#ffffff"/><rect x="63" y="96" width="6" height="10" fill="#ffffff"/><rect x="57" y="96" width="6" height="10" fill="#ffffff"/><rect x="45" y="96" width="6" height="10" fill="#ffffff"/><rect x="39" y="96" width="6" height="10" fill="#ffffff"/><rect x="27" y="86" width="6" height="10" fill="#ffffff"/><rect x="87" y="66" width="6" height="10" fill="#ff3f2f"/><rect x="93" y="66" width="6" height="10" fill="#ff3f2f"/><rect x="99" y="66" width="6" height="10" fill="#ff3f2f"/><rect x="117" y="66" width="6" height="10" fill="#ff3f2f"/><rect x="141" y="86" width="6" height="10" fill="#ff3f2f"/><rect x="123" y="96" width="6" height="10" fill="#ff3f2f"/><rect x="117" y="96" width="6" height="10" fill="#ff3f2f"/><rect x="105" y="96" width="6" height="10" fill="#ff3f2f"/><rect x="93" y="96" width="6" height="10" fill="#ff3f2f"/><rect x="87" y="96" width="6" height="10" fill="#ff3f2f"/><rect x="87" y="86" width="6" height="10" fill="#ff3f2f"/><rect x="27" y="106" width="6" height="10" fill="#e7be00"/><rect x="45" y="106" width="6" height="10" fill="#e7be00"/><rect x="57" y="106" width="6" height="10" fill="#e7be00"/><rect x="63" y="106" width="6" height="10" fill="#e7be00"/><rect x="69" y="106" width="6" height="10" fill="#e7be00"/><rect x="75" y="106" width="6" height="10" fill="#e7be00"/><rect x="81" y="126" width="6" height="10" fill="#e7be00"/><rect x="75" y="136" width="6" height="10" fill="#e7be00"/><rect x="63" y="136" width="6" height="10" fill="#e7be00"/><rect x="39" y="136" width="6" height="10" fill="#e7be00"/><rect x="33" y="136" width="6" height="10" fill="#e7be00"/><rect x="27" y="126" width="6" height="10" fill="#e7be00"/><rect x="27" y="116" width="6" height="10" fill="#e7be00"/><rect x="99" y="106" width="6" height="10" fill="#ff3f2f"/><rect x="117" y="106" width="6" height="10" fill="#ff3f2f"/><rect x="123" y="106" width="6" height="10" fill="#ff3f2f"/><rect x="141" y="106" width="6" height="10" fill="#ff3f2f"/><rect x="141" y="116" width="6" height="10" fill="#ff3f2f"/><rect x="123" y="136" width="6" height="10" fill="#ff3f2f"/><rect x="111" y="136" width="6" height="10" fill="#ff3f2f"/><rect x="99" y="136" width="6" height="10" fill="#ff3f2f"/><rect x="87" y="126" width="6" height="10" fill="#ff3f2f"/><rect x="87" y="116" width="6" height="10" fill="#ff3f2f"/><rect x="69" y="146" width="6" height="10" fill="#ffffff"/><rect x="75" y="146" width="6" height="10" fill="#ffffff"/><rect x="81" y="156" width="6" height="10" fill="#ffffff"/><rect x="81" y="176" width="6" height="10" fill="#ffffff"/><rect x="75" y="176" width="6" height="10" fill="#ffffff"/><rect x="69" y="176" width="6" height="10" fill="#ffffff"/><rect x="63" y="176" width="6" height="10" fill="#ffffff"/><rect x="57" y="176" width="6" height="10" fill="#ffffff"/><rect x="45" y="176" width="6" height="10" fill="#ffffff"/><rect x="39" y="176" width="6" height="10" fill="#ffffff"/><rect x="27" y="176" width="6" height="10" fill="#ffffff"/><rect x="117" y="146" width="6" height="10" fill="#000000"/><rect x="141" y="156" width="6" height="10" fill="#000000"/><rect x="129" y="176" width="6" height="10" fill="#000000"/><rect x="123" y="176" width="6" height="10" fill="#000000"/><rect x="117" y="176" width="6" height="10" fill="#000000"/><rect x="105" y="176" width="6" height="10" fill="#000000"/><rect x="93" y="176" width="6" height="10" fill="#000000"/><rect x="87" y="176" width="6" height="10" fill="#000000"/><rect x="87" y="166" width="6" height="10" fill="#000000"/><rect x="87" y="156" width="6" height="10" fill="#000000"/><rect x="87" y="186" width="6" height="10" fill="#000000"/><rect x="93" y="186" width="6" height="10" fill="#000000"/><rect x="105" y="186" width="6" height="10" fill="#000000"/><rect x="111" y="186" width="6" height="10" fill="#000000"/><rect x="117" y="186" width="6" height="10" fill="#000000"/><rect x="123" y="186" width="6" height="10" fill="#000000"/><rect x="129" y="186" width="6" height="10" fill="#000000"/><rect x="141" y="186" width="6" height="10" fill="#000000"/><rect x="141" y="196" width="6" height="10" fill="#000000"/><rect x="141" y="206" width="6" height="10" fill="#000000"/><rect x="117" y="216" width="6" height="10" fill="#000000"/><rect x="105" y="216" width="6" height="10" fill="#000000"/><rect x="99" y="216" width="6" height="10" fill="#000000"/><rect x="93" y="216" width="6" height="10" fill="#000000"/><rect x="87" y="206" width="6" height="10" fill="#000000"/><rect x="33" y="226" width="6" height="10" fill="#ff3f2f"/><rect x="39" y="226" width="6" height="10" fill="#ff3f2f"/><rect x="45" y="226" width="6" height="10" fill="#ff3f2f"/><rect x="51" y="226" width="6" height="10" fill="#ff3f2f"/><rect x="57" y="226" width="6" height="10" fill="#ff3f2f"/><rect x="63" y="226" width="6" height="10" fill="#ff3f2f"/><rect x="75" y="226" width="6" height="10" fill="#ff3f2f"/><rect x="81" y="226" width="6" height="10" fill="#ff3f2f"/><rect x="81" y="236" width="6" height="10" fill="#ff3f2f"/><rect x="81" y="246" width="6" height="10" fill="#ff3f2f"/><rect x="51" y="256" width="6" height="10" fill="#ff3f2f"/><rect x="33" y="256" width="6" height="10" fill="#ff3f2f"/><rect x="27" y="236" width="6" height="10" fill="#ff3f2f"/><rect x="87" y="226" width="6" height="10" fill="#000000"/><rect x="93" y="226" width="6" height="10" fill="#000000"/><rect x="141" y="236" width="6" height="10" fill="#000000"/><rect x="141" y="256" width="6" height="10" fill="#000000"/><rect x="129" y="256" width="6" height="10" fill="#000000"/><rect x="117" y="256" width="6" height="10" fill="#000000"/><rect x="87" y="256" width="6" height="10" fill="#000000"/><rect x="87" y="236" width="6" height="10" fill="#000000"/></g><g clip-path="url(#grid-clip-8ed0861e43294df7-2x6)" data-channel="ellipse" data-ellipse-anchor-x="147" data-ellipse-anchor-y="186" data-ellipse-rx="92" data-ellipse-ry="44" data-ellipse-rotation-deg="108"><ellipse cx="147" cy="186" rx="92" ry="44" transform="rotate(108 147 186)" fill="#ffffff" stroke="#ffffff" fill-opacity="0.35" stroke-opacity="0.45" stroke-width="2"/></g><g><g data-channel="cell" data-cell-index="0" data-cell-row="0" data-cell-col="0"><rect x="33" y="36" width="48" height="20" fill="#beadde"/><text x="57" y="46" fill="#000000" font-size="12" text-anchor="middle" dominant-baseline="central">deadbe</text></g><g data-channel="cell" data-cell-index="1" data-cell-row="0" data-cell-col="1" data-cell-quartile="4"><rect x="93" y="36" width="48" height="20" fill="#fecaef"/><text x="117" y="46" fill="#000000" font-size="12" text-anchor="middle" dominant-baseline="central">efcafe</text><polygon points="93,56 93,46 103,56" fill="#000000"/></g><g data-channel="cell" data-cell-index="2" data-cell-row="1" data-cell-col="0" data-cell-quartile="3"><rect x="33" y="76" width="48" height="20" fill="#12beba"/><text x="57" y="86" fill="#000000" font-size="12" text-anchor="middle" dominant-baseline="central">babe12</text><polygon points="81,96 81,86 71,96" fill="#000000"/></g><g data-channel="cell" data-cell-index="3" data-cell-row="1" data-cell-col="1"><rect x="93" y="76" width="48" height="20" fill="#785634"/><text x="117" y="86" fill="#ffffff" font-size="12" text-anchor="middle" dominant-baseline="central">345678</text></g><g data-channel="cell" data-cell-index="4" data-cell-row="2" data-cell-col="0"><rect x="33" y="116" width="48" height="20" fill="#cdab90"/><text x="57" y="126" fill="#000000" font-size="12" text-anchor="middle" dominant-baseline="central">90abcd</text></g><g data-channel="cell" data-cell-index="5" data-cell-row="2" data-cell-col="1"><rect x="93" y="116" width="48" height="20" fill="#ed0fef"/><text x="117" y="126" fill="#000000" font-size="12" text-anchor="middle" dominant-baseline="central">ef0fed</text></g><g data-channel="cell" data-cell-index="6" data-cell-row="3" data-cell-col="0"><rect x="33" y="156" width="48" height="20" fill="#87a9cb"/><text x="57" y="166" fill="#000000" font-size="12" text-anchor="middle" dominant-baseline="central">cba987</text></g><g data-channel="cell" data-cell-index="7" data-cell-row="3" data-cell-col="1"><rect x="93" y="156" width="48" height="20" fill="#214365"/><text x="117" y="166" fill="#ffffff" font-size="12" text-anchor="middle" dominant-baseline="central">654321</text></g><g data-channel="cell" data-cell-index="8" data-cell-row="4" data-cell-col="0" data-cell-blank="true" data-cell-blank-map="true"><rect x="33" y="196" width="48" height="20" rx="10" ry="10" fill="#000000" stroke="#000000" stroke-width="1"/><circle cx="69" cy="197.667" r="3.5" fill="#ffffff" data-blank-map-min="0,1"/><path d="M 64.8,207.667 H 73.2 M 69,203.467 V 211.867" fill="none" stroke="#ffffff" stroke-width="1.925" stroke-linecap="butt" data-blank-map-max="3,1"/></g><g data-channel="cell" data-cell-index="9" data-cell-row="4" data-cell-col="1"><rect x="93" y="196" width="48" height="20" fill="#452301"/><text x="117" y="206" fill="#ffffff" font-size="12" text-anchor="middle" dominant-baseline="central">012345</text></g><g data-channel="cell" data-cell-index="10" data-cell-row="5" data-cell-col="0" data-cell-quartile="1"><rect x="33" y="236" width="48" height="20" fill="#ab8967"/><text x="57" y="246" fill="#000000" font-size="12" text-anchor="middle" dominant-baseline="central">6789ab</text><polygon points="33,236 43,236 33,246" fill="#000000"/></g><g data-channel="cell" data-cell-index="11" data-cell-row="5" data-cell-col="1" data-cell-quartile="2"><rect x="93" y="236" width="48" height="20" fill="#efefcd"/><text x="117" y="246" fill="#000000" font-size="12" text-anchor="middle" dominant-baseline="central">cdef</text><polygon points="141,236 131,236 141,246" fill="#000000"/></g></g></g><g data-channel="color-bar" data-bar-slots="16" data-bar-marker-left="10" data-bar-marker-right="7"><g data-color-bar-rank="0" data-color-bar-band="R"><rect x="1" y="1" width="20" height="87.499" fill="#ff3f2f"/><text x="11" y="85.859" fill="#000000" font-size="12" text-anchor="middle" data-color-bar-letter="true">r</text></g><g data-color-bar-rank="1" data-color-bar-band="K"><rect x="1" y="88.499" width="20" height="37.963" fill="#000000"/><text x="11" y="123.822" fill="#ffffff" font-size="12" text-anchor="middle" data-color-bar-letter="true">k</text></g><g data-color-bar-rank="2" data-color-bar-band="W"><rect x="1" y="126.462" width="20" height="87.499" fill="#ffffff"/><text x="11" y="211.321" fill="#000000" font-size="12" text-anchor="middle" data-color-bar-letter="true">w</text></g><g data-color-bar-rank="3" data-color-bar-band="G"><rect x="1" y="213.961" width="20" height="57.039" fill="#e7be00"/><text x="11" y="268.36" fill="#000000" font-size="12" text-anchor="middle" data-color-bar-letter="true">g</text></g><circle cx="5.6" cy="178.188" r="3.4" fill="#ffffff" stroke="#000000" stroke-width="0.75" data-bar-marker="left"/><circle cx="16.4" cy="127.562" r="3.4" fill="#ffffff" stroke="#000000" stroke-width="0.75" data-bar-marker="right"/></g><g data-channel="label-top"><text x="27" y="16" fill="#666666" font-size="12" dominant-baseline="central">hex(64):</text></g><line x1="0" y1="0.5" x2="153" y2="0.5" stroke="#808080" stroke-width="1" shape-rendering="crispEdges"/><line x1="152.5" y1="0" x2="152.5" y2="272" stroke="#808080" stroke-width="1" shape-rendering="crispEdges"/><line x1="0" y1="271.5" x2="153" y2="271.5" stroke="#808080" stroke-width="1" shape-rendering="crispEdges"/><line x1="0.5" y1="0" x2="0.5" y2="272" stroke="#808080" stroke-width="1" shape-rendering="crispEdges"/><line x1="21.5" y1="0" x2="21.5" y2="272" stroke="#808080" stroke-width="1" shape-rendering="crispEdges"/></svg>