<svg width="275" height="274" viewBox="0 0 275 274" xmlns="http://www.w3.org/2000/svg" font-family="&quot;JetBrains Mono&quot;, &quot;Menlo&quot;, &quot;Consolas&quot;, &quot;DejaVu Sans Mono&quot;, &quot;Liberation Mono&quot;, &quot;Roboto Mono&quot;, &quot;Noto Sans Mono&quot;, monospace" data-entviz-version="v15" data-entviz-lib="0.15.1" data-input-bytes="156" data-cols="4" data-rows="6" data-truncated="true" data-encoding="base64url" data-scheme="cesr" data-role="signature" data-size-basis="decoded" data-entropy-type="cesr" data-size-bits="936" data-qualifiers="{&quot;algorithm&quot;:&quot;Ed448 idx sig&quot;}" data-parts="[{&quot;text&quot;:&quot;0ACCAQIDBAUGBwgJCgsMDQ4PEBESExQVFhcYGRobHB0eHyAhIiMkJSYnKCkqKywtLi8wMTIzNDU2Nzg5AQIDBAUGBwgJCgsMDQ4PEBESExQVFhcYGRobHB0eHyAhIiMkJSYnKCkqKywtLi8wMTIzNDU2Nzg5&quot;,&quot;bind&quot;:&quot;core&quot;}]"><defs><clipPath id="grid-clip-0d746ade01f94667-4x6"><rect x="28" y="27" width="240" height="240"/></clipPath></defs><rect x="1" y="1" width="273" height="272" fill="#ffffff"/><g data-channel="grid"><rect x="28" y="27" width="240" height="240" fill="#2f3fbf"/><g><path fill="#ff3f2f" d="M34 27h6v10h-6zM46 27h6v10h-6zM58 27h6v10h-6zM64 27h6v10h-6zM82 37h6v10h-6zM82 57h6v10h-6zM76 57h6v10h-6zM70 57h6v10h-6zM58 57h6v10h-6zM46 57h6v10h-6zM40 57h6v10h-6z"/><path fill="#000000" d="M88 27h6v10h-6zM106 27h6v10h-6zM112 27h6v10h-6zM118 27h6v10h-6zM124 27h6v10h-6zM130 27h6v10h-6zM136 27h6v10h-6zM112 57h6v10h-6zM106 57h6v10h-6zM100 57h6v10h-6zM94 57h6v10h-6zM88 47h6v10h-6zM88 37h6v10h-6z"/><path fill="#000000" d="M160 27h6v10h-6zM172 27h6v10h-6zM190 27h6v10h-6zM196 27h6v10h-6zM202 27h6v10h-6zM202 37h6v10h-6zM196 57h6v10h-6zM190 57h6v10h-6zM172 57h6v10h-6zM166 57h6v10h-6zM148 47h6v10h-6z"/><path fill="#000000" d="M28 67h6v10h-6zM34 67h6v10h-6zM40 67h6v10h-6zM82 77h6v10h-6zM82 87h6v10h-6zM82 97h6v10h-6zM70 97h6v10h-6zM64 97h6v10h-6zM58 97h6v10h-6zM46 97h6v10h-6zM40 97h6v10h-6zM28 87h6v10h-6z"/><path fill="#000000" d="M112 67h6v10h-6zM124 67h6v10h-6zM130 67h6v10h-6zM136 67h6v10h-6zM142 67h6v10h-6zM142 77h6v10h-6zM118 97h6v10h-6zM112 97h6v10h-6zM106 97h6v10h-6zM94 97h6v10h-6zM88 97h6v10h-6zM88 87h6v10h-6zM88 77h6v10h-6z"/><path fill="#000000" d="M178 67h6v10h-6zM190 67h6v10h-6zM196 67h6v10h-6zM202 67h6v10h-6zM202 87h6v10h-6zM196 97h6v10h-6zM184 97h6v10h-6zM166 97h6v10h-6zM154 97h6v10h-6zM148 97h6v10h-6z"/><path fill="#000000" d="M214 67h6v10h-6zM226 67h6v10h-6zM244 67h6v10h-6zM262 77h6v10h-6zM262 87h6v10h-6zM250 97h6v10h-6zM232 97h6v10h-6zM214 97h6v10h-6zM208 77h6v10h-6z"/><path fill="#000000" d="M40 107h6v10h-6zM58 107h6v10h-6zM82 107h6v10h-6zM82 117h6v10h-6zM82 127h6v10h-6zM76 137h6v10h-6zM70 137h6v10h-6zM52 137h6v10h-6zM46 137h6v10h-6zM40 137h6v10h-6zM34 137h6v10h-6zM28 137h6v10h-6zM28 127h6v10h-6zM28 117h6v10h-6z"/><path fill="#000000" d="M100 107h6v10h-6zM106 107h6v10h-6zM124 107h6v10h-6zM136 107h6v10h-6zM142 127h6v10h-6zM118 137h6v10h-6zM100 137h6v10h-6zM94 137h6v10h-6zM88 117h6v10h-6z"/><path fill="#000000" d="M148 107h6v10h-6zM166 107h6v10h-6zM172 107h6v10h-6zM178 107h6v10h-6zM184 107h6v10h-6zM190 107h6v10h-6zM202 107h6v10h-6zM202 117h6v10h-6zM202 127h6v10h-6zM172 137h6v10h-6zM166 137h6v10h-6zM154 137h6v10h-6zM148 137h6v10h-6zM148 127h6v10h-6z"/><path fill="#ff3f2f" d="M214 107h6v10h-6zM220 107h6v10h-6zM226 107h6v10h-6zM232 107h6v10h-6zM238 107h6v10h-6zM244 107h6v10h-6zM250 107h6v10h-6zM256 107h6v10h-6zM262 107h6v10h-6zM262 117h6v10h-6zM262 127h6v10h-6zM256 137h6v10h-6zM238 137h6v10h-6zM232 137h6v10h-6zM226 137h6v10h-6zM208 117h6v10h-6z"/><path fill="#000000" d="M40 147h6v10h-6zM46 147h6v10h-6zM52 147h6v10h-6zM58 147h6v10h-6zM64 147h6v10h-6zM82 147h6v10h-6zM82 167h6v10h-6zM70 177h6v10h-6zM64 177h6v10h-6zM58 177h6v10h-6zM52 177h6v10h-6zM40 177h6v10h-6zM34 177h6v10h-6zM28 177h6v10h-6zM28 167h6v10h-6z"/><path fill="#000000" d="M148 147h6v10h-6zM160 147h6v10h-6zM166 147h6v10h-6zM178 147h6v10h-6zM196 147h6v10h-6zM202 157h6v10h-6zM202 177h6v10h-6zM190 177h6v10h-6zM178 177h6v10h-6zM172 177h6v10h-6zM160 177h6v10h-6zM154 177h6v10h-6zM148 177h6v10h-6zM148 167h6v10h-6zM148 157h6v10h-6z"/><path fill="#000000" d="M208 147h6v10h-6zM220 147h6v10h-6zM226 147h6v10h-6zM232 147h6v10h-6zM238 147h6v10h-6zM250 147h6v10h-6zM262 147h6v10h-6zM262 157h6v10h-6zM262 167h6v10h-6zM262 177h6v10h-6zM256 177h6v10h-6zM250 177h6v10h-6zM244 177h6v10h-6zM238 177h6v10h-6zM232 177h6v10h-6zM226 177h6v10h-6zM214 177h6v10h-6zM208 167h6v10h-6zM208 157h6v10h-6z"/><path fill="#000000" d="M100 187h6v10h-6zM118 187h6v10h-6zM142 187h6v10h-6zM142 197h6v10h-6zM142 207h6v10h-6zM136 217h6v10h-6zM112 217h6v10h-6zM106 217h6v10h-6zM100 217h6v10h-6zM88 207h6v10h-6zM88 197h6v10h-6z"/><path fill="#000000" d="M148 187h6v10h-6zM172 187h6v10h-6zM184 187h6v10h-6zM190 187h6v10h-6zM202 207h6v10h-6zM196 217h6v10h-6zM190 217h6v10h-6zM184 217h6v10h-6zM172 217h6v10h-6zM166 217h6v10h-6zM148 217h6v10h-6zM148 207h6v10h-6z"/><path fill="#000000" d="M238 187h6v10h-6zM256 187h6v10h-6zM262 197h6v10h-6zM262 207h6v10h-6zM256 217h6v10h-6zM244 217h6v10h-6zM232 217h6v10h-6zM220 217h6v10h-6zM214 217h6v10h-6zM208 197h6v10h-6z"/><path fill="#000000" d="M40 227h6v10h-6zM46 227h6v10h-6zM58 227h6v10h-6zM82 237h6v10h-6zM82 247h6v10h-6zM58 257h6v10h-6zM52 257h6v10h-6zM34 257h6v10h-6zM28 257h6v10h-6z"/><path fill="#000000" d="M106 227h6v10h-6zM124 227h6v10h-6zM136 227h6v10h-6zM142 227h6v10h-6zM142 237h6v10h-6zM142 247h6v10h-6zM130 257h6v10h-6zM124 257h6v10h-6zM112 257h6v10h-6zM106 257h6v10h-6zM100 257h6v10h-6z"/><path fill="#000000" d="M148 227h6v10h-6zM154 227h6v10h-6zM160 227h6v10h-6zM172 227h6v10h-6zM190 227h6v10h-6zM202 237h6v10h-6zM202 247h6v10h-6zM202 257h6v10h-6zM190 257h6v10h-6zM184 257h6v10h-6zM172 257h6v10h-6zM166 257h6v10h-6zM154 257h6v10h-6zM148 237h6v10h-6z"/></g><g clip-path="url(#grid-clip-0d746ade01f94667-4x6)" data-channel="ellipse" data-ellipse-anchor-x="88" data-ellipse-anchor-y="147" data-ellipse-rx="63.169" data-ellipse-ry="109.897" data-ellipse-rotation-deg="24"><ellipse cx="88" cy="147" rx="63.169" ry="109.897" transform="rotate(24 88 147)" fill="#ffffff" stroke="#ffffff" fill-opacity="0.35" stroke-opacity="0.45" stroke-width="2"/></g><g><g data-channel="cell" data-cell-index="0" data-cell-row="0" data-cell-col="0" data-surround-bits="0xd746a" data-edge-color="#ff3f2f"><rect x="34" y="37" width="48" height="20" fill="#8200d0"/><text x="58" y="47" fill="#ffffff" font-size="16" text-anchor="middle" dominant-baseline="central">0ACC</text></g><g data-channel="cell" data-cell-index="1" data-cell-row="0" data-cell-col="1" data-surround-bits="0xde01f9" data-edge-color="#000000"><rect x="94" y="37" width="48" height="20" fill="#030201"/><text x="118" y="47" fill="#ffffff" font-size="16" text-anchor="middle" dominant-baseline="central">AQID</text></g><g data-channel="cell" data-cell-index="2" data-cell-row="0" data-cell-col="2" data-surround-bits="0x466794" data-edge-color="#000000"><rect x="154" y="37" width="48" height="20" fill="#060504"/><text x="178" y="47" fill="#ffffff" font-size="16" text-anchor="middle" dominant-baseline="central">BAUG</text></g><g data-channel="cell" data-cell-index="3" data-cell-row="0" data-cell-col="3" data-cell-blank="true" data-cell-blank-map="true"><rect x="214" y="37" width="48" height="20" rx="10" ry="10" fill="#ffffff" stroke="#000000" stroke-width="1"/><circle cx="220" cy="38.667" r="3.5" fill="#1d4ed8" data-blank-map-min="0,0"/><path d="M 215.8,45.333 H 224.2 M 220,41.133 V 49.533" fill="none" stroke="#d62828" stroke-width="1.925" stroke-linecap="butt" data-blank-map-max="2,0"/></g><g data-channel="cell" data-cell-index="4" data-cell-row="1" data-cell-col="0" data-surround-bits="0x4ddc07" data-edge-color="#000000" data-cell-quartile="2"><rect x="34" y="77" width="48" height="20" fill="#090807"/><text x="58" y="87" fill="#ffffff" font-size="16" text-anchor="middle" dominant-baseline="central">BwgJ</text><polygon points="82,77 72,77 82,87" fill="#ffffff"/></g><g data-channel="cell" data-cell-index="5" data-cell-row="1" data-cell-col="1" data-surround-bits="0xf707d0" data-edge-color="#000000"><rect x="94" y="77" width="48" height="20" fill="#0c0b0a"/><text x="118" y="87" fill="#ffffff" font-size="16" text-anchor="middle" dominant-baseline="central">CgsM</text></g><g data-channel="cell" data-cell-index="6" data-cell-row="1" data-cell-col="2" data-surround-bits="0x34aba0" data-edge-color="#000000"><rect x="154" y="77" width="48" height="20" fill="#0f0e0d"/><text x="178" y="87" fill="#ffffff" font-size="16" text-anchor="middle" dominant-baseline="central">DQ4P</text></g><g data-channel="cell" data-cell-index="7" data-cell-row="1" data-cell-col="3" data-surround-bits="0x924c4a" data-edge-color="#000000"><rect x="214" y="77" width="48" height="20" fill="#121110"/><text x="238" y="87" fill="#ffffff" font-size="16" text-anchor="middle" dominant-baseline="central">EBES</text></g><g data-channel="cell" data-cell-index="8" data-cell-row="2" data-cell-col="0" data-surround-bits="0xfe6e24" data-edge-color="#000000"><rect x="34" y="117" width="48" height="20" fill="#151413"/><text x="58" y="127" fill="#ffffff" font-size="16" text-anchor="middle" dominant-baseline="central">ExQV</text></g><g data-channel="cell" data-cell-index="9" data-cell-row="2" data-cell-col="1" data-cell-fingerprint="true" data-surround-bits="0x99094c" data-edge-color="#000000"><rect x="94" y="117" width="48" height="20" fill="#2f3fbf"/><rect x="94.5" y="117.5" width="47" height="19" fill="none" stroke="#ffffff" stroke-width="1"/><text x="118" y="127" fill="#ffffff" font-size="13.333" text-anchor="middle" dominant-baseline="central">5y4x3</text></g><g data-channel="cell" data-cell-index="10" data-cell-row="2" data-cell-col="2" data-cell-fingerprint="true" data-surround-bits="0x760ef9" data-edge-color="#000000"><rect x="154" y="117" width="48" height="20" fill="#2f3fbf"/><rect x="154.5" y="117.5" width="47" height="19" fill="none" stroke="#ffffff" stroke-width="1"/><text x="178" y="127" fill="#ffffff" font-size="13.333" text-anchor="middle" dominant-baseline="central">6wjnd</text></g><g data-channel="cell" data-cell-index="11" data-cell-row="2" data-cell-col="3" data-cell-fingerprint="true" data-surround-bits="0x872ffe" data-edge-color="#ff3f2f" data-cell-quartile="1"><rect x="214" y="117" width="48" height="20" fill="#2f3fbf"/><rect x="214.5" y="117.5" width="47" height="19" fill="none" stroke="#ffffff" stroke-width="1"/><text x="238" y="127" fill="#ffffff" font-size="13.333" text-anchor="middle" dominant-baseline="central">29ba2</text><polygon points="214,117 224,117 214,127" fill="#000000"/></g><g data-channel="cell" data-cell-index="12" data-cell-row="3" data-cell-col="0" data-cell-fingerprint="true" data-surround-bits="0x7bca7c" data-edge-color="#000000"><rect x="34" y="157" width="48" height="20" fill="#2f3fbf"/><rect x="34.5" y="157.5" width="47" height="19" fill="none" stroke="#ffffff" stroke-width="1"/><text x="58" y="167" fill="#ffffff" font-size="13.333" text-anchor="middle" dominant-baseline="central">cr19r</text></g><g data-channel="cell" data-cell-index="13" data-cell-row="3" data-cell-col="1" data-cell-blank="true"><rect x="94" y="157" width="48" height="20" rx="10" ry="10" fill="#ff3f2f" stroke="#000000" stroke-width="1"/></g><g data-channel="cell" data-cell-index="14" data-cell-row="3" data-cell-col="2" data-surround-bits="0xfb552d" data-edge-color="#000000"><rect x="154" y="157" width="48" height="20" fill="#242322"/><text x="178" y="167" fill="#ffffff" font-size="16" text-anchor="middle" dominant-baseline="central">IiMk</text></g><g data-channel="cell" data-cell-index="15" data-cell-row="3" data-cell-col="3" data-surround-bits="0xd7febd" data-edge-color="#000000"><rect x="214" y="157" width="48" height="20" fill="#272625"/><text x="238" y="167" fill="#ffffff" font-size="16" text-anchor="middle" dominant-baseline="central">JSYn</text></g><g data-channel="cell" data-cell-index="16" data-cell-row="4" data-cell-col="0" data-cell-blank="true"><rect x="34" y="197" width="48" height="20" rx="10" ry="10" fill="#000000" stroke="#000000" stroke-width="1"/></g><g data-channel="cell" data-cell-index="17" data-cell-row="4" data-cell-col="1" data-surround-bits="0xce2e24" data-edge-color="#000000" data-cell-quartile="4"><rect x="94" y="197" width="48" height="20" fill="#2a2928"/><text x="118" y="207" fill="#ffffff" font-size="16" text-anchor="middle" dominant-baseline="central">KCkq</text><polygon points="94,217 94,207 104,217" fill="#ffffff"/></g><g data-channel="cell" data-cell-index="18" data-cell-row="4" data-cell-col="2" data-surround-bits="0x66e8d1" data-edge-color="#000000" data-cell-quartile="3"><rect x="154" y="197" width="48" height="20" fill="#2d2c2b"/><text x="178" y="207" fill="#ffffff" font-size="16" text-anchor="middle" dominant-baseline="central">Kywt</text><polygon points="202,217 202,207 192,217" fill="#ffffff"/></g><g data-channel="cell" data-cell-index="19" data-cell-row="4" data-cell-col="3" data-surround-bits="0x9aad20" data-edge-color="#000000"><rect x="214" y="197" width="48" height="20" fill="#302f2e"/><text x="238" y="207" fill="#ffffff" font-size="16" text-anchor="middle" dominant-baseline="central">Li8w</text></g><g data-channel="cell" data-cell-index="20" data-cell-row="5" data-cell-col="0" data-surround-bits="0x330c2c" data-edge-color="#000000"><rect x="34" y="237" width="48" height="20" fill="#333231"/><text x="58" y="247" fill="#ffffff" font-size="16" text-anchor="middle" dominant-baseline="central">MTIz</text></g><g data-channel="cell" data-cell-index="21" data-cell-row="5" data-cell-col="1" data-surround-bits="0xecf48" data-edge-color="#000000"><rect x="94" y="237" width="48" height="20" fill="#363534"/><text x="118" y="247" fill="#ffffff" font-size="16" text-anchor="middle" dominant-baseline="central">NDU2</text></g><g data-channel="cell" data-cell-index="22" data-cell-row="5" data-cell-col="2" data-surround-bits="0x96dc97" data-edge-color="#000000"><rect x="154" y="237" width="48" height="20" fill="#393837"/><text x="178" y="247" fill="#ffffff" font-size="16" text-anchor="middle" dominant-baseline="central">Nzg5</text></g><g data-channel="cell" data-cell-index="23" data-cell-row="5" data-cell-col="3" data-cell-blank="true"><rect x="214" y="237" width="48" height="20" rx="10" ry="10" fill="#ff3f2f" stroke="#000000" stroke-width="1"/></g></g></g><g data-channel="color-bar" data-bar-slots="16" data-bar-marker-left="2" data-bar-marker-right="10"><g data-color-bar-rank="0" data-color-bar-band="G"><rect x="2" y="2" width="20" height="50.374" fill="#e7be00"/><text x="12" y="48.854" fill="#000000" font-size="16" text-anchor="middle" data-color-bar-letter="true">g</text></g><g data-color-bar-rank="1" data-color-bar-band="K"><rect x="2" y="52.374" width="20" height="98.773" fill="#000000"/><text x="12" y="147.628" fill="#ffffff" font-size="16" text-anchor="middle" data-color-bar-letter="true">k</text></g><g data-color-bar-rank="2" data-color-bar-band="W"><rect x="2" y="151.148" width="20" height="73.753" fill="#ffffff"/><text x="12" y="221.381" fill="#000000" font-size="16" text-anchor="middle" data-color-bar-letter="true">w</text></g><g data-color-bar-rank="3" data-color-bar-band="R"><rect x="2" y="224.901" width="20" height="47.099" fill="#ff3f2f"/><text x="12" y="268.48" fill="#000000" font-size="16" text-anchor="middle" data-color-bar-letter="true">r</text></g><circle cx="6.6" cy="44.188" r="3.4" fill="#ffffff" stroke="#000000" stroke-width="0.75" data-bar-marker="left"/><circle cx="17.4" cy="179.188" r="3.4" fill="#ffffff" stroke="#000000" stroke-width="0.75" data-bar-marker="right"/></g><g data-channel="label-top"><text x="28" y="17" fill="#666666" font-size="12" dominant-baseline="central"><tspan fill="#a00000" font-weight="bold">+hash </tspan>CESR, Ed448 idx sig</text></g><line x1="1" y1="1.5" x2="274" y2="1.5" stroke="#808080" stroke-width="1" shape-rendering="crispEdges"/><line x1="273.5" y1="1" x2="273.5" y2="273" stroke="#808080" stroke-width="1" shape-rendering="crispEdges"/><line x1="1" y1="272.5" x2="274" y2="272.5" stroke="#808080" stroke-width="1" shape-rendering="crispEdges"/><line x1="1.5" y1="1" x2="1.5" y2="273" stroke="#808080" stroke-width="1" shape-rendering="crispEdges"/><line x1="22.5" y1="1" x2="22.5" y2="273" stroke="#808080" stroke-width="1" shape-rendering="crispEdges"/></svg>