<svg width="213" height="192" viewBox="0 0 213 192" xmlns="http://www.w3.org/2000/svg" font-family="&quot;JetBrains Mono&quot;, &quot;Menlo&quot;, &quot;Consolas&quot;, &quot;DejaVu Sans Mono&quot;, &quot;Liberation Mono&quot;, &quot;Roboto Mono&quot;, &quot;Noto Sans Mono&quot;, monospace" data-entviz-version="v11" data-entviz-lib="0.11.0" data-input-bytes="55" data-cols="3" data-rows="4"><defs><clipPath id="grid-clip-55a74a8b08693177-3x4"><rect x="27" y="26" width="180" height="160"/></clipPath></defs><rect x="0" y="0" width="213" height="192" fill="#ffffff"/><g data-channel="grid"><rect x="27" y="26" width="180" height="160" fill="#2f3fbf"/><g><path fill="#ff3f2f" d="M33 26h6v10h-6zM45 26h6v10h-6zM63 26h6v10h-6zM75 26h6v10h-6zM81 26h6v10h-6zM81 36h6v10h-6zM75 56h6v10h-6zM63 56h6v10h-6zM57 56h6v10h-6zM45 56h6v10h-6zM33 56h6v10h-6zM27 46h6v10h-6z"/><path fill="#ff3f2f" d="M87 26h6v10h-6zM105 26h6v10h-6zM117 26h6v10h-6zM123 26h6v10h-6zM141 46h6v10h-6zM117 56h6v10h-6zM111 56h6v10h-6zM99 56h6v10h-6zM87 36h6v10h-6z"/><path fill="#000000" d="M147 26h6v10h-6zM153 26h6v10h-6zM159 26h6v10h-6zM183 26h6v10h-6zM195 26h6v10h-6zM201 26h6v10h-6zM201 36h6v10h-6zM201 56h6v10h-6zM195 56h6v10h-6zM189 56h6v10h-6zM177 56h6v10h-6zM153 56h6v10h-6zM147 56h6v10h-6z"/><path fill="#ff3f2f" d="M33 66h6v10h-6zM39 66h6v10h-6zM63 66h6v10h-6zM69 66h6v10h-6zM75 66h6v10h-6zM81 66h6v10h-6zM75 96h6v10h-6zM69 96h6v10h-6zM57 96h6v10h-6zM51 96h6v10h-6zM39 96h6v10h-6zM27 96h6v10h-6z"/><path fill="#ffffff" d="M87 66h6v10h-6zM99 66h6v10h-6zM105 66h6v10h-6zM135 66h6v10h-6zM141 86h6v10h-6zM141 96h6v10h-6zM105 96h6v10h-6zM87 96h6v10h-6zM87 76h6v10h-6z"/><path fill="#ff3f2f" d="M159 66h6v10h-6zM165 66h6v10h-6zM171 66h6v10h-6zM195 66h6v10h-6zM201 66h6v10h-6zM201 86h6v10h-6zM201 96h6v10h-6zM183 96h6v10h-6zM177 96h6v10h-6zM171 96h6v10h-6zM153 96h6v10h-6zM147 96h6v10h-6zM147 86h6v10h-6zM147 76h6v10h-6z"/><path fill="#ffffff" d="M33 106h6v10h-6zM45 106h6v10h-6zM57 106h6v10h-6zM69 106h6v10h-6zM81 136h6v10h-6zM63 136h6v10h-6zM45 136h6v10h-6zM33 136h6v10h-6zM27 136h6v10h-6zM27 126h6v10h-6zM27 116h6v10h-6z"/><path fill="#ffffff" d="M87 106h6v10h-6zM123 106h6v10h-6zM129 106h6v10h-6zM141 116h6v10h-6zM123 136h6v10h-6zM93 136h6v10h-6zM87 136h6v10h-6zM87 116h6v10h-6z"/><path fill="#e7be00" d="M147 106h6v10h-6zM153 106h6v10h-6zM159 106h6v10h-6zM177 106h6v10h-6zM183 106h6v10h-6zM189 106h6v10h-6zM195 106h6v10h-6zM201 106h6v10h-6zM201 116h6v10h-6zM201 126h6v10h-6zM171 136h6v10h-6zM165 136h6v10h-6zM159 136h6v10h-6zM153 136h6v10h-6zM147 116h6v10h-6z"/><path fill="#ffffff" d="M45 146h6v10h-6zM51 146h6v10h-6zM57 146h6v10h-6zM69 146h6v10h-6zM81 146h6v10h-6zM81 156h6v10h-6zM81 166h6v10h-6zM81 176h6v10h-6zM69 176h6v10h-6zM45 176h6v10h-6zM33 176h6v10h-6zM27 166h6v10h-6zM27 156h6v10h-6z"/><path fill="#ffffff" d="M87 146h6v10h-6zM93 146h6v10h-6zM99 146h6v10h-6zM105 146h6v10h-6zM111 146h6v10h-6zM117 146h6v10h-6zM129 146h6v10h-6zM141 146h6v10h-6zM141 156h6v10h-6zM141 166h6v10h-6zM135 176h6v10h-6zM129 176h6v10h-6zM123 176h6v10h-6zM105 176h6v10h-6zM99 176h6v10h-6zM87 176h6v10h-6z"/><path fill="#ffffff" d="M171 146h6v10h-6zM183 146h6v10h-6zM201 146h6v10h-6zM201 156h6v10h-6zM201 166h6v10h-6zM195 176h6v10h-6zM189 176h6v10h-6zM183 176h6v10h-6zM159 176h6v10h-6zM147 166h6v10h-6zM147 156h6v10h-6z"/></g><g clip-path="url(#grid-clip-55a74a8b08693177-3x4)" data-channel="ellipse" data-ellipse-anchor-x="147" data-ellipse-anchor-y="146" data-ellipse-rx="49.554" data-ellipse-ry="86.21" data-ellipse-rotation-deg="60"><ellipse cx="147" cy="146" rx="49.554" ry="86.21" transform="rotate(60 147 146)" fill="#ffffff" stroke="#ffffff" fill-opacity="0.35" stroke-opacity="0.45" stroke-width="2"/></g><g><g data-channel="cell" data-cell-index="0" data-cell-row="0" data-cell-col="0" data-surround-bits="0x55a74a" data-edge-color="#ff3f2f"><rect x="33" y="36" width="48" height="20" fill="#401ed3"/><text x="57" y="46" fill="#ffffff" font-size="16" text-anchor="middle" dominant-baseline="central">0x5:</text></g><g data-channel="cell" data-cell-index="1" data-cell-row="0" data-cell-col="1" data-surround-bits="0x8b0869" data-edge-color="#ff3f2f"><rect x="93" y="36" width="48" height="20" fill="#f717d3"/><text x="117" y="46" fill="#000000" font-size="16" text-anchor="middle" dominant-baseline="central">0xf3</text></g><g data-channel="cell" data-cell-index="2" data-cell-row="0" data-cell-col="2" data-surround-bits="0x317747" data-edge-color="#000000" data-cell-quartile="2"><rect x="153" y="36" width="48" height="20" fill="#9ce66d"/><text x="177" y="46" fill="#000000" font-size="16" text-anchor="middle" dominant-baseline="central">beac</text><polygon points="201,36 191,36 201,46" fill="#000000"/></g><g data-channel="cell" data-cell-index="3" data-cell-row="1" data-cell-col="0" data-surround-bits="0x2b63c6" data-edge-color="#ff3f2f"><rect x="33" y="76" width="48" height="20" fill="#3847df"/><text x="57" y="86" fill="#ffffff" font-size="16" text-anchor="middle" dominant-baseline="central">30c4</text></g><g data-channel="cell" data-cell-index="4" data-cell-row="1" data-cell-col="1" data-surround-bits="0xa4190d" data-edge-color="#ffffff"><rect x="93" y="76" width="48" height="20" fill="#7dc7f7"/><text x="117" y="86" fill="#000000" font-size="16" text-anchor="middle" dominant-baseline="central">98d9</text></g><g data-channel="cell" data-cell-index="5" data-cell-row="1" data-cell-col="2" data-surround-bits="0xf39b1c" data-edge-color="#ff3f2f"><rect x="153" y="76" width="48" height="20" fill="#bc6e7b"/><text x="177" y="86" fill="#000000" font-size="16" text-anchor="middle" dominant-baseline="central">e268</text></g><g data-channel="cell" data-cell-index="6" data-cell-row="2" data-cell-col="0" data-surround-bits="0xf490aa" data-edge-color="#ffffff"><rect x="33" y="116" width="48" height="20" fill="#f797eb"/><text x="57" y="126" fill="#000000" font-size="16" text-anchor="middle" dominant-baseline="central">65f3</text></g><g data-channel="cell" data-cell-index="7" data-cell-row="2" data-cell-col="1" data-surround-bits="0xb084c1" data-edge-color="#ffffff"><rect x="93" y="116" width="48" height="20" fill="#1af7e1"/><text x="117" y="126" fill="#000000" font-size="16" text-anchor="middle" dominant-baseline="central">4fca</text></g><g data-channel="cell" data-cell-index="8" data-cell-row="2" data-cell-col="2" data-surround-bits="0x9e0fe7" data-edge-color="#e7be00" data-cell-quartile="4"><rect x="153" y="116" width="48" height="20" fill="#dd9e6b"/><text x="177" y="126" fill="#000000" font-size="16" text-anchor="middle" dominant-baseline="central">a57d</text><polygon points="153,136 153,126 163,136" fill="#000000"/></g><g data-channel="cell" data-cell-index="9" data-cell-row="3" data-cell-col="0" data-surround-bits="0xd45eb8" data-edge-color="#ffffff" data-cell-quartile="1"><rect x="33" y="156" width="48" height="20" fill="#77bf6d"/><text x="57" y="166" fill="#000000" font-size="16" text-anchor="middle" dominant-baseline="central">bb93</text><polygon points="33,156 43,156 33,166" fill="#000000"/></g><g data-channel="cell" data-cell-index="10" data-cell-row="3" data-cell-col="1" data-surround-bits="0x2ceebf" data-edge-color="#ffffff"><rect x="93" y="156" width="48" height="20" fill="#1dbde5"/><text x="117" y="166" fill="#000000" font-size="16" text-anchor="middle" dominant-baseline="central">5b0d</text></g><g data-channel="cell" data-cell-index="11" data-cell-row="3" data-cell-col="2" data-surround-bits="0xc8ee50" data-edge-color="#ffffff" data-cell-quartile="3"><rect x="153" y="156" width="48" height="20" fill="#f88eef"/><text x="177" y="166" fill="#000000" font-size="16" text-anchor="middle" dominant-baseline="central">74</text><polygon points="201,176 201,166 191,176" fill="#000000"/></g></g></g><g data-channel="color-bar" data-bar-slots="15" data-bar-marker-left="7" data-bar-marker-right="8"><g data-color-bar-rank="0" data-color-bar-band="G"><rect x="1" y="1" width="20" height="51.522" fill="#e7be00"/><text x="11" y="49.002" fill="#000000" font-size="16" text-anchor="middle" data-color-bar-letter="true">g</text></g><g data-color-bar-rank="1" data-color-bar-band="K"><rect x="1" y="52.522" width="20" height="69" fill="#000000"/><text x="11" y="118.002" fill="#ffffff" font-size="16" text-anchor="middle" data-color-bar-letter="true">k</text></g><g data-color-bar-rank="2" data-color-bar-band="R"><rect x="1" y="121.522" width="20" height="42.774" fill="#ff3f2f"/><text x="11" y="160.776" fill="#000000" font-size="16" text-anchor="middle" data-color-bar-letter="true">r</text></g><g data-color-bar-rank="3" data-color-bar-band="W"><rect x="1" y="164.296" width="20" height="26.704" fill="#ffffff"/><text x="11" y="187.48" fill="#000000" font-size="16" text-anchor="middle" data-color-bar-letter="true">w</text></g><circle cx="5.6" cy="96" r="3.4" fill="#ffffff" stroke="#000000" stroke-width="0.75" data-bar-marker="left"/><circle cx="16.4" cy="108.667" r="3.4" fill="#ffffff" stroke="#000000" stroke-width="0.75" data-bar-marker="right"/></g><g data-channel="label-top"><text x="27" y="16" fill="#666666" font-size="12" dominant-baseline="central">did:ethr:...</text></g><line x1="0" y1="0.5" x2="213" y2="0.5" stroke="#808080" stroke-width="1" shape-rendering="crispEdges"/><line x1="212.5" y1="0" x2="212.5" y2="192" stroke="#808080" stroke-width="1" shape-rendering="crispEdges"/><line x1="0" y1="191.5" x2="213" y2="191.5" stroke="#808080" stroke-width="1" shape-rendering="crispEdges"/><line x1="0.5" y1="0" x2="0.5" y2="192" stroke="#808080" stroke-width="1" shape-rendering="crispEdges"/><line x1="21.5" y1="0" x2="21.5" y2="192" stroke="#808080" stroke-width="1" shape-rendering="crispEdges"/></svg>