<svg width="215" height="194" viewBox="0 0 215 194" xmlns="http://www.w3.org/2000/svg" font-family="&quot;JetBrains Mono&quot;, &quot;Menlo&quot;, &quot;Consolas&quot;, &quot;DejaVu Sans Mono&quot;, &quot;Liberation Mono&quot;, &quot;Roboto Mono&quot;, &quot;Noto Sans Mono&quot;, monospace" data-entviz-version="v12" data-entviz-lib="0.12.0" data-input-bytes="55" data-cols="3" data-rows="4"><defs><clipPath id="grid-clip-55a74a8b08693177-3x4"><rect x="28" y="27" width="180" height="160"/></clipPath></defs><rect x="1" y="1" width="213" height="192" fill="#ffffff"/><g data-channel="grid"><rect x="28" y="27" width="180" height="160" fill="#2f3fbf"/><g><path fill="#ff3f2f" d="M34 27h6v10h-6zM46 27h6v10h-6zM64 27h6v10h-6zM76 27h6v10h-6zM82 27h6v10h-6zM82 37h6v10h-6zM76 57h6v10h-6zM64 57h6v10h-6zM58 57h6v10h-6zM46 57h6v10h-6zM34 57h6v10h-6zM28 47h6v10h-6z"/><path fill="#ff3f2f" d="M88 27h6v10h-6zM106 27h6v10h-6zM118 27h6v10h-6zM124 27h6v10h-6zM142 47h6v10h-6zM118 57h6v10h-6zM112 57h6v10h-6zM100 57h6v10h-6zM88 37h6v10h-6z"/><path fill="#000000" d="M148 27h6v10h-6zM154 27h6v10h-6zM160 27h6v10h-6zM184 27h6v10h-6zM196 27h6v10h-6zM202 27h6v10h-6zM202 37h6v10h-6zM202 57h6v10h-6zM196 57h6v10h-6zM190 57h6v10h-6zM178 57h6v10h-6zM154 57h6v10h-6zM148 57h6v10h-6z"/><path fill="#ff3f2f" d="M34 67h6v10h-6zM40 67h6v10h-6zM64 67h6v10h-6zM70 67h6v10h-6zM76 67h6v10h-6zM82 67h6v10h-6zM76 97h6v10h-6zM70 97h6v10h-6zM58 97h6v10h-6zM52 97h6v10h-6zM40 97h6v10h-6zM28 97h6v10h-6z"/><path fill="#ffffff" d="M88 67h6v10h-6zM100 67h6v10h-6zM106 67h6v10h-6zM136 67h6v10h-6zM142 87h6v10h-6zM142 97h6v10h-6zM106 97h6v10h-6zM88 97h6v10h-6zM88 77h6v10h-6z"/><path fill="#ff3f2f" d="M160 67h6v10h-6zM166 67h6v10h-6zM172 67h6v10h-6zM196 67h6v10h-6zM202 67h6v10h-6zM202 87h6v10h-6zM202 97h6v10h-6zM184 97h6v10h-6zM178 97h6v10h-6zM172 97h6v10h-6zM154 97h6v10h-6zM148 97h6v10h-6zM148 87h6v10h-6zM148 77h6v10h-6z"/><path fill="#ffffff" d="M34 107h6v10h-6zM46 107h6v10h-6zM58 107h6v10h-6zM70 107h6v10h-6zM82 137h6v10h-6zM64 137h6v10h-6zM46 137h6v10h-6zM34 137h6v10h-6zM28 137h6v10h-6zM28 127h6v10h-6zM28 117h6v10h-6z"/><path fill="#ffffff" d="M88 107h6v10h-6zM124 107h6v10h-6zM130 107h6v10h-6zM142 117h6v10h-6zM124 137h6v10h-6zM94 137h6v10h-6zM88 137h6v10h-6zM88 117h6v10h-6z"/><path fill="#e7be00" d="M148 107h6v10h-6zM154 107h6v10h-6zM160 107h6v10h-6zM178 107h6v10h-6zM184 107h6v10h-6zM190 107h6v10h-6zM196 107h6v10h-6zM202 107h6v10h-6zM202 117h6v10h-6zM202 127h6v10h-6zM172 137h6v10h-6zM166 137h6v10h-6zM160 137h6v10h-6zM154 137h6v10h-6zM148 117h6v10h-6z"/><path fill="#ffffff" d="M46 147h6v10h-6zM52 147h6v10h-6zM58 147h6v10h-6zM70 147h6v10h-6zM82 147h6v10h-6zM82 157h6v10h-6zM82 167h6v10h-6zM82 177h6v10h-6zM70 177h6v10h-6zM46 177h6v10h-6zM34 177h6v10h-6zM28 167h6v10h-6zM28 157h6v10h-6z"/><path fill="#ffffff" d="M88 147h6v10h-6zM94 147h6v10h-6zM100 147h6v10h-6zM106 147h6v10h-6zM112 147h6v10h-6zM118 147h6v10h-6zM130 147h6v10h-6zM142 147h6v10h-6zM142 157h6v10h-6zM142 167h6v10h-6zM136 177h6v10h-6zM130 177h6v10h-6zM124 177h6v10h-6zM106 177h6v10h-6zM100 177h6v10h-6zM88 177h6v10h-6z"/><path fill="#ffffff" d="M172 147h6v10h-6zM184 147h6v10h-6zM202 147h6v10h-6zM202 157h6v10h-6zM202 167h6v10h-6zM196 177h6v10h-6zM190 177h6v10h-6zM184 177h6v10h-6zM160 177h6v10h-6zM148 167h6v10h-6zM148 157h6v10h-6z"/></g><g clip-path="url(#grid-clip-55a74a8b08693177-3x4)" data-channel="ellipse" data-ellipse-anchor-x="148" data-ellipse-anchor-y="147" data-ellipse-rx="49.554" data-ellipse-ry="86.21" data-ellipse-rotation-deg="60"><ellipse cx="148" cy="147" rx="49.554" ry="86.21" transform="rotate(60 148 147)" fill="#ffffff" stroke="#ffffff" fill-opacity="0.35" stroke-opacity="0.45" stroke-width="2"/></g><g><g data-channel="cell" data-cell-index="0" data-cell-row="0" data-cell-col="0" data-surround-bits="0x55a74a" data-edge-color="#ff3f2f"><rect x="34" y="37" width="48" height="20" fill="#401ed3"/><text x="58" y="47" fill="#ffffff" font-size="16" text-anchor="middle" dominant-baseline="central">0x5:</text></g><g data-channel="cell" data-cell-index="1" data-cell-row="0" data-cell-col="1" data-surround-bits="0x8b0869" data-edge-color="#ff3f2f"><rect x="94" y="37" width="48" height="20" fill="#f717d3"/><text x="118" y="47" fill="#000000" font-size="16" text-anchor="middle" dominant-baseline="central">0xf3</text></g><g data-channel="cell" data-cell-index="2" data-cell-row="0" data-cell-col="2" data-surround-bits="0x317747" data-edge-color="#000000" data-cell-quartile="2"><rect x="154" y="37" width="48" height="20" fill="#9ce66d"/><text x="178" y="47" fill="#000000" font-size="16" text-anchor="middle" dominant-baseline="central">beac</text><polygon points="202,37 192,37 202,47" fill="#000000"/></g><g data-channel="cell" data-cell-index="3" data-cell-row="1" data-cell-col="0" data-surround-bits="0x2b63c6" data-edge-color="#ff3f2f"><rect x="34" y="77" width="48" height="20" fill="#3847df"/><text x="58" y="87" fill="#ffffff" font-size="16" text-anchor="middle" dominant-baseline="central">30c4</text></g><g data-channel="cell" data-cell-index="4" data-cell-row="1" data-cell-col="1" data-surround-bits="0xa4190d" data-edge-color="#ffffff"><rect x="94" y="77" width="48" height="20" fill="#7dc7f7"/><text x="118" y="87" fill="#000000" font-size="16" text-anchor="middle" dominant-baseline="central">98d9</text></g><g data-channel="cell" data-cell-index="5" data-cell-row="1" data-cell-col="2" data-surround-bits="0xf39b1c" data-edge-color="#ff3f2f"><rect x="154" y="77" width="48" height="20" fill="#bc6e7b"/><text x="178" y="87" fill="#000000" font-size="16" text-anchor="middle" dominant-baseline="central">e268</text></g><g data-channel="cell" data-cell-index="6" data-cell-row="2" data-cell-col="0" data-surround-bits="0xf490aa" data-edge-color="#ffffff"><rect x="34" y="117" width="48" height="20" fill="#f797eb"/><text x="58" y="127" fill="#000000" font-size="16" text-anchor="middle" dominant-baseline="central">65f3</text></g><g data-channel="cell" data-cell-index="7" data-cell-row="2" data-cell-col="1" data-surround-bits="0xb084c1" data-edge-color="#ffffff"><rect x="94" y="117" width="48" height="20" fill="#1af7e1"/><text x="118" y="127" fill="#000000" font-size="16" text-anchor="middle" dominant-baseline="central">4fca</text></g><g data-channel="cell" data-cell-index="8" data-cell-row="2" data-cell-col="2" data-surround-bits="0x9e0fe7" data-edge-color="#e7be00" data-cell-quartile="4"><rect x="154" y="117" width="48" height="20" fill="#dd9e6b"/><text x="178" y="127" fill="#000000" font-size="16" text-anchor="middle" dominant-baseline="central">a57d</text><polygon points="154,137 154,127 164,137" fill="#000000"/></g><g data-channel="cell" data-cell-index="9" data-cell-row="3" data-cell-col="0" data-surround-bits="0xd45eb8" data-edge-color="#ffffff" data-cell-quartile="1"><rect x="34" y="157" width="48" height="20" fill="#77bf6d"/><text x="58" y="167" fill="#000000" font-size="16" text-anchor="middle" dominant-baseline="central">bb93</text><polygon points="34,157 44,157 34,167" fill="#000000"/></g><g data-channel="cell" data-cell-index="10" data-cell-row="3" data-cell-col="1" data-surround-bits="0x2ceebf" data-edge-color="#ffffff"><rect x="94" y="157" width="48" height="20" fill="#1dbde5"/><text x="118" y="167" fill="#000000" font-size="16" text-anchor="middle" dominant-baseline="central">5b0d</text></g><g data-channel="cell" data-cell-index="11" data-cell-row="3" data-cell-col="2" data-surround-bits="0xc8ee50" data-edge-color="#ffffff" data-cell-quartile="3"><rect x="154" y="157" width="48" height="20" fill="#f88eef"/><text x="178" y="167" fill="#000000" font-size="16" text-anchor="middle" dominant-baseline="central">74</text><polygon points="202,177 202,167 192,177" fill="#000000"/></g></g></g><g data-channel="color-bar" data-bar-slots="15" data-bar-marker-left="7" data-bar-marker-right="8"><g data-color-bar-rank="0" data-color-bar-band="G"><rect x="2" y="2" width="20" height="51.522" fill="#e7be00"/><text x="12" y="50.002" fill="#000000" font-size="16" text-anchor="middle" data-color-bar-letter="true">g</text></g><g data-color-bar-rank="1" data-color-bar-band="K"><rect x="2" y="53.522" width="20" height="69" fill="#000000"/><text x="12" y="119.002" fill="#ffffff" font-size="16" text-anchor="middle" data-color-bar-letter="true">k</text></g><g data-color-bar-rank="2" data-color-bar-band="R"><rect x="2" y="122.522" width="20" height="42.774" fill="#ff3f2f"/><text x="12" y="161.776" fill="#000000" font-size="16" text-anchor="middle" data-color-bar-letter="true">r</text></g><g data-color-bar-rank="3" data-color-bar-band="W"><rect x="2" y="165.296" width="20" height="26.704" fill="#ffffff"/><text x="12" y="188.48" fill="#000000" font-size="16" text-anchor="middle" data-color-bar-letter="true">w</text></g><circle cx="6.6" cy="97" r="3.4" fill="#ffffff" stroke="#000000" stroke-width="0.75" data-bar-marker="left"/><circle cx="17.4" cy="109.667" r="3.4" fill="#ffffff" stroke="#000000" stroke-width="0.75" data-bar-marker="right"/></g><g data-channel="label-top"><text x="28" y="17" fill="#666666" font-size="12" dominant-baseline="central">did:ethr:...</text></g><line x1="1" y1="1.5" x2="214" y2="1.5" stroke="#808080" stroke-width="1" shape-rendering="crispEdges"/><line x1="213.5" y1="1" x2="213.5" y2="193" stroke="#808080" stroke-width="1" shape-rendering="crispEdges"/><line x1="1" y1="192.5" x2="214" y2="192.5" stroke="#808080" stroke-width="1" shape-rendering="crispEdges"/><line x1="1.5" y1="1" x2="1.5" y2="193" stroke="#808080" stroke-width="1" shape-rendering="crispEdges"/><line x1="22.5" y1="1" x2="22.5" y2="193" stroke="#808080" stroke-width="1" shape-rendering="crispEdges"/></svg>