<svg width="273" height="192" viewBox="0 0 273 192" xmlns="http://www.w3.org/2000/svg" font-family="&quot;JetBrains Mono&quot;, &quot;Menlo&quot;, &quot;Consolas&quot;, &quot;DejaVu Sans Mono&quot;, &quot;Liberation Mono&quot;, &quot;Roboto Mono&quot;, &quot;Noto Sans Mono&quot;, monospace" data-entviz-version="v11" data-entviz-lib="0.11.0" data-input-bytes="57" data-cols="4" data-rows="4"><defs><clipPath id="grid-clip-abb90926992c747c-4x4"><rect x="27" y="26" width="240" height="160"/></clipPath></defs><rect x="0" y="0" width="273" height="192" fill="#ffffff"/><g data-channel="grid"><rect x="27" y="26" width="240" height="160" fill="#ffffff"/><g><path fill="#ff3f2f" d="M27 26h6v10h-6zM45 26h6v10h-6zM75 26h6v10h-6zM81 46h6v10h-6zM81 56h6v10h-6zM75 56h6v10h-6zM63 56h6v10h-6zM57 56h6v10h-6zM51 56h6v10h-6zM39 56h6v10h-6zM27 56h6v10h-6zM27 36h6v10h-6z"/><path fill="#2f3fbf" d="M99 26h6v10h-6zM105 26h6v10h-6zM117 26h6v10h-6zM135 26h6v10h-6zM141 46h6v10h-6zM141 56h6v10h-6zM123 56h6v10h-6zM111 56h6v10h-6zM105 56h6v10h-6zM87 56h6v10h-6z"/><path fill="#ff3f2f" d="M147 26h6v10h-6zM159 26h6v10h-6zM165 26h6v10h-6zM171 26h6v10h-6zM177 26h6v10h-6zM183 26h6v10h-6zM201 36h6v10h-6zM201 46h6v10h-6zM201 56h6v10h-6zM195 56h6v10h-6zM189 56h6v10h-6zM165 56h6v10h-6zM153 56h6v10h-6zM147 56h6v10h-6zM147 46h6v10h-6z"/><path fill="#2f3fbf" d="M225 26h6v10h-6zM237 26h6v10h-6zM243 26h6v10h-6zM261 26h6v10h-6zM261 36h6v10h-6zM261 46h6v10h-6zM261 56h6v10h-6zM249 56h6v10h-6zM237 56h6v10h-6zM231 56h6v10h-6zM225 56h6v10h-6zM207 56h6v10h-6zM207 36h6v10h-6z"/><path fill="#e7be00" d="M99 66h6v10h-6zM105 66h6v10h-6zM111 66h6v10h-6zM135 66h6v10h-6zM141 76h6v10h-6zM129 96h6v10h-6zM111 96h6v10h-6zM87 96h6v10h-6zM87 86h6v10h-6z"/><path fill="#2f3fbf" d="M207 66h6v10h-6zM213 66h6v10h-6zM219 66h6v10h-6zM225 66h6v10h-6zM237 66h6v10h-6zM261 66h6v10h-6zM261 76h6v10h-6zM261 96h6v10h-6zM255 96h6v10h-6zM249 96h6v10h-6zM225 96h6v10h-6zM219 96h6v10h-6zM207 96h6v10h-6zM207 76h6v10h-6z"/><path fill="#ff3f2f" d="M27 106h6v10h-6zM45 106h6v10h-6zM51 106h6v10h-6zM63 106h6v10h-6zM69 106h6v10h-6zM81 106h6v10h-6zM81 116h6v10h-6zM69 136h6v10h-6zM63 136h6v10h-6zM57 136h6v10h-6zM51 136h6v10h-6zM39 136h6v10h-6zM33 136h6v10h-6zM27 136h6v10h-6zM27 126h6v10h-6z"/><path fill="#ff3f2f" d="M87 106h6v10h-6zM93 106h6v10h-6zM123 106h6v10h-6zM129 106h6v10h-6zM141 116h6v10h-6zM141 126h6v10h-6zM129 136h6v10h-6zM117 136h6v10h-6zM105 136h6v10h-6zM99 136h6v10h-6zM93 136h6v10h-6zM87 136h6v10h-6z"/><path fill="#e7be00" d="M147 106h6v10h-6zM153 106h6v10h-6zM159 106h6v10h-6zM165 106h6v10h-6zM177 106h6v10h-6zM189 106h6v10h-6zM201 126h6v10h-6zM201 136h6v10h-6zM177 136h6v10h-6zM147 126h6v10h-6z"/><path fill="#ff3f2f" d="M213 106h6v10h-6zM219 106h6v10h-6zM237 106h6v10h-6zM249 106h6v10h-6zM255 106h6v10h-6zM261 106h6v10h-6zM261 116h6v10h-6zM243 136h6v10h-6zM237 136h6v10h-6zM219 136h6v10h-6zM213 136h6v10h-6zM207 126h6v10h-6z"/><path fill="#ff3f2f" d="M27 146h6v10h-6zM39 146h6v10h-6zM45 146h6v10h-6zM51 146h6v10h-6zM57 146h6v10h-6zM63 146h6v10h-6zM69 146h6v10h-6zM81 156h6v10h-6zM81 176h6v10h-6zM57 176h6v10h-6zM45 176h6v10h-6zM39 176h6v10h-6zM33 176h6v10h-6zM27 156h6v10h-6z"/><path fill="#2f3fbf" d="M147 146h6v10h-6zM153 146h6v10h-6zM177 146h6v10h-6zM183 146h6v10h-6zM195 146h6v10h-6zM201 146h6v10h-6zM201 156h6v10h-6zM189 176h6v10h-6zM153 176h6v10h-6z"/><path fill="#e7be00" d="M207 146h6v10h-6zM213 146h6v10h-6zM219 146h6v10h-6zM225 146h6v10h-6zM237 146h6v10h-6zM255 146h6v10h-6zM261 146h6v10h-6zM261 166h6v10h-6zM243 176h6v10h-6zM237 176h6v10h-6zM225 176h6v10h-6zM207 166h6v10h-6z"/></g><g clip-path="url(#grid-clip-abb90926992c747c-4x4)" data-channel="ellipse" data-ellipse-anchor-x="207" data-ellipse-anchor-y="146" data-ellipse-rx="78.745" data-ellipse-ry="115.089" data-ellipse-rotation-deg="84"><ellipse cx="207" cy="146" rx="78.745" ry="115.089" transform="rotate(84 207 146)" fill="#000000" stroke="#000000" fill-opacity="0.2" stroke-opacity="0.3" stroke-width="2"/></g><g><g data-channel="cell" data-cell-index="0" data-cell-row="0" data-cell-col="0" data-surround-bits="0xabb909" data-edge-color="#ff3f2f"><rect x="33" y="36" width="48" height="20" fill="#ec0dcd"/><text x="57" y="46" fill="#000000" font-size="16" text-anchor="middle" dominant-baseline="central">zQ3s</text></g><g data-channel="cell" data-cell-index="1" data-cell-row="0" data-cell-col="1" data-surround-bits="0x26992c" data-edge-color="#2f3fbf"><rect x="93" y="36" width="48" height="20" fill="#058986"/><text x="117" y="46" fill="#ffffff" font-size="16" text-anchor="middle" dominant-baseline="central">hokF</text></g><g data-channel="cell" data-cell-index="2" data-cell-row="0" data-cell-col="2" data-surround-bits="0x747c7d" data-edge-color="#ff3f2f"><rect x="153" y="36" width="48" height="20" fill="#db2d4d"/><text x="177" y="46" fill="#ffffff" font-size="16" text-anchor="middle" dominant-baseline="central">TS3b</text></g><g data-channel="cell" data-cell-index="3" data-cell-row="0" data-cell-col="3" data-surround-bits="0xa75e68" data-edge-color="#2f3fbf" data-cell-quartile="3"><rect x="213" y="36" width="48" height="20" fill="#0377ac"/><text x="237" y="46" fill="#ffffff" font-size="16" text-anchor="middle" dominant-baseline="central">rHcD</text><polygon points="261,56 261,46 251,56" fill="#ffffff"/></g><g data-channel="cell" data-cell-index="4" data-cell-row="1" data-cell-col="0" data-cell-blank="true" data-cell-blank-map="true"><rect x="33" y="76" width="48" height="20" rx="10" ry="10" fill="#e7be00" stroke="#000000" stroke-width="1"/><circle cx="63" cy="93.5" r="3.5" fill="#1d4ed8" data-blank-map-min="3,2"/><path d="M 70.8,83.5 H 79.2 M 75,79.3 V 87.7" fill="none" stroke="#d62828" stroke-width="1.925" stroke-linecap="butt" data-blank-map-max="1,3"/></g><g data-channel="cell" data-cell-index="5" data-cell-row="1" data-cell-col="1" data-surround-bits="0x62451c" data-edge-color="#e7be00"><rect x="93" y="76" width="48" height="20" fill="#fcb942"/><text x="117" y="86" fill="#000000" font-size="16" text-anchor="middle" dominant-baseline="central">Qrn8</text></g><g data-channel="cell" data-cell-index="6" data-cell-row="1" data-cell-col="2" data-cell-blank="true"><rect x="153" y="76" width="48" height="20" rx="10" ry="10" fill="#ff3f2f" stroke="#000000" stroke-width="1"/></g><g data-channel="cell" data-cell-index="7" data-cell-row="1" data-cell-col="3" data-surround-bits="0xac762f" data-edge-color="#2f3fbf"><rect x="213" y="76" width="48" height="20" fill="#0315d9"/><text x="237" y="86" fill="#ffffff" font-size="16" text-anchor="middle" dominant-baseline="central">2RUD</text></g><g data-channel="cell" data-cell-index="8" data-cell-row="2" data-cell-col="0" data-surround-bits="0x7bc6d9" data-edge-color="#ff3f2f" data-cell-quartile="2"><rect x="33" y="116" width="48" height="20" fill="#44267c"/><text x="57" y="126" fill="#ffffff" font-size="16" text-anchor="middle" dominant-baseline="central">fCZE</text><polygon points="81,116 71,116 81,126" fill="#ffffff"/></g><g data-channel="cell" data-cell-index="9" data-cell-row="2" data-cell-col="1" data-surround-bits="0x3d4cc3" data-edge-color="#ff3f2f"><rect x="93" y="116" width="48" height="20" fill="#f56249"/><text x="117" y="126" fill="#000000" font-size="16" text-anchor="middle" dominant-baseline="central">SWL1</text></g><g data-channel="cell" data-cell-index="10" data-cell-row="2" data-cell-col="2" data-surround-bits="0x4118af" data-edge-color="#e7be00"><rect x="153" y="116" width="48" height="20" fill="#84d065"/><text x="177" y="126" fill="#000000" font-size="16" text-anchor="middle" dominant-baseline="central">ZdCE</text></g><g data-channel="cell" data-cell-index="11" data-cell-row="2" data-cell-col="3" data-surround-bits="0x5987a6" data-edge-color="#ff3f2f"><rect x="213" y="116" width="48" height="20" fill="#a40727"/><text x="237" y="126" fill="#ffffff" font-size="16" text-anchor="middle" dominant-baseline="central">Jwek</text></g><g data-channel="cell" data-cell-index="12" data-cell-row="3" data-cell-col="0" data-surround-bits="0x9d14fd" data-edge-color="#ff3f2f" data-cell-quartile="1"><rect x="33" y="156" width="48" height="20" fill="#d03350"/><text x="57" y="166" fill="#ffffff" font-size="16" text-anchor="middle" dominant-baseline="central">UDPQ</text><polygon points="33,156 43,156 33,166" fill="#ffffff"/></g><g data-channel="cell" data-cell-index="13" data-cell-row="3" data-cell-col="1" data-cell-blank="true"><rect x="93" y="156" width="48" height="20" rx="10" ry="10" fill="#e7be00" stroke="#000000" stroke-width="1"/></g><g data-channel="cell" data-cell-index="14" data-cell-row="3" data-cell-col="2" data-surround-bits="0x104763" data-edge-color="#2f3fbf"><rect x="153" y="156" width="48" height="20" fill="#668089"/><text x="177" y="166" fill="#ffffff" font-size="16" text-anchor="middle" dominant-baseline="central">iYBm</text></g><g data-channel="cell" data-cell-index="15" data-cell-row="3" data-cell-col="3" data-surround-bits="0x458b2f" data-edge-color="#e7be00" data-cell-quartile="4"><rect x="213" y="156" width="48" height="20" fill="#9ee779"/><text x="237" y="166" fill="#000000" font-size="16" text-anchor="middle" dominant-baseline="central">e</text><polygon points="213,176 213,166 223,176" fill="#000000"/></g></g></g><g data-channel="color-bar" data-bar-slots="15" data-bar-marker-left="5" data-bar-marker-right="9"><g data-color-bar-rank="0" data-color-bar-band="K"><rect x="1" y="1" width="20" height="34.357" fill="#000000"/><text x="11" y="31.837" fill="#ffffff" font-size="16" text-anchor="middle" data-color-bar-letter="true">k</text></g><g data-color-bar-rank="1" data-color-bar-band="B"><rect x="1" y="35.357" width="20" height="41.762" fill="#2f3fbf"/><text x="11" y="73.599" fill="#ffffff" font-size="16" text-anchor="middle" data-color-bar-letter="true">b</text></g><g data-color-bar-rank="2" data-color-bar-band="R"><rect x="1" y="77.119" width="20" height="83.88" fill="#ff3f2f"/><text x="11" y="157.48" fill="#000000" font-size="16" text-anchor="middle" data-color-bar-letter="true">r</text></g><g data-color-bar-rank="3" data-color-bar-band="G"><rect x="1" y="161" width="20" height="30" fill="#e7be00"/><text x="11" y="187.48" fill="#000000" font-size="16" text-anchor="middle" data-color-bar-letter="true">g</text></g><circle cx="5.6" cy="70.667" r="3.4" fill="#ffffff" stroke="#000000" stroke-width="0.75" data-bar-marker="left"/><circle cx="16.4" cy="121.333" r="3.4" fill="#ffffff" stroke="#000000" stroke-width="0.75" data-bar-marker="right"/></g><g data-channel="label-top"><text x="27" y="16" fill="#666666" font-size="12" dominant-baseline="central">did:key:...</text></g><line x1="0" y1="0.5" x2="273" y2="0.5" stroke="#808080" stroke-width="1" shape-rendering="crispEdges"/><line x1="272.5" y1="0" x2="272.5" y2="192" stroke="#808080" stroke-width="1" shape-rendering="crispEdges"/><line x1="0" y1="191.5" x2="273" y2="191.5" stroke="#808080" stroke-width="1" shape-rendering="crispEdges"/><line x1="0.5" y1="0" x2="0.5" y2="192" stroke="#808080" stroke-width="1" shape-rendering="crispEdges"/><line x1="21.5" y1="0" x2="21.5" y2="192" stroke="#808080" stroke-width="1" shape-rendering="crispEdges"/></svg>