<svg width="275" height="194" viewBox="0 0 275 194" xmlns="http://www.w3.org/2000/svg" font-family="&quot;JetBrains Mono&quot;, &quot;Menlo&quot;, &quot;Consolas&quot;, &quot;DejaVu Sans Mono&quot;, &quot;Liberation Mono&quot;, &quot;Roboto Mono&quot;, &quot;Noto Sans Mono&quot;, monospace" data-entviz-version="v15" data-entviz-lib="0.15.0" data-input-bytes="57" data-cols="4" data-rows="4" data-encoding="base64url" data-scheme="did" data-role="identifier" data-size-basis="utf8" data-entropy-type="did" data-size-bits="392" data-qualifiers="{&quot;method&quot;:&quot;key&quot;}" data-parts="[{&quot;text&quot;:&quot;did:key:&quot;,&quot;bind&quot;:&quot;fold&quot;},{&quot;text&quot;:&quot;zQ3shokFTS3brHcDQrn82RUDfCZESWL1ZdCEJwekUDPQiYBme&quot;,&quot;bind&quot;:&quot;core&quot;}]"><defs><clipPath id="grid-clip-abb90926992c747c-4x4"><rect x="28" y="27" width="240" height="160"/></clipPath></defs><rect x="1" y="1" width="273" height="192" fill="#ffffff"/><g data-channel="grid"><rect x="28" y="27" width="240" height="160" fill="#ffffff"/><g><path fill="#ff3f2f" d="M28 27h6v10h-6zM46 27h6v10h-6zM76 27h6v10h-6zM82 47h6v10h-6zM82 57h6v10h-6zM76 57h6v10h-6zM64 57h6v10h-6zM58 57h6v10h-6zM52 57h6v10h-6zM40 57h6v10h-6zM28 57h6v10h-6zM28 37h6v10h-6z"/><path fill="#2f3fbf" d="M100 27h6v10h-6zM106 27h6v10h-6zM118 27h6v10h-6zM136 27h6v10h-6zM142 47h6v10h-6zM142 57h6v10h-6zM124 57h6v10h-6zM112 57h6v10h-6zM106 57h6v10h-6zM88 57h6v10h-6z"/><path fill="#ff3f2f" d="M148 27h6v10h-6zM160 27h6v10h-6zM166 27h6v10h-6zM172 27h6v10h-6zM178 27h6v10h-6zM184 27h6v10h-6zM202 37h6v10h-6zM202 47h6v10h-6zM202 57h6v10h-6zM196 57h6v10h-6zM190 57h6v10h-6zM166 57h6v10h-6zM154 57h6v10h-6zM148 57h6v10h-6zM148 47h6v10h-6z"/><path fill="#2f3fbf" d="M226 27h6v10h-6zM238 27h6v10h-6zM244 27h6v10h-6zM262 27h6v10h-6zM262 37h6v10h-6zM262 47h6v10h-6zM262 57h6v10h-6zM250 57h6v10h-6zM238 57h6v10h-6zM232 57h6v10h-6zM226 57h6v10h-6zM208 57h6v10h-6zM208 37h6v10h-6z"/><path fill="#e7be00" d="M100 67h6v10h-6zM106 67h6v10h-6zM112 67h6v10h-6zM136 67h6v10h-6zM142 77h6v10h-6zM130 97h6v10h-6zM112 97h6v10h-6zM88 97h6v10h-6zM88 87h6v10h-6z"/><path fill="#2f3fbf" d="M208 67h6v10h-6zM214 67h6v10h-6zM220 67h6v10h-6zM226 67h6v10h-6zM238 67h6v10h-6zM262 67h6v10h-6zM262 77h6v10h-6zM262 97h6v10h-6zM256 97h6v10h-6zM250 97h6v10h-6zM226 97h6v10h-6zM220 97h6v10h-6zM208 97h6v10h-6zM208 77h6v10h-6z"/><path fill="#ff3f2f" d="M28 107h6v10h-6zM46 107h6v10h-6zM52 107h6v10h-6zM64 107h6v10h-6zM70 107h6v10h-6zM82 107h6v10h-6zM82 117h6v10h-6zM70 137h6v10h-6zM64 137h6v10h-6zM58 137h6v10h-6zM52 137h6v10h-6zM40 137h6v10h-6zM34 137h6v10h-6zM28 137h6v10h-6zM28 127h6v10h-6z"/><path fill="#ff3f2f" d="M88 107h6v10h-6zM94 107h6v10h-6zM124 107h6v10h-6zM130 107h6v10h-6zM142 117h6v10h-6zM142 127h6v10h-6zM130 137h6v10h-6zM118 137h6v10h-6zM106 137h6v10h-6zM100 137h6v10h-6zM94 137h6v10h-6zM88 137h6v10h-6z"/><path fill="#e7be00" d="M148 107h6v10h-6zM154 107h6v10h-6zM160 107h6v10h-6zM166 107h6v10h-6zM178 107h6v10h-6zM190 107h6v10h-6zM202 127h6v10h-6zM202 137h6v10h-6zM178 137h6v10h-6zM148 127h6v10h-6z"/><path fill="#ff3f2f" d="M214 107h6v10h-6zM220 107h6v10h-6zM238 107h6v10h-6zM250 107h6v10h-6zM256 107h6v10h-6zM262 107h6v10h-6zM262 117h6v10h-6zM244 137h6v10h-6zM238 137h6v10h-6zM220 137h6v10h-6zM214 137h6v10h-6zM208 127h6v10h-6z"/><path fill="#ff3f2f" d="M28 147h6v10h-6zM40 147h6v10h-6zM46 147h6v10h-6zM52 147h6v10h-6zM58 147h6v10h-6zM64 147h6v10h-6zM70 147h6v10h-6zM82 157h6v10h-6zM82 177h6v10h-6zM58 177h6v10h-6zM46 177h6v10h-6zM40 177h6v10h-6zM34 177h6v10h-6zM28 157h6v10h-6z"/><path fill="#2f3fbf" d="M148 147h6v10h-6zM154 147h6v10h-6zM178 147h6v10h-6zM184 147h6v10h-6zM196 147h6v10h-6zM202 147h6v10h-6zM202 157h6v10h-6zM190 177h6v10h-6zM154 177h6v10h-6z"/><path fill="#e7be00" d="M208 147h6v10h-6zM214 147h6v10h-6zM220 147h6v10h-6zM226 147h6v10h-6zM238 147h6v10h-6zM256 147h6v10h-6zM262 147h6v10h-6zM262 167h6v10h-6zM244 177h6v10h-6zM238 177h6v10h-6zM226 177h6v10h-6zM208 167h6v10h-6z"/></g><g clip-path="url(#grid-clip-abb90926992c747c-4x4)" data-channel="ellipse" data-ellipse-anchor-x="208" data-ellipse-anchor-y="147" data-ellipse-rx="78.745" data-ellipse-ry="115.089" data-ellipse-rotation-deg="84"><ellipse cx="208" cy="147" rx="78.745" ry="115.089" transform="rotate(84 208 147)" fill="#000000" stroke="#000000" fill-opacity="0.2" stroke-opacity="0.3" stroke-width="2"/></g><g><g data-channel="cell" data-cell-index="0" data-cell-row="0" data-cell-col="0" data-surround-bits="0xabb909" data-edge-color="#ff3f2f"><rect x="34" y="37" width="48" height="20" fill="#ec0dcd"/><text x="58" y="47" fill="#000000" font-size="16" text-anchor="middle" dominant-baseline="central">zQ3s</text></g><g data-channel="cell" data-cell-index="1" data-cell-row="0" data-cell-col="1" data-surround-bits="0x26992c" data-edge-color="#2f3fbf"><rect x="94" y="37" width="48" height="20" fill="#058986"/><text x="118" y="47" fill="#ffffff" font-size="16" text-anchor="middle" dominant-baseline="central">hokF</text></g><g data-channel="cell" data-cell-index="2" data-cell-row="0" data-cell-col="2" data-surround-bits="0x747c7d" data-edge-color="#ff3f2f"><rect x="154" y="37" width="48" height="20" fill="#db2d4d"/><text x="178" y="47" fill="#ffffff" font-size="16" text-anchor="middle" dominant-baseline="central">TS3b</text></g><g data-channel="cell" data-cell-index="3" data-cell-row="0" data-cell-col="3" data-surround-bits="0xa75e68" data-edge-color="#2f3fbf" data-cell-quartile="3"><rect x="214" y="37" width="48" height="20" fill="#0377ac"/><text x="238" y="47" fill="#ffffff" font-size="16" text-anchor="middle" dominant-baseline="central">rHcD</text><polygon points="262,57 262,47 252,57" fill="#ffffff"/></g><g data-channel="cell" data-cell-index="4" data-cell-row="1" data-cell-col="0" data-cell-blank="true" data-cell-blank-map="true"><rect x="34" y="77" width="48" height="20" rx="10" ry="10" fill="#e7be00" stroke="#000000" stroke-width="1"/><circle cx="64" cy="94.5" r="3.5" fill="#1d4ed8" data-blank-map-min="3,2"/><path d="M 71.8,84.5 H 80.2 M 76,80.3 V 88.7" fill="none" stroke="#d62828" stroke-width="1.925" stroke-linecap="butt" data-blank-map-max="1,3"/></g><g data-channel="cell" data-cell-index="5" data-cell-row="1" data-cell-col="1" data-surround-bits="0x62451c" data-edge-color="#e7be00"><rect x="94" y="77" width="48" height="20" fill="#fcb942"/><text x="118" y="87" fill="#000000" font-size="16" text-anchor="middle" dominant-baseline="central">Qrn8</text></g><g data-channel="cell" data-cell-index="6" data-cell-row="1" data-cell-col="2" data-cell-blank="true"><rect x="154" y="77" width="48" height="20" rx="10" ry="10" fill="#ff3f2f" stroke="#000000" stroke-width="1"/></g><g data-channel="cell" data-cell-index="7" data-cell-row="1" data-cell-col="3" data-surround-bits="0xac762f" data-edge-color="#2f3fbf"><rect x="214" y="77" width="48" height="20" fill="#0315d9"/><text x="238" y="87" fill="#ffffff" font-size="16" text-anchor="middle" dominant-baseline="central">2RUD</text></g><g data-channel="cell" data-cell-index="8" data-cell-row="2" data-cell-col="0" data-surround-bits="0x7bc6d9" data-edge-color="#ff3f2f" data-cell-quartile="2"><rect x="34" y="117" width="48" height="20" fill="#44267c"/><text x="58" y="127" fill="#ffffff" font-size="16" text-anchor="middle" dominant-baseline="central">fCZE</text><polygon points="82,117 72,117 82,127" fill="#ffffff"/></g><g data-channel="cell" data-cell-index="9" data-cell-row="2" data-cell-col="1" data-surround-bits="0x3d4cc3" data-edge-color="#ff3f2f"><rect x="94" y="117" width="48" height="20" fill="#f56249"/><text x="118" y="127" fill="#000000" font-size="16" text-anchor="middle" dominant-baseline="central">SWL1</text></g><g data-channel="cell" data-cell-index="10" data-cell-row="2" data-cell-col="2" data-surround-bits="0x4118af" data-edge-color="#e7be00"><rect x="154" y="117" width="48" height="20" fill="#84d065"/><text x="178" y="127" fill="#000000" font-size="16" text-anchor="middle" dominant-baseline="central">ZdCE</text></g><g data-channel="cell" data-cell-index="11" data-cell-row="2" data-cell-col="3" data-surround-bits="0x5987a6" data-edge-color="#ff3f2f"><rect x="214" y="117" width="48" height="20" fill="#a40727"/><text x="238" y="127" fill="#ffffff" font-size="16" text-anchor="middle" dominant-baseline="central">Jwek</text></g><g data-channel="cell" data-cell-index="12" data-cell-row="3" data-cell-col="0" data-surround-bits="0x9d14fd" data-edge-color="#ff3f2f" data-cell-quartile="1"><rect x="34" y="157" width="48" height="20" fill="#d03350"/><text x="58" y="167" fill="#ffffff" font-size="16" text-anchor="middle" dominant-baseline="central">UDPQ</text><polygon points="34,157 44,157 34,167" fill="#ffffff"/></g><g data-channel="cell" data-cell-index="13" data-cell-row="3" data-cell-col="1" data-cell-blank="true"><rect x="94" y="157" width="48" height="20" rx="10" ry="10" fill="#e7be00" stroke="#000000" stroke-width="1"/></g><g data-channel="cell" data-cell-index="14" data-cell-row="3" data-cell-col="2" data-surround-bits="0x104763" data-edge-color="#2f3fbf"><rect x="154" y="157" width="48" height="20" fill="#668089"/><text x="178" y="167" fill="#ffffff" font-size="16" text-anchor="middle" dominant-baseline="central">iYBm</text></g><g data-channel="cell" data-cell-index="15" data-cell-row="3" data-cell-col="3" data-surround-bits="0x458b2f" data-edge-color="#e7be00" data-cell-quartile="4"><rect x="214" y="157" width="48" height="20" fill="#9ee779"/><text x="238" y="167" fill="#000000" font-size="16" text-anchor="middle" dominant-baseline="central">e</text><polygon points="214,177 214,167 224,177" fill="#000000"/></g></g></g><g data-channel="color-bar" data-bar-slots="15" data-bar-marker-left="5" data-bar-marker-right="9"><g data-color-bar-rank="0" data-color-bar-band="K"><rect x="2" y="2" width="20" height="34.357" fill="#000000"/><text x="12" y="32.837" fill="#ffffff" font-size="16" text-anchor="middle" data-color-bar-letter="true">k</text></g><g data-color-bar-rank="1" data-color-bar-band="B"><rect x="2" y="36.357" width="20" height="41.762" fill="#2f3fbf"/><text x="12" y="74.599" fill="#ffffff" font-size="16" text-anchor="middle" data-color-bar-letter="true">b</text></g><g data-color-bar-rank="2" data-color-bar-band="R"><rect x="2" y="78.119" width="20" height="83.88" fill="#ff3f2f"/><text x="12" y="158.48" fill="#000000" font-size="16" text-anchor="middle" data-color-bar-letter="true">r</text></g><g data-color-bar-rank="3" data-color-bar-band="G"><rect x="2" y="162" width="20" height="30" fill="#e7be00"/><text x="12" y="188.48" fill="#000000" font-size="16" text-anchor="middle" data-color-bar-letter="true">g</text></g><circle cx="6.6" cy="71.667" r="3.4" fill="#ffffff" stroke="#000000" stroke-width="0.75" data-bar-marker="left"/><circle cx="17.4" cy="122.333" r="3.4" fill="#ffffff" stroke="#000000" stroke-width="0.75" data-bar-marker="right"/></g><g data-channel="label-top"><text x="28" y="17" fill="#666666" font-size="12" dominant-baseline="central">did:key</text></g><line x1="1" y1="1.5" x2="274" y2="1.5" stroke="#808080" stroke-width="1" shape-rendering="crispEdges"/><line x1="273.5" y1="1" x2="273.5" y2="193" stroke="#808080" stroke-width="1" shape-rendering="crispEdges"/><line x1="1" y1="192.5" x2="274" y2="192.5" stroke="#808080" stroke-width="1" shape-rendering="crispEdges"/><line x1="1.5" y1="1" x2="1.5" y2="193" stroke="#808080" stroke-width="1" shape-rendering="crispEdges"/><line x1="22.5" y1="1" x2="22.5" y2="193" stroke="#808080" stroke-width="1" shape-rendering="crispEdges"/></svg>