<svg width="153" height="112" viewBox="0 0 153 112" xmlns="http://www.w3.org/2000/svg" font-family="&quot;JetBrains Mono&quot;, &quot;Menlo&quot;, &quot;Consolas&quot;, &quot;DejaVu Sans Mono&quot;, &quot;Liberation Mono&quot;, &quot;Roboto Mono&quot;, &quot;Noto Sans Mono&quot;, monospace" data-entviz-version="v11" data-entviz-lib="0.11.0" data-input-bytes="19" data-cols="2" data-rows="2"><defs><clipPath id="grid-clip-dc7d52b0f5891ef1-2x2"><rect x="27" y="26" width="120" height="80"/></clipPath></defs><rect x="0" y="0" width="153" height="112" fill="#ffffff"/><g data-channel="grid"><rect x="27" y="26" width="120" height="80" fill="#ff3f2f"/><g><path fill="#2f3fbf" d="M93 26h6v10h-6zM111 26h6v10h-6zM123 26h6v10h-6zM135 26h6v10h-6zM141 36h6v10h-6zM141 46h6v10h-6zM141 56h6v10h-6zM135 56h6v10h-6zM129 56h6v10h-6zM105 56h6v10h-6zM99 56h6v10h-6zM93 56h6v10h-6zM87 46h6v10h-6zM87 36h6v10h-6z"/><path fill="#e7be00" d="M87 66h6v10h-6zM105 66h6v10h-6zM129 66h6v10h-6zM135 66h6v10h-6zM141 76h6v10h-6zM141 96h6v10h-6zM135 96h6v10h-6zM129 96h6v10h-6zM123 96h6v10h-6zM93 96h6v10h-6zM87 96h6v10h-6zM87 76h6v10h-6z"/></g><g clip-path="url(#grid-clip-dc7d52b0f5891ef1-2x2)" data-channel="ellipse" data-ellipse-anchor-x="27" data-ellipse-anchor-y="66" data-ellipse-rx="67.293" data-ellipse-ry="49.079" data-ellipse-rotation-deg="0"><ellipse cx="27" cy="66" rx="67.293" ry="49.079" transform="rotate(0 27 66)" fill="#000000" stroke="#000000" fill-opacity="0.25" stroke-opacity="0.35" stroke-width="2"/></g><g><g data-channel="cell" data-cell-index="0" data-cell-row="0" data-cell-col="0" data-cell-blank="true" data-cell-blank-map="true"><rect x="33" y="36" width="48" height="20" rx="10" ry="10" fill="#ffffff" stroke="#000000" stroke-width="1"/><circle cx="69" cy="51" r="3.5" fill="#1d4ed8" data-blank-map-min="1,1"/><path d="M 64.8,41 H 73.2 M 69,36.8 V 45.2" fill="none" stroke="#d62828" stroke-width="1.925" stroke-linecap="butt" data-blank-map-max="0,1"/></g><g data-channel="cell" data-cell-index="1" data-cell-row="0" data-cell-col="1" data-surround-bits="0xdc7d52" data-edge-color="#2f3fbf" data-cell-quartile="2"><rect x="93" y="36" width="48" height="20" fill="#ade6c1"/><text x="117" y="46" fill="#000000" font-size="16" text-anchor="middle" dominant-baseline="central">weat</text><polygon points="141,36 131,36 141,46" fill="#000000"/></g><g data-channel="cell" data-cell-index="2" data-cell-row="1" data-cell-col="0" data-cell-blank="true"><rect x="33" y="76" width="48" height="20" rx="10" ry="10" fill="#e7be00" stroke="#000000" stroke-width="1"/></g><g data-channel="cell" data-cell-index="3" data-cell-row="1" data-cell-col="1" data-surround-bits="0xb0f589" data-edge-color="#e7be00" data-cell-quartile="1"><rect x="93" y="76" width="48" height="20" fill="#ebea85"/><text x="117" y="86" fill="#000000" font-size="16" text-anchor="middle" dominant-baseline="central">her</text><polygon points="93,76 103,76 93,86" fill="#000000"/></g></g></g><g data-channel="color-bar" data-bar-slots="9" data-bar-marker-left="0" data-bar-marker-right="6"><g data-color-bar-rank="0" data-color-bar-band="W"><rect x="1" y="1" width="20" height="25.216" fill="#ffffff"/><text x="11" y="22.696" fill="#000000" font-size="16" text-anchor="middle" data-color-bar-letter="true">w</text></g><g data-color-bar-rank="1" data-color-bar-band="K"><rect x="1" y="26.216" width="20" height="14.912" fill="#000000"/><text x="11" y="37.608" fill="#ffffff" font-size="16" text-anchor="middle" data-color-bar-letter="true">k</text></g><g data-color-bar-rank="2" data-color-bar-band="G"><rect x="1" y="41.128" width="20" height="57.861" fill="#e7be00"/><text x="11" y="95.468" fill="#000000" font-size="16" text-anchor="middle" data-color-bar-letter="true">g</text></g><g data-color-bar-rank="3" data-color-bar-band="B"><rect x="1" y="98.988" width="20" height="12.012" fill="#2f3fbf"/><text x="11" y="107.48" fill="#ffffff" font-size="16" text-anchor="middle" data-color-bar-letter="true">b</text></g><circle cx="5.6" cy="7.111" r="3.4" fill="#ffffff" stroke="#000000" stroke-width="0.75" data-bar-marker="left"/><circle cx="16.4" cy="80.444" r="3.4" fill="#ffffff" stroke="#000000" stroke-width="0.75" data-bar-marker="right"/></g><g data-channel="label-top"><text x="27" y="16" fill="#666666" font-size="12" dominant-baseline="central">urn:example:...</text></g><line x1="0" y1="0.5" x2="153" y2="0.5" stroke="#808080" stroke-width="1" shape-rendering="crispEdges"/><line x1="152.5" y1="0" x2="152.5" y2="112" stroke="#808080" stroke-width="1" shape-rendering="crispEdges"/><line x1="0" y1="111.5" x2="153" y2="111.5" stroke="#808080" stroke-width="1" shape-rendering="crispEdges"/><line x1="0.5" y1="0" x2="0.5" y2="112" stroke="#808080" stroke-width="1" shape-rendering="crispEdges"/><line x1="21.5" y1="0" x2="21.5" y2="112" stroke="#808080" stroke-width="1" shape-rendering="crispEdges"/></svg>