<svg width="155" height="114" viewBox="0 0 155 114" xmlns="http://www.w3.org/2000/svg" font-family="&quot;JetBrains Mono&quot;, &quot;Menlo&quot;, &quot;Consolas&quot;, &quot;DejaVu Sans Mono&quot;, &quot;Liberation Mono&quot;, &quot;Roboto Mono&quot;, &quot;Noto Sans Mono&quot;, monospace" data-entviz-version="v14" data-entviz-lib="0.14.0" data-input-bytes="19" data-cols="2" data-rows="2" data-encoding="base64url" data-scheme="urn" data-role="identifier" data-size-basis="utf8" data-entropy-type="urn" data-size-bits="56" data-qualifiers="{&quot;nid&quot;:&quot;example&quot;}" data-parts="[{&quot;text&quot;:&quot;urn:example:&quot;,&quot;bind&quot;:&quot;fold&quot;},{&quot;text&quot;:&quot;weather&quot;,&quot;bind&quot;:&quot;core&quot;}]"><defs><clipPath id="grid-clip-dc7d52b0f5891ef1-2x2"><rect x="28" y="27" width="120" height="80"/></clipPath></defs><rect x="1" y="1" width="153" height="112" fill="#ffffff"/><g data-channel="grid"><rect x="28" y="27" width="120" height="80" fill="#ff3f2f"/><g><path fill="#2f3fbf" d="M94 27h6v10h-6zM112 27h6v10h-6zM124 27h6v10h-6zM136 27h6v10h-6zM142 37h6v10h-6zM142 47h6v10h-6zM142 57h6v10h-6zM136 57h6v10h-6zM130 57h6v10h-6zM106 57h6v10h-6zM100 57h6v10h-6zM94 57h6v10h-6zM88 47h6v10h-6zM88 37h6v10h-6z"/><path fill="#e7be00" d="M88 67h6v10h-6zM106 67h6v10h-6zM130 67h6v10h-6zM136 67h6v10h-6zM142 77h6v10h-6zM142 97h6v10h-6zM136 97h6v10h-6zM130 97h6v10h-6zM124 97h6v10h-6zM94 97h6v10h-6zM88 97h6v10h-6zM88 77h6v10h-6z"/></g><g clip-path="url(#grid-clip-dc7d52b0f5891ef1-2x2)" data-channel="ellipse" data-ellipse-anchor-x="28" data-ellipse-anchor-y="67" data-ellipse-rx="67.293" data-ellipse-ry="49.079" data-ellipse-rotation-deg="0"><ellipse cx="28" cy="67" rx="67.293" ry="49.079" transform="rotate(0 28 67)" fill="#000000" stroke="#000000" fill-opacity="0.25" stroke-opacity="0.35" stroke-width="2"/></g><g><g data-channel="cell" data-cell-index="0" data-cell-row="0" data-cell-col="0" data-cell-blank="true" data-cell-blank-map="true"><rect x="34" y="37" width="48" height="20" rx="10" ry="10" fill="#ffffff" stroke="#000000" stroke-width="1"/><circle cx="70" cy="52" r="3.5" fill="#1d4ed8" data-blank-map-min="1,1"/><path d="M 65.8,42 H 74.2 M 70,37.8 V 46.2" fill="none" stroke="#d62828" stroke-width="1.925" stroke-linecap="butt" data-blank-map-max="0,1"/></g><g data-channel="cell" data-cell-index="1" data-cell-row="0" data-cell-col="1" data-surround-bits="0xdc7d52" data-edge-color="#2f3fbf" data-cell-quartile="2"><rect x="94" y="37" width="48" height="20" fill="#ade6c1"/><text x="118" y="47" fill="#000000" font-size="16" text-anchor="middle" dominant-baseline="central">weat</text><polygon points="142,37 132,37 142,47" fill="#000000"/></g><g data-channel="cell" data-cell-index="2" data-cell-row="1" data-cell-col="0" data-cell-blank="true"><rect x="34" y="77" width="48" height="20" rx="10" ry="10" fill="#e7be00" stroke="#000000" stroke-width="1"/></g><g data-channel="cell" data-cell-index="3" data-cell-row="1" data-cell-col="1" data-surround-bits="0xb0f589" data-edge-color="#e7be00" data-cell-quartile="1"><rect x="94" y="77" width="48" height="20" fill="#ebea85"/><text x="118" y="87" fill="#000000" font-size="16" text-anchor="middle" dominant-baseline="central">her</text><polygon points="94,77 104,77 94,87" fill="#000000"/></g></g></g><g data-channel="color-bar" data-bar-slots="9" data-bar-marker-left="0" data-bar-marker-right="6"><g data-color-bar-rank="0" data-color-bar-band="W"><rect x="2" y="2" width="20" height="25.216" fill="#ffffff"/><text x="12" y="23.696" fill="#000000" font-size="16" text-anchor="middle" data-color-bar-letter="true">w</text></g><g data-color-bar-rank="1" data-color-bar-band="K"><rect x="2" y="27.216" width="20" height="14.912" fill="#000000"/><text x="12" y="38.608" fill="#ffffff" font-size="16" text-anchor="middle" data-color-bar-letter="true">k</text></g><g data-color-bar-rank="2" data-color-bar-band="G"><rect x="2" y="42.128" width="20" height="57.861" fill="#e7be00"/><text x="12" y="96.468" fill="#000000" font-size="16" text-anchor="middle" data-color-bar-letter="true">g</text></g><g data-color-bar-rank="3" data-color-bar-band="B"><rect x="2" y="99.988" width="20" height="12.012" fill="#2f3fbf"/><text x="12" y="108.48" fill="#ffffff" font-size="16" text-anchor="middle" data-color-bar-letter="true">b</text></g><circle cx="6.6" cy="8.111" r="3.4" fill="#ffffff" stroke="#000000" stroke-width="0.75" data-bar-marker="left"/><circle cx="17.4" cy="81.444" r="3.4" fill="#ffffff" stroke="#000000" stroke-width="0.75" data-bar-marker="right"/></g><g data-channel="label-top"><text x="28" y="17" fill="#666666" font-size="12" dominant-baseline="central">urn:example</text></g><line x1="1" y1="1.5" x2="154" y2="1.5" stroke="#808080" stroke-width="1" shape-rendering="crispEdges"/><line x1="153.5" y1="1" x2="153.5" y2="113" stroke="#808080" stroke-width="1" shape-rendering="crispEdges"/><line x1="1" y1="112.5" x2="154" y2="112.5" stroke="#808080" stroke-width="1" shape-rendering="crispEdges"/><line x1="1.5" y1="1" x2="1.5" y2="113" stroke="#808080" stroke-width="1" shape-rendering="crispEdges"/><line x1="22.5" y1="1" x2="22.5" y2="113" stroke="#808080" stroke-width="1" shape-rendering="crispEdges"/></svg>