<svg width="192.0" height="128.0" xmlns="http://www.w3.org/2000/svg">
<!-- background -->
<rect x="0" y="0" width="192" height="128" fill="#ffffff"/>

<!-- ── Fp2T ── nucleus + text -->
<rect x="8" y="8" width="48" height="16" fill="#939d16"/>
<text x="32" y="16" fill="#ffffff" style="font-family:monospace;font-size:16px" text-anchor="middle" dominant-baseline="central">Fp2T</text>
<!-- E0 slash/ black --><polygon points="8,8 11,8 32,0 29,0" fill="#000000"/>
<!-- E1 circle gold  --><circle cx="44" cy="4" r="3" fill="#ffd966"/>
<!-- E2 bar-v black  --><rect x="59" y="8" width="2" height="16" fill="#000000"/>
<!-- E3 bar-h blue   --><rect x="32" y="27" width="24" height="2" fill="#2f3fbf"/>
<!-- E4 bar-h blue   --><rect x="8" y="27" width="24" height="2" fill="#2f3fbf"/>
<!-- E5 bar-v gold   --><rect x="3" y="8" width="2" height="16" fill="#ffd966"/>

<!-- ── lKp3 ── nucleus + text -->
<rect x="72" y="8" width="48" height="16" fill="#77aa94"/>
<text x="96" y="16" fill="#ffffff" style="font-family:monospace;font-size:16px" text-anchor="middle" dominant-baseline="central">lKp3</text>
<!-- E0 circle red   --><circle cx="84" cy="4" r="3" fill="#ffdf2f"/>
<!-- E1 chevron-top gold --><polygon points="97,0 108,7 119,0 116,0 108,5 100,0" fill="#ffd966"/>
<!-- E2 chevron-right blue --><polygon points="128,9 121,16 128,23 128,20 123,16 128,12" fill="#2f3fbf"/>
<!-- E3 circle black  --><circle cx="108" cy="28" r="3" fill="#000000"/>
<!-- E4 circle blue   --><circle cx="84" cy="28" r="3" fill="#2f3fbf"/>
<!-- E5 bar-v blue    --><rect x="67" y="8" width="2" height="16" fill="#2f3fbf"/>

<!-- ── Ub9a ── nucleus + text -->
<rect x="136" y="8" width="48" height="16" fill="#5abf51"/>
<text x="160" y="16" fill="#ffffff" style="font-family:monospace;font-size:16px" text-anchor="middle" dominant-baseline="central">Ub9a</text>
<!-- E0 chevron-top blue --><polygon points="137,0 148,7 159,0 156,0 148,5 140,0" fill="#2f3fbf"/>
<!-- E1 bar-h gold    --><rect x="160" y="3" width="24" height="2" fill="#ffd966"/>
<!-- E2 circle red    --><circle cx="188" cy="16" r="3" fill="#ffdf2f"/>
<!-- E3 chevron-bot gold --><polygon points="161,32 172,25 183,32 180,32 172,27 164,32" fill="#ffd966"/>
<!-- E4 slash\ red    --><polygon points="136,24 139,24 160,32 157,32" fill="#ffdf2f"/>
<!-- E5 bar-v gold    --><rect x="131" y="8" width="2" height="16" fill="#ffd966"/>

<!-- ── 4IWr ── nucleus + text -->
<rect x="8" y="40" width="48" height="16" fill="#ab85e0"/>
<text x="32" y="48" fill="#ffffff" style="font-family:monospace;font-size:16px" text-anchor="middle" dominant-baseline="central">4IWr</text>
<!-- E0 chevron-top red --><polygon points="9,32 20,39 31,32 28,32 20,37 12,32" fill="#ffdf2f"/>
<!-- E1 circle red    --><circle cx="44" cy="36" r="3" fill="#ffdf2f"/>
<!-- E2 circle red    --><circle cx="60" cy="48" r="3" fill="#ffdf2f"/>
<!-- E3 bar-h red     --><rect x="32" y="59" width="24" height="2" fill="#ffdf2f"/>
<!-- E4 slash\ blue   --><polygon points="8,56 11,56 32,64 29,64" fill="#2f3fbf"/>
<!-- E5 chevron-left red --><polygon points="0,41 7,48 0,55 0,52 5,48 0,44" fill="#ffdf2f"/>

<!-- ── rpZ9 ── nucleus + text -->
<rect x="72" y="40" width="48" height="16" fill="#7d96ae"/>
<text x="96" y="48" fill="#ffffff" style="font-family:monospace;font-size:16px" text-anchor="middle" dominant-baseline="central">rpZ9</text>
<!-- E0 bar-h red     --><rect x="72" y="35" width="24" height="2" fill="#ffdf2f"/>
<!-- E1 chevron-top blue --><polygon points="97,32 108,39 119,32 116,32 108,37 100,32" fill="#2f3fbf"/>
<!-- E2 bar-v gold    --><rect x="123" y="40" width="2" height="16" fill="#ffd966"/>
<!-- E3 circle blue   --><circle cx="108" cy="60" r="3" fill="#2f3fbf"/>
<!-- E4 bar-h blue    --><rect x="72" y="59" width="24" height="2" fill="#2f3fbf"/>
<!-- E5 bar-v black   --><rect x="67" y="40" width="2" height="16" fill="#000000"/>

<!-- ── n82b ── nucleus + text -->
<rect x="136" y="40" width="48" height="16" fill="#9bcd9f"/>
<text x="160" y="48" fill="#000000" style="font-family:monospace;font-size:16px" text-anchor="middle" dominant-baseline="central">n82b</text>
<!-- E0 chevron-top red --><polygon points="137,32 148,39 159,32 156,32 148,37 140,32" fill="#ffdf2f"/>
<!-- E1 chevron-top blue --><polygon points="161,32 172,39 183,32 180,32 172,37 164,32" fill="#2f3fbf"/>
<!-- E2 circle red    --><circle cx="188" cy="48" r="3" fill="#ffdf2f"/>
<!-- E3 circle red    --><circle cx="172" cy="60" r="3" fill="#ffdf2f"/>
<!-- E4 circle red    --><circle cx="148" cy="60" r="3" fill="#ffdf2f"/>
<!-- E5 chevron-right blue --><polygon points="128,41 135,48 128,55 128,52 133,48 128,44" fill="#2f3fbf"/>

<!-- ── WDFI ── nucleus + text -->
<rect x="8" y="72" width="48" height="16" fill="#483158"/>
<text x="32" y="80" fill="#ffffff" style="font-family:monospace;font-size:16px" text-anchor="middle" dominant-baseline="central">WDFI</text>
<!-- E0 chevron-top gold --><polygon points="9,64 20,71 31,64 28,64 20,69 12,64" fill="#ffd966"/>
<!-- E1 slash/ red    --><polygon points="32,72 35,72 56,64 53,64" fill="#ffdf2f"/>
<!-- E2 chevron-right black --><polygon points="64,73 57,80 64,87 64,84 59,80 64,76" fill="#000000"/>
<!-- E3 circle gold   --><circle cx="44" cy="92" r="3" fill="#ffd966"/>
<!-- E4 chevron-bot gold --><polygon points="9,96 20,89 31,96 28,96 20,91 12,96" fill="#ffd966"/>
<!-- E5 slash-vert gold --><polygon points="0,88 2,88 8,72 6,72" fill="#ffd966"/>

<!-- cell (1,2) is blank — no shapes -->

<!-- ── lFSE ── nucleus + text -->
<rect x="136" y="72" width="48" height="16" fill="#845494"/>
<text x="160" y="80" fill="#ffffff" style="font-family:monospace;font-size:16px" text-anchor="middle" dominant-baseline="central">lFSE</text>
<!-- E0 circle blue   --><circle cx="148" cy="68" r="3" fill="#2f3fbf"/>
<!-- E1 bar-h black   --><rect x="160" y="67" width="24" height="2" fill="#000000"/>
<!-- E2 bar-v gold    --><rect x="187" y="72" width="2" height="16" fill="#ffd966"/>
<!-- E3 slash\ gold   --><polygon points="160,88 163,88 184,96 181,96" fill="#ffd966"/>
<!-- E4 circle blue   --><circle cx="148" cy="92" r="3" fill="#2f3fbf"/>
<!-- E5 bar-v blue    --><rect x="131" y="72" width="2" height="16" fill="#2f3fbf"/>

<!-- ── r6xs ── nucleus + text -->
<rect x="8" y="104" width="48" height="16" fill="#6cacaf"/>
<text x="32" y="112" fill="#ffffff" style="font-family:monospace;font-size:16px" text-anchor="middle" dominant-baseline="central">r6xs</text>
<!-- E0 circle gold   --><circle cx="20" cy="100" r="3" fill="#ffd966"/>
<!-- E1 bar-h black   --><rect x="32" y="99" width="24" height="2" fill="#000000"/>
<!-- E2 circle blue   --><circle cx="60" cy="112" r="3" fill="#2f3fbf"/>
<!-- E3 chevron-bot red --><polygon points="33,128 44,121 55,128 52,128 44,123 36,128" fill="#ffdf2f"/>
<!-- E4 circle black  --><circle cx="20" cy="124" r="3" fill="#000000"/>
<!-- E5 chevron-left black --><polygon points="0,105 7,112 0,119 0,116 5,112 0,108" fill="#000000"/>

<!-- ── vK4z ── nucleus + text -->
<rect x="72" y="104" width="48" height="16" fill="#33aebc"/>
<text x="96" y="112" fill="#ffffff" style="font-family:monospace;font-size:16px" text-anchor="middle" dominant-baseline="central">vK4z</text>
<!-- E0 slash/ red    --><polygon points="72,104 75,104 96,96 93,96" fill="#ffdf2f"/>
<!-- E1 bar-h gold    --><rect x="96" y="99" width="24" height="2" fill="#ffd966"/>
<!-- E2 bar-v blue    --><rect x="123" y="104" width="2" height="16" fill="#2f3fbf"/>
<!-- E3 bar-h black   --><rect x="96" y="123" width="24" height="2" fill="#000000"/>
<!-- E4 circle blue   --><circle cx="84" cy="124" r="3" fill="#2f3fbf"/>
<!-- E5 circle gold   --><circle cx="68" cy="112" r="3" fill="#ffd966"/>

<!-- ── 5u5 ── nucleus + text -->
<rect x="136" y="104" width="48" height="16" fill="#79eee6"/>
<text x="160" y="112" fill="#000000" style="font-family:monospace;font-size:16px" text-anchor="middle" dominant-baseline="central">5u5</text>
<!-- E0 slash/ red    --><polygon points="136,104 139,104 160,96 157,96" fill="#ffdf2f"/>
<!-- E1 chevron-top blue --><polygon points="161,96 172,103 183,96 180,96 172,101 164,96" fill="#2f3fbf"/>
<!-- E2 circle gold   --><circle cx="188" cy="112" r="3" fill="#ffd966"/>
<!-- E3 chevron-bot red --><polygon points="161,128 172,121 183,128 180,128 172,123 164,128" fill="#ffdf2f"/>
<!-- E4 circle blue   --><circle cx="148" cy="124" r="3" fill="#2f3fbf"/>
<!-- E5 slash-vert black --><polygon points="128,120 130,120 136,104 134,104" fill="#000000"/>

<!-- quartile marks (unchanged) -->
<circle cx="66" cy="2" r="2" fill="#ffd966"/>
<circle cx="190" cy="66" r="2" fill="#ffdf2f"/>
<circle cx="190" cy="30" r="2" fill="#2f3fbf"/>
<circle cx="2" cy="126" r="2" fill="#000000"/>
</svg>
