<svg width="420" height="250" xmlns="http://www.w3.org/2000/svg">
  <rect width="420" height="250" fill="#ffffff"/>

  <!-- Container A -->
  <rect x="15" y="15" width="185" height="225" rx="10" fill="#ffffff" stroke="#bbb" stroke-width="1"/>
  <text x="32" y="36" font-family="sans-serif" font-size="14" font-style="italic" fill="#666">array 0</text>

  <!-- Container B -->
  <rect x="215" y="15" width="190" height="225" rx="10" fill="#ffffff" stroke="#bbb" stroke-width="1"/>
  <text x="232" y="36" font-family="sans-serif" font-size="14" font-style="italic" fill="#666">array 1</text>

  <!-- ===== Array 0 ===== -->

  <g transform="translate(92, 50)">
    <rect width="96" height="32" fill="none" stroke="#ff00ff" stroke-width="1.5"/>
    <g transform="scale(4)">
      <path d="M 0,0 L 12,0 C 12,4.4 6.6,8 0,8 Z" fill="#cfe2f3" stroke="#000" stroke-width="0.4"/>
    </g>
  </g>
  <text x="84" y="72" font-family="sans-serif" font-size="14" text-anchor="end" fill="#333">fin</text>

  <g transform="translate(92, 92)">
    <rect width="96" height="32" fill="none" stroke="#ff00ff" stroke-width="1.5"/>
    <g transform="scale(4)">
      <path d="M 6,0 L 18,0 C 17,5 14,7 12,8 C 10,7 7,5 6,0 Z" fill="#cfe2f3" stroke="#000" stroke-width="0.4"/>
    </g>
  </g>
  <text x="84" y="114" font-family="sans-serif" font-size="14" text-anchor="end" fill="#333">funnel</text>

  <g transform="translate(92, 134)">
    <rect width="96" height="32" fill="none" stroke="#ff00ff" stroke-width="1.5"/>
    <g transform="scale(4)">
      <path d="M 4,0 L 20,0 Q 24,0 24,4 Q 24,8 20,8 L 4,8 Q 0,8 0,4 Q 0,0 4,0 Z" fill="#cfe2f3" stroke="#000" stroke-width="0.4"/>
    </g>
  </g>
  <text x="84" y="156" font-family="sans-serif" font-size="14" text-anchor="end" fill="#333">brick</text>

  <g transform="translate(92, 176)">
    <rect width="96" height="32" fill="none" stroke="#ff00ff" stroke-width="1.5"/>
    <g transform="scale(4)">
      <path d="M 12,4 Q 12,-4 18,4 Q 24,12 24,4 Q 24,-4 18,4 Q 12,12 12,4 Z" fill="#cfe2f3" stroke="#000" stroke-width="0.4"/>
    </g>
  </g>
  <text x="84" y="198" font-family="sans-serif" font-size="14" text-anchor="end" fill="#333">pos-inf</text>

  <!-- ===== Array 1 ===== -->

  <g transform="translate(232, 50)">
    <rect width="96" height="32" fill="none" stroke="#ff00ff" stroke-width="1.5"/>
    <g transform="scale(4)">
      <path d="M 12,0 C 12,4.4 17.4,8 24,8 L 24,0 Z" fill="#cfe2f3" stroke="#000" stroke-width="0.4"/>
    </g>
  </g>
  <text x="336" y="72" font-family="sans-serif" font-size="14" text-anchor="start" fill="#333">keel</text>

  <g transform="translate(232, 92)">
    <rect width="96" height="32" fill="none" stroke="#ff00ff" stroke-width="1.5"/>
    <g transform="scale(4)">
      <path d="M 4,8 L 20,8 C 20,3 16,0 12,0 C 8,0 4,3 4,8 Z" fill="#cfe2f3" stroke="#000" stroke-width="0.4"/>
    </g>
  </g>
  <text x="336" y="114" font-family="sans-serif" font-size="14" text-anchor="start" fill="#333">mound</text>

  <g transform="translate(232, 134)">
    <rect width="96" height="32" fill="none" stroke="#ff00ff" stroke-width="1.5"/>
    <!-- hole: no shape -->
  </g>
  <text x="336" y="156" font-family="sans-serif" font-size="14" text-anchor="start" fill="#333">hole</text>

  <g transform="translate(232, 176)">
    <rect width="96" height="32" fill="none" stroke="#ff00ff" stroke-width="1.5"/>
    <g transform="scale(4)">
      <path d="M 0,4 Q 0,-4 6,4 Q 12,12 12,4 Q 12,-4 6,4 Q 0,12 0,4 Z" fill="#cfe2f3" stroke="#000" stroke-width="0.4"/>
    </g>
  </g>
  <text x="336" y="198" font-family="sans-serif" font-size="14" text-anchor="start" fill="#333">neg-inf</text>
</svg>
