<svg width="192.0" height="128.0" xmlns="http://www.w3.org/2000/svg"><rect x="0" y="0" width="192.0" height="128.0" fill="#ffd966"/><rect x="8.0" y="8.0" width="48.0" height="16.0" fill="#beadde"/><text x="32.0" y="16.0" fill="#ffffff" style="font-family: monospace; font-size: 16.0px;" text-anchor="middle" dominant-baseline="central">DEADBE</text><rect x="16.0" y="0.0" width="8.0" height="8.0" fill="#2f3fbf"/><rect x="40.0" y="0.0" width="8.0" height="8.0" fill="#2f3fbf"/><rect x="56.0" y="8.0" width="2.0" height="12.0" fill="#000000"/><rect x="56.0" y="20.0" width="8.0" height="4.0" fill="#000000"/><rect x="36.0" y="30.0" width="20.0" height="2.0" fill="#ffdf2f"/><rect x="32.0" y="24.0" width="4.0" height="8.0" fill="#ffdf2f"/><rect x="16.0" y="24.0" width="8.0" height="8.0" fill="#2f3fbf"/><polygon points="0.0,8.0 8.0,8.0 0.0,16.0" fill="#ffffff"/><polygon points="0.0,24.0 8.0,16.0 8.0,24.0" fill="#ffffff"/><rect x="72.0" y="8.0" width="48.0" height="16.0" fill="#3412ef"/><text x="96.0" y="16.0" fill="#ffffff" style="font-family: monospace; font-size: 16.0px;" text-anchor="middle" dominant-baseline="central">EF1234</text><rect x="80.0" y="0.0" width="8.0" height="8.0" fill="#2f3fbf"/><rect x="104.0" y="0.0" width="8.0" height="8.0" fill="#ffffff"/><polygon points="120.0,8.0 128.0,8.0 120.0,24.0" fill="#2f3fbf"/><rect x="100.0" y="30.0" width="20.0" height="2.0" fill="#ffffff"/><rect x="96.0" y="24.0" width="4.0" height="8.0" fill="#ffffff"/><rect x="76.0" y="30.0" width="20.0" height="2.0" fill="#ffdf2f"/><rect x="72.0" y="24.0" width="4.0" height="8.0" fill="#ffdf2f"/><polygon points="64.0,24.0 72.0,8.0 72.0,24.0" fill="#ffdf2f"/><rect x="136.0" y="8.0" width="48.0" height="16.0" fill="#907856"/><text x="160.0" y="16.0" fill="#ffffff" style="font-family: monospace; font-size: 16.0px;" text-anchor="middle" dominant-baseline="central">567890</text><polygon points="136.0,0.0 136.0,8.0 160.0,8.0" fill="#ffffff"/><polygon points="160.0,0.0 168.0,0.0 168.0,8.0" fill="#ffffff"/><rect x="168.0" y="0.0" width="8.0" height="8.0" fill="#ffffff"/><polygon points="176.0,0.0 176.0,8.0 184.0,8.0" fill="#ffffff"/><polygon points="184.0,16.0 192.0,8.0 192.0,16.0" fill="#2f3fbf"/><polygon points="184.0,16.0 192.0,16.0 184.0,24.0" fill="#2f3fbf"/><rect x="164.0" y="30.0" width="20.0" height="2.0" fill="#ffffff"/><rect x="160.0" y="24.0" width="4.0" height="8.0" fill="#ffffff"/><rect x="140.0" y="30.0" width="20.0" height="2.0" fill="#2f3fbf"/><rect x="136.0" y="24.0" width="4.0" height="8.0" fill="#2f3fbf"/><rect x="134.0" y="12.0" width="2.0" height="12.0" fill="#ffffff"/><rect x="128.0" y="8.0" width="8.0" height="4.0" fill="#ffffff"/><rect x="8.0" y="40.0" width="48.0" height="16.0" fill="#efcdab"/><text x="32.0" y="48.0" fill="#000000" style="font-family: monospace; font-size: 16.0px;" text-anchor="middle" dominant-baseline="central">ABCDEF</text><rect x="16.0" y="32.0" width="8.0" height="8.0" fill="#ffdf2f"/><polygon points="32.0,32.0 40.0,32.0 40.0,40.0" fill="#ffdf2f"/><rect x="40.0" y="32.0" width="8.0" height="8.0" fill="#ffdf2f"/><polygon points="48.0,32.0 48.0,40.0 56.0,40.0" fill="#ffdf2f"/><rect x="56.0" y="40.0" width="2.0" height="12.0" fill="#ffdf2f"/><rect x="56.0" y="52.0" width="8.0" height="4.0" fill="#ffdf2f"/><polygon points="32.0,56.0 56.0,56.0 56.0,64.0" fill="#ffdf2f"/><polygon points="8.0,56.0 8.0,64.0 16.0,64.0" fill="#ffdf2f"/><rect x="16.0" y="56.0" width="8.0" height="8.0" fill="#ffdf2f"/><polygon points="24.0,56.0 32.0,56.0 32.0,64.0" fill="#ffdf2f"/><rect x="0.0" y="44.0" width="8.0" height="8.0" fill="#ffdf2f"/><rect x="72.0" y="40.0" width="48.0" height="16.0" fill="#563412"/><text x="96.0" y="48.0" fill="#ffffff" style="font-family: monospace; font-size: 16.0px;" text-anchor="middle" dominant-baseline="central">123456</text><rect x="80.0" y="32.0" width="8.0" height="8.0" fill="#2f3fbf"/><polygon points="96.0,32.0 104.0,32.0 104.0,40.0" fill="#ffffff"/><rect x="104.0" y="32.0" width="8.0" height="8.0" fill="#ffffff"/><polygon points="112.0,32.0 112.0,40.0 120.0,40.0" fill="#ffffff"/><rect x="120.0" y="40.0" width="2.0" height="12.0" fill="#2f3fbf"/><rect x="120.0" y="52.0" width="8.0" height="4.0" fill="#2f3fbf"/><rect x="100.0" y="62.0" width="20.0" height="2.0" fill="#ffffff"/><rect x="96.0" y="56.0" width="4.0" height="8.0" fill="#ffffff"/><polygon points="72.0,56.0 72.0,64.0 80.0,64.0" fill="#2f3fbf"/><rect x="80.0" y="56.0" width="8.0" height="8.0" fill="#2f3fbf"/><polygon points="88.0,56.0 96.0,56.0 96.0,64.0" fill="#2f3fbf"/><rect x="64.0" y="44.0" width="8.0" height="8.0" fill="#ffffff"/><rect x="136.0" y="40.0" width="48.0" height="16.0" fill="#ab9078"/><text x="160.0" y="48.0" fill="#ffffff" style="font-family: monospace; font-size: 16.0px;" text-anchor="middle" dominant-baseline="central">7890AB</text><polygon points="136.0,32.0 144.0,32.0 144.0,40.0" fill="#ffdf2f"/><rect x="144.0" y="32.0" width="8.0" height="8.0" fill="#ffdf2f"/><polygon points="152.0,32.0 152.0,40.0 160.0,40.0" fill="#ffdf2f"/><polygon points="160.0,32.0 168.0,32.0 168.0,40.0" fill="#ffdf2f"/><rect x="168.0" y="32.0" width="8.0" height="8.0" fill="#ffdf2f"/><polygon points="176.0,32.0 176.0,40.0 184.0,40.0" fill="#ffdf2f"/><polygon points="184.0,40.0 192.0,40.0 184.0,56.0" fill="#ffffff"/><polygon points="160.0,56.0 160.0,64.0 168.0,64.0" fill="#ffffff"/><rect x="168.0" y="56.0" width="8.0" height="8.0" fill="#ffffff"/><polygon points="176.0,56.0 184.0,56.0 184.0,64.0" fill="#ffffff"/><polygon points="136.0,56.0 136.0,64.0 144.0,64.0" fill="#2f3fbf"/><rect x="144.0" y="56.0" width="8.0" height="8.0" fill="#2f3fbf"/><polygon points="152.0,56.0 160.0,56.0 160.0,64.0" fill="#2f3fbf"/><rect x="134.0" y="44.0" width="2.0" height="12.0" fill="#ffffff"/><rect x="128.0" y="40.0" width="8.0" height="4.0" fill="#ffffff"/><rect x="8.0" y="72.0" width="48.0" height="16.0" fill="#12efcd"/><text x="32.0" y="80.0" fill="#000000" style="font-family: monospace; font-size: 16.0px;" text-anchor="middle" dominant-baseline="central">CDEF12</text><polygon points="8.0,64.0 8.0,72.0 32.0,72.0" fill="#2f3fbf"/><rect x="32.0" y="64.0" width="20.0" height="2.0" fill="#ffffff"/><rect x="52.0" y="64.0" width="4.0" height="8.0" fill="#ffffff"/><rect x="56.0" y="72.0" width="2.0" height="12.0" fill="#ffdf2f"/><rect x="56.0" y="84.0" width="8.0" height="4.0" fill="#ffdf2f"/><polygon points="32.0,88.0 56.0,88.0 56.0,96.0" fill="#ffdf2f"/><rect x="16.0" y="88.0" width="8.0" height="8.0" fill="#ffdf2f"/><polygon points="0.0,72.0 8.0,72.0 0.0,80.0" fill="#ffdf2f"/><polygon points="0.0,88.0 8.0,80.0 8.0,88.0" fill="#ffdf2f"/><rect x="72.0" y="72.0" width="48.0" height="16.0" fill="#785634"/><text x="96.0" y="80.0" fill="#ffffff" style="font-family: monospace; font-size: 16.0px;" text-anchor="middle" dominant-baseline="central">345678</text><polygon points="72.0,64.0 72.0,72.0 96.0,72.0" fill="#2f3fbf"/><polygon points="96.0,64.0 104.0,64.0 104.0,72.0" fill="#ffffff"/><rect x="104.0" y="64.0" width="8.0" height="8.0" fill="#ffffff"/><polygon points="112.0,64.0 112.0,72.0 120.0,72.0" fill="#ffffff"/><rect x="120.0" y="72.0" width="2.0" height="12.0" fill="#2f3fbf"/><rect x="120.0" y="84.0" width="8.0" height="4.0" fill="#2f3fbf"/><polygon points="96.0,88.0 120.0,88.0 120.0,96.0" fill="#ffffff"/><rect x="80.0" y="88.0" width="8.0" height="8.0" fill="#2f3fbf"/><rect x="64.0" y="76.0" width="8.0" height="8.0" fill="#ffffff"/><rect x="8.0" y="104.0" width="48.0" height="16.0" fill="#cdab90"/><text x="32.0" y="112.0" fill="#ffffff" style="font-family: monospace; font-size: 16.0px;" text-anchor="middle" dominant-baseline="central">90ABCD</text><rect x="16.0" y="96.0" width="8.0" height="8.0" fill="#ffdf2f"/><rect x="40.0" y="96.0" width="8.0" height="8.0" fill="#ffdf2f"/><polygon points="56.0,112.0 64.0,104.0 64.0,112.0" fill="#ffdf2f"/><polygon points="56.0,112.0 64.0,112.0 56.0,120.0" fill="#ffdf2f"/><polygon points="32.0,120.0 32.0,128.0 40.0,128.0" fill="#ffdf2f"/><rect x="40.0" y="120.0" width="8.0" height="8.0" fill="#ffdf2f"/><polygon points="48.0,120.0 56.0,120.0 56.0,128.0" fill="#ffdf2f"/><polygon points="8.0,120.0 32.0,120.0 32.0,128.0" fill="#ffffff"/><polygon points="0.0,104.0 8.0,104.0 0.0,112.0" fill="#ffffff"/><polygon points="0.0,120.0 8.0,112.0 8.0,120.0" fill="#ffffff"/><rect x="72.0" y="104.0" width="48.0" height="16.0" fill="#3412ef"/><text x="96.0" y="112.0" fill="#ffffff" style="font-family: monospace; font-size: 16.0px;" text-anchor="middle" dominant-baseline="central">EF1234</text><rect x="72.0" y="96.0" width="20.0" height="2.0" fill="#2f3fbf"/><rect x="92.0" y="96.0" width="4.0" height="8.0" fill="#2f3fbf"/><rect x="96.0" y="96.0" width="20.0" height="2.0" fill="#ffffff"/><rect x="116.0" y="96.0" width="4.0" height="8.0" fill="#ffffff"/><polygon points="120.0,112.0 128.0,104.0 128.0,112.0" fill="#2f3fbf"/><polygon points="120.0,112.0 128.0,112.0 120.0,120.0" fill="#2f3fbf"/><rect x="104.0" y="120.0" width="8.0" height="8.0" fill="#ffffff"/><rect x="80.0" y="120.0" width="8.0" height="8.0" fill="#ffdf2f"/><polygon points="64.0,104.0 72.0,104.0 64.0,112.0" fill="#ffdf2f"/><polygon points="64.0,120.0 72.0,112.0 72.0,120.0" fill="#ffdf2f"/><rect x="136.0" y="104.0" width="48.0" height="16.0" fill="#787856"/><text x="160.0" y="112.0" fill="#ffffff" style="font-family: monospace; font-size: 16.0px;" text-anchor="middle" dominant-baseline="central">5678</text><polygon points="136.0,96.0 136.0,104.0 160.0,104.0" fill="#ffffff"/><polygon points="160.0,96.0 168.0,96.0 168.0,104.0" fill="#2f3fbf"/><rect x="168.0" y="96.0" width="8.0" height="8.0" fill="#2f3fbf"/><polygon points="176.0,96.0 176.0,104.0 184.0,104.0" fill="#2f3fbf"/><polygon points="184.0,112.0 192.0,104.0 192.0,112.0" fill="#2f3fbf"/><polygon points="184.0,112.0 192.0,112.0 184.0,120.0" fill="#2f3fbf"/><polygon points="160.0,120.0 184.0,120.0 184.0,128.0" fill="#ffffff"/><rect x="144.0" y="120.0" width="8.0" height="8.0" fill="#2f3fbf"/><polygon points="128.0,104.0 136.0,104.0 128.0,112.0" fill="#ffffff"/><polygon points="128.0,120.0 136.0,112.0 136.0,120.0" fill="#ffffff"/><circle cx="130.0" cy="2.0" r="2.0" fill="#ffffff"/><circle cx="126.0" cy="98.0" r="2.0" fill="#ffdf2f"/><circle cx="126.0" cy="94.0" r="2.0" fill="#2f3fbf"/><circle cx="2.0" cy="30.0" r="2.0" fill="#000000"/></svg>