<svg width="256.0" height="192.0" xmlns="http://www.w3.org/2000/svg"><rect x="0" y="0" width="256.0" height="192.0" fill="#ffdf2f"/><rect x="72.0" y="8.0" width="48.0" height="16.0" fill="#beadde"/><text x="96.0" y="16.0" fill="#ffffff" style="font-family: monospace; font-size: 16.0px;" text-anchor="middle" dominant-baseline="central">DEADBE</text><rect x="80.0" y="0.0" width="2.0" height="8.0" fill="#2f3fbf"/><rect x="86.0" y="0.0" width="2.0" height="8.0" fill="#2f3fbf"/><rect x="104.0" y="0.0" width="2.0" height="8.0" fill="#2f3fbf"/><rect x="110.0" y="0.0" width="2.0" height="8.0" fill="#2f3fbf"/><rect x="120.0" y="14.0" width="8.0" height="4.0" fill="#000000"/><rect x="123.0" y="11.0" width="2.0" height="10.0" fill="#000000"/><rect x="106.0" y="24.0" width="4.0" height="8.0" fill="#ffd966"/><rect x="99.0" y="28.0" width="18.0" height="2.0" fill="#ffd966"/><rect x="80.0" y="24.0" width="2.0" height="8.0" fill="#2f3fbf"/><rect x="86.0" y="24.0" width="2.0" height="8.0" fill="#2f3fbf"/><polygon points="64.0,8.0 72.0,8.0 64.0,16.0" fill="#ffffff"/><polygon points="64.0,24.0 72.0,16.0 72.0,24.0" fill="#ffffff"/><rect x="136.0" y="8.0" width="48.0" height="16.0" fill="#addeef"/><text x="160.0" y="16.0" fill="#000000" style="font-family: monospace; font-size: 16.0px;" text-anchor="middle" dominant-baseline="central">EFDEAD</text><rect x="146.0" y="0.0" width="4.0" height="8.0" fill="#000000"/><rect x="139.0" y="2.0" width="18.0" height="2.0" fill="#000000"/><rect x="170.0" y="0.0" width="4.0" height="8.0" fill="#ffd966"/><rect x="163.0" y="2.0" width="18.0" height="2.0" fill="#ffd966"/><rect x="184.0" y="12.0" width="8.0" height="2.0" fill="#2f3fbf"/><rect x="184.0" y="18.0" width="8.0" height="2.0" fill="#2f3fbf"/><polygon points="160.0,24.0 160.0,32.0 168.0,32.0" fill="#ffffff"/><rect x="168.0" y="24.0" width="8.0" height="8.0" fill="#ffffff"/><polygon points="176.0,24.0 184.0,24.0 184.0,32.0" fill="#ffffff"/><rect x="146.0" y="24.0" width="4.0" height="8.0" fill="#ffd966"/><rect x="139.0" y="28.0" width="18.0" height="2.0" fill="#ffd966"/><polygon points="128.0,24.0 136.0,8.0 136.0,24.0" fill="#ffd966"/><rect x="200.0" y="8.0" width="48.0" height="16.0" fill="#deefbe"/><text x="224.0" y="16.0" fill="#000000" style="font-family: monospace; font-size: 16.0px;" text-anchor="middle" dominant-baseline="central">BEEFDE</text><rect x="208.0" y="0.0" width="2.0" height="8.0" fill="#2f3fbf"/><rect x="214.0" y="0.0" width="2.0" height="8.0" fill="#2f3fbf"/><polygon points="224.0,0.0 232.0,0.0 232.0,8.0" fill="#ffffff"/><rect x="232.0" y="0.0" width="8.0" height="8.0" fill="#ffffff"/><polygon points="240.0,0.0 240.0,8.0 248.0,8.0" fill="#ffffff"/><rect x="248.0" y="14.0" width="8.0" height="4.0" fill="#ffd966"/><rect x="251.0" y="11.0" width="2.0" height="10.0" fill="#ffd966"/><polygon points="224.0,24.0 248.0,24.0 248.0,32.0" fill="#ffd966"/><rect x="208.0" y="24.0" width="2.0" height="8.0" fill="#2f3fbf"/><rect x="214.0" y="24.0" width="2.0" height="8.0" fill="#2f3fbf"/><rect x="192.0" y="12.0" width="8.0" height="2.0" fill="#2f3fbf"/><rect x="192.0" y="18.0" width="8.0" height="2.0" fill="#2f3fbf"/><rect x="8.0" y="40.0" width="48.0" height="16.0" fill="#efbead"/><text x="32.0" y="48.0" fill="#000000" style="font-family: monospace; font-size: 16.0px;" text-anchor="middle" dominant-baseline="central">ADBEEF</text><rect x="18.0" y="32.0" width="4.0" height="8.0" fill="#ffd966"/><rect x="11.0" y="34.0" width="18.0" height="2.0" fill="#ffd966"/><rect x="42.0" y="32.0" width="4.0" height="8.0" fill="#ffd966"/><rect x="35.0" y="34.0" width="18.0" height="2.0" fill="#ffd966"/><rect x="56.0" y="46.0" width="8.0" height="4.0" fill="#2f3fbf"/><rect x="59.0" y="43.0" width="2.0" height="10.0" fill="#2f3fbf"/><polygon points="32.0,56.0 56.0,56.0 56.0,64.0" fill="#2f3fbf"/><rect x="18.0" y="56.0" width="4.0" height="8.0" fill="#000000"/><rect x="11.0" y="60.0" width="18.0" height="2.0" fill="#000000"/><polygon points="0.0,56.0 8.0,40.0 8.0,56.0" fill="#ffd966"/><rect x="72.0" y="40.0" width="48.0" height="16.0" fill="#beadde"/><text x="96.0" y="48.0" fill="#ffffff" style="font-family: monospace; font-size: 16.0px;" text-anchor="middle" dominant-baseline="central">DEADBE</text><rect x="82.0" y="32.0" width="4.0" height="8.0" fill="#ffffff"/><rect x="75.0" y="34.0" width="18.0" height="2.0" fill="#ffffff"/><rect x="106.0" y="32.0" width="4.0" height="8.0" fill="#ffffff"/><rect x="99.0" y="34.0" width="18.0" height="2.0" fill="#ffffff"/><rect x="120.0" y="44.0" width="8.0" height="2.0" fill="#ffd966"/><rect x="120.0" y="50.0" width="8.0" height="2.0" fill="#ffd966"/><rect x="104.0" y="56.0" width="2.0" height="8.0" fill="#000000"/><rect x="110.0" y="56.0" width="2.0" height="8.0" fill="#000000"/><rect x="82.0" y="56.0" width="4.0" height="8.0" fill="#ffffff"/><rect x="75.0" y="60.0" width="18.0" height="2.0" fill="#ffffff"/><polygon points="64.0,56.0 72.0,40.0 72.0,56.0" fill="#2f3fbf"/><rect x="136.0" y="40.0" width="48.0" height="16.0" fill="#addeef"/><text x="160.0" y="48.0" fill="#000000" style="font-family: monospace; font-size: 16.0px;" text-anchor="middle" dominant-baseline="central">EFDEAD</text><rect x="144.0" y="32.0" width="2.0" height="8.0" fill="#ffd966"/><rect x="150.0" y="32.0" width="2.0" height="8.0" fill="#ffd966"/><rect x="168.0" y="32.0" width="2.0" height="8.0" fill="#000000"/><rect x="174.0" y="32.0" width="2.0" height="8.0" fill="#000000"/><rect x="184.0" y="46.0" width="8.0" height="4.0" fill="#ffffff"/><rect x="187.0" y="43.0" width="2.0" height="10.0" fill="#ffffff"/><polygon points="160.0,56.0 184.0,56.0 184.0,64.0" fill="#2f3fbf"/><rect x="144.0" y="56.0" width="2.0" height="8.0" fill="#000000"/><rect x="150.0" y="56.0" width="2.0" height="8.0" fill="#000000"/><polygon points="128.0,40.0 136.0,40.0 128.0,48.0" fill="#000000"/><polygon points="128.0,56.0 136.0,48.0 136.0,56.0" fill="#000000"/><rect x="200.0" y="40.0" width="48.0" height="16.0" fill="#deefbe"/><text x="224.0" y="48.0" fill="#000000" style="font-family: monospace; font-size: 16.0px;" text-anchor="middle" dominant-baseline="central">BEEFDE</text><rect x="210.0" y="32.0" width="4.0" height="8.0" fill="#ffffff"/><rect x="203.0" y="34.0" width="18.0" height="2.0" fill="#ffffff"/><polygon points="224.0,32.0 224.0,40.0 248.0,40.0" fill="#2f3fbf"/><rect x="248.0" y="44.0" width="8.0" height="2.0" fill="#000000"/><rect x="248.0" y="50.0" width="8.0" height="2.0" fill="#000000"/><polygon points="224.0,56.0 224.0,64.0 232.0,64.0" fill="#000000"/><rect x="232.0" y="56.0" width="8.0" height="8.0" fill="#000000"/><polygon points="240.0,56.0 248.0,56.0 248.0,64.0" fill="#000000"/><rect x="210.0" y="56.0" width="4.0" height="8.0" fill="#ffffff"/><rect x="203.0" y="60.0" width="18.0" height="2.0" fill="#ffffff"/><rect x="192.0" y="46.0" width="8.0" height="4.0" fill="#ffffff"/><rect x="195.0" y="43.0" width="2.0" height="10.0" fill="#ffffff"/><rect x="8.0" y="72.0" width="48.0" height="16.0" fill="#efbead"/><text x="32.0" y="80.0" fill="#000000" style="font-family: monospace; font-size: 16.0px;" text-anchor="middle" dominant-baseline="central">ADBEEF</text><rect x="16.0" y="64.0" width="2.0" height="8.0" fill="#000000"/><rect x="22.0" y="64.0" width="2.0" height="8.0" fill="#000000"/><rect x="40.0" y="64.0" width="2.0" height="8.0" fill="#000000"/><rect x="46.0" y="64.0" width="2.0" height="8.0" fill="#000000"/><rect x="56.0" y="76.0" width="8.0" height="2.0" fill="#ffffff"/><rect x="56.0" y="82.0" width="8.0" height="2.0" fill="#ffffff"/><polygon points="32.0,88.0 32.0,96.0 40.0,96.0" fill="#ffffff"/><rect x="40.0" y="88.0" width="8.0" height="8.0" fill="#ffffff"/><polygon points="48.0,88.0 56.0,88.0 56.0,96.0" fill="#ffffff"/><rect x="16.0" y="88.0" width="2.0" height="8.0" fill="#ffd966"/><rect x="22.0" y="88.0" width="2.0" height="8.0" fill="#ffd966"/><polygon points="0.0,72.0 8.0,72.0 0.0,80.0" fill="#000000"/><polygon points="0.0,88.0 8.0,80.0 8.0,88.0" fill="#000000"/><rect x="72.0" y="72.0" width="48.0" height="16.0" fill="#beadde"/><text x="96.0" y="80.0" fill="#ffffff" style="font-family: monospace; font-size: 16.0px;" text-anchor="middle" dominant-baseline="central">DEADBE</text><rect x="80.0" y="64.0" width="2.0" height="8.0" fill="#ffffff"/><rect x="86.0" y="64.0" width="2.0" height="8.0" fill="#ffffff"/><rect x="104.0" y="64.0" width="2.0" height="8.0" fill="#ffffff"/><rect x="110.0" y="64.0" width="2.0" height="8.0" fill="#ffffff"/><rect x="120.0" y="78.0" width="8.0" height="4.0" fill="#ffd966"/><rect x="123.0" y="75.0" width="2.0" height="10.0" fill="#ffd966"/><rect x="106.0" y="88.0" width="4.0" height="8.0" fill="#000000"/><rect x="99.0" y="92.0" width="18.0" height="2.0" fill="#000000"/><rect x="80.0" y="88.0" width="2.0" height="8.0" fill="#ffffff"/><rect x="86.0" y="88.0" width="2.0" height="8.0" fill="#ffffff"/><polygon points="64.0,72.0 72.0,72.0 64.0,80.0" fill="#2f3fbf"/><polygon points="64.0,88.0 72.0,80.0 72.0,88.0" fill="#2f3fbf"/><rect x="136.0" y="72.0" width="48.0" height="16.0" fill="#addeef"/><text x="160.0" y="80.0" fill="#000000" style="font-family: monospace; font-size: 16.0px;" text-anchor="middle" dominant-baseline="central">EFDEAD</text><rect x="146.0" y="64.0" width="4.0" height="8.0" fill="#ffd966"/><rect x="139.0" y="66.0" width="18.0" height="2.0" fill="#ffd966"/><rect x="170.0" y="64.0" width="4.0" height="8.0" fill="#000000"/><rect x="163.0" y="66.0" width="18.0" height="2.0" fill="#000000"/><rect x="184.0" y="76.0" width="8.0" height="2.0" fill="#ffffff"/><rect x="184.0" y="82.0" width="8.0" height="2.0" fill="#ffffff"/><polygon points="160.0,88.0 160.0,96.0 168.0,96.0" fill="#2f3fbf"/><rect x="168.0" y="88.0" width="8.0" height="8.0" fill="#2f3fbf"/><polygon points="176.0,88.0 184.0,88.0 184.0,96.0" fill="#2f3fbf"/><rect x="146.0" y="88.0" width="4.0" height="8.0" fill="#000000"/><rect x="139.0" y="92.0" width="18.0" height="2.0" fill="#000000"/><polygon points="128.0,88.0 136.0,72.0 136.0,88.0" fill="#000000"/><rect x="200.0" y="72.0" width="48.0" height="16.0" fill="#deefbe"/><text x="224.0" y="80.0" fill="#000000" style="font-family: monospace; font-size: 16.0px;" text-anchor="middle" dominant-baseline="central">BEEFDE</text><rect x="208.0" y="64.0" width="2.0" height="8.0" fill="#ffffff"/><rect x="214.0" y="64.0" width="2.0" height="8.0" fill="#ffffff"/><polygon points="224.0,64.0 232.0,64.0 232.0,72.0" fill="#2f3fbf"/><rect x="232.0" y="64.0" width="8.0" height="8.0" fill="#2f3fbf"/><polygon points="240.0,64.0 240.0,72.0 248.0,72.0" fill="#2f3fbf"/><rect x="248.0" y="78.0" width="8.0" height="4.0" fill="#000000"/><rect x="251.0" y="75.0" width="2.0" height="10.0" fill="#000000"/><polygon points="224.0,88.0 248.0,88.0 248.0,96.0" fill="#000000"/><rect x="208.0" y="88.0" width="2.0" height="8.0" fill="#ffffff"/><rect x="214.0" y="88.0" width="2.0" height="8.0" fill="#ffffff"/><rect x="192.0" y="76.0" width="8.0" height="2.0" fill="#ffffff"/><rect x="192.0" y="82.0" width="8.0" height="2.0" fill="#ffffff"/><rect x="8.0" y="104.0" width="48.0" height="16.0" fill="#efbead"/><text x="32.0" y="112.0" fill="#000000" style="font-family: monospace; font-size: 16.0px;" text-anchor="middle" dominant-baseline="central">ADBEEF</text><rect x="18.0" y="96.0" width="4.0" height="8.0" fill="#000000"/><rect x="11.0" y="98.0" width="18.0" height="2.0" fill="#000000"/><rect x="42.0" y="96.0" width="4.0" height="8.0" fill="#000000"/><rect x="35.0" y="98.0" width="18.0" height="2.0" fill="#000000"/><rect x="56.0" y="110.0" width="8.0" height="4.0" fill="#ffffff"/><rect x="59.0" y="107.0" width="2.0" height="10.0" fill="#ffffff"/><polygon points="32.0,120.0 56.0,120.0 56.0,128.0" fill="#ffffff"/><rect x="18.0" y="120.0" width="4.0" height="8.0" fill="#ffd966"/><rect x="11.0" y="124.0" width="18.0" height="2.0" fill="#ffd966"/><polygon points="0.0,120.0 8.0,104.0 8.0,120.0" fill="#000000"/><rect x="72.0" y="104.0" width="48.0" height="16.0" fill="#beadde"/><text x="96.0" y="112.0" fill="#ffffff" style="font-family: monospace; font-size: 16.0px;" text-anchor="middle" dominant-baseline="central">DEADBE</text><rect x="82.0" y="96.0" width="4.0" height="8.0" fill="#2f3fbf"/><rect x="75.0" y="98.0" width="18.0" height="2.0" fill="#2f3fbf"/><rect x="106.0" y="96.0" width="4.0" height="8.0" fill="#2f3fbf"/><rect x="99.0" y="98.0" width="18.0" height="2.0" fill="#2f3fbf"/><rect x="120.0" y="108.0" width="8.0" height="2.0" fill="#000000"/><rect x="120.0" y="114.0" width="8.0" height="2.0" fill="#000000"/><rect x="104.0" y="120.0" width="2.0" height="8.0" fill="#ffd966"/><rect x="110.0" y="120.0" width="2.0" height="8.0" fill="#ffd966"/><rect x="82.0" y="120.0" width="4.0" height="8.0" fill="#2f3fbf"/><rect x="75.0" y="124.0" width="18.0" height="2.0" fill="#2f3fbf"/><polygon points="64.0,120.0 72.0,104.0 72.0,120.0" fill="#ffffff"/><rect x="136.0" y="104.0" width="48.0" height="16.0" fill="#addeef"/><text x="160.0" y="112.0" fill="#000000" style="font-family: monospace; font-size: 16.0px;" text-anchor="middle" dominant-baseline="central">EFDEAD</text><rect x="144.0" y="96.0" width="2.0" height="8.0" fill="#000000"/><rect x="150.0" y="96.0" width="2.0" height="8.0" fill="#000000"/><rect x="168.0" y="96.0" width="2.0" height="8.0" fill="#ffd966"/><rect x="174.0" y="96.0" width="2.0" height="8.0" fill="#ffd966"/><rect x="184.0" y="110.0" width="8.0" height="4.0" fill="#2f3fbf"/><rect x="187.0" y="107.0" width="2.0" height="10.0" fill="#2f3fbf"/><polygon points="160.0,120.0 184.0,120.0 184.0,128.0" fill="#ffffff"/><rect x="144.0" y="120.0" width="2.0" height="8.0" fill="#ffd966"/><rect x="150.0" y="120.0" width="2.0" height="8.0" fill="#ffd966"/><polygon points="128.0,104.0 136.0,104.0 128.0,112.0" fill="#ffd966"/><polygon points="128.0,120.0 136.0,112.0 136.0,120.0" fill="#ffd966"/><rect x="200.0" y="104.0" width="48.0" height="16.0" fill="#deefbe"/><text x="224.0" y="112.0" fill="#000000" style="font-family: monospace; font-size: 16.0px;" text-anchor="middle" dominant-baseline="central">BEEFDE</text><rect x="210.0" y="96.0" width="4.0" height="8.0" fill="#2f3fbf"/><rect x="203.0" y="98.0" width="18.0" height="2.0" fill="#2f3fbf"/><polygon points="224.0,96.0 224.0,104.0 248.0,104.0" fill="#ffffff"/><rect x="248.0" y="108.0" width="8.0" height="2.0" fill="#ffd966"/><rect x="248.0" y="114.0" width="8.0" height="2.0" fill="#ffd966"/><polygon points="224.0,120.0 224.0,128.0 232.0,128.0" fill="#ffd966"/><rect x="232.0" y="120.0" width="8.0" height="8.0" fill="#ffd966"/><polygon points="240.0,120.0 248.0,120.0 248.0,128.0" fill="#ffd966"/><rect x="210.0" y="120.0" width="4.0" height="8.0" fill="#2f3fbf"/><rect x="203.0" y="124.0" width="18.0" height="2.0" fill="#2f3fbf"/><rect x="192.0" y="110.0" width="8.0" height="4.0" fill="#2f3fbf"/><rect x="195.0" y="107.0" width="2.0" height="10.0" fill="#2f3fbf"/><rect x="8.0" y="136.0" width="48.0" height="16.0" fill="#efbead"/><text x="32.0" y="144.0" fill="#000000" style="font-family: monospace; font-size: 16.0px;" text-anchor="middle" dominant-baseline="central">ADBEEF</text><rect x="16.0" y="128.0" width="2.0" height="8.0" fill="#ffd966"/><rect x="22.0" y="128.0" width="2.0" height="8.0" fill="#ffd966"/><rect x="40.0" y="128.0" width="2.0" height="8.0" fill="#ffd966"/><rect x="46.0" y="128.0" width="2.0" height="8.0" fill="#ffd966"/><rect x="56.0" y="140.0" width="8.0" height="2.0" fill="#2f3fbf"/><rect x="56.0" y="146.0" width="8.0" height="2.0" fill="#2f3fbf"/><polygon points="32.0,152.0 32.0,160.0 40.0,160.0" fill="#2f3fbf"/><rect x="40.0" y="152.0" width="8.0" height="8.0" fill="#2f3fbf"/><polygon points="48.0,152.0 56.0,152.0 56.0,160.0" fill="#2f3fbf"/><rect x="16.0" y="152.0" width="2.0" height="8.0" fill="#000000"/><rect x="22.0" y="152.0" width="2.0" height="8.0" fill="#000000"/><polygon points="0.0,136.0 8.0,136.0 0.0,144.0" fill="#ffd966"/><polygon points="0.0,152.0 8.0,144.0 8.0,152.0" fill="#ffd966"/><rect x="72.0" y="136.0" width="48.0" height="16.0" fill="#beadde"/><text x="96.0" y="144.0" fill="#ffffff" style="font-family: monospace; font-size: 16.0px;" text-anchor="middle" dominant-baseline="central">DEADBE</text><rect x="80.0" y="128.0" width="2.0" height="8.0" fill="#2f3fbf"/><rect x="86.0" y="128.0" width="2.0" height="8.0" fill="#2f3fbf"/><rect x="104.0" y="128.0" width="2.0" height="8.0" fill="#2f3fbf"/><rect x="110.0" y="128.0" width="2.0" height="8.0" fill="#2f3fbf"/><rect x="120.0" y="142.0" width="8.0" height="4.0" fill="#000000"/><rect x="123.0" y="139.0" width="2.0" height="10.0" fill="#000000"/><rect x="106.0" y="152.0" width="4.0" height="8.0" fill="#ffd966"/><rect x="99.0" y="156.0" width="18.0" height="2.0" fill="#ffd966"/><rect x="80.0" y="152.0" width="2.0" height="8.0" fill="#2f3fbf"/><rect x="86.0" y="152.0" width="2.0" height="8.0" fill="#2f3fbf"/><polygon points="64.0,136.0 72.0,136.0 64.0,144.0" fill="#ffffff"/><polygon points="64.0,152.0 72.0,144.0 72.0,152.0" fill="#ffffff"/><rect x="200.0" y="136.0" width="48.0" height="16.0" fill="#addeef"/><text x="224.0" y="144.0" fill="#000000" style="font-family: monospace; font-size: 16.0px;" text-anchor="middle" dominant-baseline="central">EFDEAD</text><rect x="210.0" y="128.0" width="4.0" height="8.0" fill="#000000"/><rect x="203.0" y="130.0" width="18.0" height="2.0" fill="#000000"/><rect x="234.0" y="128.0" width="4.0" height="8.0" fill="#ffd966"/><rect x="227.0" y="130.0" width="18.0" height="2.0" fill="#ffd966"/><rect x="248.0" y="140.0" width="8.0" height="2.0" fill="#2f3fbf"/><rect x="248.0" y="146.0" width="8.0" height="2.0" fill="#2f3fbf"/><polygon points="224.0,152.0 224.0,160.0 232.0,160.0" fill="#ffffff"/><rect x="232.0" y="152.0" width="8.0" height="8.0" fill="#ffffff"/><polygon points="240.0,152.0 248.0,152.0 248.0,160.0" fill="#ffffff"/><rect x="210.0" y="152.0" width="4.0" height="8.0" fill="#ffd966"/><rect x="203.0" y="156.0" width="18.0" height="2.0" fill="#ffd966"/><polygon points="192.0,152.0 200.0,136.0 200.0,152.0" fill="#ffd966"/><rect x="8.0" y="168.0" width="48.0" height="16.0" fill="#deefbe"/><text x="32.0" y="176.0" fill="#000000" style="font-family: monospace; font-size: 16.0px;" text-anchor="middle" dominant-baseline="central">BEEFDE</text><rect x="16.0" y="160.0" width="2.0" height="8.0" fill="#2f3fbf"/><rect x="22.0" y="160.0" width="2.0" height="8.0" fill="#2f3fbf"/><polygon points="32.0,160.0 40.0,160.0 40.0,168.0" fill="#ffffff"/><rect x="40.0" y="160.0" width="8.0" height="8.0" fill="#ffffff"/><polygon points="48.0,160.0 48.0,168.0 56.0,168.0" fill="#ffffff"/><rect x="56.0" y="174.0" width="8.0" height="4.0" fill="#ffd966"/><rect x="59.0" y="171.0" width="2.0" height="10.0" fill="#ffd966"/><polygon points="32.0,184.0 56.0,184.0 56.0,192.0" fill="#ffd966"/><rect x="16.0" y="184.0" width="2.0" height="8.0" fill="#2f3fbf"/><rect x="22.0" y="184.0" width="2.0" height="8.0" fill="#2f3fbf"/><rect x="0.0" y="172.0" width="8.0" height="2.0" fill="#2f3fbf"/><rect x="0.0" y="178.0" width="8.0" height="2.0" fill="#2f3fbf"/><rect x="72.0" y="168.0" width="48.0" height="16.0" fill="#efbead"/><text x="96.0" y="176.0" fill="#000000" style="font-family: monospace; font-size: 16.0px;" text-anchor="middle" dominant-baseline="central">ADBEEF</text><rect x="82.0" y="160.0" width="4.0" height="8.0" fill="#ffd966"/><rect x="75.0" y="162.0" width="18.0" height="2.0" fill="#ffd966"/><rect x="106.0" y="160.0" width="4.0" height="8.0" fill="#ffd966"/><rect x="99.0" y="162.0" width="18.0" height="2.0" fill="#ffd966"/><rect x="120.0" y="174.0" width="8.0" height="4.0" fill="#2f3fbf"/><rect x="123.0" y="171.0" width="2.0" height="10.0" fill="#2f3fbf"/><polygon points="96.0,184.0 120.0,184.0 120.0,192.0" fill="#2f3fbf"/><rect x="82.0" y="184.0" width="4.0" height="8.0" fill="#000000"/><rect x="75.0" y="188.0" width="18.0" height="2.0" fill="#000000"/><polygon points="64.0,184.0 72.0,168.0 72.0,184.0" fill="#ffd966"/><rect x="136.0" y="168.0" width="48.0" height="16.0" fill="#beadde"/><text x="160.0" y="176.0" fill="#ffffff" style="font-family: monospace; font-size: 16.0px;" text-anchor="middle" dominant-baseline="central">DEADBE</text><rect x="146.0" y="160.0" width="4.0" height="8.0" fill="#ffffff"/><rect x="139.0" y="162.0" width="18.0" height="2.0" fill="#ffffff"/><rect x="170.0" y="160.0" width="4.0" height="8.0" fill="#ffffff"/><rect x="163.0" y="162.0" width="18.0" height="2.0" fill="#ffffff"/><rect x="184.0" y="172.0" width="8.0" height="2.0" fill="#ffd966"/><rect x="184.0" y="178.0" width="8.0" height="2.0" fill="#ffd966"/><rect x="168.0" y="184.0" width="2.0" height="8.0" fill="#000000"/><rect x="174.0" y="184.0" width="2.0" height="8.0" fill="#000000"/><rect x="146.0" y="184.0" width="4.0" height="8.0" fill="#ffffff"/><rect x="139.0" y="188.0" width="18.0" height="2.0" fill="#ffffff"/><polygon points="128.0,184.0 136.0,168.0 136.0,184.0" fill="#2f3fbf"/><rect x="200.0" y="168.0" width="48.0" height="16.0" fill="#efefef"/><text x="224.0" y="176.0" fill="#000000" style="font-family: monospace; font-size: 16.0px;" text-anchor="middle" dominant-baseline="central">EF</text><rect x="208.0" y="160.0" width="2.0" height="8.0" fill="#000000"/><rect x="214.0" y="160.0" width="2.0" height="8.0" fill="#000000"/><polygon points="224.0,160.0 232.0,160.0 232.0,168.0" fill="#000000"/><rect x="232.0" y="160.0" width="8.0" height="8.0" fill="#000000"/><polygon points="240.0,160.0 240.0,168.0 248.0,168.0" fill="#000000"/><rect x="248.0" y="174.0" width="8.0" height="4.0" fill="#ffd966"/><rect x="251.0" y="171.0" width="2.0" height="10.0" fill="#ffd966"/><polygon points="224.0,184.0 248.0,184.0 248.0,192.0" fill="#ffd966"/><rect x="208.0" y="184.0" width="2.0" height="8.0" fill="#000000"/><rect x="214.0" y="184.0" width="2.0" height="8.0" fill="#000000"/><polygon points="192.0,168.0 200.0,168.0 192.0,176.0" fill="#000000"/><polygon points="192.0,184.0 200.0,176.0 200.0,184.0" fill="#000000"/><circle cx="130.0" cy="2.0" r="2.0" fill="#ffffff"/><circle cx="126.0" cy="34.0" r="2.0" fill="#ffd966"/><circle cx="254.0" cy="62.0" r="2.0" fill="#2f3fbf"/><circle cx="2.0" cy="94.0" r="2.0" fill="#000000"/></svg>