<svg width="64.0" height="64.0" xmlns="http://www.w3.org/2000/svg"><rect x="0" y="0" width="64.0" height="64.0" fill="#2f3fbf"/><rect x="8.0" y="8.0" width="48.0" height="16.0" fill="#9de675"/><text x="32.0" y="16.0" fill="#000000" style="font-family: monospace; font-size: 16.0px;" text-anchor="middle" dominant-baseline="central">dead</text><rect x="16.0" y="0.0" width="2.0" height="8.0" fill="#ffd966"/><rect x="22.0" y="0.0" width="2.0" height="8.0" fill="#ffd966"/><polygon points="32.0,0.0 40.0,0.0 40.0,8.0" fill="#ffffff"/><rect x="40.0" y="0.0" width="8.0" height="8.0" fill="#ffffff"/><polygon points="48.0,0.0 48.0,8.0 56.0,8.0" fill="#ffffff"/><rect x="56.0" y="14.0" width="8.0" height="4.0" fill="#ffffff"/><rect x="59.0" y="11.0" width="2.0" height="10.0" fill="#ffffff"/><rect x="40.0" y="24.0" width="2.0" height="8.0" fill="#ffd966"/><rect x="46.0" y="24.0" width="2.0" height="8.0" fill="#ffd966"/><rect x="18.0" y="24.0" width="4.0" height="8.0" fill="#ffd966"/><rect x="11.0" y="28.0" width="18.0" height="2.0" fill="#ffd966"/><rect x="0.0" y="14.0" width="8.0" height="4.0" fill="#ffdf2f"/><rect x="3.0" y="11.0" width="2.0" height="10.0" fill="#ffdf2f"/><rect x="8.0" y="40.0" width="48.0" height="16.0" fill="#9fe76d"/><text x="32.0" y="48.0" fill="#000000" style="font-family: monospace; font-size: 16.0px;" text-anchor="middle" dominant-baseline="central">beef</text><rect x="16.0" y="32.0" width="2.0" height="8.0" fill="#ffd966"/><rect x="22.0" y="32.0" width="2.0" height="8.0" fill="#ffd966"/><polygon points="32.0,32.0 40.0,32.0 40.0,40.0" fill="#ffdf2f"/><rect x="40.0" y="32.0" width="8.0" height="8.0" fill="#ffdf2f"/><polygon points="48.0,32.0 48.0,40.0 56.0,40.0" fill="#ffdf2f"/><rect x="56.0" y="46.0" width="8.0" height="4.0" fill="#000000"/><rect x="59.0" y="43.0" width="2.0" height="10.0" fill="#000000"/><rect x="40.0" y="56.0" width="2.0" height="8.0" fill="#000000"/><rect x="46.0" y="56.0" width="2.0" height="8.0" fill="#000000"/><rect x="16.0" y="56.0" width="2.0" height="8.0" fill="#000000"/><rect x="22.0" y="56.0" width="2.0" height="8.0" fill="#000000"/><rect x="0.0" y="46.0" width="8.0" height="4.0" fill="#ffd966"/><rect x="3.0" y="43.0" width="2.0" height="10.0" fill="#ffd966"/><circle cx="2.0" cy="2.0" r="2.0" fill="#ffffff"/><circle cx="62.0" cy="34.0" r="2.0" fill="#ffd966"/></svg>