<svg width="213.0" height="192.0" viewBox="0 0 213.0 192.0" xmlns="http://www.w3.org/2000/svg" data-entviz-version="v8" data-entviz-lib="0.7.1" data-input-bytes="83" data-cols="3" data-rows="4"><defs><clipPath id="grid-clip-6d0315d4efb9e5cf-3x4"><rect x="27.0" y="26.0" width="180.0" height="160.0"/></clipPath></defs><rect x="0" y="0" width="213.0" height="192.0" fill="#ffffff"/><g data-channel="grid"><rect x="27.0" y="26.0" width="180.0" height="160.0" fill="#ffffff"/><g><rect x="27.0" y="26.0" width="6.0" height="10.0" fill="#000000"/><rect x="39.0" y="26.0" width="6.0" height="10.0" fill="#000000"/><rect x="51.0" y="26.0" width="6.0" height="10.0" fill="#000000"/><rect x="75.0" y="26.0" width="6.0" height="10.0" fill="#000000"/><rect x="81.0" y="26.0" width="6.0" height="10.0" fill="#000000"/><rect x="57.0" y="56.0" width="6.0" height="10.0" fill="#000000"/><rect x="45.0" y="56.0" width="6.0" height="10.0" fill="#000000"/><rect x="39.0" y="56.0" width="6.0" height="10.0" fill="#000000"/><rect x="27.0" y="56.0" width="6.0" height="10.0" fill="#000000"/><rect x="27.0" y="46.0" width="6.0" height="10.0" fill="#000000"/><rect x="87.0" y="26.0" width="6.0" height="10.0" fill="#ff3f2f"/><rect x="105.0" y="26.0" width="6.0" height="10.0" fill="#ff3f2f"/><rect x="111.0" y="26.0" width="6.0" height="10.0" fill="#ff3f2f"/><rect x="117.0" y="26.0" width="6.0" height="10.0" fill="#ff3f2f"/><rect x="129.0" y="26.0" width="6.0" height="10.0" fill="#ff3f2f"/><rect x="135.0" y="26.0" width="6.0" height="10.0" fill="#ff3f2f"/><rect x="141.0" y="26.0" width="6.0" height="10.0" fill="#ff3f2f"/><rect x="141.0" y="36.0" width="6.0" height="10.0" fill="#ff3f2f"/><rect x="141.0" y="46.0" width="6.0" height="10.0" fill="#ff3f2f"/><rect x="135.0" y="56.0" width="6.0" height="10.0" fill="#ff3f2f"/><rect x="129.0" y="56.0" width="6.0" height="10.0" fill="#ff3f2f"/><rect x="123.0" y="56.0" width="6.0" height="10.0" fill="#ff3f2f"/><rect x="105.0" y="56.0" width="6.0" height="10.0" fill="#ff3f2f"/><rect x="93.0" y="56.0" width="6.0" height="10.0" fill="#ff3f2f"/><rect x="87.0" y="46.0" width="6.0" height="10.0" fill="#ff3f2f"/><rect x="87.0" y="36.0" width="6.0" height="10.0" fill="#ff3f2f"/><rect x="183.0" y="26.0" width="6.0" height="10.0" fill="#2f3fbf"/><rect x="195.0" y="26.0" width="6.0" height="10.0" fill="#2f3fbf"/><rect x="201.0" y="26.0" width="6.0" height="10.0" fill="#2f3fbf"/><rect x="201.0" y="36.0" width="6.0" height="10.0" fill="#2f3fbf"/><rect x="201.0" y="46.0" width="6.0" height="10.0" fill="#2f3fbf"/><rect x="189.0" y="56.0" width="6.0" height="10.0" fill="#2f3fbf"/><rect x="183.0" y="56.0" width="6.0" height="10.0" fill="#2f3fbf"/><rect x="177.0" y="56.0" width="6.0" height="10.0" fill="#2f3fbf"/><rect x="165.0" y="56.0" width="6.0" height="10.0" fill="#2f3fbf"/><rect x="147.0" y="56.0" width="6.0" height="10.0" fill="#2f3fbf"/><rect x="147.0" y="46.0" width="6.0" height="10.0" fill="#2f3fbf"/><rect x="147.0" y="36.0" width="6.0" height="10.0" fill="#2f3fbf"/><rect x="99.0" y="66.0" width="6.0" height="10.0" fill="#ff3f2f"/><rect x="123.0" y="66.0" width="6.0" height="10.0" fill="#ff3f2f"/><rect x="135.0" y="66.0" width="6.0" height="10.0" fill="#ff3f2f"/><rect x="141.0" y="96.0" width="6.0" height="10.0" fill="#ff3f2f"/><rect x="123.0" y="96.0" width="6.0" height="10.0" fill="#ff3f2f"/><rect x="111.0" y="96.0" width="6.0" height="10.0" fill="#ff3f2f"/><rect x="105.0" y="96.0" width="6.0" height="10.0" fill="#ff3f2f"/><rect x="93.0" y="96.0" width="6.0" height="10.0" fill="#ff3f2f"/><rect x="87.0" y="86.0" width="6.0" height="10.0" fill="#ff3f2f"/><rect x="177.0" y="66.0" width="6.0" height="10.0" fill="#e7be00"/><rect x="189.0" y="66.0" width="6.0" height="10.0" fill="#e7be00"/><rect x="195.0" y="66.0" width="6.0" height="10.0" fill="#e7be00"/><rect x="201.0" y="66.0" width="6.0" height="10.0" fill="#e7be00"/><rect x="201.0" y="76.0" width="6.0" height="10.0" fill="#e7be00"/><rect x="201.0" y="96.0" width="6.0" height="10.0" fill="#e7be00"/><rect x="195.0" y="96.0" width="6.0" height="10.0" fill="#e7be00"/><rect x="177.0" y="96.0" width="6.0" height="10.0" fill="#e7be00"/><rect x="165.0" y="96.0" width="6.0" height="10.0" fill="#e7be00"/><rect x="159.0" y="96.0" width="6.0" height="10.0" fill="#e7be00"/><rect x="147.0" y="96.0" width="6.0" height="10.0" fill="#e7be00"/><rect x="147.0" y="76.0" width="6.0" height="10.0" fill="#e7be00"/><rect x="33.0" y="106.0" width="6.0" height="10.0" fill="#2f3fbf"/><rect x="69.0" y="106.0" width="6.0" height="10.0" fill="#2f3fbf"/><rect x="81.0" y="106.0" width="6.0" height="10.0" fill="#2f3fbf"/><rect x="81.0" y="116.0" width="6.0" height="10.0" fill="#2f3fbf"/><rect x="81.0" y="136.0" width="6.0" height="10.0" fill="#2f3fbf"/><rect x="75.0" y="136.0" width="6.0" height="10.0" fill="#2f3fbf"/><rect x="69.0" y="136.0" width="6.0" height="10.0" fill="#2f3fbf"/><rect x="57.0" y="136.0" width="6.0" height="10.0" fill="#2f3fbf"/><rect x="33.0" y="136.0" width="6.0" height="10.0" fill="#2f3fbf"/><rect x="99.0" y="106.0" width="6.0" height="10.0" fill="#2f3fbf"/><rect x="105.0" y="106.0" width="6.0" height="10.0" fill="#2f3fbf"/><rect x="111.0" y="106.0" width="6.0" height="10.0" fill="#2f3fbf"/><rect x="123.0" y="106.0" width="6.0" height="10.0" fill="#2f3fbf"/><rect x="141.0" y="116.0" width="6.0" height="10.0" fill="#2f3fbf"/><rect x="141.0" y="126.0" width="6.0" height="10.0" fill="#2f3fbf"/><rect x="135.0" y="136.0" width="6.0" height="10.0" fill="#2f3fbf"/><rect x="129.0" y="136.0" width="6.0" height="10.0" fill="#2f3fbf"/><rect x="123.0" y="136.0" width="6.0" height="10.0" fill="#2f3fbf"/><rect x="117.0" y="136.0" width="6.0" height="10.0" fill="#2f3fbf"/><rect x="111.0" y="136.0" width="6.0" height="10.0" fill="#2f3fbf"/><rect x="105.0" y="136.0" width="6.0" height="10.0" fill="#2f3fbf"/><rect x="99.0" y="136.0" width="6.0" height="10.0" fill="#2f3fbf"/><rect x="93.0" y="136.0" width="6.0" height="10.0" fill="#2f3fbf"/><rect x="87.0" y="136.0" width="6.0" height="10.0" fill="#2f3fbf"/><rect x="87.0" y="126.0" width="6.0" height="10.0" fill="#2f3fbf"/><rect x="147.0" y="106.0" width="6.0" height="10.0" fill="#2f3fbf"/><rect x="159.0" y="106.0" width="6.0" height="10.0" fill="#2f3fbf"/><rect x="171.0" y="106.0" width="6.0" height="10.0" fill="#2f3fbf"/><rect x="177.0" y="106.0" width="6.0" height="10.0" fill="#2f3fbf"/><rect x="183.0" y="106.0" width="6.0" height="10.0" fill="#2f3fbf"/><rect x="189.0" y="106.0" width="6.0" height="10.0" fill="#2f3fbf"/><rect x="201.0" y="106.0" width="6.0" height="10.0" fill="#2f3fbf"/><rect x="201.0" y="126.0" width="6.0" height="10.0" fill="#2f3fbf"/><rect x="189.0" y="136.0" width="6.0" height="10.0" fill="#2f3fbf"/><rect x="183.0" y="136.0" width="6.0" height="10.0" fill="#2f3fbf"/><rect x="177.0" y="136.0" width="6.0" height="10.0" fill="#2f3fbf"/><rect x="159.0" y="136.0" width="6.0" height="10.0" fill="#2f3fbf"/><rect x="153.0" y="136.0" width="6.0" height="10.0" fill="#2f3fbf"/><rect x="147.0" y="126.0" width="6.0" height="10.0" fill="#2f3fbf"/><rect x="147.0" y="116.0" width="6.0" height="10.0" fill="#2f3fbf"/><rect x="27.0" y="146.0" width="6.0" height="10.0" fill="#2f3fbf"/><rect x="45.0" y="146.0" width="6.0" height="10.0" fill="#2f3fbf"/><rect x="63.0" y="146.0" width="6.0" height="10.0" fill="#2f3fbf"/><rect x="81.0" y="176.0" width="6.0" height="10.0" fill="#2f3fbf"/><rect x="75.0" y="176.0" width="6.0" height="10.0" fill="#2f3fbf"/><rect x="69.0" y="176.0" width="6.0" height="10.0" fill="#2f3fbf"/><rect x="63.0" y="176.0" width="6.0" height="10.0" fill="#2f3fbf"/><rect x="57.0" y="176.0" width="6.0" height="10.0" fill="#2f3fbf"/><rect x="51.0" y="176.0" width="6.0" height="10.0" fill="#2f3fbf"/><rect x="33.0" y="176.0" width="6.0" height="10.0" fill="#2f3fbf"/><rect x="27.0" y="156.0" width="6.0" height="10.0" fill="#2f3fbf"/><rect x="87.0" y="146.0" width="6.0" height="10.0" fill="#2f3fbf"/><rect x="93.0" y="146.0" width="6.0" height="10.0" fill="#2f3fbf"/><rect x="99.0" y="146.0" width="6.0" height="10.0" fill="#2f3fbf"/><rect x="111.0" y="146.0" width="6.0" height="10.0" fill="#2f3fbf"/><rect x="117.0" y="146.0" width="6.0" height="10.0" fill="#2f3fbf"/><rect x="123.0" y="146.0" width="6.0" height="10.0" fill="#2f3fbf"/><rect x="129.0" y="146.0" width="6.0" height="10.0" fill="#2f3fbf"/><rect x="135.0" y="146.0" width="6.0" height="10.0" fill="#2f3fbf"/><rect x="141.0" y="146.0" width="6.0" height="10.0" fill="#2f3fbf"/><rect x="141.0" y="156.0" width="6.0" height="10.0" fill="#2f3fbf"/><rect x="129.0" y="176.0" width="6.0" height="10.0" fill="#2f3fbf"/><rect x="117.0" y="176.0" width="6.0" height="10.0" fill="#2f3fbf"/><rect x="111.0" y="176.0" width="6.0" height="10.0" fill="#2f3fbf"/><rect x="99.0" y="176.0" width="6.0" height="10.0" fill="#2f3fbf"/><rect x="93.0" y="176.0" width="6.0" height="10.0" fill="#2f3fbf"/><rect x="87.0" y="166.0" width="6.0" height="10.0" fill="#2f3fbf"/><rect x="87.0" y="156.0" width="6.0" height="10.0" fill="#2f3fbf"/><rect x="147.0" y="146.0" width="6.0" height="10.0" fill="#000000"/><rect x="159.0" y="146.0" width="6.0" height="10.0" fill="#000000"/><rect x="171.0" y="146.0" width="6.0" height="10.0" fill="#000000"/><rect x="177.0" y="146.0" width="6.0" height="10.0" fill="#000000"/><rect x="189.0" y="146.0" width="6.0" height="10.0" fill="#000000"/><rect x="201.0" y="146.0" width="6.0" height="10.0" fill="#000000"/><rect x="201.0" y="166.0" width="6.0" height="10.0" fill="#000000"/><rect x="201.0" y="176.0" width="6.0" height="10.0" fill="#000000"/><rect x="177.0" y="176.0" width="6.0" height="10.0" fill="#000000"/><rect x="171.0" y="176.0" width="6.0" height="10.0" fill="#000000"/><rect x="165.0" y="176.0" width="6.0" height="10.0" fill="#000000"/><rect x="159.0" y="176.0" width="6.0" height="10.0" fill="#000000"/><rect x="147.0" y="176.0" width="6.0" height="10.0" fill="#000000"/><rect x="147.0" y="156.0" width="6.0" height="10.0" fill="#000000"/></g><g clip-path="url(#grid-clip-6d0315d4efb9e5cf-3x4)" data-channel="ellipse" data-ellipse-anchor-x="87.0" data-ellipse-anchor-y="146.0" data-ellipse-rx="37.335238046649714" data-ellipse-ry="57.69991334482228" data-ellipse-rotation-deg="0.0"><ellipse cx="87.0" cy="146.0" rx="37.335238046649714" ry="57.69991334482228" transform="rotate(0.0 87.0 146.0)" fill="#000000" stroke="#000000" fill-opacity="0.2" stroke-opacity="0.3" stroke-width="2.0"/></g><g><g data-channel="cell" data-cell-index="0" data-cell-row="0" data-cell-col="0"><rect x="33.0" y="36.0" width="48.0" height="20.0" fill="#0f3a47"/><text x="57.0" y="46.0" fill="#ffffff" style="font-family: &quot;JetBrains Mono&quot;, &quot;Menlo&quot;, &quot;Consolas&quot;, &quot;DejaVu Sans Mono&quot;, &quot;Liberation Mono&quot;, &quot;Roboto Mono&quot;, &quot;Noto Sans Mono&quot;, monospace; font-size: 12.0px;" text-anchor="middle" dominant-baseline="central">473a0f</text></g><g data-channel="cell" data-cell-index="1" data-cell-row="0" data-cell-col="1" data-cell-quartile="2"><rect x="93.0" y="36.0" width="48.0" height="20.0" fill="#e83b4c"/><text x="117.0" y="46.0" fill="#000000" style="font-family: &quot;JetBrains Mono&quot;, &quot;Menlo&quot;, &quot;Consolas&quot;, &quot;DejaVu Sans Mono&quot;, &quot;Liberation Mono&quot;, &quot;Roboto Mono&quot;, &quot;Noto Sans Mono&quot;, monospace; font-size: 12.0px;" text-anchor="middle" dominant-baseline="central">4c3be8</text><polygon points="141.0,36.0 131.0,36.0 141.0,46.0" fill="#000000"/></g><g data-channel="cell" data-cell-index="2" data-cell-row="0" data-cell-col="2"><rect x="153.0" y="36.0" width="48.0" height="20.0" fill="#8136a9"/><text x="177.0" y="46.0" fill="#ffffff" style="font-family: &quot;JetBrains Mono&quot;, &quot;Menlo&quot;, &quot;Consolas&quot;, &quot;DejaVu Sans Mono&quot;, &quot;Liberation Mono&quot;, &quot;Roboto Mono&quot;, &quot;Noto Sans Mono&quot;, monospace; font-size: 12.0px;" text-anchor="middle" dominant-baseline="central">a93681</text></g><g data-channel="cell" data-cell-index="3" data-cell-row="1" data-cell-col="0" data-cell-blank="true" data-cell-blank-map="true"><rect x="33.0" y="76.0" width="48.0" height="20.0" rx="10.0" ry="10.0" fill="#e7be00" stroke="#000000" stroke-width="1"/><circle cx="41.0" cy="88.5" r="3.5" fill="#1d4ed8" data-blank-map-min="2,0"/><path d="M 68.8,78.5 H 77.2 M 73.0,74.3 V 82.7" fill="none" stroke="#d62828" stroke-width="1.9250000000000003" stroke-linecap="butt" data-blank-map-max="0,2"/></g><g data-channel="cell" data-cell-index="4" data-cell-row="1" data-cell-col="1" data-cell-quartile="3"><rect x="93.0" y="76.0" width="48.0" height="20.0" fill="#e367a2"/><text x="117.0" y="86.0" fill="#000000" style="font-family: &quot;JetBrains Mono&quot;, &quot;Menlo&quot;, &quot;Consolas&quot;, &quot;DejaVu Sans Mono&quot;, &quot;Liberation Mono&quot;, &quot;Roboto Mono&quot;, &quot;Noto Sans Mono&quot;, monospace; font-size: 12.0px;" text-anchor="middle" dominant-baseline="central">a267e3</text><polygon points="141.0,96.0 141.0,86.0 131.0,96.0" fill="#000000"/></g><g data-channel="cell" data-cell-index="5" data-cell-row="1" data-cell-col="2"><rect x="153.0" y="76.0" width="48.0" height="20.0" fill="#a7e9b1"/><text x="177.0" y="86.0" fill="#000000" style="font-family: &quot;JetBrains Mono&quot;, &quot;Menlo&quot;, &quot;Consolas&quot;, &quot;DejaVu Sans Mono&quot;, &quot;Liberation Mono&quot;, &quot;Roboto Mono&quot;, &quot;Noto Sans Mono&quot;, monospace; font-size: 12.0px;" text-anchor="middle" dominant-baseline="central">b1e9a7</text></g><g data-channel="cell" data-cell-index="6" data-cell-row="2" data-cell-col="0"><rect x="33.0" y="116.0" width="48.0" height="20.0" fill="#11dadc"/><text x="57.0" y="126.0" fill="#000000" style="font-family: &quot;JetBrains Mono&quot;, &quot;Menlo&quot;, &quot;Consolas&quot;, &quot;DejaVu Sans Mono&quot;, &quot;Liberation Mono&quot;, &quot;Roboto Mono&quot;, &quot;Noto Sans Mono&quot;, monospace; font-size: 12.0px;" text-anchor="middle" dominant-baseline="central">dcda11</text></g><g data-channel="cell" data-cell-index="7" data-cell-row="2" data-cell-col="1" data-cell-quartile="4"><rect x="93.0" y="116.0" width="48.0" height="20.0" fill="#6f4385"/><text x="117.0" y="126.0" fill="#ffffff" style="font-family: &quot;JetBrains Mono&quot;, &quot;Menlo&quot;, &quot;Consolas&quot;, &quot;DejaVu Sans Mono&quot;, &quot;Liberation Mono&quot;, &quot;Roboto Mono&quot;, &quot;Noto Sans Mono&quot;, monospace; font-size: 12.0px;" text-anchor="middle" dominant-baseline="central">85436f</text><polygon points="93.0,136.0 93.0,126.0 103.0,136.0" fill="#ffffff"/></g><g data-channel="cell" data-cell-index="8" data-cell-row="2" data-cell-col="2"><rect x="153.0" y="116.0" width="48.0" height="20.0" fill="#f741e1"/><text x="177.0" y="126.0" fill="#000000" style="font-family: &quot;JetBrains Mono&quot;, &quot;Menlo&quot;, &quot;Consolas&quot;, &quot;DejaVu Sans Mono&quot;, &quot;Liberation Mono&quot;, &quot;Roboto Mono&quot;, &quot;Noto Sans Mono&quot;, monospace; font-size: 12.0px;" text-anchor="middle" dominant-baseline="central">e141f7</text></g><g data-channel="cell" data-cell-index="9" data-cell-row="3" data-cell-col="0"><rect x="33.0" y="156.0" width="48.0" height="20.0" fill="#209174"/><text x="57.0" y="166.0" fill="#ffffff" style="font-family: &quot;JetBrains Mono&quot;, &quot;Menlo&quot;, &quot;Consolas&quot;, &quot;DejaVu Sans Mono&quot;, &quot;Liberation Mono&quot;, &quot;Roboto Mono&quot;, &quot;Noto Sans Mono&quot;, monospace; font-size: 12.0px;" text-anchor="middle" dominant-baseline="central">749120</text></g><g data-channel="cell" data-cell-index="10" data-cell-row="3" data-cell-col="1"><rect x="93.0" y="156.0" width="48.0" height="20.0" fill="#7203a3"/><text x="117.0" y="166.0" fill="#ffffff" style="font-family: &quot;JetBrains Mono&quot;, &quot;Menlo&quot;, &quot;Consolas&quot;, &quot;DejaVu Sans Mono&quot;, &quot;Liberation Mono&quot;, &quot;Roboto Mono&quot;, &quot;Noto Sans Mono&quot;, monospace; font-size: 12.0px;" text-anchor="middle" dominant-baseline="central">a30372</text></g><g data-channel="cell" data-cell-index="11" data-cell-row="3" data-cell-col="2" data-cell-quartile="1"><rect x="153.0" y="156.0" width="48.0" height="20.0" fill="#131318"/><text x="177.0" y="166.0" fill="#ffffff" style="font-family: &quot;JetBrains Mono&quot;, &quot;Menlo&quot;, &quot;Consolas&quot;, &quot;DejaVu Sans Mono&quot;, &quot;Liberation Mono&quot;, &quot;Roboto Mono&quot;, &quot;Noto Sans Mono&quot;, monospace; font-size: 12.0px;" text-anchor="middle" dominant-baseline="central">1813</text><polygon points="153.0,156.0 163.0,156.0 153.0,166.0" fill="#ffffff"/></g></g></g><g data-channel="color-bar"><g data-color-bar-rank="0" data-color-bar-band="R"><rect x="1" y="1" width="20.0" height="84.89017587796154" fill="#ff3f2f"/><text x="11.0" y="83.25017587796154" fill="#000000" style="font-family: &quot;JetBrains Mono&quot;, &quot;Menlo&quot;, &quot;Consolas&quot;, &quot;DejaVu Sans Mono&quot;, &quot;Liberation Mono&quot;, &quot;Roboto Mono&quot;, &quot;Noto Sans Mono&quot;, monospace; font-size: 12.0px;" text-anchor="middle" data-color-bar-letter="true">r</text></g><g data-color-bar-rank="1" data-color-bar-band="K"><rect x="1" y="85.89017587796154" width="20.0" height="51.274599289569245" fill="#000000"/><text x="11.0" y="134.5247751675308" fill="#ffffff" style="font-family: &quot;JetBrains Mono&quot;, &quot;Menlo&quot;, &quot;Consolas&quot;, &quot;DejaVu Sans Mono&quot;, &quot;Liberation Mono&quot;, &quot;Roboto Mono&quot;, &quot;Noto Sans Mono&quot;, monospace; font-size: 12.0px;" text-anchor="middle" data-color-bar-letter="true">k</text></g><g data-color-bar-rank="2" data-color-bar-band="G"><rect x="1" y="137.1647751675308" width="20.0" height="35.23079183049364" fill="#e7be00"/><text x="11.0" y="169.75556699802445" fill="#000000" style="font-family: &quot;JetBrains Mono&quot;, &quot;Menlo&quot;, &quot;Consolas&quot;, &quot;DejaVu Sans Mono&quot;, &quot;Liberation Mono&quot;, &quot;Roboto Mono&quot;, &quot;Noto Sans Mono&quot;, monospace; font-size: 12.0px;" text-anchor="middle" data-color-bar-letter="true">g</text></g><g data-color-bar-rank="3" data-color-bar-band="B"><rect x="1" y="172.39556699802444" width="20.0" height="18.604433001975565" fill="#2f3fbf"/><text x="11.0" y="188.36" fill="#ffffff" style="font-family: &quot;JetBrains Mono&quot;, &quot;Menlo&quot;, &quot;Consolas&quot;, &quot;DejaVu Sans Mono&quot;, &quot;Liberation Mono&quot;, &quot;Roboto Mono&quot;, &quot;Noto Sans Mono&quot;, monospace; font-size: 12.0px;" text-anchor="middle" data-color-bar-letter="true">b</text></g></g><g data-channel="label-top"><text x="27.0" y="16.0" fill="#666666" style="font-family: &quot;JetBrains Mono&quot;, &quot;Menlo&quot;, &quot;Consolas&quot;, &quot;DejaVu Sans Mono&quot;, &quot;Liberation Mono&quot;, &quot;Roboto Mono&quot;, &quot;Noto Sans Mono&quot;, monospace; font-size: 12.0px;" dominant-baseline="central">gitoid:blob:sha256:...</text></g><line x1="0" y1="0.5" x2="213.0" y2="0.5" stroke="#808080" stroke-width="1" shape-rendering="crispEdges"/><line x1="212.5" y1="0" x2="212.5" y2="192.0" stroke="#808080" stroke-width="1" shape-rendering="crispEdges"/><line x1="0" y1="191.5" x2="213.0" y2="191.5" stroke="#808080" stroke-width="1" shape-rendering="crispEdges"/><line x1="0.5" y1="0" x2="0.5" y2="192.0" stroke="#808080" stroke-width="1" shape-rendering="crispEdges"/><line x1="21.5" y1="0" x2="21.5" y2="192.0" stroke="#808080" stroke-width="1" shape-rendering="crispEdges"/></svg>