<svg width="215" height="194" viewBox="0 0 215 194" xmlns="http://www.w3.org/2000/svg" font-family="&quot;JetBrains Mono&quot;, &quot;Menlo&quot;, &quot;Consolas&quot;, &quot;DejaVu Sans Mono&quot;, &quot;Liberation Mono&quot;, &quot;Roboto Mono&quot;, &quot;Noto Sans Mono&quot;, monospace" data-entviz-version="v14" data-entviz-lib="0.14.0" data-input-bytes="83" data-cols="3" data-rows="4" data-encoding="hex" data-scheme="gitoid" data-role="digest" data-size-basis="decoded" data-entropy-type="gitoid" data-size-bits="256" data-qualifiers="{&quot;object&quot;:&quot;blob&quot;,&quot;algorithm&quot;:&quot;sha256&quot;}" data-parts="[{&quot;text&quot;:&quot;gitoid:blob:sha256:&quot;,&quot;bind&quot;:&quot;fold&quot;},{&quot;text&quot;:&quot;473a0f4c3be8a93681a267e3b1e9a7dcda1185436fe141f7749120a303721813&quot;,&quot;bind&quot;:&quot;core&quot;}]"><defs><clipPath id="grid-clip-6d0315d4efb9e5cf-3x4"><rect x="28" y="27" width="180" height="160"/></clipPath></defs><rect x="1" y="1" width="213" height="192" fill="#ffffff"/><g data-channel="grid"><rect x="28" y="27" width="180" height="160" fill="#ffffff"/><g><path fill="#ff3f2f" d="M28 27h6v10h-6zM40 27h6v10h-6zM52 27h6v10h-6zM76 27h6v10h-6zM82 27h6v10h-6zM58 57h6v10h-6zM46 57h6v10h-6zM40 57h6v10h-6zM28 57h6v10h-6zM28 47h6v10h-6z"/><path fill="#ff3f2f" d="M88 27h6v10h-6zM106 27h6v10h-6zM112 27h6v10h-6zM118 27h6v10h-6zM130 27h6v10h-6zM136 27h6v10h-6zM142 27h6v10h-6zM142 37h6v10h-6zM142 47h6v10h-6zM136 57h6v10h-6zM130 57h6v10h-6zM124 57h6v10h-6zM106 57h6v10h-6zM94 57h6v10h-6zM88 47h6v10h-6zM88 37h6v10h-6z"/><path fill="#2f3fbf" d="M184 27h6v10h-6zM196 27h6v10h-6zM202 27h6v10h-6zM202 37h6v10h-6zM202 47h6v10h-6zM190 57h6v10h-6zM184 57h6v10h-6zM178 57h6v10h-6zM166 57h6v10h-6zM148 57h6v10h-6zM148 47h6v10h-6zM148 37h6v10h-6z"/><path fill="#ff3f2f" d="M100 67h6v10h-6zM124 67h6v10h-6zM136 67h6v10h-6zM142 97h6v10h-6zM124 97h6v10h-6zM112 97h6v10h-6zM106 97h6v10h-6zM94 97h6v10h-6zM88 87h6v10h-6z"/><path fill="#e7be00" d="M178 67h6v10h-6zM190 67h6v10h-6zM196 67h6v10h-6zM202 67h6v10h-6zM202 77h6v10h-6zM202 97h6v10h-6zM196 97h6v10h-6zM178 97h6v10h-6zM166 97h6v10h-6zM160 97h6v10h-6zM148 97h6v10h-6zM148 77h6v10h-6z"/><path fill="#2f3fbf" d="M34 107h6v10h-6zM70 107h6v10h-6zM82 107h6v10h-6zM82 117h6v10h-6zM82 137h6v10h-6zM76 137h6v10h-6zM70 137h6v10h-6zM58 137h6v10h-6zM34 137h6v10h-6z"/><path fill="#2f3fbf" d="M100 107h6v10h-6zM106 107h6v10h-6zM112 107h6v10h-6zM124 107h6v10h-6zM142 117h6v10h-6zM142 127h6v10h-6zM136 137h6v10h-6zM130 137h6v10h-6zM124 137h6v10h-6zM118 137h6v10h-6zM112 137h6v10h-6zM106 137h6v10h-6zM100 137h6v10h-6zM94 137h6v10h-6zM88 137h6v10h-6zM88 127h6v10h-6z"/><path fill="#2f3fbf" d="M148 107h6v10h-6zM160 107h6v10h-6zM172 107h6v10h-6zM178 107h6v10h-6zM184 107h6v10h-6zM190 107h6v10h-6zM202 107h6v10h-6zM202 127h6v10h-6zM190 137h6v10h-6zM184 137h6v10h-6zM178 137h6v10h-6zM160 137h6v10h-6zM154 137h6v10h-6zM148 127h6v10h-6zM148 117h6v10h-6z"/><path fill="#2f3fbf" d="M28 147h6v10h-6zM46 147h6v10h-6zM64 147h6v10h-6zM82 177h6v10h-6zM76 177h6v10h-6zM70 177h6v10h-6zM64 177h6v10h-6zM58 177h6v10h-6zM52 177h6v10h-6zM34 177h6v10h-6zM28 157h6v10h-6z"/><path fill="#2f3fbf" d="M88 147h6v10h-6zM94 147h6v10h-6zM100 147h6v10h-6zM112 147h6v10h-6zM118 147h6v10h-6zM124 147h6v10h-6zM130 147h6v10h-6zM136 147h6v10h-6zM142 147h6v10h-6zM142 157h6v10h-6zM130 177h6v10h-6zM118 177h6v10h-6zM112 177h6v10h-6zM100 177h6v10h-6zM94 177h6v10h-6zM88 167h6v10h-6zM88 157h6v10h-6z"/><path fill="#ff3f2f" d="M148 147h6v10h-6zM160 147h6v10h-6zM172 147h6v10h-6zM178 147h6v10h-6zM190 147h6v10h-6zM202 147h6v10h-6zM202 167h6v10h-6zM202 177h6v10h-6zM178 177h6v10h-6zM172 177h6v10h-6zM166 177h6v10h-6zM160 177h6v10h-6zM148 177h6v10h-6zM148 157h6v10h-6z"/></g><g clip-path="url(#grid-clip-6d0315d4efb9e5cf-3x4)" data-channel="ellipse" data-ellipse-anchor-x="88" data-ellipse-anchor-y="147" data-ellipse-rx="37.335" data-ellipse-ry="57.7" data-ellipse-rotation-deg="0"><ellipse cx="88" cy="147" rx="37.335" ry="57.7" transform="rotate(0 88 147)" fill="#000000" stroke="#000000" fill-opacity="0.2" stroke-opacity="0.3" stroke-width="2"/></g><g><g data-channel="cell" data-cell-index="0" data-cell-row="0" data-cell-col="0" data-surround-bits="0x6d0315" data-edge-color="#ff3f2f"><rect x="34" y="37" width="48" height="20" fill="#0f3a47"/><text x="58" y="47" fill="#ffffff" font-size="12" text-anchor="middle" dominant-baseline="central">473a0f</text></g><g data-channel="cell" data-cell-index="1" data-cell-row="0" data-cell-col="1" data-surround-bits="0xd4efb9" data-edge-color="#ff3f2f" data-cell-quartile="2"><rect x="94" y="37" width="48" height="20" fill="#e83b4c"/><text x="118" y="47" fill="#000000" font-size="12" text-anchor="middle" dominant-baseline="central">4c3be8</text><polygon points="142,37 132,37 142,47" fill="#000000"/></g><g data-channel="cell" data-cell-index="2" data-cell-row="0" data-cell-col="2" data-surround-bits="0xe5cf40" data-edge-color="#2f3fbf"><rect x="154" y="37" width="48" height="20" fill="#8136a9"/><text x="178" y="47" fill="#ffffff" font-size="12" text-anchor="middle" dominant-baseline="central">a93681</text></g><g data-channel="cell" data-cell-index="3" data-cell-row="1" data-cell-col="0" data-cell-blank="true" data-cell-blank-map="true"><rect x="34" y="77" width="48" height="20" rx="10" ry="10" fill="#ff3f2f" stroke="#000000" stroke-width="1"/><circle cx="42" cy="89.5" r="3.5" fill="#000000" data-blank-map-min="2,0"/><path d="M 69.8,79.5 H 78.2 M 74,75.3 V 83.7" fill="none" stroke="#000000" stroke-width="1.925" stroke-linecap="butt" data-blank-map-max="0,2"/></g><g data-channel="cell" data-cell-index="4" data-cell-row="1" data-cell-col="1" data-surround-bits="0x569144" data-edge-color="#ff3f2f" data-cell-quartile="3"><rect x="94" y="77" width="48" height="20" fill="#e367a2"/><text x="118" y="87" fill="#000000" font-size="12" text-anchor="middle" dominant-baseline="central">a267e3</text><polygon points="142,97 142,87 132,97" fill="#000000"/></g><g data-channel="cell" data-cell-index="5" data-cell-row="1" data-cell-col="2" data-surround-bits="0xad37a0" data-edge-color="#e7be00"><rect x="154" y="77" width="48" height="20" fill="#a7e9b1"/><text x="178" y="87" fill="#000000" font-size="12" text-anchor="middle" dominant-baseline="central">b1e9a7</text></g><g data-channel="cell" data-cell-index="6" data-cell-row="2" data-cell-col="0" data-surround-bits="0x117682" data-edge-color="#2f3fbf"><rect x="34" y="117" width="48" height="20" fill="#11dadc"/><text x="58" y="127" fill="#000000" font-size="12" text-anchor="middle" dominant-baseline="central">dcda11</text></g><g data-channel="cell" data-cell-index="7" data-cell-row="2" data-cell-col="1" data-surround-bits="0x7fec5c" data-edge-color="#2f3fbf" data-cell-quartile="4"><rect x="94" y="117" width="48" height="20" fill="#6f4385"/><text x="118" y="127" fill="#ffffff" font-size="12" text-anchor="middle" dominant-baseline="central">85436f</text><polygon points="94,137 94,127 104,137" fill="#ffffff"/></g><g data-channel="cell" data-cell-index="8" data-cell-row="2" data-cell-col="2" data-surround-bits="0xd9caf5" data-edge-color="#2f3fbf"><rect x="154" y="117" width="48" height="20" fill="#f741e1"/><text x="178" y="127" fill="#000000" font-size="12" text-anchor="middle" dominant-baseline="central">e141f7</text></g><g data-channel="cell" data-cell-index="9" data-cell-row="3" data-cell-col="0" data-surround-bits="0x93f049" data-edge-color="#2f3fbf"><rect x="34" y="157" width="48" height="20" fill="#209174"/><text x="58" y="167" fill="#ffffff" font-size="12" text-anchor="middle" dominant-baseline="central">749120</text></g><g data-channel="cell" data-cell-index="10" data-cell-row="3" data-cell-col="1" data-surround-bits="0xdb47f7" data-edge-color="#2f3fbf"><rect x="94" y="157" width="48" height="20" fill="#7203a3"/><text x="118" y="167" fill="#ffffff" font-size="12" text-anchor="middle" dominant-baseline="central">a30372</text></g><g data-channel="cell" data-cell-index="11" data-cell-row="3" data-cell-col="2" data-surround-bits="0xaf1ab5" data-edge-color="#ff3f2f" data-cell-quartile="1"><rect x="154" y="157" width="48" height="20" fill="#131318"/><text x="178" y="167" fill="#ffffff" font-size="12" text-anchor="middle" dominant-baseline="central">1813</text><polygon points="154,157 164,157 154,167" fill="#ffffff"/></g></g></g><g data-channel="color-bar" data-bar-slots="15" data-bar-marker-left="13" data-bar-marker-right="11"><g data-color-bar-rank="0" data-color-bar-band="R"><rect x="2" y="2" width="20" height="84.89" fill="#ff3f2f"/><text x="12" y="84.25" fill="#000000" font-size="12" text-anchor="middle" data-color-bar-letter="true">r</text></g><g data-color-bar-rank="1" data-color-bar-band="K"><rect x="2" y="86.89" width="20" height="51.275" fill="#000000"/><text x="12" y="135.525" fill="#ffffff" font-size="12" text-anchor="middle" data-color-bar-letter="true">k</text></g><g data-color-bar-rank="2" data-color-bar-band="B"><rect x="2" y="138.165" width="20" height="18.604" fill="#2f3fbf"/><text x="12" y="154.129" fill="#ffffff" font-size="12" text-anchor="middle" data-color-bar-letter="true">b</text></g><g data-color-bar-rank="3" data-color-bar-band="G"><rect x="2" y="156.769" width="20" height="35.231" fill="#e7be00"/><text x="12" y="189.36" fill="#000000" font-size="12" text-anchor="middle" data-color-bar-letter="true">g</text></g><circle cx="6.6" cy="173" r="3.4" fill="#ffffff" stroke="#000000" stroke-width="0.75" data-bar-marker="left"/><circle cx="17.4" cy="147.667" r="3.4" fill="#ffffff" stroke="#000000" stroke-width="0.75" data-bar-marker="right"/></g><g data-channel="label-top"><text x="28" y="17" fill="#666666" font-size="12" dominant-baseline="central">gitoid:blob:sha256</text></g><line x1="1" y1="1.5" x2="214" y2="1.5" stroke="#808080" stroke-width="1" shape-rendering="crispEdges"/><line x1="213.5" y1="1" x2="213.5" y2="193" stroke="#808080" stroke-width="1" shape-rendering="crispEdges"/><line x1="1" y1="192.5" x2="214" y2="192.5" stroke="#808080" stroke-width="1" shape-rendering="crispEdges"/><line x1="1.5" y1="1" x2="1.5" y2="193" stroke="#808080" stroke-width="1" shape-rendering="crispEdges"/><line x1="22.5" y1="1" x2="22.5" y2="193" stroke="#808080" stroke-width="1" shape-rendering="crispEdges"/></svg>