<svg width="155" height="154" viewBox="0 0 155 154" xmlns="http://www.w3.org/2000/svg" font-family="&quot;JetBrains Mono&quot;, &quot;Menlo&quot;, &quot;Consolas&quot;, &quot;DejaVu Sans Mono&quot;, &quot;Liberation Mono&quot;, &quot;Roboto Mono&quot;, &quot;Noto Sans Mono&quot;, monospace" data-entviz-version="v15" data-entviz-lib="0.15.0" data-input-bytes="36" data-cols="2" data-rows="3" data-encoding="hex" data-scheme="uuid" data-role="identifier" data-size-basis="decoded" data-entropy-type="uuid" data-size-bits="128" data-qualifiers="{}" data-parts="[{&quot;text&quot;:&quot;00000000000000000000000000000000&quot;,&quot;bind&quot;:&quot;core&quot;}]"><defs><clipPath id="grid-clip-98b6d128682e280b-2x3"><rect x="28" y="27" width="120" height="120"/></clipPath></defs><rect x="1" y="1" width="153" height="152" fill="#ffffff"/><g data-channel="grid"><rect x="28" y="27" width="120" height="120" fill="#ff3f2f"/><g><path fill="#e7be00" d="M28 27h6v10h-6zM52 27h6v10h-6zM64 27h6v10h-6zM70 27h6v10h-6zM82 27h6v10h-6zM82 37h6v10h-6zM82 57h6v10h-6zM76 57h6v10h-6zM64 57h6v10h-6zM40 57h6v10h-6zM34 57h6v10h-6zM28 37h6v10h-6z"/><path fill="#000000" d="M94 27h6v10h-6zM100 27h6v10h-6zM106 27h6v10h-6zM118 27h6v10h-6zM142 47h6v10h-6zM136 57h6v10h-6zM130 57h6v10h-6zM100 57h6v10h-6zM88 57h6v10h-6z"/><path fill="#ffffff" d="M40 67h6v10h-6zM52 67h6v10h-6zM58 67h6v10h-6zM64 67h6v10h-6zM76 67h6v10h-6zM82 67h6v10h-6zM82 87h6v10h-6zM40 97h6v10h-6zM28 97h6v10h-6z"/><path fill="#2f3fbf" d="M94 67h6v10h-6zM106 67h6v10h-6zM124 67h6v10h-6zM130 67h6v10h-6zM142 77h6v10h-6zM136 97h6v10h-6zM118 97h6v10h-6zM112 97h6v10h-6zM94 97h6v10h-6zM88 97h6v10h-6zM88 77h6v10h-6z"/><path fill="#000000" d="M34 107h6v10h-6zM46 107h6v10h-6zM52 107h6v10h-6zM58 107h6v10h-6zM70 107h6v10h-6zM82 107h6v10h-6zM82 117h6v10h-6zM76 137h6v10h-6zM64 137h6v10h-6zM52 137h6v10h-6zM28 117h6v10h-6z"/><path fill="#000000" d="M88 107h6v10h-6zM94 107h6v10h-6zM118 107h6v10h-6zM130 107h6v10h-6zM142 127h6v10h-6zM136 137h6v10h-6zM130 137h6v10h-6zM124 137h6v10h-6zM112 137h6v10h-6zM106 137h6v10h-6zM88 137h6v10h-6zM88 127h6v10h-6zM88 117h6v10h-6z"/></g><g clip-path="url(#grid-clip-98b6d128682e280b-2x3)" data-channel="ellipse" data-ellipse-anchor-x="148" data-ellipse-anchor-y="67" data-ellipse-rx="38.652" data-ellipse-ry="52.497" data-ellipse-rotation-deg="96"><ellipse cx="148" cy="67" rx="38.652" ry="52.497" transform="rotate(96 148 67)" fill="#000000" stroke="#000000" fill-opacity="0.25" stroke-opacity="0.35" stroke-width="2"/></g><g><g data-channel="cell" data-cell-index="0" data-cell-row="0" data-cell-col="0" data-surround-bits="0x98b6d1" data-edge-color="#e7be00"><rect x="34" y="37" width="48" height="20" fill="#000000"/><text x="58" y="47" fill="#ffffff" font-size="12" text-anchor="middle" dominant-baseline="central">000000</text></g><g data-channel="cell" data-cell-index="1" data-cell-row="0" data-cell-col="1" data-surround-bits="0x28682e" data-edge-color="#000000"><rect x="94" y="37" width="48" height="20" fill="#000000"/><text x="118" y="47" fill="#ffffff" font-size="12" text-anchor="middle" dominant-baseline="central">000000</text></g><g data-channel="cell" data-cell-index="2" data-cell-row="1" data-cell-col="0" data-surround-bits="0x280b74" data-edge-color="#ffffff" data-cell-quartile="1"><rect x="34" y="77" width="48" height="20" fill="#000000"/><text x="58" y="87" fill="#ffffff" font-size="12" text-anchor="middle" dominant-baseline="central">000000</text><polygon points="34,77 44,77 34,87" fill="#ffffff"/></g><g data-channel="cell" data-cell-index="3" data-cell-row="1" data-cell-col="1" data-surround-bits="0xb324ca" data-edge-color="#2f3fbf" data-cell-quartile="2"><rect x="94" y="77" width="48" height="20" fill="#000000"/><text x="118" y="87" fill="#ffffff" font-size="12" text-anchor="middle" dominant-baseline="central">000000</text><polygon points="142,77 132,77 142,87" fill="#ffffff"/></g><g data-channel="cell" data-cell-index="4" data-cell-row="2" data-cell-col="0" data-surround-bits="0x82a6ba" data-edge-color="#000000"><rect x="34" y="117" width="48" height="20" fill="#000000"/><text x="58" y="127" fill="#ffffff" font-size="12" text-anchor="middle" dominant-baseline="central">000000</text></g><g data-channel="cell" data-cell-index="5" data-cell-row="2" data-cell-col="1" data-surround-bits="0xe6e8a3" data-edge-color="#000000" data-cell-quartile="3"><rect x="94" y="117" width="48" height="20" fill="#000000"/><text x="118" y="127" fill="#ffffff" font-size="12" text-anchor="middle" dominant-baseline="central">00</text><polygon points="142,137 142,127 132,137" fill="#ffffff"/></g></g></g><g data-channel="color-bar" data-bar-slots="12" data-bar-marker-left="10" data-bar-marker-right="4"><g data-color-bar-rank="0" data-color-bar-band="W"><rect x="2" y="2" width="20" height="42.178" fill="#ffffff"/><text x="12" y="41.538" fill="#000000" font-size="12" text-anchor="middle" data-color-bar-letter="true">w</text></g><g data-color-bar-rank="1" data-color-bar-band="B"><rect x="2" y="44.178" width="20" height="56.019" fill="#2f3fbf"/><text x="12" y="97.557" fill="#ffffff" font-size="12" text-anchor="middle" data-color-bar-letter="true">b</text></g><g data-color-bar-rank="2" data-color-bar-band="G"><rect x="2" y="100.197" width="20" height="42.178" fill="#e7be00"/><text x="12" y="139.734" fill="#000000" font-size="12" text-anchor="middle" data-color-bar-letter="true">g</text></g><g data-color-bar-rank="3" data-color-bar-band="K"><rect x="2" y="142.374" width="20" height="9.626" fill="#000000"/><text x="12" y="149.36" fill="#ffffff" font-size="12" text-anchor="middle" data-color-bar-letter="true">k</text></g><circle cx="6.6" cy="133.25" r="3.4" fill="#ffffff" stroke="#000000" stroke-width="0.75" data-bar-marker="left"/><circle cx="17.4" cy="58.25" r="3.4" fill="#ffffff" stroke="#000000" stroke-width="0.75" data-bar-marker="right"/></g><g data-channel="label-top"><text x="28" y="17" fill="#666666" font-size="12" dominant-baseline="central">UUID</text></g><line x1="1" y1="1.5" x2="154" y2="1.5" stroke="#808080" stroke-width="1" shape-rendering="crispEdges"/><line x1="153.5" y1="1" x2="153.5" y2="153" stroke="#808080" stroke-width="1" shape-rendering="crispEdges"/><line x1="1" y1="152.5" x2="154" y2="152.5" stroke="#808080" stroke-width="1" shape-rendering="crispEdges"/><line x1="1.5" y1="1" x2="1.5" y2="153" stroke="#808080" stroke-width="1" shape-rendering="crispEdges"/><line x1="22.5" y1="1" x2="22.5" y2="153" stroke="#808080" stroke-width="1" shape-rendering="crispEdges"/></svg>