<svg width="153" height="152" viewBox="0 0 153 152" xmlns="http://www.w3.org/2000/svg" font-family="&quot;JetBrains Mono&quot;, &quot;Menlo&quot;, &quot;Consolas&quot;, &quot;DejaVu Sans Mono&quot;, &quot;Liberation Mono&quot;, &quot;Roboto Mono&quot;, &quot;Noto Sans Mono&quot;, monospace" data-entviz-version="v10" data-entviz-lib="0.10.0" data-input-bytes="36" data-cols="2" data-rows="3"><defs><clipPath id="grid-clip-98b6d128682e280b-2x3"><rect x="27" y="26" width="120" height="120"/></clipPath></defs><rect x="0" y="0" width="153" height="152" fill="#ffffff"/><g data-channel="grid"><rect x="27" y="26" width="120" height="120" fill="#ff3f2f"/><g><path fill="#e7be00" d="M27 26h6v10h-6zM51 26h6v10h-6zM63 26h6v10h-6zM69 26h6v10h-6zM81 26h6v10h-6zM81 36h6v10h-6zM81 56h6v10h-6zM75 56h6v10h-6zM63 56h6v10h-6zM39 56h6v10h-6zM33 56h6v10h-6zM27 36h6v10h-6z"/><path fill="#000000" d="M93 26h6v10h-6zM99 26h6v10h-6zM105 26h6v10h-6zM117 26h6v10h-6zM141 46h6v10h-6zM135 56h6v10h-6zM129 56h6v10h-6zM99 56h6v10h-6zM87 56h6v10h-6z"/><path fill="#ffffff" d="M39 66h6v10h-6zM51 66h6v10h-6zM57 66h6v10h-6zM63 66h6v10h-6zM75 66h6v10h-6zM81 66h6v10h-6zM81 86h6v10h-6zM39 96h6v10h-6zM27 96h6v10h-6z"/><path fill="#2f3fbf" d="M93 66h6v10h-6zM105 66h6v10h-6zM123 66h6v10h-6zM129 66h6v10h-6zM141 76h6v10h-6zM135 96h6v10h-6zM117 96h6v10h-6zM111 96h6v10h-6zM93 96h6v10h-6zM87 96h6v10h-6zM87 76h6v10h-6z"/><path fill="#000000" d="M33 106h6v10h-6zM45 106h6v10h-6zM51 106h6v10h-6zM57 106h6v10h-6zM69 106h6v10h-6zM81 106h6v10h-6zM81 116h6v10h-6zM75 136h6v10h-6zM63 136h6v10h-6zM51 136h6v10h-6zM27 116h6v10h-6z"/><path fill="#000000" d="M87 106h6v10h-6zM93 106h6v10h-6zM117 106h6v10h-6zM129 106h6v10h-6zM141 126h6v10h-6zM135 136h6v10h-6zM129 136h6v10h-6zM123 136h6v10h-6zM111 136h6v10h-6zM105 136h6v10h-6zM87 136h6v10h-6zM87 126h6v10h-6zM87 116h6v10h-6z"/></g><g clip-path="url(#grid-clip-98b6d128682e280b-2x3)" data-channel="ellipse" data-ellipse-anchor-x="147" data-ellipse-anchor-y="66" data-ellipse-rx="38.652" data-ellipse-ry="52.497" data-ellipse-rotation-deg="96"><ellipse cx="147" cy="66" rx="38.652" ry="52.497" transform="rotate(96 147 66)" fill="#000000" stroke="#000000" fill-opacity="0.25" stroke-opacity="0.35" stroke-width="2"/></g><g><g data-channel="cell" data-cell-index="0" data-cell-row="0" data-cell-col="0" data-surround-bits="0x98b6d1" data-edge-color="#e7be00"><rect x="33" y="36" width="48" height="20" fill="#000000"/><text x="57" y="46" fill="#ffffff" font-size="12" text-anchor="middle" dominant-baseline="central">000000</text></g><g data-channel="cell" data-cell-index="1" data-cell-row="0" data-cell-col="1" data-surround-bits="0x28682e" data-edge-color="#000000"><rect x="93" y="36" width="48" height="20" fill="#000000"/><text x="117" y="46" fill="#ffffff" font-size="12" text-anchor="middle" dominant-baseline="central">000000</text></g><g data-channel="cell" data-cell-index="2" data-cell-row="1" data-cell-col="0" data-surround-bits="0x280b74" data-edge-color="#ffffff" data-cell-quartile="1"><rect x="33" y="76" width="48" height="20" fill="#000000"/><text x="57" y="86" fill="#ffffff" font-size="12" text-anchor="middle" dominant-baseline="central">000000</text><polygon points="33,76 43,76 33,86" fill="#ffffff"/></g><g data-channel="cell" data-cell-index="3" data-cell-row="1" data-cell-col="1" data-surround-bits="0xb324ca" data-edge-color="#2f3fbf" data-cell-quartile="2"><rect x="93" y="76" width="48" height="20" fill="#000000"/><text x="117" y="86" fill="#ffffff" font-size="12" text-anchor="middle" dominant-baseline="central">000000</text><polygon points="141,76 131,76 141,86" fill="#ffffff"/></g><g data-channel="cell" data-cell-index="4" data-cell-row="2" data-cell-col="0" data-surround-bits="0x82a6ba" data-edge-color="#000000"><rect x="33" y="116" width="48" height="20" fill="#000000"/><text x="57" y="126" fill="#ffffff" font-size="12" text-anchor="middle" dominant-baseline="central">000000</text></g><g data-channel="cell" data-cell-index="5" data-cell-row="2" data-cell-col="1" data-surround-bits="0xe6e8a3" data-edge-color="#000000" data-cell-quartile="3"><rect x="93" y="116" width="48" height="20" fill="#000000"/><text x="117" y="126" fill="#ffffff" font-size="12" text-anchor="middle" dominant-baseline="central">00</text><polygon points="141,136 141,126 131,136" fill="#ffffff"/></g></g></g><g data-channel="color-bar" data-bar-slots="12" data-bar-marker-left="10" data-bar-marker-right="4"><g data-color-bar-rank="0" data-color-bar-band="W"><rect x="1" y="1" width="20" height="42.178" fill="#ffffff"/><text x="11" y="40.538" fill="#000000" font-size="12" text-anchor="middle" data-color-bar-letter="true">w</text></g><g data-color-bar-rank="1" data-color-bar-band="B"><rect x="1" y="43.178" width="20" height="56.019" fill="#2f3fbf"/><text x="11" y="96.557" fill="#ffffff" font-size="12" text-anchor="middle" data-color-bar-letter="true">b</text></g><g data-color-bar-rank="2" data-color-bar-band="G"><rect x="1" y="99.197" width="20" height="42.178" fill="#e7be00"/><text x="11" y="138.734" fill="#000000" font-size="12" text-anchor="middle" data-color-bar-letter="true">g</text></g><g data-color-bar-rank="3" data-color-bar-band="K"><rect x="1" y="141.374" width="20" height="9.626" fill="#000000"/><text x="11" y="148.36" fill="#ffffff" font-size="12" text-anchor="middle" data-color-bar-letter="true">k</text></g><circle cx="5.6" cy="132.25" r="3.4" fill="#ffffff" stroke="#000000" stroke-width="0.75" data-bar-marker="left"/><circle cx="16.4" cy="57.25" r="3.4" fill="#ffffff" stroke="#000000" stroke-width="0.75" data-bar-marker="right"/></g><g data-channel="label-top"><text x="27" y="16" fill="#666666" font-size="12" dominant-baseline="central">UUID:</text></g><line x1="0" y1="0.5" x2="153" y2="0.5" stroke="#808080" stroke-width="1" shape-rendering="crispEdges"/><line x1="152.5" y1="0" x2="152.5" y2="152" stroke="#808080" stroke-width="1" shape-rendering="crispEdges"/><line x1="0" y1="151.5" x2="153" y2="151.5" stroke="#808080" stroke-width="1" shape-rendering="crispEdges"/><line x1="0.5" y1="0" x2="0.5" y2="152" stroke="#808080" stroke-width="1" shape-rendering="crispEdges"/><line x1="21.5" y1="0" x2="21.5" y2="152" stroke="#808080" stroke-width="1" shape-rendering="crispEdges"/></svg>