<svg width="205.0" height="158.0" xmlns="http://www.w3.org/2000/svg"><rect x="0" y="0" width="205.0" height="158.0" fill="#ffffff"/><rect x="8.0" y="5.0" width="192.0" height="128.0" fill="#ff3f2f"/><rect x="16.0" y="5.0" width="20.0" height="2.0" fill="#2f3fbf"/><rect x="36.0" y="5.0" width="4.0" height="8.0" fill="#2f3fbf"/><rect x="40.0" y="5.0" width="20.0" height="2.0" fill="#ffffff"/><rect x="60.0" y="5.0" width="4.0" height="8.0" fill="#ffffff"/><polygon points="64.0,13.0 72.0,13.0 64.0,29.0" fill="#000000"/><rect x="40.0" y="29.0" width="24.0" height="8.0" fill="#2f3fbf"/><rect x="20.0" y="35.0" width="20.0" height="2.0" fill="#ffffff"/><rect x="16.0" y="29.0" width="4.0" height="8.0" fill="#ffffff"/><rect x="8.0" y="17.0" width="8.0" height="8.0" fill="#ffffff"/><polygon points="144.0,5.0 144.0,13.0 168.0,13.0" fill="#ffffff"/><rect x="176.0" y="5.0" width="8.0" height="8.0" fill="#000000"/><polygon points="192.0,13.0 200.0,13.0 192.0,29.0" fill="#000000"/><rect x="176.0" y="29.0" width="8.0" height="8.0" fill="#000000"/><rect x="148.0" y="35.0" width="20.0" height="2.0" fill="#2f3fbf"/><rect x="144.0" y="29.0" width="4.0" height="8.0" fill="#2f3fbf"/><rect x="136.0" y="17.0" width="8.0" height="8.0" fill="#000000"/><polygon points="16.0,37.0 16.0,45.0 40.0,45.0" fill="#ffffff"/><rect x="40.0" y="37.0" width="24.0" height="8.0" fill="#ffd966"/><rect x="64.0" y="45.0" width="2.0" height="12.0" fill="#ffffff"/><rect x="64.0" y="57.0" width="8.0" height="4.0" fill="#ffffff"/><rect x="40.0" y="61.0" width="24.0" height="8.0" fill="#2f3fbf"/><polygon points="16.0,61.0 40.0,61.0 40.0,69.0" fill="#2f3fbf"/><rect x="8.0" y="45.0" width="8.0" height="16.0" fill="#2f3fbf"/><polygon points="80.0,37.0 80.0,45.0 104.0,45.0" fill="#ffffff"/><rect x="104.0" y="37.0" width="24.0" height="8.0" fill="#ffd966"/><polygon points="128.0,45.0 136.0,45.0 128.0,61.0" fill="#ffd966"/><rect x="104.0" y="61.0" width="24.0" height="8.0" fill="#000000"/><rect x="88.0" y="61.0" width="8.0" height="8.0" fill="#000000"/><polygon points="72.0,61.0 80.0,45.0 80.0,61.0" fill="#ffd966"/><rect x="152.0" y="37.0" width="8.0" height="8.0" fill="#000000"/><polygon points="168.0,37.0 168.0,45.0 192.0,45.0" fill="#ffd966"/><rect x="192.0" y="45.0" width="8.0" height="16.0" fill="#000000"/><rect x="168.0" y="61.0" width="24.0" height="8.0" fill="#2f3fbf"/><rect x="144.0" y="61.0" width="24.0" height="8.0" fill="#000000"/><polygon points="136.0,61.0 144.0,45.0 144.0,61.0" fill="#000000"/><rect x="24.0" y="69.0" width="8.0" height="8.0" fill="#000000"/><rect x="40.0" y="69.0" width="20.0" height="2.0" fill="#ffffff"/><rect x="60.0" y="69.0" width="4.0" height="8.0" fill="#ffffff"/><rect x="64.0" y="77.0" width="2.0" height="12.0" fill="#2f3fbf"/><rect x="64.0" y="89.0" width="8.0" height="4.0" fill="#2f3fbf"/><rect x="40.0" y="93.0" width="24.0" height="8.0" fill="#ffd966"/><polygon points="16.0,93.0 40.0,93.0 40.0,101.0" fill="#000000"/><rect x="14.0" y="81.0" width="2.0" height="12.0" fill="#ffffff"/><rect x="8.0" y="77.0" width="8.0" height="4.0" fill="#ffffff"/><rect x="88.0" y="69.0" width="8.0" height="8.0" fill="#2f3fbf"/><rect x="112.0" y="69.0" width="8.0" height="8.0" fill="#ffffff"/><rect x="128.0" y="81.0" width="8.0" height="8.0" fill="#ffffff"/><rect x="108.0" y="99.0" width="20.0" height="2.0" fill="#ffd966"/><rect x="104.0" y="93.0" width="4.0" height="8.0" fill="#ffd966"/><rect x="88.0" y="93.0" width="8.0" height="8.0" fill="#ffffff"/><rect x="78.0" y="81.0" width="2.0" height="12.0" fill="#ffd966"/><rect x="72.0" y="77.0" width="8.0" height="4.0" fill="#ffd966"/><rect x="144.0" y="69.0" width="24.0" height="8.0" fill="#000000"/><rect x="168.0" y="69.0" width="20.0" height="2.0" fill="#2f3fbf"/><rect x="188.0" y="69.0" width="4.0" height="8.0" fill="#2f3fbf"/><polygon points="192.0,77.0 200.0,77.0 192.0,93.0" fill="#2f3fbf"/><rect x="176.0" y="93.0" width="8.0" height="8.0" fill="#000000"/><rect x="152.0" y="93.0" width="8.0" height="8.0" fill="#2f3fbf"/><rect x="136.0" y="77.0" width="8.0" height="16.0" fill="#2f3fbf"/><rect x="16.0" y="101.0" width="24.0" height="8.0" fill="#2f3fbf"/><rect x="48.0" y="101.0" width="8.0" height="8.0" fill="#2f3fbf"/><rect x="64.0" y="113.0" width="8.0" height="8.0" fill="#ffd966"/><polygon points="40.0,125.0 64.0,125.0 64.0,133.0" fill="#000000"/><polygon points="16.0,125.0 40.0,125.0 40.0,133.0" fill="#ffd966"/><rect x="14.0" y="113.0" width="2.0" height="12.0" fill="#2f3fbf"/><rect x="8.0" y="109.0" width="8.0" height="4.0" fill="#2f3fbf"/><polygon points="80.0,101.0 80.0,109.0 104.0,109.0" fill="#2f3fbf"/><rect x="112.0" y="101.0" width="8.0" height="8.0" fill="#2f3fbf"/><rect x="128.0" y="109.0" width="8.0" height="16.0" fill="#ffffff"/><polygon points="104.0,125.0 128.0,125.0 128.0,133.0" fill="#ffd966"/><polygon points="80.0,125.0 104.0,125.0 104.0,133.0" fill="#000000"/><rect x="72.0" y="109.0" width="8.0" height="16.0" fill="#2f3fbf"/><rect x="152.0" y="101.0" width="8.0" height="8.0" fill="#ffd966"/><rect x="176.0" y="101.0" width="8.0" height="8.0" fill="#2f3fbf"/><polygon points="192.0,109.0 200.0,109.0 192.0,125.0" fill="#000000"/><rect x="176.0" y="125.0" width="8.0" height="8.0" fill="#000000"/><polygon points="144.0,125.0 168.0,125.0 168.0,133.0" fill="#000000"/><rect x="142.0" y="113.0" width="2.0" height="12.0" fill="#2f3fbf"/><rect x="136.0" y="109.0" width="8.0" height="4.0" fill="#2f3fbf"/><rect x="16.0" y="13.0" width="48.0" height="16.0" fill="#aaaaaa"/><text x="40.0" y="21.0" fill="#ffffff" style="font-family: monospace; font-size: 16.0px;" text-anchor="middle" dominant-baseline="central">AAAAAA</text><rect x="144.0" y="13.0" width="48.0" height="16.0" fill="#aaaaaa"/><text x="168.0" y="21.0" fill="#ffffff" style="font-family: monospace; font-size: 16.0px;" text-anchor="middle" dominant-baseline="central">AAAAAA</text><rect x="16.0" y="45.0" width="48.0" height="16.0" fill="#aaaaaa"/><text x="40.0" y="53.0" fill="#ffffff" style="font-family: monospace; font-size: 16.0px;" text-anchor="middle" dominant-baseline="central">AAAAAA</text><rect x="80.0" y="45.0" width="48.0" height="16.0" fill="#aaaaaa"/><text x="104.0" y="53.0" fill="#ffffff" style="font-family: monospace; font-size: 16.0px;" text-anchor="middle" dominant-baseline="central">AAAAAA</text><rect x="144.0" y="45.0" width="48.0" height="16.0" fill="#aaaaaa"/><text x="168.0" y="53.0" fill="#ffffff" style="font-family: monospace; font-size: 16.0px;" text-anchor="middle" dominant-baseline="central">AAAAAA</text><rect x="16.0" y="77.0" width="48.0" height="16.0" fill="#aaaaaa"/><text x="40.0" y="85.0" fill="#ffffff" style="font-family: monospace; font-size: 16.0px;" text-anchor="middle" dominant-baseline="central">AAAAAA</text><rect x="80.0" y="77.0" width="48.0" height="16.0" fill="#aaaaaa"/><text x="104.0" y="85.0" fill="#ffffff" style="font-family: monospace; font-size: 16.0px;" text-anchor="middle" dominant-baseline="central">AAAAAA</text><rect x="144.0" y="77.0" width="48.0" height="16.0" fill="#aaaaaa"/><text x="168.0" y="85.0" fill="#ffffff" style="font-family: monospace; font-size: 16.0px;" text-anchor="middle" dominant-baseline="central">AAAAAA</text><rect x="16.0" y="109.0" width="48.0" height="16.0" fill="#aaaaaa"/><text x="40.0" y="117.0" fill="#ffffff" style="font-family: monospace; font-size: 16.0px;" text-anchor="middle" dominant-baseline="central">AAAAAA</text><rect x="80.0" y="109.0" width="48.0" height="16.0" fill="#aaaaaa"/><text x="104.0" y="117.0" fill="#ffffff" style="font-family: monospace; font-size: 16.0px;" text-anchor="middle" dominant-baseline="central">AAAAAA</text><rect x="144.0" y="109.0" width="48.0" height="16.0" fill="#aaaaaa"/><text x="168.0" y="117.0" fill="#ffffff" style="font-family: monospace; font-size: 16.0px;" text-anchor="middle" dominant-baseline="central">AAAA</text><circle cx="10.0" cy="71.0" r="2.0" fill="#ffffff"/><circle cx="70.0" cy="103.0" r="2.0" fill="#ffd966"/><circle cx="198.0" cy="131.0" r="2.0" fill="#2f3fbf"/><circle cx="10.0" cy="67.0" r="2.0" fill="#000000"/><line x1="4.0" y1="0" x2="204.0" y2="0" stroke="#000000" stroke-width="1"/><line x1="204.0" y1="0" x2="204.0" y2="157.0" stroke="#000000" stroke-width="1"/><line x1="4.0" y1="157.0" x2="204.0" y2="157.0" stroke="#000000" stroke-width="1"/></svg>