<svg width="141.0" height="158.0" xmlns="http://www.w3.org/2000/svg"><rect x="0" y="0" width="141.0" height="158.0" fill="#ffffff"/><rect x="8.0" y="5.0" width="128.0" height="128.0" fill="#2f3fbf"/><polygon points="16.0,13.0 24.0,5.0 24.0,13.0" fill="#ffffff"/><polygon points="32.0,5.0 40.0,5.0 32.0,13.0" fill="#ffffff"/><rect x="50.0" y="5.0" width="4.0" height="8.0" fill="#ffd966"/><rect x="43.0" y="7.0" width="18.0" height="2.0" fill="#ffd966"/><rect x="64.0" y="19.0" width="8.0" height="4.0" fill="#000000"/><rect x="67.0" y="16.0" width="2.0" height="10.0" fill="#000000"/><rect x="50.0" y="29.0" width="4.0" height="8.0" fill="#ffd966"/><rect x="43.0" y="33.0" width="18.0" height="2.0" fill="#ffd966"/><rect x="26.0" y="29.0" width="4.0" height="8.0" fill="#ffd966"/><rect x="19.0" y="33.0" width="18.0" height="2.0" fill="#ffd966"/><rect x="8.0" y="17.0" width="8.0" height="8.0" fill="#ff3f2f"/><rect x="90.0" y="5.0" width="4.0" height="8.0" fill="#ffffff"/><rect x="83.0" y="7.0" width="18.0" height="2.0" fill="#ffffff"/><rect x="112.0" y="5.0" width="8.0" height="8.0" fill="#ffffff"/><rect x="128.0" y="17.0" width="8.0" height="8.0" fill="#ff3f2f"/><rect x="114.0" y="29.0" width="4.0" height="8.0" fill="#ff3f2f"/><rect x="107.0" y="33.0" width="18.0" height="2.0" fill="#ff3f2f"/><rect x="88.0" y="29.0" width="8.0" height="8.0" fill="#ffffff"/><rect x="72.0" y="19.0" width="8.0" height="4.0" fill="#000000"/><rect x="75.0" y="16.0" width="2.0" height="10.0" fill="#000000"/><rect x="26.0" y="37.0" width="4.0" height="8.0" fill="#ff3f2f"/><rect x="19.0" y="39.0" width="18.0" height="2.0" fill="#ff3f2f"/><rect x="48.0" y="37.0" width="8.0" height="8.0" fill="#ffd966"/><polygon points="64.0,45.0 64.0,53.0 72.0,53.0" fill="#ffd966"/><polygon points="64.0,53.0 72.0,53.0 72.0,61.0" fill="#ffd966"/><rect x="48.0" y="61.0" width="8.0" height="8.0" fill="#ff3f2f"/><rect x="26.0" y="61.0" width="4.0" height="8.0" fill="#ffd966"/><rect x="19.0" y="65.0" width="18.0" height="2.0" fill="#ffd966"/><rect x="8.0" y="49.0" width="8.0" height="8.0" fill="#ff3f2f"/><rect x="88.0" y="37.0" width="8.0" height="8.0" fill="#ffd966"/><polygon points="104.0,45.0 112.0,37.0 112.0,45.0" fill="#000000"/><polygon points="120.0,37.0 128.0,37.0 120.0,45.0" fill="#000000"/><polygon points="128.0,45.0 128.0,53.0 136.0,53.0" fill="#ffffff"/><polygon points="128.0,53.0 136.0,53.0 136.0,61.0" fill="#ffffff"/><rect x="104.0" y="61.0" width="24.0" height="8.0" fill="#000000"/><rect x="88.0" y="61.0" width="8.0" height="8.0" fill="#000000"/><rect x="72.0" y="49.0" width="8.0" height="8.0" fill="#ff3f2f"/><rect x="16.0" y="69.0" width="24.0" height="8.0" fill="#ffd966"/><rect x="50.0" y="69.0" width="4.0" height="8.0" fill="#ffd966"/><rect x="43.0" y="71.0" width="18.0" height="2.0" fill="#ffd966"/><polygon points="64.0,77.0 64.0,85.0 72.0,85.0" fill="#000000"/><polygon points="64.0,85.0 72.0,85.0 72.0,93.0" fill="#000000"/><polygon points="40.0,93.0 48.0,93.0 40.0,101.0" fill="#ffd966"/><polygon points="56.0,101.0 64.0,93.0 64.0,101.0" fill="#ffd966"/><rect x="24.0" y="93.0" width="8.0" height="8.0" fill="#000000"/><rect x="8.0" y="81.0" width="8.0" height="8.0" fill="#ffffff"/><rect x="80.0" y="69.0" width="24.0" height="8.0" fill="#000000"/><rect x="104.0" y="69.0" width="24.0" height="8.0" fill="#ffd966"/><rect x="128.0" y="83.0" width="8.0" height="4.0" fill="#ff3f2f"/><rect x="131.0" y="80.0" width="2.0" height="10.0" fill="#ff3f2f"/><rect x="104.0" y="93.0" width="24.0" height="8.0" fill="#ffffff"/><rect x="90.0" y="93.0" width="4.0" height="8.0" fill="#ff3f2f"/><rect x="83.0" y="97.0" width="18.0" height="2.0" fill="#ff3f2f"/><rect x="72.0" y="83.0" width="8.0" height="4.0" fill="#ff3f2f"/><rect x="75.0" y="80.0" width="2.0" height="10.0" fill="#ff3f2f"/><rect x="16.0" y="101.0" width="24.0" height="8.0" fill="#000000"/><polygon points="40.0,109.0 48.0,101.0 48.0,109.0" fill="#ff3f2f"/><polygon points="56.0,101.0 64.0,101.0 56.0,109.0" fill="#ff3f2f"/><rect x="64.0" y="113.0" width="8.0" height="8.0" fill="#ffd966"/><polygon points="40.0,125.0 48.0,125.0 40.0,133.0" fill="#ffffff"/><polygon points="56.0,133.0 64.0,125.0 64.0,133.0" fill="#ffffff"/><rect x="16.0" y="125.0" width="24.0" height="8.0" fill="#ffffff"/><rect x="8.0" y="115.0" width="8.0" height="4.0" fill="#ffffff"/><rect x="11.0" y="112.0" width="2.0" height="10.0" fill="#ffffff"/><polygon points="80.0,109.0 88.0,101.0 88.0,109.0" fill="#ff3f2f"/><polygon points="96.0,101.0 104.0,101.0 96.0,109.0" fill="#ff3f2f"/><rect x="104.0" y="101.0" width="24.0" height="8.0" fill="#ffffff"/><rect x="128.0" y="109.0" width="8.0" height="16.0" fill="#ff3f2f"/><polygon points="104.0,125.0 112.0,125.0 104.0,133.0" fill="#ffffff"/><polygon points="120.0,133.0 128.0,125.0 128.0,133.0" fill="#ffffff"/><rect x="80.0" y="125.0" width="24.0" height="8.0" fill="#ffd966"/><rect x="72.0" y="113.0" width="8.0" height="8.0" fill="#ffffff"/><rect x="16.0" y="13.0" width="48.0" height="16.0" fill="#1e9de7"/><text x="40.0" y="21.0" fill="#ffffff" style="font-family: monospace; font-size: 16.0px;" text-anchor="middle" dominant-baseline="central">550e</text><rect x="80.0" y="13.0" width="48.0" height="16.0" fill="#348df3"/><text x="104.0" y="21.0" fill="#ffffff" style="font-family: monospace; font-size: 16.0px;" text-anchor="middle" dominant-baseline="central">8400</text><rect x="16.0" y="45.0" width="48.0" height="16.0" fill="#5b6f7b"/><text x="40.0" y="53.0" fill="#ffffff" style="font-family: monospace; font-size: 16.0px;" text-anchor="middle" dominant-baseline="central">e29b</text><rect x="80.0" y="45.0" width="48.0" height="16.0" fill="#7857e3"/><text x="104.0" y="53.0" fill="#ffffff" style="font-family: monospace; font-size: 16.0px;" text-anchor="middle" dominant-baseline="central">41d4</text><rect x="16.0" y="77.0" width="48.0" height="16.0" fill="#7abd6b"/><text x="40.0" y="85.0" fill="#ffffff" style="font-family: monospace; font-size: 16.0px;" text-anchor="middle" dominant-baseline="central">a716</text><rect x="80.0" y="77.0" width="48.0" height="16.0" fill="#ba8ee3"/><text x="104.0" y="85.0" fill="#ffffff" style="font-family: monospace; font-size: 16.0px;" text-anchor="middle" dominant-baseline="central">4466</text><rect x="16.0" y="109.0" width="48.0" height="16.0" fill="#389ee7"/><text x="40.0" y="117.0" fill="#ffffff" style="font-family: monospace; font-size: 16.0px;" text-anchor="middle" dominant-baseline="central">5544</text><rect x="80.0" y="109.0" width="48.0" height="16.0" fill="#354dd3"/><text x="104.0" y="117.0" fill="#ffffff" style="font-family: monospace; font-size: 16.0px;" text-anchor="middle" dominant-baseline="central">0001</text><circle cx="74.0" cy="7.0" r="2.0" fill="#ffffff"/><circle cx="134.0" cy="71.0" r="2.0" fill="#ffd966"/><circle cx="70.0" cy="67.0" r="2.0" fill="#ff3f2f"/><circle cx="74.0" cy="131.0" r="2.0" fill="#000000"/><line x1="4.0" y1="0" x2="140.0" y2="0" stroke="#000000" stroke-width="1"/><line x1="140.0" y1="0" x2="140.0" y2="157.0" stroke="#000000" stroke-width="1"/><line x1="4.0" y1="157.0" x2="140.0" y2="157.0" stroke="#000000" stroke-width="1"/></svg>