<svg width="213" height="172" viewBox="0 0 213 172" xmlns="http://www.w3.org/2000/svg" font-family="&quot;JetBrains Mono&quot;, &quot;Menlo&quot;, &quot;Consolas&quot;, &quot;DejaVu Sans Mono&quot;, &quot;Liberation Mono&quot;, &quot;Roboto Mono&quot;, &quot;Noto Sans Mono&quot;, monospace" data-entviz-version="v11" data-entviz-lib="0.10.0" data-input-bytes="34" data-cols="3" data-rows="3"><defs><clipPath id="grid-clip-4f0e0b55b8f79490-3x3"><rect x="27" y="26" width="180" height="120"/></clipPath></defs><rect x="0" y="0" width="213" height="172" fill="#ffffff"/><g data-channel="grid"><rect x="27" y="26" width="180" height="120" fill="#2f3fbf"/><g><path fill="#000000" d="M27 26h6v10h-6zM33 26h6v10h-6zM45 26h6v10h-6zM81 26h6v10h-6zM81 36h6v10h-6zM81 46h6v10h-6zM57 56h6v10h-6zM51 56h6v10h-6zM45 56h6v10h-6zM39 56h6v10h-6zM27 46h6v10h-6z"/><path fill="#000000" d="M147 26h6v10h-6zM153 26h6v10h-6zM159 26h6v10h-6zM171 26h6v10h-6zM177 26h6v10h-6zM183 26h6v10h-6zM189 26h6v10h-6zM201 46h6v10h-6zM201 56h6v10h-6zM195 56h6v10h-6zM183 56h6v10h-6zM177 56h6v10h-6zM165 56h6v10h-6zM153 56h6v10h-6zM147 46h6v10h-6z"/><path fill="#e7be00" d="M27 66h6v10h-6zM45 66h6v10h-6zM57 66h6v10h-6zM63 66h6v10h-6zM69 66h6v10h-6zM81 96h6v10h-6zM63 96h6v10h-6zM45 96h6v10h-6zM33 96h6v10h-6zM27 76h6v10h-6z"/><path fill="#000000" d="M93 66h6v10h-6zM99 66h6v10h-6zM105 66h6v10h-6zM117 66h6v10h-6zM135 66h6v10h-6zM141 66h6v10h-6zM141 76h6v10h-6zM141 86h6v10h-6zM129 96h6v10h-6zM111 96h6v10h-6zM105 96h6v10h-6zM99 96h6v10h-6zM93 96h6v10h-6zM87 86h6v10h-6z"/><path fill="#e7be00" d="M153 66h6v10h-6zM171 66h6v10h-6zM177 66h6v10h-6zM183 66h6v10h-6zM189 66h6v10h-6zM195 66h6v10h-6zM201 66h6v10h-6zM201 76h6v10h-6zM201 96h6v10h-6zM189 96h6v10h-6zM183 96h6v10h-6zM171 96h6v10h-6zM165 96h6v10h-6zM153 96h6v10h-6z"/><path fill="#000000" d="M27 106h6v10h-6zM51 106h6v10h-6zM57 106h6v10h-6zM69 106h6v10h-6zM75 106h6v10h-6zM81 106h6v10h-6zM81 126h6v10h-6zM81 136h6v10h-6zM63 136h6v10h-6zM39 136h6v10h-6zM27 116h6v10h-6z"/><path fill="#ff3f2f" d="M105 106h6v10h-6zM111 106h6v10h-6zM129 106h6v10h-6zM135 106h6v10h-6zM141 116h6v10h-6zM135 136h6v10h-6zM129 136h6v10h-6zM123 136h6v10h-6zM111 136h6v10h-6zM99 136h6v10h-6zM93 136h6v10h-6zM87 136h6v10h-6zM87 116h6v10h-6z"/><path fill="#ffffff" d="M165 106h6v10h-6zM171 106h6v10h-6zM183 106h6v10h-6zM201 116h6v10h-6zM201 136h6v10h-6zM189 136h6v10h-6zM183 136h6v10h-6zM171 136h6v10h-6zM165 136h6v10h-6zM159 136h6v10h-6zM153 136h6v10h-6zM147 126h6v10h-6zM147 116h6v10h-6z"/></g><g clip-path="url(#grid-clip-4f0e0b55b8f79490-3x3)" data-channel="ellipse" data-ellipse-anchor-x="27" data-ellipse-anchor-y="146" data-ellipse-rx="99.513" data-ellipse-ry="47.593" data-ellipse-rotation-deg="120"><ellipse cx="27" cy="146" rx="99.513" ry="47.593" transform="rotate(120 27 146)" fill="#ffffff" stroke="#ffffff" fill-opacity="0.35" stroke-opacity="0.45" stroke-width="2"/></g><g><g data-channel="cell" data-cell-index="0" data-cell-row="0" data-cell-col="0" data-surround-bits="0x4f0e0b" data-edge-color="#000000"><rect x="33" y="36" width="48" height="20" fill="#560e24"/><text x="57" y="46" fill="#ffffff" font-size="16" text-anchor="middle" dominant-baseline="central">A1zP</text></g><g data-channel="cell" data-cell-index="1" data-cell-row="0" data-cell-col="1" data-cell-blank="true" data-cell-blank-map="true"><rect x="93" y="36" width="48" height="20" rx="10" ry="10" fill="#ffffff" stroke="#000000" stroke-width="1"/><circle cx="133" cy="46" r="3.5" fill="#000000" data-blank-map-min="1,2"/><path d="M 128.8,52.667 H 137.2 M 133,48.467 V 56.867" fill="none" stroke="#000000" stroke-width="1.925" stroke-linecap="butt" data-blank-map-max="2,2"/></g><g data-channel="cell" data-cell-index="2" data-cell-row="0" data-cell-col="2" data-surround-bits="0x55b8f7" data-edge-color="#000000" data-cell-quartile="1"><rect x="153" y="36" width="48" height="20" fill="#845502"/><text x="177" y="46" fill="#ffffff" font-size="16" text-anchor="middle" dominant-baseline="central">1eP5</text><polygon points="153,36 163,36 153,46" fill="#ffffff"/></g><g data-channel="cell" data-cell-index="3" data-cell-row="1" data-cell-col="0" data-surround-bits="0x9490e9" data-edge-color="#e7be00" data-cell-quartile="3"><rect x="33" y="76" width="48" height="20" fill="#66f95c"/><text x="57" y="86" fill="#000000" font-size="16" text-anchor="middle" dominant-baseline="central">QGef</text><polygon points="81,96 81,86 71,96" fill="#000000"/></g><g data-channel="cell" data-cell-index="4" data-cell-row="1" data-cell-col="1" data-surround-bits="0x5e4f2e" data-edge-color="#000000"><rect x="93" y="76" width="48" height="20" fill="#1413a4"/><text x="117" y="86" fill="#ffffff" font-size="16" text-anchor="middle" dominant-baseline="central">i2DM</text></g><g data-channel="cell" data-cell-index="5" data-cell-row="1" data-cell-col="2" data-surround-bits="0x16d7f2" data-edge-color="#e7be00"><rect x="153" y="76" width="48" height="20" fill="#9aa959"/><text x="177" y="86" fill="#000000" font-size="16" text-anchor="middle" dominant-baseline="central">PTfT</text></g><g data-channel="cell" data-cell-index="6" data-cell-row="2" data-cell-col="0" data-surround-bits="0x889bb1" data-edge-color="#000000" data-cell-quartile="4"><rect x="33" y="116" width="48" height="20" fill="#53464c"/><text x="57" y="126" fill="#ffffff" font-size="16" text-anchor="middle" dominant-baseline="central">L5SL</text><polygon points="33,136 33,126 43,136" fill="#ffffff"/></g><g data-channel="cell" data-cell-index="7" data-cell-row="2" data-cell-col="1" data-surround-bits="0xbae598" data-edge-color="#ff3f2f"><rect x="93" y="116" width="48" height="20" fill="#8c51b3"/><text x="117" y="126" fill="#ffffff" font-size="16" text-anchor="middle" dominant-baseline="central">mv7D</text></g><g data-channel="cell" data-cell-index="8" data-cell-row="2" data-cell-col="2" data-surround-bits="0xded458" data-edge-color="#ffffff" data-cell-quartile="2"><rect x="153" y="116" width="48" height="20" fill="#699aa6"/><text x="177" y="126" fill="#000000" font-size="16" text-anchor="middle" dominant-baseline="central">i</text><polygon points="201,116 191,116 201,126" fill="#000000"/></g></g></g><g data-channel="color-bar" data-bar-slots="14" data-bar-marker-left="1" data-bar-marker-right="9"><g data-color-bar-rank="0" data-color-bar-band="K"><rect x="1" y="1" width="20" height="34.844" fill="#000000"/><text x="11" y="32.324" fill="#ffffff" font-size="16" text-anchor="middle" data-color-bar-letter="true">k</text></g><g data-color-bar-rank="1" data-color-bar-band="W"><rect x="1" y="35.844" width="20" height="42.222" fill="#ffffff"/><text x="11" y="74.546" fill="#000000" font-size="16" text-anchor="middle" data-color-bar-letter="true">w</text></g><g data-color-bar-rank="2" data-color-bar-band="G"><rect x="1" y="78.066" width="20" height="42.222" fill="#e7be00"/><text x="11" y="116.768" fill="#000000" font-size="16" text-anchor="middle" data-color-bar-letter="true">g</text></g><g data-color-bar-rank="3" data-color-bar-band="R"><rect x="1" y="120.288" width="20" height="50.712" fill="#ff3f2f"/><text x="11" y="167.48" fill="#000000" font-size="16" text-anchor="middle" data-color-bar-letter="true">r</text></g><circle cx="5.6" cy="19.214" r="3.4" fill="#ffffff" stroke="#000000" stroke-width="0.75" data-bar-marker="left"/><circle cx="16.4" cy="116.357" r="3.4" fill="#ffffff" stroke="#000000" stroke-width="0.75" data-bar-marker="right"/></g><g data-channel="label-top"><text x="27" y="16" fill="#666666" font-size="12" dominant-baseline="central">BTC legacy: 1...</text></g><g data-channel="label-bottom"><text x="207" y="156" fill="#666666" font-size="12" text-anchor="end" dominant-baseline="central">...vfNa</text></g><line x1="0" y1="0.5" x2="213" y2="0.5" stroke="#808080" stroke-width="1" shape-rendering="crispEdges"/><line x1="212.5" y1="0" x2="212.5" y2="172" stroke="#808080" stroke-width="1" shape-rendering="crispEdges"/><line x1="0" y1="171.5" x2="213" y2="171.5" stroke="#808080" stroke-width="1" shape-rendering="crispEdges"/><line x1="0.5" y1="0" x2="0.5" y2="172" stroke="#808080" stroke-width="1" shape-rendering="crispEdges"/><line x1="21.5" y1="0" x2="21.5" y2="172" stroke="#808080" stroke-width="1" shape-rendering="crispEdges"/></svg>