<svg width="273" height="152" viewBox="0 0 273 152" xmlns="http://www.w3.org/2000/svg" font-family="&quot;JetBrains Mono&quot;, &quot;Menlo&quot;, &quot;Consolas&quot;, &quot;DejaVu Sans Mono&quot;, &quot;Liberation Mono&quot;, &quot;Roboto Mono&quot;, &quot;Noto Sans Mono&quot;, monospace" data-entviz-version="v11" data-entviz-lib="0.11.0" data-input-bytes="64" data-cols="4" data-rows="3"><defs><clipPath id="grid-clip-8ed0861e43294df7-4x3"><rect x="27" y="26" width="240" height="120"/></clipPath></defs><rect x="0" y="0" width="273" height="152" fill="#ffffff"/><g data-channel="grid"><rect x="27" y="26" width="240" height="120" fill="#2f3fbf"/><g><path fill="#ff3f2f" d="M33 26h6v10h-6zM39 26h6v10h-6zM69 26h6v10h-6zM81 56h6v10h-6zM69 56h6v10h-6zM63 56h6v10h-6zM51 56h6v10h-6zM45 56h6v10h-6zM39 56h6v10h-6zM27 36h6v10h-6z"/><path fill="#ffffff" d="M87 26h6v10h-6zM105 26h6v10h-6zM117 26h6v10h-6zM135 26h6v10h-6zM141 26h6v10h-6zM129 56h6v10h-6zM111 56h6v10h-6zM105 56h6v10h-6zM99 56h6v10h-6zM93 56h6v10h-6z"/><path fill="#ffffff" d="M147 26h6v10h-6zM177 26h6v10h-6zM183 26h6v10h-6zM195 26h6v10h-6zM201 26h6v10h-6zM201 36h6v10h-6zM201 56h6v10h-6zM195 56h6v10h-6zM189 56h6v10h-6zM183 56h6v10h-6zM177 56h6v10h-6zM165 56h6v10h-6zM159 56h6v10h-6zM147 46h6v10h-6z"/><path fill="#ff3f2f" d="M207 26h6v10h-6zM213 26h6v10h-6zM219 26h6v10h-6zM237 26h6v10h-6zM261 46h6v10h-6zM243 56h6v10h-6zM237 56h6v10h-6zM225 56h6v10h-6zM213 56h6v10h-6zM207 56h6v10h-6zM207 46h6v10h-6z"/><path fill="#e7be00" d="M27 66h6v10h-6zM45 66h6v10h-6zM57 66h6v10h-6zM63 66h6v10h-6zM69 66h6v10h-6zM75 66h6v10h-6zM81 86h6v10h-6zM75 96h6v10h-6zM63 96h6v10h-6zM39 96h6v10h-6zM33 96h6v10h-6zM27 86h6v10h-6zM27 76h6v10h-6z"/><path fill="#ff3f2f" d="M99 66h6v10h-6zM117 66h6v10h-6zM123 66h6v10h-6zM141 66h6v10h-6zM141 76h6v10h-6zM123 96h6v10h-6zM111 96h6v10h-6zM99 96h6v10h-6zM87 86h6v10h-6zM87 76h6v10h-6z"/><path fill="#ffffff" d="M189 66h6v10h-6zM195 66h6v10h-6zM201 76h6v10h-6zM201 96h6v10h-6zM195 96h6v10h-6zM189 96h6v10h-6zM183 96h6v10h-6zM177 96h6v10h-6zM165 96h6v10h-6zM159 96h6v10h-6zM147 96h6v10h-6z"/><path fill="#000000" d="M237 66h6v10h-6zM261 76h6v10h-6zM249 96h6v10h-6zM243 96h6v10h-6zM237 96h6v10h-6zM225 96h6v10h-6zM213 96h6v10h-6zM207 96h6v10h-6zM207 86h6v10h-6zM207 76h6v10h-6z"/><path fill="#000000" d="M87 106h6v10h-6zM93 106h6v10h-6zM105 106h6v10h-6zM111 106h6v10h-6zM117 106h6v10h-6zM123 106h6v10h-6zM129 106h6v10h-6zM141 106h6v10h-6zM141 116h6v10h-6zM141 126h6v10h-6zM117 136h6v10h-6zM105 136h6v10h-6zM99 136h6v10h-6zM93 136h6v10h-6zM87 126h6v10h-6z"/><path fill="#ff3f2f" d="M153 106h6v10h-6zM159 106h6v10h-6zM165 106h6v10h-6zM171 106h6v10h-6zM177 106h6v10h-6zM183 106h6v10h-6zM195 106h6v10h-6zM201 106h6v10h-6zM201 116h6v10h-6zM201 126h6v10h-6zM171 136h6v10h-6zM153 136h6v10h-6zM147 116h6v10h-6z"/><path fill="#000000" d="M207 106h6v10h-6zM213 106h6v10h-6zM261 116h6v10h-6zM261 136h6v10h-6zM249 136h6v10h-6zM237 136h6v10h-6zM207 136h6v10h-6zM207 116h6v10h-6z"/></g><g clip-path="url(#grid-clip-8ed0861e43294df7-4x3)" data-channel="ellipse" data-ellipse-anchor-x="147" data-ellipse-anchor-y="106" data-ellipse-rx="66.342" data-ellipse-ry="31.729" data-ellipse-rotation-deg="108"><ellipse cx="147" cy="106" rx="66.342" ry="31.729" transform="rotate(108 147 106)" fill="#ffffff" stroke="#ffffff" fill-opacity="0.35" stroke-opacity="0.45" stroke-width="2"/></g><g><g data-channel="cell" data-cell-index="0" data-cell-row="0" data-cell-col="0" data-surround-bits="0x8ed086" data-edge-color="#ff3f2f"><rect x="33" y="36" width="48" height="20" fill="#beadde"/><text x="57" y="46" fill="#000000" font-size="12" text-anchor="middle" dominant-baseline="central">deadbe</text></g><g data-channel="cell" data-cell-index="1" data-cell-row="0" data-cell-col="1" data-surround-bits="0x1e4329" data-edge-color="#ffffff" data-cell-quartile="4"><rect x="93" y="36" width="48" height="20" fill="#fecaef"/><text x="117" y="46" fill="#000000" font-size="12" text-anchor="middle" dominant-baseline="central">efcafe</text><polygon points="93,56 93,46 103,56" fill="#000000"/></g><g data-channel="cell" data-cell-index="2" data-cell-row="0" data-cell-col="2" data-surround-bits="0x4df761" data-edge-color="#ffffff" data-cell-quartile="3"><rect x="153" y="36" width="48" height="20" fill="#12beba"/><text x="177" y="46" fill="#000000" font-size="12" text-anchor="middle" dominant-baseline="central">babe12</text><polygon points="201,56 201,46 191,56" fill="#000000"/></g><g data-channel="cell" data-cell-index="3" data-cell-row="0" data-cell-col="3" data-surround-bits="0x758827" data-edge-color="#ff3f2f"><rect x="213" y="36" width="48" height="20" fill="#785634"/><text x="237" y="46" fill="#ffffff" font-size="12" text-anchor="middle" dominant-baseline="central">345678</text></g><g data-channel="cell" data-cell-index="4" data-cell-row="1" data-cell-col="0" data-surround-bits="0xd8a9e9" data-edge-color="#e7be00"><rect x="33" y="76" width="48" height="20" fill="#cdab90"/><text x="57" y="86" fill="#000000" font-size="12" text-anchor="middle" dominant-baseline="central">90abcd</text></g><g data-channel="cell" data-cell-index="5" data-cell-row="1" data-cell-col="1" data-surround-bits="0xca8664" data-edge-color="#ff3f2f"><rect x="93" y="76" width="48" height="20" fill="#ed0fef"/><text x="117" y="86" fill="#000000" font-size="12" text-anchor="middle" dominant-baseline="central">ef0fed</text></g><g data-channel="cell" data-cell-index="6" data-cell-row="1" data-cell-col="2" data-surround-bits="0x2df580" data-edge-color="#ffffff"><rect x="153" y="76" width="48" height="20" fill="#87a9cb"/><text x="177" y="86" fill="#000000" font-size="12" text-anchor="middle" dominant-baseline="central">cba987</text></g><g data-channel="cell" data-cell-index="7" data-cell-row="1" data-cell-col="3" data-surround-bits="0xf5c420" data-edge-color="#000000"><rect x="213" y="76" width="48" height="20" fill="#214365"/><text x="237" y="86" fill="#ffffff" font-size="12" text-anchor="middle" dominant-baseline="central">654321</text></g><g data-channel="cell" data-cell-index="8" data-cell-row="2" data-cell-col="0" data-cell-blank="true" data-cell-blank-map="true"><rect x="33" y="116" width="48" height="20" rx="10" ry="10" fill="#000000" stroke="#000000" stroke-width="1"/><circle cx="51" cy="119.333" r="3.5" fill="#ffffff" data-blank-map-min="0,1"/><path d="M 70.8,126 H 79.2 M 75,121.8 V 130.2" fill="none" stroke="#ffffff" stroke-width="1.925" stroke-linecap="butt" data-blank-map-max="1,3"/></g><g data-channel="cell" data-cell-index="9" data-cell-row="2" data-cell-col="1" data-surround-bits="0x5d0efb" data-edge-color="#000000"><rect x="93" y="116" width="48" height="20" fill="#452301"/><text x="117" y="126" fill="#ffffff" font-size="12" text-anchor="middle" dominant-baseline="central">012345</text></g><g data-channel="cell" data-cell-index="10" data-cell-row="2" data-cell-col="2" data-surround-bits="0x920f7e" data-edge-color="#ff3f2f" data-cell-quartile="1"><rect x="153" y="116" width="48" height="20" fill="#ab8967"/><text x="177" y="126" fill="#000000" font-size="12" text-anchor="middle" dominant-baseline="central">6789ab</text><polygon points="153,116 163,116 153,126" fill="#000000"/></g><g data-channel="cell" data-cell-index="11" data-cell-row="2" data-cell-col="3" data-surround-bits="0xa15403" data-edge-color="#000000" data-cell-quartile="2"><rect x="213" y="116" width="48" height="20" fill="#efefcd"/><text x="237" y="126" fill="#000000" font-size="12" text-anchor="middle" dominant-baseline="central">cdef</text><polygon points="261,116 251,116 261,126" fill="#000000"/></g></g></g><g data-channel="color-bar" data-bar-slots="12" data-bar-marker-left="10" data-bar-marker-right="3"><g data-color-bar-rank="0" data-color-bar-band="R"><rect x="1" y="1" width="20" height="48.611" fill="#ff3f2f"/><text x="11" y="46.971" fill="#000000" font-size="12" text-anchor="middle" data-color-bar-letter="true">r</text></g><g data-color-bar-rank="1" data-color-bar-band="K"><rect x="1" y="49.611" width="20" height="21.09" fill="#000000"/><text x="11" y="68.061" fill="#ffffff" font-size="12" text-anchor="middle" data-color-bar-letter="true">k</text></g><g data-color-bar-rank="2" data-color-bar-band="W"><rect x="1" y="70.701" width="20" height="48.611" fill="#ffffff"/><text x="11" y="116.672" fill="#000000" font-size="12" text-anchor="middle" data-color-bar-letter="true">w</text></g><g data-color-bar-rank="3" data-color-bar-band="G"><rect x="1" y="119.312" width="20" height="31.688" fill="#e7be00"/><text x="11" y="148.36" fill="#000000" font-size="12" text-anchor="middle" data-color-bar-letter="true">g</text></g><circle cx="5.6" cy="132.25" r="3.4" fill="#ffffff" stroke="#000000" stroke-width="0.75" data-bar-marker="left"/><circle cx="16.4" cy="44.75" r="3.4" fill="#ffffff" stroke="#000000" stroke-width="0.75" data-bar-marker="right"/></g><g data-channel="label-top"><text x="27" y="16" fill="#666666" font-size="12" dominant-baseline="central">hex(64):</text></g><line x1="0" y1="0.5" x2="273" y2="0.5" stroke="#808080" stroke-width="1" shape-rendering="crispEdges"/><line x1="272.5" y1="0" x2="272.5" y2="152" stroke="#808080" stroke-width="1" shape-rendering="crispEdges"/><line x1="0" y1="151.5" x2="273" y2="151.5" stroke="#808080" stroke-width="1" shape-rendering="crispEdges"/><line x1="0.5" y1="0" x2="0.5" y2="152" stroke="#808080" stroke-width="1" shape-rendering="crispEdges"/><line x1="21.5" y1="0" x2="21.5" y2="152" stroke="#808080" stroke-width="1" shape-rendering="crispEdges"/></svg>