<svg width="273" height="152" viewBox="0 0 273 152" xmlns="http://www.w3.org/2000/svg" font-family="&quot;JetBrains Mono&quot;, &quot;Menlo&quot;, &quot;Consolas&quot;, &quot;DejaVu Sans Mono&quot;, &quot;Liberation Mono&quot;, &quot;Roboto Mono&quot;, &quot;Noto Sans Mono&quot;, monospace" data-entviz-version="v10" data-entviz-lib="0.10.0" data-input-bytes="64" data-cols="4" data-rows="3"><defs><clipPath id="grid-clip-8ed0861e43294df7-4x3"><rect x="27" y="26" width="240" height="120"/></clipPath></defs><rect x="0" y="0" width="273" height="152" fill="#ffffff"/><g data-channel="grid"><rect x="27" y="26" width="240" height="120" fill="#2f3fbf"/><g><rect x="33" y="26" width="6" height="10" fill="#ff3f2f"/><rect x="39" y="26" width="6" height="10" fill="#ff3f2f"/><rect x="69" y="26" width="6" height="10" fill="#ff3f2f"/><rect x="81" y="56" width="6" height="10" fill="#ff3f2f"/><rect x="69" y="56" width="6" height="10" fill="#ff3f2f"/><rect x="63" y="56" width="6" height="10" fill="#ff3f2f"/><rect x="51" y="56" width="6" height="10" fill="#ff3f2f"/><rect x="45" y="56" width="6" height="10" fill="#ff3f2f"/><rect x="39" y="56" width="6" height="10" fill="#ff3f2f"/><rect x="27" y="36" width="6" height="10" fill="#ff3f2f"/><rect x="87" y="26" width="6" height="10" fill="#ffffff"/><rect x="105" y="26" width="6" height="10" fill="#ffffff"/><rect x="117" y="26" width="6" height="10" fill="#ffffff"/><rect x="135" y="26" width="6" height="10" fill="#ffffff"/><rect x="141" y="26" width="6" height="10" fill="#ffffff"/><rect x="129" y="56" width="6" height="10" fill="#ffffff"/><rect x="111" y="56" width="6" height="10" fill="#ffffff"/><rect x="105" y="56" width="6" height="10" fill="#ffffff"/><rect x="99" y="56" width="6" height="10" fill="#ffffff"/><rect x="93" y="56" width="6" height="10" fill="#ffffff"/><rect x="147" y="26" width="6" height="10" fill="#ffffff"/><rect x="177" y="26" width="6" height="10" fill="#ffffff"/><rect x="183" y="26" width="6" height="10" fill="#ffffff"/><rect x="195" y="26" width="6" height="10" fill="#ffffff"/><rect x="201" y="26" width="6" height="10" fill="#ffffff"/><rect x="201" y="36" width="6" height="10" fill="#ffffff"/><rect x="201" y="56" width="6" height="10" fill="#ffffff"/><rect x="195" y="56" width="6" height="10" fill="#ffffff"/><rect x="189" y="56" width="6" height="10" fill="#ffffff"/><rect x="183" y="56" width="6" height="10" fill="#ffffff"/><rect x="177" y="56" width="6" height="10" fill="#ffffff"/><rect x="165" y="56" width="6" height="10" fill="#ffffff"/><rect x="159" y="56" width="6" height="10" fill="#ffffff"/><rect x="147" y="46" width="6" height="10" fill="#ffffff"/><rect x="207" y="26" width="6" height="10" fill="#ff3f2f"/><rect x="213" y="26" width="6" height="10" fill="#ff3f2f"/><rect x="219" y="26" width="6" height="10" fill="#ff3f2f"/><rect x="237" y="26" width="6" height="10" fill="#ff3f2f"/><rect x="261" y="46" width="6" height="10" fill="#ff3f2f"/><rect x="243" y="56" width="6" height="10" fill="#ff3f2f"/><rect x="237" y="56" width="6" height="10" fill="#ff3f2f"/><rect x="225" y="56" width="6" height="10" fill="#ff3f2f"/><rect x="213" y="56" width="6" height="10" fill="#ff3f2f"/><rect x="207" y="56" width="6" height="10" fill="#ff3f2f"/><rect x="207" y="46" width="6" height="10" fill="#ff3f2f"/><rect x="27" y="66" width="6" height="10" fill="#e7be00"/><rect x="45" y="66" width="6" height="10" fill="#e7be00"/><rect x="57" y="66" width="6" height="10" fill="#e7be00"/><rect x="63" y="66" width="6" height="10" fill="#e7be00"/><rect x="69" y="66" width="6" height="10" fill="#e7be00"/><rect x="75" y="66" width="6" height="10" fill="#e7be00"/><rect x="81" y="86" width="6" height="10" fill="#e7be00"/><rect x="75" y="96" width="6" height="10" fill="#e7be00"/><rect x="63" y="96" width="6" height="10" fill="#e7be00"/><rect x="39" y="96" width="6" height="10" fill="#e7be00"/><rect x="33" y="96" width="6" height="10" fill="#e7be00"/><rect x="27" y="86" width="6" height="10" fill="#e7be00"/><rect x="27" y="76" width="6" height="10" fill="#e7be00"/><rect x="99" y="66" width="6" height="10" fill="#ff3f2f"/><rect x="117" y="66" width="6" height="10" fill="#ff3f2f"/><rect x="123" y="66" width="6" height="10" fill="#ff3f2f"/><rect x="141" y="66" width="6" height="10" fill="#ff3f2f"/><rect x="141" y="76" width="6" height="10" fill="#ff3f2f"/><rect x="123" y="96" width="6" height="10" fill="#ff3f2f"/><rect x="111" y="96" width="6" height="10" fill="#ff3f2f"/><rect x="99" y="96" width="6" height="10" fill="#ff3f2f"/><rect x="87" y="86" width="6" height="10" fill="#ff3f2f"/><rect x="87" y="76" width="6" height="10" fill="#ff3f2f"/><rect x="189" y="66" width="6" height="10" fill="#ffffff"/><rect x="195" y="66" width="6" height="10" fill="#ffffff"/><rect x="201" y="76" width="6" height="10" fill="#ffffff"/><rect x="201" y="96" width="6" height="10" fill="#ffffff"/><rect x="195" y="96" width="6" height="10" fill="#ffffff"/><rect x="189" y="96" width="6" height="10" fill="#ffffff"/><rect x="183" y="96" width="6" height="10" fill="#ffffff"/><rect x="177" y="96" width="6" height="10" fill="#ffffff"/><rect x="165" y="96" width="6" height="10" fill="#ffffff"/><rect x="159" y="96" width="6" height="10" fill="#ffffff"/><rect x="147" y="96" width="6" height="10" fill="#ffffff"/><rect x="237" y="66" width="6" height="10" fill="#000000"/><rect x="261" y="76" width="6" height="10" fill="#000000"/><rect x="249" y="96" width="6" height="10" fill="#000000"/><rect x="243" y="96" width="6" height="10" fill="#000000"/><rect x="237" y="96" width="6" height="10" fill="#000000"/><rect x="225" y="96" width="6" height="10" fill="#000000"/><rect x="213" y="96" width="6" height="10" fill="#000000"/><rect x="207" y="96" width="6" height="10" fill="#000000"/><rect x="207" y="86" width="6" height="10" fill="#000000"/><rect x="207" y="76" width="6" height="10" fill="#000000"/><rect x="87" y="106" width="6" height="10" fill="#000000"/><rect x="93" y="106" width="6" height="10" fill="#000000"/><rect x="105" y="106" width="6" height="10" fill="#000000"/><rect x="111" y="106" width="6" height="10" fill="#000000"/><rect x="117" y="106" width="6" height="10" fill="#000000"/><rect x="123" y="106" width="6" height="10" fill="#000000"/><rect x="129" y="106" width="6" height="10" fill="#000000"/><rect x="141" y="106" width="6" height="10" fill="#000000"/><rect x="141" y="116" width="6" height="10" fill="#000000"/><rect x="141" y="126" width="6" height="10" fill="#000000"/><rect x="117" y="136" width="6" height="10" fill="#000000"/><rect x="105" y="136" width="6" height="10" fill="#000000"/><rect x="99" y="136" width="6" height="10" fill="#000000"/><rect x="93" y="136" width="6" height="10" fill="#000000"/><rect x="87" y="126" width="6" height="10" fill="#000000"/><rect x="153" y="106" width="6" height="10" fill="#ff3f2f"/><rect x="159" y="106" width="6" height="10" fill="#ff3f2f"/><rect x="165" y="106" width="6" height="10" fill="#ff3f2f"/><rect x="171" y="106" width="6" height="10" fill="#ff3f2f"/><rect x="177" y="106" width="6" height="10" fill="#ff3f2f"/><rect x="183" y="106" width="6" height="10" fill="#ff3f2f"/><rect x="195" y="106" width="6" height="10" fill="#ff3f2f"/><rect x="201" y="106" width="6" height="10" fill="#ff3f2f"/><rect x="201" y="116" width="6" height="10" fill="#ff3f2f"/><rect x="201" y="126" width="6" height="10" fill="#ff3f2f"/><rect x="171" y="136" width="6" height="10" fill="#ff3f2f"/><rect x="153" y="136" width="6" height="10" fill="#ff3f2f"/><rect x="147" y="116" width="6" height="10" fill="#ff3f2f"/><rect x="207" y="106" width="6" height="10" fill="#000000"/><rect x="213" y="106" width="6" height="10" fill="#000000"/><rect x="261" y="116" width="6" height="10" fill="#000000"/><rect x="261" y="136" width="6" height="10" fill="#000000"/><rect x="249" y="136" width="6" height="10" fill="#000000"/><rect x="237" y="136" width="6" height="10" fill="#000000"/><rect x="207" y="136" width="6" height="10" fill="#000000"/><rect x="207" y="116" width="6" height="10" fill="#000000"/></g><g clip-path="url(#grid-clip-8ed0861e43294df7-4x3)" data-channel="ellipse" data-ellipse-anchor-x="147" data-ellipse-anchor-y="106" data-ellipse-rx="66.342" data-ellipse-ry="31.729" data-ellipse-rotation-deg="108"><ellipse cx="147" cy="106" rx="66.342" ry="31.729" transform="rotate(108 147 106)" fill="#ffffff" stroke="#ffffff" fill-opacity="0.35" stroke-opacity="0.45" stroke-width="2"/></g><g><g data-channel="cell" data-cell-index="0" data-cell-row="0" data-cell-col="0"><rect x="33" y="36" width="48" height="20" fill="#beadde"/><text x="57" y="46" fill="#000000" font-size="12" text-anchor="middle" dominant-baseline="central">deadbe</text></g><g data-channel="cell" data-cell-index="1" data-cell-row="0" data-cell-col="1" data-cell-quartile="4"><rect x="93" y="36" width="48" height="20" fill="#fecaef"/><text x="117" y="46" fill="#000000" font-size="12" text-anchor="middle" dominant-baseline="central">efcafe</text><polygon points="93,56 93,46 103,56" fill="#000000"/></g><g data-channel="cell" data-cell-index="2" data-cell-row="0" data-cell-col="2" data-cell-quartile="3"><rect x="153" y="36" width="48" height="20" fill="#12beba"/><text x="177" y="46" fill="#000000" font-size="12" text-anchor="middle" dominant-baseline="central">babe12</text><polygon points="201,56 201,46 191,56" fill="#000000"/></g><g data-channel="cell" data-cell-index="3" data-cell-row="0" data-cell-col="3"><rect x="213" y="36" width="48" height="20" fill="#785634"/><text x="237" y="46" fill="#ffffff" font-size="12" text-anchor="middle" dominant-baseline="central">345678</text></g><g data-channel="cell" data-cell-index="4" data-cell-row="1" data-cell-col="0"><rect x="33" y="76" width="48" height="20" fill="#cdab90"/><text x="57" y="86" fill="#000000" font-size="12" text-anchor="middle" dominant-baseline="central">90abcd</text></g><g data-channel="cell" data-cell-index="5" data-cell-row="1" data-cell-col="1"><rect x="93" y="76" width="48" height="20" fill="#ed0fef"/><text x="117" y="86" fill="#000000" font-size="12" text-anchor="middle" dominant-baseline="central">ef0fed</text></g><g data-channel="cell" data-cell-index="6" data-cell-row="1" data-cell-col="2"><rect x="153" y="76" width="48" height="20" fill="#87a9cb"/><text x="177" y="86" fill="#000000" font-size="12" text-anchor="middle" dominant-baseline="central">cba987</text></g><g data-channel="cell" data-cell-index="7" data-cell-row="1" data-cell-col="3"><rect x="213" y="76" width="48" height="20" fill="#214365"/><text x="237" y="86" fill="#ffffff" font-size="12" text-anchor="middle" dominant-baseline="central">654321</text></g><g data-channel="cell" data-cell-index="8" data-cell-row="2" data-cell-col="0" data-cell-blank="true" data-cell-blank-map="true"><rect x="33" y="116" width="48" height="20" rx="10" ry="10" fill="#000000" stroke="#000000" stroke-width="1"/><circle cx="51" cy="119.333" r="3.5" fill="#ffffff" data-blank-map-min="0,1"/><path d="M 70.8,126 H 79.2 M 75,121.8 V 130.2" fill="none" stroke="#ffffff" stroke-width="1.925" stroke-linecap="butt" data-blank-map-max="1,3"/></g><g data-channel="cell" data-cell-index="9" data-cell-row="2" data-cell-col="1"><rect x="93" y="116" width="48" height="20" fill="#452301"/><text x="117" y="126" fill="#ffffff" font-size="12" text-anchor="middle" dominant-baseline="central">012345</text></g><g data-channel="cell" data-cell-index="10" data-cell-row="2" data-cell-col="2" data-cell-quartile="1"><rect x="153" y="116" width="48" height="20" fill="#ab8967"/><text x="177" y="126" fill="#000000" font-size="12" text-anchor="middle" dominant-baseline="central">6789ab</text><polygon points="153,116 163,116 153,126" fill="#000000"/></g><g data-channel="cell" data-cell-index="11" data-cell-row="2" data-cell-col="3" data-cell-quartile="2"><rect x="213" y="116" width="48" height="20" fill="#efefcd"/><text x="237" y="126" fill="#000000" font-size="12" text-anchor="middle" dominant-baseline="central">cdef</text><polygon points="261,116 251,116 261,126" fill="#000000"/></g></g></g><g data-channel="color-bar" data-bar-slots="12" data-bar-marker-left="10" data-bar-marker-right="3"><g data-color-bar-rank="0" data-color-bar-band="R"><rect x="1" y="1" width="20" height="48.611" fill="#ff3f2f"/><text x="11" y="46.971" fill="#000000" font-size="12" text-anchor="middle" data-color-bar-letter="true">r</text></g><g data-color-bar-rank="1" data-color-bar-band="K"><rect x="1" y="49.611" width="20" height="21.09" fill="#000000"/><text x="11" y="68.061" fill="#ffffff" font-size="12" text-anchor="middle" data-color-bar-letter="true">k</text></g><g data-color-bar-rank="2" data-color-bar-band="W"><rect x="1" y="70.701" width="20" height="48.611" fill="#ffffff"/><text x="11" y="116.672" fill="#000000" font-size="12" text-anchor="middle" data-color-bar-letter="true">w</text></g><g data-color-bar-rank="3" data-color-bar-band="G"><rect x="1" y="119.312" width="20" height="31.688" fill="#e7be00"/><text x="11" y="148.36" fill="#000000" font-size="12" text-anchor="middle" data-color-bar-letter="true">g</text></g><circle cx="5.6" cy="132.25" r="3.4" fill="#ffffff" stroke="#000000" stroke-width="0.75" data-bar-marker="left"/><circle cx="16.4" cy="44.75" r="3.4" fill="#ffffff" stroke="#000000" stroke-width="0.75" data-bar-marker="right"/></g><g data-channel="label-top"><text x="27" y="16" fill="#666666" font-size="12" dominant-baseline="central">hex(64):</text></g><line x1="0" y1="0.5" x2="273" y2="0.5" stroke="#808080" stroke-width="1" shape-rendering="crispEdges"/><line x1="272.5" y1="0" x2="272.5" y2="152" stroke="#808080" stroke-width="1" shape-rendering="crispEdges"/><line x1="0" y1="151.5" x2="273" y2="151.5" stroke="#808080" stroke-width="1" shape-rendering="crispEdges"/><line x1="0.5" y1="0" x2="0.5" y2="152" stroke="#808080" stroke-width="1" shape-rendering="crispEdges"/><line x1="21.5" y1="0" x2="21.5" y2="152" stroke="#808080" stroke-width="1" shape-rendering="crispEdges"/></svg>