<svg width="141.0" height="94.0" xmlns="http://www.w3.org/2000/svg"><defs><clipPath id="bounding-clip"><rect x="0" y="0" width="141.0" height="94.0"/></clipPath><linearGradient id="g0" gradientUnits="userSpaceOnUse" x1="28.0" y1="13.0" x2="28.0" y2="5.0"><stop offset="0%" stop-color="#beadde"/><stop offset="100%" stop-color="#ff3f2f"/></linearGradient><linearGradient id="g1" gradientUnits="userSpaceOnUse" x1="52.0" y1="13.0" x2="52.0" y2="5.0"><stop offset="0%" stop-color="#beadde"/><stop offset="100%" stop-color="#ffffff"/></linearGradient><linearGradient id="g2" gradientUnits="userSpaceOnUse" x1="64.0" y1="21.0" x2="72.0" y2="21.0"><stop offset="0%" stop-color="#beadde"/><stop offset="100%" stop-color="#2f3fbf"/></linearGradient><linearGradient id="g3" gradientUnits="userSpaceOnUse" x1="52.0" y1="29.0" x2="52.0" y2="37.0"><stop offset="0%" stop-color="#beadde"/><stop offset="100%" stop-color="#ffffff"/></linearGradient><linearGradient id="g4" gradientUnits="userSpaceOnUse" x1="28.0" y1="29.0" x2="28.0" y2="37.0"><stop offset="0%" stop-color="#beadde"/><stop offset="100%" stop-color="#ffffff"/></linearGradient><linearGradient id="g5" gradientUnits="userSpaceOnUse" x1="16.0" y1="21.0" x2="8.0" y2="21.0"><stop offset="0%" stop-color="#beadde"/><stop offset="100%" stop-color="#000000"/></linearGradient><linearGradient id="g6" gradientUnits="userSpaceOnUse" x1="92.0" y1="13.0" x2="92.0" y2="5.0"><stop offset="0%" stop-color="#fecaef"/><stop offset="100%" stop-color="#ffffff"/></linearGradient><linearGradient id="g7" gradientUnits="userSpaceOnUse" x1="116.0" y1="13.0" x2="116.0" y2="5.0"><stop offset="0%" stop-color="#fecaef"/><stop offset="100%" stop-color="#000000"/></linearGradient><linearGradient id="g8" gradientUnits="userSpaceOnUse" x1="128.0" y1="21.0" x2="136.0" y2="21.0"><stop offset="0%" stop-color="#fecaef"/><stop offset="100%" stop-color="#ff3f2f"/></linearGradient><linearGradient id="g9" gradientUnits="userSpaceOnUse" x1="116.0" y1="29.0" x2="116.0" y2="37.0"><stop offset="0%" stop-color="#fecaef"/><stop offset="100%" stop-color="#2f3fbf"/></linearGradient><linearGradient id="g10" gradientUnits="userSpaceOnUse" x1="92.0" y1="29.0" x2="92.0" y2="37.0"><stop offset="0%" stop-color="#fecaef"/><stop offset="100%" stop-color="#000000"/></linearGradient><linearGradient id="g11" gradientUnits="userSpaceOnUse" x1="80.0" y1="21.0" x2="72.0" y2="21.0"><stop offset="0%" stop-color="#fecaef"/><stop offset="100%" stop-color="#ff3f2f"/></linearGradient><linearGradient id="g12" gradientUnits="userSpaceOnUse" x1="92.0" y1="45.0" x2="92.0" y2="37.0"><stop offset="0%" stop-color="#bebeba"/><stop offset="100%" stop-color="#000000"/></linearGradient><linearGradient id="g13" gradientUnits="userSpaceOnUse" x1="116.0" y1="45.0" x2="116.0" y2="37.0"><stop offset="0%" stop-color="#bebeba"/><stop offset="100%" stop-color="#2f3fbf"/></linearGradient><linearGradient id="g14" gradientUnits="userSpaceOnUse" x1="128.0" y1="53.0" x2="136.0" y2="53.0"><stop offset="0%" stop-color="#bebeba"/><stop offset="100%" stop-color="#ffffff"/></linearGradient><linearGradient id="g15" gradientUnits="userSpaceOnUse" x1="116.0" y1="61.0" x2="116.0" y2="69.0"><stop offset="0%" stop-color="#bebeba"/><stop offset="100%" stop-color="#ffffff"/></linearGradient><linearGradient id="g16" gradientUnits="userSpaceOnUse" x1="92.0" y1="61.0" x2="92.0" y2="69.0"><stop offset="0%" stop-color="#bebeba"/><stop offset="100%" stop-color="#ff3f2f"/></linearGradient><linearGradient id="g17" gradientUnits="userSpaceOnUse" x1="80.0" y1="53.0" x2="72.0" y2="53.0"><stop offset="0%" stop-color="#bebeba"/><stop offset="100%" stop-color="#2f3fbf"/></linearGradient></defs><rect x="0" y="0" width="141.0" height="94.0" fill="#ffffff"/><rect x="8.0" y="5.0" width="128.0" height="64.0" fill="#ffd966"/><g><title>inf</title><rect x="24.0" y="5.0" width="8.0" height="8.0" fill="url(#g0)"/></g><g><title>inf</title><rect x="48.0" y="5.0" width="8.0" height="8.0" fill="url(#g1)"/></g><g><title>inf</title><rect x="64.0" y="17.0" width="8.0" height="8.0" fill="url(#g2)"/></g><g><title>axe</title><rect x="44.0" y="35.0" width="20.0" height="2.0" fill="url(#g3)"/><rect x="40.0" y="29.0" width="4.0" height="8.0" fill="url(#g3)"/></g><g><title>axe</title><rect x="20.0" y="35.0" width="20.0" height="2.0" fill="url(#g4)"/><rect x="16.0" y="29.0" width="4.0" height="8.0" fill="url(#g4)"/></g><g><title>inf</title><rect x="8.0" y="17.0" width="8.0" height="8.0" fill="url(#g5)"/></g><g><title>axe</title><rect x="80.0" y="5.0" width="20.0" height="2.0" fill="url(#g6)"/><rect x="100.0" y="5.0" width="4.0" height="8.0" fill="url(#g6)"/></g><g><title>inf</title><rect x="112.0" y="5.0" width="8.0" height="8.0" fill="url(#g7)"/></g><g><title>axe</title><rect x="128.0" y="13.0" width="2.0" height="12.0" fill="url(#g8)"/><rect x="128.0" y="25.0" width="8.0" height="4.0" fill="url(#g8)"/></g><g><title>brick</title><rect x="104.0" y="29.0" width="24.0" height="8.0" fill="url(#g9)"/></g><g><title>wave</title><polygon points="80.0,29.0 88.0,29.0 80.0,37.0" fill="url(#g10)"/><polygon points="96.0,37.0 104.0,29.0 104.0,37.0" fill="url(#g10)"/></g><g><title>brick</title><rect x="72.0" y="13.0" width="8.0" height="16.0" fill="url(#g11)"/></g><g><title>brick</title><rect x="80.0" y="37.0" width="24.0" height="8.0" fill="url(#g12)"/></g><g><title>inf</title><rect x="112.0" y="37.0" width="8.0" height="8.0" fill="url(#g13)"/></g><g><title>axe</title><rect x="128.0" y="45.0" width="2.0" height="12.0" fill="url(#g14)"/><rect x="128.0" y="57.0" width="8.0" height="4.0" fill="url(#g14)"/></g><g><title>axe</title><rect x="108.0" y="67.0" width="20.0" height="2.0" fill="url(#g15)"/><rect x="104.0" y="61.0" width="4.0" height="8.0" fill="url(#g15)"/></g><g><title>axe</title><rect x="84.0" y="67.0" width="20.0" height="2.0" fill="url(#g16)"/><rect x="80.0" y="61.0" width="4.0" height="8.0" fill="url(#g16)"/></g><g><title>inf</title><rect x="72.0" y="49.0" width="8.0" height="8.0" fill="url(#g17)"/></g><ellipse cx="8.0" cy="69.0" rx="84.73045497340375" ry="156.50213448028694" transform="rotate(86.11764705882354 8.0 69.0)" fill="#000000" fill-opacity="0.17058823529411765" clip-path="url(#bounding-clip)"/><rect x="16.0" y="13.0" width="48.0" height="16.0" fill="#beadde"/><text x="40.0" y="21.0" fill="#ffffff" style="font-family: monospace; font-size: 16.0px;" text-anchor="middle" dominant-baseline="central">DEADBE</text><rect x="80.0" y="13.0" width="48.0" height="16.0" fill="#fecaef"/><text x="104.0" y="21.0" fill="#000000" style="font-family: monospace; font-size: 16.0px;" text-anchor="middle" dominant-baseline="central">EFCAFE</text><rect x="80.0" y="45.0" width="48.0" height="16.0" fill="#bebeba"/><text x="104.0" y="53.0" fill="#000000" style="font-family: monospace; font-size: 16.0px;" text-anchor="middle" dominant-baseline="central">BABE</text><circle cx="74.0" cy="7.0" r="2.0" fill="#ffffff"/><circle cx="134.0" cy="39.0" r="2.0" fill="#ff3f2f"/><circle cx="70.0" cy="35.0" r="2.0" fill="#2f3fbf"/><rect x="0" y="0" width="4.0" height="59.02325581395349" fill="#ffffff"/><rect x="0" y="59.02325581395349" width="4.0" height="11.65891472868217" fill="#ff3f2f"/><rect x="0" y="70.68217054263566" width="4.0" height="11.65891472868217" fill="#2f3fbf"/><rect x="0" y="82.34108527131784" width="4.0" height="11.658914728682163" fill="#000000"/><text x="136.0" y="81.0" fill="#000000" style="font-family: monospace; font-size: 16.0px;" text-anchor="end" dominant-baseline="central">A07 I07 B03 W01</text><line x1="4.0" y1="0" x2="140.0" y2="0" stroke="#000000" stroke-width="1"/><line x1="140.0" y1="0" x2="140.0" y2="93.0" stroke="#000000" stroke-width="1"/><line x1="4.0" y1="93.0" x2="140.0" y2="93.0" stroke="#000000" stroke-width="1"/></svg>