<svg width="269.0" height="222.0" xmlns="http://www.w3.org/2000/svg"><defs><clipPath id="bounding-clip"><rect x="0" y="0" width="269.0" height="222.0"/></clipPath><linearGradient id="g0" gradientUnits="userSpaceOnUse" x1="28.0" y1="13.0" x2="28.0" y2="5.0"><stop offset="0%" stop-color="#d2719b"/><stop offset="100%" stop-color="#000000"/></linearGradient><linearGradient id="g1" gradientUnits="userSpaceOnUse" x1="52.0" y1="13.0" x2="52.0" y2="5.0"><stop offset="0%" stop-color="#d2719b"/><stop offset="100%" stop-color="#ffffff"/></linearGradient><linearGradient id="g2" gradientUnits="userSpaceOnUse" x1="64.0" y1="21.0" x2="72.0" y2="21.0"><stop offset="0%" stop-color="#d2719b"/><stop offset="100%" stop-color="#000000"/></linearGradient><linearGradient id="g3" gradientUnits="userSpaceOnUse" x1="52.0" y1="29.0" x2="52.0" y2="37.0"><stop offset="0%" stop-color="#d2719b"/><stop offset="100%" stop-color="#ffffff"/></linearGradient><linearGradient id="g4" gradientUnits="userSpaceOnUse" x1="28.0" y1="29.0" x2="28.0" y2="37.0"><stop offset="0%" stop-color="#d2719b"/><stop offset="100%" stop-color="#ffffff"/></linearGradient><linearGradient id="g5" gradientUnits="userSpaceOnUse" x1="16.0" y1="21.0" x2="8.0" y2="21.0"><stop offset="0%" stop-color="#d2719b"/><stop offset="100%" stop-color="#2f3fbf"/></linearGradient><linearGradient id="g6" gradientUnits="userSpaceOnUse" x1="92.0" y1="13.0" x2="92.0" y2="5.0"><stop offset="0%" stop-color="#62bd24"/><stop offset="100%" stop-color="#ffd966"/></linearGradient><linearGradient id="g7" gradientUnits="userSpaceOnUse" x1="116.0" y1="13.0" x2="116.0" y2="5.0"><stop offset="0%" stop-color="#62bd24"/><stop offset="100%" stop-color="#ffd966"/></linearGradient><linearGradient id="g8" gradientUnits="userSpaceOnUse" x1="128.0" y1="21.0" x2="136.0" y2="21.0"><stop offset="0%" stop-color="#62bd24"/><stop offset="100%" stop-color="#2f3fbf"/></linearGradient><linearGradient id="g9" gradientUnits="userSpaceOnUse" x1="116.0" y1="29.0" x2="116.0" y2="37.0"><stop offset="0%" stop-color="#62bd24"/><stop offset="100%" stop-color="#2f3fbf"/></linearGradient><linearGradient id="g10" gradientUnits="userSpaceOnUse" x1="92.0" y1="29.0" x2="92.0" y2="37.0"><stop offset="0%" stop-color="#62bd24"/><stop offset="100%" stop-color="#000000"/></linearGradient><linearGradient id="g11" gradientUnits="userSpaceOnUse" x1="80.0" y1="21.0" x2="72.0" y2="21.0"><stop offset="0%" stop-color="#62bd24"/><stop offset="100%" stop-color="#ffd966"/></linearGradient><linearGradient id="g12" gradientUnits="userSpaceOnUse" x1="156.0" y1="13.0" x2="156.0" y2="5.0"><stop offset="0%" stop-color="#5d78f3"/><stop offset="100%" stop-color="#000000"/></linearGradient><linearGradient id="g13" gradientUnits="userSpaceOnUse" x1="180.0" y1="13.0" x2="180.0" y2="5.0"><stop offset="0%" stop-color="#5d78f3"/><stop offset="100%" stop-color="#2f3fbf"/></linearGradient><linearGradient id="g14" gradientUnits="userSpaceOnUse" x1="192.0" y1="21.0" x2="200.0" y2="21.0"><stop offset="0%" stop-color="#5d78f3"/><stop offset="100%" stop-color="#2f3fbf"/></linearGradient><linearGradient id="g15" gradientUnits="userSpaceOnUse" x1="180.0" y1="29.0" x2="180.0" y2="37.0"><stop offset="0%" stop-color="#5d78f3"/><stop offset="100%" stop-color="#ffd966"/></linearGradient><linearGradient id="g16" gradientUnits="userSpaceOnUse" x1="156.0" y1="29.0" x2="156.0" y2="37.0"><stop offset="0%" stop-color="#5d78f3"/><stop offset="100%" stop-color="#2f3fbf"/></linearGradient><linearGradient id="g17" gradientUnits="userSpaceOnUse" x1="144.0" y1="21.0" x2="136.0" y2="21.0"><stop offset="0%" stop-color="#5d78f3"/><stop offset="100%" stop-color="#ffffff"/></linearGradient><linearGradient id="g18" gradientUnits="userSpaceOnUse" x1="28.0" y1="45.0" x2="28.0" y2="37.0"><stop offset="0%" stop-color="#6ad496"/><stop offset="100%" stop-color="#ffffff"/></linearGradient><linearGradient id="g19" gradientUnits="userSpaceOnUse" x1="52.0" y1="45.0" x2="52.0" y2="37.0"><stop offset="0%" stop-color="#6ad496"/><stop offset="100%" stop-color="#ffd966"/></linearGradient><linearGradient id="g20" gradientUnits="userSpaceOnUse" x1="64.0" y1="53.0" x2="72.0" y2="53.0"><stop offset="0%" stop-color="#6ad496"/><stop offset="100%" stop-color="#000000"/></linearGradient><linearGradient id="g21" gradientUnits="userSpaceOnUse" x1="52.0" y1="61.0" x2="52.0" y2="69.0"><stop offset="0%" stop-color="#6ad496"/><stop offset="100%" stop-color="#ffffff"/></linearGradient><linearGradient id="g22" gradientUnits="userSpaceOnUse" x1="28.0" y1="61.0" x2="28.0" y2="69.0"><stop offset="0%" stop-color="#6ad496"/><stop offset="100%" stop-color="#ffd966"/></linearGradient><linearGradient id="g23" gradientUnits="userSpaceOnUse" x1="16.0" y1="53.0" x2="8.0" y2="53.0"><stop offset="0%" stop-color="#6ad496"/><stop offset="100%" stop-color="#000000"/></linearGradient><linearGradient id="g24" gradientUnits="userSpaceOnUse" x1="92.0" y1="45.0" x2="92.0" y2="37.0"><stop offset="0%" stop-color="#3dead3"/><stop offset="100%" stop-color="#ffffff"/></linearGradient><linearGradient id="g25" gradientUnits="userSpaceOnUse" x1="116.0" y1="45.0" x2="116.0" y2="37.0"><stop offset="0%" stop-color="#3dead3"/><stop offset="100%" stop-color="#2f3fbf"/></linearGradient><linearGradient id="g26" gradientUnits="userSpaceOnUse" x1="128.0" y1="53.0" x2="136.0" y2="53.0"><stop offset="0%" stop-color="#3dead3"/><stop offset="100%" stop-color="#2f3fbf"/></linearGradient><linearGradient id="g27" gradientUnits="userSpaceOnUse" x1="116.0" y1="61.0" x2="116.0" y2="69.0"><stop offset="0%" stop-color="#3dead3"/><stop offset="100%" stop-color="#000000"/></linearGradient><linearGradient id="g28" gradientUnits="userSpaceOnUse" x1="92.0" y1="61.0" x2="92.0" y2="69.0"><stop offset="0%" stop-color="#3dead3"/><stop offset="100%" stop-color="#ffd966"/></linearGradient><linearGradient id="g29" gradientUnits="userSpaceOnUse" x1="80.0" y1="53.0" x2="72.0" y2="53.0"><stop offset="0%" stop-color="#3dead3"/><stop offset="100%" stop-color="#ffffff"/></linearGradient><linearGradient id="g30" gradientUnits="userSpaceOnUse" x1="156.0" y1="45.0" x2="156.0" y2="37.0"><stop offset="0%" stop-color="#9b3173"/><stop offset="100%" stop-color="#2f3fbf"/></linearGradient><linearGradient id="g31" gradientUnits="userSpaceOnUse" x1="180.0" y1="45.0" x2="180.0" y2="37.0"><stop offset="0%" stop-color="#9b3173"/><stop offset="100%" stop-color="#ffffff"/></linearGradient><linearGradient id="g32" gradientUnits="userSpaceOnUse" x1="192.0" y1="53.0" x2="200.0" y2="53.0"><stop offset="0%" stop-color="#9b3173"/><stop offset="100%" stop-color="#2f3fbf"/></linearGradient><linearGradient id="g33" gradientUnits="userSpaceOnUse" x1="180.0" y1="61.0" x2="180.0" y2="69.0"><stop offset="0%" stop-color="#9b3173"/><stop offset="100%" stop-color="#ffd966"/></linearGradient><linearGradient id="g34" gradientUnits="userSpaceOnUse" x1="156.0" y1="61.0" x2="156.0" y2="69.0"><stop offset="0%" stop-color="#9b3173"/><stop offset="100%" stop-color="#2f3fbf"/></linearGradient><linearGradient id="g35" gradientUnits="userSpaceOnUse" x1="144.0" y1="53.0" x2="136.0" y2="53.0"><stop offset="0%" stop-color="#9b3173"/><stop offset="100%" stop-color="#000000"/></linearGradient><linearGradient id="g36" gradientUnits="userSpaceOnUse" x1="220.0" y1="45.0" x2="220.0" y2="37.0"><stop offset="0%" stop-color="#89c2fb"/><stop offset="100%" stop-color="#ffffff"/></linearGradient><linearGradient id="g37" gradientUnits="userSpaceOnUse" x1="244.0" y1="45.0" x2="244.0" y2="37.0"><stop offset="0%" stop-color="#89c2fb"/><stop offset="100%" stop-color="#000000"/></linearGradient><linearGradient id="g38" gradientUnits="userSpaceOnUse" x1="256.0" y1="53.0" x2="264.0" y2="53.0"><stop offset="0%" stop-color="#89c2fb"/><stop offset="100%" stop-color="#000000"/></linearGradient><linearGradient id="g39" gradientUnits="userSpaceOnUse" x1="244.0" y1="61.0" x2="244.0" y2="69.0"><stop offset="0%" stop-color="#89c2fb"/><stop offset="100%" stop-color="#ffffff"/></linearGradient><linearGradient id="g40" gradientUnits="userSpaceOnUse" x1="220.0" y1="61.0" x2="220.0" y2="69.0"><stop offset="0%" stop-color="#89c2fb"/><stop offset="100%" stop-color="#ffffff"/></linearGradient><linearGradient id="g41" gradientUnits="userSpaceOnUse" x1="208.0" y1="53.0" x2="200.0" y2="53.0"><stop offset="0%" stop-color="#89c2fb"/><stop offset="100%" stop-color="#2f3fbf"/></linearGradient><linearGradient id="g42" gradientUnits="userSpaceOnUse" x1="28.0" y1="77.0" x2="28.0" y2="69.0"><stop offset="0%" stop-color="#daaa0c"/><stop offset="100%" stop-color="#000000"/></linearGradient><linearGradient id="g43" gradientUnits="userSpaceOnUse" x1="52.0" y1="77.0" x2="52.0" y2="69.0"><stop offset="0%" stop-color="#daaa0c"/><stop offset="100%" stop-color="#000000"/></linearGradient><linearGradient id="g44" gradientUnits="userSpaceOnUse" x1="64.0" y1="85.0" x2="72.0" y2="85.0"><stop offset="0%" stop-color="#daaa0c"/><stop offset="100%" stop-color="#000000"/></linearGradient><linearGradient id="g45" gradientUnits="userSpaceOnUse" x1="52.0" y1="93.0" x2="52.0" y2="101.0"><stop offset="0%" stop-color="#daaa0c"/><stop offset="100%" stop-color="#2f3fbf"/></linearGradient><linearGradient id="g46" gradientUnits="userSpaceOnUse" x1="28.0" y1="93.0" x2="28.0" y2="101.0"><stop offset="0%" stop-color="#daaa0c"/><stop offset="100%" stop-color="#ffd966"/></linearGradient><linearGradient id="g47" gradientUnits="userSpaceOnUse" x1="16.0" y1="85.0" x2="8.0" y2="85.0"><stop offset="0%" stop-color="#daaa0c"/><stop offset="100%" stop-color="#ffffff"/></linearGradient><linearGradient id="g48" gradientUnits="userSpaceOnUse" x1="156.0" y1="77.0" x2="156.0" y2="69.0"><stop offset="0%" stop-color="#f7dfe2"/><stop offset="100%" stop-color="#ffd966"/></linearGradient><linearGradient id="g49" gradientUnits="userSpaceOnUse" x1="180.0" y1="77.0" x2="180.0" y2="69.0"><stop offset="0%" stop-color="#f7dfe2"/><stop offset="100%" stop-color="#ffd966"/></linearGradient><linearGradient id="g50" gradientUnits="userSpaceOnUse" x1="192.0" y1="85.0" x2="200.0" y2="85.0"><stop offset="0%" stop-color="#f7dfe2"/><stop offset="100%" stop-color="#ffffff"/></linearGradient><linearGradient id="g51" gradientUnits="userSpaceOnUse" x1="180.0" y1="93.0" x2="180.0" y2="101.0"><stop offset="0%" stop-color="#f7dfe2"/><stop offset="100%" stop-color="#ffffff"/></linearGradient><linearGradient id="g52" gradientUnits="userSpaceOnUse" x1="156.0" y1="93.0" x2="156.0" y2="101.0"><stop offset="0%" stop-color="#f7dfe2"/><stop offset="100%" stop-color="#ffffff"/></linearGradient><linearGradient id="g53" gradientUnits="userSpaceOnUse" x1="144.0" y1="85.0" x2="136.0" y2="85.0"><stop offset="0%" stop-color="#f7dfe2"/><stop offset="100%" stop-color="#2f3fbf"/></linearGradient><linearGradient id="g54" gradientUnits="userSpaceOnUse" x1="220.0" y1="77.0" x2="220.0" y2="69.0"><stop offset="0%" stop-color="#671925"/><stop offset="100%" stop-color="#ffffff"/></linearGradient><linearGradient id="g55" gradientUnits="userSpaceOnUse" x1="244.0" y1="77.0" x2="244.0" y2="69.0"><stop offset="0%" stop-color="#671925"/><stop offset="100%" stop-color="#ffffff"/></linearGradient><linearGradient id="g56" gradientUnits="userSpaceOnUse" x1="256.0" y1="85.0" x2="264.0" y2="85.0"><stop offset="0%" stop-color="#671925"/><stop offset="100%" stop-color="#ffd966"/></linearGradient><linearGradient id="g57" gradientUnits="userSpaceOnUse" x1="244.0" y1="93.0" x2="244.0" y2="101.0"><stop offset="0%" stop-color="#671925"/><stop offset="100%" stop-color="#000000"/></linearGradient><linearGradient id="g58" gradientUnits="userSpaceOnUse" x1="220.0" y1="93.0" x2="220.0" y2="101.0"><stop offset="0%" stop-color="#671925"/><stop offset="100%" stop-color="#000000"/></linearGradient><linearGradient id="g59" gradientUnits="userSpaceOnUse" x1="208.0" y1="85.0" x2="200.0" y2="85.0"><stop offset="0%" stop-color="#671925"/><stop offset="100%" stop-color="#ffd966"/></linearGradient><linearGradient id="g60" gradientUnits="userSpaceOnUse" x1="28.0" y1="109.0" x2="28.0" y2="101.0"><stop offset="0%" stop-color="#23a73c"/><stop offset="100%" stop-color="#ffd966"/></linearGradient><linearGradient id="g61" gradientUnits="userSpaceOnUse" x1="52.0" y1="109.0" x2="52.0" y2="101.0"><stop offset="0%" stop-color="#23a73c"/><stop offset="100%" stop-color="#2f3fbf"/></linearGradient><linearGradient id="g62" gradientUnits="userSpaceOnUse" x1="64.0" y1="117.0" x2="72.0" y2="117.0"><stop offset="0%" stop-color="#23a73c"/><stop offset="100%" stop-color="#ffd966"/></linearGradient><linearGradient id="g63" gradientUnits="userSpaceOnUse" x1="52.0" y1="125.0" x2="52.0" y2="133.0"><stop offset="0%" stop-color="#23a73c"/><stop offset="100%" stop-color="#2f3fbf"/></linearGradient><linearGradient id="g64" gradientUnits="userSpaceOnUse" x1="28.0" y1="125.0" x2="28.0" y2="133.0"><stop offset="0%" stop-color="#23a73c"/><stop offset="100%" stop-color="#ffd966"/></linearGradient><linearGradient id="g65" gradientUnits="userSpaceOnUse" x1="16.0" y1="117.0" x2="8.0" y2="117.0"><stop offset="0%" stop-color="#23a73c"/><stop offset="100%" stop-color="#2f3fbf"/></linearGradient><linearGradient id="g66" gradientUnits="userSpaceOnUse" x1="92.0" y1="109.0" x2="92.0" y2="101.0"><stop offset="0%" stop-color="#d9c323"/><stop offset="100%" stop-color="#2f3fbf"/></linearGradient><linearGradient id="g67" gradientUnits="userSpaceOnUse" x1="116.0" y1="109.0" x2="116.0" y2="101.0"><stop offset="0%" stop-color="#d9c323"/><stop offset="100%" stop-color="#000000"/></linearGradient><linearGradient id="g68" gradientUnits="userSpaceOnUse" x1="128.0" y1="117.0" x2="136.0" y2="117.0"><stop offset="0%" stop-color="#d9c323"/><stop offset="100%" stop-color="#ffffff"/></linearGradient><linearGradient id="g69" gradientUnits="userSpaceOnUse" x1="116.0" y1="125.0" x2="116.0" y2="133.0"><stop offset="0%" stop-color="#d9c323"/><stop offset="100%" stop-color="#2f3fbf"/></linearGradient><linearGradient id="g70" gradientUnits="userSpaceOnUse" x1="92.0" y1="125.0" x2="92.0" y2="133.0"><stop offset="0%" stop-color="#d9c323"/><stop offset="100%" stop-color="#000000"/></linearGradient><linearGradient id="g71" gradientUnits="userSpaceOnUse" x1="80.0" y1="117.0" x2="72.0" y2="117.0"><stop offset="0%" stop-color="#d9c323"/><stop offset="100%" stop-color="#ffffff"/></linearGradient><linearGradient id="g72" gradientUnits="userSpaceOnUse" x1="156.0" y1="109.0" x2="156.0" y2="101.0"><stop offset="0%" stop-color="#c1a59b"/><stop offset="100%" stop-color="#2f3fbf"/></linearGradient><linearGradient id="g73" gradientUnits="userSpaceOnUse" x1="180.0" y1="109.0" x2="180.0" y2="101.0"><stop offset="0%" stop-color="#c1a59b"/><stop offset="100%" stop-color="#ffd966"/></linearGradient><linearGradient id="g74" gradientUnits="userSpaceOnUse" x1="192.0" y1="117.0" x2="200.0" y2="117.0"><stop offset="0%" stop-color="#c1a59b"/><stop offset="100%" stop-color="#ffffff"/></linearGradient><linearGradient id="g75" gradientUnits="userSpaceOnUse" x1="180.0" y1="125.0" x2="180.0" y2="133.0"><stop offset="0%" stop-color="#c1a59b"/><stop offset="100%" stop-color="#ffffff"/></linearGradient><linearGradient id="g76" gradientUnits="userSpaceOnUse" x1="156.0" y1="125.0" x2="156.0" y2="133.0"><stop offset="0%" stop-color="#c1a59b"/><stop offset="100%" stop-color="#ffffff"/></linearGradient><linearGradient id="g77" gradientUnits="userSpaceOnUse" x1="144.0" y1="117.0" x2="136.0" y2="117.0"><stop offset="0%" stop-color="#c1a59b"/><stop offset="100%" stop-color="#ffd966"/></linearGradient><linearGradient id="g78" gradientUnits="userSpaceOnUse" x1="220.0" y1="109.0" x2="220.0" y2="101.0"><stop offset="0%" stop-color="#7a7c1d"/><stop offset="100%" stop-color="#ffd966"/></linearGradient><linearGradient id="g79" gradientUnits="userSpaceOnUse" x1="244.0" y1="109.0" x2="244.0" y2="101.0"><stop offset="0%" stop-color="#7a7c1d"/><stop offset="100%" stop-color="#000000"/></linearGradient><linearGradient id="g80" gradientUnits="userSpaceOnUse" x1="256.0" y1="117.0" x2="264.0" y2="117.0"><stop offset="0%" stop-color="#7a7c1d"/><stop offset="100%" stop-color="#000000"/></linearGradient><linearGradient id="g81" gradientUnits="userSpaceOnUse" x1="244.0" y1="125.0" x2="244.0" y2="133.0"><stop offset="0%" stop-color="#7a7c1d"/><stop offset="100%" stop-color="#000000"/></linearGradient><linearGradient id="g82" gradientUnits="userSpaceOnUse" x1="220.0" y1="125.0" x2="220.0" y2="133.0"><stop offset="0%" stop-color="#7a7c1d"/><stop offset="100%" stop-color="#000000"/></linearGradient><linearGradient id="g83" gradientUnits="userSpaceOnUse" x1="208.0" y1="117.0" x2="200.0" y2="117.0"><stop offset="0%" stop-color="#7a7c1d"/><stop offset="100%" stop-color="#000000"/></linearGradient><linearGradient id="g84" gradientUnits="userSpaceOnUse" x1="28.0" y1="141.0" x2="28.0" y2="133.0"><stop offset="0%" stop-color="#146ecc"/><stop offset="100%" stop-color="#ffd966"/></linearGradient><linearGradient id="g85" gradientUnits="userSpaceOnUse" x1="52.0" y1="141.0" x2="52.0" y2="133.0"><stop offset="0%" stop-color="#146ecc"/><stop offset="100%" stop-color="#ffffff"/></linearGradient><linearGradient id="g86" gradientUnits="userSpaceOnUse" x1="64.0" y1="149.0" x2="72.0" y2="149.0"><stop offset="0%" stop-color="#146ecc"/><stop offset="100%" stop-color="#2f3fbf"/></linearGradient><linearGradient id="g87" gradientUnits="userSpaceOnUse" x1="52.0" y1="157.0" x2="52.0" y2="165.0"><stop offset="0%" stop-color="#146ecc"/><stop offset="100%" stop-color="#000000"/></linearGradient><linearGradient id="g88" gradientUnits="userSpaceOnUse" x1="28.0" y1="157.0" x2="28.0" y2="165.0"><stop offset="0%" stop-color="#146ecc"/><stop offset="100%" stop-color="#ffffff"/></linearGradient><linearGradient id="g89" gradientUnits="userSpaceOnUse" x1="16.0" y1="149.0" x2="8.0" y2="149.0"><stop offset="0%" stop-color="#146ecc"/><stop offset="100%" stop-color="#ffd966"/></linearGradient><linearGradient id="g90" gradientUnits="userSpaceOnUse" x1="92.0" y1="141.0" x2="92.0" y2="133.0"><stop offset="0%" stop-color="#dac5b8"/><stop offset="100%" stop-color="#ffd966"/></linearGradient><linearGradient id="g91" gradientUnits="userSpaceOnUse" x1="116.0" y1="141.0" x2="116.0" y2="133.0"><stop offset="0%" stop-color="#dac5b8"/><stop offset="100%" stop-color="#000000"/></linearGradient><linearGradient id="g92" gradientUnits="userSpaceOnUse" x1="128.0" y1="149.0" x2="136.0" y2="149.0"><stop offset="0%" stop-color="#dac5b8"/><stop offset="100%" stop-color="#000000"/></linearGradient><linearGradient id="g93" gradientUnits="userSpaceOnUse" x1="116.0" y1="157.0" x2="116.0" y2="165.0"><stop offset="0%" stop-color="#dac5b8"/><stop offset="100%" stop-color="#000000"/></linearGradient><linearGradient id="g94" gradientUnits="userSpaceOnUse" x1="92.0" y1="157.0" x2="92.0" y2="165.0"><stop offset="0%" stop-color="#dac5b8"/><stop offset="100%" stop-color="#2f3fbf"/></linearGradient><linearGradient id="g95" gradientUnits="userSpaceOnUse" x1="80.0" y1="149.0" x2="72.0" y2="149.0"><stop offset="0%" stop-color="#dac5b8"/><stop offset="100%" stop-color="#2f3fbf"/></linearGradient><linearGradient id="g96" gradientUnits="userSpaceOnUse" x1="156.0" y1="141.0" x2="156.0" y2="133.0"><stop offset="0%" stop-color="#63460c"/><stop offset="100%" stop-color="#ffffff"/></linearGradient><linearGradient id="g97" gradientUnits="userSpaceOnUse" x1="180.0" y1="141.0" x2="180.0" y2="133.0"><stop offset="0%" stop-color="#63460c"/><stop offset="100%" stop-color="#2f3fbf"/></linearGradient><linearGradient id="g98" gradientUnits="userSpaceOnUse" x1="192.0" y1="149.0" x2="200.0" y2="149.0"><stop offset="0%" stop-color="#63460c"/><stop offset="100%" stop-color="#ffd966"/></linearGradient><linearGradient id="g99" gradientUnits="userSpaceOnUse" x1="180.0" y1="157.0" x2="180.0" y2="165.0"><stop offset="0%" stop-color="#63460c"/><stop offset="100%" stop-color="#000000"/></linearGradient><linearGradient id="g100" gradientUnits="userSpaceOnUse" x1="156.0" y1="157.0" x2="156.0" y2="165.0"><stop offset="0%" stop-color="#63460c"/><stop offset="100%" stop-color="#2f3fbf"/></linearGradient><linearGradient id="g101" gradientUnits="userSpaceOnUse" x1="144.0" y1="149.0" x2="136.0" y2="149.0"><stop offset="0%" stop-color="#63460c"/><stop offset="100%" stop-color="#ffd966"/></linearGradient><linearGradient id="g102" gradientUnits="userSpaceOnUse" x1="220.0" y1="141.0" x2="220.0" y2="133.0"><stop offset="0%" stop-color="#2e5c47"/><stop offset="100%" stop-color="#ffd966"/></linearGradient><linearGradient id="g103" gradientUnits="userSpaceOnUse" x1="244.0" y1="141.0" x2="244.0" y2="133.0"><stop offset="0%" stop-color="#2e5c47"/><stop offset="100%" stop-color="#2f3fbf"/></linearGradient><linearGradient id="g104" gradientUnits="userSpaceOnUse" x1="256.0" y1="149.0" x2="264.0" y2="149.0"><stop offset="0%" stop-color="#2e5c47"/><stop offset="100%" stop-color="#000000"/></linearGradient><linearGradient id="g105" gradientUnits="userSpaceOnUse" x1="244.0" y1="157.0" x2="244.0" y2="165.0"><stop offset="0%" stop-color="#2e5c47"/><stop offset="100%" stop-color="#000000"/></linearGradient><linearGradient id="g106" gradientUnits="userSpaceOnUse" x1="220.0" y1="157.0" x2="220.0" y2="165.0"><stop offset="0%" stop-color="#2e5c47"/><stop offset="100%" stop-color="#ffffff"/></linearGradient><linearGradient id="g107" gradientUnits="userSpaceOnUse" x1="208.0" y1="149.0" x2="200.0" y2="149.0"><stop offset="0%" stop-color="#2e5c47"/><stop offset="100%" stop-color="#000000"/></linearGradient><linearGradient id="g108" gradientUnits="userSpaceOnUse" x1="28.0" y1="173.0" x2="28.0" y2="165.0"><stop offset="0%" stop-color="#de3a5c"/><stop offset="100%" stop-color="#000000"/></linearGradient><linearGradient id="g109" gradientUnits="userSpaceOnUse" x1="52.0" y1="173.0" x2="52.0" y2="165.0"><stop offset="0%" stop-color="#de3a5c"/><stop offset="100%" stop-color="#000000"/></linearGradient><linearGradient id="g110" gradientUnits="userSpaceOnUse" x1="64.0" y1="181.0" x2="72.0" y2="181.0"><stop offset="0%" stop-color="#de3a5c"/><stop offset="100%" stop-color="#ffffff"/></linearGradient><linearGradient id="g111" gradientUnits="userSpaceOnUse" x1="52.0" y1="189.0" x2="52.0" y2="197.0"><stop offset="0%" stop-color="#de3a5c"/><stop offset="100%" stop-color="#2f3fbf"/></linearGradient><linearGradient id="g112" gradientUnits="userSpaceOnUse" x1="28.0" y1="189.0" x2="28.0" y2="197.0"><stop offset="0%" stop-color="#de3a5c"/><stop offset="100%" stop-color="#000000"/></linearGradient><linearGradient id="g113" gradientUnits="userSpaceOnUse" x1="16.0" y1="181.0" x2="8.0" y2="181.0"><stop offset="0%" stop-color="#de3a5c"/><stop offset="100%" stop-color="#2f3fbf"/></linearGradient><linearGradient id="g114" gradientUnits="userSpaceOnUse" x1="92.0" y1="173.0" x2="92.0" y2="165.0"><stop offset="0%" stop-color="#736ff4"/><stop offset="100%" stop-color="#2f3fbf"/></linearGradient><linearGradient id="g115" gradientUnits="userSpaceOnUse" x1="116.0" y1="173.0" x2="116.0" y2="165.0"><stop offset="0%" stop-color="#736ff4"/><stop offset="100%" stop-color="#2f3fbf"/></linearGradient><linearGradient id="g116" gradientUnits="userSpaceOnUse" x1="128.0" y1="181.0" x2="136.0" y2="181.0"><stop offset="0%" stop-color="#736ff4"/><stop offset="100%" stop-color="#ffd966"/></linearGradient><linearGradient id="g117" gradientUnits="userSpaceOnUse" x1="116.0" y1="189.0" x2="116.0" y2="197.0"><stop offset="0%" stop-color="#736ff4"/><stop offset="100%" stop-color="#2f3fbf"/></linearGradient><linearGradient id="g118" gradientUnits="userSpaceOnUse" x1="92.0" y1="189.0" x2="92.0" y2="197.0"><stop offset="0%" stop-color="#736ff4"/><stop offset="100%" stop-color="#2f3fbf"/></linearGradient><linearGradient id="g119" gradientUnits="userSpaceOnUse" x1="80.0" y1="181.0" x2="72.0" y2="181.0"><stop offset="0%" stop-color="#736ff4"/><stop offset="100%" stop-color="#2f3fbf"/></linearGradient><linearGradient id="g120" gradientUnits="userSpaceOnUse" x1="156.0" y1="173.0" x2="156.0" y2="165.0"><stop offset="0%" stop-color="#c0debc"/><stop offset="100%" stop-color="#000000"/></linearGradient><linearGradient id="g121" gradientUnits="userSpaceOnUse" x1="180.0" y1="173.0" x2="180.0" y2="165.0"><stop offset="0%" stop-color="#c0debc"/><stop offset="100%" stop-color="#000000"/></linearGradient><linearGradient id="g122" gradientUnits="userSpaceOnUse" x1="192.0" y1="181.0" x2="200.0" y2="181.0"><stop offset="0%" stop-color="#c0debc"/><stop offset="100%" stop-color="#ffffff"/></linearGradient><linearGradient id="g123" gradientUnits="userSpaceOnUse" x1="180.0" y1="189.0" x2="180.0" y2="197.0"><stop offset="0%" stop-color="#c0debc"/><stop offset="100%" stop-color="#ffd966"/></linearGradient><linearGradient id="g124" gradientUnits="userSpaceOnUse" x1="156.0" y1="189.0" x2="156.0" y2="197.0"><stop offset="0%" stop-color="#c0debc"/><stop offset="100%" stop-color="#ffffff"/></linearGradient><linearGradient id="g125" gradientUnits="userSpaceOnUse" x1="144.0" y1="181.0" x2="136.0" y2="181.0"><stop offset="0%" stop-color="#c0debc"/><stop offset="100%" stop-color="#ffffff"/></linearGradient><linearGradient id="g126" gradientUnits="userSpaceOnUse" x1="220.0" y1="173.0" x2="220.0" y2="165.0"><stop offset="0%" stop-color="#434343"/><stop offset="100%" stop-color="#ffffff"/></linearGradient><linearGradient id="g127" gradientUnits="userSpaceOnUse" x1="244.0" y1="173.0" x2="244.0" y2="165.0"><stop offset="0%" stop-color="#434343"/><stop offset="100%" stop-color="#ffd966"/></linearGradient><linearGradient id="g128" gradientUnits="userSpaceOnUse" x1="256.0" y1="181.0" x2="264.0" y2="181.0"><stop offset="0%" stop-color="#434343"/><stop offset="100%" stop-color="#ffd966"/></linearGradient><linearGradient id="g129" gradientUnits="userSpaceOnUse" x1="244.0" y1="189.0" x2="244.0" y2="197.0"><stop offset="0%" stop-color="#434343"/><stop offset="100%" stop-color="#000000"/></linearGradient><linearGradient id="g130" gradientUnits="userSpaceOnUse" x1="220.0" y1="189.0" x2="220.0" y2="197.0"><stop offset="0%" stop-color="#434343"/><stop offset="100%" stop-color="#ffffff"/></linearGradient><linearGradient id="g131" gradientUnits="userSpaceOnUse" x1="208.0" y1="181.0" x2="200.0" y2="181.0"><stop offset="0%" stop-color="#434343"/><stop offset="100%" stop-color="#2f3fbf"/></linearGradient></defs><rect x="0" y="0" width="269.0" height="222.0" fill="#ffffff"/><rect x="8.0" y="5.0" width="256.0" height="192.0" fill="#ff3f2f"/><g><title>axe</title><rect x="16.0" y="5.0" width="20.0" height="2.0" fill="url(#g0)"/><rect x="36.0" y="5.0" width="4.0" height="8.0" fill="url(#g0)"/></g><g><title>brick</title><rect x="40.0" y="5.0" width="24.0" height="8.0" fill="url(#g1)"/></g><g><title>brick</title><rect x="64.0" y="13.0" width="8.0" height="16.0" fill="url(#g2)"/></g><g><title>inf</title><rect x="48.0" y="29.0" width="8.0" height="8.0" fill="url(#g3)"/></g><g><title>axe</title><rect x="20.0" y="35.0" width="20.0" height="2.0" fill="url(#g4)"/><rect x="16.0" y="29.0" width="4.0" height="8.0" fill="url(#g4)"/></g><g><title>inf</title><rect x="8.0" y="17.0" width="8.0" height="8.0" fill="url(#g5)"/></g><g><title>wave</title><polygon points="80.0,13.0 88.0,5.0 88.0,13.0" fill="url(#g6)"/><polygon points="96.0,5.0 104.0,5.0 96.0,13.0" fill="url(#g6)"/></g><g><title>wave</title><polygon points="104.0,13.0 112.0,5.0 112.0,13.0" fill="url(#g7)"/><polygon points="120.0,5.0 128.0,5.0 120.0,13.0" fill="url(#g7)"/></g><g><title>wave</title><polygon points="128.0,13.0 128.0,21.0 136.0,21.0" fill="url(#g8)"/><polygon points="128.0,21.0 136.0,21.0 136.0,29.0" fill="url(#g8)"/></g><g><title>axe</title><rect x="108.0" y="35.0" width="20.0" height="2.0" fill="url(#g9)"/><rect x="104.0" y="29.0" width="4.0" height="8.0" fill="url(#g9)"/></g><g><title>inf</title><rect x="88.0" y="29.0" width="8.0" height="8.0" fill="url(#g10)"/></g><g><title>inf</title><rect x="72.0" y="17.0" width="8.0" height="8.0" fill="url(#g11)"/></g><g><title>wave</title><polygon points="144.0,13.0 152.0,5.0 152.0,13.0" fill="url(#g12)"/><polygon points="160.0,5.0 168.0,5.0 160.0,13.0" fill="url(#g12)"/></g><g><title>wave</title><polygon points="168.0,13.0 176.0,5.0 176.0,13.0" fill="url(#g13)"/><polygon points="184.0,5.0 192.0,5.0 184.0,13.0" fill="url(#g13)"/></g><g><title>inf</title><rect x="192.0" y="17.0" width="8.0" height="8.0" fill="url(#g14)"/></g><g><title>inf</title><rect x="176.0" y="29.0" width="8.0" height="8.0" fill="url(#g15)"/></g><g><title>brick</title><rect x="144.0" y="29.0" width="24.0" height="8.0" fill="url(#g16)"/></g><g><title>brick</title><rect x="136.0" y="13.0" width="8.0" height="16.0" fill="url(#g17)"/></g><g><title>brick</title><rect x="16.0" y="37.0" width="24.0" height="8.0" fill="url(#g18)"/></g><g><title>wave</title><polygon points="40.0,45.0 48.0,37.0 48.0,45.0" fill="url(#g19)"/><polygon points="56.0,37.0 64.0,37.0 56.0,45.0" fill="url(#g19)"/></g><g><title>inf</title><rect x="64.0" y="49.0" width="8.0" height="8.0" fill="url(#g20)"/></g><g><title>inf</title><rect x="48.0" y="61.0" width="8.0" height="8.0" fill="url(#g21)"/></g><g><title>inf</title><rect x="24.0" y="61.0" width="8.0" height="8.0" fill="url(#g22)"/></g><g><title>brick</title><rect x="8.0" y="45.0" width="8.0" height="16.0" fill="url(#g23)"/></g><g><title>wave</title><polygon points="80.0,45.0 88.0,37.0 88.0,45.0" fill="url(#g24)"/><polygon points="96.0,37.0 104.0,37.0 96.0,45.0" fill="url(#g24)"/></g><g><title>brick</title><rect x="104.0" y="37.0" width="24.0" height="8.0" fill="url(#g25)"/></g><g><title>inf</title><rect x="128.0" y="49.0" width="8.0" height="8.0" fill="url(#g26)"/></g><g><title>brick</title><rect x="104.0" y="61.0" width="24.0" height="8.0" fill="url(#g27)"/></g><g><title>axe</title><rect x="84.0" y="67.0" width="20.0" height="2.0" fill="url(#g28)"/><rect x="80.0" y="61.0" width="4.0" height="8.0" fill="url(#g28)"/></g><g><title>axe</title><rect x="78.0" y="49.0" width="2.0" height="12.0" fill="url(#g29)"/><rect x="72.0" y="45.0" width="8.0" height="4.0" fill="url(#g29)"/></g><g><title>axe</title><rect x="144.0" y="37.0" width="20.0" height="2.0" fill="url(#g30)"/><rect x="164.0" y="37.0" width="4.0" height="8.0" fill="url(#g30)"/></g><g><title>inf</title><rect x="176.0" y="37.0" width="8.0" height="8.0" fill="url(#g31)"/></g><g><title>brick</title><rect x="192.0" y="45.0" width="8.0" height="16.0" fill="url(#g32)"/></g><g><title>wave</title><polygon points="168.0,61.0 176.0,61.0 168.0,69.0" fill="url(#g33)"/><polygon points="184.0,69.0 192.0,61.0 192.0,69.0" fill="url(#g33)"/></g><g><title>inf</title><rect x="152.0" y="61.0" width="8.0" height="8.0" fill="url(#g34)"/></g><g><title>brick</title><rect x="136.0" y="45.0" width="8.0" height="16.0" fill="url(#g35)"/></g><g><title>inf</title><rect x="216.0" y="37.0" width="8.0" height="8.0" fill="url(#g36)"/></g><g><title>axe</title><rect x="232.0" y="37.0" width="20.0" height="2.0" fill="url(#g37)"/><rect x="252.0" y="37.0" width="4.0" height="8.0" fill="url(#g37)"/></g><g><title>axe</title><rect x="256.0" y="45.0" width="2.0" height="12.0" fill="url(#g38)"/><rect x="256.0" y="57.0" width="8.0" height="4.0" fill="url(#g38)"/></g><g><title>axe</title><rect x="236.0" y="67.0" width="20.0" height="2.0" fill="url(#g39)"/><rect x="232.0" y="61.0" width="4.0" height="8.0" fill="url(#g39)"/></g><g><title>inf</title><rect x="216.0" y="61.0" width="8.0" height="8.0" fill="url(#g40)"/></g><g><title>brick</title><rect x="200.0" y="45.0" width="8.0" height="16.0" fill="url(#g41)"/></g><g><title>axe</title><rect x="16.0" y="69.0" width="20.0" height="2.0" fill="url(#g42)"/><rect x="36.0" y="69.0" width="4.0" height="8.0" fill="url(#g42)"/></g><g><title>wave</title><polygon points="40.0,77.0 48.0,69.0 48.0,77.0" fill="url(#g43)"/><polygon points="56.0,69.0 64.0,69.0 56.0,77.0" fill="url(#g43)"/></g><g><title>brick</title><rect x="64.0" y="77.0" width="8.0" height="16.0" fill="url(#g44)"/></g><g><title>axe</title><rect x="44.0" y="99.0" width="20.0" height="2.0" fill="url(#g45)"/><rect x="40.0" y="93.0" width="4.0" height="8.0" fill="url(#g45)"/></g><g><title>brick</title><rect x="16.0" y="93.0" width="24.0" height="8.0" fill="url(#g46)"/></g><g><title>wave</title><polygon points="8.0,77.0 16.0,77.0 16.0,85.0" fill="url(#g47)"/><polygon points="8.0,85.0 8.0,93.0 16.0,93.0" fill="url(#g47)"/></g><g><title>brick</title><rect x="144.0" y="69.0" width="24.0" height="8.0" fill="url(#g48)"/></g><g><title>brick</title><rect x="168.0" y="69.0" width="24.0" height="8.0" fill="url(#g49)"/></g><g><title>axe</title><rect x="192.0" y="77.0" width="2.0" height="12.0" fill="url(#g50)"/><rect x="192.0" y="89.0" width="8.0" height="4.0" fill="url(#g50)"/></g><g><title>brick</title><rect x="168.0" y="93.0" width="24.0" height="8.0" fill="url(#g51)"/></g><g><title>axe</title><rect x="148.0" y="99.0" width="20.0" height="2.0" fill="url(#g52)"/><rect x="144.0" y="93.0" width="4.0" height="8.0" fill="url(#g52)"/></g><g><title>axe</title><rect x="142.0" y="81.0" width="2.0" height="12.0" fill="url(#g53)"/><rect x="136.0" y="77.0" width="8.0" height="4.0" fill="url(#g53)"/></g><g><title>axe</title><rect x="208.0" y="69.0" width="20.0" height="2.0" fill="url(#g54)"/><rect x="228.0" y="69.0" width="4.0" height="8.0" fill="url(#g54)"/></g><g><title>inf</title><rect x="240.0" y="69.0" width="8.0" height="8.0" fill="url(#g55)"/></g><g><title>wave</title><polygon points="256.0,77.0 256.0,85.0 264.0,85.0" fill="url(#g56)"/><polygon points="256.0,85.0 264.0,85.0 264.0,93.0" fill="url(#g56)"/></g><g><title>wave</title><polygon points="232.0,93.0 240.0,93.0 232.0,101.0" fill="url(#g57)"/><polygon points="248.0,101.0 256.0,93.0 256.0,101.0" fill="url(#g57)"/></g><g><title>inf</title><rect x="216.0" y="93.0" width="8.0" height="8.0" fill="url(#g58)"/></g><g><title>inf</title><rect x="200.0" y="81.0" width="8.0" height="8.0" fill="url(#g59)"/></g><g><title>wave</title><polygon points="16.0,109.0 24.0,101.0 24.0,109.0" fill="url(#g60)"/><polygon points="32.0,101.0 40.0,101.0 32.0,109.0" fill="url(#g60)"/></g><g><title>wave</title><polygon points="40.0,109.0 48.0,101.0 48.0,109.0" fill="url(#g61)"/><polygon points="56.0,101.0 64.0,101.0 56.0,109.0" fill="url(#g61)"/></g><g><title>brick</title><rect x="64.0" y="109.0" width="8.0" height="16.0" fill="url(#g62)"/></g><g><title>inf</title><rect x="48.0" y="125.0" width="8.0" height="8.0" fill="url(#g63)"/></g><g><title>brick</title><rect x="16.0" y="125.0" width="24.0" height="8.0" fill="url(#g64)"/></g><g><title>inf</title><rect x="8.0" y="113.0" width="8.0" height="8.0" fill="url(#g65)"/></g><g><title>inf</title><rect x="88.0" y="101.0" width="8.0" height="8.0" fill="url(#g66)"/></g><g><title>brick</title><rect x="104.0" y="101.0" width="24.0" height="8.0" fill="url(#g67)"/></g><g><title>inf</title><rect x="128.0" y="113.0" width="8.0" height="8.0" fill="url(#g68)"/></g><g><title>inf</title><rect x="112.0" y="125.0" width="8.0" height="8.0" fill="url(#g69)"/></g><g><title>inf</title><rect x="88.0" y="125.0" width="8.0" height="8.0" fill="url(#g70)"/></g><g><title>axe</title><rect x="78.0" y="113.0" width="2.0" height="12.0" fill="url(#g71)"/><rect x="72.0" y="109.0" width="8.0" height="4.0" fill="url(#g71)"/></g><g><title>inf</title><rect x="152.0" y="101.0" width="8.0" height="8.0" fill="url(#g72)"/></g><g><title>wave</title><polygon points="168.0,109.0 176.0,101.0 176.0,109.0" fill="url(#g73)"/><polygon points="184.0,101.0 192.0,101.0 184.0,109.0" fill="url(#g73)"/></g><g><title>inf</title><rect x="192.0" y="113.0" width="8.0" height="8.0" fill="url(#g74)"/></g><g><title>brick</title><rect x="168.0" y="125.0" width="24.0" height="8.0" fill="url(#g75)"/></g><g><title>wave</title><polygon points="144.0,125.0 152.0,125.0 144.0,133.0" fill="url(#g76)"/><polygon points="160.0,133.0 168.0,125.0 168.0,133.0" fill="url(#g76)"/></g><g><title>axe</title><rect x="142.0" y="113.0" width="2.0" height="12.0" fill="url(#g77)"/><rect x="136.0" y="109.0" width="8.0" height="4.0" fill="url(#g77)"/></g><g><title>wave</title><polygon points="208.0,109.0 216.0,101.0 216.0,109.0" fill="url(#g78)"/><polygon points="224.0,101.0 232.0,101.0 224.0,109.0" fill="url(#g78)"/></g><g><title>wave</title><polygon points="232.0,109.0 240.0,101.0 240.0,109.0" fill="url(#g79)"/><polygon points="248.0,101.0 256.0,101.0 248.0,109.0" fill="url(#g79)"/></g><g><title>wave</title><polygon points="256.0,109.0 256.0,117.0 264.0,117.0" fill="url(#g80)"/><polygon points="256.0,117.0 264.0,117.0 264.0,125.0" fill="url(#g80)"/></g><g><title>wave</title><polygon points="232.0,125.0 240.0,125.0 232.0,133.0" fill="url(#g81)"/><polygon points="248.0,133.0 256.0,125.0 256.0,133.0" fill="url(#g81)"/></g><g><title>wave</title><polygon points="208.0,125.0 216.0,125.0 208.0,133.0" fill="url(#g82)"/><polygon points="224.0,133.0 232.0,125.0 232.0,133.0" fill="url(#g82)"/></g><g><title>brick</title><rect x="200.0" y="109.0" width="8.0" height="16.0" fill="url(#g83)"/></g><g><title>inf</title><rect x="24.0" y="133.0" width="8.0" height="8.0" fill="url(#g84)"/></g><g><title>brick</title><rect x="40.0" y="133.0" width="24.0" height="8.0" fill="url(#g85)"/></g><g><title>inf</title><rect x="64.0" y="145.0" width="8.0" height="8.0" fill="url(#g86)"/></g><g><title>wave</title><polygon points="40.0,157.0 48.0,157.0 40.0,165.0" fill="url(#g87)"/><polygon points="56.0,165.0 64.0,157.0 64.0,165.0" fill="url(#g87)"/></g><g><title>wave</title><polygon points="16.0,157.0 24.0,157.0 16.0,165.0" fill="url(#g88)"/><polygon points="32.0,165.0 40.0,157.0 40.0,165.0" fill="url(#g88)"/></g><g><title>axe</title><rect x="14.0" y="145.0" width="2.0" height="12.0" fill="url(#g89)"/><rect x="8.0" y="141.0" width="8.0" height="4.0" fill="url(#g89)"/></g><g><title>inf</title><rect x="88.0" y="133.0" width="8.0" height="8.0" fill="url(#g90)"/></g><g><title>axe</title><rect x="104.0" y="133.0" width="20.0" height="2.0" fill="url(#g91)"/><rect x="124.0" y="133.0" width="4.0" height="8.0" fill="url(#g91)"/></g><g><title>inf</title><rect x="128.0" y="145.0" width="8.0" height="8.0" fill="url(#g92)"/></g><g><title>wave</title><polygon points="104.0,157.0 112.0,157.0 104.0,165.0" fill="url(#g93)"/><polygon points="120.0,165.0 128.0,157.0 128.0,165.0" fill="url(#g93)"/></g><g><title>inf</title><rect x="88.0" y="157.0" width="8.0" height="8.0" fill="url(#g94)"/></g><g><title>wave</title><polygon points="72.0,141.0 80.0,141.0 80.0,149.0" fill="url(#g95)"/><polygon points="72.0,149.0 72.0,157.0 80.0,157.0" fill="url(#g95)"/></g><g><title>brick</title><rect x="144.0" y="133.0" width="24.0" height="8.0" fill="url(#g96)"/></g><g><title>inf</title><rect x="176.0" y="133.0" width="8.0" height="8.0" fill="url(#g97)"/></g><g><title>brick</title><rect x="192.0" y="141.0" width="8.0" height="16.0" fill="url(#g98)"/></g><g><title>inf</title><rect x="176.0" y="157.0" width="8.0" height="8.0" fill="url(#g99)"/></g><g><title>wave</title><polygon points="144.0,157.0 152.0,157.0 144.0,165.0" fill="url(#g100)"/><polygon points="160.0,165.0 168.0,157.0 168.0,165.0" fill="url(#g100)"/></g><g><title>axe</title><rect x="142.0" y="145.0" width="2.0" height="12.0" fill="url(#g101)"/><rect x="136.0" y="141.0" width="8.0" height="4.0" fill="url(#g101)"/></g><g><title>inf</title><rect x="216.0" y="133.0" width="8.0" height="8.0" fill="url(#g102)"/></g><g><title>inf</title><rect x="240.0" y="133.0" width="8.0" height="8.0" fill="url(#g103)"/></g><g><title>brick</title><rect x="256.0" y="141.0" width="8.0" height="16.0" fill="url(#g104)"/></g><g><title>brick</title><rect x="232.0" y="157.0" width="24.0" height="8.0" fill="url(#g105)"/></g><g><title>brick</title><rect x="208.0" y="157.0" width="24.0" height="8.0" fill="url(#g106)"/></g><g><title>wave</title><polygon points="200.0,141.0 208.0,141.0 208.0,149.0" fill="url(#g107)"/><polygon points="200.0,149.0 200.0,157.0 208.0,157.0" fill="url(#g107)"/></g><g><title>axe</title><rect x="16.0" y="165.0" width="20.0" height="2.0" fill="url(#g108)"/><rect x="36.0" y="165.0" width="4.0" height="8.0" fill="url(#g108)"/></g><g><title>brick</title><rect x="40.0" y="165.0" width="24.0" height="8.0" fill="url(#g109)"/></g><g><title>axe</title><rect x="64.0" y="173.0" width="2.0" height="12.0" fill="url(#g110)"/><rect x="64.0" y="185.0" width="8.0" height="4.0" fill="url(#g110)"/></g><g><title>brick</title><rect x="40.0" y="189.0" width="24.0" height="8.0" fill="url(#g111)"/></g><g><title>axe</title><rect x="20.0" y="195.0" width="20.0" height="2.0" fill="url(#g112)"/><rect x="16.0" y="189.0" width="4.0" height="8.0" fill="url(#g112)"/></g><g><title>brick</title><rect x="8.0" y="173.0" width="8.0" height="16.0" fill="url(#g113)"/></g><g><title>axe</title><rect x="80.0" y="165.0" width="20.0" height="2.0" fill="url(#g114)"/><rect x="100.0" y="165.0" width="4.0" height="8.0" fill="url(#g114)"/></g><g><title>inf</title><rect x="112.0" y="165.0" width="8.0" height="8.0" fill="url(#g115)"/></g><g><title>inf</title><rect x="128.0" y="177.0" width="8.0" height="8.0" fill="url(#g116)"/></g><g><title>inf</title><rect x="112.0" y="189.0" width="8.0" height="8.0" fill="url(#g117)"/></g><g><title>brick</title><rect x="80.0" y="189.0" width="24.0" height="8.0" fill="url(#g118)"/></g><g><title>wave</title><polygon points="72.0,173.0 80.0,173.0 80.0,181.0" fill="url(#g119)"/><polygon points="72.0,181.0 72.0,189.0 80.0,189.0" fill="url(#g119)"/></g><g><title>wave</title><polygon points="144.0,173.0 152.0,165.0 152.0,173.0" fill="url(#g120)"/><polygon points="160.0,165.0 168.0,165.0 160.0,173.0" fill="url(#g120)"/></g><g><title>axe</title><rect x="168.0" y="165.0" width="20.0" height="2.0" fill="url(#g121)"/><rect x="188.0" y="165.0" width="4.0" height="8.0" fill="url(#g121)"/></g><g><title>axe</title><rect x="192.0" y="173.0" width="2.0" height="12.0" fill="url(#g122)"/><rect x="192.0" y="185.0" width="8.0" height="4.0" fill="url(#g122)"/></g><g><title>axe</title><rect x="172.0" y="195.0" width="20.0" height="2.0" fill="url(#g123)"/><rect x="168.0" y="189.0" width="4.0" height="8.0" fill="url(#g123)"/></g><g><title>wave</title><polygon points="144.0,189.0 152.0,189.0 144.0,197.0" fill="url(#g124)"/><polygon points="160.0,197.0 168.0,189.0 168.0,197.0" fill="url(#g124)"/></g><g><title>axe</title><rect x="142.0" y="177.0" width="2.0" height="12.0" fill="url(#g125)"/><rect x="136.0" y="173.0" width="8.0" height="4.0" fill="url(#g125)"/></g><g><title>brick</title><rect x="208.0" y="165.0" width="24.0" height="8.0" fill="url(#g126)"/></g><g><title>brick</title><rect x="232.0" y="165.0" width="24.0" height="8.0" fill="url(#g127)"/></g><g><title>wave</title><polygon points="256.0,173.0 256.0,181.0 264.0,181.0" fill="url(#g128)"/><polygon points="256.0,181.0 264.0,181.0 264.0,189.0" fill="url(#g128)"/></g><g><title>brick</title><rect x="232.0" y="189.0" width="24.0" height="8.0" fill="url(#g129)"/></g><g><title>brick</title><rect x="208.0" y="189.0" width="24.0" height="8.0" fill="url(#g130)"/></g><g><title>wave</title><polygon points="200.0,173.0 208.0,173.0 208.0,181.0" fill="url(#g131)"/><polygon points="200.0,181.0 200.0,189.0 208.0,189.0" fill="url(#g131)"/></g><ellipse cx="8.0" cy="133.0" rx="174.38821634502716" ry="318.0020415703437" transform="rotate(0.7058823529411764 8.0 133.0)" fill="#000000" fill-opacity="0.2380392156862745" clip-path="url(#bounding-clip)"/><rect x="16.0" y="13.0" width="48.0" height="16.0" fill="#d2719b"/><text x="40.0" y="21.0" fill="#ffffff" style="font-family: monospace; font-size: 16.0px;" text-anchor="middle" dominant-baseline="central">9B71D2</text><rect x="80.0" y="13.0" width="48.0" height="16.0" fill="#62bd24"/><text x="104.0" y="21.0" fill="#ffffff" style="font-family: monospace; font-size: 16.0px;" text-anchor="middle" dominant-baseline="central">24BD62</text><rect x="144.0" y="13.0" width="48.0" height="16.0" fill="#5d78f3"/><text x="168.0" y="21.0" fill="#ffffff" style="font-family: monospace; font-size: 16.0px;" text-anchor="middle" dominant-baseline="central">F3785D</text><rect x="16.0" y="45.0" width="48.0" height="16.0" fill="#6ad496"/><text x="40.0" y="53.0" fill="#000000" style="font-family: monospace; font-size: 16.0px;" text-anchor="middle" dominant-baseline="central">96D46A</text><rect x="80.0" y="45.0" width="48.0" height="16.0" fill="#3dead3"/><text x="104.0" y="53.0" fill="#000000" style="font-family: monospace; font-size: 16.0px;" text-anchor="middle" dominant-baseline="central">D3EA3D</text><rect x="144.0" y="45.0" width="48.0" height="16.0" fill="#9b3173"/><text x="168.0" y="53.0" fill="#ffffff" style="font-family: monospace; font-size: 16.0px;" text-anchor="middle" dominant-baseline="central">73319B</text><rect x="208.0" y="45.0" width="48.0" height="16.0" fill="#89c2fb"/><text x="232.0" y="53.0" fill="#000000" style="font-family: monospace; font-size: 16.0px;" text-anchor="middle" dominant-baseline="central">FBC289</text><rect x="16.0" y="77.0" width="48.0" height="16.0" fill="#daaa0c"/><text x="40.0" y="85.0" fill="#ffffff" style="font-family: monospace; font-size: 16.0px;" text-anchor="middle" dominant-baseline="central">0CAADA</text><rect x="144.0" y="77.0" width="48.0" height="16.0" fill="#f7dfe2"/><text x="168.0" y="85.0" fill="#000000" style="font-family: monospace; font-size: 16.0px;" text-anchor="middle" dominant-baseline="central">E2DFF7</text><rect x="208.0" y="77.0" width="48.0" height="16.0" fill="#671925"/><text x="232.0" y="85.0" fill="#ffffff" style="font-family: monospace; font-size: 16.0px;" text-anchor="middle" dominant-baseline="central">251967</text><rect x="16.0" y="109.0" width="48.0" height="16.0" fill="#23a73c"/><text x="40.0" y="117.0" fill="#ffffff" style="font-family: monospace; font-size: 16.0px;" text-anchor="middle" dominant-baseline="central">3CA723</text><rect x="80.0" y="109.0" width="48.0" height="16.0" fill="#d9c323"/><text x="104.0" y="117.0" fill="#000000" style="font-family: monospace; font-size: 16.0px;" text-anchor="middle" dominant-baseline="central">23C3D9</text><rect x="144.0" y="109.0" width="48.0" height="16.0" fill="#c1a59b"/><text x="168.0" y="117.0" fill="#ffffff" style="font-family: monospace; font-size: 16.0px;" text-anchor="middle" dominant-baseline="central">9BA5C1</text><rect x="208.0" y="109.0" width="48.0" height="16.0" fill="#7a7c1d"/><text x="232.0" y="117.0" fill="#ffffff" style="font-family: monospace; font-size: 16.0px;" text-anchor="middle" dominant-baseline="central">1D7C7A</text><rect x="16.0" y="141.0" width="48.0" height="16.0" fill="#146ecc"/><text x="40.0" y="149.0" fill="#ffffff" style="font-family: monospace; font-size: 16.0px;" text-anchor="middle" dominant-baseline="central">CC6E14</text><rect x="80.0" y="141.0" width="48.0" height="16.0" fill="#dac5b8"/><text x="104.0" y="149.0" fill="#000000" style="font-family: monospace; font-size: 16.0px;" text-anchor="middle" dominant-baseline="central">B8C5DA</text><rect x="144.0" y="141.0" width="48.0" height="16.0" fill="#63460c"/><text x="168.0" y="149.0" fill="#ffffff" style="font-family: monospace; font-size: 16.0px;" text-anchor="middle" dominant-baseline="central">0C4663</text><rect x="208.0" y="141.0" width="48.0" height="16.0" fill="#2e5c47"/><text x="232.0" y="149.0" fill="#ffffff" style="font-family: monospace; font-size: 16.0px;" text-anchor="middle" dominant-baseline="central">475C2E</text><rect x="16.0" y="173.0" width="48.0" height="16.0" fill="#de3a5c"/><text x="40.0" y="181.0" fill="#ffffff" style="font-family: monospace; font-size: 16.0px;" text-anchor="middle" dominant-baseline="central">5C3ADE</text><rect x="80.0" y="173.0" width="48.0" height="16.0" fill="#736ff4"/><text x="104.0" y="181.0" fill="#ffffff" style="font-family: monospace; font-size: 16.0px;" text-anchor="middle" dominant-baseline="central">F46F73</text><rect x="144.0" y="173.0" width="48.0" height="16.0" fill="#c0debc"/><text x="168.0" y="181.0" fill="#000000" style="font-family: monospace; font-size: 16.0px;" text-anchor="middle" dominant-baseline="central">BCDEC0</text><rect x="208.0" y="173.0" width="48.0" height="16.0" fill="#434343"/><text x="232.0" y="181.0" fill="#ffffff" style="font-family: monospace; font-size: 16.0px;" text-anchor="middle" dominant-baseline="central">43</text><circle cx="74.0" cy="167.0" r="2.0" fill="#ffffff"/><circle cx="198.0" cy="71.0" r="2.0" fill="#ffd966"/><circle cx="198.0" cy="131.0" r="2.0" fill="#2f3fbf"/><circle cx="74.0" cy="163.0" r="2.0" fill="#000000"/><rect x="0" y="0" width="4.0" height="75.95499183769749" fill="#000000"/><rect x="0" y="75.95499183769749" width="4.0" height="60.431306901352045" fill="#2f3fbf"/><rect x="0" y="136.38629873904955" width="4.0" height="53.629293764261625" fill="#ffffff"/><rect x="0" y="190.01559250331118" width="4.0" height="31.984407496688817" fill="#ffd966"/><text x="264.0" y="209.0" fill="#000000" style="font-family: monospace; font-size: 16.0px;" text-anchor="end" dominant-baseline="central">I37 B35 W32 A28</text><line x1="4.0" y1="0" x2="268.0" y2="0" stroke="#000000" stroke-width="1"/><line x1="268.0" y1="0" x2="268.0" y2="221.0" stroke="#000000" stroke-width="1"/><line x1="4.0" y1="221.0" x2="268.0" y2="221.0" stroke="#000000" stroke-width="1"/></svg>