<svg width="141.0" height="94.0" xmlns="http://www.w3.org/2000/svg"><defs><linearGradient id="g0" gradientUnits="userSpaceOnUse" x1="92.0" y1="13.0" x2="92.0" y2="5.0"><stop offset="0%" stop-color="#9de675"/><stop offset="100%" stop-color="#000000"/></linearGradient><linearGradient id="g1" gradientUnits="userSpaceOnUse" x1="116.0" y1="13.0" x2="116.0" y2="5.0"><stop offset="0%" stop-color="#9de675"/><stop offset="100%" stop-color="#ff3f2f"/></linearGradient><linearGradient id="g2" gradientUnits="userSpaceOnUse" x1="128.0" y1="21.0" x2="136.0" y2="21.0"><stop offset="0%" stop-color="#9de675"/><stop offset="100%" stop-color="#ffffff"/></linearGradient><linearGradient id="g3" gradientUnits="userSpaceOnUse" x1="116.0" y1="29.0" x2="116.0" y2="37.0"><stop offset="0%" stop-color="#9de675"/><stop offset="100%" stop-color="#ffffff"/></linearGradient><linearGradient id="g4" gradientUnits="userSpaceOnUse" x1="92.0" y1="29.0" x2="92.0" y2="37.0"><stop offset="0%" stop-color="#9de675"/><stop offset="100%" stop-color="#ffd966"/></linearGradient><linearGradient id="g5" gradientUnits="userSpaceOnUse" x1="80.0" y1="21.0" x2="72.0" y2="21.0"><stop offset="0%" stop-color="#9de675"/><stop offset="100%" stop-color="#ffffff"/></linearGradient><linearGradient id="g6" gradientUnits="userSpaceOnUse" x1="92.0" y1="45.0" x2="92.0" y2="37.0"><stop offset="0%" stop-color="#9fe76d"/><stop offset="100%" stop-color="#ff3f2f"/></linearGradient><linearGradient id="g7" gradientUnits="userSpaceOnUse" x1="116.0" y1="45.0" x2="116.0" y2="37.0"><stop offset="0%" stop-color="#9fe76d"/><stop offset="100%" stop-color="#ff3f2f"/></linearGradient><linearGradient id="g8" gradientUnits="userSpaceOnUse" x1="128.0" y1="53.0" x2="136.0" y2="53.0"><stop offset="0%" stop-color="#9fe76d"/><stop offset="100%" stop-color="#000000"/></linearGradient><linearGradient id="g9" gradientUnits="userSpaceOnUse" x1="116.0" y1="61.0" x2="116.0" y2="69.0"><stop offset="0%" stop-color="#9fe76d"/><stop offset="100%" stop-color="#ffd966"/></linearGradient><linearGradient id="g10" gradientUnits="userSpaceOnUse" x1="92.0" y1="61.0" x2="92.0" y2="69.0"><stop offset="0%" stop-color="#9fe76d"/><stop offset="100%" stop-color="#ffd966"/></linearGradient><linearGradient id="g11" gradientUnits="userSpaceOnUse" x1="80.0" y1="53.0" x2="72.0" y2="53.0"><stop offset="0%" stop-color="#9fe76d"/><stop offset="100%" stop-color="#000000"/></linearGradient></defs><rect x="0" y="0" width="141.0" height="94.0" fill="#ffffff"/><rect x="8.0" y="5.0" width="128.0" height="64.0" fill="#2f3fbf"/><g><title>brick</title><rect x="80.0" y="5.0" width="24.0" height="8.0" fill="url(#g0)"/></g><g><title>fin</title><polygon points="104.0,5.0 104.0,13.0 128.0,13.0" fill="url(#g1)"/></g><g><title>brick</title><rect x="128.0" y="13.0" width="8.0" height="16.0" fill="url(#g2)"/></g><g><title>fin</title><polygon points="104.0,29.0 128.0,29.0 128.0,37.0" fill="url(#g3)"/></g><g><title>fin</title><polygon points="80.0,29.0 104.0,29.0 104.0,37.0" fill="url(#g4)"/></g><g><title>fin</title><polygon points="72.0,29.0 80.0,13.0 80.0,29.0" fill="url(#g5)"/></g><g><title>brick</title><rect x="80.0" y="37.0" width="24.0" height="8.0" fill="url(#g6)"/></g><g><title>mound</title><rect x="112.0" y="37.0" width="2.0" height="8.0" fill="url(#g7)"/><rect x="118.0" y="37.0" width="2.0" height="8.0" fill="url(#g7)"/></g><g><title>fin</title><polygon points="128.0,45.0 136.0,45.0 128.0,61.0" fill="url(#g8)"/></g><g><title>brick</title><rect x="104.0" y="61.0" width="24.0" height="8.0" fill="url(#g9)"/></g><g><title>axe</title><rect x="84.0" y="67.0" width="20.0" height="2.0" fill="url(#g10)"/><rect x="80.0" y="61.0" width="4.0" height="8.0" fill="url(#g10)"/></g><g><title>mound</title><rect x="72.0" y="49.0" width="8.0" height="2.0" fill="url(#g11)"/><rect x="72.0" y="55.0" width="8.0" height="2.0" fill="url(#g11)"/></g><rect x="80.0" y="13.0" width="48.0" height="16.0" fill="#9de675"/><text x="104.0" y="21.0" fill="#000000" style="font-family: monospace; font-size: 16.0px;" text-anchor="middle" dominant-baseline="central">dead</text><rect x="80.0" y="45.0" width="48.0" height="16.0" fill="#9fe76d"/><text x="104.0" y="53.0" fill="#000000" style="font-family: monospace; font-size: 16.0px;" text-anchor="middle" dominant-baseline="central">beef</text><circle cx="74.0" cy="7.0" r="2.0" fill="#ffffff"/><circle cx="134.0" cy="39.0" r="2.0" fill="#ffd966"/><rect x="0" y="0" width="4.0" height="23.5" fill="#ffffff"/><rect x="0" y="23.5" width="4.0" height="23.5" fill="#ffd966"/><rect x="0" y="47.0" width="4.0" height="23.5" fill="#ff3f2f"/><rect x="0" y="70.5" width="4.0" height="23.5" fill="#000000"/><text x="136.0" y="81.0" fill="#000000" style="font-family: monospace; font-size: 16.0px;" text-anchor="end" dominant-baseline="central">F05 B04 M02 A01</text><line x1="4.0" y1="0" x2="140.0" y2="0" stroke="#000000" stroke-width="1"/><line x1="140.0" y1="0" x2="140.0" y2="93.0" stroke="#000000" stroke-width="1"/><line x1="4.0" y1="93.0" x2="140.0" y2="93.0" stroke="#000000" stroke-width="1"/></svg>