<svg width="273" height="192" viewBox="0 0 273 192" xmlns="http://www.w3.org/2000/svg" font-family="&quot;JetBrains Mono&quot;, &quot;Menlo&quot;, &quot;Consolas&quot;, &quot;DejaVu Sans Mono&quot;, &quot;Liberation Mono&quot;, &quot;Roboto Mono&quot;, &quot;Noto Sans Mono&quot;, monospace" data-entviz-version="v10" data-entviz-lib="0.10.0" data-input-bytes="62" data-cols="4" data-rows="4"><defs><clipPath id="grid-clip-455a41c26e763acf-4x4"><rect x="27" y="26" width="240" height="160"/></clipPath></defs><rect x="0" y="0" width="273" height="192" fill="#ffffff"/><g data-channel="grid"><rect x="27" y="26" width="240" height="160" fill="#ff3f2f"/><g><path fill="#e7be00" d="M27 26h6v10h-6zM63 26h6v10h-6zM81 26h6v10h-6zM81 46h6v10h-6zM81 56h6v10h-6zM69 56h6v10h-6zM57 56h6v10h-6zM45 56h6v10h-6zM27 46h6v10h-6z"/><path fill="#2f3fbf" d="M93 26h6v10h-6zM99 26h6v10h-6zM111 26h6v10h-6zM117 26h6v10h-6zM123 26h6v10h-6zM141 26h6v10h-6zM141 36h6v10h-6zM141 46h6v10h-6zM135 56h6v10h-6zM129 56h6v10h-6zM111 56h6v10h-6zM87 46h6v10h-6zM87 36h6v10h-6z"/><path fill="#2f3fbf" d="M147 26h6v10h-6zM171 26h6v10h-6zM177 26h6v10h-6zM183 26h6v10h-6zM195 26h6v10h-6zM201 26h6v10h-6zM201 36h6v10h-6zM201 46h6v10h-6zM189 56h6v10h-6zM183 56h6v10h-6zM171 56h6v10h-6zM159 56h6v10h-6zM153 56h6v10h-6zM147 56h6v10h-6z"/><path fill="#000000" d="M207 26h6v10h-6zM213 26h6v10h-6zM219 26h6v10h-6zM237 26h6v10h-6zM243 26h6v10h-6zM261 26h6v10h-6zM261 36h6v10h-6zM261 56h6v10h-6zM255 56h6v10h-6zM243 56h6v10h-6zM225 56h6v10h-6zM207 56h6v10h-6z"/><path fill="#e7be00" d="M27 66h6v10h-6zM39 66h6v10h-6zM51 66h6v10h-6zM57 66h6v10h-6zM63 66h6v10h-6zM69 66h6v10h-6zM81 66h6v10h-6zM81 76h6v10h-6zM81 86h6v10h-6zM81 96h6v10h-6zM69 96h6v10h-6zM63 96h6v10h-6zM51 96h6v10h-6zM39 96h6v10h-6zM27 96h6v10h-6zM27 86h6v10h-6zM27 76h6v10h-6z"/><path fill="#000000" d="M87 66h6v10h-6zM93 66h6v10h-6zM105 66h6v10h-6zM111 66h6v10h-6zM117 66h6v10h-6zM129 66h6v10h-6zM135 66h6v10h-6zM135 96h6v10h-6zM105 96h6v10h-6zM93 96h6v10h-6z"/><path fill="#2f3fbf" d="M147 66h6v10h-6zM153 66h6v10h-6zM171 66h6v10h-6zM177 66h6v10h-6zM201 86h6v10h-6zM201 96h6v10h-6zM195 96h6v10h-6zM189 96h6v10h-6zM165 96h6v10h-6zM159 96h6v10h-6zM153 96h6v10h-6zM147 86h6v10h-6z"/><path fill="#000000" d="M207 66h6v10h-6zM213 66h6v10h-6zM219 66h6v10h-6zM231 66h6v10h-6zM237 66h6v10h-6zM243 66h6v10h-6zM261 76h6v10h-6zM261 96h6v10h-6zM249 96h6v10h-6zM243 96h6v10h-6zM231 96h6v10h-6zM219 96h6v10h-6zM213 96h6v10h-6zM207 96h6v10h-6zM207 86h6v10h-6z"/><path fill="#2f3fbf" d="M33 106h6v10h-6zM39 106h6v10h-6zM63 106h6v10h-6zM69 106h6v10h-6zM81 106h6v10h-6zM81 136h6v10h-6zM63 136h6v10h-6zM57 136h6v10h-6zM51 136h6v10h-6zM45 136h6v10h-6zM33 136h6v10h-6zM27 126h6v10h-6zM27 116h6v10h-6z"/><path fill="#ffffff" d="M153 106h6v10h-6zM165 106h6v10h-6zM171 106h6v10h-6zM177 106h6v10h-6zM183 106h6v10h-6zM189 106h6v10h-6zM201 106h6v10h-6zM201 116h6v10h-6zM201 126h6v10h-6zM189 136h6v10h-6zM183 136h6v10h-6zM177 136h6v10h-6zM171 136h6v10h-6zM165 136h6v10h-6zM153 136h6v10h-6zM147 136h6v10h-6z"/><path fill="#2f3fbf" d="M219 106h6v10h-6zM237 106h6v10h-6zM261 106h6v10h-6zM255 136h6v10h-6zM243 136h6v10h-6zM237 136h6v10h-6zM231 136h6v10h-6zM225 136h6v10h-6zM213 136h6v10h-6zM207 136h6v10h-6zM207 126h6v10h-6z"/><path fill="#000000" d="M27 146h6v10h-6zM33 146h6v10h-6zM45 146h6v10h-6zM51 146h6v10h-6zM57 146h6v10h-6zM63 146h6v10h-6zM75 146h6v10h-6zM81 146h6v10h-6zM81 156h6v10h-6zM75 176h6v10h-6zM69 176h6v10h-6zM63 176h6v10h-6zM51 176h6v10h-6zM33 176h6v10h-6zM27 176h6v10h-6z"/><path fill="#2f3fbf" d="M87 146h6v10h-6zM99 146h6v10h-6zM111 146h6v10h-6zM141 176h6v10h-6zM123 176h6v10h-6zM117 176h6v10h-6zM111 176h6v10h-6zM87 176h6v10h-6z"/><path fill="#000000" d="M153 146h6v10h-6zM159 146h6v10h-6zM165 146h6v10h-6zM177 146h6v10h-6zM189 146h6v10h-6zM195 146h6v10h-6zM201 146h6v10h-6zM201 156h6v10h-6zM201 176h6v10h-6zM189 176h6v10h-6zM183 176h6v10h-6zM177 176h6v10h-6zM171 176h6v10h-6zM159 176h6v10h-6zM153 176h6v10h-6zM147 176h6v10h-6z"/><path fill="#2f3fbf" d="M237 146h6v10h-6zM255 146h6v10h-6zM261 156h6v10h-6zM255 176h6v10h-6zM243 176h6v10h-6zM231 176h6v10h-6zM225 176h6v10h-6zM219 176h6v10h-6zM213 176h6v10h-6zM207 166h6v10h-6zM207 156h6v10h-6z"/></g><g clip-path="url(#grid-clip-455a41c26e763acf-4x4)" data-channel="ellipse" data-ellipse-anchor-x="87" data-ellipse-anchor-y="146" data-ellipse-rx="125.473" data-ellipse-ry="94.321" data-ellipse-rotation-deg="96"><ellipse cx="87" cy="146" rx="125.473" ry="94.321" transform="rotate(96 87 146)" fill="#000000" stroke="#000000" fill-opacity="0.25" stroke-opacity="0.35" stroke-width="2"/></g><g><g data-channel="cell" data-cell-index="0" data-cell-row="0" data-cell-col="0" data-surround-bits="0x455a41" data-edge-color="#e7be00"><rect x="33" y="36" width="48" height="20" fill="#11c300"/><text x="57" y="46" fill="#000000" font-size="16" text-anchor="middle" dominant-baseline="central">qrp3</text></g><g data-channel="cell" data-cell-index="1" data-cell-row="0" data-cell-col="1" data-surround-bits="0xc26e76" data-edge-color="#2f3fbf"><rect x="93" y="36" width="48" height="20" fill="#001e8a"/><text x="117" y="46" fill="#ffffff" font-size="16" text-anchor="middle" dominant-baseline="central">3g0q</text></g><g data-channel="cell" data-cell-index="2" data-cell-row="0" data-cell-col="2" data-surround-bits="0x3acf71" data-edge-color="#2f3fbf"><rect x="153" y="36" width="48" height="20" fill="#bb28a6"/><text x="177" y="46" fill="#ffffff" font-size="16" text-anchor="middle" dominant-baseline="central">5c5t</text></g><g data-channel="cell" data-cell-index="3" data-cell-row="0" data-cell-col="3" data-surround-bits="0x24b667" data-edge-color="#000000"><rect x="213" y="36" width="48" height="20" fill="#550234"/><text x="237" y="46" fill="#ffffff" font-size="16" text-anchor="middle" dominant-baseline="central">xsp9</text></g><g data-channel="cell" data-cell-index="4" data-cell-row="1" data-cell-col="0" data-surround-bits="0xeadef5" data-edge-color="#e7be00" data-cell-quartile="1"><rect x="33" y="76" width="48" height="20" fill="#00c9e8"/><text x="57" y="86" fill="#000000" font-size="16" text-anchor="middle" dominant-baseline="central">arys</text><polygon points="33,76 43,76 33,86" fill="#000000"/></g><g data-channel="cell" data-cell-index="5" data-cell-row="1" data-cell-col="1" data-surround-bits="0x1421bb" data-edge-color="#000000" data-cell-quartile="2"><rect x="93" y="76" width="48" height="20" fill="#66ab19"/><text x="117" y="86" fill="#000000" font-size="16" text-anchor="middle" dominant-baseline="central">rx4k</text><polygon points="141,76 131,76 141,86" fill="#000000"/></g><g data-channel="cell" data-cell-index="6" data-cell-row="1" data-cell-col="2" data-surround-bits="0x5c7833" data-edge-color="#2f3fbf"><rect x="153" y="76" width="48" height="20" fill="#669bd0"/><text x="177" y="86" fill="#000000" font-size="16" text-anchor="middle" dominant-baseline="central">6zdk</text></g><g data-channel="cell" data-cell-index="7" data-cell-row="1" data-cell-col="3" data-surround-bits="0x7ad477" data-edge-color="#000000"><rect x="213" y="76" width="48" height="20" fill="#332b4c"/><text x="237" y="86" fill="#ffffff" font-size="16" text-anchor="middle" dominant-baseline="central">fs4n</text></g><g data-channel="cell" data-cell-index="8" data-cell-row="2" data-cell-col="0" data-surround-bits="0xd792c6" data-edge-color="#2f3fbf"><rect x="33" y="116" width="48" height="20" fill="#666ac6"/><text x="57" y="126" fill="#ffffff" font-size="16" text-anchor="middle" dominant-baseline="central">ce4x</text></g><g data-channel="cell" data-cell-index="9" data-cell-row="2" data-cell-col="1" data-cell-blank="true" data-cell-blank-map="true"><rect x="93" y="116" width="48" height="20" rx="10" ry="10" fill="#ffffff" stroke="#000000" stroke-width="1"/><circle cx="111" cy="123.5" r="3.5" fill="#000000" data-blank-map-min="1,1"/><path d="M 94.8,123.5 H 103.2 M 99,119.3 V 127.7" fill="none" stroke="#000000" stroke-width="1.925" stroke-linecap="butt" data-blank-map-max="1,0"/></g><g data-channel="cell" data-cell-index="10" data-cell-row="2" data-cell-col="2" data-surround-bits="0x37cefa" data-edge-color="#ffffff"><rect x="153" y="116" width="48" height="20" fill="#ddd093"/><text x="177" y="126" fill="#000000" font-size="16" text-anchor="middle" dominant-baseline="central">j0gd</text></g><g data-channel="cell" data-cell-index="11" data-cell-row="2" data-cell-col="3" data-surround-bits="0x77a224" data-edge-color="#2f3fbf"><rect x="213" y="116" width="48" height="20" fill="#9931c6"/><text x="237" y="126" fill="#ffffff" font-size="16" text-anchor="middle" dominant-baseline="central">ccce</text></g><g data-channel="cell" data-cell-index="12" data-cell-row="3" data-cell-col="0" data-surround-bits="0x32e77b" data-edge-color="#000000"><rect x="33" y="156" width="48" height="20" fill="#44024b"/><text x="57" y="166" fill="#ffffff" font-size="16" text-anchor="middle" dominant-baseline="central">fvpy</text></g><g data-channel="cell" data-cell-index="13" data-cell-row="3" data-cell-col="1" data-surround-bits="0x239015" data-edge-color="#2f3fbf" data-cell-quartile="3"><rect x="93" y="156" width="48" height="20" fill="#119381"/><text x="117" y="166" fill="#ffffff" font-size="16" text-anchor="middle" dominant-baseline="central">sxf3</text><polygon points="141,176 141,166 131,176" fill="#ffffff"/></g><g data-channel="cell" data-cell-index="14" data-cell-row="3" data-cell-col="2" data-surround-bits="0x3bd7ae" data-edge-color="#000000" data-cell-quartile="4"><rect x="153" y="156" width="48" height="20" fill="#993006"/><text x="177" y="166" fill="#ffffff" font-size="16" text-anchor="middle" dominant-baseline="central">qccf</text><polygon points="153,176 153,166 163,176" fill="#ffffff"/></g><g data-channel="cell" data-cell-index="15" data-cell-row="3" data-cell-col="3" data-surround-bits="0xdea520" data-edge-color="#2f3fbf"><rect x="213" y="156" width="48" height="20" fill="#9123db"/><text x="237" y="166" fill="#ffffff" font-size="16" text-anchor="middle" dominant-baseline="central">mv3</text></g></g></g><g data-channel="color-bar" data-bar-slots="15" data-bar-marker-left="4" data-bar-marker-right="6"><g data-color-bar-rank="0" data-color-bar-band="G"><rect x="1" y="1" width="20" height="48.616" fill="#e7be00"/><text x="11" y="46.096" fill="#000000" font-size="16" text-anchor="middle" data-color-bar-letter="true">g</text></g><g data-color-bar-rank="1" data-color-bar-band="W"><rect x="1" y="49.616" width="20" height="24.921" fill="#ffffff"/><text x="11" y="71.017" fill="#000000" font-size="16" text-anchor="middle" data-color-bar-letter="true">w</text></g><g data-color-bar-rank="2" data-color-bar-band="B"><rect x="1" y="74.537" width="20" height="58.231" fill="#2f3fbf"/><text x="11" y="129.249" fill="#ffffff" font-size="16" text-anchor="middle" data-color-bar-letter="true">b</text></g><g data-color-bar-rank="3" data-color-bar-band="K"><rect x="1" y="132.769" width="20" height="58.231" fill="#000000"/><text x="11" y="187.48" fill="#ffffff" font-size="16" text-anchor="middle" data-color-bar-letter="true">k</text></g><circle cx="5.6" cy="58" r="3.4" fill="#ffffff" stroke="#000000" stroke-width="0.75" data-bar-marker="left"/><circle cx="16.4" cy="83.333" r="3.4" fill="#ffffff" stroke="#000000" stroke-width="0.75" data-bar-marker="right"/></g><g data-channel="label-top"><text x="27" y="16" fill="#666666" font-size="12" dominant-baseline="central">BTC SegWit: bc1...</text></g><line x1="0" y1="0.5" x2="273" y2="0.5" stroke="#808080" stroke-width="1" shape-rendering="crispEdges"/><line x1="272.5" y1="0" x2="272.5" y2="192" stroke="#808080" stroke-width="1" shape-rendering="crispEdges"/><line x1="0" y1="191.5" x2="273" y2="191.5" stroke="#808080" stroke-width="1" shape-rendering="crispEdges"/><line x1="0.5" y1="0" x2="0.5" y2="192" stroke="#808080" stroke-width="1" shape-rendering="crispEdges"/><line x1="21.5" y1="0" x2="21.5" y2="192" stroke="#808080" stroke-width="1" shape-rendering="crispEdges"/></svg>