<svg width="273" height="192" viewBox="0 0 273 192" xmlns="http://www.w3.org/2000/svg" data-entviz-version="v10" data-entviz-lib="0.10.0" data-input-bytes="62" data-cols="4" data-rows="4"><defs><clipPath id="grid-clip-455a41c26e763acf-4x4"><rect x="27" y="26" width="240" height="160"/></clipPath></defs><rect x="0" y="0" width="273" height="192" fill="#ffffff"/><g data-channel="grid"><rect x="27" y="26" width="240" height="160" fill="#ff3f2f"/><g><rect x="27" y="26" width="6" height="10" fill="#e7be00"/><rect x="63" y="26" width="6" height="10" fill="#e7be00"/><rect x="81" y="26" width="6" height="10" fill="#e7be00"/><rect x="81" y="46" width="6" height="10" fill="#e7be00"/><rect x="81" y="56" width="6" height="10" fill="#e7be00"/><rect x="69" y="56" width="6" height="10" fill="#e7be00"/><rect x="57" y="56" width="6" height="10" fill="#e7be00"/><rect x="45" y="56" width="6" height="10" fill="#e7be00"/><rect x="27" y="46" width="6" height="10" fill="#e7be00"/><rect x="93" y="26" width="6" height="10" fill="#2f3fbf"/><rect x="99" y="26" width="6" height="10" fill="#2f3fbf"/><rect x="111" y="26" width="6" height="10" fill="#2f3fbf"/><rect x="117" y="26" width="6" height="10" fill="#2f3fbf"/><rect x="123" y="26" width="6" height="10" fill="#2f3fbf"/><rect x="141" y="26" width="6" height="10" fill="#2f3fbf"/><rect x="141" y="36" width="6" height="10" fill="#2f3fbf"/><rect x="141" y="46" width="6" height="10" fill="#2f3fbf"/><rect x="135" y="56" width="6" height="10" fill="#2f3fbf"/><rect x="129" y="56" width="6" height="10" fill="#2f3fbf"/><rect x="111" y="56" width="6" height="10" fill="#2f3fbf"/><rect x="87" y="46" width="6" height="10" fill="#2f3fbf"/><rect x="87" y="36" width="6" height="10" fill="#2f3fbf"/><rect x="147" y="26" width="6" height="10" fill="#2f3fbf"/><rect x="171" y="26" width="6" height="10" fill="#2f3fbf"/><rect x="177" y="26" width="6" height="10" fill="#2f3fbf"/><rect x="183" y="26" width="6" height="10" fill="#2f3fbf"/><rect x="195" y="26" width="6" height="10" fill="#2f3fbf"/><rect x="201" y="26" width="6" height="10" fill="#2f3fbf"/><rect x="201" y="36" width="6" height="10" fill="#2f3fbf"/><rect x="201" y="46" width="6" height="10" fill="#2f3fbf"/><rect x="189" y="56" width="6" height="10" fill="#2f3fbf"/><rect x="183" y="56" width="6" height="10" fill="#2f3fbf"/><rect x="171" y="56" width="6" height="10" fill="#2f3fbf"/><rect x="159" y="56" width="6" height="10" fill="#2f3fbf"/><rect x="153" y="56" width="6" height="10" fill="#2f3fbf"/><rect x="147" y="56" width="6" height="10" fill="#2f3fbf"/><rect x="207" y="26" width="6" height="10" fill="#000000"/><rect x="213" y="26" width="6" height="10" fill="#000000"/><rect x="219" y="26" width="6" height="10" fill="#000000"/><rect x="237" y="26" width="6" height="10" fill="#000000"/><rect x="243" y="26" width="6" height="10" fill="#000000"/><rect x="261" y="26" width="6" height="10" fill="#000000"/><rect x="261" y="36" width="6" height="10" fill="#000000"/><rect x="261" y="56" width="6" height="10" fill="#000000"/><rect x="255" y="56" width="6" height="10" fill="#000000"/><rect x="243" y="56" width="6" height="10" fill="#000000"/><rect x="225" y="56" width="6" height="10" fill="#000000"/><rect x="207" y="56" width="6" height="10" fill="#000000"/><rect x="27" y="66" width="6" height="10" fill="#e7be00"/><rect x="39" y="66" width="6" height="10" fill="#e7be00"/><rect x="51" y="66" width="6" height="10" fill="#e7be00"/><rect x="57" y="66" width="6" height="10" fill="#e7be00"/><rect x="63" y="66" width="6" height="10" fill="#e7be00"/><rect x="69" y="66" width="6" height="10" fill="#e7be00"/><rect x="81" y="66" width="6" height="10" fill="#e7be00"/><rect x="81" y="76" width="6" height="10" fill="#e7be00"/><rect x="81" y="86" width="6" height="10" fill="#e7be00"/><rect x="81" y="96" width="6" height="10" fill="#e7be00"/><rect x="69" y="96" width="6" height="10" fill="#e7be00"/><rect x="63" y="96" width="6" height="10" fill="#e7be00"/><rect x="51" y="96" width="6" height="10" fill="#e7be00"/><rect x="39" y="96" width="6" height="10" fill="#e7be00"/><rect x="27" y="96" width="6" height="10" fill="#e7be00"/><rect x="27" y="86" width="6" height="10" fill="#e7be00"/><rect x="27" y="76" width="6" height="10" fill="#e7be00"/><rect x="87" y="66" width="6" height="10" fill="#000000"/><rect x="93" y="66" width="6" height="10" fill="#000000"/><rect x="105" y="66" width="6" height="10" fill="#000000"/><rect x="111" y="66" width="6" height="10" fill="#000000"/><rect x="117" y="66" width="6" height="10" fill="#000000"/><rect x="129" y="66" width="6" height="10" fill="#000000"/><rect x="135" y="66" width="6" height="10" fill="#000000"/><rect x="135" y="96" width="6" height="10" fill="#000000"/><rect x="105" y="96" width="6" height="10" fill="#000000"/><rect x="93" y="96" width="6" height="10" fill="#000000"/><rect x="147" y="66" width="6" height="10" fill="#2f3fbf"/><rect x="153" y="66" width="6" height="10" fill="#2f3fbf"/><rect x="171" y="66" width="6" height="10" fill="#2f3fbf"/><rect x="177" y="66" width="6" height="10" fill="#2f3fbf"/><rect x="201" y="86" width="6" height="10" fill="#2f3fbf"/><rect x="201" y="96" width="6" height="10" fill="#2f3fbf"/><rect x="195" y="96" width="6" height="10" fill="#2f3fbf"/><rect x="189" y="96" width="6" height="10" fill="#2f3fbf"/><rect x="165" y="96" width="6" height="10" fill="#2f3fbf"/><rect x="159" y="96" width="6" height="10" fill="#2f3fbf"/><rect x="153" y="96" width="6" height="10" fill="#2f3fbf"/><rect x="147" y="86" width="6" height="10" fill="#2f3fbf"/><rect x="207" y="66" width="6" height="10" fill="#000000"/><rect x="213" y="66" width="6" height="10" fill="#000000"/><rect x="219" y="66" width="6" height="10" fill="#000000"/><rect x="231" y="66" width="6" height="10" fill="#000000"/><rect x="237" y="66" width="6" height="10" fill="#000000"/><rect x="243" y="66" width="6" height="10" fill="#000000"/><rect x="261" y="76" width="6" height="10" fill="#000000"/><rect x="261" y="96" width="6" height="10" fill="#000000"/><rect x="249" y="96" width="6" height="10" fill="#000000"/><rect x="243" y="96" width="6" height="10" fill="#000000"/><rect x="231" y="96" width="6" height="10" fill="#000000"/><rect x="219" y="96" width="6" height="10" fill="#000000"/><rect x="213" y="96" width="6" height="10" fill="#000000"/><rect x="207" y="96" width="6" height="10" fill="#000000"/><rect x="207" y="86" width="6" height="10" fill="#000000"/><rect x="33" y="106" width="6" height="10" fill="#2f3fbf"/><rect x="39" y="106" width="6" height="10" fill="#2f3fbf"/><rect x="63" y="106" width="6" height="10" fill="#2f3fbf"/><rect x="69" y="106" width="6" height="10" fill="#2f3fbf"/><rect x="81" y="106" width="6" height="10" fill="#2f3fbf"/><rect x="81" y="136" width="6" height="10" fill="#2f3fbf"/><rect x="63" y="136" width="6" height="10" fill="#2f3fbf"/><rect x="57" y="136" width="6" height="10" fill="#2f3fbf"/><rect x="51" y="136" width="6" height="10" fill="#2f3fbf"/><rect x="45" y="136" width="6" height="10" fill="#2f3fbf"/><rect x="33" y="136" width="6" height="10" fill="#2f3fbf"/><rect x="27" y="126" width="6" height="10" fill="#2f3fbf"/><rect x="27" y="116" width="6" height="10" fill="#2f3fbf"/><rect x="153" y="106" width="6" height="10" fill="#ffffff"/><rect x="165" y="106" width="6" height="10" fill="#ffffff"/><rect x="171" y="106" width="6" height="10" fill="#ffffff"/><rect x="177" y="106" width="6" height="10" fill="#ffffff"/><rect x="183" y="106" width="6" height="10" fill="#ffffff"/><rect x="189" y="106" width="6" height="10" fill="#ffffff"/><rect x="201" y="106" width="6" height="10" fill="#ffffff"/><rect x="201" y="116" width="6" height="10" fill="#ffffff"/><rect x="201" y="126" width="6" height="10" fill="#ffffff"/><rect x="189" y="136" width="6" height="10" fill="#ffffff"/><rect x="183" y="136" width="6" height="10" fill="#ffffff"/><rect x="177" y="136" width="6" height="10" fill="#ffffff"/><rect x="171" y="136" width="6" height="10" fill="#ffffff"/><rect x="165" y="136" width="6" height="10" fill="#ffffff"/><rect x="153" y="136" width="6" height="10" fill="#ffffff"/><rect x="147" y="136" width="6" height="10" fill="#ffffff"/><rect x="219" y="106" width="6" height="10" fill="#2f3fbf"/><rect x="237" y="106" width="6" height="10" fill="#2f3fbf"/><rect x="261" y="106" width="6" height="10" fill="#2f3fbf"/><rect x="255" y="136" width="6" height="10" fill="#2f3fbf"/><rect x="243" y="136" width="6" height="10" fill="#2f3fbf"/><rect x="237" y="136" width="6" height="10" fill="#2f3fbf"/><rect x="231" y="136" width="6" height="10" fill="#2f3fbf"/><rect x="225" y="136" width="6" height="10" fill="#2f3fbf"/><rect x="213" y="136" width="6" height="10" fill="#2f3fbf"/><rect x="207" y="136" width="6" height="10" fill="#2f3fbf"/><rect x="207" y="126" width="6" height="10" fill="#2f3fbf"/><rect x="27" y="146" width="6" height="10" fill="#000000"/><rect x="33" y="146" width="6" height="10" fill="#000000"/><rect x="45" y="146" width="6" height="10" fill="#000000"/><rect x="51" y="146" width="6" height="10" fill="#000000"/><rect x="57" y="146" width="6" height="10" fill="#000000"/><rect x="63" y="146" width="6" height="10" fill="#000000"/><rect x="75" y="146" width="6" height="10" fill="#000000"/><rect x="81" y="146" width="6" height="10" fill="#000000"/><rect x="81" y="156" width="6" height="10" fill="#000000"/><rect x="75" y="176" width="6" height="10" fill="#000000"/><rect x="69" y="176" width="6" height="10" fill="#000000"/><rect x="63" y="176" width="6" height="10" fill="#000000"/><rect x="51" y="176" width="6" height="10" fill="#000000"/><rect x="33" y="176" width="6" height="10" fill="#000000"/><rect x="27" y="176" width="6" height="10" fill="#000000"/><rect x="87" y="146" width="6" height="10" fill="#2f3fbf"/><rect x="99" y="146" width="6" height="10" fill="#2f3fbf"/><rect x="111" y="146" width="6" height="10" fill="#2f3fbf"/><rect x="141" y="176" width="6" height="10" fill="#2f3fbf"/><rect x="123" y="176" width="6" height="10" fill="#2f3fbf"/><rect x="117" y="176" width="6" height="10" fill="#2f3fbf"/><rect x="111" y="176" width="6" height="10" fill="#2f3fbf"/><rect x="87" y="176" width="6" height="10" fill="#2f3fbf"/><rect x="153" y="146" width="6" height="10" fill="#000000"/><rect x="159" y="146" width="6" height="10" fill="#000000"/><rect x="165" y="146" width="6" height="10" fill="#000000"/><rect x="177" y="146" width="6" height="10" fill="#000000"/><rect x="189" y="146" width="6" height="10" fill="#000000"/><rect x="195" y="146" width="6" height="10" fill="#000000"/><rect x="201" y="146" width="6" height="10" fill="#000000"/><rect x="201" y="156" width="6" height="10" fill="#000000"/><rect x="201" y="176" width="6" height="10" fill="#000000"/><rect x="189" y="176" width="6" height="10" fill="#000000"/><rect x="183" y="176" width="6" height="10" fill="#000000"/><rect x="177" y="176" width="6" height="10" fill="#000000"/><rect x="171" y="176" width="6" height="10" fill="#000000"/><rect x="159" y="176" width="6" height="10" fill="#000000"/><rect x="153" y="176" width="6" height="10" fill="#000000"/><rect x="147" y="176" width="6" height="10" fill="#000000"/><rect x="237" y="146" width="6" height="10" fill="#2f3fbf"/><rect x="255" y="146" width="6" height="10" fill="#2f3fbf"/><rect x="261" y="156" width="6" height="10" fill="#2f3fbf"/><rect x="255" y="176" width="6" height="10" fill="#2f3fbf"/><rect x="243" y="176" width="6" height="10" fill="#2f3fbf"/><rect x="231" y="176" width="6" height="10" fill="#2f3fbf"/><rect x="225" y="176" width="6" height="10" fill="#2f3fbf"/><rect x="219" y="176" width="6" height="10" fill="#2f3fbf"/><rect x="213" y="176" width="6" height="10" fill="#2f3fbf"/><rect x="207" y="166" width="6" height="10" fill="#2f3fbf"/><rect x="207" y="156" width="6" height="10" fill="#2f3fbf"/></g><g clip-path="url(#grid-clip-455a41c26e763acf-4x4)" data-channel="ellipse" data-ellipse-anchor-x="87" data-ellipse-anchor-y="146" data-ellipse-rx="125.473" data-ellipse-ry="94.321" data-ellipse-rotation-deg="96"><ellipse cx="87" cy="146" rx="125.473" ry="94.321" transform="rotate(96 87 146)" fill="#000000" stroke="#000000" fill-opacity="0.25" stroke-opacity="0.35" stroke-width="2"/></g><g><g data-channel="cell" data-cell-index="0" data-cell-row="0" data-cell-col="0"><rect x="33" y="36" width="48" height="20" fill="#11c300"/><text x="57" y="46" fill="#000000" style="font-family: &quot;JetBrains Mono&quot;, &quot;Menlo&quot;, &quot;Consolas&quot;, &quot;DejaVu Sans Mono&quot;, &quot;Liberation Mono&quot;, &quot;Roboto Mono&quot;, &quot;Noto Sans Mono&quot;, monospace; font-size: 16px;" text-anchor="middle" dominant-baseline="central">qrp3</text></g><g data-channel="cell" data-cell-index="1" data-cell-row="0" data-cell-col="1"><rect x="93" y="36" width="48" height="20" fill="#001e8a"/><text x="117" y="46" fill="#ffffff" style="font-family: &quot;JetBrains Mono&quot;, &quot;Menlo&quot;, &quot;Consolas&quot;, &quot;DejaVu Sans Mono&quot;, &quot;Liberation Mono&quot;, &quot;Roboto Mono&quot;, &quot;Noto Sans Mono&quot;, monospace; font-size: 16px;" text-anchor="middle" dominant-baseline="central">3g0q</text></g><g data-channel="cell" data-cell-index="2" data-cell-row="0" data-cell-col="2"><rect x="153" y="36" width="48" height="20" fill="#bb28a6"/><text x="177" y="46" fill="#ffffff" style="font-family: &quot;JetBrains Mono&quot;, &quot;Menlo&quot;, &quot;Consolas&quot;, &quot;DejaVu Sans Mono&quot;, &quot;Liberation Mono&quot;, &quot;Roboto Mono&quot;, &quot;Noto Sans Mono&quot;, monospace; font-size: 16px;" text-anchor="middle" dominant-baseline="central">5c5t</text></g><g data-channel="cell" data-cell-index="3" data-cell-row="0" data-cell-col="3"><rect x="213" y="36" width="48" height="20" fill="#550234"/><text x="237" y="46" fill="#ffffff" style="font-family: &quot;JetBrains Mono&quot;, &quot;Menlo&quot;, &quot;Consolas&quot;, &quot;DejaVu Sans Mono&quot;, &quot;Liberation Mono&quot;, &quot;Roboto Mono&quot;, &quot;Noto Sans Mono&quot;, monospace; font-size: 16px;" text-anchor="middle" dominant-baseline="central">xsp9</text></g><g data-channel="cell" data-cell-index="4" data-cell-row="1" data-cell-col="0" data-cell-quartile="1"><rect x="33" y="76" width="48" height="20" fill="#00c9e8"/><text x="57" y="86" fill="#000000" style="font-family: &quot;JetBrains Mono&quot;, &quot;Menlo&quot;, &quot;Consolas&quot;, &quot;DejaVu Sans Mono&quot;, &quot;Liberation Mono&quot;, &quot;Roboto Mono&quot;, &quot;Noto Sans Mono&quot;, monospace; font-size: 16px;" text-anchor="middle" dominant-baseline="central">arys</text><polygon points="33,76 43,76 33,86" fill="#000000"/></g><g data-channel="cell" data-cell-index="5" data-cell-row="1" data-cell-col="1" data-cell-quartile="2"><rect x="93" y="76" width="48" height="20" fill="#66ab19"/><text x="117" y="86" fill="#000000" style="font-family: &quot;JetBrains Mono&quot;, &quot;Menlo&quot;, &quot;Consolas&quot;, &quot;DejaVu Sans Mono&quot;, &quot;Liberation Mono&quot;, &quot;Roboto Mono&quot;, &quot;Noto Sans Mono&quot;, monospace; font-size: 16px;" text-anchor="middle" dominant-baseline="central">rx4k</text><polygon points="141,76 131,76 141,86" fill="#000000"/></g><g data-channel="cell" data-cell-index="6" data-cell-row="1" data-cell-col="2"><rect x="153" y="76" width="48" height="20" fill="#669bd0"/><text x="177" y="86" fill="#000000" style="font-family: &quot;JetBrains Mono&quot;, &quot;Menlo&quot;, &quot;Consolas&quot;, &quot;DejaVu Sans Mono&quot;, &quot;Liberation Mono&quot;, &quot;Roboto Mono&quot;, &quot;Noto Sans Mono&quot;, monospace; font-size: 16px;" text-anchor="middle" dominant-baseline="central">6zdk</text></g><g data-channel="cell" data-cell-index="7" data-cell-row="1" data-cell-col="3"><rect x="213" y="76" width="48" height="20" fill="#332b4c"/><text x="237" y="86" fill="#ffffff" style="font-family: &quot;JetBrains Mono&quot;, &quot;Menlo&quot;, &quot;Consolas&quot;, &quot;DejaVu Sans Mono&quot;, &quot;Liberation Mono&quot;, &quot;Roboto Mono&quot;, &quot;Noto Sans Mono&quot;, monospace; font-size: 16px;" text-anchor="middle" dominant-baseline="central">fs4n</text></g><g data-channel="cell" data-cell-index="8" data-cell-row="2" data-cell-col="0"><rect x="33" y="116" width="48" height="20" fill="#666ac6"/><text x="57" y="126" fill="#ffffff" style="font-family: &quot;JetBrains Mono&quot;, &quot;Menlo&quot;, &quot;Consolas&quot;, &quot;DejaVu Sans Mono&quot;, &quot;Liberation Mono&quot;, &quot;Roboto Mono&quot;, &quot;Noto Sans Mono&quot;, monospace; font-size: 16px;" text-anchor="middle" dominant-baseline="central">ce4x</text></g><g data-channel="cell" data-cell-index="9" data-cell-row="2" data-cell-col="1" data-cell-blank="true" data-cell-blank-map="true"><rect x="93" y="116" width="48" height="20" rx="10" ry="10" fill="#ffffff" stroke="#000000" stroke-width="1"/><circle cx="111" cy="123.5" r="3.5" fill="#000000" data-blank-map-min="1,1"/><path d="M 94.8,123.5 H 103.2 M 99,119.3 V 127.7" fill="none" stroke="#000000" stroke-width="1.925" stroke-linecap="butt" data-blank-map-max="1,0"/></g><g data-channel="cell" data-cell-index="10" data-cell-row="2" data-cell-col="2"><rect x="153" y="116" width="48" height="20" fill="#ddd093"/><text x="177" y="126" fill="#000000" style="font-family: &quot;JetBrains Mono&quot;, &quot;Menlo&quot;, &quot;Consolas&quot;, &quot;DejaVu Sans Mono&quot;, &quot;Liberation Mono&quot;, &quot;Roboto Mono&quot;, &quot;Noto Sans Mono&quot;, monospace; font-size: 16px;" text-anchor="middle" dominant-baseline="central">j0gd</text></g><g data-channel="cell" data-cell-index="11" data-cell-row="2" data-cell-col="3"><rect x="213" y="116" width="48" height="20" fill="#9931c6"/><text x="237" y="126" fill="#ffffff" style="font-family: &quot;JetBrains Mono&quot;, &quot;Menlo&quot;, &quot;Consolas&quot;, &quot;DejaVu Sans Mono&quot;, &quot;Liberation Mono&quot;, &quot;Roboto Mono&quot;, &quot;Noto Sans Mono&quot;, monospace; font-size: 16px;" text-anchor="middle" dominant-baseline="central">ccce</text></g><g data-channel="cell" data-cell-index="12" data-cell-row="3" data-cell-col="0"><rect x="33" y="156" width="48" height="20" fill="#44024b"/><text x="57" y="166" fill="#ffffff" style="font-family: &quot;JetBrains Mono&quot;, &quot;Menlo&quot;, &quot;Consolas&quot;, &quot;DejaVu Sans Mono&quot;, &quot;Liberation Mono&quot;, &quot;Roboto Mono&quot;, &quot;Noto Sans Mono&quot;, monospace; font-size: 16px;" text-anchor="middle" dominant-baseline="central">fvpy</text></g><g data-channel="cell" data-cell-index="13" data-cell-row="3" data-cell-col="1" data-cell-quartile="3"><rect x="93" y="156" width="48" height="20" fill="#119381"/><text x="117" y="166" fill="#ffffff" style="font-family: &quot;JetBrains Mono&quot;, &quot;Menlo&quot;, &quot;Consolas&quot;, &quot;DejaVu Sans Mono&quot;, &quot;Liberation Mono&quot;, &quot;Roboto Mono&quot;, &quot;Noto Sans Mono&quot;, monospace; font-size: 16px;" text-anchor="middle" dominant-baseline="central">sxf3</text><polygon points="141,176 141,166 131,176" fill="#ffffff"/></g><g data-channel="cell" data-cell-index="14" data-cell-row="3" data-cell-col="2" data-cell-quartile="4"><rect x="153" y="156" width="48" height="20" fill="#993006"/><text x="177" y="166" fill="#ffffff" style="font-family: &quot;JetBrains Mono&quot;, &quot;Menlo&quot;, &quot;Consolas&quot;, &quot;DejaVu Sans Mono&quot;, &quot;Liberation Mono&quot;, &quot;Roboto Mono&quot;, &quot;Noto Sans Mono&quot;, monospace; font-size: 16px;" text-anchor="middle" dominant-baseline="central">qccf</text><polygon points="153,176 153,166 163,176" fill="#ffffff"/></g><g data-channel="cell" data-cell-index="15" data-cell-row="3" data-cell-col="3"><rect x="213" y="156" width="48" height="20" fill="#9123db"/><text x="237" y="166" fill="#ffffff" style="font-family: &quot;JetBrains Mono&quot;, &quot;Menlo&quot;, &quot;Consolas&quot;, &quot;DejaVu Sans Mono&quot;, &quot;Liberation Mono&quot;, &quot;Roboto Mono&quot;, &quot;Noto Sans Mono&quot;, monospace; font-size: 16px;" text-anchor="middle" dominant-baseline="central">mv3</text></g></g></g><g data-channel="color-bar" data-bar-slots="15" data-bar-marker-left="4" data-bar-marker-right="6"><g data-color-bar-rank="0" data-color-bar-band="G"><rect x="1" y="1" width="20" height="48.616" fill="#e7be00"/><text x="11" y="46.096" fill="#000000" style="font-family: &quot;JetBrains Mono&quot;, &quot;Menlo&quot;, &quot;Consolas&quot;, &quot;DejaVu Sans Mono&quot;, &quot;Liberation Mono&quot;, &quot;Roboto Mono&quot;, &quot;Noto Sans Mono&quot;, monospace; font-size: 16px;" text-anchor="middle" data-color-bar-letter="true">g</text></g><g data-color-bar-rank="1" data-color-bar-band="W"><rect x="1" y="49.616" width="20" height="24.921" fill="#ffffff"/><text x="11" y="71.017" fill="#000000" style="font-family: &quot;JetBrains Mono&quot;, &quot;Menlo&quot;, &quot;Consolas&quot;, &quot;DejaVu Sans Mono&quot;, &quot;Liberation Mono&quot;, &quot;Roboto Mono&quot;, &quot;Noto Sans Mono&quot;, monospace; font-size: 16px;" text-anchor="middle" data-color-bar-letter="true">w</text></g><g data-color-bar-rank="2" data-color-bar-band="B"><rect x="1" y="74.537" width="20" height="58.231" fill="#2f3fbf"/><text x="11" y="129.249" fill="#ffffff" style="font-family: &quot;JetBrains Mono&quot;, &quot;Menlo&quot;, &quot;Consolas&quot;, &quot;DejaVu Sans Mono&quot;, &quot;Liberation Mono&quot;, &quot;Roboto Mono&quot;, &quot;Noto Sans Mono&quot;, monospace; font-size: 16px;" text-anchor="middle" data-color-bar-letter="true">b</text></g><g data-color-bar-rank="3" data-color-bar-band="K"><rect x="1" y="132.769" width="20" height="58.231" fill="#000000"/><text x="11" y="187.48" fill="#ffffff" style="font-family: &quot;JetBrains Mono&quot;, &quot;Menlo&quot;, &quot;Consolas&quot;, &quot;DejaVu Sans Mono&quot;, &quot;Liberation Mono&quot;, &quot;Roboto Mono&quot;, &quot;Noto Sans Mono&quot;, monospace; font-size: 16px;" text-anchor="middle" data-color-bar-letter="true">k</text></g><circle cx="5.6" cy="58" r="3.4" fill="#ffffff" stroke="#000000" stroke-width="0.75" data-bar-marker="left"/><circle cx="16.4" cy="83.333" r="3.4" fill="#ffffff" stroke="#000000" stroke-width="0.75" data-bar-marker="right"/></g><g data-channel="label-top"><text x="27" y="16" fill="#666666" style="font-family: &quot;JetBrains Mono&quot;, &quot;Menlo&quot;, &quot;Consolas&quot;, &quot;DejaVu Sans Mono&quot;, &quot;Liberation Mono&quot;, &quot;Roboto Mono&quot;, &quot;Noto Sans Mono&quot;, monospace; font-size: 12px;" dominant-baseline="central">BTC SegWit: bc1...</text></g><line x1="0" y1="0.5" x2="273" y2="0.5" stroke="#808080" stroke-width="1" shape-rendering="crispEdges"/><line x1="272.5" y1="0" x2="272.5" y2="192" stroke="#808080" stroke-width="1" shape-rendering="crispEdges"/><line x1="0" y1="191.5" x2="273" y2="191.5" stroke="#808080" stroke-width="1" shape-rendering="crispEdges"/><line x1="0.5" y1="0" x2="0.5" y2="192" stroke="#808080" stroke-width="1" shape-rendering="crispEdges"/><line x1="21.5" y1="0" x2="21.5" y2="192" stroke="#808080" stroke-width="1" shape-rendering="crispEdges"/></svg>