<svg width="213" height="152" viewBox="0 0 213 152" xmlns="http://www.w3.org/2000/svg" font-family="&quot;JetBrains Mono&quot;, &quot;Menlo&quot;, &quot;Consolas&quot;, &quot;DejaVu Sans Mono&quot;, &quot;Liberation Mono&quot;, &quot;Roboto Mono&quot;, &quot;Noto Sans Mono&quot;, monospace" data-entviz-version="v11" data-entviz-lib="0.11.0" data-input-bytes="34" data-cols="3" data-rows="3"><defs><clipPath id="grid-clip-8ca076ef4cefb402-3x3"><rect x="27" y="26" width="180" height="120"/></clipPath></defs><rect x="0" y="0" width="213" height="152" fill="#ffffff"/><g data-channel="grid"><rect x="27" y="26" width="180" height="120" fill="#2f3fbf"/><g><path fill="#ff3f2f" d="M33 26h6v10h-6zM39 26h6v10h-6zM51 26h6v10h-6zM57 26h6v10h-6zM63 26h6v10h-6zM75 56h6v10h-6zM63 56h6v10h-6zM45 56h6v10h-6zM39 56h6v10h-6zM27 36h6v10h-6z"/><path fill="#ff3f2f" d="M87 26h6v10h-6zM93 26h6v10h-6zM99 26h6v10h-6zM105 26h6v10h-6zM117 26h6v10h-6zM123 26h6v10h-6zM129 26h6v10h-6zM141 36h6v10h-6zM141 46h6v10h-6zM129 56h6v10h-6zM117 56h6v10h-6zM111 56h6v10h-6zM105 56h6v10h-6zM99 56h6v10h-6zM87 56h6v10h-6zM87 46h6v10h-6zM87 36h6v10h-6z"/><path fill="#e7be00" d="M147 26h6v10h-6zM159 26h6v10h-6zM183 26h6v10h-6zM189 26h6v10h-6zM201 26h6v10h-6zM165 56h6v10h-6zM153 56h6v10h-6zM147 56h6v10h-6zM147 36h6v10h-6z"/><path fill="#ff3f2f" d="M33 66h6v10h-6zM45 66h6v10h-6zM51 66h6v10h-6zM57 66h6v10h-6zM63 66h6v10h-6zM69 66h6v10h-6zM81 86h6v10h-6zM81 96h6v10h-6zM75 96h6v10h-6zM57 96h6v10h-6zM51 96h6v10h-6zM45 96h6v10h-6zM39 96h6v10h-6zM27 76h6v10h-6z"/><path fill="#ff3f2f" d="M117 66h6v10h-6zM135 66h6v10h-6zM141 86h6v10h-6zM141 96h6v10h-6zM117 96h6v10h-6zM111 96h6v10h-6zM105 96h6v10h-6zM93 96h6v10h-6zM87 96h6v10h-6z"/><path fill="#ff3f2f" d="M147 66h6v10h-6zM153 66h6v10h-6zM159 66h6v10h-6zM165 66h6v10h-6zM177 66h6v10h-6zM183 66h6v10h-6zM195 66h6v10h-6zM201 96h6v10h-6zM177 96h6v10h-6zM147 96h6v10h-6zM147 86h6v10h-6z"/><path fill="#000000" d="M27 106h6v10h-6zM33 106h6v10h-6zM63 106h6v10h-6zM69 106h6v10h-6zM75 106h6v10h-6zM81 126h6v10h-6zM75 136h6v10h-6zM69 136h6v10h-6zM63 136h6v10h-6zM57 136h6v10h-6zM45 136h6v10h-6zM33 136h6v10h-6zM27 126h6v10h-6zM27 116h6v10h-6z"/><path fill="#000000" d="M93 106h6v10h-6zM99 106h6v10h-6zM105 106h6v10h-6zM111 106h6v10h-6zM129 106h6v10h-6zM141 106h6v10h-6zM141 126h6v10h-6zM141 136h6v10h-6zM123 136h6v10h-6zM117 136h6v10h-6zM99 136h6v10h-6zM93 136h6v10h-6zM87 136h6v10h-6z"/><path fill="#ff3f2f" d="M153 106h6v10h-6zM159 106h6v10h-6zM165 106h6v10h-6zM171 106h6v10h-6zM189 106h6v10h-6zM195 106h6v10h-6zM189 136h6v10h-6zM183 136h6v10h-6zM177 136h6v10h-6zM159 136h6v10h-6zM147 136h6v10h-6zM147 116h6v10h-6z"/></g><g clip-path="url(#grid-clip-8ca076ef4cefb402-3x3)" data-channel="ellipse" data-ellipse-anchor-x="87" data-ellipse-anchor-y="146" data-ellipse-rx="69.919" data-ellipse-ry="49.554" data-ellipse-rotation-deg="180"><ellipse cx="87" cy="146" rx="69.919" ry="49.554" transform="rotate(180 87 146)" fill="#ffffff" stroke="#ffffff" fill-opacity="0.35" stroke-opacity="0.45" stroke-width="2"/></g><g><g data-channel="cell" data-cell-index="0" data-cell-row="0" data-cell-col="0" data-surround-bits="0x8ca076" data-edge-color="#ff3f2f" data-cell-quartile="1"><rect x="33" y="36" width="48" height="20" fill="#da2136"/><text x="57" y="46" fill="#ffffff" font-size="16" text-anchor="middle" dominant-baseline="central">Eb8T</text><polygon points="33,36 43,36 33,46" fill="#ffffff"/></g><g data-channel="cell" data-cell-index="1" data-cell-row="0" data-cell-col="1" data-surround-bits="0xef4cef" data-edge-color="#ff3f2f"><rect x="93" y="36" width="48" height="20" fill="#ca2948"/><text x="117" y="46" fill="#ffffff" font-size="16" text-anchor="middle" dominant-baseline="central">K3gB</text></g><g data-channel="cell" data-cell-index="2" data-cell-row="0" data-cell-col="2" data-surround-bits="0xb402c5" data-edge-color="#e7be00" data-cell-quartile="2"><rect x="153" y="36" width="48" height="20" fill="#21b19e"/><text x="177" y="46" fill="#000000" font-size="16" text-anchor="middle" dominant-baseline="central">gk5a</text><polygon points="201,36 191,36 201,46" fill="#000000"/></g><g data-channel="cell" data-cell-index="3" data-cell-row="1" data-cell-col="0" data-surround-bits="0x8f38fa" data-edge-color="#ff3f2f"><rect x="33" y="76" width="48" height="20" fill="#f60ad2"/><text x="57" y="86" fill="#000000" font-size="16" text-anchor="middle" dominant-baseline="central">uZkw</text></g><g data-channel="cell" data-cell-index="4" data-cell-row="1" data-cell-col="1" data-surround-bits="0x371920" data-edge-color="#ff3f2f" data-cell-quartile="3"><rect x="93" y="76" width="48" height="20" fill="#905c8c"/><text x="117" y="86" fill="#ffffff" font-size="16" text-anchor="middle" dominant-baseline="central">c6sH</text><polygon points="141,96 141,86 131,96" fill="#ffffff"/></g><g data-channel="cell" data-cell-index="5" data-cell-row="1" data-cell-col="2" data-surround-bits="0x61116f" data-edge-color="#ff3f2f"><rect x="153" y="76" width="48" height="20" fill="#4f6cb7"/><text x="177" y="86" fill="#ffffff" font-size="16" text-anchor="middle" dominant-baseline="central">nwrG</text></g><g data-channel="cell" data-cell-index="6" data-cell-row="2" data-cell-col="0" data-surround-bits="0xd5e9c3" data-edge-color="#000000"><rect x="33" y="116" width="48" height="20" fill="#071471"/><text x="57" y="126" fill="#ffffff" font-size="16" text-anchor="middle" dominant-baseline="central">VJH8</text></g><g data-channel="cell" data-cell-index="7" data-cell-row="2" data-cell-col="1" data-surround-bits="0x399a9e" data-edge-color="#000000"><rect x="93" y="116" width="48" height="20" fill="#534833"/><text x="117" y="126" fill="#ffffff" font-size="16" text-anchor="middle" dominant-baseline="central">DuaL</text></g><g data-channel="cell" data-cell-index="8" data-cell-row="2" data-cell-col="2" data-surround-bits="0xa9c19e" data-edge-color="#ff3f2f"><rect x="153" y="116" width="48" height="20" fill="#288aa2"/><text x="177" y="126" fill="#ffffff" font-size="16" text-anchor="middle" dominant-baseline="central">h</text></g></g></g><g data-channel="color-bar" data-bar-slots="12" data-bar-marker-left="6" data-bar-marker-right="8"><g data-color-bar-rank="0" data-color-bar-band="W"><rect x="1" y="1" width="20" height="41.7" fill="#ffffff"/><text x="11" y="39.18" fill="#000000" font-size="16" text-anchor="middle" data-color-bar-letter="true">w</text></g><g data-color-bar-rank="1" data-color-bar-band="K"><rect x="1" y="42.7" width="20" height="62.053" fill="#000000"/><text x="11" y="101.232" fill="#ffffff" font-size="16" text-anchor="middle" data-color-bar-letter="true">k</text></g><g data-color-bar-rank="2" data-color-bar-band="R"><rect x="1" y="104.752" width="20" height="28.652" fill="#ff3f2f"/><text x="11" y="129.884" fill="#000000" font-size="16" text-anchor="middle" data-color-bar-letter="true">r</text></g><g data-color-bar-rank="3" data-color-bar-band="G"><rect x="1" y="133.404" width="20" height="17.596" fill="#e7be00"/><text x="11" y="147.48" fill="#000000" font-size="16" text-anchor="middle" data-color-bar-letter="true">g</text></g><circle cx="5.6" cy="82.25" r="3.4" fill="#ffffff" stroke="#000000" stroke-width="0.75" data-bar-marker="left"/><circle cx="16.4" cy="107.25" r="3.4" fill="#ffffff" stroke="#000000" stroke-width="0.75" data-bar-marker="right"/></g><g data-channel="label-top"><text x="27" y="16" fill="#666666" font-size="12" dominant-baseline="central">XRP: r...</text></g><line x1="0" y1="0.5" x2="213" y2="0.5" stroke="#808080" stroke-width="1" shape-rendering="crispEdges"/><line x1="212.5" y1="0" x2="212.5" y2="152" stroke="#808080" stroke-width="1" shape-rendering="crispEdges"/><line x1="0" y1="151.5" x2="213" y2="151.5" stroke="#808080" stroke-width="1" shape-rendering="crispEdges"/><line x1="0.5" y1="0" x2="0.5" y2="152" stroke="#808080" stroke-width="1" shape-rendering="crispEdges"/><line x1="21.5" y1="0" x2="21.5" y2="152" stroke="#808080" stroke-width="1" shape-rendering="crispEdges"/></svg>