<svg width="192.0" height="128.0" xmlns="http://www.w3.org/2000/svg"><rect x="0" y="0" width="192.0" height="128.0" fill="#ff3f2f"/><rect x="8.0" y="8.0" width="48.0" height="16.0" fill="#aaaaaa"/><text x="32.0" y="16.0" fill="#ffffff" style="font-family: monospace; font-size: 16.0px;" text-anchor="middle" dominant-baseline="central">AAAAAA</text><rect x="8.0" y="0.0" width="24.0" height="8.0" fill="#2f3fbf"/><rect x="40.0" y="0.0" width="8.0" height="8.0" fill="#000000"/><polygon points="56.0,8.0 64.0,8.0 56.0,24.0" fill="#ffffff"/><rect x="36.0" y="30.0" width="20.0" height="2.0" fill="#ffd966"/><rect x="32.0" y="24.0" width="4.0" height="8.0" fill="#ffd966"/><rect x="8.0" y="24.0" width="24.0" height="8.0" fill="#2f3fbf"/><rect x="0.0" y="12.0" width="8.0" height="8.0" fill="#000000"/><rect x="136.0" y="8.0" width="48.0" height="16.0" fill="#aaaaaa"/><text x="160.0" y="16.0" fill="#ffffff" style="font-family: monospace; font-size: 16.0px;" text-anchor="middle" dominant-baseline="central">AAAAAA</text><polygon points="136.0,0.0 136.0,8.0 160.0,8.0" fill="#ffffff"/><rect x="160.0" y="0.0" width="20.0" height="2.0" fill="#ffd966"/><rect x="180.0" y="0.0" width="4.0" height="8.0" fill="#ffd966"/><rect x="184.0" y="8.0" width="8.0" height="16.0" fill="#2f3fbf"/><rect x="168.0" y="24.0" width="8.0" height="8.0" fill="#000000"/><polygon points="136.0,24.0 160.0,24.0 160.0,32.0" fill="#ffffff"/><rect x="134.0" y="12.0" width="2.0" height="12.0" fill="#ffd966"/><rect x="128.0" y="8.0" width="8.0" height="4.0" fill="#ffd966"/><rect x="8.0" y="40.0" width="48.0" height="16.0" fill="#aaaaaa"/><text x="32.0" y="48.0" fill="#ffffff" style="font-family: monospace; font-size: 16.0px;" text-anchor="middle" dominant-baseline="central">AAAAAA</text><rect x="8.0" y="32.0" width="24.0" height="8.0" fill="#2f3fbf"/><rect x="32.0" y="32.0" width="24.0" height="8.0" fill="#000000"/><rect x="56.0" y="40.0" width="8.0" height="16.0" fill="#ffffff"/><rect x="32.0" y="56.0" width="24.0" height="8.0" fill="#ffd966"/><rect x="8.0" y="56.0" width="24.0" height="8.0" fill="#2f3fbf"/><rect x="0.0" y="40.0" width="8.0" height="16.0" fill="#000000"/><rect x="72.0" y="40.0" width="48.0" height="16.0" fill="#aaaaaa"/><text x="96.0" y="48.0" fill="#ffffff" style="font-family: monospace; font-size: 16.0px;" text-anchor="middle" dominant-baseline="central">AAAAAA</text><rect x="72.0" y="32.0" width="24.0" height="8.0" fill="#ffffff"/><rect x="104.0" y="32.0" width="8.0" height="8.0" fill="#ffd966"/><polygon points="120.0,40.0 128.0,40.0 120.0,56.0" fill="#2f3fbf"/><rect x="100.0" y="62.0" width="20.0" height="2.0" fill="#000000"/><rect x="96.0" y="56.0" width="4.0" height="8.0" fill="#000000"/><rect x="72.0" y="56.0" width="24.0" height="8.0" fill="#ffffff"/><rect x="64.0" y="44.0" width="8.0" height="8.0" fill="#ffd966"/><rect x="136.0" y="40.0" width="48.0" height="16.0" fill="#aaaaaa"/><text x="160.0" y="48.0" fill="#ffffff" style="font-family: monospace; font-size: 16.0px;" text-anchor="middle" dominant-baseline="central">AAAAAA</text><polygon points="136.0,32.0 136.0,40.0 160.0,40.0" fill="#2f3fbf"/><rect x="160.0" y="32.0" width="20.0" height="2.0" fill="#000000"/><rect x="180.0" y="32.0" width="4.0" height="8.0" fill="#000000"/><rect x="184.0" y="40.0" width="8.0" height="16.0" fill="#ffffff"/><rect x="168.0" y="56.0" width="8.0" height="8.0" fill="#ffd966"/><polygon points="136.0,56.0 160.0,56.0 160.0,64.0" fill="#2f3fbf"/><rect x="134.0" y="44.0" width="2.0" height="12.0" fill="#000000"/><rect x="128.0" y="40.0" width="8.0" height="4.0" fill="#000000"/><rect x="8.0" y="72.0" width="48.0" height="16.0" fill="#aaaaaa"/><text x="32.0" y="80.0" fill="#ffffff" style="font-family: monospace; font-size: 16.0px;" text-anchor="middle" dominant-baseline="central">AAAAAA</text><rect x="8.0" y="64.0" width="24.0" height="8.0" fill="#ffffff"/><rect x="32.0" y="64.0" width="24.0" height="8.0" fill="#ffd966"/><rect x="56.0" y="72.0" width="8.0" height="16.0" fill="#2f3fbf"/><rect x="32.0" y="88.0" width="24.0" height="8.0" fill="#000000"/><rect x="8.0" y="88.0" width="24.0" height="8.0" fill="#ffffff"/><rect x="0.0" y="72.0" width="8.0" height="16.0" fill="#ffd966"/><rect x="72.0" y="72.0" width="48.0" height="16.0" fill="#aaaaaa"/><text x="96.0" y="80.0" fill="#ffffff" style="font-family: monospace; font-size: 16.0px;" text-anchor="middle" dominant-baseline="central">AAAAAA</text><rect x="72.0" y="64.0" width="24.0" height="8.0" fill="#2f3fbf"/><rect x="104.0" y="64.0" width="8.0" height="8.0" fill="#000000"/><polygon points="120.0,72.0 128.0,72.0 120.0,88.0" fill="#ffffff"/><rect x="100.0" y="94.0" width="20.0" height="2.0" fill="#ffd966"/><rect x="96.0" y="88.0" width="4.0" height="8.0" fill="#ffd966"/><rect x="72.0" y="88.0" width="24.0" height="8.0" fill="#2f3fbf"/><rect x="64.0" y="76.0" width="8.0" height="8.0" fill="#000000"/><rect x="136.0" y="72.0" width="48.0" height="16.0" fill="#aaaaaa"/><text x="160.0" y="80.0" fill="#ffffff" style="font-family: monospace; font-size: 16.0px;" text-anchor="middle" dominant-baseline="central">AAAAAA</text><polygon points="136.0,64.0 136.0,72.0 160.0,72.0" fill="#ffffff"/><rect x="160.0" y="64.0" width="20.0" height="2.0" fill="#ffd966"/><rect x="180.0" y="64.0" width="4.0" height="8.0" fill="#ffd966"/><rect x="184.0" y="72.0" width="8.0" height="16.0" fill="#2f3fbf"/><rect x="168.0" y="88.0" width="8.0" height="8.0" fill="#000000"/><polygon points="136.0,88.0 160.0,88.0 160.0,96.0" fill="#ffffff"/><rect x="134.0" y="76.0" width="2.0" height="12.0" fill="#ffd966"/><rect x="128.0" y="72.0" width="8.0" height="4.0" fill="#ffd966"/><rect x="8.0" y="104.0" width="48.0" height="16.0" fill="#aaaaaa"/><text x="32.0" y="112.0" fill="#ffffff" style="font-family: monospace; font-size: 16.0px;" text-anchor="middle" dominant-baseline="central">AAAAAA</text><rect x="8.0" y="96.0" width="24.0" height="8.0" fill="#2f3fbf"/><rect x="32.0" y="96.0" width="24.0" height="8.0" fill="#000000"/><rect x="56.0" y="104.0" width="8.0" height="16.0" fill="#ffffff"/><rect x="32.0" y="120.0" width="24.0" height="8.0" fill="#ffd966"/><rect x="8.0" y="120.0" width="24.0" height="8.0" fill="#2f3fbf"/><rect x="0.0" y="104.0" width="8.0" height="16.0" fill="#000000"/><rect x="72.0" y="104.0" width="48.0" height="16.0" fill="#aaaaaa"/><text x="96.0" y="112.0" fill="#ffffff" style="font-family: monospace; font-size: 16.0px;" text-anchor="middle" dominant-baseline="central">AAAAAA</text><rect x="72.0" y="96.0" width="24.0" height="8.0" fill="#ffffff"/><rect x="104.0" y="96.0" width="8.0" height="8.0" fill="#ffd966"/><polygon points="120.0,104.0 128.0,104.0 120.0,120.0" fill="#2f3fbf"/><rect x="100.0" y="126.0" width="20.0" height="2.0" fill="#000000"/><rect x="96.0" y="120.0" width="4.0" height="8.0" fill="#000000"/><rect x="72.0" y="120.0" width="24.0" height="8.0" fill="#ffffff"/><rect x="64.0" y="108.0" width="8.0" height="8.0" fill="#ffd966"/><rect x="136.0" y="104.0" width="48.0" height="16.0" fill="#aaaaaa"/><text x="160.0" y="112.0" fill="#ffffff" style="font-family: monospace; font-size: 16.0px;" text-anchor="middle" dominant-baseline="central">AAAA</text><polygon points="136.0,96.0 136.0,104.0 160.0,104.0" fill="#2f3fbf"/><rect x="160.0" y="96.0" width="20.0" height="2.0" fill="#000000"/><rect x="180.0" y="96.0" width="4.0" height="8.0" fill="#000000"/><rect x="184.0" y="104.0" width="8.0" height="16.0" fill="#ffffff"/><rect x="168.0" y="120.0" width="8.0" height="8.0" fill="#ffd966"/><polygon points="136.0,120.0 160.0,120.0 160.0,128.0" fill="#2f3fbf"/><rect x="134.0" y="108.0" width="2.0" height="12.0" fill="#000000"/><rect x="128.0" y="104.0" width="8.0" height="4.0" fill="#000000"/><circle cx="2.0" cy="66.0" r="2.0" fill="#ffffff"/><circle cx="62.0" cy="98.0" r="2.0" fill="#ffd966"/><circle cx="190.0" cy="126.0" r="2.0" fill="#2f3fbf"/><circle cx="2.0" cy="62.0" r="2.0" fill="#000000"/></svg>