<svg width="128.0" height="64.0" xmlns="http://www.w3.org/2000/svg"><rect x="0" y="0" width="128.0" height="64.0" fill="#2f3fbf"/><rect x="72.0" y="8.0" width="48.0" height="16.0" fill="#9de675"/><text x="96.0" y="16.0" fill="#000000" style="font-family: monospace; font-size: 16.0px;" text-anchor="middle" dominant-baseline="central">dead</text><rect x="80.0" y="0.0" width="2.0" height="8.0" fill="#ffd966"/><rect x="86.0" y="0.0" width="2.0" height="8.0" fill="#ffd966"/><rect x="104.0" y="0.0" width="2.0" height="8.0" fill="#ffffff"/><rect x="110.0" y="0.0" width="2.0" height="8.0" fill="#ffffff"/><rect x="120.0" y="12.0" width="8.0" height="2.0" fill="#ffffff"/><rect x="120.0" y="18.0" width="8.0" height="2.0" fill="#ffffff"/><polygon points="96.0,24.0 120.0,24.0 120.0,32.0" fill="#ffd966"/><rect x="76.0" y="30.0" width="20.0" height="2.0" fill="#ffd966"/><rect x="72.0" y="24.0" width="4.0" height="8.0" fill="#ffd966"/><polygon points="64.0,24.0 72.0,8.0 72.0,24.0" fill="#ff3f2f"/><rect x="72.0" y="40.0" width="48.0" height="16.0" fill="#9fe76d"/><text x="96.0" y="48.0" fill="#000000" style="font-family: monospace; font-size: 16.0px;" text-anchor="middle" dominant-baseline="central">beef</text><rect x="72.0" y="32.0" width="20.0" height="2.0" fill="#ffd966"/><rect x="92.0" y="32.0" width="4.0" height="8.0" fill="#ffd966"/><polygon points="96.0,32.0 96.0,40.0 120.0,40.0" fill="#ff3f2f"/><rect x="120.0" y="44.0" width="8.0" height="2.0" fill="#000000"/><rect x="120.0" y="50.0" width="8.0" height="2.0" fill="#000000"/><rect x="100.0" y="62.0" width="20.0" height="2.0" fill="#000000"/><rect x="96.0" y="56.0" width="4.0" height="8.0" fill="#000000"/><rect x="76.0" y="62.0" width="20.0" height="2.0" fill="#000000"/><rect x="72.0" y="56.0" width="4.0" height="8.0" fill="#000000"/><rect x="64.0" y="44.0" width="8.0" height="2.0" fill="#ffd966"/><rect x="64.0" y="50.0" width="8.0" height="2.0" fill="#ffd966"/><circle cx="66.0" cy="2.0" r="2.0" fill="#ffffff"/><circle cx="126.0" cy="34.0" r="2.0" fill="#ffd966"/></svg>