<svg width="128.0" height="128.0" xmlns="http://www.w3.org/2000/svg"><rect x="0" y="0" width="128.0" height="128.0" fill="#2f3fbf"/><rect x="8.0" y="8.0" width="48.0" height="16.0" fill="#1e9de7"/><text x="32.0" y="16.0" fill="#ffffff" style="font-family: monospace; font-size: 16.0px;" text-anchor="middle" dominant-baseline="central">550e</text><rect x="16.0" y="0.0" width="8.0" height="8.0" fill="#ff3f2f"/><rect x="42.0" y="0.0" width="4.0" height="8.0" fill="#ffffff"/><rect x="35.0" y="2.0" width="18.0" height="2.0" fill="#ffffff"/><rect x="56.0" y="14.0" width="8.0" height="4.0" fill="#000000"/><rect x="59.0" y="11.0" width="2.0" height="10.0" fill="#000000"/><rect x="42.0" y="24.0" width="4.0" height="8.0" fill="#ff3f2f"/><rect x="35.0" y="28.0" width="18.0" height="2.0" fill="#ff3f2f"/><rect x="18.0" y="24.0" width="4.0" height="8.0" fill="#000000"/><rect x="11.0" y="28.0" width="18.0" height="2.0" fill="#000000"/><rect x="0.0" y="8.0" width="8.0" height="16.0" fill="#000000"/><rect x="72.0" y="8.0" width="48.0" height="16.0" fill="#348df3"/><text x="96.0" y="16.0" fill="#ffffff" style="font-family: monospace; font-size: 16.0px;" text-anchor="middle" dominant-baseline="central">8400</text><rect x="80.0" y="0.0" width="8.0" height="8.0" fill="#ff3f2f"/><rect x="96.0" y="0.0" width="24.0" height="8.0" fill="#ffffff"/><rect x="120.0" y="14.0" width="8.0" height="4.0" fill="#ffd966"/><rect x="123.0" y="11.0" width="2.0" height="10.0" fill="#ffd966"/><polygon points="96.0,24.0 104.0,24.0 96.0,32.0" fill="#ffd966"/><polygon points="112.0,32.0 120.0,24.0 120.0,32.0" fill="#ffd966"/><rect x="72.0" y="24.0" width="24.0" height="8.0" fill="#ffd966"/><rect x="64.0" y="14.0" width="8.0" height="4.0" fill="#ffffff"/><rect x="67.0" y="11.0" width="2.0" height="10.0" fill="#ffffff"/><rect x="8.0" y="40.0" width="48.0" height="16.0" fill="#5b6f7b"/><text x="32.0" y="48.0" fill="#ffffff" style="font-family: monospace; font-size: 16.0px;" text-anchor="middle" dominant-baseline="central">e29b</text><polygon points="8.0,40.0 16.0,32.0 16.0,40.0" fill="#ffd966"/><polygon points="24.0,32.0 32.0,32.0 24.0,40.0" fill="#ffd966"/><rect x="32.0" y="32.0" width="24.0" height="8.0" fill="#ff3f2f"/><rect x="56.0" y="44.0" width="8.0" height="8.0" fill="#000000"/><polygon points="32.0,56.0 40.0,56.0 32.0,64.0" fill="#000000"/><polygon points="48.0,64.0 56.0,56.0 56.0,64.0" fill="#000000"/><polygon points="8.0,56.0 16.0,56.0 8.0,64.0" fill="#ffd966"/><polygon points="24.0,64.0 32.0,56.0 32.0,64.0" fill="#ffd966"/><rect x="0.0" y="40.0" width="8.0" height="16.0" fill="#ffffff"/><rect x="72.0" y="40.0" width="48.0" height="16.0" fill="#7857e3"/><text x="96.0" y="48.0" fill="#ffffff" style="font-family: monospace; font-size: 16.0px;" text-anchor="middle" dominant-baseline="central">41d4</text><rect x="72.0" y="32.0" width="24.0" height="8.0" fill="#ffffff"/><rect x="106.0" y="32.0" width="4.0" height="8.0" fill="#ff3f2f"/><rect x="99.0" y="34.0" width="18.0" height="2.0" fill="#ff3f2f"/><rect x="120.0" y="46.0" width="8.0" height="4.0" fill="#ffd966"/><rect x="123.0" y="43.0" width="2.0" height="10.0" fill="#ffd966"/><rect x="106.0" y="56.0" width="4.0" height="8.0" fill="#ff3f2f"/><rect x="99.0" y="60.0" width="18.0" height="2.0" fill="#ff3f2f"/><polygon points="72.0,56.0 80.0,56.0 72.0,64.0" fill="#000000"/><polygon points="88.0,64.0 96.0,56.0 96.0,64.0" fill="#000000"/><rect x="64.0" y="44.0" width="8.0" height="8.0" fill="#000000"/><rect x="8.0" y="72.0" width="48.0" height="16.0" fill="#7abd6b"/><text x="32.0" y="80.0" fill="#ffffff" style="font-family: monospace; font-size: 16.0px;" text-anchor="middle" dominant-baseline="central">a716</text><rect x="8.0" y="64.0" width="24.0" height="8.0" fill="#ffffff"/><polygon points="32.0,72.0 40.0,64.0 40.0,72.0" fill="#ffffff"/><polygon points="48.0,64.0 56.0,64.0 48.0,72.0" fill="#ffffff"/><rect x="56.0" y="78.0" width="8.0" height="4.0" fill="#ffd966"/><rect x="59.0" y="75.0" width="2.0" height="10.0" fill="#ffd966"/><rect x="42.0" y="88.0" width="4.0" height="8.0" fill="#ff3f2f"/><rect x="35.0" y="92.0" width="18.0" height="2.0" fill="#ff3f2f"/><rect x="8.0" y="88.0" width="24.0" height="8.0" fill="#ffd966"/><polygon points="0.0,72.0 8.0,72.0 8.0,80.0" fill="#ffd966"/><polygon points="0.0,80.0 0.0,88.0 8.0,88.0" fill="#ffd966"/><rect x="72.0" y="72.0" width="48.0" height="16.0" fill="#ba8ee3"/><text x="96.0" y="80.0" fill="#ffffff" style="font-family: monospace; font-size: 16.0px;" text-anchor="middle" dominant-baseline="central">4466</text><polygon points="72.0,72.0 80.0,64.0 80.0,72.0" fill="#ff3f2f"/><polygon points="88.0,64.0 96.0,64.0 88.0,72.0" fill="#ff3f2f"/><polygon points="96.0,72.0 104.0,64.0 104.0,72.0" fill="#ff3f2f"/><polygon points="112.0,64.0 120.0,64.0 112.0,72.0" fill="#ff3f2f"/><rect x="120.0" y="78.0" width="8.0" height="4.0" fill="#ffffff"/><rect x="123.0" y="75.0" width="2.0" height="10.0" fill="#ffffff"/><polygon points="96.0,88.0 104.0,88.0 96.0,96.0" fill="#000000"/><polygon points="112.0,96.0 120.0,88.0 120.0,96.0" fill="#000000"/><rect x="72.0" y="88.0" width="24.0" height="8.0" fill="#000000"/><rect x="64.0" y="78.0" width="8.0" height="4.0" fill="#000000"/><rect x="67.0" y="75.0" width="2.0" height="10.0" fill="#000000"/><rect x="8.0" y="104.0" width="48.0" height="16.0" fill="#389ee7"/><text x="32.0" y="112.0" fill="#ffffff" style="font-family: monospace; font-size: 16.0px;" text-anchor="middle" dominant-baseline="central">5544</text><polygon points="8.0,104.0 16.0,96.0 16.0,104.0" fill="#ffffff"/><polygon points="24.0,96.0 32.0,96.0 24.0,104.0" fill="#ffffff"/><rect x="40.0" y="96.0" width="8.0" height="8.0" fill="#ff3f2f"/><rect x="56.0" y="108.0" width="8.0" height="8.0" fill="#ffffff"/><rect x="40.0" y="120.0" width="8.0" height="8.0" fill="#ff3f2f"/><rect x="16.0" y="120.0" width="8.0" height="8.0" fill="#000000"/><polygon points="0.0,104.0 8.0,104.0 8.0,112.0" fill="#000000"/><polygon points="0.0,112.0 0.0,120.0 8.0,120.0" fill="#000000"/><rect x="72.0" y="104.0" width="48.0" height="16.0" fill="#354dd3"/><text x="96.0" y="112.0" fill="#ffffff" style="font-family: monospace; font-size: 16.0px;" text-anchor="middle" dominant-baseline="central">0001</text><rect x="82.0" y="96.0" width="4.0" height="8.0" fill="#000000"/><rect x="75.0" y="98.0" width="18.0" height="2.0" fill="#000000"/><polygon points="96.0,104.0 104.0,96.0 104.0,104.0" fill="#ffffff"/><polygon points="112.0,96.0 120.0,96.0 112.0,104.0" fill="#ffffff"/><rect x="120.0" y="108.0" width="8.0" height="8.0" fill="#ffd966"/><rect x="106.0" y="120.0" width="4.0" height="8.0" fill="#ffd966"/><rect x="99.0" y="124.0" width="18.0" height="2.0" fill="#ffd966"/><polygon points="72.0,120.0 80.0,120.0 72.0,128.0" fill="#ffd966"/><polygon points="88.0,128.0 96.0,120.0 96.0,128.0" fill="#ffd966"/><rect x="64.0" y="108.0" width="8.0" height="8.0" fill="#ff3f2f"/><circle cx="66.0" cy="2.0" r="2.0" fill="#ffffff"/><circle cx="126.0" cy="66.0" r="2.0" fill="#ffd966"/><circle cx="62.0" cy="62.0" r="2.0" fill="#ff3f2f"/><circle cx="66.0" cy="126.0" r="2.0" fill="#000000"/></svg>