<svg width="213.0" height="192.0" viewBox="0 0 213.0 192.0" xmlns="http://www.w3.org/2000/svg" data-entviz-version="v9" data-entviz-lib="0.9.1" data-input-bytes="43" data-cols="3" data-rows="4"><defs><clipPath id="grid-clip-c1107aca3ff3aaee-3x4"><rect x="27.0" y="26.0" width="180.0" height="160.0"/></clipPath></defs><rect x="0" y="0" width="213.0" height="192.0" fill="#ffffff"/><g data-channel="grid"><rect x="27.0" y="26.0" width="180.0" height="160.0" fill="#e7be00"/><g><rect x="33.0" y="26.0" width="6.0" height="10.0" fill="#ff3f2f"/><rect x="45.0" y="26.0" width="6.0" height="10.0" fill="#ff3f2f"/><rect x="51.0" y="26.0" width="6.0" height="10.0" fill="#ff3f2f"/><rect x="57.0" y="26.0" width="6.0" height="10.0" fill="#ff3f2f"/><rect x="63.0" y="26.0" width="6.0" height="10.0" fill="#ff3f2f"/><rect x="81.0" y="56.0" width="6.0" height="10.0" fill="#ff3f2f"/><rect x="57.0" y="56.0" width="6.0" height="10.0" fill="#ff3f2f"/><rect x="27.0" y="46.0" width="6.0" height="10.0" fill="#ff3f2f"/><rect x="27.0" y="36.0" width="6.0" height="10.0" fill="#ff3f2f"/><rect x="147.0" y="26.0" width="6.0" height="10.0" fill="#2f3fbf"/><rect x="153.0" y="26.0" width="6.0" height="10.0" fill="#2f3fbf"/><rect x="171.0" y="26.0" width="6.0" height="10.0" fill="#2f3fbf"/><rect x="177.0" y="26.0" width="6.0" height="10.0" fill="#2f3fbf"/><rect x="183.0" y="26.0" width="6.0" height="10.0" fill="#2f3fbf"/><rect x="189.0" y="26.0" width="6.0" height="10.0" fill="#2f3fbf"/><rect x="195.0" y="26.0" width="6.0" height="10.0" fill="#2f3fbf"/><rect x="201.0" y="26.0" width="6.0" height="10.0" fill="#2f3fbf"/><rect x="201.0" y="36.0" width="6.0" height="10.0" fill="#2f3fbf"/><rect x="201.0" y="46.0" width="6.0" height="10.0" fill="#2f3fbf"/><rect x="201.0" y="56.0" width="6.0" height="10.0" fill="#2f3fbf"/><rect x="195.0" y="56.0" width="6.0" height="10.0" fill="#2f3fbf"/><rect x="171.0" y="56.0" width="6.0" height="10.0" fill="#2f3fbf"/><rect x="159.0" y="56.0" width="6.0" height="10.0" fill="#2f3fbf"/><rect x="147.0" y="46.0" width="6.0" height="10.0" fill="#2f3fbf"/><rect x="147.0" y="36.0" width="6.0" height="10.0" fill="#2f3fbf"/><rect x="39.0" y="66.0" width="6.0" height="10.0" fill="#2f3fbf"/><rect x="45.0" y="66.0" width="6.0" height="10.0" fill="#2f3fbf"/><rect x="51.0" y="66.0" width="6.0" height="10.0" fill="#2f3fbf"/><rect x="57.0" y="66.0" width="6.0" height="10.0" fill="#2f3fbf"/><rect x="69.0" y="66.0" width="6.0" height="10.0" fill="#2f3fbf"/><rect x="81.0" y="66.0" width="6.0" height="10.0" fill="#2f3fbf"/><rect x="81.0" y="76.0" width="6.0" height="10.0" fill="#2f3fbf"/><rect x="81.0" y="86.0" width="6.0" height="10.0" fill="#2f3fbf"/><rect x="75.0" y="96.0" width="6.0" height="10.0" fill="#2f3fbf"/><rect x="69.0" y="96.0" width="6.0" height="10.0" fill="#2f3fbf"/><rect x="63.0" y="96.0" width="6.0" height="10.0" fill="#2f3fbf"/><rect x="51.0" y="96.0" width="6.0" height="10.0" fill="#2f3fbf"/><rect x="39.0" y="96.0" width="6.0" height="10.0" fill="#2f3fbf"/><rect x="27.0" y="96.0" width="6.0" height="10.0" fill="#2f3fbf"/><rect x="27.0" y="76.0" width="6.0" height="10.0" fill="#2f3fbf"/><rect x="87.0" y="66.0" width="6.0" height="10.0" fill="#2f3fbf"/><rect x="93.0" y="66.0" width="6.0" height="10.0" fill="#2f3fbf"/><rect x="117.0" y="66.0" width="6.0" height="10.0" fill="#2f3fbf"/><rect x="123.0" y="66.0" width="6.0" height="10.0" fill="#2f3fbf"/><rect x="141.0" y="66.0" width="6.0" height="10.0" fill="#2f3fbf"/><rect x="141.0" y="76.0" width="6.0" height="10.0" fill="#2f3fbf"/><rect x="135.0" y="96.0" width="6.0" height="10.0" fill="#2f3fbf"/><rect x="117.0" y="96.0" width="6.0" height="10.0" fill="#2f3fbf"/><rect x="99.0" y="96.0" width="6.0" height="10.0" fill="#2f3fbf"/><rect x="93.0" y="96.0" width="6.0" height="10.0" fill="#2f3fbf"/><rect x="87.0" y="86.0" width="6.0" height="10.0" fill="#2f3fbf"/><rect x="147.0" y="66.0" width="6.0" height="10.0" fill="#ffffff"/><rect x="153.0" y="66.0" width="6.0" height="10.0" fill="#ffffff"/><rect x="177.0" y="66.0" width="6.0" height="10.0" fill="#ffffff"/><rect x="189.0" y="66.0" width="6.0" height="10.0" fill="#ffffff"/><rect x="195.0" y="66.0" width="6.0" height="10.0" fill="#ffffff"/><rect x="201.0" y="66.0" width="6.0" height="10.0" fill="#ffffff"/><rect x="201.0" y="76.0" width="6.0" height="10.0" fill="#ffffff"/><rect x="201.0" y="86.0" width="6.0" height="10.0" fill="#ffffff"/><rect x="183.0" y="96.0" width="6.0" height="10.0" fill="#ffffff"/><rect x="165.0" y="96.0" width="6.0" height="10.0" fill="#ffffff"/><rect x="153.0" y="96.0" width="6.0" height="10.0" fill="#ffffff"/><rect x="147.0" y="96.0" width="6.0" height="10.0" fill="#ffffff"/><rect x="147.0" y="76.0" width="6.0" height="10.0" fill="#ffffff"/><rect x="87.0" y="106.0" width="6.0" height="10.0" fill="#2f3fbf"/><rect x="105.0" y="106.0" width="6.0" height="10.0" fill="#2f3fbf"/><rect x="129.0" y="106.0" width="6.0" height="10.0" fill="#2f3fbf"/><rect x="141.0" y="126.0" width="6.0" height="10.0" fill="#2f3fbf"/><rect x="141.0" y="136.0" width="6.0" height="10.0" fill="#2f3fbf"/><rect x="123.0" y="136.0" width="6.0" height="10.0" fill="#2f3fbf"/><rect x="111.0" y="136.0" width="6.0" height="10.0" fill="#2f3fbf"/><rect x="105.0" y="136.0" width="6.0" height="10.0" fill="#2f3fbf"/><rect x="99.0" y="136.0" width="6.0" height="10.0" fill="#2f3fbf"/><rect x="93.0" y="136.0" width="6.0" height="10.0" fill="#2f3fbf"/><rect x="87.0" y="136.0" width="6.0" height="10.0" fill="#2f3fbf"/><rect x="87.0" y="126.0" width="6.0" height="10.0" fill="#2f3fbf"/><rect x="87.0" y="116.0" width="6.0" height="10.0" fill="#2f3fbf"/><rect x="171.0" y="106.0" width="6.0" height="10.0" fill="#ffffff"/><rect x="177.0" y="106.0" width="6.0" height="10.0" fill="#ffffff"/><rect x="183.0" y="106.0" width="6.0" height="10.0" fill="#ffffff"/><rect x="189.0" y="106.0" width="6.0" height="10.0" fill="#ffffff"/><rect x="201.0" y="106.0" width="6.0" height="10.0" fill="#ffffff"/><rect x="201.0" y="116.0" width="6.0" height="10.0" fill="#ffffff"/><rect x="195.0" y="136.0" width="6.0" height="10.0" fill="#ffffff"/><rect x="189.0" y="136.0" width="6.0" height="10.0" fill="#ffffff"/><rect x="183.0" y="136.0" width="6.0" height="10.0" fill="#ffffff"/><rect x="165.0" y="136.0" width="6.0" height="10.0" fill="#ffffff"/><rect x="159.0" y="136.0" width="6.0" height="10.0" fill="#ffffff"/><rect x="153.0" y="136.0" width="6.0" height="10.0" fill="#ffffff"/><rect x="147.0" y="136.0" width="6.0" height="10.0" fill="#ffffff"/><rect x="147.0" y="126.0" width="6.0" height="10.0" fill="#ffffff"/><rect x="147.0" y="116.0" width="6.0" height="10.0" fill="#ffffff"/><rect x="27.0" y="146.0" width="6.0" height="10.0" fill="#ffffff"/><rect x="33.0" y="146.0" width="6.0" height="10.0" fill="#ffffff"/><rect x="39.0" y="146.0" width="6.0" height="10.0" fill="#ffffff"/><rect x="51.0" y="146.0" width="6.0" height="10.0" fill="#ffffff"/><rect x="57.0" y="146.0" width="6.0" height="10.0" fill="#ffffff"/><rect x="69.0" y="146.0" width="6.0" height="10.0" fill="#ffffff"/><rect x="75.0" y="146.0" width="6.0" height="10.0" fill="#ffffff"/><rect x="81.0" y="156.0" width="6.0" height="10.0" fill="#ffffff"/><rect x="81.0" y="176.0" width="6.0" height="10.0" fill="#ffffff"/><rect x="57.0" y="176.0" width="6.0" height="10.0" fill="#ffffff"/><rect x="51.0" y="176.0" width="6.0" height="10.0" fill="#ffffff"/><rect x="33.0" y="176.0" width="6.0" height="10.0" fill="#ffffff"/><rect x="27.0" y="166.0" width="6.0" height="10.0" fill="#ffffff"/><rect x="87.0" y="146.0" width="6.0" height="10.0" fill="#2f3fbf"/><rect x="99.0" y="146.0" width="6.0" height="10.0" fill="#2f3fbf"/><rect x="117.0" y="146.0" width="6.0" height="10.0" fill="#2f3fbf"/><rect x="123.0" y="146.0" width="6.0" height="10.0" fill="#2f3fbf"/><rect x="129.0" y="146.0" width="6.0" height="10.0" fill="#2f3fbf"/><rect x="135.0" y="146.0" width="6.0" height="10.0" fill="#2f3fbf"/><rect x="141.0" y="166.0" width="6.0" height="10.0" fill="#2f3fbf"/><rect x="141.0" y="176.0" width="6.0" height="10.0" fill="#2f3fbf"/><rect x="123.0" y="176.0" width="6.0" height="10.0" fill="#2f3fbf"/><rect x="117.0" y="176.0" width="6.0" height="10.0" fill="#2f3fbf"/><rect x="99.0" y="176.0" width="6.0" height="10.0" fill="#2f3fbf"/><rect x="147.0" y="146.0" width="6.0" height="10.0" fill="#2f3fbf"/><rect x="153.0" y="146.0" width="6.0" height="10.0" fill="#2f3fbf"/><rect x="165.0" y="146.0" width="6.0" height="10.0" fill="#2f3fbf"/><rect x="171.0" y="146.0" width="6.0" height="10.0" fill="#2f3fbf"/><rect x="195.0" y="146.0" width="6.0" height="10.0" fill="#2f3fbf"/><rect x="201.0" y="166.0" width="6.0" height="10.0" fill="#2f3fbf"/><rect x="195.0" y="176.0" width="6.0" height="10.0" fill="#2f3fbf"/><rect x="189.0" y="176.0" width="6.0" height="10.0" fill="#2f3fbf"/><rect x="183.0" y="176.0" width="6.0" height="10.0" fill="#2f3fbf"/><rect x="177.0" y="176.0" width="6.0" height="10.0" fill="#2f3fbf"/><rect x="165.0" y="176.0" width="6.0" height="10.0" fill="#2f3fbf"/><rect x="153.0" y="176.0" width="6.0" height="10.0" fill="#2f3fbf"/><rect x="147.0" y="176.0" width="6.0" height="10.0" fill="#2f3fbf"/><rect x="147.0" y="156.0" width="6.0" height="10.0" fill="#2f3fbf"/></g><g clip-path="url(#grid-clip-c1107aca3ff3aaee-3x4)" data-channel="ellipse" data-ellipse-anchor-x="147.0" data-ellipse-anchor-y="146.0" data-ellipse-rx="49.55404322555325" data-ellipse-ry="45.48110816591874" data-ellipse-rotation-deg="180.0"><ellipse cx="147.0" cy="146.0" rx="49.55404322555325" ry="45.48110816591874" transform="rotate(180.0 147.0 146.0)" fill="#000000" stroke="#000000" fill-opacity="0.2" stroke-opacity="0.3" stroke-width="2.0"/></g><g><g data-channel="cell" data-cell-index="0" data-cell-row="0" data-cell-col="0"><rect x="33.0" y="36.0" width="48.0" height="20.0" fill="#aadd05"/><text x="57.0" y="46.0" fill="#000000" style="font-family: &quot;JetBrains Mono&quot;, &quot;Menlo&quot;, &quot;Consolas&quot;, &quot;DejaVu Sans Mono&quot;, &quot;Liberation Mono&quot;, &quot;Roboto Mono&quot;, &quot;Noto Sans Mono&quot;, monospace; font-size: 16.0px;" text-anchor="middle" dominant-baseline="central">qhw6</text></g><g data-channel="cell" data-cell-index="1" data-cell-row="0" data-cell-col="1" data-cell-blank="true" data-cell-blank-map="true"><rect x="93.0" y="36.0" width="48.0" height="20.0" rx="10.0" ry="10.0" fill="#ffffff" stroke="#000000" stroke-width="1"/><circle cx="117.0" cy="53.5" r="3.5" fill="#1d4ed8" data-blank-map-min="3,1"/><path d="M 112.8,48.5 H 121.2 M 117.0,44.3 V 52.7" fill="none" stroke="#d62828" stroke-width="1.9250000000000003" stroke-linecap="butt" data-blank-map-max="2,1"/></g><g data-channel="cell" data-cell-index="2" data-cell-row="0" data-cell-col="2" data-cell-quartile="4"><rect x="153.0" y="36.0" width="48.0" height="20.0" fill="#662d6a"/><text x="177.0" y="46.0" fill="#ffffff" style="font-family: &quot;JetBrains Mono&quot;, &quot;Menlo&quot;, &quot;Consolas&quot;, &quot;DejaVu Sans Mono&quot;, &quot;Liberation Mono&quot;, &quot;Roboto Mono&quot;, &quot;Noto Sans Mono&quot;, monospace; font-size: 16.0px;" text-anchor="middle" dominant-baseline="central">dgkk</text><polygon points="153.0,56.0 153.0,46.0 163.0,56.0" fill="#ffffff"/></g><g data-channel="cell" data-cell-index="3" data-cell-row="1" data-cell-col="0"><rect x="33.0" y="76.0" width="48.0" height="20.0" fill="#5598a2"/><text x="57.0" y="86.0" fill="#000000" style="font-family: &quot;JetBrains Mono&quot;, &quot;Menlo&quot;, &quot;Consolas&quot;, &quot;DejaVu Sans Mono&quot;, &quot;Liberation Mono&quot;, &quot;Roboto Mono&quot;, &quot;Noto Sans Mono&quot;, monospace; font-size: 16.0px;" text-anchor="middle" dominant-baseline="central">52v9</text></g><g data-channel="cell" data-cell-index="4" data-cell-row="1" data-cell-col="1" data-cell-quartile="3"><rect x="93.0" y="76.0" width="48.0" height="20.0" fill="#cc05c8"/><text x="117.0" y="86.0" fill="#ffffff" style="font-family: &quot;JetBrains Mono&quot;, &quot;Menlo&quot;, &quot;Consolas&quot;, &quot;DejaVu Sans Mono&quot;, &quot;Liberation Mono&quot;, &quot;Roboto Mono&quot;, &quot;Noto Sans Mono&quot;, monospace; font-size: 16.0px;" text-anchor="middle" dominant-baseline="central">eqzu</text><polygon points="141.0,96.0 141.0,86.0 131.0,96.0" fill="#ffffff"/></g><g data-channel="cell" data-cell-index="5" data-cell-row="1" data-cell-col="2"><rect x="153.0" y="76.0" width="48.0" height="20.0" fill="#eeb9b4"/><text x="177.0" y="86.0" fill="#000000" style="font-family: &quot;JetBrains Mono&quot;, &quot;Menlo&quot;, &quot;Consolas&quot;, &quot;DejaVu Sans Mono&quot;, &quot;Liberation Mono&quot;, &quot;Roboto Mono&quot;, &quot;Noto Sans Mono&quot;, monospace; font-size: 16.0px;" text-anchor="middle" dominant-baseline="central">kju7</text></g><g data-channel="cell" data-cell-index="6" data-cell-row="2" data-cell-col="0" data-cell-blank="true"><rect x="33.0" y="116.0" width="48.0" height="20.0" rx="10.0" ry="10.0" fill="none" stroke="#000000" stroke-width="1"/></g><g data-channel="cell" data-cell-index="7" data-cell-row="2" data-cell-col="1" data-cell-quartile="2"><rect x="93.0" y="116.0" width="48.0" height="20.0" fill="#11c060"/><text x="117.0" y="126.0" fill="#000000" style="font-family: &quot;JetBrains Mono&quot;, &quot;Menlo&quot;, &quot;Consolas&quot;, &quot;DejaVu Sans Mono&quot;, &quot;Liberation Mono&quot;, &quot;Roboto Mono&quot;, &quot;Noto Sans Mono&quot;, monospace; font-size: 16.0px;" text-anchor="middle" dominant-baseline="central">vrqp</text><polygon points="141.0,116.0 131.0,116.0 141.0,126.0" fill="#000000"/></g><g data-channel="cell" data-cell-index="8" data-cell-row="2" data-cell-col="2"><rect x="153.0" y="116.0" width="48.0" height="20.0" fill="#bbe473"/><text x="177.0" y="126.0" fill="#000000" style="font-family: &quot;JetBrains Mono&quot;, &quot;Menlo&quot;, &quot;Consolas&quot;, &quot;DejaVu Sans Mono&quot;, &quot;Liberation Mono&quot;, &quot;Roboto Mono&quot;, &quot;Noto Sans Mono&quot;, monospace; font-size: 16.0px;" text-anchor="middle" dominant-baseline="central">w0jt</text></g><g data-channel="cell" data-cell-index="9" data-cell-row="3" data-cell-col="0" data-cell-quartile="1"><rect x="33.0" y="156.0" width="48.0" height="20.0" fill="#ffbfab"/><text x="57.0" y="166.0" fill="#000000" style="font-family: &quot;JetBrains Mono&quot;, &quot;Menlo&quot;, &quot;Consolas&quot;, &quot;DejaVu Sans Mono&quot;, &quot;Liberation Mono&quot;, &quot;Roboto Mono&quot;, &quot;Noto Sans Mono&quot;, monospace; font-size: 16.0px;" text-anchor="middle" dominant-baseline="central">4wll</text><polygon points="33.0,156.0 43.0,156.0 33.0,166.0" fill="#000000"/></g><g data-channel="cell" data-cell-index="10" data-cell-row="3" data-cell-col="1"><rect x="93.0" y="156.0" width="48.0" height="20.0" fill="#3375d6"/><text x="117.0" y="166.0" fill="#ffffff" style="font-family: &quot;JetBrains Mono&quot;, &quot;Menlo&quot;, &quot;Consolas&quot;, &quot;DejaVu Sans Mono&quot;, &quot;Liberation Mono&quot;, &quot;Roboto Mono&quot;, &quot;Noto Sans Mono&quot;, monospace; font-size: 16.0px;" text-anchor="middle" dominant-baseline="central">6e6n</text></g><g data-channel="cell" data-cell-index="11" data-cell-row="3" data-cell-col="2"><rect x="153.0" y="156.0" width="48.0" height="20.0" fill="#1428a8"/><text x="177.0" y="166.0" fill="#ffffff" style="font-family: &quot;JetBrains Mono&quot;, &quot;Menlo&quot;, &quot;Consolas&quot;, &quot;DejaVu Sans Mono&quot;, &quot;Liberation Mono&quot;, &quot;Roboto Mono&quot;, &quot;Noto Sans Mono&quot;, monospace; font-size: 16.0px;" text-anchor="middle" dominant-baseline="central">4q5</text></g></g></g><g data-channel="color-bar" data-bar-slots="15" data-bar-marker-left="9" data-bar-marker-right="7"><g data-color-bar-rank="0" data-color-bar-band="R"><rect x="1" y="1" width="20.0" height="63.26409502791558" fill="#ff3f2f"/><text x="11.0" y="60.74409502791557" fill="#000000" style="font-family: &quot;JetBrains Mono&quot;, &quot;Menlo&quot;, &quot;Consolas&quot;, &quot;DejaVu Sans Mono&quot;, &quot;Liberation Mono&quot;, &quot;Roboto Mono&quot;, &quot;Noto Sans Mono&quot;, monospace; font-size: 16.0px;" text-anchor="middle" data-color-bar-letter="true">r</text></g><g data-color-bar-rank="1" data-color-bar-band="W"><rect x="1" y="64.26409502791557" width="20.0" height="19.265421467373095" fill="#ffffff"/><text x="11.0" y="80.00951649528868" fill="#000000" style="font-family: &quot;JetBrains Mono&quot;, &quot;Menlo&quot;, &quot;Consolas&quot;, &quot;DejaVu Sans Mono&quot;, &quot;Liberation Mono&quot;, &quot;Roboto Mono&quot;, &quot;Noto Sans Mono&quot;, monospace; font-size: 16.0px;" text-anchor="middle" data-color-bar-letter="true">w</text></g><g data-color-bar-rank="2" data-color-bar-band="K"><rect x="1" y="83.52951649528868" width="20.0" height="63.26409502791558" fill="#000000"/><text x="11.0" y="143.27361152320424" fill="#ffffff" style="font-family: &quot;JetBrains Mono&quot;, &quot;Menlo&quot;, &quot;Consolas&quot;, &quot;DejaVu Sans Mono&quot;, &quot;Liberation Mono&quot;, &quot;Roboto Mono&quot;, &quot;Noto Sans Mono&quot;, monospace; font-size: 16.0px;" text-anchor="middle" data-color-bar-letter="true">k</text></g><g data-color-bar-rank="3" data-color-bar-band="B"><rect x="1" y="146.79361152320425" width="20.0" height="44.20638847679575" fill="#2f3fbf"/><text x="11.0" y="187.48" fill="#ffffff" style="font-family: &quot;JetBrains Mono&quot;, &quot;Menlo&quot;, &quot;Consolas&quot;, &quot;DejaVu Sans Mono&quot;, &quot;Liberation Mono&quot;, &quot;Roboto Mono&quot;, &quot;Noto Sans Mono&quot;, monospace; font-size: 16.0px;" text-anchor="middle" data-color-bar-letter="true">b</text></g><circle cx="5.6000000000000005" cy="121.33333333333333" r="3.4000000000000004" fill="#ffffff" stroke="#000000" stroke-width="0.75" data-bar-marker="left"/><circle cx="16.4" cy="96.0" r="3.4000000000000004" fill="#ffffff" stroke="#000000" stroke-width="0.75" data-bar-marker="right"/></g><g data-channel="label-top"><text x="27.0" y="16.0" fill="#666666" style="font-family: &quot;JetBrains Mono&quot;, &quot;Menlo&quot;, &quot;Consolas&quot;, &quot;DejaVu Sans Mono&quot;, &quot;Liberation Mono&quot;, &quot;Roboto Mono&quot;, &quot;Noto Sans Mono&quot;, monospace; font-size: 12.0px;" dominant-baseline="central">LTC: ltc1...</text></g><line x1="0" y1="0.5" x2="213.0" y2="0.5" stroke="#808080" stroke-width="1" shape-rendering="crispEdges"/><line x1="212.5" y1="0" x2="212.5" y2="192.0" stroke="#808080" stroke-width="1" shape-rendering="crispEdges"/><line x1="0" y1="191.5" x2="213.0" y2="191.5" stroke="#808080" stroke-width="1" shape-rendering="crispEdges"/><line x1="0.5" y1="0" x2="0.5" y2="192.0" stroke="#808080" stroke-width="1" shape-rendering="crispEdges"/><line x1="21.5" y1="0" x2="21.5" y2="192.0" stroke="#808080" stroke-width="1" shape-rendering="crispEdges"/></svg>