<svg width="213.0" height="172.0" viewBox="0 0 213.0 172.0" xmlns="http://www.w3.org/2000/svg" data-entviz-version="v10" data-entviz-lib="0.10.0" data-input-bytes="40" data-cols="3" data-rows="3"><defs><clipPath id="grid-clip-0f0858a203721468-3x3"><rect x="27.0" y="26.0" width="180.0" height="120.0"/></clipPath></defs><rect x="0" y="0" width="213.0" height="172.0" fill="#ffffff"/><g data-channel="grid"><rect x="27.0" y="26.0" width="180.0" height="120.0" fill="#ffffff"/><g><rect x="105.0" y="26.0" width="6.0" height="10.0" fill="#e7be00"/><rect x="111.0" y="26.0" width="6.0" height="10.0" fill="#e7be00"/><rect x="123.0" y="26.0" width="6.0" height="10.0" fill="#e7be00"/><rect x="141.0" y="46.0" width="6.0" height="10.0" fill="#e7be00"/><rect x="117.0" y="56.0" width="6.0" height="10.0" fill="#e7be00"/><rect x="111.0" y="56.0" width="6.0" height="10.0" fill="#e7be00"/><rect x="105.0" y="56.0" width="6.0" height="10.0" fill="#e7be00"/><rect x="99.0" y="56.0" width="6.0" height="10.0" fill="#e7be00"/><rect x="153.0" y="26.0" width="6.0" height="10.0" fill="#ff3f2f"/><rect x="171.0" y="26.0" width="6.0" height="10.0" fill="#ff3f2f"/><rect x="177.0" y="26.0" width="6.0" height="10.0" fill="#ff3f2f"/><rect x="183.0" y="26.0" width="6.0" height="10.0" fill="#ff3f2f"/><rect x="195.0" y="26.0" width="6.0" height="10.0" fill="#ff3f2f"/><rect x="201.0" y="26.0" width="6.0" height="10.0" fill="#ff3f2f"/><rect x="171.0" y="56.0" width="6.0" height="10.0" fill="#ff3f2f"/><rect x="147.0" y="56.0" width="6.0" height="10.0" fill="#ff3f2f"/><rect x="147.0" y="36.0" width="6.0" height="10.0" fill="#ff3f2f"/><rect x="33.0" y="66.0" width="6.0" height="10.0" fill="#2f3fbf"/><rect x="39.0" y="66.0" width="6.0" height="10.0" fill="#2f3fbf"/><rect x="51.0" y="66.0" width="6.0" height="10.0" fill="#2f3fbf"/><rect x="57.0" y="66.0" width="6.0" height="10.0" fill="#2f3fbf"/><rect x="69.0" y="66.0" width="6.0" height="10.0" fill="#2f3fbf"/><rect x="81.0" y="86.0" width="6.0" height="10.0" fill="#2f3fbf"/><rect x="75.0" y="96.0" width="6.0" height="10.0" fill="#2f3fbf"/><rect x="69.0" y="96.0" width="6.0" height="10.0" fill="#2f3fbf"/><rect x="45.0" y="96.0" width="6.0" height="10.0" fill="#2f3fbf"/><rect x="33.0" y="96.0" width="6.0" height="10.0" fill="#2f3fbf"/><rect x="87.0" y="66.0" width="6.0" height="10.0" fill="#e7be00"/><rect x="93.0" y="66.0" width="6.0" height="10.0" fill="#e7be00"/><rect x="99.0" y="66.0" width="6.0" height="10.0" fill="#e7be00"/><rect x="111.0" y="66.0" width="6.0" height="10.0" fill="#e7be00"/><rect x="135.0" y="96.0" width="6.0" height="10.0" fill="#e7be00"/><rect x="123.0" y="96.0" width="6.0" height="10.0" fill="#e7be00"/><rect x="117.0" y="96.0" width="6.0" height="10.0" fill="#e7be00"/><rect x="99.0" y="96.0" width="6.0" height="10.0" fill="#e7be00"/><rect x="93.0" y="96.0" width="6.0" height="10.0" fill="#e7be00"/><rect x="87.0" y="86.0" width="6.0" height="10.0" fill="#e7be00"/><rect x="87.0" y="76.0" width="6.0" height="10.0" fill="#e7be00"/><rect x="147.0" y="66.0" width="6.0" height="10.0" fill="#e7be00"/><rect x="183.0" y="66.0" width="6.0" height="10.0" fill="#e7be00"/><rect x="201.0" y="66.0" width="6.0" height="10.0" fill="#e7be00"/><rect x="201.0" y="76.0" width="6.0" height="10.0" fill="#e7be00"/><rect x="201.0" y="86.0" width="6.0" height="10.0" fill="#e7be00"/><rect x="201.0" y="96.0" width="6.0" height="10.0" fill="#e7be00"/><rect x="189.0" y="96.0" width="6.0" height="10.0" fill="#e7be00"/><rect x="171.0" y="96.0" width="6.0" height="10.0" fill="#e7be00"/><rect x="159.0" y="96.0" width="6.0" height="10.0" fill="#e7be00"/><rect x="45.0" y="106.0" width="6.0" height="10.0" fill="#e7be00"/><rect x="69.0" y="106.0" width="6.0" height="10.0" fill="#e7be00"/><rect x="81.0" y="116.0" width="6.0" height="10.0" fill="#e7be00"/><rect x="81.0" y="126.0" width="6.0" height="10.0" fill="#e7be00"/><rect x="81.0" y="136.0" width="6.0" height="10.0" fill="#e7be00"/><rect x="69.0" y="136.0" width="6.0" height="10.0" fill="#e7be00"/><rect x="45.0" y="136.0" width="6.0" height="10.0" fill="#e7be00"/><rect x="147.0" y="106.0" width="6.0" height="10.0" fill="#e7be00"/><rect x="153.0" y="106.0" width="6.0" height="10.0" fill="#e7be00"/><rect x="159.0" y="106.0" width="6.0" height="10.0" fill="#e7be00"/><rect x="165.0" y="106.0" width="6.0" height="10.0" fill="#e7be00"/><rect x="189.0" y="106.0" width="6.0" height="10.0" fill="#e7be00"/><rect x="201.0" y="126.0" width="6.0" height="10.0" fill="#e7be00"/><rect x="201.0" y="136.0" width="6.0" height="10.0" fill="#e7be00"/><rect x="147.0" y="126.0" width="6.0" height="10.0" fill="#e7be00"/><rect x="147.0" y="116.0" width="6.0" height="10.0" fill="#e7be00"/></g><g clip-path="url(#grid-clip-0f0858a203721468-3x3)" data-channel="ellipse" data-ellipse-anchor-x="27.0" data-ellipse-anchor-y="66.0" data-ellipse-rx="81.1545882867999" data-ellipse-ry="104.79184701111055" data-ellipse-rotation-deg="0.0"><ellipse cx="27.0" cy="66.0" rx="81.1545882867999" ry="104.79184701111055" transform="rotate(0.0 27.0 66.0)" fill="#000000" stroke="#000000" fill-opacity="0.2" stroke-opacity="0.3" stroke-width="2.0"/></g><g><g data-channel="cell" data-cell-index="0" data-cell-row="0" data-cell-col="0" data-cell-blank="true" data-cell-blank-map="true"><rect x="33.0" y="36.0" width="48.0" height="20.0" rx="10.0" ry="10.0" fill="#e7be00" stroke="#000000" stroke-width="1"/><circle cx="41.0" cy="52.66666666666667" r="3.5" fill="#1d4ed8" data-blank-map-min="2,0"/><path d="M 52.8,46.0 H 61.2 M 57.0,41.8 V 50.2" fill="none" stroke="#d62828" stroke-width="1.9250000000000003" stroke-linecap="butt" data-blank-map-max="1,1"/></g><g data-channel="cell" data-cell-index="1" data-cell-row="0" data-cell-col="1"><rect x="93.0" y="36.0" width="48.0" height="20.0" fill="#f29c30"/><text x="117.0" y="46.0" fill="#000000" style="font-family: &quot;JetBrains Mono&quot;, &quot;Menlo&quot;, &quot;Consolas&quot;, &quot;DejaVu Sans Mono&quot;, &quot;Liberation Mono&quot;, &quot;Roboto Mono&quot;, &quot;Noto Sans Mono&quot;, monospace; font-size: 12.0px;" text-anchor="middle" dominant-baseline="central">309cf2</text></g><g data-channel="cell" data-cell-index="2" data-cell-row="0" data-cell-col="2" data-cell-quartile="4"><rect x="153.0" y="36.0" width="48.0" height="20.0" fill="#e74e67"/><text x="177.0" y="46.0" fill="#000000" style="font-family: &quot;JetBrains Mono&quot;, &quot;Menlo&quot;, &quot;Consolas&quot;, &quot;DejaVu Sans Mono&quot;, &quot;Liberation Mono&quot;, &quot;Roboto Mono&quot;, &quot;Noto Sans Mono&quot;, monospace; font-size: 12.0px;" text-anchor="middle" dominant-baseline="central">674ee7</text><polygon points="153.0,56.0 153.0,46.0 163.0,56.0" fill="#000000"/></g><g data-channel="cell" data-cell-index="3" data-cell-row="1" data-cell-col="0" data-cell-quartile="1"><rect x="33.0" y="76.0" width="48.0" height="20.0" fill="#9974a0"/><text x="57.0" y="86.0" fill="#000000" style="font-family: &quot;JetBrains Mono&quot;, &quot;Menlo&quot;, &quot;Consolas&quot;, &quot;DejaVu Sans Mono&quot;, &quot;Liberation Mono&quot;, &quot;Roboto Mono&quot;, &quot;Noto Sans Mono&quot;, monospace; font-size: 12.0px;" text-anchor="middle" dominant-baseline="central">a07499</text><polygon points="33.0,76.0 43.0,76.0 33.0,86.0" fill="#000000"/></g><g data-channel="cell" data-cell-index="4" data-cell-row="1" data-cell-col="1" data-cell-quartile="3"><rect x="93.0" y="76.0" width="48.0" height="20.0" fill="#82cf78"/><text x="117.0" y="86.0" fill="#000000" style="font-family: &quot;JetBrains Mono&quot;, &quot;Menlo&quot;, &quot;Consolas&quot;, &quot;DejaVu Sans Mono&quot;, &quot;Liberation Mono&quot;, &quot;Roboto Mono&quot;, &quot;Noto Sans Mono&quot;, monospace; font-size: 12.0px;" text-anchor="middle" dominant-baseline="central">78cf82</text><polygon points="141.0,96.0 141.0,86.0 131.0,96.0" fill="#000000"/></g><g data-channel="cell" data-cell-index="5" data-cell-row="1" data-cell-col="2"><rect x="153.0" y="76.0" width="48.0" height="20.0" fill="#91ab65"/><text x="177.0" y="86.0" fill="#000000" style="font-family: &quot;JetBrains Mono&quot;, &quot;Menlo&quot;, &quot;Consolas&quot;, &quot;DejaVu Sans Mono&quot;, &quot;Liberation Mono&quot;, &quot;Roboto Mono&quot;, &quot;Noto Sans Mono&quot;, monospace; font-size: 12.0px;" text-anchor="middle" dominant-baseline="central">65ab91</text></g><g data-channel="cell" data-cell-index="6" data-cell-row="2" data-cell-col="0" data-cell-quartile="2"><rect x="33.0" y="116.0" width="48.0" height="20.0" fill="#ea0aa6"/><text x="57.0" y="126.0" fill="#000000" style="font-family: &quot;JetBrains Mono&quot;, &quot;Menlo&quot;, &quot;Consolas&quot;, &quot;DejaVu Sans Mono&quot;, &quot;Liberation Mono&quot;, &quot;Roboto Mono&quot;, &quot;Noto Sans Mono&quot;, monospace; font-size: 12.0px;" text-anchor="middle" dominant-baseline="central">a60aea</text><polygon points="81.0,116.0 71.0,116.0 81.0,126.0" fill="#000000"/></g><g data-channel="cell" data-cell-index="7" data-cell-row="2" data-cell-col="1" data-cell-blank="true"><rect x="93.0" y="116.0" width="48.0" height="20.0" rx="10.0" ry="10.0" fill="#000000" stroke="#000000" stroke-width="1"/></g><g data-channel="cell" data-cell-index="8" data-cell-row="2" data-cell-col="2"><rect x="153.0" y="116.0" width="48.0" height="20.0" fill="#7d7d0f"/><text x="177.0" y="126.0" fill="#ffffff" style="font-family: &quot;JetBrains Mono&quot;, &quot;Menlo&quot;, &quot;Consolas&quot;, &quot;DejaVu Sans Mono&quot;, &quot;Liberation Mono&quot;, &quot;Roboto Mono&quot;, &quot;Noto Sans Mono&quot;, monospace; font-size: 12.0px;" text-anchor="middle" dominant-baseline="central">0f7d</text></g></g></g><g data-channel="color-bar" data-bar-slots="14" data-bar-marker-left="12" data-bar-marker-right="2"><g data-color-bar-rank="0" data-color-bar-band="K"><rect x="1" y="1" width="20.0" height="42.10000555468082" fill="#000000"/><text x="11.0" y="40.46000555468082" fill="#ffffff" style="font-family: &quot;JetBrains Mono&quot;, &quot;Menlo&quot;, &quot;Consolas&quot;, &quot;DejaVu Sans Mono&quot;, &quot;Liberation Mono&quot;, &quot;Roboto Mono&quot;, &quot;Noto Sans Mono&quot;, monospace; font-size: 12.0px;" text-anchor="middle" data-color-bar-letter="true">k</text></g><g data-color-bar-rank="1" data-color-bar-band="G"><rect x="1" y="43.10000555468082" width="20.0" height="74.02199403017987" fill="#e7be00"/><text x="11.0" y="114.48199958486069" fill="#000000" style="font-family: &quot;JetBrains Mono&quot;, &quot;Menlo&quot;, &quot;Consolas&quot;, &quot;DejaVu Sans Mono&quot;, &quot;Liberation Mono&quot;, &quot;Roboto Mono&quot;, &quot;Noto Sans Mono&quot;, monospace; font-size: 12.0px;" text-anchor="middle" data-color-bar-letter="true">g</text></g><g data-color-bar-rank="2" data-color-bar-band="B"><rect x="1" y="117.12199958486069" width="20.0" height="42.10000555468082" fill="#2f3fbf"/><text x="11.0" y="156.58200513954154" fill="#ffffff" style="font-family: &quot;JetBrains Mono&quot;, &quot;Menlo&quot;, &quot;Consolas&quot;, &quot;DejaVu Sans Mono&quot;, &quot;Liberation Mono&quot;, &quot;Roboto Mono&quot;, &quot;Noto Sans Mono&quot;, monospace; font-size: 12.0px;" text-anchor="middle" data-color-bar-letter="true">b</text></g><g data-color-bar-rank="3" data-color-bar-band="R"><rect x="1" y="159.22200513954152" width="20.0" height="11.777994860458477" fill="#ff3f2f"/><text x="11.0" y="168.36" fill="#000000" style="font-family: &quot;JetBrains Mono&quot;, &quot;Menlo&quot;, &quot;Consolas&quot;, &quot;DejaVu Sans Mono&quot;, &quot;Liberation Mono&quot;, &quot;Roboto Mono&quot;, &quot;Noto Sans Mono&quot;, monospace; font-size: 12.0px;" text-anchor="middle" data-color-bar-letter="true">r</text></g><circle cx="5.6000000000000005" cy="152.78571428571428" r="3.4000000000000004" fill="#ffffff" stroke="#000000" stroke-width="0.75" data-bar-marker="left"/><circle cx="16.4" cy="31.357142857142854" r="3.4000000000000004" fill="#ffffff" stroke="#000000" stroke-width="0.75" data-bar-marker="right"/></g><g data-channel="label-top"><text x="27.0" y="16.0" fill="#666666" style="font-family: &quot;JetBrains Mono&quot;, &quot;Menlo&quot;, &quot;Consolas&quot;, &quot;DejaVu Sans Mono&quot;, &quot;Liberation Mono&quot;, &quot;Roboto Mono&quot;, &quot;Noto Sans Mono&quot;, monospace; font-size: 12.0px;" dominant-baseline="central">hex(40):</text></g><g data-channel="label-bottom"><text x="207.0" y="156.0" fill="#666666" style="font-family: &quot;JetBrains Mono&quot;, &quot;Menlo&quot;, &quot;Consolas&quot;, &quot;DejaVu Sans Mono&quot;, &quot;Liberation Mono&quot;, &quot;Roboto Mono&quot;, &quot;Noto Sans Mono&quot;, monospace; font-size: 12.0px;" text-anchor="end" dominant-baseline="central"><tspan fill="#808080" data-user-note="git">(git)</tspan></text></g><line x1="0" y1="0.5" x2="213.0" y2="0.5" stroke="#808080" stroke-width="1" shape-rendering="crispEdges"/><line x1="212.5" y1="0" x2="212.5" y2="172.0" stroke="#808080" stroke-width="1" shape-rendering="crispEdges"/><line x1="0" y1="171.5" x2="213.0" y2="171.5" stroke="#808080" stroke-width="1" shape-rendering="crispEdges"/><line x1="0.5" y1="0" x2="0.5" y2="172.0" stroke="#808080" stroke-width="1" shape-rendering="crispEdges"/><line x1="21.5" y1="0" x2="21.5" y2="172.0" stroke="#808080" stroke-width="1" shape-rendering="crispEdges"/></svg>