<svg width="155" height="174" viewBox="0 0 155 174" xmlns="http://www.w3.org/2000/svg" font-family="&quot;JetBrains Mono&quot;, &quot;Menlo&quot;, &quot;Consolas&quot;, &quot;DejaVu Sans Mono&quot;, &quot;Liberation Mono&quot;, &quot;Roboto Mono&quot;, &quot;Noto Sans Mono&quot;, monospace" data-entviz-version="v14" data-entviz-lib="0.14.0" data-input-bytes="20" data-cols="2" data-rows="3" data-encoding="base36" data-scheme="lei" data-role="identifier" data-size-basis="decoded" data-entropy-type="lei" data-size-bits="96" data-qualifiers="{}" data-parts="[{&quot;text&quot;:&quot;5493001KJTIIGC8Y1R&quot;,&quot;bind&quot;:&quot;core&quot;},{&quot;text&quot;:&quot;12&quot;,&quot;bind&quot;:&quot;none&quot;}]"><defs><clipPath id="grid-clip-f25bd400635b615d-2x3"><rect x="28" y="27" width="120" height="120"/></clipPath></defs><rect x="1" y="1" width="153" height="172" fill="#ffffff"/><g data-channel="grid"><rect x="28" y="27" width="120" height="120" fill="#ffffff"/><g><path fill="#e7be00" d="M40 27h6v10h-6zM52 27h6v10h-6zM64 27h6v10h-6zM70 27h6v10h-6zM76 27h6v10h-6zM82 27h6v10h-6zM82 47h6v10h-6zM82 57h6v10h-6zM70 57h6v10h-6zM52 57h6v10h-6zM34 57h6v10h-6zM28 57h6v10h-6zM28 47h6v10h-6zM28 37h6v10h-6z"/><path fill="#000000" d="M88 27h6v10h-6zM94 27h6v10h-6zM106 27h6v10h-6zM112 27h6v10h-6zM124 27h6v10h-6zM136 27h6v10h-6zM142 27h6v10h-6zM136 57h6v10h-6zM130 57h6v10h-6z"/><path fill="#e7be00" d="M40 67h6v10h-6zM46 67h6v10h-6zM76 67h6v10h-6zM82 77h6v10h-6zM82 87h6v10h-6zM82 97h6v10h-6zM70 97h6v10h-6zM58 97h6v10h-6zM28 97h6v10h-6zM28 87h6v10h-6z"/><path fill="#e7be00" d="M52 107h6v10h-6zM64 107h6v10h-6zM82 117h6v10h-6zM82 127h6v10h-6zM76 137h6v10h-6zM70 137h6v10h-6zM64 137h6v10h-6zM40 137h6v10h-6zM28 137h6v10h-6z"/><path fill="#e7be00" d="M100 107h6v10h-6zM106 107h6v10h-6zM118 107h6v10h-6zM124 107h6v10h-6zM130 107h6v10h-6zM142 107h6v10h-6zM142 117h6v10h-6zM130 137h6v10h-6zM124 137h6v10h-6zM118 137h6v10h-6zM112 137h6v10h-6zM106 137h6v10h-6zM100 137h6v10h-6zM88 137h6v10h-6zM88 117h6v10h-6z"/></g><g clip-path="url(#grid-clip-f25bd400635b615d-2x3)" data-channel="ellipse" data-ellipse-anchor-x="28" data-ellipse-anchor-y="147" data-ellipse-rx="57.7" data-ellipse-ry="45.481" data-ellipse-rotation-deg="84"><ellipse cx="28" cy="147" rx="57.7" ry="45.481" transform="rotate(84 28 147)" fill="#000000" stroke="#000000" fill-opacity="0.2" stroke-opacity="0.3" stroke-width="2"/></g><g><g data-channel="cell" data-cell-index="0" data-cell-row="0" data-cell-col="0" data-surround-bits="0xf25bd4" data-edge-color="#e7be00" data-cell-quartile="2"><rect x="34" y="37" width="48" height="20" fill="#434214"/><text x="58" y="47" fill="#ffffff" font-size="16" text-anchor="middle" dominant-baseline="central">5493</text><polygon points="82,37 72,37 82,47" fill="#ffffff"/></g><g data-channel="cell" data-cell-index="1" data-cell-row="0" data-cell-col="1" data-surround-bits="0x635b" data-edge-color="#000000"><rect x="94" y="37" width="48" height="20" fill="#540000"/><text x="118" y="47" fill="#ffffff" font-size="16" text-anchor="middle" dominant-baseline="central">001K</text></g><g data-channel="cell" data-cell-index="2" data-cell-row="1" data-cell-col="0" data-surround-bits="0x615d0c" data-edge-color="#e7be00" data-cell-quartile="1"><rect x="34" y="77" width="48" height="20" fill="#92d44d"/><text x="58" y="87" fill="#000000" font-size="16" text-anchor="middle" dominant-baseline="central">JTII</text><polygon points="34,77 44,77 34,87" fill="#000000"/></g><g data-channel="cell" data-cell-index="3" data-cell-row="1" data-cell-col="1" data-cell-blank="true" data-cell-blank-map="true"><rect x="94" y="77" width="48" height="20" rx="10" ry="10" fill="#e7be00" stroke="#000000" stroke-width="1"/><circle cx="130" cy="80.333" r="3.5" fill="#000000" data-blank-map-min="0,1"/><path d="M 101.8,80.333 H 110.2 M 106,76.133 V 84.533" fill="none" stroke="#000000" stroke-width="1.925" stroke-linecap="butt" data-blank-map-max="0,0"/></g><g data-channel="cell" data-cell-index="4" data-cell-row="2" data-cell-col="0" data-surround-bits="0x28ec50" data-edge-color="#e7be00"><rect x="34" y="117" width="48" height="20" fill="#22c240"/><text x="58" y="127" fill="#000000" font-size="16" text-anchor="middle" dominant-baseline="central">GC8Y</text></g><g data-channel="cell" data-cell-index="5" data-cell-row="2" data-cell-col="1" data-surround-bits="0xafc6ec" data-edge-color="#e7be00" data-cell-quartile="3"><rect x="94" y="117" width="48" height="20" fill="#5bb005"/><text x="118" y="127" fill="#000000" font-size="16" text-anchor="middle" dominant-baseline="central">1R</text><polygon points="142,137 142,127 132,137" fill="#000000"/></g></g></g><g data-channel="color-bar" data-bar-slots="14" data-bar-marker-left="5" data-bar-marker-right="5"><g data-color-bar-rank="0" data-color-bar-band="B"><rect x="2" y="2" width="20" height="25.4" fill="#2f3fbf"/><text x="12" y="23.88" fill="#ffffff" font-size="16" text-anchor="middle" data-color-bar-letter="true">b</text></g><g data-color-bar-rank="1" data-color-bar-band="G"><rect x="2" y="27.4" width="20" height="68.332" fill="#e7be00"/><text x="12" y="92.212" fill="#000000" font-size="16" text-anchor="middle" data-color-bar-letter="true">g</text></g><g data-color-bar-rank="2" data-color-bar-band="K"><rect x="2" y="95.732" width="20" height="33.316" fill="#000000"/><text x="12" y="125.528" fill="#ffffff" font-size="16" text-anchor="middle" data-color-bar-letter="true">k</text></g><g data-color-bar-rank="3" data-color-bar-band="R"><rect x="2" y="129.048" width="20" height="42.952" fill="#ff3f2f"/><text x="12" y="168.48" fill="#000000" font-size="16" text-anchor="middle" data-color-bar-letter="true">r</text></g><circle cx="6.6" cy="68.786" r="3.4" fill="#ffffff" stroke="#000000" stroke-width="0.75" data-bar-marker="left"/><circle cx="17.4" cy="68.786" r="3.4" fill="#ffffff" stroke="#000000" stroke-width="0.75" data-bar-marker="right"/></g><g data-channel="label-top"><text x="28" y="17" fill="#666666" font-size="12" dominant-baseline="central">LEI</text></g><g data-channel="label-bottom"><text x="148" y="157" fill="#666666" font-size="12" text-anchor="end" dominant-baseline="central">...12</text></g><line x1="1" y1="1.5" x2="154" y2="1.5" stroke="#808080" stroke-width="1" shape-rendering="crispEdges"/><line x1="153.5" y1="1" x2="153.5" y2="173" stroke="#808080" stroke-width="1" shape-rendering="crispEdges"/><line x1="1" y1="172.5" x2="154" y2="172.5" stroke="#808080" stroke-width="1" shape-rendering="crispEdges"/><line x1="1.5" y1="1" x2="1.5" y2="173" stroke="#808080" stroke-width="1" shape-rendering="crispEdges"/><line x1="22.5" y1="1" x2="22.5" y2="173" stroke="#808080" stroke-width="1" shape-rendering="crispEdges"/></svg>