<svg width="273" height="192" viewBox="0 0 273 192" xmlns="http://www.w3.org/2000/svg" font-family="&quot;JetBrains Mono&quot;, &quot;Menlo&quot;, &quot;Consolas&quot;, &quot;DejaVu Sans Mono&quot;, &quot;Liberation Mono&quot;, &quot;Roboto Mono&quot;, &quot;Noto Sans Mono&quot;, monospace" data-entviz-version="v11" data-entviz-lib="0.11.0" data-input-bytes="59" data-cols="4" data-rows="4"><defs><clipPath id="grid-clip-1d16e32a733f61ba-4x4"><rect x="27" y="26" width="240" height="160"/></clipPath></defs><rect x="0" y="0" width="273" height="192" fill="#ffffff"/><g data-channel="grid"><rect x="27" y="26" width="240" height="160" fill="#ffffff"/><g><path fill="#000000" d="M27 26h6v10h-6zM33 26h6v10h-6zM57 26h6v10h-6zM63 26h6v10h-6zM69 26h6v10h-6zM81 26h6v10h-6zM81 36h6v10h-6zM81 56h6v10h-6zM57 56h6v10h-6zM45 56h6v10h-6zM39 56h6v10h-6zM33 56h6v10h-6z"/><path fill="#2f3fbf" d="M87 26h6v10h-6zM93 26h6v10h-6zM99 26h6v10h-6zM105 26h6v10h-6zM111 26h6v10h-6zM117 26h6v10h-6zM135 26h6v10h-6zM141 26h6v10h-6zM141 56h6v10h-6zM135 56h6v10h-6zM129 56h6v10h-6zM111 56h6v10h-6zM99 56h6v10h-6zM87 56h6v10h-6z"/><path fill="#000000" d="M147 26h6v10h-6zM165 26h6v10h-6zM177 26h6v10h-6zM189 26h6v10h-6zM201 26h6v10h-6zM201 46h6v10h-6zM201 56h6v10h-6zM195 56h6v10h-6zM183 56h6v10h-6zM177 56h6v10h-6zM147 56h6v10h-6zM147 46h6v10h-6z"/><path fill="#2f3fbf" d="M255 26h6v10h-6zM261 36h6v10h-6zM261 46h6v10h-6zM261 56h6v10h-6zM249 56h6v10h-6zM231 56h6v10h-6z"/><path fill="#2f3fbf" d="M33 66h6v10h-6zM39 66h6v10h-6zM45 66h6v10h-6zM51 66h6v10h-6zM81 66h6v10h-6zM75 96h6v10h-6zM63 96h6v10h-6zM39 96h6v10h-6zM27 86h6v10h-6zM27 76h6v10h-6z"/><path fill="#2f3fbf" d="M153 66h6v10h-6zM159 66h6v10h-6zM165 66h6v10h-6zM183 66h6v10h-6zM189 66h6v10h-6zM195 66h6v10h-6zM201 66h6v10h-6zM195 96h6v10h-6zM165 96h6v10h-6zM153 96h6v10h-6zM147 96h6v10h-6zM147 86h6v10h-6zM147 76h6v10h-6z"/><path fill="#e7be00" d="M225 66h6v10h-6zM249 66h6v10h-6zM255 66h6v10h-6zM261 66h6v10h-6zM261 96h6v10h-6zM255 96h6v10h-6zM249 96h6v10h-6zM243 96h6v10h-6zM237 96h6v10h-6zM231 96h6v10h-6zM219 96h6v10h-6zM207 96h6v10h-6zM207 76h6v10h-6z"/><path fill="#2f3fbf" d="M123 106h6v10h-6zM129 106h6v10h-6zM135 106h6v10h-6zM141 126h6v10h-6zM141 136h6v10h-6zM135 136h6v10h-6zM99 136h6v10h-6zM93 136h6v10h-6zM87 126h6v10h-6z"/><path fill="#ff3f2f" d="M147 106h6v10h-6zM159 106h6v10h-6zM171 106h6v10h-6zM177 106h6v10h-6zM195 106h6v10h-6zM201 116h6v10h-6zM201 136h6v10h-6zM195 136h6v10h-6zM177 136h6v10h-6zM165 136h6v10h-6zM153 136h6v10h-6zM147 136h6v10h-6zM147 126h6v10h-6zM147 116h6v10h-6z"/><path fill="#2f3fbf" d="M225 106h6v10h-6zM243 106h6v10h-6zM249 106h6v10h-6zM255 106h6v10h-6zM261 116h6v10h-6zM261 136h6v10h-6zM255 136h6v10h-6zM249 136h6v10h-6zM231 136h6v10h-6zM225 136h6v10h-6zM207 126h6v10h-6z"/><path fill="#e7be00" d="M27 146h6v10h-6zM33 146h6v10h-6zM39 146h6v10h-6zM57 146h6v10h-6zM69 146h6v10h-6zM75 146h6v10h-6zM75 176h6v10h-6zM69 176h6v10h-6zM51 176h6v10h-6zM45 176h6v10h-6zM39 176h6v10h-6zM27 176h6v10h-6zM27 166h6v10h-6z"/><path fill="#e7be00" d="M153 146h6v10h-6zM159 146h6v10h-6zM177 146h6v10h-6zM189 146h6v10h-6zM195 146h6v10h-6zM201 156h6v10h-6zM201 176h6v10h-6zM189 176h6v10h-6zM183 176h6v10h-6zM177 176h6v10h-6zM165 176h6v10h-6zM159 176h6v10h-6zM147 166h6v10h-6zM147 156h6v10h-6z"/><path fill="#e7be00" d="M207 146h6v10h-6zM219 146h6v10h-6zM261 156h6v10h-6zM255 176h6v10h-6zM249 176h6v10h-6zM243 176h6v10h-6zM219 176h6v10h-6zM207 166h6v10h-6zM207 156h6v10h-6z"/></g><g clip-path="url(#grid-clip-1d16e32a733f61ba-4x4)" data-channel="ellipse" data-ellipse-anchor-x="207" data-ellipse-anchor-y="66" data-ellipse-rx="120.281" data-ellipse-ry="120.281" data-ellipse-rotation-deg="48"><ellipse cx="207" cy="66" rx="120.281" ry="120.281" transform="rotate(48 207 66)" fill="#000000" stroke="#000000" fill-opacity="0.2" stroke-opacity="0.3" stroke-width="2"/></g><g><g data-channel="cell" data-cell-index="0" data-cell-row="0" data-cell-col="0" data-surround-bits="0x1d16e3" data-edge-color="#000000"><rect x="33" y="36" width="48" height="20" fill="#752a7a"/><text x="57" y="46" fill="#ffffff" font-size="16" text-anchor="middle" dominant-baseline="central">eip1</text></g><g data-channel="cell" data-cell-index="1" data-cell-row="0" data-cell-col="1" data-surround-bits="0x2a733f" data-edge-color="#2f3fbf"><rect x="93" y="36" width="48" height="20" fill="#3590e7"/><text x="117" y="46" fill="#000000" font-size="16" text-anchor="middle" dominant-baseline="central">55:1</text></g><g data-channel="cell" data-cell-index="2" data-cell-row="0" data-cell-col="2" data-surround-bits="0x61baa9" data-edge-color="#000000" data-cell-quartile="4"><rect x="153" y="36" width="48" height="20" fill="#5b4c03"/><text x="177" y="46" fill="#ffffff" font-size="16" text-anchor="middle" dominant-baseline="central">:0xb</text><polygon points="153,56 153,46 163,56" fill="#ffffff"/></g><g data-channel="cell" data-cell-index="3" data-cell-row="0" data-cell-col="3" data-surround-bits="0x25d00" data-edge-color="#2f3fbf"><rect x="213" y="36" width="48" height="20" fill="#7bcef5"/><text x="237" y="46" fill="#000000" font-size="16" text-anchor="middle" dominant-baseline="central">9c57</text></g><g data-channel="cell" data-cell-index="4" data-cell-row="1" data-cell-col="0" data-surround-bits="0xc8a21e" data-edge-color="#2f3fbf" data-cell-quartile="3"><rect x="33" y="76" width="48" height="20" fill="#3c8dd7"/><text x="57" y="86" fill="#000000" font-size="16" text-anchor="middle" dominant-baseline="central">1408</text><polygon points="81,96 81,86 71,96" fill="#000000"/></g><g data-channel="cell" data-cell-index="5" data-cell-row="1" data-cell-col="1" data-cell-blank="true" data-cell-blank-map="true"><rect x="93" y="76" width="48" height="20" rx="10" ry="10" fill="#e7be00" stroke="#000000" stroke-width="1"/><circle cx="135" cy="78.5" r="3.5" fill="#1d4ed8" data-blank-map-min="0,3"/><path d="M 118.8,88.5 H 127.2 M 123,84.3 V 92.7" fill="none" stroke="#d62828" stroke-width="1.925" stroke-linecap="butt" data-blank-map-max="2,2"/></g><g data-channel="cell" data-cell-index="6" data-cell-row="1" data-cell-col="2" data-surround-bits="0xf423ce" data-edge-color="#2f3fbf"><rect x="153" y="76" width="48" height="20" fill="#fc8ef7"/><text x="177" y="86" fill="#000000" font-size="16" text-anchor="middle" dominant-baseline="central">9478</text></g><g data-channel="cell" data-cell-index="7" data-cell-row="1" data-cell-col="3" data-surround-bits="0xabf388" data-edge-color="#e7be00" data-cell-quartile="2"><rect x="213" y="76" width="48" height="20" fill="#bb7d6b"/><text x="237" y="86" fill="#000000" font-size="16" text-anchor="middle" dominant-baseline="central">a327</text><polygon points="261,76 251,76 261,86" fill="#000000"/></g><g data-channel="cell" data-cell-index="8" data-cell-row="2" data-cell-col="0" data-cell-blank="true"><rect x="33" y="116" width="48" height="20" rx="10" ry="10" fill="#000000" stroke="#000000" stroke-width="1"/></g><g data-channel="cell" data-cell-index="9" data-cell-row="2" data-cell-col="1" data-surround-bits="0x5839c0" data-edge-color="#2f3fbf"><rect x="93" y="116" width="48" height="20" fill="#754f7f"/><text x="117" y="126" fill="#ffffff" font-size="16" text-anchor="middle" dominant-baseline="central">f091</text></g><g data-channel="cell" data-cell-index="10" data-cell-row="2" data-cell-col="2" data-surround-bits="0xf53535" data-edge-color="#ff3f2f" data-cell-quartile="1"><rect x="153" y="116" width="48" height="20" fill="#7cbff7"/><text x="177" y="126" fill="#000000" font-size="16" text-anchor="middle" dominant-baseline="central">9798</text><polygon points="153,116 163,116 153,126" fill="#000000"/></g><g data-channel="cell" data-cell-index="11" data-cell-row="2" data-cell-col="3" data-surround-bits="0x4675c8" data-edge-color="#2f3fbf"><rect x="213" y="116" width="48" height="20" fill="#7afded"/><text x="237" y="126" fill="#000000" font-size="16" text-anchor="middle" dominant-baseline="central">7f16</text></g><g data-channel="cell" data-cell-index="12" data-cell-row="3" data-cell-col="0" data-surround-bits="0x6e61a7" data-edge-color="#e7be00"><rect x="33" y="156" width="48" height="20" fill="#b9d77f"/><text x="57" y="166" fill="#000000" font-size="16" text-anchor="middle" dominant-baseline="central">f9e5</text></g><g data-channel="cell" data-cell-index="13" data-cell-row="3" data-cell-col="1" data-cell-blank="true"><rect x="93" y="156" width="48" height="20" rx="10" ry="10" fill="#ff3f2f" stroke="#000000" stroke-width="1"/></g><g data-channel="cell" data-cell-index="14" data-cell-row="3" data-cell-col="2" data-surround-bits="0xcdd5a6" data-edge-color="#e7be00"><rect x="153" y="156" width="48" height="20" fill="#fadd77"/><text x="177" y="166" fill="#000000" font-size="16" text-anchor="middle" dominant-baseline="central">d936</text></g><g data-channel="cell" data-cell-index="15" data-cell-row="3" data-cell-col="3" data-surround-bits="0xc8e405" data-edge-color="#e7be00"><rect x="213" y="156" width="48" height="20" fill="#9ac67b"/><text x="237" y="166" fill="#000000" font-size="16" text-anchor="middle" dominant-baseline="central">e8a</text></g></g></g><g data-channel="color-bar" data-bar-slots="15" data-bar-marker-left="4" data-bar-marker-right="3"><g data-color-bar-rank="0" data-color-bar-band="R"><rect x="1" y="1" width="20" height="38.676" fill="#ff3f2f"/><text x="11" y="36.156" fill="#000000" font-size="16" text-anchor="middle" data-color-bar-letter="true">r</text></g><g data-color-bar-rank="1" data-color-bar-band="K"><rect x="1" y="39.676" width="20" height="63.317" fill="#000000"/><text x="11" y="99.473" fill="#ffffff" font-size="16" text-anchor="middle" data-color-bar-letter="true">k</text></g><g data-color-bar-rank="2" data-color-bar-band="G"><rect x="1" y="102.993" width="20" height="44.003" fill="#e7be00"/><text x="11" y="143.477" fill="#000000" font-size="16" text-anchor="middle" data-color-bar-letter="true">g</text></g><g data-color-bar-rank="3" data-color-bar-band="B"><rect x="1" y="146.997" width="20" height="44.003" fill="#2f3fbf"/><text x="11" y="187.48" fill="#ffffff" font-size="16" text-anchor="middle" data-color-bar-letter="true">b</text></g><circle cx="5.6" cy="58" r="3.4" fill="#ffffff" stroke="#000000" stroke-width="0.75" data-bar-marker="left"/><circle cx="16.4" cy="45.333" r="3.4" fill="#ffffff" stroke="#000000" stroke-width="0.75" data-bar-marker="right"/></g><g data-channel="label-top"><text x="27" y="16" fill="#666666" font-size="12" dominant-baseline="central">did:pkh:...</text></g><line x1="0" y1="0.5" x2="273" y2="0.5" stroke="#808080" stroke-width="1" shape-rendering="crispEdges"/><line x1="272.5" y1="0" x2="272.5" y2="192" stroke="#808080" stroke-width="1" shape-rendering="crispEdges"/><line x1="0" y1="191.5" x2="273" y2="191.5" stroke="#808080" stroke-width="1" shape-rendering="crispEdges"/><line x1="0.5" y1="0" x2="0.5" y2="192" stroke="#808080" stroke-width="1" shape-rendering="crispEdges"/><line x1="21.5" y1="0" x2="21.5" y2="192" stroke="#808080" stroke-width="1" shape-rendering="crispEdges"/></svg>