<svg xmlns="http://www.w3.org/2000/svg" width="610.00" height="348.43" viewBox="0 0 610.00 348.43" font-family="'DejaVu Sans', 'Bitstream Vera Sans', Verdana, sans-serif" data-spec-version="v10" data-generator="scripts/paper_figures.py"><rect x="0.00" y="0.00" width="610.00" height="348.43" fill="#ffffff" stroke="none" stroke-width="1.0"/><svg x="30.00" y="40.00" width="240.00" height="238.43" viewBox="0.000 0.000 153.000 152.000"><defs xmlns="http://www.w3.org/2000/svg"><clipPath id="grid-clip-24292fbf2cbc3d58-2x3"><rect x="27" y="26" width="120" height="120"/></clipPath></defs><rect xmlns="http://www.w3.org/2000/svg" x="0" y="0" width="153" height="152" fill="#ffffff"/><g xmlns="http://www.w3.org/2000/svg" data-channel="grid"><rect x="27" y="26" width="120" height="120" fill="#ffffff"/><g><rect x="27" y="26" width="6" height="10" fill="#000000"/><rect x="33" y="26" width="6" height="10" fill="#000000"/><rect x="39" y="26" width="6" height="10" fill="#000000"/><rect x="45" y="26" width="6" height="10" fill="#000000"/><rect x="57" y="26" width="6" height="10" fill="#000000"/><rect x="75" y="26" width="6" height="10" fill="#000000"/><rect x="81" y="46" width="6" height="10" fill="#000000"/><rect x="75" y="56" width="6" height="10" fill="#000000"/><rect x="45" y="56" width="6" height="10" fill="#000000"/><rect x="27" y="56" width="6" height="10" fill="#000000"/><rect x="99" y="26" width="6" height="10" fill="#e7be00"/><rect x="105" y="26" width="6" height="10" fill="#e7be00"/><rect x="111" y="26" width="6" height="10" fill="#e7be00"/><rect x="117" y="26" width="6" height="10" fill="#e7be00"/><rect x="129" y="26" width="6" height="10" fill="#e7be00"/><rect x="141" y="36" width="6" height="10" fill="#e7be00"/><rect x="141" y="46" width="6" height="10" fill="#e7be00"/><rect x="135" y="56" width="6" height="10" fill="#e7be00"/><rect x="117" y="56" width="6" height="10" fill="#e7be00"/><rect x="111" y="56" width="6" height="10" fill="#e7be00"/><rect x="105" y="56" width="6" height="10" fill="#e7be00"/><rect x="99" y="56" width="6" height="10" fill="#e7be00"/><rect x="93" y="56" width="6" height="10" fill="#e7be00"/><rect x="87" y="56" width="6" height="10" fill="#e7be00"/><rect x="87" y="36" width="6" height="10" fill="#e7be00"/><rect x="27" y="66" width="6" height="10" fill="#e7be00"/><rect x="33" y="66" width="6" height="10" fill="#e7be00"/><rect x="39" y="66" width="6" height="10" fill="#e7be00"/><rect x="45" y="66" width="6" height="10" fill="#e7be00"/><rect x="51" y="66" width="6" height="10" fill="#e7be00"/><rect x="57" y="66" width="6" height="10" fill="#e7be00"/><rect x="63" y="66" width="6" height="10" fill="#e7be00"/><rect x="69" y="66" width="6" height="10" fill="#e7be00"/><rect x="81" y="86" width="6" height="10" fill="#e7be00"/><rect x="81" y="96" width="6" height="10" fill="#e7be00"/><rect x="69" y="96" width="6" height="10" fill="#e7be00"/><rect x="57" y="96" width="6" height="10" fill="#e7be00"/><rect x="45" y="96" width="6" height="10" fill="#e7be00"/><rect x="39" y="96" width="6" height="10" fill="#e7be00"/><rect x="33" y="96" width="6" height="10" fill="#e7be00"/><rect x="27" y="96" width="6" height="10" fill="#e7be00"/><rect x="93" y="66" width="6" height="10" fill="#2f3fbf"/><rect x="129" y="66" width="6" height="10" fill="#2f3fbf"/><rect x="135" y="66" width="6" height="10" fill="#2f3fbf"/><rect x="141" y="76" width="6" height="10" fill="#2f3fbf"/><rect x="129" y="96" width="6" height="10" fill="#2f3fbf"/><rect x="123" y="96" width="6" height="10" fill="#2f3fbf"/><rect x="117" y="96" width="6" height="10" fill="#2f3fbf"/><rect x="27" y="106" width="6" height="10" fill="#000000"/><rect x="33" y="106" width="6" height="10" fill="#000000"/><rect x="39" y="106" width="6" height="10" fill="#000000"/><rect x="51" y="106" width="6" height="10" fill="#000000"/><rect x="57" y="106" width="6" height="10" fill="#000000"/><rect x="63" y="106" width="6" height="10" fill="#000000"/><rect x="81" y="126" width="6" height="10" fill="#000000"/><rect x="63" y="136" width="6" height="10" fill="#000000"/><rect x="39" y="136" width="6" height="10" fill="#000000"/><rect x="33" y="136" width="6" height="10" fill="#000000"/><rect x="27" y="136" width="6" height="10" fill="#000000"/><rect x="27" y="116" width="6" height="10" fill="#000000"/><rect x="99" y="106" width="6" height="10" fill="#000000"/><rect x="105" y="106" width="6" height="10" fill="#000000"/><rect x="129" y="106" width="6" height="10" fill="#000000"/><rect x="141" y="126" width="6" height="10" fill="#000000"/><rect x="141" y="136" width="6" height="10" fill="#000000"/><rect x="129" y="136" width="6" height="10" fill="#000000"/><rect x="111" y="136" width="6" height="10" fill="#000000"/><rect x="105" y="136" width="6" height="10" fill="#000000"/><rect x="99" y="136" width="6" height="10" fill="#000000"/><rect x="87" y="136" width="6" height="10" fill="#000000"/></g><g clip-path="url(#grid-clip-24292fbf2cbc3d58-2x3)" data-channel="ellipse" data-ellipse-anchor-x="27" data-ellipse-anchor-y="146" data-ellipse-rx="73.992" data-ellipse-ry="37.335" data-ellipse-rotation-deg="72"><ellipse cx="27" cy="146" rx="73.992" ry="37.335" transform="rotate(72 27 146)" fill="#000000" stroke="#000000" fill-opacity="0.2" stroke-opacity="0.3" stroke-width="2"/></g><g><g data-channel="cell" data-cell-index="0" data-cell-row="0" data-cell-col="0"><rect x="33" y="36" width="48" height="20" fill="#840e55"/><text x="57" y="46" fill="#ffffff" style="font-family: &quot;JetBrains Mono&quot;, &quot;Menlo&quot;, &quot;Consolas&quot;, &quot;DejaVu Sans Mono&quot;, &quot;Liberation Mono&quot;, &quot;Roboto Mono&quot;, &quot;Noto Sans Mono&quot;, monospace; font-size: 12px;" text-anchor="middle" dominant-baseline="central">550e84</text></g><g data-channel="cell" data-cell-index="1" data-cell-row="0" data-cell-col="1"><rect x="93" y="36" width="48" height="20" fill="#9be200"/><text x="117" y="46" fill="#000000" style="font-family: &quot;JetBrains Mono&quot;, &quot;Menlo&quot;, &quot;Consolas&quot;, &quot;DejaVu Sans Mono&quot;, &quot;Liberation Mono&quot;, &quot;Roboto Mono&quot;, &quot;Noto Sans Mono&quot;, monospace; font-size: 12px;" text-anchor="middle" dominant-baseline="central">00e29b</text></g><g data-channel="cell" data-cell-index="2" data-cell-row="1" data-cell-col="0" data-cell-quartile="3"><rect x="33" y="76" width="48" height="20" fill="#a7d441"/><text x="57" y="86" fill="#000000" style="font-family: &quot;JetBrains Mono&quot;, &quot;Menlo&quot;, &quot;Consolas&quot;, &quot;DejaVu Sans Mono&quot;, &quot;Liberation Mono&quot;, &quot;Roboto Mono&quot;, &quot;Noto Sans Mono&quot;, monospace; font-size: 12px;" text-anchor="middle" dominant-baseline="central">41d4a7</text><polygon points="81,96 81,86 71,96" fill="#000000"/></g><g data-channel="cell" data-cell-index="3" data-cell-row="1" data-cell-col="1" data-cell-quartile="2"><rect x="93" y="76" width="48" height="20" fill="#664416"/><text x="117" y="86" fill="#ffffff" style="font-family: &quot;JetBrains Mono&quot;, &quot;Menlo&quot;, &quot;Consolas&quot;, &quot;DejaVu Sans Mono&quot;, &quot;Liberation Mono&quot;, &quot;Roboto Mono&quot;, &quot;Noto Sans Mono&quot;, monospace; font-size: 12px;" text-anchor="middle" dominant-baseline="central">164466</text><polygon points="141,76 131,76 141,86" fill="#ffffff"/></g><g data-channel="cell" data-cell-index="4" data-cell-row="2" data-cell-col="0" data-cell-quartile="1"><rect x="33" y="116" width="48" height="20" fill="#004455"/><text x="57" y="126" fill="#ffffff" style="font-family: &quot;JetBrains Mono&quot;, &quot;Menlo&quot;, &quot;Consolas&quot;, &quot;DejaVu Sans Mono&quot;, &quot;Liberation Mono&quot;, &quot;Roboto Mono&quot;, &quot;Noto Sans Mono&quot;, monospace; font-size: 12px;" text-anchor="middle" dominant-baseline="central">554400</text><polygon points="33,116 43,116 33,126" fill="#ffffff"/></g><g data-channel="cell" data-cell-index="5" data-cell-row="2" data-cell-col="1"><rect x="93" y="116" width="48" height="20" fill="#000000"/><text x="117" y="126" fill="#ffffff" style="font-family: &quot;JetBrains Mono&quot;, &quot;Menlo&quot;, &quot;Consolas&quot;, &quot;DejaVu Sans Mono&quot;, &quot;Liberation Mono&quot;, &quot;Roboto Mono&quot;, &quot;Noto Sans Mono&quot;, monospace; font-size: 12px;" text-anchor="middle" dominant-baseline="central">00</text></g></g></g><g xmlns="http://www.w3.org/2000/svg" data-channel="color-bar" data-bar-slots="12" data-bar-marker-left="2" data-bar-marker-right="8"><g data-color-bar-rank="0" data-color-bar-band="G"><rect x="1" y="1" width="20" height="82.12" fill="#e7be00"/><text x="11" y="80.48" fill="#000000" style="font-family: &quot;JetBrains Mono&quot;, &quot;Menlo&quot;, &quot;Consolas&quot;, &quot;DejaVu Sans Mono&quot;, &quot;Liberation Mono&quot;, &quot;Roboto Mono&quot;, &quot;Noto Sans Mono&quot;, monospace; font-size: 12px;" text-anchor="middle" data-color-bar-letter="true">g</text></g><g data-color-bar-rank="1" data-color-bar-band="R"><rect x="1" y="83.12" width="20" height="15.053" fill="#ff3f2f"/><text x="11" y="95.533" fill="#000000" style="font-family: &quot;JetBrains Mono&quot;, &quot;Menlo&quot;, &quot;Consolas&quot;, &quot;DejaVu Sans Mono&quot;, &quot;Liberation Mono&quot;, &quot;Roboto Mono&quot;, &quot;Noto Sans Mono&quot;, monospace; font-size: 12px;" text-anchor="middle" data-color-bar-letter="true">r</text></g><g data-color-bar-rank="2" data-color-bar-band="B"><rect x="1" y="98.173" width="20" height="26.414" fill="#2f3fbf"/><text x="11" y="121.946" fill="#ffffff" style="font-family: &quot;JetBrains Mono&quot;, &quot;Menlo&quot;, &quot;Consolas&quot;, &quot;DejaVu Sans Mono&quot;, &quot;Liberation Mono&quot;, &quot;Roboto Mono&quot;, &quot;Noto Sans Mono&quot;, monospace; font-size: 12px;" text-anchor="middle" data-color-bar-letter="true">b</text></g><g data-color-bar-rank="3" data-color-bar-band="K"><rect x="1" y="124.586" width="20" height="26.414" fill="#000000"/><text x="11" y="148.36" fill="#ffffff" style="font-family: &quot;JetBrains Mono&quot;, &quot;Menlo&quot;, &quot;Consolas&quot;, &quot;DejaVu Sans Mono&quot;, &quot;Liberation Mono&quot;, &quot;Roboto Mono&quot;, &quot;Noto Sans Mono&quot;, monospace; font-size: 12px;" text-anchor="middle" data-color-bar-letter="true">k</text></g><circle cx="5.6" cy="32.25" r="3.4" fill="#ffffff" stroke="#000000" stroke-width="0.75" data-bar-marker="left"/><circle cx="16.4" cy="107.25" r="3.4" fill="#ffffff" stroke="#000000" stroke-width="0.75" data-bar-marker="right"/></g><g xmlns="http://www.w3.org/2000/svg" data-channel="label-top"><text x="27" y="16" fill="#666666" style="font-family: &quot;JetBrains Mono&quot;, &quot;Menlo&quot;, &quot;Consolas&quot;, &quot;DejaVu Sans Mono&quot;, &quot;Liberation Mono&quot;, &quot;Roboto Mono&quot;, &quot;Noto Sans Mono&quot;, monospace; font-size: 12px;" dominant-baseline="central">UUID:</text></g><line xmlns="http://www.w3.org/2000/svg" x1="0" y1="0.5" x2="153" y2="0.5" stroke="#808080" stroke-width="1" shape-rendering="crispEdges"/><line xmlns="http://www.w3.org/2000/svg" x1="152.5" y1="0" x2="152.5" y2="152" stroke="#808080" stroke-width="1" shape-rendering="crispEdges"/><line xmlns="http://www.w3.org/2000/svg" x1="0" y1="151.5" x2="153" y2="151.5" stroke="#808080" stroke-width="1" shape-rendering="crispEdges"/><line xmlns="http://www.w3.org/2000/svg" x1="0.5" y1="0" x2="0.5" y2="152" stroke="#808080" stroke-width="1" shape-rendering="crispEdges"/><line xmlns="http://www.w3.org/2000/svg" x1="21.5" y1="0" x2="21.5" y2="152" stroke="#808080" stroke-width="1" shape-rendering="crispEdges"/></svg><svg x="340.00" y="40.00" width="240.00" height="238.43" viewBox="0.000 0.000 153.000 152.000"><defs xmlns="http://www.w3.org/2000/svg"><clipPath id="grid-clip-b5ad00c6f67e1fb1-2x3"><rect x="27" y="26" width="120" height="120"/></clipPath></defs><rect xmlns="http://www.w3.org/2000/svg" x="0" y="0" width="153" height="152" fill="#ffffff"/><g xmlns="http://www.w3.org/2000/svg" data-channel="grid"><rect x="27" y="26" width="120" height="120" fill="#2f3fbf"/><g><rect x="75" y="26" width="6" height="10" fill="#ffffff"/><rect x="81" y="36" width="6" height="10" fill="#ffffff"/><rect x="81" y="46" width="6" height="10" fill="#ffffff"/><rect x="75" y="56" width="6" height="10" fill="#ffffff"/><rect x="63" y="56" width="6" height="10" fill="#ffffff"/><rect x="57" y="56" width="6" height="10" fill="#ffffff"/><rect x="45" y="56" width="6" height="10" fill="#ffffff"/><rect x="33" y="56" width="6" height="10" fill="#ffffff"/><rect x="27" y="56" width="6" height="10" fill="#ffffff"/><rect x="27" y="36" width="6" height="10" fill="#ffffff"/><rect x="93" y="26" width="6" height="10" fill="#ff3f2f"/><rect x="99" y="26" width="6" height="10" fill="#ff3f2f"/><rect x="105" y="26" width="6" height="10" fill="#ff3f2f"/><rect x="111" y="26" width="6" height="10" fill="#ff3f2f"/><rect x="117" y="26" width="6" height="10" fill="#ff3f2f"/><rect x="123" y="26" width="6" height="10" fill="#ff3f2f"/><rect x="141" y="26" width="6" height="10" fill="#ff3f2f"/><rect x="141" y="36" width="6" height="10" fill="#ff3f2f"/><rect x="141" y="56" width="6" height="10" fill="#ff3f2f"/><rect x="135" y="56" width="6" height="10" fill="#ff3f2f"/><rect x="129" y="56" width="6" height="10" fill="#ff3f2f"/><rect x="123" y="56" width="6" height="10" fill="#ff3f2f"/><rect x="111" y="56" width="6" height="10" fill="#ff3f2f"/><rect x="105" y="56" width="6" height="10" fill="#ff3f2f"/><rect x="87" y="46" width="6" height="10" fill="#ff3f2f"/><rect x="87" y="36" width="6" height="10" fill="#ff3f2f"/><rect x="39" y="66" width="6" height="10" fill="#e7be00"/><rect x="45" y="66" width="6" height="10" fill="#e7be00"/><rect x="57" y="66" width="6" height="10" fill="#e7be00"/><rect x="75" y="66" width="6" height="10" fill="#e7be00"/><rect x="81" y="96" width="6" height="10" fill="#e7be00"/><rect x="75" y="96" width="6" height="10" fill="#e7be00"/><rect x="63" y="96" width="6" height="10" fill="#e7be00"/><rect x="57" y="96" width="6" height="10" fill="#e7be00"/><rect x="51" y="96" width="6" height="10" fill="#e7be00"/><rect x="45" y="96" width="6" height="10" fill="#e7be00"/><rect x="39" y="96" width="6" height="10" fill="#e7be00"/><rect x="33" y="96" width="6" height="10" fill="#e7be00"/><rect x="87" y="66" width="6" height="10" fill="#000000"/><rect x="99" y="66" width="6" height="10" fill="#000000"/><rect x="105" y="66" width="6" height="10" fill="#000000"/><rect x="117" y="66" width="6" height="10" fill="#000000"/><rect x="141" y="66" width="6" height="10" fill="#000000"/><rect x="123" y="96" width="6" height="10" fill="#000000"/><rect x="117" y="96" width="6" height="10" fill="#000000"/><rect x="111" y="96" width="6" height="10" fill="#000000"/><rect x="105" y="96" width="6" height="10" fill="#000000"/><rect x="99" y="96" width="6" height="10" fill="#000000"/><rect x="93" y="96" width="6" height="10" fill="#000000"/><rect x="87" y="96" width="6" height="10" fill="#000000"/><rect x="87" y="86" width="6" height="10" fill="#000000"/><rect x="87" y="76" width="6" height="10" fill="#000000"/><rect x="27" y="106" width="6" height="10" fill="#000000"/><rect x="33" y="106" width="6" height="10" fill="#000000"/><rect x="45" y="106" width="6" height="10" fill="#000000"/><rect x="57" y="106" width="6" height="10" fill="#000000"/><rect x="75" y="106" width="6" height="10" fill="#000000"/><rect x="81" y="106" width="6" height="10" fill="#000000"/><rect x="81" y="126" width="6" height="10" fill="#000000"/><rect x="69" y="136" width="6" height="10" fill="#000000"/><rect x="63" y="136" width="6" height="10" fill="#000000"/><rect x="57" y="136" width="6" height="10" fill="#000000"/><rect x="45" y="136" width="6" height="10" fill="#000000"/><rect x="39" y="136" width="6" height="10" fill="#000000"/><rect x="33" y="136" width="6" height="10" fill="#000000"/><rect x="27" y="136" width="6" height="10" fill="#000000"/><rect x="27" y="116" width="6" height="10" fill="#000000"/><rect x="87" y="106" width="6" height="10" fill="#000000"/><rect x="93" y="106" width="6" height="10" fill="#000000"/><rect x="141" y="116" width="6" height="10" fill="#000000"/><rect x="141" y="126" width="6" height="10" fill="#000000"/><rect x="141" y="136" width="6" height="10" fill="#000000"/><rect x="135" y="136" width="6" height="10" fill="#000000"/><rect x="111" y="136" width="6" height="10" fill="#000000"/><rect x="105" y="136" width="6" height="10" fill="#000000"/><rect x="99" y="136" width="6" height="10" fill="#000000"/><rect x="93" y="136" width="6" height="10" fill="#000000"/><rect x="87" y="136" width="6" height="10" fill="#000000"/><rect x="87" y="126" width="6" height="10" fill="#000000"/><rect x="87" y="116" width="6" height="10" fill="#000000"/></g><g clip-path="url(#grid-clip-b5ad00c6f67e1fb1-2x3)" data-channel="ellipse" data-ellipse-anchor-x="147" data-ellipse-anchor-y="106" data-ellipse-rx="49.035" data-ellipse-ry="69.803" data-ellipse-rotation-deg="120"><ellipse cx="147" cy="106" rx="49.035" ry="69.803" transform="rotate(120 147 106)" fill="#ffffff" stroke="#ffffff" fill-opacity="0.35" stroke-opacity="0.45" stroke-width="2"/></g><g><g data-channel="cell" data-cell-index="0" data-cell-row="0" data-cell-col="0"><rect x="33" y="36" width="48" height="20" fill="#840e55"/><text x="57" y="46" fill="#ffffff" style="font-family: &quot;JetBrains Mono&quot;, &quot;Menlo&quot;, &quot;Consolas&quot;, &quot;DejaVu Sans Mono&quot;, &quot;Liberation Mono&quot;, &quot;Roboto Mono&quot;, &quot;Noto Sans Mono&quot;, monospace; font-size: 12px;" text-anchor="middle" dominant-baseline="central">550e84</text></g><g data-channel="cell" data-cell-index="1" data-cell-row="0" data-cell-col="1" data-cell-quartile="1"><rect x="93" y="36" width="48" height="20" fill="#9be200"/><text x="117" y="46" fill="#000000" style="font-family: &quot;JetBrains Mono&quot;, &quot;Menlo&quot;, &quot;Consolas&quot;, &quot;DejaVu Sans Mono&quot;, &quot;Liberation Mono&quot;, &quot;Roboto Mono&quot;, &quot;Noto Sans Mono&quot;, monospace; font-size: 12px;" text-anchor="middle" dominant-baseline="central">00e29b</text><polygon points="93,36 103,36 93,46" fill="#000000"/></g><g data-channel="cell" data-cell-index="2" data-cell-row="1" data-cell-col="0" data-cell-quartile="3"><rect x="33" y="76" width="48" height="20" fill="#a7d441"/><text x="57" y="86" fill="#000000" style="font-family: &quot;JetBrains Mono&quot;, &quot;Menlo&quot;, &quot;Consolas&quot;, &quot;DejaVu Sans Mono&quot;, &quot;Liberation Mono&quot;, &quot;Roboto Mono&quot;, &quot;Noto Sans Mono&quot;, monospace; font-size: 12px;" text-anchor="middle" dominant-baseline="central">41d4a7</text><polygon points="81,96 81,86 71,96" fill="#000000"/></g><g data-channel="cell" data-cell-index="3" data-cell-row="1" data-cell-col="1"><rect x="93" y="76" width="48" height="20" fill="#664416"/><text x="117" y="86" fill="#ffffff" style="font-family: &quot;JetBrains Mono&quot;, &quot;Menlo&quot;, &quot;Consolas&quot;, &quot;DejaVu Sans Mono&quot;, &quot;Liberation Mono&quot;, &quot;Roboto Mono&quot;, &quot;Noto Sans Mono&quot;, monospace; font-size: 12px;" text-anchor="middle" dominant-baseline="central">164466</text></g><g data-channel="cell" data-cell-index="4" data-cell-row="2" data-cell-col="0"><rect x="33" y="116" width="48" height="20" fill="#004455"/><text x="57" y="126" fill="#ffffff" style="font-family: &quot;JetBrains Mono&quot;, &quot;Menlo&quot;, &quot;Consolas&quot;, &quot;DejaVu Sans Mono&quot;, &quot;Liberation Mono&quot;, &quot;Roboto Mono&quot;, &quot;Noto Sans Mono&quot;, monospace; font-size: 12px;" text-anchor="middle" dominant-baseline="central">554400</text></g><g data-channel="cell" data-cell-index="5" data-cell-row="2" data-cell-col="1" data-cell-quartile="2"><rect x="93" y="116" width="48" height="20" fill="#010101"/><text x="117" y="126" fill="#ffffff" style="font-family: &quot;JetBrains Mono&quot;, &quot;Menlo&quot;, &quot;Consolas&quot;, &quot;DejaVu Sans Mono&quot;, &quot;Liberation Mono&quot;, &quot;Roboto Mono&quot;, &quot;Noto Sans Mono&quot;, monospace; font-size: 12px;" text-anchor="middle" dominant-baseline="central">01</text><polygon points="141,116 131,116 141,126" fill="#ffffff"/></g></g></g><g xmlns="http://www.w3.org/2000/svg" data-channel="color-bar" data-bar-slots="12" data-bar-marker-left="0" data-bar-marker-right="1"><g data-color-bar-rank="0" data-color-bar-band="G"><rect x="1" y="1" width="20" height="28.522" fill="#e7be00"/><text x="11" y="26.882" fill="#000000" style="font-family: &quot;JetBrains Mono&quot;, &quot;Menlo&quot;, &quot;Consolas&quot;, &quot;DejaVu Sans Mono&quot;, &quot;Liberation Mono&quot;, &quot;Roboto Mono&quot;, &quot;Noto Sans Mono&quot;, monospace; font-size: 12px;" text-anchor="middle" data-color-bar-letter="true">g</text></g><g data-color-bar-rank="1" data-color-bar-band="K"><rect x="1" y="29.522" width="20" height="49.886" fill="#000000"/><text x="11" y="76.768" fill="#ffffff" style="font-family: &quot;JetBrains Mono&quot;, &quot;Menlo&quot;, &quot;Consolas&quot;, &quot;DejaVu Sans Mono&quot;, &quot;Liberation Mono&quot;, &quot;Roboto Mono&quot;, &quot;Noto Sans Mono&quot;, monospace; font-size: 12px;" text-anchor="middle" data-color-bar-letter="true">k</text></g><g data-color-bar-rank="2" data-color-bar-band="R"><rect x="1" y="79.408" width="20" height="34.669" fill="#ff3f2f"/><text x="11" y="111.437" fill="#000000" style="font-family: &quot;JetBrains Mono&quot;, &quot;Menlo&quot;, &quot;Consolas&quot;, &quot;DejaVu Sans Mono&quot;, &quot;Liberation Mono&quot;, &quot;Roboto Mono&quot;, &quot;Noto Sans Mono&quot;, monospace; font-size: 12px;" text-anchor="middle" data-color-bar-letter="true">r</text></g><g data-color-bar-rank="3" data-color-bar-band="W"><rect x="1" y="114.077" width="20" height="36.923" fill="#ffffff"/><text x="11" y="148.36" fill="#000000" style="font-family: &quot;JetBrains Mono&quot;, &quot;Menlo&quot;, &quot;Consolas&quot;, &quot;DejaVu Sans Mono&quot;, &quot;Liberation Mono&quot;, &quot;Roboto Mono&quot;, &quot;Noto Sans Mono&quot;, monospace; font-size: 12px;" text-anchor="middle" data-color-bar-letter="true">w</text></g><circle cx="5.6" cy="7.25" r="3.4" fill="#ffffff" stroke="#000000" stroke-width="0.75" data-bar-marker="left"/><circle cx="16.4" cy="19.75" r="3.4" fill="#ffffff" stroke="#000000" stroke-width="0.75" data-bar-marker="right"/></g><g xmlns="http://www.w3.org/2000/svg" data-channel="label-top"><text x="27" y="16" fill="#666666" style="font-family: &quot;JetBrains Mono&quot;, &quot;Menlo&quot;, &quot;Consolas&quot;, &quot;DejaVu Sans Mono&quot;, &quot;Liberation Mono&quot;, &quot;Roboto Mono&quot;, &quot;Noto Sans Mono&quot;, monospace; font-size: 12px;" dominant-baseline="central">UUID:</text></g><line xmlns="http://www.w3.org/2000/svg" x1="0" y1="0.5" x2="153" y2="0.5" stroke="#808080" stroke-width="1" shape-rendering="crispEdges"/><line xmlns="http://www.w3.org/2000/svg" x1="152.5" y1="0" x2="152.5" y2="152" stroke="#808080" stroke-width="1" shape-rendering="crispEdges"/><line xmlns="http://www.w3.org/2000/svg" x1="0" y1="151.5" x2="153" y2="151.5" stroke="#808080" stroke-width="1" shape-rendering="crispEdges"/><line xmlns="http://www.w3.org/2000/svg" x1="0.5" y1="0" x2="0.5" y2="152" stroke="#808080" stroke-width="1" shape-rendering="crispEdges"/><line xmlns="http://www.w3.org/2000/svg" x1="21.5" y1="0" x2="21.5" y2="152" stroke="#808080" stroke-width="1" shape-rendering="crispEdges"/></svg><text x="305.00" y="153.22" font-family="'DejaVu Sans', 'Bitstream Vera Sans', Verdana, sans-serif" font-size="34px" font-weight="bold" text-anchor="middle" fill="#3f5b73">≠</text><text x="150.00" y="302.43" font-family="'DejaVu Sans', 'Bitstream Vera Sans', Verdana, sans-serif" font-size="13px" font-weight="bold" text-anchor="middle" fill="#2b2b33">a value</text><text x="460.00" y="302.43" font-family="'DejaVu Sans', 'Bitstream Vera Sans', Verdana, sans-serif" font-size="13px" font-weight="bold" text-anchor="middle" fill="#2b2b33">the same value, last character changed</text><text x="305.00" y="332.43" font-family="'DejaVu Sans', 'Bitstream Vera Sans', Verdana, sans-serif" font-size="12px" font-weight="normal" text-anchor="middle" fill="#5a5f6a">A single changed character flips ~256 fingerprint bits, so most channels visibly change at once.</text></svg>
