<svg xmlns="http://www.w3.org/2000/svg" width="984.00" height="498.81" viewBox="0 0 984.00 498.81" font-family="'DejaVu Sans', 'Bitstream Vera Sans', Verdana, sans-serif" data-spec-version="v9" data-generator="scripts/paper_figures.py"><rect x="0.00" y="0.00" width="984.00" height="498.81" fill="#ffffff" stroke="none" stroke-width="1.0"/><svg x="60.00" y="64.00" width="380.00" height="378.81" viewBox="0.000 0.000 318.000 317.000"><defs xmlns="http://www.w3.org/2000/svg"><clipPath id="grid-clip-c9a8f1a52b1211b6-4x6"><rect x="31.16666666666667" y="30.16666666666667" width="280.0" height="280.0"/></clipPath></defs><rect xmlns="http://www.w3.org/2000/svg" x="0" y="0" width="318.0" height="317.0" fill="#ffffff"/><g xmlns="http://www.w3.org/2000/svg" data-channel="grid"><rect x="31.16666666666667" y="30.16666666666667" width="280.0" height="280.0" fill="#ff3f2f"/><g><rect x="31.16666666666667" y="30.166666666666675" width="7.0" height="11.666666666666668" fill="#e7be00"/><rect x="59.16666666666667" y="30.166666666666675" width="7.0" height="11.666666666666668" fill="#e7be00"/><rect x="66.16666666666667" y="30.166666666666675" width="7.0" height="11.666666666666668" fill="#e7be00"/><rect x="73.16666666666667" y="30.166666666666675" width="7.0" height="11.666666666666668" fill="#e7be00"/><rect x="80.16666666666667" y="30.166666666666675" width="7.0" height="11.666666666666668" fill="#e7be00"/><rect x="94.16666666666667" y="53.500000000000014" width="7.0" height="11.666666666666668" fill="#e7be00"/><rect x="87.16666666666667" y="65.16666666666669" width="7.0" height="11.666666666666668" fill="#e7be00"/><rect x="73.16666666666667" y="65.16666666666669" width="7.0" height="11.666666666666668" fill="#e7be00"/><rect x="66.16666666666667" y="65.16666666666669" width="7.0" height="11.666666666666668" fill="#e7be00"/><rect x="45.16666666666667" y="65.16666666666669" width="7.0" height="11.666666666666668" fill="#e7be00"/><rect x="31.16666666666667" y="53.500000000000014" width="7.0" height="11.666666666666668" fill="#e7be00"/><rect x="31.16666666666667" y="41.83333333333334" width="7.0" height="11.666666666666668" fill="#e7be00"/><rect x="108.16666666666667" y="30.166666666666675" width="7.0" height="11.666666666666668" fill="#e7be00"/><rect x="129.16666666666669" y="30.166666666666675" width="7.0" height="11.666666666666668" fill="#e7be00"/><rect x="157.16666666666669" y="30.166666666666675" width="7.0" height="11.666666666666668" fill="#e7be00"/><rect x="164.16666666666669" y="30.166666666666675" width="7.0" height="11.666666666666668" fill="#e7be00"/><rect x="164.16666666666669" y="53.500000000000014" width="7.0" height="11.666666666666668" fill="#e7be00"/><rect x="157.16666666666669" y="65.16666666666669" width="7.0" height="11.666666666666668" fill="#e7be00"/><rect x="136.16666666666669" y="65.16666666666669" width="7.0" height="11.666666666666668" fill="#e7be00"/><rect x="122.16666666666667" y="65.16666666666669" width="7.0" height="11.666666666666668" fill="#e7be00"/><rect x="101.16666666666667" y="65.16666666666669" width="7.0" height="11.666666666666668" fill="#e7be00"/><rect x="101.16666666666667" y="41.83333333333334" width="7.0" height="11.666666666666668" fill="#e7be00"/><rect x="185.16666666666669" y="30.166666666666675" width="7.0" height="11.666666666666668" fill="#2f3fbf"/><rect x="199.16666666666669" y="30.166666666666675" width="7.0" height="11.666666666666668" fill="#2f3fbf"/><rect x="213.16666666666669" y="30.166666666666675" width="7.0" height="11.666666666666668" fill="#2f3fbf"/><rect x="220.16666666666669" y="30.166666666666675" width="7.0" height="11.666666666666668" fill="#2f3fbf"/><rect x="234.16666666666669" y="30.166666666666675" width="7.0" height="11.666666666666668" fill="#2f3fbf"/><rect x="234.16666666666669" y="41.83333333333334" width="7.0" height="11.666666666666668" fill="#2f3fbf"/><rect x="234.16666666666669" y="65.16666666666669" width="7.0" height="11.666666666666668" fill="#2f3fbf"/><rect x="227.16666666666669" y="65.16666666666669" width="7.0" height="11.666666666666668" fill="#2f3fbf"/><rect x="213.16666666666669" y="65.16666666666669" width="7.0" height="11.666666666666668" fill="#2f3fbf"/><rect x="206.16666666666669" y="65.16666666666669" width="7.0" height="11.666666666666668" fill="#2f3fbf"/><rect x="178.16666666666669" y="65.16666666666669" width="7.0" height="11.666666666666668" fill="#2f3fbf"/><rect x="241.16666666666669" y="30.166666666666675" width="7.0" height="11.666666666666668" fill="#e7be00"/><rect x="248.16666666666669" y="30.166666666666675" width="7.0" height="11.666666666666668" fill="#e7be00"/><rect x="269.1666666666667" y="30.166666666666675" width="7.0" height="11.666666666666668" fill="#e7be00"/><rect x="290.1666666666667" y="30.166666666666675" width="7.0" height="11.666666666666668" fill="#e7be00"/><rect x="304.1666666666667" y="53.500000000000014" width="7.0" height="11.666666666666668" fill="#e7be00"/><rect x="304.1666666666667" y="65.16666666666669" width="7.0" height="11.666666666666668" fill="#e7be00"/><rect x="283.1666666666667" y="65.16666666666669" width="7.0" height="11.666666666666668" fill="#e7be00"/><rect x="276.1666666666667" y="65.16666666666669" width="7.0" height="11.666666666666668" fill="#e7be00"/><rect x="269.1666666666667" y="65.16666666666669" width="7.0" height="11.666666666666668" fill="#e7be00"/><rect x="255.16666666666669" y="65.16666666666669" width="7.0" height="11.666666666666668" fill="#e7be00"/><rect x="241.16666666666669" y="53.500000000000014" width="7.0" height="11.666666666666668" fill="#e7be00"/><rect x="241.16666666666669" y="41.83333333333334" width="7.0" height="11.666666666666668" fill="#e7be00"/><rect x="101.16666666666667" y="76.83333333333334" width="7.0" height="11.666666666666668" fill="#2f3fbf"/><rect x="108.16666666666667" y="76.83333333333334" width="7.0" height="11.666666666666668" fill="#2f3fbf"/><rect x="115.16666666666667" y="76.83333333333334" width="7.0" height="11.666666666666668" fill="#2f3fbf"/><rect x="136.16666666666669" y="76.83333333333334" width="7.0" height="11.666666666666668" fill="#2f3fbf"/><rect x="143.16666666666669" y="76.83333333333334" width="7.0" height="11.666666666666668" fill="#2f3fbf"/><rect x="164.16666666666669" y="76.83333333333334" width="7.0" height="11.666666666666668" fill="#2f3fbf"/><rect x="164.16666666666669" y="111.83333333333334" width="7.0" height="11.666666666666668" fill="#2f3fbf"/><rect x="157.16666666666669" y="111.83333333333334" width="7.0" height="11.666666666666668" fill="#2f3fbf"/><rect x="150.16666666666669" y="111.83333333333334" width="7.0" height="11.666666666666668" fill="#2f3fbf"/><rect x="136.16666666666669" y="111.83333333333334" width="7.0" height="11.666666666666668" fill="#2f3fbf"/><rect x="129.16666666666669" y="111.83333333333334" width="7.0" height="11.666666666666668" fill="#2f3fbf"/><rect x="122.16666666666667" y="111.83333333333334" width="7.0" height="11.666666666666668" fill="#2f3fbf"/><rect x="115.16666666666667" y="111.83333333333334" width="7.0" height="11.666666666666668" fill="#2f3fbf"/><rect x="101.16666666666667" y="100.16666666666669" width="7.0" height="11.666666666666668" fill="#2f3fbf"/><rect x="101.16666666666667" y="88.50000000000001" width="7.0" height="11.666666666666668" fill="#2f3fbf"/><rect x="171.16666666666669" y="76.83333333333334" width="7.0" height="11.666666666666668" fill="#2f3fbf"/><rect x="185.16666666666669" y="76.83333333333334" width="7.0" height="11.666666666666668" fill="#2f3fbf"/><rect x="192.16666666666669" y="76.83333333333334" width="7.0" height="11.666666666666668" fill="#2f3fbf"/><rect x="206.16666666666669" y="76.83333333333334" width="7.0" height="11.666666666666668" fill="#2f3fbf"/><rect x="213.16666666666669" y="76.83333333333334" width="7.0" height="11.666666666666668" fill="#2f3fbf"/><rect x="220.16666666666669" y="76.83333333333334" width="7.0" height="11.666666666666668" fill="#2f3fbf"/><rect x="227.16666666666669" y="76.83333333333334" width="7.0" height="11.666666666666668" fill="#2f3fbf"/><rect x="234.16666666666669" y="76.83333333333334" width="7.0" height="11.666666666666668" fill="#2f3fbf"/><rect x="234.16666666666669" y="111.83333333333334" width="7.0" height="11.666666666666668" fill="#2f3fbf"/><rect x="199.16666666666669" y="111.83333333333334" width="7.0" height="11.666666666666668" fill="#2f3fbf"/><rect x="178.16666666666669" y="111.83333333333334" width="7.0" height="11.666666666666668" fill="#2f3fbf"/><rect x="171.16666666666669" y="88.50000000000001" width="7.0" height="11.666666666666668" fill="#2f3fbf"/><rect x="38.16666666666667" y="123.50000000000001" width="7.0" height="11.666666666666668" fill="#000000"/><rect x="52.16666666666667" y="123.50000000000001" width="7.0" height="11.666666666666668" fill="#000000"/><rect x="73.16666666666667" y="123.50000000000001" width="7.0" height="11.666666666666668" fill="#000000"/><rect x="80.16666666666667" y="123.50000000000001" width="7.0" height="11.666666666666668" fill="#000000"/><rect x="94.16666666666667" y="123.50000000000001" width="7.0" height="11.666666666666668" fill="#000000"/><rect x="94.16666666666667" y="135.16666666666669" width="7.0" height="11.666666666666668" fill="#000000"/><rect x="73.16666666666667" y="158.50000000000003" width="7.0" height="11.666666666666668" fill="#000000"/><rect x="59.16666666666667" y="158.50000000000003" width="7.0" height="11.666666666666668" fill="#000000"/><rect x="52.16666666666667" y="158.50000000000003" width="7.0" height="11.666666666666668" fill="#000000"/><rect x="45.16666666666667" y="158.50000000000003" width="7.0" height="11.666666666666668" fill="#000000"/><rect x="38.16666666666667" y="158.50000000000003" width="7.0" height="11.666666666666668" fill="#000000"/><rect x="31.16666666666667" y="146.83333333333334" width="7.0" height="11.666666666666668" fill="#000000"/><rect x="143.16666666666669" y="123.50000000000001" width="7.0" height="11.666666666666668" fill="#e7be00"/><rect x="157.16666666666669" y="123.50000000000001" width="7.0" height="11.666666666666668" fill="#e7be00"/><rect x="164.16666666666669" y="146.83333333333334" width="7.0" height="11.666666666666668" fill="#e7be00"/><rect x="157.16666666666669" y="158.50000000000003" width="7.0" height="11.666666666666668" fill="#e7be00"/><rect x="150.16666666666669" y="158.50000000000003" width="7.0" height="11.666666666666668" fill="#e7be00"/><rect x="136.16666666666669" y="158.50000000000003" width="7.0" height="11.666666666666668" fill="#e7be00"/><rect x="129.16666666666669" y="158.50000000000003" width="7.0" height="11.666666666666668" fill="#e7be00"/><rect x="171.16666666666669" y="123.50000000000001" width="7.0" height="11.666666666666668" fill="#e7be00"/><rect x="178.16666666666669" y="123.50000000000001" width="7.0" height="11.666666666666668" fill="#e7be00"/><rect x="185.16666666666669" y="123.50000000000001" width="7.0" height="11.666666666666668" fill="#e7be00"/><rect x="192.16666666666669" y="123.50000000000001" width="7.0" height="11.666666666666668" fill="#e7be00"/><rect x="206.16666666666669" y="123.50000000000001" width="7.0" height="11.666666666666668" fill="#e7be00"/><rect x="220.16666666666669" y="123.50000000000001" width="7.0" height="11.666666666666668" fill="#e7be00"/><rect x="227.16666666666669" y="123.50000000000001" width="7.0" height="11.666666666666668" fill="#e7be00"/><rect x="234.16666666666669" y="123.50000000000001" width="7.0" height="11.666666666666668" fill="#e7be00"/><rect x="234.16666666666669" y="146.83333333333334" width="7.0" height="11.666666666666668" fill="#e7be00"/><rect x="234.16666666666669" y="158.50000000000003" width="7.0" height="11.666666666666668" fill="#e7be00"/><rect x="220.16666666666669" y="158.50000000000003" width="7.0" height="11.666666666666668" fill="#e7be00"/><rect x="213.16666666666669" y="158.50000000000003" width="7.0" height="11.666666666666668" fill="#e7be00"/><rect x="192.16666666666669" y="158.50000000000003" width="7.0" height="11.666666666666668" fill="#e7be00"/><rect x="171.16666666666669" y="158.50000000000003" width="7.0" height="11.666666666666668" fill="#e7be00"/><rect x="171.16666666666669" y="146.83333333333334" width="7.0" height="11.666666666666668" fill="#e7be00"/><rect x="171.16666666666669" y="135.16666666666669" width="7.0" height="11.666666666666668" fill="#e7be00"/><rect x="255.16666666666669" y="123.50000000000001" width="7.0" height="11.666666666666668" fill="#e7be00"/><rect x="262.1666666666667" y="123.50000000000001" width="7.0" height="11.666666666666668" fill="#e7be00"/><rect x="290.1666666666667" y="123.50000000000001" width="7.0" height="11.666666666666668" fill="#e7be00"/><rect x="297.1666666666667" y="158.50000000000003" width="7.0" height="11.666666666666668" fill="#e7be00"/><rect x="255.16666666666669" y="158.50000000000003" width="7.0" height="11.666666666666668" fill="#e7be00"/><rect x="241.16666666666669" y="158.50000000000003" width="7.0" height="11.666666666666668" fill="#e7be00"/><rect x="241.16666666666669" y="146.83333333333334" width="7.0" height="11.666666666666668" fill="#e7be00"/><rect x="31.16666666666667" y="170.16666666666669" width="7.0" height="11.666666666666668" fill="#e7be00"/><rect x="38.16666666666667" y="170.16666666666669" width="7.0" height="11.666666666666668" fill="#e7be00"/><rect x="66.16666666666667" y="170.16666666666669" width="7.0" height="11.666666666666668" fill="#e7be00"/><rect x="80.16666666666667" y="170.16666666666669" width="7.0" height="11.666666666666668" fill="#e7be00"/><rect x="87.16666666666667" y="170.16666666666669" width="7.0" height="11.666666666666668" fill="#e7be00"/><rect x="94.16666666666667" y="170.16666666666669" width="7.0" height="11.666666666666668" fill="#e7be00"/><rect x="94.16666666666667" y="181.83333333333334" width="7.0" height="11.666666666666668" fill="#e7be00"/><rect x="87.16666666666667" y="205.16666666666669" width="7.0" height="11.666666666666668" fill="#e7be00"/><rect x="80.16666666666667" y="205.16666666666669" width="7.0" height="11.666666666666668" fill="#e7be00"/><rect x="59.16666666666667" y="205.16666666666669" width="7.0" height="11.666666666666668" fill="#e7be00"/><rect x="45.16666666666667" y="205.16666666666669" width="7.0" height="11.666666666666668" fill="#e7be00"/><rect x="31.16666666666667" y="205.16666666666669" width="7.0" height="11.666666666666668" fill="#e7be00"/><rect x="31.16666666666667" y="193.5" width="7.0" height="11.666666666666668" fill="#e7be00"/><rect x="101.16666666666667" y="170.16666666666669" width="7.0" height="11.666666666666668" fill="#e7be00"/><rect x="108.16666666666667" y="170.16666666666669" width="7.0" height="11.666666666666668" fill="#e7be00"/><rect x="122.16666666666667" y="170.16666666666669" width="7.0" height="11.666666666666668" fill="#e7be00"/><rect x="136.16666666666669" y="170.16666666666669" width="7.0" height="11.666666666666668" fill="#e7be00"/><rect x="150.16666666666669" y="170.16666666666669" width="7.0" height="11.666666666666668" fill="#e7be00"/><rect x="157.16666666666669" y="170.16666666666669" width="7.0" height="11.666666666666668" fill="#e7be00"/><rect x="143.16666666666669" y="205.16666666666669" width="7.0" height="11.666666666666668" fill="#e7be00"/><rect x="136.16666666666669" y="205.16666666666669" width="7.0" height="11.666666666666668" fill="#e7be00"/><rect x="108.16666666666667" y="205.16666666666669" width="7.0" height="11.666666666666668" fill="#e7be00"/><rect x="276.1666666666667" y="170.16666666666669" width="7.0" height="11.666666666666668" fill="#ffffff"/><rect x="283.1666666666667" y="170.16666666666669" width="7.0" height="11.666666666666668" fill="#ffffff"/><rect x="290.1666666666667" y="170.16666666666669" width="7.0" height="11.666666666666668" fill="#ffffff"/><rect x="297.1666666666667" y="170.16666666666669" width="7.0" height="11.666666666666668" fill="#ffffff"/><rect x="304.1666666666667" y="170.16666666666669" width="7.0" height="11.666666666666668" fill="#ffffff"/><rect x="304.1666666666667" y="193.5" width="7.0" height="11.666666666666668" fill="#ffffff"/><rect x="304.1666666666667" y="205.16666666666669" width="7.0" height="11.666666666666668" fill="#ffffff"/><rect x="283.1666666666667" y="205.16666666666669" width="7.0" height="11.666666666666668" fill="#ffffff"/><rect x="262.1666666666667" y="205.16666666666669" width="7.0" height="11.666666666666668" fill="#ffffff"/><rect x="248.16666666666669" y="205.16666666666669" width="7.0" height="11.666666666666668" fill="#ffffff"/><rect x="241.16666666666669" y="193.5" width="7.0" height="11.666666666666668" fill="#ffffff"/><rect x="241.16666666666669" y="181.83333333333334" width="7.0" height="11.666666666666668" fill="#ffffff"/><rect x="31.16666666666667" y="216.83333333333337" width="7.0" height="11.666666666666668" fill="#2f3fbf"/><rect x="38.16666666666667" y="216.83333333333337" width="7.0" height="11.666666666666668" fill="#2f3fbf"/><rect x="52.16666666666667" y="216.83333333333337" width="7.0" height="11.666666666666668" fill="#2f3fbf"/><rect x="66.16666666666667" y="216.83333333333337" width="7.0" height="11.666666666666668" fill="#2f3fbf"/><rect x="80.16666666666667" y="216.83333333333337" width="7.0" height="11.666666666666668" fill="#2f3fbf"/><rect x="87.16666666666667" y="216.83333333333337" width="7.0" height="11.666666666666668" fill="#2f3fbf"/><rect x="94.16666666666667" y="216.83333333333337" width="7.0" height="11.666666666666668" fill="#2f3fbf"/><rect x="94.16666666666667" y="240.16666666666669" width="7.0" height="11.666666666666668" fill="#2f3fbf"/><rect x="87.16666666666667" y="251.83333333333337" width="7.0" height="11.666666666666668" fill="#2f3fbf"/><rect x="59.16666666666667" y="251.83333333333337" width="7.0" height="11.666666666666668" fill="#2f3fbf"/><rect x="52.16666666666667" y="251.83333333333337" width="7.0" height="11.666666666666668" fill="#2f3fbf"/><rect x="38.16666666666667" y="251.83333333333337" width="7.0" height="11.666666666666668" fill="#2f3fbf"/><rect x="31.16666666666667" y="251.83333333333337" width="7.0" height="11.666666666666668" fill="#2f3fbf"/><rect x="115.16666666666667" y="216.83333333333337" width="7.0" height="11.666666666666668" fill="#e7be00"/><rect x="122.16666666666667" y="216.83333333333337" width="7.0" height="11.666666666666668" fill="#e7be00"/><rect x="143.16666666666669" y="216.83333333333337" width="7.0" height="11.666666666666668" fill="#e7be00"/><rect x="150.16666666666669" y="216.83333333333337" width="7.0" height="11.666666666666668" fill="#e7be00"/><rect x="157.16666666666669" y="216.83333333333337" width="7.0" height="11.666666666666668" fill="#e7be00"/><rect x="164.16666666666669" y="240.16666666666669" width="7.0" height="11.666666666666668" fill="#e7be00"/><rect x="164.16666666666669" y="251.83333333333337" width="7.0" height="11.666666666666668" fill="#e7be00"/><rect x="157.16666666666669" y="251.83333333333337" width="7.0" height="11.666666666666668" fill="#e7be00"/><rect x="143.16666666666669" y="251.83333333333337" width="7.0" height="11.666666666666668" fill="#e7be00"/><rect x="136.16666666666669" y="251.83333333333337" width="7.0" height="11.666666666666668" fill="#e7be00"/><rect x="129.16666666666669" y="251.83333333333337" width="7.0" height="11.666666666666668" fill="#e7be00"/><rect x="122.16666666666667" y="251.83333333333337" width="7.0" height="11.666666666666668" fill="#e7be00"/><rect x="115.16666666666667" y="251.83333333333337" width="7.0" height="11.666666666666668" fill="#e7be00"/><rect x="108.16666666666667" y="251.83333333333337" width="7.0" height="11.666666666666668" fill="#e7be00"/><rect x="101.16666666666667" y="240.16666666666669" width="7.0" height="11.666666666666668" fill="#e7be00"/><rect x="101.16666666666667" y="228.50000000000003" width="7.0" height="11.666666666666668" fill="#e7be00"/><rect x="171.16666666666669" y="216.83333333333337" width="7.0" height="11.666666666666668" fill="#2f3fbf"/><rect x="192.16666666666669" y="216.83333333333337" width="7.0" height="11.666666666666668" fill="#2f3fbf"/><rect x="220.16666666666669" y="216.83333333333337" width="7.0" height="11.666666666666668" fill="#2f3fbf"/><rect x="234.16666666666669" y="216.83333333333337" width="7.0" height="11.666666666666668" fill="#2f3fbf"/><rect x="227.16666666666669" y="251.83333333333337" width="7.0" height="11.666666666666668" fill="#2f3fbf"/><rect x="220.16666666666669" y="251.83333333333337" width="7.0" height="11.666666666666668" fill="#2f3fbf"/><rect x="213.16666666666669" y="251.83333333333337" width="7.0" height="11.666666666666668" fill="#2f3fbf"/><rect x="199.16666666666669" y="251.83333333333337" width="7.0" height="11.666666666666668" fill="#2f3fbf"/><rect x="178.16666666666669" y="251.83333333333337" width="7.0" height="11.666666666666668" fill="#2f3fbf"/><rect x="171.16666666666669" y="251.83333333333337" width="7.0" height="11.666666666666668" fill="#2f3fbf"/><rect x="255.16666666666669" y="216.83333333333337" width="7.0" height="11.666666666666668" fill="#2f3fbf"/><rect x="262.1666666666667" y="216.83333333333337" width="7.0" height="11.666666666666668" fill="#2f3fbf"/><rect x="269.1666666666667" y="216.83333333333337" width="7.0" height="11.666666666666668" fill="#2f3fbf"/><rect x="276.1666666666667" y="216.83333333333337" width="7.0" height="11.666666666666668" fill="#2f3fbf"/><rect x="304.1666666666667" y="240.16666666666669" width="7.0" height="11.666666666666668" fill="#2f3fbf"/><rect x="304.1666666666667" y="251.83333333333337" width="7.0" height="11.666666666666668" fill="#2f3fbf"/><rect x="297.1666666666667" y="251.83333333333337" width="7.0" height="11.666666666666668" fill="#2f3fbf"/><rect x="290.1666666666667" y="251.83333333333337" width="7.0" height="11.666666666666668" fill="#2f3fbf"/><rect x="269.1666666666667" y="251.83333333333337" width="7.0" height="11.666666666666668" fill="#2f3fbf"/><rect x="241.16666666666669" y="251.83333333333337" width="7.0" height="11.666666666666668" fill="#2f3fbf"/><rect x="241.16666666666669" y="240.16666666666669" width="7.0" height="11.666666666666668" fill="#2f3fbf"/><rect x="31.16666666666667" y="263.50000000000006" width="7.0" height="11.666666666666668" fill="#ffffff"/><rect x="38.16666666666667" y="263.50000000000006" width="7.0" height="11.666666666666668" fill="#ffffff"/><rect x="45.16666666666667" y="263.50000000000006" width="7.0" height="11.666666666666668" fill="#ffffff"/><rect x="66.16666666666667" y="263.50000000000006" width="7.0" height="11.666666666666668" fill="#ffffff"/><rect x="87.16666666666667" y="263.50000000000006" width="7.0" height="11.666666666666668" fill="#ffffff"/><rect x="94.16666666666667" y="275.16666666666674" width="7.0" height="11.666666666666668" fill="#ffffff"/><rect x="94.16666666666667" y="286.8333333333334" width="7.0" height="11.666666666666668" fill="#ffffff"/><rect x="87.16666666666667" y="298.50000000000006" width="7.0" height="11.666666666666668" fill="#ffffff"/><rect x="80.16666666666667" y="298.50000000000006" width="7.0" height="11.666666666666668" fill="#ffffff"/><rect x="73.16666666666667" y="298.50000000000006" width="7.0" height="11.666666666666668" fill="#ffffff"/><rect x="66.16666666666667" y="298.50000000000006" width="7.0" height="11.666666666666668" fill="#ffffff"/><rect x="59.16666666666667" y="298.50000000000006" width="7.0" height="11.666666666666668" fill="#ffffff"/><rect x="52.16666666666667" y="298.50000000000006" width="7.0" height="11.666666666666668" fill="#ffffff"/><rect x="45.16666666666667" y="298.50000000000006" width="7.0" height="11.666666666666668" fill="#ffffff"/><rect x="31.16666666666667" y="298.50000000000006" width="7.0" height="11.666666666666668" fill="#ffffff"/><rect x="31.16666666666667" y="286.8333333333334" width="7.0" height="11.666666666666668" fill="#ffffff"/><rect x="101.16666666666667" y="263.50000000000006" width="7.0" height="11.666666666666668" fill="#ffffff"/><rect x="115.16666666666667" y="263.50000000000006" width="7.0" height="11.666666666666668" fill="#ffffff"/><rect x="122.16666666666667" y="263.50000000000006" width="7.0" height="11.666666666666668" fill="#ffffff"/><rect x="129.16666666666669" y="263.50000000000006" width="7.0" height="11.666666666666668" fill="#ffffff"/><rect x="136.16666666666669" y="263.50000000000006" width="7.0" height="11.666666666666668" fill="#ffffff"/><rect x="143.16666666666669" y="263.50000000000006" width="7.0" height="11.666666666666668" fill="#ffffff"/><rect x="164.16666666666669" y="286.8333333333334" width="7.0" height="11.666666666666668" fill="#ffffff"/><rect x="164.16666666666669" y="298.50000000000006" width="7.0" height="11.666666666666668" fill="#ffffff"/><rect x="157.16666666666669" y="298.50000000000006" width="7.0" height="11.666666666666668" fill="#ffffff"/><rect x="143.16666666666669" y="298.50000000000006" width="7.0" height="11.666666666666668" fill="#ffffff"/><rect x="136.16666666666669" y="298.50000000000006" width="7.0" height="11.666666666666668" fill="#ffffff"/><rect x="129.16666666666669" y="298.50000000000006" width="7.0" height="11.666666666666668" fill="#ffffff"/><rect x="122.16666666666667" y="298.50000000000006" width="7.0" height="11.666666666666668" fill="#ffffff"/><rect x="115.16666666666667" y="298.50000000000006" width="7.0" height="11.666666666666668" fill="#ffffff"/><rect x="108.16666666666667" y="298.50000000000006" width="7.0" height="11.666666666666668" fill="#ffffff"/><rect x="171.16666666666669" y="263.50000000000006" width="7.0" height="11.666666666666668" fill="#e7be00"/><rect x="178.16666666666669" y="263.50000000000006" width="7.0" height="11.666666666666668" fill="#e7be00"/><rect x="185.16666666666669" y="263.50000000000006" width="7.0" height="11.666666666666668" fill="#e7be00"/><rect x="213.16666666666669" y="263.50000000000006" width="7.0" height="11.666666666666668" fill="#e7be00"/><rect x="220.16666666666669" y="263.50000000000006" width="7.0" height="11.666666666666668" fill="#e7be00"/><rect x="234.16666666666669" y="275.16666666666674" width="7.0" height="11.666666666666668" fill="#e7be00"/><rect x="234.16666666666669" y="298.50000000000006" width="7.0" height="11.666666666666668" fill="#e7be00"/><rect x="213.16666666666669" y="298.50000000000006" width="7.0" height="11.666666666666668" fill="#e7be00"/><rect x="199.16666666666669" y="298.50000000000006" width="7.0" height="11.666666666666668" fill="#e7be00"/><rect x="192.16666666666669" y="298.50000000000006" width="7.0" height="11.666666666666668" fill="#e7be00"/><rect x="171.16666666666669" y="286.8333333333334" width="7.0" height="11.666666666666668" fill="#e7be00"/><rect x="171.16666666666669" y="275.16666666666674" width="7.0" height="11.666666666666668" fill="#e7be00"/></g><g clip-path="url(#grid-clip-c9a8f1a52b1211b6-4x6)" data-channel="ellipse" data-ellipse-anchor-x="241.16666666666669" data-ellipse-anchor-y="170.16666666666669" data-ellipse-rx="61.58281578492494" data-ellipse-ry="110.04142492716095" data-ellipse-rotation-deg="180.0"><ellipse cx="241.16666666666669" cy="170.16666666666669" rx="61.58281578492494" ry="110.04142492716095" transform="rotate(180.0 241.16666666666669 170.16666666666669)" fill="#000000" stroke="#000000" fill-opacity="0.25" stroke-opacity="0.35" stroke-width="2.3333333333333335"/></g><g><g data-channel="cell" data-cell-index="0" data-cell-row="0" data-cell-col="0"><rect x="38.16666666666667" y="41.83333333333334" width="56.0" height="23.333333333333336" fill="#96a96a"/><text x="66.16666666666667" y="53.500000000000014" fill="#000000" style="font-family: &quot;JetBrains Mono&quot;, &quot;Menlo&quot;, &quot;Consolas&quot;, &quot;DejaVu Sans Mono&quot;, &quot;Liberation Mono&quot;, &quot;Roboto Mono&quot;, &quot;Noto Sans Mono&quot;, monospace; font-size: 13.333333333333334px;" text-anchor="middle" dominant-baseline="central">6aa996</text></g><g data-channel="cell" data-cell-index="1" data-cell-row="0" data-cell-col="1"><rect x="108.16666666666667" y="41.83333333333334" width="56.0" height="23.333333333333336" fill="#38ad1d"/><text x="136.16666666666669" y="53.500000000000014" fill="#000000" style="font-family: &quot;JetBrains Mono&quot;, &quot;Menlo&quot;, &quot;Consolas&quot;, &quot;DejaVu Sans Mono&quot;, &quot;Liberation Mono&quot;, &quot;Roboto Mono&quot;, &quot;Noto Sans Mono&quot;, monospace; font-size: 13.333333333333334px;" text-anchor="middle" dominant-baseline="central">1dad38</text></g><g data-channel="cell" data-cell-index="2" data-cell-row="0" data-cell-col="2" data-cell-quartile="3"><rect x="178.16666666666669" y="41.83333333333334" width="56.0" height="23.333333333333336" fill="#3f3cce"/><text x="206.16666666666669" y="53.500000000000014" fill="#ffffff" style="font-family: &quot;JetBrains Mono&quot;, &quot;Menlo&quot;, &quot;Consolas&quot;, &quot;DejaVu Sans Mono&quot;, &quot;Liberation Mono&quot;, &quot;Roboto Mono&quot;, &quot;Noto Sans Mono&quot;, monospace; font-size: 13.333333333333334px;" text-anchor="middle" dominant-baseline="central">ce3c3f</text><polygon points="234.16666666666669,65.16666666666669 234.16666666666669,53.500000000000014 222.50000000000003,65.16666666666669" fill="#ffffff"/></g><g data-channel="cell" data-cell-index="3" data-cell-row="0" data-cell-col="3"><rect x="248.16666666666669" y="41.83333333333334" width="56.0" height="23.333333333333336" fill="#e93f26"/><text x="276.1666666666667" y="53.500000000000014" fill="#000000" style="font-family: &quot;JetBrains Mono&quot;, &quot;Menlo&quot;, &quot;Consolas&quot;, &quot;DejaVu Sans Mono&quot;, &quot;Liberation Mono&quot;, &quot;Roboto Mono&quot;, &quot;Noto Sans Mono&quot;, monospace; font-size: 13.333333333333334px;" text-anchor="middle" dominant-baseline="central">263fe9</text></g><g data-channel="cell" data-cell-index="4" data-cell-row="1" data-cell-col="0" data-cell-blank="true" data-cell-blank-map="true"><rect x="38.16666666666667" y="88.50000000000001" width="56.0" height="23.333333333333336" rx="11.666666666666668" ry="11.666666666666668" fill="#ffffff" stroke="#000000" stroke-width="1"/><circle cx="59.16666666666667" cy="98.22222222222224" r="4.083333333333334" fill="#1d4ed8" data-blank-map-min="2,1"/><path d="M 68.26666666666667,98.22222222222224 H 78.06666666666668 M 73.16666666666667,93.32222222222224 V 103.12222222222225" fill="none" stroke="#d62828" stroke-width="2.245833333333334" stroke-linecap="butt" data-blank-map-max="2,2"/></g><g data-channel="cell" data-cell-index="5" data-cell-row="1" data-cell-col="1"><rect x="108.16666666666667" y="88.50000000000001" width="56.0" height="23.333333333333336" fill="#8024a9"/><text x="136.16666666666669" y="100.16666666666669" fill="#ffffff" style="font-family: &quot;JetBrains Mono&quot;, &quot;Menlo&quot;, &quot;Consolas&quot;, &quot;DejaVu Sans Mono&quot;, &quot;Liberation Mono&quot;, &quot;Roboto Mono&quot;, &quot;Noto Sans Mono&quot;, monospace; font-size: 13.333333333333334px;" text-anchor="middle" dominant-baseline="central">a92480</text></g><g data-channel="cell" data-cell-index="6" data-cell-row="1" data-cell-col="2"><rect x="178.16666666666669" y="88.50000000000001" width="56.0" height="23.333333333333336" fill="#2d5e91"/><text x="206.16666666666669" y="100.16666666666669" fill="#ffffff" style="font-family: &quot;JetBrains Mono&quot;, &quot;Menlo&quot;, &quot;Consolas&quot;, &quot;DejaVu Sans Mono&quot;, &quot;Liberation Mono&quot;, &quot;Roboto Mono&quot;, &quot;Noto Sans Mono&quot;, monospace; font-size: 13.333333333333334px;" text-anchor="middle" dominant-baseline="central">915e2d</text></g><g data-channel="cell" data-cell-index="7" data-cell-row="1" data-cell-col="3" data-cell-blank="true"><rect x="248.16666666666669" y="88.50000000000001" width="56.0" height="23.333333333333336" rx="11.666666666666668" ry="11.666666666666668" fill="none" stroke="#000000" stroke-width="1"/></g><g data-channel="cell" data-cell-index="8" data-cell-row="2" data-cell-col="0" data-cell-quartile="2"><rect x="38.16666666666667" y="135.16666666666669" width="56.0" height="23.333333333333336" fill="#5e1f22"/><text x="66.16666666666667" y="146.83333333333334" fill="#ffffff" style="font-family: &quot;JetBrains Mono&quot;, &quot;Menlo&quot;, &quot;Consolas&quot;, &quot;DejaVu Sans Mono&quot;, &quot;Liberation Mono&quot;, &quot;Roboto Mono&quot;, &quot;Noto Sans Mono&quot;, monospace; font-size: 13.333333333333334px;" text-anchor="middle" dominant-baseline="central">221f5e</text><polygon points="94.16666666666667,135.16666666666669 82.5,135.16666666666669 94.16666666666667,146.83333333333334" fill="#ffffff"/></g><g data-channel="cell" data-cell-index="9" data-cell-row="2" data-cell-col="1"><rect x="108.16666666666667" y="135.16666666666669" width="56.0" height="23.333333333333336" fill="#cf6a5b"/><text x="136.16666666666669" y="146.83333333333334" fill="#000000" style="font-family: &quot;JetBrains Mono&quot;, &quot;Menlo&quot;, &quot;Consolas&quot;, &quot;DejaVu Sans Mono&quot;, &quot;Liberation Mono&quot;, &quot;Roboto Mono&quot;, &quot;Noto Sans Mono&quot;, monospace; font-size: 13.333333333333334px;" text-anchor="middle" dominant-baseline="central">5b6acf</text></g><g data-channel="cell" data-cell-index="10" data-cell-row="2" data-cell-col="2" data-cell-fingerprint="true"><rect x="178.16666666666669" y="135.16666666666669" width="56.0" height="23.333333333333336" fill="#ff3f2f"/><rect x="178.66666666666669" y="135.66666666666669" width="55.0" height="22.333333333333336" fill="none" stroke="#ffffff" stroke-width="1"/><text x="206.16666666666669" y="146.83333333333334" fill="#000000" style="font-family: &quot;JetBrains Mono&quot;, &quot;Menlo&quot;, &quot;Consolas&quot;, &quot;DejaVu Sans Mono&quot;, &quot;Liberation Mono&quot;, &quot;Roboto Mono&quot;, &quot;Noto Sans Mono&quot;, monospace; font-size: 14.666666666666666px;" text-anchor="middle" dominant-baseline="central">3b1wv</text></g><g data-channel="cell" data-cell-index="11" data-cell-row="2" data-cell-col="3" data-cell-fingerprint="true"><rect x="248.16666666666669" y="135.16666666666669" width="56.0" height="23.333333333333336" fill="#ff3f2f"/><rect x="248.66666666666669" y="135.66666666666669" width="55.0" height="22.333333333333336" fill="none" stroke="#ffffff" stroke-width="1"/><text x="276.1666666666667" y="146.83333333333334" fill="#000000" style="font-family: &quot;JetBrains Mono&quot;, &quot;Menlo&quot;, &quot;Consolas&quot;, &quot;DejaVu Sans Mono&quot;, &quot;Liberation Mono&quot;, &quot;Roboto Mono&quot;, &quot;Noto Sans Mono&quot;, monospace; font-size: 14.666666666666666px;" text-anchor="middle" dominant-baseline="central">891ex</text></g><g data-channel="cell" data-cell-index="12" data-cell-row="3" data-cell-col="0" data-cell-fingerprint="true"><rect x="38.16666666666667" y="181.83333333333334" width="56.0" height="23.333333333333336" fill="#ff3f2f"/><rect x="38.66666666666667" y="182.33333333333334" width="55.0" height="22.333333333333336" fill="none" stroke="#ffffff" stroke-width="1"/><text x="66.16666666666667" y="193.5" fill="#000000" style="font-family: &quot;JetBrains Mono&quot;, &quot;Menlo&quot;, &quot;Consolas&quot;, &quot;DejaVu Sans Mono&quot;, &quot;Liberation Mono&quot;, &quot;Roboto Mono&quot;, &quot;Noto Sans Mono&quot;, monospace; font-size: 14.666666666666666px;" text-anchor="middle" dominant-baseline="central">cdmhr</text></g><g data-channel="cell" data-cell-index="13" data-cell-row="3" data-cell-col="1" data-cell-fingerprint="true" data-cell-quartile="4"><rect x="108.16666666666667" y="181.83333333333334" width="56.0" height="23.333333333333336" fill="#ff3f2f"/><rect x="108.66666666666667" y="182.33333333333334" width="55.0" height="22.333333333333336" fill="none" stroke="#ffffff" stroke-width="1"/><text x="136.16666666666669" y="193.5" fill="#000000" style="font-family: &quot;JetBrains Mono&quot;, &quot;Menlo&quot;, &quot;Consolas&quot;, &quot;DejaVu Sans Mono&quot;, &quot;Liberation Mono&quot;, &quot;Roboto Mono&quot;, &quot;Noto Sans Mono&quot;, monospace; font-size: 14.666666666666666px;" text-anchor="middle" dominant-baseline="central">ag8kj</text><polygon points="108.16666666666667,205.16666666666669 108.16666666666667,193.50000000000003 119.83333333333334,205.16666666666669" fill="#ffffff"/></g><g data-channel="cell" data-cell-index="14" data-cell-row="3" data-cell-col="2" data-cell-blank="true"><rect x="178.16666666666669" y="181.83333333333334" width="56.0" height="23.333333333333336" rx="11.666666666666668" ry="11.666666666666668" fill="none" stroke="#000000" stroke-width="1"/></g><g data-channel="cell" data-cell-index="15" data-cell-row="3" data-cell-col="3"><rect x="248.16666666666669" y="181.83333333333334" width="56.0" height="23.333333333333336" fill="#f685e8"/><text x="276.1666666666667" y="193.5" fill="#000000" style="font-family: &quot;JetBrains Mono&quot;, &quot;Menlo&quot;, &quot;Consolas&quot;, &quot;DejaVu Sans Mono&quot;, &quot;Liberation Mono&quot;, &quot;Roboto Mono&quot;, &quot;Noto Sans Mono&quot;, monospace; font-size: 13.333333333333334px;" text-anchor="middle" dominant-baseline="central">e885f6</text></g><g data-channel="cell" data-cell-index="16" data-cell-row="4" data-cell-col="0"><rect x="38.16666666666667" y="228.50000000000003" width="56.0" height="23.333333333333336" fill="#b768d5"/><text x="66.16666666666667" y="240.16666666666669" fill="#000000" style="font-family: &quot;JetBrains Mono&quot;, &quot;Menlo&quot;, &quot;Consolas&quot;, &quot;DejaVu Sans Mono&quot;, &quot;Liberation Mono&quot;, &quot;Roboto Mono&quot;, &quot;Noto Sans Mono&quot;, monospace; font-size: 13.333333333333334px;" text-anchor="middle" dominant-baseline="central">d568b7</text></g><g data-channel="cell" data-cell-index="17" data-cell-row="4" data-cell-col="1"><rect x="108.16666666666667" y="228.50000000000003" width="56.0" height="23.333333333333336" fill="#3df442"/><text x="136.16666666666669" y="240.16666666666669" fill="#000000" style="font-family: &quot;JetBrains Mono&quot;, &quot;Menlo&quot;, &quot;Consolas&quot;, &quot;DejaVu Sans Mono&quot;, &quot;Liberation Mono&quot;, &quot;Roboto Mono&quot;, &quot;Noto Sans Mono&quot;, monospace; font-size: 13.333333333333334px;" text-anchor="middle" dominant-baseline="central">42f43d</text></g><g data-channel="cell" data-cell-index="18" data-cell-row="4" data-cell-col="2"><rect x="178.16666666666669" y="228.50000000000003" width="56.0" height="23.333333333333336" fill="#576299"/><text x="206.16666666666669" y="240.16666666666669" fill="#ffffff" style="font-family: &quot;JetBrains Mono&quot;, &quot;Menlo&quot;, &quot;Consolas&quot;, &quot;DejaVu Sans Mono&quot;, &quot;Liberation Mono&quot;, &quot;Roboto Mono&quot;, &quot;Noto Sans Mono&quot;, monospace; font-size: 13.333333333333334px;" text-anchor="middle" dominant-baseline="central">996257</text></g><g data-channel="cell" data-cell-index="19" data-cell-row="4" data-cell-col="3" data-cell-quartile="1"><rect x="248.16666666666669" y="228.50000000000003" width="56.0" height="23.333333333333336" fill="#d86dfc"/><text x="276.1666666666667" y="240.16666666666669" fill="#000000" style="font-family: &quot;JetBrains Mono&quot;, &quot;Menlo&quot;, &quot;Consolas&quot;, &quot;DejaVu Sans Mono&quot;, &quot;Liberation Mono&quot;, &quot;Roboto Mono&quot;, &quot;Noto Sans Mono&quot;, monospace; font-size: 13.333333333333334px;" text-anchor="middle" dominant-baseline="central">fc6dd8</text><polygon points="248.16666666666669,228.50000000000003 259.83333333333337,228.50000000000003 248.16666666666669,240.16666666666669" fill="#000000"/></g><g data-channel="cell" data-cell-index="20" data-cell-row="5" data-cell-col="0"><rect x="38.16666666666667" y="275.16666666666674" width="56.0" height="23.333333333333336" fill="#b8c1d3"/><text x="66.16666666666667" y="286.8333333333334" fill="#000000" style="font-family: &quot;JetBrains Mono&quot;, &quot;Menlo&quot;, &quot;Consolas&quot;, &quot;DejaVu Sans Mono&quot;, &quot;Liberation Mono&quot;, &quot;Roboto Mono&quot;, &quot;Noto Sans Mono&quot;, monospace; font-size: 13.333333333333334px;" text-anchor="middle" dominant-baseline="central">d3c1b8</text></g><g data-channel="cell" data-cell-index="21" data-cell-row="5" data-cell-col="1"><rect x="108.16666666666667" y="275.16666666666674" width="56.0" height="23.333333333333336" fill="#bbb4b4"/><text x="136.16666666666669" y="286.8333333333334" fill="#000000" style="font-family: &quot;JetBrains Mono&quot;, &quot;Menlo&quot;, &quot;Consolas&quot;, &quot;DejaVu Sans Mono&quot;, &quot;Liberation Mono&quot;, &quot;Roboto Mono&quot;, &quot;Noto Sans Mono&quot;, monospace; font-size: 13.333333333333334px;" text-anchor="middle" dominant-baseline="central">b4b4bb</text></g><g data-channel="cell" data-cell-index="22" data-cell-row="5" data-cell-col="2"><rect x="178.16666666666669" y="275.16666666666674" width="56.0" height="23.333333333333336" fill="#cd8990"/><text x="206.16666666666669" y="286.8333333333334" fill="#000000" style="font-family: &quot;JetBrains Mono&quot;, &quot;Menlo&quot;, &quot;Consolas&quot;, &quot;DejaVu Sans Mono&quot;, &quot;Liberation Mono&quot;, &quot;Roboto Mono&quot;, &quot;Noto Sans Mono&quot;, monospace; font-size: 13.333333333333334px;" text-anchor="middle" dominant-baseline="central">9089cd</text></g><g data-channel="cell" data-cell-index="23" data-cell-row="5" data-cell-col="3" data-cell-blank="true"><rect x="248.16666666666669" y="275.16666666666674" width="56.0" height="23.333333333333336" rx="11.666666666666668" ry="11.666666666666668" fill="none" stroke="#000000" stroke-width="1"/></g></g></g><g xmlns="http://www.w3.org/2000/svg" data-channel="color-bar" data-bar-slots="16" data-bar-marker-left="13" data-bar-marker-right="14"><g data-color-bar-rank="0" data-color-bar-band="G"><rect x="1" y="1" width="23.333333333333336" height="43.71830994820215" fill="#e7be00"/><text x="12.666666666666668" y="41.78497661486881" fill="#000000" style="font-family: &quot;JetBrains Mono&quot;, &quot;Menlo&quot;, &quot;Consolas&quot;, &quot;DejaVu Sans Mono&quot;, &quot;Liberation Mono&quot;, &quot;Roboto Mono&quot;, &quot;Noto Sans Mono&quot;, monospace; font-size: 13.333333333333334px;" text-anchor="middle" data-color-bar-letter="true">g</text></g><g data-color-bar-rank="1" data-color-bar-band="B"><rect x="1" y="44.71830994820215" width="23.333333333333336" height="126.24166017473007" fill="#2f3fbf"/><text x="12.666666666666668" y="168.02663678959888" fill="#ffffff" style="font-family: &quot;JetBrains Mono&quot;, &quot;Menlo&quot;, &quot;Consolas&quot;, &quot;DejaVu Sans Mono&quot;, &quot;Liberation Mono&quot;, &quot;Roboto Mono&quot;, &quot;Noto Sans Mono&quot;, monospace; font-size: 13.333333333333334px;" text-anchor="middle" data-color-bar-letter="true">b</text></g><g data-color-bar-rank="2" data-color-bar-band="W"><rect x="1" y="170.95997012293222" width="23.333333333333336" height="65.68678630270199" fill="#ffffff"/><text x="12.666666666666668" y="233.71342309230087" fill="#000000" style="font-family: &quot;JetBrains Mono&quot;, &quot;Menlo&quot;, &quot;Consolas&quot;, &quot;DejaVu Sans Mono&quot;, &quot;Liberation Mono&quot;, &quot;Roboto Mono&quot;, &quot;Noto Sans Mono&quot;, monospace; font-size: 13.333333333333334px;" text-anchor="middle" data-color-bar-letter="true">w</text></g><g data-color-bar-rank="3" data-color-bar-band="K"><rect x="1" y="236.6467564256342" width="23.333333333333336" height="79.35324357436579" fill="#000000"/><text x="12.666666666666668" y="313.06666666666666" fill="#ffffff" style="font-family: &quot;JetBrains Mono&quot;, &quot;Menlo&quot;, &quot;Consolas&quot;, &quot;DejaVu Sans Mono&quot;, &quot;Liberation Mono&quot;, &quot;Roboto Mono&quot;, &quot;Noto Sans Mono&quot;, monospace; font-size: 13.333333333333334px;" text-anchor="middle" data-color-bar-letter="true">k</text></g><circle cx="6.366666666666667" cy="266.78125" r="3.9666666666666672" fill="#ffffff" stroke="#000000" stroke-width="0.75" data-bar-marker="left"/><circle cx="18.96666666666667" cy="286.46875" r="3.9666666666666672" fill="#ffffff" stroke="#000000" stroke-width="0.75" data-bar-marker="right"/></g><g xmlns="http://www.w3.org/2000/svg" data-channel="label-top"><text x="31.16666666666667" y="18.500000000000004" fill="#666666" style="font-family: &quot;JetBrains Mono&quot;, &quot;Menlo&quot;, &quot;Consolas&quot;, &quot;DejaVu Sans Mono&quot;, &quot;Liberation Mono&quot;, &quot;Roboto Mono&quot;, &quot;Noto Sans Mono&quot;, monospace; font-size: 13.333333333333334px;" dominant-baseline="central"><tspan fill="#a00000" font-weight="bold">fingerprint of </tspan>hex(256):</text></g><line xmlns="http://www.w3.org/2000/svg" x1="0" y1="0.5" x2="318.0" y2="0.5" stroke="#808080" stroke-width="1" shape-rendering="crispEdges"/><line xmlns="http://www.w3.org/2000/svg" x1="317.5" y1="0" x2="317.5" y2="317.0" stroke="#808080" stroke-width="1" shape-rendering="crispEdges"/><line xmlns="http://www.w3.org/2000/svg" x1="0" y1="316.5" x2="318.0" y2="316.5" stroke="#808080" stroke-width="1" shape-rendering="crispEdges"/><line xmlns="http://www.w3.org/2000/svg" x1="0.5" y1="0" x2="0.5" y2="317.0" stroke="#808080" stroke-width="1" shape-rendering="crispEdges"/><line xmlns="http://www.w3.org/2000/svg" x1="24.833333333333336" y1="0" x2="24.833333333333336" y2="317.0" stroke="#808080" stroke-width="1" shape-rendering="crispEdges"/></svg><line x1="139.07" y1="127.93" x2="482.00" y2="92.00" stroke="#3f5b73" stroke-width="1.0"/><line x1="482.00" y1="92.00" x2="500.00" y2="96.00" stroke="#3f5b73" stroke-width="1.0"/><circle cx="139.07" cy="127.93" r="2.6" fill="#3f5b73"/><text x="500.00" y="92.00" font-family="'DejaVu Sans', 'Bitstream Vera Sans', Verdana, sans-serif" font-size="13px" font-weight="bold" text-anchor="start" fill="#2b2b33">head</text><text x="500.00" y="111.00" font-family="'DejaVu Sans', 'Bitstream Vera Sans', Verdana, sans-serif" font-size="12px" font-weight="normal" text-anchor="start" fill="#5a5f6a">first tokens of the real input</text><line x1="306.36" y1="239.46" x2="482.00" y2="164.00" stroke="#3f5b73" stroke-width="1.0"/><line x1="482.00" y1="164.00" x2="500.00" y2="168.00" stroke="#3f5b73" stroke-width="1.0"/><circle cx="306.36" cy="239.46" r="2.6" fill="#3f5b73"/><text x="500.00" y="164.00" font-family="'DejaVu Sans', 'Bitstream Vera Sans', Verdana, sans-serif" font-size="13px" font-weight="bold" text-anchor="start" fill="#b00020">fingerprint-middle</text><text x="500.00" y="183.00" font-family="'DejaVu Sans', 'Bitstream Vera Sans', Verdana, sans-serif" font-size="12px" font-weight="normal" text-anchor="start" fill="#5a5f6a">a digest in Crockford base32, framed — not the user's data</text><line x1="306.36" y1="406.76" x2="482.00" y2="236.00" stroke="#3f5b73" stroke-width="1.0"/><line x1="482.00" y1="236.00" x2="500.00" y2="240.00" stroke="#3f5b73" stroke-width="1.0"/><circle cx="306.36" cy="406.76" r="2.6" fill="#3f5b73"/><text x="500.00" y="236.00" font-family="'DejaVu Sans', 'Bitstream Vera Sans', Verdana, sans-serif" font-size="13px" font-weight="bold" text-anchor="start" fill="#2b2b33">tail</text><text x="500.00" y="255.00" font-family="'DejaVu Sans', 'Bitstream Vera Sans', Verdana, sans-serif" font-size="12px" font-weight="normal" text-anchor="start" fill="#5a5f6a">last tokens of the real input</text><text x="492.00" y="484.81" font-family="'DejaVu Sans', 'Bitstream Vera Sans', Verdana, sans-serif" font-size="12px" font-weight="normal" text-anchor="middle" fill="#5a5f6a">Head and tail show real input; the four framed middle cells show a domain-separated digest (Crockford base32) that avalanches on any change.</text></svg>
