<svg xmlns="http://www.w3.org/2000/svg" width="838.80" height="335.08" viewBox="0 0 838.80 335.08" font-family="'DejaVu Sans', 'Bitstream Vera Sans', Verdana, sans-serif" data-spec-version="v11" data-generator="scripts/paper_figures.py"><rect x="0.00" y="0.00" width="838.80" height="335.08" fill="#ffffff" stroke="none" stroke-width="1.0"/><svg x="139.40" y="30.00" width="250.00" height="225.35" viewBox="0.000 0.000 213.000 192.000"><defs xmlns="http://www.w3.org/2000/svg"><clipPath id="grid-clip-ad2981aa58beca63-3x4"><rect x="27" y="26" width="180" height="160"/></clipPath></defs><rect xmlns="http://www.w3.org/2000/svg" x="0" y="0" width="213" height="192" fill="#ffffff"/><g xmlns="http://www.w3.org/2000/svg" data-channel="grid"><rect x="27" y="26" width="180" height="160" fill="#2f3fbf"/><g><path fill="#e7be00" d="M27 26h6v10h-6zM69 26h6v10h-6zM75 26h6v10h-6zM81 46h6v10h-6zM75 56h6v10h-6zM57 56h6v10h-6zM45 56h6v10h-6zM39 56h6v10h-6zM27 56h6v10h-6zM27 36h6v10h-6z"/><path fill="#ff3f2f" d="M93 26h6v10h-6zM99 26h6v10h-6zM105 26h6v10h-6zM111 26h6v10h-6zM117 26h6v10h-6zM129 26h6v10h-6zM141 46h6v10h-6zM141 56h6v10h-6zM129 56h6v10h-6zM111 56h6v10h-6zM99 56h6v10h-6zM87 56h6v10h-6zM87 36h6v10h-6z"/><path fill="#ffffff" d="M159 26h6v10h-6zM177 26h6v10h-6zM189 26h6v10h-6zM195 26h6v10h-6zM201 26h6v10h-6zM195 56h6v10h-6zM189 56h6v10h-6zM171 56h6v10h-6zM159 56h6v10h-6zM147 46h6v10h-6zM147 36h6v10h-6z"/><path fill="#000000" d="M27 66h6v10h-6zM51 66h6v10h-6zM57 66h6v10h-6zM81 86h6v10h-6zM63 96h6v10h-6zM57 96h6v10h-6zM51 96h6v10h-6zM39 96h6v10h-6zM33 96h6v10h-6zM27 76h6v10h-6z"/><path fill="#e7be00" d="M87 66h6v10h-6zM105 66h6v10h-6zM129 66h6v10h-6zM135 66h6v10h-6zM141 66h6v10h-6zM141 86h6v10h-6zM129 96h6v10h-6zM117 96h6v10h-6zM111 96h6v10h-6zM105 96h6v10h-6zM87 96h6v10h-6z"/><path fill="#000000" d="M153 66h6v10h-6zM159 66h6v10h-6zM177 66h6v10h-6zM183 66h6v10h-6zM195 66h6v10h-6zM201 66h6v10h-6zM201 76h6v10h-6zM201 96h6v10h-6zM159 96h6v10h-6zM153 96h6v10h-6zM147 86h6v10h-6zM147 76h6v10h-6z"/><path fill="#ff3f2f" d="M27 106h6v10h-6zM45 106h6v10h-6zM51 106h6v10h-6zM57 106h6v10h-6zM63 106h6v10h-6zM75 106h6v10h-6zM81 116h6v10h-6zM81 126h6v10h-6zM81 136h6v10h-6zM75 136h6v10h-6zM51 136h6v10h-6zM27 136h6v10h-6zM27 116h6v10h-6z"/><path fill="#ffffff" d="M147 106h6v10h-6zM153 106h6v10h-6zM159 106h6v10h-6zM165 106h6v10h-6zM183 106h6v10h-6zM195 106h6v10h-6zM201 106h6v10h-6zM201 116h6v10h-6zM189 136h6v10h-6zM171 136h6v10h-6zM153 136h6v10h-6zM147 136h6v10h-6z"/><path fill="#000000" d="M39 146h6v10h-6zM45 146h6v10h-6zM51 146h6v10h-6zM63 146h6v10h-6zM75 146h6v10h-6zM81 156h6v10h-6zM75 176h6v10h-6zM69 176h6v10h-6zM63 176h6v10h-6zM57 176h6v10h-6zM51 176h6v10h-6z"/><path fill="#ff3f2f" d="M93 146h6v10h-6zM99 146h6v10h-6zM105 146h6v10h-6zM111 146h6v10h-6zM117 146h6v10h-6zM129 146h6v10h-6zM141 156h6v10h-6zM141 166h6v10h-6zM93 176h6v10h-6zM87 176h6v10h-6zM87 166h6v10h-6zM87 156h6v10h-6z"/><path fill="#ffffff" d="M153 146h6v10h-6zM159 146h6v10h-6zM165 146h6v10h-6zM183 146h6v10h-6zM177 176h6v10h-6zM171 176h6v10h-6zM165 176h6v10h-6zM147 176h6v10h-6z"/></g><g clip-path="url(#grid-clip-ad2981aa58beca63-3x4)" data-channel="ellipse" data-ellipse-anchor-x="87" data-ellipse-anchor-y="66" data-ellipse-rx="37.335" data-ellipse-ry="57.7" data-ellipse-rotation-deg="12"><ellipse cx="87" cy="66" rx="37.335" ry="57.7" transform="rotate(12 87 66)" fill="#ffffff" stroke="#ffffff" fill-opacity="0.35" stroke-opacity="0.45" stroke-width="2"/></g><g><g data-channel="cell" data-cell-index="0" data-cell-row="0" data-cell-col="0" data-surround-bits="0xad2981" data-edge-color="#e7be00" data-cell-quartile="2"><rect x="33" y="36" width="48" height="20" fill="#452301"/><text x="57" y="46" fill="#ffffff" font-size="12" text-anchor="middle" dominant-baseline="central">012345</text><polygon points="81,36 71,36 81,46" fill="#ffffff"/></g><g data-channel="cell" data-cell-index="1" data-cell-row="0" data-cell-col="1" data-surround-bits="0xaa58be" data-edge-color="#ff3f2f" data-cell-quartile="1"><rect x="93" y="36" width="48" height="20" fill="#ab8967"/><text x="117" y="46" fill="#000000" font-size="12" text-anchor="middle" dominant-baseline="central">6789ab</text><polygon points="93,36 103,36 93,46" fill="#000000"/></g><g data-channel="cell" data-cell-index="2" data-cell-row="0" data-cell-col="2" data-surround-bits="0xca63a4" data-edge-color="#ffffff"><rect x="153" y="36" width="48" height="20" fill="#01efcd"/><text x="177" y="46" fill="#000000" font-size="12" text-anchor="middle" dominant-baseline="central">cdef01</text></g><g data-channel="cell" data-cell-index="3" data-cell-row="1" data-cell-col="0" data-surround-bits="0x9b8831" data-edge-color="#000000"><rect x="33" y="76" width="48" height="20" fill="#674523"/><text x="57" y="86" fill="#ffffff" font-size="12" text-anchor="middle" dominant-baseline="central">234567</text></g><g data-channel="cell" data-cell-index="4" data-cell-row="1" data-cell-col="1" data-surround-bits="0x274b89" data-edge-color="#e7be00"><rect x="93" y="76" width="48" height="20" fill="#cdab89"/><text x="117" y="86" fill="#000000" font-size="12" text-anchor="middle" dominant-baseline="central">89abcd</text></g><g data-channel="cell" data-cell-index="5" data-cell-row="1" data-cell-col="2" data-surround-bits="0xd81766" data-edge-color="#000000" data-cell-quartile="4"><rect x="153" y="76" width="48" height="20" fill="#2301ef"/><text x="177" y="86" fill="#ffffff" font-size="12" text-anchor="middle" dominant-baseline="central">ef0123</text><polygon points="153,96 153,86 163,96" fill="#ffffff"/></g><g data-channel="cell" data-cell-index="6" data-cell-row="2" data-cell-col="0" data-surround-bits="0xa23d79" data-edge-color="#ff3f2f"><rect x="33" y="116" width="48" height="20" fill="#896745"/><text x="57" y="126" fill="#ffffff" font-size="12" text-anchor="middle" dominant-baseline="central">456789</text></g><g data-channel="cell" data-cell-index="7" data-cell-row="2" data-cell-col="1" data-cell-blank="true" data-cell-blank-map="true"><rect x="93" y="116" width="48" height="20" rx="10" ry="10" fill="#ff3f2f" stroke="#000000" stroke-width="1"/><circle cx="101" cy="133.5" r="3.5" fill="#000000" data-blank-map-min="3,0"/><path d="M 112.8,133.5 H 121.2 M 117,129.3 V 137.7" fill="none" stroke="#000000" stroke-width="1.925" stroke-linecap="butt" data-blank-map-max="3,1"/></g><g data-channel="cell" data-cell-index="8" data-cell-row="2" data-cell-col="2" data-surround-bits="0x32474f" data-edge-color="#ffffff" data-cell-quartile="3"><rect x="153" y="116" width="48" height="20" fill="#efcdab"/><text x="177" y="126" fill="#000000" font-size="12" text-anchor="middle" dominant-baseline="central">abcdef</text><polygon points="201,136 201,126 191,136" fill="#000000"/></g><g data-channel="cell" data-cell-index="9" data-cell-row="3" data-cell-col="0" data-surround-bits="0x3e55c" data-edge-color="#000000"><rect x="33" y="156" width="48" height="20" fill="#452301"/><text x="57" y="166" fill="#ffffff" font-size="12" text-anchor="middle" dominant-baseline="central">012345</text></g><g data-channel="cell" data-cell-index="10" data-cell-row="3" data-cell-col="1" data-surround-bits="0xf00cbe" data-edge-color="#ff3f2f"><rect x="93" y="156" width="48" height="20" fill="#ab8967"/><text x="117" y="166" fill="#000000" font-size="12" text-anchor="middle" dominant-baseline="central">6789ab</text></g><g data-channel="cell" data-cell-index="11" data-cell-row="3" data-cell-col="2" data-surround-bits="0x27004e" data-edge-color="#ffffff"><rect x="153" y="156" width="48" height="20" fill="#efefcd"/><text x="177" y="166" fill="#000000" font-size="12" text-anchor="middle" dominant-baseline="central">cdef</text></g></g></g><g xmlns="http://www.w3.org/2000/svg" data-channel="color-bar" data-bar-slots="15" data-bar-marker-left="2" data-bar-marker-right="5"><g data-color-bar-rank="0" data-color-bar-band="G"><rect x="1" y="1" width="20" height="35.986" fill="#e7be00"/><text x="11" y="34.346" fill="#000000" font-size="12" text-anchor="middle" data-color-bar-letter="true">g</text></g><g data-color-bar-rank="1" data-color-bar-band="K"><rect x="1" y="36.986" width="20" height="20.508" fill="#000000"/><text x="11" y="54.853" fill="#ffffff" font-size="12" text-anchor="middle" data-color-bar-letter="true">k</text></g><g data-color-bar-rank="2" data-color-bar-band="R"><rect x="1" y="57.493" width="20" height="77.936" fill="#ff3f2f"/><text x="11" y="132.789" fill="#000000" font-size="12" text-anchor="middle" data-color-bar-letter="true">r</text></g><g data-color-bar-rank="3" data-color-bar-band="W"><rect x="1" y="135.429" width="20" height="55.571" fill="#ffffff"/><text x="11" y="188.36" fill="#000000" font-size="12" text-anchor="middle" data-color-bar-letter="true">w</text></g><circle cx="5.6" cy="32.667" r="3.4" fill="#ffffff" stroke="#000000" stroke-width="0.75" data-bar-marker="left"/><circle cx="16.4" cy="70.667" r="3.4" fill="#ffffff" stroke="#000000" stroke-width="0.75" data-bar-marker="right"/></g><g xmlns="http://www.w3.org/2000/svg" data-channel="label-top"><text x="27" y="16" fill="#666666" font-size="12" dominant-baseline="central">hex(64):</text></g><line xmlns="http://www.w3.org/2000/svg" x1="0" y1="0.5" x2="213" y2="0.5" stroke="#808080" stroke-width="1" shape-rendering="crispEdges"/><line xmlns="http://www.w3.org/2000/svg" x1="212.5" y1="0" x2="212.5" y2="192" stroke="#808080" stroke-width="1" shape-rendering="crispEdges"/><line xmlns="http://www.w3.org/2000/svg" x1="0" y1="191.5" x2="213" y2="191.5" stroke="#808080" stroke-width="1" shape-rendering="crispEdges"/><line xmlns="http://www.w3.org/2000/svg" x1="0.5" y1="0" x2="0.5" y2="192" stroke="#808080" stroke-width="1" shape-rendering="crispEdges"/><line xmlns="http://www.w3.org/2000/svg" x1="21.5" y1="0" x2="21.5" y2="192" stroke="#808080" stroke-width="1" shape-rendering="crispEdges"/></svg><svg x="449.40" y="30.00" width="250.00" height="249.08" viewBox="0.000 0.000 273.000 272.000"><defs xmlns="http://www.w3.org/2000/svg"><clipPath id="grid-clip-451e75996b8939bc-4x6"><rect x="27" y="26" width="240" height="240"/></clipPath></defs><rect xmlns="http://www.w3.org/2000/svg" x="0" y="0" width="273" height="272" fill="#ffffff"/><g xmlns="http://www.w3.org/2000/svg" data-channel="grid"><rect x="27" y="26" width="240" height="240" fill="#ff3f2f"/><g><path fill="#e7be00" d="M27 26h6v10h-6zM39 26h6v10h-6zM51 26h6v10h-6zM57 26h6v10h-6zM63 26h6v10h-6zM81 26h6v10h-6zM81 36h6v10h-6zM81 46h6v10h-6zM81 56h6v10h-6zM57 56h6v10h-6zM45 56h6v10h-6zM27 46h6v10h-6z"/><path fill="#e7be00" d="M87 26h6v10h-6zM105 26h6v10h-6zM129 26h6v10h-6zM135 26h6v10h-6zM141 26h6v10h-6zM141 46h6v10h-6zM135 56h6v10h-6zM129 56h6v10h-6zM117 56h6v10h-6zM99 56h6v10h-6zM93 56h6v10h-6zM87 36h6v10h-6z"/><path fill="#2f3fbf" d="M159 26h6v10h-6zM171 26h6v10h-6zM183 26h6v10h-6zM201 36h6v10h-6zM201 46h6v10h-6zM201 56h6v10h-6zM195 56h6v10h-6zM183 56h6v10h-6zM177 56h6v10h-6zM159 56h6v10h-6zM153 56h6v10h-6zM147 56h6v10h-6z"/><path fill="#ffffff" d="M249 26h6v10h-6zM255 26h6v10h-6zM261 26h6v10h-6zM261 36h6v10h-6zM255 56h6v10h-6zM249 56h6v10h-6zM243 56h6v10h-6zM237 56h6v10h-6zM231 56h6v10h-6zM219 56h6v10h-6z"/><path fill="#e7be00" d="M33 66h6v10h-6zM39 66h6v10h-6zM45 66h6v10h-6zM57 66h6v10h-6zM75 66h6v10h-6zM81 76h6v10h-6zM81 86h6v10h-6zM81 96h6v10h-6zM75 96h6v10h-6zM57 96h6v10h-6zM51 96h6v10h-6zM33 96h6v10h-6zM27 96h6v10h-6zM27 76h6v10h-6z"/><path fill="#2f3fbf" d="M87 66h6v10h-6zM99 66h6v10h-6zM105 66h6v10h-6zM141 66h6v10h-6zM141 96h6v10h-6zM135 96h6v10h-6zM123 96h6v10h-6zM111 96h6v10h-6zM99 96h6v10h-6zM93 96h6v10h-6zM87 86h6v10h-6z"/><path fill="#e7be00" d="M147 66h6v10h-6zM153 66h6v10h-6zM165 66h6v10h-6zM177 66h6v10h-6zM201 66h6v10h-6zM201 86h6v10h-6zM195 96h6v10h-6zM171 96h6v10h-6zM165 96h6v10h-6zM159 96h6v10h-6zM147 96h6v10h-6zM147 86h6v10h-6z"/><path fill="#ffffff" d="M219 66h6v10h-6zM225 66h6v10h-6zM237 66h6v10h-6zM261 76h6v10h-6zM249 96h6v10h-6zM237 96h6v10h-6zM219 96h6v10h-6zM207 76h6v10h-6z"/><path fill="#000000" d="M27 106h6v10h-6zM33 106h6v10h-6zM45 106h6v10h-6zM57 106h6v10h-6zM63 106h6v10h-6zM81 106h6v10h-6zM81 116h6v10h-6zM81 126h6v10h-6zM81 136h6v10h-6zM75 136h6v10h-6zM69 136h6v10h-6zM63 136h6v10h-6zM57 136h6v10h-6zM51 136h6v10h-6zM39 136h6v10h-6zM33 136h6v10h-6zM27 116h6v10h-6z"/><path fill="#e7be00" d="M93 106h6v10h-6zM99 106h6v10h-6zM111 106h6v10h-6zM117 106h6v10h-6zM123 106h6v10h-6zM129 106h6v10h-6zM135 106h6v10h-6zM141 106h6v10h-6zM141 116h6v10h-6zM141 136h6v10h-6zM123 136h6v10h-6zM117 136h6v10h-6zM111 136h6v10h-6zM105 136h6v10h-6zM87 126h6v10h-6z"/><path fill="#2f3fbf" d="M159 106h6v10h-6zM165 106h6v10h-6zM177 106h6v10h-6zM189 106h6v10h-6zM195 106h6v10h-6zM201 116h6v10h-6zM201 126h6v10h-6zM165 136h6v10h-6zM147 126h6v10h-6z"/><path fill="#000000" d="M207 106h6v10h-6zM213 106h6v10h-6zM225 106h6v10h-6zM249 106h6v10h-6zM255 106h6v10h-6zM261 116h6v10h-6zM249 136h6v10h-6zM243 136h6v10h-6zM237 136h6v10h-6zM225 136h6v10h-6zM207 136h6v10h-6zM207 126h6v10h-6z"/><path fill="#e7be00" d="M51 146h6v10h-6zM75 146h6v10h-6zM81 146h6v10h-6zM81 156h6v10h-6zM81 166h6v10h-6zM81 176h6v10h-6zM75 176h6v10h-6zM69 176h6v10h-6zM63 176h6v10h-6zM51 176h6v10h-6zM39 176h6v10h-6zM27 176h6v10h-6zM27 166h6v10h-6z"/><path fill="#ffffff" d="M99 146h6v10h-6zM111 146h6v10h-6zM117 146h6v10h-6zM141 146h6v10h-6zM141 166h6v10h-6zM129 176h6v10h-6zM123 176h6v10h-6zM111 176h6v10h-6zM87 176h6v10h-6zM87 156h6v10h-6z"/><path fill="#e7be00" d="M207 146h6v10h-6zM219 146h6v10h-6zM231 146h6v10h-6zM237 146h6v10h-6zM255 146h6v10h-6zM261 146h6v10h-6zM261 156h6v10h-6zM261 176h6v10h-6zM255 176h6v10h-6zM249 176h6v10h-6zM237 176h6v10h-6zM231 176h6v10h-6zM207 166h6v10h-6zM207 156h6v10h-6z"/><path fill="#ffffff" d="M27 186h6v10h-6zM33 186h6v10h-6zM39 186h6v10h-6zM57 186h6v10h-6zM63 186h6v10h-6zM75 186h6v10h-6zM81 196h6v10h-6zM81 206h6v10h-6zM63 216h6v10h-6z"/><path fill="#000000" d="M93 186h6v10h-6zM105 186h6v10h-6zM111 186h6v10h-6zM117 186h6v10h-6zM123 186h6v10h-6zM129 186h6v10h-6zM135 186h6v10h-6zM141 186h6v10h-6zM141 196h6v10h-6zM141 216h6v10h-6zM135 216h6v10h-6zM93 216h6v10h-6z"/><path fill="#e7be00" d="M147 186h6v10h-6zM153 186h6v10h-6zM159 186h6v10h-6zM165 186h6v10h-6zM171 186h6v10h-6zM177 186h6v10h-6zM189 186h6v10h-6zM195 186h6v10h-6zM183 216h6v10h-6zM147 206h6v10h-6z"/><path fill="#2f3fbf" d="M33 226h6v10h-6zM39 226h6v10h-6zM45 226h6v10h-6zM57 226h6v10h-6zM63 226h6v10h-6zM69 226h6v10h-6zM81 236h6v10h-6zM81 256h6v10h-6zM75 256h6v10h-6zM63 256h6v10h-6zM51 256h6v10h-6zM45 256h6v10h-6zM33 256h6v10h-6zM27 246h6v10h-6z"/><path fill="#000000" d="M87 226h6v10h-6zM105 226h6v10h-6zM117 226h6v10h-6zM135 226h6v10h-6zM141 226h6v10h-6zM141 236h6v10h-6zM141 256h6v10h-6zM135 256h6v10h-6zM105 256h6v10h-6zM87 256h6v10h-6z"/><path fill="#e7be00" d="M153 226h6v10h-6zM159 226h6v10h-6zM171 226h6v10h-6zM177 226h6v10h-6zM183 226h6v10h-6zM201 226h6v10h-6zM201 236h6v10h-6zM201 246h6v10h-6zM201 256h6v10h-6zM189 256h6v10h-6zM171 256h6v10h-6zM159 256h6v10h-6zM153 256h6v10h-6zM147 256h6v10h-6zM147 246h6v10h-6zM147 236h6v10h-6z"/><path fill="#ffffff" d="M237 226h6v10h-6zM243 226h6v10h-6zM249 226h6v10h-6zM261 246h6v10h-6zM231 256h6v10h-6zM225 256h6v10h-6zM219 256h6v10h-6zM207 236h6v10h-6z"/></g><g clip-path="url(#grid-clip-451e75996b8939bc-4x6)" data-channel="ellipse" data-ellipse-anchor-x="147" data-ellipse-anchor-y="186" data-ellipse-rx="111.2" data-ellipse-ry="72.8" data-ellipse-rotation-deg="168"><ellipse cx="147" cy="186" rx="111.2" ry="72.8" transform="rotate(168 147 186)" fill="#000000" stroke="#000000" fill-opacity="0.25" stroke-opacity="0.35" stroke-width="2"/></g><g><g data-channel="cell" data-cell-index="0" data-cell-row="0" data-cell-col="0" data-surround-bits="0x451e75" data-edge-color="#e7be00"><rect x="33" y="36" width="48" height="20" fill="#452301"/><text x="57" y="46" fill="#ffffff" font-size="12" text-anchor="middle" dominant-baseline="central">012345</text></g><g data-channel="cell" data-cell-index="1" data-cell-row="0" data-cell-col="1" data-surround-bits="0x996b89" data-edge-color="#e7be00"><rect x="93" y="36" width="48" height="20" fill="#ab8967"/><text x="117" y="46" fill="#000000" font-size="12" text-anchor="middle" dominant-baseline="central">6789ab</text></g><g data-channel="cell" data-cell-index="2" data-cell-row="0" data-cell-col="2" data-surround-bits="0x39bc54" data-edge-color="#2f3fbf"><rect x="153" y="36" width="48" height="20" fill="#01efcd"/><text x="177" y="46" fill="#000000" font-size="12" text-anchor="middle" dominant-baseline="central">cdef01</text></g><g data-channel="cell" data-cell-index="3" data-cell-row="0" data-cell-col="3" data-surround-bits="0xbe780" data-edge-color="#ffffff" data-cell-quartile="2"><rect x="213" y="36" width="48" height="20" fill="#674523"/><text x="237" y="46" fill="#ffffff" font-size="12" text-anchor="middle" dominant-baseline="central">234567</text><polygon points="261,36 251,36 261,46" fill="#ffffff"/></g><g data-channel="cell" data-cell-index="4" data-cell-row="1" data-cell-col="0" data-surround-bits="0xb33d2e" data-edge-color="#e7be00"><rect x="33" y="76" width="48" height="20" fill="#cdab89"/><text x="57" y="86" fill="#000000" font-size="12" text-anchor="middle" dominant-baseline="central">89abcd</text></g><g data-channel="cell" data-cell-index="5" data-cell-row="1" data-cell-col="1" data-surround-bits="0x5ab20d" data-edge-color="#2f3fbf"><rect x="93" y="76" width="48" height="20" fill="#2301ef"/><text x="117" y="86" fill="#ffffff" font-size="12" text-anchor="middle" dominant-baseline="central">ef0123</text></g><g data-channel="cell" data-cell-index="6" data-cell-row="1" data-cell-col="2" data-surround-bits="0x6e2a2b" data-edge-color="#e7be00"><rect x="153" y="76" width="48" height="20" fill="#896745"/><text x="177" y="86" fill="#ffffff" font-size="12" text-anchor="middle" dominant-baseline="central">456789</text></g><g data-channel="cell" data-cell-index="7" data-cell-row="1" data-cell-col="3" data-surround-bits="0x89442c" data-edge-color="#ffffff"><rect x="213" y="76" width="48" height="20" fill="#efcdab"/><text x="237" y="86" fill="#000000" font-size="12" text-anchor="middle" dominant-baseline="central">abcdef</text></g><g data-channel="cell" data-cell-index="8" data-cell-row="2" data-cell-col="0" data-surround-bits="0x9bfe6b" data-edge-color="#000000"><rect x="33" y="116" width="48" height="20" fill="#452301"/><text x="57" y="126" fill="#ffffff" font-size="12" text-anchor="middle" dominant-baseline="central">012345</text></g><g data-channel="cell" data-cell-index="9" data-cell-row="2" data-cell-col="1" data-surround-bits="0x4797f6" data-edge-color="#e7be00"><rect x="93" y="116" width="48" height="20" fill="#ab8967"/><text x="117" y="126" fill="#000000" font-size="12" text-anchor="middle" dominant-baseline="central">6789ab</text></g><g data-channel="cell" data-cell-index="10" data-cell-row="2" data-cell-col="2" data-surround-bits="0x440dac" data-edge-color="#2f3fbf" data-cell-quartile="4"><rect x="153" y="116" width="48" height="20" fill="#01efcd"/><text x="177" y="126" fill="#000000" font-size="12" text-anchor="middle" dominant-baseline="central">cdef01</text><polygon points="153,136 153,126 163,136" fill="#000000"/></g><g data-channel="cell" data-cell-index="11" data-cell-row="2" data-cell-col="3" data-surround-bits="0x65c58b" data-edge-color="#000000"><rect x="213" y="116" width="48" height="20" fill="#674523"/><text x="237" y="126" fill="#ffffff" font-size="12" text-anchor="middle" dominant-baseline="central">234567</text></g><g data-channel="cell" data-cell-index="12" data-cell-row="3" data-cell-col="0" data-surround-bits="0x6aff10" data-edge-color="#e7be00"><rect x="33" y="156" width="48" height="20" fill="#cdab89"/><text x="57" y="166" fill="#000000" font-size="12" text-anchor="middle" dominant-baseline="central">89abcd</text></g><g data-channel="cell" data-cell-index="13" data-cell-row="3" data-cell-col="1" data-surround-bits="0xa2ca34" data-edge-color="#ffffff" data-cell-quartile="1"><rect x="93" y="156" width="48" height="20" fill="#2301ef"/><text x="117" y="166" fill="#ffffff" font-size="12" text-anchor="middle" dominant-baseline="central">ef0123</text><polygon points="93,156 103,156 93,166" fill="#ffffff"/></g><g data-channel="cell" data-cell-index="14" data-cell-row="3" data-cell-col="2" data-cell-blank="true" data-cell-blank-map="true"><rect x="153" y="156" width="48" height="20" rx="10" ry="10" fill="#ffffff" stroke="#000000" stroke-width="1"/><circle cx="159" cy="171" r="3.5" fill="#1d4ed8" data-blank-map-min="4,0"/><path d="M 178.8,174.333 H 187.2 M 183,170.133 V 178.533" fill="none" stroke="#d62828" stroke-width="1.925" stroke-linecap="butt" data-blank-map-max="5,2"/></g><g data-channel="cell" data-cell-index="15" data-cell-row="3" data-cell-col="3" data-surround-bits="0xc37735" data-edge-color="#e7be00"><rect x="213" y="156" width="48" height="20" fill="#896745"/><text x="237" y="166" fill="#ffffff" font-size="12" text-anchor="middle" dominant-baseline="central">456789</text></g><g data-channel="cell" data-cell-index="16" data-cell-row="4" data-cell-col="0" data-surround-bits="0x8d67" data-edge-color="#ffffff"><rect x="33" y="196" width="48" height="20" fill="#efcdab"/><text x="57" y="206" fill="#000000" font-size="12" text-anchor="middle" dominant-baseline="central">abcdef</text></g><g data-channel="cell" data-cell-index="17" data-cell-row="4" data-cell-col="1" data-surround-bits="0x1037fa" data-edge-color="#000000"><rect x="93" y="196" width="48" height="20" fill="#452301"/><text x="117" y="206" fill="#ffffff" font-size="12" text-anchor="middle" dominant-baseline="central">012345</text></g><g data-channel="cell" data-cell-index="18" data-cell-row="4" data-cell-col="2" data-surround-bits="0x4081bf" data-edge-color="#e7be00" data-cell-quartile="3"><rect x="153" y="196" width="48" height="20" fill="#ab8967"/><text x="177" y="206" fill="#000000" font-size="12" text-anchor="middle" dominant-baseline="central">6789ab</text><polygon points="201,216 201,206 191,216" fill="#000000"/></g><g data-channel="cell" data-cell-index="19" data-cell-row="4" data-cell-col="3" data-cell-blank="true"><rect x="213" y="196" width="48" height="20" rx="10" ry="10" fill="#ffffff" stroke="#000000" stroke-width="1"/></g><g data-channel="cell" data-cell-index="20" data-cell-row="5" data-cell-col="0" data-surround-bits="0x56b4ee" data-edge-color="#2f3fbf"><rect x="33" y="236" width="48" height="20" fill="#01efcd"/><text x="57" y="246" fill="#000000" font-size="12" text-anchor="middle" dominant-baseline="central">cdef01</text></g><g data-channel="cell" data-cell-index="21" data-cell-row="5" data-cell-col="1" data-surround-bits="0x243729" data-edge-color="#000000"><rect x="93" y="236" width="48" height="20" fill="#674523"/><text x="117" y="246" fill="#ffffff" font-size="12" text-anchor="middle" dominant-baseline="central">234567</text></g><g data-channel="cell" data-cell-index="22" data-cell-row="5" data-cell-col="2" data-surround-bits="0xfa5e76" data-edge-color="#e7be00"><rect x="153" y="236" width="48" height="20" fill="#cdab89"/><text x="177" y="246" fill="#000000" font-size="12" text-anchor="middle" dominant-baseline="central">89abcd</text></g><g data-channel="cell" data-cell-index="23" data-cell-row="5" data-cell-col="3" data-surround-bits="0x8e08e0" data-edge-color="#ffffff"><rect x="213" y="236" width="48" height="20" fill="#efefef"/><text x="237" y="246" fill="#000000" font-size="12" text-anchor="middle" dominant-baseline="central">ef</text></g></g></g><g xmlns="http://www.w3.org/2000/svg" data-channel="color-bar" data-bar-slots="16" data-bar-marker-left="14" data-bar-marker-right="11"><g data-color-bar-rank="0" data-color-bar-band="G"><rect x="1" y="1" width="20" height="66.899" fill="#e7be00"/><text x="11" y="65.259" fill="#000000" font-size="12" text-anchor="middle" data-color-bar-letter="true">g</text></g><g data-color-bar-rank="1" data-color-bar-band="W"><rect x="1" y="67.899" width="20" height="58.921" fill="#ffffff"/><text x="11" y="124.18" fill="#000000" font-size="12" text-anchor="middle" data-color-bar-letter="true">w</text></g><g data-color-bar-rank="2" data-color-bar-band="B"><rect x="1" y="126.82" width="20" height="85.259" fill="#2f3fbf"/><text x="11" y="209.439" fill="#ffffff" font-size="12" text-anchor="middle" data-color-bar-letter="true">b</text></g><g data-color-bar-rank="3" data-color-bar-band="K"><rect x="1" y="212.079" width="20" height="58.921" fill="#000000"/><text x="11" y="268.36" fill="#ffffff" font-size="12" text-anchor="middle" data-color-bar-letter="true">k</text></g><circle cx="5.6" cy="245.688" r="3.4" fill="#ffffff" stroke="#000000" stroke-width="0.75" data-bar-marker="left"/><circle cx="16.4" cy="195.062" r="3.4" fill="#ffffff" stroke="#000000" stroke-width="0.75" data-bar-marker="right"/></g><g xmlns="http://www.w3.org/2000/svg" data-channel="label-top"><text x="27" y="16" fill="#666666" font-size="12" dominant-baseline="central">hex(128):</text></g><line xmlns="http://www.w3.org/2000/svg" x1="0" y1="0.5" x2="273" y2="0.5" stroke="#808080" stroke-width="1" shape-rendering="crispEdges"/><line xmlns="http://www.w3.org/2000/svg" x1="272.5" y1="0" x2="272.5" y2="272" stroke="#808080" stroke-width="1" shape-rendering="crispEdges"/><line xmlns="http://www.w3.org/2000/svg" x1="0" y1="271.5" x2="273" y2="271.5" stroke="#808080" stroke-width="1" shape-rendering="crispEdges"/><line xmlns="http://www.w3.org/2000/svg" x1="0.5" y1="0" x2="0.5" y2="272" stroke="#808080" stroke-width="1" shape-rendering="crispEdges"/><line xmlns="http://www.w3.org/2000/svg" x1="21.5" y1="0" x2="21.5" y2="272" stroke="#808080" stroke-width="1" shape-rendering="crispEdges"/></svg><ellipse cx="241.51" cy="107.46" rx="43.82" ry="67.72" transform="rotate(12 241.51 107.46)" fill="none" stroke="#3f5b73" stroke-width="1.6" stroke-dasharray="4 3"/><text x="264.40" y="303.08" font-family="'DejaVu Sans', 'Bitstream Vera Sans', Verdana, sans-serif" font-size="13px" font-weight="bold" text-anchor="middle" fill="#2b2b33">256-bit input (interior anchor)</text><ellipse cx="584.02" cy="200.33" rx="101.83" ry="66.67" transform="rotate(168 584.02 200.33)" fill="none" stroke="#3f5b73" stroke-width="1.6" stroke-dasharray="4 3"/><text x="574.40" y="303.08" font-family="'DejaVu Sans', 'Bitstream Vera Sans', Verdana, sans-serif" font-size="13px" font-weight="bold" text-anchor="middle" fill="#2b2b33">512-bit input</text><text x="419.40" y="321.08" font-family="'DejaVu Sans', 'Bitstream Vera Sans', Verdana, sans-serif" font-size="12px" font-weight="normal" text-anchor="middle" fill="#5a5f6a">The translucent overlay (dashed silhouette) is clamped to cover ~8–70% of the grid — noticeable but never swamping it.</text></svg>
