<svg xmlns="http://www.w3.org/2000/svg" width="770.00" height="272.00" viewBox="0 0 770.00 272.00" font-family="'DejaVu Sans', 'Bitstream Vera Sans', Verdana, sans-serif" data-spec-version="v9" data-generator="scripts/paper_figures.py"><rect x="0.00" y="0.00" width="770.00" height="272.00" fill="#ffffff" stroke="none" stroke-width="1.0"/><svg x="40.00" y="48.00" width="300.00" height="200.00" viewBox="0.000 0.000 120.000 80.000"><g xmlns="http://www.w3.org/2000/svg"><rect x="0.0" y="0.0" width="12.0" height="20.0" fill="#e7be00"/><rect x="24.0" y="0.0" width="12.0" height="20.0" fill="#e7be00"/><rect x="36.0" y="0.0" width="12.0" height="20.0" fill="#e7be00"/><rect x="72.0" y="0.0" width="12.0" height="20.0" fill="#e7be00"/><rect x="108.0" y="0.0" width="12.0" height="20.0" fill="#e7be00"/><rect x="108.0" y="40.0" width="12.0" height="20.0" fill="#e7be00"/><rect x="96.0" y="60.0" width="12.0" height="20.0" fill="#e7be00"/><rect x="48.0" y="60.0" width="12.0" height="20.0" fill="#e7be00"/><rect x="36.0" y="60.0" width="12.0" height="20.0" fill="#e7be00"/><rect x="12.0" y="60.0" width="12.0" height="20.0" fill="#e7be00"/><rect x="0.0" y="20.0" width="12.0" height="20.0" fill="#e7be00"/><rect x="12.0" y="20.0" width="96.0" height="40.0" fill="#f5e6c8"/><text x="60.0" y="40.0" fill="#000000" style="font-family: &quot;JetBrains Mono&quot;, &quot;Menlo&quot;, &quot;Consolas&quot;, &quot;DejaVu Sans Mono&quot;, &quot;Liberation Mono&quot;, &quot;Roboto Mono&quot;, &quot;Noto Sans Mono&quot;, monospace; font-size: 24.0px;" text-anchor="middle" dominant-baseline="central">c8e6f5</text><polygon points="108.0,60.0 108.0,40.0 88.0,60.0" fill="#000000"/></g></svg><rect x="40.00" y="48.00" width="300.00" height="200.00" fill="none" stroke="#c9cdd4" stroke-width="1"/><text x="40.00" y="36.00" font-family="'DejaVu Sans', 'Bitstream Vera Sans', Verdana, sans-serif" font-size="12px" font-weight="normal" text-anchor="start" font-style="italic" fill="#5a5f6a">one cell, enlarged</text><rect x="40.00" y="48.00" width="30.00" height="50.00" fill="none" stroke="#ffffff" stroke-width="1.3"/><rect x="40.00" y="48.00" width="30.00" height="50.00" fill="none" stroke="#000000" stroke-width="0.6" stroke-dasharray="2 2"/><text x="55.00" y="76.00" font-family="'DejaVu Sans', 'Bitstream Vera Sans', Verdana, sans-serif" font-size="9px" font-weight="normal" text-anchor="middle" fill="#9aa0a6">0</text><rect x="70.00" y="48.00" width="30.00" height="50.00" fill="none" stroke="#ffffff" stroke-width="1.3"/><rect x="70.00" y="48.00" width="30.00" height="50.00" fill="none" stroke="#000000" stroke-width="0.6" stroke-dasharray="2 2"/><text x="85.00" y="76.00" font-family="'DejaVu Sans', 'Bitstream Vera Sans', Verdana, sans-serif" font-size="9px" font-weight="normal" text-anchor="middle" fill="#9aa0a6">1</text><rect x="100.00" y="48.00" width="30.00" height="50.00" fill="none" stroke="#ffffff" stroke-width="1.3"/><rect x="100.00" y="48.00" width="30.00" height="50.00" fill="none" stroke="#000000" stroke-width="0.6" stroke-dasharray="2 2"/><text x="115.00" y="76.00" font-family="'DejaVu Sans', 'Bitstream Vera Sans', Verdana, sans-serif" font-size="9px" font-weight="normal" text-anchor="middle" fill="#9aa0a6">2</text><rect x="130.00" y="48.00" width="30.00" height="50.00" fill="none" stroke="#ffffff" stroke-width="1.3"/><rect x="130.00" y="48.00" width="30.00" height="50.00" fill="none" stroke="#000000" stroke-width="0.6" stroke-dasharray="2 2"/><text x="145.00" y="76.00" font-family="'DejaVu Sans', 'Bitstream Vera Sans', Verdana, sans-serif" font-size="9px" font-weight="normal" text-anchor="middle" fill="#9aa0a6">3</text><rect x="160.00" y="48.00" width="30.00" height="50.00" fill="none" stroke="#ffffff" stroke-width="1.3"/><rect x="160.00" y="48.00" width="30.00" height="50.00" fill="none" stroke="#000000" stroke-width="0.6" stroke-dasharray="2 2"/><text x="175.00" y="76.00" font-family="'DejaVu Sans', 'Bitstream Vera Sans', Verdana, sans-serif" font-size="9px" font-weight="normal" text-anchor="middle" fill="#9aa0a6">4</text><rect x="190.00" y="48.00" width="30.00" height="50.00" fill="none" stroke="#ffffff" stroke-width="1.3"/><rect x="190.00" y="48.00" width="30.00" height="50.00" fill="none" stroke="#000000" stroke-width="0.6" stroke-dasharray="2 2"/><text x="205.00" y="76.00" font-family="'DejaVu Sans', 'Bitstream Vera Sans', Verdana, sans-serif" font-size="9px" font-weight="normal" text-anchor="middle" fill="#9aa0a6">5</text><rect x="220.00" y="48.00" width="30.00" height="50.00" fill="none" stroke="#ffffff" stroke-width="1.3"/><rect x="220.00" y="48.00" width="30.00" height="50.00" fill="none" stroke="#000000" stroke-width="0.6" stroke-dasharray="2 2"/><text x="235.00" y="76.00" font-family="'DejaVu Sans', 'Bitstream Vera Sans', Verdana, sans-serif" font-size="9px" font-weight="normal" text-anchor="middle" fill="#9aa0a6">6</text><rect x="250.00" y="48.00" width="30.00" height="50.00" fill="none" stroke="#ffffff" stroke-width="1.3"/><rect x="250.00" y="48.00" width="30.00" height="50.00" fill="none" stroke="#000000" stroke-width="0.6" stroke-dasharray="2 2"/><text x="265.00" y="76.00" font-family="'DejaVu Sans', 'Bitstream Vera Sans', Verdana, sans-serif" font-size="9px" font-weight="normal" text-anchor="middle" fill="#9aa0a6">7</text><rect x="280.00" y="48.00" width="30.00" height="50.00" fill="none" stroke="#ffffff" stroke-width="1.3"/><rect x="280.00" y="48.00" width="30.00" height="50.00" fill="none" stroke="#000000" stroke-width="0.6" stroke-dasharray="2 2"/><text x="295.00" y="76.00" font-family="'DejaVu Sans', 'Bitstream Vera Sans', Verdana, sans-serif" font-size="9px" font-weight="normal" text-anchor="middle" fill="#9aa0a6">8</text><rect x="310.00" y="48.00" width="30.00" height="50.00" fill="none" stroke="#ffffff" stroke-width="1.3"/><rect x="310.00" y="48.00" width="30.00" height="50.00" fill="none" stroke="#000000" stroke-width="0.6" stroke-dasharray="2 2"/><text x="325.00" y="76.00" font-family="'DejaVu Sans', 'Bitstream Vera Sans', Verdana, sans-serif" font-size="9px" font-weight="normal" text-anchor="middle" fill="#9aa0a6">9</text><rect x="310.00" y="98.00" width="30.00" height="50.00" fill="none" stroke="#ffffff" stroke-width="1.3"/><rect x="310.00" y="98.00" width="30.00" height="50.00" fill="none" stroke="#000000" stroke-width="0.6" stroke-dasharray="2 2"/><text x="325.00" y="126.00" font-family="'DejaVu Sans', 'Bitstream Vera Sans', Verdana, sans-serif" font-size="9px" font-weight="normal" text-anchor="middle" fill="#9aa0a6">10</text><rect x="310.00" y="148.00" width="30.00" height="50.00" fill="none" stroke="#ffffff" stroke-width="1.3"/><rect x="310.00" y="148.00" width="30.00" height="50.00" fill="none" stroke="#000000" stroke-width="0.6" stroke-dasharray="2 2"/><text x="325.00" y="176.00" font-family="'DejaVu Sans', 'Bitstream Vera Sans', Verdana, sans-serif" font-size="9px" font-weight="normal" text-anchor="middle" fill="#9aa0a6">11</text><rect x="310.00" y="198.00" width="30.00" height="50.00" fill="none" stroke="#ffffff" stroke-width="1.3"/><rect x="310.00" y="198.00" width="30.00" height="50.00" fill="none" stroke="#000000" stroke-width="0.6" stroke-dasharray="2 2"/><text x="325.00" y="226.00" font-family="'DejaVu Sans', 'Bitstream Vera Sans', Verdana, sans-serif" font-size="9px" font-weight="normal" text-anchor="middle" fill="#9aa0a6">12</text><rect x="280.00" y="198.00" width="30.00" height="50.00" fill="none" stroke="#ffffff" stroke-width="1.3"/><rect x="280.00" y="198.00" width="30.00" height="50.00" fill="none" stroke="#000000" stroke-width="0.6" stroke-dasharray="2 2"/><text x="295.00" y="226.00" font-family="'DejaVu Sans', 'Bitstream Vera Sans', Verdana, sans-serif" font-size="9px" font-weight="normal" text-anchor="middle" fill="#9aa0a6">13</text><rect x="250.00" y="198.00" width="30.00" height="50.00" fill="none" stroke="#ffffff" stroke-width="1.3"/><rect x="250.00" y="198.00" width="30.00" height="50.00" fill="none" stroke="#000000" stroke-width="0.6" stroke-dasharray="2 2"/><text x="265.00" y="226.00" font-family="'DejaVu Sans', 'Bitstream Vera Sans', Verdana, sans-serif" font-size="9px" font-weight="normal" text-anchor="middle" fill="#9aa0a6">14</text><rect x="220.00" y="198.00" width="30.00" height="50.00" fill="none" stroke="#ffffff" stroke-width="1.3"/><rect x="220.00" y="198.00" width="30.00" height="50.00" fill="none" stroke="#000000" stroke-width="0.6" stroke-dasharray="2 2"/><text x="235.00" y="226.00" font-family="'DejaVu Sans', 'Bitstream Vera Sans', Verdana, sans-serif" font-size="9px" font-weight="normal" text-anchor="middle" fill="#9aa0a6">15</text><rect x="190.00" y="198.00" width="30.00" height="50.00" fill="none" stroke="#ffffff" stroke-width="1.3"/><rect x="190.00" y="198.00" width="30.00" height="50.00" fill="none" stroke="#000000" stroke-width="0.6" stroke-dasharray="2 2"/><text x="205.00" y="226.00" font-family="'DejaVu Sans', 'Bitstream Vera Sans', Verdana, sans-serif" font-size="9px" font-weight="normal" text-anchor="middle" fill="#9aa0a6">16</text><rect x="160.00" y="198.00" width="30.00" height="50.00" fill="none" stroke="#ffffff" stroke-width="1.3"/><rect x="160.00" y="198.00" width="30.00" height="50.00" fill="none" stroke="#000000" stroke-width="0.6" stroke-dasharray="2 2"/><text x="175.00" y="226.00" font-family="'DejaVu Sans', 'Bitstream Vera Sans', Verdana, sans-serif" font-size="9px" font-weight="normal" text-anchor="middle" fill="#9aa0a6">17</text><rect x="130.00" y="198.00" width="30.00" height="50.00" fill="none" stroke="#ffffff" stroke-width="1.3"/><rect x="130.00" y="198.00" width="30.00" height="50.00" fill="none" stroke="#000000" stroke-width="0.6" stroke-dasharray="2 2"/><text x="145.00" y="226.00" font-family="'DejaVu Sans', 'Bitstream Vera Sans', Verdana, sans-serif" font-size="9px" font-weight="normal" text-anchor="middle" fill="#9aa0a6">18</text><rect x="100.00" y="198.00" width="30.00" height="50.00" fill="none" stroke="#ffffff" stroke-width="1.3"/><rect x="100.00" y="198.00" width="30.00" height="50.00" fill="none" stroke="#000000" stroke-width="0.6" stroke-dasharray="2 2"/><text x="115.00" y="226.00" font-family="'DejaVu Sans', 'Bitstream Vera Sans', Verdana, sans-serif" font-size="9px" font-weight="normal" text-anchor="middle" fill="#9aa0a6">19</text><rect x="70.00" y="198.00" width="30.00" height="50.00" fill="none" stroke="#ffffff" stroke-width="1.3"/><rect x="70.00" y="198.00" width="30.00" height="50.00" fill="none" stroke="#000000" stroke-width="0.6" stroke-dasharray="2 2"/><text x="85.00" y="226.00" font-family="'DejaVu Sans', 'Bitstream Vera Sans', Verdana, sans-serif" font-size="9px" font-weight="normal" text-anchor="middle" fill="#9aa0a6">20</text><rect x="40.00" y="198.00" width="30.00" height="50.00" fill="none" stroke="#ffffff" stroke-width="1.3"/><rect x="40.00" y="198.00" width="30.00" height="50.00" fill="none" stroke="#000000" stroke-width="0.6" stroke-dasharray="2 2"/><text x="55.00" y="226.00" font-family="'DejaVu Sans', 'Bitstream Vera Sans', Verdana, sans-serif" font-size="9px" font-weight="normal" text-anchor="middle" fill="#9aa0a6">21</text><rect x="40.00" y="148.00" width="30.00" height="50.00" fill="none" stroke="#ffffff" stroke-width="1.3"/><rect x="40.00" y="148.00" width="30.00" height="50.00" fill="none" stroke="#000000" stroke-width="0.6" stroke-dasharray="2 2"/><text x="55.00" y="176.00" font-family="'DejaVu Sans', 'Bitstream Vera Sans', Verdana, sans-serif" font-size="9px" font-weight="normal" text-anchor="middle" fill="#9aa0a6">22</text><rect x="40.00" y="98.00" width="30.00" height="50.00" fill="none" stroke="#ffffff" stroke-width="1.3"/><rect x="40.00" y="98.00" width="30.00" height="50.00" fill="none" stroke="#000000" stroke-width="0.6" stroke-dasharray="2 2"/><text x="55.00" y="126.00" font-family="'DejaVu Sans', 'Bitstream Vera Sans', Verdana, sans-serif" font-size="9px" font-weight="normal" text-anchor="middle" fill="#9aa0a6">23</text><line x1="325.00" y1="73.00" x2="392.00" y2="66.00" stroke="#3f5b73" stroke-width="1.0"/><line x1="392.00" y1="66.00" x2="410.00" y2="70.00" stroke="#3f5b73" stroke-width="1.0"/><circle cx="325.00" cy="73.00" r="2.6" fill="#3f5b73"/><text x="410.00" y="66.00" font-family="'DejaVu Sans', 'Bitstream Vera Sans', Verdana, sans-serif" font-size="13px" font-weight="bold" text-anchor="start" fill="#2b2b33">surround box (9 of 24)</text><text x="410.00" y="85.00" font-family="'DejaVu Sans', 'Bitstream Vera Sans', Verdana, sans-serif" font-size="12px" font-weight="normal" text-anchor="start" fill="#5a5f6a">fingerprint bit i fills box i, or leaves it empty</text><line x1="190.00" y1="118.00" x2="392.00" y2="116.00" stroke="#3f5b73" stroke-width="1.0"/><line x1="392.00" y1="116.00" x2="410.00" y2="120.00" stroke="#3f5b73" stroke-width="1.0"/><circle cx="190.00" cy="118.00" r="2.6" fill="#3f5b73"/><text x="410.00" y="116.00" font-family="'DejaVu Sans', 'Bitstream Vera Sans', Verdana, sans-serif" font-size="13px" font-weight="bold" text-anchor="start" fill="#2b2b33">nucleus background</text><text x="410.00" y="135.00" font-family="'DejaVu Sans', 'Bitstream Vera Sans', Verdana, sans-serif" font-size="12px" font-weight="normal" text-anchor="start" fill="#5a5f6a">24-bit token read as an RGB color</text><line x1="190.00" y1="148.00" x2="392.00" y2="164.00" stroke="#3f5b73" stroke-width="1.0"/><line x1="392.00" y1="164.00" x2="410.00" y2="168.00" stroke="#3f5b73" stroke-width="1.0"/><circle cx="190.00" cy="148.00" r="2.6" fill="#3f5b73"/><text x="410.00" y="164.00" font-family="'DejaVu Sans', 'Bitstream Vera Sans', Verdana, sans-serif" font-size="13px" font-weight="bold" text-anchor="start" fill="#2b2b33">cell text</text><text x="410.00" y="183.00" font-family="'DejaVu Sans', 'Bitstream Vera Sans', Verdana, sans-serif" font-size="12px" font-weight="normal" text-anchor="start" fill="#5a5f6a">the token in monospace; white/black by Oklab L*</text><line x1="325.00" y1="173.00" x2="392.00" y2="208.00" stroke="#3f5b73" stroke-width="1.0"/><line x1="392.00" y1="208.00" x2="410.00" y2="212.00" stroke="#3f5b73" stroke-width="1.0"/><circle cx="325.00" cy="173.00" r="2.6" fill="#3f5b73"/><text x="410.00" y="208.00" font-family="'DejaVu Sans', 'Bitstream Vera Sans', Verdana, sans-serif" font-size="13px" font-weight="bold" text-anchor="start" fill="#2b2b33">per-cell edge color</text><text x="410.00" y="227.00" font-family="'DejaVu Sans', 'Bitstream Vera Sans', Verdana, sans-serif" font-size="12px" font-weight="normal" text-anchor="start" fill="#5a5f6a">the palette entry nearest the nucleus color</text><line x1="293.33" y1="181.33" x2="392.00" y2="252.00" stroke="#3f5b73" stroke-width="1.0"/><line x1="392.00" y1="252.00" x2="410.00" y2="256.00" stroke="#3f5b73" stroke-width="1.0"/><circle cx="293.33" cy="181.33" r="2.6" fill="#3f5b73"/><text x="410.00" y="252.00" font-family="'DejaVu Sans', 'Bitstream Vera Sans', Verdana, sans-serif" font-size="13px" font-weight="bold" text-anchor="start" fill="#2b2b33">quartile mark</text><text x="410.00" y="271.00" font-family="'DejaVu Sans', 'Bitstream Vera Sans', Verdana, sans-serif" font-size="12px" font-weight="normal" text-anchor="start" fill="#5a5f6a">corner orientation encodes the token's rank</text></svg>
