<svg xmlns="http://www.w3.org/2000/svg" width="760.00" height="320.65" viewBox="0 0 760.00 320.65" font-family="'DejaVu Sans', 'Bitstream Vera Sans', Verdana, sans-serif" data-spec-version="v14" data-generator="scripts/paper_figures.py"><rect x="0.00" y="0.00" width="760.00" height="320.65" fill="#ffffff" stroke="none" stroke-width="1.0"/><svg x="40.00" y="50.00" width="300.00" height="220.65" viewBox="0.000 0.000 155.000 114.000"><defs xmlns="http://www.w3.org/2000/svg"><clipPath id="grid-clip-b2befddfcc66b255-2x2"><rect x="28" y="27" width="120" height="80"/></clipPath></defs><rect xmlns="http://www.w3.org/2000/svg" x="1" y="1" width="153" height="112" fill="#ffffff"/><g xmlns="http://www.w3.org/2000/svg" data-channel="grid"><rect x="28" y="27" width="120" height="80" fill="#ffffff"/><g><path fill="#ff3f2f" d="M28 27h6v10h-6zM40 27h6v10h-6zM46 27h6v10h-6zM52 27h6v10h-6zM58 27h6v10h-6zM64 27h6v10h-6zM70 27h6v10h-6zM82 27h6v10h-6zM82 37h6v10h-6zM82 47h6v10h-6zM82 57h6v10h-6zM76 57h6v10h-6zM64 57h6v10h-6zM52 57h6v10h-6zM34 57h6v10h-6zM28 57h6v10h-6zM28 37h6v10h-6z"/><path fill="#2f3fbf" d="M94 27h6v10h-6zM100 27h6v10h-6zM118 27h6v10h-6zM124 27h6v10h-6zM142 37h6v10h-6zM142 47h6v10h-6zM130 57h6v10h-6zM124 57h6v10h-6zM118 57h6v10h-6zM112 57h6v10h-6zM106 57h6v10h-6zM100 57h6v10h-6zM94 57h6v10h-6zM88 47h6v10h-6zM88 37h6v10h-6z"/><path fill="#e7be00" d="M112 67h6v10h-6zM118 67h6v10h-6zM124 67h6v10h-6zM136 67h6v10h-6zM142 77h6v10h-6zM142 97h6v10h-6zM130 97h6v10h-6zM112 97h6v10h-6zM94 97h6v10h-6zM88 97h6v10h-6zM88 77h6v10h-6z"/></g><g clip-path="url(#grid-clip-b2befddfcc66b255-2x2)" data-channel="ellipse" data-ellipse-anchor-x="148" data-ellipse-anchor-y="67" data-ellipse-rx="30.864" data-ellipse-ry="58.186" data-ellipse-rotation-deg="96"><ellipse cx="148" cy="67" rx="30.864" ry="58.186" transform="rotate(96 148 67)" fill="#000000" stroke="#000000" fill-opacity="0.2" stroke-opacity="0.3" stroke-width="2"/></g><g><g data-channel="cell" data-cell-index="0" data-cell-row="0" data-cell-col="0" data-surround-bits="0xb2befd" data-edge-color="#ff3f2f" data-cell-quartile="1"><rect x="34" y="37" width="48" height="20" fill="#c3b2a1"/><text x="58" y="47" fill="#000000" font-size="12" text-anchor="middle" dominant-baseline="central">a1b2c3</text><polygon points="34,37 44,37 34,47" fill="#000000"/></g><g data-channel="cell" data-cell-index="1" data-cell-row="0" data-cell-col="1" data-surround-bits="0xdfcc66" data-edge-color="#2f3fbf" data-cell-quartile="2"><rect x="94" y="37" width="48" height="20" fill="#f6e5d4"/><text x="118" y="47" fill="#000000" font-size="12" text-anchor="middle" dominant-baseline="central">d4e5f6</text><polygon points="142,37 132,37 142,47" fill="#000000"/></g><g data-channel="cell" data-cell-index="2" data-cell-row="1" data-cell-col="0" data-cell-blank="true" data-cell-blank-map="true"><rect x="34" y="77" width="48" height="20" rx="10" ry="10" fill="#ff3f2f" stroke="#000000" stroke-width="1"/><circle cx="70" cy="92" r="3.5" fill="#000000" data-blank-map-min="1,1"/><path d="M 65.8,82 H 74.2 M 70,77.8 V 86.2" fill="none" stroke="#000000" stroke-width="1.925" stroke-linecap="butt" data-blank-map-max="0,1"/></g><g data-channel="cell" data-cell-index="3" data-cell-row="1" data-cell-col="1" data-surround-bits="0xb25570" data-edge-color="#e7be00" data-cell-quartile="3"><rect x="94" y="77" width="48" height="20" fill="#b8b8a7"/><text x="118" y="87" fill="#000000" font-size="12" text-anchor="middle" dominant-baseline="central">a7b8</text><polygon points="142,97 142,87 132,97" fill="#000000"/></g></g></g><g xmlns="http://www.w3.org/2000/svg" data-channel="color-bar" data-bar-slots="9" data-bar-marker-left="1" data-bar-marker-right="0"><g data-color-bar-rank="0" data-color-bar-band="B"><rect x="2" y="2" width="20" height="17.843" fill="#2f3fbf"/><text x="12" y="17.203" fill="#ffffff" font-size="12" text-anchor="middle" data-color-bar-letter="true">b</text></g><g data-color-bar-rank="1" data-color-bar-band="G"><rect x="2" y="19.843" width="20" height="39.573" fill="#e7be00"/><text x="12" y="56.776" fill="#000000" font-size="12" text-anchor="middle" data-color-bar-letter="true">g</text></g><g data-color-bar-rank="2" data-color-bar-band="K"><rect x="2" y="59.416" width="20" height="41.817" fill="#000000"/><text x="12" y="98.593" fill="#ffffff" font-size="12" text-anchor="middle" data-color-bar-letter="true">k</text></g><g data-color-bar-rank="3" data-color-bar-band="R"><rect x="2" y="101.233" width="20" height="10.767" fill="#ff3f2f"/><text x="12" y="109.36" fill="#000000" font-size="12" text-anchor="middle" data-color-bar-letter="true">r</text></g><circle cx="6.6" cy="20.333" r="3.4" fill="#ffffff" stroke="#000000" stroke-width="0.75" data-bar-marker="left"/><circle cx="17.4" cy="8.111" r="3.4" fill="#ffffff" stroke="#000000" stroke-width="0.75" data-bar-marker="right"/></g><g xmlns="http://www.w3.org/2000/svg" data-channel="label-top"><text x="28" y="17" fill="#666666" font-size="12" dominant-baseline="central">hex, 64-bit</text></g><line xmlns="http://www.w3.org/2000/svg" x1="1" y1="1.5" x2="154" y2="1.5" stroke="#808080" stroke-width="1" shape-rendering="crispEdges"/><line xmlns="http://www.w3.org/2000/svg" x1="153.5" y1="1" x2="153.5" y2="113" stroke="#808080" stroke-width="1" shape-rendering="crispEdges"/><line xmlns="http://www.w3.org/2000/svg" x1="1" y1="112.5" x2="154" y2="112.5" stroke="#808080" stroke-width="1" shape-rendering="crispEdges"/><line xmlns="http://www.w3.org/2000/svg" x1="1.5" y1="1" x2="1.5" y2="113" stroke="#808080" stroke-width="1" shape-rendering="crispEdges"/><line xmlns="http://www.w3.org/2000/svg" x1="22.5" y1="1" x2="22.5" y2="113" stroke="#808080" stroke-width="1" shape-rendering="crispEdges"/></svg><rect x="40.00" y="50.00" width="300.00" height="220.65" fill="none" stroke="#c9cdd4" stroke-width="1"/><line x1="112.26" y1="128.06" x2="382.00" y2="66.00" stroke="#3f5b73" stroke-width="1.0"/><line x1="382.00" y1="66.00" x2="400.00" y2="70.00" stroke="#3f5b73" stroke-width="1.0"/><circle cx="112.26" cy="128.06" r="2.6" fill="#3f5b73"/><text x="400.00" y="66.00" font-family="'DejaVu Sans', 'Bitstream Vera Sans', Verdana, sans-serif" font-size="13px" font-weight="bold" text-anchor="start" fill="#2b2b33">quartile mark</text><text x="400.00" y="85.00" font-family="'DejaVu Sans', 'Bitstream Vera Sans', Verdana, sans-serif" font-size="12px" font-weight="normal" text-anchor="start" fill="#5a5f6a">corner orientation encodes the token's rank quartile</text><circle cx="112.26" cy="128.06" r="3.0" fill="#3f5b73"/><line x1="175.48" y1="208.71" x2="382.00" y2="146.00" stroke="#3f5b73" stroke-width="1.0"/><line x1="382.00" y1="146.00" x2="400.00" y2="150.00" stroke="#3f5b73" stroke-width="1.0"/><circle cx="175.48" cy="208.71" r="2.6" fill="#3f5b73"/><text x="400.00" y="146.00" font-family="'DejaVu Sans', 'Bitstream Vera Sans', Verdana, sans-serif" font-size="13px" font-weight="bold" text-anchor="start" fill="#2b2b33">blank-cell map — max (plus)</text><text x="400.00" y="165.00" font-family="'DejaVu Sans', 'Bitstream Vera Sans', Verdana, sans-serif" font-size="12px" font-weight="normal" text-anchor="start" fill="#5a5f6a">marks the cell holding the largest fingerprint token</text><circle cx="175.48" cy="208.71" r="3.0" fill="#000000"/><line x1="175.48" y1="228.06" x2="382.00" y2="226.00" stroke="#3f5b73" stroke-width="1.0"/><line x1="382.00" y1="226.00" x2="400.00" y2="230.00" stroke="#3f5b73" stroke-width="1.0"/><circle cx="175.48" cy="228.06" r="2.6" fill="#3f5b73"/><text x="400.00" y="226.00" font-family="'DejaVu Sans', 'Bitstream Vera Sans', Verdana, sans-serif" font-size="13px" font-weight="bold" text-anchor="start" fill="#2b2b33">blank-cell map — min (dot)</text><text x="400.00" y="245.00" font-family="'DejaVu Sans', 'Bitstream Vera Sans', Verdana, sans-serif" font-size="12px" font-weight="normal" text-anchor="start" fill="#5a5f6a">marks the cell holding the smallest token</text><circle cx="175.48" cy="228.06" r="3.0" fill="#000000"/><text x="190.00" y="292.65" font-family="'DejaVu Sans', 'Bitstream Vera Sans', Verdana, sans-serif" font-size="12px" font-weight="normal" text-anchor="middle" fill="#5a5f6a">blanks sit at fingerprint-derived positions —</text><text x="190.00" y="308.65" font-family="'DejaVu Sans', 'Bitstream Vera Sans', Verdana, sans-serif" font-size="12px" font-weight="normal" text-anchor="middle" fill="#5a5f6a">their layout is itself a CRC</text></svg>
