<svg xmlns="http://www.w3.org/2000/svg" width="610.00" height="348.45" viewBox="0 0 610.00 348.45" font-family="'DejaVu Sans', 'Bitstream Vera Sans', Verdana, sans-serif" data-spec-version="v13" data-generator="scripts/paper_figures.py"><rect x="0.00" y="0.00" width="610.00" height="348.45" fill="#ffffff" stroke="none" stroke-width="1.0"/><svg x="30.00" y="40.00" width="240.00" height="238.45" viewBox="0.000 0.000 155.000 154.000"><defs xmlns="http://www.w3.org/2000/svg"><clipPath id="grid-clip-24292fbf2cbc3d58-2x3"><rect x="28" y="27" width="120" height="120"/></clipPath></defs><rect xmlns="http://www.w3.org/2000/svg" x="1" y="1" width="153" height="152" fill="#ffffff"/><g xmlns="http://www.w3.org/2000/svg" data-channel="grid"><rect x="28" y="27" width="120" height="120" fill="#ffffff"/><g><path fill="#000000" d="M28 27h6v10h-6zM34 27h6v10h-6zM40 27h6v10h-6zM46 27h6v10h-6zM58 27h6v10h-6zM76 27h6v10h-6zM82 47h6v10h-6zM76 57h6v10h-6zM46 57h6v10h-6zM28 57h6v10h-6z"/><path fill="#e7be00" d="M100 27h6v10h-6zM106 27h6v10h-6zM112 27h6v10h-6zM118 27h6v10h-6zM130 27h6v10h-6zM142 37h6v10h-6zM142 47h6v10h-6zM136 57h6v10h-6zM118 57h6v10h-6zM112 57h6v10h-6zM106 57h6v10h-6zM100 57h6v10h-6zM94 57h6v10h-6zM88 57h6v10h-6zM88 37h6v10h-6z"/><path fill="#e7be00" d="M28 67h6v10h-6zM34 67h6v10h-6zM40 67h6v10h-6zM46 67h6v10h-6zM52 67h6v10h-6zM58 67h6v10h-6zM64 67h6v10h-6zM70 67h6v10h-6zM82 87h6v10h-6zM82 97h6v10h-6zM70 97h6v10h-6zM58 97h6v10h-6zM46 97h6v10h-6zM40 97h6v10h-6zM34 97h6v10h-6zM28 97h6v10h-6z"/><path fill="#2f3fbf" d="M94 67h6v10h-6zM130 67h6v10h-6zM136 67h6v10h-6zM142 77h6v10h-6zM130 97h6v10h-6zM124 97h6v10h-6zM118 97h6v10h-6z"/><path fill="#000000" d="M28 107h6v10h-6zM34 107h6v10h-6zM40 107h6v10h-6zM52 107h6v10h-6zM58 107h6v10h-6zM64 107h6v10h-6zM82 127h6v10h-6zM64 137h6v10h-6zM40 137h6v10h-6zM34 137h6v10h-6zM28 137h6v10h-6zM28 117h6v10h-6z"/><path fill="#000000" d="M100 107h6v10h-6zM106 107h6v10h-6zM130 107h6v10h-6zM142 127h6v10h-6zM142 137h6v10h-6zM130 137h6v10h-6zM112 137h6v10h-6zM106 137h6v10h-6zM100 137h6v10h-6zM88 137h6v10h-6z"/></g><g clip-path="url(#grid-clip-24292fbf2cbc3d58-2x3)" data-channel="ellipse" data-ellipse-anchor-x="28" data-ellipse-anchor-y="147" data-ellipse-rx="73.992" data-ellipse-ry="37.335" data-ellipse-rotation-deg="72"><ellipse cx="28" cy="147" rx="73.992" ry="37.335" transform="rotate(72 28 147)" fill="#000000" stroke="#000000" fill-opacity="0.2" stroke-opacity="0.3" stroke-width="2"/></g><g><g data-channel="cell" data-cell-index="0" data-cell-row="0" data-cell-col="0" data-surround-bits="0x24292f" data-edge-color="#000000"><rect x="34" y="37" width="48" height="20" fill="#840e55"/><text x="58" y="47" fill="#ffffff" font-size="12" text-anchor="middle" dominant-baseline="central">550e84</text></g><g data-channel="cell" data-cell-index="1" data-cell-row="0" data-cell-col="1" data-surround-bits="0xbf2cbc" data-edge-color="#e7be00"><rect x="94" y="37" width="48" height="20" fill="#9be200"/><text x="118" y="47" fill="#000000" font-size="12" text-anchor="middle" dominant-baseline="central">00e29b</text></g><g data-channel="cell" data-cell-index="2" data-cell-row="1" data-cell-col="0" data-surround-bits="0x3d58ff" data-edge-color="#e7be00" data-cell-quartile="3"><rect x="34" y="77" width="48" height="20" fill="#a7d441"/><text x="58" y="87" fill="#000000" font-size="12" text-anchor="middle" dominant-baseline="central">41d4a7</text><polygon points="82,97 82,87 72,97" fill="#000000"/></g><g data-channel="cell" data-cell-index="3" data-cell-row="1" data-cell-col="1" data-surround-bits="0x1c582" data-edge-color="#2f3fbf" data-cell-quartile="2"><rect x="94" y="77" width="48" height="20" fill="#664416"/><text x="118" y="87" fill="#ffffff" font-size="12" text-anchor="middle" dominant-baseline="central">164466</text><polygon points="142,77 132,77 142,87" fill="#ffffff"/></g><g data-channel="cell" data-cell-index="4" data-cell-row="2" data-cell-col="0" data-surround-bits="0xb88877" data-edge-color="#000000" data-cell-quartile="1"><rect x="34" y="117" width="48" height="20" fill="#004455"/><text x="58" y="127" fill="#ffffff" font-size="12" text-anchor="middle" dominant-baseline="central">554400</text><polygon points="34,117 44,117 34,127" fill="#ffffff"/></g><g data-channel="cell" data-cell-index="5" data-cell-row="2" data-cell-col="1" data-surround-bits="0x2e588c" data-edge-color="#000000"><rect x="94" y="117" width="48" height="20" fill="#000000"/><text x="118" y="127" fill="#ffffff" font-size="12" text-anchor="middle" dominant-baseline="central">00</text></g></g></g><g xmlns="http://www.w3.org/2000/svg" data-channel="color-bar" data-bar-slots="12" data-bar-marker-left="2" data-bar-marker-right="8"><g data-color-bar-rank="0" data-color-bar-band="G"><rect x="2" y="2" width="20" height="82.12" fill="#e7be00"/><text x="12" y="81.48" fill="#000000" font-size="12" text-anchor="middle" data-color-bar-letter="true">g</text></g><g data-color-bar-rank="1" data-color-bar-band="R"><rect x="2" y="84.12" width="20" height="15.053" fill="#ff3f2f"/><text x="12" y="96.533" fill="#000000" font-size="12" text-anchor="middle" data-color-bar-letter="true">r</text></g><g data-color-bar-rank="2" data-color-bar-band="B"><rect x="2" y="99.173" width="20" height="26.414" fill="#2f3fbf"/><text x="12" y="122.946" fill="#ffffff" font-size="12" text-anchor="middle" data-color-bar-letter="true">b</text></g><g data-color-bar-rank="3" data-color-bar-band="K"><rect x="2" y="125.586" width="20" height="26.414" fill="#000000"/><text x="12" y="149.36" fill="#ffffff" font-size="12" text-anchor="middle" data-color-bar-letter="true">k</text></g><circle cx="6.6" cy="33.25" r="3.4" fill="#ffffff" stroke="#000000" stroke-width="0.75" data-bar-marker="left"/><circle cx="17.4" cy="108.25" r="3.4" fill="#ffffff" stroke="#000000" stroke-width="0.75" data-bar-marker="right"/></g><g xmlns="http://www.w3.org/2000/svg" data-channel="label-top"><text x="28" y="17" fill="#666666" font-size="12" dominant-baseline="central">UUID:</text></g><line xmlns="http://www.w3.org/2000/svg" x1="1" y1="1.5" x2="154" y2="1.5" stroke="#808080" stroke-width="1" shape-rendering="crispEdges"/><line xmlns="http://www.w3.org/2000/svg" x1="153.5" y1="1" x2="153.5" y2="153" stroke="#808080" stroke-width="1" shape-rendering="crispEdges"/><line xmlns="http://www.w3.org/2000/svg" x1="1" y1="152.5" x2="154" y2="152.5" stroke="#808080" stroke-width="1" shape-rendering="crispEdges"/><line xmlns="http://www.w3.org/2000/svg" x1="1.5" y1="1" x2="1.5" y2="153" stroke="#808080" stroke-width="1" shape-rendering="crispEdges"/><line xmlns="http://www.w3.org/2000/svg" x1="22.5" y1="1" x2="22.5" y2="153" stroke="#808080" stroke-width="1" shape-rendering="crispEdges"/></svg><svg x="340.00" y="40.00" width="240.00" height="238.45" viewBox="0.000 0.000 155.000 154.000"><defs xmlns="http://www.w3.org/2000/svg"><clipPath id="grid-clip-4c26874a725c3b3d-2x3"><rect x="28" y="27" width="120" height="120"/></clipPath></defs><rect xmlns="http://www.w3.org/2000/svg" x="1" y="1" width="153" height="152" fill="#ffffff"/><g xmlns="http://www.w3.org/2000/svg" data-channel="grid"><rect x="28" y="27" width="120" height="120" fill="#ffffff"/><g><path fill="#000000" d="M28 27h6v10h-6zM34 27h6v10h-6zM40 27h6v10h-6zM70 27h6v10h-6zM82 27h6v10h-6zM82 37h6v10h-6zM76 57h6v10h-6zM46 57h6v10h-6zM40 57h6v10h-6zM28 47h6v10h-6z"/><path fill="#e7be00" d="M100 27h6v10h-6zM106 27h6v10h-6zM112 27h6v10h-6zM124 27h6v10h-6zM142 27h6v10h-6zM142 57h6v10h-6zM136 57h6v10h-6zM130 57h6v10h-6zM112 57h6v10h-6zM100 57h6v10h-6zM88 47h6v10h-6z"/><path fill="#e7be00" d="M40 67h6v10h-6zM46 67h6v10h-6zM58 67h6v10h-6zM64 67h6v10h-6zM70 67h6v10h-6zM76 67h6v10h-6zM82 77h6v10h-6zM82 87h6v10h-6zM82 97h6v10h-6zM76 97h6v10h-6zM58 97h6v10h-6zM52 97h6v10h-6zM40 97h6v10h-6zM34 97h6v10h-6zM28 97h6v10h-6z"/><path fill="#2f3fbf" d="M94 67h6v10h-6zM100 67h6v10h-6zM106 67h6v10h-6zM112 67h6v10h-6zM118 67h6v10h-6zM124 67h6v10h-6zM130 67h6v10h-6zM136 67h6v10h-6zM142 67h6v10h-6zM124 97h6v10h-6zM106 97h6v10h-6zM100 97h6v10h-6zM94 97h6v10h-6zM88 77h6v10h-6z"/><path fill="#ff3f2f" d="M28 107h6v10h-6zM40 107h6v10h-6zM64 107h6v10h-6zM76 107h6v10h-6zM82 107h6v10h-6zM82 117h6v10h-6zM82 127h6v10h-6zM82 137h6v10h-6zM76 137h6v10h-6zM70 137h6v10h-6zM58 137h6v10h-6zM52 137h6v10h-6zM46 137h6v10h-6zM34 137h6v10h-6zM28 137h6v10h-6z"/><path fill="#000000" d="M88 107h6v10h-6zM106 107h6v10h-6zM112 107h6v10h-6zM118 107h6v10h-6zM124 107h6v10h-6zM130 107h6v10h-6zM136 107h6v10h-6zM136 137h6v10h-6zM124 137h6v10h-6zM112 137h6v10h-6zM106 137h6v10h-6zM94 137h6v10h-6zM88 137h6v10h-6zM88 127h6v10h-6zM88 117h6v10h-6z"/></g><g clip-path="url(#grid-clip-4c26874a725c3b3d-2x3)" data-channel="ellipse" data-ellipse-anchor-x="28" data-ellipse-anchor-y="107" data-ellipse-rx="55.958" data-ellipse-ry="80.187" data-ellipse-rotation-deg="132"><ellipse cx="28" cy="107" rx="55.958" ry="80.187" transform="rotate(132 28 107)" fill="#000000" stroke="#000000" fill-opacity="0.2" stroke-opacity="0.3" stroke-width="2"/></g><g><g data-channel="cell" data-cell-index="0" data-cell-row="0" data-cell-col="0" data-surround-bits="0x4c2687" data-edge-color="#000000"><rect x="34" y="37" width="48" height="20" fill="#840e55"/><text x="58" y="47" fill="#ffffff" font-size="12" text-anchor="middle" dominant-baseline="central">550e84</text></g><g data-channel="cell" data-cell-index="1" data-cell-row="0" data-cell-col="1" data-surround-bits="0x4a725c" data-edge-color="#e7be00" data-cell-quartile="3"><rect x="94" y="37" width="48" height="20" fill="#9be200"/><text x="118" y="47" fill="#000000" font-size="12" text-anchor="middle" dominant-baseline="central">00e29b</text><polygon points="142,57 142,47 132,57" fill="#000000"/></g><g data-channel="cell" data-cell-index="2" data-cell-row="1" data-cell-col="0" data-surround-bits="0x3b3dec" data-edge-color="#e7be00"><rect x="34" y="77" width="48" height="20" fill="#a7d541"/><text x="58" y="87" fill="#000000" font-size="12" text-anchor="middle" dominant-baseline="central">41d5a7</text></g><g data-channel="cell" data-cell-index="3" data-cell-row="1" data-cell-col="1" data-surround-bits="0x9c83fe" data-edge-color="#2f3fbf" data-cell-quartile="1"><rect x="94" y="77" width="48" height="20" fill="#664416"/><text x="118" y="87" fill="#ffffff" font-size="12" text-anchor="middle" dominant-baseline="central">164466</text><polygon points="94,77 104,77 94,87" fill="#ffffff"/></g><g data-channel="cell" data-cell-index="4" data-cell-row="2" data-cell-col="0" data-surround-bits="0x377f45" data-edge-color="#ff3f2f" data-cell-quartile="2"><rect x="34" y="117" width="48" height="20" fill="#004455"/><text x="58" y="127" fill="#ffffff" font-size="12" text-anchor="middle" dominant-baseline="central">554400</text><polygon points="82,117 72,117 82,127" fill="#ffffff"/></g><g data-channel="cell" data-cell-index="5" data-cell-row="2" data-cell-col="1" data-surround-bits="0xf6a1f9" data-edge-color="#000000"><rect x="94" y="117" width="48" height="20" fill="#000000"/><text x="118" y="127" fill="#ffffff" font-size="12" text-anchor="middle" dominant-baseline="central">00</text></g></g></g><g xmlns="http://www.w3.org/2000/svg" data-channel="color-bar" data-bar-slots="12" data-bar-marker-left="9" data-bar-marker-right="7"><g data-color-bar-rank="0" data-color-bar-band="G"><rect x="2" y="2" width="20" height="28.564" fill="#e7be00"/><text x="12" y="27.924" fill="#000000" font-size="12" text-anchor="middle" data-color-bar-letter="true">g</text></g><g data-color-bar-rank="1" data-color-bar-band="K"><rect x="2" y="30.564" width="20" height="93.131" fill="#000000"/><text x="12" y="121.055" fill="#ffffff" font-size="12" text-anchor="middle" data-color-bar-letter="true">k</text></g><g data-color-bar-rank="2" data-color-bar-band="R"><rect x="2" y="123.695" width="20" height="19.267" fill="#ff3f2f"/><text x="12" y="140.322" fill="#000000" font-size="12" text-anchor="middle" data-color-bar-letter="true">r</text></g><g data-color-bar-rank="3" data-color-bar-band="B"><rect x="2" y="142.962" width="20" height="9.038" fill="#2f3fbf"/><text x="12" y="149.36" fill="#ffffff" font-size="12" text-anchor="middle" data-color-bar-letter="true">b</text></g><circle cx="6.6" cy="120.75" r="3.4" fill="#ffffff" stroke="#000000" stroke-width="0.75" data-bar-marker="left"/><circle cx="17.4" cy="95.75" r="3.4" fill="#ffffff" stroke="#000000" stroke-width="0.75" data-bar-marker="right"/></g><g xmlns="http://www.w3.org/2000/svg" data-channel="label-top"><text x="28" y="17" fill="#666666" font-size="12" dominant-baseline="central">UUID:</text></g><line xmlns="http://www.w3.org/2000/svg" x1="1" y1="1.5" x2="154" y2="1.5" stroke="#808080" stroke-width="1" shape-rendering="crispEdges"/><line xmlns="http://www.w3.org/2000/svg" x1="153.5" y1="1" x2="153.5" y2="153" stroke="#808080" stroke-width="1" shape-rendering="crispEdges"/><line xmlns="http://www.w3.org/2000/svg" x1="1" y1="152.5" x2="154" y2="152.5" stroke="#808080" stroke-width="1" shape-rendering="crispEdges"/><line xmlns="http://www.w3.org/2000/svg" x1="1.5" y1="1" x2="1.5" y2="153" stroke="#808080" stroke-width="1" shape-rendering="crispEdges"/><line xmlns="http://www.w3.org/2000/svg" x1="22.5" y1="1" x2="22.5" y2="153" stroke="#808080" stroke-width="1" shape-rendering="crispEdges"/></svg><text x="305.00" y="153.23" font-family="'DejaVu Sans', 'Bitstream Vera Sans', Verdana, sans-serif" font-size="34px" font-weight="bold" text-anchor="middle" fill="#3f5b73">≠</text><text x="150.00" y="302.45" font-family="'DejaVu Sans', 'Bitstream Vera Sans', Verdana, sans-serif" font-size="13px" font-weight="bold" text-anchor="middle" fill="#2b2b33">input</text><text x="460.00" y="302.45" font-family="'DejaVu Sans', 'Bitstream Vera Sans', Verdana, sans-serif" font-size="13px" font-weight="bold" text-anchor="middle" fill="#2b2b33">input, one middle character changed</text><text x="305.00" y="332.45" font-family="'DejaVu Sans', 'Bitstream Vera Sans', Verdana, sans-serif" font-size="12px" font-weight="normal" text-anchor="middle" fill="#5a5f6a">The surround texture changes across most cells while the readable text barely moves.</text></svg>
