<svg xmlns="http://www.w3.org/2000/svg" width="984.00" height="498.81" viewBox="0 0 984.00 498.81" font-family="'DejaVu Sans', 'Bitstream Vera Sans', Verdana, sans-serif" data-spec-version="v10" data-generator="scripts/paper_figures.py"><rect x="0.00" y="0.00" width="984.00" height="498.81" fill="#ffffff" stroke="none" stroke-width="1.0"/><svg x="60.00" y="64.00" width="380.00" height="378.81" viewBox="0.000 0.000 318.000 317.000"><defs xmlns="http://www.w3.org/2000/svg"><clipPath id="grid-clip-c9a8f1a52b1211b6-4x6"><rect x="31.167" y="30.167" width="280" height="280"/></clipPath></defs><rect xmlns="http://www.w3.org/2000/svg" x="0" y="0" width="318" height="317" fill="#ffffff"/><g xmlns="http://www.w3.org/2000/svg" data-channel="grid"><rect x="31.167" y="30.167" width="280" height="280" fill="#ff3f2f"/><g><path fill="#e7be00" d="M31.167 30.167h7v11.667h-7zM59.167 30.167h7v11.667h-7zM66.167 30.167h7v11.667h-7zM73.167 30.167h7v11.667h-7zM80.167 30.167h7v11.667h-7zM94.167 53.5h7v11.667h-7zM87.167 65.167h7v11.667h-7zM73.167 65.167h7v11.667h-7zM66.167 65.167h7v11.667h-7zM45.167 65.167h7v11.667h-7zM31.167 53.5h7v11.667h-7zM31.167 41.833h7v11.667h-7z"/><path fill="#e7be00" d="M108.167 30.167h7v11.667h-7zM129.167 30.167h7v11.667h-7zM157.167 30.167h7v11.667h-7zM164.167 30.167h7v11.667h-7zM164.167 53.5h7v11.667h-7zM157.167 65.167h7v11.667h-7zM136.167 65.167h7v11.667h-7zM122.167 65.167h7v11.667h-7zM101.167 65.167h7v11.667h-7zM101.167 41.833h7v11.667h-7z"/><path fill="#2f3fbf" d="M185.167 30.167h7v11.667h-7zM199.167 30.167h7v11.667h-7zM213.167 30.167h7v11.667h-7zM220.167 30.167h7v11.667h-7zM234.167 30.167h7v11.667h-7zM234.167 41.833h7v11.667h-7zM234.167 65.167h7v11.667h-7zM227.167 65.167h7v11.667h-7zM213.167 65.167h7v11.667h-7zM206.167 65.167h7v11.667h-7zM178.167 65.167h7v11.667h-7z"/><path fill="#e7be00" d="M241.167 30.167h7v11.667h-7zM248.167 30.167h7v11.667h-7zM269.167 30.167h7v11.667h-7zM290.167 30.167h7v11.667h-7zM304.167 53.5h7v11.667h-7zM304.167 65.167h7v11.667h-7zM283.167 65.167h7v11.667h-7zM276.167 65.167h7v11.667h-7zM269.167 65.167h7v11.667h-7zM255.167 65.167h7v11.667h-7zM241.167 53.5h7v11.667h-7zM241.167 41.833h7v11.667h-7z"/><path fill="#2f3fbf" d="M101.167 76.833h7v11.667h-7zM108.167 76.833h7v11.667h-7zM115.167 76.833h7v11.667h-7zM136.167 76.833h7v11.667h-7zM143.167 76.833h7v11.667h-7zM164.167 76.833h7v11.667h-7zM164.167 111.833h7v11.667h-7zM157.167 111.833h7v11.667h-7zM150.167 111.833h7v11.667h-7zM136.167 111.833h7v11.667h-7zM129.167 111.833h7v11.667h-7zM122.167 111.833h7v11.667h-7zM115.167 111.833h7v11.667h-7zM101.167 100.167h7v11.667h-7zM101.167 88.5h7v11.667h-7z"/><path fill="#2f3fbf" d="M171.167 76.833h7v11.667h-7zM185.167 76.833h7v11.667h-7zM192.167 76.833h7v11.667h-7zM206.167 76.833h7v11.667h-7zM213.167 76.833h7v11.667h-7zM220.167 76.833h7v11.667h-7zM227.167 76.833h7v11.667h-7zM234.167 76.833h7v11.667h-7zM234.167 111.833h7v11.667h-7zM199.167 111.833h7v11.667h-7zM178.167 111.833h7v11.667h-7zM171.167 88.5h7v11.667h-7z"/><path fill="#2f3fbf" d="M38.167 123.5h7v11.667h-7zM52.167 123.5h7v11.667h-7zM73.167 123.5h7v11.667h-7zM80.167 123.5h7v11.667h-7zM94.167 123.5h7v11.667h-7zM94.167 135.167h7v11.667h-7zM73.167 158.5h7v11.667h-7zM59.167 158.5h7v11.667h-7zM52.167 158.5h7v11.667h-7zM45.167 158.5h7v11.667h-7zM38.167 158.5h7v11.667h-7zM31.167 146.833h7v11.667h-7z"/><path fill="#e7be00" d="M143.167 123.5h7v11.667h-7zM157.167 123.5h7v11.667h-7zM164.167 146.833h7v11.667h-7zM157.167 158.5h7v11.667h-7zM150.167 158.5h7v11.667h-7zM136.167 158.5h7v11.667h-7zM129.167 158.5h7v11.667h-7z"/><path fill="#e7be00" d="M171.167 123.5h7v11.667h-7zM178.167 123.5h7v11.667h-7zM185.167 123.5h7v11.667h-7zM192.167 123.5h7v11.667h-7zM206.167 123.5h7v11.667h-7zM220.167 123.5h7v11.667h-7zM227.167 123.5h7v11.667h-7zM234.167 123.5h7v11.667h-7zM234.167 146.833h7v11.667h-7zM234.167 158.5h7v11.667h-7zM220.167 158.5h7v11.667h-7zM213.167 158.5h7v11.667h-7zM192.167 158.5h7v11.667h-7zM171.167 158.5h7v11.667h-7zM171.167 146.833h7v11.667h-7zM171.167 135.167h7v11.667h-7z"/><path fill="#e7be00" d="M255.167 123.5h7v11.667h-7zM262.167 123.5h7v11.667h-7zM290.167 123.5h7v11.667h-7zM297.167 158.5h7v11.667h-7zM255.167 158.5h7v11.667h-7zM241.167 158.5h7v11.667h-7zM241.167 146.833h7v11.667h-7z"/><path fill="#e7be00" d="M31.167 170.167h7v11.667h-7zM38.167 170.167h7v11.667h-7zM66.167 170.167h7v11.667h-7zM80.167 170.167h7v11.667h-7zM87.167 170.167h7v11.667h-7zM94.167 170.167h7v11.667h-7zM94.167 181.833h7v11.667h-7zM87.167 205.167h7v11.667h-7zM80.167 205.167h7v11.667h-7zM59.167 205.167h7v11.667h-7zM45.167 205.167h7v11.667h-7zM31.167 205.167h7v11.667h-7zM31.167 193.5h7v11.667h-7z"/><path fill="#e7be00" d="M101.167 170.167h7v11.667h-7zM108.167 170.167h7v11.667h-7zM122.167 170.167h7v11.667h-7zM136.167 170.167h7v11.667h-7zM150.167 170.167h7v11.667h-7zM157.167 170.167h7v11.667h-7zM143.167 205.167h7v11.667h-7zM136.167 205.167h7v11.667h-7zM108.167 205.167h7v11.667h-7z"/><path fill="#ffffff" d="M276.167 170.167h7v11.667h-7zM283.167 170.167h7v11.667h-7zM290.167 170.167h7v11.667h-7zM297.167 170.167h7v11.667h-7zM304.167 170.167h7v11.667h-7zM304.167 193.5h7v11.667h-7zM304.167 205.167h7v11.667h-7zM283.167 205.167h7v11.667h-7zM262.167 205.167h7v11.667h-7zM248.167 205.167h7v11.667h-7zM241.167 193.5h7v11.667h-7zM241.167 181.833h7v11.667h-7z"/><path fill="#2f3fbf" d="M31.167 216.833h7v11.667h-7zM38.167 216.833h7v11.667h-7zM52.167 216.833h7v11.667h-7zM66.167 216.833h7v11.667h-7zM80.167 216.833h7v11.667h-7zM87.167 216.833h7v11.667h-7zM94.167 216.833h7v11.667h-7zM94.167 240.167h7v11.667h-7zM87.167 251.833h7v11.667h-7zM59.167 251.833h7v11.667h-7zM52.167 251.833h7v11.667h-7zM38.167 251.833h7v11.667h-7zM31.167 251.833h7v11.667h-7z"/><path fill="#e7be00" d="M115.167 216.833h7v11.667h-7zM122.167 216.833h7v11.667h-7zM143.167 216.833h7v11.667h-7zM150.167 216.833h7v11.667h-7zM157.167 216.833h7v11.667h-7zM164.167 240.167h7v11.667h-7zM164.167 251.833h7v11.667h-7zM157.167 251.833h7v11.667h-7zM143.167 251.833h7v11.667h-7zM136.167 251.833h7v11.667h-7zM129.167 251.833h7v11.667h-7zM122.167 251.833h7v11.667h-7zM115.167 251.833h7v11.667h-7zM108.167 251.833h7v11.667h-7zM101.167 240.167h7v11.667h-7zM101.167 228.5h7v11.667h-7z"/><path fill="#2f3fbf" d="M171.167 216.833h7v11.667h-7zM192.167 216.833h7v11.667h-7zM220.167 216.833h7v11.667h-7zM234.167 216.833h7v11.667h-7zM227.167 251.833h7v11.667h-7zM220.167 251.833h7v11.667h-7zM213.167 251.833h7v11.667h-7zM199.167 251.833h7v11.667h-7zM178.167 251.833h7v11.667h-7zM171.167 251.833h7v11.667h-7z"/><path fill="#ffffff" d="M255.167 216.833h7v11.667h-7zM262.167 216.833h7v11.667h-7zM269.167 216.833h7v11.667h-7zM276.167 216.833h7v11.667h-7zM304.167 240.167h7v11.667h-7zM304.167 251.833h7v11.667h-7zM297.167 251.833h7v11.667h-7zM290.167 251.833h7v11.667h-7zM269.167 251.833h7v11.667h-7zM241.167 251.833h7v11.667h-7zM241.167 240.167h7v11.667h-7z"/><path fill="#ffffff" d="M31.167 263.5h7v11.667h-7zM38.167 263.5h7v11.667h-7zM45.167 263.5h7v11.667h-7zM66.167 263.5h7v11.667h-7zM87.167 263.5h7v11.667h-7zM94.167 275.167h7v11.667h-7zM94.167 286.833h7v11.667h-7zM87.167 298.5h7v11.667h-7zM80.167 298.5h7v11.667h-7zM73.167 298.5h7v11.667h-7zM66.167 298.5h7v11.667h-7zM59.167 298.5h7v11.667h-7zM52.167 298.5h7v11.667h-7zM45.167 298.5h7v11.667h-7zM31.167 298.5h7v11.667h-7zM31.167 286.833h7v11.667h-7z"/><path fill="#ffffff" d="M101.167 263.5h7v11.667h-7zM115.167 263.5h7v11.667h-7zM122.167 263.5h7v11.667h-7zM129.167 263.5h7v11.667h-7zM136.167 263.5h7v11.667h-7zM143.167 263.5h7v11.667h-7zM164.167 286.833h7v11.667h-7zM164.167 298.5h7v11.667h-7zM157.167 298.5h7v11.667h-7zM143.167 298.5h7v11.667h-7zM136.167 298.5h7v11.667h-7zM129.167 298.5h7v11.667h-7zM122.167 298.5h7v11.667h-7zM115.167 298.5h7v11.667h-7zM108.167 298.5h7v11.667h-7z"/><path fill="#e7be00" d="M171.167 263.5h7v11.667h-7zM178.167 263.5h7v11.667h-7zM185.167 263.5h7v11.667h-7zM213.167 263.5h7v11.667h-7zM220.167 263.5h7v11.667h-7zM234.167 275.167h7v11.667h-7zM234.167 298.5h7v11.667h-7zM213.167 298.5h7v11.667h-7zM199.167 298.5h7v11.667h-7zM192.167 298.5h7v11.667h-7zM171.167 286.833h7v11.667h-7zM171.167 275.167h7v11.667h-7z"/></g><g clip-path="url(#grid-clip-c9a8f1a52b1211b6-4x6)" data-channel="ellipse" data-ellipse-anchor-x="241.167" data-ellipse-anchor-y="170.167" data-ellipse-rx="61.583" data-ellipse-ry="110.041" data-ellipse-rotation-deg="180"><ellipse cx="241.167" cy="170.167" rx="61.583" ry="110.041" transform="rotate(180 241.167 170.167)" fill="#000000" stroke="#000000" fill-opacity="0.25" stroke-opacity="0.35" stroke-width="2.333"/></g><g><g data-channel="cell" data-cell-index="0" data-cell-row="0" data-cell-col="0" data-surround-bits="0xc9a8f1" data-edge-color="#e7be00"><rect x="38.167" y="41.833" width="56" height="23.333" fill="#96a96a"/><text x="66.167" y="53.5" fill="#000000" font-size="13.333" text-anchor="middle" dominant-baseline="central">6aa996</text></g><g data-channel="cell" data-cell-index="1" data-cell-row="0" data-cell-col="1" data-surround-bits="0xa52b12" data-edge-color="#e7be00"><rect x="108.167" y="41.833" width="56" height="23.333" fill="#38ad1d"/><text x="136.167" y="53.5" fill="#000000" font-size="13.333" text-anchor="middle" dominant-baseline="central">1dad38</text></g><g data-channel="cell" data-cell-index="2" data-cell-row="0" data-cell-col="2" data-surround-bits="0x11b6d4" data-edge-color="#2f3fbf" data-cell-quartile="3"><rect x="178.167" y="41.833" width="56" height="23.333" fill="#3f3cce"/><text x="206.167" y="53.5" fill="#ffffff" font-size="13.333" text-anchor="middle" dominant-baseline="central">ce3c3f</text><polygon points="234.167,65.167 234.167,53.5 222.5,65.167" fill="#ffffff"/></g><g data-channel="cell" data-cell-index="3" data-cell-row="0" data-cell-col="3" data-surround-bits="0xcb9893" data-edge-color="#e7be00"><rect x="248.167" y="41.833" width="56" height="23.333" fill="#e93f26"/><text x="276.167" y="53.5" fill="#000000" font-size="13.333" text-anchor="middle" dominant-baseline="central">263fe9</text></g><g data-channel="cell" data-cell-index="4" data-cell-row="1" data-cell-col="0" data-cell-blank="true" data-cell-blank-map="true"><rect x="38.167" y="88.5" width="56" height="23.333" rx="11.667" ry="11.667" fill="#ffffff" stroke="#000000" stroke-width="1"/><circle cx="59.167" cy="98.222" r="4.083" fill="#1d4ed8" data-blank-map-min="2,1"/><path d="M 68.267,98.222 H 78.067 M 73.167,93.322 V 103.122" fill="none" stroke="#d62828" stroke-width="2.246" stroke-linecap="butt" data-blank-map-max="2,2"/></g><g data-channel="cell" data-cell-index="5" data-cell-row="1" data-cell-col="1" data-surround-bits="0xcf7267" data-edge-color="#2f3fbf"><rect x="108.167" y="88.5" width="56" height="23.333" fill="#8024a9"/><text x="136.167" y="100.167" fill="#ffffff" font-size="13.333" text-anchor="middle" dominant-baseline="central">a92480</text></g><g data-channel="cell" data-cell-index="6" data-cell-row="1" data-cell-col="2" data-surround-bits="0x9213ed" data-edge-color="#2f3fbf"><rect x="178.167" y="88.5" width="56" height="23.333" fill="#2d5e91"/><text x="206.167" y="100.167" fill="#ffffff" font-size="13.333" text-anchor="middle" dominant-baseline="central">915e2d</text></g><g data-channel="cell" data-cell-index="7" data-cell-row="1" data-cell-col="3" data-cell-blank="true"><rect x="248.167" y="88.5" width="56" height="23.333" rx="11.667" ry="11.667" fill="#000000" stroke="#000000" stroke-width="1"/></g><g data-channel="cell" data-cell-index="8" data-cell-row="2" data-cell-col="0" data-surround-bits="0x5e86ca" data-edge-color="#2f3fbf" data-cell-quartile="2"><rect x="38.167" y="135.167" width="56" height="23.333" fill="#5e1f22"/><text x="66.167" y="146.833" fill="#ffffff" font-size="13.333" text-anchor="middle" dominant-baseline="central">221f5e</text><polygon points="94.167,135.167 82.5,135.167 94.167,146.833" fill="#ffffff"/></g><g data-channel="cell" data-cell-index="9" data-cell-row="2" data-cell-col="1" data-surround-bits="0x36940" data-edge-color="#e7be00"><rect x="108.167" y="135.167" width="56" height="23.333" fill="#cf6a5b"/><text x="136.167" y="146.833" fill="#000000" font-size="13.333" text-anchor="middle" dominant-baseline="central">5b6acf</text></g><g data-channel="cell" data-cell-index="10" data-cell-row="2" data-cell-col="2" data-cell-fingerprint="true" data-surround-bits="0xe4dbaf" data-edge-color="#e7be00"><rect x="178.167" y="135.167" width="56" height="23.333" fill="#ff3f2f"/><rect x="178.667" y="135.667" width="55" height="22.333" fill="none" stroke="#ffffff" stroke-width="1"/><text x="206.167" y="146.833" fill="#000000" font-size="14.667" text-anchor="middle" dominant-baseline="central">3b1wv</text></g><g data-channel="cell" data-cell-index="11" data-cell-row="2" data-cell-col="3" data-cell-fingerprint="true" data-surround-bits="0x68208c" data-edge-color="#e7be00"><rect x="248.167" y="135.167" width="56" height="23.333" fill="#ff3f2f"/><rect x="248.667" y="135.667" width="55" height="22.333" fill="none" stroke="#ffffff" stroke-width="1"/><text x="276.167" y="146.833" fill="#000000" font-size="14.667" text-anchor="middle" dominant-baseline="central">891ex</text></g><g data-channel="cell" data-cell-index="12" data-cell-row="3" data-cell-col="0" data-cell-fingerprint="true" data-surround-bits="0x6a67a3" data-edge-color="#e7be00"><rect x="38.167" y="181.833" width="56" height="23.333" fill="#ff3f2f"/><rect x="38.667" y="182.333" width="55" height="22.333" fill="none" stroke="#ffffff" stroke-width="1"/><text x="66.167" y="193.5" fill="#000000" font-size="14.667" text-anchor="middle" dominant-baseline="central">cdmhr</text></g><g data-channel="cell" data-cell-index="13" data-cell-row="3" data-cell-col="1" data-cell-fingerprint="true" data-surround-bits="0x1181ab" data-edge-color="#e7be00" data-cell-quartile="4"><rect x="108.167" y="181.833" width="56" height="23.333" fill="#ff3f2f"/><rect x="108.667" y="182.333" width="55" height="22.333" fill="none" stroke="#ffffff" stroke-width="1"/><text x="136.167" y="193.5" fill="#000000" font-size="14.667" text-anchor="middle" dominant-baseline="central">ag8kj</text><polygon points="108.167,205.167 108.167,193.5 119.833,205.167" fill="#ffffff"/></g><g data-channel="cell" data-cell-index="14" data-cell-row="3" data-cell-col="2" data-cell-blank="true"><rect x="178.167" y="181.833" width="56" height="23.333" rx="11.667" ry="11.667" fill="#e7be00" stroke="#000000" stroke-width="1"/></g><g data-channel="cell" data-cell-index="15" data-cell-row="3" data-cell-col="3" data-surround-bits="0xd49be0" data-edge-color="#ffffff"><rect x="248.167" y="181.833" width="56" height="23.333" fill="#f685e8"/><text x="276.167" y="193.5" fill="#000000" font-size="13.333" text-anchor="middle" dominant-baseline="central">e885f6</text></g><g data-channel="cell" data-cell-index="16" data-cell-row="4" data-cell-col="0" data-surround-bits="0x362bab" data-edge-color="#2f3fbf"><rect x="38.167" y="228.5" width="56" height="23.333" fill="#b768d5"/><text x="66.167" y="240.167" fill="#000000" font-size="13.333" text-anchor="middle" dominant-baseline="central">d568b7</text></g><g data-channel="cell" data-cell-index="17" data-cell-row="4" data-cell-col="1" data-surround-bits="0xdfb9cc" data-edge-color="#e7be00"><rect x="108.167" y="228.5" width="56" height="23.333" fill="#3df442"/><text x="136.167" y="240.167" fill="#000000" font-size="13.333" text-anchor="middle" dominant-baseline="central">42f43d</text></g><g data-channel="cell" data-cell-index="18" data-cell-row="4" data-cell-col="2" data-surround-bits="0x32e289" data-edge-color="#2f3fbf"><rect x="178.167" y="228.5" width="56" height="23.333" fill="#576299"/><text x="206.167" y="240.167" fill="#ffffff" font-size="13.333" text-anchor="middle" dominant-baseline="central">996257</text></g><g data-channel="cell" data-cell-index="19" data-cell-row="4" data-cell-col="3" data-surround-bits="0x62783c" data-edge-color="#ffffff" data-cell-quartile="1"><rect x="248.167" y="228.5" width="56" height="23.333" fill="#d86dfc"/><text x="276.167" y="240.167" fill="#000000" font-size="13.333" text-anchor="middle" dominant-baseline="central">fc6dd8</text><polygon points="248.167,228.5 259.833,228.5 248.167,240.167" fill="#000000"/></g><g data-channel="cell" data-cell-index="20" data-cell-row="5" data-cell-col="0" data-surround-bits="0x6fed27" data-edge-color="#ffffff"><rect x="38.167" y="275.167" width="56" height="23.333" fill="#b8c1d3"/><text x="66.167" y="286.833" fill="#000000" font-size="13.333" text-anchor="middle" dominant-baseline="central">d3c1b8</text></g><g data-channel="cell" data-cell-index="21" data-cell-row="5" data-cell-col="1" data-surround-bits="0x1fb87d" data-edge-color="#ffffff"><rect x="108.167" y="275.167" width="56" height="23.333" fill="#bbb4b4"/><text x="136.167" y="286.833" fill="#000000" font-size="13.333" text-anchor="middle" dominant-baseline="central">b4b4bb</text></g><g data-channel="cell" data-cell-index="22" data-cell-row="5" data-cell-col="2" data-surround-bits="0xc694c7" data-edge-color="#e7be00"><rect x="178.167" y="275.167" width="56" height="23.333" fill="#cd8990"/><text x="206.167" y="286.833" fill="#000000" font-size="13.333" text-anchor="middle" dominant-baseline="central">9089cd</text></g><g data-channel="cell" data-cell-index="23" data-cell-row="5" data-cell-col="3" data-cell-blank="true"><rect x="248.167" y="275.167" width="56" height="23.333" rx="11.667" ry="11.667" fill="#e7be00" stroke="#000000" stroke-width="1"/></g></g></g><g xmlns="http://www.w3.org/2000/svg" data-channel="color-bar" data-bar-slots="16" data-bar-marker-left="13" data-bar-marker-right="14"><g data-color-bar-rank="0" data-color-bar-band="G"><rect x="1" y="1" width="23.333" height="43.718" fill="#e7be00"/><text x="12.667" y="41.785" fill="#000000" font-size="13.333" text-anchor="middle" data-color-bar-letter="true">g</text></g><g data-color-bar-rank="1" data-color-bar-band="B"><rect x="1" y="44.718" width="23.333" height="126.242" fill="#2f3fbf"/><text x="12.667" y="168.027" fill="#ffffff" font-size="13.333" text-anchor="middle" data-color-bar-letter="true">b</text></g><g data-color-bar-rank="2" data-color-bar-band="W"><rect x="1" y="170.96" width="23.333" height="65.687" fill="#ffffff"/><text x="12.667" y="233.713" fill="#000000" font-size="13.333" text-anchor="middle" data-color-bar-letter="true">w</text></g><g data-color-bar-rank="3" data-color-bar-band="K"><rect x="1" y="236.647" width="23.333" height="79.353" fill="#000000"/><text x="12.667" y="313.067" fill="#ffffff" font-size="13.333" text-anchor="middle" data-color-bar-letter="true">k</text></g><circle cx="6.367" cy="266.781" r="3.967" fill="#ffffff" stroke="#000000" stroke-width="0.75" data-bar-marker="left"/><circle cx="18.967" cy="286.469" r="3.967" fill="#ffffff" stroke="#000000" stroke-width="0.75" data-bar-marker="right"/></g><g xmlns="http://www.w3.org/2000/svg" data-channel="label-top"><text x="31.167" y="18.5" fill="#666666" font-size="13.333" dominant-baseline="central"><tspan fill="#a00000" font-weight="bold">fingerprint of </tspan>hex(256):</text></g><line xmlns="http://www.w3.org/2000/svg" x1="0" y1="0.5" x2="318" y2="0.5" stroke="#808080" stroke-width="1" shape-rendering="crispEdges"/><line xmlns="http://www.w3.org/2000/svg" x1="317.5" y1="0" x2="317.5" y2="317" stroke="#808080" stroke-width="1" shape-rendering="crispEdges"/><line xmlns="http://www.w3.org/2000/svg" x1="0" y1="316.5" x2="318" y2="316.5" stroke="#808080" stroke-width="1" shape-rendering="crispEdges"/><line xmlns="http://www.w3.org/2000/svg" x1="0.5" y1="0" x2="0.5" y2="317" stroke="#808080" stroke-width="1" shape-rendering="crispEdges"/><line xmlns="http://www.w3.org/2000/svg" x1="24.833" y1="0" x2="24.833" y2="317" stroke="#808080" stroke-width="1" shape-rendering="crispEdges"/></svg><line x1="139.07" y1="127.93" x2="482.00" y2="92.00" stroke="#3f5b73" stroke-width="1.0"/><line x1="482.00" y1="92.00" x2="500.00" y2="96.00" stroke="#3f5b73" stroke-width="1.0"/><circle cx="139.07" cy="127.93" r="2.6" fill="#3f5b73"/><text x="500.00" y="92.00" font-family="'DejaVu Sans', 'Bitstream Vera Sans', Verdana, sans-serif" font-size="13px" font-weight="bold" text-anchor="start" fill="#2b2b33">head</text><text x="500.00" y="111.00" font-family="'DejaVu Sans', 'Bitstream Vera Sans', Verdana, sans-serif" font-size="12px" font-weight="normal" text-anchor="start" fill="#5a5f6a">first tokens of the real input</text><line x1="306.36" y1="239.46" x2="482.00" y2="164.00" stroke="#3f5b73" stroke-width="1.0"/><line x1="482.00" y1="164.00" x2="500.00" y2="168.00" stroke="#3f5b73" stroke-width="1.0"/><circle cx="306.36" cy="239.46" r="2.6" fill="#3f5b73"/><text x="500.00" y="164.00" font-family="'DejaVu Sans', 'Bitstream Vera Sans', Verdana, sans-serif" font-size="13px" font-weight="bold" text-anchor="start" fill="#b00020">fingerprint-middle</text><text x="500.00" y="183.00" font-family="'DejaVu Sans', 'Bitstream Vera Sans', Verdana, sans-serif" font-size="12px" font-weight="normal" text-anchor="start" fill="#5a5f6a">a digest in Crockford base32, framed — not the user's data</text><line x1="306.36" y1="406.76" x2="482.00" y2="236.00" stroke="#3f5b73" stroke-width="1.0"/><line x1="482.00" y1="236.00" x2="500.00" y2="240.00" stroke="#3f5b73" stroke-width="1.0"/><circle cx="306.36" cy="406.76" r="2.6" fill="#3f5b73"/><text x="500.00" y="236.00" font-family="'DejaVu Sans', 'Bitstream Vera Sans', Verdana, sans-serif" font-size="13px" font-weight="bold" text-anchor="start" fill="#2b2b33">tail</text><text x="500.00" y="255.00" font-family="'DejaVu Sans', 'Bitstream Vera Sans', Verdana, sans-serif" font-size="12px" font-weight="normal" text-anchor="start" fill="#5a5f6a">last tokens of the real input</text><text x="492.00" y="484.81" font-family="'DejaVu Sans', 'Bitstream Vera Sans', Verdana, sans-serif" font-size="12px" font-weight="normal" text-anchor="middle" fill="#5a5f6a">Head and tail show real input; the four framed middle cells show a domain-separated digest (Crockford base32) that avalanches on any change.</text></svg>
