<svg xmlns="http://www.w3.org/2000/svg" width="770.00" height="272.00" viewBox="0 0 770.00 272.00" font-family="'DejaVu Sans', 'Bitstream Vera Sans', Verdana, sans-serif" data-spec-version="v9" data-generator="scripts/paper_figures.py"><rect x="0.00" y="0.00" width="770.00" height="272.00" fill="#ffffff" stroke="none" stroke-width="1.0"/><svg x="40.00" y="48.00" width="300.00" height="200.00" viewBox="52.000 51.000 120.000 80.000"><defs xmlns="http://www.w3.org/2000/svg"><clipPath id="grid-clip-a5b39295b9451634-2x3"><rect x="52.0" y="51.0" width="240.0" height="240.0"/></clipPath></defs><rect xmlns="http://www.w3.org/2000/svg" x="0" y="0" width="303.0" height="302.0" fill="#ffffff"/><g xmlns="http://www.w3.org/2000/svg" data-channel="grid"><rect x="52.0" y="51.0" width="240.0" height="240.0" fill="#ffffff"/><g><rect x="64.0" y="51.0" width="12.0" height="20.0" fill="#2f3fbf"/><rect x="100.0" y="51.0" width="12.0" height="20.0" fill="#2f3fbf"/><rect x="136.0" y="51.0" width="12.0" height="20.0" fill="#2f3fbf"/><rect x="148.0" y="51.0" width="12.0" height="20.0" fill="#2f3fbf"/><rect x="160.0" y="51.0" width="12.0" height="20.0" fill="#2f3fbf"/><rect x="160.0" y="111.0" width="12.0" height="20.0" fill="#2f3fbf"/><rect x="148.0" y="111.0" width="12.0" height="20.0" fill="#2f3fbf"/><rect x="124.0" y="111.0" width="12.0" height="20.0" fill="#2f3fbf"/><rect x="112.0" y="111.0" width="12.0" height="20.0" fill="#2f3fbf"/><rect x="88.0" y="111.0" width="12.0" height="20.0" fill="#2f3fbf"/><rect x="52.0" y="111.0" width="12.0" height="20.0" fill="#2f3fbf"/><rect x="52.0" y="71.0" width="12.0" height="20.0" fill="#2f3fbf"/><rect x="172.0" y="51.0" width="12.0" height="20.0" fill="#ff3f2f"/><rect x="196.0" y="51.0" width="12.0" height="20.0" fill="#ff3f2f"/><rect x="244.0" y="51.0" width="12.0" height="20.0" fill="#ff3f2f"/><rect x="268.0" y="51.0" width="12.0" height="20.0" fill="#ff3f2f"/><rect x="280.0" y="91.0" width="12.0" height="20.0" fill="#ff3f2f"/><rect x="280.0" y="111.0" width="12.0" height="20.0" fill="#ff3f2f"/><rect x="268.0" y="111.0" width="12.0" height="20.0" fill="#ff3f2f"/><rect x="244.0" y="111.0" width="12.0" height="20.0" fill="#ff3f2f"/><rect x="232.0" y="111.0" width="12.0" height="20.0" fill="#ff3f2f"/><rect x="208.0" y="111.0" width="12.0" height="20.0" fill="#ff3f2f"/><rect x="184.0" y="111.0" width="12.0" height="20.0" fill="#ff3f2f"/><rect x="172.0" y="71.0" width="12.0" height="20.0" fill="#ff3f2f"/><rect x="76.0" y="131.0" width="12.0" height="20.0" fill="#e7be00"/><rect x="100.0" y="131.0" width="12.0" height="20.0" fill="#e7be00"/><rect x="112.0" y="131.0" width="12.0" height="20.0" fill="#e7be00"/><rect x="136.0" y="131.0" width="12.0" height="20.0" fill="#e7be00"/><rect x="160.0" y="151.0" width="12.0" height="20.0" fill="#e7be00"/><rect x="160.0" y="191.0" width="12.0" height="20.0" fill="#e7be00"/><rect x="148.0" y="191.0" width="12.0" height="20.0" fill="#e7be00"/><rect x="100.0" y="191.0" width="12.0" height="20.0" fill="#e7be00"/><rect x="88.0" y="191.0" width="12.0" height="20.0" fill="#e7be00"/><rect x="64.0" y="191.0" width="12.0" height="20.0" fill="#e7be00"/><rect x="184.0" y="131.0" width="12.0" height="20.0" fill="#ff3f2f"/><rect x="208.0" y="131.0" width="12.0" height="20.0" fill="#ff3f2f"/><rect x="232.0" y="131.0" width="12.0" height="20.0" fill="#ff3f2f"/><rect x="268.0" y="131.0" width="12.0" height="20.0" fill="#ff3f2f"/><rect x="280.0" y="151.0" width="12.0" height="20.0" fill="#ff3f2f"/><rect x="256.0" y="191.0" width="12.0" height="20.0" fill="#ff3f2f"/><rect x="244.0" y="191.0" width="12.0" height="20.0" fill="#ff3f2f"/><rect x="232.0" y="191.0" width="12.0" height="20.0" fill="#ff3f2f"/><rect x="220.0" y="191.0" width="12.0" height="20.0" fill="#ff3f2f"/><rect x="196.0" y="191.0" width="12.0" height="20.0" fill="#ff3f2f"/><rect x="184.0" y="191.0" width="12.0" height="20.0" fill="#ff3f2f"/><rect x="172.0" y="171.0" width="12.0" height="20.0" fill="#ff3f2f"/><rect x="52.0" y="211.0" width="12.0" height="20.0" fill="#2f3fbf"/><rect x="64.0" y="211.0" width="12.0" height="20.0" fill="#2f3fbf"/><rect x="76.0" y="211.0" width="12.0" height="20.0" fill="#2f3fbf"/><rect x="88.0" y="211.0" width="12.0" height="20.0" fill="#2f3fbf"/><rect x="136.0" y="211.0" width="12.0" height="20.0" fill="#2f3fbf"/><rect x="148.0" y="211.0" width="12.0" height="20.0" fill="#2f3fbf"/><rect x="160.0" y="251.0" width="12.0" height="20.0" fill="#2f3fbf"/><rect x="160.0" y="271.0" width="12.0" height="20.0" fill="#2f3fbf"/><rect x="124.0" y="271.0" width="12.0" height="20.0" fill="#2f3fbf"/><rect x="112.0" y="271.0" width="12.0" height="20.0" fill="#2f3fbf"/><rect x="88.0" y="271.0" width="12.0" height="20.0" fill="#2f3fbf"/><rect x="64.0" y="271.0" width="12.0" height="20.0" fill="#2f3fbf"/><rect x="52.0" y="251.0" width="12.0" height="20.0" fill="#2f3fbf"/><rect x="52.0" y="231.0" width="12.0" height="20.0" fill="#2f3fbf"/><rect x="244.0" y="211.0" width="12.0" height="20.0" fill="#e7be00"/><rect x="268.0" y="211.0" width="12.0" height="20.0" fill="#e7be00"/><rect x="280.0" y="211.0" width="12.0" height="20.0" fill="#e7be00"/><rect x="280.0" y="271.0" width="12.0" height="20.0" fill="#e7be00"/><rect x="268.0" y="271.0" width="12.0" height="20.0" fill="#e7be00"/><rect x="244.0" y="271.0" width="12.0" height="20.0" fill="#e7be00"/><rect x="196.0" y="271.0" width="12.0" height="20.0" fill="#e7be00"/></g><g clip-path="url(#grid-clip-a5b39295b9451634-2x3)" data-channel="ellipse" data-ellipse-anchor-x="172.0" data-ellipse-anchor-y="51.0" data-ellipse-rx="78.35182193159262" data-ellipse-ry="136.31070390838715" data-ellipse-rotation-deg="24.0"><ellipse cx="172.0" cy="51.0" rx="78.35182193159262" ry="136.31070390838715" transform="rotate(24.0 172.0 51.0)" fill="#000000" stroke="#000000" fill-opacity="0.2" stroke-opacity="0.3" stroke-width="4.0"/></g><g><g data-channel="cell" data-cell-index="0" data-cell-row="0" data-cell-col="0" data-cell-quartile="3"><rect x="64.0" y="71.0" width="96.0" height="40.0" fill="#1a109b"/><text x="112.0" y="91.0" fill="#ffffff" style="font-family: &quot;JetBrains Mono&quot;, &quot;Menlo&quot;, &quot;Consolas&quot;, &quot;DejaVu Sans Mono&quot;, &quot;Liberation Mono&quot;, &quot;Roboto Mono&quot;, &quot;Noto Sans Mono&quot;, monospace; font-size: 24.0px;" text-anchor="middle" dominant-baseline="central">9b101a</text><polygon points="160.0,111.0 160.0,91.0 140.0,111.0" fill="#ffffff"/></g><g data-channel="cell" data-cell-index="1" data-cell-row="0" data-cell-col="1" data-cell-quartile="2"><rect x="184.0" y="71.0" width="96.0" height="40.0" fill="#eb3e0b"/><text x="232.0" y="91.0" fill="#000000" style="font-family: &quot;JetBrains Mono&quot;, &quot;Menlo&quot;, &quot;Consolas&quot;, &quot;DejaVu Sans Mono&quot;, &quot;Liberation Mono&quot;, &quot;Roboto Mono&quot;, &quot;Noto Sans Mono&quot;, monospace; font-size: 24.0px;" text-anchor="middle" dominant-baseline="central">0b3eeb</text><polygon points="280.0,71.0 260.0,71.0 280.0,91.0" fill="#000000"/></g><g data-channel="cell" data-cell-index="2" data-cell-row="1" data-cell-col="0" data-cell-quartile="1"><rect x="64.0" y="151.0" width="96.0" height="40.0" fill="#1bf300"/><text x="112.0" y="171.0" fill="#000000" style="font-family: &quot;JetBrains Mono&quot;, &quot;Menlo&quot;, &quot;Consolas&quot;, &quot;DejaVu Sans Mono&quot;, &quot;Liberation Mono&quot;, &quot;Roboto Mono&quot;, &quot;Noto Sans Mono&quot;, monospace; font-size: 24.0px;" text-anchor="middle" dominant-baseline="central">00f31b</text><polygon points="64.0,151.0 84.0,151.0 64.0,171.0" fill="#000000"/></g><g data-channel="cell" data-cell-index="3" data-cell-row="1" data-cell-col="1"><rect x="184.0" y="151.0" width="96.0" height="40.0" fill="#984002"/><text x="232.0" y="171.0" fill="#ffffff" style="font-family: &quot;JetBrains Mono&quot;, &quot;Menlo&quot;, &quot;Consolas&quot;, &quot;DejaVu Sans Mono&quot;, &quot;Liberation Mono&quot;, &quot;Roboto Mono&quot;, &quot;Noto Sans Mono&quot;, monospace; font-size: 24.0px;" text-anchor="middle" dominant-baseline="central">024098</text></g><g data-channel="cell" data-cell-index="4" data-cell-row="2" data-cell-col="0"><rect x="64.0" y="231.0" width="96.0" height="40.0" fill="#d50ee1"/><text x="112.0" y="251.0" fill="#000000" style="font-family: &quot;JetBrains Mono&quot;, &quot;Menlo&quot;, &quot;Consolas&quot;, &quot;DejaVu Sans Mono&quot;, &quot;Liberation Mono&quot;, &quot;Roboto Mono&quot;, &quot;Noto Sans Mono&quot;, monospace; font-size: 24.0px;" text-anchor="middle" dominant-baseline="central">e10ed5</text></g><g data-channel="cell" data-cell-index="5" data-cell-row="2" data-cell-col="1"><rect x="184.0" y="231.0" width="96.0" height="40.0" fill="#dedede"/><text x="232.0" y="251.0" fill="#000000" style="font-family: &quot;JetBrains Mono&quot;, &quot;Menlo&quot;, &quot;Consolas&quot;, &quot;DejaVu Sans Mono&quot;, &quot;Liberation Mono&quot;, &quot;Roboto Mono&quot;, &quot;Noto Sans Mono&quot;, monospace; font-size: 24.0px;" text-anchor="middle" dominant-baseline="central">de</text></g></g></g><g xmlns="http://www.w3.org/2000/svg" data-channel="color-bar" data-bar-slots="16" data-bar-marker-left="9" data-bar-marker-right="6"><g data-color-bar-rank="0" data-color-bar-band="R"><rect x="1" y="1" width="40.0" height="67.0717754786946" fill="#ff3f2f"/><text x="21.0" y="62.7917754786946" fill="#000000" style="font-family: &quot;JetBrains Mono&quot;, &quot;Menlo&quot;, &quot;Consolas&quot;, &quot;DejaVu Sans Mono&quot;, &quot;Liberation Mono&quot;, &quot;Roboto Mono&quot;, &quot;Noto Sans Mono&quot;, monospace; font-size: 24.0px;" text-anchor="middle" data-color-bar-letter="true">r</text></g><g data-color-bar-rank="1" data-color-bar-band="B"><rect x="1" y="68.0717754786946" width="40.0" height="120.91189994959421" fill="#2f3fbf"/><text x="21.0" y="183.70367542828882" fill="#ffffff" style="font-family: &quot;JetBrains Mono&quot;, &quot;Menlo&quot;, &quot;Consolas&quot;, &quot;DejaVu Sans Mono&quot;, &quot;Liberation Mono&quot;, &quot;Roboto Mono&quot;, &quot;Noto Sans Mono&quot;, monospace; font-size: 24.0px;" text-anchor="middle" data-color-bar-letter="true">b</text></g><g data-color-bar-rank="2" data-color-bar-band="K"><rect x="1" y="188.98367542828882" width="40.0" height="67.0717754786946" fill="#000000"/><text x="21.0" y="250.77545090698342" fill="#ffffff" style="font-family: &quot;JetBrains Mono&quot;, &quot;Menlo&quot;, &quot;Consolas&quot;, &quot;DejaVu Sans Mono&quot;, &quot;Liberation Mono&quot;, &quot;Roboto Mono&quot;, &quot;Noto Sans Mono&quot;, monospace; font-size: 24.0px;" text-anchor="middle" data-color-bar-letter="true">k</text></g><g data-color-bar-rank="3" data-color-bar-band="G"><rect x="1" y="256.0554509069834" width="40.0" height="44.944549093016576" fill="#e7be00"/><text x="21.0" y="295.72" fill="#000000" style="font-family: &quot;JetBrains Mono&quot;, &quot;Menlo&quot;, &quot;Consolas&quot;, &quot;DejaVu Sans Mono&quot;, &quot;Liberation Mono&quot;, &quot;Roboto Mono&quot;, &quot;Noto Sans Mono&quot;, monospace; font-size: 24.0px;" text-anchor="middle" data-color-bar-letter="true">g</text></g><circle cx="10.200000000000001" cy="179.125" r="6.800000000000001" fill="#ffffff" stroke="#000000" stroke-width="0.75" data-bar-marker="left"/><circle cx="31.8" cy="122.875" r="6.800000000000001" fill="#ffffff" stroke="#000000" stroke-width="0.75" data-bar-marker="right"/></g><g xmlns="http://www.w3.org/2000/svg" data-channel="label-top"><text x="52.0" y="31.0" fill="#666666" style="font-family: &quot;JetBrains Mono&quot;, &quot;Menlo&quot;, &quot;Consolas&quot;, &quot;DejaVu Sans Mono&quot;, &quot;Liberation Mono&quot;, &quot;Roboto Mono&quot;, &quot;Noto Sans Mono&quot;, monospace; font-size: 24.0px;" dominant-baseline="central">UUID:</text></g><line xmlns="http://www.w3.org/2000/svg" x1="0" y1="0.5" x2="303.0" y2="0.5" stroke="#808080" stroke-width="1" shape-rendering="crispEdges"/><line xmlns="http://www.w3.org/2000/svg" x1="302.5" y1="0" x2="302.5" y2="302.0" stroke="#808080" stroke-width="1" shape-rendering="crispEdges"/><line xmlns="http://www.w3.org/2000/svg" x1="0" y1="301.5" x2="303.0" y2="301.5" stroke="#808080" stroke-width="1" shape-rendering="crispEdges"/><line xmlns="http://www.w3.org/2000/svg" x1="0.5" y1="0" x2="0.5" y2="302.0" stroke="#808080" stroke-width="1" shape-rendering="crispEdges"/><line xmlns="http://www.w3.org/2000/svg" x1="41.5" y1="0" x2="41.5" y2="302.0" stroke="#808080" stroke-width="1" shape-rendering="crispEdges"/></svg><rect x="40.00" y="48.00" width="300.00" height="200.00" fill="none" stroke="#c9cdd4" stroke-width="1"/><text x="40.00" y="36.00" font-family="'DejaVu Sans', 'Bitstream Vera Sans', Verdana, sans-serif" font-size="12px" font-weight="normal" text-anchor="start" font-style="italic" fill="#5a5f6a">one cell, enlarged</text><line x1="70.00" y1="48.00" x2="70.00" y2="248.00" stroke="#ffffff" stroke-width="1.3"/><line x1="70.00" y1="48.00" x2="70.00" y2="248.00" stroke="#000000" stroke-width="0.6" stroke-dasharray="2 2"/><line x1="310.00" y1="48.00" x2="310.00" y2="248.00" stroke="#ffffff" stroke-width="1.3"/><line x1="310.00" y1="48.00" x2="310.00" y2="248.00" stroke="#000000" stroke-width="0.6" stroke-dasharray="2 2"/><line x1="100.00" y1="48.00" x2="100.00" y2="98.00" stroke="#ffffff" stroke-width="1.3"/><line x1="100.00" y1="48.00" x2="100.00" y2="98.00" stroke="#000000" stroke-width="0.6" stroke-dasharray="2 2"/><line x1="100.00" y1="198.00" x2="100.00" y2="248.00" stroke="#ffffff" stroke-width="1.3"/><line x1="100.00" y1="198.00" x2="100.00" y2="248.00" stroke="#000000" stroke-width="0.6" stroke-dasharray="2 2"/><line x1="130.00" y1="48.00" x2="130.00" y2="98.00" stroke="#ffffff" stroke-width="1.3"/><line x1="130.00" y1="48.00" x2="130.00" y2="98.00" stroke="#000000" stroke-width="0.6" stroke-dasharray="2 2"/><line x1="130.00" y1="198.00" x2="130.00" y2="248.00" stroke="#ffffff" stroke-width="1.3"/><line x1="130.00" y1="198.00" x2="130.00" y2="248.00" stroke="#000000" stroke-width="0.6" stroke-dasharray="2 2"/><line x1="160.00" y1="48.00" x2="160.00" y2="98.00" stroke="#ffffff" stroke-width="1.3"/><line x1="160.00" y1="48.00" x2="160.00" y2="98.00" stroke="#000000" stroke-width="0.6" stroke-dasharray="2 2"/><line x1="160.00" y1="198.00" x2="160.00" y2="248.00" stroke="#ffffff" stroke-width="1.3"/><line x1="160.00" y1="198.00" x2="160.00" y2="248.00" stroke="#000000" stroke-width="0.6" stroke-dasharray="2 2"/><line x1="190.00" y1="48.00" x2="190.00" y2="98.00" stroke="#ffffff" stroke-width="1.3"/><line x1="190.00" y1="48.00" x2="190.00" y2="98.00" stroke="#000000" stroke-width="0.6" stroke-dasharray="2 2"/><line x1="190.00" y1="198.00" x2="190.00" y2="248.00" stroke="#ffffff" stroke-width="1.3"/><line x1="190.00" y1="198.00" x2="190.00" y2="248.00" stroke="#000000" stroke-width="0.6" stroke-dasharray="2 2"/><line x1="220.00" y1="48.00" x2="220.00" y2="98.00" stroke="#ffffff" stroke-width="1.3"/><line x1="220.00" y1="48.00" x2="220.00" y2="98.00" stroke="#000000" stroke-width="0.6" stroke-dasharray="2 2"/><line x1="220.00" y1="198.00" x2="220.00" y2="248.00" stroke="#ffffff" stroke-width="1.3"/><line x1="220.00" y1="198.00" x2="220.00" y2="248.00" stroke="#000000" stroke-width="0.6" stroke-dasharray="2 2"/><line x1="250.00" y1="48.00" x2="250.00" y2="98.00" stroke="#ffffff" stroke-width="1.3"/><line x1="250.00" y1="48.00" x2="250.00" y2="98.00" stroke="#000000" stroke-width="0.6" stroke-dasharray="2 2"/><line x1="250.00" y1="198.00" x2="250.00" y2="248.00" stroke="#ffffff" stroke-width="1.3"/><line x1="250.00" y1="198.00" x2="250.00" y2="248.00" stroke="#000000" stroke-width="0.6" stroke-dasharray="2 2"/><line x1="280.00" y1="48.00" x2="280.00" y2="98.00" stroke="#ffffff" stroke-width="1.3"/><line x1="280.00" y1="48.00" x2="280.00" y2="98.00" stroke="#000000" stroke-width="0.6" stroke-dasharray="2 2"/><line x1="280.00" y1="198.00" x2="280.00" y2="248.00" stroke="#ffffff" stroke-width="1.3"/><line x1="280.00" y1="198.00" x2="280.00" y2="248.00" stroke="#000000" stroke-width="0.6" stroke-dasharray="2 2"/><line x1="40.00" y1="98.00" x2="340.00" y2="98.00" stroke="#ffffff" stroke-width="1.3"/><line x1="40.00" y1="98.00" x2="340.00" y2="98.00" stroke="#000000" stroke-width="0.6" stroke-dasharray="2 2"/><line x1="40.00" y1="198.00" x2="340.00" y2="198.00" stroke="#ffffff" stroke-width="1.3"/><line x1="40.00" y1="198.00" x2="340.00" y2="198.00" stroke="#000000" stroke-width="0.6" stroke-dasharray="2 2"/><line x1="40.00" y1="148.00" x2="70.00" y2="148.00" stroke="#ffffff" stroke-width="1.3"/><line x1="40.00" y1="148.00" x2="70.00" y2="148.00" stroke="#000000" stroke-width="0.6" stroke-dasharray="2 2"/><line x1="310.00" y1="148.00" x2="340.00" y2="148.00" stroke="#ffffff" stroke-width="1.3"/><line x1="310.00" y1="148.00" x2="340.00" y2="148.00" stroke="#000000" stroke-width="0.6" stroke-dasharray="2 2"/><text x="55.00" y="76.00" font-family="'DejaVu Sans', 'Bitstream Vera Sans', Verdana, sans-serif" font-size="8px" font-weight="normal" text-anchor="middle" fill="#9aa0a6">0</text><text x="85.00" y="76.00" font-family="'DejaVu Sans', 'Bitstream Vera Sans', Verdana, sans-serif" font-size="8px" font-weight="normal" text-anchor="middle" fill="#9aa0a6">1</text><text x="115.00" y="76.00" font-family="'DejaVu Sans', 'Bitstream Vera Sans', Verdana, sans-serif" font-size="8px" font-weight="normal" text-anchor="middle" fill="#9aa0a6">2</text><text x="145.00" y="76.00" font-family="'DejaVu Sans', 'Bitstream Vera Sans', Verdana, sans-serif" font-size="8px" font-weight="normal" text-anchor="middle" fill="#9aa0a6">3</text><text x="175.00" y="76.00" font-family="'DejaVu Sans', 'Bitstream Vera Sans', Verdana, sans-serif" font-size="8px" font-weight="normal" text-anchor="middle" fill="#9aa0a6">4</text><text x="205.00" y="76.00" font-family="'DejaVu Sans', 'Bitstream Vera Sans', Verdana, sans-serif" font-size="8px" font-weight="normal" text-anchor="middle" fill="#9aa0a6">5</text><text x="235.00" y="76.00" font-family="'DejaVu Sans', 'Bitstream Vera Sans', Verdana, sans-serif" font-size="8px" font-weight="normal" text-anchor="middle" fill="#9aa0a6">6</text><text x="265.00" y="76.00" font-family="'DejaVu Sans', 'Bitstream Vera Sans', Verdana, sans-serif" font-size="8px" font-weight="normal" text-anchor="middle" fill="#9aa0a6">7</text><text x="295.00" y="76.00" font-family="'DejaVu Sans', 'Bitstream Vera Sans', Verdana, sans-serif" font-size="8px" font-weight="normal" text-anchor="middle" fill="#9aa0a6">8</text><text x="325.00" y="76.00" font-family="'DejaVu Sans', 'Bitstream Vera Sans', Verdana, sans-serif" font-size="8px" font-weight="normal" text-anchor="middle" fill="#9aa0a6">9</text><text x="325.00" y="126.00" font-family="'DejaVu Sans', 'Bitstream Vera Sans', Verdana, sans-serif" font-size="8px" font-weight="normal" text-anchor="middle" fill="#9aa0a6">10</text><text x="325.00" y="176.00" font-family="'DejaVu Sans', 'Bitstream Vera Sans', Verdana, sans-serif" font-size="8px" font-weight="normal" text-anchor="middle" fill="#9aa0a6">11</text><text x="325.00" y="226.00" font-family="'DejaVu Sans', 'Bitstream Vera Sans', Verdana, sans-serif" font-size="8px" font-weight="normal" text-anchor="middle" fill="#9aa0a6">12</text><text x="295.00" y="226.00" font-family="'DejaVu Sans', 'Bitstream Vera Sans', Verdana, sans-serif" font-size="8px" font-weight="normal" text-anchor="middle" fill="#9aa0a6">13</text><text x="265.00" y="226.00" font-family="'DejaVu Sans', 'Bitstream Vera Sans', Verdana, sans-serif" font-size="8px" font-weight="normal" text-anchor="middle" fill="#9aa0a6">14</text><text x="235.00" y="226.00" font-family="'DejaVu Sans', 'Bitstream Vera Sans', Verdana, sans-serif" font-size="8px" font-weight="normal" text-anchor="middle" fill="#9aa0a6">15</text><text x="205.00" y="226.00" font-family="'DejaVu Sans', 'Bitstream Vera Sans', Verdana, sans-serif" font-size="8px" font-weight="normal" text-anchor="middle" fill="#9aa0a6">16</text><text x="175.00" y="226.00" font-family="'DejaVu Sans', 'Bitstream Vera Sans', Verdana, sans-serif" font-size="8px" font-weight="normal" text-anchor="middle" fill="#9aa0a6">17</text><text x="145.00" y="226.00" font-family="'DejaVu Sans', 'Bitstream Vera Sans', Verdana, sans-serif" font-size="8px" font-weight="normal" text-anchor="middle" fill="#9aa0a6">18</text><text x="115.00" y="226.00" font-family="'DejaVu Sans', 'Bitstream Vera Sans', Verdana, sans-serif" font-size="8px" font-weight="normal" text-anchor="middle" fill="#9aa0a6">19</text><text x="85.00" y="226.00" font-family="'DejaVu Sans', 'Bitstream Vera Sans', Verdana, sans-serif" font-size="8px" font-weight="normal" text-anchor="middle" fill="#9aa0a6">20</text><text x="55.00" y="226.00" font-family="'DejaVu Sans', 'Bitstream Vera Sans', Verdana, sans-serif" font-size="8px" font-weight="normal" text-anchor="middle" fill="#9aa0a6">21</text><text x="55.00" y="176.00" font-family="'DejaVu Sans', 'Bitstream Vera Sans', Verdana, sans-serif" font-size="8px" font-weight="normal" text-anchor="middle" fill="#9aa0a6">22</text><text x="55.00" y="126.00" font-family="'DejaVu Sans', 'Bitstream Vera Sans', Verdana, sans-serif" font-size="8px" font-weight="normal" text-anchor="middle" fill="#9aa0a6">23</text><line x1="325.00" y1="73.00" x2="392.00" y2="66.00" stroke="#3f5b73" stroke-width="1.0"/><line x1="392.00" y1="66.00" x2="410.00" y2="70.00" stroke="#3f5b73" stroke-width="1.0"/><circle cx="325.00" cy="73.00" r="2.6" fill="#3f5b73"/><text x="410.00" y="66.00" font-family="'DejaVu Sans', 'Bitstream Vera Sans', Verdana, sans-serif" font-size="13px" font-weight="bold" text-anchor="start" fill="#2b2b33">surround box (9 of 24)</text><text x="410.00" y="85.00" font-family="'DejaVu Sans', 'Bitstream Vera Sans', Verdana, sans-serif" font-size="12px" font-weight="normal" text-anchor="start" fill="#5a5f6a">fingerprint bit i fills box i, or leaves it empty</text><line x1="85.00" y1="73.00" x2="392.00" y2="116.00" stroke="#3f5b73" stroke-width="1.0"/><line x1="392.00" y1="116.00" x2="410.00" y2="120.00" stroke="#3f5b73" stroke-width="1.0"/><circle cx="85.00" cy="73.00" r="2.6" fill="#3f5b73"/><text x="410.00" y="116.00" font-family="'DejaVu Sans', 'Bitstream Vera Sans', Verdana, sans-serif" font-size="13px" font-weight="bold" text-anchor="start" fill="#2b2b33">per-cell edge color</text><text x="410.00" y="135.00" font-family="'DejaVu Sans', 'Bitstream Vera Sans', Verdana, sans-serif" font-size="12px" font-weight="normal" text-anchor="start" fill="#5a5f6a">the palette entry nearest the nucleus color</text><line x1="190.00" y1="105.50" x2="392.00" y2="164.00" stroke="#3f5b73" stroke-width="1.0"/><line x1="392.00" y1="164.00" x2="410.00" y2="168.00" stroke="#3f5b73" stroke-width="1.0"/><circle cx="190.00" cy="105.50" r="2.6" fill="#3f5b73"/><text x="410.00" y="164.00" font-family="'DejaVu Sans', 'Bitstream Vera Sans', Verdana, sans-serif" font-size="13px" font-weight="bold" text-anchor="start" fill="#2b2b33">nucleus background</text><text x="410.00" y="183.00" font-family="'DejaVu Sans', 'Bitstream Vera Sans', Verdana, sans-serif" font-size="12px" font-weight="normal" text-anchor="start" fill="#5a5f6a">24-bit token read as an RGB color</text><line x1="190.00" y1="138.00" x2="392.00" y2="208.00" stroke="#3f5b73" stroke-width="1.0"/><line x1="392.00" y1="208.00" x2="410.00" y2="212.00" stroke="#3f5b73" stroke-width="1.0"/><circle cx="190.00" cy="138.00" r="2.6" fill="#3f5b73"/><text x="410.00" y="208.00" font-family="'DejaVu Sans', 'Bitstream Vera Sans', Verdana, sans-serif" font-size="13px" font-weight="bold" text-anchor="start" fill="#2b2b33">cell text</text><text x="410.00" y="227.00" font-family="'DejaVu Sans', 'Bitstream Vera Sans', Verdana, sans-serif" font-size="12px" font-weight="normal" text-anchor="start" fill="#5a5f6a">the token in monospace; white/black by Oklab L*</text><line x1="293.33" y1="181.33" x2="392.00" y2="252.00" stroke="#3f5b73" stroke-width="1.0"/><line x1="392.00" y1="252.00" x2="410.00" y2="256.00" stroke="#3f5b73" stroke-width="1.0"/><circle cx="293.33" cy="181.33" r="2.6" fill="#3f5b73"/><text x="410.00" y="252.00" font-family="'DejaVu Sans', 'Bitstream Vera Sans', Verdana, sans-serif" font-size="13px" font-weight="bold" text-anchor="start" fill="#2b2b33">quartile mark</text><text x="410.00" y="271.00" font-family="'DejaVu Sans', 'Bitstream Vera Sans', Verdana, sans-serif" font-size="12px" font-weight="normal" text-anchor="start" fill="#5a5f6a">corner orientation encodes the token's rank</text></svg>
