<svg width="153" height="112" viewBox="0 0 153 112" xmlns="http://www.w3.org/2000/svg" font-family="&quot;JetBrains Mono&quot;, &quot;Menlo&quot;, &quot;Consolas&quot;, &quot;DejaVu Sans Mono&quot;, &quot;Liberation Mono&quot;, &quot;Roboto Mono&quot;, &quot;Noto Sans Mono&quot;, monospace" data-entviz-version="v10" data-entviz-lib="0.10.0" data-input-bytes="11" data-cols="2" data-rows="2"><defs><clipPath id="grid-clip-38f16bf2f6959b3b-2x2"><rect x="27" y="26" width="120" height="80"/></clipPath></defs><rect x="0" y="0" width="153" height="112" fill="#ffffff"/><g data-channel="grid"><rect x="27" y="26" width="120" height="80" fill="#2f3fbf"/><g><rect x="27" y="26" width="6" height="10" fill="#000000"/><rect x="33" y="26" width="6" height="10" fill="#000000"/><rect x="45" y="26" width="6" height="10" fill="#000000"/><rect x="57" y="26" width="6" height="10" fill="#000000"/><rect x="63" y="26" width="6" height="10" fill="#000000"/><rect x="75" y="26" width="6" height="10" fill="#000000"/><rect x="81" y="56" width="6" height="10" fill="#000000"/><rect x="75" y="56" width="6" height="10" fill="#000000"/><rect x="69" y="56" width="6" height="10" fill="#000000"/><rect x="63" y="56" width="6" height="10" fill="#000000"/><rect x="39" y="56" width="6" height="10" fill="#000000"/><rect x="33" y="56" width="6" height="10" fill="#000000"/><rect x="27" y="56" width="6" height="10" fill="#000000"/><rect x="87" y="26" width="6" height="10" fill="#e7be00"/><rect x="99" y="26" width="6" height="10" fill="#e7be00"/><rect x="111" y="26" width="6" height="10" fill="#e7be00"/><rect x="129" y="26" width="6" height="10" fill="#e7be00"/><rect x="141" y="26" width="6" height="10" fill="#e7be00"/><rect x="141" y="36" width="6" height="10" fill="#e7be00"/><rect x="141" y="56" width="6" height="10" fill="#e7be00"/><rect x="135" y="56" width="6" height="10" fill="#e7be00"/><rect x="129" y="56" width="6" height="10" fill="#e7be00"/><rect x="123" y="56" width="6" height="10" fill="#e7be00"/><rect x="111" y="56" width="6" height="10" fill="#e7be00"/><rect x="93" y="56" width="6" height="10" fill="#e7be00"/><rect x="87" y="56" width="6" height="10" fill="#e7be00"/><rect x="87" y="46" width="6" height="10" fill="#e7be00"/><rect x="87" y="36" width="6" height="10" fill="#e7be00"/><rect x="33" y="66" width="6" height="10" fill="#ff3f2f"/><rect x="39" y="66" width="6" height="10" fill="#ff3f2f"/><rect x="57" y="66" width="6" height="10" fill="#ff3f2f"/><rect x="63" y="66" width="6" height="10" fill="#ff3f2f"/><rect x="75" y="66" width="6" height="10" fill="#ff3f2f"/><rect x="81" y="66" width="6" height="10" fill="#ff3f2f"/><rect x="81" y="86" width="6" height="10" fill="#ff3f2f"/><rect x="81" y="96" width="6" height="10" fill="#ff3f2f"/><rect x="75" y="96" width="6" height="10" fill="#ff3f2f"/><rect x="57" y="96" width="6" height="10" fill="#ff3f2f"/><rect x="51" y="96" width="6" height="10" fill="#ff3f2f"/><rect x="39" y="96" width="6" height="10" fill="#ff3f2f"/><rect x="33" y="96" width="6" height="10" fill="#ff3f2f"/><rect x="27" y="76" width="6" height="10" fill="#ff3f2f"/><rect x="99" y="66" width="6" height="10" fill="#000000"/><rect x="105" y="66" width="6" height="10" fill="#000000"/><rect x="117" y="66" width="6" height="10" fill="#000000"/><rect x="123" y="66" width="6" height="10" fill="#000000"/><rect x="135" y="66" width="6" height="10" fill="#000000"/><rect x="141" y="66" width="6" height="10" fill="#000000"/><rect x="135" y="96" width="6" height="10" fill="#000000"/><rect x="129" y="96" width="6" height="10" fill="#000000"/><rect x="123" y="96" width="6" height="10" fill="#000000"/><rect x="111" y="96" width="6" height="10" fill="#000000"/><rect x="105" y="96" width="6" height="10" fill="#000000"/><rect x="99" y="96" width="6" height="10" fill="#000000"/><rect x="87" y="96" width="6" height="10" fill="#000000"/><rect x="87" y="86" width="6" height="10" fill="#000000"/></g><g clip-path="url(#grid-clip-38f16bf2f6959b3b-2x2)" data-channel="ellipse" data-ellipse-anchor-x="27" data-ellipse-anchor-y="26" data-ellipse-rx="31.729" data-ellipse-ry="73.265" data-ellipse-rotation-deg="60"><ellipse cx="27" cy="26" rx="31.729" ry="73.265" transform="rotate(60 27 26)" fill="#ffffff" stroke="#ffffff" fill-opacity="0.35" stroke-opacity="0.45" stroke-width="2"/></g><g><g data-channel="cell" data-cell-index="0" data-cell-row="0" data-cell-col="0" data-cell-quartile="3"><rect x="33" y="36" width="48" height="20" fill="#6c6568"/><text x="57" y="46" fill="#ffffff" font-size="16" text-anchor="middle" dominant-baseline="central">aGVs</text><polygon points="81,56 81,46 71,56" fill="#ffffff"/></g><g data-channel="cell" data-cell-index="1" data-cell-row="0" data-cell-col="1" data-cell-quartile="1"><rect x="93" y="36" width="48" height="20" fill="#206f6c"/><text x="117" y="46" fill="#ffffff" font-size="16" text-anchor="middle" dominant-baseline="central">bG8g</text><polygon points="93,36 103,36 93,46" fill="#ffffff"/></g><g data-channel="cell" data-cell-index="2" data-cell-row="1" data-cell-col="0" data-cell-quartile="2"><rect x="33" y="76" width="48" height="20" fill="#726f77"/><text x="57" y="86" fill="#ffffff" font-size="16" text-anchor="middle" dominant-baseline="central">d29y</text><polygon points="81,76 71,76 81,86" fill="#ffffff"/></g><g data-channel="cell" data-cell-index="3" data-cell-row="1" data-cell-col="1" data-cell-quartile="4"><rect x="93" y="76" width="48" height="20" fill="#10646c"/><text x="117" y="86" fill="#ffffff" font-size="16" text-anchor="middle" dominant-baseline="central">bGQ</text><polygon points="93,96 93,86 103,96" fill="#ffffff"/></g></g></g><g data-channel="color-bar" data-bar-slots="9" data-bar-marker-left="1" data-bar-marker-right="3"><g data-color-bar-rank="0" data-color-bar-band="W"><rect x="1" y="1" width="20" height="24.863" fill="#ffffff"/><text x="11" y="22.343" fill="#000000" font-size="16" text-anchor="middle" data-color-bar-letter="true">w</text></g><g data-color-bar-rank="1" data-color-bar-band="R"><rect x="1" y="25.863" width="20" height="42.414" fill="#ff3f2f"/><text x="11" y="64.757" fill="#000000" font-size="16" text-anchor="middle" data-color-bar-letter="true">r</text></g><g data-color-bar-rank="2" data-color-bar-band="K"><rect x="1" y="68.277" width="20" height="24.863" fill="#000000"/><text x="11" y="89.619" fill="#ffffff" font-size="16" text-anchor="middle" data-color-bar-letter="true">k</text></g><g data-color-bar-rank="3" data-color-bar-band="G"><rect x="1" y="93.139" width="20" height="17.861" fill="#e7be00"/><text x="11" y="107.48" fill="#000000" font-size="16" text-anchor="middle" data-color-bar-letter="true">g</text></g><circle cx="5.6" cy="19.333" r="3.4" fill="#ffffff" stroke="#000000" stroke-width="0.75" data-bar-marker="left"/><circle cx="16.4" cy="43.778" r="3.4" fill="#ffffff" stroke="#000000" stroke-width="0.75" data-bar-marker="right"/></g><g data-channel="label-top"><text x="27" y="16" fill="#666666" font-size="12" dominant-baseline="central">txt(11)-&gt;b64url:</text></g><line x1="0" y1="0.5" x2="153" y2="0.5" stroke="#808080" stroke-width="1" shape-rendering="crispEdges"/><line x1="152.5" y1="0" x2="152.5" y2="112" stroke="#808080" stroke-width="1" shape-rendering="crispEdges"/><line x1="0" y1="111.5" x2="153" y2="111.5" stroke="#808080" stroke-width="1" shape-rendering="crispEdges"/><line x1="0.5" y1="0" x2="0.5" y2="112" stroke="#808080" stroke-width="1" shape-rendering="crispEdges"/><line x1="21.5" y1="0" x2="21.5" y2="112" stroke="#808080" stroke-width="1" shape-rendering="crispEdges"/></svg>