<svg width="153" height="112" viewBox="0 0 153 112" xmlns="http://www.w3.org/2000/svg" font-family="&quot;JetBrains Mono&quot;, &quot;Menlo&quot;, &quot;Consolas&quot;, &quot;DejaVu Sans Mono&quot;, &quot;Liberation Mono&quot;, &quot;Roboto Mono&quot;, &quot;Noto Sans Mono&quot;, monospace" data-entviz-version="v10" data-entviz-lib="0.10.0" data-input-bytes="11" data-cols="2" data-rows="2"><defs><clipPath id="grid-clip-38f16bf2f6959b3b-2x2"><rect x="27" y="26" width="120" height="80"/></clipPath></defs><rect x="0" y="0" width="153" height="112" fill="#ffffff"/><g data-channel="grid"><rect x="27" y="26" width="120" height="80" fill="#2f3fbf"/><g><path fill="#000000" d="M27 26h6v10h-6zM33 26h6v10h-6zM45 26h6v10h-6zM57 26h6v10h-6zM63 26h6v10h-6zM75 26h6v10h-6zM81 56h6v10h-6zM75 56h6v10h-6zM69 56h6v10h-6zM63 56h6v10h-6zM39 56h6v10h-6zM33 56h6v10h-6zM27 56h6v10h-6z"/><path fill="#e7be00" d="M87 26h6v10h-6zM99 26h6v10h-6zM111 26h6v10h-6zM129 26h6v10h-6zM141 26h6v10h-6zM141 36h6v10h-6zM141 56h6v10h-6zM135 56h6v10h-6zM129 56h6v10h-6zM123 56h6v10h-6zM111 56h6v10h-6zM93 56h6v10h-6zM87 56h6v10h-6zM87 46h6v10h-6zM87 36h6v10h-6z"/><path fill="#ff3f2f" d="M33 66h6v10h-6zM39 66h6v10h-6zM57 66h6v10h-6zM63 66h6v10h-6zM75 66h6v10h-6zM81 66h6v10h-6zM81 86h6v10h-6zM81 96h6v10h-6zM75 96h6v10h-6zM57 96h6v10h-6zM51 96h6v10h-6zM39 96h6v10h-6zM33 96h6v10h-6zM27 76h6v10h-6z"/><path fill="#000000" d="M99 66h6v10h-6zM105 66h6v10h-6zM117 66h6v10h-6zM123 66h6v10h-6zM135 66h6v10h-6zM141 66h6v10h-6zM135 96h6v10h-6zM129 96h6v10h-6zM123 96h6v10h-6zM111 96h6v10h-6zM105 96h6v10h-6zM99 96h6v10h-6zM87 96h6v10h-6zM87 86h6v10h-6z"/></g><g clip-path="url(#grid-clip-38f16bf2f6959b3b-2x2)" data-channel="ellipse" data-ellipse-anchor-x="27" data-ellipse-anchor-y="26" data-ellipse-rx="31.729" data-ellipse-ry="73.265" data-ellipse-rotation-deg="60"><ellipse cx="27" cy="26" rx="31.729" ry="73.265" transform="rotate(60 27 26)" fill="#ffffff" stroke="#ffffff" fill-opacity="0.35" stroke-opacity="0.45" stroke-width="2"/></g><g><g data-channel="cell" data-cell-index="0" data-cell-row="0" data-cell-col="0" data-surround-bits="0x38f16b" data-edge-color="#000000" data-cell-quartile="3"><rect x="33" y="36" width="48" height="20" fill="#6c6568"/><text x="57" y="46" fill="#ffffff" font-size="16" text-anchor="middle" dominant-baseline="central">aGVs</text><polygon points="81,56 81,46 71,56" fill="#ffffff"/></g><g data-channel="cell" data-cell-index="1" data-cell-row="0" data-cell-col="1" data-surround-bits="0xf2f695" data-edge-color="#e7be00" data-cell-quartile="1"><rect x="93" y="36" width="48" height="20" fill="#206f6c"/><text x="117" y="46" fill="#ffffff" font-size="16" text-anchor="middle" dominant-baseline="central">bG8g</text><polygon points="93,36 103,36 93,46" fill="#ffffff"/></g><g data-channel="cell" data-cell-index="2" data-cell-row="1" data-cell-col="0" data-surround-bits="0x9b3b66" data-edge-color="#ff3f2f" data-cell-quartile="2"><rect x="33" y="76" width="48" height="20" fill="#726f77"/><text x="57" y="86" fill="#ffffff" font-size="16" text-anchor="middle" dominant-baseline="central">d29y</text><polygon points="81,76 71,76 81,86" fill="#ffffff"/></g><g data-channel="cell" data-cell-index="3" data-cell-row="1" data-cell-col="1" data-surround-bits="0x6ee36c" data-edge-color="#000000" data-cell-quartile="4"><rect x="93" y="76" width="48" height="20" fill="#10646c"/><text x="117" y="86" fill="#ffffff" font-size="16" text-anchor="middle" dominant-baseline="central">bGQ</text><polygon points="93,96 93,86 103,96" fill="#ffffff"/></g></g></g><g data-channel="color-bar" data-bar-slots="9" data-bar-marker-left="1" data-bar-marker-right="3"><g data-color-bar-rank="0" data-color-bar-band="W"><rect x="1" y="1" width="20" height="24.863" fill="#ffffff"/><text x="11" y="22.343" fill="#000000" font-size="16" text-anchor="middle" data-color-bar-letter="true">w</text></g><g data-color-bar-rank="1" data-color-bar-band="R"><rect x="1" y="25.863" width="20" height="42.414" fill="#ff3f2f"/><text x="11" y="64.757" fill="#000000" font-size="16" text-anchor="middle" data-color-bar-letter="true">r</text></g><g data-color-bar-rank="2" data-color-bar-band="K"><rect x="1" y="68.277" width="20" height="24.863" fill="#000000"/><text x="11" y="89.619" fill="#ffffff" font-size="16" text-anchor="middle" data-color-bar-letter="true">k</text></g><g data-color-bar-rank="3" data-color-bar-band="G"><rect x="1" y="93.139" width="20" height="17.861" fill="#e7be00"/><text x="11" y="107.48" fill="#000000" font-size="16" text-anchor="middle" data-color-bar-letter="true">g</text></g><circle cx="5.6" cy="19.333" r="3.4" fill="#ffffff" stroke="#000000" stroke-width="0.75" data-bar-marker="left"/><circle cx="16.4" cy="43.778" r="3.4" fill="#ffffff" stroke="#000000" stroke-width="0.75" data-bar-marker="right"/></g><g data-channel="label-top"><text x="27" y="16" fill="#666666" font-size="12" dominant-baseline="central">txt(11)-&gt;b64url:</text></g><line x1="0" y1="0.5" x2="153" y2="0.5" stroke="#808080" stroke-width="1" shape-rendering="crispEdges"/><line x1="152.5" y1="0" x2="152.5" y2="112" stroke="#808080" stroke-width="1" shape-rendering="crispEdges"/><line x1="0" y1="111.5" x2="153" y2="111.5" stroke="#808080" stroke-width="1" shape-rendering="crispEdges"/><line x1="0.5" y1="0" x2="0.5" y2="112" stroke="#808080" stroke-width="1" shape-rendering="crispEdges"/><line x1="21.5" y1="0" x2="21.5" y2="112" stroke="#808080" stroke-width="1" shape-rendering="crispEdges"/></svg>