<svg width="423" height="382" viewBox="0 0 423 382" xmlns="http://www.w3.org/2000/svg" font-family="&quot;JetBrains Mono&quot;, &quot;Menlo&quot;, &quot;Consolas&quot;, &quot;DejaVu Sans Mono&quot;, &quot;Liberation Mono&quot;, &quot;Roboto Mono&quot;, &quot;Noto Sans Mono&quot;, monospace" data-entviz-version="v10" data-entviz-lib="0.10.0" data-input-bytes="64" data-cols="3" data-rows="4"><defs><clipPath id="grid-clip-286f37dd952ff65e-3x4"><rect x="52" y="51" width="360" height="320"/></clipPath></defs><rect x="0" y="0" width="423" height="382" fill="#ffffff"/><g data-channel="grid"><rect x="52" y="51" width="360" height="320" fill="#ff3f2f"/><g><rect x="52" y="51" width="12" height="20" fill="#000000"/><rect x="64" y="51" width="12" height="20" fill="#000000"/><rect x="76" y="51" width="12" height="20" fill="#000000"/><rect x="100" y="51" width="12" height="20" fill="#000000"/><rect x="112" y="51" width="12" height="20" fill="#000000"/><rect x="148" y="51" width="12" height="20" fill="#000000"/><rect x="160" y="51" width="12" height="20" fill="#000000"/><rect x="160" y="71" width="12" height="20" fill="#000000"/><rect x="160" y="91" width="12" height="20" fill="#000000"/><rect x="148" y="111" width="12" height="20" fill="#000000"/><rect x="136" y="111" width="12" height="20" fill="#000000"/><rect x="76" y="111" width="12" height="20" fill="#000000"/><rect x="52" y="111" width="12" height="20" fill="#000000"/><rect x="172" y="51" width="12" height="20" fill="#2f3fbf"/><rect x="184" y="51" width="12" height="20" fill="#2f3fbf"/><rect x="196" y="51" width="12" height="20" fill="#2f3fbf"/><rect x="208" y="51" width="12" height="20" fill="#2f3fbf"/><rect x="232" y="51" width="12" height="20" fill="#2f3fbf"/><rect x="268" y="51" width="12" height="20" fill="#2f3fbf"/><rect x="280" y="71" width="12" height="20" fill="#2f3fbf"/><rect x="280" y="111" width="12" height="20" fill="#2f3fbf"/><rect x="244" y="111" width="12" height="20" fill="#2f3fbf"/><rect x="232" y="111" width="12" height="20" fill="#2f3fbf"/><rect x="208" y="111" width="12" height="20" fill="#2f3fbf"/><rect x="196" y="111" width="12" height="20" fill="#2f3fbf"/><rect x="184" y="111" width="12" height="20" fill="#2f3fbf"/><rect x="172" y="91" width="12" height="20" fill="#2f3fbf"/><rect x="172" y="71" width="12" height="20" fill="#2f3fbf"/><rect x="292" y="51" width="12" height="20" fill="#000000"/><rect x="304" y="51" width="12" height="20" fill="#000000"/><rect x="316" y="51" width="12" height="20" fill="#000000"/><rect x="340" y="51" width="12" height="20" fill="#000000"/><rect x="352" y="51" width="12" height="20" fill="#000000"/><rect x="364" y="51" width="12" height="20" fill="#000000"/><rect x="376" y="51" width="12" height="20" fill="#000000"/><rect x="400" y="51" width="12" height="20" fill="#000000"/><rect x="400" y="71" width="12" height="20" fill="#000000"/><rect x="400" y="91" width="12" height="20" fill="#000000"/><rect x="400" y="111" width="12" height="20" fill="#000000"/><rect x="376" y="111" width="12" height="20" fill="#000000"/><rect x="340" y="111" width="12" height="20" fill="#000000"/><rect x="328" y="111" width="12" height="20" fill="#000000"/><rect x="304" y="111" width="12" height="20" fill="#000000"/><rect x="292" y="111" width="12" height="20" fill="#000000"/><rect x="292" y="91" width="12" height="20" fill="#000000"/><rect x="292" y="71" width="12" height="20" fill="#000000"/><rect x="52" y="131" width="12" height="20" fill="#e7be00"/><rect x="124" y="131" width="12" height="20" fill="#e7be00"/><rect x="136" y="131" width="12" height="20" fill="#e7be00"/><rect x="148" y="131" width="12" height="20" fill="#e7be00"/><rect x="160" y="151" width="12" height="20" fill="#e7be00"/><rect x="160" y="171" width="12" height="20" fill="#e7be00"/><rect x="160" y="191" width="12" height="20" fill="#e7be00"/><rect x="148" y="191" width="12" height="20" fill="#e7be00"/><rect x="136" y="191" width="12" height="20" fill="#e7be00"/><rect x="124" y="191" width="12" height="20" fill="#e7be00"/><rect x="112" y="191" width="12" height="20" fill="#e7be00"/><rect x="100" y="191" width="12" height="20" fill="#e7be00"/><rect x="88" y="191" width="12" height="20" fill="#e7be00"/><rect x="76" y="191" width="12" height="20" fill="#e7be00"/><rect x="64" y="191" width="12" height="20" fill="#e7be00"/><rect x="52" y="171" width="12" height="20" fill="#e7be00"/><rect x="172" y="131" width="12" height="20" fill="#2f3fbf"/><rect x="184" y="131" width="12" height="20" fill="#2f3fbf"/><rect x="208" y="131" width="12" height="20" fill="#2f3fbf"/><rect x="220" y="131" width="12" height="20" fill="#2f3fbf"/><rect x="232" y="131" width="12" height="20" fill="#2f3fbf"/><rect x="268" y="131" width="12" height="20" fill="#2f3fbf"/><rect x="280" y="131" width="12" height="20" fill="#2f3fbf"/><rect x="280" y="151" width="12" height="20" fill="#2f3fbf"/><rect x="268" y="191" width="12" height="20" fill="#2f3fbf"/><rect x="256" y="191" width="12" height="20" fill="#2f3fbf"/><rect x="244" y="191" width="12" height="20" fill="#2f3fbf"/><rect x="232" y="191" width="12" height="20" fill="#2f3fbf"/><rect x="220" y="191" width="12" height="20" fill="#2f3fbf"/><rect x="172" y="151" width="12" height="20" fill="#2f3fbf"/><rect x="292" y="131" width="12" height="20" fill="#e7be00"/><rect x="340" y="131" width="12" height="20" fill="#e7be00"/><rect x="388" y="131" width="12" height="20" fill="#e7be00"/><rect x="388" y="191" width="12" height="20" fill="#e7be00"/><rect x="376" y="191" width="12" height="20" fill="#e7be00"/><rect x="364" y="191" width="12" height="20" fill="#e7be00"/><rect x="352" y="191" width="12" height="20" fill="#e7be00"/><rect x="340" y="191" width="12" height="20" fill="#e7be00"/><rect x="304" y="191" width="12" height="20" fill="#e7be00"/><rect x="292" y="191" width="12" height="20" fill="#e7be00"/><rect x="52" y="211" width="12" height="20" fill="#000000"/><rect x="76" y="211" width="12" height="20" fill="#000000"/><rect x="112" y="211" width="12" height="20" fill="#000000"/><rect x="124" y="211" width="12" height="20" fill="#000000"/><rect x="148" y="211" width="12" height="20" fill="#000000"/><rect x="160" y="271" width="12" height="20" fill="#000000"/><rect x="136" y="271" width="12" height="20" fill="#000000"/><rect x="124" y="271" width="12" height="20" fill="#000000"/><rect x="64" y="271" width="12" height="20" fill="#000000"/><rect x="52" y="251" width="12" height="20" fill="#000000"/><rect x="52" y="231" width="12" height="20" fill="#000000"/><rect x="304" y="211" width="12" height="20" fill="#000000"/><rect x="316" y="211" width="12" height="20" fill="#000000"/><rect x="340" y="211" width="12" height="20" fill="#000000"/><rect x="364" y="211" width="12" height="20" fill="#000000"/><rect x="388" y="211" width="12" height="20" fill="#000000"/><rect x="400" y="211" width="12" height="20" fill="#000000"/><rect x="400" y="271" width="12" height="20" fill="#000000"/><rect x="388" y="271" width="12" height="20" fill="#000000"/><rect x="328" y="271" width="12" height="20" fill="#000000"/><rect x="316" y="271" width="12" height="20" fill="#000000"/><rect x="292" y="271" width="12" height="20" fill="#000000"/><rect x="76" y="291" width="12" height="20" fill="#2f3fbf"/><rect x="100" y="291" width="12" height="20" fill="#2f3fbf"/><rect x="124" y="291" width="12" height="20" fill="#2f3fbf"/><rect x="160" y="311" width="12" height="20" fill="#2f3fbf"/><rect x="160" y="331" width="12" height="20" fill="#2f3fbf"/><rect x="160" y="351" width="12" height="20" fill="#2f3fbf"/><rect x="148" y="351" width="12" height="20" fill="#2f3fbf"/><rect x="124" y="351" width="12" height="20" fill="#2f3fbf"/><rect x="88" y="351" width="12" height="20" fill="#2f3fbf"/><rect x="52" y="351" width="12" height="20" fill="#2f3fbf"/><rect x="52" y="331" width="12" height="20" fill="#2f3fbf"/><rect x="52" y="311" width="12" height="20" fill="#2f3fbf"/><rect x="172" y="291" width="12" height="20" fill="#e7be00"/><rect x="184" y="291" width="12" height="20" fill="#e7be00"/><rect x="232" y="291" width="12" height="20" fill="#e7be00"/><rect x="256" y="291" width="12" height="20" fill="#e7be00"/><rect x="280" y="311" width="12" height="20" fill="#e7be00"/><rect x="280" y="351" width="12" height="20" fill="#e7be00"/><rect x="232" y="351" width="12" height="20" fill="#e7be00"/><rect x="220" y="351" width="12" height="20" fill="#e7be00"/><rect x="208" y="351" width="12" height="20" fill="#e7be00"/><rect x="172" y="331" width="12" height="20" fill="#e7be00"/><rect x="172" y="311" width="12" height="20" fill="#e7be00"/><rect x="292" y="291" width="12" height="20" fill="#000000"/><rect x="304" y="291" width="12" height="20" fill="#000000"/><rect x="364" y="291" width="12" height="20" fill="#000000"/><rect x="376" y="291" width="12" height="20" fill="#000000"/><rect x="400" y="331" width="12" height="20" fill="#000000"/><rect x="400" y="351" width="12" height="20" fill="#000000"/><rect x="388" y="351" width="12" height="20" fill="#000000"/><rect x="376" y="351" width="12" height="20" fill="#000000"/><rect x="364" y="351" width="12" height="20" fill="#000000"/><rect x="352" y="351" width="12" height="20" fill="#000000"/><rect x="328" y="351" width="12" height="20" fill="#000000"/><rect x="316" y="351" width="12" height="20" fill="#000000"/><rect x="292" y="331" width="12" height="20" fill="#000000"/></g><g clip-path="url(#grid-clip-286f37dd952ff65e-3x4)" data-channel="ellipse" data-ellipse-anchor-x="292" data-ellipse-anchor-y="211" data-ellipse-rx="118.839" data-ellipse-ry="118.839" data-ellipse-rotation-deg="96"><ellipse cx="292" cy="211" rx="118.839" ry="118.839" transform="rotate(96 292 211)" fill="#000000" stroke="#000000" fill-opacity="0.25" stroke-opacity="0.35" stroke-width="4"/></g><g><g data-channel="cell" data-cell-index="0" data-cell-row="0" data-cell-col="0"><rect x="64" y="71" width="96" height="40" fill="#d0869f"/><text x="112" y="91" fill="#000000" font-size="24" text-anchor="middle" dominant-baseline="central">9f86d0</text></g><g data-channel="cell" data-cell-index="1" data-cell-row="0" data-cell-col="1"><rect x="184" y="71" width="96" height="40" fill="#4c8881"/><text x="232" y="91" fill="#ffffff" font-size="24" text-anchor="middle" dominant-baseline="central">81884c</text></g><g data-channel="cell" data-cell-index="2" data-cell-row="0" data-cell-col="2" data-cell-quartile="1"><rect x="304" y="71" width="96" height="40" fill="#9a657d"/><text x="352" y="91" fill="#ffffff" font-size="24" text-anchor="middle" dominant-baseline="central">7d659a</text><polygon points="304,71 324,71 304,91" fill="#ffffff"/></g><g data-channel="cell" data-cell-index="3" data-cell-row="1" data-cell-col="0" data-cell-quartile="2"><rect x="64" y="151" width="96" height="40" fill="#a0ea2f"/><text x="112" y="171" fill="#000000" font-size="24" text-anchor="middle" dominant-baseline="central">2feaa0</text><polygon points="160,151 140,151 160,171" fill="#000000"/></g><g data-channel="cell" data-cell-index="4" data-cell-row="1" data-cell-col="1"><rect x="184" y="151" width="96" height="40" fill="#d05ac5"/><text x="232" y="171" fill="#000000" font-size="24" text-anchor="middle" dominant-baseline="central">c55ad0</text></g><g data-channel="cell" data-cell-index="5" data-cell-row="1" data-cell-col="2"><rect x="304" y="151" width="96" height="40" fill="#bfa315"/><text x="352" y="171" fill="#000000" font-size="24" text-anchor="middle" dominant-baseline="central">15a3bf</text></g><g data-channel="cell" data-cell-index="6" data-cell-row="2" data-cell-col="0" data-cell-quartile="4"><rect x="64" y="231" width="96" height="40" fill="#2b1b4f"/><text x="112" y="251" fill="#ffffff" font-size="24" text-anchor="middle" dominant-baseline="central">4f1b2b</text><polygon points="64,271 64,251 84,271" fill="#ffffff"/></g><g data-channel="cell" data-cell-index="7" data-cell-row="2" data-cell-col="1" data-cell-blank="true" data-cell-blank-map="true"><rect x="184" y="231" width="96" height="40" rx="20" ry="20" fill="#000000" stroke="#000000" stroke-width="1"/><circle cx="200" cy="236" r="7" fill="#ffffff" data-blank-map-min="0,0"/><path d="M 255.6,236 H 272.4 M 264,227.6 V 244.4" fill="none" stroke="#ffffff" stroke-width="3.85" stroke-linecap="butt" data-blank-map-max="0,2"/></g><g data-channel="cell" data-cell-index="8" data-cell-row="2" data-cell-col="2"><rect x="304" y="231" width="96" height="40" fill="#2c820b"/><text x="352" y="251" fill="#ffffff" font-size="24" text-anchor="middle" dominant-baseline="central">0b822c</text></g><g data-channel="cell" data-cell-index="9" data-cell-row="3" data-cell-col="0" data-cell-quartile="3"><rect x="64" y="311" width="96" height="40" fill="#6c5dd1"/><text x="112" y="331" fill="#ffffff" font-size="24" text-anchor="middle" dominant-baseline="central">d15d6c</text><polygon points="160,351 160,331 140,351" fill="#ffffff"/></g><g data-channel="cell" data-cell-index="10" data-cell-row="3" data-cell-col="1"><rect x="184" y="311" width="96" height="40" fill="#f0b015"/><text x="232" y="331" fill="#000000" font-size="24" text-anchor="middle" dominant-baseline="central">15b0f0</text></g><g data-channel="cell" data-cell-index="11" data-cell-row="3" data-cell-col="2"><rect x="304" y="311" width="96" height="40" fill="#08080a"/><text x="352" y="331" fill="#ffffff" font-size="24" text-anchor="middle" dominant-baseline="central">0a08</text></g></g></g><g data-channel="color-bar" data-bar-slots="16" data-bar-marker-left="2" data-bar-marker-right="14"><g data-color-bar-rank="0" data-color-bar-band="W"><rect x="1" y="1" width="40" height="53.684" fill="#ffffff"/><text x="21" y="49.404" fill="#000000" font-size="24" text-anchor="middle" data-color-bar-letter="true">w</text></g><g data-color-bar-rank="1" data-color-bar-band="B"><rect x="1" y="54.684" width="40" height="32.093" fill="#2f3fbf"/><text x="21" y="81.497" fill="#ffffff" font-size="24" text-anchor="middle" data-color-bar-letter="true">b</text></g><g data-color-bar-rank="2" data-color-bar-band="K"><rect x="1" y="86.777" width="40" height="204.209" fill="#000000"/><text x="21" y="285.706" fill="#ffffff" font-size="24" text-anchor="middle" data-color-bar-letter="true">k</text></g><g data-color-bar-rank="3" data-color-bar-band="G"><rect x="1" y="290.986" width="40" height="90.014" fill="#e7be00"/><text x="21" y="375.72" fill="#000000" font-size="24" text-anchor="middle" data-color-bar-letter="true">g</text></g><circle cx="10.2" cy="60.375" r="6.8" fill="#ffffff" stroke="#000000" stroke-width="0.75" data-bar-marker="left"/><circle cx="31.8" cy="345.375" r="6.8" fill="#ffffff" stroke="#000000" stroke-width="0.75" data-bar-marker="right"/></g><g data-channel="label-top"><text x="52" y="31" fill="#666666" font-size="24" dominant-baseline="central">hex(64):</text></g><line x1="0" y1="0.5" x2="423" y2="0.5" stroke="#808080" stroke-width="1" shape-rendering="crispEdges"/><line x1="422.5" y1="0" x2="422.5" y2="382" stroke="#808080" stroke-width="1" shape-rendering="crispEdges"/><line x1="0" y1="381.5" x2="423" y2="381.5" stroke="#808080" stroke-width="1" shape-rendering="crispEdges"/><line x1="0.5" y1="0" x2="0.5" y2="382" stroke="#808080" stroke-width="1" shape-rendering="crispEdges"/><line x1="41.5" y1="0" x2="41.5" y2="382" stroke="#808080" stroke-width="1" shape-rendering="crispEdges"/></svg>