<svg width="213" height="192" viewBox="0 0 213 192" xmlns="http://www.w3.org/2000/svg" font-family="&quot;JetBrains Mono&quot;, &quot;Menlo&quot;, &quot;Consolas&quot;, &quot;DejaVu Sans Mono&quot;, &quot;Liberation Mono&quot;, &quot;Roboto Mono&quot;, &quot;Noto Sans Mono&quot;, monospace" data-entviz-version="v11" data-entviz-lib="0.10.0" data-input-bytes="105" data-cols="3" data-rows="4"><defs><clipPath id="grid-clip-914e3d0ed3b14021-3x4"><rect x="27" y="26" width="180" height="160"/></clipPath></defs><rect x="0" y="0" width="213" height="192" fill="#ffffff"/><g data-channel="grid"><rect x="27" y="26" width="180" height="160" fill="#2f3fbf"/><g><path fill="#e7be00" d="M27 26h6v10h-6zM39 26h6v10h-6zM45 26h6v10h-6zM51 26h6v10h-6zM57 26h6v10h-6zM81 26h6v10h-6zM81 36h6v10h-6zM81 46h6v10h-6zM69 56h6v10h-6zM57 56h6v10h-6zM33 56h6v10h-6zM27 36h6v10h-6z"/><path fill="#e7be00" d="M87 26h6v10h-6zM111 26h6v10h-6zM117 26h6v10h-6zM129 26h6v10h-6zM135 26h6v10h-6zM141 26h6v10h-6zM141 56h6v10h-6zM129 56h6v10h-6zM123 56h6v10h-6zM111 56h6v10h-6zM105 56h6v10h-6zM99 56h6v10h-6z"/><path fill="#e7be00" d="M147 26h6v10h-6zM153 26h6v10h-6zM159 26h6v10h-6zM177 26h6v10h-6zM189 26h6v10h-6zM195 26h6v10h-6zM195 56h6v10h-6zM147 46h6v10h-6z"/><path fill="#ffffff" d="M33 66h6v10h-6zM45 66h6v10h-6zM63 66h6v10h-6zM75 66h6v10h-6zM81 96h6v10h-6zM75 96h6v10h-6zM69 96h6v10h-6zM63 96h6v10h-6zM51 96h6v10h-6zM27 86h6v10h-6zM27 76h6v10h-6z"/><path fill="#e7be00" d="M99 66h6v10h-6zM111 66h6v10h-6zM129 66h6v10h-6zM135 66h6v10h-6zM141 66h6v10h-6zM117 96h6v10h-6zM105 96h6v10h-6zM93 96h6v10h-6zM87 76h6v10h-6z"/><path fill="#ffffff" d="M159 66h6v10h-6zM165 66h6v10h-6zM195 66h6v10h-6zM201 66h6v10h-6zM201 96h6v10h-6zM189 96h6v10h-6zM183 96h6v10h-6zM171 96h6v10h-6zM147 76h6v10h-6z"/><path fill="#ffffff" d="M39 106h6v10h-6zM51 106h6v10h-6zM57 106h6v10h-6zM63 106h6v10h-6zM75 106h6v10h-6zM81 116h6v10h-6zM81 126h6v10h-6zM81 136h6v10h-6zM63 136h6v10h-6zM45 136h6v10h-6zM39 136h6v10h-6zM27 136h6v10h-6zM27 126h6v10h-6zM27 116h6v10h-6z"/><path fill="#ff3f2f" d="M87 106h6v10h-6zM111 106h6v10h-6zM117 106h6v10h-6zM123 106h6v10h-6zM135 106h6v10h-6zM141 126h6v10h-6zM141 136h6v10h-6zM99 136h6v10h-6zM87 136h6v10h-6zM87 126h6v10h-6zM87 116h6v10h-6z"/><path fill="#ffffff" d="M147 106h6v10h-6zM153 106h6v10h-6zM183 106h6v10h-6zM201 106h6v10h-6zM201 116h6v10h-6zM201 136h6v10h-6zM195 136h6v10h-6zM189 136h6v10h-6zM183 136h6v10h-6zM177 136h6v10h-6zM171 136h6v10h-6zM165 136h6v10h-6zM159 136h6v10h-6zM147 126h6v10h-6z"/><path fill="#ffffff" d="M33 146h6v10h-6zM39 146h6v10h-6zM51 146h6v10h-6zM57 146h6v10h-6zM69 146h6v10h-6zM81 146h6v10h-6zM81 156h6v10h-6zM81 166h6v10h-6zM81 176h6v10h-6zM69 176h6v10h-6zM57 176h6v10h-6zM45 176h6v10h-6zM39 176h6v10h-6zM27 156h6v10h-6z"/><path fill="#000000" d="M105 146h6v10h-6zM111 146h6v10h-6zM117 146h6v10h-6zM123 146h6v10h-6zM129 146h6v10h-6zM141 156h6v10h-6zM141 166h6v10h-6zM141 176h6v10h-6zM135 176h6v10h-6zM111 176h6v10h-6zM99 176h6v10h-6zM87 176h6v10h-6zM87 166h6v10h-6z"/><path fill="#ffffff" d="M147 146h6v10h-6zM177 146h6v10h-6zM189 146h6v10h-6zM201 156h6v10h-6zM201 176h6v10h-6zM195 176h6v10h-6zM189 176h6v10h-6zM153 176h6v10h-6zM147 176h6v10h-6zM147 166h6v10h-6zM147 156h6v10h-6z"/></g><g clip-path="url(#grid-clip-914e3d0ed3b14021-3x4)" data-channel="ellipse" data-ellipse-anchor-x="87" data-ellipse-anchor-y="66" data-ellipse-rx="90.283" data-ellipse-ry="65.846" data-ellipse-rotation-deg="12"><ellipse cx="87" cy="66" rx="90.283" ry="65.846" transform="rotate(12 87 66)" fill="#ffffff" stroke="#ffffff" fill-opacity="0.35" stroke-opacity="0.45" stroke-width="2"/></g><g><g data-channel="cell" data-cell-index="0" data-cell-row="0" data-cell-col="0" data-surround-bits="0x914e3d" data-edge-color="#e7be00" data-cell-quartile="2"><rect x="33" y="36" width="48" height="20" fill="#24a3cf"/><text x="57" y="46" fill="#000000" font-size="16" text-anchor="middle" dominant-baseline="central">z6Mk</text><polygon points="81,36 71,36 81,46" fill="#000000"/></g><g data-channel="cell" data-cell-index="1" data-cell-row="0" data-cell-col="1" data-surround-bits="0xed3b1" data-edge-color="#e7be00"><rect x="93" y="36" width="48" height="20" fill="#e0a585"/><text x="117" y="46" fill="#000000" font-size="16" text-anchor="middle" dominant-baseline="central">haXg</text></g><g data-channel="cell" data-cell-index="2" data-cell-row="0" data-cell-col="2" data-surround-bits="0x4021a7" data-edge-color="#e7be00" data-cell-quartile="4"><rect x="153" y="36" width="48" height="20" fill="#ef9005"/><text x="177" y="46" fill="#000000" font-size="16" text-anchor="middle" dominant-baseline="central">BZDv</text><polygon points="153,56 153,46 163,56" fill="#000000"/></g><g data-channel="cell" data-cell-index="3" data-cell-row="1" data-cell-col="0" data-surround-bits="0xc2f14a" data-edge-color="#ffffff"><rect x="33" y="76" width="48" height="20" fill="#e4d0a2"/><text x="57" y="86" fill="#000000" font-size="16" text-anchor="middle" dominant-baseline="central">otDk</text></g><g data-channel="cell" data-cell-index="4" data-cell-row="1" data-cell-col="1" data-surround-bits="0x950394" data-edge-color="#e7be00"><rect x="93" y="76" width="48" height="20" fill="#b99d2f"/><text x="117" y="86" fill="#000000" font-size="16" text-anchor="middle" dominant-baseline="central">L525</text></g><g data-channel="cell" data-cell-index="5" data-cell-row="1" data-cell-col="2" data-surround-bits="0x82d30c" data-edge-color="#ffffff" data-cell-quartile="3"><rect x="153" y="76" width="48" height="20" fill="#a2f6ed"/><text x="177" y="86" fill="#000000" font-size="16" text-anchor="middle" dominant-baseline="central">7fai</text><polygon points="201,96 201,86 191,96" fill="#000000"/></g><g data-channel="cell" data-cell-index="6" data-cell-row="2" data-cell-col="0" data-surround-bits="0xec9d74" data-edge-color="#ffffff" data-cell-quartile="1"><rect x="33" y="116" width="48" height="20" fill="#86d8ce"/><text x="57" y="126" fill="#000000" font-size="16" text-anchor="middle" dominant-baseline="central">ztiG</text><polygon points="33,116 43,116 33,126" fill="#000000"/></g><g data-channel="cell" data-cell-index="7" data-cell-row="2" data-cell-col="1" data-surround-bits="0xe81971" data-edge-color="#ff3f2f"><rect x="93" y="116" width="48" height="20" fill="#902d88"/><text x="117" y="126" fill="#ffffff" font-size="16" text-anchor="middle" dominant-baseline="central">iC2Q</text></g><g data-channel="cell" data-cell-index="8" data-cell-row="2" data-cell-col="2" data-surround-bits="0x4ff643" data-edge-color="#ffffff"><rect x="153" y="116" width="48" height="20" fill="#c6a2b4"/><text x="177" y="126" fill="#000000" font-size="16" text-anchor="middle" dominant-baseline="central">tKLG</text></g><g data-channel="cell" data-cell-index="9" data-cell-row="3" data-cell-col="0" data-surround-bits="0x8d5eb6" data-edge-color="#ffffff"><rect x="33" y="156" width="48" height="20" fill="#e7b9a5"/><text x="57" y="166" fill="#000000" font-size="16" text-anchor="middle" dominant-baseline="central">pbnn</text></g><g data-channel="cell" data-cell-index="10" data-cell-row="3" data-cell-col="1" data-surround-bits="0x6a3cf8" data-edge-color="#000000"><rect x="93" y="156" width="48" height="20" fill="#5a6b10"/><text x="117" y="166" fill="#ffffff" font-size="16" text-anchor="middle" dominant-baseline="central">EGta</text></g><g data-channel="cell" data-cell-index="11" data-cell-row="3" data-cell-col="2" data-surround-bits="0xf074a1" data-edge-color="#ffffff"><rect x="153" y="156" width="48" height="20" fill="#0adad9"/><text x="177" y="166" fill="#000000" font-size="16" text-anchor="middle" dominant-baseline="central">2doK</text></g></g></g><g data-channel="color-bar" data-bar-slots="15" data-bar-marker-left="13" data-bar-marker-right="13"><g data-color-bar-rank="0" data-color-bar-band="G"><rect x="1" y="1" width="20" height="86.707" fill="#e7be00"/><text x="11" y="84.187" fill="#000000" font-size="16" text-anchor="middle" data-color-bar-letter="true">g</text></g><g data-color-bar-rank="1" data-color-bar-band="W"><rect x="1" y="87.707" width="20" height="59.222" fill="#ffffff"/><text x="11" y="143.409" fill="#000000" font-size="16" text-anchor="middle" data-color-bar-letter="true">w</text></g><g data-color-bar-rank="2" data-color-bar-band="R"><rect x="1" y="146.929" width="20" height="18.034" fill="#ff3f2f"/><text x="11" y="161.443" fill="#000000" font-size="16" text-anchor="middle" data-color-bar-letter="true">r</text></g><g data-color-bar-rank="3" data-color-bar-band="K"><rect x="1" y="164.963" width="20" height="26.037" fill="#000000"/><text x="11" y="187.48" fill="#ffffff" font-size="16" text-anchor="middle" data-color-bar-letter="true">k</text></g><circle cx="5.6" cy="172" r="3.4" fill="#ffffff" stroke="#000000" stroke-width="0.75" data-bar-marker="left"/><circle cx="16.4" cy="172" r="3.4" fill="#ffffff" stroke="#000000" stroke-width="0.75" data-bar-marker="right"/></g><g data-channel="label-top"><text x="27" y="16" fill="#666666" font-size="12" dominant-baseline="central">did:key:...</text></g><line x1="0" y1="0.5" x2="213" y2="0.5" stroke="#808080" stroke-width="1" shape-rendering="crispEdges"/><line x1="212.5" y1="0" x2="212.5" y2="192" stroke="#808080" stroke-width="1" shape-rendering="crispEdges"/><line x1="0" y1="191.5" x2="213" y2="191.5" stroke="#808080" stroke-width="1" shape-rendering="crispEdges"/><line x1="0.5" y1="0" x2="0.5" y2="192" stroke="#808080" stroke-width="1" shape-rendering="crispEdges"/><line x1="21.5" y1="0" x2="21.5" y2="192" stroke="#808080" stroke-width="1" shape-rendering="crispEdges"/></svg>