<svg width="273" height="272" viewBox="0 0 273 272" xmlns="http://www.w3.org/2000/svg" font-family="&quot;JetBrains Mono&quot;, &quot;Menlo&quot;, &quot;Consolas&quot;, &quot;DejaVu Sans Mono&quot;, &quot;Liberation Mono&quot;, &quot;Roboto Mono&quot;, &quot;Noto Sans Mono&quot;, monospace" data-entviz-version="v11" data-entviz-lib="0.11.0" data-input-bytes="176" data-cols="4" data-rows="6" data-truncated="true"><defs><clipPath id="grid-clip-0106fa10b6909ac4-4x6"><rect x="27" y="26" width="240" height="240"/></clipPath></defs><rect x="0" y="0" width="273" height="272" fill="#ffffff"/><g data-channel="grid"><rect x="27" y="26" width="240" height="240" fill="#ff3f2f"/><g><path fill="#2f3fbf" d="M33 26h6v10h-6zM45 26h6v10h-6zM51 26h6v10h-6zM57 26h6v10h-6zM63 26h6v10h-6zM69 26h6v10h-6zM81 26h6v10h-6zM81 36h6v10h-6zM57 56h6v10h-6z"/><path fill="#2f3fbf" d="M111 26h6v10h-6zM129 26h6v10h-6zM141 26h6v10h-6zM141 36h6v10h-6zM141 56h6v10h-6zM135 56h6v10h-6zM123 56h6v10h-6zM93 56h6v10h-6z"/><path fill="#000000" d="M147 26h6v10h-6zM165 26h6v10h-6zM171 26h6v10h-6zM183 26h6v10h-6zM201 36h6v10h-6zM189 56h6v10h-6zM183 56h6v10h-6zM171 56h6v10h-6zM159 56h6v10h-6zM153 56h6v10h-6zM147 36h6v10h-6z"/><path fill="#000000" d="M33 66h6v10h-6zM45 66h6v10h-6zM51 66h6v10h-6zM69 66h6v10h-6zM81 66h6v10h-6zM81 96h6v10h-6zM75 96h6v10h-6zM63 96h6v10h-6zM51 96h6v10h-6zM39 96h6v10h-6zM27 86h6v10h-6zM27 76h6v10h-6z"/><path fill="#000000" d="M87 66h6v10h-6zM93 66h6v10h-6zM99 66h6v10h-6zM105 66h6v10h-6zM111 66h6v10h-6zM117 66h6v10h-6zM123 66h6v10h-6zM129 66h6v10h-6zM141 76h6v10h-6zM141 86h6v10h-6zM135 96h6v10h-6zM117 96h6v10h-6zM111 96h6v10h-6zM105 96h6v10h-6zM93 96h6v10h-6zM87 96h6v10h-6zM87 76h6v10h-6z"/><path fill="#e7be00" d="M147 66h6v10h-6zM153 66h6v10h-6zM159 66h6v10h-6zM165 66h6v10h-6zM177 66h6v10h-6zM183 66h6v10h-6zM189 66h6v10h-6zM201 76h6v10h-6zM195 96h6v10h-6zM183 96h6v10h-6zM171 96h6v10h-6zM165 96h6v10h-6zM147 86h6v10h-6zM147 76h6v10h-6z"/><path fill="#2f3fbf" d="M207 66h6v10h-6zM213 66h6v10h-6zM219 66h6v10h-6zM231 66h6v10h-6zM243 66h6v10h-6zM255 66h6v10h-6zM261 86h6v10h-6zM261 96h6v10h-6zM243 96h6v10h-6zM225 96h6v10h-6zM207 96h6v10h-6zM207 76h6v10h-6z"/><path fill="#000000" d="M33 106h6v10h-6zM39 106h6v10h-6zM57 106h6v10h-6zM69 106h6v10h-6zM75 106h6v10h-6zM81 106h6v10h-6zM81 116h6v10h-6zM75 136h6v10h-6zM57 136h6v10h-6zM45 136h6v10h-6zM33 136h6v10h-6z"/><path fill="#e7be00" d="M93 106h6v10h-6zM105 106h6v10h-6zM111 106h6v10h-6zM117 106h6v10h-6zM123 106h6v10h-6zM129 106h6v10h-6zM141 136h6v10h-6zM129 136h6v10h-6zM111 136h6v10h-6zM99 136h6v10h-6z"/><path fill="#e7be00" d="M147 106h6v10h-6zM165 106h6v10h-6zM177 106h6v10h-6zM183 106h6v10h-6zM201 106h6v10h-6zM201 126h6v10h-6zM183 136h6v10h-6zM177 136h6v10h-6zM165 136h6v10h-6zM147 116h6v10h-6z"/><path fill="#e7be00" d="M33 146h6v10h-6zM57 146h6v10h-6zM63 146h6v10h-6zM81 156h6v10h-6zM63 176h6v10h-6zM39 176h6v10h-6zM33 176h6v10h-6zM27 166h6v10h-6z"/><path fill="#e7be00" d="M93 146h6v10h-6zM117 146h6v10h-6zM129 146h6v10h-6zM141 146h6v10h-6zM141 156h6v10h-6zM141 166h6v10h-6zM141 176h6v10h-6zM135 176h6v10h-6zM129 176h6v10h-6zM111 176h6v10h-6zM93 176h6v10h-6zM87 176h6v10h-6zM87 166h6v10h-6z"/><path fill="#2f3fbf" d="M213 146h6v10h-6zM219 146h6v10h-6zM243 146h6v10h-6zM249 146h6v10h-6zM261 146h6v10h-6zM249 176h6v10h-6zM225 176h6v10h-6zM213 176h6v10h-6zM207 166h6v10h-6zM207 156h6v10h-6z"/><path fill="#2f3fbf" d="M33 186h6v10h-6zM39 186h6v10h-6zM69 186h6v10h-6zM75 186h6v10h-6zM81 196h6v10h-6zM81 206h6v10h-6zM81 216h6v10h-6zM63 216h6v10h-6zM51 216h6v10h-6zM45 216h6v10h-6zM27 216h6v10h-6zM27 196h6v10h-6z"/><path fill="#000000" d="M87 186h6v10h-6zM105 186h6v10h-6zM111 186h6v10h-6zM117 186h6v10h-6zM123 186h6v10h-6zM141 186h6v10h-6zM141 196h6v10h-6zM141 206h6v10h-6zM141 216h6v10h-6zM135 216h6v10h-6zM111 216h6v10h-6zM105 216h6v10h-6zM87 216h6v10h-6z"/><path fill="#ffffff" d="M159 186h6v10h-6zM171 186h6v10h-6zM177 186h6v10h-6zM183 186h6v10h-6zM195 186h6v10h-6zM201 196h6v10h-6zM201 206h6v10h-6zM201 216h6v10h-6zM171 216h6v10h-6zM147 206h6v10h-6zM147 196h6v10h-6z"/><path fill="#2f3fbf" d="M207 186h6v10h-6zM219 186h6v10h-6zM225 186h6v10h-6zM261 186h6v10h-6zM261 216h6v10h-6zM255 216h6v10h-6zM237 216h6v10h-6zM231 216h6v10h-6zM207 206h6v10h-6z"/><path fill="#2f3fbf" d="M51 226h6v10h-6zM57 226h6v10h-6zM63 226h6v10h-6zM81 256h6v10h-6zM69 256h6v10h-6zM45 256h6v10h-6zM33 256h6v10h-6zM27 256h6v10h-6zM27 246h6v10h-6zM27 236h6v10h-6z"/><path fill="#000000" d="M87 226h6v10h-6zM99 226h6v10h-6zM111 226h6v10h-6zM123 226h6v10h-6zM129 226h6v10h-6zM135 226h6v10h-6zM141 226h6v10h-6zM135 256h6v10h-6zM123 256h6v10h-6zM117 256h6v10h-6zM111 256h6v10h-6zM105 256h6v10h-6zM93 256h6v10h-6zM87 256h6v10h-6z"/><path fill="#000000" d="M153 226h6v10h-6zM165 226h6v10h-6zM171 226h6v10h-6zM177 226h6v10h-6zM189 226h6v10h-6zM201 226h6v10h-6zM201 236h6v10h-6zM183 256h6v10h-6zM177 256h6v10h-6zM171 256h6v10h-6zM165 256h6v10h-6zM153 256h6v10h-6zM147 236h6v10h-6z"/></g><g clip-path="url(#grid-clip-0106fa10b6909ac4-4x6)" data-channel="ellipse" data-ellipse-anchor-x="147" data-ellipse-anchor-y="186" data-ellipse-rx="68" data-ellipse-ry="116" data-ellipse-rotation-deg="36"><ellipse cx="147" cy="186" rx="68" ry="116" transform="rotate(36 147 186)" fill="#000000" stroke="#000000" fill-opacity="0.25" stroke-opacity="0.35" stroke-width="2"/></g><g><g data-channel="cell" data-cell-index="0" data-cell-row="0" data-cell-col="0" data-surround-bits="0x106fa" data-edge-color="#2f3fbf"><rect x="33" y="36" width="48" height="20" fill="#63227b"/><text x="57" y="46" fill="#ffffff" font-size="16" text-anchor="middle" dominant-baseline="central">eyJj</text></g><g data-channel="cell" data-cell-index="1" data-cell-row="0" data-cell-col="1" data-surround-bits="0x10b690" data-edge-color="#2f3fbf"><rect x="93" y="36" width="48" height="20" fill="#227672"/><text x="117" y="46" fill="#ffffff" font-size="16" text-anchor="middle" dominant-baseline="central">cnYi</text></g><g data-channel="cell" data-cell-index="2" data-cell-row="0" data-cell-col="2" data-surround-bits="0x9ac459" data-edge-color="#000000"><rect x="153" y="36" width="48" height="20" fill="#50223a"/><text x="177" y="46" fill="#ffffff" font-size="16" text-anchor="middle" dominant-baseline="central">OiJQ</text></g><g data-channel="cell" data-cell-index="3" data-cell-row="0" data-cell-col="3" data-cell-blank="true" data-cell-blank-map="true"><rect x="213" y="36" width="48" height="20" rx="10" ry="10" fill="#ffffff" stroke="#000000" stroke-width="1"/><circle cx="219" cy="37.667" r="3.5" fill="#1d4ed8" data-blank-map-min="0,0"/><path d="M 214.8,54.333 H 223.2 M 219,50.133 V 58.533" fill="none" stroke="#d62828" stroke-width="1.925" stroke-linecap="butt" data-blank-map-max="5,0"/></g><g data-channel="cell" data-cell-index="4" data-cell-row="1" data-cell-col="0" data-surround-bits="0xcab29a" data-edge-color="#000000"><rect x="33" y="76" width="48" height="20" fill="#35322d"/><text x="57" y="86" fill="#ffffff" font-size="16" text-anchor="middle" dominant-baseline="central">LTI1</text></g><g data-channel="cell" data-cell-index="5" data-cell-row="1" data-cell-col="1" data-surround-bits="0xb72cff" data-edge-color="#000000"><rect x="93" y="76" width="48" height="20" fill="#2c2236"/><text x="117" y="86" fill="#ffffff" font-size="16" text-anchor="middle" dominant-baseline="central">NiIs</text></g><g data-channel="cell" data-cell-index="6" data-cell-row="1" data-cell-col="2" data-surround-bits="0xc6a4ef" data-edge-color="#e7be00"><rect x="153" y="76" width="48" height="20" fill="#746b22"/><text x="177" y="86" fill="#ffffff" font-size="16" text-anchor="middle" dominant-baseline="central">Imt0</text></g><g data-channel="cell" data-cell-index="7" data-cell-row="1" data-cell-col="3" data-surround-bits="0xa49957" data-edge-color="#2f3fbf" data-cell-quartile="3"><rect x="213" y="76" width="48" height="20" fill="#3a2279"/><text x="237" y="86" fill="#ffffff" font-size="16" text-anchor="middle" dominant-baseline="central">eSI6</text><polygon points="261,96 261,86 251,96" fill="#ffffff"/></g><g data-channel="cell" data-cell-index="8" data-cell-row="2" data-cell-col="0" data-surround-bits="0x1527a6" data-edge-color="#000000"><rect x="33" y="116" width="48" height="20" fill="#434522"/><text x="57" y="126" fill="#ffffff" font-size="16" text-anchor="middle" dominant-baseline="central">IkVD</text></g><g data-channel="cell" data-cell-index="9" data-cell-row="2" data-cell-col="1" data-cell-fingerprint="true" data-surround-bits="0xa50fa" data-edge-color="#e7be00"><rect x="93" y="116" width="48" height="20" fill="#ff3f2f"/><rect x="93.5" y="116.5" width="47" height="19" fill="none" stroke="#ffffff" stroke-width="1"/><text x="117" y="126" fill="#000000" font-size="13.333" text-anchor="middle" dominant-baseline="central">3qeem</text></g><g data-channel="cell" data-cell-index="10" data-cell-row="2" data-cell-col="2" data-cell-fingerprint="true" data-surround-bits="0x858a69" data-edge-color="#e7be00"><rect x="153" y="116" width="48" height="20" fill="#ff3f2f"/><rect x="153.5" y="116.5" width="47" height="19" fill="none" stroke="#ffffff" stroke-width="1"/><text x="177" y="126" fill="#000000" font-size="13.333" text-anchor="middle" dominant-baseline="central">csew3</text></g><g data-channel="cell" data-cell-index="11" data-cell-row="2" data-cell-col="3" data-cell-blank="true"><rect x="213" y="116" width="48" height="20" rx="10" ry="10" fill="#2f3fbf" stroke="#000000" stroke-width="1"/></g><g data-channel="cell" data-cell-index="12" data-cell-row="3" data-cell-col="0" data-cell-fingerprint="true" data-surround-bits="0x588462" data-edge-color="#e7be00" data-cell-quartile="4"><rect x="33" y="156" width="48" height="20" fill="#ff3f2f"/><rect x="33.5" y="156.5" width="47" height="19" fill="none" stroke="#ffffff" stroke-width="1"/><text x="57" y="166" fill="#000000" font-size="13.333" text-anchor="middle" dominant-baseline="central">abvba</text><polygon points="33,176 33,166 43,176" fill="#000000"/></g><g data-channel="cell" data-cell-index="13" data-cell-row="3" data-cell-col="1" data-cell-fingerprint="true" data-surround-bits="0x727ea2" data-edge-color="#e7be00"><rect x="93" y="156" width="48" height="20" fill="#ff3f2f"/><rect x="93.5" y="156.5" width="47" height="19" fill="none" stroke="#ffffff" stroke-width="1"/><text x="117" y="166" fill="#000000" font-size="13.333" text-anchor="middle" dominant-baseline="central">2a7kx</text></g><g data-channel="cell" data-cell-index="14" data-cell-row="3" data-cell-col="2" data-cell-blank="true"><rect x="153" y="156" width="48" height="20" rx="10" ry="10" fill="#2f3fbf" stroke="#000000" stroke-width="1"/></g><g data-channel="cell" data-cell-index="15" data-cell-row="3" data-cell-col="3" data-surround-bits="0xd442c6" data-edge-color="#2f3fbf"><rect x="213" y="156" width="48" height="20" fill="#387a44"/><text x="237" y="166" fill="#ffffff" font-size="16" text-anchor="middle" dominant-baseline="central">RHo4</text></g><g data-channel="cell" data-cell-index="16" data-cell-row="4" data-cell-col="0" data-surround-bits="0xa69d86" data-edge-color="#2f3fbf" data-cell-quartile="2"><rect x="33" y="196" width="48" height="20" fill="#376677"/><text x="57" y="206" fill="#ffffff" font-size="16" text-anchor="middle" dominant-baseline="central">d2Y3</text><polygon points="81,196 71,196 81,206" fill="#ffffff"/></g><g data-channel="cell" data-cell-index="17" data-cell-row="4" data-cell-col="1" data-surround-bits="0x263e79" data-edge-color="#000000"><rect x="93" y="196" width="48" height="20" fill="#354934"/><text x="117" y="206" fill="#ffffff" font-size="16" text-anchor="middle" dominant-baseline="central">NEk1</text></g><g data-channel="cell" data-cell-index="18" data-cell-row="4" data-cell-col="2" data-surround-bits="0xc21d74" data-edge-color="#ffffff" data-cell-quartile="1"><rect x="153" y="196" width="48" height="20" fill="#674b4c"/><text x="177" y="206" fill="#ffffff" font-size="16" text-anchor="middle" dominant-baseline="central">TEtn</text><polygon points="153,196 163,196 153,206" fill="#ffffff"/></g><g data-channel="cell" data-cell-index="19" data-cell-row="4" data-cell-col="3" data-surround-bits="0x43320d" data-edge-color="#2f3fbf"><rect x="213" y="196" width="48" height="20" fill="#326c72"/><text x="237" y="206" fill="#ffffff" font-size="16" text-anchor="middle" dominant-baseline="central">cmwy</text></g><g data-channel="cell" data-cell-index="20" data-cell-row="5" data-cell-col="0" data-surround-bits="0xf45070" data-edge-color="#2f3fbf"><rect x="33" y="236" width="48" height="20" fill="#487a47"/><text x="57" y="246" fill="#ffffff" font-size="16" text-anchor="middle" dominant-baseline="central">R3pI</text></g><g data-channel="cell" data-cell-index="21" data-cell-row="5" data-cell-col="1" data-surround-bits="0x37a3d5" data-edge-color="#000000"><rect x="93" y="236" width="48" height="20" fill="#536e33"/><text x="117" y="246" fill="#ffffff" font-size="16" text-anchor="middle" dominant-baseline="central">M25T</text></g><g data-channel="cell" data-cell-index="22" data-cell-row="5" data-cell-col="2" data-surround-bits="0x9786ba" data-edge-color="#000000"><rect x="153" y="236" width="48" height="20" fill="#7d2245"/><text x="177" y="246" fill="#ffffff" font-size="16" text-anchor="middle" dominant-baseline="central">RSJ9</text></g><g data-channel="cell" data-cell-index="23" data-cell-row="5" data-cell-col="3" data-cell-blank="true"><rect x="213" y="236" width="48" height="20" rx="10" ry="10" fill="#2f3fbf" stroke="#000000" stroke-width="1"/></g></g></g><g data-channel="color-bar" data-bar-slots="16" data-bar-marker-left="6" data-bar-marker-right="15"><g data-color-bar-rank="0" data-color-bar-band="G"><rect x="1" y="1" width="20" height="87.288" fill="#e7be00"/><text x="11" y="84.768" fill="#000000" font-size="16" text-anchor="middle" data-color-bar-letter="true">g</text></g><g data-color-bar-rank="1" data-color-bar-band="W"><rect x="1" y="88.288" width="20" height="47.116" fill="#ffffff"/><text x="11" y="131.883" fill="#000000" font-size="16" text-anchor="middle" data-color-bar-letter="true">w</text></g><g data-color-bar-rank="2" data-color-bar-band="B"><rect x="1" y="135.403" width="20" height="109.015" fill="#2f3fbf"/><text x="11" y="240.899" fill="#ffffff" font-size="16" text-anchor="middle" data-color-bar-letter="true">b</text></g><g data-color-bar-rank="3" data-color-bar-band="K"><rect x="1" y="244.419" width="20" height="26.581" fill="#000000"/><text x="11" y="267.48" fill="#ffffff" font-size="16" text-anchor="middle" data-color-bar-letter="true">k</text></g><circle cx="5.6" cy="110.688" r="3.4" fill="#ffffff" stroke="#000000" stroke-width="0.75" data-bar-marker="left"/><circle cx="16.4" cy="262.562" r="3.4" fill="#ffffff" stroke="#000000" stroke-width="0.75" data-bar-marker="right"/></g><g data-channel="label-top"><text x="27" y="16" fill="#666666" font-size="12" dominant-baseline="central"><tspan fill="#a00000" font-weight="bold">fingerprint of </tspan>did:jwk:...</text></g><line x1="0" y1="0.5" x2="273" y2="0.5" stroke="#808080" stroke-width="1" shape-rendering="crispEdges"/><line x1="272.5" y1="0" x2="272.5" y2="272" stroke="#808080" stroke-width="1" shape-rendering="crispEdges"/><line x1="0" y1="271.5" x2="273" y2="271.5" stroke="#808080" stroke-width="1" shape-rendering="crispEdges"/><line x1="0.5" y1="0" x2="0.5" y2="272" stroke="#808080" stroke-width="1" shape-rendering="crispEdges"/><line x1="21.5" y1="0" x2="21.5" y2="272" stroke="#808080" stroke-width="1" shape-rendering="crispEdges"/></svg>