<svg width="275" height="274" viewBox="0 0 275 274" xmlns="http://www.w3.org/2000/svg" font-family="&quot;JetBrains Mono&quot;, &quot;Menlo&quot;, &quot;Consolas&quot;, &quot;DejaVu Sans Mono&quot;, &quot;Liberation Mono&quot;, &quot;Roboto Mono&quot;, &quot;Noto Sans Mono&quot;, monospace" data-entviz-version="v14" data-entviz-lib="0.14.0" data-input-bytes="176" data-cols="4" data-rows="6" data-truncated="true" data-encoding="base64url" data-scheme="did" data-role="identifier" data-size-basis="utf8" data-entropy-type="did" data-size-bits="1344" data-qualifiers="{&quot;method&quot;:&quot;jwk&quot;}" data-parts="[{&quot;text&quot;:&quot;did:jwk:&quot;,&quot;bind&quot;:&quot;fold&quot;},{&quot;text&quot;:&quot;eyJjcnYiOiJQLTI1NiIsImt0eSI6IkVDIiwieCI6ImFjYklRaXVNczNpOF91c3pFakoydHBUdFJNNEVVM3l6OTFQSDZDZEgyVjAiLCJ5IjoiX0tjeUxqOXZXTXB0bm1LdG00NkdxRHo4d2Y3NEk1TEtncmwyR3pIM25TRSJ9&quot;,&quot;bind&quot;:&quot;core&quot;}]"><defs><clipPath id="grid-clip-0106fa10b6909ac4-4x6"><rect x="28" y="27" width="240" height="240"/></clipPath></defs><rect x="1" y="1" width="273" height="272" fill="#ffffff"/><g data-channel="grid"><rect x="28" y="27" width="240" height="240" fill="#ff3f2f"/><g><path fill="#2f3fbf" d="M34 27h6v10h-6zM46 27h6v10h-6zM52 27h6v10h-6zM58 27h6v10h-6zM64 27h6v10h-6zM70 27h6v10h-6zM82 27h6v10h-6zM82 37h6v10h-6zM58 57h6v10h-6z"/><path fill="#2f3fbf" d="M112 27h6v10h-6zM130 27h6v10h-6zM142 27h6v10h-6zM142 37h6v10h-6zM142 57h6v10h-6zM136 57h6v10h-6zM124 57h6v10h-6zM94 57h6v10h-6z"/><path fill="#000000" d="M148 27h6v10h-6zM166 27h6v10h-6zM172 27h6v10h-6zM184 27h6v10h-6zM202 37h6v10h-6zM190 57h6v10h-6zM184 57h6v10h-6zM172 57h6v10h-6zM160 57h6v10h-6zM154 57h6v10h-6zM148 37h6v10h-6z"/><path fill="#000000" d="M34 67h6v10h-6zM46 67h6v10h-6zM52 67h6v10h-6zM70 67h6v10h-6zM82 67h6v10h-6zM82 97h6v10h-6zM76 97h6v10h-6zM64 97h6v10h-6zM52 97h6v10h-6zM40 97h6v10h-6zM28 87h6v10h-6zM28 77h6v10h-6z"/><path fill="#000000" d="M88 67h6v10h-6zM94 67h6v10h-6zM100 67h6v10h-6zM106 67h6v10h-6zM112 67h6v10h-6zM118 67h6v10h-6zM124 67h6v10h-6zM130 67h6v10h-6zM142 77h6v10h-6zM142 87h6v10h-6zM136 97h6v10h-6zM118 97h6v10h-6zM112 97h6v10h-6zM106 97h6v10h-6zM94 97h6v10h-6zM88 97h6v10h-6zM88 77h6v10h-6z"/><path fill="#e7be00" d="M148 67h6v10h-6zM154 67h6v10h-6zM160 67h6v10h-6zM166 67h6v10h-6zM178 67h6v10h-6zM184 67h6v10h-6zM190 67h6v10h-6zM202 77h6v10h-6zM196 97h6v10h-6zM184 97h6v10h-6zM172 97h6v10h-6zM166 97h6v10h-6zM148 87h6v10h-6zM148 77h6v10h-6z"/><path fill="#2f3fbf" d="M208 67h6v10h-6zM214 67h6v10h-6zM220 67h6v10h-6zM232 67h6v10h-6zM244 67h6v10h-6zM256 67h6v10h-6zM262 87h6v10h-6zM262 97h6v10h-6zM244 97h6v10h-6zM226 97h6v10h-6zM208 97h6v10h-6zM208 77h6v10h-6z"/><path fill="#000000" d="M34 107h6v10h-6zM40 107h6v10h-6zM58 107h6v10h-6zM70 107h6v10h-6zM76 107h6v10h-6zM82 107h6v10h-6zM82 117h6v10h-6zM76 137h6v10h-6zM58 137h6v10h-6zM46 137h6v10h-6zM34 137h6v10h-6z"/><path fill="#e7be00" d="M94 107h6v10h-6zM106 107h6v10h-6zM112 107h6v10h-6zM118 107h6v10h-6zM124 107h6v10h-6zM130 107h6v10h-6zM142 137h6v10h-6zM130 137h6v10h-6zM112 137h6v10h-6zM100 137h6v10h-6z"/><path fill="#e7be00" d="M148 107h6v10h-6zM166 107h6v10h-6zM178 107h6v10h-6zM184 107h6v10h-6zM202 107h6v10h-6zM202 127h6v10h-6zM184 137h6v10h-6zM178 137h6v10h-6zM166 137h6v10h-6zM148 117h6v10h-6z"/><path fill="#e7be00" d="M34 147h6v10h-6zM58 147h6v10h-6zM64 147h6v10h-6zM82 157h6v10h-6zM64 177h6v10h-6zM40 177h6v10h-6zM34 177h6v10h-6zM28 167h6v10h-6z"/><path fill="#e7be00" d="M94 147h6v10h-6zM118 147h6v10h-6zM130 147h6v10h-6zM142 147h6v10h-6zM142 157h6v10h-6zM142 167h6v10h-6zM142 177h6v10h-6zM136 177h6v10h-6zM130 177h6v10h-6zM112 177h6v10h-6zM94 177h6v10h-6zM88 177h6v10h-6zM88 167h6v10h-6z"/><path fill="#2f3fbf" d="M214 147h6v10h-6zM220 147h6v10h-6zM244 147h6v10h-6zM250 147h6v10h-6zM262 147h6v10h-6zM250 177h6v10h-6zM226 177h6v10h-6zM214 177h6v10h-6zM208 167h6v10h-6zM208 157h6v10h-6z"/><path fill="#2f3fbf" d="M34 187h6v10h-6zM40 187h6v10h-6zM70 187h6v10h-6zM76 187h6v10h-6zM82 197h6v10h-6zM82 207h6v10h-6zM82 217h6v10h-6zM64 217h6v10h-6zM52 217h6v10h-6zM46 217h6v10h-6zM28 217h6v10h-6zM28 197h6v10h-6z"/><path fill="#000000" d="M88 187h6v10h-6zM106 187h6v10h-6zM112 187h6v10h-6zM118 187h6v10h-6zM124 187h6v10h-6zM142 187h6v10h-6zM142 197h6v10h-6zM142 207h6v10h-6zM142 217h6v10h-6zM136 217h6v10h-6zM112 217h6v10h-6zM106 217h6v10h-6zM88 217h6v10h-6z"/><path fill="#ffffff" d="M160 187h6v10h-6zM172 187h6v10h-6zM178 187h6v10h-6zM184 187h6v10h-6zM196 187h6v10h-6zM202 197h6v10h-6zM202 207h6v10h-6zM202 217h6v10h-6zM172 217h6v10h-6zM148 207h6v10h-6zM148 197h6v10h-6z"/><path fill="#2f3fbf" d="M208 187h6v10h-6zM220 187h6v10h-6zM226 187h6v10h-6zM262 187h6v10h-6zM262 217h6v10h-6zM256 217h6v10h-6zM238 217h6v10h-6zM232 217h6v10h-6zM208 207h6v10h-6z"/><path fill="#2f3fbf" d="M52 227h6v10h-6zM58 227h6v10h-6zM64 227h6v10h-6zM82 257h6v10h-6zM70 257h6v10h-6zM46 257h6v10h-6zM34 257h6v10h-6zM28 257h6v10h-6zM28 247h6v10h-6zM28 237h6v10h-6z"/><path fill="#000000" d="M88 227h6v10h-6zM100 227h6v10h-6zM112 227h6v10h-6zM124 227h6v10h-6zM130 227h6v10h-6zM136 227h6v10h-6zM142 227h6v10h-6zM136 257h6v10h-6zM124 257h6v10h-6zM118 257h6v10h-6zM112 257h6v10h-6zM106 257h6v10h-6zM94 257h6v10h-6zM88 257h6v10h-6z"/><path fill="#000000" d="M154 227h6v10h-6zM166 227h6v10h-6zM172 227h6v10h-6zM178 227h6v10h-6zM190 227h6v10h-6zM202 227h6v10h-6zM202 237h6v10h-6zM184 257h6v10h-6zM178 257h6v10h-6zM172 257h6v10h-6zM166 257h6v10h-6zM154 257h6v10h-6zM148 237h6v10h-6z"/></g><g clip-path="url(#grid-clip-0106fa10b6909ac4-4x6)" data-channel="ellipse" data-ellipse-anchor-x="148" data-ellipse-anchor-y="187" data-ellipse-rx="68" data-ellipse-ry="116" data-ellipse-rotation-deg="36"><ellipse cx="148" cy="187" rx="68" ry="116" transform="rotate(36 148 187)" fill="#000000" stroke="#000000" fill-opacity="0.25" stroke-opacity="0.35" stroke-width="2"/></g><g><g data-channel="cell" data-cell-index="0" data-cell-row="0" data-cell-col="0" data-surround-bits="0x106fa" data-edge-color="#2f3fbf"><rect x="34" y="37" width="48" height="20" fill="#63227b"/><text x="58" y="47" fill="#ffffff" font-size="16" text-anchor="middle" dominant-baseline="central">eyJj</text></g><g data-channel="cell" data-cell-index="1" data-cell-row="0" data-cell-col="1" data-surround-bits="0x10b690" data-edge-color="#2f3fbf"><rect x="94" y="37" width="48" height="20" fill="#227672"/><text x="118" y="47" fill="#ffffff" font-size="16" text-anchor="middle" dominant-baseline="central">cnYi</text></g><g data-channel="cell" data-cell-index="2" data-cell-row="0" data-cell-col="2" data-surround-bits="0x9ac459" data-edge-color="#000000"><rect x="154" y="37" width="48" height="20" fill="#50223a"/><text x="178" y="47" fill="#ffffff" font-size="16" text-anchor="middle" dominant-baseline="central">OiJQ</text></g><g data-channel="cell" data-cell-index="3" data-cell-row="0" data-cell-col="3" data-cell-blank="true" data-cell-blank-map="true"><rect x="214" y="37" width="48" height="20" rx="10" ry="10" fill="#ffffff" stroke="#000000" stroke-width="1"/><circle cx="220" cy="38.667" r="3.5" fill="#1d4ed8" data-blank-map-min="0,0"/><path d="M 215.8,55.333 H 224.2 M 220,51.133 V 59.533" fill="none" stroke="#d62828" stroke-width="1.925" stroke-linecap="butt" data-blank-map-max="5,0"/></g><g data-channel="cell" data-cell-index="4" data-cell-row="1" data-cell-col="0" data-surround-bits="0xcab29a" data-edge-color="#000000"><rect x="34" y="77" width="48" height="20" fill="#35322d"/><text x="58" y="87" fill="#ffffff" font-size="16" text-anchor="middle" dominant-baseline="central">LTI1</text></g><g data-channel="cell" data-cell-index="5" data-cell-row="1" data-cell-col="1" data-surround-bits="0xb72cff" data-edge-color="#000000"><rect x="94" y="77" width="48" height="20" fill="#2c2236"/><text x="118" y="87" fill="#ffffff" font-size="16" text-anchor="middle" dominant-baseline="central">NiIs</text></g><g data-channel="cell" data-cell-index="6" data-cell-row="1" data-cell-col="2" data-surround-bits="0xc6a4ef" data-edge-color="#e7be00"><rect x="154" y="77" width="48" height="20" fill="#746b22"/><text x="178" y="87" fill="#ffffff" font-size="16" text-anchor="middle" dominant-baseline="central">Imt0</text></g><g data-channel="cell" data-cell-index="7" data-cell-row="1" data-cell-col="3" data-surround-bits="0xa49957" data-edge-color="#2f3fbf" data-cell-quartile="3"><rect x="214" y="77" width="48" height="20" fill="#3a2279"/><text x="238" y="87" fill="#ffffff" font-size="16" text-anchor="middle" dominant-baseline="central">eSI6</text><polygon points="262,97 262,87 252,97" fill="#ffffff"/></g><g data-channel="cell" data-cell-index="8" data-cell-row="2" data-cell-col="0" data-surround-bits="0x1527a6" data-edge-color="#000000"><rect x="34" y="117" width="48" height="20" fill="#434522"/><text x="58" y="127" fill="#ffffff" font-size="16" text-anchor="middle" dominant-baseline="central">IkVD</text></g><g data-channel="cell" data-cell-index="9" data-cell-row="2" data-cell-col="1" data-cell-fingerprint="true" data-surround-bits="0xa50fa" data-edge-color="#e7be00"><rect x="94" y="117" width="48" height="20" fill="#ff3f2f"/><rect x="94.5" y="117.5" width="47" height="19" fill="none" stroke="#ffffff" stroke-width="1"/><text x="118" y="127" fill="#000000" font-size="13.333" text-anchor="middle" dominant-baseline="central">3qeem</text></g><g data-channel="cell" data-cell-index="10" data-cell-row="2" data-cell-col="2" data-cell-fingerprint="true" data-surround-bits="0x858a69" data-edge-color="#e7be00"><rect x="154" y="117" width="48" height="20" fill="#ff3f2f"/><rect x="154.5" y="117.5" width="47" height="19" fill="none" stroke="#ffffff" stroke-width="1"/><text x="178" y="127" fill="#000000" font-size="13.333" text-anchor="middle" dominant-baseline="central">csew3</text></g><g data-channel="cell" data-cell-index="11" data-cell-row="2" data-cell-col="3" data-cell-blank="true"><rect x="214" y="117" width="48" height="20" rx="10" ry="10" fill="#2f3fbf" stroke="#000000" stroke-width="1"/></g><g data-channel="cell" data-cell-index="12" data-cell-row="3" data-cell-col="0" data-cell-fingerprint="true" data-surround-bits="0x588462" data-edge-color="#e7be00" data-cell-quartile="4"><rect x="34" y="157" width="48" height="20" fill="#ff3f2f"/><rect x="34.5" y="157.5" width="47" height="19" fill="none" stroke="#ffffff" stroke-width="1"/><text x="58" y="167" fill="#000000" font-size="13.333" text-anchor="middle" dominant-baseline="central">abvba</text><polygon points="34,177 34,167 44,177" fill="#000000"/></g><g data-channel="cell" data-cell-index="13" data-cell-row="3" data-cell-col="1" data-cell-fingerprint="true" data-surround-bits="0x727ea2" data-edge-color="#e7be00"><rect x="94" y="157" width="48" height="20" fill="#ff3f2f"/><rect x="94.5" y="157.5" width="47" height="19" fill="none" stroke="#ffffff" stroke-width="1"/><text x="118" y="167" fill="#000000" font-size="13.333" text-anchor="middle" dominant-baseline="central">2a7kx</text></g><g data-channel="cell" data-cell-index="14" data-cell-row="3" data-cell-col="2" data-cell-blank="true"><rect x="154" y="157" width="48" height="20" rx="10" ry="10" fill="#2f3fbf" stroke="#000000" stroke-width="1"/></g><g data-channel="cell" data-cell-index="15" data-cell-row="3" data-cell-col="3" data-surround-bits="0xd442c6" data-edge-color="#2f3fbf"><rect x="214" y="157" width="48" height="20" fill="#387a44"/><text x="238" y="167" fill="#ffffff" font-size="16" text-anchor="middle" dominant-baseline="central">RHo4</text></g><g data-channel="cell" data-cell-index="16" data-cell-row="4" data-cell-col="0" data-surround-bits="0xa69d86" data-edge-color="#2f3fbf" data-cell-quartile="2"><rect x="34" y="197" width="48" height="20" fill="#376677"/><text x="58" y="207" fill="#ffffff" font-size="16" text-anchor="middle" dominant-baseline="central">d2Y3</text><polygon points="82,197 72,197 82,207" fill="#ffffff"/></g><g data-channel="cell" data-cell-index="17" data-cell-row="4" data-cell-col="1" data-surround-bits="0x263e79" data-edge-color="#000000"><rect x="94" y="197" width="48" height="20" fill="#354934"/><text x="118" y="207" fill="#ffffff" font-size="16" text-anchor="middle" dominant-baseline="central">NEk1</text></g><g data-channel="cell" data-cell-index="18" data-cell-row="4" data-cell-col="2" data-surround-bits="0xc21d74" data-edge-color="#ffffff" data-cell-quartile="1"><rect x="154" y="197" width="48" height="20" fill="#674b4c"/><text x="178" y="207" fill="#ffffff" font-size="16" text-anchor="middle" dominant-baseline="central">TEtn</text><polygon points="154,197 164,197 154,207" fill="#ffffff"/></g><g data-channel="cell" data-cell-index="19" data-cell-row="4" data-cell-col="3" data-surround-bits="0x43320d" data-edge-color="#2f3fbf"><rect x="214" y="197" width="48" height="20" fill="#326c72"/><text x="238" y="207" fill="#ffffff" font-size="16" text-anchor="middle" dominant-baseline="central">cmwy</text></g><g data-channel="cell" data-cell-index="20" data-cell-row="5" data-cell-col="0" data-surround-bits="0xf45070" data-edge-color="#2f3fbf"><rect x="34" y="237" width="48" height="20" fill="#487a47"/><text x="58" y="247" fill="#ffffff" font-size="16" text-anchor="middle" dominant-baseline="central">R3pI</text></g><g data-channel="cell" data-cell-index="21" data-cell-row="5" data-cell-col="1" data-surround-bits="0x37a3d5" data-edge-color="#000000"><rect x="94" y="237" width="48" height="20" fill="#536e33"/><text x="118" y="247" fill="#ffffff" font-size="16" text-anchor="middle" dominant-baseline="central">M25T</text></g><g data-channel="cell" data-cell-index="22" data-cell-row="5" data-cell-col="2" data-surround-bits="0x9786ba" data-edge-color="#000000"><rect x="154" y="237" width="48" height="20" fill="#7d2245"/><text x="178" y="247" fill="#ffffff" font-size="16" text-anchor="middle" dominant-baseline="central">RSJ9</text></g><g data-channel="cell" data-cell-index="23" data-cell-row="5" data-cell-col="3" data-cell-blank="true"><rect x="214" y="237" width="48" height="20" rx="10" ry="10" fill="#2f3fbf" stroke="#000000" stroke-width="1"/></g></g></g><g data-channel="color-bar" data-bar-slots="16" data-bar-marker-left="6" data-bar-marker-right="15"><g data-color-bar-rank="0" data-color-bar-band="G"><rect x="2" y="2" width="20" height="87.288" fill="#e7be00"/><text x="12" y="85.768" fill="#000000" font-size="16" text-anchor="middle" data-color-bar-letter="true">g</text></g><g data-color-bar-rank="1" data-color-bar-band="W"><rect x="2" y="89.288" width="20" height="47.116" fill="#ffffff"/><text x="12" y="132.883" fill="#000000" font-size="16" text-anchor="middle" data-color-bar-letter="true">w</text></g><g data-color-bar-rank="2" data-color-bar-band="B"><rect x="2" y="136.403" width="20" height="109.015" fill="#2f3fbf"/><text x="12" y="241.899" fill="#ffffff" font-size="16" text-anchor="middle" data-color-bar-letter="true">b</text></g><g data-color-bar-rank="3" data-color-bar-band="K"><rect x="2" y="245.419" width="20" height="26.581" fill="#000000"/><text x="12" y="268.48" fill="#ffffff" font-size="16" text-anchor="middle" data-color-bar-letter="true">k</text></g><circle cx="6.6" cy="111.688" r="3.4" fill="#ffffff" stroke="#000000" stroke-width="0.75" data-bar-marker="left"/><circle cx="17.4" cy="263.562" r="3.4" fill="#ffffff" stroke="#000000" stroke-width="0.75" data-bar-marker="right"/></g><g data-channel="label-top"><text x="28" y="17" fill="#666666" font-size="12" dominant-baseline="central"><tspan fill="#a00000" font-weight="bold">fingerprint of </tspan>did:jwk</text></g><line x1="1" y1="1.5" x2="274" y2="1.5" stroke="#808080" stroke-width="1" shape-rendering="crispEdges"/><line x1="273.5" y1="1" x2="273.5" y2="273" stroke="#808080" stroke-width="1" shape-rendering="crispEdges"/><line x1="1" y1="272.5" x2="274" y2="272.5" stroke="#808080" stroke-width="1" shape-rendering="crispEdges"/><line x1="1.5" y1="1" x2="1.5" y2="273" stroke="#808080" stroke-width="1" shape-rendering="crispEdges"/><line x1="22.5" y1="1" x2="22.5" y2="273" stroke="#808080" stroke-width="1" shape-rendering="crispEdges"/></svg>