<svg width="155" height="154" viewBox="0 0 155 154" xmlns="http://www.w3.org/2000/svg" font-family="&quot;JetBrains Mono&quot;, &quot;Menlo&quot;, &quot;Consolas&quot;, &quot;DejaVu Sans Mono&quot;, &quot;Liberation Mono&quot;, &quot;Roboto Mono&quot;, &quot;Noto Sans Mono&quot;, monospace" data-entviz-version="v15" data-entviz-lib="0.15.0" data-input-bytes="29" data-cols="2" data-rows="3" data-encoding="base64url" data-scheme="urn" data-role="identifier" data-size-basis="utf8" data-entropy-type="urn" data-size-bits="168" data-qualifiers="{&quot;nid&quot;:&quot;oid&quot;}" data-parts="[{&quot;text&quot;:&quot;urn:oid:&quot;,&quot;bind&quot;:&quot;fold&quot;},{&quot;text&quot;:&quot;2.16.840.1.113883.6.1&quot;,&quot;bind&quot;:&quot;core&quot;}]"><defs><clipPath id="grid-clip-dd810753343f5b66-2x3"><rect x="28" y="27" width="120" height="120"/></clipPath></defs><rect x="1" y="1" width="153" height="152" fill="#ffffff"/><g data-channel="grid"><rect x="28" y="27" width="120" height="120" fill="#2f3fbf"/><g><path fill="#000000" d="M28 27h6v10h-6zM34 27h6v10h-6zM40 27h6v10h-6zM76 27h6v10h-6zM64 57h6v10h-6zM58 57h6v10h-6zM46 57h6v10h-6zM40 57h6v10h-6zM34 57h6v10h-6zM28 47h6v10h-6zM28 37h6v10h-6z"/><path fill="#e7be00" d="M88 27h6v10h-6zM94 27h6v10h-6zM100 27h6v10h-6zM106 27h6v10h-6zM112 27h6v10h-6zM118 27h6v10h-6zM142 37h6v10h-6zM142 57h6v10h-6zM136 57h6v10h-6zM118 57h6v10h-6zM112 57h6v10h-6zM94 57h6v10h-6zM88 47h6v10h-6z"/><path fill="#000000" d="M28 67h6v10h-6zM40 67h6v10h-6zM58 67h6v10h-6zM82 67h6v10h-6zM82 77h6v10h-6zM76 97h6v10h-6zM70 97h6v10h-6zM58 97h6v10h-6zM52 97h6v10h-6zM40 97h6v10h-6zM34 97h6v10h-6zM28 87h6v10h-6z"/><path fill="#000000" d="M88 67h6v10h-6zM94 67h6v10h-6zM100 67h6v10h-6zM106 67h6v10h-6zM124 67h6v10h-6zM136 67h6v10h-6zM142 67h6v10h-6zM142 97h6v10h-6zM112 97h6v10h-6zM106 97h6v10h-6zM94 97h6v10h-6zM88 97h6v10h-6zM88 87h6v10h-6zM88 77h6v10h-6z"/><path fill="#ff3f2f" d="M28 107h6v10h-6zM34 107h6v10h-6zM40 107h6v10h-6zM46 107h6v10h-6zM64 107h6v10h-6zM70 107h6v10h-6zM76 107h6v10h-6zM82 107h6v10h-6zM82 127h6v10h-6zM76 137h6v10h-6zM64 137h6v10h-6zM52 137h6v10h-6zM46 137h6v10h-6zM40 137h6v10h-6zM28 137h6v10h-6zM28 127h6v10h-6z"/><path fill="#ff3f2f" d="M100 107h6v10h-6zM106 107h6v10h-6zM124 107h6v10h-6zM136 107h6v10h-6zM142 107h6v10h-6zM142 117h6v10h-6zM142 137h6v10h-6zM118 137h6v10h-6zM106 137h6v10h-6zM88 127h6v10h-6zM88 117h6v10h-6z"/></g><g clip-path="url(#grid-clip-dd810753343f5b66-2x3)" data-channel="ellipse" data-ellipse-anchor-x="28" data-ellipse-anchor-y="147" data-ellipse-rx="78.065" data-ellipse-ry="78.065" data-ellipse-rotation-deg="132"><ellipse cx="28" cy="147" rx="78.065" ry="78.065" transform="rotate(132 28 147)" fill="#ffffff" stroke="#ffffff" fill-opacity="0.35" stroke-opacity="0.45" stroke-width="2"/></g><g><g data-channel="cell" data-cell-index="0" data-cell-row="0" data-cell-col="0" data-surround-bits="0xdd8107" data-edge-color="#000000" data-cell-quartile="1"><rect x="34" y="37" width="48" height="20" fill="#7a0dd8"/><text x="58" y="47" fill="#ffffff" font-size="16" text-anchor="middle" dominant-baseline="central">2.16</text><polygon points="34,37 44,37 34,47" fill="#ffffff"/></g><g data-channel="cell" data-cell-index="1" data-cell-row="0" data-cell-col="1" data-surround-bits="0x53343f" data-edge-color="#e7be00" data-cell-quartile="3"><rect x="94" y="37" width="48" height="20" fill="#34ce03"/><text x="118" y="47" fill="#000000" font-size="16" text-anchor="middle" dominant-baseline="central">.840</text><polygon points="142,57 142,47 132,57" fill="#000000"/></g><g data-channel="cell" data-cell-index="2" data-cell-row="1" data-cell-col="0" data-surround-bits="0x5b6625" data-edge-color="#000000"><rect x="34" y="77" width="48" height="20" fill="#355003"/><text x="58" y="87" fill="#ffffff" font-size="16" text-anchor="middle" dominant-baseline="central">.1.1</text></g><g data-channel="cell" data-cell-index="3" data-cell-row="1" data-cell-col="1" data-surround-bits="0xf6134f" data-edge-color="#000000" data-cell-quartile="2"><rect x="94" y="77" width="48" height="20" fill="#3c7fd7"/><text x="118" y="87" fill="#ffffff" font-size="16" text-anchor="middle" dominant-baseline="central">1388</text><polygon points="142,77 132,77 142,87" fill="#ffffff"/></g><g data-channel="cell" data-cell-index="4" data-cell-row="2" data-cell-col="0" data-surround-bits="0x6eabcf" data-edge-color="#ff3f2f"><rect x="34" y="117" width="48" height="20" fill="#800edc"/><text x="58" y="127" fill="#ffffff" font-size="16" text-anchor="middle" dominant-baseline="central">3.6.</text></g><g data-channel="cell" data-cell-index="5" data-cell-row="2" data-cell-col="1" data-surround-bits="0xc5174c" data-edge-color="#ff3f2f"><rect x="94" y="117" width="48" height="20" fill="#755dd7"/><text x="118" y="127" fill="#ffffff" font-size="16" text-anchor="middle" dominant-baseline="central">1</text></g></g></g><g data-channel="color-bar" data-bar-slots="12" data-bar-marker-left="10" data-bar-marker-right="8"><g data-color-bar-rank="0" data-color-bar-band="G"><rect x="2" y="2" width="20" height="52.665" fill="#e7be00"/><text x="12" y="51.145" fill="#000000" font-size="16" text-anchor="middle" data-color-bar-letter="true">g</text></g><g data-color-bar-rank="1" data-color-bar-band="K"><rect x="2" y="54.665" width="20" height="34.553" fill="#000000"/><text x="12" y="85.698" fill="#ffffff" font-size="16" text-anchor="middle" data-color-bar-letter="true">k</text></g><g data-color-bar-rank="2" data-color-bar-band="W"><rect x="2" y="89.218" width="20" height="30.37" fill="#ffffff"/><text x="12" y="116.069" fill="#000000" font-size="16" text-anchor="middle" data-color-bar-letter="true">w</text></g><g data-color-bar-rank="3" data-color-bar-band="R"><rect x="2" y="119.589" width="20" height="32.411" fill="#ff3f2f"/><text x="12" y="148.48" fill="#000000" font-size="16" text-anchor="middle" data-color-bar-letter="true">r</text></g><circle cx="6.6" cy="133.25" r="3.4" fill="#ffffff" stroke="#000000" stroke-width="0.75" data-bar-marker="left"/><circle cx="17.4" cy="108.25" r="3.4" fill="#ffffff" stroke="#000000" stroke-width="0.75" data-bar-marker="right"/></g><g data-channel="label-top"><text x="28" y="17" fill="#666666" font-size="12" dominant-baseline="central">urn:oid</text></g><line x1="1" y1="1.5" x2="154" y2="1.5" stroke="#808080" stroke-width="1" shape-rendering="crispEdges"/><line x1="153.5" y1="1" x2="153.5" y2="153" stroke="#808080" stroke-width="1" shape-rendering="crispEdges"/><line x1="1" y1="152.5" x2="154" y2="152.5" stroke="#808080" stroke-width="1" shape-rendering="crispEdges"/><line x1="1.5" y1="1" x2="1.5" y2="153" stroke="#808080" stroke-width="1" shape-rendering="crispEdges"/><line x1="22.5" y1="1" x2="22.5" y2="153" stroke="#808080" stroke-width="1" shape-rendering="crispEdges"/></svg>