<svg width="147.0" height="94.0" xmlns="http://www.w3.org/2000/svg"><defs data-v3-clip-seq="3"><clipPath id="grid-clip"><rect x="14.0" y="5.0" width="128.0" height="64.0"/></clipPath><linearGradient id="g0" gradientUnits="userSpaceOnUse" x1="98.0" y1="13.0" x2="98.0" y2="5.0"><stop offset="0%" stop-color="#9de675"/><stop offset="100%" stop-color="#000000"/></linearGradient><linearGradient id="g1" gradientUnits="userSpaceOnUse" x1="122.0" y1="13.0" x2="122.0" y2="5.0"><stop offset="0%" stop-color="#9de675"/><stop offset="100%" stop-color="#ff3f2f"/></linearGradient><linearGradient id="g2" gradientUnits="userSpaceOnUse" x1="134.0" y1="21.0" x2="142.0" y2="21.0"><stop offset="0%" stop-color="#9de675"/><stop offset="100%" stop-color="#ffffff"/></linearGradient><clipPath id="v3clip-0"><rect x="134.0" y="13.0" width="8.0" height="16.0"/></clipPath><linearGradient id="g3" gradientUnits="userSpaceOnUse" x1="122.0" y1="29.0" x2="122.0" y2="37.0"><stop offset="0%" stop-color="#9de675"/><stop offset="100%" stop-color="#ffffff"/></linearGradient><linearGradient id="g4" gradientUnits="userSpaceOnUse" x1="98.0" y1="29.0" x2="98.0" y2="37.0"><stop offset="0%" stop-color="#9de675"/><stop offset="100%" stop-color="#ffd966"/></linearGradient><linearGradient id="g5" gradientUnits="userSpaceOnUse" x1="86.0" y1="21.0" x2="78.0" y2="21.0"><stop offset="0%" stop-color="#9de675"/><stop offset="100%" stop-color="#ffffff"/></linearGradient><clipPath id="v3clip-1"><rect x="78.0" y="13.0" width="8.0" height="16.0"/></clipPath><linearGradient id="g6" gradientUnits="userSpaceOnUse" x1="98.0" y1="45.0" x2="98.0" y2="37.0"><stop offset="0%" stop-color="#9fe76d"/><stop offset="100%" stop-color="#ff3f2f"/></linearGradient><linearGradient id="g7" gradientUnits="userSpaceOnUse" x1="134.0" y1="53.0" x2="142.0" y2="53.0"><stop offset="0%" stop-color="#9fe76d"/><stop offset="100%" stop-color="#000000"/></linearGradient><clipPath id="v3clip-2"><rect x="134.0" y="45.0" width="8.0" height="16.0"/></clipPath><linearGradient id="g8" gradientUnits="userSpaceOnUse" x1="122.0" y1="61.0" x2="122.0" y2="69.0"><stop offset="0%" stop-color="#9fe76d"/><stop offset="100%" stop-color="#ffd966"/></linearGradient><linearGradient id="g9" gradientUnits="userSpaceOnUse" x1="98.0" y1="61.0" x2="98.0" y2="69.0"><stop offset="0%" stop-color="#9fe76d"/><stop offset="100%" stop-color="#ffd966"/></linearGradient></defs><rect x="0" y="0" width="147.0" height="94.0" fill="#ffffff"/><rect x="14.0" y="5.0" width="128.0" height="64.0" fill="#2f3fbf"/><g><title>C3</title><path d="M16,0 L20,0 L20,8 L16,8 L16,6 L12,6 L12,4 L16,4 Z M0,6 L2,6 L2,8 L0,8 Z" transform="translate(86.0, 5.0) scale(1.0)" fill="url(#g0)" fill-rule="evenodd"/></g><g><title>C1</title><path d="M0,8 L0,6 L2,6 L2,0 L8,0 L8,8 L6,8 L6,4 L4,4 L4,8 Z M12,4 L14,4 L14,8 L12,8 Z M22,4 L24,4 L24,8 L22,8 Z" transform="translate(110.0, 5.0) scale(1.0)" fill="url(#g1)" fill-rule="evenodd"/></g><g><title>C3</title><g clip-path="url(#v3clip-0)"><path d="M16,0 L20,0 L20,8 L16,8 L16,6 L12,6 L12,4 L16,4 Z M0,6 L2,6 L2,8 L0,8 Z" transform="translate(138.0, 13.0) rotate(90 4.0 0.0) scale(1.0)" fill="url(#g2)" fill-rule="evenodd"/></g></g><g><title>C1</title><path d="M0,8 L0,6 L2,6 L2,0 L8,0 L8,8 L6,8 L6,4 L4,4 L4,8 Z M12,4 L14,4 L14,8 L12,8 Z M22,4 L24,4 L24,8 L22,8 Z" transform="translate(110.0, 29.0) rotate(180 12.0 4.0) scale(1.0)" fill="url(#g3)" fill-rule="evenodd"/></g><g><title>C1</title><path d="M0,8 L0,6 L2,6 L2,0 L8,0 L8,8 L6,8 L6,4 L4,4 L4,8 Z M12,4 L14,4 L14,8 L12,8 Z M22,4 L24,4 L24,8 L22,8 Z" transform="translate(86.0, 29.0) rotate(180 12.0 4.0) scale(1.0)" fill="url(#g4)" fill-rule="evenodd"/></g><g><title>C1</title><g clip-path="url(#v3clip-1)"><path d="M0,8 L0,6 L2,6 L2,0 L8,0 L8,8 L6,8 L6,4 L4,4 L4,8 Z M12,4 L14,4 L14,8 L12,8 Z M22,4 L24,4 L24,8 L22,8 Z" transform="translate(76.0, 29.0) rotate(270 2.0 0.0) scale(1.0)" fill="url(#g5)" fill-rule="evenodd"/></g></g><g><title>C3</title><path d="M16,0 L20,0 L20,8 L16,8 L16,6 L12,6 L12,4 L16,4 Z M0,6 L2,6 L2,8 L0,8 Z" transform="translate(86.0, 37.0) scale(1.0)" fill="url(#g6)" fill-rule="evenodd"/></g><g><title>C1</title><g clip-path="url(#v3clip-2)"><path d="M0,8 L0,6 L2,6 L2,0 L8,0 L8,8 L6,8 L6,4 L4,4 L4,8 Z M12,4 L14,4 L14,8 L12,8 Z M22,4 L24,4 L24,8 L22,8 Z" transform="translate(140.0, 45.0) rotate(90 2.0 0.0) scale(1.0)" fill="url(#g7)" fill-rule="evenodd"/></g></g><g><title>C3</title><path d="M16,0 L20,0 L20,8 L16,8 L16,6 L12,6 L12,4 L16,4 Z M0,6 L2,6 L2,8 L0,8 Z" transform="translate(110.0, 61.0) rotate(180 12.0 4.0) scale(1.0)" fill="url(#g8)" fill-rule="evenodd"/></g><g><title>C2</title><path d="M0,8 L0,2 L4,2 L4,4 L6,4 L6,8 L10,8 L10,2 L10,0 L24,0 L24,8 Z M18,0 L20,0 L20,4 L18,4 Z M14,0 L16,0 L16,2 L14,2 Z" transform="translate(86.0, 61.0) rotate(180 12.0 4.0) scale(1.0)" fill="url(#g9)" fill-rule="evenodd"/></g><rect x="86.0" y="13.0" width="48.0" height="16.0" fill="#9de675"/><text x="110.0" y="21.0" fill="#000000" style="font-family: monospace; font-size: 16.0px;" text-anchor="middle" dominant-baseline="central">dead</text><rect x="86.0" y="45.0" width="48.0" height="16.0" fill="#9fe76d"/><text x="110.0" y="53.0" fill="#000000" style="font-family: monospace; font-size: 16.0px;" text-anchor="middle" dominant-baseline="central">beef</text><circle cx="80.0" cy="7.0" r="2.0" fill="#ffffff"/><circle cx="140.0" cy="39.0" r="2.0" fill="#ffd966"/><rect x="1" y="1" width="8.0" height="38.41237113402062" fill="#ffffff"/><rect x="1" y="39.41237113402062" width="8.0" height="38.41237113402062" fill="#ffd966"/><rect x="1" y="77.82474226804123" width="8.0" height="7.587628865979381" fill="#ff3f2f"/><rect x="1" y="85.41237113402062" width="8.0" height="7.587628865979383" fill="#000000"/><text x="142.0" y="81.0" fill="#444444" style="font-family: monospace; font-size: 14.666666666666666px;" text-anchor="end" dominant-baseline="central">105 304 201</text><line x1="0" y1="0" x2="146.0" y2="0" stroke="#000000" stroke-width="1"/><line x1="146.0" y1="0" x2="146.0" y2="93.0" stroke="#000000" stroke-width="1"/><line x1="0" y1="93.0" x2="146.0" y2="93.0" stroke="#000000" stroke-width="1"/><line x1="0" y1="0" x2="0" y2="93.0" stroke="#000000" stroke-width="1"/><line x1="9.0" y1="0" x2="9.0" y2="93.0" stroke="#000000" stroke-width="1"/></svg>