<svg width="147.0" height="158.0" xmlns="http://www.w3.org/2000/svg"><defs data-v3-clip-seq="9"><clipPath id="grid-clip"><rect x="14.0" y="5.0" width="128.0" height="128.0"/></clipPath><linearGradient id="g0" gradientUnits="userSpaceOnUse" x1="34.0" y1="13.0" x2="34.0" y2="5.0"><stop offset="0%" stop-color="#1e9de7"/><stop offset="100%" stop-color="#ffffff"/></linearGradient><linearGradient id="g1" gradientUnits="userSpaceOnUse" x1="58.0" y1="13.0" x2="58.0" y2="5.0"><stop offset="0%" stop-color="#1e9de7"/><stop offset="100%" stop-color="#ffd966"/></linearGradient><linearGradient id="g2" gradientUnits="userSpaceOnUse" x1="70.0" y1="21.0" x2="78.0" y2="21.0"><stop offset="0%" stop-color="#1e9de7"/><stop offset="100%" stop-color="#000000"/></linearGradient><clipPath id="v3clip-0"><rect x="70.0" y="13.0" width="8.0" height="16.0"/></clipPath><linearGradient id="g3" gradientUnits="userSpaceOnUse" x1="58.0" y1="29.0" x2="58.0" y2="37.0"><stop offset="0%" stop-color="#1e9de7"/><stop offset="100%" stop-color="#ffd966"/></linearGradient><linearGradient id="g4" gradientUnits="userSpaceOnUse" x1="34.0" y1="29.0" x2="34.0" y2="37.0"><stop offset="0%" stop-color="#1e9de7"/><stop offset="100%" stop-color="#ffd966"/></linearGradient><linearGradient id="g5" gradientUnits="userSpaceOnUse" x1="98.0" y1="13.0" x2="98.0" y2="5.0"><stop offset="0%" stop-color="#348df3"/><stop offset="100%" stop-color="#ffffff"/></linearGradient><linearGradient id="g6" gradientUnits="userSpaceOnUse" x1="122.0" y1="29.0" x2="122.0" y2="37.0"><stop offset="0%" stop-color="#348df3"/><stop offset="100%" stop-color="#ff3f2f"/></linearGradient><linearGradient id="g7" gradientUnits="userSpaceOnUse" x1="86.0" y1="21.0" x2="78.0" y2="21.0"><stop offset="0%" stop-color="#348df3"/><stop offset="100%" stop-color="#000000"/></linearGradient><clipPath id="v3clip-1"><rect x="78.0" y="13.0" width="8.0" height="16.0"/></clipPath><linearGradient id="g8" gradientUnits="userSpaceOnUse" x1="34.0" y1="45.0" x2="34.0" y2="37.0"><stop offset="0%" stop-color="#5b6f7b"/><stop offset="100%" stop-color="#ff3f2f"/></linearGradient><linearGradient id="g9" gradientUnits="userSpaceOnUse" x1="70.0" y1="53.0" x2="78.0" y2="53.0"><stop offset="0%" stop-color="#5b6f7b"/><stop offset="100%" stop-color="#ffd966"/></linearGradient><clipPath id="v3clip-2"><rect x="70.0" y="45.0" width="8.0" height="16.0"/></clipPath><linearGradient id="g10" gradientUnits="userSpaceOnUse" x1="34.0" y1="61.0" x2="34.0" y2="69.0"><stop offset="0%" stop-color="#5b6f7b"/><stop offset="100%" stop-color="#ffd966"/></linearGradient><linearGradient id="g11" gradientUnits="userSpaceOnUse" x1="122.0" y1="45.0" x2="122.0" y2="37.0"><stop offset="0%" stop-color="#7857e3"/><stop offset="100%" stop-color="#000000"/></linearGradient><linearGradient id="g12" gradientUnits="userSpaceOnUse" x1="134.0" y1="53.0" x2="142.0" y2="53.0"><stop offset="0%" stop-color="#7857e3"/><stop offset="100%" stop-color="#ffffff"/></linearGradient><clipPath id="v3clip-3"><rect x="134.0" y="45.0" width="8.0" height="16.0"/></clipPath><linearGradient id="g13" gradientUnits="userSpaceOnUse" x1="122.0" y1="61.0" x2="122.0" y2="69.0"><stop offset="0%" stop-color="#7857e3"/><stop offset="100%" stop-color="#000000"/></linearGradient><linearGradient id="g14" gradientUnits="userSpaceOnUse" x1="34.0" y1="77.0" x2="34.0" y2="69.0"><stop offset="0%" stop-color="#7abd6b"/><stop offset="100%" stop-color="#ffd966"/></linearGradient><linearGradient id="g15" gradientUnits="userSpaceOnUse" x1="58.0" y1="77.0" x2="58.0" y2="69.0"><stop offset="0%" stop-color="#7abd6b"/><stop offset="100%" stop-color="#ffd966"/></linearGradient><linearGradient id="g16" gradientUnits="userSpaceOnUse" x1="70.0" y1="85.0" x2="78.0" y2="85.0"><stop offset="0%" stop-color="#7abd6b"/><stop offset="100%" stop-color="#000000"/></linearGradient><clipPath id="v3clip-4"><rect x="70.0" y="77.0" width="8.0" height="16.0"/></clipPath><linearGradient id="g17" gradientUnits="userSpaceOnUse" x1="58.0" y1="93.0" x2="58.0" y2="101.0"><stop offset="0%" stop-color="#7abd6b"/><stop offset="100%" stop-color="#ffd966"/></linearGradient><linearGradient id="g18" gradientUnits="userSpaceOnUse" x1="98.0" y1="77.0" x2="98.0" y2="69.0"><stop offset="0%" stop-color="#ba8ee3"/><stop offset="100%" stop-color="#000000"/></linearGradient><linearGradient id="g19" gradientUnits="userSpaceOnUse" x1="122.0" y1="77.0" x2="122.0" y2="69.0"><stop offset="0%" stop-color="#ba8ee3"/><stop offset="100%" stop-color="#ffd966"/></linearGradient><linearGradient id="g20" gradientUnits="userSpaceOnUse" x1="134.0" y1="85.0" x2="142.0" y2="85.0"><stop offset="0%" stop-color="#ba8ee3"/><stop offset="100%" stop-color="#ff3f2f"/></linearGradient><clipPath id="v3clip-5"><rect x="134.0" y="77.0" width="8.0" height="16.0"/></clipPath><linearGradient id="g21" gradientUnits="userSpaceOnUse" x1="122.0" y1="93.0" x2="122.0" y2="101.0"><stop offset="0%" stop-color="#ba8ee3"/><stop offset="100%" stop-color="#ffffff"/></linearGradient><linearGradient id="g22" gradientUnits="userSpaceOnUse" x1="98.0" y1="93.0" x2="98.0" y2="101.0"><stop offset="0%" stop-color="#ba8ee3"/><stop offset="100%" stop-color="#ff3f2f"/></linearGradient><linearGradient id="g23" gradientUnits="userSpaceOnUse" x1="86.0" y1="85.0" x2="78.0" y2="85.0"><stop offset="0%" stop-color="#ba8ee3"/><stop offset="100%" stop-color="#ff3f2f"/></linearGradient><clipPath id="v3clip-6"><rect x="78.0" y="77.0" width="8.0" height="16.0"/></clipPath><linearGradient id="g24" gradientUnits="userSpaceOnUse" x1="34.0" y1="109.0" x2="34.0" y2="101.0"><stop offset="0%" stop-color="#389ee7"/><stop offset="100%" stop-color="#000000"/></linearGradient><linearGradient id="g25" gradientUnits="userSpaceOnUse" x1="58.0" y1="109.0" x2="58.0" y2="101.0"><stop offset="0%" stop-color="#389ee7"/><stop offset="100%" stop-color="#ff3f2f"/></linearGradient><linearGradient id="g26" gradientUnits="userSpaceOnUse" x1="58.0" y1="125.0" x2="58.0" y2="133.0"><stop offset="0%" stop-color="#389ee7"/><stop offset="100%" stop-color="#ffffff"/></linearGradient><linearGradient id="g27" gradientUnits="userSpaceOnUse" x1="34.0" y1="125.0" x2="34.0" y2="133.0"><stop offset="0%" stop-color="#389ee7"/><stop offset="100%" stop-color="#ffffff"/></linearGradient><linearGradient id="g28" gradientUnits="userSpaceOnUse" x1="22.0" y1="117.0" x2="14.0" y2="117.0"><stop offset="0%" stop-color="#389ee7"/><stop offset="100%" stop-color="#ffffff"/></linearGradient><clipPath id="v3clip-7"><rect x="14.0" y="109.0" width="8.0" height="16.0"/></clipPath><linearGradient id="g29" gradientUnits="userSpaceOnUse" x1="98.0" y1="109.0" x2="98.0" y2="101.0"><stop offset="0%" stop-color="#354dd3"/><stop offset="100%" stop-color="#ff3f2f"/></linearGradient><linearGradient id="g30" gradientUnits="userSpaceOnUse" x1="122.0" y1="109.0" x2="122.0" y2="101.0"><stop offset="0%" stop-color="#354dd3"/><stop offset="100%" stop-color="#ffffff"/></linearGradient><linearGradient id="g31" gradientUnits="userSpaceOnUse" x1="134.0" y1="117.0" x2="142.0" y2="117.0"><stop offset="0%" stop-color="#354dd3"/><stop offset="100%" stop-color="#ff3f2f"/></linearGradient><clipPath id="v3clip-8"><rect x="134.0" y="109.0" width="8.0" height="16.0"/></clipPath><linearGradient id="g32" gradientUnits="userSpaceOnUse" x1="122.0" y1="125.0" x2="122.0" y2="133.0"><stop offset="0%" stop-color="#354dd3"/><stop offset="100%" stop-color="#ffffff"/></linearGradient><linearGradient id="g33" gradientUnits="userSpaceOnUse" x1="98.0" y1="125.0" x2="98.0" y2="133.0"><stop offset="0%" stop-color="#354dd3"/><stop offset="100%" stop-color="#ffd966"/></linearGradient></defs><rect x="0" y="0" width="147.0" height="158.0" fill="#ffffff"/><rect x="14.0" y="5.0" width="128.0" height="128.0" fill="#2f3fbf"/><g><title>P1</title><path d="M0,8 L0,4 L3,3 L4,0 L12,0 L16,8 Z" transform="translate(22.0, 5.0) scale(1.0)" fill="url(#g0)" fill-rule="evenodd"/></g><g><title>P2</title><path d="M16,0 L12,4 L8,8 L14,8 L18,0 L22,8 L24,8 L24,4 L20,0 Z" transform="translate(46.0, 5.0) scale(1.0)" fill="url(#g1)" fill-rule="evenodd"/></g><g><title>P2</title><g clip-path="url(#v3clip-0)"><path d="M16,0 L12,4 L8,8 L14,8 L18,0 L22,8 L24,8 L24,4 L20,0 Z" transform="translate(70.0, 13.0) rotate(90 8.0 0.0) scale(1.0)" fill="url(#g2)" fill-rule="evenodd"/></g></g><g><title>P2</title><path d="M16,0 L12,4 L8,8 L14,8 L18,0 L22,8 L24,8 L24,4 L20,0 Z" transform="translate(46.0, 29.0) rotate(180 12.0 4.0) scale(1.0)" fill="url(#g3)" fill-rule="evenodd"/></g><g><title>P2</title><path d="M16,0 L12,4 L8,8 L14,8 L18,0 L22,8 L24,8 L24,4 L20,0 Z" transform="translate(22.0, 29.0) rotate(180 12.0 4.0) scale(1.0)" fill="url(#g4)" fill-rule="evenodd"/></g><g><title>P2</title><path d="M16,0 L12,4 L8,8 L14,8 L18,0 L22,8 L24,8 L24,4 L20,0 Z" transform="translate(86.0, 5.0) scale(1.0)" fill="url(#g5)" fill-rule="evenodd"/></g><g><title>P2</title><path d="M16,0 L12,4 L8,8 L14,8 L18,0 L22,8 L24,8 L24,4 L20,0 Z" transform="translate(110.0, 29.0) rotate(180 12.0 4.0) scale(1.0)" fill="url(#g6)" fill-rule="evenodd"/></g><g><title>P2</title><g clip-path="url(#v3clip-1)"><path d="M16,0 L12,4 L8,8 L14,8 L18,0 L22,8 L24,8 L24,4 L20,0 Z" transform="translate(70.0, 29.0) rotate(270 8.0 0.0) scale(1.0)" fill="url(#g7)" fill-rule="evenodd"/></g></g><g><title>P2</title><path d="M16,0 L12,4 L8,8 L14,8 L18,0 L22,8 L24,8 L24,4 L20,0 Z" transform="translate(22.0, 37.0) scale(1.0)" fill="url(#g8)" fill-rule="evenodd"/></g><g><title>P1</title><g clip-path="url(#v3clip-2)"><path d="M0,8 L0,4 L3,3 L4,0 L12,0 L16,8 Z" transform="translate(78.0, 45.0) rotate(90 0.0 0.0) scale(1.0)" fill="url(#g9)" fill-rule="evenodd"/></g></g><g><title>P2</title><path d="M16,0 L12,4 L8,8 L14,8 L18,0 L22,8 L24,8 L24,4 L20,0 Z" transform="translate(22.0, 61.0) rotate(180 12.0 4.0) scale(1.0)" fill="url(#g10)" fill-rule="evenodd"/></g><g><title>P1</title><path d="M0,8 L0,4 L3,3 L4,0 L12,0 L16,8 Z" transform="translate(110.0, 37.0) scale(1.0)" fill="url(#g11)" fill-rule="evenodd"/></g><g><title>P1</title><g clip-path="url(#v3clip-3)"><path d="M0,8 L0,4 L3,3 L4,0 L12,0 L16,8 Z" transform="translate(142.0, 45.0) rotate(90 0.0 0.0) scale(1.0)" fill="url(#g12)" fill-rule="evenodd"/></g></g><g><title>C3</title><path d="M16,0 L20,0 L20,8 L16,8 L16,6 L12,6 L12,4 L16,4 Z M0,6 L2,6 L2,8 L0,8 Z" transform="translate(110.0, 61.0) rotate(180 12.0 4.0) scale(1.0)" fill="url(#g13)" fill-rule="evenodd"/></g><g><title>C3</title><path d="M16,0 L20,0 L20,8 L16,8 L16,6 L12,6 L12,4 L16,4 Z M0,6 L2,6 L2,8 L0,8 Z" transform="translate(22.0, 69.0) scale(1.0)" fill="url(#g14)" fill-rule="evenodd"/></g><g><title>P2</title><path d="M16,0 L12,4 L8,8 L14,8 L18,0 L22,8 L24,8 L24,4 L20,0 Z" transform="translate(46.0, 69.0) scale(1.0)" fill="url(#g15)" fill-rule="evenodd"/></g><g><title>P1</title><g clip-path="url(#v3clip-4)"><path d="M0,8 L0,4 L3,3 L4,0 L12,0 L16,8 Z" transform="translate(78.0, 77.0) rotate(90 0.0 0.0) scale(1.0)" fill="url(#g16)" fill-rule="evenodd"/></g></g><g><title>P1</title><path d="M0,8 L0,4 L3,3 L4,0 L12,0 L16,8 Z" transform="translate(46.0, 93.0) rotate(180 12.0 4.0) scale(1.0)" fill="url(#g17)" fill-rule="evenodd"/></g><g><title>C3</title><path d="M16,0 L20,0 L20,8 L16,8 L16,6 L12,6 L12,4 L16,4 Z M0,6 L2,6 L2,8 L0,8 Z" transform="translate(86.0, 69.0) scale(1.0)" fill="url(#g18)" fill-rule="evenodd"/></g><g><title>C3</title><path d="M16,0 L20,0 L20,8 L16,8 L16,6 L12,6 L12,4 L16,4 Z M0,6 L2,6 L2,8 L0,8 Z" transform="translate(110.0, 69.0) scale(1.0)" fill="url(#g19)" fill-rule="evenodd"/></g><g><title>P2</title><g clip-path="url(#v3clip-5)"><path d="M16,0 L12,4 L8,8 L14,8 L18,0 L22,8 L24,8 L24,4 L20,0 Z" transform="translate(134.0, 77.0) rotate(90 8.0 0.0) scale(1.0)" fill="url(#g20)" fill-rule="evenodd"/></g></g><g><title>C3</title><path d="M16,0 L20,0 L20,8 L16,8 L16,6 L12,6 L12,4 L16,4 Z M0,6 L2,6 L2,8 L0,8 Z" transform="translate(110.0, 93.0) rotate(180 12.0 4.0) scale(1.0)" fill="url(#g21)" fill-rule="evenodd"/></g><g><title>P2</title><path d="M16,0 L12,4 L8,8 L14,8 L18,0 L22,8 L24,8 L24,4 L20,0 Z" transform="translate(86.0, 93.0) rotate(180 12.0 4.0) scale(1.0)" fill="url(#g22)" fill-rule="evenodd"/></g><g><title>P2</title><g clip-path="url(#v3clip-6)"><path d="M16,0 L12,4 L8,8 L14,8 L18,0 L22,8 L24,8 L24,4 L20,0 Z" transform="translate(70.0, 93.0) rotate(270 8.0 0.0) scale(1.0)" fill="url(#g23)" fill-rule="evenodd"/></g></g><g><title>C3</title><path d="M16,0 L20,0 L20,8 L16,8 L16,6 L12,6 L12,4 L16,4 Z M0,6 L2,6 L2,8 L0,8 Z" transform="translate(22.0, 101.0) scale(1.0)" fill="url(#g24)" fill-rule="evenodd"/></g><g><title>P1</title><path d="M0,8 L0,4 L3,3 L4,0 L12,0 L16,8 Z" transform="translate(46.0, 101.0) scale(1.0)" fill="url(#g25)" fill-rule="evenodd"/></g><g><title>P1</title><path d="M0,8 L0,4 L3,3 L4,0 L12,0 L16,8 Z" transform="translate(46.0, 125.0) rotate(180 12.0 4.0) scale(1.0)" fill="url(#g26)" fill-rule="evenodd"/></g><g><title>C3</title><path d="M16,0 L20,0 L20,8 L16,8 L16,6 L12,6 L12,4 L16,4 Z M0,6 L2,6 L2,8 L0,8 Z" transform="translate(22.0, 125.0) rotate(180 12.0 4.0) scale(1.0)" fill="url(#g27)" fill-rule="evenodd"/></g><g><title>P2</title><g clip-path="url(#v3clip-7)"><path d="M16,0 L12,4 L8,8 L14,8 L18,0 L22,8 L24,8 L24,4 L20,0 Z" transform="translate(6.0, 125.0) rotate(270 8.0 0.0) scale(1.0)" fill="url(#g28)" fill-rule="evenodd"/></g></g><g><title>P1</title><path d="M0,8 L0,4 L3,3 L4,0 L12,0 L16,8 Z" transform="translate(86.0, 101.0) scale(1.0)" fill="url(#g29)" fill-rule="evenodd"/></g><g><title>C3</title><path d="M16,0 L20,0 L20,8 L16,8 L16,6 L12,6 L12,4 L16,4 Z M0,6 L2,6 L2,8 L0,8 Z" transform="translate(110.0, 101.0) scale(1.0)" fill="url(#g30)" fill-rule="evenodd"/></g><g><title>C3</title><g clip-path="url(#v3clip-8)"><path d="M16,0 L20,0 L20,8 L16,8 L16,6 L12,6 L12,4 L16,4 Z M0,6 L2,6 L2,8 L0,8 Z" transform="translate(138.0, 109.0) rotate(90 4.0 0.0) scale(1.0)" fill="url(#g31)" fill-rule="evenodd"/></g></g><g><title>P1</title><path d="M0,8 L0,4 L3,3 L4,0 L12,0 L16,8 Z" transform="translate(110.0, 125.0) rotate(180 12.0 4.0) scale(1.0)" fill="url(#g32)" fill-rule="evenodd"/></g><g><title>C3</title><path d="M16,0 L20,0 L20,8 L16,8 L16,6 L12,6 L12,4 L16,4 Z M0,6 L2,6 L2,8 L0,8 Z" transform="translate(86.0, 125.0) rotate(180 12.0 4.0) scale(1.0)" fill="url(#g33)" fill-rule="evenodd"/></g><rect x="22.0" y="13.0" width="48.0" height="16.0" fill="#1e9de7"/><text x="46.0" y="21.0" fill="#ffffff" style="font-family: monospace; font-size: 16.0px;" text-anchor="middle" dominant-baseline="central">550e</text><rect x="86.0" y="13.0" width="48.0" height="16.0" fill="#348df3"/><text x="110.0" y="21.0" fill="#ffffff" style="font-family: monospace; font-size: 16.0px;" text-anchor="middle" dominant-baseline="central">8400</text><rect x="22.0" y="45.0" width="48.0" height="16.0" fill="#5b6f7b"/><text x="46.0" y="53.0" fill="#ffffff" style="font-family: monospace; font-size: 16.0px;" text-anchor="middle" dominant-baseline="central">e29b</text><rect x="86.0" y="45.0" width="48.0" height="16.0" fill="#7857e3"/><text x="110.0" y="53.0" fill="#ffffff" style="font-family: monospace; font-size: 16.0px;" text-anchor="middle" dominant-baseline="central">41d4</text><rect x="22.0" y="77.0" width="48.0" height="16.0" fill="#7abd6b"/><text x="46.0" y="85.0" fill="#ffffff" style="font-family: monospace; font-size: 16.0px;" text-anchor="middle" dominant-baseline="central">a716</text><rect x="86.0" y="77.0" width="48.0" height="16.0" fill="#ba8ee3"/><text x="110.0" y="85.0" fill="#ffffff" style="font-family: monospace; font-size: 16.0px;" text-anchor="middle" dominant-baseline="central">4466</text><rect x="22.0" y="109.0" width="48.0" height="16.0" fill="#389ee7"/><text x="46.0" y="117.0" fill="#ffffff" style="font-family: monospace; font-size: 16.0px;" text-anchor="middle" dominant-baseline="central">5544</text><rect x="86.0" y="109.0" width="48.0" height="16.0" fill="#354dd3"/><text x="110.0" y="117.0" fill="#ffffff" style="font-family: monospace; font-size: 16.0px;" text-anchor="middle" dominant-baseline="central">0001</text><circle cx="80.0" cy="7.0" r="2.0" fill="#ffffff"/><circle cx="140.0" cy="71.0" r="2.0" fill="#ffd966"/><circle cx="76.0" cy="67.0" r="2.0" fill="#ff3f2f"/><circle cx="80.0" cy="131.0" r="2.0" fill="#000000"/><rect x="1" y="1" width="8.0" height="67.65547749154307" fill="#ffd966"/><rect x="1" y="68.65547749154307" width="8.0" height="44.38875878220141" fill="#ffffff"/><rect x="1" y="113.04423627374447" width="8.0" height="27.71168358053604" fill="#ff3f2f"/><rect x="1" y="140.7559198542805" width="8.0" height="16.244080145719494" fill="#000000"/><text x="142.0" y="145.0" fill="#444444" style="font-family: monospace; font-size: 14.666666666666666px;" text-anchor="end" dominant-baseline="central">214 110 310</text><line x1="0" y1="0" x2="146.0" y2="0" stroke="#000000" stroke-width="1"/><line x1="146.0" y1="0" x2="146.0" y2="157.0" stroke="#000000" stroke-width="1"/><line x1="0" y1="157.0" x2="146.0" y2="157.0" stroke="#000000" stroke-width="1"/><line x1="0" y1="0" x2="0" y2="157.0" stroke="#000000" stroke-width="1"/><line x1="9.0" y1="0" x2="9.0" y2="157.0" stroke="#000000" stroke-width="1"/></svg>