<svg width="108" height="97" viewBox="0 0 108 97" xmlns="http://www.w3.org/2000/svg" font-family="&quot;JetBrains Mono&quot;, &quot;Menlo&quot;, &quot;Consolas&quot;, &quot;DejaVu Sans Mono&quot;, &quot;Liberation Mono&quot;, &quot;Roboto Mono&quot;, &quot;Noto Sans Mono&quot;, monospace" data-entviz-version="v11" data-entviz-lib="0.11.0" data-input-bytes="64" data-cols="3" data-rows="4"><defs><clipPath id="grid-clip-286f37dd952ff65e-3x4"><rect x="14.5" y="13.5" width="90" height="80"/></clipPath></defs><rect x="0" y="0" width="108" height="97" fill="#ffffff"/><g data-channel="grid"><rect x="14.5" y="13.5" width="90" height="80" fill="#ff3f2f"/><g><path fill="#000000" d="M14.5 13.5h3v5h-3zM17.5 13.5h3v5h-3zM20.5 13.5h3v5h-3zM26.5 13.5h3v5h-3zM29.5 13.5h3v5h-3zM38.5 13.5h3v5h-3zM41.5 13.5h3v5h-3zM41.5 18.5h3v5h-3zM41.5 23.5h3v5h-3zM38.5 28.5h3v5h-3zM35.5 28.5h3v5h-3zM20.5 28.5h3v5h-3zM14.5 28.5h3v5h-3z"/><path fill="#2f3fbf" d="M44.5 13.5h3v5h-3zM47.5 13.5h3v5h-3zM50.5 13.5h3v5h-3zM53.5 13.5h3v5h-3zM59.5 13.5h3v5h-3zM68.5 13.5h3v5h-3zM71.5 18.5h3v5h-3zM71.5 28.5h3v5h-3zM62.5 28.5h3v5h-3zM59.5 28.5h3v5h-3zM53.5 28.5h3v5h-3zM50.5 28.5h3v5h-3zM47.5 28.5h3v5h-3zM44.5 23.5h3v5h-3zM44.5 18.5h3v5h-3z"/><path fill="#000000" d="M74.5 13.5h3v5h-3zM77.5 13.5h3v5h-3zM80.5 13.5h3v5h-3zM86.5 13.5h3v5h-3zM89.5 13.5h3v5h-3zM92.5 13.5h3v5h-3zM95.5 13.5h3v5h-3zM101.5 13.5h3v5h-3zM101.5 18.5h3v5h-3zM101.5 23.5h3v5h-3zM101.5 28.5h3v5h-3zM95.5 28.5h3v5h-3zM86.5 28.5h3v5h-3zM83.5 28.5h3v5h-3zM77.5 28.5h3v5h-3zM74.5 28.5h3v5h-3zM74.5 23.5h3v5h-3zM74.5 18.5h3v5h-3z"/><path fill="#e7be00" d="M14.5 33.5h3v5h-3zM32.5 33.5h3v5h-3zM35.5 33.5h3v5h-3zM38.5 33.5h3v5h-3zM41.5 38.5h3v5h-3zM41.5 43.5h3v5h-3zM41.5 48.5h3v5h-3zM38.5 48.5h3v5h-3zM35.5 48.5h3v5h-3zM32.5 48.5h3v5h-3zM29.5 48.5h3v5h-3zM26.5 48.5h3v5h-3zM23.5 48.5h3v5h-3zM20.5 48.5h3v5h-3zM17.5 48.5h3v5h-3zM14.5 43.5h3v5h-3z"/><path fill="#2f3fbf" d="M44.5 33.5h3v5h-3zM47.5 33.5h3v5h-3zM53.5 33.5h3v5h-3zM56.5 33.5h3v5h-3zM59.5 33.5h3v5h-3zM68.5 33.5h3v5h-3zM71.5 33.5h3v5h-3zM71.5 38.5h3v5h-3zM68.5 48.5h3v5h-3zM65.5 48.5h3v5h-3zM62.5 48.5h3v5h-3zM59.5 48.5h3v5h-3zM56.5 48.5h3v5h-3zM44.5 38.5h3v5h-3z"/><path fill="#e7be00" d="M74.5 33.5h3v5h-3zM86.5 33.5h3v5h-3zM98.5 33.5h3v5h-3zM98.5 48.5h3v5h-3zM95.5 48.5h3v5h-3zM92.5 48.5h3v5h-3zM89.5 48.5h3v5h-3zM86.5 48.5h3v5h-3zM77.5 48.5h3v5h-3zM74.5 48.5h3v5h-3z"/><path fill="#000000" d="M14.5 53.5h3v5h-3zM20.5 53.5h3v5h-3zM29.5 53.5h3v5h-3zM32.5 53.5h3v5h-3zM38.5 53.5h3v5h-3zM41.5 68.5h3v5h-3zM35.5 68.5h3v5h-3zM32.5 68.5h3v5h-3zM17.5 68.5h3v5h-3zM14.5 63.5h3v5h-3zM14.5 58.5h3v5h-3z"/><path fill="#000000" d="M77.5 53.5h3v5h-3zM80.5 53.5h3v5h-3zM86.5 53.5h3v5h-3zM92.5 53.5h3v5h-3zM98.5 53.5h3v5h-3zM101.5 53.5h3v5h-3zM101.5 68.5h3v5h-3zM98.5 68.5h3v5h-3zM83.5 68.5h3v5h-3zM80.5 68.5h3v5h-3zM74.5 68.5h3v5h-3z"/><path fill="#2f3fbf" d="M20.5 73.5h3v5h-3zM26.5 73.5h3v5h-3zM32.5 73.5h3v5h-3zM41.5 78.5h3v5h-3zM41.5 83.5h3v5h-3zM41.5 88.5h3v5h-3zM38.5 88.5h3v5h-3zM32.5 88.5h3v5h-3zM23.5 88.5h3v5h-3zM14.5 88.5h3v5h-3zM14.5 83.5h3v5h-3zM14.5 78.5h3v5h-3z"/><path fill="#e7be00" d="M44.5 73.5h3v5h-3zM47.5 73.5h3v5h-3zM59.5 73.5h3v5h-3zM65.5 73.5h3v5h-3zM71.5 78.5h3v5h-3zM71.5 88.5h3v5h-3zM59.5 88.5h3v5h-3zM56.5 88.5h3v5h-3zM53.5 88.5h3v5h-3zM44.5 83.5h3v5h-3zM44.5 78.5h3v5h-3z"/><path fill="#000000" d="M74.5 73.5h3v5h-3zM77.5 73.5h3v5h-3zM92.5 73.5h3v5h-3zM95.5 73.5h3v5h-3zM101.5 83.5h3v5h-3zM101.5 88.5h3v5h-3zM98.5 88.5h3v5h-3zM95.5 88.5h3v5h-3zM92.5 88.5h3v5h-3zM89.5 88.5h3v5h-3zM83.5 88.5h3v5h-3zM80.5 88.5h3v5h-3zM74.5 83.5h3v5h-3z"/></g><g clip-path="url(#grid-clip-286f37dd952ff65e-3x4)" data-channel="ellipse" data-ellipse-anchor-x="74.5" data-ellipse-anchor-y="53.5" data-ellipse-rx="29.71" data-ellipse-ry="29.71" data-ellipse-rotation-deg="96"><ellipse cx="74.5" cy="53.5" rx="29.71" ry="29.71" transform="rotate(96 74.5 53.5)" fill="#000000" stroke="#000000" fill-opacity="0.25" stroke-opacity="0.35" stroke-width="1"/></g><g><g data-channel="cell" data-cell-index="0" data-cell-row="0" data-cell-col="0" data-surround-bits="0x286f37" data-edge-color="#000000"><rect x="17.5" y="18.5" width="24" height="10" fill="#d0869f"/><text x="29.5" y="23.5" fill="#000000" font-size="5.333" text-anchor="middle" dominant-baseline="central">9f86d0</text></g><g data-channel="cell" data-cell-index="1" data-cell-row="0" data-cell-col="1" data-surround-bits="0xdd952f" data-edge-color="#2f3fbf"><rect x="47.5" y="18.5" width="24" height="10" fill="#4c8881"/><text x="59.5" y="23.5" fill="#ffffff" font-size="5.333" text-anchor="middle" dominant-baseline="central">81884c</text></g><g data-channel="cell" data-cell-index="2" data-cell-row="0" data-cell-col="2" data-surround-bits="0xf65ef7" data-edge-color="#000000" data-cell-quartile="1"><rect x="77.5" y="18.5" width="24" height="10" fill="#9a657d"/><text x="89.5" y="23.5" fill="#ffffff" font-size="5.333" text-anchor="middle" dominant-baseline="central">7d659a</text><polygon points="77.5,18.5 82.5,18.5 77.5,23.5" fill="#ffffff"/></g><g data-channel="cell" data-cell-index="3" data-cell-row="1" data-cell-col="0" data-surround-bits="0x5ffdc1" data-edge-color="#e7be00" data-cell-quartile="2"><rect x="17.5" y="38.5" width="24" height="10" fill="#a0ea2f"/><text x="29.5" y="43.5" fill="#000000" font-size="5.333" text-anchor="middle" dominant-baseline="central">2feaa0</text><polygon points="41.5,38.5 36.5,38.5 41.5,43.5" fill="#000000"/></g><g data-channel="cell" data-cell-index="4" data-cell-row="1" data-cell-col="1" data-surround-bits="0x83e73b" data-edge-color="#2f3fbf"><rect x="47.5" y="38.5" width="24" height="10" fill="#d05ac5"/><text x="59.5" y="43.5" fill="#000000" font-size="5.333" text-anchor="middle" dominant-baseline="central">c55ad0</text></g><g data-channel="cell" data-cell-index="5" data-cell-row="1" data-cell-col="2" data-surround-bits="0x33e111" data-edge-color="#e7be00"><rect x="77.5" y="38.5" width="24" height="10" fill="#bfa315"/><text x="89.5" y="43.5" fill="#000000" font-size="5.333" text-anchor="middle" dominant-baseline="central">15a3bf</text></g><g data-channel="cell" data-cell-index="6" data-cell-row="2" data-cell-col="0" data-surround-bits="0xd0d165" data-edge-color="#000000" data-cell-quartile="4"><rect x="17.5" y="58.5" width="24" height="10" fill="#2b1b4f"/><text x="29.5" y="63.5" fill="#ffffff" font-size="5.333" text-anchor="middle" dominant-baseline="central">4f1b2b</text><polygon points="17.5,68.5 17.5,63.5 22.5,68.5" fill="#ffffff"/></g><g data-channel="cell" data-cell-index="7" data-cell-row="2" data-cell-col="1" data-cell-blank="true" data-cell-blank-map="true"><rect x="47.5" y="58.5" width="24" height="10" rx="5" ry="5" fill="#000000" stroke="#000000" stroke-width="1"/><circle cx="51.5" cy="59.75" r="1.75" fill="#ffffff" data-blank-map-min="0,0"/><path d="M 65.4,59.75 H 69.6 M 67.5,57.65 V 61.85" fill="none" stroke="#ffffff" stroke-width="1" stroke-linecap="butt" data-blank-map-max="0,2"/></g><g data-channel="cell" data-cell-index="8" data-cell-row="2" data-cell-col="2" data-surround-bits="0x2c3356" data-edge-color="#000000"><rect x="77.5" y="58.5" width="24" height="10" fill="#2c820b"/><text x="89.5" y="63.5" fill="#ffffff" font-size="5.333" text-anchor="middle" dominant-baseline="central">0b822c</text></g><g data-channel="cell" data-cell-index="9" data-cell-row="3" data-cell-col="0" data-surround-bits="0xe4bc54" data-edge-color="#2f3fbf" data-cell-quartile="3"><rect x="17.5" y="78.5" width="24" height="10" fill="#6c5dd1"/><text x="29.5" y="83.5" fill="#ffffff" font-size="5.333" text-anchor="middle" dominant-baseline="central">d15d6c</text><polygon points="41.5,88.5 41.5,83.5 36.5,88.5" fill="#ffffff"/></g><g data-channel="cell" data-cell-index="10" data-cell-row="3" data-cell-col="1" data-surround-bits="0xc714a3" data-edge-color="#e7be00"><rect x="47.5" y="78.5" width="24" height="10" fill="#f0b015"/><text x="59.5" y="83.5" fill="#000000" font-size="5.333" text-anchor="middle" dominant-baseline="central">15b0f0</text></g><g data-channel="cell" data-cell-index="11" data-cell-row="3" data-cell-col="2" data-surround-bits="0x4df8c3" data-edge-color="#000000"><rect x="77.5" y="78.5" width="24" height="10" fill="#08080a"/><text x="89.5" y="83.5" fill="#ffffff" font-size="5.333" text-anchor="middle" dominant-baseline="central">0a08</text></g></g></g><g data-channel="color-bar" data-bar-slots="7" data-bar-marker-left="0" data-bar-marker-right="0"><g data-color-bar-rank="0" data-color-bar-band="W"><rect x="1" y="1" width="10" height="13.421" fill="#ffffff"/><text x="6" y="13.248" fill="#000000" font-size="5.333" text-anchor="middle" data-color-bar-letter="true">w</text></g><g data-color-bar-rank="1" data-color-bar-band="B"><rect x="1" y="14.421" width="10" height="8.023" fill="#2f3fbf"/><text x="6" y="21.271" fill="#ffffff" font-size="5.333" text-anchor="middle" data-color-bar-letter="true">b</text></g><g data-color-bar-rank="2" data-color-bar-band="K"><rect x="1" y="22.444" width="10" height="51.052" fill="#000000"/><text x="6" y="72.323" fill="#ffffff" font-size="5.333" text-anchor="middle" data-color-bar-letter="true">k</text></g><g data-color-bar-rank="3" data-color-bar-band="G"><rect x="1" y="73.497" width="10" height="22.503" fill="#e7be00"/><text x="6" y="94.827" fill="#000000" font-size="5.333" text-anchor="middle" data-color-bar-letter="true">g</text></g><circle cx="3.3" cy="7.786" r="1.7" fill="#ffffff" stroke="#000000" stroke-width="0.75" data-bar-marker="left"/><circle cx="8.7" cy="7.786" r="1.7" fill="#ffffff" stroke="#000000" stroke-width="0.75" data-bar-marker="right"/></g><g data-channel="label-top"><text x="14.5" y="8.5" fill="#666666" font-size="5.333" dominant-baseline="central">hex(64):</text></g><line x1="0" y1="0.5" x2="108" y2="0.5" stroke="#808080" stroke-width="1" shape-rendering="crispEdges"/><line x1="107.5" y1="0" x2="107.5" y2="97" stroke="#808080" stroke-width="1" shape-rendering="crispEdges"/><line x1="0" y1="96.5" x2="108" y2="96.5" stroke="#808080" stroke-width="1" shape-rendering="crispEdges"/><line x1="0.5" y1="0" x2="0.5" y2="97" stroke="#808080" stroke-width="1" shape-rendering="crispEdges"/><line x1="11.5" y1="0" x2="11.5" y2="97" stroke="#808080" stroke-width="1" shape-rendering="crispEdges"/></svg>