<svg width="213" height="192" viewBox="0 0 213 192" xmlns="http://www.w3.org/2000/svg" font-family="&quot;JetBrains Mono&quot;, &quot;Menlo&quot;, &quot;Consolas&quot;, &quot;DejaVu Sans Mono&quot;, &quot;Liberation Mono&quot;, &quot;Roboto Mono&quot;, &quot;Noto Sans Mono&quot;, monospace" data-entviz-version="v11" data-entviz-lib="0.10.0" data-input-bytes="53" data-cols="3" data-rows="4"><defs><clipPath id="grid-clip-cdf9fd1d36e3af72-3x4"><rect x="27" y="26" width="180" height="160"/></clipPath></defs><rect x="0" y="0" width="213" height="192" fill="#ffffff"/><g data-channel="grid"><rect x="27" y="26" width="180" height="160" fill="#e7be00"/><g><path fill="#ff3f2f" d="M27 26h6v10h-6zM39 26h6v10h-6zM45 26h6v10h-6zM51 26h6v10h-6zM57 26h6v10h-6zM63 26h6v10h-6zM69 26h6v10h-6zM75 26h6v10h-6zM81 46h6v10h-6zM81 56h6v10h-6zM75 56h6v10h-6zM69 56h6v10h-6zM63 56h6v10h-6zM57 56h6v10h-6zM45 56h6v10h-6zM39 56h6v10h-6zM27 46h6v10h-6zM27 36h6v10h-6z"/><path fill="#2f3fbf" d="M87 26h6v10h-6zM93 26h6v10h-6zM117 26h6v10h-6zM123 26h6v10h-6zM129 26h6v10h-6zM141 26h6v10h-6zM141 36h6v10h-6zM141 56h6v10h-6zM135 56h6v10h-6zM117 56h6v10h-6zM105 56h6v10h-6zM99 56h6v10h-6zM93 56h6v10h-6z"/><path fill="#ffffff" d="M165 26h6v10h-6zM171 26h6v10h-6zM177 26h6v10h-6zM201 26h6v10h-6zM201 56h6v10h-6zM195 56h6v10h-6zM189 56h6v10h-6zM177 56h6v10h-6zM171 56h6v10h-6zM165 56h6v10h-6zM159 56h6v10h-6zM147 56h6v10h-6zM147 36h6v10h-6z"/><path fill="#ff3f2f" d="M27 66h6v10h-6zM39 66h6v10h-6zM45 66h6v10h-6zM63 66h6v10h-6zM69 66h6v10h-6zM81 76h6v10h-6zM81 86h6v10h-6zM75 96h6v10h-6zM69 96h6v10h-6zM63 96h6v10h-6zM39 96h6v10h-6zM27 86h6v10h-6zM27 76h6v10h-6z"/><path fill="#ff3f2f" d="M111 66h6v10h-6zM123 66h6v10h-6zM129 66h6v10h-6zM135 66h6v10h-6zM141 76h6v10h-6zM135 96h6v10h-6zM129 96h6v10h-6zM117 96h6v10h-6zM105 96h6v10h-6zM87 86h6v10h-6z"/><path fill="#ff3f2f" d="M171 66h6v10h-6zM183 66h6v10h-6zM201 76h6v10h-6zM201 96h6v10h-6zM189 96h6v10h-6zM183 96h6v10h-6zM165 96h6v10h-6zM159 96h6v10h-6z"/><path fill="#ffffff" d="M27 106h6v10h-6zM39 106h6v10h-6zM45 106h6v10h-6zM51 106h6v10h-6zM81 106h6v10h-6zM81 116h6v10h-6zM81 126h6v10h-6zM81 136h6v10h-6zM75 136h6v10h-6zM51 136h6v10h-6zM39 136h6v10h-6zM27 116h6v10h-6z"/><path fill="#2f3fbf" d="M93 106h6v10h-6zM99 106h6v10h-6zM105 106h6v10h-6zM129 106h6v10h-6zM135 106h6v10h-6zM141 106h6v10h-6zM141 116h6v10h-6zM141 126h6v10h-6zM135 136h6v10h-6zM117 136h6v10h-6zM111 136h6v10h-6zM105 136h6v10h-6zM87 136h6v10h-6zM87 126h6v10h-6zM87 116h6v10h-6z"/><path fill="#000000" d="M147 106h6v10h-6zM153 106h6v10h-6zM165 106h6v10h-6zM177 106h6v10h-6zM201 106h6v10h-6zM201 116h6v10h-6zM201 126h6v10h-6zM195 136h6v10h-6zM183 136h6v10h-6zM177 136h6v10h-6zM171 136h6v10h-6zM159 136h6v10h-6zM147 126h6v10h-6zM147 116h6v10h-6z"/><path fill="#2f3fbf" d="M51 146h6v10h-6zM57 146h6v10h-6zM63 146h6v10h-6zM81 156h6v10h-6zM69 176h6v10h-6zM57 176h6v10h-6zM39 176h6v10h-6zM27 166h6v10h-6z"/><path fill="#2f3fbf" d="M147 146h6v10h-6zM159 146h6v10h-6zM165 146h6v10h-6zM177 146h6v10h-6zM183 146h6v10h-6zM195 146h6v10h-6zM201 156h6v10h-6zM201 166h6v10h-6zM201 176h6v10h-6zM189 176h6v10h-6zM165 176h6v10h-6zM159 176h6v10h-6zM147 166h6v10h-6z"/></g><g clip-path="url(#grid-clip-cdf9fd1d36e3af72-3x4)" data-channel="ellipse" data-ellipse-anchor-x="147" data-ellipse-anchor-y="66" data-ellipse-rx="73.992" data-ellipse-ry="45.481" data-ellipse-rotation-deg="96"><ellipse cx="147" cy="66" rx="73.992" ry="45.481" transform="rotate(96 147 66)" fill="#000000" stroke="#000000" fill-opacity="0.2" stroke-opacity="0.3" stroke-width="2"/></g><g><g data-channel="cell" data-cell-index="0" data-cell-row="0" data-cell-col="0" data-surround-bits="0xcdf9fd" data-edge-color="#ff3f2f"><rect x="33" y="36" width="48" height="20" fill="#c21010"/><text x="57" y="46" fill="#ffffff" font-size="16" text-anchor="middle" dominant-baseline="central">EBDC</text></g><g data-channel="cell" data-cell-index="1" data-cell-row="0" data-cell-col="1" data-surround-bits="0x1d36e3" data-edge-color="#2f3fbf"><rect x="93" y="36" width="48" height="20" fill="#3d93ac"/><text x="117" y="46" fill="#000000" font-size="16" text-anchor="middle" dominant-baseline="central">rJM9</text></g><g data-channel="cell" data-cell-index="2" data-cell-row="0" data-cell-col="2" data-surround-bits="0xaf7238" data-edge-color="#ffffff" data-cell-quartile="1"><rect x="153" y="36" width="48" height="20" fill="#5c10b6"/><text x="177" y="46" fill="#ffffff" font-size="16" text-anchor="middle" dominant-baseline="central">thBc</text><polygon points="153,36 163,36 153,46" fill="#ffffff"/></g><g data-channel="cell" data-cell-index="3" data-cell-row="1" data-cell-col="0" data-surround-bits="0xc8eccd" data-edge-color="#ff3f2f"><rect x="33" y="76" width="48" height="20" fill="#58780b"/><text x="57" y="86" fill="#ffffff" font-size="16" text-anchor="middle" dominant-baseline="central">C3hY</text></g><g data-channel="cell" data-cell-index="4" data-cell-row="1" data-cell-col="1" data-surround-bits="0x4565d0" data-edge-color="#ff3f2f"><rect x="93" y="76" width="48" height="20" fill="#ca2c65"/><text x="117" y="86" fill="#ffffff" font-size="16" text-anchor="middle" dominant-baseline="central">ZSzK</text></g><g data-channel="cell" data-cell-index="5" data-cell-row="1" data-cell-col="2" data-surround-bits="0xcd450" data-edge-color="#ff3f2f"><rect x="153" y="76" width="48" height="20" fill="#888f1a"/><text x="177" y="86" fill="#000000" font-size="16" text-anchor="middle" dominant-baseline="central">Go-I</text></g><g data-channel="cell" data-cell-index="6" data-cell-row="2" data-cell-col="0" data-surround-bits="0x8a3e1d" data-edge-color="#ffffff" data-cell-quartile="3"><rect x="33" y="116" width="48" height="20" fill="#f39dbf"/><text x="57" y="126" fill="#000000" font-size="16" text-anchor="middle" dominant-baseline="central">v53z</text><polygon points="81,136 81,126 71,136" fill="#000000"/></g><g data-channel="cell" data-cell-index="7" data-cell-row="2" data-cell-col="1" data-surround-bits="0xe72f8e" data-edge-color="#2f3fbf" data-cell-quartile="2"><rect x="93" y="116" width="48" height="20" fill="#4a8f41"/><text x="117" y="126" fill="#ffffff" font-size="16" text-anchor="middle" dominant-baseline="central">QY9K</text><polygon points="141,116 131,116 141,126" fill="#ffffff"/></g><g data-channel="cell" data-cell-index="8" data-cell-row="2" data-cell-col="2" data-surround-bits="0xcbae2b" data-edge-color="#000000"><rect x="153" y="116" width="48" height="20" fill="#038121"/><text x="177" y="126" fill="#ffffff" font-size="16" text-anchor="middle" dominant-baseline="central">IYED</text></g><g data-channel="cell" data-cell-index="9" data-cell-row="3" data-cell-col="0" data-surround-bits="0x494470" data-edge-color="#2f3fbf"><rect x="33" y="156" width="48" height="20" fill="#20dd84"/><text x="57" y="166" fill="#000000" font-size="16" text-anchor="middle" dominant-baseline="central">hN0g</text></g><g data-channel="cell" data-cell-index="10" data-cell-row="3" data-cell-col="1" data-cell-blank="true" data-cell-blank-map="true"><rect x="93" y="156" width="48" height="20" rx="10" ry="10" fill="#ff3f2f" stroke="#000000" stroke-width="1"/><circle cx="133" cy="163.5" r="3.5" fill="#000000" data-blank-map-min="1,2"/><path d="M 112.8,168.5 H 121.2 M 117,164.3 V 172.7" fill="none" stroke="#000000" stroke-width="1.925" stroke-linecap="butt" data-blank-map-max="2,1"/></g><g data-channel="cell" data-cell-index="11" data-cell-row="3" data-cell-col="2" data-surround-bits="0x4c5d6d" data-edge-color="#2f3fbf" data-cell-quartile="4"><rect x="153" y="156" width="48" height="20" fill="#d539e4"/><text x="177" y="166" fill="#000000" font-size="16" text-anchor="middle" dominant-baseline="central">5DnV</text><polygon points="153,176 153,166 163,176" fill="#000000"/></g></g></g><g data-channel="color-bar" data-bar-slots="15" data-bar-marker-left="7" data-bar-marker-right="6"><g data-color-bar-rank="0" data-color-bar-band="R"><rect x="1" y="1" width="20" height="75.416" fill="#ff3f2f"/><text x="11" y="72.896" fill="#000000" font-size="16" text-anchor="middle" data-color-bar-letter="true">r</text></g><g data-color-bar-rank="1" data-color-bar-band="K"><rect x="1" y="76.416" width="20" height="53.514" fill="#000000"/><text x="11" y="126.41" fill="#ffffff" font-size="16" text-anchor="middle" data-color-bar-letter="true">k</text></g><g data-color-bar-rank="2" data-color-bar-band="W"><rect x="1" y="129.93" width="20" height="36.77" fill="#ffffff"/><text x="11" y="163.179" fill="#000000" font-size="16" text-anchor="middle" data-color-bar-letter="true">w</text></g><g data-color-bar-rank="3" data-color-bar-band="B"><rect x="1" y="166.699" width="20" height="24.301" fill="#2f3fbf"/><text x="11" y="187.48" fill="#ffffff" font-size="16" text-anchor="middle" data-color-bar-letter="true">b</text></g><circle cx="5.6" cy="96" r="3.4" fill="#ffffff" stroke="#000000" stroke-width="0.75" data-bar-marker="left"/><circle cx="16.4" cy="83.333" r="3.4" fill="#ffffff" stroke="#000000" stroke-width="0.75" data-bar-marker="right"/></g><g data-channel="label-top"><text x="27" y="16" fill="#666666" font-size="12" dominant-baseline="central">did:keri:...</text></g><line x1="0" y1="0.5" x2="213" y2="0.5" stroke="#808080" stroke-width="1" shape-rendering="crispEdges"/><line x1="212.5" y1="0" x2="212.5" y2="192" stroke="#808080" stroke-width="1" shape-rendering="crispEdges"/><line x1="0" y1="191.5" x2="213" y2="191.5" stroke="#808080" stroke-width="1" shape-rendering="crispEdges"/><line x1="0.5" y1="0" x2="0.5" y2="192" stroke="#808080" stroke-width="1" shape-rendering="crispEdges"/><line x1="21.5" y1="0" x2="21.5" y2="192" stroke="#808080" stroke-width="1" shape-rendering="crispEdges"/></svg>