<svg width="275" height="234" viewBox="0 0 275 234" xmlns="http://www.w3.org/2000/svg" font-family="&quot;JetBrains Mono&quot;, &quot;Menlo&quot;, &quot;Consolas&quot;, &quot;DejaVu Sans Mono&quot;, &quot;Liberation Mono&quot;, &quot;Roboto Mono&quot;, &quot;Noto Sans Mono&quot;, monospace" data-entviz-version="v13" data-entviz-lib="0.13.0" data-input-bytes="56" data-cols="4" data-rows="5" data-encoding="base64url" data-scheme="" data-role="" data-size-basis="utf8" data-entropy-type="base64url" data-size-bits="448" data-qualifiers="{}" data-parts="[{&quot;text&quot;:&quot;TG9yZW0gaXBzdW0gZG9sb3Igc2l0IGFtZXQsIGNvbnNlY3RldHVyIGFkaXBpc2NpbmcgZWxpdC4&quot;,&quot;bind&quot;:&quot;core&quot;}]"><defs><clipPath id="grid-clip-985bef79a49adefd-4x5"><rect x="28" y="27" width="240" height="200"/></clipPath></defs><rect x="1" y="1" width="273" height="232" fill="#ffffff"/><g data-channel="grid"><rect x="28" y="27" width="240" height="200" fill="#ffffff"/><g><path fill="#000000" d="M28 27h6v10h-6zM34 27h6v10h-6zM40 27h6v10h-6zM46 27h6v10h-6zM58 27h6v10h-6zM64 27h6v10h-6zM70 27h6v10h-6zM76 27h6v10h-6zM82 27h6v10h-6zM82 47h6v10h-6zM82 57h6v10h-6zM70 57h6v10h-6zM40 57h6v10h-6zM34 57h6v10h-6zM28 37h6v10h-6z"/><path fill="#2f3fbf" d="M94 27h6v10h-6zM106 27h6v10h-6zM112 27h6v10h-6zM130 27h6v10h-6zM142 37h6v10h-6zM136 57h6v10h-6zM124 57h6v10h-6zM118 57h6v10h-6zM100 57h6v10h-6zM94 57h6v10h-6zM88 57h6v10h-6zM88 47h6v10h-6z"/><path fill="#2f3fbf" d="M154 27h6v10h-6zM160 27h6v10h-6zM166 27h6v10h-6zM172 27h6v10h-6zM196 27h6v10h-6zM202 37h6v10h-6zM202 47h6v10h-6zM202 57h6v10h-6zM196 57h6v10h-6zM190 57h6v10h-6zM184 57h6v10h-6zM172 57h6v10h-6zM166 57h6v10h-6zM160 57h6v10h-6zM154 57h6v10h-6zM148 47h6v10h-6zM148 37h6v10h-6z"/><path fill="#2f3fbf" d="M208 27h6v10h-6zM220 27h6v10h-6zM232 27h6v10h-6zM250 27h6v10h-6zM256 27h6v10h-6zM262 27h6v10h-6zM262 37h6v10h-6zM256 57h6v10h-6zM250 57h6v10h-6zM244 57h6v10h-6zM232 57h6v10h-6zM214 57h6v10h-6zM208 57h6v10h-6z"/><path fill="#2f3fbf" d="M40 67h6v10h-6zM46 67h6v10h-6zM52 67h6v10h-6zM76 67h6v10h-6zM82 67h6v10h-6zM82 97h6v10h-6zM40 97h6v10h-6zM34 97h6v10h-6zM28 97h6v10h-6zM28 87h6v10h-6z"/><path fill="#2f3fbf" d="M118 67h6v10h-6zM136 67h6v10h-6zM142 67h6v10h-6zM142 87h6v10h-6zM136 97h6v10h-6zM124 97h6v10h-6zM118 97h6v10h-6zM112 97h6v10h-6zM94 97h6v10h-6zM88 97h6v10h-6zM88 77h6v10h-6z"/><path fill="#ff3f2f" d="M148 67h6v10h-6zM160 67h6v10h-6zM172 67h6v10h-6zM178 67h6v10h-6zM184 67h6v10h-6zM190 67h6v10h-6zM202 67h6v10h-6zM202 87h6v10h-6zM166 97h6v10h-6zM154 97h6v10h-6z"/><path fill="#ff3f2f" d="M226 67h6v10h-6zM232 67h6v10h-6zM238 67h6v10h-6zM244 67h6v10h-6zM250 67h6v10h-6zM262 67h6v10h-6zM262 97h6v10h-6zM244 97h6v10h-6zM232 97h6v10h-6zM220 97h6v10h-6zM214 97h6v10h-6zM208 87h6v10h-6zM208 77h6v10h-6z"/><path fill="#2f3fbf" d="M34 107h6v10h-6zM40 107h6v10h-6zM46 107h6v10h-6zM58 107h6v10h-6zM76 107h6v10h-6zM82 107h6v10h-6zM82 127h6v10h-6zM82 137h6v10h-6zM70 137h6v10h-6z"/><path fill="#ff3f2f" d="M88 107h6v10h-6zM100 107h6v10h-6zM106 107h6v10h-6zM112 107h6v10h-6zM118 107h6v10h-6zM124 107h6v10h-6zM130 107h6v10h-6zM136 107h6v10h-6zM142 117h6v10h-6zM142 127h6v10h-6zM142 137h6v10h-6zM136 137h6v10h-6zM100 137h6v10h-6zM88 117h6v10h-6z"/><path fill="#2f3fbf" d="M160 107h6v10h-6zM178 107h6v10h-6zM184 107h6v10h-6zM190 107h6v10h-6zM202 117h6v10h-6zM202 127h6v10h-6zM190 137h6v10h-6zM184 137h6v10h-6zM178 137h6v10h-6zM172 137h6v10h-6zM160 137h6v10h-6zM148 137h6v10h-6zM148 127h6v10h-6zM148 117h6v10h-6z"/><path fill="#2f3fbf" d="M214 107h6v10h-6zM220 107h6v10h-6zM244 107h6v10h-6zM256 107h6v10h-6zM262 127h6v10h-6zM250 137h6v10h-6zM232 137h6v10h-6zM208 117h6v10h-6z"/><path fill="#2f3fbf" d="M28 147h6v10h-6zM46 147h6v10h-6zM70 147h6v10h-6zM76 147h6v10h-6zM82 147h6v10h-6zM64 177h6v10h-6zM46 177h6v10h-6zM40 177h6v10h-6zM28 177h6v10h-6zM28 167h6v10h-6z"/><path fill="#ff3f2f" d="M160 147h6v10h-6zM166 147h6v10h-6zM184 147h6v10h-6zM202 177h6v10h-6zM190 177h6v10h-6zM184 177h6v10h-6zM178 177h6v10h-6zM172 177h6v10h-6zM166 177h6v10h-6zM160 177h6v10h-6zM148 177h6v10h-6zM148 167h6v10h-6z"/><path fill="#2f3fbf" d="M214 147h6v10h-6zM226 147h6v10h-6zM244 147h6v10h-6zM256 147h6v10h-6zM262 147h6v10h-6zM262 157h6v10h-6zM262 177h6v10h-6zM244 177h6v10h-6zM232 177h6v10h-6zM208 167h6v10h-6z"/><path fill="#000000" d="M28 187h6v10h-6zM34 187h6v10h-6zM40 187h6v10h-6zM82 207h6v10h-6zM76 217h6v10h-6zM70 217h6v10h-6zM64 217h6v10h-6zM52 217h6v10h-6zM28 217h6v10h-6zM28 207h6v10h-6z"/><path fill="#2f3fbf" d="M88 187h6v10h-6zM100 187h6v10h-6zM124 187h6v10h-6zM136 187h6v10h-6zM142 187h6v10h-6zM142 217h6v10h-6zM136 217h6v10h-6zM124 217h6v10h-6zM112 217h6v10h-6zM100 217h6v10h-6zM94 217h6v10h-6zM88 217h6v10h-6zM88 207h6v10h-6zM88 197h6v10h-6z"/><path fill="#2f3fbf" d="M154 187h6v10h-6zM160 187h6v10h-6zM166 187h6v10h-6zM172 187h6v10h-6zM196 187h6v10h-6zM202 207h6v10h-6zM184 217h6v10h-6zM160 217h6v10h-6zM148 197h6v10h-6z"/><path fill="#2f3fbf" d="M214 187h6v10h-6zM220 187h6v10h-6zM238 187h6v10h-6zM244 187h6v10h-6zM250 187h6v10h-6zM256 187h6v10h-6zM262 187h6v10h-6zM262 197h6v10h-6zM262 217h6v10h-6zM244 217h6v10h-6zM238 217h6v10h-6zM226 217h6v10h-6zM220 217h6v10h-6zM214 217h6v10h-6zM208 217h6v10h-6zM208 207h6v10h-6z"/></g><g clip-path="url(#grid-clip-985bef79a49adefd-4x5)" data-channel="ellipse" data-ellipse-anchor-x="148" data-ellipse-anchor-y="107" data-ellipse-rx="57.7" data-ellipse-ry="69.919" data-ellipse-rotation-deg="108"><ellipse cx="148" cy="107" rx="57.7" ry="69.919" transform="rotate(108 148 107)" fill="#000000" stroke="#000000" fill-opacity="0.2" stroke-opacity="0.3" stroke-width="2"/></g><g><g data-channel="cell" data-cell-index="0" data-cell-row="0" data-cell-col="0" data-surround-bits="0x985bef" data-edge-color="#000000"><rect x="34" y="37" width="48" height="20" fill="#726f4c"/><text x="58" y="47" fill="#ffffff" font-size="16" text-anchor="middle" dominant-baseline="central">TG9y</text></g><g data-channel="cell" data-cell-index="1" data-cell-row="0" data-cell-col="1" data-surround-bits="0x79a49a" data-edge-color="#2f3fbf" data-cell-quartile="3"><rect x="94" y="37" width="48" height="20" fill="#206d65"/><text x="118" y="47" fill="#ffffff" font-size="16" text-anchor="middle" dominant-baseline="central">ZW0g</text><polygon points="142,57 142,47 132,57" fill="#ffffff"/></g><g data-channel="cell" data-cell-index="2" data-cell-row="0" data-cell-col="2" data-surround-bits="0xdefd1e" data-edge-color="#2f3fbf"><rect x="154" y="37" width="48" height="20" fill="#737069"/><text x="178" y="47" fill="#ffffff" font-size="16" text-anchor="middle" dominant-baseline="central">aXBz</text></g><g data-channel="cell" data-cell-index="3" data-cell-row="0" data-cell-col="3" data-surround-bits="0x32e795" data-edge-color="#2f3fbf"><rect x="214" y="37" width="48" height="20" fill="#206d75"/><text x="238" y="47" fill="#ffffff" font-size="16" text-anchor="middle" dominant-baseline="central">dW0g</text></g><g data-channel="cell" data-cell-index="4" data-cell-row="1" data-cell-col="0" data-surround-bits="0x78131c" data-edge-color="#2f3fbf"><rect x="34" y="77" width="48" height="20" fill="#6c6f64"/><text x="58" y="87" fill="#ffffff" font-size="16" text-anchor="middle" dominant-baseline="central">ZG9s</text></g><g data-channel="cell" data-cell-index="5" data-cell-row="1" data-cell-col="1" data-surround-bits="0xb3ab20" data-edge-color="#2f3fbf"><rect x="94" y="77" width="48" height="20" fill="#20726f"/><text x="118" y="87" fill="#ffffff" font-size="16" text-anchor="middle" dominant-baseline="central">b3Ig</text></g><g data-channel="cell" data-cell-index="6" data-cell-row="1" data-cell-col="2" data-surround-bits="0x140af5" data-edge-color="#ff3f2f" data-cell-quartile="1"><rect x="154" y="77" width="48" height="20" fill="#746973"/><text x="178" y="87" fill="#ffffff" font-size="16" text-anchor="middle" dominant-baseline="central">c2l0</text><polygon points="154,77 164,77 154,87" fill="#ffffff"/></g><g data-channel="cell" data-cell-index="7" data-cell-row="1" data-cell-col="3" data-surround-bits="0xda92f8" data-edge-color="#ff3f2f"><rect x="214" y="77" width="48" height="20" fill="#6d6120"/><text x="238" y="87" fill="#ffffff" font-size="16" text-anchor="middle" dominant-baseline="central">IGFt</text></g><g data-channel="cell" data-cell-index="8" data-cell-row="2" data-cell-col="0" data-surround-bits="0x5b2e" data-edge-color="#2f3fbf"><rect x="34" y="117" width="48" height="20" fill="#2c7465"/><text x="58" y="127" fill="#ffffff" font-size="16" text-anchor="middle" dominant-baseline="central">ZXQs</text></g><g data-channel="cell" data-cell-index="9" data-cell-row="2" data-cell-col="1" data-surround-bits="0x883dfd" data-edge-color="#ff3f2f"><rect x="94" y="117" width="48" height="20" fill="#6f6320"/><text x="118" y="127" fill="#ffffff" font-size="16" text-anchor="middle" dominant-baseline="central">IGNv</text></g><g data-channel="cell" data-cell-index="10" data-cell-row="2" data-cell-col="2" data-surround-bits="0xebcce4" data-edge-color="#2f3fbf" data-cell-quartile="4"><rect x="154" y="117" width="48" height="20" fill="#65736e"/><text x="178" y="127" fill="#ffffff" font-size="16" text-anchor="middle" dominant-baseline="central">bnNl</text><polygon points="154,137 154,127 164,137" fill="#ffffff"/></g><g data-channel="cell" data-cell-index="11" data-cell-row="2" data-cell-col="3" data-surround-bits="0x824946" data-edge-color="#2f3fbf"><rect x="214" y="117" width="48" height="20" fill="#657463"/><text x="238" y="127" fill="#ffffff" font-size="16" text-anchor="middle" dominant-baseline="central">Y3Rl</text></g><g data-channel="cell" data-cell-index="12" data-cell-row="3" data-cell-col="0" data-surround-bits="0x6c8389" data-edge-color="#2f3fbf"><rect x="34" y="157" width="48" height="20" fill="#727574"/><text x="58" y="167" fill="#ffffff" font-size="16" text-anchor="middle" dominant-baseline="central">dHVy</text></g><g data-channel="cell" data-cell-index="13" data-cell-row="3" data-cell-col="1" data-cell-blank="true" data-cell-blank-map="true"><rect x="94" y="157" width="48" height="20" rx="10" ry="10" fill="#e7be00" stroke="#000000" stroke-width="1"/><circle cx="100" cy="167" r="3.5" fill="#000000" data-blank-map-min="2,0"/><path d="M 107.8,175 H 116.2 M 112,170.8 V 179.2" fill="none" stroke="#000000" stroke-width="1.925" stroke-linecap="butt" data-blank-map-max="4,1"/></g><g data-channel="cell" data-cell-index="14" data-cell-row="3" data-cell-col="2" data-surround-bits="0x6fd04c" data-edge-color="#ff3f2f"><rect x="154" y="157" width="48" height="20" fill="#646120"/><text x="178" y="167" fill="#ffffff" font-size="16" text-anchor="middle" dominant-baseline="central">IGFk</text></g><g data-channel="cell" data-cell-index="15" data-cell-row="3" data-cell-col="3" data-surround-bits="0x42974a" data-edge-color="#2f3fbf"><rect x="214" y="157" width="48" height="20" fill="#697069"/><text x="238" y="167" fill="#ffffff" font-size="16" text-anchor="middle" dominant-baseline="central">aXBp</text></g><g data-channel="cell" data-cell-index="16" data-cell-row="4" data-cell-col="0" data-surround-bits="0x62e807" data-edge-color="#000000" data-cell-quartile="2"><rect x="34" y="197" width="48" height="20" fill="#696373"/><text x="58" y="207" fill="#ffffff" font-size="16" text-anchor="middle" dominant-baseline="central">c2Np</text><polygon points="82,197 72,197 82,207" fill="#ffffff"/></g><g data-channel="cell" data-cell-index="17" data-cell-row="4" data-cell-col="1" data-surround-bits="0xfab345" data-edge-color="#2f3fbf"><rect x="94" y="197" width="48" height="20" fill="#20676e"/><text x="118" y="207" fill="#ffffff" font-size="16" text-anchor="middle" dominant-baseline="central">bmcg</text></g><g data-channel="cell" data-cell-index="18" data-cell-row="4" data-cell-col="2" data-surround-bits="0x88891e" data-edge-color="#2f3fbf"><rect x="154" y="197" width="48" height="20" fill="#696c65"/><text x="178" y="207" fill="#ffffff" font-size="16" text-anchor="middle" dominant-baseline="central">ZWxp</text></g><g data-channel="cell" data-cell-index="19" data-cell-row="4" data-cell-col="3" data-surround-bits="0x7d97e6" data-edge-color="#2f3fbf"><rect x="214" y="197" width="48" height="20" fill="#382e74"/><text x="238" y="207" fill="#ffffff" font-size="16" text-anchor="middle" dominant-baseline="central">dC4</text></g></g></g><g data-channel="color-bar" data-bar-slots="16" data-bar-marker-left="0" data-bar-marker-right="2"><g data-color-bar-rank="0" data-color-bar-band="G"><rect x="2" y="2" width="20" height="49.325" fill="#e7be00"/><text x="12" y="47.805" fill="#000000" font-size="16" text-anchor="middle" data-color-bar-letter="true">g</text></g><g data-color-bar-rank="1" data-color-bar-band="B"><rect x="2" y="51.325" width="20" height="84.827" fill="#2f3fbf"/><text x="12" y="132.633" fill="#ffffff" font-size="16" text-anchor="middle" data-color-bar-letter="true">b</text></g><g data-color-bar-rank="2" data-color-bar-band="R"><rect x="2" y="136.153" width="20" height="52.585" fill="#ff3f2f"/><text x="12" y="185.218" fill="#000000" font-size="16" text-anchor="middle" data-color-bar-letter="true">r</text></g><g data-color-bar-rank="3" data-color-bar-band="K"><rect x="2" y="188.738" width="20" height="43.262" fill="#000000"/><text x="12" y="228.48" fill="#ffffff" font-size="16" text-anchor="middle" data-color-bar-letter="true">k</text></g><circle cx="6.6" cy="9.188" r="3.4" fill="#ffffff" stroke="#000000" stroke-width="0.75" data-bar-marker="left"/><circle cx="17.4" cy="37.938" r="3.4" fill="#ffffff" stroke="#000000" stroke-width="0.75" data-bar-marker="right"/></g><g data-channel="label-top"><text x="28" y="17" fill="#666666" font-size="12" dominant-baseline="central">txt(56)-&gt;b64url:</text></g><line x1="1" y1="1.5" x2="274" y2="1.5" stroke="#808080" stroke-width="1" shape-rendering="crispEdges"/><line x1="273.5" y1="1" x2="273.5" y2="233" stroke="#808080" stroke-width="1" shape-rendering="crispEdges"/><line x1="1" y1="232.5" x2="274" y2="232.5" stroke="#808080" stroke-width="1" shape-rendering="crispEdges"/><line x1="1.5" y1="1" x2="1.5" y2="233" stroke="#808080" stroke-width="1" shape-rendering="crispEdges"/><line x1="22.5" y1="1" x2="22.5" y2="233" stroke="#808080" stroke-width="1" shape-rendering="crispEdges"/></svg>