<svg width="213" height="152" viewBox="0 0 213 152" xmlns="http://www.w3.org/2000/svg" font-family="&quot;JetBrains Mono&quot;, &quot;Menlo&quot;, &quot;Consolas&quot;, &quot;DejaVu Sans Mono&quot;, &quot;Liberation Mono&quot;, &quot;Roboto Mono&quot;, &quot;Noto Sans Mono&quot;, monospace" data-entviz-version="v11" data-entviz-lib="0.11.0" data-input-bytes="42" data-cols="3" data-rows="3"><defs><clipPath id="grid-clip-65b8778dc13be864-3x3"><rect x="27" y="26" width="180" height="120"/></clipPath></defs><rect x="0" y="0" width="213" height="152" fill="#ffffff"/><g data-channel="grid"><rect x="27" y="26" width="180" height="120" fill="#e7be00"/><g><path fill="#000000" d="M27 26h6v10h-6zM33 26h6v10h-6zM39 26h6v10h-6zM51 26h6v10h-6zM57 26h6v10h-6zM63 26h6v10h-6zM81 46h6v10h-6zM81 56h6v10h-6zM75 56h6v10h-6zM63 56h6v10h-6zM57 56h6v10h-6zM45 56h6v10h-6zM27 56h6v10h-6zM27 46h6v10h-6z"/><path fill="#000000" d="M87 26h6v10h-6zM93 26h6v10h-6zM105 26h6v10h-6zM111 26h6v10h-6zM117 26h6v10h-6zM135 26h6v10h-6zM129 56h6v10h-6zM123 56h6v10h-6zM117 56h6v10h-6zM105 56h6v10h-6zM99 56h6v10h-6zM87 36h6v10h-6z"/><path fill="#ffffff" d="M147 26h6v10h-6zM153 26h6v10h-6zM159 26h6v10h-6zM165 26h6v10h-6zM177 26h6v10h-6zM189 26h6v10h-6zM201 36h6v10h-6zM195 56h6v10h-6zM189 56h6v10h-6zM159 56h6v10h-6zM147 56h6v10h-6zM147 46h6v10h-6zM147 36h6v10h-6z"/><path fill="#2f3fbf" d="M93 66h6v10h-6zM99 66h6v10h-6zM105 66h6v10h-6zM111 66h6v10h-6zM123 66h6v10h-6zM129 66h6v10h-6zM135 66h6v10h-6zM141 96h6v10h-6zM135 96h6v10h-6zM129 96h6v10h-6zM123 96h6v10h-6zM99 96h6v10h-6zM87 96h6v10h-6zM87 76h6v10h-6z"/><path fill="#2f3fbf" d="M147 66h6v10h-6zM153 66h6v10h-6zM159 66h6v10h-6zM183 66h6v10h-6zM195 66h6v10h-6zM201 76h6v10h-6zM201 96h6v10h-6zM189 96h6v10h-6zM177 96h6v10h-6zM165 96h6v10h-6zM159 96h6v10h-6zM147 96h6v10h-6zM147 86h6v10h-6zM147 76h6v10h-6z"/><path fill="#ffffff" d="M27 106h6v10h-6zM51 106h6v10h-6zM63 106h6v10h-6zM69 106h6v10h-6zM81 116h6v10h-6zM81 126h6v10h-6zM81 136h6v10h-6zM63 136h6v10h-6zM57 136h6v10h-6zM51 136h6v10h-6zM27 136h6v10h-6z"/><path fill="#ffffff" d="M147 106h6v10h-6zM165 106h6v10h-6zM171 106h6v10h-6zM177 106h6v10h-6zM189 106h6v10h-6zM195 106h6v10h-6zM201 106h6v10h-6zM201 116h6v10h-6zM201 126h6v10h-6zM201 136h6v10h-6zM195 136h6v10h-6zM189 136h6v10h-6zM147 136h6v10h-6z"/></g><g clip-path="url(#grid-clip-65b8778dc13be864-3x3)" data-channel="ellipse" data-ellipse-anchor-x="147" data-ellipse-anchor-y="146" data-ellipse-rx="61.773" data-ellipse-ry="69.919" data-ellipse-rotation-deg="36"><ellipse cx="147" cy="146" rx="61.773" ry="69.919" transform="rotate(36 147 146)" fill="#000000" stroke="#000000" fill-opacity="0.2" stroke-opacity="0.3" stroke-width="2"/></g><g><g data-channel="cell" data-cell-index="0" data-cell-row="0" data-cell-col="0" data-surround-bits="0x65b877" data-edge-color="#000000" data-cell-quartile="1"><rect x="33" y="36" width="48" height="20" fill="#b6ae5a"/><text x="57" y="46" fill="#000000" font-size="12" text-anchor="middle" dominant-baseline="central">5aaeb6</text><polygon points="33,36 43,36 33,46" fill="#000000"/></g><g data-channel="cell" data-cell-index="1" data-cell-row="0" data-cell-col="1" data-surround-bits="0x8dc13b" data-edge-color="#000000" data-cell-quartile="2"><rect x="93" y="36" width="48" height="20" fill="#3e3f05"/><text x="117" y="46" fill="#ffffff" font-size="12" text-anchor="middle" dominant-baseline="central">053f3e</text><polygon points="141,36 131,36 141,46" fill="#ffffff"/></g><g data-channel="cell" data-cell-index="2" data-cell-row="0" data-cell-col="2" data-surround-bits="0xe864af" data-edge-color="#ffffff" data-cell-quartile="4"><rect x="153" y="36" width="48" height="20" fill="#b9c994"/><text x="177" y="46" fill="#000000" font-size="12" text-anchor="middle" dominant-baseline="central">94c9b9</text><polygon points="153,56 153,46 163,56" fill="#000000"/></g><g data-channel="cell" data-cell-index="3" data-cell-row="1" data-cell-col="0" data-cell-blank="true" data-cell-blank-map="true"><rect x="33" y="76" width="48" height="20" rx="10" ry="10" fill="#ffffff" stroke="#000000" stroke-width="1"/><circle cx="73" cy="92.667" r="3.5" fill="#1d4ed8" data-blank-map-min="2,2"/><path d="M 68.8,86 H 77.2 M 73,81.8 V 90.2" fill="none" stroke="#d62828" stroke-width="1.925" stroke-linecap="butt" data-blank-map-max="1,2"/></g><g data-channel="cell" data-cell-index="4" data-cell-row="1" data-cell-col="1" data-surround-bits="0xa8f1de" data-edge-color="#2f3fbf"><rect x="93" y="76" width="48" height="20" fill="#339fa0"/><text x="117" y="86" fill="#000000" font-size="12" text-anchor="middle" dominant-baseline="central">a09f33</text></g><g data-channel="cell" data-cell-index="5" data-cell-row="1" data-cell-col="2" data-surround-bits="0xed5547" data-edge-color="#2f3fbf"><rect x="153" y="76" width="48" height="20" fill="#359466"/><text x="177" y="86" fill="#ffffff" font-size="12" text-anchor="middle" dominant-baseline="central">669435</text></g><g data-channel="cell" data-cell-index="6" data-cell-row="2" data-cell-col="0" data-surround-bits="0x239cd1" data-edge-color="#ffffff" data-cell-quartile="3"><rect x="33" y="116" width="48" height="20" fill="#1befe7"/><text x="57" y="126" fill="#000000" font-size="12" text-anchor="middle" dominant-baseline="central">e7ef1b</text><polygon points="81,136 81,126 71,136" fill="#000000"/></g><g data-channel="cell" data-cell-index="7" data-cell-row="2" data-cell-col="1" data-cell-blank="true"><rect x="93" y="116" width="48" height="20" rx="10" ry="10" fill="#ffffff" stroke="#000000" stroke-width="1"/></g><g data-channel="cell" data-cell-index="8" data-cell-row="2" data-cell-col="2" data-surround-bits="0x207fb9" data-edge-color="#ffffff"><rect x="153" y="116" width="48" height="20" fill="#ededea"/><text x="177" y="126" fill="#000000" font-size="12" text-anchor="middle" dominant-baseline="central">eaed</text></g></g></g><g data-channel="color-bar" data-bar-slots="12" data-bar-marker-left="3" data-bar-marker-right="2"><g data-color-bar-rank="0" data-color-bar-band="R"><rect x="1" y="1" width="20" height="32.474" fill="#ff3f2f"/><text x="11" y="30.834" fill="#000000" font-size="12" text-anchor="middle" data-color-bar-letter="true">r</text></g><g data-color-bar-rank="1" data-color-bar-band="B"><rect x="1" y="33.474" width="20" height="28.482" fill="#2f3fbf"/><text x="11" y="59.315" fill="#ffffff" font-size="12" text-anchor="middle" data-color-bar-letter="true">b</text></g><g data-color-bar-rank="2" data-color-bar-band="W"><rect x="1" y="61.955" width="20" height="49.815" fill="#ffffff"/><text x="11" y="109.13" fill="#000000" font-size="12" text-anchor="middle" data-color-bar-letter="true">w</text></g><g data-color-bar-rank="3" data-color-bar-band="K"><rect x="1" y="111.77" width="20" height="39.23" fill="#000000"/><text x="11" y="148.36" fill="#ffffff" font-size="12" text-anchor="middle" data-color-bar-letter="true">k</text></g><circle cx="5.6" cy="44.75" r="3.4" fill="#ffffff" stroke="#000000" stroke-width="0.75" data-bar-marker="left"/><circle cx="16.4" cy="32.25" r="3.4" fill="#ffffff" stroke="#000000" stroke-width="0.75" data-bar-marker="right"/></g><g data-channel="label-top"><text x="27" y="16" fill="#666666" font-size="12" dominant-baseline="central">ETH: 0x...</text></g><line x1="0" y1="0.5" x2="213" y2="0.5" stroke="#808080" stroke-width="1" shape-rendering="crispEdges"/><line x1="212.5" y1="0" x2="212.5" y2="152" stroke="#808080" stroke-width="1" shape-rendering="crispEdges"/><line x1="0" y1="151.5" x2="213" y2="151.5" stroke="#808080" stroke-width="1" shape-rendering="crispEdges"/><line x1="0.5" y1="0" x2="0.5" y2="152" stroke="#808080" stroke-width="1" shape-rendering="crispEdges"/><line x1="21.5" y1="0" x2="21.5" y2="152" stroke="#808080" stroke-width="1" shape-rendering="crispEdges"/></svg>