<svg width="215" height="154" viewBox="0 0 215 154" xmlns="http://www.w3.org/2000/svg" font-family="&quot;JetBrains Mono&quot;, &quot;Menlo&quot;, &quot;Consolas&quot;, &quot;DejaVu Sans Mono&quot;, &quot;Liberation Mono&quot;, &quot;Roboto Mono&quot;, &quot;Noto Sans Mono&quot;, monospace" data-entviz-version="v12" data-entviz-lib="0.12.0" data-input-bytes="42" data-cols="3" data-rows="3"><defs><clipPath id="grid-clip-65b8778dc13be864-3x3"><rect x="28" y="27" width="180" height="120"/></clipPath></defs><rect x="1" y="1" width="213" height="152" fill="#ffffff"/><g data-channel="grid"><rect x="28" y="27" width="180" height="120" fill="#e7be00"/><g><path fill="#000000" d="M28 27h6v10h-6zM34 27h6v10h-6zM40 27h6v10h-6zM52 27h6v10h-6zM58 27h6v10h-6zM64 27h6v10h-6zM82 47h6v10h-6zM82 57h6v10h-6zM76 57h6v10h-6zM64 57h6v10h-6zM58 57h6v10h-6zM46 57h6v10h-6zM28 57h6v10h-6zM28 47h6v10h-6z"/><path fill="#000000" d="M88 27h6v10h-6zM94 27h6v10h-6zM106 27h6v10h-6zM112 27h6v10h-6zM118 27h6v10h-6zM136 27h6v10h-6zM130 57h6v10h-6zM124 57h6v10h-6zM118 57h6v10h-6zM106 57h6v10h-6zM100 57h6v10h-6zM88 37h6v10h-6z"/><path fill="#ffffff" d="M148 27h6v10h-6zM154 27h6v10h-6zM160 27h6v10h-6zM166 27h6v10h-6zM178 27h6v10h-6zM190 27h6v10h-6zM202 37h6v10h-6zM196 57h6v10h-6zM190 57h6v10h-6zM160 57h6v10h-6zM148 57h6v10h-6zM148 47h6v10h-6zM148 37h6v10h-6z"/><path fill="#2f3fbf" d="M94 67h6v10h-6zM100 67h6v10h-6zM106 67h6v10h-6zM112 67h6v10h-6zM124 67h6v10h-6zM130 67h6v10h-6zM136 67h6v10h-6zM142 97h6v10h-6zM136 97h6v10h-6zM130 97h6v10h-6zM124 97h6v10h-6zM100 97h6v10h-6zM88 97h6v10h-6zM88 77h6v10h-6z"/><path fill="#2f3fbf" d="M148 67h6v10h-6zM154 67h6v10h-6zM160 67h6v10h-6zM184 67h6v10h-6zM196 67h6v10h-6zM202 77h6v10h-6zM202 97h6v10h-6zM190 97h6v10h-6zM178 97h6v10h-6zM166 97h6v10h-6zM160 97h6v10h-6zM148 97h6v10h-6zM148 87h6v10h-6zM148 77h6v10h-6z"/><path fill="#ffffff" d="M28 107h6v10h-6zM52 107h6v10h-6zM64 107h6v10h-6zM70 107h6v10h-6zM82 117h6v10h-6zM82 127h6v10h-6zM82 137h6v10h-6zM64 137h6v10h-6zM58 137h6v10h-6zM52 137h6v10h-6zM28 137h6v10h-6z"/><path fill="#ffffff" d="M148 107h6v10h-6zM166 107h6v10h-6zM172 107h6v10h-6zM178 107h6v10h-6zM190 107h6v10h-6zM196 107h6v10h-6zM202 107h6v10h-6zM202 117h6v10h-6zM202 127h6v10h-6zM202 137h6v10h-6zM196 137h6v10h-6zM190 137h6v10h-6zM148 137h6v10h-6z"/></g><g clip-path="url(#grid-clip-65b8778dc13be864-3x3)" data-channel="ellipse" data-ellipse-anchor-x="148" data-ellipse-anchor-y="147" data-ellipse-rx="61.773" data-ellipse-ry="69.919" data-ellipse-rotation-deg="36"><ellipse cx="148" cy="147" rx="61.773" ry="69.919" transform="rotate(36 148 147)" fill="#000000" stroke="#000000" fill-opacity="0.2" stroke-opacity="0.3" stroke-width="2"/></g><g><g data-channel="cell" data-cell-index="0" data-cell-row="0" data-cell-col="0" data-surround-bits="0x65b877" data-edge-color="#000000" data-cell-quartile="1"><rect x="34" y="37" width="48" height="20" fill="#b6ae5a"/><text x="58" y="47" fill="#000000" font-size="12" text-anchor="middle" dominant-baseline="central">5aaeb6</text><polygon points="34,37 44,37 34,47" fill="#000000"/></g><g data-channel="cell" data-cell-index="1" data-cell-row="0" data-cell-col="1" data-surround-bits="0x8dc13b" data-edge-color="#000000" data-cell-quartile="2"><rect x="94" y="37" width="48" height="20" fill="#3e3f05"/><text x="118" y="47" fill="#ffffff" font-size="12" text-anchor="middle" dominant-baseline="central">053f3e</text><polygon points="142,37 132,37 142,47" fill="#ffffff"/></g><g data-channel="cell" data-cell-index="2" data-cell-row="0" data-cell-col="2" data-surround-bits="0xe864af" data-edge-color="#ffffff" data-cell-quartile="4"><rect x="154" y="37" width="48" height="20" fill="#b9c994"/><text x="178" y="47" fill="#000000" font-size="12" text-anchor="middle" dominant-baseline="central">94c9b9</text><polygon points="154,57 154,47 164,57" fill="#000000"/></g><g data-channel="cell" data-cell-index="3" data-cell-row="1" data-cell-col="0" data-cell-blank="true" data-cell-blank-map="true"><rect x="34" y="77" width="48" height="20" rx="10" ry="10" fill="#ffffff" stroke="#000000" stroke-width="1"/><circle cx="74" cy="93.667" r="3.5" fill="#1d4ed8" data-blank-map-min="2,2"/><path d="M 69.8,87 H 78.2 M 74,82.8 V 91.2" fill="none" stroke="#d62828" stroke-width="1.925" stroke-linecap="butt" data-blank-map-max="1,2"/></g><g data-channel="cell" data-cell-index="4" data-cell-row="1" data-cell-col="1" data-surround-bits="0xa8f1de" data-edge-color="#2f3fbf"><rect x="94" y="77" width="48" height="20" fill="#339fa0"/><text x="118" y="87" fill="#000000" font-size="12" text-anchor="middle" dominant-baseline="central">a09f33</text></g><g data-channel="cell" data-cell-index="5" data-cell-row="1" data-cell-col="2" data-surround-bits="0xed5547" data-edge-color="#2f3fbf"><rect x="154" y="77" width="48" height="20" fill="#359466"/><text x="178" y="87" fill="#ffffff" font-size="12" text-anchor="middle" dominant-baseline="central">669435</text></g><g data-channel="cell" data-cell-index="6" data-cell-row="2" data-cell-col="0" data-surround-bits="0x239cd1" data-edge-color="#ffffff" data-cell-quartile="3"><rect x="34" y="117" width="48" height="20" fill="#1befe7"/><text x="58" y="127" fill="#000000" font-size="12" text-anchor="middle" dominant-baseline="central">e7ef1b</text><polygon points="82,137 82,127 72,137" fill="#000000"/></g><g data-channel="cell" data-cell-index="7" data-cell-row="2" data-cell-col="1" data-cell-blank="true"><rect x="94" y="117" width="48" height="20" rx="10" ry="10" fill="#ffffff" stroke="#000000" stroke-width="1"/></g><g data-channel="cell" data-cell-index="8" data-cell-row="2" data-cell-col="2" data-surround-bits="0x207fb9" data-edge-color="#ffffff"><rect x="154" y="117" width="48" height="20" fill="#ededea"/><text x="178" y="127" fill="#000000" font-size="12" text-anchor="middle" dominant-baseline="central">eaed</text></g></g></g><g data-channel="color-bar" data-bar-slots="12" data-bar-marker-left="3" data-bar-marker-right="2"><g data-color-bar-rank="0" data-color-bar-band="R"><rect x="2" y="2" width="20" height="32.474" fill="#ff3f2f"/><text x="12" y="31.834" fill="#000000" font-size="12" text-anchor="middle" data-color-bar-letter="true">r</text></g><g data-color-bar-rank="1" data-color-bar-band="B"><rect x="2" y="34.474" width="20" height="28.482" fill="#2f3fbf"/><text x="12" y="60.315" fill="#ffffff" font-size="12" text-anchor="middle" data-color-bar-letter="true">b</text></g><g data-color-bar-rank="2" data-color-bar-band="W"><rect x="2" y="62.955" width="20" height="49.815" fill="#ffffff"/><text x="12" y="110.13" fill="#000000" font-size="12" text-anchor="middle" data-color-bar-letter="true">w</text></g><g data-color-bar-rank="3" data-color-bar-band="K"><rect x="2" y="112.77" width="20" height="39.23" fill="#000000"/><text x="12" y="149.36" fill="#ffffff" font-size="12" text-anchor="middle" data-color-bar-letter="true">k</text></g><circle cx="6.6" cy="45.75" r="3.4" fill="#ffffff" stroke="#000000" stroke-width="0.75" data-bar-marker="left"/><circle cx="17.4" cy="33.25" r="3.4" fill="#ffffff" stroke="#000000" stroke-width="0.75" data-bar-marker="right"/></g><g data-channel="label-top"><text x="28" y="17" fill="#666666" font-size="12" dominant-baseline="central">ETH: 0x...</text></g><line x1="1" y1="1.5" x2="214" y2="1.5" stroke="#808080" stroke-width="1" shape-rendering="crispEdges"/><line x1="213.5" y1="1" x2="213.5" y2="153" stroke="#808080" stroke-width="1" shape-rendering="crispEdges"/><line x1="1" y1="152.5" x2="214" y2="152.5" stroke="#808080" stroke-width="1" shape-rendering="crispEdges"/><line x1="1.5" y1="1" x2="1.5" y2="153" stroke="#808080" stroke-width="1" shape-rendering="crispEdges"/><line x1="22.5" y1="1" x2="22.5" y2="153" stroke="#808080" stroke-width="1" shape-rendering="crispEdges"/></svg>