<svg width="213" height="152" viewBox="0 0 213 152" xmlns="http://www.w3.org/2000/svg" font-family="&quot;JetBrains Mono&quot;, &quot;Menlo&quot;, &quot;Consolas&quot;, &quot;DejaVu Sans Mono&quot;, &quot;Liberation Mono&quot;, &quot;Roboto Mono&quot;, &quot;Noto Sans Mono&quot;, monospace" data-entviz-version="v11" data-entviz-lib="0.11.0" data-input-bytes="37" data-cols="3" data-rows="3"><defs><clipPath id="grid-clip-04797dd5d2ddc81f-3x3"><rect x="27" y="26" width="180" height="120"/></clipPath></defs><rect x="0" y="0" width="213" height="152" fill="#ffffff"/><g data-channel="grid"><rect x="27" y="26" width="180" height="120" fill="#ffffff"/><g><path fill="#ff3f2f" d="M27 26h6v10h-6zM39 26h6v10h-6zM45 26h6v10h-6zM51 26h6v10h-6zM57 26h6v10h-6zM63 26h6v10h-6zM75 26h6v10h-6zM81 46h6v10h-6zM81 56h6v10h-6zM75 56h6v10h-6zM69 56h6v10h-6zM45 56h6v10h-6z"/><path fill="#2f3fbf" d="M87 26h6v10h-6zM99 26h6v10h-6zM105 26h6v10h-6zM111 26h6v10h-6zM123 26h6v10h-6zM129 26h6v10h-6zM141 26h6v10h-6zM141 56h6v10h-6zM129 56h6v10h-6zM123 56h6v10h-6zM117 56h6v10h-6zM105 56h6v10h-6zM93 56h6v10h-6zM87 46h6v10h-6zM87 36h6v10h-6z"/><path fill="#2f3fbf" d="M147 26h6v10h-6zM153 26h6v10h-6zM171 26h6v10h-6zM195 26h6v10h-6zM201 26h6v10h-6zM201 36h6v10h-6zM201 46h6v10h-6zM201 56h6v10h-6zM159 56h6v10h-6zM147 46h6v10h-6zM147 36h6v10h-6z"/><path fill="#2f3fbf" d="M33 66h6v10h-6zM51 66h6v10h-6zM81 66h6v10h-6zM75 96h6v10h-6zM69 96h6v10h-6zM63 96h6v10h-6zM45 96h6v10h-6zM39 96h6v10h-6zM33 96h6v10h-6zM27 76h6v10h-6z"/><path fill="#2f3fbf" d="M87 66h6v10h-6zM93 66h6v10h-6zM99 66h6v10h-6zM105 66h6v10h-6zM117 66h6v10h-6zM123 66h6v10h-6zM129 66h6v10h-6zM141 96h6v10h-6zM123 96h6v10h-6zM105 96h6v10h-6zM99 96h6v10h-6zM93 96h6v10h-6zM87 76h6v10h-6z"/><path fill="#e7be00" d="M165 66h6v10h-6zM171 66h6v10h-6zM195 66h6v10h-6zM201 66h6v10h-6zM201 76h6v10h-6zM201 96h6v10h-6zM195 96h6v10h-6zM189 96h6v10h-6zM177 96h6v10h-6zM171 96h6v10h-6zM159 96h6v10h-6zM147 96h6v10h-6zM147 76h6v10h-6z"/><path fill="#ff3f2f" d="M27 106h6v10h-6zM39 106h6v10h-6zM45 106h6v10h-6zM63 106h6v10h-6zM69 106h6v10h-6zM75 106h6v10h-6zM81 116h6v10h-6zM81 136h6v10h-6zM75 136h6v10h-6zM51 136h6v10h-6zM45 136h6v10h-6zM39 136h6v10h-6zM33 136h6v10h-6zM27 126h6v10h-6zM27 116h6v10h-6z"/><path fill="#e7be00" d="M159 106h6v10h-6zM177 106h6v10h-6zM189 106h6v10h-6zM201 106h6v10h-6zM201 126h6v10h-6zM195 136h6v10h-6zM189 136h6v10h-6zM177 136h6v10h-6zM171 136h6v10h-6zM165 136h6v10h-6zM153 136h6v10h-6zM147 126h6v10h-6z"/></g><g clip-path="url(#grid-clip-04797dd5d2ddc81f-3x3)" data-channel="ellipse" data-ellipse-anchor-x="87" data-ellipse-anchor-y="26" data-ellipse-rx="49.554" data-ellipse-ry="69.919" data-ellipse-rotation-deg="48"><ellipse cx="87" cy="26" rx="49.554" ry="69.919" transform="rotate(48 87 26)" fill="#000000" stroke="#000000" fill-opacity="0.2" stroke-opacity="0.3" stroke-width="2"/></g><g><g data-channel="cell" data-cell-index="0" data-cell-row="0" data-cell-col="0" data-surround-bits="0x4797d" data-edge-color="#ff3f2f" data-cell-quartile="1"><rect x="33" y="36" width="48" height="20" fill="#a6167b"/><text x="57" y="46" fill="#ffffff" font-size="16" text-anchor="middle" dominant-baseline="central">exam</text><polygon points="33,36 43,36 33,46" fill="#ffffff"/></g><g data-channel="cell" data-cell-index="1" data-cell-row="0" data-cell-col="1" data-surround-bits="0xd5d2dd" data-edge-color="#2f3fbf"><rect x="93" y="36" width="48" height="20" fill="#8057a6"/><text x="117" y="46" fill="#ffffff" font-size="16" text-anchor="middle" dominant-baseline="central">ple.</text></g><g data-channel="cell" data-cell-index="2" data-cell-row="0" data-cell-col="2" data-surround-bits="0xc81f13" data-edge-color="#2f3fbf"><rect x="153" y="36" width="48" height="20" fill="#808972"/><text x="177" y="46" fill="#000000" font-size="16" text-anchor="middle" dominant-baseline="central">com%</text></g><g data-channel="cell" data-cell-index="3" data-cell-row="1" data-cell-col="0" data-surround-bits="0x9ce212" data-edge-color="#2f3fbf" data-cell-quartile="2"><rect x="33" y="76" width="48" height="20" fill="#f40ddc"/><text x="57" y="86" fill="#000000" font-size="16" text-anchor="middle" dominant-baseline="central">3A30</text><polygon points="81,76 71,76 81,86" fill="#000000"/></g><g data-channel="cell" data-cell-index="4" data-cell-row="1" data-cell-col="1" data-surround-bits="0x9c90ef" data-edge-color="#2f3fbf"><rect x="93" y="76" width="48" height="20" fill="#2e40d3"/><text x="117" y="86" fill="#ffffff" font-size="16" text-anchor="middle" dominant-baseline="central">00:u</text></g><g data-channel="cell" data-cell-index="5" data-cell-row="1" data-cell-col="2" data-surround-bits="0xab7718" data-edge-color="#e7be00" data-cell-quartile="3"><rect x="153" y="76" width="48" height="20" fill="#c0eab1"/><text x="177" y="86" fill="#000000" font-size="16" text-anchor="middle" dominant-baseline="central">ser:</text><polygon points="201,96 201,86 191,96" fill="#000000"/></g><g data-channel="cell" data-cell-index="6" data-cell-row="2" data-cell-col="0" data-surround-bits="0xde35cd" data-edge-color="#ff3f2f"><rect x="33" y="116" width="48" height="20" fill="#9c586a"/><text x="57" y="126" fill="#ffffff" font-size="16" text-anchor="middle" dominant-baseline="central">alic</text></g><g data-channel="cell" data-cell-index="7" data-cell-row="2" data-cell-col="1" data-cell-blank="true" data-cell-blank-map="true"><rect x="93" y="116" width="48" height="20" rx="10" ry="10" fill="#000000" stroke="#000000" stroke-width="1"/><circle cx="101" cy="119.333" r="3.5" fill="#ffffff" data-blank-map-min="0,0"/><path d="M 96.8,132.667 H 105.2 M 101,128.467 V 136.867" fill="none" stroke="#ffffff" stroke-width="1.925" stroke-linecap="butt" data-blank-map-max="2,0"/></g><g data-channel="cell" data-cell-index="8" data-cell-row="2" data-cell-col="2" data-surround-bits="0x576aa4" data-edge-color="#e7be00" data-cell-quartile="4"><rect x="153" y="116" width="48" height="20" fill="#9ee779"/><text x="177" y="126" fill="#000000" font-size="16" text-anchor="middle" dominant-baseline="central">e</text><polygon points="153,136 153,126 163,136" fill="#000000"/></g></g></g><g data-channel="color-bar" data-bar-slots="12" data-bar-marker-left="2" data-bar-marker-right="9"><g data-color-bar-rank="0" data-color-bar-band="G"><rect x="1" y="1" width="20" height="37.151" fill="#e7be00"/><text x="11" y="34.631" fill="#000000" font-size="16" text-anchor="middle" data-color-bar-letter="true">g</text></g><g data-color-bar-rank="1" data-color-bar-band="R"><rect x="1" y="38.151" width="20" height="39.528" fill="#ff3f2f"/><text x="11" y="74.159" fill="#000000" font-size="16" text-anchor="middle" data-color-bar-letter="true">r</text></g><g data-color-bar-rank="2" data-color-bar-band="B"><rect x="1" y="77.679" width="20" height="44.622" fill="#2f3fbf"/><text x="11" y="118.782" fill="#ffffff" font-size="16" text-anchor="middle" data-color-bar-letter="true">b</text></g><g data-color-bar-rank="3" data-color-bar-band="K"><rect x="1" y="122.302" width="20" height="28.698" fill="#000000"/><text x="11" y="147.48" fill="#ffffff" font-size="16" text-anchor="middle" data-color-bar-letter="true">k</text></g><circle cx="5.6" cy="32.25" r="3.4" fill="#ffffff" stroke="#000000" stroke-width="0.75" data-bar-marker="left"/><circle cx="16.4" cy="119.75" r="3.4" fill="#ffffff" stroke="#000000" stroke-width="0.75" data-bar-marker="right"/></g><g data-channel="label-top"><text x="27" y="16" fill="#666666" font-size="12" dominant-baseline="central">did:web:...</text></g><line x1="0" y1="0.5" x2="213" y2="0.5" stroke="#808080" stroke-width="1" shape-rendering="crispEdges"/><line x1="212.5" y1="0" x2="212.5" y2="152" stroke="#808080" stroke-width="1" shape-rendering="crispEdges"/><line x1="0" y1="151.5" x2="213" y2="151.5" stroke="#808080" stroke-width="1" shape-rendering="crispEdges"/><line x1="0.5" y1="0" x2="0.5" y2="152" stroke="#808080" stroke-width="1" shape-rendering="crispEdges"/><line x1="21.5" y1="0" x2="21.5" y2="152" stroke="#808080" stroke-width="1" shape-rendering="crispEdges"/></svg>