<svg width="215" height="154" viewBox="0 0 215 154" xmlns="http://www.w3.org/2000/svg" font-family="&quot;JetBrains Mono&quot;, &quot;Menlo&quot;, &quot;Consolas&quot;, &quot;DejaVu Sans Mono&quot;, &quot;Liberation Mono&quot;, &quot;Roboto Mono&quot;, &quot;Noto Sans Mono&quot;, monospace" data-entviz-version="v13" data-entviz-lib="0.13.0" data-input-bytes="37" data-cols="3" data-rows="3" data-encoding="base64url" data-scheme="did" data-role="identifier" data-size-basis="utf8" data-entropy-type="did" data-size-bits="232" data-qualifiers="{&quot;method&quot;:&quot;web&quot;}" data-parts="[{&quot;text&quot;:&quot;did:web:&quot;,&quot;bind&quot;:&quot;fold&quot;},{&quot;text&quot;:&quot;example.com%3A3000:user:alice&quot;,&quot;bind&quot;:&quot;core&quot;}]"><defs><clipPath id="grid-clip-04797dd5d2ddc81f-3x3"><rect x="28" y="27" width="180" height="120"/></clipPath></defs><rect x="1" y="1" width="213" height="152" fill="#ffffff"/><g data-channel="grid"><rect x="28" y="27" width="180" height="120" fill="#ffffff"/><g><path fill="#ff3f2f" d="M28 27h6v10h-6zM40 27h6v10h-6zM46 27h6v10h-6zM52 27h6v10h-6zM58 27h6v10h-6zM64 27h6v10h-6zM76 27h6v10h-6zM82 47h6v10h-6zM82 57h6v10h-6zM76 57h6v10h-6zM70 57h6v10h-6zM46 57h6v10h-6z"/><path fill="#2f3fbf" d="M88 27h6v10h-6zM100 27h6v10h-6zM106 27h6v10h-6zM112 27h6v10h-6zM124 27h6v10h-6zM130 27h6v10h-6zM142 27h6v10h-6zM142 57h6v10h-6zM130 57h6v10h-6zM124 57h6v10h-6zM118 57h6v10h-6zM106 57h6v10h-6zM94 57h6v10h-6zM88 47h6v10h-6zM88 37h6v10h-6z"/><path fill="#2f3fbf" d="M148 27h6v10h-6zM154 27h6v10h-6zM172 27h6v10h-6zM196 27h6v10h-6zM202 27h6v10h-6zM202 37h6v10h-6zM202 47h6v10h-6zM202 57h6v10h-6zM160 57h6v10h-6zM148 47h6v10h-6zM148 37h6v10h-6z"/><path fill="#2f3fbf" d="M34 67h6v10h-6zM52 67h6v10h-6zM82 67h6v10h-6zM76 97h6v10h-6zM70 97h6v10h-6zM64 97h6v10h-6zM46 97h6v10h-6zM40 97h6v10h-6zM34 97h6v10h-6zM28 77h6v10h-6z"/><path fill="#2f3fbf" d="M88 67h6v10h-6zM94 67h6v10h-6zM100 67h6v10h-6zM106 67h6v10h-6zM118 67h6v10h-6zM124 67h6v10h-6zM130 67h6v10h-6zM142 97h6v10h-6zM124 97h6v10h-6zM106 97h6v10h-6zM100 97h6v10h-6zM94 97h6v10h-6zM88 77h6v10h-6z"/><path fill="#e7be00" d="M166 67h6v10h-6zM172 67h6v10h-6zM196 67h6v10h-6zM202 67h6v10h-6zM202 77h6v10h-6zM202 97h6v10h-6zM196 97h6v10h-6zM190 97h6v10h-6zM178 97h6v10h-6zM172 97h6v10h-6zM160 97h6v10h-6zM148 97h6v10h-6zM148 77h6v10h-6z"/><path fill="#ff3f2f" d="M28 107h6v10h-6zM40 107h6v10h-6zM46 107h6v10h-6zM64 107h6v10h-6zM70 107h6v10h-6zM76 107h6v10h-6zM82 117h6v10h-6zM82 137h6v10h-6zM76 137h6v10h-6zM52 137h6v10h-6zM46 137h6v10h-6zM40 137h6v10h-6zM34 137h6v10h-6zM28 127h6v10h-6zM28 117h6v10h-6z"/><path fill="#e7be00" d="M160 107h6v10h-6zM178 107h6v10h-6zM190 107h6v10h-6zM202 107h6v10h-6zM202 127h6v10h-6zM196 137h6v10h-6zM190 137h6v10h-6zM178 137h6v10h-6zM172 137h6v10h-6zM166 137h6v10h-6zM154 137h6v10h-6zM148 127h6v10h-6z"/></g><g clip-path="url(#grid-clip-04797dd5d2ddc81f-3x3)" data-channel="ellipse" data-ellipse-anchor-x="88" data-ellipse-anchor-y="27" data-ellipse-rx="49.554" data-ellipse-ry="69.919" data-ellipse-rotation-deg="48"><ellipse cx="88" cy="27" rx="49.554" ry="69.919" transform="rotate(48 88 27)" fill="#000000" stroke="#000000" fill-opacity="0.2" stroke-opacity="0.3" stroke-width="2"/></g><g><g data-channel="cell" data-cell-index="0" data-cell-row="0" data-cell-col="0" data-surround-bits="0x4797d" data-edge-color="#ff3f2f" data-cell-quartile="1"><rect x="34" y="37" width="48" height="20" fill="#a6167b"/><text x="58" y="47" fill="#ffffff" font-size="16" text-anchor="middle" dominant-baseline="central">exam</text><polygon points="34,37 44,37 34,47" fill="#ffffff"/></g><g data-channel="cell" data-cell-index="1" data-cell-row="0" data-cell-col="1" data-surround-bits="0xd5d2dd" data-edge-color="#2f3fbf"><rect x="94" y="37" width="48" height="20" fill="#8057a6"/><text x="118" y="47" fill="#ffffff" font-size="16" text-anchor="middle" dominant-baseline="central">ple.</text></g><g data-channel="cell" data-cell-index="2" data-cell-row="0" data-cell-col="2" data-surround-bits="0xc81f13" data-edge-color="#2f3fbf"><rect x="154" y="37" width="48" height="20" fill="#808972"/><text x="178" y="47" fill="#000000" font-size="16" text-anchor="middle" dominant-baseline="central">com%</text></g><g data-channel="cell" data-cell-index="3" data-cell-row="1" data-cell-col="0" data-surround-bits="0x9ce212" data-edge-color="#2f3fbf" data-cell-quartile="2"><rect x="34" y="77" width="48" height="20" fill="#f40ddc"/><text x="58" y="87" fill="#000000" font-size="16" text-anchor="middle" dominant-baseline="central">3A30</text><polygon points="82,77 72,77 82,87" fill="#000000"/></g><g data-channel="cell" data-cell-index="4" data-cell-row="1" data-cell-col="1" data-surround-bits="0x9c90ef" data-edge-color="#2f3fbf"><rect x="94" y="77" width="48" height="20" fill="#2e40d3"/><text x="118" y="87" fill="#ffffff" font-size="16" text-anchor="middle" dominant-baseline="central">00:u</text></g><g data-channel="cell" data-cell-index="5" data-cell-row="1" data-cell-col="2" data-surround-bits="0xab7718" data-edge-color="#e7be00" data-cell-quartile="3"><rect x="154" y="77" width="48" height="20" fill="#c0eab1"/><text x="178" y="87" fill="#000000" font-size="16" text-anchor="middle" dominant-baseline="central">ser:</text><polygon points="202,97 202,87 192,97" fill="#000000"/></g><g data-channel="cell" data-cell-index="6" data-cell-row="2" data-cell-col="0" data-surround-bits="0xde35cd" data-edge-color="#ff3f2f"><rect x="34" y="117" width="48" height="20" fill="#9c586a"/><text x="58" y="127" fill="#ffffff" font-size="16" text-anchor="middle" dominant-baseline="central">alic</text></g><g data-channel="cell" data-cell-index="7" data-cell-row="2" data-cell-col="1" data-cell-blank="true" data-cell-blank-map="true"><rect x="94" y="117" width="48" height="20" rx="10" ry="10" fill="#000000" stroke="#000000" stroke-width="1"/><circle cx="102" cy="120.333" r="3.5" fill="#ffffff" data-blank-map-min="0,0"/><path d="M 97.8,133.667 H 106.2 M 102,129.467 V 137.867" fill="none" stroke="#ffffff" stroke-width="1.925" stroke-linecap="butt" data-blank-map-max="2,0"/></g><g data-channel="cell" data-cell-index="8" data-cell-row="2" data-cell-col="2" data-surround-bits="0x576aa4" data-edge-color="#e7be00" data-cell-quartile="4"><rect x="154" y="117" width="48" height="20" fill="#9ee779"/><text x="178" y="127" fill="#000000" font-size="16" text-anchor="middle" dominant-baseline="central">e</text><polygon points="154,137 154,127 164,137" fill="#000000"/></g></g></g><g data-channel="color-bar" data-bar-slots="12" data-bar-marker-left="2" data-bar-marker-right="9"><g data-color-bar-rank="0" data-color-bar-band="G"><rect x="2" y="2" width="20" height="37.151" fill="#e7be00"/><text x="12" y="35.631" fill="#000000" font-size="16" text-anchor="middle" data-color-bar-letter="true">g</text></g><g data-color-bar-rank="1" data-color-bar-band="R"><rect x="2" y="39.151" width="20" height="39.528" fill="#ff3f2f"/><text x="12" y="75.159" fill="#000000" font-size="16" text-anchor="middle" data-color-bar-letter="true">r</text></g><g data-color-bar-rank="2" data-color-bar-band="B"><rect x="2" y="78.679" width="20" height="44.622" fill="#2f3fbf"/><text x="12" y="119.782" fill="#ffffff" font-size="16" text-anchor="middle" data-color-bar-letter="true">b</text></g><g data-color-bar-rank="3" data-color-bar-band="K"><rect x="2" y="123.302" width="20" height="28.698" fill="#000000"/><text x="12" y="148.48" fill="#ffffff" font-size="16" text-anchor="middle" data-color-bar-letter="true">k</text></g><circle cx="6.6" cy="33.25" r="3.4" fill="#ffffff" stroke="#000000" stroke-width="0.75" data-bar-marker="left"/><circle cx="17.4" cy="120.75" r="3.4" fill="#ffffff" stroke="#000000" stroke-width="0.75" data-bar-marker="right"/></g><g data-channel="label-top"><text x="28" y="17" fill="#666666" font-size="12" dominant-baseline="central">did:web:...</text></g><line x1="1" y1="1.5" x2="214" y2="1.5" stroke="#808080" stroke-width="1" shape-rendering="crispEdges"/><line x1="213.5" y1="1" x2="213.5" y2="153" stroke="#808080" stroke-width="1" shape-rendering="crispEdges"/><line x1="1" y1="152.5" x2="214" y2="152.5" stroke="#808080" stroke-width="1" shape-rendering="crispEdges"/><line x1="1.5" y1="1" x2="1.5" y2="153" stroke="#808080" stroke-width="1" shape-rendering="crispEdges"/><line x1="22.5" y1="1" x2="22.5" y2="153" stroke="#808080" stroke-width="1" shape-rendering="crispEdges"/></svg>