<svg width="153.0" height="152.0" viewBox="0 0 153.0 152.0" xmlns="http://www.w3.org/2000/svg" data-entviz-version="v9" data-entviz-lib="0.9.1" data-input-bytes="36" data-cols="2" data-rows="3"><defs><clipPath id="grid-clip-98b6d128682e280b-2x3"><rect x="27.0" y="26.0" width="120.0" height="120.0"/></clipPath></defs><rect x="0" y="0" width="153.0" height="152.0" fill="#ffffff"/><g data-channel="grid"><rect x="27.0" y="26.0" width="120.0" height="120.0" fill="#ff3f2f"/><g><rect x="27.0" y="26.0" width="6.0" height="10.0" fill="#000000"/><rect x="51.0" y="26.0" width="6.0" height="10.0" fill="#000000"/><rect x="63.0" y="26.0" width="6.0" height="10.0" fill="#000000"/><rect x="69.0" y="26.0" width="6.0" height="10.0" fill="#000000"/><rect x="81.0" y="26.0" width="6.0" height="10.0" fill="#000000"/><rect x="81.0" y="36.0" width="6.0" height="10.0" fill="#000000"/><rect x="81.0" y="56.0" width="6.0" height="10.0" fill="#000000"/><rect x="75.0" y="56.0" width="6.0" height="10.0" fill="#000000"/><rect x="63.0" y="56.0" width="6.0" height="10.0" fill="#000000"/><rect x="39.0" y="56.0" width="6.0" height="10.0" fill="#000000"/><rect x="33.0" y="56.0" width="6.0" height="10.0" fill="#000000"/><rect x="27.0" y="36.0" width="6.0" height="10.0" fill="#000000"/><rect x="93.0" y="26.0" width="6.0" height="10.0" fill="#000000"/><rect x="99.0" y="26.0" width="6.0" height="10.0" fill="#000000"/><rect x="105.0" y="26.0" width="6.0" height="10.0" fill="#000000"/><rect x="117.0" y="26.0" width="6.0" height="10.0" fill="#000000"/><rect x="141.0" y="46.0" width="6.0" height="10.0" fill="#000000"/><rect x="135.0" y="56.0" width="6.0" height="10.0" fill="#000000"/><rect x="129.0" y="56.0" width="6.0" height="10.0" fill="#000000"/><rect x="99.0" y="56.0" width="6.0" height="10.0" fill="#000000"/><rect x="87.0" y="56.0" width="6.0" height="10.0" fill="#000000"/><rect x="39.0" y="66.0" width="6.0" height="10.0" fill="#000000"/><rect x="51.0" y="66.0" width="6.0" height="10.0" fill="#000000"/><rect x="57.0" y="66.0" width="6.0" height="10.0" fill="#000000"/><rect x="63.0" y="66.0" width="6.0" height="10.0" fill="#000000"/><rect x="75.0" y="66.0" width="6.0" height="10.0" fill="#000000"/><rect x="81.0" y="66.0" width="6.0" height="10.0" fill="#000000"/><rect x="81.0" y="86.0" width="6.0" height="10.0" fill="#000000"/><rect x="39.0" y="96.0" width="6.0" height="10.0" fill="#000000"/><rect x="27.0" y="96.0" width="6.0" height="10.0" fill="#000000"/><rect x="93.0" y="66.0" width="6.0" height="10.0" fill="#000000"/><rect x="105.0" y="66.0" width="6.0" height="10.0" fill="#000000"/><rect x="123.0" y="66.0" width="6.0" height="10.0" fill="#000000"/><rect x="129.0" y="66.0" width="6.0" height="10.0" fill="#000000"/><rect x="141.0" y="76.0" width="6.0" height="10.0" fill="#000000"/><rect x="135.0" y="96.0" width="6.0" height="10.0" fill="#000000"/><rect x="117.0" y="96.0" width="6.0" height="10.0" fill="#000000"/><rect x="111.0" y="96.0" width="6.0" height="10.0" fill="#000000"/><rect x="93.0" y="96.0" width="6.0" height="10.0" fill="#000000"/><rect x="87.0" y="96.0" width="6.0" height="10.0" fill="#000000"/><rect x="87.0" y="76.0" width="6.0" height="10.0" fill="#000000"/><rect x="33.0" y="106.0" width="6.0" height="10.0" fill="#000000"/><rect x="45.0" y="106.0" width="6.0" height="10.0" fill="#000000"/><rect x="51.0" y="106.0" width="6.0" height="10.0" fill="#000000"/><rect x="57.0" y="106.0" width="6.0" height="10.0" fill="#000000"/><rect x="69.0" y="106.0" width="6.0" height="10.0" fill="#000000"/><rect x="81.0" y="106.0" width="6.0" height="10.0" fill="#000000"/><rect x="81.0" y="116.0" width="6.0" height="10.0" fill="#000000"/><rect x="75.0" y="136.0" width="6.0" height="10.0" fill="#000000"/><rect x="63.0" y="136.0" width="6.0" height="10.0" fill="#000000"/><rect x="51.0" y="136.0" width="6.0" height="10.0" fill="#000000"/><rect x="27.0" y="116.0" width="6.0" height="10.0" fill="#000000"/><rect x="87.0" y="106.0" width="6.0" height="10.0" fill="#000000"/><rect x="93.0" y="106.0" width="6.0" height="10.0" fill="#000000"/><rect x="117.0" y="106.0" width="6.0" height="10.0" fill="#000000"/><rect x="129.0" y="106.0" width="6.0" height="10.0" fill="#000000"/><rect x="141.0" y="126.0" width="6.0" height="10.0" fill="#000000"/><rect x="135.0" y="136.0" width="6.0" height="10.0" fill="#000000"/><rect x="129.0" y="136.0" width="6.0" height="10.0" fill="#000000"/><rect x="123.0" y="136.0" width="6.0" height="10.0" fill="#000000"/><rect x="111.0" y="136.0" width="6.0" height="10.0" fill="#000000"/><rect x="105.0" y="136.0" width="6.0" height="10.0" fill="#000000"/><rect x="87.0" y="136.0" width="6.0" height="10.0" fill="#000000"/><rect x="87.0" y="126.0" width="6.0" height="10.0" fill="#000000"/><rect x="87.0" y="116.0" width="6.0" height="10.0" fill="#000000"/></g><g clip-path="url(#grid-clip-98b6d128682e280b-2x3)" data-channel="ellipse" data-ellipse-anchor-x="147.0" data-ellipse-anchor-y="66.0" data-ellipse-rx="38.651509672973965" data-ellipse-ry="52.49682657075569" data-ellipse-rotation-deg="96.0"><ellipse cx="147.0" cy="66.0" rx="38.651509672973965" ry="52.49682657075569" transform="rotate(96.0 147.0 66.0)" fill="#000000" stroke="#000000" fill-opacity="0.25" stroke-opacity="0.35" stroke-width="2.0"/></g><g><g data-channel="cell" data-cell-index="0" data-cell-row="0" data-cell-col="0"><rect x="33.0" y="36.0" width="48.0" height="20.0" fill="#000000"/><text x="57.0" y="46.0" fill="#ffffff" style="font-family: &quot;JetBrains Mono&quot;, &quot;Menlo&quot;, &quot;Consolas&quot;, &quot;DejaVu Sans Mono&quot;, &quot;Liberation Mono&quot;, &quot;Roboto Mono&quot;, &quot;Noto Sans Mono&quot;, monospace; font-size: 12.0px;" text-anchor="middle" dominant-baseline="central">000000</text></g><g data-channel="cell" data-cell-index="1" data-cell-row="0" data-cell-col="1"><rect x="93.0" y="36.0" width="48.0" height="20.0" fill="#000000"/><text x="117.0" y="46.0" fill="#ffffff" style="font-family: &quot;JetBrains Mono&quot;, &quot;Menlo&quot;, &quot;Consolas&quot;, &quot;DejaVu Sans Mono&quot;, &quot;Liberation Mono&quot;, &quot;Roboto Mono&quot;, &quot;Noto Sans Mono&quot;, monospace; font-size: 12.0px;" text-anchor="middle" dominant-baseline="central">000000</text></g><g data-channel="cell" data-cell-index="2" data-cell-row="1" data-cell-col="0" data-cell-quartile="1"><rect x="33.0" y="76.0" width="48.0" height="20.0" fill="#000000"/><text x="57.0" y="86.0" fill="#ffffff" style="font-family: &quot;JetBrains Mono&quot;, &quot;Menlo&quot;, &quot;Consolas&quot;, &quot;DejaVu Sans Mono&quot;, &quot;Liberation Mono&quot;, &quot;Roboto Mono&quot;, &quot;Noto Sans Mono&quot;, monospace; font-size: 12.0px;" text-anchor="middle" dominant-baseline="central">000000</text><polygon points="33.0,76.0 43.0,76.0 33.0,86.0" fill="#ffffff"/></g><g data-channel="cell" data-cell-index="3" data-cell-row="1" data-cell-col="1" data-cell-quartile="2"><rect x="93.0" y="76.0" width="48.0" height="20.0" fill="#000000"/><text x="117.0" y="86.0" fill="#ffffff" style="font-family: &quot;JetBrains Mono&quot;, &quot;Menlo&quot;, &quot;Consolas&quot;, &quot;DejaVu Sans Mono&quot;, &quot;Liberation Mono&quot;, &quot;Roboto Mono&quot;, &quot;Noto Sans Mono&quot;, monospace; font-size: 12.0px;" text-anchor="middle" dominant-baseline="central">000000</text><polygon points="141.0,76.0 131.0,76.0 141.0,86.0" fill="#ffffff"/></g><g data-channel="cell" data-cell-index="4" data-cell-row="2" data-cell-col="0"><rect x="33.0" y="116.0" width="48.0" height="20.0" fill="#000000"/><text x="57.0" y="126.0" fill="#ffffff" style="font-family: &quot;JetBrains Mono&quot;, &quot;Menlo&quot;, &quot;Consolas&quot;, &quot;DejaVu Sans Mono&quot;, &quot;Liberation Mono&quot;, &quot;Roboto Mono&quot;, &quot;Noto Sans Mono&quot;, monospace; font-size: 12.0px;" text-anchor="middle" dominant-baseline="central">000000</text></g><g data-channel="cell" data-cell-index="5" data-cell-row="2" data-cell-col="1" data-cell-quartile="3"><rect x="93.0" y="116.0" width="48.0" height="20.0" fill="#000000"/><text x="117.0" y="126.0" fill="#ffffff" style="font-family: &quot;JetBrains Mono&quot;, &quot;Menlo&quot;, &quot;Consolas&quot;, &quot;DejaVu Sans Mono&quot;, &quot;Liberation Mono&quot;, &quot;Roboto Mono&quot;, &quot;Noto Sans Mono&quot;, monospace; font-size: 12.0px;" text-anchor="middle" dominant-baseline="central">00</text><polygon points="141.0,136.0 141.0,126.0 131.0,136.0" fill="#ffffff"/></g></g></g><g data-channel="color-bar" data-bar-slots="12" data-bar-marker-square="10" data-bar-marker-triangle="4"><g data-color-bar-rank="0" data-color-bar-band="W"><rect x="1" y="1" width="20.0" height="42.17751147234702" fill="#ffffff"/><text x="11.0" y="40.53751147234702" fill="#000000" style="font-family: &quot;JetBrains Mono&quot;, &quot;Menlo&quot;, &quot;Consolas&quot;, &quot;DejaVu Sans Mono&quot;, &quot;Liberation Mono&quot;, &quot;Roboto Mono&quot;, &quot;Noto Sans Mono&quot;, monospace; font-size: 12.0px;" text-anchor="middle" data-color-bar-letter="true">w</text></g><g data-color-bar-rank="1" data-color-bar-band="B"><rect x="1" y="43.17751147234702" width="20.0" height="56.01917928817937" fill="#2f3fbf"/><text x="11.0" y="96.5566907605264" fill="#ffffff" style="font-family: &quot;JetBrains Mono&quot;, &quot;Menlo&quot;, &quot;Consolas&quot;, &quot;DejaVu Sans Mono&quot;, &quot;Liberation Mono&quot;, &quot;Roboto Mono&quot;, &quot;Noto Sans Mono&quot;, monospace; font-size: 12.0px;" text-anchor="middle" data-color-bar-letter="true">b</text></g><g data-color-bar-rank="2" data-color-bar-band="G"><rect x="1" y="99.1966907605264" width="20.0" height="42.17751147234702" fill="#e7be00"/><text x="11.0" y="138.73420223287343" fill="#000000" style="font-family: &quot;JetBrains Mono&quot;, &quot;Menlo&quot;, &quot;Consolas&quot;, &quot;DejaVu Sans Mono&quot;, &quot;Liberation Mono&quot;, &quot;Roboto Mono&quot;, &quot;Noto Sans Mono&quot;, monospace; font-size: 12.0px;" text-anchor="middle" data-color-bar-letter="true">g</text></g><g data-color-bar-rank="3" data-color-bar-band="K"><rect x="1" y="141.37420223287342" width="20.0" height="9.625797767126585" fill="#000000"/><text x="11.0" y="148.36" fill="#ffffff" style="font-family: &quot;JetBrains Mono&quot;, &quot;Menlo&quot;, &quot;Consolas&quot;, &quot;DejaVu Sans Mono&quot;, &quot;Liberation Mono&quot;, &quot;Roboto Mono&quot;, &quot;Noto Sans Mono&quot;, monospace; font-size: 12.0px;" text-anchor="middle" data-color-bar-letter="true">k</text></g><rect x="2.1999999999999997" y="129.45" width="5.6000000000000005" height="5.6000000000000005" fill="#ffffff" stroke="#000000" stroke-width="0.75" data-bar-marker="square"/><polygon points="17.0,54.45 14.2,60.05 19.8,60.05" fill="#ffffff" stroke="#000000" stroke-width="0.75" data-bar-marker="triangle"/></g><g data-channel="label-top"><text x="27.0" y="16.0" fill="#666666" style="font-family: &quot;JetBrains Mono&quot;, &quot;Menlo&quot;, &quot;Consolas&quot;, &quot;DejaVu Sans Mono&quot;, &quot;Liberation Mono&quot;, &quot;Roboto Mono&quot;, &quot;Noto Sans Mono&quot;, monospace; font-size: 12.0px;" dominant-baseline="central">UUID:</text></g><line x1="0" y1="0.5" x2="153.0" y2="0.5" stroke="#808080" stroke-width="1" shape-rendering="crispEdges"/><line x1="152.5" y1="0" x2="152.5" y2="152.0" stroke="#808080" stroke-width="1" shape-rendering="crispEdges"/><line x1="0" y1="151.5" x2="153.0" y2="151.5" stroke="#808080" stroke-width="1" shape-rendering="crispEdges"/><line x1="0.5" y1="0" x2="0.5" y2="152.0" stroke="#808080" stroke-width="1" shape-rendering="crispEdges"/><line x1="21.5" y1="0" x2="21.5" y2="152.0" stroke="#808080" stroke-width="1" shape-rendering="crispEdges"/></svg>