<svg width="143.0" height="157.0" viewBox="0 0 143.0 157.0" xmlns="http://www.w3.org/2000/svg" data-entviz-version="v5" data-input-bytes="36" data-cols="2" data-rows="3"><defs><clipPath id="grid-clip-2e1ac197940a061b-2x3"><rect x="17.0" y="31.0" width="120.0" height="120.0"/></clipPath></defs><rect x="0" y="0" width="143.0" height="157.0" fill="#ffffff"/><g data-channel="grid"><rect x="17.0" y="31.0" width="120.0" height="120.0" fill="#ff3f2f"/><g><rect x="17.0" y="31.0" width="6.0" height="10.0" fill="#ffffff"/><rect x="53.0" y="31.0" width="6.0" height="10.0" fill="#ffffff"/><rect x="59.0" y="31.0" width="6.0" height="10.0" fill="#ffffff"/><rect x="71.0" y="31.0" width="6.0" height="10.0" fill="#ffffff"/><rect x="71.0" y="51.0" width="6.0" height="10.0" fill="#ffffff"/><rect x="71.0" y="61.0" width="6.0" height="10.0" fill="#ffffff"/><rect x="41.0" y="61.0" width="6.0" height="10.0" fill="#ffffff"/><rect x="35.0" y="61.0" width="6.0" height="10.0" fill="#ffffff"/><rect x="29.0" y="61.0" width="6.0" height="10.0" fill="#ffffff"/><rect x="17.0" y="61.0" width="6.0" height="10.0" fill="#ffffff"/><rect x="83.0" y="31.0" width="6.0" height="10.0" fill="#ffffff"/><rect x="95.0" y="31.0" width="6.0" height="10.0" fill="#ffffff"/><rect x="131.0" y="41.0" width="6.0" height="10.0" fill="#ffffff"/><rect x="131.0" y="61.0" width="6.0" height="10.0" fill="#ffffff"/><rect x="113.0" y="61.0" width="6.0" height="10.0" fill="#ffffff"/><rect x="107.0" y="61.0" width="6.0" height="10.0" fill="#ffffff"/><rect x="101.0" y="61.0" width="6.0" height="10.0" fill="#ffffff"/><rect x="95.0" y="61.0" width="6.0" height="10.0" fill="#ffffff"/><rect x="83.0" y="61.0" width="6.0" height="10.0" fill="#ffffff"/><rect x="77.0" y="41.0" width="6.0" height="10.0" fill="#ffffff"/><rect x="29.0" y="71.0" width="6.0" height="10.0" fill="#ffffff"/><rect x="47.0" y="71.0" width="6.0" height="10.0" fill="#ffffff"/><rect x="53.0" y="71.0" width="6.0" height="10.0" fill="#ffffff"/><rect x="59.0" y="71.0" width="6.0" height="10.0" fill="#ffffff"/><rect x="65.0" y="71.0" width="6.0" height="10.0" fill="#ffffff"/><rect x="71.0" y="71.0" width="6.0" height="10.0" fill="#ffffff"/><rect x="71.0" y="91.0" width="6.0" height="10.0" fill="#ffffff"/><rect x="71.0" y="101.0" width="6.0" height="10.0" fill="#ffffff"/><rect x="41.0" y="101.0" width="6.0" height="10.0" fill="#ffffff"/><rect x="35.0" y="101.0" width="6.0" height="10.0" fill="#ffffff"/><rect x="77.0" y="71.0" width="6.0" height="10.0" fill="#ffffff"/><rect x="89.0" y="71.0" width="6.0" height="10.0" fill="#ffffff"/><rect x="101.0" y="71.0" width="6.0" height="10.0" fill="#ffffff"/><rect x="119.0" y="71.0" width="6.0" height="10.0" fill="#ffffff"/><rect x="125.0" y="71.0" width="6.0" height="10.0" fill="#ffffff"/><rect x="131.0" y="81.0" width="6.0" height="10.0" fill="#ffffff"/><rect x="131.0" y="91.0" width="6.0" height="10.0" fill="#ffffff"/><rect x="125.0" y="101.0" width="6.0" height="10.0" fill="#ffffff"/><rect x="113.0" y="101.0" width="6.0" height="10.0" fill="#ffffff"/><rect x="77.0" y="101.0" width="6.0" height="10.0" fill="#ffffff"/><rect x="77.0" y="91.0" width="6.0" height="10.0" fill="#ffffff"/><rect x="17.0" y="111.0" width="6.0" height="10.0" fill="#ffffff"/><rect x="29.0" y="111.0" width="6.0" height="10.0" fill="#ffffff"/><rect x="35.0" y="111.0" width="6.0" height="10.0" fill="#ffffff"/><rect x="47.0" y="111.0" width="6.0" height="10.0" fill="#ffffff"/><rect x="59.0" y="111.0" width="6.0" height="10.0" fill="#ffffff"/><rect x="65.0" y="111.0" width="6.0" height="10.0" fill="#ffffff"/><rect x="71.0" y="121.0" width="6.0" height="10.0" fill="#ffffff"/><rect x="53.0" y="141.0" width="6.0" height="10.0" fill="#ffffff"/><rect x="47.0" y="141.0" width="6.0" height="10.0" fill="#ffffff"/><rect x="29.0" y="141.0" width="6.0" height="10.0" fill="#ffffff"/><rect x="17.0" y="121.0" width="6.0" height="10.0" fill="#ffffff"/><rect x="83.0" y="111.0" width="6.0" height="10.0" fill="#ffffff"/><rect x="89.0" y="111.0" width="6.0" height="10.0" fill="#ffffff"/><rect x="101.0" y="111.0" width="6.0" height="10.0" fill="#ffffff"/><rect x="125.0" y="111.0" width="6.0" height="10.0" fill="#ffffff"/><rect x="131.0" y="111.0" width="6.0" height="10.0" fill="#ffffff"/><rect x="131.0" y="131.0" width="6.0" height="10.0" fill="#ffffff"/><rect x="131.0" y="141.0" width="6.0" height="10.0" fill="#ffffff"/><rect x="113.0" y="141.0" width="6.0" height="10.0" fill="#ffffff"/><rect x="101.0" y="141.0" width="6.0" height="10.0" fill="#ffffff"/><rect x="89.0" y="141.0" width="6.0" height="10.0" fill="#ffffff"/><rect x="83.0" y="141.0" width="6.0" height="10.0" fill="#ffffff"/><rect x="77.0" y="131.0" width="6.0" height="10.0" fill="#ffffff"/></g><g clip-path="url(#grid-clip-2e1ac197940a061b-2x3)" data-channel="ellipse" data-ellipse-anchor-x="77.0" data-ellipse-anchor-y="151.0" data-ellipse-rx="60.49844718999242" data-ellipse-ry="67.3312629199899" data-ellipse-rotation-deg="60.0"><ellipse cx="77.0" cy="151.0" rx="60.49844718999242" ry="67.3312629199899" transform="rotate(60.0 77.0 151.0)" fill="#000000" fill-opacity="0.4"/></g><g><g data-channel="cell" data-cell-index="0" data-cell-row="0" data-cell-col="0" data-cell-quartile="1"><rect x="23.0" y="41.0" width="48.0" height="20.0" fill="#ffffff"/><text x="47.0" y="51.0" fill="#000000" style="font-family: &quot;DejaVu Sans Mono&quot;, &quot;Consolas&quot;, &quot;Menlo&quot;, &quot;Liberation Mono&quot;, monospace; font-size: 12.0px;" text-anchor="middle" dominant-baseline="central">ffffff</text><polygon points="23.0,41.0 33.0,41.0 23.0,51.0" fill="#000000"/></g><g data-channel="cell" data-cell-index="1" data-cell-row="0" data-cell-col="1"><rect x="83.0" y="41.0" width="48.0" height="20.0" fill="#ffffff"/><text x="107.0" y="51.0" fill="#000000" style="font-family: &quot;DejaVu Sans Mono&quot;, &quot;Consolas&quot;, &quot;Menlo&quot;, &quot;Liberation Mono&quot;, monospace; font-size: 12.0px;" text-anchor="middle" dominant-baseline="central">ffffff</text></g><g data-channel="cell" data-cell-index="2" data-cell-row="1" data-cell-col="0" data-cell-quartile="3"><rect x="23.0" y="81.0" width="48.0" height="20.0" fill="#ffffff"/><text x="47.0" y="91.0" fill="#000000" style="font-family: &quot;DejaVu Sans Mono&quot;, &quot;Consolas&quot;, &quot;Menlo&quot;, &quot;Liberation Mono&quot;, monospace; font-size: 12.0px;" text-anchor="middle" dominant-baseline="central">ffffff</text><polygon points="71.0,101.0 71.0,91.0 61.0,101.0" fill="#000000"/></g><g data-channel="cell" data-cell-index="3" data-cell-row="1" data-cell-col="1" data-cell-quartile="2"><rect x="83.0" y="81.0" width="48.0" height="20.0" fill="#ffffff"/><text x="107.0" y="91.0" fill="#000000" style="font-family: &quot;DejaVu Sans Mono&quot;, &quot;Consolas&quot;, &quot;Menlo&quot;, &quot;Liberation Mono&quot;, monospace; font-size: 12.0px;" text-anchor="middle" dominant-baseline="central">ffffff</text><polygon points="131.0,81.0 121.0,81.0 131.0,91.0" fill="#000000"/></g><g data-channel="cell" data-cell-index="4" data-cell-row="2" data-cell-col="0"><rect x="23.0" y="121.0" width="48.0" height="20.0" fill="#ffffff"/><text x="47.0" y="131.0" fill="#000000" style="font-family: &quot;DejaVu Sans Mono&quot;, &quot;Consolas&quot;, &quot;Menlo&quot;, &quot;Liberation Mono&quot;, monospace; font-size: 12.0px;" text-anchor="middle" dominant-baseline="central">ffffff</text></g><g data-channel="cell" data-cell-index="5" data-cell-row="2" data-cell-col="1"><rect x="83.0" y="121.0" width="48.0" height="20.0" fill="#ffffff"/><text x="107.0" y="131.0" fill="#000000" style="font-family: &quot;DejaVu Sans Mono&quot;, &quot;Consolas&quot;, &quot;Menlo&quot;, &quot;Liberation Mono&quot;, monospace; font-size: 12.0px;" text-anchor="middle" dominant-baseline="central">ff</text></g></g></g><g data-channel="color-bar"><g data-color-bar-rank="0" data-color-bar-band="B"><rect x="1" y="1" width="10.0" height="57.254920912992624" fill="#2f3fbf"/><text x="6.0" y="29.627460456496312" fill="#ffffff" style="font-family: &quot;DejaVu Sans Mono&quot;, &quot;Consolas&quot;, &quot;Menlo&quot;, &quot;Liberation Mono&quot;, monospace; font-size: 8.5px;" text-anchor="middle" dominant-baseline="central" data-color-bar-letter="true">b</text></g><g data-color-bar-rank="1" data-color-bar-band="W"><rect x="1" y="58.254920912992624" width="10.0" height="54.13974778763409" fill="#ffffff"/><text x="6.0" y="85.32479480680968" fill="#000000" style="font-family: &quot;DejaVu Sans Mono&quot;, &quot;Consolas&quot;, &quot;Menlo&quot;, &quot;Liberation Mono&quot;, monospace; font-size: 8.5px;" text-anchor="middle" dominant-baseline="central" data-color-bar-letter="true">w</text></g><g data-color-bar-rank="2" data-color-bar-band="G"><rect x="1" y="112.39466870062671" width="10.0" height="24.10986661133398" fill="#ffd966"/><text x="6.0" y="124.4496020062937" fill="#000000" style="font-family: &quot;DejaVu Sans Mono&quot;, &quot;Consolas&quot;, &quot;Menlo&quot;, &quot;Liberation Mono&quot;, monospace; font-size: 8.5px;" text-anchor="middle" dominant-baseline="central" data-color-bar-letter="true">g</text></g><g data-color-bar-rank="3" data-color-bar-band="K"><rect x="1" y="136.5045353119607" width="10.0" height="19.495464688039306" fill="#000000"/><text x="6.0" y="146.25226765598035" fill="#ffffff" style="font-family: &quot;DejaVu Sans Mono&quot;, &quot;Consolas&quot;, &quot;Menlo&quot;, &quot;Liberation Mono&quot;, monospace; font-size: 8.5px;" text-anchor="middle" dominant-baseline="central" data-color-bar-letter="true">k</text></g></g><g data-channel="label-top"><text x="17.0" y="16.0" fill="#666666" style="font-family: &quot;DejaVu Sans Mono&quot;, &quot;Consolas&quot;, &quot;Menlo&quot;, &quot;Liberation Mono&quot;, monospace; font-size: 12.0px;" dominant-baseline="central">UUID:</text></g><line x1="0" y1="0.5" x2="143.0" y2="0.5" stroke="#808080" stroke-width="1" shape-rendering="crispEdges"/><line x1="142.5" y1="0" x2="142.5" y2="157.0" stroke="#808080" stroke-width="1" shape-rendering="crispEdges"/><line x1="0" y1="156.5" x2="143.0" y2="156.5" stroke="#808080" stroke-width="1" shape-rendering="crispEdges"/><line x1="0.5" y1="0" x2="0.5" y2="157.0" stroke="#808080" stroke-width="1" shape-rendering="crispEdges"/><line x1="11.5" y1="0" x2="11.5" y2="157.0" stroke="#808080" stroke-width="1" shape-rendering="crispEdges"/></svg>