<svg width="143.0" height="157.0" xmlns="http://www.w3.org/2000/svg"><defs><clipPath id="grid-clip-9f7d2390-2x3"><rect x="17.0" y="31.0" width="120.0" height="120.0"/></clipPath></defs><rect x="0" y="0" width="143.0" height="157.0" fill="#ffffff"/><rect x="17.0" y="31.0" width="120.0" height="120.0" fill="#ffd966"/><rect x="17.0" y="31.0" width="6.0" height="10.0" fill="#000000"/><rect x="23.0" y="31.0" width="6.0" height="10.0" fill="#000000"/><rect x="47.0" y="31.0" width="6.0" height="10.0" fill="#000000"/><rect x="65.0" y="31.0" width="6.0" height="10.0" fill="#000000"/><rect x="71.0" y="41.0" width="6.0" height="10.0" fill="#000000"/><rect x="71.0" y="51.0" width="6.0" height="10.0" fill="#000000"/><rect x="71.0" y="61.0" width="6.0" height="10.0" fill="#000000"/><rect x="65.0" y="61.0" width="6.0" height="10.0" fill="#000000"/><rect x="59.0" y="61.0" width="6.0" height="10.0" fill="#000000"/><rect x="47.0" y="61.0" width="6.0" height="10.0" fill="#000000"/><rect x="41.0" y="61.0" width="6.0" height="10.0" fill="#000000"/><rect x="35.0" y="61.0" width="6.0" height="10.0" fill="#000000"/><rect x="29.0" y="61.0" width="6.0" height="10.0" fill="#000000"/><rect x="23.0" y="61.0" width="6.0" height="10.0" fill="#000000"/><rect x="17.0" y="41.0" width="6.0" height="10.0" fill="#000000"/><rect x="83.0" y="31.0" width="6.0" height="10.0" fill="#000000"/><rect x="95.0" y="31.0" width="6.0" height="10.0" fill="#000000"/><rect x="101.0" y="31.0" width="6.0" height="10.0" fill="#000000"/><rect x="119.0" y="31.0" width="6.0" height="10.0" fill="#000000"/><rect x="125.0" y="31.0" width="6.0" height="10.0" fill="#000000"/><rect x="131.0" y="31.0" width="6.0" height="10.0" fill="#000000"/><rect x="131.0" y="41.0" width="6.0" height="10.0" fill="#000000"/><rect x="131.0" y="61.0" width="6.0" height="10.0" fill="#000000"/><rect x="119.0" y="61.0" width="6.0" height="10.0" fill="#000000"/><rect x="113.0" y="61.0" width="6.0" height="10.0" fill="#000000"/><rect x="83.0" y="61.0" width="6.0" height="10.0" fill="#000000"/><rect x="77.0" y="41.0" width="6.0" height="10.0" fill="#000000"/><rect x="29.0" y="71.0" width="6.0" height="10.0" fill="#000000"/><rect x="35.0" y="71.0" width="6.0" height="10.0" fill="#000000"/><rect x="47.0" y="71.0" width="6.0" height="10.0" fill="#000000"/><rect x="59.0" y="71.0" width="6.0" height="10.0" fill="#000000"/><rect x="71.0" y="81.0" width="6.0" height="10.0" fill="#000000"/><rect x="71.0" y="91.0" width="6.0" height="10.0" fill="#000000"/><rect x="59.0" y="101.0" width="6.0" height="10.0" fill="#000000"/><rect x="41.0" y="101.0" width="6.0" height="10.0" fill="#000000"/><rect x="29.0" y="101.0" width="6.0" height="10.0" fill="#000000"/><rect x="17.0" y="101.0" width="6.0" height="10.0" fill="#000000"/><rect x="17.0" y="81.0" width="6.0" height="10.0" fill="#000000"/><rect x="77.0" y="71.0" width="6.0" height="10.0" fill="#000000"/><rect x="83.0" y="71.0" width="6.0" height="10.0" fill="#000000"/><rect x="89.0" y="71.0" width="6.0" height="10.0" fill="#000000"/><rect x="101.0" y="71.0" width="6.0" height="10.0" fill="#000000"/><rect x="113.0" y="71.0" width="6.0" height="10.0" fill="#000000"/><rect x="125.0" y="71.0" width="6.0" height="10.0" fill="#000000"/><rect x="131.0" y="71.0" width="6.0" height="10.0" fill="#000000"/><rect x="131.0" y="81.0" width="6.0" height="10.0" fill="#000000"/><rect x="131.0" y="101.0" width="6.0" height="10.0" fill="#000000"/><rect x="113.0" y="101.0" width="6.0" height="10.0" fill="#000000"/><rect x="101.0" y="101.0" width="6.0" height="10.0" fill="#000000"/><rect x="89.0" y="101.0" width="6.0" height="10.0" fill="#000000"/><rect x="77.0" y="101.0" width="6.0" height="10.0" fill="#000000"/><rect x="17.0" y="111.0" width="6.0" height="10.0" fill="#000000"/><rect x="35.0" y="111.0" width="6.0" height="10.0" fill="#000000"/><rect x="53.0" y="111.0" width="6.0" height="10.0" fill="#000000"/><rect x="71.0" y="111.0" width="6.0" height="10.0" fill="#000000"/><rect x="65.0" y="141.0" width="6.0" height="10.0" fill="#000000"/><rect x="53.0" y="141.0" width="6.0" height="10.0" fill="#000000"/><rect x="41.0" y="141.0" width="6.0" height="10.0" fill="#000000"/><rect x="35.0" y="141.0" width="6.0" height="10.0" fill="#000000"/><rect x="23.0" y="141.0" width="6.0" height="10.0" fill="#000000"/><rect x="17.0" y="141.0" width="6.0" height="10.0" fill="#000000"/><rect x="17.0" y="131.0" width="6.0" height="10.0" fill="#000000"/><rect x="77.0" y="111.0" width="6.0" height="10.0" fill="#000000"/><rect x="83.0" y="111.0" width="6.0" height="10.0" fill="#000000"/><rect x="89.0" y="111.0" width="6.0" height="10.0" fill="#000000"/><rect x="101.0" y="111.0" width="6.0" height="10.0" fill="#000000"/><rect x="107.0" y="111.0" width="6.0" height="10.0" fill="#000000"/><rect x="125.0" y="111.0" width="6.0" height="10.0" fill="#000000"/><rect x="131.0" y="111.0" width="6.0" height="10.0" fill="#000000"/><rect x="131.0" y="121.0" width="6.0" height="10.0" fill="#000000"/><rect x="131.0" y="131.0" width="6.0" height="10.0" fill="#000000"/><rect x="125.0" y="141.0" width="6.0" height="10.0" fill="#000000"/><rect x="101.0" y="141.0" width="6.0" height="10.0" fill="#000000"/><rect x="89.0" y="141.0" width="6.0" height="10.0" fill="#000000"/><rect x="77.0" y="141.0" width="6.0" height="10.0" fill="#000000"/><g clip-path="url(#grid-clip-9f7d2390-2x3)"><ellipse cx="17.0" cy="71.0" rx="72.42950408027701" ry="66.53323061113574" transform="rotate(132.0 17.0 71.0)" fill="#000000" fill-opacity="0.3"/></g><rect x="23.0" y="41.0" width="48.0" height="20.0" fill="#000000"/><text x="47.0" y="51.0" fill="#ffffff" style="font-family: monospace; font-size: 12.0px;" text-anchor="middle" dominant-baseline="central">000000</text><rect x="83.0" y="41.0" width="48.0" height="20.0" fill="#000000"/><text x="107.0" y="51.0" fill="#ffffff" style="font-family: monospace; font-size: 12.0px;" text-anchor="middle" dominant-baseline="central">000000</text><rect x="23.0" y="81.0" width="48.0" height="20.0" fill="#000000"/><text x="47.0" y="91.0" fill="#ffffff" style="font-family: monospace; font-size: 12.0px;" text-anchor="middle" dominant-baseline="central">000000</text><rect x="83.0" y="81.0" width="48.0" height="20.0" fill="#000000"/><text x="107.0" y="91.0" fill="#ffffff" style="font-family: monospace; font-size: 12.0px;" text-anchor="middle" dominant-baseline="central">000000</text><rect x="23.0" y="121.0" width="48.0" height="20.0" fill="#000000"/><text x="47.0" y="131.0" fill="#ffffff" style="font-family: monospace; font-size: 12.0px;" text-anchor="middle" dominant-baseline="central">000000</text><rect x="83.0" y="121.0" width="48.0" height="20.0" fill="#010101"/><text x="107.0" y="131.0" fill="#ffffff" style="font-family: monospace; font-size: 12.0px;" text-anchor="middle" dominant-baseline="central">01</text><polygon points="83.0,121.0 93.0,121.0 83.0,131.0" fill="#ffffff"/><polygon points="131.0,81.0 121.0,81.0 131.0,91.0" fill="#ffffff"/><polygon points="71.0,61.0 71.0,51.0 61.0,61.0" fill="#ffffff"/><rect x="1" y="1" width="10.0" height="56.08690928665896" fill="#000000"/><rect x="1" y="57.08690928665896" width="10.0" height="47.19149811993732" fill="#2f3fbf"/><rect x="1" y="104.27840740659627" width="10.0" height="26.744603286996206" fill="#ffffff"/><rect x="1" y="131.02301069359248" width="10.0" height="24.976989306407518" fill="#ff3f2f"/><text x="17.0" y="16.0" fill="#666666" style="font-family: monospace; font-size: 12.0px;" dominant-baseline="central">UUID:</text><line x1="0" y1="0.5" x2="143.0" y2="0.5" stroke="#808080" stroke-width="1" shape-rendering="crispEdges"/><line x1="142.5" y1="0" x2="142.5" y2="157.0" stroke="#808080" stroke-width="1" shape-rendering="crispEdges"/><line x1="0" y1="156.5" x2="143.0" y2="156.5" stroke="#808080" stroke-width="1" shape-rendering="crispEdges"/><line x1="0.5" y1="0" x2="0.5" y2="157.0" stroke="#808080" stroke-width="1" shape-rendering="crispEdges"/><line x1="11.5" y1="0" x2="11.5" y2="157.0" stroke="#808080" stroke-width="1" shape-rendering="crispEdges"/></svg>