<svg width="143.0" height="157.0" viewBox="0 0 143.0 157.0" xmlns="http://www.w3.org/2000/svg" data-entviz-version="v5" data-input-bytes="36" data-cols="2" data-rows="3"><defs><clipPath id="grid-clip-9f7d2390d79aaa4c-2x3"><rect x="17.0" y="31.0" width="120.0" height="120.0"/></clipPath></defs><rect x="0" y="0" width="143.0" height="157.0" fill="#ffffff"/><g data-channel="grid"><rect x="17.0" y="31.0" width="120.0" height="120.0" fill="#ffd966"/><g><rect x="17.0" y="31.0" width="6.0" height="10.0" fill="#000000"/><rect x="23.0" y="31.0" width="6.0" height="10.0" fill="#000000"/><rect x="47.0" y="31.0" width="6.0" height="10.0" fill="#000000"/><rect x="65.0" y="31.0" width="6.0" height="10.0" fill="#000000"/><rect x="71.0" y="41.0" width="6.0" height="10.0" fill="#000000"/><rect x="71.0" y="51.0" width="6.0" height="10.0" fill="#000000"/><rect x="71.0" y="61.0" width="6.0" height="10.0" fill="#000000"/><rect x="65.0" y="61.0" width="6.0" height="10.0" fill="#000000"/><rect x="59.0" y="61.0" width="6.0" height="10.0" fill="#000000"/><rect x="47.0" y="61.0" width="6.0" height="10.0" fill="#000000"/><rect x="41.0" y="61.0" width="6.0" height="10.0" fill="#000000"/><rect x="35.0" y="61.0" width="6.0" height="10.0" fill="#000000"/><rect x="29.0" y="61.0" width="6.0" height="10.0" fill="#000000"/><rect x="23.0" y="61.0" width="6.0" height="10.0" fill="#000000"/><rect x="17.0" y="41.0" width="6.0" height="10.0" fill="#000000"/><rect x="83.0" y="31.0" width="6.0" height="10.0" fill="#000000"/><rect x="95.0" y="31.0" width="6.0" height="10.0" fill="#000000"/><rect x="101.0" y="31.0" width="6.0" height="10.0" fill="#000000"/><rect x="119.0" y="31.0" width="6.0" height="10.0" fill="#000000"/><rect x="125.0" y="31.0" width="6.0" height="10.0" fill="#000000"/><rect x="131.0" y="31.0" width="6.0" height="10.0" fill="#000000"/><rect x="131.0" y="41.0" width="6.0" height="10.0" fill="#000000"/><rect x="131.0" y="61.0" width="6.0" height="10.0" fill="#000000"/><rect x="119.0" y="61.0" width="6.0" height="10.0" fill="#000000"/><rect x="113.0" y="61.0" width="6.0" height="10.0" fill="#000000"/><rect x="83.0" y="61.0" width="6.0" height="10.0" fill="#000000"/><rect x="77.0" y="41.0" width="6.0" height="10.0" fill="#000000"/><rect x="29.0" y="71.0" width="6.0" height="10.0" fill="#000000"/><rect x="35.0" y="71.0" width="6.0" height="10.0" fill="#000000"/><rect x="47.0" y="71.0" width="6.0" height="10.0" fill="#000000"/><rect x="59.0" y="71.0" width="6.0" height="10.0" fill="#000000"/><rect x="71.0" y="81.0" width="6.0" height="10.0" fill="#000000"/><rect x="71.0" y="91.0" width="6.0" height="10.0" fill="#000000"/><rect x="59.0" y="101.0" width="6.0" height="10.0" fill="#000000"/><rect x="41.0" y="101.0" width="6.0" height="10.0" fill="#000000"/><rect x="29.0" y="101.0" width="6.0" height="10.0" fill="#000000"/><rect x="17.0" y="101.0" width="6.0" height="10.0" fill="#000000"/><rect x="17.0" y="81.0" width="6.0" height="10.0" fill="#000000"/><rect x="77.0" y="71.0" width="6.0" height="10.0" fill="#000000"/><rect x="83.0" y="71.0" width="6.0" height="10.0" fill="#000000"/><rect x="89.0" y="71.0" width="6.0" height="10.0" fill="#000000"/><rect x="101.0" y="71.0" width="6.0" height="10.0" fill="#000000"/><rect x="113.0" y="71.0" width="6.0" height="10.0" fill="#000000"/><rect x="125.0" y="71.0" width="6.0" height="10.0" fill="#000000"/><rect x="131.0" y="71.0" width="6.0" height="10.0" fill="#000000"/><rect x="131.0" y="81.0" width="6.0" height="10.0" fill="#000000"/><rect x="131.0" y="101.0" width="6.0" height="10.0" fill="#000000"/><rect x="113.0" y="101.0" width="6.0" height="10.0" fill="#000000"/><rect x="101.0" y="101.0" width="6.0" height="10.0" fill="#000000"/><rect x="89.0" y="101.0" width="6.0" height="10.0" fill="#000000"/><rect x="77.0" y="101.0" width="6.0" height="10.0" fill="#000000"/><rect x="17.0" y="111.0" width="6.0" height="10.0" fill="#000000"/><rect x="35.0" y="111.0" width="6.0" height="10.0" fill="#000000"/><rect x="53.0" y="111.0" width="6.0" height="10.0" fill="#000000"/><rect x="71.0" y="111.0" width="6.0" height="10.0" fill="#000000"/><rect x="65.0" y="141.0" width="6.0" height="10.0" fill="#000000"/><rect x="53.0" y="141.0" width="6.0" height="10.0" fill="#000000"/><rect x="41.0" y="141.0" width="6.0" height="10.0" fill="#000000"/><rect x="35.0" y="141.0" width="6.0" height="10.0" fill="#000000"/><rect x="23.0" y="141.0" width="6.0" height="10.0" fill="#000000"/><rect x="17.0" y="141.0" width="6.0" height="10.0" fill="#000000"/><rect x="17.0" y="131.0" width="6.0" height="10.0" fill="#000000"/><rect x="77.0" y="111.0" width="6.0" height="10.0" fill="#000000"/><rect x="83.0" y="111.0" width="6.0" height="10.0" fill="#000000"/><rect x="89.0" y="111.0" width="6.0" height="10.0" fill="#000000"/><rect x="101.0" y="111.0" width="6.0" height="10.0" fill="#000000"/><rect x="107.0" y="111.0" width="6.0" height="10.0" fill="#000000"/><rect x="125.0" y="111.0" width="6.0" height="10.0" fill="#000000"/><rect x="131.0" y="111.0" width="6.0" height="10.0" fill="#000000"/><rect x="131.0" y="121.0" width="6.0" height="10.0" fill="#000000"/><rect x="131.0" y="131.0" width="6.0" height="10.0" fill="#000000"/><rect x="125.0" y="141.0" width="6.0" height="10.0" fill="#000000"/><rect x="101.0" y="141.0" width="6.0" height="10.0" fill="#000000"/><rect x="89.0" y="141.0" width="6.0" height="10.0" fill="#000000"/><rect x="77.0" y="141.0" width="6.0" height="10.0" fill="#000000"/></g><g clip-path="url(#grid-clip-9f7d2390d79aaa4c-2x3)" data-channel="ellipse" data-ellipse-anchor-x="17.0" data-ellipse-anchor-y="71.0" data-ellipse-rx="72.42950408027701" data-ellipse-ry="66.53323061113574" data-ellipse-rotation-deg="132.0"><ellipse cx="17.0" cy="71.0" rx="72.42950408027701" ry="66.53323061113574" transform="rotate(132.0 17.0 71.0)" fill="#000000" fill-opacity="0.3"/></g><g><g data-channel="cell" data-cell-index="0" data-cell-row="0" data-cell-col="0" data-cell-quartile="3"><rect x="23.0" y="41.0" width="48.0" height="20.0" fill="#000000"/><text x="47.0" y="51.0" fill="#ffffff" style="font-family: &quot;DejaVu Sans Mono&quot;, &quot;Consolas&quot;, &quot;Menlo&quot;, &quot;Liberation Mono&quot;, monospace; font-size: 12.0px;" text-anchor="middle" dominant-baseline="central">000000</text><polygon points="71.0,61.0 71.0,51.0 61.0,61.0" fill="#ffffff"/></g><g data-channel="cell" data-cell-index="1" data-cell-row="0" data-cell-col="1"><rect x="83.0" y="41.0" width="48.0" height="20.0" fill="#000000"/><text x="107.0" y="51.0" fill="#ffffff" style="font-family: &quot;DejaVu Sans Mono&quot;, &quot;Consolas&quot;, &quot;Menlo&quot;, &quot;Liberation Mono&quot;, monospace; font-size: 12.0px;" text-anchor="middle" dominant-baseline="central">000000</text></g><g data-channel="cell" data-cell-index="2" data-cell-row="1" data-cell-col="0"><rect x="23.0" y="81.0" width="48.0" height="20.0" fill="#000000"/><text x="47.0" y="91.0" fill="#ffffff" style="font-family: &quot;DejaVu Sans Mono&quot;, &quot;Consolas&quot;, &quot;Menlo&quot;, &quot;Liberation Mono&quot;, monospace; font-size: 12.0px;" text-anchor="middle" dominant-baseline="central">000000</text></g><g data-channel="cell" data-cell-index="3" data-cell-row="1" data-cell-col="1" data-cell-quartile="2"><rect x="83.0" y="81.0" width="48.0" height="20.0" fill="#000000"/><text x="107.0" y="91.0" fill="#ffffff" style="font-family: &quot;DejaVu Sans Mono&quot;, &quot;Consolas&quot;, &quot;Menlo&quot;, &quot;Liberation Mono&quot;, monospace; font-size: 12.0px;" text-anchor="middle" dominant-baseline="central">000000</text><polygon points="131.0,81.0 121.0,81.0 131.0,91.0" fill="#ffffff"/></g><g data-channel="cell" data-cell-index="4" data-cell-row="2" data-cell-col="0"><rect x="23.0" y="121.0" width="48.0" height="20.0" fill="#000000"/><text x="47.0" y="131.0" fill="#ffffff" style="font-family: &quot;DejaVu Sans Mono&quot;, &quot;Consolas&quot;, &quot;Menlo&quot;, &quot;Liberation Mono&quot;, monospace; font-size: 12.0px;" text-anchor="middle" dominant-baseline="central">000000</text></g><g data-channel="cell" data-cell-index="5" data-cell-row="2" data-cell-col="1" data-cell-quartile="1"><rect x="83.0" y="121.0" width="48.0" height="20.0" fill="#010101"/><text x="107.0" y="131.0" fill="#ffffff" style="font-family: &quot;DejaVu Sans Mono&quot;, &quot;Consolas&quot;, &quot;Menlo&quot;, &quot;Liberation Mono&quot;, monospace; font-size: 12.0px;" text-anchor="middle" dominant-baseline="central">01</text><polygon points="83.0,121.0 93.0,121.0 83.0,131.0" fill="#ffffff"/></g></g></g><g data-channel="color-bar"><g data-color-bar-rank="0" data-color-bar-band="K"><rect x="1" y="1" width="10.0" height="56.08690928665896" fill="#000000"/><text x="6.0" y="29.04345464332948" fill="#ffffff" style="font-family: &quot;DejaVu Sans Mono&quot;, &quot;Consolas&quot;, &quot;Menlo&quot;, &quot;Liberation Mono&quot;, monospace; font-size: 34px;" text-anchor="middle" dominant-baseline="central" data-color-bar-letter="true">K</text></g><g data-color-bar-rank="1" data-color-bar-band="B"><rect x="1" y="57.08690928665896" width="10.0" height="47.19149811993732" fill="#2f3fbf"/><text x="6.0" y="80.68265834662762" fill="#ffffff" style="font-family: &quot;DejaVu Sans Mono&quot;, &quot;Consolas&quot;, &quot;Menlo&quot;, &quot;Liberation Mono&quot;, monospace; font-size: 28px;" text-anchor="middle" dominant-baseline="central" data-color-bar-letter="true">B</text></g><g data-color-bar-rank="2" data-color-bar-band="W"><rect x="1" y="104.27840740659627" width="10.0" height="26.744603286996206" fill="#ffffff"/><text x="6.0" y="117.65070905009438" fill="#000000" style="font-family: &quot;DejaVu Sans Mono&quot;, &quot;Consolas&quot;, &quot;Menlo&quot;, &quot;Liberation Mono&quot;, monospace; font-size: 16px;" text-anchor="middle" dominant-baseline="central" data-color-bar-letter="true">W</text></g><g data-color-bar-rank="3" data-color-bar-band="R"><rect x="1" y="131.02301069359248" width="10.0" height="24.976989306407518" fill="#ff3f2f"/><text x="6.0" y="143.51150534679624" fill="#000000" style="font-family: &quot;DejaVu Sans Mono&quot;, &quot;Consolas&quot;, &quot;Menlo&quot;, &quot;Liberation Mono&quot;, monospace; font-size: 15px;" text-anchor="middle" dominant-baseline="central" data-color-bar-letter="true">R</text></g></g><g data-channel="label-top"><text x="17.0" y="16.0" fill="#666666" style="font-family: &quot;DejaVu Sans Mono&quot;, &quot;Consolas&quot;, &quot;Menlo&quot;, &quot;Liberation Mono&quot;, monospace; font-size: 12.0px;" dominant-baseline="central">UUID:</text></g><line x1="0" y1="0.5" x2="143.0" y2="0.5" stroke="#808080" stroke-width="1" shape-rendering="crispEdges"/><line x1="142.5" y1="0" x2="142.5" y2="157.0" stroke="#808080" stroke-width="1" shape-rendering="crispEdges"/><line x1="0" y1="156.5" x2="143.0" y2="156.5" stroke="#808080" stroke-width="1" shape-rendering="crispEdges"/><line x1="0.5" y1="0" x2="0.5" y2="157.0" stroke="#808080" stroke-width="1" shape-rendering="crispEdges"/><line x1="11.5" y1="0" x2="11.5" y2="157.0" stroke="#808080" stroke-width="1" shape-rendering="crispEdges"/></svg>