<svg width="153" height="152" viewBox="0 0 153 152" xmlns="http://www.w3.org/2000/svg" font-family="&quot;JetBrains Mono&quot;, &quot;Menlo&quot;, &quot;Consolas&quot;, &quot;DejaVu Sans Mono&quot;, &quot;Liberation Mono&quot;, &quot;Roboto Mono&quot;, &quot;Noto Sans Mono&quot;, monospace" data-entviz-version="v11" data-entviz-lib="0.10.0" data-input-bytes="36" data-cols="2" data-rows="3"><defs><clipPath id="grid-clip-9f7d2390d79aaa4c-2x3"><rect x="27" y="26" width="120" height="120"/></clipPath></defs><rect x="0" y="0" width="153" height="152" fill="#ffffff"/><g data-channel="grid"><rect x="27" y="26" width="120" height="120" fill="#e7be00"/><g><path fill="#000000" d="M27 26h6v10h-6zM33 26h6v10h-6zM57 26h6v10h-6zM75 26h6v10h-6zM81 36h6v10h-6zM81 46h6v10h-6zM81 56h6v10h-6zM75 56h6v10h-6zM69 56h6v10h-6zM57 56h6v10h-6zM51 56h6v10h-6zM45 56h6v10h-6zM39 56h6v10h-6zM33 56h6v10h-6zM27 36h6v10h-6z"/><path fill="#000000" d="M93 26h6v10h-6zM105 26h6v10h-6zM111 26h6v10h-6zM129 26h6v10h-6zM135 26h6v10h-6zM141 26h6v10h-6zM141 36h6v10h-6zM141 56h6v10h-6zM129 56h6v10h-6zM123 56h6v10h-6zM93 56h6v10h-6zM87 36h6v10h-6z"/><path fill="#000000" d="M39 66h6v10h-6zM45 66h6v10h-6zM57 66h6v10h-6zM69 66h6v10h-6zM81 76h6v10h-6zM81 86h6v10h-6zM69 96h6v10h-6zM51 96h6v10h-6zM39 96h6v10h-6zM27 96h6v10h-6zM27 76h6v10h-6z"/><path fill="#000000" d="M87 66h6v10h-6zM93 66h6v10h-6zM99 66h6v10h-6zM111 66h6v10h-6zM123 66h6v10h-6zM135 66h6v10h-6zM141 66h6v10h-6zM141 76h6v10h-6zM141 96h6v10h-6zM123 96h6v10h-6zM111 96h6v10h-6zM99 96h6v10h-6zM87 96h6v10h-6z"/><path fill="#000000" d="M27 106h6v10h-6zM45 106h6v10h-6zM63 106h6v10h-6zM81 106h6v10h-6zM75 136h6v10h-6zM63 136h6v10h-6zM51 136h6v10h-6zM45 136h6v10h-6zM33 136h6v10h-6zM27 136h6v10h-6zM27 126h6v10h-6z"/><path fill="#000000" d="M87 106h6v10h-6zM93 106h6v10h-6zM99 106h6v10h-6zM111 106h6v10h-6zM117 106h6v10h-6zM135 106h6v10h-6zM141 106h6v10h-6zM141 116h6v10h-6zM141 126h6v10h-6zM135 136h6v10h-6zM111 136h6v10h-6zM99 136h6v10h-6zM87 136h6v10h-6z"/></g><g clip-path="url(#grid-clip-9f7d2390d79aaa4c-2x3)" data-channel="ellipse" data-ellipse-anchor-x="27" data-ellipse-anchor-y="66" data-ellipse-rx="69.803" data-ellipse-ry="62.881" data-ellipse-rotation-deg="132"><ellipse cx="27" cy="66" rx="69.803" ry="62.881" transform="rotate(132 27 66)" fill="#000000" stroke="#000000" fill-opacity="0.2" stroke-opacity="0.3" stroke-width="2"/></g><g><g data-channel="cell" data-cell-index="0" data-cell-row="0" data-cell-col="0" data-surround-bits="0x9f7d23" data-edge-color="#000000" data-cell-quartile="3"><rect x="33" y="36" width="48" height="20" fill="#000000"/><text x="57" y="46" fill="#ffffff" font-size="12" text-anchor="middle" dominant-baseline="central">000000</text><polygon points="81,56 81,46 71,56" fill="#ffffff"/></g><g data-channel="cell" data-cell-index="1" data-cell-row="0" data-cell-col="1" data-surround-bits="0x90d79a" data-edge-color="#000000"><rect x="93" y="36" width="48" height="20" fill="#000000"/><text x="117" y="46" fill="#ffffff" font-size="12" text-anchor="middle" dominant-baseline="central">000000</text></g><g data-channel="cell" data-cell-index="2" data-cell-row="1" data-cell-col="0" data-surround-bits="0xaa4cac" data-edge-color="#000000"><rect x="33" y="76" width="48" height="20" fill="#000000"/><text x="57" y="86" fill="#ffffff" font-size="12" text-anchor="middle" dominant-baseline="central">000000</text></g><g data-channel="cell" data-cell-index="3" data-cell-row="1" data-cell-col="1" data-surround-bits="0x2a9757" data-edge-color="#000000" data-cell-quartile="2"><rect x="93" y="76" width="48" height="20" fill="#000000"/><text x="117" y="86" fill="#ffffff" font-size="12" text-anchor="middle" dominant-baseline="central">000000</text><polygon points="141,76 131,76 141,86" fill="#ffffff"/></g><g data-channel="cell" data-cell-index="4" data-cell-row="2" data-cell-col="0" data-surround-bits="0x76a249" data-edge-color="#000000"><rect x="33" y="116" width="48" height="20" fill="#000000"/><text x="57" y="126" fill="#ffffff" font-size="12" text-anchor="middle" dominant-baseline="central">000000</text></g><g data-channel="cell" data-cell-index="5" data-cell-row="2" data-cell-col="1" data-surround-bits="0x2a2f37" data-edge-color="#000000" data-cell-quartile="1"><rect x="93" y="116" width="48" height="20" fill="#010101"/><text x="117" y="126" fill="#ffffff" font-size="12" text-anchor="middle" dominant-baseline="central">01</text><polygon points="93,116 103,116 93,126" fill="#ffffff"/></g></g></g><g data-channel="color-bar" data-bar-slots="12" data-bar-marker-left="11" data-bar-marker-right="6"><g data-color-bar-rank="0" data-color-bar-band="K"><rect x="1" y="1" width="20" height="54.278" fill="#000000"/><text x="11" y="52.638" fill="#ffffff" font-size="12" text-anchor="middle" data-color-bar-letter="true">k</text></g><g data-color-bar-rank="1" data-color-bar-band="R"><rect x="1" y="55.278" width="20" height="24.171" fill="#ff3f2f"/><text x="11" y="76.809" fill="#000000" font-size="12" text-anchor="middle" data-color-bar-letter="true">r</text></g><g data-color-bar-rank="2" data-color-bar-band="B"><rect x="1" y="79.449" width="20" height="45.669" fill="#2f3fbf"/><text x="11" y="122.478" fill="#ffffff" font-size="12" text-anchor="middle" data-color-bar-letter="true">b</text></g><g data-color-bar-rank="3" data-color-bar-band="W"><rect x="1" y="125.118" width="20" height="25.882" fill="#ffffff"/><text x="11" y="148.36" fill="#000000" font-size="12" text-anchor="middle" data-color-bar-letter="true">w</text></g><circle cx="5.6" cy="144.75" r="3.4" fill="#ffffff" stroke="#000000" stroke-width="0.75" data-bar-marker="left"/><circle cx="16.4" cy="82.25" r="3.4" fill="#ffffff" stroke="#000000" stroke-width="0.75" data-bar-marker="right"/></g><g data-channel="label-top"><text x="27" y="16" fill="#666666" font-size="12" dominant-baseline="central">UUID:</text></g><line x1="0" y1="0.5" x2="153" y2="0.5" stroke="#808080" stroke-width="1" shape-rendering="crispEdges"/><line x1="152.5" y1="0" x2="152.5" y2="152" stroke="#808080" stroke-width="1" shape-rendering="crispEdges"/><line x1="0" y1="151.5" x2="153" y2="151.5" stroke="#808080" stroke-width="1" shape-rendering="crispEdges"/><line x1="0.5" y1="0" x2="0.5" y2="152" stroke="#808080" stroke-width="1" shape-rendering="crispEdges"/><line x1="21.5" y1="0" x2="21.5" y2="152" stroke="#808080" stroke-width="1" shape-rendering="crispEdges"/></svg>