<svg width="153.0" height="152.0" viewBox="0 0 153.0 152.0" xmlns="http://www.w3.org/2000/svg" data-entviz-version="v8" data-entviz-lib="0.7.2" data-input-bytes="36" data-cols="2" data-rows="3"><defs><clipPath id="grid-clip-b5ad00c6f67e1fb1-2x3"><rect x="27.0" y="26.0" width="120.0" height="120.0"/></clipPath></defs><rect x="0" y="0" width="153.0" height="152.0" fill="#ffffff"/><g data-channel="grid"><rect x="27.0" y="26.0" width="120.0" height="120.0" fill="#2f3fbf"/><g><rect x="75.0" y="26.0" width="6.0" height="10.0" fill="#ff3f2f"/><rect x="81.0" y="36.0" width="6.0" height="10.0" fill="#ff3f2f"/><rect x="81.0" y="46.0" width="6.0" height="10.0" fill="#ff3f2f"/><rect x="75.0" y="56.0" width="6.0" height="10.0" fill="#ff3f2f"/><rect x="63.0" y="56.0" width="6.0" height="10.0" fill="#ff3f2f"/><rect x="57.0" y="56.0" width="6.0" height="10.0" fill="#ff3f2f"/><rect x="45.0" y="56.0" width="6.0" height="10.0" fill="#ff3f2f"/><rect x="33.0" y="56.0" width="6.0" height="10.0" fill="#ff3f2f"/><rect x="27.0" y="56.0" width="6.0" height="10.0" fill="#ff3f2f"/><rect x="27.0" y="36.0" width="6.0" height="10.0" fill="#ff3f2f"/><rect x="93.0" y="26.0" width="6.0" height="10.0" fill="#e7be00"/><rect x="99.0" y="26.0" width="6.0" height="10.0" fill="#e7be00"/><rect x="105.0" y="26.0" width="6.0" height="10.0" fill="#e7be00"/><rect x="111.0" y="26.0" width="6.0" height="10.0" fill="#e7be00"/><rect x="117.0" y="26.0" width="6.0" height="10.0" fill="#e7be00"/><rect x="123.0" y="26.0" width="6.0" height="10.0" fill="#e7be00"/><rect x="141.0" y="26.0" width="6.0" height="10.0" fill="#e7be00"/><rect x="141.0" y="36.0" width="6.0" height="10.0" fill="#e7be00"/><rect x="141.0" y="56.0" width="6.0" height="10.0" fill="#e7be00"/><rect x="135.0" y="56.0" width="6.0" height="10.0" fill="#e7be00"/><rect x="129.0" y="56.0" width="6.0" height="10.0" fill="#e7be00"/><rect x="123.0" y="56.0" width="6.0" height="10.0" fill="#e7be00"/><rect x="111.0" y="56.0" width="6.0" height="10.0" fill="#e7be00"/><rect x="105.0" y="56.0" width="6.0" height="10.0" fill="#e7be00"/><rect x="87.0" y="46.0" width="6.0" height="10.0" fill="#e7be00"/><rect x="87.0" y="36.0" width="6.0" height="10.0" fill="#e7be00"/><rect x="39.0" y="66.0" width="6.0" height="10.0" fill="#e7be00"/><rect x="45.0" y="66.0" width="6.0" height="10.0" fill="#e7be00"/><rect x="57.0" y="66.0" width="6.0" height="10.0" fill="#e7be00"/><rect x="75.0" y="66.0" width="6.0" height="10.0" fill="#e7be00"/><rect x="81.0" y="96.0" width="6.0" height="10.0" fill="#e7be00"/><rect x="75.0" y="96.0" width="6.0" height="10.0" fill="#e7be00"/><rect x="63.0" y="96.0" width="6.0" height="10.0" fill="#e7be00"/><rect x="57.0" y="96.0" width="6.0" height="10.0" fill="#e7be00"/><rect x="51.0" y="96.0" width="6.0" height="10.0" fill="#e7be00"/><rect x="45.0" y="96.0" width="6.0" height="10.0" fill="#e7be00"/><rect x="39.0" y="96.0" width="6.0" height="10.0" fill="#e7be00"/><rect x="33.0" y="96.0" width="6.0" height="10.0" fill="#e7be00"/><rect x="87.0" y="66.0" width="6.0" height="10.0" fill="#000000"/><rect x="99.0" y="66.0" width="6.0" height="10.0" fill="#000000"/><rect x="105.0" y="66.0" width="6.0" height="10.0" fill="#000000"/><rect x="117.0" y="66.0" width="6.0" height="10.0" fill="#000000"/><rect x="141.0" y="66.0" width="6.0" height="10.0" fill="#000000"/><rect x="123.0" y="96.0" width="6.0" height="10.0" fill="#000000"/><rect x="117.0" y="96.0" width="6.0" height="10.0" fill="#000000"/><rect x="111.0" y="96.0" width="6.0" height="10.0" fill="#000000"/><rect x="105.0" y="96.0" width="6.0" height="10.0" fill="#000000"/><rect x="99.0" y="96.0" width="6.0" height="10.0" fill="#000000"/><rect x="93.0" y="96.0" width="6.0" height="10.0" fill="#000000"/><rect x="87.0" y="96.0" width="6.0" height="10.0" fill="#000000"/><rect x="87.0" y="86.0" width="6.0" height="10.0" fill="#000000"/><rect x="87.0" y="76.0" width="6.0" height="10.0" fill="#000000"/><rect x="27.0" y="106.0" width="6.0" height="10.0" fill="#000000"/><rect x="33.0" y="106.0" width="6.0" height="10.0" fill="#000000"/><rect x="45.0" y="106.0" width="6.0" height="10.0" fill="#000000"/><rect x="57.0" y="106.0" width="6.0" height="10.0" fill="#000000"/><rect x="75.0" y="106.0" width="6.0" height="10.0" fill="#000000"/><rect x="81.0" y="106.0" width="6.0" height="10.0" fill="#000000"/><rect x="81.0" y="126.0" width="6.0" height="10.0" fill="#000000"/><rect x="69.0" y="136.0" width="6.0" height="10.0" fill="#000000"/><rect x="63.0" y="136.0" width="6.0" height="10.0" fill="#000000"/><rect x="57.0" y="136.0" width="6.0" height="10.0" fill="#000000"/><rect x="45.0" y="136.0" width="6.0" height="10.0" fill="#000000"/><rect x="39.0" y="136.0" width="6.0" height="10.0" fill="#000000"/><rect x="33.0" y="136.0" width="6.0" height="10.0" fill="#000000"/><rect x="27.0" y="136.0" width="6.0" height="10.0" fill="#000000"/><rect x="27.0" y="116.0" width="6.0" height="10.0" fill="#000000"/><rect x="87.0" y="106.0" width="6.0" height="10.0" fill="#000000"/><rect x="93.0" y="106.0" width="6.0" height="10.0" fill="#000000"/><rect x="141.0" y="116.0" width="6.0" height="10.0" fill="#000000"/><rect x="141.0" y="126.0" width="6.0" height="10.0" fill="#000000"/><rect x="141.0" y="136.0" width="6.0" height="10.0" fill="#000000"/><rect x="135.0" y="136.0" width="6.0" height="10.0" fill="#000000"/><rect x="111.0" y="136.0" width="6.0" height="10.0" fill="#000000"/><rect x="105.0" y="136.0" width="6.0" height="10.0" fill="#000000"/><rect x="99.0" y="136.0" width="6.0" height="10.0" fill="#000000"/><rect x="93.0" y="136.0" width="6.0" height="10.0" fill="#000000"/><rect x="87.0" y="136.0" width="6.0" height="10.0" fill="#000000"/><rect x="87.0" y="126.0" width="6.0" height="10.0" fill="#000000"/><rect x="87.0" y="116.0" width="6.0" height="10.0" fill="#000000"/></g><g clip-path="url(#grid-clip-b5ad00c6f67e1fb1-2x3)" data-channel="ellipse" data-ellipse-anchor-x="147.0" data-ellipse-anchor-y="106.0" data-ellipse-rx="49.03549734631025" data-ellipse-ry="69.80347269298284" data-ellipse-rotation-deg="120.0"><ellipse cx="147.0" cy="106.0" rx="49.03549734631025" ry="69.80347269298284" transform="rotate(120.0 147.0 106.0)" fill="#ffffff" stroke="#ffffff" fill-opacity="0.35" stroke-opacity="0.45" stroke-width="2.0"/></g><g><g data-channel="cell" data-cell-index="0" data-cell-row="0" data-cell-col="0"><rect x="33.0" y="36.0" width="48.0" height="20.0" fill="#840e55"/><text x="57.0" y="46.0" fill="#ffffff" style="font-family: &quot;JetBrains Mono&quot;, &quot;Menlo&quot;, &quot;Consolas&quot;, &quot;DejaVu Sans Mono&quot;, &quot;Liberation Mono&quot;, &quot;Roboto Mono&quot;, &quot;Noto Sans Mono&quot;, monospace; font-size: 12.0px;" text-anchor="middle" dominant-baseline="central">550e84</text></g><g data-channel="cell" data-cell-index="1" data-cell-row="0" data-cell-col="1" data-cell-quartile="1"><rect x="93.0" y="36.0" width="48.0" height="20.0" fill="#9be200"/><text x="117.0" y="46.0" fill="#000000" style="font-family: &quot;JetBrains Mono&quot;, &quot;Menlo&quot;, &quot;Consolas&quot;, &quot;DejaVu Sans Mono&quot;, &quot;Liberation Mono&quot;, &quot;Roboto Mono&quot;, &quot;Noto Sans Mono&quot;, monospace; font-size: 12.0px;" text-anchor="middle" dominant-baseline="central">00e29b</text><polygon points="93.0,36.0 103.0,36.0 93.0,46.0" fill="#000000"/></g><g data-channel="cell" data-cell-index="2" data-cell-row="1" data-cell-col="0" data-cell-quartile="3"><rect x="33.0" y="76.0" width="48.0" height="20.0" fill="#a7d441"/><text x="57.0" y="86.0" fill="#000000" style="font-family: &quot;JetBrains Mono&quot;, &quot;Menlo&quot;, &quot;Consolas&quot;, &quot;DejaVu Sans Mono&quot;, &quot;Liberation Mono&quot;, &quot;Roboto Mono&quot;, &quot;Noto Sans Mono&quot;, monospace; font-size: 12.0px;" text-anchor="middle" dominant-baseline="central">41d4a7</text><polygon points="81.0,96.0 81.0,86.0 71.0,96.0" fill="#000000"/></g><g data-channel="cell" data-cell-index="3" data-cell-row="1" data-cell-col="1"><rect x="93.0" y="76.0" width="48.0" height="20.0" fill="#664416"/><text x="117.0" y="86.0" fill="#ffffff" style="font-family: &quot;JetBrains Mono&quot;, &quot;Menlo&quot;, &quot;Consolas&quot;, &quot;DejaVu Sans Mono&quot;, &quot;Liberation Mono&quot;, &quot;Roboto Mono&quot;, &quot;Noto Sans Mono&quot;, monospace; font-size: 12.0px;" text-anchor="middle" dominant-baseline="central">164466</text></g><g data-channel="cell" data-cell-index="4" data-cell-row="2" data-cell-col="0"><rect x="33.0" y="116.0" width="48.0" height="20.0" fill="#004455"/><text x="57.0" y="126.0" fill="#ffffff" style="font-family: &quot;JetBrains Mono&quot;, &quot;Menlo&quot;, &quot;Consolas&quot;, &quot;DejaVu Sans Mono&quot;, &quot;Liberation Mono&quot;, &quot;Roboto Mono&quot;, &quot;Noto Sans Mono&quot;, monospace; font-size: 12.0px;" text-anchor="middle" dominant-baseline="central">554400</text></g><g data-channel="cell" data-cell-index="5" data-cell-row="2" data-cell-col="1" data-cell-quartile="2"><rect x="93.0" y="116.0" width="48.0" height="20.0" fill="#010101"/><text x="117.0" y="126.0" fill="#ffffff" style="font-family: &quot;JetBrains Mono&quot;, &quot;Menlo&quot;, &quot;Consolas&quot;, &quot;DejaVu Sans Mono&quot;, &quot;Liberation Mono&quot;, &quot;Roboto Mono&quot;, &quot;Noto Sans Mono&quot;, monospace; font-size: 12.0px;" text-anchor="middle" dominant-baseline="central">01</text><polygon points="141.0,116.0 131.0,116.0 141.0,126.0" fill="#ffffff"/></g></g></g><g data-channel="color-bar"><g data-color-bar-rank="0" data-color-bar-band="K"><rect x="1" y="1" width="20.0" height="49.88560652741838" fill="#000000"/><text x="11.0" y="48.24560652741838" fill="#ffffff" style="font-family: &quot;JetBrains Mono&quot;, &quot;Menlo&quot;, &quot;Consolas&quot;, &quot;DejaVu Sans Mono&quot;, &quot;Liberation Mono&quot;, &quot;Roboto Mono&quot;, &quot;Noto Sans Mono&quot;, monospace; font-size: 12.0px;" text-anchor="middle" data-color-bar-letter="true">k</text></g><g data-color-bar-rank="1" data-color-bar-band="W"><rect x="1" y="50.88560652741838" width="20.0" height="36.92315384920335" fill="#ffffff"/><text x="11.0" y="85.16876037662173" fill="#000000" style="font-family: &quot;JetBrains Mono&quot;, &quot;Menlo&quot;, &quot;Consolas&quot;, &quot;DejaVu Sans Mono&quot;, &quot;Liberation Mono&quot;, &quot;Roboto Mono&quot;, &quot;Noto Sans Mono&quot;, monospace; font-size: 12.0px;" text-anchor="middle" data-color-bar-letter="true">w</text></g><g data-color-bar-rank="2" data-color-bar-band="R"><rect x="1" y="87.80876037662173" width="20.0" height="34.6689821829498" fill="#ff3f2f"/><text x="11.0" y="119.83774255957154" fill="#000000" style="font-family: &quot;JetBrains Mono&quot;, &quot;Menlo&quot;, &quot;Consolas&quot;, &quot;DejaVu Sans Mono&quot;, &quot;Liberation Mono&quot;, &quot;Roboto Mono&quot;, &quot;Noto Sans Mono&quot;, monospace; font-size: 12.0px;" text-anchor="middle" data-color-bar-letter="true">r</text></g><g data-color-bar-rank="3" data-color-bar-band="G"><rect x="1" y="122.47774255957154" width="20.0" height="28.52225744042846" fill="#e7be00"/><text x="11.0" y="148.36" fill="#000000" style="font-family: &quot;JetBrains Mono&quot;, &quot;Menlo&quot;, &quot;Consolas&quot;, &quot;DejaVu Sans Mono&quot;, &quot;Liberation Mono&quot;, &quot;Roboto Mono&quot;, &quot;Noto Sans Mono&quot;, monospace; font-size: 12.0px;" text-anchor="middle" data-color-bar-letter="true">g</text></g></g><g data-channel="label-top"><text x="27.0" y="16.0" fill="#666666" style="font-family: &quot;JetBrains Mono&quot;, &quot;Menlo&quot;, &quot;Consolas&quot;, &quot;DejaVu Sans Mono&quot;, &quot;Liberation Mono&quot;, &quot;Roboto Mono&quot;, &quot;Noto Sans Mono&quot;, monospace; font-size: 12.0px;" dominant-baseline="central">UUID:</text></g><line x1="0" y1="0.5" x2="153.0" y2="0.5" stroke="#808080" stroke-width="1" shape-rendering="crispEdges"/><line x1="152.5" y1="0" x2="152.5" y2="152.0" stroke="#808080" stroke-width="1" shape-rendering="crispEdges"/><line x1="0" y1="151.5" x2="153.0" y2="151.5" stroke="#808080" stroke-width="1" shape-rendering="crispEdges"/><line x1="0.5" y1="0" x2="0.5" y2="152.0" stroke="#808080" stroke-width="1" shape-rendering="crispEdges"/><line x1="21.5" y1="0" x2="21.5" y2="152.0" stroke="#808080" stroke-width="1" shape-rendering="crispEdges"/></svg>