<svg width="143.0" height="157.0" viewBox="0 0 143.0 157.0" xmlns="http://www.w3.org/2000/svg" data-entviz-version="v5" data-input-bytes="36" data-cols="2" data-rows="3"><defs><clipPath id="grid-clip-b5ad00c6f67e1fb1-2x3"><rect x="17.0" y="31.0" width="120.0" height="120.0"/></clipPath></defs><rect x="0" y="0" width="143.0" height="157.0" fill="#ffffff"/><g data-channel="grid"><rect x="17.0" y="31.0" width="120.0" height="120.0" fill="#2f3fbf"/><g><rect x="65.0" y="31.0" width="6.0" height="10.0" fill="#ff3f2f"/><rect x="71.0" y="41.0" width="6.0" height="10.0" fill="#ff3f2f"/><rect x="71.0" y="51.0" width="6.0" height="10.0" fill="#ff3f2f"/><rect x="65.0" y="61.0" width="6.0" height="10.0" fill="#ff3f2f"/><rect x="53.0" y="61.0" width="6.0" height="10.0" fill="#ff3f2f"/><rect x="47.0" y="61.0" width="6.0" height="10.0" fill="#ff3f2f"/><rect x="35.0" y="61.0" width="6.0" height="10.0" fill="#ff3f2f"/><rect x="23.0" y="61.0" width="6.0" height="10.0" fill="#ff3f2f"/><rect x="17.0" y="61.0" width="6.0" height="10.0" fill="#ff3f2f"/><rect x="17.0" y="41.0" width="6.0" height="10.0" fill="#ff3f2f"/><rect x="83.0" y="31.0" width="6.0" height="10.0" fill="#ffd966"/><rect x="89.0" y="31.0" width="6.0" height="10.0" fill="#ffd966"/><rect x="95.0" y="31.0" width="6.0" height="10.0" fill="#ffd966"/><rect x="101.0" y="31.0" width="6.0" height="10.0" fill="#ffd966"/><rect x="107.0" y="31.0" width="6.0" height="10.0" fill="#ffd966"/><rect x="113.0" y="31.0" width="6.0" height="10.0" fill="#ffd966"/><rect x="131.0" y="31.0" width="6.0" height="10.0" fill="#ffd966"/><rect x="131.0" y="41.0" width="6.0" height="10.0" fill="#ffd966"/><rect x="131.0" y="61.0" width="6.0" height="10.0" fill="#ffd966"/><rect x="125.0" y="61.0" width="6.0" height="10.0" fill="#ffd966"/><rect x="119.0" y="61.0" width="6.0" height="10.0" fill="#ffd966"/><rect x="113.0" y="61.0" width="6.0" height="10.0" fill="#ffd966"/><rect x="101.0" y="61.0" width="6.0" height="10.0" fill="#ffd966"/><rect x="95.0" y="61.0" width="6.0" height="10.0" fill="#ffd966"/><rect x="77.0" y="51.0" width="6.0" height="10.0" fill="#ffd966"/><rect x="77.0" y="41.0" width="6.0" height="10.0" fill="#ffd966"/><rect x="29.0" y="71.0" width="6.0" height="10.0" fill="#ffd966"/><rect x="35.0" y="71.0" width="6.0" height="10.0" fill="#ffd966"/><rect x="47.0" y="71.0" width="6.0" height="10.0" fill="#ffd966"/><rect x="65.0" y="71.0" width="6.0" height="10.0" fill="#ffd966"/><rect x="71.0" y="101.0" width="6.0" height="10.0" fill="#ffd966"/><rect x="65.0" y="101.0" width="6.0" height="10.0" fill="#ffd966"/><rect x="53.0" y="101.0" width="6.0" height="10.0" fill="#ffd966"/><rect x="47.0" y="101.0" width="6.0" height="10.0" fill="#ffd966"/><rect x="41.0" y="101.0" width="6.0" height="10.0" fill="#ffd966"/><rect x="35.0" y="101.0" width="6.0" height="10.0" fill="#ffd966"/><rect x="29.0" y="101.0" width="6.0" height="10.0" fill="#ffd966"/><rect x="23.0" y="101.0" width="6.0" height="10.0" fill="#ffd966"/><rect x="77.0" y="71.0" width="6.0" height="10.0" fill="#000000"/><rect x="89.0" y="71.0" width="6.0" height="10.0" fill="#000000"/><rect x="95.0" y="71.0" width="6.0" height="10.0" fill="#000000"/><rect x="107.0" y="71.0" width="6.0" height="10.0" fill="#000000"/><rect x="131.0" y="71.0" width="6.0" height="10.0" fill="#000000"/><rect x="113.0" y="101.0" width="6.0" height="10.0" fill="#000000"/><rect x="107.0" y="101.0" width="6.0" height="10.0" fill="#000000"/><rect x="101.0" y="101.0" width="6.0" height="10.0" fill="#000000"/><rect x="95.0" y="101.0" width="6.0" height="10.0" fill="#000000"/><rect x="89.0" y="101.0" width="6.0" height="10.0" fill="#000000"/><rect x="83.0" y="101.0" width="6.0" height="10.0" fill="#000000"/><rect x="77.0" y="101.0" width="6.0" height="10.0" fill="#000000"/><rect x="77.0" y="91.0" width="6.0" height="10.0" fill="#000000"/><rect x="77.0" y="81.0" width="6.0" height="10.0" fill="#000000"/><rect x="17.0" y="111.0" width="6.0" height="10.0" fill="#000000"/><rect x="23.0" y="111.0" width="6.0" height="10.0" fill="#000000"/><rect x="35.0" y="111.0" width="6.0" height="10.0" fill="#000000"/><rect x="47.0" y="111.0" width="6.0" height="10.0" fill="#000000"/><rect x="65.0" y="111.0" width="6.0" height="10.0" fill="#000000"/><rect x="71.0" y="111.0" width="6.0" height="10.0" fill="#000000"/><rect x="71.0" y="131.0" width="6.0" height="10.0" fill="#000000"/><rect x="59.0" y="141.0" width="6.0" height="10.0" fill="#000000"/><rect x="53.0" y="141.0" width="6.0" height="10.0" fill="#000000"/><rect x="47.0" y="141.0" width="6.0" height="10.0" fill="#000000"/><rect x="35.0" y="141.0" width="6.0" height="10.0" fill="#000000"/><rect x="29.0" y="141.0" width="6.0" height="10.0" fill="#000000"/><rect x="23.0" y="141.0" width="6.0" height="10.0" fill="#000000"/><rect x="17.0" y="141.0" width="6.0" height="10.0" fill="#000000"/><rect x="17.0" y="121.0" width="6.0" height="10.0" fill="#000000"/><rect x="77.0" y="111.0" width="6.0" height="10.0" fill="#000000"/><rect x="83.0" y="111.0" width="6.0" height="10.0" fill="#000000"/><rect x="131.0" y="121.0" width="6.0" height="10.0" fill="#000000"/><rect x="131.0" y="131.0" width="6.0" height="10.0" fill="#000000"/><rect x="131.0" y="141.0" width="6.0" height="10.0" fill="#000000"/><rect x="125.0" y="141.0" width="6.0" height="10.0" fill="#000000"/><rect x="101.0" y="141.0" width="6.0" height="10.0" fill="#000000"/><rect x="95.0" y="141.0" width="6.0" height="10.0" fill="#000000"/><rect x="89.0" y="141.0" width="6.0" height="10.0" fill="#000000"/><rect x="83.0" y="141.0" width="6.0" height="10.0" fill="#000000"/><rect x="77.0" y="141.0" width="6.0" height="10.0" fill="#000000"/><rect x="77.0" y="131.0" width="6.0" height="10.0" fill="#000000"/><rect x="77.0" y="121.0" width="6.0" height="10.0" fill="#000000"/></g><g clip-path="url(#grid-clip-b5ad00c6f67e1fb1-2x3)" data-channel="ellipse" data-ellipse-anchor-x="137.0" data-ellipse-anchor-y="111.0" data-ellipse-rx="54.74068367285319" data-ellipse-ry="72.42950408027701" data-ellipse-rotation-deg="120.0"><ellipse cx="137.0" cy="111.0" rx="54.74068367285319" ry="72.42950408027701" transform="rotate(120.0 137.0 111.0)" fill="#ffffff" fill-opacity="0.4"/></g><g><g data-channel="cell" data-cell-index="0" data-cell-row="0" data-cell-col="0"><rect x="23.0" y="41.0" width="48.0" height="20.0" fill="#840e55"/><text x="47.0" y="51.0" fill="#ffffff" style="font-family: &quot;DejaVu Sans Mono&quot;, &quot;Consolas&quot;, &quot;Menlo&quot;, &quot;Liberation Mono&quot;, monospace; font-size: 12.0px;" text-anchor="middle" dominant-baseline="central">550e84</text></g><g data-channel="cell" data-cell-index="1" data-cell-row="0" data-cell-col="1" data-cell-quartile="1"><rect x="83.0" y="41.0" width="48.0" height="20.0" fill="#9be200"/><text x="107.0" y="51.0" fill="#000000" style="font-family: &quot;DejaVu Sans Mono&quot;, &quot;Consolas&quot;, &quot;Menlo&quot;, &quot;Liberation Mono&quot;, monospace; font-size: 12.0px;" text-anchor="middle" dominant-baseline="central">00e29b</text><polygon points="83.0,41.0 93.0,41.0 83.0,51.0" fill="#000000"/></g><g data-channel="cell" data-cell-index="2" data-cell-row="1" data-cell-col="0" data-cell-quartile="3"><rect x="23.0" y="81.0" width="48.0" height="20.0" fill="#a7d441"/><text x="47.0" y="91.0" fill="#000000" style="font-family: &quot;DejaVu Sans Mono&quot;, &quot;Consolas&quot;, &quot;Menlo&quot;, &quot;Liberation Mono&quot;, monospace; font-size: 12.0px;" text-anchor="middle" dominant-baseline="central">41d4a7</text><polygon points="71.0,101.0 71.0,91.0 61.0,101.0" fill="#000000"/></g><g data-channel="cell" data-cell-index="3" data-cell-row="1" data-cell-col="1"><rect x="83.0" y="81.0" width="48.0" height="20.0" fill="#664416"/><text x="107.0" y="91.0" fill="#ffffff" style="font-family: &quot;DejaVu Sans Mono&quot;, &quot;Consolas&quot;, &quot;Menlo&quot;, &quot;Liberation Mono&quot;, monospace; font-size: 12.0px;" text-anchor="middle" dominant-baseline="central">164466</text></g><g data-channel="cell" data-cell-index="4" data-cell-row="2" data-cell-col="0"><rect x="23.0" y="121.0" width="48.0" height="20.0" fill="#004455"/><text x="47.0" y="131.0" fill="#ffffff" style="font-family: &quot;DejaVu Sans Mono&quot;, &quot;Consolas&quot;, &quot;Menlo&quot;, &quot;Liberation Mono&quot;, monospace; font-size: 12.0px;" text-anchor="middle" dominant-baseline="central">554400</text></g><g data-channel="cell" data-cell-index="5" data-cell-row="2" data-cell-col="1" data-cell-quartile="2"><rect x="83.0" y="121.0" width="48.0" height="20.0" fill="#010101"/><text x="107.0" y="131.0" fill="#ffffff" style="font-family: &quot;DejaVu Sans Mono&quot;, &quot;Consolas&quot;, &quot;Menlo&quot;, &quot;Liberation Mono&quot;, monospace; font-size: 12.0px;" text-anchor="middle" dominant-baseline="central">01</text><polygon points="131.0,121.0 121.0,121.0 131.0,131.0" fill="#ffffff"/></g></g></g><g data-channel="color-bar"><g data-color-bar-rank="0" data-color-bar-band="K"><rect x="1" y="1" width="10.0" height="51.54846007833233" fill="#000000"/><text x="6.0" y="26.774230039166167" fill="#ffffff" style="font-family: &quot;DejaVu Sans Mono&quot;, &quot;Consolas&quot;, &quot;Menlo&quot;, &quot;Liberation Mono&quot;, monospace; font-size: 31px;" text-anchor="middle" dominant-baseline="central" data-color-bar-letter="true">K</text></g><g data-color-bar-rank="1" data-color-bar-band="W"><rect x="1" y="52.54846007833233" width="10.0" height="38.153925644176795" fill="#ffffff"/><text x="6.0" y="71.62542290042073" fill="#000000" style="font-family: &quot;DejaVu Sans Mono&quot;, &quot;Consolas&quot;, &quot;Menlo&quot;, &quot;Liberation Mono&quot;, monospace; font-size: 23px;" text-anchor="middle" dominant-baseline="central" data-color-bar-letter="true">W</text></g><g data-color-bar-rank="2" data-color-bar-band="R"><rect x="1" y="90.70238572250912" width="10.0" height="35.82461492238146" fill="#ff3f2f"/><text x="6.0" y="108.61469318369984" fill="#000000" style="font-family: &quot;DejaVu Sans Mono&quot;, &quot;Consolas&quot;, &quot;Menlo&quot;, &quot;Liberation Mono&quot;, monospace; font-size: 21px;" text-anchor="middle" dominant-baseline="central" data-color-bar-letter="true">R</text></g><g data-color-bar-rank="3" data-color-bar-band="G"><rect x="1" y="126.52700064489058" width="10.0" height="29.472999355109422" fill="#ffd966"/><text x="6.0" y="141.26350032244528" fill="#000000" style="font-family: &quot;DejaVu Sans Mono&quot;, &quot;Consolas&quot;, &quot;Menlo&quot;, &quot;Liberation Mono&quot;, monospace; font-size: 18px;" text-anchor="middle" dominant-baseline="central" data-color-bar-letter="true">G</text></g></g><g data-channel="label-top"><text x="17.0" y="16.0" fill="#666666" style="font-family: &quot;DejaVu Sans Mono&quot;, &quot;Consolas&quot;, &quot;Menlo&quot;, &quot;Liberation Mono&quot;, monospace; font-size: 12.0px;" dominant-baseline="central">UUID:</text></g><line x1="0" y1="0.5" x2="143.0" y2="0.5" stroke="#808080" stroke-width="1" shape-rendering="crispEdges"/><line x1="142.5" y1="0" x2="142.5" y2="157.0" stroke="#808080" stroke-width="1" shape-rendering="crispEdges"/><line x1="0" y1="156.5" x2="143.0" y2="156.5" stroke="#808080" stroke-width="1" shape-rendering="crispEdges"/><line x1="0.5" y1="0" x2="0.5" y2="157.0" stroke="#808080" stroke-width="1" shape-rendering="crispEdges"/><line x1="11.5" y1="0" x2="11.5" y2="157.0" stroke="#808080" stroke-width="1" shape-rendering="crispEdges"/></svg>