<svg width="153.0" height="152.0" viewBox="0 0 153.0 152.0" xmlns="http://www.w3.org/2000/svg" data-entviz-version="v6" data-entviz-lib="0.6.0" data-input-bytes="36" data-cols="2" data-rows="3"><defs><clipPath id="grid-clip-4c26874a725c3b3d-2x3"><rect x="27.0" y="26.0" width="120.0" height="120.0"/></clipPath></defs><rect x="0" y="0" width="153.0" height="152.0" fill="#ffffff"/><g data-channel="grid"><rect x="27.0" y="26.0" width="120.0" height="120.0" fill="#ffffff"/><g><rect x="27.0" y="26.0" width="6.0" height="10.0" fill="#ff3f2f"/><rect x="33.0" y="26.0" width="6.0" height="10.0" fill="#ff3f2f"/><rect x="39.0" y="26.0" width="6.0" height="10.0" fill="#ff3f2f"/><rect x="69.0" y="26.0" width="6.0" height="10.0" fill="#ff3f2f"/><rect x="81.0" y="26.0" width="6.0" height="10.0" fill="#ff3f2f"/><rect x="81.0" y="36.0" width="6.0" height="10.0" fill="#ff3f2f"/><rect x="75.0" y="56.0" width="6.0" height="10.0" fill="#ff3f2f"/><rect x="45.0" y="56.0" width="6.0" height="10.0" fill="#ff3f2f"/><rect x="39.0" y="56.0" width="6.0" height="10.0" fill="#ff3f2f"/><rect x="27.0" y="46.0" width="6.0" height="10.0" fill="#ff3f2f"/><rect x="99.0" y="26.0" width="6.0" height="10.0" fill="#e7be00"/><rect x="105.0" y="26.0" width="6.0" height="10.0" fill="#e7be00"/><rect x="111.0" y="26.0" width="6.0" height="10.0" fill="#e7be00"/><rect x="123.0" y="26.0" width="6.0" height="10.0" fill="#e7be00"/><rect x="141.0" y="26.0" width="6.0" height="10.0" fill="#e7be00"/><rect x="141.0" y="56.0" width="6.0" height="10.0" fill="#e7be00"/><rect x="135.0" y="56.0" width="6.0" height="10.0" fill="#e7be00"/><rect x="129.0" y="56.0" width="6.0" height="10.0" fill="#e7be00"/><rect x="111.0" y="56.0" width="6.0" height="10.0" fill="#e7be00"/><rect x="99.0" y="56.0" width="6.0" height="10.0" fill="#e7be00"/><rect x="87.0" y="46.0" width="6.0" height="10.0" fill="#e7be00"/><rect x="39.0" y="66.0" width="6.0" height="10.0" fill="#e7be00"/><rect x="45.0" y="66.0" width="6.0" height="10.0" fill="#e7be00"/><rect x="57.0" y="66.0" width="6.0" height="10.0" fill="#e7be00"/><rect x="63.0" y="66.0" width="6.0" height="10.0" fill="#e7be00"/><rect x="69.0" y="66.0" width="6.0" height="10.0" fill="#e7be00"/><rect x="75.0" y="66.0" width="6.0" height="10.0" fill="#e7be00"/><rect x="81.0" y="76.0" width="6.0" height="10.0" fill="#e7be00"/><rect x="81.0" y="86.0" width="6.0" height="10.0" fill="#e7be00"/><rect x="81.0" y="96.0" width="6.0" height="10.0" fill="#e7be00"/><rect x="75.0" y="96.0" width="6.0" height="10.0" fill="#e7be00"/><rect x="57.0" y="96.0" width="6.0" height="10.0" fill="#e7be00"/><rect x="51.0" y="96.0" width="6.0" height="10.0" fill="#e7be00"/><rect x="39.0" y="96.0" width="6.0" height="10.0" fill="#e7be00"/><rect x="33.0" y="96.0" width="6.0" height="10.0" fill="#e7be00"/><rect x="27.0" y="96.0" width="6.0" height="10.0" fill="#e7be00"/><rect x="93.0" y="66.0" width="6.0" height="10.0" fill="#000000"/><rect x="99.0" y="66.0" width="6.0" height="10.0" fill="#000000"/><rect x="105.0" y="66.0" width="6.0" height="10.0" fill="#000000"/><rect x="111.0" y="66.0" width="6.0" height="10.0" fill="#000000"/><rect x="117.0" y="66.0" width="6.0" height="10.0" fill="#000000"/><rect x="123.0" y="66.0" width="6.0" height="10.0" fill="#000000"/><rect x="129.0" y="66.0" width="6.0" height="10.0" fill="#000000"/><rect x="135.0" y="66.0" width="6.0" height="10.0" fill="#000000"/><rect x="141.0" y="66.0" width="6.0" height="10.0" fill="#000000"/><rect x="123.0" y="96.0" width="6.0" height="10.0" fill="#000000"/><rect x="105.0" y="96.0" width="6.0" height="10.0" fill="#000000"/><rect x="99.0" y="96.0" width="6.0" height="10.0" fill="#000000"/><rect x="93.0" y="96.0" width="6.0" height="10.0" fill="#000000"/><rect x="87.0" y="76.0" width="6.0" height="10.0" fill="#000000"/><rect x="27.0" y="106.0" width="6.0" height="10.0" fill="#2f3fbf"/><rect x="39.0" y="106.0" width="6.0" height="10.0" fill="#2f3fbf"/><rect x="63.0" y="106.0" width="6.0" height="10.0" fill="#2f3fbf"/><rect x="75.0" y="106.0" width="6.0" height="10.0" fill="#2f3fbf"/><rect x="81.0" y="106.0" width="6.0" height="10.0" fill="#2f3fbf"/><rect x="81.0" y="116.0" width="6.0" height="10.0" fill="#2f3fbf"/><rect x="81.0" y="126.0" width="6.0" height="10.0" fill="#2f3fbf"/><rect x="81.0" y="136.0" width="6.0" height="10.0" fill="#2f3fbf"/><rect x="75.0" y="136.0" width="6.0" height="10.0" fill="#2f3fbf"/><rect x="69.0" y="136.0" width="6.0" height="10.0" fill="#2f3fbf"/><rect x="57.0" y="136.0" width="6.0" height="10.0" fill="#2f3fbf"/><rect x="51.0" y="136.0" width="6.0" height="10.0" fill="#2f3fbf"/><rect x="45.0" y="136.0" width="6.0" height="10.0" fill="#2f3fbf"/><rect x="33.0" y="136.0" width="6.0" height="10.0" fill="#2f3fbf"/><rect x="27.0" y="136.0" width="6.0" height="10.0" fill="#2f3fbf"/><rect x="87.0" y="106.0" width="6.0" height="10.0" fill="#000000"/><rect x="105.0" y="106.0" width="6.0" height="10.0" fill="#000000"/><rect x="111.0" y="106.0" width="6.0" height="10.0" fill="#000000"/><rect x="117.0" y="106.0" width="6.0" height="10.0" fill="#000000"/><rect x="123.0" y="106.0" width="6.0" height="10.0" fill="#000000"/><rect x="129.0" y="106.0" width="6.0" height="10.0" fill="#000000"/><rect x="135.0" y="106.0" width="6.0" height="10.0" fill="#000000"/><rect x="135.0" y="136.0" width="6.0" height="10.0" fill="#000000"/><rect x="123.0" y="136.0" width="6.0" height="10.0" fill="#000000"/><rect x="111.0" y="136.0" width="6.0" height="10.0" fill="#000000"/><rect x="105.0" y="136.0" width="6.0" height="10.0" fill="#000000"/><rect x="93.0" y="136.0" width="6.0" height="10.0" fill="#000000"/><rect x="87.0" y="136.0" width="6.0" height="10.0" fill="#000000"/><rect x="87.0" y="126.0" width="6.0" height="10.0" fill="#000000"/><rect x="87.0" y="116.0" width="6.0" height="10.0" fill="#000000"/></g><g clip-path="url(#grid-clip-4c26874a725c3b3d-2x3)" data-channel="ellipse" data-ellipse-anchor-x="27.0" data-ellipse-anchor-y="106.0" data-ellipse-rx="55.958155795201115" data-ellipse-ry="80.18746036631913" data-ellipse-rotation-deg="132.0"><ellipse cx="27.0" cy="106.0" rx="55.958155795201115" ry="80.18746036631913" transform="rotate(132.0 27.0 106.0)" fill="#000000" fill-opacity="0.3"/></g><g><g data-channel="cell" data-cell-index="0" data-cell-row="0" data-cell-col="0"><rect x="33.0" y="36.0" width="48.0" height="20.0" fill="#840e55"/><text x="57.0" y="46.0" fill="#ffffff" style="font-family: &quot;JetBrains Mono&quot;, &quot;Menlo&quot;, &quot;Consolas&quot;, &quot;DejaVu Sans Mono&quot;, &quot;Liberation Mono&quot;, &quot;Roboto Mono&quot;, &quot;Noto Sans Mono&quot;, monospace; font-size: 12.0px;" text-anchor="middle" dominant-baseline="central">550e84</text></g><g data-channel="cell" data-cell-index="1" data-cell-row="0" data-cell-col="1" data-cell-quartile="3"><rect x="93.0" y="36.0" width="48.0" height="20.0" fill="#9be200"/><text x="117.0" y="46.0" fill="#000000" style="font-family: &quot;JetBrains Mono&quot;, &quot;Menlo&quot;, &quot;Consolas&quot;, &quot;DejaVu Sans Mono&quot;, &quot;Liberation Mono&quot;, &quot;Roboto Mono&quot;, &quot;Noto Sans Mono&quot;, monospace; font-size: 12.0px;" text-anchor="middle" dominant-baseline="central">00e29b</text><polygon points="141.0,56.0 141.0,46.0 131.0,56.0" fill="#000000"/></g><g data-channel="cell" data-cell-index="2" data-cell-row="1" data-cell-col="0"><rect x="33.0" y="76.0" width="48.0" height="20.0" fill="#a7d541"/><text x="57.0" y="86.0" fill="#000000" style="font-family: &quot;JetBrains Mono&quot;, &quot;Menlo&quot;, &quot;Consolas&quot;, &quot;DejaVu Sans Mono&quot;, &quot;Liberation Mono&quot;, &quot;Roboto Mono&quot;, &quot;Noto Sans Mono&quot;, monospace; font-size: 12.0px;" text-anchor="middle" dominant-baseline="central">41d5a7</text></g><g data-channel="cell" data-cell-index="3" data-cell-row="1" data-cell-col="1" data-cell-quartile="1"><rect x="93.0" y="76.0" width="48.0" height="20.0" fill="#664416"/><text x="117.0" y="86.0" fill="#ffffff" style="font-family: &quot;JetBrains Mono&quot;, &quot;Menlo&quot;, &quot;Consolas&quot;, &quot;DejaVu Sans Mono&quot;, &quot;Liberation Mono&quot;, &quot;Roboto Mono&quot;, &quot;Noto Sans Mono&quot;, monospace; font-size: 12.0px;" text-anchor="middle" dominant-baseline="central">164466</text><polygon points="93.0,76.0 103.0,76.0 93.0,86.0" fill="#ffffff"/></g><g data-channel="cell" data-cell-index="4" data-cell-row="2" data-cell-col="0" data-cell-quartile="2"><rect x="33.0" y="116.0" width="48.0" height="20.0" fill="#004455"/><text x="57.0" y="126.0" fill="#ffffff" style="font-family: &quot;JetBrains Mono&quot;, &quot;Menlo&quot;, &quot;Consolas&quot;, &quot;DejaVu Sans Mono&quot;, &quot;Liberation Mono&quot;, &quot;Roboto Mono&quot;, &quot;Noto Sans Mono&quot;, monospace; font-size: 12.0px;" text-anchor="middle" dominant-baseline="central">554400</text><polygon points="81.0,116.0 71.0,116.0 81.0,126.0" fill="#ffffff"/></g><g data-channel="cell" data-cell-index="5" data-cell-row="2" data-cell-col="1"><rect x="93.0" y="116.0" width="48.0" height="20.0" fill="#000000"/><text x="117.0" y="126.0" fill="#ffffff" style="font-family: &quot;JetBrains Mono&quot;, &quot;Menlo&quot;, &quot;Consolas&quot;, &quot;DejaVu Sans Mono&quot;, &quot;Liberation Mono&quot;, &quot;Roboto Mono&quot;, &quot;Noto Sans Mono&quot;, monospace; font-size: 12.0px;" text-anchor="middle" dominant-baseline="central">00</text></g></g></g><g data-channel="color-bar"><g data-color-bar-rank="0" data-color-bar-band="K"><rect x="1" y="1" width="20.0" height="93.13108084106702" fill="#000000"/><text x="11.0" y="91.49108084106702" fill="#ffffff" style="font-family: &quot;JetBrains Mono&quot;, &quot;Menlo&quot;, &quot;Consolas&quot;, &quot;DejaVu Sans Mono&quot;, &quot;Liberation Mono&quot;, &quot;Roboto Mono&quot;, &quot;Noto Sans Mono&quot;, monospace; font-size: 12.0px;" text-anchor="middle" data-color-bar-letter="true">k</text></g><g data-color-bar-rank="1" data-color-bar-band="G"><rect x="1" y="94.13108084106702" width="20.0" height="28.564112454630347" fill="#e7be00"/><text x="11.0" y="120.05519329569736" fill="#000000" style="font-family: &quot;JetBrains Mono&quot;, &quot;Menlo&quot;, &quot;Consolas&quot;, &quot;DejaVu Sans Mono&quot;, &quot;Liberation Mono&quot;, &quot;Roboto Mono&quot;, &quot;Noto Sans Mono&quot;, monospace; font-size: 12.0px;" text-anchor="middle" data-color-bar-letter="true">g</text></g><g data-color-bar-rank="2" data-color-bar-band="R"><rect x="1" y="122.69519329569736" width="20.0" height="19.266942997954757" fill="#ff3f2f"/><text x="11.0" y="139.32213629365214" fill="#000000" style="font-family: &quot;JetBrains Mono&quot;, &quot;Menlo&quot;, &quot;Consolas&quot;, &quot;DejaVu Sans Mono&quot;, &quot;Liberation Mono&quot;, &quot;Roboto Mono&quot;, &quot;Noto Sans Mono&quot;, monospace; font-size: 12.0px;" text-anchor="middle" data-color-bar-letter="true">r</text></g><g data-color-bar-rank="3" data-color-bar-band="B"><rect x="1" y="141.96213629365212" width="20.0" height="9.037863706347878" fill="#2f3fbf"/><text x="11.0" y="148.36" fill="#ffffff" style="font-family: &quot;JetBrains Mono&quot;, &quot;Menlo&quot;, &quot;Consolas&quot;, &quot;DejaVu Sans Mono&quot;, &quot;Liberation Mono&quot;, &quot;Roboto Mono&quot;, &quot;Noto Sans Mono&quot;, monospace; font-size: 12.0px;" text-anchor="middle" data-color-bar-letter="true">b</text></g></g><g data-channel="label-top"><text x="27.0" y="16.0" fill="#666666" style="font-family: &quot;JetBrains Mono&quot;, &quot;Menlo&quot;, &quot;Consolas&quot;, &quot;DejaVu Sans Mono&quot;, &quot;Liberation Mono&quot;, &quot;Roboto Mono&quot;, &quot;Noto Sans Mono&quot;, monospace; font-size: 12.0px;" dominant-baseline="central">UUID:</text></g><line x1="0" y1="0.5" x2="153.0" y2="0.5" stroke="#808080" stroke-width="1" shape-rendering="crispEdges"/><line x1="152.5" y1="0" x2="152.5" y2="152.0" stroke="#808080" stroke-width="1" shape-rendering="crispEdges"/><line x1="0" y1="151.5" x2="153.0" y2="151.5" stroke="#808080" stroke-width="1" shape-rendering="crispEdges"/><line x1="0.5" y1="0" x2="0.5" y2="152.0" stroke="#808080" stroke-width="1" shape-rendering="crispEdges"/><line x1="21.5" y1="0" x2="21.5" y2="152.0" stroke="#808080" stroke-width="1" shape-rendering="crispEdges"/></svg>