<svg width="153.0" height="157.0" viewBox="0 0 153.0 157.0" xmlns="http://www.w3.org/2000/svg" data-entviz-version="v6" data-entviz-lib="0.5.0" data-input-bytes="36" data-cols="2" data-rows="3"><defs><clipPath id="grid-clip-fab8acbd4ebb98cb-2x3"><rect x="27.0" y="31.0" width="120.0" height="120.0"/></clipPath></defs><rect x="0" y="0" width="153.0" height="157.0" fill="#ffffff"/><g data-channel="grid"><rect x="27.0" y="31.0" width="120.0" height="120.0" fill="#ff3f2f"/><g><rect x="39.0" y="31.0" width="6.0" height="10.0" fill="#000000"/><rect x="45.0" y="31.0" width="6.0" height="10.0" fill="#000000"/><rect x="57.0" y="31.0" width="6.0" height="10.0" fill="#000000"/><rect x="69.0" y="31.0" width="6.0" height="10.0" fill="#000000"/><rect x="81.0" y="51.0" width="6.0" height="10.0" fill="#000000"/><rect x="81.0" y="61.0" width="6.0" height="10.0" fill="#000000"/><rect x="75.0" y="61.0" width="6.0" height="10.0" fill="#000000"/><rect x="63.0" y="61.0" width="6.0" height="10.0" fill="#000000"/><rect x="51.0" y="61.0" width="6.0" height="10.0" fill="#000000"/><rect x="39.0" y="61.0" width="6.0" height="10.0" fill="#000000"/><rect x="33.0" y="61.0" width="6.0" height="10.0" fill="#000000"/><rect x="27.0" y="61.0" width="6.0" height="10.0" fill="#000000"/><rect x="27.0" y="51.0" width="6.0" height="10.0" fill="#000000"/><rect x="27.0" y="41.0" width="6.0" height="10.0" fill="#000000"/><rect x="87.0" y="31.0" width="6.0" height="10.0" fill="#ffd966"/><rect x="93.0" y="31.0" width="6.0" height="10.0" fill="#ffd966"/><rect x="105.0" y="31.0" width="6.0" height="10.0" fill="#ffd966"/><rect x="111.0" y="31.0" width="6.0" height="10.0" fill="#ffd966"/><rect x="117.0" y="31.0" width="6.0" height="10.0" fill="#ffd966"/><rect x="129.0" y="31.0" width="6.0" height="10.0" fill="#ffd966"/><rect x="141.0" y="31.0" width="6.0" height="10.0" fill="#ffd966"/><rect x="141.0" y="41.0" width="6.0" height="10.0" fill="#ffd966"/><rect x="141.0" y="51.0" width="6.0" height="10.0" fill="#ffd966"/><rect x="129.0" y="61.0" width="6.0" height="10.0" fill="#ffd966"/><rect x="117.0" y="61.0" width="6.0" height="10.0" fill="#ffd966"/><rect x="105.0" y="61.0" width="6.0" height="10.0" fill="#ffd966"/><rect x="99.0" y="61.0" width="6.0" height="10.0" fill="#ffd966"/><rect x="93.0" y="61.0" width="6.0" height="10.0" fill="#ffd966"/><rect x="87.0" y="61.0" width="6.0" height="10.0" fill="#ffd966"/><rect x="87.0" y="41.0" width="6.0" height="10.0" fill="#ffd966"/><rect x="33.0" y="71.0" width="6.0" height="10.0" fill="#ffd966"/><rect x="39.0" y="71.0" width="6.0" height="10.0" fill="#ffd966"/><rect x="51.0" y="71.0" width="6.0" height="10.0" fill="#ffd966"/><rect x="57.0" y="71.0" width="6.0" height="10.0" fill="#ffd966"/><rect x="69.0" y="71.0" width="6.0" height="10.0" fill="#ffd966"/><rect x="75.0" y="71.0" width="6.0" height="10.0" fill="#ffd966"/><rect x="81.0" y="71.0" width="6.0" height="10.0" fill="#ffd966"/><rect x="81.0" y="91.0" width="6.0" height="10.0" fill="#ffd966"/><rect x="69.0" y="101.0" width="6.0" height="10.0" fill="#ffd966"/><rect x="63.0" y="101.0" width="6.0" height="10.0" fill="#ffd966"/><rect x="39.0" y="101.0" width="6.0" height="10.0" fill="#ffd966"/><rect x="33.0" y="101.0" width="6.0" height="10.0" fill="#ffd966"/><rect x="27.0" y="81.0" width="6.0" height="10.0" fill="#ffd966"/><rect x="87.0" y="71.0" width="6.0" height="10.0" fill="#000000"/><rect x="93.0" y="71.0" width="6.0" height="10.0" fill="#000000"/><rect x="99.0" y="71.0" width="6.0" height="10.0" fill="#000000"/><rect x="105.0" y="71.0" width="6.0" height="10.0" fill="#000000"/><rect x="111.0" y="71.0" width="6.0" height="10.0" fill="#000000"/><rect x="123.0" y="71.0" width="6.0" height="10.0" fill="#000000"/><rect x="129.0" y="71.0" width="6.0" height="10.0" fill="#000000"/><rect x="141.0" y="71.0" width="6.0" height="10.0" fill="#000000"/><rect x="141.0" y="81.0" width="6.0" height="10.0" fill="#000000"/><rect x="141.0" y="91.0" width="6.0" height="10.0" fill="#000000"/><rect x="141.0" y="101.0" width="6.0" height="10.0" fill="#000000"/><rect x="135.0" y="101.0" width="6.0" height="10.0" fill="#000000"/><rect x="129.0" y="101.0" width="6.0" height="10.0" fill="#000000"/><rect x="123.0" y="101.0" width="6.0" height="10.0" fill="#000000"/><rect x="117.0" y="101.0" width="6.0" height="10.0" fill="#000000"/><rect x="99.0" y="101.0" width="6.0" height="10.0" fill="#000000"/><rect x="93.0" y="101.0" width="6.0" height="10.0" fill="#000000"/><rect x="33.0" y="111.0" width="6.0" height="10.0" fill="#2f3fbf"/><rect x="45.0" y="111.0" width="6.0" height="10.0" fill="#2f3fbf"/><rect x="63.0" y="111.0" width="6.0" height="10.0" fill="#2f3fbf"/><rect x="69.0" y="111.0" width="6.0" height="10.0" fill="#2f3fbf"/><rect x="81.0" y="121.0" width="6.0" height="10.0" fill="#2f3fbf"/><rect x="81.0" y="131.0" width="6.0" height="10.0" fill="#2f3fbf"/><rect x="75.0" y="141.0" width="6.0" height="10.0" fill="#2f3fbf"/><rect x="69.0" y="141.0" width="6.0" height="10.0" fill="#2f3fbf"/><rect x="63.0" y="141.0" width="6.0" height="10.0" fill="#2f3fbf"/><rect x="57.0" y="141.0" width="6.0" height="10.0" fill="#2f3fbf"/><rect x="45.0" y="141.0" width="6.0" height="10.0" fill="#2f3fbf"/><rect x="39.0" y="141.0" width="6.0" height="10.0" fill="#2f3fbf"/><rect x="99.0" y="111.0" width="6.0" height="10.0" fill="#000000"/><rect x="117.0" y="111.0" width="6.0" height="10.0" fill="#000000"/><rect x="129.0" y="111.0" width="6.0" height="10.0" fill="#000000"/><rect x="135.0" y="111.0" width="6.0" height="10.0" fill="#000000"/><rect x="135.0" y="141.0" width="6.0" height="10.0" fill="#000000"/><rect x="123.0" y="141.0" width="6.0" height="10.0" fill="#000000"/><rect x="111.0" y="141.0" width="6.0" height="10.0" fill="#000000"/><rect x="99.0" y="141.0" width="6.0" height="10.0" fill="#000000"/></g><g clip-path="url(#grid-clip-fab8acbd4ebb98cb-2x3)" data-channel="ellipse" data-ellipse-anchor-x="27.0" data-ellipse-anchor-y="31.0" data-ellipse-rx="45.48110816591874" data-ellipse-ry="73.99165358336032" data-ellipse-rotation-deg="84.0"><ellipse cx="27.0" cy="31.0" rx="45.48110816591874" ry="73.99165358336032" transform="rotate(84.0 27.0 31.0)" fill="#000000" fill-opacity="0.4"/></g><g><g data-channel="cell" data-cell-index="0" data-cell-row="0" data-cell-col="0"><rect x="33.0" y="41.0" width="48.0" height="20.0" fill="#840e45"/><text x="57.0" y="51.0" fill="#ffffff" style="font-family: &quot;JetBrains Mono&quot;, &quot;Menlo&quot;, &quot;Consolas&quot;, &quot;DejaVu Sans Mono&quot;, &quot;Liberation Mono&quot;, &quot;Roboto Mono&quot;, &quot;Noto Sans Mono&quot;, monospace; font-size: 12.0px;" text-anchor="middle" dominant-baseline="central">450e84</text></g><g data-channel="cell" data-cell-index="1" data-cell-row="0" data-cell-col="1"><rect x="93.0" y="41.0" width="48.0" height="20.0" fill="#9be200"/><text x="117.0" y="51.0" fill="#000000" style="font-family: &quot;JetBrains Mono&quot;, &quot;Menlo&quot;, &quot;Consolas&quot;, &quot;DejaVu Sans Mono&quot;, &quot;Liberation Mono&quot;, &quot;Roboto Mono&quot;, &quot;Noto Sans Mono&quot;, monospace; font-size: 12.0px;" text-anchor="middle" dominant-baseline="central">00e29b</text></g><g data-channel="cell" data-cell-index="2" data-cell-row="1" data-cell-col="0" data-cell-quartile="1"><rect x="33.0" y="81.0" width="48.0" height="20.0" fill="#a7d441"/><text x="57.0" y="91.0" fill="#000000" style="font-family: &quot;JetBrains Mono&quot;, &quot;Menlo&quot;, &quot;Consolas&quot;, &quot;DejaVu Sans Mono&quot;, &quot;Liberation Mono&quot;, &quot;Roboto Mono&quot;, &quot;Noto Sans Mono&quot;, monospace; font-size: 12.0px;" text-anchor="middle" dominant-baseline="central">41d4a7</text><polygon points="33.0,81.0 43.0,81.0 33.0,91.0" fill="#000000"/></g><g data-channel="cell" data-cell-index="3" data-cell-row="1" data-cell-col="1"><rect x="93.0" y="81.0" width="48.0" height="20.0" fill="#664416"/><text x="117.0" y="91.0" fill="#ffffff" style="font-family: &quot;JetBrains Mono&quot;, &quot;Menlo&quot;, &quot;Consolas&quot;, &quot;DejaVu Sans Mono&quot;, &quot;Liberation Mono&quot;, &quot;Roboto Mono&quot;, &quot;Noto Sans Mono&quot;, monospace; font-size: 12.0px;" text-anchor="middle" dominant-baseline="central">164466</text></g><g data-channel="cell" data-cell-index="4" data-cell-row="2" data-cell-col="0" data-cell-quartile="2"><rect x="33.0" y="121.0" width="48.0" height="20.0" fill="#004455"/><text x="57.0" y="131.0" fill="#ffffff" style="font-family: &quot;JetBrains Mono&quot;, &quot;Menlo&quot;, &quot;Consolas&quot;, &quot;DejaVu Sans Mono&quot;, &quot;Liberation Mono&quot;, &quot;Roboto Mono&quot;, &quot;Noto Sans Mono&quot;, monospace; font-size: 12.0px;" text-anchor="middle" dominant-baseline="central">554400</text><polygon points="81.0,121.0 71.0,121.0 81.0,131.0" fill="#ffffff"/></g><g data-channel="cell" data-cell-index="5" data-cell-row="2" data-cell-col="1" data-cell-quartile="3"><rect x="93.0" y="121.0" width="48.0" height="20.0" fill="#000000"/><text x="117.0" y="131.0" fill="#ffffff" style="font-family: &quot;JetBrains Mono&quot;, &quot;Menlo&quot;, &quot;Consolas&quot;, &quot;DejaVu Sans Mono&quot;, &quot;Liberation Mono&quot;, &quot;Roboto Mono&quot;, &quot;Noto Sans Mono&quot;, monospace; font-size: 12.0px;" text-anchor="middle" dominant-baseline="central">00</text><polygon points="141.0,141.0 141.0,131.0 131.0,141.0" fill="#ffffff"/></g></g></g><g data-channel="color-bar"><g data-color-bar-rank="0" data-color-bar-band="B"><rect x="1" y="1" width="20.0" height="62.899415019212945" fill="#2f3fbf"/><text x="11.0" y="61.259415019212945" fill="#ffffff" style="font-family: &quot;JetBrains Mono&quot;, &quot;Menlo&quot;, &quot;Consolas&quot;, &quot;DejaVu Sans Mono&quot;, &quot;Liberation Mono&quot;, &quot;Roboto Mono&quot;, &quot;Noto Sans Mono&quot;, monospace; font-size: 12.0px;" text-anchor="middle" data-color-bar-letter="true">b</text></g><g data-color-bar-rank="1" data-color-bar-band="G"><rect x="1" y="63.899415019212945" width="20.0" height="32.728185190319955" fill="#ffd966"/><text x="11.0" y="93.9876002095329" fill="#000000" style="font-family: &quot;JetBrains Mono&quot;, &quot;Menlo&quot;, &quot;Consolas&quot;, &quot;DejaVu Sans Mono&quot;, &quot;Liberation Mono&quot;, &quot;Roboto Mono&quot;, &quot;Noto Sans Mono&quot;, monospace; font-size: 12.0px;" text-anchor="middle" data-color-bar-letter="true">g</text></g><g data-color-bar-rank="2" data-color-bar-band="K"><rect x="1" y="96.6276002095329" width="20.0" height="30.667226866235637" fill="#000000"/><text x="11.0" y="124.65482707576854" fill="#ffffff" style="font-family: &quot;JetBrains Mono&quot;, &quot;Menlo&quot;, &quot;Consolas&quot;, &quot;DejaVu Sans Mono&quot;, &quot;Liberation Mono&quot;, &quot;Roboto Mono&quot;, &quot;Noto Sans Mono&quot;, monospace; font-size: 12.0px;" text-anchor="middle" data-color-bar-letter="true">k</text></g><g data-color-bar-rank="3" data-color-bar-band="W"><rect x="1" y="127.29482707576854" width="20.0" height="28.705172924231462" fill="#ffffff"/><text x="11.0" y="153.36" fill="#000000" style="font-family: &quot;JetBrains Mono&quot;, &quot;Menlo&quot;, &quot;Consolas&quot;, &quot;DejaVu Sans Mono&quot;, &quot;Liberation Mono&quot;, &quot;Roboto Mono&quot;, &quot;Noto Sans Mono&quot;, monospace; font-size: 12.0px;" text-anchor="middle" data-color-bar-letter="true">w</text></g></g><g data-channel="label-top"><text x="27.0" y="16.0" fill="#666666" style="font-family: &quot;JetBrains Mono&quot;, &quot;Menlo&quot;, &quot;Consolas&quot;, &quot;DejaVu Sans Mono&quot;, &quot;Liberation Mono&quot;, &quot;Roboto Mono&quot;, &quot;Noto Sans Mono&quot;, monospace; font-size: 12.0px;" dominant-baseline="central">UUID:</text></g><line x1="0" y1="0.5" x2="153.0" y2="0.5" stroke="#808080" stroke-width="1" shape-rendering="crispEdges"/><line x1="152.5" y1="0" x2="152.5" y2="157.0" stroke="#808080" stroke-width="1" shape-rendering="crispEdges"/><line x1="0" y1="156.5" x2="153.0" y2="156.5" stroke="#808080" stroke-width="1" shape-rendering="crispEdges"/><line x1="0.5" y1="0" x2="0.5" y2="157.0" stroke="#808080" stroke-width="1" shape-rendering="crispEdges"/><line x1="21.5" y1="0" x2="21.5" y2="157.0" stroke="#808080" stroke-width="1" shape-rendering="crispEdges"/></svg>