<svg width="155" height="154" viewBox="0 0 155 154" xmlns="http://www.w3.org/2000/svg" font-family="&quot;JetBrains Mono&quot;, &quot;Menlo&quot;, &quot;Consolas&quot;, &quot;DejaVu Sans Mono&quot;, &quot;Liberation Mono&quot;, &quot;Roboto Mono&quot;, &quot;Noto Sans Mono&quot;, monospace" data-entviz-version="v12" data-entviz-lib="0.12.0" data-input-bytes="36" data-cols="2" data-rows="3"><defs><clipPath id="grid-clip-fab8acbd4ebb98cb-2x3"><rect x="28" y="27" width="120" height="120"/></clipPath></defs><rect x="1" y="1" width="153" height="152" fill="#ffffff"/><g data-channel="grid"><rect x="28" y="27" width="120" height="120" fill="#ff3f2f"/><g><path fill="#ffffff" d="M40 27h6v10h-6zM46 27h6v10h-6zM58 27h6v10h-6zM70 27h6v10h-6zM82 47h6v10h-6zM82 57h6v10h-6zM76 57h6v10h-6zM64 57h6v10h-6zM52 57h6v10h-6zM40 57h6v10h-6zM34 57h6v10h-6zM28 57h6v10h-6zM28 47h6v10h-6zM28 37h6v10h-6z"/><path fill="#e7be00" d="M88 27h6v10h-6zM94 27h6v10h-6zM106 27h6v10h-6zM112 27h6v10h-6zM118 27h6v10h-6zM130 27h6v10h-6zM142 27h6v10h-6zM142 37h6v10h-6zM142 47h6v10h-6zM130 57h6v10h-6zM118 57h6v10h-6zM106 57h6v10h-6zM100 57h6v10h-6zM94 57h6v10h-6zM88 57h6v10h-6zM88 37h6v10h-6z"/><path fill="#2f3fbf" d="M34 67h6v10h-6zM40 67h6v10h-6zM52 67h6v10h-6zM58 67h6v10h-6zM70 67h6v10h-6zM76 67h6v10h-6zM82 67h6v10h-6zM82 87h6v10h-6zM70 97h6v10h-6zM64 97h6v10h-6zM40 97h6v10h-6zM34 97h6v10h-6zM28 77h6v10h-6z"/><path fill="#000000" d="M88 67h6v10h-6zM94 67h6v10h-6zM100 67h6v10h-6zM106 67h6v10h-6zM112 67h6v10h-6zM124 67h6v10h-6zM130 67h6v10h-6zM142 67h6v10h-6zM142 77h6v10h-6zM142 87h6v10h-6zM142 97h6v10h-6zM136 97h6v10h-6zM130 97h6v10h-6zM124 97h6v10h-6zM118 97h6v10h-6zM100 97h6v10h-6zM94 97h6v10h-6z"/><path fill="#2f3fbf" d="M34 107h6v10h-6zM46 107h6v10h-6zM64 107h6v10h-6zM70 107h6v10h-6zM82 117h6v10h-6zM82 127h6v10h-6zM76 137h6v10h-6zM70 137h6v10h-6zM64 137h6v10h-6zM58 137h6v10h-6zM46 137h6v10h-6zM40 137h6v10h-6z"/><path fill="#000000" d="M100 107h6v10h-6zM118 107h6v10h-6zM130 107h6v10h-6zM136 107h6v10h-6zM136 137h6v10h-6zM124 137h6v10h-6zM112 137h6v10h-6zM100 137h6v10h-6z"/></g><g clip-path="url(#grid-clip-fab8acbd4ebb98cb-2x3)" data-channel="ellipse" data-ellipse-anchor-x="28" data-ellipse-anchor-y="27" data-ellipse-rx="45.481" data-ellipse-ry="73.992" data-ellipse-rotation-deg="84"><ellipse cx="28" cy="27" rx="45.481" ry="73.992" transform="rotate(84 28 27)" fill="#000000" stroke="#000000" fill-opacity="0.25" stroke-opacity="0.35" stroke-width="2"/></g><g><g data-channel="cell" data-cell-index="0" data-cell-row="0" data-cell-col="0" data-surround-bits="0xfab8ac" data-edge-color="#ffffff"><rect x="34" y="37" width="48" height="20" fill="#840e45"/><text x="58" y="47" fill="#ffffff" font-size="12" text-anchor="middle" dominant-baseline="central">450e84</text></g><g data-channel="cell" data-cell-index="1" data-cell-row="0" data-cell-col="1" data-surround-bits="0xbd4ebb" data-edge-color="#e7be00"><rect x="94" y="37" width="48" height="20" fill="#9be200"/><text x="118" y="47" fill="#000000" font-size="12" text-anchor="middle" dominant-baseline="central">00e29b</text></g><g data-channel="cell" data-cell-index="2" data-cell-row="1" data-cell-col="0" data-surround-bits="0x98cbb6" data-edge-color="#2f3fbf" data-cell-quartile="1"><rect x="34" y="77" width="48" height="20" fill="#a7d441"/><text x="58" y="87" fill="#000000" font-size="12" text-anchor="middle" dominant-baseline="central">41d4a7</text><polygon points="34,77 44,77 34,87" fill="#000000"/></g><g data-channel="cell" data-cell-index="3" data-cell-row="1" data-cell-col="1" data-surround-bits="0x19fedf" data-edge-color="#000000"><rect x="94" y="77" width="48" height="20" fill="#664416"/><text x="118" y="87" fill="#ffffff" font-size="12" text-anchor="middle" dominant-baseline="central">164466</text></g><g data-channel="cell" data-cell-index="4" data-cell-row="2" data-cell-col="0" data-surround-bits="0xdecca" data-edge-color="#2f3fbf" data-cell-quartile="2"><rect x="34" y="117" width="48" height="20" fill="#004455"/><text x="58" y="127" fill="#ffffff" font-size="12" text-anchor="middle" dominant-baseline="central">554400</text><polygon points="82,117 72,117 82,127" fill="#ffffff"/></g><g data-channel="cell" data-cell-index="5" data-cell-row="2" data-cell-col="1" data-surround-bits="0xaa1a4" data-edge-color="#000000" data-cell-quartile="3"><rect x="94" y="117" width="48" height="20" fill="#000000"/><text x="118" y="127" fill="#ffffff" font-size="12" text-anchor="middle" dominant-baseline="central">00</text><polygon points="142,137 142,127 132,137" fill="#ffffff"/></g></g></g><g data-channel="color-bar" data-bar-slots="12" data-bar-marker-left="11" data-bar-marker-right="11"><g data-color-bar-rank="0" data-color-bar-band="B"><rect x="2" y="2" width="20" height="60.87" fill="#2f3fbf"/><text x="12" y="60.23" fill="#ffffff" font-size="12" text-anchor="middle" data-color-bar-letter="true">b</text></g><g data-color-bar-rank="1" data-color-bar-band="K"><rect x="2" y="62.87" width="20" height="29.678" fill="#000000"/><text x="12" y="89.908" fill="#ffffff" font-size="12" text-anchor="middle" data-color-bar-letter="true">k</text></g><g data-color-bar-rank="2" data-color-bar-band="W"><rect x="2" y="92.548" width="20" height="27.779" fill="#ffffff"/><text x="12" y="117.688" fill="#000000" font-size="12" text-anchor="middle" data-color-bar-letter="true">w</text></g><g data-color-bar-rank="3" data-color-bar-band="G"><rect x="2" y="120.328" width="20" height="31.672" fill="#e7be00"/><text x="12" y="149.36" fill="#000000" font-size="12" text-anchor="middle" data-color-bar-letter="true">g</text></g><circle cx="6.6" cy="145.75" r="3.4" fill="#ffffff" stroke="#000000" stroke-width="0.75" data-bar-marker="left"/><circle cx="17.4" cy="145.75" r="3.4" fill="#ffffff" stroke="#000000" stroke-width="0.75" data-bar-marker="right"/></g><g data-channel="label-top"><text x="28" y="17" fill="#666666" font-size="12" dominant-baseline="central">UUID:</text></g><line x1="1" y1="1.5" x2="154" y2="1.5" stroke="#808080" stroke-width="1" shape-rendering="crispEdges"/><line x1="153.5" y1="1" x2="153.5" y2="153" stroke="#808080" stroke-width="1" shape-rendering="crispEdges"/><line x1="1" y1="152.5" x2="154" y2="152.5" stroke="#808080" stroke-width="1" shape-rendering="crispEdges"/><line x1="1.5" y1="1" x2="1.5" y2="153" stroke="#808080" stroke-width="1" shape-rendering="crispEdges"/><line x1="22.5" y1="1" x2="22.5" y2="153" stroke="#808080" stroke-width="1" shape-rendering="crispEdges"/></svg>