<svg width="153.0" height="112.0" viewBox="0 0 153.0 112.0" xmlns="http://www.w3.org/2000/svg" data-entviz-version="v9" data-entviz-lib="0.9.2" data-input-bytes="16" data-cols="2" data-rows="2"><defs><clipPath id="grid-clip-b2befddfcc66b255-2x2"><rect x="27.0" y="26.0" width="120.0" height="80.0"/></clipPath></defs><rect x="0" y="0" width="153.0" height="112.0" fill="#ffffff"/><g data-channel="grid"><rect x="27.0" y="26.0" width="120.0" height="80.0" fill="#ffffff"/><g><rect x="27.0" y="26.0" width="6.0" height="10.0" fill="#e7be00"/><rect x="39.0" y="26.0" width="6.0" height="10.0" fill="#e7be00"/><rect x="45.0" y="26.0" width="6.0" height="10.0" fill="#e7be00"/><rect x="51.0" y="26.0" width="6.0" height="10.0" fill="#e7be00"/><rect x="57.0" y="26.0" width="6.0" height="10.0" fill="#e7be00"/><rect x="63.0" y="26.0" width="6.0" height="10.0" fill="#e7be00"/><rect x="69.0" y="26.0" width="6.0" height="10.0" fill="#e7be00"/><rect x="81.0" y="26.0" width="6.0" height="10.0" fill="#e7be00"/><rect x="81.0" y="36.0" width="6.0" height="10.0" fill="#e7be00"/><rect x="81.0" y="46.0" width="6.0" height="10.0" fill="#e7be00"/><rect x="81.0" y="56.0" width="6.0" height="10.0" fill="#e7be00"/><rect x="75.0" y="56.0" width="6.0" height="10.0" fill="#e7be00"/><rect x="63.0" y="56.0" width="6.0" height="10.0" fill="#e7be00"/><rect x="51.0" y="56.0" width="6.0" height="10.0" fill="#e7be00"/><rect x="33.0" y="56.0" width="6.0" height="10.0" fill="#e7be00"/><rect x="27.0" y="56.0" width="6.0" height="10.0" fill="#e7be00"/><rect x="27.0" y="36.0" width="6.0" height="10.0" fill="#e7be00"/><rect x="93.0" y="26.0" width="6.0" height="10.0" fill="#e7be00"/><rect x="99.0" y="26.0" width="6.0" height="10.0" fill="#e7be00"/><rect x="117.0" y="26.0" width="6.0" height="10.0" fill="#e7be00"/><rect x="123.0" y="26.0" width="6.0" height="10.0" fill="#e7be00"/><rect x="141.0" y="36.0" width="6.0" height="10.0" fill="#e7be00"/><rect x="141.0" y="46.0" width="6.0" height="10.0" fill="#e7be00"/><rect x="129.0" y="56.0" width="6.0" height="10.0" fill="#e7be00"/><rect x="123.0" y="56.0" width="6.0" height="10.0" fill="#e7be00"/><rect x="117.0" y="56.0" width="6.0" height="10.0" fill="#e7be00"/><rect x="111.0" y="56.0" width="6.0" height="10.0" fill="#e7be00"/><rect x="105.0" y="56.0" width="6.0" height="10.0" fill="#e7be00"/><rect x="99.0" y="56.0" width="6.0" height="10.0" fill="#e7be00"/><rect x="93.0" y="56.0" width="6.0" height="10.0" fill="#e7be00"/><rect x="87.0" y="46.0" width="6.0" height="10.0" fill="#e7be00"/><rect x="87.0" y="36.0" width="6.0" height="10.0" fill="#e7be00"/><rect x="111.0" y="66.0" width="6.0" height="10.0" fill="#e7be00"/><rect x="117.0" y="66.0" width="6.0" height="10.0" fill="#e7be00"/><rect x="123.0" y="66.0" width="6.0" height="10.0" fill="#e7be00"/><rect x="135.0" y="66.0" width="6.0" height="10.0" fill="#e7be00"/><rect x="141.0" y="76.0" width="6.0" height="10.0" fill="#e7be00"/><rect x="141.0" y="96.0" width="6.0" height="10.0" fill="#e7be00"/><rect x="129.0" y="96.0" width="6.0" height="10.0" fill="#e7be00"/><rect x="111.0" y="96.0" width="6.0" height="10.0" fill="#e7be00"/><rect x="93.0" y="96.0" width="6.0" height="10.0" fill="#e7be00"/><rect x="87.0" y="96.0" width="6.0" height="10.0" fill="#e7be00"/><rect x="87.0" y="76.0" width="6.0" height="10.0" fill="#e7be00"/></g><g clip-path="url(#grid-clip-b2befddfcc66b255-2x2)" data-channel="ellipse" data-ellipse-anchor-x="147.0" data-ellipse-anchor-y="66.0" data-ellipse-rx="30.86382996324338" data-ellipse-ry="58.18590894709817" data-ellipse-rotation-deg="96.0"><ellipse cx="147.0" cy="66.0" rx="30.86382996324338" ry="58.18590894709817" transform="rotate(96.0 147.0 66.0)" fill="#000000" stroke="#000000" fill-opacity="0.2" stroke-opacity="0.3" stroke-width="2.0"/></g><g><g data-channel="cell" data-cell-index="0" data-cell-row="0" data-cell-col="0" data-cell-quartile="1"><rect x="33.0" y="36.0" width="48.0" height="20.0" fill="#c3b2a1"/><text x="57.0" y="46.0" fill="#000000" style="font-family: &quot;JetBrains Mono&quot;, &quot;Menlo&quot;, &quot;Consolas&quot;, &quot;DejaVu Sans Mono&quot;, &quot;Liberation Mono&quot;, &quot;Roboto Mono&quot;, &quot;Noto Sans Mono&quot;, monospace; font-size: 12.0px;" text-anchor="middle" dominant-baseline="central">a1b2c3</text><polygon points="33.0,36.0 43.0,36.0 33.0,46.0" fill="#000000"/></g><g data-channel="cell" data-cell-index="1" data-cell-row="0" data-cell-col="1" data-cell-quartile="2"><rect x="93.0" y="36.0" width="48.0" height="20.0" fill="#f6e5d4"/><text x="117.0" y="46.0" fill="#000000" style="font-family: &quot;JetBrains Mono&quot;, &quot;Menlo&quot;, &quot;Consolas&quot;, &quot;DejaVu Sans Mono&quot;, &quot;Liberation Mono&quot;, &quot;Roboto Mono&quot;, &quot;Noto Sans Mono&quot;, monospace; font-size: 12.0px;" text-anchor="middle" dominant-baseline="central">d4e5f6</text><polygon points="141.0,36.0 131.0,36.0 141.0,46.0" fill="#000000"/></g><g data-channel="cell" data-cell-index="2" data-cell-row="1" data-cell-col="0" data-cell-blank="true" data-cell-blank-map="true"><rect x="33.0" y="76.0" width="48.0" height="20.0" rx="10.0" ry="10.0" fill="#e7be00" stroke="#000000" stroke-width="1"/><circle cx="69.0" cy="91.0" r="3.5" fill="#1d4ed8" data-blank-map-min="1,1"/><path d="M 64.8,81.0 H 73.2 M 69.0,76.8 V 85.2" fill="none" stroke="#d62828" stroke-width="1.9250000000000003" stroke-linecap="butt" data-blank-map-max="0,1"/></g><g data-channel="cell" data-cell-index="3" data-cell-row="1" data-cell-col="1" data-cell-quartile="3"><rect x="93.0" y="76.0" width="48.0" height="20.0" fill="#b8b8a7"/><text x="117.0" y="86.0" fill="#000000" style="font-family: &quot;JetBrains Mono&quot;, &quot;Menlo&quot;, &quot;Consolas&quot;, &quot;DejaVu Sans Mono&quot;, &quot;Liberation Mono&quot;, &quot;Roboto Mono&quot;, &quot;Noto Sans Mono&quot;, monospace; font-size: 12.0px;" text-anchor="middle" dominant-baseline="central">a7b8</text><polygon points="141.0,96.0 141.0,86.0 131.0,96.0" fill="#000000"/></g></g></g><g data-channel="color-bar" data-bar-slots="9" data-bar-marker-left="1" data-bar-marker-right="0"><g data-color-bar-rank="0" data-color-bar-band="B"><rect x="1" y="1" width="20.0" height="17.843246939127006" fill="#2f3fbf"/><text x="11.0" y="16.203246939127006" fill="#ffffff" style="font-family: &quot;JetBrains Mono&quot;, &quot;Menlo&quot;, &quot;Consolas&quot;, &quot;DejaVu Sans Mono&quot;, &quot;Liberation Mono&quot;, &quot;Roboto Mono&quot;, &quot;Noto Sans Mono&quot;, monospace; font-size: 12.0px;" text-anchor="middle" data-color-bar-letter="true">b</text></g><g data-color-bar-rank="1" data-color-bar-band="G"><rect x="1" y="18.843246939127006" width="20.0" height="39.57271297063279" fill="#e7be00"/><text x="11.0" y="55.7759599097598" fill="#000000" style="font-family: &quot;JetBrains Mono&quot;, &quot;Menlo&quot;, &quot;Consolas&quot;, &quot;DejaVu Sans Mono&quot;, &quot;Liberation Mono&quot;, &quot;Roboto Mono&quot;, &quot;Noto Sans Mono&quot;, monospace; font-size: 12.0px;" text-anchor="middle" data-color-bar-letter="true">g</text></g><g data-color-bar-rank="2" data-color-bar-band="K"><rect x="1" y="58.4159599097598" width="20.0" height="41.81742433850415" fill="#000000"/><text x="11.0" y="97.59338424826394" fill="#ffffff" style="font-family: &quot;JetBrains Mono&quot;, &quot;Menlo&quot;, &quot;Consolas&quot;, &quot;DejaVu Sans Mono&quot;, &quot;Liberation Mono&quot;, &quot;Roboto Mono&quot;, &quot;Noto Sans Mono&quot;, monospace; font-size: 12.0px;" text-anchor="middle" data-color-bar-letter="true">k</text></g><g data-color-bar-rank="3" data-color-bar-band="R"><rect x="1" y="100.23338424826395" width="20.0" height="10.766615751736055" fill="#ff3f2f"/><text x="11.0" y="108.36" fill="#000000" style="font-family: &quot;JetBrains Mono&quot;, &quot;Menlo&quot;, &quot;Consolas&quot;, &quot;DejaVu Sans Mono&quot;, &quot;Liberation Mono&quot;, &quot;Roboto Mono&quot;, &quot;Noto Sans Mono&quot;, monospace; font-size: 12.0px;" text-anchor="middle" data-color-bar-letter="true">r</text></g><circle cx="5.6000000000000005" cy="19.333333333333332" r="3.4000000000000004" fill="#ffffff" stroke="#000000" stroke-width="0.75" data-bar-marker="left"/><circle cx="16.4" cy="7.111111111111111" r="3.4000000000000004" fill="#ffffff" stroke="#000000" stroke-width="0.75" data-bar-marker="right"/></g><g data-channel="label-top"><text x="27.0" y="16.0" fill="#666666" style="font-family: &quot;JetBrains Mono&quot;, &quot;Menlo&quot;, &quot;Consolas&quot;, &quot;DejaVu Sans Mono&quot;, &quot;Liberation Mono&quot;, &quot;Roboto Mono&quot;, &quot;Noto Sans Mono&quot;, monospace; font-size: 12.0px;" dominant-baseline="central">hex(16):</text></g><line x1="0" y1="0.5" x2="153.0" y2="0.5" stroke="#808080" stroke-width="1" shape-rendering="crispEdges"/><line x1="152.5" y1="0" x2="152.5" y2="112.0" stroke="#808080" stroke-width="1" shape-rendering="crispEdges"/><line x1="0" y1="111.5" x2="153.0" y2="111.5" stroke="#808080" stroke-width="1" shape-rendering="crispEdges"/><line x1="0.5" y1="0" x2="0.5" y2="112.0" stroke="#808080" stroke-width="1" shape-rendering="crispEdges"/><line x1="21.5" y1="0" x2="21.5" y2="112.0" stroke="#808080" stroke-width="1" shape-rendering="crispEdges"/></svg>