<svg width="203.0" height="197.0" xmlns="http://www.w3.org/2000/svg"><defs><clipPath id="grid-clip-ad2981aa-3x4"><rect x="17.0" y="31.0" width="180.0" height="160.0"/></clipPath></defs><rect x="0" y="0" width="203.0" height="197.0" fill="#ffffff"/><rect x="17.0" y="31.0" width="180.0" height="160.0" fill="#2f3fbf"/><rect x="17.0" y="31.0" width="6.0" height="10.0" fill="#000000"/><rect x="59.0" y="31.0" width="6.0" height="10.0" fill="#000000"/><rect x="65.0" y="31.0" width="6.0" height="10.0" fill="#000000"/><rect x="71.0" y="51.0" width="6.0" height="10.0" fill="#000000"/><rect x="65.0" y="61.0" width="6.0" height="10.0" fill="#000000"/><rect x="47.0" y="61.0" width="6.0" height="10.0" fill="#000000"/><rect x="35.0" y="61.0" width="6.0" height="10.0" fill="#000000"/><rect x="29.0" y="61.0" width="6.0" height="10.0" fill="#000000"/><rect x="17.0" y="61.0" width="6.0" height="10.0" fill="#000000"/><rect x="17.0" y="41.0" width="6.0" height="10.0" fill="#000000"/><rect x="83.0" y="31.0" width="6.0" height="10.0" fill="#ffd966"/><rect x="89.0" y="31.0" width="6.0" height="10.0" fill="#ffd966"/><rect x="95.0" y="31.0" width="6.0" height="10.0" fill="#ffd966"/><rect x="101.0" y="31.0" width="6.0" height="10.0" fill="#ffd966"/><rect x="107.0" y="31.0" width="6.0" height="10.0" fill="#ffd966"/><rect x="119.0" y="31.0" width="6.0" height="10.0" fill="#ffd966"/><rect x="131.0" y="51.0" width="6.0" height="10.0" fill="#ffd966"/><rect x="131.0" y="61.0" width="6.0" height="10.0" fill="#ffd966"/><rect x="119.0" y="61.0" width="6.0" height="10.0" fill="#ffd966"/><rect x="101.0" y="61.0" width="6.0" height="10.0" fill="#ffd966"/><rect x="89.0" y="61.0" width="6.0" height="10.0" fill="#ffd966"/><rect x="77.0" y="61.0" width="6.0" height="10.0" fill="#ffd966"/><rect x="77.0" y="41.0" width="6.0" height="10.0" fill="#ffd966"/><rect x="149.0" y="31.0" width="6.0" height="10.0" fill="#ffffff"/><rect x="167.0" y="31.0" width="6.0" height="10.0" fill="#ffffff"/><rect x="179.0" y="31.0" width="6.0" height="10.0" fill="#ffffff"/><rect x="185.0" y="31.0" width="6.0" height="10.0" fill="#ffffff"/><rect x="191.0" y="31.0" width="6.0" height="10.0" fill="#ffffff"/><rect x="185.0" y="61.0" width="6.0" height="10.0" fill="#ffffff"/><rect x="179.0" y="61.0" width="6.0" height="10.0" fill="#ffffff"/><rect x="161.0" y="61.0" width="6.0" height="10.0" fill="#ffffff"/><rect x="149.0" y="61.0" width="6.0" height="10.0" fill="#ffffff"/><rect x="137.0" y="51.0" width="6.0" height="10.0" fill="#ffffff"/><rect x="137.0" y="41.0" width="6.0" height="10.0" fill="#ffffff"/><rect x="17.0" y="71.0" width="6.0" height="10.0" fill="#000000"/><rect x="41.0" y="71.0" width="6.0" height="10.0" fill="#000000"/><rect x="47.0" y="71.0" width="6.0" height="10.0" fill="#000000"/><rect x="71.0" y="91.0" width="6.0" height="10.0" fill="#000000"/><rect x="53.0" y="101.0" width="6.0" height="10.0" fill="#000000"/><rect x="47.0" y="101.0" width="6.0" height="10.0" fill="#000000"/><rect x="41.0" y="101.0" width="6.0" height="10.0" fill="#000000"/><rect x="29.0" y="101.0" width="6.0" height="10.0" fill="#000000"/><rect x="23.0" y="101.0" width="6.0" height="10.0" fill="#000000"/><rect x="17.0" y="81.0" width="6.0" height="10.0" fill="#000000"/><rect x="77.0" y="71.0" width="6.0" height="10.0" fill="#ffd966"/><rect x="95.0" y="71.0" width="6.0" height="10.0" fill="#ffd966"/><rect x="119.0" y="71.0" width="6.0" height="10.0" fill="#ffd966"/><rect x="125.0" y="71.0" width="6.0" height="10.0" fill="#ffd966"/><rect x="131.0" y="71.0" width="6.0" height="10.0" fill="#ffd966"/><rect x="131.0" y="91.0" width="6.0" height="10.0" fill="#ffd966"/><rect x="119.0" y="101.0" width="6.0" height="10.0" fill="#ffd966"/><rect x="107.0" y="101.0" width="6.0" height="10.0" fill="#ffd966"/><rect x="101.0" y="101.0" width="6.0" height="10.0" fill="#ffd966"/><rect x="95.0" y="101.0" width="6.0" height="10.0" fill="#ffd966"/><rect x="77.0" y="101.0" width="6.0" height="10.0" fill="#ffd966"/><rect x="143.0" y="71.0" width="6.0" height="10.0" fill="#000000"/><rect x="149.0" y="71.0" width="6.0" height="10.0" fill="#000000"/><rect x="167.0" y="71.0" width="6.0" height="10.0" fill="#000000"/><rect x="173.0" y="71.0" width="6.0" height="10.0" fill="#000000"/><rect x="185.0" y="71.0" width="6.0" height="10.0" fill="#000000"/><rect x="191.0" y="71.0" width="6.0" height="10.0" fill="#000000"/><rect x="191.0" y="81.0" width="6.0" height="10.0" fill="#000000"/><rect x="191.0" y="101.0" width="6.0" height="10.0" fill="#000000"/><rect x="149.0" y="101.0" width="6.0" height="10.0" fill="#000000"/><rect x="143.0" y="101.0" width="6.0" height="10.0" fill="#000000"/><rect x="137.0" y="91.0" width="6.0" height="10.0" fill="#000000"/><rect x="137.0" y="81.0" width="6.0" height="10.0" fill="#000000"/><rect x="17.0" y="111.0" width="6.0" height="10.0" fill="#ff3f2f"/><rect x="35.0" y="111.0" width="6.0" height="10.0" fill="#ff3f2f"/><rect x="41.0" y="111.0" width="6.0" height="10.0" fill="#ff3f2f"/><rect x="47.0" y="111.0" width="6.0" height="10.0" fill="#ff3f2f"/><rect x="53.0" y="111.0" width="6.0" height="10.0" fill="#ff3f2f"/><rect x="65.0" y="111.0" width="6.0" height="10.0" fill="#ff3f2f"/><rect x="71.0" y="121.0" width="6.0" height="10.0" fill="#ff3f2f"/><rect x="71.0" y="131.0" width="6.0" height="10.0" fill="#ff3f2f"/><rect x="71.0" y="141.0" width="6.0" height="10.0" fill="#ff3f2f"/><rect x="65.0" y="141.0" width="6.0" height="10.0" fill="#ff3f2f"/><rect x="41.0" y="141.0" width="6.0" height="10.0" fill="#ff3f2f"/><rect x="17.0" y="141.0" width="6.0" height="10.0" fill="#ff3f2f"/><rect x="17.0" y="121.0" width="6.0" height="10.0" fill="#ff3f2f"/><rect x="137.0" y="111.0" width="6.0" height="10.0" fill="#ffd966"/><rect x="143.0" y="111.0" width="6.0" height="10.0" fill="#ffd966"/><rect x="149.0" y="111.0" width="6.0" height="10.0" fill="#ffd966"/><rect x="155.0" y="111.0" width="6.0" height="10.0" fill="#ffd966"/><rect x="173.0" y="111.0" width="6.0" height="10.0" fill="#ffd966"/><rect x="185.0" y="111.0" width="6.0" height="10.0" fill="#ffd966"/><rect x="191.0" y="111.0" width="6.0" height="10.0" fill="#ffd966"/><rect x="191.0" y="121.0" width="6.0" height="10.0" fill="#ffd966"/><rect x="179.0" y="141.0" width="6.0" height="10.0" fill="#ffd966"/><rect x="161.0" y="141.0" width="6.0" height="10.0" fill="#ffd966"/><rect x="143.0" y="141.0" width="6.0" height="10.0" fill="#ffd966"/><rect x="137.0" y="141.0" width="6.0" height="10.0" fill="#ffd966"/><rect x="29.0" y="151.0" width="6.0" height="10.0" fill="#000000"/><rect x="35.0" y="151.0" width="6.0" height="10.0" fill="#000000"/><rect x="41.0" y="151.0" width="6.0" height="10.0" fill="#000000"/><rect x="53.0" y="151.0" width="6.0" height="10.0" fill="#000000"/><rect x="65.0" y="151.0" width="6.0" height="10.0" fill="#000000"/><rect x="71.0" y="161.0" width="6.0" height="10.0" fill="#000000"/><rect x="65.0" y="181.0" width="6.0" height="10.0" fill="#000000"/><rect x="59.0" y="181.0" width="6.0" height="10.0" fill="#000000"/><rect x="53.0" y="181.0" width="6.0" height="10.0" fill="#000000"/><rect x="47.0" y="181.0" width="6.0" height="10.0" fill="#000000"/><rect x="41.0" y="181.0" width="6.0" height="10.0" fill="#000000"/><rect x="83.0" y="151.0" width="6.0" height="10.0" fill="#ffd966"/><rect x="89.0" y="151.0" width="6.0" height="10.0" fill="#ffd966"/><rect x="95.0" y="151.0" width="6.0" height="10.0" fill="#ffd966"/><rect x="101.0" y="151.0" width="6.0" height="10.0" fill="#ffd966"/><rect x="107.0" y="151.0" width="6.0" height="10.0" fill="#ffd966"/><rect x="119.0" y="151.0" width="6.0" height="10.0" fill="#ffd966"/><rect x="131.0" y="161.0" width="6.0" height="10.0" fill="#ffd966"/><rect x="131.0" y="171.0" width="6.0" height="10.0" fill="#ffd966"/><rect x="83.0" y="181.0" width="6.0" height="10.0" fill="#ffd966"/><rect x="77.0" y="181.0" width="6.0" height="10.0" fill="#ffd966"/><rect x="77.0" y="171.0" width="6.0" height="10.0" fill="#ffd966"/><rect x="77.0" y="161.0" width="6.0" height="10.0" fill="#ffd966"/><rect x="143.0" y="151.0" width="6.0" height="10.0" fill="#ffffff"/><rect x="149.0" y="151.0" width="6.0" height="10.0" fill="#ffffff"/><rect x="155.0" y="151.0" width="6.0" height="10.0" fill="#ffffff"/><rect x="173.0" y="151.0" width="6.0" height="10.0" fill="#ffffff"/><rect x="167.0" y="181.0" width="6.0" height="10.0" fill="#ffffff"/><rect x="161.0" y="181.0" width="6.0" height="10.0" fill="#ffffff"/><rect x="155.0" y="181.0" width="6.0" height="10.0" fill="#ffffff"/><rect x="137.0" y="181.0" width="6.0" height="10.0" fill="#ffffff"/><g clip-path="url(#grid-clip-ad2981aa-3x4)"><ellipse cx="77.0" cy="71.0" rx="40.0" ry="63.23520916159047" transform="rotate(12.0 77.0 71.0)" fill="#ffffff" fill-opacity="0.4"/></g><rect x="23.0" y="41.0" width="48.0" height="20.0" fill="#452301"/><text x="47.0" y="51.0" fill="#ffffff" style="font-family: monospace; font-size: 12.0px;" text-anchor="middle" dominant-baseline="central">012345</text><rect x="83.0" y="41.0" width="48.0" height="20.0" fill="#ab8967"/><text x="107.0" y="51.0" fill="#000000" style="font-family: monospace; font-size: 12.0px;" text-anchor="middle" dominant-baseline="central">6789ab</text><rect x="143.0" y="41.0" width="48.0" height="20.0" fill="#01efcd"/><text x="167.0" y="51.0" fill="#000000" style="font-family: monospace; font-size: 12.0px;" text-anchor="middle" dominant-baseline="central">cdef01</text><rect x="23.0" y="81.0" width="48.0" height="20.0" fill="#674523"/><text x="47.0" y="91.0" fill="#ffffff" style="font-family: monospace; font-size: 12.0px;" text-anchor="middle" dominant-baseline="central">234567</text><rect x="83.0" y="81.0" width="48.0" height="20.0" fill="#cdab89"/><text x="107.0" y="91.0" fill="#000000" style="font-family: monospace; font-size: 12.0px;" text-anchor="middle" dominant-baseline="central">89abcd</text><rect x="143.0" y="81.0" width="48.0" height="20.0" fill="#2301ef"/><text x="167.0" y="91.0" fill="#ffffff" style="font-family: monospace; font-size: 12.0px;" text-anchor="middle" dominant-baseline="central">ef0123</text><rect x="23.0" y="121.0" width="48.0" height="20.0" fill="#896745"/><text x="47.0" y="131.0" fill="#ffffff" style="font-family: monospace; font-size: 12.0px;" text-anchor="middle" dominant-baseline="central">456789</text><rect x="143.0" y="121.0" width="48.0" height="20.0" fill="#efcdab"/><text x="167.0" y="131.0" fill="#000000" style="font-family: monospace; font-size: 12.0px;" text-anchor="middle" dominant-baseline="central">abcdef</text><rect x="23.0" y="161.0" width="48.0" height="20.0" fill="#452301"/><text x="47.0" y="171.0" fill="#ffffff" style="font-family: monospace; font-size: 12.0px;" text-anchor="middle" dominant-baseline="central">012345</text><rect x="83.0" y="161.0" width="48.0" height="20.0" fill="#ab8967"/><text x="107.0" y="171.0" fill="#000000" style="font-family: monospace; font-size: 12.0px;" text-anchor="middle" dominant-baseline="central">6789ab</text><rect x="143.0" y="161.0" width="48.0" height="20.0" fill="#efefcd"/><text x="167.0" y="171.0" fill="#000000" style="font-family: monospace; font-size: 12.0px;" text-anchor="middle" dominant-baseline="central">cdef</text><circle cx="107.0" cy="131.0" r="17.0" fill="#ffffff" stroke="#000000" stroke-width="1"/><line x1="107.0" y1="131.0" x2="107.0" y2="149.0" stroke="#ffffff" style="mix-blend-mode: difference" stroke-width="1"/><line x1="107.0" y1="131.0" x2="99.92757249812833" y2="135.71495166791445" stroke="#000000" stroke-width="1"/><circle cx="99.92757249812833" cy="135.71495166791445" r="1.5" fill="#ffffff" stroke="#000000" stroke-width="1"/><polygon points="83.0,41.0 93.0,41.0 83.0,51.0" fill="#000000"/><polygon points="71.0,41.0 61.0,41.0 71.0,51.0" fill="#ffffff"/><polygon points="191.0,141.0 191.0,131.0 181.0,141.0" fill="#000000"/><polygon points="143.0,101.0 143.0,91.0 153.0,101.0" fill="#ffffff"/><rect x="1" y="1" width="10.0" height="79.98687354449345" fill="#ff3f2f"/><rect x="1" y="80.98687354449345" width="10.0" height="57.033167718757454" fill="#ffffff"/><rect x="1" y="138.0200412632509" width="10.0" height="36.93271059637361" fill="#ffd966"/><rect x="1" y="174.95275185962453" width="10.0" height="21.047248140375473" fill="#000000"/><text x="17.0" y="16.0" fill="#666666" style="font-family: monospace; font-size: 12.0px;" dominant-baseline="central">hex(64):</text><line x1="0" y1="0.5" x2="203.0" y2="0.5" stroke="#808080" stroke-width="1" shape-rendering="crispEdges"/><line x1="202.5" y1="0" x2="202.5" y2="197.0" stroke="#808080" stroke-width="1" shape-rendering="crispEdges"/><line x1="0" y1="196.5" x2="203.0" y2="196.5" stroke="#808080" stroke-width="1" shape-rendering="crispEdges"/><line x1="0.5" y1="0" x2="0.5" y2="197.0" stroke="#808080" stroke-width="1" shape-rendering="crispEdges"/><line x1="11.5" y1="0" x2="11.5" y2="197.0" stroke="#808080" stroke-width="1" shape-rendering="crispEdges"/></svg>