<svg width="213.0" height="192.0" viewBox="0 0 213.0 192.0" xmlns="http://www.w3.org/2000/svg" data-entviz-version="v6" data-entviz-lib="0.6.0" data-input-bytes="64" data-cols="3" data-rows="4"><defs><clipPath id="grid-clip-ad2981aa58beca63-3x4"><rect x="27.0" y="26.0" width="180.0" height="160.0"/></clipPath></defs><rect x="0" y="0" width="213.0" height="192.0" fill="#ffffff"/><g data-channel="grid"><rect x="27.0" y="26.0" width="180.0" height="160.0" fill="#2f3fbf"/><g><rect x="27.0" y="26.0" width="6.0" height="10.0" fill="#000000"/><rect x="69.0" y="26.0" width="6.0" height="10.0" fill="#000000"/><rect x="75.0" y="26.0" width="6.0" height="10.0" fill="#000000"/><rect x="81.0" y="46.0" width="6.0" height="10.0" fill="#000000"/><rect x="75.0" y="56.0" width="6.0" height="10.0" fill="#000000"/><rect x="57.0" y="56.0" width="6.0" height="10.0" fill="#000000"/><rect x="45.0" y="56.0" width="6.0" height="10.0" fill="#000000"/><rect x="39.0" y="56.0" width="6.0" height="10.0" fill="#000000"/><rect x="27.0" y="56.0" width="6.0" height="10.0" fill="#000000"/><rect x="27.0" y="36.0" width="6.0" height="10.0" fill="#000000"/><rect x="93.0" y="26.0" width="6.0" height="10.0" fill="#ff3f2f"/><rect x="99.0" y="26.0" width="6.0" height="10.0" fill="#ff3f2f"/><rect x="105.0" y="26.0" width="6.0" height="10.0" fill="#ff3f2f"/><rect x="111.0" y="26.0" width="6.0" height="10.0" fill="#ff3f2f"/><rect x="117.0" y="26.0" width="6.0" height="10.0" fill="#ff3f2f"/><rect x="129.0" y="26.0" width="6.0" height="10.0" fill="#ff3f2f"/><rect x="141.0" y="46.0" width="6.0" height="10.0" fill="#ff3f2f"/><rect x="141.0" y="56.0" width="6.0" height="10.0" fill="#ff3f2f"/><rect x="129.0" y="56.0" width="6.0" height="10.0" fill="#ff3f2f"/><rect x="111.0" y="56.0" width="6.0" height="10.0" fill="#ff3f2f"/><rect x="99.0" y="56.0" width="6.0" height="10.0" fill="#ff3f2f"/><rect x="87.0" y="56.0" width="6.0" height="10.0" fill="#ff3f2f"/><rect x="87.0" y="36.0" width="6.0" height="10.0" fill="#ff3f2f"/><rect x="159.0" y="26.0" width="6.0" height="10.0" fill="#ffffff"/><rect x="177.0" y="26.0" width="6.0" height="10.0" fill="#ffffff"/><rect x="189.0" y="26.0" width="6.0" height="10.0" fill="#ffffff"/><rect x="195.0" y="26.0" width="6.0" height="10.0" fill="#ffffff"/><rect x="201.0" y="26.0" width="6.0" height="10.0" fill="#ffffff"/><rect x="195.0" y="56.0" width="6.0" height="10.0" fill="#ffffff"/><rect x="189.0" y="56.0" width="6.0" height="10.0" fill="#ffffff"/><rect x="171.0" y="56.0" width="6.0" height="10.0" fill="#ffffff"/><rect x="159.0" y="56.0" width="6.0" height="10.0" fill="#ffffff"/><rect x="147.0" y="46.0" width="6.0" height="10.0" fill="#ffffff"/><rect x="147.0" y="36.0" width="6.0" height="10.0" fill="#ffffff"/><rect x="27.0" y="66.0" width="6.0" height="10.0" fill="#000000"/><rect x="51.0" y="66.0" width="6.0" height="10.0" fill="#000000"/><rect x="57.0" y="66.0" width="6.0" height="10.0" fill="#000000"/><rect x="81.0" y="86.0" width="6.0" height="10.0" fill="#000000"/><rect x="63.0" y="96.0" width="6.0" height="10.0" fill="#000000"/><rect x="57.0" y="96.0" width="6.0" height="10.0" fill="#000000"/><rect x="51.0" y="96.0" width="6.0" height="10.0" fill="#000000"/><rect x="39.0" y="96.0" width="6.0" height="10.0" fill="#000000"/><rect x="33.0" y="96.0" width="6.0" height="10.0" fill="#000000"/><rect x="27.0" y="76.0" width="6.0" height="10.0" fill="#000000"/><rect x="87.0" y="66.0" width="6.0" height="10.0" fill="#e7be00"/><rect x="105.0" y="66.0" width="6.0" height="10.0" fill="#e7be00"/><rect x="129.0" y="66.0" width="6.0" height="10.0" fill="#e7be00"/><rect x="135.0" y="66.0" width="6.0" height="10.0" fill="#e7be00"/><rect x="141.0" y="66.0" width="6.0" height="10.0" fill="#e7be00"/><rect x="141.0" y="86.0" width="6.0" height="10.0" fill="#e7be00"/><rect x="129.0" y="96.0" width="6.0" height="10.0" fill="#e7be00"/><rect x="117.0" y="96.0" width="6.0" height="10.0" fill="#e7be00"/><rect x="111.0" y="96.0" width="6.0" height="10.0" fill="#e7be00"/><rect x="105.0" y="96.0" width="6.0" height="10.0" fill="#e7be00"/><rect x="87.0" y="96.0" width="6.0" height="10.0" fill="#e7be00"/><rect x="153.0" y="66.0" width="6.0" height="10.0" fill="#000000"/><rect x="159.0" y="66.0" width="6.0" height="10.0" fill="#000000"/><rect x="177.0" y="66.0" width="6.0" height="10.0" fill="#000000"/><rect x="183.0" y="66.0" width="6.0" height="10.0" fill="#000000"/><rect x="195.0" y="66.0" width="6.0" height="10.0" fill="#000000"/><rect x="201.0" y="66.0" width="6.0" height="10.0" fill="#000000"/><rect x="201.0" y="76.0" width="6.0" height="10.0" fill="#000000"/><rect x="201.0" y="96.0" width="6.0" height="10.0" fill="#000000"/><rect x="159.0" y="96.0" width="6.0" height="10.0" fill="#000000"/><rect x="153.0" y="96.0" width="6.0" height="10.0" fill="#000000"/><rect x="147.0" y="86.0" width="6.0" height="10.0" fill="#000000"/><rect x="147.0" y="76.0" width="6.0" height="10.0" fill="#000000"/><rect x="27.0" y="106.0" width="6.0" height="10.0" fill="#ff3f2f"/><rect x="45.0" y="106.0" width="6.0" height="10.0" fill="#ff3f2f"/><rect x="51.0" y="106.0" width="6.0" height="10.0" fill="#ff3f2f"/><rect x="57.0" y="106.0" width="6.0" height="10.0" fill="#ff3f2f"/><rect x="63.0" y="106.0" width="6.0" height="10.0" fill="#ff3f2f"/><rect x="75.0" y="106.0" width="6.0" height="10.0" fill="#ff3f2f"/><rect x="81.0" y="116.0" width="6.0" height="10.0" fill="#ff3f2f"/><rect x="81.0" y="126.0" width="6.0" height="10.0" fill="#ff3f2f"/><rect x="81.0" y="136.0" width="6.0" height="10.0" fill="#ff3f2f"/><rect x="75.0" y="136.0" width="6.0" height="10.0" fill="#ff3f2f"/><rect x="51.0" y="136.0" width="6.0" height="10.0" fill="#ff3f2f"/><rect x="27.0" y="136.0" width="6.0" height="10.0" fill="#ff3f2f"/><rect x="27.0" y="116.0" width="6.0" height="10.0" fill="#ff3f2f"/><rect x="147.0" y="106.0" width="6.0" height="10.0" fill="#ffffff"/><rect x="153.0" y="106.0" width="6.0" height="10.0" fill="#ffffff"/><rect x="159.0" y="106.0" width="6.0" height="10.0" fill="#ffffff"/><rect x="165.0" y="106.0" width="6.0" height="10.0" fill="#ffffff"/><rect x="183.0" y="106.0" width="6.0" height="10.0" fill="#ffffff"/><rect x="195.0" y="106.0" width="6.0" height="10.0" fill="#ffffff"/><rect x="201.0" y="106.0" width="6.0" height="10.0" fill="#ffffff"/><rect x="201.0" y="116.0" width="6.0" height="10.0" fill="#ffffff"/><rect x="189.0" y="136.0" width="6.0" height="10.0" fill="#ffffff"/><rect x="171.0" y="136.0" width="6.0" height="10.0" fill="#ffffff"/><rect x="153.0" y="136.0" width="6.0" height="10.0" fill="#ffffff"/><rect x="147.0" y="136.0" width="6.0" height="10.0" fill="#ffffff"/><rect x="39.0" y="146.0" width="6.0" height="10.0" fill="#000000"/><rect x="45.0" y="146.0" width="6.0" height="10.0" fill="#000000"/><rect x="51.0" y="146.0" width="6.0" height="10.0" fill="#000000"/><rect x="63.0" y="146.0" width="6.0" height="10.0" fill="#000000"/><rect x="75.0" y="146.0" width="6.0" height="10.0" fill="#000000"/><rect x="81.0" y="156.0" width="6.0" height="10.0" fill="#000000"/><rect x="75.0" y="176.0" width="6.0" height="10.0" fill="#000000"/><rect x="69.0" y="176.0" width="6.0" height="10.0" fill="#000000"/><rect x="63.0" y="176.0" width="6.0" height="10.0" fill="#000000"/><rect x="57.0" y="176.0" width="6.0" height="10.0" fill="#000000"/><rect x="51.0" y="176.0" width="6.0" height="10.0" fill="#000000"/><rect x="93.0" y="146.0" width="6.0" height="10.0" fill="#ff3f2f"/><rect x="99.0" y="146.0" width="6.0" height="10.0" fill="#ff3f2f"/><rect x="105.0" y="146.0" width="6.0" height="10.0" fill="#ff3f2f"/><rect x="111.0" y="146.0" width="6.0" height="10.0" fill="#ff3f2f"/><rect x="117.0" y="146.0" width="6.0" height="10.0" fill="#ff3f2f"/><rect x="129.0" y="146.0" width="6.0" height="10.0" fill="#ff3f2f"/><rect x="141.0" y="156.0" width="6.0" height="10.0" fill="#ff3f2f"/><rect x="141.0" y="166.0" width="6.0" height="10.0" fill="#ff3f2f"/><rect x="93.0" y="176.0" width="6.0" height="10.0" fill="#ff3f2f"/><rect x="87.0" y="176.0" width="6.0" height="10.0" fill="#ff3f2f"/><rect x="87.0" y="166.0" width="6.0" height="10.0" fill="#ff3f2f"/><rect x="87.0" y="156.0" width="6.0" height="10.0" fill="#ff3f2f"/><rect x="153.0" y="146.0" width="6.0" height="10.0" fill="#ffffff"/><rect x="159.0" y="146.0" width="6.0" height="10.0" fill="#ffffff"/><rect x="165.0" y="146.0" width="6.0" height="10.0" fill="#ffffff"/><rect x="183.0" y="146.0" width="6.0" height="10.0" fill="#ffffff"/><rect x="177.0" y="176.0" width="6.0" height="10.0" fill="#ffffff"/><rect x="171.0" y="176.0" width="6.0" height="10.0" fill="#ffffff"/><rect x="165.0" y="176.0" width="6.0" height="10.0" fill="#ffffff"/><rect x="147.0" y="176.0" width="6.0" height="10.0" fill="#ffffff"/></g><g clip-path="url(#grid-clip-ad2981aa58beca63-3x4)" data-channel="ellipse" data-ellipse-anchor-x="87.0" data-ellipse-anchor-y="66.0" data-ellipse-rx="37.335238046649714" data-ellipse-ry="57.69991334482228" data-ellipse-rotation-deg="12.0"><ellipse cx="87.0" cy="66.0" rx="37.335238046649714" ry="57.69991334482228" transform="rotate(12.0 87.0 66.0)" fill="#ffffff" stroke="#ffffff" fill-opacity="0.35" stroke-opacity="0.45" stroke-width="2.0"/></g><g><g data-channel="cell" data-cell-index="0" data-cell-row="0" data-cell-col="0" data-cell-quartile="2"><rect x="33.0" y="36.0" width="48.0" height="20.0" fill="#452301"/><text x="57.0" y="46.0" fill="#ffffff" style="font-family: &quot;JetBrains Mono&quot;, &quot;Menlo&quot;, &quot;Consolas&quot;, &quot;DejaVu Sans Mono&quot;, &quot;Liberation Mono&quot;, &quot;Roboto Mono&quot;, &quot;Noto Sans Mono&quot;, monospace; font-size: 12.0px;" text-anchor="middle" dominant-baseline="central">012345</text><polygon points="81.0,36.0 71.0,36.0 81.0,46.0" fill="#ffffff"/></g><g data-channel="cell" data-cell-index="1" data-cell-row="0" data-cell-col="1" data-cell-quartile="1"><rect x="93.0" y="36.0" width="48.0" height="20.0" fill="#ab8967"/><text x="117.0" y="46.0" fill="#000000" style="font-family: &quot;JetBrains Mono&quot;, &quot;Menlo&quot;, &quot;Consolas&quot;, &quot;DejaVu Sans Mono&quot;, &quot;Liberation Mono&quot;, &quot;Roboto Mono&quot;, &quot;Noto Sans Mono&quot;, monospace; font-size: 12.0px;" text-anchor="middle" dominant-baseline="central">6789ab</text><polygon points="93.0,36.0 103.0,36.0 93.0,46.0" fill="#000000"/></g><g data-channel="cell" data-cell-index="2" data-cell-row="0" data-cell-col="2"><rect x="153.0" y="36.0" width="48.0" height="20.0" fill="#01efcd"/><text x="177.0" y="46.0" fill="#000000" style="font-family: &quot;JetBrains Mono&quot;, &quot;Menlo&quot;, &quot;Consolas&quot;, &quot;DejaVu Sans Mono&quot;, &quot;Liberation Mono&quot;, &quot;Roboto Mono&quot;, &quot;Noto Sans Mono&quot;, monospace; font-size: 12.0px;" text-anchor="middle" dominant-baseline="central">cdef01</text></g><g data-channel="cell" data-cell-index="3" data-cell-row="1" data-cell-col="0"><rect x="33.0" y="76.0" width="48.0" height="20.0" fill="#674523"/><text x="57.0" y="86.0" fill="#ffffff" style="font-family: &quot;JetBrains Mono&quot;, &quot;Menlo&quot;, &quot;Consolas&quot;, &quot;DejaVu Sans Mono&quot;, &quot;Liberation Mono&quot;, &quot;Roboto Mono&quot;, &quot;Noto Sans Mono&quot;, monospace; font-size: 12.0px;" text-anchor="middle" dominant-baseline="central">234567</text></g><g data-channel="cell" data-cell-index="4" data-cell-row="1" data-cell-col="1"><rect x="93.0" y="76.0" width="48.0" height="20.0" fill="#cdab89"/><text x="117.0" y="86.0" fill="#000000" style="font-family: &quot;JetBrains Mono&quot;, &quot;Menlo&quot;, &quot;Consolas&quot;, &quot;DejaVu Sans Mono&quot;, &quot;Liberation Mono&quot;, &quot;Roboto Mono&quot;, &quot;Noto Sans Mono&quot;, monospace; font-size: 12.0px;" text-anchor="middle" dominant-baseline="central">89abcd</text></g><g data-channel="cell" data-cell-index="5" data-cell-row="1" data-cell-col="2" data-cell-quartile="4"><rect x="153.0" y="76.0" width="48.0" height="20.0" fill="#2301ef"/><text x="177.0" y="86.0" fill="#ffffff" style="font-family: &quot;JetBrains Mono&quot;, &quot;Menlo&quot;, &quot;Consolas&quot;, &quot;DejaVu Sans Mono&quot;, &quot;Liberation Mono&quot;, &quot;Roboto Mono&quot;, &quot;Noto Sans Mono&quot;, monospace; font-size: 12.0px;" text-anchor="middle" dominant-baseline="central">ef0123</text><polygon points="153.0,96.0 153.0,86.0 163.0,96.0" fill="#ffffff"/></g><g data-channel="cell" data-cell-index="6" data-cell-row="2" data-cell-col="0"><rect x="33.0" y="116.0" width="48.0" height="20.0" fill="#896745"/><text x="57.0" y="126.0" fill="#ffffff" style="font-family: &quot;JetBrains Mono&quot;, &quot;Menlo&quot;, &quot;Consolas&quot;, &quot;DejaVu Sans Mono&quot;, &quot;Liberation Mono&quot;, &quot;Roboto Mono&quot;, &quot;Noto Sans Mono&quot;, monospace; font-size: 12.0px;" text-anchor="middle" dominant-baseline="central">456789</text></g><g data-channel="cell" data-cell-index="7" data-cell-row="2" data-cell-col="1" data-cell-blank="true" data-cell-blank-map="true"><rect x="93.0" y="116.0" width="48.0" height="20.0" rx="10.0" ry="10.0" fill="#ffffff" stroke="#000000" stroke-width="1"/><circle cx="117.0" cy="133.5" r="3.5" fill="#d62828" data-blank-map-max="true"/><circle cx="101.0" cy="133.5" r="3.5" fill="#1d4ed8" data-blank-map-min="true"/></g><g data-channel="cell" data-cell-index="8" data-cell-row="2" data-cell-col="2" data-cell-quartile="3"><rect x="153.0" y="116.0" width="48.0" height="20.0" fill="#efcdab"/><text x="177.0" y="126.0" fill="#000000" style="font-family: &quot;JetBrains Mono&quot;, &quot;Menlo&quot;, &quot;Consolas&quot;, &quot;DejaVu Sans Mono&quot;, &quot;Liberation Mono&quot;, &quot;Roboto Mono&quot;, &quot;Noto Sans Mono&quot;, monospace; font-size: 12.0px;" text-anchor="middle" dominant-baseline="central">abcdef</text><polygon points="201.0,136.0 201.0,126.0 191.0,136.0" fill="#000000"/></g><g data-channel="cell" data-cell-index="9" data-cell-row="3" data-cell-col="0"><rect x="33.0" y="156.0" width="48.0" height="20.0" fill="#452301"/><text x="57.0" y="166.0" fill="#ffffff" style="font-family: &quot;JetBrains Mono&quot;, &quot;Menlo&quot;, &quot;Consolas&quot;, &quot;DejaVu Sans Mono&quot;, &quot;Liberation Mono&quot;, &quot;Roboto Mono&quot;, &quot;Noto Sans Mono&quot;, monospace; font-size: 12.0px;" text-anchor="middle" dominant-baseline="central">012345</text></g><g data-channel="cell" data-cell-index="10" data-cell-row="3" data-cell-col="1"><rect x="93.0" y="156.0" width="48.0" height="20.0" fill="#ab8967"/><text x="117.0" y="166.0" fill="#000000" style="font-family: &quot;JetBrains Mono&quot;, &quot;Menlo&quot;, &quot;Consolas&quot;, &quot;DejaVu Sans Mono&quot;, &quot;Liberation Mono&quot;, &quot;Roboto Mono&quot;, &quot;Noto Sans Mono&quot;, monospace; font-size: 12.0px;" text-anchor="middle" dominant-baseline="central">6789ab</text></g><g data-channel="cell" data-cell-index="11" data-cell-row="3" data-cell-col="2"><rect x="153.0" y="156.0" width="48.0" height="20.0" fill="#efefcd"/><text x="177.0" y="166.0" fill="#000000" style="font-family: &quot;JetBrains Mono&quot;, &quot;Menlo&quot;, &quot;Consolas&quot;, &quot;DejaVu Sans Mono&quot;, &quot;Liberation Mono&quot;, &quot;Roboto Mono&quot;, &quot;Noto Sans Mono&quot;, monospace; font-size: 12.0px;" text-anchor="middle" dominant-baseline="central">cdef</text></g></g></g><g data-channel="color-bar"><g data-color-bar-rank="0" data-color-bar-band="R"><rect x="1" y="1" width="20.0" height="77.93592806899362" fill="#ff3f2f"/><text x="11.0" y="76.29592806899362" fill="#000000" style="font-family: &quot;JetBrains Mono&quot;, &quot;Menlo&quot;, &quot;Consolas&quot;, &quot;DejaVu Sans Mono&quot;, &quot;Liberation Mono&quot;, &quot;Roboto Mono&quot;, &quot;Noto Sans Mono&quot;, monospace; font-size: 12.0px;" text-anchor="middle" data-color-bar-letter="true">r</text></g><g data-color-bar-rank="1" data-color-bar-band="W"><rect x="1" y="78.93592806899362" width="20.0" height="55.57077880289188" fill="#ffffff"/><text x="11.0" y="131.86670687188553" fill="#000000" style="font-family: &quot;JetBrains Mono&quot;, &quot;Menlo&quot;, &quot;Consolas&quot;, &quot;DejaVu Sans Mono&quot;, &quot;Liberation Mono&quot;, &quot;Roboto Mono&quot;, &quot;Noto Sans Mono&quot;, monospace; font-size: 12.0px;" text-anchor="middle" data-color-bar-letter="true">w</text></g><g data-color-bar-rank="2" data-color-bar-band="G"><rect x="1" y="134.5067068718855" width="20.0" height="35.98571801697942" fill="#e7be00"/><text x="11.0" y="167.85242488886496" fill="#000000" style="font-family: &quot;JetBrains Mono&quot;, &quot;Menlo&quot;, &quot;Consolas&quot;, &quot;DejaVu Sans Mono&quot;, &quot;Liberation Mono&quot;, &quot;Roboto Mono&quot;, &quot;Noto Sans Mono&quot;, monospace; font-size: 12.0px;" text-anchor="middle" data-color-bar-letter="true">g</text></g><g data-color-bar-rank="3" data-color-bar-band="K"><rect x="1" y="170.49242488886495" width="20.0" height="20.507575111135054" fill="#000000"/><text x="11.0" y="188.36" fill="#ffffff" style="font-family: &quot;JetBrains Mono&quot;, &quot;Menlo&quot;, &quot;Consolas&quot;, &quot;DejaVu Sans Mono&quot;, &quot;Liberation Mono&quot;, &quot;Roboto Mono&quot;, &quot;Noto Sans Mono&quot;, monospace; font-size: 12.0px;" text-anchor="middle" data-color-bar-letter="true">k</text></g></g><g data-channel="label-top"><text x="27.0" y="16.0" fill="#666666" style="font-family: &quot;JetBrains Mono&quot;, &quot;Menlo&quot;, &quot;Consolas&quot;, &quot;DejaVu Sans Mono&quot;, &quot;Liberation Mono&quot;, &quot;Roboto Mono&quot;, &quot;Noto Sans Mono&quot;, monospace; font-size: 12.0px;" dominant-baseline="central">hex(64):</text></g><line x1="0" y1="0.5" x2="213.0" y2="0.5" stroke="#808080" stroke-width="1" shape-rendering="crispEdges"/><line x1="212.5" y1="0" x2="212.5" y2="192.0" stroke="#808080" stroke-width="1" shape-rendering="crispEdges"/><line x1="0" y1="191.5" x2="213.0" y2="191.5" stroke="#808080" stroke-width="1" shape-rendering="crispEdges"/><line x1="0.5" y1="0" x2="0.5" y2="192.0" stroke="#808080" stroke-width="1" shape-rendering="crispEdges"/><line x1="21.5" y1="0" x2="21.5" y2="192.0" stroke="#808080" stroke-width="1" shape-rendering="crispEdges"/></svg>