<svg width="213" height="192" viewBox="0 0 213 192" xmlns="http://www.w3.org/2000/svg" data-entviz-version="v10" data-entviz-lib="0.10.0" data-input-bytes="64" data-cols="3" data-rows="4"><defs><clipPath id="grid-clip-ad2981aa58beca63-3x4"><rect x="27" y="26" width="180" height="160"/></clipPath></defs><rect x="0" y="0" width="213" height="192" fill="#ffffff"/><g data-channel="grid"><rect x="27" y="26" width="180" height="160" fill="#2f3fbf"/><g><rect x="27" y="26" width="6" height="10" fill="#e7be00"/><rect x="69" y="26" width="6" height="10" fill="#e7be00"/><rect x="75" y="26" width="6" height="10" fill="#e7be00"/><rect x="81" y="46" width="6" height="10" fill="#e7be00"/><rect x="75" y="56" width="6" height="10" fill="#e7be00"/><rect x="57" y="56" width="6" height="10" fill="#e7be00"/><rect x="45" y="56" width="6" height="10" fill="#e7be00"/><rect x="39" y="56" width="6" height="10" fill="#e7be00"/><rect x="27" y="56" width="6" height="10" fill="#e7be00"/><rect x="27" y="36" width="6" height="10" fill="#e7be00"/><rect x="93" y="26" width="6" height="10" fill="#ff3f2f"/><rect x="99" y="26" width="6" height="10" fill="#ff3f2f"/><rect x="105" y="26" width="6" height="10" fill="#ff3f2f"/><rect x="111" y="26" width="6" height="10" fill="#ff3f2f"/><rect x="117" y="26" width="6" height="10" fill="#ff3f2f"/><rect x="129" y="26" width="6" height="10" fill="#ff3f2f"/><rect x="141" y="46" width="6" height="10" fill="#ff3f2f"/><rect x="141" y="56" width="6" height="10" fill="#ff3f2f"/><rect x="129" y="56" width="6" height="10" fill="#ff3f2f"/><rect x="111" y="56" width="6" height="10" fill="#ff3f2f"/><rect x="99" y="56" width="6" height="10" fill="#ff3f2f"/><rect x="87" y="56" width="6" height="10" fill="#ff3f2f"/><rect x="87" y="36" width="6" height="10" fill="#ff3f2f"/><rect x="159" y="26" width="6" height="10" fill="#ffffff"/><rect x="177" y="26" width="6" height="10" fill="#ffffff"/><rect x="189" y="26" width="6" height="10" fill="#ffffff"/><rect x="195" y="26" width="6" height="10" fill="#ffffff"/><rect x="201" y="26" width="6" height="10" fill="#ffffff"/><rect x="195" y="56" width="6" height="10" fill="#ffffff"/><rect x="189" y="56" width="6" height="10" fill="#ffffff"/><rect x="171" y="56" width="6" height="10" fill="#ffffff"/><rect x="159" y="56" width="6" height="10" fill="#ffffff"/><rect x="147" y="46" width="6" height="10" fill="#ffffff"/><rect x="147" y="36" width="6" height="10" fill="#ffffff"/><rect x="27" y="66" width="6" height="10" fill="#000000"/><rect x="51" y="66" width="6" height="10" fill="#000000"/><rect x="57" y="66" width="6" height="10" fill="#000000"/><rect x="81" y="86" width="6" height="10" fill="#000000"/><rect x="63" y="96" width="6" height="10" fill="#000000"/><rect x="57" y="96" width="6" height="10" fill="#000000"/><rect x="51" y="96" width="6" height="10" fill="#000000"/><rect x="39" y="96" width="6" height="10" fill="#000000"/><rect x="33" y="96" width="6" height="10" fill="#000000"/><rect x="27" y="76" width="6" height="10" fill="#000000"/><rect x="87" y="66" width="6" height="10" fill="#e7be00"/><rect x="105" y="66" width="6" height="10" fill="#e7be00"/><rect x="129" y="66" width="6" height="10" fill="#e7be00"/><rect x="135" y="66" width="6" height="10" fill="#e7be00"/><rect x="141" y="66" width="6" height="10" fill="#e7be00"/><rect x="141" y="86" width="6" height="10" fill="#e7be00"/><rect x="129" y="96" width="6" height="10" fill="#e7be00"/><rect x="117" y="96" width="6" height="10" fill="#e7be00"/><rect x="111" y="96" width="6" height="10" fill="#e7be00"/><rect x="105" y="96" width="6" height="10" fill="#e7be00"/><rect x="87" y="96" width="6" height="10" fill="#e7be00"/><rect x="153" y="66" width="6" height="10" fill="#000000"/><rect x="159" y="66" width="6" height="10" fill="#000000"/><rect x="177" y="66" width="6" height="10" fill="#000000"/><rect x="183" y="66" width="6" height="10" fill="#000000"/><rect x="195" y="66" width="6" height="10" fill="#000000"/><rect x="201" y="66" width="6" height="10" fill="#000000"/><rect x="201" y="76" width="6" height="10" fill="#000000"/><rect x="201" y="96" width="6" height="10" fill="#000000"/><rect x="159" y="96" width="6" height="10" fill="#000000"/><rect x="153" y="96" width="6" height="10" fill="#000000"/><rect x="147" y="86" width="6" height="10" fill="#000000"/><rect x="147" y="76" width="6" height="10" fill="#000000"/><rect x="27" y="106" width="6" height="10" fill="#ff3f2f"/><rect x="45" y="106" width="6" height="10" fill="#ff3f2f"/><rect x="51" y="106" width="6" height="10" fill="#ff3f2f"/><rect x="57" y="106" width="6" height="10" fill="#ff3f2f"/><rect x="63" y="106" width="6" height="10" fill="#ff3f2f"/><rect x="75" y="106" width="6" height="10" fill="#ff3f2f"/><rect x="81" y="116" width="6" height="10" fill="#ff3f2f"/><rect x="81" y="126" width="6" height="10" fill="#ff3f2f"/><rect x="81" y="136" width="6" height="10" fill="#ff3f2f"/><rect x="75" y="136" width="6" height="10" fill="#ff3f2f"/><rect x="51" y="136" width="6" height="10" fill="#ff3f2f"/><rect x="27" y="136" width="6" height="10" fill="#ff3f2f"/><rect x="27" y="116" width="6" height="10" fill="#ff3f2f"/><rect x="147" y="106" width="6" height="10" fill="#ffffff"/><rect x="153" y="106" width="6" height="10" fill="#ffffff"/><rect x="159" y="106" width="6" height="10" fill="#ffffff"/><rect x="165" y="106" width="6" height="10" fill="#ffffff"/><rect x="183" y="106" width="6" height="10" fill="#ffffff"/><rect x="195" y="106" width="6" height="10" fill="#ffffff"/><rect x="201" y="106" width="6" height="10" fill="#ffffff"/><rect x="201" y="116" width="6" height="10" fill="#ffffff"/><rect x="189" y="136" width="6" height="10" fill="#ffffff"/><rect x="171" y="136" width="6" height="10" fill="#ffffff"/><rect x="153" y="136" width="6" height="10" fill="#ffffff"/><rect x="147" y="136" width="6" height="10" fill="#ffffff"/><rect x="39" y="146" width="6" height="10" fill="#000000"/><rect x="45" y="146" width="6" height="10" fill="#000000"/><rect x="51" y="146" width="6" height="10" fill="#000000"/><rect x="63" y="146" width="6" height="10" fill="#000000"/><rect x="75" y="146" width="6" height="10" fill="#000000"/><rect x="81" y="156" width="6" height="10" fill="#000000"/><rect x="75" y="176" width="6" height="10" fill="#000000"/><rect x="69" y="176" width="6" height="10" fill="#000000"/><rect x="63" y="176" width="6" height="10" fill="#000000"/><rect x="57" y="176" width="6" height="10" fill="#000000"/><rect x="51" y="176" width="6" height="10" fill="#000000"/><rect x="93" y="146" width="6" height="10" fill="#ff3f2f"/><rect x="99" y="146" width="6" height="10" fill="#ff3f2f"/><rect x="105" y="146" width="6" height="10" fill="#ff3f2f"/><rect x="111" y="146" width="6" height="10" fill="#ff3f2f"/><rect x="117" y="146" width="6" height="10" fill="#ff3f2f"/><rect x="129" y="146" width="6" height="10" fill="#ff3f2f"/><rect x="141" y="156" width="6" height="10" fill="#ff3f2f"/><rect x="141" y="166" width="6" height="10" fill="#ff3f2f"/><rect x="93" y="176" width="6" height="10" fill="#ff3f2f"/><rect x="87" y="176" width="6" height="10" fill="#ff3f2f"/><rect x="87" y="166" width="6" height="10" fill="#ff3f2f"/><rect x="87" y="156" width="6" height="10" fill="#ff3f2f"/><rect x="153" y="146" width="6" height="10" fill="#ffffff"/><rect x="159" y="146" width="6" height="10" fill="#ffffff"/><rect x="165" y="146" width="6" height="10" fill="#ffffff"/><rect x="183" y="146" width="6" height="10" fill="#ffffff"/><rect x="177" y="176" width="6" height="10" fill="#ffffff"/><rect x="171" y="176" width="6" height="10" fill="#ffffff"/><rect x="165" y="176" width="6" height="10" fill="#ffffff"/><rect x="147" y="176" width="6" height="10" fill="#ffffff"/></g><g clip-path="url(#grid-clip-ad2981aa58beca63-3x4)" data-channel="ellipse" data-ellipse-anchor-x="87" data-ellipse-anchor-y="66" data-ellipse-rx="37.335" data-ellipse-ry="57.7" data-ellipse-rotation-deg="12"><ellipse cx="87" cy="66" rx="37.335" ry="57.7" transform="rotate(12 87 66)" fill="#ffffff" stroke="#ffffff" fill-opacity="0.35" stroke-opacity="0.45" stroke-width="2"/></g><g><g data-channel="cell" data-cell-index="0" data-cell-row="0" data-cell-col="0" data-cell-quartile="2"><rect x="33" y="36" width="48" height="20" fill="#452301"/><text x="57" y="46" fill="#ffffff" style="font-family: &quot;JetBrains Mono&quot;, &quot;Menlo&quot;, &quot;Consolas&quot;, &quot;DejaVu Sans Mono&quot;, &quot;Liberation Mono&quot;, &quot;Roboto Mono&quot;, &quot;Noto Sans Mono&quot;, monospace; font-size: 12px;" text-anchor="middle" dominant-baseline="central">012345</text><polygon points="81,36 71,36 81,46" fill="#ffffff"/></g><g data-channel="cell" data-cell-index="1" data-cell-row="0" data-cell-col="1" data-cell-quartile="1"><rect x="93" y="36" width="48" height="20" fill="#ab8967"/><text x="117" y="46" fill="#000000" style="font-family: &quot;JetBrains Mono&quot;, &quot;Menlo&quot;, &quot;Consolas&quot;, &quot;DejaVu Sans Mono&quot;, &quot;Liberation Mono&quot;, &quot;Roboto Mono&quot;, &quot;Noto Sans Mono&quot;, monospace; font-size: 12px;" text-anchor="middle" dominant-baseline="central">6789ab</text><polygon points="93,36 103,36 93,46" fill="#000000"/></g><g data-channel="cell" data-cell-index="2" data-cell-row="0" data-cell-col="2"><rect x="153" y="36" width="48" height="20" fill="#01efcd"/><text x="177" y="46" fill="#000000" style="font-family: &quot;JetBrains Mono&quot;, &quot;Menlo&quot;, &quot;Consolas&quot;, &quot;DejaVu Sans Mono&quot;, &quot;Liberation Mono&quot;, &quot;Roboto Mono&quot;, &quot;Noto Sans Mono&quot;, monospace; font-size: 12px;" text-anchor="middle" dominant-baseline="central">cdef01</text></g><g data-channel="cell" data-cell-index="3" data-cell-row="1" data-cell-col="0"><rect x="33" y="76" width="48" height="20" fill="#674523"/><text x="57" y="86" fill="#ffffff" style="font-family: &quot;JetBrains Mono&quot;, &quot;Menlo&quot;, &quot;Consolas&quot;, &quot;DejaVu Sans Mono&quot;, &quot;Liberation Mono&quot;, &quot;Roboto Mono&quot;, &quot;Noto Sans Mono&quot;, monospace; font-size: 12px;" text-anchor="middle" dominant-baseline="central">234567</text></g><g data-channel="cell" data-cell-index="4" data-cell-row="1" data-cell-col="1"><rect x="93" y="76" width="48" height="20" fill="#cdab89"/><text x="117" y="86" fill="#000000" style="font-family: &quot;JetBrains Mono&quot;, &quot;Menlo&quot;, &quot;Consolas&quot;, &quot;DejaVu Sans Mono&quot;, &quot;Liberation Mono&quot;, &quot;Roboto Mono&quot;, &quot;Noto Sans Mono&quot;, monospace; font-size: 12px;" text-anchor="middle" dominant-baseline="central">89abcd</text></g><g data-channel="cell" data-cell-index="5" data-cell-row="1" data-cell-col="2" data-cell-quartile="4"><rect x="153" y="76" width="48" height="20" fill="#2301ef"/><text x="177" y="86" fill="#ffffff" style="font-family: &quot;JetBrains Mono&quot;, &quot;Menlo&quot;, &quot;Consolas&quot;, &quot;DejaVu Sans Mono&quot;, &quot;Liberation Mono&quot;, &quot;Roboto Mono&quot;, &quot;Noto Sans Mono&quot;, monospace; font-size: 12px;" text-anchor="middle" dominant-baseline="central">ef0123</text><polygon points="153,96 153,86 163,96" fill="#ffffff"/></g><g data-channel="cell" data-cell-index="6" data-cell-row="2" data-cell-col="0"><rect x="33" y="116" width="48" height="20" fill="#896745"/><text x="57" y="126" fill="#ffffff" style="font-family: &quot;JetBrains Mono&quot;, &quot;Menlo&quot;, &quot;Consolas&quot;, &quot;DejaVu Sans Mono&quot;, &quot;Liberation Mono&quot;, &quot;Roboto Mono&quot;, &quot;Noto Sans Mono&quot;, monospace; font-size: 12px;" text-anchor="middle" dominant-baseline="central">456789</text></g><g data-channel="cell" data-cell-index="7" data-cell-row="2" data-cell-col="1" data-cell-blank="true" data-cell-blank-map="true"><rect x="93" y="116" width="48" height="20" rx="10" ry="10" fill="#ff3f2f" stroke="#000000" stroke-width="1"/><circle cx="101" cy="133.5" r="3.5" fill="#000000" data-blank-map-min="3,0"/><path d="M 112.8,133.5 H 121.2 M 117,129.3 V 137.7" fill="none" stroke="#000000" stroke-width="1.925" stroke-linecap="butt" data-blank-map-max="3,1"/></g><g data-channel="cell" data-cell-index="8" data-cell-row="2" data-cell-col="2" data-cell-quartile="3"><rect x="153" y="116" width="48" height="20" fill="#efcdab"/><text x="177" y="126" fill="#000000" style="font-family: &quot;JetBrains Mono&quot;, &quot;Menlo&quot;, &quot;Consolas&quot;, &quot;DejaVu Sans Mono&quot;, &quot;Liberation Mono&quot;, &quot;Roboto Mono&quot;, &quot;Noto Sans Mono&quot;, monospace; font-size: 12px;" text-anchor="middle" dominant-baseline="central">abcdef</text><polygon points="201,136 201,126 191,136" fill="#000000"/></g><g data-channel="cell" data-cell-index="9" data-cell-row="3" data-cell-col="0"><rect x="33" y="156" width="48" height="20" fill="#452301"/><text x="57" y="166" fill="#ffffff" style="font-family: &quot;JetBrains Mono&quot;, &quot;Menlo&quot;, &quot;Consolas&quot;, &quot;DejaVu Sans Mono&quot;, &quot;Liberation Mono&quot;, &quot;Roboto Mono&quot;, &quot;Noto Sans Mono&quot;, monospace; font-size: 12px;" text-anchor="middle" dominant-baseline="central">012345</text></g><g data-channel="cell" data-cell-index="10" data-cell-row="3" data-cell-col="1"><rect x="93" y="156" width="48" height="20" fill="#ab8967"/><text x="117" y="166" fill="#000000" style="font-family: &quot;JetBrains Mono&quot;, &quot;Menlo&quot;, &quot;Consolas&quot;, &quot;DejaVu Sans Mono&quot;, &quot;Liberation Mono&quot;, &quot;Roboto Mono&quot;, &quot;Noto Sans Mono&quot;, monospace; font-size: 12px;" text-anchor="middle" dominant-baseline="central">6789ab</text></g><g data-channel="cell" data-cell-index="11" data-cell-row="3" data-cell-col="2"><rect x="153" y="156" width="48" height="20" fill="#efefcd"/><text x="177" y="166" fill="#000000" style="font-family: &quot;JetBrains Mono&quot;, &quot;Menlo&quot;, &quot;Consolas&quot;, &quot;DejaVu Sans Mono&quot;, &quot;Liberation Mono&quot;, &quot;Roboto Mono&quot;, &quot;Noto Sans Mono&quot;, monospace; font-size: 12px;" text-anchor="middle" dominant-baseline="central">cdef</text></g></g></g><g data-channel="color-bar" data-bar-slots="15" data-bar-marker-left="2" data-bar-marker-right="5"><g data-color-bar-rank="0" data-color-bar-band="G"><rect x="1" y="1" width="20" height="35.986" fill="#e7be00"/><text x="11" y="34.346" fill="#000000" style="font-family: &quot;JetBrains Mono&quot;, &quot;Menlo&quot;, &quot;Consolas&quot;, &quot;DejaVu Sans Mono&quot;, &quot;Liberation Mono&quot;, &quot;Roboto Mono&quot;, &quot;Noto Sans Mono&quot;, monospace; font-size: 12px;" text-anchor="middle" data-color-bar-letter="true">g</text></g><g data-color-bar-rank="1" data-color-bar-band="K"><rect x="1" y="36.986" width="20" height="20.508" fill="#000000"/><text x="11" y="54.853" fill="#ffffff" style="font-family: &quot;JetBrains Mono&quot;, &quot;Menlo&quot;, &quot;Consolas&quot;, &quot;DejaVu Sans Mono&quot;, &quot;Liberation Mono&quot;, &quot;Roboto Mono&quot;, &quot;Noto Sans Mono&quot;, monospace; font-size: 12px;" text-anchor="middle" data-color-bar-letter="true">k</text></g><g data-color-bar-rank="2" data-color-bar-band="R"><rect x="1" y="57.493" width="20" height="77.936" fill="#ff3f2f"/><text x="11" y="132.789" fill="#000000" style="font-family: &quot;JetBrains Mono&quot;, &quot;Menlo&quot;, &quot;Consolas&quot;, &quot;DejaVu Sans Mono&quot;, &quot;Liberation Mono&quot;, &quot;Roboto Mono&quot;, &quot;Noto Sans Mono&quot;, monospace; font-size: 12px;" text-anchor="middle" data-color-bar-letter="true">r</text></g><g data-color-bar-rank="3" data-color-bar-band="W"><rect x="1" y="135.429" width="20" height="55.571" fill="#ffffff"/><text x="11" y="188.36" fill="#000000" style="font-family: &quot;JetBrains Mono&quot;, &quot;Menlo&quot;, &quot;Consolas&quot;, &quot;DejaVu Sans Mono&quot;, &quot;Liberation Mono&quot;, &quot;Roboto Mono&quot;, &quot;Noto Sans Mono&quot;, monospace; font-size: 12px;" text-anchor="middle" data-color-bar-letter="true">w</text></g><circle cx="5.6" cy="32.667" r="3.4" fill="#ffffff" stroke="#000000" stroke-width="0.75" data-bar-marker="left"/><circle cx="16.4" cy="70.667" r="3.4" fill="#ffffff" stroke="#000000" stroke-width="0.75" data-bar-marker="right"/></g><g data-channel="label-top"><text x="27" y="16" fill="#666666" style="font-family: &quot;JetBrains Mono&quot;, &quot;Menlo&quot;, &quot;Consolas&quot;, &quot;DejaVu Sans Mono&quot;, &quot;Liberation Mono&quot;, &quot;Roboto Mono&quot;, &quot;Noto Sans Mono&quot;, monospace; font-size: 12px;" dominant-baseline="central">hex(64):</text></g><line x1="0" y1="0.5" x2="213" y2="0.5" stroke="#808080" stroke-width="1" shape-rendering="crispEdges"/><line x1="212.5" y1="0" x2="212.5" y2="192" stroke="#808080" stroke-width="1" shape-rendering="crispEdges"/><line x1="0" y1="191.5" x2="213" y2="191.5" stroke="#808080" stroke-width="1" shape-rendering="crispEdges"/><line x1="0.5" y1="0" x2="0.5" y2="192" stroke="#808080" stroke-width="1" shape-rendering="crispEdges"/><line x1="21.5" y1="0" x2="21.5" y2="192" stroke="#808080" stroke-width="1" shape-rendering="crispEdges"/></svg>