<svg width="275" height="274" viewBox="0 0 275 274" xmlns="http://www.w3.org/2000/svg" font-family="&quot;JetBrains Mono&quot;, &quot;Menlo&quot;, &quot;Consolas&quot;, &quot;DejaVu Sans Mono&quot;, &quot;Liberation Mono&quot;, &quot;Roboto Mono&quot;, &quot;Noto Sans Mono&quot;, monospace" data-entviz-version="v15" data-entviz-lib="0.15.0" data-input-bytes="128" data-cols="4" data-rows="6" data-encoding="hex" data-scheme="" data-role="" data-size-basis="decoded" data-entropy-type="hex" data-size-bits="512" data-qualifiers="{}" data-parts="[{&quot;text&quot;:&quot;0123456789abcdef0123456789abcdef0123456789abcdef0123456789abcdef0123456789abcdef0123456789abcdef0123456789abcdef0123456789abcdef&quot;,&quot;bind&quot;:&quot;core&quot;}]"><defs><clipPath id="grid-clip-451e75996b8939bc-4x6"><rect x="28" y="27" width="240" height="240"/></clipPath></defs><rect x="1" y="1" width="273" height="272" fill="#ffffff"/><g data-channel="grid"><rect x="28" y="27" width="240" height="240" fill="#ff3f2f"/><g><path fill="#e7be00" d="M28 27h6v10h-6zM40 27h6v10h-6zM52 27h6v10h-6zM58 27h6v10h-6zM64 27h6v10h-6zM82 27h6v10h-6zM82 37h6v10h-6zM82 47h6v10h-6zM82 57h6v10h-6zM58 57h6v10h-6zM46 57h6v10h-6zM28 47h6v10h-6z"/><path fill="#e7be00" d="M88 27h6v10h-6zM106 27h6v10h-6zM130 27h6v10h-6zM136 27h6v10h-6zM142 27h6v10h-6zM142 47h6v10h-6zM136 57h6v10h-6zM130 57h6v10h-6zM118 57h6v10h-6zM100 57h6v10h-6zM94 57h6v10h-6zM88 37h6v10h-6z"/><path fill="#2f3fbf" d="M160 27h6v10h-6zM172 27h6v10h-6zM184 27h6v10h-6zM202 37h6v10h-6zM202 47h6v10h-6zM202 57h6v10h-6zM196 57h6v10h-6zM184 57h6v10h-6zM178 57h6v10h-6zM160 57h6v10h-6zM154 57h6v10h-6zM148 57h6v10h-6z"/><path fill="#ffffff" d="M250 27h6v10h-6zM256 27h6v10h-6zM262 27h6v10h-6zM262 37h6v10h-6zM256 57h6v10h-6zM250 57h6v10h-6zM244 57h6v10h-6zM238 57h6v10h-6zM232 57h6v10h-6zM220 57h6v10h-6z"/><path fill="#e7be00" d="M34 67h6v10h-6zM40 67h6v10h-6zM46 67h6v10h-6zM58 67h6v10h-6zM76 67h6v10h-6zM82 77h6v10h-6zM82 87h6v10h-6zM82 97h6v10h-6zM76 97h6v10h-6zM58 97h6v10h-6zM52 97h6v10h-6zM34 97h6v10h-6zM28 97h6v10h-6zM28 77h6v10h-6z"/><path fill="#2f3fbf" d="M88 67h6v10h-6zM100 67h6v10h-6zM106 67h6v10h-6zM142 67h6v10h-6zM142 97h6v10h-6zM136 97h6v10h-6zM124 97h6v10h-6zM112 97h6v10h-6zM100 97h6v10h-6zM94 97h6v10h-6zM88 87h6v10h-6z"/><path fill="#e7be00" d="M148 67h6v10h-6zM154 67h6v10h-6zM166 67h6v10h-6zM178 67h6v10h-6zM202 67h6v10h-6zM202 87h6v10h-6zM196 97h6v10h-6zM172 97h6v10h-6zM166 97h6v10h-6zM160 97h6v10h-6zM148 97h6v10h-6zM148 87h6v10h-6z"/><path fill="#ffffff" d="M220 67h6v10h-6zM226 67h6v10h-6zM238 67h6v10h-6zM262 77h6v10h-6zM250 97h6v10h-6zM238 97h6v10h-6zM220 97h6v10h-6zM208 77h6v10h-6z"/><path fill="#000000" d="M28 107h6v10h-6zM34 107h6v10h-6zM46 107h6v10h-6zM58 107h6v10h-6zM64 107h6v10h-6zM82 107h6v10h-6zM82 117h6v10h-6zM82 127h6v10h-6zM82 137h6v10h-6zM76 137h6v10h-6zM70 137h6v10h-6zM64 137h6v10h-6zM58 137h6v10h-6zM52 137h6v10h-6zM40 137h6v10h-6zM34 137h6v10h-6zM28 117h6v10h-6z"/><path fill="#e7be00" d="M94 107h6v10h-6zM100 107h6v10h-6zM112 107h6v10h-6zM118 107h6v10h-6zM124 107h6v10h-6zM130 107h6v10h-6zM136 107h6v10h-6zM142 107h6v10h-6zM142 117h6v10h-6zM142 137h6v10h-6zM124 137h6v10h-6zM118 137h6v10h-6zM112 137h6v10h-6zM106 137h6v10h-6zM88 127h6v10h-6z"/><path fill="#2f3fbf" d="M160 107h6v10h-6zM166 107h6v10h-6zM178 107h6v10h-6zM190 107h6v10h-6zM196 107h6v10h-6zM202 117h6v10h-6zM202 127h6v10h-6zM166 137h6v10h-6zM148 127h6v10h-6z"/><path fill="#000000" d="M208 107h6v10h-6zM214 107h6v10h-6zM226 107h6v10h-6zM250 107h6v10h-6zM256 107h6v10h-6zM262 117h6v10h-6zM250 137h6v10h-6zM244 137h6v10h-6zM238 137h6v10h-6zM226 137h6v10h-6zM208 137h6v10h-6zM208 127h6v10h-6z"/><path fill="#e7be00" d="M52 147h6v10h-6zM76 147h6v10h-6zM82 147h6v10h-6zM82 157h6v10h-6zM82 167h6v10h-6zM82 177h6v10h-6zM76 177h6v10h-6zM70 177h6v10h-6zM64 177h6v10h-6zM52 177h6v10h-6zM40 177h6v10h-6zM28 177h6v10h-6zM28 167h6v10h-6z"/><path fill="#ffffff" d="M100 147h6v10h-6zM112 147h6v10h-6zM118 147h6v10h-6zM142 147h6v10h-6zM142 167h6v10h-6zM130 177h6v10h-6zM124 177h6v10h-6zM112 177h6v10h-6zM88 177h6v10h-6zM88 157h6v10h-6z"/><path fill="#e7be00" d="M208 147h6v10h-6zM220 147h6v10h-6zM232 147h6v10h-6zM238 147h6v10h-6zM256 147h6v10h-6zM262 147h6v10h-6zM262 157h6v10h-6zM262 177h6v10h-6zM256 177h6v10h-6zM250 177h6v10h-6zM238 177h6v10h-6zM232 177h6v10h-6zM208 167h6v10h-6zM208 157h6v10h-6z"/><path fill="#ffffff" d="M28 187h6v10h-6zM34 187h6v10h-6zM40 187h6v10h-6zM58 187h6v10h-6zM64 187h6v10h-6zM76 187h6v10h-6zM82 197h6v10h-6zM82 207h6v10h-6zM64 217h6v10h-6z"/><path fill="#000000" d="M94 187h6v10h-6zM106 187h6v10h-6zM112 187h6v10h-6zM118 187h6v10h-6zM124 187h6v10h-6zM130 187h6v10h-6zM136 187h6v10h-6zM142 187h6v10h-6zM142 197h6v10h-6zM142 217h6v10h-6zM136 217h6v10h-6zM94 217h6v10h-6z"/><path fill="#e7be00" d="M148 187h6v10h-6zM154 187h6v10h-6zM160 187h6v10h-6zM166 187h6v10h-6zM172 187h6v10h-6zM178 187h6v10h-6zM190 187h6v10h-6zM196 187h6v10h-6zM184 217h6v10h-6zM148 207h6v10h-6z"/><path fill="#2f3fbf" d="M34 227h6v10h-6zM40 227h6v10h-6zM46 227h6v10h-6zM58 227h6v10h-6zM64 227h6v10h-6zM70 227h6v10h-6zM82 237h6v10h-6zM82 257h6v10h-6zM76 257h6v10h-6zM64 257h6v10h-6zM52 257h6v10h-6zM46 257h6v10h-6zM34 257h6v10h-6zM28 247h6v10h-6z"/><path fill="#000000" d="M88 227h6v10h-6zM106 227h6v10h-6zM118 227h6v10h-6zM136 227h6v10h-6zM142 227h6v10h-6zM142 237h6v10h-6zM142 257h6v10h-6zM136 257h6v10h-6zM106 257h6v10h-6zM88 257h6v10h-6z"/><path fill="#e7be00" d="M154 227h6v10h-6zM160 227h6v10h-6zM172 227h6v10h-6zM178 227h6v10h-6zM184 227h6v10h-6zM202 227h6v10h-6zM202 237h6v10h-6zM202 247h6v10h-6zM202 257h6v10h-6zM190 257h6v10h-6zM172 257h6v10h-6zM160 257h6v10h-6zM154 257h6v10h-6zM148 257h6v10h-6zM148 247h6v10h-6zM148 237h6v10h-6z"/><path fill="#ffffff" d="M238 227h6v10h-6zM244 227h6v10h-6zM250 227h6v10h-6zM262 247h6v10h-6zM232 257h6v10h-6zM226 257h6v10h-6zM220 257h6v10h-6zM208 237h6v10h-6z"/></g><g clip-path="url(#grid-clip-451e75996b8939bc-4x6)" data-channel="ellipse" data-ellipse-anchor-x="148" data-ellipse-anchor-y="187" data-ellipse-rx="111.2" data-ellipse-ry="72.8" data-ellipse-rotation-deg="168"><ellipse cx="148" cy="187" rx="111.2" ry="72.8" transform="rotate(168 148 187)" fill="#000000" stroke="#000000" fill-opacity="0.25" stroke-opacity="0.35" stroke-width="2"/></g><g><g data-channel="cell" data-cell-index="0" data-cell-row="0" data-cell-col="0" data-surround-bits="0x451e75" data-edge-color="#e7be00"><rect x="34" y="37" width="48" height="20" fill="#452301"/><text x="58" y="47" fill="#ffffff" font-size="12" text-anchor="middle" dominant-baseline="central">012345</text></g><g data-channel="cell" data-cell-index="1" data-cell-row="0" data-cell-col="1" data-surround-bits="0x996b89" data-edge-color="#e7be00"><rect x="94" y="37" width="48" height="20" fill="#ab8967"/><text x="118" y="47" fill="#000000" font-size="12" text-anchor="middle" dominant-baseline="central">6789ab</text></g><g data-channel="cell" data-cell-index="2" data-cell-row="0" data-cell-col="2" data-surround-bits="0x39bc54" data-edge-color="#2f3fbf"><rect x="154" y="37" width="48" height="20" fill="#01efcd"/><text x="178" y="47" fill="#000000" font-size="12" text-anchor="middle" dominant-baseline="central">cdef01</text></g><g data-channel="cell" data-cell-index="3" data-cell-row="0" data-cell-col="3" data-surround-bits="0xbe780" data-edge-color="#ffffff" data-cell-quartile="2"><rect x="214" y="37" width="48" height="20" fill="#674523"/><text x="238" y="47" fill="#ffffff" font-size="12" text-anchor="middle" dominant-baseline="central">234567</text><polygon points="262,37 252,37 262,47" fill="#ffffff"/></g><g data-channel="cell" data-cell-index="4" data-cell-row="1" data-cell-col="0" data-surround-bits="0xb33d2e" data-edge-color="#e7be00"><rect x="34" y="77" width="48" height="20" fill="#cdab89"/><text x="58" y="87" fill="#000000" font-size="12" text-anchor="middle" dominant-baseline="central">89abcd</text></g><g data-channel="cell" data-cell-index="5" data-cell-row="1" data-cell-col="1" data-surround-bits="0x5ab20d" data-edge-color="#2f3fbf"><rect x="94" y="77" width="48" height="20" fill="#2301ef"/><text x="118" y="87" fill="#ffffff" font-size="12" text-anchor="middle" dominant-baseline="central">ef0123</text></g><g data-channel="cell" data-cell-index="6" data-cell-row="1" data-cell-col="2" data-surround-bits="0x6e2a2b" data-edge-color="#e7be00"><rect x="154" y="77" width="48" height="20" fill="#896745"/><text x="178" y="87" fill="#ffffff" font-size="12" text-anchor="middle" dominant-baseline="central">456789</text></g><g data-channel="cell" data-cell-index="7" data-cell-row="1" data-cell-col="3" data-surround-bits="0x89442c" data-edge-color="#ffffff"><rect x="214" y="77" width="48" height="20" fill="#efcdab"/><text x="238" y="87" fill="#000000" font-size="12" text-anchor="middle" dominant-baseline="central">abcdef</text></g><g data-channel="cell" data-cell-index="8" data-cell-row="2" data-cell-col="0" data-surround-bits="0x9bfe6b" data-edge-color="#000000"><rect x="34" y="117" width="48" height="20" fill="#452301"/><text x="58" y="127" fill="#ffffff" font-size="12" text-anchor="middle" dominant-baseline="central">012345</text></g><g data-channel="cell" data-cell-index="9" data-cell-row="2" data-cell-col="1" data-surround-bits="0x4797f6" data-edge-color="#e7be00"><rect x="94" y="117" width="48" height="20" fill="#ab8967"/><text x="118" y="127" fill="#000000" font-size="12" text-anchor="middle" dominant-baseline="central">6789ab</text></g><g data-channel="cell" data-cell-index="10" data-cell-row="2" data-cell-col="2" data-surround-bits="0x440dac" data-edge-color="#2f3fbf" data-cell-quartile="4"><rect x="154" y="117" width="48" height="20" fill="#01efcd"/><text x="178" y="127" fill="#000000" font-size="12" text-anchor="middle" dominant-baseline="central">cdef01</text><polygon points="154,137 154,127 164,137" fill="#000000"/></g><g data-channel="cell" data-cell-index="11" data-cell-row="2" data-cell-col="3" data-surround-bits="0x65c58b" data-edge-color="#000000"><rect x="214" y="117" width="48" height="20" fill="#674523"/><text x="238" y="127" fill="#ffffff" font-size="12" text-anchor="middle" dominant-baseline="central">234567</text></g><g data-channel="cell" data-cell-index="12" data-cell-row="3" data-cell-col="0" data-surround-bits="0x6aff10" data-edge-color="#e7be00"><rect x="34" y="157" width="48" height="20" fill="#cdab89"/><text x="58" y="167" fill="#000000" font-size="12" text-anchor="middle" dominant-baseline="central">89abcd</text></g><g data-channel="cell" data-cell-index="13" data-cell-row="3" data-cell-col="1" data-surround-bits="0xa2ca34" data-edge-color="#ffffff" data-cell-quartile="1"><rect x="94" y="157" width="48" height="20" fill="#2301ef"/><text x="118" y="167" fill="#ffffff" font-size="12" text-anchor="middle" dominant-baseline="central">ef0123</text><polygon points="94,157 104,157 94,167" fill="#ffffff"/></g><g data-channel="cell" data-cell-index="14" data-cell-row="3" data-cell-col="2" data-cell-blank="true" data-cell-blank-map="true"><rect x="154" y="157" width="48" height="20" rx="10" ry="10" fill="#ffffff" stroke="#000000" stroke-width="1"/><circle cx="160" cy="172" r="3.5" fill="#1d4ed8" data-blank-map-min="4,0"/><path d="M 179.8,175.333 H 188.2 M 184,171.133 V 179.533" fill="none" stroke="#d62828" stroke-width="1.925" stroke-linecap="butt" data-blank-map-max="5,2"/></g><g data-channel="cell" data-cell-index="15" data-cell-row="3" data-cell-col="3" data-surround-bits="0xc37735" data-edge-color="#e7be00"><rect x="214" y="157" width="48" height="20" fill="#896745"/><text x="238" y="167" fill="#ffffff" font-size="12" text-anchor="middle" dominant-baseline="central">456789</text></g><g data-channel="cell" data-cell-index="16" data-cell-row="4" data-cell-col="0" data-surround-bits="0x8d67" data-edge-color="#ffffff"><rect x="34" y="197" width="48" height="20" fill="#efcdab"/><text x="58" y="207" fill="#000000" font-size="12" text-anchor="middle" dominant-baseline="central">abcdef</text></g><g data-channel="cell" data-cell-index="17" data-cell-row="4" data-cell-col="1" data-surround-bits="0x1037fa" data-edge-color="#000000"><rect x="94" y="197" width="48" height="20" fill="#452301"/><text x="118" y="207" fill="#ffffff" font-size="12" text-anchor="middle" dominant-baseline="central">012345</text></g><g data-channel="cell" data-cell-index="18" data-cell-row="4" data-cell-col="2" data-surround-bits="0x4081bf" data-edge-color="#e7be00" data-cell-quartile="3"><rect x="154" y="197" width="48" height="20" fill="#ab8967"/><text x="178" y="207" fill="#000000" font-size="12" text-anchor="middle" dominant-baseline="central">6789ab</text><polygon points="202,217 202,207 192,217" fill="#000000"/></g><g data-channel="cell" data-cell-index="19" data-cell-row="4" data-cell-col="3" data-cell-blank="true"><rect x="214" y="197" width="48" height="20" rx="10" ry="10" fill="#ffffff" stroke="#000000" stroke-width="1"/></g><g data-channel="cell" data-cell-index="20" data-cell-row="5" data-cell-col="0" data-surround-bits="0x56b4ee" data-edge-color="#2f3fbf"><rect x="34" y="237" width="48" height="20" fill="#01efcd"/><text x="58" y="247" fill="#000000" font-size="12" text-anchor="middle" dominant-baseline="central">cdef01</text></g><g data-channel="cell" data-cell-index="21" data-cell-row="5" data-cell-col="1" data-surround-bits="0x243729" data-edge-color="#000000"><rect x="94" y="237" width="48" height="20" fill="#674523"/><text x="118" y="247" fill="#ffffff" font-size="12" text-anchor="middle" dominant-baseline="central">234567</text></g><g data-channel="cell" data-cell-index="22" data-cell-row="5" data-cell-col="2" data-surround-bits="0xfa5e76" data-edge-color="#e7be00"><rect x="154" y="237" width="48" height="20" fill="#cdab89"/><text x="178" y="247" fill="#000000" font-size="12" text-anchor="middle" dominant-baseline="central">89abcd</text></g><g data-channel="cell" data-cell-index="23" data-cell-row="5" data-cell-col="3" data-surround-bits="0x8e08e0" data-edge-color="#ffffff"><rect x="214" y="237" width="48" height="20" fill="#efefef"/><text x="238" y="247" fill="#000000" font-size="12" text-anchor="middle" dominant-baseline="central">ef</text></g></g></g><g data-channel="color-bar" data-bar-slots="16" data-bar-marker-left="14" data-bar-marker-right="11"><g data-color-bar-rank="0" data-color-bar-band="G"><rect x="2" y="2" width="20" height="66.899" fill="#e7be00"/><text x="12" y="66.259" fill="#000000" font-size="12" text-anchor="middle" data-color-bar-letter="true">g</text></g><g data-color-bar-rank="1" data-color-bar-band="W"><rect x="2" y="68.899" width="20" height="58.921" fill="#ffffff"/><text x="12" y="125.18" fill="#000000" font-size="12" text-anchor="middle" data-color-bar-letter="true">w</text></g><g data-color-bar-rank="2" data-color-bar-band="B"><rect x="2" y="127.82" width="20" height="85.259" fill="#2f3fbf"/><text x="12" y="210.439" fill="#ffffff" font-size="12" text-anchor="middle" data-color-bar-letter="true">b</text></g><g data-color-bar-rank="3" data-color-bar-band="K"><rect x="2" y="213.079" width="20" height="58.921" fill="#000000"/><text x="12" y="269.36" fill="#ffffff" font-size="12" text-anchor="middle" data-color-bar-letter="true">k</text></g><circle cx="6.6" cy="246.688" r="3.4" fill="#ffffff" stroke="#000000" stroke-width="0.75" data-bar-marker="left"/><circle cx="17.4" cy="196.062" r="3.4" fill="#ffffff" stroke="#000000" stroke-width="0.75" data-bar-marker="right"/></g><g data-channel="label-top"><text x="28" y="17" fill="#666666" font-size="12" dominant-baseline="central">hex, 512-bit</text></g><line x1="1" y1="1.5" x2="274" y2="1.5" stroke="#808080" stroke-width="1" shape-rendering="crispEdges"/><line x1="273.5" y1="1" x2="273.5" y2="273" stroke="#808080" stroke-width="1" shape-rendering="crispEdges"/><line x1="1" y1="272.5" x2="274" y2="272.5" stroke="#808080" stroke-width="1" shape-rendering="crispEdges"/><line x1="1.5" y1="1" x2="1.5" y2="273" stroke="#808080" stroke-width="1" shape-rendering="crispEdges"/><line x1="22.5" y1="1" x2="22.5" y2="273" stroke="#808080" stroke-width="1" shape-rendering="crispEdges"/></svg>