<svg width="108.0" height="97.0" viewBox="0 0 108.0 97.0" xmlns="http://www.w3.org/2000/svg" data-entviz-version="v6" data-entviz-lib="0.6.0" data-input-bytes="64" data-cols="3" data-rows="4"><defs><clipPath id="grid-clip-286f37dd952ff65e-3x4"><rect x="14.5" y="13.5" width="90.0" height="80.0"/></clipPath></defs><rect x="0" y="0" width="108.0" height="97.0" fill="#ffffff"/><g data-channel="grid"><rect x="14.5" y="13.5" width="90.0" height="80.0" fill="#ff3f2f"/><g><rect x="14.5" y="13.5" width="3.0" height="5.0" fill="#2f3fbf"/><rect x="17.5" y="13.5" width="3.0" height="5.0" fill="#2f3fbf"/><rect x="20.5" y="13.5" width="3.0" height="5.0" fill="#2f3fbf"/><rect x="26.5" y="13.5" width="3.0" height="5.0" fill="#2f3fbf"/><rect x="29.5" y="13.5" width="3.0" height="5.0" fill="#2f3fbf"/><rect x="38.5" y="13.5" width="3.0" height="5.0" fill="#2f3fbf"/><rect x="41.5" y="13.5" width="3.0" height="5.0" fill="#2f3fbf"/><rect x="41.5" y="18.5" width="3.0" height="5.0" fill="#2f3fbf"/><rect x="41.5" y="23.5" width="3.0" height="5.0" fill="#2f3fbf"/><rect x="38.5" y="28.5" width="3.0" height="5.0" fill="#2f3fbf"/><rect x="35.5" y="28.5" width="3.0" height="5.0" fill="#2f3fbf"/><rect x="20.5" y="28.5" width="3.0" height="5.0" fill="#2f3fbf"/><rect x="14.5" y="28.5" width="3.0" height="5.0" fill="#2f3fbf"/><rect x="44.5" y="13.5" width="3.0" height="5.0" fill="#2f3fbf"/><rect x="47.5" y="13.5" width="3.0" height="5.0" fill="#2f3fbf"/><rect x="50.5" y="13.5" width="3.0" height="5.0" fill="#2f3fbf"/><rect x="53.5" y="13.5" width="3.0" height="5.0" fill="#2f3fbf"/><rect x="59.5" y="13.5" width="3.0" height="5.0" fill="#2f3fbf"/><rect x="68.5" y="13.5" width="3.0" height="5.0" fill="#2f3fbf"/><rect x="71.5" y="18.5" width="3.0" height="5.0" fill="#2f3fbf"/><rect x="71.5" y="28.5" width="3.0" height="5.0" fill="#2f3fbf"/><rect x="62.5" y="28.5" width="3.0" height="5.0" fill="#2f3fbf"/><rect x="59.5" y="28.5" width="3.0" height="5.0" fill="#2f3fbf"/><rect x="53.5" y="28.5" width="3.0" height="5.0" fill="#2f3fbf"/><rect x="50.5" y="28.5" width="3.0" height="5.0" fill="#2f3fbf"/><rect x="47.5" y="28.5" width="3.0" height="5.0" fill="#2f3fbf"/><rect x="44.5" y="23.5" width="3.0" height="5.0" fill="#2f3fbf"/><rect x="44.5" y="18.5" width="3.0" height="5.0" fill="#2f3fbf"/><rect x="74.5" y="13.5" width="3.0" height="5.0" fill="#2f3fbf"/><rect x="77.5" y="13.5" width="3.0" height="5.0" fill="#2f3fbf"/><rect x="80.5" y="13.5" width="3.0" height="5.0" fill="#2f3fbf"/><rect x="86.5" y="13.5" width="3.0" height="5.0" fill="#2f3fbf"/><rect x="89.5" y="13.5" width="3.0" height="5.0" fill="#2f3fbf"/><rect x="92.5" y="13.5" width="3.0" height="5.0" fill="#2f3fbf"/><rect x="95.5" y="13.5" width="3.0" height="5.0" fill="#2f3fbf"/><rect x="101.5" y="13.5" width="3.0" height="5.0" fill="#2f3fbf"/><rect x="101.5" y="18.5" width="3.0" height="5.0" fill="#2f3fbf"/><rect x="101.5" y="23.5" width="3.0" height="5.0" fill="#2f3fbf"/><rect x="101.5" y="28.5" width="3.0" height="5.0" fill="#2f3fbf"/><rect x="95.5" y="28.5" width="3.0" height="5.0" fill="#2f3fbf"/><rect x="86.5" y="28.5" width="3.0" height="5.0" fill="#2f3fbf"/><rect x="83.5" y="28.5" width="3.0" height="5.0" fill="#2f3fbf"/><rect x="77.5" y="28.5" width="3.0" height="5.0" fill="#2f3fbf"/><rect x="74.5" y="28.5" width="3.0" height="5.0" fill="#2f3fbf"/><rect x="74.5" y="23.5" width="3.0" height="5.0" fill="#2f3fbf"/><rect x="74.5" y="18.5" width="3.0" height="5.0" fill="#2f3fbf"/><rect x="14.5" y="33.5" width="3.0" height="5.0" fill="#e7be00"/><rect x="32.5" y="33.5" width="3.0" height="5.0" fill="#e7be00"/><rect x="35.5" y="33.5" width="3.0" height="5.0" fill="#e7be00"/><rect x="38.5" y="33.5" width="3.0" height="5.0" fill="#e7be00"/><rect x="41.5" y="38.5" width="3.0" height="5.0" fill="#e7be00"/><rect x="41.5" y="43.5" width="3.0" height="5.0" fill="#e7be00"/><rect x="41.5" y="48.5" width="3.0" height="5.0" fill="#e7be00"/><rect x="38.5" y="48.5" width="3.0" height="5.0" fill="#e7be00"/><rect x="35.5" y="48.5" width="3.0" height="5.0" fill="#e7be00"/><rect x="32.5" y="48.5" width="3.0" height="5.0" fill="#e7be00"/><rect x="29.5" y="48.5" width="3.0" height="5.0" fill="#e7be00"/><rect x="26.5" y="48.5" width="3.0" height="5.0" fill="#e7be00"/><rect x="23.5" y="48.5" width="3.0" height="5.0" fill="#e7be00"/><rect x="20.5" y="48.5" width="3.0" height="5.0" fill="#e7be00"/><rect x="17.5" y="48.5" width="3.0" height="5.0" fill="#e7be00"/><rect x="14.5" y="43.5" width="3.0" height="5.0" fill="#e7be00"/><rect x="44.5" y="33.5" width="3.0" height="5.0" fill="#2f3fbf"/><rect x="47.5" y="33.5" width="3.0" height="5.0" fill="#2f3fbf"/><rect x="53.5" y="33.5" width="3.0" height="5.0" fill="#2f3fbf"/><rect x="56.5" y="33.5" width="3.0" height="5.0" fill="#2f3fbf"/><rect x="59.5" y="33.5" width="3.0" height="5.0" fill="#2f3fbf"/><rect x="68.5" y="33.5" width="3.0" height="5.0" fill="#2f3fbf"/><rect x="71.5" y="33.5" width="3.0" height="5.0" fill="#2f3fbf"/><rect x="71.5" y="38.5" width="3.0" height="5.0" fill="#2f3fbf"/><rect x="68.5" y="48.5" width="3.0" height="5.0" fill="#2f3fbf"/><rect x="65.5" y="48.5" width="3.0" height="5.0" fill="#2f3fbf"/><rect x="62.5" y="48.5" width="3.0" height="5.0" fill="#2f3fbf"/><rect x="59.5" y="48.5" width="3.0" height="5.0" fill="#2f3fbf"/><rect x="56.5" y="48.5" width="3.0" height="5.0" fill="#2f3fbf"/><rect x="44.5" y="38.5" width="3.0" height="5.0" fill="#2f3fbf"/><rect x="74.5" y="33.5" width="3.0" height="5.0" fill="#e7be00"/><rect x="86.5" y="33.5" width="3.0" height="5.0" fill="#e7be00"/><rect x="98.5" y="33.5" width="3.0" height="5.0" fill="#e7be00"/><rect x="98.5" y="48.5" width="3.0" height="5.0" fill="#e7be00"/><rect x="95.5" y="48.5" width="3.0" height="5.0" fill="#e7be00"/><rect x="92.5" y="48.5" width="3.0" height="5.0" fill="#e7be00"/><rect x="89.5" y="48.5" width="3.0" height="5.0" fill="#e7be00"/><rect x="86.5" y="48.5" width="3.0" height="5.0" fill="#e7be00"/><rect x="77.5" y="48.5" width="3.0" height="5.0" fill="#e7be00"/><rect x="74.5" y="48.5" width="3.0" height="5.0" fill="#e7be00"/><rect x="14.5" y="53.5" width="3.0" height="5.0" fill="#000000"/><rect x="20.5" y="53.5" width="3.0" height="5.0" fill="#000000"/><rect x="29.5" y="53.5" width="3.0" height="5.0" fill="#000000"/><rect x="32.5" y="53.5" width="3.0" height="5.0" fill="#000000"/><rect x="38.5" y="53.5" width="3.0" height="5.0" fill="#000000"/><rect x="41.5" y="68.5" width="3.0" height="5.0" fill="#000000"/><rect x="35.5" y="68.5" width="3.0" height="5.0" fill="#000000"/><rect x="32.5" y="68.5" width="3.0" height="5.0" fill="#000000"/><rect x="17.5" y="68.5" width="3.0" height="5.0" fill="#000000"/><rect x="14.5" y="63.5" width="3.0" height="5.0" fill="#000000"/><rect x="14.5" y="58.5" width="3.0" height="5.0" fill="#000000"/><rect x="77.5" y="53.5" width="3.0" height="5.0" fill="#000000"/><rect x="80.5" y="53.5" width="3.0" height="5.0" fill="#000000"/><rect x="86.5" y="53.5" width="3.0" height="5.0" fill="#000000"/><rect x="92.5" y="53.5" width="3.0" height="5.0" fill="#000000"/><rect x="98.5" y="53.5" width="3.0" height="5.0" fill="#000000"/><rect x="101.5" y="53.5" width="3.0" height="5.0" fill="#000000"/><rect x="101.5" y="68.5" width="3.0" height="5.0" fill="#000000"/><rect x="98.5" y="68.5" width="3.0" height="5.0" fill="#000000"/><rect x="83.5" y="68.5" width="3.0" height="5.0" fill="#000000"/><rect x="80.5" y="68.5" width="3.0" height="5.0" fill="#000000"/><rect x="74.5" y="68.5" width="3.0" height="5.0" fill="#000000"/><rect x="20.5" y="73.5" width="3.0" height="5.0" fill="#2f3fbf"/><rect x="26.5" y="73.5" width="3.0" height="5.0" fill="#2f3fbf"/><rect x="32.5" y="73.5" width="3.0" height="5.0" fill="#2f3fbf"/><rect x="41.5" y="78.5" width="3.0" height="5.0" fill="#2f3fbf"/><rect x="41.5" y="83.5" width="3.0" height="5.0" fill="#2f3fbf"/><rect x="41.5" y="88.5" width="3.0" height="5.0" fill="#2f3fbf"/><rect x="38.5" y="88.5" width="3.0" height="5.0" fill="#2f3fbf"/><rect x="32.5" y="88.5" width="3.0" height="5.0" fill="#2f3fbf"/><rect x="23.5" y="88.5" width="3.0" height="5.0" fill="#2f3fbf"/><rect x="14.5" y="88.5" width="3.0" height="5.0" fill="#2f3fbf"/><rect x="14.5" y="83.5" width="3.0" height="5.0" fill="#2f3fbf"/><rect x="14.5" y="78.5" width="3.0" height="5.0" fill="#2f3fbf"/><rect x="44.5" y="73.5" width="3.0" height="5.0" fill="#e7be00"/><rect x="47.5" y="73.5" width="3.0" height="5.0" fill="#e7be00"/><rect x="59.5" y="73.5" width="3.0" height="5.0" fill="#e7be00"/><rect x="65.5" y="73.5" width="3.0" height="5.0" fill="#e7be00"/><rect x="71.5" y="78.5" width="3.0" height="5.0" fill="#e7be00"/><rect x="71.5" y="88.5" width="3.0" height="5.0" fill="#e7be00"/><rect x="59.5" y="88.5" width="3.0" height="5.0" fill="#e7be00"/><rect x="56.5" y="88.5" width="3.0" height="5.0" fill="#e7be00"/><rect x="53.5" y="88.5" width="3.0" height="5.0" fill="#e7be00"/><rect x="44.5" y="83.5" width="3.0" height="5.0" fill="#e7be00"/><rect x="44.5" y="78.5" width="3.0" height="5.0" fill="#e7be00"/><rect x="74.5" y="73.5" width="3.0" height="5.0" fill="#000000"/><rect x="77.5" y="73.5" width="3.0" height="5.0" fill="#000000"/><rect x="92.5" y="73.5" width="3.0" height="5.0" fill="#000000"/><rect x="95.5" y="73.5" width="3.0" height="5.0" fill="#000000"/><rect x="101.5" y="83.5" width="3.0" height="5.0" fill="#000000"/><rect x="101.5" y="88.5" width="3.0" height="5.0" fill="#000000"/><rect x="98.5" y="88.5" width="3.0" height="5.0" fill="#000000"/><rect x="95.5" y="88.5" width="3.0" height="5.0" fill="#000000"/><rect x="92.5" y="88.5" width="3.0" height="5.0" fill="#000000"/><rect x="89.5" y="88.5" width="3.0" height="5.0" fill="#000000"/><rect x="83.5" y="88.5" width="3.0" height="5.0" fill="#000000"/><rect x="80.5" y="88.5" width="3.0" height="5.0" fill="#000000"/><rect x="74.5" y="83.5" width="3.0" height="5.0" fill="#000000"/></g><g clip-path="url(#grid-clip-286f37dd952ff65e-3x4)" data-channel="ellipse" data-ellipse-anchor-x="74.5" data-ellipse-anchor-y="53.5" data-ellipse-rx="29.709742509823272" data-ellipse-ry="29.709742509823272" data-ellipse-rotation-deg="96.0"><ellipse cx="74.5" cy="53.5" rx="29.709742509823272" ry="29.709742509823272" transform="rotate(96.0 74.5 53.5)" fill="#000000" fill-opacity="0.35"/></g><g><g data-channel="cell" data-cell-index="0" data-cell-row="0" data-cell-col="0"><rect x="17.5" y="18.5" width="24.0" height="10.0" fill="#d0869f"/><text x="29.5" y="23.5" fill="#000000" style="font-family: &quot;JetBrains Mono&quot;, &quot;Menlo&quot;, &quot;Consolas&quot;, &quot;DejaVu Sans Mono&quot;, &quot;Liberation Mono&quot;, &quot;Roboto Mono&quot;, &quot;Noto Sans Mono&quot;, monospace; font-size: 5.333333333333333px;" text-anchor="middle" dominant-baseline="central">9f86d0</text></g><g data-channel="cell" data-cell-index="1" data-cell-row="0" data-cell-col="1"><rect x="47.5" y="18.5" width="24.0" height="10.0" fill="#4c8881"/><text x="59.5" y="23.5" fill="#ffffff" style="font-family: &quot;JetBrains Mono&quot;, &quot;Menlo&quot;, &quot;Consolas&quot;, &quot;DejaVu Sans Mono&quot;, &quot;Liberation Mono&quot;, &quot;Roboto Mono&quot;, &quot;Noto Sans Mono&quot;, monospace; font-size: 5.333333333333333px;" text-anchor="middle" dominant-baseline="central">81884c</text></g><g data-channel="cell" data-cell-index="2" data-cell-row="0" data-cell-col="2" data-cell-quartile="1"><rect x="77.5" y="18.5" width="24.0" height="10.0" fill="#9a657d"/><text x="89.5" y="23.5" fill="#ffffff" style="font-family: &quot;JetBrains Mono&quot;, &quot;Menlo&quot;, &quot;Consolas&quot;, &quot;DejaVu Sans Mono&quot;, &quot;Liberation Mono&quot;, &quot;Roboto Mono&quot;, &quot;Noto Sans Mono&quot;, monospace; font-size: 5.333333333333333px;" text-anchor="middle" dominant-baseline="central">7d659a</text><polygon points="77.5,18.5 82.5,18.5 77.5,23.5" fill="#ffffff"/></g><g data-channel="cell" data-cell-index="3" data-cell-row="1" data-cell-col="0" data-cell-quartile="2"><rect x="17.5" y="38.5" width="24.0" height="10.0" fill="#a0ea2f"/><text x="29.5" y="43.5" fill="#000000" style="font-family: &quot;JetBrains Mono&quot;, &quot;Menlo&quot;, &quot;Consolas&quot;, &quot;DejaVu Sans Mono&quot;, &quot;Liberation Mono&quot;, &quot;Roboto Mono&quot;, &quot;Noto Sans Mono&quot;, monospace; font-size: 5.333333333333333px;" text-anchor="middle" dominant-baseline="central">2feaa0</text><polygon points="41.5,38.5 36.5,38.5 41.5,43.5" fill="#000000"/></g><g data-channel="cell" data-cell-index="4" data-cell-row="1" data-cell-col="1"><rect x="47.5" y="38.5" width="24.0" height="10.0" fill="#d05ac5"/><text x="59.5" y="43.5" fill="#000000" style="font-family: &quot;JetBrains Mono&quot;, &quot;Menlo&quot;, &quot;Consolas&quot;, &quot;DejaVu Sans Mono&quot;, &quot;Liberation Mono&quot;, &quot;Roboto Mono&quot;, &quot;Noto Sans Mono&quot;, monospace; font-size: 5.333333333333333px;" text-anchor="middle" dominant-baseline="central">c55ad0</text></g><g data-channel="cell" data-cell-index="5" data-cell-row="1" data-cell-col="2"><rect x="77.5" y="38.5" width="24.0" height="10.0" fill="#bfa315"/><text x="89.5" y="43.5" fill="#000000" style="font-family: &quot;JetBrains Mono&quot;, &quot;Menlo&quot;, &quot;Consolas&quot;, &quot;DejaVu Sans Mono&quot;, &quot;Liberation Mono&quot;, &quot;Roboto Mono&quot;, &quot;Noto Sans Mono&quot;, monospace; font-size: 5.333333333333333px;" text-anchor="middle" dominant-baseline="central">15a3bf</text></g><g data-channel="cell" data-cell-index="6" data-cell-row="2" data-cell-col="0" data-cell-quartile="4"><rect x="17.5" y="58.5" width="24.0" height="10.0" fill="#2b1b4f"/><text x="29.5" y="63.5" fill="#ffffff" style="font-family: &quot;JetBrains Mono&quot;, &quot;Menlo&quot;, &quot;Consolas&quot;, &quot;DejaVu Sans Mono&quot;, &quot;Liberation Mono&quot;, &quot;Roboto Mono&quot;, &quot;Noto Sans Mono&quot;, monospace; font-size: 5.333333333333333px;" text-anchor="middle" dominant-baseline="central">4f1b2b</text><polygon points="17.5,68.5 17.5,63.5 22.5,68.5" fill="#ffffff"/></g><g data-channel="cell" data-cell-index="7" data-cell-row="2" data-cell-col="1" data-cell-blank="true" data-cell-blank-map="true"><rect x="47.5" y="58.5" width="24.0" height="10.0" rx="5.0" ry="5.0" fill="#ffffff" stroke="#000000" stroke-width="1"/><circle cx="67.5" cy="59.75" r="1.75" fill="#d62828" data-blank-map-max="true"/><circle cx="51.5" cy="59.75" r="1.75" fill="#1d4ed8" data-blank-map-min="true"/></g><g data-channel="cell" data-cell-index="8" data-cell-row="2" data-cell-col="2"><rect x="77.5" y="58.5" width="24.0" height="10.0" fill="#2c820b"/><text x="89.5" y="63.5" fill="#ffffff" style="font-family: &quot;JetBrains Mono&quot;, &quot;Menlo&quot;, &quot;Consolas&quot;, &quot;DejaVu Sans Mono&quot;, &quot;Liberation Mono&quot;, &quot;Roboto Mono&quot;, &quot;Noto Sans Mono&quot;, monospace; font-size: 5.333333333333333px;" text-anchor="middle" dominant-baseline="central">0b822c</text></g><g data-channel="cell" data-cell-index="9" data-cell-row="3" data-cell-col="0" data-cell-quartile="3"><rect x="17.5" y="78.5" width="24.0" height="10.0" fill="#6c5dd1"/><text x="29.5" y="83.5" fill="#ffffff" style="font-family: &quot;JetBrains Mono&quot;, &quot;Menlo&quot;, &quot;Consolas&quot;, &quot;DejaVu Sans Mono&quot;, &quot;Liberation Mono&quot;, &quot;Roboto Mono&quot;, &quot;Noto Sans Mono&quot;, monospace; font-size: 5.333333333333333px;" text-anchor="middle" dominant-baseline="central">d15d6c</text><polygon points="41.5,88.5 41.5,83.5 36.5,88.5" fill="#ffffff"/></g><g data-channel="cell" data-cell-index="10" data-cell-row="3" data-cell-col="1"><rect x="47.5" y="78.5" width="24.0" height="10.0" fill="#f0b015"/><text x="59.5" y="83.5" fill="#000000" style="font-family: &quot;JetBrains Mono&quot;, &quot;Menlo&quot;, &quot;Consolas&quot;, &quot;DejaVu Sans Mono&quot;, &quot;Liberation Mono&quot;, &quot;Roboto Mono&quot;, &quot;Noto Sans Mono&quot;, monospace; font-size: 5.333333333333333px;" text-anchor="middle" dominant-baseline="central">15b0f0</text></g><g data-channel="cell" data-cell-index="11" data-cell-row="3" data-cell-col="2"><rect x="77.5" y="78.5" width="24.0" height="10.0" fill="#08080a"/><text x="89.5" y="83.5" fill="#ffffff" style="font-family: &quot;JetBrains Mono&quot;, &quot;Menlo&quot;, &quot;Consolas&quot;, &quot;DejaVu Sans Mono&quot;, &quot;Liberation Mono&quot;, &quot;Roboto Mono&quot;, &quot;Noto Sans Mono&quot;, monospace; font-size: 5.333333333333333px;" text-anchor="middle" dominant-baseline="central">0a08</text></g></g></g><g data-channel="color-bar"><g data-color-bar-rank="0" data-color-bar-band="K"><rect x="1" y="1" width="10.0" height="51.052153264776564" fill="#000000"/><text x="6.0" y="50.87881993144323" fill="#ffffff" style="font-family: &quot;JetBrains Mono&quot;, &quot;Menlo&quot;, &quot;Consolas&quot;, &quot;DejaVu Sans Mono&quot;, &quot;Liberation Mono&quot;, &quot;Roboto Mono&quot;, &quot;Noto Sans Mono&quot;, monospace; font-size: 5.333333333333333px;" text-anchor="middle" data-color-bar-letter="true">k</text></g><g data-color-bar-rank="1" data-color-bar-band="G"><rect x="1" y="52.052153264776564" width="10.0" height="22.50348244714559" fill="#e7be00"/><text x="6.0" y="73.38230237858882" fill="#000000" style="font-family: &quot;JetBrains Mono&quot;, &quot;Menlo&quot;, &quot;Consolas&quot;, &quot;DejaVu Sans Mono&quot;, &quot;Liberation Mono&quot;, &quot;Roboto Mono&quot;, &quot;Noto Sans Mono&quot;, monospace; font-size: 5.333333333333333px;" text-anchor="middle" data-color-bar-letter="true">g</text></g><g data-color-bar-rank="2" data-color-bar-band="W"><rect x="1" y="74.55563571192215" width="10.0" height="13.421033583771246" fill="#ffffff"/><text x="6.0" y="86.80333596236007" fill="#000000" style="font-family: &quot;JetBrains Mono&quot;, &quot;Menlo&quot;, &quot;Consolas&quot;, &quot;DejaVu Sans Mono&quot;, &quot;Liberation Mono&quot;, &quot;Roboto Mono&quot;, &quot;Noto Sans Mono&quot;, monospace; font-size: 5.333333333333333px;" text-anchor="middle" data-color-bar-letter="true">w</text></g><g data-color-bar-rank="3" data-color-bar-band="B"><rect x="1" y="87.9766692956934" width="10.0" height="8.023330704306602" fill="#2f3fbf"/><text x="6.0" y="94.82666666666667" fill="#ffffff" style="font-family: &quot;JetBrains Mono&quot;, &quot;Menlo&quot;, &quot;Consolas&quot;, &quot;DejaVu Sans Mono&quot;, &quot;Liberation Mono&quot;, &quot;Roboto Mono&quot;, &quot;Noto Sans Mono&quot;, monospace; font-size: 5.333333333333333px;" text-anchor="middle" data-color-bar-letter="true">b</text></g></g><g data-channel="label-top"><text x="14.5" y="8.5" fill="#666666" style="font-family: &quot;JetBrains Mono&quot;, &quot;Menlo&quot;, &quot;Consolas&quot;, &quot;DejaVu Sans Mono&quot;, &quot;Liberation Mono&quot;, &quot;Roboto Mono&quot;, &quot;Noto Sans Mono&quot;, monospace; font-size: 5.333333333333333px;" dominant-baseline="central">hex(64):</text></g><line x1="0" y1="0.5" x2="108.0" y2="0.5" stroke="#808080" stroke-width="1" shape-rendering="crispEdges"/><line x1="107.5" y1="0" x2="107.5" y2="97.0" stroke="#808080" stroke-width="1" shape-rendering="crispEdges"/><line x1="0" y1="96.5" x2="108.0" y2="96.5" stroke="#808080" stroke-width="1" shape-rendering="crispEdges"/><line x1="0.5" y1="0" x2="0.5" y2="97.0" stroke="#808080" stroke-width="1" shape-rendering="crispEdges"/><line x1="11.5" y1="0" x2="11.5" y2="97.0" stroke="#808080" stroke-width="1" shape-rendering="crispEdges"/></svg>