<svg width="203.0" height="157.0" xmlns="http://www.w3.org/2000/svg"><defs><clipPath id="grid-clip-7154c6d6-3x3"><rect x="17.0" y="31.0" width="180.0" height="120.0"/></clipPath></defs><rect x="0" y="0" width="203.0" height="157.0" fill="#ffffff"/><rect x="17.0" y="31.0" width="180.0" height="120.0" fill="#2f3fbf"/><rect x="23.0" y="31.0" width="6.0" height="10.0" fill="#ff3f2f"/><rect x="29.0" y="31.0" width="6.0" height="10.0" fill="#ff3f2f"/><rect x="53.0" y="31.0" width="6.0" height="10.0" fill="#ff3f2f"/><rect x="59.0" y="31.0" width="6.0" height="10.0" fill="#ff3f2f"/><rect x="71.0" y="41.0" width="6.0" height="10.0" fill="#ff3f2f"/><rect x="71.0" y="61.0" width="6.0" height="10.0" fill="#ff3f2f"/><rect x="59.0" y="61.0" width="6.0" height="10.0" fill="#ff3f2f"/><rect x="47.0" y="61.0" width="6.0" height="10.0" fill="#ff3f2f"/><rect x="23.0" y="61.0" width="6.0" height="10.0" fill="#ff3f2f"/><rect x="17.0" y="61.0" width="6.0" height="10.0" fill="#ff3f2f"/><rect x="17.0" y="51.0" width="6.0" height="10.0" fill="#ff3f2f"/><rect x="83.0" y="31.0" width="6.0" height="10.0" fill="#ffffff"/><rect x="89.0" y="31.0" width="6.0" height="10.0" fill="#ffffff"/><rect x="95.0" y="31.0" width="6.0" height="10.0" fill="#ffffff"/><rect x="101.0" y="31.0" width="6.0" height="10.0" fill="#ffffff"/><rect x="107.0" y="31.0" width="6.0" height="10.0" fill="#ffffff"/><rect x="113.0" y="31.0" width="6.0" height="10.0" fill="#ffffff"/><rect x="119.0" y="31.0" width="6.0" height="10.0" fill="#ffffff"/><rect x="125.0" y="31.0" width="6.0" height="10.0" fill="#ffffff"/><rect x="131.0" y="41.0" width="6.0" height="10.0" fill="#ffffff"/><rect x="131.0" y="61.0" width="6.0" height="10.0" fill="#ffffff"/><rect x="101.0" y="61.0" width="6.0" height="10.0" fill="#ffffff"/><rect x="95.0" y="61.0" width="6.0" height="10.0" fill="#ffffff"/><rect x="83.0" y="61.0" width="6.0" height="10.0" fill="#ffffff"/><rect x="77.0" y="51.0" width="6.0" height="10.0" fill="#ffffff"/><rect x="77.0" y="41.0" width="6.0" height="10.0" fill="#ffffff"/><rect x="23.0" y="71.0" width="6.0" height="10.0" fill="#ffd966"/><rect x="41.0" y="71.0" width="6.0" height="10.0" fill="#ffd966"/><rect x="53.0" y="71.0" width="6.0" height="10.0" fill="#ffd966"/><rect x="59.0" y="71.0" width="6.0" height="10.0" fill="#ffd966"/><rect x="65.0" y="71.0" width="6.0" height="10.0" fill="#ffd966"/><rect x="71.0" y="71.0" width="6.0" height="10.0" fill="#ffd966"/><rect x="71.0" y="101.0" width="6.0" height="10.0" fill="#ffd966"/><rect x="65.0" y="101.0" width="6.0" height="10.0" fill="#ffd966"/><rect x="59.0" y="101.0" width="6.0" height="10.0" fill="#ffd966"/><rect x="47.0" y="101.0" width="6.0" height="10.0" fill="#ffd966"/><rect x="29.0" y="101.0" width="6.0" height="10.0" fill="#ffd966"/><rect x="23.0" y="101.0" width="6.0" height="10.0" fill="#ffd966"/><rect x="17.0" y="101.0" width="6.0" height="10.0" fill="#ffd966"/><rect x="17.0" y="91.0" width="6.0" height="10.0" fill="#ffd966"/><rect x="77.0" y="71.0" width="6.0" height="10.0" fill="#ff3f2f"/><rect x="89.0" y="71.0" width="6.0" height="10.0" fill="#ff3f2f"/><rect x="95.0" y="71.0" width="6.0" height="10.0" fill="#ff3f2f"/><rect x="107.0" y="71.0" width="6.0" height="10.0" fill="#ff3f2f"/><rect x="113.0" y="71.0" width="6.0" height="10.0" fill="#ff3f2f"/><rect x="131.0" y="71.0" width="6.0" height="10.0" fill="#ff3f2f"/><rect x="131.0" y="81.0" width="6.0" height="10.0" fill="#ff3f2f"/><rect x="125.0" y="101.0" width="6.0" height="10.0" fill="#ff3f2f"/><rect x="113.0" y="101.0" width="6.0" height="10.0" fill="#ff3f2f"/><rect x="101.0" y="101.0" width="6.0" height="10.0" fill="#ff3f2f"/><rect x="89.0" y="101.0" width="6.0" height="10.0" fill="#ff3f2f"/><rect x="83.0" y="101.0" width="6.0" height="10.0" fill="#ff3f2f"/><rect x="77.0" y="101.0" width="6.0" height="10.0" fill="#ff3f2f"/><rect x="77.0" y="91.0" width="6.0" height="10.0" fill="#ff3f2f"/><rect x="77.0" y="81.0" width="6.0" height="10.0" fill="#ff3f2f"/><rect x="143.0" y="71.0" width="6.0" height="10.0" fill="#ffd966"/><rect x="149.0" y="71.0" width="6.0" height="10.0" fill="#ffd966"/><rect x="161.0" y="71.0" width="6.0" height="10.0" fill="#ffd966"/><rect x="167.0" y="71.0" width="6.0" height="10.0" fill="#ffd966"/><rect x="173.0" y="71.0" width="6.0" height="10.0" fill="#ffd966"/><rect x="185.0" y="71.0" width="6.0" height="10.0" fill="#ffd966"/><rect x="191.0" y="81.0" width="6.0" height="10.0" fill="#ffd966"/><rect x="191.0" y="91.0" width="6.0" height="10.0" fill="#ffd966"/><rect x="179.0" y="101.0" width="6.0" height="10.0" fill="#ffd966"/><rect x="173.0" y="101.0" width="6.0" height="10.0" fill="#ffd966"/><rect x="167.0" y="101.0" width="6.0" height="10.0" fill="#ffd966"/><rect x="155.0" y="101.0" width="6.0" height="10.0" fill="#ffd966"/><rect x="143.0" y="101.0" width="6.0" height="10.0" fill="#ffd966"/><rect x="137.0" y="91.0" width="6.0" height="10.0" fill="#ffd966"/><rect x="137.0" y="81.0" width="6.0" height="10.0" fill="#ffd966"/><rect x="17.0" y="111.0" width="6.0" height="10.0" fill="#ff3f2f"/><rect x="29.0" y="111.0" width="6.0" height="10.0" fill="#ff3f2f"/><rect x="41.0" y="111.0" width="6.0" height="10.0" fill="#ff3f2f"/><rect x="59.0" y="111.0" width="6.0" height="10.0" fill="#ff3f2f"/><rect x="65.0" y="111.0" width="6.0" height="10.0" fill="#ff3f2f"/><rect x="59.0" y="141.0" width="6.0" height="10.0" fill="#ff3f2f"/><rect x="47.0" y="141.0" width="6.0" height="10.0" fill="#ff3f2f"/><rect x="35.0" y="141.0" width="6.0" height="10.0" fill="#ff3f2f"/><rect x="29.0" y="141.0" width="6.0" height="10.0" fill="#ff3f2f"/><rect x="23.0" y="141.0" width="6.0" height="10.0" fill="#ff3f2f"/><rect x="17.0" y="131.0" width="6.0" height="10.0" fill="#ff3f2f"/><rect x="137.0" y="111.0" width="6.0" height="10.0" fill="#ffd966"/><rect x="143.0" y="111.0" width="6.0" height="10.0" fill="#ffd966"/><rect x="179.0" y="111.0" width="6.0" height="10.0" fill="#ffd966"/><rect x="185.0" y="111.0" width="6.0" height="10.0" fill="#ffd966"/><rect x="191.0" y="111.0" width="6.0" height="10.0" fill="#ffd966"/><rect x="191.0" y="141.0" width="6.0" height="10.0" fill="#ffd966"/><rect x="173.0" y="141.0" width="6.0" height="10.0" fill="#ffd966"/><rect x="167.0" y="141.0" width="6.0" height="10.0" fill="#ffd966"/><rect x="155.0" y="141.0" width="6.0" height="10.0" fill="#ffd966"/><rect x="149.0" y="141.0" width="6.0" height="10.0" fill="#ffd966"/><g clip-path="url(#grid-clip-7154c6d6-3x3)"><ellipse cx="17.0" cy="71.0" rx="98.18629362155326" ry="85.25600615009698" transform="rotate(0.0 17.0 71.0)" fill="#ffffff" fill-opacity="0.4"/></g><rect x="23.0" y="41.0" width="48.0" height="20.0" fill="#885500"/><text x="47.0" y="51.0" fill="#ffffff" style="font-family: monospace; font-size: 16.0px;" text-anchor="middle" dominant-baseline="central">01AR</text><rect x="83.0" y="41.0" width="48.0" height="20.0" fill="#ddeaf8"/><text x="107.0" y="51.0" fill="#000000" style="font-family: monospace; font-size: 16.0px;" text-anchor="middle" dominant-baseline="central">Z3ND</text><rect x="23.0" y="81.0" width="48.0" height="20.0" fill="#99f574"/><text x="47.0" y="91.0" fill="#000000" style="font-family: monospace; font-size: 16.0px;" text-anchor="middle" dominant-baseline="central">EKTS</text><rect x="83.0" y="81.0" width="48.0" height="20.0" fill="#8831d9"/><text x="107.0" y="91.0" fill="#ffffff" style="font-family: monospace; font-size: 16.0px;" text-anchor="middle" dominant-baseline="central">V4RR</text><rect x="143.0" y="81.0" width="48.0" height="20.0" fill="#66ee7b"/><text x="167.0" y="91.0" fill="#000000" style="font-family: monospace; font-size: 16.0px;" text-anchor="middle" dominant-baseline="central">FFQ6</text><rect x="23.0" y="121.0" width="48.0" height="20.0" fill="#ff0a4c"/><text x="47.0" y="131.0" fill="#000000" style="font-family: monospace; font-size: 16.0px;" text-anchor="middle" dominant-baseline="central">9G5F</text><rect x="143.0" y="121.0" width="48.0" height="20.0" fill="#bbd556"/><text x="167.0" y="131.0" fill="#000000" style="font-family: monospace; font-size: 16.0px;" text-anchor="middle" dominant-baseline="central">AV</text><circle cx="167.0" cy="51.0" r="17.0" fill="#ffffff" stroke="#000000" stroke-width="1"/><line x1="167.0" y1="51.0" x2="152.0230947019188" y2="60.98460353205412" stroke="#ffffff" style="mix-blend-mode: difference" stroke-width="1"/><line x1="167.0" y1="51.0" x2="167.0" y2="59.5" stroke="#000000" stroke-width="1"/><circle cx="167.0" cy="59.5" r="1.5" fill="#ffffff" stroke="#000000" stroke-width="1"/><circle cx="107.0" cy="131.0" r="17.0" fill="#ffffff" stroke="#000000" stroke-width="1"/><line x1="107.0" y1="131.0" x2="107.0" y2="113.0" stroke="#ffffff" style="mix-blend-mode: difference" stroke-width="1"/><line x1="107.0" y1="131.0" x2="115.5" y2="131.0" stroke="#000000" stroke-width="1"/><circle cx="115.5" cy="131.0" r="1.5" fill="#ffffff" stroke="#000000" stroke-width="1"/><polygon points="83.0,41.0 93.0,41.0 83.0,51.0" fill="#000000"/><polygon points="191.0,121.0 181.0,121.0 191.0,131.0" fill="#000000"/><polygon points="71.0,101.0 71.0,91.0 61.0,101.0" fill="#000000"/><polygon points="83.0,101.0 83.0,91.0 93.0,101.0" fill="#ffffff"/><rect x="1" y="1" width="10.0" height="68.17788037791725" fill="#ffd966"/><rect x="1" y="69.17788037791725" width="10.0" height="36.15083537453762" fill="#000000"/><rect x="1" y="105.32871575245487" width="10.0" height="27.925659802794907" fill="#ff3f2f"/><rect x="1" y="133.25437555524977" width="10.0" height="22.745624444750234" fill="#ffffff"/><text x="17.0" y="16.0" fill="#666666" style="font-family: monospace; font-size: 12.0px;" dominant-baseline="central">ULID:</text><line x1="0" y1="0.5" x2="203.0" y2="0.5" stroke="#808080" stroke-width="1" shape-rendering="crispEdges"/><line x1="202.5" y1="0" x2="202.5" y2="157.0" stroke="#808080" stroke-width="1" shape-rendering="crispEdges"/><line x1="0" y1="156.5" x2="203.0" y2="156.5" stroke="#808080" stroke-width="1" shape-rendering="crispEdges"/><line x1="0.5" y1="0" x2="0.5" y2="157.0" stroke="#808080" stroke-width="1" shape-rendering="crispEdges"/><line x1="11.5" y1="0" x2="11.5" y2="157.0" stroke="#808080" stroke-width="1" shape-rendering="crispEdges"/></svg>