<svg width="213" height="192" viewBox="0 0 213 192" xmlns="http://www.w3.org/2000/svg" font-family="&quot;JetBrains Mono&quot;, &quot;Menlo&quot;, &quot;Consolas&quot;, &quot;DejaVu Sans Mono&quot;, &quot;Liberation Mono&quot;, &quot;Roboto Mono&quot;, &quot;Noto Sans Mono&quot;, monospace" data-entviz-version="v10" data-entviz-lib="0.10.0" data-input-bytes="64" data-cols="3" data-rows="4"><defs><clipPath id="grid-clip-286f37dd952ff65e-3x4"><rect x="27" y="26" width="180" height="160"/></clipPath></defs><rect x="0" y="0" width="213" height="192" fill="#ffffff"/><g data-channel="grid"><rect x="27" y="26" width="180" height="160" fill="#ff3f2f"/><g><path fill="#000000" d="M27 26h6v10h-6zM33 26h6v10h-6zM39 26h6v10h-6zM51 26h6v10h-6zM57 26h6v10h-6zM75 26h6v10h-6zM81 26h6v10h-6zM81 36h6v10h-6zM81 46h6v10h-6zM75 56h6v10h-6zM69 56h6v10h-6zM39 56h6v10h-6zM27 56h6v10h-6z"/><path fill="#2f3fbf" d="M87 26h6v10h-6zM93 26h6v10h-6zM99 26h6v10h-6zM105 26h6v10h-6zM117 26h6v10h-6zM135 26h6v10h-6zM141 36h6v10h-6zM141 56h6v10h-6zM123 56h6v10h-6zM117 56h6v10h-6zM105 56h6v10h-6zM99 56h6v10h-6zM93 56h6v10h-6zM87 46h6v10h-6zM87 36h6v10h-6z"/><path fill="#000000" d="M147 26h6v10h-6zM153 26h6v10h-6zM159 26h6v10h-6zM171 26h6v10h-6zM177 26h6v10h-6zM183 26h6v10h-6zM189 26h6v10h-6zM201 26h6v10h-6zM201 36h6v10h-6zM201 46h6v10h-6zM201 56h6v10h-6zM189 56h6v10h-6zM171 56h6v10h-6zM165 56h6v10h-6zM153 56h6v10h-6zM147 56h6v10h-6zM147 46h6v10h-6zM147 36h6v10h-6z"/><path fill="#e7be00" d="M27 66h6v10h-6zM63 66h6v10h-6zM69 66h6v10h-6zM75 66h6v10h-6zM81 76h6v10h-6zM81 86h6v10h-6zM81 96h6v10h-6zM75 96h6v10h-6zM69 96h6v10h-6zM63 96h6v10h-6zM57 96h6v10h-6zM51 96h6v10h-6zM45 96h6v10h-6zM39 96h6v10h-6zM33 96h6v10h-6zM27 86h6v10h-6z"/><path fill="#2f3fbf" d="M87 66h6v10h-6zM93 66h6v10h-6zM105 66h6v10h-6zM111 66h6v10h-6zM117 66h6v10h-6zM135 66h6v10h-6zM141 66h6v10h-6zM141 76h6v10h-6zM135 96h6v10h-6zM129 96h6v10h-6zM123 96h6v10h-6zM117 96h6v10h-6zM111 96h6v10h-6zM87 76h6v10h-6z"/><path fill="#e7be00" d="M147 66h6v10h-6zM171 66h6v10h-6zM195 66h6v10h-6zM195 96h6v10h-6zM189 96h6v10h-6zM183 96h6v10h-6zM177 96h6v10h-6zM171 96h6v10h-6zM153 96h6v10h-6zM147 96h6v10h-6z"/><path fill="#000000" d="M27 106h6v10h-6zM39 106h6v10h-6zM57 106h6v10h-6zM63 106h6v10h-6zM75 106h6v10h-6zM81 136h6v10h-6zM69 136h6v10h-6zM63 136h6v10h-6zM33 136h6v10h-6zM27 126h6v10h-6zM27 116h6v10h-6z"/><path fill="#000000" d="M153 106h6v10h-6zM159 106h6v10h-6zM171 106h6v10h-6zM183 106h6v10h-6zM195 106h6v10h-6zM201 106h6v10h-6zM201 136h6v10h-6zM195 136h6v10h-6zM165 136h6v10h-6zM159 136h6v10h-6zM147 136h6v10h-6z"/><path fill="#2f3fbf" d="M39 146h6v10h-6zM51 146h6v10h-6zM63 146h6v10h-6zM81 156h6v10h-6zM81 166h6v10h-6zM81 176h6v10h-6zM75 176h6v10h-6zM63 176h6v10h-6zM45 176h6v10h-6zM27 176h6v10h-6zM27 166h6v10h-6zM27 156h6v10h-6z"/><path fill="#e7be00" d="M87 146h6v10h-6zM93 146h6v10h-6zM117 146h6v10h-6zM129 146h6v10h-6zM141 156h6v10h-6zM141 176h6v10h-6zM117 176h6v10h-6zM111 176h6v10h-6zM105 176h6v10h-6zM87 166h6v10h-6zM87 156h6v10h-6z"/><path fill="#000000" d="M147 146h6v10h-6zM153 146h6v10h-6zM183 146h6v10h-6zM189 146h6v10h-6zM201 166h6v10h-6zM201 176h6v10h-6zM195 176h6v10h-6zM189 176h6v10h-6zM183 176h6v10h-6zM177 176h6v10h-6zM165 176h6v10h-6zM159 176h6v10h-6zM147 166h6v10h-6z"/></g><g clip-path="url(#grid-clip-286f37dd952ff65e-3x4)" data-channel="ellipse" data-ellipse-anchor-x="147" data-ellipse-anchor-y="106" data-ellipse-rx="59.419" data-ellipse-ry="59.419" data-ellipse-rotation-deg="96"><ellipse cx="147" cy="106" rx="59.419" ry="59.419" transform="rotate(96 147 106)" fill="#000000" stroke="#000000" fill-opacity="0.25" stroke-opacity="0.35" stroke-width="2"/></g><g><g data-channel="cell" data-cell-index="0" data-cell-row="0" data-cell-col="0" data-surround-bits="0x286f37" data-edge-color="#000000"><rect x="33" y="36" width="48" height="20" fill="#d0869f"/><text x="57" y="46" fill="#000000" font-size="12" text-anchor="middle" dominant-baseline="central">9f86d0</text></g><g data-channel="cell" data-cell-index="1" data-cell-row="0" data-cell-col="1" data-surround-bits="0xdd952f" data-edge-color="#2f3fbf"><rect x="93" y="36" width="48" height="20" fill="#4c8881"/><text x="117" y="46" fill="#ffffff" font-size="12" text-anchor="middle" dominant-baseline="central">81884c</text></g><g data-channel="cell" data-cell-index="2" data-cell-row="0" data-cell-col="2" data-surround-bits="0xf65ef7" data-edge-color="#000000" data-cell-quartile="1"><rect x="153" y="36" width="48" height="20" fill="#9a657d"/><text x="177" y="46" fill="#ffffff" font-size="12" text-anchor="middle" dominant-baseline="central">7d659a</text><polygon points="153,36 163,36 153,46" fill="#ffffff"/></g><g data-channel="cell" data-cell-index="3" data-cell-row="1" data-cell-col="0" data-surround-bits="0x5ffdc1" data-edge-color="#e7be00" data-cell-quartile="2"><rect x="33" y="76" width="48" height="20" fill="#a0ea2f"/><text x="57" y="86" fill="#000000" font-size="12" text-anchor="middle" dominant-baseline="central">2feaa0</text><polygon points="81,76 71,76 81,86" fill="#000000"/></g><g data-channel="cell" data-cell-index="4" data-cell-row="1" data-cell-col="1" data-surround-bits="0x83e73b" data-edge-color="#2f3fbf"><rect x="93" y="76" width="48" height="20" fill="#d05ac5"/><text x="117" y="86" fill="#000000" font-size="12" text-anchor="middle" dominant-baseline="central">c55ad0</text></g><g data-channel="cell" data-cell-index="5" data-cell-row="1" data-cell-col="2" data-surround-bits="0x33e111" data-edge-color="#e7be00"><rect x="153" y="76" width="48" height="20" fill="#bfa315"/><text x="177" y="86" fill="#000000" font-size="12" text-anchor="middle" dominant-baseline="central">15a3bf</text></g><g data-channel="cell" data-cell-index="6" data-cell-row="2" data-cell-col="0" data-surround-bits="0xd0d165" data-edge-color="#000000" data-cell-quartile="4"><rect x="33" y="116" width="48" height="20" fill="#2b1b4f"/><text x="57" y="126" fill="#ffffff" font-size="12" text-anchor="middle" dominant-baseline="central">4f1b2b</text><polygon points="33,136 33,126 43,136" fill="#ffffff"/></g><g data-channel="cell" data-cell-index="7" data-cell-row="2" data-cell-col="1" data-cell-blank="true" data-cell-blank-map="true"><rect x="93" y="116" width="48" height="20" rx="10" ry="10" fill="#000000" stroke="#000000" stroke-width="1"/><circle cx="101" cy="118.5" r="3.5" fill="#ffffff" data-blank-map-min="0,0"/><path d="M 128.8,118.5 H 137.2 M 133,114.3 V 122.7" fill="none" stroke="#ffffff" stroke-width="1.925" stroke-linecap="butt" data-blank-map-max="0,2"/></g><g data-channel="cell" data-cell-index="8" data-cell-row="2" data-cell-col="2" data-surround-bits="0x2c3356" data-edge-color="#000000"><rect x="153" y="116" width="48" height="20" fill="#2c820b"/><text x="177" y="126" fill="#ffffff" font-size="12" text-anchor="middle" dominant-baseline="central">0b822c</text></g><g data-channel="cell" data-cell-index="9" data-cell-row="3" data-cell-col="0" data-surround-bits="0xe4bc54" data-edge-color="#2f3fbf" data-cell-quartile="3"><rect x="33" y="156" width="48" height="20" fill="#6c5dd1"/><text x="57" y="166" fill="#ffffff" font-size="12" text-anchor="middle" dominant-baseline="central">d15d6c</text><polygon points="81,176 81,166 71,176" fill="#ffffff"/></g><g data-channel="cell" data-cell-index="10" data-cell-row="3" data-cell-col="1" data-surround-bits="0xc714a3" data-edge-color="#e7be00"><rect x="93" y="156" width="48" height="20" fill="#f0b015"/><text x="117" y="166" fill="#000000" font-size="12" text-anchor="middle" dominant-baseline="central">15b0f0</text></g><g data-channel="cell" data-cell-index="11" data-cell-row="3" data-cell-col="2" data-surround-bits="0x4df8c3" data-edge-color="#000000"><rect x="153" y="156" width="48" height="20" fill="#08080a"/><text x="177" y="166" fill="#ffffff" font-size="12" text-anchor="middle" dominant-baseline="central">0a08</text></g></g></g><g data-channel="color-bar" data-bar-slots="15" data-bar-marker-left="8" data-bar-marker-right="14"><g data-color-bar-rank="0" data-color-bar-band="W"><rect x="1" y="1" width="20" height="26.842" fill="#ffffff"/><text x="11" y="25.202" fill="#000000" font-size="12" text-anchor="middle" data-color-bar-letter="true">w</text></g><g data-color-bar-rank="1" data-color-bar-band="B"><rect x="1" y="27.842" width="20" height="16.047" fill="#2f3fbf"/><text x="11" y="41.249" fill="#ffffff" font-size="12" text-anchor="middle" data-color-bar-letter="true">b</text></g><g data-color-bar-rank="2" data-color-bar-band="K"><rect x="1" y="43.889" width="20" height="102.104" fill="#000000"/><text x="11" y="143.353" fill="#ffffff" font-size="12" text-anchor="middle" data-color-bar-letter="true">k</text></g><g data-color-bar-rank="3" data-color-bar-band="G"><rect x="1" y="145.993" width="20" height="45.007" fill="#e7be00"/><text x="11" y="188.36" fill="#000000" font-size="12" text-anchor="middle" data-color-bar-letter="true">g</text></g><circle cx="5.6" cy="108.667" r="3.4" fill="#ffffff" stroke="#000000" stroke-width="0.75" data-bar-marker="left"/><circle cx="16.4" cy="184.667" r="3.4" fill="#ffffff" stroke="#000000" stroke-width="0.75" data-bar-marker="right"/></g><g data-channel="label-top"><text x="27" y="16" fill="#666666" font-size="12" dominant-baseline="central">hex(64):</text></g><line x1="0" y1="0.5" x2="213" y2="0.5" stroke="#808080" stroke-width="1" shape-rendering="crispEdges"/><line x1="212.5" y1="0" x2="212.5" y2="192" stroke="#808080" stroke-width="1" shape-rendering="crispEdges"/><line x1="0" y1="191.5" x2="213" y2="191.5" stroke="#808080" stroke-width="1" shape-rendering="crispEdges"/><line x1="0.5" y1="0" x2="0.5" y2="192" stroke="#808080" stroke-width="1" shape-rendering="crispEdges"/><line x1="21.5" y1="0" x2="21.5" y2="192" stroke="#808080" stroke-width="1" shape-rendering="crispEdges"/></svg>