<svg width="213.0" height="192.0" viewBox="0 0 213.0 192.0" xmlns="http://www.w3.org/2000/svg" data-entviz-version="v8" data-entviz-lib="0.7.2" data-input-bytes="64" data-cols="3" data-rows="4"><defs><clipPath id="grid-clip-286f37dd952ff65e-3x4"><rect x="27.0" y="26.0" width="180.0" height="160.0"/></clipPath></defs><rect x="0" y="0" width="213.0" height="192.0" fill="#ffffff"/><g data-channel="grid"><rect x="27.0" y="26.0" width="180.0" height="160.0" fill="#ff3f2f"/><g><rect x="27.0" y="26.0" width="6.0" height="10.0" fill="#2f3fbf"/><rect x="33.0" y="26.0" width="6.0" height="10.0" fill="#2f3fbf"/><rect x="39.0" y="26.0" width="6.0" height="10.0" fill="#2f3fbf"/><rect x="51.0" y="26.0" width="6.0" height="10.0" fill="#2f3fbf"/><rect x="57.0" y="26.0" width="6.0" height="10.0" fill="#2f3fbf"/><rect x="75.0" y="26.0" width="6.0" height="10.0" fill="#2f3fbf"/><rect x="81.0" y="26.0" width="6.0" height="10.0" fill="#2f3fbf"/><rect x="81.0" y="36.0" width="6.0" height="10.0" fill="#2f3fbf"/><rect x="81.0" y="46.0" width="6.0" height="10.0" fill="#2f3fbf"/><rect x="75.0" y="56.0" width="6.0" height="10.0" fill="#2f3fbf"/><rect x="69.0" y="56.0" width="6.0" height="10.0" fill="#2f3fbf"/><rect x="39.0" y="56.0" width="6.0" height="10.0" fill="#2f3fbf"/><rect x="27.0" y="56.0" width="6.0" height="10.0" fill="#2f3fbf"/><rect x="87.0" y="26.0" width="6.0" height="10.0" fill="#2f3fbf"/><rect x="93.0" y="26.0" width="6.0" height="10.0" fill="#2f3fbf"/><rect x="99.0" y="26.0" width="6.0" height="10.0" fill="#2f3fbf"/><rect x="105.0" y="26.0" width="6.0" height="10.0" fill="#2f3fbf"/><rect x="117.0" y="26.0" width="6.0" height="10.0" fill="#2f3fbf"/><rect x="135.0" y="26.0" width="6.0" height="10.0" fill="#2f3fbf"/><rect x="141.0" y="36.0" width="6.0" height="10.0" fill="#2f3fbf"/><rect x="141.0" y="56.0" width="6.0" height="10.0" fill="#2f3fbf"/><rect x="123.0" y="56.0" width="6.0" height="10.0" fill="#2f3fbf"/><rect x="117.0" y="56.0" width="6.0" height="10.0" fill="#2f3fbf"/><rect x="105.0" y="56.0" width="6.0" height="10.0" fill="#2f3fbf"/><rect x="99.0" y="56.0" width="6.0" height="10.0" fill="#2f3fbf"/><rect x="93.0" y="56.0" width="6.0" height="10.0" fill="#2f3fbf"/><rect x="87.0" y="46.0" width="6.0" height="10.0" fill="#2f3fbf"/><rect x="87.0" y="36.0" width="6.0" height="10.0" fill="#2f3fbf"/><rect x="147.0" y="26.0" width="6.0" height="10.0" fill="#2f3fbf"/><rect x="153.0" y="26.0" width="6.0" height="10.0" fill="#2f3fbf"/><rect x="159.0" y="26.0" width="6.0" height="10.0" fill="#2f3fbf"/><rect x="171.0" y="26.0" width="6.0" height="10.0" fill="#2f3fbf"/><rect x="177.0" y="26.0" width="6.0" height="10.0" fill="#2f3fbf"/><rect x="183.0" y="26.0" width="6.0" height="10.0" fill="#2f3fbf"/><rect x="189.0" y="26.0" width="6.0" height="10.0" fill="#2f3fbf"/><rect x="201.0" y="26.0" width="6.0" height="10.0" fill="#2f3fbf"/><rect x="201.0" y="36.0" width="6.0" height="10.0" fill="#2f3fbf"/><rect x="201.0" y="46.0" width="6.0" height="10.0" fill="#2f3fbf"/><rect x="201.0" y="56.0" width="6.0" height="10.0" fill="#2f3fbf"/><rect x="189.0" y="56.0" width="6.0" height="10.0" fill="#2f3fbf"/><rect x="171.0" y="56.0" width="6.0" height="10.0" fill="#2f3fbf"/><rect x="165.0" y="56.0" width="6.0" height="10.0" fill="#2f3fbf"/><rect x="153.0" y="56.0" width="6.0" height="10.0" fill="#2f3fbf"/><rect x="147.0" y="56.0" width="6.0" height="10.0" fill="#2f3fbf"/><rect x="147.0" y="46.0" width="6.0" height="10.0" fill="#2f3fbf"/><rect x="147.0" y="36.0" width="6.0" height="10.0" fill="#2f3fbf"/><rect x="27.0" y="66.0" width="6.0" height="10.0" fill="#e7be00"/><rect x="63.0" y="66.0" width="6.0" height="10.0" fill="#e7be00"/><rect x="69.0" y="66.0" width="6.0" height="10.0" fill="#e7be00"/><rect x="75.0" y="66.0" width="6.0" height="10.0" fill="#e7be00"/><rect x="81.0" y="76.0" width="6.0" height="10.0" fill="#e7be00"/><rect x="81.0" y="86.0" width="6.0" height="10.0" fill="#e7be00"/><rect x="81.0" y="96.0" width="6.0" height="10.0" fill="#e7be00"/><rect x="75.0" y="96.0" width="6.0" height="10.0" fill="#e7be00"/><rect x="69.0" y="96.0" width="6.0" height="10.0" fill="#e7be00"/><rect x="63.0" y="96.0" width="6.0" height="10.0" fill="#e7be00"/><rect x="57.0" y="96.0" width="6.0" height="10.0" fill="#e7be00"/><rect x="51.0" y="96.0" width="6.0" height="10.0" fill="#e7be00"/><rect x="45.0" y="96.0" width="6.0" height="10.0" fill="#e7be00"/><rect x="39.0" y="96.0" width="6.0" height="10.0" fill="#e7be00"/><rect x="33.0" y="96.0" width="6.0" height="10.0" fill="#e7be00"/><rect x="27.0" y="86.0" width="6.0" height="10.0" fill="#e7be00"/><rect x="87.0" y="66.0" width="6.0" height="10.0" fill="#2f3fbf"/><rect x="93.0" y="66.0" width="6.0" height="10.0" fill="#2f3fbf"/><rect x="105.0" y="66.0" width="6.0" height="10.0" fill="#2f3fbf"/><rect x="111.0" y="66.0" width="6.0" height="10.0" fill="#2f3fbf"/><rect x="117.0" y="66.0" width="6.0" height="10.0" fill="#2f3fbf"/><rect x="135.0" y="66.0" width="6.0" height="10.0" fill="#2f3fbf"/><rect x="141.0" y="66.0" width="6.0" height="10.0" fill="#2f3fbf"/><rect x="141.0" y="76.0" width="6.0" height="10.0" fill="#2f3fbf"/><rect x="135.0" y="96.0" width="6.0" height="10.0" fill="#2f3fbf"/><rect x="129.0" y="96.0" width="6.0" height="10.0" fill="#2f3fbf"/><rect x="123.0" y="96.0" width="6.0" height="10.0" fill="#2f3fbf"/><rect x="117.0" y="96.0" width="6.0" height="10.0" fill="#2f3fbf"/><rect x="111.0" y="96.0" width="6.0" height="10.0" fill="#2f3fbf"/><rect x="87.0" y="76.0" width="6.0" height="10.0" fill="#2f3fbf"/><rect x="147.0" y="66.0" width="6.0" height="10.0" fill="#e7be00"/><rect x="171.0" y="66.0" width="6.0" height="10.0" fill="#e7be00"/><rect x="195.0" y="66.0" width="6.0" height="10.0" fill="#e7be00"/><rect x="195.0" y="96.0" width="6.0" height="10.0" fill="#e7be00"/><rect x="189.0" y="96.0" width="6.0" height="10.0" fill="#e7be00"/><rect x="183.0" y="96.0" width="6.0" height="10.0" fill="#e7be00"/><rect x="177.0" y="96.0" width="6.0" height="10.0" fill="#e7be00"/><rect x="171.0" y="96.0" width="6.0" height="10.0" fill="#e7be00"/><rect x="153.0" y="96.0" width="6.0" height="10.0" fill="#e7be00"/><rect x="147.0" y="96.0" width="6.0" height="10.0" fill="#e7be00"/><rect x="27.0" y="106.0" width="6.0" height="10.0" fill="#000000"/><rect x="39.0" y="106.0" width="6.0" height="10.0" fill="#000000"/><rect x="57.0" y="106.0" width="6.0" height="10.0" fill="#000000"/><rect x="63.0" y="106.0" width="6.0" height="10.0" fill="#000000"/><rect x="75.0" y="106.0" width="6.0" height="10.0" fill="#000000"/><rect x="81.0" y="136.0" width="6.0" height="10.0" fill="#000000"/><rect x="69.0" y="136.0" width="6.0" height="10.0" fill="#000000"/><rect x="63.0" y="136.0" width="6.0" height="10.0" fill="#000000"/><rect x="33.0" y="136.0" width="6.0" height="10.0" fill="#000000"/><rect x="27.0" y="126.0" width="6.0" height="10.0" fill="#000000"/><rect x="27.0" y="116.0" width="6.0" height="10.0" fill="#000000"/><rect x="153.0" y="106.0" width="6.0" height="10.0" fill="#000000"/><rect x="159.0" y="106.0" width="6.0" height="10.0" fill="#000000"/><rect x="171.0" y="106.0" width="6.0" height="10.0" fill="#000000"/><rect x="183.0" y="106.0" width="6.0" height="10.0" fill="#000000"/><rect x="195.0" y="106.0" width="6.0" height="10.0" fill="#000000"/><rect x="201.0" y="106.0" width="6.0" height="10.0" fill="#000000"/><rect x="201.0" y="136.0" width="6.0" height="10.0" fill="#000000"/><rect x="195.0" y="136.0" width="6.0" height="10.0" fill="#000000"/><rect x="165.0" y="136.0" width="6.0" height="10.0" fill="#000000"/><rect x="159.0" y="136.0" width="6.0" height="10.0" fill="#000000"/><rect x="147.0" y="136.0" width="6.0" height="10.0" fill="#000000"/><rect x="39.0" y="146.0" width="6.0" height="10.0" fill="#2f3fbf"/><rect x="51.0" y="146.0" width="6.0" height="10.0" fill="#2f3fbf"/><rect x="63.0" y="146.0" width="6.0" height="10.0" fill="#2f3fbf"/><rect x="81.0" y="156.0" width="6.0" height="10.0" fill="#2f3fbf"/><rect x="81.0" y="166.0" width="6.0" height="10.0" fill="#2f3fbf"/><rect x="81.0" y="176.0" width="6.0" height="10.0" fill="#2f3fbf"/><rect x="75.0" y="176.0" width="6.0" height="10.0" fill="#2f3fbf"/><rect x="63.0" y="176.0" width="6.0" height="10.0" fill="#2f3fbf"/><rect x="45.0" y="176.0" width="6.0" height="10.0" fill="#2f3fbf"/><rect x="27.0" y="176.0" width="6.0" height="10.0" fill="#2f3fbf"/><rect x="27.0" y="166.0" width="6.0" height="10.0" fill="#2f3fbf"/><rect x="27.0" y="156.0" width="6.0" height="10.0" fill="#2f3fbf"/><rect x="87.0" y="146.0" width="6.0" height="10.0" fill="#e7be00"/><rect x="93.0" y="146.0" width="6.0" height="10.0" fill="#e7be00"/><rect x="117.0" y="146.0" width="6.0" height="10.0" fill="#e7be00"/><rect x="129.0" y="146.0" width="6.0" height="10.0" fill="#e7be00"/><rect x="141.0" y="156.0" width="6.0" height="10.0" fill="#e7be00"/><rect x="141.0" y="176.0" width="6.0" height="10.0" fill="#e7be00"/><rect x="117.0" y="176.0" width="6.0" height="10.0" fill="#e7be00"/><rect x="111.0" y="176.0" width="6.0" height="10.0" fill="#e7be00"/><rect x="105.0" y="176.0" width="6.0" height="10.0" fill="#e7be00"/><rect x="87.0" y="166.0" width="6.0" height="10.0" fill="#e7be00"/><rect x="87.0" y="156.0" width="6.0" height="10.0" fill="#e7be00"/><rect x="147.0" y="146.0" width="6.0" height="10.0" fill="#000000"/><rect x="153.0" y="146.0" width="6.0" height="10.0" fill="#000000"/><rect x="183.0" y="146.0" width="6.0" height="10.0" fill="#000000"/><rect x="189.0" y="146.0" width="6.0" height="10.0" fill="#000000"/><rect x="201.0" y="166.0" width="6.0" height="10.0" fill="#000000"/><rect x="201.0" y="176.0" width="6.0" height="10.0" fill="#000000"/><rect x="195.0" y="176.0" width="6.0" height="10.0" fill="#000000"/><rect x="189.0" y="176.0" width="6.0" height="10.0" fill="#000000"/><rect x="183.0" y="176.0" width="6.0" height="10.0" fill="#000000"/><rect x="177.0" y="176.0" width="6.0" height="10.0" fill="#000000"/><rect x="165.0" y="176.0" width="6.0" height="10.0" fill="#000000"/><rect x="159.0" y="176.0" width="6.0" height="10.0" fill="#000000"/><rect x="147.0" y="166.0" width="6.0" height="10.0" fill="#000000"/></g><g clip-path="url(#grid-clip-286f37dd952ff65e-3x4)" data-channel="ellipse" data-ellipse-anchor-x="147.0" data-ellipse-anchor-y="106.0" data-ellipse-rx="59.419485019646544" data-ellipse-ry="59.419485019646544" data-ellipse-rotation-deg="96.0"><ellipse cx="147.0" cy="106.0" rx="59.419485019646544" ry="59.419485019646544" transform="rotate(96.0 147.0 106.0)" fill="#000000" stroke="#000000" fill-opacity="0.25" stroke-opacity="0.35" stroke-width="2.0"/></g><g><g data-channel="cell" data-cell-index="0" data-cell-row="0" data-cell-col="0"><rect x="33.0" y="36.0" width="48.0" height="20.0" fill="#d0869f"/><text x="57.0" y="46.0" fill="#000000" style="font-family: &quot;JetBrains Mono&quot;, &quot;Menlo&quot;, &quot;Consolas&quot;, &quot;DejaVu Sans Mono&quot;, &quot;Liberation Mono&quot;, &quot;Roboto Mono&quot;, &quot;Noto Sans Mono&quot;, monospace; font-size: 12.0px;" text-anchor="middle" dominant-baseline="central">9f86d0</text></g><g data-channel="cell" data-cell-index="1" data-cell-row="0" data-cell-col="1"><rect x="93.0" y="36.0" width="48.0" height="20.0" fill="#4c8881"/><text x="117.0" y="46.0" fill="#ffffff" style="font-family: &quot;JetBrains Mono&quot;, &quot;Menlo&quot;, &quot;Consolas&quot;, &quot;DejaVu Sans Mono&quot;, &quot;Liberation Mono&quot;, &quot;Roboto Mono&quot;, &quot;Noto Sans Mono&quot;, monospace; font-size: 12.0px;" text-anchor="middle" dominant-baseline="central">81884c</text></g><g data-channel="cell" data-cell-index="2" data-cell-row="0" data-cell-col="2" data-cell-quartile="1"><rect x="153.0" y="36.0" width="48.0" height="20.0" fill="#9a657d"/><text x="177.0" y="46.0" fill="#ffffff" style="font-family: &quot;JetBrains Mono&quot;, &quot;Menlo&quot;, &quot;Consolas&quot;, &quot;DejaVu Sans Mono&quot;, &quot;Liberation Mono&quot;, &quot;Roboto Mono&quot;, &quot;Noto Sans Mono&quot;, monospace; font-size: 12.0px;" text-anchor="middle" dominant-baseline="central">7d659a</text><polygon points="153.0,36.0 163.0,36.0 153.0,46.0" fill="#ffffff"/></g><g data-channel="cell" data-cell-index="3" data-cell-row="1" data-cell-col="0" data-cell-quartile="2"><rect x="33.0" y="76.0" width="48.0" height="20.0" fill="#a0ea2f"/><text x="57.0" y="86.0" fill="#000000" style="font-family: &quot;JetBrains Mono&quot;, &quot;Menlo&quot;, &quot;Consolas&quot;, &quot;DejaVu Sans Mono&quot;, &quot;Liberation Mono&quot;, &quot;Roboto Mono&quot;, &quot;Noto Sans Mono&quot;, monospace; font-size: 12.0px;" text-anchor="middle" dominant-baseline="central">2feaa0</text><polygon points="81.0,76.0 71.0,76.0 81.0,86.0" fill="#000000"/></g><g data-channel="cell" data-cell-index="4" data-cell-row="1" data-cell-col="1"><rect x="93.0" y="76.0" width="48.0" height="20.0" fill="#d05ac5"/><text x="117.0" y="86.0" fill="#000000" style="font-family: &quot;JetBrains Mono&quot;, &quot;Menlo&quot;, &quot;Consolas&quot;, &quot;DejaVu Sans Mono&quot;, &quot;Liberation Mono&quot;, &quot;Roboto Mono&quot;, &quot;Noto Sans Mono&quot;, monospace; font-size: 12.0px;" text-anchor="middle" dominant-baseline="central">c55ad0</text></g><g data-channel="cell" data-cell-index="5" data-cell-row="1" data-cell-col="2"><rect x="153.0" y="76.0" width="48.0" height="20.0" fill="#bfa315"/><text x="177.0" y="86.0" fill="#000000" style="font-family: &quot;JetBrains Mono&quot;, &quot;Menlo&quot;, &quot;Consolas&quot;, &quot;DejaVu Sans Mono&quot;, &quot;Liberation Mono&quot;, &quot;Roboto Mono&quot;, &quot;Noto Sans Mono&quot;, monospace; font-size: 12.0px;" text-anchor="middle" dominant-baseline="central">15a3bf</text></g><g data-channel="cell" data-cell-index="6" data-cell-row="2" data-cell-col="0" data-cell-quartile="4"><rect x="33.0" y="116.0" width="48.0" height="20.0" fill="#2b1b4f"/><text x="57.0" y="126.0" fill="#ffffff" style="font-family: &quot;JetBrains Mono&quot;, &quot;Menlo&quot;, &quot;Consolas&quot;, &quot;DejaVu Sans Mono&quot;, &quot;Liberation Mono&quot;, &quot;Roboto Mono&quot;, &quot;Noto Sans Mono&quot;, monospace; font-size: 12.0px;" text-anchor="middle" dominant-baseline="central">4f1b2b</text><polygon points="33.0,136.0 33.0,126.0 43.0,136.0" fill="#ffffff"/></g><g data-channel="cell" data-cell-index="7" data-cell-row="2" data-cell-col="1" data-cell-blank="true" data-cell-blank-map="true"><rect x="93.0" y="116.0" width="48.0" height="20.0" rx="10.0" ry="10.0" fill="#ffffff" stroke="#000000" stroke-width="1"/><circle cx="101.0" cy="118.5" r="3.5" fill="#1d4ed8" data-blank-map-min="0,0"/><path d="M 128.8,118.5 H 137.2 M 133.0,114.3 V 122.7" fill="none" stroke="#d62828" stroke-width="1.9250000000000003" stroke-linecap="butt" data-blank-map-max="0,2"/></g><g data-channel="cell" data-cell-index="8" data-cell-row="2" data-cell-col="2"><rect x="153.0" y="116.0" width="48.0" height="20.0" fill="#2c820b"/><text x="177.0" y="126.0" fill="#ffffff" style="font-family: &quot;JetBrains Mono&quot;, &quot;Menlo&quot;, &quot;Consolas&quot;, &quot;DejaVu Sans Mono&quot;, &quot;Liberation Mono&quot;, &quot;Roboto Mono&quot;, &quot;Noto Sans Mono&quot;, monospace; font-size: 12.0px;" text-anchor="middle" dominant-baseline="central">0b822c</text></g><g data-channel="cell" data-cell-index="9" data-cell-row="3" data-cell-col="0" data-cell-quartile="3"><rect x="33.0" y="156.0" width="48.0" height="20.0" fill="#6c5dd1"/><text x="57.0" y="166.0" fill="#ffffff" style="font-family: &quot;JetBrains Mono&quot;, &quot;Menlo&quot;, &quot;Consolas&quot;, &quot;DejaVu Sans Mono&quot;, &quot;Liberation Mono&quot;, &quot;Roboto Mono&quot;, &quot;Noto Sans Mono&quot;, monospace; font-size: 12.0px;" text-anchor="middle" dominant-baseline="central">d15d6c</text><polygon points="81.0,176.0 81.0,166.0 71.0,176.0" fill="#ffffff"/></g><g data-channel="cell" data-cell-index="10" data-cell-row="3" data-cell-col="1"><rect x="93.0" y="156.0" width="48.0" height="20.0" fill="#f0b015"/><text x="117.0" y="166.0" fill="#000000" style="font-family: &quot;JetBrains Mono&quot;, &quot;Menlo&quot;, &quot;Consolas&quot;, &quot;DejaVu Sans Mono&quot;, &quot;Liberation Mono&quot;, &quot;Roboto Mono&quot;, &quot;Noto Sans Mono&quot;, monospace; font-size: 12.0px;" text-anchor="middle" dominant-baseline="central">15b0f0</text></g><g data-channel="cell" data-cell-index="11" data-cell-row="3" data-cell-col="2"><rect x="153.0" y="156.0" width="48.0" height="20.0" fill="#08080a"/><text x="177.0" y="166.0" fill="#ffffff" style="font-family: &quot;JetBrains Mono&quot;, &quot;Menlo&quot;, &quot;Consolas&quot;, &quot;DejaVu Sans Mono&quot;, &quot;Liberation Mono&quot;, &quot;Roboto Mono&quot;, &quot;Noto Sans Mono&quot;, monospace; font-size: 12.0px;" text-anchor="middle" dominant-baseline="central">0a08</text></g></g></g><g data-channel="color-bar"><g data-color-bar-rank="0" data-color-bar-band="K"><rect x="1" y="1" width="20.0" height="102.10430652955313" fill="#000000"/><text x="11.0" y="100.46430652955313" fill="#ffffff" style="font-family: &quot;JetBrains Mono&quot;, &quot;Menlo&quot;, &quot;Consolas&quot;, &quot;DejaVu Sans Mono&quot;, &quot;Liberation Mono&quot;, &quot;Roboto Mono&quot;, &quot;Noto Sans Mono&quot;, monospace; font-size: 12.0px;" text-anchor="middle" data-color-bar-letter="true">k</text></g><g data-color-bar-rank="1" data-color-bar-band="G"><rect x="1" y="103.10430652955313" width="20.0" height="45.00696489429118" fill="#e7be00"/><text x="11.0" y="145.4712714238443" fill="#000000" style="font-family: &quot;JetBrains Mono&quot;, &quot;Menlo&quot;, &quot;Consolas&quot;, &quot;DejaVu Sans Mono&quot;, &quot;Liberation Mono&quot;, &quot;Roboto Mono&quot;, &quot;Noto Sans Mono&quot;, monospace; font-size: 12.0px;" text-anchor="middle" data-color-bar-letter="true">g</text></g><g data-color-bar-rank="2" data-color-bar-band="W"><rect x="1" y="148.1112714238443" width="20.0" height="26.842067167542492" fill="#ffffff"/><text x="11.0" y="172.3133385913868" fill="#000000" style="font-family: &quot;JetBrains Mono&quot;, &quot;Menlo&quot;, &quot;Consolas&quot;, &quot;DejaVu Sans Mono&quot;, &quot;Liberation Mono&quot;, &quot;Roboto Mono&quot;, &quot;Noto Sans Mono&quot;, monospace; font-size: 12.0px;" text-anchor="middle" data-color-bar-letter="true">w</text></g><g data-color-bar-rank="3" data-color-bar-band="B"><rect x="1" y="174.9533385913868" width="20.0" height="16.046661408613204" fill="#2f3fbf"/><text x="11.0" y="188.36" fill="#ffffff" style="font-family: &quot;JetBrains Mono&quot;, &quot;Menlo&quot;, &quot;Consolas&quot;, &quot;DejaVu Sans Mono&quot;, &quot;Liberation Mono&quot;, &quot;Roboto Mono&quot;, &quot;Noto Sans Mono&quot;, monospace; font-size: 12.0px;" text-anchor="middle" data-color-bar-letter="true">b</text></g></g><g data-channel="label-top"><text x="27.0" y="16.0" fill="#666666" style="font-family: &quot;JetBrains Mono&quot;, &quot;Menlo&quot;, &quot;Consolas&quot;, &quot;DejaVu Sans Mono&quot;, &quot;Liberation Mono&quot;, &quot;Roboto Mono&quot;, &quot;Noto Sans Mono&quot;, monospace; font-size: 12.0px;" dominant-baseline="central">hex(64):</text></g><line x1="0" y1="0.5" x2="213.0" y2="0.5" stroke="#808080" stroke-width="1" shape-rendering="crispEdges"/><line x1="212.5" y1="0" x2="212.5" y2="192.0" stroke="#808080" stroke-width="1" shape-rendering="crispEdges"/><line x1="0" y1="191.5" x2="213.0" y2="191.5" stroke="#808080" stroke-width="1" shape-rendering="crispEdges"/><line x1="0.5" y1="0" x2="0.5" y2="192.0" stroke="#808080" stroke-width="1" shape-rendering="crispEdges"/><line x1="21.5" y1="0" x2="21.5" y2="192.0" stroke="#808080" stroke-width="1" shape-rendering="crispEdges"/></svg>