<svg width="425" height="384" viewBox="0 0 425 384" xmlns="http://www.w3.org/2000/svg" font-family="&quot;JetBrains Mono&quot;, &quot;Menlo&quot;, &quot;Consolas&quot;, &quot;DejaVu Sans Mono&quot;, &quot;Liberation Mono&quot;, &quot;Roboto Mono&quot;, &quot;Noto Sans Mono&quot;, monospace" data-entviz-version="v13" data-entviz-lib="0.13.0" data-input-bytes="64" data-cols="3" data-rows="4" data-encoding="hex" data-scheme="" data-role="" data-size-basis="decoded" data-entropy-type="hex" data-size-bits="256" data-qualifiers="{}" data-parts="[{&quot;text&quot;:&quot;9f86d081884c7d659a2feaa0c55ad015a3bf4f1b2b0b822cd15d6c15b0f00a08&quot;,&quot;bind&quot;:&quot;core&quot;}]"><defs><clipPath id="grid-clip-286f37dd952ff65e-3x4"><rect x="53" y="52" width="360" height="320"/></clipPath></defs><rect x="1" y="1" width="423" height="382" fill="#ffffff"/><g data-channel="grid"><rect x="53" y="52" width="360" height="320" fill="#ff3f2f"/><g><path fill="#000000" d="M53 52h12v20h-12zM65 52h12v20h-12zM77 52h12v20h-12zM101 52h12v20h-12zM113 52h12v20h-12zM149 52h12v20h-12zM161 52h12v20h-12zM161 72h12v20h-12zM161 92h12v20h-12zM149 112h12v20h-12zM137 112h12v20h-12zM77 112h12v20h-12zM53 112h12v20h-12z"/><path fill="#2f3fbf" d="M173 52h12v20h-12zM185 52h12v20h-12zM197 52h12v20h-12zM209 52h12v20h-12zM233 52h12v20h-12zM269 52h12v20h-12zM281 72h12v20h-12zM281 112h12v20h-12zM245 112h12v20h-12zM233 112h12v20h-12zM209 112h12v20h-12zM197 112h12v20h-12zM185 112h12v20h-12zM173 92h12v20h-12zM173 72h12v20h-12z"/><path fill="#000000" d="M293 52h12v20h-12zM305 52h12v20h-12zM317 52h12v20h-12zM341 52h12v20h-12zM353 52h12v20h-12zM365 52h12v20h-12zM377 52h12v20h-12zM401 52h12v20h-12zM401 72h12v20h-12zM401 92h12v20h-12zM401 112h12v20h-12zM377 112h12v20h-12zM341 112h12v20h-12zM329 112h12v20h-12zM305 112h12v20h-12zM293 112h12v20h-12zM293 92h12v20h-12zM293 72h12v20h-12z"/><path fill="#e7be00" d="M53 132h12v20h-12zM125 132h12v20h-12zM137 132h12v20h-12zM149 132h12v20h-12zM161 152h12v20h-12zM161 172h12v20h-12zM161 192h12v20h-12zM149 192h12v20h-12zM137 192h12v20h-12zM125 192h12v20h-12zM113 192h12v20h-12zM101 192h12v20h-12zM89 192h12v20h-12zM77 192h12v20h-12zM65 192h12v20h-12zM53 172h12v20h-12z"/><path fill="#2f3fbf" d="M173 132h12v20h-12zM185 132h12v20h-12zM209 132h12v20h-12zM221 132h12v20h-12zM233 132h12v20h-12zM269 132h12v20h-12zM281 132h12v20h-12zM281 152h12v20h-12zM269 192h12v20h-12zM257 192h12v20h-12zM245 192h12v20h-12zM233 192h12v20h-12zM221 192h12v20h-12zM173 152h12v20h-12z"/><path fill="#e7be00" d="M293 132h12v20h-12zM341 132h12v20h-12zM389 132h12v20h-12zM389 192h12v20h-12zM377 192h12v20h-12zM365 192h12v20h-12zM353 192h12v20h-12zM341 192h12v20h-12zM305 192h12v20h-12zM293 192h12v20h-12z"/><path fill="#000000" d="M53 212h12v20h-12zM77 212h12v20h-12zM113 212h12v20h-12zM125 212h12v20h-12zM149 212h12v20h-12zM161 272h12v20h-12zM137 272h12v20h-12zM125 272h12v20h-12zM65 272h12v20h-12zM53 252h12v20h-12zM53 232h12v20h-12z"/><path fill="#000000" d="M305 212h12v20h-12zM317 212h12v20h-12zM341 212h12v20h-12zM365 212h12v20h-12zM389 212h12v20h-12zM401 212h12v20h-12zM401 272h12v20h-12zM389 272h12v20h-12zM329 272h12v20h-12zM317 272h12v20h-12zM293 272h12v20h-12z"/><path fill="#2f3fbf" d="M77 292h12v20h-12zM101 292h12v20h-12zM125 292h12v20h-12zM161 312h12v20h-12zM161 332h12v20h-12zM161 352h12v20h-12zM149 352h12v20h-12zM125 352h12v20h-12zM89 352h12v20h-12zM53 352h12v20h-12zM53 332h12v20h-12zM53 312h12v20h-12z"/><path fill="#e7be00" d="M173 292h12v20h-12zM185 292h12v20h-12zM233 292h12v20h-12zM257 292h12v20h-12zM281 312h12v20h-12zM281 352h12v20h-12zM233 352h12v20h-12zM221 352h12v20h-12zM209 352h12v20h-12zM173 332h12v20h-12zM173 312h12v20h-12z"/><path fill="#000000" d="M293 292h12v20h-12zM305 292h12v20h-12zM365 292h12v20h-12zM377 292h12v20h-12zM401 332h12v20h-12zM401 352h12v20h-12zM389 352h12v20h-12zM377 352h12v20h-12zM365 352h12v20h-12zM353 352h12v20h-12zM329 352h12v20h-12zM317 352h12v20h-12zM293 332h12v20h-12z"/></g><g clip-path="url(#grid-clip-286f37dd952ff65e-3x4)" data-channel="ellipse" data-ellipse-anchor-x="293" data-ellipse-anchor-y="212" data-ellipse-rx="118.839" data-ellipse-ry="118.839" data-ellipse-rotation-deg="96"><ellipse cx="293" cy="212" rx="118.839" ry="118.839" transform="rotate(96 293 212)" fill="#000000" stroke="#000000" fill-opacity="0.25" stroke-opacity="0.35" stroke-width="4"/></g><g><g data-channel="cell" data-cell-index="0" data-cell-row="0" data-cell-col="0" data-surround-bits="0x286f37" data-edge-color="#000000"><rect x="65" y="72" width="96" height="40" fill="#d0869f"/><text x="113" y="92" fill="#000000" font-size="24" text-anchor="middle" dominant-baseline="central">9f86d0</text></g><g data-channel="cell" data-cell-index="1" data-cell-row="0" data-cell-col="1" data-surround-bits="0xdd952f" data-edge-color="#2f3fbf"><rect x="185" y="72" width="96" height="40" fill="#4c8881"/><text x="233" y="92" fill="#ffffff" font-size="24" text-anchor="middle" dominant-baseline="central">81884c</text></g><g data-channel="cell" data-cell-index="2" data-cell-row="0" data-cell-col="2" data-surround-bits="0xf65ef7" data-edge-color="#000000" data-cell-quartile="1"><rect x="305" y="72" width="96" height="40" fill="#9a657d"/><text x="353" y="92" fill="#ffffff" font-size="24" text-anchor="middle" dominant-baseline="central">7d659a</text><polygon points="305,72 325,72 305,92" fill="#ffffff"/></g><g data-channel="cell" data-cell-index="3" data-cell-row="1" data-cell-col="0" data-surround-bits="0x5ffdc1" data-edge-color="#e7be00" data-cell-quartile="2"><rect x="65" y="152" width="96" height="40" fill="#a0ea2f"/><text x="113" y="172" fill="#000000" font-size="24" text-anchor="middle" dominant-baseline="central">2feaa0</text><polygon points="161,152 141,152 161,172" fill="#000000"/></g><g data-channel="cell" data-cell-index="4" data-cell-row="1" data-cell-col="1" data-surround-bits="0x83e73b" data-edge-color="#2f3fbf"><rect x="185" y="152" width="96" height="40" fill="#d05ac5"/><text x="233" y="172" fill="#000000" font-size="24" text-anchor="middle" dominant-baseline="central">c55ad0</text></g><g data-channel="cell" data-cell-index="5" data-cell-row="1" data-cell-col="2" data-surround-bits="0x33e111" data-edge-color="#e7be00"><rect x="305" y="152" width="96" height="40" fill="#bfa315"/><text x="353" y="172" fill="#000000" font-size="24" text-anchor="middle" dominant-baseline="central">15a3bf</text></g><g data-channel="cell" data-cell-index="6" data-cell-row="2" data-cell-col="0" data-surround-bits="0xd0d165" data-edge-color="#000000" data-cell-quartile="4"><rect x="65" y="232" width="96" height="40" fill="#2b1b4f"/><text x="113" y="252" fill="#ffffff" font-size="24" text-anchor="middle" dominant-baseline="central">4f1b2b</text><polygon points="65,272 65,252 85,272" fill="#ffffff"/></g><g data-channel="cell" data-cell-index="7" data-cell-row="2" data-cell-col="1" data-cell-blank="true" data-cell-blank-map="true"><rect x="185" y="232" width="96" height="40" rx="20" ry="20" fill="#000000" stroke="#000000" stroke-width="1"/><circle cx="201" cy="237" r="7" fill="#ffffff" data-blank-map-min="0,0"/><path d="M 256.6,237 H 273.4 M 265,228.6 V 245.4" fill="none" stroke="#ffffff" stroke-width="3.85" stroke-linecap="butt" data-blank-map-max="0,2"/></g><g data-channel="cell" data-cell-index="8" data-cell-row="2" data-cell-col="2" data-surround-bits="0x2c3356" data-edge-color="#000000"><rect x="305" y="232" width="96" height="40" fill="#2c820b"/><text x="353" y="252" fill="#ffffff" font-size="24" text-anchor="middle" dominant-baseline="central">0b822c</text></g><g data-channel="cell" data-cell-index="9" data-cell-row="3" data-cell-col="0" data-surround-bits="0xe4bc54" data-edge-color="#2f3fbf" data-cell-quartile="3"><rect x="65" y="312" width="96" height="40" fill="#6c5dd1"/><text x="113" y="332" fill="#ffffff" font-size="24" text-anchor="middle" dominant-baseline="central">d15d6c</text><polygon points="161,352 161,332 141,352" fill="#ffffff"/></g><g data-channel="cell" data-cell-index="10" data-cell-row="3" data-cell-col="1" data-surround-bits="0xc714a3" data-edge-color="#e7be00"><rect x="185" y="312" width="96" height="40" fill="#f0b015"/><text x="233" y="332" fill="#000000" font-size="24" text-anchor="middle" dominant-baseline="central">15b0f0</text></g><g data-channel="cell" data-cell-index="11" data-cell-row="3" data-cell-col="2" data-surround-bits="0x4df8c3" data-edge-color="#000000"><rect x="305" y="312" width="96" height="40" fill="#08080a"/><text x="353" y="332" fill="#ffffff" font-size="24" text-anchor="middle" dominant-baseline="central">0a08</text></g></g></g><g data-channel="color-bar" data-bar-slots="16" data-bar-marker-left="2" data-bar-marker-right="14"><g data-color-bar-rank="0" data-color-bar-band="W"><rect x="2" y="2" width="40" height="53.684" fill="#ffffff"/><text x="22" y="50.404" fill="#000000" font-size="24" text-anchor="middle" data-color-bar-letter="true">w</text></g><g data-color-bar-rank="1" data-color-bar-band="B"><rect x="2" y="55.684" width="40" height="32.093" fill="#2f3fbf"/><text x="22" y="82.497" fill="#ffffff" font-size="24" text-anchor="middle" data-color-bar-letter="true">b</text></g><g data-color-bar-rank="2" data-color-bar-band="K"><rect x="2" y="87.777" width="40" height="204.209" fill="#000000"/><text x="22" y="286.706" fill="#ffffff" font-size="24" text-anchor="middle" data-color-bar-letter="true">k</text></g><g data-color-bar-rank="3" data-color-bar-band="G"><rect x="2" y="291.986" width="40" height="90.014" fill="#e7be00"/><text x="22" y="376.72" fill="#000000" font-size="24" text-anchor="middle" data-color-bar-letter="true">g</text></g><circle cx="11.2" cy="61.375" r="6.8" fill="#ffffff" stroke="#000000" stroke-width="0.75" data-bar-marker="left"/><circle cx="32.8" cy="346.375" r="6.8" fill="#ffffff" stroke="#000000" stroke-width="0.75" data-bar-marker="right"/></g><g data-channel="label-top"><text x="53" y="32" fill="#666666" font-size="24" dominant-baseline="central">hex(64):</text></g><line x1="1" y1="1.5" x2="424" y2="1.5" stroke="#808080" stroke-width="1" shape-rendering="crispEdges"/><line x1="423.5" y1="1" x2="423.5" y2="383" stroke="#808080" stroke-width="1" shape-rendering="crispEdges"/><line x1="1" y1="382.5" x2="424" y2="382.5" stroke="#808080" stroke-width="1" shape-rendering="crispEdges"/><line x1="1.5" y1="1" x2="1.5" y2="383" stroke="#808080" stroke-width="1" shape-rendering="crispEdges"/><line x1="42.5" y1="1" x2="42.5" y2="383" stroke="#808080" stroke-width="1" shape-rendering="crispEdges"/></svg>