<svg width="423.0" height="382.0" viewBox="0 0 423.0 382.0" xmlns="http://www.w3.org/2000/svg" data-entviz-version="v8" data-entviz-lib="0.7.2" data-input-bytes="64" data-cols="3" data-rows="4"><defs><clipPath id="grid-clip-286f37dd952ff65e-3x4"><rect x="52.0" y="51.0" width="360.0" height="320.0"/></clipPath></defs><rect x="0" y="0" width="423.0" height="382.0" fill="#ffffff"/><g data-channel="grid"><rect x="52.0" y="51.0" width="360.0" height="320.0" fill="#ff3f2f"/><g><rect x="52.0" y="51.0" width="12.0" height="20.0" fill="#2f3fbf"/><rect x="64.0" y="51.0" width="12.0" height="20.0" fill="#2f3fbf"/><rect x="76.0" y="51.0" width="12.0" height="20.0" fill="#2f3fbf"/><rect x="100.0" y="51.0" width="12.0" height="20.0" fill="#2f3fbf"/><rect x="112.0" y="51.0" width="12.0" height="20.0" fill="#2f3fbf"/><rect x="148.0" y="51.0" width="12.0" height="20.0" fill="#2f3fbf"/><rect x="160.0" y="51.0" width="12.0" height="20.0" fill="#2f3fbf"/><rect x="160.0" y="71.0" width="12.0" height="20.0" fill="#2f3fbf"/><rect x="160.0" y="91.0" width="12.0" height="20.0" fill="#2f3fbf"/><rect x="148.0" y="111.0" width="12.0" height="20.0" fill="#2f3fbf"/><rect x="136.0" y="111.0" width="12.0" height="20.0" fill="#2f3fbf"/><rect x="76.0" y="111.0" width="12.0" height="20.0" fill="#2f3fbf"/><rect x="52.0" y="111.0" width="12.0" height="20.0" fill="#2f3fbf"/><rect x="172.0" y="51.0" width="12.0" height="20.0" fill="#2f3fbf"/><rect x="184.0" y="51.0" width="12.0" height="20.0" fill="#2f3fbf"/><rect x="196.0" y="51.0" width="12.0" height="20.0" fill="#2f3fbf"/><rect x="208.0" y="51.0" width="12.0" height="20.0" fill="#2f3fbf"/><rect x="232.0" y="51.0" width="12.0" height="20.0" fill="#2f3fbf"/><rect x="268.0" y="51.0" width="12.0" height="20.0" fill="#2f3fbf"/><rect x="280.0" y="71.0" width="12.0" height="20.0" fill="#2f3fbf"/><rect x="280.0" y="111.0" width="12.0" height="20.0" fill="#2f3fbf"/><rect x="244.0" y="111.0" width="12.0" height="20.0" fill="#2f3fbf"/><rect x="232.0" y="111.0" width="12.0" height="20.0" fill="#2f3fbf"/><rect x="208.0" y="111.0" width="12.0" height="20.0" fill="#2f3fbf"/><rect x="196.0" y="111.0" width="12.0" height="20.0" fill="#2f3fbf"/><rect x="184.0" y="111.0" width="12.0" height="20.0" fill="#2f3fbf"/><rect x="172.0" y="91.0" width="12.0" height="20.0" fill="#2f3fbf"/><rect x="172.0" y="71.0" width="12.0" height="20.0" fill="#2f3fbf"/><rect x="292.0" y="51.0" width="12.0" height="20.0" fill="#2f3fbf"/><rect x="304.0" y="51.0" width="12.0" height="20.0" fill="#2f3fbf"/><rect x="316.0" y="51.0" width="12.0" height="20.0" fill="#2f3fbf"/><rect x="340.0" y="51.0" width="12.0" height="20.0" fill="#2f3fbf"/><rect x="352.0" y="51.0" width="12.0" height="20.0" fill="#2f3fbf"/><rect x="364.0" y="51.0" width="12.0" height="20.0" fill="#2f3fbf"/><rect x="376.0" y="51.0" width="12.0" height="20.0" fill="#2f3fbf"/><rect x="400.0" y="51.0" width="12.0" height="20.0" fill="#2f3fbf"/><rect x="400.0" y="71.0" width="12.0" height="20.0" fill="#2f3fbf"/><rect x="400.0" y="91.0" width="12.0" height="20.0" fill="#2f3fbf"/><rect x="400.0" y="111.0" width="12.0" height="20.0" fill="#2f3fbf"/><rect x="376.0" y="111.0" width="12.0" height="20.0" fill="#2f3fbf"/><rect x="340.0" y="111.0" width="12.0" height="20.0" fill="#2f3fbf"/><rect x="328.0" y="111.0" width="12.0" height="20.0" fill="#2f3fbf"/><rect x="304.0" y="111.0" width="12.0" height="20.0" fill="#2f3fbf"/><rect x="292.0" y="111.0" width="12.0" height="20.0" fill="#2f3fbf"/><rect x="292.0" y="91.0" width="12.0" height="20.0" fill="#2f3fbf"/><rect x="292.0" y="71.0" width="12.0" height="20.0" fill="#2f3fbf"/><rect x="52.0" y="131.0" width="12.0" height="20.0" fill="#e7be00"/><rect x="124.0" y="131.0" width="12.0" height="20.0" fill="#e7be00"/><rect x="136.0" y="131.0" width="12.0" height="20.0" fill="#e7be00"/><rect x="148.0" y="131.0" width="12.0" height="20.0" fill="#e7be00"/><rect x="160.0" y="151.0" width="12.0" height="20.0" fill="#e7be00"/><rect x="160.0" y="171.0" width="12.0" height="20.0" fill="#e7be00"/><rect x="160.0" y="191.0" width="12.0" height="20.0" fill="#e7be00"/><rect x="148.0" y="191.0" width="12.0" height="20.0" fill="#e7be00"/><rect x="136.0" y="191.0" width="12.0" height="20.0" fill="#e7be00"/><rect x="124.0" y="191.0" width="12.0" height="20.0" fill="#e7be00"/><rect x="112.0" y="191.0" width="12.0" height="20.0" fill="#e7be00"/><rect x="100.0" y="191.0" width="12.0" height="20.0" fill="#e7be00"/><rect x="88.0" y="191.0" width="12.0" height="20.0" fill="#e7be00"/><rect x="76.0" y="191.0" width="12.0" height="20.0" fill="#e7be00"/><rect x="64.0" y="191.0" width="12.0" height="20.0" fill="#e7be00"/><rect x="52.0" y="171.0" width="12.0" height="20.0" fill="#e7be00"/><rect x="172.0" y="131.0" width="12.0" height="20.0" fill="#2f3fbf"/><rect x="184.0" y="131.0" width="12.0" height="20.0" fill="#2f3fbf"/><rect x="208.0" y="131.0" width="12.0" height="20.0" fill="#2f3fbf"/><rect x="220.0" y="131.0" width="12.0" height="20.0" fill="#2f3fbf"/><rect x="232.0" y="131.0" width="12.0" height="20.0" fill="#2f3fbf"/><rect x="268.0" y="131.0" width="12.0" height="20.0" fill="#2f3fbf"/><rect x="280.0" y="131.0" width="12.0" height="20.0" fill="#2f3fbf"/><rect x="280.0" y="151.0" width="12.0" height="20.0" fill="#2f3fbf"/><rect x="268.0" y="191.0" width="12.0" height="20.0" fill="#2f3fbf"/><rect x="256.0" y="191.0" width="12.0" height="20.0" fill="#2f3fbf"/><rect x="244.0" y="191.0" width="12.0" height="20.0" fill="#2f3fbf"/><rect x="232.0" y="191.0" width="12.0" height="20.0" fill="#2f3fbf"/><rect x="220.0" y="191.0" width="12.0" height="20.0" fill="#2f3fbf"/><rect x="172.0" y="151.0" width="12.0" height="20.0" fill="#2f3fbf"/><rect x="292.0" y="131.0" width="12.0" height="20.0" fill="#e7be00"/><rect x="340.0" y="131.0" width="12.0" height="20.0" fill="#e7be00"/><rect x="388.0" y="131.0" width="12.0" height="20.0" fill="#e7be00"/><rect x="388.0" y="191.0" width="12.0" height="20.0" fill="#e7be00"/><rect x="376.0" y="191.0" width="12.0" height="20.0" fill="#e7be00"/><rect x="364.0" y="191.0" width="12.0" height="20.0" fill="#e7be00"/><rect x="352.0" y="191.0" width="12.0" height="20.0" fill="#e7be00"/><rect x="340.0" y="191.0" width="12.0" height="20.0" fill="#e7be00"/><rect x="304.0" y="191.0" width="12.0" height="20.0" fill="#e7be00"/><rect x="292.0" y="191.0" width="12.0" height="20.0" fill="#e7be00"/><rect x="52.0" y="211.0" width="12.0" height="20.0" fill="#000000"/><rect x="76.0" y="211.0" width="12.0" height="20.0" fill="#000000"/><rect x="112.0" y="211.0" width="12.0" height="20.0" fill="#000000"/><rect x="124.0" y="211.0" width="12.0" height="20.0" fill="#000000"/><rect x="148.0" y="211.0" width="12.0" height="20.0" fill="#000000"/><rect x="160.0" y="271.0" width="12.0" height="20.0" fill="#000000"/><rect x="136.0" y="271.0" width="12.0" height="20.0" fill="#000000"/><rect x="124.0" y="271.0" width="12.0" height="20.0" fill="#000000"/><rect x="64.0" y="271.0" width="12.0" height="20.0" fill="#000000"/><rect x="52.0" y="251.0" width="12.0" height="20.0" fill="#000000"/><rect x="52.0" y="231.0" width="12.0" height="20.0" fill="#000000"/><rect x="304.0" y="211.0" width="12.0" height="20.0" fill="#000000"/><rect x="316.0" y="211.0" width="12.0" height="20.0" fill="#000000"/><rect x="340.0" y="211.0" width="12.0" height="20.0" fill="#000000"/><rect x="364.0" y="211.0" width="12.0" height="20.0" fill="#000000"/><rect x="388.0" y="211.0" width="12.0" height="20.0" fill="#000000"/><rect x="400.0" y="211.0" width="12.0" height="20.0" fill="#000000"/><rect x="400.0" y="271.0" width="12.0" height="20.0" fill="#000000"/><rect x="388.0" y="271.0" width="12.0" height="20.0" fill="#000000"/><rect x="328.0" y="271.0" width="12.0" height="20.0" fill="#000000"/><rect x="316.0" y="271.0" width="12.0" height="20.0" fill="#000000"/><rect x="292.0" y="271.0" width="12.0" height="20.0" fill="#000000"/><rect x="76.0" y="291.0" width="12.0" height="20.0" fill="#2f3fbf"/><rect x="100.0" y="291.0" width="12.0" height="20.0" fill="#2f3fbf"/><rect x="124.0" y="291.0" width="12.0" height="20.0" fill="#2f3fbf"/><rect x="160.0" y="311.0" width="12.0" height="20.0" fill="#2f3fbf"/><rect x="160.0" y="331.0" width="12.0" height="20.0" fill="#2f3fbf"/><rect x="160.0" y="351.0" width="12.0" height="20.0" fill="#2f3fbf"/><rect x="148.0" y="351.0" width="12.0" height="20.0" fill="#2f3fbf"/><rect x="124.0" y="351.0" width="12.0" height="20.0" fill="#2f3fbf"/><rect x="88.0" y="351.0" width="12.0" height="20.0" fill="#2f3fbf"/><rect x="52.0" y="351.0" width="12.0" height="20.0" fill="#2f3fbf"/><rect x="52.0" y="331.0" width="12.0" height="20.0" fill="#2f3fbf"/><rect x="52.0" y="311.0" width="12.0" height="20.0" fill="#2f3fbf"/><rect x="172.0" y="291.0" width="12.0" height="20.0" fill="#e7be00"/><rect x="184.0" y="291.0" width="12.0" height="20.0" fill="#e7be00"/><rect x="232.0" y="291.0" width="12.0" height="20.0" fill="#e7be00"/><rect x="256.0" y="291.0" width="12.0" height="20.0" fill="#e7be00"/><rect x="280.0" y="311.0" width="12.0" height="20.0" fill="#e7be00"/><rect x="280.0" y="351.0" width="12.0" height="20.0" fill="#e7be00"/><rect x="232.0" y="351.0" width="12.0" height="20.0" fill="#e7be00"/><rect x="220.0" y="351.0" width="12.0" height="20.0" fill="#e7be00"/><rect x="208.0" y="351.0" width="12.0" height="20.0" fill="#e7be00"/><rect x="172.0" y="331.0" width="12.0" height="20.0" fill="#e7be00"/><rect x="172.0" y="311.0" width="12.0" height="20.0" fill="#e7be00"/><rect x="292.0" y="291.0" width="12.0" height="20.0" fill="#000000"/><rect x="304.0" y="291.0" width="12.0" height="20.0" fill="#000000"/><rect x="364.0" y="291.0" width="12.0" height="20.0" fill="#000000"/><rect x="376.0" y="291.0" width="12.0" height="20.0" fill="#000000"/><rect x="400.0" y="331.0" width="12.0" height="20.0" fill="#000000"/><rect x="400.0" y="351.0" width="12.0" height="20.0" fill="#000000"/><rect x="388.0" y="351.0" width="12.0" height="20.0" fill="#000000"/><rect x="376.0" y="351.0" width="12.0" height="20.0" fill="#000000"/><rect x="364.0" y="351.0" width="12.0" height="20.0" fill="#000000"/><rect x="352.0" y="351.0" width="12.0" height="20.0" fill="#000000"/><rect x="328.0" y="351.0" width="12.0" height="20.0" fill="#000000"/><rect x="316.0" y="351.0" width="12.0" height="20.0" fill="#000000"/><rect x="292.0" y="331.0" width="12.0" height="20.0" fill="#000000"/></g><g clip-path="url(#grid-clip-286f37dd952ff65e-3x4)" data-channel="ellipse" data-ellipse-anchor-x="292.0" data-ellipse-anchor-y="211.0" data-ellipse-rx="118.83897003929309" data-ellipse-ry="118.83897003929309" data-ellipse-rotation-deg="96.0"><ellipse cx="292.0" cy="211.0" rx="118.83897003929309" ry="118.83897003929309" transform="rotate(96.0 292.0 211.0)" fill="#000000" stroke="#000000" fill-opacity="0.25" stroke-opacity="0.35" stroke-width="4.0"/></g><g><g data-channel="cell" data-cell-index="0" data-cell-row="0" data-cell-col="0"><rect x="64.0" y="71.0" width="96.0" height="40.0" fill="#d0869f"/><text x="112.0" y="91.0" fill="#000000" style="font-family: &quot;JetBrains Mono&quot;, &quot;Menlo&quot;, &quot;Consolas&quot;, &quot;DejaVu Sans Mono&quot;, &quot;Liberation Mono&quot;, &quot;Roboto Mono&quot;, &quot;Noto Sans Mono&quot;, monospace; font-size: 24.0px;" text-anchor="middle" dominant-baseline="central">9f86d0</text></g><g data-channel="cell" data-cell-index="1" data-cell-row="0" data-cell-col="1"><rect x="184.0" y="71.0" width="96.0" height="40.0" fill="#4c8881"/><text x="232.0" y="91.0" fill="#ffffff" style="font-family: &quot;JetBrains Mono&quot;, &quot;Menlo&quot;, &quot;Consolas&quot;, &quot;DejaVu Sans Mono&quot;, &quot;Liberation Mono&quot;, &quot;Roboto Mono&quot;, &quot;Noto Sans Mono&quot;, monospace; font-size: 24.0px;" text-anchor="middle" dominant-baseline="central">81884c</text></g><g data-channel="cell" data-cell-index="2" data-cell-row="0" data-cell-col="2" data-cell-quartile="1"><rect x="304.0" y="71.0" width="96.0" height="40.0" fill="#9a657d"/><text x="352.0" y="91.0" fill="#ffffff" style="font-family: &quot;JetBrains Mono&quot;, &quot;Menlo&quot;, &quot;Consolas&quot;, &quot;DejaVu Sans Mono&quot;, &quot;Liberation Mono&quot;, &quot;Roboto Mono&quot;, &quot;Noto Sans Mono&quot;, monospace; font-size: 24.0px;" text-anchor="middle" dominant-baseline="central">7d659a</text><polygon points="304.0,71.0 324.0,71.0 304.0,91.0" fill="#ffffff"/></g><g data-channel="cell" data-cell-index="3" data-cell-row="1" data-cell-col="0" data-cell-quartile="2"><rect x="64.0" y="151.0" width="96.0" height="40.0" fill="#a0ea2f"/><text x="112.0" y="171.0" fill="#000000" style="font-family: &quot;JetBrains Mono&quot;, &quot;Menlo&quot;, &quot;Consolas&quot;, &quot;DejaVu Sans Mono&quot;, &quot;Liberation Mono&quot;, &quot;Roboto Mono&quot;, &quot;Noto Sans Mono&quot;, monospace; font-size: 24.0px;" text-anchor="middle" dominant-baseline="central">2feaa0</text><polygon points="160.0,151.0 140.0,151.0 160.0,171.0" fill="#000000"/></g><g data-channel="cell" data-cell-index="4" data-cell-row="1" data-cell-col="1"><rect x="184.0" y="151.0" width="96.0" height="40.0" fill="#d05ac5"/><text x="232.0" y="171.0" fill="#000000" style="font-family: &quot;JetBrains Mono&quot;, &quot;Menlo&quot;, &quot;Consolas&quot;, &quot;DejaVu Sans Mono&quot;, &quot;Liberation Mono&quot;, &quot;Roboto Mono&quot;, &quot;Noto Sans Mono&quot;, monospace; font-size: 24.0px;" text-anchor="middle" dominant-baseline="central">c55ad0</text></g><g data-channel="cell" data-cell-index="5" data-cell-row="1" data-cell-col="2"><rect x="304.0" y="151.0" width="96.0" height="40.0" fill="#bfa315"/><text x="352.0" y="171.0" fill="#000000" style="font-family: &quot;JetBrains Mono&quot;, &quot;Menlo&quot;, &quot;Consolas&quot;, &quot;DejaVu Sans Mono&quot;, &quot;Liberation Mono&quot;, &quot;Roboto Mono&quot;, &quot;Noto Sans Mono&quot;, monospace; font-size: 24.0px;" text-anchor="middle" dominant-baseline="central">15a3bf</text></g><g data-channel="cell" data-cell-index="6" data-cell-row="2" data-cell-col="0" data-cell-quartile="4"><rect x="64.0" y="231.0" width="96.0" height="40.0" fill="#2b1b4f"/><text x="112.0" y="251.0" fill="#ffffff" style="font-family: &quot;JetBrains Mono&quot;, &quot;Menlo&quot;, &quot;Consolas&quot;, &quot;DejaVu Sans Mono&quot;, &quot;Liberation Mono&quot;, &quot;Roboto Mono&quot;, &quot;Noto Sans Mono&quot;, monospace; font-size: 24.0px;" text-anchor="middle" dominant-baseline="central">4f1b2b</text><polygon points="64.0,271.0 64.0,251.0 84.0,271.0" fill="#ffffff"/></g><g data-channel="cell" data-cell-index="7" data-cell-row="2" data-cell-col="1" data-cell-blank="true" data-cell-blank-map="true"><rect x="184.0" y="231.0" width="96.0" height="40.0" rx="20.0" ry="20.0" fill="#ffffff" stroke="#000000" stroke-width="1"/><circle cx="200.0" cy="236.0" r="7.0" fill="#1d4ed8" data-blank-map-min="0,0"/><path d="M 255.6,236.0 H 272.4 M 264.0,227.6 V 244.4" fill="none" stroke="#d62828" stroke-width="3.8500000000000005" stroke-linecap="butt" data-blank-map-max="0,2"/></g><g data-channel="cell" data-cell-index="8" data-cell-row="2" data-cell-col="2"><rect x="304.0" y="231.0" width="96.0" height="40.0" fill="#2c820b"/><text x="352.0" y="251.0" fill="#ffffff" style="font-family: &quot;JetBrains Mono&quot;, &quot;Menlo&quot;, &quot;Consolas&quot;, &quot;DejaVu Sans Mono&quot;, &quot;Liberation Mono&quot;, &quot;Roboto Mono&quot;, &quot;Noto Sans Mono&quot;, monospace; font-size: 24.0px;" text-anchor="middle" dominant-baseline="central">0b822c</text></g><g data-channel="cell" data-cell-index="9" data-cell-row="3" data-cell-col="0" data-cell-quartile="3"><rect x="64.0" y="311.0" width="96.0" height="40.0" fill="#6c5dd1"/><text x="112.0" y="331.0" fill="#ffffff" style="font-family: &quot;JetBrains Mono&quot;, &quot;Menlo&quot;, &quot;Consolas&quot;, &quot;DejaVu Sans Mono&quot;, &quot;Liberation Mono&quot;, &quot;Roboto Mono&quot;, &quot;Noto Sans Mono&quot;, monospace; font-size: 24.0px;" text-anchor="middle" dominant-baseline="central">d15d6c</text><polygon points="160.0,351.0 160.0,331.0 140.0,351.0" fill="#ffffff"/></g><g data-channel="cell" data-cell-index="10" data-cell-row="3" data-cell-col="1"><rect x="184.0" y="311.0" width="96.0" height="40.0" fill="#f0b015"/><text x="232.0" y="331.0" fill="#000000" style="font-family: &quot;JetBrains Mono&quot;, &quot;Menlo&quot;, &quot;Consolas&quot;, &quot;DejaVu Sans Mono&quot;, &quot;Liberation Mono&quot;, &quot;Roboto Mono&quot;, &quot;Noto Sans Mono&quot;, monospace; font-size: 24.0px;" text-anchor="middle" dominant-baseline="central">15b0f0</text></g><g data-channel="cell" data-cell-index="11" data-cell-row="3" data-cell-col="2"><rect x="304.0" y="311.0" width="96.0" height="40.0" fill="#08080a"/><text x="352.0" y="331.0" fill="#ffffff" style="font-family: &quot;JetBrains Mono&quot;, &quot;Menlo&quot;, &quot;Consolas&quot;, &quot;DejaVu Sans Mono&quot;, &quot;Liberation Mono&quot;, &quot;Roboto Mono&quot;, &quot;Noto Sans Mono&quot;, monospace; font-size: 24.0px;" text-anchor="middle" dominant-baseline="central">0a08</text></g></g></g><g data-channel="color-bar"><g data-color-bar-rank="0" data-color-bar-band="K"><rect x="1" y="1" width="40.0" height="204.20861305910626" fill="#000000"/><text x="21.0" y="199.92861305910625" fill="#ffffff" style="font-family: &quot;JetBrains Mono&quot;, &quot;Menlo&quot;, &quot;Consolas&quot;, &quot;DejaVu Sans Mono&quot;, &quot;Liberation Mono&quot;, &quot;Roboto Mono&quot;, &quot;Noto Sans Mono&quot;, monospace; font-size: 24.0px;" text-anchor="middle" data-color-bar-letter="true">k</text></g><g data-color-bar-rank="1" data-color-bar-band="G"><rect x="1" y="205.20861305910626" width="40.0" height="90.01392978858236" fill="#e7be00"/><text x="21.0" y="289.9425428476886" fill="#000000" style="font-family: &quot;JetBrains Mono&quot;, &quot;Menlo&quot;, &quot;Consolas&quot;, &quot;DejaVu Sans Mono&quot;, &quot;Liberation Mono&quot;, &quot;Roboto Mono&quot;, &quot;Noto Sans Mono&quot;, monospace; font-size: 24.0px;" text-anchor="middle" data-color-bar-letter="true">g</text></g><g data-color-bar-rank="2" data-color-bar-band="W"><rect x="1" y="295.2225428476886" width="40.0" height="53.684134335084984" fill="#ffffff"/><text x="21.0" y="343.6266771827736" fill="#000000" style="font-family: &quot;JetBrains Mono&quot;, &quot;Menlo&quot;, &quot;Consolas&quot;, &quot;DejaVu Sans Mono&quot;, &quot;Liberation Mono&quot;, &quot;Roboto Mono&quot;, &quot;Noto Sans Mono&quot;, monospace; font-size: 24.0px;" text-anchor="middle" data-color-bar-letter="true">w</text></g><g data-color-bar-rank="3" data-color-bar-band="B"><rect x="1" y="348.9066771827736" width="40.0" height="32.09332281722641" fill="#2f3fbf"/><text x="21.0" y="375.72" fill="#ffffff" style="font-family: &quot;JetBrains Mono&quot;, &quot;Menlo&quot;, &quot;Consolas&quot;, &quot;DejaVu Sans Mono&quot;, &quot;Liberation Mono&quot;, &quot;Roboto Mono&quot;, &quot;Noto Sans Mono&quot;, monospace; font-size: 24.0px;" text-anchor="middle" data-color-bar-letter="true">b</text></g></g><g data-channel="label-top"><text x="52.0" y="31.0" fill="#666666" style="font-family: &quot;JetBrains Mono&quot;, &quot;Menlo&quot;, &quot;Consolas&quot;, &quot;DejaVu Sans Mono&quot;, &quot;Liberation Mono&quot;, &quot;Roboto Mono&quot;, &quot;Noto Sans Mono&quot;, monospace; font-size: 24.0px;" dominant-baseline="central">hex(64):</text></g><line x1="0" y1="0.5" x2="423.0" y2="0.5" stroke="#808080" stroke-width="1" shape-rendering="crispEdges"/><line x1="422.5" y1="0" x2="422.5" y2="382.0" stroke="#808080" stroke-width="1" shape-rendering="crispEdges"/><line x1="0" y1="381.5" x2="423.0" y2="381.5" stroke="#808080" stroke-width="1" shape-rendering="crispEdges"/><line x1="0.5" y1="0" x2="0.5" y2="382.0" stroke="#808080" stroke-width="1" shape-rendering="crispEdges"/><line x1="41.5" y1="0" x2="41.5" y2="382.0" stroke="#808080" stroke-width="1" shape-rendering="crispEdges"/></svg>