<svg width="215" height="154" viewBox="0 0 215 154" xmlns="http://www.w3.org/2000/svg" font-family="&quot;JetBrains Mono&quot;, &quot;Menlo&quot;, &quot;Consolas&quot;, &quot;DejaVu Sans Mono&quot;, &quot;Liberation Mono&quot;, &quot;Roboto Mono&quot;, &quot;Noto Sans Mono&quot;, monospace" data-entviz-version="v15" data-entviz-lib="0.15.2" data-input-bytes="26" data-cols="3" data-rows="3" data-encoding="crockford32" data-scheme="ulid" data-role="identifier" data-size-basis="decoded" data-entropy-type="ulid" data-size-bits="128" data-qualifiers="{}" data-parts="[{&quot;text&quot;:&quot;01ARZ3NDEKTSV4RRFFQ69G5FAV&quot;,&quot;bind&quot;:&quot;core&quot;}]"><defs><clipPath id="grid-clip-7154c6d615fe7973-3x3"><rect x="28" y="27" width="180" height="120"/></clipPath></defs><rect x="1" y="1" width="213" height="152" fill="#ffffff"/><g data-channel="grid"><rect x="28" y="27" width="180" height="120" fill="#2f3fbf"/><g><path fill="#ff3f2f" d="M34 27h6v10h-6zM40 27h6v10h-6zM64 27h6v10h-6zM70 27h6v10h-6zM82 37h6v10h-6zM82 57h6v10h-6zM70 57h6v10h-6zM58 57h6v10h-6zM34 57h6v10h-6zM28 57h6v10h-6zM28 47h6v10h-6z"/><path fill="#ff3f2f" d="M94 27h6v10h-6zM100 27h6v10h-6zM106 27h6v10h-6zM112 27h6v10h-6zM118 27h6v10h-6zM124 27h6v10h-6zM130 27h6v10h-6zM136 27h6v10h-6zM142 37h6v10h-6zM142 57h6v10h-6zM112 57h6v10h-6zM106 57h6v10h-6zM94 57h6v10h-6zM88 47h6v10h-6zM88 37h6v10h-6z"/><path fill="#e7be00" d="M34 67h6v10h-6zM52 67h6v10h-6zM64 67h6v10h-6zM70 67h6v10h-6zM76 67h6v10h-6zM82 67h6v10h-6zM82 97h6v10h-6zM76 97h6v10h-6zM70 97h6v10h-6zM58 97h6v10h-6zM40 97h6v10h-6zM34 97h6v10h-6zM28 97h6v10h-6zM28 87h6v10h-6z"/><path fill="#ff3f2f" d="M88 67h6v10h-6zM100 67h6v10h-6zM106 67h6v10h-6zM118 67h6v10h-6zM124 67h6v10h-6zM142 67h6v10h-6zM142 77h6v10h-6zM136 97h6v10h-6zM124 97h6v10h-6zM112 97h6v10h-6zM100 97h6v10h-6zM94 97h6v10h-6zM88 97h6v10h-6zM88 87h6v10h-6zM88 77h6v10h-6z"/><path fill="#e7be00" d="M154 67h6v10h-6zM160 67h6v10h-6zM172 67h6v10h-6zM178 67h6v10h-6zM184 67h6v10h-6zM196 67h6v10h-6zM202 77h6v10h-6zM202 87h6v10h-6zM190 97h6v10h-6zM184 97h6v10h-6zM178 97h6v10h-6zM166 97h6v10h-6zM154 97h6v10h-6zM148 87h6v10h-6zM148 77h6v10h-6z"/><path fill="#ff3f2f" d="M28 107h6v10h-6zM40 107h6v10h-6zM52 107h6v10h-6zM70 107h6v10h-6zM76 107h6v10h-6zM70 137h6v10h-6zM58 137h6v10h-6zM46 137h6v10h-6zM40 137h6v10h-6zM34 137h6v10h-6zM28 127h6v10h-6z"/><path fill="#000000" d="M148 107h6v10h-6zM154 107h6v10h-6zM190 107h6v10h-6zM196 107h6v10h-6zM202 107h6v10h-6zM202 137h6v10h-6zM184 137h6v10h-6zM178 137h6v10h-6zM166 137h6v10h-6zM160 137h6v10h-6z"/></g><g clip-path="url(#grid-clip-7154c6d615fe7973-3x3)" data-channel="ellipse" data-ellipse-anchor-x="28" data-ellipse-anchor-y="67" data-ellipse-rx="85.882" data-ellipse-ry="76.427" data-ellipse-rotation-deg="0"><ellipse cx="28" cy="67" rx="85.882" ry="76.427" transform="rotate(0 28 67)" fill="#ffffff" stroke="#ffffff" fill-opacity="0.35" stroke-opacity="0.45" stroke-width="2"/></g><g><g data-channel="cell" data-cell-index="0" data-cell-row="0" data-cell-col="0" data-surround-bits="0x7154c6" data-edge-color="#ff3f2f"><rect x="34" y="37" width="48" height="20" fill="#885500"/><text x="58" y="47" fill="#ffffff" font-size="16" text-anchor="middle" dominant-baseline="central">01AR</text></g><g data-channel="cell" data-cell-index="1" data-cell-row="0" data-cell-col="1" data-surround-bits="0xd615fe" data-edge-color="#ff3f2f" data-cell-quartile="1"><rect x="94" y="37" width="48" height="20" fill="#ddeaf8"/><text x="118" y="47" fill="#000000" font-size="16" text-anchor="middle" dominant-baseline="central">Z3ND</text><polygon points="94,37 104,37 94,47" fill="#000000"/></g><g data-channel="cell" data-cell-index="2" data-cell-row="0" data-cell-col="2" data-cell-blank="true" data-cell-blank-map="true"><rect x="154" y="37" width="48" height="20" rx="10" ry="10" fill="#ffffff" stroke="#000000" stroke-width="1"/><circle cx="194" cy="53.667" r="3.5" fill="#1d4ed8" data-blank-map-min="2,2"/><path d="M 173.8,47 H 182.2 M 178,42.8 V 51.2" fill="none" stroke="#d62828" stroke-width="1.925" stroke-linecap="butt" data-blank-map-max="1,1"/></g><g data-channel="cell" data-cell-index="3" data-cell-row="1" data-cell-col="0" data-surround-bits="0x7973d2" data-edge-color="#e7be00" data-cell-quartile="3"><rect x="34" y="77" width="48" height="20" fill="#99f574"/><text x="58" y="87" fill="#000000" font-size="16" text-anchor="middle" dominant-baseline="central">EKTS</text><polygon points="82,97 82,87 72,97" fill="#000000"/></g><g data-channel="cell" data-cell-index="4" data-cell-row="1" data-cell-col="1" data-surround-bits="0xfaa66d" data-edge-color="#ff3f2f" data-cell-quartile="4"><rect x="94" y="77" width="48" height="20" fill="#8831d9"/><text x="118" y="87" fill="#ffffff" font-size="16" text-anchor="middle" dominant-baseline="central">V4RR</text><polygon points="94,97 94,87 104,97" fill="#ffffff"/></g><g data-channel="cell" data-cell-index="5" data-cell-row="1" data-cell-col="2" data-surround-bits="0xd5cd76" data-edge-color="#e7be00"><rect x="154" y="77" width="48" height="20" fill="#66ee7b"/><text x="178" y="87" fill="#000000" font-size="16" text-anchor="middle" dominant-baseline="central">FFQ6</text></g><g data-channel="cell" data-cell-index="6" data-cell-row="2" data-cell-col="0" data-surround-bits="0x5d4195" data-edge-color="#ff3f2f"><rect x="34" y="117" width="48" height="20" fill="#ff0a4c"/><text x="58" y="127" fill="#000000" font-size="16" text-anchor="middle" dominant-baseline="central">9G5F</text></g><g data-channel="cell" data-cell-index="7" data-cell-row="2" data-cell-col="1" data-cell-blank="true"><rect x="94" y="117" width="48" height="20" rx="10" ry="10" fill="#000000" stroke="#000000" stroke-width="1"/></g><g data-channel="cell" data-cell-index="8" data-cell-row="2" data-cell-col="2" data-surround-bits="0xd9383" data-edge-color="#000000" data-cell-quartile="2"><rect x="154" y="117" width="48" height="20" fill="#bbd556"/><text x="178" y="127" fill="#000000" font-size="16" text-anchor="middle" dominant-baseline="central">AV</text><polygon points="202,117 192,117 202,127" fill="#000000"/></g></g></g><g data-channel="color-bar" data-bar-slots="12" data-bar-marker-left="11" data-bar-marker-right="7"><g data-color-bar-rank="0" data-color-bar-band="G"><rect x="2" y="2" width="20" height="65.979" fill="#e7be00"/><text x="12" y="64.459" fill="#000000" font-size="16" text-anchor="middle" data-color-bar-letter="true">g</text></g><g data-color-bar-rank="1" data-color-bar-band="W"><rect x="2" y="67.979" width="20" height="22.012" fill="#ffffff"/><text x="12" y="86.47" fill="#000000" font-size="16" text-anchor="middle" data-color-bar-letter="true">w</text></g><g data-color-bar-rank="2" data-color-bar-band="K"><rect x="2" y="89.99" width="20" height="34.985" fill="#000000"/><text x="12" y="121.455" fill="#ffffff" font-size="16" text-anchor="middle" data-color-bar-letter="true">k</text></g><g data-color-bar-rank="3" data-color-bar-band="R"><rect x="2" y="124.975" width="20" height="27.025" fill="#ff3f2f"/><text x="12" y="148.48" fill="#000000" font-size="16" text-anchor="middle" data-color-bar-letter="true">r</text></g><circle cx="6.6" cy="145.75" r="3.4" fill="#ffffff" stroke="#000000" stroke-width="0.75" data-bar-marker="left"/><circle cx="17.4" cy="95.75" r="3.4" fill="#ffffff" stroke="#000000" stroke-width="0.75" data-bar-marker="right"/></g><g data-channel="label-top"><text x="28" y="17" fill="#666666" font-size="12" dominant-baseline="central">ULID</text></g><line x1="1" y1="1.5" x2="214" y2="1.5" stroke="#808080" stroke-width="1" shape-rendering="crispEdges"/><line x1="213.5" y1="1" x2="213.5" y2="153" stroke="#808080" stroke-width="1" shape-rendering="crispEdges"/><line x1="1" y1="152.5" x2="214" y2="152.5" stroke="#808080" stroke-width="1" shape-rendering="crispEdges"/><line x1="1.5" y1="1" x2="1.5" y2="153" stroke="#808080" stroke-width="1" shape-rendering="crispEdges"/><line x1="22.5" y1="1" x2="22.5" y2="153" stroke="#808080" stroke-width="1" shape-rendering="crispEdges"/></svg>