<svg width="203.0" height="157.0" viewBox="0 0 203.0 157.0" xmlns="http://www.w3.org/2000/svg" data-entviz-version="v5" data-input-bytes="42" data-cols="3" data-rows="3"><defs><clipPath id="grid-clip-c3948808cf358488-3x3"><rect x="17.0" y="31.0" width="180.0" height="120.0"/></clipPath></defs><rect x="0" y="0" width="203.0" height="157.0" fill="#ffffff"/><g data-channel="grid"><rect x="17.0" y="31.0" width="180.0" height="120.0" fill="#ffffff"/><g><rect x="95.0" y="31.0" width="6.0" height="10.0" fill="#2f3fbf"/><rect x="119.0" y="31.0" width="6.0" height="10.0" fill="#2f3fbf"/><rect x="131.0" y="41.0" width="6.0" height="10.0" fill="#2f3fbf"/><rect x="131.0" y="61.0" width="6.0" height="10.0" fill="#2f3fbf"/><rect x="113.0" y="61.0" width="6.0" height="10.0" fill="#2f3fbf"/><rect x="107.0" y="61.0" width="6.0" height="10.0" fill="#2f3fbf"/><rect x="101.0" y="61.0" width="6.0" height="10.0" fill="#2f3fbf"/><rect x="77.0" y="51.0" width="6.0" height="10.0" fill="#2f3fbf"/><rect x="77.0" y="41.0" width="6.0" height="10.0" fill="#2f3fbf"/><rect x="137.0" y="31.0" width="6.0" height="10.0" fill="#2f3fbf"/><rect x="149.0" y="31.0" width="6.0" height="10.0" fill="#2f3fbf"/><rect x="161.0" y="31.0" width="6.0" height="10.0" fill="#2f3fbf"/><rect x="167.0" y="31.0" width="6.0" height="10.0" fill="#2f3fbf"/><rect x="185.0" y="31.0" width="6.0" height="10.0" fill="#2f3fbf"/><rect x="191.0" y="31.0" width="6.0" height="10.0" fill="#2f3fbf"/><rect x="191.0" y="41.0" width="6.0" height="10.0" fill="#2f3fbf"/><rect x="191.0" y="51.0" width="6.0" height="10.0" fill="#2f3fbf"/><rect x="179.0" y="61.0" width="6.0" height="10.0" fill="#2f3fbf"/><rect x="173.0" y="61.0" width="6.0" height="10.0" fill="#2f3fbf"/><rect x="149.0" y="61.0" width="6.0" height="10.0" fill="#2f3fbf"/><rect x="17.0" y="71.0" width="6.0" height="10.0" fill="#2f3fbf"/><rect x="23.0" y="71.0" width="6.0" height="10.0" fill="#2f3fbf"/><rect x="29.0" y="71.0" width="6.0" height="10.0" fill="#2f3fbf"/><rect x="35.0" y="71.0" width="6.0" height="10.0" fill="#2f3fbf"/><rect x="47.0" y="71.0" width="6.0" height="10.0" fill="#2f3fbf"/><rect x="71.0" y="91.0" width="6.0" height="10.0" fill="#2f3fbf"/><rect x="53.0" y="101.0" width="6.0" height="10.0" fill="#2f3fbf"/><rect x="35.0" y="101.0" width="6.0" height="10.0" fill="#2f3fbf"/><rect x="17.0" y="81.0" width="6.0" height="10.0" fill="#2f3fbf"/><rect x="77.0" y="71.0" width="6.0" height="10.0" fill="#ffd966"/><rect x="83.0" y="71.0" width="6.0" height="10.0" fill="#ffd966"/><rect x="95.0" y="71.0" width="6.0" height="10.0" fill="#ffd966"/><rect x="119.0" y="71.0" width="6.0" height="10.0" fill="#ffd966"/><rect x="131.0" y="71.0" width="6.0" height="10.0" fill="#ffd966"/><rect x="131.0" y="81.0" width="6.0" height="10.0" fill="#ffd966"/><rect x="125.0" y="101.0" width="6.0" height="10.0" fill="#ffd966"/><rect x="119.0" y="101.0" width="6.0" height="10.0" fill="#ffd966"/><rect x="107.0" y="101.0" width="6.0" height="10.0" fill="#ffd966"/><rect x="83.0" y="101.0" width="6.0" height="10.0" fill="#ffd966"/><rect x="185.0" y="71.0" width="6.0" height="10.0" fill="#ffd966"/><rect x="185.0" y="101.0" width="6.0" height="10.0" fill="#ffd966"/><rect x="179.0" y="101.0" width="6.0" height="10.0" fill="#ffd966"/><rect x="173.0" y="101.0" width="6.0" height="10.0" fill="#ffd966"/><rect x="167.0" y="101.0" width="6.0" height="10.0" fill="#ffd966"/><rect x="137.0" y="101.0" width="6.0" height="10.0" fill="#ffd966"/><rect x="137.0" y="81.0" width="6.0" height="10.0" fill="#ffd966"/><rect x="23.0" y="111.0" width="6.0" height="10.0" fill="#2f3fbf"/><rect x="29.0" y="111.0" width="6.0" height="10.0" fill="#2f3fbf"/><rect x="41.0" y="111.0" width="6.0" height="10.0" fill="#2f3fbf"/><rect x="59.0" y="111.0" width="6.0" height="10.0" fill="#2f3fbf"/><rect x="65.0" y="111.0" width="6.0" height="10.0" fill="#2f3fbf"/><rect x="71.0" y="141.0" width="6.0" height="10.0" fill="#2f3fbf"/><rect x="29.0" y="141.0" width="6.0" height="10.0" fill="#2f3fbf"/><rect x="155.0" y="111.0" width="6.0" height="10.0" fill="#2f3fbf"/><rect x="167.0" y="111.0" width="6.0" height="10.0" fill="#2f3fbf"/><rect x="173.0" y="111.0" width="6.0" height="10.0" fill="#2f3fbf"/><rect x="185.0" y="111.0" width="6.0" height="10.0" fill="#2f3fbf"/><rect x="191.0" y="111.0" width="6.0" height="10.0" fill="#2f3fbf"/><rect x="191.0" y="121.0" width="6.0" height="10.0" fill="#2f3fbf"/><rect x="191.0" y="131.0" width="6.0" height="10.0" fill="#2f3fbf"/><rect x="191.0" y="141.0" width="6.0" height="10.0" fill="#2f3fbf"/><rect x="185.0" y="141.0" width="6.0" height="10.0" fill="#2f3fbf"/><rect x="167.0" y="141.0" width="6.0" height="10.0" fill="#2f3fbf"/><rect x="161.0" y="141.0" width="6.0" height="10.0" fill="#2f3fbf"/><rect x="155.0" y="141.0" width="6.0" height="10.0" fill="#2f3fbf"/><rect x="137.0" y="141.0" width="6.0" height="10.0" fill="#2f3fbf"/><rect x="137.0" y="131.0" width="6.0" height="10.0" fill="#2f3fbf"/></g><g clip-path="url(#grid-clip-c3948808cf358488-3x3)" data-channel="ellipse" data-ellipse-anchor-x="197.0" data-ellipse-anchor-y="31.0" data-ellipse-rx="125.31092278708219" data-ellipse-ry="78.77769217594644" data-ellipse-rotation-deg="84.0"><ellipse cx="197.0" cy="31.0" rx="125.31092278708219" ry="78.77769217594644" transform="rotate(84.0 197.0 31.0)" fill="#000000" fill-opacity="0.2"/></g><g><g data-channel="cell" data-cell-index="0" data-cell-row="0" data-cell-col="0" data-cell-blank="true" data-cell-blank-marker="true"><circle cx="47.0" cy="51.0" r="17.0" fill="#ffffff" stroke="#000000" stroke-width="1"/><line x1="47.0" y1="51.0" x2="65.0" y2="51.0" stroke="#ffffff" style="mix-blend-mode: difference" stroke-width="1"/><line x1="47.0" y1="51.0" x2="47.0" y2="59.5" stroke="#000000" stroke-width="1"/><circle cx="47.0" cy="59.5" r="1.5" fill="#ffffff" stroke="#000000" stroke-width="1"/></g><g data-channel="cell" data-cell-index="1" data-cell-row="0" data-cell-col="1" data-cell-quartile="2"><rect x="83.0" y="41.0" width="48.0" height="20.0" fill="#352d74"/><text x="107.0" y="51.0" fill="#ffffff" style="font-family: &quot;DejaVu Sans Mono&quot;, &quot;Consolas&quot;, &quot;Menlo&quot;, &quot;Liberation Mono&quot;, monospace; font-size: 12.0px;" text-anchor="middle" dominant-baseline="central">742d35</text><polygon points="131.0,41.0 121.0,41.0 131.0,51.0" fill="#ffffff"/></g><g data-channel="cell" data-cell-index="2" data-cell-row="0" data-cell-col="2" data-cell-quartile="1"><rect x="143.0" y="41.0" width="48.0" height="20.0" fill="#3466cc"/><text x="167.0" y="51.0" fill="#ffffff" style="font-family: &quot;DejaVu Sans Mono&quot;, &quot;Consolas&quot;, &quot;Menlo&quot;, &quot;Liberation Mono&quot;, monospace; font-size: 12.0px;" text-anchor="middle" dominant-baseline="central">cc6634</text><polygon points="143.0,41.0 153.0,41.0 143.0,51.0" fill="#ffffff"/></g><g data-channel="cell" data-cell-index="3" data-cell-row="1" data-cell-col="0" data-cell-quartile="4"><rect x="23.0" y="81.0" width="48.0" height="20.0" fill="#2953c0"/><text x="47.0" y="91.0" fill="#ffffff" style="font-family: &quot;DejaVu Sans Mono&quot;, &quot;Consolas&quot;, &quot;Menlo&quot;, &quot;Liberation Mono&quot;, monospace; font-size: 12.0px;" text-anchor="middle" dominant-baseline="central">c05329</text><polygon points="23.0,101.0 23.0,91.0 33.0,101.0" fill="#ffffff"/></g><g data-channel="cell" data-cell-index="4" data-cell-row="1" data-cell-col="1"><rect x="83.0" y="81.0" width="48.0" height="20.0" fill="#b8a325"/><text x="107.0" y="91.0" fill="#000000" style="font-family: &quot;DejaVu Sans Mono&quot;, &quot;Consolas&quot;, &quot;Menlo&quot;, &quot;Liberation Mono&quot;, monospace; font-size: 12.0px;" text-anchor="middle" dominant-baseline="central">25a3b8</text></g><g data-channel="cell" data-cell-index="5" data-cell-row="1" data-cell-col="2"><rect x="143.0" y="81.0" width="48.0" height="20.0" fill="#45bc44"/><text x="167.0" y="91.0" fill="#000000" style="font-family: &quot;DejaVu Sans Mono&quot;, &quot;Consolas&quot;, &quot;Menlo&quot;, &quot;Liberation Mono&quot;, monospace; font-size: 12.0px;" text-anchor="middle" dominant-baseline="central">44bc45</text></g><g data-channel="cell" data-cell-index="6" data-cell-row="2" data-cell-col="0" data-cell-quartile="3"><rect x="23.0" y="121.0" width="48.0" height="20.0" fill="#38444e"/><text x="47.0" y="131.0" fill="#ffffff" style="font-family: &quot;DejaVu Sans Mono&quot;, &quot;Consolas&quot;, &quot;Menlo&quot;, &quot;Liberation Mono&quot;, monospace; font-size: 12.0px;" text-anchor="middle" dominant-baseline="central">4e4438</text><polygon points="71.0,141.0 71.0,131.0 61.0,141.0" fill="#ffffff"/></g><g data-channel="cell" data-cell-index="7" data-cell-row="2" data-cell-col="1" data-cell-blank="true" data-cell-blank-marker="true"><circle cx="107.0" cy="131.0" r="17.0" fill="#ffffff" stroke="#000000" stroke-width="1"/><line x1="107.0" y1="131.0" x2="107.0" y2="113.0" stroke="#ffffff" style="mix-blend-mode: difference" stroke-width="1"/><line x1="107.0" y1="131.0" x2="98.5" y2="131.0" stroke="#000000" stroke-width="1"/><circle cx="98.5" cy="131.0" r="1.5" fill="#ffffff" stroke="#000000" stroke-width="1"/></g><g data-channel="cell" data-cell-index="8" data-cell-row="2" data-cell-col="2"><rect x="143.0" y="121.0" width="48.0" height="20.0" fill="#4e4ef4"/><text x="167.0" y="131.0" fill="#ffffff" style="font-family: &quot;DejaVu Sans Mono&quot;, &quot;Consolas&quot;, &quot;Menlo&quot;, &quot;Liberation Mono&quot;, monospace; font-size: 12.0px;" text-anchor="middle" dominant-baseline="central">f44e</text></g></g></g><g data-channel="color-bar"><g data-color-bar-rank="0" data-color-bar-band="R"><rect x="1" y="1" width="10.0" height="73.59071377620812" fill="#ff3f2f"/><text x="6.0" y="37.79535688810406" fill="#000000" style="font-family: &quot;DejaVu Sans Mono&quot;, &quot;Consolas&quot;, &quot;Menlo&quot;, &quot;Liberation Mono&quot;, monospace; font-size: 44px;" text-anchor="middle" dominant-baseline="central" data-color-bar-letter="true">R</text></g><g data-color-bar-rank="1" data-color-bar-band="G"><rect x="1" y="74.59071377620812" width="10.0" height="35.12206243032059" fill="#ffd966"/><text x="6.0" y="92.15174499136842" fill="#000000" style="font-family: &quot;DejaVu Sans Mono&quot;, &quot;Consolas&quot;, &quot;Menlo&quot;, &quot;Liberation Mono&quot;, monospace; font-size: 21px;" text-anchor="middle" dominant-baseline="central" data-color-bar-letter="true">G</text></g><g data-color-bar-rank="2" data-color-bar-band="K"><rect x="1" y="109.7127762065287" width="10.0" height="27.130957192001034" fill="#000000"/><text x="6.0" y="123.27825480252922" fill="#ffffff" style="font-family: &quot;DejaVu Sans Mono&quot;, &quot;Consolas&quot;, &quot;Menlo&quot;, &quot;Liberation Mono&quot;, monospace; font-size: 16px;" text-anchor="middle" dominant-baseline="central" data-color-bar-letter="true">K</text></g><g data-color-bar-rank="3" data-color-bar-band="B"><rect x="1" y="136.84373339852974" width="10.0" height="19.156266601470264" fill="#2f3fbf"/><text x="6.0" y="146.42186669926485" fill="#ffffff" style="font-family: &quot;DejaVu Sans Mono&quot;, &quot;Consolas&quot;, &quot;Menlo&quot;, &quot;Liberation Mono&quot;, monospace; font-size: 11px;" text-anchor="middle" dominant-baseline="central" data-color-bar-letter="true">B</text></g></g><g data-channel="label-top"><text x="17.0" y="16.0" fill="#666666" style="font-family: &quot;DejaVu Sans Mono&quot;, &quot;Consolas&quot;, &quot;Menlo&quot;, &quot;Liberation Mono&quot;, monospace; font-size: 12.0px;" dominant-baseline="central">ETH: 0x...</text></g><line x1="0" y1="0.5" x2="203.0" y2="0.5" stroke="#808080" stroke-width="1" shape-rendering="crispEdges"/><line x1="202.5" y1="0" x2="202.5" y2="157.0" stroke="#808080" stroke-width="1" shape-rendering="crispEdges"/><line x1="0" y1="156.5" x2="203.0" y2="156.5" stroke="#808080" stroke-width="1" shape-rendering="crispEdges"/><line x1="0.5" y1="0" x2="0.5" y2="157.0" stroke="#808080" stroke-width="1" shape-rendering="crispEdges"/><line x1="11.5" y1="0" x2="11.5" y2="157.0" stroke="#808080" stroke-width="1" shape-rendering="crispEdges"/></svg>