<svg width="203.0" height="157.0" xmlns="http://www.w3.org/2000/svg"><defs><clipPath id="grid-clip-4a04e4c8-3x3"><rect x="17.0" y="31.0" width="180.0" height="120.0"/></clipPath></defs><rect x="0" y="0" width="203.0" height="157.0" fill="#ffffff"/><rect x="17.0" y="31.0" width="180.0" height="120.0" fill="#ff3f2f"/><rect x="29.0" y="31.0" width="6.0" height="10.0" fill="#2f3fbf"/><rect x="47.0" y="31.0" width="6.0" height="10.0" fill="#2f3fbf"/><rect x="53.0" y="31.0" width="6.0" height="10.0" fill="#2f3fbf"/><rect x="59.0" y="31.0" width="6.0" height="10.0" fill="#2f3fbf"/><rect x="71.0" y="41.0" width="6.0" height="10.0" fill="#2f3fbf"/><rect x="41.0" y="61.0" width="6.0" height="10.0" fill="#2f3fbf"/><rect x="29.0" y="61.0" width="6.0" height="10.0" fill="#2f3fbf"/><rect x="17.0" y="51.0" width="6.0" height="10.0" fill="#2f3fbf"/><rect x="137.0" y="31.0" width="6.0" height="10.0" fill="#2f3fbf"/><rect x="167.0" y="31.0" width="6.0" height="10.0" fill="#2f3fbf"/><rect x="179.0" y="31.0" width="6.0" height="10.0" fill="#2f3fbf"/><rect x="185.0" y="31.0" width="6.0" height="10.0" fill="#2f3fbf"/><rect x="191.0" y="31.0" width="6.0" height="10.0" fill="#2f3fbf"/><rect x="191.0" y="61.0" width="6.0" height="10.0" fill="#2f3fbf"/><rect x="173.0" y="61.0" width="6.0" height="10.0" fill="#2f3fbf"/><rect x="149.0" y="61.0" width="6.0" height="10.0" fill="#2f3fbf"/><rect x="137.0" y="51.0" width="6.0" height="10.0" fill="#2f3fbf"/><rect x="137.0" y="41.0" width="6.0" height="10.0" fill="#2f3fbf"/><rect x="29.0" y="71.0" width="6.0" height="10.0" fill="#2f3fbf"/><rect x="41.0" y="71.0" width="6.0" height="10.0" fill="#2f3fbf"/><rect x="59.0" y="71.0" width="6.0" height="10.0" fill="#2f3fbf"/><rect x="65.0" y="71.0" width="6.0" height="10.0" fill="#2f3fbf"/><rect x="71.0" y="71.0" width="6.0" height="10.0" fill="#2f3fbf"/><rect x="71.0" y="81.0" width="6.0" height="10.0" fill="#2f3fbf"/><rect x="71.0" y="101.0" width="6.0" height="10.0" fill="#2f3fbf"/><rect x="65.0" y="101.0" width="6.0" height="10.0" fill="#2f3fbf"/><rect x="53.0" y="101.0" width="6.0" height="10.0" fill="#2f3fbf"/><rect x="41.0" y="101.0" width="6.0" height="10.0" fill="#2f3fbf"/><rect x="35.0" y="101.0" width="6.0" height="10.0" fill="#2f3fbf"/><rect x="17.0" y="91.0" width="6.0" height="10.0" fill="#2f3fbf"/><rect x="17.0" y="81.0" width="6.0" height="10.0" fill="#2f3fbf"/><rect x="83.0" y="71.0" width="6.0" height="10.0" fill="#ffd966"/><rect x="89.0" y="71.0" width="6.0" height="10.0" fill="#ffd966"/><rect x="107.0" y="71.0" width="6.0" height="10.0" fill="#ffd966"/><rect x="113.0" y="71.0" width="6.0" height="10.0" fill="#ffd966"/><rect x="119.0" y="71.0" width="6.0" height="10.0" fill="#ffd966"/><rect x="131.0" y="91.0" width="6.0" height="10.0" fill="#ffd966"/><rect x="113.0" y="101.0" width="6.0" height="10.0" fill="#ffd966"/><rect x="101.0" y="101.0" width="6.0" height="10.0" fill="#ffd966"/><rect x="95.0" y="101.0" width="6.0" height="10.0" fill="#ffd966"/><rect x="89.0" y="101.0" width="6.0" height="10.0" fill="#ffd966"/><rect x="83.0" y="101.0" width="6.0" height="10.0" fill="#ffd966"/><rect x="23.0" y="111.0" width="6.0" height="10.0" fill="#ffd966"/><rect x="29.0" y="111.0" width="6.0" height="10.0" fill="#ffd966"/><rect x="35.0" y="111.0" width="6.0" height="10.0" fill="#ffd966"/><rect x="41.0" y="111.0" width="6.0" height="10.0" fill="#ffd966"/><rect x="47.0" y="111.0" width="6.0" height="10.0" fill="#ffd966"/><rect x="53.0" y="111.0" width="6.0" height="10.0" fill="#ffd966"/><rect x="59.0" y="111.0" width="6.0" height="10.0" fill="#ffd966"/><rect x="71.0" y="111.0" width="6.0" height="10.0" fill="#ffd966"/><rect x="71.0" y="121.0" width="6.0" height="10.0" fill="#ffd966"/><rect x="53.0" y="141.0" width="6.0" height="10.0" fill="#ffd966"/><rect x="47.0" y="141.0" width="6.0" height="10.0" fill="#ffd966"/><rect x="41.0" y="141.0" width="6.0" height="10.0" fill="#ffd966"/><rect x="35.0" y="141.0" width="6.0" height="10.0" fill="#ffd966"/><rect x="29.0" y="141.0" width="6.0" height="10.0" fill="#ffd966"/><rect x="17.0" y="121.0" width="6.0" height="10.0" fill="#ffd966"/><rect x="95.0" y="111.0" width="6.0" height="10.0" fill="#2f3fbf"/><rect x="101.0" y="111.0" width="6.0" height="10.0" fill="#2f3fbf"/><rect x="113.0" y="111.0" width="6.0" height="10.0" fill="#2f3fbf"/><rect x="125.0" y="111.0" width="6.0" height="10.0" fill="#2f3fbf"/><rect x="131.0" y="111.0" width="6.0" height="10.0" fill="#2f3fbf"/><rect x="131.0" y="131.0" width="6.0" height="10.0" fill="#2f3fbf"/><rect x="131.0" y="141.0" width="6.0" height="10.0" fill="#2f3fbf"/><rect x="125.0" y="141.0" width="6.0" height="10.0" fill="#2f3fbf"/><rect x="113.0" y="141.0" width="6.0" height="10.0" fill="#2f3fbf"/><rect x="101.0" y="141.0" width="6.0" height="10.0" fill="#2f3fbf"/><rect x="95.0" y="141.0" width="6.0" height="10.0" fill="#2f3fbf"/><rect x="89.0" y="141.0" width="6.0" height="10.0" fill="#2f3fbf"/><rect x="149.0" y="111.0" width="6.0" height="10.0" fill="#2f3fbf"/><rect x="161.0" y="111.0" width="6.0" height="10.0" fill="#2f3fbf"/><rect x="179.0" y="111.0" width="6.0" height="10.0" fill="#2f3fbf"/><rect x="185.0" y="111.0" width="6.0" height="10.0" fill="#2f3fbf"/><rect x="191.0" y="121.0" width="6.0" height="10.0" fill="#2f3fbf"/><rect x="173.0" y="141.0" width="6.0" height="10.0" fill="#2f3fbf"/><rect x="167.0" y="141.0" width="6.0" height="10.0" fill="#2f3fbf"/><rect x="155.0" y="141.0" width="6.0" height="10.0" fill="#2f3fbf"/><rect x="143.0" y="141.0" width="6.0" height="10.0" fill="#2f3fbf"/><rect x="137.0" y="121.0" width="6.0" height="10.0" fill="#2f3fbf"/><g clip-path="url(#grid-clip-4a04e4c8-3x3)"><ellipse cx="197.0" cy="111.0" rx="78.79086241436883" ry="117.58172482873768" transform="rotate(168.0 197.0 111.0)" fill="#000000" fill-opacity="0.4"/></g><rect x="23.0" y="41.0" width="48.0" height="20.0" fill="#352d74"/><text x="47.0" y="51.0" fill="#ffffff" style="font-family: monospace; font-size: 12.0px;" text-anchor="middle" dominant-baseline="central">742d35</text><rect x="143.0" y="41.0" width="48.0" height="20.0" fill="#3466cc"/><text x="167.0" y="51.0" fill="#ffffff" style="font-family: monospace; font-size: 12.0px;" text-anchor="middle" dominant-baseline="central">CC6634</text><rect x="23.0" y="81.0" width="48.0" height="20.0" fill="#2953c0"/><text x="47.0" y="91.0" fill="#ffffff" style="font-family: monospace; font-size: 12.0px;" text-anchor="middle" dominant-baseline="central">C05329</text><rect x="83.0" y="81.0" width="48.0" height="20.0" fill="#b8a325"/><text x="107.0" y="91.0" fill="#000000" style="font-family: monospace; font-size: 12.0px;" text-anchor="middle" dominant-baseline="central">25a3b8</text><rect x="23.0" y="121.0" width="48.0" height="20.0" fill="#45bc44"/><text x="47.0" y="131.0" fill="#000000" style="font-family: monospace; font-size: 12.0px;" text-anchor="middle" dominant-baseline="central">44bc45</text><rect x="83.0" y="121.0" width="48.0" height="20.0" fill="#38444e"/><text x="107.0" y="131.0" fill="#ffffff" style="font-family: monospace; font-size: 12.0px;" text-anchor="middle" dominant-baseline="central">4e4438</text><rect x="143.0" y="121.0" width="48.0" height="20.0" fill="#4e4ef4"/><text x="167.0" y="131.0" fill="#ffffff" style="font-family: monospace; font-size: 12.0px;" text-anchor="middle" dominant-baseline="central">F44e</text><circle cx="107.0" cy="51.0" r="17.0" fill="#ffffff" stroke="#000000" stroke-width="1"/><line x1="107.0" y1="51.0" x2="125.0" y2="51.0" stroke="#ffffff" style="mix-blend-mode: difference" stroke-width="1"/><line x1="107.0" y1="51.0" x2="107.0" y2="59.5" stroke="#000000" stroke-width="1"/><circle cx="107.0" cy="59.5" r="1.5" fill="#ffffff" stroke="#000000" stroke-width="1"/><circle cx="167.0" cy="91.0" r="17.0" fill="#ffffff" stroke="#000000" stroke-width="1"/><line x1="167.0" y1="91.0" x2="167.0" y2="73.0" stroke="#ffffff" style="mix-blend-mode: difference" stroke-width="1"/><line x1="167.0" y1="91.0" x2="159.92757249812834" y2="95.71495166791445" stroke="#000000" stroke-width="1"/><circle cx="159.92757249812834" cy="95.71495166791445" r="1.5" fill="#ffffff" stroke="#000000" stroke-width="1"/><polygon points="23.0,121.0 33.0,121.0 23.0,131.0" fill="#000000"/><polygon points="71.0,81.0 61.0,81.0 71.0,91.0" fill="#ffffff"/><polygon points="191.0,61.0 191.0,51.0 181.0,61.0" fill="#ffffff"/><polygon points="83.0,101.0 83.0,91.0 93.0,101.0" fill="#000000"/><rect x="1" y="1" width="10.0" height="63.56492456088224" fill="#2f3fbf"/><rect x="1" y="64.56492456088225" width="10.0" height="48.04929500378401" fill="#ffffff"/><rect x="1" y="112.61421956466626" width="10.0" height="23.98847452718595" fill="#000000"/><rect x="1" y="136.60269409185221" width="10.0" height="19.397305908147786" fill="#ffd966"/><text x="17.0" y="16.0" fill="#666666" style="font-family: monospace; font-size: 12.0px;" dominant-baseline="central">ETH: 0x...</text><line x1="0" y1="0.5" x2="203.0" y2="0.5" stroke="#808080" stroke-width="1" shape-rendering="crispEdges"/><line x1="202.5" y1="0" x2="202.5" y2="157.0" stroke="#808080" stroke-width="1" shape-rendering="crispEdges"/><line x1="0" y1="156.5" x2="203.0" y2="156.5" stroke="#808080" stroke-width="1" shape-rendering="crispEdges"/><line x1="0.5" y1="0" x2="0.5" y2="157.0" stroke="#808080" stroke-width="1" shape-rendering="crispEdges"/><line x1="11.5" y1="0" x2="11.5" y2="157.0" stroke="#808080" stroke-width="1" shape-rendering="crispEdges"/></svg>