<svg width="203.0" height="182.0" viewBox="0 0 203.0 182.0" xmlns="http://www.w3.org/2000/svg" data-entviz-version="v5" data-input-bytes="34" data-cols="3" data-rows="3"><defs><clipPath id="grid-clip-4f0e0b55b8f79490-3x3"><rect x="17.0" y="31.0" width="180.0" height="120.0"/></clipPath></defs><rect x="0" y="0" width="203.0" height="182.0" fill="#ffffff"/><g data-channel="grid"><rect x="17.0" y="31.0" width="180.0" height="120.0" fill="#2f3fbf"/><g><rect x="17.0" y="31.0" width="6.0" height="10.0" fill="#000000"/><rect x="23.0" y="31.0" width="6.0" height="10.0" fill="#000000"/><rect x="35.0" y="31.0" width="6.0" height="10.0" fill="#000000"/><rect x="71.0" y="31.0" width="6.0" height="10.0" fill="#000000"/><rect x="71.0" y="41.0" width="6.0" height="10.0" fill="#000000"/><rect x="71.0" y="51.0" width="6.0" height="10.0" fill="#000000"/><rect x="47.0" y="61.0" width="6.0" height="10.0" fill="#000000"/><rect x="41.0" y="61.0" width="6.0" height="10.0" fill="#000000"/><rect x="35.0" y="61.0" width="6.0" height="10.0" fill="#000000"/><rect x="29.0" y="61.0" width="6.0" height="10.0" fill="#000000"/><rect x="17.0" y="51.0" width="6.0" height="10.0" fill="#000000"/><rect x="137.0" y="31.0" width="6.0" height="10.0" fill="#ff3f2f"/><rect x="143.0" y="31.0" width="6.0" height="10.0" fill="#ff3f2f"/><rect x="149.0" y="31.0" width="6.0" height="10.0" fill="#ff3f2f"/><rect x="161.0" y="31.0" width="6.0" height="10.0" fill="#ff3f2f"/><rect x="167.0" y="31.0" width="6.0" height="10.0" fill="#ff3f2f"/><rect x="173.0" y="31.0" width="6.0" height="10.0" fill="#ff3f2f"/><rect x="179.0" y="31.0" width="6.0" height="10.0" fill="#ff3f2f"/><rect x="191.0" y="51.0" width="6.0" height="10.0" fill="#ff3f2f"/><rect x="191.0" y="61.0" width="6.0" height="10.0" fill="#ff3f2f"/><rect x="185.0" y="61.0" width="6.0" height="10.0" fill="#ff3f2f"/><rect x="173.0" y="61.0" width="6.0" height="10.0" fill="#ff3f2f"/><rect x="167.0" y="61.0" width="6.0" height="10.0" fill="#ff3f2f"/><rect x="155.0" y="61.0" width="6.0" height="10.0" fill="#ff3f2f"/><rect x="143.0" y="61.0" width="6.0" height="10.0" fill="#ff3f2f"/><rect x="137.0" y="51.0" width="6.0" height="10.0" fill="#ff3f2f"/><rect x="17.0" y="71.0" width="6.0" height="10.0" fill="#ffd966"/><rect x="35.0" y="71.0" width="6.0" height="10.0" fill="#ffd966"/><rect x="47.0" y="71.0" width="6.0" height="10.0" fill="#ffd966"/><rect x="53.0" y="71.0" width="6.0" height="10.0" fill="#ffd966"/><rect x="59.0" y="71.0" width="6.0" height="10.0" fill="#ffd966"/><rect x="71.0" y="101.0" width="6.0" height="10.0" fill="#ffd966"/><rect x="53.0" y="101.0" width="6.0" height="10.0" fill="#ffd966"/><rect x="35.0" y="101.0" width="6.0" height="10.0" fill="#ffd966"/><rect x="23.0" y="101.0" width="6.0" height="10.0" fill="#ffd966"/><rect x="17.0" y="81.0" width="6.0" height="10.0" fill="#ffd966"/><rect x="83.0" y="71.0" width="6.0" height="10.0" fill="#000000"/><rect x="89.0" y="71.0" width="6.0" height="10.0" fill="#000000"/><rect x="95.0" y="71.0" width="6.0" height="10.0" fill="#000000"/><rect x="107.0" y="71.0" width="6.0" height="10.0" fill="#000000"/><rect x="125.0" y="71.0" width="6.0" height="10.0" fill="#000000"/><rect x="131.0" y="71.0" width="6.0" height="10.0" fill="#000000"/><rect x="131.0" y="81.0" width="6.0" height="10.0" fill="#000000"/><rect x="131.0" y="91.0" width="6.0" height="10.0" fill="#000000"/><rect x="119.0" y="101.0" width="6.0" height="10.0" fill="#000000"/><rect x="101.0" y="101.0" width="6.0" height="10.0" fill="#000000"/><rect x="95.0" y="101.0" width="6.0" height="10.0" fill="#000000"/><rect x="89.0" y="101.0" width="6.0" height="10.0" fill="#000000"/><rect x="83.0" y="101.0" width="6.0" height="10.0" fill="#000000"/><rect x="77.0" y="91.0" width="6.0" height="10.0" fill="#000000"/><rect x="143.0" y="71.0" width="6.0" height="10.0" fill="#ffd966"/><rect x="161.0" y="71.0" width="6.0" height="10.0" fill="#ffd966"/><rect x="167.0" y="71.0" width="6.0" height="10.0" fill="#ffd966"/><rect x="173.0" y="71.0" width="6.0" height="10.0" fill="#ffd966"/><rect x="179.0" y="71.0" width="6.0" height="10.0" fill="#ffd966"/><rect x="185.0" y="71.0" width="6.0" height="10.0" fill="#ffd966"/><rect x="191.0" y="71.0" width="6.0" height="10.0" fill="#ffd966"/><rect x="191.0" y="81.0" width="6.0" height="10.0" fill="#ffd966"/><rect x="191.0" y="101.0" width="6.0" height="10.0" fill="#ffd966"/><rect x="179.0" y="101.0" width="6.0" height="10.0" fill="#ffd966"/><rect x="173.0" y="101.0" width="6.0" height="10.0" fill="#ffd966"/><rect x="161.0" y="101.0" width="6.0" height="10.0" fill="#ffd966"/><rect x="155.0" y="101.0" width="6.0" height="10.0" fill="#ffd966"/><rect x="143.0" y="101.0" width="6.0" height="10.0" fill="#ffd966"/><rect x="17.0" y="111.0" width="6.0" height="10.0" fill="#000000"/><rect x="41.0" y="111.0" width="6.0" height="10.0" fill="#000000"/><rect x="47.0" y="111.0" width="6.0" height="10.0" fill="#000000"/><rect x="59.0" y="111.0" width="6.0" height="10.0" fill="#000000"/><rect x="65.0" y="111.0" width="6.0" height="10.0" fill="#000000"/><rect x="71.0" y="111.0" width="6.0" height="10.0" fill="#000000"/><rect x="71.0" y="131.0" width="6.0" height="10.0" fill="#000000"/><rect x="71.0" y="141.0" width="6.0" height="10.0" fill="#000000"/><rect x="53.0" y="141.0" width="6.0" height="10.0" fill="#000000"/><rect x="29.0" y="141.0" width="6.0" height="10.0" fill="#000000"/><rect x="17.0" y="121.0" width="6.0" height="10.0" fill="#000000"/><rect x="95.0" y="111.0" width="6.0" height="10.0" fill="#ff3f2f"/><rect x="101.0" y="111.0" width="6.0" height="10.0" fill="#ff3f2f"/><rect x="119.0" y="111.0" width="6.0" height="10.0" fill="#ff3f2f"/><rect x="125.0" y="111.0" width="6.0" height="10.0" fill="#ff3f2f"/><rect x="131.0" y="121.0" width="6.0" height="10.0" fill="#ff3f2f"/><rect x="125.0" y="141.0" width="6.0" height="10.0" fill="#ff3f2f"/><rect x="119.0" y="141.0" width="6.0" height="10.0" fill="#ff3f2f"/><rect x="113.0" y="141.0" width="6.0" height="10.0" fill="#ff3f2f"/><rect x="101.0" y="141.0" width="6.0" height="10.0" fill="#ff3f2f"/><rect x="89.0" y="141.0" width="6.0" height="10.0" fill="#ff3f2f"/><rect x="83.0" y="141.0" width="6.0" height="10.0" fill="#ff3f2f"/><rect x="77.0" y="141.0" width="6.0" height="10.0" fill="#ff3f2f"/><rect x="77.0" y="121.0" width="6.0" height="10.0" fill="#ff3f2f"/><rect x="155.0" y="111.0" width="6.0" height="10.0" fill="#ffd966"/><rect x="161.0" y="111.0" width="6.0" height="10.0" fill="#ffd966"/><rect x="173.0" y="111.0" width="6.0" height="10.0" fill="#ffd966"/><rect x="191.0" y="121.0" width="6.0" height="10.0" fill="#ffd966"/><rect x="191.0" y="141.0" width="6.0" height="10.0" fill="#ffd966"/><rect x="179.0" y="141.0" width="6.0" height="10.0" fill="#ffd966"/><rect x="173.0" y="141.0" width="6.0" height="10.0" fill="#ffd966"/><rect x="161.0" y="141.0" width="6.0" height="10.0" fill="#ffd966"/><rect x="155.0" y="141.0" width="6.0" height="10.0" fill="#ffd966"/><rect x="149.0" y="141.0" width="6.0" height="10.0" fill="#ffd966"/><rect x="143.0" y="141.0" width="6.0" height="10.0" fill="#ffd966"/><rect x="137.0" y="131.0" width="6.0" height="10.0" fill="#ffd966"/><rect x="137.0" y="121.0" width="6.0" height="10.0" fill="#ffd966"/></g><g clip-path="url(#grid-clip-4f0e0b55b8f79490-3x3)" data-channel="ellipse" data-ellipse-anchor-x="17.0" data-ellipse-anchor-y="151.0" data-ellipse-rx="117.5553843518929" data-ellipse-ry="40.0" data-ellipse-rotation-deg="120.0"><ellipse cx="17.0" cy="151.0" rx="117.5553843518929" ry="40.0" transform="rotate(120.0 17.0 151.0)" fill="#ffffff" fill-opacity="0.4"/></g><g><g data-channel="cell" data-cell-index="0" data-cell-row="0" data-cell-col="0"><rect x="23.0" y="41.0" width="48.0" height="20.0" fill="#560e24"/><text x="47.0" y="51.0" fill="#ffffff" style="font-family: &quot;DejaVu Sans Mono&quot;, &quot;Consolas&quot;, &quot;Menlo&quot;, &quot;Liberation Mono&quot;, monospace; font-size: 16.0px;" text-anchor="middle" dominant-baseline="central">A1zP</text></g><g data-channel="cell" data-cell-index="1" data-cell-row="0" data-cell-col="1" data-cell-blank="true" data-cell-blank-marker="true"><circle cx="107.0" cy="51.0" r="17.0" fill="#ffffff" stroke="#000000" stroke-width="1"/><line x1="107.0" y1="51.0" x2="117.8" y2="65.4" stroke="#ffffff" style="mix-blend-mode: difference" stroke-width="1"/><line x1="107.0" y1="51.0" x2="114.07242750187167" y2="55.71495166791445" stroke="#000000" stroke-width="1"/><circle cx="114.07242750187167" cy="55.71495166791445" r="1.5" fill="#ffffff" stroke="#000000" stroke-width="1"/></g><g data-channel="cell" data-cell-index="2" data-cell-row="0" data-cell-col="2" data-cell-quartile="1"><rect x="143.0" y="41.0" width="48.0" height="20.0" fill="#845502"/><text x="167.0" y="51.0" fill="#ffffff" style="font-family: &quot;DejaVu Sans Mono&quot;, &quot;Consolas&quot;, &quot;Menlo&quot;, &quot;Liberation Mono&quot;, monospace; font-size: 16.0px;" text-anchor="middle" dominant-baseline="central">1eP5</text><polygon points="143.0,41.0 153.0,41.0 143.0,51.0" fill="#ffffff"/></g><g data-channel="cell" data-cell-index="3" data-cell-row="1" data-cell-col="0" data-cell-quartile="3"><rect x="23.0" y="81.0" width="48.0" height="20.0" fill="#66f95c"/><text x="47.0" y="91.0" fill="#000000" style="font-family: &quot;DejaVu Sans Mono&quot;, &quot;Consolas&quot;, &quot;Menlo&quot;, &quot;Liberation Mono&quot;, monospace; font-size: 16.0px;" text-anchor="middle" dominant-baseline="central">QGef</text><polygon points="71.0,101.0 71.0,91.0 61.0,101.0" fill="#000000"/></g><g data-channel="cell" data-cell-index="4" data-cell-row="1" data-cell-col="1"><rect x="83.0" y="81.0" width="48.0" height="20.0" fill="#1413a4"/><text x="107.0" y="91.0" fill="#ffffff" style="font-family: &quot;DejaVu Sans Mono&quot;, &quot;Consolas&quot;, &quot;Menlo&quot;, &quot;Liberation Mono&quot;, monospace; font-size: 16.0px;" text-anchor="middle" dominant-baseline="central">i2DM</text></g><g data-channel="cell" data-cell-index="5" data-cell-row="1" data-cell-col="2"><rect x="143.0" y="81.0" width="48.0" height="20.0" fill="#9aa959"/><text x="167.0" y="91.0" fill="#000000" style="font-family: &quot;DejaVu Sans Mono&quot;, &quot;Consolas&quot;, &quot;Menlo&quot;, &quot;Liberation Mono&quot;, monospace; font-size: 16.0px;" text-anchor="middle" dominant-baseline="central">PTfT</text></g><g data-channel="cell" data-cell-index="6" data-cell-row="2" data-cell-col="0" data-cell-quartile="4"><rect x="23.0" y="121.0" width="48.0" height="20.0" fill="#53464c"/><text x="47.0" y="131.0" fill="#ffffff" style="font-family: &quot;DejaVu Sans Mono&quot;, &quot;Consolas&quot;, &quot;Menlo&quot;, &quot;Liberation Mono&quot;, monospace; font-size: 16.0px;" text-anchor="middle" dominant-baseline="central">L5SL</text><polygon points="23.0,141.0 23.0,131.0 33.0,141.0" fill="#ffffff"/></g><g data-channel="cell" data-cell-index="7" data-cell-row="2" data-cell-col="1"><rect x="83.0" y="121.0" width="48.0" height="20.0" fill="#8c51b3"/><text x="107.0" y="131.0" fill="#ffffff" style="font-family: &quot;DejaVu Sans Mono&quot;, &quot;Consolas&quot;, &quot;Menlo&quot;, &quot;Liberation Mono&quot;, monospace; font-size: 16.0px;" text-anchor="middle" dominant-baseline="central">mv7D</text></g><g data-channel="cell" data-cell-index="8" data-cell-row="2" data-cell-col="2" data-cell-quartile="2"><rect x="143.0" y="121.0" width="48.0" height="20.0" fill="#2990a6"/><text x="167.0" y="131.0" fill="#000000" style="font-family: &quot;DejaVu Sans Mono&quot;, &quot;Consolas&quot;, &quot;Menlo&quot;, &quot;Liberation Mono&quot;, monospace; font-size: 16.0px;" text-anchor="middle" dominant-baseline="central">i</text><polygon points="191.0,121.0 181.0,121.0 191.0,131.0" fill="#000000"/></g></g></g><g data-channel="color-bar"><g data-color-bar-rank="0" data-color-bar-band="R"><rect x="1" y="1" width="10.0" height="53.69543935688433" fill="#ff3f2f"/><text x="6.0" y="27.847719678442164" fill="#000000" style="font-family: &quot;DejaVu Sans Mono&quot;, &quot;Consolas&quot;, &quot;Menlo&quot;, &quot;Liberation Mono&quot;, monospace; font-size: 32px;" text-anchor="middle" dominant-baseline="central" data-color-bar-letter="true">R</text></g><g data-color-bar-rank="1" data-color-bar-band="W"><rect x="1" y="54.69543935688433" width="10.0" height="44.705204455144184" fill="#ffffff"/><text x="6.0" y="77.04804158445643" fill="#000000" style="font-family: &quot;DejaVu Sans Mono&quot;, &quot;Consolas&quot;, &quot;Menlo&quot;, &quot;Liberation Mono&quot;, monospace; font-size: 27px;" text-anchor="middle" dominant-baseline="central" data-color-bar-letter="true">W</text></g><g data-color-bar-rank="2" data-color-bar-band="G"><rect x="1" y="99.4006438120285" width="10.0" height="44.705204455144184" fill="#ffd966"/><text x="6.0" y="121.7532460396006" fill="#000000" style="font-family: &quot;DejaVu Sans Mono&quot;, &quot;Consolas&quot;, &quot;Menlo&quot;, &quot;Liberation Mono&quot;, monospace; font-size: 27px;" text-anchor="middle" dominant-baseline="central" data-color-bar-letter="true">G</text></g><g data-color-bar-rank="3" data-color-bar-band="K"><rect x="1" y="144.1058482671727" width="10.0" height="36.89415173282731" fill="#000000"/><text x="6.0" y="162.55292413358634" fill="#ffffff" style="font-family: &quot;DejaVu Sans Mono&quot;, &quot;Consolas&quot;, &quot;Menlo&quot;, &quot;Liberation Mono&quot;, monospace; font-size: 22px;" text-anchor="middle" dominant-baseline="central" data-color-bar-letter="true">K</text></g></g><g data-channel="label-top"><text x="17.0" y="16.0" fill="#666666" style="font-family: &quot;DejaVu Sans Mono&quot;, &quot;Consolas&quot;, &quot;Menlo&quot;, &quot;Liberation Mono&quot;, monospace; font-size: 12.0px;" dominant-baseline="central">BTC legacy: 1...</text></g><g data-channel="label-bottom"><text x="197.0" y="166.0" fill="#666666" style="font-family: &quot;DejaVu Sans Mono&quot;, &quot;Consolas&quot;, &quot;Menlo&quot;, &quot;Liberation Mono&quot;, monospace; font-size: 12.0px;" text-anchor="end" dominant-baseline="central">...vfNa</text></g><line x1="0" y1="0.5" x2="203.0" y2="0.5" stroke="#808080" stroke-width="1" shape-rendering="crispEdges"/><line x1="202.5" y1="0" x2="202.5" y2="182.0" stroke="#808080" stroke-width="1" shape-rendering="crispEdges"/><line x1="0" y1="181.5" x2="203.0" y2="181.5" stroke="#808080" stroke-width="1" shape-rendering="crispEdges"/><line x1="0.5" y1="0" x2="0.5" y2="182.0" stroke="#808080" stroke-width="1" shape-rendering="crispEdges"/><line x1="11.5" y1="0" x2="11.5" y2="182.0" stroke="#808080" stroke-width="1" shape-rendering="crispEdges"/></svg>