<svg width="213.0" height="152.0" viewBox="0 0 213.0 152.0" xmlns="http://www.w3.org/2000/svg" data-entviz-version="v6" data-entviz-lib="0.5.0" data-input-bytes="26" data-cols="3" data-rows="3"><defs><clipPath id="grid-clip-7154c6d615fe7973-3x3"><rect x="27.0" y="26.0" width="180.0" height="120.0"/></clipPath></defs><rect x="0" y="0" width="213.0" height="152.0" fill="#ffffff"/><g data-channel="grid"><rect x="27.0" y="26.0" width="180.0" height="120.0" fill="#2f3fbf"/><g><rect x="33.0" y="26.0" width="6.0" height="10.0" fill="#ff3f2f"/><rect x="39.0" y="26.0" width="6.0" height="10.0" fill="#ff3f2f"/><rect x="63.0" y="26.0" width="6.0" height="10.0" fill="#ff3f2f"/><rect x="69.0" y="26.0" width="6.0" height="10.0" fill="#ff3f2f"/><rect x="81.0" y="36.0" width="6.0" height="10.0" fill="#ff3f2f"/><rect x="81.0" y="56.0" width="6.0" height="10.0" fill="#ff3f2f"/><rect x="69.0" y="56.0" width="6.0" height="10.0" fill="#ff3f2f"/><rect x="57.0" y="56.0" width="6.0" height="10.0" fill="#ff3f2f"/><rect x="33.0" y="56.0" width="6.0" height="10.0" fill="#ff3f2f"/><rect x="27.0" y="56.0" width="6.0" height="10.0" fill="#ff3f2f"/><rect x="27.0" y="46.0" width="6.0" height="10.0" fill="#ff3f2f"/><rect x="93.0" y="26.0" width="6.0" height="10.0" fill="#ffffff"/><rect x="99.0" y="26.0" width="6.0" height="10.0" fill="#ffffff"/><rect x="105.0" y="26.0" width="6.0" height="10.0" fill="#ffffff"/><rect x="111.0" y="26.0" width="6.0" height="10.0" fill="#ffffff"/><rect x="117.0" y="26.0" width="6.0" height="10.0" fill="#ffffff"/><rect x="123.0" y="26.0" width="6.0" height="10.0" fill="#ffffff"/><rect x="129.0" y="26.0" width="6.0" height="10.0" fill="#ffffff"/><rect x="135.0" y="26.0" width="6.0" height="10.0" fill="#ffffff"/><rect x="141.0" y="36.0" width="6.0" height="10.0" fill="#ffffff"/><rect x="141.0" y="56.0" width="6.0" height="10.0" fill="#ffffff"/><rect x="111.0" y="56.0" width="6.0" height="10.0" fill="#ffffff"/><rect x="105.0" y="56.0" width="6.0" height="10.0" fill="#ffffff"/><rect x="93.0" y="56.0" width="6.0" height="10.0" fill="#ffffff"/><rect x="87.0" y="46.0" width="6.0" height="10.0" fill="#ffffff"/><rect x="87.0" y="36.0" width="6.0" height="10.0" fill="#ffffff"/><rect x="33.0" y="66.0" width="6.0" height="10.0" fill="#ffd966"/><rect x="51.0" y="66.0" width="6.0" height="10.0" fill="#ffd966"/><rect x="63.0" y="66.0" width="6.0" height="10.0" fill="#ffd966"/><rect x="69.0" y="66.0" width="6.0" height="10.0" fill="#ffd966"/><rect x="75.0" y="66.0" width="6.0" height="10.0" fill="#ffd966"/><rect x="81.0" y="66.0" width="6.0" height="10.0" fill="#ffd966"/><rect x="81.0" y="96.0" width="6.0" height="10.0" fill="#ffd966"/><rect x="75.0" y="96.0" width="6.0" height="10.0" fill="#ffd966"/><rect x="69.0" y="96.0" width="6.0" height="10.0" fill="#ffd966"/><rect x="57.0" y="96.0" width="6.0" height="10.0" fill="#ffd966"/><rect x="39.0" y="96.0" width="6.0" height="10.0" fill="#ffd966"/><rect x="33.0" y="96.0" width="6.0" height="10.0" fill="#ffd966"/><rect x="27.0" y="96.0" width="6.0" height="10.0" fill="#ffd966"/><rect x="27.0" y="86.0" width="6.0" height="10.0" fill="#ffd966"/><rect x="87.0" y="66.0" width="6.0" height="10.0" fill="#ff3f2f"/><rect x="99.0" y="66.0" width="6.0" height="10.0" fill="#ff3f2f"/><rect x="105.0" y="66.0" width="6.0" height="10.0" fill="#ff3f2f"/><rect x="117.0" y="66.0" width="6.0" height="10.0" fill="#ff3f2f"/><rect x="123.0" y="66.0" width="6.0" height="10.0" fill="#ff3f2f"/><rect x="141.0" y="66.0" width="6.0" height="10.0" fill="#ff3f2f"/><rect x="141.0" y="76.0" width="6.0" height="10.0" fill="#ff3f2f"/><rect x="135.0" y="96.0" width="6.0" height="10.0" fill="#ff3f2f"/><rect x="123.0" y="96.0" width="6.0" height="10.0" fill="#ff3f2f"/><rect x="111.0" y="96.0" width="6.0" height="10.0" fill="#ff3f2f"/><rect x="99.0" y="96.0" width="6.0" height="10.0" fill="#ff3f2f"/><rect x="93.0" y="96.0" width="6.0" height="10.0" fill="#ff3f2f"/><rect x="87.0" y="96.0" width="6.0" height="10.0" fill="#ff3f2f"/><rect x="87.0" y="86.0" width="6.0" height="10.0" fill="#ff3f2f"/><rect x="87.0" y="76.0" width="6.0" height="10.0" fill="#ff3f2f"/><rect x="153.0" y="66.0" width="6.0" height="10.0" fill="#ffd966"/><rect x="159.0" y="66.0" width="6.0" height="10.0" fill="#ffd966"/><rect x="171.0" y="66.0" width="6.0" height="10.0" fill="#ffd966"/><rect x="177.0" y="66.0" width="6.0" height="10.0" fill="#ffd966"/><rect x="183.0" y="66.0" width="6.0" height="10.0" fill="#ffd966"/><rect x="195.0" y="66.0" width="6.0" height="10.0" fill="#ffd966"/><rect x="201.0" y="76.0" width="6.0" height="10.0" fill="#ffd966"/><rect x="201.0" y="86.0" width="6.0" height="10.0" fill="#ffd966"/><rect x="189.0" y="96.0" width="6.0" height="10.0" fill="#ffd966"/><rect x="183.0" y="96.0" width="6.0" height="10.0" fill="#ffd966"/><rect x="177.0" y="96.0" width="6.0" height="10.0" fill="#ffd966"/><rect x="165.0" y="96.0" width="6.0" height="10.0" fill="#ffd966"/><rect x="153.0" y="96.0" width="6.0" height="10.0" fill="#ffd966"/><rect x="147.0" y="86.0" width="6.0" height="10.0" fill="#ffd966"/><rect x="147.0" y="76.0" width="6.0" height="10.0" fill="#ffd966"/><rect x="27.0" y="106.0" width="6.0" height="10.0" fill="#ff3f2f"/><rect x="39.0" y="106.0" width="6.0" height="10.0" fill="#ff3f2f"/><rect x="51.0" y="106.0" width="6.0" height="10.0" fill="#ff3f2f"/><rect x="69.0" y="106.0" width="6.0" height="10.0" fill="#ff3f2f"/><rect x="75.0" y="106.0" width="6.0" height="10.0" fill="#ff3f2f"/><rect x="69.0" y="136.0" width="6.0" height="10.0" fill="#ff3f2f"/><rect x="57.0" y="136.0" width="6.0" height="10.0" fill="#ff3f2f"/><rect x="45.0" y="136.0" width="6.0" height="10.0" fill="#ff3f2f"/><rect x="39.0" y="136.0" width="6.0" height="10.0" fill="#ff3f2f"/><rect x="33.0" y="136.0" width="6.0" height="10.0" fill="#ff3f2f"/><rect x="27.0" y="126.0" width="6.0" height="10.0" fill="#ff3f2f"/><rect x="147.0" y="106.0" width="6.0" height="10.0" fill="#ffd966"/><rect x="153.0" y="106.0" width="6.0" height="10.0" fill="#ffd966"/><rect x="189.0" y="106.0" width="6.0" height="10.0" fill="#ffd966"/><rect x="195.0" y="106.0" width="6.0" height="10.0" fill="#ffd966"/><rect x="201.0" y="106.0" width="6.0" height="10.0" fill="#ffd966"/><rect x="201.0" y="136.0" width="6.0" height="10.0" fill="#ffd966"/><rect x="183.0" y="136.0" width="6.0" height="10.0" fill="#ffd966"/><rect x="177.0" y="136.0" width="6.0" height="10.0" fill="#ffd966"/><rect x="165.0" y="136.0" width="6.0" height="10.0" fill="#ffd966"/><rect x="159.0" y="136.0" width="6.0" height="10.0" fill="#ffd966"/></g><g clip-path="url(#grid-clip-7154c6d615fe7973-3x3)" data-channel="ellipse" data-ellipse-anchor-x="27.0" data-ellipse-anchor-y="66.0" data-ellipse-rx="85.88204003166203" data-ellipse-ry="76.42713654193778" data-ellipse-rotation-deg="0.0"><ellipse cx="27.0" cy="66.0" rx="85.88204003166203" ry="76.42713654193778" transform="rotate(0.0 27.0 66.0)" fill="#ffffff" fill-opacity="0.4"/></g><g><g data-channel="cell" data-cell-index="0" data-cell-row="0" data-cell-col="0"><rect x="33.0" y="36.0" width="48.0" height="20.0" fill="#885500"/><text x="57.0" y="46.0" fill="#ffffff" style="font-family: &quot;JetBrains Mono&quot;, &quot;Menlo&quot;, &quot;Consolas&quot;, &quot;DejaVu Sans Mono&quot;, &quot;Liberation Mono&quot;, &quot;Roboto Mono&quot;, &quot;Noto Sans Mono&quot;, monospace; font-size: 16.0px;" text-anchor="middle" dominant-baseline="central">01AR</text></g><g data-channel="cell" data-cell-index="1" data-cell-row="0" data-cell-col="1" data-cell-quartile="1"><rect x="93.0" y="36.0" width="48.0" height="20.0" fill="#ddeaf8"/><text x="117.0" y="46.0" fill="#000000" style="font-family: &quot;JetBrains Mono&quot;, &quot;Menlo&quot;, &quot;Consolas&quot;, &quot;DejaVu Sans Mono&quot;, &quot;Liberation Mono&quot;, &quot;Roboto Mono&quot;, &quot;Noto Sans Mono&quot;, monospace; font-size: 16.0px;" text-anchor="middle" dominant-baseline="central">Z3ND</text><polygon points="93.0,36.0 103.0,36.0 93.0,46.0" fill="#000000"/></g><g data-channel="cell" data-cell-index="2" data-cell-row="0" data-cell-col="2" data-cell-blank="true" data-cell-blank-map="true"><rect x="153.0" y="36.0" width="48.0" height="20.0" rx="10.0" ry="10.0" fill="#ffffff" stroke="#000000" stroke-width="1"/><circle cx="177.0" cy="46.0" r="2.5" fill="#d62828" data-blank-map-max="true"/><circle cx="193.0" cy="52.66666666666667" r="2.5" fill="#1d4ed8" data-blank-map-min="true"/></g><g data-channel="cell" data-cell-index="3" data-cell-row="1" data-cell-col="0" data-cell-quartile="3"><rect x="33.0" y="76.0" width="48.0" height="20.0" fill="#99f574"/><text x="57.0" y="86.0" fill="#000000" style="font-family: &quot;JetBrains Mono&quot;, &quot;Menlo&quot;, &quot;Consolas&quot;, &quot;DejaVu Sans Mono&quot;, &quot;Liberation Mono&quot;, &quot;Roboto Mono&quot;, &quot;Noto Sans Mono&quot;, monospace; font-size: 16.0px;" text-anchor="middle" dominant-baseline="central">EKTS</text><polygon points="81.0,96.0 81.0,86.0 71.0,96.0" fill="#000000"/></g><g data-channel="cell" data-cell-index="4" data-cell-row="1" data-cell-col="1" data-cell-quartile="4"><rect x="93.0" y="76.0" width="48.0" height="20.0" fill="#8831d9"/><text x="117.0" y="86.0" fill="#ffffff" style="font-family: &quot;JetBrains Mono&quot;, &quot;Menlo&quot;, &quot;Consolas&quot;, &quot;DejaVu Sans Mono&quot;, &quot;Liberation Mono&quot;, &quot;Roboto Mono&quot;, &quot;Noto Sans Mono&quot;, monospace; font-size: 16.0px;" text-anchor="middle" dominant-baseline="central">V4RR</text><polygon points="93.0,96.0 93.0,86.0 103.0,96.0" fill="#ffffff"/></g><g data-channel="cell" data-cell-index="5" data-cell-row="1" data-cell-col="2"><rect x="153.0" y="76.0" width="48.0" height="20.0" fill="#66ee7b"/><text x="177.0" y="86.0" fill="#000000" style="font-family: &quot;JetBrains Mono&quot;, &quot;Menlo&quot;, &quot;Consolas&quot;, &quot;DejaVu Sans Mono&quot;, &quot;Liberation Mono&quot;, &quot;Roboto Mono&quot;, &quot;Noto Sans Mono&quot;, monospace; font-size: 16.0px;" text-anchor="middle" dominant-baseline="central">FFQ6</text></g><g data-channel="cell" data-cell-index="6" data-cell-row="2" data-cell-col="0"><rect x="33.0" y="116.0" width="48.0" height="20.0" fill="#ff0a4c"/><text x="57.0" y="126.0" fill="#000000" style="font-family: &quot;JetBrains Mono&quot;, &quot;Menlo&quot;, &quot;Consolas&quot;, &quot;DejaVu Sans Mono&quot;, &quot;Liberation Mono&quot;, &quot;Roboto Mono&quot;, &quot;Noto Sans Mono&quot;, monospace; font-size: 16.0px;" text-anchor="middle" dominant-baseline="central">9G5F</text></g><g data-channel="cell" data-cell-index="7" data-cell-row="2" data-cell-col="1" data-cell-blank="true"><rect x="93.0" y="116.0" width="48.0" height="20.0" rx="10.0" ry="10.0" fill="none" stroke="#000000" stroke-width="1"/></g><g data-channel="cell" data-cell-index="8" data-cell-row="2" data-cell-col="2" data-cell-quartile="2"><rect x="153.0" y="116.0" width="48.0" height="20.0" fill="#bbd556"/><text x="177.0" y="126.0" fill="#000000" style="font-family: &quot;JetBrains Mono&quot;, &quot;Menlo&quot;, &quot;Consolas&quot;, &quot;DejaVu Sans Mono&quot;, &quot;Liberation Mono&quot;, &quot;Roboto Mono&quot;, &quot;Noto Sans Mono&quot;, monospace; font-size: 16.0px;" text-anchor="middle" dominant-baseline="central">AV</text><polygon points="201.0,116.0 191.0,116.0 201.0,126.0" fill="#000000"/></g></g></g><g data-channel="color-bar"><g data-color-bar-rank="0" data-color-bar-band="G"><rect x="1" y="1" width="20.0" height="65.97859391411347" fill="#ffd966"/><text x="11.0" y="63.45859391411347" fill="#000000" style="font-family: &quot;JetBrains Mono&quot;, &quot;Menlo&quot;, &quot;Consolas&quot;, &quot;DejaVu Sans Mono&quot;, &quot;Liberation Mono&quot;, &quot;Roboto Mono&quot;, &quot;Noto Sans Mono&quot;, monospace; font-size: 16.0px;" text-anchor="middle" data-color-bar-letter="true">g</text></g><g data-color-bar-rank="1" data-color-bar-band="K"><rect x="1" y="66.97859391411347" width="20.0" height="34.98467939471383" fill="#000000"/><text x="11.0" y="98.4432733088273" fill="#ffffff" style="font-family: &quot;JetBrains Mono&quot;, &quot;Menlo&quot;, &quot;Consolas&quot;, &quot;DejaVu Sans Mono&quot;, &quot;Liberation Mono&quot;, &quot;Roboto Mono&quot;, &quot;Noto Sans Mono&quot;, monospace; font-size: 16.0px;" text-anchor="middle" data-color-bar-letter="true">k</text></g><g data-color-bar-rank="2" data-color-bar-band="R"><rect x="1" y="101.9632733088273" width="20.0" height="27.024832067220878" fill="#ff3f2f"/><text x="11.0" y="125.46810537604817" fill="#000000" style="font-family: &quot;JetBrains Mono&quot;, &quot;Menlo&quot;, &quot;Consolas&quot;, &quot;DejaVu Sans Mono&quot;, &quot;Liberation Mono&quot;, &quot;Roboto Mono&quot;, &quot;Noto Sans Mono&quot;, monospace; font-size: 16.0px;" text-anchor="middle" data-color-bar-letter="true">r</text></g><g data-color-bar-rank="3" data-color-bar-band="W"><rect x="1" y="128.98810537604817" width="20.0" height="22.011894623951832" fill="#ffffff"/><text x="11.0" y="147.48" fill="#000000" style="font-family: &quot;JetBrains Mono&quot;, &quot;Menlo&quot;, &quot;Consolas&quot;, &quot;DejaVu Sans Mono&quot;, &quot;Liberation Mono&quot;, &quot;Roboto Mono&quot;, &quot;Noto Sans Mono&quot;, monospace; font-size: 16.0px;" text-anchor="middle" data-color-bar-letter="true">w</text></g></g><g data-channel="label-top"><text x="27.0" y="16.0" fill="#666666" style="font-family: &quot;JetBrains Mono&quot;, &quot;Menlo&quot;, &quot;Consolas&quot;, &quot;DejaVu Sans Mono&quot;, &quot;Liberation Mono&quot;, &quot;Roboto Mono&quot;, &quot;Noto Sans Mono&quot;, monospace; font-size: 12.0px;" dominant-baseline="central">ULID:</text></g><line x1="0" y1="0.5" x2="213.0" y2="0.5" stroke="#808080" stroke-width="1" shape-rendering="crispEdges"/><line x1="212.5" y1="0" x2="212.5" y2="152.0" stroke="#808080" stroke-width="1" shape-rendering="crispEdges"/><line x1="0" y1="151.5" x2="213.0" y2="151.5" stroke="#808080" stroke-width="1" shape-rendering="crispEdges"/><line x1="0.5" y1="0" x2="0.5" y2="152.0" stroke="#808080" stroke-width="1" shape-rendering="crispEdges"/><line x1="21.5" y1="0" x2="21.5" y2="152.0" stroke="#808080" stroke-width="1" shape-rendering="crispEdges"/></svg>