<svg width="203.0" height="182.0" viewBox="0 0 203.0 182.0" xmlns="http://www.w3.org/2000/svg" data-entviz-version="v5" data-input-bytes="34" data-cols="3" data-rows="3"><defs><clipPath id="grid-clip-1b8ad32867f0e886-3x3"><rect x="17.0" y="31.0" width="180.0" height="120.0"/></clipPath></defs><rect x="0" y="0" width="203.0" height="182.0" fill="#ffffff"/><g data-channel="grid"><rect x="17.0" y="31.0" width="180.0" height="120.0" fill="#2f3fbf"/><g><rect x="17.0" y="31.0" width="6.0" height="10.0" fill="#ffd966"/><rect x="23.0" y="31.0" width="6.0" height="10.0" fill="#ffd966"/><rect x="41.0" y="31.0" width="6.0" height="10.0" fill="#ffd966"/><rect x="53.0" y="31.0" width="6.0" height="10.0" fill="#ffd966"/><rect x="59.0" y="31.0" width="6.0" height="10.0" fill="#ffd966"/><rect x="71.0" y="31.0" width="6.0" height="10.0" fill="#ffd966"/><rect x="71.0" y="51.0" width="6.0" height="10.0" fill="#ffd966"/><rect x="53.0" y="61.0" width="6.0" height="10.0" fill="#ffd966"/><rect x="47.0" y="61.0" width="6.0" height="10.0" fill="#ffd966"/><rect x="41.0" y="61.0" width="6.0" height="10.0" fill="#ffd966"/><rect x="29.0" y="61.0" width="6.0" height="10.0" fill="#ffd966"/><rect x="23.0" y="61.0" width="6.0" height="10.0" fill="#ffd966"/><rect x="101.0" y="31.0" width="6.0" height="10.0" fill="#ffd966"/><rect x="107.0" y="31.0" width="6.0" height="10.0" fill="#ffd966"/><rect x="113.0" y="31.0" width="6.0" height="10.0" fill="#ffd966"/><rect x="119.0" y="31.0" width="6.0" height="10.0" fill="#ffd966"/><rect x="125.0" y="31.0" width="6.0" height="10.0" fill="#ffd966"/><rect x="131.0" y="31.0" width="6.0" height="10.0" fill="#ffd966"/><rect x="131.0" y="41.0" width="6.0" height="10.0" fill="#ffd966"/><rect x="125.0" y="61.0" width="6.0" height="10.0" fill="#ffd966"/><rect x="119.0" y="61.0" width="6.0" height="10.0" fill="#ffd966"/><rect x="89.0" y="61.0" width="6.0" height="10.0" fill="#ffd966"/><rect x="77.0" y="61.0" width="6.0" height="10.0" fill="#ffd966"/><rect x="137.0" y="31.0" width="6.0" height="10.0" fill="#ffd966"/><rect x="143.0" y="31.0" width="6.0" height="10.0" fill="#ffd966"/><rect x="155.0" y="31.0" width="6.0" height="10.0" fill="#ffd966"/><rect x="191.0" y="31.0" width="6.0" height="10.0" fill="#ffd966"/><rect x="191.0" y="41.0" width="6.0" height="10.0" fill="#ffd966"/><rect x="173.0" y="61.0" width="6.0" height="10.0" fill="#ffd966"/><rect x="149.0" y="61.0" width="6.0" height="10.0" fill="#ffd966"/><rect x="137.0" y="61.0" width="6.0" height="10.0" fill="#ffd966"/><rect x="137.0" y="51.0" width="6.0" height="10.0" fill="#ffd966"/><rect x="137.0" y="41.0" width="6.0" height="10.0" fill="#ffd966"/><rect x="17.0" y="71.0" width="6.0" height="10.0" fill="#ff3f2f"/><rect x="47.0" y="71.0" width="6.0" height="10.0" fill="#ff3f2f"/><rect x="65.0" y="71.0" width="6.0" height="10.0" fill="#ff3f2f"/><rect x="71.0" y="71.0" width="6.0" height="10.0" fill="#ff3f2f"/><rect x="35.0" y="101.0" width="6.0" height="10.0" fill="#ff3f2f"/><rect x="17.0" y="81.0" width="6.0" height="10.0" fill="#ff3f2f"/><rect x="89.0" y="71.0" width="6.0" height="10.0" fill="#ffd966"/><rect x="95.0" y="71.0" width="6.0" height="10.0" fill="#ffd966"/><rect x="101.0" y="71.0" width="6.0" height="10.0" fill="#ffd966"/><rect x="113.0" y="71.0" width="6.0" height="10.0" fill="#ffd966"/><rect x="125.0" y="71.0" width="6.0" height="10.0" fill="#ffd966"/><rect x="131.0" y="101.0" width="6.0" height="10.0" fill="#ffd966"/><rect x="125.0" y="101.0" width="6.0" height="10.0" fill="#ffd966"/><rect x="113.0" y="101.0" width="6.0" height="10.0" fill="#ffd966"/><rect x="95.0" y="101.0" width="6.0" height="10.0" fill="#ffd966"/><rect x="89.0" y="101.0" width="6.0" height="10.0" fill="#ffd966"/><rect x="17.0" y="111.0" width="6.0" height="10.0" fill="#ff3f2f"/><rect x="23.0" y="111.0" width="6.0" height="10.0" fill="#ff3f2f"/><rect x="47.0" y="111.0" width="6.0" height="10.0" fill="#ff3f2f"/><rect x="53.0" y="111.0" width="6.0" height="10.0" fill="#ff3f2f"/><rect x="65.0" y="111.0" width="6.0" height="10.0" fill="#ff3f2f"/><rect x="71.0" y="141.0" width="6.0" height="10.0" fill="#ff3f2f"/><rect x="65.0" y="141.0" width="6.0" height="10.0" fill="#ff3f2f"/><rect x="59.0" y="141.0" width="6.0" height="10.0" fill="#ff3f2f"/><rect x="53.0" y="141.0" width="6.0" height="10.0" fill="#ff3f2f"/><rect x="41.0" y="141.0" width="6.0" height="10.0" fill="#ff3f2f"/><rect x="29.0" y="141.0" width="6.0" height="10.0" fill="#ff3f2f"/><rect x="23.0" y="141.0" width="6.0" height="10.0" fill="#ff3f2f"/><rect x="77.0" y="111.0" width="6.0" height="10.0" fill="#ffd966"/><rect x="113.0" y="111.0" width="6.0" height="10.0" fill="#ffd966"/><rect x="131.0" y="111.0" width="6.0" height="10.0" fill="#ffd966"/><rect x="131.0" y="141.0" width="6.0" height="10.0" fill="#ffd966"/><rect x="125.0" y="141.0" width="6.0" height="10.0" fill="#ffd966"/><rect x="119.0" y="141.0" width="6.0" height="10.0" fill="#ffd966"/><rect x="113.0" y="141.0" width="6.0" height="10.0" fill="#ffd966"/><rect x="107.0" y="141.0" width="6.0" height="10.0" fill="#ffd966"/><rect x="95.0" y="141.0" width="6.0" height="10.0" fill="#ffd966"/><rect x="77.0" y="121.0" width="6.0" height="10.0" fill="#ffd966"/><rect x="173.0" y="111.0" width="6.0" height="10.0" fill="#000000"/><rect x="185.0" y="141.0" width="6.0" height="10.0" fill="#000000"/><rect x="179.0" y="141.0" width="6.0" height="10.0" fill="#000000"/><rect x="167.0" y="141.0" width="6.0" height="10.0" fill="#000000"/><rect x="155.0" y="141.0" width="6.0" height="10.0" fill="#000000"/><rect x="149.0" y="141.0" width="6.0" height="10.0" fill="#000000"/><rect x="137.0" y="131.0" width="6.0" height="10.0" fill="#000000"/><rect x="137.0" y="121.0" width="6.0" height="10.0" fill="#000000"/></g><g clip-path="url(#grid-clip-1b8ad32867f0e886-3x3)" data-channel="ellipse" data-ellipse-anchor-x="137.0" data-ellipse-anchor-y="31.0" data-ellipse-rx="67.88225099390857" data-ellipse-ry="40.0" data-ellipse-rotation-deg="156.0"><ellipse cx="137.0" cy="31.0" rx="67.88225099390857" ry="40.0" transform="rotate(156.0 137.0 31.0)" fill="#ffffff" fill-opacity="0.4"/></g><g><g data-channel="cell" data-cell-index="0" data-cell-row="0" data-cell-col="0"><rect x="23.0" y="41.0" width="48.0" height="20.0" fill="#ef9655"/><text x="47.0" y="51.0" fill="#000000" style="font-family: &quot;DejaVu Sans Mono&quot;, &quot;Consolas&quot;, &quot;Menlo&quot;, &quot;Liberation Mono&quot;, monospace; font-size: 16.0px;" text-anchor="middle" dominant-baseline="central">NSUp</text></g><g data-channel="cell" data-cell-index="1" data-cell-row="0" data-cell-col="1"><rect x="83.0" y="41.0" width="48.0" height="20.0" fill="#898391"/><text x="107.0" y="51.0" fill="#000000" style="font-family: &quot;DejaVu Sans Mono&quot;, &quot;Consolas&quot;, &quot;Menlo&quot;, &quot;Liberation Mono&quot;, monospace; font-size: 16.0px;" text-anchor="middle" dominant-baseline="central">dRFA</text></g><g data-channel="cell" data-cell-index="2" data-cell-row="0" data-cell-col="2" data-cell-quartile="2"><rect x="143.0" y="41.0" width="48.0" height="20.0" fill="#9fd08a"/><text x="167.0" y="51.0" fill="#000000" style="font-family: &quot;DejaVu Sans Mono&quot;, &quot;Consolas&quot;, &quot;Menlo&quot;, &quot;Liberation Mono&quot;, monospace; font-size: 16.0px;" text-anchor="middle" dominant-baseline="central">bn3Y</text><polygon points="191.0,41.0 181.0,41.0 191.0,51.0" fill="#000000"/></g><g data-channel="cell" data-cell-index="3" data-cell-row="1" data-cell-col="0"><rect x="23.0" y="81.0" width="48.0" height="20.0" fill="#950a06"/><text x="47.0" y="91.0" fill="#ffffff" style="font-family: &quot;DejaVu Sans Mono&quot;, &quot;Consolas&quot;, &quot;Menlo&quot;, &quot;Liberation Mono&quot;, monospace; font-size: 16.0px;" text-anchor="middle" dominant-baseline="central">2ZjN</text></g><g data-channel="cell" data-cell-index="4" data-cell-row="1" data-cell-col="1" data-cell-quartile="3"><rect x="83.0" y="81.0" width="48.0" height="20.0" fill="#95d91e"/><text x="107.0" y="91.0" fill="#000000" style="font-family: &quot;DejaVu Sans Mono&quot;, &quot;Consolas&quot;, &quot;Menlo&quot;, &quot;Liberation Mono&quot;, monospace; font-size: 16.0px;" text-anchor="middle" dominant-baseline="central">8nfN</text><polygon points="131.0,101.0 131.0,91.0 121.0,101.0" fill="#000000"/></g><g data-channel="cell" data-cell-index="5" data-cell-row="1" data-cell-col="2" data-cell-blank="true" data-cell-blank-marker="true"><circle cx="167.0" cy="91.0" r="17.0" fill="#ffffff" stroke="#000000" stroke-width="1"/><line x1="167.0" y1="91.0" x2="167.0" y2="73.0" stroke="#ffffff" style="mix-blend-mode: difference" stroke-width="1"/><line x1="167.0" y1="91.0" x2="158.5" y2="91.0" stroke="#000000" stroke-width="1"/><circle cx="158.5" cy="91.0" r="1.5" fill="#ffffff" stroke="#000000" stroke-width="1"/></g><g data-channel="cell" data-cell-index="6" data-cell-row="2" data-cell-col="0" data-cell-quartile="4"><rect x="23.0" y="121.0" width="48.0" height="20.0" fill="#af1699"/><text x="47.0" y="131.0" fill="#ffffff" style="font-family: &quot;DejaVu Sans Mono&quot;, &quot;Consolas&quot;, &quot;Menlo&quot;, &quot;Liberation Mono&quot;, monospace; font-size: 16.0px;" text-anchor="middle" dominant-baseline="central">fJTp</text><polygon points="23.0,141.0 23.0,131.0 33.0,141.0" fill="#ffffff"/></g><g data-channel="cell" data-cell-index="7" data-cell-row="2" data-cell-col="1"><rect x="83.0" y="121.0" width="48.0" height="20.0" fill="#2ea571"/><text x="107.0" y="131.0" fill="#000000" style="font-family: &quot;DejaVu Sans Mono&quot;, &quot;Consolas&quot;, &quot;Menlo&quot;, &quot;Liberation Mono&quot;, monospace; font-size: 16.0px;" text-anchor="middle" dominant-baseline="central">VTMo</text></g><g data-channel="cell" data-cell-index="8" data-cell-row="2" data-cell-col="2" data-cell-quartile="1"><rect x="143.0" y="121.0" width="48.0" height="20.0" fill="#055014"/><text x="167.0" y="131.0" fill="#ffffff" style="font-family: &quot;DejaVu Sans Mono&quot;, &quot;Consolas&quot;, &quot;Menlo&quot;, &quot;Liberation Mono&quot;, monospace; font-size: 16.0px;" text-anchor="middle" dominant-baseline="central">6</text><polygon points="143.0,121.0 153.0,121.0 143.0,131.0" fill="#ffffff"/></g></g></g><g data-channel="color-bar"><g data-color-bar-rank="0" data-color-bar-band="W"><rect x="1" y="1" width="10.0" height="71.64854163059138" fill="#ffffff"/><text x="6.0" y="36.82427081529569" fill="#000000" style="font-family: &quot;DejaVu Sans Mono&quot;, &quot;Consolas&quot;, &quot;Menlo&quot;, &quot;Liberation Mono&quot;, monospace; font-size: 43px;" text-anchor="middle" dominant-baseline="central" data-color-bar-letter="true">W</text></g><g data-color-bar-rank="1" data-color-bar-band="K"><rect x="1" y="72.64854163059138" width="10.0" height="50.84112188045676" fill="#000000"/><text x="6.0" y="98.06910257081977" fill="#ffffff" style="font-family: &quot;DejaVu Sans Mono&quot;, &quot;Consolas&quot;, &quot;Menlo&quot;, &quot;Liberation Mono&quot;, monospace; font-size: 31px;" text-anchor="middle" dominant-baseline="central" data-color-bar-letter="true">K</text></g><g data-color-bar-rank="2" data-color-bar-band="R"><rect x="1" y="123.48966351104815" width="10.0" height="32.697979411205935" fill="#ff3f2f"/><text x="6.0" y="139.83865321665112" fill="#000000" style="font-family: &quot;DejaVu Sans Mono&quot;, &quot;Consolas&quot;, &quot;Menlo&quot;, &quot;Liberation Mono&quot;, monospace; font-size: 20px;" text-anchor="middle" dominant-baseline="central" data-color-bar-letter="true">R</text></g><g data-color-bar-rank="3" data-color-bar-band="G"><rect x="1" y="156.1876429222541" width="10.0" height="24.8123570777459" fill="#ffd966"/><text x="6.0" y="168.59382146112705" fill="#000000" style="font-family: &quot;DejaVu Sans Mono&quot;, &quot;Consolas&quot;, &quot;Menlo&quot;, &quot;Liberation Mono&quot;, monospace; font-size: 15px;" text-anchor="middle" dominant-baseline="central" data-color-bar-letter="true">G</text></g></g><g data-channel="label-top"><text x="17.0" y="16.0" fill="#666666" style="font-family: &quot;DejaVu Sans Mono&quot;, &quot;Consolas&quot;, &quot;Menlo&quot;, &quot;Liberation Mono&quot;, monospace; font-size: 12.0px;" dominant-baseline="central">BTC legacy: 1...</text></g><g data-channel="label-bottom"><text x="197.0" y="166.0" fill="#666666" style="font-family: &quot;DejaVu Sans Mono&quot;, &quot;Consolas&quot;, &quot;Menlo&quot;, &quot;Liberation Mono&quot;, monospace; font-size: 12.0px;" text-anchor="end" dominant-baseline="central">...gxa6</text></g><line x1="0" y1="0.5" x2="203.0" y2="0.5" stroke="#808080" stroke-width="1" shape-rendering="crispEdges"/><line x1="202.5" y1="0" x2="202.5" y2="182.0" stroke="#808080" stroke-width="1" shape-rendering="crispEdges"/><line x1="0" y1="181.5" x2="203.0" y2="181.5" stroke="#808080" stroke-width="1" shape-rendering="crispEdges"/><line x1="0.5" y1="0" x2="0.5" y2="182.0" stroke="#808080" stroke-width="1" shape-rendering="crispEdges"/><line x1="11.5" y1="0" x2="11.5" y2="182.0" stroke="#808080" stroke-width="1" shape-rendering="crispEdges"/></svg>