<svg width="203.0" height="182.0" xmlns="http://www.w3.org/2000/svg"><defs><clipPath id="grid-clip-1b8ad328-3x3"><rect x="17.0" y="31.0" width="180.0" height="120.0"/></clipPath></defs><rect x="0" y="0" width="203.0" height="182.0" fill="#ffffff"/><rect x="17.0" y="31.0" width="180.0" height="120.0" fill="#2f3fbf"/><rect x="17.0" y="31.0" width="6.0" height="10.0" fill="#ffd966"/><rect x="23.0" y="31.0" width="6.0" height="10.0" fill="#ffd966"/><rect x="41.0" y="31.0" width="6.0" height="10.0" fill="#ffd966"/><rect x="53.0" y="31.0" width="6.0" height="10.0" fill="#ffd966"/><rect x="59.0" y="31.0" width="6.0" height="10.0" fill="#ffd966"/><rect x="71.0" y="31.0" width="6.0" height="10.0" fill="#ffd966"/><rect x="71.0" y="51.0" width="6.0" height="10.0" fill="#ffd966"/><rect x="53.0" y="61.0" width="6.0" height="10.0" fill="#ffd966"/><rect x="47.0" y="61.0" width="6.0" height="10.0" fill="#ffd966"/><rect x="41.0" y="61.0" width="6.0" height="10.0" fill="#ffd966"/><rect x="29.0" y="61.0" width="6.0" height="10.0" fill="#ffd966"/><rect x="23.0" y="61.0" width="6.0" height="10.0" fill="#ffd966"/><rect x="101.0" y="31.0" width="6.0" height="10.0" fill="#ffd966"/><rect x="107.0" y="31.0" width="6.0" height="10.0" fill="#ffd966"/><rect x="113.0" y="31.0" width="6.0" height="10.0" fill="#ffd966"/><rect x="119.0" y="31.0" width="6.0" height="10.0" fill="#ffd966"/><rect x="125.0" y="31.0" width="6.0" height="10.0" fill="#ffd966"/><rect x="131.0" y="31.0" width="6.0" height="10.0" fill="#ffd966"/><rect x="131.0" y="41.0" width="6.0" height="10.0" fill="#ffd966"/><rect x="125.0" y="61.0" width="6.0" height="10.0" fill="#ffd966"/><rect x="119.0" y="61.0" width="6.0" height="10.0" fill="#ffd966"/><rect x="89.0" y="61.0" width="6.0" height="10.0" fill="#ffd966"/><rect x="77.0" y="61.0" width="6.0" height="10.0" fill="#ffd966"/><rect x="137.0" y="31.0" width="6.0" height="10.0" fill="#ffd966"/><rect x="143.0" y="31.0" width="6.0" height="10.0" fill="#ffd966"/><rect x="155.0" y="31.0" width="6.0" height="10.0" fill="#ffd966"/><rect x="191.0" y="31.0" width="6.0" height="10.0" fill="#ffd966"/><rect x="191.0" y="41.0" width="6.0" height="10.0" fill="#ffd966"/><rect x="173.0" y="61.0" width="6.0" height="10.0" fill="#ffd966"/><rect x="149.0" y="61.0" width="6.0" height="10.0" fill="#ffd966"/><rect x="137.0" y="61.0" width="6.0" height="10.0" fill="#ffd966"/><rect x="137.0" y="51.0" width="6.0" height="10.0" fill="#ffd966"/><rect x="137.0" y="41.0" width="6.0" height="10.0" fill="#ffd966"/><rect x="17.0" y="71.0" width="6.0" height="10.0" fill="#ff3f2f"/><rect x="47.0" y="71.0" width="6.0" height="10.0" fill="#ff3f2f"/><rect x="65.0" y="71.0" width="6.0" height="10.0" fill="#ff3f2f"/><rect x="71.0" y="71.0" width="6.0" height="10.0" fill="#ff3f2f"/><rect x="35.0" y="101.0" width="6.0" height="10.0" fill="#ff3f2f"/><rect x="17.0" y="81.0" width="6.0" height="10.0" fill="#ff3f2f"/><rect x="89.0" y="71.0" width="6.0" height="10.0" fill="#ffd966"/><rect x="95.0" y="71.0" width="6.0" height="10.0" fill="#ffd966"/><rect x="101.0" y="71.0" width="6.0" height="10.0" fill="#ffd966"/><rect x="113.0" y="71.0" width="6.0" height="10.0" fill="#ffd966"/><rect x="125.0" y="71.0" width="6.0" height="10.0" fill="#ffd966"/><rect x="131.0" y="101.0" width="6.0" height="10.0" fill="#ffd966"/><rect x="125.0" y="101.0" width="6.0" height="10.0" fill="#ffd966"/><rect x="113.0" y="101.0" width="6.0" height="10.0" fill="#ffd966"/><rect x="95.0" y="101.0" width="6.0" height="10.0" fill="#ffd966"/><rect x="89.0" y="101.0" width="6.0" height="10.0" fill="#ffd966"/><rect x="17.0" y="111.0" width="6.0" height="10.0" fill="#ff3f2f"/><rect x="23.0" y="111.0" width="6.0" height="10.0" fill="#ff3f2f"/><rect x="47.0" y="111.0" width="6.0" height="10.0" fill="#ff3f2f"/><rect x="53.0" y="111.0" width="6.0" height="10.0" fill="#ff3f2f"/><rect x="65.0" y="111.0" width="6.0" height="10.0" fill="#ff3f2f"/><rect x="71.0" y="141.0" width="6.0" height="10.0" fill="#ff3f2f"/><rect x="65.0" y="141.0" width="6.0" height="10.0" fill="#ff3f2f"/><rect x="59.0" y="141.0" width="6.0" height="10.0" fill="#ff3f2f"/><rect x="53.0" y="141.0" width="6.0" height="10.0" fill="#ff3f2f"/><rect x="41.0" y="141.0" width="6.0" height="10.0" fill="#ff3f2f"/><rect x="29.0" y="141.0" width="6.0" height="10.0" fill="#ff3f2f"/><rect x="23.0" y="141.0" width="6.0" height="10.0" fill="#ff3f2f"/><rect x="77.0" y="111.0" width="6.0" height="10.0" fill="#ffd966"/><rect x="113.0" y="111.0" width="6.0" height="10.0" fill="#ffd966"/><rect x="131.0" y="111.0" width="6.0" height="10.0" fill="#ffd966"/><rect x="131.0" y="141.0" width="6.0" height="10.0" fill="#ffd966"/><rect x="125.0" y="141.0" width="6.0" height="10.0" fill="#ffd966"/><rect x="119.0" y="141.0" width="6.0" height="10.0" fill="#ffd966"/><rect x="113.0" y="141.0" width="6.0" height="10.0" fill="#ffd966"/><rect x="107.0" y="141.0" width="6.0" height="10.0" fill="#ffd966"/><rect x="95.0" y="141.0" width="6.0" height="10.0" fill="#ffd966"/><rect x="77.0" y="121.0" width="6.0" height="10.0" fill="#ffd966"/><rect x="173.0" y="111.0" width="6.0" height="10.0" fill="#000000"/><rect x="185.0" y="141.0" width="6.0" height="10.0" fill="#000000"/><rect x="179.0" y="141.0" width="6.0" height="10.0" fill="#000000"/><rect x="167.0" y="141.0" width="6.0" height="10.0" fill="#000000"/><rect x="155.0" y="141.0" width="6.0" height="10.0" fill="#000000"/><rect x="149.0" y="141.0" width="6.0" height="10.0" fill="#000000"/><rect x="137.0" y="131.0" width="6.0" height="10.0" fill="#000000"/><rect x="137.0" y="121.0" width="6.0" height="10.0" fill="#000000"/><g clip-path="url(#grid-clip-1b8ad328-3x3)"><ellipse cx="137.0" cy="31.0" rx="67.88225099390857" ry="40.0" transform="rotate(156.0 137.0 31.0)" fill="#ffffff" fill-opacity="0.4"/></g><rect x="23.0" y="41.0" width="48.0" height="20.0" fill="#ef9655"/><text x="47.0" y="51.0" fill="#000000" style="font-family: monospace; font-size: 16.0px;" text-anchor="middle" dominant-baseline="central">NSUp</text><rect x="83.0" y="41.0" width="48.0" height="20.0" fill="#898391"/><text x="107.0" y="51.0" fill="#000000" style="font-family: monospace; font-size: 16.0px;" text-anchor="middle" dominant-baseline="central">dRFA</text><rect x="143.0" y="41.0" width="48.0" height="20.0" fill="#9fd08a"/><text x="167.0" y="51.0" fill="#000000" style="font-family: monospace; font-size: 16.0px;" text-anchor="middle" dominant-baseline="central">bn3Y</text><rect x="23.0" y="81.0" width="48.0" height="20.0" fill="#950a06"/><text x="47.0" y="91.0" fill="#ffffff" style="font-family: monospace; font-size: 16.0px;" text-anchor="middle" dominant-baseline="central">2ZjN</text><rect x="83.0" y="81.0" width="48.0" height="20.0" fill="#95d91e"/><text x="107.0" y="91.0" fill="#000000" style="font-family: monospace; font-size: 16.0px;" text-anchor="middle" dominant-baseline="central">8nfN</text><rect x="23.0" y="121.0" width="48.0" height="20.0" fill="#af1699"/><text x="47.0" y="131.0" fill="#ffffff" style="font-family: monospace; font-size: 16.0px;" text-anchor="middle" dominant-baseline="central">fJTp</text><rect x="83.0" y="121.0" width="48.0" height="20.0" fill="#2ea571"/><text x="107.0" y="131.0" fill="#000000" style="font-family: monospace; font-size: 16.0px;" text-anchor="middle" dominant-baseline="central">VTMo</text><rect x="143.0" y="121.0" width="48.0" height="20.0" fill="#055014"/><text x="167.0" y="131.0" fill="#ffffff" style="font-family: monospace; font-size: 16.0px;" text-anchor="middle" dominant-baseline="central">6</text><circle cx="167.0" cy="91.0" r="17.0" fill="#ffffff" stroke="#000000" stroke-width="1"/><line x1="167.0" y1="91.0" x2="167.0" y2="73.0" stroke="#ffffff" style="mix-blend-mode: difference" stroke-width="1"/><line x1="167.0" y1="91.0" x2="158.5" y2="91.0" stroke="#000000" stroke-width="1"/><circle cx="158.5" cy="91.0" r="1.5" fill="#ffffff" stroke="#000000" stroke-width="1"/><polygon points="143.0,121.0 153.0,121.0 143.0,131.0" fill="#ffffff"/><polygon points="191.0,41.0 181.0,41.0 191.0,51.0" fill="#000000"/><polygon points="131.0,101.0 131.0,91.0 121.0,101.0" fill="#000000"/><polygon points="23.0,141.0 23.0,131.0 33.0,141.0" fill="#ffffff"/><rect x="1" y="1" width="10.0" height="71.64854163059138" fill="#ffffff"/><rect x="1" y="72.64854163059138" width="10.0" height="50.84112188045676" fill="#000000"/><rect x="1" y="123.48966351104815" width="10.0" height="32.697979411205935" fill="#ff3f2f"/><rect x="1" y="156.1876429222541" width="10.0" height="24.8123570777459" fill="#ffd966"/><text x="17.0" y="16.0" fill="#666666" style="font-family: monospace; font-size: 12.0px;" dominant-baseline="central">BTC legacy: 1...</text><text x="197.0" y="166.0" fill="#666666" style="font-family: monospace; font-size: 12.0px;" text-anchor="end" dominant-baseline="central">...gxa6</text><line x1="0" y1="0.5" x2="203.0" y2="0.5" stroke="#808080" stroke-width="1" shape-rendering="crispEdges"/><line x1="202.5" y1="0" x2="202.5" y2="182.0" stroke="#808080" stroke-width="1" shape-rendering="crispEdges"/><line x1="0" y1="181.5" x2="203.0" y2="181.5" stroke="#808080" stroke-width="1" shape-rendering="crispEdges"/><line x1="0.5" y1="0" x2="0.5" y2="182.0" stroke="#808080" stroke-width="1" shape-rendering="crispEdges"/><line x1="11.5" y1="0" x2="11.5" y2="182.0" stroke="#808080" stroke-width="1" shape-rendering="crispEdges"/></svg>