<svg width="213" height="152" viewBox="0 0 213 152" xmlns="http://www.w3.org/2000/svg" data-entviz-version="v10" data-entviz-lib="0.10.0" data-input-bytes="26" data-cols="3" data-rows="3"><defs><clipPath id="grid-clip-0e6b225fc402b4c8-3x3"><rect x="27" y="26" width="180" height="120"/></clipPath></defs><rect x="0" y="0" width="213" height="152" fill="#ffffff"/><g data-channel="grid"><rect x="27" y="26" width="180" height="120" fill="#ff3f2f"/><g><rect x="33" y="26" width="6" height="10" fill="#2f3fbf"/><rect x="57" y="26" width="6" height="10" fill="#2f3fbf"/><rect x="75" y="26" width="6" height="10" fill="#2f3fbf"/><rect x="81" y="26" width="6" height="10" fill="#2f3fbf"/><rect x="81" y="46" width="6" height="10" fill="#2f3fbf"/><rect x="75" y="56" width="6" height="10" fill="#2f3fbf"/><rect x="69" y="56" width="6" height="10" fill="#2f3fbf"/><rect x="51" y="56" width="6" height="10" fill="#2f3fbf"/><rect x="45" y="56" width="6" height="10" fill="#2f3fbf"/><rect x="39" y="56" width="6" height="10" fill="#2f3fbf"/><rect x="93" y="26" width="6" height="10" fill="#2f3fbf"/><rect x="141" y="36" width="6" height="10" fill="#2f3fbf"/><rect x="129" y="56" width="6" height="10" fill="#2f3fbf"/><rect x="123" y="56" width="6" height="10" fill="#2f3fbf"/><rect x="117" y="56" width="6" height="10" fill="#2f3fbf"/><rect x="111" y="56" width="6" height="10" fill="#2f3fbf"/><rect x="105" y="56" width="6" height="10" fill="#2f3fbf"/><rect x="99" y="56" width="6" height="10" fill="#2f3fbf"/><rect x="93" y="56" width="6" height="10" fill="#2f3fbf"/><rect x="87" y="46" width="6" height="10" fill="#2f3fbf"/><rect x="27" y="66" width="6" height="10" fill="#e7be00"/><rect x="33" y="66" width="6" height="10" fill="#e7be00"/><rect x="39" y="66" width="6" height="10" fill="#e7be00"/><rect x="57" y="66" width="6" height="10" fill="#e7be00"/><rect x="63" y="66" width="6" height="10" fill="#e7be00"/><rect x="81" y="86" width="6" height="10" fill="#e7be00"/><rect x="69" y="96" width="6" height="10" fill="#e7be00"/><rect x="63" y="96" width="6" height="10" fill="#e7be00"/><rect x="45" y="96" width="6" height="10" fill="#e7be00"/><rect x="33" y="96" width="6" height="10" fill="#e7be00"/><rect x="27" y="96" width="6" height="10" fill="#e7be00"/><rect x="27" y="76" width="6" height="10" fill="#e7be00"/><rect x="153" y="66" width="6" height="10" fill="#2f3fbf"/><rect x="159" y="66" width="6" height="10" fill="#2f3fbf"/><rect x="165" y="66" width="6" height="10" fill="#2f3fbf"/><rect x="177" y="66" width="6" height="10" fill="#2f3fbf"/><rect x="195" y="66" width="6" height="10" fill="#2f3fbf"/><rect x="201" y="86" width="6" height="10" fill="#2f3fbf"/><rect x="201" y="96" width="6" height="10" fill="#2f3fbf"/><rect x="195" y="96" width="6" height="10" fill="#2f3fbf"/><rect x="189" y="96" width="6" height="10" fill="#2f3fbf"/><rect x="177" y="96" width="6" height="10" fill="#2f3fbf"/><rect x="171" y="96" width="6" height="10" fill="#2f3fbf"/><rect x="153" y="96" width="6" height="10" fill="#2f3fbf"/><rect x="147" y="96" width="6" height="10" fill="#2f3fbf"/><rect x="147" y="86" width="6" height="10" fill="#2f3fbf"/><rect x="33" y="106" width="6" height="10" fill="#2f3fbf"/><rect x="39" y="106" width="6" height="10" fill="#2f3fbf"/><rect x="45" y="106" width="6" height="10" fill="#2f3fbf"/><rect x="69" y="106" width="6" height="10" fill="#2f3fbf"/><rect x="75" y="106" width="6" height="10" fill="#2f3fbf"/><rect x="81" y="106" width="6" height="10" fill="#2f3fbf"/><rect x="81" y="116" width="6" height="10" fill="#2f3fbf"/><rect x="81" y="126" width="6" height="10" fill="#2f3fbf"/><rect x="81" y="136" width="6" height="10" fill="#2f3fbf"/><rect x="69" y="136" width="6" height="10" fill="#2f3fbf"/><rect x="63" y="136" width="6" height="10" fill="#2f3fbf"/><rect x="57" y="136" width="6" height="10" fill="#2f3fbf"/><rect x="39" y="136" width="6" height="10" fill="#2f3fbf"/><rect x="33" y="136" width="6" height="10" fill="#2f3fbf"/><rect x="27" y="136" width="6" height="10" fill="#2f3fbf"/><rect x="27" y="126" width="6" height="10" fill="#2f3fbf"/><rect x="87" y="106" width="6" height="10" fill="#2f3fbf"/><rect x="99" y="106" width="6" height="10" fill="#2f3fbf"/><rect x="105" y="106" width="6" height="10" fill="#2f3fbf"/><rect x="123" y="106" width="6" height="10" fill="#2f3fbf"/><rect x="135" y="106" width="6" height="10" fill="#2f3fbf"/><rect x="141" y="106" width="6" height="10" fill="#2f3fbf"/><rect x="141" y="136" width="6" height="10" fill="#2f3fbf"/><rect x="123" y="136" width="6" height="10" fill="#2f3fbf"/><rect x="117" y="136" width="6" height="10" fill="#2f3fbf"/><rect x="99" y="136" width="6" height="10" fill="#2f3fbf"/><rect x="93" y="136" width="6" height="10" fill="#2f3fbf"/><rect x="87" y="136" width="6" height="10" fill="#2f3fbf"/><rect x="87" y="126" width="6" height="10" fill="#2f3fbf"/><rect x="87" y="116" width="6" height="10" fill="#2f3fbf"/><rect x="147" y="106" width="6" height="10" fill="#2f3fbf"/><rect x="153" y="106" width="6" height="10" fill="#2f3fbf"/><rect x="159" y="106" width="6" height="10" fill="#2f3fbf"/><rect x="165" y="106" width="6" height="10" fill="#2f3fbf"/><rect x="201" y="106" width="6" height="10" fill="#2f3fbf"/><rect x="201" y="116" width="6" height="10" fill="#2f3fbf"/><rect x="195" y="136" width="6" height="10" fill="#2f3fbf"/><rect x="189" y="136" width="6" height="10" fill="#2f3fbf"/><rect x="183" y="136" width="6" height="10" fill="#2f3fbf"/><rect x="177" y="136" width="6" height="10" fill="#2f3fbf"/><rect x="171" y="136" width="6" height="10" fill="#2f3fbf"/><rect x="153" y="136" width="6" height="10" fill="#2f3fbf"/><rect x="147" y="136" width="6" height="10" fill="#2f3fbf"/><rect x="147" y="116" width="6" height="10" fill="#2f3fbf"/></g><g clip-path="url(#grid-clip-0e6b225fc402b4c8-3x3)" data-channel="ellipse" data-ellipse-anchor-x="207" data-ellipse-anchor-y="146" data-ellipse-rx="125.473" data-ellipse-ry="109.897" data-ellipse-rotation-deg="144"><ellipse cx="207" cy="146" rx="125.473" ry="109.897" transform="rotate(144 207 146)" fill="#000000" stroke="#000000" fill-opacity="0.25" stroke-opacity="0.35" stroke-width="2"/></g><g><g data-channel="cell" data-cell-index="0" data-cell-row="0" data-cell-col="0" data-cell-quartile="3"><rect x="33" y="36" width="48" height="20" fill="#885500"/><text x="57" y="46" fill="#ffffff" style="font-family: &quot;JetBrains Mono&quot;, &quot;Menlo&quot;, &quot;Consolas&quot;, &quot;DejaVu Sans Mono&quot;, &quot;Liberation Mono&quot;, &quot;Roboto Mono&quot;, &quot;Noto Sans Mono&quot;, monospace; font-size: 16px;" text-anchor="middle" dominant-baseline="central">01AR</text><polygon points="81,56 81,46 71,56" fill="#ffffff"/></g><g data-channel="cell" data-cell-index="1" data-cell-row="0" data-cell-col="1" data-cell-quartile="1"><rect x="93" y="36" width="48" height="20" fill="#ddeaf8"/><text x="117" y="46" fill="#000000" style="font-family: &quot;JetBrains Mono&quot;, &quot;Menlo&quot;, &quot;Consolas&quot;, &quot;DejaVu Sans Mono&quot;, &quot;Liberation Mono&quot;, &quot;Roboto Mono&quot;, &quot;Noto Sans Mono&quot;, monospace; font-size: 16px;" text-anchor="middle" dominant-baseline="central">Z3ND</text><polygon points="93,36 103,36 93,46" fill="#000000"/></g><g data-channel="cell" data-cell-index="2" data-cell-row="0" data-cell-col="2" data-cell-blank="true" data-cell-blank-map="true"><rect x="153" y="36" width="48" height="20" rx="10" ry="10" fill="#ffffff" stroke="#000000" stroke-width="1"/><circle cx="161" cy="39.333" r="3.5" fill="#1d4ed8" data-blank-map-min="0,0"/><path d="M 172.8,52.667 H 181.2 M 177,48.467 V 56.867" fill="none" stroke="#d62828" stroke-width="1.925" stroke-linecap="butt" data-blank-map-max="2,1"/></g><g data-channel="cell" data-cell-index="3" data-cell-row="1" data-cell-col="0"><rect x="33" y="76" width="48" height="20" fill="#99f574"/><text x="57" y="86" fill="#000000" style="font-family: &quot;JetBrains Mono&quot;, &quot;Menlo&quot;, &quot;Consolas&quot;, &quot;DejaVu Sans Mono&quot;, &quot;Liberation Mono&quot;, &quot;Roboto Mono&quot;, &quot;Noto Sans Mono&quot;, monospace; font-size: 16px;" text-anchor="middle" dominant-baseline="central">EKTS</text></g><g data-channel="cell" data-cell-index="4" data-cell-row="1" data-cell-col="1" data-cell-blank="true"><rect x="93" y="76" width="48" height="20" rx="10" ry="10" fill="#ffffff" stroke="#000000" stroke-width="1"/></g><g data-channel="cell" data-cell-index="5" data-cell-row="1" data-cell-col="2" data-cell-quartile="4"><rect x="153" y="76" width="48" height="20" fill="#8831d9"/><text x="177" y="86" fill="#ffffff" style="font-family: &quot;JetBrains Mono&quot;, &quot;Menlo&quot;, &quot;Consolas&quot;, &quot;DejaVu Sans Mono&quot;, &quot;Liberation Mono&quot;, &quot;Roboto Mono&quot;, &quot;Noto Sans Mono&quot;, monospace; font-size: 16px;" text-anchor="middle" dominant-baseline="central">V4RR</text><polygon points="153,96 153,86 163,96" fill="#ffffff"/></g><g data-channel="cell" data-cell-index="6" data-cell-row="2" data-cell-col="0" data-cell-quartile="2"><rect x="33" y="116" width="48" height="20" fill="#66ee7b"/><text x="57" y="126" fill="#000000" style="font-family: &quot;JetBrains Mono&quot;, &quot;Menlo&quot;, &quot;Consolas&quot;, &quot;DejaVu Sans Mono&quot;, &quot;Liberation Mono&quot;, &quot;Roboto Mono&quot;, &quot;Noto Sans Mono&quot;, monospace; font-size: 16px;" text-anchor="middle" dominant-baseline="central">FFQ6</text><polygon points="81,116 71,116 81,126" fill="#000000"/></g><g data-channel="cell" data-cell-index="7" data-cell-row="2" data-cell-col="1"><rect x="93" y="116" width="48" height="20" fill="#ff0a4c"/><text x="117" y="126" fill="#000000" style="font-family: &quot;JetBrains Mono&quot;, &quot;Menlo&quot;, &quot;Consolas&quot;, &quot;DejaVu Sans Mono&quot;, &quot;Liberation Mono&quot;, &quot;Roboto Mono&quot;, &quot;Noto Sans Mono&quot;, monospace; font-size: 16px;" text-anchor="middle" dominant-baseline="central">9G5F</text></g><g data-channel="cell" data-cell-index="8" data-cell-row="2" data-cell-col="2"><rect x="153" y="116" width="48" height="20" fill="#115450"/><text x="177" y="126" fill="#ffffff" style="font-family: &quot;JetBrains Mono&quot;, &quot;Menlo&quot;, &quot;Consolas&quot;, &quot;DejaVu Sans Mono&quot;, &quot;Liberation Mono&quot;, &quot;Roboto Mono&quot;, &quot;Noto Sans Mono&quot;, monospace; font-size: 16px;" text-anchor="middle" dominant-baseline="central">A1</text></g></g></g><g data-channel="color-bar" data-bar-slots="12" data-bar-marker-left="8" data-bar-marker-right="3"><g data-color-bar-rank="0" data-color-bar-band="B"><rect x="1" y="1" width="20" height="23.917" fill="#2f3fbf"/><text x="11" y="21.397" fill="#ffffff" style="font-family: &quot;JetBrains Mono&quot;, &quot;Menlo&quot;, &quot;Consolas&quot;, &quot;DejaVu Sans Mono&quot;, &quot;Liberation Mono&quot;, &quot;Roboto Mono&quot;, &quot;Noto Sans Mono&quot;, monospace; font-size: 16px;" text-anchor="middle" data-color-bar-letter="true">b</text></g><g data-color-bar-rank="1" data-color-bar-band="K"><rect x="1" y="24.917" width="20" height="73.058" fill="#000000"/><text x="11" y="94.455" fill="#ffffff" style="font-family: &quot;JetBrains Mono&quot;, &quot;Menlo&quot;, &quot;Consolas&quot;, &quot;DejaVu Sans Mono&quot;, &quot;Liberation Mono&quot;, &quot;Roboto Mono&quot;, &quot;Noto Sans Mono&quot;, monospace; font-size: 16px;" text-anchor="middle" data-color-bar-letter="true">k</text></g><g data-color-bar-rank="2" data-color-bar-band="W"><rect x="1" y="97.975" width="20" height="15.574" fill="#ffffff"/><text x="11" y="110.029" fill="#000000" style="font-family: &quot;JetBrains Mono&quot;, &quot;Menlo&quot;, &quot;Consolas&quot;, &quot;DejaVu Sans Mono&quot;, &quot;Liberation Mono&quot;, &quot;Roboto Mono&quot;, &quot;Noto Sans Mono&quot;, monospace; font-size: 16px;" text-anchor="middle" data-color-bar-letter="true">w</text></g><g data-color-bar-rank="3" data-color-bar-band="G"><rect x="1" y="113.549" width="20" height="37.451" fill="#e7be00"/><text x="11" y="147.48" fill="#000000" style="font-family: &quot;JetBrains Mono&quot;, &quot;Menlo&quot;, &quot;Consolas&quot;, &quot;DejaVu Sans Mono&quot;, &quot;Liberation Mono&quot;, &quot;Roboto Mono&quot;, &quot;Noto Sans Mono&quot;, monospace; font-size: 16px;" text-anchor="middle" data-color-bar-letter="true">g</text></g><circle cx="5.6" cy="107.25" r="3.4" fill="#ffffff" stroke="#000000" stroke-width="0.75" data-bar-marker="left"/><circle cx="16.4" cy="44.75" r="3.4" fill="#ffffff" stroke="#000000" stroke-width="0.75" data-bar-marker="right"/></g><g data-channel="label-top"><text x="27" y="16" fill="#666666" style="font-family: &quot;JetBrains Mono&quot;, &quot;Menlo&quot;, &quot;Consolas&quot;, &quot;DejaVu Sans Mono&quot;, &quot;Liberation Mono&quot;, &quot;Roboto Mono&quot;, &quot;Noto Sans Mono&quot;, monospace; font-size: 12px;" dominant-baseline="central">ULID:</text></g><line x1="0" y1="0.5" x2="213" y2="0.5" stroke="#808080" stroke-width="1" shape-rendering="crispEdges"/><line x1="212.5" y1="0" x2="212.5" y2="152" stroke="#808080" stroke-width="1" shape-rendering="crispEdges"/><line x1="0" y1="151.5" x2="213" y2="151.5" stroke="#808080" stroke-width="1" shape-rendering="crispEdges"/><line x1="0.5" y1="0" x2="0.5" y2="152" stroke="#808080" stroke-width="1" shape-rendering="crispEdges"/><line x1="21.5" y1="0" x2="21.5" y2="152" stroke="#808080" stroke-width="1" shape-rendering="crispEdges"/></svg>