<svg width="215" height="154" viewBox="0 0 215 154" xmlns="http://www.w3.org/2000/svg" font-family="&quot;JetBrains Mono&quot;, &quot;Menlo&quot;, &quot;Consolas&quot;, &quot;DejaVu Sans Mono&quot;, &quot;Liberation Mono&quot;, &quot;Roboto Mono&quot;, &quot;Noto Sans Mono&quot;, monospace" data-entviz-version="v15" data-entviz-lib="0.15.0" data-input-bytes="26" data-cols="3" data-rows="3" data-encoding="crockford32" data-scheme="ulid" data-role="identifier" data-size-basis="decoded" data-entropy-type="ulid" data-size-bits="128" data-qualifiers="{}" data-parts="[{&quot;text&quot;:&quot;01ARZ3NDEKTSV4RRFFQ69G5FA1&quot;,&quot;bind&quot;:&quot;core&quot;}]"><defs><clipPath id="grid-clip-0e6b225fc402b4c8-3x3"><rect x="28" y="27" width="180" height="120"/></clipPath></defs><rect x="1" y="1" width="213" height="152" fill="#ffffff"/><g data-channel="grid"><rect x="28" y="27" width="180" height="120" fill="#ff3f2f"/><g><path fill="#2f3fbf" d="M34 27h6v10h-6zM58 27h6v10h-6zM76 27h6v10h-6zM82 27h6v10h-6zM82 47h6v10h-6zM76 57h6v10h-6zM70 57h6v10h-6zM52 57h6v10h-6zM46 57h6v10h-6zM40 57h6v10h-6z"/><path fill="#2f3fbf" d="M94 27h6v10h-6zM142 37h6v10h-6zM130 57h6v10h-6zM124 57h6v10h-6zM118 57h6v10h-6zM112 57h6v10h-6zM106 57h6v10h-6zM100 57h6v10h-6zM94 57h6v10h-6zM88 47h6v10h-6z"/><path fill="#e7be00" d="M28 67h6v10h-6zM34 67h6v10h-6zM40 67h6v10h-6zM58 67h6v10h-6zM64 67h6v10h-6zM82 87h6v10h-6zM70 97h6v10h-6zM64 97h6v10h-6zM46 97h6v10h-6zM34 97h6v10h-6zM28 97h6v10h-6zM28 77h6v10h-6z"/><path fill="#2f3fbf" d="M154 67h6v10h-6zM160 67h6v10h-6zM166 67h6v10h-6zM178 67h6v10h-6zM196 67h6v10h-6zM202 87h6v10h-6zM202 97h6v10h-6zM196 97h6v10h-6zM190 97h6v10h-6zM178 97h6v10h-6zM172 97h6v10h-6zM154 97h6v10h-6zM148 97h6v10h-6zM148 87h6v10h-6z"/><path fill="#2f3fbf" d="M34 107h6v10h-6zM40 107h6v10h-6zM46 107h6v10h-6zM70 107h6v10h-6zM76 107h6v10h-6zM82 107h6v10h-6zM82 117h6v10h-6zM82 127h6v10h-6zM82 137h6v10h-6zM70 137h6v10h-6zM64 137h6v10h-6zM58 137h6v10h-6zM40 137h6v10h-6zM34 137h6v10h-6zM28 137h6v10h-6zM28 127h6v10h-6z"/><path fill="#2f3fbf" d="M88 107h6v10h-6zM100 107h6v10h-6zM106 107h6v10h-6zM124 107h6v10h-6zM136 107h6v10h-6zM142 107h6v10h-6zM142 137h6v10h-6zM124 137h6v10h-6zM118 137h6v10h-6zM100 137h6v10h-6zM94 137h6v10h-6zM88 137h6v10h-6zM88 127h6v10h-6zM88 117h6v10h-6z"/><path fill="#2f3fbf" d="M148 107h6v10h-6zM154 107h6v10h-6zM160 107h6v10h-6zM166 107h6v10h-6zM202 107h6v10h-6zM202 117h6v10h-6zM196 137h6v10h-6zM190 137h6v10h-6zM184 137h6v10h-6zM178 137h6v10h-6zM172 137h6v10h-6zM154 137h6v10h-6zM148 137h6v10h-6zM148 117h6v10h-6z"/></g><g clip-path="url(#grid-clip-0e6b225fc402b4c8-3x3)" data-channel="ellipse" data-ellipse-anchor-x="208" data-ellipse-anchor-y="147" data-ellipse-rx="125.473" data-ellipse-ry="109.897" data-ellipse-rotation-deg="144"><ellipse cx="208" cy="147" rx="125.473" ry="109.897" transform="rotate(144 208 147)" fill="#000000" stroke="#000000" fill-opacity="0.25" stroke-opacity="0.35" stroke-width="2"/></g><g><g data-channel="cell" data-cell-index="0" data-cell-row="0" data-cell-col="0" data-surround-bits="0xe6b22" data-edge-color="#2f3fbf" data-cell-quartile="3"><rect x="34" y="37" width="48" height="20" fill="#885500"/><text x="58" y="47" fill="#ffffff" font-size="16" text-anchor="middle" dominant-baseline="central">01AR</text><polygon points="82,57 82,47 72,57" fill="#ffffff"/></g><g data-channel="cell" data-cell-index="1" data-cell-row="0" data-cell-col="1" data-surround-bits="0x5fc402" data-edge-color="#2f3fbf" data-cell-quartile="1"><rect x="94" y="37" width="48" height="20" fill="#ddeaf8"/><text x="118" y="47" fill="#000000" font-size="16" text-anchor="middle" dominant-baseline="central">Z3ND</text><polygon points="94,37 104,37 94,47" fill="#000000"/></g><g data-channel="cell" data-cell-index="2" data-cell-row="0" data-cell-col="2" data-cell-blank="true" data-cell-blank-map="true"><rect x="154" y="37" width="48" height="20" rx="10" ry="10" fill="#ffffff" stroke="#000000" stroke-width="1"/><circle cx="162" cy="40.333" r="3.5" fill="#1d4ed8" data-blank-map-min="0,0"/><path d="M 173.8,53.667 H 182.2 M 178,49.467 V 57.867" fill="none" stroke="#d62828" stroke-width="1.925" stroke-linecap="butt" data-blank-map-max="2,1"/></g><g data-channel="cell" data-cell-index="3" data-cell-row="1" data-cell-col="0" data-surround-bits="0xb4c867" data-edge-color="#e7be00"><rect x="34" y="77" width="48" height="20" fill="#99f574"/><text x="58" y="87" fill="#000000" font-size="16" text-anchor="middle" dominant-baseline="central">EKTS</text></g><g data-channel="cell" data-cell-index="4" data-cell-row="1" data-cell-col="1" data-cell-blank="true"><rect x="94" y="77" width="48" height="20" rx="10" ry="10" fill="#ffffff" stroke="#000000" stroke-width="1"/></g><g data-channel="cell" data-cell-index="5" data-cell-row="1" data-cell-col="2" data-surround-bits="0x73792e" data-edge-color="#2f3fbf" data-cell-quartile="4"><rect x="154" y="77" width="48" height="20" fill="#8831d9"/><text x="178" y="87" fill="#ffffff" font-size="16" text-anchor="middle" dominant-baseline="central">V4RR</text><polygon points="154,97 154,87 164,97" fill="#ffffff"/></g><g data-channel="cell" data-cell-index="6" data-cell-row="2" data-cell-col="0" data-surround-bits="0x79df8e" data-edge-color="#2f3fbf" data-cell-quartile="2"><rect x="34" y="117" width="48" height="20" fill="#66ee7b"/><text x="58" y="127" fill="#000000" font-size="16" text-anchor="middle" dominant-baseline="central">FFQ6</text><polygon points="82,117 72,117 82,127" fill="#000000"/></g><g data-channel="cell" data-cell-index="7" data-cell-row="2" data-cell-col="1" data-surround-bits="0xf9934d" data-edge-color="#2f3fbf"><rect x="94" y="117" width="48" height="20" fill="#ff0a4c"/><text x="118" y="127" fill="#000000" font-size="16" text-anchor="middle" dominant-baseline="central">9G5F</text></g><g data-channel="cell" data-cell-index="8" data-cell-row="2" data-cell-col="2" data-surround-bits="0xb3e60f" data-edge-color="#2f3fbf"><rect x="154" y="117" width="48" height="20" fill="#115450"/><text x="178" y="127" fill="#ffffff" font-size="16" text-anchor="middle" dominant-baseline="central">A1</text></g></g></g><g data-channel="color-bar" data-bar-slots="12" data-bar-marker-left="8" data-bar-marker-right="3"><g data-color-bar-rank="0" data-color-bar-band="B"><rect x="2" y="2" width="20" height="23.917" fill="#2f3fbf"/><text x="12" y="22.397" fill="#ffffff" font-size="16" text-anchor="middle" data-color-bar-letter="true">b</text></g><g data-color-bar-rank="1" data-color-bar-band="K"><rect x="2" y="25.917" width="20" height="73.058" fill="#000000"/><text x="12" y="95.455" fill="#ffffff" font-size="16" text-anchor="middle" data-color-bar-letter="true">k</text></g><g data-color-bar-rank="2" data-color-bar-band="W"><rect x="2" y="98.975" width="20" height="15.574" fill="#ffffff"/><text x="12" y="111.029" fill="#000000" font-size="16" text-anchor="middle" data-color-bar-letter="true">w</text></g><g data-color-bar-rank="3" data-color-bar-band="G"><rect x="2" y="114.549" width="20" height="37.451" fill="#e7be00"/><text x="12" y="148.48" fill="#000000" font-size="16" text-anchor="middle" data-color-bar-letter="true">g</text></g><circle cx="6.6" cy="108.25" r="3.4" fill="#ffffff" stroke="#000000" stroke-width="0.75" data-bar-marker="left"/><circle cx="17.4" cy="45.75" r="3.4" fill="#ffffff" stroke="#000000" stroke-width="0.75" data-bar-marker="right"/></g><g data-channel="label-top"><text x="28" y="17" fill="#666666" font-size="12" dominant-baseline="central">ULID</text></g><line x1="1" y1="1.5" x2="214" y2="1.5" stroke="#808080" stroke-width="1" shape-rendering="crispEdges"/><line x1="213.5" y1="1" x2="213.5" y2="153" stroke="#808080" stroke-width="1" shape-rendering="crispEdges"/><line x1="1" y1="152.5" x2="214" y2="152.5" stroke="#808080" stroke-width="1" shape-rendering="crispEdges"/><line x1="1.5" y1="1" x2="1.5" y2="153" stroke="#808080" stroke-width="1" shape-rendering="crispEdges"/><line x1="22.5" y1="1" x2="22.5" y2="153" stroke="#808080" stroke-width="1" shape-rendering="crispEdges"/></svg>