<svg width="215" height="154" viewBox="0 0 215 154" xmlns="http://www.w3.org/2000/svg" font-family="&quot;JetBrains Mono&quot;, &quot;Menlo&quot;, &quot;Consolas&quot;, &quot;DejaVu Sans Mono&quot;, &quot;Liberation Mono&quot;, &quot;Roboto Mono&quot;, &quot;Noto Sans Mono&quot;, monospace" data-entviz-version="v15" data-entviz-lib="0.15.1" data-input-bytes="42" data-cols="3" data-rows="3" data-encoding="hex" data-scheme="eth" data-role="address" data-size-basis="decoded" data-entropy-type="eth" data-size-bits="160" data-qualifiers="{}" data-parts="[{&quot;text&quot;:&quot;0x&quot;,&quot;bind&quot;:&quot;none&quot;},{&quot;text&quot;:&quot;742d35cc6634c0532925a3b844bc454e4438f44e&quot;,&quot;bind&quot;:&quot;core&quot;}]"><defs><clipPath id="grid-clip-c3948808cf358488-3x3"><rect x="28" y="27" width="180" height="120"/></clipPath></defs><rect x="1" y="1" width="213" height="152" fill="#ffffff"/><g data-channel="grid"><rect x="28" y="27" width="180" height="120" fill="#ffffff"/><g><path fill="#e7be00" d="M106 27h6v10h-6zM130 27h6v10h-6zM142 37h6v10h-6zM142 57h6v10h-6zM124 57h6v10h-6zM118 57h6v10h-6zM112 57h6v10h-6zM88 47h6v10h-6zM88 37h6v10h-6z"/><path fill="#ff3f2f" d="M148 27h6v10h-6zM160 27h6v10h-6zM172 27h6v10h-6zM178 27h6v10h-6zM196 27h6v10h-6zM202 27h6v10h-6zM202 37h6v10h-6zM202 47h6v10h-6zM190 57h6v10h-6zM184 57h6v10h-6zM160 57h6v10h-6z"/><path fill="#2f3fbf" d="M28 67h6v10h-6zM34 67h6v10h-6zM40 67h6v10h-6zM46 67h6v10h-6zM58 67h6v10h-6zM82 87h6v10h-6zM64 97h6v10h-6zM46 97h6v10h-6zM28 77h6v10h-6z"/><path fill="#e7be00" d="M88 67h6v10h-6zM94 67h6v10h-6zM106 67h6v10h-6zM130 67h6v10h-6zM142 67h6v10h-6zM142 77h6v10h-6zM136 97h6v10h-6zM130 97h6v10h-6zM118 97h6v10h-6zM94 97h6v10h-6z"/><path fill="#e7be00" d="M196 67h6v10h-6zM196 97h6v10h-6zM190 97h6v10h-6zM184 97h6v10h-6zM178 97h6v10h-6zM148 97h6v10h-6zM148 77h6v10h-6z"/><path fill="#2f3fbf" d="M34 107h6v10h-6zM40 107h6v10h-6zM52 107h6v10h-6zM70 107h6v10h-6zM76 107h6v10h-6zM82 137h6v10h-6zM40 137h6v10h-6z"/><path fill="#2f3fbf" d="M166 107h6v10h-6zM178 107h6v10h-6zM184 107h6v10h-6zM196 107h6v10h-6zM202 107h6v10h-6zM202 117h6v10h-6zM202 127h6v10h-6zM202 137h6v10h-6zM196 137h6v10h-6zM178 137h6v10h-6zM172 137h6v10h-6zM166 137h6v10h-6zM148 137h6v10h-6zM148 127h6v10h-6z"/></g><g clip-path="url(#grid-clip-c3948808cf358488-3x3)" data-channel="ellipse" data-ellipse-anchor-x="208" data-ellipse-anchor-y="27" data-ellipse-rx="104.705" data-ellipse-ry="73.553" data-ellipse-rotation-deg="84"><ellipse cx="208" cy="27" rx="104.705" ry="73.553" transform="rotate(84 208 27)" fill="#000000" stroke="#000000" fill-opacity="0.2" stroke-opacity="0.3" stroke-width="2"/></g><g><g data-channel="cell" data-cell-index="0" data-cell-row="0" data-cell-col="0" data-cell-blank="true" data-cell-blank-map="true"><rect x="34" y="37" width="48" height="20" rx="10" ry="10" fill="#e7be00" stroke="#000000" stroke-width="1"/><circle cx="42" cy="53.667" r="3.5" fill="#1d4ed8" data-blank-map-min="2,0"/><path d="M 53.8,40.333 H 62.2 M 58,36.133 V 44.533" fill="none" stroke="#d62828" stroke-width="1.925" stroke-linecap="butt" data-blank-map-max="0,1"/></g><g data-channel="cell" data-cell-index="1" data-cell-row="0" data-cell-col="1" data-surround-bits="0xc39488" data-edge-color="#e7be00" data-cell-quartile="2"><rect x="94" y="37" width="48" height="20" fill="#352d74"/><text x="118" y="47" fill="#ffffff" font-size="12" text-anchor="middle" dominant-baseline="central">742d35</text><polygon points="142,37 132,37 142,47" fill="#ffffff"/></g><g data-channel="cell" data-cell-index="2" data-cell-row="0" data-cell-col="2" data-surround-bits="0x8cf35" data-edge-color="#ff3f2f" data-cell-quartile="1"><rect x="154" y="37" width="48" height="20" fill="#3466cc"/><text x="178" y="47" fill="#ffffff" font-size="12" text-anchor="middle" dominant-baseline="central">cc6634</text><polygon points="154,37 164,37 154,47" fill="#ffffff"/></g><g data-channel="cell" data-cell-index="3" data-cell-row="1" data-cell-col="0" data-surround-bits="0x84882f" data-edge-color="#2f3fbf" data-cell-quartile="4"><rect x="34" y="77" width="48" height="20" fill="#2953c0"/><text x="58" y="87" fill="#ffffff" font-size="12" text-anchor="middle" dominant-baseline="central">c05329</text><polygon points="34,97 34,87 44,97" fill="#ffffff"/></g><g data-channel="cell" data-cell-index="4" data-cell-row="1" data-cell-col="1" data-surround-bits="0x11668b" data-edge-color="#e7be00"><rect x="94" y="77" width="48" height="20" fill="#b8a325"/><text x="118" y="87" fill="#000000" font-size="12" text-anchor="middle" dominant-baseline="central">25a3b8</text></g><g data-channel="cell" data-cell-index="5" data-cell-row="1" data-cell-col="2" data-surround-bits="0xa1e100" data-edge-color="#e7be00"><rect x="154" y="77" width="48" height="20" fill="#45bc44"/><text x="178" y="87" fill="#000000" font-size="12" text-anchor="middle" dominant-baseline="central">44bc45</text></g><g data-channel="cell" data-cell-index="6" data-cell-row="2" data-cell-col="0" data-surround-bits="0x81196" data-edge-color="#2f3fbf" data-cell-quartile="3"><rect x="34" y="117" width="48" height="20" fill="#38444e"/><text x="58" y="127" fill="#ffffff" font-size="12" text-anchor="middle" dominant-baseline="central">4e4438</text><polygon points="82,137 82,127 72,137" fill="#ffffff"/></g><g data-channel="cell" data-cell-index="7" data-cell-row="2" data-cell-col="1" data-cell-blank="true"><rect x="94" y="117" width="48" height="20" rx="10" ry="10" fill="#ff3f2f" stroke="#000000" stroke-width="1"/></g><g data-channel="cell" data-cell-index="8" data-cell-row="2" data-cell-col="2" data-surround-bits="0x673f68" data-edge-color="#2f3fbf"><rect x="154" y="117" width="48" height="20" fill="#4e4ef4"/><text x="178" y="127" fill="#ffffff" font-size="12" text-anchor="middle" dominant-baseline="central">f44e</text></g></g></g><g data-channel="color-bar" data-bar-slots="12" data-bar-marker-left="5" data-bar-marker-right="10"><g data-color-bar-rank="0" data-color-bar-band="K"><rect x="2" y="2" width="20" height="26.256" fill="#000000"/><text x="12" y="25.616" fill="#ffffff" font-size="12" text-anchor="middle" data-color-bar-letter="true">k</text></g><g data-color-bar-rank="1" data-color-bar-band="G"><rect x="2" y="28.256" width="20" height="33.989" fill="#e7be00"/><text x="12" y="59.605" fill="#000000" font-size="12" text-anchor="middle" data-color-bar-letter="true">g</text></g><g data-color-bar-rank="2" data-color-bar-band="R"><rect x="2" y="62.245" width="20" height="71.217" fill="#ff3f2f"/><text x="12" y="130.822" fill="#000000" font-size="12" text-anchor="middle" data-color-bar-letter="true">r</text></g><g data-color-bar-rank="3" data-color-bar-band="B"><rect x="2" y="133.462" width="20" height="18.538" fill="#2f3fbf"/><text x="12" y="149.36" fill="#ffffff" font-size="12" text-anchor="middle" data-color-bar-letter="true">b</text></g><circle cx="6.6" cy="70.75" r="3.4" fill="#ffffff" stroke="#000000" stroke-width="0.75" data-bar-marker="left"/><circle cx="17.4" cy="133.25" r="3.4" fill="#ffffff" stroke="#000000" stroke-width="0.75" data-bar-marker="right"/></g><g data-channel="label-top"><text x="28" y="17" fill="#666666" font-size="12" dominant-baseline="central">ETH, 0x</text></g><line x1="1" y1="1.5" x2="214" y2="1.5" stroke="#808080" stroke-width="1" shape-rendering="crispEdges"/><line x1="213.5" y1="1" x2="213.5" y2="153" stroke="#808080" stroke-width="1" shape-rendering="crispEdges"/><line x1="1" y1="152.5" x2="214" y2="152.5" stroke="#808080" stroke-width="1" shape-rendering="crispEdges"/><line x1="1.5" y1="1" x2="1.5" y2="153" stroke="#808080" stroke-width="1" shape-rendering="crispEdges"/><line x1="22.5" y1="1" x2="22.5" y2="153" stroke="#808080" stroke-width="1" shape-rendering="crispEdges"/></svg>