<svg width="213" height="152" viewBox="0 0 213 152" xmlns="http://www.w3.org/2000/svg" font-family="&quot;JetBrains Mono&quot;, &quot;Menlo&quot;, &quot;Consolas&quot;, &quot;DejaVu Sans Mono&quot;, &quot;Liberation Mono&quot;, &quot;Roboto Mono&quot;, &quot;Noto Sans Mono&quot;, monospace" data-entviz-version="v11" data-entviz-lib="0.10.0" data-input-bytes="42" data-cols="3" data-rows="3"><defs><clipPath id="grid-clip-c3948808cf358488-3x3"><rect x="27" y="26" width="180" height="120"/></clipPath></defs><rect x="0" y="0" width="213" height="152" fill="#ffffff"/><g data-channel="grid"><rect x="27" y="26" width="180" height="120" fill="#ffffff"/><g><path fill="#e7be00" d="M105 26h6v10h-6zM129 26h6v10h-6zM141 36h6v10h-6zM141 56h6v10h-6zM123 56h6v10h-6zM117 56h6v10h-6zM111 56h6v10h-6zM87 46h6v10h-6zM87 36h6v10h-6z"/><path fill="#ff3f2f" d="M147 26h6v10h-6zM159 26h6v10h-6zM171 26h6v10h-6zM177 26h6v10h-6zM195 26h6v10h-6zM201 26h6v10h-6zM201 36h6v10h-6zM201 46h6v10h-6zM189 56h6v10h-6zM183 56h6v10h-6zM159 56h6v10h-6z"/><path fill="#2f3fbf" d="M27 66h6v10h-6zM33 66h6v10h-6zM39 66h6v10h-6zM45 66h6v10h-6zM57 66h6v10h-6zM81 86h6v10h-6zM63 96h6v10h-6zM45 96h6v10h-6zM27 76h6v10h-6z"/><path fill="#e7be00" d="M87 66h6v10h-6zM93 66h6v10h-6zM105 66h6v10h-6zM129 66h6v10h-6zM141 66h6v10h-6zM141 76h6v10h-6zM135 96h6v10h-6zM129 96h6v10h-6zM117 96h6v10h-6zM93 96h6v10h-6z"/><path fill="#e7be00" d="M195 66h6v10h-6zM195 96h6v10h-6zM189 96h6v10h-6zM183 96h6v10h-6zM177 96h6v10h-6zM147 96h6v10h-6zM147 76h6v10h-6z"/><path fill="#2f3fbf" d="M33 106h6v10h-6zM39 106h6v10h-6zM51 106h6v10h-6zM69 106h6v10h-6zM75 106h6v10h-6zM81 136h6v10h-6zM39 136h6v10h-6z"/><path fill="#2f3fbf" d="M165 106h6v10h-6zM177 106h6v10h-6zM183 106h6v10h-6zM195 106h6v10h-6zM201 106h6v10h-6zM201 116h6v10h-6zM201 126h6v10h-6zM201 136h6v10h-6zM195 136h6v10h-6zM177 136h6v10h-6zM171 136h6v10h-6zM165 136h6v10h-6zM147 136h6v10h-6zM147 126h6v10h-6z"/></g><g clip-path="url(#grid-clip-c3948808cf358488-3x3)" data-channel="ellipse" data-ellipse-anchor-x="207" data-ellipse-anchor-y="26" data-ellipse-rx="104.705" data-ellipse-ry="73.553" data-ellipse-rotation-deg="84"><ellipse cx="207" cy="26" rx="104.705" ry="73.553" transform="rotate(84 207 26)" fill="#000000" stroke="#000000" fill-opacity="0.2" stroke-opacity="0.3" stroke-width="2"/></g><g><g data-channel="cell" data-cell-index="0" data-cell-row="0" data-cell-col="0" data-cell-blank="true" data-cell-blank-map="true"><rect x="33" y="36" width="48" height="20" rx="10" ry="10" fill="#e7be00" stroke="#000000" stroke-width="1"/><circle cx="41" cy="52.667" r="3.5" fill="#1d4ed8" data-blank-map-min="2,0"/><path d="M 52.8,39.333 H 61.2 M 57,35.133 V 43.533" fill="none" stroke="#d62828" stroke-width="1.925" stroke-linecap="butt" data-blank-map-max="0,1"/></g><g data-channel="cell" data-cell-index="1" data-cell-row="0" data-cell-col="1" data-surround-bits="0xc39488" data-edge-color="#e7be00" data-cell-quartile="2"><rect x="93" y="36" width="48" height="20" fill="#352d74"/><text x="117" y="46" fill="#ffffff" font-size="12" text-anchor="middle" dominant-baseline="central">742d35</text><polygon points="141,36 131,36 141,46" fill="#ffffff"/></g><g data-channel="cell" data-cell-index="2" data-cell-row="0" data-cell-col="2" data-surround-bits="0x8cf35" data-edge-color="#ff3f2f" data-cell-quartile="1"><rect x="153" y="36" width="48" height="20" fill="#3466cc"/><text x="177" y="46" fill="#ffffff" font-size="12" text-anchor="middle" dominant-baseline="central">cc6634</text><polygon points="153,36 163,36 153,46" fill="#ffffff"/></g><g data-channel="cell" data-cell-index="3" data-cell-row="1" data-cell-col="0" data-surround-bits="0x84882f" data-edge-color="#2f3fbf" data-cell-quartile="4"><rect x="33" y="76" width="48" height="20" fill="#2953c0"/><text x="57" y="86" fill="#ffffff" font-size="12" text-anchor="middle" dominant-baseline="central">c05329</text><polygon points="33,96 33,86 43,96" fill="#ffffff"/></g><g data-channel="cell" data-cell-index="4" data-cell-row="1" data-cell-col="1" data-surround-bits="0x11668b" data-edge-color="#e7be00"><rect x="93" y="76" width="48" height="20" fill="#b8a325"/><text x="117" y="86" fill="#000000" font-size="12" text-anchor="middle" dominant-baseline="central">25a3b8</text></g><g data-channel="cell" data-cell-index="5" data-cell-row="1" data-cell-col="2" data-surround-bits="0xa1e100" data-edge-color="#e7be00"><rect x="153" y="76" width="48" height="20" fill="#45bc44"/><text x="177" y="86" fill="#000000" font-size="12" text-anchor="middle" dominant-baseline="central">44bc45</text></g><g data-channel="cell" data-cell-index="6" data-cell-row="2" data-cell-col="0" data-surround-bits="0x81196" data-edge-color="#2f3fbf" data-cell-quartile="3"><rect x="33" y="116" width="48" height="20" fill="#38444e"/><text x="57" y="126" fill="#ffffff" font-size="12" text-anchor="middle" dominant-baseline="central">4e4438</text><polygon points="81,136 81,126 71,136" fill="#ffffff"/></g><g data-channel="cell" data-cell-index="7" data-cell-row="2" data-cell-col="1" data-cell-blank="true"><rect x="93" y="116" width="48" height="20" rx="10" ry="10" fill="#ff3f2f" stroke="#000000" stroke-width="1"/></g><g data-channel="cell" data-cell-index="8" data-cell-row="2" data-cell-col="2" data-surround-bits="0x673f68" data-edge-color="#2f3fbf"><rect x="153" y="116" width="48" height="20" fill="#4e4ef4"/><text x="177" y="126" fill="#ffffff" font-size="12" text-anchor="middle" dominant-baseline="central">f44e</text></g></g></g><g data-channel="color-bar" data-bar-slots="12" data-bar-marker-left="5" data-bar-marker-right="10"><g data-color-bar-rank="0" data-color-bar-band="K"><rect x="1" y="1" width="20" height="26.256" fill="#000000"/><text x="11" y="24.616" fill="#ffffff" font-size="12" text-anchor="middle" data-color-bar-letter="true">k</text></g><g data-color-bar-rank="1" data-color-bar-band="G"><rect x="1" y="27.256" width="20" height="33.989" fill="#e7be00"/><text x="11" y="58.605" fill="#000000" font-size="12" text-anchor="middle" data-color-bar-letter="true">g</text></g><g data-color-bar-rank="2" data-color-bar-band="R"><rect x="1" y="61.245" width="20" height="71.217" fill="#ff3f2f"/><text x="11" y="129.822" fill="#000000" font-size="12" text-anchor="middle" data-color-bar-letter="true">r</text></g><g data-color-bar-rank="3" data-color-bar-band="B"><rect x="1" y="132.462" width="20" height="18.538" fill="#2f3fbf"/><text x="11" y="148.36" fill="#ffffff" font-size="12" text-anchor="middle" data-color-bar-letter="true">b</text></g><circle cx="5.6" cy="69.75" r="3.4" fill="#ffffff" stroke="#000000" stroke-width="0.75" data-bar-marker="left"/><circle cx="16.4" cy="132.25" r="3.4" fill="#ffffff" stroke="#000000" stroke-width="0.75" data-bar-marker="right"/></g><g data-channel="label-top"><text x="27" y="16" fill="#666666" font-size="12" dominant-baseline="central">ETH: 0x...</text></g><line x1="0" y1="0.5" x2="213" y2="0.5" stroke="#808080" stroke-width="1" shape-rendering="crispEdges"/><line x1="212.5" y1="0" x2="212.5" y2="152" stroke="#808080" stroke-width="1" shape-rendering="crispEdges"/><line x1="0" y1="151.5" x2="213" y2="151.5" stroke="#808080" stroke-width="1" shape-rendering="crispEdges"/><line x1="0.5" y1="0" x2="0.5" y2="152" stroke="#808080" stroke-width="1" shape-rendering="crispEdges"/><line x1="21.5" y1="0" x2="21.5" y2="152" stroke="#808080" stroke-width="1" shape-rendering="crispEdges"/></svg>