<svg width="203.0" height="157.0" viewBox="0 0 203.0 157.0" xmlns="http://www.w3.org/2000/svg" data-entviz-version="v5" data-input-bytes="34" data-cols="3" data-rows="3"><defs><clipPath id="grid-clip-8ca076ef4cefb402-3x3"><rect x="17.0" y="31.0" width="180.0" height="120.0"/></clipPath></defs><rect x="0" y="0" width="203.0" height="157.0" fill="#ffffff"/><g data-channel="grid"><rect x="17.0" y="31.0" width="180.0" height="120.0" fill="#2f3fbf"/><g><rect x="23.0" y="31.0" width="6.0" height="10.0" fill="#ff3f2f"/><rect x="29.0" y="31.0" width="6.0" height="10.0" fill="#ff3f2f"/><rect x="41.0" y="31.0" width="6.0" height="10.0" fill="#ff3f2f"/><rect x="47.0" y="31.0" width="6.0" height="10.0" fill="#ff3f2f"/><rect x="53.0" y="31.0" width="6.0" height="10.0" fill="#ff3f2f"/><rect x="65.0" y="61.0" width="6.0" height="10.0" fill="#ff3f2f"/><rect x="53.0" y="61.0" width="6.0" height="10.0" fill="#ff3f2f"/><rect x="35.0" y="61.0" width="6.0" height="10.0" fill="#ff3f2f"/><rect x="29.0" y="61.0" width="6.0" height="10.0" fill="#ff3f2f"/><rect x="17.0" y="41.0" width="6.0" height="10.0" fill="#ff3f2f"/><rect x="77.0" y="31.0" width="6.0" height="10.0" fill="#ff3f2f"/><rect x="83.0" y="31.0" width="6.0" height="10.0" fill="#ff3f2f"/><rect x="89.0" y="31.0" width="6.0" height="10.0" fill="#ff3f2f"/><rect x="95.0" y="31.0" width="6.0" height="10.0" fill="#ff3f2f"/><rect x="107.0" y="31.0" width="6.0" height="10.0" fill="#ff3f2f"/><rect x="113.0" y="31.0" width="6.0" height="10.0" fill="#ff3f2f"/><rect x="119.0" y="31.0" width="6.0" height="10.0" fill="#ff3f2f"/><rect x="131.0" y="41.0" width="6.0" height="10.0" fill="#ff3f2f"/><rect x="131.0" y="51.0" width="6.0" height="10.0" fill="#ff3f2f"/><rect x="119.0" y="61.0" width="6.0" height="10.0" fill="#ff3f2f"/><rect x="107.0" y="61.0" width="6.0" height="10.0" fill="#ff3f2f"/><rect x="101.0" y="61.0" width="6.0" height="10.0" fill="#ff3f2f"/><rect x="95.0" y="61.0" width="6.0" height="10.0" fill="#ff3f2f"/><rect x="89.0" y="61.0" width="6.0" height="10.0" fill="#ff3f2f"/><rect x="77.0" y="61.0" width="6.0" height="10.0" fill="#ff3f2f"/><rect x="77.0" y="51.0" width="6.0" height="10.0" fill="#ff3f2f"/><rect x="77.0" y="41.0" width="6.0" height="10.0" fill="#ff3f2f"/><rect x="137.0" y="31.0" width="6.0" height="10.0" fill="#ffd966"/><rect x="149.0" y="31.0" width="6.0" height="10.0" fill="#ffd966"/><rect x="173.0" y="31.0" width="6.0" height="10.0" fill="#ffd966"/><rect x="179.0" y="31.0" width="6.0" height="10.0" fill="#ffd966"/><rect x="191.0" y="31.0" width="6.0" height="10.0" fill="#ffd966"/><rect x="155.0" y="61.0" width="6.0" height="10.0" fill="#ffd966"/><rect x="143.0" y="61.0" width="6.0" height="10.0" fill="#ffd966"/><rect x="137.0" y="61.0" width="6.0" height="10.0" fill="#ffd966"/><rect x="137.0" y="41.0" width="6.0" height="10.0" fill="#ffd966"/><rect x="23.0" y="71.0" width="6.0" height="10.0" fill="#ff3f2f"/><rect x="35.0" y="71.0" width="6.0" height="10.0" fill="#ff3f2f"/><rect x="41.0" y="71.0" width="6.0" height="10.0" fill="#ff3f2f"/><rect x="47.0" y="71.0" width="6.0" height="10.0" fill="#ff3f2f"/><rect x="53.0" y="71.0" width="6.0" height="10.0" fill="#ff3f2f"/><rect x="59.0" y="71.0" width="6.0" height="10.0" fill="#ff3f2f"/><rect x="71.0" y="91.0" width="6.0" height="10.0" fill="#ff3f2f"/><rect x="71.0" y="101.0" width="6.0" height="10.0" fill="#ff3f2f"/><rect x="65.0" y="101.0" width="6.0" height="10.0" fill="#ff3f2f"/><rect x="47.0" y="101.0" width="6.0" height="10.0" fill="#ff3f2f"/><rect x="41.0" y="101.0" width="6.0" height="10.0" fill="#ff3f2f"/><rect x="35.0" y="101.0" width="6.0" height="10.0" fill="#ff3f2f"/><rect x="29.0" y="101.0" width="6.0" height="10.0" fill="#ff3f2f"/><rect x="17.0" y="81.0" width="6.0" height="10.0" fill="#ff3f2f"/><rect x="107.0" y="71.0" width="6.0" height="10.0" fill="#ff3f2f"/><rect x="125.0" y="71.0" width="6.0" height="10.0" fill="#ff3f2f"/><rect x="131.0" y="91.0" width="6.0" height="10.0" fill="#ff3f2f"/><rect x="131.0" y="101.0" width="6.0" height="10.0" fill="#ff3f2f"/><rect x="107.0" y="101.0" width="6.0" height="10.0" fill="#ff3f2f"/><rect x="101.0" y="101.0" width="6.0" height="10.0" fill="#ff3f2f"/><rect x="95.0" y="101.0" width="6.0" height="10.0" fill="#ff3f2f"/><rect x="83.0" y="101.0" width="6.0" height="10.0" fill="#ff3f2f"/><rect x="77.0" y="101.0" width="6.0" height="10.0" fill="#ff3f2f"/><rect x="137.0" y="71.0" width="6.0" height="10.0" fill="#ff3f2f"/><rect x="143.0" y="71.0" width="6.0" height="10.0" fill="#ff3f2f"/><rect x="149.0" y="71.0" width="6.0" height="10.0" fill="#ff3f2f"/><rect x="155.0" y="71.0" width="6.0" height="10.0" fill="#ff3f2f"/><rect x="167.0" y="71.0" width="6.0" height="10.0" fill="#ff3f2f"/><rect x="173.0" y="71.0" width="6.0" height="10.0" fill="#ff3f2f"/><rect x="185.0" y="71.0" width="6.0" height="10.0" fill="#ff3f2f"/><rect x="191.0" y="101.0" width="6.0" height="10.0" fill="#ff3f2f"/><rect x="167.0" y="101.0" width="6.0" height="10.0" fill="#ff3f2f"/><rect x="137.0" y="101.0" width="6.0" height="10.0" fill="#ff3f2f"/><rect x="137.0" y="91.0" width="6.0" height="10.0" fill="#ff3f2f"/><rect x="17.0" y="111.0" width="6.0" height="10.0" fill="#000000"/><rect x="23.0" y="111.0" width="6.0" height="10.0" fill="#000000"/><rect x="53.0" y="111.0" width="6.0" height="10.0" fill="#000000"/><rect x="59.0" y="111.0" width="6.0" height="10.0" fill="#000000"/><rect x="65.0" y="111.0" width="6.0" height="10.0" fill="#000000"/><rect x="71.0" y="131.0" width="6.0" height="10.0" fill="#000000"/><rect x="65.0" y="141.0" width="6.0" height="10.0" fill="#000000"/><rect x="59.0" y="141.0" width="6.0" height="10.0" fill="#000000"/><rect x="53.0" y="141.0" width="6.0" height="10.0" fill="#000000"/><rect x="47.0" y="141.0" width="6.0" height="10.0" fill="#000000"/><rect x="35.0" y="141.0" width="6.0" height="10.0" fill="#000000"/><rect x="23.0" y="141.0" width="6.0" height="10.0" fill="#000000"/><rect x="17.0" y="131.0" width="6.0" height="10.0" fill="#000000"/><rect x="17.0" y="121.0" width="6.0" height="10.0" fill="#000000"/><rect x="83.0" y="111.0" width="6.0" height="10.0" fill="#000000"/><rect x="89.0" y="111.0" width="6.0" height="10.0" fill="#000000"/><rect x="95.0" y="111.0" width="6.0" height="10.0" fill="#000000"/><rect x="101.0" y="111.0" width="6.0" height="10.0" fill="#000000"/><rect x="119.0" y="111.0" width="6.0" height="10.0" fill="#000000"/><rect x="131.0" y="111.0" width="6.0" height="10.0" fill="#000000"/><rect x="131.0" y="131.0" width="6.0" height="10.0" fill="#000000"/><rect x="131.0" y="141.0" width="6.0" height="10.0" fill="#000000"/><rect x="113.0" y="141.0" width="6.0" height="10.0" fill="#000000"/><rect x="107.0" y="141.0" width="6.0" height="10.0" fill="#000000"/><rect x="89.0" y="141.0" width="6.0" height="10.0" fill="#000000"/><rect x="83.0" y="141.0" width="6.0" height="10.0" fill="#000000"/><rect x="77.0" y="141.0" width="6.0" height="10.0" fill="#000000"/><rect x="143.0" y="111.0" width="6.0" height="10.0" fill="#ffd966"/><rect x="149.0" y="111.0" width="6.0" height="10.0" fill="#ffd966"/><rect x="155.0" y="111.0" width="6.0" height="10.0" fill="#ffd966"/><rect x="161.0" y="111.0" width="6.0" height="10.0" fill="#ffd966"/><rect x="179.0" y="111.0" width="6.0" height="10.0" fill="#ffd966"/><rect x="185.0" y="111.0" width="6.0" height="10.0" fill="#ffd966"/><rect x="179.0" y="141.0" width="6.0" height="10.0" fill="#ffd966"/><rect x="173.0" y="141.0" width="6.0" height="10.0" fill="#ffd966"/><rect x="167.0" y="141.0" width="6.0" height="10.0" fill="#ffd966"/><rect x="149.0" y="141.0" width="6.0" height="10.0" fill="#ffd966"/><rect x="137.0" y="141.0" width="6.0" height="10.0" fill="#ffd966"/><rect x="137.0" y="121.0" width="6.0" height="10.0" fill="#ffd966"/></g><g clip-path="url(#grid-clip-8ca076ef4cefb402-3x3)" data-channel="ellipse" data-ellipse-anchor-x="77.0" data-ellipse-anchor-y="151.0" data-ellipse-rx="77.17633465854476" data-ellipse-ry="53.941125496954285" data-ellipse-rotation-deg="180.0"><ellipse cx="77.0" cy="151.0" rx="77.17633465854476" ry="53.941125496954285" transform="rotate(180.0 77.0 151.0)" fill="#ffffff" fill-opacity="0.4"/></g><g><g data-channel="cell" data-cell-index="0" data-cell-row="0" data-cell-col="0" data-cell-quartile="1"><rect x="23.0" y="41.0" width="48.0" height="20.0" fill="#da2136"/><text x="47.0" y="51.0" fill="#ffffff" style="font-family: &quot;DejaVu Sans Mono&quot;, &quot;Consolas&quot;, &quot;Menlo&quot;, &quot;Liberation Mono&quot;, monospace; font-size: 16.0px;" text-anchor="middle" dominant-baseline="central">Eb8T</text><polygon points="23.0,41.0 33.0,41.0 23.0,51.0" fill="#ffffff"/></g><g data-channel="cell" data-cell-index="1" data-cell-row="0" data-cell-col="1"><rect x="83.0" y="41.0" width="48.0" height="20.0" fill="#ca2948"/><text x="107.0" y="51.0" fill="#ffffff" style="font-family: &quot;DejaVu Sans Mono&quot;, &quot;Consolas&quot;, &quot;Menlo&quot;, &quot;Liberation Mono&quot;, monospace; font-size: 16.0px;" text-anchor="middle" dominant-baseline="central">K3gB</text></g><g data-channel="cell" data-cell-index="2" data-cell-row="0" data-cell-col="2" data-cell-quartile="2"><rect x="143.0" y="41.0" width="48.0" height="20.0" fill="#21b19e"/><text x="167.0" y="51.0" fill="#000000" style="font-family: &quot;DejaVu Sans Mono&quot;, &quot;Consolas&quot;, &quot;Menlo&quot;, &quot;Liberation Mono&quot;, monospace; font-size: 16.0px;" text-anchor="middle" dominant-baseline="central">gk5a</text><polygon points="191.0,41.0 181.0,41.0 191.0,51.0" fill="#000000"/></g><g data-channel="cell" data-cell-index="3" data-cell-row="1" data-cell-col="0"><rect x="23.0" y="81.0" width="48.0" height="20.0" fill="#f60ad2"/><text x="47.0" y="91.0" fill="#000000" style="font-family: &quot;DejaVu Sans Mono&quot;, &quot;Consolas&quot;, &quot;Menlo&quot;, &quot;Liberation Mono&quot;, monospace; font-size: 16.0px;" text-anchor="middle" dominant-baseline="central">uZkw</text></g><g data-channel="cell" data-cell-index="4" data-cell-row="1" data-cell-col="1" data-cell-quartile="3"><rect x="83.0" y="81.0" width="48.0" height="20.0" fill="#905c8c"/><text x="107.0" y="91.0" fill="#ffffff" style="font-family: &quot;DejaVu Sans Mono&quot;, &quot;Consolas&quot;, &quot;Menlo&quot;, &quot;Liberation Mono&quot;, monospace; font-size: 16.0px;" text-anchor="middle" dominant-baseline="central">c6sH</text><polygon points="131.0,101.0 131.0,91.0 121.0,101.0" fill="#ffffff"/></g><g data-channel="cell" data-cell-index="5" data-cell-row="1" data-cell-col="2"><rect x="143.0" y="81.0" width="48.0" height="20.0" fill="#4f6cb7"/><text x="167.0" y="91.0" fill="#ffffff" style="font-family: &quot;DejaVu Sans Mono&quot;, &quot;Consolas&quot;, &quot;Menlo&quot;, &quot;Liberation Mono&quot;, monospace; font-size: 16.0px;" text-anchor="middle" dominant-baseline="central">nwrG</text></g><g data-channel="cell" data-cell-index="6" data-cell-row="2" data-cell-col="0"><rect x="23.0" y="121.0" width="48.0" height="20.0" fill="#071471"/><text x="47.0" y="131.0" fill="#ffffff" style="font-family: &quot;DejaVu Sans Mono&quot;, &quot;Consolas&quot;, &quot;Menlo&quot;, &quot;Liberation Mono&quot;, monospace; font-size: 16.0px;" text-anchor="middle" dominant-baseline="central">VJH8</text></g><g data-channel="cell" data-cell-index="7" data-cell-row="2" data-cell-col="1"><rect x="83.0" y="121.0" width="48.0" height="20.0" fill="#534833"/><text x="107.0" y="131.0" fill="#ffffff" style="font-family: &quot;DejaVu Sans Mono&quot;, &quot;Consolas&quot;, &quot;Menlo&quot;, &quot;Liberation Mono&quot;, monospace; font-size: 16.0px;" text-anchor="middle" dominant-baseline="central">DuaL</text></g><g data-channel="cell" data-cell-index="8" data-cell-row="2" data-cell-col="2"><rect x="143.0" y="121.0" width="48.0" height="20.0" fill="#2880a2"/><text x="167.0" y="131.0" fill="#ffffff" style="font-family: &quot;DejaVu Sans Mono&quot;, &quot;Consolas&quot;, &quot;Menlo&quot;, &quot;Liberation Mono&quot;, monospace; font-size: 16.0px;" text-anchor="middle" dominant-baseline="central">h</text></g></g></g><g data-channel="color-bar"><g data-color-bar-rank="0" data-color-bar-band="K"><rect x="1" y="1" width="10.0" height="64.1210881007873" fill="#000000"/><text x="6.0" y="33.06054405039365" fill="#ffffff" style="font-family: &quot;DejaVu Sans Mono&quot;, &quot;Consolas&quot;, &quot;Menlo&quot;, &quot;Liberation Mono&quot;, monospace; font-size: 38px;" text-anchor="middle" dominant-baseline="central" data-color-bar-letter="true">K</text></g><g data-color-bar-rank="1" data-color-bar-band="W"><rect x="1" y="65.1210881007873" width="10.0" height="43.08967469212307" fill="#ffffff"/><text x="6.0" y="86.66592544684883" fill="#000000" style="font-family: &quot;DejaVu Sans Mono&quot;, &quot;Consolas&quot;, &quot;Menlo&quot;, &quot;Liberation Mono&quot;, monospace; font-size: 26px;" text-anchor="middle" dominant-baseline="central" data-color-bar-letter="true">W</text></g><g data-color-bar-rank="2" data-color-bar-band="R"><rect x="1" y="108.21076279291037" width="10.0" height="29.60692779964251" fill="#ff3f2f"/><text x="6.0" y="123.01422669273163" fill="#000000" style="font-family: &quot;DejaVu Sans Mono&quot;, &quot;Consolas&quot;, &quot;Menlo&quot;, &quot;Liberation Mono&quot;, monospace; font-size: 18px;" text-anchor="middle" dominant-baseline="central" data-color-bar-letter="true">R</text></g><g data-color-bar-rank="3" data-color-bar-band="G"><rect x="1" y="137.81769059255288" width="10.0" height="18.18230940744712" fill="#ffd966"/><text x="6.0" y="146.90884529627644" fill="#000000" style="font-family: &quot;DejaVu Sans Mono&quot;, &quot;Consolas&quot;, &quot;Menlo&quot;, &quot;Liberation Mono&quot;, monospace; font-size: 11px;" text-anchor="middle" dominant-baseline="central" data-color-bar-letter="true">G</text></g></g><g data-channel="label-top"><text x="17.0" y="16.0" fill="#666666" style="font-family: &quot;DejaVu Sans Mono&quot;, &quot;Consolas&quot;, &quot;Menlo&quot;, &quot;Liberation Mono&quot;, monospace; font-size: 12.0px;" dominant-baseline="central">XRP: r...</text></g><line x1="0" y1="0.5" x2="203.0" y2="0.5" stroke="#808080" stroke-width="1" shape-rendering="crispEdges"/><line x1="202.5" y1="0" x2="202.5" y2="157.0" stroke="#808080" stroke-width="1" shape-rendering="crispEdges"/><line x1="0" y1="156.5" x2="203.0" y2="156.5" stroke="#808080" stroke-width="1" shape-rendering="crispEdges"/><line x1="0.5" y1="0" x2="0.5" y2="157.0" stroke="#808080" stroke-width="1" shape-rendering="crispEdges"/><line x1="11.5" y1="0" x2="11.5" y2="157.0" stroke="#808080" stroke-width="1" shape-rendering="crispEdges"/></svg>