<svg width="203.0" height="157.0" xmlns="http://www.w3.org/2000/svg"><defs><clipPath id="grid-clip-8ca076ef-3x3"><rect x="17.0" y="31.0" width="180.0" height="120.0"/></clipPath></defs><rect x="0" y="0" width="203.0" height="157.0" fill="#ffffff"/><rect x="17.0" y="31.0" width="180.0" height="120.0" fill="#2f3fbf"/><rect x="23.0" y="31.0" width="6.0" height="10.0" fill="#ff3f2f"/><rect x="29.0" y="31.0" width="6.0" height="10.0" fill="#ff3f2f"/><rect x="41.0" y="31.0" width="6.0" height="10.0" fill="#ff3f2f"/><rect x="47.0" y="31.0" width="6.0" height="10.0" fill="#ff3f2f"/><rect x="53.0" y="31.0" width="6.0" height="10.0" fill="#ff3f2f"/><rect x="65.0" y="61.0" width="6.0" height="10.0" fill="#ff3f2f"/><rect x="53.0" y="61.0" width="6.0" height="10.0" fill="#ff3f2f"/><rect x="35.0" y="61.0" width="6.0" height="10.0" fill="#ff3f2f"/><rect x="29.0" y="61.0" width="6.0" height="10.0" fill="#ff3f2f"/><rect x="17.0" y="41.0" width="6.0" height="10.0" fill="#ff3f2f"/><rect x="77.0" y="31.0" width="6.0" height="10.0" fill="#ff3f2f"/><rect x="83.0" y="31.0" width="6.0" height="10.0" fill="#ff3f2f"/><rect x="89.0" y="31.0" width="6.0" height="10.0" fill="#ff3f2f"/><rect x="95.0" y="31.0" width="6.0" height="10.0" fill="#ff3f2f"/><rect x="107.0" y="31.0" width="6.0" height="10.0" fill="#ff3f2f"/><rect x="113.0" y="31.0" width="6.0" height="10.0" fill="#ff3f2f"/><rect x="119.0" y="31.0" width="6.0" height="10.0" fill="#ff3f2f"/><rect x="131.0" y="41.0" width="6.0" height="10.0" fill="#ff3f2f"/><rect x="131.0" y="51.0" width="6.0" height="10.0" fill="#ff3f2f"/><rect x="119.0" y="61.0" width="6.0" height="10.0" fill="#ff3f2f"/><rect x="107.0" y="61.0" width="6.0" height="10.0" fill="#ff3f2f"/><rect x="101.0" y="61.0" width="6.0" height="10.0" fill="#ff3f2f"/><rect x="95.0" y="61.0" width="6.0" height="10.0" fill="#ff3f2f"/><rect x="89.0" y="61.0" width="6.0" height="10.0" fill="#ff3f2f"/><rect x="77.0" y="61.0" width="6.0" height="10.0" fill="#ff3f2f"/><rect x="77.0" y="51.0" width="6.0" height="10.0" fill="#ff3f2f"/><rect x="77.0" y="41.0" width="6.0" height="10.0" fill="#ff3f2f"/><rect x="137.0" y="31.0" width="6.0" height="10.0" fill="#ffd966"/><rect x="149.0" y="31.0" width="6.0" height="10.0" fill="#ffd966"/><rect x="173.0" y="31.0" width="6.0" height="10.0" fill="#ffd966"/><rect x="179.0" y="31.0" width="6.0" height="10.0" fill="#ffd966"/><rect x="191.0" y="31.0" width="6.0" height="10.0" fill="#ffd966"/><rect x="155.0" y="61.0" width="6.0" height="10.0" fill="#ffd966"/><rect x="143.0" y="61.0" width="6.0" height="10.0" fill="#ffd966"/><rect x="137.0" y="61.0" width="6.0" height="10.0" fill="#ffd966"/><rect x="137.0" y="41.0" width="6.0" height="10.0" fill="#ffd966"/><rect x="23.0" y="71.0" width="6.0" height="10.0" fill="#ff3f2f"/><rect x="35.0" y="71.0" width="6.0" height="10.0" fill="#ff3f2f"/><rect x="41.0" y="71.0" width="6.0" height="10.0" fill="#ff3f2f"/><rect x="47.0" y="71.0" width="6.0" height="10.0" fill="#ff3f2f"/><rect x="53.0" y="71.0" width="6.0" height="10.0" fill="#ff3f2f"/><rect x="59.0" y="71.0" width="6.0" height="10.0" fill="#ff3f2f"/><rect x="71.0" y="91.0" width="6.0" height="10.0" fill="#ff3f2f"/><rect x="71.0" y="101.0" width="6.0" height="10.0" fill="#ff3f2f"/><rect x="65.0" y="101.0" width="6.0" height="10.0" fill="#ff3f2f"/><rect x="47.0" y="101.0" width="6.0" height="10.0" fill="#ff3f2f"/><rect x="41.0" y="101.0" width="6.0" height="10.0" fill="#ff3f2f"/><rect x="35.0" y="101.0" width="6.0" height="10.0" fill="#ff3f2f"/><rect x="29.0" y="101.0" width="6.0" height="10.0" fill="#ff3f2f"/><rect x="17.0" y="81.0" width="6.0" height="10.0" fill="#ff3f2f"/><rect x="107.0" y="71.0" width="6.0" height="10.0" fill="#ff3f2f"/><rect x="125.0" y="71.0" width="6.0" height="10.0" fill="#ff3f2f"/><rect x="131.0" y="91.0" width="6.0" height="10.0" fill="#ff3f2f"/><rect x="131.0" y="101.0" width="6.0" height="10.0" fill="#ff3f2f"/><rect x="107.0" y="101.0" width="6.0" height="10.0" fill="#ff3f2f"/><rect x="101.0" y="101.0" width="6.0" height="10.0" fill="#ff3f2f"/><rect x="95.0" y="101.0" width="6.0" height="10.0" fill="#ff3f2f"/><rect x="83.0" y="101.0" width="6.0" height="10.0" fill="#ff3f2f"/><rect x="77.0" y="101.0" width="6.0" height="10.0" fill="#ff3f2f"/><rect x="137.0" y="71.0" width="6.0" height="10.0" fill="#ff3f2f"/><rect x="143.0" y="71.0" width="6.0" height="10.0" fill="#ff3f2f"/><rect x="149.0" y="71.0" width="6.0" height="10.0" fill="#ff3f2f"/><rect x="155.0" y="71.0" width="6.0" height="10.0" fill="#ff3f2f"/><rect x="167.0" y="71.0" width="6.0" height="10.0" fill="#ff3f2f"/><rect x="173.0" y="71.0" width="6.0" height="10.0" fill="#ff3f2f"/><rect x="185.0" y="71.0" width="6.0" height="10.0" fill="#ff3f2f"/><rect x="191.0" y="101.0" width="6.0" height="10.0" fill="#ff3f2f"/><rect x="167.0" y="101.0" width="6.0" height="10.0" fill="#ff3f2f"/><rect x="137.0" y="101.0" width="6.0" height="10.0" fill="#ff3f2f"/><rect x="137.0" y="91.0" width="6.0" height="10.0" fill="#ff3f2f"/><rect x="17.0" y="111.0" width="6.0" height="10.0" fill="#000000"/><rect x="23.0" y="111.0" width="6.0" height="10.0" fill="#000000"/><rect x="53.0" y="111.0" width="6.0" height="10.0" fill="#000000"/><rect x="59.0" y="111.0" width="6.0" height="10.0" fill="#000000"/><rect x="65.0" y="111.0" width="6.0" height="10.0" fill="#000000"/><rect x="71.0" y="131.0" width="6.0" height="10.0" fill="#000000"/><rect x="65.0" y="141.0" width="6.0" height="10.0" fill="#000000"/><rect x="59.0" y="141.0" width="6.0" height="10.0" fill="#000000"/><rect x="53.0" y="141.0" width="6.0" height="10.0" fill="#000000"/><rect x="47.0" y="141.0" width="6.0" height="10.0" fill="#000000"/><rect x="35.0" y="141.0" width="6.0" height="10.0" fill="#000000"/><rect x="23.0" y="141.0" width="6.0" height="10.0" fill="#000000"/><rect x="17.0" y="131.0" width="6.0" height="10.0" fill="#000000"/><rect x="17.0" y="121.0" width="6.0" height="10.0" fill="#000000"/><rect x="83.0" y="111.0" width="6.0" height="10.0" fill="#000000"/><rect x="89.0" y="111.0" width="6.0" height="10.0" fill="#000000"/><rect x="95.0" y="111.0" width="6.0" height="10.0" fill="#000000"/><rect x="101.0" y="111.0" width="6.0" height="10.0" fill="#000000"/><rect x="119.0" y="111.0" width="6.0" height="10.0" fill="#000000"/><rect x="131.0" y="111.0" width="6.0" height="10.0" fill="#000000"/><rect x="131.0" y="131.0" width="6.0" height="10.0" fill="#000000"/><rect x="131.0" y="141.0" width="6.0" height="10.0" fill="#000000"/><rect x="113.0" y="141.0" width="6.0" height="10.0" fill="#000000"/><rect x="107.0" y="141.0" width="6.0" height="10.0" fill="#000000"/><rect x="89.0" y="141.0" width="6.0" height="10.0" fill="#000000"/><rect x="83.0" y="141.0" width="6.0" height="10.0" fill="#000000"/><rect x="77.0" y="141.0" width="6.0" height="10.0" fill="#000000"/><rect x="143.0" y="111.0" width="6.0" height="10.0" fill="#ffd966"/><rect x="149.0" y="111.0" width="6.0" height="10.0" fill="#ffd966"/><rect x="155.0" y="111.0" width="6.0" height="10.0" fill="#ffd966"/><rect x="161.0" y="111.0" width="6.0" height="10.0" fill="#ffd966"/><rect x="179.0" y="111.0" width="6.0" height="10.0" fill="#ffd966"/><rect x="185.0" y="111.0" width="6.0" height="10.0" fill="#ffd966"/><rect x="179.0" y="141.0" width="6.0" height="10.0" fill="#ffd966"/><rect x="173.0" y="141.0" width="6.0" height="10.0" fill="#ffd966"/><rect x="167.0" y="141.0" width="6.0" height="10.0" fill="#ffd966"/><rect x="149.0" y="141.0" width="6.0" height="10.0" fill="#ffd966"/><rect x="137.0" y="141.0" width="6.0" height="10.0" fill="#ffd966"/><rect x="137.0" y="121.0" width="6.0" height="10.0" fill="#ffd966"/><g clip-path="url(#grid-clip-8ca076ef-3x3)"><ellipse cx="77.0" cy="151.0" rx="77.17633465854476" ry="53.941125496954285" transform="rotate(180.0 77.0 151.0)" fill="#ffffff" fill-opacity="0.4"/></g><rect x="23.0" y="41.0" width="48.0" height="20.0" fill="#da2136"/><text x="47.0" y="51.0" fill="#ffffff" style="font-family: monospace; font-size: 16.0px;" text-anchor="middle" dominant-baseline="central">Eb8T</text><rect x="83.0" y="41.0" width="48.0" height="20.0" fill="#ca2948"/><text x="107.0" y="51.0" fill="#ffffff" style="font-family: monospace; font-size: 16.0px;" text-anchor="middle" dominant-baseline="central">K3gB</text><rect x="143.0" y="41.0" width="48.0" height="20.0" fill="#21b19e"/><text x="167.0" y="51.0" fill="#000000" style="font-family: monospace; font-size: 16.0px;" text-anchor="middle" dominant-baseline="central">gk5a</text><rect x="23.0" y="81.0" width="48.0" height="20.0" fill="#f60ad2"/><text x="47.0" y="91.0" fill="#000000" style="font-family: monospace; font-size: 16.0px;" text-anchor="middle" dominant-baseline="central">uZkw</text><rect x="83.0" y="81.0" width="48.0" height="20.0" fill="#905c8c"/><text x="107.0" y="91.0" fill="#ffffff" style="font-family: monospace; font-size: 16.0px;" text-anchor="middle" dominant-baseline="central">c6sH</text><rect x="143.0" y="81.0" width="48.0" height="20.0" fill="#4f6cb7"/><text x="167.0" y="91.0" fill="#ffffff" style="font-family: monospace; font-size: 16.0px;" text-anchor="middle" dominant-baseline="central">nwrG</text><rect x="23.0" y="121.0" width="48.0" height="20.0" fill="#071471"/><text x="47.0" y="131.0" fill="#ffffff" style="font-family: monospace; font-size: 16.0px;" text-anchor="middle" dominant-baseline="central">VJH8</text><rect x="83.0" y="121.0" width="48.0" height="20.0" fill="#534833"/><text x="107.0" y="131.0" fill="#ffffff" style="font-family: monospace; font-size: 16.0px;" text-anchor="middle" dominant-baseline="central">DuaL</text><rect x="143.0" y="121.0" width="48.0" height="20.0" fill="#2880a2"/><text x="167.0" y="131.0" fill="#ffffff" style="font-family: monospace; font-size: 16.0px;" text-anchor="middle" dominant-baseline="central">h</text><polygon points="23.0,41.0 33.0,41.0 23.0,51.0" fill="#ffffff"/><polygon points="191.0,41.0 181.0,41.0 191.0,51.0" fill="#000000"/><polygon points="131.0,101.0 131.0,91.0 121.0,101.0" fill="#ffffff"/><rect x="1" y="1" width="10.0" height="64.1210881007873" fill="#000000"/><rect x="1" y="65.1210881007873" width="10.0" height="43.08967469212307" fill="#ffffff"/><rect x="1" y="108.21076279291037" width="10.0" height="29.60692779964251" fill="#ff3f2f"/><rect x="1" y="137.81769059255288" width="10.0" height="18.18230940744712" fill="#ffd966"/><text x="17.0" y="16.0" fill="#666666" style="font-family: monospace; font-size: 12.0px;" dominant-baseline="central">XRP: r...</text><line x1="0" y1="0.5" x2="203.0" y2="0.5" stroke="#808080" stroke-width="1" shape-rendering="crispEdges"/><line x1="202.5" y1="0" x2="202.5" y2="157.0" stroke="#808080" stroke-width="1" shape-rendering="crispEdges"/><line x1="0" y1="156.5" x2="203.0" y2="156.5" stroke="#808080" stroke-width="1" shape-rendering="crispEdges"/><line x1="0.5" y1="0" x2="0.5" y2="157.0" stroke="#808080" stroke-width="1" shape-rendering="crispEdges"/><line x1="11.5" y1="0" x2="11.5" y2="157.0" stroke="#808080" stroke-width="1" shape-rendering="crispEdges"/></svg>