<svg width="203.0" height="197.0" viewBox="0 0 203.0 197.0" xmlns="http://www.w3.org/2000/svg" data-entviz-version="v5" data-entviz-lib="0.5.0" data-input-bytes="42" data-cols="3" data-rows="4"><defs><clipPath id="grid-clip-fe25eb8a2ab1916a-3x4"><rect x="17.0" y="31.0" width="180.0" height="160.0"/></clipPath></defs><rect x="0" y="0" width="203.0" height="197.0" fill="#ffffff"/><g data-channel="grid"><rect x="17.0" y="31.0" width="180.0" height="160.0" fill="#ff3f2f"/><g><rect x="17.0" y="31.0" width="6.0" height="10.0" fill="#ffd966"/><rect x="23.0" y="31.0" width="6.0" height="10.0" fill="#ffd966"/><rect x="35.0" y="31.0" width="6.0" height="10.0" fill="#ffd966"/><rect x="47.0" y="31.0" width="6.0" height="10.0" fill="#ffd966"/><rect x="53.0" y="31.0" width="6.0" height="10.0" fill="#ffd966"/><rect x="59.0" y="31.0" width="6.0" height="10.0" fill="#ffd966"/><rect x="65.0" y="31.0" width="6.0" height="10.0" fill="#ffd966"/><rect x="71.0" y="41.0" width="6.0" height="10.0" fill="#ffd966"/><rect x="65.0" y="61.0" width="6.0" height="10.0" fill="#ffd966"/><rect x="41.0" y="61.0" width="6.0" height="10.0" fill="#ffd966"/><rect x="35.0" y="61.0" width="6.0" height="10.0" fill="#ffd966"/><rect x="29.0" y="61.0" width="6.0" height="10.0" fill="#ffd966"/><rect x="23.0" y="61.0" width="6.0" height="10.0" fill="#ffd966"/><rect x="17.0" y="61.0" width="6.0" height="10.0" fill="#ffd966"/><rect x="17.0" y="51.0" width="6.0" height="10.0" fill="#ffd966"/><rect x="17.0" y="41.0" width="6.0" height="10.0" fill="#ffd966"/><rect x="77.0" y="31.0" width="6.0" height="10.0" fill="#000000"/><rect x="101.0" y="31.0" width="6.0" height="10.0" fill="#000000"/><rect x="107.0" y="31.0" width="6.0" height="10.0" fill="#000000"/><rect x="119.0" y="31.0" width="6.0" height="10.0" fill="#000000"/><rect x="131.0" y="31.0" width="6.0" height="10.0" fill="#000000"/><rect x="131.0" y="51.0" width="6.0" height="10.0" fill="#000000"/><rect x="125.0" y="61.0" width="6.0" height="10.0" fill="#000000"/><rect x="101.0" y="61.0" width="6.0" height="10.0" fill="#000000"/><rect x="89.0" y="61.0" width="6.0" height="10.0" fill="#000000"/><rect x="77.0" y="41.0" width="6.0" height="10.0" fill="#000000"/><rect x="149.0" y="31.0" width="6.0" height="10.0" fill="#2f3fbf"/><rect x="173.0" y="31.0" width="6.0" height="10.0" fill="#2f3fbf"/><rect x="191.0" y="31.0" width="6.0" height="10.0" fill="#2f3fbf"/><rect x="191.0" y="51.0" width="6.0" height="10.0" fill="#2f3fbf"/><rect x="185.0" y="61.0" width="6.0" height="10.0" fill="#2f3fbf"/><rect x="179.0" y="61.0" width="6.0" height="10.0" fill="#2f3fbf"/><rect x="167.0" y="61.0" width="6.0" height="10.0" fill="#2f3fbf"/><rect x="143.0" y="61.0" width="6.0" height="10.0" fill="#2f3fbf"/><rect x="137.0" y="41.0" width="6.0" height="10.0" fill="#2f3fbf"/><rect x="83.0" y="71.0" width="6.0" height="10.0" fill="#2f3fbf"/><rect x="89.0" y="71.0" width="6.0" height="10.0" fill="#2f3fbf"/><rect x="95.0" y="71.0" width="6.0" height="10.0" fill="#2f3fbf"/><rect x="113.0" y="71.0" width="6.0" height="10.0" fill="#2f3fbf"/><rect x="131.0" y="71.0" width="6.0" height="10.0" fill="#2f3fbf"/><rect x="131.0" y="101.0" width="6.0" height="10.0" fill="#2f3fbf"/><rect x="113.0" y="101.0" width="6.0" height="10.0" fill="#2f3fbf"/><rect x="77.0" y="101.0" width="6.0" height="10.0" fill="#2f3fbf"/><rect x="77.0" y="91.0" width="6.0" height="10.0" fill="#2f3fbf"/><rect x="137.0" y="71.0" width="6.0" height="10.0" fill="#ffd966"/><rect x="143.0" y="71.0" width="6.0" height="10.0" fill="#ffd966"/><rect x="167.0" y="71.0" width="6.0" height="10.0" fill="#ffd966"/><rect x="185.0" y="71.0" width="6.0" height="10.0" fill="#ffd966"/><rect x="191.0" y="91.0" width="6.0" height="10.0" fill="#ffd966"/><rect x="191.0" y="101.0" width="6.0" height="10.0" fill="#ffd966"/><rect x="185.0" y="101.0" width="6.0" height="10.0" fill="#ffd966"/><rect x="167.0" y="101.0" width="6.0" height="10.0" fill="#ffd966"/><rect x="161.0" y="101.0" width="6.0" height="10.0" fill="#ffd966"/><rect x="155.0" y="101.0" width="6.0" height="10.0" fill="#ffd966"/><rect x="143.0" y="101.0" width="6.0" height="10.0" fill="#ffd966"/><rect x="137.0" y="91.0" width="6.0" height="10.0" fill="#ffd966"/><rect x="137.0" y="81.0" width="6.0" height="10.0" fill="#ffd966"/><rect x="83.0" y="111.0" width="6.0" height="10.0" fill="#ffffff"/><rect x="101.0" y="111.0" width="6.0" height="10.0" fill="#ffffff"/><rect x="107.0" y="111.0" width="6.0" height="10.0" fill="#ffffff"/><rect x="113.0" y="111.0" width="6.0" height="10.0" fill="#ffffff"/><rect x="119.0" y="111.0" width="6.0" height="10.0" fill="#ffffff"/><rect x="131.0" y="131.0" width="6.0" height="10.0" fill="#ffffff"/><rect x="131.0" y="141.0" width="6.0" height="10.0" fill="#ffffff"/><rect x="125.0" y="141.0" width="6.0" height="10.0" fill="#ffffff"/><rect x="107.0" y="141.0" width="6.0" height="10.0" fill="#ffffff"/><rect x="101.0" y="141.0" width="6.0" height="10.0" fill="#ffffff"/><rect x="95.0" y="141.0" width="6.0" height="10.0" fill="#ffffff"/><rect x="77.0" y="141.0" width="6.0" height="10.0" fill="#ffffff"/><rect x="77.0" y="121.0" width="6.0" height="10.0" fill="#ffffff"/><rect x="137.0" y="111.0" width="6.0" height="10.0" fill="#000000"/><rect x="143.0" y="111.0" width="6.0" height="10.0" fill="#000000"/><rect x="149.0" y="111.0" width="6.0" height="10.0" fill="#000000"/><rect x="155.0" y="111.0" width="6.0" height="10.0" fill="#000000"/><rect x="191.0" y="131.0" width="6.0" height="10.0" fill="#000000"/><rect x="179.0" y="141.0" width="6.0" height="10.0" fill="#000000"/><rect x="167.0" y="141.0" width="6.0" height="10.0" fill="#000000"/><rect x="143.0" y="141.0" width="6.0" height="10.0" fill="#000000"/><rect x="17.0" y="151.0" width="6.0" height="10.0" fill="#ffd966"/><rect x="47.0" y="151.0" width="6.0" height="10.0" fill="#ffd966"/><rect x="53.0" y="151.0" width="6.0" height="10.0" fill="#ffd966"/><rect x="59.0" y="151.0" width="6.0" height="10.0" fill="#ffd966"/><rect x="71.0" y="151.0" width="6.0" height="10.0" fill="#ffd966"/><rect x="71.0" y="161.0" width="6.0" height="10.0" fill="#ffd966"/><rect x="71.0" y="171.0" width="6.0" height="10.0" fill="#ffd966"/><rect x="47.0" y="181.0" width="6.0" height="10.0" fill="#ffd966"/><rect x="29.0" y="181.0" width="6.0" height="10.0" fill="#ffd966"/><rect x="23.0" y="181.0" width="6.0" height="10.0" fill="#ffd966"/><rect x="77.0" y="151.0" width="6.0" height="10.0" fill="#2f3fbf"/><rect x="83.0" y="151.0" width="6.0" height="10.0" fill="#2f3fbf"/><rect x="95.0" y="151.0" width="6.0" height="10.0" fill="#2f3fbf"/><rect x="107.0" y="151.0" width="6.0" height="10.0" fill="#2f3fbf"/><rect x="113.0" y="151.0" width="6.0" height="10.0" fill="#2f3fbf"/><rect x="131.0" y="151.0" width="6.0" height="10.0" fill="#2f3fbf"/><rect x="119.0" y="181.0" width="6.0" height="10.0" fill="#2f3fbf"/><rect x="113.0" y="181.0" width="6.0" height="10.0" fill="#2f3fbf"/><rect x="107.0" y="181.0" width="6.0" height="10.0" fill="#2f3fbf"/><rect x="95.0" y="181.0" width="6.0" height="10.0" fill="#2f3fbf"/><rect x="89.0" y="181.0" width="6.0" height="10.0" fill="#2f3fbf"/><rect x="83.0" y="181.0" width="6.0" height="10.0" fill="#2f3fbf"/><rect x="77.0" y="181.0" width="6.0" height="10.0" fill="#2f3fbf"/><rect x="77.0" y="171.0" width="6.0" height="10.0" fill="#2f3fbf"/><rect x="77.0" y="161.0" width="6.0" height="10.0" fill="#2f3fbf"/><rect x="137.0" y="151.0" width="6.0" height="10.0" fill="#ffd966"/><rect x="149.0" y="151.0" width="6.0" height="10.0" fill="#ffd966"/><rect x="185.0" y="151.0" width="6.0" height="10.0" fill="#ffd966"/><rect x="191.0" y="151.0" width="6.0" height="10.0" fill="#ffd966"/><rect x="179.0" y="181.0" width="6.0" height="10.0" fill="#ffd966"/><rect x="173.0" y="181.0" width="6.0" height="10.0" fill="#ffd966"/><rect x="155.0" y="181.0" width="6.0" height="10.0" fill="#ffd966"/><rect x="143.0" y="181.0" width="6.0" height="10.0" fill="#ffd966"/><rect x="137.0" y="181.0" width="6.0" height="10.0" fill="#ffd966"/></g><g clip-path="url(#grid-clip-fe25eb8a2ab1916a-3x4)" data-channel="ellipse" data-ellipse-anchor-x="137.0" data-ellipse-anchor-y="71.0" data-ellipse-rx="103.72525231911999" data-ellipse-ry="49.90187582825713" data-ellipse-rotation-deg="24.0"><ellipse cx="137.0" cy="71.0" rx="103.72525231911999" ry="49.90187582825713" transform="rotate(24.0 137.0 71.0)" fill="#000000" fill-opacity="0.4"/></g><g><g data-channel="cell" data-cell-index="0" data-cell-row="0" data-cell-col="0"><rect x="23.0" y="41.0" width="48.0" height="20.0" fill="#ffa803"/><text x="47.0" y="51.0" fill="#000000" style="font-family: &quot;DejaVu Sans Mono&quot;, &quot;Consolas&quot;, &quot;Menlo&quot;, &quot;Liberation Mono&quot;, monospace; font-size: 16.0px;" text-anchor="middle" dominant-baseline="central">qw50</text></g><g data-channel="cell" data-cell-index="1" data-cell-row="0" data-cell-col="1"><rect x="83.0" y="41.0" width="48.0" height="20.0" fill="#00743b"/><text x="107.0" y="51.0" fill="#ffffff" style="font-family: &quot;DejaVu Sans Mono&quot;, &quot;Consolas&quot;, &quot;Menlo&quot;, &quot;Liberation Mono&quot;, monospace; font-size: 16.0px;" text-anchor="middle" dominant-baseline="central">8d6q</text></g><g data-channel="cell" data-cell-index="2" data-cell-row="0" data-cell-col="2" data-cell-quartile="1"><rect x="143.0" y="41.0" width="48.0" height="20.0" fill="#bb8ccc"/><text x="167.0" y="51.0" fill="#000000" style="font-family: &quot;DejaVu Sans Mono&quot;, &quot;Consolas&quot;, &quot;Menlo&quot;, &quot;Liberation Mono&quot;, monospace; font-size: 16.0px;" text-anchor="middle" dominant-baseline="central">ejxt</text><polygon points="143.0,41.0 153.0,41.0 143.0,51.0" fill="#000000"/></g><g data-channel="cell" data-cell-index="3" data-cell-row="1" data-cell-col="0" data-cell-blank="true" data-cell-blank-marker="true"><circle cx="47.0" cy="91.0" r="17.0" fill="#ffffff" stroke="#000000" stroke-width="1"/><line x1="47.0" y1="91.0" x2="47.0" y2="73.0" stroke="#ffffff" style="mix-blend-mode: difference" stroke-width="1"/><line x1="47.0" y1="91.0" x2="55.06380803342937" y2="93.68793601114312" stroke="#000000" stroke-width="1"/><circle cx="55.06380803342937" cy="93.68793601114312" r="1.5" fill="#ffffff" stroke="#000000" stroke-width="1"/></g><g data-channel="cell" data-cell-index="4" data-cell-row="1" data-cell-col="1"><rect x="83.0" y="81.0" width="48.0" height="20.0" fill="#442a6a"/><text x="107.0" y="91.0" fill="#ffffff" style="font-family: &quot;DejaVu Sans Mono&quot;, &quot;Consolas&quot;, &quot;Menlo&quot;, &quot;Liberation Mono&quot;, monospace; font-size: 16.0px;" text-anchor="middle" dominant-baseline="central">dg4y</text></g><g data-channel="cell" data-cell-index="5" data-cell-row="1" data-cell-col="2"><rect x="143.0" y="81.0" width="48.0" height="20.0" fill="#22e2a0"/><text x="167.0" y="91.0" fill="#000000" style="font-family: &quot;DejaVu Sans Mono&quot;, &quot;Consolas&quot;, &quot;Menlo&quot;, &quot;Liberation Mono&quot;, monospace; font-size: 16.0px;" text-anchor="middle" dominant-baseline="central">5r3z</text></g><g data-channel="cell" data-cell-index="6" data-cell-row="2" data-cell-col="0" data-cell-blank="true" data-cell-blank-marker="true"><circle cx="47.0" cy="131.0" r="17.0" fill="#ffffff" stroke="#000000" stroke-width="1"/><line x1="47.0" y1="131.0" x2="47.0" y2="113.0" stroke="#ffffff" style="mix-blend-mode: difference" stroke-width="1"/><line x1="47.0" y1="131.0" x2="55.5" y2="131.0" stroke="#000000" stroke-width="1"/><circle cx="55.5" cy="131.0" r="1.5" fill="#ffffff" stroke="#000000" stroke-width="1"/></g><g data-channel="cell" data-cell-index="7" data-cell-row="2" data-cell-col="1" data-cell-quartile="4"><rect x="83.0" y="121.0" width="48.0" height="20.0" fill="#ddd9e8"/><text x="107.0" y="131.0" fill="#000000" style="font-family: &quot;DejaVu Sans Mono&quot;, &quot;Consolas&quot;, &quot;Menlo&quot;, &quot;Liberation Mono&quot;, monospace; font-size: 16.0px;" text-anchor="middle" dominant-baseline="central">arva</text><polygon points="83.0,141.0 83.0,131.0 93.0,141.0" fill="#000000"/></g><g data-channel="cell" data-cell-index="8" data-cell-row="2" data-cell-col="2" data-cell-quartile="2"><rect x="143.0" y="121.0" width="48.0" height="20.0" fill="#881f19"/><text x="167.0" y="131.0" fill="#ffffff" style="font-family: &quot;DejaVu Sans Mono&quot;, &quot;Consolas&quot;, &quot;Menlo&quot;, &quot;Liberation Mono&quot;, monospace; font-size: 16.0px;" text-anchor="middle" dominant-baseline="central">ry0c</text><polygon points="191.0,121.0 181.0,121.0 191.0,131.0" fill="#ffffff"/></g><g data-channel="cell" data-cell-index="9" data-cell-row="3" data-cell-col="0"><rect x="23.0" y="161.0" width="48.0" height="20.0" fill="#ee9da1"/><text x="47.0" y="171.0" fill="#000000" style="font-family: &quot;DejaVu Sans Mono&quot;, &quot;Consolas&quot;, &quot;Menlo&quot;, &quot;Liberation Mono&quot;, monospace; font-size: 16.0px;" text-anchor="middle" dominant-baseline="central">5xw7</text></g><g data-channel="cell" data-cell-index="10" data-cell-row="3" data-cell-col="1" data-cell-quartile="3"><rect x="83.0" y="161.0" width="48.0" height="20.0" fill="#990eb3"/><text x="107.0" y="171.0" fill="#ffffff" style="font-family: &quot;DejaVu Sans Mono&quot;, &quot;Consolas&quot;, &quot;Menlo&quot;, &quot;Liberation Mono&quot;, monospace; font-size: 16.0px;" text-anchor="middle" dominant-baseline="central">kv8f</text><polygon points="131.0,181.0 131.0,171.0 121.0,181.0" fill="#ffffff"/></g><g data-channel="cell" data-cell-index="11" data-cell-row="3" data-cell-col="2"><rect x="143.0" y="161.0" width="48.0" height="20.0" fill="#75eb8a"/><text x="167.0" y="171.0" fill="#000000" style="font-family: &quot;DejaVu Sans Mono&quot;, &quot;Consolas&quot;, &quot;Menlo&quot;, &quot;Liberation Mono&quot;, monospace; font-size: 16.0px;" text-anchor="middle" dominant-baseline="central">3t4</text></g></g></g><g data-channel="color-bar"><g data-color-bar-rank="0" data-color-bar-band="W"><rect x="1" y="1" width="10.0" height="60.77623270031055" fill="#ffffff"/><text x="6.0" y="31.388116350155276" fill="#000000" style="font-family: &quot;DejaVu Sans Mono&quot;, &quot;Consolas&quot;, &quot;Menlo&quot;, &quot;Liberation Mono&quot;, monospace; font-size: 8.5px;" text-anchor="middle" dominant-baseline="central" data-color-bar-letter="true">w</text></g><g data-color-bar-rank="1" data-color-bar-band="B"><rect x="1" y="61.77623270031055" width="10.0" height="57.279251768834456" fill="#2f3fbf"/><text x="6.0" y="90.41585858472777" fill="#ffffff" style="font-family: &quot;DejaVu Sans Mono&quot;, &quot;Consolas&quot;, &quot;Menlo&quot;, &quot;Liberation Mono&quot;, monospace; font-size: 8.5px;" text-anchor="middle" dominant-baseline="central" data-color-bar-letter="true">b</text></g><g data-color-bar-rank="2" data-color-bar-band="G"><rect x="1" y="119.055484469145" width="10.0" height="44.77754955784496" fill="#ffd966"/><text x="6.0" y="141.44425924806748" fill="#000000" style="font-family: &quot;DejaVu Sans Mono&quot;, &quot;Consolas&quot;, &quot;Menlo&quot;, &quot;Liberation Mono&quot;, monospace; font-size: 8.5px;" text-anchor="middle" dominant-baseline="central" data-color-bar-letter="true">g</text></g><g data-color-bar-rank="3" data-color-bar-band="K"><rect x="1" y="163.83303402698996" width="10.0" height="32.166965973010036" fill="#000000"/><text x="6.0" y="179.91651701349497" fill="#ffffff" style="font-family: &quot;DejaVu Sans Mono&quot;, &quot;Consolas&quot;, &quot;Menlo&quot;, &quot;Liberation Mono&quot;, monospace; font-size: 8.5px;" text-anchor="middle" dominant-baseline="central" data-color-bar-letter="true">k</text></g></g><g data-channel="label-top"><text x="17.0" y="16.0" fill="#666666" style="font-family: &quot;DejaVu Sans Mono&quot;, &quot;Consolas&quot;, &quot;Menlo&quot;, &quot;Liberation Mono&quot;, monospace; font-size: 12.0px;" dominant-baseline="central">BTC SegWit: bc1...</text></g><line x1="0" y1="0.5" x2="203.0" y2="0.5" stroke="#808080" stroke-width="1" shape-rendering="crispEdges"/><line x1="202.5" y1="0" x2="202.5" y2="197.0" stroke="#808080" stroke-width="1" shape-rendering="crispEdges"/><line x1="0" y1="196.5" x2="203.0" y2="196.5" stroke="#808080" stroke-width="1" shape-rendering="crispEdges"/><line x1="0.5" y1="0" x2="0.5" y2="197.0" stroke="#808080" stroke-width="1" shape-rendering="crispEdges"/><line x1="11.5" y1="0" x2="11.5" y2="197.0" stroke="#808080" stroke-width="1" shape-rendering="crispEdges"/></svg>