<svg width="215" height="174" viewBox="0 0 215 174" xmlns="http://www.w3.org/2000/svg" font-family="&quot;JetBrains Mono&quot;, &quot;Menlo&quot;, &quot;Consolas&quot;, &quot;DejaVu Sans Mono&quot;, &quot;Liberation Mono&quot;, &quot;Roboto Mono&quot;, &quot;Noto Sans Mono&quot;, monospace" data-entviz-version="v14" data-entviz-lib="0.14.0" data-input-bytes="34" data-cols="3" data-rows="3" data-encoding="base58" data-scheme="btc" data-role="address" data-size-basis="decoded" data-entropy-type="btc" data-size-bits="168" data-qualifiers="{&quot;network&quot;:&quot;mainnet&quot;,&quot;variant&quot;:&quot;legacy&quot;}" data-parts="[{&quot;text&quot;:&quot;1&quot;,&quot;bind&quot;:&quot;none&quot;},{&quot;text&quot;:&quot;BvBMSEYstWetqTFn5Au4m4GFg7xJa&quot;,&quot;bind&quot;:&quot;core&quot;},{&quot;text&quot;:&quot;NVN2&quot;,&quot;bind&quot;:&quot;none&quot;}]"><defs><clipPath id="grid-clip-2a723501daa5757b-3x3"><rect x="28" y="27" width="180" height="120"/></clipPath></defs><rect x="1" y="1" width="213" height="172" fill="#ffffff"/><g data-channel="grid"><rect x="28" y="27" width="180" height="120" fill="#ffffff"/><g><path fill="#ff3f2f" d="M28 27h6v10h-6zM40 27h6v10h-6zM52 27h6v10h-6zM58 27h6v10h-6zM82 27h6v10h-6zM82 57h6v10h-6zM76 57h6v10h-6zM70 57h6v10h-6zM52 57h6v10h-6zM40 57h6v10h-6zM28 57h6v10h-6z"/><path fill="#e7be00" d="M88 27h6v10h-6zM100 27h6v10h-6zM118 27h6v10h-6zM130 27h6v10h-6zM142 27h6v10h-6zM142 47h6v10h-6zM142 57h6v10h-6zM130 57h6v10h-6zM124 57h6v10h-6zM118 57h6v10h-6z"/><path fill="#2f3fbf" d="M148 27h6v10h-6zM154 27h6v10h-6zM160 27h6v10h-6zM172 27h6v10h-6zM178 27h6v10h-6zM184 27h6v10h-6zM196 27h6v10h-6zM202 27h6v10h-6zM202 47h6v10h-6zM202 57h6v10h-6zM196 57h6v10h-6zM190 57h6v10h-6zM178 57h6v10h-6zM166 57h6v10h-6zM154 57h6v10h-6zM148 57h6v10h-6zM148 47h6v10h-6z"/><path fill="#2f3fbf" d="M28 67h6v10h-6zM40 67h6v10h-6zM46 67h6v10h-6zM52 67h6v10h-6zM64 67h6v10h-6zM76 67h6v10h-6zM82 67h6v10h-6zM82 87h6v10h-6zM76 97h6v10h-6zM70 97h6v10h-6zM52 97h6v10h-6zM34 97h6v10h-6zM28 97h6v10h-6zM28 77h6v10h-6z"/><path fill="#e7be00" d="M184 67h6v10h-6zM196 67h6v10h-6zM202 67h6v10h-6zM202 87h6v10h-6zM202 97h6v10h-6zM196 97h6v10h-6zM178 97h6v10h-6zM160 97h6v10h-6zM154 97h6v10h-6zM148 97h6v10h-6z"/><path fill="#2f3fbf" d="M28 107h6v10h-6zM34 107h6v10h-6zM40 107h6v10h-6zM46 107h6v10h-6zM58 107h6v10h-6zM64 107h6v10h-6zM76 107h6v10h-6zM82 107h6v10h-6zM82 127h6v10h-6zM76 137h6v10h-6zM70 137h6v10h-6zM46 137h6v10h-6zM40 137h6v10h-6zM28 137h6v10h-6zM28 127h6v10h-6z"/><path fill="#ff3f2f" d="M88 107h6v10h-6zM100 107h6v10h-6zM124 107h6v10h-6zM130 107h6v10h-6zM142 107h6v10h-6zM142 127h6v10h-6zM142 137h6v10h-6zM130 137h6v10h-6zM100 137h6v10h-6zM88 127h6v10h-6z"/><path fill="#2f3fbf" d="M154 107h6v10h-6zM184 107h6v10h-6zM202 117h6v10h-6zM190 137h6v10h-6zM154 137h6v10h-6z"/></g><g clip-path="url(#grid-clip-2a723501daa5757b-3x3)" data-channel="ellipse" data-ellipse-anchor-x="208" data-ellipse-anchor-y="67" data-ellipse-rx="62.245" data-ellipse-ry="62.245" data-ellipse-rotation-deg="132"><ellipse cx="208" cy="67" rx="62.245" ry="62.245" transform="rotate(132 208 67)" fill="#000000" stroke="#000000" fill-opacity="0.2" stroke-opacity="0.3" stroke-width="2"/></g><g><g data-channel="cell" data-cell-index="0" data-cell-row="0" data-cell-col="0" data-surround-bits="0x2a7235" data-edge-color="#ff3f2f" data-cell-quartile="1"><rect x="34" y="37" width="48" height="20" fill="#94522b"/><text x="58" y="47" fill="#ffffff" font-size="16" text-anchor="middle" dominant-baseline="central">BvBM</text><polygon points="34,37 44,37 34,47" fill="#ffffff"/></g><g data-channel="cell" data-cell-index="1" data-cell-row="0" data-cell-col="1" data-surround-bits="0x1daa5" data-edge-color="#e7be00" data-cell-quartile="4"><rect x="94" y="37" width="48" height="20" fill="#f2d764"/><text x="118" y="47" fill="#000000" font-size="16" text-anchor="middle" dominant-baseline="central">SEYs</text><polygon points="94,57 94,47 104,57" fill="#000000"/></g><g data-channel="cell" data-cell-index="2" data-cell-row="0" data-cell-col="2" data-surround-bits="0x757b77" data-edge-color="#2f3fbf"><rect x="154" y="37" width="48" height="20" fill="#73d9cd"/><text x="178" y="47" fill="#000000" font-size="16" text-anchor="middle" dominant-baseline="central">tWet</text></g><g data-channel="cell" data-cell-index="3" data-cell-row="1" data-cell-col="0" data-surround-bits="0xb26b5d" data-edge-color="#2f3fbf"><rect x="34" y="77" width="48" height="20" fill="#ada3c1"/><text x="58" y="87" fill="#000000" font-size="16" text-anchor="middle" dominant-baseline="central">qTFn</text></g><g data-channel="cell" data-cell-index="4" data-cell-row="1" data-cell-col="1" data-cell-blank="true" data-cell-blank-map="true"><rect x="94" y="77" width="48" height="20" rx="10" ry="10" fill="#2f3fbf" stroke="#000000" stroke-width="1"/><circle cx="118" cy="80.333" r="3.5" fill="#ffffff" data-blank-map-min="0,1"/><path d="M 97.8,87 H 106.2 M 102,82.8 V 91.2" fill="none" stroke="#ffffff" stroke-width="1.925" stroke-linecap="butt" data-blank-map-max="1,0"/></g><g data-channel="cell" data-cell-index="5" data-cell-row="1" data-cell-col="2" data-surround-bits="0x393b40" data-edge-color="#e7be00" data-cell-quartile="2"><rect x="154" y="77" width="48" height="20" fill="#039d10"/><text x="178" y="87" fill="#000000" font-size="16" text-anchor="middle" dominant-baseline="central">5Au4</text><polygon points="202,77 192,77 202,87" fill="#000000"/></g><g data-channel="cell" data-cell-index="6" data-cell-row="2" data-cell-col="0" data-surround-bits="0x6c6b6f" data-edge-color="#2f3fbf"><rect x="34" y="117" width="48" height="20" fill="#ce33b0"/><text x="58" y="127" fill="#000000" font-size="16" text-anchor="middle" dominant-baseline="central">m4GF</text></g><g data-channel="cell" data-cell-index="7" data-cell-row="2" data-cell-col="1" data-surround-bits="0x485ac5" data-edge-color="#ff3f2f" data-cell-quartile="3"><rect x="94" y="117" width="48" height="20" fill="#d16d9c"/><text x="118" y="127" fill="#000000" font-size="16" text-anchor="middle" dominant-baseline="central">g7xJ</text><polygon points="142,137 142,127 132,137" fill="#000000"/></g><g data-channel="cell" data-cell-index="8" data-cell-row="2" data-cell-col="2" data-surround-bits="0x104442" data-edge-color="#2f3fbf"><rect x="154" y="117" width="48" height="20" fill="#611886"/><text x="178" y="127" fill="#ffffff" font-size="16" text-anchor="middle" dominant-baseline="central">a</text></g></g></g><g data-channel="color-bar" data-bar-slots="14" data-bar-marker-left="4" data-bar-marker-right="7"><g data-color-bar-rank="0" data-color-bar-band="B"><rect x="2" y="2" width="20" height="33.635" fill="#2f3fbf"/><text x="12" y="32.115" fill="#ffffff" font-size="16" text-anchor="middle" data-color-bar-letter="true">b</text></g><g data-color-bar-rank="1" data-color-bar-band="G"><rect x="2" y="35.635" width="20" height="35.895" fill="#e7be00"/><text x="12" y="68.01" fill="#000000" font-size="16" text-anchor="middle" data-color-bar-letter="true">g</text></g><g data-color-bar-rank="2" data-color-bar-band="K"><rect x="2" y="71.53" width="20" height="31.483" fill="#000000"/><text x="12" y="99.494" fill="#ffffff" font-size="16" text-anchor="middle" data-color-bar-letter="true">k</text></g><g data-color-bar-rank="3" data-color-bar-band="R"><rect x="2" y="103.014" width="20" height="68.986" fill="#ff3f2f"/><text x="12" y="168.48" fill="#000000" font-size="16" text-anchor="middle" data-color-bar-letter="true">r</text></g><circle cx="6.6" cy="56.643" r="3.4" fill="#ffffff" stroke="#000000" stroke-width="0.75" data-bar-marker="left"/><circle cx="17.4" cy="93.071" r="3.4" fill="#ffffff" stroke="#000000" stroke-width="0.75" data-bar-marker="right"/></g><g data-channel="label-top"><text x="28" y="17" fill="#666666" font-size="12" dominant-baseline="central">BTC</text></g><g data-channel="label-bottom"><text x="208" y="157" fill="#666666" font-size="12" text-anchor="end" dominant-baseline="central">...NVN2</text></g><line x1="1" y1="1.5" x2="214" y2="1.5" stroke="#808080" stroke-width="1" shape-rendering="crispEdges"/><line x1="213.5" y1="1" x2="213.5" y2="173" stroke="#808080" stroke-width="1" shape-rendering="crispEdges"/><line x1="1" y1="172.5" x2="214" y2="172.5" stroke="#808080" stroke-width="1" shape-rendering="crispEdges"/><line x1="1.5" y1="1" x2="1.5" y2="173" stroke="#808080" stroke-width="1" shape-rendering="crispEdges"/><line x1="22.5" y1="1" x2="22.5" y2="173" stroke="#808080" stroke-width="1" shape-rendering="crispEdges"/></svg>