<svg width="213.0" height="182.0" viewBox="0 0 213.0 182.0" xmlns="http://www.w3.org/2000/svg" data-entviz-version="v6" data-entviz-lib="0.5.0" data-input-bytes="34" data-cols="3" data-rows="3"><defs><clipPath id="grid-clip-4f0e0b55b8f79490-3x3"><rect x="27.0" y="31.0" width="180.0" height="120.0"/></clipPath></defs><rect x="0" y="0" width="213.0" height="182.0" fill="#ffffff"/><g data-channel="grid"><rect x="27.0" y="31.0" width="180.0" height="120.0" fill="#2f3fbf"/><g><rect x="27.0" y="31.0" width="6.0" height="10.0" fill="#000000"/><rect x="33.0" y="31.0" width="6.0" height="10.0" fill="#000000"/><rect x="45.0" y="31.0" width="6.0" height="10.0" fill="#000000"/><rect x="81.0" y="31.0" width="6.0" height="10.0" fill="#000000"/><rect x="81.0" y="41.0" width="6.0" height="10.0" fill="#000000"/><rect x="81.0" y="51.0" width="6.0" height="10.0" fill="#000000"/><rect x="57.0" y="61.0" width="6.0" height="10.0" fill="#000000"/><rect x="51.0" y="61.0" width="6.0" height="10.0" fill="#000000"/><rect x="45.0" y="61.0" width="6.0" height="10.0" fill="#000000"/><rect x="39.0" y="61.0" width="6.0" height="10.0" fill="#000000"/><rect x="27.0" y="51.0" width="6.0" height="10.0" fill="#000000"/><rect x="147.0" y="31.0" width="6.0" height="10.0" fill="#ff3f2f"/><rect x="153.0" y="31.0" width="6.0" height="10.0" fill="#ff3f2f"/><rect x="159.0" y="31.0" width="6.0" height="10.0" fill="#ff3f2f"/><rect x="171.0" y="31.0" width="6.0" height="10.0" fill="#ff3f2f"/><rect x="177.0" y="31.0" width="6.0" height="10.0" fill="#ff3f2f"/><rect x="183.0" y="31.0" width="6.0" height="10.0" fill="#ff3f2f"/><rect x="189.0" y="31.0" width="6.0" height="10.0" fill="#ff3f2f"/><rect x="201.0" y="51.0" width="6.0" height="10.0" fill="#ff3f2f"/><rect x="201.0" y="61.0" width="6.0" height="10.0" fill="#ff3f2f"/><rect x="195.0" y="61.0" width="6.0" height="10.0" fill="#ff3f2f"/><rect x="183.0" y="61.0" width="6.0" height="10.0" fill="#ff3f2f"/><rect x="177.0" y="61.0" width="6.0" height="10.0" fill="#ff3f2f"/><rect x="165.0" y="61.0" width="6.0" height="10.0" fill="#ff3f2f"/><rect x="153.0" y="61.0" width="6.0" height="10.0" fill="#ff3f2f"/><rect x="147.0" y="51.0" width="6.0" height="10.0" fill="#ff3f2f"/><rect x="27.0" y="71.0" width="6.0" height="10.0" fill="#ffd966"/><rect x="45.0" y="71.0" width="6.0" height="10.0" fill="#ffd966"/><rect x="57.0" y="71.0" width="6.0" height="10.0" fill="#ffd966"/><rect x="63.0" y="71.0" width="6.0" height="10.0" fill="#ffd966"/><rect x="69.0" y="71.0" width="6.0" height="10.0" fill="#ffd966"/><rect x="81.0" y="101.0" width="6.0" height="10.0" fill="#ffd966"/><rect x="63.0" y="101.0" width="6.0" height="10.0" fill="#ffd966"/><rect x="45.0" y="101.0" width="6.0" height="10.0" fill="#ffd966"/><rect x="33.0" y="101.0" width="6.0" height="10.0" fill="#ffd966"/><rect x="27.0" y="81.0" width="6.0" height="10.0" fill="#ffd966"/><rect x="93.0" y="71.0" width="6.0" height="10.0" fill="#000000"/><rect x="99.0" y="71.0" width="6.0" height="10.0" fill="#000000"/><rect x="105.0" y="71.0" width="6.0" height="10.0" fill="#000000"/><rect x="117.0" y="71.0" width="6.0" height="10.0" fill="#000000"/><rect x="135.0" y="71.0" width="6.0" height="10.0" fill="#000000"/><rect x="141.0" y="71.0" width="6.0" height="10.0" fill="#000000"/><rect x="141.0" y="81.0" width="6.0" height="10.0" fill="#000000"/><rect x="141.0" y="91.0" width="6.0" height="10.0" fill="#000000"/><rect x="129.0" y="101.0" width="6.0" height="10.0" fill="#000000"/><rect x="111.0" y="101.0" width="6.0" height="10.0" fill="#000000"/><rect x="105.0" y="101.0" width="6.0" height="10.0" fill="#000000"/><rect x="99.0" y="101.0" width="6.0" height="10.0" fill="#000000"/><rect x="93.0" y="101.0" width="6.0" height="10.0" fill="#000000"/><rect x="87.0" y="91.0" width="6.0" height="10.0" fill="#000000"/><rect x="153.0" y="71.0" width="6.0" height="10.0" fill="#ffd966"/><rect x="171.0" y="71.0" width="6.0" height="10.0" fill="#ffd966"/><rect x="177.0" y="71.0" width="6.0" height="10.0" fill="#ffd966"/><rect x="183.0" y="71.0" width="6.0" height="10.0" fill="#ffd966"/><rect x="189.0" y="71.0" width="6.0" height="10.0" fill="#ffd966"/><rect x="195.0" y="71.0" width="6.0" height="10.0" fill="#ffd966"/><rect x="201.0" y="71.0" width="6.0" height="10.0" fill="#ffd966"/><rect x="201.0" y="81.0" width="6.0" height="10.0" fill="#ffd966"/><rect x="201.0" y="101.0" width="6.0" height="10.0" fill="#ffd966"/><rect x="189.0" y="101.0" width="6.0" height="10.0" fill="#ffd966"/><rect x="183.0" y="101.0" width="6.0" height="10.0" fill="#ffd966"/><rect x="171.0" y="101.0" width="6.0" height="10.0" fill="#ffd966"/><rect x="165.0" y="101.0" width="6.0" height="10.0" fill="#ffd966"/><rect x="153.0" y="101.0" width="6.0" height="10.0" fill="#ffd966"/><rect x="27.0" y="111.0" width="6.0" height="10.0" fill="#000000"/><rect x="51.0" y="111.0" width="6.0" height="10.0" fill="#000000"/><rect x="57.0" y="111.0" width="6.0" height="10.0" fill="#000000"/><rect x="69.0" y="111.0" width="6.0" height="10.0" fill="#000000"/><rect x="75.0" y="111.0" width="6.0" height="10.0" fill="#000000"/><rect x="81.0" y="111.0" width="6.0" height="10.0" fill="#000000"/><rect x="81.0" y="131.0" width="6.0" height="10.0" fill="#000000"/><rect x="81.0" y="141.0" width="6.0" height="10.0" fill="#000000"/><rect x="63.0" y="141.0" width="6.0" height="10.0" fill="#000000"/><rect x="39.0" y="141.0" width="6.0" height="10.0" fill="#000000"/><rect x="27.0" y="121.0" width="6.0" height="10.0" fill="#000000"/><rect x="105.0" y="111.0" width="6.0" height="10.0" fill="#ff3f2f"/><rect x="111.0" y="111.0" width="6.0" height="10.0" fill="#ff3f2f"/><rect x="129.0" y="111.0" width="6.0" height="10.0" fill="#ff3f2f"/><rect x="135.0" y="111.0" width="6.0" height="10.0" fill="#ff3f2f"/><rect x="141.0" y="121.0" width="6.0" height="10.0" fill="#ff3f2f"/><rect x="135.0" y="141.0" width="6.0" height="10.0" fill="#ff3f2f"/><rect x="129.0" y="141.0" width="6.0" height="10.0" fill="#ff3f2f"/><rect x="123.0" y="141.0" width="6.0" height="10.0" fill="#ff3f2f"/><rect x="111.0" y="141.0" width="6.0" height="10.0" fill="#ff3f2f"/><rect x="99.0" y="141.0" width="6.0" height="10.0" fill="#ff3f2f"/><rect x="93.0" y="141.0" width="6.0" height="10.0" fill="#ff3f2f"/><rect x="87.0" y="141.0" width="6.0" height="10.0" fill="#ff3f2f"/><rect x="87.0" y="121.0" width="6.0" height="10.0" fill="#ff3f2f"/><rect x="165.0" y="111.0" width="6.0" height="10.0" fill="#ffd966"/><rect x="171.0" y="111.0" width="6.0" height="10.0" fill="#ffd966"/><rect x="183.0" y="111.0" width="6.0" height="10.0" fill="#ffd966"/><rect x="201.0" y="121.0" width="6.0" height="10.0" fill="#ffd966"/><rect x="201.0" y="141.0" width="6.0" height="10.0" fill="#ffd966"/><rect x="189.0" y="141.0" width="6.0" height="10.0" fill="#ffd966"/><rect x="183.0" y="141.0" width="6.0" height="10.0" fill="#ffd966"/><rect x="171.0" y="141.0" width="6.0" height="10.0" fill="#ffd966"/><rect x="165.0" y="141.0" width="6.0" height="10.0" fill="#ffd966"/><rect x="159.0" y="141.0" width="6.0" height="10.0" fill="#ffd966"/><rect x="153.0" y="141.0" width="6.0" height="10.0" fill="#ffd966"/><rect x="147.0" y="131.0" width="6.0" height="10.0" fill="#ffd966"/><rect x="147.0" y="121.0" width="6.0" height="10.0" fill="#ffd966"/></g><g clip-path="url(#grid-clip-4f0e0b55b8f79490-3x3)" data-channel="ellipse" data-ellipse-anchor-x="27.0" data-ellipse-anchor-y="151.0" data-ellipse-rx="99.5132152028061" data-ellipse-ry="47.59327683612466" data-ellipse-rotation-deg="120.0"><ellipse cx="27.0" cy="151.0" rx="99.5132152028061" ry="47.59327683612466" transform="rotate(120.0 27.0 151.0)" fill="#ffffff" fill-opacity="0.4"/></g><g><g data-channel="cell" data-cell-index="0" data-cell-row="0" data-cell-col="0"><rect x="33.0" y="41.0" width="48.0" height="20.0" fill="#560e24"/><text x="57.0" y="51.0" fill="#ffffff" style="font-family: &quot;JetBrains Mono&quot;, &quot;Menlo&quot;, &quot;Consolas&quot;, &quot;DejaVu Sans Mono&quot;, &quot;Liberation Mono&quot;, &quot;Roboto Mono&quot;, &quot;Noto Sans Mono&quot;, monospace; font-size: 16.0px;" text-anchor="middle" dominant-baseline="central">A1zP</text></g><g data-channel="cell" data-cell-index="1" data-cell-row="0" data-cell-col="1" data-cell-blank="true" data-cell-blank-map="true"><rect x="93.0" y="41.0" width="48.0" height="20.0" rx="10.0" ry="10.0" fill="#ffffff" stroke="#000000" stroke-width="1"/><circle cx="133.0" cy="57.66666666666667" r="2.5" fill="#d62828" data-blank-map-max="true"/><circle cx="133.0" cy="51.0" r="2.5" fill="#1d4ed8" data-blank-map-min="true"/></g><g data-channel="cell" data-cell-index="2" data-cell-row="0" data-cell-col="2" data-cell-quartile="1"><rect x="153.0" y="41.0" width="48.0" height="20.0" fill="#845502"/><text x="177.0" y="51.0" fill="#ffffff" style="font-family: &quot;JetBrains Mono&quot;, &quot;Menlo&quot;, &quot;Consolas&quot;, &quot;DejaVu Sans Mono&quot;, &quot;Liberation Mono&quot;, &quot;Roboto Mono&quot;, &quot;Noto Sans Mono&quot;, monospace; font-size: 16.0px;" text-anchor="middle" dominant-baseline="central">1eP5</text><polygon points="153.0,41.0 163.0,41.0 153.0,51.0" fill="#ffffff"/></g><g data-channel="cell" data-cell-index="3" data-cell-row="1" data-cell-col="0" data-cell-quartile="3"><rect x="33.0" y="81.0" width="48.0" height="20.0" fill="#66f95c"/><text x="57.0" y="91.0" fill="#000000" style="font-family: &quot;JetBrains Mono&quot;, &quot;Menlo&quot;, &quot;Consolas&quot;, &quot;DejaVu Sans Mono&quot;, &quot;Liberation Mono&quot;, &quot;Roboto Mono&quot;, &quot;Noto Sans Mono&quot;, monospace; font-size: 16.0px;" text-anchor="middle" dominant-baseline="central">QGef</text><polygon points="81.0,101.0 81.0,91.0 71.0,101.0" fill="#000000"/></g><g data-channel="cell" data-cell-index="4" data-cell-row="1" data-cell-col="1"><rect x="93.0" y="81.0" width="48.0" height="20.0" fill="#1413a4"/><text x="117.0" y="91.0" fill="#ffffff" style="font-family: &quot;JetBrains Mono&quot;, &quot;Menlo&quot;, &quot;Consolas&quot;, &quot;DejaVu Sans Mono&quot;, &quot;Liberation Mono&quot;, &quot;Roboto Mono&quot;, &quot;Noto Sans Mono&quot;, monospace; font-size: 16.0px;" text-anchor="middle" dominant-baseline="central">i2DM</text></g><g data-channel="cell" data-cell-index="5" data-cell-row="1" data-cell-col="2"><rect x="153.0" y="81.0" width="48.0" height="20.0" fill="#9aa959"/><text x="177.0" y="91.0" fill="#000000" style="font-family: &quot;JetBrains Mono&quot;, &quot;Menlo&quot;, &quot;Consolas&quot;, &quot;DejaVu Sans Mono&quot;, &quot;Liberation Mono&quot;, &quot;Roboto Mono&quot;, &quot;Noto Sans Mono&quot;, monospace; font-size: 16.0px;" text-anchor="middle" dominant-baseline="central">PTfT</text></g><g data-channel="cell" data-cell-index="6" data-cell-row="2" data-cell-col="0" data-cell-quartile="4"><rect x="33.0" y="121.0" width="48.0" height="20.0" fill="#53464c"/><text x="57.0" y="131.0" fill="#ffffff" style="font-family: &quot;JetBrains Mono&quot;, &quot;Menlo&quot;, &quot;Consolas&quot;, &quot;DejaVu Sans Mono&quot;, &quot;Liberation Mono&quot;, &quot;Roboto Mono&quot;, &quot;Noto Sans Mono&quot;, monospace; font-size: 16.0px;" text-anchor="middle" dominant-baseline="central">L5SL</text><polygon points="33.0,141.0 33.0,131.0 43.0,141.0" fill="#ffffff"/></g><g data-channel="cell" data-cell-index="7" data-cell-row="2" data-cell-col="1"><rect x="93.0" y="121.0" width="48.0" height="20.0" fill="#8c51b3"/><text x="117.0" y="131.0" fill="#ffffff" style="font-family: &quot;JetBrains Mono&quot;, &quot;Menlo&quot;, &quot;Consolas&quot;, &quot;DejaVu Sans Mono&quot;, &quot;Liberation Mono&quot;, &quot;Roboto Mono&quot;, &quot;Noto Sans Mono&quot;, monospace; font-size: 16.0px;" text-anchor="middle" dominant-baseline="central">mv7D</text></g><g data-channel="cell" data-cell-index="8" data-cell-row="2" data-cell-col="2" data-cell-quartile="2"><rect x="153.0" y="121.0" width="48.0" height="20.0" fill="#699aa6"/><text x="177.0" y="131.0" fill="#000000" style="font-family: &quot;JetBrains Mono&quot;, &quot;Menlo&quot;, &quot;Consolas&quot;, &quot;DejaVu Sans Mono&quot;, &quot;Liberation Mono&quot;, &quot;Roboto Mono&quot;, &quot;Noto Sans Mono&quot;, monospace; font-size: 16.0px;" text-anchor="middle" dominant-baseline="central">i</text><polygon points="201.0,121.0 191.0,121.0 201.0,131.0" fill="#000000"/></g></g></g><g data-channel="color-bar"><g data-color-bar-rank="0" data-color-bar-band="R"><rect x="1" y="1" width="20.0" height="53.69543935688433" fill="#ff3f2f"/><text x="11.0" y="51.175439356884326" fill="#000000" style="font-family: &quot;JetBrains Mono&quot;, &quot;Menlo&quot;, &quot;Consolas&quot;, &quot;DejaVu Sans Mono&quot;, &quot;Liberation Mono&quot;, &quot;Roboto Mono&quot;, &quot;Noto Sans Mono&quot;, monospace; font-size: 16.0px;" text-anchor="middle" data-color-bar-letter="true">r</text></g><g data-color-bar-rank="1" data-color-bar-band="W"><rect x="1" y="54.69543935688433" width="20.0" height="44.705204455144184" fill="#ffffff"/><text x="11.0" y="95.88064381202851" fill="#000000" style="font-family: &quot;JetBrains Mono&quot;, &quot;Menlo&quot;, &quot;Consolas&quot;, &quot;DejaVu Sans Mono&quot;, &quot;Liberation Mono&quot;, &quot;Roboto Mono&quot;, &quot;Noto Sans Mono&quot;, monospace; font-size: 16.0px;" text-anchor="middle" data-color-bar-letter="true">w</text></g><g data-color-bar-rank="2" data-color-bar-band="G"><rect x="1" y="99.4006438120285" width="20.0" height="44.705204455144184" fill="#ffd966"/><text x="11.0" y="140.58584826717268" fill="#000000" style="font-family: &quot;JetBrains Mono&quot;, &quot;Menlo&quot;, &quot;Consolas&quot;, &quot;DejaVu Sans Mono&quot;, &quot;Liberation Mono&quot;, &quot;Roboto Mono&quot;, &quot;Noto Sans Mono&quot;, monospace; font-size: 16.0px;" text-anchor="middle" data-color-bar-letter="true">g</text></g><g data-color-bar-rank="3" data-color-bar-band="K"><rect x="1" y="144.1058482671727" width="20.0" height="36.89415173282731" fill="#000000"/><text x="11.0" y="177.48" fill="#ffffff" style="font-family: &quot;JetBrains Mono&quot;, &quot;Menlo&quot;, &quot;Consolas&quot;, &quot;DejaVu Sans Mono&quot;, &quot;Liberation Mono&quot;, &quot;Roboto Mono&quot;, &quot;Noto Sans Mono&quot;, monospace; font-size: 16.0px;" text-anchor="middle" data-color-bar-letter="true">k</text></g></g><g data-channel="label-top"><text x="27.0" y="16.0" fill="#666666" style="font-family: &quot;JetBrains Mono&quot;, &quot;Menlo&quot;, &quot;Consolas&quot;, &quot;DejaVu Sans Mono&quot;, &quot;Liberation Mono&quot;, &quot;Roboto Mono&quot;, &quot;Noto Sans Mono&quot;, monospace; font-size: 12.0px;" dominant-baseline="central">BTC legacy: 1...</text></g><g data-channel="label-bottom"><text x="207.0" y="166.0" fill="#666666" style="font-family: &quot;JetBrains Mono&quot;, &quot;Menlo&quot;, &quot;Consolas&quot;, &quot;DejaVu Sans Mono&quot;, &quot;Liberation Mono&quot;, &quot;Roboto Mono&quot;, &quot;Noto Sans Mono&quot;, monospace; font-size: 12.0px;" text-anchor="end" dominant-baseline="central">...vfNa</text></g><line x1="0" y1="0.5" x2="213.0" y2="0.5" stroke="#808080" stroke-width="1" shape-rendering="crispEdges"/><line x1="212.5" y1="0" x2="212.5" y2="182.0" stroke="#808080" stroke-width="1" shape-rendering="crispEdges"/><line x1="0" y1="181.5" x2="213.0" y2="181.5" stroke="#808080" stroke-width="1" shape-rendering="crispEdges"/><line x1="0.5" y1="0" x2="0.5" y2="182.0" stroke="#808080" stroke-width="1" shape-rendering="crispEdges"/><line x1="21.5" y1="0" x2="21.5" y2="182.0" stroke="#808080" stroke-width="1" shape-rendering="crispEdges"/></svg>