<svg width="213" height="172" viewBox="0 0 213 172" xmlns="http://www.w3.org/2000/svg" font-family="&quot;JetBrains Mono&quot;, &quot;Menlo&quot;, &quot;Consolas&quot;, &quot;DejaVu Sans Mono&quot;, &quot;Liberation Mono&quot;, &quot;Roboto Mono&quot;, &quot;Noto Sans Mono&quot;, monospace" data-entviz-version="v11" data-entviz-lib="0.10.0" data-input-bytes="34" data-cols="3" data-rows="3"><defs><clipPath id="grid-clip-1b8ad32867f0e886-3x3"><rect x="27" y="26" width="180" height="120"/></clipPath></defs><rect x="0" y="0" width="213" height="172" fill="#ffffff"/><g data-channel="grid"><rect x="27" y="26" width="180" height="120" fill="#2f3fbf"/><g><path fill="#000000" d="M27 26h6v10h-6zM33 26h6v10h-6zM51 26h6v10h-6zM63 26h6v10h-6zM69 26h6v10h-6zM81 26h6v10h-6zM81 46h6v10h-6zM63 56h6v10h-6zM57 56h6v10h-6zM51 56h6v10h-6zM39 56h6v10h-6zM33 56h6v10h-6z"/><path fill="#ff3f2f" d="M111 26h6v10h-6zM117 26h6v10h-6zM123 26h6v10h-6zM129 26h6v10h-6zM135 26h6v10h-6zM141 26h6v10h-6zM141 36h6v10h-6zM135 56h6v10h-6zM129 56h6v10h-6zM99 56h6v10h-6zM87 56h6v10h-6z"/><path fill="#000000" d="M147 26h6v10h-6zM153 26h6v10h-6zM165 26h6v10h-6zM201 26h6v10h-6zM201 36h6v10h-6zM183 56h6v10h-6zM159 56h6v10h-6zM147 56h6v10h-6zM147 46h6v10h-6zM147 36h6v10h-6z"/><path fill="#ff3f2f" d="M27 66h6v10h-6zM57 66h6v10h-6zM75 66h6v10h-6zM81 66h6v10h-6zM45 96h6v10h-6zM27 76h6v10h-6z"/><path fill="#e7be00" d="M99 66h6v10h-6zM105 66h6v10h-6zM111 66h6v10h-6zM123 66h6v10h-6zM135 66h6v10h-6zM141 96h6v10h-6zM135 96h6v10h-6zM123 96h6v10h-6zM105 96h6v10h-6zM99 96h6v10h-6z"/><path fill="#ff3f2f" d="M27 106h6v10h-6zM33 106h6v10h-6zM57 106h6v10h-6zM63 106h6v10h-6zM75 106h6v10h-6zM81 136h6v10h-6zM75 136h6v10h-6zM69 136h6v10h-6zM63 136h6v10h-6zM51 136h6v10h-6zM39 136h6v10h-6zM33 136h6v10h-6z"/><path fill="#e7be00" d="M87 106h6v10h-6zM123 106h6v10h-6zM141 106h6v10h-6zM141 136h6v10h-6zM135 136h6v10h-6zM129 136h6v10h-6zM123 136h6v10h-6zM117 136h6v10h-6zM105 136h6v10h-6zM87 116h6v10h-6z"/><path fill="#ffffff" d="M183 106h6v10h-6zM195 136h6v10h-6zM189 136h6v10h-6zM177 136h6v10h-6zM165 136h6v10h-6zM159 136h6v10h-6zM147 126h6v10h-6zM147 116h6v10h-6z"/></g><g clip-path="url(#grid-clip-1b8ad32867f0e886-3x3)" data-channel="ellipse" data-ellipse-anchor-x="147" data-ellipse-anchor-y="26" data-ellipse-rx="61.773" data-ellipse-ry="37.335" data-ellipse-rotation-deg="156"><ellipse cx="147" cy="26" rx="61.773" ry="37.335" transform="rotate(156 147 26)" fill="#ffffff" stroke="#ffffff" fill-opacity="0.35" stroke-opacity="0.45" stroke-width="2"/></g><g><g data-channel="cell" data-cell-index="0" data-cell-row="0" data-cell-col="0" data-surround-bits="0x1b8ad3" data-edge-color="#000000"><rect x="33" y="36" width="48" height="20" fill="#ef9655"/><text x="57" y="46" fill="#000000" font-size="16" text-anchor="middle" dominant-baseline="central">NSUp</text></g><g data-channel="cell" data-cell-index="1" data-cell-row="0" data-cell-col="1" data-surround-bits="0x2867f0" data-edge-color="#ff3f2f"><rect x="93" y="36" width="48" height="20" fill="#898391"/><text x="117" y="46" fill="#000000" font-size="16" text-anchor="middle" dominant-baseline="central">dRFA</text></g><g data-channel="cell" data-cell-index="2" data-cell-row="0" data-cell-col="2" data-surround-bits="0xe8860b" data-edge-color="#000000" data-cell-quartile="2"><rect x="153" y="36" width="48" height="20" fill="#9fd08a"/><text x="177" y="46" fill="#000000" font-size="16" text-anchor="middle" dominant-baseline="central">bn3Y</text><polygon points="201,36 191,36 201,46" fill="#000000"/></g><g data-channel="cell" data-cell-index="3" data-cell-row="1" data-cell-col="0" data-surround-bits="0x840321" data-edge-color="#ff3f2f"><rect x="33" y="76" width="48" height="20" fill="#950a06"/><text x="57" y="86" fill="#ffffff" font-size="16" text-anchor="middle" dominant-baseline="central">2ZjN</text></g><g data-channel="cell" data-cell-index="4" data-cell-row="1" data-cell-col="1" data-surround-bits="0xcb15c" data-edge-color="#e7be00" data-cell-quartile="3"><rect x="93" y="76" width="48" height="20" fill="#95d91e"/><text x="117" y="86" fill="#000000" font-size="16" text-anchor="middle" dominant-baseline="central">8nfN</text><polygon points="141,96 141,86 131,96" fill="#000000"/></g><g data-channel="cell" data-cell-index="5" data-cell-row="1" data-cell-col="2" data-cell-blank="true" data-cell-blank-map="true"><rect x="153" y="76" width="48" height="20" rx="10" ry="10" fill="#ff3f2f" stroke="#000000" stroke-width="1"/><circle cx="177" cy="86" r="3.5" fill="#000000" data-blank-map-min="1,1"/><path d="M 188.8,79.333 H 197.2 M 193,75.133 V 83.533" fill="none" stroke="#000000" stroke-width="1.925" stroke-linecap="butt" data-blank-map-max="0,2"/></g><g data-channel="cell" data-cell-index="6" data-cell-row="2" data-cell-col="0" data-surround-bits="0x1af163" data-edge-color="#ff3f2f" data-cell-quartile="4"><rect x="33" y="116" width="48" height="20" fill="#af1699"/><text x="57" y="126" fill="#ffffff" font-size="16" text-anchor="middle" dominant-baseline="central">fJTp</text><polygon points="33,136 33,126 43,136" fill="#ffffff"/></g><g data-channel="cell" data-cell-index="7" data-cell-row="2" data-cell-col="1" data-surround-bits="0x85f241" data-edge-color="#e7be00"><rect x="93" y="116" width="48" height="20" fill="#2ea571"/><text x="117" y="126" fill="#000000" font-size="16" text-anchor="middle" dominant-baseline="central">VTMo</text></g><g data-channel="cell" data-cell-index="8" data-cell-row="2" data-cell-col="2" data-surround-bits="0xcd6040" data-edge-color="#ffffff" data-cell-quartile="1"><rect x="153" y="116" width="48" height="20" fill="#455114"/><text x="177" y="126" fill="#ffffff" font-size="16" text-anchor="middle" dominant-baseline="central">6</text><polygon points="153,116 163,116 153,126" fill="#ffffff"/></g></g></g><g data-channel="color-bar" data-bar-slots="14" data-bar-marker-left="3" data-bar-marker-right="12"><g data-color-bar-rank="0" data-color-bar-band="K"><rect x="1" y="1" width="20" height="48.017" fill="#000000"/><text x="11" y="45.497" fill="#ffffff" font-size="16" text-anchor="middle" data-color-bar-letter="true">k</text></g><g data-color-bar-rank="1" data-color-bar-band="R"><rect x="1" y="49.017" width="20" height="30.881" fill="#ff3f2f"/><text x="11" y="76.378" fill="#000000" font-size="16" text-anchor="middle" data-color-bar-letter="true">r</text></g><g data-color-bar-rank="2" data-color-bar-band="G"><rect x="1" y="79.898" width="20" height="23.434" fill="#e7be00"/><text x="11" y="99.812" fill="#000000" font-size="16" text-anchor="middle" data-color-bar-letter="true">g</text></g><g data-color-bar-rank="3" data-color-bar-band="W"><rect x="1" y="103.332" width="20" height="67.668" fill="#ffffff"/><text x="11" y="167.48" fill="#000000" font-size="16" text-anchor="middle" data-color-bar-letter="true">w</text></g><circle cx="5.6" cy="43.5" r="3.4" fill="#ffffff" stroke="#000000" stroke-width="0.75" data-bar-marker="left"/><circle cx="16.4" cy="152.786" r="3.4" fill="#ffffff" stroke="#000000" stroke-width="0.75" data-bar-marker="right"/></g><g data-channel="label-top"><text x="27" y="16" fill="#666666" font-size="12" dominant-baseline="central">BTC legacy: 1...</text></g><g data-channel="label-bottom"><text x="207" y="156" fill="#666666" font-size="12" text-anchor="end" dominant-baseline="central">...gxa6</text></g><line x1="0" y1="0.5" x2="213" y2="0.5" stroke="#808080" stroke-width="1" shape-rendering="crispEdges"/><line x1="212.5" y1="0" x2="212.5" y2="172" stroke="#808080" stroke-width="1" shape-rendering="crispEdges"/><line x1="0" y1="171.5" x2="213" y2="171.5" stroke="#808080" stroke-width="1" shape-rendering="crispEdges"/><line x1="0.5" y1="0" x2="0.5" y2="172" stroke="#808080" stroke-width="1" shape-rendering="crispEdges"/><line x1="21.5" y1="0" x2="21.5" y2="172" stroke="#808080" stroke-width="1" shape-rendering="crispEdges"/></svg>