<svg width="263.0" height="197.0" viewBox="0 0 263.0 197.0" xmlns="http://www.w3.org/2000/svg" data-entviz-version="v5" data-input-bytes="62" data-cols="4" data-rows="4"><defs><clipPath id="grid-clip-455a41c26e763acf-4x4"><rect x="17.0" y="31.0" width="240.0" height="160.0"/></clipPath></defs><rect x="0" y="0" width="263.0" height="197.0" fill="#ffffff"/><g data-channel="grid"><rect x="17.0" y="31.0" width="240.0" height="160.0" fill="#ff3f2f"/><g><rect x="17.0" y="31.0" width="6.0" height="10.0" fill="#ffd966"/><rect x="53.0" y="31.0" width="6.0" height="10.0" fill="#ffd966"/><rect x="71.0" y="31.0" width="6.0" height="10.0" fill="#ffd966"/><rect x="71.0" y="51.0" width="6.0" height="10.0" fill="#ffd966"/><rect x="71.0" y="61.0" width="6.0" height="10.0" fill="#ffd966"/><rect x="59.0" y="61.0" width="6.0" height="10.0" fill="#ffd966"/><rect x="47.0" y="61.0" width="6.0" height="10.0" fill="#ffd966"/><rect x="35.0" y="61.0" width="6.0" height="10.0" fill="#ffd966"/><rect x="17.0" y="51.0" width="6.0" height="10.0" fill="#ffd966"/><rect x="83.0" y="31.0" width="6.0" height="10.0" fill="#2f3fbf"/><rect x="89.0" y="31.0" width="6.0" height="10.0" fill="#2f3fbf"/><rect x="101.0" y="31.0" width="6.0" height="10.0" fill="#2f3fbf"/><rect x="107.0" y="31.0" width="6.0" height="10.0" fill="#2f3fbf"/><rect x="113.0" y="31.0" width="6.0" height="10.0" fill="#2f3fbf"/><rect x="131.0" y="31.0" width="6.0" height="10.0" fill="#2f3fbf"/><rect x="131.0" y="41.0" width="6.0" height="10.0" fill="#2f3fbf"/><rect x="131.0" y="51.0" width="6.0" height="10.0" fill="#2f3fbf"/><rect x="125.0" y="61.0" width="6.0" height="10.0" fill="#2f3fbf"/><rect x="119.0" y="61.0" width="6.0" height="10.0" fill="#2f3fbf"/><rect x="101.0" y="61.0" width="6.0" height="10.0" fill="#2f3fbf"/><rect x="77.0" y="51.0" width="6.0" height="10.0" fill="#2f3fbf"/><rect x="77.0" y="41.0" width="6.0" height="10.0" fill="#2f3fbf"/><rect x="137.0" y="31.0" width="6.0" height="10.0" fill="#2f3fbf"/><rect x="161.0" y="31.0" width="6.0" height="10.0" fill="#2f3fbf"/><rect x="167.0" y="31.0" width="6.0" height="10.0" fill="#2f3fbf"/><rect x="173.0" y="31.0" width="6.0" height="10.0" fill="#2f3fbf"/><rect x="185.0" y="31.0" width="6.0" height="10.0" fill="#2f3fbf"/><rect x="191.0" y="31.0" width="6.0" height="10.0" fill="#2f3fbf"/><rect x="191.0" y="41.0" width="6.0" height="10.0" fill="#2f3fbf"/><rect x="191.0" y="51.0" width="6.0" height="10.0" fill="#2f3fbf"/><rect x="179.0" y="61.0" width="6.0" height="10.0" fill="#2f3fbf"/><rect x="173.0" y="61.0" width="6.0" height="10.0" fill="#2f3fbf"/><rect x="161.0" y="61.0" width="6.0" height="10.0" fill="#2f3fbf"/><rect x="149.0" y="61.0" width="6.0" height="10.0" fill="#2f3fbf"/><rect x="143.0" y="61.0" width="6.0" height="10.0" fill="#2f3fbf"/><rect x="137.0" y="61.0" width="6.0" height="10.0" fill="#2f3fbf"/><rect x="197.0" y="31.0" width="6.0" height="10.0" fill="#000000"/><rect x="203.0" y="31.0" width="6.0" height="10.0" fill="#000000"/><rect x="209.0" y="31.0" width="6.0" height="10.0" fill="#000000"/><rect x="227.0" y="31.0" width="6.0" height="10.0" fill="#000000"/><rect x="233.0" y="31.0" width="6.0" height="10.0" fill="#000000"/><rect x="251.0" y="31.0" width="6.0" height="10.0" fill="#000000"/><rect x="251.0" y="41.0" width="6.0" height="10.0" fill="#000000"/><rect x="251.0" y="61.0" width="6.0" height="10.0" fill="#000000"/><rect x="245.0" y="61.0" width="6.0" height="10.0" fill="#000000"/><rect x="233.0" y="61.0" width="6.0" height="10.0" fill="#000000"/><rect x="215.0" y="61.0" width="6.0" height="10.0" fill="#000000"/><rect x="197.0" y="61.0" width="6.0" height="10.0" fill="#000000"/><rect x="17.0" y="71.0" width="6.0" height="10.0" fill="#2f3fbf"/><rect x="29.0" y="71.0" width="6.0" height="10.0" fill="#2f3fbf"/><rect x="41.0" y="71.0" width="6.0" height="10.0" fill="#2f3fbf"/><rect x="47.0" y="71.0" width="6.0" height="10.0" fill="#2f3fbf"/><rect x="53.0" y="71.0" width="6.0" height="10.0" fill="#2f3fbf"/><rect x="59.0" y="71.0" width="6.0" height="10.0" fill="#2f3fbf"/><rect x="71.0" y="71.0" width="6.0" height="10.0" fill="#2f3fbf"/><rect x="71.0" y="81.0" width="6.0" height="10.0" fill="#2f3fbf"/><rect x="71.0" y="91.0" width="6.0" height="10.0" fill="#2f3fbf"/><rect x="71.0" y="101.0" width="6.0" height="10.0" fill="#2f3fbf"/><rect x="59.0" y="101.0" width="6.0" height="10.0" fill="#2f3fbf"/><rect x="53.0" y="101.0" width="6.0" height="10.0" fill="#2f3fbf"/><rect x="41.0" y="101.0" width="6.0" height="10.0" fill="#2f3fbf"/><rect x="29.0" y="101.0" width="6.0" height="10.0" fill="#2f3fbf"/><rect x="17.0" y="101.0" width="6.0" height="10.0" fill="#2f3fbf"/><rect x="17.0" y="91.0" width="6.0" height="10.0" fill="#2f3fbf"/><rect x="17.0" y="81.0" width="6.0" height="10.0" fill="#2f3fbf"/><rect x="77.0" y="71.0" width="6.0" height="10.0" fill="#ffd966"/><rect x="83.0" y="71.0" width="6.0" height="10.0" fill="#ffd966"/><rect x="95.0" y="71.0" width="6.0" height="10.0" fill="#ffd966"/><rect x="101.0" y="71.0" width="6.0" height="10.0" fill="#ffd966"/><rect x="107.0" y="71.0" width="6.0" height="10.0" fill="#ffd966"/><rect x="119.0" y="71.0" width="6.0" height="10.0" fill="#ffd966"/><rect x="125.0" y="71.0" width="6.0" height="10.0" fill="#ffd966"/><rect x="125.0" y="101.0" width="6.0" height="10.0" fill="#ffd966"/><rect x="95.0" y="101.0" width="6.0" height="10.0" fill="#ffd966"/><rect x="83.0" y="101.0" width="6.0" height="10.0" fill="#ffd966"/><rect x="137.0" y="71.0" width="6.0" height="10.0" fill="#2f3fbf"/><rect x="143.0" y="71.0" width="6.0" height="10.0" fill="#2f3fbf"/><rect x="161.0" y="71.0" width="6.0" height="10.0" fill="#2f3fbf"/><rect x="167.0" y="71.0" width="6.0" height="10.0" fill="#2f3fbf"/><rect x="191.0" y="91.0" width="6.0" height="10.0" fill="#2f3fbf"/><rect x="191.0" y="101.0" width="6.0" height="10.0" fill="#2f3fbf"/><rect x="185.0" y="101.0" width="6.0" height="10.0" fill="#2f3fbf"/><rect x="179.0" y="101.0" width="6.0" height="10.0" fill="#2f3fbf"/><rect x="155.0" y="101.0" width="6.0" height="10.0" fill="#2f3fbf"/><rect x="149.0" y="101.0" width="6.0" height="10.0" fill="#2f3fbf"/><rect x="143.0" y="101.0" width="6.0" height="10.0" fill="#2f3fbf"/><rect x="137.0" y="91.0" width="6.0" height="10.0" fill="#2f3fbf"/><rect x="197.0" y="71.0" width="6.0" height="10.0" fill="#000000"/><rect x="203.0" y="71.0" width="6.0" height="10.0" fill="#000000"/><rect x="209.0" y="71.0" width="6.0" height="10.0" fill="#000000"/><rect x="221.0" y="71.0" width="6.0" height="10.0" fill="#000000"/><rect x="227.0" y="71.0" width="6.0" height="10.0" fill="#000000"/><rect x="233.0" y="71.0" width="6.0" height="10.0" fill="#000000"/><rect x="251.0" y="81.0" width="6.0" height="10.0" fill="#000000"/><rect x="251.0" y="101.0" width="6.0" height="10.0" fill="#000000"/><rect x="239.0" y="101.0" width="6.0" height="10.0" fill="#000000"/><rect x="233.0" y="101.0" width="6.0" height="10.0" fill="#000000"/><rect x="221.0" y="101.0" width="6.0" height="10.0" fill="#000000"/><rect x="209.0" y="101.0" width="6.0" height="10.0" fill="#000000"/><rect x="203.0" y="101.0" width="6.0" height="10.0" fill="#000000"/><rect x="197.0" y="101.0" width="6.0" height="10.0" fill="#000000"/><rect x="197.0" y="91.0" width="6.0" height="10.0" fill="#000000"/><rect x="23.0" y="111.0" width="6.0" height="10.0" fill="#2f3fbf"/><rect x="29.0" y="111.0" width="6.0" height="10.0" fill="#2f3fbf"/><rect x="53.0" y="111.0" width="6.0" height="10.0" fill="#2f3fbf"/><rect x="59.0" y="111.0" width="6.0" height="10.0" fill="#2f3fbf"/><rect x="71.0" y="111.0" width="6.0" height="10.0" fill="#2f3fbf"/><rect x="71.0" y="141.0" width="6.0" height="10.0" fill="#2f3fbf"/><rect x="53.0" y="141.0" width="6.0" height="10.0" fill="#2f3fbf"/><rect x="47.0" y="141.0" width="6.0" height="10.0" fill="#2f3fbf"/><rect x="41.0" y="141.0" width="6.0" height="10.0" fill="#2f3fbf"/><rect x="35.0" y="141.0" width="6.0" height="10.0" fill="#2f3fbf"/><rect x="23.0" y="141.0" width="6.0" height="10.0" fill="#2f3fbf"/><rect x="17.0" y="131.0" width="6.0" height="10.0" fill="#2f3fbf"/><rect x="17.0" y="121.0" width="6.0" height="10.0" fill="#2f3fbf"/><rect x="143.0" y="111.0" width="6.0" height="10.0" fill="#ffd966"/><rect x="155.0" y="111.0" width="6.0" height="10.0" fill="#ffd966"/><rect x="161.0" y="111.0" width="6.0" height="10.0" fill="#ffd966"/><rect x="167.0" y="111.0" width="6.0" height="10.0" fill="#ffd966"/><rect x="173.0" y="111.0" width="6.0" height="10.0" fill="#ffd966"/><rect x="179.0" y="111.0" width="6.0" height="10.0" fill="#ffd966"/><rect x="191.0" y="111.0" width="6.0" height="10.0" fill="#ffd966"/><rect x="191.0" y="121.0" width="6.0" height="10.0" fill="#ffd966"/><rect x="191.0" y="131.0" width="6.0" height="10.0" fill="#ffd966"/><rect x="179.0" y="141.0" width="6.0" height="10.0" fill="#ffd966"/><rect x="173.0" y="141.0" width="6.0" height="10.0" fill="#ffd966"/><rect x="167.0" y="141.0" width="6.0" height="10.0" fill="#ffd966"/><rect x="161.0" y="141.0" width="6.0" height="10.0" fill="#ffd966"/><rect x="155.0" y="141.0" width="6.0" height="10.0" fill="#ffd966"/><rect x="143.0" y="141.0" width="6.0" height="10.0" fill="#ffd966"/><rect x="137.0" y="141.0" width="6.0" height="10.0" fill="#ffd966"/><rect x="209.0" y="111.0" width="6.0" height="10.0" fill="#2f3fbf"/><rect x="227.0" y="111.0" width="6.0" height="10.0" fill="#2f3fbf"/><rect x="251.0" y="111.0" width="6.0" height="10.0" fill="#2f3fbf"/><rect x="245.0" y="141.0" width="6.0" height="10.0" fill="#2f3fbf"/><rect x="233.0" y="141.0" width="6.0" height="10.0" fill="#2f3fbf"/><rect x="227.0" y="141.0" width="6.0" height="10.0" fill="#2f3fbf"/><rect x="221.0" y="141.0" width="6.0" height="10.0" fill="#2f3fbf"/><rect x="215.0" y="141.0" width="6.0" height="10.0" fill="#2f3fbf"/><rect x="203.0" y="141.0" width="6.0" height="10.0" fill="#2f3fbf"/><rect x="197.0" y="141.0" width="6.0" height="10.0" fill="#2f3fbf"/><rect x="197.0" y="131.0" width="6.0" height="10.0" fill="#2f3fbf"/><rect x="17.0" y="151.0" width="6.0" height="10.0" fill="#000000"/><rect x="23.0" y="151.0" width="6.0" height="10.0" fill="#000000"/><rect x="35.0" y="151.0" width="6.0" height="10.0" fill="#000000"/><rect x="41.0" y="151.0" width="6.0" height="10.0" fill="#000000"/><rect x="47.0" y="151.0" width="6.0" height="10.0" fill="#000000"/><rect x="53.0" y="151.0" width="6.0" height="10.0" fill="#000000"/><rect x="65.0" y="151.0" width="6.0" height="10.0" fill="#000000"/><rect x="71.0" y="151.0" width="6.0" height="10.0" fill="#000000"/><rect x="71.0" y="161.0" width="6.0" height="10.0" fill="#000000"/><rect x="65.0" y="181.0" width="6.0" height="10.0" fill="#000000"/><rect x="59.0" y="181.0" width="6.0" height="10.0" fill="#000000"/><rect x="53.0" y="181.0" width="6.0" height="10.0" fill="#000000"/><rect x="41.0" y="181.0" width="6.0" height="10.0" fill="#000000"/><rect x="23.0" y="181.0" width="6.0" height="10.0" fill="#000000"/><rect x="17.0" y="181.0" width="6.0" height="10.0" fill="#000000"/><rect x="77.0" y="151.0" width="6.0" height="10.0" fill="#2f3fbf"/><rect x="89.0" y="151.0" width="6.0" height="10.0" fill="#2f3fbf"/><rect x="101.0" y="151.0" width="6.0" height="10.0" fill="#2f3fbf"/><rect x="131.0" y="181.0" width="6.0" height="10.0" fill="#2f3fbf"/><rect x="113.0" y="181.0" width="6.0" height="10.0" fill="#2f3fbf"/><rect x="107.0" y="181.0" width="6.0" height="10.0" fill="#2f3fbf"/><rect x="101.0" y="181.0" width="6.0" height="10.0" fill="#2f3fbf"/><rect x="77.0" y="181.0" width="6.0" height="10.0" fill="#2f3fbf"/><rect x="143.0" y="151.0" width="6.0" height="10.0" fill="#000000"/><rect x="149.0" y="151.0" width="6.0" height="10.0" fill="#000000"/><rect x="155.0" y="151.0" width="6.0" height="10.0" fill="#000000"/><rect x="167.0" y="151.0" width="6.0" height="10.0" fill="#000000"/><rect x="179.0" y="151.0" width="6.0" height="10.0" fill="#000000"/><rect x="185.0" y="151.0" width="6.0" height="10.0" fill="#000000"/><rect x="191.0" y="151.0" width="6.0" height="10.0" fill="#000000"/><rect x="191.0" y="161.0" width="6.0" height="10.0" fill="#000000"/><rect x="191.0" y="181.0" width="6.0" height="10.0" fill="#000000"/><rect x="179.0" y="181.0" width="6.0" height="10.0" fill="#000000"/><rect x="173.0" y="181.0" width="6.0" height="10.0" fill="#000000"/><rect x="167.0" y="181.0" width="6.0" height="10.0" fill="#000000"/><rect x="161.0" y="181.0" width="6.0" height="10.0" fill="#000000"/><rect x="149.0" y="181.0" width="6.0" height="10.0" fill="#000000"/><rect x="143.0" y="181.0" width="6.0" height="10.0" fill="#000000"/><rect x="137.0" y="181.0" width="6.0" height="10.0" fill="#000000"/><rect x="227.0" y="151.0" width="6.0" height="10.0" fill="#2f3fbf"/><rect x="245.0" y="151.0" width="6.0" height="10.0" fill="#2f3fbf"/><rect x="251.0" y="161.0" width="6.0" height="10.0" fill="#2f3fbf"/><rect x="245.0" y="181.0" width="6.0" height="10.0" fill="#2f3fbf"/><rect x="233.0" y="181.0" width="6.0" height="10.0" fill="#2f3fbf"/><rect x="221.0" y="181.0" width="6.0" height="10.0" fill="#2f3fbf"/><rect x="215.0" y="181.0" width="6.0" height="10.0" fill="#2f3fbf"/><rect x="209.0" y="181.0" width="6.0" height="10.0" fill="#2f3fbf"/><rect x="203.0" y="181.0" width="6.0" height="10.0" fill="#2f3fbf"/><rect x="197.0" y="171.0" width="6.0" height="10.0" fill="#2f3fbf"/><rect x="197.0" y="161.0" width="6.0" height="10.0" fill="#2f3fbf"/></g><g clip-path="url(#grid-clip-455a41c26e763acf-4x4)" data-channel="ellipse" data-ellipse-anchor-x="77.0" data-ellipse-anchor-y="151.0" data-ellipse-rx="156.33307652783935" data-ellipse-ry="109.7998459167036" data-ellipse-rotation-deg="96.0"><ellipse cx="77.0" cy="151.0" rx="156.33307652783935" ry="109.7998459167036" transform="rotate(96.0 77.0 151.0)" fill="#000000" fill-opacity="0.4"/></g><g><g data-channel="cell" data-cell-index="0" data-cell-row="0" data-cell-col="0"><rect x="23.0" y="41.0" width="48.0" height="20.0" fill="#11c300"/><text x="47.0" y="51.0" fill="#000000" style="font-family: &quot;DejaVu Sans Mono&quot;, &quot;Consolas&quot;, &quot;Menlo&quot;, &quot;Liberation Mono&quot;, monospace; font-size: 16.0px;" text-anchor="middle" dominant-baseline="central">qrp3</text></g><g data-channel="cell" data-cell-index="1" data-cell-row="0" data-cell-col="1"><rect x="83.0" y="41.0" width="48.0" height="20.0" fill="#001e8a"/><text x="107.0" y="51.0" fill="#ffffff" style="font-family: &quot;DejaVu Sans Mono&quot;, &quot;Consolas&quot;, &quot;Menlo&quot;, &quot;Liberation Mono&quot;, monospace; font-size: 16.0px;" text-anchor="middle" dominant-baseline="central">3g0q</text></g><g data-channel="cell" data-cell-index="2" data-cell-row="0" data-cell-col="2"><rect x="143.0" y="41.0" width="48.0" height="20.0" fill="#bb28a6"/><text x="167.0" y="51.0" fill="#ffffff" style="font-family: &quot;DejaVu Sans Mono&quot;, &quot;Consolas&quot;, &quot;Menlo&quot;, &quot;Liberation Mono&quot;, monospace; font-size: 16.0px;" text-anchor="middle" dominant-baseline="central">5c5t</text></g><g data-channel="cell" data-cell-index="3" data-cell-row="0" data-cell-col="3"><rect x="203.0" y="41.0" width="48.0" height="20.0" fill="#550234"/><text x="227.0" y="51.0" fill="#ffffff" style="font-family: &quot;DejaVu Sans Mono&quot;, &quot;Consolas&quot;, &quot;Menlo&quot;, &quot;Liberation Mono&quot;, monospace; font-size: 16.0px;" text-anchor="middle" dominant-baseline="central">xsp9</text></g><g data-channel="cell" data-cell-index="4" data-cell-row="1" data-cell-col="0" data-cell-quartile="1"><rect x="23.0" y="81.0" width="48.0" height="20.0" fill="#00c9e8"/><text x="47.0" y="91.0" fill="#000000" style="font-family: &quot;DejaVu Sans Mono&quot;, &quot;Consolas&quot;, &quot;Menlo&quot;, &quot;Liberation Mono&quot;, monospace; font-size: 16.0px;" text-anchor="middle" dominant-baseline="central">arys</text><polygon points="23.0,81.0 33.0,81.0 23.0,91.0" fill="#000000"/></g><g data-channel="cell" data-cell-index="5" data-cell-row="1" data-cell-col="1" data-cell-quartile="2"><rect x="83.0" y="81.0" width="48.0" height="20.0" fill="#66ab19"/><text x="107.0" y="91.0" fill="#000000" style="font-family: &quot;DejaVu Sans Mono&quot;, &quot;Consolas&quot;, &quot;Menlo&quot;, &quot;Liberation Mono&quot;, monospace; font-size: 16.0px;" text-anchor="middle" dominant-baseline="central">rx4k</text><polygon points="131.0,81.0 121.0,81.0 131.0,91.0" fill="#000000"/></g><g data-channel="cell" data-cell-index="6" data-cell-row="1" data-cell-col="2"><rect x="143.0" y="81.0" width="48.0" height="20.0" fill="#669bd0"/><text x="167.0" y="91.0" fill="#000000" style="font-family: &quot;DejaVu Sans Mono&quot;, &quot;Consolas&quot;, &quot;Menlo&quot;, &quot;Liberation Mono&quot;, monospace; font-size: 16.0px;" text-anchor="middle" dominant-baseline="central">6zdk</text></g><g data-channel="cell" data-cell-index="7" data-cell-row="1" data-cell-col="3"><rect x="203.0" y="81.0" width="48.0" height="20.0" fill="#332b4c"/><text x="227.0" y="91.0" fill="#ffffff" style="font-family: &quot;DejaVu Sans Mono&quot;, &quot;Consolas&quot;, &quot;Menlo&quot;, &quot;Liberation Mono&quot;, monospace; font-size: 16.0px;" text-anchor="middle" dominant-baseline="central">fs4n</text></g><g data-channel="cell" data-cell-index="8" data-cell-row="2" data-cell-col="0"><rect x="23.0" y="121.0" width="48.0" height="20.0" fill="#666ac6"/><text x="47.0" y="131.0" fill="#ffffff" style="font-family: &quot;DejaVu Sans Mono&quot;, &quot;Consolas&quot;, &quot;Menlo&quot;, &quot;Liberation Mono&quot;, monospace; font-size: 16.0px;" text-anchor="middle" dominant-baseline="central">ce4x</text></g><g data-channel="cell" data-cell-index="9" data-cell-row="2" data-cell-col="1" data-cell-blank="true" data-cell-blank-marker="true"><circle cx="107.0" cy="131.0" r="17.0" fill="#ffffff" stroke="#000000" stroke-width="1"/><line x1="107.0" y1="131.0" x2="92.02309470191881" y2="121.01539646794588" stroke="#ffffff" style="mix-blend-mode: difference" stroke-width="1"/><line x1="107.0" y1="131.0" x2="107.0" y2="122.5" stroke="#000000" stroke-width="1"/><circle cx="107.0" cy="122.5" r="1.5" fill="#ffffff" stroke="#000000" stroke-width="1"/></g><g data-channel="cell" data-cell-index="10" data-cell-row="2" data-cell-col="2"><rect x="143.0" y="121.0" width="48.0" height="20.0" fill="#ddd093"/><text x="167.0" y="131.0" fill="#000000" style="font-family: &quot;DejaVu Sans Mono&quot;, &quot;Consolas&quot;, &quot;Menlo&quot;, &quot;Liberation Mono&quot;, monospace; font-size: 16.0px;" text-anchor="middle" dominant-baseline="central">j0gd</text></g><g data-channel="cell" data-cell-index="11" data-cell-row="2" data-cell-col="3"><rect x="203.0" y="121.0" width="48.0" height="20.0" fill="#9931c6"/><text x="227.0" y="131.0" fill="#ffffff" style="font-family: &quot;DejaVu Sans Mono&quot;, &quot;Consolas&quot;, &quot;Menlo&quot;, &quot;Liberation Mono&quot;, monospace; font-size: 16.0px;" text-anchor="middle" dominant-baseline="central">ccce</text></g><g data-channel="cell" data-cell-index="12" data-cell-row="3" data-cell-col="0"><rect x="23.0" y="161.0" width="48.0" height="20.0" fill="#44024b"/><text x="47.0" y="171.0" fill="#ffffff" style="font-family: &quot;DejaVu Sans Mono&quot;, &quot;Consolas&quot;, &quot;Menlo&quot;, &quot;Liberation Mono&quot;, monospace; font-size: 16.0px;" text-anchor="middle" dominant-baseline="central">fvpy</text></g><g data-channel="cell" data-cell-index="13" data-cell-row="3" data-cell-col="1" data-cell-quartile="3"><rect x="83.0" y="161.0" width="48.0" height="20.0" fill="#119381"/><text x="107.0" y="171.0" fill="#ffffff" style="font-family: &quot;DejaVu Sans Mono&quot;, &quot;Consolas&quot;, &quot;Menlo&quot;, &quot;Liberation Mono&quot;, monospace; font-size: 16.0px;" text-anchor="middle" dominant-baseline="central">sxf3</text><polygon points="131.0,181.0 131.0,171.0 121.0,181.0" fill="#ffffff"/></g><g data-channel="cell" data-cell-index="14" data-cell-row="3" data-cell-col="2" data-cell-quartile="4"><rect x="143.0" y="161.0" width="48.0" height="20.0" fill="#993006"/><text x="167.0" y="171.0" fill="#ffffff" style="font-family: &quot;DejaVu Sans Mono&quot;, &quot;Consolas&quot;, &quot;Menlo&quot;, &quot;Liberation Mono&quot;, monospace; font-size: 16.0px;" text-anchor="middle" dominant-baseline="central">qccf</text><polygon points="143.0,181.0 143.0,171.0 153.0,181.0" fill="#ffffff"/></g><g data-channel="cell" data-cell-index="15" data-cell-row="3" data-cell-col="3"><rect x="203.0" y="161.0" width="48.0" height="20.0" fill="#9123db"/><text x="227.0" y="171.0" fill="#ffffff" style="font-family: &quot;DejaVu Sans Mono&quot;, &quot;Consolas&quot;, &quot;Menlo&quot;, &quot;Liberation Mono&quot;, monospace; font-size: 16.0px;" text-anchor="middle" dominant-baseline="central">mv3</text></g></g></g><g data-channel="color-bar"><g data-color-bar-rank="0" data-color-bar-band="B"><rect x="1" y="1" width="10.0" height="59.76389255880132" fill="#2f3fbf"/><text x="6.0" y="30.88194627940066" fill="#ffffff" style="font-family: &quot;DejaVu Sans Mono&quot;, &quot;Consolas&quot;, &quot;Menlo&quot;, &quot;Liberation Mono&quot;, monospace; font-size: 8.5px;" text-anchor="middle" dominant-baseline="central" data-color-bar-letter="true">b</text></g><g data-color-bar-rank="1" data-color-bar-band="K"><rect x="1" y="60.76389255880132" width="10.0" height="59.76389255880132" fill="#000000"/><text x="6.0" y="90.64583883820197" fill="#ffffff" style="font-family: &quot;DejaVu Sans Mono&quot;, &quot;Consolas&quot;, &quot;Menlo&quot;, &quot;Liberation Mono&quot;, monospace; font-size: 8.5px;" text-anchor="middle" dominant-baseline="central" data-color-bar-letter="true">k</text></g><g data-color-bar-rank="2" data-color-bar-band="G"><rect x="1" y="120.52778511760263" width="10.0" height="49.894956929219745" fill="#ffd966"/><text x="6.0" y="145.4752635822125" fill="#000000" style="font-family: &quot;DejaVu Sans Mono&quot;, &quot;Consolas&quot;, &quot;Menlo&quot;, &quot;Liberation Mono&quot;, monospace; font-size: 8.5px;" text-anchor="middle" dominant-baseline="central" data-color-bar-letter="true">g</text></g><g data-color-bar-rank="3" data-color-bar-band="W"><rect x="1" y="170.42274204682238" width="10.0" height="25.57725795317762" fill="#ffffff"/><text x="6.0" y="183.21137102341117" fill="#000000" style="font-family: &quot;DejaVu Sans Mono&quot;, &quot;Consolas&quot;, &quot;Menlo&quot;, &quot;Liberation Mono&quot;, monospace; font-size: 8.5px;" text-anchor="middle" dominant-baseline="central" data-color-bar-letter="true">w</text></g></g><g data-channel="label-top"><text x="17.0" y="16.0" fill="#666666" style="font-family: &quot;DejaVu Sans Mono&quot;, &quot;Consolas&quot;, &quot;Menlo&quot;, &quot;Liberation Mono&quot;, monospace; font-size: 12.0px;" dominant-baseline="central">BTC SegWit: bc1...</text></g><line x1="0" y1="0.5" x2="263.0" y2="0.5" stroke="#808080" stroke-width="1" shape-rendering="crispEdges"/><line x1="262.5" y1="0" x2="262.5" y2="197.0" stroke="#808080" stroke-width="1" shape-rendering="crispEdges"/><line x1="0" y1="196.5" x2="263.0" y2="196.5" stroke="#808080" stroke-width="1" shape-rendering="crispEdges"/><line x1="0.5" y1="0" x2="0.5" y2="197.0" stroke="#808080" stroke-width="1" shape-rendering="crispEdges"/><line x1="11.5" y1="0" x2="11.5" y2="197.0" stroke="#808080" stroke-width="1" shape-rendering="crispEdges"/></svg>