<svg width="213.0" height="182.0" viewBox="0 0 213.0 182.0" xmlns="http://www.w3.org/2000/svg" data-entviz-version="v6" data-entviz-lib="0.5.0" data-input-bytes="34" data-cols="3" data-rows="3"><defs><clipPath id="grid-clip-1b8ad32867f0e886-3x3"><rect x="27.0" y="31.0" width="180.0" height="120.0"/></clipPath></defs><rect x="0" y="0" width="213.0" height="182.0" fill="#ffffff"/><g data-channel="grid"><rect x="27.0" y="31.0" width="180.0" height="120.0" fill="#2f3fbf"/><g><rect x="27.0" y="31.0" width="6.0" height="10.0" fill="#ffd966"/><rect x="33.0" y="31.0" width="6.0" height="10.0" fill="#ffd966"/><rect x="51.0" y="31.0" width="6.0" height="10.0" fill="#ffd966"/><rect x="63.0" y="31.0" width="6.0" height="10.0" fill="#ffd966"/><rect x="69.0" y="31.0" width="6.0" height="10.0" fill="#ffd966"/><rect x="81.0" y="31.0" width="6.0" height="10.0" fill="#ffd966"/><rect x="81.0" y="51.0" width="6.0" height="10.0" fill="#ffd966"/><rect x="63.0" y="61.0" width="6.0" height="10.0" fill="#ffd966"/><rect x="57.0" y="61.0" width="6.0" height="10.0" fill="#ffd966"/><rect x="51.0" y="61.0" width="6.0" height="10.0" fill="#ffd966"/><rect x="39.0" y="61.0" width="6.0" height="10.0" fill="#ffd966"/><rect x="33.0" y="61.0" width="6.0" height="10.0" fill="#ffd966"/><rect x="111.0" y="31.0" width="6.0" height="10.0" fill="#ffd966"/><rect x="117.0" y="31.0" width="6.0" height="10.0" fill="#ffd966"/><rect x="123.0" y="31.0" width="6.0" height="10.0" fill="#ffd966"/><rect x="129.0" y="31.0" width="6.0" height="10.0" fill="#ffd966"/><rect x="135.0" y="31.0" width="6.0" height="10.0" fill="#ffd966"/><rect x="141.0" y="31.0" width="6.0" height="10.0" fill="#ffd966"/><rect x="141.0" y="41.0" width="6.0" height="10.0" fill="#ffd966"/><rect x="135.0" y="61.0" width="6.0" height="10.0" fill="#ffd966"/><rect x="129.0" y="61.0" width="6.0" height="10.0" fill="#ffd966"/><rect x="99.0" y="61.0" width="6.0" height="10.0" fill="#ffd966"/><rect x="87.0" y="61.0" width="6.0" height="10.0" fill="#ffd966"/><rect x="147.0" y="31.0" width="6.0" height="10.0" fill="#ffd966"/><rect x="153.0" y="31.0" width="6.0" height="10.0" fill="#ffd966"/><rect x="165.0" y="31.0" width="6.0" height="10.0" fill="#ffd966"/><rect x="201.0" y="31.0" width="6.0" height="10.0" fill="#ffd966"/><rect x="201.0" y="41.0" width="6.0" height="10.0" fill="#ffd966"/><rect x="183.0" y="61.0" width="6.0" height="10.0" fill="#ffd966"/><rect x="159.0" y="61.0" width="6.0" height="10.0" fill="#ffd966"/><rect x="147.0" y="61.0" width="6.0" height="10.0" fill="#ffd966"/><rect x="147.0" y="51.0" width="6.0" height="10.0" fill="#ffd966"/><rect x="147.0" y="41.0" width="6.0" height="10.0" fill="#ffd966"/><rect x="27.0" y="71.0" width="6.0" height="10.0" fill="#ff3f2f"/><rect x="57.0" y="71.0" width="6.0" height="10.0" fill="#ff3f2f"/><rect x="75.0" y="71.0" width="6.0" height="10.0" fill="#ff3f2f"/><rect x="81.0" y="71.0" width="6.0" height="10.0" fill="#ff3f2f"/><rect x="45.0" y="101.0" width="6.0" height="10.0" fill="#ff3f2f"/><rect x="27.0" y="81.0" width="6.0" height="10.0" fill="#ff3f2f"/><rect x="99.0" y="71.0" width="6.0" height="10.0" fill="#ffd966"/><rect x="105.0" y="71.0" width="6.0" height="10.0" fill="#ffd966"/><rect x="111.0" y="71.0" width="6.0" height="10.0" fill="#ffd966"/><rect x="123.0" y="71.0" width="6.0" height="10.0" fill="#ffd966"/><rect x="135.0" y="71.0" width="6.0" height="10.0" fill="#ffd966"/><rect x="141.0" y="101.0" width="6.0" height="10.0" fill="#ffd966"/><rect x="135.0" y="101.0" width="6.0" height="10.0" fill="#ffd966"/><rect x="123.0" y="101.0" width="6.0" height="10.0" fill="#ffd966"/><rect x="105.0" y="101.0" width="6.0" height="10.0" fill="#ffd966"/><rect x="99.0" y="101.0" width="6.0" height="10.0" fill="#ffd966"/><rect x="27.0" y="111.0" width="6.0" height="10.0" fill="#ff3f2f"/><rect x="33.0" y="111.0" width="6.0" height="10.0" fill="#ff3f2f"/><rect x="57.0" y="111.0" width="6.0" height="10.0" fill="#ff3f2f"/><rect x="63.0" y="111.0" width="6.0" height="10.0" fill="#ff3f2f"/><rect x="75.0" y="111.0" width="6.0" height="10.0" fill="#ff3f2f"/><rect x="81.0" y="141.0" width="6.0" height="10.0" fill="#ff3f2f"/><rect x="75.0" y="141.0" width="6.0" height="10.0" fill="#ff3f2f"/><rect x="69.0" y="141.0" width="6.0" height="10.0" fill="#ff3f2f"/><rect x="63.0" y="141.0" width="6.0" height="10.0" fill="#ff3f2f"/><rect x="51.0" y="141.0" width="6.0" height="10.0" fill="#ff3f2f"/><rect x="39.0" y="141.0" width="6.0" height="10.0" fill="#ff3f2f"/><rect x="33.0" y="141.0" width="6.0" height="10.0" fill="#ff3f2f"/><rect x="87.0" y="111.0" width="6.0" height="10.0" fill="#ffd966"/><rect x="123.0" y="111.0" width="6.0" height="10.0" fill="#ffd966"/><rect x="141.0" y="111.0" width="6.0" height="10.0" fill="#ffd966"/><rect x="141.0" y="141.0" width="6.0" height="10.0" fill="#ffd966"/><rect x="135.0" y="141.0" width="6.0" height="10.0" fill="#ffd966"/><rect x="129.0" y="141.0" width="6.0" height="10.0" fill="#ffd966"/><rect x="123.0" y="141.0" width="6.0" height="10.0" fill="#ffd966"/><rect x="117.0" y="141.0" width="6.0" height="10.0" fill="#ffd966"/><rect x="105.0" y="141.0" width="6.0" height="10.0" fill="#ffd966"/><rect x="87.0" y="121.0" width="6.0" height="10.0" fill="#ffd966"/><rect x="183.0" y="111.0" width="6.0" height="10.0" fill="#000000"/><rect x="195.0" y="141.0" width="6.0" height="10.0" fill="#000000"/><rect x="189.0" y="141.0" width="6.0" height="10.0" fill="#000000"/><rect x="177.0" y="141.0" width="6.0" height="10.0" fill="#000000"/><rect x="165.0" y="141.0" width="6.0" height="10.0" fill="#000000"/><rect x="159.0" y="141.0" width="6.0" height="10.0" fill="#000000"/><rect x="147.0" y="131.0" width="6.0" height="10.0" fill="#000000"/><rect x="147.0" y="121.0" width="6.0" height="10.0" fill="#000000"/></g><g clip-path="url(#grid-clip-1b8ad32867f0e886-3x3)" data-channel="ellipse" data-ellipse-anchor-x="147.0" data-ellipse-anchor-y="31.0" data-ellipse-rx="61.772848404456795" data-ellipse-ry="37.335238046649714" data-ellipse-rotation-deg="156.0"><ellipse cx="147.0" cy="31.0" rx="61.772848404456795" ry="37.335238046649714" transform="rotate(156.0 147.0 31.0)" fill="#ffffff" fill-opacity="0.4"/></g><g><g data-channel="cell" data-cell-index="0" data-cell-row="0" data-cell-col="0"><rect x="33.0" y="41.0" width="48.0" height="20.0" fill="#ef9655"/><text x="57.0" y="51.0" fill="#000000" style="font-family: &quot;JetBrains Mono&quot;, &quot;Menlo&quot;, &quot;Consolas&quot;, &quot;DejaVu Sans Mono&quot;, &quot;Liberation Mono&quot;, &quot;Roboto Mono&quot;, &quot;Noto Sans Mono&quot;, monospace; font-size: 16.0px;" text-anchor="middle" dominant-baseline="central">NSUp</text></g><g data-channel="cell" data-cell-index="1" data-cell-row="0" data-cell-col="1"><rect x="93.0" y="41.0" width="48.0" height="20.0" fill="#898391"/><text x="117.0" y="51.0" fill="#000000" style="font-family: &quot;JetBrains Mono&quot;, &quot;Menlo&quot;, &quot;Consolas&quot;, &quot;DejaVu Sans Mono&quot;, &quot;Liberation Mono&quot;, &quot;Roboto Mono&quot;, &quot;Noto Sans Mono&quot;, monospace; font-size: 16.0px;" text-anchor="middle" dominant-baseline="central">dRFA</text></g><g data-channel="cell" data-cell-index="2" data-cell-row="0" data-cell-col="2" data-cell-quartile="2"><rect x="153.0" y="41.0" width="48.0" height="20.0" fill="#9fd08a"/><text x="177.0" y="51.0" fill="#000000" style="font-family: &quot;JetBrains Mono&quot;, &quot;Menlo&quot;, &quot;Consolas&quot;, &quot;DejaVu Sans Mono&quot;, &quot;Liberation Mono&quot;, &quot;Roboto Mono&quot;, &quot;Noto Sans Mono&quot;, monospace; font-size: 16.0px;" text-anchor="middle" dominant-baseline="central">bn3Y</text><polygon points="201.0,41.0 191.0,41.0 201.0,51.0" fill="#000000"/></g><g data-channel="cell" data-cell-index="3" data-cell-row="1" data-cell-col="0"><rect x="33.0" y="81.0" width="48.0" height="20.0" fill="#950a06"/><text x="57.0" y="91.0" fill="#ffffff" style="font-family: &quot;JetBrains Mono&quot;, &quot;Menlo&quot;, &quot;Consolas&quot;, &quot;DejaVu Sans Mono&quot;, &quot;Liberation Mono&quot;, &quot;Roboto Mono&quot;, &quot;Noto Sans Mono&quot;, monospace; font-size: 16.0px;" text-anchor="middle" dominant-baseline="central">2ZjN</text></g><g data-channel="cell" data-cell-index="4" data-cell-row="1" data-cell-col="1" data-cell-quartile="3"><rect x="93.0" y="81.0" width="48.0" height="20.0" fill="#95d91e"/><text x="117.0" y="91.0" fill="#000000" style="font-family: &quot;JetBrains Mono&quot;, &quot;Menlo&quot;, &quot;Consolas&quot;, &quot;DejaVu Sans Mono&quot;, &quot;Liberation Mono&quot;, &quot;Roboto Mono&quot;, &quot;Noto Sans Mono&quot;, monospace; font-size: 16.0px;" text-anchor="middle" dominant-baseline="central">8nfN</text><polygon points="141.0,101.0 141.0,91.0 131.0,101.0" fill="#000000"/></g><g data-channel="cell" data-cell-index="5" data-cell-row="1" data-cell-col="2" data-cell-blank="true" data-cell-blank-map="true"><rect x="153.0" y="81.0" width="48.0" height="20.0" rx="5.0" ry="5.0" fill="#ffffff" stroke="#000000" stroke-width="1"/><circle cx="193.0" cy="84.33333333333333" r="2.5" fill="#d62828" data-blank-map-max="true"/><circle cx="177.0" cy="91.0" r="2.5" fill="#1d4ed8" data-blank-map-min="true"/></g><g data-channel="cell" data-cell-index="6" data-cell-row="2" data-cell-col="0" data-cell-quartile="4"><rect x="33.0" y="121.0" width="48.0" height="20.0" fill="#af1699"/><text x="57.0" y="131.0" fill="#ffffff" style="font-family: &quot;JetBrains Mono&quot;, &quot;Menlo&quot;, &quot;Consolas&quot;, &quot;DejaVu Sans Mono&quot;, &quot;Liberation Mono&quot;, &quot;Roboto Mono&quot;, &quot;Noto Sans Mono&quot;, monospace; font-size: 16.0px;" text-anchor="middle" dominant-baseline="central">fJTp</text><polygon points="33.0,141.0 33.0,131.0 43.0,141.0" fill="#ffffff"/></g><g data-channel="cell" data-cell-index="7" data-cell-row="2" data-cell-col="1"><rect x="93.0" y="121.0" width="48.0" height="20.0" fill="#2ea571"/><text x="117.0" y="131.0" fill="#000000" style="font-family: &quot;JetBrains Mono&quot;, &quot;Menlo&quot;, &quot;Consolas&quot;, &quot;DejaVu Sans Mono&quot;, &quot;Liberation Mono&quot;, &quot;Roboto Mono&quot;, &quot;Noto Sans Mono&quot;, monospace; font-size: 16.0px;" text-anchor="middle" dominant-baseline="central">VTMo</text></g><g data-channel="cell" data-cell-index="8" data-cell-row="2" data-cell-col="2" data-cell-quartile="1"><rect x="153.0" y="121.0" width="48.0" height="20.0" fill="#455114"/><text x="177.0" y="131.0" fill="#ffffff" style="font-family: &quot;JetBrains Mono&quot;, &quot;Menlo&quot;, &quot;Consolas&quot;, &quot;DejaVu Sans Mono&quot;, &quot;Liberation Mono&quot;, &quot;Roboto Mono&quot;, &quot;Noto Sans Mono&quot;, monospace; font-size: 16.0px;" text-anchor="middle" dominant-baseline="central">6</text><polygon points="153.0,121.0 163.0,121.0 153.0,131.0" fill="#ffffff"/></g></g></g><g data-channel="color-bar"><g data-color-bar-rank="0" data-color-bar-band="W"><rect x="1" y="1" width="20.0" height="71.64854163059138" fill="#ffffff"/><text x="11.0" y="69.12854163059139" fill="#000000" style="font-family: &quot;JetBrains Mono&quot;, &quot;Menlo&quot;, &quot;Consolas&quot;, &quot;DejaVu Sans Mono&quot;, &quot;Liberation Mono&quot;, &quot;Roboto Mono&quot;, &quot;Noto Sans Mono&quot;, monospace; font-size: 16.0px;" text-anchor="middle" data-color-bar-letter="true">w</text></g><g data-color-bar-rank="1" data-color-bar-band="K"><rect x="1" y="72.64854163059138" width="20.0" height="50.84112188045676" fill="#000000"/><text x="11.0" y="119.96966351104815" fill="#ffffff" style="font-family: &quot;JetBrains Mono&quot;, &quot;Menlo&quot;, &quot;Consolas&quot;, &quot;DejaVu Sans Mono&quot;, &quot;Liberation Mono&quot;, &quot;Roboto Mono&quot;, &quot;Noto Sans Mono&quot;, monospace; font-size: 16.0px;" text-anchor="middle" data-color-bar-letter="true">k</text></g><g data-color-bar-rank="2" data-color-bar-band="R"><rect x="1" y="123.48966351104815" width="20.0" height="32.697979411205935" fill="#ff3f2f"/><text x="11.0" y="152.6676429222541" fill="#000000" style="font-family: &quot;JetBrains Mono&quot;, &quot;Menlo&quot;, &quot;Consolas&quot;, &quot;DejaVu Sans Mono&quot;, &quot;Liberation Mono&quot;, &quot;Roboto Mono&quot;, &quot;Noto Sans Mono&quot;, monospace; font-size: 16.0px;" text-anchor="middle" data-color-bar-letter="true">r</text></g><g data-color-bar-rank="3" data-color-bar-band="G"><rect x="1" y="156.1876429222541" width="20.0" height="24.8123570777459" fill="#ffd966"/><text x="11.0" y="177.48" fill="#000000" style="font-family: &quot;JetBrains Mono&quot;, &quot;Menlo&quot;, &quot;Consolas&quot;, &quot;DejaVu Sans Mono&quot;, &quot;Liberation Mono&quot;, &quot;Roboto Mono&quot;, &quot;Noto Sans Mono&quot;, monospace; font-size: 16.0px;" text-anchor="middle" data-color-bar-letter="true">g</text></g></g><g data-channel="label-top"><text x="27.0" y="16.0" fill="#666666" style="font-family: &quot;JetBrains Mono&quot;, &quot;Menlo&quot;, &quot;Consolas&quot;, &quot;DejaVu Sans Mono&quot;, &quot;Liberation Mono&quot;, &quot;Roboto Mono&quot;, &quot;Noto Sans Mono&quot;, monospace; font-size: 12.0px;" dominant-baseline="central">BTC legacy: 1...</text></g><g data-channel="label-bottom"><text x="207.0" y="166.0" fill="#666666" style="font-family: &quot;JetBrains Mono&quot;, &quot;Menlo&quot;, &quot;Consolas&quot;, &quot;DejaVu Sans Mono&quot;, &quot;Liberation Mono&quot;, &quot;Roboto Mono&quot;, &quot;Noto Sans Mono&quot;, monospace; font-size: 12.0px;" text-anchor="end" dominant-baseline="central">...gxa6</text></g><line x1="0" y1="0.5" x2="213.0" y2="0.5" stroke="#808080" stroke-width="1" shape-rendering="crispEdges"/><line x1="212.5" y1="0" x2="212.5" y2="182.0" stroke="#808080" stroke-width="1" shape-rendering="crispEdges"/><line x1="0" y1="181.5" x2="213.0" y2="181.5" stroke="#808080" stroke-width="1" shape-rendering="crispEdges"/><line x1="0.5" y1="0" x2="0.5" y2="182.0" stroke="#808080" stroke-width="1" shape-rendering="crispEdges"/><line x1="21.5" y1="0" x2="21.5" y2="182.0" stroke="#808080" stroke-width="1" shape-rendering="crispEdges"/></svg>