<svg width="213.0" height="172.0" viewBox="0 0 213.0 172.0" xmlns="http://www.w3.org/2000/svg" data-entviz-version="v8" data-entviz-lib="0.7.2" data-input-bytes="34" data-cols="3" data-rows="3"><defs><clipPath id="grid-clip-1b8ad32867f0e886-3x3"><rect x="27.0" y="26.0" width="180.0" height="120.0"/></clipPath></defs><rect x="0" y="0" width="213.0" height="172.0" fill="#ffffff"/><g data-channel="grid"><rect x="27.0" y="26.0" width="180.0" height="120.0" fill="#2f3fbf"/><g><rect x="27.0" y="26.0" width="6.0" height="10.0" fill="#e7be00"/><rect x="33.0" y="26.0" width="6.0" height="10.0" fill="#e7be00"/><rect x="51.0" y="26.0" width="6.0" height="10.0" fill="#e7be00"/><rect x="63.0" y="26.0" width="6.0" height="10.0" fill="#e7be00"/><rect x="69.0" y="26.0" width="6.0" height="10.0" fill="#e7be00"/><rect x="81.0" y="26.0" width="6.0" height="10.0" fill="#e7be00"/><rect x="81.0" y="46.0" width="6.0" height="10.0" fill="#e7be00"/><rect x="63.0" y="56.0" width="6.0" height="10.0" fill="#e7be00"/><rect x="57.0" y="56.0" width="6.0" height="10.0" fill="#e7be00"/><rect x="51.0" y="56.0" width="6.0" height="10.0" fill="#e7be00"/><rect x="39.0" y="56.0" width="6.0" height="10.0" fill="#e7be00"/><rect x="33.0" y="56.0" width="6.0" height="10.0" fill="#e7be00"/><rect x="111.0" y="26.0" width="6.0" height="10.0" fill="#ff3f2f"/><rect x="117.0" y="26.0" width="6.0" height="10.0" fill="#ff3f2f"/><rect x="123.0" y="26.0" width="6.0" height="10.0" fill="#ff3f2f"/><rect x="129.0" y="26.0" width="6.0" height="10.0" fill="#ff3f2f"/><rect x="135.0" y="26.0" width="6.0" height="10.0" fill="#ff3f2f"/><rect x="141.0" y="26.0" width="6.0" height="10.0" fill="#ff3f2f"/><rect x="141.0" y="36.0" width="6.0" height="10.0" fill="#ff3f2f"/><rect x="135.0" y="56.0" width="6.0" height="10.0" fill="#ff3f2f"/><rect x="129.0" y="56.0" width="6.0" height="10.0" fill="#ff3f2f"/><rect x="99.0" y="56.0" width="6.0" height="10.0" fill="#ff3f2f"/><rect x="87.0" y="56.0" width="6.0" height="10.0" fill="#ff3f2f"/><rect x="147.0" y="26.0" width="6.0" height="10.0" fill="#ffffff"/><rect x="153.0" y="26.0" width="6.0" height="10.0" fill="#ffffff"/><rect x="165.0" y="26.0" width="6.0" height="10.0" fill="#ffffff"/><rect x="201.0" y="26.0" width="6.0" height="10.0" fill="#ffffff"/><rect x="201.0" y="36.0" width="6.0" height="10.0" fill="#ffffff"/><rect x="183.0" y="56.0" width="6.0" height="10.0" fill="#ffffff"/><rect x="159.0" y="56.0" width="6.0" height="10.0" fill="#ffffff"/><rect x="147.0" y="56.0" width="6.0" height="10.0" fill="#ffffff"/><rect x="147.0" y="46.0" width="6.0" height="10.0" fill="#ffffff"/><rect x="147.0" y="36.0" width="6.0" height="10.0" fill="#ffffff"/><rect x="27.0" y="66.0" width="6.0" height="10.0" fill="#ff3f2f"/><rect x="57.0" y="66.0" width="6.0" height="10.0" fill="#ff3f2f"/><rect x="75.0" y="66.0" width="6.0" height="10.0" fill="#ff3f2f"/><rect x="81.0" y="66.0" width="6.0" height="10.0" fill="#ff3f2f"/><rect x="45.0" y="96.0" width="6.0" height="10.0" fill="#ff3f2f"/><rect x="27.0" y="76.0" width="6.0" height="10.0" fill="#ff3f2f"/><rect x="99.0" y="66.0" width="6.0" height="10.0" fill="#e7be00"/><rect x="105.0" y="66.0" width="6.0" height="10.0" fill="#e7be00"/><rect x="111.0" y="66.0" width="6.0" height="10.0" fill="#e7be00"/><rect x="123.0" y="66.0" width="6.0" height="10.0" fill="#e7be00"/><rect x="135.0" y="66.0" width="6.0" height="10.0" fill="#e7be00"/><rect x="141.0" y="96.0" width="6.0" height="10.0" fill="#e7be00"/><rect x="135.0" y="96.0" width="6.0" height="10.0" fill="#e7be00"/><rect x="123.0" y="96.0" width="6.0" height="10.0" fill="#e7be00"/><rect x="105.0" y="96.0" width="6.0" height="10.0" fill="#e7be00"/><rect x="99.0" y="96.0" width="6.0" height="10.0" fill="#e7be00"/><rect x="27.0" y="106.0" width="6.0" height="10.0" fill="#ff3f2f"/><rect x="33.0" y="106.0" width="6.0" height="10.0" fill="#ff3f2f"/><rect x="57.0" y="106.0" width="6.0" height="10.0" fill="#ff3f2f"/><rect x="63.0" y="106.0" width="6.0" height="10.0" fill="#ff3f2f"/><rect x="75.0" y="106.0" width="6.0" height="10.0" fill="#ff3f2f"/><rect x="81.0" y="136.0" width="6.0" height="10.0" fill="#ff3f2f"/><rect x="75.0" y="136.0" width="6.0" height="10.0" fill="#ff3f2f"/><rect x="69.0" y="136.0" width="6.0" height="10.0" fill="#ff3f2f"/><rect x="63.0" y="136.0" width="6.0" height="10.0" fill="#ff3f2f"/><rect x="51.0" y="136.0" width="6.0" height="10.0" fill="#ff3f2f"/><rect x="39.0" y="136.0" width="6.0" height="10.0" fill="#ff3f2f"/><rect x="33.0" y="136.0" width="6.0" height="10.0" fill="#ff3f2f"/><rect x="87.0" y="106.0" width="6.0" height="10.0" fill="#e7be00"/><rect x="123.0" y="106.0" width="6.0" height="10.0" fill="#e7be00"/><rect x="141.0" y="106.0" width="6.0" height="10.0" fill="#e7be00"/><rect x="141.0" y="136.0" width="6.0" height="10.0" fill="#e7be00"/><rect x="135.0" y="136.0" width="6.0" height="10.0" fill="#e7be00"/><rect x="129.0" y="136.0" width="6.0" height="10.0" fill="#e7be00"/><rect x="123.0" y="136.0" width="6.0" height="10.0" fill="#e7be00"/><rect x="117.0" y="136.0" width="6.0" height="10.0" fill="#e7be00"/><rect x="105.0" y="136.0" width="6.0" height="10.0" fill="#e7be00"/><rect x="87.0" y="116.0" width="6.0" height="10.0" fill="#e7be00"/><rect x="183.0" y="106.0" width="6.0" height="10.0" fill="#000000"/><rect x="195.0" y="136.0" width="6.0" height="10.0" fill="#000000"/><rect x="189.0" y="136.0" width="6.0" height="10.0" fill="#000000"/><rect x="177.0" y="136.0" width="6.0" height="10.0" fill="#000000"/><rect x="165.0" y="136.0" width="6.0" height="10.0" fill="#000000"/><rect x="159.0" y="136.0" width="6.0" height="10.0" fill="#000000"/><rect x="147.0" y="126.0" width="6.0" height="10.0" fill="#000000"/><rect x="147.0" y="116.0" width="6.0" height="10.0" fill="#000000"/></g><g clip-path="url(#grid-clip-1b8ad32867f0e886-3x3)" data-channel="ellipse" data-ellipse-anchor-x="147.0" data-ellipse-anchor-y="26.0" data-ellipse-rx="61.772848404456795" data-ellipse-ry="37.335238046649714" data-ellipse-rotation-deg="156.0"><ellipse cx="147.0" cy="26.0" rx="61.772848404456795" ry="37.335238046649714" transform="rotate(156.0 147.0 26.0)" fill="#ffffff" stroke="#ffffff" fill-opacity="0.35" stroke-opacity="0.45" stroke-width="2.0"/></g><g><g data-channel="cell" data-cell-index="0" data-cell-row="0" data-cell-col="0"><rect x="33.0" y="36.0" width="48.0" height="20.0" fill="#ef9655"/><text x="57.0" y="46.0" fill="#000000" style="font-family: &quot;JetBrains Mono&quot;, &quot;Menlo&quot;, &quot;Consolas&quot;, &quot;DejaVu Sans Mono&quot;, &quot;Liberation Mono&quot;, &quot;Roboto Mono&quot;, &quot;Noto Sans Mono&quot;, monospace; font-size: 16.0px;" text-anchor="middle" dominant-baseline="central">NSUp</text></g><g data-channel="cell" data-cell-index="1" data-cell-row="0" data-cell-col="1"><rect x="93.0" y="36.0" width="48.0" height="20.0" fill="#898391"/><text x="117.0" y="46.0" fill="#000000" style="font-family: &quot;JetBrains Mono&quot;, &quot;Menlo&quot;, &quot;Consolas&quot;, &quot;DejaVu Sans Mono&quot;, &quot;Liberation Mono&quot;, &quot;Roboto Mono&quot;, &quot;Noto Sans Mono&quot;, monospace; font-size: 16.0px;" text-anchor="middle" dominant-baseline="central">dRFA</text></g><g data-channel="cell" data-cell-index="2" data-cell-row="0" data-cell-col="2" data-cell-quartile="2"><rect x="153.0" y="36.0" width="48.0" height="20.0" fill="#9fd08a"/><text x="177.0" y="46.0" fill="#000000" style="font-family: &quot;JetBrains Mono&quot;, &quot;Menlo&quot;, &quot;Consolas&quot;, &quot;DejaVu Sans Mono&quot;, &quot;Liberation Mono&quot;, &quot;Roboto Mono&quot;, &quot;Noto Sans Mono&quot;, monospace; font-size: 16.0px;" text-anchor="middle" dominant-baseline="central">bn3Y</text><polygon points="201.0,36.0 191.0,36.0 201.0,46.0" fill="#000000"/></g><g data-channel="cell" data-cell-index="3" data-cell-row="1" data-cell-col="0"><rect x="33.0" y="76.0" width="48.0" height="20.0" fill="#950a06"/><text x="57.0" y="86.0" fill="#ffffff" style="font-family: &quot;JetBrains Mono&quot;, &quot;Menlo&quot;, &quot;Consolas&quot;, &quot;DejaVu Sans Mono&quot;, &quot;Liberation Mono&quot;, &quot;Roboto Mono&quot;, &quot;Noto Sans Mono&quot;, monospace; font-size: 16.0px;" text-anchor="middle" dominant-baseline="central">2ZjN</text></g><g data-channel="cell" data-cell-index="4" data-cell-row="1" data-cell-col="1" data-cell-quartile="3"><rect x="93.0" y="76.0" width="48.0" height="20.0" fill="#95d91e"/><text x="117.0" y="86.0" fill="#000000" style="font-family: &quot;JetBrains Mono&quot;, &quot;Menlo&quot;, &quot;Consolas&quot;, &quot;DejaVu Sans Mono&quot;, &quot;Liberation Mono&quot;, &quot;Roboto Mono&quot;, &quot;Noto Sans Mono&quot;, monospace; font-size: 16.0px;" text-anchor="middle" dominant-baseline="central">8nfN</text><polygon points="141.0,96.0 141.0,86.0 131.0,96.0" fill="#000000"/></g><g data-channel="cell" data-cell-index="5" data-cell-row="1" data-cell-col="2" data-cell-blank="true" data-cell-blank-map="true"><rect x="153.0" y="76.0" width="48.0" height="20.0" rx="10.0" ry="10.0" fill="#ffffff" stroke="#000000" stroke-width="1"/><circle cx="177.0" cy="86.0" r="3.5" fill="#1d4ed8" data-blank-map-min="1,1"/><path d="M 188.8,79.33333333333333 H 197.2 M 193.0,75.13333333333333 V 83.53333333333333" fill="none" stroke="#d62828" stroke-width="1.9250000000000003" stroke-linecap="butt" data-blank-map-max="0,2"/></g><g data-channel="cell" data-cell-index="6" data-cell-row="2" data-cell-col="0" data-cell-quartile="4"><rect x="33.0" y="116.0" width="48.0" height="20.0" fill="#af1699"/><text x="57.0" y="126.0" fill="#ffffff" style="font-family: &quot;JetBrains Mono&quot;, &quot;Menlo&quot;, &quot;Consolas&quot;, &quot;DejaVu Sans Mono&quot;, &quot;Liberation Mono&quot;, &quot;Roboto Mono&quot;, &quot;Noto Sans Mono&quot;, monospace; font-size: 16.0px;" text-anchor="middle" dominant-baseline="central">fJTp</text><polygon points="33.0,136.0 33.0,126.0 43.0,136.0" fill="#ffffff"/></g><g data-channel="cell" data-cell-index="7" data-cell-row="2" data-cell-col="1"><rect x="93.0" y="116.0" width="48.0" height="20.0" fill="#2ea571"/><text x="117.0" y="126.0" fill="#000000" style="font-family: &quot;JetBrains Mono&quot;, &quot;Menlo&quot;, &quot;Consolas&quot;, &quot;DejaVu Sans Mono&quot;, &quot;Liberation Mono&quot;, &quot;Roboto Mono&quot;, &quot;Noto Sans Mono&quot;, monospace; font-size: 16.0px;" text-anchor="middle" dominant-baseline="central">VTMo</text></g><g data-channel="cell" data-cell-index="8" data-cell-row="2" data-cell-col="2" data-cell-quartile="1"><rect x="153.0" y="116.0" width="48.0" height="20.0" fill="#455114"/><text x="177.0" y="126.0" fill="#ffffff" style="font-family: &quot;JetBrains Mono&quot;, &quot;Menlo&quot;, &quot;Consolas&quot;, &quot;DejaVu Sans Mono&quot;, &quot;Liberation Mono&quot;, &quot;Roboto Mono&quot;, &quot;Noto Sans Mono&quot;, monospace; font-size: 16.0px;" text-anchor="middle" dominant-baseline="central">6</text><polygon points="153.0,116.0 163.0,116.0 153.0,126.0" fill="#ffffff"/></g></g></g><g data-channel="color-bar"><g data-color-bar-rank="0" data-color-bar-band="W"><rect x="1" y="1" width="20.0" height="67.66806709555853" fill="#ffffff"/><text x="11.0" y="65.14806709555853" fill="#000000" style="font-family: &quot;JetBrains Mono&quot;, &quot;Menlo&quot;, &quot;Consolas&quot;, &quot;DejaVu Sans Mono&quot;, &quot;Liberation Mono&quot;, &quot;Roboto Mono&quot;, &quot;Noto Sans Mono&quot;, monospace; font-size: 16.0px;" text-anchor="middle" data-color-bar-letter="true">w</text></g><g data-color-bar-rank="1" data-color-bar-band="K"><rect x="1" y="68.66806709555853" width="20.0" height="48.01661510932027" fill="#000000"/><text x="11.0" y="113.1646822048788" fill="#ffffff" style="font-family: &quot;JetBrains Mono&quot;, &quot;Menlo&quot;, &quot;Consolas&quot;, &quot;DejaVu Sans Mono&quot;, &quot;Liberation Mono&quot;, &quot;Roboto Mono&quot;, &quot;Noto Sans Mono&quot;, monospace; font-size: 16.0px;" text-anchor="middle" data-color-bar-letter="true">k</text></g><g data-color-bar-rank="2" data-color-bar-band="R"><rect x="1" y="116.6846822048788" width="20.0" height="30.881424999472273" fill="#ff3f2f"/><text x="11.0" y="144.04610720435105" fill="#000000" style="font-family: &quot;JetBrains Mono&quot;, &quot;Menlo&quot;, &quot;Consolas&quot;, &quot;DejaVu Sans Mono&quot;, &quot;Liberation Mono&quot;, &quot;Roboto Mono&quot;, &quot;Noto Sans Mono&quot;, monospace; font-size: 16.0px;" text-anchor="middle" data-color-bar-letter="true">r</text></g><g data-color-bar-rank="3" data-color-bar-band="G"><rect x="1" y="147.56610720435106" width="20.0" height="23.433892795648944" fill="#e7be00"/><text x="11.0" y="167.48" fill="#000000" style="font-family: &quot;JetBrains Mono&quot;, &quot;Menlo&quot;, &quot;Consolas&quot;, &quot;DejaVu Sans Mono&quot;, &quot;Liberation Mono&quot;, &quot;Roboto Mono&quot;, &quot;Noto Sans Mono&quot;, monospace; font-size: 16.0px;" text-anchor="middle" data-color-bar-letter="true">g</text></g></g><g data-channel="label-top"><text x="27.0" y="16.0" fill="#666666" style="font-family: &quot;JetBrains Mono&quot;, &quot;Menlo&quot;, &quot;Consolas&quot;, &quot;DejaVu Sans Mono&quot;, &quot;Liberation Mono&quot;, &quot;Roboto Mono&quot;, &quot;Noto Sans Mono&quot;, monospace; font-size: 12.0px;" dominant-baseline="central">BTC legacy: 1...</text></g><g data-channel="label-bottom"><text x="207.0" y="156.0" fill="#666666" style="font-family: &quot;JetBrains Mono&quot;, &quot;Menlo&quot;, &quot;Consolas&quot;, &quot;DejaVu Sans Mono&quot;, &quot;Liberation Mono&quot;, &quot;Roboto Mono&quot;, &quot;Noto Sans Mono&quot;, monospace; font-size: 12.0px;" text-anchor="end" dominant-baseline="central">...gxa6</text></g><line x1="0" y1="0.5" x2="213.0" y2="0.5" stroke="#808080" stroke-width="1" shape-rendering="crispEdges"/><line x1="212.5" y1="0" x2="212.5" y2="172.0" stroke="#808080" stroke-width="1" shape-rendering="crispEdges"/><line x1="0" y1="171.5" x2="213.0" y2="171.5" stroke="#808080" stroke-width="1" shape-rendering="crispEdges"/><line x1="0.5" y1="0" x2="0.5" y2="172.0" stroke="#808080" stroke-width="1" shape-rendering="crispEdges"/><line x1="21.5" y1="0" x2="21.5" y2="172.0" stroke="#808080" stroke-width="1" shape-rendering="crispEdges"/></svg>