<svg width="215" height="174" viewBox="0 0 215 174" xmlns="http://www.w3.org/2000/svg" font-family="&quot;JetBrains Mono&quot;, &quot;Menlo&quot;, &quot;Consolas&quot;, &quot;DejaVu Sans Mono&quot;, &quot;Liberation Mono&quot;, &quot;Roboto Mono&quot;, &quot;Noto Sans Mono&quot;, monospace" data-entviz-version="v13" data-entviz-lib="0.13.0" data-input-bytes="34" data-cols="3" data-rows="3" data-encoding="base58" data-scheme="btc" data-role="address" data-size-basis="decoded" data-entropy-type="btc" data-size-bits="176" data-qualifiers="{&quot;network&quot;:&quot;mainnet&quot;,&quot;variant&quot;:&quot;legacy&quot;}" data-parts="[{&quot;text&quot;:&quot;1&quot;,&quot;bind&quot;:&quot;none&quot;},{&quot;text&quot;:&quot;NSUpdRFAbn3Y2ZjN8nfNfJTpVTMo6&quot;,&quot;bind&quot;:&quot;core&quot;},{&quot;text&quot;:&quot;gxa6&quot;,&quot;bind&quot;:&quot;none&quot;}]"><defs><clipPath id="grid-clip-1b8ad32867f0e886-3x3"><rect x="28" y="27" width="180" height="120"/></clipPath></defs><rect x="1" y="1" width="213" height="172" fill="#ffffff"/><g data-channel="grid"><rect x="28" y="27" width="180" height="120" fill="#2f3fbf"/><g><path fill="#000000" d="M28 27h6v10h-6zM34 27h6v10h-6zM52 27h6v10h-6zM64 27h6v10h-6zM70 27h6v10h-6zM82 27h6v10h-6zM82 47h6v10h-6zM64 57h6v10h-6zM58 57h6v10h-6zM52 57h6v10h-6zM40 57h6v10h-6zM34 57h6v10h-6z"/><path fill="#ff3f2f" d="M112 27h6v10h-6zM118 27h6v10h-6zM124 27h6v10h-6zM130 27h6v10h-6zM136 27h6v10h-6zM142 27h6v10h-6zM142 37h6v10h-6zM136 57h6v10h-6zM130 57h6v10h-6zM100 57h6v10h-6zM88 57h6v10h-6z"/><path fill="#000000" d="M148 27h6v10h-6zM154 27h6v10h-6zM166 27h6v10h-6zM202 27h6v10h-6zM202 37h6v10h-6zM184 57h6v10h-6zM160 57h6v10h-6zM148 57h6v10h-6zM148 47h6v10h-6zM148 37h6v10h-6z"/><path fill="#ff3f2f" d="M28 67h6v10h-6zM58 67h6v10h-6zM76 67h6v10h-6zM82 67h6v10h-6zM46 97h6v10h-6zM28 77h6v10h-6z"/><path fill="#e7be00" d="M100 67h6v10h-6zM106 67h6v10h-6zM112 67h6v10h-6zM124 67h6v10h-6zM136 67h6v10h-6zM142 97h6v10h-6zM136 97h6v10h-6zM124 97h6v10h-6zM106 97h6v10h-6zM100 97h6v10h-6z"/><path fill="#ff3f2f" d="M28 107h6v10h-6zM34 107h6v10h-6zM58 107h6v10h-6zM64 107h6v10h-6zM76 107h6v10h-6zM82 137h6v10h-6zM76 137h6v10h-6zM70 137h6v10h-6zM64 137h6v10h-6zM52 137h6v10h-6zM40 137h6v10h-6zM34 137h6v10h-6z"/><path fill="#e7be00" d="M88 107h6v10h-6zM124 107h6v10h-6zM142 107h6v10h-6zM142 137h6v10h-6zM136 137h6v10h-6zM130 137h6v10h-6zM124 137h6v10h-6zM118 137h6v10h-6zM106 137h6v10h-6zM88 117h6v10h-6z"/><path fill="#ffffff" d="M184 107h6v10h-6zM196 137h6v10h-6zM190 137h6v10h-6zM178 137h6v10h-6zM166 137h6v10h-6zM160 137h6v10h-6zM148 127h6v10h-6zM148 117h6v10h-6z"/></g><g clip-path="url(#grid-clip-1b8ad32867f0e886-3x3)" data-channel="ellipse" data-ellipse-anchor-x="148" data-ellipse-anchor-y="27" data-ellipse-rx="61.773" data-ellipse-ry="37.335" data-ellipse-rotation-deg="156"><ellipse cx="148" cy="27" rx="61.773" ry="37.335" transform="rotate(156 148 27)" fill="#ffffff" stroke="#ffffff" fill-opacity="0.35" stroke-opacity="0.45" stroke-width="2"/></g><g><g data-channel="cell" data-cell-index="0" data-cell-row="0" data-cell-col="0" data-surround-bits="0x1b8ad3" data-edge-color="#000000"><rect x="34" y="37" width="48" height="20" fill="#ef9655"/><text x="58" y="47" fill="#000000" font-size="16" text-anchor="middle" dominant-baseline="central">NSUp</text></g><g data-channel="cell" data-cell-index="1" data-cell-row="0" data-cell-col="1" data-surround-bits="0x2867f0" data-edge-color="#ff3f2f"><rect x="94" y="37" width="48" height="20" fill="#898391"/><text x="118" y="47" fill="#000000" font-size="16" text-anchor="middle" dominant-baseline="central">dRFA</text></g><g data-channel="cell" data-cell-index="2" data-cell-row="0" data-cell-col="2" data-surround-bits="0xe8860b" data-edge-color="#000000" data-cell-quartile="2"><rect x="154" y="37" width="48" height="20" fill="#9fd08a"/><text x="178" y="47" fill="#000000" font-size="16" text-anchor="middle" dominant-baseline="central">bn3Y</text><polygon points="202,37 192,37 202,47" fill="#000000"/></g><g data-channel="cell" data-cell-index="3" data-cell-row="1" data-cell-col="0" data-surround-bits="0x840321" data-edge-color="#ff3f2f"><rect x="34" y="77" width="48" height="20" fill="#950a06"/><text x="58" y="87" fill="#ffffff" font-size="16" text-anchor="middle" dominant-baseline="central">2ZjN</text></g><g data-channel="cell" data-cell-index="4" data-cell-row="1" data-cell-col="1" data-surround-bits="0xcb15c" data-edge-color="#e7be00" data-cell-quartile="3"><rect x="94" y="77" width="48" height="20" fill="#95d91e"/><text x="118" y="87" fill="#000000" font-size="16" text-anchor="middle" dominant-baseline="central">8nfN</text><polygon points="142,97 142,87 132,97" fill="#000000"/></g><g data-channel="cell" data-cell-index="5" data-cell-row="1" data-cell-col="2" data-cell-blank="true" data-cell-blank-map="true"><rect x="154" y="77" width="48" height="20" rx="10" ry="10" fill="#ff3f2f" stroke="#000000" stroke-width="1"/><circle cx="178" cy="87" r="3.5" fill="#000000" data-blank-map-min="1,1"/><path d="M 189.8,80.333 H 198.2 M 194,76.133 V 84.533" fill="none" stroke="#000000" stroke-width="1.925" stroke-linecap="butt" data-blank-map-max="0,2"/></g><g data-channel="cell" data-cell-index="6" data-cell-row="2" data-cell-col="0" data-surround-bits="0x1af163" data-edge-color="#ff3f2f" data-cell-quartile="4"><rect x="34" y="117" width="48" height="20" fill="#af1699"/><text x="58" y="127" fill="#ffffff" font-size="16" text-anchor="middle" dominant-baseline="central">fJTp</text><polygon points="34,137 34,127 44,137" fill="#ffffff"/></g><g data-channel="cell" data-cell-index="7" data-cell-row="2" data-cell-col="1" data-surround-bits="0x85f241" data-edge-color="#e7be00"><rect x="94" y="117" width="48" height="20" fill="#2ea571"/><text x="118" y="127" fill="#000000" font-size="16" text-anchor="middle" dominant-baseline="central">VTMo</text></g><g data-channel="cell" data-cell-index="8" data-cell-row="2" data-cell-col="2" data-surround-bits="0xcd6040" data-edge-color="#ffffff" data-cell-quartile="1"><rect x="154" y="117" width="48" height="20" fill="#455114"/><text x="178" y="127" fill="#ffffff" font-size="16" text-anchor="middle" dominant-baseline="central">6</text><polygon points="154,117 164,117 154,127" fill="#ffffff"/></g></g></g><g data-channel="color-bar" data-bar-slots="14" data-bar-marker-left="3" data-bar-marker-right="12"><g data-color-bar-rank="0" data-color-bar-band="K"><rect x="2" y="2" width="20" height="48.017" fill="#000000"/><text x="12" y="46.497" fill="#ffffff" font-size="16" text-anchor="middle" data-color-bar-letter="true">k</text></g><g data-color-bar-rank="1" data-color-bar-band="R"><rect x="2" y="50.017" width="20" height="30.881" fill="#ff3f2f"/><text x="12" y="77.378" fill="#000000" font-size="16" text-anchor="middle" data-color-bar-letter="true">r</text></g><g data-color-bar-rank="2" data-color-bar-band="G"><rect x="2" y="80.898" width="20" height="23.434" fill="#e7be00"/><text x="12" y="100.812" fill="#000000" font-size="16" text-anchor="middle" data-color-bar-letter="true">g</text></g><g data-color-bar-rank="3" data-color-bar-band="W"><rect x="2" y="104.332" width="20" height="67.668" fill="#ffffff"/><text x="12" y="168.48" fill="#000000" font-size="16" text-anchor="middle" data-color-bar-letter="true">w</text></g><circle cx="6.6" cy="44.5" r="3.4" fill="#ffffff" stroke="#000000" stroke-width="0.75" data-bar-marker="left"/><circle cx="17.4" cy="153.786" r="3.4" fill="#ffffff" stroke="#000000" stroke-width="0.75" data-bar-marker="right"/></g><g data-channel="label-top"><text x="28" y="17" fill="#666666" font-size="12" dominant-baseline="central">BTC legacy: 1...</text></g><g data-channel="label-bottom"><text x="208" y="157" fill="#666666" font-size="12" text-anchor="end" dominant-baseline="central">...gxa6</text></g><line x1="1" y1="1.5" x2="214" y2="1.5" stroke="#808080" stroke-width="1" shape-rendering="crispEdges"/><line x1="213.5" y1="1" x2="213.5" y2="173" stroke="#808080" stroke-width="1" shape-rendering="crispEdges"/><line x1="1" y1="172.5" x2="214" y2="172.5" stroke="#808080" stroke-width="1" shape-rendering="crispEdges"/><line x1="1.5" y1="1" x2="1.5" y2="173" stroke="#808080" stroke-width="1" shape-rendering="crispEdges"/><line x1="22.5" y1="1" x2="22.5" y2="173" stroke="#808080" stroke-width="1" shape-rendering="crispEdges"/></svg>