<svg width="213" height="152" viewBox="0 0 213 152" xmlns="http://www.w3.org/2000/svg" data-entviz-version="v10" data-entviz-lib="0.10.0" data-input-bytes="34" data-cols="3" data-rows="3"><defs><clipPath id="grid-clip-8ca076ef4cefb402-3x3"><rect x="27" y="26" width="180" height="120"/></clipPath></defs><rect x="0" y="0" width="213" height="152" fill="#ffffff"/><g data-channel="grid"><rect x="27" y="26" width="180" height="120" fill="#2f3fbf"/><g><rect x="33" y="26" width="6" height="10" fill="#ff3f2f"/><rect x="39" y="26" width="6" height="10" fill="#ff3f2f"/><rect x="51" y="26" width="6" height="10" fill="#ff3f2f"/><rect x="57" y="26" width="6" height="10" fill="#ff3f2f"/><rect x="63" y="26" width="6" height="10" fill="#ff3f2f"/><rect x="75" y="56" width="6" height="10" fill="#ff3f2f"/><rect x="63" y="56" width="6" height="10" fill="#ff3f2f"/><rect x="45" y="56" width="6" height="10" fill="#ff3f2f"/><rect x="39" y="56" width="6" height="10" fill="#ff3f2f"/><rect x="27" y="36" width="6" height="10" fill="#ff3f2f"/><rect x="87" y="26" width="6" height="10" fill="#ff3f2f"/><rect x="93" y="26" width="6" height="10" fill="#ff3f2f"/><rect x="99" y="26" width="6" height="10" fill="#ff3f2f"/><rect x="105" y="26" width="6" height="10" fill="#ff3f2f"/><rect x="117" y="26" width="6" height="10" fill="#ff3f2f"/><rect x="123" y="26" width="6" height="10" fill="#ff3f2f"/><rect x="129" y="26" width="6" height="10" fill="#ff3f2f"/><rect x="141" y="36" width="6" height="10" fill="#ff3f2f"/><rect x="141" y="46" width="6" height="10" fill="#ff3f2f"/><rect x="129" y="56" width="6" height="10" fill="#ff3f2f"/><rect x="117" y="56" width="6" height="10" fill="#ff3f2f"/><rect x="111" y="56" width="6" height="10" fill="#ff3f2f"/><rect x="105" y="56" width="6" height="10" fill="#ff3f2f"/><rect x="99" y="56" width="6" height="10" fill="#ff3f2f"/><rect x="87" y="56" width="6" height="10" fill="#ff3f2f"/><rect x="87" y="46" width="6" height="10" fill="#ff3f2f"/><rect x="87" y="36" width="6" height="10" fill="#ff3f2f"/><rect x="147" y="26" width="6" height="10" fill="#e7be00"/><rect x="159" y="26" width="6" height="10" fill="#e7be00"/><rect x="183" y="26" width="6" height="10" fill="#e7be00"/><rect x="189" y="26" width="6" height="10" fill="#e7be00"/><rect x="201" y="26" width="6" height="10" fill="#e7be00"/><rect x="165" y="56" width="6" height="10" fill="#e7be00"/><rect x="153" y="56" width="6" height="10" fill="#e7be00"/><rect x="147" y="56" width="6" height="10" fill="#e7be00"/><rect x="147" y="36" width="6" height="10" fill="#e7be00"/><rect x="33" y="66" width="6" height="10" fill="#ff3f2f"/><rect x="45" y="66" width="6" height="10" fill="#ff3f2f"/><rect x="51" y="66" width="6" height="10" fill="#ff3f2f"/><rect x="57" y="66" width="6" height="10" fill="#ff3f2f"/><rect x="63" y="66" width="6" height="10" fill="#ff3f2f"/><rect x="69" y="66" width="6" height="10" fill="#ff3f2f"/><rect x="81" y="86" width="6" height="10" fill="#ff3f2f"/><rect x="81" y="96" width="6" height="10" fill="#ff3f2f"/><rect x="75" y="96" width="6" height="10" fill="#ff3f2f"/><rect x="57" y="96" width="6" height="10" fill="#ff3f2f"/><rect x="51" y="96" width="6" height="10" fill="#ff3f2f"/><rect x="45" y="96" width="6" height="10" fill="#ff3f2f"/><rect x="39" y="96" width="6" height="10" fill="#ff3f2f"/><rect x="27" y="76" width="6" height="10" fill="#ff3f2f"/><rect x="117" y="66" width="6" height="10" fill="#ff3f2f"/><rect x="135" y="66" width="6" height="10" fill="#ff3f2f"/><rect x="141" y="86" width="6" height="10" fill="#ff3f2f"/><rect x="141" y="96" width="6" height="10" fill="#ff3f2f"/><rect x="117" y="96" width="6" height="10" fill="#ff3f2f"/><rect x="111" y="96" width="6" height="10" fill="#ff3f2f"/><rect x="105" y="96" width="6" height="10" fill="#ff3f2f"/><rect x="93" y="96" width="6" height="10" fill="#ff3f2f"/><rect x="87" y="96" width="6" height="10" fill="#ff3f2f"/><rect x="147" y="66" width="6" height="10" fill="#ff3f2f"/><rect x="153" y="66" width="6" height="10" fill="#ff3f2f"/><rect x="159" y="66" width="6" height="10" fill="#ff3f2f"/><rect x="165" y="66" width="6" height="10" fill="#ff3f2f"/><rect x="177" y="66" width="6" height="10" fill="#ff3f2f"/><rect x="183" y="66" width="6" height="10" fill="#ff3f2f"/><rect x="195" y="66" width="6" height="10" fill="#ff3f2f"/><rect x="201" y="96" width="6" height="10" fill="#ff3f2f"/><rect x="177" y="96" width="6" height="10" fill="#ff3f2f"/><rect x="147" y="96" width="6" height="10" fill="#ff3f2f"/><rect x="147" y="86" width="6" height="10" fill="#ff3f2f"/><rect x="27" y="106" width="6" height="10" fill="#000000"/><rect x="33" y="106" width="6" height="10" fill="#000000"/><rect x="63" y="106" width="6" height="10" fill="#000000"/><rect x="69" y="106" width="6" height="10" fill="#000000"/><rect x="75" y="106" width="6" height="10" fill="#000000"/><rect x="81" y="126" width="6" height="10" fill="#000000"/><rect x="75" y="136" width="6" height="10" fill="#000000"/><rect x="69" y="136" width="6" height="10" fill="#000000"/><rect x="63" y="136" width="6" height="10" fill="#000000"/><rect x="57" y="136" width="6" height="10" fill="#000000"/><rect x="45" y="136" width="6" height="10" fill="#000000"/><rect x="33" y="136" width="6" height="10" fill="#000000"/><rect x="27" y="126" width="6" height="10" fill="#000000"/><rect x="27" y="116" width="6" height="10" fill="#000000"/><rect x="93" y="106" width="6" height="10" fill="#000000"/><rect x="99" y="106" width="6" height="10" fill="#000000"/><rect x="105" y="106" width="6" height="10" fill="#000000"/><rect x="111" y="106" width="6" height="10" fill="#000000"/><rect x="129" y="106" width="6" height="10" fill="#000000"/><rect x="141" y="106" width="6" height="10" fill="#000000"/><rect x="141" y="126" width="6" height="10" fill="#000000"/><rect x="141" y="136" width="6" height="10" fill="#000000"/><rect x="123" y="136" width="6" height="10" fill="#000000"/><rect x="117" y="136" width="6" height="10" fill="#000000"/><rect x="99" y="136" width="6" height="10" fill="#000000"/><rect x="93" y="136" width="6" height="10" fill="#000000"/><rect x="87" y="136" width="6" height="10" fill="#000000"/><rect x="153" y="106" width="6" height="10" fill="#ff3f2f"/><rect x="159" y="106" width="6" height="10" fill="#ff3f2f"/><rect x="165" y="106" width="6" height="10" fill="#ff3f2f"/><rect x="171" y="106" width="6" height="10" fill="#ff3f2f"/><rect x="189" y="106" width="6" height="10" fill="#ff3f2f"/><rect x="195" y="106" width="6" height="10" fill="#ff3f2f"/><rect x="189" y="136" width="6" height="10" fill="#ff3f2f"/><rect x="183" y="136" width="6" height="10" fill="#ff3f2f"/><rect x="177" y="136" width="6" height="10" fill="#ff3f2f"/><rect x="159" y="136" width="6" height="10" fill="#ff3f2f"/><rect x="147" y="136" width="6" height="10" fill="#ff3f2f"/><rect x="147" y="116" width="6" height="10" fill="#ff3f2f"/></g><g clip-path="url(#grid-clip-8ca076ef4cefb402-3x3)" data-channel="ellipse" data-ellipse-anchor-x="87" data-ellipse-anchor-y="146" data-ellipse-rx="69.919" data-ellipse-ry="49.554" data-ellipse-rotation-deg="180"><ellipse cx="87" cy="146" rx="69.919" ry="49.554" transform="rotate(180 87 146)" fill="#ffffff" stroke="#ffffff" fill-opacity="0.35" stroke-opacity="0.45" stroke-width="2"/></g><g><g data-channel="cell" data-cell-index="0" data-cell-row="0" data-cell-col="0" data-cell-quartile="1"><rect x="33" y="36" width="48" height="20" fill="#da2136"/><text x="57" y="46" fill="#ffffff" style="font-family: &quot;JetBrains Mono&quot;, &quot;Menlo&quot;, &quot;Consolas&quot;, &quot;DejaVu Sans Mono&quot;, &quot;Liberation Mono&quot;, &quot;Roboto Mono&quot;, &quot;Noto Sans Mono&quot;, monospace; font-size: 16px;" text-anchor="middle" dominant-baseline="central">Eb8T</text><polygon points="33,36 43,36 33,46" fill="#ffffff"/></g><g data-channel="cell" data-cell-index="1" data-cell-row="0" data-cell-col="1"><rect x="93" y="36" width="48" height="20" fill="#ca2948"/><text x="117" y="46" fill="#ffffff" style="font-family: &quot;JetBrains Mono&quot;, &quot;Menlo&quot;, &quot;Consolas&quot;, &quot;DejaVu Sans Mono&quot;, &quot;Liberation Mono&quot;, &quot;Roboto Mono&quot;, &quot;Noto Sans Mono&quot;, monospace; font-size: 16px;" text-anchor="middle" dominant-baseline="central">K3gB</text></g><g data-channel="cell" data-cell-index="2" data-cell-row="0" data-cell-col="2" data-cell-quartile="2"><rect x="153" y="36" width="48" height="20" fill="#21b19e"/><text x="177" y="46" fill="#000000" style="font-family: &quot;JetBrains Mono&quot;, &quot;Menlo&quot;, &quot;Consolas&quot;, &quot;DejaVu Sans Mono&quot;, &quot;Liberation Mono&quot;, &quot;Roboto Mono&quot;, &quot;Noto Sans Mono&quot;, monospace; font-size: 16px;" text-anchor="middle" dominant-baseline="central">gk5a</text><polygon points="201,36 191,36 201,46" fill="#000000"/></g><g data-channel="cell" data-cell-index="3" data-cell-row="1" data-cell-col="0"><rect x="33" y="76" width="48" height="20" fill="#f60ad2"/><text x="57" y="86" fill="#000000" style="font-family: &quot;JetBrains Mono&quot;, &quot;Menlo&quot;, &quot;Consolas&quot;, &quot;DejaVu Sans Mono&quot;, &quot;Liberation Mono&quot;, &quot;Roboto Mono&quot;, &quot;Noto Sans Mono&quot;, monospace; font-size: 16px;" text-anchor="middle" dominant-baseline="central">uZkw</text></g><g data-channel="cell" data-cell-index="4" data-cell-row="1" data-cell-col="1" data-cell-quartile="3"><rect x="93" y="76" width="48" height="20" fill="#905c8c"/><text x="117" y="86" fill="#ffffff" style="font-family: &quot;JetBrains Mono&quot;, &quot;Menlo&quot;, &quot;Consolas&quot;, &quot;DejaVu Sans Mono&quot;, &quot;Liberation Mono&quot;, &quot;Roboto Mono&quot;, &quot;Noto Sans Mono&quot;, monospace; font-size: 16px;" text-anchor="middle" dominant-baseline="central">c6sH</text><polygon points="141,96 141,86 131,96" fill="#ffffff"/></g><g data-channel="cell" data-cell-index="5" data-cell-row="1" data-cell-col="2"><rect x="153" y="76" width="48" height="20" fill="#4f6cb7"/><text x="177" y="86" fill="#ffffff" style="font-family: &quot;JetBrains Mono&quot;, &quot;Menlo&quot;, &quot;Consolas&quot;, &quot;DejaVu Sans Mono&quot;, &quot;Liberation Mono&quot;, &quot;Roboto Mono&quot;, &quot;Noto Sans Mono&quot;, monospace; font-size: 16px;" text-anchor="middle" dominant-baseline="central">nwrG</text></g><g data-channel="cell" data-cell-index="6" data-cell-row="2" data-cell-col="0"><rect x="33" y="116" width="48" height="20" fill="#071471"/><text x="57" y="126" fill="#ffffff" style="font-family: &quot;JetBrains Mono&quot;, &quot;Menlo&quot;, &quot;Consolas&quot;, &quot;DejaVu Sans Mono&quot;, &quot;Liberation Mono&quot;, &quot;Roboto Mono&quot;, &quot;Noto Sans Mono&quot;, monospace; font-size: 16px;" text-anchor="middle" dominant-baseline="central">VJH8</text></g><g data-channel="cell" data-cell-index="7" data-cell-row="2" data-cell-col="1"><rect x="93" y="116" width="48" height="20" fill="#534833"/><text x="117" y="126" fill="#ffffff" style="font-family: &quot;JetBrains Mono&quot;, &quot;Menlo&quot;, &quot;Consolas&quot;, &quot;DejaVu Sans Mono&quot;, &quot;Liberation Mono&quot;, &quot;Roboto Mono&quot;, &quot;Noto Sans Mono&quot;, monospace; font-size: 16px;" text-anchor="middle" dominant-baseline="central">DuaL</text></g><g data-channel="cell" data-cell-index="8" data-cell-row="2" data-cell-col="2"><rect x="153" y="116" width="48" height="20" fill="#288aa2"/><text x="177" y="126" fill="#ffffff" style="font-family: &quot;JetBrains Mono&quot;, &quot;Menlo&quot;, &quot;Consolas&quot;, &quot;DejaVu Sans Mono&quot;, &quot;Liberation Mono&quot;, &quot;Roboto Mono&quot;, &quot;Noto Sans Mono&quot;, monospace; font-size: 16px;" text-anchor="middle" dominant-baseline="central">h</text></g></g></g><g data-channel="color-bar" data-bar-slots="12" data-bar-marker-left="6" data-bar-marker-right="8"><g data-color-bar-rank="0" data-color-bar-band="W"><rect x="1" y="1" width="20" height="41.7" fill="#ffffff"/><text x="11" y="39.18" fill="#000000" style="font-family: &quot;JetBrains Mono&quot;, &quot;Menlo&quot;, &quot;Consolas&quot;, &quot;DejaVu Sans Mono&quot;, &quot;Liberation Mono&quot;, &quot;Roboto Mono&quot;, &quot;Noto Sans Mono&quot;, monospace; font-size: 16px;" text-anchor="middle" data-color-bar-letter="true">w</text></g><g data-color-bar-rank="1" data-color-bar-band="K"><rect x="1" y="42.7" width="20" height="62.053" fill="#000000"/><text x="11" y="101.232" fill="#ffffff" style="font-family: &quot;JetBrains Mono&quot;, &quot;Menlo&quot;, &quot;Consolas&quot;, &quot;DejaVu Sans Mono&quot;, &quot;Liberation Mono&quot;, &quot;Roboto Mono&quot;, &quot;Noto Sans Mono&quot;, monospace; font-size: 16px;" text-anchor="middle" data-color-bar-letter="true">k</text></g><g data-color-bar-rank="2" data-color-bar-band="R"><rect x="1" y="104.752" width="20" height="28.652" fill="#ff3f2f"/><text x="11" y="129.884" fill="#000000" style="font-family: &quot;JetBrains Mono&quot;, &quot;Menlo&quot;, &quot;Consolas&quot;, &quot;DejaVu Sans Mono&quot;, &quot;Liberation Mono&quot;, &quot;Roboto Mono&quot;, &quot;Noto Sans Mono&quot;, monospace; font-size: 16px;" text-anchor="middle" data-color-bar-letter="true">r</text></g><g data-color-bar-rank="3" data-color-bar-band="G"><rect x="1" y="133.404" width="20" height="17.596" fill="#e7be00"/><text x="11" y="147.48" fill="#000000" style="font-family: &quot;JetBrains Mono&quot;, &quot;Menlo&quot;, &quot;Consolas&quot;, &quot;DejaVu Sans Mono&quot;, &quot;Liberation Mono&quot;, &quot;Roboto Mono&quot;, &quot;Noto Sans Mono&quot;, monospace; font-size: 16px;" text-anchor="middle" data-color-bar-letter="true">g</text></g><circle cx="5.6" cy="82.25" r="3.4" fill="#ffffff" stroke="#000000" stroke-width="0.75" data-bar-marker="left"/><circle cx="16.4" cy="107.25" r="3.4" fill="#ffffff" stroke="#000000" stroke-width="0.75" data-bar-marker="right"/></g><g data-channel="label-top"><text x="27" y="16" fill="#666666" style="font-family: &quot;JetBrains Mono&quot;, &quot;Menlo&quot;, &quot;Consolas&quot;, &quot;DejaVu Sans Mono&quot;, &quot;Liberation Mono&quot;, &quot;Roboto Mono&quot;, &quot;Noto Sans Mono&quot;, monospace; font-size: 12px;" dominant-baseline="central">XRP: r...</text></g><line x1="0" y1="0.5" x2="213" y2="0.5" stroke="#808080" stroke-width="1" shape-rendering="crispEdges"/><line x1="212.5" y1="0" x2="212.5" y2="152" stroke="#808080" stroke-width="1" shape-rendering="crispEdges"/><line x1="0" y1="151.5" x2="213" y2="151.5" stroke="#808080" stroke-width="1" shape-rendering="crispEdges"/><line x1="0.5" y1="0" x2="0.5" y2="152" stroke="#808080" stroke-width="1" shape-rendering="crispEdges"/><line x1="21.5" y1="0" x2="21.5" y2="152" stroke="#808080" stroke-width="1" shape-rendering="crispEdges"/></svg>