<svg width="215" height="154" viewBox="0 0 215 154" xmlns="http://www.w3.org/2000/svg" font-family="&quot;JetBrains Mono&quot;, &quot;Menlo&quot;, &quot;Consolas&quot;, &quot;DejaVu Sans Mono&quot;, &quot;Liberation Mono&quot;, &quot;Roboto Mono&quot;, &quot;Noto Sans Mono&quot;, monospace" data-entviz-version="v15" data-entviz-lib="0.15.0" data-input-bytes="34" data-cols="3" data-rows="3" data-encoding="base58" data-scheme="xrp" data-role="address" data-size-basis="decoded" data-entropy-type="xrp" data-size-bits="192" data-qualifiers="{}" data-parts="[{&quot;text&quot;:&quot;r&quot;,&quot;bind&quot;:&quot;none&quot;},{&quot;text&quot;:&quot;Eb8TK3gBgk5auZkwc6sHnwrGVJH8DuaLh&quot;,&quot;bind&quot;:&quot;core&quot;}]"><defs><clipPath id="grid-clip-8ca076ef4cefb402-3x3"><rect x="28" y="27" width="180" height="120"/></clipPath></defs><rect x="1" y="1" width="213" height="152" fill="#ffffff"/><g data-channel="grid"><rect x="28" y="27" width="180" height="120" fill="#2f3fbf"/><g><path fill="#ff3f2f" d="M34 27h6v10h-6zM40 27h6v10h-6zM52 27h6v10h-6zM58 27h6v10h-6zM64 27h6v10h-6zM76 57h6v10h-6zM64 57h6v10h-6zM46 57h6v10h-6zM40 57h6v10h-6zM28 37h6v10h-6z"/><path fill="#ff3f2f" d="M88 27h6v10h-6zM94 27h6v10h-6zM100 27h6v10h-6zM106 27h6v10h-6zM118 27h6v10h-6zM124 27h6v10h-6zM130 27h6v10h-6zM142 37h6v10h-6zM142 47h6v10h-6zM130 57h6v10h-6zM118 57h6v10h-6zM112 57h6v10h-6zM106 57h6v10h-6zM100 57h6v10h-6zM88 57h6v10h-6zM88 47h6v10h-6zM88 37h6v10h-6z"/><path fill="#e7be00" d="M148 27h6v10h-6zM160 27h6v10h-6zM184 27h6v10h-6zM190 27h6v10h-6zM202 27h6v10h-6zM166 57h6v10h-6zM154 57h6v10h-6zM148 57h6v10h-6zM148 37h6v10h-6z"/><path fill="#ff3f2f" d="M34 67h6v10h-6zM46 67h6v10h-6zM52 67h6v10h-6zM58 67h6v10h-6zM64 67h6v10h-6zM70 67h6v10h-6zM82 87h6v10h-6zM82 97h6v10h-6zM76 97h6v10h-6zM58 97h6v10h-6zM52 97h6v10h-6zM46 97h6v10h-6zM40 97h6v10h-6zM28 77h6v10h-6z"/><path fill="#ff3f2f" d="M118 67h6v10h-6zM136 67h6v10h-6zM142 87h6v10h-6zM142 97h6v10h-6zM118 97h6v10h-6zM112 97h6v10h-6zM106 97h6v10h-6zM94 97h6v10h-6zM88 97h6v10h-6z"/><path fill="#ff3f2f" d="M148 67h6v10h-6zM154 67h6v10h-6zM160 67h6v10h-6zM166 67h6v10h-6zM178 67h6v10h-6zM184 67h6v10h-6zM196 67h6v10h-6zM202 97h6v10h-6zM178 97h6v10h-6zM148 97h6v10h-6zM148 87h6v10h-6z"/><path fill="#000000" d="M28 107h6v10h-6zM34 107h6v10h-6zM64 107h6v10h-6zM70 107h6v10h-6zM76 107h6v10h-6zM82 127h6v10h-6zM76 137h6v10h-6zM70 137h6v10h-6zM64 137h6v10h-6zM58 137h6v10h-6zM46 137h6v10h-6zM34 137h6v10h-6zM28 127h6v10h-6zM28 117h6v10h-6z"/><path fill="#000000" d="M94 107h6v10h-6zM100 107h6v10h-6zM106 107h6v10h-6zM112 107h6v10h-6zM130 107h6v10h-6zM142 107h6v10h-6zM142 127h6v10h-6zM142 137h6v10h-6zM124 137h6v10h-6zM118 137h6v10h-6zM100 137h6v10h-6zM94 137h6v10h-6zM88 137h6v10h-6z"/><path fill="#ff3f2f" d="M154 107h6v10h-6zM160 107h6v10h-6zM166 107h6v10h-6zM172 107h6v10h-6zM190 107h6v10h-6zM196 107h6v10h-6zM190 137h6v10h-6zM184 137h6v10h-6zM178 137h6v10h-6zM160 137h6v10h-6zM148 137h6v10h-6zM148 117h6v10h-6z"/></g><g clip-path="url(#grid-clip-8ca076ef4cefb402-3x3)" data-channel="ellipse" data-ellipse-anchor-x="88" data-ellipse-anchor-y="147" data-ellipse-rx="69.919" data-ellipse-ry="49.554" data-ellipse-rotation-deg="180"><ellipse cx="88" cy="147" rx="69.919" ry="49.554" transform="rotate(180 88 147)" fill="#ffffff" stroke="#ffffff" fill-opacity="0.35" stroke-opacity="0.45" stroke-width="2"/></g><g><g data-channel="cell" data-cell-index="0" data-cell-row="0" data-cell-col="0" data-surround-bits="0x8ca076" data-edge-color="#ff3f2f" data-cell-quartile="1"><rect x="34" y="37" width="48" height="20" fill="#da2136"/><text x="58" y="47" fill="#ffffff" font-size="16" text-anchor="middle" dominant-baseline="central">Eb8T</text><polygon points="34,37 44,37 34,47" fill="#ffffff"/></g><g data-channel="cell" data-cell-index="1" data-cell-row="0" data-cell-col="1" data-surround-bits="0xef4cef" data-edge-color="#ff3f2f"><rect x="94" y="37" width="48" height="20" fill="#ca2948"/><text x="118" y="47" fill="#ffffff" font-size="16" text-anchor="middle" dominant-baseline="central">K3gB</text></g><g data-channel="cell" data-cell-index="2" data-cell-row="0" data-cell-col="2" data-surround-bits="0xb402c5" data-edge-color="#e7be00" data-cell-quartile="2"><rect x="154" y="37" width="48" height="20" fill="#21b19e"/><text x="178" y="47" fill="#000000" font-size="16" text-anchor="middle" dominant-baseline="central">gk5a</text><polygon points="202,37 192,37 202,47" fill="#000000"/></g><g data-channel="cell" data-cell-index="3" data-cell-row="1" data-cell-col="0" data-surround-bits="0x8f38fa" data-edge-color="#ff3f2f"><rect x="34" y="77" width="48" height="20" fill="#f60ad2"/><text x="58" y="87" fill="#000000" font-size="16" text-anchor="middle" dominant-baseline="central">uZkw</text></g><g data-channel="cell" data-cell-index="4" data-cell-row="1" data-cell-col="1" data-surround-bits="0x371920" data-edge-color="#ff3f2f" data-cell-quartile="3"><rect x="94" y="77" width="48" height="20" fill="#905c8c"/><text x="118" y="87" fill="#ffffff" font-size="16" text-anchor="middle" dominant-baseline="central">c6sH</text><polygon points="142,97 142,87 132,97" fill="#ffffff"/></g><g data-channel="cell" data-cell-index="5" data-cell-row="1" data-cell-col="2" data-surround-bits="0x61116f" data-edge-color="#ff3f2f"><rect x="154" y="77" width="48" height="20" fill="#4f6cb7"/><text x="178" y="87" fill="#ffffff" font-size="16" text-anchor="middle" dominant-baseline="central">nwrG</text></g><g data-channel="cell" data-cell-index="6" data-cell-row="2" data-cell-col="0" data-surround-bits="0xd5e9c3" data-edge-color="#000000"><rect x="34" y="117" width="48" height="20" fill="#071471"/><text x="58" y="127" fill="#ffffff" font-size="16" text-anchor="middle" dominant-baseline="central">VJH8</text></g><g data-channel="cell" data-cell-index="7" data-cell-row="2" data-cell-col="1" data-surround-bits="0x399a9e" data-edge-color="#000000"><rect x="94" y="117" width="48" height="20" fill="#534833"/><text x="118" y="127" fill="#ffffff" font-size="16" text-anchor="middle" dominant-baseline="central">DuaL</text></g><g data-channel="cell" data-cell-index="8" data-cell-row="2" data-cell-col="2" data-surround-bits="0xa9c19e" data-edge-color="#ff3f2f"><rect x="154" y="117" width="48" height="20" fill="#288aa2"/><text x="178" y="127" fill="#ffffff" font-size="16" text-anchor="middle" dominant-baseline="central">h</text></g></g></g><g data-channel="color-bar" data-bar-slots="12" data-bar-marker-left="6" data-bar-marker-right="8"><g data-color-bar-rank="0" data-color-bar-band="W"><rect x="2" y="2" width="20" height="41.7" fill="#ffffff"/><text x="12" y="40.18" fill="#000000" font-size="16" text-anchor="middle" data-color-bar-letter="true">w</text></g><g data-color-bar-rank="1" data-color-bar-band="K"><rect x="2" y="43.7" width="20" height="62.053" fill="#000000"/><text x="12" y="102.232" fill="#ffffff" font-size="16" text-anchor="middle" data-color-bar-letter="true">k</text></g><g data-color-bar-rank="2" data-color-bar-band="R"><rect x="2" y="105.752" width="20" height="28.652" fill="#ff3f2f"/><text x="12" y="130.884" fill="#000000" font-size="16" text-anchor="middle" data-color-bar-letter="true">r</text></g><g data-color-bar-rank="3" data-color-bar-band="G"><rect x="2" y="134.404" width="20" height="17.596" fill="#e7be00"/><text x="12" y="148.48" fill="#000000" font-size="16" text-anchor="middle" data-color-bar-letter="true">g</text></g><circle cx="6.6" cy="83.25" r="3.4" fill="#ffffff" stroke="#000000" stroke-width="0.75" data-bar-marker="left"/><circle cx="17.4" cy="108.25" r="3.4" fill="#ffffff" stroke="#000000" stroke-width="0.75" data-bar-marker="right"/></g><g data-channel="label-top"><text x="28" y="17" fill="#666666" font-size="12" dominant-baseline="central">XRP, r</text></g><line x1="1" y1="1.5" x2="214" y2="1.5" stroke="#808080" stroke-width="1" shape-rendering="crispEdges"/><line x1="213.5" y1="1" x2="213.5" y2="153" stroke="#808080" stroke-width="1" shape-rendering="crispEdges"/><line x1="1" y1="152.5" x2="214" y2="152.5" stroke="#808080" stroke-width="1" shape-rendering="crispEdges"/><line x1="1.5" y1="1" x2="1.5" y2="153" stroke="#808080" stroke-width="1" shape-rendering="crispEdges"/><line x1="22.5" y1="1" x2="22.5" y2="153" stroke="#808080" stroke-width="1" shape-rendering="crispEdges"/></svg>