<svg width="215" height="194" viewBox="0 0 215 194" xmlns="http://www.w3.org/2000/svg" font-family="&quot;JetBrains Mono&quot;, &quot;Menlo&quot;, &quot;Consolas&quot;, &quot;DejaVu Sans Mono&quot;, &quot;Liberation Mono&quot;, &quot;Roboto Mono&quot;, &quot;Noto Sans Mono&quot;, monospace" data-entviz-version="v15" data-entviz-lib="0.15.2" data-input-bytes="42" data-cols="3" data-rows="4" data-encoding="bech32" data-scheme="btc" data-role="address" data-size-basis="decoded" data-entropy-type="btc" data-size-bits="192" data-qualifiers="{&quot;network&quot;:&quot;mainnet&quot;,&quot;variant&quot;:&quot;segwit&quot;}" data-parts="[{&quot;text&quot;:&quot;bc1&quot;,&quot;bind&quot;:&quot;none&quot;},{&quot;text&quot;:&quot;qw508d6qejxtdg4y5r3zarvary0c5xw7kv8f3t4&quot;,&quot;bind&quot;:&quot;core&quot;}]"><defs><clipPath id="grid-clip-fe25eb8a2ab1916a-3x4"><rect x="28" y="27" width="180" height="160"/></clipPath></defs><rect x="1" y="1" width="213" height="192" fill="#ffffff"/><g data-channel="grid"><rect x="28" y="27" width="180" height="160" fill="#ff3f2f"/><g><path fill="#000000" d="M28 27h6v10h-6zM34 27h6v10h-6zM46 27h6v10h-6zM58 27h6v10h-6zM64 27h6v10h-6zM70 27h6v10h-6zM76 27h6v10h-6zM82 37h6v10h-6zM76 57h6v10h-6zM52 57h6v10h-6zM46 57h6v10h-6zM40 57h6v10h-6zM34 57h6v10h-6zM28 57h6v10h-6zM28 47h6v10h-6zM28 37h6v10h-6z"/><path fill="#000000" d="M88 27h6v10h-6zM112 27h6v10h-6zM118 27h6v10h-6zM130 27h6v10h-6zM142 27h6v10h-6zM142 47h6v10h-6zM136 57h6v10h-6zM112 57h6v10h-6zM100 57h6v10h-6zM88 37h6v10h-6z"/><path fill="#ffffff" d="M160 27h6v10h-6zM184 27h6v10h-6zM202 27h6v10h-6zM202 47h6v10h-6zM196 57h6v10h-6zM190 57h6v10h-6zM178 57h6v10h-6zM154 57h6v10h-6zM148 37h6v10h-6z"/><path fill="#2f3fbf" d="M94 67h6v10h-6zM100 67h6v10h-6zM106 67h6v10h-6zM124 67h6v10h-6zM142 67h6v10h-6zM142 97h6v10h-6zM124 97h6v10h-6zM88 97h6v10h-6zM88 87h6v10h-6z"/><path fill="#2f3fbf" d="M148 67h6v10h-6zM154 67h6v10h-6zM178 67h6v10h-6zM196 67h6v10h-6zM202 87h6v10h-6zM202 97h6v10h-6zM196 97h6v10h-6zM178 97h6v10h-6zM172 97h6v10h-6zM166 97h6v10h-6zM154 97h6v10h-6zM148 87h6v10h-6zM148 77h6v10h-6z"/><path fill="#ffffff" d="M94 107h6v10h-6zM112 107h6v10h-6zM118 107h6v10h-6zM124 107h6v10h-6zM130 107h6v10h-6zM142 127h6v10h-6zM142 137h6v10h-6zM136 137h6v10h-6zM118 137h6v10h-6zM112 137h6v10h-6zM106 137h6v10h-6zM88 137h6v10h-6zM88 117h6v10h-6z"/><path fill="#000000" d="M148 107h6v10h-6zM154 107h6v10h-6zM160 107h6v10h-6zM166 107h6v10h-6zM202 127h6v10h-6zM190 137h6v10h-6zM178 137h6v10h-6zM154 137h6v10h-6z"/><path fill="#ffffff" d="M28 147h6v10h-6zM58 147h6v10h-6zM64 147h6v10h-6zM70 147h6v10h-6zM82 147h6v10h-6zM82 157h6v10h-6zM82 167h6v10h-6zM58 177h6v10h-6zM40 177h6v10h-6zM34 177h6v10h-6z"/><path fill="#2f3fbf" d="M88 147h6v10h-6zM94 147h6v10h-6zM106 147h6v10h-6zM118 147h6v10h-6zM124 147h6v10h-6zM142 147h6v10h-6zM130 177h6v10h-6zM124 177h6v10h-6zM118 177h6v10h-6zM106 177h6v10h-6zM100 177h6v10h-6zM94 177h6v10h-6zM88 177h6v10h-6zM88 167h6v10h-6zM88 157h6v10h-6z"/><path fill="#ffffff" d="M148 147h6v10h-6zM160 147h6v10h-6zM196 147h6v10h-6zM202 147h6v10h-6zM190 177h6v10h-6zM184 177h6v10h-6zM166 177h6v10h-6zM154 177h6v10h-6zM148 177h6v10h-6z"/></g><g clip-path="url(#grid-clip-fe25eb8a2ab1916a-3x4)" data-channel="ellipse" data-ellipse-anchor-x="148" data-ellipse-anchor-y="67" data-ellipse-rx="94.356" data-ellipse-ry="57.7" data-ellipse-rotation-deg="24"><ellipse cx="148" cy="67" rx="94.356" ry="57.7" transform="rotate(24 148 67)" fill="#000000" stroke="#000000" fill-opacity="0.25" stroke-opacity="0.35" stroke-width="2"/></g><g><g data-channel="cell" data-cell-index="0" data-cell-row="0" data-cell-col="0" data-surround-bits="0xfe25eb" data-edge-color="#000000"><rect x="34" y="37" width="48" height="20" fill="#ffa803"/><text x="58" y="47" fill="#000000" font-size="16" text-anchor="middle" dominant-baseline="central">qw50</text></g><g data-channel="cell" data-cell-index="1" data-cell-row="0" data-cell-col="1" data-surround-bits="0x8a2ab1" data-edge-color="#000000"><rect x="94" y="37" width="48" height="20" fill="#00743b"/><text x="118" y="47" fill="#ffffff" font-size="16" text-anchor="middle" dominant-baseline="central">8d6q</text></g><g data-channel="cell" data-cell-index="2" data-cell-row="0" data-cell-col="2" data-surround-bits="0x916a44" data-edge-color="#ffffff" data-cell-quartile="1"><rect x="154" y="37" width="48" height="20" fill="#bb8ccc"/><text x="178" y="47" fill="#000000" font-size="16" text-anchor="middle" dominant-baseline="central">ejxt</text><polygon points="154,37 164,37 154,47" fill="#000000"/></g><g data-channel="cell" data-cell-index="3" data-cell-row="1" data-cell-col="0" data-cell-blank="true" data-cell-blank-map="true"><rect x="34" y="77" width="48" height="20" rx="10" ry="10" fill="#ffffff" stroke="#000000" stroke-width="1"/><circle cx="74" cy="89.5" r="3.5" fill="#1d4ed8" data-blank-map-min="2,2"/><path d="M 37.8,79.5 H 46.2 M 42,75.3 V 83.7" fill="none" stroke="#d62828" stroke-width="1.925" stroke-linecap="butt" data-blank-map-max="0,0"/></g><g data-channel="cell" data-cell-index="4" data-cell-row="1" data-cell-col="1" data-surround-bits="0x60924e" data-edge-color="#2f3fbf"><rect x="94" y="77" width="48" height="20" fill="#442a6a"/><text x="118" y="87" fill="#ffffff" font-size="16" text-anchor="middle" dominant-baseline="central">dg4y</text></g><g data-channel="cell" data-cell-index="5" data-cell-row="1" data-cell-col="2" data-surround-bits="0xd73923" data-edge-color="#2f3fbf"><rect x="154" y="77" width="48" height="20" fill="#22e2a0"/><text x="178" y="87" fill="#000000" font-size="16" text-anchor="middle" dominant-baseline="central">5r3z</text></g><g data-channel="cell" data-cell-index="6" data-cell-row="2" data-cell-col="0" data-cell-blank="true"><rect x="34" y="117" width="48" height="20" rx="10" ry="10" fill="#e7be00" stroke="#000000" stroke-width="1"/></g><g data-channel="cell" data-cell-index="7" data-cell-row="2" data-cell-col="1" data-surround-bits="0xa738f2" data-edge-color="#ffffff" data-cell-quartile="4"><rect x="94" y="117" width="48" height="20" fill="#ddd9e8"/><text x="118" y="127" fill="#000000" font-size="16" text-anchor="middle" dominant-baseline="central">arva</text><polygon points="94,137 94,127 104,137" fill="#000000"/></g><g data-channel="cell" data-cell-index="8" data-cell-row="2" data-cell-col="2" data-surround-bits="0x11480f" data-edge-color="#000000" data-cell-quartile="2"><rect x="154" y="117" width="48" height="20" fill="#881f19"/><text x="178" y="127" fill="#ffffff" font-size="16" text-anchor="middle" dominant-baseline="central">ry0c</text><polygon points="202,117 192,117 202,127" fill="#ffffff"/></g><g data-channel="cell" data-cell-index="9" data-cell-row="3" data-cell-col="0" data-surround-bits="0x190ee1" data-edge-color="#ffffff"><rect x="34" y="157" width="48" height="20" fill="#ee9da1"/><text x="58" y="167" fill="#000000" font-size="16" text-anchor="middle" dominant-baseline="central">5xw7</text></g><g data-channel="cell" data-cell-index="10" data-cell-row="3" data-cell-col="1" data-surround-bits="0xfdc26b" data-edge-color="#2f3fbf" data-cell-quartile="3"><rect x="94" y="157" width="48" height="20" fill="#990eb3"/><text x="118" y="167" fill="#ffffff" font-size="16" text-anchor="middle" dominant-baseline="central">kv8f</text><polygon points="142,177 142,167 132,177" fill="#ffffff"/></g><g data-channel="cell" data-cell-index="11" data-cell-row="3" data-cell-col="2" data-surround-bits="0x34c305" data-edge-color="#ffffff"><rect x="154" y="157" width="48" height="20" fill="#75eb8a"/><text x="178" y="167" fill="#000000" font-size="16" text-anchor="middle" dominant-baseline="central">3t4</text></g></g></g><g data-channel="color-bar" data-bar-slots="15" data-bar-marker-left="5" data-bar-marker-right="11"><g data-color-bar-rank="0" data-color-bar-band="B"><rect x="2" y="2" width="20" height="55.811" fill="#2f3fbf"/><text x="12" y="54.291" fill="#ffffff" font-size="16" text-anchor="middle" data-color-bar-letter="true">b</text></g><g data-color-bar-rank="1" data-color-bar-band="K"><rect x="2" y="57.811" width="20" height="31.342" fill="#000000"/><text x="12" y="85.633" fill="#ffffff" font-size="16" text-anchor="middle" data-color-bar-letter="true">k</text></g><g data-color-bar-rank="2" data-color-bar-band="G"><rect x="2" y="89.153" width="20" height="43.629" fill="#e7be00"/><text x="12" y="129.262" fill="#000000" font-size="16" text-anchor="middle" data-color-bar-letter="true">g</text></g><g data-color-bar-rank="3" data-color-bar-band="W"><rect x="2" y="132.782" width="20" height="59.218" fill="#ffffff"/><text x="12" y="188.48" fill="#000000" font-size="16" text-anchor="middle" data-color-bar-letter="true">w</text></g><circle cx="6.6" cy="71.667" r="3.4" fill="#ffffff" stroke="#000000" stroke-width="0.75" data-bar-marker="left"/><circle cx="17.4" cy="147.667" r="3.4" fill="#ffffff" stroke="#000000" stroke-width="0.75" data-bar-marker="right"/></g><g data-channel="label-top"><text x="28" y="17" fill="#666666" font-size="12" dominant-baseline="central">BTC, bc1</text></g><line x1="1" y1="1.5" x2="214" y2="1.5" stroke="#808080" stroke-width="1" shape-rendering="crispEdges"/><line x1="213.5" y1="1" x2="213.5" y2="193" stroke="#808080" stroke-width="1" shape-rendering="crispEdges"/><line x1="1" y1="192.5" x2="214" y2="192.5" stroke="#808080" stroke-width="1" shape-rendering="crispEdges"/><line x1="1.5" y1="1" x2="1.5" y2="193" stroke="#808080" stroke-width="1" shape-rendering="crispEdges"/><line x1="22.5" y1="1" x2="22.5" y2="193" stroke="#808080" stroke-width="1" shape-rendering="crispEdges"/></svg>