<svg width="203.0" height="197.0" viewBox="0 0 203.0 197.0" xmlns="http://www.w3.org/2000/svg" data-entviz-version="v5" data-input-bytes="54" data-cols="3" data-rows="4"><defs><clipPath id="grid-clip-424139f2c5617ae2-3x4"><rect x="17.0" y="31.0" width="180.0" height="160.0"/></clipPath></defs><rect x="0" y="0" width="203.0" height="197.0" fill="#ffffff"/><g data-channel="grid"><rect x="17.0" y="31.0" width="180.0" height="160.0" fill="#ffd966"/><g><rect x="17.0" y="31.0" width="6.0" height="10.0" fill="#ff3f2f"/><rect x="35.0" y="31.0" width="6.0" height="10.0" fill="#ff3f2f"/><rect x="41.0" y="31.0" width="6.0" height="10.0" fill="#ff3f2f"/><rect x="47.0" y="31.0" width="6.0" height="10.0" fill="#ff3f2f"/><rect x="65.0" y="31.0" width="6.0" height="10.0" fill="#ff3f2f"/><rect x="59.0" y="61.0" width="6.0" height="10.0" fill="#ff3f2f"/><rect x="41.0" y="61.0" width="6.0" height="10.0" fill="#ff3f2f"/><rect x="17.0" y="51.0" width="6.0" height="10.0" fill="#ff3f2f"/><rect x="77.0" y="31.0" width="6.0" height="10.0" fill="#000000"/><rect x="107.0" y="31.0" width="6.0" height="10.0" fill="#000000"/><rect x="113.0" y="31.0" width="6.0" height="10.0" fill="#000000"/><rect x="125.0" y="31.0" width="6.0" height="10.0" fill="#000000"/><rect x="131.0" y="41.0" width="6.0" height="10.0" fill="#000000"/><rect x="119.0" y="61.0" width="6.0" height="10.0" fill="#000000"/><rect x="113.0" y="61.0" width="6.0" height="10.0" fill="#000000"/><rect x="101.0" y="61.0" width="6.0" height="10.0" fill="#000000"/><rect x="83.0" y="61.0" width="6.0" height="10.0" fill="#000000"/><rect x="77.0" y="61.0" width="6.0" height="10.0" fill="#000000"/><rect x="77.0" y="51.0" width="6.0" height="10.0" fill="#000000"/><rect x="77.0" y="41.0" width="6.0" height="10.0" fill="#000000"/><rect x="143.0" y="31.0" width="6.0" height="10.0" fill="#ffffff"/><rect x="191.0" y="31.0" width="6.0" height="10.0" fill="#ffffff"/><rect x="185.0" y="61.0" width="6.0" height="10.0" fill="#ffffff"/><rect x="179.0" y="61.0" width="6.0" height="10.0" fill="#ffffff"/><rect x="173.0" y="61.0" width="6.0" height="10.0" fill="#ffffff"/><rect x="161.0" y="61.0" width="6.0" height="10.0" fill="#ffffff"/><rect x="149.0" y="61.0" width="6.0" height="10.0" fill="#ffffff"/><rect x="143.0" y="61.0" width="6.0" height="10.0" fill="#ffffff"/><rect x="137.0" y="61.0" width="6.0" height="10.0" fill="#ffffff"/><rect x="137.0" y="51.0" width="6.0" height="10.0" fill="#ffffff"/><rect x="17.0" y="71.0" width="6.0" height="10.0" fill="#ffffff"/><rect x="41.0" y="71.0" width="6.0" height="10.0" fill="#ffffff"/><rect x="59.0" y="71.0" width="6.0" height="10.0" fill="#ffffff"/><rect x="65.0" y="71.0" width="6.0" height="10.0" fill="#ffffff"/><rect x="71.0" y="71.0" width="6.0" height="10.0" fill="#ffffff"/><rect x="71.0" y="81.0" width="6.0" height="10.0" fill="#ffffff"/><rect x="59.0" y="101.0" width="6.0" height="10.0" fill="#ffffff"/><rect x="17.0" y="101.0" width="6.0" height="10.0" fill="#ffffff"/><rect x="17.0" y="81.0" width="6.0" height="10.0" fill="#ffffff"/><rect x="83.0" y="71.0" width="6.0" height="10.0" fill="#ff3f2f"/><rect x="89.0" y="71.0" width="6.0" height="10.0" fill="#ff3f2f"/><rect x="113.0" y="71.0" width="6.0" height="10.0" fill="#ff3f2f"/><rect x="119.0" y="71.0" width="6.0" height="10.0" fill="#ff3f2f"/><rect x="131.0" y="81.0" width="6.0" height="10.0" fill="#ff3f2f"/><rect x="131.0" y="91.0" width="6.0" height="10.0" fill="#ff3f2f"/><rect x="125.0" y="101.0" width="6.0" height="10.0" fill="#ff3f2f"/><rect x="107.0" y="101.0" width="6.0" height="10.0" fill="#ff3f2f"/><rect x="101.0" y="101.0" width="6.0" height="10.0" fill="#ff3f2f"/><rect x="83.0" y="101.0" width="6.0" height="10.0" fill="#ff3f2f"/><rect x="77.0" y="101.0" width="6.0" height="10.0" fill="#ff3f2f"/><rect x="77.0" y="91.0" width="6.0" height="10.0" fill="#ff3f2f"/><rect x="17.0" y="111.0" width="6.0" height="10.0" fill="#2f3fbf"/><rect x="29.0" y="111.0" width="6.0" height="10.0" fill="#2f3fbf"/><rect x="35.0" y="111.0" width="6.0" height="10.0" fill="#2f3fbf"/><rect x="41.0" y="111.0" width="6.0" height="10.0" fill="#2f3fbf"/><rect x="59.0" y="111.0" width="6.0" height="10.0" fill="#2f3fbf"/><rect x="71.0" y="121.0" width="6.0" height="10.0" fill="#2f3fbf"/><rect x="71.0" y="141.0" width="6.0" height="10.0" fill="#2f3fbf"/><rect x="65.0" y="141.0" width="6.0" height="10.0" fill="#2f3fbf"/><rect x="53.0" y="141.0" width="6.0" height="10.0" fill="#2f3fbf"/><rect x="35.0" y="141.0" width="6.0" height="10.0" fill="#2f3fbf"/><rect x="17.0" y="131.0" width="6.0" height="10.0" fill="#2f3fbf"/><rect x="83.0" y="111.0" width="6.0" height="10.0" fill="#ffffff"/><rect x="113.0" y="111.0" width="6.0" height="10.0" fill="#ffffff"/><rect x="119.0" y="111.0" width="6.0" height="10.0" fill="#ffffff"/><rect x="125.0" y="111.0" width="6.0" height="10.0" fill="#ffffff"/><rect x="131.0" y="111.0" width="6.0" height="10.0" fill="#ffffff"/><rect x="107.0" y="141.0" width="6.0" height="10.0" fill="#ffffff"/><rect x="101.0" y="141.0" width="6.0" height="10.0" fill="#ffffff"/><rect x="89.0" y="141.0" width="6.0" height="10.0" fill="#ffffff"/><rect x="83.0" y="141.0" width="6.0" height="10.0" fill="#ffffff"/><rect x="77.0" y="141.0" width="6.0" height="10.0" fill="#ffffff"/><rect x="77.0" y="131.0" width="6.0" height="10.0" fill="#ffffff"/><rect x="137.0" y="111.0" width="6.0" height="10.0" fill="#2f3fbf"/><rect x="149.0" y="111.0" width="6.0" height="10.0" fill="#2f3fbf"/><rect x="173.0" y="111.0" width="6.0" height="10.0" fill="#2f3fbf"/><rect x="185.0" y="111.0" width="6.0" height="10.0" fill="#2f3fbf"/><rect x="191.0" y="121.0" width="6.0" height="10.0" fill="#2f3fbf"/><rect x="191.0" y="131.0" width="6.0" height="10.0" fill="#2f3fbf"/><rect x="185.0" y="141.0" width="6.0" height="10.0" fill="#2f3fbf"/><rect x="149.0" y="141.0" width="6.0" height="10.0" fill="#2f3fbf"/><rect x="143.0" y="141.0" width="6.0" height="10.0" fill="#2f3fbf"/><rect x="137.0" y="141.0" width="6.0" height="10.0" fill="#2f3fbf"/><rect x="137.0" y="131.0" width="6.0" height="10.0" fill="#2f3fbf"/><rect x="137.0" y="121.0" width="6.0" height="10.0" fill="#2f3fbf"/><rect x="17.0" y="151.0" width="6.0" height="10.0" fill="#ff3f2f"/><rect x="59.0" y="151.0" width="6.0" height="10.0" fill="#ff3f2f"/><rect x="71.0" y="151.0" width="6.0" height="10.0" fill="#ff3f2f"/><rect x="71.0" y="161.0" width="6.0" height="10.0" fill="#ff3f2f"/><rect x="71.0" y="181.0" width="6.0" height="10.0" fill="#ff3f2f"/><rect x="59.0" y="181.0" width="6.0" height="10.0" fill="#ff3f2f"/><rect x="53.0" y="181.0" width="6.0" height="10.0" fill="#ff3f2f"/><rect x="41.0" y="181.0" width="6.0" height="10.0" fill="#ff3f2f"/><rect x="17.0" y="181.0" width="6.0" height="10.0" fill="#ff3f2f"/><rect x="17.0" y="171.0" width="6.0" height="10.0" fill="#ff3f2f"/><rect x="17.0" y="161.0" width="6.0" height="10.0" fill="#ff3f2f"/><rect x="83.0" y="151.0" width="6.0" height="10.0" fill="#000000"/><rect x="89.0" y="151.0" width="6.0" height="10.0" fill="#000000"/><rect x="125.0" y="151.0" width="6.0" height="10.0" fill="#000000"/><rect x="131.0" y="151.0" width="6.0" height="10.0" fill="#000000"/><rect x="131.0" y="161.0" width="6.0" height="10.0" fill="#000000"/><rect x="131.0" y="171.0" width="6.0" height="10.0" fill="#000000"/><rect x="125.0" y="181.0" width="6.0" height="10.0" fill="#000000"/><rect x="113.0" y="181.0" width="6.0" height="10.0" fill="#000000"/><rect x="107.0" y="181.0" width="6.0" height="10.0" fill="#000000"/><rect x="101.0" y="181.0" width="6.0" height="10.0" fill="#000000"/><rect x="95.0" y="181.0" width="6.0" height="10.0" fill="#000000"/><rect x="89.0" y="181.0" width="6.0" height="10.0" fill="#000000"/><rect x="83.0" y="181.0" width="6.0" height="10.0" fill="#000000"/><rect x="77.0" y="171.0" width="6.0" height="10.0" fill="#000000"/><rect x="137.0" y="151.0" width="6.0" height="10.0" fill="#2f3fbf"/><rect x="155.0" y="151.0" width="6.0" height="10.0" fill="#2f3fbf"/><rect x="161.0" y="151.0" width="6.0" height="10.0" fill="#2f3fbf"/><rect x="167.0" y="151.0" width="6.0" height="10.0" fill="#2f3fbf"/><rect x="173.0" y="151.0" width="6.0" height="10.0" fill="#2f3fbf"/><rect x="191.0" y="151.0" width="6.0" height="10.0" fill="#2f3fbf"/><rect x="191.0" y="171.0" width="6.0" height="10.0" fill="#2f3fbf"/><rect x="185.0" y="181.0" width="6.0" height="10.0" fill="#2f3fbf"/><rect x="167.0" y="181.0" width="6.0" height="10.0" fill="#2f3fbf"/><rect x="155.0" y="181.0" width="6.0" height="10.0" fill="#2f3fbf"/><rect x="149.0" y="181.0" width="6.0" height="10.0" fill="#2f3fbf"/><rect x="143.0" y="181.0" width="6.0" height="10.0" fill="#2f3fbf"/><rect x="137.0" y="171.0" width="6.0" height="10.0" fill="#2f3fbf"/><rect x="137.0" y="161.0" width="6.0" height="10.0" fill="#2f3fbf"/></g><g clip-path="url(#grid-clip-424139f2c5617ae2-3x4)" data-channel="ellipse" data-ellipse-anchor-x="77.0" data-ellipse-anchor-y="151.0" data-ellipse-rx="58.58816732927238" data-ellipse-ry="109.70562748477141" data-ellipse-rotation-deg="24.0"><ellipse cx="77.0" cy="151.0" rx="58.58816732927238" ry="109.70562748477141" transform="rotate(24.0 77.0 151.0)" fill="#000000" fill-opacity="0.3"/></g><g><g data-channel="cell" data-cell-index="0" data-cell-row="0" data-cell-col="0" data-cell-quartile="1"><rect x="23.0" y="41.0" width="48.0" height="20.0" fill="#aa7600"/><text x="47.0" y="51.0" fill="#000000" style="font-family: &quot;DejaVu Sans Mono&quot;, &quot;Consolas&quot;, &quot;Menlo&quot;, &quot;Liberation Mono&quot;, monospace; font-size: 16.0px;" text-anchor="middle" dominant-baseline="central">qpm2</text><polygon points="23.0,41.0 33.0,41.0 23.0,51.0" fill="#000000"/></g><g data-channel="cell" data-cell-index="1" data-cell-row="0" data-cell-col="1"><rect x="83.0" y="41.0" width="48.0" height="20.0" fill="#330504"/><text x="107.0" y="51.0" fill="#ffffff" style="font-family: &quot;DejaVu Sans Mono&quot;, &quot;Consolas&quot;, &quot;Menlo&quot;, &quot;Liberation Mono&quot;, monospace; font-size: 16.0px;" text-anchor="middle" dominant-baseline="central">qszn</text></g><g data-channel="cell" data-cell-index="2" data-cell-row="0" data-cell-col="2" data-cell-quartile="2"><rect x="143.0" y="41.0" width="48.0" height="20.0" fill="#aaa0bd"/><text x="167.0" y="51.0" fill="#000000" style="font-family: &quot;DejaVu Sans Mono&quot;, &quot;Consolas&quot;, &quot;Menlo&quot;, &quot;Liberation Mono&quot;, monospace; font-size: 16.0px;" text-anchor="middle" dominant-baseline="central">hks2</text><polygon points="191.0,41.0 181.0,41.0 191.0,51.0" fill="#000000"/></g><g data-channel="cell" data-cell-index="3" data-cell-row="1" data-cell-col="0"><rect x="23.0" y="81.0" width="48.0" height="20.0" fill="#aabd88"/><text x="47.0" y="91.0" fill="#000000" style="font-family: &quot;DejaVu Sans Mono&quot;, &quot;Consolas&quot;, &quot;Menlo&quot;, &quot;Liberation Mono&quot;, monospace; font-size: 16.0px;" text-anchor="middle" dominant-baseline="central">3z76</text></g><g data-channel="cell" data-cell-index="4" data-cell-row="1" data-cell-col="1"><rect x="83.0" y="81.0" width="48.0" height="20.0" fill="#bb7751"/><text x="107.0" y="91.0" fill="#000000" style="font-family: &quot;DejaVu Sans Mono&quot;, &quot;Consolas&quot;, &quot;Menlo&quot;, &quot;Liberation Mono&quot;, monospace; font-size: 16.0px;" text-anchor="middle" dominant-baseline="central">29mm</text></g><g data-channel="cell" data-cell-index="5" data-cell-row="1" data-cell-col="2" data-cell-blank="true" data-cell-blank-marker="true"><circle cx="167.0" cy="91.0" r="17.0" fill="#ffffff" stroke="#000000" stroke-width="1"/><line x1="167.0" y1="91.0" x2="167.0" y2="109.0" stroke="#ffffff" style="mix-blend-mode: difference" stroke-width="1"/><line x1="167.0" y1="91.0" x2="158.93619196657062" y2="88.31206398885688" stroke="#000000" stroke-width="1"/><circle cx="158.93619196657062" cy="88.31206398885688" r="1.5" fill="#ffffff" stroke="#000000" stroke-width="1"/></g><g data-channel="cell" data-cell-index="6" data-cell-row="2" data-cell-col="0" data-cell-quartile="4"><rect x="23.0" y="121.0" width="48.0" height="20.0" fill="#55a186"/><text x="47.0" y="131.0" fill="#000000" style="font-family: &quot;DejaVu Sans Mono&quot;, &quot;Consolas&quot;, &quot;Menlo&quot;, &quot;Liberation Mono&quot;, monospace; font-size: 16.0px;" text-anchor="middle" dominant-baseline="central">s6s4</text><polygon points="23.0,141.0 23.0,131.0 33.0,141.0" fill="#000000"/></g><g data-channel="cell" data-cell-index="7" data-cell-row="2" data-cell-col="1"><rect x="83.0" y="121.0" width="48.0" height="20.0" fill="#99b2c3"/><text x="107.0" y="131.0" fill="#000000" style="font-family: &quot;DejaVu Sans Mono&quot;, &quot;Consolas&quot;, &quot;Menlo&quot;, &quot;Liberation Mono&quot;, monospace; font-size: 16.0px;" text-anchor="middle" dominant-baseline="central">cwef</text></g><g data-channel="cell" data-cell-index="8" data-cell-row="2" data-cell-col="2"><rect x="143.0" y="121.0" width="48.0" height="20.0" fill="#8859f5"/><text x="167.0" y="131.0" fill="#ffffff" style="font-family: &quot;DejaVu Sans Mono&quot;, &quot;Consolas&quot;, &quot;Menlo&quot;, &quot;Liberation Mono&quot;, monospace; font-size: 16.0px;" text-anchor="middle" dominant-baseline="central">74vc</text></g><g data-channel="cell" data-cell-index="9" data-cell-row="3" data-cell-col="0"><rect x="23.0" y="161.0" width="48.0" height="20.0" fill="#aa0873"/><text x="47.0" y="171.0" fill="#ffffff" style="font-family: &quot;DejaVu Sans Mono&quot;, &quot;Consolas&quot;, &quot;Menlo&quot;, &quot;Liberation Mono&quot;, monospace; font-size: 16.0px;" text-anchor="middle" dominant-baseline="central">wvy2</text></g><g data-channel="cell" data-cell-index="10" data-cell-row="3" data-cell-col="1" data-cell-quartile="3"><rect x="83.0" y="161.0" width="48.0" height="20.0" fill="#661a52"/><text x="107.0" y="171.0" fill="#ffffff" style="font-family: &quot;DejaVu Sans Mono&quot;, &quot;Consolas&quot;, &quot;Menlo&quot;, &quot;Liberation Mono&quot;, monospace; font-size: 16.0px;" text-anchor="middle" dominant-baseline="central">2gdx</text><polygon points="131.0,181.0 131.0,171.0 121.0,181.0" fill="#ffffff"/></g><g data-channel="cell" data-cell-index="11" data-cell-row="3" data-cell-col="2"><rect x="143.0" y="161.0" width="48.0" height="20.0" fill="#dd75d7"/><text x="167.0" y="171.0" fill="#000000" style="font-family: &quot;DejaVu Sans Mono&quot;, &quot;Consolas&quot;, &quot;Menlo&quot;, &quot;Liberation Mono&quot;, monospace; font-size: 16.0px;" text-anchor="middle" dominant-baseline="central">6a</text></g></g></g><g data-channel="color-bar"><g data-color-bar-rank="0" data-color-bar-band="W"><rect x="1" y="1" width="10.0" height="74.28876191651327" fill="#ffffff"/><text x="6.0" y="38.14438095825663" fill="#000000" style="font-family: &quot;DejaVu Sans Mono&quot;, &quot;Consolas&quot;, &quot;Menlo&quot;, &quot;Liberation Mono&quot;, monospace; font-size: 8.5px;" text-anchor="middle" dominant-baseline="central" data-color-bar-letter="true">w</text></g><g data-color-bar-rank="1" data-color-bar-band="R"><rect x="1" y="75.28876191651327" width="10.0" height="55.70476489566107" fill="#ff3f2f"/><text x="6.0" y="103.1411443643438" fill="#000000" style="font-family: &quot;DejaVu Sans Mono&quot;, &quot;Consolas&quot;, &quot;Menlo&quot;, &quot;Liberation Mono&quot;, monospace; font-size: 8.5px;" text-anchor="middle" dominant-baseline="central" data-color-bar-letter="true">r</text></g><g data-color-bar-rank="2" data-color-bar-band="K"><rect x="1" y="130.99352681217434" width="10.0" height="35.82598472054073" fill="#000000"/><text x="6.0" y="148.9065191724447" fill="#ffffff" style="font-family: &quot;DejaVu Sans Mono&quot;, &quot;Consolas&quot;, &quot;Menlo&quot;, &quot;Liberation Mono&quot;, monospace; font-size: 8.5px;" text-anchor="middle" dominant-baseline="central" data-color-bar-letter="true">k</text></g><g data-color-bar-rank="3" data-color-bar-band="B"><rect x="1" y="166.81951153271507" width="10.0" height="29.18048846728493" fill="#2f3fbf"/><text x="6.0" y="181.40975576635753" fill="#ffffff" style="font-family: &quot;DejaVu Sans Mono&quot;, &quot;Consolas&quot;, &quot;Menlo&quot;, &quot;Liberation Mono&quot;, monospace; font-size: 8.5px;" text-anchor="middle" dominant-baseline="central" data-color-bar-letter="true">b</text></g></g><g data-channel="label-top"><text x="17.0" y="16.0" fill="#666666" style="font-family: &quot;DejaVu Sans Mono&quot;, &quot;Consolas&quot;, &quot;Menlo&quot;, &quot;Liberation Mono&quot;, monospace; font-size: 12.0px;" dominant-baseline="central">BCH: bitcoincash:...</text></g><line x1="0" y1="0.5" x2="203.0" y2="0.5" stroke="#808080" stroke-width="1" shape-rendering="crispEdges"/><line x1="202.5" y1="0" x2="202.5" y2="197.0" stroke="#808080" stroke-width="1" shape-rendering="crispEdges"/><line x1="0" y1="196.5" x2="203.0" y2="196.5" stroke="#808080" stroke-width="1" shape-rendering="crispEdges"/><line x1="0.5" y1="0" x2="0.5" y2="197.0" stroke="#808080" stroke-width="1" shape-rendering="crispEdges"/><line x1="11.5" y1="0" x2="11.5" y2="197.0" stroke="#808080" stroke-width="1" shape-rendering="crispEdges"/></svg>