<svg width="275" height="194" viewBox="0 0 275 194" xmlns="http://www.w3.org/2000/svg" font-family="&quot;JetBrains Mono&quot;, &quot;Menlo&quot;, &quot;Consolas&quot;, &quot;DejaVu Sans Mono&quot;, &quot;Liberation Mono&quot;, &quot;Roboto Mono&quot;, &quot;Noto Sans Mono&quot;, monospace" data-entviz-version="v15" data-entviz-lib="0.15.1" data-input-bytes="62" data-cols="4" data-rows="4" data-encoding="bech32" data-scheme="btc" data-role="address" data-size-basis="decoded" data-entropy-type="btc" data-size-bits="288" data-qualifiers="{&quot;network&quot;:&quot;mainnet&quot;,&quot;variant&quot;:&quot;segwit&quot;}" data-parts="[{&quot;text&quot;:&quot;bc1&quot;,&quot;bind&quot;:&quot;none&quot;},{&quot;text&quot;:&quot;qrp33g0q5c5txsp9arysrx4k6zdkfs4nce4xj0gdcccefvpysxf3qccfmv3&quot;,&quot;bind&quot;:&quot;core&quot;}]"><defs><clipPath id="grid-clip-455a41c26e763acf-4x4"><rect x="28" y="27" width="240" height="160"/></clipPath></defs><rect x="1" y="1" width="273" height="192" fill="#ffffff"/><g data-channel="grid"><rect x="28" y="27" width="240" height="160" fill="#ff3f2f"/><g><path fill="#e7be00" d="M28 27h6v10h-6zM64 27h6v10h-6zM82 27h6v10h-6zM82 47h6v10h-6zM82 57h6v10h-6zM70 57h6v10h-6zM58 57h6v10h-6zM46 57h6v10h-6zM28 47h6v10h-6z"/><path fill="#2f3fbf" d="M94 27h6v10h-6zM100 27h6v10h-6zM112 27h6v10h-6zM118 27h6v10h-6zM124 27h6v10h-6zM142 27h6v10h-6zM142 37h6v10h-6zM142 47h6v10h-6zM136 57h6v10h-6zM130 57h6v10h-6zM112 57h6v10h-6zM88 47h6v10h-6zM88 37h6v10h-6z"/><path fill="#2f3fbf" d="M148 27h6v10h-6zM172 27h6v10h-6zM178 27h6v10h-6zM184 27h6v10h-6zM196 27h6v10h-6zM202 27h6v10h-6zM202 37h6v10h-6zM202 47h6v10h-6zM190 57h6v10h-6zM184 57h6v10h-6zM172 57h6v10h-6zM160 57h6v10h-6zM154 57h6v10h-6zM148 57h6v10h-6z"/><path fill="#000000" d="M208 27h6v10h-6zM214 27h6v10h-6zM220 27h6v10h-6zM238 27h6v10h-6zM244 27h6v10h-6zM262 27h6v10h-6zM262 37h6v10h-6zM262 57h6v10h-6zM256 57h6v10h-6zM244 57h6v10h-6zM226 57h6v10h-6zM208 57h6v10h-6z"/><path fill="#e7be00" d="M28 67h6v10h-6zM40 67h6v10h-6zM52 67h6v10h-6zM58 67h6v10h-6zM64 67h6v10h-6zM70 67h6v10h-6zM82 67h6v10h-6zM82 77h6v10h-6zM82 87h6v10h-6zM82 97h6v10h-6zM70 97h6v10h-6zM64 97h6v10h-6zM52 97h6v10h-6zM40 97h6v10h-6zM28 97h6v10h-6zM28 87h6v10h-6zM28 77h6v10h-6z"/><path fill="#000000" d="M88 67h6v10h-6zM94 67h6v10h-6zM106 67h6v10h-6zM112 67h6v10h-6zM118 67h6v10h-6zM130 67h6v10h-6zM136 67h6v10h-6zM136 97h6v10h-6zM106 97h6v10h-6zM94 97h6v10h-6z"/><path fill="#2f3fbf" d="M148 67h6v10h-6zM154 67h6v10h-6zM172 67h6v10h-6zM178 67h6v10h-6zM202 87h6v10h-6zM202 97h6v10h-6zM196 97h6v10h-6zM190 97h6v10h-6zM166 97h6v10h-6zM160 97h6v10h-6zM154 97h6v10h-6zM148 87h6v10h-6z"/><path fill="#000000" d="M208 67h6v10h-6zM214 67h6v10h-6zM220 67h6v10h-6zM232 67h6v10h-6zM238 67h6v10h-6zM244 67h6v10h-6zM262 77h6v10h-6zM262 97h6v10h-6zM250 97h6v10h-6zM244 97h6v10h-6zM232 97h6v10h-6zM220 97h6v10h-6zM214 97h6v10h-6zM208 97h6v10h-6zM208 87h6v10h-6z"/><path fill="#2f3fbf" d="M34 107h6v10h-6zM40 107h6v10h-6zM64 107h6v10h-6zM70 107h6v10h-6zM82 107h6v10h-6zM82 137h6v10h-6zM64 137h6v10h-6zM58 137h6v10h-6zM52 137h6v10h-6zM46 137h6v10h-6zM34 137h6v10h-6zM28 127h6v10h-6zM28 117h6v10h-6z"/><path fill="#ffffff" d="M154 107h6v10h-6zM166 107h6v10h-6zM172 107h6v10h-6zM178 107h6v10h-6zM184 107h6v10h-6zM190 107h6v10h-6zM202 107h6v10h-6zM202 117h6v10h-6zM202 127h6v10h-6zM190 137h6v10h-6zM184 137h6v10h-6zM178 137h6v10h-6zM172 137h6v10h-6zM166 137h6v10h-6zM154 137h6v10h-6zM148 137h6v10h-6z"/><path fill="#2f3fbf" d="M220 107h6v10h-6zM238 107h6v10h-6zM262 107h6v10h-6zM256 137h6v10h-6zM244 137h6v10h-6zM238 137h6v10h-6zM232 137h6v10h-6zM226 137h6v10h-6zM214 137h6v10h-6zM208 137h6v10h-6zM208 127h6v10h-6z"/><path fill="#000000" d="M28 147h6v10h-6zM34 147h6v10h-6zM46 147h6v10h-6zM52 147h6v10h-6zM58 147h6v10h-6zM64 147h6v10h-6zM76 147h6v10h-6zM82 147h6v10h-6zM82 157h6v10h-6zM76 177h6v10h-6zM70 177h6v10h-6zM64 177h6v10h-6zM52 177h6v10h-6zM34 177h6v10h-6zM28 177h6v10h-6z"/><path fill="#2f3fbf" d="M88 147h6v10h-6zM100 147h6v10h-6zM112 147h6v10h-6zM142 177h6v10h-6zM124 177h6v10h-6zM118 177h6v10h-6zM112 177h6v10h-6zM88 177h6v10h-6z"/><path fill="#000000" d="M154 147h6v10h-6zM160 147h6v10h-6zM166 147h6v10h-6zM178 147h6v10h-6zM190 147h6v10h-6zM196 147h6v10h-6zM202 147h6v10h-6zM202 157h6v10h-6zM202 177h6v10h-6zM190 177h6v10h-6zM184 177h6v10h-6zM178 177h6v10h-6zM172 177h6v10h-6zM160 177h6v10h-6zM154 177h6v10h-6zM148 177h6v10h-6z"/><path fill="#2f3fbf" d="M238 147h6v10h-6zM256 147h6v10h-6zM262 157h6v10h-6zM256 177h6v10h-6zM244 177h6v10h-6zM232 177h6v10h-6zM226 177h6v10h-6zM220 177h6v10h-6zM214 177h6v10h-6zM208 167h6v10h-6zM208 157h6v10h-6z"/></g><g clip-path="url(#grid-clip-455a41c26e763acf-4x4)" data-channel="ellipse" data-ellipse-anchor-x="88" data-ellipse-anchor-y="147" data-ellipse-rx="125.473" data-ellipse-ry="94.321" data-ellipse-rotation-deg="96"><ellipse cx="88" cy="147" rx="125.473" ry="94.321" transform="rotate(96 88 147)" fill="#000000" stroke="#000000" fill-opacity="0.25" stroke-opacity="0.35" stroke-width="2"/></g><g><g data-channel="cell" data-cell-index="0" data-cell-row="0" data-cell-col="0" data-surround-bits="0x455a41" data-edge-color="#e7be00"><rect x="34" y="37" width="48" height="20" fill="#11c300"/><text x="58" y="47" fill="#000000" font-size="16" text-anchor="middle" dominant-baseline="central">qrp3</text></g><g data-channel="cell" data-cell-index="1" data-cell-row="0" data-cell-col="1" data-surround-bits="0xc26e76" data-edge-color="#2f3fbf"><rect x="94" y="37" width="48" height="20" fill="#001e8a"/><text x="118" y="47" fill="#ffffff" font-size="16" text-anchor="middle" dominant-baseline="central">3g0q</text></g><g data-channel="cell" data-cell-index="2" data-cell-row="0" data-cell-col="2" data-surround-bits="0x3acf71" data-edge-color="#2f3fbf"><rect x="154" y="37" width="48" height="20" fill="#bb28a6"/><text x="178" y="47" fill="#ffffff" font-size="16" text-anchor="middle" dominant-baseline="central">5c5t</text></g><g data-channel="cell" data-cell-index="3" data-cell-row="0" data-cell-col="3" data-surround-bits="0x24b667" data-edge-color="#000000"><rect x="214" y="37" width="48" height="20" fill="#550234"/><text x="238" y="47" fill="#ffffff" font-size="16" text-anchor="middle" dominant-baseline="central">xsp9</text></g><g data-channel="cell" data-cell-index="4" data-cell-row="1" data-cell-col="0" data-surround-bits="0xeadef5" data-edge-color="#e7be00" data-cell-quartile="1"><rect x="34" y="77" width="48" height="20" fill="#00c9e8"/><text x="58" y="87" fill="#000000" font-size="16" text-anchor="middle" dominant-baseline="central">arys</text><polygon points="34,77 44,77 34,87" fill="#000000"/></g><g data-channel="cell" data-cell-index="5" data-cell-row="1" data-cell-col="1" data-surround-bits="0x1421bb" data-edge-color="#000000" data-cell-quartile="2"><rect x="94" y="77" width="48" height="20" fill="#66ab19"/><text x="118" y="87" fill="#000000" font-size="16" text-anchor="middle" dominant-baseline="central">rx4k</text><polygon points="142,77 132,77 142,87" fill="#000000"/></g><g data-channel="cell" data-cell-index="6" data-cell-row="1" data-cell-col="2" data-surround-bits="0x5c7833" data-edge-color="#2f3fbf"><rect x="154" y="77" width="48" height="20" fill="#669bd0"/><text x="178" y="87" fill="#000000" font-size="16" text-anchor="middle" dominant-baseline="central">6zdk</text></g><g data-channel="cell" data-cell-index="7" data-cell-row="1" data-cell-col="3" data-surround-bits="0x7ad477" data-edge-color="#000000"><rect x="214" y="77" width="48" height="20" fill="#332b4c"/><text x="238" y="87" fill="#ffffff" font-size="16" text-anchor="middle" dominant-baseline="central">fs4n</text></g><g data-channel="cell" data-cell-index="8" data-cell-row="2" data-cell-col="0" data-surround-bits="0xd792c6" data-edge-color="#2f3fbf"><rect x="34" y="117" width="48" height="20" fill="#666ac6"/><text x="58" y="127" fill="#ffffff" font-size="16" text-anchor="middle" dominant-baseline="central">ce4x</text></g><g data-channel="cell" data-cell-index="9" data-cell-row="2" data-cell-col="1" data-cell-blank="true" data-cell-blank-map="true"><rect x="94" y="117" width="48" height="20" rx="10" ry="10" fill="#ffffff" stroke="#000000" stroke-width="1"/><circle cx="112" cy="124.5" r="3.5" fill="#000000" data-blank-map-min="1,1"/><path d="M 95.8,124.5 H 104.2 M 100,120.3 V 128.7" fill="none" stroke="#000000" stroke-width="1.925" stroke-linecap="butt" data-blank-map-max="1,0"/></g><g data-channel="cell" data-cell-index="10" data-cell-row="2" data-cell-col="2" data-surround-bits="0x37cefa" data-edge-color="#ffffff"><rect x="154" y="117" width="48" height="20" fill="#ddd093"/><text x="178" y="127" fill="#000000" font-size="16" text-anchor="middle" dominant-baseline="central">j0gd</text></g><g data-channel="cell" data-cell-index="11" data-cell-row="2" data-cell-col="3" data-surround-bits="0x77a224" data-edge-color="#2f3fbf"><rect x="214" y="117" width="48" height="20" fill="#9931c6"/><text x="238" y="127" fill="#ffffff" font-size="16" text-anchor="middle" dominant-baseline="central">ccce</text></g><g data-channel="cell" data-cell-index="12" data-cell-row="3" data-cell-col="0" data-surround-bits="0x32e77b" data-edge-color="#000000"><rect x="34" y="157" width="48" height="20" fill="#44024b"/><text x="58" y="167" fill="#ffffff" font-size="16" text-anchor="middle" dominant-baseline="central">fvpy</text></g><g data-channel="cell" data-cell-index="13" data-cell-row="3" data-cell-col="1" data-surround-bits="0x239015" data-edge-color="#2f3fbf" data-cell-quartile="3"><rect x="94" y="157" width="48" height="20" fill="#119381"/><text x="118" y="167" fill="#ffffff" font-size="16" text-anchor="middle" dominant-baseline="central">sxf3</text><polygon points="142,177 142,167 132,177" fill="#ffffff"/></g><g data-channel="cell" data-cell-index="14" data-cell-row="3" data-cell-col="2" data-surround-bits="0x3bd7ae" data-edge-color="#000000" data-cell-quartile="4"><rect x="154" y="157" width="48" height="20" fill="#993006"/><text x="178" y="167" fill="#ffffff" font-size="16" text-anchor="middle" dominant-baseline="central">qccf</text><polygon points="154,177 154,167 164,177" fill="#ffffff"/></g><g data-channel="cell" data-cell-index="15" data-cell-row="3" data-cell-col="3" data-surround-bits="0xdea520" data-edge-color="#2f3fbf"><rect x="214" y="157" width="48" height="20" fill="#9123db"/><text x="238" y="167" fill="#ffffff" font-size="16" text-anchor="middle" dominant-baseline="central">mv3</text></g></g></g><g data-channel="color-bar" data-bar-slots="15" data-bar-marker-left="4" data-bar-marker-right="6"><g data-color-bar-rank="0" data-color-bar-band="G"><rect x="2" y="2" width="20" height="48.616" fill="#e7be00"/><text x="12" y="47.096" fill="#000000" font-size="16" text-anchor="middle" data-color-bar-letter="true">g</text></g><g data-color-bar-rank="1" data-color-bar-band="W"><rect x="2" y="50.616" width="20" height="24.921" fill="#ffffff"/><text x="12" y="72.017" fill="#000000" font-size="16" text-anchor="middle" data-color-bar-letter="true">w</text></g><g data-color-bar-rank="2" data-color-bar-band="B"><rect x="2" y="75.537" width="20" height="58.231" fill="#2f3fbf"/><text x="12" y="130.249" fill="#ffffff" font-size="16" text-anchor="middle" data-color-bar-letter="true">b</text></g><g data-color-bar-rank="3" data-color-bar-band="K"><rect x="2" y="133.769" width="20" height="58.231" fill="#000000"/><text x="12" y="188.48" fill="#ffffff" font-size="16" text-anchor="middle" data-color-bar-letter="true">k</text></g><circle cx="6.6" cy="59" r="3.4" fill="#ffffff" stroke="#000000" stroke-width="0.75" data-bar-marker="left"/><circle cx="17.4" cy="84.333" r="3.4" fill="#ffffff" stroke="#000000" stroke-width="0.75" data-bar-marker="right"/></g><g data-channel="label-top"><text x="28" y="17" fill="#666666" font-size="12" dominant-baseline="central">BTC, bc1</text></g><line x1="1" y1="1.5" x2="274" y2="1.5" stroke="#808080" stroke-width="1" shape-rendering="crispEdges"/><line x1="273.5" y1="1" x2="273.5" y2="193" stroke="#808080" stroke-width="1" shape-rendering="crispEdges"/><line x1="1" y1="192.5" x2="274" y2="192.5" stroke="#808080" stroke-width="1" shape-rendering="crispEdges"/><line x1="1.5" y1="1" x2="1.5" y2="193" stroke="#808080" stroke-width="1" shape-rendering="crispEdges"/><line x1="22.5" y1="1" x2="22.5" y2="193" stroke="#808080" stroke-width="1" shape-rendering="crispEdges"/></svg>