<svg width="263.0" height="302.0" viewBox="0 0 263.0 302.0" xmlns="http://www.w3.org/2000/svg" data-entviz-version="v5" data-input-bytes="103" data-cols="4" data-rows="6" data-truncated="true"><defs><clipPath id="grid-clip-d2df89f4e04a6ac2-4x6"><rect x="17.0" y="31.0" width="240.0" height="240.0"/></clipPath></defs><rect x="0" y="0" width="263.0" height="302.0" fill="#ffffff"/><g data-channel="grid"><rect x="17.0" y="31.0" width="240.0" height="240.0" fill="#ffffff"/><g><rect x="17.0" y="31.0" width="6.0" height="10.0" fill="#ff3f2f"/><rect x="35.0" y="31.0" width="6.0" height="10.0" fill="#ff3f2f"/><rect x="59.0" y="31.0" width="6.0" height="10.0" fill="#ff3f2f"/><rect x="65.0" y="31.0" width="6.0" height="10.0" fill="#ff3f2f"/><rect x="71.0" y="31.0" width="6.0" height="10.0" fill="#ff3f2f"/><rect x="71.0" y="41.0" width="6.0" height="10.0" fill="#ff3f2f"/><rect x="71.0" y="51.0" width="6.0" height="10.0" fill="#ff3f2f"/><rect x="71.0" y="61.0" width="6.0" height="10.0" fill="#ff3f2f"/><rect x="59.0" y="61.0" width="6.0" height="10.0" fill="#ff3f2f"/><rect x="53.0" y="61.0" width="6.0" height="10.0" fill="#ff3f2f"/><rect x="41.0" y="61.0" width="6.0" height="10.0" fill="#ff3f2f"/><rect x="23.0" y="61.0" width="6.0" height="10.0" fill="#ff3f2f"/><rect x="17.0" y="51.0" width="6.0" height="10.0" fill="#ff3f2f"/><rect x="17.0" y="41.0" width="6.0" height="10.0" fill="#ff3f2f"/><rect x="83.0" y="31.0" width="6.0" height="10.0" fill="#ffd966"/><rect x="95.0" y="31.0" width="6.0" height="10.0" fill="#ffd966"/><rect x="113.0" y="31.0" width="6.0" height="10.0" fill="#ffd966"/><rect x="125.0" y="61.0" width="6.0" height="10.0" fill="#ffd966"/><rect x="119.0" y="61.0" width="6.0" height="10.0" fill="#ffd966"/><rect x="113.0" y="61.0" width="6.0" height="10.0" fill="#ffd966"/><rect x="95.0" y="61.0" width="6.0" height="10.0" fill="#ffd966"/><rect x="83.0" y="61.0" width="6.0" height="10.0" fill="#ffd966"/><rect x="77.0" y="61.0" width="6.0" height="10.0" fill="#ffd966"/><rect x="77.0" y="51.0" width="6.0" height="10.0" fill="#ffd966"/><rect x="77.0" y="41.0" width="6.0" height="10.0" fill="#ffd966"/><rect x="161.0" y="31.0" width="6.0" height="10.0" fill="#ff3f2f"/><rect x="179.0" y="31.0" width="6.0" height="10.0" fill="#ff3f2f"/><rect x="191.0" y="31.0" width="6.0" height="10.0" fill="#ff3f2f"/><rect x="179.0" y="61.0" width="6.0" height="10.0" fill="#ff3f2f"/><rect x="173.0" y="61.0" width="6.0" height="10.0" fill="#ff3f2f"/><rect x="161.0" y="61.0" width="6.0" height="10.0" fill="#ff3f2f"/><rect x="149.0" y="61.0" width="6.0" height="10.0" fill="#ff3f2f"/><rect x="137.0" y="61.0" width="6.0" height="10.0" fill="#ff3f2f"/><rect x="137.0" y="51.0" width="6.0" height="10.0" fill="#ff3f2f"/><rect x="197.0" y="31.0" width="6.0" height="10.0" fill="#ff3f2f"/><rect x="203.0" y="31.0" width="6.0" height="10.0" fill="#ff3f2f"/><rect x="209.0" y="31.0" width="6.0" height="10.0" fill="#ff3f2f"/><rect x="215.0" y="31.0" width="6.0" height="10.0" fill="#ff3f2f"/><rect x="227.0" y="31.0" width="6.0" height="10.0" fill="#ff3f2f"/><rect x="239.0" y="31.0" width="6.0" height="10.0" fill="#ff3f2f"/><rect x="251.0" y="31.0" width="6.0" height="10.0" fill="#ff3f2f"/><rect x="251.0" y="51.0" width="6.0" height="10.0" fill="#ff3f2f"/><rect x="245.0" y="61.0" width="6.0" height="10.0" fill="#ff3f2f"/><rect x="239.0" y="61.0" width="6.0" height="10.0" fill="#ff3f2f"/><rect x="233.0" y="61.0" width="6.0" height="10.0" fill="#ff3f2f"/><rect x="227.0" y="61.0" width="6.0" height="10.0" fill="#ff3f2f"/><rect x="221.0" y="61.0" width="6.0" height="10.0" fill="#ff3f2f"/><rect x="215.0" y="61.0" width="6.0" height="10.0" fill="#ff3f2f"/><rect x="197.0" y="41.0" width="6.0" height="10.0" fill="#ff3f2f"/><rect x="17.0" y="71.0" width="6.0" height="10.0" fill="#2f3fbf"/><rect x="29.0" y="71.0" width="6.0" height="10.0" fill="#2f3fbf"/><rect x="35.0" y="71.0" width="6.0" height="10.0" fill="#2f3fbf"/><rect x="53.0" y="71.0" width="6.0" height="10.0" fill="#2f3fbf"/><rect x="59.0" y="71.0" width="6.0" height="10.0" fill="#2f3fbf"/><rect x="71.0" y="71.0" width="6.0" height="10.0" fill="#2f3fbf"/><rect x="71.0" y="81.0" width="6.0" height="10.0" fill="#2f3fbf"/><rect x="71.0" y="101.0" width="6.0" height="10.0" fill="#2f3fbf"/><rect x="65.0" y="101.0" width="6.0" height="10.0" fill="#2f3fbf"/><rect x="59.0" y="101.0" width="6.0" height="10.0" fill="#2f3fbf"/><rect x="47.0" y="101.0" width="6.0" height="10.0" fill="#2f3fbf"/><rect x="41.0" y="101.0" width="6.0" height="10.0" fill="#2f3fbf"/><rect x="35.0" y="101.0" width="6.0" height="10.0" fill="#2f3fbf"/><rect x="29.0" y="101.0" width="6.0" height="10.0" fill="#2f3fbf"/><rect x="23.0" y="101.0" width="6.0" height="10.0" fill="#2f3fbf"/><rect x="17.0" y="101.0" width="6.0" height="10.0" fill="#2f3fbf"/><rect x="17.0" y="81.0" width="6.0" height="10.0" fill="#2f3fbf"/><rect x="77.0" y="71.0" width="6.0" height="10.0" fill="#ff3f2f"/><rect x="107.0" y="71.0" width="6.0" height="10.0" fill="#ff3f2f"/><rect x="113.0" y="71.0" width="6.0" height="10.0" fill="#ff3f2f"/><rect x="131.0" y="81.0" width="6.0" height="10.0" fill="#ff3f2f"/><rect x="125.0" y="101.0" width="6.0" height="10.0" fill="#ff3f2f"/><rect x="113.0" y="101.0" width="6.0" height="10.0" fill="#ff3f2f"/><rect x="107.0" y="101.0" width="6.0" height="10.0" fill="#ff3f2f"/><rect x="101.0" y="101.0" width="6.0" height="10.0" fill="#ff3f2f"/><rect x="95.0" y="101.0" width="6.0" height="10.0" fill="#ff3f2f"/><rect x="89.0" y="101.0" width="6.0" height="10.0" fill="#ff3f2f"/><rect x="83.0" y="101.0" width="6.0" height="10.0" fill="#ff3f2f"/><rect x="77.0" y="101.0" width="6.0" height="10.0" fill="#ff3f2f"/><rect x="77.0" y="81.0" width="6.0" height="10.0" fill="#ff3f2f"/><rect x="137.0" y="71.0" width="6.0" height="10.0" fill="#2f3fbf"/><rect x="143.0" y="71.0" width="6.0" height="10.0" fill="#2f3fbf"/><rect x="149.0" y="71.0" width="6.0" height="10.0" fill="#2f3fbf"/><rect x="155.0" y="71.0" width="6.0" height="10.0" fill="#2f3fbf"/><rect x="161.0" y="71.0" width="6.0" height="10.0" fill="#2f3fbf"/><rect x="167.0" y="71.0" width="6.0" height="10.0" fill="#2f3fbf"/><rect x="185.0" y="71.0" width="6.0" height="10.0" fill="#2f3fbf"/><rect x="191.0" y="71.0" width="6.0" height="10.0" fill="#2f3fbf"/><rect x="167.0" y="101.0" width="6.0" height="10.0" fill="#2f3fbf"/><rect x="161.0" y="101.0" width="6.0" height="10.0" fill="#2f3fbf"/><rect x="155.0" y="101.0" width="6.0" height="10.0" fill="#2f3fbf"/><rect x="143.0" y="101.0" width="6.0" height="10.0" fill="#2f3fbf"/><rect x="137.0" y="81.0" width="6.0" height="10.0" fill="#2f3fbf"/><rect x="197.0" y="71.0" width="6.0" height="10.0" fill="#ffd966"/><rect x="221.0" y="71.0" width="6.0" height="10.0" fill="#ffd966"/><rect x="227.0" y="71.0" width="6.0" height="10.0" fill="#ffd966"/><rect x="233.0" y="71.0" width="6.0" height="10.0" fill="#ffd966"/><rect x="239.0" y="71.0" width="6.0" height="10.0" fill="#ffd966"/><rect x="251.0" y="91.0" width="6.0" height="10.0" fill="#ffd966"/><rect x="245.0" y="101.0" width="6.0" height="10.0" fill="#ffd966"/><rect x="239.0" y="101.0" width="6.0" height="10.0" fill="#ffd966"/><rect x="227.0" y="101.0" width="6.0" height="10.0" fill="#ffd966"/><rect x="221.0" y="101.0" width="6.0" height="10.0" fill="#ffd966"/><rect x="215.0" y="101.0" width="6.0" height="10.0" fill="#ffd966"/><rect x="197.0" y="91.0" width="6.0" height="10.0" fill="#ffd966"/><rect x="197.0" y="81.0" width="6.0" height="10.0" fill="#ffd966"/><rect x="83.0" y="111.0" width="6.0" height="10.0" fill="#ffd966"/><rect x="101.0" y="111.0" width="6.0" height="10.0" fill="#ffd966"/><rect x="119.0" y="111.0" width="6.0" height="10.0" fill="#ffd966"/><rect x="131.0" y="131.0" width="6.0" height="10.0" fill="#ffd966"/><rect x="131.0" y="141.0" width="6.0" height="10.0" fill="#ffd966"/><rect x="125.0" y="141.0" width="6.0" height="10.0" fill="#ffd966"/><rect x="95.0" y="141.0" width="6.0" height="10.0" fill="#ffd966"/><rect x="77.0" y="141.0" width="6.0" height="10.0" fill="#ffd966"/><rect x="77.0" y="131.0" width="6.0" height="10.0" fill="#ffd966"/><rect x="137.0" y="111.0" width="6.0" height="10.0" fill="#2f3fbf"/><rect x="149.0" y="111.0" width="6.0" height="10.0" fill="#2f3fbf"/><rect x="173.0" y="111.0" width="6.0" height="10.0" fill="#2f3fbf"/><rect x="179.0" y="111.0" width="6.0" height="10.0" fill="#2f3fbf"/><rect x="185.0" y="111.0" width="6.0" height="10.0" fill="#2f3fbf"/><rect x="191.0" y="111.0" width="6.0" height="10.0" fill="#2f3fbf"/><rect x="191.0" y="121.0" width="6.0" height="10.0" fill="#2f3fbf"/><rect x="185.0" y="141.0" width="6.0" height="10.0" fill="#2f3fbf"/><rect x="167.0" y="141.0" width="6.0" height="10.0" fill="#2f3fbf"/><rect x="161.0" y="141.0" width="6.0" height="10.0" fill="#2f3fbf"/><rect x="155.0" y="141.0" width="6.0" height="10.0" fill="#2f3fbf"/><rect x="137.0" y="141.0" width="6.0" height="10.0" fill="#2f3fbf"/><rect x="137.0" y="131.0" width="6.0" height="10.0" fill="#2f3fbf"/><rect x="215.0" y="111.0" width="6.0" height="10.0" fill="#ffd966"/><rect x="233.0" y="111.0" width="6.0" height="10.0" fill="#ffd966"/><rect x="245.0" y="111.0" width="6.0" height="10.0" fill="#ffd966"/><rect x="251.0" y="121.0" width="6.0" height="10.0" fill="#ffd966"/><rect x="251.0" y="131.0" width="6.0" height="10.0" fill="#ffd966"/><rect x="245.0" y="141.0" width="6.0" height="10.0" fill="#ffd966"/><rect x="239.0" y="141.0" width="6.0" height="10.0" fill="#ffd966"/><rect x="233.0" y="141.0" width="6.0" height="10.0" fill="#ffd966"/><rect x="221.0" y="141.0" width="6.0" height="10.0" fill="#ffd966"/><rect x="215.0" y="141.0" width="6.0" height="10.0" fill="#ffd966"/><rect x="197.0" y="141.0" width="6.0" height="10.0" fill="#ffd966"/><rect x="197.0" y="121.0" width="6.0" height="10.0" fill="#ffd966"/><rect x="23.0" y="151.0" width="6.0" height="10.0" fill="#ff3f2f"/><rect x="35.0" y="151.0" width="6.0" height="10.0" fill="#ff3f2f"/><rect x="41.0" y="151.0" width="6.0" height="10.0" fill="#ff3f2f"/><rect x="47.0" y="151.0" width="6.0" height="10.0" fill="#ff3f2f"/><rect x="53.0" y="151.0" width="6.0" height="10.0" fill="#ff3f2f"/><rect x="65.0" y="151.0" width="6.0" height="10.0" fill="#ff3f2f"/><rect x="71.0" y="151.0" width="6.0" height="10.0" fill="#ff3f2f"/><rect x="71.0" y="161.0" width="6.0" height="10.0" fill="#ff3f2f"/><rect x="65.0" y="181.0" width="6.0" height="10.0" fill="#ff3f2f"/><rect x="53.0" y="181.0" width="6.0" height="10.0" fill="#ff3f2f"/><rect x="35.0" y="181.0" width="6.0" height="10.0" fill="#ff3f2f"/><rect x="17.0" y="181.0" width="6.0" height="10.0" fill="#ff3f2f"/><rect x="137.0" y="151.0" width="6.0" height="10.0" fill="#ff3f2f"/><rect x="149.0" y="151.0" width="6.0" height="10.0" fill="#ff3f2f"/><rect x="161.0" y="151.0" width="6.0" height="10.0" fill="#ff3f2f"/><rect x="191.0" y="151.0" width="6.0" height="10.0" fill="#ff3f2f"/><rect x="191.0" y="161.0" width="6.0" height="10.0" fill="#ff3f2f"/><rect x="191.0" y="181.0" width="6.0" height="10.0" fill="#ff3f2f"/><rect x="179.0" y="181.0" width="6.0" height="10.0" fill="#ff3f2f"/><rect x="167.0" y="181.0" width="6.0" height="10.0" fill="#ff3f2f"/><rect x="161.0" y="181.0" width="6.0" height="10.0" fill="#ff3f2f"/><rect x="149.0" y="181.0" width="6.0" height="10.0" fill="#ff3f2f"/><rect x="143.0" y="181.0" width="6.0" height="10.0" fill="#ff3f2f"/><rect x="137.0" y="181.0" width="6.0" height="10.0" fill="#ff3f2f"/><rect x="137.0" y="171.0" width="6.0" height="10.0" fill="#ff3f2f"/><rect x="197.0" y="151.0" width="6.0" height="10.0" fill="#ff3f2f"/><rect x="209.0" y="151.0" width="6.0" height="10.0" fill="#ff3f2f"/><rect x="251.0" y="171.0" width="6.0" height="10.0" fill="#ff3f2f"/><rect x="245.0" y="181.0" width="6.0" height="10.0" fill="#ff3f2f"/><rect x="239.0" y="181.0" width="6.0" height="10.0" fill="#ff3f2f"/><rect x="233.0" y="181.0" width="6.0" height="10.0" fill="#ff3f2f"/><rect x="215.0" y="181.0" width="6.0" height="10.0" fill="#ff3f2f"/><rect x="203.0" y="181.0" width="6.0" height="10.0" fill="#ff3f2f"/><rect x="197.0" y="161.0" width="6.0" height="10.0" fill="#ff3f2f"/><rect x="17.0" y="191.0" width="6.0" height="10.0" fill="#2f3fbf"/><rect x="29.0" y="191.0" width="6.0" height="10.0" fill="#2f3fbf"/><rect x="35.0" y="191.0" width="6.0" height="10.0" fill="#2f3fbf"/><rect x="59.0" y="191.0" width="6.0" height="10.0" fill="#2f3fbf"/><rect x="65.0" y="191.0" width="6.0" height="10.0" fill="#2f3fbf"/><rect x="71.0" y="201.0" width="6.0" height="10.0" fill="#2f3fbf"/><rect x="41.0" y="221.0" width="6.0" height="10.0" fill="#2f3fbf"/><rect x="35.0" y="221.0" width="6.0" height="10.0" fill="#2f3fbf"/><rect x="29.0" y="221.0" width="6.0" height="10.0" fill="#2f3fbf"/><rect x="23.0" y="221.0" width="6.0" height="10.0" fill="#2f3fbf"/><rect x="17.0" y="221.0" width="6.0" height="10.0" fill="#2f3fbf"/><rect x="17.0" y="201.0" width="6.0" height="10.0" fill="#2f3fbf"/><rect x="77.0" y="191.0" width="6.0" height="10.0" fill="#2f3fbf"/><rect x="83.0" y="191.0" width="6.0" height="10.0" fill="#2f3fbf"/><rect x="89.0" y="191.0" width="6.0" height="10.0" fill="#2f3fbf"/><rect x="113.0" y="191.0" width="6.0" height="10.0" fill="#2f3fbf"/><rect x="119.0" y="191.0" width="6.0" height="10.0" fill="#2f3fbf"/><rect x="125.0" y="221.0" width="6.0" height="10.0" fill="#2f3fbf"/><rect x="107.0" y="221.0" width="6.0" height="10.0" fill="#2f3fbf"/><rect x="83.0" y="221.0" width="6.0" height="10.0" fill="#2f3fbf"/><rect x="77.0" y="221.0" width="6.0" height="10.0" fill="#2f3fbf"/><rect x="137.0" y="191.0" width="6.0" height="10.0" fill="#ffd966"/><rect x="161.0" y="191.0" width="6.0" height="10.0" fill="#ffd966"/><rect x="167.0" y="191.0" width="6.0" height="10.0" fill="#ffd966"/><rect x="173.0" y="191.0" width="6.0" height="10.0" fill="#ffd966"/><rect x="191.0" y="191.0" width="6.0" height="10.0" fill="#ffd966"/><rect x="191.0" y="201.0" width="6.0" height="10.0" fill="#ffd966"/><rect x="191.0" y="211.0" width="6.0" height="10.0" fill="#ffd966"/><rect x="185.0" y="221.0" width="6.0" height="10.0" fill="#ffd966"/><rect x="179.0" y="221.0" width="6.0" height="10.0" fill="#ffd966"/><rect x="161.0" y="221.0" width="6.0" height="10.0" fill="#ffd966"/><rect x="143.0" y="221.0" width="6.0" height="10.0" fill="#ffd966"/><rect x="137.0" y="221.0" width="6.0" height="10.0" fill="#ffd966"/><rect x="209.0" y="191.0" width="6.0" height="10.0" fill="#ff3f2f"/><rect x="215.0" y="191.0" width="6.0" height="10.0" fill="#ff3f2f"/><rect x="221.0" y="191.0" width="6.0" height="10.0" fill="#ff3f2f"/><rect x="227.0" y="191.0" width="6.0" height="10.0" fill="#ff3f2f"/><rect x="245.0" y="191.0" width="6.0" height="10.0" fill="#ff3f2f"/><rect x="251.0" y="191.0" width="6.0" height="10.0" fill="#ff3f2f"/><rect x="251.0" y="221.0" width="6.0" height="10.0" fill="#ff3f2f"/><rect x="227.0" y="221.0" width="6.0" height="10.0" fill="#ff3f2f"/><rect x="215.0" y="221.0" width="6.0" height="10.0" fill="#ff3f2f"/><rect x="203.0" y="221.0" width="6.0" height="10.0" fill="#ff3f2f"/><rect x="17.0" y="231.0" width="6.0" height="10.0" fill="#2f3fbf"/><rect x="23.0" y="231.0" width="6.0" height="10.0" fill="#2f3fbf"/><rect x="65.0" y="231.0" width="6.0" height="10.0" fill="#2f3fbf"/><rect x="71.0" y="231.0" width="6.0" height="10.0" fill="#2f3fbf"/><rect x="71.0" y="241.0" width="6.0" height="10.0" fill="#2f3fbf"/><rect x="71.0" y="251.0" width="6.0" height="10.0" fill="#2f3fbf"/><rect x="65.0" y="261.0" width="6.0" height="10.0" fill="#2f3fbf"/><rect x="47.0" y="261.0" width="6.0" height="10.0" fill="#2f3fbf"/><rect x="35.0" y="261.0" width="6.0" height="10.0" fill="#2f3fbf"/><rect x="23.0" y="261.0" width="6.0" height="10.0" fill="#2f3fbf"/><rect x="83.0" y="231.0" width="6.0" height="10.0" fill="#2f3fbf"/><rect x="95.0" y="231.0" width="6.0" height="10.0" fill="#2f3fbf"/><rect x="107.0" y="231.0" width="6.0" height="10.0" fill="#2f3fbf"/><rect x="125.0" y="231.0" width="6.0" height="10.0" fill="#2f3fbf"/><rect x="131.0" y="231.0" width="6.0" height="10.0" fill="#2f3fbf"/><rect x="119.0" y="261.0" width="6.0" height="10.0" fill="#2f3fbf"/><rect x="107.0" y="261.0" width="6.0" height="10.0" fill="#2f3fbf"/><rect x="89.0" y="261.0" width="6.0" height="10.0" fill="#2f3fbf"/><rect x="83.0" y="261.0" width="6.0" height="10.0" fill="#2f3fbf"/><rect x="77.0" y="241.0" width="6.0" height="10.0" fill="#2f3fbf"/></g><g clip-path="url(#grid-clip-d2df89f4e04a6ac2-4x6)" data-channel="ellipse" data-ellipse-anchor-x="197.0" data-ellipse-anchor-y="151.0" data-ellipse-rx="125.31092278708219" data-ellipse-ry="55.51107687037858" data-ellipse-rotation-deg="12.0"><ellipse cx="197.0" cy="151.0" rx="125.31092278708219" ry="55.51107687037858" transform="rotate(12.0 197.0 151.0)" fill="#000000" fill-opacity="0.2"/></g><g><g data-channel="cell" data-cell-index="0" data-cell-row="0" data-cell-col="0"><rect x="23.0" y="41.0" width="48.0" height="20.0" fill="#ff7001"/><text x="47.0" y="51.0" fill="#000000" style="font-family: &quot;DejaVu Sans Mono&quot;, &quot;Consolas&quot;, &quot;Menlo&quot;, &quot;Liberation Mono&quot;, monospace; font-size: 16.0px;" text-anchor="middle" dominant-baseline="central">q9c0</text></g><g data-channel="cell" data-cell-index="1" data-cell-row="0" data-cell-col="1"><rect x="83.0" y="41.0" width="48.0" height="20.0" fill="#ee8a84"/><text x="107.0" y="51.0" fill="#000000" style="font-family: &quot;DejaVu Sans Mono&quot;, &quot;Consolas&quot;, &quot;Menlo&quot;, &quot;Liberation Mono&quot;, monospace; font-size: 16.0px;" text-anchor="middle" dominant-baseline="central">sj9w</text></g><g data-channel="cell" data-cell-index="2" data-cell-row="0" data-cell-col="2"><rect x="143.0" y="41.0" width="48.0" height="20.0" fill="#bb8a0a"/><text x="167.0" y="51.0" fill="#000000" style="font-family: &quot;DejaVu Sans Mono&quot;, &quot;Consolas&quot;, &quot;Menlo&quot;, &quot;Liberation Mono&quot;, monospace; font-size: 16.0px;" text-anchor="middle" dominant-baseline="central">p29t</text></g><g data-channel="cell" data-cell-index="3" data-cell-row="0" data-cell-col="3"><rect x="203.0" y="41.0" width="48.0" height="20.0" fill="#bb3e30"/><text x="227.0" y="51.0" fill="#ffffff" style="font-family: &quot;DejaVu Sans Mono&quot;, &quot;Consolas&quot;, &quot;Menlo&quot;, &quot;Liberation Mono&quot;, monospace; font-size: 16.0px;" text-anchor="middle" dominant-baseline="central">xqlt</text></g><g data-channel="cell" data-cell-index="4" data-cell-row="1" data-cell-col="0" data-cell-quartile="3"><rect x="23.0" y="81.0" width="48.0" height="20.0" fill="#882d78"/><text x="47.0" y="91.0" fill="#ffffff" style="font-family: &quot;DejaVu Sans Mono&quot;, &quot;Consolas&quot;, &quot;Menlo&quot;, &quot;Liberation Mono&quot;, monospace; font-size: 16.0px;" text-anchor="middle" dominant-baseline="central">0qkc</text><polygon points="71.0,101.0 71.0,91.0 61.0,101.0" fill="#ffffff"/></g><g data-channel="cell" data-cell-index="5" data-cell-row="1" data-cell-col="1" data-cell-quartile="4"><rect x="83.0" y="81.0" width="48.0" height="20.0" fill="#ee05ae"/><text x="107.0" y="91.0" fill="#000000" style="font-family: &quot;DejaVu Sans Mono&quot;, &quot;Consolas&quot;, &quot;Menlo&quot;, &quot;Liberation Mono&quot;, monospace; font-size: 16.0px;" text-anchor="middle" dominant-baseline="central">4cz7</text><polygon points="83.0,101.0 83.0,91.0 93.0,101.0" fill="#000000"/></g><g data-channel="cell" data-cell-index="6" data-cell-row="1" data-cell-col="2"><rect x="143.0" y="81.0" width="48.0" height="20.0" fill="#0069d3"/><text x="167.0" y="91.0" fill="#ffffff" style="font-family: &quot;DejaVu Sans Mono&quot;, &quot;Consolas&quot;, &quot;Menlo&quot;, &quot;Liberation Mono&quot;, monospace; font-size: 16.0px;" text-anchor="middle" dominant-baseline="central">6d5s</text></g><g data-channel="cell" data-cell-index="7" data-cell-row="1" data-cell-col="3"><rect x="203.0" y="81.0" width="48.0" height="20.0" fill="#66ea17"/><text x="227.0" y="91.0" fill="#000000" style="font-family: &quot;DejaVu Sans Mono&quot;, &quot;Consolas&quot;, &quot;Menlo&quot;, &quot;Liberation Mono&quot;, monospace; font-size: 16.0px;" text-anchor="middle" dominant-baseline="central">zl4x</text></g><g data-channel="cell" data-cell-index="8" data-cell-row="2" data-cell-col="0" data-cell-blank="true" data-cell-blank-marker="true"><circle cx="47.0" cy="131.0" r="17.0" fill="#ffffff" stroke="#000000" stroke-width="1"/><line x1="47.0" y1="131.0" x2="57.8" y2="116.6" stroke="#ffffff" style="mix-blend-mode: difference" stroke-width="1"/><line x1="47.0" y1="131.0" x2="54.76739816327218" y2="134.4521769614543" stroke="#000000" stroke-width="1"/><circle cx="54.76739816327218" cy="134.4521769614543" r="1.5" fill="#ffffff" stroke="#000000" stroke-width="1"/></g><g data-channel="cell" data-cell-index="9" data-cell-row="2" data-cell-col="1"><rect x="83.0" y="121.0" width="48.0" height="20.0" fill="#ee8a84"/><text x="107.0" y="131.0" fill="#000000" style="font-family: &quot;DejaVu Sans Mono&quot;, &quot;Consolas&quot;, &quot;Menlo&quot;, &quot;Liberation Mono&quot;, monospace; font-size: 16.0px;" text-anchor="middle" dominant-baseline="central">sj9w</text></g><g data-channel="cell" data-cell-index="10" data-cell-row="2" data-cell-col="2"><rect x="143.0" y="121.0" width="48.0" height="20.0" fill="#0069d3"/><text x="167.0" y="131.0" fill="#ffffff" style="font-family: &quot;DejaVu Sans Mono&quot;, &quot;Consolas&quot;, &quot;Menlo&quot;, &quot;Liberation Mono&quot;, monospace; font-size: 16.0px;" text-anchor="middle" dominant-baseline="central">6d5s</text></g><g data-channel="cell" data-cell-index="11" data-cell-row="2" data-cell-col="3"><rect x="203.0" y="121.0" width="48.0" height="20.0" fill="#66e1b6"/><text x="227.0" y="131.0" fill="#000000" style="font-family: &quot;DejaVu Sans Mono&quot;, &quot;Consolas&quot;, &quot;Menlo&quot;, &quot;Liberation Mono&quot;, monospace; font-size: 16.0px;" text-anchor="middle" dominant-baseline="central">kmsk</text></g><g data-channel="cell" data-cell-index="12" data-cell-row="3" data-cell-col="0" data-cell-quartile="1"><rect x="23.0" y="161.0" width="48.0" height="20.0" fill="#886c0c"/><text x="47.0" y="171.0" fill="#ffffff" style="font-family: &quot;DejaVu Sans Mono&quot;, &quot;Consolas&quot;, &quot;Menlo&quot;, &quot;Liberation Mono&quot;, monospace; font-size: 16.0px;" text-anchor="middle" dominant-baseline="central">p3kg</text><polygon points="23.0,161.0 33.0,161.0 23.0,171.0" fill="#ffffff"/></g><g data-channel="cell" data-cell-index="13" data-cell-row="3" data-cell-col="1" data-cell-blank="true" data-cell-blank-marker="true"><circle cx="107.0" cy="171.0" r="17.0" fill="#ffffff" stroke="#000000" stroke-width="1"/><line x1="107.0" y1="171.0" x2="107.0" y2="153.0" stroke="#ffffff" style="mix-blend-mode: difference" stroke-width="1"/><line x1="107.0" y1="171.0" x2="115.06380803342937" y2="173.6879360111431" stroke="#000000" stroke-width="1"/><circle cx="115.06380803342937" cy="173.6879360111431" r="1.5" fill="#ffffff" stroke="#000000" stroke-width="1"/></g><g data-channel="cell" data-cell-index="14" data-cell-row="3" data-cell-col="2"><rect x="143.0" y="161.0" width="48.0" height="20.0" fill="#55841c"/><text x="167.0" y="171.0" fill="#ffffff" style="font-family: &quot;DejaVu Sans Mono&quot;, &quot;Consolas&quot;, &quot;Menlo&quot;, &quot;Liberation Mono&quot;, monospace; font-size: 16.0px;" text-anchor="middle" dominant-baseline="central">rjz9</text></g><g data-channel="cell" data-cell-index="15" data-cell-row="3" data-cell-col="3"><rect x="203.0" y="161.0" width="48.0" height="20.0" fill="#886c0c"/><text x="227.0" y="171.0" fill="#ffffff" style="font-family: &quot;DejaVu Sans Mono&quot;, &quot;Consolas&quot;, &quot;Menlo&quot;, &quot;Liberation Mono&quot;, monospace; font-size: 16.0px;" text-anchor="middle" dominant-baseline="central">p3kg</text></g><g data-channel="cell" data-cell-index="16" data-cell-row="4" data-cell-col="0"><rect x="23.0" y="201.0" width="48.0" height="20.0" fill="#119e31"/><text x="47.0" y="211.0" fill="#000000" style="font-family: &quot;DejaVu Sans Mono&quot;, &quot;Consolas&quot;, &quot;Menlo&quot;, &quot;Liberation Mono&quot;, monospace; font-size: 16.0px;" text-anchor="middle" dominant-baseline="central">xx0p</text></g><g data-channel="cell" data-cell-index="17" data-cell-row="4" data-cell-col="1" data-cell-quartile="2"><rect x="83.0" y="201.0" width="48.0" height="20.0" fill="#11acf8"/><text x="107.0" y="211.0" fill="#000000" style="font-family: &quot;DejaVu Sans Mono&quot;, &quot;Consolas&quot;, &quot;Menlo&quot;, &quot;Liberation Mono&quot;, monospace; font-size: 16.0px;" text-anchor="middle" dominant-baseline="central">lzkp</text><polygon points="131.0,201.0 121.0,201.0 131.0,211.0" fill="#000000"/></g><g data-channel="cell" data-cell-index="18" data-cell-row="4" data-cell-col="2"><rect x="143.0" y="201.0" width="48.0" height="20.0" fill="#aaa6bd"/><text x="167.0" y="211.0" fill="#000000" style="font-family: &quot;DejaVu Sans Mono&quot;, &quot;Consolas&quot;, &quot;Menlo&quot;, &quot;Liberation Mono&quot;, monospace; font-size: 16.0px;" text-anchor="middle" dominant-baseline="central">hkn2</text></g><g data-channel="cell" data-cell-index="19" data-cell-row="4" data-cell-col="3"><rect x="203.0" y="201.0" width="48.0" height="20.0" fill="#884226"/><text x="227.0" y="211.0" fill="#ffffff" style="font-family: &quot;DejaVu Sans Mono&quot;, &quot;Consolas&quot;, &quot;Menlo&quot;, &quot;Liberation Mono&quot;, monospace; font-size: 16.0px;" text-anchor="middle" dominant-baseline="central">yepg</text></g><g data-channel="cell" data-cell-index="20" data-cell-row="5" data-cell-col="0"><rect x="23.0" y="241.0" width="48.0" height="20.0" fill="#2294d3"/><text x="47.0" y="251.0" fill="#000000" style="font-family: &quot;DejaVu Sans Mono&quot;, &quot;Consolas&quot;, &quot;Menlo&quot;, &quot;Liberation Mono&quot;, monospace; font-size: 16.0px;" text-anchor="middle" dominant-baseline="central">6w2z</text></g><g data-channel="cell" data-cell-index="21" data-cell-row="5" data-cell-col="1"><rect x="83.0" y="241.0" width="48.0" height="20.0" fill="#006f90"/><text x="107.0" y="251.0" fill="#ffffff" style="font-family: &quot;DejaVu Sans Mono&quot;, &quot;Consolas&quot;, &quot;Menlo&quot;, &quot;Liberation Mono&quot;, monospace; font-size: 16.0px;" text-anchor="middle" dominant-baseline="central">jphs</text></g><g data-channel="cell" data-cell-index="22" data-cell-row="5" data-cell-col="2" data-cell-blank="true" data-cell-blank-marker="true"><circle cx="167.0" cy="251.0" r="17.0" fill="#ffffff" stroke="#000000" stroke-width="1"/><line x1="167.0" y1="251.0" x2="161.82773805980577" y2="233.75912686601927" stroke="#ffffff" style="mix-blend-mode: difference" stroke-width="1"/><line x1="167.0" y1="251.0" x2="174.07242750187166" y2="246.28504833208555" stroke="#000000" stroke-width="1"/><circle cx="174.07242750187166" cy="246.28504833208555" r="1.5" fill="#ffffff" stroke="#000000" stroke-width="1"/></g><g data-channel="cell" data-cell-index="23" data-cell-row="5" data-cell-col="3" data-cell-blank="true"/></g></g><g data-channel="color-bar"><g data-color-bar-rank="0" data-color-bar-band="R"><rect x="1" y="1" width="10.0" height="84.39665404754193" fill="#ff3f2f"/><text x="6.0" y="43.198327023770965" fill="#000000" style="font-family: &quot;DejaVu Sans Mono&quot;, &quot;Consolas&quot;, &quot;Menlo&quot;, &quot;Liberation Mono&quot;, monospace; font-size: 8.5px;" text-anchor="middle" dominant-baseline="central" data-color-bar-letter="true">r</text></g><g data-color-bar-rank="1" data-color-bar-band="G"><rect x="1" y="85.39665404754193" width="10.0" height="79.39678436935318" fill="#ffd966"/><text x="6.0" y="125.09504623221852" fill="#000000" style="font-family: &quot;DejaVu Sans Mono&quot;, &quot;Consolas&quot;, &quot;Menlo&quot;, &quot;Liberation Mono&quot;, monospace; font-size: 8.5px;" text-anchor="middle" dominant-baseline="central" data-color-bar-letter="true">g</text></g><g data-color-bar-rank="2" data-color-bar-band="B"><rect x="1" y="164.79343841689513" width="10.0" height="74.62242924659849" fill="#2f3fbf"/><text x="6.0" y="202.10465304019436" fill="#ffffff" style="font-family: &quot;DejaVu Sans Mono&quot;, &quot;Consolas&quot;, &quot;Menlo&quot;, &quot;Liberation Mono&quot;, monospace; font-size: 8.5px;" text-anchor="middle" dominant-baseline="central" data-color-bar-letter="true">b</text></g><g data-color-bar-rank="3" data-color-bar-band="K"><rect x="1" y="239.4158676634936" width="10.0" height="61.5841323365064" fill="#000000"/><text x="6.0" y="270.2079338317468" fill="#ffffff" style="font-family: &quot;DejaVu Sans Mono&quot;, &quot;Consolas&quot;, &quot;Menlo&quot;, &quot;Liberation Mono&quot;, monospace; font-size: 8.5px;" text-anchor="middle" dominant-baseline="central" data-color-bar-letter="true">k</text></g></g><g data-channel="label-top"><text x="17.0" y="16.0" fill="#a00000" style="font-family: &quot;DejaVu Sans Mono&quot;, &quot;Consolas&quot;, &quot;Menlo&quot;, &quot;Liberation Mono&quot;, monospace; font-size: 12.0px;" dominant-baseline="central" font-weight="bold">part of </text><text x="74.6" y="16.0" fill="#666666" style="font-family: &quot;DejaVu Sans Mono&quot;, &quot;Consolas&quot;, &quot;Menlo&quot;, &quot;Liberation Mono&quot;, monospace; font-size: 12.0px;" dominant-baseline="central">ADA Shelley: addr1...</text></g><g data-channel="label-bottom"><text x="257.0" y="286.0" fill="#666666" style="font-family: &quot;DejaVu Sans Mono&quot;, &quot;Consolas&quot;, &quot;Menlo&quot;, &quot;Liberation Mono&quot;, monospace; font-size: 12.0px;" text-anchor="end" dominant-baseline="central">...htm0rl</text></g><line x1="0" y1="0.5" x2="263.0" y2="0.5" stroke="#808080" stroke-width="1" shape-rendering="crispEdges"/><line x1="262.5" y1="0" x2="262.5" y2="302.0" stroke="#808080" stroke-width="1" shape-rendering="crispEdges"/><line x1="0" y1="301.5" x2="263.0" y2="301.5" stroke="#808080" stroke-width="1" shape-rendering="crispEdges"/><line x1="0.5" y1="0" x2="0.5" y2="302.0" stroke="#808080" stroke-width="1" shape-rendering="crispEdges"/><line x1="11.5" y1="0" x2="11.5" y2="302.0" stroke="#808080" stroke-width="1" shape-rendering="crispEdges"/></svg>