<svg width="213" height="192" viewBox="0 0 213 192" xmlns="http://www.w3.org/2000/svg" data-entviz-version="v10" data-entviz-lib="0.10.0" data-input-bytes="43" data-cols="3" data-rows="4"><defs><clipPath id="grid-clip-c1107aca3ff3aaee-3x4"><rect x="27" y="26" width="180" height="160"/></clipPath></defs><rect x="0" y="0" width="213" height="192" fill="#ffffff"/><g data-channel="grid"><rect x="27" y="26" width="180" height="160" fill="#e7be00"/><g><rect x="33" y="26" width="6" height="10" fill="#2f3fbf"/><rect x="45" y="26" width="6" height="10" fill="#2f3fbf"/><rect x="51" y="26" width="6" height="10" fill="#2f3fbf"/><rect x="57" y="26" width="6" height="10" fill="#2f3fbf"/><rect x="63" y="26" width="6" height="10" fill="#2f3fbf"/><rect x="81" y="56" width="6" height="10" fill="#2f3fbf"/><rect x="57" y="56" width="6" height="10" fill="#2f3fbf"/><rect x="27" y="46" width="6" height="10" fill="#2f3fbf"/><rect x="27" y="36" width="6" height="10" fill="#2f3fbf"/><rect x="147" y="26" width="6" height="10" fill="#2f3fbf"/><rect x="153" y="26" width="6" height="10" fill="#2f3fbf"/><rect x="171" y="26" width="6" height="10" fill="#2f3fbf"/><rect x="177" y="26" width="6" height="10" fill="#2f3fbf"/><rect x="183" y="26" width="6" height="10" fill="#2f3fbf"/><rect x="189" y="26" width="6" height="10" fill="#2f3fbf"/><rect x="195" y="26" width="6" height="10" fill="#2f3fbf"/><rect x="201" y="26" width="6" height="10" fill="#2f3fbf"/><rect x="201" y="36" width="6" height="10" fill="#2f3fbf"/><rect x="201" y="46" width="6" height="10" fill="#2f3fbf"/><rect x="201" y="56" width="6" height="10" fill="#2f3fbf"/><rect x="195" y="56" width="6" height="10" fill="#2f3fbf"/><rect x="171" y="56" width="6" height="10" fill="#2f3fbf"/><rect x="159" y="56" width="6" height="10" fill="#2f3fbf"/><rect x="147" y="46" width="6" height="10" fill="#2f3fbf"/><rect x="147" y="36" width="6" height="10" fill="#2f3fbf"/><rect x="39" y="66" width="6" height="10" fill="#2f3fbf"/><rect x="45" y="66" width="6" height="10" fill="#2f3fbf"/><rect x="51" y="66" width="6" height="10" fill="#2f3fbf"/><rect x="57" y="66" width="6" height="10" fill="#2f3fbf"/><rect x="69" y="66" width="6" height="10" fill="#2f3fbf"/><rect x="81" y="66" width="6" height="10" fill="#2f3fbf"/><rect x="81" y="76" width="6" height="10" fill="#2f3fbf"/><rect x="81" y="86" width="6" height="10" fill="#2f3fbf"/><rect x="75" y="96" width="6" height="10" fill="#2f3fbf"/><rect x="69" y="96" width="6" height="10" fill="#2f3fbf"/><rect x="63" y="96" width="6" height="10" fill="#2f3fbf"/><rect x="51" y="96" width="6" height="10" fill="#2f3fbf"/><rect x="39" y="96" width="6" height="10" fill="#2f3fbf"/><rect x="27" y="96" width="6" height="10" fill="#2f3fbf"/><rect x="27" y="76" width="6" height="10" fill="#2f3fbf"/><rect x="87" y="66" width="6" height="10" fill="#2f3fbf"/><rect x="93" y="66" width="6" height="10" fill="#2f3fbf"/><rect x="117" y="66" width="6" height="10" fill="#2f3fbf"/><rect x="123" y="66" width="6" height="10" fill="#2f3fbf"/><rect x="141" y="66" width="6" height="10" fill="#2f3fbf"/><rect x="141" y="76" width="6" height="10" fill="#2f3fbf"/><rect x="135" y="96" width="6" height="10" fill="#2f3fbf"/><rect x="117" y="96" width="6" height="10" fill="#2f3fbf"/><rect x="99" y="96" width="6" height="10" fill="#2f3fbf"/><rect x="93" y="96" width="6" height="10" fill="#2f3fbf"/><rect x="87" y="86" width="6" height="10" fill="#2f3fbf"/><rect x="147" y="66" width="6" height="10" fill="#ffffff"/><rect x="153" y="66" width="6" height="10" fill="#ffffff"/><rect x="177" y="66" width="6" height="10" fill="#ffffff"/><rect x="189" y="66" width="6" height="10" fill="#ffffff"/><rect x="195" y="66" width="6" height="10" fill="#ffffff"/><rect x="201" y="66" width="6" height="10" fill="#ffffff"/><rect x="201" y="76" width="6" height="10" fill="#ffffff"/><rect x="201" y="86" width="6" height="10" fill="#ffffff"/><rect x="183" y="96" width="6" height="10" fill="#ffffff"/><rect x="165" y="96" width="6" height="10" fill="#ffffff"/><rect x="153" y="96" width="6" height="10" fill="#ffffff"/><rect x="147" y="96" width="6" height="10" fill="#ffffff"/><rect x="147" y="76" width="6" height="10" fill="#ffffff"/><rect x="87" y="106" width="6" height="10" fill="#ff3f2f"/><rect x="105" y="106" width="6" height="10" fill="#ff3f2f"/><rect x="129" y="106" width="6" height="10" fill="#ff3f2f"/><rect x="141" y="126" width="6" height="10" fill="#ff3f2f"/><rect x="141" y="136" width="6" height="10" fill="#ff3f2f"/><rect x="123" y="136" width="6" height="10" fill="#ff3f2f"/><rect x="111" y="136" width="6" height="10" fill="#ff3f2f"/><rect x="105" y="136" width="6" height="10" fill="#ff3f2f"/><rect x="99" y="136" width="6" height="10" fill="#ff3f2f"/><rect x="93" y="136" width="6" height="10" fill="#ff3f2f"/><rect x="87" y="136" width="6" height="10" fill="#ff3f2f"/><rect x="87" y="126" width="6" height="10" fill="#ff3f2f"/><rect x="87" y="116" width="6" height="10" fill="#ff3f2f"/><rect x="171" y="106" width="6" height="10" fill="#ffffff"/><rect x="177" y="106" width="6" height="10" fill="#ffffff"/><rect x="183" y="106" width="6" height="10" fill="#ffffff"/><rect x="189" y="106" width="6" height="10" fill="#ffffff"/><rect x="201" y="106" width="6" height="10" fill="#ffffff"/><rect x="201" y="116" width="6" height="10" fill="#ffffff"/><rect x="195" y="136" width="6" height="10" fill="#ffffff"/><rect x="189" y="136" width="6" height="10" fill="#ffffff"/><rect x="183" y="136" width="6" height="10" fill="#ffffff"/><rect x="165" y="136" width="6" height="10" fill="#ffffff"/><rect x="159" y="136" width="6" height="10" fill="#ffffff"/><rect x="153" y="136" width="6" height="10" fill="#ffffff"/><rect x="147" y="136" width="6" height="10" fill="#ffffff"/><rect x="147" y="126" width="6" height="10" fill="#ffffff"/><rect x="147" y="116" width="6" height="10" fill="#ffffff"/><rect x="27" y="146" width="6" height="10" fill="#000000"/><rect x="33" y="146" width="6" height="10" fill="#000000"/><rect x="39" y="146" width="6" height="10" fill="#000000"/><rect x="51" y="146" width="6" height="10" fill="#000000"/><rect x="57" y="146" width="6" height="10" fill="#000000"/><rect x="69" y="146" width="6" height="10" fill="#000000"/><rect x="75" y="146" width="6" height="10" fill="#000000"/><rect x="81" y="156" width="6" height="10" fill="#000000"/><rect x="81" y="176" width="6" height="10" fill="#000000"/><rect x="57" y="176" width="6" height="10" fill="#000000"/><rect x="51" y="176" width="6" height="10" fill="#000000"/><rect x="33" y="176" width="6" height="10" fill="#000000"/><rect x="27" y="166" width="6" height="10" fill="#000000"/><rect x="87" y="146" width="6" height="10" fill="#2f3fbf"/><rect x="99" y="146" width="6" height="10" fill="#2f3fbf"/><rect x="117" y="146" width="6" height="10" fill="#2f3fbf"/><rect x="123" y="146" width="6" height="10" fill="#2f3fbf"/><rect x="129" y="146" width="6" height="10" fill="#2f3fbf"/><rect x="135" y="146" width="6" height="10" fill="#2f3fbf"/><rect x="141" y="166" width="6" height="10" fill="#2f3fbf"/><rect x="141" y="176" width="6" height="10" fill="#2f3fbf"/><rect x="123" y="176" width="6" height="10" fill="#2f3fbf"/><rect x="117" y="176" width="6" height="10" fill="#2f3fbf"/><rect x="99" y="176" width="6" height="10" fill="#2f3fbf"/><rect x="147" y="146" width="6" height="10" fill="#2f3fbf"/><rect x="153" y="146" width="6" height="10" fill="#2f3fbf"/><rect x="165" y="146" width="6" height="10" fill="#2f3fbf"/><rect x="171" y="146" width="6" height="10" fill="#2f3fbf"/><rect x="195" y="146" width="6" height="10" fill="#2f3fbf"/><rect x="201" y="166" width="6" height="10" fill="#2f3fbf"/><rect x="195" y="176" width="6" height="10" fill="#2f3fbf"/><rect x="189" y="176" width="6" height="10" fill="#2f3fbf"/><rect x="183" y="176" width="6" height="10" fill="#2f3fbf"/><rect x="177" y="176" width="6" height="10" fill="#2f3fbf"/><rect x="165" y="176" width="6" height="10" fill="#2f3fbf"/><rect x="153" y="176" width="6" height="10" fill="#2f3fbf"/><rect x="147" y="176" width="6" height="10" fill="#2f3fbf"/><rect x="147" y="156" width="6" height="10" fill="#2f3fbf"/></g><g clip-path="url(#grid-clip-c1107aca3ff3aaee-3x4)" data-channel="ellipse" data-ellipse-anchor-x="147" data-ellipse-anchor-y="146" data-ellipse-rx="49.554" data-ellipse-ry="45.481" data-ellipse-rotation-deg="180"><ellipse cx="147" cy="146" rx="49.554" ry="45.481" transform="rotate(180 147 146)" fill="#000000" stroke="#000000" fill-opacity="0.2" stroke-opacity="0.3" stroke-width="2"/></g><g><g data-channel="cell" data-cell-index="0" data-cell-row="0" data-cell-col="0"><rect x="33" y="36" width="48" height="20" fill="#aadd05"/><text x="57" y="46" fill="#000000" style="font-family: &quot;JetBrains Mono&quot;, &quot;Menlo&quot;, &quot;Consolas&quot;, &quot;DejaVu Sans Mono&quot;, &quot;Liberation Mono&quot;, &quot;Roboto Mono&quot;, &quot;Noto Sans Mono&quot;, monospace; font-size: 16px;" text-anchor="middle" dominant-baseline="central">qhw6</text></g><g data-channel="cell" data-cell-index="1" data-cell-row="0" data-cell-col="1" data-cell-blank="true" data-cell-blank-map="true"><rect x="93" y="36" width="48" height="20" rx="10" ry="10" fill="#ffffff" stroke="#000000" stroke-width="1"/><circle cx="117" cy="53.5" r="3.5" fill="#1d4ed8" data-blank-map-min="3,1"/><path d="M 112.8,48.5 H 121.2 M 117,44.3 V 52.7" fill="none" stroke="#d62828" stroke-width="1.925" stroke-linecap="butt" data-blank-map-max="2,1"/></g><g data-channel="cell" data-cell-index="2" data-cell-row="0" data-cell-col="2" data-cell-quartile="4"><rect x="153" y="36" width="48" height="20" fill="#662d6a"/><text x="177" y="46" fill="#ffffff" style="font-family: &quot;JetBrains Mono&quot;, &quot;Menlo&quot;, &quot;Consolas&quot;, &quot;DejaVu Sans Mono&quot;, &quot;Liberation Mono&quot;, &quot;Roboto Mono&quot;, &quot;Noto Sans Mono&quot;, monospace; font-size: 16px;" text-anchor="middle" dominant-baseline="central">dgkk</text><polygon points="153,56 153,46 163,56" fill="#ffffff"/></g><g data-channel="cell" data-cell-index="3" data-cell-row="1" data-cell-col="0"><rect x="33" y="76" width="48" height="20" fill="#5598a2"/><text x="57" y="86" fill="#000000" style="font-family: &quot;JetBrains Mono&quot;, &quot;Menlo&quot;, &quot;Consolas&quot;, &quot;DejaVu Sans Mono&quot;, &quot;Liberation Mono&quot;, &quot;Roboto Mono&quot;, &quot;Noto Sans Mono&quot;, monospace; font-size: 16px;" text-anchor="middle" dominant-baseline="central">52v9</text></g><g data-channel="cell" data-cell-index="4" data-cell-row="1" data-cell-col="1" data-cell-quartile="3"><rect x="93" y="76" width="48" height="20" fill="#cc05c8"/><text x="117" y="86" fill="#ffffff" style="font-family: &quot;JetBrains Mono&quot;, &quot;Menlo&quot;, &quot;Consolas&quot;, &quot;DejaVu Sans Mono&quot;, &quot;Liberation Mono&quot;, &quot;Roboto Mono&quot;, &quot;Noto Sans Mono&quot;, monospace; font-size: 16px;" text-anchor="middle" dominant-baseline="central">eqzu</text><polygon points="141,96 141,86 131,96" fill="#ffffff"/></g><g data-channel="cell" data-cell-index="5" data-cell-row="1" data-cell-col="2"><rect x="153" y="76" width="48" height="20" fill="#eeb9b4"/><text x="177" y="86" fill="#000000" style="font-family: &quot;JetBrains Mono&quot;, &quot;Menlo&quot;, &quot;Consolas&quot;, &quot;DejaVu Sans Mono&quot;, &quot;Liberation Mono&quot;, &quot;Roboto Mono&quot;, &quot;Noto Sans Mono&quot;, monospace; font-size: 16px;" text-anchor="middle" dominant-baseline="central">kju7</text></g><g data-channel="cell" data-cell-index="6" data-cell-row="2" data-cell-col="0" data-cell-blank="true"><rect x="33" y="116" width="48" height="20" rx="10" ry="10" fill="#000000" stroke="#000000" stroke-width="1"/></g><g data-channel="cell" data-cell-index="7" data-cell-row="2" data-cell-col="1" data-cell-quartile="2"><rect x="93" y="116" width="48" height="20" fill="#11c060"/><text x="117" y="126" fill="#000000" style="font-family: &quot;JetBrains Mono&quot;, &quot;Menlo&quot;, &quot;Consolas&quot;, &quot;DejaVu Sans Mono&quot;, &quot;Liberation Mono&quot;, &quot;Roboto Mono&quot;, &quot;Noto Sans Mono&quot;, monospace; font-size: 16px;" text-anchor="middle" dominant-baseline="central">vrqp</text><polygon points="141,116 131,116 141,126" fill="#000000"/></g><g data-channel="cell" data-cell-index="8" data-cell-row="2" data-cell-col="2"><rect x="153" y="116" width="48" height="20" fill="#bbe473"/><text x="177" y="126" fill="#000000" style="font-family: &quot;JetBrains Mono&quot;, &quot;Menlo&quot;, &quot;Consolas&quot;, &quot;DejaVu Sans Mono&quot;, &quot;Liberation Mono&quot;, &quot;Roboto Mono&quot;, &quot;Noto Sans Mono&quot;, monospace; font-size: 16px;" text-anchor="middle" dominant-baseline="central">w0jt</text></g><g data-channel="cell" data-cell-index="9" data-cell-row="3" data-cell-col="0" data-cell-quartile="1"><rect x="33" y="156" width="48" height="20" fill="#ffbfab"/><text x="57" y="166" fill="#000000" style="font-family: &quot;JetBrains Mono&quot;, &quot;Menlo&quot;, &quot;Consolas&quot;, &quot;DejaVu Sans Mono&quot;, &quot;Liberation Mono&quot;, &quot;Roboto Mono&quot;, &quot;Noto Sans Mono&quot;, monospace; font-size: 16px;" text-anchor="middle" dominant-baseline="central">4wll</text><polygon points="33,156 43,156 33,166" fill="#000000"/></g><g data-channel="cell" data-cell-index="10" data-cell-row="3" data-cell-col="1"><rect x="93" y="156" width="48" height="20" fill="#3375d6"/><text x="117" y="166" fill="#ffffff" style="font-family: &quot;JetBrains Mono&quot;, &quot;Menlo&quot;, &quot;Consolas&quot;, &quot;DejaVu Sans Mono&quot;, &quot;Liberation Mono&quot;, &quot;Roboto Mono&quot;, &quot;Noto Sans Mono&quot;, monospace; font-size: 16px;" text-anchor="middle" dominant-baseline="central">6e6n</text></g><g data-channel="cell" data-cell-index="11" data-cell-row="3" data-cell-col="2"><rect x="153" y="156" width="48" height="20" fill="#1428a8"/><text x="177" y="166" fill="#ffffff" style="font-family: &quot;JetBrains Mono&quot;, &quot;Menlo&quot;, &quot;Consolas&quot;, &quot;DejaVu Sans Mono&quot;, &quot;Liberation Mono&quot;, &quot;Roboto Mono&quot;, &quot;Noto Sans Mono&quot;, monospace; font-size: 16px;" text-anchor="middle" dominant-baseline="central">4q5</text></g></g></g><g data-channel="color-bar" data-bar-slots="15" data-bar-marker-left="9" data-bar-marker-right="7"><g data-color-bar-rank="0" data-color-bar-band="R"><rect x="1" y="1" width="20" height="63.264" fill="#ff3f2f"/><text x="11" y="60.744" fill="#000000" style="font-family: &quot;JetBrains Mono&quot;, &quot;Menlo&quot;, &quot;Consolas&quot;, &quot;DejaVu Sans Mono&quot;, &quot;Liberation Mono&quot;, &quot;Roboto Mono&quot;, &quot;Noto Sans Mono&quot;, monospace; font-size: 16px;" text-anchor="middle" data-color-bar-letter="true">r</text></g><g data-color-bar-rank="1" data-color-bar-band="W"><rect x="1" y="64.264" width="20" height="19.265" fill="#ffffff"/><text x="11" y="80.01" fill="#000000" style="font-family: &quot;JetBrains Mono&quot;, &quot;Menlo&quot;, &quot;Consolas&quot;, &quot;DejaVu Sans Mono&quot;, &quot;Liberation Mono&quot;, &quot;Roboto Mono&quot;, &quot;Noto Sans Mono&quot;, monospace; font-size: 16px;" text-anchor="middle" data-color-bar-letter="true">w</text></g><g data-color-bar-rank="2" data-color-bar-band="K"><rect x="1" y="83.53" width="20" height="63.264" fill="#000000"/><text x="11" y="143.274" fill="#ffffff" style="font-family: &quot;JetBrains Mono&quot;, &quot;Menlo&quot;, &quot;Consolas&quot;, &quot;DejaVu Sans Mono&quot;, &quot;Liberation Mono&quot;, &quot;Roboto Mono&quot;, &quot;Noto Sans Mono&quot;, monospace; font-size: 16px;" text-anchor="middle" data-color-bar-letter="true">k</text></g><g data-color-bar-rank="3" data-color-bar-band="B"><rect x="1" y="146.794" width="20" height="44.206" fill="#2f3fbf"/><text x="11" y="187.48" fill="#ffffff" style="font-family: &quot;JetBrains Mono&quot;, &quot;Menlo&quot;, &quot;Consolas&quot;, &quot;DejaVu Sans Mono&quot;, &quot;Liberation Mono&quot;, &quot;Roboto Mono&quot;, &quot;Noto Sans Mono&quot;, monospace; font-size: 16px;" text-anchor="middle" data-color-bar-letter="true">b</text></g><circle cx="5.6" cy="121.333" r="3.4" fill="#ffffff" stroke="#000000" stroke-width="0.75" data-bar-marker="left"/><circle cx="16.4" cy="96" r="3.4" fill="#ffffff" stroke="#000000" stroke-width="0.75" data-bar-marker="right"/></g><g data-channel="label-top"><text x="27" y="16" fill="#666666" style="font-family: &quot;JetBrains Mono&quot;, &quot;Menlo&quot;, &quot;Consolas&quot;, &quot;DejaVu Sans Mono&quot;, &quot;Liberation Mono&quot;, &quot;Roboto Mono&quot;, &quot;Noto Sans Mono&quot;, monospace; font-size: 12px;" dominant-baseline="central">LTC: ltc1...</text></g><line x1="0" y1="0.5" x2="213" y2="0.5" stroke="#808080" stroke-width="1" shape-rendering="crispEdges"/><line x1="212.5" y1="0" x2="212.5" y2="192" stroke="#808080" stroke-width="1" shape-rendering="crispEdges"/><line x1="0" y1="191.5" x2="213" y2="191.5" stroke="#808080" stroke-width="1" shape-rendering="crispEdges"/><line x1="0.5" y1="0" x2="0.5" y2="192" stroke="#808080" stroke-width="1" shape-rendering="crispEdges"/><line x1="21.5" y1="0" x2="21.5" y2="192" stroke="#808080" stroke-width="1" shape-rendering="crispEdges"/></svg>