<svg width="213" height="192" viewBox="0 0 213 192" xmlns="http://www.w3.org/2000/svg" font-family="&quot;JetBrains Mono&quot;, &quot;Menlo&quot;, &quot;Consolas&quot;, &quot;DejaVu Sans Mono&quot;, &quot;Liberation Mono&quot;, &quot;Roboto Mono&quot;, &quot;Noto Sans Mono&quot;, monospace" data-entviz-version="v10" data-entviz-lib="0.10.0" data-input-bytes="43" data-cols="3" data-rows="4"><defs><clipPath id="grid-clip-c1107aca3ff3aaee-3x4"><rect x="27" y="26" width="180" height="160"/></clipPath></defs><rect x="0" y="0" width="213" height="192" fill="#ffffff"/><g data-channel="grid"><rect x="27" y="26" width="180" height="160" fill="#e7be00"/><g><path fill="#2f3fbf" d="M33 26h6v10h-6zM45 26h6v10h-6zM51 26h6v10h-6zM57 26h6v10h-6zM63 26h6v10h-6zM81 56h6v10h-6zM57 56h6v10h-6zM27 46h6v10h-6zM27 36h6v10h-6z"/><path fill="#2f3fbf" d="M147 26h6v10h-6zM153 26h6v10h-6zM171 26h6v10h-6zM177 26h6v10h-6zM183 26h6v10h-6zM189 26h6v10h-6zM195 26h6v10h-6zM201 26h6v10h-6zM201 36h6v10h-6zM201 46h6v10h-6zM201 56h6v10h-6zM195 56h6v10h-6zM171 56h6v10h-6zM159 56h6v10h-6zM147 46h6v10h-6zM147 36h6v10h-6z"/><path fill="#2f3fbf" d="M39 66h6v10h-6zM45 66h6v10h-6zM51 66h6v10h-6zM57 66h6v10h-6zM69 66h6v10h-6zM81 66h6v10h-6zM81 76h6v10h-6zM81 86h6v10h-6zM75 96h6v10h-6zM69 96h6v10h-6zM63 96h6v10h-6zM51 96h6v10h-6zM39 96h6v10h-6zM27 96h6v10h-6zM27 76h6v10h-6z"/><path fill="#2f3fbf" d="M87 66h6v10h-6zM93 66h6v10h-6zM117 66h6v10h-6zM123 66h6v10h-6zM141 66h6v10h-6zM141 76h6v10h-6zM135 96h6v10h-6zM117 96h6v10h-6zM99 96h6v10h-6zM93 96h6v10h-6zM87 86h6v10h-6z"/><path fill="#ffffff" d="M147 66h6v10h-6zM153 66h6v10h-6zM177 66h6v10h-6zM189 66h6v10h-6zM195 66h6v10h-6zM201 66h6v10h-6zM201 76h6v10h-6zM201 86h6v10h-6zM183 96h6v10h-6zM165 96h6v10h-6zM153 96h6v10h-6zM147 96h6v10h-6zM147 76h6v10h-6z"/><path fill="#ff3f2f" d="M87 106h6v10h-6zM105 106h6v10h-6zM129 106h6v10h-6zM141 126h6v10h-6zM141 136h6v10h-6zM123 136h6v10h-6zM111 136h6v10h-6zM105 136h6v10h-6zM99 136h6v10h-6zM93 136h6v10h-6zM87 136h6v10h-6zM87 126h6v10h-6zM87 116h6v10h-6z"/><path fill="#ffffff" d="M171 106h6v10h-6zM177 106h6v10h-6zM183 106h6v10h-6zM189 106h6v10h-6zM201 106h6v10h-6zM201 116h6v10h-6zM195 136h6v10h-6zM189 136h6v10h-6zM183 136h6v10h-6zM165 136h6v10h-6zM159 136h6v10h-6zM153 136h6v10h-6zM147 136h6v10h-6zM147 126h6v10h-6zM147 116h6v10h-6z"/><path fill="#000000" d="M27 146h6v10h-6zM33 146h6v10h-6zM39 146h6v10h-6zM51 146h6v10h-6zM57 146h6v10h-6zM69 146h6v10h-6zM75 146h6v10h-6zM81 156h6v10h-6zM81 176h6v10h-6zM57 176h6v10h-6zM51 176h6v10h-6zM33 176h6v10h-6zM27 166h6v10h-6z"/><path fill="#2f3fbf" d="M87 146h6v10h-6zM99 146h6v10h-6zM117 146h6v10h-6zM123 146h6v10h-6zM129 146h6v10h-6zM135 146h6v10h-6zM141 166h6v10h-6zM141 176h6v10h-6zM123 176h6v10h-6zM117 176h6v10h-6zM99 176h6v10h-6z"/><path fill="#2f3fbf" d="M147 146h6v10h-6zM153 146h6v10h-6zM165 146h6v10h-6zM171 146h6v10h-6zM195 146h6v10h-6zM201 166h6v10h-6zM195 176h6v10h-6zM189 176h6v10h-6zM183 176h6v10h-6zM177 176h6v10h-6zM165 176h6v10h-6zM153 176h6v10h-6zM147 176h6v10h-6zM147 156h6v10h-6z"/></g><g clip-path="url(#grid-clip-c1107aca3ff3aaee-3x4)" data-channel="ellipse" data-ellipse-anchor-x="147" data-ellipse-anchor-y="146" data-ellipse-rx="49.554" data-ellipse-ry="45.481" data-ellipse-rotation-deg="180"><ellipse cx="147" cy="146" rx="49.554" ry="45.481" transform="rotate(180 147 146)" fill="#000000" stroke="#000000" fill-opacity="0.2" stroke-opacity="0.3" stroke-width="2"/></g><g><g data-channel="cell" data-cell-index="0" data-cell-row="0" data-cell-col="0" data-surround-bits="0xc1107a" data-edge-color="#2f3fbf"><rect x="33" y="36" width="48" height="20" fill="#aadd05"/><text x="57" y="46" fill="#000000" font-size="16" text-anchor="middle" dominant-baseline="central">qhw6</text></g><g data-channel="cell" data-cell-index="1" data-cell-row="0" data-cell-col="1" data-cell-blank="true" data-cell-blank-map="true"><rect x="93" y="36" width="48" height="20" rx="10" ry="10" fill="#ffffff" stroke="#000000" stroke-width="1"/><circle cx="117" cy="53.5" r="3.5" fill="#1d4ed8" data-blank-map-min="3,1"/><path d="M 112.8,48.5 H 121.2 M 117,44.3 V 52.7" fill="none" stroke="#d62828" stroke-width="1.925" stroke-linecap="butt" data-blank-map-max="2,1"/></g><g data-channel="cell" data-cell-index="2" data-cell-row="0" data-cell-col="2" data-surround-bits="0xca3ff3" data-edge-color="#2f3fbf" data-cell-quartile="4"><rect x="153" y="36" width="48" height="20" fill="#662d6a"/><text x="177" y="46" fill="#ffffff" font-size="16" text-anchor="middle" dominant-baseline="central">dgkk</text><polygon points="153,56 153,46 163,56" fill="#ffffff"/></g><g data-channel="cell" data-cell-index="3" data-cell-row="1" data-cell-col="0" data-surround-bits="0xaaeebc" data-edge-color="#2f3fbf"><rect x="33" y="76" width="48" height="20" fill="#5598a2"/><text x="57" y="86" fill="#000000" font-size="16" text-anchor="middle" dominant-baseline="central">52v9</text></g><g data-channel="cell" data-cell-index="4" data-cell-row="1" data-cell-col="1" data-surround-bits="0x592663" data-edge-color="#2f3fbf" data-cell-quartile="3"><rect x="93" y="76" width="48" height="20" fill="#cc05c8"/><text x="117" y="86" fill="#ffffff" font-size="16" text-anchor="middle" dominant-baseline="central">eqzu</text><polygon points="141,96 141,86 131,96" fill="#ffffff"/></g><g data-channel="cell" data-cell-index="5" data-cell-row="1" data-cell-col="2" data-surround-bits="0xb48fa3" data-edge-color="#ffffff"><rect x="153" y="76" width="48" height="20" fill="#eeb9b4"/><text x="177" y="86" fill="#000000" font-size="16" text-anchor="middle" dominant-baseline="central">kju7</text></g><g data-channel="cell" data-cell-index="6" data-cell-row="2" data-cell-col="0" data-cell-blank="true"><rect x="33" y="116" width="48" height="20" rx="10" ry="10" fill="#000000" stroke="#000000" stroke-width="1"/></g><g data-channel="cell" data-cell-index="7" data-cell-row="2" data-cell-col="1" data-surround-bits="0xfe9889" data-edge-color="#ff3f2f" data-cell-quartile="2"><rect x="93" y="116" width="48" height="20" fill="#11c060"/><text x="117" y="126" fill="#000000" font-size="16" text-anchor="middle" dominant-baseline="central">vrqp</text><polygon points="141,116 131,116 141,126" fill="#000000"/></g><g data-channel="cell" data-cell-index="8" data-cell-row="2" data-cell-col="2" data-surround-bits="0xfce6f0" data-edge-color="#ffffff"><rect x="153" y="116" width="48" height="20" fill="#bbe473"/><text x="177" y="126" fill="#000000" font-size="16" text-anchor="middle" dominant-baseline="central">w0jt</text></g><g data-channel="cell" data-cell-index="9" data-cell-row="3" data-cell-col="0" data-surround-bits="0x5315b7" data-edge-color="#000000" data-cell-quartile="1"><rect x="33" y="156" width="48" height="20" fill="#ffbfab"/><text x="57" y="166" fill="#000000" font-size="16" text-anchor="middle" dominant-baseline="central">4wll</text><polygon points="33,156 43,156 33,166" fill="#000000"/></g><g data-channel="cell" data-cell-index="10" data-cell-row="3" data-cell-col="1" data-surround-bits="0x999e5" data-edge-color="#2f3fbf"><rect x="93" y="156" width="48" height="20" fill="#3375d6"/><text x="117" y="166" fill="#ffffff" font-size="16" text-anchor="middle" dominant-baseline="central">6e6n</text></g><g data-channel="cell" data-cell-index="11" data-cell-row="3" data-cell-col="2" data-surround-bits="0xb5e91b" data-edge-color="#2f3fbf"><rect x="153" y="156" width="48" height="20" fill="#1428a8"/><text x="177" y="166" fill="#ffffff" font-size="16" text-anchor="middle" dominant-baseline="central">4q5</text></g></g></g><g data-channel="color-bar" data-bar-slots="15" data-bar-marker-left="9" data-bar-marker-right="7"><g data-color-bar-rank="0" data-color-bar-band="R"><rect x="1" y="1" width="20" height="63.264" fill="#ff3f2f"/><text x="11" y="60.744" fill="#000000" font-size="16" text-anchor="middle" data-color-bar-letter="true">r</text></g><g data-color-bar-rank="1" data-color-bar-band="W"><rect x="1" y="64.264" width="20" height="19.265" fill="#ffffff"/><text x="11" y="80.01" fill="#000000" font-size="16" text-anchor="middle" data-color-bar-letter="true">w</text></g><g data-color-bar-rank="2" data-color-bar-band="K"><rect x="1" y="83.53" width="20" height="63.264" fill="#000000"/><text x="11" y="143.274" fill="#ffffff" font-size="16" text-anchor="middle" data-color-bar-letter="true">k</text></g><g data-color-bar-rank="3" data-color-bar-band="B"><rect x="1" y="146.794" width="20" height="44.206" fill="#2f3fbf"/><text x="11" y="187.48" fill="#ffffff" font-size="16" text-anchor="middle" data-color-bar-letter="true">b</text></g><circle cx="5.6" cy="121.333" r="3.4" fill="#ffffff" stroke="#000000" stroke-width="0.75" data-bar-marker="left"/><circle cx="16.4" cy="96" r="3.4" fill="#ffffff" stroke="#000000" stroke-width="0.75" data-bar-marker="right"/></g><g data-channel="label-top"><text x="27" y="16" fill="#666666" font-size="12" dominant-baseline="central">LTC: ltc1...</text></g><line x1="0" y1="0.5" x2="213" y2="0.5" stroke="#808080" stroke-width="1" shape-rendering="crispEdges"/><line x1="212.5" y1="0" x2="212.5" y2="192" stroke="#808080" stroke-width="1" shape-rendering="crispEdges"/><line x1="0" y1="191.5" x2="213" y2="191.5" stroke="#808080" stroke-width="1" shape-rendering="crispEdges"/><line x1="0.5" y1="0" x2="0.5" y2="192" stroke="#808080" stroke-width="1" shape-rendering="crispEdges"/><line x1="21.5" y1="0" x2="21.5" y2="192" stroke="#808080" stroke-width="1" shape-rendering="crispEdges"/></svg>