<svg width="203.0" height="222.0" xmlns="http://www.w3.org/2000/svg"><defs><clipPath id="grid-clip-9d028741-3x4"><rect x="17.0" y="31.0" width="180.0" height="160.0"/></clipPath></defs><rect x="0" y="0" width="203.0" height="222.0" fill="#ffffff"/><rect x="17.0" y="31.0" width="180.0" height="160.0" fill="#ff3f2f"/><rect x="17.0" y="31.0" width="6.0" height="10.0" fill="#000000"/><rect x="23.0" y="31.0" width="6.0" height="10.0" fill="#000000"/><rect x="29.0" y="31.0" width="6.0" height="10.0" fill="#000000"/><rect x="59.0" y="31.0" width="6.0" height="10.0" fill="#000000"/><rect x="71.0" y="31.0" width="6.0" height="10.0" fill="#000000"/><rect x="47.0" y="61.0" width="6.0" height="10.0" fill="#000000"/><rect x="35.0" y="61.0" width="6.0" height="10.0" fill="#000000"/><rect x="29.0" y="61.0" width="6.0" height="10.0" fill="#000000"/><rect x="23.0" y="61.0" width="6.0" height="10.0" fill="#000000"/><rect x="17.0" y="41.0" width="6.0" height="10.0" fill="#000000"/><rect x="77.0" y="31.0" width="6.0" height="10.0" fill="#2f3fbf"/><rect x="83.0" y="31.0" width="6.0" height="10.0" fill="#2f3fbf"/><rect x="89.0" y="31.0" width="6.0" height="10.0" fill="#2f3fbf"/><rect x="95.0" y="31.0" width="6.0" height="10.0" fill="#2f3fbf"/><rect x="107.0" y="31.0" width="6.0" height="10.0" fill="#2f3fbf"/><rect x="113.0" y="31.0" width="6.0" height="10.0" fill="#2f3fbf"/><rect x="131.0" y="31.0" width="6.0" height="10.0" fill="#2f3fbf"/><rect x="131.0" y="41.0" width="6.0" height="10.0" fill="#2f3fbf"/><rect x="131.0" y="51.0" width="6.0" height="10.0" fill="#2f3fbf"/><rect x="131.0" y="61.0" width="6.0" height="10.0" fill="#2f3fbf"/><rect x="119.0" y="61.0" width="6.0" height="10.0" fill="#2f3fbf"/><rect x="107.0" y="61.0" width="6.0" height="10.0" fill="#2f3fbf"/><rect x="77.0" y="51.0" width="6.0" height="10.0" fill="#2f3fbf"/><rect x="137.0" y="31.0" width="6.0" height="10.0" fill="#ffd966"/><rect x="143.0" y="31.0" width="6.0" height="10.0" fill="#ffd966"/><rect x="161.0" y="31.0" width="6.0" height="10.0" fill="#ffd966"/><rect x="179.0" y="31.0" width="6.0" height="10.0" fill="#ffd966"/><rect x="191.0" y="31.0" width="6.0" height="10.0" fill="#ffd966"/><rect x="191.0" y="51.0" width="6.0" height="10.0" fill="#ffd966"/><rect x="191.0" y="61.0" width="6.0" height="10.0" fill="#ffd966"/><rect x="179.0" y="61.0" width="6.0" height="10.0" fill="#ffd966"/><rect x="173.0" y="61.0" width="6.0" height="10.0" fill="#ffd966"/><rect x="167.0" y="61.0" width="6.0" height="10.0" fill="#ffd966"/><rect x="137.0" y="61.0" width="6.0" height="10.0" fill="#ffd966"/><rect x="137.0" y="41.0" width="6.0" height="10.0" fill="#ffd966"/><rect x="29.0" y="71.0" width="6.0" height="10.0" fill="#2f3fbf"/><rect x="47.0" y="71.0" width="6.0" height="10.0" fill="#2f3fbf"/><rect x="53.0" y="71.0" width="6.0" height="10.0" fill="#2f3fbf"/><rect x="59.0" y="71.0" width="6.0" height="10.0" fill="#2f3fbf"/><rect x="65.0" y="71.0" width="6.0" height="10.0" fill="#2f3fbf"/><rect x="71.0" y="81.0" width="6.0" height="10.0" fill="#2f3fbf"/><rect x="71.0" y="101.0" width="6.0" height="10.0" fill="#2f3fbf"/><rect x="65.0" y="101.0" width="6.0" height="10.0" fill="#2f3fbf"/><rect x="59.0" y="101.0" width="6.0" height="10.0" fill="#2f3fbf"/><rect x="41.0" y="101.0" width="6.0" height="10.0" fill="#2f3fbf"/><rect x="35.0" y="101.0" width="6.0" height="10.0" fill="#2f3fbf"/><rect x="29.0" y="101.0" width="6.0" height="10.0" fill="#2f3fbf"/><rect x="17.0" y="91.0" width="6.0" height="10.0" fill="#2f3fbf"/><rect x="17.0" y="81.0" width="6.0" height="10.0" fill="#2f3fbf"/><rect x="89.0" y="71.0" width="6.0" height="10.0" fill="#2f3fbf"/><rect x="107.0" y="71.0" width="6.0" height="10.0" fill="#2f3fbf"/><rect x="113.0" y="71.0" width="6.0" height="10.0" fill="#2f3fbf"/><rect x="131.0" y="101.0" width="6.0" height="10.0" fill="#2f3fbf"/><rect x="113.0" y="101.0" width="6.0" height="10.0" fill="#2f3fbf"/><rect x="83.0" y="101.0" width="6.0" height="10.0" fill="#2f3fbf"/><rect x="23.0" y="111.0" width="6.0" height="10.0" fill="#ffd966"/><rect x="29.0" y="111.0" width="6.0" height="10.0" fill="#ffd966"/><rect x="35.0" y="111.0" width="6.0" height="10.0" fill="#ffd966"/><rect x="41.0" y="111.0" width="6.0" height="10.0" fill="#ffd966"/><rect x="53.0" y="111.0" width="6.0" height="10.0" fill="#ffd966"/><rect x="59.0" y="111.0" width="6.0" height="10.0" fill="#ffd966"/><rect x="71.0" y="121.0" width="6.0" height="10.0" fill="#ffd966"/><rect x="59.0" y="141.0" width="6.0" height="10.0" fill="#ffd966"/><rect x="47.0" y="141.0" width="6.0" height="10.0" fill="#ffd966"/><rect x="41.0" y="141.0" width="6.0" height="10.0" fill="#ffd966"/><rect x="35.0" y="141.0" width="6.0" height="10.0" fill="#ffd966"/><rect x="23.0" y="141.0" width="6.0" height="10.0" fill="#ffd966"/><rect x="17.0" y="141.0" width="6.0" height="10.0" fill="#ffd966"/><rect x="17.0" y="131.0" width="6.0" height="10.0" fill="#ffd966"/><rect x="89.0" y="111.0" width="6.0" height="10.0" fill="#ffd966"/><rect x="95.0" y="111.0" width="6.0" height="10.0" fill="#ffd966"/><rect x="101.0" y="111.0" width="6.0" height="10.0" fill="#ffd966"/><rect x="119.0" y="111.0" width="6.0" height="10.0" fill="#ffd966"/><rect x="125.0" y="111.0" width="6.0" height="10.0" fill="#ffd966"/><rect x="131.0" y="131.0" width="6.0" height="10.0" fill="#ffd966"/><rect x="83.0" y="141.0" width="6.0" height="10.0" fill="#ffd966"/><rect x="77.0" y="141.0" width="6.0" height="10.0" fill="#ffd966"/><rect x="77.0" y="131.0" width="6.0" height="10.0" fill="#ffd966"/><rect x="77.0" y="121.0" width="6.0" height="10.0" fill="#ffd966"/><rect x="137.0" y="111.0" width="6.0" height="10.0" fill="#2f3fbf"/><rect x="161.0" y="111.0" width="6.0" height="10.0" fill="#2f3fbf"/><rect x="185.0" y="111.0" width="6.0" height="10.0" fill="#2f3fbf"/><rect x="191.0" y="141.0" width="6.0" height="10.0" fill="#2f3fbf"/><rect x="179.0" y="141.0" width="6.0" height="10.0" fill="#2f3fbf"/><rect x="167.0" y="141.0" width="6.0" height="10.0" fill="#2f3fbf"/><rect x="161.0" y="141.0" width="6.0" height="10.0" fill="#2f3fbf"/><rect x="155.0" y="141.0" width="6.0" height="10.0" fill="#2f3fbf"/><rect x="149.0" y="141.0" width="6.0" height="10.0" fill="#2f3fbf"/><rect x="137.0" y="121.0" width="6.0" height="10.0" fill="#2f3fbf"/><rect x="17.0" y="151.0" width="6.0" height="10.0" fill="#2f3fbf"/><rect x="23.0" y="151.0" width="6.0" height="10.0" fill="#2f3fbf"/><rect x="41.0" y="151.0" width="6.0" height="10.0" fill="#2f3fbf"/><rect x="65.0" y="151.0" width="6.0" height="10.0" fill="#2f3fbf"/><rect x="71.0" y="151.0" width="6.0" height="10.0" fill="#2f3fbf"/><rect x="71.0" y="161.0" width="6.0" height="10.0" fill="#2f3fbf"/><rect x="71.0" y="181.0" width="6.0" height="10.0" fill="#2f3fbf"/><rect x="59.0" y="181.0" width="6.0" height="10.0" fill="#2f3fbf"/><rect x="47.0" y="181.0" width="6.0" height="10.0" fill="#2f3fbf"/><rect x="41.0" y="181.0" width="6.0" height="10.0" fill="#2f3fbf"/><rect x="29.0" y="181.0" width="6.0" height="10.0" fill="#2f3fbf"/><rect x="23.0" y="181.0" width="6.0" height="10.0" fill="#2f3fbf"/><rect x="17.0" y="181.0" width="6.0" height="10.0" fill="#2f3fbf"/><rect x="17.0" y="171.0" width="6.0" height="10.0" fill="#2f3fbf"/><rect x="17.0" y="161.0" width="6.0" height="10.0" fill="#2f3fbf"/><rect x="77.0" y="151.0" width="6.0" height="10.0" fill="#2f3fbf"/><rect x="89.0" y="151.0" width="6.0" height="10.0" fill="#2f3fbf"/><rect x="113.0" y="151.0" width="6.0" height="10.0" fill="#2f3fbf"/><rect x="119.0" y="151.0" width="6.0" height="10.0" fill="#2f3fbf"/><rect x="125.0" y="151.0" width="6.0" height="10.0" fill="#2f3fbf"/><rect x="131.0" y="151.0" width="6.0" height="10.0" fill="#2f3fbf"/><rect x="131.0" y="171.0" width="6.0" height="10.0" fill="#2f3fbf"/><rect x="131.0" y="181.0" width="6.0" height="10.0" fill="#2f3fbf"/><rect x="125.0" y="181.0" width="6.0" height="10.0" fill="#2f3fbf"/><rect x="113.0" y="181.0" width="6.0" height="10.0" fill="#2f3fbf"/><rect x="77.0" y="171.0" width="6.0" height="10.0" fill="#2f3fbf"/><rect x="77.0" y="161.0" width="6.0" height="10.0" fill="#2f3fbf"/><rect x="137.0" y="151.0" width="6.0" height="10.0" fill="#2f3fbf"/><rect x="149.0" y="151.0" width="6.0" height="10.0" fill="#2f3fbf"/><rect x="161.0" y="151.0" width="6.0" height="10.0" fill="#2f3fbf"/><rect x="173.0" y="151.0" width="6.0" height="10.0" fill="#2f3fbf"/><rect x="179.0" y="151.0" width="6.0" height="10.0" fill="#2f3fbf"/><rect x="185.0" y="151.0" width="6.0" height="10.0" fill="#2f3fbf"/><rect x="179.0" y="181.0" width="6.0" height="10.0" fill="#2f3fbf"/><rect x="173.0" y="181.0" width="6.0" height="10.0" fill="#2f3fbf"/><rect x="167.0" y="181.0" width="6.0" height="10.0" fill="#2f3fbf"/><rect x="161.0" y="181.0" width="6.0" height="10.0" fill="#2f3fbf"/><rect x="143.0" y="181.0" width="6.0" height="10.0" fill="#2f3fbf"/><rect x="137.0" y="171.0" width="6.0" height="10.0" fill="#2f3fbf"/><g clip-path="url(#grid-clip-9d028741-3x4)"><ellipse cx="137.0" cy="151.0" rx="72.52929282622665" ry="86.47041832318094" transform="rotate(0.0 137.0 151.0)" fill="#000000" fill-opacity="0.4"/></g><rect x="23.0" y="41.0" width="48.0" height="20.0" fill="#493b20"/><text x="47.0" y="51.0" fill="#ffffff" style="font-family: monospace; font-size: 16.0px;" text-anchor="middle" dominant-baseline="central">IDtJ</text><rect x="83.0" y="41.0" width="48.0" height="20.0" fill="#617f54"/><text x="107.0" y="51.0" fill="#ffffff" style="font-family: monospace; font-size: 16.0px;" text-anchor="middle" dominant-baseline="central">VH9h</text><rect x="143.0" y="41.0" width="48.0" height="20.0" fill="#83ed33"/><text x="167.0" y="51.0" fill="#000000" style="font-family: monospace; font-size: 16.0px;" text-anchor="middle" dominant-baseline="central">M+2D</text><rect x="23.0" y="81.0" width="48.0" height="20.0" fill="#a019ca"/><text x="47.0" y="91.0" fill="#ffffff" style="font-family: monospace; font-size: 16.0px;" text-anchor="middle" dominant-baseline="central">yhmg</text><rect x="83.0" y="81.0" width="48.0" height="20.0" fill="#5f9045"/><text x="107.0" y="91.0" fill="#000000" style="font-family: monospace; font-size: 16.0px;" text-anchor="middle" dominant-baseline="central">RZBf</text><rect x="23.0" y="121.0" width="48.0" height="20.0" fill="#e88078"/><text x="47.0" y="131.0" fill="#000000" style="font-family: monospace; font-size: 16.0px;" text-anchor="middle" dominant-baseline="central">eIDo</text><rect x="83.0" y="121.0" width="48.0" height="20.0" fill="#93a056"/><text x="107.0" y="131.0" fill="#000000" style="font-family: monospace; font-size: 16.0px;" text-anchor="middle" dominant-baseline="central">VqCT</text><rect x="143.0" y="121.0" width="48.0" height="20.0" fill="#3e766d"/><text x="167.0" y="131.0" fill="#ffffff" style="font-family: monospace; font-size: 16.0px;" text-anchor="middle" dominant-baseline="central">bXY+</text><rect x="23.0" y="161.0" width="48.0" height="20.0" fill="#a572d2"/><text x="47.0" y="171.0" fill="#000000" style="font-family: monospace; font-size: 16.0px;" text-anchor="middle" dominant-baseline="central">0nKl</text><rect x="83.0" y="161.0" width="48.0" height="20.0" fill="#539a4b"/><text x="107.0" y="171.0" fill="#000000" style="font-family: monospace; font-size: 16.0px;" text-anchor="middle" dominant-baseline="central">S5pT</text><rect x="143.0" y="161.0" width="48.0" height="20.0" fill="#d84592"/><text x="167.0" y="171.0" fill="#000000" style="font-family: monospace; font-size: 16.0px;" text-anchor="middle" dominant-baseline="central">kkXY</text><circle cx="167.0" cy="91.0" r="17.0" fill="#ffffff" stroke="#000000" stroke-width="1"/><line x1="167.0" y1="91.0" x2="152.0230947019188" y2="100.98460353205412" stroke="#ffffff" style="mix-blend-mode: difference" stroke-width="1"/><line x1="167.0" y1="91.0" x2="158.5" y2="91.0" stroke="#000000" stroke-width="1"/><circle cx="158.5" cy="91.0" r="1.5" fill="#ffffff" stroke="#000000" stroke-width="1"/><polygon points="83.0,161.0 93.0,161.0 83.0,171.0" fill="#000000"/><polygon points="71.0,161.0 61.0,161.0 71.0,171.0" fill="#000000"/><polygon points="131.0,141.0 131.0,131.0 121.0,141.0" fill="#000000"/><polygon points="23.0,101.0 23.0,91.0 33.0,101.0" fill="#ffffff"/><rect x="1" y="1" width="10.0" height="80.38346481376216" fill="#ffd966"/><rect x="1" y="81.38346481376216" width="10.0" height="60.021807435975056" fill="#000000"/><rect x="1" y="141.4052722497372" width="10.0" height="43.797837413449564" fill="#ffffff"/><rect x="1" y="185.20310966318678" width="10.0" height="35.79689033681322" fill="#2f3fbf"/><text x="17.0" y="16.0" fill="#666666" style="font-family: monospace; font-size: 12.0px;" dominant-baseline="central">SSH ed25519 pubkey: AAAAC3NzaC1lZDI1NTE5AAAA...</text><text x="197.0" y="206.0" fill="#666666" style="font-family: monospace; font-size: 12.0px;" text-anchor="end" dominant-baseline="central">...user@example.com</text><line x1="0" y1="0.5" x2="203.0" y2="0.5" stroke="#808080" stroke-width="1" shape-rendering="crispEdges"/><line x1="202.5" y1="0" x2="202.5" y2="222.0" stroke="#808080" stroke-width="1" shape-rendering="crispEdges"/><line x1="0" y1="221.5" x2="203.0" y2="221.5" stroke="#808080" stroke-width="1" shape-rendering="crispEdges"/><line x1="0.5" y1="0" x2="0.5" y2="222.0" stroke="#808080" stroke-width="1" shape-rendering="crispEdges"/><line x1="11.5" y1="0" x2="11.5" y2="222.0" stroke="#808080" stroke-width="1" shape-rendering="crispEdges"/></svg>