<svg width="213.0" height="192.0" viewBox="0 0 213.0 192.0" xmlns="http://www.w3.org/2000/svg" data-entviz-version="v9" data-entviz-lib="0.9.1" data-input-bytes="54" data-cols="3" data-rows="4"><defs><clipPath id="grid-clip-424139f2c5617ae2-3x4"><rect x="27.0" y="26.0" width="180.0" height="160.0"/></clipPath></defs><rect x="0" y="0" width="213.0" height="192.0" fill="#ffffff"/><g data-channel="grid"><rect x="27.0" y="26.0" width="180.0" height="160.0" fill="#e7be00"/><g><rect x="27.0" y="26.0" width="6.0" height="10.0" fill="#ff3f2f"/><rect x="45.0" y="26.0" width="6.0" height="10.0" fill="#ff3f2f"/><rect x="51.0" y="26.0" width="6.0" height="10.0" fill="#ff3f2f"/><rect x="57.0" y="26.0" width="6.0" height="10.0" fill="#ff3f2f"/><rect x="75.0" y="26.0" width="6.0" height="10.0" fill="#ff3f2f"/><rect x="69.0" y="56.0" width="6.0" height="10.0" fill="#ff3f2f"/><rect x="51.0" y="56.0" width="6.0" height="10.0" fill="#ff3f2f"/><rect x="27.0" y="46.0" width="6.0" height="10.0" fill="#ff3f2f"/><rect x="87.0" y="26.0" width="6.0" height="10.0" fill="#000000"/><rect x="117.0" y="26.0" width="6.0" height="10.0" fill="#000000"/><rect x="123.0" y="26.0" width="6.0" height="10.0" fill="#000000"/><rect x="135.0" y="26.0" width="6.0" height="10.0" fill="#000000"/><rect x="141.0" y="36.0" width="6.0" height="10.0" fill="#000000"/><rect x="129.0" y="56.0" width="6.0" height="10.0" fill="#000000"/><rect x="123.0" y="56.0" width="6.0" height="10.0" fill="#000000"/><rect x="111.0" y="56.0" width="6.0" height="10.0" fill="#000000"/><rect x="93.0" y="56.0" width="6.0" height="10.0" fill="#000000"/><rect x="87.0" y="56.0" width="6.0" height="10.0" fill="#000000"/><rect x="87.0" y="46.0" width="6.0" height="10.0" fill="#000000"/><rect x="87.0" y="36.0" width="6.0" height="10.0" fill="#000000"/><rect x="153.0" y="26.0" width="6.0" height="10.0" fill="#ffffff"/><rect x="201.0" y="26.0" width="6.0" height="10.0" fill="#ffffff"/><rect x="195.0" y="56.0" width="6.0" height="10.0" fill="#ffffff"/><rect x="189.0" y="56.0" width="6.0" height="10.0" fill="#ffffff"/><rect x="183.0" y="56.0" width="6.0" height="10.0" fill="#ffffff"/><rect x="171.0" y="56.0" width="6.0" height="10.0" fill="#ffffff"/><rect x="159.0" y="56.0" width="6.0" height="10.0" fill="#ffffff"/><rect x="153.0" y="56.0" width="6.0" height="10.0" fill="#ffffff"/><rect x="147.0" y="56.0" width="6.0" height="10.0" fill="#ffffff"/><rect x="147.0" y="46.0" width="6.0" height="10.0" fill="#ffffff"/><rect x="27.0" y="66.0" width="6.0" height="10.0" fill="#ffffff"/><rect x="51.0" y="66.0" width="6.0" height="10.0" fill="#ffffff"/><rect x="69.0" y="66.0" width="6.0" height="10.0" fill="#ffffff"/><rect x="75.0" y="66.0" width="6.0" height="10.0" fill="#ffffff"/><rect x="81.0" y="66.0" width="6.0" height="10.0" fill="#ffffff"/><rect x="81.0" y="76.0" width="6.0" height="10.0" fill="#ffffff"/><rect x="69.0" y="96.0" width="6.0" height="10.0" fill="#ffffff"/><rect x="27.0" y="96.0" width="6.0" height="10.0" fill="#ffffff"/><rect x="27.0" y="76.0" width="6.0" height="10.0" fill="#ffffff"/><rect x="93.0" y="66.0" width="6.0" height="10.0" fill="#ff3f2f"/><rect x="99.0" y="66.0" width="6.0" height="10.0" fill="#ff3f2f"/><rect x="123.0" y="66.0" width="6.0" height="10.0" fill="#ff3f2f"/><rect x="129.0" y="66.0" width="6.0" height="10.0" fill="#ff3f2f"/><rect x="141.0" y="76.0" width="6.0" height="10.0" fill="#ff3f2f"/><rect x="141.0" y="86.0" width="6.0" height="10.0" fill="#ff3f2f"/><rect x="135.0" y="96.0" width="6.0" height="10.0" fill="#ff3f2f"/><rect x="117.0" y="96.0" width="6.0" height="10.0" fill="#ff3f2f"/><rect x="111.0" y="96.0" width="6.0" height="10.0" fill="#ff3f2f"/><rect x="93.0" y="96.0" width="6.0" height="10.0" fill="#ff3f2f"/><rect x="87.0" y="96.0" width="6.0" height="10.0" fill="#ff3f2f"/><rect x="87.0" y="86.0" width="6.0" height="10.0" fill="#ff3f2f"/><rect x="27.0" y="106.0" width="6.0" height="10.0" fill="#2f3fbf"/><rect x="39.0" y="106.0" width="6.0" height="10.0" fill="#2f3fbf"/><rect x="45.0" y="106.0" width="6.0" height="10.0" fill="#2f3fbf"/><rect x="51.0" y="106.0" width="6.0" height="10.0" fill="#2f3fbf"/><rect x="69.0" y="106.0" width="6.0" height="10.0" fill="#2f3fbf"/><rect x="81.0" y="116.0" width="6.0" height="10.0" fill="#2f3fbf"/><rect x="81.0" y="136.0" width="6.0" height="10.0" fill="#2f3fbf"/><rect x="75.0" y="136.0" width="6.0" height="10.0" fill="#2f3fbf"/><rect x="63.0" y="136.0" width="6.0" height="10.0" fill="#2f3fbf"/><rect x="45.0" y="136.0" width="6.0" height="10.0" fill="#2f3fbf"/><rect x="27.0" y="126.0" width="6.0" height="10.0" fill="#2f3fbf"/><rect x="93.0" y="106.0" width="6.0" height="10.0" fill="#ffffff"/><rect x="123.0" y="106.0" width="6.0" height="10.0" fill="#ffffff"/><rect x="129.0" y="106.0" width="6.0" height="10.0" fill="#ffffff"/><rect x="135.0" y="106.0" width="6.0" height="10.0" fill="#ffffff"/><rect x="141.0" y="106.0" width="6.0" height="10.0" fill="#ffffff"/><rect x="117.0" y="136.0" width="6.0" height="10.0" fill="#ffffff"/><rect x="111.0" y="136.0" width="6.0" height="10.0" fill="#ffffff"/><rect x="99.0" y="136.0" width="6.0" height="10.0" fill="#ffffff"/><rect x="93.0" y="136.0" width="6.0" height="10.0" fill="#ffffff"/><rect x="87.0" y="136.0" width="6.0" height="10.0" fill="#ffffff"/><rect x="87.0" y="126.0" width="6.0" height="10.0" fill="#ffffff"/><rect x="147.0" y="106.0" width="6.0" height="10.0" fill="#2f3fbf"/><rect x="159.0" y="106.0" width="6.0" height="10.0" fill="#2f3fbf"/><rect x="183.0" y="106.0" width="6.0" height="10.0" fill="#2f3fbf"/><rect x="195.0" y="106.0" width="6.0" height="10.0" fill="#2f3fbf"/><rect x="201.0" y="116.0" width="6.0" height="10.0" fill="#2f3fbf"/><rect x="201.0" y="126.0" width="6.0" height="10.0" fill="#2f3fbf"/><rect x="195.0" y="136.0" width="6.0" height="10.0" fill="#2f3fbf"/><rect x="159.0" y="136.0" width="6.0" height="10.0" fill="#2f3fbf"/><rect x="153.0" y="136.0" width="6.0" height="10.0" fill="#2f3fbf"/><rect x="147.0" y="136.0" width="6.0" height="10.0" fill="#2f3fbf"/><rect x="147.0" y="126.0" width="6.0" height="10.0" fill="#2f3fbf"/><rect x="147.0" y="116.0" width="6.0" height="10.0" fill="#2f3fbf"/><rect x="27.0" y="146.0" width="6.0" height="10.0" fill="#ff3f2f"/><rect x="69.0" y="146.0" width="6.0" height="10.0" fill="#ff3f2f"/><rect x="81.0" y="146.0" width="6.0" height="10.0" fill="#ff3f2f"/><rect x="81.0" y="156.0" width="6.0" height="10.0" fill="#ff3f2f"/><rect x="81.0" y="176.0" width="6.0" height="10.0" fill="#ff3f2f"/><rect x="69.0" y="176.0" width="6.0" height="10.0" fill="#ff3f2f"/><rect x="63.0" y="176.0" width="6.0" height="10.0" fill="#ff3f2f"/><rect x="51.0" y="176.0" width="6.0" height="10.0" fill="#ff3f2f"/><rect x="27.0" y="176.0" width="6.0" height="10.0" fill="#ff3f2f"/><rect x="27.0" y="166.0" width="6.0" height="10.0" fill="#ff3f2f"/><rect x="27.0" y="156.0" width="6.0" height="10.0" fill="#ff3f2f"/><rect x="93.0" y="146.0" width="6.0" height="10.0" fill="#000000"/><rect x="99.0" y="146.0" width="6.0" height="10.0" fill="#000000"/><rect x="135.0" y="146.0" width="6.0" height="10.0" fill="#000000"/><rect x="141.0" y="146.0" width="6.0" height="10.0" fill="#000000"/><rect x="141.0" y="156.0" width="6.0" height="10.0" fill="#000000"/><rect x="141.0" y="166.0" width="6.0" height="10.0" fill="#000000"/><rect x="135.0" y="176.0" width="6.0" height="10.0" fill="#000000"/><rect x="123.0" y="176.0" width="6.0" height="10.0" fill="#000000"/><rect x="117.0" y="176.0" width="6.0" height="10.0" fill="#000000"/><rect x="111.0" y="176.0" width="6.0" height="10.0" fill="#000000"/><rect x="105.0" y="176.0" width="6.0" height="10.0" fill="#000000"/><rect x="99.0" y="176.0" width="6.0" height="10.0" fill="#000000"/><rect x="93.0" y="176.0" width="6.0" height="10.0" fill="#000000"/><rect x="87.0" y="166.0" width="6.0" height="10.0" fill="#000000"/><rect x="147.0" y="146.0" width="6.0" height="10.0" fill="#2f3fbf"/><rect x="165.0" y="146.0" width="6.0" height="10.0" fill="#2f3fbf"/><rect x="171.0" y="146.0" width="6.0" height="10.0" fill="#2f3fbf"/><rect x="177.0" y="146.0" width="6.0" height="10.0" fill="#2f3fbf"/><rect x="183.0" y="146.0" width="6.0" height="10.0" fill="#2f3fbf"/><rect x="201.0" y="146.0" width="6.0" height="10.0" fill="#2f3fbf"/><rect x="201.0" y="166.0" width="6.0" height="10.0" fill="#2f3fbf"/><rect x="195.0" y="176.0" width="6.0" height="10.0" fill="#2f3fbf"/><rect x="177.0" y="176.0" width="6.0" height="10.0" fill="#2f3fbf"/><rect x="165.0" y="176.0" width="6.0" height="10.0" fill="#2f3fbf"/><rect x="159.0" y="176.0" width="6.0" height="10.0" fill="#2f3fbf"/><rect x="153.0" y="176.0" width="6.0" height="10.0" fill="#2f3fbf"/><rect x="147.0" y="166.0" width="6.0" height="10.0" fill="#2f3fbf"/><rect x="147.0" y="156.0" width="6.0" height="10.0" fill="#2f3fbf"/></g><g clip-path="url(#grid-clip-424139f2c5617ae2-3x4)" data-channel="ellipse" data-ellipse-anchor-x="87.0" data-ellipse-anchor-y="146.0" data-ellipse-rx="53.62697828518776" data-ellipse-ry="98.4292639411674" data-ellipse-rotation-deg="24.0"><ellipse cx="87.0" cy="146.0" rx="53.62697828518776" ry="98.4292639411674" transform="rotate(24.0 87.0 146.0)" fill="#000000" stroke="#000000" fill-opacity="0.2" stroke-opacity="0.3" stroke-width="2.0"/></g><g><g data-channel="cell" data-cell-index="0" data-cell-row="0" data-cell-col="0" data-cell-quartile="1"><rect x="33.0" y="36.0" width="48.0" height="20.0" fill="#aa7600"/><text x="57.0" y="46.0" fill="#000000" style="font-family: &quot;JetBrains Mono&quot;, &quot;Menlo&quot;, &quot;Consolas&quot;, &quot;DejaVu Sans Mono&quot;, &quot;Liberation Mono&quot;, &quot;Roboto Mono&quot;, &quot;Noto Sans Mono&quot;, monospace; font-size: 16.0px;" text-anchor="middle" dominant-baseline="central">qpm2</text><polygon points="33.0,36.0 43.0,36.0 33.0,46.0" fill="#000000"/></g><g data-channel="cell" data-cell-index="1" data-cell-row="0" data-cell-col="1"><rect x="93.0" y="36.0" width="48.0" height="20.0" fill="#330504"/><text x="117.0" y="46.0" fill="#ffffff" style="font-family: &quot;JetBrains Mono&quot;, &quot;Menlo&quot;, &quot;Consolas&quot;, &quot;DejaVu Sans Mono&quot;, &quot;Liberation Mono&quot;, &quot;Roboto Mono&quot;, &quot;Noto Sans Mono&quot;, monospace; font-size: 16.0px;" text-anchor="middle" dominant-baseline="central">qszn</text></g><g data-channel="cell" data-cell-index="2" data-cell-row="0" data-cell-col="2" data-cell-quartile="2"><rect x="153.0" y="36.0" width="48.0" height="20.0" fill="#aaa0bd"/><text x="177.0" y="46.0" fill="#000000" style="font-family: &quot;JetBrains Mono&quot;, &quot;Menlo&quot;, &quot;Consolas&quot;, &quot;DejaVu Sans Mono&quot;, &quot;Liberation Mono&quot;, &quot;Roboto Mono&quot;, &quot;Noto Sans Mono&quot;, monospace; font-size: 16.0px;" text-anchor="middle" dominant-baseline="central">hks2</text><polygon points="201.0,36.0 191.0,36.0 201.0,46.0" fill="#000000"/></g><g data-channel="cell" data-cell-index="3" data-cell-row="1" data-cell-col="0"><rect x="33.0" y="76.0" width="48.0" height="20.0" fill="#aabd88"/><text x="57.0" y="86.0" fill="#000000" style="font-family: &quot;JetBrains Mono&quot;, &quot;Menlo&quot;, &quot;Consolas&quot;, &quot;DejaVu Sans Mono&quot;, &quot;Liberation Mono&quot;, &quot;Roboto Mono&quot;, &quot;Noto Sans Mono&quot;, monospace; font-size: 16.0px;" text-anchor="middle" dominant-baseline="central">3z76</text></g><g data-channel="cell" data-cell-index="4" data-cell-row="1" data-cell-col="1"><rect x="93.0" y="76.0" width="48.0" height="20.0" fill="#bb7751"/><text x="117.0" y="86.0" fill="#000000" style="font-family: &quot;JetBrains Mono&quot;, &quot;Menlo&quot;, &quot;Consolas&quot;, &quot;DejaVu Sans Mono&quot;, &quot;Liberation Mono&quot;, &quot;Roboto Mono&quot;, &quot;Noto Sans Mono&quot;, monospace; font-size: 16.0px;" text-anchor="middle" dominant-baseline="central">29mm</text></g><g data-channel="cell" data-cell-index="5" data-cell-row="1" data-cell-col="2" data-cell-blank="true" data-cell-blank-map="true"><rect x="153.0" y="76.0" width="48.0" height="20.0" rx="10.0" ry="10.0" fill="#ffffff" stroke="#000000" stroke-width="1"/><circle cx="161.0" cy="78.5" r="3.5" fill="#1d4ed8" data-blank-map-min="0,0"/><path d="M 188.8,88.5 H 197.2 M 193.0,84.3 V 92.7" fill="none" stroke="#d62828" stroke-width="1.9250000000000003" stroke-linecap="butt" data-blank-map-max="2,2"/></g><g data-channel="cell" data-cell-index="6" data-cell-row="2" data-cell-col="0" data-cell-quartile="4"><rect x="33.0" y="116.0" width="48.0" height="20.0" fill="#55a186"/><text x="57.0" y="126.0" fill="#000000" style="font-family: &quot;JetBrains Mono&quot;, &quot;Menlo&quot;, &quot;Consolas&quot;, &quot;DejaVu Sans Mono&quot;, &quot;Liberation Mono&quot;, &quot;Roboto Mono&quot;, &quot;Noto Sans Mono&quot;, monospace; font-size: 16.0px;" text-anchor="middle" dominant-baseline="central">s6s4</text><polygon points="33.0,136.0 33.0,126.0 43.0,136.0" fill="#000000"/></g><g data-channel="cell" data-cell-index="7" data-cell-row="2" data-cell-col="1"><rect x="93.0" y="116.0" width="48.0" height="20.0" fill="#99b2c3"/><text x="117.0" y="126.0" fill="#000000" style="font-family: &quot;JetBrains Mono&quot;, &quot;Menlo&quot;, &quot;Consolas&quot;, &quot;DejaVu Sans Mono&quot;, &quot;Liberation Mono&quot;, &quot;Roboto Mono&quot;, &quot;Noto Sans Mono&quot;, monospace; font-size: 16.0px;" text-anchor="middle" dominant-baseline="central">cwef</text></g><g data-channel="cell" data-cell-index="8" data-cell-row="2" data-cell-col="2"><rect x="153.0" y="116.0" width="48.0" height="20.0" fill="#8859f5"/><text x="177.0" y="126.0" fill="#ffffff" style="font-family: &quot;JetBrains Mono&quot;, &quot;Menlo&quot;, &quot;Consolas&quot;, &quot;DejaVu Sans Mono&quot;, &quot;Liberation Mono&quot;, &quot;Roboto Mono&quot;, &quot;Noto Sans Mono&quot;, monospace; font-size: 16.0px;" text-anchor="middle" dominant-baseline="central">74vc</text></g><g data-channel="cell" data-cell-index="9" data-cell-row="3" data-cell-col="0"><rect x="33.0" y="156.0" width="48.0" height="20.0" fill="#aa0873"/><text x="57.0" y="166.0" fill="#ffffff" style="font-family: &quot;JetBrains Mono&quot;, &quot;Menlo&quot;, &quot;Consolas&quot;, &quot;DejaVu Sans Mono&quot;, &quot;Liberation Mono&quot;, &quot;Roboto Mono&quot;, &quot;Noto Sans Mono&quot;, monospace; font-size: 16.0px;" text-anchor="middle" dominant-baseline="central">wvy2</text></g><g data-channel="cell" data-cell-index="10" data-cell-row="3" data-cell-col="1" data-cell-quartile="3"><rect x="93.0" y="156.0" width="48.0" height="20.0" fill="#661a52"/><text x="117.0" y="166.0" fill="#ffffff" style="font-family: &quot;JetBrains Mono&quot;, &quot;Menlo&quot;, &quot;Consolas&quot;, &quot;DejaVu Sans Mono&quot;, &quot;Liberation Mono&quot;, &quot;Roboto Mono&quot;, &quot;Noto Sans Mono&quot;, monospace; font-size: 16.0px;" text-anchor="middle" dominant-baseline="central">2gdx</text><polygon points="141.0,176.0 141.0,166.0 131.0,176.0" fill="#ffffff"/></g><g data-channel="cell" data-cell-index="11" data-cell-row="3" data-cell-col="2"><rect x="153.0" y="156.0" width="48.0" height="20.0" fill="#dd75d7"/><text x="177.0" y="166.0" fill="#000000" style="font-family: &quot;JetBrains Mono&quot;, &quot;Menlo&quot;, &quot;Consolas&quot;, &quot;DejaVu Sans Mono&quot;, &quot;Liberation Mono&quot;, &quot;Roboto Mono&quot;, &quot;Noto Sans Mono&quot;, monospace; font-size: 16.0px;" text-anchor="middle" dominant-baseline="central">6a</text></g></g></g><g data-channel="color-bar" data-bar-slots="15" data-bar-marker-square="12" data-bar-marker-triangle="4"><g data-color-bar-rank="0" data-color-bar-band="B"><rect x="1" y="1" width="20.0" height="28.432270814277626" fill="#2f3fbf"/><text x="11.0" y="25.912270814277626" fill="#ffffff" style="font-family: &quot;JetBrains Mono&quot;, &quot;Menlo&quot;, &quot;Consolas&quot;, &quot;DejaVu Sans Mono&quot;, &quot;Liberation Mono&quot;, &quot;Roboto Mono&quot;, &quot;Noto Sans Mono&quot;, monospace; font-size: 16.0px;" text-anchor="middle" data-color-bar-letter="true">b</text></g><g data-color-bar-rank="1" data-color-bar-band="W"><rect x="1" y="29.432270814277626" width="20.0" height="72.3839218673719" fill="#ffffff"/><text x="11.0" y="98.29619268164953" fill="#000000" style="font-family: &quot;JetBrains Mono&quot;, &quot;Menlo&quot;, &quot;Consolas&quot;, &quot;DejaVu Sans Mono&quot;, &quot;Liberation Mono&quot;, &quot;Roboto Mono&quot;, &quot;Noto Sans Mono&quot;, monospace; font-size: 16.0px;" text-anchor="middle" data-color-bar-letter="true">w</text></g><g data-color-bar-rank="2" data-color-bar-band="R"><rect x="1" y="101.81619268164953" width="20.0" height="54.27643759064412" fill="#ff3f2f"/><text x="11.0" y="152.57263027229365" fill="#000000" style="font-family: &quot;JetBrains Mono&quot;, &quot;Menlo&quot;, &quot;Consolas&quot;, &quot;DejaVu Sans Mono&quot;, &quot;Liberation Mono&quot;, &quot;Roboto Mono&quot;, &quot;Noto Sans Mono&quot;, monospace; font-size: 16.0px;" text-anchor="middle" data-color-bar-letter="true">r</text></g><g data-color-bar-rank="3" data-color-bar-band="K"><rect x="1" y="156.09263027229366" width="20.0" height="34.90736972770634" fill="#000000"/><text x="11.0" y="187.48" fill="#ffffff" style="font-family: &quot;JetBrains Mono&quot;, &quot;Menlo&quot;, &quot;Consolas&quot;, &quot;DejaVu Sans Mono&quot;, &quot;Liberation Mono&quot;, &quot;Roboto Mono&quot;, &quot;Noto Sans Mono&quot;, monospace; font-size: 16.0px;" text-anchor="middle" data-color-bar-letter="true">k</text></g><rect x="2.1999999999999997" y="156.5333333333333" width="5.6000000000000005" height="5.6000000000000005" fill="#ffffff" stroke="#000000" stroke-width="0.75" data-bar-marker="square"/><polygon points="17.0,55.2 14.2,60.8 19.8,60.8" fill="#ffffff" stroke="#000000" stroke-width="0.75" data-bar-marker="triangle"/></g><g data-channel="label-top"><text x="27.0" y="16.0" fill="#666666" style="font-family: &quot;JetBrains Mono&quot;, &quot;Menlo&quot;, &quot;Consolas&quot;, &quot;DejaVu Sans Mono&quot;, &quot;Liberation Mono&quot;, &quot;Roboto Mono&quot;, &quot;Noto Sans Mono&quot;, monospace; font-size: 12.0px;" dominant-baseline="central">BCH: bitcoincash:...</text></g><line x1="0" y1="0.5" x2="213.0" y2="0.5" stroke="#808080" stroke-width="1" shape-rendering="crispEdges"/><line x1="212.5" y1="0" x2="212.5" y2="192.0" stroke="#808080" stroke-width="1" shape-rendering="crispEdges"/><line x1="0" y1="191.5" x2="213.0" y2="191.5" stroke="#808080" stroke-width="1" shape-rendering="crispEdges"/><line x1="0.5" y1="0" x2="0.5" y2="192.0" stroke="#808080" stroke-width="1" shape-rendering="crispEdges"/><line x1="21.5" y1="0" x2="21.5" y2="192.0" stroke="#808080" stroke-width="1" shape-rendering="crispEdges"/></svg>