<svg width="215" height="194" viewBox="0 0 215 194" xmlns="http://www.w3.org/2000/svg" font-family="&quot;JetBrains Mono&quot;, &quot;Menlo&quot;, &quot;Consolas&quot;, &quot;DejaVu Sans Mono&quot;, &quot;Liberation Mono&quot;, &quot;Roboto Mono&quot;, &quot;Noto Sans Mono&quot;, monospace" data-entviz-version="v14" data-entviz-lib="0.14.0" data-input-bytes="54" data-cols="3" data-rows="4" data-encoding="bech32" data-scheme="bch" data-role="address" data-size-basis="decoded" data-entropy-type="bch" data-size-bits="208" data-qualifiers="{&quot;network&quot;:&quot;mainnet&quot;}" data-parts="[{&quot;text&quot;:&quot;bitcoincash:&quot;,&quot;bind&quot;:&quot;none&quot;},{&quot;text&quot;:&quot;qpm2qsznhks23z7629mms6s4cwef74vcwvy22gdx6a&quot;,&quot;bind&quot;:&quot;core&quot;}]"><defs><clipPath id="grid-clip-424139f2c5617ae2-3x4"><rect x="28" y="27" width="180" height="160"/></clipPath></defs><rect x="1" y="1" width="213" height="192" fill="#ffffff"/><g data-channel="grid"><rect x="28" y="27" width="180" height="160" fill="#e7be00"/><g><path fill="#ff3f2f" d="M28 27h6v10h-6zM46 27h6v10h-6zM52 27h6v10h-6zM58 27h6v10h-6zM76 27h6v10h-6zM70 57h6v10h-6zM52 57h6v10h-6zM28 47h6v10h-6z"/><path fill="#000000" d="M88 27h6v10h-6zM118 27h6v10h-6zM124 27h6v10h-6zM136 27h6v10h-6zM142 37h6v10h-6zM130 57h6v10h-6zM124 57h6v10h-6zM112 57h6v10h-6zM94 57h6v10h-6zM88 57h6v10h-6zM88 47h6v10h-6zM88 37h6v10h-6z"/><path fill="#2f3fbf" d="M154 27h6v10h-6zM202 27h6v10h-6zM196 57h6v10h-6zM190 57h6v10h-6zM184 57h6v10h-6zM172 57h6v10h-6zM160 57h6v10h-6zM154 57h6v10h-6zM148 57h6v10h-6zM148 47h6v10h-6z"/><path fill="#ffffff" d="M28 67h6v10h-6zM52 67h6v10h-6zM70 67h6v10h-6zM76 67h6v10h-6zM82 67h6v10h-6zM82 77h6v10h-6zM70 97h6v10h-6zM28 97h6v10h-6zM28 77h6v10h-6z"/><path fill="#ff3f2f" d="M94 67h6v10h-6zM100 67h6v10h-6zM124 67h6v10h-6zM130 67h6v10h-6zM142 77h6v10h-6zM142 87h6v10h-6zM136 97h6v10h-6zM118 97h6v10h-6zM112 97h6v10h-6zM94 97h6v10h-6zM88 97h6v10h-6zM88 87h6v10h-6z"/><path fill="#2f3fbf" d="M28 107h6v10h-6zM40 107h6v10h-6zM46 107h6v10h-6zM52 107h6v10h-6zM70 107h6v10h-6zM82 117h6v10h-6zM82 137h6v10h-6zM76 137h6v10h-6zM64 137h6v10h-6zM46 137h6v10h-6zM28 127h6v10h-6z"/><path fill="#ffffff" d="M94 107h6v10h-6zM124 107h6v10h-6zM130 107h6v10h-6zM136 107h6v10h-6zM142 107h6v10h-6zM118 137h6v10h-6zM112 137h6v10h-6zM100 137h6v10h-6zM94 137h6v10h-6zM88 137h6v10h-6zM88 127h6v10h-6z"/><path fill="#2f3fbf" d="M148 107h6v10h-6zM160 107h6v10h-6zM184 107h6v10h-6zM196 107h6v10h-6zM202 117h6v10h-6zM202 127h6v10h-6zM196 137h6v10h-6zM160 137h6v10h-6zM154 137h6v10h-6zM148 137h6v10h-6zM148 127h6v10h-6zM148 117h6v10h-6z"/><path fill="#ff3f2f" d="M28 147h6v10h-6zM70 147h6v10h-6zM82 147h6v10h-6zM82 157h6v10h-6zM82 177h6v10h-6zM70 177h6v10h-6zM64 177h6v10h-6zM52 177h6v10h-6zM28 177h6v10h-6zM28 167h6v10h-6zM28 157h6v10h-6z"/><path fill="#000000" d="M94 147h6v10h-6zM100 147h6v10h-6zM136 147h6v10h-6zM142 147h6v10h-6zM142 157h6v10h-6zM142 167h6v10h-6zM136 177h6v10h-6zM124 177h6v10h-6zM118 177h6v10h-6zM112 177h6v10h-6zM106 177h6v10h-6zM100 177h6v10h-6zM94 177h6v10h-6zM88 167h6v10h-6z"/><path fill="#2f3fbf" d="M148 147h6v10h-6zM166 147h6v10h-6zM172 147h6v10h-6zM178 147h6v10h-6zM184 147h6v10h-6zM202 147h6v10h-6zM202 167h6v10h-6zM196 177h6v10h-6zM178 177h6v10h-6zM166 177h6v10h-6zM160 177h6v10h-6zM154 177h6v10h-6zM148 167h6v10h-6zM148 157h6v10h-6z"/></g><g clip-path="url(#grid-clip-424139f2c5617ae2-3x4)" data-channel="ellipse" data-ellipse-anchor-x="88" data-ellipse-anchor-y="147" data-ellipse-rx="53.627" data-ellipse-ry="98.429" data-ellipse-rotation-deg="24"><ellipse cx="88" cy="147" rx="53.627" ry="98.429" transform="rotate(24 88 147)" fill="#000000" stroke="#000000" fill-opacity="0.2" stroke-opacity="0.3" stroke-width="2"/></g><g><g data-channel="cell" data-cell-index="0" data-cell-row="0" data-cell-col="0" data-surround-bits="0x424139" data-edge-color="#ff3f2f" data-cell-quartile="1"><rect x="34" y="37" width="48" height="20" fill="#aa7600"/><text x="58" y="47" fill="#000000" font-size="16" text-anchor="middle" dominant-baseline="central">qpm2</text><polygon points="34,37 44,37 34,47" fill="#000000"/></g><g data-channel="cell" data-cell-index="1" data-cell-row="0" data-cell-col="1" data-surround-bits="0xf2c561" data-edge-color="#000000"><rect x="94" y="37" width="48" height="20" fill="#330504"/><text x="118" y="47" fill="#ffffff" font-size="16" text-anchor="middle" dominant-baseline="central">qszn</text></g><g data-channel="cell" data-cell-index="2" data-cell-row="0" data-cell-col="2" data-surround-bits="0x7ae202" data-edge-color="#2f3fbf" data-cell-quartile="2"><rect x="154" y="37" width="48" height="20" fill="#aaa0bd"/><text x="178" y="47" fill="#000000" font-size="16" text-anchor="middle" dominant-baseline="central">hks2</text><polygon points="202,37 192,37 202,47" fill="#000000"/></g><g data-channel="cell" data-cell-index="3" data-cell-row="1" data-cell-col="0" data-surround-bits="0xa04791" data-edge-color="#ffffff"><rect x="34" y="77" width="48" height="20" fill="#aabd88"/><text x="58" y="87" fill="#000000" font-size="16" text-anchor="middle" dominant-baseline="central">3z76</text></g><g data-channel="cell" data-cell-index="4" data-cell-row="1" data-cell-col="1" data-surround-bits="0x732cc6" data-edge-color="#ff3f2f"><rect x="94" y="77" width="48" height="20" fill="#bb7751"/><text x="118" y="87" fill="#000000" font-size="16" text-anchor="middle" dominant-baseline="central">29mm</text></g><g data-channel="cell" data-cell-index="5" data-cell-row="1" data-cell-col="2" data-cell-blank="true" data-cell-blank-map="true"><rect x="154" y="77" width="48" height="20" rx="10" ry="10" fill="#ff3f2f" stroke="#000000" stroke-width="1"/><circle cx="162" cy="79.5" r="3.5" fill="#000000" data-blank-map-min="0,0"/><path d="M 189.8,89.5 H 198.2 M 194,85.3 V 93.7" fill="none" stroke="#000000" stroke-width="1.925" stroke-linecap="butt" data-blank-map-max="2,2"/></g><g data-channel="cell" data-cell-index="6" data-cell-row="2" data-cell-col="0" data-surround-bits="0x44b49d" data-edge-color="#2f3fbf" data-cell-quartile="4"><rect x="34" y="117" width="48" height="20" fill="#55a186"/><text x="58" y="127" fill="#000000" font-size="16" text-anchor="middle" dominant-baseline="central">s6s4</text><polygon points="34,137 34,127 44,137" fill="#000000"/></g><g data-channel="cell" data-cell-index="7" data-cell-row="2" data-cell-col="1" data-surround-bits="0x7b03c2" data-edge-color="#ffffff"><rect x="94" y="117" width="48" height="20" fill="#99b2c3"/><text x="118" y="127" fill="#000000" font-size="16" text-anchor="middle" dominant-baseline="central">cwef</text></g><g data-channel="cell" data-cell-index="8" data-cell-row="2" data-cell-col="2" data-surround-bits="0xf82d45" data-edge-color="#2f3fbf"><rect x="154" y="117" width="48" height="20" fill="#8859f5"/><text x="178" y="127" fill="#ffffff" font-size="16" text-anchor="middle" dominant-baseline="central">74vc</text></g><g data-channel="cell" data-cell-index="9" data-cell-row="3" data-cell-col="0" data-surround-bits="0xe2d681" data-edge-color="#ff3f2f"><rect x="34" y="157" width="48" height="20" fill="#aa0873"/><text x="58" y="167" fill="#ffffff" font-size="16" text-anchor="middle" dominant-baseline="central">wvy2</text></g><g data-channel="cell" data-cell-index="10" data-cell-row="3" data-cell-col="1" data-surround-bits="0x5faf06" data-edge-color="#000000" data-cell-quartile="3"><rect x="94" y="157" width="48" height="20" fill="#661a52"/><text x="118" y="167" fill="#ffffff" font-size="16" text-anchor="middle" dominant-baseline="central">2gdx</text><polygon points="142,177 142,167 132,177" fill="#ffffff"/></g><g data-channel="cell" data-cell-index="11" data-cell-row="3" data-cell-col="2" data-surround-bits="0xdd2a79" data-edge-color="#2f3fbf"><rect x="154" y="157" width="48" height="20" fill="#dd75d7"/><text x="178" y="167" fill="#000000" font-size="16" text-anchor="middle" dominant-baseline="central">6a</text></g></g></g><g data-channel="color-bar" data-bar-slots="15" data-bar-marker-left="12" data-bar-marker-right="4"><g data-color-bar-rank="0" data-color-bar-band="B"><rect x="2" y="2" width="20" height="28.432" fill="#2f3fbf"/><text x="12" y="26.912" fill="#ffffff" font-size="16" text-anchor="middle" data-color-bar-letter="true">b</text></g><g data-color-bar-rank="1" data-color-bar-band="W"><rect x="2" y="30.432" width="20" height="72.384" fill="#ffffff"/><text x="12" y="99.296" fill="#000000" font-size="16" text-anchor="middle" data-color-bar-letter="true">w</text></g><g data-color-bar-rank="2" data-color-bar-band="R"><rect x="2" y="102.816" width="20" height="54.276" fill="#ff3f2f"/><text x="12" y="153.573" fill="#000000" font-size="16" text-anchor="middle" data-color-bar-letter="true">r</text></g><g data-color-bar-rank="3" data-color-bar-band="K"><rect x="2" y="157.093" width="20" height="34.907" fill="#000000"/><text x="12" y="188.48" fill="#ffffff" font-size="16" text-anchor="middle" data-color-bar-letter="true">k</text></g><circle cx="6.6" cy="160.333" r="3.4" fill="#ffffff" stroke="#000000" stroke-width="0.75" data-bar-marker="left"/><circle cx="17.4" cy="59" r="3.4" fill="#ffffff" stroke="#000000" stroke-width="0.75" data-bar-marker="right"/></g><g data-channel="label-top"><text x="28" y="17" fill="#666666" font-size="12" dominant-baseline="central">BCH</text></g><line x1="1" y1="1.5" x2="214" y2="1.5" stroke="#808080" stroke-width="1" shape-rendering="crispEdges"/><line x1="213.5" y1="1" x2="213.5" y2="193" stroke="#808080" stroke-width="1" shape-rendering="crispEdges"/><line x1="1" y1="192.5" x2="214" y2="192.5" stroke="#808080" stroke-width="1" shape-rendering="crispEdges"/><line x1="1.5" y1="1" x2="1.5" y2="193" stroke="#808080" stroke-width="1" shape-rendering="crispEdges"/><line x1="22.5" y1="1" x2="22.5" y2="193" stroke="#808080" stroke-width="1" shape-rendering="crispEdges"/></svg>