<svg width="273.0" height="292.0" viewBox="0 0 273.0 292.0" xmlns="http://www.w3.org/2000/svg" data-entviz-version="v8" data-entviz-lib="0.7.2" data-input-bytes="103" data-cols="4" data-rows="6" data-truncated="true"><defs><clipPath id="grid-clip-d2df89f4e04a6ac2-4x6"><rect x="27.0" y="26.0" width="240.0" height="240.0"/></clipPath></defs><rect x="0" y="0" width="273.0" height="292.0" fill="#ffffff"/><g data-channel="grid"><rect x="27.0" y="26.0" width="240.0" height="240.0" fill="#ffffff"/><g><rect x="87.0" y="26.0" width="6.0" height="10.0" fill="#ff3f2f"/><rect x="105.0" y="26.0" width="6.0" height="10.0" fill="#ff3f2f"/><rect x="129.0" y="26.0" width="6.0" height="10.0" fill="#ff3f2f"/><rect x="135.0" y="26.0" width="6.0" height="10.0" fill="#ff3f2f"/><rect x="141.0" y="26.0" width="6.0" height="10.0" fill="#ff3f2f"/><rect x="141.0" y="36.0" width="6.0" height="10.0" fill="#ff3f2f"/><rect x="141.0" y="46.0" width="6.0" height="10.0" fill="#ff3f2f"/><rect x="141.0" y="56.0" width="6.0" height="10.0" fill="#ff3f2f"/><rect x="129.0" y="56.0" width="6.0" height="10.0" fill="#ff3f2f"/><rect x="123.0" y="56.0" width="6.0" height="10.0" fill="#ff3f2f"/><rect x="111.0" y="56.0" width="6.0" height="10.0" fill="#ff3f2f"/><rect x="93.0" y="56.0" width="6.0" height="10.0" fill="#ff3f2f"/><rect x="87.0" y="46.0" width="6.0" height="10.0" fill="#ff3f2f"/><rect x="87.0" y="36.0" width="6.0" height="10.0" fill="#ff3f2f"/><rect x="153.0" y="26.0" width="6.0" height="10.0" fill="#ff3f2f"/><rect x="165.0" y="26.0" width="6.0" height="10.0" fill="#ff3f2f"/><rect x="183.0" y="26.0" width="6.0" height="10.0" fill="#ff3f2f"/><rect x="195.0" y="56.0" width="6.0" height="10.0" fill="#ff3f2f"/><rect x="189.0" y="56.0" width="6.0" height="10.0" fill="#ff3f2f"/><rect x="183.0" y="56.0" width="6.0" height="10.0" fill="#ff3f2f"/><rect x="165.0" y="56.0" width="6.0" height="10.0" fill="#ff3f2f"/><rect x="153.0" y="56.0" width="6.0" height="10.0" fill="#ff3f2f"/><rect x="147.0" y="56.0" width="6.0" height="10.0" fill="#ff3f2f"/><rect x="147.0" y="46.0" width="6.0" height="10.0" fill="#ff3f2f"/><rect x="147.0" y="36.0" width="6.0" height="10.0" fill="#ff3f2f"/><rect x="51.0" y="66.0" width="6.0" height="10.0" fill="#e7be00"/><rect x="69.0" y="66.0" width="6.0" height="10.0" fill="#e7be00"/><rect x="81.0" y="66.0" width="6.0" height="10.0" fill="#e7be00"/><rect x="69.0" y="96.0" width="6.0" height="10.0" fill="#e7be00"/><rect x="63.0" y="96.0" width="6.0" height="10.0" fill="#e7be00"/><rect x="51.0" y="96.0" width="6.0" height="10.0" fill="#e7be00"/><rect x="39.0" y="96.0" width="6.0" height="10.0" fill="#e7be00"/><rect x="27.0" y="96.0" width="6.0" height="10.0" fill="#e7be00"/><rect x="27.0" y="86.0" width="6.0" height="10.0" fill="#e7be00"/><rect x="87.0" y="66.0" width="6.0" height="10.0" fill="#ff3f2f"/><rect x="93.0" y="66.0" width="6.0" height="10.0" fill="#ff3f2f"/><rect x="99.0" y="66.0" width="6.0" height="10.0" fill="#ff3f2f"/><rect x="105.0" y="66.0" width="6.0" height="10.0" fill="#ff3f2f"/><rect x="117.0" y="66.0" width="6.0" height="10.0" fill="#ff3f2f"/><rect x="129.0" y="66.0" width="6.0" height="10.0" fill="#ff3f2f"/><rect x="141.0" y="66.0" width="6.0" height="10.0" fill="#ff3f2f"/><rect x="141.0" y="86.0" width="6.0" height="10.0" fill="#ff3f2f"/><rect x="135.0" y="96.0" width="6.0" height="10.0" fill="#ff3f2f"/><rect x="129.0" y="96.0" width="6.0" height="10.0" fill="#ff3f2f"/><rect x="123.0" y="96.0" width="6.0" height="10.0" fill="#ff3f2f"/><rect x="117.0" y="96.0" width="6.0" height="10.0" fill="#ff3f2f"/><rect x="111.0" y="96.0" width="6.0" height="10.0" fill="#ff3f2f"/><rect x="105.0" y="96.0" width="6.0" height="10.0" fill="#ff3f2f"/><rect x="87.0" y="76.0" width="6.0" height="10.0" fill="#ff3f2f"/><rect x="147.0" y="66.0" width="6.0" height="10.0" fill="#2f3fbf"/><rect x="159.0" y="66.0" width="6.0" height="10.0" fill="#2f3fbf"/><rect x="165.0" y="66.0" width="6.0" height="10.0" fill="#2f3fbf"/><rect x="183.0" y="66.0" width="6.0" height="10.0" fill="#2f3fbf"/><rect x="189.0" y="66.0" width="6.0" height="10.0" fill="#2f3fbf"/><rect x="201.0" y="66.0" width="6.0" height="10.0" fill="#2f3fbf"/><rect x="201.0" y="76.0" width="6.0" height="10.0" fill="#2f3fbf"/><rect x="201.0" y="96.0" width="6.0" height="10.0" fill="#2f3fbf"/><rect x="195.0" y="96.0" width="6.0" height="10.0" fill="#2f3fbf"/><rect x="189.0" y="96.0" width="6.0" height="10.0" fill="#2f3fbf"/><rect x="177.0" y="96.0" width="6.0" height="10.0" fill="#2f3fbf"/><rect x="171.0" y="96.0" width="6.0" height="10.0" fill="#2f3fbf"/><rect x="165.0" y="96.0" width="6.0" height="10.0" fill="#2f3fbf"/><rect x="159.0" y="96.0" width="6.0" height="10.0" fill="#2f3fbf"/><rect x="153.0" y="96.0" width="6.0" height="10.0" fill="#2f3fbf"/><rect x="147.0" y="96.0" width="6.0" height="10.0" fill="#2f3fbf"/><rect x="147.0" y="76.0" width="6.0" height="10.0" fill="#2f3fbf"/><rect x="207.0" y="66.0" width="6.0" height="10.0" fill="#ff3f2f"/><rect x="237.0" y="66.0" width="6.0" height="10.0" fill="#ff3f2f"/><rect x="243.0" y="66.0" width="6.0" height="10.0" fill="#ff3f2f"/><rect x="261.0" y="76.0" width="6.0" height="10.0" fill="#ff3f2f"/><rect x="255.0" y="96.0" width="6.0" height="10.0" fill="#ff3f2f"/><rect x="243.0" y="96.0" width="6.0" height="10.0" fill="#ff3f2f"/><rect x="237.0" y="96.0" width="6.0" height="10.0" fill="#ff3f2f"/><rect x="231.0" y="96.0" width="6.0" height="10.0" fill="#ff3f2f"/><rect x="225.0" y="96.0" width="6.0" height="10.0" fill="#ff3f2f"/><rect x="219.0" y="96.0" width="6.0" height="10.0" fill="#ff3f2f"/><rect x="213.0" y="96.0" width="6.0" height="10.0" fill="#ff3f2f"/><rect x="207.0" y="96.0" width="6.0" height="10.0" fill="#ff3f2f"/><rect x="207.0" y="76.0" width="6.0" height="10.0" fill="#ff3f2f"/><rect x="27.0" y="106.0" width="6.0" height="10.0" fill="#2f3fbf"/><rect x="33.0" y="106.0" width="6.0" height="10.0" fill="#2f3fbf"/><rect x="39.0" y="106.0" width="6.0" height="10.0" fill="#2f3fbf"/><rect x="45.0" y="106.0" width="6.0" height="10.0" fill="#2f3fbf"/><rect x="51.0" y="106.0" width="6.0" height="10.0" fill="#2f3fbf"/><rect x="57.0" y="106.0" width="6.0" height="10.0" fill="#2f3fbf"/><rect x="75.0" y="106.0" width="6.0" height="10.0" fill="#2f3fbf"/><rect x="81.0" y="106.0" width="6.0" height="10.0" fill="#2f3fbf"/><rect x="57.0" y="136.0" width="6.0" height="10.0" fill="#2f3fbf"/><rect x="51.0" y="136.0" width="6.0" height="10.0" fill="#2f3fbf"/><rect x="45.0" y="136.0" width="6.0" height="10.0" fill="#2f3fbf"/><rect x="33.0" y="136.0" width="6.0" height="10.0" fill="#2f3fbf"/><rect x="27.0" y="116.0" width="6.0" height="10.0" fill="#2f3fbf"/><rect x="147.0" y="106.0" width="6.0" height="10.0" fill="#e7be00"/><rect x="171.0" y="106.0" width="6.0" height="10.0" fill="#e7be00"/><rect x="177.0" y="106.0" width="6.0" height="10.0" fill="#e7be00"/><rect x="183.0" y="106.0" width="6.0" height="10.0" fill="#e7be00"/><rect x="189.0" y="106.0" width="6.0" height="10.0" fill="#e7be00"/><rect x="201.0" y="126.0" width="6.0" height="10.0" fill="#e7be00"/><rect x="195.0" y="136.0" width="6.0" height="10.0" fill="#e7be00"/><rect x="189.0" y="136.0" width="6.0" height="10.0" fill="#e7be00"/><rect x="177.0" y="136.0" width="6.0" height="10.0" fill="#e7be00"/><rect x="171.0" y="136.0" width="6.0" height="10.0" fill="#e7be00"/><rect x="165.0" y="136.0" width="6.0" height="10.0" fill="#e7be00"/><rect x="147.0" y="126.0" width="6.0" height="10.0" fill="#e7be00"/><rect x="147.0" y="116.0" width="6.0" height="10.0" fill="#e7be00"/><rect x="213.0" y="106.0" width="6.0" height="10.0" fill="#e7be00"/><rect x="231.0" y="106.0" width="6.0" height="10.0" fill="#e7be00"/><rect x="249.0" y="106.0" width="6.0" height="10.0" fill="#e7be00"/><rect x="261.0" y="126.0" width="6.0" height="10.0" fill="#e7be00"/><rect x="261.0" y="136.0" width="6.0" height="10.0" fill="#e7be00"/><rect x="255.0" y="136.0" width="6.0" height="10.0" fill="#e7be00"/><rect x="225.0" y="136.0" width="6.0" height="10.0" fill="#e7be00"/><rect x="207.0" y="136.0" width="6.0" height="10.0" fill="#e7be00"/><rect x="207.0" y="126.0" width="6.0" height="10.0" fill="#e7be00"/><rect x="27.0" y="146.0" width="6.0" height="10.0" fill="#e7be00"/><rect x="39.0" y="146.0" width="6.0" height="10.0" fill="#e7be00"/><rect x="63.0" y="146.0" width="6.0" height="10.0" fill="#e7be00"/><rect x="69.0" y="146.0" width="6.0" height="10.0" fill="#e7be00"/><rect x="75.0" y="146.0" width="6.0" height="10.0" fill="#e7be00"/><rect x="81.0" y="146.0" width="6.0" height="10.0" fill="#e7be00"/><rect x="81.0" y="156.0" width="6.0" height="10.0" fill="#e7be00"/><rect x="75.0" y="176.0" width="6.0" height="10.0" fill="#e7be00"/><rect x="57.0" y="176.0" width="6.0" height="10.0" fill="#e7be00"/><rect x="51.0" y="176.0" width="6.0" height="10.0" fill="#e7be00"/><rect x="45.0" y="176.0" width="6.0" height="10.0" fill="#e7be00"/><rect x="27.0" y="176.0" width="6.0" height="10.0" fill="#e7be00"/><rect x="27.0" y="166.0" width="6.0" height="10.0" fill="#e7be00"/><rect x="105.0" y="146.0" width="6.0" height="10.0" fill="#e7be00"/><rect x="123.0" y="146.0" width="6.0" height="10.0" fill="#e7be00"/><rect x="135.0" y="146.0" width="6.0" height="10.0" fill="#e7be00"/><rect x="141.0" y="156.0" width="6.0" height="10.0" fill="#e7be00"/><rect x="141.0" y="166.0" width="6.0" height="10.0" fill="#e7be00"/><rect x="135.0" y="176.0" width="6.0" height="10.0" fill="#e7be00"/><rect x="129.0" y="176.0" width="6.0" height="10.0" fill="#e7be00"/><rect x="123.0" y="176.0" width="6.0" height="10.0" fill="#e7be00"/><rect x="111.0" y="176.0" width="6.0" height="10.0" fill="#e7be00"/><rect x="105.0" y="176.0" width="6.0" height="10.0" fill="#e7be00"/><rect x="87.0" y="176.0" width="6.0" height="10.0" fill="#e7be00"/><rect x="87.0" y="156.0" width="6.0" height="10.0" fill="#e7be00"/><rect x="153.0" y="146.0" width="6.0" height="10.0" fill="#e7be00"/><rect x="165.0" y="146.0" width="6.0" height="10.0" fill="#e7be00"/><rect x="171.0" y="146.0" width="6.0" height="10.0" fill="#e7be00"/><rect x="177.0" y="146.0" width="6.0" height="10.0" fill="#e7be00"/><rect x="183.0" y="146.0" width="6.0" height="10.0" fill="#e7be00"/><rect x="195.0" y="146.0" width="6.0" height="10.0" fill="#e7be00"/><rect x="201.0" y="146.0" width="6.0" height="10.0" fill="#e7be00"/><rect x="201.0" y="156.0" width="6.0" height="10.0" fill="#e7be00"/><rect x="195.0" y="176.0" width="6.0" height="10.0" fill="#e7be00"/><rect x="183.0" y="176.0" width="6.0" height="10.0" fill="#e7be00"/><rect x="165.0" y="176.0" width="6.0" height="10.0" fill="#e7be00"/><rect x="147.0" y="176.0" width="6.0" height="10.0" fill="#e7be00"/><rect x="207.0" y="146.0" width="6.0" height="10.0" fill="#e7be00"/><rect x="219.0" y="146.0" width="6.0" height="10.0" fill="#e7be00"/><rect x="231.0" y="146.0" width="6.0" height="10.0" fill="#e7be00"/><rect x="261.0" y="146.0" width="6.0" height="10.0" fill="#e7be00"/><rect x="261.0" y="156.0" width="6.0" height="10.0" fill="#e7be00"/><rect x="261.0" y="176.0" width="6.0" height="10.0" fill="#e7be00"/><rect x="249.0" y="176.0" width="6.0" height="10.0" fill="#e7be00"/><rect x="237.0" y="176.0" width="6.0" height="10.0" fill="#e7be00"/><rect x="231.0" y="176.0" width="6.0" height="10.0" fill="#e7be00"/><rect x="219.0" y="176.0" width="6.0" height="10.0" fill="#e7be00"/><rect x="213.0" y="176.0" width="6.0" height="10.0" fill="#e7be00"/><rect x="207.0" y="176.0" width="6.0" height="10.0" fill="#e7be00"/><rect x="207.0" y="166.0" width="6.0" height="10.0" fill="#e7be00"/><rect x="27.0" y="186.0" width="6.0" height="10.0" fill="#ff3f2f"/><rect x="39.0" y="186.0" width="6.0" height="10.0" fill="#ff3f2f"/><rect x="81.0" y="206.0" width="6.0" height="10.0" fill="#ff3f2f"/><rect x="75.0" y="216.0" width="6.0" height="10.0" fill="#ff3f2f"/><rect x="69.0" y="216.0" width="6.0" height="10.0" fill="#ff3f2f"/><rect x="63.0" y="216.0" width="6.0" height="10.0" fill="#ff3f2f"/><rect x="45.0" y="216.0" width="6.0" height="10.0" fill="#ff3f2f"/><rect x="33.0" y="216.0" width="6.0" height="10.0" fill="#ff3f2f"/><rect x="27.0" y="196.0" width="6.0" height="10.0" fill="#ff3f2f"/><rect x="87.0" y="186.0" width="6.0" height="10.0" fill="#2f3fbf"/><rect x="99.0" y="186.0" width="6.0" height="10.0" fill="#2f3fbf"/><rect x="105.0" y="186.0" width="6.0" height="10.0" fill="#2f3fbf"/><rect x="129.0" y="186.0" width="6.0" height="10.0" fill="#2f3fbf"/><rect x="135.0" y="186.0" width="6.0" height="10.0" fill="#2f3fbf"/><rect x="141.0" y="196.0" width="6.0" height="10.0" fill="#2f3fbf"/><rect x="111.0" y="216.0" width="6.0" height="10.0" fill="#2f3fbf"/><rect x="105.0" y="216.0" width="6.0" height="10.0" fill="#2f3fbf"/><rect x="99.0" y="216.0" width="6.0" height="10.0" fill="#2f3fbf"/><rect x="93.0" y="216.0" width="6.0" height="10.0" fill="#2f3fbf"/><rect x="87.0" y="216.0" width="6.0" height="10.0" fill="#2f3fbf"/><rect x="87.0" y="196.0" width="6.0" height="10.0" fill="#2f3fbf"/><rect x="147.0" y="186.0" width="6.0" height="10.0" fill="#2f3fbf"/><rect x="153.0" y="186.0" width="6.0" height="10.0" fill="#2f3fbf"/><rect x="159.0" y="186.0" width="6.0" height="10.0" fill="#2f3fbf"/><rect x="183.0" y="186.0" width="6.0" height="10.0" fill="#2f3fbf"/><rect x="189.0" y="186.0" width="6.0" height="10.0" fill="#2f3fbf"/><rect x="195.0" y="216.0" width="6.0" height="10.0" fill="#2f3fbf"/><rect x="177.0" y="216.0" width="6.0" height="10.0" fill="#2f3fbf"/><rect x="153.0" y="216.0" width="6.0" height="10.0" fill="#2f3fbf"/><rect x="147.0" y="216.0" width="6.0" height="10.0" fill="#2f3fbf"/><rect x="207.0" y="186.0" width="6.0" height="10.0" fill="#2f3fbf"/><rect x="231.0" y="186.0" width="6.0" height="10.0" fill="#2f3fbf"/><rect x="237.0" y="186.0" width="6.0" height="10.0" fill="#2f3fbf"/><rect x="243.0" y="186.0" width="6.0" height="10.0" fill="#2f3fbf"/><rect x="261.0" y="186.0" width="6.0" height="10.0" fill="#2f3fbf"/><rect x="261.0" y="196.0" width="6.0" height="10.0" fill="#2f3fbf"/><rect x="261.0" y="206.0" width="6.0" height="10.0" fill="#2f3fbf"/><rect x="255.0" y="216.0" width="6.0" height="10.0" fill="#2f3fbf"/><rect x="249.0" y="216.0" width="6.0" height="10.0" fill="#2f3fbf"/><rect x="231.0" y="216.0" width="6.0" height="10.0" fill="#2f3fbf"/><rect x="213.0" y="216.0" width="6.0" height="10.0" fill="#2f3fbf"/><rect x="207.0" y="216.0" width="6.0" height="10.0" fill="#2f3fbf"/><rect x="39.0" y="226.0" width="6.0" height="10.0" fill="#ff3f2f"/><rect x="45.0" y="226.0" width="6.0" height="10.0" fill="#ff3f2f"/><rect x="51.0" y="226.0" width="6.0" height="10.0" fill="#ff3f2f"/><rect x="57.0" y="226.0" width="6.0" height="10.0" fill="#ff3f2f"/><rect x="75.0" y="226.0" width="6.0" height="10.0" fill="#ff3f2f"/><rect x="81.0" y="226.0" width="6.0" height="10.0" fill="#ff3f2f"/><rect x="81.0" y="256.0" width="6.0" height="10.0" fill="#ff3f2f"/><rect x="57.0" y="256.0" width="6.0" height="10.0" fill="#ff3f2f"/><rect x="45.0" y="256.0" width="6.0" height="10.0" fill="#ff3f2f"/><rect x="33.0" y="256.0" width="6.0" height="10.0" fill="#ff3f2f"/><rect x="87.0" y="226.0" width="6.0" height="10.0" fill="#2f3fbf"/><rect x="93.0" y="226.0" width="6.0" height="10.0" fill="#2f3fbf"/><rect x="135.0" y="226.0" width="6.0" height="10.0" fill="#2f3fbf"/><rect x="141.0" y="226.0" width="6.0" height="10.0" fill="#2f3fbf"/><rect x="141.0" y="236.0" width="6.0" height="10.0" fill="#2f3fbf"/><rect x="141.0" y="246.0" width="6.0" height="10.0" fill="#2f3fbf"/><rect x="135.0" y="256.0" width="6.0" height="10.0" fill="#2f3fbf"/><rect x="117.0" y="256.0" width="6.0" height="10.0" fill="#2f3fbf"/><rect x="105.0" y="256.0" width="6.0" height="10.0" fill="#2f3fbf"/><rect x="93.0" y="256.0" width="6.0" height="10.0" fill="#2f3fbf"/><rect x="153.0" y="226.0" width="6.0" height="10.0" fill="#2f3fbf"/><rect x="165.0" y="226.0" width="6.0" height="10.0" fill="#2f3fbf"/><rect x="177.0" y="226.0" width="6.0" height="10.0" fill="#2f3fbf"/><rect x="195.0" y="226.0" width="6.0" height="10.0" fill="#2f3fbf"/><rect x="201.0" y="226.0" width="6.0" height="10.0" fill="#2f3fbf"/><rect x="189.0" y="256.0" width="6.0" height="10.0" fill="#2f3fbf"/><rect x="177.0" y="256.0" width="6.0" height="10.0" fill="#2f3fbf"/><rect x="159.0" y="256.0" width="6.0" height="10.0" fill="#2f3fbf"/><rect x="153.0" y="256.0" width="6.0" height="10.0" fill="#2f3fbf"/><rect x="147.0" y="236.0" width="6.0" height="10.0" fill="#2f3fbf"/></g><g clip-path="url(#grid-clip-d2df89f4e04a6ac2-4x6)" data-channel="ellipse" data-ellipse-anchor-x="207.0" data-ellipse-anchor-y="146.0" data-ellipse-rx="104.70520903947423" data-ellipse-ry="57.977264509460944" data-ellipse-rotation-deg="12.0"><ellipse cx="207.0" cy="146.0" rx="104.70520903947423" ry="57.977264509460944" transform="rotate(12.0 207.0 146.0)" fill="#000000" stroke="#000000" fill-opacity="0.2" stroke-opacity="0.3" stroke-width="2.0"/></g><g><g data-channel="cell" data-cell-index="0" data-cell-row="0" data-cell-col="0" data-cell-blank="true" data-cell-blank-map="true"><rect x="33.0" y="36.0" width="48.0" height="20.0" rx="10.0" ry="10.0" fill="#e7be00" stroke="#000000" stroke-width="1"/><circle cx="39.0" cy="54.333333333333336" r="3.5" fill="#1d4ed8" data-blank-map-min="5,0"/><path d="M 58.8,37.666666666666664 H 67.2 M 63.0,33.46666666666666 V 41.86666666666667" fill="none" stroke="#d62828" stroke-width="1.9250000000000003" stroke-linecap="butt" data-blank-map-max="0,2"/></g><g data-channel="cell" data-cell-index="1" data-cell-row="0" data-cell-col="1"><rect x="93.0" y="36.0" width="48.0" height="20.0" fill="#ff7001"/><text x="117.0" y="46.0" fill="#000000" style="font-family: &quot;JetBrains Mono&quot;, &quot;Menlo&quot;, &quot;Consolas&quot;, &quot;DejaVu Sans Mono&quot;, &quot;Liberation Mono&quot;, &quot;Roboto Mono&quot;, &quot;Noto Sans Mono&quot;, monospace; font-size: 16.0px;" text-anchor="middle" dominant-baseline="central">q9c0</text></g><g data-channel="cell" data-cell-index="2" data-cell-row="0" data-cell-col="2"><rect x="153.0" y="36.0" width="48.0" height="20.0" fill="#ee8a84"/><text x="177.0" y="46.0" fill="#000000" style="font-family: &quot;JetBrains Mono&quot;, &quot;Menlo&quot;, &quot;Consolas&quot;, &quot;DejaVu Sans Mono&quot;, &quot;Liberation Mono&quot;, &quot;Roboto Mono&quot;, &quot;Noto Sans Mono&quot;, monospace; font-size: 16.0px;" text-anchor="middle" dominant-baseline="central">sj9w</text></g><g data-channel="cell" data-cell-index="3" data-cell-row="0" data-cell-col="3" data-cell-blank="true"><rect x="213.0" y="36.0" width="48.0" height="20.0" rx="10.0" ry="10.0" fill="none" stroke="#000000" stroke-width="1"/></g><g data-channel="cell" data-cell-index="4" data-cell-row="1" data-cell-col="0"><rect x="33.0" y="76.0" width="48.0" height="20.0" fill="#bb8a0a"/><text x="57.0" y="86.0" fill="#000000" style="font-family: &quot;JetBrains Mono&quot;, &quot;Menlo&quot;, &quot;Consolas&quot;, &quot;DejaVu Sans Mono&quot;, &quot;Liberation Mono&quot;, &quot;Roboto Mono&quot;, &quot;Noto Sans Mono&quot;, monospace; font-size: 16.0px;" text-anchor="middle" dominant-baseline="central">p29t</text></g><g data-channel="cell" data-cell-index="5" data-cell-row="1" data-cell-col="1"><rect x="93.0" y="76.0" width="48.0" height="20.0" fill="#bb3e30"/><text x="117.0" y="86.0" fill="#ffffff" style="font-family: &quot;JetBrains Mono&quot;, &quot;Menlo&quot;, &quot;Consolas&quot;, &quot;DejaVu Sans Mono&quot;, &quot;Liberation Mono&quot;, &quot;Roboto Mono&quot;, &quot;Noto Sans Mono&quot;, monospace; font-size: 16.0px;" text-anchor="middle" dominant-baseline="central">xqlt</text></g><g data-channel="cell" data-cell-index="6" data-cell-row="1" data-cell-col="2" data-cell-quartile="3"><rect x="153.0" y="76.0" width="48.0" height="20.0" fill="#882d78"/><text x="177.0" y="86.0" fill="#ffffff" style="font-family: &quot;JetBrains Mono&quot;, &quot;Menlo&quot;, &quot;Consolas&quot;, &quot;DejaVu Sans Mono&quot;, &quot;Liberation Mono&quot;, &quot;Roboto Mono&quot;, &quot;Noto Sans Mono&quot;, monospace; font-size: 16.0px;" text-anchor="middle" dominant-baseline="central">0qkc</text><polygon points="201.0,96.0 201.0,86.0 191.0,96.0" fill="#ffffff"/></g><g data-channel="cell" data-cell-index="7" data-cell-row="1" data-cell-col="3" data-cell-quartile="4"><rect x="213.0" y="76.0" width="48.0" height="20.0" fill="#ee05ae"/><text x="237.0" y="86.0" fill="#000000" style="font-family: &quot;JetBrains Mono&quot;, &quot;Menlo&quot;, &quot;Consolas&quot;, &quot;DejaVu Sans Mono&quot;, &quot;Liberation Mono&quot;, &quot;Roboto Mono&quot;, &quot;Noto Sans Mono&quot;, monospace; font-size: 16.0px;" text-anchor="middle" dominant-baseline="central">4cz7</text><polygon points="213.0,96.0 213.0,86.0 223.0,96.0" fill="#000000"/></g><g data-channel="cell" data-cell-index="8" data-cell-row="2" data-cell-col="0"><rect x="33.0" y="116.0" width="48.0" height="20.0" fill="#0069d3"/><text x="57.0" y="126.0" fill="#ffffff" style="font-family: &quot;JetBrains Mono&quot;, &quot;Menlo&quot;, &quot;Consolas&quot;, &quot;DejaVu Sans Mono&quot;, &quot;Liberation Mono&quot;, &quot;Roboto Mono&quot;, &quot;Noto Sans Mono&quot;, monospace; font-size: 16.0px;" text-anchor="middle" dominant-baseline="central">6d5s</text></g><g data-channel="cell" data-cell-index="9" data-cell-row="2" data-cell-col="1" data-cell-blank="true"><rect x="93.0" y="116.0" width="48.0" height="20.0" rx="10.0" ry="10.0" fill="none" stroke="#000000" stroke-width="1"/></g><g data-channel="cell" data-cell-index="10" data-cell-row="2" data-cell-col="2"><rect x="153.0" y="116.0" width="48.0" height="20.0" fill="#66ea17"/><text x="177.0" y="126.0" fill="#000000" style="font-family: &quot;JetBrains Mono&quot;, &quot;Menlo&quot;, &quot;Consolas&quot;, &quot;DejaVu Sans Mono&quot;, &quot;Liberation Mono&quot;, &quot;Roboto Mono&quot;, &quot;Noto Sans Mono&quot;, monospace; font-size: 16.0px;" text-anchor="middle" dominant-baseline="central">zl4x</text></g><g data-channel="cell" data-cell-index="11" data-cell-row="2" data-cell-col="3" data-cell-fingerprint="true"><rect x="213.0" y="116.0" width="48.0" height="20.0" fill="#ffffff"/><rect x="213.5" y="116.5" width="47.0" height="19.0" fill="none" stroke="#e7be00" stroke-width="1"/><text x="237.0" y="126.0" fill="#000000" style="font-family: &quot;JetBrains Mono&quot;, &quot;Menlo&quot;, &quot;Consolas&quot;, &quot;DejaVu Sans Mono&quot;, &quot;Liberation Mono&quot;, &quot;Roboto Mono&quot;, &quot;Noto Sans Mono&quot;, monospace; font-size: 12.0px;" text-anchor="middle" dominant-baseline="central">d0e440</text></g><g data-channel="cell" data-cell-index="12" data-cell-row="3" data-cell-col="0" data-cell-fingerprint="true"><rect x="33.0" y="156.0" width="48.0" height="20.0" fill="#ffffff"/><rect x="33.5" y="156.5" width="47.0" height="19.0" fill="none" stroke="#e7be00" stroke-width="1"/><text x="57.0" y="166.0" fill="#000000" style="font-family: &quot;JetBrains Mono&quot;, &quot;Menlo&quot;, &quot;Consolas&quot;, &quot;DejaVu Sans Mono&quot;, &quot;Liberation Mono&quot;, &quot;Roboto Mono&quot;, &quot;Noto Sans Mono&quot;, monospace; font-size: 12.0px;" text-anchor="middle" dominant-baseline="central">7e5fae</text></g><g data-channel="cell" data-cell-index="13" data-cell-row="3" data-cell-col="1" data-cell-fingerprint="true"><rect x="93.0" y="156.0" width="48.0" height="20.0" fill="#ffffff"/><rect x="93.5" y="156.5" width="47.0" height="19.0" fill="none" stroke="#e7be00" stroke-width="1"/><text x="117.0" y="166.0" fill="#000000" style="font-family: &quot;JetBrains Mono&quot;, &quot;Menlo&quot;, &quot;Consolas&quot;, &quot;DejaVu Sans Mono&quot;, &quot;Liberation Mono&quot;, &quot;Roboto Mono&quot;, &quot;Noto Sans Mono&quot;, monospace; font-size: 12.0px;" text-anchor="middle" dominant-baseline="central">27b0a6</text></g><g data-channel="cell" data-cell-index="14" data-cell-row="3" data-cell-col="2" data-cell-fingerprint="true" data-cell-quartile="1"><rect x="153.0" y="156.0" width="48.0" height="20.0" fill="#ffffff"/><rect x="153.5" y="156.5" width="47.0" height="19.0" fill="none" stroke="#e7be00" stroke-width="1"/><text x="177.0" y="166.0" fill="#000000" style="font-family: &quot;JetBrains Mono&quot;, &quot;Menlo&quot;, &quot;Consolas&quot;, &quot;DejaVu Sans Mono&quot;, &quot;Liberation Mono&quot;, &quot;Roboto Mono&quot;, &quot;Noto Sans Mono&quot;, monospace; font-size: 12.0px;" text-anchor="middle" dominant-baseline="central">d60176</text><polygon points="153.0,156.0 163.0,156.0 153.0,166.0" fill="#ffffff"/></g><g data-channel="cell" data-cell-index="15" data-cell-row="3" data-cell-col="3"><rect x="213.0" y="156.0" width="48.0" height="20.0" fill="#55841c"/><text x="237.0" y="166.0" fill="#ffffff" style="font-family: &quot;JetBrains Mono&quot;, &quot;Menlo&quot;, &quot;Consolas&quot;, &quot;DejaVu Sans Mono&quot;, &quot;Liberation Mono&quot;, &quot;Roboto Mono&quot;, &quot;Noto Sans Mono&quot;, monospace; font-size: 16.0px;" text-anchor="middle" dominant-baseline="central">rjz9</text></g><g data-channel="cell" data-cell-index="16" data-cell-row="4" data-cell-col="0"><rect x="33.0" y="196.0" width="48.0" height="20.0" fill="#886c0c"/><text x="57.0" y="206.0" fill="#ffffff" style="font-family: &quot;JetBrains Mono&quot;, &quot;Menlo&quot;, &quot;Consolas&quot;, &quot;DejaVu Sans Mono&quot;, &quot;Liberation Mono&quot;, &quot;Roboto Mono&quot;, &quot;Noto Sans Mono&quot;, monospace; font-size: 16.0px;" text-anchor="middle" dominant-baseline="central">p3kg</text></g><g data-channel="cell" data-cell-index="17" data-cell-row="4" data-cell-col="1"><rect x="93.0" y="196.0" width="48.0" height="20.0" fill="#119e31"/><text x="117.0" y="206.0" fill="#000000" style="font-family: &quot;JetBrains Mono&quot;, &quot;Menlo&quot;, &quot;Consolas&quot;, &quot;DejaVu Sans Mono&quot;, &quot;Liberation Mono&quot;, &quot;Roboto Mono&quot;, &quot;Noto Sans Mono&quot;, monospace; font-size: 16.0px;" text-anchor="middle" dominant-baseline="central">xx0p</text></g><g data-channel="cell" data-cell-index="18" data-cell-row="4" data-cell-col="2" data-cell-quartile="2"><rect x="153.0" y="196.0" width="48.0" height="20.0" fill="#11acf8"/><text x="177.0" y="206.0" fill="#000000" style="font-family: &quot;JetBrains Mono&quot;, &quot;Menlo&quot;, &quot;Consolas&quot;, &quot;DejaVu Sans Mono&quot;, &quot;Liberation Mono&quot;, &quot;Roboto Mono&quot;, &quot;Noto Sans Mono&quot;, monospace; font-size: 16.0px;" text-anchor="middle" dominant-baseline="central">lzkp</text><polygon points="201.0,196.0 191.0,196.0 201.0,206.0" fill="#000000"/></g><g data-channel="cell" data-cell-index="19" data-cell-row="4" data-cell-col="3"><rect x="213.0" y="196.0" width="48.0" height="20.0" fill="#aaa6bd"/><text x="237.0" y="206.0" fill="#000000" style="font-family: &quot;JetBrains Mono&quot;, &quot;Menlo&quot;, &quot;Consolas&quot;, &quot;DejaVu Sans Mono&quot;, &quot;Liberation Mono&quot;, &quot;Roboto Mono&quot;, &quot;Noto Sans Mono&quot;, monospace; font-size: 16.0px;" text-anchor="middle" dominant-baseline="central">hkn2</text></g><g data-channel="cell" data-cell-index="20" data-cell-row="5" data-cell-col="0"><rect x="33.0" y="236.0" width="48.0" height="20.0" fill="#884226"/><text x="57.0" y="246.0" fill="#ffffff" style="font-family: &quot;JetBrains Mono&quot;, &quot;Menlo&quot;, &quot;Consolas&quot;, &quot;DejaVu Sans Mono&quot;, &quot;Liberation Mono&quot;, &quot;Roboto Mono&quot;, &quot;Noto Sans Mono&quot;, monospace; font-size: 16.0px;" text-anchor="middle" dominant-baseline="central">yepg</text></g><g data-channel="cell" data-cell-index="21" data-cell-row="5" data-cell-col="1"><rect x="93.0" y="236.0" width="48.0" height="20.0" fill="#2294d3"/><text x="117.0" y="246.0" fill="#000000" style="font-family: &quot;JetBrains Mono&quot;, &quot;Menlo&quot;, &quot;Consolas&quot;, &quot;DejaVu Sans Mono&quot;, &quot;Liberation Mono&quot;, &quot;Roboto Mono&quot;, &quot;Noto Sans Mono&quot;, monospace; font-size: 16.0px;" text-anchor="middle" dominant-baseline="central">6w2z</text></g><g data-channel="cell" data-cell-index="22" data-cell-row="5" data-cell-col="2"><rect x="153.0" y="236.0" width="48.0" height="20.0" fill="#006f90"/><text x="177.0" y="246.0" fill="#ffffff" style="font-family: &quot;JetBrains Mono&quot;, &quot;Menlo&quot;, &quot;Consolas&quot;, &quot;DejaVu Sans Mono&quot;, &quot;Liberation Mono&quot;, &quot;Roboto Mono&quot;, &quot;Noto Sans Mono&quot;, monospace; font-size: 16.0px;" text-anchor="middle" dominant-baseline="central">jphs</text></g><g data-channel="cell" data-cell-index="23" data-cell-row="5" data-cell-col="3" data-cell-blank="true"><rect x="213.0" y="236.0" width="48.0" height="20.0" rx="10.0" ry="10.0" fill="none" stroke="#000000" stroke-width="1"/></g></g></g><g data-channel="color-bar"><g data-color-bar-rank="0" data-color-bar-band="R"><rect x="1" y="1" width="20.0" height="81.5834322459572" fill="#ff3f2f"/><text x="11.0" y="79.0634322459572" fill="#000000" style="font-family: &quot;JetBrains Mono&quot;, &quot;Menlo&quot;, &quot;Consolas&quot;, &quot;DejaVu Sans Mono&quot;, &quot;Liberation Mono&quot;, &quot;Roboto Mono&quot;, &quot;Noto Sans Mono&quot;, monospace; font-size: 16.0px;" text-anchor="middle" data-color-bar-letter="true">r</text></g><g data-color-bar-rank="1" data-color-bar-band="G"><rect x="1" y="82.5834322459572" width="20.0" height="76.75022489037474" fill="#e7be00"/><text x="11.0" y="155.81365713633193" fill="#000000" style="font-family: &quot;JetBrains Mono&quot;, &quot;Menlo&quot;, &quot;Consolas&quot;, &quot;DejaVu Sans Mono&quot;, &quot;Liberation Mono&quot;, &quot;Roboto Mono&quot;, &quot;Noto Sans Mono&quot;, monospace; font-size: 16.0px;" text-anchor="middle" data-color-bar-letter="true">g</text></g><g data-color-bar-rank="2" data-color-bar-band="B"><rect x="1" y="159.33365713633194" width="20.0" height="72.13501493837855" fill="#2f3fbf"/><text x="11.0" y="227.94867207471046" fill="#ffffff" style="font-family: &quot;JetBrains Mono&quot;, &quot;Menlo&quot;, &quot;Consolas&quot;, &quot;DejaVu Sans Mono&quot;, &quot;Liberation Mono&quot;, &quot;Roboto Mono&quot;, &quot;Noto Sans Mono&quot;, monospace; font-size: 16.0px;" text-anchor="middle" data-color-bar-letter="true">b</text></g><g data-color-bar-rank="3" data-color-bar-band="K"><rect x="1" y="231.46867207471047" width="20.0" height="59.53132792528953" fill="#000000"/><text x="11.0" y="287.48" fill="#ffffff" style="font-family: &quot;JetBrains Mono&quot;, &quot;Menlo&quot;, &quot;Consolas&quot;, &quot;DejaVu Sans Mono&quot;, &quot;Liberation Mono&quot;, &quot;Roboto Mono&quot;, &quot;Noto Sans Mono&quot;, monospace; font-size: 16.0px;" text-anchor="middle" data-color-bar-letter="true">k</text></g></g><g data-channel="label-top"><text x="27.0" y="16.0" fill="#666666" style="font-family: &quot;JetBrains Mono&quot;, &quot;Menlo&quot;, &quot;Consolas&quot;, &quot;DejaVu Sans Mono&quot;, &quot;Liberation Mono&quot;, &quot;Roboto Mono&quot;, &quot;Noto Sans Mono&quot;, monospace; font-size: 12.0px;" dominant-baseline="central"><tspan fill="#a00000" font-weight="bold">fingerprint of </tspan>ADA Shelley: addr1...</text></g><g data-channel="label-bottom"><text x="267.0" y="276.0" fill="#666666" style="font-family: &quot;JetBrains Mono&quot;, &quot;Menlo&quot;, &quot;Consolas&quot;, &quot;DejaVu Sans Mono&quot;, &quot;Liberation Mono&quot;, &quot;Roboto Mono&quot;, &quot;Noto Sans Mono&quot;, monospace; font-size: 12.0px;" text-anchor="end" dominant-baseline="central">...htm0rl</text></g><line x1="0" y1="0.5" x2="273.0" y2="0.5" stroke="#808080" stroke-width="1" shape-rendering="crispEdges"/><line x1="272.5" y1="0" x2="272.5" y2="292.0" stroke="#808080" stroke-width="1" shape-rendering="crispEdges"/><line x1="0" y1="291.5" x2="273.0" y2="291.5" stroke="#808080" stroke-width="1" shape-rendering="crispEdges"/><line x1="0.5" y1="0" x2="0.5" y2="292.0" stroke="#808080" stroke-width="1" shape-rendering="crispEdges"/><line x1="21.5" y1="0" x2="21.5" y2="292.0" stroke="#808080" stroke-width="1" shape-rendering="crispEdges"/></svg>