<svg width="273" height="292" viewBox="0 0 273 292" xmlns="http://www.w3.org/2000/svg" font-family="&quot;JetBrains Mono&quot;, &quot;Menlo&quot;, &quot;Consolas&quot;, &quot;DejaVu Sans Mono&quot;, &quot;Liberation Mono&quot;, &quot;Roboto Mono&quot;, &quot;Noto Sans Mono&quot;, monospace" data-entviz-version="v11" data-entviz-lib="0.11.0" data-input-bytes="103" data-cols="4" data-rows="6" data-truncated="true"><defs><clipPath id="grid-clip-d2df89f4e04a6ac2-4x6"><rect x="27" y="26" width="240" height="240"/></clipPath></defs><rect x="0" y="0" width="273" height="292" fill="#ffffff"/><g data-channel="grid"><rect x="27" y="26" width="240" height="240" fill="#ffffff"/><g><path fill="#ff3f2f" d="M87 26h6v10h-6zM105 26h6v10h-6zM129 26h6v10h-6zM135 26h6v10h-6zM141 26h6v10h-6zM141 36h6v10h-6zM141 46h6v10h-6zM141 56h6v10h-6zM129 56h6v10h-6zM123 56h6v10h-6zM111 56h6v10h-6zM93 56h6v10h-6zM87 46h6v10h-6zM87 36h6v10h-6z"/><path fill="#ff3f2f" d="M153 26h6v10h-6zM165 26h6v10h-6zM183 26h6v10h-6zM195 56h6v10h-6zM189 56h6v10h-6zM183 56h6v10h-6zM165 56h6v10h-6zM153 56h6v10h-6zM147 56h6v10h-6zM147 46h6v10h-6zM147 36h6v10h-6z"/><path fill="#e7be00" d="M51 66h6v10h-6zM69 66h6v10h-6zM81 66h6v10h-6zM69 96h6v10h-6zM63 96h6v10h-6zM51 96h6v10h-6zM39 96h6v10h-6zM27 96h6v10h-6zM27 86h6v10h-6z"/><path fill="#ff3f2f" d="M87 66h6v10h-6zM93 66h6v10h-6zM99 66h6v10h-6zM105 66h6v10h-6zM117 66h6v10h-6zM129 66h6v10h-6zM141 66h6v10h-6zM141 86h6v10h-6zM135 96h6v10h-6zM129 96h6v10h-6zM123 96h6v10h-6zM117 96h6v10h-6zM111 96h6v10h-6zM105 96h6v10h-6zM87 76h6v10h-6z"/><path fill="#2f3fbf" d="M147 66h6v10h-6zM159 66h6v10h-6zM165 66h6v10h-6zM183 66h6v10h-6zM189 66h6v10h-6zM201 66h6v10h-6zM201 76h6v10h-6zM201 96h6v10h-6zM195 96h6v10h-6zM189 96h6v10h-6zM177 96h6v10h-6zM171 96h6v10h-6zM165 96h6v10h-6zM159 96h6v10h-6zM153 96h6v10h-6zM147 96h6v10h-6zM147 76h6v10h-6z"/><path fill="#ff3f2f" d="M207 66h6v10h-6zM237 66h6v10h-6zM243 66h6v10h-6zM261 76h6v10h-6zM255 96h6v10h-6zM243 96h6v10h-6zM237 96h6v10h-6zM231 96h6v10h-6zM225 96h6v10h-6zM219 96h6v10h-6zM213 96h6v10h-6zM207 96h6v10h-6zM207 76h6v10h-6z"/><path fill="#2f3fbf" d="M27 106h6v10h-6zM33 106h6v10h-6zM39 106h6v10h-6zM45 106h6v10h-6zM51 106h6v10h-6zM57 106h6v10h-6zM75 106h6v10h-6zM81 106h6v10h-6zM57 136h6v10h-6zM51 136h6v10h-6zM45 136h6v10h-6zM33 136h6v10h-6zM27 116h6v10h-6z"/><path fill="#e7be00" d="M147 106h6v10h-6zM171 106h6v10h-6zM177 106h6v10h-6zM183 106h6v10h-6zM189 106h6v10h-6zM201 126h6v10h-6zM195 136h6v10h-6zM189 136h6v10h-6zM177 136h6v10h-6zM171 136h6v10h-6zM165 136h6v10h-6zM147 126h6v10h-6zM147 116h6v10h-6z"/><path fill="#e7be00" d="M213 106h6v10h-6zM231 106h6v10h-6zM249 106h6v10h-6zM261 126h6v10h-6zM261 136h6v10h-6zM255 136h6v10h-6zM225 136h6v10h-6zM207 136h6v10h-6zM207 126h6v10h-6z"/><path fill="#e7be00" d="M27 146h6v10h-6zM39 146h6v10h-6zM63 146h6v10h-6zM69 146h6v10h-6zM75 146h6v10h-6zM81 146h6v10h-6zM81 156h6v10h-6zM75 176h6v10h-6zM57 176h6v10h-6zM51 176h6v10h-6zM45 176h6v10h-6zM27 176h6v10h-6zM27 166h6v10h-6z"/><path fill="#e7be00" d="M105 146h6v10h-6zM123 146h6v10h-6zM135 146h6v10h-6zM141 156h6v10h-6zM141 166h6v10h-6zM135 176h6v10h-6zM129 176h6v10h-6zM123 176h6v10h-6zM111 176h6v10h-6zM105 176h6v10h-6zM87 176h6v10h-6zM87 156h6v10h-6z"/><path fill="#2f3fbf" d="M153 146h6v10h-6zM165 146h6v10h-6zM171 146h6v10h-6zM177 146h6v10h-6zM183 146h6v10h-6zM195 146h6v10h-6zM201 146h6v10h-6zM201 156h6v10h-6zM195 176h6v10h-6zM183 176h6v10h-6zM165 176h6v10h-6zM147 176h6v10h-6z"/><path fill="#e7be00" d="M207 146h6v10h-6zM219 146h6v10h-6zM231 146h6v10h-6zM261 146h6v10h-6zM261 156h6v10h-6zM261 176h6v10h-6zM249 176h6v10h-6zM237 176h6v10h-6zM231 176h6v10h-6zM219 176h6v10h-6zM213 176h6v10h-6zM207 176h6v10h-6zM207 166h6v10h-6z"/><path fill="#ff3f2f" d="M27 186h6v10h-6zM39 186h6v10h-6zM81 206h6v10h-6zM75 216h6v10h-6zM69 216h6v10h-6zM63 216h6v10h-6zM45 216h6v10h-6zM33 216h6v10h-6zM27 196h6v10h-6z"/><path fill="#2f3fbf" d="M87 186h6v10h-6zM99 186h6v10h-6zM105 186h6v10h-6zM129 186h6v10h-6zM135 186h6v10h-6zM141 196h6v10h-6zM111 216h6v10h-6zM105 216h6v10h-6zM99 216h6v10h-6zM93 216h6v10h-6zM87 216h6v10h-6zM87 196h6v10h-6z"/><path fill="#000000" d="M147 186h6v10h-6zM153 186h6v10h-6zM159 186h6v10h-6zM183 186h6v10h-6zM189 186h6v10h-6zM195 216h6v10h-6zM177 216h6v10h-6zM153 216h6v10h-6zM147 216h6v10h-6z"/><path fill="#2f3fbf" d="M207 186h6v10h-6zM231 186h6v10h-6zM237 186h6v10h-6zM243 186h6v10h-6zM261 186h6v10h-6zM261 196h6v10h-6zM261 206h6v10h-6zM255 216h6v10h-6zM249 216h6v10h-6zM231 216h6v10h-6zM213 216h6v10h-6zM207 216h6v10h-6z"/><path fill="#ff3f2f" d="M39 226h6v10h-6zM45 226h6v10h-6zM51 226h6v10h-6zM57 226h6v10h-6zM75 226h6v10h-6zM81 226h6v10h-6zM81 256h6v10h-6zM57 256h6v10h-6zM45 256h6v10h-6zM33 256h6v10h-6z"/><path fill="#2f3fbf" d="M87 226h6v10h-6zM93 226h6v10h-6zM135 226h6v10h-6zM141 226h6v10h-6zM141 236h6v10h-6zM141 246h6v10h-6zM135 256h6v10h-6zM117 256h6v10h-6zM105 256h6v10h-6zM93 256h6v10h-6z"/><path fill="#2f3fbf" d="M153 226h6v10h-6zM165 226h6v10h-6zM177 226h6v10h-6zM195 226h6v10h-6zM201 226h6v10h-6zM189 256h6v10h-6zM177 256h6v10h-6zM159 256h6v10h-6zM153 256h6v10h-6zM147 236h6v10h-6z"/></g><g clip-path="url(#grid-clip-d2df89f4e04a6ac2-4x6)" data-channel="ellipse" data-ellipse-anchor-x="207" data-ellipse-anchor-y="146" data-ellipse-rx="104.705" data-ellipse-ry="57.977" data-ellipse-rotation-deg="12"><ellipse cx="207" cy="146" rx="104.705" ry="57.977" transform="rotate(12 207 146)" fill="#000000" stroke="#000000" fill-opacity="0.2" stroke-opacity="0.3" stroke-width="2"/></g><g><g data-channel="cell" data-cell-index="0" data-cell-row="0" data-cell-col="0" data-cell-blank="true" data-cell-blank-map="true"><rect x="33" y="36" width="48" height="20" rx="10" ry="10" fill="#e7be00" stroke="#000000" stroke-width="1"/><circle cx="39" cy="54.333" r="3.5" fill="#1d4ed8" data-blank-map-min="5,0"/><path d="M 58.8,37.667 H 67.2 M 63,33.467 V 41.867" fill="none" stroke="#d62828" stroke-width="1.925" stroke-linecap="butt" data-blank-map-max="0,2"/></g><g data-channel="cell" data-cell-index="1" data-cell-row="0" data-cell-col="1" data-surround-bits="0xd2df89" data-edge-color="#ff3f2f"><rect x="93" y="36" width="48" height="20" fill="#ff7001"/><text x="117" y="46" fill="#000000" font-size="16" text-anchor="middle" dominant-baseline="central">q9c0</text></g><g data-channel="cell" data-cell-index="2" data-cell-row="0" data-cell-col="2" data-surround-bits="0xf4e04a" data-edge-color="#ff3f2f"><rect x="153" y="36" width="48" height="20" fill="#ee8a84"/><text x="177" y="46" fill="#000000" font-size="16" text-anchor="middle" dominant-baseline="central">sj9w</text></g><g data-channel="cell" data-cell-index="3" data-cell-row="0" data-cell-col="3" data-cell-blank="true"><rect x="213" y="36" width="48" height="20" rx="10" ry="10" fill="#e7be00" stroke="#000000" stroke-width="1"/></g><g data-channel="cell" data-cell-index="4" data-cell-row="1" data-cell-col="0" data-surround-bits="0x6ac290" data-edge-color="#e7be00"><rect x="33" y="76" width="48" height="20" fill="#bb8a0a"/><text x="57" y="86" fill="#000000" font-size="16" text-anchor="middle" dominant-baseline="central">p29t</text></g><g data-channel="cell" data-cell-index="5" data-cell-row="1" data-cell-col="1" data-surround-bits="0x87eaaf" data-edge-color="#ff3f2f"><rect x="93" y="76" width="48" height="20" fill="#bb3e30"/><text x="117" y="86" fill="#ffffff" font-size="16" text-anchor="middle" dominant-baseline="central">xqlt</text></g><g data-channel="cell" data-cell-index="6" data-cell-row="1" data-cell-col="2" data-surround-bits="0xbf76cd" data-edge-color="#2f3fbf" data-cell-quartile="3"><rect x="153" y="76" width="48" height="20" fill="#882d78"/><text x="177" y="86" fill="#ffffff" font-size="16" text-anchor="middle" dominant-baseline="central">0qkc</text><polygon points="201,96 201,86 191,96" fill="#ffffff"/></g><g data-channel="cell" data-cell-index="7" data-cell-row="1" data-cell-col="3" data-surround-bits="0xbfa461" data-edge-color="#ff3f2f" data-cell-quartile="4"><rect x="213" y="76" width="48" height="20" fill="#ee05ae"/><text x="237" y="86" fill="#000000" font-size="16" text-anchor="middle" dominant-baseline="central">4cz7</text><polygon points="213,96 213,86 223,96" fill="#000000"/></g><g data-channel="cell" data-cell-index="8" data-cell-row="2" data-cell-col="0" data-surround-bits="0x97033f" data-edge-color="#2f3fbf"><rect x="33" y="116" width="48" height="20" fill="#0069d3"/><text x="57" y="126" fill="#ffffff" font-size="16" text-anchor="middle" dominant-baseline="central">6d5s</text></g><g data-channel="cell" data-cell-index="9" data-cell-row="2" data-cell-col="1" data-cell-blank="true"><rect x="93" y="116" width="48" height="20" rx="10" ry="10" fill="#e7be00" stroke="#000000" stroke-width="1"/></g><g data-channel="cell" data-cell-index="10" data-cell-row="2" data-cell-col="2" data-surround-bits="0xc768f1" data-edge-color="#e7be00"><rect x="153" y="116" width="48" height="20" fill="#66ea17"/><text x="177" y="126" fill="#000000" font-size="16" text-anchor="middle" dominant-baseline="central">zl4x</text></g><g data-channel="cell" data-cell-index="11" data-cell-row="2" data-cell-col="3" data-cell-fingerprint="true" data-surround-bits="0x643892" data-edge-color="#e7be00"><rect x="213" y="116" width="48" height="20" fill="#ffffff"/><rect x="213.5" y="116.5" width="47" height="19" fill="none" stroke="#e7be00" stroke-width="1"/><text x="237" y="126" fill="#000000" font-size="13.333" text-anchor="middle" dominant-baseline="central">d1s20</text></g><g data-channel="cell" data-cell-index="12" data-cell-row="3" data-cell-col="0" data-cell-fingerprint="true" data-surround-bits="0x6727c5" data-edge-color="#e7be00"><rect x="33" y="156" width="48" height="20" fill="#ffffff"/><rect x="33.5" y="156.5" width="47" height="19" fill="none" stroke="#e7be00" stroke-width="1"/><text x="57" y="166" fill="#000000" font-size="13.333" text-anchor="middle" dominant-baseline="central">7wqxe</text></g><g data-channel="cell" data-cell-index="13" data-cell-row="3" data-cell-col="1" data-cell-fingerprint="true" data-surround-bits="0xa6ed48" data-edge-color="#e7be00"><rect x="93" y="156" width="48" height="20" fill="#ffffff"/><rect x="93.5" y="156.5" width="47" height="19" fill="none" stroke="#e7be00" stroke-width="1"/><text x="117" y="166" fill="#000000" font-size="13.333" text-anchor="middle" dominant-baseline="central">2fc56</text></g><g data-channel="cell" data-cell-index="14" data-cell-row="3" data-cell-col="2" data-cell-fingerprint="true" data-surround-bits="0x24a77a" data-edge-color="#2f3fbf" data-cell-quartile="1"><rect x="153" y="156" width="48" height="20" fill="#ffffff"/><rect x="153.5" y="156.5" width="47" height="19" fill="none" stroke="#e7be00" stroke-width="1"/><text x="177" y="166" fill="#000000" font-size="13.333" text-anchor="middle" dominant-baseline="central">dc0bp</text><polygon points="153,156 163,156 153,166" fill="#ffffff"/></g><g data-channel="cell" data-cell-index="15" data-cell-row="3" data-cell-col="3" data-surround-bits="0x7b5615" data-edge-color="#e7be00"><rect x="213" y="156" width="48" height="20" fill="#55841c"/><text x="237" y="166" fill="#ffffff" font-size="16" text-anchor="middle" dominant-baseline="central">rjz9</text></g><g data-channel="cell" data-cell-index="16" data-cell-row="4" data-cell-col="0" data-surround-bits="0x94e805" data-edge-color="#ff3f2f"><rect x="33" y="196" width="48" height="20" fill="#886c0c"/><text x="57" y="206" fill="#ffffff" font-size="16" text-anchor="middle" dominant-baseline="central">p3kg</text></g><g data-channel="cell" data-cell-index="17" data-cell-row="4" data-cell-col="1" data-surround-bits="0xbe058d" data-edge-color="#2f3fbf"><rect x="93" y="196" width="48" height="20" fill="#119e31"/><text x="117" y="206" fill="#000000" font-size="16" text-anchor="middle" dominant-baseline="central">xx0p</text></g><g data-channel="cell" data-cell-index="18" data-cell-row="4" data-cell-col="2" data-surround-bits="0x3120c7" data-edge-color="#000000" data-cell-quartile="2"><rect x="153" y="196" width="48" height="20" fill="#11acf8"/><text x="177" y="206" fill="#000000" font-size="16" text-anchor="middle" dominant-baseline="central">lzkp</text><polygon points="201,196 191,196 201,206" fill="#000000"/></g><g data-channel="cell" data-cell-index="19" data-cell-row="4" data-cell-col="3" data-surround-bits="0x326e71" data-edge-color="#2f3fbf"><rect x="213" y="196" width="48" height="20" fill="#aaa6bd"/><text x="237" y="206" fill="#000000" font-size="16" text-anchor="middle" dominant-baseline="central">hkn2</text></g><g data-channel="cell" data-cell-index="20" data-cell-row="5" data-cell-col="0" data-surround-bits="0x15133c" data-edge-color="#ff3f2f"><rect x="33" y="236" width="48" height="20" fill="#884226"/><text x="57" y="246" fill="#ffffff" font-size="16" text-anchor="middle" dominant-baseline="central">yepg</text></g><g data-channel="cell" data-cell-index="21" data-cell-row="5" data-cell-col="1" data-surround-bits="0x152f03" data-edge-color="#2f3fbf"><rect x="93" y="236" width="48" height="20" fill="#2294d3"/><text x="117" y="246" fill="#000000" font-size="16" text-anchor="middle" dominant-baseline="central">6w2z</text></g><g data-channel="cell" data-cell-index="22" data-cell-row="5" data-cell-col="2" data-surround-bits="0x99432a" data-edge-color="#2f3fbf"><rect x="153" y="236" width="48" height="20" fill="#006f90"/><text x="177" y="246" fill="#ffffff" font-size="16" text-anchor="middle" dominant-baseline="central">jphs</text></g><g data-channel="cell" data-cell-index="23" data-cell-row="5" data-cell-col="3" data-cell-blank="true"><rect x="213" y="236" width="48" height="20" rx="10" ry="10" fill="#000000" stroke="#000000" stroke-width="1"/></g></g></g><g data-channel="color-bar" data-bar-slots="16" data-bar-marker-left="2" data-bar-marker-right="15"><g data-color-bar-rank="0" data-color-bar-band="B"><rect x="1" y="1" width="20" height="72.135" fill="#2f3fbf"/><text x="11" y="69.615" fill="#ffffff" font-size="16" text-anchor="middle" data-color-bar-letter="true">b</text></g><g data-color-bar-rank="1" data-color-bar-band="G"><rect x="1" y="73.135" width="20" height="76.75" fill="#e7be00"/><text x="11" y="146.365" fill="#000000" font-size="16" text-anchor="middle" data-color-bar-letter="true">g</text></g><g data-color-bar-rank="2" data-color-bar-band="R"><rect x="1" y="149.885" width="20" height="81.583" fill="#ff3f2f"/><text x="11" y="227.949" fill="#000000" font-size="16" text-anchor="middle" data-color-bar-letter="true">r</text></g><g data-color-bar-rank="3" data-color-bar-band="K"><rect x="1" y="231.469" width="20" height="59.531" fill="#000000"/><text x="11" y="287.48" fill="#ffffff" font-size="16" text-anchor="middle" data-color-bar-letter="true">k</text></g><circle cx="5.6" cy="46.312" r="3.4" fill="#ffffff" stroke="#000000" stroke-width="0.75" data-bar-marker="left"/><circle cx="16.4" cy="281.938" r="3.4" fill="#ffffff" stroke="#000000" stroke-width="0.75" data-bar-marker="right"/></g><g data-channel="label-top"><text x="27" y="16" fill="#666666" font-size="12" dominant-baseline="central"><tspan fill="#a00000" font-weight="bold">fingerprint of </tspan>ADA Shelley: addr1...</text></g><g data-channel="label-bottom"><text x="267" y="276" fill="#666666" font-size="12" text-anchor="end" dominant-baseline="central">...htm0rl</text></g><line x1="0" y1="0.5" x2="273" y2="0.5" stroke="#808080" stroke-width="1" shape-rendering="crispEdges"/><line x1="272.5" y1="0" x2="272.5" y2="292" stroke="#808080" stroke-width="1" shape-rendering="crispEdges"/><line x1="0" y1="291.5" x2="273" y2="291.5" stroke="#808080" stroke-width="1" shape-rendering="crispEdges"/><line x1="0.5" y1="0" x2="0.5" y2="292" stroke="#808080" stroke-width="1" shape-rendering="crispEdges"/><line x1="21.5" y1="0" x2="21.5" y2="292" stroke="#808080" stroke-width="1" shape-rendering="crispEdges"/></svg>