<svg width="273.0" height="302.0" viewBox="0 0 273.0 302.0" xmlns="http://www.w3.org/2000/svg" data-entviz-version="v6" data-entviz-lib="0.5.0" data-input-bytes="103" data-cols="4" data-rows="6" data-truncated="true"><defs><clipPath id="grid-clip-d2df89f4e04a6ac2-4x6"><rect x="27.0" y="31.0" width="240.0" height="240.0"/></clipPath></defs><rect x="0" y="0" width="273.0" height="302.0" fill="#ffffff"/><g data-channel="grid"><rect x="27.0" y="31.0" width="240.0" height="240.0" fill="#ffffff"/><g><rect x="87.0" y="31.0" width="6.0" height="10.0" fill="#ff3f2f"/><rect x="105.0" y="31.0" width="6.0" height="10.0" fill="#ff3f2f"/><rect x="129.0" y="31.0" width="6.0" height="10.0" fill="#ff3f2f"/><rect x="135.0" y="31.0" width="6.0" height="10.0" fill="#ff3f2f"/><rect x="141.0" y="31.0" width="6.0" height="10.0" fill="#ff3f2f"/><rect x="141.0" y="41.0" width="6.0" height="10.0" fill="#ff3f2f"/><rect x="141.0" y="51.0" width="6.0" height="10.0" fill="#ff3f2f"/><rect x="141.0" y="61.0" width="6.0" height="10.0" fill="#ff3f2f"/><rect x="129.0" y="61.0" width="6.0" height="10.0" fill="#ff3f2f"/><rect x="123.0" y="61.0" width="6.0" height="10.0" fill="#ff3f2f"/><rect x="111.0" y="61.0" width="6.0" height="10.0" fill="#ff3f2f"/><rect x="93.0" y="61.0" width="6.0" height="10.0" fill="#ff3f2f"/><rect x="87.0" y="51.0" width="6.0" height="10.0" fill="#ff3f2f"/><rect x="87.0" y="41.0" width="6.0" height="10.0" fill="#ff3f2f"/><rect x="153.0" y="31.0" width="6.0" height="10.0" fill="#ffd966"/><rect x="165.0" y="31.0" width="6.0" height="10.0" fill="#ffd966"/><rect x="183.0" y="31.0" width="6.0" height="10.0" fill="#ffd966"/><rect x="195.0" y="61.0" width="6.0" height="10.0" fill="#ffd966"/><rect x="189.0" y="61.0" width="6.0" height="10.0" fill="#ffd966"/><rect x="183.0" y="61.0" width="6.0" height="10.0" fill="#ffd966"/><rect x="165.0" y="61.0" width="6.0" height="10.0" fill="#ffd966"/><rect x="153.0" y="61.0" width="6.0" height="10.0" fill="#ffd966"/><rect x="147.0" y="61.0" width="6.0" height="10.0" fill="#ffd966"/><rect x="147.0" y="51.0" width="6.0" height="10.0" fill="#ffd966"/><rect x="147.0" y="41.0" width="6.0" height="10.0" fill="#ffd966"/><rect x="51.0" y="71.0" width="6.0" height="10.0" fill="#ff3f2f"/><rect x="69.0" y="71.0" width="6.0" height="10.0" fill="#ff3f2f"/><rect x="81.0" y="71.0" width="6.0" height="10.0" fill="#ff3f2f"/><rect x="69.0" y="101.0" width="6.0" height="10.0" fill="#ff3f2f"/><rect x="63.0" y="101.0" width="6.0" height="10.0" fill="#ff3f2f"/><rect x="51.0" y="101.0" width="6.0" height="10.0" fill="#ff3f2f"/><rect x="39.0" y="101.0" width="6.0" height="10.0" fill="#ff3f2f"/><rect x="27.0" y="101.0" width="6.0" height="10.0" fill="#ff3f2f"/><rect x="27.0" y="91.0" width="6.0" height="10.0" fill="#ff3f2f"/><rect x="87.0" y="71.0" width="6.0" height="10.0" fill="#ff3f2f"/><rect x="93.0" y="71.0" width="6.0" height="10.0" fill="#ff3f2f"/><rect x="99.0" y="71.0" width="6.0" height="10.0" fill="#ff3f2f"/><rect x="105.0" y="71.0" width="6.0" height="10.0" fill="#ff3f2f"/><rect x="117.0" y="71.0" width="6.0" height="10.0" fill="#ff3f2f"/><rect x="129.0" y="71.0" width="6.0" height="10.0" fill="#ff3f2f"/><rect x="141.0" y="71.0" width="6.0" height="10.0" fill="#ff3f2f"/><rect x="141.0" y="91.0" width="6.0" height="10.0" fill="#ff3f2f"/><rect x="135.0" y="101.0" width="6.0" height="10.0" fill="#ff3f2f"/><rect x="129.0" y="101.0" width="6.0" height="10.0" fill="#ff3f2f"/><rect x="123.0" y="101.0" width="6.0" height="10.0" fill="#ff3f2f"/><rect x="117.0" y="101.0" width="6.0" height="10.0" fill="#ff3f2f"/><rect x="111.0" y="101.0" width="6.0" height="10.0" fill="#ff3f2f"/><rect x="105.0" y="101.0" width="6.0" height="10.0" fill="#ff3f2f"/><rect x="87.0" y="81.0" width="6.0" height="10.0" fill="#ff3f2f"/><rect x="147.0" y="71.0" width="6.0" height="10.0" fill="#2f3fbf"/><rect x="159.0" y="71.0" width="6.0" height="10.0" fill="#2f3fbf"/><rect x="165.0" y="71.0" width="6.0" height="10.0" fill="#2f3fbf"/><rect x="183.0" y="71.0" width="6.0" height="10.0" fill="#2f3fbf"/><rect x="189.0" y="71.0" width="6.0" height="10.0" fill="#2f3fbf"/><rect x="201.0" y="71.0" width="6.0" height="10.0" fill="#2f3fbf"/><rect x="201.0" y="81.0" width="6.0" height="10.0" fill="#2f3fbf"/><rect x="201.0" y="101.0" width="6.0" height="10.0" fill="#2f3fbf"/><rect x="195.0" y="101.0" width="6.0" height="10.0" fill="#2f3fbf"/><rect x="189.0" y="101.0" width="6.0" height="10.0" fill="#2f3fbf"/><rect x="177.0" y="101.0" width="6.0" height="10.0" fill="#2f3fbf"/><rect x="171.0" y="101.0" width="6.0" height="10.0" fill="#2f3fbf"/><rect x="165.0" y="101.0" width="6.0" height="10.0" fill="#2f3fbf"/><rect x="159.0" y="101.0" width="6.0" height="10.0" fill="#2f3fbf"/><rect x="153.0" y="101.0" width="6.0" height="10.0" fill="#2f3fbf"/><rect x="147.0" y="101.0" width="6.0" height="10.0" fill="#2f3fbf"/><rect x="147.0" y="81.0" width="6.0" height="10.0" fill="#2f3fbf"/><rect x="207.0" y="71.0" width="6.0" height="10.0" fill="#ff3f2f"/><rect x="237.0" y="71.0" width="6.0" height="10.0" fill="#ff3f2f"/><rect x="243.0" y="71.0" width="6.0" height="10.0" fill="#ff3f2f"/><rect x="261.0" y="81.0" width="6.0" height="10.0" fill="#ff3f2f"/><rect x="255.0" y="101.0" width="6.0" height="10.0" fill="#ff3f2f"/><rect x="243.0" y="101.0" width="6.0" height="10.0" fill="#ff3f2f"/><rect x="237.0" y="101.0" width="6.0" height="10.0" fill="#ff3f2f"/><rect x="231.0" y="101.0" width="6.0" height="10.0" fill="#ff3f2f"/><rect x="225.0" y="101.0" width="6.0" height="10.0" fill="#ff3f2f"/><rect x="219.0" y="101.0" width="6.0" height="10.0" fill="#ff3f2f"/><rect x="213.0" y="101.0" width="6.0" height="10.0" fill="#ff3f2f"/><rect x="207.0" y="101.0" width="6.0" height="10.0" fill="#ff3f2f"/><rect x="207.0" y="81.0" width="6.0" height="10.0" fill="#ff3f2f"/><rect x="27.0" y="111.0" width="6.0" height="10.0" fill="#2f3fbf"/><rect x="33.0" y="111.0" width="6.0" height="10.0" fill="#2f3fbf"/><rect x="39.0" y="111.0" width="6.0" height="10.0" fill="#2f3fbf"/><rect x="45.0" y="111.0" width="6.0" height="10.0" fill="#2f3fbf"/><rect x="51.0" y="111.0" width="6.0" height="10.0" fill="#2f3fbf"/><rect x="57.0" y="111.0" width="6.0" height="10.0" fill="#2f3fbf"/><rect x="75.0" y="111.0" width="6.0" height="10.0" fill="#2f3fbf"/><rect x="81.0" y="111.0" width="6.0" height="10.0" fill="#2f3fbf"/><rect x="57.0" y="141.0" width="6.0" height="10.0" fill="#2f3fbf"/><rect x="51.0" y="141.0" width="6.0" height="10.0" fill="#2f3fbf"/><rect x="45.0" y="141.0" width="6.0" height="10.0" fill="#2f3fbf"/><rect x="33.0" y="141.0" width="6.0" height="10.0" fill="#2f3fbf"/><rect x="27.0" y="121.0" width="6.0" height="10.0" fill="#2f3fbf"/><rect x="147.0" y="111.0" width="6.0" height="10.0" fill="#ffd966"/><rect x="171.0" y="111.0" width="6.0" height="10.0" fill="#ffd966"/><rect x="177.0" y="111.0" width="6.0" height="10.0" fill="#ffd966"/><rect x="183.0" y="111.0" width="6.0" height="10.0" fill="#ffd966"/><rect x="189.0" y="111.0" width="6.0" height="10.0" fill="#ffd966"/><rect x="201.0" y="131.0" width="6.0" height="10.0" fill="#ffd966"/><rect x="195.0" y="141.0" width="6.0" height="10.0" fill="#ffd966"/><rect x="189.0" y="141.0" width="6.0" height="10.0" fill="#ffd966"/><rect x="177.0" y="141.0" width="6.0" height="10.0" fill="#ffd966"/><rect x="171.0" y="141.0" width="6.0" height="10.0" fill="#ffd966"/><rect x="165.0" y="141.0" width="6.0" height="10.0" fill="#ffd966"/><rect x="147.0" y="131.0" width="6.0" height="10.0" fill="#ffd966"/><rect x="147.0" y="121.0" width="6.0" height="10.0" fill="#ffd966"/><rect x="213.0" y="111.0" width="6.0" height="10.0" fill="#ffd966"/><rect x="231.0" y="111.0" width="6.0" height="10.0" fill="#ffd966"/><rect x="249.0" y="111.0" width="6.0" height="10.0" fill="#ffd966"/><rect x="261.0" y="131.0" width="6.0" height="10.0" fill="#ffd966"/><rect x="261.0" y="141.0" width="6.0" height="10.0" fill="#ffd966"/><rect x="255.0" y="141.0" width="6.0" height="10.0" fill="#ffd966"/><rect x="225.0" y="141.0" width="6.0" height="10.0" fill="#ffd966"/><rect x="207.0" y="141.0" width="6.0" height="10.0" fill="#ffd966"/><rect x="207.0" y="131.0" width="6.0" height="10.0" fill="#ffd966"/><rect x="27.0" y="151.0" width="6.0" height="10.0" fill="#ffd966"/><rect x="39.0" y="151.0" width="6.0" height="10.0" fill="#ffd966"/><rect x="63.0" y="151.0" width="6.0" height="10.0" fill="#ffd966"/><rect x="69.0" y="151.0" width="6.0" height="10.0" fill="#ffd966"/><rect x="75.0" y="151.0" width="6.0" height="10.0" fill="#ffd966"/><rect x="81.0" y="151.0" width="6.0" height="10.0" fill="#ffd966"/><rect x="81.0" y="161.0" width="6.0" height="10.0" fill="#ffd966"/><rect x="75.0" y="181.0" width="6.0" height="10.0" fill="#ffd966"/><rect x="57.0" y="181.0" width="6.0" height="10.0" fill="#ffd966"/><rect x="51.0" y="181.0" width="6.0" height="10.0" fill="#ffd966"/><rect x="45.0" y="181.0" width="6.0" height="10.0" fill="#ffd966"/><rect x="27.0" y="181.0" width="6.0" height="10.0" fill="#ffd966"/><rect x="27.0" y="171.0" width="6.0" height="10.0" fill="#ffd966"/><rect x="105.0" y="151.0" width="6.0" height="10.0" fill="#ffd966"/><rect x="123.0" y="151.0" width="6.0" height="10.0" fill="#ffd966"/><rect x="135.0" y="151.0" width="6.0" height="10.0" fill="#ffd966"/><rect x="141.0" y="161.0" width="6.0" height="10.0" fill="#ffd966"/><rect x="141.0" y="171.0" width="6.0" height="10.0" fill="#ffd966"/><rect x="135.0" y="181.0" width="6.0" height="10.0" fill="#ffd966"/><rect x="129.0" y="181.0" width="6.0" height="10.0" fill="#ffd966"/><rect x="123.0" y="181.0" width="6.0" height="10.0" fill="#ffd966"/><rect x="111.0" y="181.0" width="6.0" height="10.0" fill="#ffd966"/><rect x="105.0" y="181.0" width="6.0" height="10.0" fill="#ffd966"/><rect x="87.0" y="181.0" width="6.0" height="10.0" fill="#ffd966"/><rect x="87.0" y="161.0" width="6.0" height="10.0" fill="#ffd966"/><rect x="153.0" y="151.0" width="6.0" height="10.0" fill="#ffd966"/><rect x="165.0" y="151.0" width="6.0" height="10.0" fill="#ffd966"/><rect x="171.0" y="151.0" width="6.0" height="10.0" fill="#ffd966"/><rect x="177.0" y="151.0" width="6.0" height="10.0" fill="#ffd966"/><rect x="183.0" y="151.0" width="6.0" height="10.0" fill="#ffd966"/><rect x="195.0" y="151.0" width="6.0" height="10.0" fill="#ffd966"/><rect x="201.0" y="151.0" width="6.0" height="10.0" fill="#ffd966"/><rect x="201.0" y="161.0" width="6.0" height="10.0" fill="#ffd966"/><rect x="195.0" y="181.0" width="6.0" height="10.0" fill="#ffd966"/><rect x="183.0" y="181.0" width="6.0" height="10.0" fill="#ffd966"/><rect x="165.0" y="181.0" width="6.0" height="10.0" fill="#ffd966"/><rect x="147.0" y="181.0" width="6.0" height="10.0" fill="#ffd966"/><rect x="207.0" y="151.0" width="6.0" height="10.0" fill="#ff3f2f"/><rect x="219.0" y="151.0" width="6.0" height="10.0" fill="#ff3f2f"/><rect x="231.0" y="151.0" width="6.0" height="10.0" fill="#ff3f2f"/><rect x="261.0" y="151.0" width="6.0" height="10.0" fill="#ff3f2f"/><rect x="261.0" y="161.0" width="6.0" height="10.0" fill="#ff3f2f"/><rect x="261.0" y="181.0" width="6.0" height="10.0" fill="#ff3f2f"/><rect x="249.0" y="181.0" width="6.0" height="10.0" fill="#ff3f2f"/><rect x="237.0" y="181.0" width="6.0" height="10.0" fill="#ff3f2f"/><rect x="231.0" y="181.0" width="6.0" height="10.0" fill="#ff3f2f"/><rect x="219.0" y="181.0" width="6.0" height="10.0" fill="#ff3f2f"/><rect x="213.0" y="181.0" width="6.0" height="10.0" fill="#ff3f2f"/><rect x="207.0" y="181.0" width="6.0" height="10.0" fill="#ff3f2f"/><rect x="207.0" y="171.0" width="6.0" height="10.0" fill="#ff3f2f"/><rect x="27.0" y="191.0" width="6.0" height="10.0" fill="#ff3f2f"/><rect x="39.0" y="191.0" width="6.0" height="10.0" fill="#ff3f2f"/><rect x="81.0" y="211.0" width="6.0" height="10.0" fill="#ff3f2f"/><rect x="75.0" y="221.0" width="6.0" height="10.0" fill="#ff3f2f"/><rect x="69.0" y="221.0" width="6.0" height="10.0" fill="#ff3f2f"/><rect x="63.0" y="221.0" width="6.0" height="10.0" fill="#ff3f2f"/><rect x="45.0" y="221.0" width="6.0" height="10.0" fill="#ff3f2f"/><rect x="33.0" y="221.0" width="6.0" height="10.0" fill="#ff3f2f"/><rect x="27.0" y="201.0" width="6.0" height="10.0" fill="#ff3f2f"/><rect x="87.0" y="191.0" width="6.0" height="10.0" fill="#2f3fbf"/><rect x="99.0" y="191.0" width="6.0" height="10.0" fill="#2f3fbf"/><rect x="105.0" y="191.0" width="6.0" height="10.0" fill="#2f3fbf"/><rect x="129.0" y="191.0" width="6.0" height="10.0" fill="#2f3fbf"/><rect x="135.0" y="191.0" width="6.0" height="10.0" fill="#2f3fbf"/><rect x="141.0" y="201.0" width="6.0" height="10.0" fill="#2f3fbf"/><rect x="111.0" y="221.0" width="6.0" height="10.0" fill="#2f3fbf"/><rect x="105.0" y="221.0" width="6.0" height="10.0" fill="#2f3fbf"/><rect x="99.0" y="221.0" width="6.0" height="10.0" fill="#2f3fbf"/><rect x="93.0" y="221.0" width="6.0" height="10.0" fill="#2f3fbf"/><rect x="87.0" y="221.0" width="6.0" height="10.0" fill="#2f3fbf"/><rect x="87.0" y="201.0" width="6.0" height="10.0" fill="#2f3fbf"/><rect x="147.0" y="191.0" width="6.0" height="10.0" fill="#2f3fbf"/><rect x="153.0" y="191.0" width="6.0" height="10.0" fill="#2f3fbf"/><rect x="159.0" y="191.0" width="6.0" height="10.0" fill="#2f3fbf"/><rect x="183.0" y="191.0" width="6.0" height="10.0" fill="#2f3fbf"/><rect x="189.0" y="191.0" width="6.0" height="10.0" fill="#2f3fbf"/><rect x="195.0" y="221.0" width="6.0" height="10.0" fill="#2f3fbf"/><rect x="177.0" y="221.0" width="6.0" height="10.0" fill="#2f3fbf"/><rect x="153.0" y="221.0" width="6.0" height="10.0" fill="#2f3fbf"/><rect x="147.0" y="221.0" width="6.0" height="10.0" fill="#2f3fbf"/><rect x="207.0" y="191.0" width="6.0" height="10.0" fill="#ffd966"/><rect x="231.0" y="191.0" width="6.0" height="10.0" fill="#ffd966"/><rect x="237.0" y="191.0" width="6.0" height="10.0" fill="#ffd966"/><rect x="243.0" y="191.0" width="6.0" height="10.0" fill="#ffd966"/><rect x="261.0" y="191.0" width="6.0" height="10.0" fill="#ffd966"/><rect x="261.0" y="201.0" width="6.0" height="10.0" fill="#ffd966"/><rect x="261.0" y="211.0" width="6.0" height="10.0" fill="#ffd966"/><rect x="255.0" y="221.0" width="6.0" height="10.0" fill="#ffd966"/><rect x="249.0" y="221.0" width="6.0" height="10.0" fill="#ffd966"/><rect x="231.0" y="221.0" width="6.0" height="10.0" fill="#ffd966"/><rect x="213.0" y="221.0" width="6.0" height="10.0" fill="#ffd966"/><rect x="207.0" y="221.0" width="6.0" height="10.0" fill="#ffd966"/><rect x="39.0" y="231.0" width="6.0" height="10.0" fill="#ff3f2f"/><rect x="45.0" y="231.0" width="6.0" height="10.0" fill="#ff3f2f"/><rect x="51.0" y="231.0" width="6.0" height="10.0" fill="#ff3f2f"/><rect x="57.0" y="231.0" width="6.0" height="10.0" fill="#ff3f2f"/><rect x="75.0" y="231.0" width="6.0" height="10.0" fill="#ff3f2f"/><rect x="81.0" y="231.0" width="6.0" height="10.0" fill="#ff3f2f"/><rect x="81.0" y="261.0" width="6.0" height="10.0" fill="#ff3f2f"/><rect x="57.0" y="261.0" width="6.0" height="10.0" fill="#ff3f2f"/><rect x="45.0" y="261.0" width="6.0" height="10.0" fill="#ff3f2f"/><rect x="33.0" y="261.0" width="6.0" height="10.0" fill="#ff3f2f"/><rect x="87.0" y="231.0" width="6.0" height="10.0" fill="#2f3fbf"/><rect x="93.0" y="231.0" width="6.0" height="10.0" fill="#2f3fbf"/><rect x="135.0" y="231.0" width="6.0" height="10.0" fill="#2f3fbf"/><rect x="141.0" y="231.0" width="6.0" height="10.0" fill="#2f3fbf"/><rect x="141.0" y="241.0" width="6.0" height="10.0" fill="#2f3fbf"/><rect x="141.0" y="251.0" width="6.0" height="10.0" fill="#2f3fbf"/><rect x="135.0" y="261.0" width="6.0" height="10.0" fill="#2f3fbf"/><rect x="117.0" y="261.0" width="6.0" height="10.0" fill="#2f3fbf"/><rect x="105.0" y="261.0" width="6.0" height="10.0" fill="#2f3fbf"/><rect x="93.0" y="261.0" width="6.0" height="10.0" fill="#2f3fbf"/><rect x="153.0" y="231.0" width="6.0" height="10.0" fill="#2f3fbf"/><rect x="165.0" y="231.0" width="6.0" height="10.0" fill="#2f3fbf"/><rect x="177.0" y="231.0" width="6.0" height="10.0" fill="#2f3fbf"/><rect x="195.0" y="231.0" width="6.0" height="10.0" fill="#2f3fbf"/><rect x="201.0" y="231.0" width="6.0" height="10.0" fill="#2f3fbf"/><rect x="189.0" y="261.0" width="6.0" height="10.0" fill="#2f3fbf"/><rect x="177.0" y="261.0" width="6.0" height="10.0" fill="#2f3fbf"/><rect x="159.0" y="261.0" width="6.0" height="10.0" fill="#2f3fbf"/><rect x="153.0" y="261.0" width="6.0" height="10.0" fill="#2f3fbf"/><rect x="147.0" y="241.0" width="6.0" height="10.0" fill="#2f3fbf"/></g><g clip-path="url(#grid-clip-d2df89f4e04a6ac2-4x6)" data-channel="ellipse" data-ellipse-anchor-x="207.0" data-ellipse-anchor-y="151.0" data-ellipse-rx="104.70520903947423" data-ellipse-ry="57.977264509460944" data-ellipse-rotation-deg="12.0"><ellipse cx="207.0" cy="151.0" rx="104.70520903947423" ry="57.977264509460944" transform="rotate(12.0 207.0 151.0)" fill="#000000" fill-opacity="0.2"/></g><g><g data-channel="cell" data-cell-index="0" data-cell-row="0" data-cell-col="0" data-cell-blank="true" data-cell-blank-map="true"><rect x="33.0" y="41.0" width="48.0" height="20.0" rx="10.0" ry="10.0" fill="#ffd966" stroke="#000000" stroke-width="1"/><circle cx="63.0" cy="42.666666666666664" r="2.5" fill="#d62828" data-blank-map-max="true"/><circle cx="39.0" cy="59.333333333333336" r="2.5" fill="#1d4ed8" data-blank-map-min="true"/></g><g data-channel="cell" data-cell-index="1" data-cell-row="0" data-cell-col="1"><rect x="93.0" y="41.0" width="48.0" height="20.0" fill="#ff7001"/><text x="117.0" y="51.0" fill="#000000" style="font-family: &quot;JetBrains Mono&quot;, &quot;Menlo&quot;, &quot;Consolas&quot;, &quot;DejaVu Sans Mono&quot;, &quot;Liberation Mono&quot;, &quot;Roboto Mono&quot;, &quot;Noto Sans Mono&quot;, monospace; font-size: 16.0px;" text-anchor="middle" dominant-baseline="central">q9c0</text></g><g data-channel="cell" data-cell-index="2" data-cell-row="0" data-cell-col="2"><rect x="153.0" y="41.0" width="48.0" height="20.0" fill="#ee8a84"/><text x="177.0" y="51.0" fill="#000000" style="font-family: &quot;JetBrains Mono&quot;, &quot;Menlo&quot;, &quot;Consolas&quot;, &quot;DejaVu Sans Mono&quot;, &quot;Liberation Mono&quot;, &quot;Roboto Mono&quot;, &quot;Noto Sans Mono&quot;, monospace; font-size: 16.0px;" text-anchor="middle" dominant-baseline="central">sj9w</text></g><g data-channel="cell" data-cell-index="3" data-cell-row="0" data-cell-col="3" data-cell-blank="true"><rect x="213.0" y="41.0" width="48.0" height="20.0" rx="10.0" ry="10.0" fill="none" stroke="#000000" stroke-width="1"/></g><g data-channel="cell" data-cell-index="4" data-cell-row="1" data-cell-col="0"><rect x="33.0" y="81.0" width="48.0" height="20.0" fill="#bb8a0a"/><text x="57.0" y="91.0" fill="#000000" style="font-family: &quot;JetBrains Mono&quot;, &quot;Menlo&quot;, &quot;Consolas&quot;, &quot;DejaVu Sans Mono&quot;, &quot;Liberation Mono&quot;, &quot;Roboto Mono&quot;, &quot;Noto Sans Mono&quot;, monospace; font-size: 16.0px;" text-anchor="middle" dominant-baseline="central">p29t</text></g><g data-channel="cell" data-cell-index="5" data-cell-row="1" data-cell-col="1"><rect x="93.0" y="81.0" width="48.0" height="20.0" fill="#bb3e30"/><text x="117.0" y="91.0" fill="#ffffff" style="font-family: &quot;JetBrains Mono&quot;, &quot;Menlo&quot;, &quot;Consolas&quot;, &quot;DejaVu Sans Mono&quot;, &quot;Liberation Mono&quot;, &quot;Roboto Mono&quot;, &quot;Noto Sans Mono&quot;, monospace; font-size: 16.0px;" text-anchor="middle" dominant-baseline="central">xqlt</text></g><g data-channel="cell" data-cell-index="6" data-cell-row="1" data-cell-col="2" data-cell-quartile="3"><rect x="153.0" y="81.0" width="48.0" height="20.0" fill="#882d78"/><text x="177.0" y="91.0" fill="#ffffff" style="font-family: &quot;JetBrains Mono&quot;, &quot;Menlo&quot;, &quot;Consolas&quot;, &quot;DejaVu Sans Mono&quot;, &quot;Liberation Mono&quot;, &quot;Roboto Mono&quot;, &quot;Noto Sans Mono&quot;, monospace; font-size: 16.0px;" text-anchor="middle" dominant-baseline="central">0qkc</text><polygon points="201.0,101.0 201.0,91.0 191.0,101.0" fill="#ffffff"/></g><g data-channel="cell" data-cell-index="7" data-cell-row="1" data-cell-col="3" data-cell-quartile="4"><rect x="213.0" y="81.0" width="48.0" height="20.0" fill="#ee05ae"/><text x="237.0" y="91.0" fill="#000000" style="font-family: &quot;JetBrains Mono&quot;, &quot;Menlo&quot;, &quot;Consolas&quot;, &quot;DejaVu Sans Mono&quot;, &quot;Liberation Mono&quot;, &quot;Roboto Mono&quot;, &quot;Noto Sans Mono&quot;, monospace; font-size: 16.0px;" text-anchor="middle" dominant-baseline="central">4cz7</text><polygon points="213.0,101.0 213.0,91.0 223.0,101.0" fill="#000000"/></g><g data-channel="cell" data-cell-index="8" data-cell-row="2" data-cell-col="0"><rect x="33.0" y="121.0" width="48.0" height="20.0" fill="#0069d3"/><text x="57.0" y="131.0" fill="#ffffff" style="font-family: &quot;JetBrains Mono&quot;, &quot;Menlo&quot;, &quot;Consolas&quot;, &quot;DejaVu Sans Mono&quot;, &quot;Liberation Mono&quot;, &quot;Roboto Mono&quot;, &quot;Noto Sans Mono&quot;, monospace; font-size: 16.0px;" text-anchor="middle" dominant-baseline="central">6d5s</text></g><g data-channel="cell" data-cell-index="9" data-cell-row="2" data-cell-col="1" data-cell-blank="true"><rect x="93.0" y="121.0" width="48.0" height="20.0" rx="10.0" ry="10.0" fill="none" stroke="#000000" stroke-width="1"/></g><g data-channel="cell" data-cell-index="10" data-cell-row="2" data-cell-col="2"><rect x="153.0" y="121.0" width="48.0" height="20.0" fill="#66ea17"/><text x="177.0" y="131.0" fill="#000000" style="font-family: &quot;JetBrains Mono&quot;, &quot;Menlo&quot;, &quot;Consolas&quot;, &quot;DejaVu Sans Mono&quot;, &quot;Liberation Mono&quot;, &quot;Roboto Mono&quot;, &quot;Noto Sans Mono&quot;, monospace; font-size: 16.0px;" text-anchor="middle" dominant-baseline="central">zl4x</text></g><g data-channel="cell" data-cell-index="11" data-cell-row="2" data-cell-col="3" data-cell-fingerprint="true"><rect x="213.0" y="121.0" width="48.0" height="20.0" fill="#ffffff"/><rect x="213.5" y="121.5" width="47.0" height="19.0" fill="none" stroke="#ffd966" stroke-width="1"/><text x="237.0" y="131.0" fill="#000000" style="font-family: &quot;JetBrains Mono&quot;, &quot;Menlo&quot;, &quot;Consolas&quot;, &quot;DejaVu Sans Mono&quot;, &quot;Liberation Mono&quot;, &quot;Roboto Mono&quot;, &quot;Noto Sans Mono&quot;, monospace; font-size: 16.0px;" text-anchor="middle" dominant-baseline="central">vsuf</text></g><g data-channel="cell" data-cell-index="12" data-cell-row="3" data-cell-col="0" data-cell-fingerprint="true"><rect x="33.0" y="161.0" width="48.0" height="20.0" fill="#ffffff"/><rect x="33.5" y="161.5" width="47.0" height="19.0" fill="none" stroke="#ffd966" stroke-width="1"/><text x="57.0" y="171.0" fill="#000000" style="font-family: &quot;JetBrains Mono&quot;, &quot;Menlo&quot;, &quot;Consolas&quot;, &quot;DejaVu Sans Mono&quot;, &quot;Liberation Mono&quot;, &quot;Roboto Mono&quot;, &quot;Noto Sans Mono&quot;, monospace; font-size: 16.0px;" text-anchor="middle" dominant-baseline="central">vunu</text></g><g data-channel="cell" data-cell-index="13" data-cell-row="3" data-cell-col="1" data-cell-fingerprint="true"><rect x="93.0" y="161.0" width="48.0" height="20.0" fill="#ffffff"/><rect x="93.5" y="161.5" width="47.0" height="19.0" fill="none" stroke="#ffd966" stroke-width="1"/><text x="117.0" y="171.0" fill="#000000" style="font-family: &quot;JetBrains Mono&quot;, &quot;Menlo&quot;, &quot;Consolas&quot;, &quot;DejaVu Sans Mono&quot;, &quot;Liberation Mono&quot;, &quot;Roboto Mono&quot;, &quot;Noto Sans Mono&quot;, monospace; font-size: 16.0px;" text-anchor="middle" dominant-baseline="central">5mk5</text></g><g data-channel="cell" data-cell-index="14" data-cell-row="3" data-cell-col="2" data-cell-fingerprint="true" data-cell-quartile="1"><rect x="153.0" y="161.0" width="48.0" height="20.0" fill="#ffffff"/><rect x="153.5" y="161.5" width="47.0" height="19.0" fill="none" stroke="#ffd966" stroke-width="1"/><text x="177.0" y="171.0" fill="#000000" style="font-family: &quot;JetBrains Mono&quot;, &quot;Menlo&quot;, &quot;Consolas&quot;, &quot;DejaVu Sans Mono&quot;, &quot;Liberation Mono&quot;, &quot;Roboto Mono&quot;, &quot;Noto Sans Mono&quot;, monospace; font-size: 16.0px;" text-anchor="middle" dominant-baseline="central">yjnh</text><polygon points="153.0,161.0 163.0,161.0 153.0,171.0" fill="#000000"/></g><g data-channel="cell" data-cell-index="15" data-cell-row="3" data-cell-col="3"><rect x="213.0" y="161.0" width="48.0" height="20.0" fill="#55841c"/><text x="237.0" y="171.0" fill="#ffffff" style="font-family: &quot;JetBrains Mono&quot;, &quot;Menlo&quot;, &quot;Consolas&quot;, &quot;DejaVu Sans Mono&quot;, &quot;Liberation Mono&quot;, &quot;Roboto Mono&quot;, &quot;Noto Sans Mono&quot;, monospace; font-size: 16.0px;" text-anchor="middle" dominant-baseline="central">rjz9</text></g><g data-channel="cell" data-cell-index="16" data-cell-row="4" data-cell-col="0"><rect x="33.0" y="201.0" width="48.0" height="20.0" fill="#886c0c"/><text x="57.0" y="211.0" fill="#ffffff" style="font-family: &quot;JetBrains Mono&quot;, &quot;Menlo&quot;, &quot;Consolas&quot;, &quot;DejaVu Sans Mono&quot;, &quot;Liberation Mono&quot;, &quot;Roboto Mono&quot;, &quot;Noto Sans Mono&quot;, monospace; font-size: 16.0px;" text-anchor="middle" dominant-baseline="central">p3kg</text></g><g data-channel="cell" data-cell-index="17" data-cell-row="4" data-cell-col="1"><rect x="93.0" y="201.0" width="48.0" height="20.0" fill="#119e31"/><text x="117.0" y="211.0" fill="#000000" style="font-family: &quot;JetBrains Mono&quot;, &quot;Menlo&quot;, &quot;Consolas&quot;, &quot;DejaVu Sans Mono&quot;, &quot;Liberation Mono&quot;, &quot;Roboto Mono&quot;, &quot;Noto Sans Mono&quot;, monospace; font-size: 16.0px;" text-anchor="middle" dominant-baseline="central">xx0p</text></g><g data-channel="cell" data-cell-index="18" data-cell-row="4" data-cell-col="2" data-cell-quartile="2"><rect x="153.0" y="201.0" width="48.0" height="20.0" fill="#11acf8"/><text x="177.0" y="211.0" fill="#000000" style="font-family: &quot;JetBrains Mono&quot;, &quot;Menlo&quot;, &quot;Consolas&quot;, &quot;DejaVu Sans Mono&quot;, &quot;Liberation Mono&quot;, &quot;Roboto Mono&quot;, &quot;Noto Sans Mono&quot;, monospace; font-size: 16.0px;" text-anchor="middle" dominant-baseline="central">lzkp</text><polygon points="201.0,201.0 191.0,201.0 201.0,211.0" fill="#000000"/></g><g data-channel="cell" data-cell-index="19" data-cell-row="4" data-cell-col="3"><rect x="213.0" y="201.0" width="48.0" height="20.0" fill="#aaa6bd"/><text x="237.0" y="211.0" fill="#000000" style="font-family: &quot;JetBrains Mono&quot;, &quot;Menlo&quot;, &quot;Consolas&quot;, &quot;DejaVu Sans Mono&quot;, &quot;Liberation Mono&quot;, &quot;Roboto Mono&quot;, &quot;Noto Sans Mono&quot;, monospace; font-size: 16.0px;" text-anchor="middle" dominant-baseline="central">hkn2</text></g><g data-channel="cell" data-cell-index="20" data-cell-row="5" data-cell-col="0"><rect x="33.0" y="241.0" width="48.0" height="20.0" fill="#884226"/><text x="57.0" y="251.0" fill="#ffffff" style="font-family: &quot;JetBrains Mono&quot;, &quot;Menlo&quot;, &quot;Consolas&quot;, &quot;DejaVu Sans Mono&quot;, &quot;Liberation Mono&quot;, &quot;Roboto Mono&quot;, &quot;Noto Sans Mono&quot;, monospace; font-size: 16.0px;" text-anchor="middle" dominant-baseline="central">yepg</text></g><g data-channel="cell" data-cell-index="21" data-cell-row="5" data-cell-col="1"><rect x="93.0" y="241.0" width="48.0" height="20.0" fill="#2294d3"/><text x="117.0" y="251.0" fill="#000000" style="font-family: &quot;JetBrains Mono&quot;, &quot;Menlo&quot;, &quot;Consolas&quot;, &quot;DejaVu Sans Mono&quot;, &quot;Liberation Mono&quot;, &quot;Roboto Mono&quot;, &quot;Noto Sans Mono&quot;, monospace; font-size: 16.0px;" text-anchor="middle" dominant-baseline="central">6w2z</text></g><g data-channel="cell" data-cell-index="22" data-cell-row="5" data-cell-col="2"><rect x="153.0" y="241.0" width="48.0" height="20.0" fill="#006f90"/><text x="177.0" y="251.0" fill="#ffffff" style="font-family: &quot;JetBrains Mono&quot;, &quot;Menlo&quot;, &quot;Consolas&quot;, &quot;DejaVu Sans Mono&quot;, &quot;Liberation Mono&quot;, &quot;Roboto Mono&quot;, &quot;Noto Sans Mono&quot;, monospace; font-size: 16.0px;" text-anchor="middle" dominant-baseline="central">jphs</text></g><g data-channel="cell" data-cell-index="23" data-cell-row="5" data-cell-col="3" data-cell-blank="true"><rect x="213.0" y="241.0" width="48.0" height="20.0" rx="10.0" ry="10.0" fill="none" stroke="#000000" stroke-width="1"/></g></g></g><g data-channel="color-bar"><g data-color-bar-rank="0" data-color-bar-band="R"><rect x="1" y="1" width="20.0" height="84.39665404754193" fill="#ff3f2f"/><text x="11.0" y="81.87665404754193" fill="#000000" style="font-family: &quot;JetBrains Mono&quot;, &quot;Menlo&quot;, &quot;Consolas&quot;, &quot;DejaVu Sans Mono&quot;, &quot;Liberation Mono&quot;, &quot;Roboto Mono&quot;, &quot;Noto Sans Mono&quot;, monospace; font-size: 16.0px;" text-anchor="middle" data-color-bar-letter="true">r</text></g><g data-color-bar-rank="1" data-color-bar-band="G"><rect x="1" y="85.39665404754193" width="20.0" height="79.39678436935318" fill="#ffd966"/><text x="11.0" y="161.27343841689512" fill="#000000" style="font-family: &quot;JetBrains Mono&quot;, &quot;Menlo&quot;, &quot;Consolas&quot;, &quot;DejaVu Sans Mono&quot;, &quot;Liberation Mono&quot;, &quot;Roboto Mono&quot;, &quot;Noto Sans Mono&quot;, monospace; font-size: 16.0px;" text-anchor="middle" data-color-bar-letter="true">g</text></g><g data-color-bar-rank="2" data-color-bar-band="B"><rect x="1" y="164.79343841689513" width="20.0" height="74.62242924659849" fill="#2f3fbf"/><text x="11.0" y="235.8958676634936" fill="#ffffff" style="font-family: &quot;JetBrains Mono&quot;, &quot;Menlo&quot;, &quot;Consolas&quot;, &quot;DejaVu Sans Mono&quot;, &quot;Liberation Mono&quot;, &quot;Roboto Mono&quot;, &quot;Noto Sans Mono&quot;, monospace; font-size: 16.0px;" text-anchor="middle" data-color-bar-letter="true">b</text></g><g data-color-bar-rank="3" data-color-bar-band="K"><rect x="1" y="239.4158676634936" width="20.0" height="61.5841323365064" fill="#000000"/><text x="11.0" y="297.48" fill="#ffffff" style="font-family: &quot;JetBrains Mono&quot;, &quot;Menlo&quot;, &quot;Consolas&quot;, &quot;DejaVu Sans Mono&quot;, &quot;Liberation Mono&quot;, &quot;Roboto Mono&quot;, &quot;Noto Sans Mono&quot;, monospace; font-size: 16.0px;" text-anchor="middle" data-color-bar-letter="true">k</text></g></g><g data-channel="label-top"><text x="27.0" y="16.0" fill="#666666" style="font-family: &quot;JetBrains Mono&quot;, &quot;Menlo&quot;, &quot;Consolas&quot;, &quot;DejaVu Sans Mono&quot;, &quot;Liberation Mono&quot;, &quot;Roboto Mono&quot;, &quot;Noto Sans Mono&quot;, monospace; font-size: 12.0px;" dominant-baseline="central"><tspan fill="#a00000" font-weight="bold">fingerprint of </tspan>ADA Shelley: addr1...</text></g><g data-channel="label-bottom"><text x="267.0" y="286.0" fill="#666666" style="font-family: &quot;JetBrains Mono&quot;, &quot;Menlo&quot;, &quot;Consolas&quot;, &quot;DejaVu Sans Mono&quot;, &quot;Liberation Mono&quot;, &quot;Roboto Mono&quot;, &quot;Noto Sans Mono&quot;, monospace; font-size: 12.0px;" text-anchor="end" dominant-baseline="central">...htm0rl</text></g><line x1="0" y1="0.5" x2="273.0" y2="0.5" stroke="#808080" stroke-width="1" shape-rendering="crispEdges"/><line x1="272.5" y1="0" x2="272.5" y2="302.0" stroke="#808080" stroke-width="1" shape-rendering="crispEdges"/><line x1="0" y1="301.5" x2="273.0" y2="301.5" stroke="#808080" stroke-width="1" shape-rendering="crispEdges"/><line x1="0.5" y1="0" x2="0.5" y2="302.0" stroke="#808080" stroke-width="1" shape-rendering="crispEdges"/><line x1="21.5" y1="0" x2="21.5" y2="302.0" stroke="#808080" stroke-width="1" shape-rendering="crispEdges"/></svg>