<svg width="273" height="292" viewBox="0 0 273 292" xmlns="http://www.w3.org/2000/svg" data-entviz-version="v10" data-entviz-lib="0.10.0" data-input-bytes="103" data-cols="4" data-rows="6" data-truncated="true"><defs><clipPath id="grid-clip-d2df89f4e04a6ac2-4x6"><rect x="27" y="26" width="240" height="240"/></clipPath></defs><rect x="0" y="0" width="273" height="292" fill="#ffffff"/><g data-channel="grid"><rect x="27" y="26" width="240" height="240" fill="#ffffff"/><g><rect x="87" y="26" width="6" height="10" fill="#ff3f2f"/><rect x="105" y="26" width="6" height="10" fill="#ff3f2f"/><rect x="129" y="26" width="6" height="10" fill="#ff3f2f"/><rect x="135" y="26" width="6" height="10" fill="#ff3f2f"/><rect x="141" y="26" width="6" height="10" fill="#ff3f2f"/><rect x="141" y="36" width="6" height="10" fill="#ff3f2f"/><rect x="141" y="46" width="6" height="10" fill="#ff3f2f"/><rect x="141" y="56" width="6" height="10" fill="#ff3f2f"/><rect x="129" y="56" width="6" height="10" fill="#ff3f2f"/><rect x="123" y="56" width="6" height="10" fill="#ff3f2f"/><rect x="111" y="56" width="6" height="10" fill="#ff3f2f"/><rect x="93" y="56" width="6" height="10" fill="#ff3f2f"/><rect x="87" y="46" width="6" height="10" fill="#ff3f2f"/><rect x="87" y="36" width="6" height="10" fill="#ff3f2f"/><rect x="153" y="26" width="6" height="10" fill="#ff3f2f"/><rect x="165" y="26" width="6" height="10" fill="#ff3f2f"/><rect x="183" y="26" width="6" height="10" fill="#ff3f2f"/><rect x="195" y="56" width="6" height="10" fill="#ff3f2f"/><rect x="189" y="56" width="6" height="10" fill="#ff3f2f"/><rect x="183" y="56" width="6" height="10" fill="#ff3f2f"/><rect x="165" y="56" width="6" height="10" fill="#ff3f2f"/><rect x="153" y="56" width="6" height="10" fill="#ff3f2f"/><rect x="147" y="56" width="6" height="10" fill="#ff3f2f"/><rect x="147" y="46" width="6" height="10" fill="#ff3f2f"/><rect x="147" y="36" width="6" height="10" fill="#ff3f2f"/><rect x="51" y="66" width="6" height="10" fill="#e7be00"/><rect x="69" y="66" width="6" height="10" fill="#e7be00"/><rect x="81" y="66" width="6" height="10" fill="#e7be00"/><rect x="69" y="96" width="6" height="10" fill="#e7be00"/><rect x="63" y="96" width="6" height="10" fill="#e7be00"/><rect x="51" y="96" width="6" height="10" fill="#e7be00"/><rect x="39" y="96" width="6" height="10" fill="#e7be00"/><rect x="27" y="96" width="6" height="10" fill="#e7be00"/><rect x="27" y="86" width="6" height="10" fill="#e7be00"/><rect x="87" y="66" width="6" height="10" fill="#ff3f2f"/><rect x="93" y="66" width="6" height="10" fill="#ff3f2f"/><rect x="99" y="66" width="6" height="10" fill="#ff3f2f"/><rect x="105" y="66" width="6" height="10" fill="#ff3f2f"/><rect x="117" y="66" width="6" height="10" fill="#ff3f2f"/><rect x="129" y="66" width="6" height="10" fill="#ff3f2f"/><rect x="141" y="66" width="6" height="10" fill="#ff3f2f"/><rect x="141" y="86" width="6" height="10" fill="#ff3f2f"/><rect x="135" y="96" width="6" height="10" fill="#ff3f2f"/><rect x="129" y="96" width="6" height="10" fill="#ff3f2f"/><rect x="123" y="96" width="6" height="10" fill="#ff3f2f"/><rect x="117" y="96" width="6" height="10" fill="#ff3f2f"/><rect x="111" y="96" width="6" height="10" fill="#ff3f2f"/><rect x="105" y="96" width="6" height="10" fill="#ff3f2f"/><rect x="87" y="76" width="6" height="10" fill="#ff3f2f"/><rect x="147" y="66" width="6" height="10" fill="#2f3fbf"/><rect x="159" y="66" width="6" height="10" fill="#2f3fbf"/><rect x="165" y="66" width="6" height="10" fill="#2f3fbf"/><rect x="183" y="66" width="6" height="10" fill="#2f3fbf"/><rect x="189" y="66" width="6" height="10" fill="#2f3fbf"/><rect x="201" y="66" width="6" height="10" fill="#2f3fbf"/><rect x="201" y="76" width="6" height="10" fill="#2f3fbf"/><rect x="201" y="96" width="6" height="10" fill="#2f3fbf"/><rect x="195" y="96" width="6" height="10" fill="#2f3fbf"/><rect x="189" y="96" width="6" height="10" fill="#2f3fbf"/><rect x="177" y="96" width="6" height="10" fill="#2f3fbf"/><rect x="171" y="96" width="6" height="10" fill="#2f3fbf"/><rect x="165" y="96" width="6" height="10" fill="#2f3fbf"/><rect x="159" y="96" width="6" height="10" fill="#2f3fbf"/><rect x="153" y="96" width="6" height="10" fill="#2f3fbf"/><rect x="147" y="96" width="6" height="10" fill="#2f3fbf"/><rect x="147" y="76" width="6" height="10" fill="#2f3fbf"/><rect x="207" y="66" width="6" height="10" fill="#ff3f2f"/><rect x="237" y="66" width="6" height="10" fill="#ff3f2f"/><rect x="243" y="66" width="6" height="10" fill="#ff3f2f"/><rect x="261" y="76" width="6" height="10" fill="#ff3f2f"/><rect x="255" y="96" width="6" height="10" fill="#ff3f2f"/><rect x="243" y="96" width="6" height="10" fill="#ff3f2f"/><rect x="237" y="96" width="6" height="10" fill="#ff3f2f"/><rect x="231" y="96" width="6" height="10" fill="#ff3f2f"/><rect x="225" y="96" width="6" height="10" fill="#ff3f2f"/><rect x="219" y="96" width="6" height="10" fill="#ff3f2f"/><rect x="213" y="96" width="6" height="10" fill="#ff3f2f"/><rect x="207" y="96" width="6" height="10" fill="#ff3f2f"/><rect x="207" y="76" width="6" height="10" fill="#ff3f2f"/><rect x="27" y="106" width="6" height="10" fill="#2f3fbf"/><rect x="33" y="106" width="6" height="10" fill="#2f3fbf"/><rect x="39" y="106" width="6" height="10" fill="#2f3fbf"/><rect x="45" y="106" width="6" height="10" fill="#2f3fbf"/><rect x="51" y="106" width="6" height="10" fill="#2f3fbf"/><rect x="57" y="106" width="6" height="10" fill="#2f3fbf"/><rect x="75" y="106" width="6" height="10" fill="#2f3fbf"/><rect x="81" y="106" width="6" height="10" fill="#2f3fbf"/><rect x="57" y="136" width="6" height="10" fill="#2f3fbf"/><rect x="51" y="136" width="6" height="10" fill="#2f3fbf"/><rect x="45" y="136" width="6" height="10" fill="#2f3fbf"/><rect x="33" y="136" width="6" height="10" fill="#2f3fbf"/><rect x="27" y="116" width="6" height="10" fill="#2f3fbf"/><rect x="147" y="106" width="6" height="10" fill="#e7be00"/><rect x="171" y="106" width="6" height="10" fill="#e7be00"/><rect x="177" y="106" width="6" height="10" fill="#e7be00"/><rect x="183" y="106" width="6" height="10" fill="#e7be00"/><rect x="189" y="106" width="6" height="10" fill="#e7be00"/><rect x="201" y="126" width="6" height="10" fill="#e7be00"/><rect x="195" y="136" width="6" height="10" fill="#e7be00"/><rect x="189" y="136" width="6" height="10" fill="#e7be00"/><rect x="177" y="136" width="6" height="10" fill="#e7be00"/><rect x="171" y="136" width="6" height="10" fill="#e7be00"/><rect x="165" y="136" width="6" height="10" fill="#e7be00"/><rect x="147" y="126" width="6" height="10" fill="#e7be00"/><rect x="147" y="116" width="6" height="10" fill="#e7be00"/><rect x="213" y="106" width="6" height="10" fill="#e7be00"/><rect x="231" y="106" width="6" height="10" fill="#e7be00"/><rect x="249" y="106" width="6" height="10" fill="#e7be00"/><rect x="261" y="126" width="6" height="10" fill="#e7be00"/><rect x="261" y="136" width="6" height="10" fill="#e7be00"/><rect x="255" y="136" width="6" height="10" fill="#e7be00"/><rect x="225" y="136" width="6" height="10" fill="#e7be00"/><rect x="207" y="136" width="6" height="10" fill="#e7be00"/><rect x="207" y="126" width="6" height="10" fill="#e7be00"/><rect x="27" y="146" width="6" height="10" fill="#e7be00"/><rect x="39" y="146" width="6" height="10" fill="#e7be00"/><rect x="63" y="146" width="6" height="10" fill="#e7be00"/><rect x="69" y="146" width="6" height="10" fill="#e7be00"/><rect x="75" y="146" width="6" height="10" fill="#e7be00"/><rect x="81" y="146" width="6" height="10" fill="#e7be00"/><rect x="81" y="156" width="6" height="10" fill="#e7be00"/><rect x="75" y="176" width="6" height="10" fill="#e7be00"/><rect x="57" y="176" width="6" height="10" fill="#e7be00"/><rect x="51" y="176" width="6" height="10" fill="#e7be00"/><rect x="45" y="176" width="6" height="10" fill="#e7be00"/><rect x="27" y="176" width="6" height="10" fill="#e7be00"/><rect x="27" y="166" width="6" height="10" fill="#e7be00"/><rect x="105" y="146" width="6" height="10" fill="#e7be00"/><rect x="123" y="146" width="6" height="10" fill="#e7be00"/><rect x="135" y="146" width="6" height="10" fill="#e7be00"/><rect x="141" y="156" width="6" height="10" fill="#e7be00"/><rect x="141" y="166" width="6" height="10" fill="#e7be00"/><rect x="135" y="176" width="6" height="10" fill="#e7be00"/><rect x="129" y="176" width="6" height="10" fill="#e7be00"/><rect x="123" y="176" width="6" height="10" fill="#e7be00"/><rect x="111" y="176" width="6" height="10" fill="#e7be00"/><rect x="105" y="176" width="6" height="10" fill="#e7be00"/><rect x="87" y="176" width="6" height="10" fill="#e7be00"/><rect x="87" y="156" width="6" height="10" fill="#e7be00"/><rect x="153" y="146" width="6" height="10" fill="#2f3fbf"/><rect x="165" y="146" width="6" height="10" fill="#2f3fbf"/><rect x="171" y="146" width="6" height="10" fill="#2f3fbf"/><rect x="177" y="146" width="6" height="10" fill="#2f3fbf"/><rect x="183" y="146" width="6" height="10" fill="#2f3fbf"/><rect x="195" y="146" width="6" height="10" fill="#2f3fbf"/><rect x="201" y="146" width="6" height="10" fill="#2f3fbf"/><rect x="201" y="156" width="6" height="10" fill="#2f3fbf"/><rect x="195" y="176" width="6" height="10" fill="#2f3fbf"/><rect x="183" y="176" width="6" height="10" fill="#2f3fbf"/><rect x="165" y="176" width="6" height="10" fill="#2f3fbf"/><rect x="147" y="176" width="6" height="10" fill="#2f3fbf"/><rect x="207" y="146" width="6" height="10" fill="#e7be00"/><rect x="219" y="146" width="6" height="10" fill="#e7be00"/><rect x="231" y="146" width="6" height="10" fill="#e7be00"/><rect x="261" y="146" width="6" height="10" fill="#e7be00"/><rect x="261" y="156" width="6" height="10" fill="#e7be00"/><rect x="261" y="176" width="6" height="10" fill="#e7be00"/><rect x="249" y="176" width="6" height="10" fill="#e7be00"/><rect x="237" y="176" width="6" height="10" fill="#e7be00"/><rect x="231" y="176" width="6" height="10" fill="#e7be00"/><rect x="219" y="176" width="6" height="10" fill="#e7be00"/><rect x="213" y="176" width="6" height="10" fill="#e7be00"/><rect x="207" y="176" width="6" height="10" fill="#e7be00"/><rect x="207" y="166" width="6" height="10" fill="#e7be00"/><rect x="27" y="186" width="6" height="10" fill="#ff3f2f"/><rect x="39" y="186" width="6" height="10" fill="#ff3f2f"/><rect x="81" y="206" width="6" height="10" fill="#ff3f2f"/><rect x="75" y="216" width="6" height="10" fill="#ff3f2f"/><rect x="69" y="216" width="6" height="10" fill="#ff3f2f"/><rect x="63" y="216" width="6" height="10" fill="#ff3f2f"/><rect x="45" y="216" width="6" height="10" fill="#ff3f2f"/><rect x="33" y="216" width="6" height="10" fill="#ff3f2f"/><rect x="27" y="196" width="6" height="10" fill="#ff3f2f"/><rect x="87" y="186" width="6" height="10" fill="#2f3fbf"/><rect x="99" y="186" width="6" height="10" fill="#2f3fbf"/><rect x="105" y="186" width="6" height="10" fill="#2f3fbf"/><rect x="129" y="186" width="6" height="10" fill="#2f3fbf"/><rect x="135" y="186" width="6" height="10" fill="#2f3fbf"/><rect x="141" y="196" width="6" height="10" fill="#2f3fbf"/><rect x="111" y="216" width="6" height="10" fill="#2f3fbf"/><rect x="105" y="216" width="6" height="10" fill="#2f3fbf"/><rect x="99" y="216" width="6" height="10" fill="#2f3fbf"/><rect x="93" y="216" width="6" height="10" fill="#2f3fbf"/><rect x="87" y="216" width="6" height="10" fill="#2f3fbf"/><rect x="87" y="196" width="6" height="10" fill="#2f3fbf"/><rect x="147" y="186" width="6" height="10" fill="#000000"/><rect x="153" y="186" width="6" height="10" fill="#000000"/><rect x="159" y="186" width="6" height="10" fill="#000000"/><rect x="183" y="186" width="6" height="10" fill="#000000"/><rect x="189" y="186" width="6" height="10" fill="#000000"/><rect x="195" y="216" width="6" height="10" fill="#000000"/><rect x="177" y="216" width="6" height="10" fill="#000000"/><rect x="153" y="216" width="6" height="10" fill="#000000"/><rect x="147" y="216" width="6" height="10" fill="#000000"/><rect x="207" y="186" width="6" height="10" fill="#2f3fbf"/><rect x="231" y="186" width="6" height="10" fill="#2f3fbf"/><rect x="237" y="186" width="6" height="10" fill="#2f3fbf"/><rect x="243" y="186" width="6" height="10" fill="#2f3fbf"/><rect x="261" y="186" width="6" height="10" fill="#2f3fbf"/><rect x="261" y="196" width="6" height="10" fill="#2f3fbf"/><rect x="261" y="206" width="6" height="10" fill="#2f3fbf"/><rect x="255" y="216" width="6" height="10" fill="#2f3fbf"/><rect x="249" y="216" width="6" height="10" fill="#2f3fbf"/><rect x="231" y="216" width="6" height="10" fill="#2f3fbf"/><rect x="213" y="216" width="6" height="10" fill="#2f3fbf"/><rect x="207" y="216" width="6" height="10" fill="#2f3fbf"/><rect x="39" y="226" width="6" height="10" fill="#ff3f2f"/><rect x="45" y="226" width="6" height="10" fill="#ff3f2f"/><rect x="51" y="226" width="6" height="10" fill="#ff3f2f"/><rect x="57" y="226" width="6" height="10" fill="#ff3f2f"/><rect x="75" y="226" width="6" height="10" fill="#ff3f2f"/><rect x="81" y="226" width="6" height="10" fill="#ff3f2f"/><rect x="81" y="256" width="6" height="10" fill="#ff3f2f"/><rect x="57" y="256" width="6" height="10" fill="#ff3f2f"/><rect x="45" y="256" width="6" height="10" fill="#ff3f2f"/><rect x="33" y="256" width="6" height="10" fill="#ff3f2f"/><rect x="87" y="226" width="6" height="10" fill="#2f3fbf"/><rect x="93" y="226" width="6" height="10" fill="#2f3fbf"/><rect x="135" y="226" width="6" height="10" fill="#2f3fbf"/><rect x="141" y="226" width="6" height="10" fill="#2f3fbf"/><rect x="141" y="236" width="6" height="10" fill="#2f3fbf"/><rect x="141" y="246" width="6" height="10" fill="#2f3fbf"/><rect x="135" y="256" width="6" height="10" fill="#2f3fbf"/><rect x="117" y="256" width="6" height="10" fill="#2f3fbf"/><rect x="105" y="256" width="6" height="10" fill="#2f3fbf"/><rect x="93" y="256" width="6" height="10" fill="#2f3fbf"/><rect x="153" y="226" width="6" height="10" fill="#2f3fbf"/><rect x="165" y="226" width="6" height="10" fill="#2f3fbf"/><rect x="177" y="226" width="6" height="10" fill="#2f3fbf"/><rect x="195" y="226" width="6" height="10" fill="#2f3fbf"/><rect x="201" y="226" width="6" height="10" fill="#2f3fbf"/><rect x="189" y="256" width="6" height="10" fill="#2f3fbf"/><rect x="177" y="256" width="6" height="10" fill="#2f3fbf"/><rect x="159" y="256" width="6" height="10" fill="#2f3fbf"/><rect x="153" y="256" width="6" height="10" fill="#2f3fbf"/><rect x="147" y="236" width="6" height="10" fill="#2f3fbf"/></g><g clip-path="url(#grid-clip-d2df89f4e04a6ac2-4x6)" data-channel="ellipse" data-ellipse-anchor-x="207" data-ellipse-anchor-y="146" data-ellipse-rx="104.705" data-ellipse-ry="57.977" data-ellipse-rotation-deg="12"><ellipse cx="207" cy="146" rx="104.705" ry="57.977" transform="rotate(12 207 146)" fill="#000000" stroke="#000000" fill-opacity="0.2" stroke-opacity="0.3" stroke-width="2"/></g><g><g data-channel="cell" data-cell-index="0" data-cell-row="0" data-cell-col="0" data-cell-blank="true" data-cell-blank-map="true"><rect x="33" y="36" width="48" height="20" rx="10" ry="10" fill="#e7be00" stroke="#000000" stroke-width="1"/><circle cx="39" cy="54.333" r="3.5" fill="#1d4ed8" data-blank-map-min="5,0"/><path d="M 58.8,37.667 H 67.2 M 63,33.467 V 41.867" fill="none" stroke="#d62828" stroke-width="1.925" stroke-linecap="butt" data-blank-map-max="0,2"/></g><g data-channel="cell" data-cell-index="1" data-cell-row="0" data-cell-col="1"><rect x="93" y="36" width="48" height="20" fill="#ff7001"/><text x="117" y="46" fill="#000000" style="font-family: &quot;JetBrains Mono&quot;, &quot;Menlo&quot;, &quot;Consolas&quot;, &quot;DejaVu Sans Mono&quot;, &quot;Liberation Mono&quot;, &quot;Roboto Mono&quot;, &quot;Noto Sans Mono&quot;, monospace; font-size: 16px;" text-anchor="middle" dominant-baseline="central">q9c0</text></g><g data-channel="cell" data-cell-index="2" data-cell-row="0" data-cell-col="2"><rect x="153" y="36" width="48" height="20" fill="#ee8a84"/><text x="177" y="46" fill="#000000" style="font-family: &quot;JetBrains Mono&quot;, &quot;Menlo&quot;, &quot;Consolas&quot;, &quot;DejaVu Sans Mono&quot;, &quot;Liberation Mono&quot;, &quot;Roboto Mono&quot;, &quot;Noto Sans Mono&quot;, monospace; font-size: 16px;" text-anchor="middle" dominant-baseline="central">sj9w</text></g><g data-channel="cell" data-cell-index="3" data-cell-row="0" data-cell-col="3" data-cell-blank="true"><rect x="213" y="36" width="48" height="20" rx="10" ry="10" fill="#e7be00" stroke="#000000" stroke-width="1"/></g><g data-channel="cell" data-cell-index="4" data-cell-row="1" data-cell-col="0"><rect x="33" y="76" width="48" height="20" fill="#bb8a0a"/><text x="57" y="86" fill="#000000" style="font-family: &quot;JetBrains Mono&quot;, &quot;Menlo&quot;, &quot;Consolas&quot;, &quot;DejaVu Sans Mono&quot;, &quot;Liberation Mono&quot;, &quot;Roboto Mono&quot;, &quot;Noto Sans Mono&quot;, monospace; font-size: 16px;" text-anchor="middle" dominant-baseline="central">p29t</text></g><g data-channel="cell" data-cell-index="5" data-cell-row="1" data-cell-col="1"><rect x="93" y="76" width="48" height="20" fill="#bb3e30"/><text x="117" y="86" fill="#ffffff" style="font-family: &quot;JetBrains Mono&quot;, &quot;Menlo&quot;, &quot;Consolas&quot;, &quot;DejaVu Sans Mono&quot;, &quot;Liberation Mono&quot;, &quot;Roboto Mono&quot;, &quot;Noto Sans Mono&quot;, monospace; font-size: 16px;" text-anchor="middle" dominant-baseline="central">xqlt</text></g><g data-channel="cell" data-cell-index="6" data-cell-row="1" data-cell-col="2" data-cell-quartile="3"><rect x="153" y="76" width="48" height="20" fill="#882d78"/><text x="177" y="86" fill="#ffffff" style="font-family: &quot;JetBrains Mono&quot;, &quot;Menlo&quot;, &quot;Consolas&quot;, &quot;DejaVu Sans Mono&quot;, &quot;Liberation Mono&quot;, &quot;Roboto Mono&quot;, &quot;Noto Sans Mono&quot;, monospace; font-size: 16px;" text-anchor="middle" dominant-baseline="central">0qkc</text><polygon points="201,96 201,86 191,96" fill="#ffffff"/></g><g data-channel="cell" data-cell-index="7" data-cell-row="1" data-cell-col="3" data-cell-quartile="4"><rect x="213" y="76" width="48" height="20" fill="#ee05ae"/><text x="237" y="86" fill="#000000" style="font-family: &quot;JetBrains Mono&quot;, &quot;Menlo&quot;, &quot;Consolas&quot;, &quot;DejaVu Sans Mono&quot;, &quot;Liberation Mono&quot;, &quot;Roboto Mono&quot;, &quot;Noto Sans Mono&quot;, monospace; font-size: 16px;" text-anchor="middle" dominant-baseline="central">4cz7</text><polygon points="213,96 213,86 223,96" fill="#000000"/></g><g data-channel="cell" data-cell-index="8" data-cell-row="2" data-cell-col="0"><rect x="33" y="116" width="48" height="20" fill="#0069d3"/><text x="57" y="126" fill="#ffffff" style="font-family: &quot;JetBrains Mono&quot;, &quot;Menlo&quot;, &quot;Consolas&quot;, &quot;DejaVu Sans Mono&quot;, &quot;Liberation Mono&quot;, &quot;Roboto Mono&quot;, &quot;Noto Sans Mono&quot;, monospace; font-size: 16px;" text-anchor="middle" dominant-baseline="central">6d5s</text></g><g data-channel="cell" data-cell-index="9" data-cell-row="2" data-cell-col="1" data-cell-blank="true"><rect x="93" y="116" width="48" height="20" rx="10" ry="10" fill="#e7be00" stroke="#000000" stroke-width="1"/></g><g data-channel="cell" data-cell-index="10" data-cell-row="2" data-cell-col="2"><rect x="153" y="116" width="48" height="20" fill="#66ea17"/><text x="177" y="126" fill="#000000" style="font-family: &quot;JetBrains Mono&quot;, &quot;Menlo&quot;, &quot;Consolas&quot;, &quot;DejaVu Sans Mono&quot;, &quot;Liberation Mono&quot;, &quot;Roboto Mono&quot;, &quot;Noto Sans Mono&quot;, monospace; font-size: 16px;" text-anchor="middle" dominant-baseline="central">zl4x</text></g><g data-channel="cell" data-cell-index="11" data-cell-row="2" data-cell-col="3" data-cell-fingerprint="true"><rect x="213" y="116" width="48" height="20" fill="#ffffff"/><rect x="213.5" y="116.5" width="47" height="19" fill="none" stroke="#e7be00" stroke-width="1"/><text x="237" y="126" fill="#000000" style="font-family: &quot;JetBrains Mono&quot;, &quot;Menlo&quot;, &quot;Consolas&quot;, &quot;DejaVu Sans Mono&quot;, &quot;Liberation Mono&quot;, &quot;Roboto Mono&quot;, &quot;Noto Sans Mono&quot;, monospace; font-size: 13.333px;" text-anchor="middle" dominant-baseline="central">d1s20</text></g><g data-channel="cell" data-cell-index="12" data-cell-row="3" data-cell-col="0" data-cell-fingerprint="true"><rect x="33" y="156" width="48" height="20" fill="#ffffff"/><rect x="33.5" y="156.5" width="47" height="19" fill="none" stroke="#e7be00" stroke-width="1"/><text x="57" y="166" fill="#000000" style="font-family: &quot;JetBrains Mono&quot;, &quot;Menlo&quot;, &quot;Consolas&quot;, &quot;DejaVu Sans Mono&quot;, &quot;Liberation Mono&quot;, &quot;Roboto Mono&quot;, &quot;Noto Sans Mono&quot;, monospace; font-size: 13.333px;" text-anchor="middle" dominant-baseline="central">7wqxe</text></g><g data-channel="cell" data-cell-index="13" data-cell-row="3" data-cell-col="1" data-cell-fingerprint="true"><rect x="93" y="156" width="48" height="20" fill="#ffffff"/><rect x="93.5" y="156.5" width="47" height="19" fill="none" stroke="#e7be00" stroke-width="1"/><text x="117" y="166" fill="#000000" style="font-family: &quot;JetBrains Mono&quot;, &quot;Menlo&quot;, &quot;Consolas&quot;, &quot;DejaVu Sans Mono&quot;, &quot;Liberation Mono&quot;, &quot;Roboto Mono&quot;, &quot;Noto Sans Mono&quot;, monospace; font-size: 13.333px;" text-anchor="middle" dominant-baseline="central">2fc56</text></g><g data-channel="cell" data-cell-index="14" data-cell-row="3" data-cell-col="2" data-cell-fingerprint="true" data-cell-quartile="1"><rect x="153" y="156" width="48" height="20" fill="#ffffff"/><rect x="153.5" y="156.5" width="47" height="19" fill="none" stroke="#e7be00" stroke-width="1"/><text x="177" y="166" fill="#000000" style="font-family: &quot;JetBrains Mono&quot;, &quot;Menlo&quot;, &quot;Consolas&quot;, &quot;DejaVu Sans Mono&quot;, &quot;Liberation Mono&quot;, &quot;Roboto Mono&quot;, &quot;Noto Sans Mono&quot;, monospace; font-size: 13.333px;" text-anchor="middle" dominant-baseline="central">dc0bp</text><polygon points="153,156 163,156 153,166" fill="#ffffff"/></g><g data-channel="cell" data-cell-index="15" data-cell-row="3" data-cell-col="3"><rect x="213" y="156" width="48" height="20" fill="#55841c"/><text x="237" y="166" fill="#ffffff" style="font-family: &quot;JetBrains Mono&quot;, &quot;Menlo&quot;, &quot;Consolas&quot;, &quot;DejaVu Sans Mono&quot;, &quot;Liberation Mono&quot;, &quot;Roboto Mono&quot;, &quot;Noto Sans Mono&quot;, monospace; font-size: 16px;" text-anchor="middle" dominant-baseline="central">rjz9</text></g><g data-channel="cell" data-cell-index="16" data-cell-row="4" data-cell-col="0"><rect x="33" y="196" width="48" height="20" fill="#886c0c"/><text x="57" y="206" fill="#ffffff" style="font-family: &quot;JetBrains Mono&quot;, &quot;Menlo&quot;, &quot;Consolas&quot;, &quot;DejaVu Sans Mono&quot;, &quot;Liberation Mono&quot;, &quot;Roboto Mono&quot;, &quot;Noto Sans Mono&quot;, monospace; font-size: 16px;" text-anchor="middle" dominant-baseline="central">p3kg</text></g><g data-channel="cell" data-cell-index="17" data-cell-row="4" data-cell-col="1"><rect x="93" y="196" width="48" height="20" fill="#119e31"/><text x="117" y="206" fill="#000000" style="font-family: &quot;JetBrains Mono&quot;, &quot;Menlo&quot;, &quot;Consolas&quot;, &quot;DejaVu Sans Mono&quot;, &quot;Liberation Mono&quot;, &quot;Roboto Mono&quot;, &quot;Noto Sans Mono&quot;, monospace; font-size: 16px;" text-anchor="middle" dominant-baseline="central">xx0p</text></g><g data-channel="cell" data-cell-index="18" data-cell-row="4" data-cell-col="2" data-cell-quartile="2"><rect x="153" y="196" width="48" height="20" fill="#11acf8"/><text x="177" y="206" fill="#000000" style="font-family: &quot;JetBrains Mono&quot;, &quot;Menlo&quot;, &quot;Consolas&quot;, &quot;DejaVu Sans Mono&quot;, &quot;Liberation Mono&quot;, &quot;Roboto Mono&quot;, &quot;Noto Sans Mono&quot;, monospace; font-size: 16px;" text-anchor="middle" dominant-baseline="central">lzkp</text><polygon points="201,196 191,196 201,206" fill="#000000"/></g><g data-channel="cell" data-cell-index="19" data-cell-row="4" data-cell-col="3"><rect x="213" y="196" width="48" height="20" fill="#aaa6bd"/><text x="237" y="206" fill="#000000" style="font-family: &quot;JetBrains Mono&quot;, &quot;Menlo&quot;, &quot;Consolas&quot;, &quot;DejaVu Sans Mono&quot;, &quot;Liberation Mono&quot;, &quot;Roboto Mono&quot;, &quot;Noto Sans Mono&quot;, monospace; font-size: 16px;" text-anchor="middle" dominant-baseline="central">hkn2</text></g><g data-channel="cell" data-cell-index="20" data-cell-row="5" data-cell-col="0"><rect x="33" y="236" width="48" height="20" fill="#884226"/><text x="57" y="246" fill="#ffffff" style="font-family: &quot;JetBrains Mono&quot;, &quot;Menlo&quot;, &quot;Consolas&quot;, &quot;DejaVu Sans Mono&quot;, &quot;Liberation Mono&quot;, &quot;Roboto Mono&quot;, &quot;Noto Sans Mono&quot;, monospace; font-size: 16px;" text-anchor="middle" dominant-baseline="central">yepg</text></g><g data-channel="cell" data-cell-index="21" data-cell-row="5" data-cell-col="1"><rect x="93" y="236" width="48" height="20" fill="#2294d3"/><text x="117" y="246" fill="#000000" style="font-family: &quot;JetBrains Mono&quot;, &quot;Menlo&quot;, &quot;Consolas&quot;, &quot;DejaVu Sans Mono&quot;, &quot;Liberation Mono&quot;, &quot;Roboto Mono&quot;, &quot;Noto Sans Mono&quot;, monospace; font-size: 16px;" text-anchor="middle" dominant-baseline="central">6w2z</text></g><g data-channel="cell" data-cell-index="22" data-cell-row="5" data-cell-col="2"><rect x="153" y="236" width="48" height="20" fill="#006f90"/><text x="177" y="246" fill="#ffffff" style="font-family: &quot;JetBrains Mono&quot;, &quot;Menlo&quot;, &quot;Consolas&quot;, &quot;DejaVu Sans Mono&quot;, &quot;Liberation Mono&quot;, &quot;Roboto Mono&quot;, &quot;Noto Sans Mono&quot;, monospace; font-size: 16px;" text-anchor="middle" dominant-baseline="central">jphs</text></g><g data-channel="cell" data-cell-index="23" data-cell-row="5" data-cell-col="3" data-cell-blank="true"><rect x="213" y="236" width="48" height="20" rx="10" ry="10" fill="#000000" stroke="#000000" stroke-width="1"/></g></g></g><g data-channel="color-bar" data-bar-slots="16" data-bar-marker-left="2" data-bar-marker-right="15"><g data-color-bar-rank="0" data-color-bar-band="B"><rect x="1" y="1" width="20" height="72.135" fill="#2f3fbf"/><text x="11" y="69.615" fill="#ffffff" style="font-family: &quot;JetBrains Mono&quot;, &quot;Menlo&quot;, &quot;Consolas&quot;, &quot;DejaVu Sans Mono&quot;, &quot;Liberation Mono&quot;, &quot;Roboto Mono&quot;, &quot;Noto Sans Mono&quot;, monospace; font-size: 16px;" text-anchor="middle" data-color-bar-letter="true">b</text></g><g data-color-bar-rank="1" data-color-bar-band="G"><rect x="1" y="73.135" width="20" height="76.75" fill="#e7be00"/><text x="11" y="146.365" fill="#000000" style="font-family: &quot;JetBrains Mono&quot;, &quot;Menlo&quot;, &quot;Consolas&quot;, &quot;DejaVu Sans Mono&quot;, &quot;Liberation Mono&quot;, &quot;Roboto Mono&quot;, &quot;Noto Sans Mono&quot;, monospace; font-size: 16px;" text-anchor="middle" data-color-bar-letter="true">g</text></g><g data-color-bar-rank="2" data-color-bar-band="R"><rect x="1" y="149.885" width="20" height="81.583" fill="#ff3f2f"/><text x="11" y="227.949" fill="#000000" style="font-family: &quot;JetBrains Mono&quot;, &quot;Menlo&quot;, &quot;Consolas&quot;, &quot;DejaVu Sans Mono&quot;, &quot;Liberation Mono&quot;, &quot;Roboto Mono&quot;, &quot;Noto Sans Mono&quot;, monospace; font-size: 16px;" text-anchor="middle" data-color-bar-letter="true">r</text></g><g data-color-bar-rank="3" data-color-bar-band="K"><rect x="1" y="231.469" width="20" height="59.531" fill="#000000"/><text x="11" y="287.48" fill="#ffffff" style="font-family: &quot;JetBrains Mono&quot;, &quot;Menlo&quot;, &quot;Consolas&quot;, &quot;DejaVu Sans Mono&quot;, &quot;Liberation Mono&quot;, &quot;Roboto Mono&quot;, &quot;Noto Sans Mono&quot;, monospace; font-size: 16px;" text-anchor="middle" data-color-bar-letter="true">k</text></g><circle cx="5.6" cy="46.312" r="3.4" fill="#ffffff" stroke="#000000" stroke-width="0.75" data-bar-marker="left"/><circle cx="16.4" cy="281.938" r="3.4" fill="#ffffff" stroke="#000000" stroke-width="0.75" data-bar-marker="right"/></g><g data-channel="label-top"><text x="27" y="16" fill="#666666" style="font-family: &quot;JetBrains Mono&quot;, &quot;Menlo&quot;, &quot;Consolas&quot;, &quot;DejaVu Sans Mono&quot;, &quot;Liberation Mono&quot;, &quot;Roboto Mono&quot;, &quot;Noto Sans Mono&quot;, monospace; font-size: 12px;" dominant-baseline="central"><tspan fill="#a00000" font-weight="bold">fingerprint of </tspan>ADA Shelley: addr1...</text></g><g data-channel="label-bottom"><text x="267" y="276" fill="#666666" style="font-family: &quot;JetBrains Mono&quot;, &quot;Menlo&quot;, &quot;Consolas&quot;, &quot;DejaVu Sans Mono&quot;, &quot;Liberation Mono&quot;, &quot;Roboto Mono&quot;, &quot;Noto Sans Mono&quot;, monospace; font-size: 12px;" text-anchor="end" dominant-baseline="central">...htm0rl</text></g><line x1="0" y1="0.5" x2="273" y2="0.5" stroke="#808080" stroke-width="1" shape-rendering="crispEdges"/><line x1="272.5" y1="0" x2="272.5" y2="292" stroke="#808080" stroke-width="1" shape-rendering="crispEdges"/><line x1="0" y1="291.5" x2="273" y2="291.5" stroke="#808080" stroke-width="1" shape-rendering="crispEdges"/><line x1="0.5" y1="0" x2="0.5" y2="292" stroke="#808080" stroke-width="1" shape-rendering="crispEdges"/><line x1="21.5" y1="0" x2="21.5" y2="292" stroke="#808080" stroke-width="1" shape-rendering="crispEdges"/></svg>