<svg width="263.0" height="277.0" xmlns="http://www.w3.org/2000/svg"><defs><clipPath id="grid-clip-8b678698-4x6"><rect x="17.0" y="31.0" width="240.0" height="240.0"/></clipPath></defs><rect x="0" y="0" width="263.0" height="277.0" fill="#ffffff"/><rect x="17.0" y="31.0" width="240.0" height="240.0" fill="#ffffff"/><rect x="23.0" y="31.0" width="6.0" height="10.0" fill="#ffd966"/><rect x="29.0" y="31.0" width="6.0" height="10.0" fill="#ffd966"/><rect x="59.0" y="31.0" width="6.0" height="10.0" fill="#ffd966"/><rect x="65.0" y="31.0" width="6.0" height="10.0" fill="#ffd966"/><rect x="71.0" y="31.0" width="6.0" height="10.0" fill="#ffd966"/><rect x="71.0" y="41.0" width="6.0" height="10.0" fill="#ffd966"/><rect x="65.0" y="61.0" width="6.0" height="10.0" fill="#ffd966"/><rect x="59.0" y="61.0" width="6.0" height="10.0" fill="#ffd966"/><rect x="47.0" y="61.0" width="6.0" height="10.0" fill="#ffd966"/><rect x="41.0" y="61.0" width="6.0" height="10.0" fill="#ffd966"/><rect x="29.0" y="61.0" width="6.0" height="10.0" fill="#ffd966"/><rect x="17.0" y="41.0" width="6.0" height="10.0" fill="#ffd966"/><rect x="83.0" y="31.0" width="6.0" height="10.0" fill="#000000"/><rect x="119.0" y="31.0" width="6.0" height="10.0" fill="#000000"/><rect x="131.0" y="61.0" width="6.0" height="10.0" fill="#000000"/><rect x="125.0" y="61.0" width="6.0" height="10.0" fill="#000000"/><rect x="113.0" y="61.0" width="6.0" height="10.0" fill="#000000"/><rect x="89.0" y="61.0" width="6.0" height="10.0" fill="#000000"/><rect x="83.0" y="61.0" width="6.0" height="10.0" fill="#000000"/><rect x="77.0" y="41.0" width="6.0" height="10.0" fill="#000000"/><rect x="143.0" y="31.0" width="6.0" height="10.0" fill="#ffd966"/><rect x="149.0" y="31.0" width="6.0" height="10.0" fill="#ffd966"/><rect x="155.0" y="31.0" width="6.0" height="10.0" fill="#ffd966"/><rect x="191.0" y="41.0" width="6.0" height="10.0" fill="#ffd966"/><rect x="179.0" y="61.0" width="6.0" height="10.0" fill="#ffd966"/><rect x="173.0" y="61.0" width="6.0" height="10.0" fill="#ffd966"/><rect x="167.0" y="61.0" width="6.0" height="10.0" fill="#ffd966"/><rect x="161.0" y="61.0" width="6.0" height="10.0" fill="#ffd966"/><rect x="155.0" y="61.0" width="6.0" height="10.0" fill="#ffd966"/><rect x="143.0" y="61.0" width="6.0" height="10.0" fill="#ffd966"/><rect x="203.0" y="31.0" width="6.0" height="10.0" fill="#2f3fbf"/><rect x="209.0" y="31.0" width="6.0" height="10.0" fill="#2f3fbf"/><rect x="221.0" y="31.0" width="6.0" height="10.0" fill="#2f3fbf"/><rect x="227.0" y="31.0" width="6.0" height="10.0" fill="#2f3fbf"/><rect x="245.0" y="31.0" width="6.0" height="10.0" fill="#2f3fbf"/><rect x="251.0" y="31.0" width="6.0" height="10.0" fill="#2f3fbf"/><rect x="251.0" y="41.0" width="6.0" height="10.0" fill="#2f3fbf"/><rect x="251.0" y="51.0" width="6.0" height="10.0" fill="#2f3fbf"/><rect x="251.0" y="61.0" width="6.0" height="10.0" fill="#2f3fbf"/><rect x="215.0" y="61.0" width="6.0" height="10.0" fill="#2f3fbf"/><rect x="209.0" y="61.0" width="6.0" height="10.0" fill="#2f3fbf"/><rect x="203.0" y="61.0" width="6.0" height="10.0" fill="#2f3fbf"/><rect x="197.0" y="61.0" width="6.0" height="10.0" fill="#2f3fbf"/><rect x="17.0" y="71.0" width="6.0" height="10.0" fill="#2f3fbf"/><rect x="23.0" y="71.0" width="6.0" height="10.0" fill="#2f3fbf"/><rect x="35.0" y="71.0" width="6.0" height="10.0" fill="#2f3fbf"/><rect x="65.0" y="71.0" width="6.0" height="10.0" fill="#2f3fbf"/><rect x="71.0" y="71.0" width="6.0" height="10.0" fill="#2f3fbf"/><rect x="71.0" y="81.0" width="6.0" height="10.0" fill="#2f3fbf"/><rect x="71.0" y="101.0" width="6.0" height="10.0" fill="#2f3fbf"/><rect x="29.0" y="101.0" width="6.0" height="10.0" fill="#2f3fbf"/><rect x="17.0" y="101.0" width="6.0" height="10.0" fill="#2f3fbf"/><rect x="17.0" y="81.0" width="6.0" height="10.0" fill="#2f3fbf"/><rect x="77.0" y="71.0" width="6.0" height="10.0" fill="#ffd966"/><rect x="89.0" y="71.0" width="6.0" height="10.0" fill="#ffd966"/><rect x="125.0" y="71.0" width="6.0" height="10.0" fill="#ffd966"/><rect x="131.0" y="81.0" width="6.0" height="10.0" fill="#ffd966"/><rect x="113.0" y="101.0" width="6.0" height="10.0" fill="#ffd966"/><rect x="107.0" y="101.0" width="6.0" height="10.0" fill="#ffd966"/><rect x="83.0" y="101.0" width="6.0" height="10.0" fill="#ffd966"/><rect x="77.0" y="91.0" width="6.0" height="10.0" fill="#ffd966"/><rect x="209.0" y="71.0" width="6.0" height="10.0" fill="#000000"/><rect x="233.0" y="71.0" width="6.0" height="10.0" fill="#000000"/><rect x="245.0" y="71.0" width="6.0" height="10.0" fill="#000000"/><rect x="251.0" y="71.0" width="6.0" height="10.0" fill="#000000"/><rect x="251.0" y="101.0" width="6.0" height="10.0" fill="#000000"/><rect x="209.0" y="101.0" width="6.0" height="10.0" fill="#000000"/><rect x="197.0" y="91.0" width="6.0" height="10.0" fill="#000000"/><rect x="29.0" y="111.0" width="6.0" height="10.0" fill="#ffd966"/><rect x="41.0" y="111.0" width="6.0" height="10.0" fill="#ffd966"/><rect x="47.0" y="111.0" width="6.0" height="10.0" fill="#ffd966"/><rect x="53.0" y="111.0" width="6.0" height="10.0" fill="#ffd966"/><rect x="65.0" y="111.0" width="6.0" height="10.0" fill="#ffd966"/><rect x="71.0" y="111.0" width="6.0" height="10.0" fill="#ffd966"/><rect x="71.0" y="121.0" width="6.0" height="10.0" fill="#ffd966"/><rect x="71.0" y="141.0" width="6.0" height="10.0" fill="#ffd966"/><rect x="65.0" y="141.0" width="6.0" height="10.0" fill="#ffd966"/><rect x="53.0" y="141.0" width="6.0" height="10.0" fill="#ffd966"/><rect x="41.0" y="141.0" width="6.0" height="10.0" fill="#ffd966"/><rect x="35.0" y="141.0" width="6.0" height="10.0" fill="#ffd966"/><rect x="17.0" y="141.0" width="6.0" height="10.0" fill="#ffd966"/><rect x="17.0" y="131.0" width="6.0" height="10.0" fill="#ffd966"/><rect x="17.0" y="121.0" width="6.0" height="10.0" fill="#ffd966"/><rect x="77.0" y="111.0" width="6.0" height="10.0" fill="#2f3fbf"/><rect x="101.0" y="111.0" width="6.0" height="10.0" fill="#2f3fbf"/><rect x="107.0" y="111.0" width="6.0" height="10.0" fill="#2f3fbf"/><rect x="119.0" y="111.0" width="6.0" height="10.0" fill="#2f3fbf"/><rect x="125.0" y="111.0" width="6.0" height="10.0" fill="#2f3fbf"/><rect x="131.0" y="121.0" width="6.0" height="10.0" fill="#2f3fbf"/><rect x="131.0" y="131.0" width="6.0" height="10.0" fill="#2f3fbf"/><rect x="131.0" y="141.0" width="6.0" height="10.0" fill="#2f3fbf"/><rect x="119.0" y="141.0" width="6.0" height="10.0" fill="#2f3fbf"/><rect x="107.0" y="141.0" width="6.0" height="10.0" fill="#2f3fbf"/><rect x="95.0" y="141.0" width="6.0" height="10.0" fill="#2f3fbf"/><rect x="89.0" y="141.0" width="6.0" height="10.0" fill="#2f3fbf"/><rect x="77.0" y="131.0" width="6.0" height="10.0" fill="#2f3fbf"/><rect x="137.0" y="111.0" width="6.0" height="10.0" fill="#000000"/><rect x="143.0" y="111.0" width="6.0" height="10.0" fill="#000000"/><rect x="149.0" y="111.0" width="6.0" height="10.0" fill="#000000"/><rect x="155.0" y="111.0" width="6.0" height="10.0" fill="#000000"/><rect x="167.0" y="111.0" width="6.0" height="10.0" fill="#000000"/><rect x="173.0" y="111.0" width="6.0" height="10.0" fill="#000000"/><rect x="179.0" y="111.0" width="6.0" height="10.0" fill="#000000"/><rect x="185.0" y="111.0" width="6.0" height="10.0" fill="#000000"/><rect x="191.0" y="121.0" width="6.0" height="10.0" fill="#000000"/><rect x="191.0" y="131.0" width="6.0" height="10.0" fill="#000000"/><rect x="185.0" y="141.0" width="6.0" height="10.0" fill="#000000"/><rect x="179.0" y="141.0" width="6.0" height="10.0" fill="#000000"/><rect x="173.0" y="141.0" width="6.0" height="10.0" fill="#000000"/><rect x="167.0" y="141.0" width="6.0" height="10.0" fill="#000000"/><rect x="155.0" y="141.0" width="6.0" height="10.0" fill="#000000"/><rect x="137.0" y="141.0" width="6.0" height="10.0" fill="#000000"/><rect x="137.0" y="131.0" width="6.0" height="10.0" fill="#000000"/><rect x="137.0" y="121.0" width="6.0" height="10.0" fill="#000000"/><rect x="209.0" y="111.0" width="6.0" height="10.0" fill="#ff3f2f"/><rect x="215.0" y="111.0" width="6.0" height="10.0" fill="#ff3f2f"/><rect x="221.0" y="111.0" width="6.0" height="10.0" fill="#ff3f2f"/><rect x="227.0" y="111.0" width="6.0" height="10.0" fill="#ff3f2f"/><rect x="251.0" y="111.0" width="6.0" height="10.0" fill="#ff3f2f"/><rect x="245.0" y="141.0" width="6.0" height="10.0" fill="#ff3f2f"/><rect x="233.0" y="141.0" width="6.0" height="10.0" fill="#ff3f2f"/><rect x="227.0" y="141.0" width="6.0" height="10.0" fill="#ff3f2f"/><rect x="221.0" y="141.0" width="6.0" height="10.0" fill="#ff3f2f"/><rect x="197.0" y="141.0" width="6.0" height="10.0" fill="#ff3f2f"/><rect x="17.0" y="151.0" width="6.0" height="10.0" fill="#2f3fbf"/><rect x="35.0" y="151.0" width="6.0" height="10.0" fill="#2f3fbf"/><rect x="47.0" y="151.0" width="6.0" height="10.0" fill="#2f3fbf"/><rect x="65.0" y="151.0" width="6.0" height="10.0" fill="#2f3fbf"/><rect x="71.0" y="151.0" width="6.0" height="10.0" fill="#2f3fbf"/><rect x="71.0" y="161.0" width="6.0" height="10.0" fill="#2f3fbf"/><rect x="71.0" y="181.0" width="6.0" height="10.0" fill="#2f3fbf"/><rect x="59.0" y="181.0" width="6.0" height="10.0" fill="#2f3fbf"/><rect x="53.0" y="181.0" width="6.0" height="10.0" fill="#2f3fbf"/><rect x="35.0" y="181.0" width="6.0" height="10.0" fill="#2f3fbf"/><rect x="29.0" y="181.0" width="6.0" height="10.0" fill="#2f3fbf"/><rect x="23.0" y="181.0" width="6.0" height="10.0" fill="#2f3fbf"/><rect x="17.0" y="171.0" width="6.0" height="10.0" fill="#2f3fbf"/><rect x="77.0" y="151.0" width="6.0" height="10.0" fill="#ff3f2f"/><rect x="107.0" y="151.0" width="6.0" height="10.0" fill="#ff3f2f"/><rect x="113.0" y="151.0" width="6.0" height="10.0" fill="#ff3f2f"/><rect x="125.0" y="151.0" width="6.0" height="10.0" fill="#ff3f2f"/><rect x="131.0" y="171.0" width="6.0" height="10.0" fill="#ff3f2f"/><rect x="131.0" y="181.0" width="6.0" height="10.0" fill="#ff3f2f"/><rect x="107.0" y="181.0" width="6.0" height="10.0" fill="#ff3f2f"/><rect x="95.0" y="181.0" width="6.0" height="10.0" fill="#ff3f2f"/><rect x="89.0" y="181.0" width="6.0" height="10.0" fill="#ff3f2f"/><rect x="83.0" y="181.0" width="6.0" height="10.0" fill="#ff3f2f"/><rect x="77.0" y="161.0" width="6.0" height="10.0" fill="#ff3f2f"/><rect x="137.0" y="151.0" width="6.0" height="10.0" fill="#2f3fbf"/><rect x="173.0" y="151.0" width="6.0" height="10.0" fill="#2f3fbf"/><rect x="179.0" y="151.0" width="6.0" height="10.0" fill="#2f3fbf"/><rect x="191.0" y="161.0" width="6.0" height="10.0" fill="#2f3fbf"/><rect x="185.0" y="181.0" width="6.0" height="10.0" fill="#2f3fbf"/><rect x="149.0" y="181.0" width="6.0" height="10.0" fill="#2f3fbf"/><rect x="143.0" y="181.0" width="6.0" height="10.0" fill="#2f3fbf"/><rect x="137.0" y="171.0" width="6.0" height="10.0" fill="#2f3fbf"/><rect x="137.0" y="161.0" width="6.0" height="10.0" fill="#2f3fbf"/><rect x="197.0" y="151.0" width="6.0" height="10.0" fill="#ffd966"/><rect x="203.0" y="151.0" width="6.0" height="10.0" fill="#ffd966"/><rect x="227.0" y="151.0" width="6.0" height="10.0" fill="#ffd966"/><rect x="239.0" y="151.0" width="6.0" height="10.0" fill="#ffd966"/><rect x="251.0" y="171.0" width="6.0" height="10.0" fill="#ffd966"/><rect x="251.0" y="181.0" width="6.0" height="10.0" fill="#ffd966"/><rect x="239.0" y="181.0" width="6.0" height="10.0" fill="#ffd966"/><rect x="233.0" y="181.0" width="6.0" height="10.0" fill="#ffd966"/><rect x="215.0" y="181.0" width="6.0" height="10.0" fill="#ffd966"/><rect x="197.0" y="181.0" width="6.0" height="10.0" fill="#ffd966"/><rect x="197.0" y="161.0" width="6.0" height="10.0" fill="#ffd966"/><rect x="17.0" y="191.0" width="6.0" height="10.0" fill="#2f3fbf"/><rect x="29.0" y="191.0" width="6.0" height="10.0" fill="#2f3fbf"/><rect x="47.0" y="191.0" width="6.0" height="10.0" fill="#2f3fbf"/><rect x="71.0" y="191.0" width="6.0" height="10.0" fill="#2f3fbf"/><rect x="71.0" y="211.0" width="6.0" height="10.0" fill="#2f3fbf"/><rect x="71.0" y="221.0" width="6.0" height="10.0" fill="#2f3fbf"/><rect x="65.0" y="221.0" width="6.0" height="10.0" fill="#2f3fbf"/><rect x="41.0" y="221.0" width="6.0" height="10.0" fill="#2f3fbf"/><rect x="35.0" y="221.0" width="6.0" height="10.0" fill="#2f3fbf"/><rect x="29.0" y="221.0" width="6.0" height="10.0" fill="#2f3fbf"/><rect x="17.0" y="221.0" width="6.0" height="10.0" fill="#2f3fbf"/><rect x="17.0" y="211.0" width="6.0" height="10.0" fill="#2f3fbf"/><rect x="83.0" y="191.0" width="6.0" height="10.0" fill="#ffd966"/><rect x="101.0" y="191.0" width="6.0" height="10.0" fill="#ffd966"/><rect x="107.0" y="191.0" width="6.0" height="10.0" fill="#ffd966"/><rect x="125.0" y="191.0" width="6.0" height="10.0" fill="#ffd966"/><rect x="131.0" y="191.0" width="6.0" height="10.0" fill="#ffd966"/><rect x="131.0" y="201.0" width="6.0" height="10.0" fill="#ffd966"/><rect x="131.0" y="211.0" width="6.0" height="10.0" fill="#ffd966"/><rect x="113.0" y="221.0" width="6.0" height="10.0" fill="#ffd966"/><rect x="101.0" y="221.0" width="6.0" height="10.0" fill="#ffd966"/><rect x="83.0" y="221.0" width="6.0" height="10.0" fill="#ffd966"/><rect x="77.0" y="211.0" width="6.0" height="10.0" fill="#ffd966"/><rect x="77.0" y="201.0" width="6.0" height="10.0" fill="#ffd966"/><rect x="197.0" y="191.0" width="6.0" height="10.0" fill="#2f3fbf"/><rect x="203.0" y="191.0" width="6.0" height="10.0" fill="#2f3fbf"/><rect x="209.0" y="191.0" width="6.0" height="10.0" fill="#2f3fbf"/><rect x="215.0" y="191.0" width="6.0" height="10.0" fill="#2f3fbf"/><rect x="233.0" y="191.0" width="6.0" height="10.0" fill="#2f3fbf"/><rect x="251.0" y="211.0" width="6.0" height="10.0" fill="#2f3fbf"/><rect x="251.0" y="221.0" width="6.0" height="10.0" fill="#2f3fbf"/><rect x="245.0" y="221.0" width="6.0" height="10.0" fill="#2f3fbf"/><rect x="215.0" y="221.0" width="6.0" height="10.0" fill="#2f3fbf"/><rect x="197.0" y="211.0" width="6.0" height="10.0" fill="#2f3fbf"/><rect x="197.0" y="201.0" width="6.0" height="10.0" fill="#2f3fbf"/><rect x="17.0" y="231.0" width="6.0" height="10.0" fill="#ffd966"/><rect x="23.0" y="231.0" width="6.0" height="10.0" fill="#ffd966"/><rect x="29.0" y="231.0" width="6.0" height="10.0" fill="#ffd966"/><rect x="41.0" y="231.0" width="6.0" height="10.0" fill="#ffd966"/><rect x="47.0" y="231.0" width="6.0" height="10.0" fill="#ffd966"/><rect x="59.0" y="231.0" width="6.0" height="10.0" fill="#ffd966"/><rect x="53.0" y="261.0" width="6.0" height="10.0" fill="#ffd966"/><rect x="47.0" y="261.0" width="6.0" height="10.0" fill="#ffd966"/><rect x="41.0" y="261.0" width="6.0" height="10.0" fill="#ffd966"/><rect x="35.0" y="261.0" width="6.0" height="10.0" fill="#ffd966"/><rect x="17.0" y="251.0" width="6.0" height="10.0" fill="#ffd966"/><rect x="83.0" y="231.0" width="6.0" height="10.0" fill="#2f3fbf"/><rect x="95.0" y="231.0" width="6.0" height="10.0" fill="#2f3fbf"/><rect x="101.0" y="231.0" width="6.0" height="10.0" fill="#2f3fbf"/><rect x="113.0" y="231.0" width="6.0" height="10.0" fill="#2f3fbf"/><rect x="119.0" y="231.0" width="6.0" height="10.0" fill="#2f3fbf"/><rect x="125.0" y="231.0" width="6.0" height="10.0" fill="#2f3fbf"/><rect x="131.0" y="261.0" width="6.0" height="10.0" fill="#2f3fbf"/><rect x="107.0" y="261.0" width="6.0" height="10.0" fill="#2f3fbf"/><rect x="101.0" y="261.0" width="6.0" height="10.0" fill="#2f3fbf"/><rect x="89.0" y="261.0" width="6.0" height="10.0" fill="#2f3fbf"/><rect x="77.0" y="251.0" width="6.0" height="10.0" fill="#2f3fbf"/><rect x="137.0" y="231.0" width="6.0" height="10.0" fill="#ffd966"/><rect x="167.0" y="231.0" width="6.0" height="10.0" fill="#ffd966"/><rect x="191.0" y="251.0" width="6.0" height="10.0" fill="#ffd966"/><rect x="185.0" y="261.0" width="6.0" height="10.0" fill="#ffd966"/><rect x="179.0" y="261.0" width="6.0" height="10.0" fill="#ffd966"/><rect x="161.0" y="261.0" width="6.0" height="10.0" fill="#ffd966"/><rect x="221.0" y="231.0" width="6.0" height="10.0" fill="#2f3fbf"/><rect x="239.0" y="231.0" width="6.0" height="10.0" fill="#2f3fbf"/><rect x="245.0" y="231.0" width="6.0" height="10.0" fill="#2f3fbf"/><rect x="251.0" y="231.0" width="6.0" height="10.0" fill="#2f3fbf"/><rect x="227.0" y="261.0" width="6.0" height="10.0" fill="#2f3fbf"/><rect x="209.0" y="261.0" width="6.0" height="10.0" fill="#2f3fbf"/><rect x="203.0" y="261.0" width="6.0" height="10.0" fill="#2f3fbf"/><rect x="197.0" y="261.0" width="6.0" height="10.0" fill="#2f3fbf"/><g clip-path="url(#grid-clip-8b678698-4x6)"><ellipse cx="197.0" cy="71.0" rx="130.1719898354529" ry="51.27149872943161" transform="rotate(108.0 197.0 71.0)" fill="#000000" fill-opacity="0.2"/></g><rect x="23.0" y="41.0" width="48.0" height="20.0" fill="#81d404"/><text x="47.0" y="51.0" fill="#000000" style="font-family: monospace; font-size: 16.0px;" text-anchor="middle" dominant-baseline="central">BNSB</text><rect x="83.0" y="41.0" width="48.0" height="20.0" fill="#1d4303"/><text x="107.0" y="51.0" fill="#ffffff" style="font-family: monospace; font-size: 16.0px;" text-anchor="middle" dominant-baseline="central">A0Md</text><rect x="143.0" y="41.0" width="48.0" height="20.0" fill="#c2cff4"/><text x="167.0" y="51.0" fill="#000000" style="font-family: monospace; font-size: 16.0px;" text-anchor="middle" dominant-baseline="central">9M/C</text><rect x="203.0" y="41.0" width="48.0" height="20.0" fill="#099dc2"/><text x="227.0" y="51.0" fill="#000000" style="font-family: monospace; font-size: 16.0px;" text-anchor="middle" dominant-baseline="central">wp0J</text><rect x="23.0" y="81.0" width="48.0" height="20.0" fill="#6f64df"/><text x="47.0" y="91.0" fill="#ffffff" style="font-family: monospace; font-size: 16.0px;" text-anchor="middle" dominant-baseline="central">32Rv</text><rect x="83.0" y="81.0" width="48.0" height="20.0" fill="#a2f693"/><text x="107.0" y="91.0" fill="#000000" style="font-family: monospace; font-size: 16.0px;" text-anchor="middle" dominant-baseline="central">k/ai</text><rect x="203.0" y="81.0" width="48.0" height="20.0" fill="#3b5c12"/><text x="227.0" y="91.0" fill="#ffffff" style="font-family: monospace; font-size: 16.0px;" text-anchor="middle" dominant-baseline="central">Elw7</text><rect x="23.0" y="121.0" width="48.0" height="20.0" fill="#a5deee"/><text x="47.0" y="131.0" fill="#000000" style="font-family: monospace; font-size: 16.0px;" text-anchor="middle" dominant-baseline="central">7t6l</text><rect x="83.0" y="121.0" width="48.0" height="20.0" fill="#1b84f5"/><text x="107.0" y="131.0" fill="#000000" style="font-family: monospace; font-size: 16.0px;" text-anchor="middle" dominant-baseline="central">9YQb</text><rect x="143.0" y="121.0" width="48.0" height="20.0" fill="#526232"/><text x="167.0" y="131.0" fill="#ffffff" style="font-family: monospace; font-size: 16.0px;" text-anchor="middle" dominant-baseline="central">MmJS</text><rect x="203.0" y="121.0" width="48.0" height="20.0" fill="#df833f"/><text x="227.0" y="131.0" fill="#000000" style="font-family: monospace; font-size: 16.0px;" text-anchor="middle" dominant-baseline="central">P4Pf</text><rect x="23.0" y="161.0" width="48.0" height="20.0" fill="#71b4c9"/><text x="47.0" y="171.0" fill="#000000" style="font-family: monospace; font-size: 16.0px;" text-anchor="middle" dominant-baseline="central">ybRx</text><rect x="83.0" y="161.0" width="48.0" height="20.0" fill="#f86378"/><text x="107.0" y="171.0" fill="#000000" style="font-family: monospace; font-size: 16.0px;" text-anchor="middle" dominant-baseline="central">eGP4</text><rect x="143.0" y="161.0" width="48.0" height="20.0" fill="#2bab7e"/><text x="167.0" y="171.0" fill="#000000" style="font-family: monospace; font-size: 16.0px;" text-anchor="middle" dominant-baseline="central">fqsr</text><rect x="203.0" y="161.0" width="48.0" height="20.0" fill="#fafa22"/><text x="227.0" y="171.0" fill="#000000" style="font-family: monospace; font-size: 16.0px;" text-anchor="middle" dominant-baseline="central">Ivr6</text><rect x="23.0" y="201.0" width="48.0" height="20.0" fill="#514772"/><text x="47.0" y="211.0" fill="#ffffff" style="font-family: monospace; font-size: 16.0px;" text-anchor="middle" dominant-baseline="central">ckdR</text><rect x="83.0" y="201.0" width="48.0" height="20.0" fill="#4dce9a"/><text x="107.0" y="211.0" fill="#000000" style="font-family: monospace; font-size: 16.0px;" text-anchor="middle" dominant-baseline="central">ms5N</text><rect x="203.0" y="201.0" width="48.0" height="20.0" fill="#7f1af0"/><text x="227.0" y="211.0" fill="#ffffff" style="font-family: monospace; font-size: 16.0px;" text-anchor="middle" dominant-baseline="central">8Bp/</text><rect x="23.0" y="241.0" width="48.0" height="20.0" fill="#a0fb92"/><text x="47.0" y="251.0" fill="#000000" style="font-family: monospace; font-size: 16.0px;" text-anchor="middle" dominant-baseline="central">kvug</text><rect x="83.0" y="241.0" width="48.0" height="20.0" fill="#2020fe"/><text x="107.0" y="251.0" fill="#ffffff" style="font-family: monospace; font-size: 16.0px;" text-anchor="middle" dominant-baseline="central">/iAg</text><rect x="143.0" y="241.0" width="48.0" height="20.0" fill="#8aa35f"/><text x="167.0" y="251.0" fill="#000000" style="font-family: monospace; font-size: 16.0px;" text-anchor="middle" dominant-baseline="central">X6OK</text><rect x="203.0" y="241.0" width="48.0" height="20.0" fill="#00d1e7"/><text x="227.0" y="251.0" fill="#000000" style="font-family: monospace; font-size: 16.0px;" text-anchor="middle" dominant-baseline="central">59E=</text><circle cx="167.0" cy="91.0" r="17.0" fill="#ffffff" stroke="#000000" stroke-width="1"/><line x1="167.0" y1="91.0" x2="149.92370063509077" y2="96.69209978830308" stroke="#ffffff" style="mix-blend-mode: difference" stroke-width="1"/><line x1="167.0" y1="91.0" x2="167.0" y2="99.5" stroke="#000000" stroke-width="1"/><circle cx="167.0" cy="99.5" r="1.5" fill="#ffffff" stroke="#000000" stroke-width="1"/><circle cx="167.0" cy="211.0" r="17.0" fill="#ffffff" stroke="#000000" stroke-width="1"/><line x1="167.0" y1="211.0" x2="152.0230947019188" y2="201.01539646794586" stroke="#ffffff" style="mix-blend-mode: difference" stroke-width="1"/><line x1="167.0" y1="211.0" x2="167.0" y2="219.5" stroke="#000000" stroke-width="1"/><circle cx="167.0" cy="219.5" r="1.5" fill="#ffffff" stroke="#000000" stroke-width="1"/><polygon points="23.0,121.0 33.0,121.0 23.0,131.0" fill="#000000"/><polygon points="251.0,81.0 241.0,81.0 251.0,91.0" fill="#ffffff"/><polygon points="251.0,261.0 251.0,251.0 241.0,261.0" fill="#000000"/><polygon points="23.0,181.0 23.0,171.0 33.0,181.0" fill="#000000"/><rect x="1" y="1" width="10.0" height="118.77954260254502" fill="#ffd966"/><rect x="1" y="119.77954260254502" width="10.0" height="75.64771351098594" fill="#ff3f2f"/><rect x="1" y="195.42725611353097" width="10.0" height="48.65210065000244" fill="#2f3fbf"/><rect x="1" y="244.0793567635334" width="10.0" height="31.92064323646659" fill="#000000"/><text x="17.0" y="16.0" fill="#666666" style="font-family: monospace; font-size: 12.0px;" dominant-baseline="central">SSH ecdsa-nistp256 pubkey: AAAAE2VjZHNhLXNoYTItbmlzdHAyNTYAAAAIbmlzdHAyNTYAAABB...</text><line x1="0" y1="0.5" x2="263.0" y2="0.5" stroke="#808080" stroke-width="1" shape-rendering="crispEdges"/><line x1="262.5" y1="0" x2="262.5" y2="277.0" stroke="#808080" stroke-width="1" shape-rendering="crispEdges"/><line x1="0" y1="276.5" x2="263.0" y2="276.5" stroke="#808080" stroke-width="1" shape-rendering="crispEdges"/><line x1="0.5" y1="0" x2="0.5" y2="277.0" stroke="#808080" stroke-width="1" shape-rendering="crispEdges"/><line x1="11.5" y1="0" x2="11.5" y2="277.0" stroke="#808080" stroke-width="1" shape-rendering="crispEdges"/></svg>