<svg width="263.0" height="277.0" viewBox="0 0 263.0 277.0" xmlns="http://www.w3.org/2000/svg" data-entviz-version="v5" data-input-bytes="160" data-cols="4" data-rows="6" data-truncated="true"><defs><clipPath id="grid-clip-8b678698b08217c4-4x6"><rect x="17.0" y="31.0" width="240.0" height="240.0"/></clipPath></defs><rect x="0" y="0" width="263.0" height="277.0" fill="#ffffff"/><g data-channel="grid"><rect x="17.0" y="31.0" width="240.0" height="240.0" fill="#ff3f2f"/><g><rect x="23.0" y="31.0" width="6.0" height="10.0" fill="#ffd966"/><rect x="29.0" y="31.0" width="6.0" height="10.0" fill="#ffd966"/><rect x="59.0" y="31.0" width="6.0" height="10.0" fill="#ffd966"/><rect x="65.0" y="31.0" width="6.0" height="10.0" fill="#ffd966"/><rect x="71.0" y="31.0" width="6.0" height="10.0" fill="#ffd966"/><rect x="71.0" y="41.0" width="6.0" height="10.0" fill="#ffd966"/><rect x="65.0" y="61.0" width="6.0" height="10.0" fill="#ffd966"/><rect x="59.0" y="61.0" width="6.0" height="10.0" fill="#ffd966"/><rect x="47.0" y="61.0" width="6.0" height="10.0" fill="#ffd966"/><rect x="41.0" y="61.0" width="6.0" height="10.0" fill="#ffd966"/><rect x="29.0" y="61.0" width="6.0" height="10.0" fill="#ffd966"/><rect x="17.0" y="41.0" width="6.0" height="10.0" fill="#ffd966"/><rect x="83.0" y="31.0" width="6.0" height="10.0" fill="#000000"/><rect x="119.0" y="31.0" width="6.0" height="10.0" fill="#000000"/><rect x="131.0" y="61.0" width="6.0" height="10.0" fill="#000000"/><rect x="125.0" y="61.0" width="6.0" height="10.0" fill="#000000"/><rect x="113.0" y="61.0" width="6.0" height="10.0" fill="#000000"/><rect x="89.0" y="61.0" width="6.0" height="10.0" fill="#000000"/><rect x="83.0" y="61.0" width="6.0" height="10.0" fill="#000000"/><rect x="77.0" y="41.0" width="6.0" height="10.0" fill="#000000"/><rect x="143.0" y="31.0" width="6.0" height="10.0" fill="#ffffff"/><rect x="149.0" y="31.0" width="6.0" height="10.0" fill="#ffffff"/><rect x="155.0" y="31.0" width="6.0" height="10.0" fill="#ffffff"/><rect x="191.0" y="41.0" width="6.0" height="10.0" fill="#ffffff"/><rect x="179.0" y="61.0" width="6.0" height="10.0" fill="#ffffff"/><rect x="173.0" y="61.0" width="6.0" height="10.0" fill="#ffffff"/><rect x="167.0" y="61.0" width="6.0" height="10.0" fill="#ffffff"/><rect x="161.0" y="61.0" width="6.0" height="10.0" fill="#ffffff"/><rect x="155.0" y="61.0" width="6.0" height="10.0" fill="#ffffff"/><rect x="143.0" y="61.0" width="6.0" height="10.0" fill="#ffffff"/><rect x="203.0" y="31.0" width="6.0" height="10.0" fill="#2f3fbf"/><rect x="209.0" y="31.0" width="6.0" height="10.0" fill="#2f3fbf"/><rect x="221.0" y="31.0" width="6.0" height="10.0" fill="#2f3fbf"/><rect x="227.0" y="31.0" width="6.0" height="10.0" fill="#2f3fbf"/><rect x="245.0" y="31.0" width="6.0" height="10.0" fill="#2f3fbf"/><rect x="251.0" y="31.0" width="6.0" height="10.0" fill="#2f3fbf"/><rect x="251.0" y="41.0" width="6.0" height="10.0" fill="#2f3fbf"/><rect x="251.0" y="51.0" width="6.0" height="10.0" fill="#2f3fbf"/><rect x="251.0" y="61.0" width="6.0" height="10.0" fill="#2f3fbf"/><rect x="215.0" y="61.0" width="6.0" height="10.0" fill="#2f3fbf"/><rect x="209.0" y="61.0" width="6.0" height="10.0" fill="#2f3fbf"/><rect x="203.0" y="61.0" width="6.0" height="10.0" fill="#2f3fbf"/><rect x="197.0" y="61.0" width="6.0" height="10.0" fill="#2f3fbf"/><rect x="17.0" y="71.0" width="6.0" height="10.0" fill="#2f3fbf"/><rect x="23.0" y="71.0" width="6.0" height="10.0" fill="#2f3fbf"/><rect x="35.0" y="71.0" width="6.0" height="10.0" fill="#2f3fbf"/><rect x="65.0" y="71.0" width="6.0" height="10.0" fill="#2f3fbf"/><rect x="71.0" y="71.0" width="6.0" height="10.0" fill="#2f3fbf"/><rect x="71.0" y="81.0" width="6.0" height="10.0" fill="#2f3fbf"/><rect x="71.0" y="101.0" width="6.0" height="10.0" fill="#2f3fbf"/><rect x="29.0" y="101.0" width="6.0" height="10.0" fill="#2f3fbf"/><rect x="17.0" y="101.0" width="6.0" height="10.0" fill="#2f3fbf"/><rect x="17.0" y="81.0" width="6.0" height="10.0" fill="#2f3fbf"/><rect x="77.0" y="71.0" width="6.0" height="10.0" fill="#ffd966"/><rect x="89.0" y="71.0" width="6.0" height="10.0" fill="#ffd966"/><rect x="125.0" y="71.0" width="6.0" height="10.0" fill="#ffd966"/><rect x="131.0" y="81.0" width="6.0" height="10.0" fill="#ffd966"/><rect x="113.0" y="101.0" width="6.0" height="10.0" fill="#ffd966"/><rect x="107.0" y="101.0" width="6.0" height="10.0" fill="#ffd966"/><rect x="83.0" y="101.0" width="6.0" height="10.0" fill="#ffd966"/><rect x="77.0" y="91.0" width="6.0" height="10.0" fill="#ffd966"/><rect x="149.0" y="71.0" width="6.0" height="10.0" fill="#000000"/><rect x="173.0" y="71.0" width="6.0" height="10.0" fill="#000000"/><rect x="185.0" y="71.0" width="6.0" height="10.0" fill="#000000"/><rect x="191.0" y="71.0" width="6.0" height="10.0" fill="#000000"/><rect x="191.0" y="101.0" width="6.0" height="10.0" fill="#000000"/><rect x="149.0" y="101.0" width="6.0" height="10.0" fill="#000000"/><rect x="137.0" y="91.0" width="6.0" height="10.0" fill="#000000"/><rect x="209.0" y="71.0" width="6.0" height="10.0" fill="#ffffff"/><rect x="221.0" y="71.0" width="6.0" height="10.0" fill="#ffffff"/><rect x="227.0" y="71.0" width="6.0" height="10.0" fill="#ffffff"/><rect x="233.0" y="71.0" width="6.0" height="10.0" fill="#ffffff"/><rect x="245.0" y="71.0" width="6.0" height="10.0" fill="#ffffff"/><rect x="251.0" y="71.0" width="6.0" height="10.0" fill="#ffffff"/><rect x="251.0" y="81.0" width="6.0" height="10.0" fill="#ffffff"/><rect x="251.0" y="101.0" width="6.0" height="10.0" fill="#ffffff"/><rect x="245.0" y="101.0" width="6.0" height="10.0" fill="#ffffff"/><rect x="233.0" y="101.0" width="6.0" height="10.0" fill="#ffffff"/><rect x="221.0" y="101.0" width="6.0" height="10.0" fill="#ffffff"/><rect x="215.0" y="101.0" width="6.0" height="10.0" fill="#ffffff"/><rect x="197.0" y="101.0" width="6.0" height="10.0" fill="#ffffff"/><rect x="197.0" y="91.0" width="6.0" height="10.0" fill="#ffffff"/><rect x="197.0" y="81.0" width="6.0" height="10.0" fill="#ffffff"/><rect x="77.0" y="111.0" width="6.0" height="10.0" fill="#ffd966"/><rect x="101.0" y="111.0" width="6.0" height="10.0" fill="#ffd966"/><rect x="107.0" y="111.0" width="6.0" height="10.0" fill="#ffd966"/><rect x="119.0" y="111.0" width="6.0" height="10.0" fill="#ffd966"/><rect x="125.0" y="111.0" width="6.0" height="10.0" fill="#ffd966"/><rect x="131.0" y="121.0" width="6.0" height="10.0" fill="#ffd966"/><rect x="131.0" y="131.0" width="6.0" height="10.0" fill="#ffd966"/><rect x="131.0" y="141.0" width="6.0" height="10.0" fill="#ffd966"/><rect x="119.0" y="141.0" width="6.0" height="10.0" fill="#ffd966"/><rect x="107.0" y="141.0" width="6.0" height="10.0" fill="#ffd966"/><rect x="95.0" y="141.0" width="6.0" height="10.0" fill="#ffd966"/><rect x="89.0" y="141.0" width="6.0" height="10.0" fill="#ffd966"/><rect x="77.0" y="131.0" width="6.0" height="10.0" fill="#ffd966"/><rect x="137.0" y="111.0" width="6.0" height="10.0" fill="#2f3fbf"/><rect x="143.0" y="111.0" width="6.0" height="10.0" fill="#2f3fbf"/><rect x="149.0" y="111.0" width="6.0" height="10.0" fill="#2f3fbf"/><rect x="155.0" y="111.0" width="6.0" height="10.0" fill="#2f3fbf"/><rect x="167.0" y="111.0" width="6.0" height="10.0" fill="#2f3fbf"/><rect x="173.0" y="111.0" width="6.0" height="10.0" fill="#2f3fbf"/><rect x="179.0" y="111.0" width="6.0" height="10.0" fill="#2f3fbf"/><rect x="185.0" y="111.0" width="6.0" height="10.0" fill="#2f3fbf"/><rect x="191.0" y="121.0" width="6.0" height="10.0" fill="#2f3fbf"/><rect x="191.0" y="131.0" width="6.0" height="10.0" fill="#2f3fbf"/><rect x="185.0" y="141.0" width="6.0" height="10.0" fill="#2f3fbf"/><rect x="179.0" y="141.0" width="6.0" height="10.0" fill="#2f3fbf"/><rect x="173.0" y="141.0" width="6.0" height="10.0" fill="#2f3fbf"/><rect x="167.0" y="141.0" width="6.0" height="10.0" fill="#2f3fbf"/><rect x="155.0" y="141.0" width="6.0" height="10.0" fill="#2f3fbf"/><rect x="137.0" y="141.0" width="6.0" height="10.0" fill="#2f3fbf"/><rect x="137.0" y="131.0" width="6.0" height="10.0" fill="#2f3fbf"/><rect x="137.0" y="121.0" width="6.0" height="10.0" fill="#2f3fbf"/><rect x="209.0" y="111.0" width="6.0" height="10.0" fill="#ffd966"/><rect x="215.0" y="111.0" width="6.0" height="10.0" fill="#ffd966"/><rect x="221.0" y="111.0" width="6.0" height="10.0" fill="#ffd966"/><rect x="227.0" y="111.0" width="6.0" height="10.0" fill="#ffd966"/><rect x="251.0" y="111.0" width="6.0" height="10.0" fill="#ffd966"/><rect x="245.0" y="141.0" width="6.0" height="10.0" fill="#ffd966"/><rect x="233.0" y="141.0" width="6.0" height="10.0" fill="#ffd966"/><rect x="227.0" y="141.0" width="6.0" height="10.0" fill="#ffd966"/><rect x="221.0" y="141.0" width="6.0" height="10.0" fill="#ffd966"/><rect x="197.0" y="141.0" width="6.0" height="10.0" fill="#ffd966"/><rect x="17.0" y="151.0" width="6.0" height="10.0" fill="#2f3fbf"/><rect x="35.0" y="151.0" width="6.0" height="10.0" fill="#2f3fbf"/><rect x="47.0" y="151.0" width="6.0" height="10.0" fill="#2f3fbf"/><rect x="65.0" y="151.0" width="6.0" height="10.0" fill="#2f3fbf"/><rect x="71.0" y="151.0" width="6.0" height="10.0" fill="#2f3fbf"/><rect x="71.0" y="161.0" width="6.0" height="10.0" fill="#2f3fbf"/><rect x="71.0" y="181.0" width="6.0" height="10.0" fill="#2f3fbf"/><rect x="59.0" y="181.0" width="6.0" height="10.0" fill="#2f3fbf"/><rect x="53.0" y="181.0" width="6.0" height="10.0" fill="#2f3fbf"/><rect x="35.0" y="181.0" width="6.0" height="10.0" fill="#2f3fbf"/><rect x="29.0" y="181.0" width="6.0" height="10.0" fill="#2f3fbf"/><rect x="23.0" y="181.0" width="6.0" height="10.0" fill="#2f3fbf"/><rect x="17.0" y="171.0" width="6.0" height="10.0" fill="#2f3fbf"/><rect x="137.0" y="151.0" width="6.0" height="10.0" fill="#ffd966"/><rect x="167.0" y="151.0" width="6.0" height="10.0" fill="#ffd966"/><rect x="173.0" y="151.0" width="6.0" height="10.0" fill="#ffd966"/><rect x="185.0" y="151.0" width="6.0" height="10.0" fill="#ffd966"/><rect x="191.0" y="171.0" width="6.0" height="10.0" fill="#ffd966"/><rect x="191.0" y="181.0" width="6.0" height="10.0" fill="#ffd966"/><rect x="167.0" y="181.0" width="6.0" height="10.0" fill="#ffd966"/><rect x="155.0" y="181.0" width="6.0" height="10.0" fill="#ffd966"/><rect x="149.0" y="181.0" width="6.0" height="10.0" fill="#ffd966"/><rect x="143.0" y="181.0" width="6.0" height="10.0" fill="#ffd966"/><rect x="137.0" y="161.0" width="6.0" height="10.0" fill="#ffd966"/><rect x="197.0" y="151.0" width="6.0" height="10.0" fill="#2f3fbf"/><rect x="233.0" y="151.0" width="6.0" height="10.0" fill="#2f3fbf"/><rect x="239.0" y="151.0" width="6.0" height="10.0" fill="#2f3fbf"/><rect x="251.0" y="161.0" width="6.0" height="10.0" fill="#2f3fbf"/><rect x="245.0" y="181.0" width="6.0" height="10.0" fill="#2f3fbf"/><rect x="209.0" y="181.0" width="6.0" height="10.0" fill="#2f3fbf"/><rect x="203.0" y="181.0" width="6.0" height="10.0" fill="#2f3fbf"/><rect x="197.0" y="171.0" width="6.0" height="10.0" fill="#2f3fbf"/><rect x="197.0" y="161.0" width="6.0" height="10.0" fill="#2f3fbf"/><rect x="17.0" y="191.0" width="6.0" height="10.0" fill="#ffd966"/><rect x="23.0" y="191.0" width="6.0" height="10.0" fill="#ffd966"/><rect x="47.0" y="191.0" width="6.0" height="10.0" fill="#ffd966"/><rect x="59.0" y="191.0" width="6.0" height="10.0" fill="#ffd966"/><rect x="71.0" y="211.0" width="6.0" height="10.0" fill="#ffd966"/><rect x="71.0" y="221.0" width="6.0" height="10.0" fill="#ffd966"/><rect x="59.0" y="221.0" width="6.0" height="10.0" fill="#ffd966"/><rect x="53.0" y="221.0" width="6.0" height="10.0" fill="#ffd966"/><rect x="35.0" y="221.0" width="6.0" height="10.0" fill="#ffd966"/><rect x="17.0" y="221.0" width="6.0" height="10.0" fill="#ffd966"/><rect x="17.0" y="201.0" width="6.0" height="10.0" fill="#ffd966"/><rect x="77.0" y="191.0" width="6.0" height="10.0" fill="#2f3fbf"/><rect x="89.0" y="191.0" width="6.0" height="10.0" fill="#2f3fbf"/><rect x="107.0" y="191.0" width="6.0" height="10.0" fill="#2f3fbf"/><rect x="131.0" y="191.0" width="6.0" height="10.0" fill="#2f3fbf"/><rect x="131.0" y="211.0" width="6.0" height="10.0" fill="#2f3fbf"/><rect x="131.0" y="221.0" width="6.0" height="10.0" fill="#2f3fbf"/><rect x="125.0" y="221.0" width="6.0" height="10.0" fill="#2f3fbf"/><rect x="101.0" y="221.0" width="6.0" height="10.0" fill="#2f3fbf"/><rect x="95.0" y="221.0" width="6.0" height="10.0" fill="#2f3fbf"/><rect x="89.0" y="221.0" width="6.0" height="10.0" fill="#2f3fbf"/><rect x="77.0" y="221.0" width="6.0" height="10.0" fill="#2f3fbf"/><rect x="77.0" y="211.0" width="6.0" height="10.0" fill="#2f3fbf"/><rect x="143.0" y="191.0" width="6.0" height="10.0" fill="#ffd966"/><rect x="161.0" y="191.0" width="6.0" height="10.0" fill="#ffd966"/><rect x="167.0" y="191.0" width="6.0" height="10.0" fill="#ffd966"/><rect x="185.0" y="191.0" width="6.0" height="10.0" fill="#ffd966"/><rect x="191.0" y="191.0" width="6.0" height="10.0" fill="#ffd966"/><rect x="191.0" y="201.0" width="6.0" height="10.0" fill="#ffd966"/><rect x="191.0" y="211.0" width="6.0" height="10.0" fill="#ffd966"/><rect x="173.0" y="221.0" width="6.0" height="10.0" fill="#ffd966"/><rect x="161.0" y="221.0" width="6.0" height="10.0" fill="#ffd966"/><rect x="143.0" y="221.0" width="6.0" height="10.0" fill="#ffd966"/><rect x="137.0" y="211.0" width="6.0" height="10.0" fill="#ffd966"/><rect x="137.0" y="201.0" width="6.0" height="10.0" fill="#ffd966"/><rect x="197.0" y="191.0" width="6.0" height="10.0" fill="#2f3fbf"/><rect x="203.0" y="191.0" width="6.0" height="10.0" fill="#2f3fbf"/><rect x="209.0" y="191.0" width="6.0" height="10.0" fill="#2f3fbf"/><rect x="215.0" y="191.0" width="6.0" height="10.0" fill="#2f3fbf"/><rect x="233.0" y="191.0" width="6.0" height="10.0" fill="#2f3fbf"/><rect x="251.0" y="211.0" width="6.0" height="10.0" fill="#2f3fbf"/><rect x="251.0" y="221.0" width="6.0" height="10.0" fill="#2f3fbf"/><rect x="245.0" y="221.0" width="6.0" height="10.0" fill="#2f3fbf"/><rect x="215.0" y="221.0" width="6.0" height="10.0" fill="#2f3fbf"/><rect x="197.0" y="211.0" width="6.0" height="10.0" fill="#2f3fbf"/><rect x="197.0" y="201.0" width="6.0" height="10.0" fill="#2f3fbf"/><rect x="17.0" y="231.0" width="6.0" height="10.0" fill="#ffd966"/><rect x="23.0" y="231.0" width="6.0" height="10.0" fill="#ffd966"/><rect x="29.0" y="231.0" width="6.0" height="10.0" fill="#ffd966"/><rect x="41.0" y="231.0" width="6.0" height="10.0" fill="#ffd966"/><rect x="47.0" y="231.0" width="6.0" height="10.0" fill="#ffd966"/><rect x="59.0" y="231.0" width="6.0" height="10.0" fill="#ffd966"/><rect x="53.0" y="261.0" width="6.0" height="10.0" fill="#ffd966"/><rect x="47.0" y="261.0" width="6.0" height="10.0" fill="#ffd966"/><rect x="41.0" y="261.0" width="6.0" height="10.0" fill="#ffd966"/><rect x="35.0" y="261.0" width="6.0" height="10.0" fill="#ffd966"/><rect x="17.0" y="251.0" width="6.0" height="10.0" fill="#ffd966"/><rect x="83.0" y="231.0" width="6.0" height="10.0" fill="#2f3fbf"/><rect x="95.0" y="231.0" width="6.0" height="10.0" fill="#2f3fbf"/><rect x="101.0" y="231.0" width="6.0" height="10.0" fill="#2f3fbf"/><rect x="113.0" y="231.0" width="6.0" height="10.0" fill="#2f3fbf"/><rect x="119.0" y="231.0" width="6.0" height="10.0" fill="#2f3fbf"/><rect x="125.0" y="231.0" width="6.0" height="10.0" fill="#2f3fbf"/><rect x="131.0" y="261.0" width="6.0" height="10.0" fill="#2f3fbf"/><rect x="107.0" y="261.0" width="6.0" height="10.0" fill="#2f3fbf"/><rect x="101.0" y="261.0" width="6.0" height="10.0" fill="#2f3fbf"/><rect x="89.0" y="261.0" width="6.0" height="10.0" fill="#2f3fbf"/><rect x="77.0" y="251.0" width="6.0" height="10.0" fill="#2f3fbf"/></g><g clip-path="url(#grid-clip-8b678698b08217c4-4x6)" data-channel="ellipse" data-ellipse-anchor-x="197.0" data-ellipse-anchor-y="71.0" data-ellipse-rx="130.1719898354529" data-ellipse-ry="51.27149872943161" data-ellipse-rotation-deg="108.0"><ellipse cx="197.0" cy="71.0" rx="130.1719898354529" ry="51.27149872943161" transform="rotate(108.0 197.0 71.0)" fill="#000000" fill-opacity="0.4"/></g><g><g data-channel="cell" data-cell-index="0" data-cell-row="0" data-cell-col="0"><rect x="23.0" y="41.0" width="48.0" height="20.0" fill="#81d404"/><text x="47.0" y="51.0" fill="#000000" style="font-family: &quot;DejaVu Sans Mono&quot;, &quot;Consolas&quot;, &quot;Menlo&quot;, &quot;Liberation Mono&quot;, monospace; font-size: 16.0px;" text-anchor="middle" dominant-baseline="central">BNSB</text></g><g data-channel="cell" data-cell-index="1" data-cell-row="0" data-cell-col="1" data-cell-quartile="2"><rect x="83.0" y="41.0" width="48.0" height="20.0" fill="#1d4303"/><text x="107.0" y="51.0" fill="#ffffff" style="font-family: &quot;DejaVu Sans Mono&quot;, &quot;Consolas&quot;, &quot;Menlo&quot;, &quot;Liberation Mono&quot;, monospace; font-size: 16.0px;" text-anchor="middle" dominant-baseline="central">A0Md</text><polygon points="131.0,41.0 121.0,41.0 131.0,51.0" fill="#ffffff"/></g><g data-channel="cell" data-cell-index="2" data-cell-row="0" data-cell-col="2" data-cell-quartile="3"><rect x="143.0" y="41.0" width="48.0" height="20.0" fill="#c2cff4"/><text x="167.0" y="51.0" fill="#000000" style="font-family: &quot;DejaVu Sans Mono&quot;, &quot;Consolas&quot;, &quot;Menlo&quot;, &quot;Liberation Mono&quot;, monospace; font-size: 16.0px;" text-anchor="middle" dominant-baseline="central">9M/C</text><polygon points="191.0,61.0 191.0,51.0 181.0,61.0" fill="#000000"/></g><g data-channel="cell" data-cell-index="3" data-cell-row="0" data-cell-col="3"><rect x="203.0" y="41.0" width="48.0" height="20.0" fill="#099dc2"/><text x="227.0" y="51.0" fill="#000000" style="font-family: &quot;DejaVu Sans Mono&quot;, &quot;Consolas&quot;, &quot;Menlo&quot;, &quot;Liberation Mono&quot;, monospace; font-size: 16.0px;" text-anchor="middle" dominant-baseline="central">wp0J</text></g><g data-channel="cell" data-cell-index="4" data-cell-row="1" data-cell-col="0"><rect x="23.0" y="81.0" width="48.0" height="20.0" fill="#6f64df"/><text x="47.0" y="91.0" fill="#ffffff" style="font-family: &quot;DejaVu Sans Mono&quot;, &quot;Consolas&quot;, &quot;Menlo&quot;, &quot;Liberation Mono&quot;, monospace; font-size: 16.0px;" text-anchor="middle" dominant-baseline="central">32Rv</text></g><g data-channel="cell" data-cell-index="5" data-cell-row="1" data-cell-col="1"><rect x="83.0" y="81.0" width="48.0" height="20.0" fill="#a2f693"/><text x="107.0" y="91.0" fill="#000000" style="font-family: &quot;DejaVu Sans Mono&quot;, &quot;Consolas&quot;, &quot;Menlo&quot;, &quot;Liberation Mono&quot;, monospace; font-size: 16.0px;" text-anchor="middle" dominant-baseline="central">k/ai</text></g><g data-channel="cell" data-cell-index="6" data-cell-row="1" data-cell-col="2"><rect x="143.0" y="81.0" width="48.0" height="20.0" fill="#3b5c12"/><text x="167.0" y="91.0" fill="#ffffff" style="font-family: &quot;DejaVu Sans Mono&quot;, &quot;Consolas&quot;, &quot;Menlo&quot;, &quot;Liberation Mono&quot;, monospace; font-size: 16.0px;" text-anchor="middle" dominant-baseline="central">Elw7</text></g><g data-channel="cell" data-cell-index="7" data-cell-row="1" data-cell-col="3" data-cell-quartile="1"><rect x="203.0" y="81.0" width="48.0" height="20.0" fill="#a5deee"/><text x="227.0" y="91.0" fill="#000000" style="font-family: &quot;DejaVu Sans Mono&quot;, &quot;Consolas&quot;, &quot;Menlo&quot;, &quot;Liberation Mono&quot;, monospace; font-size: 16.0px;" text-anchor="middle" dominant-baseline="central">7t6l</text><polygon points="203.0,81.0 213.0,81.0 203.0,91.0" fill="#000000"/></g><g data-channel="cell" data-cell-index="8" data-cell-row="2" data-cell-col="0" data-cell-blank="true" data-cell-blank-marker="true"><circle cx="47.0" cy="131.0" r="17.0" fill="#ffffff" stroke="#000000" stroke-width="1"/><line x1="47.0" y1="131.0" x2="64.57136708331115" y2="127.09525175926419" stroke="#ffffff" style="mix-blend-mode: difference" stroke-width="1"/><line x1="47.0" y1="131.0" x2="54.07242750187167" y2="126.28504833208555" stroke="#000000" stroke-width="1"/><circle cx="54.07242750187167" cy="126.28504833208555" r="1.5" fill="#ffffff" stroke="#000000" stroke-width="1"/></g><g data-channel="cell" data-cell-index="9" data-cell-row="2" data-cell-col="1"><rect x="83.0" y="121.0" width="48.0" height="20.0" fill="#a2f693"/><text x="107.0" y="131.0" fill="#000000" style="font-family: &quot;DejaVu Sans Mono&quot;, &quot;Consolas&quot;, &quot;Menlo&quot;, &quot;Liberation Mono&quot;, monospace; font-size: 16.0px;" text-anchor="middle" dominant-baseline="central">k/ai</text></g><g data-channel="cell" data-cell-index="10" data-cell-row="2" data-cell-col="2"><rect x="143.0" y="121.0" width="48.0" height="20.0" fill="#1b84f5"/><text x="167.0" y="131.0" fill="#000000" style="font-family: &quot;DejaVu Sans Mono&quot;, &quot;Consolas&quot;, &quot;Menlo&quot;, &quot;Liberation Mono&quot;, monospace; font-size: 16.0px;" text-anchor="middle" dominant-baseline="central">9YQb</text></g><g data-channel="cell" data-cell-index="11" data-cell-row="2" data-cell-col="3"><rect x="203.0" y="121.0" width="48.0" height="20.0" fill="#df833f"/><text x="227.0" y="131.0" fill="#000000" style="font-family: &quot;DejaVu Sans Mono&quot;, &quot;Consolas&quot;, &quot;Menlo&quot;, &quot;Liberation Mono&quot;, monospace; font-size: 16.0px;" text-anchor="middle" dominant-baseline="central">P4Pf</text></g><g data-channel="cell" data-cell-index="12" data-cell-row="3" data-cell-col="0"><rect x="23.0" y="161.0" width="48.0" height="20.0" fill="#2bab7e"/><text x="47.0" y="171.0" fill="#000000" style="font-family: &quot;DejaVu Sans Mono&quot;, &quot;Consolas&quot;, &quot;Menlo&quot;, &quot;Liberation Mono&quot;, monospace; font-size: 16.0px;" text-anchor="middle" dominant-baseline="central">fqsr</text></g><g data-channel="cell" data-cell-index="13" data-cell-row="3" data-cell-col="1" data-cell-blank="true" data-cell-blank-marker="true"><circle cx="107.0" cy="171.0" r="17.0" fill="#ffffff" stroke="#000000" stroke-width="1"/><line x1="107.0" y1="171.0" x2="121.97690529808119" y2="161.0153964679459" stroke="#ffffff" style="mix-blend-mode: difference" stroke-width="1"/><line x1="107.0" y1="171.0" x2="110.80131556174965" y2="163.3973688765007" stroke="#000000" stroke-width="1"/><circle cx="110.80131556174965" cy="163.3973688765007" r="1.5" fill="#ffffff" stroke="#000000" stroke-width="1"/></g><g data-channel="cell" data-cell-index="14" data-cell-row="3" data-cell-col="2"><rect x="143.0" y="161.0" width="48.0" height="20.0" fill="#fafa22"/><text x="167.0" y="171.0" fill="#000000" style="font-family: &quot;DejaVu Sans Mono&quot;, &quot;Consolas&quot;, &quot;Menlo&quot;, &quot;Liberation Mono&quot;, monospace; font-size: 16.0px;" text-anchor="middle" dominant-baseline="central">Ivr6</text></g><g data-channel="cell" data-cell-index="15" data-cell-row="3" data-cell-col="3"><rect x="203.0" y="161.0" width="48.0" height="20.0" fill="#514772"/><text x="227.0" y="171.0" fill="#ffffff" style="font-family: &quot;DejaVu Sans Mono&quot;, &quot;Consolas&quot;, &quot;Menlo&quot;, &quot;Liberation Mono&quot;, monospace; font-size: 16.0px;" text-anchor="middle" dominant-baseline="central">ckdR</text></g><g data-channel="cell" data-cell-index="16" data-cell-row="4" data-cell-col="0"><rect x="23.0" y="201.0" width="48.0" height="20.0" fill="#4dce9a"/><text x="47.0" y="211.0" fill="#000000" style="font-family: &quot;DejaVu Sans Mono&quot;, &quot;Consolas&quot;, &quot;Menlo&quot;, &quot;Liberation Mono&quot;, monospace; font-size: 16.0px;" text-anchor="middle" dominant-baseline="central">ms5N</text></g><g data-channel="cell" data-cell-index="17" data-cell-row="4" data-cell-col="1" data-cell-quartile="4"><rect x="83.0" y="201.0" width="48.0" height="20.0" fill="#7f1af0"/><text x="107.0" y="211.0" fill="#ffffff" style="font-family: &quot;DejaVu Sans Mono&quot;, &quot;Consolas&quot;, &quot;Menlo&quot;, &quot;Liberation Mono&quot;, monospace; font-size: 16.0px;" text-anchor="middle" dominant-baseline="central">8Bp/</text><polygon points="83.0,221.0 83.0,211.0 93.0,221.0" fill="#ffffff"/></g><g data-channel="cell" data-cell-index="18" data-cell-row="4" data-cell-col="2"><rect x="143.0" y="201.0" width="48.0" height="20.0" fill="#a0fb92"/><text x="167.0" y="211.0" fill="#000000" style="font-family: &quot;DejaVu Sans Mono&quot;, &quot;Consolas&quot;, &quot;Menlo&quot;, &quot;Liberation Mono&quot;, monospace; font-size: 16.0px;" text-anchor="middle" dominant-baseline="central">kvug</text></g><g data-channel="cell" data-cell-index="19" data-cell-row="4" data-cell-col="3"><rect x="203.0" y="201.0" width="48.0" height="20.0" fill="#2020fe"/><text x="227.0" y="211.0" fill="#ffffff" style="font-family: &quot;DejaVu Sans Mono&quot;, &quot;Consolas&quot;, &quot;Menlo&quot;, &quot;Liberation Mono&quot;, monospace; font-size: 16.0px;" text-anchor="middle" dominant-baseline="central">/iAg</text></g><g data-channel="cell" data-cell-index="20" data-cell-row="5" data-cell-col="0"><rect x="23.0" y="241.0" width="48.0" height="20.0" fill="#8aa35f"/><text x="47.0" y="251.0" fill="#000000" style="font-family: &quot;DejaVu Sans Mono&quot;, &quot;Consolas&quot;, &quot;Menlo&quot;, &quot;Liberation Mono&quot;, monospace; font-size: 16.0px;" text-anchor="middle" dominant-baseline="central">X6OK</text></g><g data-channel="cell" data-cell-index="21" data-cell-row="5" data-cell-col="1"><rect x="83.0" y="241.0" width="48.0" height="20.0" fill="#00d1e7"/><text x="107.0" y="251.0" fill="#000000" style="font-family: &quot;DejaVu Sans Mono&quot;, &quot;Consolas&quot;, &quot;Menlo&quot;, &quot;Liberation Mono&quot;, monospace; font-size: 16.0px;" text-anchor="middle" dominant-baseline="central">59E=</text></g><g data-channel="cell" data-cell-index="22" data-cell-row="5" data-cell-col="2" data-cell-blank="true" data-cell-blank-marker="true"><circle cx="167.0" cy="251.0" r="17.0" fill="#ffffff" stroke="#000000" stroke-width="1"/><line x1="167.0" y1="251.0" x2="173.32022194859104" y2="234.1460748037572" stroke="#ffffff" style="mix-blend-mode: difference" stroke-width="1"/><line x1="167.0" y1="251.0" x2="167.0" y2="242.5" stroke="#000000" stroke-width="1"/><circle cx="167.0" cy="242.5" r="1.5" fill="#ffffff" stroke="#000000" stroke-width="1"/></g><g data-channel="cell" data-cell-index="23" data-cell-row="5" data-cell-col="3" data-cell-blank="true"/></g></g><g data-channel="color-bar"><g data-color-bar-rank="0" data-color-bar-band="W"><rect x="1" y="1" width="10.0" height="118.77954260254502" fill="#ffffff"/><text x="6.0" y="60.38977130127251" fill="#000000" style="font-family: &quot;DejaVu Sans Mono&quot;, &quot;Consolas&quot;, &quot;Menlo&quot;, &quot;Liberation Mono&quot;, monospace; font-size: 8.5px;" text-anchor="middle" dominant-baseline="central" data-color-bar-letter="true">w</text></g><g data-color-bar-rank="1" data-color-bar-band="G"><rect x="1" y="119.77954260254502" width="10.0" height="75.64771351098594" fill="#ffd966"/><text x="6.0" y="157.603399358038" fill="#000000" style="font-family: &quot;DejaVu Sans Mono&quot;, &quot;Consolas&quot;, &quot;Menlo&quot;, &quot;Liberation Mono&quot;, monospace; font-size: 8.5px;" text-anchor="middle" dominant-baseline="central" data-color-bar-letter="true">g</text></g><g data-color-bar-rank="2" data-color-bar-band="B"><rect x="1" y="195.42725611353097" width="10.0" height="48.65210065000244" fill="#2f3fbf"/><text x="6.0" y="219.7533064385322" fill="#ffffff" style="font-family: &quot;DejaVu Sans Mono&quot;, &quot;Consolas&quot;, &quot;Menlo&quot;, &quot;Liberation Mono&quot;, monospace; font-size: 8.5px;" text-anchor="middle" dominant-baseline="central" data-color-bar-letter="true">b</text></g><g data-color-bar-rank="3" data-color-bar-band="K"><rect x="1" y="244.0793567635334" width="10.0" height="31.92064323646659" fill="#000000"/><text x="6.0" y="260.0396783817667" fill="#ffffff" style="font-family: &quot;DejaVu Sans Mono&quot;, &quot;Consolas&quot;, &quot;Menlo&quot;, &quot;Liberation Mono&quot;, monospace; font-size: 8.5px;" text-anchor="middle" dominant-baseline="central" data-color-bar-letter="true">k</text></g></g><g data-channel="label-top"><text x="17.0" y="16.0" fill="#a00000" style="font-family: &quot;DejaVu Sans Mono&quot;, &quot;Consolas&quot;, &quot;Menlo&quot;, &quot;Liberation Mono&quot;, monospace; font-size: 12.0px;" dominant-baseline="central" font-weight="bold">part of </text><text x="74.6" y="16.0" fill="#666666" style="font-family: &quot;DejaVu Sans Mono&quot;, &quot;Consolas&quot;, &quot;Menlo&quot;, &quot;Liberation Mono&quot;, monospace; font-size: 12.0px;" dominant-baseline="central">SSH ecdsa-nistp256 pubkey: AAAAE2VjZHNhLXNoYTItbmlzdHAyNTYAAAAIbmlzdHAyNTYAAABB...</text></g><line x1="0" y1="0.5" x2="263.0" y2="0.5" stroke="#808080" stroke-width="1" shape-rendering="crispEdges"/><line x1="262.5" y1="0" x2="262.5" y2="277.0" stroke="#808080" stroke-width="1" shape-rendering="crispEdges"/><line x1="0" y1="276.5" x2="263.0" y2="276.5" stroke="#808080" stroke-width="1" shape-rendering="crispEdges"/><line x1="0.5" y1="0" x2="0.5" y2="277.0" stroke="#808080" stroke-width="1" shape-rendering="crispEdges"/><line x1="11.5" y1="0" x2="11.5" y2="277.0" stroke="#808080" stroke-width="1" shape-rendering="crispEdges"/></svg>