<svg width="215" height="174" viewBox="0 0 215 174" xmlns="http://www.w3.org/2000/svg" font-family="&quot;JetBrains Mono&quot;, &quot;Menlo&quot;, &quot;Consolas&quot;, &quot;DejaVu Sans Mono&quot;, &quot;Liberation Mono&quot;, &quot;Roboto Mono&quot;, &quot;Noto Sans Mono&quot;, monospace" data-entviz-version="v17" data-entviz-lib="0.17.1" data-input-bytes="45" data-cols="3" data-rows="3" data-encoding="bech32" data-scheme="bech32" data-role="address" data-size-basis="decoded" data-entropy-type="bech32" data-size-bits="160" data-qualifiers="{&quot;hrp&quot;:&quot;cosmos&quot;}" data-parts="[{&quot;text&quot;:&quot;cosmos1&quot;,&quot;bind&quot;:&quot;fold&quot;},{&quot;text&quot;:&quot;qqqsyqcyq5rqwzqfpg9scrgwpugpzysn&quot;,&quot;bind&quot;:&quot;core&quot;},{&quot;text&quot;:&quot;rk363e&quot;,&quot;bind&quot;:&quot;none&quot;}]"><defs><clipPath id="grid-clip-c5d07ac71b8cdcc3-3x3"><rect x="28" y="27" width="180" height="120"/></clipPath></defs><rect x="1" y="1" width="213" height="172" fill="#ffffff"/><g data-channel="grid"><rect x="28" y="27" width="180" height="120" fill="#ff3f2f"/><g><path fill="#2f3fbf" d="M34 27h6v10h-6zM46 27h6v10h-6zM52 27h6v10h-6zM58 27h6v10h-6zM64 27h6v10h-6zM82 57h6v10h-6zM70 57h6v10h-6zM64 57h6v10h-6zM58 57h6v10h-6zM46 57h6v10h-6zM28 47h6v10h-6zM28 37h6v10h-6z"/><path fill="#000000" d="M100 27h6v10h-6zM106 27h6v10h-6zM130 27h6v10h-6zM136 27h6v10h-6zM142 27h6v10h-6zM142 47h6v10h-6zM142 57h6v10h-6zM118 57h6v10h-6zM112 57h6v10h-6zM106 57h6v10h-6zM88 47h6v10h-6zM88 37h6v10h-6z"/><path fill="#000000" d="M154 27h6v10h-6zM160 27h6v10h-6zM166 27h6v10h-6zM184 27h6v10h-6zM196 27h6v10h-6zM202 27h6v10h-6zM190 57h6v10h-6zM184 57h6v10h-6zM166 57h6v10h-6zM160 57h6v10h-6zM154 57h6v10h-6zM148 47h6v10h-6zM148 37h6v10h-6z"/><path fill="#000000" d="M28 67h6v10h-6zM34 67h6v10h-6zM70 67h6v10h-6zM82 67h6v10h-6zM58 97h6v10h-6zM52 97h6v10h-6zM34 97h6v10h-6zM28 97h6v10h-6zM28 87h6v10h-6zM28 77h6v10h-6z"/><path fill="#000000" d="M88 67h6v10h-6zM94 67h6v10h-6zM106 67h6v10h-6zM118 67h6v10h-6zM124 67h6v10h-6zM136 67h6v10h-6zM142 77h6v10h-6zM124 97h6v10h-6zM118 97h6v10h-6zM112 97h6v10h-6zM88 87h6v10h-6zM88 77h6v10h-6z"/><path fill="#ffffff" d="M148 67h6v10h-6zM166 67h6v10h-6zM172 67h6v10h-6zM190 67h6v10h-6zM196 67h6v10h-6zM202 67h6v10h-6zM190 97h6v10h-6zM184 97h6v10h-6zM172 97h6v10h-6zM166 97h6v10h-6zM154 97h6v10h-6z"/><path fill="#000000" d="M28 107h6v10h-6zM40 107h6v10h-6zM46 107h6v10h-6zM58 107h6v10h-6zM70 107h6v10h-6zM76 107h6v10h-6zM82 127h6v10h-6zM82 137h6v10h-6zM76 137h6v10h-6zM52 137h6v10h-6zM28 117h6v10h-6z"/><path fill="#2f3fbf" d="M154 107h6v10h-6zM160 107h6v10h-6zM166 107h6v10h-6zM172 107h6v10h-6zM178 107h6v10h-6zM202 107h6v10h-6zM202 127h6v10h-6zM196 137h6v10h-6zM184 137h6v10h-6zM178 137h6v10h-6zM172 137h6v10h-6zM166 137h6v10h-6zM148 127h6v10h-6z"/></g><g clip-path="url(#grid-clip-c5d07ac71b8cdcc3-3x3)" data-channel="ellipse" data-ellipse-anchor-x="28" data-ellipse-anchor-y="67" data-ellipse-rx="85.882" data-ellipse-ry="76.427" data-ellipse-rotation-deg="24"><ellipse cx="28" cy="67" rx="85.882" ry="76.427" transform="rotate(24 28 67)" fill="#000000" stroke="#000000" fill-opacity="0.25" stroke-opacity="0.35" stroke-width="2"/></g><g><g data-channel="cell" data-cell-index="0" data-cell-row="0" data-cell-col="0" data-surround-bits="0xc5d07a" data-edge-color="#2f3fbf"><rect x="34" y="37" width="48" height="20" fill="#000100"/><text x="58" y="47" fill="#ffffff" font-size="16" text-anchor="middle" dominant-baseline="central">qqqs</text></g><g data-channel="cell" data-cell-index="1" data-cell-row="0" data-cell-col="1" data-surround-bits="0xc71b8c" data-edge-color="#000000"><rect x="94" y="37" width="48" height="20" fill="#443020"/><text x="118" y="47" fill="#ffffff" font-size="16" text-anchor="middle" dominant-baseline="central">yqcy</text></g><g data-channel="cell" data-cell-index="2" data-cell-row="0" data-cell-col="2" data-surround-bits="0xdcc34e" data-edge-color="#000000" data-cell-quartile="3"><rect x="154" y="37" width="48" height="20" fill="#000605"/><text x="178" y="47" fill="#ffffff" font-size="16" text-anchor="middle" dominant-baseline="central">q5rq</text><polygon points="202,57 202,47 192,57" fill="#ffffff"/></g><g data-channel="cell" data-cell-index="3" data-cell-row="1" data-cell-col="0" data-surround-bits="0xf30283" data-edge-color="#000000" data-cell-quartile="2"><rect x="34" y="77" width="48" height="20" fill="#998070"/><text x="58" y="87" fill="#000000" font-size="16" text-anchor="middle" dominant-baseline="central">wzqf</text><polygon points="82,77 72,77 82,87" fill="#000000"/></g><g data-channel="cell" data-cell-index="4" data-cell-row="1" data-cell-col="1" data-surround-bits="0xc3856b" data-edge-color="#000000" data-cell-quartile="4"><rect x="94" y="77" width="48" height="20" fill="#000b0a"/><text x="118" y="87" fill="#ffffff" font-size="16" text-anchor="middle" dominant-baseline="central">pg9s</text><polygon points="94,97 94,87 104,97" fill="#ffffff"/></g><g data-channel="cell" data-cell-index="5" data-cell-row="1" data-cell-col="2" data-surround-bits="0x16c399" data-edge-color="#ffffff"><rect x="154" y="77" width="48" height="20" fill="#eed0c0"/><text x="178" y="87" fill="#000000" font-size="16" text-anchor="middle" dominant-baseline="central">crgw</text></g><g data-channel="cell" data-cell-index="6" data-cell-row="2" data-cell-col="0" data-surround-bits="0x8239ad" data-edge-color="#000000"><rect x="34" y="117" width="48" height="20" fill="#11100f"/><text x="58" y="127" fill="#ffffff" font-size="16" text-anchor="middle" dominant-baseline="central">pugp</text></g><g data-channel="cell" data-cell-index="7" data-cell-row="2" data-cell-col="1" data-cell-blank="true" data-cell-blank-map="true"><rect x="94" y="117" width="48" height="20" rx="10" ry="10" fill="#000000" stroke="#000000" stroke-width="1"/><circle cx="134" cy="127" r="3.5" fill="#ffffff" data-blank-map-min="1,2"/><path d="M 97.8,127 H 106.2 M 102,122.8 V 131.2" fill="none" stroke="#ffffff" stroke-width="1.925" stroke-linecap="butt" data-blank-map-max="1,0"/></g><g data-channel="cell" data-cell-index="8" data-cell-row="2" data-cell-col="2" data-surround-bits="0x47aa3e" data-edge-color="#2f3fbf" data-cell-quartile="1"><rect x="154" y="117" width="48" height="20" fill="#332111"/><text x="178" y="127" fill="#ffffff" font-size="16" text-anchor="middle" dominant-baseline="central">zysn</text><polygon points="154,117 164,117 154,127" fill="#ffffff"/></g></g></g><g data-channel="color-bar" data-bar-slots="14" data-bar-marker-left="4" data-bar-marker-right="9"><g data-color-bar-rank="0" data-color-bar-band="G"><rect x="2" y="2" width="20" height="23.97" fill="#e7be00"/><text x="12" y="22.45" fill="#000000" font-size="16" text-anchor="middle" data-color-bar-letter="true">g</text></g><g data-color-bar-rank="1" data-color-bar-band="W"><rect x="2" y="25.97" width="20" height="58.52" fill="#ffffff"/><text x="12" y="80.97" fill="#000000" font-size="16" text-anchor="middle" data-color-bar-letter="true">w</text></g><g data-color-bar-rank="2" data-color-bar-band="K"><rect x="2" y="84.49" width="20" height="49.115" fill="#000000"/><text x="12" y="130.085" fill="#ffffff" font-size="16" text-anchor="middle" data-color-bar-letter="true">k</text></g><g data-color-bar-rank="3" data-color-bar-band="B"><rect x="2" y="133.605" width="20" height="38.395" fill="#2f3fbf"/><text x="12" y="168.48" fill="#ffffff" font-size="16" text-anchor="middle" data-color-bar-letter="true">b</text></g><circle cx="6.6" cy="56.643" r="3.4" fill="#ffffff" stroke="#000000" stroke-width="0.75" data-bar-marker="left"/><circle cx="17.4" cy="117.357" r="3.4" fill="#ffffff" stroke="#000000" stroke-width="0.75" data-bar-marker="right"/></g><g data-channel="label-top"><text x="28" y="17" fill="#666666" font-size="12" dominant-baseline="central">bech32, cosmos1</text></g><g data-channel="label-bottom"><text x="208" y="157" fill="#666666" font-size="12" text-anchor="end" dominant-baseline="central">...rk363e</text></g><line x1="1" y1="1.5" x2="214" y2="1.5" stroke="#808080" stroke-width="1" shape-rendering="crispEdges"/><line x1="213.5" y1="1" x2="213.5" y2="173" stroke="#808080" stroke-width="1" shape-rendering="crispEdges"/><line x1="1" y1="172.5" x2="214" y2="172.5" stroke="#808080" stroke-width="1" shape-rendering="crispEdges"/><line x1="1.5" y1="1" x2="1.5" y2="173" stroke="#808080" stroke-width="1" shape-rendering="crispEdges"/><line x1="22.5" y1="1" x2="22.5" y2="173" stroke="#808080" stroke-width="1" shape-rendering="crispEdges"/></svg>