<svg width="213.0" height="212.0" viewBox="0 0 213.0 212.0" xmlns="http://www.w3.org/2000/svg" data-entviz-version="v6" data-entviz-lib="0.6.0" data-input-bytes="97" data-cols="3" data-rows="4"><defs><clipPath id="grid-clip-9d0287415e6fa1da-3x4"><rect x="27.0" y="26.0" width="180.0" height="160.0"/></clipPath></defs><rect x="0" y="0" width="213.0" height="212.0" fill="#ffffff"/><g data-channel="grid"><rect x="27.0" y="26.0" width="180.0" height="160.0" fill="#ff3f2f"/><g><rect x="27.0" y="26.0" width="6.0" height="10.0" fill="#000000"/><rect x="33.0" y="26.0" width="6.0" height="10.0" fill="#000000"/><rect x="39.0" y="26.0" width="6.0" height="10.0" fill="#000000"/><rect x="69.0" y="26.0" width="6.0" height="10.0" fill="#000000"/><rect x="81.0" y="26.0" width="6.0" height="10.0" fill="#000000"/><rect x="57.0" y="56.0" width="6.0" height="10.0" fill="#000000"/><rect x="45.0" y="56.0" width="6.0" height="10.0" fill="#000000"/><rect x="39.0" y="56.0" width="6.0" height="10.0" fill="#000000"/><rect x="33.0" y="56.0" width="6.0" height="10.0" fill="#000000"/><rect x="27.0" y="36.0" width="6.0" height="10.0" fill="#000000"/><rect x="87.0" y="26.0" width="6.0" height="10.0" fill="#2f3fbf"/><rect x="93.0" y="26.0" width="6.0" height="10.0" fill="#2f3fbf"/><rect x="99.0" y="26.0" width="6.0" height="10.0" fill="#2f3fbf"/><rect x="105.0" y="26.0" width="6.0" height="10.0" fill="#2f3fbf"/><rect x="117.0" y="26.0" width="6.0" height="10.0" fill="#2f3fbf"/><rect x="123.0" y="26.0" width="6.0" height="10.0" fill="#2f3fbf"/><rect x="141.0" y="26.0" width="6.0" height="10.0" fill="#2f3fbf"/><rect x="141.0" y="36.0" width="6.0" height="10.0" fill="#2f3fbf"/><rect x="141.0" y="46.0" width="6.0" height="10.0" fill="#2f3fbf"/><rect x="141.0" y="56.0" width="6.0" height="10.0" fill="#2f3fbf"/><rect x="129.0" y="56.0" width="6.0" height="10.0" fill="#2f3fbf"/><rect x="117.0" y="56.0" width="6.0" height="10.0" fill="#2f3fbf"/><rect x="87.0" y="46.0" width="6.0" height="10.0" fill="#2f3fbf"/><rect x="147.0" y="26.0" width="6.0" height="10.0" fill="#e7be00"/><rect x="153.0" y="26.0" width="6.0" height="10.0" fill="#e7be00"/><rect x="171.0" y="26.0" width="6.0" height="10.0" fill="#e7be00"/><rect x="189.0" y="26.0" width="6.0" height="10.0" fill="#e7be00"/><rect x="201.0" y="26.0" width="6.0" height="10.0" fill="#e7be00"/><rect x="201.0" y="46.0" width="6.0" height="10.0" fill="#e7be00"/><rect x="201.0" y="56.0" width="6.0" height="10.0" fill="#e7be00"/><rect x="189.0" y="56.0" width="6.0" height="10.0" fill="#e7be00"/><rect x="183.0" y="56.0" width="6.0" height="10.0" fill="#e7be00"/><rect x="177.0" y="56.0" width="6.0" height="10.0" fill="#e7be00"/><rect x="147.0" y="56.0" width="6.0" height="10.0" fill="#e7be00"/><rect x="147.0" y="36.0" width="6.0" height="10.0" fill="#e7be00"/><rect x="39.0" y="66.0" width="6.0" height="10.0" fill="#2f3fbf"/><rect x="57.0" y="66.0" width="6.0" height="10.0" fill="#2f3fbf"/><rect x="63.0" y="66.0" width="6.0" height="10.0" fill="#2f3fbf"/><rect x="69.0" y="66.0" width="6.0" height="10.0" fill="#2f3fbf"/><rect x="75.0" y="66.0" width="6.0" height="10.0" fill="#2f3fbf"/><rect x="81.0" y="76.0" width="6.0" height="10.0" fill="#2f3fbf"/><rect x="81.0" y="96.0" width="6.0" height="10.0" fill="#2f3fbf"/><rect x="75.0" y="96.0" width="6.0" height="10.0" fill="#2f3fbf"/><rect x="69.0" y="96.0" width="6.0" height="10.0" fill="#2f3fbf"/><rect x="51.0" y="96.0" width="6.0" height="10.0" fill="#2f3fbf"/><rect x="45.0" y="96.0" width="6.0" height="10.0" fill="#2f3fbf"/><rect x="39.0" y="96.0" width="6.0" height="10.0" fill="#2f3fbf"/><rect x="27.0" y="86.0" width="6.0" height="10.0" fill="#2f3fbf"/><rect x="27.0" y="76.0" width="6.0" height="10.0" fill="#2f3fbf"/><rect x="99.0" y="66.0" width="6.0" height="10.0" fill="#e7be00"/><rect x="117.0" y="66.0" width="6.0" height="10.0" fill="#e7be00"/><rect x="123.0" y="66.0" width="6.0" height="10.0" fill="#e7be00"/><rect x="141.0" y="96.0" width="6.0" height="10.0" fill="#e7be00"/><rect x="123.0" y="96.0" width="6.0" height="10.0" fill="#e7be00"/><rect x="93.0" y="96.0" width="6.0" height="10.0" fill="#e7be00"/><rect x="33.0" y="106.0" width="6.0" height="10.0" fill="#e7be00"/><rect x="39.0" y="106.0" width="6.0" height="10.0" fill="#e7be00"/><rect x="45.0" y="106.0" width="6.0" height="10.0" fill="#e7be00"/><rect x="51.0" y="106.0" width="6.0" height="10.0" fill="#e7be00"/><rect x="63.0" y="106.0" width="6.0" height="10.0" fill="#e7be00"/><rect x="69.0" y="106.0" width="6.0" height="10.0" fill="#e7be00"/><rect x="81.0" y="116.0" width="6.0" height="10.0" fill="#e7be00"/><rect x="69.0" y="136.0" width="6.0" height="10.0" fill="#e7be00"/><rect x="57.0" y="136.0" width="6.0" height="10.0" fill="#e7be00"/><rect x="51.0" y="136.0" width="6.0" height="10.0" fill="#e7be00"/><rect x="45.0" y="136.0" width="6.0" height="10.0" fill="#e7be00"/><rect x="33.0" y="136.0" width="6.0" height="10.0" fill="#e7be00"/><rect x="27.0" y="136.0" width="6.0" height="10.0" fill="#e7be00"/><rect x="27.0" y="126.0" width="6.0" height="10.0" fill="#e7be00"/><rect x="99.0" y="106.0" width="6.0" height="10.0" fill="#e7be00"/><rect x="105.0" y="106.0" width="6.0" height="10.0" fill="#e7be00"/><rect x="111.0" y="106.0" width="6.0" height="10.0" fill="#e7be00"/><rect x="129.0" y="106.0" width="6.0" height="10.0" fill="#e7be00"/><rect x="135.0" y="106.0" width="6.0" height="10.0" fill="#e7be00"/><rect x="141.0" y="126.0" width="6.0" height="10.0" fill="#e7be00"/><rect x="93.0" y="136.0" width="6.0" height="10.0" fill="#e7be00"/><rect x="87.0" y="136.0" width="6.0" height="10.0" fill="#e7be00"/><rect x="87.0" y="126.0" width="6.0" height="10.0" fill="#e7be00"/><rect x="87.0" y="116.0" width="6.0" height="10.0" fill="#e7be00"/><rect x="147.0" y="106.0" width="6.0" height="10.0" fill="#2f3fbf"/><rect x="171.0" y="106.0" width="6.0" height="10.0" fill="#2f3fbf"/><rect x="195.0" y="106.0" width="6.0" height="10.0" fill="#2f3fbf"/><rect x="201.0" y="136.0" width="6.0" height="10.0" fill="#2f3fbf"/><rect x="189.0" y="136.0" width="6.0" height="10.0" fill="#2f3fbf"/><rect x="177.0" y="136.0" width="6.0" height="10.0" fill="#2f3fbf"/><rect x="171.0" y="136.0" width="6.0" height="10.0" fill="#2f3fbf"/><rect x="165.0" y="136.0" width="6.0" height="10.0" fill="#2f3fbf"/><rect x="159.0" y="136.0" width="6.0" height="10.0" fill="#2f3fbf"/><rect x="147.0" y="116.0" width="6.0" height="10.0" fill="#2f3fbf"/><rect x="27.0" y="146.0" width="6.0" height="10.0" fill="#2f3fbf"/><rect x="33.0" y="146.0" width="6.0" height="10.0" fill="#2f3fbf"/><rect x="51.0" y="146.0" width="6.0" height="10.0" fill="#2f3fbf"/><rect x="75.0" y="146.0" width="6.0" height="10.0" fill="#2f3fbf"/><rect x="81.0" y="146.0" width="6.0" height="10.0" fill="#2f3fbf"/><rect x="81.0" y="156.0" width="6.0" height="10.0" fill="#2f3fbf"/><rect x="81.0" y="176.0" width="6.0" height="10.0" fill="#2f3fbf"/><rect x="69.0" y="176.0" width="6.0" height="10.0" fill="#2f3fbf"/><rect x="57.0" y="176.0" width="6.0" height="10.0" fill="#2f3fbf"/><rect x="51.0" y="176.0" width="6.0" height="10.0" fill="#2f3fbf"/><rect x="39.0" y="176.0" width="6.0" height="10.0" fill="#2f3fbf"/><rect x="33.0" y="176.0" width="6.0" height="10.0" fill="#2f3fbf"/><rect x="27.0" y="176.0" width="6.0" height="10.0" fill="#2f3fbf"/><rect x="27.0" y="166.0" width="6.0" height="10.0" fill="#2f3fbf"/><rect x="27.0" y="156.0" width="6.0" height="10.0" fill="#2f3fbf"/><rect x="87.0" y="146.0" width="6.0" height="10.0" fill="#e7be00"/><rect x="99.0" y="146.0" width="6.0" height="10.0" fill="#e7be00"/><rect x="123.0" y="146.0" width="6.0" height="10.0" fill="#e7be00"/><rect x="129.0" y="146.0" width="6.0" height="10.0" fill="#e7be00"/><rect x="135.0" y="146.0" width="6.0" height="10.0" fill="#e7be00"/><rect x="141.0" y="146.0" width="6.0" height="10.0" fill="#e7be00"/><rect x="141.0" y="166.0" width="6.0" height="10.0" fill="#e7be00"/><rect x="141.0" y="176.0" width="6.0" height="10.0" fill="#e7be00"/><rect x="135.0" y="176.0" width="6.0" height="10.0" fill="#e7be00"/><rect x="123.0" y="176.0" width="6.0" height="10.0" fill="#e7be00"/><rect x="87.0" y="166.0" width="6.0" height="10.0" fill="#e7be00"/><rect x="87.0" y="156.0" width="6.0" height="10.0" fill="#e7be00"/><rect x="147.0" y="146.0" width="6.0" height="10.0" fill="#2f3fbf"/><rect x="159.0" y="146.0" width="6.0" height="10.0" fill="#2f3fbf"/><rect x="171.0" y="146.0" width="6.0" height="10.0" fill="#2f3fbf"/><rect x="183.0" y="146.0" width="6.0" height="10.0" fill="#2f3fbf"/><rect x="189.0" y="146.0" width="6.0" height="10.0" fill="#2f3fbf"/><rect x="195.0" y="146.0" width="6.0" height="10.0" fill="#2f3fbf"/><rect x="189.0" y="176.0" width="6.0" height="10.0" fill="#2f3fbf"/><rect x="183.0" y="176.0" width="6.0" height="10.0" fill="#2f3fbf"/><rect x="177.0" y="176.0" width="6.0" height="10.0" fill="#2f3fbf"/><rect x="171.0" y="176.0" width="6.0" height="10.0" fill="#2f3fbf"/><rect x="153.0" y="176.0" width="6.0" height="10.0" fill="#2f3fbf"/><rect x="147.0" y="166.0" width="6.0" height="10.0" fill="#2f3fbf"/></g><g clip-path="url(#grid-clip-9d0287415e6fa1da-3x4)" data-channel="ellipse" data-ellipse-anchor-x="147.0" data-ellipse-anchor-y="146.0" data-ellipse-rx="65.84578346409131" data-ellipse-ry="78.06458864299483" data-ellipse-rotation-deg="0.0"><ellipse cx="147.0" cy="146.0" rx="65.84578346409131" ry="78.06458864299483" transform="rotate(0.0 147.0 146.0)" fill="#000000" fill-opacity="0.4"/></g><g><g data-channel="cell" data-cell-index="0" data-cell-row="0" data-cell-col="0"><rect x="33.0" y="36.0" width="48.0" height="20.0" fill="#493b20"/><text x="57.0" y="46.0" fill="#ffffff" style="font-family: &quot;JetBrains Mono&quot;, &quot;Menlo&quot;, &quot;Consolas&quot;, &quot;DejaVu Sans Mono&quot;, &quot;Liberation Mono&quot;, &quot;Roboto Mono&quot;, &quot;Noto Sans Mono&quot;, monospace; font-size: 16.0px;" text-anchor="middle" dominant-baseline="central">IDtJ</text></g><g data-channel="cell" data-cell-index="1" data-cell-row="0" data-cell-col="1"><rect x="93.0" y="36.0" width="48.0" height="20.0" fill="#617f54"/><text x="117.0" y="46.0" fill="#ffffff" style="font-family: &quot;JetBrains Mono&quot;, &quot;Menlo&quot;, &quot;Consolas&quot;, &quot;DejaVu Sans Mono&quot;, &quot;Liberation Mono&quot;, &quot;Roboto Mono&quot;, &quot;Noto Sans Mono&quot;, monospace; font-size: 16.0px;" text-anchor="middle" dominant-baseline="central">VH9h</text></g><g data-channel="cell" data-cell-index="2" data-cell-row="0" data-cell-col="2"><rect x="153.0" y="36.0" width="48.0" height="20.0" fill="#83ed33"/><text x="177.0" y="46.0" fill="#000000" style="font-family: &quot;JetBrains Mono&quot;, &quot;Menlo&quot;, &quot;Consolas&quot;, &quot;DejaVu Sans Mono&quot;, &quot;Liberation Mono&quot;, &quot;Roboto Mono&quot;, &quot;Noto Sans Mono&quot;, monospace; font-size: 16.0px;" text-anchor="middle" dominant-baseline="central">M+2D</text></g><g data-channel="cell" data-cell-index="3" data-cell-row="1" data-cell-col="0" data-cell-quartile="4"><rect x="33.0" y="76.0" width="48.0" height="20.0" fill="#a019ca"/><text x="57.0" y="86.0" fill="#ffffff" style="font-family: &quot;JetBrains Mono&quot;, &quot;Menlo&quot;, &quot;Consolas&quot;, &quot;DejaVu Sans Mono&quot;, &quot;Liberation Mono&quot;, &quot;Roboto Mono&quot;, &quot;Noto Sans Mono&quot;, monospace; font-size: 16.0px;" text-anchor="middle" dominant-baseline="central">yhmg</text><polygon points="33.0,96.0 33.0,86.0 43.0,96.0" fill="#ffffff"/></g><g data-channel="cell" data-cell-index="4" data-cell-row="1" data-cell-col="1"><rect x="93.0" y="76.0" width="48.0" height="20.0" fill="#5f9045"/><text x="117.0" y="86.0" fill="#000000" style="font-family: &quot;JetBrains Mono&quot;, &quot;Menlo&quot;, &quot;Consolas&quot;, &quot;DejaVu Sans Mono&quot;, &quot;Liberation Mono&quot;, &quot;Roboto Mono&quot;, &quot;Noto Sans Mono&quot;, monospace; font-size: 16.0px;" text-anchor="middle" dominant-baseline="central">RZBf</text></g><g data-channel="cell" data-cell-index="5" data-cell-row="1" data-cell-col="2" data-cell-blank="true" data-cell-blank-map="true"><rect x="153.0" y="76.0" width="48.0" height="20.0" rx="10.0" ry="10.0" fill="#ffffff" stroke="#000000" stroke-width="1"/><circle cx="161.0" cy="93.5" r="2.5" fill="#d62828" data-blank-map-max="true"/><circle cx="177.0" cy="83.5" r="2.5" fill="#1d4ed8" data-blank-map-min="true"/></g><g data-channel="cell" data-cell-index="6" data-cell-row="2" data-cell-col="0"><rect x="33.0" y="116.0" width="48.0" height="20.0" fill="#e88078"/><text x="57.0" y="126.0" fill="#000000" style="font-family: &quot;JetBrains Mono&quot;, &quot;Menlo&quot;, &quot;Consolas&quot;, &quot;DejaVu Sans Mono&quot;, &quot;Liberation Mono&quot;, &quot;Roboto Mono&quot;, &quot;Noto Sans Mono&quot;, monospace; font-size: 16.0px;" text-anchor="middle" dominant-baseline="central">eIDo</text></g><g data-channel="cell" data-cell-index="7" data-cell-row="2" data-cell-col="1" data-cell-quartile="3"><rect x="93.0" y="116.0" width="48.0" height="20.0" fill="#93a056"/><text x="117.0" y="126.0" fill="#000000" style="font-family: &quot;JetBrains Mono&quot;, &quot;Menlo&quot;, &quot;Consolas&quot;, &quot;DejaVu Sans Mono&quot;, &quot;Liberation Mono&quot;, &quot;Roboto Mono&quot;, &quot;Noto Sans Mono&quot;, monospace; font-size: 16.0px;" text-anchor="middle" dominant-baseline="central">VqCT</text><polygon points="141.0,136.0 141.0,126.0 131.0,136.0" fill="#000000"/></g><g data-channel="cell" data-cell-index="8" data-cell-row="2" data-cell-col="2"><rect x="153.0" y="116.0" width="48.0" height="20.0" fill="#3e766d"/><text x="177.0" y="126.0" fill="#ffffff" style="font-family: &quot;JetBrains Mono&quot;, &quot;Menlo&quot;, &quot;Consolas&quot;, &quot;DejaVu Sans Mono&quot;, &quot;Liberation Mono&quot;, &quot;Roboto Mono&quot;, &quot;Noto Sans Mono&quot;, monospace; font-size: 16.0px;" text-anchor="middle" dominant-baseline="central">bXY+</text></g><g data-channel="cell" data-cell-index="9" data-cell-row="3" data-cell-col="0" data-cell-quartile="2"><rect x="33.0" y="156.0" width="48.0" height="20.0" fill="#a572d2"/><text x="57.0" y="166.0" fill="#000000" style="font-family: &quot;JetBrains Mono&quot;, &quot;Menlo&quot;, &quot;Consolas&quot;, &quot;DejaVu Sans Mono&quot;, &quot;Liberation Mono&quot;, &quot;Roboto Mono&quot;, &quot;Noto Sans Mono&quot;, monospace; font-size: 16.0px;" text-anchor="middle" dominant-baseline="central">0nKl</text><polygon points="81.0,156.0 71.0,156.0 81.0,166.0" fill="#000000"/></g><g data-channel="cell" data-cell-index="10" data-cell-row="3" data-cell-col="1" data-cell-quartile="1"><rect x="93.0" y="156.0" width="48.0" height="20.0" fill="#539a4b"/><text x="117.0" y="166.0" fill="#000000" style="font-family: &quot;JetBrains Mono&quot;, &quot;Menlo&quot;, &quot;Consolas&quot;, &quot;DejaVu Sans Mono&quot;, &quot;Liberation Mono&quot;, &quot;Roboto Mono&quot;, &quot;Noto Sans Mono&quot;, monospace; font-size: 16.0px;" text-anchor="middle" dominant-baseline="central">S5pT</text><polygon points="93.0,156.0 103.0,156.0 93.0,166.0" fill="#000000"/></g><g data-channel="cell" data-cell-index="11" data-cell-row="3" data-cell-col="2"><rect x="153.0" y="156.0" width="48.0" height="20.0" fill="#d84592"/><text x="177.0" y="166.0" fill="#000000" style="font-family: &quot;JetBrains Mono&quot;, &quot;Menlo&quot;, &quot;Consolas&quot;, &quot;DejaVu Sans Mono&quot;, &quot;Liberation Mono&quot;, &quot;Roboto Mono&quot;, &quot;Noto Sans Mono&quot;, monospace; font-size: 16.0px;" text-anchor="middle" dominant-baseline="central">kkXY</text></g></g></g><g data-channel="color-bar"><g data-color-bar-rank="0" data-color-bar-band="G"><rect x="1" y="1" width="20.0" height="76.72967095859114" fill="#e7be00"/><text x="11.0" y="74.20967095859115" fill="#000000" style="font-family: &quot;JetBrains Mono&quot;, &quot;Menlo&quot;, &quot;Consolas&quot;, &quot;DejaVu Sans Mono&quot;, &quot;Liberation Mono&quot;, &quot;Roboto Mono&quot;, &quot;Noto Sans Mono&quot;, monospace; font-size: 16.0px;" text-anchor="middle" data-color-bar-letter="true">g</text></g><g data-color-bar-rank="1" data-color-bar-band="K"><rect x="1" y="77.72967095859114" width="20.0" height="57.29354346161256" fill="#000000"/><text x="11.0" y="131.5032144202037" fill="#ffffff" style="font-family: &quot;JetBrains Mono&quot;, &quot;Menlo&quot;, &quot;Consolas&quot;, &quot;DejaVu Sans Mono&quot;, &quot;Liberation Mono&quot;, &quot;Roboto Mono&quot;, &quot;Noto Sans Mono&quot;, monospace; font-size: 16.0px;" text-anchor="middle" data-color-bar-letter="true">k</text></g><g data-color-bar-rank="2" data-color-bar-band="W"><rect x="1" y="135.02321442020371" width="20.0" height="41.807026621929126" fill="#ffffff"/><text x="11.0" y="173.31024104213284" fill="#000000" style="font-family: &quot;JetBrains Mono&quot;, &quot;Menlo&quot;, &quot;Consolas&quot;, &quot;DejaVu Sans Mono&quot;, &quot;Liberation Mono&quot;, &quot;Roboto Mono&quot;, &quot;Noto Sans Mono&quot;, monospace; font-size: 16.0px;" text-anchor="middle" data-color-bar-letter="true">w</text></g><g data-color-bar-rank="3" data-color-bar-band="B"><rect x="1" y="176.83024104213285" width="20.0" height="34.169758957867145" fill="#2f3fbf"/><text x="11.0" y="207.48" fill="#ffffff" style="font-family: &quot;JetBrains Mono&quot;, &quot;Menlo&quot;, &quot;Consolas&quot;, &quot;DejaVu Sans Mono&quot;, &quot;Liberation Mono&quot;, &quot;Roboto Mono&quot;, &quot;Noto Sans Mono&quot;, monospace; font-size: 16.0px;" text-anchor="middle" data-color-bar-letter="true">b</text></g></g><g data-channel="label-top"><text x="27.0" y="16.0" fill="#666666" style="font-family: &quot;JetBrains Mono&quot;, &quot;Menlo&quot;, &quot;Consolas&quot;, &quot;DejaVu Sans Mono&quot;, &quot;Liberation Mono&quot;, &quot;Roboto Mono&quot;, &quot;Noto Sans Mono&quot;, monospace; font-size: 12.0px;" dominant-baseline="central">SSH ed25519 pubkey: AAAAC3NzaC1lZDI1NTE5AAAA...</text></g><g data-channel="label-bottom"><text x="207.0" y="196.0" fill="#666666" style="font-family: &quot;JetBrains Mono&quot;, &quot;Menlo&quot;, &quot;Consolas&quot;, &quot;DejaVu Sans Mono&quot;, &quot;Liberation Mono&quot;, &quot;Roboto Mono&quot;, &quot;Noto Sans Mono&quot;, monospace; font-size: 12.0px;" text-anchor="end" dominant-baseline="central">...user@example.com</text></g><line x1="0" y1="0.5" x2="213.0" y2="0.5" stroke="#808080" stroke-width="1" shape-rendering="crispEdges"/><line x1="212.5" y1="0" x2="212.5" y2="212.0" stroke="#808080" stroke-width="1" shape-rendering="crispEdges"/><line x1="0" y1="211.5" x2="213.0" y2="211.5" stroke="#808080" stroke-width="1" shape-rendering="crispEdges"/><line x1="0.5" y1="0" x2="0.5" y2="212.0" stroke="#808080" stroke-width="1" shape-rendering="crispEdges"/><line x1="21.5" y1="0" x2="21.5" y2="212.0" stroke="#808080" stroke-width="1" shape-rendering="crispEdges"/></svg>