<svg width="263.0" height="197.0" xmlns="http://www.w3.org/2000/svg"><defs><clipPath id="grid-clip-0505b856-4x4"><rect x="17.0" y="31.0" width="240.0" height="160.0"/></clipPath></defs><rect x="0" y="0" width="263.0" height="197.0" fill="#ffffff"/><rect x="17.0" y="31.0" width="240.0" height="160.0" fill="#ff3f2f"/><rect x="35.0" y="31.0" width="6.0" height="10.0" fill="#000000"/><rect x="41.0" y="31.0" width="6.0" height="10.0" fill="#000000"/><rect x="47.0" y="31.0" width="6.0" height="10.0" fill="#000000"/><rect x="59.0" y="31.0" width="6.0" height="10.0" fill="#000000"/><rect x="65.0" y="31.0" width="6.0" height="10.0" fill="#000000"/><rect x="71.0" y="41.0" width="6.0" height="10.0" fill="#000000"/><rect x="47.0" y="61.0" width="6.0" height="10.0" fill="#000000"/><rect x="35.0" y="61.0" width="6.0" height="10.0" fill="#000000"/><rect x="83.0" y="31.0" width="6.0" height="10.0" fill="#000000"/><rect x="89.0" y="31.0" width="6.0" height="10.0" fill="#000000"/><rect x="95.0" y="31.0" width="6.0" height="10.0" fill="#000000"/><rect x="101.0" y="31.0" width="6.0" height="10.0" fill="#000000"/><rect x="107.0" y="31.0" width="6.0" height="10.0" fill="#000000"/><rect x="113.0" y="31.0" width="6.0" height="10.0" fill="#000000"/><rect x="119.0" y="31.0" width="6.0" height="10.0" fill="#000000"/><rect x="125.0" y="31.0" width="6.0" height="10.0" fill="#000000"/><rect x="131.0" y="31.0" width="6.0" height="10.0" fill="#000000"/><rect x="113.0" y="61.0" width="6.0" height="10.0" fill="#000000"/><rect x="101.0" y="61.0" width="6.0" height="10.0" fill="#000000"/><rect x="95.0" y="61.0" width="6.0" height="10.0" fill="#000000"/><rect x="83.0" y="61.0" width="6.0" height="10.0" fill="#000000"/><rect x="77.0" y="51.0" width="6.0" height="10.0" fill="#000000"/><rect x="161.0" y="31.0" width="6.0" height="10.0" fill="#ffd966"/><rect x="167.0" y="31.0" width="6.0" height="10.0" fill="#ffd966"/><rect x="173.0" y="31.0" width="6.0" height="10.0" fill="#ffd966"/><rect x="191.0" y="61.0" width="6.0" height="10.0" fill="#ffd966"/><rect x="185.0" y="61.0" width="6.0" height="10.0" fill="#ffd966"/><rect x="161.0" y="61.0" width="6.0" height="10.0" fill="#ffd966"/><rect x="155.0" y="61.0" width="6.0" height="10.0" fill="#ffd966"/><rect x="149.0" y="61.0" width="6.0" height="10.0" fill="#ffd966"/><rect x="143.0" y="61.0" width="6.0" height="10.0" fill="#ffd966"/><rect x="137.0" y="51.0" width="6.0" height="10.0" fill="#ffd966"/><rect x="137.0" y="41.0" width="6.0" height="10.0" fill="#ffd966"/><rect x="203.0" y="31.0" width="6.0" height="10.0" fill="#ffd966"/><rect x="215.0" y="31.0" width="6.0" height="10.0" fill="#ffd966"/><rect x="233.0" y="31.0" width="6.0" height="10.0" fill="#ffd966"/><rect x="239.0" y="31.0" width="6.0" height="10.0" fill="#ffd966"/><rect x="245.0" y="31.0" width="6.0" height="10.0" fill="#ffd966"/><rect x="251.0" y="31.0" width="6.0" height="10.0" fill="#ffd966"/><rect x="209.0" y="61.0" width="6.0" height="10.0" fill="#ffd966"/><rect x="203.0" y="61.0" width="6.0" height="10.0" fill="#ffd966"/><rect x="197.0" y="61.0" width="6.0" height="10.0" fill="#ffd966"/><rect x="197.0" y="41.0" width="6.0" height="10.0" fill="#ffd966"/><rect x="53.0" y="71.0" width="6.0" height="10.0" fill="#ffd966"/><rect x="59.0" y="71.0" width="6.0" height="10.0" fill="#ffd966"/><rect x="71.0" y="91.0" width="6.0" height="10.0" fill="#ffd966"/><rect x="59.0" y="101.0" width="6.0" height="10.0" fill="#ffd966"/><rect x="53.0" y="101.0" width="6.0" height="10.0" fill="#ffd966"/><rect x="47.0" y="101.0" width="6.0" height="10.0" fill="#ffd966"/><rect x="35.0" y="101.0" width="6.0" height="10.0" fill="#ffd966"/><rect x="23.0" y="101.0" width="6.0" height="10.0" fill="#ffd966"/><rect x="17.0" y="81.0" width="6.0" height="10.0" fill="#ffd966"/><rect x="101.0" y="71.0" width="6.0" height="10.0" fill="#ffd966"/><rect x="107.0" y="71.0" width="6.0" height="10.0" fill="#ffd966"/><rect x="113.0" y="71.0" width="6.0" height="10.0" fill="#ffd966"/><rect x="131.0" y="101.0" width="6.0" height="10.0" fill="#ffd966"/><rect x="125.0" y="101.0" width="6.0" height="10.0" fill="#ffd966"/><rect x="107.0" y="101.0" width="6.0" height="10.0" fill="#ffd966"/><rect x="101.0" y="101.0" width="6.0" height="10.0" fill="#ffd966"/><rect x="77.0" y="91.0" width="6.0" height="10.0" fill="#ffd966"/><rect x="149.0" y="71.0" width="6.0" height="10.0" fill="#2f3fbf"/><rect x="179.0" y="71.0" width="6.0" height="10.0" fill="#2f3fbf"/><rect x="185.0" y="71.0" width="6.0" height="10.0" fill="#2f3fbf"/><rect x="191.0" y="91.0" width="6.0" height="10.0" fill="#2f3fbf"/><rect x="191.0" y="101.0" width="6.0" height="10.0" fill="#2f3fbf"/><rect x="185.0" y="101.0" width="6.0" height="10.0" fill="#2f3fbf"/><rect x="173.0" y="101.0" width="6.0" height="10.0" fill="#2f3fbf"/><rect x="167.0" y="101.0" width="6.0" height="10.0" fill="#2f3fbf"/><rect x="161.0" y="101.0" width="6.0" height="10.0" fill="#2f3fbf"/><rect x="155.0" y="101.0" width="6.0" height="10.0" fill="#2f3fbf"/><rect x="149.0" y="101.0" width="6.0" height="10.0" fill="#2f3fbf"/><rect x="143.0" y="101.0" width="6.0" height="10.0" fill="#2f3fbf"/><rect x="197.0" y="71.0" width="6.0" height="10.0" fill="#ffffff"/><rect x="203.0" y="71.0" width="6.0" height="10.0" fill="#ffffff"/><rect x="209.0" y="71.0" width="6.0" height="10.0" fill="#ffffff"/><rect x="233.0" y="71.0" width="6.0" height="10.0" fill="#ffffff"/><rect x="251.0" y="71.0" width="6.0" height="10.0" fill="#ffffff"/><rect x="251.0" y="81.0" width="6.0" height="10.0" fill="#ffffff"/><rect x="251.0" y="91.0" width="6.0" height="10.0" fill="#ffffff"/><rect x="251.0" y="101.0" width="6.0" height="10.0" fill="#ffffff"/><rect x="245.0" y="101.0" width="6.0" height="10.0" fill="#ffffff"/><rect x="227.0" y="101.0" width="6.0" height="10.0" fill="#ffffff"/><rect x="221.0" y="101.0" width="6.0" height="10.0" fill="#ffffff"/><rect x="209.0" y="101.0" width="6.0" height="10.0" fill="#ffffff"/><rect x="197.0" y="101.0" width="6.0" height="10.0" fill="#ffffff"/><rect x="197.0" y="91.0" width="6.0" height="10.0" fill="#ffffff"/><rect x="197.0" y="81.0" width="6.0" height="10.0" fill="#ffffff"/><rect x="77.0" y="111.0" width="6.0" height="10.0" fill="#ffd966"/><rect x="89.0" y="111.0" width="6.0" height="10.0" fill="#ffd966"/><rect x="95.0" y="111.0" width="6.0" height="10.0" fill="#ffd966"/><rect x="107.0" y="111.0" width="6.0" height="10.0" fill="#ffd966"/><rect x="113.0" y="111.0" width="6.0" height="10.0" fill="#ffd966"/><rect x="119.0" y="111.0" width="6.0" height="10.0" fill="#ffd966"/><rect x="125.0" y="111.0" width="6.0" height="10.0" fill="#ffd966"/><rect x="131.0" y="121.0" width="6.0" height="10.0" fill="#ffd966"/><rect x="113.0" y="141.0" width="6.0" height="10.0" fill="#ffd966"/><rect x="107.0" y="141.0" width="6.0" height="10.0" fill="#ffd966"/><rect x="101.0" y="141.0" width="6.0" height="10.0" fill="#ffd966"/><rect x="95.0" y="141.0" width="6.0" height="10.0" fill="#ffd966"/><rect x="77.0" y="131.0" width="6.0" height="10.0" fill="#ffd966"/><rect x="77.0" y="121.0" width="6.0" height="10.0" fill="#ffd966"/><rect x="137.0" y="111.0" width="6.0" height="10.0" fill="#2f3fbf"/><rect x="143.0" y="111.0" width="6.0" height="10.0" fill="#2f3fbf"/><rect x="173.0" y="111.0" width="6.0" height="10.0" fill="#2f3fbf"/><rect x="185.0" y="111.0" width="6.0" height="10.0" fill="#2f3fbf"/><rect x="191.0" y="111.0" width="6.0" height="10.0" fill="#2f3fbf"/><rect x="191.0" y="121.0" width="6.0" height="10.0" fill="#2f3fbf"/><rect x="191.0" y="131.0" width="6.0" height="10.0" fill="#2f3fbf"/><rect x="191.0" y="141.0" width="6.0" height="10.0" fill="#2f3fbf"/><rect x="161.0" y="141.0" width="6.0" height="10.0" fill="#2f3fbf"/><rect x="137.0" y="121.0" width="6.0" height="10.0" fill="#2f3fbf"/><rect x="209.0" y="111.0" width="6.0" height="10.0" fill="#2f3fbf"/><rect x="215.0" y="111.0" width="6.0" height="10.0" fill="#2f3fbf"/><rect x="221.0" y="111.0" width="6.0" height="10.0" fill="#2f3fbf"/><rect x="227.0" y="111.0" width="6.0" height="10.0" fill="#2f3fbf"/><rect x="233.0" y="111.0" width="6.0" height="10.0" fill="#2f3fbf"/><rect x="245.0" y="111.0" width="6.0" height="10.0" fill="#2f3fbf"/><rect x="251.0" y="111.0" width="6.0" height="10.0" fill="#2f3fbf"/><rect x="251.0" y="141.0" width="6.0" height="10.0" fill="#2f3fbf"/><rect x="239.0" y="141.0" width="6.0" height="10.0" fill="#2f3fbf"/><rect x="215.0" y="141.0" width="6.0" height="10.0" fill="#2f3fbf"/><rect x="209.0" y="141.0" width="6.0" height="10.0" fill="#2f3fbf"/><rect x="203.0" y="141.0" width="6.0" height="10.0" fill="#2f3fbf"/><rect x="197.0" y="141.0" width="6.0" height="10.0" fill="#2f3fbf"/><rect x="197.0" y="131.0" width="6.0" height="10.0" fill="#2f3fbf"/><rect x="83.0" y="151.0" width="6.0" height="10.0" fill="#ffffff"/><rect x="95.0" y="151.0" width="6.0" height="10.0" fill="#ffffff"/><rect x="113.0" y="151.0" width="6.0" height="10.0" fill="#ffffff"/><rect x="119.0" y="151.0" width="6.0" height="10.0" fill="#ffffff"/><rect x="131.0" y="151.0" width="6.0" height="10.0" fill="#ffffff"/><rect x="131.0" y="181.0" width="6.0" height="10.0" fill="#ffffff"/><rect x="125.0" y="181.0" width="6.0" height="10.0" fill="#ffffff"/><rect x="113.0" y="181.0" width="6.0" height="10.0" fill="#ffffff"/><rect x="101.0" y="181.0" width="6.0" height="10.0" fill="#ffffff"/><rect x="83.0" y="181.0" width="6.0" height="10.0" fill="#ffffff"/><rect x="77.0" y="171.0" width="6.0" height="10.0" fill="#ffffff"/><rect x="137.0" y="151.0" width="6.0" height="10.0" fill="#ffd966"/><rect x="149.0" y="151.0" width="6.0" height="10.0" fill="#ffd966"/><rect x="167.0" y="151.0" width="6.0" height="10.0" fill="#ffd966"/><rect x="191.0" y="151.0" width="6.0" height="10.0" fill="#ffd966"/><rect x="191.0" y="161.0" width="6.0" height="10.0" fill="#ffd966"/><rect x="191.0" y="181.0" width="6.0" height="10.0" fill="#ffd966"/><rect x="185.0" y="181.0" width="6.0" height="10.0" fill="#ffd966"/><rect x="173.0" y="181.0" width="6.0" height="10.0" fill="#ffd966"/><rect x="155.0" y="181.0" width="6.0" height="10.0" fill="#ffd966"/><rect x="137.0" y="171.0" width="6.0" height="10.0" fill="#ffd966"/><rect x="197.0" y="151.0" width="6.0" height="10.0" fill="#ffd966"/><rect x="203.0" y="151.0" width="6.0" height="10.0" fill="#ffd966"/><rect x="215.0" y="151.0" width="6.0" height="10.0" fill="#ffd966"/><rect x="233.0" y="151.0" width="6.0" height="10.0" fill="#ffd966"/><rect x="245.0" y="151.0" width="6.0" height="10.0" fill="#ffd966"/><rect x="251.0" y="161.0" width="6.0" height="10.0" fill="#ffd966"/><rect x="251.0" y="171.0" width="6.0" height="10.0" fill="#ffd966"/><rect x="251.0" y="181.0" width="6.0" height="10.0" fill="#ffd966"/><rect x="245.0" y="181.0" width="6.0" height="10.0" fill="#ffd966"/><rect x="233.0" y="181.0" width="6.0" height="10.0" fill="#ffd966"/><rect x="221.0" y="181.0" width="6.0" height="10.0" fill="#ffd966"/><rect x="215.0" y="181.0" width="6.0" height="10.0" fill="#ffd966"/><rect x="209.0" y="181.0" width="6.0" height="10.0" fill="#ffd966"/><rect x="203.0" y="181.0" width="6.0" height="10.0" fill="#ffd966"/><rect x="197.0" y="181.0" width="6.0" height="10.0" fill="#ffd966"/><rect x="197.0" y="161.0" width="6.0" height="10.0" fill="#ffd966"/><g clip-path="url(#grid-clip-0505b856-4x4)"><ellipse cx="197.0" cy="151.0" rx="55.51107687037858" ry="86.53323061113574" transform="rotate(24.0 197.0 151.0)" fill="#000000" fill-opacity="0.4"/></g><rect x="23.0" y="41.0" width="48.0" height="20.0" fill="#118a12"/><text x="47.0" y="51.0" fill="#ffffff" style="font-family: monospace; font-size: 16.0px;" text-anchor="middle" dominant-baseline="central">CKFB</text><rect x="83.0" y="41.0" width="48.0" height="20.0" fill="#333122"/><text x="107.0" y="51.0" fill="#ffffff" style="font-family: monospace; font-size: 16.0px;" text-anchor="middle" dominant-baseline="central">EIYT</text><rect x="143.0" y="41.0" width="48.0" height="20.0" fill="#11fb53"/><text x="167.0" y="51.0" fill="#000000" style="font-family: monospace; font-size: 16.0px;" text-anchor="middle" dominant-baseline="central">KP5R</text><rect x="203.0" y="41.0" width="48.0" height="20.0" fill="#cc6018"/><text x="227.0" y="51.0" fill="#000000" style="font-family: monospace; font-size: 16.0px;" text-anchor="middle" dominant-baseline="central">DBQM</text><rect x="23.0" y="81.0" width="48.0" height="20.0" fill="#ffc0a4"/><text x="47.0" y="91.0" fill="#000000" style="font-family: monospace; font-size: 16.0px;" text-anchor="middle" dominant-baseline="central">UTAP</text><rect x="83.0" y="81.0" width="48.0" height="20.0" fill="#778618"/><text x="107.0" y="91.0" fill="#ffffff" style="font-family: monospace; font-size: 16.0px;" text-anchor="middle" dominant-baseline="central">DCDH</text><rect x="143.0" y="81.0" width="48.0" height="20.0" fill="#11a72e"/><text x="167.0" y="91.0" fill="#000000" style="font-family: monospace; font-size: 16.0px;" text-anchor="middle" dominant-baseline="central">F2TR</text><rect x="203.0" y="81.0" width="48.0" height="20.0" fill="#dddee2"/><text x="227.0" y="91.0" fill="#000000" style="font-family: monospace; font-size: 16.0px;" text-anchor="middle" dominant-baseline="central">4LPN</text><rect x="83.0" y="121.0" width="48.0" height="20.0" fill="#ccad89"/><text x="107.0" y="131.0" fill="#000000" style="font-family: monospace; font-size: 16.0px;" text-anchor="middle" dominant-baseline="central">RGW4</text><rect x="143.0" y="121.0" width="48.0" height="20.0" fill="#006148"/><text x="167.0" y="131.0" fill="#ffffff" style="font-family: monospace; font-size: 16.0px;" text-anchor="middle" dominant-baseline="central">JBQQ</text><rect x="203.0" y="121.0" width="48.0" height="20.0" fill="#88299c"/><text x="227.0" y="131.0" fill="#ffffff" style="font-family: monospace; font-size: 16.0px;" text-anchor="middle" dominant-baseline="central">TQUY</text><rect x="83.0" y="161.0" width="48.0" height="20.0" fill="#bbf8cb"/><text x="107.0" y="171.0" fill="#000000" style="font-family: monospace; font-size: 16.0px;" text-anchor="middle" dominant-baseline="central">ZP4L</text><rect x="143.0" y="161.0" width="48.0" height="20.0" fill="#bb9f1a"/><text x="167.0" y="171.0" fill="#000000" style="font-family: monospace; font-size: 16.0px;" text-anchor="middle" dominant-baseline="central">DKP3</text><rect x="203.0" y="161.0" width="48.0" height="20.0" fill="#cc9891"/><text x="227.0" y="171.0" fill="#000000" style="font-family: monospace; font-size: 16.0px;" text-anchor="middle" dominant-baseline="central">SGM</text><circle cx="47.0" cy="131.0" r="17.0" fill="#ffffff" stroke="#000000" stroke-width="1"/><line x1="47.0" y1="131.0" x2="64.57136708331115" y2="127.09525175926419" stroke="#ffffff" style="mix-blend-mode: difference" stroke-width="1"/><line x1="47.0" y1="131.0" x2="47.0" y2="122.5" stroke="#000000" stroke-width="1"/><circle cx="47.0" cy="122.5" r="1.5" fill="#ffffff" stroke="#000000" stroke-width="1"/><circle cx="47.0" cy="171.0" r="17.0" fill="#ffffff" stroke="#000000" stroke-width="1"/><line x1="47.0" y1="171.0" x2="63.448607875164626" y2="163.68950761103795" stroke="#ffffff" style="mix-blend-mode: difference" stroke-width="1"/><line x1="47.0" y1="171.0" x2="47.0" y2="162.5" stroke="#000000" stroke-width="1"/><circle cx="47.0" cy="162.5" r="1.5" fill="#ffffff" stroke="#000000" stroke-width="1"/><polygon points="83.0,41.0 93.0,41.0 83.0,51.0" fill="#ffffff"/><polygon points="191.0,121.0 181.0,121.0 191.0,131.0" fill="#ffffff"/><polygon points="251.0,61.0 251.0,51.0 241.0,61.0" fill="#000000"/><polygon points="143.0,61.0 143.0,51.0 153.0,61.0" fill="#000000"/><rect x="1" y="1" width="10.0" height="76.70649549780613" fill="#ffffff"/><rect x="1" y="77.70649549780613" width="10.0" height="54.43019771056406" fill="#000000"/><rect x="1" y="132.1366932083702" width="10.0" height="42.55032669184037" fill="#ffd966"/><rect x="1" y="174.68701990021054" width="10.0" height="21.312980099789456" fill="#2f3fbf"/><text x="17.0" y="16.0" fill="#666666" style="font-family: monospace; font-size: 12.0px;" dominant-baseline="central">XLM: G...</text><line x1="0" y1="0.5" x2="263.0" y2="0.5" stroke="#808080" stroke-width="1" shape-rendering="crispEdges"/><line x1="262.5" y1="0" x2="262.5" y2="197.0" stroke="#808080" stroke-width="1" shape-rendering="crispEdges"/><line x1="0" y1="196.5" x2="263.0" y2="196.5" stroke="#808080" stroke-width="1" shape-rendering="crispEdges"/><line x1="0.5" y1="0" x2="0.5" y2="197.0" stroke="#808080" stroke-width="1" shape-rendering="crispEdges"/><line x1="11.5" y1="0" x2="11.5" y2="197.0" stroke="#808080" stroke-width="1" shape-rendering="crispEdges"/></svg>