<svg width="263.0" height="197.0" viewBox="0 0 263.0 197.0" xmlns="http://www.w3.org/2000/svg" data-entviz-version="v5" data-entviz-lib="0.5.0" data-input-bytes="59" data-cols="4" data-rows="4"><defs><clipPath id="grid-clip-683953058c1b52c4-4x4"><rect x="17.0" y="31.0" width="240.0" height="160.0"/></clipPath></defs><rect x="0" y="0" width="263.0" height="197.0" fill="#ffffff"/><g data-channel="grid"><rect x="17.0" y="31.0" width="240.0" height="160.0" fill="#ffffff"/><g><rect x="17.0" y="31.0" width="6.0" height="10.0" fill="#000000"/><rect x="23.0" y="31.0" width="6.0" height="10.0" fill="#000000"/><rect x="41.0" y="31.0" width="6.0" height="10.0" fill="#000000"/><rect x="53.0" y="31.0" width="6.0" height="10.0" fill="#000000"/><rect x="65.0" y="31.0" width="6.0" height="10.0" fill="#000000"/><rect x="71.0" y="51.0" width="6.0" height="10.0" fill="#000000"/><rect x="71.0" y="61.0" width="6.0" height="10.0" fill="#000000"/><rect x="65.0" y="61.0" width="6.0" height="10.0" fill="#000000"/><rect x="29.0" y="61.0" width="6.0" height="10.0" fill="#000000"/><rect x="17.0" y="61.0" width="6.0" height="10.0" fill="#000000"/><rect x="17.0" y="51.0" width="6.0" height="10.0" fill="#000000"/><rect x="77.0" y="31.0" width="6.0" height="10.0" fill="#000000"/><rect x="83.0" y="31.0" width="6.0" height="10.0" fill="#000000"/><rect x="95.0" y="31.0" width="6.0" height="10.0" fill="#000000"/><rect x="101.0" y="31.0" width="6.0" height="10.0" fill="#000000"/><rect x="131.0" y="41.0" width="6.0" height="10.0" fill="#000000"/><rect x="131.0" y="51.0" width="6.0" height="10.0" fill="#000000"/><rect x="113.0" y="61.0" width="6.0" height="10.0" fill="#000000"/><rect x="107.0" y="61.0" width="6.0" height="10.0" fill="#000000"/><rect x="95.0" y="61.0" width="6.0" height="10.0" fill="#000000"/><rect x="149.0" y="31.0" width="6.0" height="10.0" fill="#2f3fbf"/><rect x="167.0" y="31.0" width="6.0" height="10.0" fill="#2f3fbf"/><rect x="179.0" y="31.0" width="6.0" height="10.0" fill="#2f3fbf"/><rect x="191.0" y="41.0" width="6.0" height="10.0" fill="#2f3fbf"/><rect x="179.0" y="61.0" width="6.0" height="10.0" fill="#2f3fbf"/><rect x="173.0" y="61.0" width="6.0" height="10.0" fill="#2f3fbf"/><rect x="161.0" y="61.0" width="6.0" height="10.0" fill="#2f3fbf"/><rect x="143.0" y="61.0" width="6.0" height="10.0" fill="#2f3fbf"/><rect x="137.0" y="51.0" width="6.0" height="10.0" fill="#2f3fbf"/><rect x="209.0" y="31.0" width="6.0" height="10.0" fill="#ffd966"/><rect x="239.0" y="31.0" width="6.0" height="10.0" fill="#ffd966"/><rect x="245.0" y="31.0" width="6.0" height="10.0" fill="#ffd966"/><rect x="251.0" y="31.0" width="6.0" height="10.0" fill="#ffd966"/><rect x="251.0" y="51.0" width="6.0" height="10.0" fill="#ffd966"/><rect x="251.0" y="61.0" width="6.0" height="10.0" fill="#ffd966"/><rect x="245.0" y="61.0" width="6.0" height="10.0" fill="#ffd966"/><rect x="239.0" y="61.0" width="6.0" height="10.0" fill="#ffd966"/><rect x="227.0" y="61.0" width="6.0" height="10.0" fill="#ffd966"/><rect x="215.0" y="61.0" width="6.0" height="10.0" fill="#ffd966"/><rect x="203.0" y="61.0" width="6.0" height="10.0" fill="#ffd966"/><rect x="197.0" y="41.0" width="6.0" height="10.0" fill="#ffd966"/><rect x="17.0" y="71.0" width="6.0" height="10.0" fill="#2f3fbf"/><rect x="23.0" y="71.0" width="6.0" height="10.0" fill="#2f3fbf"/><rect x="29.0" y="71.0" width="6.0" height="10.0" fill="#2f3fbf"/><rect x="41.0" y="71.0" width="6.0" height="10.0" fill="#2f3fbf"/><rect x="53.0" y="71.0" width="6.0" height="10.0" fill="#2f3fbf"/><rect x="71.0" y="71.0" width="6.0" height="10.0" fill="#2f3fbf"/><rect x="71.0" y="81.0" width="6.0" height="10.0" fill="#2f3fbf"/><rect x="71.0" y="91.0" width="6.0" height="10.0" fill="#2f3fbf"/><rect x="71.0" y="101.0" width="6.0" height="10.0" fill="#2f3fbf"/><rect x="53.0" y="101.0" width="6.0" height="10.0" fill="#2f3fbf"/><rect x="47.0" y="101.0" width="6.0" height="10.0" fill="#2f3fbf"/><rect x="29.0" y="101.0" width="6.0" height="10.0" fill="#2f3fbf"/><rect x="83.0" y="71.0" width="6.0" height="10.0" fill="#ffd966"/><rect x="101.0" y="71.0" width="6.0" height="10.0" fill="#ffd966"/><rect x="125.0" y="71.0" width="6.0" height="10.0" fill="#ffd966"/><rect x="131.0" y="81.0" width="6.0" height="10.0" fill="#ffd966"/><rect x="131.0" y="91.0" width="6.0" height="10.0" fill="#ffd966"/><rect x="131.0" y="101.0" width="6.0" height="10.0" fill="#ffd966"/><rect x="119.0" y="101.0" width="6.0" height="10.0" fill="#ffd966"/><rect x="113.0" y="101.0" width="6.0" height="10.0" fill="#ffd966"/><rect x="95.0" y="101.0" width="6.0" height="10.0" fill="#ffd966"/><rect x="83.0" y="101.0" width="6.0" height="10.0" fill="#ffd966"/><rect x="77.0" y="101.0" width="6.0" height="10.0" fill="#ffd966"/><rect x="77.0" y="91.0" width="6.0" height="10.0" fill="#ffd966"/><rect x="143.0" y="71.0" width="6.0" height="10.0" fill="#2f3fbf"/><rect x="149.0" y="71.0" width="6.0" height="10.0" fill="#2f3fbf"/><rect x="155.0" y="71.0" width="6.0" height="10.0" fill="#2f3fbf"/><rect x="173.0" y="71.0" width="6.0" height="10.0" fill="#2f3fbf"/><rect x="191.0" y="101.0" width="6.0" height="10.0" fill="#2f3fbf"/><rect x="185.0" y="101.0" width="6.0" height="10.0" fill="#2f3fbf"/><rect x="179.0" y="101.0" width="6.0" height="10.0" fill="#2f3fbf"/><rect x="173.0" y="101.0" width="6.0" height="10.0" fill="#2f3fbf"/><rect x="155.0" y="101.0" width="6.0" height="10.0" fill="#2f3fbf"/><rect x="143.0" y="101.0" width="6.0" height="10.0" fill="#2f3fbf"/><rect x="137.0" y="101.0" width="6.0" height="10.0" fill="#2f3fbf"/><rect x="137.0" y="91.0" width="6.0" height="10.0" fill="#2f3fbf"/><rect x="137.0" y="81.0" width="6.0" height="10.0" fill="#2f3fbf"/><rect x="197.0" y="71.0" width="6.0" height="10.0" fill="#ffd966"/><rect x="203.0" y="71.0" width="6.0" height="10.0" fill="#ffd966"/><rect x="209.0" y="71.0" width="6.0" height="10.0" fill="#ffd966"/><rect x="227.0" y="71.0" width="6.0" height="10.0" fill="#ffd966"/><rect x="233.0" y="71.0" width="6.0" height="10.0" fill="#ffd966"/><rect x="239.0" y="71.0" width="6.0" height="10.0" fill="#ffd966"/><rect x="245.0" y="71.0" width="6.0" height="10.0" fill="#ffd966"/><rect x="251.0" y="71.0" width="6.0" height="10.0" fill="#ffd966"/><rect x="251.0" y="101.0" width="6.0" height="10.0" fill="#ffd966"/><rect x="239.0" y="101.0" width="6.0" height="10.0" fill="#ffd966"/><rect x="203.0" y="101.0" width="6.0" height="10.0" fill="#ffd966"/><rect x="197.0" y="91.0" width="6.0" height="10.0" fill="#ffd966"/><rect x="23.0" y="111.0" width="6.0" height="10.0" fill="#ffd966"/><rect x="47.0" y="111.0" width="6.0" height="10.0" fill="#ffd966"/><rect x="65.0" y="111.0" width="6.0" height="10.0" fill="#ffd966"/><rect x="65.0" y="141.0" width="6.0" height="10.0" fill="#ffd966"/><rect x="47.0" y="141.0" width="6.0" height="10.0" fill="#ffd966"/><rect x="35.0" y="141.0" width="6.0" height="10.0" fill="#ffd966"/><rect x="23.0" y="141.0" width="6.0" height="10.0" fill="#ffd966"/><rect x="17.0" y="141.0" width="6.0" height="10.0" fill="#ffd966"/><rect x="17.0" y="131.0" width="6.0" height="10.0" fill="#ffd966"/><rect x="149.0" y="111.0" width="6.0" height="10.0" fill="#2f3fbf"/><rect x="167.0" y="111.0" width="6.0" height="10.0" fill="#2f3fbf"/><rect x="191.0" y="121.0" width="6.0" height="10.0" fill="#2f3fbf"/><rect x="191.0" y="131.0" width="6.0" height="10.0" fill="#2f3fbf"/><rect x="191.0" y="141.0" width="6.0" height="10.0" fill="#2f3fbf"/><rect x="185.0" y="141.0" width="6.0" height="10.0" fill="#2f3fbf"/><rect x="173.0" y="141.0" width="6.0" height="10.0" fill="#2f3fbf"/><rect x="167.0" y="141.0" width="6.0" height="10.0" fill="#2f3fbf"/><rect x="161.0" y="141.0" width="6.0" height="10.0" fill="#2f3fbf"/><rect x="149.0" y="141.0" width="6.0" height="10.0" fill="#2f3fbf"/><rect x="137.0" y="141.0" width="6.0" height="10.0" fill="#2f3fbf"/><rect x="137.0" y="131.0" width="6.0" height="10.0" fill="#2f3fbf"/><rect x="197.0" y="111.0" width="6.0" height="10.0" fill="#ff3f2f"/><rect x="203.0" y="111.0" width="6.0" height="10.0" fill="#ff3f2f"/><rect x="209.0" y="111.0" width="6.0" height="10.0" fill="#ff3f2f"/><rect x="215.0" y="111.0" width="6.0" height="10.0" fill="#ff3f2f"/><rect x="245.0" y="111.0" width="6.0" height="10.0" fill="#ff3f2f"/><rect x="251.0" y="111.0" width="6.0" height="10.0" fill="#ff3f2f"/><rect x="251.0" y="131.0" width="6.0" height="10.0" fill="#ff3f2f"/><rect x="245.0" y="141.0" width="6.0" height="10.0" fill="#ff3f2f"/><rect x="233.0" y="141.0" width="6.0" height="10.0" fill="#ff3f2f"/><rect x="227.0" y="141.0" width="6.0" height="10.0" fill="#ff3f2f"/><rect x="215.0" y="141.0" width="6.0" height="10.0" fill="#ff3f2f"/><rect x="203.0" y="141.0" width="6.0" height="10.0" fill="#ff3f2f"/><rect x="197.0" y="141.0" width="6.0" height="10.0" fill="#ff3f2f"/><rect x="197.0" y="131.0" width="6.0" height="10.0" fill="#ff3f2f"/><rect x="35.0" y="151.0" width="6.0" height="10.0" fill="#2f3fbf"/><rect x="41.0" y="151.0" width="6.0" height="10.0" fill="#2f3fbf"/><rect x="65.0" y="151.0" width="6.0" height="10.0" fill="#2f3fbf"/><rect x="71.0" y="181.0" width="6.0" height="10.0" fill="#2f3fbf"/><rect x="59.0" y="181.0" width="6.0" height="10.0" fill="#2f3fbf"/><rect x="41.0" y="181.0" width="6.0" height="10.0" fill="#2f3fbf"/><rect x="35.0" y="181.0" width="6.0" height="10.0" fill="#2f3fbf"/><rect x="23.0" y="181.0" width="6.0" height="10.0" fill="#2f3fbf"/><rect x="17.0" y="181.0" width="6.0" height="10.0" fill="#2f3fbf"/><rect x="17.0" y="161.0" width="6.0" height="10.0" fill="#2f3fbf"/><rect x="77.0" y="151.0" width="6.0" height="10.0" fill="#ff3f2f"/><rect x="89.0" y="151.0" width="6.0" height="10.0" fill="#ff3f2f"/><rect x="95.0" y="151.0" width="6.0" height="10.0" fill="#ff3f2f"/><rect x="101.0" y="151.0" width="6.0" height="10.0" fill="#ff3f2f"/><rect x="119.0" y="151.0" width="6.0" height="10.0" fill="#ff3f2f"/><rect x="113.0" y="181.0" width="6.0" height="10.0" fill="#ff3f2f"/><rect x="95.0" y="181.0" width="6.0" height="10.0" fill="#ff3f2f"/><rect x="83.0" y="181.0" width="6.0" height="10.0" fill="#ff3f2f"/><rect x="77.0" y="181.0" width="6.0" height="10.0" fill="#ff3f2f"/><rect x="137.0" y="151.0" width="6.0" height="10.0" fill="#2f3fbf"/><rect x="143.0" y="151.0" width="6.0" height="10.0" fill="#2f3fbf"/><rect x="155.0" y="151.0" width="6.0" height="10.0" fill="#2f3fbf"/><rect x="167.0" y="151.0" width="6.0" height="10.0" fill="#2f3fbf"/><rect x="185.0" y="151.0" width="6.0" height="10.0" fill="#2f3fbf"/><rect x="191.0" y="151.0" width="6.0" height="10.0" fill="#2f3fbf"/><rect x="191.0" y="171.0" width="6.0" height="10.0" fill="#2f3fbf"/><rect x="185.0" y="181.0" width="6.0" height="10.0" fill="#2f3fbf"/><rect x="179.0" y="181.0" width="6.0" height="10.0" fill="#2f3fbf"/><rect x="173.0" y="181.0" width="6.0" height="10.0" fill="#2f3fbf"/><rect x="167.0" y="181.0" width="6.0" height="10.0" fill="#2f3fbf"/><rect x="161.0" y="181.0" width="6.0" height="10.0" fill="#2f3fbf"/><rect x="149.0" y="181.0" width="6.0" height="10.0" fill="#2f3fbf"/><rect x="143.0" y="181.0" width="6.0" height="10.0" fill="#2f3fbf"/><rect x="137.0" y="171.0" width="6.0" height="10.0" fill="#2f3fbf"/><rect x="215.0" y="151.0" width="6.0" height="10.0" fill="#000000"/><rect x="227.0" y="151.0" width="6.0" height="10.0" fill="#000000"/><rect x="251.0" y="151.0" width="6.0" height="10.0" fill="#000000"/><rect x="251.0" y="171.0" width="6.0" height="10.0" fill="#000000"/><rect x="233.0" y="181.0" width="6.0" height="10.0" fill="#000000"/><rect x="221.0" y="181.0" width="6.0" height="10.0" fill="#000000"/><rect x="215.0" y="181.0" width="6.0" height="10.0" fill="#000000"/><rect x="203.0" y="181.0" width="6.0" height="10.0" fill="#000000"/><rect x="197.0" y="161.0" width="6.0" height="10.0" fill="#000000"/></g><g clip-path="url(#grid-clip-683953058c1b52c4-4x4)" data-channel="ellipse" data-ellipse-anchor-x="137.0" data-ellipse-anchor-y="151.0" data-ellipse-rx="37.941125496954285" data-ellipse-ry="37.941125496954285" data-ellipse-rotation-deg="108.0"><ellipse cx="137.0" cy="151.0" rx="37.941125496954285" ry="37.941125496954285" transform="rotate(108.0 137.0 151.0)" fill="#000000" fill-opacity="0.2"/></g><g><g data-channel="cell" data-cell-index="0" data-cell-row="0" data-cell-col="0" data-cell-quartile="2"><rect x="23.0" y="41.0" width="48.0" height="20.0" fill="#117001"/><text x="47.0" y="51.0" fill="#ffffff" style="font-family: &quot;DejaVu Sans Mono&quot;, &quot;Consolas&quot;, &quot;Menlo&quot;, &quot;Liberation Mono&quot;, monospace; font-size: 16.0px;" text-anchor="middle" dominant-baseline="central">AFYB</text><polygon points="71.0,41.0 61.0,41.0 71.0,51.0" fill="#ffffff"/></g><g data-channel="cell" data-cell-index="1" data-cell-row="0" data-cell-col="1"><rect x="83.0" y="41.0" width="48.0" height="20.0" fill="#330c22"/><text x="107.0" y="51.0" fill="#ffffff" style="font-family: &quot;DejaVu Sans Mono&quot;, &quot;Consolas&quot;, &quot;Menlo&quot;, &quot;Liberation Mono&quot;, monospace; font-size: 16.0px;" text-anchor="middle" dominant-baseline="central">EIGD</text></g><g data-channel="cell" data-cell-index="2" data-cell-row="0" data-cell-col="2"><rect x="143.0" y="41.0" width="48.0" height="20.0" fill="#3373c4"/><text x="167.0" y="51.0" fill="#ffffff" style="font-family: &quot;DejaVu Sans Mono&quot;, &quot;Consolas&quot;, &quot;Menlo&quot;, &quot;Liberation Mono&quot;, monospace; font-size: 16.0px;" text-anchor="middle" dominant-baseline="central">YRZT</text></g><g data-channel="cell" data-cell-index="3" data-cell-row="0" data-cell-col="3" data-cell-quartile="1"><rect x="203.0" y="41.0" width="48.0" height="20.0" fill="#ff8aec"/><text x="227.0" y="51.0" fill="#000000" style="font-family: &quot;DejaVu Sans Mono&quot;, &quot;Consolas&quot;, &quot;Menlo&quot;, &quot;Liberation Mono&quot;, monospace; font-size: 16.0px;" text-anchor="middle" dominant-baseline="central">5SFP</text><polygon points="203.0,41.0 213.0,41.0 203.0,51.0" fill="#000000"/></g><g data-channel="cell" data-cell-index="4" data-cell-row="1" data-cell-col="0"><rect x="23.0" y="81.0" width="48.0" height="20.0" fill="#cc06fd"/><text x="47.0" y="91.0" fill="#000000" style="font-family: &quot;DejaVu Sans Mono&quot;, &quot;Consolas&quot;, &quot;Menlo&quot;, &quot;Liberation Mono&quot;, monospace; font-size: 16.0px;" text-anchor="middle" dominant-baseline="central">7UDM</text></g><g data-channel="cell" data-cell-index="5" data-cell-row="1" data-cell-col="1"><rect x="83.0" y="81.0" width="48.0" height="20.0" fill="#ffe9f9"/><text x="107.0" y="91.0" fill="#000000" style="font-family: &quot;DejaVu Sans Mono&quot;, &quot;Consolas&quot;, &quot;Menlo&quot;, &quot;Liberation Mono&quot;, monospace; font-size: 16.0px;" text-anchor="middle" dominant-baseline="central">7HU7</text></g><g data-channel="cell" data-cell-index="6" data-cell-row="1" data-cell-col="2"><rect x="143.0" y="81.0" width="48.0" height="20.0" fill="#ff0ff5"/><text x="167.0" y="91.0" fill="#000000" style="font-family: &quot;DejaVu Sans Mono&quot;, &quot;Consolas&quot;, &quot;Menlo&quot;, &quot;Liberation Mono&quot;, monospace; font-size: 16.0px;" text-anchor="middle" dominant-baseline="central">6UH7</text></g><g data-channel="cell" data-cell-index="7" data-cell-row="1" data-cell-col="3" data-cell-quartile="4"><rect x="203.0" y="81.0" width="48.0" height="20.0" fill="#ddbcc6"/><text x="227.0" y="91.0" fill="#000000" style="font-family: &quot;DejaVu Sans Mono&quot;, &quot;Consolas&quot;, &quot;Menlo&quot;, &quot;Liberation Mono&quot;, monospace; font-size: 16.0px;" text-anchor="middle" dominant-baseline="central">Y26N</text><polygon points="203.0,101.0 203.0,91.0 213.0,101.0" fill="#000000"/></g><g data-channel="cell" data-cell-index="8" data-cell-row="2" data-cell-col="0"><rect x="23.0" y="121.0" width="48.0" height="20.0" fill="#55c82e"/><text x="47.0" y="131.0" fill="#000000" style="font-family: &quot;DejaVu Sans Mono&quot;, &quot;Consolas&quot;, &quot;Menlo&quot;, &quot;Liberation Mono&quot;, monospace; font-size: 16.0px;" text-anchor="middle" dominant-baseline="central">F3EF</text></g><g data-channel="cell" data-cell-index="9" data-cell-row="2" data-cell-col="1" data-cell-blank="true" data-cell-blank-marker="true"><circle cx="107.0" cy="131.0" r="17.0" fill="#ffffff" stroke="#000000" stroke-width="1"/><line x1="107.0" y1="131.0" x2="121.97690529808119" y2="121.01539646794588" stroke="#ffffff" style="mix-blend-mode: difference" stroke-width="1"/><line x1="107.0" y1="131.0" x2="107.0" y2="122.5" stroke="#000000" stroke-width="1"/><circle cx="107.0" cy="122.5" r="1.5" fill="#ffffff" stroke="#000000" stroke-width="1"/></g><g data-channel="cell" data-cell-index="10" data-cell-row="2" data-cell-col="2"><rect x="143.0" y="121.0" width="48.0" height="20.0" fill="#0017a6"/><text x="167.0" y="131.0" fill="#ffffff" style="font-family: &quot;DejaVu Sans Mono&quot;, &quot;Consolas&quot;, &quot;Menlo&quot;, &quot;Liberation Mono&quot;, monospace; font-size: 16.0px;" text-anchor="middle" dominant-baseline="central">UYLQ</text></g><g data-channel="cell" data-cell-index="11" data-cell-row="2" data-cell-col="3"><rect x="203.0" y="121.0" width="48.0" height="20.0" fill="#bb4b00"/><text x="227.0" y="131.0" fill="#ffffff" style="font-family: &quot;DejaVu Sans Mono&quot;, &quot;Consolas&quot;, &quot;Menlo&quot;, &quot;Liberation Mono&quot;, monospace; font-size: 16.0px;" text-anchor="middle" dominant-baseline="central">ABF3</text></g><g data-channel="cell" data-cell-index="12" data-cell-row="3" data-cell-col="0"><rect x="23.0" y="161.0" width="48.0" height="20.0" fill="#669670"/><text x="47.0" y="171.0" fill="#000000" style="font-family: &quot;DejaVu Sans Mono&quot;, &quot;Consolas&quot;, &quot;Menlo&quot;, &quot;Liberation Mono&quot;, monospace; font-size: 16.0px;" text-anchor="middle" dominant-baseline="central">OCLG</text></g><g data-channel="cell" data-cell-index="13" data-cell-row="3" data-cell-col="1" data-cell-quartile="3"><rect x="83.0" y="161.0" width="48.0" height="20.0" fill="#dd319c"/><text x="107.0" y="171.0" fill="#000000" style="font-family: &quot;DejaVu Sans Mono&quot;, &quot;Consolas&quot;, &quot;Menlo&quot;, &quot;Liberation Mono&quot;, monospace; font-size: 16.0px;" text-anchor="middle" dominant-baseline="central">TQY5</text><polygon points="131.0,181.0 131.0,171.0 121.0,181.0" fill="#000000"/></g><g data-channel="cell" data-cell-index="14" data-cell-row="3" data-cell-col="2"><rect x="143.0" y="161.0" width="48.0" height="20.0" fill="#9943e9"/><text x="167.0" y="171.0" fill="#ffffff" style="font-family: &quot;DejaVu Sans Mono&quot;, &quot;Consolas&quot;, &quot;Menlo&quot;, &quot;Liberation Mono&quot;, monospace; font-size: 16.0px;" text-anchor="middle" dominant-baseline="central">5FBZ</text></g><g data-channel="cell" data-cell-index="15" data-cell-row="3" data-cell-col="3"><rect x="203.0" y="161.0" width="48.0" height="20.0" fill="#88061a"/><text x="227.0" y="171.0" fill="#ffffff" style="font-family: &quot;DejaVu Sans Mono&quot;, &quot;Consolas&quot;, &quot;Menlo&quot;, &quot;Liberation Mono&quot;, monospace; font-size: 16.0px;" text-anchor="middle" dominant-baseline="central">DI</text></g></g></g><g data-channel="color-bar"><g data-color-bar-rank="0" data-color-bar-band="R"><rect x="1" y="1" width="10.0" height="89.23596203118282" fill="#ff3f2f"/><text x="6.0" y="45.61798101559141" fill="#000000" style="font-family: &quot;DejaVu Sans Mono&quot;, &quot;Consolas&quot;, &quot;Menlo&quot;, &quot;Liberation Mono&quot;, monospace; font-size: 8.5px;" text-anchor="middle" dominant-baseline="central" data-color-bar-letter="true">r</text></g><g data-color-bar-rank="1" data-color-bar-band="G"><rect x="1" y="90.23596203118282" width="10.0" height="64.78753925557953" fill="#ffd966"/><text x="6.0" y="122.62973165897259" fill="#000000" style="font-family: &quot;DejaVu Sans Mono&quot;, &quot;Consolas&quot;, &quot;Menlo&quot;, &quot;Liberation Mono&quot;, monospace; font-size: 8.5px;" text-anchor="middle" dominant-baseline="central" data-color-bar-letter="true">g</text></g><g data-color-bar-rank="2" data-color-bar-band="B"><rect x="1" y="155.02350128676235" width="10.0" height="29.212555186033907" fill="#2f3fbf"/><text x="6.0" y="169.6297788797793" fill="#ffffff" style="font-family: &quot;DejaVu Sans Mono&quot;, &quot;Consolas&quot;, &quot;Menlo&quot;, &quot;Liberation Mono&quot;, monospace; font-size: 8.5px;" text-anchor="middle" dominant-baseline="central" data-color-bar-letter="true">b</text></g><g data-color-bar-rank="3" data-color-bar-band="K"><rect x="1" y="184.23605647279626" width="10.0" height="11.763943527203736" fill="#000000"/><text x="6.0" y="190.11802823639812" fill="#ffffff" style="font-family: &quot;DejaVu Sans Mono&quot;, &quot;Consolas&quot;, &quot;Menlo&quot;, &quot;Liberation Mono&quot;, monospace; font-size: 8.234760469042614px;" text-anchor="middle" dominant-baseline="central" data-color-bar-letter="true">k</text></g></g><g data-channel="label-top"><text x="17.0" y="16.0" fill="#666666" style="font-family: &quot;DejaVu Sans Mono&quot;, &quot;Consolas&quot;, &quot;Menlo&quot;, &quot;Liberation Mono&quot;, monospace; font-size: 12.0px;" dominant-baseline="central">IPFS CID v1 256: b...</text></g><line x1="0" y1="0.5" x2="263.0" y2="0.5" stroke="#808080" stroke-width="1" shape-rendering="crispEdges"/><line x1="262.5" y1="0" x2="262.5" y2="197.0" stroke="#808080" stroke-width="1" shape-rendering="crispEdges"/><line x1="0" y1="196.5" x2="263.0" y2="196.5" stroke="#808080" stroke-width="1" shape-rendering="crispEdges"/><line x1="0.5" y1="0" x2="0.5" y2="197.0" stroke="#808080" stroke-width="1" shape-rendering="crispEdges"/><line x1="11.5" y1="0" x2="11.5" y2="197.0" stroke="#808080" stroke-width="1" shape-rendering="crispEdges"/></svg>