<svg width="213" height="172" viewBox="0 0 213 172" xmlns="http://www.w3.org/2000/svg" font-family="&quot;JetBrains Mono&quot;, &quot;Menlo&quot;, &quot;Consolas&quot;, &quot;DejaVu Sans Mono&quot;, &quot;Liberation Mono&quot;, &quot;Roboto Mono&quot;, &quot;Noto Sans Mono&quot;, monospace" data-entviz-version="v11" data-entviz-lib="0.10.0" data-input-bytes="43" data-cols="3" data-rows="3"><defs><clipPath id="grid-clip-ce5da880624d9baa-3x3"><rect x="27" y="26" width="180" height="120"/></clipPath></defs><rect x="0" y="0" width="213" height="172" fill="#ffffff"/><g data-channel="grid"><rect x="27" y="26" width="180" height="120" fill="#e7be00"/><g><path fill="#ffffff" d="M45 26h6v10h-6zM57 26h6v10h-6zM69 26h6v10h-6zM75 26h6v10h-6zM81 36h6v10h-6zM81 46h6v10h-6zM81 56h6v10h-6zM69 56h6v10h-6zM51 56h6v10h-6zM45 56h6v10h-6zM39 56h6v10h-6zM27 46h6v10h-6zM27 36h6v10h-6z"/><path fill="#000000" d="M87 26h6v10h-6zM99 26h6v10h-6zM105 26h6v10h-6zM123 26h6v10h-6zM141 26h6v10h-6zM135 56h6v10h-6zM129 56h6v10h-6zM87 36h6v10h-6z"/><path fill="#000000" d="M147 26h6v10h-6zM171 26h6v10h-6zM177 26h6v10h-6zM201 26h6v10h-6zM201 46h6v10h-6zM195 56h6v10h-6zM183 56h6v10h-6zM177 56h6v10h-6zM171 56h6v10h-6zM159 56h6v10h-6zM153 56h6v10h-6zM147 36h6v10h-6z"/><path fill="#ff3f2f" d="M87 66h6v10h-6zM117 66h6v10h-6zM129 66h6v10h-6zM135 66h6v10h-6zM141 86h6v10h-6zM135 96h6v10h-6zM129 96h6v10h-6zM123 96h6v10h-6zM117 96h6v10h-6zM111 96h6v10h-6zM87 86h6v10h-6z"/><path fill="#000000" d="M153 66h6v10h-6zM177 66h6v10h-6zM189 66h6v10h-6zM195 66h6v10h-6zM201 96h6v10h-6zM195 96h6v10h-6zM183 96h6v10h-6zM177 96h6v10h-6zM147 96h6v10h-6z"/><path fill="#ffffff" d="M27 106h6v10h-6zM33 106h6v10h-6zM45 106h6v10h-6zM63 106h6v10h-6zM81 106h6v10h-6zM81 116h6v10h-6zM81 136h6v10h-6zM75 136h6v10h-6zM69 136h6v10h-6zM45 136h6v10h-6zM33 136h6v10h-6z"/><path fill="#000000" d="M87 106h6v10h-6zM93 106h6v10h-6zM105 106h6v10h-6zM123 106h6v10h-6zM141 106h6v10h-6zM141 126h6v10h-6zM135 136h6v10h-6zM129 136h6v10h-6zM123 136h6v10h-6zM117 136h6v10h-6zM111 136h6v10h-6zM99 136h6v10h-6zM87 116h6v10h-6z"/><path fill="#2f3fbf" d="M153 106h6v10h-6zM165 106h6v10h-6zM171 106h6v10h-6zM177 106h6v10h-6zM189 106h6v10h-6zM195 106h6v10h-6zM201 106h6v10h-6zM183 136h6v10h-6zM159 136h6v10h-6zM153 136h6v10h-6zM147 136h6v10h-6z"/></g><g clip-path="url(#grid-clip-ce5da880624d9baa-3x3)" data-channel="ellipse" data-ellipse-anchor-x="87" data-ellipse-anchor-y="26" data-ellipse-rx="90.283" data-ellipse-ry="49.554" data-ellipse-rotation-deg="0"><ellipse cx="87" cy="26" rx="90.283" ry="49.554" transform="rotate(0 87 26)" fill="#000000" stroke="#000000" fill-opacity="0.2" stroke-opacity="0.3" stroke-width="2"/></g><g><g data-channel="cell" data-cell-index="0" data-cell-row="0" data-cell-col="0" data-surround-bits="0xce5da8" data-edge-color="#ffffff" data-cell-quartile="4"><rect x="33" y="36" width="48" height="20" fill="#000100"/><text x="57" y="46" fill="#ffffff" font-size="16" text-anchor="middle" dominant-baseline="central">qqqs</text><polygon points="33,56 33,46 43,56" fill="#ffffff"/></g><g data-channel="cell" data-cell-index="1" data-cell-row="0" data-cell-col="1" data-surround-bits="0x80624d" data-edge-color="#000000"><rect x="93" y="36" width="48" height="20" fill="#443020"/><text x="117" y="46" fill="#ffffff" font-size="16" text-anchor="middle" dominant-baseline="central">yqcy</text></g><g data-channel="cell" data-cell-index="2" data-cell-row="0" data-cell-col="2" data-surround-bits="0x9baa31" data-edge-color="#000000"><rect x="153" y="36" width="48" height="20" fill="#000605"/><text x="177" y="46" fill="#ffffff" font-size="16" text-anchor="middle" dominant-baseline="central">q5rq</text></g><g data-channel="cell" data-cell-index="3" data-cell-row="1" data-cell-col="0" data-cell-blank="true" data-cell-blank-map="true"><rect x="33" y="76" width="48" height="20" rx="10" ry="10" fill="#ff3f2f" stroke="#000000" stroke-width="1"/><circle cx="41" cy="92.667" r="3.5" fill="#000000" data-blank-map-min="2,0"/><path d="M 36.8,79.333 H 45.2 M 41,75.133 V 83.533" fill="none" stroke="#000000" stroke-width="1.925" stroke-linecap="butt" data-blank-map-max="0,0"/></g><g data-channel="cell" data-cell-index="4" data-cell-row="1" data-cell-col="1" data-surround-bits="0x43e9a1" data-edge-color="#ff3f2f" data-cell-quartile="3"><rect x="93" y="76" width="48" height="20" fill="#998070"/><text x="117" y="86" fill="#000000" font-size="16" text-anchor="middle" dominant-baseline="central">wzqf</text><polygon points="141,96 141,86 131,96" fill="#000000"/></g><g data-channel="cell" data-cell-index="5" data-cell-row="1" data-cell-col="2" data-surround-bits="0x21b1a2" data-edge-color="#000000"><rect x="153" y="76" width="48" height="20" fill="#000b0a"/><text x="177" y="86" fill="#ffffff" font-size="16" text-anchor="middle" dominant-baseline="central">pg9s</text></g><g data-channel="cell" data-cell-index="6" data-cell-row="2" data-cell-col="0" data-surround-bits="0x14764b" data-edge-color="#ffffff"><rect x="33" y="116" width="48" height="20" fill="#eed0c0"/><text x="57" y="126" fill="#000000" font-size="16" text-anchor="middle" dominant-baseline="central">crgw</text></g><g data-channel="cell" data-cell-index="7" data-cell-row="2" data-cell-col="1" data-surround-bits="0x8bea4b" data-edge-color="#000000" data-cell-quartile="2"><rect x="93" y="116" width="48" height="20" fill="#11100f"/><text x="117" y="126" fill="#ffffff" font-size="16" text-anchor="middle" dominant-baseline="central">pugp</text><polygon points="141,116 131,116 141,126" fill="#ffffff"/></g><g data-channel="cell" data-cell-index="8" data-cell-row="2" data-cell-col="2" data-surround-bits="0x3883ba" data-edge-color="#2f3fbf" data-cell-quartile="1"><rect x="153" y="116" width="48" height="20" fill="#332111"/><text x="177" y="126" fill="#ffffff" font-size="16" text-anchor="middle" dominant-baseline="central">zysn</text><polygon points="153,116 163,116 153,126" fill="#ffffff"/></g></g></g><g data-channel="color-bar" data-bar-slots="14" data-bar-marker-left="4" data-bar-marker-right="9"><g data-color-bar-rank="0" data-color-bar-band="B"><rect x="1" y="1" width="20" height="38.195" fill="#2f3fbf"/><text x="11" y="35.675" fill="#ffffff" font-size="16" text-anchor="middle" data-color-bar-letter="true">b</text></g><g data-color-bar-rank="1" data-color-bar-band="K"><rect x="1" y="39.195" width="20" height="33.571" fill="#000000"/><text x="11" y="69.246" fill="#ffffff" font-size="16" text-anchor="middle" data-color-bar-letter="true">k</text></g><g data-color-bar-rank="2" data-color-bar-band="W"><rect x="1" y="72.766" width="20" height="68.855" fill="#ffffff"/><text x="11" y="138.1" fill="#000000" font-size="16" text-anchor="middle" data-color-bar-letter="true">w</text></g><g data-color-bar-rank="3" data-color-bar-band="R"><rect x="1" y="141.62" width="20" height="29.38" fill="#ff3f2f"/><text x="11" y="167.48" fill="#000000" font-size="16" text-anchor="middle" data-color-bar-letter="true">r</text></g><circle cx="5.6" cy="55.643" r="3.4" fill="#ffffff" stroke="#000000" stroke-width="0.75" data-bar-marker="left"/><circle cx="16.4" cy="116.357" r="3.4" fill="#ffffff" stroke="#000000" stroke-width="0.75" data-bar-marker="right"/></g><g data-channel="label-top"><text x="27" y="16" fill="#666666" font-size="12" dominant-baseline="central">bech32: osmo1...</text></g><g data-channel="label-bottom"><text x="207" y="156" fill="#666666" font-size="12" text-anchor="end" dominant-baseline="central">...tdz28t</text></g><line x1="0" y1="0.5" x2="213" y2="0.5" stroke="#808080" stroke-width="1" shape-rendering="crispEdges"/><line x1="212.5" y1="0" x2="212.5" y2="172" stroke="#808080" stroke-width="1" shape-rendering="crispEdges"/><line x1="0" y1="171.5" x2="213" y2="171.5" stroke="#808080" stroke-width="1" shape-rendering="crispEdges"/><line x1="0.5" y1="0" x2="0.5" y2="172" stroke="#808080" stroke-width="1" shape-rendering="crispEdges"/><line x1="21.5" y1="0" x2="21.5" y2="172" stroke="#808080" stroke-width="1" shape-rendering="crispEdges"/></svg>