<svg width="213.0" height="172.0" viewBox="0 0 213.0 172.0" xmlns="http://www.w3.org/2000/svg" data-entviz-version="v9" data-entviz-lib="0.7.2" data-input-bytes="43" data-cols="3" data-rows="3"><defs><clipPath id="grid-clip-ce5da880624d9baa-3x3"><rect x="27.0" y="26.0" width="180.0" height="120.0"/></clipPath></defs><rect x="0" y="0" width="213.0" height="172.0" fill="#ffffff"/><g data-channel="grid"><rect x="27.0" y="26.0" width="180.0" height="120.0" fill="#e7be00"/><g><rect x="45.0" y="26.0" width="6.0" height="10.0" fill="#000000"/><rect x="57.0" y="26.0" width="6.0" height="10.0" fill="#000000"/><rect x="69.0" y="26.0" width="6.0" height="10.0" fill="#000000"/><rect x="75.0" y="26.0" width="6.0" height="10.0" fill="#000000"/><rect x="81.0" y="36.0" width="6.0" height="10.0" fill="#000000"/><rect x="81.0" y="46.0" width="6.0" height="10.0" fill="#000000"/><rect x="81.0" y="56.0" width="6.0" height="10.0" fill="#000000"/><rect x="69.0" y="56.0" width="6.0" height="10.0" fill="#000000"/><rect x="51.0" y="56.0" width="6.0" height="10.0" fill="#000000"/><rect x="45.0" y="56.0" width="6.0" height="10.0" fill="#000000"/><rect x="39.0" y="56.0" width="6.0" height="10.0" fill="#000000"/><rect x="27.0" y="46.0" width="6.0" height="10.0" fill="#000000"/><rect x="27.0" y="36.0" width="6.0" height="10.0" fill="#000000"/><rect x="87.0" y="26.0" width="6.0" height="10.0" fill="#000000"/><rect x="99.0" y="26.0" width="6.0" height="10.0" fill="#000000"/><rect x="105.0" y="26.0" width="6.0" height="10.0" fill="#000000"/><rect x="123.0" y="26.0" width="6.0" height="10.0" fill="#000000"/><rect x="141.0" y="26.0" width="6.0" height="10.0" fill="#000000"/><rect x="135.0" y="56.0" width="6.0" height="10.0" fill="#000000"/><rect x="129.0" y="56.0" width="6.0" height="10.0" fill="#000000"/><rect x="87.0" y="36.0" width="6.0" height="10.0" fill="#000000"/><rect x="147.0" y="26.0" width="6.0" height="10.0" fill="#000000"/><rect x="171.0" y="26.0" width="6.0" height="10.0" fill="#000000"/><rect x="177.0" y="26.0" width="6.0" height="10.0" fill="#000000"/><rect x="201.0" y="26.0" width="6.0" height="10.0" fill="#000000"/><rect x="201.0" y="46.0" width="6.0" height="10.0" fill="#000000"/><rect x="195.0" y="56.0" width="6.0" height="10.0" fill="#000000"/><rect x="183.0" y="56.0" width="6.0" height="10.0" fill="#000000"/><rect x="177.0" y="56.0" width="6.0" height="10.0" fill="#000000"/><rect x="171.0" y="56.0" width="6.0" height="10.0" fill="#000000"/><rect x="159.0" y="56.0" width="6.0" height="10.0" fill="#000000"/><rect x="153.0" y="56.0" width="6.0" height="10.0" fill="#000000"/><rect x="147.0" y="36.0" width="6.0" height="10.0" fill="#000000"/><rect x="87.0" y="66.0" width="6.0" height="10.0" fill="#ff3f2f"/><rect x="117.0" y="66.0" width="6.0" height="10.0" fill="#ff3f2f"/><rect x="129.0" y="66.0" width="6.0" height="10.0" fill="#ff3f2f"/><rect x="135.0" y="66.0" width="6.0" height="10.0" fill="#ff3f2f"/><rect x="141.0" y="86.0" width="6.0" height="10.0" fill="#ff3f2f"/><rect x="135.0" y="96.0" width="6.0" height="10.0" fill="#ff3f2f"/><rect x="129.0" y="96.0" width="6.0" height="10.0" fill="#ff3f2f"/><rect x="123.0" y="96.0" width="6.0" height="10.0" fill="#ff3f2f"/><rect x="117.0" y="96.0" width="6.0" height="10.0" fill="#ff3f2f"/><rect x="111.0" y="96.0" width="6.0" height="10.0" fill="#ff3f2f"/><rect x="87.0" y="86.0" width="6.0" height="10.0" fill="#ff3f2f"/><rect x="153.0" y="66.0" width="6.0" height="10.0" fill="#000000"/><rect x="177.0" y="66.0" width="6.0" height="10.0" fill="#000000"/><rect x="189.0" y="66.0" width="6.0" height="10.0" fill="#000000"/><rect x="195.0" y="66.0" width="6.0" height="10.0" fill="#000000"/><rect x="201.0" y="96.0" width="6.0" height="10.0" fill="#000000"/><rect x="195.0" y="96.0" width="6.0" height="10.0" fill="#000000"/><rect x="183.0" y="96.0" width="6.0" height="10.0" fill="#000000"/><rect x="177.0" y="96.0" width="6.0" height="10.0" fill="#000000"/><rect x="147.0" y="96.0" width="6.0" height="10.0" fill="#000000"/><rect x="27.0" y="106.0" width="6.0" height="10.0" fill="#ffffff"/><rect x="33.0" y="106.0" width="6.0" height="10.0" fill="#ffffff"/><rect x="45.0" y="106.0" width="6.0" height="10.0" fill="#ffffff"/><rect x="63.0" y="106.0" width="6.0" height="10.0" fill="#ffffff"/><rect x="81.0" y="106.0" width="6.0" height="10.0" fill="#ffffff"/><rect x="81.0" y="116.0" width="6.0" height="10.0" fill="#ffffff"/><rect x="81.0" y="136.0" width="6.0" height="10.0" fill="#ffffff"/><rect x="75.0" y="136.0" width="6.0" height="10.0" fill="#ffffff"/><rect x="69.0" y="136.0" width="6.0" height="10.0" fill="#ffffff"/><rect x="45.0" y="136.0" width="6.0" height="10.0" fill="#ffffff"/><rect x="33.0" y="136.0" width="6.0" height="10.0" fill="#ffffff"/><rect x="87.0" y="106.0" width="6.0" height="10.0" fill="#000000"/><rect x="93.0" y="106.0" width="6.0" height="10.0" fill="#000000"/><rect x="105.0" y="106.0" width="6.0" height="10.0" fill="#000000"/><rect x="123.0" y="106.0" width="6.0" height="10.0" fill="#000000"/><rect x="141.0" y="106.0" width="6.0" height="10.0" fill="#000000"/><rect x="141.0" y="126.0" width="6.0" height="10.0" fill="#000000"/><rect x="135.0" y="136.0" width="6.0" height="10.0" fill="#000000"/><rect x="129.0" y="136.0" width="6.0" height="10.0" fill="#000000"/><rect x="123.0" y="136.0" width="6.0" height="10.0" fill="#000000"/><rect x="117.0" y="136.0" width="6.0" height="10.0" fill="#000000"/><rect x="111.0" y="136.0" width="6.0" height="10.0" fill="#000000"/><rect x="99.0" y="136.0" width="6.0" height="10.0" fill="#000000"/><rect x="87.0" y="116.0" width="6.0" height="10.0" fill="#000000"/><rect x="153.0" y="106.0" width="6.0" height="10.0" fill="#000000"/><rect x="165.0" y="106.0" width="6.0" height="10.0" fill="#000000"/><rect x="171.0" y="106.0" width="6.0" height="10.0" fill="#000000"/><rect x="177.0" y="106.0" width="6.0" height="10.0" fill="#000000"/><rect x="189.0" y="106.0" width="6.0" height="10.0" fill="#000000"/><rect x="195.0" y="106.0" width="6.0" height="10.0" fill="#000000"/><rect x="201.0" y="106.0" width="6.0" height="10.0" fill="#000000"/><rect x="183.0" y="136.0" width="6.0" height="10.0" fill="#000000"/><rect x="159.0" y="136.0" width="6.0" height="10.0" fill="#000000"/><rect x="153.0" y="136.0" width="6.0" height="10.0" fill="#000000"/><rect x="147.0" y="136.0" width="6.0" height="10.0" fill="#000000"/></g><g clip-path="url(#grid-clip-ce5da880624d9baa-3x3)" data-channel="ellipse" data-ellipse-anchor-x="87.0" data-ellipse-anchor-y="26.0" data-ellipse-rx="90.28339382189839" data-ellipse-ry="49.55404322555325" data-ellipse-rotation-deg="0.0"><ellipse cx="87.0" cy="26.0" rx="90.28339382189839" ry="49.55404322555325" transform="rotate(0.0 87.0 26.0)" fill="#000000" stroke="#000000" fill-opacity="0.2" stroke-opacity="0.3" stroke-width="2.0"/></g><g><g data-channel="cell" data-cell-index="0" data-cell-row="0" data-cell-col="0" data-cell-quartile="4"><rect x="33.0" y="36.0" width="48.0" height="20.0" fill="#000100"/><text x="57.0" y="46.0" fill="#ffffff" style="font-family: &quot;JetBrains Mono&quot;, &quot;Menlo&quot;, &quot;Consolas&quot;, &quot;DejaVu Sans Mono&quot;, &quot;Liberation Mono&quot;, &quot;Roboto Mono&quot;, &quot;Noto Sans Mono&quot;, monospace; font-size: 16.0px;" text-anchor="middle" dominant-baseline="central">qqqs</text><polygon points="33.0,56.0 33.0,46.0 43.0,56.0" fill="#ffffff"/></g><g data-channel="cell" data-cell-index="1" data-cell-row="0" data-cell-col="1"><rect x="93.0" y="36.0" width="48.0" height="20.0" fill="#443020"/><text x="117.0" y="46.0" fill="#ffffff" style="font-family: &quot;JetBrains Mono&quot;, &quot;Menlo&quot;, &quot;Consolas&quot;, &quot;DejaVu Sans Mono&quot;, &quot;Liberation Mono&quot;, &quot;Roboto Mono&quot;, &quot;Noto Sans Mono&quot;, monospace; font-size: 16.0px;" text-anchor="middle" dominant-baseline="central">yqcy</text></g><g data-channel="cell" data-cell-index="2" data-cell-row="0" data-cell-col="2"><rect x="153.0" y="36.0" width="48.0" height="20.0" fill="#000605"/><text x="177.0" y="46.0" fill="#ffffff" style="font-family: &quot;JetBrains Mono&quot;, &quot;Menlo&quot;, &quot;Consolas&quot;, &quot;DejaVu Sans Mono&quot;, &quot;Liberation Mono&quot;, &quot;Roboto Mono&quot;, &quot;Noto Sans Mono&quot;, monospace; font-size: 16.0px;" text-anchor="middle" dominant-baseline="central">q5rq</text></g><g data-channel="cell" data-cell-index="3" data-cell-row="1" data-cell-col="0" data-cell-blank="true" data-cell-blank-map="true"><rect x="33.0" y="76.0" width="48.0" height="20.0" rx="10.0" ry="10.0" fill="#ffffff" stroke="#000000" stroke-width="1"/><circle cx="41.0" cy="92.66666666666667" r="3.5" fill="#1d4ed8" data-blank-map-min="2,0"/><path d="M 36.8,79.33333333333333 H 45.2 M 41.0,75.13333333333333 V 83.53333333333333" fill="none" stroke="#d62828" stroke-width="1.9250000000000003" stroke-linecap="butt" data-blank-map-max="0,0"/></g><g data-channel="cell" data-cell-index="4" data-cell-row="1" data-cell-col="1" data-cell-quartile="3"><rect x="93.0" y="76.0" width="48.0" height="20.0" fill="#998070"/><text x="117.0" y="86.0" fill="#000000" style="font-family: &quot;JetBrains Mono&quot;, &quot;Menlo&quot;, &quot;Consolas&quot;, &quot;DejaVu Sans Mono&quot;, &quot;Liberation Mono&quot;, &quot;Roboto Mono&quot;, &quot;Noto Sans Mono&quot;, monospace; font-size: 16.0px;" text-anchor="middle" dominant-baseline="central">wzqf</text><polygon points="141.0,96.0 141.0,86.0 131.0,96.0" fill="#000000"/></g><g data-channel="cell" data-cell-index="5" data-cell-row="1" data-cell-col="2"><rect x="153.0" y="76.0" width="48.0" height="20.0" fill="#000b0a"/><text x="177.0" y="86.0" fill="#ffffff" style="font-family: &quot;JetBrains Mono&quot;, &quot;Menlo&quot;, &quot;Consolas&quot;, &quot;DejaVu Sans Mono&quot;, &quot;Liberation Mono&quot;, &quot;Roboto Mono&quot;, &quot;Noto Sans Mono&quot;, monospace; font-size: 16.0px;" text-anchor="middle" dominant-baseline="central">pg9s</text></g><g data-channel="cell" data-cell-index="6" data-cell-row="2" data-cell-col="0"><rect x="33.0" y="116.0" width="48.0" height="20.0" fill="#eed0c0"/><text x="57.0" y="126.0" fill="#000000" style="font-family: &quot;JetBrains Mono&quot;, &quot;Menlo&quot;, &quot;Consolas&quot;, &quot;DejaVu Sans Mono&quot;, &quot;Liberation Mono&quot;, &quot;Roboto Mono&quot;, &quot;Noto Sans Mono&quot;, monospace; font-size: 16.0px;" text-anchor="middle" dominant-baseline="central">crgw</text></g><g data-channel="cell" data-cell-index="7" data-cell-row="2" data-cell-col="1" data-cell-quartile="2"><rect x="93.0" y="116.0" width="48.0" height="20.0" fill="#11100f"/><text x="117.0" y="126.0" fill="#ffffff" style="font-family: &quot;JetBrains Mono&quot;, &quot;Menlo&quot;, &quot;Consolas&quot;, &quot;DejaVu Sans Mono&quot;, &quot;Liberation Mono&quot;, &quot;Roboto Mono&quot;, &quot;Noto Sans Mono&quot;, monospace; font-size: 16.0px;" text-anchor="middle" dominant-baseline="central">pugp</text><polygon points="141.0,116.0 131.0,116.0 141.0,126.0" fill="#ffffff"/></g><g data-channel="cell" data-cell-index="8" data-cell-row="2" data-cell-col="2" data-cell-quartile="1"><rect x="153.0" y="116.0" width="48.0" height="20.0" fill="#332111"/><text x="177.0" y="126.0" fill="#ffffff" style="font-family: &quot;JetBrains Mono&quot;, &quot;Menlo&quot;, &quot;Consolas&quot;, &quot;DejaVu Sans Mono&quot;, &quot;Liberation Mono&quot;, &quot;Roboto Mono&quot;, &quot;Noto Sans Mono&quot;, monospace; font-size: 16.0px;" text-anchor="middle" dominant-baseline="central">zysn</text><polygon points="153.0,116.0 163.0,116.0 153.0,126.0" fill="#ffffff"/></g></g></g><g data-channel="color-bar" data-bar-slots="14" data-bar-marker-square="4" data-bar-marker-triangle="9"><g data-color-bar-rank="0" data-color-bar-band="B"><rect x="1" y="1" width="20.0" height="38.19476765430396" fill="#2f3fbf"/><text x="11.0" y="35.674767654303956" fill="#ffffff" style="font-family: &quot;JetBrains Mono&quot;, &quot;Menlo&quot;, &quot;Consolas&quot;, &quot;DejaVu Sans Mono&quot;, &quot;Liberation Mono&quot;, &quot;Roboto Mono&quot;, &quot;Noto Sans Mono&quot;, monospace; font-size: 16.0px;" text-anchor="middle" data-color-bar-letter="true">b</text></g><g data-color-bar-rank="1" data-color-bar-band="K"><rect x="1" y="39.19476765430396" width="20.0" height="33.570747745356286" fill="#000000"/><text x="11.0" y="69.24551539966025" fill="#ffffff" style="font-family: &quot;JetBrains Mono&quot;, &quot;Menlo&quot;, &quot;Consolas&quot;, &quot;DejaVu Sans Mono&quot;, &quot;Liberation Mono&quot;, &quot;Roboto Mono&quot;, &quot;Noto Sans Mono&quot;, monospace; font-size: 16.0px;" text-anchor="middle" data-color-bar-letter="true">k</text></g><g data-color-bar-rank="2" data-color-bar-band="W"><rect x="1" y="72.76551539966025" width="20.0" height="68.85462465030723" fill="#ffffff"/><text x="11.0" y="138.10014004996745" fill="#000000" style="font-family: &quot;JetBrains Mono&quot;, &quot;Menlo&quot;, &quot;Consolas&quot;, &quot;DejaVu Sans Mono&quot;, &quot;Liberation Mono&quot;, &quot;Roboto Mono&quot;, &quot;Noto Sans Mono&quot;, monospace; font-size: 16.0px;" text-anchor="middle" data-color-bar-letter="true">w</text></g><g data-color-bar-rank="3" data-color-bar-band="R"><rect x="1" y="141.62014004996746" width="20.0" height="29.37985995003254" fill="#ff3f2f"/><text x="11.0" y="167.48" fill="#000000" style="font-family: &quot;JetBrains Mono&quot;, &quot;Menlo&quot;, &quot;Consolas&quot;, &quot;DejaVu Sans Mono&quot;, &quot;Liberation Mono&quot;, &quot;Roboto Mono&quot;, &quot;Noto Sans Mono&quot;, monospace; font-size: 16.0px;" text-anchor="middle" data-color-bar-letter="true">r</text></g><rect x="2.1999999999999997" y="52.84285714285714" width="5.6000000000000005" height="5.6000000000000005" fill="#ffffff" stroke="#000000" stroke-width="0.75" data-bar-marker="square"/><polygon points="17.0,113.55714285714285 14.2,119.15714285714284 19.8,119.15714285714284" fill="#ffffff" stroke="#000000" stroke-width="0.75" data-bar-marker="triangle"/></g><g data-channel="label-top"><text x="27.0" y="16.0" fill="#666666" style="font-family: &quot;JetBrains Mono&quot;, &quot;Menlo&quot;, &quot;Consolas&quot;, &quot;DejaVu Sans Mono&quot;, &quot;Liberation Mono&quot;, &quot;Roboto Mono&quot;, &quot;Noto Sans Mono&quot;, monospace; font-size: 12.0px;" dominant-baseline="central">bech32: osmo1...</text></g><g data-channel="label-bottom"><text x="207.0" y="156.0" fill="#666666" style="font-family: &quot;JetBrains Mono&quot;, &quot;Menlo&quot;, &quot;Consolas&quot;, &quot;DejaVu Sans Mono&quot;, &quot;Liberation Mono&quot;, &quot;Roboto Mono&quot;, &quot;Noto Sans Mono&quot;, monospace; font-size: 12.0px;" text-anchor="end" dominant-baseline="central">...tdz28t</text></g><line x1="0" y1="0.5" x2="213.0" y2="0.5" stroke="#808080" stroke-width="1" shape-rendering="crispEdges"/><line x1="212.5" y1="0" x2="212.5" y2="172.0" stroke="#808080" stroke-width="1" shape-rendering="crispEdges"/><line x1="0" y1="171.5" x2="213.0" y2="171.5" stroke="#808080" stroke-width="1" shape-rendering="crispEdges"/><line x1="0.5" y1="0" x2="0.5" y2="172.0" stroke="#808080" stroke-width="1" shape-rendering="crispEdges"/><line x1="21.5" y1="0" x2="21.5" y2="172.0" stroke="#808080" stroke-width="1" shape-rendering="crispEdges"/></svg>