<svg width="215" height="174" viewBox="0 0 215 174" xmlns="http://www.w3.org/2000/svg" font-family="&quot;JetBrains Mono&quot;, &quot;Menlo&quot;, &quot;Consolas&quot;, &quot;DejaVu Sans Mono&quot;, &quot;Liberation Mono&quot;, &quot;Roboto Mono&quot;, &quot;Noto Sans Mono&quot;, monospace" data-entviz-version="v15" data-entviz-lib="0.15.1" data-input-bytes="43" data-cols="3" data-rows="3" data-encoding="bech32" data-scheme="bech32" data-role="address" data-size-basis="decoded" data-entropy-type="bech32" data-size-bits="160" data-qualifiers="{&quot;hrp&quot;:&quot;osmo&quot;}" data-parts="[{&quot;text&quot;:&quot;osmo1&quot;,&quot;bind&quot;:&quot;none&quot;},{&quot;text&quot;:&quot;qqqsyqcyq5rqwzqfpg9scrgwpugpzysn&quot;,&quot;bind&quot;:&quot;core&quot;},{&quot;text&quot;:&quot;tdz28t&quot;,&quot;bind&quot;:&quot;none&quot;}]"><defs><clipPath id="grid-clip-ce5da880624d9baa-3x3"><rect x="28" y="27" width="180" height="120"/></clipPath></defs><rect x="1" y="1" width="213" height="172" fill="#ffffff"/><g data-channel="grid"><rect x="28" y="27" width="180" height="120" fill="#e7be00"/><g><path fill="#ffffff" d="M46 27h6v10h-6zM58 27h6v10h-6zM70 27h6v10h-6zM76 27h6v10h-6zM82 37h6v10h-6zM82 47h6v10h-6zM82 57h6v10h-6zM70 57h6v10h-6zM52 57h6v10h-6zM46 57h6v10h-6zM40 57h6v10h-6zM28 47h6v10h-6zM28 37h6v10h-6z"/><path fill="#000000" d="M88 27h6v10h-6zM100 27h6v10h-6zM106 27h6v10h-6zM124 27h6v10h-6zM142 27h6v10h-6zM136 57h6v10h-6zM130 57h6v10h-6zM88 37h6v10h-6z"/><path fill="#000000" d="M148 27h6v10h-6zM172 27h6v10h-6zM178 27h6v10h-6zM202 27h6v10h-6zM202 47h6v10h-6zM196 57h6v10h-6zM184 57h6v10h-6zM178 57h6v10h-6zM172 57h6v10h-6zM160 57h6v10h-6zM154 57h6v10h-6zM148 37h6v10h-6z"/><path fill="#ff3f2f" d="M88 67h6v10h-6zM118 67h6v10h-6zM130 67h6v10h-6zM136 67h6v10h-6zM142 87h6v10h-6zM136 97h6v10h-6zM130 97h6v10h-6zM124 97h6v10h-6zM118 97h6v10h-6zM112 97h6v10h-6zM88 87h6v10h-6z"/><path fill="#000000" d="M154 67h6v10h-6zM178 67h6v10h-6zM190 67h6v10h-6zM196 67h6v10h-6zM202 97h6v10h-6zM196 97h6v10h-6zM184 97h6v10h-6zM178 97h6v10h-6zM148 97h6v10h-6z"/><path fill="#ffffff" d="M28 107h6v10h-6zM34 107h6v10h-6zM46 107h6v10h-6zM64 107h6v10h-6zM82 107h6v10h-6zM82 117h6v10h-6zM82 137h6v10h-6zM76 137h6v10h-6zM70 137h6v10h-6zM46 137h6v10h-6zM34 137h6v10h-6z"/><path fill="#000000" d="M88 107h6v10h-6zM94 107h6v10h-6zM106 107h6v10h-6zM124 107h6v10h-6zM142 107h6v10h-6zM142 127h6v10h-6zM136 137h6v10h-6zM130 137h6v10h-6zM124 137h6v10h-6zM118 137h6v10h-6zM112 137h6v10h-6zM100 137h6v10h-6zM88 117h6v10h-6z"/><path fill="#2f3fbf" d="M154 107h6v10h-6zM166 107h6v10h-6zM172 107h6v10h-6zM178 107h6v10h-6zM190 107h6v10h-6zM196 107h6v10h-6zM202 107h6v10h-6zM184 137h6v10h-6zM160 137h6v10h-6zM154 137h6v10h-6zM148 137h6v10h-6z"/></g><g clip-path="url(#grid-clip-ce5da880624d9baa-3x3)" data-channel="ellipse" data-ellipse-anchor-x="88" data-ellipse-anchor-y="27" data-ellipse-rx="90.283" data-ellipse-ry="49.554" data-ellipse-rotation-deg="0"><ellipse cx="88" cy="27" rx="90.283" ry="49.554" transform="rotate(0 88 27)" fill="#000000" stroke="#000000" fill-opacity="0.2" stroke-opacity="0.3" stroke-width="2"/></g><g><g data-channel="cell" data-cell-index="0" data-cell-row="0" data-cell-col="0" data-surround-bits="0xce5da8" data-edge-color="#ffffff" data-cell-quartile="4"><rect x="34" y="37" width="48" height="20" fill="#000100"/><text x="58" y="47" fill="#ffffff" font-size="16" text-anchor="middle" dominant-baseline="central">qqqs</text><polygon points="34,57 34,47 44,57" fill="#ffffff"/></g><g data-channel="cell" data-cell-index="1" data-cell-row="0" data-cell-col="1" data-surround-bits="0x80624d" data-edge-color="#000000"><rect x="94" y="37" width="48" height="20" fill="#443020"/><text x="118" y="47" fill="#ffffff" font-size="16" text-anchor="middle" dominant-baseline="central">yqcy</text></g><g data-channel="cell" data-cell-index="2" data-cell-row="0" data-cell-col="2" data-surround-bits="0x9baa31" data-edge-color="#000000"><rect x="154" y="37" width="48" height="20" fill="#000605"/><text x="178" y="47" fill="#ffffff" font-size="16" text-anchor="middle" dominant-baseline="central">q5rq</text></g><g data-channel="cell" data-cell-index="3" data-cell-row="1" data-cell-col="0" data-cell-blank="true" data-cell-blank-map="true"><rect x="34" y="77" width="48" height="20" rx="10" ry="10" fill="#ff3f2f" stroke="#000000" stroke-width="1"/><circle cx="42" cy="93.667" r="3.5" fill="#000000" data-blank-map-min="2,0"/><path d="M 37.8,80.333 H 46.2 M 42,76.133 V 84.533" fill="none" stroke="#000000" stroke-width="1.925" stroke-linecap="butt" data-blank-map-max="0,0"/></g><g data-channel="cell" data-cell-index="4" data-cell-row="1" data-cell-col="1" data-surround-bits="0x43e9a1" data-edge-color="#ff3f2f" data-cell-quartile="3"><rect x="94" y="77" width="48" height="20" fill="#998070"/><text x="118" y="87" fill="#000000" font-size="16" text-anchor="middle" dominant-baseline="central">wzqf</text><polygon points="142,97 142,87 132,97" fill="#000000"/></g><g data-channel="cell" data-cell-index="5" data-cell-row="1" data-cell-col="2" data-surround-bits="0x21b1a2" data-edge-color="#000000"><rect x="154" y="77" width="48" height="20" fill="#000b0a"/><text x="178" y="87" fill="#ffffff" font-size="16" text-anchor="middle" dominant-baseline="central">pg9s</text></g><g data-channel="cell" data-cell-index="6" data-cell-row="2" data-cell-col="0" data-surround-bits="0x14764b" data-edge-color="#ffffff"><rect x="34" y="117" width="48" height="20" fill="#eed0c0"/><text x="58" y="127" fill="#000000" font-size="16" text-anchor="middle" dominant-baseline="central">crgw</text></g><g data-channel="cell" data-cell-index="7" data-cell-row="2" data-cell-col="1" data-surround-bits="0x8bea4b" data-edge-color="#000000" data-cell-quartile="2"><rect x="94" y="117" width="48" height="20" fill="#11100f"/><text x="118" y="127" fill="#ffffff" font-size="16" text-anchor="middle" dominant-baseline="central">pugp</text><polygon points="142,117 132,117 142,127" fill="#ffffff"/></g><g data-channel="cell" data-cell-index="8" data-cell-row="2" data-cell-col="2" data-surround-bits="0x3883ba" data-edge-color="#2f3fbf" data-cell-quartile="1"><rect x="154" y="117" width="48" height="20" fill="#332111"/><text x="178" y="127" fill="#ffffff" font-size="16" text-anchor="middle" dominant-baseline="central">zysn</text><polygon points="154,117 164,117 154,127" fill="#ffffff"/></g></g></g><g data-channel="color-bar" data-bar-slots="14" data-bar-marker-left="4" data-bar-marker-right="9"><g data-color-bar-rank="0" data-color-bar-band="B"><rect x="2" y="2" width="20" height="38.195" fill="#2f3fbf"/><text x="12" y="36.675" fill="#ffffff" font-size="16" text-anchor="middle" data-color-bar-letter="true">b</text></g><g data-color-bar-rank="1" data-color-bar-band="K"><rect x="2" y="40.195" width="20" height="33.571" fill="#000000"/><text x="12" y="70.246" fill="#ffffff" font-size="16" text-anchor="middle" data-color-bar-letter="true">k</text></g><g data-color-bar-rank="2" data-color-bar-band="W"><rect x="2" y="73.766" width="20" height="68.855" fill="#ffffff"/><text x="12" y="139.1" fill="#000000" font-size="16" text-anchor="middle" data-color-bar-letter="true">w</text></g><g data-color-bar-rank="3" data-color-bar-band="R"><rect x="2" y="142.62" width="20" height="29.38" fill="#ff3f2f"/><text x="12" y="168.48" fill="#000000" font-size="16" text-anchor="middle" data-color-bar-letter="true">r</text></g><circle cx="6.6" cy="56.643" r="3.4" fill="#ffffff" stroke="#000000" stroke-width="0.75" data-bar-marker="left"/><circle cx="17.4" cy="117.357" r="3.4" fill="#ffffff" stroke="#000000" stroke-width="0.75" data-bar-marker="right"/></g><g data-channel="label-top"><text x="28" y="17" fill="#666666" font-size="12" dominant-baseline="central">bech32, osmo1</text></g><g data-channel="label-bottom"><text x="208" y="157" fill="#666666" font-size="12" text-anchor="end" dominant-baseline="central">...tdz28t</text></g><line x1="1" y1="1.5" x2="214" y2="1.5" stroke="#808080" stroke-width="1" shape-rendering="crispEdges"/><line x1="213.5" y1="1" x2="213.5" y2="173" stroke="#808080" stroke-width="1" shape-rendering="crispEdges"/><line x1="1" y1="172.5" x2="214" y2="172.5" stroke="#808080" stroke-width="1" shape-rendering="crispEdges"/><line x1="1.5" y1="1" x2="1.5" y2="173" stroke="#808080" stroke-width="1" shape-rendering="crispEdges"/><line x1="22.5" y1="1" x2="22.5" y2="173" stroke="#808080" stroke-width="1" shape-rendering="crispEdges"/></svg>