<svg width="143.0" height="142.0" xmlns="http://www.w3.org/2000/svg"><defs><clipPath id="grid-clip-147ae55c-2x2"><rect x="17.0" y="31.0" width="120.0" height="80.0"/></clipPath></defs><rect x="0" y="0" width="143.0" height="142.0" fill="#ffffff"/><rect x="17.0" y="31.0" width="120.0" height="80.0" fill="#ff3f2f"/><rect x="17.0" y="31.0" width="6.0" height="10.0" fill="#000000"/><rect x="29.0" y="31.0" width="6.0" height="10.0" fill="#000000"/><rect x="47.0" y="31.0" width="6.0" height="10.0" fill="#000000"/><rect x="53.0" y="31.0" width="6.0" height="10.0" fill="#000000"/><rect x="59.0" y="31.0" width="6.0" height="10.0" fill="#000000"/><rect x="71.0" y="31.0" width="6.0" height="10.0" fill="#000000"/><rect x="71.0" y="51.0" width="6.0" height="10.0" fill="#000000"/><rect x="71.0" y="61.0" width="6.0" height="10.0" fill="#000000"/><rect x="65.0" y="61.0" width="6.0" height="10.0" fill="#000000"/><rect x="59.0" y="61.0" width="6.0" height="10.0" fill="#000000"/><rect x="35.0" y="61.0" width="6.0" height="10.0" fill="#000000"/><rect x="23.0" y="61.0" width="6.0" height="10.0" fill="#000000"/><rect x="23.0" y="71.0" width="6.0" height="10.0" fill="#000000"/><rect x="41.0" y="71.0" width="6.0" height="10.0" fill="#000000"/><rect x="47.0" y="71.0" width="6.0" height="10.0" fill="#000000"/><rect x="53.0" y="71.0" width="6.0" height="10.0" fill="#000000"/><rect x="59.0" y="71.0" width="6.0" height="10.0" fill="#000000"/><rect x="65.0" y="101.0" width="6.0" height="10.0" fill="#000000"/><rect x="53.0" y="101.0" width="6.0" height="10.0" fill="#000000"/><rect x="35.0" y="101.0" width="6.0" height="10.0" fill="#000000"/><rect x="29.0" y="101.0" width="6.0" height="10.0" fill="#000000"/><rect x="23.0" y="101.0" width="6.0" height="10.0" fill="#000000"/><rect x="17.0" y="91.0" width="6.0" height="10.0" fill="#000000"/><rect x="83.0" y="71.0" width="6.0" height="10.0" fill="#000000"/><rect x="101.0" y="71.0" width="6.0" height="10.0" fill="#000000"/><rect x="107.0" y="71.0" width="6.0" height="10.0" fill="#000000"/><rect x="119.0" y="71.0" width="6.0" height="10.0" fill="#000000"/><rect x="125.0" y="71.0" width="6.0" height="10.0" fill="#000000"/><rect x="131.0" y="81.0" width="6.0" height="10.0" fill="#000000"/><rect x="131.0" y="101.0" width="6.0" height="10.0" fill="#000000"/><rect x="125.0" y="101.0" width="6.0" height="10.0" fill="#000000"/><rect x="119.0" y="101.0" width="6.0" height="10.0" fill="#000000"/><rect x="113.0" y="101.0" width="6.0" height="10.0" fill="#000000"/><rect x="101.0" y="101.0" width="6.0" height="10.0" fill="#000000"/><rect x="95.0" y="101.0" width="6.0" height="10.0" fill="#000000"/><rect x="77.0" y="81.0" width="6.0" height="10.0" fill="#000000"/><g clip-path="url(#grid-clip-147ae55c-2x2)"><ellipse cx="17.0" cy="111.0" rx="40.0" ry="51.792546938282555" transform="rotate(60.0 17.0 111.0)" fill="#000000" fill-opacity="0.4"/></g><rect x="23.0" y="41.0" width="48.0" height="20.0" fill="#dd4405"/><text x="47.0" y="51.0" fill="#000000" style="font-family: monospace; font-size: 16.0px;" text-anchor="middle" dominant-baseline="central">1KJT</text><rect x="23.0" y="81.0" width="48.0" height="20.0" fill="#0c2449"/><text x="47.0" y="91.0" fill="#ffffff" style="font-family: monospace; font-size: 16.0px;" text-anchor="middle" dominant-baseline="central">IIGC</text><rect x="83.0" y="81.0" width="48.0" height="20.0" fill="#5b2022"/><text x="107.0" y="91.0" fill="#ffffff" style="font-family: monospace; font-size: 16.0px;" text-anchor="middle" dominant-baseline="central">8Y1R</text><circle cx="107.0" cy="51.0" r="17.0" fill="#ffffff" stroke="#000000" stroke-width="1"/><line x1="107.0" y1="51.0" x2="107.0" y2="69.0" stroke="#ffffff" style="mix-blend-mode: difference" stroke-width="1"/><line x1="107.0" y1="51.0" x2="98.5" y2="51.0" stroke="#000000" stroke-width="1"/><circle cx="98.5" cy="51.0" r="1.5" fill="#ffffff" stroke="#000000" stroke-width="1"/><polygon points="23.0,41.0 33.0,41.0 23.0,51.0" fill="#000000"/><polygon points="71.0,81.0 61.0,81.0 71.0,91.0" fill="#ffffff"/><polygon points="131.0,101.0 131.0,91.0 121.0,101.0" fill="#ffffff"/><rect x="1" y="1" width="10.0" height="74.94848663891352" fill="#ffd966"/><rect x="1" y="75.94848663891352" width="10.0" height="22.172311255063278" fill="#2f3fbf"/><rect x="1" y="98.1207978939768" width="10.0" height="22.172311255063278" fill="#000000"/><rect x="1" y="120.29310914904008" width="10.0" height="20.706890850959923" fill="#ffffff"/><text x="17.0" y="16.0" fill="#666666" style="font-family: monospace; font-size: 12.0px;" dominant-baseline="central">LEI: 549300...</text><text x="137.0" y="126.0" fill="#666666" style="font-family: monospace; font-size: 12.0px;" text-anchor="end" dominant-baseline="central">...12</text><line x1="0" y1="0.5" x2="143.0" y2="0.5" stroke="#808080" stroke-width="1" shape-rendering="crispEdges"/><line x1="142.5" y1="0" x2="142.5" y2="142.0" stroke="#808080" stroke-width="1" shape-rendering="crispEdges"/><line x1="0" y1="141.5" x2="143.0" y2="141.5" stroke="#808080" stroke-width="1" shape-rendering="crispEdges"/><line x1="0.5" y1="0" x2="0.5" y2="142.0" stroke="#808080" stroke-width="1" shape-rendering="crispEdges"/><line x1="11.5" y1="0" x2="11.5" y2="142.0" stroke="#808080" stroke-width="1" shape-rendering="crispEdges"/></svg>