<svg width="143.0" height="117.0" viewBox="0 0 143.0 117.0" xmlns="http://www.w3.org/2000/svg" data-entviz-version="v5" data-entviz-lib="0.5.0" data-input-bytes="17" data-cols="2" data-rows="2"><defs><clipPath id="grid-clip-1e86dddf9e1863cb-2x2"><rect x="17.0" y="31.0" width="120.0" height="80.0"/></clipPath></defs><rect x="0" y="0" width="143.0" height="117.0" fill="#ffffff"/><g data-channel="grid"><rect x="17.0" y="31.0" width="120.0" height="80.0" fill="#ffd966"/><g><rect x="77.0" y="31.0" width="6.0" height="10.0" fill="#2f3fbf"/><rect x="89.0" y="31.0" width="6.0" height="10.0" fill="#2f3fbf"/><rect x="95.0" y="31.0" width="6.0" height="10.0" fill="#2f3fbf"/><rect x="101.0" y="31.0" width="6.0" height="10.0" fill="#2f3fbf"/><rect x="113.0" y="31.0" width="6.0" height="10.0" fill="#2f3fbf"/><rect x="119.0" y="31.0" width="6.0" height="10.0" fill="#2f3fbf"/><rect x="131.0" y="31.0" width="6.0" height="10.0" fill="#2f3fbf"/><rect x="131.0" y="41.0" width="6.0" height="10.0" fill="#2f3fbf"/><rect x="113.0" y="61.0" width="6.0" height="10.0" fill="#2f3fbf"/><rect x="101.0" y="61.0" width="6.0" height="10.0" fill="#2f3fbf"/><rect x="95.0" y="61.0" width="6.0" height="10.0" fill="#2f3fbf"/><rect x="89.0" y="61.0" width="6.0" height="10.0" fill="#2f3fbf"/><rect x="83.0" y="61.0" width="6.0" height="10.0" fill="#2f3fbf"/><rect x="35.0" y="71.0" width="6.0" height="10.0" fill="#000000"/><rect x="41.0" y="71.0" width="6.0" height="10.0" fill="#000000"/><rect x="71.0" y="71.0" width="6.0" height="10.0" fill="#000000"/><rect x="71.0" y="81.0" width="6.0" height="10.0" fill="#000000"/><rect x="71.0" y="91.0" width="6.0" height="10.0" fill="#000000"/><rect x="71.0" y="101.0" width="6.0" height="10.0" fill="#000000"/><rect x="53.0" y="101.0" width="6.0" height="10.0" fill="#000000"/><rect x="47.0" y="101.0" width="6.0" height="10.0" fill="#000000"/><rect x="41.0" y="101.0" width="6.0" height="10.0" fill="#000000"/><rect x="35.0" y="101.0" width="6.0" height="10.0" fill="#000000"/><rect x="29.0" y="101.0" width="6.0" height="10.0" fill="#000000"/><rect x="23.0" y="101.0" width="6.0" height="10.0" fill="#000000"/><rect x="17.0" y="91.0" width="6.0" height="10.0" fill="#000000"/><rect x="17.0" y="81.0" width="6.0" height="10.0" fill="#000000"/><rect x="95.0" y="71.0" width="6.0" height="10.0" fill="#2f3fbf"/><rect x="107.0" y="71.0" width="6.0" height="10.0" fill="#2f3fbf"/><rect x="119.0" y="71.0" width="6.0" height="10.0" fill="#2f3fbf"/><rect x="125.0" y="71.0" width="6.0" height="10.0" fill="#2f3fbf"/><rect x="131.0" y="71.0" width="6.0" height="10.0" fill="#2f3fbf"/><rect x="131.0" y="91.0" width="6.0" height="10.0" fill="#2f3fbf"/><rect x="119.0" y="101.0" width="6.0" height="10.0" fill="#2f3fbf"/><rect x="113.0" y="101.0" width="6.0" height="10.0" fill="#2f3fbf"/><rect x="107.0" y="101.0" width="6.0" height="10.0" fill="#2f3fbf"/><rect x="101.0" y="101.0" width="6.0" height="10.0" fill="#2f3fbf"/><rect x="77.0" y="101.0" width="6.0" height="10.0" fill="#2f3fbf"/><rect x="77.0" y="91.0" width="6.0" height="10.0" fill="#2f3fbf"/></g><g clip-path="url(#grid-clip-1e86dddf9e1863cb-2x2)" data-channel="ellipse" data-ellipse-anchor-x="77.0" data-ellipse-anchor-y="31.0" data-ellipse-rx="34.666666666666664" data-ellipse-ry="24.0" data-ellipse-rotation-deg="60.0"><ellipse cx="77.0" cy="31.0" rx="34.666666666666664" ry="24.0" transform="rotate(60.0 77.0 31.0)" fill="#000000" fill-opacity="0.3"/></g><g><g data-channel="cell" data-cell-index="0" data-cell-row="0" data-cell-col="0" data-cell-blank="true" data-cell-blank-marker="true"><circle cx="47.0" cy="51.0" r="17.0" fill="#ffffff" stroke="#000000" stroke-width="1"/><line x1="47.0" y1="51.0" x2="47.0" y2="69.0" stroke="#ffffff" style="mix-blend-mode: difference" stroke-width="1"/><line x1="47.0" y1="51.0" x2="55.5" y2="51.0" stroke="#000000" stroke-width="1"/><circle cx="55.5" cy="51.0" r="1.5" fill="#ffffff" stroke="#000000" stroke-width="1"/></g><g data-channel="cell" data-cell-index="1" data-cell-row="0" data-cell-col="1" data-cell-quartile="2"><rect x="83.0" y="41.0" width="48.0" height="20.0" fill="#113580"/><text x="107.0" y="51.0" fill="#ffffff" style="font-family: &quot;DejaVu Sans Mono&quot;, &quot;Consolas&quot;, &quot;Menlo&quot;, &quot;Liberation Mono&quot;, monospace; font-size: 12.0px;" text-anchor="middle" dominant-baseline="central">803511</text><polygon points="131.0,41.0 121.0,41.0 131.0,51.0" fill="#ffffff"/></g><g data-channel="cell" data-cell-index="2" data-cell-row="1" data-cell-col="0" data-cell-quartile="1"><rect x="23.0" y="81.0" width="48.0" height="20.0" fill="#462210"/><text x="47.0" y="91.0" fill="#ffffff" style="font-family: &quot;DejaVu Sans Mono&quot;, &quot;Consolas&quot;, &quot;Menlo&quot;, &quot;Liberation Mono&quot;, monospace; font-size: 12.0px;" text-anchor="middle" dominant-baseline="central">102246</text><polygon points="23.0,81.0 33.0,81.0 23.0,91.0" fill="#ffffff"/></g><g data-channel="cell" data-cell-index="3" data-cell-row="1" data-cell-col="1" data-cell-quartile="3"><rect x="83.0" y="81.0" width="48.0" height="20.0" fill="#229178"/><text x="107.0" y="91.0" fill="#ffffff" style="font-family: &quot;DejaVu Sans Mono&quot;, &quot;Consolas&quot;, &quot;Menlo&quot;, &quot;Liberation Mono&quot;, monospace; font-size: 12.0px;" text-anchor="middle" dominant-baseline="central">78912</text><polygon points="131.0,101.0 131.0,91.0 121.0,101.0" fill="#ffffff"/></g></g></g><g data-channel="color-bar"><g data-color-bar-rank="0" data-color-bar-band="B"><rect x="1" y="1" width="10.0" height="39.73251698023143" fill="#2f3fbf"/><text x="6.0" y="20.866258490115715" fill="#ffffff" style="font-family: &quot;DejaVu Sans Mono&quot;, &quot;Consolas&quot;, &quot;Menlo&quot;, &quot;Liberation Mono&quot;, monospace; font-size: 8.5px;" text-anchor="middle" dominant-baseline="central" data-color-bar-letter="true">b</text></g><g data-color-bar-rank="1" data-color-bar-band="R"><rect x="1" y="40.73251698023143" width="10.0" height="33.346720420791264" fill="#ff3f2f"/><text x="6.0" y="57.405877190627066" fill="#000000" style="font-family: &quot;DejaVu Sans Mono&quot;, &quot;Consolas&quot;, &quot;Menlo&quot;, &quot;Liberation Mono&quot;, monospace; font-size: 8.5px;" text-anchor="middle" dominant-baseline="central" data-color-bar-letter="true">r</text></g><g data-color-bar-rank="2" data-color-bar-band="K"><rect x="1" y="74.0792374010227" width="10.0" height="24.452354061874427" fill="#000000"/><text x="6.0" y="86.3054144319599" fill="#ffffff" style="font-family: &quot;DejaVu Sans Mono&quot;, &quot;Consolas&quot;, &quot;Menlo&quot;, &quot;Liberation Mono&quot;, monospace; font-size: 8.5px;" text-anchor="middle" dominant-baseline="central" data-color-bar-letter="true">k</text></g><g data-color-bar-rank="3" data-color-bar-band="W"><rect x="1" y="98.53159146289713" width="10.0" height="17.468408537102874" fill="#ffffff"/><text x="6.0" y="107.26579573144856" fill="#000000" style="font-family: &quot;DejaVu Sans Mono&quot;, &quot;Consolas&quot;, &quot;Menlo&quot;, &quot;Liberation Mono&quot;, monospace; font-size: 8.5px;" text-anchor="middle" dominant-baseline="central" data-color-bar-letter="true">w</text></g></g><g data-channel="label-top"><text x="17.0" y="16.0" fill="#666666" style="font-family: &quot;DejaVu Sans Mono&quot;, &quot;Consolas&quot;, &quot;Menlo&quot;, &quot;Liberation Mono&quot;, monospace; font-size: 12.0px;" dominant-baseline="central">snowflake:</text></g><line x1="0" y1="0.5" x2="143.0" y2="0.5" stroke="#808080" stroke-width="1" shape-rendering="crispEdges"/><line x1="142.5" y1="0" x2="142.5" y2="117.0" stroke="#808080" stroke-width="1" shape-rendering="crispEdges"/><line x1="0" y1="116.5" x2="143.0" y2="116.5" stroke="#808080" stroke-width="1" shape-rendering="crispEdges"/><line x1="0.5" y1="0" x2="0.5" y2="117.0" stroke="#808080" stroke-width="1" shape-rendering="crispEdges"/><line x1="11.5" y1="0" x2="11.5" y2="117.0" stroke="#808080" stroke-width="1" shape-rendering="crispEdges"/></svg>