<svg width="273.0" height="277.0" viewBox="0 0 273.0 277.0" xmlns="http://www.w3.org/2000/svg" data-entviz-version="v6" data-entviz-lib="0.5.0" data-input-bytes="160" data-cols="4" data-rows="6" data-truncated="true"><defs><clipPath id="grid-clip-8b678698b08217c4-4x6"><rect x="27.0" y="31.0" width="240.0" height="240.0"/></clipPath></defs><rect x="0" y="0" width="273.0" height="277.0" fill="#ffffff"/><g data-channel="grid"><rect x="27.0" y="31.0" width="240.0" height="240.0" fill="#ff3f2f"/><g><rect x="33.0" y="31.0" width="6.0" height="10.0" fill="#ffd966"/><rect x="39.0" y="31.0" width="6.0" height="10.0" fill="#ffd966"/><rect x="69.0" y="31.0" width="6.0" height="10.0" fill="#ffd966"/><rect x="75.0" y="31.0" width="6.0" height="10.0" fill="#ffd966"/><rect x="81.0" y="31.0" width="6.0" height="10.0" fill="#ffd966"/><rect x="81.0" y="41.0" width="6.0" height="10.0" fill="#ffd966"/><rect x="75.0" y="61.0" width="6.0" height="10.0" fill="#ffd966"/><rect x="69.0" y="61.0" width="6.0" height="10.0" fill="#ffd966"/><rect x="57.0" y="61.0" width="6.0" height="10.0" fill="#ffd966"/><rect x="51.0" y="61.0" width="6.0" height="10.0" fill="#ffd966"/><rect x="39.0" y="61.0" width="6.0" height="10.0" fill="#ffd966"/><rect x="27.0" y="41.0" width="6.0" height="10.0" fill="#ffd966"/><rect x="93.0" y="31.0" width="6.0" height="10.0" fill="#000000"/><rect x="129.0" y="31.0" width="6.0" height="10.0" fill="#000000"/><rect x="141.0" y="61.0" width="6.0" height="10.0" fill="#000000"/><rect x="135.0" y="61.0" width="6.0" height="10.0" fill="#000000"/><rect x="123.0" y="61.0" width="6.0" height="10.0" fill="#000000"/><rect x="99.0" y="61.0" width="6.0" height="10.0" fill="#000000"/><rect x="93.0" y="61.0" width="6.0" height="10.0" fill="#000000"/><rect x="87.0" y="41.0" width="6.0" height="10.0" fill="#000000"/><rect x="153.0" y="31.0" width="6.0" height="10.0" fill="#ffffff"/><rect x="159.0" y="31.0" width="6.0" height="10.0" fill="#ffffff"/><rect x="165.0" y="31.0" width="6.0" height="10.0" fill="#ffffff"/><rect x="201.0" y="41.0" width="6.0" height="10.0" fill="#ffffff"/><rect x="189.0" y="61.0" width="6.0" height="10.0" fill="#ffffff"/><rect x="183.0" y="61.0" width="6.0" height="10.0" fill="#ffffff"/><rect x="177.0" y="61.0" width="6.0" height="10.0" fill="#ffffff"/><rect x="171.0" y="61.0" width="6.0" height="10.0" fill="#ffffff"/><rect x="165.0" y="61.0" width="6.0" height="10.0" fill="#ffffff"/><rect x="153.0" y="61.0" width="6.0" height="10.0" fill="#ffffff"/><rect x="213.0" y="31.0" width="6.0" height="10.0" fill="#2f3fbf"/><rect x="219.0" y="31.0" width="6.0" height="10.0" fill="#2f3fbf"/><rect x="231.0" y="31.0" width="6.0" height="10.0" fill="#2f3fbf"/><rect x="237.0" y="31.0" width="6.0" height="10.0" fill="#2f3fbf"/><rect x="255.0" y="31.0" width="6.0" height="10.0" fill="#2f3fbf"/><rect x="261.0" y="31.0" width="6.0" height="10.0" fill="#2f3fbf"/><rect x="261.0" y="41.0" width="6.0" height="10.0" fill="#2f3fbf"/><rect x="261.0" y="51.0" width="6.0" height="10.0" fill="#2f3fbf"/><rect x="261.0" y="61.0" width="6.0" height="10.0" fill="#2f3fbf"/><rect x="225.0" y="61.0" width="6.0" height="10.0" fill="#2f3fbf"/><rect x="219.0" y="61.0" width="6.0" height="10.0" fill="#2f3fbf"/><rect x="213.0" y="61.0" width="6.0" height="10.0" fill="#2f3fbf"/><rect x="207.0" y="61.0" width="6.0" height="10.0" fill="#2f3fbf"/><rect x="27.0" y="71.0" width="6.0" height="10.0" fill="#2f3fbf"/><rect x="33.0" y="71.0" width="6.0" height="10.0" fill="#2f3fbf"/><rect x="45.0" y="71.0" width="6.0" height="10.0" fill="#2f3fbf"/><rect x="75.0" y="71.0" width="6.0" height="10.0" fill="#2f3fbf"/><rect x="81.0" y="71.0" width="6.0" height="10.0" fill="#2f3fbf"/><rect x="81.0" y="81.0" width="6.0" height="10.0" fill="#2f3fbf"/><rect x="81.0" y="101.0" width="6.0" height="10.0" fill="#2f3fbf"/><rect x="39.0" y="101.0" width="6.0" height="10.0" fill="#2f3fbf"/><rect x="27.0" y="101.0" width="6.0" height="10.0" fill="#2f3fbf"/><rect x="27.0" y="81.0" width="6.0" height="10.0" fill="#2f3fbf"/><rect x="87.0" y="71.0" width="6.0" height="10.0" fill="#ffd966"/><rect x="99.0" y="71.0" width="6.0" height="10.0" fill="#ffd966"/><rect x="135.0" y="71.0" width="6.0" height="10.0" fill="#ffd966"/><rect x="141.0" y="81.0" width="6.0" height="10.0" fill="#ffd966"/><rect x="123.0" y="101.0" width="6.0" height="10.0" fill="#ffd966"/><rect x="117.0" y="101.0" width="6.0" height="10.0" fill="#ffd966"/><rect x="93.0" y="101.0" width="6.0" height="10.0" fill="#ffd966"/><rect x="87.0" y="91.0" width="6.0" height="10.0" fill="#ffd966"/><rect x="159.0" y="71.0" width="6.0" height="10.0" fill="#000000"/><rect x="183.0" y="71.0" width="6.0" height="10.0" fill="#000000"/><rect x="195.0" y="71.0" width="6.0" height="10.0" fill="#000000"/><rect x="201.0" y="71.0" width="6.0" height="10.0" fill="#000000"/><rect x="201.0" y="101.0" width="6.0" height="10.0" fill="#000000"/><rect x="159.0" y="101.0" width="6.0" height="10.0" fill="#000000"/><rect x="147.0" y="91.0" width="6.0" height="10.0" fill="#000000"/><rect x="219.0" y="71.0" width="6.0" height="10.0" fill="#ffffff"/><rect x="231.0" y="71.0" width="6.0" height="10.0" fill="#ffffff"/><rect x="237.0" y="71.0" width="6.0" height="10.0" fill="#ffffff"/><rect x="243.0" y="71.0" width="6.0" height="10.0" fill="#ffffff"/><rect x="255.0" y="71.0" width="6.0" height="10.0" fill="#ffffff"/><rect x="261.0" y="71.0" width="6.0" height="10.0" fill="#ffffff"/><rect x="261.0" y="81.0" width="6.0" height="10.0" fill="#ffffff"/><rect x="261.0" y="101.0" width="6.0" height="10.0" fill="#ffffff"/><rect x="255.0" y="101.0" width="6.0" height="10.0" fill="#ffffff"/><rect x="243.0" y="101.0" width="6.0" height="10.0" fill="#ffffff"/><rect x="231.0" y="101.0" width="6.0" height="10.0" fill="#ffffff"/><rect x="225.0" y="101.0" width="6.0" height="10.0" fill="#ffffff"/><rect x="207.0" y="101.0" width="6.0" height="10.0" fill="#ffffff"/><rect x="207.0" y="91.0" width="6.0" height="10.0" fill="#ffffff"/><rect x="207.0" y="81.0" width="6.0" height="10.0" fill="#ffffff"/><rect x="87.0" y="111.0" width="6.0" height="10.0" fill="#ffd966"/><rect x="111.0" y="111.0" width="6.0" height="10.0" fill="#ffd966"/><rect x="117.0" y="111.0" width="6.0" height="10.0" fill="#ffd966"/><rect x="129.0" y="111.0" width="6.0" height="10.0" fill="#ffd966"/><rect x="135.0" y="111.0" width="6.0" height="10.0" fill="#ffd966"/><rect x="141.0" y="121.0" width="6.0" height="10.0" fill="#ffd966"/><rect x="141.0" y="131.0" width="6.0" height="10.0" fill="#ffd966"/><rect x="141.0" y="141.0" width="6.0" height="10.0" fill="#ffd966"/><rect x="129.0" y="141.0" width="6.0" height="10.0" fill="#ffd966"/><rect x="117.0" y="141.0" width="6.0" height="10.0" fill="#ffd966"/><rect x="105.0" y="141.0" width="6.0" height="10.0" fill="#ffd966"/><rect x="99.0" y="141.0" width="6.0" height="10.0" fill="#ffd966"/><rect x="87.0" y="131.0" width="6.0" height="10.0" fill="#ffd966"/><rect x="147.0" y="111.0" width="6.0" height="10.0" fill="#ffd966"/><rect x="153.0" y="111.0" width="6.0" height="10.0" fill="#ffd966"/><rect x="159.0" y="111.0" width="6.0" height="10.0" fill="#ffd966"/><rect x="165.0" y="111.0" width="6.0" height="10.0" fill="#ffd966"/><rect x="177.0" y="111.0" width="6.0" height="10.0" fill="#ffd966"/><rect x="183.0" y="111.0" width="6.0" height="10.0" fill="#ffd966"/><rect x="189.0" y="111.0" width="6.0" height="10.0" fill="#ffd966"/><rect x="195.0" y="111.0" width="6.0" height="10.0" fill="#ffd966"/><rect x="201.0" y="121.0" width="6.0" height="10.0" fill="#ffd966"/><rect x="201.0" y="131.0" width="6.0" height="10.0" fill="#ffd966"/><rect x="195.0" y="141.0" width="6.0" height="10.0" fill="#ffd966"/><rect x="189.0" y="141.0" width="6.0" height="10.0" fill="#ffd966"/><rect x="183.0" y="141.0" width="6.0" height="10.0" fill="#ffd966"/><rect x="177.0" y="141.0" width="6.0" height="10.0" fill="#ffd966"/><rect x="165.0" y="141.0" width="6.0" height="10.0" fill="#ffd966"/><rect x="147.0" y="141.0" width="6.0" height="10.0" fill="#ffd966"/><rect x="147.0" y="131.0" width="6.0" height="10.0" fill="#ffd966"/><rect x="147.0" y="121.0" width="6.0" height="10.0" fill="#ffd966"/><rect x="219.0" y="111.0" width="6.0" height="10.0" fill="#ffd966"/><rect x="225.0" y="111.0" width="6.0" height="10.0" fill="#ffd966"/><rect x="231.0" y="111.0" width="6.0" height="10.0" fill="#ffd966"/><rect x="237.0" y="111.0" width="6.0" height="10.0" fill="#ffd966"/><rect x="261.0" y="111.0" width="6.0" height="10.0" fill="#ffd966"/><rect x="255.0" y="141.0" width="6.0" height="10.0" fill="#ffd966"/><rect x="243.0" y="141.0" width="6.0" height="10.0" fill="#ffd966"/><rect x="237.0" y="141.0" width="6.0" height="10.0" fill="#ffd966"/><rect x="231.0" y="141.0" width="6.0" height="10.0" fill="#ffd966"/><rect x="207.0" y="141.0" width="6.0" height="10.0" fill="#ffd966"/><rect x="27.0" y="151.0" width="6.0" height="10.0" fill="#ffd966"/><rect x="45.0" y="151.0" width="6.0" height="10.0" fill="#ffd966"/><rect x="57.0" y="151.0" width="6.0" height="10.0" fill="#ffd966"/><rect x="75.0" y="151.0" width="6.0" height="10.0" fill="#ffd966"/><rect x="81.0" y="151.0" width="6.0" height="10.0" fill="#ffd966"/><rect x="81.0" y="161.0" width="6.0" height="10.0" fill="#ffd966"/><rect x="81.0" y="181.0" width="6.0" height="10.0" fill="#ffd966"/><rect x="69.0" y="181.0" width="6.0" height="10.0" fill="#ffd966"/><rect x="63.0" y="181.0" width="6.0" height="10.0" fill="#ffd966"/><rect x="45.0" y="181.0" width="6.0" height="10.0" fill="#ffd966"/><rect x="39.0" y="181.0" width="6.0" height="10.0" fill="#ffd966"/><rect x="33.0" y="181.0" width="6.0" height="10.0" fill="#ffd966"/><rect x="27.0" y="171.0" width="6.0" height="10.0" fill="#ffd966"/><rect x="147.0" y="151.0" width="6.0" height="10.0" fill="#ffd966"/><rect x="177.0" y="151.0" width="6.0" height="10.0" fill="#ffd966"/><rect x="183.0" y="151.0" width="6.0" height="10.0" fill="#ffd966"/><rect x="195.0" y="151.0" width="6.0" height="10.0" fill="#ffd966"/><rect x="201.0" y="171.0" width="6.0" height="10.0" fill="#ffd966"/><rect x="201.0" y="181.0" width="6.0" height="10.0" fill="#ffd966"/><rect x="177.0" y="181.0" width="6.0" height="10.0" fill="#ffd966"/><rect x="165.0" y="181.0" width="6.0" height="10.0" fill="#ffd966"/><rect x="159.0" y="181.0" width="6.0" height="10.0" fill="#ffd966"/><rect x="153.0" y="181.0" width="6.0" height="10.0" fill="#ffd966"/><rect x="147.0" y="161.0" width="6.0" height="10.0" fill="#ffd966"/><rect x="207.0" y="151.0" width="6.0" height="10.0" fill="#2f3fbf"/><rect x="243.0" y="151.0" width="6.0" height="10.0" fill="#2f3fbf"/><rect x="249.0" y="151.0" width="6.0" height="10.0" fill="#2f3fbf"/><rect x="261.0" y="161.0" width="6.0" height="10.0" fill="#2f3fbf"/><rect x="255.0" y="181.0" width="6.0" height="10.0" fill="#2f3fbf"/><rect x="219.0" y="181.0" width="6.0" height="10.0" fill="#2f3fbf"/><rect x="213.0" y="181.0" width="6.0" height="10.0" fill="#2f3fbf"/><rect x="207.0" y="171.0" width="6.0" height="10.0" fill="#2f3fbf"/><rect x="207.0" y="161.0" width="6.0" height="10.0" fill="#2f3fbf"/><rect x="27.0" y="191.0" width="6.0" height="10.0" fill="#ffd966"/><rect x="33.0" y="191.0" width="6.0" height="10.0" fill="#ffd966"/><rect x="57.0" y="191.0" width="6.0" height="10.0" fill="#ffd966"/><rect x="69.0" y="191.0" width="6.0" height="10.0" fill="#ffd966"/><rect x="81.0" y="211.0" width="6.0" height="10.0" fill="#ffd966"/><rect x="81.0" y="221.0" width="6.0" height="10.0" fill="#ffd966"/><rect x="69.0" y="221.0" width="6.0" height="10.0" fill="#ffd966"/><rect x="63.0" y="221.0" width="6.0" height="10.0" fill="#ffd966"/><rect x="45.0" y="221.0" width="6.0" height="10.0" fill="#ffd966"/><rect x="27.0" y="221.0" width="6.0" height="10.0" fill="#ffd966"/><rect x="27.0" y="201.0" width="6.0" height="10.0" fill="#ffd966"/><rect x="87.0" y="191.0" width="6.0" height="10.0" fill="#2f3fbf"/><rect x="99.0" y="191.0" width="6.0" height="10.0" fill="#2f3fbf"/><rect x="117.0" y="191.0" width="6.0" height="10.0" fill="#2f3fbf"/><rect x="141.0" y="191.0" width="6.0" height="10.0" fill="#2f3fbf"/><rect x="141.0" y="211.0" width="6.0" height="10.0" fill="#2f3fbf"/><rect x="141.0" y="221.0" width="6.0" height="10.0" fill="#2f3fbf"/><rect x="135.0" y="221.0" width="6.0" height="10.0" fill="#2f3fbf"/><rect x="111.0" y="221.0" width="6.0" height="10.0" fill="#2f3fbf"/><rect x="105.0" y="221.0" width="6.0" height="10.0" fill="#2f3fbf"/><rect x="99.0" y="221.0" width="6.0" height="10.0" fill="#2f3fbf"/><rect x="87.0" y="221.0" width="6.0" height="10.0" fill="#2f3fbf"/><rect x="87.0" y="211.0" width="6.0" height="10.0" fill="#2f3fbf"/><rect x="153.0" y="191.0" width="6.0" height="10.0" fill="#ffd966"/><rect x="171.0" y="191.0" width="6.0" height="10.0" fill="#ffd966"/><rect x="177.0" y="191.0" width="6.0" height="10.0" fill="#ffd966"/><rect x="195.0" y="191.0" width="6.0" height="10.0" fill="#ffd966"/><rect x="201.0" y="191.0" width="6.0" height="10.0" fill="#ffd966"/><rect x="201.0" y="201.0" width="6.0" height="10.0" fill="#ffd966"/><rect x="201.0" y="211.0" width="6.0" height="10.0" fill="#ffd966"/><rect x="183.0" y="221.0" width="6.0" height="10.0" fill="#ffd966"/><rect x="171.0" y="221.0" width="6.0" height="10.0" fill="#ffd966"/><rect x="153.0" y="221.0" width="6.0" height="10.0" fill="#ffd966"/><rect x="147.0" y="211.0" width="6.0" height="10.0" fill="#ffd966"/><rect x="147.0" y="201.0" width="6.0" height="10.0" fill="#ffd966"/><rect x="207.0" y="191.0" width="6.0" height="10.0" fill="#2f3fbf"/><rect x="213.0" y="191.0" width="6.0" height="10.0" fill="#2f3fbf"/><rect x="219.0" y="191.0" width="6.0" height="10.0" fill="#2f3fbf"/><rect x="225.0" y="191.0" width="6.0" height="10.0" fill="#2f3fbf"/><rect x="243.0" y="191.0" width="6.0" height="10.0" fill="#2f3fbf"/><rect x="261.0" y="211.0" width="6.0" height="10.0" fill="#2f3fbf"/><rect x="261.0" y="221.0" width="6.0" height="10.0" fill="#2f3fbf"/><rect x="255.0" y="221.0" width="6.0" height="10.0" fill="#2f3fbf"/><rect x="225.0" y="221.0" width="6.0" height="10.0" fill="#2f3fbf"/><rect x="207.0" y="211.0" width="6.0" height="10.0" fill="#2f3fbf"/><rect x="207.0" y="201.0" width="6.0" height="10.0" fill="#2f3fbf"/><rect x="27.0" y="231.0" width="6.0" height="10.0" fill="#ffd966"/><rect x="33.0" y="231.0" width="6.0" height="10.0" fill="#ffd966"/><rect x="39.0" y="231.0" width="6.0" height="10.0" fill="#ffd966"/><rect x="51.0" y="231.0" width="6.0" height="10.0" fill="#ffd966"/><rect x="57.0" y="231.0" width="6.0" height="10.0" fill="#ffd966"/><rect x="69.0" y="231.0" width="6.0" height="10.0" fill="#ffd966"/><rect x="63.0" y="261.0" width="6.0" height="10.0" fill="#ffd966"/><rect x="57.0" y="261.0" width="6.0" height="10.0" fill="#ffd966"/><rect x="51.0" y="261.0" width="6.0" height="10.0" fill="#ffd966"/><rect x="45.0" y="261.0" width="6.0" height="10.0" fill="#ffd966"/><rect x="27.0" y="251.0" width="6.0" height="10.0" fill="#ffd966"/><rect x="93.0" y="231.0" width="6.0" height="10.0" fill="#2f3fbf"/><rect x="105.0" y="231.0" width="6.0" height="10.0" fill="#2f3fbf"/><rect x="111.0" y="231.0" width="6.0" height="10.0" fill="#2f3fbf"/><rect x="123.0" y="231.0" width="6.0" height="10.0" fill="#2f3fbf"/><rect x="129.0" y="231.0" width="6.0" height="10.0" fill="#2f3fbf"/><rect x="135.0" y="231.0" width="6.0" height="10.0" fill="#2f3fbf"/><rect x="141.0" y="261.0" width="6.0" height="10.0" fill="#2f3fbf"/><rect x="117.0" y="261.0" width="6.0" height="10.0" fill="#2f3fbf"/><rect x="111.0" y="261.0" width="6.0" height="10.0" fill="#2f3fbf"/><rect x="99.0" y="261.0" width="6.0" height="10.0" fill="#2f3fbf"/><rect x="87.0" y="251.0" width="6.0" height="10.0" fill="#2f3fbf"/></g><g clip-path="url(#grid-clip-8b678698b08217c4-4x6)" data-channel="ellipse" data-ellipse-anchor-x="207.0" data-ellipse-anchor-y="71.0" data-ellipse-rx="110.85786214788737" data-ellipse-ry="65.65368534971971" data-ellipse-rotation-deg="108.0"><ellipse cx="207.0" cy="71.0" rx="110.85786214788737" ry="65.65368534971971" transform="rotate(108.0 207.0 71.0)" fill="#000000" fill-opacity="0.4"/></g><g><g data-channel="cell" data-cell-index="0" data-cell-row="0" data-cell-col="0"><rect x="33.0" y="41.0" width="48.0" height="20.0" fill="#81d404"/><text x="57.0" y="51.0" fill="#000000" style="font-family: &quot;JetBrains Mono&quot;, &quot;Menlo&quot;, &quot;Consolas&quot;, &quot;DejaVu Sans Mono&quot;, &quot;Liberation Mono&quot;, &quot;Roboto Mono&quot;, &quot;Noto Sans Mono&quot;, monospace; font-size: 16.0px;" text-anchor="middle" dominant-baseline="central">BNSB</text></g><g data-channel="cell" data-cell-index="1" data-cell-row="0" data-cell-col="1" data-cell-quartile="2"><rect x="93.0" y="41.0" width="48.0" height="20.0" fill="#1d4303"/><text x="117.0" y="51.0" fill="#ffffff" style="font-family: &quot;JetBrains Mono&quot;, &quot;Menlo&quot;, &quot;Consolas&quot;, &quot;DejaVu Sans Mono&quot;, &quot;Liberation Mono&quot;, &quot;Roboto Mono&quot;, &quot;Noto Sans Mono&quot;, monospace; font-size: 16.0px;" text-anchor="middle" dominant-baseline="central">A0Md</text><polygon points="141.0,41.0 131.0,41.0 141.0,51.0" fill="#ffffff"/></g><g data-channel="cell" data-cell-index="2" data-cell-row="0" data-cell-col="2" data-cell-quartile="3"><rect x="153.0" y="41.0" width="48.0" height="20.0" fill="#c2cff4"/><text x="177.0" y="51.0" fill="#000000" style="font-family: &quot;JetBrains Mono&quot;, &quot;Menlo&quot;, &quot;Consolas&quot;, &quot;DejaVu Sans Mono&quot;, &quot;Liberation Mono&quot;, &quot;Roboto Mono&quot;, &quot;Noto Sans Mono&quot;, monospace; font-size: 16.0px;" text-anchor="middle" dominant-baseline="central">9M/C</text><polygon points="201.0,61.0 201.0,51.0 191.0,61.0" fill="#000000"/></g><g data-channel="cell" data-cell-index="3" data-cell-row="0" data-cell-col="3"><rect x="213.0" y="41.0" width="48.0" height="20.0" fill="#099dc2"/><text x="237.0" y="51.0" fill="#000000" style="font-family: &quot;JetBrains Mono&quot;, &quot;Menlo&quot;, &quot;Consolas&quot;, &quot;DejaVu Sans Mono&quot;, &quot;Liberation Mono&quot;, &quot;Roboto Mono&quot;, &quot;Noto Sans Mono&quot;, monospace; font-size: 16.0px;" text-anchor="middle" dominant-baseline="central">wp0J</text></g><g data-channel="cell" data-cell-index="4" data-cell-row="1" data-cell-col="0"><rect x="33.0" y="81.0" width="48.0" height="20.0" fill="#6f64df"/><text x="57.0" y="91.0" fill="#ffffff" style="font-family: &quot;JetBrains Mono&quot;, &quot;Menlo&quot;, &quot;Consolas&quot;, &quot;DejaVu Sans Mono&quot;, &quot;Liberation Mono&quot;, &quot;Roboto Mono&quot;, &quot;Noto Sans Mono&quot;, monospace; font-size: 16.0px;" text-anchor="middle" dominant-baseline="central">32Rv</text></g><g data-channel="cell" data-cell-index="5" data-cell-row="1" data-cell-col="1"><rect x="93.0" y="81.0" width="48.0" height="20.0" fill="#a2f693"/><text x="117.0" y="91.0" fill="#000000" style="font-family: &quot;JetBrains Mono&quot;, &quot;Menlo&quot;, &quot;Consolas&quot;, &quot;DejaVu Sans Mono&quot;, &quot;Liberation Mono&quot;, &quot;Roboto Mono&quot;, &quot;Noto Sans Mono&quot;, monospace; font-size: 16.0px;" text-anchor="middle" dominant-baseline="central">k/ai</text></g><g data-channel="cell" data-cell-index="6" data-cell-row="1" data-cell-col="2"><rect x="153.0" y="81.0" width="48.0" height="20.0" fill="#3b5c12"/><text x="177.0" y="91.0" fill="#ffffff" style="font-family: &quot;JetBrains Mono&quot;, &quot;Menlo&quot;, &quot;Consolas&quot;, &quot;DejaVu Sans Mono&quot;, &quot;Liberation Mono&quot;, &quot;Roboto Mono&quot;, &quot;Noto Sans Mono&quot;, monospace; font-size: 16.0px;" text-anchor="middle" dominant-baseline="central">Elw7</text></g><g data-channel="cell" data-cell-index="7" data-cell-row="1" data-cell-col="3" data-cell-quartile="1"><rect x="213.0" y="81.0" width="48.0" height="20.0" fill="#a5deee"/><text x="237.0" y="91.0" fill="#000000" style="font-family: &quot;JetBrains Mono&quot;, &quot;Menlo&quot;, &quot;Consolas&quot;, &quot;DejaVu Sans Mono&quot;, &quot;Liberation Mono&quot;, &quot;Roboto Mono&quot;, &quot;Noto Sans Mono&quot;, monospace; font-size: 16.0px;" text-anchor="middle" dominant-baseline="central">7t6l</text><polygon points="213.0,81.0 223.0,81.0 213.0,91.0" fill="#000000"/></g><g data-channel="cell" data-cell-index="8" data-cell-row="2" data-cell-col="0" data-cell-blank="true" data-cell-blank-map="true"><rect x="33.0" y="121.0" width="48.0" height="20.0" rx="5.0" ry="5.0" fill="#ffffff" stroke="#000000" stroke-width="1"/><circle cx="75.0" cy="126.0" r="2.5" fill="#d62828" data-blank-map-max="true"/><circle cx="63.0" cy="122.66666666666667" r="2.5" fill="#1d4ed8" data-blank-map-min="true"/></g><g data-channel="cell" data-cell-index="9" data-cell-row="2" data-cell-col="1"><rect x="93.0" y="121.0" width="48.0" height="20.0" fill="#ff3f2f"/><text x="117.0" y="131.0" fill="#000000" style="font-family: &quot;JetBrains Mono&quot;, &quot;Menlo&quot;, &quot;Consolas&quot;, &quot;DejaVu Sans Mono&quot;, &quot;Liberation Mono&quot;, &quot;Roboto Mono&quot;, &quot;Noto Sans Mono&quot;, monospace; font-size: 16.0px;" text-anchor="middle" dominant-baseline="central">TV2x</text></g><g data-channel="cell" data-cell-index="10" data-cell-row="2" data-cell-col="2"><rect x="153.0" y="121.0" width="48.0" height="20.0" fill="#ff3f2f"/><text x="177.0" y="131.0" fill="#000000" style="font-family: &quot;JetBrains Mono&quot;, &quot;Menlo&quot;, &quot;Consolas&quot;, &quot;DejaVu Sans Mono&quot;, &quot;Liberation Mono&quot;, &quot;Roboto Mono&quot;, &quot;Noto Sans Mono&quot;, monospace; font-size: 16.0px;" text-anchor="middle" dominant-baseline="central">5e3v</text></g><g data-channel="cell" data-cell-index="11" data-cell-row="2" data-cell-col="3"><rect x="213.0" y="121.0" width="48.0" height="20.0" fill="#ff3f2f"/><text x="237.0" y="131.0" fill="#000000" style="font-family: &quot;JetBrains Mono&quot;, &quot;Menlo&quot;, &quot;Consolas&quot;, &quot;DejaVu Sans Mono&quot;, &quot;Liberation Mono&quot;, &quot;Roboto Mono&quot;, &quot;Noto Sans Mono&quot;, monospace; font-size: 16.0px;" text-anchor="middle" dominant-baseline="central">I6I8</text></g><g data-channel="cell" data-cell-index="12" data-cell-row="3" data-cell-col="0"><rect x="33.0" y="161.0" width="48.0" height="20.0" fill="#ff3f2f"/><text x="57.0" y="171.0" fill="#000000" style="font-family: &quot;JetBrains Mono&quot;, &quot;Menlo&quot;, &quot;Consolas&quot;, &quot;DejaVu Sans Mono&quot;, &quot;Liberation Mono&quot;, &quot;Roboto Mono&quot;, &quot;Noto Sans Mono&quot;, monospace; font-size: 16.0px;" text-anchor="middle" dominant-baseline="central">XNcp</text></g><g data-channel="cell" data-cell-index="13" data-cell-row="3" data-cell-col="1" data-cell-blank="true"><rect x="93.0" y="161.0" width="48.0" height="20.0" rx="5.0" ry="5.0" fill="none" stroke="#000000" stroke-width="1"/></g><g data-channel="cell" data-cell-index="14" data-cell-row="3" data-cell-col="2"><rect x="153.0" y="161.0" width="48.0" height="20.0" fill="#fafa22"/><text x="177.0" y="171.0" fill="#000000" style="font-family: &quot;JetBrains Mono&quot;, &quot;Menlo&quot;, &quot;Consolas&quot;, &quot;DejaVu Sans Mono&quot;, &quot;Liberation Mono&quot;, &quot;Roboto Mono&quot;, &quot;Noto Sans Mono&quot;, monospace; font-size: 16.0px;" text-anchor="middle" dominant-baseline="central">Ivr6</text></g><g data-channel="cell" data-cell-index="15" data-cell-row="3" data-cell-col="3"><rect x="213.0" y="161.0" width="48.0" height="20.0" fill="#514772"/><text x="237.0" y="171.0" fill="#ffffff" style="font-family: &quot;JetBrains Mono&quot;, &quot;Menlo&quot;, &quot;Consolas&quot;, &quot;DejaVu Sans Mono&quot;, &quot;Liberation Mono&quot;, &quot;Roboto Mono&quot;, &quot;Noto Sans Mono&quot;, monospace; font-size: 16.0px;" text-anchor="middle" dominant-baseline="central">ckdR</text></g><g data-channel="cell" data-cell-index="16" data-cell-row="4" data-cell-col="0"><rect x="33.0" y="201.0" width="48.0" height="20.0" fill="#4dce9a"/><text x="57.0" y="211.0" fill="#000000" style="font-family: &quot;JetBrains Mono&quot;, &quot;Menlo&quot;, &quot;Consolas&quot;, &quot;DejaVu Sans Mono&quot;, &quot;Liberation Mono&quot;, &quot;Roboto Mono&quot;, &quot;Noto Sans Mono&quot;, monospace; font-size: 16.0px;" text-anchor="middle" dominant-baseline="central">ms5N</text></g><g data-channel="cell" data-cell-index="17" data-cell-row="4" data-cell-col="1" data-cell-quartile="4"><rect x="93.0" y="201.0" width="48.0" height="20.0" fill="#7f1af0"/><text x="117.0" y="211.0" fill="#ffffff" style="font-family: &quot;JetBrains Mono&quot;, &quot;Menlo&quot;, &quot;Consolas&quot;, &quot;DejaVu Sans Mono&quot;, &quot;Liberation Mono&quot;, &quot;Roboto Mono&quot;, &quot;Noto Sans Mono&quot;, monospace; font-size: 16.0px;" text-anchor="middle" dominant-baseline="central">8Bp/</text><polygon points="93.0,221.0 93.0,211.0 103.0,221.0" fill="#ffffff"/></g><g data-channel="cell" data-cell-index="18" data-cell-row="4" data-cell-col="2"><rect x="153.0" y="201.0" width="48.0" height="20.0" fill="#a0fb92"/><text x="177.0" y="211.0" fill="#000000" style="font-family: &quot;JetBrains Mono&quot;, &quot;Menlo&quot;, &quot;Consolas&quot;, &quot;DejaVu Sans Mono&quot;, &quot;Liberation Mono&quot;, &quot;Roboto Mono&quot;, &quot;Noto Sans Mono&quot;, monospace; font-size: 16.0px;" text-anchor="middle" dominant-baseline="central">kvug</text></g><g data-channel="cell" data-cell-index="19" data-cell-row="4" data-cell-col="3"><rect x="213.0" y="201.0" width="48.0" height="20.0" fill="#2020fe"/><text x="237.0" y="211.0" fill="#ffffff" style="font-family: &quot;JetBrains Mono&quot;, &quot;Menlo&quot;, &quot;Consolas&quot;, &quot;DejaVu Sans Mono&quot;, &quot;Liberation Mono&quot;, &quot;Roboto Mono&quot;, &quot;Noto Sans Mono&quot;, monospace; font-size: 16.0px;" text-anchor="middle" dominant-baseline="central">/iAg</text></g><g data-channel="cell" data-cell-index="20" data-cell-row="5" data-cell-col="0"><rect x="33.0" y="241.0" width="48.0" height="20.0" fill="#8aa35f"/><text x="57.0" y="251.0" fill="#000000" style="font-family: &quot;JetBrains Mono&quot;, &quot;Menlo&quot;, &quot;Consolas&quot;, &quot;DejaVu Sans Mono&quot;, &quot;Liberation Mono&quot;, &quot;Roboto Mono&quot;, &quot;Noto Sans Mono&quot;, monospace; font-size: 16.0px;" text-anchor="middle" dominant-baseline="central">X6OK</text></g><g data-channel="cell" data-cell-index="21" data-cell-row="5" data-cell-col="1"><rect x="93.0" y="241.0" width="48.0" height="20.0" fill="#00d1e7"/><text x="117.0" y="251.0" fill="#000000" style="font-family: &quot;JetBrains Mono&quot;, &quot;Menlo&quot;, &quot;Consolas&quot;, &quot;DejaVu Sans Mono&quot;, &quot;Liberation Mono&quot;, &quot;Roboto Mono&quot;, &quot;Noto Sans Mono&quot;, monospace; font-size: 16.0px;" text-anchor="middle" dominant-baseline="central">59E=</text></g><g data-channel="cell" data-cell-index="22" data-cell-row="5" data-cell-col="2" data-cell-blank="true"><rect x="153.0" y="241.0" width="48.0" height="20.0" rx="5.0" ry="5.0" fill="none" stroke="#000000" stroke-width="1"/></g><g data-channel="cell" data-cell-index="23" data-cell-row="5" data-cell-col="3" data-cell-blank="true"><rect x="213.0" y="241.0" width="48.0" height="20.0" rx="5.0" ry="5.0" fill="none" stroke="#000000" stroke-width="1"/></g></g></g><g data-channel="color-bar"><g data-color-bar-rank="0" data-color-bar-band="W"><rect x="1" y="1" width="20.0" height="118.77954260254502" fill="#ffffff"/><text x="11.0" y="116.25954260254503" fill="#000000" style="font-family: &quot;JetBrains Mono&quot;, &quot;Menlo&quot;, &quot;Consolas&quot;, &quot;DejaVu Sans Mono&quot;, &quot;Liberation Mono&quot;, &quot;Roboto Mono&quot;, &quot;Noto Sans Mono&quot;, monospace; font-size: 16.0px;" text-anchor="middle" data-color-bar-letter="true">w</text></g><g data-color-bar-rank="1" data-color-bar-band="G"><rect x="1" y="119.77954260254502" width="20.0" height="75.64771351098594" fill="#ffd966"/><text x="11.0" y="191.90725611353096" fill="#000000" style="font-family: &quot;JetBrains Mono&quot;, &quot;Menlo&quot;, &quot;Consolas&quot;, &quot;DejaVu Sans Mono&quot;, &quot;Liberation Mono&quot;, &quot;Roboto Mono&quot;, &quot;Noto Sans Mono&quot;, monospace; font-size: 16.0px;" text-anchor="middle" data-color-bar-letter="true">g</text></g><g data-color-bar-rank="2" data-color-bar-band="B"><rect x="1" y="195.42725611353097" width="20.0" height="48.65210065000244" fill="#2f3fbf"/><text x="11.0" y="240.5593567635334" fill="#ffffff" style="font-family: &quot;JetBrains Mono&quot;, &quot;Menlo&quot;, &quot;Consolas&quot;, &quot;DejaVu Sans Mono&quot;, &quot;Liberation Mono&quot;, &quot;Roboto Mono&quot;, &quot;Noto Sans Mono&quot;, monospace; font-size: 16.0px;" text-anchor="middle" data-color-bar-letter="true">b</text></g><g data-color-bar-rank="3" data-color-bar-band="K"><rect x="1" y="244.0793567635334" width="20.0" height="31.92064323646659" fill="#000000"/><text x="11.0" y="272.48" fill="#ffffff" style="font-family: &quot;JetBrains Mono&quot;, &quot;Menlo&quot;, &quot;Consolas&quot;, &quot;DejaVu Sans Mono&quot;, &quot;Liberation Mono&quot;, &quot;Roboto Mono&quot;, &quot;Noto Sans Mono&quot;, monospace; font-size: 16.0px;" text-anchor="middle" data-color-bar-letter="true">k</text></g></g><g data-channel="label-top"><text x="27.0" y="16.0" fill="#a00000" style="font-family: &quot;JetBrains Mono&quot;, &quot;Menlo&quot;, &quot;Consolas&quot;, &quot;DejaVu Sans Mono&quot;, &quot;Liberation Mono&quot;, &quot;Roboto Mono&quot;, &quot;Noto Sans Mono&quot;, monospace; font-size: 12.0px;" dominant-baseline="central" font-weight="bold">fingerprint of </text><text x="135.0" y="16.0" fill="#666666" style="font-family: &quot;JetBrains Mono&quot;, &quot;Menlo&quot;, &quot;Consolas&quot;, &quot;DejaVu Sans Mono&quot;, &quot;Liberation Mono&quot;, &quot;Roboto Mono&quot;, &quot;Noto Sans Mono&quot;, monospace; font-size: 12.0px;" dominant-baseline="central">SSH ecdsa-nistp256 pubkey: AAAAE2VjZHNhLXNoYTItbmlzdHAyNTYAAAAIbmlzdHAyNTYAAABB...</text></g><line x1="0" y1="0.5" x2="273.0" y2="0.5" stroke="#808080" stroke-width="1" shape-rendering="crispEdges"/><line x1="272.5" y1="0" x2="272.5" y2="277.0" stroke="#808080" stroke-width="1" shape-rendering="crispEdges"/><line x1="0" y1="276.5" x2="273.0" y2="276.5" stroke="#808080" stroke-width="1" shape-rendering="crispEdges"/><line x1="0.5" y1="0" x2="0.5" y2="277.0" stroke="#808080" stroke-width="1" shape-rendering="crispEdges"/><line x1="21.5" y1="0" x2="21.5" y2="277.0" stroke="#808080" stroke-width="1" shape-rendering="crispEdges"/></svg>