<svg width="215" height="194" viewBox="0 0 215 194" xmlns="http://www.w3.org/2000/svg" font-family="&quot;JetBrains Mono&quot;, &quot;Menlo&quot;, &quot;Consolas&quot;, &quot;DejaVu Sans Mono&quot;, &quot;Liberation Mono&quot;, &quot;Roboto Mono&quot;, &quot;Noto Sans Mono&quot;, monospace" data-entviz-version="v14" data-entviz-lib="0.14.0" data-input-bytes="97" data-cols="3" data-rows="4" data-encoding="base64" data-scheme="ssh" data-role="key" data-size-basis="decoded" data-entropy-type="ssh" data-size-bits="264" data-qualifiers="{&quot;algorithm&quot;:&quot;ed25519&quot;}" data-parts="[{&quot;text&quot;:&quot;AAAAC3NzaC1lZDI1NTE5AAAA&quot;,&quot;bind&quot;:&quot;none&quot;},{&quot;text&quot;:&quot;IDtJVH9hM+2DyhmgRZBfeIDoVqCTbXY+0nKlS5pTkkXY&quot;,&quot;bind&quot;:&quot;core&quot;}]"><defs><clipPath id="grid-clip-9d0287415e6fa1da-3x4"><rect x="28" y="27" width="180" height="160"/></clipPath></defs><rect x="1" y="1" width="213" height="192" fill="#ffffff"/><g data-channel="grid"><rect x="28" y="27" width="180" height="160" fill="#ff3f2f"/><g><path fill="#000000" d="M28 27h6v10h-6zM34 27h6v10h-6zM40 27h6v10h-6zM70 27h6v10h-6zM82 27h6v10h-6zM58 57h6v10h-6zM46 57h6v10h-6zM40 57h6v10h-6zM34 57h6v10h-6zM28 37h6v10h-6z"/><path fill="#2f3fbf" d="M88 27h6v10h-6zM94 27h6v10h-6zM100 27h6v10h-6zM106 27h6v10h-6zM118 27h6v10h-6zM124 27h6v10h-6zM142 27h6v10h-6zM142 37h6v10h-6zM142 47h6v10h-6zM142 57h6v10h-6zM130 57h6v10h-6zM118 57h6v10h-6zM88 47h6v10h-6z"/><path fill="#e7be00" d="M148 27h6v10h-6zM154 27h6v10h-6zM172 27h6v10h-6zM190 27h6v10h-6zM202 27h6v10h-6zM202 47h6v10h-6zM202 57h6v10h-6zM190 57h6v10h-6zM184 57h6v10h-6zM178 57h6v10h-6zM148 57h6v10h-6zM148 37h6v10h-6z"/><path fill="#2f3fbf" d="M40 67h6v10h-6zM58 67h6v10h-6zM64 67h6v10h-6zM70 67h6v10h-6zM76 67h6v10h-6zM82 77h6v10h-6zM82 97h6v10h-6zM76 97h6v10h-6zM70 97h6v10h-6zM52 97h6v10h-6zM46 97h6v10h-6zM40 97h6v10h-6zM28 87h6v10h-6zM28 77h6v10h-6z"/><path fill="#e7be00" d="M100 67h6v10h-6zM118 67h6v10h-6zM124 67h6v10h-6zM142 97h6v10h-6zM124 97h6v10h-6zM94 97h6v10h-6z"/><path fill="#e7be00" d="M34 107h6v10h-6zM40 107h6v10h-6zM46 107h6v10h-6zM52 107h6v10h-6zM64 107h6v10h-6zM70 107h6v10h-6zM82 117h6v10h-6zM70 137h6v10h-6zM58 137h6v10h-6zM52 137h6v10h-6zM46 137h6v10h-6zM34 137h6v10h-6zM28 137h6v10h-6zM28 127h6v10h-6z"/><path fill="#e7be00" d="M100 107h6v10h-6zM106 107h6v10h-6zM112 107h6v10h-6zM130 107h6v10h-6zM136 107h6v10h-6zM142 127h6v10h-6zM94 137h6v10h-6zM88 137h6v10h-6zM88 127h6v10h-6zM88 117h6v10h-6z"/><path fill="#2f3fbf" d="M148 107h6v10h-6zM172 107h6v10h-6zM196 107h6v10h-6zM202 137h6v10h-6zM190 137h6v10h-6zM178 137h6v10h-6zM172 137h6v10h-6zM166 137h6v10h-6zM160 137h6v10h-6zM148 117h6v10h-6z"/><path fill="#000000" d="M28 147h6v10h-6zM34 147h6v10h-6zM52 147h6v10h-6zM76 147h6v10h-6zM82 147h6v10h-6zM82 157h6v10h-6zM82 177h6v10h-6zM70 177h6v10h-6zM58 177h6v10h-6zM52 177h6v10h-6zM40 177h6v10h-6zM34 177h6v10h-6zM28 177h6v10h-6zM28 167h6v10h-6zM28 157h6v10h-6z"/><path fill="#e7be00" d="M88 147h6v10h-6zM100 147h6v10h-6zM124 147h6v10h-6zM130 147h6v10h-6zM136 147h6v10h-6zM142 147h6v10h-6zM142 167h6v10h-6zM142 177h6v10h-6zM136 177h6v10h-6zM124 177h6v10h-6zM88 167h6v10h-6zM88 157h6v10h-6z"/><path fill="#2f3fbf" d="M148 147h6v10h-6zM160 147h6v10h-6zM172 147h6v10h-6zM184 147h6v10h-6zM190 147h6v10h-6zM196 147h6v10h-6zM190 177h6v10h-6zM184 177h6v10h-6zM178 177h6v10h-6zM172 177h6v10h-6zM154 177h6v10h-6zM148 167h6v10h-6z"/></g><g clip-path="url(#grid-clip-9d0287415e6fa1da-3x4)" data-channel="ellipse" data-ellipse-anchor-x="148" data-ellipse-anchor-y="147" data-ellipse-rx="65.846" data-ellipse-ry="78.065" data-ellipse-rotation-deg="0"><ellipse cx="148" cy="147" rx="65.846" ry="78.065" transform="rotate(0 148 147)" fill="#000000" stroke="#000000" fill-opacity="0.25" stroke-opacity="0.35" stroke-width="2"/></g><g><g data-channel="cell" data-cell-index="0" data-cell-row="0" data-cell-col="0" data-surround-bits="0x9d0287" data-edge-color="#000000"><rect x="34" y="37" width="48" height="20" fill="#493b20"/><text x="58" y="47" fill="#ffffff" font-size="16" text-anchor="middle" dominant-baseline="central">IDtJ</text></g><g data-channel="cell" data-cell-index="1" data-cell-row="0" data-cell-col="1" data-surround-bits="0x415e6f" data-edge-color="#2f3fbf"><rect x="94" y="37" width="48" height="20" fill="#617f54"/><text x="118" y="47" fill="#ffffff" font-size="16" text-anchor="middle" dominant-baseline="central">VH9h</text></g><g data-channel="cell" data-cell-index="2" data-cell-row="0" data-cell-col="2" data-surround-bits="0xa1da93" data-edge-color="#e7be00"><rect x="154" y="37" width="48" height="20" fill="#83ed33"/><text x="178" y="47" fill="#000000" font-size="16" text-anchor="middle" dominant-baseline="central">M+2D</text></g><g data-channel="cell" data-cell-index="3" data-cell-row="1" data-cell-col="0" data-surround-bits="0xce75e4" data-edge-color="#2f3fbf" data-cell-quartile="4"><rect x="34" y="77" width="48" height="20" fill="#a019ca"/><text x="58" y="87" fill="#ffffff" font-size="16" text-anchor="middle" dominant-baseline="central">yhmg</text><polygon points="34,97 34,87 44,97" fill="#ffffff"/></g><g data-channel="cell" data-cell-index="4" data-cell-row="1" data-cell-col="1" data-surround-bits="0x109064" data-edge-color="#e7be00"><rect x="94" y="77" width="48" height="20" fill="#5f9045"/><text x="118" y="87" fill="#000000" font-size="16" text-anchor="middle" dominant-baseline="central">RZBf</text></g><g data-channel="cell" data-cell-index="5" data-cell-row="1" data-cell-col="2" data-cell-blank="true" data-cell-blank-map="true"><rect x="154" y="77" width="48" height="20" rx="10" ry="10" fill="#e7be00" stroke="#000000" stroke-width="1"/><circle cx="178" cy="84.5" r="3.5" fill="#000000" data-blank-map-min="1,1"/><path d="M 157.8,94.5 H 166.2 M 162,90.3 V 98.7" fill="none" stroke="#000000" stroke-width="1.925" stroke-linecap="butt" data-blank-map-max="3,0"/></g><g data-channel="cell" data-cell-index="6" data-cell-row="2" data-cell-col="0" data-surround-bits="0x7744de" data-edge-color="#e7be00"><rect x="34" y="117" width="48" height="20" fill="#e88078"/><text x="58" y="127" fill="#000000" font-size="16" text-anchor="middle" dominant-baseline="central">eIDo</text></g><g data-channel="cell" data-cell-index="7" data-cell-row="2" data-cell-col="1" data-surround-bits="0xf0099c" data-edge-color="#e7be00" data-cell-quartile="3"><rect x="94" y="117" width="48" height="20" fill="#93a056"/><text x="118" y="127" fill="#000000" font-size="16" text-anchor="middle" dominant-baseline="central">VqCT</text><polygon points="142,137 142,127 132,137" fill="#000000"/></g><g data-channel="cell" data-cell-index="8" data-cell-row="2" data-cell-col="2" data-surround-bits="0x8f5111" data-edge-color="#2f3fbf"><rect x="154" y="117" width="48" height="20" fill="#3e766d"/><text x="178" y="127" fill="#ffffff" font-size="16" text-anchor="middle" dominant-baseline="central">bXY+</text></g><g data-channel="cell" data-cell-index="9" data-cell-row="3" data-cell-col="0" data-surround-bits="0xfb5713" data-edge-color="#000000" data-cell-quartile="2"><rect x="34" y="157" width="48" height="20" fill="#a572d2"/><text x="58" y="167" fill="#000000" font-size="16" text-anchor="middle" dominant-baseline="central">0nKl</text><polygon points="82,157 72,157 82,167" fill="#000000"/></g><g data-channel="cell" data-cell-index="10" data-cell-row="3" data-cell-col="1" data-surround-bits="0xc0bbc5" data-edge-color="#e7be00" data-cell-quartile="1"><rect x="94" y="157" width="48" height="20" fill="#539a4b"/><text x="118" y="167" fill="#000000" font-size="16" text-anchor="middle" dominant-baseline="central">S5pT</text><polygon points="94,157 104,157 94,167" fill="#000000"/></g><g data-channel="cell" data-cell-index="11" data-cell-row="3" data-cell-col="2" data-surround-bits="0x53c1d5" data-edge-color="#2f3fbf"><rect x="154" y="157" width="48" height="20" fill="#d84592"/><text x="178" y="167" fill="#000000" font-size="16" text-anchor="middle" dominant-baseline="central">kkXY</text></g></g></g><g data-channel="color-bar" data-bar-slots="15" data-bar-marker-left="0" data-bar-marker-right="6"><g data-color-bar-rank="0" data-color-bar-band="G"><rect x="2" y="2" width="20" height="69.422" fill="#e7be00"/><text x="12" y="67.902" fill="#000000" font-size="16" text-anchor="middle" data-color-bar-letter="true">g</text></g><g data-color-bar-rank="1" data-color-bar-band="K"><rect x="2" y="71.422" width="20" height="51.837" fill="#000000"/><text x="12" y="119.739" fill="#ffffff" font-size="16" text-anchor="middle" data-color-bar-letter="true">k</text></g><g data-color-bar-rank="2" data-color-bar-band="B"><rect x="2" y="123.259" width="20" height="30.915" fill="#2f3fbf"/><text x="12" y="150.655" fill="#ffffff" font-size="16" text-anchor="middle" data-color-bar-letter="true">b</text></g><g data-color-bar-rank="3" data-color-bar-band="W"><rect x="2" y="154.175" width="20" height="37.825" fill="#ffffff"/><text x="12" y="188.48" fill="#000000" font-size="16" text-anchor="middle" data-color-bar-letter="true">w</text></g><circle cx="6.6" cy="8.333" r="3.4" fill="#ffffff" stroke="#000000" stroke-width="0.75" data-bar-marker="left"/><circle cx="17.4" cy="84.333" r="3.4" fill="#ffffff" stroke="#000000" stroke-width="0.75" data-bar-marker="right"/></g><g data-channel="label-top"><text x="28" y="17" fill="#666666" font-size="12" dominant-baseline="central">SSH, ed25519, 264-bit</text></g><line x1="1" y1="1.5" x2="214" y2="1.5" stroke="#808080" stroke-width="1" shape-rendering="crispEdges"/><line x1="213.5" y1="1" x2="213.5" y2="193" stroke="#808080" stroke-width="1" shape-rendering="crispEdges"/><line x1="1" y1="192.5" x2="214" y2="192.5" stroke="#808080" stroke-width="1" shape-rendering="crispEdges"/><line x1="1.5" y1="1" x2="1.5" y2="193" stroke="#808080" stroke-width="1" shape-rendering="crispEdges"/><line x1="22.5" y1="1" x2="22.5" y2="193" stroke="#808080" stroke-width="1" shape-rendering="crispEdges"/></svg>