<svg width="213" height="192" viewBox="0 0 213 192" xmlns="http://www.w3.org/2000/svg" font-family="&quot;JetBrains Mono&quot;, &quot;Menlo&quot;, &quot;Consolas&quot;, &quot;DejaVu Sans Mono&quot;, &quot;Liberation Mono&quot;, &quot;Roboto Mono&quot;, &quot;Noto Sans Mono&quot;, monospace" data-entviz-version="v10" data-entviz-lib="0.10.0" data-input-bytes="97" data-cols="3" data-rows="4"><defs><clipPath id="grid-clip-9d0287415e6fa1da-3x4"><rect x="27" y="26" width="180" height="160"/></clipPath></defs><rect x="0" y="0" width="213" height="192" fill="#ffffff"/><g data-channel="grid"><rect x="27" y="26" width="180" height="160" fill="#ff3f2f"/><g><rect x="27" y="26" width="6" height="10" fill="#000000"/><rect x="33" y="26" width="6" height="10" fill="#000000"/><rect x="39" y="26" width="6" height="10" fill="#000000"/><rect x="69" y="26" width="6" height="10" fill="#000000"/><rect x="81" y="26" width="6" height="10" fill="#000000"/><rect x="57" y="56" width="6" height="10" fill="#000000"/><rect x="45" y="56" width="6" height="10" fill="#000000"/><rect x="39" y="56" width="6" height="10" fill="#000000"/><rect x="33" y="56" width="6" height="10" fill="#000000"/><rect x="27" y="36" width="6" height="10" fill="#000000"/><rect x="87" y="26" width="6" height="10" fill="#2f3fbf"/><rect x="93" y="26" width="6" height="10" fill="#2f3fbf"/><rect x="99" y="26" width="6" height="10" fill="#2f3fbf"/><rect x="105" y="26" width="6" height="10" fill="#2f3fbf"/><rect x="117" y="26" width="6" height="10" fill="#2f3fbf"/><rect x="123" y="26" width="6" height="10" fill="#2f3fbf"/><rect x="141" y="26" width="6" height="10" fill="#2f3fbf"/><rect x="141" y="36" width="6" height="10" fill="#2f3fbf"/><rect x="141" y="46" width="6" height="10" fill="#2f3fbf"/><rect x="141" y="56" width="6" height="10" fill="#2f3fbf"/><rect x="129" y="56" width="6" height="10" fill="#2f3fbf"/><rect x="117" y="56" width="6" height="10" fill="#2f3fbf"/><rect x="87" y="46" width="6" height="10" fill="#2f3fbf"/><rect x="147" y="26" width="6" height="10" fill="#e7be00"/><rect x="153" y="26" width="6" height="10" fill="#e7be00"/><rect x="171" y="26" width="6" height="10" fill="#e7be00"/><rect x="189" y="26" width="6" height="10" fill="#e7be00"/><rect x="201" y="26" width="6" height="10" fill="#e7be00"/><rect x="201" y="46" width="6" height="10" fill="#e7be00"/><rect x="201" y="56" width="6" height="10" fill="#e7be00"/><rect x="189" y="56" width="6" height="10" fill="#e7be00"/><rect x="183" y="56" width="6" height="10" fill="#e7be00"/><rect x="177" y="56" width="6" height="10" fill="#e7be00"/><rect x="147" y="56" width="6" height="10" fill="#e7be00"/><rect x="147" y="36" width="6" height="10" fill="#e7be00"/><rect x="39" y="66" width="6" height="10" fill="#2f3fbf"/><rect x="57" y="66" width="6" height="10" fill="#2f3fbf"/><rect x="63" y="66" width="6" height="10" fill="#2f3fbf"/><rect x="69" y="66" width="6" height="10" fill="#2f3fbf"/><rect x="75" y="66" width="6" height="10" fill="#2f3fbf"/><rect x="81" y="76" width="6" height="10" fill="#2f3fbf"/><rect x="81" y="96" width="6" height="10" fill="#2f3fbf"/><rect x="75" y="96" width="6" height="10" fill="#2f3fbf"/><rect x="69" y="96" width="6" height="10" fill="#2f3fbf"/><rect x="51" y="96" width="6" height="10" fill="#2f3fbf"/><rect x="45" y="96" width="6" height="10" fill="#2f3fbf"/><rect x="39" y="96" width="6" height="10" fill="#2f3fbf"/><rect x="27" y="86" width="6" height="10" fill="#2f3fbf"/><rect x="27" y="76" width="6" height="10" fill="#2f3fbf"/><rect x="99" y="66" width="6" height="10" fill="#e7be00"/><rect x="117" y="66" width="6" height="10" fill="#e7be00"/><rect x="123" y="66" width="6" height="10" fill="#e7be00"/><rect x="141" y="96" width="6" height="10" fill="#e7be00"/><rect x="123" y="96" width="6" height="10" fill="#e7be00"/><rect x="93" y="96" width="6" height="10" fill="#e7be00"/><rect x="33" y="106" width="6" height="10" fill="#e7be00"/><rect x="39" y="106" width="6" height="10" fill="#e7be00"/><rect x="45" y="106" width="6" height="10" fill="#e7be00"/><rect x="51" y="106" width="6" height="10" fill="#e7be00"/><rect x="63" y="106" width="6" height="10" fill="#e7be00"/><rect x="69" y="106" width="6" height="10" fill="#e7be00"/><rect x="81" y="116" width="6" height="10" fill="#e7be00"/><rect x="69" y="136" width="6" height="10" fill="#e7be00"/><rect x="57" y="136" width="6" height="10" fill="#e7be00"/><rect x="51" y="136" width="6" height="10" fill="#e7be00"/><rect x="45" y="136" width="6" height="10" fill="#e7be00"/><rect x="33" y="136" width="6" height="10" fill="#e7be00"/><rect x="27" y="136" width="6" height="10" fill="#e7be00"/><rect x="27" y="126" width="6" height="10" fill="#e7be00"/><rect x="99" y="106" width="6" height="10" fill="#e7be00"/><rect x="105" y="106" width="6" height="10" fill="#e7be00"/><rect x="111" y="106" width="6" height="10" fill="#e7be00"/><rect x="129" y="106" width="6" height="10" fill="#e7be00"/><rect x="135" y="106" width="6" height="10" fill="#e7be00"/><rect x="141" y="126" width="6" height="10" fill="#e7be00"/><rect x="93" y="136" width="6" height="10" fill="#e7be00"/><rect x="87" y="136" width="6" height="10" fill="#e7be00"/><rect x="87" y="126" width="6" height="10" fill="#e7be00"/><rect x="87" y="116" width="6" height="10" fill="#e7be00"/><rect x="147" y="106" width="6" height="10" fill="#2f3fbf"/><rect x="171" y="106" width="6" height="10" fill="#2f3fbf"/><rect x="195" y="106" width="6" height="10" fill="#2f3fbf"/><rect x="201" y="136" width="6" height="10" fill="#2f3fbf"/><rect x="189" y="136" width="6" height="10" fill="#2f3fbf"/><rect x="177" y="136" width="6" height="10" fill="#2f3fbf"/><rect x="171" y="136" width="6" height="10" fill="#2f3fbf"/><rect x="165" y="136" width="6" height="10" fill="#2f3fbf"/><rect x="159" y="136" width="6" height="10" fill="#2f3fbf"/><rect x="147" y="116" width="6" height="10" fill="#2f3fbf"/><rect x="27" y="146" width="6" height="10" fill="#000000"/><rect x="33" y="146" width="6" height="10" fill="#000000"/><rect x="51" y="146" width="6" height="10" fill="#000000"/><rect x="75" y="146" width="6" height="10" fill="#000000"/><rect x="81" y="146" width="6" height="10" fill="#000000"/><rect x="81" y="156" width="6" height="10" fill="#000000"/><rect x="81" y="176" width="6" height="10" fill="#000000"/><rect x="69" y="176" width="6" height="10" fill="#000000"/><rect x="57" y="176" width="6" height="10" fill="#000000"/><rect x="51" y="176" width="6" height="10" fill="#000000"/><rect x="39" y="176" width="6" height="10" fill="#000000"/><rect x="33" y="176" width="6" height="10" fill="#000000"/><rect x="27" y="176" width="6" height="10" fill="#000000"/><rect x="27" y="166" width="6" height="10" fill="#000000"/><rect x="27" y="156" width="6" height="10" fill="#000000"/><rect x="87" y="146" width="6" height="10" fill="#e7be00"/><rect x="99" y="146" width="6" height="10" fill="#e7be00"/><rect x="123" y="146" width="6" height="10" fill="#e7be00"/><rect x="129" y="146" width="6" height="10" fill="#e7be00"/><rect x="135" y="146" width="6" height="10" fill="#e7be00"/><rect x="141" y="146" width="6" height="10" fill="#e7be00"/><rect x="141" y="166" width="6" height="10" fill="#e7be00"/><rect x="141" y="176" width="6" height="10" fill="#e7be00"/><rect x="135" y="176" width="6" height="10" fill="#e7be00"/><rect x="123" y="176" width="6" height="10" fill="#e7be00"/><rect x="87" y="166" width="6" height="10" fill="#e7be00"/><rect x="87" y="156" width="6" height="10" fill="#e7be00"/><rect x="147" y="146" width="6" height="10" fill="#2f3fbf"/><rect x="159" y="146" width="6" height="10" fill="#2f3fbf"/><rect x="171" y="146" width="6" height="10" fill="#2f3fbf"/><rect x="183" y="146" width="6" height="10" fill="#2f3fbf"/><rect x="189" y="146" width="6" height="10" fill="#2f3fbf"/><rect x="195" y="146" width="6" height="10" fill="#2f3fbf"/><rect x="189" y="176" width="6" height="10" fill="#2f3fbf"/><rect x="183" y="176" width="6" height="10" fill="#2f3fbf"/><rect x="177" y="176" width="6" height="10" fill="#2f3fbf"/><rect x="171" y="176" width="6" height="10" fill="#2f3fbf"/><rect x="153" y="176" width="6" height="10" fill="#2f3fbf"/><rect x="147" y="166" width="6" height="10" fill="#2f3fbf"/></g><g clip-path="url(#grid-clip-9d0287415e6fa1da-3x4)" data-channel="ellipse" data-ellipse-anchor-x="147" data-ellipse-anchor-y="146" data-ellipse-rx="65.846" data-ellipse-ry="78.065" data-ellipse-rotation-deg="0"><ellipse cx="147" cy="146" rx="65.846" ry="78.065" transform="rotate(0 147 146)" fill="#000000" stroke="#000000" fill-opacity="0.25" stroke-opacity="0.35" stroke-width="2"/></g><g><g data-channel="cell" data-cell-index="0" data-cell-row="0" data-cell-col="0"><rect x="33" y="36" width="48" height="20" fill="#493b20"/><text x="57" y="46" fill="#ffffff" font-size="16" text-anchor="middle" dominant-baseline="central">IDtJ</text></g><g data-channel="cell" data-cell-index="1" data-cell-row="0" data-cell-col="1"><rect x="93" y="36" width="48" height="20" fill="#617f54"/><text x="117" y="46" fill="#ffffff" font-size="16" text-anchor="middle" dominant-baseline="central">VH9h</text></g><g data-channel="cell" data-cell-index="2" data-cell-row="0" data-cell-col="2"><rect x="153" y="36" width="48" height="20" fill="#83ed33"/><text x="177" y="46" fill="#000000" font-size="16" text-anchor="middle" dominant-baseline="central">M+2D</text></g><g data-channel="cell" data-cell-index="3" data-cell-row="1" data-cell-col="0" data-cell-quartile="4"><rect x="33" y="76" width="48" height="20" fill="#a019ca"/><text x="57" y="86" fill="#ffffff" font-size="16" text-anchor="middle" dominant-baseline="central">yhmg</text><polygon points="33,96 33,86 43,96" fill="#ffffff"/></g><g data-channel="cell" data-cell-index="4" data-cell-row="1" data-cell-col="1"><rect x="93" y="76" width="48" height="20" fill="#5f9045"/><text x="117" y="86" fill="#000000" font-size="16" text-anchor="middle" dominant-baseline="central">RZBf</text></g><g data-channel="cell" data-cell-index="5" data-cell-row="1" data-cell-col="2" data-cell-blank="true" data-cell-blank-map="true"><rect x="153" y="76" width="48" height="20" rx="10" ry="10" fill="#e7be00" stroke="#000000" stroke-width="1"/><circle cx="177" cy="83.5" r="3.5" fill="#000000" data-blank-map-min="1,1"/><path d="M 156.8,93.5 H 165.2 M 161,89.3 V 97.7" fill="none" stroke="#000000" stroke-width="1.925" stroke-linecap="butt" data-blank-map-max="3,0"/></g><g data-channel="cell" data-cell-index="6" data-cell-row="2" data-cell-col="0"><rect x="33" y="116" width="48" height="20" fill="#e88078"/><text x="57" y="126" fill="#000000" font-size="16" text-anchor="middle" dominant-baseline="central">eIDo</text></g><g data-channel="cell" data-cell-index="7" data-cell-row="2" data-cell-col="1" data-cell-quartile="3"><rect x="93" y="116" width="48" height="20" fill="#93a056"/><text x="117" y="126" fill="#000000" font-size="16" text-anchor="middle" dominant-baseline="central">VqCT</text><polygon points="141,136 141,126 131,136" fill="#000000"/></g><g data-channel="cell" data-cell-index="8" data-cell-row="2" data-cell-col="2"><rect x="153" y="116" width="48" height="20" fill="#3e766d"/><text x="177" y="126" fill="#ffffff" font-size="16" text-anchor="middle" dominant-baseline="central">bXY+</text></g><g data-channel="cell" data-cell-index="9" data-cell-row="3" data-cell-col="0" data-cell-quartile="2"><rect x="33" y="156" width="48" height="20" fill="#a572d2"/><text x="57" y="166" fill="#000000" font-size="16" text-anchor="middle" dominant-baseline="central">0nKl</text><polygon points="81,156 71,156 81,166" fill="#000000"/></g><g data-channel="cell" data-cell-index="10" data-cell-row="3" data-cell-col="1" data-cell-quartile="1"><rect x="93" y="156" width="48" height="20" fill="#539a4b"/><text x="117" y="166" fill="#000000" font-size="16" text-anchor="middle" dominant-baseline="central">S5pT</text><polygon points="93,156 103,156 93,166" fill="#000000"/></g><g data-channel="cell" data-cell-index="11" data-cell-row="3" data-cell-col="2"><rect x="153" y="156" width="48" height="20" fill="#d84592"/><text x="177" y="166" fill="#000000" font-size="16" text-anchor="middle" dominant-baseline="central">kkXY</text></g></g></g><g data-channel="color-bar" data-bar-slots="15" data-bar-marker-left="0" data-bar-marker-right="6"><g data-color-bar-rank="0" data-color-bar-band="G"><rect x="1" y="1" width="20" height="69.422" fill="#e7be00"/><text x="11" y="66.902" fill="#000000" font-size="16" text-anchor="middle" data-color-bar-letter="true">g</text></g><g data-color-bar-rank="1" data-color-bar-band="K"><rect x="1" y="70.422" width="20" height="51.837" fill="#000000"/><text x="11" y="118.739" fill="#ffffff" font-size="16" text-anchor="middle" data-color-bar-letter="true">k</text></g><g data-color-bar-rank="2" data-color-bar-band="B"><rect x="1" y="122.259" width="20" height="30.915" fill="#2f3fbf"/><text x="11" y="149.655" fill="#ffffff" font-size="16" text-anchor="middle" data-color-bar-letter="true">b</text></g><g data-color-bar-rank="3" data-color-bar-band="W"><rect x="1" y="153.175" width="20" height="37.825" fill="#ffffff"/><text x="11" y="187.48" fill="#000000" font-size="16" text-anchor="middle" data-color-bar-letter="true">w</text></g><circle cx="5.6" cy="7.333" r="3.4" fill="#ffffff" stroke="#000000" stroke-width="0.75" data-bar-marker="left"/><circle cx="16.4" cy="83.333" r="3.4" fill="#ffffff" stroke="#000000" stroke-width="0.75" data-bar-marker="right"/></g><g data-channel="label-top"><text x="27" y="16" fill="#666666" font-size="12" dominant-baseline="central">SSH ed25519: AAAAC3NzaC1lZDI1NTE5AAAA...</text></g><line x1="0" y1="0.5" x2="213" y2="0.5" stroke="#808080" stroke-width="1" shape-rendering="crispEdges"/><line x1="212.5" y1="0" x2="212.5" y2="192" stroke="#808080" stroke-width="1" shape-rendering="crispEdges"/><line x1="0" y1="191.5" x2="213" y2="191.5" stroke="#808080" stroke-width="1" shape-rendering="crispEdges"/><line x1="0.5" y1="0" x2="0.5" y2="192" stroke="#808080" stroke-width="1" shape-rendering="crispEdges"/><line x1="21.5" y1="0" x2="21.5" y2="192" stroke="#808080" stroke-width="1" shape-rendering="crispEdges"/></svg>