<svg width="143.0" height="117.0" viewBox="0 0 143.0 117.0" xmlns="http://www.w3.org/2000/svg" data-entviz-version="v5" data-entviz-lib="0.5.0" data-input-bytes="19" data-cols="2" data-rows="2"><defs><clipPath id="grid-clip-368e6fc81008c9c2-2x2"><rect x="17.0" y="31.0" width="120.0" height="80.0"/></clipPath></defs><rect x="0" y="0" width="143.0" height="117.0" fill="#ffffff"/><g data-channel="grid"><rect x="17.0" y="31.0" width="120.0" height="80.0" fill="#2f3fbf"/><g><rect x="17.0" y="31.0" width="6.0" height="10.0" fill="#000000"/><rect x="23.0" y="31.0" width="6.0" height="10.0" fill="#000000"/><rect x="29.0" y="31.0" width="6.0" height="10.0" fill="#000000"/><rect x="35.0" y="31.0" width="6.0" height="10.0" fill="#000000"/><rect x="47.0" y="31.0" width="6.0" height="10.0" fill="#000000"/><rect x="53.0" y="31.0" width="6.0" height="10.0" fill="#000000"/><rect x="71.0" y="31.0" width="6.0" height="10.0" fill="#000000"/><rect x="71.0" y="41.0" width="6.0" height="10.0" fill="#000000"/><rect x="71.0" y="51.0" width="6.0" height="10.0" fill="#000000"/><rect x="53.0" y="61.0" width="6.0" height="10.0" fill="#000000"/><rect x="41.0" y="61.0" width="6.0" height="10.0" fill="#000000"/><rect x="35.0" y="61.0" width="6.0" height="10.0" fill="#000000"/><rect x="23.0" y="61.0" width="6.0" height="10.0" fill="#000000"/><rect x="17.0" y="61.0" width="6.0" height="10.0" fill="#000000"/><rect x="95.0" y="31.0" width="6.0" height="10.0" fill="#ffd966"/><rect x="131.0" y="61.0" width="6.0" height="10.0" fill="#ffd966"/><rect x="89.0" y="61.0" width="6.0" height="10.0" fill="#ffd966"/><rect x="77.0" y="51.0" width="6.0" height="10.0" fill="#ffd966"/><rect x="77.0" y="41.0" width="6.0" height="10.0" fill="#ffd966"/><rect x="29.0" y="71.0" width="6.0" height="10.0" fill="#000000"/><rect x="71.0" y="71.0" width="6.0" height="10.0" fill="#000000"/><rect x="59.0" y="101.0" width="6.0" height="10.0" fill="#000000"/><rect x="53.0" y="101.0" width="6.0" height="10.0" fill="#000000"/><rect x="47.0" y="101.0" width="6.0" height="10.0" fill="#000000"/><rect x="29.0" y="101.0" width="6.0" height="10.0" fill="#000000"/><rect x="17.0" y="91.0" width="6.0" height="10.0" fill="#000000"/><rect x="17.0" y="81.0" width="6.0" height="10.0" fill="#000000"/><rect x="83.0" y="71.0" width="6.0" height="10.0" fill="#000000"/><rect x="89.0" y="71.0" width="6.0" height="10.0" fill="#000000"/><rect x="113.0" y="71.0" width="6.0" height="10.0" fill="#000000"/><rect x="125.0" y="71.0" width="6.0" height="10.0" fill="#000000"/><rect x="131.0" y="91.0" width="6.0" height="10.0" fill="#000000"/><rect x="119.0" y="101.0" width="6.0" height="10.0" fill="#000000"/><rect x="95.0" y="101.0" width="6.0" height="10.0" fill="#000000"/><rect x="89.0" y="101.0" width="6.0" height="10.0" fill="#000000"/><rect x="77.0" y="101.0" width="6.0" height="10.0" fill="#000000"/><rect x="77.0" y="91.0" width="6.0" height="10.0" fill="#000000"/><rect x="77.0" y="81.0" width="6.0" height="10.0" fill="#000000"/></g><g clip-path="url(#grid-clip-368e6fc81008c9c2-2x2)" data-channel="ellipse" data-ellipse-anchor-x="17.0" data-ellipse-anchor-y="111.0" data-ellipse-rx="62.81470067903971" data-ellipse-ry="62.81470067903971" data-ellipse-rotation-deg="36.0"><ellipse cx="17.0" cy="111.0" rx="62.81470067903971" ry="62.81470067903971" transform="rotate(36.0 17.0 111.0)" fill="#ffffff" fill-opacity="0.4"/></g><g><g data-channel="cell" data-cell-index="0" data-cell-row="0" data-cell-col="0" data-cell-quartile="4"><rect x="23.0" y="41.0" width="48.0" height="20.0" fill="#563412"/><text x="47.0" y="51.0" fill="#ffffff" style="font-family: &quot;DejaVu Sans Mono&quot;, &quot;Consolas&quot;, &quot;Menlo&quot;, &quot;Liberation Mono&quot;, monospace; font-size: 12.0px;" text-anchor="middle" dominant-baseline="central">123456</text><polygon points="23.0,61.0 23.0,51.0 33.0,61.0" fill="#ffffff"/></g><g data-channel="cell" data-cell-index="1" data-cell-row="0" data-cell-col="1" data-cell-quartile="3"><rect x="83.0" y="41.0" width="48.0" height="20.0" fill="#989078"/><text x="107.0" y="51.0" fill="#000000" style="font-family: &quot;DejaVu Sans Mono&quot;, &quot;Consolas&quot;, &quot;Menlo&quot;, &quot;Liberation Mono&quot;, monospace; font-size: 12.0px;" text-anchor="middle" dominant-baseline="central">789098</text><polygon points="131.0,61.0 131.0,51.0 121.0,61.0" fill="#000000"/></g><g data-channel="cell" data-cell-index="2" data-cell-row="1" data-cell-col="0" data-cell-quartile="1"><rect x="23.0" y="81.0" width="48.0" height="20.0" fill="#325476"/><text x="47.0" y="91.0" fill="#ffffff" style="font-family: &quot;DejaVu Sans Mono&quot;, &quot;Consolas&quot;, &quot;Menlo&quot;, &quot;Liberation Mono&quot;, monospace; font-size: 12.0px;" text-anchor="middle" dominant-baseline="central">765432</text><polygon points="23.0,81.0 33.0,81.0 23.0,91.0" fill="#ffffff"/></g><g data-channel="cell" data-cell-index="3" data-cell-row="1" data-cell-col="1" data-cell-quartile="2"><rect x="83.0" y="81.0" width="48.0" height="20.0" fill="#111111"/><text x="107.0" y="91.0" fill="#ffffff" style="font-family: &quot;DejaVu Sans Mono&quot;, &quot;Consolas&quot;, &quot;Menlo&quot;, &quot;Liberation Mono&quot;, monospace; font-size: 12.0px;" text-anchor="middle" dominant-baseline="central">1</text><polygon points="131.0,81.0 121.0,81.0 131.0,91.0" fill="#ffffff"/></g></g></g><g data-channel="color-bar"><g data-color-bar-rank="0" data-color-bar-band="W"><rect x="1" y="1" width="10.0" height="45.528099910507905" fill="#ffffff"/><text x="6.0" y="23.764049955253952" fill="#000000" style="font-family: &quot;DejaVu Sans Mono&quot;, &quot;Consolas&quot;, &quot;Menlo&quot;, &quot;Liberation Mono&quot;, monospace; font-size: 8.5px;" text-anchor="middle" dominant-baseline="central" data-color-bar-letter="true">w</text></g><g data-color-bar-rank="1" data-color-bar-band="R"><rect x="1" y="46.528099910507905" width="10.0" height="34.278652073983594" fill="#ff3f2f"/><text x="6.0" y="63.6674259474997" fill="#000000" style="font-family: &quot;DejaVu Sans Mono&quot;, &quot;Consolas&quot;, &quot;Menlo&quot;, &quot;Liberation Mono&quot;, monospace; font-size: 8.5px;" text-anchor="middle" dominant-baseline="central" data-color-bar-letter="true">r</text></g><g data-color-bar-rank="2" data-color-bar-band="K"><rect x="1" y="80.8067519844915" width="10.0" height="19.426570197065796" fill="#000000"/><text x="6.0" y="90.52003708302439" fill="#ffffff" style="font-family: &quot;DejaVu Sans Mono&quot;, &quot;Consolas&quot;, &quot;Menlo&quot;, &quot;Liberation Mono&quot;, monospace; font-size: 8.5px;" text-anchor="middle" dominant-baseline="central" data-color-bar-letter="true">k</text></g><g data-color-bar-rank="3" data-color-bar-band="G"><rect x="1" y="100.2333221815573" width="10.0" height="15.766677818442702" fill="#ffd966"/><text x="6.0" y="108.11666109077865" fill="#000000" style="font-family: &quot;DejaVu Sans Mono&quot;, &quot;Consolas&quot;, &quot;Menlo&quot;, &quot;Liberation Mono&quot;, monospace; font-size: 8.5px;" text-anchor="middle" dominant-baseline="central" data-color-bar-letter="true">g</text></g></g><g data-channel="label-top"><text x="17.0" y="16.0" fill="#666666" style="font-family: &quot;DejaVu Sans Mono&quot;, &quot;Consolas&quot;, &quot;Menlo&quot;, &quot;Liberation Mono&quot;, monospace; font-size: 12.0px;" dominant-baseline="central">snowflake:</text></g><line x1="0" y1="0.5" x2="143.0" y2="0.5" stroke="#808080" stroke-width="1" shape-rendering="crispEdges"/><line x1="142.5" y1="0" x2="142.5" y2="117.0" stroke="#808080" stroke-width="1" shape-rendering="crispEdges"/><line x1="0" y1="116.5" x2="143.0" y2="116.5" stroke="#808080" stroke-width="1" shape-rendering="crispEdges"/><line x1="0.5" y1="0" x2="0.5" y2="117.0" stroke="#808080" stroke-width="1" shape-rendering="crispEdges"/><line x1="11.5" y1="0" x2="11.5" y2="117.0" stroke="#808080" stroke-width="1" shape-rendering="crispEdges"/></svg>