<svg width="273.0" height="197.0" viewBox="0 0 273.0 197.0" xmlns="http://www.w3.org/2000/svg" data-entviz-version="v6" data-entviz-lib="0.5.0" data-input-bytes="56" data-cols="4" data-rows="4"><defs><clipPath id="grid-clip-0505b85683fede30-4x4"><rect x="27.0" y="31.0" width="240.0" height="160.0"/></clipPath></defs><rect x="0" y="0" width="273.0" height="197.0" fill="#ffffff"/><g data-channel="grid"><rect x="27.0" y="31.0" width="240.0" height="160.0" fill="#ff3f2f"/><g><rect x="45.0" y="31.0" width="6.0" height="10.0" fill="#000000"/><rect x="51.0" y="31.0" width="6.0" height="10.0" fill="#000000"/><rect x="57.0" y="31.0" width="6.0" height="10.0" fill="#000000"/><rect x="69.0" y="31.0" width="6.0" height="10.0" fill="#000000"/><rect x="75.0" y="31.0" width="6.0" height="10.0" fill="#000000"/><rect x="81.0" y="41.0" width="6.0" height="10.0" fill="#000000"/><rect x="57.0" y="61.0" width="6.0" height="10.0" fill="#000000"/><rect x="45.0" y="61.0" width="6.0" height="10.0" fill="#000000"/><rect x="93.0" y="31.0" width="6.0" height="10.0" fill="#000000"/><rect x="99.0" y="31.0" width="6.0" height="10.0" fill="#000000"/><rect x="105.0" y="31.0" width="6.0" height="10.0" fill="#000000"/><rect x="111.0" y="31.0" width="6.0" height="10.0" fill="#000000"/><rect x="117.0" y="31.0" width="6.0" height="10.0" fill="#000000"/><rect x="123.0" y="31.0" width="6.0" height="10.0" fill="#000000"/><rect x="129.0" y="31.0" width="6.0" height="10.0" fill="#000000"/><rect x="135.0" y="31.0" width="6.0" height="10.0" fill="#000000"/><rect x="141.0" y="31.0" width="6.0" height="10.0" fill="#000000"/><rect x="123.0" y="61.0" width="6.0" height="10.0" fill="#000000"/><rect x="111.0" y="61.0" width="6.0" height="10.0" fill="#000000"/><rect x="105.0" y="61.0" width="6.0" height="10.0" fill="#000000"/><rect x="93.0" y="61.0" width="6.0" height="10.0" fill="#000000"/><rect x="87.0" y="51.0" width="6.0" height="10.0" fill="#000000"/><rect x="171.0" y="31.0" width="6.0" height="10.0" fill="#ffd966"/><rect x="177.0" y="31.0" width="6.0" height="10.0" fill="#ffd966"/><rect x="183.0" y="31.0" width="6.0" height="10.0" fill="#ffd966"/><rect x="201.0" y="61.0" width="6.0" height="10.0" fill="#ffd966"/><rect x="195.0" y="61.0" width="6.0" height="10.0" fill="#ffd966"/><rect x="171.0" y="61.0" width="6.0" height="10.0" fill="#ffd966"/><rect x="165.0" y="61.0" width="6.0" height="10.0" fill="#ffd966"/><rect x="159.0" y="61.0" width="6.0" height="10.0" fill="#ffd966"/><rect x="153.0" y="61.0" width="6.0" height="10.0" fill="#ffd966"/><rect x="147.0" y="51.0" width="6.0" height="10.0" fill="#ffd966"/><rect x="147.0" y="41.0" width="6.0" height="10.0" fill="#ffd966"/><rect x="213.0" y="31.0" width="6.0" height="10.0" fill="#ffd966"/><rect x="225.0" y="31.0" width="6.0" height="10.0" fill="#ffd966"/><rect x="243.0" y="31.0" width="6.0" height="10.0" fill="#ffd966"/><rect x="249.0" y="31.0" width="6.0" height="10.0" fill="#ffd966"/><rect x="255.0" y="31.0" width="6.0" height="10.0" fill="#ffd966"/><rect x="261.0" y="31.0" width="6.0" height="10.0" fill="#ffd966"/><rect x="219.0" y="61.0" width="6.0" height="10.0" fill="#ffd966"/><rect x="213.0" y="61.0" width="6.0" height="10.0" fill="#ffd966"/><rect x="207.0" y="61.0" width="6.0" height="10.0" fill="#ffd966"/><rect x="207.0" y="41.0" width="6.0" height="10.0" fill="#ffd966"/><rect x="63.0" y="71.0" width="6.0" height="10.0" fill="#ffd966"/><rect x="69.0" y="71.0" width="6.0" height="10.0" fill="#ffd966"/><rect x="81.0" y="91.0" width="6.0" height="10.0" fill="#ffd966"/><rect x="69.0" y="101.0" width="6.0" height="10.0" fill="#ffd966"/><rect x="63.0" y="101.0" width="6.0" height="10.0" fill="#ffd966"/><rect x="57.0" y="101.0" width="6.0" height="10.0" fill="#ffd966"/><rect x="45.0" y="101.0" width="6.0" height="10.0" fill="#ffd966"/><rect x="33.0" y="101.0" width="6.0" height="10.0" fill="#ffd966"/><rect x="27.0" y="81.0" width="6.0" height="10.0" fill="#ffd966"/><rect x="111.0" y="71.0" width="6.0" height="10.0" fill="#ffd966"/><rect x="117.0" y="71.0" width="6.0" height="10.0" fill="#ffd966"/><rect x="123.0" y="71.0" width="6.0" height="10.0" fill="#ffd966"/><rect x="141.0" y="101.0" width="6.0" height="10.0" fill="#ffd966"/><rect x="135.0" y="101.0" width="6.0" height="10.0" fill="#ffd966"/><rect x="117.0" y="101.0" width="6.0" height="10.0" fill="#ffd966"/><rect x="111.0" y="101.0" width="6.0" height="10.0" fill="#ffd966"/><rect x="87.0" y="91.0" width="6.0" height="10.0" fill="#ffd966"/><rect x="159.0" y="71.0" width="6.0" height="10.0" fill="#2f3fbf"/><rect x="189.0" y="71.0" width="6.0" height="10.0" fill="#2f3fbf"/><rect x="195.0" y="71.0" width="6.0" height="10.0" fill="#2f3fbf"/><rect x="201.0" y="91.0" width="6.0" height="10.0" fill="#2f3fbf"/><rect x="201.0" y="101.0" width="6.0" height="10.0" fill="#2f3fbf"/><rect x="195.0" y="101.0" width="6.0" height="10.0" fill="#2f3fbf"/><rect x="183.0" y="101.0" width="6.0" height="10.0" fill="#2f3fbf"/><rect x="177.0" y="101.0" width="6.0" height="10.0" fill="#2f3fbf"/><rect x="171.0" y="101.0" width="6.0" height="10.0" fill="#2f3fbf"/><rect x="165.0" y="101.0" width="6.0" height="10.0" fill="#2f3fbf"/><rect x="159.0" y="101.0" width="6.0" height="10.0" fill="#2f3fbf"/><rect x="153.0" y="101.0" width="6.0" height="10.0" fill="#2f3fbf"/><rect x="207.0" y="71.0" width="6.0" height="10.0" fill="#ffffff"/><rect x="213.0" y="71.0" width="6.0" height="10.0" fill="#ffffff"/><rect x="219.0" y="71.0" width="6.0" height="10.0" fill="#ffffff"/><rect x="243.0" y="71.0" width="6.0" height="10.0" fill="#ffffff"/><rect x="261.0" y="71.0" width="6.0" height="10.0" fill="#ffffff"/><rect x="261.0" y="81.0" width="6.0" height="10.0" fill="#ffffff"/><rect x="261.0" y="91.0" width="6.0" height="10.0" fill="#ffffff"/><rect x="261.0" y="101.0" width="6.0" height="10.0" fill="#ffffff"/><rect x="255.0" y="101.0" width="6.0" height="10.0" fill="#ffffff"/><rect x="237.0" y="101.0" width="6.0" height="10.0" fill="#ffffff"/><rect x="231.0" y="101.0" width="6.0" height="10.0" fill="#ffffff"/><rect x="219.0" y="101.0" width="6.0" height="10.0" fill="#ffffff"/><rect x="207.0" y="101.0" width="6.0" height="10.0" fill="#ffffff"/><rect x="207.0" y="91.0" width="6.0" height="10.0" fill="#ffffff"/><rect x="207.0" y="81.0" width="6.0" height="10.0" fill="#ffffff"/><rect x="87.0" y="111.0" width="6.0" height="10.0" fill="#ffd966"/><rect x="99.0" y="111.0" width="6.0" height="10.0" fill="#ffd966"/><rect x="105.0" y="111.0" width="6.0" height="10.0" fill="#ffd966"/><rect x="117.0" y="111.0" width="6.0" height="10.0" fill="#ffd966"/><rect x="123.0" y="111.0" width="6.0" height="10.0" fill="#ffd966"/><rect x="129.0" y="111.0" width="6.0" height="10.0" fill="#ffd966"/><rect x="135.0" y="111.0" width="6.0" height="10.0" fill="#ffd966"/><rect x="141.0" y="121.0" width="6.0" height="10.0" fill="#ffd966"/><rect x="123.0" y="141.0" width="6.0" height="10.0" fill="#ffd966"/><rect x="117.0" y="141.0" width="6.0" height="10.0" fill="#ffd966"/><rect x="111.0" y="141.0" width="6.0" height="10.0" fill="#ffd966"/><rect x="105.0" y="141.0" width="6.0" height="10.0" fill="#ffd966"/><rect x="87.0" y="131.0" width="6.0" height="10.0" fill="#ffd966"/><rect x="87.0" y="121.0" width="6.0" height="10.0" fill="#ffd966"/><rect x="147.0" y="111.0" width="6.0" height="10.0" fill="#2f3fbf"/><rect x="153.0" y="111.0" width="6.0" height="10.0" fill="#2f3fbf"/><rect x="183.0" y="111.0" width="6.0" height="10.0" fill="#2f3fbf"/><rect x="195.0" y="111.0" width="6.0" height="10.0" fill="#2f3fbf"/><rect x="201.0" y="111.0" width="6.0" height="10.0" fill="#2f3fbf"/><rect x="201.0" y="121.0" width="6.0" height="10.0" fill="#2f3fbf"/><rect x="201.0" y="131.0" width="6.0" height="10.0" fill="#2f3fbf"/><rect x="201.0" y="141.0" width="6.0" height="10.0" fill="#2f3fbf"/><rect x="171.0" y="141.0" width="6.0" height="10.0" fill="#2f3fbf"/><rect x="147.0" y="121.0" width="6.0" height="10.0" fill="#2f3fbf"/><rect x="219.0" y="111.0" width="6.0" height="10.0" fill="#2f3fbf"/><rect x="225.0" y="111.0" width="6.0" height="10.0" fill="#2f3fbf"/><rect x="231.0" y="111.0" width="6.0" height="10.0" fill="#2f3fbf"/><rect x="237.0" y="111.0" width="6.0" height="10.0" fill="#2f3fbf"/><rect x="243.0" y="111.0" width="6.0" height="10.0" fill="#2f3fbf"/><rect x="255.0" y="111.0" width="6.0" height="10.0" fill="#2f3fbf"/><rect x="261.0" y="111.0" width="6.0" height="10.0" fill="#2f3fbf"/><rect x="261.0" y="141.0" width="6.0" height="10.0" fill="#2f3fbf"/><rect x="249.0" y="141.0" width="6.0" height="10.0" fill="#2f3fbf"/><rect x="225.0" y="141.0" width="6.0" height="10.0" fill="#2f3fbf"/><rect x="219.0" y="141.0" width="6.0" height="10.0" fill="#2f3fbf"/><rect x="213.0" y="141.0" width="6.0" height="10.0" fill="#2f3fbf"/><rect x="207.0" y="141.0" width="6.0" height="10.0" fill="#2f3fbf"/><rect x="207.0" y="131.0" width="6.0" height="10.0" fill="#2f3fbf"/><rect x="93.0" y="151.0" width="6.0" height="10.0" fill="#ffffff"/><rect x="105.0" y="151.0" width="6.0" height="10.0" fill="#ffffff"/><rect x="123.0" y="151.0" width="6.0" height="10.0" fill="#ffffff"/><rect x="129.0" y="151.0" width="6.0" height="10.0" fill="#ffffff"/><rect x="141.0" y="151.0" width="6.0" height="10.0" fill="#ffffff"/><rect x="141.0" y="181.0" width="6.0" height="10.0" fill="#ffffff"/><rect x="135.0" y="181.0" width="6.0" height="10.0" fill="#ffffff"/><rect x="123.0" y="181.0" width="6.0" height="10.0" fill="#ffffff"/><rect x="111.0" y="181.0" width="6.0" height="10.0" fill="#ffffff"/><rect x="93.0" y="181.0" width="6.0" height="10.0" fill="#ffffff"/><rect x="87.0" y="171.0" width="6.0" height="10.0" fill="#ffffff"/><rect x="147.0" y="151.0" width="6.0" height="10.0" fill="#ffd966"/><rect x="159.0" y="151.0" width="6.0" height="10.0" fill="#ffd966"/><rect x="177.0" y="151.0" width="6.0" height="10.0" fill="#ffd966"/><rect x="201.0" y="151.0" width="6.0" height="10.0" fill="#ffd966"/><rect x="201.0" y="161.0" width="6.0" height="10.0" fill="#ffd966"/><rect x="201.0" y="181.0" width="6.0" height="10.0" fill="#ffd966"/><rect x="195.0" y="181.0" width="6.0" height="10.0" fill="#ffd966"/><rect x="183.0" y="181.0" width="6.0" height="10.0" fill="#ffd966"/><rect x="165.0" y="181.0" width="6.0" height="10.0" fill="#ffd966"/><rect x="147.0" y="171.0" width="6.0" height="10.0" fill="#ffd966"/><rect x="207.0" y="151.0" width="6.0" height="10.0" fill="#ffd966"/><rect x="213.0" y="151.0" width="6.0" height="10.0" fill="#ffd966"/><rect x="225.0" y="151.0" width="6.0" height="10.0" fill="#ffd966"/><rect x="243.0" y="151.0" width="6.0" height="10.0" fill="#ffd966"/><rect x="255.0" y="151.0" width="6.0" height="10.0" fill="#ffd966"/><rect x="261.0" y="161.0" width="6.0" height="10.0" fill="#ffd966"/><rect x="261.0" y="171.0" width="6.0" height="10.0" fill="#ffd966"/><rect x="261.0" y="181.0" width="6.0" height="10.0" fill="#ffd966"/><rect x="255.0" y="181.0" width="6.0" height="10.0" fill="#ffd966"/><rect x="243.0" y="181.0" width="6.0" height="10.0" fill="#ffd966"/><rect x="231.0" y="181.0" width="6.0" height="10.0" fill="#ffd966"/><rect x="225.0" y="181.0" width="6.0" height="10.0" fill="#ffd966"/><rect x="219.0" y="181.0" width="6.0" height="10.0" fill="#ffd966"/><rect x="213.0" y="181.0" width="6.0" height="10.0" fill="#ffd966"/><rect x="207.0" y="181.0" width="6.0" height="10.0" fill="#ffd966"/><rect x="207.0" y="161.0" width="6.0" height="10.0" fill="#ffd966"/></g><g clip-path="url(#grid-clip-0505b85683fede30-4x4)" data-channel="ellipse" data-ellipse-anchor-x="207.0" data-ellipse-anchor-y="151.0" data-ellipse-rx="57.977264509460944" data-ellipse-ry="78.74523985613352" data-ellipse-rotation-deg="24.0"><ellipse cx="207.0" cy="151.0" rx="57.977264509460944" ry="78.74523985613352" transform="rotate(24.0 207.0 151.0)" fill="#000000" fill-opacity="0.4"/></g><g><g data-channel="cell" data-cell-index="0" data-cell-row="0" data-cell-col="0"><rect x="33.0" y="41.0" width="48.0" height="20.0" fill="#118a12"/><text x="57.0" y="51.0" fill="#ffffff" style="font-family: &quot;JetBrains Mono&quot;, &quot;Menlo&quot;, &quot;Consolas&quot;, &quot;DejaVu Sans Mono&quot;, &quot;Liberation Mono&quot;, &quot;Roboto Mono&quot;, &quot;Noto Sans Mono&quot;, monospace; font-size: 16.0px;" text-anchor="middle" dominant-baseline="central">CKFB</text></g><g data-channel="cell" data-cell-index="1" data-cell-row="0" data-cell-col="1" data-cell-quartile="1"><rect x="93.0" y="41.0" width="48.0" height="20.0" fill="#333122"/><text x="117.0" y="51.0" fill="#ffffff" style="font-family: &quot;JetBrains Mono&quot;, &quot;Menlo&quot;, &quot;Consolas&quot;, &quot;DejaVu Sans Mono&quot;, &quot;Liberation Mono&quot;, &quot;Roboto Mono&quot;, &quot;Noto Sans Mono&quot;, monospace; font-size: 16.0px;" text-anchor="middle" dominant-baseline="central">EIYT</text><polygon points="93.0,41.0 103.0,41.0 93.0,51.0" fill="#ffffff"/></g><g data-channel="cell" data-cell-index="2" data-cell-row="0" data-cell-col="2" data-cell-quartile="4"><rect x="153.0" y="41.0" width="48.0" height="20.0" fill="#11fb53"/><text x="177.0" y="51.0" fill="#000000" style="font-family: &quot;JetBrains Mono&quot;, &quot;Menlo&quot;, &quot;Consolas&quot;, &quot;DejaVu Sans Mono&quot;, &quot;Liberation Mono&quot;, &quot;Roboto Mono&quot;, &quot;Noto Sans Mono&quot;, monospace; font-size: 16.0px;" text-anchor="middle" dominant-baseline="central">KP5R</text><polygon points="153.0,61.0 153.0,51.0 163.0,61.0" fill="#000000"/></g><g data-channel="cell" data-cell-index="3" data-cell-row="0" data-cell-col="3" data-cell-quartile="3"><rect x="213.0" y="41.0" width="48.0" height="20.0" fill="#cc6018"/><text x="237.0" y="51.0" fill="#000000" style="font-family: &quot;JetBrains Mono&quot;, &quot;Menlo&quot;, &quot;Consolas&quot;, &quot;DejaVu Sans Mono&quot;, &quot;Liberation Mono&quot;, &quot;Roboto Mono&quot;, &quot;Noto Sans Mono&quot;, monospace; font-size: 16.0px;" text-anchor="middle" dominant-baseline="central">DBQM</text><polygon points="261.0,61.0 261.0,51.0 251.0,61.0" fill="#000000"/></g><g data-channel="cell" data-cell-index="4" data-cell-row="1" data-cell-col="0"><rect x="33.0" y="81.0" width="48.0" height="20.0" fill="#ffc0a4"/><text x="57.0" y="91.0" fill="#000000" style="font-family: &quot;JetBrains Mono&quot;, &quot;Menlo&quot;, &quot;Consolas&quot;, &quot;DejaVu Sans Mono&quot;, &quot;Liberation Mono&quot;, &quot;Roboto Mono&quot;, &quot;Noto Sans Mono&quot;, monospace; font-size: 16.0px;" text-anchor="middle" dominant-baseline="central">UTAP</text></g><g data-channel="cell" data-cell-index="5" data-cell-row="1" data-cell-col="1"><rect x="93.0" y="81.0" width="48.0" height="20.0" fill="#778618"/><text x="117.0" y="91.0" fill="#ffffff" style="font-family: &quot;JetBrains Mono&quot;, &quot;Menlo&quot;, &quot;Consolas&quot;, &quot;DejaVu Sans Mono&quot;, &quot;Liberation Mono&quot;, &quot;Roboto Mono&quot;, &quot;Noto Sans Mono&quot;, monospace; font-size: 16.0px;" text-anchor="middle" dominant-baseline="central">DCDH</text></g><g data-channel="cell" data-cell-index="6" data-cell-row="1" data-cell-col="2"><rect x="153.0" y="81.0" width="48.0" height="20.0" fill="#11a72e"/><text x="177.0" y="91.0" fill="#000000" style="font-family: &quot;JetBrains Mono&quot;, &quot;Menlo&quot;, &quot;Consolas&quot;, &quot;DejaVu Sans Mono&quot;, &quot;Liberation Mono&quot;, &quot;Roboto Mono&quot;, &quot;Noto Sans Mono&quot;, monospace; font-size: 16.0px;" text-anchor="middle" dominant-baseline="central">F2TR</text></g><g data-channel="cell" data-cell-index="7" data-cell-row="1" data-cell-col="3"><rect x="213.0" y="81.0" width="48.0" height="20.0" fill="#dddee2"/><text x="237.0" y="91.0" fill="#000000" style="font-family: &quot;JetBrains Mono&quot;, &quot;Menlo&quot;, &quot;Consolas&quot;, &quot;DejaVu Sans Mono&quot;, &quot;Liberation Mono&quot;, &quot;Roboto Mono&quot;, &quot;Noto Sans Mono&quot;, monospace; font-size: 16.0px;" text-anchor="middle" dominant-baseline="central">4LPN</text></g><g data-channel="cell" data-cell-index="8" data-cell-row="2" data-cell-col="0" data-cell-blank="true" data-cell-blank-map="true"><rect x="33.0" y="121.0" width="48.0" height="20.0" rx="2.0" ry="2.0" fill="#ffffff" stroke="#000000" stroke-width="1"/><circle cx="75.0" cy="128.5" r="1.75" fill="#d62828" data-blank-map-max="true"/><circle cx="39.0" cy="123.5" r="1.75" fill="#1d4ed8" data-blank-map-min="true"/></g><g data-channel="cell" data-cell-index="9" data-cell-row="2" data-cell-col="1"><rect x="93.0" y="121.0" width="48.0" height="20.0" fill="#ccad89"/><text x="117.0" y="131.0" fill="#000000" style="font-family: &quot;JetBrains Mono&quot;, &quot;Menlo&quot;, &quot;Consolas&quot;, &quot;DejaVu Sans Mono&quot;, &quot;Liberation Mono&quot;, &quot;Roboto Mono&quot;, &quot;Noto Sans Mono&quot;, monospace; font-size: 16.0px;" text-anchor="middle" dominant-baseline="central">RGW4</text></g><g data-channel="cell" data-cell-index="10" data-cell-row="2" data-cell-col="2" data-cell-quartile="2"><rect x="153.0" y="121.0" width="48.0" height="20.0" fill="#006148"/><text x="177.0" y="131.0" fill="#ffffff" style="font-family: &quot;JetBrains Mono&quot;, &quot;Menlo&quot;, &quot;Consolas&quot;, &quot;DejaVu Sans Mono&quot;, &quot;Liberation Mono&quot;, &quot;Roboto Mono&quot;, &quot;Noto Sans Mono&quot;, monospace; font-size: 16.0px;" text-anchor="middle" dominant-baseline="central">JBQQ</text><polygon points="201.0,121.0 191.0,121.0 201.0,131.0" fill="#ffffff"/></g><g data-channel="cell" data-cell-index="11" data-cell-row="2" data-cell-col="3"><rect x="213.0" y="121.0" width="48.0" height="20.0" fill="#88299c"/><text x="237.0" y="131.0" fill="#ffffff" style="font-family: &quot;JetBrains Mono&quot;, &quot;Menlo&quot;, &quot;Consolas&quot;, &quot;DejaVu Sans Mono&quot;, &quot;Liberation Mono&quot;, &quot;Roboto Mono&quot;, &quot;Noto Sans Mono&quot;, monospace; font-size: 16.0px;" text-anchor="middle" dominant-baseline="central">TQUY</text></g><g data-channel="cell" data-cell-index="12" data-cell-row="3" data-cell-col="0" data-cell-blank="true"><rect x="33.0" y="161.0" width="48.0" height="20.0" rx="2.0" ry="2.0" fill="none" stroke="#000000" stroke-width="1"/></g><g data-channel="cell" data-cell-index="13" data-cell-row="3" data-cell-col="1"><rect x="93.0" y="161.0" width="48.0" height="20.0" fill="#bbf8cb"/><text x="117.0" y="171.0" fill="#000000" style="font-family: &quot;JetBrains Mono&quot;, &quot;Menlo&quot;, &quot;Consolas&quot;, &quot;DejaVu Sans Mono&quot;, &quot;Liberation Mono&quot;, &quot;Roboto Mono&quot;, &quot;Noto Sans Mono&quot;, monospace; font-size: 16.0px;" text-anchor="middle" dominant-baseline="central">ZP4L</text></g><g data-channel="cell" data-cell-index="14" data-cell-row="3" data-cell-col="2"><rect x="153.0" y="161.0" width="48.0" height="20.0" fill="#bb9f1a"/><text x="177.0" y="171.0" fill="#000000" style="font-family: &quot;JetBrains Mono&quot;, &quot;Menlo&quot;, &quot;Consolas&quot;, &quot;DejaVu Sans Mono&quot;, &quot;Liberation Mono&quot;, &quot;Roboto Mono&quot;, &quot;Noto Sans Mono&quot;, monospace; font-size: 16.0px;" text-anchor="middle" dominant-baseline="central">DKP3</text></g><g data-channel="cell" data-cell-index="15" data-cell-row="3" data-cell-col="3"><rect x="213.0" y="161.0" width="48.0" height="20.0" fill="#cc9891"/><text x="237.0" y="171.0" fill="#000000" style="font-family: &quot;JetBrains Mono&quot;, &quot;Menlo&quot;, &quot;Consolas&quot;, &quot;DejaVu Sans Mono&quot;, &quot;Liberation Mono&quot;, &quot;Roboto Mono&quot;, &quot;Noto Sans Mono&quot;, monospace; font-size: 16.0px;" text-anchor="middle" dominant-baseline="central">SGM</text></g></g></g><g data-channel="color-bar"><g data-color-bar-rank="0" data-color-bar-band="W"><rect x="1" y="1" width="20.0" height="76.70649549780613" fill="#ffffff"/><text x="11.0" y="39.353247748903065" fill="#000000" style="font-family: &quot;JetBrains Mono&quot;, &quot;Menlo&quot;, &quot;Consolas&quot;, &quot;DejaVu Sans Mono&quot;, &quot;Liberation Mono&quot;, &quot;Roboto Mono&quot;, &quot;Noto Sans Mono&quot;, monospace; font-size: 17.0px;" text-anchor="middle" dominant-baseline="central" data-color-bar-letter="true">w</text></g><g data-color-bar-rank="1" data-color-bar-band="K"><rect x="1" y="77.70649549780613" width="20.0" height="54.43019771056406" fill="#000000"/><text x="11.0" y="104.92159435308815" fill="#ffffff" style="font-family: &quot;JetBrains Mono&quot;, &quot;Menlo&quot;, &quot;Consolas&quot;, &quot;DejaVu Sans Mono&quot;, &quot;Liberation Mono&quot;, &quot;Roboto Mono&quot;, &quot;Noto Sans Mono&quot;, monospace; font-size: 17.0px;" text-anchor="middle" dominant-baseline="central" data-color-bar-letter="true">k</text></g><g data-color-bar-rank="2" data-color-bar-band="G"><rect x="1" y="132.1366932083702" width="20.0" height="42.55032669184037" fill="#ffd966"/><text x="11.0" y="153.41185655429038" fill="#000000" style="font-family: &quot;JetBrains Mono&quot;, &quot;Menlo&quot;, &quot;Consolas&quot;, &quot;DejaVu Sans Mono&quot;, &quot;Liberation Mono&quot;, &quot;Roboto Mono&quot;, &quot;Noto Sans Mono&quot;, monospace; font-size: 17.0px;" text-anchor="middle" dominant-baseline="central" data-color-bar-letter="true">g</text></g><g data-color-bar-rank="3" data-color-bar-band="B"><rect x="1" y="174.68701990021054" width="20.0" height="21.312980099789456" fill="#2f3fbf"/><text x="11.0" y="185.34350995010527" fill="#ffffff" style="font-family: &quot;JetBrains Mono&quot;, &quot;Menlo&quot;, &quot;Consolas&quot;, &quot;DejaVu Sans Mono&quot;, &quot;Liberation Mono&quot;, &quot;Roboto Mono&quot;, &quot;Noto Sans Mono&quot;, monospace; font-size: 14.919086069852618px;" text-anchor="middle" dominant-baseline="central" data-color-bar-letter="true">b</text></g></g><g data-channel="label-top"><text x="27.0" y="16.0" fill="#666666" style="font-family: &quot;JetBrains Mono&quot;, &quot;Menlo&quot;, &quot;Consolas&quot;, &quot;DejaVu Sans Mono&quot;, &quot;Liberation Mono&quot;, &quot;Roboto Mono&quot;, &quot;Noto Sans Mono&quot;, monospace; font-size: 12.0px;" dominant-baseline="central">XLM: G...</text></g><line x1="0" y1="0.5" x2="273.0" y2="0.5" stroke="#808080" stroke-width="1" shape-rendering="crispEdges"/><line x1="272.5" y1="0" x2="272.5" y2="197.0" stroke="#808080" stroke-width="1" shape-rendering="crispEdges"/><line x1="0" y1="196.5" x2="273.0" y2="196.5" stroke="#808080" stroke-width="1" shape-rendering="crispEdges"/><line x1="0.5" y1="0" x2="0.5" y2="197.0" stroke="#808080" stroke-width="1" shape-rendering="crispEdges"/><line x1="21.5" y1="0" x2="21.5" y2="197.0" stroke="#808080" stroke-width="1" shape-rendering="crispEdges"/></svg>