<svg width="273" height="272" viewBox="0 0 273 272" xmlns="http://www.w3.org/2000/svg" data-entviz-version="v10" data-entviz-lib="0.10.0" data-input-bytes="160" data-cols="4" data-rows="6" data-truncated="true"><defs><clipPath id="grid-clip-8b678698b08217c4-4x6"><rect x="27" y="26" width="240" height="240"/></clipPath></defs><rect x="0" y="0" width="273" height="272" fill="#ffffff"/><g data-channel="grid"><rect x="27" y="26" width="240" height="240" fill="#ff3f2f"/><g><rect x="33" y="26" width="6" height="10" fill="#2f3fbf"/><rect x="39" y="26" width="6" height="10" fill="#2f3fbf"/><rect x="69" y="26" width="6" height="10" fill="#2f3fbf"/><rect x="75" y="26" width="6" height="10" fill="#2f3fbf"/><rect x="81" y="26" width="6" height="10" fill="#2f3fbf"/><rect x="81" y="36" width="6" height="10" fill="#2f3fbf"/><rect x="75" y="56" width="6" height="10" fill="#2f3fbf"/><rect x="69" y="56" width="6" height="10" fill="#2f3fbf"/><rect x="57" y="56" width="6" height="10" fill="#2f3fbf"/><rect x="51" y="56" width="6" height="10" fill="#2f3fbf"/><rect x="39" y="56" width="6" height="10" fill="#2f3fbf"/><rect x="27" y="36" width="6" height="10" fill="#2f3fbf"/><rect x="93" y="26" width="6" height="10" fill="#2f3fbf"/><rect x="129" y="26" width="6" height="10" fill="#2f3fbf"/><rect x="141" y="56" width="6" height="10" fill="#2f3fbf"/><rect x="135" y="56" width="6" height="10" fill="#2f3fbf"/><rect x="123" y="56" width="6" height="10" fill="#2f3fbf"/><rect x="99" y="56" width="6" height="10" fill="#2f3fbf"/><rect x="93" y="56" width="6" height="10" fill="#2f3fbf"/><rect x="87" y="36" width="6" height="10" fill="#2f3fbf"/><rect x="153" y="26" width="6" height="10" fill="#ffffff"/><rect x="159" y="26" width="6" height="10" fill="#ffffff"/><rect x="165" y="26" width="6" height="10" fill="#ffffff"/><rect x="201" y="36" width="6" height="10" fill="#ffffff"/><rect x="189" y="56" width="6" height="10" fill="#ffffff"/><rect x="183" y="56" width="6" height="10" fill="#ffffff"/><rect x="177" y="56" width="6" height="10" fill="#ffffff"/><rect x="171" y="56" width="6" height="10" fill="#ffffff"/><rect x="165" y="56" width="6" height="10" fill="#ffffff"/><rect x="153" y="56" width="6" height="10" fill="#ffffff"/><rect x="213" y="26" width="6" height="10" fill="#2f3fbf"/><rect x="219" y="26" width="6" height="10" fill="#2f3fbf"/><rect x="231" y="26" width="6" height="10" fill="#2f3fbf"/><rect x="237" y="26" width="6" height="10" fill="#2f3fbf"/><rect x="255" y="26" width="6" height="10" fill="#2f3fbf"/><rect x="261" y="26" width="6" height="10" fill="#2f3fbf"/><rect x="261" y="36" width="6" height="10" fill="#2f3fbf"/><rect x="261" y="46" width="6" height="10" fill="#2f3fbf"/><rect x="261" y="56" width="6" height="10" fill="#2f3fbf"/><rect x="225" y="56" width="6" height="10" fill="#2f3fbf"/><rect x="219" y="56" width="6" height="10" fill="#2f3fbf"/><rect x="213" y="56" width="6" height="10" fill="#2f3fbf"/><rect x="207" y="56" width="6" height="10" fill="#2f3fbf"/><rect x="27" y="66" width="6" height="10" fill="#2f3fbf"/><rect x="33" y="66" width="6" height="10" fill="#2f3fbf"/><rect x="45" y="66" width="6" height="10" fill="#2f3fbf"/><rect x="75" y="66" width="6" height="10" fill="#2f3fbf"/><rect x="81" y="66" width="6" height="10" fill="#2f3fbf"/><rect x="81" y="76" width="6" height="10" fill="#2f3fbf"/><rect x="81" y="96" width="6" height="10" fill="#2f3fbf"/><rect x="39" y="96" width="6" height="10" fill="#2f3fbf"/><rect x="27" y="96" width="6" height="10" fill="#2f3fbf"/><rect x="27" y="76" width="6" height="10" fill="#2f3fbf"/><rect x="87" y="66" width="6" height="10" fill="#ffffff"/><rect x="99" y="66" width="6" height="10" fill="#ffffff"/><rect x="135" y="66" width="6" height="10" fill="#ffffff"/><rect x="141" y="76" width="6" height="10" fill="#ffffff"/><rect x="123" y="96" width="6" height="10" fill="#ffffff"/><rect x="117" y="96" width="6" height="10" fill="#ffffff"/><rect x="93" y="96" width="6" height="10" fill="#ffffff"/><rect x="87" y="86" width="6" height="10" fill="#ffffff"/><rect x="159" y="66" width="6" height="10" fill="#000000"/><rect x="183" y="66" width="6" height="10" fill="#000000"/><rect x="195" y="66" width="6" height="10" fill="#000000"/><rect x="201" y="66" width="6" height="10" fill="#000000"/><rect x="201" y="96" width="6" height="10" fill="#000000"/><rect x="159" y="96" width="6" height="10" fill="#000000"/><rect x="147" y="86" width="6" height="10" fill="#000000"/><rect x="219" y="66" width="6" height="10" fill="#ffffff"/><rect x="231" y="66" width="6" height="10" fill="#ffffff"/><rect x="237" y="66" width="6" height="10" fill="#ffffff"/><rect x="243" y="66" width="6" height="10" fill="#ffffff"/><rect x="255" y="66" width="6" height="10" fill="#ffffff"/><rect x="261" y="66" width="6" height="10" fill="#ffffff"/><rect x="261" y="76" width="6" height="10" fill="#ffffff"/><rect x="261" y="96" width="6" height="10" fill="#ffffff"/><rect x="255" y="96" width="6" height="10" fill="#ffffff"/><rect x="243" y="96" width="6" height="10" fill="#ffffff"/><rect x="231" y="96" width="6" height="10" fill="#ffffff"/><rect x="225" y="96" width="6" height="10" fill="#ffffff"/><rect x="207" y="96" width="6" height="10" fill="#ffffff"/><rect x="207" y="86" width="6" height="10" fill="#ffffff"/><rect x="207" y="76" width="6" height="10" fill="#ffffff"/><rect x="27" y="106" width="6" height="10" fill="#e7be00"/><rect x="51" y="106" width="6" height="10" fill="#e7be00"/><rect x="57" y="106" width="6" height="10" fill="#e7be00"/><rect x="69" y="106" width="6" height="10" fill="#e7be00"/><rect x="75" y="106" width="6" height="10" fill="#e7be00"/><rect x="81" y="116" width="6" height="10" fill="#e7be00"/><rect x="81" y="126" width="6" height="10" fill="#e7be00"/><rect x="81" y="136" width="6" height="10" fill="#e7be00"/><rect x="69" y="136" width="6" height="10" fill="#e7be00"/><rect x="57" y="136" width="6" height="10" fill="#e7be00"/><rect x="45" y="136" width="6" height="10" fill="#e7be00"/><rect x="39" y="136" width="6" height="10" fill="#e7be00"/><rect x="27" y="126" width="6" height="10" fill="#e7be00"/><rect x="87" y="106" width="6" height="10" fill="#e7be00"/><rect x="93" y="106" width="6" height="10" fill="#e7be00"/><rect x="99" y="106" width="6" height="10" fill="#e7be00"/><rect x="105" y="106" width="6" height="10" fill="#e7be00"/><rect x="117" y="106" width="6" height="10" fill="#e7be00"/><rect x="123" y="106" width="6" height="10" fill="#e7be00"/><rect x="129" y="106" width="6" height="10" fill="#e7be00"/><rect x="135" y="106" width="6" height="10" fill="#e7be00"/><rect x="141" y="116" width="6" height="10" fill="#e7be00"/><rect x="141" y="126" width="6" height="10" fill="#e7be00"/><rect x="135" y="136" width="6" height="10" fill="#e7be00"/><rect x="129" y="136" width="6" height="10" fill="#e7be00"/><rect x="123" y="136" width="6" height="10" fill="#e7be00"/><rect x="117" y="136" width="6" height="10" fill="#e7be00"/><rect x="105" y="136" width="6" height="10" fill="#e7be00"/><rect x="87" y="136" width="6" height="10" fill="#e7be00"/><rect x="87" y="126" width="6" height="10" fill="#e7be00"/><rect x="87" y="116" width="6" height="10" fill="#e7be00"/><rect x="159" y="106" width="6" height="10" fill="#e7be00"/><rect x="165" y="106" width="6" height="10" fill="#e7be00"/><rect x="171" y="106" width="6" height="10" fill="#e7be00"/><rect x="177" y="106" width="6" height="10" fill="#e7be00"/><rect x="201" y="106" width="6" height="10" fill="#e7be00"/><rect x="195" y="136" width="6" height="10" fill="#e7be00"/><rect x="183" y="136" width="6" height="10" fill="#e7be00"/><rect x="177" y="136" width="6" height="10" fill="#e7be00"/><rect x="171" y="136" width="6" height="10" fill="#e7be00"/><rect x="147" y="136" width="6" height="10" fill="#e7be00"/><rect x="207" y="106" width="6" height="10" fill="#e7be00"/><rect x="225" y="106" width="6" height="10" fill="#e7be00"/><rect x="237" y="106" width="6" height="10" fill="#e7be00"/><rect x="255" y="106" width="6" height="10" fill="#e7be00"/><rect x="261" y="106" width="6" height="10" fill="#e7be00"/><rect x="261" y="116" width="6" height="10" fill="#e7be00"/><rect x="261" y="136" width="6" height="10" fill="#e7be00"/><rect x="249" y="136" width="6" height="10" fill="#e7be00"/><rect x="243" y="136" width="6" height="10" fill="#e7be00"/><rect x="225" y="136" width="6" height="10" fill="#e7be00"/><rect x="219" y="136" width="6" height="10" fill="#e7be00"/><rect x="213" y="136" width="6" height="10" fill="#e7be00"/><rect x="207" y="126" width="6" height="10" fill="#e7be00"/><rect x="27" y="146" width="6" height="10" fill="#e7be00"/><rect x="57" y="146" width="6" height="10" fill="#e7be00"/><rect x="63" y="146" width="6" height="10" fill="#e7be00"/><rect x="75" y="146" width="6" height="10" fill="#e7be00"/><rect x="81" y="166" width="6" height="10" fill="#e7be00"/><rect x="81" y="176" width="6" height="10" fill="#e7be00"/><rect x="57" y="176" width="6" height="10" fill="#e7be00"/><rect x="45" y="176" width="6" height="10" fill="#e7be00"/><rect x="39" y="176" width="6" height="10" fill="#e7be00"/><rect x="33" y="176" width="6" height="10" fill="#e7be00"/><rect x="27" y="156" width="6" height="10" fill="#e7be00"/><rect x="87" y="146" width="6" height="10" fill="#2f3fbf"/><rect x="123" y="146" width="6" height="10" fill="#2f3fbf"/><rect x="129" y="146" width="6" height="10" fill="#2f3fbf"/><rect x="141" y="156" width="6" height="10" fill="#2f3fbf"/><rect x="135" y="176" width="6" height="10" fill="#2f3fbf"/><rect x="99" y="176" width="6" height="10" fill="#2f3fbf"/><rect x="93" y="176" width="6" height="10" fill="#2f3fbf"/><rect x="87" y="166" width="6" height="10" fill="#2f3fbf"/><rect x="87" y="156" width="6" height="10" fill="#2f3fbf"/><rect x="147" y="146" width="6" height="10" fill="#2f3fbf"/><rect x="153" y="146" width="6" height="10" fill="#2f3fbf"/><rect x="177" y="146" width="6" height="10" fill="#2f3fbf"/><rect x="189" y="146" width="6" height="10" fill="#2f3fbf"/><rect x="201" y="166" width="6" height="10" fill="#2f3fbf"/><rect x="201" y="176" width="6" height="10" fill="#2f3fbf"/><rect x="189" y="176" width="6" height="10" fill="#2f3fbf"/><rect x="183" y="176" width="6" height="10" fill="#2f3fbf"/><rect x="165" y="176" width="6" height="10" fill="#2f3fbf"/><rect x="147" y="176" width="6" height="10" fill="#2f3fbf"/><rect x="147" y="156" width="6" height="10" fill="#2f3fbf"/><rect x="207" y="146" width="6" height="10" fill="#2f3fbf"/><rect x="219" y="146" width="6" height="10" fill="#2f3fbf"/><rect x="237" y="146" width="6" height="10" fill="#2f3fbf"/><rect x="261" y="146" width="6" height="10" fill="#2f3fbf"/><rect x="261" y="166" width="6" height="10" fill="#2f3fbf"/><rect x="261" y="176" width="6" height="10" fill="#2f3fbf"/><rect x="255" y="176" width="6" height="10" fill="#2f3fbf"/><rect x="231" y="176" width="6" height="10" fill="#2f3fbf"/><rect x="225" y="176" width="6" height="10" fill="#2f3fbf"/><rect x="219" y="176" width="6" height="10" fill="#2f3fbf"/><rect x="207" y="176" width="6" height="10" fill="#2f3fbf"/><rect x="207" y="166" width="6" height="10" fill="#2f3fbf"/><rect x="93" y="186" width="6" height="10" fill="#ffffff"/><rect x="111" y="186" width="6" height="10" fill="#ffffff"/><rect x="117" y="186" width="6" height="10" fill="#ffffff"/><rect x="135" y="186" width="6" height="10" fill="#ffffff"/><rect x="141" y="186" width="6" height="10" fill="#ffffff"/><rect x="141" y="196" width="6" height="10" fill="#ffffff"/><rect x="141" y="206" width="6" height="10" fill="#ffffff"/><rect x="123" y="216" width="6" height="10" fill="#ffffff"/><rect x="111" y="216" width="6" height="10" fill="#ffffff"/><rect x="93" y="216" width="6" height="10" fill="#ffffff"/><rect x="87" y="206" width="6" height="10" fill="#ffffff"/><rect x="87" y="196" width="6" height="10" fill="#ffffff"/><rect x="207" y="186" width="6" height="10" fill="#2f3fbf"/><rect x="213" y="186" width="6" height="10" fill="#2f3fbf"/><rect x="219" y="186" width="6" height="10" fill="#2f3fbf"/><rect x="225" y="186" width="6" height="10" fill="#2f3fbf"/><rect x="243" y="186" width="6" height="10" fill="#2f3fbf"/><rect x="261" y="206" width="6" height="10" fill="#2f3fbf"/><rect x="261" y="216" width="6" height="10" fill="#2f3fbf"/><rect x="255" y="216" width="6" height="10" fill="#2f3fbf"/><rect x="225" y="216" width="6" height="10" fill="#2f3fbf"/><rect x="207" y="206" width="6" height="10" fill="#2f3fbf"/><rect x="207" y="196" width="6" height="10" fill="#2f3fbf"/><rect x="27" y="226" width="6" height="10" fill="#e7be00"/><rect x="33" y="226" width="6" height="10" fill="#e7be00"/><rect x="39" y="226" width="6" height="10" fill="#e7be00"/><rect x="51" y="226" width="6" height="10" fill="#e7be00"/><rect x="57" y="226" width="6" height="10" fill="#e7be00"/><rect x="69" y="226" width="6" height="10" fill="#e7be00"/><rect x="63" y="256" width="6" height="10" fill="#e7be00"/><rect x="57" y="256" width="6" height="10" fill="#e7be00"/><rect x="51" y="256" width="6" height="10" fill="#e7be00"/><rect x="45" y="256" width="6" height="10" fill="#e7be00"/><rect x="27" y="246" width="6" height="10" fill="#e7be00"/><rect x="153" y="226" width="6" height="10" fill="#2f3fbf"/><rect x="165" y="226" width="6" height="10" fill="#2f3fbf"/><rect x="171" y="226" width="6" height="10" fill="#2f3fbf"/><rect x="183" y="226" width="6" height="10" fill="#2f3fbf"/><rect x="189" y="226" width="6" height="10" fill="#2f3fbf"/><rect x="195" y="226" width="6" height="10" fill="#2f3fbf"/><rect x="201" y="256" width="6" height="10" fill="#2f3fbf"/><rect x="177" y="256" width="6" height="10" fill="#2f3fbf"/><rect x="171" y="256" width="6" height="10" fill="#2f3fbf"/><rect x="159" y="256" width="6" height="10" fill="#2f3fbf"/><rect x="147" y="246" width="6" height="10" fill="#2f3fbf"/></g><g clip-path="url(#grid-clip-8b678698b08217c4-4x6)" data-channel="ellipse" data-ellipse-anchor-x="207" data-ellipse-anchor-y="66" data-ellipse-rx="110.858" data-ellipse-ry="65.654" data-ellipse-rotation-deg="108"><ellipse cx="207" cy="66" rx="110.858" ry="65.654" transform="rotate(108 207 66)" fill="#000000" stroke="#000000" fill-opacity="0.25" stroke-opacity="0.35" stroke-width="2"/></g><g><g data-channel="cell" data-cell-index="0" data-cell-row="0" data-cell-col="0"><rect x="33" y="36" width="48" height="20" fill="#81d404"/><text x="57" y="46" fill="#000000" style="font-family: &quot;JetBrains Mono&quot;, &quot;Menlo&quot;, &quot;Consolas&quot;, &quot;DejaVu Sans Mono&quot;, &quot;Liberation Mono&quot;, &quot;Roboto Mono&quot;, &quot;Noto Sans Mono&quot;, monospace; font-size: 16px;" text-anchor="middle" dominant-baseline="central">BNSB</text></g><g data-channel="cell" data-cell-index="1" data-cell-row="0" data-cell-col="1" data-cell-quartile="2"><rect x="93" y="36" width="48" height="20" fill="#1d4303"/><text x="117" y="46" fill="#ffffff" style="font-family: &quot;JetBrains Mono&quot;, &quot;Menlo&quot;, &quot;Consolas&quot;, &quot;DejaVu Sans Mono&quot;, &quot;Liberation Mono&quot;, &quot;Roboto Mono&quot;, &quot;Noto Sans Mono&quot;, monospace; font-size: 16px;" text-anchor="middle" dominant-baseline="central">A0Md</text><polygon points="141,36 131,36 141,46" fill="#ffffff"/></g><g data-channel="cell" data-cell-index="2" data-cell-row="0" data-cell-col="2" data-cell-quartile="3"><rect x="153" y="36" width="48" height="20" fill="#c2cff4"/><text x="177" y="46" fill="#000000" style="font-family: &quot;JetBrains Mono&quot;, &quot;Menlo&quot;, &quot;Consolas&quot;, &quot;DejaVu Sans Mono&quot;, &quot;Liberation Mono&quot;, &quot;Roboto Mono&quot;, &quot;Noto Sans Mono&quot;, monospace; font-size: 16px;" text-anchor="middle" dominant-baseline="central">9M/C</text><polygon points="201,56 201,46 191,56" fill="#000000"/></g><g data-channel="cell" data-cell-index="3" data-cell-row="0" data-cell-col="3"><rect x="213" y="36" width="48" height="20" fill="#099dc2"/><text x="237" y="46" fill="#000000" style="font-family: &quot;JetBrains Mono&quot;, &quot;Menlo&quot;, &quot;Consolas&quot;, &quot;DejaVu Sans Mono&quot;, &quot;Liberation Mono&quot;, &quot;Roboto Mono&quot;, &quot;Noto Sans Mono&quot;, monospace; font-size: 16px;" text-anchor="middle" dominant-baseline="central">wp0J</text></g><g data-channel="cell" data-cell-index="4" data-cell-row="1" data-cell-col="0"><rect x="33" y="76" width="48" height="20" fill="#6f64df"/><text x="57" y="86" fill="#ffffff" style="font-family: &quot;JetBrains Mono&quot;, &quot;Menlo&quot;, &quot;Consolas&quot;, &quot;DejaVu Sans Mono&quot;, &quot;Liberation Mono&quot;, &quot;Roboto Mono&quot;, &quot;Noto Sans Mono&quot;, monospace; font-size: 16px;" text-anchor="middle" dominant-baseline="central">32Rv</text></g><g data-channel="cell" data-cell-index="5" data-cell-row="1" data-cell-col="1"><rect x="93" y="76" width="48" height="20" fill="#a2f693"/><text x="117" y="86" fill="#000000" style="font-family: &quot;JetBrains Mono&quot;, &quot;Menlo&quot;, &quot;Consolas&quot;, &quot;DejaVu Sans Mono&quot;, &quot;Liberation Mono&quot;, &quot;Roboto Mono&quot;, &quot;Noto Sans Mono&quot;, monospace; font-size: 16px;" text-anchor="middle" dominant-baseline="central">k/ai</text></g><g data-channel="cell" data-cell-index="6" data-cell-row="1" data-cell-col="2"><rect x="153" y="76" width="48" height="20" fill="#3b5c12"/><text x="177" y="86" fill="#ffffff" style="font-family: &quot;JetBrains Mono&quot;, &quot;Menlo&quot;, &quot;Consolas&quot;, &quot;DejaVu Sans Mono&quot;, &quot;Liberation Mono&quot;, &quot;Roboto Mono&quot;, &quot;Noto Sans Mono&quot;, monospace; font-size: 16px;" text-anchor="middle" dominant-baseline="central">Elw7</text></g><g data-channel="cell" data-cell-index="7" data-cell-row="1" data-cell-col="3" data-cell-quartile="1"><rect x="213" y="76" width="48" height="20" fill="#a5deee"/><text x="237" y="86" fill="#000000" style="font-family: &quot;JetBrains Mono&quot;, &quot;Menlo&quot;, &quot;Consolas&quot;, &quot;DejaVu Sans Mono&quot;, &quot;Liberation Mono&quot;, &quot;Roboto Mono&quot;, &quot;Noto Sans Mono&quot;, monospace; font-size: 16px;" text-anchor="middle" dominant-baseline="central">7t6l</text><polygon points="213,76 223,76 213,86" fill="#000000"/></g><g data-channel="cell" data-cell-index="8" data-cell-row="2" data-cell-col="0" data-cell-fingerprint="true"><rect x="33" y="116" width="48" height="20" fill="#ff3f2f"/><rect x="33.5" y="116.5" width="47" height="19" fill="none" stroke="#ffffff" stroke-width="1"/><text x="57" y="126" fill="#000000" style="font-family: &quot;JetBrains Mono&quot;, &quot;Menlo&quot;, &quot;Consolas&quot;, &quot;DejaVu Sans Mono&quot;, &quot;Liberation Mono&quot;, &quot;Roboto Mono&quot;, &quot;Noto Sans Mono&quot;, monospace; font-size: 13.333px;" text-anchor="middle" dominant-baseline="central">e944p</text></g><g data-channel="cell" data-cell-index="9" data-cell-row="2" data-cell-col="1" data-cell-fingerprint="true"><rect x="93" y="116" width="48" height="20" fill="#ff3f2f"/><rect x="93.5" y="116.5" width="47" height="19" fill="none" stroke="#ffffff" stroke-width="1"/><text x="117" y="126" fill="#000000" style="font-family: &quot;JetBrains Mono&quot;, &quot;Menlo&quot;, &quot;Consolas&quot;, &quot;DejaVu Sans Mono&quot;, &quot;Liberation Mono&quot;, &quot;Roboto Mono&quot;, &quot;Noto Sans Mono&quot;, monospace; font-size: 13.333px;" text-anchor="middle" dominant-baseline="central">029m2</text></g><g data-channel="cell" data-cell-index="10" data-cell-row="2" data-cell-col="2" data-cell-fingerprint="true"><rect x="153" y="116" width="48" height="20" fill="#ff3f2f"/><rect x="153.5" y="116.5" width="47" height="19" fill="none" stroke="#ffffff" stroke-width="1"/><text x="177" y="126" fill="#000000" style="font-family: &quot;JetBrains Mono&quot;, &quot;Menlo&quot;, &quot;Consolas&quot;, &quot;DejaVu Sans Mono&quot;, &quot;Liberation Mono&quot;, &quot;Roboto Mono&quot;, &quot;Noto Sans Mono&quot;, monospace; font-size: 13.333px;" text-anchor="middle" dominant-baseline="central">b197f</text></g><g data-channel="cell" data-cell-index="11" data-cell-row="2" data-cell-col="3" data-cell-fingerprint="true"><rect x="213" y="116" width="48" height="20" fill="#ff3f2f"/><rect x="213.5" y="116.5" width="47" height="19" fill="none" stroke="#ffffff" stroke-width="1"/><text x="237" y="126" fill="#000000" style="font-family: &quot;JetBrains Mono&quot;, &quot;Menlo&quot;, &quot;Consolas&quot;, &quot;DejaVu Sans Mono&quot;, &quot;Liberation Mono&quot;, &quot;Roboto Mono&quot;, &quot;Noto Sans Mono&quot;, monospace; font-size: 13.333px;" text-anchor="middle" dominant-baseline="central">ceppg</text></g><g data-channel="cell" data-cell-index="12" data-cell-row="3" data-cell-col="0"><rect x="33" y="156" width="48" height="20" fill="#fafa22"/><text x="57" y="166" fill="#000000" style="font-family: &quot;JetBrains Mono&quot;, &quot;Menlo&quot;, &quot;Consolas&quot;, &quot;DejaVu Sans Mono&quot;, &quot;Liberation Mono&quot;, &quot;Roboto Mono&quot;, &quot;Noto Sans Mono&quot;, monospace; font-size: 16px;" text-anchor="middle" dominant-baseline="central">Ivr6</text></g><g data-channel="cell" data-cell-index="13" data-cell-row="3" data-cell-col="1"><rect x="93" y="156" width="48" height="20" fill="#514772"/><text x="117" y="166" fill="#ffffff" style="font-family: &quot;JetBrains Mono&quot;, &quot;Menlo&quot;, &quot;Consolas&quot;, &quot;DejaVu Sans Mono&quot;, &quot;Liberation Mono&quot;, &quot;Roboto Mono&quot;, &quot;Noto Sans Mono&quot;, monospace; font-size: 16px;" text-anchor="middle" dominant-baseline="central">ckdR</text></g><g data-channel="cell" data-cell-index="14" data-cell-row="3" data-cell-col="2"><rect x="153" y="156" width="48" height="20" fill="#4dce9a"/><text x="177" y="166" fill="#000000" style="font-family: &quot;JetBrains Mono&quot;, &quot;Menlo&quot;, &quot;Consolas&quot;, &quot;DejaVu Sans Mono&quot;, &quot;Liberation Mono&quot;, &quot;Roboto Mono&quot;, &quot;Noto Sans Mono&quot;, monospace; font-size: 16px;" text-anchor="middle" dominant-baseline="central">ms5N</text></g><g data-channel="cell" data-cell-index="15" data-cell-row="3" data-cell-col="3" data-cell-quartile="4"><rect x="213" y="156" width="48" height="20" fill="#7f1af0"/><text x="237" y="166" fill="#ffffff" style="font-family: &quot;JetBrains Mono&quot;, &quot;Menlo&quot;, &quot;Consolas&quot;, &quot;DejaVu Sans Mono&quot;, &quot;Liberation Mono&quot;, &quot;Roboto Mono&quot;, &quot;Noto Sans Mono&quot;, monospace; font-size: 16px;" text-anchor="middle" dominant-baseline="central">8Bp/</text><polygon points="213,176 213,166 223,176" fill="#ffffff"/></g><g data-channel="cell" data-cell-index="16" data-cell-row="4" data-cell-col="0" data-cell-blank="true" data-cell-blank-map="true"><rect x="33" y="196" width="48" height="20" rx="10" ry="10" fill="#ffffff" stroke="#000000" stroke-width="1"/><circle cx="63" cy="197.667" r="3.5" fill="#1d4ed8" data-blank-map-min="0,2"/><path d="M 70.8,201 H 79.2 M 75,196.8 V 205.2" fill="none" stroke="#d62828" stroke-width="1.925" stroke-linecap="butt" data-blank-map-max="1,3"/></g><g data-channel="cell" data-cell-index="17" data-cell-row="4" data-cell-col="1"><rect x="93" y="196" width="48" height="20" fill="#a0fb92"/><text x="117" y="206" fill="#000000" style="font-family: &quot;JetBrains Mono&quot;, &quot;Menlo&quot;, &quot;Consolas&quot;, &quot;DejaVu Sans Mono&quot;, &quot;Liberation Mono&quot;, &quot;Roboto Mono&quot;, &quot;Noto Sans Mono&quot;, monospace; font-size: 16px;" text-anchor="middle" dominant-baseline="central">kvug</text></g><g data-channel="cell" data-cell-index="18" data-cell-row="4" data-cell-col="2" data-cell-blank="true"><rect x="153" y="196" width="48" height="20" rx="10" ry="10" fill="#ffffff" stroke="#000000" stroke-width="1"/></g><g data-channel="cell" data-cell-index="19" data-cell-row="4" data-cell-col="3"><rect x="213" y="196" width="48" height="20" fill="#2020fe"/><text x="237" y="206" fill="#ffffff" style="font-family: &quot;JetBrains Mono&quot;, &quot;Menlo&quot;, &quot;Consolas&quot;, &quot;DejaVu Sans Mono&quot;, &quot;Liberation Mono&quot;, &quot;Roboto Mono&quot;, &quot;Noto Sans Mono&quot;, monospace; font-size: 16px;" text-anchor="middle" dominant-baseline="central">/iAg</text></g><g data-channel="cell" data-cell-index="20" data-cell-row="5" data-cell-col="0"><rect x="33" y="236" width="48" height="20" fill="#8aa35f"/><text x="57" y="246" fill="#000000" style="font-family: &quot;JetBrains Mono&quot;, &quot;Menlo&quot;, &quot;Consolas&quot;, &quot;DejaVu Sans Mono&quot;, &quot;Liberation Mono&quot;, &quot;Roboto Mono&quot;, &quot;Noto Sans Mono&quot;, monospace; font-size: 16px;" text-anchor="middle" dominant-baseline="central">X6OK</text></g><g data-channel="cell" data-cell-index="21" data-cell-row="5" data-cell-col="1" data-cell-blank="true"><rect x="93" y="236" width="48" height="20" rx="10" ry="10" fill="#ffffff" stroke="#000000" stroke-width="1"/></g><g data-channel="cell" data-cell-index="22" data-cell-row="5" data-cell-col="2"><rect x="153" y="236" width="48" height="20" fill="#00d1e7"/><text x="177" y="246" fill="#000000" style="font-family: &quot;JetBrains Mono&quot;, &quot;Menlo&quot;, &quot;Consolas&quot;, &quot;DejaVu Sans Mono&quot;, &quot;Liberation Mono&quot;, &quot;Roboto Mono&quot;, &quot;Noto Sans Mono&quot;, monospace; font-size: 16px;" text-anchor="middle" dominant-baseline="central">59E=</text></g><g data-channel="cell" data-cell-index="23" data-cell-row="5" data-cell-col="3" data-cell-blank="true"><rect x="213" y="236" width="48" height="20" rx="10" ry="10" fill="#000000" stroke="#000000" stroke-width="1"/></g></g></g><g data-channel="color-bar" data-bar-slots="16" data-bar-marker-left="3" data-bar-marker-right="10"><g data-color-bar-rank="0" data-color-bar-band="K"><rect x="1" y="1" width="20" height="31.34" fill="#000000"/><text x="11" y="28.82" fill="#ffffff" style="font-family: &quot;JetBrains Mono&quot;, &quot;Menlo&quot;, &quot;Consolas&quot;, &quot;DejaVu Sans Mono&quot;, &quot;Liberation Mono&quot;, &quot;Roboto Mono&quot;, &quot;Noto Sans Mono&quot;, monospace; font-size: 16px;" text-anchor="middle" data-color-bar-letter="true">k</text></g><g data-color-bar-rank="1" data-color-bar-band="B"><rect x="1" y="32.34" width="20" height="47.768" fill="#2f3fbf"/><text x="11" y="76.588" fill="#ffffff" style="font-family: &quot;JetBrains Mono&quot;, &quot;Menlo&quot;, &quot;Consolas&quot;, &quot;DejaVu Sans Mono&quot;, &quot;Liberation Mono&quot;, &quot;Roboto Mono&quot;, &quot;Noto Sans Mono&quot;, monospace; font-size: 16px;" text-anchor="middle" data-color-bar-letter="true">b</text></g><g data-color-bar-rank="2" data-color-bar-band="W"><rect x="1" y="80.108" width="20" height="116.62" fill="#ffffff"/><text x="11" y="193.208" fill="#000000" style="font-family: &quot;JetBrains Mono&quot;, &quot;Menlo&quot;, &quot;Consolas&quot;, &quot;DejaVu Sans Mono&quot;, &quot;Liberation Mono&quot;, &quot;Roboto Mono&quot;, &quot;Noto Sans Mono&quot;, monospace; font-size: 16px;" text-anchor="middle" data-color-bar-letter="true">w</text></g><g data-color-bar-rank="3" data-color-bar-band="G"><rect x="1" y="196.728" width="20" height="74.272" fill="#e7be00"/><text x="11" y="267.48" fill="#000000" style="font-family: &quot;JetBrains Mono&quot;, &quot;Menlo&quot;, &quot;Consolas&quot;, &quot;DejaVu Sans Mono&quot;, &quot;Liberation Mono&quot;, &quot;Roboto Mono&quot;, &quot;Noto Sans Mono&quot;, monospace; font-size: 16px;" text-anchor="middle" data-color-bar-letter="true">g</text></g><circle cx="5.6" cy="60.062" r="3.4" fill="#ffffff" stroke="#000000" stroke-width="0.75" data-bar-marker="left"/><circle cx="16.4" cy="178.188" r="3.4" fill="#ffffff" stroke="#000000" stroke-width="0.75" data-bar-marker="right"/></g><g data-channel="label-top"><text x="27" y="16" fill="#666666" style="font-family: &quot;JetBrains Mono&quot;, &quot;Menlo&quot;, &quot;Consolas&quot;, &quot;DejaVu Sans Mono&quot;, &quot;Liberation Mono&quot;, &quot;Roboto Mono&quot;, &quot;Noto Sans Mono&quot;, monospace; font-size: 12px;" dominant-baseline="central"><tspan fill="#a00000" font-weight="bold">fingerprint of </tspan>SSH ecdsa-nistp256: AAAAE2VjZHNhLXNoYTItbmlzdHAyNTYAAAAIbmlzdHAyNTYAAABB...</text></g><line x1="0" y1="0.5" x2="273" y2="0.5" stroke="#808080" stroke-width="1" shape-rendering="crispEdges"/><line x1="272.5" y1="0" x2="272.5" y2="272" stroke="#808080" stroke-width="1" shape-rendering="crispEdges"/><line x1="0" y1="271.5" x2="273" y2="271.5" stroke="#808080" stroke-width="1" shape-rendering="crispEdges"/><line x1="0.5" y1="0" x2="0.5" y2="272" stroke="#808080" stroke-width="1" shape-rendering="crispEdges"/><line x1="21.5" y1="0" x2="21.5" y2="272" stroke="#808080" stroke-width="1" shape-rendering="crispEdges"/></svg>