<svg width="273" height="272" viewBox="0 0 273 272" xmlns="http://www.w3.org/2000/svg" font-family="&quot;JetBrains Mono&quot;, &quot;Menlo&quot;, &quot;Consolas&quot;, &quot;DejaVu Sans Mono&quot;, &quot;Liberation Mono&quot;, &quot;Roboto Mono&quot;, &quot;Noto Sans Mono&quot;, monospace" data-entviz-version="v10" data-entviz-lib="0.10.0" data-input-bytes="160" data-cols="4" data-rows="6" data-truncated="true"><defs><clipPath id="grid-clip-8b678698b08217c4-4x6"><rect x="27" y="26" width="240" height="240"/></clipPath></defs><rect x="0" y="0" width="273" height="272" fill="#ffffff"/><g data-channel="grid"><rect x="27" y="26" width="240" height="240" fill="#ff3f2f"/><g><path fill="#2f3fbf" d="M33 26h6v10h-6zM39 26h6v10h-6zM69 26h6v10h-6zM75 26h6v10h-6zM81 26h6v10h-6zM81 36h6v10h-6zM75 56h6v10h-6zM69 56h6v10h-6zM57 56h6v10h-6zM51 56h6v10h-6zM39 56h6v10h-6zM27 36h6v10h-6z"/><path fill="#2f3fbf" d="M93 26h6v10h-6zM129 26h6v10h-6zM141 56h6v10h-6zM135 56h6v10h-6zM123 56h6v10h-6zM99 56h6v10h-6zM93 56h6v10h-6zM87 36h6v10h-6z"/><path fill="#ffffff" d="M153 26h6v10h-6zM159 26h6v10h-6zM165 26h6v10h-6zM201 36h6v10h-6zM189 56h6v10h-6zM183 56h6v10h-6zM177 56h6v10h-6zM171 56h6v10h-6zM165 56h6v10h-6zM153 56h6v10h-6z"/><path fill="#2f3fbf" d="M213 26h6v10h-6zM219 26h6v10h-6zM231 26h6v10h-6zM237 26h6v10h-6zM255 26h6v10h-6zM261 26h6v10h-6zM261 36h6v10h-6zM261 46h6v10h-6zM261 56h6v10h-6zM225 56h6v10h-6zM219 56h6v10h-6zM213 56h6v10h-6zM207 56h6v10h-6z"/><path fill="#2f3fbf" d="M27 66h6v10h-6zM33 66h6v10h-6zM45 66h6v10h-6zM75 66h6v10h-6zM81 66h6v10h-6zM81 76h6v10h-6zM81 96h6v10h-6zM39 96h6v10h-6zM27 96h6v10h-6zM27 76h6v10h-6z"/><path fill="#ffffff" d="M87 66h6v10h-6zM99 66h6v10h-6zM135 66h6v10h-6zM141 76h6v10h-6zM123 96h6v10h-6zM117 96h6v10h-6zM93 96h6v10h-6zM87 86h6v10h-6z"/><path fill="#000000" d="M159 66h6v10h-6zM183 66h6v10h-6zM195 66h6v10h-6zM201 66h6v10h-6zM201 96h6v10h-6zM159 96h6v10h-6zM147 86h6v10h-6z"/><path fill="#ffffff" d="M219 66h6v10h-6zM231 66h6v10h-6zM237 66h6v10h-6zM243 66h6v10h-6zM255 66h6v10h-6zM261 66h6v10h-6zM261 76h6v10h-6zM261 96h6v10h-6zM255 96h6v10h-6zM243 96h6v10h-6zM231 96h6v10h-6zM225 96h6v10h-6zM207 96h6v10h-6zM207 86h6v10h-6zM207 76h6v10h-6z"/><path fill="#e7be00" d="M27 106h6v10h-6zM51 106h6v10h-6zM57 106h6v10h-6zM69 106h6v10h-6zM75 106h6v10h-6zM81 116h6v10h-6zM81 126h6v10h-6zM81 136h6v10h-6zM69 136h6v10h-6zM57 136h6v10h-6zM45 136h6v10h-6zM39 136h6v10h-6zM27 126h6v10h-6z"/><path fill="#e7be00" d="M87 106h6v10h-6zM93 106h6v10h-6zM99 106h6v10h-6zM105 106h6v10h-6zM117 106h6v10h-6zM123 106h6v10h-6zM129 106h6v10h-6zM135 106h6v10h-6zM141 116h6v10h-6zM141 126h6v10h-6zM135 136h6v10h-6zM129 136h6v10h-6zM123 136h6v10h-6zM117 136h6v10h-6zM105 136h6v10h-6zM87 136h6v10h-6zM87 126h6v10h-6zM87 116h6v10h-6z"/><path fill="#e7be00" d="M159 106h6v10h-6zM165 106h6v10h-6zM171 106h6v10h-6zM177 106h6v10h-6zM201 106h6v10h-6zM195 136h6v10h-6zM183 136h6v10h-6zM177 136h6v10h-6zM171 136h6v10h-6zM147 136h6v10h-6z"/><path fill="#e7be00" d="M207 106h6v10h-6zM225 106h6v10h-6zM237 106h6v10h-6zM255 106h6v10h-6zM261 106h6v10h-6zM261 116h6v10h-6zM261 136h6v10h-6zM249 136h6v10h-6zM243 136h6v10h-6zM225 136h6v10h-6zM219 136h6v10h-6zM213 136h6v10h-6zM207 126h6v10h-6z"/><path fill="#e7be00" d="M27 146h6v10h-6zM57 146h6v10h-6zM63 146h6v10h-6zM75 146h6v10h-6zM81 166h6v10h-6zM81 176h6v10h-6zM57 176h6v10h-6zM45 176h6v10h-6zM39 176h6v10h-6zM33 176h6v10h-6zM27 156h6v10h-6z"/><path fill="#2f3fbf" d="M87 146h6v10h-6zM123 146h6v10h-6zM129 146h6v10h-6zM141 156h6v10h-6zM135 176h6v10h-6zM99 176h6v10h-6zM93 176h6v10h-6zM87 166h6v10h-6zM87 156h6v10h-6z"/><path fill="#2f3fbf" d="M147 146h6v10h-6zM153 146h6v10h-6zM177 146h6v10h-6zM189 146h6v10h-6zM201 166h6v10h-6zM201 176h6v10h-6zM189 176h6v10h-6zM183 176h6v10h-6zM165 176h6v10h-6zM147 176h6v10h-6zM147 156h6v10h-6z"/><path fill="#2f3fbf" d="M207 146h6v10h-6zM219 146h6v10h-6zM237 146h6v10h-6zM261 146h6v10h-6zM261 166h6v10h-6zM261 176h6v10h-6zM255 176h6v10h-6zM231 176h6v10h-6zM225 176h6v10h-6zM219 176h6v10h-6zM207 176h6v10h-6zM207 166h6v10h-6z"/><path fill="#ffffff" d="M93 186h6v10h-6zM111 186h6v10h-6zM117 186h6v10h-6zM135 186h6v10h-6zM141 186h6v10h-6zM141 196h6v10h-6zM141 206h6v10h-6zM123 216h6v10h-6zM111 216h6v10h-6zM93 216h6v10h-6zM87 206h6v10h-6zM87 196h6v10h-6z"/><path fill="#2f3fbf" d="M207 186h6v10h-6zM213 186h6v10h-6zM219 186h6v10h-6zM225 186h6v10h-6zM243 186h6v10h-6zM261 206h6v10h-6zM261 216h6v10h-6zM255 216h6v10h-6zM225 216h6v10h-6zM207 206h6v10h-6zM207 196h6v10h-6z"/><path fill="#e7be00" d="M27 226h6v10h-6zM33 226h6v10h-6zM39 226h6v10h-6zM51 226h6v10h-6zM57 226h6v10h-6zM69 226h6v10h-6zM63 256h6v10h-6zM57 256h6v10h-6zM51 256h6v10h-6zM45 256h6v10h-6zM27 246h6v10h-6z"/><path fill="#2f3fbf" d="M153 226h6v10h-6zM165 226h6v10h-6zM171 226h6v10h-6zM183 226h6v10h-6zM189 226h6v10h-6zM195 226h6v10h-6zM201 256h6v10h-6zM177 256h6v10h-6zM171 256h6v10h-6zM159 256h6v10h-6zM147 246h6v10h-6z"/></g><g clip-path="url(#grid-clip-8b678698b08217c4-4x6)" data-channel="ellipse" data-ellipse-anchor-x="207" data-ellipse-anchor-y="66" data-ellipse-rx="110.858" data-ellipse-ry="65.654" data-ellipse-rotation-deg="108"><ellipse cx="207" cy="66" rx="110.858" ry="65.654" transform="rotate(108 207 66)" fill="#000000" stroke="#000000" fill-opacity="0.25" stroke-opacity="0.35" stroke-width="2"/></g><g><g data-channel="cell" data-cell-index="0" data-cell-row="0" data-cell-col="0" data-surround-bits="0x8b6786" data-edge-color="#2f3fbf"><rect x="33" y="36" width="48" height="20" fill="#81d404"/><text x="57" y="46" fill="#000000" font-size="16" text-anchor="middle" dominant-baseline="central">BNSB</text></g><g data-channel="cell" data-cell-index="1" data-cell-row="0" data-cell-col="1" data-surround-bits="0x98b082" data-edge-color="#2f3fbf" data-cell-quartile="2"><rect x="93" y="36" width="48" height="20" fill="#1d4303"/><text x="117" y="46" fill="#ffffff" font-size="16" text-anchor="middle" dominant-baseline="central">A0Md</text><polygon points="141,36 131,36 141,46" fill="#ffffff"/></g><g data-channel="cell" data-cell-index="2" data-cell-row="0" data-cell-col="2" data-surround-bits="0x17c40e" data-edge-color="#ffffff" data-cell-quartile="3"><rect x="153" y="36" width="48" height="20" fill="#c2cff4"/><text x="177" y="46" fill="#000000" font-size="16" text-anchor="middle" dominant-baseline="central">9M/C</text><polygon points="201,56 201,46 191,56" fill="#000000"/></g><g data-channel="cell" data-cell-index="3" data-cell-row="0" data-cell-col="3" data-surround-bits="0x3c1f36" data-edge-color="#2f3fbf"><rect x="213" y="36" width="48" height="20" fill="#099dc2"/><text x="237" y="46" fill="#000000" font-size="16" text-anchor="middle" dominant-baseline="central">wp0J</text></g><g data-channel="cell" data-cell-index="4" data-cell-row="1" data-cell-col="0" data-surround-bits="0xa8170b" data-edge-color="#2f3fbf"><rect x="33" y="76" width="48" height="20" fill="#6f64df"/><text x="57" y="86" fill="#ffffff" font-size="16" text-anchor="middle" dominant-baseline="central">32Rv</text></g><g data-channel="cell" data-cell-index="5" data-cell-row="1" data-cell-col="1" data-surround-bits="0x518505" data-edge-color="#ffffff"><rect x="93" y="76" width="48" height="20" fill="#a2f693"/><text x="117" y="86" fill="#000000" font-size="16" text-anchor="middle" dominant-baseline="central">k/ai</text></g><g data-channel="cell" data-cell-index="6" data-cell-row="1" data-cell-col="2" data-surround-bits="0x481344" data-edge-color="#000000"><rect x="153" y="76" width="48" height="20" fill="#3b5c12"/><text x="177" y="86" fill="#ffffff" font-size="16" text-anchor="middle" dominant-baseline="central">Elw7</text></g><g data-channel="cell" data-cell-index="7" data-cell-row="1" data-cell-col="3" data-surround-bits="0xe6b774" data-edge-color="#ffffff" data-cell-quartile="1"><rect x="213" y="76" width="48" height="20" fill="#a5deee"/><text x="237" y="86" fill="#000000" font-size="16" text-anchor="middle" dominant-baseline="central">7t6l</text><polygon points="213,76 223,76 213,86" fill="#000000"/></g><g data-channel="cell" data-cell-index="8" data-cell-row="2" data-cell-col="0" data-cell-fingerprint="true" data-surround-bits="0x4d5db1" data-edge-color="#e7be00"><rect x="33" y="116" width="48" height="20" fill="#ff3f2f"/><rect x="33.5" y="116.5" width="47" height="19" fill="none" stroke="#ffffff" stroke-width="1"/><text x="57" y="126" fill="#000000" font-size="13.333" text-anchor="middle" dominant-baseline="central">e944p</text></g><g data-channel="cell" data-cell-index="9" data-cell-row="2" data-cell-col="1" data-cell-fingerprint="true" data-surround-bits="0xe5edef" data-edge-color="#e7be00"><rect x="93" y="116" width="48" height="20" fill="#ff3f2f"/><rect x="93.5" y="116.5" width="47" height="19" fill="none" stroke="#ffffff" stroke-width="1"/><text x="117" y="126" fill="#000000" font-size="13.333" text-anchor="middle" dominant-baseline="central">029m2</text></g><g data-channel="cell" data-cell-index="10" data-cell-row="2" data-cell-col="2" data-cell-fingerprint="true" data-surround-bits="0x23a23c" data-edge-color="#e7be00"><rect x="153" y="116" width="48" height="20" fill="#ff3f2f"/><rect x="153.5" y="116.5" width="47" height="19" fill="none" stroke="#ffffff" stroke-width="1"/><text x="177" y="126" fill="#000000" font-size="13.333" text-anchor="middle" dominant-baseline="central">b197f</text></g><g data-channel="cell" data-cell-index="11" data-cell-row="2" data-cell-col="3" data-cell-fingerprint="true" data-surround-bits="0x5cd729" data-edge-color="#e7be00"><rect x="213" y="116" width="48" height="20" fill="#ff3f2f"/><rect x="213.5" y="116.5" width="47" height="19" fill="none" stroke="#ffffff" stroke-width="1"/><text x="237" y="126" fill="#000000" font-size="13.333" text-anchor="middle" dominant-baseline="central">ceppg</text></g><g data-channel="cell" data-cell-index="12" data-cell-row="3" data-cell-col="0" data-surround-bits="0x9d1961" data-edge-color="#e7be00"><rect x="33" y="156" width="48" height="20" fill="#fafa22"/><text x="57" y="166" fill="#000000" font-size="16" text-anchor="middle" dominant-baseline="central">Ivr6</text></g><g data-channel="cell" data-cell-index="13" data-cell-row="3" data-cell-col="1" data-surround-bits="0xd824c1" data-edge-color="#2f3fbf"><rect x="93" y="156" width="48" height="20" fill="#514772"/><text x="117" y="166" fill="#ffffff" font-size="16" text-anchor="middle" dominant-baseline="central">ckdR</text></g><g data-channel="cell" data-cell-index="14" data-cell-row="3" data-cell-col="2" data-surround-bits="0xa4d8a3" data-edge-color="#2f3fbf"><rect x="153" y="156" width="48" height="20" fill="#4dce9a"/><text x="177" y="166" fill="#000000" font-size="16" text-anchor="middle" dominant-baseline="central">ms5N</text></g><g data-channel="cell" data-cell-index="15" data-cell-row="3" data-cell-col="3" data-surround-bits="0x6e3a25" data-edge-color="#2f3fbf" data-cell-quartile="4"><rect x="213" y="156" width="48" height="20" fill="#7f1af0"/><text x="237" y="166" fill="#ffffff" font-size="16" text-anchor="middle" dominant-baseline="central">8Bp/</text><polygon points="213,176 213,166 223,176" fill="#ffffff"/></g><g data-channel="cell" data-cell-index="16" data-cell-row="4" data-cell-col="0" data-cell-blank="true" data-cell-blank-map="true"><rect x="33" y="196" width="48" height="20" rx="10" ry="10" fill="#ffffff" stroke="#000000" stroke-width="1"/><circle cx="63" cy="197.667" r="3.5" fill="#1d4ed8" data-blank-map-min="0,2"/><path d="M 70.8,201 H 79.2 M 75,196.8 V 205.2" fill="none" stroke="#d62828" stroke-width="1.925" stroke-linecap="butt" data-blank-map-max="1,3"/></g><g data-channel="cell" data-cell-index="17" data-cell-row="4" data-cell-col="1" data-surround-bits="0xd28f32" data-edge-color="#ffffff"><rect x="93" y="196" width="48" height="20" fill="#a0fb92"/><text x="117" y="206" fill="#000000" font-size="16" text-anchor="middle" dominant-baseline="central">kvug</text></g><g data-channel="cell" data-cell-index="18" data-cell-row="4" data-cell-col="2" data-cell-blank="true"><rect x="153" y="196" width="48" height="20" rx="10" ry="10" fill="#ffffff" stroke="#000000" stroke-width="1"/></g><g data-channel="cell" data-cell-index="19" data-cell-row="4" data-cell-col="3" data-surround-bits="0xc4384f" data-edge-color="#2f3fbf"><rect x="213" y="196" width="48" height="20" fill="#2020fe"/><text x="237" y="206" fill="#ffffff" font-size="16" text-anchor="middle" dominant-baseline="central">/iAg</text></g><g data-channel="cell" data-cell-index="20" data-cell-row="5" data-cell-col="0" data-surround-bits="0x4780b7" data-edge-color="#e7be00"><rect x="33" y="236" width="48" height="20" fill="#8aa35f"/><text x="57" y="246" fill="#000000" font-size="16" text-anchor="middle" dominant-baseline="central">X6OK</text></g><g data-channel="cell" data-cell-index="21" data-cell-row="5" data-cell-col="1" data-cell-blank="true"><rect x="93" y="236" width="48" height="20" rx="10" ry="10" fill="#ffffff" stroke="#000000" stroke-width="1"/></g><g data-channel="cell" data-cell-index="22" data-cell-row="5" data-cell-col="2" data-surround-bits="0x4b11da" data-edge-color="#2f3fbf"><rect x="153" y="236" width="48" height="20" fill="#00d1e7"/><text x="177" y="246" fill="#000000" font-size="16" text-anchor="middle" dominant-baseline="central">59E=</text></g><g data-channel="cell" data-cell-index="23" data-cell-row="5" data-cell-col="3" data-cell-blank="true"><rect x="213" y="236" width="48" height="20" rx="10" ry="10" fill="#000000" stroke="#000000" stroke-width="1"/></g></g></g><g data-channel="color-bar" data-bar-slots="16" data-bar-marker-left="3" data-bar-marker-right="10"><g data-color-bar-rank="0" data-color-bar-band="K"><rect x="1" y="1" width="20" height="31.34" fill="#000000"/><text x="11" y="28.82" fill="#ffffff" font-size="16" text-anchor="middle" data-color-bar-letter="true">k</text></g><g data-color-bar-rank="1" data-color-bar-band="B"><rect x="1" y="32.34" width="20" height="47.768" fill="#2f3fbf"/><text x="11" y="76.588" fill="#ffffff" font-size="16" text-anchor="middle" data-color-bar-letter="true">b</text></g><g data-color-bar-rank="2" data-color-bar-band="W"><rect x="1" y="80.108" width="20" height="116.62" fill="#ffffff"/><text x="11" y="193.208" fill="#000000" font-size="16" text-anchor="middle" data-color-bar-letter="true">w</text></g><g data-color-bar-rank="3" data-color-bar-band="G"><rect x="1" y="196.728" width="20" height="74.272" fill="#e7be00"/><text x="11" y="267.48" fill="#000000" font-size="16" text-anchor="middle" data-color-bar-letter="true">g</text></g><circle cx="5.6" cy="60.062" r="3.4" fill="#ffffff" stroke="#000000" stroke-width="0.75" data-bar-marker="left"/><circle cx="16.4" cy="178.188" r="3.4" fill="#ffffff" stroke="#000000" stroke-width="0.75" data-bar-marker="right"/></g><g data-channel="label-top"><text x="27" y="16" fill="#666666" font-size="12" dominant-baseline="central"><tspan fill="#a00000" font-weight="bold">fingerprint of </tspan>SSH ecdsa-nistp256: AAAAE2VjZHNhLXNoYTItbmlzdHAyNTYAAAAIbmlzdHAyNTYAAABB...</text></g><line x1="0" y1="0.5" x2="273" y2="0.5" stroke="#808080" stroke-width="1" shape-rendering="crispEdges"/><line x1="272.5" y1="0" x2="272.5" y2="272" stroke="#808080" stroke-width="1" shape-rendering="crispEdges"/><line x1="0" y1="271.5" x2="273" y2="271.5" stroke="#808080" stroke-width="1" shape-rendering="crispEdges"/><line x1="0.5" y1="0" x2="0.5" y2="272" stroke="#808080" stroke-width="1" shape-rendering="crispEdges"/><line x1="21.5" y1="0" x2="21.5" y2="272" stroke="#808080" stroke-width="1" shape-rendering="crispEdges"/></svg>