<svg width="275" height="274" viewBox="0 0 275 274" xmlns="http://www.w3.org/2000/svg" font-family="&quot;JetBrains Mono&quot;, &quot;Menlo&quot;, &quot;Consolas&quot;, &quot;DejaVu Sans Mono&quot;, &quot;Liberation Mono&quot;, &quot;Roboto Mono&quot;, &quot;Noto Sans Mono&quot;, monospace" data-entviz-version="v12" data-entviz-lib="0.12.0" data-input-bytes="160" data-cols="4" data-rows="6" data-truncated="true"><defs><clipPath id="grid-clip-8b678698b08217c4-4x6"><rect x="28" y="27" width="240" height="240"/></clipPath></defs><rect x="1" y="1" width="273" height="272" fill="#ffffff"/><g data-channel="grid"><rect x="28" y="27" width="240" height="240" fill="#ff3f2f"/><g><path fill="#2f3fbf" d="M34 27h6v10h-6zM40 27h6v10h-6zM70 27h6v10h-6zM76 27h6v10h-6zM82 27h6v10h-6zM82 37h6v10h-6zM76 57h6v10h-6zM70 57h6v10h-6zM58 57h6v10h-6zM52 57h6v10h-6zM40 57h6v10h-6zM28 37h6v10h-6z"/><path fill="#2f3fbf" d="M94 27h6v10h-6zM130 27h6v10h-6zM142 57h6v10h-6zM136 57h6v10h-6zM124 57h6v10h-6zM100 57h6v10h-6zM94 57h6v10h-6zM88 37h6v10h-6z"/><path fill="#ffffff" d="M154 27h6v10h-6zM160 27h6v10h-6zM166 27h6v10h-6zM202 37h6v10h-6zM190 57h6v10h-6zM184 57h6v10h-6zM178 57h6v10h-6zM172 57h6v10h-6zM166 57h6v10h-6zM154 57h6v10h-6z"/><path fill="#2f3fbf" d="M214 27h6v10h-6zM220 27h6v10h-6zM232 27h6v10h-6zM238 27h6v10h-6zM256 27h6v10h-6zM262 27h6v10h-6zM262 37h6v10h-6zM262 47h6v10h-6zM262 57h6v10h-6zM226 57h6v10h-6zM220 57h6v10h-6zM214 57h6v10h-6zM208 57h6v10h-6z"/><path fill="#2f3fbf" d="M28 67h6v10h-6zM34 67h6v10h-6zM46 67h6v10h-6zM76 67h6v10h-6zM82 67h6v10h-6zM82 77h6v10h-6zM82 97h6v10h-6zM40 97h6v10h-6zM28 97h6v10h-6zM28 77h6v10h-6z"/><path fill="#ffffff" d="M88 67h6v10h-6zM100 67h6v10h-6zM136 67h6v10h-6zM142 77h6v10h-6zM124 97h6v10h-6zM118 97h6v10h-6zM94 97h6v10h-6zM88 87h6v10h-6z"/><path fill="#000000" d="M160 67h6v10h-6zM184 67h6v10h-6zM196 67h6v10h-6zM202 67h6v10h-6zM202 97h6v10h-6zM160 97h6v10h-6zM148 87h6v10h-6z"/><path fill="#ffffff" d="M220 67h6v10h-6zM232 67h6v10h-6zM238 67h6v10h-6zM244 67h6v10h-6zM256 67h6v10h-6zM262 67h6v10h-6zM262 77h6v10h-6zM262 97h6v10h-6zM256 97h6v10h-6zM244 97h6v10h-6zM232 97h6v10h-6zM226 97h6v10h-6zM208 97h6v10h-6zM208 87h6v10h-6zM208 77h6v10h-6z"/><path fill="#e7be00" d="M28 107h6v10h-6zM52 107h6v10h-6zM58 107h6v10h-6zM70 107h6v10h-6zM76 107h6v10h-6zM82 117h6v10h-6zM82 127h6v10h-6zM82 137h6v10h-6zM70 137h6v10h-6zM58 137h6v10h-6zM46 137h6v10h-6zM40 137h6v10h-6zM28 127h6v10h-6z"/><path fill="#e7be00" d="M88 107h6v10h-6zM94 107h6v10h-6zM100 107h6v10h-6zM106 107h6v10h-6zM118 107h6v10h-6zM124 107h6v10h-6zM130 107h6v10h-6zM136 107h6v10h-6zM142 117h6v10h-6zM142 127h6v10h-6zM136 137h6v10h-6zM130 137h6v10h-6zM124 137h6v10h-6zM118 137h6v10h-6zM106 137h6v10h-6zM88 137h6v10h-6zM88 127h6v10h-6zM88 117h6v10h-6z"/><path fill="#e7be00" d="M160 107h6v10h-6zM166 107h6v10h-6zM172 107h6v10h-6zM178 107h6v10h-6zM202 107h6v10h-6zM196 137h6v10h-6zM184 137h6v10h-6zM178 137h6v10h-6zM172 137h6v10h-6zM148 137h6v10h-6z"/><path fill="#e7be00" d="M208 107h6v10h-6zM226 107h6v10h-6zM238 107h6v10h-6zM256 107h6v10h-6zM262 107h6v10h-6zM262 117h6v10h-6zM262 137h6v10h-6zM250 137h6v10h-6zM244 137h6v10h-6zM226 137h6v10h-6zM220 137h6v10h-6zM214 137h6v10h-6zM208 127h6v10h-6z"/><path fill="#e7be00" d="M28 147h6v10h-6zM58 147h6v10h-6zM64 147h6v10h-6zM76 147h6v10h-6zM82 167h6v10h-6zM82 177h6v10h-6zM58 177h6v10h-6zM46 177h6v10h-6zM40 177h6v10h-6zM34 177h6v10h-6zM28 157h6v10h-6z"/><path fill="#2f3fbf" d="M88 147h6v10h-6zM124 147h6v10h-6zM130 147h6v10h-6zM142 157h6v10h-6zM136 177h6v10h-6zM100 177h6v10h-6zM94 177h6v10h-6zM88 167h6v10h-6zM88 157h6v10h-6z"/><path fill="#2f3fbf" d="M148 147h6v10h-6zM154 147h6v10h-6zM178 147h6v10h-6zM190 147h6v10h-6zM202 167h6v10h-6zM202 177h6v10h-6zM190 177h6v10h-6zM184 177h6v10h-6zM166 177h6v10h-6zM148 177h6v10h-6zM148 157h6v10h-6z"/><path fill="#2f3fbf" d="M208 147h6v10h-6zM220 147h6v10h-6zM238 147h6v10h-6zM262 147h6v10h-6zM262 167h6v10h-6zM262 177h6v10h-6zM256 177h6v10h-6zM232 177h6v10h-6zM226 177h6v10h-6zM220 177h6v10h-6zM208 177h6v10h-6zM208 167h6v10h-6z"/><path fill="#ffffff" d="M94 187h6v10h-6zM112 187h6v10h-6zM118 187h6v10h-6zM136 187h6v10h-6zM142 187h6v10h-6zM142 197h6v10h-6zM142 207h6v10h-6zM124 217h6v10h-6zM112 217h6v10h-6zM94 217h6v10h-6zM88 207h6v10h-6zM88 197h6v10h-6z"/><path fill="#2f3fbf" d="M208 187h6v10h-6zM214 187h6v10h-6zM220 187h6v10h-6zM226 187h6v10h-6zM244 187h6v10h-6zM262 207h6v10h-6zM262 217h6v10h-6zM256 217h6v10h-6zM226 217h6v10h-6zM208 207h6v10h-6zM208 197h6v10h-6z"/><path fill="#e7be00" d="M28 227h6v10h-6zM34 227h6v10h-6zM40 227h6v10h-6zM52 227h6v10h-6zM58 227h6v10h-6zM70 227h6v10h-6zM64 257h6v10h-6zM58 257h6v10h-6zM52 257h6v10h-6zM46 257h6v10h-6zM28 247h6v10h-6z"/><path fill="#2f3fbf" d="M154 227h6v10h-6zM166 227h6v10h-6zM172 227h6v10h-6zM184 227h6v10h-6zM190 227h6v10h-6zM196 227h6v10h-6zM202 257h6v10h-6zM178 257h6v10h-6zM172 257h6v10h-6zM160 257h6v10h-6zM148 247h6v10h-6z"/></g><g clip-path="url(#grid-clip-8b678698b08217c4-4x6)" data-channel="ellipse" data-ellipse-anchor-x="208" data-ellipse-anchor-y="67" data-ellipse-rx="110.858" data-ellipse-ry="65.654" data-ellipse-rotation-deg="108"><ellipse cx="208" cy="67" rx="110.858" ry="65.654" transform="rotate(108 208 67)" fill="#000000" stroke="#000000" fill-opacity="0.25" stroke-opacity="0.35" stroke-width="2"/></g><g><g data-channel="cell" data-cell-index="0" data-cell-row="0" data-cell-col="0" data-surround-bits="0x8b6786" data-edge-color="#2f3fbf"><rect x="34" y="37" width="48" height="20" fill="#81d404"/><text x="58" y="47" fill="#000000" font-size="16" text-anchor="middle" dominant-baseline="central">BNSB</text></g><g data-channel="cell" data-cell-index="1" data-cell-row="0" data-cell-col="1" data-surround-bits="0x98b082" data-edge-color="#2f3fbf" data-cell-quartile="2"><rect x="94" y="37" width="48" height="20" fill="#1d4303"/><text x="118" y="47" fill="#ffffff" font-size="16" text-anchor="middle" dominant-baseline="central">A0Md</text><polygon points="142,37 132,37 142,47" fill="#ffffff"/></g><g data-channel="cell" data-cell-index="2" data-cell-row="0" data-cell-col="2" data-surround-bits="0x17c40e" data-edge-color="#ffffff" data-cell-quartile="3"><rect x="154" y="37" width="48" height="20" fill="#c2cff4"/><text x="178" y="47" fill="#000000" font-size="16" text-anchor="middle" dominant-baseline="central">9M/C</text><polygon points="202,57 202,47 192,57" fill="#000000"/></g><g data-channel="cell" data-cell-index="3" data-cell-row="0" data-cell-col="3" data-surround-bits="0x3c1f36" data-edge-color="#2f3fbf"><rect x="214" y="37" width="48" height="20" fill="#099dc2"/><text x="238" y="47" fill="#000000" font-size="16" text-anchor="middle" dominant-baseline="central">wp0J</text></g><g data-channel="cell" data-cell-index="4" data-cell-row="1" data-cell-col="0" data-surround-bits="0xa8170b" data-edge-color="#2f3fbf"><rect x="34" y="77" width="48" height="20" fill="#6f64df"/><text x="58" y="87" fill="#ffffff" font-size="16" text-anchor="middle" dominant-baseline="central">32Rv</text></g><g data-channel="cell" data-cell-index="5" data-cell-row="1" data-cell-col="1" data-surround-bits="0x518505" data-edge-color="#ffffff"><rect x="94" y="77" width="48" height="20" fill="#a2f693"/><text x="118" y="87" fill="#000000" font-size="16" text-anchor="middle" dominant-baseline="central">k/ai</text></g><g data-channel="cell" data-cell-index="6" data-cell-row="1" data-cell-col="2" data-surround-bits="0x481344" data-edge-color="#000000"><rect x="154" y="77" width="48" height="20" fill="#3b5c12"/><text x="178" y="87" fill="#ffffff" font-size="16" text-anchor="middle" dominant-baseline="central">Elw7</text></g><g data-channel="cell" data-cell-index="7" data-cell-row="1" data-cell-col="3" data-surround-bits="0xe6b774" data-edge-color="#ffffff" data-cell-quartile="1"><rect x="214" y="77" width="48" height="20" fill="#a5deee"/><text x="238" y="87" fill="#000000" font-size="16" text-anchor="middle" dominant-baseline="central">7t6l</text><polygon points="214,77 224,77 214,87" fill="#000000"/></g><g data-channel="cell" data-cell-index="8" data-cell-row="2" data-cell-col="0" data-cell-fingerprint="true" data-surround-bits="0x4d5db1" data-edge-color="#e7be00"><rect x="34" y="117" width="48" height="20" fill="#ff3f2f"/><rect x="34.5" y="117.5" width="47" height="19" fill="none" stroke="#ffffff" stroke-width="1"/><text x="58" y="127" fill="#000000" font-size="13.333" text-anchor="middle" dominant-baseline="central">e944p</text></g><g data-channel="cell" data-cell-index="9" data-cell-row="2" data-cell-col="1" data-cell-fingerprint="true" data-surround-bits="0xe5edef" data-edge-color="#e7be00"><rect x="94" y="117" width="48" height="20" fill="#ff3f2f"/><rect x="94.5" y="117.5" width="47" height="19" fill="none" stroke="#ffffff" stroke-width="1"/><text x="118" y="127" fill="#000000" font-size="13.333" text-anchor="middle" dominant-baseline="central">029m2</text></g><g data-channel="cell" data-cell-index="10" data-cell-row="2" data-cell-col="2" data-cell-fingerprint="true" data-surround-bits="0x23a23c" data-edge-color="#e7be00"><rect x="154" y="117" width="48" height="20" fill="#ff3f2f"/><rect x="154.5" y="117.5" width="47" height="19" fill="none" stroke="#ffffff" stroke-width="1"/><text x="178" y="127" fill="#000000" font-size="13.333" text-anchor="middle" dominant-baseline="central">b197f</text></g><g data-channel="cell" data-cell-index="11" data-cell-row="2" data-cell-col="3" data-cell-fingerprint="true" data-surround-bits="0x5cd729" data-edge-color="#e7be00"><rect x="214" y="117" width="48" height="20" fill="#ff3f2f"/><rect x="214.5" y="117.5" width="47" height="19" fill="none" stroke="#ffffff" stroke-width="1"/><text x="238" y="127" fill="#000000" font-size="13.333" text-anchor="middle" dominant-baseline="central">ceppg</text></g><g data-channel="cell" data-cell-index="12" data-cell-row="3" data-cell-col="0" data-surround-bits="0x9d1961" data-edge-color="#e7be00"><rect x="34" y="157" width="48" height="20" fill="#fafa22"/><text x="58" y="167" fill="#000000" font-size="16" text-anchor="middle" dominant-baseline="central">Ivr6</text></g><g data-channel="cell" data-cell-index="13" data-cell-row="3" data-cell-col="1" data-surround-bits="0xd824c1" data-edge-color="#2f3fbf"><rect x="94" y="157" width="48" height="20" fill="#514772"/><text x="118" y="167" fill="#ffffff" font-size="16" text-anchor="middle" dominant-baseline="central">ckdR</text></g><g data-channel="cell" data-cell-index="14" data-cell-row="3" data-cell-col="2" data-surround-bits="0xa4d8a3" data-edge-color="#2f3fbf"><rect x="154" y="157" width="48" height="20" fill="#4dce9a"/><text x="178" y="167" fill="#000000" font-size="16" text-anchor="middle" dominant-baseline="central">ms5N</text></g><g data-channel="cell" data-cell-index="15" data-cell-row="3" data-cell-col="3" data-surround-bits="0x6e3a25" data-edge-color="#2f3fbf" data-cell-quartile="4"><rect x="214" y="157" width="48" height="20" fill="#7f1af0"/><text x="238" y="167" fill="#ffffff" font-size="16" text-anchor="middle" dominant-baseline="central">8Bp/</text><polygon points="214,177 214,167 224,177" fill="#ffffff"/></g><g data-channel="cell" data-cell-index="16" data-cell-row="4" data-cell-col="0" data-cell-blank="true" data-cell-blank-map="true"><rect x="34" y="197" width="48" height="20" rx="10" ry="10" fill="#ffffff" stroke="#000000" stroke-width="1"/><circle cx="64" cy="198.667" r="3.5" fill="#1d4ed8" data-blank-map-min="0,2"/><path d="M 71.8,202 H 80.2 M 76,197.8 V 206.2" fill="none" stroke="#d62828" stroke-width="1.925" stroke-linecap="butt" data-blank-map-max="1,3"/></g><g data-channel="cell" data-cell-index="17" data-cell-row="4" data-cell-col="1" data-surround-bits="0xd28f32" data-edge-color="#ffffff"><rect x="94" y="197" width="48" height="20" fill="#a0fb92"/><text x="118" y="207" fill="#000000" font-size="16" text-anchor="middle" dominant-baseline="central">kvug</text></g><g data-channel="cell" data-cell-index="18" data-cell-row="4" data-cell-col="2" data-cell-blank="true"><rect x="154" y="197" width="48" height="20" rx="10" ry="10" fill="#ffffff" stroke="#000000" stroke-width="1"/></g><g data-channel="cell" data-cell-index="19" data-cell-row="4" data-cell-col="3" data-surround-bits="0xc4384f" data-edge-color="#2f3fbf"><rect x="214" y="197" width="48" height="20" fill="#2020fe"/><text x="238" y="207" fill="#ffffff" font-size="16" text-anchor="middle" dominant-baseline="central">/iAg</text></g><g data-channel="cell" data-cell-index="20" data-cell-row="5" data-cell-col="0" data-surround-bits="0x4780b7" data-edge-color="#e7be00"><rect x="34" y="237" width="48" height="20" fill="#8aa35f"/><text x="58" y="247" fill="#000000" font-size="16" text-anchor="middle" dominant-baseline="central">X6OK</text></g><g data-channel="cell" data-cell-index="21" data-cell-row="5" data-cell-col="1" data-cell-blank="true"><rect x="94" y="237" width="48" height="20" rx="10" ry="10" fill="#ffffff" stroke="#000000" stroke-width="1"/></g><g data-channel="cell" data-cell-index="22" data-cell-row="5" data-cell-col="2" data-surround-bits="0x4b11da" data-edge-color="#2f3fbf"><rect x="154" y="237" width="48" height="20" fill="#00d1e7"/><text x="178" y="247" fill="#000000" font-size="16" text-anchor="middle" dominant-baseline="central">59E=</text></g><g data-channel="cell" data-cell-index="23" data-cell-row="5" data-cell-col="3" data-cell-blank="true"><rect x="214" y="237" width="48" height="20" rx="10" ry="10" fill="#000000" stroke="#000000" stroke-width="1"/></g></g></g><g data-channel="color-bar" data-bar-slots="16" data-bar-marker-left="3" data-bar-marker-right="10"><g data-color-bar-rank="0" data-color-bar-band="K"><rect x="2" y="2" width="20" height="31.34" fill="#000000"/><text x="12" y="29.82" fill="#ffffff" font-size="16" text-anchor="middle" data-color-bar-letter="true">k</text></g><g data-color-bar-rank="1" data-color-bar-band="B"><rect x="2" y="33.34" width="20" height="47.768" fill="#2f3fbf"/><text x="12" y="77.588" fill="#ffffff" font-size="16" text-anchor="middle" data-color-bar-letter="true">b</text></g><g data-color-bar-rank="2" data-color-bar-band="W"><rect x="2" y="81.108" width="20" height="116.62" fill="#ffffff"/><text x="12" y="194.208" fill="#000000" font-size="16" text-anchor="middle" data-color-bar-letter="true">w</text></g><g data-color-bar-rank="3" data-color-bar-band="G"><rect x="2" y="197.728" width="20" height="74.272" fill="#e7be00"/><text x="12" y="268.48" fill="#000000" font-size="16" text-anchor="middle" data-color-bar-letter="true">g</text></g><circle cx="6.6" cy="61.062" r="3.4" fill="#ffffff" stroke="#000000" stroke-width="0.75" data-bar-marker="left"/><circle cx="17.4" cy="179.188" r="3.4" fill="#ffffff" stroke="#000000" stroke-width="0.75" data-bar-marker="right"/></g><g data-channel="label-top"><text x="28" y="17" fill="#666666" font-size="12" dominant-baseline="central"><tspan fill="#a00000" font-weight="bold">fingerprint of </tspan>SSH ecdsa-nistp256: AAAAE2VjZHNhLXNoYTItbmlzdHAyNTYAAAAIbmlzdHAyNTYAAABB...</text></g><line x1="1" y1="1.5" x2="274" y2="1.5" stroke="#808080" stroke-width="1" shape-rendering="crispEdges"/><line x1="273.5" y1="1" x2="273.5" y2="273" stroke="#808080" stroke-width="1" shape-rendering="crispEdges"/><line x1="1" y1="272.5" x2="274" y2="272.5" stroke="#808080" stroke-width="1" shape-rendering="crispEdges"/><line x1="1.5" y1="1" x2="1.5" y2="273" stroke="#808080" stroke-width="1" shape-rendering="crispEdges"/><line x1="22.5" y1="1" x2="22.5" y2="273" stroke="#808080" stroke-width="1" shape-rendering="crispEdges"/></svg>