<svg width="273.0" height="272.0" viewBox="0 0 273.0 272.0" xmlns="http://www.w3.org/2000/svg" data-entviz-version="v9" data-entviz-lib="0.9.1" data-input-bytes="160" data-cols="4" data-rows="6" data-truncated="true"><defs><clipPath id="grid-clip-8b678698b08217c4-4x6"><rect x="27.0" y="26.0" width="240.0" height="240.0"/></clipPath></defs><rect x="0" y="0" width="273.0" height="272.0" fill="#ffffff"/><g data-channel="grid"><rect x="27.0" y="26.0" width="240.0" height="240.0" fill="#ff3f2f"/><g><rect x="33.0" y="26.0" width="6.0" height="10.0" fill="#e7be00"/><rect x="39.0" y="26.0" width="6.0" height="10.0" fill="#e7be00"/><rect x="69.0" y="26.0" width="6.0" height="10.0" fill="#e7be00"/><rect x="75.0" y="26.0" width="6.0" height="10.0" fill="#e7be00"/><rect x="81.0" y="26.0" width="6.0" height="10.0" fill="#e7be00"/><rect x="81.0" y="36.0" width="6.0" height="10.0" fill="#e7be00"/><rect x="75.0" y="56.0" width="6.0" height="10.0" fill="#e7be00"/><rect x="69.0" y="56.0" width="6.0" height="10.0" fill="#e7be00"/><rect x="57.0" y="56.0" width="6.0" height="10.0" fill="#e7be00"/><rect x="51.0" y="56.0" width="6.0" height="10.0" fill="#e7be00"/><rect x="39.0" y="56.0" width="6.0" height="10.0" fill="#e7be00"/><rect x="27.0" y="36.0" width="6.0" height="10.0" fill="#e7be00"/><rect x="93.0" y="26.0" width="6.0" height="10.0" fill="#000000"/><rect x="129.0" y="26.0" width="6.0" height="10.0" fill="#000000"/><rect x="141.0" y="56.0" width="6.0" height="10.0" fill="#000000"/><rect x="135.0" y="56.0" width="6.0" height="10.0" fill="#000000"/><rect x="123.0" y="56.0" width="6.0" height="10.0" fill="#000000"/><rect x="99.0" y="56.0" width="6.0" height="10.0" fill="#000000"/><rect x="93.0" y="56.0" width="6.0" height="10.0" fill="#000000"/><rect x="87.0" y="36.0" width="6.0" height="10.0" fill="#000000"/><rect x="153.0" y="26.0" width="6.0" height="10.0" fill="#ffffff"/><rect x="159.0" y="26.0" width="6.0" height="10.0" fill="#ffffff"/><rect x="165.0" y="26.0" width="6.0" height="10.0" fill="#ffffff"/><rect x="201.0" y="36.0" width="6.0" height="10.0" fill="#ffffff"/><rect x="189.0" y="56.0" width="6.0" height="10.0" fill="#ffffff"/><rect x="183.0" y="56.0" width="6.0" height="10.0" fill="#ffffff"/><rect x="177.0" y="56.0" width="6.0" height="10.0" fill="#ffffff"/><rect x="171.0" y="56.0" width="6.0" height="10.0" fill="#ffffff"/><rect x="165.0" y="56.0" width="6.0" height="10.0" fill="#ffffff"/><rect x="153.0" y="56.0" width="6.0" height="10.0" fill="#ffffff"/><rect x="213.0" y="26.0" width="6.0" height="10.0" fill="#2f3fbf"/><rect x="219.0" y="26.0" width="6.0" height="10.0" fill="#2f3fbf"/><rect x="231.0" y="26.0" width="6.0" height="10.0" fill="#2f3fbf"/><rect x="237.0" y="26.0" width="6.0" height="10.0" fill="#2f3fbf"/><rect x="255.0" y="26.0" width="6.0" height="10.0" fill="#2f3fbf"/><rect x="261.0" y="26.0" width="6.0" height="10.0" fill="#2f3fbf"/><rect x="261.0" y="36.0" width="6.0" height="10.0" fill="#2f3fbf"/><rect x="261.0" y="46.0" width="6.0" height="10.0" fill="#2f3fbf"/><rect x="261.0" y="56.0" width="6.0" height="10.0" fill="#2f3fbf"/><rect x="225.0" y="56.0" width="6.0" height="10.0" fill="#2f3fbf"/><rect x="219.0" y="56.0" width="6.0" height="10.0" fill="#2f3fbf"/><rect x="213.0" y="56.0" width="6.0" height="10.0" fill="#2f3fbf"/><rect x="207.0" y="56.0" width="6.0" height="10.0" fill="#2f3fbf"/><rect x="27.0" y="66.0" width="6.0" height="10.0" fill="#2f3fbf"/><rect x="33.0" y="66.0" width="6.0" height="10.0" fill="#2f3fbf"/><rect x="45.0" y="66.0" width="6.0" height="10.0" fill="#2f3fbf"/><rect x="75.0" y="66.0" width="6.0" height="10.0" fill="#2f3fbf"/><rect x="81.0" y="66.0" width="6.0" height="10.0" fill="#2f3fbf"/><rect x="81.0" y="76.0" width="6.0" height="10.0" fill="#2f3fbf"/><rect x="81.0" y="96.0" width="6.0" height="10.0" fill="#2f3fbf"/><rect x="39.0" y="96.0" width="6.0" height="10.0" fill="#2f3fbf"/><rect x="27.0" y="96.0" width="6.0" height="10.0" fill="#2f3fbf"/><rect x="27.0" y="76.0" width="6.0" height="10.0" fill="#2f3fbf"/><rect x="87.0" y="66.0" width="6.0" height="10.0" fill="#ffffff"/><rect x="99.0" y="66.0" width="6.0" height="10.0" fill="#ffffff"/><rect x="135.0" y="66.0" width="6.0" height="10.0" fill="#ffffff"/><rect x="141.0" y="76.0" width="6.0" height="10.0" fill="#ffffff"/><rect x="123.0" y="96.0" width="6.0" height="10.0" fill="#ffffff"/><rect x="117.0" y="96.0" width="6.0" height="10.0" fill="#ffffff"/><rect x="93.0" y="96.0" width="6.0" height="10.0" fill="#ffffff"/><rect x="87.0" y="86.0" width="6.0" height="10.0" fill="#ffffff"/><rect x="159.0" y="66.0" width="6.0" height="10.0" fill="#000000"/><rect x="183.0" y="66.0" width="6.0" height="10.0" fill="#000000"/><rect x="195.0" y="66.0" width="6.0" height="10.0" fill="#000000"/><rect x="201.0" y="66.0" width="6.0" height="10.0" fill="#000000"/><rect x="201.0" y="96.0" width="6.0" height="10.0" fill="#000000"/><rect x="159.0" y="96.0" width="6.0" height="10.0" fill="#000000"/><rect x="147.0" y="86.0" width="6.0" height="10.0" fill="#000000"/><rect x="219.0" y="66.0" width="6.0" height="10.0" fill="#ffffff"/><rect x="231.0" y="66.0" width="6.0" height="10.0" fill="#ffffff"/><rect x="237.0" y="66.0" width="6.0" height="10.0" fill="#ffffff"/><rect x="243.0" y="66.0" width="6.0" height="10.0" fill="#ffffff"/><rect x="255.0" y="66.0" width="6.0" height="10.0" fill="#ffffff"/><rect x="261.0" y="66.0" width="6.0" height="10.0" fill="#ffffff"/><rect x="261.0" y="76.0" width="6.0" height="10.0" fill="#ffffff"/><rect x="261.0" y="96.0" width="6.0" height="10.0" fill="#ffffff"/><rect x="255.0" y="96.0" width="6.0" height="10.0" fill="#ffffff"/><rect x="243.0" y="96.0" width="6.0" height="10.0" fill="#ffffff"/><rect x="231.0" y="96.0" width="6.0" height="10.0" fill="#ffffff"/><rect x="225.0" y="96.0" width="6.0" height="10.0" fill="#ffffff"/><rect x="207.0" y="96.0" width="6.0" height="10.0" fill="#ffffff"/><rect x="207.0" y="86.0" width="6.0" height="10.0" fill="#ffffff"/><rect x="207.0" y="76.0" width="6.0" height="10.0" fill="#ffffff"/><rect x="27.0" y="106.0" width="6.0" height="10.0" fill="#e7be00"/><rect x="51.0" y="106.0" width="6.0" height="10.0" fill="#e7be00"/><rect x="57.0" y="106.0" width="6.0" height="10.0" fill="#e7be00"/><rect x="69.0" y="106.0" width="6.0" height="10.0" fill="#e7be00"/><rect x="75.0" y="106.0" width="6.0" height="10.0" fill="#e7be00"/><rect x="81.0" y="116.0" width="6.0" height="10.0" fill="#e7be00"/><rect x="81.0" y="126.0" width="6.0" height="10.0" fill="#e7be00"/><rect x="81.0" y="136.0" width="6.0" height="10.0" fill="#e7be00"/><rect x="69.0" y="136.0" width="6.0" height="10.0" fill="#e7be00"/><rect x="57.0" y="136.0" width="6.0" height="10.0" fill="#e7be00"/><rect x="45.0" y="136.0" width="6.0" height="10.0" fill="#e7be00"/><rect x="39.0" y="136.0" width="6.0" height="10.0" fill="#e7be00"/><rect x="27.0" y="126.0" width="6.0" height="10.0" fill="#e7be00"/><rect x="87.0" y="106.0" width="6.0" height="10.0" fill="#e7be00"/><rect x="93.0" y="106.0" width="6.0" height="10.0" fill="#e7be00"/><rect x="99.0" y="106.0" width="6.0" height="10.0" fill="#e7be00"/><rect x="105.0" y="106.0" width="6.0" height="10.0" fill="#e7be00"/><rect x="117.0" y="106.0" width="6.0" height="10.0" fill="#e7be00"/><rect x="123.0" y="106.0" width="6.0" height="10.0" fill="#e7be00"/><rect x="129.0" y="106.0" width="6.0" height="10.0" fill="#e7be00"/><rect x="135.0" y="106.0" width="6.0" height="10.0" fill="#e7be00"/><rect x="141.0" y="116.0" width="6.0" height="10.0" fill="#e7be00"/><rect x="141.0" y="126.0" width="6.0" height="10.0" fill="#e7be00"/><rect x="135.0" y="136.0" width="6.0" height="10.0" fill="#e7be00"/><rect x="129.0" y="136.0" width="6.0" height="10.0" fill="#e7be00"/><rect x="123.0" y="136.0" width="6.0" height="10.0" fill="#e7be00"/><rect x="117.0" y="136.0" width="6.0" height="10.0" fill="#e7be00"/><rect x="105.0" y="136.0" width="6.0" height="10.0" fill="#e7be00"/><rect x="87.0" y="136.0" width="6.0" height="10.0" fill="#e7be00"/><rect x="87.0" y="126.0" width="6.0" height="10.0" fill="#e7be00"/><rect x="87.0" y="116.0" width="6.0" height="10.0" fill="#e7be00"/><rect x="159.0" y="106.0" width="6.0" height="10.0" fill="#e7be00"/><rect x="165.0" y="106.0" width="6.0" height="10.0" fill="#e7be00"/><rect x="171.0" y="106.0" width="6.0" height="10.0" fill="#e7be00"/><rect x="177.0" y="106.0" width="6.0" height="10.0" fill="#e7be00"/><rect x="201.0" y="106.0" width="6.0" height="10.0" fill="#e7be00"/><rect x="195.0" y="136.0" width="6.0" height="10.0" fill="#e7be00"/><rect x="183.0" y="136.0" width="6.0" height="10.0" fill="#e7be00"/><rect x="177.0" y="136.0" width="6.0" height="10.0" fill="#e7be00"/><rect x="171.0" y="136.0" width="6.0" height="10.0" fill="#e7be00"/><rect x="147.0" y="136.0" width="6.0" height="10.0" fill="#e7be00"/><rect x="207.0" y="106.0" width="6.0" height="10.0" fill="#e7be00"/><rect x="225.0" y="106.0" width="6.0" height="10.0" fill="#e7be00"/><rect x="237.0" y="106.0" width="6.0" height="10.0" fill="#e7be00"/><rect x="255.0" y="106.0" width="6.0" height="10.0" fill="#e7be00"/><rect x="261.0" y="106.0" width="6.0" height="10.0" fill="#e7be00"/><rect x="261.0" y="116.0" width="6.0" height="10.0" fill="#e7be00"/><rect x="261.0" y="136.0" width="6.0" height="10.0" fill="#e7be00"/><rect x="249.0" y="136.0" width="6.0" height="10.0" fill="#e7be00"/><rect x="243.0" y="136.0" width="6.0" height="10.0" fill="#e7be00"/><rect x="225.0" y="136.0" width="6.0" height="10.0" fill="#e7be00"/><rect x="219.0" y="136.0" width="6.0" height="10.0" fill="#e7be00"/><rect x="213.0" y="136.0" width="6.0" height="10.0" fill="#e7be00"/><rect x="207.0" y="126.0" width="6.0" height="10.0" fill="#e7be00"/><rect x="27.0" y="146.0" width="6.0" height="10.0" fill="#e7be00"/><rect x="57.0" y="146.0" width="6.0" height="10.0" fill="#e7be00"/><rect x="63.0" y="146.0" width="6.0" height="10.0" fill="#e7be00"/><rect x="75.0" y="146.0" width="6.0" height="10.0" fill="#e7be00"/><rect x="81.0" y="166.0" width="6.0" height="10.0" fill="#e7be00"/><rect x="81.0" y="176.0" width="6.0" height="10.0" fill="#e7be00"/><rect x="57.0" y="176.0" width="6.0" height="10.0" fill="#e7be00"/><rect x="45.0" y="176.0" width="6.0" height="10.0" fill="#e7be00"/><rect x="39.0" y="176.0" width="6.0" height="10.0" fill="#e7be00"/><rect x="33.0" y="176.0" width="6.0" height="10.0" fill="#e7be00"/><rect x="27.0" y="156.0" width="6.0" height="10.0" fill="#e7be00"/><rect x="87.0" y="146.0" width="6.0" height="10.0" fill="#2f3fbf"/><rect x="123.0" y="146.0" width="6.0" height="10.0" fill="#2f3fbf"/><rect x="129.0" y="146.0" width="6.0" height="10.0" fill="#2f3fbf"/><rect x="141.0" y="156.0" width="6.0" height="10.0" fill="#2f3fbf"/><rect x="135.0" y="176.0" width="6.0" height="10.0" fill="#2f3fbf"/><rect x="99.0" y="176.0" width="6.0" height="10.0" fill="#2f3fbf"/><rect x="93.0" y="176.0" width="6.0" height="10.0" fill="#2f3fbf"/><rect x="87.0" y="166.0" width="6.0" height="10.0" fill="#2f3fbf"/><rect x="87.0" y="156.0" width="6.0" height="10.0" fill="#2f3fbf"/><rect x="147.0" y="146.0" width="6.0" height="10.0" fill="#2f3fbf"/><rect x="153.0" y="146.0" width="6.0" height="10.0" fill="#2f3fbf"/><rect x="177.0" y="146.0" width="6.0" height="10.0" fill="#2f3fbf"/><rect x="189.0" y="146.0" width="6.0" height="10.0" fill="#2f3fbf"/><rect x="201.0" y="166.0" width="6.0" height="10.0" fill="#2f3fbf"/><rect x="201.0" y="176.0" width="6.0" height="10.0" fill="#2f3fbf"/><rect x="189.0" y="176.0" width="6.0" height="10.0" fill="#2f3fbf"/><rect x="183.0" y="176.0" width="6.0" height="10.0" fill="#2f3fbf"/><rect x="165.0" y="176.0" width="6.0" height="10.0" fill="#2f3fbf"/><rect x="147.0" y="176.0" width="6.0" height="10.0" fill="#2f3fbf"/><rect x="147.0" y="156.0" width="6.0" height="10.0" fill="#2f3fbf"/><rect x="207.0" y="146.0" width="6.0" height="10.0" fill="#2f3fbf"/><rect x="219.0" y="146.0" width="6.0" height="10.0" fill="#2f3fbf"/><rect x="237.0" y="146.0" width="6.0" height="10.0" fill="#2f3fbf"/><rect x="261.0" y="146.0" width="6.0" height="10.0" fill="#2f3fbf"/><rect x="261.0" y="166.0" width="6.0" height="10.0" fill="#2f3fbf"/><rect x="261.0" y="176.0" width="6.0" height="10.0" fill="#2f3fbf"/><rect x="255.0" y="176.0" width="6.0" height="10.0" fill="#2f3fbf"/><rect x="231.0" y="176.0" width="6.0" height="10.0" fill="#2f3fbf"/><rect x="225.0" y="176.0" width="6.0" height="10.0" fill="#2f3fbf"/><rect x="219.0" y="176.0" width="6.0" height="10.0" fill="#2f3fbf"/><rect x="207.0" y="176.0" width="6.0" height="10.0" fill="#2f3fbf"/><rect x="207.0" y="166.0" width="6.0" height="10.0" fill="#2f3fbf"/><rect x="93.0" y="186.0" width="6.0" height="10.0" fill="#ffffff"/><rect x="111.0" y="186.0" width="6.0" height="10.0" fill="#ffffff"/><rect x="117.0" y="186.0" width="6.0" height="10.0" fill="#ffffff"/><rect x="135.0" y="186.0" width="6.0" height="10.0" fill="#ffffff"/><rect x="141.0" y="186.0" width="6.0" height="10.0" fill="#ffffff"/><rect x="141.0" y="196.0" width="6.0" height="10.0" fill="#ffffff"/><rect x="141.0" y="206.0" width="6.0" height="10.0" fill="#ffffff"/><rect x="123.0" y="216.0" width="6.0" height="10.0" fill="#ffffff"/><rect x="111.0" y="216.0" width="6.0" height="10.0" fill="#ffffff"/><rect x="93.0" y="216.0" width="6.0" height="10.0" fill="#ffffff"/><rect x="87.0" y="206.0" width="6.0" height="10.0" fill="#ffffff"/><rect x="87.0" y="196.0" width="6.0" height="10.0" fill="#ffffff"/><rect x="207.0" y="186.0" width="6.0" height="10.0" fill="#2f3fbf"/><rect x="213.0" y="186.0" width="6.0" height="10.0" fill="#2f3fbf"/><rect x="219.0" y="186.0" width="6.0" height="10.0" fill="#2f3fbf"/><rect x="225.0" y="186.0" width="6.0" height="10.0" fill="#2f3fbf"/><rect x="243.0" y="186.0" width="6.0" height="10.0" fill="#2f3fbf"/><rect x="261.0" y="206.0" width="6.0" height="10.0" fill="#2f3fbf"/><rect x="261.0" y="216.0" width="6.0" height="10.0" fill="#2f3fbf"/><rect x="255.0" y="216.0" width="6.0" height="10.0" fill="#2f3fbf"/><rect x="225.0" y="216.0" width="6.0" height="10.0" fill="#2f3fbf"/><rect x="207.0" y="206.0" width="6.0" height="10.0" fill="#2f3fbf"/><rect x="207.0" y="196.0" width="6.0" height="10.0" fill="#2f3fbf"/><rect x="27.0" y="226.0" width="6.0" height="10.0" fill="#e7be00"/><rect x="33.0" y="226.0" width="6.0" height="10.0" fill="#e7be00"/><rect x="39.0" y="226.0" width="6.0" height="10.0" fill="#e7be00"/><rect x="51.0" y="226.0" width="6.0" height="10.0" fill="#e7be00"/><rect x="57.0" y="226.0" width="6.0" height="10.0" fill="#e7be00"/><rect x="69.0" y="226.0" width="6.0" height="10.0" fill="#e7be00"/><rect x="63.0" y="256.0" width="6.0" height="10.0" fill="#e7be00"/><rect x="57.0" y="256.0" width="6.0" height="10.0" fill="#e7be00"/><rect x="51.0" y="256.0" width="6.0" height="10.0" fill="#e7be00"/><rect x="45.0" y="256.0" width="6.0" height="10.0" fill="#e7be00"/><rect x="27.0" y="246.0" width="6.0" height="10.0" fill="#e7be00"/><rect x="153.0" y="226.0" width="6.0" height="10.0" fill="#2f3fbf"/><rect x="165.0" y="226.0" width="6.0" height="10.0" fill="#2f3fbf"/><rect x="171.0" y="226.0" width="6.0" height="10.0" fill="#2f3fbf"/><rect x="183.0" y="226.0" width="6.0" height="10.0" fill="#2f3fbf"/><rect x="189.0" y="226.0" width="6.0" height="10.0" fill="#2f3fbf"/><rect x="195.0" y="226.0" width="6.0" height="10.0" fill="#2f3fbf"/><rect x="201.0" y="256.0" width="6.0" height="10.0" fill="#2f3fbf"/><rect x="177.0" y="256.0" width="6.0" height="10.0" fill="#2f3fbf"/><rect x="171.0" y="256.0" width="6.0" height="10.0" fill="#2f3fbf"/><rect x="159.0" y="256.0" width="6.0" height="10.0" fill="#2f3fbf"/><rect x="147.0" y="246.0" width="6.0" height="10.0" fill="#2f3fbf"/></g><g clip-path="url(#grid-clip-8b678698b08217c4-4x6)" data-channel="ellipse" data-ellipse-anchor-x="207.0" data-ellipse-anchor-y="66.0" data-ellipse-rx="110.85786214788737" data-ellipse-ry="65.65368534971971" data-ellipse-rotation-deg="108.0"><ellipse cx="207.0" cy="66.0" rx="110.85786214788737" ry="65.65368534971971" transform="rotate(108.0 207.0 66.0)" fill="#000000" stroke="#000000" fill-opacity="0.25" stroke-opacity="0.35" stroke-width="2.0"/></g><g><g data-channel="cell" data-cell-index="0" data-cell-row="0" data-cell-col="0"><rect x="33.0" y="36.0" width="48.0" height="20.0" fill="#81d404"/><text x="57.0" y="46.0" fill="#000000" style="font-family: &quot;JetBrains Mono&quot;, &quot;Menlo&quot;, &quot;Consolas&quot;, &quot;DejaVu Sans Mono&quot;, &quot;Liberation Mono&quot;, &quot;Roboto Mono&quot;, &quot;Noto Sans Mono&quot;, monospace; font-size: 16.0px;" text-anchor="middle" dominant-baseline="central">BNSB</text></g><g data-channel="cell" data-cell-index="1" data-cell-row="0" data-cell-col="1" data-cell-quartile="2"><rect x="93.0" y="36.0" width="48.0" height="20.0" fill="#1d4303"/><text x="117.0" y="46.0" fill="#ffffff" style="font-family: &quot;JetBrains Mono&quot;, &quot;Menlo&quot;, &quot;Consolas&quot;, &quot;DejaVu Sans Mono&quot;, &quot;Liberation Mono&quot;, &quot;Roboto Mono&quot;, &quot;Noto Sans Mono&quot;, monospace; font-size: 16.0px;" text-anchor="middle" dominant-baseline="central">A0Md</text><polygon points="141.0,36.0 131.0,36.0 141.0,46.0" fill="#ffffff"/></g><g data-channel="cell" data-cell-index="2" data-cell-row="0" data-cell-col="2" data-cell-quartile="3"><rect x="153.0" y="36.0" width="48.0" height="20.0" fill="#c2cff4"/><text x="177.0" y="46.0" fill="#000000" style="font-family: &quot;JetBrains Mono&quot;, &quot;Menlo&quot;, &quot;Consolas&quot;, &quot;DejaVu Sans Mono&quot;, &quot;Liberation Mono&quot;, &quot;Roboto Mono&quot;, &quot;Noto Sans Mono&quot;, monospace; font-size: 16.0px;" text-anchor="middle" dominant-baseline="central">9M/C</text><polygon points="201.0,56.0 201.0,46.0 191.0,56.0" fill="#000000"/></g><g data-channel="cell" data-cell-index="3" data-cell-row="0" data-cell-col="3"><rect x="213.0" y="36.0" width="48.0" height="20.0" fill="#099dc2"/><text x="237.0" y="46.0" fill="#000000" style="font-family: &quot;JetBrains Mono&quot;, &quot;Menlo&quot;, &quot;Consolas&quot;, &quot;DejaVu Sans Mono&quot;, &quot;Liberation Mono&quot;, &quot;Roboto Mono&quot;, &quot;Noto Sans Mono&quot;, monospace; font-size: 16.0px;" text-anchor="middle" dominant-baseline="central">wp0J</text></g><g data-channel="cell" data-cell-index="4" data-cell-row="1" data-cell-col="0"><rect x="33.0" y="76.0" width="48.0" height="20.0" fill="#6f64df"/><text x="57.0" y="86.0" fill="#ffffff" style="font-family: &quot;JetBrains Mono&quot;, &quot;Menlo&quot;, &quot;Consolas&quot;, &quot;DejaVu Sans Mono&quot;, &quot;Liberation Mono&quot;, &quot;Roboto Mono&quot;, &quot;Noto Sans Mono&quot;, monospace; font-size: 16.0px;" text-anchor="middle" dominant-baseline="central">32Rv</text></g><g data-channel="cell" data-cell-index="5" data-cell-row="1" data-cell-col="1"><rect x="93.0" y="76.0" width="48.0" height="20.0" fill="#a2f693"/><text x="117.0" y="86.0" fill="#000000" style="font-family: &quot;JetBrains Mono&quot;, &quot;Menlo&quot;, &quot;Consolas&quot;, &quot;DejaVu Sans Mono&quot;, &quot;Liberation Mono&quot;, &quot;Roboto Mono&quot;, &quot;Noto Sans Mono&quot;, monospace; font-size: 16.0px;" text-anchor="middle" dominant-baseline="central">k/ai</text></g><g data-channel="cell" data-cell-index="6" data-cell-row="1" data-cell-col="2"><rect x="153.0" y="76.0" width="48.0" height="20.0" fill="#3b5c12"/><text x="177.0" y="86.0" fill="#ffffff" style="font-family: &quot;JetBrains Mono&quot;, &quot;Menlo&quot;, &quot;Consolas&quot;, &quot;DejaVu Sans Mono&quot;, &quot;Liberation Mono&quot;, &quot;Roboto Mono&quot;, &quot;Noto Sans Mono&quot;, monospace; font-size: 16.0px;" text-anchor="middle" dominant-baseline="central">Elw7</text></g><g data-channel="cell" data-cell-index="7" data-cell-row="1" data-cell-col="3" data-cell-quartile="1"><rect x="213.0" y="76.0" width="48.0" height="20.0" fill="#a5deee"/><text x="237.0" y="86.0" fill="#000000" style="font-family: &quot;JetBrains Mono&quot;, &quot;Menlo&quot;, &quot;Consolas&quot;, &quot;DejaVu Sans Mono&quot;, &quot;Liberation Mono&quot;, &quot;Roboto Mono&quot;, &quot;Noto Sans Mono&quot;, monospace; font-size: 16.0px;" text-anchor="middle" dominant-baseline="central">7t6l</text><polygon points="213.0,76.0 223.0,76.0 213.0,86.0" fill="#000000"/></g><g data-channel="cell" data-cell-index="8" data-cell-row="2" data-cell-col="0" data-cell-fingerprint="true"><rect x="33.0" y="116.0" width="48.0" height="20.0" fill="#ff3f2f"/><rect x="33.5" y="116.5" width="47.0" height="19.0" fill="none" stroke="#ffffff" stroke-width="1"/><text x="57.0" y="126.0" fill="#000000" style="font-family: &quot;JetBrains Mono&quot;, &quot;Menlo&quot;, &quot;Consolas&quot;, &quot;DejaVu Sans Mono&quot;, &quot;Liberation Mono&quot;, &quot;Roboto Mono&quot;, &quot;Noto Sans Mono&quot;, monospace; font-size: 13.333333333333334px;" text-anchor="middle" dominant-baseline="central">e944p</text></g><g data-channel="cell" data-cell-index="9" data-cell-row="2" data-cell-col="1" data-cell-fingerprint="true"><rect x="93.0" y="116.0" width="48.0" height="20.0" fill="#ff3f2f"/><rect x="93.5" y="116.5" width="47.0" height="19.0" fill="none" stroke="#ffffff" stroke-width="1"/><text x="117.0" y="126.0" fill="#000000" style="font-family: &quot;JetBrains Mono&quot;, &quot;Menlo&quot;, &quot;Consolas&quot;, &quot;DejaVu Sans Mono&quot;, &quot;Liberation Mono&quot;, &quot;Roboto Mono&quot;, &quot;Noto Sans Mono&quot;, monospace; font-size: 13.333333333333334px;" text-anchor="middle" dominant-baseline="central">029m2</text></g><g data-channel="cell" data-cell-index="10" data-cell-row="2" data-cell-col="2" data-cell-fingerprint="true"><rect x="153.0" y="116.0" width="48.0" height="20.0" fill="#ff3f2f"/><rect x="153.5" y="116.5" width="47.0" height="19.0" fill="none" stroke="#ffffff" stroke-width="1"/><text x="177.0" y="126.0" fill="#000000" style="font-family: &quot;JetBrains Mono&quot;, &quot;Menlo&quot;, &quot;Consolas&quot;, &quot;DejaVu Sans Mono&quot;, &quot;Liberation Mono&quot;, &quot;Roboto Mono&quot;, &quot;Noto Sans Mono&quot;, monospace; font-size: 13.333333333333334px;" text-anchor="middle" dominant-baseline="central">b197f</text></g><g data-channel="cell" data-cell-index="11" data-cell-row="2" data-cell-col="3" data-cell-fingerprint="true"><rect x="213.0" y="116.0" width="48.0" height="20.0" fill="#ff3f2f"/><rect x="213.5" y="116.5" width="47.0" height="19.0" fill="none" stroke="#ffffff" stroke-width="1"/><text x="237.0" y="126.0" fill="#000000" style="font-family: &quot;JetBrains Mono&quot;, &quot;Menlo&quot;, &quot;Consolas&quot;, &quot;DejaVu Sans Mono&quot;, &quot;Liberation Mono&quot;, &quot;Roboto Mono&quot;, &quot;Noto Sans Mono&quot;, monospace; font-size: 13.333333333333334px;" text-anchor="middle" dominant-baseline="central">ceppg</text></g><g data-channel="cell" data-cell-index="12" data-cell-row="3" data-cell-col="0"><rect x="33.0" y="156.0" width="48.0" height="20.0" fill="#fafa22"/><text x="57.0" y="166.0" fill="#000000" style="font-family: &quot;JetBrains Mono&quot;, &quot;Menlo&quot;, &quot;Consolas&quot;, &quot;DejaVu Sans Mono&quot;, &quot;Liberation Mono&quot;, &quot;Roboto Mono&quot;, &quot;Noto Sans Mono&quot;, monospace; font-size: 16.0px;" text-anchor="middle" dominant-baseline="central">Ivr6</text></g><g data-channel="cell" data-cell-index="13" data-cell-row="3" data-cell-col="1"><rect x="93.0" y="156.0" width="48.0" height="20.0" fill="#514772"/><text x="117.0" y="166.0" fill="#ffffff" style="font-family: &quot;JetBrains Mono&quot;, &quot;Menlo&quot;, &quot;Consolas&quot;, &quot;DejaVu Sans Mono&quot;, &quot;Liberation Mono&quot;, &quot;Roboto Mono&quot;, &quot;Noto Sans Mono&quot;, monospace; font-size: 16.0px;" text-anchor="middle" dominant-baseline="central">ckdR</text></g><g data-channel="cell" data-cell-index="14" data-cell-row="3" data-cell-col="2"><rect x="153.0" y="156.0" width="48.0" height="20.0" fill="#4dce9a"/><text x="177.0" y="166.0" fill="#000000" style="font-family: &quot;JetBrains Mono&quot;, &quot;Menlo&quot;, &quot;Consolas&quot;, &quot;DejaVu Sans Mono&quot;, &quot;Liberation Mono&quot;, &quot;Roboto Mono&quot;, &quot;Noto Sans Mono&quot;, monospace; font-size: 16.0px;" text-anchor="middle" dominant-baseline="central">ms5N</text></g><g data-channel="cell" data-cell-index="15" data-cell-row="3" data-cell-col="3" data-cell-quartile="4"><rect x="213.0" y="156.0" width="48.0" height="20.0" fill="#7f1af0"/><text x="237.0" y="166.0" fill="#ffffff" style="font-family: &quot;JetBrains Mono&quot;, &quot;Menlo&quot;, &quot;Consolas&quot;, &quot;DejaVu Sans Mono&quot;, &quot;Liberation Mono&quot;, &quot;Roboto Mono&quot;, &quot;Noto Sans Mono&quot;, monospace; font-size: 16.0px;" text-anchor="middle" dominant-baseline="central">8Bp/</text><polygon points="213.0,176.0 213.0,166.0 223.0,176.0" fill="#ffffff"/></g><g data-channel="cell" data-cell-index="16" data-cell-row="4" data-cell-col="0" data-cell-blank="true" data-cell-blank-map="true"><rect x="33.0" y="196.0" width="48.0" height="20.0" rx="10.0" ry="10.0" fill="#ffffff" stroke="#000000" stroke-width="1"/><circle cx="63.0" cy="197.66666666666666" r="3.5" fill="#1d4ed8" data-blank-map-min="0,2"/><path d="M 70.8,201.0 H 79.2 M 75.0,196.8 V 205.2" fill="none" stroke="#d62828" stroke-width="1.9250000000000003" stroke-linecap="butt" data-blank-map-max="1,3"/></g><g data-channel="cell" data-cell-index="17" data-cell-row="4" data-cell-col="1"><rect x="93.0" y="196.0" width="48.0" height="20.0" fill="#a0fb92"/><text x="117.0" y="206.0" fill="#000000" style="font-family: &quot;JetBrains Mono&quot;, &quot;Menlo&quot;, &quot;Consolas&quot;, &quot;DejaVu Sans Mono&quot;, &quot;Liberation Mono&quot;, &quot;Roboto Mono&quot;, &quot;Noto Sans Mono&quot;, monospace; font-size: 16.0px;" text-anchor="middle" dominant-baseline="central">kvug</text></g><g data-channel="cell" data-cell-index="18" data-cell-row="4" data-cell-col="2" data-cell-blank="true"><rect x="153.0" y="196.0" width="48.0" height="20.0" rx="10.0" ry="10.0" fill="none" stroke="#000000" stroke-width="1"/></g><g data-channel="cell" data-cell-index="19" data-cell-row="4" data-cell-col="3"><rect x="213.0" y="196.0" width="48.0" height="20.0" fill="#2020fe"/><text x="237.0" y="206.0" fill="#ffffff" style="font-family: &quot;JetBrains Mono&quot;, &quot;Menlo&quot;, &quot;Consolas&quot;, &quot;DejaVu Sans Mono&quot;, &quot;Liberation Mono&quot;, &quot;Roboto Mono&quot;, &quot;Noto Sans Mono&quot;, monospace; font-size: 16.0px;" text-anchor="middle" dominant-baseline="central">/iAg</text></g><g data-channel="cell" data-cell-index="20" data-cell-row="5" data-cell-col="0"><rect x="33.0" y="236.0" width="48.0" height="20.0" fill="#8aa35f"/><text x="57.0" y="246.0" fill="#000000" style="font-family: &quot;JetBrains Mono&quot;, &quot;Menlo&quot;, &quot;Consolas&quot;, &quot;DejaVu Sans Mono&quot;, &quot;Liberation Mono&quot;, &quot;Roboto Mono&quot;, &quot;Noto Sans Mono&quot;, monospace; font-size: 16.0px;" text-anchor="middle" dominant-baseline="central">X6OK</text></g><g data-channel="cell" data-cell-index="21" data-cell-row="5" data-cell-col="1" data-cell-blank="true"><rect x="93.0" y="236.0" width="48.0" height="20.0" rx="10.0" ry="10.0" fill="none" stroke="#000000" stroke-width="1"/></g><g data-channel="cell" data-cell-index="22" data-cell-row="5" data-cell-col="2"><rect x="153.0" y="236.0" width="48.0" height="20.0" fill="#00d1e7"/><text x="177.0" y="246.0" fill="#000000" style="font-family: &quot;JetBrains Mono&quot;, &quot;Menlo&quot;, &quot;Consolas&quot;, &quot;DejaVu Sans Mono&quot;, &quot;Liberation Mono&quot;, &quot;Roboto Mono&quot;, &quot;Noto Sans Mono&quot;, monospace; font-size: 16.0px;" text-anchor="middle" dominant-baseline="central">59E=</text></g><g data-channel="cell" data-cell-index="23" data-cell-row="5" data-cell-col="3" data-cell-blank="true"><rect x="213.0" y="236.0" width="48.0" height="20.0" rx="10.0" ry="10.0" fill="none" stroke="#000000" stroke-width="1"/></g></g></g><g data-channel="color-bar" data-bar-slots="16" data-bar-marker-square="3" data-bar-marker-triangle="10"><g data-color-bar-rank="0" data-color-bar-band="K"><rect x="1" y="1" width="20.0" height="31.340267904894482" fill="#000000"/><text x="11.0" y="28.820267904894482" fill="#ffffff" style="font-family: &quot;JetBrains Mono&quot;, &quot;Menlo&quot;, &quot;Consolas&quot;, &quot;DejaVu Sans Mono&quot;, &quot;Liberation Mono&quot;, &quot;Roboto Mono&quot;, &quot;Noto Sans Mono&quot;, monospace; font-size: 16.0px;" text-anchor="middle" data-color-bar-letter="true">k</text></g><g data-color-bar-rank="1" data-color-bar-band="B"><rect x="1" y="32.34026790489448" width="20.0" height="47.76751700182058" fill="#2f3fbf"/><text x="11.0" y="76.58778490671507" fill="#ffffff" style="font-family: &quot;JetBrains Mono&quot;, &quot;Menlo&quot;, &quot;Consolas&quot;, &quot;DejaVu Sans Mono&quot;, &quot;Liberation Mono&quot;, &quot;Roboto Mono&quot;, &quot;Noto Sans Mono&quot;, monospace; font-size: 16.0px;" text-anchor="middle" data-color-bar-letter="true">b</text></g><g data-color-bar-rank="2" data-color-bar-band="W"><rect x="1" y="80.10778490671507" width="20.0" height="116.61991455522602" fill="#ffffff"/><text x="11.0" y="193.20769946194108" fill="#000000" style="font-family: &quot;JetBrains Mono&quot;, &quot;Menlo&quot;, &quot;Consolas&quot;, &quot;DejaVu Sans Mono&quot;, &quot;Liberation Mono&quot;, &quot;Roboto Mono&quot;, &quot;Noto Sans Mono&quot;, monospace; font-size: 16.0px;" text-anchor="middle" data-color-bar-letter="true">w</text></g><g data-color-bar-rank="3" data-color-bar-band="G"><rect x="1" y="196.72769946194109" width="20.0" height="74.27230053805891" fill="#e7be00"/><text x="11.0" y="267.48" fill="#000000" style="font-family: &quot;JetBrains Mono&quot;, &quot;Menlo&quot;, &quot;Consolas&quot;, &quot;DejaVu Sans Mono&quot;, &quot;Liberation Mono&quot;, &quot;Roboto Mono&quot;, &quot;Noto Sans Mono&quot;, monospace; font-size: 16.0px;" text-anchor="middle" data-color-bar-letter="true">g</text></g><rect x="2.1999999999999997" y="57.2625" width="5.6000000000000005" height="5.6000000000000005" fill="#ffffff" stroke="#000000" stroke-width="0.75" data-bar-marker="square"/><polygon points="17.0,175.3875 14.2,180.9875 19.8,180.9875" fill="#ffffff" stroke="#000000" stroke-width="0.75" data-bar-marker="triangle"/></g><g data-channel="label-top"><text x="27.0" y="16.0" fill="#666666" style="font-family: &quot;JetBrains Mono&quot;, &quot;Menlo&quot;, &quot;Consolas&quot;, &quot;DejaVu Sans Mono&quot;, &quot;Liberation Mono&quot;, &quot;Roboto Mono&quot;, &quot;Noto Sans Mono&quot;, monospace; font-size: 12.0px;" dominant-baseline="central"><tspan fill="#a00000" font-weight="bold">fingerprint of </tspan>SSH ecdsa-nistp256: AAAAE2VjZHNhLXNoYTItbmlzdHAyNTYAAAAIbmlzdHAyNTYAAABB...</text></g><line x1="0" y1="0.5" x2="273.0" y2="0.5" stroke="#808080" stroke-width="1" shape-rendering="crispEdges"/><line x1="272.5" y1="0" x2="272.5" y2="272.0" stroke="#808080" stroke-width="1" shape-rendering="crispEdges"/><line x1="0" y1="271.5" x2="273.0" y2="271.5" stroke="#808080" stroke-width="1" shape-rendering="crispEdges"/><line x1="0.5" y1="0" x2="0.5" y2="272.0" stroke="#808080" stroke-width="1" shape-rendering="crispEdges"/><line x1="21.5" y1="0" x2="21.5" y2="272.0" stroke="#808080" stroke-width="1" shape-rendering="crispEdges"/></svg>