<svg width="273.0" height="192.0" viewBox="0 0 273.0 192.0" xmlns="http://www.w3.org/2000/svg" data-entviz-version="v6" data-entviz-lib="0.6.0" data-input-bytes="59" data-cols="4" data-rows="4"><defs><clipPath id="grid-clip-683953058c1b52c4-4x4"><rect x="27.0" y="26.0" width="240.0" height="160.0"/></clipPath></defs><rect x="0" y="0" width="273.0" height="192.0" fill="#ffffff"/><g data-channel="grid"><rect x="27.0" y="26.0" width="240.0" height="160.0" fill="#ffffff"/><g><rect x="27.0" y="26.0" width="6.0" height="10.0" fill="#000000"/><rect x="33.0" y="26.0" width="6.0" height="10.0" fill="#000000"/><rect x="51.0" y="26.0" width="6.0" height="10.0" fill="#000000"/><rect x="63.0" y="26.0" width="6.0" height="10.0" fill="#000000"/><rect x="75.0" y="26.0" width="6.0" height="10.0" fill="#000000"/><rect x="81.0" y="46.0" width="6.0" height="10.0" fill="#000000"/><rect x="81.0" y="56.0" width="6.0" height="10.0" fill="#000000"/><rect x="75.0" y="56.0" width="6.0" height="10.0" fill="#000000"/><rect x="39.0" y="56.0" width="6.0" height="10.0" fill="#000000"/><rect x="27.0" y="56.0" width="6.0" height="10.0" fill="#000000"/><rect x="27.0" y="46.0" width="6.0" height="10.0" fill="#000000"/><rect x="87.0" y="26.0" width="6.0" height="10.0" fill="#000000"/><rect x="93.0" y="26.0" width="6.0" height="10.0" fill="#000000"/><rect x="105.0" y="26.0" width="6.0" height="10.0" fill="#000000"/><rect x="111.0" y="26.0" width="6.0" height="10.0" fill="#000000"/><rect x="141.0" y="36.0" width="6.0" height="10.0" fill="#000000"/><rect x="141.0" y="46.0" width="6.0" height="10.0" fill="#000000"/><rect x="123.0" y="56.0" width="6.0" height="10.0" fill="#000000"/><rect x="117.0" y="56.0" width="6.0" height="10.0" fill="#000000"/><rect x="105.0" y="56.0" width="6.0" height="10.0" fill="#000000"/><rect x="159.0" y="26.0" width="6.0" height="10.0" fill="#2f3fbf"/><rect x="177.0" y="26.0" width="6.0" height="10.0" fill="#2f3fbf"/><rect x="189.0" y="26.0" width="6.0" height="10.0" fill="#2f3fbf"/><rect x="201.0" y="36.0" width="6.0" height="10.0" fill="#2f3fbf"/><rect x="189.0" y="56.0" width="6.0" height="10.0" fill="#2f3fbf"/><rect x="183.0" y="56.0" width="6.0" height="10.0" fill="#2f3fbf"/><rect x="171.0" y="56.0" width="6.0" height="10.0" fill="#2f3fbf"/><rect x="153.0" y="56.0" width="6.0" height="10.0" fill="#2f3fbf"/><rect x="147.0" y="46.0" width="6.0" height="10.0" fill="#2f3fbf"/><rect x="219.0" y="26.0" width="6.0" height="10.0" fill="#2f3fbf"/><rect x="249.0" y="26.0" width="6.0" height="10.0" fill="#2f3fbf"/><rect x="255.0" y="26.0" width="6.0" height="10.0" fill="#2f3fbf"/><rect x="261.0" y="26.0" width="6.0" height="10.0" fill="#2f3fbf"/><rect x="261.0" y="46.0" width="6.0" height="10.0" fill="#2f3fbf"/><rect x="261.0" y="56.0" width="6.0" height="10.0" fill="#2f3fbf"/><rect x="255.0" y="56.0" width="6.0" height="10.0" fill="#2f3fbf"/><rect x="249.0" y="56.0" width="6.0" height="10.0" fill="#2f3fbf"/><rect x="237.0" y="56.0" width="6.0" height="10.0" fill="#2f3fbf"/><rect x="225.0" y="56.0" width="6.0" height="10.0" fill="#2f3fbf"/><rect x="213.0" y="56.0" width="6.0" height="10.0" fill="#2f3fbf"/><rect x="207.0" y="36.0" width="6.0" height="10.0" fill="#2f3fbf"/><rect x="27.0" y="66.0" width="6.0" height="10.0" fill="#2f3fbf"/><rect x="33.0" y="66.0" width="6.0" height="10.0" fill="#2f3fbf"/><rect x="39.0" y="66.0" width="6.0" height="10.0" fill="#2f3fbf"/><rect x="51.0" y="66.0" width="6.0" height="10.0" fill="#2f3fbf"/><rect x="63.0" y="66.0" width="6.0" height="10.0" fill="#2f3fbf"/><rect x="81.0" y="66.0" width="6.0" height="10.0" fill="#2f3fbf"/><rect x="81.0" y="76.0" width="6.0" height="10.0" fill="#2f3fbf"/><rect x="81.0" y="86.0" width="6.0" height="10.0" fill="#2f3fbf"/><rect x="81.0" y="96.0" width="6.0" height="10.0" fill="#2f3fbf"/><rect x="63.0" y="96.0" width="6.0" height="10.0" fill="#2f3fbf"/><rect x="57.0" y="96.0" width="6.0" height="10.0" fill="#2f3fbf"/><rect x="39.0" y="96.0" width="6.0" height="10.0" fill="#2f3fbf"/><rect x="93.0" y="66.0" width="6.0" height="10.0" fill="#e7be00"/><rect x="111.0" y="66.0" width="6.0" height="10.0" fill="#e7be00"/><rect x="135.0" y="66.0" width="6.0" height="10.0" fill="#e7be00"/><rect x="141.0" y="76.0" width="6.0" height="10.0" fill="#e7be00"/><rect x="141.0" y="86.0" width="6.0" height="10.0" fill="#e7be00"/><rect x="141.0" y="96.0" width="6.0" height="10.0" fill="#e7be00"/><rect x="129.0" y="96.0" width="6.0" height="10.0" fill="#e7be00"/><rect x="123.0" y="96.0" width="6.0" height="10.0" fill="#e7be00"/><rect x="105.0" y="96.0" width="6.0" height="10.0" fill="#e7be00"/><rect x="93.0" y="96.0" width="6.0" height="10.0" fill="#e7be00"/><rect x="87.0" y="96.0" width="6.0" height="10.0" fill="#e7be00"/><rect x="87.0" y="86.0" width="6.0" height="10.0" fill="#e7be00"/><rect x="153.0" y="66.0" width="6.0" height="10.0" fill="#2f3fbf"/><rect x="159.0" y="66.0" width="6.0" height="10.0" fill="#2f3fbf"/><rect x="165.0" y="66.0" width="6.0" height="10.0" fill="#2f3fbf"/><rect x="183.0" y="66.0" width="6.0" height="10.0" fill="#2f3fbf"/><rect x="201.0" y="96.0" width="6.0" height="10.0" fill="#2f3fbf"/><rect x="195.0" y="96.0" width="6.0" height="10.0" fill="#2f3fbf"/><rect x="189.0" y="96.0" width="6.0" height="10.0" fill="#2f3fbf"/><rect x="183.0" y="96.0" width="6.0" height="10.0" fill="#2f3fbf"/><rect x="165.0" y="96.0" width="6.0" height="10.0" fill="#2f3fbf"/><rect x="153.0" y="96.0" width="6.0" height="10.0" fill="#2f3fbf"/><rect x="147.0" y="96.0" width="6.0" height="10.0" fill="#2f3fbf"/><rect x="147.0" y="86.0" width="6.0" height="10.0" fill="#2f3fbf"/><rect x="147.0" y="76.0" width="6.0" height="10.0" fill="#2f3fbf"/><rect x="207.0" y="66.0" width="6.0" height="10.0" fill="#e7be00"/><rect x="213.0" y="66.0" width="6.0" height="10.0" fill="#e7be00"/><rect x="219.0" y="66.0" width="6.0" height="10.0" fill="#e7be00"/><rect x="237.0" y="66.0" width="6.0" height="10.0" fill="#e7be00"/><rect x="243.0" y="66.0" width="6.0" height="10.0" fill="#e7be00"/><rect x="249.0" y="66.0" width="6.0" height="10.0" fill="#e7be00"/><rect x="255.0" y="66.0" width="6.0" height="10.0" fill="#e7be00"/><rect x="261.0" y="66.0" width="6.0" height="10.0" fill="#e7be00"/><rect x="261.0" y="96.0" width="6.0" height="10.0" fill="#e7be00"/><rect x="249.0" y="96.0" width="6.0" height="10.0" fill="#e7be00"/><rect x="213.0" y="96.0" width="6.0" height="10.0" fill="#e7be00"/><rect x="207.0" y="86.0" width="6.0" height="10.0" fill="#e7be00"/><rect x="33.0" y="106.0" width="6.0" height="10.0" fill="#e7be00"/><rect x="57.0" y="106.0" width="6.0" height="10.0" fill="#e7be00"/><rect x="75.0" y="106.0" width="6.0" height="10.0" fill="#e7be00"/><rect x="75.0" y="136.0" width="6.0" height="10.0" fill="#e7be00"/><rect x="57.0" y="136.0" width="6.0" height="10.0" fill="#e7be00"/><rect x="45.0" y="136.0" width="6.0" height="10.0" fill="#e7be00"/><rect x="33.0" y="136.0" width="6.0" height="10.0" fill="#e7be00"/><rect x="27.0" y="136.0" width="6.0" height="10.0" fill="#e7be00"/><rect x="27.0" y="126.0" width="6.0" height="10.0" fill="#e7be00"/><rect x="159.0" y="106.0" width="6.0" height="10.0" fill="#2f3fbf"/><rect x="177.0" y="106.0" width="6.0" height="10.0" fill="#2f3fbf"/><rect x="201.0" y="116.0" width="6.0" height="10.0" fill="#2f3fbf"/><rect x="201.0" y="126.0" width="6.0" height="10.0" fill="#2f3fbf"/><rect x="201.0" y="136.0" width="6.0" height="10.0" fill="#2f3fbf"/><rect x="195.0" y="136.0" width="6.0" height="10.0" fill="#2f3fbf"/><rect x="183.0" y="136.0" width="6.0" height="10.0" fill="#2f3fbf"/><rect x="177.0" y="136.0" width="6.0" height="10.0" fill="#2f3fbf"/><rect x="171.0" y="136.0" width="6.0" height="10.0" fill="#2f3fbf"/><rect x="159.0" y="136.0" width="6.0" height="10.0" fill="#2f3fbf"/><rect x="147.0" y="136.0" width="6.0" height="10.0" fill="#2f3fbf"/><rect x="147.0" y="126.0" width="6.0" height="10.0" fill="#2f3fbf"/><rect x="207.0" y="106.0" width="6.0" height="10.0" fill="#ff3f2f"/><rect x="213.0" y="106.0" width="6.0" height="10.0" fill="#ff3f2f"/><rect x="219.0" y="106.0" width="6.0" height="10.0" fill="#ff3f2f"/><rect x="225.0" y="106.0" width="6.0" height="10.0" fill="#ff3f2f"/><rect x="255.0" y="106.0" width="6.0" height="10.0" fill="#ff3f2f"/><rect x="261.0" y="106.0" width="6.0" height="10.0" fill="#ff3f2f"/><rect x="261.0" y="126.0" width="6.0" height="10.0" fill="#ff3f2f"/><rect x="255.0" y="136.0" width="6.0" height="10.0" fill="#ff3f2f"/><rect x="243.0" y="136.0" width="6.0" height="10.0" fill="#ff3f2f"/><rect x="237.0" y="136.0" width="6.0" height="10.0" fill="#ff3f2f"/><rect x="225.0" y="136.0" width="6.0" height="10.0" fill="#ff3f2f"/><rect x="213.0" y="136.0" width="6.0" height="10.0" fill="#ff3f2f"/><rect x="207.0" y="136.0" width="6.0" height="10.0" fill="#ff3f2f"/><rect x="207.0" y="126.0" width="6.0" height="10.0" fill="#ff3f2f"/><rect x="45.0" y="146.0" width="6.0" height="10.0" fill="#2f3fbf"/><rect x="51.0" y="146.0" width="6.0" height="10.0" fill="#2f3fbf"/><rect x="75.0" y="146.0" width="6.0" height="10.0" fill="#2f3fbf"/><rect x="81.0" y="176.0" width="6.0" height="10.0" fill="#2f3fbf"/><rect x="69.0" y="176.0" width="6.0" height="10.0" fill="#2f3fbf"/><rect x="51.0" y="176.0" width="6.0" height="10.0" fill="#2f3fbf"/><rect x="45.0" y="176.0" width="6.0" height="10.0" fill="#2f3fbf"/><rect x="33.0" y="176.0" width="6.0" height="10.0" fill="#2f3fbf"/><rect x="27.0" y="176.0" width="6.0" height="10.0" fill="#2f3fbf"/><rect x="27.0" y="156.0" width="6.0" height="10.0" fill="#2f3fbf"/><rect x="87.0" y="146.0" width="6.0" height="10.0" fill="#ff3f2f"/><rect x="99.0" y="146.0" width="6.0" height="10.0" fill="#ff3f2f"/><rect x="105.0" y="146.0" width="6.0" height="10.0" fill="#ff3f2f"/><rect x="111.0" y="146.0" width="6.0" height="10.0" fill="#ff3f2f"/><rect x="129.0" y="146.0" width="6.0" height="10.0" fill="#ff3f2f"/><rect x="123.0" y="176.0" width="6.0" height="10.0" fill="#ff3f2f"/><rect x="105.0" y="176.0" width="6.0" height="10.0" fill="#ff3f2f"/><rect x="93.0" y="176.0" width="6.0" height="10.0" fill="#ff3f2f"/><rect x="87.0" y="176.0" width="6.0" height="10.0" fill="#ff3f2f"/><rect x="147.0" y="146.0" width="6.0" height="10.0" fill="#2f3fbf"/><rect x="153.0" y="146.0" width="6.0" height="10.0" fill="#2f3fbf"/><rect x="165.0" y="146.0" width="6.0" height="10.0" fill="#2f3fbf"/><rect x="177.0" y="146.0" width="6.0" height="10.0" fill="#2f3fbf"/><rect x="195.0" y="146.0" width="6.0" height="10.0" fill="#2f3fbf"/><rect x="201.0" y="146.0" width="6.0" height="10.0" fill="#2f3fbf"/><rect x="201.0" y="166.0" width="6.0" height="10.0" fill="#2f3fbf"/><rect x="195.0" y="176.0" width="6.0" height="10.0" fill="#2f3fbf"/><rect x="189.0" y="176.0" width="6.0" height="10.0" fill="#2f3fbf"/><rect x="183.0" y="176.0" width="6.0" height="10.0" fill="#2f3fbf"/><rect x="177.0" y="176.0" width="6.0" height="10.0" fill="#2f3fbf"/><rect x="171.0" y="176.0" width="6.0" height="10.0" fill="#2f3fbf"/><rect x="159.0" y="176.0" width="6.0" height="10.0" fill="#2f3fbf"/><rect x="153.0" y="176.0" width="6.0" height="10.0" fill="#2f3fbf"/><rect x="147.0" y="166.0" width="6.0" height="10.0" fill="#2f3fbf"/><rect x="225.0" y="146.0" width="6.0" height="10.0" fill="#000000"/><rect x="237.0" y="146.0" width="6.0" height="10.0" fill="#000000"/><rect x="261.0" y="146.0" width="6.0" height="10.0" fill="#000000"/><rect x="261.0" y="166.0" width="6.0" height="10.0" fill="#000000"/><rect x="243.0" y="176.0" width="6.0" height="10.0" fill="#000000"/><rect x="231.0" y="176.0" width="6.0" height="10.0" fill="#000000"/><rect x="225.0" y="176.0" width="6.0" height="10.0" fill="#000000"/><rect x="213.0" y="176.0" width="6.0" height="10.0" fill="#000000"/><rect x="207.0" y="156.0" width="6.0" height="10.0" fill="#000000"/></g><g clip-path="url(#grid-clip-683953058c1b52c4-4x4)" data-channel="ellipse" data-ellipse-anchor-x="147.0" data-ellipse-anchor-y="146.0" data-ellipse-rx="49.55404322555325" data-ellipse-ry="49.55404322555325" data-ellipse-rotation-deg="108.0"><ellipse cx="147.0" cy="146.0" rx="49.55404322555325" ry="49.55404322555325" transform="rotate(108.0 147.0 146.0)" fill="#000000" fill-opacity="0.2"/></g><g><g data-channel="cell" data-cell-index="0" data-cell-row="0" data-cell-col="0" data-cell-quartile="2"><rect x="33.0" y="36.0" width="48.0" height="20.0" fill="#117001"/><text x="57.0" y="46.0" fill="#ffffff" style="font-family: &quot;JetBrains Mono&quot;, &quot;Menlo&quot;, &quot;Consolas&quot;, &quot;DejaVu Sans Mono&quot;, &quot;Liberation Mono&quot;, &quot;Roboto Mono&quot;, &quot;Noto Sans Mono&quot;, monospace; font-size: 16.0px;" text-anchor="middle" dominant-baseline="central">AFYB</text><polygon points="81.0,36.0 71.0,36.0 81.0,46.0" fill="#ffffff"/></g><g data-channel="cell" data-cell-index="1" data-cell-row="0" data-cell-col="1"><rect x="93.0" y="36.0" width="48.0" height="20.0" fill="#330c22"/><text x="117.0" y="46.0" fill="#ffffff" style="font-family: &quot;JetBrains Mono&quot;, &quot;Menlo&quot;, &quot;Consolas&quot;, &quot;DejaVu Sans Mono&quot;, &quot;Liberation Mono&quot;, &quot;Roboto Mono&quot;, &quot;Noto Sans Mono&quot;, monospace; font-size: 16.0px;" text-anchor="middle" dominant-baseline="central">EIGD</text></g><g data-channel="cell" data-cell-index="2" data-cell-row="0" data-cell-col="2"><rect x="153.0" y="36.0" width="48.0" height="20.0" fill="#3373c4"/><text x="177.0" y="46.0" fill="#ffffff" style="font-family: &quot;JetBrains Mono&quot;, &quot;Menlo&quot;, &quot;Consolas&quot;, &quot;DejaVu Sans Mono&quot;, &quot;Liberation Mono&quot;, &quot;Roboto Mono&quot;, &quot;Noto Sans Mono&quot;, monospace; font-size: 16.0px;" text-anchor="middle" dominant-baseline="central">YRZT</text></g><g data-channel="cell" data-cell-index="3" data-cell-row="0" data-cell-col="3" data-cell-quartile="1"><rect x="213.0" y="36.0" width="48.0" height="20.0" fill="#ff8aec"/><text x="237.0" y="46.0" fill="#000000" style="font-family: &quot;JetBrains Mono&quot;, &quot;Menlo&quot;, &quot;Consolas&quot;, &quot;DejaVu Sans Mono&quot;, &quot;Liberation Mono&quot;, &quot;Roboto Mono&quot;, &quot;Noto Sans Mono&quot;, monospace; font-size: 16.0px;" text-anchor="middle" dominant-baseline="central">5SFP</text><polygon points="213.0,36.0 223.0,36.0 213.0,46.0" fill="#000000"/></g><g data-channel="cell" data-cell-index="4" data-cell-row="1" data-cell-col="0"><rect x="33.0" y="76.0" width="48.0" height="20.0" fill="#cc06fd"/><text x="57.0" y="86.0" fill="#000000" style="font-family: &quot;JetBrains Mono&quot;, &quot;Menlo&quot;, &quot;Consolas&quot;, &quot;DejaVu Sans Mono&quot;, &quot;Liberation Mono&quot;, &quot;Roboto Mono&quot;, &quot;Noto Sans Mono&quot;, monospace; font-size: 16.0px;" text-anchor="middle" dominant-baseline="central">7UDM</text></g><g data-channel="cell" data-cell-index="5" data-cell-row="1" data-cell-col="1"><rect x="93.0" y="76.0" width="48.0" height="20.0" fill="#ffe9f9"/><text x="117.0" y="86.0" fill="#000000" style="font-family: &quot;JetBrains Mono&quot;, &quot;Menlo&quot;, &quot;Consolas&quot;, &quot;DejaVu Sans Mono&quot;, &quot;Liberation Mono&quot;, &quot;Roboto Mono&quot;, &quot;Noto Sans Mono&quot;, monospace; font-size: 16.0px;" text-anchor="middle" dominant-baseline="central">7HU7</text></g><g data-channel="cell" data-cell-index="6" data-cell-row="1" data-cell-col="2"><rect x="153.0" y="76.0" width="48.0" height="20.0" fill="#ff0ff5"/><text x="177.0" y="86.0" fill="#000000" style="font-family: &quot;JetBrains Mono&quot;, &quot;Menlo&quot;, &quot;Consolas&quot;, &quot;DejaVu Sans Mono&quot;, &quot;Liberation Mono&quot;, &quot;Roboto Mono&quot;, &quot;Noto Sans Mono&quot;, monospace; font-size: 16.0px;" text-anchor="middle" dominant-baseline="central">6UH7</text></g><g data-channel="cell" data-cell-index="7" data-cell-row="1" data-cell-col="3" data-cell-quartile="4"><rect x="213.0" y="76.0" width="48.0" height="20.0" fill="#ddbcc6"/><text x="237.0" y="86.0" fill="#000000" style="font-family: &quot;JetBrains Mono&quot;, &quot;Menlo&quot;, &quot;Consolas&quot;, &quot;DejaVu Sans Mono&quot;, &quot;Liberation Mono&quot;, &quot;Roboto Mono&quot;, &quot;Noto Sans Mono&quot;, monospace; font-size: 16.0px;" text-anchor="middle" dominant-baseline="central">Y26N</text><polygon points="213.0,96.0 213.0,86.0 223.0,96.0" fill="#000000"/></g><g data-channel="cell" data-cell-index="8" data-cell-row="2" data-cell-col="0"><rect x="33.0" y="116.0" width="48.0" height="20.0" fill="#55c82e"/><text x="57.0" y="126.0" fill="#000000" style="font-family: &quot;JetBrains Mono&quot;, &quot;Menlo&quot;, &quot;Consolas&quot;, &quot;DejaVu Sans Mono&quot;, &quot;Liberation Mono&quot;, &quot;Roboto Mono&quot;, &quot;Noto Sans Mono&quot;, monospace; font-size: 16.0px;" text-anchor="middle" dominant-baseline="central">F3EF</text></g><g data-channel="cell" data-cell-index="9" data-cell-row="2" data-cell-col="1" data-cell-blank="true" data-cell-blank-map="true"><rect x="93.0" y="116.0" width="48.0" height="20.0" rx="10.0" ry="10.0" fill="#e7be00" stroke="#000000" stroke-width="1"/><circle cx="123.0" cy="123.5" r="2.5" fill="#d62828" data-blank-map-max="true"/><circle cx="111.0" cy="118.5" r="2.5" fill="#1d4ed8" data-blank-map-min="true"/></g><g data-channel="cell" data-cell-index="10" data-cell-row="2" data-cell-col="2"><rect x="153.0" y="116.0" width="48.0" height="20.0" fill="#0017a6"/><text x="177.0" y="126.0" fill="#ffffff" style="font-family: &quot;JetBrains Mono&quot;, &quot;Menlo&quot;, &quot;Consolas&quot;, &quot;DejaVu Sans Mono&quot;, &quot;Liberation Mono&quot;, &quot;Roboto Mono&quot;, &quot;Noto Sans Mono&quot;, monospace; font-size: 16.0px;" text-anchor="middle" dominant-baseline="central">UYLQ</text></g><g data-channel="cell" data-cell-index="11" data-cell-row="2" data-cell-col="3"><rect x="213.0" y="116.0" width="48.0" height="20.0" fill="#bb4b00"/><text x="237.0" y="126.0" fill="#ffffff" style="font-family: &quot;JetBrains Mono&quot;, &quot;Menlo&quot;, &quot;Consolas&quot;, &quot;DejaVu Sans Mono&quot;, &quot;Liberation Mono&quot;, &quot;Roboto Mono&quot;, &quot;Noto Sans Mono&quot;, monospace; font-size: 16.0px;" text-anchor="middle" dominant-baseline="central">ABF3</text></g><g data-channel="cell" data-cell-index="12" data-cell-row="3" data-cell-col="0"><rect x="33.0" y="156.0" width="48.0" height="20.0" fill="#669670"/><text x="57.0" y="166.0" fill="#000000" style="font-family: &quot;JetBrains Mono&quot;, &quot;Menlo&quot;, &quot;Consolas&quot;, &quot;DejaVu Sans Mono&quot;, &quot;Liberation Mono&quot;, &quot;Roboto Mono&quot;, &quot;Noto Sans Mono&quot;, monospace; font-size: 16.0px;" text-anchor="middle" dominant-baseline="central">OCLG</text></g><g data-channel="cell" data-cell-index="13" data-cell-row="3" data-cell-col="1" data-cell-quartile="3"><rect x="93.0" y="156.0" width="48.0" height="20.0" fill="#dd319c"/><text x="117.0" y="166.0" fill="#000000" style="font-family: &quot;JetBrains Mono&quot;, &quot;Menlo&quot;, &quot;Consolas&quot;, &quot;DejaVu Sans Mono&quot;, &quot;Liberation Mono&quot;, &quot;Roboto Mono&quot;, &quot;Noto Sans Mono&quot;, monospace; font-size: 16.0px;" text-anchor="middle" dominant-baseline="central">TQY5</text><polygon points="141.0,176.0 141.0,166.0 131.0,176.0" fill="#000000"/></g><g data-channel="cell" data-cell-index="14" data-cell-row="3" data-cell-col="2"><rect x="153.0" y="156.0" width="48.0" height="20.0" fill="#9943e9"/><text x="177.0" y="166.0" fill="#ffffff" style="font-family: &quot;JetBrains Mono&quot;, &quot;Menlo&quot;, &quot;Consolas&quot;, &quot;DejaVu Sans Mono&quot;, &quot;Liberation Mono&quot;, &quot;Roboto Mono&quot;, &quot;Noto Sans Mono&quot;, monospace; font-size: 16.0px;" text-anchor="middle" dominant-baseline="central">5FBZ</text></g><g data-channel="cell" data-cell-index="15" data-cell-row="3" data-cell-col="3"><rect x="213.0" y="156.0" width="48.0" height="20.0" fill="#88061a"/><text x="237.0" y="166.0" fill="#ffffff" style="font-family: &quot;JetBrains Mono&quot;, &quot;Menlo&quot;, &quot;Consolas&quot;, &quot;DejaVu Sans Mono&quot;, &quot;Liberation Mono&quot;, &quot;Roboto Mono&quot;, &quot;Noto Sans Mono&quot;, monospace; font-size: 16.0px;" text-anchor="middle" dominant-baseline="central">DI</text></g></g></g><g data-channel="color-bar"><g data-color-bar-rank="0" data-color-bar-band="R"><rect x="1" y="1" width="20.0" height="86.94786044063967" fill="#ff3f2f"/><text x="11.0" y="84.42786044063968" fill="#000000" style="font-family: &quot;JetBrains Mono&quot;, &quot;Menlo&quot;, &quot;Consolas&quot;, &quot;DejaVu Sans Mono&quot;, &quot;Liberation Mono&quot;, &quot;Roboto Mono&quot;, &quot;Noto Sans Mono&quot;, monospace; font-size: 16.0px;" text-anchor="middle" data-color-bar-letter="true">r</text></g><g data-color-bar-rank="1" data-color-bar-band="G"><rect x="1" y="87.94786044063967" width="20.0" height="63.12632030030826" fill="#e7be00"/><text x="11.0" y="147.5541807409479" fill="#000000" style="font-family: &quot;JetBrains Mono&quot;, &quot;Menlo&quot;, &quot;Consolas&quot;, &quot;DejaVu Sans Mono&quot;, &quot;Liberation Mono&quot;, &quot;Roboto Mono&quot;, &quot;Noto Sans Mono&quot;, monospace; font-size: 16.0px;" text-anchor="middle" data-color-bar-letter="true">g</text></g><g data-color-bar-rank="2" data-color-bar-band="B"><rect x="1" y="151.07418074094792" width="20.0" height="28.463515309468935" fill="#2f3fbf"/><text x="11.0" y="176.01769605041684" fill="#ffffff" style="font-family: &quot;JetBrains Mono&quot;, &quot;Menlo&quot;, &quot;Consolas&quot;, &quot;DejaVu Sans Mono&quot;, &quot;Liberation Mono&quot;, &quot;Roboto Mono&quot;, &quot;Noto Sans Mono&quot;, monospace; font-size: 16.0px;" text-anchor="middle" data-color-bar-letter="true">b</text></g><g data-color-bar-rank="3" data-color-bar-band="K"><rect x="1" y="179.53769605041686" width="20.0" height="11.462303949583145" fill="#000000"/><text x="11.0" y="187.48" fill="#ffffff" style="font-family: &quot;JetBrains Mono&quot;, &quot;Menlo&quot;, &quot;Consolas&quot;, &quot;DejaVu Sans Mono&quot;, &quot;Liberation Mono&quot;, &quot;Roboto Mono&quot;, &quot;Noto Sans Mono&quot;, monospace; font-size: 16.0px;" text-anchor="middle" data-color-bar-letter="true">k</text></g></g><g data-channel="label-top"><text x="27.0" y="16.0" fill="#666666" style="font-family: &quot;JetBrains Mono&quot;, &quot;Menlo&quot;, &quot;Consolas&quot;, &quot;DejaVu Sans Mono&quot;, &quot;Liberation Mono&quot;, &quot;Roboto Mono&quot;, &quot;Noto Sans Mono&quot;, monospace; font-size: 12.0px;" dominant-baseline="central">IPFS CID v1 256: b...</text></g><line x1="0" y1="0.5" x2="273.0" y2="0.5" stroke="#808080" stroke-width="1" shape-rendering="crispEdges"/><line x1="272.5" y1="0" x2="272.5" y2="192.0" stroke="#808080" stroke-width="1" shape-rendering="crispEdges"/><line x1="0" y1="191.5" x2="273.0" y2="191.5" stroke="#808080" stroke-width="1" shape-rendering="crispEdges"/><line x1="0.5" y1="0" x2="0.5" y2="192.0" stroke="#808080" stroke-width="1" shape-rendering="crispEdges"/><line x1="21.5" y1="0" x2="21.5" y2="192.0" stroke="#808080" stroke-width="1" shape-rendering="crispEdges"/></svg>