<svg width="153.0" height="117.0" viewBox="0 0 153.0 117.0" xmlns="http://www.w3.org/2000/svg" data-entviz-version="v6" data-entviz-lib="0.5.0" data-input-bytes="17" data-cols="2" data-rows="2"><defs><clipPath id="grid-clip-1e86dddf9e1863cb-2x2"><rect x="27.0" y="31.0" width="120.0" height="80.0"/></clipPath></defs><rect x="0" y="0" width="153.0" height="117.0" fill="#ffffff"/><g data-channel="grid"><rect x="27.0" y="31.0" width="120.0" height="80.0" fill="#ffd966"/><g><rect x="87.0" y="31.0" width="6.0" height="10.0" fill="#2f3fbf"/><rect x="99.0" y="31.0" width="6.0" height="10.0" fill="#2f3fbf"/><rect x="105.0" y="31.0" width="6.0" height="10.0" fill="#2f3fbf"/><rect x="111.0" y="31.0" width="6.0" height="10.0" fill="#2f3fbf"/><rect x="123.0" y="31.0" width="6.0" height="10.0" fill="#2f3fbf"/><rect x="129.0" y="31.0" width="6.0" height="10.0" fill="#2f3fbf"/><rect x="141.0" y="31.0" width="6.0" height="10.0" fill="#2f3fbf"/><rect x="141.0" y="41.0" width="6.0" height="10.0" fill="#2f3fbf"/><rect x="123.0" y="61.0" width="6.0" height="10.0" fill="#2f3fbf"/><rect x="111.0" y="61.0" width="6.0" height="10.0" fill="#2f3fbf"/><rect x="105.0" y="61.0" width="6.0" height="10.0" fill="#2f3fbf"/><rect x="99.0" y="61.0" width="6.0" height="10.0" fill="#2f3fbf"/><rect x="93.0" y="61.0" width="6.0" height="10.0" fill="#2f3fbf"/><rect x="45.0" y="71.0" width="6.0" height="10.0" fill="#000000"/><rect x="51.0" y="71.0" width="6.0" height="10.0" fill="#000000"/><rect x="81.0" y="71.0" width="6.0" height="10.0" fill="#000000"/><rect x="81.0" y="81.0" width="6.0" height="10.0" fill="#000000"/><rect x="81.0" y="91.0" width="6.0" height="10.0" fill="#000000"/><rect x="81.0" y="101.0" width="6.0" height="10.0" fill="#000000"/><rect x="63.0" y="101.0" width="6.0" height="10.0" fill="#000000"/><rect x="57.0" y="101.0" width="6.0" height="10.0" fill="#000000"/><rect x="51.0" y="101.0" width="6.0" height="10.0" fill="#000000"/><rect x="45.0" y="101.0" width="6.0" height="10.0" fill="#000000"/><rect x="39.0" y="101.0" width="6.0" height="10.0" fill="#000000"/><rect x="33.0" y="101.0" width="6.0" height="10.0" fill="#000000"/><rect x="27.0" y="91.0" width="6.0" height="10.0" fill="#000000"/><rect x="27.0" y="81.0" width="6.0" height="10.0" fill="#000000"/><rect x="105.0" y="71.0" width="6.0" height="10.0" fill="#2f3fbf"/><rect x="117.0" y="71.0" width="6.0" height="10.0" fill="#2f3fbf"/><rect x="129.0" y="71.0" width="6.0" height="10.0" fill="#2f3fbf"/><rect x="135.0" y="71.0" width="6.0" height="10.0" fill="#2f3fbf"/><rect x="141.0" y="71.0" width="6.0" height="10.0" fill="#2f3fbf"/><rect x="141.0" y="91.0" width="6.0" height="10.0" fill="#2f3fbf"/><rect x="129.0" y="101.0" width="6.0" height="10.0" fill="#2f3fbf"/><rect x="123.0" y="101.0" width="6.0" height="10.0" fill="#2f3fbf"/><rect x="117.0" y="101.0" width="6.0" height="10.0" fill="#2f3fbf"/><rect x="111.0" y="101.0" width="6.0" height="10.0" fill="#2f3fbf"/><rect x="87.0" y="101.0" width="6.0" height="10.0" fill="#2f3fbf"/><rect x="87.0" y="91.0" width="6.0" height="10.0" fill="#2f3fbf"/></g><g clip-path="url(#grid-clip-1e86dddf9e1863cb-2x2)" data-channel="ellipse" data-ellipse-anchor-x="87.0" data-ellipse-anchor-y="31.0" data-ellipse-rx="48.39999999999999" data-ellipse-ry="29.2" data-ellipse-rotation-deg="60.0"><ellipse cx="87.0" cy="31.0" rx="48.39999999999999" ry="29.2" transform="rotate(60.0 87.0 31.0)" fill="#000000" fill-opacity="0.3"/></g><g><g data-channel="cell" data-cell-index="0" data-cell-row="0" data-cell-col="0" data-cell-blank="true" data-cell-blank-map="true"><rect x="33.0" y="41.0" width="48.0" height="20.0" rx="2.0" ry="2.0" fill="#ffffff" stroke="#000000" stroke-width="1"/><circle cx="45.0" cy="56.0" r="3.5" fill="#d62828" data-blank-map-max="true"/><circle cx="69.0" cy="46.0" r="3.5" fill="#1d4ed8" data-blank-map-min="true"/></g><g data-channel="cell" data-cell-index="1" data-cell-row="0" data-cell-col="1" data-cell-quartile="2"><rect x="93.0" y="41.0" width="48.0" height="20.0" fill="#113580"/><text x="117.0" y="51.0" fill="#ffffff" style="font-family: &quot;JetBrains Mono&quot;, &quot;Menlo&quot;, &quot;Consolas&quot;, &quot;DejaVu Sans Mono&quot;, &quot;Liberation Mono&quot;, &quot;Roboto Mono&quot;, &quot;Noto Sans Mono&quot;, monospace; font-size: 12.0px;" text-anchor="middle" dominant-baseline="central">803511</text><polygon points="141.0,41.0 131.0,41.0 141.0,51.0" fill="#ffffff"/></g><g data-channel="cell" data-cell-index="2" data-cell-row="1" data-cell-col="0" data-cell-quartile="1"><rect x="33.0" y="81.0" width="48.0" height="20.0" fill="#462210"/><text x="57.0" y="91.0" fill="#ffffff" style="font-family: &quot;JetBrains Mono&quot;, &quot;Menlo&quot;, &quot;Consolas&quot;, &quot;DejaVu Sans Mono&quot;, &quot;Liberation Mono&quot;, &quot;Roboto Mono&quot;, &quot;Noto Sans Mono&quot;, monospace; font-size: 12.0px;" text-anchor="middle" dominant-baseline="central">102246</text><polygon points="33.0,81.0 43.0,81.0 33.0,91.0" fill="#ffffff"/></g><g data-channel="cell" data-cell-index="3" data-cell-row="1" data-cell-col="1" data-cell-quartile="3"><rect x="93.0" y="81.0" width="48.0" height="20.0" fill="#229178"/><text x="117.0" y="91.0" fill="#ffffff" style="font-family: &quot;JetBrains Mono&quot;, &quot;Menlo&quot;, &quot;Consolas&quot;, &quot;DejaVu Sans Mono&quot;, &quot;Liberation Mono&quot;, &quot;Roboto Mono&quot;, &quot;Noto Sans Mono&quot;, monospace; font-size: 12.0px;" text-anchor="middle" dominant-baseline="central">78912</text><polygon points="141.0,101.0 141.0,91.0 131.0,101.0" fill="#ffffff"/></g></g></g><g data-channel="color-bar"><g data-color-bar-rank="0" data-color-bar-band="B"><rect x="1" y="1" width="20.0" height="39.73251698023143" fill="#2f3fbf"/><text x="11.0" y="20.866258490115715" fill="#ffffff" style="font-family: &quot;JetBrains Mono&quot;, &quot;Menlo&quot;, &quot;Consolas&quot;, &quot;DejaVu Sans Mono&quot;, &quot;Liberation Mono&quot;, &quot;Roboto Mono&quot;, &quot;Noto Sans Mono&quot;, monospace; font-size: 17.0px;" text-anchor="middle" dominant-baseline="central" data-color-bar-letter="true">b</text></g><g data-color-bar-rank="1" data-color-bar-band="R"><rect x="1" y="40.73251698023143" width="20.0" height="33.346720420791264" fill="#ff3f2f"/><text x="11.0" y="57.405877190627066" fill="#000000" style="font-family: &quot;JetBrains Mono&quot;, &quot;Menlo&quot;, &quot;Consolas&quot;, &quot;DejaVu Sans Mono&quot;, &quot;Liberation Mono&quot;, &quot;Roboto Mono&quot;, &quot;Noto Sans Mono&quot;, monospace; font-size: 17.0px;" text-anchor="middle" dominant-baseline="central" data-color-bar-letter="true">r</text></g><g data-color-bar-rank="2" data-color-bar-band="K"><rect x="1" y="74.0792374010227" width="20.0" height="24.452354061874427" fill="#000000"/><text x="11.0" y="86.3054144319599" fill="#ffffff" style="font-family: &quot;JetBrains Mono&quot;, &quot;Menlo&quot;, &quot;Consolas&quot;, &quot;DejaVu Sans Mono&quot;, &quot;Liberation Mono&quot;, &quot;Roboto Mono&quot;, &quot;Noto Sans Mono&quot;, monospace; font-size: 17.0px;" text-anchor="middle" dominant-baseline="central" data-color-bar-letter="true">k</text></g><g data-color-bar-rank="3" data-color-bar-band="W"><rect x="1" y="98.53159146289713" width="20.0" height="17.468408537102874" fill="#ffffff"/><text x="11.0" y="107.26579573144856" fill="#000000" style="font-family: &quot;JetBrains Mono&quot;, &quot;Menlo&quot;, &quot;Consolas&quot;, &quot;DejaVu Sans Mono&quot;, &quot;Liberation Mono&quot;, &quot;Roboto Mono&quot;, &quot;Noto Sans Mono&quot;, monospace; font-size: 12.227885975972011px;" text-anchor="middle" dominant-baseline="central" data-color-bar-letter="true">w</text></g></g><g data-channel="label-top"><text x="27.0" y="16.0" fill="#666666" style="font-family: &quot;JetBrains Mono&quot;, &quot;Menlo&quot;, &quot;Consolas&quot;, &quot;DejaVu Sans Mono&quot;, &quot;Liberation Mono&quot;, &quot;Roboto Mono&quot;, &quot;Noto Sans Mono&quot;, monospace; font-size: 12.0px;" dominant-baseline="central">snowflake:</text></g><line x1="0" y1="0.5" x2="153.0" y2="0.5" stroke="#808080" stroke-width="1" shape-rendering="crispEdges"/><line x1="152.5" y1="0" x2="152.5" y2="117.0" stroke="#808080" stroke-width="1" shape-rendering="crispEdges"/><line x1="0" y1="116.5" x2="153.0" y2="116.5" stroke="#808080" stroke-width="1" shape-rendering="crispEdges"/><line x1="0.5" y1="0" x2="0.5" y2="117.0" stroke="#808080" stroke-width="1" shape-rendering="crispEdges"/><line x1="21.5" y1="0" x2="21.5" y2="117.0" stroke="#808080" stroke-width="1" shape-rendering="crispEdges"/></svg>