<svg width="273.0" height="192.0" viewBox="0 0 273.0 192.0" xmlns="http://www.w3.org/2000/svg" data-entviz-version="v9" data-entviz-lib="0.9.1" data-input-bytes="56" data-cols="4" data-rows="4"><defs><clipPath id="grid-clip-0505b85683fede30-4x4"><rect x="27.0" y="26.0" width="240.0" height="160.0"/></clipPath></defs><rect x="0" y="0" width="273.0" height="192.0" fill="#ffffff"/><g data-channel="grid"><rect x="27.0" y="26.0" width="240.0" height="160.0" fill="#ff3f2f"/><g><rect x="45.0" y="26.0" width="6.0" height="10.0" fill="#000000"/><rect x="51.0" y="26.0" width="6.0" height="10.0" fill="#000000"/><rect x="57.0" y="26.0" width="6.0" height="10.0" fill="#000000"/><rect x="69.0" y="26.0" width="6.0" height="10.0" fill="#000000"/><rect x="75.0" y="26.0" width="6.0" height="10.0" fill="#000000"/><rect x="81.0" y="36.0" width="6.0" height="10.0" fill="#000000"/><rect x="57.0" y="56.0" width="6.0" height="10.0" fill="#000000"/><rect x="45.0" y="56.0" width="6.0" height="10.0" fill="#000000"/><rect x="93.0" y="26.0" width="6.0" height="10.0" fill="#000000"/><rect x="99.0" y="26.0" width="6.0" height="10.0" fill="#000000"/><rect x="105.0" y="26.0" width="6.0" height="10.0" fill="#000000"/><rect x="111.0" y="26.0" width="6.0" height="10.0" fill="#000000"/><rect x="117.0" y="26.0" width="6.0" height="10.0" fill="#000000"/><rect x="123.0" y="26.0" width="6.0" height="10.0" fill="#000000"/><rect x="129.0" y="26.0" width="6.0" height="10.0" fill="#000000"/><rect x="135.0" y="26.0" width="6.0" height="10.0" fill="#000000"/><rect x="141.0" y="26.0" width="6.0" height="10.0" fill="#000000"/><rect x="123.0" y="56.0" width="6.0" height="10.0" fill="#000000"/><rect x="111.0" y="56.0" width="6.0" height="10.0" fill="#000000"/><rect x="105.0" y="56.0" width="6.0" height="10.0" fill="#000000"/><rect x="93.0" y="56.0" width="6.0" height="10.0" fill="#000000"/><rect x="87.0" y="46.0" width="6.0" height="10.0" fill="#000000"/><rect x="171.0" y="26.0" width="6.0" height="10.0" fill="#e7be00"/><rect x="177.0" y="26.0" width="6.0" height="10.0" fill="#e7be00"/><rect x="183.0" y="26.0" width="6.0" height="10.0" fill="#e7be00"/><rect x="201.0" y="56.0" width="6.0" height="10.0" fill="#e7be00"/><rect x="195.0" y="56.0" width="6.0" height="10.0" fill="#e7be00"/><rect x="171.0" y="56.0" width="6.0" height="10.0" fill="#e7be00"/><rect x="165.0" y="56.0" width="6.0" height="10.0" fill="#e7be00"/><rect x="159.0" y="56.0" width="6.0" height="10.0" fill="#e7be00"/><rect x="153.0" y="56.0" width="6.0" height="10.0" fill="#e7be00"/><rect x="147.0" y="46.0" width="6.0" height="10.0" fill="#e7be00"/><rect x="147.0" y="36.0" width="6.0" height="10.0" fill="#e7be00"/><rect x="213.0" y="26.0" width="6.0" height="10.0" fill="#e7be00"/><rect x="225.0" y="26.0" width="6.0" height="10.0" fill="#e7be00"/><rect x="243.0" y="26.0" width="6.0" height="10.0" fill="#e7be00"/><rect x="249.0" y="26.0" width="6.0" height="10.0" fill="#e7be00"/><rect x="255.0" y="26.0" width="6.0" height="10.0" fill="#e7be00"/><rect x="261.0" y="26.0" width="6.0" height="10.0" fill="#e7be00"/><rect x="219.0" y="56.0" width="6.0" height="10.0" fill="#e7be00"/><rect x="213.0" y="56.0" width="6.0" height="10.0" fill="#e7be00"/><rect x="207.0" y="56.0" width="6.0" height="10.0" fill="#e7be00"/><rect x="207.0" y="36.0" width="6.0" height="10.0" fill="#e7be00"/><rect x="63.0" y="66.0" width="6.0" height="10.0" fill="#ffffff"/><rect x="69.0" y="66.0" width="6.0" height="10.0" fill="#ffffff"/><rect x="81.0" y="86.0" width="6.0" height="10.0" fill="#ffffff"/><rect x="69.0" y="96.0" width="6.0" height="10.0" fill="#ffffff"/><rect x="63.0" y="96.0" width="6.0" height="10.0" fill="#ffffff"/><rect x="57.0" y="96.0" width="6.0" height="10.0" fill="#ffffff"/><rect x="45.0" y="96.0" width="6.0" height="10.0" fill="#ffffff"/><rect x="33.0" y="96.0" width="6.0" height="10.0" fill="#ffffff"/><rect x="27.0" y="76.0" width="6.0" height="10.0" fill="#ffffff"/><rect x="111.0" y="66.0" width="6.0" height="10.0" fill="#e7be00"/><rect x="117.0" y="66.0" width="6.0" height="10.0" fill="#e7be00"/><rect x="123.0" y="66.0" width="6.0" height="10.0" fill="#e7be00"/><rect x="141.0" y="96.0" width="6.0" height="10.0" fill="#e7be00"/><rect x="135.0" y="96.0" width="6.0" height="10.0" fill="#e7be00"/><rect x="117.0" y="96.0" width="6.0" height="10.0" fill="#e7be00"/><rect x="111.0" y="96.0" width="6.0" height="10.0" fill="#e7be00"/><rect x="87.0" y="86.0" width="6.0" height="10.0" fill="#e7be00"/><rect x="159.0" y="66.0" width="6.0" height="10.0" fill="#e7be00"/><rect x="189.0" y="66.0" width="6.0" height="10.0" fill="#e7be00"/><rect x="195.0" y="66.0" width="6.0" height="10.0" fill="#e7be00"/><rect x="201.0" y="86.0" width="6.0" height="10.0" fill="#e7be00"/><rect x="201.0" y="96.0" width="6.0" height="10.0" fill="#e7be00"/><rect x="195.0" y="96.0" width="6.0" height="10.0" fill="#e7be00"/><rect x="183.0" y="96.0" width="6.0" height="10.0" fill="#e7be00"/><rect x="177.0" y="96.0" width="6.0" height="10.0" fill="#e7be00"/><rect x="171.0" y="96.0" width="6.0" height="10.0" fill="#e7be00"/><rect x="165.0" y="96.0" width="6.0" height="10.0" fill="#e7be00"/><rect x="159.0" y="96.0" width="6.0" height="10.0" fill="#e7be00"/><rect x="153.0" y="96.0" width="6.0" height="10.0" fill="#e7be00"/><rect x="207.0" y="66.0" width="6.0" height="10.0" fill="#ffffff"/><rect x="213.0" y="66.0" width="6.0" height="10.0" fill="#ffffff"/><rect x="219.0" y="66.0" width="6.0" height="10.0" fill="#ffffff"/><rect x="243.0" y="66.0" width="6.0" height="10.0" fill="#ffffff"/><rect x="261.0" y="66.0" width="6.0" height="10.0" fill="#ffffff"/><rect x="261.0" y="76.0" width="6.0" height="10.0" fill="#ffffff"/><rect x="261.0" y="86.0" width="6.0" height="10.0" fill="#ffffff"/><rect x="261.0" y="96.0" width="6.0" height="10.0" fill="#ffffff"/><rect x="255.0" y="96.0" width="6.0" height="10.0" fill="#ffffff"/><rect x="237.0" y="96.0" width="6.0" height="10.0" fill="#ffffff"/><rect x="231.0" y="96.0" width="6.0" height="10.0" fill="#ffffff"/><rect x="219.0" y="96.0" width="6.0" height="10.0" fill="#ffffff"/><rect x="207.0" y="96.0" width="6.0" height="10.0" fill="#ffffff"/><rect x="207.0" y="86.0" width="6.0" height="10.0" fill="#ffffff"/><rect x="207.0" y="76.0" width="6.0" height="10.0" fill="#ffffff"/><rect x="87.0" y="106.0" width="6.0" height="10.0" fill="#e7be00"/><rect x="99.0" y="106.0" width="6.0" height="10.0" fill="#e7be00"/><rect x="105.0" y="106.0" width="6.0" height="10.0" fill="#e7be00"/><rect x="117.0" y="106.0" width="6.0" height="10.0" fill="#e7be00"/><rect x="123.0" y="106.0" width="6.0" height="10.0" fill="#e7be00"/><rect x="129.0" y="106.0" width="6.0" height="10.0" fill="#e7be00"/><rect x="135.0" y="106.0" width="6.0" height="10.0" fill="#e7be00"/><rect x="141.0" y="116.0" width="6.0" height="10.0" fill="#e7be00"/><rect x="123.0" y="136.0" width="6.0" height="10.0" fill="#e7be00"/><rect x="117.0" y="136.0" width="6.0" height="10.0" fill="#e7be00"/><rect x="111.0" y="136.0" width="6.0" height="10.0" fill="#e7be00"/><rect x="105.0" y="136.0" width="6.0" height="10.0" fill="#e7be00"/><rect x="87.0" y="126.0" width="6.0" height="10.0" fill="#e7be00"/><rect x="87.0" y="116.0" width="6.0" height="10.0" fill="#e7be00"/><rect x="147.0" y="106.0" width="6.0" height="10.0" fill="#2f3fbf"/><rect x="153.0" y="106.0" width="6.0" height="10.0" fill="#2f3fbf"/><rect x="183.0" y="106.0" width="6.0" height="10.0" fill="#2f3fbf"/><rect x="195.0" y="106.0" width="6.0" height="10.0" fill="#2f3fbf"/><rect x="201.0" y="106.0" width="6.0" height="10.0" fill="#2f3fbf"/><rect x="201.0" y="116.0" width="6.0" height="10.0" fill="#2f3fbf"/><rect x="201.0" y="126.0" width="6.0" height="10.0" fill="#2f3fbf"/><rect x="201.0" y="136.0" width="6.0" height="10.0" fill="#2f3fbf"/><rect x="171.0" y="136.0" width="6.0" height="10.0" fill="#2f3fbf"/><rect x="147.0" y="116.0" width="6.0" height="10.0" fill="#2f3fbf"/><rect x="219.0" y="106.0" width="6.0" height="10.0" fill="#2f3fbf"/><rect x="225.0" y="106.0" width="6.0" height="10.0" fill="#2f3fbf"/><rect x="231.0" y="106.0" width="6.0" height="10.0" fill="#2f3fbf"/><rect x="237.0" y="106.0" width="6.0" height="10.0" fill="#2f3fbf"/><rect x="243.0" y="106.0" width="6.0" height="10.0" fill="#2f3fbf"/><rect x="255.0" y="106.0" width="6.0" height="10.0" fill="#2f3fbf"/><rect x="261.0" y="106.0" width="6.0" height="10.0" fill="#2f3fbf"/><rect x="261.0" y="136.0" width="6.0" height="10.0" fill="#2f3fbf"/><rect x="249.0" y="136.0" width="6.0" height="10.0" fill="#2f3fbf"/><rect x="225.0" y="136.0" width="6.0" height="10.0" fill="#2f3fbf"/><rect x="219.0" y="136.0" width="6.0" height="10.0" fill="#2f3fbf"/><rect x="213.0" y="136.0" width="6.0" height="10.0" fill="#2f3fbf"/><rect x="207.0" y="136.0" width="6.0" height="10.0" fill="#2f3fbf"/><rect x="207.0" y="126.0" width="6.0" height="10.0" fill="#2f3fbf"/><rect x="93.0" y="146.0" width="6.0" height="10.0" fill="#ffffff"/><rect x="105.0" y="146.0" width="6.0" height="10.0" fill="#ffffff"/><rect x="123.0" y="146.0" width="6.0" height="10.0" fill="#ffffff"/><rect x="129.0" y="146.0" width="6.0" height="10.0" fill="#ffffff"/><rect x="141.0" y="146.0" width="6.0" height="10.0" fill="#ffffff"/><rect x="141.0" y="176.0" width="6.0" height="10.0" fill="#ffffff"/><rect x="135.0" y="176.0" width="6.0" height="10.0" fill="#ffffff"/><rect x="123.0" y="176.0" width="6.0" height="10.0" fill="#ffffff"/><rect x="111.0" y="176.0" width="6.0" height="10.0" fill="#ffffff"/><rect x="93.0" y="176.0" width="6.0" height="10.0" fill="#ffffff"/><rect x="87.0" y="166.0" width="6.0" height="10.0" fill="#ffffff"/><rect x="147.0" y="146.0" width="6.0" height="10.0" fill="#e7be00"/><rect x="159.0" y="146.0" width="6.0" height="10.0" fill="#e7be00"/><rect x="177.0" y="146.0" width="6.0" height="10.0" fill="#e7be00"/><rect x="201.0" y="146.0" width="6.0" height="10.0" fill="#e7be00"/><rect x="201.0" y="156.0" width="6.0" height="10.0" fill="#e7be00"/><rect x="201.0" y="176.0" width="6.0" height="10.0" fill="#e7be00"/><rect x="195.0" y="176.0" width="6.0" height="10.0" fill="#e7be00"/><rect x="183.0" y="176.0" width="6.0" height="10.0" fill="#e7be00"/><rect x="165.0" y="176.0" width="6.0" height="10.0" fill="#e7be00"/><rect x="147.0" y="166.0" width="6.0" height="10.0" fill="#e7be00"/><rect x="207.0" y="146.0" width="6.0" height="10.0" fill="#e7be00"/><rect x="213.0" y="146.0" width="6.0" height="10.0" fill="#e7be00"/><rect x="225.0" y="146.0" width="6.0" height="10.0" fill="#e7be00"/><rect x="243.0" y="146.0" width="6.0" height="10.0" fill="#e7be00"/><rect x="255.0" y="146.0" width="6.0" height="10.0" fill="#e7be00"/><rect x="261.0" y="156.0" width="6.0" height="10.0" fill="#e7be00"/><rect x="261.0" y="166.0" width="6.0" height="10.0" fill="#e7be00"/><rect x="261.0" y="176.0" width="6.0" height="10.0" fill="#e7be00"/><rect x="255.0" y="176.0" width="6.0" height="10.0" fill="#e7be00"/><rect x="243.0" y="176.0" width="6.0" height="10.0" fill="#e7be00"/><rect x="231.0" y="176.0" width="6.0" height="10.0" fill="#e7be00"/><rect x="225.0" y="176.0" width="6.0" height="10.0" fill="#e7be00"/><rect x="219.0" y="176.0" width="6.0" height="10.0" fill="#e7be00"/><rect x="213.0" y="176.0" width="6.0" height="10.0" fill="#e7be00"/><rect x="207.0" y="176.0" width="6.0" height="10.0" fill="#e7be00"/><rect x="207.0" y="156.0" width="6.0" height="10.0" fill="#e7be00"/></g><g clip-path="url(#grid-clip-0505b85683fede30-4x4)" data-channel="ellipse" data-ellipse-anchor-x="207.0" data-ellipse-anchor-y="146.0" data-ellipse-rx="57.977264509460944" data-ellipse-ry="78.74523985613352" data-ellipse-rotation-deg="24.0"><ellipse cx="207.0" cy="146.0" rx="57.977264509460944" ry="78.74523985613352" transform="rotate(24.0 207.0 146.0)" fill="#000000" stroke="#000000" fill-opacity="0.25" stroke-opacity="0.35" stroke-width="2.0"/></g><g><g data-channel="cell" data-cell-index="0" data-cell-row="0" data-cell-col="0"><rect x="33.0" y="36.0" width="48.0" height="20.0" fill="#118a12"/><text x="57.0" y="46.0" fill="#ffffff" style="font-family: &quot;JetBrains Mono&quot;, &quot;Menlo&quot;, &quot;Consolas&quot;, &quot;DejaVu Sans Mono&quot;, &quot;Liberation Mono&quot;, &quot;Roboto Mono&quot;, &quot;Noto Sans Mono&quot;, monospace; font-size: 16.0px;" text-anchor="middle" dominant-baseline="central">CKFB</text></g><g data-channel="cell" data-cell-index="1" data-cell-row="0" data-cell-col="1" data-cell-quartile="1"><rect x="93.0" y="36.0" width="48.0" height="20.0" fill="#333122"/><text x="117.0" y="46.0" fill="#ffffff" style="font-family: &quot;JetBrains Mono&quot;, &quot;Menlo&quot;, &quot;Consolas&quot;, &quot;DejaVu Sans Mono&quot;, &quot;Liberation Mono&quot;, &quot;Roboto Mono&quot;, &quot;Noto Sans Mono&quot;, monospace; font-size: 16.0px;" text-anchor="middle" dominant-baseline="central">EIYT</text><polygon points="93.0,36.0 103.0,36.0 93.0,46.0" fill="#ffffff"/></g><g data-channel="cell" data-cell-index="2" data-cell-row="0" data-cell-col="2" data-cell-quartile="4"><rect x="153.0" y="36.0" width="48.0" height="20.0" fill="#11fb53"/><text x="177.0" y="46.0" fill="#000000" style="font-family: &quot;JetBrains Mono&quot;, &quot;Menlo&quot;, &quot;Consolas&quot;, &quot;DejaVu Sans Mono&quot;, &quot;Liberation Mono&quot;, &quot;Roboto Mono&quot;, &quot;Noto Sans Mono&quot;, monospace; font-size: 16.0px;" text-anchor="middle" dominant-baseline="central">KP5R</text><polygon points="153.0,56.0 153.0,46.0 163.0,56.0" fill="#000000"/></g><g data-channel="cell" data-cell-index="3" data-cell-row="0" data-cell-col="3" data-cell-quartile="3"><rect x="213.0" y="36.0" width="48.0" height="20.0" fill="#cc6018"/><text x="237.0" y="46.0" fill="#000000" style="font-family: &quot;JetBrains Mono&quot;, &quot;Menlo&quot;, &quot;Consolas&quot;, &quot;DejaVu Sans Mono&quot;, &quot;Liberation Mono&quot;, &quot;Roboto Mono&quot;, &quot;Noto Sans Mono&quot;, monospace; font-size: 16.0px;" text-anchor="middle" dominant-baseline="central">DBQM</text><polygon points="261.0,56.0 261.0,46.0 251.0,56.0" fill="#000000"/></g><g data-channel="cell" data-cell-index="4" data-cell-row="1" data-cell-col="0"><rect x="33.0" y="76.0" width="48.0" height="20.0" fill="#ffc0a4"/><text x="57.0" y="86.0" fill="#000000" style="font-family: &quot;JetBrains Mono&quot;, &quot;Menlo&quot;, &quot;Consolas&quot;, &quot;DejaVu Sans Mono&quot;, &quot;Liberation Mono&quot;, &quot;Roboto Mono&quot;, &quot;Noto Sans Mono&quot;, monospace; font-size: 16.0px;" text-anchor="middle" dominant-baseline="central">UTAP</text></g><g data-channel="cell" data-cell-index="5" data-cell-row="1" data-cell-col="1"><rect x="93.0" y="76.0" width="48.0" height="20.0" fill="#778618"/><text x="117.0" y="86.0" fill="#ffffff" style="font-family: &quot;JetBrains Mono&quot;, &quot;Menlo&quot;, &quot;Consolas&quot;, &quot;DejaVu Sans Mono&quot;, &quot;Liberation Mono&quot;, &quot;Roboto Mono&quot;, &quot;Noto Sans Mono&quot;, monospace; font-size: 16.0px;" text-anchor="middle" dominant-baseline="central">DCDH</text></g><g data-channel="cell" data-cell-index="6" data-cell-row="1" data-cell-col="2"><rect x="153.0" y="76.0" width="48.0" height="20.0" fill="#11a72e"/><text x="177.0" y="86.0" fill="#000000" style="font-family: &quot;JetBrains Mono&quot;, &quot;Menlo&quot;, &quot;Consolas&quot;, &quot;DejaVu Sans Mono&quot;, &quot;Liberation Mono&quot;, &quot;Roboto Mono&quot;, &quot;Noto Sans Mono&quot;, monospace; font-size: 16.0px;" text-anchor="middle" dominant-baseline="central">F2TR</text></g><g data-channel="cell" data-cell-index="7" data-cell-row="1" data-cell-col="3"><rect x="213.0" y="76.0" width="48.0" height="20.0" fill="#dddee2"/><text x="237.0" y="86.0" fill="#000000" style="font-family: &quot;JetBrains Mono&quot;, &quot;Menlo&quot;, &quot;Consolas&quot;, &quot;DejaVu Sans Mono&quot;, &quot;Liberation Mono&quot;, &quot;Roboto Mono&quot;, &quot;Noto Sans Mono&quot;, monospace; font-size: 16.0px;" text-anchor="middle" dominant-baseline="central">4LPN</text></g><g data-channel="cell" data-cell-index="8" data-cell-row="2" data-cell-col="0" data-cell-blank="true" data-cell-blank-map="true"><rect x="33.0" y="116.0" width="48.0" height="20.0" rx="10.0" ry="10.0" fill="#ffffff" stroke="#000000" stroke-width="1"/><circle cx="39.0" cy="118.5" r="3.5" fill="#1d4ed8" data-blank-map-min="0,0"/><path d="M 70.8,123.5 H 79.2 M 75.0,119.3 V 127.7" fill="none" stroke="#d62828" stroke-width="1.9250000000000003" stroke-linecap="butt" data-blank-map-max="1,3"/></g><g data-channel="cell" data-cell-index="9" data-cell-row="2" data-cell-col="1"><rect x="93.0" y="116.0" width="48.0" height="20.0" fill="#ccad89"/><text x="117.0" y="126.0" fill="#000000" style="font-family: &quot;JetBrains Mono&quot;, &quot;Menlo&quot;, &quot;Consolas&quot;, &quot;DejaVu Sans Mono&quot;, &quot;Liberation Mono&quot;, &quot;Roboto Mono&quot;, &quot;Noto Sans Mono&quot;, monospace; font-size: 16.0px;" text-anchor="middle" dominant-baseline="central">RGW4</text></g><g data-channel="cell" data-cell-index="10" data-cell-row="2" data-cell-col="2" data-cell-quartile="2"><rect x="153.0" y="116.0" width="48.0" height="20.0" fill="#006148"/><text x="177.0" y="126.0" fill="#ffffff" style="font-family: &quot;JetBrains Mono&quot;, &quot;Menlo&quot;, &quot;Consolas&quot;, &quot;DejaVu Sans Mono&quot;, &quot;Liberation Mono&quot;, &quot;Roboto Mono&quot;, &quot;Noto Sans Mono&quot;, monospace; font-size: 16.0px;" text-anchor="middle" dominant-baseline="central">JBQQ</text><polygon points="201.0,116.0 191.0,116.0 201.0,126.0" fill="#ffffff"/></g><g data-channel="cell" data-cell-index="11" data-cell-row="2" data-cell-col="3"><rect x="213.0" y="116.0" width="48.0" height="20.0" fill="#88299c"/><text x="237.0" y="126.0" fill="#ffffff" style="font-family: &quot;JetBrains Mono&quot;, &quot;Menlo&quot;, &quot;Consolas&quot;, &quot;DejaVu Sans Mono&quot;, &quot;Liberation Mono&quot;, &quot;Roboto Mono&quot;, &quot;Noto Sans Mono&quot;, monospace; font-size: 16.0px;" text-anchor="middle" dominant-baseline="central">TQUY</text></g><g data-channel="cell" data-cell-index="12" data-cell-row="3" data-cell-col="0" data-cell-blank="true"><rect x="33.0" y="156.0" width="48.0" height="20.0" rx="10.0" ry="10.0" fill="none" stroke="#000000" stroke-width="1"/></g><g data-channel="cell" data-cell-index="13" data-cell-row="3" data-cell-col="1"><rect x="93.0" y="156.0" width="48.0" height="20.0" fill="#bbf8cb"/><text x="117.0" y="166.0" fill="#000000" style="font-family: &quot;JetBrains Mono&quot;, &quot;Menlo&quot;, &quot;Consolas&quot;, &quot;DejaVu Sans Mono&quot;, &quot;Liberation Mono&quot;, &quot;Roboto Mono&quot;, &quot;Noto Sans Mono&quot;, monospace; font-size: 16.0px;" text-anchor="middle" dominant-baseline="central">ZP4L</text></g><g data-channel="cell" data-cell-index="14" data-cell-row="3" data-cell-col="2"><rect x="153.0" y="156.0" width="48.0" height="20.0" fill="#bb9f1a"/><text x="177.0" y="166.0" fill="#000000" style="font-family: &quot;JetBrains Mono&quot;, &quot;Menlo&quot;, &quot;Consolas&quot;, &quot;DejaVu Sans Mono&quot;, &quot;Liberation Mono&quot;, &quot;Roboto Mono&quot;, &quot;Noto Sans Mono&quot;, monospace; font-size: 16.0px;" text-anchor="middle" dominant-baseline="central">DKP3</text></g><g data-channel="cell" data-cell-index="15" data-cell-row="3" data-cell-col="3"><rect x="213.0" y="156.0" width="48.0" height="20.0" fill="#cc9891"/><text x="237.0" y="166.0" fill="#000000" style="font-family: &quot;JetBrains Mono&quot;, &quot;Menlo&quot;, &quot;Consolas&quot;, &quot;DejaVu Sans Mono&quot;, &quot;Liberation Mono&quot;, &quot;Roboto Mono&quot;, &quot;Noto Sans Mono&quot;, monospace; font-size: 16.0px;" text-anchor="middle" dominant-baseline="central">SGM</text></g></g></g><g data-channel="color-bar" data-bar-slots="15" data-bar-marker-left="9" data-bar-marker-right="5"><g data-color-bar-rank="0" data-color-bar-band="G"><rect x="1" y="1" width="20.0" height="41.45929267410087" fill="#e7be00"/><text x="11.0" y="38.93929267410087" fill="#000000" style="font-family: &quot;JetBrains Mono&quot;, &quot;Menlo&quot;, &quot;Consolas&quot;, &quot;DejaVu Sans Mono&quot;, &quot;Liberation Mono&quot;, &quot;Roboto Mono&quot;, &quot;Noto Sans Mono&quot;, monospace; font-size: 16.0px;" text-anchor="middle" data-color-bar-letter="true">g</text></g><g data-color-bar-rank="1" data-color-bar-band="W"><rect x="1" y="42.45929267410087" width="20.0" height="74.73966227991366" fill="#ffffff"/><text x="11.0" y="113.67895495401454" fill="#000000" style="font-family: &quot;JetBrains Mono&quot;, &quot;Menlo&quot;, &quot;Consolas&quot;, &quot;DejaVu Sans Mono&quot;, &quot;Liberation Mono&quot;, &quot;Roboto Mono&quot;, &quot;Noto Sans Mono&quot;, monospace; font-size: 16.0px;" text-anchor="middle" data-color-bar-letter="true">w</text></g><g data-color-bar-rank="2" data-color-bar-band="B"><rect x="1" y="117.19895495401454" width="20.0" height="20.766493430564076" fill="#2f3fbf"/><text x="11.0" y="134.4454483845786" fill="#ffffff" style="font-family: &quot;JetBrains Mono&quot;, &quot;Menlo&quot;, &quot;Consolas&quot;, &quot;DejaVu Sans Mono&quot;, &quot;Liberation Mono&quot;, &quot;Roboto Mono&quot;, &quot;Noto Sans Mono&quot;, monospace; font-size: 16.0px;" text-anchor="middle" data-color-bar-letter="true">b</text></g><g data-color-bar-rank="3" data-color-bar-band="K"><rect x="1" y="137.96544838457862" width="20.0" height="53.03455161542138" fill="#000000"/><text x="11.0" y="187.48" fill="#ffffff" style="font-family: &quot;JetBrains Mono&quot;, &quot;Menlo&quot;, &quot;Consolas&quot;, &quot;DejaVu Sans Mono&quot;, &quot;Liberation Mono&quot;, &quot;Roboto Mono&quot;, &quot;Noto Sans Mono&quot;, monospace; font-size: 16.0px;" text-anchor="middle" data-color-bar-letter="true">k</text></g><circle cx="5.6000000000000005" cy="121.33333333333333" r="3.4000000000000004" fill="#ffffff" stroke="#000000" stroke-width="0.75" data-bar-marker="left"/><circle cx="16.4" cy="70.66666666666666" r="3.4000000000000004" fill="#ffffff" stroke="#000000" stroke-width="0.75" data-bar-marker="right"/></g><g data-channel="label-top"><text x="27.0" y="16.0" fill="#666666" style="font-family: &quot;JetBrains Mono&quot;, &quot;Menlo&quot;, &quot;Consolas&quot;, &quot;DejaVu Sans Mono&quot;, &quot;Liberation Mono&quot;, &quot;Roboto Mono&quot;, &quot;Noto Sans Mono&quot;, monospace; font-size: 12.0px;" dominant-baseline="central">XLM: G...</text></g><line x1="0" y1="0.5" x2="273.0" y2="0.5" stroke="#808080" stroke-width="1" shape-rendering="crispEdges"/><line x1="272.5" y1="0" x2="272.5" y2="192.0" stroke="#808080" stroke-width="1" shape-rendering="crispEdges"/><line x1="0" y1="191.5" x2="273.0" y2="191.5" stroke="#808080" stroke-width="1" shape-rendering="crispEdges"/><line x1="0.5" y1="0" x2="0.5" y2="192.0" stroke="#808080" stroke-width="1" shape-rendering="crispEdges"/><line x1="21.5" y1="0" x2="21.5" y2="192.0" stroke="#808080" stroke-width="1" shape-rendering="crispEdges"/></svg>