<svg width="143.0" height="117.0" xmlns="http://www.w3.org/2000/svg"><defs><clipPath id="grid-clip-38f16bf2-2x2"><rect x="17.0" y="31.0" width="120.0" height="80.0"/></clipPath></defs><rect x="0" y="0" width="143.0" height="117.0" fill="#ffffff"/><rect x="17.0" y="31.0" width="120.0" height="80.0" fill="#2f3fbf"/><rect x="17.0" y="31.0" width="6.0" height="10.0" fill="#ff3f2f"/><rect x="23.0" y="31.0" width="6.0" height="10.0" fill="#ff3f2f"/><rect x="35.0" y="31.0" width="6.0" height="10.0" fill="#ff3f2f"/><rect x="47.0" y="31.0" width="6.0" height="10.0" fill="#ff3f2f"/><rect x="53.0" y="31.0" width="6.0" height="10.0" fill="#ff3f2f"/><rect x="65.0" y="31.0" width="6.0" height="10.0" fill="#ff3f2f"/><rect x="71.0" y="61.0" width="6.0" height="10.0" fill="#ff3f2f"/><rect x="65.0" y="61.0" width="6.0" height="10.0" fill="#ff3f2f"/><rect x="59.0" y="61.0" width="6.0" height="10.0" fill="#ff3f2f"/><rect x="53.0" y="61.0" width="6.0" height="10.0" fill="#ff3f2f"/><rect x="29.0" y="61.0" width="6.0" height="10.0" fill="#ff3f2f"/><rect x="23.0" y="61.0" width="6.0" height="10.0" fill="#ff3f2f"/><rect x="17.0" y="61.0" width="6.0" height="10.0" fill="#ff3f2f"/><rect x="77.0" y="31.0" width="6.0" height="10.0" fill="#000000"/><rect x="89.0" y="31.0" width="6.0" height="10.0" fill="#000000"/><rect x="101.0" y="31.0" width="6.0" height="10.0" fill="#000000"/><rect x="119.0" y="31.0" width="6.0" height="10.0" fill="#000000"/><rect x="131.0" y="31.0" width="6.0" height="10.0" fill="#000000"/><rect x="131.0" y="41.0" width="6.0" height="10.0" fill="#000000"/><rect x="131.0" y="61.0" width="6.0" height="10.0" fill="#000000"/><rect x="125.0" y="61.0" width="6.0" height="10.0" fill="#000000"/><rect x="119.0" y="61.0" width="6.0" height="10.0" fill="#000000"/><rect x="113.0" y="61.0" width="6.0" height="10.0" fill="#000000"/><rect x="101.0" y="61.0" width="6.0" height="10.0" fill="#000000"/><rect x="83.0" y="61.0" width="6.0" height="10.0" fill="#000000"/><rect x="77.0" y="61.0" width="6.0" height="10.0" fill="#000000"/><rect x="77.0" y="51.0" width="6.0" height="10.0" fill="#000000"/><rect x="77.0" y="41.0" width="6.0" height="10.0" fill="#000000"/><rect x="23.0" y="71.0" width="6.0" height="10.0" fill="#ff3f2f"/><rect x="29.0" y="71.0" width="6.0" height="10.0" fill="#ff3f2f"/><rect x="47.0" y="71.0" width="6.0" height="10.0" fill="#ff3f2f"/><rect x="53.0" y="71.0" width="6.0" height="10.0" fill="#ff3f2f"/><rect x="65.0" y="71.0" width="6.0" height="10.0" fill="#ff3f2f"/><rect x="71.0" y="71.0" width="6.0" height="10.0" fill="#ff3f2f"/><rect x="71.0" y="91.0" width="6.0" height="10.0" fill="#ff3f2f"/><rect x="71.0" y="101.0" width="6.0" height="10.0" fill="#ff3f2f"/><rect x="65.0" y="101.0" width="6.0" height="10.0" fill="#ff3f2f"/><rect x="47.0" y="101.0" width="6.0" height="10.0" fill="#ff3f2f"/><rect x="41.0" y="101.0" width="6.0" height="10.0" fill="#ff3f2f"/><rect x="29.0" y="101.0" width="6.0" height="10.0" fill="#ff3f2f"/><rect x="23.0" y="101.0" width="6.0" height="10.0" fill="#ff3f2f"/><rect x="17.0" y="81.0" width="6.0" height="10.0" fill="#ff3f2f"/><rect x="89.0" y="71.0" width="6.0" height="10.0" fill="#000000"/><rect x="95.0" y="71.0" width="6.0" height="10.0" fill="#000000"/><rect x="107.0" y="71.0" width="6.0" height="10.0" fill="#000000"/><rect x="113.0" y="71.0" width="6.0" height="10.0" fill="#000000"/><rect x="125.0" y="71.0" width="6.0" height="10.0" fill="#000000"/><rect x="131.0" y="71.0" width="6.0" height="10.0" fill="#000000"/><rect x="125.0" y="101.0" width="6.0" height="10.0" fill="#000000"/><rect x="119.0" y="101.0" width="6.0" height="10.0" fill="#000000"/><rect x="113.0" y="101.0" width="6.0" height="10.0" fill="#000000"/><rect x="101.0" y="101.0" width="6.0" height="10.0" fill="#000000"/><rect x="95.0" y="101.0" width="6.0" height="10.0" fill="#000000"/><rect x="89.0" y="101.0" width="6.0" height="10.0" fill="#000000"/><rect x="77.0" y="101.0" width="6.0" height="10.0" fill="#000000"/><rect x="77.0" y="91.0" width="6.0" height="10.0" fill="#000000"/><g clip-path="url(#grid-clip-38f16bf2-2x2)"><ellipse cx="17.0" cy="31.0" rx="40.0" ry="75.37764081484767" transform="rotate(60.0 17.0 31.0)" fill="#ffffff" fill-opacity="0.4"/></g><rect x="23.0" y="41.0" width="48.0" height="20.0" fill="#6c6568"/><text x="47.0" y="51.0" fill="#ffffff" style="font-family: monospace; font-size: 16.0px;" text-anchor="middle" dominant-baseline="central">aGVs</text><rect x="83.0" y="41.0" width="48.0" height="20.0" fill="#206f6c"/><text x="107.0" y="51.0" fill="#ffffff" style="font-family: monospace; font-size: 16.0px;" text-anchor="middle" dominant-baseline="central">bG8g</text><rect x="23.0" y="81.0" width="48.0" height="20.0" fill="#726f77"/><text x="47.0" y="91.0" fill="#ffffff" style="font-family: monospace; font-size: 16.0px;" text-anchor="middle" dominant-baseline="central">d29y</text><rect x="83.0" y="81.0" width="48.0" height="20.0" fill="#10646c"/><text x="107.0" y="91.0" fill="#ffffff" style="font-family: monospace; font-size: 16.0px;" text-anchor="middle" dominant-baseline="central">bGQ</text><polygon points="83.0,41.0 93.0,41.0 83.0,51.0" fill="#ffffff"/><polygon points="71.0,81.0 61.0,81.0 71.0,91.0" fill="#ffffff"/><polygon points="71.0,61.0 71.0,51.0 61.0,61.0" fill="#ffffff"/><polygon points="83.0,101.0 83.0,91.0 93.0,101.0" fill="#ffffff"/><rect x="1" y="1" width="10.0" height="44.34230501332109" fill="#ff3f2f"/><rect x="1" y="45.34230501332109" width="10.0" height="25.992645101802715" fill="#ffffff"/><rect x="1" y="71.3349501151238" width="10.0" height="25.992645101802715" fill="#000000"/><rect x="1" y="97.32759521692651" width="10.0" height="18.67240478307349" fill="#ffd966"/><text x="17.0" y="16.0" fill="#666666" style="font-family: monospace; font-size: 12.0px;" dominant-baseline="central">txt(11)-&gt;b64url:</text><line x1="0" y1="0.5" x2="143.0" y2="0.5" stroke="#808080" stroke-width="1" shape-rendering="crispEdges"/><line x1="142.5" y1="0" x2="142.5" y2="117.0" stroke="#808080" stroke-width="1" shape-rendering="crispEdges"/><line x1="0" y1="116.5" x2="143.0" y2="116.5" stroke="#808080" stroke-width="1" shape-rendering="crispEdges"/><line x1="0.5" y1="0" x2="0.5" y2="117.0" stroke="#808080" stroke-width="1" shape-rendering="crispEdges"/><line x1="11.5" y1="0" x2="11.5" y2="117.0" stroke="#808080" stroke-width="1" shape-rendering="crispEdges"/></svg>