<svg width="273" height="192" viewBox="0 0 273 192" xmlns="http://www.w3.org/2000/svg" font-family="&quot;JetBrains Mono&quot;, &quot;Menlo&quot;, &quot;Consolas&quot;, &quot;DejaVu Sans Mono&quot;, &quot;Liberation Mono&quot;, &quot;Roboto Mono&quot;, &quot;Noto Sans Mono&quot;, monospace" data-entviz-version="v11" data-entviz-lib="0.10.0" data-input-bytes="56" data-cols="4" data-rows="4"><defs><clipPath id="grid-clip-0505b85683fede30-4x4"><rect x="27" y="26" width="240" height="160"/></clipPath></defs><rect x="0" y="0" width="273" height="192" fill="#ffffff"/><g data-channel="grid"><rect x="27" y="26" width="240" height="160" fill="#ff3f2f"/><g><path fill="#ffffff" d="M45 26h6v10h-6zM51 26h6v10h-6zM57 26h6v10h-6zM69 26h6v10h-6zM75 26h6v10h-6zM81 36h6v10h-6zM57 56h6v10h-6zM45 56h6v10h-6z"/><path fill="#2f3fbf" d="M93 26h6v10h-6zM99 26h6v10h-6zM105 26h6v10h-6zM111 26h6v10h-6zM117 26h6v10h-6zM123 26h6v10h-6zM129 26h6v10h-6zM135 26h6v10h-6zM141 26h6v10h-6zM123 56h6v10h-6zM111 56h6v10h-6zM105 56h6v10h-6zM93 56h6v10h-6zM87 46h6v10h-6z"/><path fill="#e7be00" d="M171 26h6v10h-6zM177 26h6v10h-6zM183 26h6v10h-6zM201 56h6v10h-6zM195 56h6v10h-6zM171 56h6v10h-6zM165 56h6v10h-6zM159 56h6v10h-6zM153 56h6v10h-6zM147 46h6v10h-6zM147 36h6v10h-6z"/><path fill="#e7be00" d="M213 26h6v10h-6zM225 26h6v10h-6zM243 26h6v10h-6zM249 26h6v10h-6zM255 26h6v10h-6zM261 26h6v10h-6zM219 56h6v10h-6zM213 56h6v10h-6zM207 56h6v10h-6zM207 36h6v10h-6z"/><path fill="#ffffff" d="M63 66h6v10h-6zM69 66h6v10h-6zM81 86h6v10h-6zM69 96h6v10h-6zM63 96h6v10h-6zM57 96h6v10h-6zM45 96h6v10h-6zM33 96h6v10h-6zM27 76h6v10h-6z"/><path fill="#e7be00" d="M111 66h6v10h-6zM117 66h6v10h-6zM123 66h6v10h-6zM141 96h6v10h-6zM135 96h6v10h-6zM117 96h6v10h-6zM111 96h6v10h-6zM87 86h6v10h-6z"/><path fill="#e7be00" d="M159 66h6v10h-6zM189 66h6v10h-6zM195 66h6v10h-6zM201 86h6v10h-6zM201 96h6v10h-6zM195 96h6v10h-6zM183 96h6v10h-6zM177 96h6v10h-6zM171 96h6v10h-6zM165 96h6v10h-6zM159 96h6v10h-6zM153 96h6v10h-6z"/><path fill="#ffffff" d="M207 66h6v10h-6zM213 66h6v10h-6zM219 66h6v10h-6zM243 66h6v10h-6zM261 66h6v10h-6zM261 76h6v10h-6zM261 86h6v10h-6zM261 96h6v10h-6zM255 96h6v10h-6zM237 96h6v10h-6zM231 96h6v10h-6zM219 96h6v10h-6zM207 96h6v10h-6zM207 86h6v10h-6zM207 76h6v10h-6z"/><path fill="#e7be00" d="M87 106h6v10h-6zM99 106h6v10h-6zM105 106h6v10h-6zM117 106h6v10h-6zM123 106h6v10h-6zM129 106h6v10h-6zM135 106h6v10h-6zM141 116h6v10h-6zM123 136h6v10h-6zM117 136h6v10h-6zM111 136h6v10h-6zM105 136h6v10h-6zM87 126h6v10h-6zM87 116h6v10h-6z"/><path fill="#000000" d="M147 106h6v10h-6zM153 106h6v10h-6zM183 106h6v10h-6zM195 106h6v10h-6zM201 106h6v10h-6zM201 116h6v10h-6zM201 126h6v10h-6zM201 136h6v10h-6zM171 136h6v10h-6zM147 116h6v10h-6z"/><path fill="#2f3fbf" d="M219 106h6v10h-6zM225 106h6v10h-6zM231 106h6v10h-6zM237 106h6v10h-6zM243 106h6v10h-6zM255 106h6v10h-6zM261 106h6v10h-6zM261 136h6v10h-6zM249 136h6v10h-6zM225 136h6v10h-6zM219 136h6v10h-6zM213 136h6v10h-6zM207 136h6v10h-6zM207 126h6v10h-6z"/><path fill="#ffffff" d="M93 146h6v10h-6zM105 146h6v10h-6zM123 146h6v10h-6zM129 146h6v10h-6zM141 146h6v10h-6zM141 176h6v10h-6zM135 176h6v10h-6zM123 176h6v10h-6zM111 176h6v10h-6zM93 176h6v10h-6zM87 166h6v10h-6z"/><path fill="#e7be00" d="M147 146h6v10h-6zM159 146h6v10h-6zM177 146h6v10h-6zM201 146h6v10h-6zM201 156h6v10h-6zM201 176h6v10h-6zM195 176h6v10h-6zM183 176h6v10h-6zM165 176h6v10h-6zM147 166h6v10h-6z"/><path fill="#e7be00" d="M207 146h6v10h-6zM213 146h6v10h-6zM225 146h6v10h-6zM243 146h6v10h-6zM255 146h6v10h-6zM261 156h6v10h-6zM261 166h6v10h-6zM261 176h6v10h-6zM255 176h6v10h-6zM243 176h6v10h-6zM231 176h6v10h-6zM225 176h6v10h-6zM219 176h6v10h-6zM213 176h6v10h-6zM207 176h6v10h-6zM207 156h6v10h-6z"/></g><g clip-path="url(#grid-clip-0505b85683fede30-4x4)" data-channel="ellipse" data-ellipse-anchor-x="207" data-ellipse-anchor-y="146" data-ellipse-rx="57.977" data-ellipse-ry="78.745" data-ellipse-rotation-deg="24"><ellipse cx="207" cy="146" rx="57.977" ry="78.745" transform="rotate(24 207 146)" fill="#000000" stroke="#000000" fill-opacity="0.25" stroke-opacity="0.35" stroke-width="2"/></g><g><g data-channel="cell" data-cell-index="0" data-cell-row="0" data-cell-col="0" data-surround-bits="0x505b8" data-edge-color="#ffffff"><rect x="33" y="36" width="48" height="20" fill="#118a12"/><text x="57" y="46" fill="#ffffff" font-size="16" text-anchor="middle" dominant-baseline="central">CKFB</text></g><g data-channel="cell" data-cell-index="1" data-cell-row="0" data-cell-col="1" data-surround-bits="0x5683fe" data-edge-color="#2f3fbf" data-cell-quartile="1"><rect x="93" y="36" width="48" height="20" fill="#333122"/><text x="117" y="46" fill="#ffffff" font-size="16" text-anchor="middle" dominant-baseline="central">EIYT</text><polygon points="93,36 103,36 93,46" fill="#ffffff"/></g><g data-channel="cell" data-cell-index="2" data-cell-row="0" data-cell-col="2" data-surround-bits="0xde3070" data-edge-color="#e7be00" data-cell-quartile="4"><rect x="153" y="36" width="48" height="20" fill="#11fb53"/><text x="177" y="46" fill="#000000" font-size="16" text-anchor="middle" dominant-baseline="central">KP5R</text><polygon points="153,56 153,46 163,56" fill="#000000"/></g><g data-channel="cell" data-cell-index="3" data-cell-row="0" data-cell-col="3" data-surround-bits="0xb803ca" data-edge-color="#e7be00" data-cell-quartile="3"><rect x="213" y="36" width="48" height="20" fill="#cc6018"/><text x="237" y="46" fill="#000000" font-size="16" text-anchor="middle" dominant-baseline="central">DBQM</text><polygon points="261,56 261,46 251,56" fill="#000000"/></g><g data-channel="cell" data-cell-index="4" data-cell-row="1" data-cell-col="0" data-surround-bits="0x95c8c0" data-edge-color="#ffffff"><rect x="33" y="76" width="48" height="20" fill="#ffc0a4"/><text x="57" y="86" fill="#000000" font-size="16" text-anchor="middle" dominant-baseline="central">UTAP</text></g><g data-channel="cell" data-cell-index="5" data-cell-row="1" data-cell-col="1" data-surround-bits="0x433070" data-edge-color="#e7be00"><rect x="93" y="76" width="48" height="20" fill="#778618"/><text x="117" y="86" fill="#ffffff" font-size="16" text-anchor="middle" dominant-baseline="central">DCDH</text></g><g data-channel="cell" data-cell-index="6" data-cell-row="1" data-cell-col="2" data-surround-bits="0x1fb984" data-edge-color="#e7be00"><rect x="153" y="76" width="48" height="20" fill="#11a72e"/><text x="177" y="86" fill="#000000" font-size="16" text-anchor="middle" dominant-baseline="central">F2TR</text></g><g data-channel="cell" data-cell-index="7" data-cell-row="1" data-cell-col="3" data-surround-bits="0xeb3e47" data-edge-color="#ffffff"><rect x="213" y="76" width="48" height="20" fill="#dddee2"/><text x="237" y="86" fill="#000000" font-size="16" text-anchor="middle" dominant-baseline="central">4LPN</text></g><g data-channel="cell" data-cell-index="8" data-cell-row="2" data-cell-col="0" data-cell-blank="true" data-cell-blank-map="true"><rect x="33" y="116" width="48" height="20" rx="10" ry="10" fill="#ffffff" stroke="#000000" stroke-width="1"/><circle cx="39" cy="118.5" r="3.5" fill="#1d4ed8" data-blank-map-min="0,0"/><path d="M 70.8,123.5 H 79.2 M 75,119.3 V 127.7" fill="none" stroke="#d62828" stroke-width="1.925" stroke-linecap="butt" data-blank-map-max="1,3"/></g><g data-channel="cell" data-cell-index="9" data-cell-row="2" data-cell-col="1" data-surround-bits="0xc785ed" data-edge-color="#e7be00"><rect x="93" y="116" width="48" height="20" fill="#ccad89"/><text x="117" y="126" fill="#000000" font-size="16" text-anchor="middle" dominant-baseline="central">RGW4</text></g><g data-channel="cell" data-cell-index="10" data-cell-row="2" data-cell-col="2" data-surround-bits="0x821f43" data-edge-color="#000000" data-cell-quartile="2"><rect x="153" y="116" width="48" height="20" fill="#006148"/><text x="177" y="126" fill="#ffffff" font-size="16" text-anchor="middle" dominant-baseline="central">JBQQ</text><polygon points="201,116 191,116 201,126" fill="#ffffff"/></g><g data-channel="cell" data-cell-index="11" data-cell-row="2" data-cell-col="3" data-surround-bits="0x7c537c" data-edge-color="#2f3fbf"><rect x="213" y="116" width="48" height="20" fill="#88299c"/><text x="237" y="126" fill="#ffffff" font-size="16" text-anchor="middle" dominant-baseline="central">TQUY</text></g><g data-channel="cell" data-cell-index="12" data-cell-row="3" data-cell-col="0" data-cell-blank="true"><rect x="33" y="156" width="48" height="20" rx="10" ry="10" fill="#ffffff" stroke="#000000" stroke-width="1"/></g><g data-channel="cell" data-cell-index="13" data-cell-row="3" data-cell-col="1" data-surround-bits="0x52b2ca" data-edge-color="#ffffff"><rect x="93" y="156" width="48" height="20" fill="#bbf8cb"/><text x="117" y="166" fill="#000000" font-size="16" text-anchor="middle" dominant-baseline="central">ZP4L</text></g><g data-channel="cell" data-cell-index="14" data-cell-row="3" data-cell-col="2" data-surround-bits="0x44b625" data-edge-color="#e7be00"><rect x="153" y="156" width="48" height="20" fill="#bb9f1a"/><text x="177" y="166" fill="#000000" font-size="16" text-anchor="middle" dominant-baseline="central">DKP3</text></g><g data-channel="cell" data-cell-index="15" data-cell-row="3" data-cell-col="3" data-surround-bits="0xbebd4b" data-edge-color="#e7be00"><rect x="213" y="156" width="48" height="20" fill="#cc9891"/><text x="237" y="166" fill="#000000" font-size="16" text-anchor="middle" dominant-baseline="central">SGM</text></g></g></g><g data-channel="color-bar" data-bar-slots="15" data-bar-marker-left="9" data-bar-marker-right="5"><g data-color-bar-rank="0" data-color-bar-band="G"><rect x="1" y="1" width="20" height="41.459" fill="#e7be00"/><text x="11" y="38.939" fill="#000000" font-size="16" text-anchor="middle" data-color-bar-letter="true">g</text></g><g data-color-bar-rank="1" data-color-bar-band="W"><rect x="1" y="42.459" width="20" height="74.74" fill="#ffffff"/><text x="11" y="113.679" fill="#000000" font-size="16" text-anchor="middle" data-color-bar-letter="true">w</text></g><g data-color-bar-rank="2" data-color-bar-band="B"><rect x="1" y="117.199" width="20" height="20.766" fill="#2f3fbf"/><text x="11" y="134.445" fill="#ffffff" font-size="16" text-anchor="middle" data-color-bar-letter="true">b</text></g><g data-color-bar-rank="3" data-color-bar-band="K"><rect x="1" y="137.965" width="20" height="53.035" fill="#000000"/><text x="11" y="187.48" fill="#ffffff" font-size="16" text-anchor="middle" data-color-bar-letter="true">k</text></g><circle cx="5.6" cy="121.333" r="3.4" fill="#ffffff" stroke="#000000" stroke-width="0.75" data-bar-marker="left"/><circle cx="16.4" cy="70.667" r="3.4" fill="#ffffff" stroke="#000000" stroke-width="0.75" data-bar-marker="right"/></g><g data-channel="label-top"><text x="27" y="16" fill="#666666" font-size="12" dominant-baseline="central">XLM: G...</text></g><line x1="0" y1="0.5" x2="273" y2="0.5" stroke="#808080" stroke-width="1" shape-rendering="crispEdges"/><line x1="272.5" y1="0" x2="272.5" y2="192" stroke="#808080" stroke-width="1" shape-rendering="crispEdges"/><line x1="0" y1="191.5" x2="273" y2="191.5" stroke="#808080" stroke-width="1" shape-rendering="crispEdges"/><line x1="0.5" y1="0" x2="0.5" y2="192" stroke="#808080" stroke-width="1" shape-rendering="crispEdges"/><line x1="21.5" y1="0" x2="21.5" y2="192" stroke="#808080" stroke-width="1" shape-rendering="crispEdges"/></svg>