<svg width="143.0" height="142.0" viewBox="0 0 143.0 142.0" xmlns="http://www.w3.org/2000/svg" data-entviz-version="v5" data-input-bytes="20" data-cols="2" data-rows="2"><defs><clipPath id="grid-clip-f9a80fa20c5222d1-2x2"><rect x="17.0" y="31.0" width="120.0" height="80.0"/></clipPath></defs><rect x="0" y="0" width="143.0" height="142.0" fill="#ffffff"/><g data-channel="grid"><rect x="17.0" y="31.0" width="120.0" height="80.0" fill="#ffffff"/><g><rect x="17.0" y="31.0" width="6.0" height="10.0" fill="#ffd966"/><rect x="23.0" y="31.0" width="6.0" height="10.0" fill="#ffd966"/><rect x="29.0" y="31.0" width="6.0" height="10.0" fill="#ffd966"/><rect x="35.0" y="31.0" width="6.0" height="10.0" fill="#ffd966"/><rect x="71.0" y="51.0" width="6.0" height="10.0" fill="#ffd966"/><rect x="65.0" y="61.0" width="6.0" height="10.0" fill="#ffd966"/><rect x="53.0" y="61.0" width="6.0" height="10.0" fill="#ffd966"/><rect x="47.0" y="61.0" width="6.0" height="10.0" fill="#ffd966"/><rect x="29.0" y="61.0" width="6.0" height="10.0" fill="#ffd966"/><rect x="23.0" y="61.0" width="6.0" height="10.0" fill="#ffd966"/><rect x="17.0" y="61.0" width="6.0" height="10.0" fill="#ffd966"/><rect x="17.0" y="51.0" width="6.0" height="10.0" fill="#ffd966"/><rect x="17.0" y="41.0" width="6.0" height="10.0" fill="#ffd966"/><rect x="83.0" y="31.0" width="6.0" height="10.0" fill="#ff3f2f"/><rect x="101.0" y="31.0" width="6.0" height="10.0" fill="#ff3f2f"/><rect x="113.0" y="31.0" width="6.0" height="10.0" fill="#ff3f2f"/><rect x="131.0" y="41.0" width="6.0" height="10.0" fill="#ff3f2f"/><rect x="131.0" y="51.0" width="6.0" height="10.0" fill="#ff3f2f"/><rect x="101.0" y="61.0" width="6.0" height="10.0" fill="#ff3f2f"/><rect x="77.0" y="61.0" width="6.0" height="10.0" fill="#ff3f2f"/><rect x="77.0" y="41.0" width="6.0" height="10.0" fill="#ff3f2f"/><rect x="101.0" y="71.0" width="6.0" height="10.0" fill="#ffd966"/><rect x="107.0" y="71.0" width="6.0" height="10.0" fill="#ffd966"/><rect x="119.0" y="71.0" width="6.0" height="10.0" fill="#ffd966"/><rect x="125.0" y="71.0" width="6.0" height="10.0" fill="#ffd966"/><rect x="131.0" y="101.0" width="6.0" height="10.0" fill="#ffd966"/><rect x="119.0" y="101.0" width="6.0" height="10.0" fill="#ffd966"/><rect x="113.0" y="101.0" width="6.0" height="10.0" fill="#ffd966"/><rect x="101.0" y="101.0" width="6.0" height="10.0" fill="#ffd966"/><rect x="77.0" y="101.0" width="6.0" height="10.0" fill="#ffd966"/></g><g clip-path="url(#grid-clip-f9a80fa20c5222d1-2x2)" data-channel="ellipse" data-ellipse-anchor-x="17.0" data-ellipse-anchor-y="111.0" data-ellipse-rx="40.0" data-ellipse-ry="45.89627346914128" data-ellipse-rotation-deg="48.0"><ellipse cx="17.0" cy="111.0" rx="40.0" ry="45.89627346914128" transform="rotate(48.0 17.0 111.0)" fill="#000000" fill-opacity="0.2"/></g><g><g data-channel="cell" data-cell-index="0" data-cell-row="0" data-cell-col="0" data-cell-quartile="1"><rect x="23.0" y="41.0" width="48.0" height="20.0" fill="#d68274"/><text x="47.0" y="51.0" fill="#000000" style="font-family: &quot;DejaVu Sans Mono&quot;, &quot;Consolas&quot;, &quot;Menlo&quot;, &quot;Liberation Mono&quot;, monospace; font-size: 16.0px;" text-anchor="middle" dominant-baseline="central">T8BM</text><polygon points="23.0,41.0 33.0,41.0 23.0,51.0" fill="#000000"/></g><g data-channel="cell" data-cell-index="1" data-cell-row="0" data-cell-col="1" data-cell-quartile="2"><rect x="83.0" y="41.0" width="48.0" height="20.0" fill="#9e9210"/><text x="107.0" y="51.0" fill="#000000" style="font-family: &quot;DejaVu Sans Mono&quot;, &quot;Consolas&quot;, &quot;Menlo&quot;, &quot;Liberation Mono&quot;, monospace; font-size: 16.0px;" text-anchor="middle" dominant-baseline="central">49AU</text><polygon points="131.0,41.0 121.0,41.0 131.0,51.0" fill="#000000"/></g><g data-channel="cell" data-cell-index="2" data-cell-row="1" data-cell-col="0" data-cell-blank="true" data-cell-blank-marker="true"><circle cx="47.0" cy="91.0" r="17.0" fill="#ffffff" stroke="#000000" stroke-width="1"/><line x1="47.0" y1="91.0" x2="47.0" y2="73.0" stroke="#ffffff" style="mix-blend-mode: difference" stroke-width="1"/><line x1="47.0" y1="91.0" x2="55.5" y2="91.0" stroke="#000000" stroke-width="1"/><circle cx="55.5" cy="91.0" r="1.5" fill="#ffffff" stroke="#000000" stroke-width="1"/></g><g data-channel="cell" data-cell-index="3" data-cell-row="1" data-cell-col="1" data-cell-quartile="3"><rect x="83.0" y="81.0" width="48.0" height="20.0" fill="#58c36d"/><text x="107.0" y="91.0" fill="#000000" style="font-family: &quot;DejaVu Sans Mono&quot;, &quot;Consolas&quot;, &quot;Menlo&quot;, &quot;Liberation Mono&quot;, monospace; font-size: 16.0px;" text-anchor="middle" dominant-baseline="central">RSDO</text><polygon points="131.0,101.0 131.0,91.0 121.0,101.0" fill="#000000"/></g></g></g><g data-channel="color-bar"><g data-color-bar-rank="0" data-color-bar-band="G"><rect x="1" y="1" width="10.0" height="63.45643791259652" fill="#ffd966"/><text x="6.0" y="32.728218956298264" fill="#000000" style="font-family: &quot;DejaVu Sans Mono&quot;, &quot;Consolas&quot;, &quot;Menlo&quot;, &quot;Liberation Mono&quot;, monospace; font-size: 38px;" text-anchor="middle" dominant-baseline="central" data-color-bar-letter="true">G</text></g><g data-color-bar-rank="1" data-color-bar-band="R"><rect x="1" y="64.45643791259653" width="10.0" height="36.09084601951354" fill="#ff3f2f"/><text x="6.0" y="82.5018609223533" fill="#000000" style="font-family: &quot;DejaVu Sans Mono&quot;, &quot;Consolas&quot;, &quot;Menlo&quot;, &quot;Liberation Mono&quot;, monospace; font-size: 22px;" text-anchor="middle" dominant-baseline="central" data-color-bar-letter="true">R</text></g><g data-color-bar-rank="2" data-color-bar-band="K"><rect x="1" y="100.54728393211008" width="10.0" height="23.047794183479475" fill="#000000"/><text x="6.0" y="112.07118102384982" fill="#ffffff" style="font-family: &quot;DejaVu Sans Mono&quot;, &quot;Consolas&quot;, &quot;Menlo&quot;, &quot;Liberation Mono&quot;, monospace; font-size: 14px;" text-anchor="middle" dominant-baseline="central" data-color-bar-letter="true">K</text></g><g data-color-bar-rank="3" data-color-bar-band="B"><rect x="1" y="123.59507811558956" width="10.0" height="17.40492188441044" fill="#2f3fbf"/><text x="6.0" y="132.29753905779478" fill="#ffffff" style="font-family: &quot;DejaVu Sans Mono&quot;, &quot;Consolas&quot;, &quot;Menlo&quot;, &quot;Liberation Mono&quot;, monospace; font-size: 10px;" text-anchor="middle" dominant-baseline="central" data-color-bar-letter="true">B</text></g></g><g data-channel="label-top"><text x="17.0" y="16.0" fill="#666666" style="font-family: &quot;DejaVu Sans Mono&quot;, &quot;Consolas&quot;, &quot;Menlo&quot;, &quot;Liberation Mono&quot;, monospace; font-size: 12.0px;" dominant-baseline="central">LEI: 529900...</text></g><g data-channel="label-bottom"><text x="137.0" y="126.0" fill="#666666" style="font-family: &quot;DejaVu Sans Mono&quot;, &quot;Consolas&quot;, &quot;Menlo&quot;, &quot;Liberation Mono&quot;, monospace; font-size: 12.0px;" text-anchor="end" dominant-baseline="central">...55</text></g><line x1="0" y1="0.5" x2="143.0" y2="0.5" stroke="#808080" stroke-width="1" shape-rendering="crispEdges"/><line x1="142.5" y1="0" x2="142.5" y2="142.0" stroke="#808080" stroke-width="1" shape-rendering="crispEdges"/><line x1="0" y1="141.5" x2="143.0" y2="141.5" stroke="#808080" stroke-width="1" shape-rendering="crispEdges"/><line x1="0.5" y1="0" x2="0.5" y2="142.0" stroke="#808080" stroke-width="1" shape-rendering="crispEdges"/><line x1="11.5" y1="0" x2="11.5" y2="142.0" stroke="#808080" stroke-width="1" shape-rendering="crispEdges"/></svg>