<svg width="273" height="232" viewBox="0 0 273 232" xmlns="http://www.w3.org/2000/svg" font-family="&quot;JetBrains Mono&quot;, &quot;Menlo&quot;, &quot;Consolas&quot;, &quot;DejaVu Sans Mono&quot;, &quot;Liberation Mono&quot;, &quot;Roboto Mono&quot;, &quot;Noto Sans Mono&quot;, monospace" data-entviz-version="v11" data-entviz-lib="0.10.0" data-input-bytes="69" data-cols="4" data-rows="5"><defs><clipPath id="grid-clip-e2d67d001c0fe504-4x5"><rect x="27" y="26" width="240" height="200"/></clipPath></defs><rect x="0" y="0" width="273" height="232" fill="#ffffff"/><g data-channel="grid"><rect x="27" y="26" width="240" height="200" fill="#2f3fbf"/><g><path fill="#e7be00" d="M27 26h6v10h-6zM39 26h6v10h-6zM45 26h6v10h-6zM51 26h6v10h-6zM57 26h6v10h-6zM63 26h6v10h-6zM81 26h6v10h-6zM81 36h6v10h-6zM81 56h6v10h-6zM69 56h6v10h-6zM63 56h6v10h-6zM51 56h6v10h-6zM27 56h6v10h-6zM27 46h6v10h-6zM27 36h6v10h-6z"/><path fill="#000000" d="M87 26h6v10h-6zM93 26h6v10h-6zM99 26h6v10h-6zM105 26h6v10h-6zM141 36h6v10h-6zM141 46h6v10h-6zM141 56h6v10h-6z"/><path fill="#e7be00" d="M177 26h6v10h-6zM183 26h6v10h-6zM201 36h6v10h-6zM177 56h6v10h-6zM165 56h6v10h-6zM147 56h6v10h-6zM147 46h6v10h-6zM147 36h6v10h-6z"/><path fill="#e7be00" d="M213 26h6v10h-6zM249 26h6v10h-6zM255 26h6v10h-6zM261 26h6v10h-6zM261 36h6v10h-6zM261 56h6v10h-6zM255 56h6v10h-6zM249 56h6v10h-6zM243 56h6v10h-6zM231 56h6v10h-6zM225 56h6v10h-6zM219 56h6v10h-6zM213 56h6v10h-6zM207 56h6v10h-6z"/><path fill="#e7be00" d="M57 66h6v10h-6zM69 66h6v10h-6zM81 76h6v10h-6zM81 96h6v10h-6zM75 96h6v10h-6zM39 96h6v10h-6zM33 96h6v10h-6zM27 96h6v10h-6z"/><path fill="#e7be00" d="M99 66h6v10h-6zM105 66h6v10h-6zM111 66h6v10h-6zM117 66h6v10h-6zM123 66h6v10h-6zM129 66h6v10h-6zM135 66h6v10h-6zM141 76h6v10h-6zM141 86h6v10h-6zM141 96h6v10h-6zM123 96h6v10h-6zM117 96h6v10h-6zM87 96h6v10h-6z"/><path fill="#ff3f2f" d="M147 66h6v10h-6zM153 66h6v10h-6zM165 66h6v10h-6zM183 66h6v10h-6zM189 66h6v10h-6zM195 66h6v10h-6zM201 66h6v10h-6zM195 96h6v10h-6zM189 96h6v10h-6zM183 96h6v10h-6zM171 96h6v10h-6zM165 96h6v10h-6zM159 96h6v10h-6zM153 96h6v10h-6zM147 96h6v10h-6zM147 86h6v10h-6zM147 76h6v10h-6z"/><path fill="#000000" d="M207 66h6v10h-6zM225 66h6v10h-6zM237 66h6v10h-6zM249 66h6v10h-6zM255 66h6v10h-6zM261 66h6v10h-6zM255 96h6v10h-6zM237 96h6v10h-6zM207 86h6v10h-6zM207 76h6v10h-6z"/><path fill="#ffffff" d="M33 106h6v10h-6zM39 106h6v10h-6zM45 106h6v10h-6zM57 106h6v10h-6zM69 106h6v10h-6zM81 116h6v10h-6zM81 126h6v10h-6zM81 136h6v10h-6zM75 136h6v10h-6zM69 136h6v10h-6zM63 136h6v10h-6zM57 136h6v10h-6zM45 136h6v10h-6zM39 136h6v10h-6zM33 136h6v10h-6zM27 126h6v10h-6zM27 116h6v10h-6z"/><path fill="#ff3f2f" d="M93 106h6v10h-6zM99 106h6v10h-6zM105 106h6v10h-6zM129 106h6v10h-6zM135 106h6v10h-6zM141 106h6v10h-6zM141 116h6v10h-6zM141 126h6v10h-6zM111 136h6v10h-6zM87 126h6v10h-6z"/><path fill="#e7be00" d="M159 106h6v10h-6zM165 106h6v10h-6zM171 106h6v10h-6zM177 106h6v10h-6zM183 106h6v10h-6zM201 106h6v10h-6zM201 126h6v10h-6zM195 136h6v10h-6zM177 136h6v10h-6zM159 136h6v10h-6zM147 116h6v10h-6z"/><path fill="#e7be00" d="M27 146h6v10h-6zM33 146h6v10h-6zM51 146h6v10h-6zM57 146h6v10h-6zM69 146h6v10h-6zM75 146h6v10h-6zM81 166h6v10h-6zM75 176h6v10h-6zM69 176h6v10h-6zM57 176h6v10h-6zM45 176h6v10h-6zM39 176h6v10h-6zM27 176h6v10h-6z"/><path fill="#ff3f2f" d="M159 146h6v10h-6zM177 146h6v10h-6zM201 156h6v10h-6zM201 166h6v10h-6zM201 176h6v10h-6zM165 176h6v10h-6zM159 176h6v10h-6zM147 166h6v10h-6zM147 156h6v10h-6z"/><path fill="#000000" d="M207 146h6v10h-6zM213 146h6v10h-6zM219 146h6v10h-6zM243 146h6v10h-6zM249 146h6v10h-6zM255 146h6v10h-6zM261 146h6v10h-6zM261 156h6v10h-6zM261 166h6v10h-6zM249 176h6v10h-6zM225 176h6v10h-6zM213 176h6v10h-6zM207 156h6v10h-6z"/><path fill="#000000" d="M105 186h6v10h-6zM117 186h6v10h-6zM123 186h6v10h-6zM135 186h6v10h-6zM141 206h6v10h-6zM135 216h6v10h-6zM123 216h6v10h-6zM99 216h6v10h-6zM93 216h6v10h-6zM87 216h6v10h-6zM87 206h6v10h-6zM87 196h6v10h-6z"/><path fill="#ff3f2f" d="M153 186h6v10h-6zM165 186h6v10h-6zM171 186h6v10h-6zM177 186h6v10h-6zM183 186h6v10h-6zM189 186h6v10h-6zM195 186h6v10h-6zM201 196h6v10h-6zM201 216h6v10h-6zM183 216h6v10h-6zM171 216h6v10h-6zM147 216h6v10h-6z"/><path fill="#ff3f2f" d="M207 186h6v10h-6zM219 186h6v10h-6zM237 186h6v10h-6zM261 186h6v10h-6zM261 196h6v10h-6zM261 206h6v10h-6zM255 216h6v10h-6zM237 216h6v10h-6zM231 216h6v10h-6zM213 216h6v10h-6z"/></g><g clip-path="url(#grid-clip-e2d67d001c0fe504-4x5)" data-channel="ellipse" data-ellipse-anchor-x="147" data-ellipse-anchor-y="106" data-ellipse-rx="86.21" data-ellipse-ry="94.356" data-ellipse-rotation-deg="24"><ellipse cx="147" cy="106" rx="86.21" ry="94.356" transform="rotate(24 147 106)" fill="#ffffff" stroke="#ffffff" fill-opacity="0.35" stroke-opacity="0.45" stroke-width="2"/></g><g><g data-channel="cell" data-cell-index="0" data-cell-row="0" data-cell-col="0" data-surround-bits="0xe2d67d" data-edge-color="#e7be00"><rect x="33" y="36" width="48" height="20" fill="#88e107"/><text x="57" y="46" fill="#000000" font-size="16" text-anchor="middle" dominant-baseline="central">A7QY</text></g><g data-channel="cell" data-cell-index="1" data-cell-row="0" data-cell-col="1" data-surround-bits="0x1c0f" data-edge-color="#000000"><rect x="93" y="36" width="48" height="20" fill="#227f69"/><text x="117" y="46" fill="#ffffff" font-size="16" text-anchor="middle" dominant-baseline="central">NF7S</text></g><g data-channel="cell" data-cell-index="2" data-cell-row="0" data-cell-col="2" data-surround-bits="0xe50460" data-edge-color="#e7be00"><rect x="153" y="36" width="48" height="20" fill="#bba175"/><text x="177" y="46" fill="#000000" font-size="16" text-anchor="middle" dominant-baseline="central">OWQ3</text></g><g data-channel="cell" data-cell-index="3" data-cell-row="0" data-cell-col="3" data-surround-bits="0x3ef782" data-edge-color="#e7be00"><rect x="213" y="36" width="48" height="20" fill="#aae332"/><text x="237" y="46" fill="#000000" font-size="16" text-anchor="middle" dominant-baseline="central">GLR2</text></g><g data-channel="cell" data-cell-index="4" data-cell-row="1" data-cell-col="0" data-surround-bits="0x3834a0" data-edge-color="#e7be00" data-cell-quartile="3"><rect x="33" y="76" width="48" height="20" fill="#999909"/><text x="57" y="86" fill="#000000" font-size="16" text-anchor="middle" dominant-baseline="central">BGMZ</text><polygon points="81,96 81,86 71,96" fill="#000000"/></g><g data-channel="cell" data-cell-index="5" data-cell-row="1" data-cell-col="1" data-surround-bits="0x219dfc" data-edge-color="#e7be00"><rect x="93" y="76" width="48" height="20" fill="#00ee21"/><text x="117" y="86" fill="#000000" font-size="16" text-anchor="middle" dominant-baseline="central">EHXA</text></g><g data-channel="cell" data-cell-index="6" data-cell-row="1" data-cell-col="2" data-surround-bits="0xfee3cb" data-edge-color="#ff3f2f"><rect x="153" y="76" width="48" height="20" fill="#9923aa"/><text x="177" y="86" fill="#ffffff" font-size="16" text-anchor="middle" dominant-baseline="central">VIRZ</text></g><g data-channel="cell" data-cell-index="7" data-cell-row="1" data-cell-col="3" data-surround-bits="0xc123a9" data-edge-color="#000000"><rect x="213" y="76" width="48" height="20" fill="#551507"/><text x="237" y="86" fill="#ffffff" font-size="16" text-anchor="middle" dominant-baseline="central">A4KV</text></g><g data-channel="cell" data-cell-index="8" data-cell-row="2" data-cell-col="0" data-surround-bits="0xddfcae" data-edge-color="#ffffff" data-cell-quartile="4"><rect x="33" y="116" width="48" height="20" fill="#99e6b2"/><text x="57" y="126" fill="#000000" font-size="16" text-anchor="middle" dominant-baseline="central">WLTJ</text><polygon points="33,136 33,126 43,136" fill="#000000"/></g><g data-channel="cell" data-cell-index="9" data-cell-row="2" data-cell-col="1" data-surround-bits="0x420f8e" data-edge-color="#ff3f2f"><rect x="93" y="116" width="48" height="20" fill="#ff4549"/><text x="117" y="126" fill="#000000" font-size="16" text-anchor="middle" dominant-baseline="central">JFC7</text></g><g data-channel="cell" data-cell-index="10" data-cell-row="2" data-cell-col="2" data-surround-bits="0x892a7c" data-edge-color="#e7be00"><rect x="153" y="116" width="48" height="20" fill="#44af61"/><text x="177" y="126" fill="#000000" font-size="16" text-anchor="middle" dominant-baseline="central">MGXU</text></g><g data-channel="cell" data-cell-index="11" data-cell-row="2" data-cell-col="3" data-cell-blank="true" data-cell-blank-map="true"><rect x="213" y="116" width="48" height="20" rx="10" ry="10" fill="#ffffff" stroke="#000000" stroke-width="1"/><circle cx="231" cy="118" r="3.5" fill="#1d4ed8" data-blank-map-min="0,1"/><path d="M 238.8,122 H 247.2 M 243,117.8 V 126.2" fill="none" stroke="#d62828" stroke-width="1.925" stroke-linecap="butt" data-blank-map-max="1,2"/></g><g data-channel="cell" data-cell-index="12" data-cell-row="3" data-cell-col="0" data-surround-bits="0x2d69b3" data-edge-color="#e7be00"><rect x="33" y="156" width="48" height="20" fill="#fff807"/><text x="57" y="166" fill="#000000" font-size="16" text-anchor="middle" dominant-baseline="central">A74P</text></g><g data-channel="cell" data-cell-index="13" data-cell-row="3" data-cell-col="1" data-cell-blank="true"><rect x="93" y="156" width="48" height="20" rx="10" ry="10" fill="#ffffff" stroke="#000000" stroke-width="1"/></g><g data-channel="cell" data-cell-index="14" data-cell-row="3" data-cell-col="2" data-surround-bits="0xcc1c24" data-edge-color="#ff3f2f"><rect x="153" y="156" width="48" height="20" fill="#5513fd"/><text x="177" y="166" fill="#ffffff" font-size="16" text-anchor="middle" dominant-baseline="central">7UJV</text></g><g data-channel="cell" data-cell-index="15" data-cell-row="3" data-cell-col="3" data-surround-bits="0x944fc7" data-edge-color="#000000" data-cell-quartile="2"><rect x="213" y="156" width="48" height="20" fill="#000000"/><text x="237" y="166" fill="#ffffff" font-size="16" text-anchor="middle" dominant-baseline="central">AAAA</text><polygon points="261,156 251,156 261,166" fill="#ffffff"/></g><g data-channel="cell" data-cell-index="16" data-cell-row="4" data-cell-col="0" data-cell-blank="true"><rect x="33" y="196" width="48" height="20" rx="10" ry="10" fill="#e7be00" stroke="#000000" stroke-width="1"/></g><g data-channel="cell" data-cell-index="17" data-cell-row="4" data-cell-col="1" data-surround-bits="0xf8a968" data-edge-color="#000000"><rect x="93" y="196" width="48" height="20" fill="#000000"/><text x="117" y="206" fill="#ffffff" font-size="16" text-anchor="middle" dominant-baseline="central">AAAA</text></g><g data-channel="cell" data-cell-index="18" data-cell-row="4" data-cell-col="2" data-surround-bits="0x2295fa" data-edge-color="#ff3f2f" data-cell-quartile="1"><rect x="153" y="196" width="48" height="20" fill="#000000"/><text x="177" y="206" fill="#ffffff" font-size="16" text-anchor="middle" dominant-baseline="central">AAAA</text><polygon points="153,196 163,196 153,206" fill="#ffffff"/></g><g data-channel="cell" data-cell-index="19" data-cell-row="4" data-cell-col="3" data-surround-bits="0x132e25" data-edge-color="#ff3f2f"><rect x="213" y="196" width="48" height="20" fill="#aa5602"/><text x="237" y="206" fill="#ffffff" font-size="16" text-anchor="middle" dominant-baseline="central">AJLK</text></g></g></g><g data-channel="color-bar" data-bar-slots="16" data-bar-marker-left="3" data-bar-marker-right="4"><g data-color-bar-rank="0" data-color-bar-band="R"><rect x="1" y="1" width="20" height="49.35" fill="#ff3f2f"/><text x="11" y="46.83" fill="#000000" font-size="16" text-anchor="middle" data-color-bar-letter="true">r</text></g><g data-color-bar-rank="1" data-color-bar-band="W"><rect x="1" y="50.35" width="20" height="103.403" fill="#ffffff"/><text x="11" y="150.233" fill="#000000" font-size="16" text-anchor="middle" data-color-bar-letter="true">w</text></g><g data-color-bar-rank="2" data-color-bar-band="K"><rect x="1" y="153.753" width="20" height="62.893" fill="#000000"/><text x="11" y="213.126" fill="#ffffff" font-size="16" text-anchor="middle" data-color-bar-letter="true">k</text></g><g data-color-bar-rank="3" data-color-bar-band="G"><rect x="1" y="216.646" width="20" height="14.354" fill="#e7be00"/><text x="11" y="227.48" fill="#000000" font-size="16" text-anchor="middle" data-color-bar-letter="true">g</text></g><circle cx="5.6" cy="51.312" r="3.4" fill="#ffffff" stroke="#000000" stroke-width="0.75" data-bar-marker="left"/><circle cx="16.4" cy="65.688" r="3.4" fill="#ffffff" stroke="#000000" stroke-width="0.75" data-bar-marker="right"/></g><g data-channel="label-top"><text x="27" y="16" fill="#666666" font-size="12" dominant-baseline="central">XLM muxed: M...</text></g><line x1="0" y1="0.5" x2="273" y2="0.5" stroke="#808080" stroke-width="1" shape-rendering="crispEdges"/><line x1="272.5" y1="0" x2="272.5" y2="232" stroke="#808080" stroke-width="1" shape-rendering="crispEdges"/><line x1="0" y1="231.5" x2="273" y2="231.5" stroke="#808080" stroke-width="1" shape-rendering="crispEdges"/><line x1="0.5" y1="0" x2="0.5" y2="232" stroke="#808080" stroke-width="1" shape-rendering="crispEdges"/><line x1="21.5" y1="0" x2="21.5" y2="232" stroke="#808080" stroke-width="1" shape-rendering="crispEdges"/></svg>