<svg width="273.0" height="232.0" viewBox="0 0 273.0 232.0" xmlns="http://www.w3.org/2000/svg" data-entviz-version="v10" data-entviz-lib="0.10.0" data-input-bytes="69" data-cols="4" data-rows="5"><defs><clipPath id="grid-clip-e2d67d001c0fe504-4x5"><rect x="27.0" y="26.0" width="240.0" height="200.0"/></clipPath></defs><rect x="0" y="0" width="273.0" height="232.0" fill="#ffffff"/><g data-channel="grid"><rect x="27.0" y="26.0" width="240.0" height="200.0" fill="#2f3fbf"/><g><rect x="27.0" y="26.0" width="6.0" height="10.0" fill="#e7be00"/><rect x="39.0" y="26.0" width="6.0" height="10.0" fill="#e7be00"/><rect x="45.0" y="26.0" width="6.0" height="10.0" fill="#e7be00"/><rect x="51.0" y="26.0" width="6.0" height="10.0" fill="#e7be00"/><rect x="57.0" y="26.0" width="6.0" height="10.0" fill="#e7be00"/><rect x="63.0" y="26.0" width="6.0" height="10.0" fill="#e7be00"/><rect x="81.0" y="26.0" width="6.0" height="10.0" fill="#e7be00"/><rect x="81.0" y="36.0" width="6.0" height="10.0" fill="#e7be00"/><rect x="81.0" y="56.0" width="6.0" height="10.0" fill="#e7be00"/><rect x="69.0" y="56.0" width="6.0" height="10.0" fill="#e7be00"/><rect x="63.0" y="56.0" width="6.0" height="10.0" fill="#e7be00"/><rect x="51.0" y="56.0" width="6.0" height="10.0" fill="#e7be00"/><rect x="27.0" y="56.0" width="6.0" height="10.0" fill="#e7be00"/><rect x="27.0" y="46.0" width="6.0" height="10.0" fill="#e7be00"/><rect x="27.0" y="36.0" width="6.0" height="10.0" fill="#e7be00"/><rect x="87.0" y="26.0" width="6.0" height="10.0" fill="#000000"/><rect x="93.0" y="26.0" width="6.0" height="10.0" fill="#000000"/><rect x="99.0" y="26.0" width="6.0" height="10.0" fill="#000000"/><rect x="105.0" y="26.0" width="6.0" height="10.0" fill="#000000"/><rect x="141.0" y="36.0" width="6.0" height="10.0" fill="#000000"/><rect x="141.0" y="46.0" width="6.0" height="10.0" fill="#000000"/><rect x="141.0" y="56.0" width="6.0" height="10.0" fill="#000000"/><rect x="177.0" y="26.0" width="6.0" height="10.0" fill="#e7be00"/><rect x="183.0" y="26.0" width="6.0" height="10.0" fill="#e7be00"/><rect x="201.0" y="36.0" width="6.0" height="10.0" fill="#e7be00"/><rect x="177.0" y="56.0" width="6.0" height="10.0" fill="#e7be00"/><rect x="165.0" y="56.0" width="6.0" height="10.0" fill="#e7be00"/><rect x="147.0" y="56.0" width="6.0" height="10.0" fill="#e7be00"/><rect x="147.0" y="46.0" width="6.0" height="10.0" fill="#e7be00"/><rect x="147.0" y="36.0" width="6.0" height="10.0" fill="#e7be00"/><rect x="213.0" y="26.0" width="6.0" height="10.0" fill="#e7be00"/><rect x="249.0" y="26.0" width="6.0" height="10.0" fill="#e7be00"/><rect x="255.0" y="26.0" width="6.0" height="10.0" fill="#e7be00"/><rect x="261.0" y="26.0" width="6.0" height="10.0" fill="#e7be00"/><rect x="261.0" y="36.0" width="6.0" height="10.0" fill="#e7be00"/><rect x="261.0" y="56.0" width="6.0" height="10.0" fill="#e7be00"/><rect x="255.0" y="56.0" width="6.0" height="10.0" fill="#e7be00"/><rect x="249.0" y="56.0" width="6.0" height="10.0" fill="#e7be00"/><rect x="243.0" y="56.0" width="6.0" height="10.0" fill="#e7be00"/><rect x="231.0" y="56.0" width="6.0" height="10.0" fill="#e7be00"/><rect x="225.0" y="56.0" width="6.0" height="10.0" fill="#e7be00"/><rect x="219.0" y="56.0" width="6.0" height="10.0" fill="#e7be00"/><rect x="213.0" y="56.0" width="6.0" height="10.0" fill="#e7be00"/><rect x="207.0" y="56.0" width="6.0" height="10.0" fill="#e7be00"/><rect x="57.0" y="66.0" width="6.0" height="10.0" fill="#e7be00"/><rect x="69.0" y="66.0" width="6.0" height="10.0" fill="#e7be00"/><rect x="81.0" y="76.0" width="6.0" height="10.0" fill="#e7be00"/><rect x="81.0" y="96.0" width="6.0" height="10.0" fill="#e7be00"/><rect x="75.0" y="96.0" width="6.0" height="10.0" fill="#e7be00"/><rect x="39.0" y="96.0" width="6.0" height="10.0" fill="#e7be00"/><rect x="33.0" y="96.0" width="6.0" height="10.0" fill="#e7be00"/><rect x="27.0" y="96.0" width="6.0" height="10.0" fill="#e7be00"/><rect x="99.0" y="66.0" width="6.0" height="10.0" fill="#e7be00"/><rect x="105.0" y="66.0" width="6.0" height="10.0" fill="#e7be00"/><rect x="111.0" y="66.0" width="6.0" height="10.0" fill="#e7be00"/><rect x="117.0" y="66.0" width="6.0" height="10.0" fill="#e7be00"/><rect x="123.0" y="66.0" width="6.0" height="10.0" fill="#e7be00"/><rect x="129.0" y="66.0" width="6.0" height="10.0" fill="#e7be00"/><rect x="135.0" y="66.0" width="6.0" height="10.0" fill="#e7be00"/><rect x="141.0" y="76.0" width="6.0" height="10.0" fill="#e7be00"/><rect x="141.0" y="86.0" width="6.0" height="10.0" fill="#e7be00"/><rect x="141.0" y="96.0" width="6.0" height="10.0" fill="#e7be00"/><rect x="123.0" y="96.0" width="6.0" height="10.0" fill="#e7be00"/><rect x="117.0" y="96.0" width="6.0" height="10.0" fill="#e7be00"/><rect x="87.0" y="96.0" width="6.0" height="10.0" fill="#e7be00"/><rect x="147.0" y="66.0" width="6.0" height="10.0" fill="#ff3f2f"/><rect x="153.0" y="66.0" width="6.0" height="10.0" fill="#ff3f2f"/><rect x="165.0" y="66.0" width="6.0" height="10.0" fill="#ff3f2f"/><rect x="183.0" y="66.0" width="6.0" height="10.0" fill="#ff3f2f"/><rect x="189.0" y="66.0" width="6.0" height="10.0" fill="#ff3f2f"/><rect x="195.0" y="66.0" width="6.0" height="10.0" fill="#ff3f2f"/><rect x="201.0" y="66.0" width="6.0" height="10.0" fill="#ff3f2f"/><rect x="195.0" y="96.0" width="6.0" height="10.0" fill="#ff3f2f"/><rect x="189.0" y="96.0" width="6.0" height="10.0" fill="#ff3f2f"/><rect x="183.0" y="96.0" width="6.0" height="10.0" fill="#ff3f2f"/><rect x="171.0" y="96.0" width="6.0" height="10.0" fill="#ff3f2f"/><rect x="165.0" y="96.0" width="6.0" height="10.0" fill="#ff3f2f"/><rect x="159.0" y="96.0" width="6.0" height="10.0" fill="#ff3f2f"/><rect x="153.0" y="96.0" width="6.0" height="10.0" fill="#ff3f2f"/><rect x="147.0" y="96.0" width="6.0" height="10.0" fill="#ff3f2f"/><rect x="147.0" y="86.0" width="6.0" height="10.0" fill="#ff3f2f"/><rect x="147.0" y="76.0" width="6.0" height="10.0" fill="#ff3f2f"/><rect x="207.0" y="66.0" width="6.0" height="10.0" fill="#000000"/><rect x="225.0" y="66.0" width="6.0" height="10.0" fill="#000000"/><rect x="237.0" y="66.0" width="6.0" height="10.0" fill="#000000"/><rect x="249.0" y="66.0" width="6.0" height="10.0" fill="#000000"/><rect x="255.0" y="66.0" width="6.0" height="10.0" fill="#000000"/><rect x="261.0" y="66.0" width="6.0" height="10.0" fill="#000000"/><rect x="255.0" y="96.0" width="6.0" height="10.0" fill="#000000"/><rect x="237.0" y="96.0" width="6.0" height="10.0" fill="#000000"/><rect x="207.0" y="86.0" width="6.0" height="10.0" fill="#000000"/><rect x="207.0" y="76.0" width="6.0" height="10.0" fill="#000000"/><rect x="33.0" y="106.0" width="6.0" height="10.0" fill="#ffffff"/><rect x="39.0" y="106.0" width="6.0" height="10.0" fill="#ffffff"/><rect x="45.0" y="106.0" width="6.0" height="10.0" fill="#ffffff"/><rect x="57.0" y="106.0" width="6.0" height="10.0" fill="#ffffff"/><rect x="69.0" y="106.0" width="6.0" height="10.0" fill="#ffffff"/><rect x="81.0" y="116.0" width="6.0" height="10.0" fill="#ffffff"/><rect x="81.0" y="126.0" width="6.0" height="10.0" fill="#ffffff"/><rect x="81.0" y="136.0" width="6.0" height="10.0" fill="#ffffff"/><rect x="75.0" y="136.0" width="6.0" height="10.0" fill="#ffffff"/><rect x="69.0" y="136.0" width="6.0" height="10.0" fill="#ffffff"/><rect x="63.0" y="136.0" width="6.0" height="10.0" fill="#ffffff"/><rect x="57.0" y="136.0" width="6.0" height="10.0" fill="#ffffff"/><rect x="45.0" y="136.0" width="6.0" height="10.0" fill="#ffffff"/><rect x="39.0" y="136.0" width="6.0" height="10.0" fill="#ffffff"/><rect x="33.0" y="136.0" width="6.0" height="10.0" fill="#ffffff"/><rect x="27.0" y="126.0" width="6.0" height="10.0" fill="#ffffff"/><rect x="27.0" y="116.0" width="6.0" height="10.0" fill="#ffffff"/><rect x="93.0" y="106.0" width="6.0" height="10.0" fill="#ff3f2f"/><rect x="99.0" y="106.0" width="6.0" height="10.0" fill="#ff3f2f"/><rect x="105.0" y="106.0" width="6.0" height="10.0" fill="#ff3f2f"/><rect x="129.0" y="106.0" width="6.0" height="10.0" fill="#ff3f2f"/><rect x="135.0" y="106.0" width="6.0" height="10.0" fill="#ff3f2f"/><rect x="141.0" y="106.0" width="6.0" height="10.0" fill="#ff3f2f"/><rect x="141.0" y="116.0" width="6.0" height="10.0" fill="#ff3f2f"/><rect x="141.0" y="126.0" width="6.0" height="10.0" fill="#ff3f2f"/><rect x="111.0" y="136.0" width="6.0" height="10.0" fill="#ff3f2f"/><rect x="87.0" y="126.0" width="6.0" height="10.0" fill="#ff3f2f"/><rect x="159.0" y="106.0" width="6.0" height="10.0" fill="#e7be00"/><rect x="165.0" y="106.0" width="6.0" height="10.0" fill="#e7be00"/><rect x="171.0" y="106.0" width="6.0" height="10.0" fill="#e7be00"/><rect x="177.0" y="106.0" width="6.0" height="10.0" fill="#e7be00"/><rect x="183.0" y="106.0" width="6.0" height="10.0" fill="#e7be00"/><rect x="201.0" y="106.0" width="6.0" height="10.0" fill="#e7be00"/><rect x="201.0" y="126.0" width="6.0" height="10.0" fill="#e7be00"/><rect x="195.0" y="136.0" width="6.0" height="10.0" fill="#e7be00"/><rect x="177.0" y="136.0" width="6.0" height="10.0" fill="#e7be00"/><rect x="159.0" y="136.0" width="6.0" height="10.0" fill="#e7be00"/><rect x="147.0" y="116.0" width="6.0" height="10.0" fill="#e7be00"/><rect x="27.0" y="146.0" width="6.0" height="10.0" fill="#e7be00"/><rect x="33.0" y="146.0" width="6.0" height="10.0" fill="#e7be00"/><rect x="51.0" y="146.0" width="6.0" height="10.0" fill="#e7be00"/><rect x="57.0" y="146.0" width="6.0" height="10.0" fill="#e7be00"/><rect x="69.0" y="146.0" width="6.0" height="10.0" fill="#e7be00"/><rect x="75.0" y="146.0" width="6.0" height="10.0" fill="#e7be00"/><rect x="81.0" y="166.0" width="6.0" height="10.0" fill="#e7be00"/><rect x="75.0" y="176.0" width="6.0" height="10.0" fill="#e7be00"/><rect x="69.0" y="176.0" width="6.0" height="10.0" fill="#e7be00"/><rect x="57.0" y="176.0" width="6.0" height="10.0" fill="#e7be00"/><rect x="45.0" y="176.0" width="6.0" height="10.0" fill="#e7be00"/><rect x="39.0" y="176.0" width="6.0" height="10.0" fill="#e7be00"/><rect x="27.0" y="176.0" width="6.0" height="10.0" fill="#e7be00"/><rect x="159.0" y="146.0" width="6.0" height="10.0" fill="#ff3f2f"/><rect x="177.0" y="146.0" width="6.0" height="10.0" fill="#ff3f2f"/><rect x="201.0" y="156.0" width="6.0" height="10.0" fill="#ff3f2f"/><rect x="201.0" y="166.0" width="6.0" height="10.0" fill="#ff3f2f"/><rect x="201.0" y="176.0" width="6.0" height="10.0" fill="#ff3f2f"/><rect x="165.0" y="176.0" width="6.0" height="10.0" fill="#ff3f2f"/><rect x="159.0" y="176.0" width="6.0" height="10.0" fill="#ff3f2f"/><rect x="147.0" y="166.0" width="6.0" height="10.0" fill="#ff3f2f"/><rect x="147.0" y="156.0" width="6.0" height="10.0" fill="#ff3f2f"/><rect x="207.0" y="146.0" width="6.0" height="10.0" fill="#000000"/><rect x="213.0" y="146.0" width="6.0" height="10.0" fill="#000000"/><rect x="219.0" y="146.0" width="6.0" height="10.0" fill="#000000"/><rect x="243.0" y="146.0" width="6.0" height="10.0" fill="#000000"/><rect x="249.0" y="146.0" width="6.0" height="10.0" fill="#000000"/><rect x="255.0" y="146.0" width="6.0" height="10.0" fill="#000000"/><rect x="261.0" y="146.0" width="6.0" height="10.0" fill="#000000"/><rect x="261.0" y="156.0" width="6.0" height="10.0" fill="#000000"/><rect x="261.0" y="166.0" width="6.0" height="10.0" fill="#000000"/><rect x="249.0" y="176.0" width="6.0" height="10.0" fill="#000000"/><rect x="225.0" y="176.0" width="6.0" height="10.0" fill="#000000"/><rect x="213.0" y="176.0" width="6.0" height="10.0" fill="#000000"/><rect x="207.0" y="156.0" width="6.0" height="10.0" fill="#000000"/><rect x="105.0" y="186.0" width="6.0" height="10.0" fill="#000000"/><rect x="117.0" y="186.0" width="6.0" height="10.0" fill="#000000"/><rect x="123.0" y="186.0" width="6.0" height="10.0" fill="#000000"/><rect x="135.0" y="186.0" width="6.0" height="10.0" fill="#000000"/><rect x="141.0" y="206.0" width="6.0" height="10.0" fill="#000000"/><rect x="135.0" y="216.0" width="6.0" height="10.0" fill="#000000"/><rect x="123.0" y="216.0" width="6.0" height="10.0" fill="#000000"/><rect x="99.0" y="216.0" width="6.0" height="10.0" fill="#000000"/><rect x="93.0" y="216.0" width="6.0" height="10.0" fill="#000000"/><rect x="87.0" y="216.0" width="6.0" height="10.0" fill="#000000"/><rect x="87.0" y="206.0" width="6.0" height="10.0" fill="#000000"/><rect x="87.0" y="196.0" width="6.0" height="10.0" fill="#000000"/><rect x="153.0" y="186.0" width="6.0" height="10.0" fill="#ff3f2f"/><rect x="165.0" y="186.0" width="6.0" height="10.0" fill="#ff3f2f"/><rect x="171.0" y="186.0" width="6.0" height="10.0" fill="#ff3f2f"/><rect x="177.0" y="186.0" width="6.0" height="10.0" fill="#ff3f2f"/><rect x="183.0" y="186.0" width="6.0" height="10.0" fill="#ff3f2f"/><rect x="189.0" y="186.0" width="6.0" height="10.0" fill="#ff3f2f"/><rect x="195.0" y="186.0" width="6.0" height="10.0" fill="#ff3f2f"/><rect x="201.0" y="196.0" width="6.0" height="10.0" fill="#ff3f2f"/><rect x="201.0" y="216.0" width="6.0" height="10.0" fill="#ff3f2f"/><rect x="183.0" y="216.0" width="6.0" height="10.0" fill="#ff3f2f"/><rect x="171.0" y="216.0" width="6.0" height="10.0" fill="#ff3f2f"/><rect x="147.0" y="216.0" width="6.0" height="10.0" fill="#ff3f2f"/><rect x="207.0" y="186.0" width="6.0" height="10.0" fill="#ff3f2f"/><rect x="219.0" y="186.0" width="6.0" height="10.0" fill="#ff3f2f"/><rect x="237.0" y="186.0" width="6.0" height="10.0" fill="#ff3f2f"/><rect x="261.0" y="186.0" width="6.0" height="10.0" fill="#ff3f2f"/><rect x="261.0" y="196.0" width="6.0" height="10.0" fill="#ff3f2f"/><rect x="261.0" y="206.0" width="6.0" height="10.0" fill="#ff3f2f"/><rect x="255.0" y="216.0" width="6.0" height="10.0" fill="#ff3f2f"/><rect x="237.0" y="216.0" width="6.0" height="10.0" fill="#ff3f2f"/><rect x="231.0" y="216.0" width="6.0" height="10.0" fill="#ff3f2f"/><rect x="213.0" y="216.0" width="6.0" height="10.0" fill="#ff3f2f"/></g><g clip-path="url(#grid-clip-e2d67d001c0fe504-4x5)" data-channel="ellipse" data-ellipse-anchor-x="147.0" data-ellipse-anchor-y="106.0" data-ellipse-rx="86.21045876226387" data-ellipse-ry="94.3563288815329" data-ellipse-rotation-deg="24.0"><ellipse cx="147.0" cy="106.0" rx="86.21045876226387" ry="94.3563288815329" transform="rotate(24.0 147.0 106.0)" fill="#ffffff" stroke="#ffffff" fill-opacity="0.35" stroke-opacity="0.45" stroke-width="2.0"/></g><g><g data-channel="cell" data-cell-index="0" data-cell-row="0" data-cell-col="0"><rect x="33.0" y="36.0" width="48.0" height="20.0" fill="#88e107"/><text x="57.0" y="46.0" fill="#000000" style="font-family: &quot;JetBrains Mono&quot;, &quot;Menlo&quot;, &quot;Consolas&quot;, &quot;DejaVu Sans Mono&quot;, &quot;Liberation Mono&quot;, &quot;Roboto Mono&quot;, &quot;Noto Sans Mono&quot;, monospace; font-size: 16.0px;" text-anchor="middle" dominant-baseline="central">A7QY</text></g><g data-channel="cell" data-cell-index="1" data-cell-row="0" data-cell-col="1"><rect x="93.0" y="36.0" width="48.0" height="20.0" fill="#227f69"/><text x="117.0" y="46.0" fill="#ffffff" style="font-family: &quot;JetBrains Mono&quot;, &quot;Menlo&quot;, &quot;Consolas&quot;, &quot;DejaVu Sans Mono&quot;, &quot;Liberation Mono&quot;, &quot;Roboto Mono&quot;, &quot;Noto Sans Mono&quot;, monospace; font-size: 16.0px;" text-anchor="middle" dominant-baseline="central">NF7S</text></g><g data-channel="cell" data-cell-index="2" data-cell-row="0" data-cell-col="2"><rect x="153.0" y="36.0" width="48.0" height="20.0" fill="#bba175"/><text x="177.0" y="46.0" fill="#000000" style="font-family: &quot;JetBrains Mono&quot;, &quot;Menlo&quot;, &quot;Consolas&quot;, &quot;DejaVu Sans Mono&quot;, &quot;Liberation Mono&quot;, &quot;Roboto Mono&quot;, &quot;Noto Sans Mono&quot;, monospace; font-size: 16.0px;" text-anchor="middle" dominant-baseline="central">OWQ3</text></g><g data-channel="cell" data-cell-index="3" data-cell-row="0" data-cell-col="3"><rect x="213.0" y="36.0" width="48.0" height="20.0" fill="#aae332"/><text x="237.0" y="46.0" fill="#000000" style="font-family: &quot;JetBrains Mono&quot;, &quot;Menlo&quot;, &quot;Consolas&quot;, &quot;DejaVu Sans Mono&quot;, &quot;Liberation Mono&quot;, &quot;Roboto Mono&quot;, &quot;Noto Sans Mono&quot;, monospace; font-size: 16.0px;" text-anchor="middle" dominant-baseline="central">GLR2</text></g><g data-channel="cell" data-cell-index="4" data-cell-row="1" data-cell-col="0" data-cell-quartile="3"><rect x="33.0" y="76.0" width="48.0" height="20.0" fill="#999909"/><text x="57.0" y="86.0" fill="#000000" style="font-family: &quot;JetBrains Mono&quot;, &quot;Menlo&quot;, &quot;Consolas&quot;, &quot;DejaVu Sans Mono&quot;, &quot;Liberation Mono&quot;, &quot;Roboto Mono&quot;, &quot;Noto Sans Mono&quot;, monospace; font-size: 16.0px;" text-anchor="middle" dominant-baseline="central">BGMZ</text><polygon points="81.0,96.0 81.0,86.0 71.0,96.0" fill="#000000"/></g><g data-channel="cell" data-cell-index="5" data-cell-row="1" data-cell-col="1"><rect x="93.0" y="76.0" width="48.0" height="20.0" fill="#00ee21"/><text x="117.0" y="86.0" fill="#000000" style="font-family: &quot;JetBrains Mono&quot;, &quot;Menlo&quot;, &quot;Consolas&quot;, &quot;DejaVu Sans Mono&quot;, &quot;Liberation Mono&quot;, &quot;Roboto Mono&quot;, &quot;Noto Sans Mono&quot;, monospace; font-size: 16.0px;" text-anchor="middle" dominant-baseline="central">EHXA</text></g><g data-channel="cell" data-cell-index="6" data-cell-row="1" data-cell-col="2"><rect x="153.0" y="76.0" width="48.0" height="20.0" fill="#9923aa"/><text x="177.0" y="86.0" fill="#ffffff" style="font-family: &quot;JetBrains Mono&quot;, &quot;Menlo&quot;, &quot;Consolas&quot;, &quot;DejaVu Sans Mono&quot;, &quot;Liberation Mono&quot;, &quot;Roboto Mono&quot;, &quot;Noto Sans Mono&quot;, monospace; font-size: 16.0px;" text-anchor="middle" dominant-baseline="central">VIRZ</text></g><g data-channel="cell" data-cell-index="7" data-cell-row="1" data-cell-col="3"><rect x="213.0" y="76.0" width="48.0" height="20.0" fill="#551507"/><text x="237.0" y="86.0" fill="#ffffff" style="font-family: &quot;JetBrains Mono&quot;, &quot;Menlo&quot;, &quot;Consolas&quot;, &quot;DejaVu Sans Mono&quot;, &quot;Liberation Mono&quot;, &quot;Roboto Mono&quot;, &quot;Noto Sans Mono&quot;, monospace; font-size: 16.0px;" text-anchor="middle" dominant-baseline="central">A4KV</text></g><g data-channel="cell" data-cell-index="8" data-cell-row="2" data-cell-col="0" data-cell-quartile="4"><rect x="33.0" y="116.0" width="48.0" height="20.0" fill="#99e6b2"/><text x="57.0" y="126.0" fill="#000000" style="font-family: &quot;JetBrains Mono&quot;, &quot;Menlo&quot;, &quot;Consolas&quot;, &quot;DejaVu Sans Mono&quot;, &quot;Liberation Mono&quot;, &quot;Roboto Mono&quot;, &quot;Noto Sans Mono&quot;, monospace; font-size: 16.0px;" text-anchor="middle" dominant-baseline="central">WLTJ</text><polygon points="33.0,136.0 33.0,126.0 43.0,136.0" fill="#000000"/></g><g data-channel="cell" data-cell-index="9" data-cell-row="2" data-cell-col="1"><rect x="93.0" y="116.0" width="48.0" height="20.0" fill="#ff4549"/><text x="117.0" y="126.0" fill="#000000" style="font-family: &quot;JetBrains Mono&quot;, &quot;Menlo&quot;, &quot;Consolas&quot;, &quot;DejaVu Sans Mono&quot;, &quot;Liberation Mono&quot;, &quot;Roboto Mono&quot;, &quot;Noto Sans Mono&quot;, monospace; font-size: 16.0px;" text-anchor="middle" dominant-baseline="central">JFC7</text></g><g data-channel="cell" data-cell-index="10" data-cell-row="2" data-cell-col="2"><rect x="153.0" y="116.0" width="48.0" height="20.0" fill="#44af61"/><text x="177.0" y="126.0" fill="#000000" style="font-family: &quot;JetBrains Mono&quot;, &quot;Menlo&quot;, &quot;Consolas&quot;, &quot;DejaVu Sans Mono&quot;, &quot;Liberation Mono&quot;, &quot;Roboto Mono&quot;, &quot;Noto Sans Mono&quot;, monospace; font-size: 16.0px;" text-anchor="middle" dominant-baseline="central">MGXU</text></g><g data-channel="cell" data-cell-index="11" data-cell-row="2" data-cell-col="3" data-cell-blank="true" data-cell-blank-map="true"><rect x="213.0" y="116.0" width="48.0" height="20.0" rx="10.0" ry="10.0" fill="#ffffff" stroke="#000000" stroke-width="1"/><circle cx="231.0" cy="118.0" r="3.5" fill="#1d4ed8" data-blank-map-min="0,1"/><path d="M 238.8,122.0 H 247.2 M 243.0,117.8 V 126.2" fill="none" stroke="#d62828" stroke-width="1.9250000000000003" stroke-linecap="butt" data-blank-map-max="1,2"/></g><g data-channel="cell" data-cell-index="12" data-cell-row="3" data-cell-col="0"><rect x="33.0" y="156.0" width="48.0" height="20.0" fill="#fff807"/><text x="57.0" y="166.0" fill="#000000" style="font-family: &quot;JetBrains Mono&quot;, &quot;Menlo&quot;, &quot;Consolas&quot;, &quot;DejaVu Sans Mono&quot;, &quot;Liberation Mono&quot;, &quot;Roboto Mono&quot;, &quot;Noto Sans Mono&quot;, monospace; font-size: 16.0px;" text-anchor="middle" dominant-baseline="central">A74P</text></g><g data-channel="cell" data-cell-index="13" data-cell-row="3" data-cell-col="1" data-cell-blank="true"><rect x="93.0" y="156.0" width="48.0" height="20.0" rx="10.0" ry="10.0" fill="#ffffff" stroke="#000000" stroke-width="1"/></g><g data-channel="cell" data-cell-index="14" data-cell-row="3" data-cell-col="2"><rect x="153.0" y="156.0" width="48.0" height="20.0" fill="#5513fd"/><text x="177.0" y="166.0" fill="#ffffff" style="font-family: &quot;JetBrains Mono&quot;, &quot;Menlo&quot;, &quot;Consolas&quot;, &quot;DejaVu Sans Mono&quot;, &quot;Liberation Mono&quot;, &quot;Roboto Mono&quot;, &quot;Noto Sans Mono&quot;, monospace; font-size: 16.0px;" text-anchor="middle" dominant-baseline="central">7UJV</text></g><g data-channel="cell" data-cell-index="15" data-cell-row="3" data-cell-col="3" data-cell-quartile="2"><rect x="213.0" y="156.0" width="48.0" height="20.0" fill="#000000"/><text x="237.0" y="166.0" fill="#ffffff" style="font-family: &quot;JetBrains Mono&quot;, &quot;Menlo&quot;, &quot;Consolas&quot;, &quot;DejaVu Sans Mono&quot;, &quot;Liberation Mono&quot;, &quot;Roboto Mono&quot;, &quot;Noto Sans Mono&quot;, monospace; font-size: 16.0px;" text-anchor="middle" dominant-baseline="central">AAAA</text><polygon points="261.0,156.0 251.0,156.0 261.0,166.0" fill="#ffffff"/></g><g data-channel="cell" data-cell-index="16" data-cell-row="4" data-cell-col="0" data-cell-blank="true"><rect x="33.0" y="196.0" width="48.0" height="20.0" rx="10.0" ry="10.0" fill="#e7be00" stroke="#000000" stroke-width="1"/></g><g data-channel="cell" data-cell-index="17" data-cell-row="4" data-cell-col="1"><rect x="93.0" y="196.0" width="48.0" height="20.0" fill="#000000"/><text x="117.0" y="206.0" fill="#ffffff" style="font-family: &quot;JetBrains Mono&quot;, &quot;Menlo&quot;, &quot;Consolas&quot;, &quot;DejaVu Sans Mono&quot;, &quot;Liberation Mono&quot;, &quot;Roboto Mono&quot;, &quot;Noto Sans Mono&quot;, monospace; font-size: 16.0px;" text-anchor="middle" dominant-baseline="central">AAAA</text></g><g data-channel="cell" data-cell-index="18" data-cell-row="4" data-cell-col="2" data-cell-quartile="1"><rect x="153.0" y="196.0" width="48.0" height="20.0" fill="#000000"/><text x="177.0" y="206.0" fill="#ffffff" style="font-family: &quot;JetBrains Mono&quot;, &quot;Menlo&quot;, &quot;Consolas&quot;, &quot;DejaVu Sans Mono&quot;, &quot;Liberation Mono&quot;, &quot;Roboto Mono&quot;, &quot;Noto Sans Mono&quot;, monospace; font-size: 16.0px;" text-anchor="middle" dominant-baseline="central">AAAA</text><polygon points="153.0,196.0 163.0,196.0 153.0,206.0" fill="#ffffff"/></g><g data-channel="cell" data-cell-index="19" data-cell-row="4" data-cell-col="3"><rect x="213.0" y="196.0" width="48.0" height="20.0" fill="#aa5602"/><text x="237.0" y="206.0" fill="#ffffff" style="font-family: &quot;JetBrains Mono&quot;, &quot;Menlo&quot;, &quot;Consolas&quot;, &quot;DejaVu Sans Mono&quot;, &quot;Liberation Mono&quot;, &quot;Roboto Mono&quot;, &quot;Noto Sans Mono&quot;, monospace; font-size: 16.0px;" text-anchor="middle" dominant-baseline="central">AJLK</text></g></g></g><g data-channel="color-bar" data-bar-slots="16" data-bar-marker-left="3" data-bar-marker-right="4"><g data-color-bar-rank="0" data-color-bar-band="R"><rect x="1" y="1" width="20.0" height="49.35023447745104" fill="#ff3f2f"/><text x="11.0" y="46.830234477451036" fill="#000000" style="font-family: &quot;JetBrains Mono&quot;, &quot;Menlo&quot;, &quot;Consolas&quot;, &quot;DejaVu Sans Mono&quot;, &quot;Liberation Mono&quot;, &quot;Roboto Mono&quot;, &quot;Noto Sans Mono&quot;, monospace; font-size: 16.0px;" text-anchor="middle" data-color-bar-letter="true">r</text></g><g data-color-bar-rank="1" data-color-bar-band="W"><rect x="1" y="50.35023447745104" width="20.0" height="103.4027824369341" fill="#ffffff"/><text x="11.0" y="150.23301691438513" fill="#000000" style="font-family: &quot;JetBrains Mono&quot;, &quot;Menlo&quot;, &quot;Consolas&quot;, &quot;DejaVu Sans Mono&quot;, &quot;Liberation Mono&quot;, &quot;Roboto Mono&quot;, &quot;Noto Sans Mono&quot;, monospace; font-size: 16.0px;" text-anchor="middle" data-color-bar-letter="true">w</text></g><g data-color-bar-rank="2" data-color-bar-band="K"><rect x="1" y="153.75301691438514" width="20.0" height="62.89338583055402" fill="#000000"/><text x="11.0" y="213.12640274493916" fill="#ffffff" style="font-family: &quot;JetBrains Mono&quot;, &quot;Menlo&quot;, &quot;Consolas&quot;, &quot;DejaVu Sans Mono&quot;, &quot;Liberation Mono&quot;, &quot;Roboto Mono&quot;, &quot;Noto Sans Mono&quot;, monospace; font-size: 16.0px;" text-anchor="middle" data-color-bar-letter="true">k</text></g><g data-color-bar-rank="3" data-color-bar-band="G"><rect x="1" y="216.64640274493917" width="20.0" height="14.353597255060834" fill="#e7be00"/><text x="11.0" y="227.48" fill="#000000" style="font-family: &quot;JetBrains Mono&quot;, &quot;Menlo&quot;, &quot;Consolas&quot;, &quot;DejaVu Sans Mono&quot;, &quot;Liberation Mono&quot;, &quot;Roboto Mono&quot;, &quot;Noto Sans Mono&quot;, monospace; font-size: 16.0px;" text-anchor="middle" data-color-bar-letter="true">g</text></g><circle cx="5.6000000000000005" cy="51.3125" r="3.4000000000000004" fill="#ffffff" stroke="#000000" stroke-width="0.75" data-bar-marker="left"/><circle cx="16.4" cy="65.6875" r="3.4000000000000004" fill="#ffffff" stroke="#000000" stroke-width="0.75" data-bar-marker="right"/></g><g data-channel="label-top"><text x="27.0" y="16.0" fill="#666666" style="font-family: &quot;JetBrains Mono&quot;, &quot;Menlo&quot;, &quot;Consolas&quot;, &quot;DejaVu Sans Mono&quot;, &quot;Liberation Mono&quot;, &quot;Roboto Mono&quot;, &quot;Noto Sans Mono&quot;, monospace; font-size: 12.0px;" dominant-baseline="central">XLM muxed: M...</text></g><line x1="0" y1="0.5" x2="273.0" y2="0.5" stroke="#808080" stroke-width="1" shape-rendering="crispEdges"/><line x1="272.5" y1="0" x2="272.5" y2="232.0" stroke="#808080" stroke-width="1" shape-rendering="crispEdges"/><line x1="0" y1="231.5" x2="273.0" y2="231.5" stroke="#808080" stroke-width="1" shape-rendering="crispEdges"/><line x1="0.5" y1="0" x2="0.5" y2="232.0" stroke="#808080" stroke-width="1" shape-rendering="crispEdges"/><line x1="21.5" y1="0" x2="21.5" y2="232.0" stroke="#808080" stroke-width="1" shape-rendering="crispEdges"/></svg>