<svg width="275" height="234" viewBox="0 0 275 234" xmlns="http://www.w3.org/2000/svg" font-family="&quot;JetBrains Mono&quot;, &quot;Menlo&quot;, &quot;Consolas&quot;, &quot;DejaVu Sans Mono&quot;, &quot;Liberation Mono&quot;, &quot;Roboto Mono&quot;, &quot;Noto Sans Mono&quot;, monospace" data-entviz-version="v15" data-entviz-lib="0.15.2" data-input-bytes="69" data-cols="4" data-rows="5" data-encoding="base32" data-scheme="stellar" data-role="address" data-size-basis="decoded" data-entropy-type="stellar" data-size-bits="336" data-qualifiers="{&quot;variant&quot;:&quot;muxed&quot;}" data-parts="[{&quot;text&quot;:&quot;M&quot;,&quot;bind&quot;:&quot;none&quot;},{&quot;text&quot;:&quot;A7QYNF7SOWQ3GLR2BGMZEHXAVIRZA4KVWLTJJFC7MGXUA74P7UJVAAAAAAAAAAAAAJLK&quot;,&quot;bind&quot;:&quot;core&quot;}]"><defs><clipPath id="grid-clip-e2d67d001c0fe504-4x5"><rect x="28" y="27" width="240" height="200"/></clipPath></defs><rect x="1" y="1" width="273" height="232" fill="#ffffff"/><g data-channel="grid"><rect x="28" y="27" width="240" height="200" fill="#2f3fbf"/><g><path fill="#e7be00" d="M28 27h6v10h-6zM40 27h6v10h-6zM46 27h6v10h-6zM52 27h6v10h-6zM58 27h6v10h-6zM64 27h6v10h-6zM82 27h6v10h-6zM82 37h6v10h-6zM82 57h6v10h-6zM70 57h6v10h-6zM64 57h6v10h-6zM52 57h6v10h-6zM28 57h6v10h-6zM28 47h6v10h-6zM28 37h6v10h-6z"/><path fill="#000000" d="M88 27h6v10h-6zM94 27h6v10h-6zM100 27h6v10h-6zM106 27h6v10h-6zM142 37h6v10h-6zM142 47h6v10h-6zM142 57h6v10h-6z"/><path fill="#e7be00" d="M178 27h6v10h-6zM184 27h6v10h-6zM202 37h6v10h-6zM178 57h6v10h-6zM166 57h6v10h-6zM148 57h6v10h-6zM148 47h6v10h-6zM148 37h6v10h-6z"/><path fill="#e7be00" d="M214 27h6v10h-6zM250 27h6v10h-6zM256 27h6v10h-6zM262 27h6v10h-6zM262 37h6v10h-6zM262 57h6v10h-6zM256 57h6v10h-6zM250 57h6v10h-6zM244 57h6v10h-6zM232 57h6v10h-6zM226 57h6v10h-6zM220 57h6v10h-6zM214 57h6v10h-6zM208 57h6v10h-6z"/><path fill="#e7be00" d="M58 67h6v10h-6zM70 67h6v10h-6zM82 77h6v10h-6zM82 97h6v10h-6zM76 97h6v10h-6zM40 97h6v10h-6zM34 97h6v10h-6zM28 97h6v10h-6z"/><path fill="#e7be00" d="M100 67h6v10h-6zM106 67h6v10h-6zM112 67h6v10h-6zM118 67h6v10h-6zM124 67h6v10h-6zM130 67h6v10h-6zM136 67h6v10h-6zM142 77h6v10h-6zM142 87h6v10h-6zM142 97h6v10h-6zM124 97h6v10h-6zM118 97h6v10h-6zM88 97h6v10h-6z"/><path fill="#ff3f2f" d="M148 67h6v10h-6zM154 67h6v10h-6zM166 67h6v10h-6zM184 67h6v10h-6zM190 67h6v10h-6zM196 67h6v10h-6zM202 67h6v10h-6zM196 97h6v10h-6zM190 97h6v10h-6zM184 97h6v10h-6zM172 97h6v10h-6zM166 97h6v10h-6zM160 97h6v10h-6zM154 97h6v10h-6zM148 97h6v10h-6zM148 87h6v10h-6zM148 77h6v10h-6z"/><path fill="#000000" d="M208 67h6v10h-6zM226 67h6v10h-6zM238 67h6v10h-6zM250 67h6v10h-6zM256 67h6v10h-6zM262 67h6v10h-6zM256 97h6v10h-6zM238 97h6v10h-6zM208 87h6v10h-6zM208 77h6v10h-6z"/><path fill="#ffffff" d="M34 107h6v10h-6zM40 107h6v10h-6zM46 107h6v10h-6zM58 107h6v10h-6zM70 107h6v10h-6zM82 117h6v10h-6zM82 127h6v10h-6zM82 137h6v10h-6zM76 137h6v10h-6zM70 137h6v10h-6zM64 137h6v10h-6zM58 137h6v10h-6zM46 137h6v10h-6zM40 137h6v10h-6zM34 137h6v10h-6zM28 127h6v10h-6zM28 117h6v10h-6z"/><path fill="#ff3f2f" d="M94 107h6v10h-6zM100 107h6v10h-6zM106 107h6v10h-6zM130 107h6v10h-6zM136 107h6v10h-6zM142 107h6v10h-6zM142 117h6v10h-6zM142 127h6v10h-6zM112 137h6v10h-6zM88 127h6v10h-6z"/><path fill="#e7be00" d="M160 107h6v10h-6zM166 107h6v10h-6zM172 107h6v10h-6zM178 107h6v10h-6zM184 107h6v10h-6zM202 107h6v10h-6zM202 127h6v10h-6zM196 137h6v10h-6zM178 137h6v10h-6zM160 137h6v10h-6zM148 117h6v10h-6z"/><path fill="#e7be00" d="M28 147h6v10h-6zM34 147h6v10h-6zM52 147h6v10h-6zM58 147h6v10h-6zM70 147h6v10h-6zM76 147h6v10h-6zM82 167h6v10h-6zM76 177h6v10h-6zM70 177h6v10h-6zM58 177h6v10h-6zM46 177h6v10h-6zM40 177h6v10h-6zM28 177h6v10h-6z"/><path fill="#ff3f2f" d="M160 147h6v10h-6zM178 147h6v10h-6zM202 157h6v10h-6zM202 167h6v10h-6zM202 177h6v10h-6zM166 177h6v10h-6zM160 177h6v10h-6zM148 167h6v10h-6zM148 157h6v10h-6z"/><path fill="#000000" d="M208 147h6v10h-6zM214 147h6v10h-6zM220 147h6v10h-6zM244 147h6v10h-6zM250 147h6v10h-6zM256 147h6v10h-6zM262 147h6v10h-6zM262 157h6v10h-6zM262 167h6v10h-6zM250 177h6v10h-6zM226 177h6v10h-6zM214 177h6v10h-6zM208 157h6v10h-6z"/><path fill="#000000" d="M106 187h6v10h-6zM118 187h6v10h-6zM124 187h6v10h-6zM136 187h6v10h-6zM142 207h6v10h-6zM136 217h6v10h-6zM124 217h6v10h-6zM100 217h6v10h-6zM94 217h6v10h-6zM88 217h6v10h-6zM88 207h6v10h-6zM88 197h6v10h-6z"/><path fill="#ff3f2f" d="M154 187h6v10h-6zM166 187h6v10h-6zM172 187h6v10h-6zM178 187h6v10h-6zM184 187h6v10h-6zM190 187h6v10h-6zM196 187h6v10h-6zM202 197h6v10h-6zM202 217h6v10h-6zM184 217h6v10h-6zM172 217h6v10h-6zM148 217h6v10h-6z"/><path fill="#ff3f2f" d="M208 187h6v10h-6zM220 187h6v10h-6zM238 187h6v10h-6zM262 187h6v10h-6zM262 197h6v10h-6zM262 207h6v10h-6zM256 217h6v10h-6zM238 217h6v10h-6zM232 217h6v10h-6zM214 217h6v10h-6z"/></g><g clip-path="url(#grid-clip-e2d67d001c0fe504-4x5)" data-channel="ellipse" data-ellipse-anchor-x="148" data-ellipse-anchor-y="107" data-ellipse-rx="86.21" data-ellipse-ry="94.356" data-ellipse-rotation-deg="24"><ellipse cx="148" cy="107" rx="86.21" ry="94.356" transform="rotate(24 148 107)" fill="#ffffff" stroke="#ffffff" fill-opacity="0.35" stroke-opacity="0.45" stroke-width="2"/></g><g><g data-channel="cell" data-cell-index="0" data-cell-row="0" data-cell-col="0" data-surround-bits="0xe2d67d" data-edge-color="#e7be00"><rect x="34" y="37" width="48" height="20" fill="#88e107"/><text x="58" y="47" fill="#000000" font-size="16" text-anchor="middle" dominant-baseline="central">A7QY</text></g><g data-channel="cell" data-cell-index="1" data-cell-row="0" data-cell-col="1" data-surround-bits="0x1c0f" data-edge-color="#000000"><rect x="94" y="37" width="48" height="20" fill="#227f69"/><text x="118" y="47" fill="#ffffff" font-size="16" text-anchor="middle" dominant-baseline="central">NF7S</text></g><g data-channel="cell" data-cell-index="2" data-cell-row="0" data-cell-col="2" data-surround-bits="0xe50460" data-edge-color="#e7be00"><rect x="154" y="37" width="48" height="20" fill="#bba175"/><text x="178" y="47" fill="#000000" font-size="16" text-anchor="middle" dominant-baseline="central">OWQ3</text></g><g data-channel="cell" data-cell-index="3" data-cell-row="0" data-cell-col="3" data-surround-bits="0x3ef782" data-edge-color="#e7be00"><rect x="214" y="37" width="48" height="20" fill="#aae332"/><text x="238" y="47" fill="#000000" font-size="16" text-anchor="middle" dominant-baseline="central">GLR2</text></g><g data-channel="cell" data-cell-index="4" data-cell-row="1" data-cell-col="0" data-surround-bits="0x3834a0" data-edge-color="#e7be00" data-cell-quartile="3"><rect x="34" y="77" width="48" height="20" fill="#999909"/><text x="58" y="87" fill="#000000" font-size="16" text-anchor="middle" dominant-baseline="central">BGMZ</text><polygon points="82,97 82,87 72,97" fill="#000000"/></g><g data-channel="cell" data-cell-index="5" data-cell-row="1" data-cell-col="1" data-surround-bits="0x219dfc" data-edge-color="#e7be00"><rect x="94" y="77" width="48" height="20" fill="#00ee21"/><text x="118" y="87" fill="#000000" font-size="16" text-anchor="middle" dominant-baseline="central">EHXA</text></g><g data-channel="cell" data-cell-index="6" data-cell-row="1" data-cell-col="2" data-surround-bits="0xfee3cb" data-edge-color="#ff3f2f"><rect x="154" y="77" width="48" height="20" fill="#9923aa"/><text x="178" y="87" fill="#ffffff" font-size="16" text-anchor="middle" dominant-baseline="central">VIRZ</text></g><g data-channel="cell" data-cell-index="7" data-cell-row="1" data-cell-col="3" data-surround-bits="0xc123a9" data-edge-color="#000000"><rect x="214" y="77" width="48" height="20" fill="#551507"/><text x="238" y="87" fill="#ffffff" font-size="16" text-anchor="middle" dominant-baseline="central">A4KV</text></g><g data-channel="cell" data-cell-index="8" data-cell-row="2" data-cell-col="0" data-surround-bits="0xddfcae" data-edge-color="#ffffff" data-cell-quartile="4"><rect x="34" y="117" width="48" height="20" fill="#99e6b2"/><text x="58" y="127" fill="#000000" font-size="16" text-anchor="middle" dominant-baseline="central">WLTJ</text><polygon points="34,137 34,127 44,137" fill="#000000"/></g><g data-channel="cell" data-cell-index="9" data-cell-row="2" data-cell-col="1" data-surround-bits="0x420f8e" data-edge-color="#ff3f2f"><rect x="94" y="117" width="48" height="20" fill="#ff4549"/><text x="118" y="127" fill="#000000" font-size="16" text-anchor="middle" dominant-baseline="central">JFC7</text></g><g data-channel="cell" data-cell-index="10" data-cell-row="2" data-cell-col="2" data-surround-bits="0x892a7c" data-edge-color="#e7be00"><rect x="154" y="117" width="48" height="20" fill="#44af61"/><text x="178" y="127" fill="#000000" font-size="16" text-anchor="middle" dominant-baseline="central">MGXU</text></g><g data-channel="cell" data-cell-index="11" data-cell-row="2" data-cell-col="3" data-cell-blank="true" data-cell-blank-map="true"><rect x="214" y="117" width="48" height="20" rx="10" ry="10" fill="#ffffff" stroke="#000000" stroke-width="1"/><circle cx="232" cy="119" r="3.5" fill="#1d4ed8" data-blank-map-min="0,1"/><path d="M 239.8,123 H 248.2 M 244,118.8 V 127.2" fill="none" stroke="#d62828" stroke-width="1.925" stroke-linecap="butt" data-blank-map-max="1,2"/></g><g data-channel="cell" data-cell-index="12" data-cell-row="3" data-cell-col="0" data-surround-bits="0x2d69b3" data-edge-color="#e7be00"><rect x="34" y="157" width="48" height="20" fill="#fff807"/><text x="58" y="167" fill="#000000" font-size="16" text-anchor="middle" dominant-baseline="central">A74P</text></g><g data-channel="cell" data-cell-index="13" data-cell-row="3" data-cell-col="1" data-cell-blank="true"><rect x="94" y="157" width="48" height="20" rx="10" ry="10" fill="#ffffff" stroke="#000000" stroke-width="1"/></g><g data-channel="cell" data-cell-index="14" data-cell-row="3" data-cell-col="2" data-surround-bits="0xcc1c24" data-edge-color="#ff3f2f"><rect x="154" y="157" width="48" height="20" fill="#5513fd"/><text x="178" y="167" fill="#ffffff" font-size="16" text-anchor="middle" dominant-baseline="central">7UJV</text></g><g data-channel="cell" data-cell-index="15" data-cell-row="3" data-cell-col="3" data-surround-bits="0x944fc7" data-edge-color="#000000" data-cell-quartile="2"><rect x="214" y="157" width="48" height="20" fill="#000000"/><text x="238" y="167" fill="#ffffff" font-size="16" text-anchor="middle" dominant-baseline="central">AAAA</text><polygon points="262,157 252,157 262,167" fill="#ffffff"/></g><g data-channel="cell" data-cell-index="16" data-cell-row="4" data-cell-col="0" data-cell-blank="true"><rect x="34" y="197" width="48" height="20" rx="10" ry="10" fill="#e7be00" stroke="#000000" stroke-width="1"/></g><g data-channel="cell" data-cell-index="17" data-cell-row="4" data-cell-col="1" data-surround-bits="0xf8a968" data-edge-color="#000000"><rect x="94" y="197" width="48" height="20" fill="#000000"/><text x="118" y="207" fill="#ffffff" font-size="16" text-anchor="middle" dominant-baseline="central">AAAA</text></g><g data-channel="cell" data-cell-index="18" data-cell-row="4" data-cell-col="2" data-surround-bits="0x2295fa" data-edge-color="#ff3f2f" data-cell-quartile="1"><rect x="154" y="197" width="48" height="20" fill="#000000"/><text x="178" y="207" fill="#ffffff" font-size="16" text-anchor="middle" dominant-baseline="central">AAAA</text><polygon points="154,197 164,197 154,207" fill="#ffffff"/></g><g data-channel="cell" data-cell-index="19" data-cell-row="4" data-cell-col="3" data-surround-bits="0x132e25" data-edge-color="#ff3f2f"><rect x="214" y="197" width="48" height="20" fill="#aa5602"/><text x="238" y="207" fill="#ffffff" font-size="16" text-anchor="middle" dominant-baseline="central">AJLK</text></g></g></g><g data-channel="color-bar" data-bar-slots="16" data-bar-marker-left="3" data-bar-marker-right="4"><g data-color-bar-rank="0" data-color-bar-band="R"><rect x="2" y="2" width="20" height="49.35" fill="#ff3f2f"/><text x="12" y="47.83" fill="#000000" font-size="16" text-anchor="middle" data-color-bar-letter="true">r</text></g><g data-color-bar-rank="1" data-color-bar-band="W"><rect x="2" y="51.35" width="20" height="103.403" fill="#ffffff"/><text x="12" y="151.233" fill="#000000" font-size="16" text-anchor="middle" data-color-bar-letter="true">w</text></g><g data-color-bar-rank="2" data-color-bar-band="K"><rect x="2" y="154.753" width="20" height="62.893" fill="#000000"/><text x="12" y="214.126" fill="#ffffff" font-size="16" text-anchor="middle" data-color-bar-letter="true">k</text></g><g data-color-bar-rank="3" data-color-bar-band="G"><rect x="2" y="217.646" width="20" height="14.354" fill="#e7be00"/><text x="12" y="228.48" fill="#000000" font-size="16" text-anchor="middle" data-color-bar-letter="true">g</text></g><circle cx="6.6" cy="52.312" r="3.4" fill="#ffffff" stroke="#000000" stroke-width="0.75" data-bar-marker="left"/><circle cx="17.4" cy="66.688" r="3.4" fill="#ffffff" stroke="#000000" stroke-width="0.75" data-bar-marker="right"/></g><g data-channel="label-top"><text x="28" y="17" fill="#666666" font-size="12" dominant-baseline="central">XLM, M</text></g><line x1="1" y1="1.5" x2="274" y2="1.5" stroke="#808080" stroke-width="1" shape-rendering="crispEdges"/><line x1="273.5" y1="1" x2="273.5" y2="233" stroke="#808080" stroke-width="1" shape-rendering="crispEdges"/><line x1="1" y1="232.5" x2="274" y2="232.5" stroke="#808080" stroke-width="1" shape-rendering="crispEdges"/><line x1="1.5" y1="1" x2="1.5" y2="233" stroke="#808080" stroke-width="1" shape-rendering="crispEdges"/><line x1="22.5" y1="1" x2="22.5" y2="233" stroke="#808080" stroke-width="1" shape-rendering="crispEdges"/></svg>