<svg width="143.0" height="142.0" viewBox="0 0 143.0 142.0" xmlns="http://www.w3.org/2000/svg" data-entviz-version="v5" data-entviz-lib="0.5.0" data-input-bytes="20" data-cols="2" data-rows="2"><defs><clipPath id="grid-clip-461689bb47906dcf-2x2"><rect x="17.0" y="31.0" width="120.0" height="80.0"/></clipPath></defs><rect x="0" y="0" width="143.0" height="142.0" fill="#ffffff"/><g data-channel="grid"><rect x="17.0" y="31.0" width="120.0" height="80.0" fill="#ff3f2f"/><g><rect x="17.0" y="31.0" width="6.0" height="10.0" fill="#ffd966"/><rect x="35.0" y="31.0" width="6.0" height="10.0" fill="#ffd966"/><rect x="59.0" y="31.0" width="6.0" height="10.0" fill="#ffd966"/><rect x="71.0" y="31.0" width="6.0" height="10.0" fill="#ffd966"/><rect x="71.0" y="41.0" width="6.0" height="10.0" fill="#ffd966"/><rect x="71.0" y="61.0" width="6.0" height="10.0" fill="#ffd966"/><rect x="41.0" y="61.0" width="6.0" height="10.0" fill="#ffd966"/><rect x="35.0" y="61.0" width="6.0" height="10.0" fill="#ffd966"/><rect x="17.0" y="51.0" width="6.0" height="10.0" fill="#ffd966"/><rect x="101.0" y="31.0" width="6.0" height="10.0" fill="#2f3fbf"/><rect x="119.0" y="31.0" width="6.0" height="10.0" fill="#2f3fbf"/><rect x="125.0" y="31.0" width="6.0" height="10.0" fill="#2f3fbf"/><rect x="131.0" y="31.0" width="6.0" height="10.0" fill="#2f3fbf"/><rect x="131.0" y="41.0" width="6.0" height="10.0" fill="#2f3fbf"/><rect x="119.0" y="61.0" width="6.0" height="10.0" fill="#2f3fbf"/><rect x="107.0" y="61.0" width="6.0" height="10.0" fill="#2f3fbf"/><rect x="101.0" y="61.0" width="6.0" height="10.0" fill="#2f3fbf"/><rect x="89.0" y="61.0" width="6.0" height="10.0" fill="#2f3fbf"/><rect x="83.0" y="61.0" width="6.0" height="10.0" fill="#2f3fbf"/><rect x="77.0" y="61.0" width="6.0" height="10.0" fill="#2f3fbf"/><rect x="77.0" y="41.0" width="6.0" height="10.0" fill="#2f3fbf"/><rect x="83.0" y="71.0" width="6.0" height="10.0" fill="#000000"/><rect x="101.0" y="71.0" width="6.0" height="10.0" fill="#000000"/><rect x="113.0" y="71.0" width="6.0" height="10.0" fill="#000000"/><rect x="119.0" y="71.0" width="6.0" height="10.0" fill="#000000"/><rect x="125.0" y="71.0" width="6.0" height="10.0" fill="#000000"/><rect x="131.0" y="71.0" width="6.0" height="10.0" fill="#000000"/><rect x="131.0" y="81.0" width="6.0" height="10.0" fill="#000000"/><rect x="131.0" y="91.0" width="6.0" height="10.0" fill="#000000"/><rect x="119.0" y="101.0" width="6.0" height="10.0" fill="#000000"/><rect x="113.0" y="101.0" width="6.0" height="10.0" fill="#000000"/><rect x="107.0" y="101.0" width="6.0" height="10.0" fill="#000000"/><rect x="95.0" y="101.0" width="6.0" height="10.0" fill="#000000"/><rect x="89.0" y="101.0" width="6.0" height="10.0" fill="#000000"/><rect x="77.0" y="101.0" width="6.0" height="10.0" fill="#000000"/><rect x="77.0" y="91.0" width="6.0" height="10.0" fill="#000000"/></g><g clip-path="url(#grid-clip-461689bb47906dcf-2x2)" data-channel="ellipse" data-ellipse-anchor-x="77.0" data-ellipse-anchor-y="31.0" data-ellipse-rx="20.0" data-ellipse-ry="25.333333333333332" data-ellipse-rotation-deg="84.0"><ellipse cx="77.0" cy="31.0" rx="20.0" ry="25.333333333333332" transform="rotate(84.0 77.0 31.0)" fill="#000000" fill-opacity="0.4"/></g><g><g data-channel="cell" data-cell-index="0" data-cell-row="0" data-cell-col="0" data-cell-quartile="1"><rect x="23.0" y="41.0" width="48.0" height="20.0" fill="#dfa780"/><text x="47.0" y="51.0" fill="#000000" style="font-family: &quot;DejaVu Sans Mono&quot;, &quot;Consolas&quot;, &quot;Menlo&quot;, &quot;Liberation Mono&quot;, monospace; font-size: 16.0px;" text-anchor="middle" dominant-baseline="central">WAVV</text><polygon points="23.0,41.0 33.0,41.0 23.0,51.0" fill="#000000"/></g><g data-channel="cell" data-cell-index="1" data-cell-row="0" data-cell-col="1" data-cell-quartile="2"><rect x="83.0" y="41.0" width="48.0" height="20.0" fill="#089761"/><text x="107.0" y="51.0" fill="#ffffff" style="font-family: &quot;DejaVu Sans Mono&quot;, &quot;Consolas&quot;, &quot;Menlo&quot;, &quot;Liberation Mono&quot;, monospace; font-size: 16.0px;" text-anchor="middle" dominant-baseline="central">OPS8</text><polygon points="131.0,41.0 121.0,41.0 131.0,51.0" fill="#ffffff"/></g><g data-channel="cell" data-cell-index="2" data-cell-row="1" data-cell-col="0" data-cell-blank="true" data-cell-blank-marker="true"><circle cx="47.0" cy="91.0" r="17.0" fill="#ffffff" stroke="#000000" stroke-width="1"/><line x1="47.0" y1="91.0" x2="61.976905298081185" y2="81.01539646794588" stroke="#ffffff" style="mix-blend-mode: difference" stroke-width="1"/><line x1="47.0" y1="91.0" x2="47.0" y2="82.5" stroke="#000000" stroke-width="1"/><circle cx="47.0" cy="82.5" r="1.5" fill="#ffffff" stroke="#000000" stroke-width="1"/></g><g data-channel="cell" data-cell-index="3" data-cell-row="1" data-cell-col="1" data-cell-quartile="3"><rect x="83.0" y="81.0" width="48.0" height="20.0" fill="#827015"/><text x="107.0" y="91.0" fill="#ffffff" style="font-family: &quot;DejaVu Sans Mono&quot;, &quot;Consolas&quot;, &quot;Menlo&quot;, &quot;Liberation Mono&quot;, monospace; font-size: 16.0px;" text-anchor="middle" dominant-baseline="central">5N22</text><polygon points="131.0,101.0 131.0,91.0 121.0,101.0" fill="#ffffff"/></g></g></g><g data-channel="color-bar"><g data-color-bar-rank="0" data-color-bar-band="B"><rect x="1" y="1" width="10.0" height="45.85115879401193" fill="#2f3fbf"/><text x="6.0" y="23.925579397005965" fill="#ffffff" style="font-family: &quot;DejaVu Sans Mono&quot;, &quot;Consolas&quot;, &quot;Menlo&quot;, &quot;Liberation Mono&quot;, monospace; font-size: 8.5px;" text-anchor="middle" dominant-baseline="central" data-color-bar-letter="true">b</text></g><g data-color-bar-rank="1" data-color-bar-band="W"><rect x="1" y="46.85115879401193" width="10.0" height="43.25034777069729" fill="#ffffff"/><text x="6.0" y="68.47633267936058" fill="#000000" style="font-family: &quot;DejaVu Sans Mono&quot;, &quot;Consolas&quot;, &quot;Menlo&quot;, &quot;Liberation Mono&quot;, monospace; font-size: 8.5px;" text-anchor="middle" dominant-baseline="central" data-color-bar-letter="true">w</text></g><g data-color-bar-rank="2" data-color-bar-band="G"><rect x="1" y="90.10150656470921" width="10.0" height="28.00743218901249" fill="#ffd966"/><text x="6.0" y="104.10522265921546" fill="#000000" style="font-family: &quot;DejaVu Sans Mono&quot;, &quot;Consolas&quot;, &quot;Menlo&quot;, &quot;Liberation Mono&quot;, monospace; font-size: 8.5px;" text-anchor="middle" dominant-baseline="central" data-color-bar-letter="true">g</text></g><g data-color-bar-rank="3" data-color-bar-band="K"><rect x="1" y="118.1089387537217" width="10.0" height="22.891061246278298" fill="#000000"/><text x="6.0" y="129.55446937686085" fill="#ffffff" style="font-family: &quot;DejaVu Sans Mono&quot;, &quot;Consolas&quot;, &quot;Menlo&quot;, &quot;Liberation Mono&quot;, monospace; font-size: 8.5px;" text-anchor="middle" dominant-baseline="central" data-color-bar-letter="true">k</text></g></g><g data-channel="label-top"><text x="17.0" y="16.0" fill="#666666" style="font-family: &quot;DejaVu Sans Mono&quot;, &quot;Consolas&quot;, &quot;Menlo&quot;, &quot;Liberation Mono&quot;, monospace; font-size: 12.0px;" dominant-baseline="central">LEI: 213800...</text></g><g data-channel="label-bottom"><text x="137.0" y="126.0" fill="#666666" style="font-family: &quot;DejaVu Sans Mono&quot;, &quot;Consolas&quot;, &quot;Menlo&quot;, &quot;Liberation Mono&quot;, monospace; font-size: 12.0px;" text-anchor="end" dominant-baseline="central">...05</text></g><line x1="0" y1="0.5" x2="143.0" y2="0.5" stroke="#808080" stroke-width="1" shape-rendering="crispEdges"/><line x1="142.5" y1="0" x2="142.5" y2="142.0" stroke="#808080" stroke-width="1" shape-rendering="crispEdges"/><line x1="0" y1="141.5" x2="143.0" y2="141.5" stroke="#808080" stroke-width="1" shape-rendering="crispEdges"/><line x1="0.5" y1="0" x2="0.5" y2="142.0" stroke="#808080" stroke-width="1" shape-rendering="crispEdges"/><line x1="11.5" y1="0" x2="11.5" y2="142.0" stroke="#808080" stroke-width="1" shape-rendering="crispEdges"/></svg>