<svg width="153.0" height="117.0" viewBox="0 0 153.0 117.0" xmlns="http://www.w3.org/2000/svg" data-entviz-version="v6" data-entviz-lib="0.5.0" data-input-bytes="19" data-cols="2" data-rows="2"><defs><clipPath id="grid-clip-c2e5f90a143dae44-2x2"><rect x="27.0" y="31.0" width="120.0" height="80.0"/></clipPath></defs><rect x="0" y="0" width="153.0" height="117.0" fill="#ffffff"/><g data-channel="grid"><rect x="27.0" y="31.0" width="120.0" height="80.0" fill="#ffffff"/><g><rect x="27.0" y="31.0" width="6.0" height="10.0" fill="#000000"/><rect x="45.0" y="31.0" width="6.0" height="10.0" fill="#000000"/><rect x="51.0" y="31.0" width="6.0" height="10.0" fill="#000000"/><rect x="57.0" y="31.0" width="6.0" height="10.0" fill="#000000"/><rect x="63.0" y="31.0" width="6.0" height="10.0" fill="#000000"/><rect x="69.0" y="31.0" width="6.0" height="10.0" fill="#000000"/><rect x="75.0" y="31.0" width="6.0" height="10.0" fill="#000000"/><rect x="81.0" y="41.0" width="6.0" height="10.0" fill="#000000"/><rect x="75.0" y="61.0" width="6.0" height="10.0" fill="#000000"/><rect x="69.0" y="61.0" width="6.0" height="10.0" fill="#000000"/><rect x="63.0" y="61.0" width="6.0" height="10.0" fill="#000000"/><rect x="51.0" y="61.0" width="6.0" height="10.0" fill="#000000"/><rect x="27.0" y="51.0" width="6.0" height="10.0" fill="#000000"/><rect x="27.0" y="41.0" width="6.0" height="10.0" fill="#000000"/><rect x="87.0" y="31.0" width="6.0" height="10.0" fill="#ffd966"/><rect x="99.0" y="31.0" width="6.0" height="10.0" fill="#ffd966"/><rect x="105.0" y="31.0" width="6.0" height="10.0" fill="#ffd966"/><rect x="111.0" y="31.0" width="6.0" height="10.0" fill="#ffd966"/><rect x="117.0" y="31.0" width="6.0" height="10.0" fill="#ffd966"/><rect x="141.0" y="41.0" width="6.0" height="10.0" fill="#ffd966"/><rect x="141.0" y="61.0" width="6.0" height="10.0" fill="#ffd966"/><rect x="111.0" y="61.0" width="6.0" height="10.0" fill="#ffd966"/><rect x="99.0" y="61.0" width="6.0" height="10.0" fill="#ffd966"/><rect x="39.0" y="71.0" width="6.0" height="10.0" fill="#2f3fbf"/><rect x="51.0" y="71.0" width="6.0" height="10.0" fill="#2f3fbf"/><rect x="69.0" y="71.0" width="6.0" height="10.0" fill="#2f3fbf"/><rect x="81.0" y="81.0" width="6.0" height="10.0" fill="#2f3fbf"/><rect x="69.0" y="101.0" width="6.0" height="10.0" fill="#2f3fbf"/><rect x="51.0" y="101.0" width="6.0" height="10.0" fill="#2f3fbf"/><rect x="45.0" y="101.0" width="6.0" height="10.0" fill="#2f3fbf"/><rect x="39.0" y="101.0" width="6.0" height="10.0" fill="#2f3fbf"/><rect x="27.0" y="101.0" width="6.0" height="10.0" fill="#2f3fbf"/><rect x="27.0" y="81.0" width="6.0" height="10.0" fill="#2f3fbf"/><rect x="99.0" y="71.0" width="6.0" height="10.0" fill="#000000"/><rect x="117.0" y="71.0" width="6.0" height="10.0" fill="#000000"/><rect x="141.0" y="71.0" width="6.0" height="10.0" fill="#000000"/><rect x="141.0" y="81.0" width="6.0" height="10.0" fill="#000000"/><rect x="141.0" y="101.0" width="6.0" height="10.0" fill="#000000"/><rect x="129.0" y="101.0" width="6.0" height="10.0" fill="#000000"/><rect x="117.0" y="101.0" width="6.0" height="10.0" fill="#000000"/><rect x="111.0" y="101.0" width="6.0" height="10.0" fill="#000000"/><rect x="99.0" y="101.0" width="6.0" height="10.0" fill="#000000"/><rect x="93.0" y="101.0" width="6.0" height="10.0" fill="#000000"/><rect x="87.0" y="91.0" width="6.0" height="10.0" fill="#000000"/></g><g clip-path="url(#grid-clip-c2e5f90a143dae44-2x2)" data-channel="ellipse" data-ellipse-anchor-x="87.0" data-ellipse-anchor-y="31.0" data-ellipse-rx="43.599999999999994" data-ellipse-ry="34.0" data-ellipse-rotation-deg="72.0"><ellipse cx="87.0" cy="31.0" rx="43.599999999999994" ry="34.0" transform="rotate(72.0 87.0 31.0)" fill="#000000" fill-opacity="0.2"/></g><g><g data-channel="cell" data-cell-index="0" data-cell-row="0" data-cell-col="0" data-cell-quartile="1"><rect x="33.0" y="41.0" width="48.0" height="20.0" fill="#563412"/><text x="57.0" y="51.0" fill="#ffffff" style="font-family: &quot;JetBrains Mono&quot;, &quot;Menlo&quot;, &quot;Consolas&quot;, &quot;DejaVu Sans Mono&quot;, &quot;Liberation Mono&quot;, &quot;Roboto Mono&quot;, &quot;Noto Sans Mono&quot;, monospace; font-size: 12.0px;" text-anchor="middle" dominant-baseline="central">123456</text><polygon points="33.0,41.0 43.0,41.0 33.0,51.0" fill="#ffffff"/></g><g data-channel="cell" data-cell-index="1" data-cell-row="0" data-cell-col="1" data-cell-quartile="2"><rect x="93.0" y="41.0" width="48.0" height="20.0" fill="#989078"/><text x="117.0" y="51.0" fill="#000000" style="font-family: &quot;JetBrains Mono&quot;, &quot;Menlo&quot;, &quot;Consolas&quot;, &quot;DejaVu Sans Mono&quot;, &quot;Liberation Mono&quot;, &quot;Roboto Mono&quot;, &quot;Noto Sans Mono&quot;, monospace; font-size: 12.0px;" text-anchor="middle" dominant-baseline="central">789098</text><polygon points="141.0,41.0 131.0,41.0 141.0,51.0" fill="#000000"/></g><g data-channel="cell" data-cell-index="2" data-cell-row="1" data-cell-col="0" data-cell-quartile="3"><rect x="33.0" y="81.0" width="48.0" height="20.0" fill="#325476"/><text x="57.0" y="91.0" fill="#ffffff" style="font-family: &quot;JetBrains Mono&quot;, &quot;Menlo&quot;, &quot;Consolas&quot;, &quot;DejaVu Sans Mono&quot;, &quot;Liberation Mono&quot;, &quot;Roboto Mono&quot;, &quot;Noto Sans Mono&quot;, monospace; font-size: 12.0px;" text-anchor="middle" dominant-baseline="central">765432</text><polygon points="81.0,101.0 81.0,91.0 71.0,101.0" fill="#ffffff"/></g><g data-channel="cell" data-cell-index="3" data-cell-row="1" data-cell-col="1" data-cell-quartile="4"><rect x="93.0" y="81.0" width="48.0" height="20.0" fill="#222222"/><text x="117.0" y="91.0" fill="#ffffff" style="font-family: &quot;JetBrains Mono&quot;, &quot;Menlo&quot;, &quot;Consolas&quot;, &quot;DejaVu Sans Mono&quot;, &quot;Liberation Mono&quot;, &quot;Roboto Mono&quot;, &quot;Noto Sans Mono&quot;, monospace; font-size: 12.0px;" text-anchor="middle" dominant-baseline="central">2</text><polygon points="93.0,101.0 93.0,91.0 103.0,101.0" fill="#ffffff"/></g></g></g><g data-channel="color-bar"><g data-color-bar-rank="0" data-color-bar-band="B"><rect x="1" y="1" width="20.0" height="36.28915008153944" fill="#2f3fbf"/><text x="11.0" y="34.64915008153944" fill="#ffffff" style="font-family: &quot;JetBrains Mono&quot;, &quot;Menlo&quot;, &quot;Consolas&quot;, &quot;DejaVu Sans Mono&quot;, &quot;Liberation Mono&quot;, &quot;Roboto Mono&quot;, &quot;Noto Sans Mono&quot;, monospace; font-size: 12.0px;" text-anchor="middle" data-color-bar-letter="true">b</text></g><g data-color-bar-rank="1" data-color-bar-band="R"><rect x="1" y="37.28915008153944" width="20.0" height="28.474823574236044" fill="#ff3f2f"/><text x="11.0" y="63.12397365577549" fill="#000000" style="font-family: &quot;JetBrains Mono&quot;, &quot;Menlo&quot;, &quot;Consolas&quot;, &quot;DejaVu Sans Mono&quot;, &quot;Liberation Mono&quot;, &quot;Roboto Mono&quot;, &quot;Noto Sans Mono&quot;, monospace; font-size: 12.0px;" text-anchor="middle" data-color-bar-letter="true">r</text></g><g data-color-bar-rank="2" data-color-bar-band="K"><rect x="1" y="65.76397365577549" width="20.0" height="26.7364254740966" fill="#000000"/><text x="11.0" y="89.86039912987208" fill="#ffffff" style="font-family: &quot;JetBrains Mono&quot;, &quot;Menlo&quot;, &quot;Consolas&quot;, &quot;DejaVu Sans Mono&quot;, &quot;Liberation Mono&quot;, &quot;Roboto Mono&quot;, &quot;Noto Sans Mono&quot;, monospace; font-size: 12.0px;" text-anchor="middle" data-color-bar-letter="true">k</text></g><g data-color-bar-rank="3" data-color-bar-band="G"><rect x="1" y="92.50039912987208" width="20.0" height="23.49960087012792" fill="#ffd966"/><text x="11.0" y="113.36" fill="#000000" style="font-family: &quot;JetBrains Mono&quot;, &quot;Menlo&quot;, &quot;Consolas&quot;, &quot;DejaVu Sans Mono&quot;, &quot;Liberation Mono&quot;, &quot;Roboto Mono&quot;, &quot;Noto Sans Mono&quot;, monospace; font-size: 12.0px;" text-anchor="middle" data-color-bar-letter="true">g</text></g></g><g data-channel="label-top"><text x="27.0" y="16.0" fill="#666666" style="font-family: &quot;JetBrains Mono&quot;, &quot;Menlo&quot;, &quot;Consolas&quot;, &quot;DejaVu Sans Mono&quot;, &quot;Liberation Mono&quot;, &quot;Roboto Mono&quot;, &quot;Noto Sans Mono&quot;, monospace; font-size: 12.0px;" dominant-baseline="central">snowflake:</text></g><line x1="0" y1="0.5" x2="153.0" y2="0.5" stroke="#808080" stroke-width="1" shape-rendering="crispEdges"/><line x1="152.5" y1="0" x2="152.5" y2="117.0" stroke="#808080" stroke-width="1" shape-rendering="crispEdges"/><line x1="0" y1="116.5" x2="153.0" y2="116.5" stroke="#808080" stroke-width="1" shape-rendering="crispEdges"/><line x1="0.5" y1="0" x2="0.5" y2="117.0" stroke="#808080" stroke-width="1" shape-rendering="crispEdges"/><line x1="21.5" y1="0" x2="21.5" y2="117.0" stroke="#808080" stroke-width="1" shape-rendering="crispEdges"/></svg>