<svg width="153.0" height="142.0" viewBox="0 0 153.0 142.0" xmlns="http://www.w3.org/2000/svg" data-entviz-version="v6" data-entviz-lib="0.5.0" data-input-bytes="20" data-cols="2" data-rows="2"><defs><clipPath id="grid-clip-147ae55ca0f286f5-2x2"><rect x="27.0" y="31.0" width="120.0" height="80.0"/></clipPath></defs><rect x="0" y="0" width="153.0" height="142.0" fill="#ffffff"/><g data-channel="grid"><rect x="27.0" y="31.0" width="120.0" height="80.0" fill="#ff3f2f"/><g><rect x="27.0" y="31.0" width="6.0" height="10.0" fill="#000000"/><rect x="39.0" y="31.0" width="6.0" height="10.0" fill="#000000"/><rect x="57.0" y="31.0" width="6.0" height="10.0" fill="#000000"/><rect x="63.0" y="31.0" width="6.0" height="10.0" fill="#000000"/><rect x="69.0" y="31.0" width="6.0" height="10.0" fill="#000000"/><rect x="81.0" y="31.0" width="6.0" height="10.0" fill="#000000"/><rect x="81.0" y="51.0" width="6.0" height="10.0" fill="#000000"/><rect x="81.0" y="61.0" width="6.0" height="10.0" fill="#000000"/><rect x="75.0" y="61.0" width="6.0" height="10.0" fill="#000000"/><rect x="69.0" y="61.0" width="6.0" height="10.0" fill="#000000"/><rect x="45.0" y="61.0" width="6.0" height="10.0" fill="#000000"/><rect x="33.0" y="61.0" width="6.0" height="10.0" fill="#000000"/><rect x="33.0" y="71.0" width="6.0" height="10.0" fill="#000000"/><rect x="51.0" y="71.0" width="6.0" height="10.0" fill="#000000"/><rect x="57.0" y="71.0" width="6.0" height="10.0" fill="#000000"/><rect x="63.0" y="71.0" width="6.0" height="10.0" fill="#000000"/><rect x="69.0" y="71.0" width="6.0" height="10.0" fill="#000000"/><rect x="75.0" y="101.0" width="6.0" height="10.0" fill="#000000"/><rect x="63.0" y="101.0" width="6.0" height="10.0" fill="#000000"/><rect x="45.0" y="101.0" width="6.0" height="10.0" fill="#000000"/><rect x="39.0" y="101.0" width="6.0" height="10.0" fill="#000000"/><rect x="33.0" y="101.0" width="6.0" height="10.0" fill="#000000"/><rect x="27.0" y="91.0" width="6.0" height="10.0" fill="#000000"/><rect x="93.0" y="71.0" width="6.0" height="10.0" fill="#000000"/><rect x="111.0" y="71.0" width="6.0" height="10.0" fill="#000000"/><rect x="117.0" y="71.0" width="6.0" height="10.0" fill="#000000"/><rect x="129.0" y="71.0" width="6.0" height="10.0" fill="#000000"/><rect x="135.0" y="71.0" width="6.0" height="10.0" fill="#000000"/><rect x="141.0" y="81.0" width="6.0" height="10.0" fill="#000000"/><rect x="141.0" y="101.0" width="6.0" height="10.0" fill="#000000"/><rect x="135.0" y="101.0" width="6.0" height="10.0" fill="#000000"/><rect x="129.0" y="101.0" width="6.0" height="10.0" fill="#000000"/><rect x="123.0" y="101.0" width="6.0" height="10.0" fill="#000000"/><rect x="111.0" y="101.0" width="6.0" height="10.0" fill="#000000"/><rect x="105.0" y="101.0" width="6.0" height="10.0" fill="#000000"/><rect x="87.0" y="81.0" width="6.0" height="10.0" fill="#000000"/></g><g clip-path="url(#grid-clip-147ae55ca0f286f5-2x2)" data-channel="ellipse" data-ellipse-anchor-x="27.0" data-ellipse-anchor-y="111.0" data-ellipse-rx="31.728851224083105" data-ellipse-ry="45.57416812186482" data-ellipse-rotation-deg="60.0"><ellipse cx="27.0" cy="111.0" rx="31.728851224083105" ry="45.57416812186482" transform="rotate(60.0 27.0 111.0)" fill="#000000" fill-opacity="0.4"/></g><g><g data-channel="cell" data-cell-index="0" data-cell-row="0" data-cell-col="0" data-cell-quartile="1"><rect x="33.0" y="41.0" width="48.0" height="20.0" fill="#dd4405"/><text x="57.0" y="51.0" fill="#000000" style="font-family: &quot;JetBrains Mono&quot;, &quot;Menlo&quot;, &quot;Consolas&quot;, &quot;DejaVu Sans Mono&quot;, &quot;Liberation Mono&quot;, &quot;Roboto Mono&quot;, &quot;Noto Sans Mono&quot;, monospace; font-size: 16.0px;" text-anchor="middle" dominant-baseline="central">1KJT</text><polygon points="33.0,41.0 43.0,41.0 33.0,51.0" fill="#000000"/></g><g data-channel="cell" data-cell-index="1" data-cell-row="0" data-cell-col="1" data-cell-blank="true" data-cell-blank-map="true"><rect x="93.0" y="41.0" width="48.0" height="20.0" rx="5.0" ry="5.0" fill="#ffffff" stroke="#000000" stroke-width="1"/><circle cx="129.0" cy="56.0" r="2.5" fill="#d62828" data-blank-map-max="true"/><circle cx="105.0" cy="46.0" r="2.5" fill="#1d4ed8" data-blank-map-min="true"/></g><g data-channel="cell" data-cell-index="2" data-cell-row="1" data-cell-col="0" data-cell-quartile="2"><rect x="33.0" y="81.0" width="48.0" height="20.0" fill="#0c2449"/><text x="57.0" y="91.0" fill="#ffffff" style="font-family: &quot;JetBrains Mono&quot;, &quot;Menlo&quot;, &quot;Consolas&quot;, &quot;DejaVu Sans Mono&quot;, &quot;Liberation Mono&quot;, &quot;Roboto Mono&quot;, &quot;Noto Sans Mono&quot;, monospace; font-size: 16.0px;" text-anchor="middle" dominant-baseline="central">IIGC</text><polygon points="81.0,81.0 71.0,81.0 81.0,91.0" fill="#ffffff"/></g><g data-channel="cell" data-cell-index="3" data-cell-row="1" data-cell-col="1" data-cell-quartile="3"><rect x="93.0" y="81.0" width="48.0" height="20.0" fill="#5b2022"/><text x="117.0" y="91.0" fill="#ffffff" style="font-family: &quot;JetBrains Mono&quot;, &quot;Menlo&quot;, &quot;Consolas&quot;, &quot;DejaVu Sans Mono&quot;, &quot;Liberation Mono&quot;, &quot;Roboto Mono&quot;, &quot;Noto Sans Mono&quot;, monospace; font-size: 16.0px;" text-anchor="middle" dominant-baseline="central">8Y1R</text><polygon points="141.0,101.0 141.0,91.0 131.0,101.0" fill="#ffffff"/></g></g></g><g data-channel="color-bar"><g data-color-bar-rank="0" data-color-bar-band="G"><rect x="1" y="1" width="20.0" height="74.94848663891352" fill="#ffd966"/><text x="11.0" y="72.42848663891353" fill="#000000" style="font-family: &quot;JetBrains Mono&quot;, &quot;Menlo&quot;, &quot;Consolas&quot;, &quot;DejaVu Sans Mono&quot;, &quot;Liberation Mono&quot;, &quot;Roboto Mono&quot;, &quot;Noto Sans Mono&quot;, monospace; font-size: 16.0px;" text-anchor="middle" data-color-bar-letter="true">g</text></g><g data-color-bar-rank="1" data-color-bar-band="B"><rect x="1" y="75.94848663891352" width="20.0" height="22.172311255063278" fill="#2f3fbf"/><text x="11.0" y="94.6007978939768" fill="#ffffff" style="font-family: &quot;JetBrains Mono&quot;, &quot;Menlo&quot;, &quot;Consolas&quot;, &quot;DejaVu Sans Mono&quot;, &quot;Liberation Mono&quot;, &quot;Roboto Mono&quot;, &quot;Noto Sans Mono&quot;, monospace; font-size: 16.0px;" text-anchor="middle" data-color-bar-letter="true">b</text></g><g data-color-bar-rank="2" data-color-bar-band="K"><rect x="1" y="98.1207978939768" width="20.0" height="22.172311255063278" fill="#000000"/><text x="11.0" y="116.77310914904008" fill="#ffffff" style="font-family: &quot;JetBrains Mono&quot;, &quot;Menlo&quot;, &quot;Consolas&quot;, &quot;DejaVu Sans Mono&quot;, &quot;Liberation Mono&quot;, &quot;Roboto Mono&quot;, &quot;Noto Sans Mono&quot;, monospace; font-size: 16.0px;" text-anchor="middle" data-color-bar-letter="true">k</text></g><g data-color-bar-rank="3" data-color-bar-band="W"><rect x="1" y="120.29310914904008" width="20.0" height="20.706890850959923" fill="#ffffff"/><text x="11.0" y="137.48" fill="#000000" style="font-family: &quot;JetBrains Mono&quot;, &quot;Menlo&quot;, &quot;Consolas&quot;, &quot;DejaVu Sans Mono&quot;, &quot;Liberation Mono&quot;, &quot;Roboto Mono&quot;, &quot;Noto Sans Mono&quot;, monospace; font-size: 16.0px;" text-anchor="middle" data-color-bar-letter="true">w</text></g></g><g data-channel="label-top"><text x="27.0" y="16.0" fill="#666666" style="font-family: &quot;JetBrains Mono&quot;, &quot;Menlo&quot;, &quot;Consolas&quot;, &quot;DejaVu Sans Mono&quot;, &quot;Liberation Mono&quot;, &quot;Roboto Mono&quot;, &quot;Noto Sans Mono&quot;, monospace; font-size: 12.0px;" dominant-baseline="central">LEI: 549300...</text></g><g data-channel="label-bottom"><text x="147.0" y="126.0" fill="#666666" style="font-family: &quot;JetBrains Mono&quot;, &quot;Menlo&quot;, &quot;Consolas&quot;, &quot;DejaVu Sans Mono&quot;, &quot;Liberation Mono&quot;, &quot;Roboto Mono&quot;, &quot;Noto Sans Mono&quot;, monospace; font-size: 12.0px;" text-anchor="end" dominant-baseline="central">...12</text></g><line x1="0" y1="0.5" x2="153.0" y2="0.5" stroke="#808080" stroke-width="1" shape-rendering="crispEdges"/><line x1="152.5" y1="0" x2="152.5" y2="142.0" stroke="#808080" stroke-width="1" shape-rendering="crispEdges"/><line x1="0" y1="141.5" x2="153.0" y2="141.5" stroke="#808080" stroke-width="1" shape-rendering="crispEdges"/><line x1="0.5" y1="0" x2="0.5" y2="142.0" stroke="#808080" stroke-width="1" shape-rendering="crispEdges"/><line x1="21.5" y1="0" x2="21.5" y2="142.0" stroke="#808080" stroke-width="1" shape-rendering="crispEdges"/></svg>