<svg width="323.0" height="277.0" xmlns="http://www.w3.org/2000/svg"><defs><clipPath id="grid-clip-807e856a-5x6"><rect x="17.0" y="31.0" width="300.0" height="240.0"/></clipPath></defs><rect x="0" y="0" width="323.0" height="277.0" fill="#ffffff"/><rect x="17.0" y="31.0" width="300.0" height="240.0" fill="#ff3f2f"/><rect x="17.0" y="31.0" width="6.0" height="10.0" fill="#000000"/><rect x="29.0" y="31.0" width="6.0" height="10.0" fill="#000000"/><rect x="59.0" y="31.0" width="6.0" height="10.0" fill="#000000"/><rect x="71.0" y="31.0" width="6.0" height="10.0" fill="#000000"/><rect x="71.0" y="41.0" width="6.0" height="10.0" fill="#000000"/><rect x="71.0" y="51.0" width="6.0" height="10.0" fill="#000000"/><rect x="71.0" y="61.0" width="6.0" height="10.0" fill="#000000"/><rect x="65.0" y="61.0" width="6.0" height="10.0" fill="#000000"/><rect x="59.0" y="61.0" width="6.0" height="10.0" fill="#000000"/><rect x="17.0" y="41.0" width="6.0" height="10.0" fill="#000000"/><rect x="89.0" y="31.0" width="6.0" height="10.0" fill="#000000"/><rect x="95.0" y="31.0" width="6.0" height="10.0" fill="#000000"/><rect x="101.0" y="31.0" width="6.0" height="10.0" fill="#000000"/><rect x="113.0" y="31.0" width="6.0" height="10.0" fill="#000000"/><rect x="119.0" y="31.0" width="6.0" height="10.0" fill="#000000"/><rect x="131.0" y="41.0" width="6.0" height="10.0" fill="#000000"/><rect x="125.0" y="61.0" width="6.0" height="10.0" fill="#000000"/><rect x="101.0" y="61.0" width="6.0" height="10.0" fill="#000000"/><rect x="89.0" y="61.0" width="6.0" height="10.0" fill="#000000"/><rect x="77.0" y="61.0" width="6.0" height="10.0" fill="#000000"/><rect x="77.0" y="51.0" width="6.0" height="10.0" fill="#000000"/><rect x="143.0" y="31.0" width="6.0" height="10.0" fill="#000000"/><rect x="149.0" y="31.0" width="6.0" height="10.0" fill="#000000"/><rect x="167.0" y="31.0" width="6.0" height="10.0" fill="#000000"/><rect x="191.0" y="31.0" width="6.0" height="10.0" fill="#000000"/><rect x="191.0" y="41.0" width="6.0" height="10.0" fill="#000000"/><rect x="185.0" y="61.0" width="6.0" height="10.0" fill="#000000"/><rect x="179.0" y="61.0" width="6.0" height="10.0" fill="#000000"/><rect x="173.0" y="61.0" width="6.0" height="10.0" fill="#000000"/><rect x="167.0" y="61.0" width="6.0" height="10.0" fill="#000000"/><rect x="161.0" y="61.0" width="6.0" height="10.0" fill="#000000"/><rect x="143.0" y="61.0" width="6.0" height="10.0" fill="#000000"/><rect x="137.0" y="61.0" width="6.0" height="10.0" fill="#000000"/><rect x="203.0" y="31.0" width="6.0" height="10.0" fill="#2f3fbf"/><rect x="221.0" y="31.0" width="6.0" height="10.0" fill="#2f3fbf"/><rect x="251.0" y="61.0" width="6.0" height="10.0" fill="#2f3fbf"/><rect x="227.0" y="61.0" width="6.0" height="10.0" fill="#2f3fbf"/><rect x="215.0" y="61.0" width="6.0" height="10.0" fill="#2f3fbf"/><rect x="209.0" y="61.0" width="6.0" height="10.0" fill="#2f3fbf"/><rect x="203.0" y="61.0" width="6.0" height="10.0" fill="#2f3fbf"/><rect x="257.0" y="31.0" width="6.0" height="10.0" fill="#2f3fbf"/><rect x="281.0" y="31.0" width="6.0" height="10.0" fill="#2f3fbf"/><rect x="305.0" y="61.0" width="6.0" height="10.0" fill="#2f3fbf"/><rect x="293.0" y="61.0" width="6.0" height="10.0" fill="#2f3fbf"/><rect x="275.0" y="61.0" width="6.0" height="10.0" fill="#2f3fbf"/><rect x="269.0" y="61.0" width="6.0" height="10.0" fill="#2f3fbf"/><rect x="263.0" y="61.0" width="6.0" height="10.0" fill="#2f3fbf"/><rect x="257.0" y="61.0" width="6.0" height="10.0" fill="#2f3fbf"/><rect x="23.0" y="71.0" width="6.0" height="10.0" fill="#000000"/><rect x="29.0" y="71.0" width="6.0" height="10.0" fill="#000000"/><rect x="35.0" y="71.0" width="6.0" height="10.0" fill="#000000"/><rect x="47.0" y="71.0" width="6.0" height="10.0" fill="#000000"/><rect x="53.0" y="71.0" width="6.0" height="10.0" fill="#000000"/><rect x="65.0" y="71.0" width="6.0" height="10.0" fill="#000000"/><rect x="71.0" y="71.0" width="6.0" height="10.0" fill="#000000"/><rect x="71.0" y="81.0" width="6.0" height="10.0" fill="#000000"/><rect x="71.0" y="91.0" width="6.0" height="10.0" fill="#000000"/><rect x="65.0" y="101.0" width="6.0" height="10.0" fill="#000000"/><rect x="59.0" y="101.0" width="6.0" height="10.0" fill="#000000"/><rect x="53.0" y="101.0" width="6.0" height="10.0" fill="#000000"/><rect x="35.0" y="101.0" width="6.0" height="10.0" fill="#000000"/><rect x="29.0" y="101.0" width="6.0" height="10.0" fill="#000000"/><rect x="23.0" y="101.0" width="6.0" height="10.0" fill="#000000"/><rect x="17.0" y="91.0" width="6.0" height="10.0" fill="#000000"/><rect x="137.0" y="71.0" width="6.0" height="10.0" fill="#000000"/><rect x="143.0" y="71.0" width="6.0" height="10.0" fill="#000000"/><rect x="155.0" y="71.0" width="6.0" height="10.0" fill="#000000"/><rect x="161.0" y="71.0" width="6.0" height="10.0" fill="#000000"/><rect x="179.0" y="71.0" width="6.0" height="10.0" fill="#000000"/><rect x="179.0" y="101.0" width="6.0" height="10.0" fill="#000000"/><rect x="173.0" y="101.0" width="6.0" height="10.0" fill="#000000"/><rect x="161.0" y="101.0" width="6.0" height="10.0" fill="#000000"/><rect x="143.0" y="101.0" width="6.0" height="10.0" fill="#000000"/><rect x="137.0" y="101.0" width="6.0" height="10.0" fill="#000000"/><rect x="137.0" y="81.0" width="6.0" height="10.0" fill="#000000"/><rect x="203.0" y="71.0" width="6.0" height="10.0" fill="#000000"/><rect x="215.0" y="71.0" width="6.0" height="10.0" fill="#000000"/><rect x="227.0" y="71.0" width="6.0" height="10.0" fill="#000000"/><rect x="239.0" y="71.0" width="6.0" height="10.0" fill="#000000"/><rect x="251.0" y="71.0" width="6.0" height="10.0" fill="#000000"/><rect x="251.0" y="81.0" width="6.0" height="10.0" fill="#000000"/><rect x="239.0" y="101.0" width="6.0" height="10.0" fill="#000000"/><rect x="233.0" y="101.0" width="6.0" height="10.0" fill="#000000"/><rect x="227.0" y="101.0" width="6.0" height="10.0" fill="#000000"/><rect x="209.0" y="101.0" width="6.0" height="10.0" fill="#000000"/><rect x="197.0" y="101.0" width="6.0" height="10.0" fill="#000000"/><rect x="257.0" y="71.0" width="6.0" height="10.0" fill="#000000"/><rect x="269.0" y="71.0" width="6.0" height="10.0" fill="#000000"/><rect x="281.0" y="71.0" width="6.0" height="10.0" fill="#000000"/><rect x="287.0" y="71.0" width="6.0" height="10.0" fill="#000000"/><rect x="293.0" y="71.0" width="6.0" height="10.0" fill="#000000"/><rect x="299.0" y="71.0" width="6.0" height="10.0" fill="#000000"/><rect x="311.0" y="91.0" width="6.0" height="10.0" fill="#000000"/><rect x="311.0" y="101.0" width="6.0" height="10.0" fill="#000000"/><rect x="305.0" y="101.0" width="6.0" height="10.0" fill="#000000"/><rect x="299.0" y="101.0" width="6.0" height="10.0" fill="#000000"/><rect x="293.0" y="101.0" width="6.0" height="10.0" fill="#000000"/><rect x="287.0" y="101.0" width="6.0" height="10.0" fill="#000000"/><rect x="275.0" y="101.0" width="6.0" height="10.0" fill="#000000"/><rect x="269.0" y="101.0" width="6.0" height="10.0" fill="#000000"/><rect x="263.0" y="101.0" width="6.0" height="10.0" fill="#000000"/><rect x="257.0" y="81.0" width="6.0" height="10.0" fill="#000000"/><rect x="17.0" y="111.0" width="6.0" height="10.0" fill="#000000"/><rect x="23.0" y="111.0" width="6.0" height="10.0" fill="#000000"/><rect x="53.0" y="111.0" width="6.0" height="10.0" fill="#000000"/><rect x="59.0" y="111.0" width="6.0" height="10.0" fill="#000000"/><rect x="65.0" y="111.0" width="6.0" height="10.0" fill="#000000"/><rect x="65.0" y="141.0" width="6.0" height="10.0" fill="#000000"/><rect x="53.0" y="141.0" width="6.0" height="10.0" fill="#000000"/><rect x="47.0" y="141.0" width="6.0" height="10.0" fill="#000000"/><rect x="41.0" y="141.0" width="6.0" height="10.0" fill="#000000"/><rect x="35.0" y="141.0" width="6.0" height="10.0" fill="#000000"/><rect x="17.0" y="141.0" width="6.0" height="10.0" fill="#000000"/><rect x="17.0" y="121.0" width="6.0" height="10.0" fill="#000000"/><rect x="89.0" y="111.0" width="6.0" height="10.0" fill="#000000"/><rect x="101.0" y="111.0" width="6.0" height="10.0" fill="#000000"/><rect x="119.0" y="111.0" width="6.0" height="10.0" fill="#000000"/><rect x="131.0" y="111.0" width="6.0" height="10.0" fill="#000000"/><rect x="131.0" y="121.0" width="6.0" height="10.0" fill="#000000"/><rect x="131.0" y="141.0" width="6.0" height="10.0" fill="#000000"/><rect x="125.0" y="141.0" width="6.0" height="10.0" fill="#000000"/><rect x="107.0" y="141.0" width="6.0" height="10.0" fill="#000000"/><rect x="77.0" y="131.0" width="6.0" height="10.0" fill="#000000"/><rect x="203.0" y="111.0" width="6.0" height="10.0" fill="#ffd966"/><rect x="209.0" y="111.0" width="6.0" height="10.0" fill="#ffd966"/><rect x="215.0" y="111.0" width="6.0" height="10.0" fill="#ffd966"/><rect x="221.0" y="111.0" width="6.0" height="10.0" fill="#ffd966"/><rect x="245.0" y="111.0" width="6.0" height="10.0" fill="#ffd966"/><rect x="251.0" y="121.0" width="6.0" height="10.0" fill="#ffd966"/><rect x="245.0" y="141.0" width="6.0" height="10.0" fill="#ffd966"/><rect x="221.0" y="141.0" width="6.0" height="10.0" fill="#ffd966"/><rect x="215.0" y="141.0" width="6.0" height="10.0" fill="#ffd966"/><rect x="203.0" y="141.0" width="6.0" height="10.0" fill="#ffd966"/><rect x="197.0" y="141.0" width="6.0" height="10.0" fill="#ffd966"/><rect x="197.0" y="131.0" width="6.0" height="10.0" fill="#ffd966"/><rect x="23.0" y="151.0" width="6.0" height="10.0" fill="#2f3fbf"/><rect x="59.0" y="151.0" width="6.0" height="10.0" fill="#2f3fbf"/><rect x="71.0" y="151.0" width="6.0" height="10.0" fill="#2f3fbf"/><rect x="71.0" y="161.0" width="6.0" height="10.0" fill="#2f3fbf"/><rect x="71.0" y="171.0" width="6.0" height="10.0" fill="#2f3fbf"/><rect x="59.0" y="181.0" width="6.0" height="10.0" fill="#2f3fbf"/><rect x="47.0" y="181.0" width="6.0" height="10.0" fill="#2f3fbf"/><rect x="41.0" y="181.0" width="6.0" height="10.0" fill="#2f3fbf"/><rect x="17.0" y="181.0" width="6.0" height="10.0" fill="#2f3fbf"/><rect x="17.0" y="171.0" width="6.0" height="10.0" fill="#2f3fbf"/><rect x="83.0" y="151.0" width="6.0" height="10.0" fill="#2f3fbf"/><rect x="101.0" y="151.0" width="6.0" height="10.0" fill="#2f3fbf"/><rect x="131.0" y="161.0" width="6.0" height="10.0" fill="#2f3fbf"/><rect x="113.0" y="181.0" width="6.0" height="10.0" fill="#2f3fbf"/><rect x="107.0" y="181.0" width="6.0" height="10.0" fill="#2f3fbf"/><rect x="101.0" y="181.0" width="6.0" height="10.0" fill="#2f3fbf"/><rect x="95.0" y="181.0" width="6.0" height="10.0" fill="#2f3fbf"/><rect x="89.0" y="181.0" width="6.0" height="10.0" fill="#2f3fbf"/><rect x="83.0" y="181.0" width="6.0" height="10.0" fill="#2f3fbf"/><rect x="77.0" y="161.0" width="6.0" height="10.0" fill="#2f3fbf"/><rect x="137.0" y="151.0" width="6.0" height="10.0" fill="#2f3fbf"/><rect x="143.0" y="151.0" width="6.0" height="10.0" fill="#2f3fbf"/><rect x="179.0" y="151.0" width="6.0" height="10.0" fill="#2f3fbf"/><rect x="191.0" y="151.0" width="6.0" height="10.0" fill="#2f3fbf"/><rect x="191.0" y="161.0" width="6.0" height="10.0" fill="#2f3fbf"/><rect x="191.0" y="171.0" width="6.0" height="10.0" fill="#2f3fbf"/><rect x="191.0" y="181.0" width="6.0" height="10.0" fill="#2f3fbf"/><rect x="179.0" y="181.0" width="6.0" height="10.0" fill="#2f3fbf"/><rect x="173.0" y="181.0" width="6.0" height="10.0" fill="#2f3fbf"/><rect x="167.0" y="181.0" width="6.0" height="10.0" fill="#2f3fbf"/><rect x="161.0" y="181.0" width="6.0" height="10.0" fill="#2f3fbf"/><rect x="155.0" y="181.0" width="6.0" height="10.0" fill="#2f3fbf"/><rect x="143.0" y="181.0" width="6.0" height="10.0" fill="#2f3fbf"/><rect x="137.0" y="171.0" width="6.0" height="10.0" fill="#2f3fbf"/><rect x="197.0" y="151.0" width="6.0" height="10.0" fill="#2f3fbf"/><rect x="215.0" y="151.0" width="6.0" height="10.0" fill="#2f3fbf"/><rect x="233.0" y="151.0" width="6.0" height="10.0" fill="#2f3fbf"/><rect x="245.0" y="151.0" width="6.0" height="10.0" fill="#2f3fbf"/><rect x="251.0" y="151.0" width="6.0" height="10.0" fill="#2f3fbf"/><rect x="251.0" y="161.0" width="6.0" height="10.0" fill="#2f3fbf"/><rect x="233.0" y="181.0" width="6.0" height="10.0" fill="#2f3fbf"/><rect x="227.0" y="181.0" width="6.0" height="10.0" fill="#2f3fbf"/><rect x="215.0" y="181.0" width="6.0" height="10.0" fill="#2f3fbf"/><rect x="209.0" y="181.0" width="6.0" height="10.0" fill="#2f3fbf"/><rect x="203.0" y="181.0" width="6.0" height="10.0" fill="#2f3fbf"/><rect x="197.0" y="181.0" width="6.0" height="10.0" fill="#2f3fbf"/><rect x="197.0" y="171.0" width="6.0" height="10.0" fill="#2f3fbf"/><rect x="197.0" y="161.0" width="6.0" height="10.0" fill="#2f3fbf"/><rect x="269.0" y="151.0" width="6.0" height="10.0" fill="#2f3fbf"/><rect x="275.0" y="151.0" width="6.0" height="10.0" fill="#2f3fbf"/><rect x="287.0" y="151.0" width="6.0" height="10.0" fill="#2f3fbf"/><rect x="299.0" y="151.0" width="6.0" height="10.0" fill="#2f3fbf"/><rect x="305.0" y="151.0" width="6.0" height="10.0" fill="#2f3fbf"/><rect x="311.0" y="151.0" width="6.0" height="10.0" fill="#2f3fbf"/><rect x="311.0" y="161.0" width="6.0" height="10.0" fill="#2f3fbf"/><rect x="311.0" y="171.0" width="6.0" height="10.0" fill="#2f3fbf"/><rect x="311.0" y="181.0" width="6.0" height="10.0" fill="#2f3fbf"/><rect x="305.0" y="181.0" width="6.0" height="10.0" fill="#2f3fbf"/><rect x="299.0" y="181.0" width="6.0" height="10.0" fill="#2f3fbf"/><rect x="257.0" y="171.0" width="6.0" height="10.0" fill="#2f3fbf"/><rect x="83.0" y="191.0" width="6.0" height="10.0" fill="#ffd966"/><rect x="89.0" y="191.0" width="6.0" height="10.0" fill="#ffd966"/><rect x="107.0" y="191.0" width="6.0" height="10.0" fill="#ffd966"/><rect x="113.0" y="191.0" width="6.0" height="10.0" fill="#ffd966"/><rect x="119.0" y="191.0" width="6.0" height="10.0" fill="#ffd966"/><rect x="125.0" y="191.0" width="6.0" height="10.0" fill="#ffd966"/><rect x="131.0" y="191.0" width="6.0" height="10.0" fill="#ffd966"/><rect x="107.0" y="221.0" width="6.0" height="10.0" fill="#ffd966"/><rect x="101.0" y="221.0" width="6.0" height="10.0" fill="#ffd966"/><rect x="89.0" y="221.0" width="6.0" height="10.0" fill="#ffd966"/><rect x="173.0" y="191.0" width="6.0" height="10.0" fill="#ffd966"/><rect x="179.0" y="191.0" width="6.0" height="10.0" fill="#ffd966"/><rect x="185.0" y="191.0" width="6.0" height="10.0" fill="#ffd966"/><rect x="191.0" y="191.0" width="6.0" height="10.0" fill="#ffd966"/><rect x="191.0" y="211.0" width="6.0" height="10.0" fill="#ffd966"/><rect x="155.0" y="221.0" width="6.0" height="10.0" fill="#ffd966"/><rect x="149.0" y="221.0" width="6.0" height="10.0" fill="#ffd966"/><rect x="143.0" y="221.0" width="6.0" height="10.0" fill="#ffd966"/><rect x="137.0" y="201.0" width="6.0" height="10.0" fill="#ffd966"/><rect x="203.0" y="191.0" width="6.0" height="10.0" fill="#2f3fbf"/><rect x="209.0" y="191.0" width="6.0" height="10.0" fill="#2f3fbf"/><rect x="215.0" y="191.0" width="6.0" height="10.0" fill="#2f3fbf"/><rect x="221.0" y="191.0" width="6.0" height="10.0" fill="#2f3fbf"/><rect x="239.0" y="191.0" width="6.0" height="10.0" fill="#2f3fbf"/><rect x="251.0" y="191.0" width="6.0" height="10.0" fill="#2f3fbf"/><rect x="251.0" y="201.0" width="6.0" height="10.0" fill="#2f3fbf"/><rect x="239.0" y="221.0" width="6.0" height="10.0" fill="#2f3fbf"/><rect x="233.0" y="221.0" width="6.0" height="10.0" fill="#2f3fbf"/><rect x="221.0" y="221.0" width="6.0" height="10.0" fill="#2f3fbf"/><rect x="215.0" y="221.0" width="6.0" height="10.0" fill="#2f3fbf"/><rect x="197.0" y="221.0" width="6.0" height="10.0" fill="#2f3fbf"/><rect x="197.0" y="211.0" width="6.0" height="10.0" fill="#2f3fbf"/><rect x="269.0" y="191.0" width="6.0" height="10.0" fill="#2f3fbf"/><rect x="275.0" y="191.0" width="6.0" height="10.0" fill="#2f3fbf"/><rect x="281.0" y="191.0" width="6.0" height="10.0" fill="#2f3fbf"/><rect x="287.0" y="191.0" width="6.0" height="10.0" fill="#2f3fbf"/><rect x="299.0" y="191.0" width="6.0" height="10.0" fill="#2f3fbf"/><rect x="305.0" y="191.0" width="6.0" height="10.0" fill="#2f3fbf"/><rect x="311.0" y="191.0" width="6.0" height="10.0" fill="#2f3fbf"/><rect x="311.0" y="201.0" width="6.0" height="10.0" fill="#2f3fbf"/><rect x="311.0" y="211.0" width="6.0" height="10.0" fill="#2f3fbf"/><rect x="311.0" y="221.0" width="6.0" height="10.0" fill="#2f3fbf"/><rect x="305.0" y="221.0" width="6.0" height="10.0" fill="#2f3fbf"/><rect x="299.0" y="221.0" width="6.0" height="10.0" fill="#2f3fbf"/><rect x="293.0" y="221.0" width="6.0" height="10.0" fill="#2f3fbf"/><rect x="281.0" y="221.0" width="6.0" height="10.0" fill="#2f3fbf"/><rect x="263.0" y="221.0" width="6.0" height="10.0" fill="#2f3fbf"/><rect x="257.0" y="221.0" width="6.0" height="10.0" fill="#2f3fbf"/><rect x="47.0" y="231.0" width="6.0" height="10.0" fill="#ffffff"/><rect x="53.0" y="231.0" width="6.0" height="10.0" fill="#ffffff"/><rect x="59.0" y="231.0" width="6.0" height="10.0" fill="#ffffff"/><rect x="71.0" y="251.0" width="6.0" height="10.0" fill="#ffffff"/><rect x="41.0" y="261.0" width="6.0" height="10.0" fill="#ffffff"/><rect x="35.0" y="261.0" width="6.0" height="10.0" fill="#ffffff"/><rect x="29.0" y="261.0" width="6.0" height="10.0" fill="#ffffff"/><rect x="17.0" y="241.0" width="6.0" height="10.0" fill="#ffffff"/><g clip-path="url(#grid-clip-807e856a-5x6)"><ellipse cx="197.0" cy="151.0" rx="156.33307652783935" ry="133.06646122227147" transform="rotate(168.0 197.0 151.0)" fill="#000000" fill-opacity="0.4"/></g><rect x="23.0" y="41.0" width="48.0" height="20.0" fill="#018230"/><text x="47.0" y="51.0" fill="#ffffff" style="font-family: monospace; font-size: 16.0px;" text-anchor="middle" dominant-baseline="central">MIIB</text><rect x="83.0" y="41.0" width="48.0" height="20.0" fill="#0d3022"/><text x="107.0" y="51.0" fill="#ffffff" style="font-family: monospace; font-size: 16.0px;" text-anchor="middle" dominant-baseline="central">IjAN</text><rect x="143.0" y="41.0" width="48.0" height="20.0" fill="#2a0906"/><text x="167.0" y="51.0" fill="#ffffff" style="font-family: monospace; font-size: 16.0px;" text-anchor="middle" dominant-baseline="central">Bgkq</text><rect x="203.0" y="41.0" width="48.0" height="20.0" fill="#864886"/><text x="227.0" y="51.0" fill="#ffffff" style="font-family: monospace; font-size: 16.0px;" text-anchor="middle" dominant-baseline="central">hkiG</text><rect x="263.0" y="41.0" width="48.0" height="20.0" fill="#010df7"/><text x="287.0" y="51.0" fill="#ffffff" style="font-family: monospace; font-size: 16.0px;" text-anchor="middle" dominant-baseline="central">9w0B</text><rect x="23.0" y="81.0" width="48.0" height="20.0" fill="#050101"/><text x="47.0" y="91.0" fill="#ffffff" style="font-family: monospace; font-size: 16.0px;" text-anchor="middle" dominant-baseline="central">AQEF</text><rect x="143.0" y="81.0" width="48.0" height="20.0" fill="#820300"/><text x="167.0" y="91.0" fill="#ffffff" style="font-family: monospace; font-size: 16.0px;" text-anchor="middle" dominant-baseline="central">AAOC</text><rect x="203.0" y="81.0" width="48.0" height="20.0" fill="#000f01"/><text x="227.0" y="91.0" fill="#ffffff" style="font-family: monospace; font-size: 16.0px;" text-anchor="middle" dominant-baseline="central">AQ8A</text><rect x="263.0" y="81.0" width="48.0" height="20.0" fill="#018230"/><text x="287.0" y="91.0" fill="#ffffff" style="font-family: monospace; font-size: 16.0px;" text-anchor="middle" dominant-baseline="central">MIIB</text><rect x="23.0" y="121.0" width="48.0" height="20.0" fill="#82020a"/><text x="47.0" y="131.0" fill="#ffffff" style="font-family: monospace; font-size: 16.0px;" text-anchor="middle" dominant-baseline="central">CgKC</text><rect x="83.0" y="121.0" width="48.0" height="20.0" fill="#040101"/><text x="107.0" y="131.0" fill="#ffffff" style="font-family: monospace; font-size: 16.0px;" text-anchor="middle" dominant-baseline="central">AQE</text><rect x="203.0" y="121.0" width="48.0" height="20.0" fill="#849812"/><text x="227.0" y="131.0" fill="#000000" style="font-family: monospace; font-size: 16.0px;" text-anchor="middle" dominant-baseline="central">EpiE</text><rect x="23.0" y="161.0" width="48.0" height="20.0" fill="#426cf1"/><text x="47.0" y="171.0" fill="#ffffff" style="font-family: monospace; font-size: 16.0px;" text-anchor="middle" dominant-baseline="central">8WxC</text><rect x="83.0" y="161.0" width="48.0" height="20.0" fill="#cb64f2"/><text x="107.0" y="171.0" fill="#000000" style="font-family: monospace; font-size: 16.0px;" text-anchor="middle" dominant-baseline="central">8mTL</text><rect x="143.0" y="161.0" width="48.0" height="20.0" fill="#8d7683"/><text x="167.0" y="171.0" fill="#ffffff" style="font-family: monospace; font-size: 16.0px;" text-anchor="middle" dominant-baseline="central">g3aN</text><rect x="203.0" y="161.0" width="48.0" height="20.0" fill="#8a0af2"/><text x="227.0" y="171.0" fill="#ffffff" style="font-family: monospace; font-size: 16.0px;" text-anchor="middle" dominant-baseline="central">8gqK</text><rect x="263.0" y="161.0" width="48.0" height="20.0" fill="#732ddb"/><text x="287.0" y="171.0" fill="#ffffff" style="font-family: monospace; font-size: 16.0px;" text-anchor="middle" dominant-baseline="central">2y1z</text><rect x="83.0" y="201.0" width="48.0" height="20.0" fill="#9bf219"/><text x="107.0" y="211.0" fill="#000000" style="font-family: monospace; font-size: 16.0px;" text-anchor="middle" dominant-baseline="central">GfKb</text><rect x="143.0" y="201.0" width="48.0" height="20.0" fill="#69cf5d"/><text x="167.0" y="211.0" fill="#000000" style="font-family: monospace; font-size: 16.0px;" text-anchor="middle" dominant-baseline="central">Xc9p</text><rect x="203.0" y="201.0" width="48.0" height="20.0" fill="#4d8bd9"/><text x="227.0" y="211.0" fill="#000000" style="font-family: monospace; font-size: 16.0px;" text-anchor="middle" dominant-baseline="central">2YtN</text><rect x="263.0" y="201.0" width="48.0" height="20.0" fill="#619ebc"/><text x="287.0" y="211.0" fill="#000000" style="font-family: monospace; font-size: 16.0px;" text-anchor="middle" dominant-baseline="central">vJ5h</text><rect x="23.0" y="241.0" width="48.0" height="20.0" fill="#d7c5d2"/><text x="47.0" y="251.0" fill="#000000" style="font-family: monospace; font-size: 16.0px;" text-anchor="middle" dominant-baseline="central">0sX</text><circle cx="107.0" cy="91.0" r="17.0" fill="#ffffff" stroke="#000000" stroke-width="1"/><line x1="107.0" y1="91.0" x2="121.97690529808119" y2="100.98460353205412" stroke="#ffffff" style="mix-blend-mode: difference" stroke-width="1"/><line x1="107.0" y1="91.0" x2="107.0" y2="99.5" stroke="#000000" stroke-width="1"/><circle cx="107.0" cy="99.5" r="1.5" fill="#ffffff" stroke="#000000" stroke-width="1"/><circle cx="167.0" cy="131.0" r="17.0" fill="#ffffff" stroke="#000000" stroke-width="1"/><line x1="167.0" y1="131.0" x2="181.9769052980812" y2="140.9846035320541" stroke="#ffffff" style="mix-blend-mode: difference" stroke-width="1"/><line x1="167.0" y1="131.0" x2="161.9" y2="137.8" stroke="#000000" stroke-width="1"/><circle cx="161.9" cy="137.8" r="1.5" fill="#ffffff" stroke="#000000" stroke-width="1"/><circle cx="287.0" cy="131.0" r="17.0" fill="#ffffff" stroke="#000000" stroke-width="1"/><line x1="287.0" y1="131.0" x2="272.0230947019188" y2="140.98460353205414" stroke="#ffffff" style="mix-blend-mode: difference" stroke-width="1"/><line x1="287.0" y1="131.0" x2="279.23260183672784" y2="134.4521769614543" stroke="#000000" stroke-width="1"/><circle cx="279.23260183672784" cy="134.4521769614543" r="1.5" fill="#ffffff" stroke="#000000" stroke-width="1"/><circle cx="47.0" cy="211.0" r="17.0" fill="#ffffff" stroke="#000000" stroke-width="1"/><line x1="47.0" y1="211.0" x2="64.57136708331115" y2="207.0952517592642" stroke="#ffffff" style="mix-blend-mode: difference" stroke-width="1"/><line x1="47.0" y1="211.0" x2="55.5" y2="211.0" stroke="#000000" stroke-width="1"/><circle cx="55.5" cy="211.0" r="1.5" fill="#ffffff" stroke="#000000" stroke-width="1"/><circle cx="107.0" cy="251.0" r="17.0" fill="#ffffff" stroke="#000000" stroke-width="1"/><line x1="107.0" y1="251.0" x2="121.97690529808119" y2="241.0153964679459" stroke="#ffffff" style="mix-blend-mode: difference" stroke-width="1"/><line x1="107.0" y1="251.0" x2="107.0" y2="242.5" stroke="#000000" stroke-width="1"/><circle cx="107.0" cy="242.5" r="1.5" fill="#ffffff" stroke="#000000" stroke-width="1"/><polygon points="263.0,81.0 273.0,81.0 263.0,91.0" fill="#ffffff"/><polygon points="71.0,41.0 61.0,41.0 71.0,51.0" fill="#ffffff"/><polygon points="191.0,101.0 191.0,91.0 181.0,101.0" fill="#ffffff"/><polygon points="143.0,61.0 143.0,51.0 153.0,61.0" fill="#ffffff"/><rect x="1" y="1" width="10.0" height="100.23432540116825" fill="#ffffff"/><rect x="1" y="101.23432540116825" width="10.0" height="74.84431520391199" fill="#2f3fbf"/><rect x="1" y="176.07864060508024" width="10.0" height="58.28406514551307" fill="#000000"/><rect x="1" y="234.3627057505933" width="10.0" height="41.63729424940669" fill="#ffd966"/><text x="17.0" y="16.0" fill="#666666" style="font-family: monospace; font-size: 12.0px;" dominant-baseline="central">^…$ b64(119):</text><line x1="0" y1="0.5" x2="323.0" y2="0.5" stroke="#808080" stroke-width="1" shape-rendering="crispEdges"/><line x1="322.5" y1="0" x2="322.5" y2="277.0" stroke="#808080" stroke-width="1" shape-rendering="crispEdges"/><line x1="0" y1="276.5" x2="323.0" y2="276.5" stroke="#808080" stroke-width="1" shape-rendering="crispEdges"/><line x1="0.5" y1="0" x2="0.5" y2="277.0" stroke="#808080" stroke-width="1" shape-rendering="crispEdges"/><line x1="11.5" y1="0" x2="11.5" y2="277.0" stroke="#808080" stroke-width="1" shape-rendering="crispEdges"/></svg>