<svg width="213.0" height="152.0" viewBox="0 0 213.0 152.0" xmlns="http://www.w3.org/2000/svg" data-entviz-version="v7" data-entviz-lib="0.7.0" data-input-bytes="50" data-cols="3" data-rows="3"><defs><clipPath id="grid-clip-0f0858a203721468-3x3"><rect x="27.0" y="26.0" width="180.0" height="120.0"/></clipPath></defs><rect x="0" y="0" width="213.0" height="152.0" fill="#ffffff"/><g data-channel="grid"><rect x="27.0" y="26.0" width="180.0" height="120.0" fill="#ffffff"/><g><rect x="105.0" y="26.0" width="6.0" height="10.0" fill="#e7be00"/><rect x="111.0" y="26.0" width="6.0" height="10.0" fill="#e7be00"/><rect x="123.0" y="26.0" width="6.0" height="10.0" fill="#e7be00"/><rect x="141.0" y="46.0" width="6.0" height="10.0" fill="#e7be00"/><rect x="117.0" y="56.0" width="6.0" height="10.0" fill="#e7be00"/><rect x="111.0" y="56.0" width="6.0" height="10.0" fill="#e7be00"/><rect x="105.0" y="56.0" width="6.0" height="10.0" fill="#e7be00"/><rect x="99.0" y="56.0" width="6.0" height="10.0" fill="#e7be00"/><rect x="153.0" y="26.0" width="6.0" height="10.0" fill="#ff3f2f"/><rect x="171.0" y="26.0" width="6.0" height="10.0" fill="#ff3f2f"/><rect x="177.0" y="26.0" width="6.0" height="10.0" fill="#ff3f2f"/><rect x="183.0" y="26.0" width="6.0" height="10.0" fill="#ff3f2f"/><rect x="195.0" y="26.0" width="6.0" height="10.0" fill="#ff3f2f"/><rect x="201.0" y="26.0" width="6.0" height="10.0" fill="#ff3f2f"/><rect x="171.0" y="56.0" width="6.0" height="10.0" fill="#ff3f2f"/><rect x="147.0" y="56.0" width="6.0" height="10.0" fill="#ff3f2f"/><rect x="147.0" y="36.0" width="6.0" height="10.0" fill="#ff3f2f"/><rect x="33.0" y="66.0" width="6.0" height="10.0" fill="#2f3fbf"/><rect x="39.0" y="66.0" width="6.0" height="10.0" fill="#2f3fbf"/><rect x="51.0" y="66.0" width="6.0" height="10.0" fill="#2f3fbf"/><rect x="57.0" y="66.0" width="6.0" height="10.0" fill="#2f3fbf"/><rect x="69.0" y="66.0" width="6.0" height="10.0" fill="#2f3fbf"/><rect x="81.0" y="86.0" width="6.0" height="10.0" fill="#2f3fbf"/><rect x="75.0" y="96.0" width="6.0" height="10.0" fill="#2f3fbf"/><rect x="69.0" y="96.0" width="6.0" height="10.0" fill="#2f3fbf"/><rect x="45.0" y="96.0" width="6.0" height="10.0" fill="#2f3fbf"/><rect x="33.0" y="96.0" width="6.0" height="10.0" fill="#2f3fbf"/><rect x="87.0" y="66.0" width="6.0" height="10.0" fill="#e7be00"/><rect x="93.0" y="66.0" width="6.0" height="10.0" fill="#e7be00"/><rect x="99.0" y="66.0" width="6.0" height="10.0" fill="#e7be00"/><rect x="111.0" y="66.0" width="6.0" height="10.0" fill="#e7be00"/><rect x="135.0" y="96.0" width="6.0" height="10.0" fill="#e7be00"/><rect x="123.0" y="96.0" width="6.0" height="10.0" fill="#e7be00"/><rect x="117.0" y="96.0" width="6.0" height="10.0" fill="#e7be00"/><rect x="99.0" y="96.0" width="6.0" height="10.0" fill="#e7be00"/><rect x="93.0" y="96.0" width="6.0" height="10.0" fill="#e7be00"/><rect x="87.0" y="86.0" width="6.0" height="10.0" fill="#e7be00"/><rect x="87.0" y="76.0" width="6.0" height="10.0" fill="#e7be00"/><rect x="147.0" y="66.0" width="6.0" height="10.0" fill="#e7be00"/><rect x="183.0" y="66.0" width="6.0" height="10.0" fill="#e7be00"/><rect x="201.0" y="66.0" width="6.0" height="10.0" fill="#e7be00"/><rect x="201.0" y="76.0" width="6.0" height="10.0" fill="#e7be00"/><rect x="201.0" y="86.0" width="6.0" height="10.0" fill="#e7be00"/><rect x="201.0" y="96.0" width="6.0" height="10.0" fill="#e7be00"/><rect x="189.0" y="96.0" width="6.0" height="10.0" fill="#e7be00"/><rect x="171.0" y="96.0" width="6.0" height="10.0" fill="#e7be00"/><rect x="159.0" y="96.0" width="6.0" height="10.0" fill="#e7be00"/><rect x="45.0" y="106.0" width="6.0" height="10.0" fill="#ff3f2f"/><rect x="69.0" y="106.0" width="6.0" height="10.0" fill="#ff3f2f"/><rect x="81.0" y="116.0" width="6.0" height="10.0" fill="#ff3f2f"/><rect x="81.0" y="126.0" width="6.0" height="10.0" fill="#ff3f2f"/><rect x="81.0" y="136.0" width="6.0" height="10.0" fill="#ff3f2f"/><rect x="69.0" y="136.0" width="6.0" height="10.0" fill="#ff3f2f"/><rect x="45.0" y="136.0" width="6.0" height="10.0" fill="#ff3f2f"/><rect x="147.0" y="106.0" width="6.0" height="10.0" fill="#e7be00"/><rect x="153.0" y="106.0" width="6.0" height="10.0" fill="#e7be00"/><rect x="159.0" y="106.0" width="6.0" height="10.0" fill="#e7be00"/><rect x="165.0" y="106.0" width="6.0" height="10.0" fill="#e7be00"/><rect x="189.0" y="106.0" width="6.0" height="10.0" fill="#e7be00"/><rect x="201.0" y="126.0" width="6.0" height="10.0" fill="#e7be00"/><rect x="201.0" y="136.0" width="6.0" height="10.0" fill="#e7be00"/><rect x="147.0" y="126.0" width="6.0" height="10.0" fill="#e7be00"/><rect x="147.0" y="116.0" width="6.0" height="10.0" fill="#e7be00"/></g><g clip-path="url(#grid-clip-0f0858a203721468-3x3)" data-channel="ellipse" data-ellipse-anchor-x="27.0" data-ellipse-anchor-y="66.0" data-ellipse-rx="81.1545882867999" data-ellipse-ry="104.79184701111055" data-ellipse-rotation-deg="0.0"><ellipse cx="27.0" cy="66.0" rx="81.1545882867999" ry="104.79184701111055" transform="rotate(0.0 27.0 66.0)" fill="#000000" stroke="#000000" fill-opacity="0.2" stroke-opacity="0.3" stroke-width="2.0"/></g><g><g data-channel="cell" data-cell-index="0" data-cell-row="0" data-cell-col="0" data-cell-blank="true" data-cell-blank-map="true"><rect x="33.0" y="36.0" width="48.0" height="20.0" rx="10.0" ry="10.0" fill="#e7be00" stroke="#000000" stroke-width="1"/><circle cx="57.0" cy="46.0" r="3.5" fill="#d62828" data-blank-map-max="true"/><circle cx="41.0" cy="52.66666666666667" r="3.5" fill="#1d4ed8" data-blank-map-min="true"/></g><g data-channel="cell" data-cell-index="1" data-cell-row="0" data-cell-col="1"><rect x="93.0" y="36.0" width="48.0" height="20.0" fill="#f29c30"/><text x="117.0" y="46.0" fill="#000000" style="font-family: &quot;JetBrains Mono&quot;, &quot;Menlo&quot;, &quot;Consolas&quot;, &quot;DejaVu Sans Mono&quot;, &quot;Liberation Mono&quot;, &quot;Roboto Mono&quot;, &quot;Noto Sans Mono&quot;, monospace; font-size: 12.0px;" text-anchor="middle" dominant-baseline="central">309cf2</text></g><g data-channel="cell" data-cell-index="2" data-cell-row="0" data-cell-col="2" data-cell-quartile="4"><rect x="153.0" y="36.0" width="48.0" height="20.0" fill="#e74e67"/><text x="177.0" y="46.0" fill="#000000" style="font-family: &quot;JetBrains Mono&quot;, &quot;Menlo&quot;, &quot;Consolas&quot;, &quot;DejaVu Sans Mono&quot;, &quot;Liberation Mono&quot;, &quot;Roboto Mono&quot;, &quot;Noto Sans Mono&quot;, monospace; font-size: 12.0px;" text-anchor="middle" dominant-baseline="central">674ee7</text><polygon points="153.0,56.0 153.0,46.0 163.0,56.0" fill="#000000"/></g><g data-channel="cell" data-cell-index="3" data-cell-row="1" data-cell-col="0" data-cell-quartile="1"><rect x="33.0" y="76.0" width="48.0" height="20.0" fill="#9974a0"/><text x="57.0" y="86.0" fill="#000000" style="font-family: &quot;JetBrains Mono&quot;, &quot;Menlo&quot;, &quot;Consolas&quot;, &quot;DejaVu Sans Mono&quot;, &quot;Liberation Mono&quot;, &quot;Roboto Mono&quot;, &quot;Noto Sans Mono&quot;, monospace; font-size: 12.0px;" text-anchor="middle" dominant-baseline="central">a07499</text><polygon points="33.0,76.0 43.0,76.0 33.0,86.0" fill="#000000"/></g><g data-channel="cell" data-cell-index="4" data-cell-row="1" data-cell-col="1" data-cell-quartile="3"><rect x="93.0" y="76.0" width="48.0" height="20.0" fill="#82cf78"/><text x="117.0" y="86.0" fill="#000000" style="font-family: &quot;JetBrains Mono&quot;, &quot;Menlo&quot;, &quot;Consolas&quot;, &quot;DejaVu Sans Mono&quot;, &quot;Liberation Mono&quot;, &quot;Roboto Mono&quot;, &quot;Noto Sans Mono&quot;, monospace; font-size: 12.0px;" text-anchor="middle" dominant-baseline="central">78cf82</text><polygon points="141.0,96.0 141.0,86.0 131.0,96.0" fill="#000000"/></g><g data-channel="cell" data-cell-index="5" data-cell-row="1" data-cell-col="2"><rect x="153.0" y="76.0" width="48.0" height="20.0" fill="#91ab65"/><text x="177.0" y="86.0" fill="#000000" style="font-family: &quot;JetBrains Mono&quot;, &quot;Menlo&quot;, &quot;Consolas&quot;, &quot;DejaVu Sans Mono&quot;, &quot;Liberation Mono&quot;, &quot;Roboto Mono&quot;, &quot;Noto Sans Mono&quot;, monospace; font-size: 12.0px;" text-anchor="middle" dominant-baseline="central">65ab91</text></g><g data-channel="cell" data-cell-index="6" data-cell-row="2" data-cell-col="0" data-cell-quartile="2"><rect x="33.0" y="116.0" width="48.0" height="20.0" fill="#ea0aa6"/><text x="57.0" y="126.0" fill="#000000" style="font-family: &quot;JetBrains Mono&quot;, &quot;Menlo&quot;, &quot;Consolas&quot;, &quot;DejaVu Sans Mono&quot;, &quot;Liberation Mono&quot;, &quot;Roboto Mono&quot;, &quot;Noto Sans Mono&quot;, monospace; font-size: 12.0px;" text-anchor="middle" dominant-baseline="central">a60aea</text><polygon points="81.0,116.0 71.0,116.0 81.0,126.0" fill="#000000"/></g><g data-channel="cell" data-cell-index="7" data-cell-row="2" data-cell-col="1" data-cell-blank="true"><rect x="93.0" y="116.0" width="48.0" height="20.0" rx="10.0" ry="10.0" fill="none" stroke="#000000" stroke-width="1"/></g><g data-channel="cell" data-cell-index="8" data-cell-row="2" data-cell-col="2"><rect x="153.0" y="116.0" width="48.0" height="20.0" fill="#7d7d0f"/><text x="177.0" y="126.0" fill="#ffffff" style="font-family: &quot;JetBrains Mono&quot;, &quot;Menlo&quot;, &quot;Consolas&quot;, &quot;DejaVu Sans Mono&quot;, &quot;Liberation Mono&quot;, &quot;Roboto Mono&quot;, &quot;Noto Sans Mono&quot;, monospace; font-size: 12.0px;" text-anchor="middle" dominant-baseline="central">0f7d</text></g></g></g><g data-channel="color-bar"><g data-color-bar-rank="0" data-color-bar-band="G"><rect x="1" y="1" width="20.0" height="65.31352414427636" fill="#e7be00"/><text x="11.0" y="63.67352414427636" fill="#000000" style="font-family: &quot;JetBrains Mono&quot;, &quot;Menlo&quot;, &quot;Consolas&quot;, &quot;DejaVu Sans Mono&quot;, &quot;Liberation Mono&quot;, &quot;Roboto Mono&quot;, &quot;Noto Sans Mono&quot;, monospace; font-size: 12.0px;" text-anchor="middle" data-color-bar-letter="true">g</text></g><g data-color-bar-rank="1" data-color-bar-band="B"><rect x="1" y="66.31352414427636" width="20.0" height="37.14706372471837" fill="#2f3fbf"/><text x="11.0" y="100.82058786899474" fill="#ffffff" style="font-family: &quot;JetBrains Mono&quot;, &quot;Menlo&quot;, &quot;Consolas&quot;, &quot;DejaVu Sans Mono&quot;, &quot;Liberation Mono&quot;, &quot;Roboto Mono&quot;, &quot;Noto Sans Mono&quot;, monospace; font-size: 12.0px;" text-anchor="middle" data-color-bar-letter="true">b</text></g><g data-color-bar-rank="2" data-color-bar-band="K"><rect x="1" y="103.46058786899474" width="20.0" height="37.14706372471837" fill="#000000"/><text x="11.0" y="137.96765159371313" fill="#ffffff" style="font-family: &quot;JetBrains Mono&quot;, &quot;Menlo&quot;, &quot;Consolas&quot;, &quot;DejaVu Sans Mono&quot;, &quot;Liberation Mono&quot;, &quot;Roboto Mono&quot;, &quot;Noto Sans Mono&quot;, monospace; font-size: 12.0px;" text-anchor="middle" data-color-bar-letter="true">k</text></g><g data-color-bar-rank="3" data-color-bar-band="R"><rect x="1" y="140.60765159371311" width="20.0" height="10.392348406286885" fill="#ff3f2f"/><text x="11.0" y="148.36" fill="#000000" style="font-family: &quot;JetBrains Mono&quot;, &quot;Menlo&quot;, &quot;Consolas&quot;, &quot;DejaVu Sans Mono&quot;, &quot;Liberation Mono&quot;, &quot;Roboto Mono&quot;, &quot;Noto Sans Mono&quot;, monospace; font-size: 12.0px;" text-anchor="middle" data-color-bar-letter="true">r</text></g></g><g data-channel="label-top"><text x="27.0" y="16.0" fill="#666666" style="font-family: &quot;JetBrains Mono&quot;, &quot;Menlo&quot;, &quot;Consolas&quot;, &quot;DejaVu Sans Mono&quot;, &quot;Liberation Mono&quot;, &quot;Roboto Mono&quot;, &quot;Noto Sans Mono&quot;, monospace; font-size: 12.0px;" dominant-baseline="central">swh:1:rev:...</text></g><line x1="0" y1="0.5" x2="213.0" y2="0.5" stroke="#808080" stroke-width="1" shape-rendering="crispEdges"/><line x1="212.5" y1="0" x2="212.5" y2="152.0" stroke="#808080" stroke-width="1" shape-rendering="crispEdges"/><line x1="0" y1="151.5" x2="213.0" y2="151.5" stroke="#808080" stroke-width="1" shape-rendering="crispEdges"/><line x1="0.5" y1="0" x2="0.5" y2="152.0" stroke="#808080" stroke-width="1" shape-rendering="crispEdges"/><line x1="21.5" y1="0" x2="21.5" y2="152.0" stroke="#808080" stroke-width="1" shape-rendering="crispEdges"/></svg>