<svg width="323.0" height="277.0" xmlns="http://www.w3.org/2000/svg"><defs><clipPath id="grid-clip-c479c387-5x6"><rect x="17.0" y="31.0" width="300.0" height="240.0"/></clipPath></defs><rect x="0" y="0" width="323.0" height="277.0" fill="#ffffff"/><rect x="17.0" y="31.0" width="300.0" height="240.0" fill="#ff3f2f"/><rect x="17.0" y="31.0" width="6.0" height="10.0" fill="#000000"/><rect x="23.0" y="31.0" width="6.0" height="10.0" fill="#000000"/><rect x="53.0" y="31.0" width="6.0" height="10.0" fill="#000000"/><rect x="59.0" y="31.0" width="6.0" height="10.0" fill="#000000"/><rect x="65.0" y="31.0" width="6.0" height="10.0" fill="#000000"/><rect x="71.0" y="51.0" width="6.0" height="10.0" fill="#000000"/><rect x="71.0" y="61.0" width="6.0" height="10.0" fill="#000000"/><rect x="65.0" y="61.0" width="6.0" height="10.0" fill="#000000"/><rect x="59.0" y="61.0" width="6.0" height="10.0" fill="#000000"/><rect x="35.0" y="61.0" width="6.0" height="10.0" fill="#000000"/><rect x="17.0" y="51.0" width="6.0" height="10.0" fill="#000000"/><rect x="17.0" y="41.0" width="6.0" height="10.0" fill="#000000"/><rect x="77.0" y="31.0" width="6.0" height="10.0" fill="#ffd966"/><rect x="89.0" y="31.0" width="6.0" height="10.0" fill="#ffd966"/><rect x="113.0" y="31.0" width="6.0" height="10.0" fill="#ffd966"/><rect x="119.0" y="31.0" width="6.0" height="10.0" fill="#ffd966"/><rect x="131.0" y="41.0" width="6.0" height="10.0" fill="#ffd966"/><rect x="131.0" y="51.0" width="6.0" height="10.0" fill="#ffd966"/><rect x="131.0" y="61.0" width="6.0" height="10.0" fill="#ffd966"/><rect x="125.0" y="61.0" width="6.0" height="10.0" fill="#ffd966"/><rect x="107.0" y="61.0" width="6.0" height="10.0" fill="#ffd966"/><rect x="101.0" y="61.0" width="6.0" height="10.0" fill="#ffd966"/><rect x="95.0" y="61.0" width="6.0" height="10.0" fill="#ffd966"/><rect x="77.0" y="41.0" width="6.0" height="10.0" fill="#ffd966"/><rect x="137.0" y="31.0" width="6.0" height="10.0" fill="#2f3fbf"/><rect x="143.0" y="31.0" width="6.0" height="10.0" fill="#2f3fbf"/><rect x="185.0" y="31.0" width="6.0" height="10.0" fill="#2f3fbf"/><rect x="185.0" y="61.0" width="6.0" height="10.0" fill="#2f3fbf"/><rect x="161.0" y="61.0" width="6.0" height="10.0" fill="#2f3fbf"/><rect x="155.0" y="61.0" width="6.0" height="10.0" fill="#2f3fbf"/><rect x="137.0" y="61.0" width="6.0" height="10.0" fill="#2f3fbf"/><rect x="137.0" y="51.0" width="6.0" height="10.0" fill="#2f3fbf"/><rect x="197.0" y="31.0" width="6.0" height="10.0" fill="#000000"/><rect x="203.0" y="31.0" width="6.0" height="10.0" fill="#000000"/><rect x="209.0" y="31.0" width="6.0" height="10.0" fill="#000000"/><rect x="215.0" y="31.0" width="6.0" height="10.0" fill="#000000"/><rect x="221.0" y="31.0" width="6.0" height="10.0" fill="#000000"/><rect x="227.0" y="31.0" width="6.0" height="10.0" fill="#000000"/><rect x="233.0" y="31.0" width="6.0" height="10.0" fill="#000000"/><rect x="245.0" y="31.0" width="6.0" height="10.0" fill="#000000"/><rect x="251.0" y="41.0" width="6.0" height="10.0" fill="#000000"/><rect x="251.0" y="61.0" width="6.0" height="10.0" fill="#000000"/><rect x="245.0" y="61.0" width="6.0" height="10.0" fill="#000000"/><rect x="233.0" y="61.0" width="6.0" height="10.0" fill="#000000"/><rect x="227.0" y="61.0" width="6.0" height="10.0" fill="#000000"/><rect x="197.0" y="61.0" width="6.0" height="10.0" fill="#000000"/><rect x="197.0" y="51.0" width="6.0" height="10.0" fill="#000000"/><rect x="263.0" y="31.0" width="6.0" height="10.0" fill="#ffd966"/><rect x="269.0" y="31.0" width="6.0" height="10.0" fill="#ffd966"/><rect x="281.0" y="31.0" width="6.0" height="10.0" fill="#ffd966"/><rect x="293.0" y="31.0" width="6.0" height="10.0" fill="#ffd966"/><rect x="305.0" y="31.0" width="6.0" height="10.0" fill="#ffd966"/><rect x="311.0" y="31.0" width="6.0" height="10.0" fill="#ffd966"/><rect x="311.0" y="41.0" width="6.0" height="10.0" fill="#ffd966"/><rect x="305.0" y="61.0" width="6.0" height="10.0" fill="#ffd966"/><rect x="275.0" y="61.0" width="6.0" height="10.0" fill="#ffd966"/><rect x="263.0" y="61.0" width="6.0" height="10.0" fill="#ffd966"/><rect x="257.0" y="51.0" width="6.0" height="10.0" fill="#ffd966"/><rect x="17.0" y="71.0" width="6.0" height="10.0" fill="#2f3fbf"/><rect x="35.0" y="71.0" width="6.0" height="10.0" fill="#2f3fbf"/><rect x="41.0" y="71.0" width="6.0" height="10.0" fill="#2f3fbf"/><rect x="71.0" y="91.0" width="6.0" height="10.0" fill="#2f3fbf"/><rect x="65.0" y="101.0" width="6.0" height="10.0" fill="#2f3fbf"/><rect x="59.0" y="101.0" width="6.0" height="10.0" fill="#2f3fbf"/><rect x="41.0" y="101.0" width="6.0" height="10.0" fill="#2f3fbf"/><rect x="35.0" y="101.0" width="6.0" height="10.0" fill="#2f3fbf"/><rect x="23.0" y="101.0" width="6.0" height="10.0" fill="#2f3fbf"/><rect x="77.0" y="71.0" width="6.0" height="10.0" fill="#2f3fbf"/><rect x="101.0" y="71.0" width="6.0" height="10.0" fill="#2f3fbf"/><rect x="107.0" y="71.0" width="6.0" height="10.0" fill="#2f3fbf"/><rect x="113.0" y="71.0" width="6.0" height="10.0" fill="#2f3fbf"/><rect x="125.0" y="71.0" width="6.0" height="10.0" fill="#2f3fbf"/><rect x="131.0" y="71.0" width="6.0" height="10.0" fill="#2f3fbf"/><rect x="131.0" y="81.0" width="6.0" height="10.0" fill="#2f3fbf"/><rect x="125.0" y="101.0" width="6.0" height="10.0" fill="#2f3fbf"/><rect x="119.0" y="101.0" width="6.0" height="10.0" fill="#2f3fbf"/><rect x="113.0" y="101.0" width="6.0" height="10.0" fill="#2f3fbf"/><rect x="89.0" y="101.0" width="6.0" height="10.0" fill="#2f3fbf"/><rect x="83.0" y="101.0" width="6.0" height="10.0" fill="#2f3fbf"/><rect x="77.0" y="101.0" width="6.0" height="10.0" fill="#2f3fbf"/><rect x="149.0" y="71.0" width="6.0" height="10.0" fill="#ffd966"/><rect x="167.0" y="71.0" width="6.0" height="10.0" fill="#ffd966"/><rect x="173.0" y="71.0" width="6.0" height="10.0" fill="#ffd966"/><rect x="179.0" y="71.0" width="6.0" height="10.0" fill="#ffd966"/><rect x="191.0" y="71.0" width="6.0" height="10.0" fill="#ffd966"/><rect x="191.0" y="81.0" width="6.0" height="10.0" fill="#ffd966"/><rect x="191.0" y="91.0" width="6.0" height="10.0" fill="#ffd966"/><rect x="191.0" y="101.0" width="6.0" height="10.0" fill="#ffd966"/><rect x="185.0" y="101.0" width="6.0" height="10.0" fill="#ffd966"/><rect x="167.0" y="101.0" width="6.0" height="10.0" fill="#ffd966"/><rect x="161.0" y="101.0" width="6.0" height="10.0" fill="#ffd966"/><rect x="155.0" y="101.0" width="6.0" height="10.0" fill="#ffd966"/><rect x="143.0" y="101.0" width="6.0" height="10.0" fill="#ffd966"/><rect x="137.0" y="91.0" width="6.0" height="10.0" fill="#ffd966"/><rect x="209.0" y="71.0" width="6.0" height="10.0" fill="#000000"/><rect x="221.0" y="71.0" width="6.0" height="10.0" fill="#000000"/><rect x="227.0" y="71.0" width="6.0" height="10.0" fill="#000000"/><rect x="233.0" y="71.0" width="6.0" height="10.0" fill="#000000"/><rect x="245.0" y="71.0" width="6.0" height="10.0" fill="#000000"/><rect x="251.0" y="81.0" width="6.0" height="10.0" fill="#000000"/><rect x="251.0" y="91.0" width="6.0" height="10.0" fill="#000000"/><rect x="251.0" y="101.0" width="6.0" height="10.0" fill="#000000"/><rect x="227.0" y="101.0" width="6.0" height="10.0" fill="#000000"/><rect x="221.0" y="101.0" width="6.0" height="10.0" fill="#000000"/><rect x="215.0" y="101.0" width="6.0" height="10.0" fill="#000000"/><rect x="203.0" y="101.0" width="6.0" height="10.0" fill="#000000"/><rect x="197.0" y="101.0" width="6.0" height="10.0" fill="#000000"/><rect x="197.0" y="81.0" width="6.0" height="10.0" fill="#000000"/><rect x="23.0" y="111.0" width="6.0" height="10.0" fill="#ffd966"/><rect x="47.0" y="111.0" width="6.0" height="10.0" fill="#ffd966"/><rect x="59.0" y="111.0" width="6.0" height="10.0" fill="#ffd966"/><rect x="65.0" y="111.0" width="6.0" height="10.0" fill="#ffd966"/><rect x="71.0" y="111.0" width="6.0" height="10.0" fill="#ffd966"/><rect x="71.0" y="121.0" width="6.0" height="10.0" fill="#ffd966"/><rect x="71.0" y="131.0" width="6.0" height="10.0" fill="#ffd966"/><rect x="71.0" y="141.0" width="6.0" height="10.0" fill="#ffd966"/><rect x="53.0" y="141.0" width="6.0" height="10.0" fill="#ffd966"/><rect x="29.0" y="141.0" width="6.0" height="10.0" fill="#ffd966"/><rect x="23.0" y="141.0" width="6.0" height="10.0" fill="#ffd966"/><rect x="17.0" y="131.0" width="6.0" height="10.0" fill="#ffd966"/><rect x="137.0" y="111.0" width="6.0" height="10.0" fill="#ffffff"/><rect x="179.0" y="111.0" width="6.0" height="10.0" fill="#ffffff"/><rect x="185.0" y="111.0" width="6.0" height="10.0" fill="#ffffff"/><rect x="191.0" y="111.0" width="6.0" height="10.0" fill="#ffffff"/><rect x="191.0" y="141.0" width="6.0" height="10.0" fill="#ffffff"/><rect x="185.0" y="141.0" width="6.0" height="10.0" fill="#ffffff"/><rect x="179.0" y="141.0" width="6.0" height="10.0" fill="#ffffff"/><rect x="161.0" y="141.0" width="6.0" height="10.0" fill="#ffffff"/><rect x="143.0" y="141.0" width="6.0" height="10.0" fill="#ffffff"/><rect x="137.0" y="131.0" width="6.0" height="10.0" fill="#ffffff"/><rect x="137.0" y="121.0" width="6.0" height="10.0" fill="#ffffff"/><rect x="257.0" y="111.0" width="6.0" height="10.0" fill="#000000"/><rect x="281.0" y="111.0" width="6.0" height="10.0" fill="#000000"/><rect x="287.0" y="111.0" width="6.0" height="10.0" fill="#000000"/><rect x="305.0" y="111.0" width="6.0" height="10.0" fill="#000000"/><rect x="311.0" y="121.0" width="6.0" height="10.0" fill="#000000"/><rect x="311.0" y="131.0" width="6.0" height="10.0" fill="#000000"/><rect x="311.0" y="141.0" width="6.0" height="10.0" fill="#000000"/><rect x="299.0" y="141.0" width="6.0" height="10.0" fill="#000000"/><rect x="293.0" y="141.0" width="6.0" height="10.0" fill="#000000"/><rect x="287.0" y="141.0" width="6.0" height="10.0" fill="#000000"/><rect x="275.0" y="141.0" width="6.0" height="10.0" fill="#000000"/><rect x="269.0" y="141.0" width="6.0" height="10.0" fill="#000000"/><rect x="257.0" y="141.0" width="6.0" height="10.0" fill="#000000"/><rect x="257.0" y="121.0" width="6.0" height="10.0" fill="#000000"/><rect x="65.0" y="151.0" width="6.0" height="10.0" fill="#ffd966"/><rect x="71.0" y="161.0" width="6.0" height="10.0" fill="#ffd966"/><rect x="71.0" y="181.0" width="6.0" height="10.0" fill="#ffd966"/><rect x="59.0" y="181.0" width="6.0" height="10.0" fill="#ffd966"/><rect x="47.0" y="181.0" width="6.0" height="10.0" fill="#ffd966"/><rect x="35.0" y="181.0" width="6.0" height="10.0" fill="#ffd966"/><rect x="23.0" y="181.0" width="6.0" height="10.0" fill="#ffd966"/><rect x="17.0" y="181.0" width="6.0" height="10.0" fill="#ffd966"/><rect x="17.0" y="171.0" width="6.0" height="10.0" fill="#ffd966"/><rect x="77.0" y="151.0" width="6.0" height="10.0" fill="#2f3fbf"/><rect x="83.0" y="151.0" width="6.0" height="10.0" fill="#2f3fbf"/><rect x="89.0" y="151.0" width="6.0" height="10.0" fill="#2f3fbf"/><rect x="131.0" y="161.0" width="6.0" height="10.0" fill="#2f3fbf"/><rect x="131.0" y="171.0" width="6.0" height="10.0" fill="#2f3fbf"/><rect x="131.0" y="181.0" width="6.0" height="10.0" fill="#2f3fbf"/><rect x="125.0" y="181.0" width="6.0" height="10.0" fill="#2f3fbf"/><rect x="119.0" y="181.0" width="6.0" height="10.0" fill="#2f3fbf"/><rect x="113.0" y="181.0" width="6.0" height="10.0" fill="#2f3fbf"/><rect x="89.0" y="181.0" width="6.0" height="10.0" fill="#2f3fbf"/><rect x="83.0" y="181.0" width="6.0" height="10.0" fill="#2f3fbf"/><rect x="77.0" y="171.0" width="6.0" height="10.0" fill="#2f3fbf"/><rect x="173.0" y="151.0" width="6.0" height="10.0" fill="#000000"/><rect x="179.0" y="151.0" width="6.0" height="10.0" fill="#000000"/><rect x="191.0" y="181.0" width="6.0" height="10.0" fill="#000000"/><rect x="185.0" y="181.0" width="6.0" height="10.0" fill="#000000"/><rect x="155.0" y="181.0" width="6.0" height="10.0" fill="#000000"/><rect x="137.0" y="171.0" width="6.0" height="10.0" fill="#000000"/><rect x="197.0" y="151.0" width="6.0" height="10.0" fill="#ffd966"/><rect x="203.0" y="151.0" width="6.0" height="10.0" fill="#ffd966"/><rect x="209.0" y="151.0" width="6.0" height="10.0" fill="#ffd966"/><rect x="215.0" y="151.0" width="6.0" height="10.0" fill="#ffd966"/><rect x="221.0" y="151.0" width="6.0" height="10.0" fill="#ffd966"/><rect x="239.0" y="151.0" width="6.0" height="10.0" fill="#ffd966"/><rect x="251.0" y="181.0" width="6.0" height="10.0" fill="#ffd966"/><rect x="245.0" y="181.0" width="6.0" height="10.0" fill="#ffd966"/><rect x="227.0" y="181.0" width="6.0" height="10.0" fill="#ffd966"/><rect x="221.0" y="181.0" width="6.0" height="10.0" fill="#ffd966"/><rect x="209.0" y="181.0" width="6.0" height="10.0" fill="#ffd966"/><rect x="197.0" y="181.0" width="6.0" height="10.0" fill="#ffd966"/><rect x="263.0" y="151.0" width="6.0" height="10.0" fill="#2f3fbf"/><rect x="281.0" y="151.0" width="6.0" height="10.0" fill="#2f3fbf"/><rect x="287.0" y="151.0" width="6.0" height="10.0" fill="#2f3fbf"/><rect x="293.0" y="151.0" width="6.0" height="10.0" fill="#2f3fbf"/><rect x="305.0" y="151.0" width="6.0" height="10.0" fill="#2f3fbf"/><rect x="311.0" y="151.0" width="6.0" height="10.0" fill="#2f3fbf"/><rect x="311.0" y="161.0" width="6.0" height="10.0" fill="#2f3fbf"/><rect x="311.0" y="171.0" width="6.0" height="10.0" fill="#2f3fbf"/><rect x="305.0" y="181.0" width="6.0" height="10.0" fill="#2f3fbf"/><rect x="299.0" y="181.0" width="6.0" height="10.0" fill="#2f3fbf"/><rect x="293.0" y="181.0" width="6.0" height="10.0" fill="#2f3fbf"/><rect x="287.0" y="181.0" width="6.0" height="10.0" fill="#2f3fbf"/><rect x="269.0" y="181.0" width="6.0" height="10.0" fill="#2f3fbf"/><rect x="257.0" y="181.0" width="6.0" height="10.0" fill="#2f3fbf"/><rect x="257.0" y="161.0" width="6.0" height="10.0" fill="#2f3fbf"/><rect x="23.0" y="191.0" width="6.0" height="10.0" fill="#2f3fbf"/><rect x="41.0" y="191.0" width="6.0" height="10.0" fill="#2f3fbf"/><rect x="53.0" y="191.0" width="6.0" height="10.0" fill="#2f3fbf"/><rect x="71.0" y="211.0" width="6.0" height="10.0" fill="#2f3fbf"/><rect x="65.0" y="221.0" width="6.0" height="10.0" fill="#2f3fbf"/><rect x="59.0" y="221.0" width="6.0" height="10.0" fill="#2f3fbf"/><rect x="53.0" y="221.0" width="6.0" height="10.0" fill="#2f3fbf"/><rect x="41.0" y="221.0" width="6.0" height="10.0" fill="#2f3fbf"/><rect x="23.0" y="221.0" width="6.0" height="10.0" fill="#2f3fbf"/><rect x="17.0" y="211.0" width="6.0" height="10.0" fill="#2f3fbf"/><rect x="89.0" y="191.0" width="6.0" height="10.0" fill="#ffd966"/><rect x="95.0" y="191.0" width="6.0" height="10.0" fill="#ffd966"/><rect x="101.0" y="191.0" width="6.0" height="10.0" fill="#ffd966"/><rect x="131.0" y="191.0" width="6.0" height="10.0" fill="#ffd966"/><rect x="131.0" y="201.0" width="6.0" height="10.0" fill="#ffd966"/><rect x="131.0" y="211.0" width="6.0" height="10.0" fill="#ffd966"/><rect x="131.0" y="221.0" width="6.0" height="10.0" fill="#ffd966"/><rect x="125.0" y="221.0" width="6.0" height="10.0" fill="#ffd966"/><rect x="119.0" y="221.0" width="6.0" height="10.0" fill="#ffd966"/><rect x="107.0" y="221.0" width="6.0" height="10.0" fill="#ffd966"/><rect x="95.0" y="221.0" width="6.0" height="10.0" fill="#ffd966"/><rect x="83.0" y="221.0" width="6.0" height="10.0" fill="#ffd966"/><rect x="77.0" y="221.0" width="6.0" height="10.0" fill="#ffd966"/><rect x="77.0" y="211.0" width="6.0" height="10.0" fill="#ffd966"/><rect x="77.0" y="201.0" width="6.0" height="10.0" fill="#ffd966"/><rect x="137.0" y="191.0" width="6.0" height="10.0" fill="#000000"/><rect x="143.0" y="191.0" width="6.0" height="10.0" fill="#000000"/><rect x="149.0" y="191.0" width="6.0" height="10.0" fill="#000000"/><rect x="155.0" y="191.0" width="6.0" height="10.0" fill="#000000"/><rect x="161.0" y="191.0" width="6.0" height="10.0" fill="#000000"/><rect x="185.0" y="191.0" width="6.0" height="10.0" fill="#000000"/><rect x="191.0" y="191.0" width="6.0" height="10.0" fill="#000000"/><rect x="191.0" y="211.0" width="6.0" height="10.0" fill="#000000"/><rect x="185.0" y="221.0" width="6.0" height="10.0" fill="#000000"/><rect x="167.0" y="221.0" width="6.0" height="10.0" fill="#000000"/><rect x="161.0" y="221.0" width="6.0" height="10.0" fill="#000000"/><rect x="143.0" y="221.0" width="6.0" height="10.0" fill="#000000"/><rect x="287.0" y="191.0" width="6.0" height="10.0" fill="#ffd966"/><rect x="293.0" y="191.0" width="6.0" height="10.0" fill="#ffd966"/><rect x="299.0" y="191.0" width="6.0" height="10.0" fill="#ffd966"/><rect x="311.0" y="201.0" width="6.0" height="10.0" fill="#ffd966"/><rect x="305.0" y="221.0" width="6.0" height="10.0" fill="#ffd966"/><rect x="287.0" y="221.0" width="6.0" height="10.0" fill="#ffd966"/><rect x="275.0" y="221.0" width="6.0" height="10.0" fill="#ffd966"/><rect x="269.0" y="221.0" width="6.0" height="10.0" fill="#ffd966"/><rect x="257.0" y="211.0" width="6.0" height="10.0" fill="#ffd966"/><rect x="257.0" y="201.0" width="6.0" height="10.0" fill="#ffd966"/><rect x="53.0" y="231.0" width="6.0" height="10.0" fill="#ffffff"/><rect x="71.0" y="251.0" width="6.0" height="10.0" fill="#ffffff"/><rect x="35.0" y="261.0" width="6.0" height="10.0" fill="#ffffff"/><rect x="17.0" y="241.0" width="6.0" height="10.0" fill="#ffffff"/><g clip-path="url(#grid-clip-c479c387-5x6)"><ellipse cx="137.0" cy="111.0" rx="77.55517108689224" ry="40.0" transform="rotate(48.0 137.0 111.0)" fill="#000000" fill-opacity="0.4"/></g><rect x="23.0" y="41.0" width="48.0" height="20.0" fill="#452301"/><text x="47.0" y="51.0" fill="#ffffff" style="font-family: monospace; font-size: 12.0px;" text-anchor="middle" dominant-baseline="central">012345</text><rect x="83.0" y="41.0" width="48.0" height="20.0" fill="#ab8967"/><text x="107.0" y="51.0" fill="#000000" style="font-family: monospace; font-size: 12.0px;" text-anchor="middle" dominant-baseline="central">6789ab</text><rect x="143.0" y="41.0" width="48.0" height="20.0" fill="#01efcd"/><text x="167.0" y="51.0" fill="#000000" style="font-family: monospace; font-size: 12.0px;" text-anchor="middle" dominant-baseline="central">cdef01</text><rect x="203.0" y="41.0" width="48.0" height="20.0" fill="#674523"/><text x="227.0" y="51.0" fill="#ffffff" style="font-family: monospace; font-size: 12.0px;" text-anchor="middle" dominant-baseline="central">234567</text><rect x="263.0" y="41.0" width="48.0" height="20.0" fill="#cdab89"/><text x="287.0" y="51.0" fill="#000000" style="font-family: monospace; font-size: 12.0px;" text-anchor="middle" dominant-baseline="central">89abcd</text><rect x="23.0" y="81.0" width="48.0" height="20.0" fill="#2301ef"/><text x="47.0" y="91.0" fill="#ffffff" style="font-family: monospace; font-size: 12.0px;" text-anchor="middle" dominant-baseline="central">ef0123</text><rect x="83.0" y="81.0" width="48.0" height="20.0" fill="#896745"/><text x="107.0" y="91.0" fill="#ffffff" style="font-family: monospace; font-size: 12.0px;" text-anchor="middle" dominant-baseline="central">456789</text><rect x="143.0" y="81.0" width="48.0" height="20.0" fill="#efcdab"/><text x="167.0" y="91.0" fill="#000000" style="font-family: monospace; font-size: 12.0px;" text-anchor="middle" dominant-baseline="central">abcdef</text><rect x="203.0" y="81.0" width="48.0" height="20.0" fill="#452301"/><text x="227.0" y="91.0" fill="#ffffff" style="font-family: monospace; font-size: 12.0px;" text-anchor="middle" dominant-baseline="central">012345</text><rect x="23.0" y="121.0" width="48.0" height="20.0" fill="#ab8967"/><text x="47.0" y="131.0" fill="#000000" style="font-family: monospace; font-size: 12.0px;" text-anchor="middle" dominant-baseline="central">6789ab</text><rect x="143.0" y="121.0" width="48.0" height="20.0" fill="#efefcd"/><text x="167.0" y="131.0" fill="#000000" style="font-family: monospace; font-size: 12.0px;" text-anchor="middle" dominant-baseline="central">cdef</text><rect x="263.0" y="121.0" width="48.0" height="20.0" fill="#452301"/><text x="287.0" y="131.0" fill="#ffffff" style="font-family: monospace; font-size: 12.0px;" text-anchor="middle" dominant-baseline="central">012345</text><rect x="23.0" y="161.0" width="48.0" height="20.0" fill="#ab8967"/><text x="47.0" y="171.0" fill="#000000" style="font-family: monospace; font-size: 12.0px;" text-anchor="middle" dominant-baseline="central">6789ab</text><rect x="83.0" y="161.0" width="48.0" height="20.0" fill="#01efcd"/><text x="107.0" y="171.0" fill="#000000" style="font-family: monospace; font-size: 12.0px;" text-anchor="middle" dominant-baseline="central">cdef01</text><rect x="143.0" y="161.0" width="48.0" height="20.0" fill="#674523"/><text x="167.0" y="171.0" fill="#ffffff" style="font-family: monospace; font-size: 12.0px;" text-anchor="middle" dominant-baseline="central">234567</text><rect x="203.0" y="161.0" width="48.0" height="20.0" fill="#cdab89"/><text x="227.0" y="171.0" fill="#000000" style="font-family: monospace; font-size: 12.0px;" text-anchor="middle" dominant-baseline="central">89abcd</text><rect x="263.0" y="161.0" width="48.0" height="20.0" fill="#2301ef"/><text x="287.0" y="171.0" fill="#ffffff" style="font-family: monospace; font-size: 12.0px;" text-anchor="middle" dominant-baseline="central">ef0123</text><rect x="23.0" y="201.0" width="48.0" height="20.0" fill="#896745"/><text x="47.0" y="211.0" fill="#ffffff" style="font-family: monospace; font-size: 12.0px;" text-anchor="middle" dominant-baseline="central">456789</text><rect x="83.0" y="201.0" width="48.0" height="20.0" fill="#efcdab"/><text x="107.0" y="211.0" fill="#000000" style="font-family: monospace; font-size: 12.0px;" text-anchor="middle" dominant-baseline="central">abcdef</text><rect x="143.0" y="201.0" width="48.0" height="20.0" fill="#452301"/><text x="167.0" y="211.0" fill="#ffffff" style="font-family: monospace; font-size: 12.0px;" text-anchor="middle" dominant-baseline="central">012345</text><rect x="263.0" y="201.0" width="48.0" height="20.0" fill="#ab8967"/><text x="287.0" y="211.0" fill="#000000" style="font-family: monospace; font-size: 12.0px;" text-anchor="middle" dominant-baseline="central">6789ab</text><rect x="23.0" y="241.0" width="48.0" height="20.0" fill="#efefcd"/><text x="47.0" y="251.0" fill="#000000" style="font-family: monospace; font-size: 12.0px;" text-anchor="middle" dominant-baseline="central">cdef</text><circle cx="287.0" cy="91.0" r="17.0" fill="#ffffff" stroke="#000000" stroke-width="1"/><line x1="287.0" y1="91.0" x2="272.0230947019188" y2="100.98460353205412" stroke="#ffffff" style="mix-blend-mode: difference" stroke-width="1"/><line x1="287.0" y1="91.0" x2="280.98959235991435" y2="97.01040764008566" stroke="#000000" stroke-width="1"/><circle cx="280.98959235991435" cy="97.01040764008566" r="1.5" fill="#ffffff" stroke="#000000" stroke-width="1"/><circle cx="107.0" cy="131.0" r="17.0" fill="#ffffff" stroke="#000000" stroke-width="1"/><line x1="107.0" y1="131.0" x2="107.0" y2="149.0" stroke="#ffffff" style="mix-blend-mode: difference" stroke-width="1"/><line x1="107.0" y1="131.0" x2="112.1" y2="137.8" stroke="#000000" stroke-width="1"/><circle cx="112.1" cy="137.8" r="1.5" fill="#ffffff" stroke="#000000" stroke-width="1"/><circle cx="227.0" cy="131.0" r="17.0" fill="#ffffff" stroke="#000000" stroke-width="1"/><line x1="227.0" y1="131.0" x2="212.0230947019188" y2="140.98460353205414" stroke="#ffffff" style="mix-blend-mode: difference" stroke-width="1"/><line x1="227.0" y1="131.0" x2="221.9" y2="137.8" stroke="#000000" stroke-width="1"/><circle cx="221.9" cy="137.8" r="1.5" fill="#ffffff" stroke="#000000" stroke-width="1"/><circle cx="227.0" cy="211.0" r="17.0" fill="#ffffff" stroke="#000000" stroke-width="1"/><line x1="227.0" y1="211.0" x2="209.0" y2="211.0" stroke="#ffffff" style="mix-blend-mode: difference" stroke-width="1"/><line x1="227.0" y1="211.0" x2="218.5" y2="211.0" stroke="#000000" stroke-width="1"/><circle cx="218.5" cy="211.0" r="1.5" fill="#ffffff" stroke="#000000" stroke-width="1"/><circle cx="107.0" cy="251.0" r="17.0" fill="#ffffff" stroke="#000000" stroke-width="1"/><line x1="107.0" y1="251.0" x2="107.0" y2="233.0" stroke="#ffffff" style="mix-blend-mode: difference" stroke-width="1"/><line x1="107.0" y1="251.0" x2="114.07242750187167" y2="246.28504833208555" stroke="#000000" stroke-width="1"/><circle cx="114.07242750187167" cy="246.28504833208555" r="1.5" fill="#ffffff" stroke="#000000" stroke-width="1"/><polygon points="203.0,81.0 213.0,81.0 203.0,91.0" fill="#ffffff"/><polygon points="71.0,41.0 61.0,41.0 71.0,51.0" fill="#ffffff"/><polygon points="251.0,61.0 251.0,51.0 241.0,61.0" fill="#ffffff"/><polygon points="143.0,101.0 143.0,91.0 153.0,101.0" fill="#000000"/><rect x="1" y="1" width="10.0" height="116.12787429702854" fill="#ffd966"/><rect x="1" y="117.12787429702854" width="10.0" height="88.45359777624182" fill="#ffffff"/><rect x="1" y="205.58147207327036" width="10.0" height="54.83329009516624" fill="#000000"/><rect x="1" y="260.4147621684366" width="10.0" height="15.585237831563404" fill="#2f3fbf"/><text x="17.0" y="16.0" fill="#666666" style="font-family: monospace; font-size: 12.0px;" dominant-baseline="central">^…$ hex(256):</text><line x1="0" y1="0.5" x2="323.0" y2="0.5" stroke="#808080" stroke-width="1" shape-rendering="crispEdges"/><line x1="322.5" y1="0" x2="322.5" y2="277.0" stroke="#808080" stroke-width="1" shape-rendering="crispEdges"/><line x1="0" y1="276.5" x2="323.0" y2="276.5" stroke="#808080" stroke-width="1" shape-rendering="crispEdges"/><line x1="0.5" y1="0" x2="0.5" y2="277.0" stroke="#808080" stroke-width="1" shape-rendering="crispEdges"/><line x1="11.5" y1="0" x2="11.5" y2="277.0" stroke="#808080" stroke-width="1" shape-rendering="crispEdges"/></svg>