<svg width="263.0" height="237.0" viewBox="0 0 263.0 237.0" xmlns="http://www.w3.org/2000/svg" data-entviz-version="v5" data-input-bytes="56" data-cols="4" data-rows="5"><defs><clipPath id="grid-clip-985bef79a49adefd-4x5"><rect x="17.0" y="31.0" width="240.0" height="200.0"/></clipPath></defs><rect x="0" y="0" width="263.0" height="237.0" fill="#ffffff"/><g data-channel="grid"><rect x="17.0" y="31.0" width="240.0" height="200.0" fill="#ffffff"/><g><rect x="17.0" y="31.0" width="6.0" height="10.0" fill="#ff3f2f"/><rect x="23.0" y="31.0" width="6.0" height="10.0" fill="#ff3f2f"/><rect x="29.0" y="31.0" width="6.0" height="10.0" fill="#ff3f2f"/><rect x="35.0" y="31.0" width="6.0" height="10.0" fill="#ff3f2f"/><rect x="47.0" y="31.0" width="6.0" height="10.0" fill="#ff3f2f"/><rect x="53.0" y="31.0" width="6.0" height="10.0" fill="#ff3f2f"/><rect x="59.0" y="31.0" width="6.0" height="10.0" fill="#ff3f2f"/><rect x="65.0" y="31.0" width="6.0" height="10.0" fill="#ff3f2f"/><rect x="71.0" y="31.0" width="6.0" height="10.0" fill="#ff3f2f"/><rect x="71.0" y="51.0" width="6.0" height="10.0" fill="#ff3f2f"/><rect x="71.0" y="61.0" width="6.0" height="10.0" fill="#ff3f2f"/><rect x="59.0" y="61.0" width="6.0" height="10.0" fill="#ff3f2f"/><rect x="29.0" y="61.0" width="6.0" height="10.0" fill="#ff3f2f"/><rect x="23.0" y="61.0" width="6.0" height="10.0" fill="#ff3f2f"/><rect x="17.0" y="41.0" width="6.0" height="10.0" fill="#ff3f2f"/><rect x="83.0" y="31.0" width="6.0" height="10.0" fill="#2f3fbf"/><rect x="95.0" y="31.0" width="6.0" height="10.0" fill="#2f3fbf"/><rect x="101.0" y="31.0" width="6.0" height="10.0" fill="#2f3fbf"/><rect x="119.0" y="31.0" width="6.0" height="10.0" fill="#2f3fbf"/><rect x="131.0" y="41.0" width="6.0" height="10.0" fill="#2f3fbf"/><rect x="125.0" y="61.0" width="6.0" height="10.0" fill="#2f3fbf"/><rect x="113.0" y="61.0" width="6.0" height="10.0" fill="#2f3fbf"/><rect x="107.0" y="61.0" width="6.0" height="10.0" fill="#2f3fbf"/><rect x="89.0" y="61.0" width="6.0" height="10.0" fill="#2f3fbf"/><rect x="83.0" y="61.0" width="6.0" height="10.0" fill="#2f3fbf"/><rect x="77.0" y="61.0" width="6.0" height="10.0" fill="#2f3fbf"/><rect x="77.0" y="51.0" width="6.0" height="10.0" fill="#2f3fbf"/><rect x="143.0" y="31.0" width="6.0" height="10.0" fill="#2f3fbf"/><rect x="149.0" y="31.0" width="6.0" height="10.0" fill="#2f3fbf"/><rect x="155.0" y="31.0" width="6.0" height="10.0" fill="#2f3fbf"/><rect x="161.0" y="31.0" width="6.0" height="10.0" fill="#2f3fbf"/><rect x="185.0" y="31.0" width="6.0" height="10.0" fill="#2f3fbf"/><rect x="191.0" y="41.0" width="6.0" height="10.0" fill="#2f3fbf"/><rect x="191.0" y="51.0" width="6.0" height="10.0" fill="#2f3fbf"/><rect x="191.0" y="61.0" width="6.0" height="10.0" fill="#2f3fbf"/><rect x="185.0" y="61.0" width="6.0" height="10.0" fill="#2f3fbf"/><rect x="179.0" y="61.0" width="6.0" height="10.0" fill="#2f3fbf"/><rect x="173.0" y="61.0" width="6.0" height="10.0" fill="#2f3fbf"/><rect x="161.0" y="61.0" width="6.0" height="10.0" fill="#2f3fbf"/><rect x="155.0" y="61.0" width="6.0" height="10.0" fill="#2f3fbf"/><rect x="149.0" y="61.0" width="6.0" height="10.0" fill="#2f3fbf"/><rect x="143.0" y="61.0" width="6.0" height="10.0" fill="#2f3fbf"/><rect x="137.0" y="51.0" width="6.0" height="10.0" fill="#2f3fbf"/><rect x="137.0" y="41.0" width="6.0" height="10.0" fill="#2f3fbf"/><rect x="197.0" y="31.0" width="6.0" height="10.0" fill="#2f3fbf"/><rect x="209.0" y="31.0" width="6.0" height="10.0" fill="#2f3fbf"/><rect x="221.0" y="31.0" width="6.0" height="10.0" fill="#2f3fbf"/><rect x="239.0" y="31.0" width="6.0" height="10.0" fill="#2f3fbf"/><rect x="245.0" y="31.0" width="6.0" height="10.0" fill="#2f3fbf"/><rect x="251.0" y="31.0" width="6.0" height="10.0" fill="#2f3fbf"/><rect x="251.0" y="41.0" width="6.0" height="10.0" fill="#2f3fbf"/><rect x="245.0" y="61.0" width="6.0" height="10.0" fill="#2f3fbf"/><rect x="239.0" y="61.0" width="6.0" height="10.0" fill="#2f3fbf"/><rect x="233.0" y="61.0" width="6.0" height="10.0" fill="#2f3fbf"/><rect x="221.0" y="61.0" width="6.0" height="10.0" fill="#2f3fbf"/><rect x="203.0" y="61.0" width="6.0" height="10.0" fill="#2f3fbf"/><rect x="197.0" y="61.0" width="6.0" height="10.0" fill="#2f3fbf"/><rect x="29.0" y="71.0" width="6.0" height="10.0" fill="#2f3fbf"/><rect x="35.0" y="71.0" width="6.0" height="10.0" fill="#2f3fbf"/><rect x="41.0" y="71.0" width="6.0" height="10.0" fill="#2f3fbf"/><rect x="65.0" y="71.0" width="6.0" height="10.0" fill="#2f3fbf"/><rect x="71.0" y="71.0" width="6.0" height="10.0" fill="#2f3fbf"/><rect x="71.0" y="101.0" width="6.0" height="10.0" fill="#2f3fbf"/><rect x="29.0" y="101.0" width="6.0" height="10.0" fill="#2f3fbf"/><rect x="23.0" y="101.0" width="6.0" height="10.0" fill="#2f3fbf"/><rect x="17.0" y="101.0" width="6.0" height="10.0" fill="#2f3fbf"/><rect x="17.0" y="91.0" width="6.0" height="10.0" fill="#2f3fbf"/><rect x="107.0" y="71.0" width="6.0" height="10.0" fill="#2f3fbf"/><rect x="125.0" y="71.0" width="6.0" height="10.0" fill="#2f3fbf"/><rect x="131.0" y="71.0" width="6.0" height="10.0" fill="#2f3fbf"/><rect x="131.0" y="91.0" width="6.0" height="10.0" fill="#2f3fbf"/><rect x="125.0" y="101.0" width="6.0" height="10.0" fill="#2f3fbf"/><rect x="113.0" y="101.0" width="6.0" height="10.0" fill="#2f3fbf"/><rect x="107.0" y="101.0" width="6.0" height="10.0" fill="#2f3fbf"/><rect x="101.0" y="101.0" width="6.0" height="10.0" fill="#2f3fbf"/><rect x="83.0" y="101.0" width="6.0" height="10.0" fill="#2f3fbf"/><rect x="77.0" y="101.0" width="6.0" height="10.0" fill="#2f3fbf"/><rect x="77.0" y="81.0" width="6.0" height="10.0" fill="#2f3fbf"/><rect x="137.0" y="71.0" width="6.0" height="10.0" fill="#2f3fbf"/><rect x="149.0" y="71.0" width="6.0" height="10.0" fill="#2f3fbf"/><rect x="161.0" y="71.0" width="6.0" height="10.0" fill="#2f3fbf"/><rect x="167.0" y="71.0" width="6.0" height="10.0" fill="#2f3fbf"/><rect x="173.0" y="71.0" width="6.0" height="10.0" fill="#2f3fbf"/><rect x="179.0" y="71.0" width="6.0" height="10.0" fill="#2f3fbf"/><rect x="191.0" y="71.0" width="6.0" height="10.0" fill="#2f3fbf"/><rect x="191.0" y="91.0" width="6.0" height="10.0" fill="#2f3fbf"/><rect x="155.0" y="101.0" width="6.0" height="10.0" fill="#2f3fbf"/><rect x="143.0" y="101.0" width="6.0" height="10.0" fill="#2f3fbf"/><rect x="215.0" y="71.0" width="6.0" height="10.0" fill="#ff3f2f"/><rect x="221.0" y="71.0" width="6.0" height="10.0" fill="#ff3f2f"/><rect x="227.0" y="71.0" width="6.0" height="10.0" fill="#ff3f2f"/><rect x="233.0" y="71.0" width="6.0" height="10.0" fill="#ff3f2f"/><rect x="239.0" y="71.0" width="6.0" height="10.0" fill="#ff3f2f"/><rect x="251.0" y="71.0" width="6.0" height="10.0" fill="#ff3f2f"/><rect x="251.0" y="101.0" width="6.0" height="10.0" fill="#ff3f2f"/><rect x="233.0" y="101.0" width="6.0" height="10.0" fill="#ff3f2f"/><rect x="221.0" y="101.0" width="6.0" height="10.0" fill="#ff3f2f"/><rect x="209.0" y="101.0" width="6.0" height="10.0" fill="#ff3f2f"/><rect x="203.0" y="101.0" width="6.0" height="10.0" fill="#ff3f2f"/><rect x="197.0" y="91.0" width="6.0" height="10.0" fill="#ff3f2f"/><rect x="197.0" y="81.0" width="6.0" height="10.0" fill="#ff3f2f"/><rect x="23.0" y="111.0" width="6.0" height="10.0" fill="#2f3fbf"/><rect x="29.0" y="111.0" width="6.0" height="10.0" fill="#2f3fbf"/><rect x="35.0" y="111.0" width="6.0" height="10.0" fill="#2f3fbf"/><rect x="47.0" y="111.0" width="6.0" height="10.0" fill="#2f3fbf"/><rect x="65.0" y="111.0" width="6.0" height="10.0" fill="#2f3fbf"/><rect x="71.0" y="111.0" width="6.0" height="10.0" fill="#2f3fbf"/><rect x="71.0" y="131.0" width="6.0" height="10.0" fill="#2f3fbf"/><rect x="71.0" y="141.0" width="6.0" height="10.0" fill="#2f3fbf"/><rect x="59.0" y="141.0" width="6.0" height="10.0" fill="#2f3fbf"/><rect x="77.0" y="111.0" width="6.0" height="10.0" fill="#ff3f2f"/><rect x="89.0" y="111.0" width="6.0" height="10.0" fill="#ff3f2f"/><rect x="95.0" y="111.0" width="6.0" height="10.0" fill="#ff3f2f"/><rect x="101.0" y="111.0" width="6.0" height="10.0" fill="#ff3f2f"/><rect x="107.0" y="111.0" width="6.0" height="10.0" fill="#ff3f2f"/><rect x="113.0" y="111.0" width="6.0" height="10.0" fill="#ff3f2f"/><rect x="119.0" y="111.0" width="6.0" height="10.0" fill="#ff3f2f"/><rect x="125.0" y="111.0" width="6.0" height="10.0" fill="#ff3f2f"/><rect x="131.0" y="121.0" width="6.0" height="10.0" fill="#ff3f2f"/><rect x="131.0" y="131.0" width="6.0" height="10.0" fill="#ff3f2f"/><rect x="131.0" y="141.0" width="6.0" height="10.0" fill="#ff3f2f"/><rect x="125.0" y="141.0" width="6.0" height="10.0" fill="#ff3f2f"/><rect x="89.0" y="141.0" width="6.0" height="10.0" fill="#ff3f2f"/><rect x="77.0" y="121.0" width="6.0" height="10.0" fill="#ff3f2f"/><rect x="149.0" y="111.0" width="6.0" height="10.0" fill="#2f3fbf"/><rect x="167.0" y="111.0" width="6.0" height="10.0" fill="#2f3fbf"/><rect x="173.0" y="111.0" width="6.0" height="10.0" fill="#2f3fbf"/><rect x="179.0" y="111.0" width="6.0" height="10.0" fill="#2f3fbf"/><rect x="191.0" y="121.0" width="6.0" height="10.0" fill="#2f3fbf"/><rect x="191.0" y="131.0" width="6.0" height="10.0" fill="#2f3fbf"/><rect x="179.0" y="141.0" width="6.0" height="10.0" fill="#2f3fbf"/><rect x="173.0" y="141.0" width="6.0" height="10.0" fill="#2f3fbf"/><rect x="167.0" y="141.0" width="6.0" height="10.0" fill="#2f3fbf"/><rect x="161.0" y="141.0" width="6.0" height="10.0" fill="#2f3fbf"/><rect x="149.0" y="141.0" width="6.0" height="10.0" fill="#2f3fbf"/><rect x="137.0" y="141.0" width="6.0" height="10.0" fill="#2f3fbf"/><rect x="137.0" y="131.0" width="6.0" height="10.0" fill="#2f3fbf"/><rect x="137.0" y="121.0" width="6.0" height="10.0" fill="#2f3fbf"/><rect x="203.0" y="111.0" width="6.0" height="10.0" fill="#2f3fbf"/><rect x="209.0" y="111.0" width="6.0" height="10.0" fill="#2f3fbf"/><rect x="233.0" y="111.0" width="6.0" height="10.0" fill="#2f3fbf"/><rect x="245.0" y="111.0" width="6.0" height="10.0" fill="#2f3fbf"/><rect x="251.0" y="131.0" width="6.0" height="10.0" fill="#2f3fbf"/><rect x="239.0" y="141.0" width="6.0" height="10.0" fill="#2f3fbf"/><rect x="221.0" y="141.0" width="6.0" height="10.0" fill="#2f3fbf"/><rect x="197.0" y="121.0" width="6.0" height="10.0" fill="#2f3fbf"/><rect x="17.0" y="151.0" width="6.0" height="10.0" fill="#2f3fbf"/><rect x="35.0" y="151.0" width="6.0" height="10.0" fill="#2f3fbf"/><rect x="59.0" y="151.0" width="6.0" height="10.0" fill="#2f3fbf"/><rect x="65.0" y="151.0" width="6.0" height="10.0" fill="#2f3fbf"/><rect x="71.0" y="151.0" width="6.0" height="10.0" fill="#2f3fbf"/><rect x="53.0" y="181.0" width="6.0" height="10.0" fill="#2f3fbf"/><rect x="35.0" y="181.0" width="6.0" height="10.0" fill="#2f3fbf"/><rect x="29.0" y="181.0" width="6.0" height="10.0" fill="#2f3fbf"/><rect x="17.0" y="181.0" width="6.0" height="10.0" fill="#2f3fbf"/><rect x="17.0" y="171.0" width="6.0" height="10.0" fill="#2f3fbf"/><rect x="149.0" y="151.0" width="6.0" height="10.0" fill="#ff3f2f"/><rect x="155.0" y="151.0" width="6.0" height="10.0" fill="#ff3f2f"/><rect x="173.0" y="151.0" width="6.0" height="10.0" fill="#ff3f2f"/><rect x="191.0" y="181.0" width="6.0" height="10.0" fill="#ff3f2f"/><rect x="179.0" y="181.0" width="6.0" height="10.0" fill="#ff3f2f"/><rect x="173.0" y="181.0" width="6.0" height="10.0" fill="#ff3f2f"/><rect x="167.0" y="181.0" width="6.0" height="10.0" fill="#ff3f2f"/><rect x="161.0" y="181.0" width="6.0" height="10.0" fill="#ff3f2f"/><rect x="155.0" y="181.0" width="6.0" height="10.0" fill="#ff3f2f"/><rect x="149.0" y="181.0" width="6.0" height="10.0" fill="#ff3f2f"/><rect x="137.0" y="181.0" width="6.0" height="10.0" fill="#ff3f2f"/><rect x="137.0" y="171.0" width="6.0" height="10.0" fill="#ff3f2f"/><rect x="203.0" y="151.0" width="6.0" height="10.0" fill="#2f3fbf"/><rect x="215.0" y="151.0" width="6.0" height="10.0" fill="#2f3fbf"/><rect x="233.0" y="151.0" width="6.0" height="10.0" fill="#2f3fbf"/><rect x="245.0" y="151.0" width="6.0" height="10.0" fill="#2f3fbf"/><rect x="251.0" y="151.0" width="6.0" height="10.0" fill="#2f3fbf"/><rect x="251.0" y="161.0" width="6.0" height="10.0" fill="#2f3fbf"/><rect x="251.0" y="181.0" width="6.0" height="10.0" fill="#2f3fbf"/><rect x="233.0" y="181.0" width="6.0" height="10.0" fill="#2f3fbf"/><rect x="221.0" y="181.0" width="6.0" height="10.0" fill="#2f3fbf"/><rect x="197.0" y="171.0" width="6.0" height="10.0" fill="#2f3fbf"/><rect x="17.0" y="191.0" width="6.0" height="10.0" fill="#2f3fbf"/><rect x="23.0" y="191.0" width="6.0" height="10.0" fill="#2f3fbf"/><rect x="29.0" y="191.0" width="6.0" height="10.0" fill="#2f3fbf"/><rect x="71.0" y="211.0" width="6.0" height="10.0" fill="#2f3fbf"/><rect x="65.0" y="221.0" width="6.0" height="10.0" fill="#2f3fbf"/><rect x="59.0" y="221.0" width="6.0" height="10.0" fill="#2f3fbf"/><rect x="53.0" y="221.0" width="6.0" height="10.0" fill="#2f3fbf"/><rect x="41.0" y="221.0" width="6.0" height="10.0" fill="#2f3fbf"/><rect x="17.0" y="221.0" width="6.0" height="10.0" fill="#2f3fbf"/><rect x="17.0" y="211.0" width="6.0" height="10.0" fill="#2f3fbf"/><rect x="77.0" y="191.0" width="6.0" height="10.0" fill="#2f3fbf"/><rect x="89.0" y="191.0" width="6.0" height="10.0" fill="#2f3fbf"/><rect x="113.0" y="191.0" width="6.0" height="10.0" fill="#2f3fbf"/><rect x="125.0" y="191.0" width="6.0" height="10.0" fill="#2f3fbf"/><rect x="131.0" y="191.0" width="6.0" height="10.0" fill="#2f3fbf"/><rect x="131.0" y="221.0" width="6.0" height="10.0" fill="#2f3fbf"/><rect x="125.0" y="221.0" width="6.0" height="10.0" fill="#2f3fbf"/><rect x="113.0" y="221.0" width="6.0" height="10.0" fill="#2f3fbf"/><rect x="101.0" y="221.0" width="6.0" height="10.0" fill="#2f3fbf"/><rect x="89.0" y="221.0" width="6.0" height="10.0" fill="#2f3fbf"/><rect x="83.0" y="221.0" width="6.0" height="10.0" fill="#2f3fbf"/><rect x="77.0" y="221.0" width="6.0" height="10.0" fill="#2f3fbf"/><rect x="77.0" y="211.0" width="6.0" height="10.0" fill="#2f3fbf"/><rect x="77.0" y="201.0" width="6.0" height="10.0" fill="#2f3fbf"/><rect x="143.0" y="191.0" width="6.0" height="10.0" fill="#2f3fbf"/><rect x="149.0" y="191.0" width="6.0" height="10.0" fill="#2f3fbf"/><rect x="155.0" y="191.0" width="6.0" height="10.0" fill="#2f3fbf"/><rect x="161.0" y="191.0" width="6.0" height="10.0" fill="#2f3fbf"/><rect x="185.0" y="191.0" width="6.0" height="10.0" fill="#2f3fbf"/><rect x="191.0" y="211.0" width="6.0" height="10.0" fill="#2f3fbf"/><rect x="173.0" y="221.0" width="6.0" height="10.0" fill="#2f3fbf"/><rect x="149.0" y="221.0" width="6.0" height="10.0" fill="#2f3fbf"/><rect x="137.0" y="201.0" width="6.0" height="10.0" fill="#2f3fbf"/><rect x="203.0" y="191.0" width="6.0" height="10.0" fill="#2f3fbf"/><rect x="209.0" y="191.0" width="6.0" height="10.0" fill="#2f3fbf"/><rect x="227.0" y="191.0" width="6.0" height="10.0" fill="#2f3fbf"/><rect x="233.0" y="191.0" width="6.0" height="10.0" fill="#2f3fbf"/><rect x="239.0" y="191.0" width="6.0" height="10.0" fill="#2f3fbf"/><rect x="245.0" y="191.0" width="6.0" height="10.0" fill="#2f3fbf"/><rect x="251.0" y="191.0" width="6.0" height="10.0" fill="#2f3fbf"/><rect x="251.0" y="201.0" width="6.0" height="10.0" fill="#2f3fbf"/><rect x="251.0" y="221.0" width="6.0" height="10.0" fill="#2f3fbf"/><rect x="233.0" y="221.0" width="6.0" height="10.0" fill="#2f3fbf"/><rect x="227.0" y="221.0" width="6.0" height="10.0" fill="#2f3fbf"/><rect x="215.0" y="221.0" width="6.0" height="10.0" fill="#2f3fbf"/><rect x="209.0" y="221.0" width="6.0" height="10.0" fill="#2f3fbf"/><rect x="203.0" y="221.0" width="6.0" height="10.0" fill="#2f3fbf"/><rect x="197.0" y="221.0" width="6.0" height="10.0" fill="#2f3fbf"/><rect x="197.0" y="211.0" width="6.0" height="10.0" fill="#2f3fbf"/></g><g clip-path="url(#grid-clip-985bef79a49adefd-4x5)" data-channel="ellipse" data-ellipse-anchor-x="137.0" data-ellipse-anchor-y="111.0" data-ellipse-rx="63.23520916159047" data-ellipse-ry="77.17633465854476" data-ellipse-rotation-deg="108.0"><ellipse cx="137.0" cy="111.0" rx="63.23520916159047" ry="77.17633465854476" transform="rotate(108.0 137.0 111.0)" fill="#000000" fill-opacity="0.2"/></g><g><g data-channel="cell" data-cell-index="0" data-cell-row="0" data-cell-col="0"><rect x="23.0" y="41.0" width="48.0" height="20.0" fill="#726f4c"/><text x="47.0" y="51.0" fill="#ffffff" style="font-family: &quot;DejaVu Sans Mono&quot;, &quot;Consolas&quot;, &quot;Menlo&quot;, &quot;Liberation Mono&quot;, monospace; font-size: 16.0px;" text-anchor="middle" dominant-baseline="central">TG9y</text></g><g data-channel="cell" data-cell-index="1" data-cell-row="0" data-cell-col="1" data-cell-quartile="3"><rect x="83.0" y="41.0" width="48.0" height="20.0" fill="#206d65"/><text x="107.0" y="51.0" fill="#ffffff" style="font-family: &quot;DejaVu Sans Mono&quot;, &quot;Consolas&quot;, &quot;Menlo&quot;, &quot;Liberation Mono&quot;, monospace; font-size: 16.0px;" text-anchor="middle" dominant-baseline="central">ZW0g</text><polygon points="131.0,61.0 131.0,51.0 121.0,61.0" fill="#ffffff"/></g><g data-channel="cell" data-cell-index="2" data-cell-row="0" data-cell-col="2"><rect x="143.0" y="41.0" width="48.0" height="20.0" fill="#737069"/><text x="167.0" y="51.0" fill="#ffffff" style="font-family: &quot;DejaVu Sans Mono&quot;, &quot;Consolas&quot;, &quot;Menlo&quot;, &quot;Liberation Mono&quot;, monospace; font-size: 16.0px;" text-anchor="middle" dominant-baseline="central">aXBz</text></g><g data-channel="cell" data-cell-index="3" data-cell-row="0" data-cell-col="3"><rect x="203.0" y="41.0" width="48.0" height="20.0" fill="#206d75"/><text x="227.0" y="51.0" fill="#ffffff" style="font-family: &quot;DejaVu Sans Mono&quot;, &quot;Consolas&quot;, &quot;Menlo&quot;, &quot;Liberation Mono&quot;, monospace; font-size: 16.0px;" text-anchor="middle" dominant-baseline="central">dW0g</text></g><g data-channel="cell" data-cell-index="4" data-cell-row="1" data-cell-col="0"><rect x="23.0" y="81.0" width="48.0" height="20.0" fill="#6c6f64"/><text x="47.0" y="91.0" fill="#ffffff" style="font-family: &quot;DejaVu Sans Mono&quot;, &quot;Consolas&quot;, &quot;Menlo&quot;, &quot;Liberation Mono&quot;, monospace; font-size: 16.0px;" text-anchor="middle" dominant-baseline="central">ZG9s</text></g><g data-channel="cell" data-cell-index="5" data-cell-row="1" data-cell-col="1"><rect x="83.0" y="81.0" width="48.0" height="20.0" fill="#20726f"/><text x="107.0" y="91.0" fill="#ffffff" style="font-family: &quot;DejaVu Sans Mono&quot;, &quot;Consolas&quot;, &quot;Menlo&quot;, &quot;Liberation Mono&quot;, monospace; font-size: 16.0px;" text-anchor="middle" dominant-baseline="central">b3Ig</text></g><g data-channel="cell" data-cell-index="6" data-cell-row="1" data-cell-col="2" data-cell-quartile="1"><rect x="143.0" y="81.0" width="48.0" height="20.0" fill="#746973"/><text x="167.0" y="91.0" fill="#ffffff" style="font-family: &quot;DejaVu Sans Mono&quot;, &quot;Consolas&quot;, &quot;Menlo&quot;, &quot;Liberation Mono&quot;, monospace; font-size: 16.0px;" text-anchor="middle" dominant-baseline="central">c2l0</text><polygon points="143.0,81.0 153.0,81.0 143.0,91.0" fill="#ffffff"/></g><g data-channel="cell" data-cell-index="7" data-cell-row="1" data-cell-col="3"><rect x="203.0" y="81.0" width="48.0" height="20.0" fill="#6d6120"/><text x="227.0" y="91.0" fill="#ffffff" style="font-family: &quot;DejaVu Sans Mono&quot;, &quot;Consolas&quot;, &quot;Menlo&quot;, &quot;Liberation Mono&quot;, monospace; font-size: 16.0px;" text-anchor="middle" dominant-baseline="central">IGFt</text></g><g data-channel="cell" data-cell-index="8" data-cell-row="2" data-cell-col="0"><rect x="23.0" y="121.0" width="48.0" height="20.0" fill="#2c7465"/><text x="47.0" y="131.0" fill="#ffffff" style="font-family: &quot;DejaVu Sans Mono&quot;, &quot;Consolas&quot;, &quot;Menlo&quot;, &quot;Liberation Mono&quot;, monospace; font-size: 16.0px;" text-anchor="middle" dominant-baseline="central">ZXQs</text></g><g data-channel="cell" data-cell-index="9" data-cell-row="2" data-cell-col="1"><rect x="83.0" y="121.0" width="48.0" height="20.0" fill="#6f6320"/><text x="107.0" y="131.0" fill="#ffffff" style="font-family: &quot;DejaVu Sans Mono&quot;, &quot;Consolas&quot;, &quot;Menlo&quot;, &quot;Liberation Mono&quot;, monospace; font-size: 16.0px;" text-anchor="middle" dominant-baseline="central">IGNv</text></g><g data-channel="cell" data-cell-index="10" data-cell-row="2" data-cell-col="2" data-cell-quartile="4"><rect x="143.0" y="121.0" width="48.0" height="20.0" fill="#65736e"/><text x="167.0" y="131.0" fill="#ffffff" style="font-family: &quot;DejaVu Sans Mono&quot;, &quot;Consolas&quot;, &quot;Menlo&quot;, &quot;Liberation Mono&quot;, monospace; font-size: 16.0px;" text-anchor="middle" dominant-baseline="central">bnNl</text><polygon points="143.0,141.0 143.0,131.0 153.0,141.0" fill="#ffffff"/></g><g data-channel="cell" data-cell-index="11" data-cell-row="2" data-cell-col="3"><rect x="203.0" y="121.0" width="48.0" height="20.0" fill="#657463"/><text x="227.0" y="131.0" fill="#ffffff" style="font-family: &quot;DejaVu Sans Mono&quot;, &quot;Consolas&quot;, &quot;Menlo&quot;, &quot;Liberation Mono&quot;, monospace; font-size: 16.0px;" text-anchor="middle" dominant-baseline="central">Y3Rl</text></g><g data-channel="cell" data-cell-index="12" data-cell-row="3" data-cell-col="0"><rect x="23.0" y="161.0" width="48.0" height="20.0" fill="#727574"/><text x="47.0" y="171.0" fill="#ffffff" style="font-family: &quot;DejaVu Sans Mono&quot;, &quot;Consolas&quot;, &quot;Menlo&quot;, &quot;Liberation Mono&quot;, monospace; font-size: 16.0px;" text-anchor="middle" dominant-baseline="central">dHVy</text></g><g data-channel="cell" data-cell-index="13" data-cell-row="3" data-cell-col="1" data-cell-blank="true" data-cell-blank-marker="true"><circle cx="107.0" cy="171.0" r="17.0" fill="#ffffff" stroke="#000000" stroke-width="1"/><line x1="107.0" y1="171.0" x2="107.0" y2="189.0" stroke="#ffffff" style="mix-blend-mode: difference" stroke-width="1"/><line x1="107.0" y1="171.0" x2="99.92757249812833" y2="166.28504833208555" stroke="#000000" stroke-width="1"/><circle cx="99.92757249812833" cy="166.28504833208555" r="1.5" fill="#ffffff" stroke="#000000" stroke-width="1"/></g><g data-channel="cell" data-cell-index="14" data-cell-row="3" data-cell-col="2"><rect x="143.0" y="161.0" width="48.0" height="20.0" fill="#646120"/><text x="167.0" y="171.0" fill="#ffffff" style="font-family: &quot;DejaVu Sans Mono&quot;, &quot;Consolas&quot;, &quot;Menlo&quot;, &quot;Liberation Mono&quot;, monospace; font-size: 16.0px;" text-anchor="middle" dominant-baseline="central">IGFk</text></g><g data-channel="cell" data-cell-index="15" data-cell-row="3" data-cell-col="3"><rect x="203.0" y="161.0" width="48.0" height="20.0" fill="#697069"/><text x="227.0" y="171.0" fill="#ffffff" style="font-family: &quot;DejaVu Sans Mono&quot;, &quot;Consolas&quot;, &quot;Menlo&quot;, &quot;Liberation Mono&quot;, monospace; font-size: 16.0px;" text-anchor="middle" dominant-baseline="central">aXBp</text></g><g data-channel="cell" data-cell-index="16" data-cell-row="4" data-cell-col="0" data-cell-quartile="2"><rect x="23.0" y="201.0" width="48.0" height="20.0" fill="#696373"/><text x="47.0" y="211.0" fill="#ffffff" style="font-family: &quot;DejaVu Sans Mono&quot;, &quot;Consolas&quot;, &quot;Menlo&quot;, &quot;Liberation Mono&quot;, monospace; font-size: 16.0px;" text-anchor="middle" dominant-baseline="central">c2Np</text><polygon points="71.0,201.0 61.0,201.0 71.0,211.0" fill="#ffffff"/></g><g data-channel="cell" data-cell-index="17" data-cell-row="4" data-cell-col="1"><rect x="83.0" y="201.0" width="48.0" height="20.0" fill="#20676e"/><text x="107.0" y="211.0" fill="#ffffff" style="font-family: &quot;DejaVu Sans Mono&quot;, &quot;Consolas&quot;, &quot;Menlo&quot;, &quot;Liberation Mono&quot;, monospace; font-size: 16.0px;" text-anchor="middle" dominant-baseline="central">bmcg</text></g><g data-channel="cell" data-cell-index="18" data-cell-row="4" data-cell-col="2"><rect x="143.0" y="201.0" width="48.0" height="20.0" fill="#696c65"/><text x="167.0" y="211.0" fill="#ffffff" style="font-family: &quot;DejaVu Sans Mono&quot;, &quot;Consolas&quot;, &quot;Menlo&quot;, &quot;Liberation Mono&quot;, monospace; font-size: 16.0px;" text-anchor="middle" dominant-baseline="central">ZWxp</text></g><g data-channel="cell" data-cell-index="19" data-cell-row="4" data-cell-col="3"><rect x="203.0" y="201.0" width="48.0" height="20.0" fill="#382e74"/><text x="227.0" y="211.0" fill="#ffffff" style="font-family: &quot;DejaVu Sans Mono&quot;, &quot;Consolas&quot;, &quot;Menlo&quot;, &quot;Liberation Mono&quot;, monospace; font-size: 16.0px;" text-anchor="middle" dominant-baseline="central">dC4</text></g></g></g><g data-channel="color-bar"><g data-color-bar-rank="0" data-color-bar-band="B"><rect x="1" y="1" width="10.0" height="86.67141176138313" fill="#2f3fbf"/><text x="6.0" y="44.33570588069156" fill="#ffffff" style="font-family: &quot;DejaVu Sans Mono&quot;, &quot;Consolas&quot;, &quot;Menlo&quot;, &quot;Liberation Mono&quot;, monospace; font-size: 8.5px;" text-anchor="middle" dominant-baseline="central" data-color-bar-letter="true">b</text></g><g data-color-bar-rank="1" data-color-bar-band="R"><rect x="1" y="87.67141176138313" width="10.0" height="53.728494753731944" fill="#ff3f2f"/><text x="6.0" y="114.5356591382491" fill="#000000" style="font-family: &quot;DejaVu Sans Mono&quot;, &quot;Consolas&quot;, &quot;Menlo&quot;, &quot;Liberation Mono&quot;, monospace; font-size: 8.5px;" text-anchor="middle" dominant-baseline="central" data-color-bar-letter="true">r</text></g><g data-color-bar-rank="2" data-color-bar-band="G"><rect x="1" y="141.39990651511508" width="10.0" height="50.39752788414702" fill="#ffd966"/><text x="6.0" y="166.59867045718858" fill="#000000" style="font-family: &quot;DejaVu Sans Mono&quot;, &quot;Consolas&quot;, &quot;Menlo&quot;, &quot;Liberation Mono&quot;, monospace; font-size: 8.5px;" text-anchor="middle" dominant-baseline="central" data-color-bar-letter="true">g</text></g><g data-color-bar-rank="3" data-color-bar-band="K"><rect x="1" y="191.7974343992621" width="10.0" height="44.2025656007379" fill="#000000"/><text x="6.0" y="213.89871719963105" fill="#ffffff" style="font-family: &quot;DejaVu Sans Mono&quot;, &quot;Consolas&quot;, &quot;Menlo&quot;, &quot;Liberation Mono&quot;, monospace; font-size: 8.5px;" text-anchor="middle" dominant-baseline="central" data-color-bar-letter="true">k</text></g></g><g data-channel="label-top"><text x="17.0" y="16.0" fill="#666666" style="font-family: &quot;DejaVu Sans Mono&quot;, &quot;Consolas&quot;, &quot;Menlo&quot;, &quot;Liberation Mono&quot;, monospace; font-size: 12.0px;" dominant-baseline="central">txt(56)-&gt;b64url:</text></g><line x1="0" y1="0.5" x2="263.0" y2="0.5" stroke="#808080" stroke-width="1" shape-rendering="crispEdges"/><line x1="262.5" y1="0" x2="262.5" y2="237.0" stroke="#808080" stroke-width="1" shape-rendering="crispEdges"/><line x1="0" y1="236.5" x2="263.0" y2="236.5" stroke="#808080" stroke-width="1" shape-rendering="crispEdges"/><line x1="0.5" y1="0" x2="0.5" y2="237.0" stroke="#808080" stroke-width="1" shape-rendering="crispEdges"/><line x1="11.5" y1="0" x2="11.5" y2="237.0" stroke="#808080" stroke-width="1" shape-rendering="crispEdges"/></svg>