<svg width="213.0" height="152.0" viewBox="0 0 213.0 152.0" xmlns="http://www.w3.org/2000/svg" data-entviz-version="v7" data-entviz-lib="0.7.1" data-input-bytes="50" data-cols="3" data-rows="3"><defs><clipPath id="grid-clip-1b486f0ae2985071-3x3"><rect x="27.0" y="26.0" width="180.0" height="120.0"/></clipPath></defs><rect x="0" y="0" width="213.0" height="152.0" fill="#ffffff"/><g data-channel="grid"><rect x="27.0" y="26.0" width="180.0" height="120.0" fill="#e7be00"/><g><rect x="27.0" y="26.0" width="6.0" height="10.0" fill="#ffffff"/><rect x="33.0" y="26.0" width="6.0" height="10.0" fill="#ffffff"/><rect x="39.0" y="26.0" width="6.0" height="10.0" fill="#ffffff"/><rect x="45.0" y="26.0" width="6.0" height="10.0" fill="#ffffff"/><rect x="57.0" y="26.0" width="6.0" height="10.0" fill="#ffffff"/><rect x="63.0" y="26.0" width="6.0" height="10.0" fill="#ffffff"/><rect x="81.0" y="46.0" width="6.0" height="10.0" fill="#ffffff"/><rect x="69.0" y="56.0" width="6.0" height="10.0" fill="#ffffff"/><rect x="57.0" y="56.0" width="6.0" height="10.0" fill="#ffffff"/><rect x="51.0" y="56.0" width="6.0" height="10.0" fill="#ffffff"/><rect x="39.0" y="56.0" width="6.0" height="10.0" fill="#ffffff"/><rect x="33.0" y="56.0" width="6.0" height="10.0" fill="#ffffff"/><rect x="105.0" y="26.0" width="6.0" height="10.0" fill="#000000"/><rect x="111.0" y="26.0" width="6.0" height="10.0" fill="#000000"/><rect x="129.0" y="26.0" width="6.0" height="10.0" fill="#000000"/><rect x="141.0" y="26.0" width="6.0" height="10.0" fill="#000000"/><rect x="135.0" y="56.0" width="6.0" height="10.0" fill="#000000"/><rect x="129.0" y="56.0" width="6.0" height="10.0" fill="#000000"/><rect x="123.0" y="56.0" width="6.0" height="10.0" fill="#000000"/><rect x="111.0" y="56.0" width="6.0" height="10.0" fill="#000000"/><rect x="99.0" y="56.0" width="6.0" height="10.0" fill="#000000"/><rect x="27.0" y="66.0" width="6.0" height="10.0" fill="#2f3fbf"/><rect x="39.0" y="66.0" width="6.0" height="10.0" fill="#2f3fbf"/><rect x="45.0" y="66.0" width="6.0" height="10.0" fill="#2f3fbf"/><rect x="69.0" y="66.0" width="6.0" height="10.0" fill="#2f3fbf"/><rect x="75.0" y="66.0" width="6.0" height="10.0" fill="#2f3fbf"/><rect x="81.0" y="96.0" width="6.0" height="10.0" fill="#2f3fbf"/><rect x="75.0" y="96.0" width="6.0" height="10.0" fill="#2f3fbf"/><rect x="69.0" y="96.0" width="6.0" height="10.0" fill="#2f3fbf"/><rect x="33.0" y="96.0" width="6.0" height="10.0" fill="#2f3fbf"/><rect x="27.0" y="86.0" width="6.0" height="10.0" fill="#2f3fbf"/><rect x="99.0" y="66.0" width="6.0" height="10.0" fill="#000000"/><rect x="105.0" y="66.0" width="6.0" height="10.0" fill="#000000"/><rect x="111.0" y="66.0" width="6.0" height="10.0" fill="#000000"/><rect x="123.0" y="66.0" width="6.0" height="10.0" fill="#000000"/><rect x="135.0" y="66.0" width="6.0" height="10.0" fill="#000000"/><rect x="141.0" y="66.0" width="6.0" height="10.0" fill="#000000"/><rect x="141.0" y="96.0" width="6.0" height="10.0" fill="#000000"/><rect x="135.0" y="96.0" width="6.0" height="10.0" fill="#000000"/><rect x="129.0" y="96.0" width="6.0" height="10.0" fill="#000000"/><rect x="123.0" y="96.0" width="6.0" height="10.0" fill="#000000"/><rect x="111.0" y="96.0" width="6.0" height="10.0" fill="#000000"/><rect x="105.0" y="96.0" width="6.0" height="10.0" fill="#000000"/><rect x="93.0" y="96.0" width="6.0" height="10.0" fill="#000000"/><rect x="87.0" y="76.0" width="6.0" height="10.0" fill="#000000"/><rect x="39.0" y="106.0" width="6.0" height="10.0" fill="#2f3fbf"/><rect x="45.0" y="106.0" width="6.0" height="10.0" fill="#2f3fbf"/><rect x="51.0" y="106.0" width="6.0" height="10.0" fill="#2f3fbf"/><rect x="57.0" y="106.0" width="6.0" height="10.0" fill="#2f3fbf"/><rect x="63.0" y="106.0" width="6.0" height="10.0" fill="#2f3fbf"/><rect x="75.0" y="106.0" width="6.0" height="10.0" fill="#2f3fbf"/><rect x="81.0" y="116.0" width="6.0" height="10.0" fill="#2f3fbf"/><rect x="81.0" y="136.0" width="6.0" height="10.0" fill="#2f3fbf"/><rect x="75.0" y="136.0" width="6.0" height="10.0" fill="#2f3fbf"/><rect x="57.0" y="136.0" width="6.0" height="10.0" fill="#2f3fbf"/><rect x="45.0" y="136.0" width="6.0" height="10.0" fill="#2f3fbf"/><rect x="27.0" y="136.0" width="6.0" height="10.0" fill="#2f3fbf"/><rect x="27.0" y="116.0" width="6.0" height="10.0" fill="#2f3fbf"/><rect x="99.0" y="106.0" width="6.0" height="10.0" fill="#ff3f2f"/><rect x="105.0" y="106.0" width="6.0" height="10.0" fill="#ff3f2f"/><rect x="111.0" y="106.0" width="6.0" height="10.0" fill="#ff3f2f"/><rect x="123.0" y="106.0" width="6.0" height="10.0" fill="#ff3f2f"/><rect x="141.0" y="126.0" width="6.0" height="10.0" fill="#ff3f2f"/><rect x="135.0" y="136.0" width="6.0" height="10.0" fill="#ff3f2f"/><rect x="117.0" y="136.0" width="6.0" height="10.0" fill="#ff3f2f"/><rect x="105.0" y="136.0" width="6.0" height="10.0" fill="#ff3f2f"/><rect x="99.0" y="136.0" width="6.0" height="10.0" fill="#ff3f2f"/><rect x="93.0" y="136.0" width="6.0" height="10.0" fill="#ff3f2f"/><rect x="87.0" y="136.0" width="6.0" height="10.0" fill="#ff3f2f"/><rect x="147.0" y="106.0" width="6.0" height="10.0" fill="#ffffff"/><rect x="159.0" y="106.0" width="6.0" height="10.0" fill="#ffffff"/><rect x="171.0" y="106.0" width="6.0" height="10.0" fill="#ffffff"/><rect x="183.0" y="106.0" width="6.0" height="10.0" fill="#ffffff"/><rect x="189.0" y="106.0" width="6.0" height="10.0" fill="#ffffff"/><rect x="201.0" y="116.0" width="6.0" height="10.0" fill="#ffffff"/><rect x="201.0" y="136.0" width="6.0" height="10.0" fill="#ffffff"/><rect x="195.0" y="136.0" width="6.0" height="10.0" fill="#ffffff"/><rect x="189.0" y="136.0" width="6.0" height="10.0" fill="#ffffff"/><rect x="171.0" y="136.0" width="6.0" height="10.0" fill="#ffffff"/><rect x="153.0" y="136.0" width="6.0" height="10.0" fill="#ffffff"/><rect x="147.0" y="136.0" width="6.0" height="10.0" fill="#ffffff"/><rect x="147.0" y="126.0" width="6.0" height="10.0" fill="#ffffff"/></g><g clip-path="url(#grid-clip-1b486f0ae2985071-3x3)" data-channel="ellipse" data-ellipse-anchor-x="27.0" data-ellipse-anchor-y="146.0" data-ellipse-rx="104.70520903947423" data-ellipse-ry="47.59327683612466" data-ellipse-rotation-deg="180.0"><ellipse cx="27.0" cy="146.0" rx="104.70520903947423" ry="47.59327683612466" transform="rotate(180.0 27.0 146.0)" fill="#000000" stroke="#000000" fill-opacity="0.2" stroke-opacity="0.3" stroke-width="2.0"/></g><g><g data-channel="cell" data-cell-index="0" data-cell-row="0" data-cell-col="0" data-cell-quartile="4"><rect x="33.0" y="36.0" width="48.0" height="20.0" fill="#eda994"/><text x="57.0" y="46.0" fill="#000000" style="font-family: &quot;JetBrains Mono&quot;, &quot;Menlo&quot;, &quot;Consolas&quot;, &quot;DejaVu Sans Mono&quot;, &quot;Liberation Mono&quot;, &quot;Roboto Mono&quot;, &quot;Noto Sans Mono&quot;, monospace; font-size: 12.0px;" text-anchor="middle" dominant-baseline="central">94a9ed</text><polygon points="33.0,56.0 33.0,46.0 43.0,56.0" fill="#000000"/></g><g data-channel="cell" data-cell-index="1" data-cell-row="0" data-cell-col="1"><rect x="93.0" y="36.0" width="48.0" height="20.0" fill="#384d02"/><text x="117.0" y="46.0" fill="#ffffff" style="font-family: &quot;JetBrains Mono&quot;, &quot;Menlo&quot;, &quot;Consolas&quot;, &quot;DejaVu Sans Mono&quot;, &quot;Liberation Mono&quot;, &quot;Roboto Mono&quot;, &quot;Noto Sans Mono&quot;, monospace; font-size: 12.0px;" text-anchor="middle" dominant-baseline="central">024d38</text></g><g data-channel="cell" data-cell-index="2" data-cell-row="0" data-cell-col="2" data-cell-blank="true" data-cell-blank-map="true"><rect x="153.0" y="36.0" width="48.0" height="20.0" rx="10.0" ry="10.0" fill="#ffffff" stroke="#000000" stroke-width="1"/><circle cx="161.0" cy="52.66666666666667" r="3.5" fill="#d62828" data-blank-map-max="true"/><circle cx="177.0" cy="39.333333333333336" r="3.5" fill="#1d4ed8" data-blank-map-min="true"/></g><g data-channel="cell" data-cell-index="3" data-cell-row="1" data-cell-col="0"><rect x="33.0" y="76.0" width="48.0" height="20.0" fill="#367959"/><text x="57.0" y="86.0" fill="#ffffff" style="font-family: &quot;JetBrains Mono&quot;, &quot;Menlo&quot;, &quot;Consolas&quot;, &quot;DejaVu Sans Mono&quot;, &quot;Liberation Mono&quot;, &quot;Roboto Mono&quot;, &quot;Noto Sans Mono&quot;, monospace; font-size: 12.0px;" text-anchor="middle" dominant-baseline="central">597936</text></g><g data-channel="cell" data-cell-index="4" data-cell-row="1" data-cell-col="1" data-cell-quartile="3"><rect x="93.0" y="76.0" width="48.0" height="20.0" fill="#2e1518"/><text x="117.0" y="86.0" fill="#ffffff" style="font-family: &quot;JetBrains Mono&quot;, &quot;Menlo&quot;, &quot;Consolas&quot;, &quot;DejaVu Sans Mono&quot;, &quot;Liberation Mono&quot;, &quot;Roboto Mono&quot;, &quot;Noto Sans Mono&quot;, monospace; font-size: 12.0px;" text-anchor="middle" dominant-baseline="central">18152e</text><polygon points="141.0,96.0 141.0,86.0 131.0,96.0" fill="#ffffff"/></g><g data-channel="cell" data-cell-index="5" data-cell-row="1" data-cell-col="2" data-cell-blank="true"><rect x="153.0" y="76.0" width="48.0" height="20.0" rx="10.0" ry="10.0" fill="none" stroke="#000000" stroke-width="1"/></g><g data-channel="cell" data-cell-index="6" data-cell-row="2" data-cell-col="0" data-cell-quartile="1"><rect x="33.0" y="116.0" width="48.0" height="20.0" fill="#a159a5"/><text x="57.0" y="126.0" fill="#ffffff" style="font-family: &quot;JetBrains Mono&quot;, &quot;Menlo&quot;, &quot;Consolas&quot;, &quot;DejaVu Sans Mono&quot;, &quot;Liberation Mono&quot;, &quot;Roboto Mono&quot;, &quot;Noto Sans Mono&quot;, monospace; font-size: 12.0px;" text-anchor="middle" dominant-baseline="central">a559a1</text><polygon points="33.0,116.0 43.0,116.0 33.0,126.0" fill="#ffffff"/></g><g data-channel="cell" data-cell-index="7" data-cell-row="2" data-cell-col="1"><rect x="93.0" y="116.0" width="48.0" height="20.0" fill="#cbbb68"/><text x="117.0" y="126.0" fill="#000000" style="font-family: &quot;JetBrains Mono&quot;, &quot;Menlo&quot;, &quot;Consolas&quot;, &quot;DejaVu Sans Mono&quot;, &quot;Liberation Mono&quot;, &quot;Roboto Mono&quot;, &quot;Noto Sans Mono&quot;, monospace; font-size: 12.0px;" text-anchor="middle" dominant-baseline="central">68bbcb</text></g><g data-channel="cell" data-cell-index="8" data-cell-row="2" data-cell-col="2" data-cell-quartile="2"><rect x="153.0" y="116.0" width="48.0" height="20.0" fill="#e2e2b5"/><text x="177.0" y="126.0" fill="#000000" style="font-family: &quot;JetBrains Mono&quot;, &quot;Menlo&quot;, &quot;Consolas&quot;, &quot;DejaVu Sans Mono&quot;, &quot;Liberation Mono&quot;, &quot;Roboto Mono&quot;, &quot;Noto Sans Mono&quot;, monospace; font-size: 12.0px;" text-anchor="middle" dominant-baseline="central">b5e2</text><polygon points="201.0,116.0 191.0,116.0 201.0,126.0" fill="#000000"/></g></g></g><g data-channel="color-bar"><g data-color-bar-rank="0" data-color-bar-band="W"><rect x="1" y="1" width="20.0" height="68.61455678874545" fill="#ffffff"/><text x="11.0" y="66.97455678874545" fill="#000000" style="font-family: &quot;JetBrains Mono&quot;, &quot;Menlo&quot;, &quot;Consolas&quot;, &quot;DejaVu Sans Mono&quot;, &quot;Liberation Mono&quot;, &quot;Roboto Mono&quot;, &quot;Noto Sans Mono&quot;, monospace; font-size: 12.0px;" text-anchor="middle" data-color-bar-letter="true">w</text></g><g data-color-bar-rank="1" data-color-bar-band="R"><rect x="1" y="69.61455678874545" width="20.0" height="34.50498072994545" fill="#ff3f2f"/><text x="11.0" y="101.47953751869089" fill="#000000" style="font-family: &quot;JetBrains Mono&quot;, &quot;Menlo&quot;, &quot;Consolas&quot;, &quot;DejaVu Sans Mono&quot;, &quot;Liberation Mono&quot;, &quot;Roboto Mono&quot;, &quot;Noto Sans Mono&quot;, monospace; font-size: 12.0px;" text-anchor="middle" data-color-bar-letter="true">r</text></g><g data-color-bar-rank="2" data-color-bar-band="B"><rect x="1" y="104.11953751869089" width="20.0" height="26.654276267295664" fill="#2f3fbf"/><text x="11.0" y="128.13381378598658" fill="#ffffff" style="font-family: &quot;JetBrains Mono&quot;, &quot;Menlo&quot;, &quot;Consolas&quot;, &quot;DejaVu Sans Mono&quot;, &quot;Liberation Mono&quot;, &quot;Roboto Mono&quot;, &quot;Noto Sans Mono&quot;, monospace; font-size: 12.0px;" text-anchor="middle" data-color-bar-letter="true">b</text></g><g data-color-bar-rank="3" data-color-bar-band="K"><rect x="1" y="130.77381378598656" width="20.0" height="20.22618621401344" fill="#000000"/><text x="11.0" y="148.36" fill="#ffffff" style="font-family: &quot;JetBrains Mono&quot;, &quot;Menlo&quot;, &quot;Consolas&quot;, &quot;DejaVu Sans Mono&quot;, &quot;Liberation Mono&quot;, &quot;Roboto Mono&quot;, &quot;Noto Sans Mono&quot;, monospace; font-size: 12.0px;" text-anchor="middle" data-color-bar-letter="true">k</text></g></g><g data-channel="label-top"><text x="27.0" y="16.0" fill="#666666" style="font-family: &quot;JetBrains Mono&quot;, &quot;Menlo&quot;, &quot;Consolas&quot;, &quot;DejaVu Sans Mono&quot;, &quot;Liberation Mono&quot;, &quot;Roboto Mono&quot;, &quot;Noto Sans Mono&quot;, monospace; font-size: 12.0px;" dominant-baseline="central">swh:1:cnt:...</text></g><line x1="0" y1="0.5" x2="213.0" y2="0.5" stroke="#808080" stroke-width="1" shape-rendering="crispEdges"/><line x1="212.5" y1="0" x2="212.5" y2="152.0" stroke="#808080" stroke-width="1" shape-rendering="crispEdges"/><line x1="0" y1="151.5" x2="213.0" y2="151.5" stroke="#808080" stroke-width="1" shape-rendering="crispEdges"/><line x1="0.5" y1="0" x2="0.5" y2="152.0" stroke="#808080" stroke-width="1" shape-rendering="crispEdges"/><line x1="21.5" y1="0" x2="21.5" y2="152.0" stroke="#808080" stroke-width="1" shape-rendering="crispEdges"/></svg>