<svg width="213" height="152" viewBox="0 0 213 152" xmlns="http://www.w3.org/2000/svg" font-family="&quot;JetBrains Mono&quot;, &quot;Menlo&quot;, &quot;Consolas&quot;, &quot;DejaVu Sans Mono&quot;, &quot;Liberation Mono&quot;, &quot;Roboto Mono&quot;, &quot;Noto Sans Mono&quot;, monospace" data-entviz-version="v11" data-entviz-lib="0.11.0" data-input-bytes="50" data-cols="3" data-rows="3"><defs><clipPath id="grid-clip-1b486f0ae2985071-3x3"><rect x="27" y="26" width="180" height="120"/></clipPath></defs><rect x="0" y="0" width="213" height="152" fill="#ffffff"/><g data-channel="grid"><rect x="27" y="26" width="180" height="120" fill="#e7be00"/><g><path fill="#000000" d="M27 26h6v10h-6zM33 26h6v10h-6zM39 26h6v10h-6zM45 26h6v10h-6zM57 26h6v10h-6zM63 26h6v10h-6zM81 46h6v10h-6zM69 56h6v10h-6zM57 56h6v10h-6zM51 56h6v10h-6zM39 56h6v10h-6zM33 56h6v10h-6z"/><path fill="#000000" d="M105 26h6v10h-6zM111 26h6v10h-6zM129 26h6v10h-6zM141 26h6v10h-6zM135 56h6v10h-6zM129 56h6v10h-6zM123 56h6v10h-6zM111 56h6v10h-6zM99 56h6v10h-6z"/><path fill="#2f3fbf" d="M27 66h6v10h-6zM39 66h6v10h-6zM45 66h6v10h-6zM69 66h6v10h-6zM75 66h6v10h-6zM81 96h6v10h-6zM75 96h6v10h-6zM69 96h6v10h-6zM33 96h6v10h-6zM27 86h6v10h-6z"/><path fill="#000000" d="M99 66h6v10h-6zM105 66h6v10h-6zM111 66h6v10h-6zM123 66h6v10h-6zM135 66h6v10h-6zM141 66h6v10h-6zM141 96h6v10h-6zM135 96h6v10h-6zM129 96h6v10h-6zM123 96h6v10h-6zM111 96h6v10h-6zM105 96h6v10h-6zM93 96h6v10h-6zM87 76h6v10h-6z"/><path fill="#ffffff" d="M39 106h6v10h-6zM45 106h6v10h-6zM51 106h6v10h-6zM57 106h6v10h-6zM63 106h6v10h-6zM75 106h6v10h-6zM81 116h6v10h-6zM81 136h6v10h-6zM75 136h6v10h-6zM57 136h6v10h-6zM45 136h6v10h-6zM27 136h6v10h-6zM27 116h6v10h-6z"/><path fill="#ff3f2f" d="M99 106h6v10h-6zM105 106h6v10h-6zM111 106h6v10h-6zM123 106h6v10h-6zM141 126h6v10h-6zM135 136h6v10h-6zM117 136h6v10h-6zM105 136h6v10h-6zM99 136h6v10h-6zM93 136h6v10h-6zM87 136h6v10h-6z"/><path fill="#ff3f2f" d="M147 106h6v10h-6zM159 106h6v10h-6zM171 106h6v10h-6zM183 106h6v10h-6zM189 106h6v10h-6zM201 116h6v10h-6zM201 136h6v10h-6zM195 136h6v10h-6zM189 136h6v10h-6zM171 136h6v10h-6zM153 136h6v10h-6zM147 136h6v10h-6zM147 126h6v10h-6z"/></g><g clip-path="url(#grid-clip-1b486f0ae2985071-3x3)" data-channel="ellipse" data-ellipse-anchor-x="27" data-ellipse-anchor-y="146" data-ellipse-rx="104.705" data-ellipse-ry="47.593" data-ellipse-rotation-deg="180"><ellipse cx="27" cy="146" rx="104.705" ry="47.593" transform="rotate(180 27 146)" fill="#000000" stroke="#000000" fill-opacity="0.2" stroke-opacity="0.3" stroke-width="2"/></g><g><g data-channel="cell" data-cell-index="0" data-cell-row="0" data-cell-col="0" data-surround-bits="0x1b486f" data-edge-color="#000000" data-cell-quartile="4"><rect x="33" y="36" width="48" height="20" fill="#eda994"/><text x="57" y="46" fill="#000000" font-size="12" text-anchor="middle" dominant-baseline="central">94a9ed</text><polygon points="33,56 33,46 43,56" fill="#000000"/></g><g data-channel="cell" data-cell-index="1" data-cell-row="0" data-cell-col="1" data-surround-bits="0xae298" data-edge-color="#000000"><rect x="93" y="36" width="48" height="20" fill="#384d02"/><text x="117" y="46" fill="#ffffff" font-size="12" text-anchor="middle" dominant-baseline="central">024d38</text></g><g data-channel="cell" data-cell-index="2" data-cell-row="0" data-cell-col="2" data-cell-blank="true" data-cell-blank-map="true"><rect x="153" y="36" width="48" height="20" rx="10" ry="10" fill="#ffffff" stroke="#000000" stroke-width="1"/><circle cx="177" cy="39.333" r="3.5" fill="#1d4ed8" data-blank-map-min="0,1"/><path d="M 156.8,52.667 H 165.2 M 161,48.467 V 56.867" fill="none" stroke="#d62828" stroke-width="1.925" stroke-linecap="butt" data-blank-map-max="2,0"/></g><g data-channel="cell" data-cell-index="3" data-cell-row="1" data-cell-col="0" data-surround-bits="0x50718d" data-edge-color="#2f3fbf"><rect x="33" y="76" width="48" height="20" fill="#367959"/><text x="57" y="86" fill="#ffffff" font-size="12" text-anchor="middle" dominant-baseline="central">597936</text></g><g data-channel="cell" data-cell-index="4" data-cell-row="1" data-cell-col="1" data-surround-bits="0x96f35c" data-edge-color="#000000" data-cell-quartile="3"><rect x="93" y="76" width="48" height="20" fill="#2e1518"/><text x="117" y="86" fill="#ffffff" font-size="12" text-anchor="middle" dominant-baseline="central">18152e</text><polygon points="141,96 141,86 131,96" fill="#ffffff"/></g><g data-channel="cell" data-cell-index="5" data-cell-row="1" data-cell-col="2" data-cell-blank="true"><rect x="153" y="76" width="48" height="20" rx="10" ry="10" fill="#ff3f2f" stroke="#000000" stroke-width="1"/></g><g data-channel="cell" data-cell-index="6" data-cell-row="2" data-cell-col="0" data-surround-bits="0xa5357c" data-edge-color="#ffffff" data-cell-quartile="1"><rect x="33" y="116" width="48" height="20" fill="#a159a5"/><text x="57" y="126" fill="#ffffff" font-size="12" text-anchor="middle" dominant-baseline="central">a559a1</text><polygon points="33,116 43,116 33,126" fill="#ffffff"/></g><g data-channel="cell" data-cell-index="7" data-cell-row="2" data-cell-col="1" data-surround-bits="0x3d285c" data-edge-color="#ff3f2f"><rect x="93" y="116" width="48" height="20" fill="#cbbb68"/><text x="117" y="126" fill="#000000" font-size="12" text-anchor="middle" dominant-baseline="central">68bbcb</text></g><g data-channel="cell" data-cell-index="8" data-cell-row="2" data-cell-col="2" data-surround-bits="0x7274d5" data-edge-color="#ff3f2f" data-cell-quartile="2"><rect x="153" y="116" width="48" height="20" fill="#e2e2b5"/><text x="177" y="126" fill="#000000" font-size="12" text-anchor="middle" dominant-baseline="central">b5e2</text><polygon points="201,116 191,116 201,126" fill="#000000"/></g></g></g><g data-channel="color-bar" data-bar-slots="12" data-bar-marker-left="4" data-bar-marker-right="4"><g data-color-bar-rank="0" data-color-bar-band="K"><rect x="1" y="1" width="20" height="20.226" fill="#000000"/><text x="11" y="18.586" fill="#ffffff" font-size="12" text-anchor="middle" data-color-bar-letter="true">k</text></g><g data-color-bar-rank="1" data-color-bar-band="B"><rect x="1" y="21.226" width="20" height="26.654" fill="#2f3fbf"/><text x="11" y="45.24" fill="#ffffff" font-size="12" text-anchor="middle" data-color-bar-letter="true">b</text></g><g data-color-bar-rank="2" data-color-bar-band="R"><rect x="1" y="47.88" width="20" height="34.505" fill="#ff3f2f"/><text x="11" y="79.745" fill="#000000" font-size="12" text-anchor="middle" data-color-bar-letter="true">r</text></g><g data-color-bar-rank="3" data-color-bar-band="W"><rect x="1" y="82.385" width="20" height="68.615" fill="#ffffff"/><text x="11" y="148.36" fill="#000000" font-size="12" text-anchor="middle" data-color-bar-letter="true">w</text></g><circle cx="5.6" cy="57.25" r="3.4" fill="#ffffff" stroke="#000000" stroke-width="0.75" data-bar-marker="left"/><circle cx="16.4" cy="57.25" r="3.4" fill="#ffffff" stroke="#000000" stroke-width="0.75" data-bar-marker="right"/></g><g data-channel="label-top"><text x="27" y="16" fill="#666666" font-size="12" dominant-baseline="central">swh:1:cnt:...</text></g><line x1="0" y1="0.5" x2="213" y2="0.5" stroke="#808080" stroke-width="1" shape-rendering="crispEdges"/><line x1="212.5" y1="0" x2="212.5" y2="152" stroke="#808080" stroke-width="1" shape-rendering="crispEdges"/><line x1="0" y1="151.5" x2="213" y2="151.5" stroke="#808080" stroke-width="1" shape-rendering="crispEdges"/><line x1="0.5" y1="0" x2="0.5" y2="152" stroke="#808080" stroke-width="1" shape-rendering="crispEdges"/><line x1="21.5" y1="0" x2="21.5" y2="152" stroke="#808080" stroke-width="1" shape-rendering="crispEdges"/></svg>