<svg width="203.0" height="197.0" xmlns="http://www.w3.org/2000/svg"><defs><clipPath id="grid-clip-8ed0861e-3x4"><rect x="17.0" y="31.0" width="180.0" height="160.0"/></clipPath></defs><rect x="0" y="0" width="203.0" height="197.0" fill="#ffffff"/><rect x="17.0" y="31.0" width="180.0" height="160.0" fill="#2f3fbf"/><rect x="23.0" y="31.0" width="6.0" height="10.0" fill="#ffffff"/><rect x="29.0" y="31.0" width="6.0" height="10.0" fill="#ffffff"/><rect x="59.0" y="31.0" width="6.0" height="10.0" fill="#ffffff"/><rect x="71.0" y="61.0" width="6.0" height="10.0" fill="#ffffff"/><rect x="59.0" y="61.0" width="6.0" height="10.0" fill="#ffffff"/><rect x="53.0" y="61.0" width="6.0" height="10.0" fill="#ffffff"/><rect x="41.0" y="61.0" width="6.0" height="10.0" fill="#ffffff"/><rect x="35.0" y="61.0" width="6.0" height="10.0" fill="#ffffff"/><rect x="29.0" y="61.0" width="6.0" height="10.0" fill="#ffffff"/><rect x="17.0" y="41.0" width="6.0" height="10.0" fill="#ffffff"/><rect x="77.0" y="31.0" width="6.0" height="10.0" fill="#ffffff"/><rect x="95.0" y="31.0" width="6.0" height="10.0" fill="#ffffff"/><rect x="107.0" y="31.0" width="6.0" height="10.0" fill="#ffffff"/><rect x="125.0" y="31.0" width="6.0" height="10.0" fill="#ffffff"/><rect x="131.0" y="31.0" width="6.0" height="10.0" fill="#ffffff"/><rect x="119.0" y="61.0" width="6.0" height="10.0" fill="#ffffff"/><rect x="101.0" y="61.0" width="6.0" height="10.0" fill="#ffffff"/><rect x="95.0" y="61.0" width="6.0" height="10.0" fill="#ffffff"/><rect x="89.0" y="61.0" width="6.0" height="10.0" fill="#ffffff"/><rect x="83.0" y="61.0" width="6.0" height="10.0" fill="#ffffff"/><rect x="137.0" y="31.0" width="6.0" height="10.0" fill="#ffd966"/><rect x="167.0" y="31.0" width="6.0" height="10.0" fill="#ffd966"/><rect x="173.0" y="31.0" width="6.0" height="10.0" fill="#ffd966"/><rect x="185.0" y="31.0" width="6.0" height="10.0" fill="#ffd966"/><rect x="191.0" y="31.0" width="6.0" height="10.0" fill="#ffd966"/><rect x="191.0" y="41.0" width="6.0" height="10.0" fill="#ffd966"/><rect x="191.0" y="61.0" width="6.0" height="10.0" fill="#ffd966"/><rect x="185.0" y="61.0" width="6.0" height="10.0" fill="#ffd966"/><rect x="179.0" y="61.0" width="6.0" height="10.0" fill="#ffd966"/><rect x="173.0" y="61.0" width="6.0" height="10.0" fill="#ffd966"/><rect x="167.0" y="61.0" width="6.0" height="10.0" fill="#ffd966"/><rect x="155.0" y="61.0" width="6.0" height="10.0" fill="#ffd966"/><rect x="149.0" y="61.0" width="6.0" height="10.0" fill="#ffd966"/><rect x="137.0" y="51.0" width="6.0" height="10.0" fill="#ffd966"/><rect x="17.0" y="71.0" width="6.0" height="10.0" fill="#ff3f2f"/><rect x="23.0" y="71.0" width="6.0" height="10.0" fill="#ff3f2f"/><rect x="29.0" y="71.0" width="6.0" height="10.0" fill="#ff3f2f"/><rect x="47.0" y="71.0" width="6.0" height="10.0" fill="#ff3f2f"/><rect x="71.0" y="91.0" width="6.0" height="10.0" fill="#ff3f2f"/><rect x="53.0" y="101.0" width="6.0" height="10.0" fill="#ff3f2f"/><rect x="47.0" y="101.0" width="6.0" height="10.0" fill="#ff3f2f"/><rect x="35.0" y="101.0" width="6.0" height="10.0" fill="#ff3f2f"/><rect x="23.0" y="101.0" width="6.0" height="10.0" fill="#ff3f2f"/><rect x="17.0" y="101.0" width="6.0" height="10.0" fill="#ff3f2f"/><rect x="17.0" y="91.0" width="6.0" height="10.0" fill="#ff3f2f"/><rect x="77.0" y="71.0" width="6.0" height="10.0" fill="#ffd966"/><rect x="95.0" y="71.0" width="6.0" height="10.0" fill="#ffd966"/><rect x="107.0" y="71.0" width="6.0" height="10.0" fill="#ffd966"/><rect x="113.0" y="71.0" width="6.0" height="10.0" fill="#ffd966"/><rect x="119.0" y="71.0" width="6.0" height="10.0" fill="#ffd966"/><rect x="125.0" y="71.0" width="6.0" height="10.0" fill="#ffd966"/><rect x="131.0" y="91.0" width="6.0" height="10.0" fill="#ffd966"/><rect x="125.0" y="101.0" width="6.0" height="10.0" fill="#ffd966"/><rect x="113.0" y="101.0" width="6.0" height="10.0" fill="#ffd966"/><rect x="89.0" y="101.0" width="6.0" height="10.0" fill="#ffd966"/><rect x="83.0" y="101.0" width="6.0" height="10.0" fill="#ffd966"/><rect x="77.0" y="91.0" width="6.0" height="10.0" fill="#ffd966"/><rect x="77.0" y="81.0" width="6.0" height="10.0" fill="#ffd966"/><rect x="149.0" y="71.0" width="6.0" height="10.0" fill="#ff3f2f"/><rect x="167.0" y="71.0" width="6.0" height="10.0" fill="#ff3f2f"/><rect x="173.0" y="71.0" width="6.0" height="10.0" fill="#ff3f2f"/><rect x="191.0" y="71.0" width="6.0" height="10.0" fill="#ff3f2f"/><rect x="191.0" y="81.0" width="6.0" height="10.0" fill="#ff3f2f"/><rect x="173.0" y="101.0" width="6.0" height="10.0" fill="#ff3f2f"/><rect x="161.0" y="101.0" width="6.0" height="10.0" fill="#ff3f2f"/><rect x="149.0" y="101.0" width="6.0" height="10.0" fill="#ff3f2f"/><rect x="137.0" y="91.0" width="6.0" height="10.0" fill="#ff3f2f"/><rect x="137.0" y="81.0" width="6.0" height="10.0" fill="#ff3f2f"/><rect x="59.0" y="111.0" width="6.0" height="10.0" fill="#ffffff"/><rect x="65.0" y="111.0" width="6.0" height="10.0" fill="#ffffff"/><rect x="71.0" y="121.0" width="6.0" height="10.0" fill="#ffffff"/><rect x="71.0" y="141.0" width="6.0" height="10.0" fill="#ffffff"/><rect x="65.0" y="141.0" width="6.0" height="10.0" fill="#ffffff"/><rect x="59.0" y="141.0" width="6.0" height="10.0" fill="#ffffff"/><rect x="53.0" y="141.0" width="6.0" height="10.0" fill="#ffffff"/><rect x="47.0" y="141.0" width="6.0" height="10.0" fill="#ffffff"/><rect x="35.0" y="141.0" width="6.0" height="10.0" fill="#ffffff"/><rect x="29.0" y="141.0" width="6.0" height="10.0" fill="#ffffff"/><rect x="17.0" y="141.0" width="6.0" height="10.0" fill="#ffffff"/><rect x="107.0" y="111.0" width="6.0" height="10.0" fill="#000000"/><rect x="131.0" y="121.0" width="6.0" height="10.0" fill="#000000"/><rect x="119.0" y="141.0" width="6.0" height="10.0" fill="#000000"/><rect x="113.0" y="141.0" width="6.0" height="10.0" fill="#000000"/><rect x="107.0" y="141.0" width="6.0" height="10.0" fill="#000000"/><rect x="95.0" y="141.0" width="6.0" height="10.0" fill="#000000"/><rect x="83.0" y="141.0" width="6.0" height="10.0" fill="#000000"/><rect x="77.0" y="141.0" width="6.0" height="10.0" fill="#000000"/><rect x="77.0" y="131.0" width="6.0" height="10.0" fill="#000000"/><rect x="77.0" y="121.0" width="6.0" height="10.0" fill="#000000"/><rect x="17.0" y="151.0" width="6.0" height="10.0" fill="#000000"/><rect x="23.0" y="151.0" width="6.0" height="10.0" fill="#000000"/><rect x="35.0" y="151.0" width="6.0" height="10.0" fill="#000000"/><rect x="41.0" y="151.0" width="6.0" height="10.0" fill="#000000"/><rect x="47.0" y="151.0" width="6.0" height="10.0" fill="#000000"/><rect x="53.0" y="151.0" width="6.0" height="10.0" fill="#000000"/><rect x="59.0" y="151.0" width="6.0" height="10.0" fill="#000000"/><rect x="71.0" y="151.0" width="6.0" height="10.0" fill="#000000"/><rect x="71.0" y="161.0" width="6.0" height="10.0" fill="#000000"/><rect x="71.0" y="171.0" width="6.0" height="10.0" fill="#000000"/><rect x="47.0" y="181.0" width="6.0" height="10.0" fill="#000000"/><rect x="35.0" y="181.0" width="6.0" height="10.0" fill="#000000"/><rect x="29.0" y="181.0" width="6.0" height="10.0" fill="#000000"/><rect x="23.0" y="181.0" width="6.0" height="10.0" fill="#000000"/><rect x="17.0" y="171.0" width="6.0" height="10.0" fill="#000000"/><rect x="83.0" y="151.0" width="6.0" height="10.0" fill="#ffd966"/><rect x="89.0" y="151.0" width="6.0" height="10.0" fill="#ffd966"/><rect x="95.0" y="151.0" width="6.0" height="10.0" fill="#ffd966"/><rect x="101.0" y="151.0" width="6.0" height="10.0" fill="#ffd966"/><rect x="107.0" y="151.0" width="6.0" height="10.0" fill="#ffd966"/><rect x="113.0" y="151.0" width="6.0" height="10.0" fill="#ffd966"/><rect x="125.0" y="151.0" width="6.0" height="10.0" fill="#ffd966"/><rect x="131.0" y="151.0" width="6.0" height="10.0" fill="#ffd966"/><rect x="131.0" y="161.0" width="6.0" height="10.0" fill="#ffd966"/><rect x="131.0" y="171.0" width="6.0" height="10.0" fill="#ffd966"/><rect x="101.0" y="181.0" width="6.0" height="10.0" fill="#ffd966"/><rect x="83.0" y="181.0" width="6.0" height="10.0" fill="#ffd966"/><rect x="77.0" y="161.0" width="6.0" height="10.0" fill="#ffd966"/><rect x="137.0" y="151.0" width="6.0" height="10.0" fill="#ffffff"/><rect x="143.0" y="151.0" width="6.0" height="10.0" fill="#ffffff"/><rect x="191.0" y="161.0" width="6.0" height="10.0" fill="#ffffff"/><rect x="191.0" y="181.0" width="6.0" height="10.0" fill="#ffffff"/><rect x="179.0" y="181.0" width="6.0" height="10.0" fill="#ffffff"/><rect x="167.0" y="181.0" width="6.0" height="10.0" fill="#ffffff"/><rect x="137.0" y="181.0" width="6.0" height="10.0" fill="#ffffff"/><rect x="137.0" y="161.0" width="6.0" height="10.0" fill="#ffffff"/><g clip-path="url(#grid-clip-8ed0861e-3x4)"><ellipse cx="77.0" cy="151.0" rx="86.47041832318094" ry="40.0" transform="rotate(108.0 77.0 151.0)" fill="#ffffff" fill-opacity="0.4"/></g><rect x="23.0" y="41.0" width="48.0" height="20.0" fill="#beadde"/><text x="47.0" y="51.0" fill="#000000" style="font-family: monospace; font-size: 12.0px;" text-anchor="middle" dominant-baseline="central">deadbe</text><rect x="83.0" y="41.0" width="48.0" height="20.0" fill="#fecaef"/><text x="107.0" y="51.0" fill="#000000" style="font-family: monospace; font-size: 12.0px;" text-anchor="middle" dominant-baseline="central">efcafe</text><rect x="143.0" y="41.0" width="48.0" height="20.0" fill="#12beba"/><text x="167.0" y="51.0" fill="#000000" style="font-family: monospace; font-size: 12.0px;" text-anchor="middle" dominant-baseline="central">babe12</text><rect x="23.0" y="81.0" width="48.0" height="20.0" fill="#785634"/><text x="47.0" y="91.0" fill="#ffffff" style="font-family: monospace; font-size: 12.0px;" text-anchor="middle" dominant-baseline="central">345678</text><rect x="83.0" y="81.0" width="48.0" height="20.0" fill="#cdab90"/><text x="107.0" y="91.0" fill="#000000" style="font-family: monospace; font-size: 12.0px;" text-anchor="middle" dominant-baseline="central">90abcd</text><rect x="143.0" y="81.0" width="48.0" height="20.0" fill="#ed0fef"/><text x="167.0" y="91.0" fill="#000000" style="font-family: monospace; font-size: 12.0px;" text-anchor="middle" dominant-baseline="central">ef0fed</text><rect x="23.0" y="121.0" width="48.0" height="20.0" fill="#87a9cb"/><text x="47.0" y="131.0" fill="#000000" style="font-family: monospace; font-size: 12.0px;" text-anchor="middle" dominant-baseline="central">cba987</text><rect x="83.0" y="121.0" width="48.0" height="20.0" fill="#214365"/><text x="107.0" y="131.0" fill="#ffffff" style="font-family: monospace; font-size: 12.0px;" text-anchor="middle" dominant-baseline="central">654321</text><rect x="23.0" y="161.0" width="48.0" height="20.0" fill="#452301"/><text x="47.0" y="171.0" fill="#ffffff" style="font-family: monospace; font-size: 12.0px;" text-anchor="middle" dominant-baseline="central">012345</text><rect x="83.0" y="161.0" width="48.0" height="20.0" fill="#ab8967"/><text x="107.0" y="171.0" fill="#000000" style="font-family: monospace; font-size: 12.0px;" text-anchor="middle" dominant-baseline="central">6789ab</text><rect x="143.0" y="161.0" width="48.0" height="20.0" fill="#efefcd"/><text x="167.0" y="171.0" fill="#000000" style="font-family: monospace; font-size: 12.0px;" text-anchor="middle" dominant-baseline="central">cdef</text><circle cx="167.0" cy="131.0" r="17.0" fill="#ffffff" stroke="#000000" stroke-width="1"/><line x1="167.0" y1="131.0" x2="149.0" y2="131.0" stroke="#ffffff" style="mix-blend-mode: difference" stroke-width="1"/><line x1="167.0" y1="131.0" x2="161.9" y2="124.2" stroke="#000000" stroke-width="1"/><circle cx="161.9" cy="124.2" r="1.5" fill="#ffffff" stroke="#000000" stroke-width="1"/><polygon points="83.0,161.0 93.0,161.0 83.0,171.0" fill="#000000"/><polygon points="191.0,161.0 181.0,161.0 191.0,171.0" fill="#000000"/><polygon points="191.0,61.0 191.0,51.0 181.0,61.0" fill="#000000"/><polygon points="83.0,61.0 83.0,51.0 93.0,61.0" fill="#000000"/><rect x="1" y="1" width="10.0" height="63.19370818022153" fill="#ffffff"/><rect x="1" y="64.19370818022153" width="10.0" height="63.19370818022153" fill="#ff3f2f"/><rect x="1" y="127.38741636044307" width="10.0" height="41.19497421648307" fill="#ffd966"/><rect x="1" y="168.58239057692614" width="10.0" height="27.417609423073856" fill="#000000"/><text x="17.0" y="16.0" fill="#666666" style="font-family: monospace; font-size: 12.0px;" dominant-baseline="central">hex(64):</text><line x1="0" y1="0.5" x2="203.0" y2="0.5" stroke="#808080" stroke-width="1" shape-rendering="crispEdges"/><line x1="202.5" y1="0" x2="202.5" y2="197.0" stroke="#808080" stroke-width="1" shape-rendering="crispEdges"/><line x1="0" y1="196.5" x2="203.0" y2="196.5" stroke="#808080" stroke-width="1" shape-rendering="crispEdges"/><line x1="0.5" y1="0" x2="0.5" y2="197.0" stroke="#808080" stroke-width="1" shape-rendering="crispEdges"/><line x1="11.5" y1="0" x2="11.5" y2="197.0" stroke="#808080" stroke-width="1" shape-rendering="crispEdges"/></svg>