<svg width="263.0" height="197.0" viewBox="0 0 263.0 197.0" xmlns="http://www.w3.org/2000/svg" data-entviz-version="v5" data-input-bytes="62" data-cols="4" data-rows="4"><defs><clipPath id="grid-clip-2371623d63e0081d-4x4"><rect x="17.0" y="31.0" width="240.0" height="160.0"/></clipPath></defs><rect x="0" y="0" width="263.0" height="197.0" fill="#ffffff"/><g data-channel="grid"><rect x="17.0" y="31.0" width="240.0" height="160.0" fill="#ffffff"/><g><rect x="23.0" y="31.0" width="6.0" height="10.0" fill="#ff3f2f"/><rect x="47.0" y="31.0" width="6.0" height="10.0" fill="#ff3f2f"/><rect x="53.0" y="31.0" width="6.0" height="10.0" fill="#ff3f2f"/><rect x="65.0" y="31.0" width="6.0" height="10.0" fill="#ff3f2f"/><rect x="71.0" y="61.0" width="6.0" height="10.0" fill="#ff3f2f"/><rect x="65.0" y="61.0" width="6.0" height="10.0" fill="#ff3f2f"/><rect x="59.0" y="61.0" width="6.0" height="10.0" fill="#ff3f2f"/><rect x="47.0" y="61.0" width="6.0" height="10.0" fill="#ff3f2f"/><rect x="41.0" y="61.0" width="6.0" height="10.0" fill="#ff3f2f"/><rect x="17.0" y="61.0" width="6.0" height="10.0" fill="#ff3f2f"/><rect x="107.0" y="31.0" width="6.0" height="10.0" fill="#2f3fbf"/><rect x="113.0" y="31.0" width="6.0" height="10.0" fill="#2f3fbf"/><rect x="119.0" y="31.0" width="6.0" height="10.0" fill="#2f3fbf"/><rect x="125.0" y="31.0" width="6.0" height="10.0" fill="#2f3fbf"/><rect x="131.0" y="31.0" width="6.0" height="10.0" fill="#2f3fbf"/><rect x="125.0" y="61.0" width="6.0" height="10.0" fill="#2f3fbf"/><rect x="119.0" y="61.0" width="6.0" height="10.0" fill="#2f3fbf"/><rect x="107.0" y="61.0" width="6.0" height="10.0" fill="#2f3fbf"/><rect x="95.0" y="61.0" width="6.0" height="10.0" fill="#2f3fbf"/><rect x="89.0" y="61.0" width="6.0" height="10.0" fill="#2f3fbf"/><rect x="83.0" y="61.0" width="6.0" height="10.0" fill="#2f3fbf"/><rect x="77.0" y="61.0" width="6.0" height="10.0" fill="#2f3fbf"/><rect x="137.0" y="31.0" width="6.0" height="10.0" fill="#ff3f2f"/><rect x="149.0" y="31.0" width="6.0" height="10.0" fill="#ff3f2f"/><rect x="173.0" y="31.0" width="6.0" height="10.0" fill="#ff3f2f"/><rect x="179.0" y="31.0" width="6.0" height="10.0" fill="#ff3f2f"/><rect x="185.0" y="31.0" width="6.0" height="10.0" fill="#ff3f2f"/><rect x="191.0" y="41.0" width="6.0" height="10.0" fill="#ff3f2f"/><rect x="191.0" y="51.0" width="6.0" height="10.0" fill="#ff3f2f"/><rect x="191.0" y="61.0" width="6.0" height="10.0" fill="#ff3f2f"/><rect x="149.0" y="61.0" width="6.0" height="10.0" fill="#ff3f2f"/><rect x="197.0" y="31.0" width="6.0" height="10.0" fill="#2f3fbf"/><rect x="215.0" y="31.0" width="6.0" height="10.0" fill="#2f3fbf"/><rect x="233.0" y="31.0" width="6.0" height="10.0" fill="#2f3fbf"/><rect x="251.0" y="41.0" width="6.0" height="10.0" fill="#2f3fbf"/><rect x="251.0" y="61.0" width="6.0" height="10.0" fill="#2f3fbf"/><rect x="245.0" y="61.0" width="6.0" height="10.0" fill="#2f3fbf"/><rect x="233.0" y="61.0" width="6.0" height="10.0" fill="#2f3fbf"/><rect x="221.0" y="61.0" width="6.0" height="10.0" fill="#2f3fbf"/><rect x="215.0" y="61.0" width="6.0" height="10.0" fill="#2f3fbf"/><rect x="209.0" y="61.0" width="6.0" height="10.0" fill="#2f3fbf"/><rect x="203.0" y="61.0" width="6.0" height="10.0" fill="#2f3fbf"/><rect x="197.0" y="41.0" width="6.0" height="10.0" fill="#2f3fbf"/><rect x="23.0" y="71.0" width="6.0" height="10.0" fill="#2f3fbf"/><rect x="71.0" y="71.0" width="6.0" height="10.0" fill="#2f3fbf"/><rect x="71.0" y="81.0" width="6.0" height="10.0" fill="#2f3fbf"/><rect x="71.0" y="91.0" width="6.0" height="10.0" fill="#2f3fbf"/><rect x="59.0" y="101.0" width="6.0" height="10.0" fill="#2f3fbf"/><rect x="23.0" y="101.0" width="6.0" height="10.0" fill="#2f3fbf"/><rect x="17.0" y="81.0" width="6.0" height="10.0" fill="#2f3fbf"/><rect x="77.0" y="71.0" width="6.0" height="10.0" fill="#2f3fbf"/><rect x="89.0" y="71.0" width="6.0" height="10.0" fill="#2f3fbf"/><rect x="95.0" y="71.0" width="6.0" height="10.0" fill="#2f3fbf"/><rect x="101.0" y="71.0" width="6.0" height="10.0" fill="#2f3fbf"/><rect x="113.0" y="71.0" width="6.0" height="10.0" fill="#2f3fbf"/><rect x="125.0" y="71.0" width="6.0" height="10.0" fill="#2f3fbf"/><rect x="131.0" y="71.0" width="6.0" height="10.0" fill="#2f3fbf"/><rect x="119.0" y="101.0" width="6.0" height="10.0" fill="#2f3fbf"/><rect x="113.0" y="101.0" width="6.0" height="10.0" fill="#2f3fbf"/><rect x="107.0" y="101.0" width="6.0" height="10.0" fill="#2f3fbf"/><rect x="95.0" y="101.0" width="6.0" height="10.0" fill="#2f3fbf"/><rect x="83.0" y="101.0" width="6.0" height="10.0" fill="#2f3fbf"/><rect x="77.0" y="81.0" width="6.0" height="10.0" fill="#2f3fbf"/><rect x="137.0" y="71.0" width="6.0" height="10.0" fill="#2f3fbf"/><rect x="143.0" y="71.0" width="6.0" height="10.0" fill="#2f3fbf"/><rect x="149.0" y="71.0" width="6.0" height="10.0" fill="#2f3fbf"/><rect x="161.0" y="71.0" width="6.0" height="10.0" fill="#2f3fbf"/><rect x="167.0" y="71.0" width="6.0" height="10.0" fill="#2f3fbf"/><rect x="173.0" y="71.0" width="6.0" height="10.0" fill="#2f3fbf"/><rect x="191.0" y="81.0" width="6.0" height="10.0" fill="#2f3fbf"/><rect x="191.0" y="101.0" width="6.0" height="10.0" fill="#2f3fbf"/><rect x="185.0" y="101.0" width="6.0" height="10.0" fill="#2f3fbf"/><rect x="161.0" y="101.0" width="6.0" height="10.0" fill="#2f3fbf"/><rect x="155.0" y="101.0" width="6.0" height="10.0" fill="#2f3fbf"/><rect x="137.0" y="91.0" width="6.0" height="10.0" fill="#2f3fbf"/><rect x="137.0" y="81.0" width="6.0" height="10.0" fill="#2f3fbf"/><rect x="197.0" y="71.0" width="6.0" height="10.0" fill="#ff3f2f"/><rect x="203.0" y="71.0" width="6.0" height="10.0" fill="#ff3f2f"/><rect x="209.0" y="71.0" width="6.0" height="10.0" fill="#ff3f2f"/><rect x="215.0" y="71.0" width="6.0" height="10.0" fill="#ff3f2f"/><rect x="245.0" y="101.0" width="6.0" height="10.0" fill="#ff3f2f"/><rect x="239.0" y="101.0" width="6.0" height="10.0" fill="#ff3f2f"/><rect x="233.0" y="101.0" width="6.0" height="10.0" fill="#ff3f2f"/><rect x="221.0" y="101.0" width="6.0" height="10.0" fill="#ff3f2f"/><rect x="215.0" y="101.0" width="6.0" height="10.0" fill="#ff3f2f"/><rect x="197.0" y="101.0" width="6.0" height="10.0" fill="#ff3f2f"/><rect x="197.0" y="91.0" width="6.0" height="10.0" fill="#ff3f2f"/><rect x="23.0" y="111.0" width="6.0" height="10.0" fill="#ff3f2f"/><rect x="41.0" y="111.0" width="6.0" height="10.0" fill="#ff3f2f"/><rect x="53.0" y="111.0" width="6.0" height="10.0" fill="#ff3f2f"/><rect x="59.0" y="111.0" width="6.0" height="10.0" fill="#ff3f2f"/><rect x="71.0" y="111.0" width="6.0" height="10.0" fill="#ff3f2f"/><rect x="71.0" y="121.0" width="6.0" height="10.0" fill="#ff3f2f"/><rect x="71.0" y="131.0" width="6.0" height="10.0" fill="#ff3f2f"/><rect x="71.0" y="141.0" width="6.0" height="10.0" fill="#ff3f2f"/><rect x="59.0" y="141.0" width="6.0" height="10.0" fill="#ff3f2f"/><rect x="47.0" y="141.0" width="6.0" height="10.0" fill="#ff3f2f"/><rect x="29.0" y="141.0" width="6.0" height="10.0" fill="#ff3f2f"/><rect x="23.0" y="141.0" width="6.0" height="10.0" fill="#ff3f2f"/><rect x="17.0" y="141.0" width="6.0" height="10.0" fill="#ff3f2f"/><rect x="17.0" y="131.0" width="6.0" height="10.0" fill="#ff3f2f"/><rect x="95.0" y="111.0" width="6.0" height="10.0" fill="#2f3fbf"/><rect x="101.0" y="111.0" width="6.0" height="10.0" fill="#2f3fbf"/><rect x="113.0" y="111.0" width="6.0" height="10.0" fill="#2f3fbf"/><rect x="125.0" y="111.0" width="6.0" height="10.0" fill="#2f3fbf"/><rect x="131.0" y="111.0" width="6.0" height="10.0" fill="#2f3fbf"/><rect x="131.0" y="121.0" width="6.0" height="10.0" fill="#2f3fbf"/><rect x="131.0" y="131.0" width="6.0" height="10.0" fill="#2f3fbf"/><rect x="131.0" y="141.0" width="6.0" height="10.0" fill="#2f3fbf"/><rect x="119.0" y="141.0" width="6.0" height="10.0" fill="#2f3fbf"/><rect x="113.0" y="141.0" width="6.0" height="10.0" fill="#2f3fbf"/><rect x="101.0" y="141.0" width="6.0" height="10.0" fill="#2f3fbf"/><rect x="89.0" y="141.0" width="6.0" height="10.0" fill="#2f3fbf"/><rect x="77.0" y="141.0" width="6.0" height="10.0" fill="#2f3fbf"/><rect x="155.0" y="111.0" width="6.0" height="10.0" fill="#2f3fbf"/><rect x="161.0" y="111.0" width="6.0" height="10.0" fill="#2f3fbf"/><rect x="173.0" y="111.0" width="6.0" height="10.0" fill="#2f3fbf"/><rect x="191.0" y="131.0" width="6.0" height="10.0" fill="#2f3fbf"/><rect x="191.0" y="141.0" width="6.0" height="10.0" fill="#2f3fbf"/><rect x="185.0" y="141.0" width="6.0" height="10.0" fill="#2f3fbf"/><rect x="173.0" y="141.0" width="6.0" height="10.0" fill="#2f3fbf"/><rect x="161.0" y="141.0" width="6.0" height="10.0" fill="#2f3fbf"/><rect x="155.0" y="141.0" width="6.0" height="10.0" fill="#2f3fbf"/><rect x="137.0" y="131.0" width="6.0" height="10.0" fill="#2f3fbf"/><rect x="203.0" y="111.0" width="6.0" height="10.0" fill="#2f3fbf"/><rect x="233.0" y="111.0" width="6.0" height="10.0" fill="#2f3fbf"/><rect x="245.0" y="111.0" width="6.0" height="10.0" fill="#2f3fbf"/><rect x="251.0" y="111.0" width="6.0" height="10.0" fill="#2f3fbf"/><rect x="251.0" y="121.0" width="6.0" height="10.0" fill="#2f3fbf"/><rect x="251.0" y="141.0" width="6.0" height="10.0" fill="#2f3fbf"/><rect x="227.0" y="141.0" width="6.0" height="10.0" fill="#2f3fbf"/><rect x="221.0" y="141.0" width="6.0" height="10.0" fill="#2f3fbf"/><rect x="215.0" y="141.0" width="6.0" height="10.0" fill="#2f3fbf"/><rect x="17.0" y="151.0" width="6.0" height="10.0" fill="#2f3fbf"/><rect x="29.0" y="151.0" width="6.0" height="10.0" fill="#2f3fbf"/><rect x="41.0" y="151.0" width="6.0" height="10.0" fill="#2f3fbf"/><rect x="47.0" y="151.0" width="6.0" height="10.0" fill="#2f3fbf"/><rect x="65.0" y="151.0" width="6.0" height="10.0" fill="#2f3fbf"/><rect x="53.0" y="181.0" width="6.0" height="10.0" fill="#2f3fbf"/><rect x="35.0" y="181.0" width="6.0" height="10.0" fill="#2f3fbf"/><rect x="29.0" y="181.0" width="6.0" height="10.0" fill="#2f3fbf"/><rect x="23.0" y="181.0" width="6.0" height="10.0" fill="#2f3fbf"/><rect x="17.0" y="181.0" width="6.0" height="10.0" fill="#2f3fbf"/><rect x="77.0" y="151.0" width="6.0" height="10.0" fill="#2f3fbf"/><rect x="83.0" y="151.0" width="6.0" height="10.0" fill="#2f3fbf"/><rect x="101.0" y="151.0" width="6.0" height="10.0" fill="#2f3fbf"/><rect x="113.0" y="151.0" width="6.0" height="10.0" fill="#2f3fbf"/><rect x="131.0" y="151.0" width="6.0" height="10.0" fill="#2f3fbf"/><rect x="131.0" y="181.0" width="6.0" height="10.0" fill="#2f3fbf"/><rect x="125.0" y="181.0" width="6.0" height="10.0" fill="#2f3fbf"/><rect x="89.0" y="181.0" width="6.0" height="10.0" fill="#2f3fbf"/><rect x="77.0" y="181.0" width="6.0" height="10.0" fill="#2f3fbf"/><rect x="77.0" y="171.0" width="6.0" height="10.0" fill="#2f3fbf"/><rect x="77.0" y="161.0" width="6.0" height="10.0" fill="#2f3fbf"/><rect x="137.0" y="151.0" width="6.0" height="10.0" fill="#2f3fbf"/><rect x="155.0" y="151.0" width="6.0" height="10.0" fill="#2f3fbf"/><rect x="167.0" y="151.0" width="6.0" height="10.0" fill="#2f3fbf"/><rect x="173.0" y="151.0" width="6.0" height="10.0" fill="#2f3fbf"/><rect x="179.0" y="151.0" width="6.0" height="10.0" fill="#2f3fbf"/><rect x="185.0" y="181.0" width="6.0" height="10.0" fill="#2f3fbf"/><rect x="167.0" y="181.0" width="6.0" height="10.0" fill="#2f3fbf"/><rect x="155.0" y="181.0" width="6.0" height="10.0" fill="#2f3fbf"/><rect x="143.0" y="181.0" width="6.0" height="10.0" fill="#2f3fbf"/><rect x="137.0" y="171.0" width="6.0" height="10.0" fill="#2f3fbf"/><rect x="221.0" y="151.0" width="6.0" height="10.0" fill="#000000"/><rect x="239.0" y="151.0" width="6.0" height="10.0" fill="#000000"/><rect x="245.0" y="181.0" width="6.0" height="10.0" fill="#000000"/><rect x="233.0" y="181.0" width="6.0" height="10.0" fill="#000000"/><rect x="221.0" y="181.0" width="6.0" height="10.0" fill="#000000"/><rect x="215.0" y="181.0" width="6.0" height="10.0" fill="#000000"/></g><g clip-path="url(#grid-clip-2371623d63e0081d-4x4)" data-channel="ellipse" data-ellipse-anchor-x="77.0" data-ellipse-anchor-y="71.0" data-ellipse-rx="125.31092278708219" data-ellipse-ry="117.5553843518929" data-ellipse-rotation-deg="132.0"><ellipse cx="77.0" cy="71.0" rx="125.31092278708219" ry="117.5553843518929" transform="rotate(132.0 77.0 71.0)" fill="#000000" fill-opacity="0.2"/></g><g><g data-channel="cell" data-cell-index="0" data-cell-row="0" data-cell-col="0"><rect x="23.0" y="41.0" width="48.0" height="20.0" fill="#6c6548"/><text x="47.0" y="51.0" fill="#ffffff" style="font-family: &quot;DejaVu Sans Mono&quot;, &quot;Consolas&quot;, &quot;Menlo&quot;, &quot;Liberation Mono&quot;, monospace; font-size: 16.0px;" text-anchor="middle" dominant-baseline="central">SGVs</text></g><g data-channel="cell" data-cell-index="1" data-cell-row="0" data-cell-col="1"><rect x="83.0" y="41.0" width="48.0" height="20.0" fill="#2c6f6c"/><text x="107.0" y="51.0" fill="#ffffff" style="font-family: &quot;DejaVu Sans Mono&quot;, &quot;Consolas&quot;, &quot;Menlo&quot;, &quot;Liberation Mono&quot;, monospace; font-size: 16.0px;" text-anchor="middle" dominant-baseline="central">bG8s</text></g><g data-channel="cell" data-cell-index="2" data-cell-row="0" data-cell-col="2" data-cell-quartile="2"><rect x="143.0" y="41.0" width="48.0" height="20.0" fill="#687420"/><text x="167.0" y="51.0" fill="#ffffff" style="font-family: &quot;DejaVu Sans Mono&quot;, &quot;Consolas&quot;, &quot;Menlo&quot;, &quot;Liberation Mono&quot;, monospace; font-size: 16.0px;" text-anchor="middle" dominant-baseline="central">IHRo</text><polygon points="191.0,41.0 181.0,41.0 191.0,51.0" fill="#ffffff"/></g><g data-channel="cell" data-cell-index="3" data-cell-row="0" data-cell-col="3"><rect x="203.0" y="41.0" width="48.0" height="20.0" fill="#207369"/><text x="227.0" y="51.0" fill="#ffffff" style="font-family: &quot;DejaVu Sans Mono&quot;, &quot;Consolas&quot;, &quot;Menlo&quot;, &quot;Liberation Mono&quot;, monospace; font-size: 16.0px;" text-anchor="middle" dominant-baseline="central">aXMg</text></g><g data-channel="cell" data-cell-index="4" data-cell-row="1" data-cell-col="0"><rect x="23.0" y="81.0" width="48.0" height="20.0" fill="#207369"/><text x="47.0" y="91.0" fill="#ffffff" style="font-family: &quot;DejaVu Sans Mono&quot;, &quot;Consolas&quot;, &quot;Menlo&quot;, &quot;Liberation Mono&quot;, monospace; font-size: 16.0px;" text-anchor="middle" dominant-baseline="central">aXMg</text></g><g data-channel="cell" data-cell-index="5" data-cell-row="1" data-cell-col="1" data-cell-quartile="4"><rect x="83.0" y="81.0" width="48.0" height="20.0" fill="#742061"/><text x="107.0" y="91.0" fill="#ffffff" style="font-family: &quot;DejaVu Sans Mono&quot;, &quot;Consolas&quot;, &quot;Menlo&quot;, &quot;Liberation Mono&quot;, monospace; font-size: 16.0px;" text-anchor="middle" dominant-baseline="central">YSB0</text><polygon points="83.0,101.0 83.0,91.0 93.0,101.0" fill="#ffffff"/></g><g data-channel="cell" data-cell-index="6" data-cell-row="1" data-cell-col="2"><rect x="143.0" y="81.0" width="48.0" height="20.0" fill="#747365"/><text x="167.0" y="91.0" fill="#ffffff" style="font-family: &quot;DejaVu Sans Mono&quot;, &quot;Consolas&quot;, &quot;Menlo&quot;, &quot;Liberation Mono&quot;, monospace; font-size: 16.0px;" text-anchor="middle" dominant-baseline="central">ZXN0</text></g><g data-channel="cell" data-cell-index="7" data-cell-row="1" data-cell-col="3"><rect x="203.0" y="81.0" width="48.0" height="20.0" fill="#666f20"/><text x="227.0" y="91.0" fill="#ffffff" style="font-family: &quot;DejaVu Sans Mono&quot;, &quot;Consolas&quot;, &quot;Menlo&quot;, &quot;Liberation Mono&quot;, monospace; font-size: 16.0px;" text-anchor="middle" dominant-baseline="central">IG9m</text></g><g data-channel="cell" data-cell-index="8" data-cell-row="2" data-cell-col="0" data-cell-quartile="3"><rect x="23.0" y="121.0" width="48.0" height="20.0" fill="#687420"/><text x="47.0" y="131.0" fill="#ffffff" style="font-family: &quot;DejaVu Sans Mono&quot;, &quot;Consolas&quot;, &quot;Menlo&quot;, &quot;Liberation Mono&quot;, monospace; font-size: 16.0px;" text-anchor="middle" dominant-baseline="central">IHRo</text><polygon points="71.0,141.0 71.0,131.0 61.0,141.0" fill="#ffffff"/></g><g data-channel="cell" data-cell-index="9" data-cell-row="2" data-cell-col="1"><rect x="83.0" y="121.0" width="48.0" height="20.0" fill="#652065"/><text x="107.0" y="131.0" fill="#ffffff" style="font-family: &quot;DejaVu Sans Mono&quot;, &quot;Consolas&quot;, &quot;Menlo&quot;, &quot;Liberation Mono&quot;, monospace; font-size: 16.0px;" text-anchor="middle" dominant-baseline="central">ZSBl</text></g><g data-channel="cell" data-cell-index="10" data-cell-row="2" data-cell-col="2"><rect x="143.0" y="121.0" width="48.0" height="20.0" fill="#76746e"/><text x="167.0" y="131.0" fill="#ffffff" style="font-family: &quot;DejaVu Sans Mono&quot;, &quot;Consolas&quot;, &quot;Menlo&quot;, &quot;Liberation Mono&quot;, monospace; font-size: 16.0px;" text-anchor="middle" dominant-baseline="central">bnR2</text></g><g data-channel="cell" data-cell-index="11" data-cell-row="2" data-cell-col="3"><rect x="203.0" y="121.0" width="48.0" height="20.0" fill="#207a69"/><text x="227.0" y="131.0" fill="#ffffff" style="font-family: &quot;DejaVu Sans Mono&quot;, &quot;Consolas&quot;, &quot;Menlo&quot;, &quot;Liberation Mono&quot;, monospace; font-size: 16.0px;" text-anchor="middle" dominant-baseline="central">aXog</text></g><g data-channel="cell" data-cell-index="12" data-cell-row="3" data-cell-col="0" data-cell-quartile="1"><rect x="23.0" y="161.0" width="48.0" height="20.0" fill="#676c61"/><text x="47.0" y="171.0" fill="#ffffff" style="font-family: &quot;DejaVu Sans Mono&quot;, &quot;Consolas&quot;, &quot;Menlo&quot;, &quot;Liberation Mono&quot;, monospace; font-size: 16.0px;" text-anchor="middle" dominant-baseline="central">YWxn</text><polygon points="23.0,161.0 33.0,161.0 23.0,171.0" fill="#ffffff"/></g><g data-channel="cell" data-cell-index="13" data-cell-row="3" data-cell-col="1"><rect x="83.0" y="161.0" width="48.0" height="20.0" fill="#69726f"/><text x="107.0" y="171.0" fill="#ffffff" style="font-family: &quot;DejaVu Sans Mono&quot;, &quot;Consolas&quot;, &quot;Menlo&quot;, &quot;Liberation Mono&quot;, monospace; font-size: 16.0px;" text-anchor="middle" dominant-baseline="central">b3Jp</text></g><g data-channel="cell" data-cell-index="14" data-cell-row="3" data-cell-col="2"><rect x="143.0" y="161.0" width="48.0" height="20.0" fill="#6d6874"/><text x="167.0" y="171.0" fill="#ffffff" style="font-family: &quot;DejaVu Sans Mono&quot;, &quot;Consolas&quot;, &quot;Menlo&quot;, &quot;Liberation Mono&quot;, monospace; font-size: 16.0px;" text-anchor="middle" dominant-baseline="central">dGht</text></g><g data-channel="cell" data-cell-index="15" data-cell-row="3" data-cell-col="3"><rect x="203.0" y="161.0" width="48.0" height="20.0" fill="#100221"/><text x="227.0" y="171.0" fill="#ffffff" style="font-family: &quot;DejaVu Sans Mono&quot;, &quot;Consolas&quot;, &quot;Menlo&quot;, &quot;Liberation Mono&quot;, monospace; font-size: 16.0px;" text-anchor="middle" dominant-baseline="central">IQ</text></g></g></g><g data-channel="color-bar"><g data-color-bar-rank="0" data-color-bar-band="G"><rect x="1" y="1" width="10.0" height="69.74443882266502" fill="#ffd966"/><text x="6.0" y="35.87221941133251" fill="#000000" style="font-family: &quot;DejaVu Sans Mono&quot;, &quot;Consolas&quot;, &quot;Menlo&quot;, &quot;Liberation Mono&quot;, monospace; font-size: 42px;" text-anchor="middle" dominant-baseline="central" data-color-bar-letter="true">G</text></g><g data-color-bar-rank="1" data-color-bar-band="R"><rect x="1" y="70.74443882266502" width="10.0" height="58.68293681068947" fill="#ff3f2f"/><text x="6.0" y="100.08590722800975" fill="#000000" style="font-family: &quot;DejaVu Sans Mono&quot;, &quot;Consolas&quot;, &quot;Menlo&quot;, &quot;Liberation Mono&quot;, monospace; font-size: 35px;" text-anchor="middle" dominant-baseline="central" data-color-bar-letter="true">R</text></g><g data-color-bar-rank="2" data-color-bar-band="K"><rect x="1" y="129.42737563335447" width="10.0" height="43.235291075011055" fill="#000000"/><text x="6.0" y="151.04502117086" fill="#ffffff" style="font-family: &quot;DejaVu Sans Mono&quot;, &quot;Consolas&quot;, &quot;Menlo&quot;, &quot;Liberation Mono&quot;, monospace; font-size: 26px;" text-anchor="middle" dominant-baseline="central" data-color-bar-letter="true">K</text></g><g data-color-bar-rank="3" data-color-bar-band="B"><rect x="1" y="172.66266670836552" width="10.0" height="23.33733329163448" fill="#2f3fbf"/><text x="6.0" y="184.33133335418276" fill="#ffffff" style="font-family: &quot;DejaVu Sans Mono&quot;, &quot;Consolas&quot;, &quot;Menlo&quot;, &quot;Liberation Mono&quot;, monospace; font-size: 14px;" text-anchor="middle" dominant-baseline="central" data-color-bar-letter="true">B</text></g></g><g data-channel="label-top"><text x="17.0" y="16.0" fill="#666666" style="font-family: &quot;DejaVu Sans Mono&quot;, &quot;Consolas&quot;, &quot;Menlo&quot;, &quot;Liberation Mono&quot;, monospace; font-size: 12.0px;" dominant-baseline="central">b64(62):</text></g><line x1="0" y1="0.5" x2="263.0" y2="0.5" stroke="#808080" stroke-width="1" shape-rendering="crispEdges"/><line x1="262.5" y1="0" x2="262.5" y2="197.0" stroke="#808080" stroke-width="1" shape-rendering="crispEdges"/><line x1="0" y1="196.5" x2="263.0" y2="196.5" stroke="#808080" stroke-width="1" shape-rendering="crispEdges"/><line x1="0.5" y1="0" x2="0.5" y2="197.0" stroke="#808080" stroke-width="1" shape-rendering="crispEdges"/><line x1="11.5" y1="0" x2="11.5" y2="197.0" stroke="#808080" stroke-width="1" shape-rendering="crispEdges"/></svg>