<svg width="213.0" height="152.0" viewBox="0 0 213.0 152.0" xmlns="http://www.w3.org/2000/svg" data-entviz-version="v6" data-entviz-lib="0.6.2" data-input-bytes="57" data-cols="3" data-rows="3"><defs><clipPath id="grid-clip-c59e0b2faa5e80ad-3x3"><rect x="27.0" y="26.0" width="180.0" height="120.0"/></clipPath></defs><rect x="0" y="0" width="213.0" height="152.0" fill="#ffffff"/><g data-channel="grid"><rect x="27.0" y="26.0" width="180.0" height="120.0" fill="#e7be00"/><g><rect x="87.0" y="26.0" width="6.0" height="10.0" fill="#ffffff"/><rect x="93.0" y="26.0" width="6.0" height="10.0" fill="#ffffff"/><rect x="105.0" y="26.0" width="6.0" height="10.0" fill="#ffffff"/><rect x="141.0" y="26.0" width="6.0" height="10.0" fill="#ffffff"/><rect x="141.0" y="36.0" width="6.0" height="10.0" fill="#ffffff"/><rect x="141.0" y="46.0" width="6.0" height="10.0" fill="#ffffff"/><rect x="141.0" y="56.0" width="6.0" height="10.0" fill="#ffffff"/><rect x="123.0" y="56.0" width="6.0" height="10.0" fill="#ffffff"/><rect x="117.0" y="56.0" width="6.0" height="10.0" fill="#ffffff"/><rect x="105.0" y="56.0" width="6.0" height="10.0" fill="#ffffff"/><rect x="87.0" y="46.0" width="6.0" height="10.0" fill="#ffffff"/><rect x="87.0" y="36.0" width="6.0" height="10.0" fill="#ffffff"/><rect x="153.0" y="26.0" width="6.0" height="10.0" fill="#ffffff"/><rect x="159.0" y="26.0" width="6.0" height="10.0" fill="#ffffff"/><rect x="165.0" y="26.0" width="6.0" height="10.0" fill="#ffffff"/><rect x="171.0" y="26.0" width="6.0" height="10.0" fill="#ffffff"/><rect x="183.0" y="26.0" width="6.0" height="10.0" fill="#ffffff"/><rect x="201.0" y="26.0" width="6.0" height="10.0" fill="#ffffff"/><rect x="201.0" y="46.0" width="6.0" height="10.0" fill="#ffffff"/><rect x="195.0" y="56.0" width="6.0" height="10.0" fill="#ffffff"/><rect x="183.0" y="56.0" width="6.0" height="10.0" fill="#ffffff"/><rect x="177.0" y="56.0" width="6.0" height="10.0" fill="#ffffff"/><rect x="171.0" y="56.0" width="6.0" height="10.0" fill="#ffffff"/><rect x="165.0" y="56.0" width="6.0" height="10.0" fill="#ffffff"/><rect x="159.0" y="56.0" width="6.0" height="10.0" fill="#ffffff"/><rect x="147.0" y="56.0" width="6.0" height="10.0" fill="#ffffff"/><rect x="45.0" y="66.0" width="6.0" height="10.0" fill="#2f3fbf"/><rect x="57.0" y="66.0" width="6.0" height="10.0" fill="#2f3fbf"/><rect x="75.0" y="66.0" width="6.0" height="10.0" fill="#2f3fbf"/><rect x="81.0" y="76.0" width="6.0" height="10.0" fill="#2f3fbf"/><rect x="81.0" y="86.0" width="6.0" height="10.0" fill="#2f3fbf"/><rect x="75.0" y="96.0" width="6.0" height="10.0" fill="#2f3fbf"/><rect x="63.0" y="96.0" width="6.0" height="10.0" fill="#2f3fbf"/><rect x="27.0" y="76.0" width="6.0" height="10.0" fill="#2f3fbf"/><rect x="147.0" y="66.0" width="6.0" height="10.0" fill="#ff3f2f"/><rect x="159.0" y="66.0" width="6.0" height="10.0" fill="#ff3f2f"/><rect x="165.0" y="66.0" width="6.0" height="10.0" fill="#ff3f2f"/><rect x="183.0" y="66.0" width="6.0" height="10.0" fill="#ff3f2f"/><rect x="189.0" y="66.0" width="6.0" height="10.0" fill="#ff3f2f"/><rect x="195.0" y="66.0" width="6.0" height="10.0" fill="#ff3f2f"/><rect x="201.0" y="66.0" width="6.0" height="10.0" fill="#ff3f2f"/><rect x="201.0" y="76.0" width="6.0" height="10.0" fill="#ff3f2f"/><rect x="183.0" y="96.0" width="6.0" height="10.0" fill="#ff3f2f"/><rect x="171.0" y="96.0" width="6.0" height="10.0" fill="#ff3f2f"/><rect x="147.0" y="96.0" width="6.0" height="10.0" fill="#ff3f2f"/><rect x="147.0" y="86.0" width="6.0" height="10.0" fill="#ff3f2f"/><rect x="45.0" y="106.0" width="6.0" height="10.0" fill="#ff3f2f"/><rect x="57.0" y="106.0" width="6.0" height="10.0" fill="#ff3f2f"/><rect x="75.0" y="106.0" width="6.0" height="10.0" fill="#ff3f2f"/><rect x="81.0" y="106.0" width="6.0" height="10.0" fill="#ff3f2f"/><rect x="81.0" y="136.0" width="6.0" height="10.0" fill="#ff3f2f"/><rect x="75.0" y="136.0" width="6.0" height="10.0" fill="#ff3f2f"/><rect x="69.0" y="136.0" width="6.0" height="10.0" fill="#ff3f2f"/><rect x="63.0" y="136.0" width="6.0" height="10.0" fill="#ff3f2f"/><rect x="57.0" y="136.0" width="6.0" height="10.0" fill="#ff3f2f"/><rect x="51.0" y="136.0" width="6.0" height="10.0" fill="#ff3f2f"/><rect x="45.0" y="136.0" width="6.0" height="10.0" fill="#ff3f2f"/><rect x="27.0" y="136.0" width="6.0" height="10.0" fill="#ff3f2f"/><rect x="27.0" y="126.0" width="6.0" height="10.0" fill="#ff3f2f"/><rect x="87.0" y="106.0" width="6.0" height="10.0" fill="#ffffff"/><rect x="99.0" y="106.0" width="6.0" height="10.0" fill="#ffffff"/><rect x="105.0" y="106.0" width="6.0" height="10.0" fill="#ffffff"/><rect x="111.0" y="106.0" width="6.0" height="10.0" fill="#ffffff"/><rect x="129.0" y="106.0" width="6.0" height="10.0" fill="#ffffff"/><rect x="141.0" y="116.0" width="6.0" height="10.0" fill="#ffffff"/><rect x="141.0" y="126.0" width="6.0" height="10.0" fill="#ffffff"/><rect x="141.0" y="136.0" width="6.0" height="10.0" fill="#ffffff"/><rect x="129.0" y="136.0" width="6.0" height="10.0" fill="#ffffff"/><rect x="123.0" y="136.0" width="6.0" height="10.0" fill="#ffffff"/><rect x="117.0" y="136.0" width="6.0" height="10.0" fill="#ffffff"/><rect x="111.0" y="136.0" width="6.0" height="10.0" fill="#ffffff"/><rect x="105.0" y="136.0" width="6.0" height="10.0" fill="#ffffff"/><rect x="93.0" y="136.0" width="6.0" height="10.0" fill="#ffffff"/><rect x="87.0" y="126.0" width="6.0" height="10.0" fill="#ffffff"/><rect x="87.0" y="116.0" width="6.0" height="10.0" fill="#ffffff"/><rect x="153.0" y="106.0" width="6.0" height="10.0" fill="#ff3f2f"/><rect x="165.0" y="106.0" width="6.0" height="10.0" fill="#ff3f2f"/><rect x="177.0" y="106.0" width="6.0" height="10.0" fill="#ff3f2f"/><rect x="183.0" y="106.0" width="6.0" height="10.0" fill="#ff3f2f"/><rect x="189.0" y="106.0" width="6.0" height="10.0" fill="#ff3f2f"/><rect x="195.0" y="106.0" width="6.0" height="10.0" fill="#ff3f2f"/><rect x="201.0" y="106.0" width="6.0" height="10.0" fill="#ff3f2f"/><rect x="201.0" y="136.0" width="6.0" height="10.0" fill="#ff3f2f"/><rect x="183.0" y="136.0" width="6.0" height="10.0" fill="#ff3f2f"/><rect x="165.0" y="136.0" width="6.0" height="10.0" fill="#ff3f2f"/><rect x="159.0" y="136.0" width="6.0" height="10.0" fill="#ff3f2f"/><rect x="153.0" y="136.0" width="6.0" height="10.0" fill="#ff3f2f"/><rect x="147.0" y="126.0" width="6.0" height="10.0" fill="#ff3f2f"/><rect x="147.0" y="116.0" width="6.0" height="10.0" fill="#ff3f2f"/></g><g clip-path="url(#grid-clip-c59e0b2faa5e80ad-3x3)" data-channel="ellipse" data-ellipse-anchor-x="147.0" data-ellipse-anchor-y="146.0" data-ellipse-rx="98.4292639411674" data-ellipse-ry="78.06458864299483" data-ellipse-rotation-deg="84.0"><ellipse cx="147.0" cy="146.0" rx="98.4292639411674" ry="78.06458864299483" transform="rotate(84.0 147.0 146.0)" fill="#000000" stroke="#000000" fill-opacity="0.2" stroke-opacity="0.3" stroke-width="2.0"/></g><g><g data-channel="cell" data-cell-index="0" data-cell-row="0" data-cell-col="0" data-cell-blank="true" data-cell-blank-map="true"><rect x="33.0" y="36.0" width="48.0" height="20.0" rx="10.0" ry="10.0" fill="#ffffff" stroke="#000000" stroke-width="1"/><circle cx="73.0" cy="52.66666666666667" r="3.5" fill="#d62828" data-blank-map-max="true"/><circle cx="73.0" cy="39.333333333333336" r="3.5" fill="#1d4ed8" data-blank-map-min="true"/></g><g data-channel="cell" data-cell-index="1" data-cell-row="0" data-cell-col="1" data-cell-quartile="1"><rect x="93.0" y="36.0" width="48.0" height="20.0" fill="#e29de6"/><text x="117.0" y="46.0" fill="#000000" style="font-family: &quot;JetBrains Mono&quot;, &quot;Menlo&quot;, &quot;Consolas&quot;, &quot;DejaVu Sans Mono&quot;, &quot;Liberation Mono&quot;, &quot;Roboto Mono&quot;, &quot;Noto Sans Mono&quot;, monospace; font-size: 12.0px;" text-anchor="middle" dominant-baseline="central">e69de2</text><polygon points="93.0,36.0 103.0,36.0 93.0,46.0" fill="#000000"/></g><g data-channel="cell" data-cell-index="2" data-cell-row="0" data-cell-col="2"><rect x="153.0" y="36.0" width="48.0" height="20.0" fill="#d1b29b"/><text x="177.0" y="46.0" fill="#000000" style="font-family: &quot;JetBrains Mono&quot;, &quot;Menlo&quot;, &quot;Consolas&quot;, &quot;DejaVu Sans Mono&quot;, &quot;Liberation Mono&quot;, &quot;Roboto Mono&quot;, &quot;Noto Sans Mono&quot;, monospace; font-size: 12.0px;" text-anchor="middle" dominant-baseline="central">9bb2d1</text></g><g data-channel="cell" data-cell-index="3" data-cell-row="1" data-cell-col="0" data-cell-quartile="3"><rect x="33.0" y="76.0" width="48.0" height="20.0" fill="#4b43d6"/><text x="57.0" y="86.0" fill="#ffffff" style="font-family: &quot;JetBrains Mono&quot;, &quot;Menlo&quot;, &quot;Consolas&quot;, &quot;DejaVu Sans Mono&quot;, &quot;Liberation Mono&quot;, &quot;Roboto Mono&quot;, &quot;Noto Sans Mono&quot;, monospace; font-size: 12.0px;" text-anchor="middle" dominant-baseline="central">d6434b</text><polygon points="81.0,96.0 81.0,86.0 71.0,96.0" fill="#ffffff"/></g><g data-channel="cell" data-cell-index="4" data-cell-row="1" data-cell-col="1" data-cell-blank="true"><rect x="93.0" y="76.0" width="48.0" height="20.0" rx="10.0" ry="10.0" fill="none" stroke="#000000" stroke-width="1"/></g><g data-channel="cell" data-cell-index="5" data-cell-row="1" data-cell-col="2"><rect x="153.0" y="76.0" width="48.0" height="20.0" fill="#ae298b"/><text x="177.0" y="86.0" fill="#ffffff" style="font-family: &quot;JetBrains Mono&quot;, &quot;Menlo&quot;, &quot;Consolas&quot;, &quot;DejaVu Sans Mono&quot;, &quot;Liberation Mono&quot;, &quot;Roboto Mono&quot;, &quot;Noto Sans Mono&quot;, monospace; font-size: 12.0px;" text-anchor="middle" dominant-baseline="central">8b29ae</text></g><g data-channel="cell" data-cell-index="6" data-cell-row="2" data-cell-col="0"><rect x="33.0" y="116.0" width="48.0" height="20.0" fill="#d85a77"/><text x="57.0" y="126.0" fill="#000000" style="font-family: &quot;JetBrains Mono&quot;, &quot;Menlo&quot;, &quot;Consolas&quot;, &quot;DejaVu Sans Mono&quot;, &quot;Liberation Mono&quot;, &quot;Roboto Mono&quot;, &quot;Noto Sans Mono&quot;, monospace; font-size: 12.0px;" text-anchor="middle" dominant-baseline="central">775ad8</text></g><g data-channel="cell" data-cell-index="7" data-cell-row="2" data-cell-col="1" data-cell-quartile="2"><rect x="93.0" y="116.0" width="48.0" height="20.0" fill="#8ce4c2"/><text x="117.0" y="126.0" fill="#000000" style="font-family: &quot;JetBrains Mono&quot;, &quot;Menlo&quot;, &quot;Consolas&quot;, &quot;DejaVu Sans Mono&quot;, &quot;Liberation Mono&quot;, &quot;Roboto Mono&quot;, &quot;Noto Sans Mono&quot;, monospace; font-size: 12.0px;" text-anchor="middle" dominant-baseline="central">c2e48c</text><polygon points="141.0,116.0 131.0,116.0 141.0,126.0" fill="#000000"/></g><g data-channel="cell" data-cell-index="8" data-cell-row="2" data-cell-col="2" data-cell-quartile="4"><rect x="153.0" y="116.0" width="48.0" height="20.0" fill="#919153"/><text x="177.0" y="126.0" fill="#000000" style="font-family: &quot;JetBrains Mono&quot;, &quot;Menlo&quot;, &quot;Consolas&quot;, &quot;DejaVu Sans Mono&quot;, &quot;Liberation Mono&quot;, &quot;Roboto Mono&quot;, &quot;Noto Sans Mono&quot;, monospace; font-size: 12.0px;" text-anchor="middle" dominant-baseline="central">5391</text><polygon points="153.0,136.0 153.0,126.0 163.0,136.0" fill="#000000"/></g></g></g><g data-channel="color-bar"><g data-color-bar-rank="0" data-color-bar-band="K"><rect x="1" y="1" width="20.0" height="60.111621926316296" fill="#000000"/><text x="11.0" y="58.471621926316296" fill="#ffffff" style="font-family: &quot;JetBrains Mono&quot;, &quot;Menlo&quot;, &quot;Consolas&quot;, &quot;DejaVu Sans Mono&quot;, &quot;Liberation Mono&quot;, &quot;Roboto Mono&quot;, &quot;Noto Sans Mono&quot;, monospace; font-size: 12.0px;" text-anchor="middle" data-color-bar-letter="true">k</text></g><g data-color-bar-rank="1" data-color-bar-band="B"><rect x="1" y="61.111621926316296" width="20.0" height="50.94070629418161" fill="#2f3fbf"/><text x="11.0" y="109.41232822049791" fill="#ffffff" style="font-family: &quot;JetBrains Mono&quot;, &quot;Menlo&quot;, &quot;Consolas&quot;, &quot;DejaVu Sans Mono&quot;, &quot;Liberation Mono&quot;, &quot;Roboto Mono&quot;, &quot;Noto Sans Mono&quot;, monospace; font-size: 12.0px;" text-anchor="middle" data-color-bar-letter="true">b</text></g><g data-color-bar-rank="2" data-color-bar-band="R"><rect x="1" y="112.05232822049791" width="20.0" height="24.29067670736032" fill="#ff3f2f"/><text x="11.0" y="133.70300492785825" fill="#000000" style="font-family: &quot;JetBrains Mono&quot;, &quot;Menlo&quot;, &quot;Consolas&quot;, &quot;DejaVu Sans Mono&quot;, &quot;Liberation Mono&quot;, &quot;Roboto Mono&quot;, &quot;Noto Sans Mono&quot;, monospace; font-size: 12.0px;" text-anchor="middle" data-color-bar-letter="true">r</text></g><g data-color-bar-rank="3" data-color-bar-band="W"><rect x="1" y="136.34300492785823" width="20.0" height="14.656995072141768" fill="#ffffff"/><text x="11.0" y="148.36" fill="#000000" style="font-family: &quot;JetBrains Mono&quot;, &quot;Menlo&quot;, &quot;Consolas&quot;, &quot;DejaVu Sans Mono&quot;, &quot;Liberation Mono&quot;, &quot;Roboto Mono&quot;, &quot;Noto Sans Mono&quot;, monospace; font-size: 12.0px;" text-anchor="middle" data-color-bar-letter="true">w</text></g></g><g data-channel="label-top"><text x="27.0" y="16.0" fill="#666666" style="font-family: &quot;JetBrains Mono&quot;, &quot;Menlo&quot;, &quot;Consolas&quot;, &quot;DejaVu Sans Mono&quot;, &quot;Liberation Mono&quot;, &quot;Roboto Mono&quot;, &quot;Noto Sans Mono&quot;, monospace; font-size: 12.0px;" dominant-baseline="central">gitoid:blob:sha1:...</text></g><line x1="0" y1="0.5" x2="213.0" y2="0.5" stroke="#808080" stroke-width="1" shape-rendering="crispEdges"/><line x1="212.5" y1="0" x2="212.5" y2="152.0" stroke="#808080" stroke-width="1" shape-rendering="crispEdges"/><line x1="0" y1="151.5" x2="213.0" y2="151.5" stroke="#808080" stroke-width="1" shape-rendering="crispEdges"/><line x1="0.5" y1="0" x2="0.5" y2="152.0" stroke="#808080" stroke-width="1" shape-rendering="crispEdges"/><line x1="21.5" y1="0" x2="21.5" y2="152.0" stroke="#808080" stroke-width="1" shape-rendering="crispEdges"/></svg>