<svg width="215" height="154" viewBox="0 0 215 154" xmlns="http://www.w3.org/2000/svg" font-family="&quot;JetBrains Mono&quot;, &quot;Menlo&quot;, &quot;Consolas&quot;, &quot;DejaVu Sans Mono&quot;, &quot;Liberation Mono&quot;, &quot;Roboto Mono&quot;, &quot;Noto Sans Mono&quot;, monospace" data-entviz-version="v15" data-entviz-lib="0.15.0" data-input-bytes="57" data-cols="3" data-rows="3" data-encoding="hex" data-scheme="gitoid" data-role="digest" data-size-basis="decoded" data-entropy-type="gitoid" data-size-bits="160" data-qualifiers="{&quot;object&quot;:&quot;blob&quot;,&quot;algorithm&quot;:&quot;sha1&quot;}" data-parts="[{&quot;text&quot;:&quot;gitoid:blob:sha1:&quot;,&quot;bind&quot;:&quot;fold&quot;},{&quot;text&quot;:&quot;e69de29bb2d1d6434b8b29ae775ad8c2e48c5391&quot;,&quot;bind&quot;:&quot;core&quot;}]"><defs><clipPath id="grid-clip-cdfa69b2105d2251-3x3"><rect x="28" y="27" width="180" height="120"/></clipPath></defs><rect x="1" y="1" width="213" height="152" fill="#ffffff"/><g data-channel="grid"><rect x="28" y="27" width="180" height="120" fill="#ff3f2f"/><g><path fill="#ffffff" d="M88 27h6v10h-6zM106 27h6v10h-6zM118 27h6v10h-6zM124 27h6v10h-6zM142 27h6v10h-6zM142 47h6v10h-6zM142 57h6v10h-6zM136 57h6v10h-6zM130 57h6v10h-6zM124 57h6v10h-6zM118 57h6v10h-6zM106 57h6v10h-6zM100 57h6v10h-6zM88 47h6v10h-6zM88 37h6v10h-6z"/><path fill="#ffffff" d="M148 27h6v10h-6zM160 27h6v10h-6zM166 27h6v10h-6zM172 27h6v10h-6zM184 27h6v10h-6zM202 57h6v10h-6zM172 57h6v10h-6zM154 57h6v10h-6zM148 57h6v10h-6zM148 37h6v10h-6z"/><path fill="#2f3fbf" d="M94 67h6v10h-6zM136 67h6v10h-6zM142 97h6v10h-6zM130 97h6v10h-6zM112 97h6v10h-6zM88 97h6v10h-6z"/><path fill="#000000" d="M148 67h6v10h-6zM154 67h6v10h-6zM166 67h6v10h-6zM172 67h6v10h-6zM190 67h6v10h-6zM202 67h6v10h-6zM202 87h6v10h-6zM202 97h6v10h-6zM190 97h6v10h-6zM166 97h6v10h-6zM148 97h6v10h-6zM148 77h6v10h-6z"/><path fill="#2f3fbf" d="M34 107h6v10h-6zM52 107h6v10h-6zM58 107h6v10h-6zM64 107h6v10h-6zM70 107h6v10h-6zM82 107h6v10h-6zM82 117h6v10h-6zM70 137h6v10h-6zM64 137h6v10h-6zM58 137h6v10h-6zM46 137h6v10h-6zM34 137h6v10h-6zM28 137h6v10h-6zM28 127h6v10h-6zM28 117h6v10h-6z"/><path fill="#ffffff" d="M100 107h6v10h-6zM106 107h6v10h-6zM112 107h6v10h-6zM130 107h6v10h-6zM142 107h6v10h-6zM142 117h6v10h-6zM142 137h6v10h-6zM130 137h6v10h-6zM106 137h6v10h-6zM88 137h6v10h-6zM88 127h6v10h-6zM88 117h6v10h-6z"/><path fill="#000000" d="M148 107h6v10h-6zM154 107h6v10h-6zM166 107h6v10h-6zM172 107h6v10h-6zM178 107h6v10h-6zM196 107h6v10h-6zM202 117h6v10h-6zM202 137h6v10h-6zM196 137h6v10h-6zM178 137h6v10h-6zM172 137h6v10h-6zM166 137h6v10h-6zM154 137h6v10h-6zM148 127h6v10h-6zM148 117h6v10h-6z"/></g><g clip-path="url(#grid-clip-cdfa69b2105d2251-3x3)" data-channel="ellipse" data-ellipse-anchor-x="88" data-ellipse-anchor-y="147" data-ellipse-rx="65.846" data-ellipse-ry="69.919" data-ellipse-rotation-deg="108"><ellipse cx="88" cy="147" rx="65.846" ry="69.919" transform="rotate(108 88 147)" fill="#000000" stroke="#000000" fill-opacity="0.25" stroke-opacity="0.35" stroke-width="2"/></g><g><g data-channel="cell" data-cell-index="0" data-cell-row="0" data-cell-col="0" data-cell-blank="true" data-cell-blank-map="true"><rect x="34" y="37" width="48" height="20" rx="10" ry="10" fill="#ffffff" stroke="#000000" stroke-width="1"/><circle cx="58" cy="47" r="3.5" fill="#1d4ed8" data-blank-map-min="1,1"/><path d="M 37.8,53.667 H 46.2 M 42,49.467 V 57.867" fill="none" stroke="#d62828" stroke-width="1.925" stroke-linecap="butt" data-blank-map-max="2,0"/></g><g data-channel="cell" data-cell-index="1" data-cell-row="0" data-cell-col="1" data-surround-bits="0xcdfa69" data-edge-color="#ffffff"><rect x="94" y="37" width="48" height="20" fill="#e29de6"/><text x="118" y="47" fill="#000000" font-size="12" text-anchor="middle" dominant-baseline="central">e69de2</text></g><g data-channel="cell" data-cell-index="2" data-cell-row="0" data-cell-col="2" data-surround-bits="0xb2105d" data-edge-color="#ffffff" data-cell-quartile="3"><rect x="154" y="37" width="48" height="20" fill="#d1b29b"/><text x="178" y="47" fill="#000000" font-size="12" text-anchor="middle" dominant-baseline="central">9bb2d1</text><polygon points="202,57 202,47 192,57" fill="#000000"/></g><g data-channel="cell" data-cell-index="3" data-cell-row="1" data-cell-col="0" data-cell-blank="true"><rect x="34" y="77" width="48" height="20" rx="10" ry="10" fill="#ffffff" stroke="#000000" stroke-width="1"/></g><g data-channel="cell" data-cell-index="4" data-cell-row="1" data-cell-col="1" data-surround-bits="0x225102" data-edge-color="#2f3fbf"><rect x="94" y="77" width="48" height="20" fill="#4b43d6"/><text x="118" y="87" fill="#ffffff" font-size="12" text-anchor="middle" dominant-baseline="central">d6434b</text></g><g data-channel="cell" data-cell-index="5" data-cell-row="1" data-cell-col="2" data-surround-bits="0xa45a9b" data-edge-color="#000000" data-cell-quartile="2"><rect x="154" y="77" width="48" height="20" fill="#ae298b"/><text x="178" y="87" fill="#ffffff" font-size="12" text-anchor="middle" dominant-baseline="central">8b29ae</text><polygon points="202,77 192,77 202,87" fill="#ffffff"/></g><g data-channel="cell" data-cell-index="6" data-cell-row="2" data-cell-col="0" data-surround-bits="0xf5c6f2" data-edge-color="#2f3fbf" data-cell-quartile="4"><rect x="34" y="117" width="48" height="20" fill="#d85a77"/><text x="58" y="127" fill="#000000" font-size="12" text-anchor="middle" dominant-baseline="central">775ad8</text><polygon points="34,137 34,127 44,137" fill="#000000"/></g><g data-channel="cell" data-cell-index="7" data-cell-row="2" data-cell-col="1" data-surround-bits="0xe4569c" data-edge-color="#ffffff"><rect x="94" y="117" width="48" height="20" fill="#8ce4c2"/><text x="118" y="127" fill="#000000" font-size="12" text-anchor="middle" dominant-baseline="central">c2e48c</text></g><g data-channel="cell" data-cell-index="8" data-cell-row="2" data-cell-col="2" data-surround-bits="0xd7353b" data-edge-color="#000000" data-cell-quartile="1"><rect x="154" y="117" width="48" height="20" fill="#919153"/><text x="178" y="127" fill="#000000" font-size="12" text-anchor="middle" dominant-baseline="central">5391</text><polygon points="154,117 164,117 154,127" fill="#000000"/></g></g></g><g data-channel="color-bar" data-bar-slots="12" data-bar-marker-left="8" data-bar-marker-right="6"><g data-color-bar-rank="0" data-color-bar-band="G"><rect x="2" y="2" width="20" height="51.308" fill="#e7be00"/><text x="12" y="50.668" fill="#000000" font-size="12" text-anchor="middle" data-color-bar-letter="true">g</text></g><g data-color-bar-rank="1" data-color-bar-band="K"><rect x="2" y="53.308" width="20" height="22.558" fill="#000000"/><text x="12" y="73.226" fill="#ffffff" font-size="12" text-anchor="middle" data-color-bar-letter="true">k</text></g><g data-color-bar-rank="2" data-color-bar-band="W"><rect x="2" y="75.866" width="20" height="27.695" fill="#ffffff"/><text x="12" y="100.921" fill="#000000" font-size="12" text-anchor="middle" data-color-bar-letter="true">w</text></g><g data-color-bar-rank="3" data-color-bar-band="B"><rect x="2" y="103.561" width="20" height="48.439" fill="#2f3fbf"/><text x="12" y="149.36" fill="#ffffff" font-size="12" text-anchor="middle" data-color-bar-letter="true">b</text></g><circle cx="6.6" cy="108.25" r="3.4" fill="#ffffff" stroke="#000000" stroke-width="0.75" data-bar-marker="left"/><circle cx="17.4" cy="83.25" r="3.4" fill="#ffffff" stroke="#000000" stroke-width="0.75" data-bar-marker="right"/></g><g data-channel="label-top"><text x="28" y="17" fill="#666666" font-size="12" dominant-baseline="central">gitoid:blob:sha1</text></g><line x1="1" y1="1.5" x2="214" y2="1.5" stroke="#808080" stroke-width="1" shape-rendering="crispEdges"/><line x1="213.5" y1="1" x2="213.5" y2="153" stroke="#808080" stroke-width="1" shape-rendering="crispEdges"/><line x1="1" y1="152.5" x2="214" y2="152.5" stroke="#808080" stroke-width="1" shape-rendering="crispEdges"/><line x1="1.5" y1="1" x2="1.5" y2="153" stroke="#808080" stroke-width="1" shape-rendering="crispEdges"/><line x1="22.5" y1="1" x2="22.5" y2="153" stroke="#808080" stroke-width="1" shape-rendering="crispEdges"/></svg>