<svg width="213.0" height="152.0" viewBox="0 0 213.0 152.0" xmlns="http://www.w3.org/2000/svg" data-entviz-version="v9" data-entviz-lib="0.9.2" data-input-bytes="57" data-cols="3" data-rows="3"><defs><clipPath id="grid-clip-cdfa69b2105d2251-3x3"><rect x="27.0" y="26.0" width="180.0" height="120.0"/></clipPath></defs><rect x="0" y="0" width="213.0" height="152.0" fill="#ffffff"/><g data-channel="grid"><rect x="27.0" y="26.0" width="180.0" height="120.0" fill="#ff3f2f"/><g><rect x="87.0" y="26.0" width="6.0" height="10.0" fill="#ffffff"/><rect x="105.0" y="26.0" width="6.0" height="10.0" fill="#ffffff"/><rect x="117.0" y="26.0" width="6.0" height="10.0" fill="#ffffff"/><rect x="123.0" y="26.0" width="6.0" height="10.0" fill="#ffffff"/><rect x="141.0" y="26.0" width="6.0" height="10.0" fill="#ffffff"/><rect x="141.0" y="46.0" width="6.0" height="10.0" fill="#ffffff"/><rect x="141.0" y="56.0" width="6.0" height="10.0" fill="#ffffff"/><rect x="135.0" y="56.0" width="6.0" height="10.0" fill="#ffffff"/><rect x="129.0" y="56.0" width="6.0" height="10.0" fill="#ffffff"/><rect x="123.0" y="56.0" width="6.0" height="10.0" fill="#ffffff"/><rect x="117.0" y="56.0" width="6.0" height="10.0" fill="#ffffff"/><rect x="105.0" y="56.0" width="6.0" height="10.0" fill="#ffffff"/><rect x="99.0" y="56.0" width="6.0" height="10.0" fill="#ffffff"/><rect x="87.0" y="46.0" width="6.0" height="10.0" fill="#ffffff"/><rect x="87.0" y="36.0" width="6.0" height="10.0" fill="#ffffff"/><rect x="147.0" y="26.0" width="6.0" height="10.0" fill="#ffffff"/><rect x="159.0" y="26.0" width="6.0" height="10.0" fill="#ffffff"/><rect x="165.0" y="26.0" width="6.0" height="10.0" fill="#ffffff"/><rect x="171.0" y="26.0" width="6.0" height="10.0" fill="#ffffff"/><rect x="183.0" y="26.0" width="6.0" height="10.0" fill="#ffffff"/><rect x="201.0" y="56.0" width="6.0" height="10.0" fill="#ffffff"/><rect x="171.0" y="56.0" width="6.0" height="10.0" fill="#ffffff"/><rect x="153.0" y="56.0" width="6.0" height="10.0" fill="#ffffff"/><rect x="147.0" y="56.0" width="6.0" height="10.0" fill="#ffffff"/><rect x="147.0" y="36.0" width="6.0" height="10.0" fill="#ffffff"/><rect x="93.0" y="66.0" width="6.0" height="10.0" fill="#2f3fbf"/><rect x="135.0" y="66.0" width="6.0" height="10.0" fill="#2f3fbf"/><rect x="141.0" y="96.0" width="6.0" height="10.0" fill="#2f3fbf"/><rect x="129.0" y="96.0" width="6.0" height="10.0" fill="#2f3fbf"/><rect x="111.0" y="96.0" width="6.0" height="10.0" fill="#2f3fbf"/><rect x="87.0" y="96.0" width="6.0" height="10.0" fill="#2f3fbf"/><rect x="147.0" y="66.0" width="6.0" height="10.0" fill="#2f3fbf"/><rect x="153.0" y="66.0" width="6.0" height="10.0" fill="#2f3fbf"/><rect x="165.0" y="66.0" width="6.0" height="10.0" fill="#2f3fbf"/><rect x="171.0" y="66.0" width="6.0" height="10.0" fill="#2f3fbf"/><rect x="189.0" y="66.0" width="6.0" height="10.0" fill="#2f3fbf"/><rect x="201.0" y="66.0" width="6.0" height="10.0" fill="#2f3fbf"/><rect x="201.0" y="86.0" width="6.0" height="10.0" fill="#2f3fbf"/><rect x="201.0" y="96.0" width="6.0" height="10.0" fill="#2f3fbf"/><rect x="189.0" y="96.0" width="6.0" height="10.0" fill="#2f3fbf"/><rect x="165.0" y="96.0" width="6.0" height="10.0" fill="#2f3fbf"/><rect x="147.0" y="96.0" width="6.0" height="10.0" fill="#2f3fbf"/><rect x="147.0" y="76.0" width="6.0" height="10.0" fill="#2f3fbf"/><rect x="33.0" y="106.0" width="6.0" height="10.0" fill="#2f3fbf"/><rect x="51.0" y="106.0" width="6.0" height="10.0" fill="#2f3fbf"/><rect x="57.0" y="106.0" width="6.0" height="10.0" fill="#2f3fbf"/><rect x="63.0" y="106.0" width="6.0" height="10.0" fill="#2f3fbf"/><rect x="69.0" y="106.0" width="6.0" height="10.0" fill="#2f3fbf"/><rect x="81.0" y="106.0" width="6.0" height="10.0" fill="#2f3fbf"/><rect x="81.0" y="116.0" width="6.0" height="10.0" fill="#2f3fbf"/><rect x="69.0" y="136.0" width="6.0" height="10.0" fill="#2f3fbf"/><rect x="63.0" y="136.0" width="6.0" height="10.0" fill="#2f3fbf"/><rect x="57.0" y="136.0" width="6.0" height="10.0" fill="#2f3fbf"/><rect x="45.0" y="136.0" width="6.0" height="10.0" fill="#2f3fbf"/><rect x="33.0" y="136.0" width="6.0" height="10.0" fill="#2f3fbf"/><rect x="27.0" y="136.0" width="6.0" height="10.0" fill="#2f3fbf"/><rect x="27.0" y="126.0" width="6.0" height="10.0" fill="#2f3fbf"/><rect x="27.0" y="116.0" width="6.0" height="10.0" fill="#2f3fbf"/><rect x="99.0" y="106.0" width="6.0" height="10.0" fill="#ffffff"/><rect x="105.0" y="106.0" width="6.0" height="10.0" fill="#ffffff"/><rect x="111.0" y="106.0" width="6.0" height="10.0" fill="#ffffff"/><rect x="129.0" y="106.0" width="6.0" height="10.0" fill="#ffffff"/><rect x="141.0" y="106.0" width="6.0" height="10.0" fill="#ffffff"/><rect x="141.0" y="116.0" width="6.0" height="10.0" fill="#ffffff"/><rect x="141.0" y="136.0" width="6.0" height="10.0" fill="#ffffff"/><rect x="129.0" y="136.0" width="6.0" height="10.0" fill="#ffffff"/><rect x="105.0" y="136.0" width="6.0" height="10.0" fill="#ffffff"/><rect x="87.0" y="136.0" width="6.0" height="10.0" fill="#ffffff"/><rect x="87.0" y="126.0" width="6.0" height="10.0" fill="#ffffff"/><rect x="87.0" y="116.0" width="6.0" height="10.0" fill="#ffffff"/><rect x="147.0" y="106.0" width="6.0" height="10.0" fill="#e7be00"/><rect x="153.0" y="106.0" width="6.0" height="10.0" fill="#e7be00"/><rect x="165.0" y="106.0" width="6.0" height="10.0" fill="#e7be00"/><rect x="171.0" y="106.0" width="6.0" height="10.0" fill="#e7be00"/><rect x="177.0" y="106.0" width="6.0" height="10.0" fill="#e7be00"/><rect x="195.0" y="106.0" width="6.0" height="10.0" fill="#e7be00"/><rect x="201.0" y="116.0" width="6.0" height="10.0" fill="#e7be00"/><rect x="201.0" y="136.0" width="6.0" height="10.0" fill="#e7be00"/><rect x="195.0" y="136.0" width="6.0" height="10.0" fill="#e7be00"/><rect x="177.0" y="136.0" width="6.0" height="10.0" fill="#e7be00"/><rect x="171.0" y="136.0" width="6.0" height="10.0" fill="#e7be00"/><rect x="165.0" y="136.0" width="6.0" height="10.0" fill="#e7be00"/><rect x="153.0" y="136.0" width="6.0" height="10.0" fill="#e7be00"/><rect x="147.0" y="126.0" width="6.0" height="10.0" fill="#e7be00"/><rect x="147.0" y="116.0" width="6.0" height="10.0" fill="#e7be00"/></g><g clip-path="url(#grid-clip-cdfa69b2105d2251-3x3)" data-channel="ellipse" data-ellipse-anchor-x="87.0" data-ellipse-anchor-y="146.0" data-ellipse-rx="65.84578346409131" data-ellipse-ry="69.91871852372581" data-ellipse-rotation-deg="108.0"><ellipse cx="87.0" cy="146.0" rx="65.84578346409131" ry="69.91871852372581" transform="rotate(108.0 87.0 146.0)" fill="#000000" stroke="#000000" fill-opacity="0.25" stroke-opacity="0.35" stroke-width="2.0"/></g><g><g data-channel="cell" data-cell-index="0" data-cell-row="0" data-cell-col="0" data-cell-blank="true" data-cell-blank-map="true"><rect x="33.0" y="36.0" width="48.0" height="20.0" rx="10.0" ry="10.0" fill="#ffffff" stroke="#000000" stroke-width="1"/><circle cx="57.0" cy="46.0" r="3.5" fill="#1d4ed8" data-blank-map-min="1,1"/><path d="M 36.8,52.66666666666667 H 45.2 M 41.0,48.46666666666667 V 56.866666666666674" fill="none" stroke="#d62828" stroke-width="1.9250000000000003" stroke-linecap="butt" data-blank-map-max="2,0"/></g><g data-channel="cell" data-cell-index="1" data-cell-row="0" data-cell-col="1"><rect x="93.0" y="36.0" width="48.0" height="20.0" fill="#e29de6"/><text x="117.0" y="46.0" fill="#000000" style="font-family: &quot;JetBrains Mono&quot;, &quot;Menlo&quot;, &quot;Consolas&quot;, &quot;DejaVu Sans Mono&quot;, &quot;Liberation Mono&quot;, &quot;Roboto Mono&quot;, &quot;Noto Sans Mono&quot;, monospace; font-size: 12.0px;" text-anchor="middle" dominant-baseline="central">e69de2</text></g><g data-channel="cell" data-cell-index="2" data-cell-row="0" data-cell-col="2" data-cell-quartile="3"><rect x="153.0" y="36.0" width="48.0" height="20.0" fill="#d1b29b"/><text x="177.0" y="46.0" fill="#000000" style="font-family: &quot;JetBrains Mono&quot;, &quot;Menlo&quot;, &quot;Consolas&quot;, &quot;DejaVu Sans Mono&quot;, &quot;Liberation Mono&quot;, &quot;Roboto Mono&quot;, &quot;Noto Sans Mono&quot;, monospace; font-size: 12.0px;" text-anchor="middle" dominant-baseline="central">9bb2d1</text><polygon points="201.0,56.0 201.0,46.0 191.0,56.0" fill="#000000"/></g><g data-channel="cell" data-cell-index="3" data-cell-row="1" data-cell-col="0" data-cell-blank="true"><rect x="33.0" y="76.0" width="48.0" height="20.0" rx="10.0" ry="10.0" fill="none" stroke="#000000" stroke-width="1"/></g><g data-channel="cell" data-cell-index="4" data-cell-row="1" data-cell-col="1"><rect x="93.0" y="76.0" width="48.0" height="20.0" fill="#4b43d6"/><text x="117.0" y="86.0" fill="#ffffff" style="font-family: &quot;JetBrains Mono&quot;, &quot;Menlo&quot;, &quot;Consolas&quot;, &quot;DejaVu Sans Mono&quot;, &quot;Liberation Mono&quot;, &quot;Roboto Mono&quot;, &quot;Noto Sans Mono&quot;, monospace; font-size: 12.0px;" text-anchor="middle" dominant-baseline="central">d6434b</text></g><g data-channel="cell" data-cell-index="5" data-cell-row="1" data-cell-col="2" data-cell-quartile="2"><rect x="153.0" y="76.0" width="48.0" height="20.0" fill="#ae298b"/><text x="177.0" y="86.0" fill="#ffffff" style="font-family: &quot;JetBrains Mono&quot;, &quot;Menlo&quot;, &quot;Consolas&quot;, &quot;DejaVu Sans Mono&quot;, &quot;Liberation Mono&quot;, &quot;Roboto Mono&quot;, &quot;Noto Sans Mono&quot;, monospace; font-size: 12.0px;" text-anchor="middle" dominant-baseline="central">8b29ae</text><polygon points="201.0,76.0 191.0,76.0 201.0,86.0" fill="#ffffff"/></g><g data-channel="cell" data-cell-index="6" data-cell-row="2" data-cell-col="0" data-cell-quartile="4"><rect x="33.0" y="116.0" width="48.0" height="20.0" fill="#d85a77"/><text x="57.0" y="126.0" fill="#000000" style="font-family: &quot;JetBrains Mono&quot;, &quot;Menlo&quot;, &quot;Consolas&quot;, &quot;DejaVu Sans Mono&quot;, &quot;Liberation Mono&quot;, &quot;Roboto Mono&quot;, &quot;Noto Sans Mono&quot;, monospace; font-size: 12.0px;" text-anchor="middle" dominant-baseline="central">775ad8</text><polygon points="33.0,136.0 33.0,126.0 43.0,136.0" fill="#000000"/></g><g data-channel="cell" data-cell-index="7" data-cell-row="2" data-cell-col="1"><rect x="93.0" y="116.0" width="48.0" height="20.0" fill="#8ce4c2"/><text x="117.0" y="126.0" fill="#000000" style="font-family: &quot;JetBrains Mono&quot;, &quot;Menlo&quot;, &quot;Consolas&quot;, &quot;DejaVu Sans Mono&quot;, &quot;Liberation Mono&quot;, &quot;Roboto Mono&quot;, &quot;Noto Sans Mono&quot;, monospace; font-size: 12.0px;" text-anchor="middle" dominant-baseline="central">c2e48c</text></g><g data-channel="cell" data-cell-index="8" data-cell-row="2" data-cell-col="2" data-cell-quartile="1"><rect x="153.0" y="116.0" width="48.0" height="20.0" fill="#919153"/><text x="177.0" y="126.0" fill="#000000" style="font-family: &quot;JetBrains Mono&quot;, &quot;Menlo&quot;, &quot;Consolas&quot;, &quot;DejaVu Sans Mono&quot;, &quot;Liberation Mono&quot;, &quot;Roboto Mono&quot;, &quot;Noto Sans Mono&quot;, monospace; font-size: 12.0px;" text-anchor="middle" dominant-baseline="central">5391</text><polygon points="153.0,116.0 163.0,116.0 153.0,126.0" fill="#000000"/></g></g></g><g data-channel="color-bar" data-bar-slots="12" data-bar-marker-left="8" data-bar-marker-right="6"><g data-color-bar-rank="0" data-color-bar-band="G"><rect x="1" y="1" width="20.0" height="51.30844586168998" fill="#e7be00"/><text x="11.0" y="49.66844586168998" fill="#000000" style="font-family: &quot;JetBrains Mono&quot;, &quot;Menlo&quot;, &quot;Consolas&quot;, &quot;DejaVu Sans Mono&quot;, &quot;Liberation Mono&quot;, &quot;Roboto Mono&quot;, &quot;Noto Sans Mono&quot;, monospace; font-size: 12.0px;" text-anchor="middle" data-color-bar-letter="true">g</text></g><g data-color-bar-rank="1" data-color-bar-band="K"><rect x="1" y="52.30844586168998" width="20.0" height="22.557767839418798" fill="#000000"/><text x="11.0" y="72.22621370110878" fill="#ffffff" style="font-family: &quot;JetBrains Mono&quot;, &quot;Menlo&quot;, &quot;Consolas&quot;, &quot;DejaVu Sans Mono&quot;, &quot;Liberation Mono&quot;, &quot;Roboto Mono&quot;, &quot;Noto Sans Mono&quot;, monospace; font-size: 12.0px;" text-anchor="middle" data-color-bar-letter="true">k</text></g><g data-color-bar-rank="2" data-color-bar-band="W"><rect x="1" y="74.86621370110878" width="20.0" height="27.69502117315711" fill="#ffffff"/><text x="11.0" y="99.92123487426589" fill="#000000" style="font-family: &quot;JetBrains Mono&quot;, &quot;Menlo&quot;, &quot;Consolas&quot;, &quot;DejaVu Sans Mono&quot;, &quot;Liberation Mono&quot;, &quot;Roboto Mono&quot;, &quot;Noto Sans Mono&quot;, monospace; font-size: 12.0px;" text-anchor="middle" data-color-bar-letter="true">w</text></g><g data-color-bar-rank="3" data-color-bar-band="B"><rect x="1" y="102.56123487426589" width="20.0" height="48.43876512573411" fill="#2f3fbf"/><text x="11.0" y="148.36" fill="#ffffff" style="font-family: &quot;JetBrains Mono&quot;, &quot;Menlo&quot;, &quot;Consolas&quot;, &quot;DejaVu Sans Mono&quot;, &quot;Liberation Mono&quot;, &quot;Roboto Mono&quot;, &quot;Noto Sans Mono&quot;, monospace; font-size: 12.0px;" text-anchor="middle" data-color-bar-letter="true">b</text></g><circle cx="5.6000000000000005" cy="107.25" r="3.4000000000000004" fill="#ffffff" stroke="#000000" stroke-width="0.75" data-bar-marker="left"/><circle cx="16.4" cy="82.25" r="3.4000000000000004" fill="#ffffff" stroke="#000000" stroke-width="0.75" data-bar-marker="right"/></g><g data-channel="label-top"><text x="27.0" y="16.0" fill="#666666" style="font-family: &quot;JetBrains Mono&quot;, &quot;Menlo&quot;, &quot;Consolas&quot;, &quot;DejaVu Sans Mono&quot;, &quot;Liberation Mono&quot;, &quot;Roboto Mono&quot;, &quot;Noto Sans Mono&quot;, monospace; font-size: 12.0px;" dominant-baseline="central">gitoid:blob:sha1:...</text></g><line x1="0" y1="0.5" x2="213.0" y2="0.5" stroke="#808080" stroke-width="1" shape-rendering="crispEdges"/><line x1="212.5" y1="0" x2="212.5" y2="152.0" stroke="#808080" stroke-width="1" shape-rendering="crispEdges"/><line x1="0" y1="151.5" x2="213.0" y2="151.5" stroke="#808080" stroke-width="1" shape-rendering="crispEdges"/><line x1="0.5" y1="0" x2="0.5" y2="152.0" stroke="#808080" stroke-width="1" shape-rendering="crispEdges"/><line x1="21.5" y1="0" x2="21.5" y2="152.0" stroke="#808080" stroke-width="1" shape-rendering="crispEdges"/></svg>