<svg width="213" height="152" viewBox="0 0 213 152" xmlns="http://www.w3.org/2000/svg" data-entviz-version="v10" data-entviz-lib="0.10.0" data-input-bytes="57" data-cols="3" data-rows="3"><defs><clipPath id="grid-clip-cdfa69b2105d2251-3x3"><rect x="27" y="26" width="180" height="120"/></clipPath></defs><rect x="0" y="0" width="213" height="152" fill="#ffffff"/><g data-channel="grid"><rect x="27" y="26" width="180" height="120" fill="#ff3f2f"/><g><rect x="87" y="26" width="6" height="10" fill="#ffffff"/><rect x="105" y="26" width="6" height="10" fill="#ffffff"/><rect x="117" y="26" width="6" height="10" fill="#ffffff"/><rect x="123" y="26" width="6" height="10" fill="#ffffff"/><rect x="141" y="26" width="6" height="10" fill="#ffffff"/><rect x="141" y="46" width="6" height="10" fill="#ffffff"/><rect x="141" y="56" width="6" height="10" fill="#ffffff"/><rect x="135" y="56" width="6" height="10" fill="#ffffff"/><rect x="129" y="56" width="6" height="10" fill="#ffffff"/><rect x="123" y="56" width="6" height="10" fill="#ffffff"/><rect x="117" y="56" width="6" height="10" fill="#ffffff"/><rect x="105" y="56" width="6" height="10" fill="#ffffff"/><rect x="99" y="56" width="6" height="10" fill="#ffffff"/><rect x="87" y="46" width="6" height="10" fill="#ffffff"/><rect x="87" y="36" width="6" height="10" fill="#ffffff"/><rect x="147" y="26" width="6" height="10" fill="#ffffff"/><rect x="159" y="26" width="6" height="10" fill="#ffffff"/><rect x="165" y="26" width="6" height="10" fill="#ffffff"/><rect x="171" y="26" width="6" height="10" fill="#ffffff"/><rect x="183" y="26" width="6" height="10" fill="#ffffff"/><rect x="201" y="56" width="6" height="10" fill="#ffffff"/><rect x="171" y="56" width="6" height="10" fill="#ffffff"/><rect x="153" y="56" width="6" height="10" fill="#ffffff"/><rect x="147" y="56" width="6" height="10" fill="#ffffff"/><rect x="147" y="36" width="6" height="10" fill="#ffffff"/><rect x="93" y="66" width="6" height="10" fill="#2f3fbf"/><rect x="135" y="66" width="6" height="10" fill="#2f3fbf"/><rect x="141" y="96" width="6" height="10" fill="#2f3fbf"/><rect x="129" y="96" width="6" height="10" fill="#2f3fbf"/><rect x="111" y="96" width="6" height="10" fill="#2f3fbf"/><rect x="87" y="96" width="6" height="10" fill="#2f3fbf"/><rect x="147" y="66" width="6" height="10" fill="#000000"/><rect x="153" y="66" width="6" height="10" fill="#000000"/><rect x="165" y="66" width="6" height="10" fill="#000000"/><rect x="171" y="66" width="6" height="10" fill="#000000"/><rect x="189" y="66" width="6" height="10" fill="#000000"/><rect x="201" y="66" width="6" height="10" fill="#000000"/><rect x="201" y="86" width="6" height="10" fill="#000000"/><rect x="201" y="96" width="6" height="10" fill="#000000"/><rect x="189" y="96" width="6" height="10" fill="#000000"/><rect x="165" y="96" width="6" height="10" fill="#000000"/><rect x="147" y="96" width="6" height="10" fill="#000000"/><rect x="147" y="76" width="6" height="10" fill="#000000"/><rect x="33" y="106" width="6" height="10" fill="#2f3fbf"/><rect x="51" y="106" width="6" height="10" fill="#2f3fbf"/><rect x="57" y="106" width="6" height="10" fill="#2f3fbf"/><rect x="63" y="106" width="6" height="10" fill="#2f3fbf"/><rect x="69" y="106" width="6" height="10" fill="#2f3fbf"/><rect x="81" y="106" width="6" height="10" fill="#2f3fbf"/><rect x="81" y="116" width="6" height="10" fill="#2f3fbf"/><rect x="69" y="136" width="6" height="10" fill="#2f3fbf"/><rect x="63" y="136" width="6" height="10" fill="#2f3fbf"/><rect x="57" y="136" width="6" height="10" fill="#2f3fbf"/><rect x="45" y="136" width="6" height="10" fill="#2f3fbf"/><rect x="33" y="136" width="6" height="10" fill="#2f3fbf"/><rect x="27" y="136" width="6" height="10" fill="#2f3fbf"/><rect x="27" y="126" width="6" height="10" fill="#2f3fbf"/><rect x="27" y="116" width="6" height="10" fill="#2f3fbf"/><rect x="99" y="106" width="6" height="10" fill="#ffffff"/><rect x="105" y="106" width="6" height="10" fill="#ffffff"/><rect x="111" y="106" width="6" height="10" fill="#ffffff"/><rect x="129" y="106" width="6" height="10" fill="#ffffff"/><rect x="141" y="106" width="6" height="10" fill="#ffffff"/><rect x="141" y="116" width="6" height="10" fill="#ffffff"/><rect x="141" y="136" width="6" height="10" fill="#ffffff"/><rect x="129" y="136" width="6" height="10" fill="#ffffff"/><rect x="105" y="136" width="6" height="10" fill="#ffffff"/><rect x="87" y="136" width="6" height="10" fill="#ffffff"/><rect x="87" y="126" width="6" height="10" fill="#ffffff"/><rect x="87" y="116" width="6" height="10" fill="#ffffff"/><rect x="147" y="106" width="6" height="10" fill="#000000"/><rect x="153" y="106" width="6" height="10" fill="#000000"/><rect x="165" y="106" width="6" height="10" fill="#000000"/><rect x="171" y="106" width="6" height="10" fill="#000000"/><rect x="177" y="106" width="6" height="10" fill="#000000"/><rect x="195" y="106" width="6" height="10" fill="#000000"/><rect x="201" y="116" width="6" height="10" fill="#000000"/><rect x="201" y="136" width="6" height="10" fill="#000000"/><rect x="195" y="136" width="6" height="10" fill="#000000"/><rect x="177" y="136" width="6" height="10" fill="#000000"/><rect x="171" y="136" width="6" height="10" fill="#000000"/><rect x="165" y="136" width="6" height="10" fill="#000000"/><rect x="153" y="136" width="6" height="10" fill="#000000"/><rect x="147" y="126" width="6" height="10" fill="#000000"/><rect x="147" y="116" width="6" height="10" fill="#000000"/></g><g clip-path="url(#grid-clip-cdfa69b2105d2251-3x3)" data-channel="ellipse" data-ellipse-anchor-x="87" data-ellipse-anchor-y="146" data-ellipse-rx="65.846" data-ellipse-ry="69.919" data-ellipse-rotation-deg="108"><ellipse cx="87" cy="146" rx="65.846" ry="69.919" transform="rotate(108 87 146)" fill="#000000" stroke="#000000" fill-opacity="0.25" stroke-opacity="0.35" stroke-width="2"/></g><g><g data-channel="cell" data-cell-index="0" data-cell-row="0" data-cell-col="0" data-cell-blank="true" data-cell-blank-map="true"><rect x="33" y="36" width="48" height="20" rx="10" ry="10" fill="#ffffff" stroke="#000000" stroke-width="1"/><circle cx="57" cy="46" r="3.5" fill="#1d4ed8" data-blank-map-min="1,1"/><path d="M 36.8,52.667 H 45.2 M 41,48.467 V 56.867" fill="none" stroke="#d62828" stroke-width="1.925" stroke-linecap="butt" data-blank-map-max="2,0"/></g><g data-channel="cell" data-cell-index="1" data-cell-row="0" data-cell-col="1"><rect x="93" y="36" width="48" height="20" fill="#e29de6"/><text x="117" y="46" fill="#000000" style="font-family: &quot;JetBrains Mono&quot;, &quot;Menlo&quot;, &quot;Consolas&quot;, &quot;DejaVu Sans Mono&quot;, &quot;Liberation Mono&quot;, &quot;Roboto Mono&quot;, &quot;Noto Sans Mono&quot;, monospace; font-size: 12px;" text-anchor="middle" dominant-baseline="central">e69de2</text></g><g data-channel="cell" data-cell-index="2" data-cell-row="0" data-cell-col="2" data-cell-quartile="3"><rect x="153" y="36" width="48" height="20" fill="#d1b29b"/><text x="177" y="46" fill="#000000" style="font-family: &quot;JetBrains Mono&quot;, &quot;Menlo&quot;, &quot;Consolas&quot;, &quot;DejaVu Sans Mono&quot;, &quot;Liberation Mono&quot;, &quot;Roboto Mono&quot;, &quot;Noto Sans Mono&quot;, monospace; font-size: 12px;" text-anchor="middle" dominant-baseline="central">9bb2d1</text><polygon points="201,56 201,46 191,56" fill="#000000"/></g><g data-channel="cell" data-cell-index="3" data-cell-row="1" data-cell-col="0" data-cell-blank="true"><rect x="33" y="76" width="48" height="20" rx="10" ry="10" fill="#ffffff" stroke="#000000" stroke-width="1"/></g><g data-channel="cell" data-cell-index="4" data-cell-row="1" data-cell-col="1"><rect x="93" y="76" width="48" height="20" fill="#4b43d6"/><text x="117" y="86" fill="#ffffff" style="font-family: &quot;JetBrains Mono&quot;, &quot;Menlo&quot;, &quot;Consolas&quot;, &quot;DejaVu Sans Mono&quot;, &quot;Liberation Mono&quot;, &quot;Roboto Mono&quot;, &quot;Noto Sans Mono&quot;, monospace; font-size: 12px;" text-anchor="middle" dominant-baseline="central">d6434b</text></g><g data-channel="cell" data-cell-index="5" data-cell-row="1" data-cell-col="2" data-cell-quartile="2"><rect x="153" y="76" width="48" height="20" fill="#ae298b"/><text x="177" y="86" fill="#ffffff" style="font-family: &quot;JetBrains Mono&quot;, &quot;Menlo&quot;, &quot;Consolas&quot;, &quot;DejaVu Sans Mono&quot;, &quot;Liberation Mono&quot;, &quot;Roboto Mono&quot;, &quot;Noto Sans Mono&quot;, monospace; font-size: 12px;" text-anchor="middle" dominant-baseline="central">8b29ae</text><polygon points="201,76 191,76 201,86" fill="#ffffff"/></g><g data-channel="cell" data-cell-index="6" data-cell-row="2" data-cell-col="0" data-cell-quartile="4"><rect x="33" y="116" width="48" height="20" fill="#d85a77"/><text x="57" y="126" fill="#000000" style="font-family: &quot;JetBrains Mono&quot;, &quot;Menlo&quot;, &quot;Consolas&quot;, &quot;DejaVu Sans Mono&quot;, &quot;Liberation Mono&quot;, &quot;Roboto Mono&quot;, &quot;Noto Sans Mono&quot;, monospace; font-size: 12px;" text-anchor="middle" dominant-baseline="central">775ad8</text><polygon points="33,136 33,126 43,136" fill="#000000"/></g><g data-channel="cell" data-cell-index="7" data-cell-row="2" data-cell-col="1"><rect x="93" y="116" width="48" height="20" fill="#8ce4c2"/><text x="117" y="126" fill="#000000" style="font-family: &quot;JetBrains Mono&quot;, &quot;Menlo&quot;, &quot;Consolas&quot;, &quot;DejaVu Sans Mono&quot;, &quot;Liberation Mono&quot;, &quot;Roboto Mono&quot;, &quot;Noto Sans Mono&quot;, monospace; font-size: 12px;" text-anchor="middle" dominant-baseline="central">c2e48c</text></g><g data-channel="cell" data-cell-index="8" data-cell-row="2" data-cell-col="2" data-cell-quartile="1"><rect x="153" y="116" width="48" height="20" fill="#919153"/><text x="177" y="126" fill="#000000" style="font-family: &quot;JetBrains Mono&quot;, &quot;Menlo&quot;, &quot;Consolas&quot;, &quot;DejaVu Sans Mono&quot;, &quot;Liberation Mono&quot;, &quot;Roboto Mono&quot;, &quot;Noto Sans Mono&quot;, monospace; font-size: 12px;" text-anchor="middle" dominant-baseline="central">5391</text><polygon points="153,116 163,116 153,126" fill="#000000"/></g></g></g><g data-channel="color-bar" data-bar-slots="12" data-bar-marker-left="8" data-bar-marker-right="6"><g data-color-bar-rank="0" data-color-bar-band="G"><rect x="1" y="1" width="20" height="51.308" fill="#e7be00"/><text x="11" y="49.668" fill="#000000" style="font-family: &quot;JetBrains Mono&quot;, &quot;Menlo&quot;, &quot;Consolas&quot;, &quot;DejaVu Sans Mono&quot;, &quot;Liberation Mono&quot;, &quot;Roboto Mono&quot;, &quot;Noto Sans Mono&quot;, monospace; font-size: 12px;" text-anchor="middle" data-color-bar-letter="true">g</text></g><g data-color-bar-rank="1" data-color-bar-band="K"><rect x="1" y="52.308" width="20" height="22.558" fill="#000000"/><text x="11" y="72.226" fill="#ffffff" style="font-family: &quot;JetBrains Mono&quot;, &quot;Menlo&quot;, &quot;Consolas&quot;, &quot;DejaVu Sans Mono&quot;, &quot;Liberation Mono&quot;, &quot;Roboto Mono&quot;, &quot;Noto Sans Mono&quot;, monospace; font-size: 12px;" text-anchor="middle" data-color-bar-letter="true">k</text></g><g data-color-bar-rank="2" data-color-bar-band="W"><rect x="1" y="74.866" width="20" height="27.695" fill="#ffffff"/><text x="11" y="99.921" fill="#000000" style="font-family: &quot;JetBrains Mono&quot;, &quot;Menlo&quot;, &quot;Consolas&quot;, &quot;DejaVu Sans Mono&quot;, &quot;Liberation Mono&quot;, &quot;Roboto Mono&quot;, &quot;Noto Sans Mono&quot;, monospace; font-size: 12px;" text-anchor="middle" data-color-bar-letter="true">w</text></g><g data-color-bar-rank="3" data-color-bar-band="B"><rect x="1" y="102.561" width="20" height="48.439" fill="#2f3fbf"/><text x="11" y="148.36" fill="#ffffff" style="font-family: &quot;JetBrains Mono&quot;, &quot;Menlo&quot;, &quot;Consolas&quot;, &quot;DejaVu Sans Mono&quot;, &quot;Liberation Mono&quot;, &quot;Roboto Mono&quot;, &quot;Noto Sans Mono&quot;, monospace; font-size: 12px;" text-anchor="middle" data-color-bar-letter="true">b</text></g><circle cx="5.6" cy="107.25" r="3.4" fill="#ffffff" stroke="#000000" stroke-width="0.75" data-bar-marker="left"/><circle cx="16.4" cy="82.25" r="3.4" fill="#ffffff" stroke="#000000" stroke-width="0.75" data-bar-marker="right"/></g><g data-channel="label-top"><text x="27" y="16" fill="#666666" style="font-family: &quot;JetBrains Mono&quot;, &quot;Menlo&quot;, &quot;Consolas&quot;, &quot;DejaVu Sans Mono&quot;, &quot;Liberation Mono&quot;, &quot;Roboto Mono&quot;, &quot;Noto Sans Mono&quot;, monospace; font-size: 12px;" dominant-baseline="central">gitoid:blob:sha1:...</text></g><line x1="0" y1="0.5" x2="213" y2="0.5" stroke="#808080" stroke-width="1" shape-rendering="crispEdges"/><line x1="212.5" y1="0" x2="212.5" y2="152" stroke="#808080" stroke-width="1" shape-rendering="crispEdges"/><line x1="0" y1="151.5" x2="213" y2="151.5" stroke="#808080" stroke-width="1" shape-rendering="crispEdges"/><line x1="0.5" y1="0" x2="0.5" y2="152" stroke="#808080" stroke-width="1" shape-rendering="crispEdges"/><line x1="21.5" y1="0" x2="21.5" y2="152" stroke="#808080" stroke-width="1" shape-rendering="crispEdges"/></svg>