<svg width="263.0" height="277.0" viewBox="0 0 263.0 277.0" xmlns="http://www.w3.org/2000/svg" data-entviz-version="v5" data-entviz-lib="0.5.0" data-input-bytes="119" data-cols="4" data-rows="6" data-truncated="true"><defs><clipPath id="grid-clip-807e856a24dc33e6-4x6"><rect x="17.0" y="31.0" width="240.0" height="240.0"/></clipPath></defs><rect x="0" y="0" width="263.0" height="277.0" fill="#ffffff"/><g data-channel="grid"><rect x="17.0" y="31.0" width="240.0" height="240.0" fill="#ff3f2f"/><g><rect x="17.0" y="31.0" width="6.0" height="10.0" fill="#000000"/><rect x="29.0" y="31.0" width="6.0" height="10.0" fill="#000000"/><rect x="59.0" y="31.0" width="6.0" height="10.0" fill="#000000"/><rect x="71.0" y="31.0" width="6.0" height="10.0" fill="#000000"/><rect x="71.0" y="41.0" width="6.0" height="10.0" fill="#000000"/><rect x="71.0" y="51.0" width="6.0" height="10.0" fill="#000000"/><rect x="71.0" y="61.0" width="6.0" height="10.0" fill="#000000"/><rect x="65.0" y="61.0" width="6.0" height="10.0" fill="#000000"/><rect x="59.0" y="61.0" width="6.0" height="10.0" fill="#000000"/><rect x="17.0" y="41.0" width="6.0" height="10.0" fill="#000000"/><rect x="89.0" y="31.0" width="6.0" height="10.0" fill="#000000"/><rect x="95.0" y="31.0" width="6.0" height="10.0" fill="#000000"/><rect x="101.0" y="31.0" width="6.0" height="10.0" fill="#000000"/><rect x="113.0" y="31.0" width="6.0" height="10.0" fill="#000000"/><rect x="119.0" y="31.0" width="6.0" height="10.0" fill="#000000"/><rect x="131.0" y="41.0" width="6.0" height="10.0" fill="#000000"/><rect x="125.0" y="61.0" width="6.0" height="10.0" fill="#000000"/><rect x="101.0" y="61.0" width="6.0" height="10.0" fill="#000000"/><rect x="89.0" y="61.0" width="6.0" height="10.0" fill="#000000"/><rect x="77.0" y="61.0" width="6.0" height="10.0" fill="#000000"/><rect x="77.0" y="51.0" width="6.0" height="10.0" fill="#000000"/><rect x="143.0" y="31.0" width="6.0" height="10.0" fill="#000000"/><rect x="149.0" y="31.0" width="6.0" height="10.0" fill="#000000"/><rect x="167.0" y="31.0" width="6.0" height="10.0" fill="#000000"/><rect x="191.0" y="31.0" width="6.0" height="10.0" fill="#000000"/><rect x="191.0" y="41.0" width="6.0" height="10.0" fill="#000000"/><rect x="185.0" y="61.0" width="6.0" height="10.0" fill="#000000"/><rect x="179.0" y="61.0" width="6.0" height="10.0" fill="#000000"/><rect x="173.0" y="61.0" width="6.0" height="10.0" fill="#000000"/><rect x="167.0" y="61.0" width="6.0" height="10.0" fill="#000000"/><rect x="161.0" y="61.0" width="6.0" height="10.0" fill="#000000"/><rect x="143.0" y="61.0" width="6.0" height="10.0" fill="#000000"/><rect x="137.0" y="61.0" width="6.0" height="10.0" fill="#000000"/><rect x="203.0" y="31.0" width="6.0" height="10.0" fill="#2f3fbf"/><rect x="221.0" y="31.0" width="6.0" height="10.0" fill="#2f3fbf"/><rect x="251.0" y="61.0" width="6.0" height="10.0" fill="#2f3fbf"/><rect x="227.0" y="61.0" width="6.0" height="10.0" fill="#2f3fbf"/><rect x="215.0" y="61.0" width="6.0" height="10.0" fill="#2f3fbf"/><rect x="209.0" y="61.0" width="6.0" height="10.0" fill="#2f3fbf"/><rect x="203.0" y="61.0" width="6.0" height="10.0" fill="#2f3fbf"/><rect x="17.0" y="71.0" width="6.0" height="10.0" fill="#2f3fbf"/><rect x="41.0" y="71.0" width="6.0" height="10.0" fill="#2f3fbf"/><rect x="65.0" y="101.0" width="6.0" height="10.0" fill="#2f3fbf"/><rect x="53.0" y="101.0" width="6.0" height="10.0" fill="#2f3fbf"/><rect x="35.0" y="101.0" width="6.0" height="10.0" fill="#2f3fbf"/><rect x="29.0" y="101.0" width="6.0" height="10.0" fill="#2f3fbf"/><rect x="23.0" y="101.0" width="6.0" height="10.0" fill="#2f3fbf"/><rect x="17.0" y="101.0" width="6.0" height="10.0" fill="#2f3fbf"/><rect x="83.0" y="71.0" width="6.0" height="10.0" fill="#000000"/><rect x="89.0" y="71.0" width="6.0" height="10.0" fill="#000000"/><rect x="95.0" y="71.0" width="6.0" height="10.0" fill="#000000"/><rect x="107.0" y="71.0" width="6.0" height="10.0" fill="#000000"/><rect x="113.0" y="71.0" width="6.0" height="10.0" fill="#000000"/><rect x="125.0" y="71.0" width="6.0" height="10.0" fill="#000000"/><rect x="131.0" y="71.0" width="6.0" height="10.0" fill="#000000"/><rect x="131.0" y="81.0" width="6.0" height="10.0" fill="#000000"/><rect x="131.0" y="91.0" width="6.0" height="10.0" fill="#000000"/><rect x="125.0" y="101.0" width="6.0" height="10.0" fill="#000000"/><rect x="119.0" y="101.0" width="6.0" height="10.0" fill="#000000"/><rect x="113.0" y="101.0" width="6.0" height="10.0" fill="#000000"/><rect x="95.0" y="101.0" width="6.0" height="10.0" fill="#000000"/><rect x="89.0" y="101.0" width="6.0" height="10.0" fill="#000000"/><rect x="83.0" y="101.0" width="6.0" height="10.0" fill="#000000"/><rect x="77.0" y="91.0" width="6.0" height="10.0" fill="#000000"/><rect x="137.0" y="71.0" width="6.0" height="10.0" fill="#000000"/><rect x="143.0" y="71.0" width="6.0" height="10.0" fill="#000000"/><rect x="155.0" y="71.0" width="6.0" height="10.0" fill="#000000"/><rect x="161.0" y="71.0" width="6.0" height="10.0" fill="#000000"/><rect x="179.0" y="71.0" width="6.0" height="10.0" fill="#000000"/><rect x="179.0" y="101.0" width="6.0" height="10.0" fill="#000000"/><rect x="173.0" y="101.0" width="6.0" height="10.0" fill="#000000"/><rect x="161.0" y="101.0" width="6.0" height="10.0" fill="#000000"/><rect x="143.0" y="101.0" width="6.0" height="10.0" fill="#000000"/><rect x="137.0" y="101.0" width="6.0" height="10.0" fill="#000000"/><rect x="137.0" y="81.0" width="6.0" height="10.0" fill="#000000"/><rect x="203.0" y="71.0" width="6.0" height="10.0" fill="#000000"/><rect x="215.0" y="71.0" width="6.0" height="10.0" fill="#000000"/><rect x="227.0" y="71.0" width="6.0" height="10.0" fill="#000000"/><rect x="239.0" y="71.0" width="6.0" height="10.0" fill="#000000"/><rect x="251.0" y="71.0" width="6.0" height="10.0" fill="#000000"/><rect x="251.0" y="81.0" width="6.0" height="10.0" fill="#000000"/><rect x="239.0" y="101.0" width="6.0" height="10.0" fill="#000000"/><rect x="233.0" y="101.0" width="6.0" height="10.0" fill="#000000"/><rect x="227.0" y="101.0" width="6.0" height="10.0" fill="#000000"/><rect x="209.0" y="101.0" width="6.0" height="10.0" fill="#000000"/><rect x="197.0" y="101.0" width="6.0" height="10.0" fill="#000000"/><rect x="77.0" y="111.0" width="6.0" height="10.0" fill="#000000"/><rect x="89.0" y="111.0" width="6.0" height="10.0" fill="#000000"/><rect x="101.0" y="111.0" width="6.0" height="10.0" fill="#000000"/><rect x="107.0" y="111.0" width="6.0" height="10.0" fill="#000000"/><rect x="113.0" y="111.0" width="6.0" height="10.0" fill="#000000"/><rect x="119.0" y="111.0" width="6.0" height="10.0" fill="#000000"/><rect x="131.0" y="131.0" width="6.0" height="10.0" fill="#000000"/><rect x="131.0" y="141.0" width="6.0" height="10.0" fill="#000000"/><rect x="125.0" y="141.0" width="6.0" height="10.0" fill="#000000"/><rect x="119.0" y="141.0" width="6.0" height="10.0" fill="#000000"/><rect x="113.0" y="141.0" width="6.0" height="10.0" fill="#000000"/><rect x="107.0" y="141.0" width="6.0" height="10.0" fill="#000000"/><rect x="95.0" y="141.0" width="6.0" height="10.0" fill="#000000"/><rect x="89.0" y="141.0" width="6.0" height="10.0" fill="#000000"/><rect x="83.0" y="141.0" width="6.0" height="10.0" fill="#000000"/><rect x="77.0" y="121.0" width="6.0" height="10.0" fill="#000000"/><rect x="137.0" y="111.0" width="6.0" height="10.0" fill="#2f3fbf"/><rect x="143.0" y="111.0" width="6.0" height="10.0" fill="#2f3fbf"/><rect x="173.0" y="111.0" width="6.0" height="10.0" fill="#2f3fbf"/><rect x="179.0" y="111.0" width="6.0" height="10.0" fill="#2f3fbf"/><rect x="185.0" y="111.0" width="6.0" height="10.0" fill="#2f3fbf"/><rect x="185.0" y="141.0" width="6.0" height="10.0" fill="#2f3fbf"/><rect x="173.0" y="141.0" width="6.0" height="10.0" fill="#2f3fbf"/><rect x="167.0" y="141.0" width="6.0" height="10.0" fill="#2f3fbf"/><rect x="161.0" y="141.0" width="6.0" height="10.0" fill="#2f3fbf"/><rect x="155.0" y="141.0" width="6.0" height="10.0" fill="#2f3fbf"/><rect x="137.0" y="141.0" width="6.0" height="10.0" fill="#2f3fbf"/><rect x="137.0" y="121.0" width="6.0" height="10.0" fill="#2f3fbf"/><rect x="209.0" y="111.0" width="6.0" height="10.0" fill="#2f3fbf"/><rect x="221.0" y="111.0" width="6.0" height="10.0" fill="#2f3fbf"/><rect x="239.0" y="111.0" width="6.0" height="10.0" fill="#2f3fbf"/><rect x="251.0" y="111.0" width="6.0" height="10.0" fill="#2f3fbf"/><rect x="251.0" y="121.0" width="6.0" height="10.0" fill="#2f3fbf"/><rect x="251.0" y="141.0" width="6.0" height="10.0" fill="#2f3fbf"/><rect x="245.0" y="141.0" width="6.0" height="10.0" fill="#2f3fbf"/><rect x="227.0" y="141.0" width="6.0" height="10.0" fill="#2f3fbf"/><rect x="197.0" y="131.0" width="6.0" height="10.0" fill="#2f3fbf"/><rect x="23.0" y="151.0" width="6.0" height="10.0" fill="#2f3fbf"/><rect x="29.0" y="151.0" width="6.0" height="10.0" fill="#2f3fbf"/><rect x="35.0" y="151.0" width="6.0" height="10.0" fill="#2f3fbf"/><rect x="41.0" y="151.0" width="6.0" height="10.0" fill="#2f3fbf"/><rect x="65.0" y="151.0" width="6.0" height="10.0" fill="#2f3fbf"/><rect x="71.0" y="161.0" width="6.0" height="10.0" fill="#2f3fbf"/><rect x="65.0" y="181.0" width="6.0" height="10.0" fill="#2f3fbf"/><rect x="41.0" y="181.0" width="6.0" height="10.0" fill="#2f3fbf"/><rect x="35.0" y="181.0" width="6.0" height="10.0" fill="#2f3fbf"/><rect x="23.0" y="181.0" width="6.0" height="10.0" fill="#2f3fbf"/><rect x="17.0" y="181.0" width="6.0" height="10.0" fill="#2f3fbf"/><rect x="17.0" y="171.0" width="6.0" height="10.0" fill="#2f3fbf"/><rect x="143.0" y="151.0" width="6.0" height="10.0" fill="#000000"/><rect x="179.0" y="151.0" width="6.0" height="10.0" fill="#000000"/><rect x="191.0" y="151.0" width="6.0" height="10.0" fill="#000000"/><rect x="191.0" y="161.0" width="6.0" height="10.0" fill="#000000"/><rect x="191.0" y="171.0" width="6.0" height="10.0" fill="#000000"/><rect x="179.0" y="181.0" width="6.0" height="10.0" fill="#000000"/><rect x="167.0" y="181.0" width="6.0" height="10.0" fill="#000000"/><rect x="161.0" y="181.0" width="6.0" height="10.0" fill="#000000"/><rect x="137.0" y="181.0" width="6.0" height="10.0" fill="#000000"/><rect x="137.0" y="171.0" width="6.0" height="10.0" fill="#000000"/><rect x="203.0" y="151.0" width="6.0" height="10.0" fill="#ffd966"/><rect x="221.0" y="151.0" width="6.0" height="10.0" fill="#ffd966"/><rect x="251.0" y="161.0" width="6.0" height="10.0" fill="#ffd966"/><rect x="233.0" y="181.0" width="6.0" height="10.0" fill="#ffd966"/><rect x="227.0" y="181.0" width="6.0" height="10.0" fill="#ffd966"/><rect x="221.0" y="181.0" width="6.0" height="10.0" fill="#ffd966"/><rect x="215.0" y="181.0" width="6.0" height="10.0" fill="#ffd966"/><rect x="209.0" y="181.0" width="6.0" height="10.0" fill="#ffd966"/><rect x="203.0" y="181.0" width="6.0" height="10.0" fill="#ffd966"/><rect x="197.0" y="161.0" width="6.0" height="10.0" fill="#ffd966"/><rect x="17.0" y="191.0" width="6.0" height="10.0" fill="#ffd966"/><rect x="23.0" y="191.0" width="6.0" height="10.0" fill="#ffd966"/><rect x="59.0" y="191.0" width="6.0" height="10.0" fill="#ffd966"/><rect x="71.0" y="191.0" width="6.0" height="10.0" fill="#ffd966"/><rect x="71.0" y="201.0" width="6.0" height="10.0" fill="#ffd966"/><rect x="71.0" y="211.0" width="6.0" height="10.0" fill="#ffd966"/><rect x="71.0" y="221.0" width="6.0" height="10.0" fill="#ffd966"/><rect x="59.0" y="221.0" width="6.0" height="10.0" fill="#ffd966"/><rect x="53.0" y="221.0" width="6.0" height="10.0" fill="#ffd966"/><rect x="47.0" y="221.0" width="6.0" height="10.0" fill="#ffd966"/><rect x="41.0" y="221.0" width="6.0" height="10.0" fill="#ffd966"/><rect x="35.0" y="221.0" width="6.0" height="10.0" fill="#ffd966"/><rect x="23.0" y="221.0" width="6.0" height="10.0" fill="#ffd966"/><rect x="17.0" y="211.0" width="6.0" height="10.0" fill="#ffd966"/><rect x="77.0" y="191.0" width="6.0" height="10.0" fill="#2f3fbf"/><rect x="95.0" y="191.0" width="6.0" height="10.0" fill="#2f3fbf"/><rect x="113.0" y="191.0" width="6.0" height="10.0" fill="#2f3fbf"/><rect x="125.0" y="191.0" width="6.0" height="10.0" fill="#2f3fbf"/><rect x="131.0" y="191.0" width="6.0" height="10.0" fill="#2f3fbf"/><rect x="131.0" y="201.0" width="6.0" height="10.0" fill="#2f3fbf"/><rect x="113.0" y="221.0" width="6.0" height="10.0" fill="#2f3fbf"/><rect x="107.0" y="221.0" width="6.0" height="10.0" fill="#2f3fbf"/><rect x="95.0" y="221.0" width="6.0" height="10.0" fill="#2f3fbf"/><rect x="89.0" y="221.0" width="6.0" height="10.0" fill="#2f3fbf"/><rect x="83.0" y="221.0" width="6.0" height="10.0" fill="#2f3fbf"/><rect x="77.0" y="221.0" width="6.0" height="10.0" fill="#2f3fbf"/><rect x="77.0" y="211.0" width="6.0" height="10.0" fill="#2f3fbf"/><rect x="77.0" y="201.0" width="6.0" height="10.0" fill="#2f3fbf"/><rect x="149.0" y="191.0" width="6.0" height="10.0" fill="#2f3fbf"/><rect x="155.0" y="191.0" width="6.0" height="10.0" fill="#2f3fbf"/><rect x="167.0" y="191.0" width="6.0" height="10.0" fill="#2f3fbf"/><rect x="179.0" y="191.0" width="6.0" height="10.0" fill="#2f3fbf"/><rect x="185.0" y="191.0" width="6.0" height="10.0" fill="#2f3fbf"/><rect x="191.0" y="191.0" width="6.0" height="10.0" fill="#2f3fbf"/><rect x="191.0" y="201.0" width="6.0" height="10.0" fill="#2f3fbf"/><rect x="191.0" y="211.0" width="6.0" height="10.0" fill="#2f3fbf"/><rect x="191.0" y="221.0" width="6.0" height="10.0" fill="#2f3fbf"/><rect x="185.0" y="221.0" width="6.0" height="10.0" fill="#2f3fbf"/><rect x="179.0" y="221.0" width="6.0" height="10.0" fill="#2f3fbf"/><rect x="137.0" y="211.0" width="6.0" height="10.0" fill="#2f3fbf"/><rect x="203.0" y="191.0" width="6.0" height="10.0" fill="#2f3fbf"/><rect x="209.0" y="191.0" width="6.0" height="10.0" fill="#2f3fbf"/><rect x="227.0" y="191.0" width="6.0" height="10.0" fill="#2f3fbf"/><rect x="233.0" y="191.0" width="6.0" height="10.0" fill="#2f3fbf"/><rect x="239.0" y="191.0" width="6.0" height="10.0" fill="#2f3fbf"/><rect x="245.0" y="191.0" width="6.0" height="10.0" fill="#2f3fbf"/><rect x="251.0" y="191.0" width="6.0" height="10.0" fill="#2f3fbf"/><rect x="227.0" y="221.0" width="6.0" height="10.0" fill="#2f3fbf"/><rect x="221.0" y="221.0" width="6.0" height="10.0" fill="#2f3fbf"/><rect x="209.0" y="221.0" width="6.0" height="10.0" fill="#2f3fbf"/><rect x="53.0" y="231.0" width="6.0" height="10.0" fill="#ffd966"/><rect x="59.0" y="231.0" width="6.0" height="10.0" fill="#ffd966"/><rect x="65.0" y="231.0" width="6.0" height="10.0" fill="#ffd966"/><rect x="71.0" y="231.0" width="6.0" height="10.0" fill="#ffd966"/><rect x="71.0" y="251.0" width="6.0" height="10.0" fill="#ffd966"/><rect x="35.0" y="261.0" width="6.0" height="10.0" fill="#ffd966"/><rect x="29.0" y="261.0" width="6.0" height="10.0" fill="#ffd966"/><rect x="23.0" y="261.0" width="6.0" height="10.0" fill="#ffd966"/><rect x="17.0" y="241.0" width="6.0" height="10.0" fill="#ffd966"/><rect x="83.0" y="231.0" width="6.0" height="10.0" fill="#2f3fbf"/><rect x="89.0" y="231.0" width="6.0" height="10.0" fill="#2f3fbf"/><rect x="95.0" y="231.0" width="6.0" height="10.0" fill="#2f3fbf"/><rect x="101.0" y="231.0" width="6.0" height="10.0" fill="#2f3fbf"/><rect x="119.0" y="231.0" width="6.0" height="10.0" fill="#2f3fbf"/><rect x="131.0" y="231.0" width="6.0" height="10.0" fill="#2f3fbf"/><rect x="131.0" y="241.0" width="6.0" height="10.0" fill="#2f3fbf"/><rect x="119.0" y="261.0" width="6.0" height="10.0" fill="#2f3fbf"/><rect x="113.0" y="261.0" width="6.0" height="10.0" fill="#2f3fbf"/><rect x="101.0" y="261.0" width="6.0" height="10.0" fill="#2f3fbf"/><rect x="95.0" y="261.0" width="6.0" height="10.0" fill="#2f3fbf"/><rect x="77.0" y="261.0" width="6.0" height="10.0" fill="#2f3fbf"/><rect x="77.0" y="251.0" width="6.0" height="10.0" fill="#2f3fbf"/></g><g clip-path="url(#grid-clip-807e856a24dc33e6-4x6)" data-channel="ellipse" data-ellipse-anchor-x="197.0" data-ellipse-anchor-y="111.0" data-ellipse-rx="180.8318915758459" data-ellipse-ry="148.66551326067673" data-ellipse-rotation-deg="168.0"><ellipse cx="197.0" cy="111.0" rx="180.8318915758459" ry="148.66551326067673" transform="rotate(168.0 197.0 111.0)" fill="#000000" fill-opacity="0.4"/></g><g><g data-channel="cell" data-cell-index="0" data-cell-row="0" data-cell-col="0" data-cell-quartile="2"><rect x="23.0" y="41.0" width="48.0" height="20.0" fill="#018230"/><text x="47.0" y="51.0" fill="#ffffff" style="font-family: &quot;DejaVu Sans Mono&quot;, &quot;Consolas&quot;, &quot;Menlo&quot;, &quot;Liberation Mono&quot;, monospace; font-size: 16.0px;" text-anchor="middle" dominant-baseline="central">MIIB</text><polygon points="71.0,41.0 61.0,41.0 71.0,51.0" fill="#ffffff"/></g><g data-channel="cell" data-cell-index="1" data-cell-row="0" data-cell-col="1"><rect x="83.0" y="41.0" width="48.0" height="20.0" fill="#0d3022"/><text x="107.0" y="51.0" fill="#ffffff" style="font-family: &quot;DejaVu Sans Mono&quot;, &quot;Consolas&quot;, &quot;Menlo&quot;, &quot;Liberation Mono&quot;, monospace; font-size: 16.0px;" text-anchor="middle" dominant-baseline="central">IjAN</text></g><g data-channel="cell" data-cell-index="2" data-cell-row="0" data-cell-col="2"><rect x="143.0" y="41.0" width="48.0" height="20.0" fill="#2a0906"/><text x="167.0" y="51.0" fill="#ffffff" style="font-family: &quot;DejaVu Sans Mono&quot;, &quot;Consolas&quot;, &quot;Menlo&quot;, &quot;Liberation Mono&quot;, monospace; font-size: 16.0px;" text-anchor="middle" dominant-baseline="central">Bgkq</text></g><g data-channel="cell" data-cell-index="3" data-cell-row="0" data-cell-col="3"><rect x="203.0" y="41.0" width="48.0" height="20.0" fill="#864886"/><text x="227.0" y="51.0" fill="#ffffff" style="font-family: &quot;DejaVu Sans Mono&quot;, &quot;Consolas&quot;, &quot;Menlo&quot;, &quot;Liberation Mono&quot;, monospace; font-size: 16.0px;" text-anchor="middle" dominant-baseline="central">hkiG</text></g><g data-channel="cell" data-cell-index="4" data-cell-row="1" data-cell-col="0"><rect x="23.0" y="81.0" width="48.0" height="20.0" fill="#010df7"/><text x="47.0" y="91.0" fill="#ffffff" style="font-family: &quot;DejaVu Sans Mono&quot;, &quot;Consolas&quot;, &quot;Menlo&quot;, &quot;Liberation Mono&quot;, monospace; font-size: 16.0px;" text-anchor="middle" dominant-baseline="central">9w0B</text></g><g data-channel="cell" data-cell-index="5" data-cell-row="1" data-cell-col="1"><rect x="83.0" y="81.0" width="48.0" height="20.0" fill="#050101"/><text x="107.0" y="91.0" fill="#ffffff" style="font-family: &quot;DejaVu Sans Mono&quot;, &quot;Consolas&quot;, &quot;Menlo&quot;, &quot;Liberation Mono&quot;, monospace; font-size: 16.0px;" text-anchor="middle" dominant-baseline="central">AQEF</text></g><g data-channel="cell" data-cell-index="6" data-cell-row="1" data-cell-col="2"><rect x="143.0" y="81.0" width="48.0" height="20.0" fill="#820300"/><text x="167.0" y="91.0" fill="#ffffff" style="font-family: &quot;DejaVu Sans Mono&quot;, &quot;Consolas&quot;, &quot;Menlo&quot;, &quot;Liberation Mono&quot;, monospace; font-size: 16.0px;" text-anchor="middle" dominant-baseline="central">AAOC</text></g><g data-channel="cell" data-cell-index="7" data-cell-row="1" data-cell-col="3"><rect x="203.0" y="81.0" width="48.0" height="20.0" fill="#000f01"/><text x="227.0" y="91.0" fill="#ffffff" style="font-family: &quot;DejaVu Sans Mono&quot;, &quot;Consolas&quot;, &quot;Menlo&quot;, &quot;Liberation Mono&quot;, monospace; font-size: 16.0px;" text-anchor="middle" dominant-baseline="central">AQ8A</text></g><g data-channel="cell" data-cell-index="8" data-cell-row="2" data-cell-col="0" data-cell-blank="true" data-cell-blank-marker="true"><circle cx="47.0" cy="131.0" r="17.0" fill="#ffffff" stroke="#000000" stroke-width="1"/><line x1="47.0" y1="131.0" x2="57.8" y2="145.4" stroke="#ffffff" style="mix-blend-mode: difference" stroke-width="1"/><line x1="47.0" y1="131.0" x2="54.76739816327218" y2="134.4521769614543" stroke="#000000" stroke-width="1"/><circle cx="54.76739816327218" cy="134.4521769614543" r="1.5" fill="#ffffff" stroke="#000000" stroke-width="1"/></g><g data-channel="cell" data-cell-index="9" data-cell-row="2" data-cell-col="1" data-cell-quartile="1"><rect x="83.0" y="121.0" width="48.0" height="20.0" fill="#82020a"/><text x="107.0" y="131.0" fill="#ffffff" style="font-family: &quot;DejaVu Sans Mono&quot;, &quot;Consolas&quot;, &quot;Menlo&quot;, &quot;Liberation Mono&quot;, monospace; font-size: 16.0px;" text-anchor="middle" dominant-baseline="central">CgKC</text><polygon points="83.0,121.0 93.0,121.0 83.0,131.0" fill="#ffffff"/></g><g data-channel="cell" data-cell-index="10" data-cell-row="2" data-cell-col="2"><rect x="143.0" y="121.0" width="48.0" height="20.0" fill="#426cf1"/><text x="167.0" y="131.0" fill="#ffffff" style="font-family: &quot;DejaVu Sans Mono&quot;, &quot;Consolas&quot;, &quot;Menlo&quot;, &quot;Liberation Mono&quot;, monospace; font-size: 16.0px;" text-anchor="middle" dominant-baseline="central">8WxC</text></g><g data-channel="cell" data-cell-index="11" data-cell-row="2" data-cell-col="3" data-cell-quartile="3"><rect x="203.0" y="121.0" width="48.0" height="20.0" fill="#cb64f2"/><text x="227.0" y="131.0" fill="#000000" style="font-family: &quot;DejaVu Sans Mono&quot;, &quot;Consolas&quot;, &quot;Menlo&quot;, &quot;Liberation Mono&quot;, monospace; font-size: 16.0px;" text-anchor="middle" dominant-baseline="central">8mTL</text><polygon points="251.0,141.0 251.0,131.0 241.0,141.0" fill="#000000"/></g><g data-channel="cell" data-cell-index="12" data-cell-row="3" data-cell-col="0"><rect x="23.0" y="161.0" width="48.0" height="20.0" fill="#8d7683"/><text x="47.0" y="171.0" fill="#ffffff" style="font-family: &quot;DejaVu Sans Mono&quot;, &quot;Consolas&quot;, &quot;Menlo&quot;, &quot;Liberation Mono&quot;, monospace; font-size: 16.0px;" text-anchor="middle" dominant-baseline="central">g3aN</text></g><g data-channel="cell" data-cell-index="13" data-cell-row="3" data-cell-col="1" data-cell-blank="true" data-cell-blank-marker="true"><circle cx="107.0" cy="171.0" r="17.0" fill="#ffffff" stroke="#000000" stroke-width="1"/><line x1="107.0" y1="171.0" x2="107.0" y2="189.0" stroke="#ffffff" style="mix-blend-mode: difference" stroke-width="1"/><line x1="107.0" y1="171.0" x2="115.06380803342937" y2="173.6879360111431" stroke="#000000" stroke-width="1"/><circle cx="115.06380803342937" cy="173.6879360111431" r="1.5" fill="#ffffff" stroke="#000000" stroke-width="1"/></g><g data-channel="cell" data-cell-index="14" data-cell-row="3" data-cell-col="2"><rect x="143.0" y="161.0" width="48.0" height="20.0" fill="#da0d2e"/><text x="167.0" y="171.0" fill="#ffffff" style="font-family: &quot;DejaVu Sans Mono&quot;, &quot;Consolas&quot;, &quot;Menlo&quot;, &quot;Liberation Mono&quot;, monospace; font-size: 16.0px;" text-anchor="middle" dominant-baseline="central">Lg3a</text></g><g data-channel="cell" data-cell-index="15" data-cell-row="3" data-cell-col="3"><rect x="203.0" y="161.0" width="48.0" height="20.0" fill="#2ac837"/><text x="227.0" y="171.0" fill="#000000" style="font-family: &quot;DejaVu Sans Mono&quot;, &quot;Consolas&quot;, &quot;Menlo&quot;, &quot;Liberation Mono&quot;, monospace; font-size: 16.0px;" text-anchor="middle" dominant-baseline="central">N8gq</text></g><g data-channel="cell" data-cell-index="16" data-cell-row="4" data-cell-col="0"><rect x="23.0" y="201.0" width="48.0" height="20.0" fill="#b56c2b"/><text x="47.0" y="211.0" fill="#000000" style="font-family: &quot;DejaVu Sans Mono&quot;, &quot;Consolas&quot;, &quot;Menlo&quot;, &quot;Liberation Mono&quot;, monospace; font-size: 16.0px;" text-anchor="middle" dominant-baseline="central">K2y1</text></g><g data-channel="cell" data-cell-index="17" data-cell-row="4" data-cell-col="1"><rect x="83.0" y="201.0" width="48.0" height="20.0" fill="#ca67cc"/><text x="107.0" y="211.0" fill="#000000" style="font-family: &quot;DejaVu Sans Mono&quot;, &quot;Consolas&quot;, &quot;Menlo&quot;, &quot;Liberation Mono&quot;, monospace; font-size: 16.0px;" text-anchor="middle" dominant-baseline="central">zGfK</text></g><g data-channel="cell" data-cell-index="18" data-cell-row="4" data-cell-col="2"><rect x="143.0" y="201.0" width="48.0" height="20.0" fill="#3d776d"/><text x="167.0" y="211.0" fill="#ffffff" style="font-family: &quot;DejaVu Sans Mono&quot;, &quot;Consolas&quot;, &quot;Menlo&quot;, &quot;Liberation Mono&quot;, monospace; font-size: 16.0px;" text-anchor="middle" dominant-baseline="central">bXc9</text></g><g data-channel="cell" data-cell-index="19" data-cell-row="4" data-cell-col="3" data-cell-quartile="4"><rect x="203.0" y="201.0" width="48.0" height="20.0" fill="#2d66a7"/><text x="227.0" y="211.0" fill="#ffffff" style="font-family: &quot;DejaVu Sans Mono&quot;, &quot;Consolas&quot;, &quot;Menlo&quot;, &quot;Liberation Mono&quot;, monospace; font-size: 16.0px;" text-anchor="middle" dominant-baseline="central">p2Yt</text><polygon points="203.0,221.0 203.0,211.0 213.0,221.0" fill="#ffffff"/></g><g data-channel="cell" data-cell-index="20" data-cell-row="5" data-cell-col="0"><rect x="23.0" y="241.0" width="48.0" height="20.0" fill="#79f236"/><text x="47.0" y="251.0" fill="#000000" style="font-family: &quot;DejaVu Sans Mono&quot;, &quot;Consolas&quot;, &quot;Menlo&quot;, &quot;Liberation Mono&quot;, monospace; font-size: 16.0px;" text-anchor="middle" dominant-baseline="central">NvJ5</text></g><g data-channel="cell" data-cell-index="21" data-cell-row="5" data-cell-col="1"><rect x="83.0" y="241.0" width="48.0" height="20.0" fill="#174b87"/><text x="107.0" y="251.0" fill="#ffffff" style="font-family: &quot;DejaVu Sans Mono&quot;, &quot;Consolas&quot;, &quot;Menlo&quot;, &quot;Liberation Mono&quot;, monospace; font-size: 16.0px;" text-anchor="middle" dominant-baseline="central">h0sX</text></g><g data-channel="cell" data-cell-index="22" data-cell-row="5" data-cell-col="2" data-cell-blank="true" data-cell-blank-marker="true"><circle cx="167.0" cy="251.0" r="17.0" fill="#ffffff" stroke="#000000" stroke-width="1"/><line x1="167.0" y1="251.0" x2="152.0230947019188" y2="241.01539646794586" stroke="#ffffff" style="mix-blend-mode: difference" stroke-width="1"/><line x1="167.0" y1="251.0" x2="174.07242750187166" y2="246.28504833208555" stroke="#000000" stroke-width="1"/><circle cx="174.07242750187166" cy="246.28504833208555" r="1.5" fill="#ffffff" stroke="#000000" stroke-width="1"/></g><g data-channel="cell" data-cell-index="23" data-cell-row="5" data-cell-col="3" data-cell-blank="true"/></g></g><g data-channel="color-bar"><g data-color-bar-rank="0" data-color-bar-band="W"><rect x="1" y="1" width="10.0" height="100.23432540116825" fill="#ffffff"/><text x="6.0" y="51.117162700584124" fill="#000000" style="font-family: &quot;DejaVu Sans Mono&quot;, &quot;Consolas&quot;, &quot;Menlo&quot;, &quot;Liberation Mono&quot;, monospace; font-size: 8.5px;" text-anchor="middle" dominant-baseline="central" data-color-bar-letter="true">w</text></g><g data-color-bar-rank="1" data-color-bar-band="B"><rect x="1" y="101.23432540116825" width="10.0" height="74.84431520391199" fill="#2f3fbf"/><text x="6.0" y="138.65648300312424" fill="#ffffff" style="font-family: &quot;DejaVu Sans Mono&quot;, &quot;Consolas&quot;, &quot;Menlo&quot;, &quot;Liberation Mono&quot;, monospace; font-size: 8.5px;" text-anchor="middle" dominant-baseline="central" data-color-bar-letter="true">b</text></g><g data-color-bar-rank="2" data-color-bar-band="K"><rect x="1" y="176.07864060508024" width="10.0" height="58.28406514551307" fill="#000000"/><text x="6.0" y="205.22067317783677" fill="#ffffff" style="font-family: &quot;DejaVu Sans Mono&quot;, &quot;Consolas&quot;, &quot;Menlo&quot;, &quot;Liberation Mono&quot;, monospace; font-size: 8.5px;" text-anchor="middle" dominant-baseline="central" data-color-bar-letter="true">k</text></g><g data-color-bar-rank="3" data-color-bar-band="G"><rect x="1" y="234.3627057505933" width="10.0" height="41.63729424940669" fill="#ffd966"/><text x="6.0" y="255.18135287529665" fill="#000000" style="font-family: &quot;DejaVu Sans Mono&quot;, &quot;Consolas&quot;, &quot;Menlo&quot;, &quot;Liberation Mono&quot;, monospace; font-size: 8.5px;" text-anchor="middle" dominant-baseline="central" data-color-bar-letter="true">g</text></g></g><g data-channel="label-top"><text x="17.0" y="16.0" fill="#a00000" style="font-family: &quot;DejaVu Sans Mono&quot;, &quot;Consolas&quot;, &quot;Menlo&quot;, &quot;Liberation Mono&quot;, monospace; font-size: 12.0px;" dominant-baseline="central" font-weight="bold">part of </text><text x="74.6" y="16.0" fill="#666666" style="font-family: &quot;DejaVu Sans Mono&quot;, &quot;Consolas&quot;, &quot;Menlo&quot;, &quot;Liberation Mono&quot;, monospace; font-size: 12.0px;" dominant-baseline="central">b64(119):</text></g><line x1="0" y1="0.5" x2="263.0" y2="0.5" stroke="#808080" stroke-width="1" shape-rendering="crispEdges"/><line x1="262.5" y1="0" x2="262.5" y2="277.0" stroke="#808080" stroke-width="1" shape-rendering="crispEdges"/><line x1="0" y1="276.5" x2="263.0" y2="276.5" stroke="#808080" stroke-width="1" shape-rendering="crispEdges"/><line x1="0.5" y1="0" x2="0.5" y2="277.0" stroke="#808080" stroke-width="1" shape-rendering="crispEdges"/><line x1="11.5" y1="0" x2="11.5" y2="277.0" stroke="#808080" stroke-width="1" shape-rendering="crispEdges"/></svg>