<svg width="153.0" height="112.0" viewBox="0 0 153.0 112.0" xmlns="http://www.w3.org/2000/svg" data-entviz-version="v6" data-entviz-lib="0.6.0" data-input-bytes="11" data-cols="2" data-rows="2"><defs><clipPath id="grid-clip-38f16bf2f6959b3b-2x2"><rect x="27.0" y="26.0" width="120.0" height="80.0"/></clipPath></defs><rect x="0" y="0" width="153.0" height="112.0" fill="#ffffff"/><g data-channel="grid"><rect x="27.0" y="26.0" width="120.0" height="80.0" fill="#2f3fbf"/><g><rect x="27.0" y="26.0" width="6.0" height="10.0" fill="#ff3f2f"/><rect x="33.0" y="26.0" width="6.0" height="10.0" fill="#ff3f2f"/><rect x="45.0" y="26.0" width="6.0" height="10.0" fill="#ff3f2f"/><rect x="57.0" y="26.0" width="6.0" height="10.0" fill="#ff3f2f"/><rect x="63.0" y="26.0" width="6.0" height="10.0" fill="#ff3f2f"/><rect x="75.0" y="26.0" width="6.0" height="10.0" fill="#ff3f2f"/><rect x="81.0" y="56.0" width="6.0" height="10.0" fill="#ff3f2f"/><rect x="75.0" y="56.0" width="6.0" height="10.0" fill="#ff3f2f"/><rect x="69.0" y="56.0" width="6.0" height="10.0" fill="#ff3f2f"/><rect x="63.0" y="56.0" width="6.0" height="10.0" fill="#ff3f2f"/><rect x="39.0" y="56.0" width="6.0" height="10.0" fill="#ff3f2f"/><rect x="33.0" y="56.0" width="6.0" height="10.0" fill="#ff3f2f"/><rect x="27.0" y="56.0" width="6.0" height="10.0" fill="#ff3f2f"/><rect x="87.0" y="26.0" width="6.0" height="10.0" fill="#000000"/><rect x="99.0" y="26.0" width="6.0" height="10.0" fill="#000000"/><rect x="111.0" y="26.0" width="6.0" height="10.0" fill="#000000"/><rect x="129.0" y="26.0" width="6.0" height="10.0" fill="#000000"/><rect x="141.0" y="26.0" width="6.0" height="10.0" fill="#000000"/><rect x="141.0" y="36.0" width="6.0" height="10.0" fill="#000000"/><rect x="141.0" y="56.0" width="6.0" height="10.0" fill="#000000"/><rect x="135.0" y="56.0" width="6.0" height="10.0" fill="#000000"/><rect x="129.0" y="56.0" width="6.0" height="10.0" fill="#000000"/><rect x="123.0" y="56.0" width="6.0" height="10.0" fill="#000000"/><rect x="111.0" y="56.0" width="6.0" height="10.0" fill="#000000"/><rect x="93.0" y="56.0" width="6.0" height="10.0" fill="#000000"/><rect x="87.0" y="56.0" width="6.0" height="10.0" fill="#000000"/><rect x="87.0" y="46.0" width="6.0" height="10.0" fill="#000000"/><rect x="87.0" y="36.0" width="6.0" height="10.0" fill="#000000"/><rect x="33.0" y="66.0" width="6.0" height="10.0" fill="#ff3f2f"/><rect x="39.0" y="66.0" width="6.0" height="10.0" fill="#ff3f2f"/><rect x="57.0" y="66.0" width="6.0" height="10.0" fill="#ff3f2f"/><rect x="63.0" y="66.0" width="6.0" height="10.0" fill="#ff3f2f"/><rect x="75.0" y="66.0" width="6.0" height="10.0" fill="#ff3f2f"/><rect x="81.0" y="66.0" width="6.0" height="10.0" fill="#ff3f2f"/><rect x="81.0" y="86.0" width="6.0" height="10.0" fill="#ff3f2f"/><rect x="81.0" y="96.0" width="6.0" height="10.0" fill="#ff3f2f"/><rect x="75.0" y="96.0" width="6.0" height="10.0" fill="#ff3f2f"/><rect x="57.0" y="96.0" width="6.0" height="10.0" fill="#ff3f2f"/><rect x="51.0" y="96.0" width="6.0" height="10.0" fill="#ff3f2f"/><rect x="39.0" y="96.0" width="6.0" height="10.0" fill="#ff3f2f"/><rect x="33.0" y="96.0" width="6.0" height="10.0" fill="#ff3f2f"/><rect x="27.0" y="76.0" width="6.0" height="10.0" fill="#ff3f2f"/><rect x="99.0" y="66.0" width="6.0" height="10.0" fill="#000000"/><rect x="105.0" y="66.0" width="6.0" height="10.0" fill="#000000"/><rect x="117.0" y="66.0" width="6.0" height="10.0" fill="#000000"/><rect x="123.0" y="66.0" width="6.0" height="10.0" fill="#000000"/><rect x="135.0" y="66.0" width="6.0" height="10.0" fill="#000000"/><rect x="141.0" y="66.0" width="6.0" height="10.0" fill="#000000"/><rect x="135.0" y="96.0" width="6.0" height="10.0" fill="#000000"/><rect x="129.0" y="96.0" width="6.0" height="10.0" fill="#000000"/><rect x="123.0" y="96.0" width="6.0" height="10.0" fill="#000000"/><rect x="111.0" y="96.0" width="6.0" height="10.0" fill="#000000"/><rect x="105.0" y="96.0" width="6.0" height="10.0" fill="#000000"/><rect x="99.0" y="96.0" width="6.0" height="10.0" fill="#000000"/><rect x="87.0" y="96.0" width="6.0" height="10.0" fill="#000000"/><rect x="87.0" y="86.0" width="6.0" height="10.0" fill="#000000"/></g><g clip-path="url(#grid-clip-38f16bf2f6959b3b-2x2)" data-channel="ellipse" data-ellipse-anchor-x="27.0" data-ellipse-anchor-y="26.0" data-ellipse-rx="31.728851224083105" data-ellipse-ry="73.26480191742827" data-ellipse-rotation-deg="60.0"><ellipse cx="27.0" cy="26.0" rx="31.728851224083105" ry="73.26480191742827" transform="rotate(60.0 27.0 26.0)" fill="#ffffff" fill-opacity="0.4"/></g><g><g data-channel="cell" data-cell-index="0" data-cell-row="0" data-cell-col="0" data-cell-quartile="3"><rect x="33.0" y="36.0" width="48.0" height="20.0" fill="#6c6568"/><text x="57.0" y="46.0" fill="#ffffff" style="font-family: &quot;JetBrains Mono&quot;, &quot;Menlo&quot;, &quot;Consolas&quot;, &quot;DejaVu Sans Mono&quot;, &quot;Liberation Mono&quot;, &quot;Roboto Mono&quot;, &quot;Noto Sans Mono&quot;, monospace; font-size: 16.0px;" text-anchor="middle" dominant-baseline="central">aGVs</text><polygon points="81.0,56.0 81.0,46.0 71.0,56.0" fill="#ffffff"/></g><g data-channel="cell" data-cell-index="1" data-cell-row="0" data-cell-col="1" data-cell-quartile="1"><rect x="93.0" y="36.0" width="48.0" height="20.0" fill="#206f6c"/><text x="117.0" y="46.0" fill="#ffffff" style="font-family: &quot;JetBrains Mono&quot;, &quot;Menlo&quot;, &quot;Consolas&quot;, &quot;DejaVu Sans Mono&quot;, &quot;Liberation Mono&quot;, &quot;Roboto Mono&quot;, &quot;Noto Sans Mono&quot;, monospace; font-size: 16.0px;" text-anchor="middle" dominant-baseline="central">bG8g</text><polygon points="93.0,36.0 103.0,36.0 93.0,46.0" fill="#ffffff"/></g><g data-channel="cell" data-cell-index="2" data-cell-row="1" data-cell-col="0" data-cell-quartile="2"><rect x="33.0" y="76.0" width="48.0" height="20.0" fill="#726f77"/><text x="57.0" y="86.0" fill="#ffffff" style="font-family: &quot;JetBrains Mono&quot;, &quot;Menlo&quot;, &quot;Consolas&quot;, &quot;DejaVu Sans Mono&quot;, &quot;Liberation Mono&quot;, &quot;Roboto Mono&quot;, &quot;Noto Sans Mono&quot;, monospace; font-size: 16.0px;" text-anchor="middle" dominant-baseline="central">d29y</text><polygon points="81.0,76.0 71.0,76.0 81.0,86.0" fill="#ffffff"/></g><g data-channel="cell" data-cell-index="3" data-cell-row="1" data-cell-col="1" data-cell-quartile="4"><rect x="93.0" y="76.0" width="48.0" height="20.0" fill="#10646c"/><text x="117.0" y="86.0" fill="#ffffff" style="font-family: &quot;JetBrains Mono&quot;, &quot;Menlo&quot;, &quot;Consolas&quot;, &quot;DejaVu Sans Mono&quot;, &quot;Liberation Mono&quot;, &quot;Roboto Mono&quot;, &quot;Noto Sans Mono&quot;, monospace; font-size: 16.0px;" text-anchor="middle" dominant-baseline="central">bGQ</text><polygon points="93.0,96.0 93.0,86.0 103.0,96.0" fill="#ffffff"/></g></g></g><g data-channel="color-bar"><g data-color-bar-rank="0" data-color-bar-band="R"><rect x="1" y="1" width="20.0" height="42.41437870839408" fill="#ff3f2f"/><text x="11.0" y="39.89437870839408" fill="#000000" style="font-family: &quot;JetBrains Mono&quot;, &quot;Menlo&quot;, &quot;Consolas&quot;, &quot;DejaVu Sans Mono&quot;, &quot;Liberation Mono&quot;, &quot;Roboto Mono&quot;, &quot;Noto Sans Mono&quot;, monospace; font-size: 16.0px;" text-anchor="middle" data-color-bar-letter="true">r</text></g><g data-color-bar-rank="1" data-color-bar-band="W"><rect x="1" y="43.41437870839408" width="20.0" height="24.86253009737651" fill="#ffffff"/><text x="11.0" y="64.75690880577059" fill="#000000" style="font-family: &quot;JetBrains Mono&quot;, &quot;Menlo&quot;, &quot;Consolas&quot;, &quot;DejaVu Sans Mono&quot;, &quot;Liberation Mono&quot;, &quot;Roboto Mono&quot;, &quot;Noto Sans Mono&quot;, monospace; font-size: 16.0px;" text-anchor="middle" data-color-bar-letter="true">w</text></g><g data-color-bar-rank="2" data-color-bar-band="K"><rect x="1" y="68.27690880577059" width="20.0" height="24.86253009737651" fill="#000000"/><text x="11.0" y="89.6194389031471" fill="#ffffff" style="font-family: &quot;JetBrains Mono&quot;, &quot;Menlo&quot;, &quot;Consolas&quot;, &quot;DejaVu Sans Mono&quot;, &quot;Liberation Mono&quot;, &quot;Roboto Mono&quot;, &quot;Noto Sans Mono&quot;, monospace; font-size: 16.0px;" text-anchor="middle" data-color-bar-letter="true">k</text></g><g data-color-bar-rank="3" data-color-bar-band="G"><rect x="1" y="93.1394389031471" width="20.0" height="17.860561096852905" fill="#e7be00"/><text x="11.0" y="107.48" fill="#000000" style="font-family: &quot;JetBrains Mono&quot;, &quot;Menlo&quot;, &quot;Consolas&quot;, &quot;DejaVu Sans Mono&quot;, &quot;Liberation Mono&quot;, &quot;Roboto Mono&quot;, &quot;Noto Sans Mono&quot;, monospace; font-size: 16.0px;" text-anchor="middle" data-color-bar-letter="true">g</text></g></g><g data-channel="label-top"><text x="27.0" y="16.0" fill="#666666" style="font-family: &quot;JetBrains Mono&quot;, &quot;Menlo&quot;, &quot;Consolas&quot;, &quot;DejaVu Sans Mono&quot;, &quot;Liberation Mono&quot;, &quot;Roboto Mono&quot;, &quot;Noto Sans Mono&quot;, monospace; font-size: 12.0px;" dominant-baseline="central">txt(11)-&gt;b64url:</text></g><line x1="0" y1="0.5" x2="153.0" y2="0.5" stroke="#808080" stroke-width="1" shape-rendering="crispEdges"/><line x1="152.5" y1="0" x2="152.5" y2="112.0" stroke="#808080" stroke-width="1" shape-rendering="crispEdges"/><line x1="0" y1="111.5" x2="153.0" y2="111.5" stroke="#808080" stroke-width="1" shape-rendering="crispEdges"/><line x1="0.5" y1="0" x2="0.5" y2="112.0" stroke="#808080" stroke-width="1" shape-rendering="crispEdges"/><line x1="21.5" y1="0" x2="21.5" y2="112.0" stroke="#808080" stroke-width="1" shape-rendering="crispEdges"/></svg>