<svg width="263.0" height="277.0" viewBox="0 0 263.0 277.0" xmlns="http://www.w3.org/2000/svg" data-entviz-version="v5" data-input-bytes="256" data-cols="4" data-rows="6" data-truncated="true"><defs><clipPath id="grid-clip-c479c3873cc56621-4x6"><rect x="17.0" y="31.0" width="240.0" height="240.0"/></clipPath></defs><rect x="0" y="0" width="263.0" height="277.0" fill="#ffffff"/><g data-channel="grid"><rect x="17.0" y="31.0" width="240.0" height="240.0" fill="#ffffff"/><g><rect x="17.0" y="31.0" width="6.0" height="10.0" fill="#000000"/><rect x="23.0" y="31.0" width="6.0" height="10.0" fill="#000000"/><rect x="53.0" y="31.0" width="6.0" height="10.0" fill="#000000"/><rect x="59.0" y="31.0" width="6.0" height="10.0" fill="#000000"/><rect x="65.0" y="31.0" width="6.0" height="10.0" fill="#000000"/><rect x="71.0" y="51.0" width="6.0" height="10.0" fill="#000000"/><rect x="71.0" y="61.0" width="6.0" height="10.0" fill="#000000"/><rect x="65.0" y="61.0" width="6.0" height="10.0" fill="#000000"/><rect x="59.0" y="61.0" width="6.0" height="10.0" fill="#000000"/><rect x="35.0" y="61.0" width="6.0" height="10.0" fill="#000000"/><rect x="17.0" y="51.0" width="6.0" height="10.0" fill="#000000"/><rect x="17.0" y="41.0" width="6.0" height="10.0" fill="#000000"/><rect x="77.0" y="31.0" width="6.0" height="10.0" fill="#ffd966"/><rect x="89.0" y="31.0" width="6.0" height="10.0" fill="#ffd966"/><rect x="113.0" y="31.0" width="6.0" height="10.0" fill="#ffd966"/><rect x="119.0" y="31.0" width="6.0" height="10.0" fill="#ffd966"/><rect x="131.0" y="41.0" width="6.0" height="10.0" fill="#ffd966"/><rect x="131.0" y="51.0" width="6.0" height="10.0" fill="#ffd966"/><rect x="131.0" y="61.0" width="6.0" height="10.0" fill="#ffd966"/><rect x="125.0" y="61.0" width="6.0" height="10.0" fill="#ffd966"/><rect x="107.0" y="61.0" width="6.0" height="10.0" fill="#ffd966"/><rect x="101.0" y="61.0" width="6.0" height="10.0" fill="#ffd966"/><rect x="95.0" y="61.0" width="6.0" height="10.0" fill="#ffd966"/><rect x="77.0" y="41.0" width="6.0" height="10.0" fill="#ffd966"/><rect x="137.0" y="31.0" width="6.0" height="10.0" fill="#2f3fbf"/><rect x="143.0" y="31.0" width="6.0" height="10.0" fill="#2f3fbf"/><rect x="185.0" y="31.0" width="6.0" height="10.0" fill="#2f3fbf"/><rect x="185.0" y="61.0" width="6.0" height="10.0" fill="#2f3fbf"/><rect x="161.0" y="61.0" width="6.0" height="10.0" fill="#2f3fbf"/><rect x="155.0" y="61.0" width="6.0" height="10.0" fill="#2f3fbf"/><rect x="137.0" y="61.0" width="6.0" height="10.0" fill="#2f3fbf"/><rect x="137.0" y="51.0" width="6.0" height="10.0" fill="#2f3fbf"/><rect x="197.0" y="31.0" width="6.0" height="10.0" fill="#000000"/><rect x="203.0" y="31.0" width="6.0" height="10.0" fill="#000000"/><rect x="209.0" y="31.0" width="6.0" height="10.0" fill="#000000"/><rect x="215.0" y="31.0" width="6.0" height="10.0" fill="#000000"/><rect x="221.0" y="31.0" width="6.0" height="10.0" fill="#000000"/><rect x="227.0" y="31.0" width="6.0" height="10.0" fill="#000000"/><rect x="233.0" y="31.0" width="6.0" height="10.0" fill="#000000"/><rect x="245.0" y="31.0" width="6.0" height="10.0" fill="#000000"/><rect x="251.0" y="41.0" width="6.0" height="10.0" fill="#000000"/><rect x="251.0" y="61.0" width="6.0" height="10.0" fill="#000000"/><rect x="245.0" y="61.0" width="6.0" height="10.0" fill="#000000"/><rect x="233.0" y="61.0" width="6.0" height="10.0" fill="#000000"/><rect x="227.0" y="61.0" width="6.0" height="10.0" fill="#000000"/><rect x="197.0" y="61.0" width="6.0" height="10.0" fill="#000000"/><rect x="197.0" y="51.0" width="6.0" height="10.0" fill="#000000"/><rect x="23.0" y="71.0" width="6.0" height="10.0" fill="#ffd966"/><rect x="29.0" y="71.0" width="6.0" height="10.0" fill="#ffd966"/><rect x="41.0" y="71.0" width="6.0" height="10.0" fill="#ffd966"/><rect x="53.0" y="71.0" width="6.0" height="10.0" fill="#ffd966"/><rect x="65.0" y="71.0" width="6.0" height="10.0" fill="#ffd966"/><rect x="71.0" y="71.0" width="6.0" height="10.0" fill="#ffd966"/><rect x="71.0" y="81.0" width="6.0" height="10.0" fill="#ffd966"/><rect x="65.0" y="101.0" width="6.0" height="10.0" fill="#ffd966"/><rect x="35.0" y="101.0" width="6.0" height="10.0" fill="#ffd966"/><rect x="23.0" y="101.0" width="6.0" height="10.0" fill="#ffd966"/><rect x="17.0" y="91.0" width="6.0" height="10.0" fill="#ffd966"/><rect x="77.0" y="71.0" width="6.0" height="10.0" fill="#2f3fbf"/><rect x="95.0" y="71.0" width="6.0" height="10.0" fill="#2f3fbf"/><rect x="101.0" y="71.0" width="6.0" height="10.0" fill="#2f3fbf"/><rect x="131.0" y="91.0" width="6.0" height="10.0" fill="#2f3fbf"/><rect x="125.0" y="101.0" width="6.0" height="10.0" fill="#2f3fbf"/><rect x="119.0" y="101.0" width="6.0" height="10.0" fill="#2f3fbf"/><rect x="101.0" y="101.0" width="6.0" height="10.0" fill="#2f3fbf"/><rect x="95.0" y="101.0" width="6.0" height="10.0" fill="#2f3fbf"/><rect x="83.0" y="101.0" width="6.0" height="10.0" fill="#2f3fbf"/><rect x="137.0" y="71.0" width="6.0" height="10.0" fill="#ff3f2f"/><rect x="161.0" y="71.0" width="6.0" height="10.0" fill="#ff3f2f"/><rect x="167.0" y="71.0" width="6.0" height="10.0" fill="#ff3f2f"/><rect x="173.0" y="71.0" width="6.0" height="10.0" fill="#ff3f2f"/><rect x="185.0" y="71.0" width="6.0" height="10.0" fill="#ff3f2f"/><rect x="191.0" y="71.0" width="6.0" height="10.0" fill="#ff3f2f"/><rect x="191.0" y="81.0" width="6.0" height="10.0" fill="#ff3f2f"/><rect x="185.0" y="101.0" width="6.0" height="10.0" fill="#ff3f2f"/><rect x="179.0" y="101.0" width="6.0" height="10.0" fill="#ff3f2f"/><rect x="173.0" y="101.0" width="6.0" height="10.0" fill="#ff3f2f"/><rect x="149.0" y="101.0" width="6.0" height="10.0" fill="#ff3f2f"/><rect x="143.0" y="101.0" width="6.0" height="10.0" fill="#ff3f2f"/><rect x="137.0" y="101.0" width="6.0" height="10.0" fill="#ff3f2f"/><rect x="209.0" y="71.0" width="6.0" height="10.0" fill="#ffd966"/><rect x="227.0" y="71.0" width="6.0" height="10.0" fill="#ffd966"/><rect x="233.0" y="71.0" width="6.0" height="10.0" fill="#ffd966"/><rect x="239.0" y="71.0" width="6.0" height="10.0" fill="#ffd966"/><rect x="251.0" y="71.0" width="6.0" height="10.0" fill="#ffd966"/><rect x="251.0" y="81.0" width="6.0" height="10.0" fill="#ffd966"/><rect x="251.0" y="91.0" width="6.0" height="10.0" fill="#ffd966"/><rect x="251.0" y="101.0" width="6.0" height="10.0" fill="#ffd966"/><rect x="245.0" y="101.0" width="6.0" height="10.0" fill="#ffd966"/><rect x="227.0" y="101.0" width="6.0" height="10.0" fill="#ffd966"/><rect x="221.0" y="101.0" width="6.0" height="10.0" fill="#ffd966"/><rect x="215.0" y="101.0" width="6.0" height="10.0" fill="#ffd966"/><rect x="203.0" y="101.0" width="6.0" height="10.0" fill="#ffd966"/><rect x="197.0" y="91.0" width="6.0" height="10.0" fill="#ffd966"/><rect x="89.0" y="111.0" width="6.0" height="10.0" fill="#000000"/><rect x="101.0" y="111.0" width="6.0" height="10.0" fill="#000000"/><rect x="107.0" y="111.0" width="6.0" height="10.0" fill="#000000"/><rect x="113.0" y="111.0" width="6.0" height="10.0" fill="#000000"/><rect x="125.0" y="111.0" width="6.0" height="10.0" fill="#000000"/><rect x="131.0" y="121.0" width="6.0" height="10.0" fill="#000000"/><rect x="131.0" y="131.0" width="6.0" height="10.0" fill="#000000"/><rect x="131.0" y="141.0" width="6.0" height="10.0" fill="#000000"/><rect x="107.0" y="141.0" width="6.0" height="10.0" fill="#000000"/><rect x="101.0" y="141.0" width="6.0" height="10.0" fill="#000000"/><rect x="95.0" y="141.0" width="6.0" height="10.0" fill="#000000"/><rect x="83.0" y="141.0" width="6.0" height="10.0" fill="#000000"/><rect x="77.0" y="141.0" width="6.0" height="10.0" fill="#000000"/><rect x="77.0" y="121.0" width="6.0" height="10.0" fill="#000000"/><rect x="143.0" y="111.0" width="6.0" height="10.0" fill="#000000"/><rect x="167.0" y="111.0" width="6.0" height="10.0" fill="#000000"/><rect x="179.0" y="111.0" width="6.0" height="10.0" fill="#000000"/><rect x="185.0" y="111.0" width="6.0" height="10.0" fill="#000000"/><rect x="191.0" y="111.0" width="6.0" height="10.0" fill="#000000"/><rect x="191.0" y="121.0" width="6.0" height="10.0" fill="#000000"/><rect x="191.0" y="131.0" width="6.0" height="10.0" fill="#000000"/><rect x="191.0" y="141.0" width="6.0" height="10.0" fill="#000000"/><rect x="173.0" y="141.0" width="6.0" height="10.0" fill="#000000"/><rect x="149.0" y="141.0" width="6.0" height="10.0" fill="#000000"/><rect x="143.0" y="141.0" width="6.0" height="10.0" fill="#000000"/><rect x="137.0" y="131.0" width="6.0" height="10.0" fill="#000000"/><rect x="197.0" y="111.0" width="6.0" height="10.0" fill="#000000"/><rect x="239.0" y="111.0" width="6.0" height="10.0" fill="#000000"/><rect x="245.0" y="111.0" width="6.0" height="10.0" fill="#000000"/><rect x="251.0" y="111.0" width="6.0" height="10.0" fill="#000000"/><rect x="251.0" y="141.0" width="6.0" height="10.0" fill="#000000"/><rect x="245.0" y="141.0" width="6.0" height="10.0" fill="#000000"/><rect x="239.0" y="141.0" width="6.0" height="10.0" fill="#000000"/><rect x="221.0" y="141.0" width="6.0" height="10.0" fill="#000000"/><rect x="203.0" y="141.0" width="6.0" height="10.0" fill="#000000"/><rect x="197.0" y="131.0" width="6.0" height="10.0" fill="#000000"/><rect x="197.0" y="121.0" width="6.0" height="10.0" fill="#000000"/><rect x="17.0" y="151.0" width="6.0" height="10.0" fill="#000000"/><rect x="41.0" y="151.0" width="6.0" height="10.0" fill="#000000"/><rect x="47.0" y="151.0" width="6.0" height="10.0" fill="#000000"/><rect x="65.0" y="151.0" width="6.0" height="10.0" fill="#000000"/><rect x="71.0" y="161.0" width="6.0" height="10.0" fill="#000000"/><rect x="71.0" y="171.0" width="6.0" height="10.0" fill="#000000"/><rect x="71.0" y="181.0" width="6.0" height="10.0" fill="#000000"/><rect x="59.0" y="181.0" width="6.0" height="10.0" fill="#000000"/><rect x="53.0" y="181.0" width="6.0" height="10.0" fill="#000000"/><rect x="47.0" y="181.0" width="6.0" height="10.0" fill="#000000"/><rect x="35.0" y="181.0" width="6.0" height="10.0" fill="#000000"/><rect x="29.0" y="181.0" width="6.0" height="10.0" fill="#000000"/><rect x="17.0" y="181.0" width="6.0" height="10.0" fill="#000000"/><rect x="17.0" y="161.0" width="6.0" height="10.0" fill="#000000"/><rect x="185.0" y="151.0" width="6.0" height="10.0" fill="#000000"/><rect x="191.0" y="161.0" width="6.0" height="10.0" fill="#000000"/><rect x="191.0" y="181.0" width="6.0" height="10.0" fill="#000000"/><rect x="179.0" y="181.0" width="6.0" height="10.0" fill="#000000"/><rect x="167.0" y="181.0" width="6.0" height="10.0" fill="#000000"/><rect x="155.0" y="181.0" width="6.0" height="10.0" fill="#000000"/><rect x="143.0" y="181.0" width="6.0" height="10.0" fill="#000000"/><rect x="137.0" y="181.0" width="6.0" height="10.0" fill="#000000"/><rect x="137.0" y="171.0" width="6.0" height="10.0" fill="#000000"/><rect x="197.0" y="151.0" width="6.0" height="10.0" fill="#ffd966"/><rect x="203.0" y="151.0" width="6.0" height="10.0" fill="#ffd966"/><rect x="209.0" y="151.0" width="6.0" height="10.0" fill="#ffd966"/><rect x="251.0" y="161.0" width="6.0" height="10.0" fill="#ffd966"/><rect x="251.0" y="171.0" width="6.0" height="10.0" fill="#ffd966"/><rect x="251.0" y="181.0" width="6.0" height="10.0" fill="#ffd966"/><rect x="245.0" y="181.0" width="6.0" height="10.0" fill="#ffd966"/><rect x="239.0" y="181.0" width="6.0" height="10.0" fill="#ffd966"/><rect x="233.0" y="181.0" width="6.0" height="10.0" fill="#ffd966"/><rect x="209.0" y="181.0" width="6.0" height="10.0" fill="#ffd966"/><rect x="203.0" y="181.0" width="6.0" height="10.0" fill="#ffd966"/><rect x="197.0" y="171.0" width="6.0" height="10.0" fill="#ffd966"/><rect x="53.0" y="191.0" width="6.0" height="10.0" fill="#2f3fbf"/><rect x="59.0" y="191.0" width="6.0" height="10.0" fill="#2f3fbf"/><rect x="71.0" y="221.0" width="6.0" height="10.0" fill="#2f3fbf"/><rect x="65.0" y="221.0" width="6.0" height="10.0" fill="#2f3fbf"/><rect x="35.0" y="221.0" width="6.0" height="10.0" fill="#2f3fbf"/><rect x="17.0" y="211.0" width="6.0" height="10.0" fill="#2f3fbf"/><rect x="77.0" y="191.0" width="6.0" height="10.0" fill="#000000"/><rect x="83.0" y="191.0" width="6.0" height="10.0" fill="#000000"/><rect x="89.0" y="191.0" width="6.0" height="10.0" fill="#000000"/><rect x="95.0" y="191.0" width="6.0" height="10.0" fill="#000000"/><rect x="101.0" y="191.0" width="6.0" height="10.0" fill="#000000"/><rect x="119.0" y="191.0" width="6.0" height="10.0" fill="#000000"/><rect x="131.0" y="221.0" width="6.0" height="10.0" fill="#000000"/><rect x="125.0" y="221.0" width="6.0" height="10.0" fill="#000000"/><rect x="107.0" y="221.0" width="6.0" height="10.0" fill="#000000"/><rect x="101.0" y="221.0" width="6.0" height="10.0" fill="#000000"/><rect x="89.0" y="221.0" width="6.0" height="10.0" fill="#000000"/><rect x="77.0" y="221.0" width="6.0" height="10.0" fill="#000000"/><rect x="143.0" y="191.0" width="6.0" height="10.0" fill="#ffd966"/><rect x="161.0" y="191.0" width="6.0" height="10.0" fill="#ffd966"/><rect x="167.0" y="191.0" width="6.0" height="10.0" fill="#ffd966"/><rect x="173.0" y="191.0" width="6.0" height="10.0" fill="#ffd966"/><rect x="185.0" y="191.0" width="6.0" height="10.0" fill="#ffd966"/><rect x="191.0" y="191.0" width="6.0" height="10.0" fill="#ffd966"/><rect x="191.0" y="201.0" width="6.0" height="10.0" fill="#ffd966"/><rect x="191.0" y="211.0" width="6.0" height="10.0" fill="#ffd966"/><rect x="185.0" y="221.0" width="6.0" height="10.0" fill="#ffd966"/><rect x="179.0" y="221.0" width="6.0" height="10.0" fill="#ffd966"/><rect x="173.0" y="221.0" width="6.0" height="10.0" fill="#ffd966"/><rect x="167.0" y="221.0" width="6.0" height="10.0" fill="#ffd966"/><rect x="149.0" y="221.0" width="6.0" height="10.0" fill="#ffd966"/><rect x="137.0" y="221.0" width="6.0" height="10.0" fill="#ffd966"/><rect x="137.0" y="201.0" width="6.0" height="10.0" fill="#ffd966"/><rect x="203.0" y="191.0" width="6.0" height="10.0" fill="#2f3fbf"/><rect x="221.0" y="191.0" width="6.0" height="10.0" fill="#2f3fbf"/><rect x="233.0" y="191.0" width="6.0" height="10.0" fill="#2f3fbf"/><rect x="251.0" y="211.0" width="6.0" height="10.0" fill="#2f3fbf"/><rect x="245.0" y="221.0" width="6.0" height="10.0" fill="#2f3fbf"/><rect x="239.0" y="221.0" width="6.0" height="10.0" fill="#2f3fbf"/><rect x="233.0" y="221.0" width="6.0" height="10.0" fill="#2f3fbf"/><rect x="221.0" y="221.0" width="6.0" height="10.0" fill="#2f3fbf"/><rect x="203.0" y="221.0" width="6.0" height="10.0" fill="#2f3fbf"/><rect x="197.0" y="211.0" width="6.0" height="10.0" fill="#2f3fbf"/><rect x="29.0" y="231.0" width="6.0" height="10.0" fill="#ff3f2f"/><rect x="35.0" y="231.0" width="6.0" height="10.0" fill="#ff3f2f"/><rect x="41.0" y="231.0" width="6.0" height="10.0" fill="#ff3f2f"/><rect x="71.0" y="231.0" width="6.0" height="10.0" fill="#ff3f2f"/><rect x="71.0" y="241.0" width="6.0" height="10.0" fill="#ff3f2f"/><rect x="71.0" y="251.0" width="6.0" height="10.0" fill="#ff3f2f"/><rect x="71.0" y="261.0" width="6.0" height="10.0" fill="#ff3f2f"/><rect x="65.0" y="261.0" width="6.0" height="10.0" fill="#ff3f2f"/><rect x="59.0" y="261.0" width="6.0" height="10.0" fill="#ff3f2f"/><rect x="47.0" y="261.0" width="6.0" height="10.0" fill="#ff3f2f"/><rect x="35.0" y="261.0" width="6.0" height="10.0" fill="#ff3f2f"/><rect x="23.0" y="261.0" width="6.0" height="10.0" fill="#ff3f2f"/><rect x="17.0" y="261.0" width="6.0" height="10.0" fill="#ff3f2f"/><rect x="17.0" y="251.0" width="6.0" height="10.0" fill="#ff3f2f"/><rect x="17.0" y="241.0" width="6.0" height="10.0" fill="#ff3f2f"/><rect x="77.0" y="231.0" width="6.0" height="10.0" fill="#ffd966"/><rect x="83.0" y="231.0" width="6.0" height="10.0" fill="#ffd966"/><rect x="89.0" y="231.0" width="6.0" height="10.0" fill="#ffd966"/><rect x="95.0" y="231.0" width="6.0" height="10.0" fill="#ffd966"/><rect x="101.0" y="231.0" width="6.0" height="10.0" fill="#ffd966"/><rect x="125.0" y="231.0" width="6.0" height="10.0" fill="#ffd966"/><rect x="131.0" y="231.0" width="6.0" height="10.0" fill="#ffd966"/><rect x="131.0" y="251.0" width="6.0" height="10.0" fill="#ffd966"/><rect x="125.0" y="261.0" width="6.0" height="10.0" fill="#ffd966"/><rect x="107.0" y="261.0" width="6.0" height="10.0" fill="#ffd966"/><rect x="101.0" y="261.0" width="6.0" height="10.0" fill="#ffd966"/><rect x="83.0" y="261.0" width="6.0" height="10.0" fill="#ffd966"/></g><g clip-path="url(#grid-clip-c479c3873cc56621-4x6)" data-channel="ellipse" data-ellipse-anchor-x="137.0" data-ellipse-anchor-y="191.0" data-ellipse-rx="66.66666666666667" data-ellipse-ry="40.0" data-ellipse-rotation-deg="48.0"><ellipse cx="137.0" cy="191.0" rx="66.66666666666667" ry="40.0" transform="rotate(48.0 137.0 191.0)" fill="#000000" fill-opacity="0.2"/></g><g><g data-channel="cell" data-cell-index="0" data-cell-row="0" data-cell-col="0" data-cell-quartile="2"><rect x="23.0" y="41.0" width="48.0" height="20.0" fill="#452301"/><text x="47.0" y="51.0" fill="#ffffff" style="font-family: &quot;DejaVu Sans Mono&quot;, &quot;Consolas&quot;, &quot;Menlo&quot;, &quot;Liberation Mono&quot;, monospace; font-size: 12.0px;" text-anchor="middle" dominant-baseline="central">012345</text><polygon points="71.0,41.0 61.0,41.0 71.0,51.0" fill="#ffffff"/></g><g data-channel="cell" data-cell-index="1" data-cell-row="0" data-cell-col="1"><rect x="83.0" y="41.0" width="48.0" height="20.0" fill="#ab8967"/><text x="107.0" y="51.0" fill="#000000" style="font-family: &quot;DejaVu Sans Mono&quot;, &quot;Consolas&quot;, &quot;Menlo&quot;, &quot;Liberation Mono&quot;, monospace; font-size: 12.0px;" text-anchor="middle" dominant-baseline="central">6789ab</text></g><g data-channel="cell" data-cell-index="2" data-cell-row="0" data-cell-col="2"><rect x="143.0" y="41.0" width="48.0" height="20.0" fill="#01efcd"/><text x="167.0" y="51.0" fill="#000000" style="font-family: &quot;DejaVu Sans Mono&quot;, &quot;Consolas&quot;, &quot;Menlo&quot;, &quot;Liberation Mono&quot;, monospace; font-size: 12.0px;" text-anchor="middle" dominant-baseline="central">cdef01</text></g><g data-channel="cell" data-cell-index="3" data-cell-row="0" data-cell-col="3"><rect x="203.0" y="41.0" width="48.0" height="20.0" fill="#674523"/><text x="227.0" y="51.0" fill="#ffffff" style="font-family: &quot;DejaVu Sans Mono&quot;, &quot;Consolas&quot;, &quot;Menlo&quot;, &quot;Liberation Mono&quot;, monospace; font-size: 12.0px;" text-anchor="middle" dominant-baseline="central">234567</text></g><g data-channel="cell" data-cell-index="4" data-cell-row="1" data-cell-col="0"><rect x="23.0" y="81.0" width="48.0" height="20.0" fill="#cdab89"/><text x="47.0" y="91.0" fill="#000000" style="font-family: &quot;DejaVu Sans Mono&quot;, &quot;Consolas&quot;, &quot;Menlo&quot;, &quot;Liberation Mono&quot;, monospace; font-size: 12.0px;" text-anchor="middle" dominant-baseline="central">89abcd</text></g><g data-channel="cell" data-cell-index="5" data-cell-row="1" data-cell-col="1" data-cell-quartile="3"><rect x="83.0" y="81.0" width="48.0" height="20.0" fill="#2301ef"/><text x="107.0" y="91.0" fill="#ffffff" style="font-family: &quot;DejaVu Sans Mono&quot;, &quot;Consolas&quot;, &quot;Menlo&quot;, &quot;Liberation Mono&quot;, monospace; font-size: 12.0px;" text-anchor="middle" dominant-baseline="central">ef0123</text><polygon points="131.0,101.0 131.0,91.0 121.0,101.0" fill="#ffffff"/></g><g data-channel="cell" data-cell-index="6" data-cell-row="1" data-cell-col="2"><rect x="143.0" y="81.0" width="48.0" height="20.0" fill="#896745"/><text x="167.0" y="91.0" fill="#ffffff" style="font-family: &quot;DejaVu Sans Mono&quot;, &quot;Consolas&quot;, &quot;Menlo&quot;, &quot;Liberation Mono&quot;, monospace; font-size: 12.0px;" text-anchor="middle" dominant-baseline="central">456789</text></g><g data-channel="cell" data-cell-index="7" data-cell-row="1" data-cell-col="3"><rect x="203.0" y="81.0" width="48.0" height="20.0" fill="#efcdab"/><text x="227.0" y="91.0" fill="#000000" style="font-family: &quot;DejaVu Sans Mono&quot;, &quot;Consolas&quot;, &quot;Menlo&quot;, &quot;Liberation Mono&quot;, monospace; font-size: 12.0px;" text-anchor="middle" dominant-baseline="central">abcdef</text></g><g data-channel="cell" data-cell-index="8" data-cell-row="2" data-cell-col="0" data-cell-blank="true" data-cell-blank-marker="true"><circle cx="47.0" cy="131.0" r="17.0" fill="#ffffff" stroke="#000000" stroke-width="1"/><line x1="47.0" y1="131.0" x2="47.0" y2="149.0" stroke="#ffffff" style="mix-blend-mode: difference" stroke-width="1"/><line x1="47.0" y1="131.0" x2="50.80131556174965" y2="138.6026311234993" stroke="#000000" stroke-width="1"/><circle cx="50.80131556174965" cy="138.6026311234993" r="1.5" fill="#ffffff" stroke="#000000" stroke-width="1"/></g><g data-channel="cell" data-cell-index="9" data-cell-row="2" data-cell-col="1" data-cell-quartile="1"><rect x="83.0" y="121.0" width="48.0" height="20.0" fill="#452301"/><text x="107.0" y="131.0" fill="#ffffff" style="font-family: &quot;DejaVu Sans Mono&quot;, &quot;Consolas&quot;, &quot;Menlo&quot;, &quot;Liberation Mono&quot;, monospace; font-size: 12.0px;" text-anchor="middle" dominant-baseline="central">012345</text><polygon points="83.0,121.0 93.0,121.0 83.0,131.0" fill="#ffffff"/></g><g data-channel="cell" data-cell-index="10" data-cell-row="2" data-cell-col="2" data-cell-quartile="4"><rect x="143.0" y="121.0" width="48.0" height="20.0" fill="#452301"/><text x="167.0" y="131.0" fill="#ffffff" style="font-family: &quot;DejaVu Sans Mono&quot;, &quot;Consolas&quot;, &quot;Menlo&quot;, &quot;Liberation Mono&quot;, monospace; font-size: 12.0px;" text-anchor="middle" dominant-baseline="central">012345</text><polygon points="143.0,141.0 143.0,131.0 153.0,141.0" fill="#ffffff"/></g><g data-channel="cell" data-cell-index="11" data-cell-row="2" data-cell-col="3"><rect x="203.0" y="121.0" width="48.0" height="20.0" fill="#452301"/><text x="227.0" y="131.0" fill="#ffffff" style="font-family: &quot;DejaVu Sans Mono&quot;, &quot;Consolas&quot;, &quot;Menlo&quot;, &quot;Liberation Mono&quot;, monospace; font-size: 12.0px;" text-anchor="middle" dominant-baseline="central">012345</text></g><g data-channel="cell" data-cell-index="12" data-cell-row="3" data-cell-col="0"><rect x="23.0" y="161.0" width="48.0" height="20.0" fill="#452301"/><text x="47.0" y="171.0" fill="#ffffff" style="font-family: &quot;DejaVu Sans Mono&quot;, &quot;Consolas&quot;, &quot;Menlo&quot;, &quot;Liberation Mono&quot;, monospace; font-size: 12.0px;" text-anchor="middle" dominant-baseline="central">012345</text></g><g data-channel="cell" data-cell-index="13" data-cell-row="3" data-cell-col="1" data-cell-blank="true" data-cell-blank-marker="true"><circle cx="107.0" cy="171.0" r="17.0" fill="#ffffff" stroke="#000000" stroke-width="1"/><line x1="107.0" y1="171.0" x2="96.2" y2="185.4" stroke="#ffffff" style="mix-blend-mode: difference" stroke-width="1"/><line x1="107.0" y1="171.0" x2="107.0" y2="179.5" stroke="#000000" stroke-width="1"/><circle cx="107.0" cy="179.5" r="1.5" fill="#ffffff" stroke="#000000" stroke-width="1"/></g><g data-channel="cell" data-cell-index="14" data-cell-row="3" data-cell-col="2"><rect x="143.0" y="161.0" width="48.0" height="20.0" fill="#452301"/><text x="167.0" y="171.0" fill="#ffffff" style="font-family: &quot;DejaVu Sans Mono&quot;, &quot;Consolas&quot;, &quot;Menlo&quot;, &quot;Liberation Mono&quot;, monospace; font-size: 12.0px;" text-anchor="middle" dominant-baseline="central">012345</text></g><g data-channel="cell" data-cell-index="15" data-cell-row="3" data-cell-col="3"><rect x="203.0" y="161.0" width="48.0" height="20.0" fill="#ab8967"/><text x="227.0" y="171.0" fill="#000000" style="font-family: &quot;DejaVu Sans Mono&quot;, &quot;Consolas&quot;, &quot;Menlo&quot;, &quot;Liberation Mono&quot;, monospace; font-size: 12.0px;" text-anchor="middle" dominant-baseline="central">6789ab</text></g><g data-channel="cell" data-cell-index="16" data-cell-row="4" data-cell-col="0"><rect x="23.0" y="201.0" width="48.0" height="20.0" fill="#01efcd"/><text x="47.0" y="211.0" fill="#000000" style="font-family: &quot;DejaVu Sans Mono&quot;, &quot;Consolas&quot;, &quot;Menlo&quot;, &quot;Liberation Mono&quot;, monospace; font-size: 12.0px;" text-anchor="middle" dominant-baseline="central">cdef01</text></g><g data-channel="cell" data-cell-index="17" data-cell-row="4" data-cell-col="1"><rect x="83.0" y="201.0" width="48.0" height="20.0" fill="#674523"/><text x="107.0" y="211.0" fill="#ffffff" style="font-family: &quot;DejaVu Sans Mono&quot;, &quot;Consolas&quot;, &quot;Menlo&quot;, &quot;Liberation Mono&quot;, monospace; font-size: 12.0px;" text-anchor="middle" dominant-baseline="central">234567</text></g><g data-channel="cell" data-cell-index="18" data-cell-row="4" data-cell-col="2"><rect x="143.0" y="201.0" width="48.0" height="20.0" fill="#cdab89"/><text x="167.0" y="211.0" fill="#000000" style="font-family: &quot;DejaVu Sans Mono&quot;, &quot;Consolas&quot;, &quot;Menlo&quot;, &quot;Liberation Mono&quot;, monospace; font-size: 12.0px;" text-anchor="middle" dominant-baseline="central">89abcd</text></g><g data-channel="cell" data-cell-index="19" data-cell-row="4" data-cell-col="3"><rect x="203.0" y="201.0" width="48.0" height="20.0" fill="#2301ef"/><text x="227.0" y="211.0" fill="#ffffff" style="font-family: &quot;DejaVu Sans Mono&quot;, &quot;Consolas&quot;, &quot;Menlo&quot;, &quot;Liberation Mono&quot;, monospace; font-size: 12.0px;" text-anchor="middle" dominant-baseline="central">ef0123</text></g><g data-channel="cell" data-cell-index="20" data-cell-row="5" data-cell-col="0"><rect x="23.0" y="241.0" width="48.0" height="20.0" fill="#896745"/><text x="47.0" y="251.0" fill="#ffffff" style="font-family: &quot;DejaVu Sans Mono&quot;, &quot;Consolas&quot;, &quot;Menlo&quot;, &quot;Liberation Mono&quot;, monospace; font-size: 12.0px;" text-anchor="middle" dominant-baseline="central">456789</text></g><g data-channel="cell" data-cell-index="21" data-cell-row="5" data-cell-col="1"><rect x="83.0" y="241.0" width="48.0" height="20.0" fill="#efcdab"/><text x="107.0" y="251.0" fill="#000000" style="font-family: &quot;DejaVu Sans Mono&quot;, &quot;Consolas&quot;, &quot;Menlo&quot;, &quot;Liberation Mono&quot;, monospace; font-size: 12.0px;" text-anchor="middle" dominant-baseline="central">abcdef</text></g><g data-channel="cell" data-cell-index="22" data-cell-row="5" data-cell-col="2" data-cell-blank="true" data-cell-blank-marker="true"><circle cx="167.0" cy="251.0" r="17.0" fill="#ffffff" stroke="#000000" stroke-width="1"/><line x1="167.0" y1="251.0" x2="149.0" y2="251.0" stroke="#ffffff" style="mix-blend-mode: difference" stroke-width="1"/><line x1="167.0" y1="251.0" x2="158.5" y2="251.0" stroke="#000000" stroke-width="1"/><circle cx="158.5" cy="251.0" r="1.5" fill="#ffffff" stroke="#000000" stroke-width="1"/></g><g data-channel="cell" data-cell-index="23" data-cell-row="5" data-cell-col="3" data-cell-blank="true"/></g></g><g data-channel="color-bar"><g data-color-bar-rank="0" data-color-bar-band="R"><rect x="1" y="1" width="10.0" height="116.12787429702854" fill="#ff3f2f"/><text x="6.0" y="59.06393714851427" fill="#000000" style="font-family: &quot;DejaVu Sans Mono&quot;, &quot;Consolas&quot;, &quot;Menlo&quot;, &quot;Liberation Mono&quot;, monospace; font-size: 8.5px;" text-anchor="middle" dominant-baseline="central" data-color-bar-letter="true">r</text></g><g data-color-bar-rank="1" data-color-bar-band="G"><rect x="1" y="117.12787429702854" width="10.0" height="88.45359777624182" fill="#ffd966"/><text x="6.0" y="161.35467318514947" fill="#000000" style="font-family: &quot;DejaVu Sans Mono&quot;, &quot;Consolas&quot;, &quot;Menlo&quot;, &quot;Liberation Mono&quot;, monospace; font-size: 8.5px;" text-anchor="middle" dominant-baseline="central" data-color-bar-letter="true">g</text></g><g data-color-bar-rank="2" data-color-bar-band="K"><rect x="1" y="205.58147207327036" width="10.0" height="54.83329009516624" fill="#000000"/><text x="6.0" y="232.9981171208535" fill="#ffffff" style="font-family: &quot;DejaVu Sans Mono&quot;, &quot;Consolas&quot;, &quot;Menlo&quot;, &quot;Liberation Mono&quot;, monospace; font-size: 8.5px;" text-anchor="middle" dominant-baseline="central" data-color-bar-letter="true">k</text></g><g data-color-bar-rank="3" data-color-bar-band="B"><rect x="1" y="260.4147621684366" width="10.0" height="15.585237831563404" fill="#2f3fbf"/><text x="6.0" y="268.2073810842183" fill="#ffffff" style="font-family: &quot;DejaVu Sans Mono&quot;, &quot;Consolas&quot;, &quot;Menlo&quot;, &quot;Liberation Mono&quot;, monospace; font-size: 8.5px;" text-anchor="middle" dominant-baseline="central" data-color-bar-letter="true">b</text></g></g><g data-channel="label-top"><text x="17.0" y="16.0" fill="#a00000" style="font-family: &quot;DejaVu Sans Mono&quot;, &quot;Consolas&quot;, &quot;Menlo&quot;, &quot;Liberation Mono&quot;, monospace; font-size: 12.0px;" dominant-baseline="central" font-weight="bold">part of </text><text x="74.6" y="16.0" fill="#666666" style="font-family: &quot;DejaVu Sans Mono&quot;, &quot;Consolas&quot;, &quot;Menlo&quot;, &quot;Liberation Mono&quot;, monospace; font-size: 12.0px;" dominant-baseline="central">hex(256):</text></g><line x1="0" y1="0.5" x2="263.0" y2="0.5" stroke="#808080" stroke-width="1" shape-rendering="crispEdges"/><line x1="262.5" y1="0" x2="262.5" y2="277.0" stroke="#808080" stroke-width="1" shape-rendering="crispEdges"/><line x1="0" y1="276.5" x2="263.0" y2="276.5" stroke="#808080" stroke-width="1" shape-rendering="crispEdges"/><line x1="0.5" y1="0" x2="0.5" y2="277.0" stroke="#808080" stroke-width="1" shape-rendering="crispEdges"/><line x1="11.5" y1="0" x2="11.5" y2="277.0" stroke="#808080" stroke-width="1" shape-rendering="crispEdges"/></svg>