<svg width="213" height="152" viewBox="0 0 213 152" xmlns="http://www.w3.org/2000/svg" font-family="&quot;JetBrains Mono&quot;, &quot;Menlo&quot;, &quot;Consolas&quot;, &quot;DejaVu Sans Mono&quot;, &quot;Liberation Mono&quot;, &quot;Roboto Mono&quot;, &quot;Noto Sans Mono&quot;, monospace" data-entviz-version="v11" data-entviz-lib="0.11.0" data-input-bytes="59" data-cols="3" data-rows="3"><defs><clipPath id="grid-clip-40113285e09174ee-3x3"><rect x="27" y="26" width="180" height="120"/></clipPath></defs><rect x="0" y="0" width="213" height="152" fill="#ffffff"/><g data-channel="grid"><rect x="27" y="26" width="180" height="120" fill="#ffffff"/><g><path fill="#2f3fbf" d="M33 26h6v10h-6zM51 26h6v10h-6zM57 26h6v10h-6zM75 26h6v10h-6zM81 56h6v10h-6zM27 46h6v10h-6z"/><path fill="#ff3f2f" d="M87 26h6v10h-6zM111 26h6v10h-6zM129 26h6v10h-6zM135 56h6v10h-6zM129 56h6v10h-6zM123 56h6v10h-6zM117 56h6v10h-6zM105 56h6v10h-6zM87 36h6v10h-6z"/><path fill="#000000" d="M147 26h6v10h-6zM153 26h6v10h-6zM177 26h6v10h-6zM183 26h6v10h-6zM201 26h6v10h-6zM201 36h6v10h-6zM201 46h6v10h-6zM195 56h6v10h-6zM189 56h6v10h-6zM183 56h6v10h-6zM165 56h6v10h-6zM153 56h6v10h-6zM147 56h6v10h-6zM147 46h6v10h-6z"/><path fill="#e7be00" d="M45 66h6v10h-6zM57 66h6v10h-6zM63 66h6v10h-6zM75 66h6v10h-6zM81 66h6v10h-6zM81 76h6v10h-6zM69 96h6v10h-6zM63 96h6v10h-6zM39 96h6v10h-6zM33 96h6v10h-6zM27 96h6v10h-6zM27 86h6v10h-6zM27 76h6v10h-6z"/><path fill="#e7be00" d="M171 66h6v10h-6zM189 66h6v10h-6zM195 66h6v10h-6zM201 66h6v10h-6zM201 96h6v10h-6zM195 96h6v10h-6zM189 96h6v10h-6zM171 96h6v10h-6zM165 96h6v10h-6zM147 96h6v10h-6zM147 86h6v10h-6z"/><path fill="#ff3f2f" d="M93 106h6v10h-6zM111 106h6v10h-6zM117 106h6v10h-6zM123 106h6v10h-6zM141 106h6v10h-6zM141 116h6v10h-6zM141 136h6v10h-6zM123 136h6v10h-6zM105 136h6v10h-6zM99 136h6v10h-6zM93 136h6v10h-6zM87 136h6v10h-6zM87 116h6v10h-6z"/><path fill="#e7be00" d="M147 106h6v10h-6zM153 106h6v10h-6zM159 106h6v10h-6zM177 106h6v10h-6zM195 106h6v10h-6zM201 126h6v10h-6zM195 136h6v10h-6zM183 136h6v10h-6zM165 136h6v10h-6zM159 136h6v10h-6zM153 136h6v10h-6z"/></g><g clip-path="url(#grid-clip-40113285e09174ee-3x3)" data-channel="ellipse" data-ellipse-anchor-x="147" data-ellipse-anchor-y="146" data-ellipse-rx="94.356" data-ellipse-ry="45.481" data-ellipse-rotation-deg="36"><ellipse cx="147" cy="146" rx="94.356" ry="45.481" transform="rotate(36 147 146)" fill="#000000" stroke="#000000" fill-opacity="0.2" stroke-opacity="0.3" stroke-width="2"/></g><g><g data-channel="cell" data-cell-index="0" data-cell-row="0" data-cell-col="0" data-surround-bits="0x401132" data-edge-color="#2f3fbf"><rect x="33" y="36" width="48" height="20" fill="#f29c30"/><text x="57" y="46" fill="#000000" font-size="12" text-anchor="middle" dominant-baseline="central">309cf2</text></g><g data-channel="cell" data-cell-index="1" data-cell-row="0" data-cell-col="1" data-surround-bits="0x85e091" data-edge-color="#ff3f2f"><rect x="93" y="36" width="48" height="20" fill="#e74e67"/><text x="117" y="46" fill="#000000" font-size="12" text-anchor="middle" dominant-baseline="central">674ee7</text></g><g data-channel="cell" data-cell-index="2" data-cell-row="0" data-cell-col="2" data-surround-bits="0x74ee63" data-edge-color="#000000" data-cell-quartile="2"><rect x="153" y="36" width="48" height="20" fill="#9974a0"/><text x="177" y="46" fill="#000000" font-size="12" text-anchor="middle" dominant-baseline="central">a07499</text><polygon points="201,36 191,36 201,46" fill="#000000"/></g><g data-channel="cell" data-cell-index="3" data-cell-row="1" data-cell-col="0" data-surround-bits="0xf8c768" data-edge-color="#e7be00" data-cell-quartile="3"><rect x="33" y="76" width="48" height="20" fill="#82cf78"/><text x="57" y="86" fill="#000000" font-size="12" text-anchor="middle" dominant-baseline="central">78cf82</text><polygon points="81,96 81,86 71,96" fill="#000000"/></g><g data-channel="cell" data-cell-index="4" data-cell-row="1" data-cell-col="1" data-cell-blank="true" data-cell-blank-map="true"><rect x="93" y="76" width="48" height="20" rx="10" ry="10" fill="#e7be00" stroke="#000000" stroke-width="1"/><circle cx="133" cy="92.667" r="3.5" fill="#1d4ed8" data-blank-map-min="2,2"/><path d="M 96.8,86 H 105.2 M 101,81.8 V 90.2" fill="none" stroke="#d62828" stroke-width="1.925" stroke-linecap="butt" data-blank-map-max="1,0"/></g><g data-channel="cell" data-cell-index="5" data-cell-row="1" data-cell-col="2" data-surround-bits="0x667390" data-edge-color="#e7be00" data-cell-quartile="1"><rect x="153" y="76" width="48" height="20" fill="#91ab65"/><text x="177" y="86" fill="#000000" font-size="12" text-anchor="middle" dominant-baseline="central">65ab91</text><polygon points="153,76 163,76 153,86" fill="#000000"/></g><g data-channel="cell" data-cell-index="6" data-cell-row="2" data-cell-col="0" data-cell-blank="true"><rect x="33" y="116" width="48" height="20" rx="10" ry="10" fill="#ff3f2f" stroke="#000000" stroke-width="1"/></g><g data-channel="cell" data-cell-index="7" data-cell-row="2" data-cell-col="1" data-surround-bits="0xbc9672" data-edge-color="#ff3f2f" data-cell-quartile="4"><rect x="93" y="116" width="48" height="20" fill="#ea0aa6"/><text x="117" y="126" fill="#000000" font-size="12" text-anchor="middle" dominant-baseline="central">a60aea</text><polygon points="93,136 93,126 103,136" fill="#000000"/></g><g data-channel="cell" data-cell-index="8" data-cell-row="2" data-cell-col="2" data-surround-bits="0x1ca927" data-edge-color="#e7be00"><rect x="153" y="116" width="48" height="20" fill="#7d7d0f"/><text x="177" y="126" fill="#ffffff" font-size="12" text-anchor="middle" dominant-baseline="central">0f7d</text></g></g></g><g data-channel="color-bar" data-bar-slots="12" data-bar-marker-left="2" data-bar-marker-right="0"><g data-color-bar-rank="0" data-color-bar-band="G"><rect x="1" y="1" width="20" height="43.669" fill="#e7be00"/><text x="11" y="42.029" fill="#000000" font-size="12" text-anchor="middle" data-color-bar-letter="true">g</text></g><g data-color-bar-rank="1" data-color-bar-band="R"><rect x="1" y="44.669" width="20" height="21.312" fill="#ff3f2f"/><text x="11" y="63.341" fill="#000000" font-size="12" text-anchor="middle" data-color-bar-letter="true">r</text></g><g data-color-bar-rank="2" data-color-bar-band="B"><rect x="1" y="65.981" width="20" height="38.684" fill="#2f3fbf"/><text x="11" y="102.025" fill="#ffffff" font-size="12" text-anchor="middle" data-color-bar-letter="true">b</text></g><g data-color-bar-rank="3" data-color-bar-band="K"><rect x="1" y="104.665" width="20" height="46.335" fill="#000000"/><text x="11" y="148.36" fill="#ffffff" font-size="12" text-anchor="middle" data-color-bar-letter="true">k</text></g><circle cx="5.6" cy="32.25" r="3.4" fill="#ffffff" stroke="#000000" stroke-width="0.75" data-bar-marker="left"/><circle cx="16.4" cy="7.25" r="3.4" fill="#ffffff" stroke="#000000" stroke-width="0.75" data-bar-marker="right"/></g><g data-channel="label-top"><text x="27" y="16" fill="#666666" font-size="12" dominant-baseline="central">gitoid:commit:sha1:...</text></g><line x1="0" y1="0.5" x2="213" y2="0.5" stroke="#808080" stroke-width="1" shape-rendering="crispEdges"/><line x1="212.5" y1="0" x2="212.5" y2="152" stroke="#808080" stroke-width="1" shape-rendering="crispEdges"/><line x1="0" y1="151.5" x2="213" y2="151.5" stroke="#808080" stroke-width="1" shape-rendering="crispEdges"/><line x1="0.5" y1="0" x2="0.5" y2="152" stroke="#808080" stroke-width="1" shape-rendering="crispEdges"/><line x1="21.5" y1="0" x2="21.5" y2="152" stroke="#808080" stroke-width="1" shape-rendering="crispEdges"/></svg>