<svg width="273.0" height="232.0" viewBox="0 0 273.0 232.0" xmlns="http://www.w3.org/2000/svg" data-entviz-version="v6" data-entviz-lib="0.6.0" data-input-bytes="56" data-cols="4" data-rows="5"><defs><clipPath id="grid-clip-985bef79a49adefd-4x5"><rect x="27.0" y="26.0" width="240.0" height="200.0"/></clipPath></defs><rect x="0" y="0" width="273.0" height="232.0" fill="#ffffff"/><g data-channel="grid"><rect x="27.0" y="26.0" width="240.0" height="200.0" fill="#ffffff"/><g><rect x="27.0" y="26.0" width="6.0" height="10.0" fill="#ff3f2f"/><rect x="33.0" y="26.0" width="6.0" height="10.0" fill="#ff3f2f"/><rect x="39.0" y="26.0" width="6.0" height="10.0" fill="#ff3f2f"/><rect x="45.0" y="26.0" width="6.0" height="10.0" fill="#ff3f2f"/><rect x="57.0" y="26.0" width="6.0" height="10.0" fill="#ff3f2f"/><rect x="63.0" y="26.0" width="6.0" height="10.0" fill="#ff3f2f"/><rect x="69.0" y="26.0" width="6.0" height="10.0" fill="#ff3f2f"/><rect x="75.0" y="26.0" width="6.0" height="10.0" fill="#ff3f2f"/><rect x="81.0" y="26.0" width="6.0" height="10.0" fill="#ff3f2f"/><rect x="81.0" y="46.0" width="6.0" height="10.0" fill="#ff3f2f"/><rect x="81.0" y="56.0" width="6.0" height="10.0" fill="#ff3f2f"/><rect x="69.0" y="56.0" width="6.0" height="10.0" fill="#ff3f2f"/><rect x="39.0" y="56.0" width="6.0" height="10.0" fill="#ff3f2f"/><rect x="33.0" y="56.0" width="6.0" height="10.0" fill="#ff3f2f"/><rect x="27.0" y="36.0" width="6.0" height="10.0" fill="#ff3f2f"/><rect x="93.0" y="26.0" width="6.0" height="10.0" fill="#2f3fbf"/><rect x="105.0" y="26.0" width="6.0" height="10.0" fill="#2f3fbf"/><rect x="111.0" y="26.0" width="6.0" height="10.0" fill="#2f3fbf"/><rect x="129.0" y="26.0" width="6.0" height="10.0" fill="#2f3fbf"/><rect x="141.0" y="36.0" width="6.0" height="10.0" fill="#2f3fbf"/><rect x="135.0" y="56.0" width="6.0" height="10.0" fill="#2f3fbf"/><rect x="123.0" y="56.0" width="6.0" height="10.0" fill="#2f3fbf"/><rect x="117.0" y="56.0" width="6.0" height="10.0" fill="#2f3fbf"/><rect x="99.0" y="56.0" width="6.0" height="10.0" fill="#2f3fbf"/><rect x="93.0" y="56.0" width="6.0" height="10.0" fill="#2f3fbf"/><rect x="87.0" y="56.0" width="6.0" height="10.0" fill="#2f3fbf"/><rect x="87.0" y="46.0" width="6.0" height="10.0" fill="#2f3fbf"/><rect x="153.0" y="26.0" width="6.0" height="10.0" fill="#2f3fbf"/><rect x="159.0" y="26.0" width="6.0" height="10.0" fill="#2f3fbf"/><rect x="165.0" y="26.0" width="6.0" height="10.0" fill="#2f3fbf"/><rect x="171.0" y="26.0" width="6.0" height="10.0" fill="#2f3fbf"/><rect x="195.0" y="26.0" width="6.0" height="10.0" fill="#2f3fbf"/><rect x="201.0" y="36.0" width="6.0" height="10.0" fill="#2f3fbf"/><rect x="201.0" y="46.0" width="6.0" height="10.0" fill="#2f3fbf"/><rect x="201.0" y="56.0" width="6.0" height="10.0" fill="#2f3fbf"/><rect x="195.0" y="56.0" width="6.0" height="10.0" fill="#2f3fbf"/><rect x="189.0" y="56.0" width="6.0" height="10.0" fill="#2f3fbf"/><rect x="183.0" y="56.0" width="6.0" height="10.0" fill="#2f3fbf"/><rect x="171.0" y="56.0" width="6.0" height="10.0" fill="#2f3fbf"/><rect x="165.0" y="56.0" width="6.0" height="10.0" fill="#2f3fbf"/><rect x="159.0" y="56.0" width="6.0" height="10.0" fill="#2f3fbf"/><rect x="153.0" y="56.0" width="6.0" height="10.0" fill="#2f3fbf"/><rect x="147.0" y="46.0" width="6.0" height="10.0" fill="#2f3fbf"/><rect x="147.0" y="36.0" width="6.0" height="10.0" fill="#2f3fbf"/><rect x="207.0" y="26.0" width="6.0" height="10.0" fill="#2f3fbf"/><rect x="219.0" y="26.0" width="6.0" height="10.0" fill="#2f3fbf"/><rect x="231.0" y="26.0" width="6.0" height="10.0" fill="#2f3fbf"/><rect x="249.0" y="26.0" width="6.0" height="10.0" fill="#2f3fbf"/><rect x="255.0" y="26.0" width="6.0" height="10.0" fill="#2f3fbf"/><rect x="261.0" y="26.0" width="6.0" height="10.0" fill="#2f3fbf"/><rect x="261.0" y="36.0" width="6.0" height="10.0" fill="#2f3fbf"/><rect x="255.0" y="56.0" width="6.0" height="10.0" fill="#2f3fbf"/><rect x="249.0" y="56.0" width="6.0" height="10.0" fill="#2f3fbf"/><rect x="243.0" y="56.0" width="6.0" height="10.0" fill="#2f3fbf"/><rect x="231.0" y="56.0" width="6.0" height="10.0" fill="#2f3fbf"/><rect x="213.0" y="56.0" width="6.0" height="10.0" fill="#2f3fbf"/><rect x="207.0" y="56.0" width="6.0" height="10.0" fill="#2f3fbf"/><rect x="39.0" y="66.0" width="6.0" height="10.0" fill="#2f3fbf"/><rect x="45.0" y="66.0" width="6.0" height="10.0" fill="#2f3fbf"/><rect x="51.0" y="66.0" width="6.0" height="10.0" fill="#2f3fbf"/><rect x="75.0" y="66.0" width="6.0" height="10.0" fill="#2f3fbf"/><rect x="81.0" y="66.0" width="6.0" height="10.0" fill="#2f3fbf"/><rect x="81.0" y="96.0" width="6.0" height="10.0" fill="#2f3fbf"/><rect x="39.0" y="96.0" width="6.0" height="10.0" fill="#2f3fbf"/><rect x="33.0" y="96.0" width="6.0" height="10.0" fill="#2f3fbf"/><rect x="27.0" y="96.0" width="6.0" height="10.0" fill="#2f3fbf"/><rect x="27.0" y="86.0" width="6.0" height="10.0" fill="#2f3fbf"/><rect x="117.0" y="66.0" width="6.0" height="10.0" fill="#2f3fbf"/><rect x="135.0" y="66.0" width="6.0" height="10.0" fill="#2f3fbf"/><rect x="141.0" y="66.0" width="6.0" height="10.0" fill="#2f3fbf"/><rect x="141.0" y="86.0" width="6.0" height="10.0" fill="#2f3fbf"/><rect x="135.0" y="96.0" width="6.0" height="10.0" fill="#2f3fbf"/><rect x="123.0" y="96.0" width="6.0" height="10.0" fill="#2f3fbf"/><rect x="117.0" y="96.0" width="6.0" height="10.0" fill="#2f3fbf"/><rect x="111.0" y="96.0" width="6.0" height="10.0" fill="#2f3fbf"/><rect x="93.0" y="96.0" width="6.0" height="10.0" fill="#2f3fbf"/><rect x="87.0" y="96.0" width="6.0" height="10.0" fill="#2f3fbf"/><rect x="87.0" y="76.0" width="6.0" height="10.0" fill="#2f3fbf"/><rect x="147.0" y="66.0" width="6.0" height="10.0" fill="#2f3fbf"/><rect x="159.0" y="66.0" width="6.0" height="10.0" fill="#2f3fbf"/><rect x="171.0" y="66.0" width="6.0" height="10.0" fill="#2f3fbf"/><rect x="177.0" y="66.0" width="6.0" height="10.0" fill="#2f3fbf"/><rect x="183.0" y="66.0" width="6.0" height="10.0" fill="#2f3fbf"/><rect x="189.0" y="66.0" width="6.0" height="10.0" fill="#2f3fbf"/><rect x="201.0" y="66.0" width="6.0" height="10.0" fill="#2f3fbf"/><rect x="201.0" y="86.0" width="6.0" height="10.0" fill="#2f3fbf"/><rect x="165.0" y="96.0" width="6.0" height="10.0" fill="#2f3fbf"/><rect x="153.0" y="96.0" width="6.0" height="10.0" fill="#2f3fbf"/><rect x="225.0" y="66.0" width="6.0" height="10.0" fill="#ff3f2f"/><rect x="231.0" y="66.0" width="6.0" height="10.0" fill="#ff3f2f"/><rect x="237.0" y="66.0" width="6.0" height="10.0" fill="#ff3f2f"/><rect x="243.0" y="66.0" width="6.0" height="10.0" fill="#ff3f2f"/><rect x="249.0" y="66.0" width="6.0" height="10.0" fill="#ff3f2f"/><rect x="261.0" y="66.0" width="6.0" height="10.0" fill="#ff3f2f"/><rect x="261.0" y="96.0" width="6.0" height="10.0" fill="#ff3f2f"/><rect x="243.0" y="96.0" width="6.0" height="10.0" fill="#ff3f2f"/><rect x="231.0" y="96.0" width="6.0" height="10.0" fill="#ff3f2f"/><rect x="219.0" y="96.0" width="6.0" height="10.0" fill="#ff3f2f"/><rect x="213.0" y="96.0" width="6.0" height="10.0" fill="#ff3f2f"/><rect x="207.0" y="86.0" width="6.0" height="10.0" fill="#ff3f2f"/><rect x="207.0" y="76.0" width="6.0" height="10.0" fill="#ff3f2f"/><rect x="33.0" y="106.0" width="6.0" height="10.0" fill="#2f3fbf"/><rect x="39.0" y="106.0" width="6.0" height="10.0" fill="#2f3fbf"/><rect x="45.0" y="106.0" width="6.0" height="10.0" fill="#2f3fbf"/><rect x="57.0" y="106.0" width="6.0" height="10.0" fill="#2f3fbf"/><rect x="75.0" y="106.0" width="6.0" height="10.0" fill="#2f3fbf"/><rect x="81.0" y="106.0" width="6.0" height="10.0" fill="#2f3fbf"/><rect x="81.0" y="126.0" width="6.0" height="10.0" fill="#2f3fbf"/><rect x="81.0" y="136.0" width="6.0" height="10.0" fill="#2f3fbf"/><rect x="69.0" y="136.0" width="6.0" height="10.0" fill="#2f3fbf"/><rect x="87.0" y="106.0" width="6.0" height="10.0" fill="#ff3f2f"/><rect x="99.0" y="106.0" width="6.0" height="10.0" fill="#ff3f2f"/><rect x="105.0" y="106.0" width="6.0" height="10.0" fill="#ff3f2f"/><rect x="111.0" y="106.0" width="6.0" height="10.0" fill="#ff3f2f"/><rect x="117.0" y="106.0" width="6.0" height="10.0" fill="#ff3f2f"/><rect x="123.0" y="106.0" width="6.0" height="10.0" fill="#ff3f2f"/><rect x="129.0" y="106.0" width="6.0" height="10.0" fill="#ff3f2f"/><rect x="135.0" y="106.0" width="6.0" height="10.0" fill="#ff3f2f"/><rect x="141.0" y="116.0" width="6.0" height="10.0" fill="#ff3f2f"/><rect x="141.0" y="126.0" width="6.0" height="10.0" fill="#ff3f2f"/><rect x="141.0" y="136.0" width="6.0" height="10.0" fill="#ff3f2f"/><rect x="135.0" y="136.0" width="6.0" height="10.0" fill="#ff3f2f"/><rect x="99.0" y="136.0" width="6.0" height="10.0" fill="#ff3f2f"/><rect x="87.0" y="116.0" width="6.0" height="10.0" fill="#ff3f2f"/><rect x="159.0" y="106.0" width="6.0" height="10.0" fill="#2f3fbf"/><rect x="177.0" y="106.0" width="6.0" height="10.0" fill="#2f3fbf"/><rect x="183.0" y="106.0" width="6.0" height="10.0" fill="#2f3fbf"/><rect x="189.0" y="106.0" width="6.0" height="10.0" fill="#2f3fbf"/><rect x="201.0" y="116.0" width="6.0" height="10.0" fill="#2f3fbf"/><rect x="201.0" y="126.0" width="6.0" height="10.0" fill="#2f3fbf"/><rect x="189.0" y="136.0" width="6.0" height="10.0" fill="#2f3fbf"/><rect x="183.0" y="136.0" width="6.0" height="10.0" fill="#2f3fbf"/><rect x="177.0" y="136.0" width="6.0" height="10.0" fill="#2f3fbf"/><rect x="171.0" y="136.0" width="6.0" height="10.0" fill="#2f3fbf"/><rect x="159.0" y="136.0" width="6.0" height="10.0" fill="#2f3fbf"/><rect x="147.0" y="136.0" width="6.0" height="10.0" fill="#2f3fbf"/><rect x="147.0" y="126.0" width="6.0" height="10.0" fill="#2f3fbf"/><rect x="147.0" y="116.0" width="6.0" height="10.0" fill="#2f3fbf"/><rect x="213.0" y="106.0" width="6.0" height="10.0" fill="#2f3fbf"/><rect x="219.0" y="106.0" width="6.0" height="10.0" fill="#2f3fbf"/><rect x="243.0" y="106.0" width="6.0" height="10.0" fill="#2f3fbf"/><rect x="255.0" y="106.0" width="6.0" height="10.0" fill="#2f3fbf"/><rect x="261.0" y="126.0" width="6.0" height="10.0" fill="#2f3fbf"/><rect x="249.0" y="136.0" width="6.0" height="10.0" fill="#2f3fbf"/><rect x="231.0" y="136.0" width="6.0" height="10.0" fill="#2f3fbf"/><rect x="207.0" y="116.0" width="6.0" height="10.0" fill="#2f3fbf"/><rect x="27.0" y="146.0" width="6.0" height="10.0" fill="#2f3fbf"/><rect x="45.0" y="146.0" width="6.0" height="10.0" fill="#2f3fbf"/><rect x="69.0" y="146.0" width="6.0" height="10.0" fill="#2f3fbf"/><rect x="75.0" y="146.0" width="6.0" height="10.0" fill="#2f3fbf"/><rect x="81.0" y="146.0" width="6.0" height="10.0" fill="#2f3fbf"/><rect x="63.0" y="176.0" width="6.0" height="10.0" fill="#2f3fbf"/><rect x="45.0" y="176.0" width="6.0" height="10.0" fill="#2f3fbf"/><rect x="39.0" y="176.0" width="6.0" height="10.0" fill="#2f3fbf"/><rect x="27.0" y="176.0" width="6.0" height="10.0" fill="#2f3fbf"/><rect x="27.0" y="166.0" width="6.0" height="10.0" fill="#2f3fbf"/><rect x="159.0" y="146.0" width="6.0" height="10.0" fill="#ff3f2f"/><rect x="165.0" y="146.0" width="6.0" height="10.0" fill="#ff3f2f"/><rect x="183.0" y="146.0" width="6.0" height="10.0" fill="#ff3f2f"/><rect x="201.0" y="176.0" width="6.0" height="10.0" fill="#ff3f2f"/><rect x="189.0" y="176.0" width="6.0" height="10.0" fill="#ff3f2f"/><rect x="183.0" y="176.0" width="6.0" height="10.0" fill="#ff3f2f"/><rect x="177.0" y="176.0" width="6.0" height="10.0" fill="#ff3f2f"/><rect x="171.0" y="176.0" width="6.0" height="10.0" fill="#ff3f2f"/><rect x="165.0" y="176.0" width="6.0" height="10.0" fill="#ff3f2f"/><rect x="159.0" y="176.0" width="6.0" height="10.0" fill="#ff3f2f"/><rect x="147.0" y="176.0" width="6.0" height="10.0" fill="#ff3f2f"/><rect x="147.0" y="166.0" width="6.0" height="10.0" fill="#ff3f2f"/><rect x="213.0" y="146.0" width="6.0" height="10.0" fill="#2f3fbf"/><rect x="225.0" y="146.0" width="6.0" height="10.0" fill="#2f3fbf"/><rect x="243.0" y="146.0" width="6.0" height="10.0" fill="#2f3fbf"/><rect x="255.0" y="146.0" width="6.0" height="10.0" fill="#2f3fbf"/><rect x="261.0" y="146.0" width="6.0" height="10.0" fill="#2f3fbf"/><rect x="261.0" y="156.0" width="6.0" height="10.0" fill="#2f3fbf"/><rect x="261.0" y="176.0" width="6.0" height="10.0" fill="#2f3fbf"/><rect x="243.0" y="176.0" width="6.0" height="10.0" fill="#2f3fbf"/><rect x="231.0" y="176.0" width="6.0" height="10.0" fill="#2f3fbf"/><rect x="207.0" y="166.0" width="6.0" height="10.0" fill="#2f3fbf"/><rect x="27.0" y="186.0" width="6.0" height="10.0" fill="#2f3fbf"/><rect x="33.0" y="186.0" width="6.0" height="10.0" fill="#2f3fbf"/><rect x="39.0" y="186.0" width="6.0" height="10.0" fill="#2f3fbf"/><rect x="81.0" y="206.0" width="6.0" height="10.0" fill="#2f3fbf"/><rect x="75.0" y="216.0" width="6.0" height="10.0" fill="#2f3fbf"/><rect x="69.0" y="216.0" width="6.0" height="10.0" fill="#2f3fbf"/><rect x="63.0" y="216.0" width="6.0" height="10.0" fill="#2f3fbf"/><rect x="51.0" y="216.0" width="6.0" height="10.0" fill="#2f3fbf"/><rect x="27.0" y="216.0" width="6.0" height="10.0" fill="#2f3fbf"/><rect x="27.0" y="206.0" width="6.0" height="10.0" fill="#2f3fbf"/><rect x="87.0" y="186.0" width="6.0" height="10.0" fill="#2f3fbf"/><rect x="99.0" y="186.0" width="6.0" height="10.0" fill="#2f3fbf"/><rect x="123.0" y="186.0" width="6.0" height="10.0" fill="#2f3fbf"/><rect x="135.0" y="186.0" width="6.0" height="10.0" fill="#2f3fbf"/><rect x="141.0" y="186.0" width="6.0" height="10.0" fill="#2f3fbf"/><rect x="141.0" y="216.0" width="6.0" height="10.0" fill="#2f3fbf"/><rect x="135.0" y="216.0" width="6.0" height="10.0" fill="#2f3fbf"/><rect x="123.0" y="216.0" width="6.0" height="10.0" fill="#2f3fbf"/><rect x="111.0" y="216.0" width="6.0" height="10.0" fill="#2f3fbf"/><rect x="99.0" y="216.0" width="6.0" height="10.0" fill="#2f3fbf"/><rect x="93.0" y="216.0" width="6.0" height="10.0" fill="#2f3fbf"/><rect x="87.0" y="216.0" width="6.0" height="10.0" fill="#2f3fbf"/><rect x="87.0" y="206.0" width="6.0" height="10.0" fill="#2f3fbf"/><rect x="87.0" y="196.0" width="6.0" height="10.0" fill="#2f3fbf"/><rect x="153.0" y="186.0" width="6.0" height="10.0" fill="#2f3fbf"/><rect x="159.0" y="186.0" width="6.0" height="10.0" fill="#2f3fbf"/><rect x="165.0" y="186.0" width="6.0" height="10.0" fill="#2f3fbf"/><rect x="171.0" y="186.0" width="6.0" height="10.0" fill="#2f3fbf"/><rect x="195.0" y="186.0" width="6.0" height="10.0" fill="#2f3fbf"/><rect x="201.0" y="206.0" width="6.0" height="10.0" fill="#2f3fbf"/><rect x="183.0" y="216.0" width="6.0" height="10.0" fill="#2f3fbf"/><rect x="159.0" y="216.0" width="6.0" height="10.0" fill="#2f3fbf"/><rect x="147.0" y="196.0" width="6.0" height="10.0" fill="#2f3fbf"/><rect x="213.0" y="186.0" width="6.0" height="10.0" fill="#2f3fbf"/><rect x="219.0" y="186.0" width="6.0" height="10.0" fill="#2f3fbf"/><rect x="237.0" y="186.0" width="6.0" height="10.0" fill="#2f3fbf"/><rect x="243.0" y="186.0" width="6.0" height="10.0" fill="#2f3fbf"/><rect x="249.0" y="186.0" width="6.0" height="10.0" fill="#2f3fbf"/><rect x="255.0" y="186.0" width="6.0" height="10.0" fill="#2f3fbf"/><rect x="261.0" y="186.0" width="6.0" height="10.0" fill="#2f3fbf"/><rect x="261.0" y="196.0" width="6.0" height="10.0" fill="#2f3fbf"/><rect x="261.0" y="216.0" width="6.0" height="10.0" fill="#2f3fbf"/><rect x="243.0" y="216.0" width="6.0" height="10.0" fill="#2f3fbf"/><rect x="237.0" y="216.0" width="6.0" height="10.0" fill="#2f3fbf"/><rect x="225.0" y="216.0" width="6.0" height="10.0" fill="#2f3fbf"/><rect x="219.0" y="216.0" width="6.0" height="10.0" fill="#2f3fbf"/><rect x="213.0" y="216.0" width="6.0" height="10.0" fill="#2f3fbf"/><rect x="207.0" y="216.0" width="6.0" height="10.0" fill="#2f3fbf"/><rect x="207.0" y="206.0" width="6.0" height="10.0" fill="#2f3fbf"/></g><g clip-path="url(#grid-clip-985bef79a49adefd-4x5)" data-channel="ellipse" data-ellipse-anchor-x="147.0" data-ellipse-anchor-y="106.0" data-ellipse-rx="57.69991334482228" data-ellipse-ry="69.91871852372581" data-ellipse-rotation-deg="108.0"><ellipse cx="147.0" cy="106.0" rx="57.69991334482228" ry="69.91871852372581" transform="rotate(108.0 147.0 106.0)" fill="#000000" stroke="#000000" fill-opacity="0.2" stroke-opacity="0.3" stroke-width="2.0"/></g><g><g data-channel="cell" data-cell-index="0" data-cell-row="0" data-cell-col="0"><rect x="33.0" y="36.0" width="48.0" height="20.0" fill="#726f4c"/><text x="57.0" y="46.0" fill="#ffffff" style="font-family: &quot;JetBrains Mono&quot;, &quot;Menlo&quot;, &quot;Consolas&quot;, &quot;DejaVu Sans Mono&quot;, &quot;Liberation Mono&quot;, &quot;Roboto Mono&quot;, &quot;Noto Sans Mono&quot;, monospace; font-size: 16.0px;" text-anchor="middle" dominant-baseline="central">TG9y</text></g><g data-channel="cell" data-cell-index="1" data-cell-row="0" data-cell-col="1" data-cell-quartile="3"><rect x="93.0" y="36.0" width="48.0" height="20.0" fill="#206d65"/><text x="117.0" y="46.0" fill="#ffffff" style="font-family: &quot;JetBrains Mono&quot;, &quot;Menlo&quot;, &quot;Consolas&quot;, &quot;DejaVu Sans Mono&quot;, &quot;Liberation Mono&quot;, &quot;Roboto Mono&quot;, &quot;Noto Sans Mono&quot;, monospace; font-size: 16.0px;" text-anchor="middle" dominant-baseline="central">ZW0g</text><polygon points="141.0,56.0 141.0,46.0 131.0,56.0" fill="#ffffff"/></g><g data-channel="cell" data-cell-index="2" data-cell-row="0" data-cell-col="2"><rect x="153.0" y="36.0" width="48.0" height="20.0" fill="#737069"/><text x="177.0" y="46.0" fill="#ffffff" style="font-family: &quot;JetBrains Mono&quot;, &quot;Menlo&quot;, &quot;Consolas&quot;, &quot;DejaVu Sans Mono&quot;, &quot;Liberation Mono&quot;, &quot;Roboto Mono&quot;, &quot;Noto Sans Mono&quot;, monospace; font-size: 16.0px;" text-anchor="middle" dominant-baseline="central">aXBz</text></g><g data-channel="cell" data-cell-index="3" data-cell-row="0" data-cell-col="3"><rect x="213.0" y="36.0" width="48.0" height="20.0" fill="#206d75"/><text x="237.0" y="46.0" fill="#ffffff" style="font-family: &quot;JetBrains Mono&quot;, &quot;Menlo&quot;, &quot;Consolas&quot;, &quot;DejaVu Sans Mono&quot;, &quot;Liberation Mono&quot;, &quot;Roboto Mono&quot;, &quot;Noto Sans Mono&quot;, monospace; font-size: 16.0px;" text-anchor="middle" dominant-baseline="central">dW0g</text></g><g data-channel="cell" data-cell-index="4" data-cell-row="1" data-cell-col="0"><rect x="33.0" y="76.0" width="48.0" height="20.0" fill="#6c6f64"/><text x="57.0" y="86.0" fill="#ffffff" style="font-family: &quot;JetBrains Mono&quot;, &quot;Menlo&quot;, &quot;Consolas&quot;, &quot;DejaVu Sans Mono&quot;, &quot;Liberation Mono&quot;, &quot;Roboto Mono&quot;, &quot;Noto Sans Mono&quot;, monospace; font-size: 16.0px;" text-anchor="middle" dominant-baseline="central">ZG9s</text></g><g data-channel="cell" data-cell-index="5" data-cell-row="1" data-cell-col="1"><rect x="93.0" y="76.0" width="48.0" height="20.0" fill="#20726f"/><text x="117.0" y="86.0" fill="#ffffff" style="font-family: &quot;JetBrains Mono&quot;, &quot;Menlo&quot;, &quot;Consolas&quot;, &quot;DejaVu Sans Mono&quot;, &quot;Liberation Mono&quot;, &quot;Roboto Mono&quot;, &quot;Noto Sans Mono&quot;, monospace; font-size: 16.0px;" text-anchor="middle" dominant-baseline="central">b3Ig</text></g><g data-channel="cell" data-cell-index="6" data-cell-row="1" data-cell-col="2" data-cell-quartile="1"><rect x="153.0" y="76.0" width="48.0" height="20.0" fill="#746973"/><text x="177.0" y="86.0" fill="#ffffff" style="font-family: &quot;JetBrains Mono&quot;, &quot;Menlo&quot;, &quot;Consolas&quot;, &quot;DejaVu Sans Mono&quot;, &quot;Liberation Mono&quot;, &quot;Roboto Mono&quot;, &quot;Noto Sans Mono&quot;, monospace; font-size: 16.0px;" text-anchor="middle" dominant-baseline="central">c2l0</text><polygon points="153.0,76.0 163.0,76.0 153.0,86.0" fill="#ffffff"/></g><g data-channel="cell" data-cell-index="7" data-cell-row="1" data-cell-col="3"><rect x="213.0" y="76.0" width="48.0" height="20.0" fill="#6d6120"/><text x="237.0" y="86.0" fill="#ffffff" style="font-family: &quot;JetBrains Mono&quot;, &quot;Menlo&quot;, &quot;Consolas&quot;, &quot;DejaVu Sans Mono&quot;, &quot;Liberation Mono&quot;, &quot;Roboto Mono&quot;, &quot;Noto Sans Mono&quot;, monospace; font-size: 16.0px;" text-anchor="middle" dominant-baseline="central">IGFt</text></g><g data-channel="cell" data-cell-index="8" data-cell-row="2" data-cell-col="0"><rect x="33.0" y="116.0" width="48.0" height="20.0" fill="#2c7465"/><text x="57.0" y="126.0" fill="#ffffff" style="font-family: &quot;JetBrains Mono&quot;, &quot;Menlo&quot;, &quot;Consolas&quot;, &quot;DejaVu Sans Mono&quot;, &quot;Liberation Mono&quot;, &quot;Roboto Mono&quot;, &quot;Noto Sans Mono&quot;, monospace; font-size: 16.0px;" text-anchor="middle" dominant-baseline="central">ZXQs</text></g><g data-channel="cell" data-cell-index="9" data-cell-row="2" data-cell-col="1"><rect x="93.0" y="116.0" width="48.0" height="20.0" fill="#6f6320"/><text x="117.0" y="126.0" fill="#ffffff" style="font-family: &quot;JetBrains Mono&quot;, &quot;Menlo&quot;, &quot;Consolas&quot;, &quot;DejaVu Sans Mono&quot;, &quot;Liberation Mono&quot;, &quot;Roboto Mono&quot;, &quot;Noto Sans Mono&quot;, monospace; font-size: 16.0px;" text-anchor="middle" dominant-baseline="central">IGNv</text></g><g data-channel="cell" data-cell-index="10" data-cell-row="2" data-cell-col="2" data-cell-quartile="4"><rect x="153.0" y="116.0" width="48.0" height="20.0" fill="#65736e"/><text x="177.0" y="126.0" fill="#ffffff" style="font-family: &quot;JetBrains Mono&quot;, &quot;Menlo&quot;, &quot;Consolas&quot;, &quot;DejaVu Sans Mono&quot;, &quot;Liberation Mono&quot;, &quot;Roboto Mono&quot;, &quot;Noto Sans Mono&quot;, monospace; font-size: 16.0px;" text-anchor="middle" dominant-baseline="central">bnNl</text><polygon points="153.0,136.0 153.0,126.0 163.0,136.0" fill="#ffffff"/></g><g data-channel="cell" data-cell-index="11" data-cell-row="2" data-cell-col="3"><rect x="213.0" y="116.0" width="48.0" height="20.0" fill="#657463"/><text x="237.0" y="126.0" fill="#ffffff" style="font-family: &quot;JetBrains Mono&quot;, &quot;Menlo&quot;, &quot;Consolas&quot;, &quot;DejaVu Sans Mono&quot;, &quot;Liberation Mono&quot;, &quot;Roboto Mono&quot;, &quot;Noto Sans Mono&quot;, monospace; font-size: 16.0px;" text-anchor="middle" dominant-baseline="central">Y3Rl</text></g><g data-channel="cell" data-cell-index="12" data-cell-row="3" data-cell-col="0"><rect x="33.0" y="156.0" width="48.0" height="20.0" fill="#727574"/><text x="57.0" y="166.0" fill="#ffffff" style="font-family: &quot;JetBrains Mono&quot;, &quot;Menlo&quot;, &quot;Consolas&quot;, &quot;DejaVu Sans Mono&quot;, &quot;Liberation Mono&quot;, &quot;Roboto Mono&quot;, &quot;Noto Sans Mono&quot;, monospace; font-size: 16.0px;" text-anchor="middle" dominant-baseline="central">dHVy</text></g><g data-channel="cell" data-cell-index="13" data-cell-row="3" data-cell-col="1" data-cell-blank="true" data-cell-blank-map="true"><rect x="93.0" y="156.0" width="48.0" height="20.0" rx="10.0" ry="10.0" fill="#e7be00" stroke="#000000" stroke-width="1"/><circle cx="111.0" cy="174.0" r="3.5" fill="#d62828" data-blank-map-max="true"/><circle cx="99.0" cy="166.0" r="3.5" fill="#1d4ed8" data-blank-map-min="true"/></g><g data-channel="cell" data-cell-index="14" data-cell-row="3" data-cell-col="2"><rect x="153.0" y="156.0" width="48.0" height="20.0" fill="#646120"/><text x="177.0" y="166.0" fill="#ffffff" style="font-family: &quot;JetBrains Mono&quot;, &quot;Menlo&quot;, &quot;Consolas&quot;, &quot;DejaVu Sans Mono&quot;, &quot;Liberation Mono&quot;, &quot;Roboto Mono&quot;, &quot;Noto Sans Mono&quot;, monospace; font-size: 16.0px;" text-anchor="middle" dominant-baseline="central">IGFk</text></g><g data-channel="cell" data-cell-index="15" data-cell-row="3" data-cell-col="3"><rect x="213.0" y="156.0" width="48.0" height="20.0" fill="#697069"/><text x="237.0" y="166.0" fill="#ffffff" style="font-family: &quot;JetBrains Mono&quot;, &quot;Menlo&quot;, &quot;Consolas&quot;, &quot;DejaVu Sans Mono&quot;, &quot;Liberation Mono&quot;, &quot;Roboto Mono&quot;, &quot;Noto Sans Mono&quot;, monospace; font-size: 16.0px;" text-anchor="middle" dominant-baseline="central">aXBp</text></g><g data-channel="cell" data-cell-index="16" data-cell-row="4" data-cell-col="0" data-cell-quartile="2"><rect x="33.0" y="196.0" width="48.0" height="20.0" fill="#696373"/><text x="57.0" y="206.0" fill="#ffffff" style="font-family: &quot;JetBrains Mono&quot;, &quot;Menlo&quot;, &quot;Consolas&quot;, &quot;DejaVu Sans Mono&quot;, &quot;Liberation Mono&quot;, &quot;Roboto Mono&quot;, &quot;Noto Sans Mono&quot;, monospace; font-size: 16.0px;" text-anchor="middle" dominant-baseline="central">c2Np</text><polygon points="81.0,196.0 71.0,196.0 81.0,206.0" fill="#ffffff"/></g><g data-channel="cell" data-cell-index="17" data-cell-row="4" data-cell-col="1"><rect x="93.0" y="196.0" width="48.0" height="20.0" fill="#20676e"/><text x="117.0" y="206.0" fill="#ffffff" style="font-family: &quot;JetBrains Mono&quot;, &quot;Menlo&quot;, &quot;Consolas&quot;, &quot;DejaVu Sans Mono&quot;, &quot;Liberation Mono&quot;, &quot;Roboto Mono&quot;, &quot;Noto Sans Mono&quot;, monospace; font-size: 16.0px;" text-anchor="middle" dominant-baseline="central">bmcg</text></g><g data-channel="cell" data-cell-index="18" data-cell-row="4" data-cell-col="2"><rect x="153.0" y="196.0" width="48.0" height="20.0" fill="#696c65"/><text x="177.0" y="206.0" fill="#ffffff" style="font-family: &quot;JetBrains Mono&quot;, &quot;Menlo&quot;, &quot;Consolas&quot;, &quot;DejaVu Sans Mono&quot;, &quot;Liberation Mono&quot;, &quot;Roboto Mono&quot;, &quot;Noto Sans Mono&quot;, monospace; font-size: 16.0px;" text-anchor="middle" dominant-baseline="central">ZWxp</text></g><g data-channel="cell" data-cell-index="19" data-cell-row="4" data-cell-col="3"><rect x="213.0" y="196.0" width="48.0" height="20.0" fill="#382e74"/><text x="237.0" y="206.0" fill="#ffffff" style="font-family: &quot;JetBrains Mono&quot;, &quot;Menlo&quot;, &quot;Consolas&quot;, &quot;DejaVu Sans Mono&quot;, &quot;Liberation Mono&quot;, &quot;Roboto Mono&quot;, &quot;Noto Sans Mono&quot;, monospace; font-size: 16.0px;" text-anchor="middle" dominant-baseline="central">dC4</text></g></g></g><g data-channel="color-bar"><g data-color-bar-rank="0" data-color-bar-band="B"><rect x="1" y="1" width="20.0" height="84.8273391707154" fill="#2f3fbf"/><text x="11.0" y="82.30733917071541" fill="#ffffff" style="font-family: &quot;JetBrains Mono&quot;, &quot;Menlo&quot;, &quot;Consolas&quot;, &quot;DejaVu Sans Mono&quot;, &quot;Liberation Mono&quot;, &quot;Roboto Mono&quot;, &quot;Noto Sans Mono&quot;, monospace; font-size: 16.0px;" text-anchor="middle" data-color-bar-letter="true">b</text></g><g data-color-bar-rank="1" data-color-bar-band="R"><rect x="1" y="85.8273391707154" width="20.0" height="52.58533529088658" fill="#ff3f2f"/><text x="11.0" y="134.89267446160198" fill="#000000" style="font-family: &quot;JetBrains Mono&quot;, &quot;Menlo&quot;, &quot;Consolas&quot;, &quot;DejaVu Sans Mono&quot;, &quot;Liberation Mono&quot;, &quot;Roboto Mono&quot;, &quot;Noto Sans Mono&quot;, monospace; font-size: 16.0px;" text-anchor="middle" data-color-bar-letter="true">r</text></g><g data-color-bar-rank="2" data-color-bar-band="G"><rect x="1" y="138.412674461602" width="20.0" height="49.32524005682474" fill="#e7be00"/><text x="11.0" y="184.21791451842674" fill="#000000" style="font-family: &quot;JetBrains Mono&quot;, &quot;Menlo&quot;, &quot;Consolas&quot;, &quot;DejaVu Sans Mono&quot;, &quot;Liberation Mono&quot;, &quot;Roboto Mono&quot;, &quot;Noto Sans Mono&quot;, monospace; font-size: 16.0px;" text-anchor="middle" data-color-bar-letter="true">g</text></g><g data-color-bar-rank="3" data-color-bar-band="K"><rect x="1" y="187.73791451842675" width="20.0" height="43.26208548157325" fill="#000000"/><text x="11.0" y="227.48" fill="#ffffff" style="font-family: &quot;JetBrains Mono&quot;, &quot;Menlo&quot;, &quot;Consolas&quot;, &quot;DejaVu Sans Mono&quot;, &quot;Liberation Mono&quot;, &quot;Roboto Mono&quot;, &quot;Noto Sans Mono&quot;, monospace; font-size: 16.0px;" text-anchor="middle" data-color-bar-letter="true">k</text></g></g><g data-channel="label-top"><text x="27.0" y="16.0" fill="#666666" style="font-family: &quot;JetBrains Mono&quot;, &quot;Menlo&quot;, &quot;Consolas&quot;, &quot;DejaVu Sans Mono&quot;, &quot;Liberation Mono&quot;, &quot;Roboto Mono&quot;, &quot;Noto Sans Mono&quot;, monospace; font-size: 12.0px;" dominant-baseline="central">txt(56)-&gt;b64url:</text></g><line x1="0" y1="0.5" x2="273.0" y2="0.5" stroke="#808080" stroke-width="1" shape-rendering="crispEdges"/><line x1="272.5" y1="0" x2="272.5" y2="232.0" stroke="#808080" stroke-width="1" shape-rendering="crispEdges"/><line x1="0" y1="231.5" x2="273.0" y2="231.5" stroke="#808080" stroke-width="1" shape-rendering="crispEdges"/><line x1="0.5" y1="0" x2="0.5" y2="232.0" stroke="#808080" stroke-width="1" shape-rendering="crispEdges"/><line x1="21.5" y1="0" x2="21.5" y2="232.0" stroke="#808080" stroke-width="1" shape-rendering="crispEdges"/></svg>