<svg width="273.0" height="192.0" viewBox="0 0 273.0 192.0" xmlns="http://www.w3.org/2000/svg" data-entviz-version="v6" data-entviz-lib="0.6.0" data-input-bytes="62" data-cols="4" data-rows="4"><defs><clipPath id="grid-clip-2371623d63e0081d-4x4"><rect x="27.0" y="26.0" width="240.0" height="160.0"/></clipPath></defs><rect x="0" y="0" width="273.0" height="192.0" fill="#ffffff"/><g data-channel="grid"><rect x="27.0" y="26.0" width="240.0" height="160.0" fill="#ffffff"/><g><rect x="33.0" y="26.0" width="6.0" height="10.0" fill="#ff3f2f"/><rect x="57.0" y="26.0" width="6.0" height="10.0" fill="#ff3f2f"/><rect x="63.0" y="26.0" width="6.0" height="10.0" fill="#ff3f2f"/><rect x="75.0" y="26.0" width="6.0" height="10.0" fill="#ff3f2f"/><rect x="81.0" y="56.0" width="6.0" height="10.0" fill="#ff3f2f"/><rect x="75.0" y="56.0" width="6.0" height="10.0" fill="#ff3f2f"/><rect x="69.0" y="56.0" width="6.0" height="10.0" fill="#ff3f2f"/><rect x="57.0" y="56.0" width="6.0" height="10.0" fill="#ff3f2f"/><rect x="51.0" y="56.0" width="6.0" height="10.0" fill="#ff3f2f"/><rect x="27.0" y="56.0" width="6.0" height="10.0" fill="#ff3f2f"/><rect x="117.0" y="26.0" width="6.0" height="10.0" fill="#2f3fbf"/><rect x="123.0" y="26.0" width="6.0" height="10.0" fill="#2f3fbf"/><rect x="129.0" y="26.0" width="6.0" height="10.0" fill="#2f3fbf"/><rect x="135.0" y="26.0" width="6.0" height="10.0" fill="#2f3fbf"/><rect x="141.0" y="26.0" width="6.0" height="10.0" fill="#2f3fbf"/><rect x="135.0" y="56.0" width="6.0" height="10.0" fill="#2f3fbf"/><rect x="129.0" y="56.0" width="6.0" height="10.0" fill="#2f3fbf"/><rect x="117.0" y="56.0" width="6.0" height="10.0" fill="#2f3fbf"/><rect x="105.0" y="56.0" width="6.0" height="10.0" fill="#2f3fbf"/><rect x="99.0" y="56.0" width="6.0" height="10.0" fill="#2f3fbf"/><rect x="93.0" y="56.0" width="6.0" height="10.0" fill="#2f3fbf"/><rect x="87.0" y="56.0" width="6.0" height="10.0" fill="#2f3fbf"/><rect x="147.0" y="26.0" width="6.0" height="10.0" fill="#ff3f2f"/><rect x="159.0" y="26.0" width="6.0" height="10.0" fill="#ff3f2f"/><rect x="183.0" y="26.0" width="6.0" height="10.0" fill="#ff3f2f"/><rect x="189.0" y="26.0" width="6.0" height="10.0" fill="#ff3f2f"/><rect x="195.0" y="26.0" width="6.0" height="10.0" fill="#ff3f2f"/><rect x="201.0" y="36.0" width="6.0" height="10.0" fill="#ff3f2f"/><rect x="201.0" y="46.0" width="6.0" height="10.0" fill="#ff3f2f"/><rect x="201.0" y="56.0" width="6.0" height="10.0" fill="#ff3f2f"/><rect x="159.0" y="56.0" width="6.0" height="10.0" fill="#ff3f2f"/><rect x="207.0" y="26.0" width="6.0" height="10.0" fill="#2f3fbf"/><rect x="225.0" y="26.0" width="6.0" height="10.0" fill="#2f3fbf"/><rect x="243.0" y="26.0" width="6.0" height="10.0" fill="#2f3fbf"/><rect x="261.0" y="36.0" width="6.0" height="10.0" fill="#2f3fbf"/><rect x="261.0" y="56.0" width="6.0" height="10.0" fill="#2f3fbf"/><rect x="255.0" y="56.0" width="6.0" height="10.0" fill="#2f3fbf"/><rect x="243.0" y="56.0" width="6.0" height="10.0" fill="#2f3fbf"/><rect x="231.0" y="56.0" width="6.0" height="10.0" fill="#2f3fbf"/><rect x="225.0" y="56.0" width="6.0" height="10.0" fill="#2f3fbf"/><rect x="219.0" y="56.0" width="6.0" height="10.0" fill="#2f3fbf"/><rect x="213.0" y="56.0" width="6.0" height="10.0" fill="#2f3fbf"/><rect x="207.0" y="36.0" width="6.0" height="10.0" fill="#2f3fbf"/><rect x="33.0" y="66.0" width="6.0" height="10.0" fill="#2f3fbf"/><rect x="81.0" y="66.0" width="6.0" height="10.0" fill="#2f3fbf"/><rect x="81.0" y="76.0" width="6.0" height="10.0" fill="#2f3fbf"/><rect x="81.0" y="86.0" width="6.0" height="10.0" fill="#2f3fbf"/><rect x="69.0" y="96.0" width="6.0" height="10.0" fill="#2f3fbf"/><rect x="33.0" y="96.0" width="6.0" height="10.0" fill="#2f3fbf"/><rect x="27.0" y="76.0" width="6.0" height="10.0" fill="#2f3fbf"/><rect x="87.0" y="66.0" width="6.0" height="10.0" fill="#2f3fbf"/><rect x="99.0" y="66.0" width="6.0" height="10.0" fill="#2f3fbf"/><rect x="105.0" y="66.0" width="6.0" height="10.0" fill="#2f3fbf"/><rect x="111.0" y="66.0" width="6.0" height="10.0" fill="#2f3fbf"/><rect x="123.0" y="66.0" width="6.0" height="10.0" fill="#2f3fbf"/><rect x="135.0" y="66.0" width="6.0" height="10.0" fill="#2f3fbf"/><rect x="141.0" y="66.0" width="6.0" height="10.0" fill="#2f3fbf"/><rect x="129.0" y="96.0" width="6.0" height="10.0" fill="#2f3fbf"/><rect x="123.0" y="96.0" width="6.0" height="10.0" fill="#2f3fbf"/><rect x="117.0" y="96.0" width="6.0" height="10.0" fill="#2f3fbf"/><rect x="105.0" y="96.0" width="6.0" height="10.0" fill="#2f3fbf"/><rect x="93.0" y="96.0" width="6.0" height="10.0" fill="#2f3fbf"/><rect x="87.0" y="76.0" width="6.0" height="10.0" fill="#2f3fbf"/><rect x="147.0" y="66.0" width="6.0" height="10.0" fill="#2f3fbf"/><rect x="153.0" y="66.0" width="6.0" height="10.0" fill="#2f3fbf"/><rect x="159.0" y="66.0" width="6.0" height="10.0" fill="#2f3fbf"/><rect x="171.0" y="66.0" width="6.0" height="10.0" fill="#2f3fbf"/><rect x="177.0" y="66.0" width="6.0" height="10.0" fill="#2f3fbf"/><rect x="183.0" y="66.0" width="6.0" height="10.0" fill="#2f3fbf"/><rect x="201.0" y="76.0" width="6.0" height="10.0" fill="#2f3fbf"/><rect x="201.0" y="96.0" width="6.0" height="10.0" fill="#2f3fbf"/><rect x="195.0" y="96.0" width="6.0" height="10.0" fill="#2f3fbf"/><rect x="171.0" y="96.0" width="6.0" height="10.0" fill="#2f3fbf"/><rect x="165.0" y="96.0" width="6.0" height="10.0" fill="#2f3fbf"/><rect x="147.0" y="86.0" width="6.0" height="10.0" fill="#2f3fbf"/><rect x="147.0" y="76.0" width="6.0" height="10.0" fill="#2f3fbf"/><rect x="207.0" y="66.0" width="6.0" height="10.0" fill="#ff3f2f"/><rect x="213.0" y="66.0" width="6.0" height="10.0" fill="#ff3f2f"/><rect x="219.0" y="66.0" width="6.0" height="10.0" fill="#ff3f2f"/><rect x="225.0" y="66.0" width="6.0" height="10.0" fill="#ff3f2f"/><rect x="255.0" y="96.0" width="6.0" height="10.0" fill="#ff3f2f"/><rect x="249.0" y="96.0" width="6.0" height="10.0" fill="#ff3f2f"/><rect x="243.0" y="96.0" width="6.0" height="10.0" fill="#ff3f2f"/><rect x="231.0" y="96.0" width="6.0" height="10.0" fill="#ff3f2f"/><rect x="225.0" y="96.0" width="6.0" height="10.0" fill="#ff3f2f"/><rect x="207.0" y="96.0" width="6.0" height="10.0" fill="#ff3f2f"/><rect x="207.0" y="86.0" width="6.0" height="10.0" fill="#ff3f2f"/><rect x="33.0" y="106.0" width="6.0" height="10.0" fill="#ff3f2f"/><rect x="51.0" y="106.0" width="6.0" height="10.0" fill="#ff3f2f"/><rect x="63.0" y="106.0" width="6.0" height="10.0" fill="#ff3f2f"/><rect x="69.0" y="106.0" width="6.0" height="10.0" fill="#ff3f2f"/><rect x="81.0" y="106.0" width="6.0" height="10.0" fill="#ff3f2f"/><rect x="81.0" y="116.0" width="6.0" height="10.0" fill="#ff3f2f"/><rect x="81.0" y="126.0" width="6.0" height="10.0" fill="#ff3f2f"/><rect x="81.0" y="136.0" width="6.0" height="10.0" fill="#ff3f2f"/><rect x="69.0" y="136.0" width="6.0" height="10.0" fill="#ff3f2f"/><rect x="57.0" y="136.0" width="6.0" height="10.0" fill="#ff3f2f"/><rect x="39.0" y="136.0" width="6.0" height="10.0" fill="#ff3f2f"/><rect x="33.0" y="136.0" width="6.0" height="10.0" fill="#ff3f2f"/><rect x="27.0" y="136.0" width="6.0" height="10.0" fill="#ff3f2f"/><rect x="27.0" y="126.0" width="6.0" height="10.0" fill="#ff3f2f"/><rect x="105.0" y="106.0" width="6.0" height="10.0" fill="#2f3fbf"/><rect x="111.0" y="106.0" width="6.0" height="10.0" fill="#2f3fbf"/><rect x="123.0" y="106.0" width="6.0" height="10.0" fill="#2f3fbf"/><rect x="135.0" y="106.0" width="6.0" height="10.0" fill="#2f3fbf"/><rect x="141.0" y="106.0" width="6.0" height="10.0" fill="#2f3fbf"/><rect x="141.0" y="116.0" width="6.0" height="10.0" fill="#2f3fbf"/><rect x="141.0" y="126.0" width="6.0" height="10.0" fill="#2f3fbf"/><rect x="141.0" y="136.0" width="6.0" height="10.0" fill="#2f3fbf"/><rect x="129.0" y="136.0" width="6.0" height="10.0" fill="#2f3fbf"/><rect x="123.0" y="136.0" width="6.0" height="10.0" fill="#2f3fbf"/><rect x="111.0" y="136.0" width="6.0" height="10.0" fill="#2f3fbf"/><rect x="99.0" y="136.0" width="6.0" height="10.0" fill="#2f3fbf"/><rect x="87.0" y="136.0" width="6.0" height="10.0" fill="#2f3fbf"/><rect x="165.0" y="106.0" width="6.0" height="10.0" fill="#2f3fbf"/><rect x="171.0" y="106.0" width="6.0" height="10.0" fill="#2f3fbf"/><rect x="183.0" y="106.0" width="6.0" height="10.0" fill="#2f3fbf"/><rect x="201.0" y="126.0" width="6.0" height="10.0" fill="#2f3fbf"/><rect x="201.0" y="136.0" width="6.0" height="10.0" fill="#2f3fbf"/><rect x="195.0" y="136.0" width="6.0" height="10.0" fill="#2f3fbf"/><rect x="183.0" y="136.0" width="6.0" height="10.0" fill="#2f3fbf"/><rect x="171.0" y="136.0" width="6.0" height="10.0" fill="#2f3fbf"/><rect x="165.0" y="136.0" width="6.0" height="10.0" fill="#2f3fbf"/><rect x="147.0" y="126.0" width="6.0" height="10.0" fill="#2f3fbf"/><rect x="213.0" y="106.0" width="6.0" height="10.0" fill="#2f3fbf"/><rect x="243.0" y="106.0" width="6.0" height="10.0" fill="#2f3fbf"/><rect x="255.0" y="106.0" width="6.0" height="10.0" fill="#2f3fbf"/><rect x="261.0" y="106.0" width="6.0" height="10.0" fill="#2f3fbf"/><rect x="261.0" y="116.0" width="6.0" height="10.0" fill="#2f3fbf"/><rect x="261.0" y="136.0" width="6.0" height="10.0" fill="#2f3fbf"/><rect x="237.0" y="136.0" width="6.0" height="10.0" fill="#2f3fbf"/><rect x="231.0" y="136.0" width="6.0" height="10.0" fill="#2f3fbf"/><rect x="225.0" y="136.0" width="6.0" height="10.0" fill="#2f3fbf"/><rect x="27.0" y="146.0" width="6.0" height="10.0" fill="#2f3fbf"/><rect x="39.0" y="146.0" width="6.0" height="10.0" fill="#2f3fbf"/><rect x="51.0" y="146.0" width="6.0" height="10.0" fill="#2f3fbf"/><rect x="57.0" y="146.0" width="6.0" height="10.0" fill="#2f3fbf"/><rect x="75.0" y="146.0" width="6.0" height="10.0" fill="#2f3fbf"/><rect x="63.0" y="176.0" width="6.0" height="10.0" fill="#2f3fbf"/><rect x="45.0" y="176.0" width="6.0" height="10.0" fill="#2f3fbf"/><rect x="39.0" y="176.0" width="6.0" height="10.0" fill="#2f3fbf"/><rect x="33.0" y="176.0" width="6.0" height="10.0" fill="#2f3fbf"/><rect x="27.0" y="176.0" width="6.0" height="10.0" fill="#2f3fbf"/><rect x="87.0" y="146.0" width="6.0" height="10.0" fill="#2f3fbf"/><rect x="93.0" y="146.0" width="6.0" height="10.0" fill="#2f3fbf"/><rect x="111.0" y="146.0" width="6.0" height="10.0" fill="#2f3fbf"/><rect x="123.0" y="146.0" width="6.0" height="10.0" fill="#2f3fbf"/><rect x="141.0" y="146.0" width="6.0" height="10.0" fill="#2f3fbf"/><rect x="141.0" y="176.0" width="6.0" height="10.0" fill="#2f3fbf"/><rect x="135.0" y="176.0" width="6.0" height="10.0" fill="#2f3fbf"/><rect x="99.0" y="176.0" width="6.0" height="10.0" fill="#2f3fbf"/><rect x="87.0" y="176.0" width="6.0" height="10.0" fill="#2f3fbf"/><rect x="87.0" y="166.0" width="6.0" height="10.0" fill="#2f3fbf"/><rect x="87.0" y="156.0" width="6.0" height="10.0" fill="#2f3fbf"/><rect x="147.0" y="146.0" width="6.0" height="10.0" fill="#2f3fbf"/><rect x="165.0" y="146.0" width="6.0" height="10.0" fill="#2f3fbf"/><rect x="177.0" y="146.0" width="6.0" height="10.0" fill="#2f3fbf"/><rect x="183.0" y="146.0" width="6.0" height="10.0" fill="#2f3fbf"/><rect x="189.0" y="146.0" width="6.0" height="10.0" fill="#2f3fbf"/><rect x="195.0" y="176.0" width="6.0" height="10.0" fill="#2f3fbf"/><rect x="177.0" y="176.0" width="6.0" height="10.0" fill="#2f3fbf"/><rect x="165.0" y="176.0" width="6.0" height="10.0" fill="#2f3fbf"/><rect x="153.0" y="176.0" width="6.0" height="10.0" fill="#2f3fbf"/><rect x="147.0" y="166.0" width="6.0" height="10.0" fill="#2f3fbf"/><rect x="231.0" y="146.0" width="6.0" height="10.0" fill="#000000"/><rect x="249.0" y="146.0" width="6.0" height="10.0" fill="#000000"/><rect x="255.0" y="176.0" width="6.0" height="10.0" fill="#000000"/><rect x="243.0" y="176.0" width="6.0" height="10.0" fill="#000000"/><rect x="231.0" y="176.0" width="6.0" height="10.0" fill="#000000"/><rect x="225.0" y="176.0" width="6.0" height="10.0" fill="#000000"/></g><g clip-path="url(#grid-clip-2371623d63e0081d-4x4)" data-channel="ellipse" data-ellipse-anchor-x="87.0" data-ellipse-anchor-y="66.0" data-ellipse-rx="104.70520903947423" data-ellipse-ry="99.5132152028061" data-ellipse-rotation-deg="132.0"><ellipse cx="87.0" cy="66.0" rx="104.70520903947423" ry="99.5132152028061" transform="rotate(132.0 87.0 66.0)" fill="#000000" fill-opacity="0.2"/></g><g><g data-channel="cell" data-cell-index="0" data-cell-row="0" data-cell-col="0"><rect x="33.0" y="36.0" width="48.0" height="20.0" fill="#6c6548"/><text x="57.0" y="46.0" fill="#ffffff" style="font-family: &quot;JetBrains Mono&quot;, &quot;Menlo&quot;, &quot;Consolas&quot;, &quot;DejaVu Sans Mono&quot;, &quot;Liberation Mono&quot;, &quot;Roboto Mono&quot;, &quot;Noto Sans Mono&quot;, monospace; font-size: 16.0px;" text-anchor="middle" dominant-baseline="central">SGVs</text></g><g data-channel="cell" data-cell-index="1" data-cell-row="0" data-cell-col="1"><rect x="93.0" y="36.0" width="48.0" height="20.0" fill="#2c6f6c"/><text x="117.0" y="46.0" fill="#ffffff" style="font-family: &quot;JetBrains Mono&quot;, &quot;Menlo&quot;, &quot;Consolas&quot;, &quot;DejaVu Sans Mono&quot;, &quot;Liberation Mono&quot;, &quot;Roboto Mono&quot;, &quot;Noto Sans Mono&quot;, monospace; font-size: 16.0px;" text-anchor="middle" dominant-baseline="central">bG8s</text></g><g data-channel="cell" data-cell-index="2" data-cell-row="0" data-cell-col="2" data-cell-quartile="2"><rect x="153.0" y="36.0" width="48.0" height="20.0" fill="#687420"/><text x="177.0" y="46.0" fill="#ffffff" style="font-family: &quot;JetBrains Mono&quot;, &quot;Menlo&quot;, &quot;Consolas&quot;, &quot;DejaVu Sans Mono&quot;, &quot;Liberation Mono&quot;, &quot;Roboto Mono&quot;, &quot;Noto Sans Mono&quot;, monospace; font-size: 16.0px;" text-anchor="middle" dominant-baseline="central">IHRo</text><polygon points="201.0,36.0 191.0,36.0 201.0,46.0" fill="#ffffff"/></g><g data-channel="cell" data-cell-index="3" data-cell-row="0" data-cell-col="3"><rect x="213.0" y="36.0" width="48.0" height="20.0" fill="#207369"/><text x="237.0" y="46.0" fill="#ffffff" style="font-family: &quot;JetBrains Mono&quot;, &quot;Menlo&quot;, &quot;Consolas&quot;, &quot;DejaVu Sans Mono&quot;, &quot;Liberation Mono&quot;, &quot;Roboto Mono&quot;, &quot;Noto Sans Mono&quot;, monospace; font-size: 16.0px;" text-anchor="middle" dominant-baseline="central">aXMg</text></g><g data-channel="cell" data-cell-index="4" data-cell-row="1" data-cell-col="0"><rect x="33.0" y="76.0" width="48.0" height="20.0" fill="#207369"/><text x="57.0" y="86.0" fill="#ffffff" style="font-family: &quot;JetBrains Mono&quot;, &quot;Menlo&quot;, &quot;Consolas&quot;, &quot;DejaVu Sans Mono&quot;, &quot;Liberation Mono&quot;, &quot;Roboto Mono&quot;, &quot;Noto Sans Mono&quot;, monospace; font-size: 16.0px;" text-anchor="middle" dominant-baseline="central">aXMg</text></g><g data-channel="cell" data-cell-index="5" data-cell-row="1" data-cell-col="1" data-cell-quartile="4"><rect x="93.0" y="76.0" width="48.0" height="20.0" fill="#742061"/><text x="117.0" y="86.0" fill="#ffffff" style="font-family: &quot;JetBrains Mono&quot;, &quot;Menlo&quot;, &quot;Consolas&quot;, &quot;DejaVu Sans Mono&quot;, &quot;Liberation Mono&quot;, &quot;Roboto Mono&quot;, &quot;Noto Sans Mono&quot;, monospace; font-size: 16.0px;" text-anchor="middle" dominant-baseline="central">YSB0</text><polygon points="93.0,96.0 93.0,86.0 103.0,96.0" fill="#ffffff"/></g><g data-channel="cell" data-cell-index="6" data-cell-row="1" data-cell-col="2"><rect x="153.0" y="76.0" width="48.0" height="20.0" fill="#747365"/><text x="177.0" y="86.0" fill="#ffffff" style="font-family: &quot;JetBrains Mono&quot;, &quot;Menlo&quot;, &quot;Consolas&quot;, &quot;DejaVu Sans Mono&quot;, &quot;Liberation Mono&quot;, &quot;Roboto Mono&quot;, &quot;Noto Sans Mono&quot;, monospace; font-size: 16.0px;" text-anchor="middle" dominant-baseline="central">ZXN0</text></g><g data-channel="cell" data-cell-index="7" data-cell-row="1" data-cell-col="3"><rect x="213.0" y="76.0" width="48.0" height="20.0" fill="#666f20"/><text x="237.0" y="86.0" fill="#ffffff" style="font-family: &quot;JetBrains Mono&quot;, &quot;Menlo&quot;, &quot;Consolas&quot;, &quot;DejaVu Sans Mono&quot;, &quot;Liberation Mono&quot;, &quot;Roboto Mono&quot;, &quot;Noto Sans Mono&quot;, monospace; font-size: 16.0px;" text-anchor="middle" dominant-baseline="central">IG9m</text></g><g data-channel="cell" data-cell-index="8" data-cell-row="2" data-cell-col="0" data-cell-quartile="3"><rect x="33.0" y="116.0" width="48.0" height="20.0" fill="#687420"/><text x="57.0" y="126.0" fill="#ffffff" style="font-family: &quot;JetBrains Mono&quot;, &quot;Menlo&quot;, &quot;Consolas&quot;, &quot;DejaVu Sans Mono&quot;, &quot;Liberation Mono&quot;, &quot;Roboto Mono&quot;, &quot;Noto Sans Mono&quot;, monospace; font-size: 16.0px;" text-anchor="middle" dominant-baseline="central">IHRo</text><polygon points="81.0,136.0 81.0,126.0 71.0,136.0" fill="#ffffff"/></g><g data-channel="cell" data-cell-index="9" data-cell-row="2" data-cell-col="1"><rect x="93.0" y="116.0" width="48.0" height="20.0" fill="#652065"/><text x="117.0" y="126.0" fill="#ffffff" style="font-family: &quot;JetBrains Mono&quot;, &quot;Menlo&quot;, &quot;Consolas&quot;, &quot;DejaVu Sans Mono&quot;, &quot;Liberation Mono&quot;, &quot;Roboto Mono&quot;, &quot;Noto Sans Mono&quot;, monospace; font-size: 16.0px;" text-anchor="middle" dominant-baseline="central">ZSBl</text></g><g data-channel="cell" data-cell-index="10" data-cell-row="2" data-cell-col="2"><rect x="153.0" y="116.0" width="48.0" height="20.0" fill="#76746e"/><text x="177.0" y="126.0" fill="#ffffff" style="font-family: &quot;JetBrains Mono&quot;, &quot;Menlo&quot;, &quot;Consolas&quot;, &quot;DejaVu Sans Mono&quot;, &quot;Liberation Mono&quot;, &quot;Roboto Mono&quot;, &quot;Noto Sans Mono&quot;, monospace; font-size: 16.0px;" text-anchor="middle" dominant-baseline="central">bnR2</text></g><g data-channel="cell" data-cell-index="11" data-cell-row="2" data-cell-col="3"><rect x="213.0" y="116.0" width="48.0" height="20.0" fill="#207a69"/><text x="237.0" y="126.0" fill="#ffffff" style="font-family: &quot;JetBrains Mono&quot;, &quot;Menlo&quot;, &quot;Consolas&quot;, &quot;DejaVu Sans Mono&quot;, &quot;Liberation Mono&quot;, &quot;Roboto Mono&quot;, &quot;Noto Sans Mono&quot;, monospace; font-size: 16.0px;" text-anchor="middle" dominant-baseline="central">aXog</text></g><g data-channel="cell" data-cell-index="12" data-cell-row="3" data-cell-col="0" data-cell-quartile="1"><rect x="33.0" y="156.0" width="48.0" height="20.0" fill="#676c61"/><text x="57.0" y="166.0" fill="#ffffff" style="font-family: &quot;JetBrains Mono&quot;, &quot;Menlo&quot;, &quot;Consolas&quot;, &quot;DejaVu Sans Mono&quot;, &quot;Liberation Mono&quot;, &quot;Roboto Mono&quot;, &quot;Noto Sans Mono&quot;, monospace; font-size: 16.0px;" text-anchor="middle" dominant-baseline="central">YWxn</text><polygon points="33.0,156.0 43.0,156.0 33.0,166.0" fill="#ffffff"/></g><g data-channel="cell" data-cell-index="13" data-cell-row="3" data-cell-col="1"><rect x="93.0" y="156.0" width="48.0" height="20.0" fill="#69726f"/><text x="117.0" y="166.0" fill="#ffffff" style="font-family: &quot;JetBrains Mono&quot;, &quot;Menlo&quot;, &quot;Consolas&quot;, &quot;DejaVu Sans Mono&quot;, &quot;Liberation Mono&quot;, &quot;Roboto Mono&quot;, &quot;Noto Sans Mono&quot;, monospace; font-size: 16.0px;" text-anchor="middle" dominant-baseline="central">b3Jp</text></g><g data-channel="cell" data-cell-index="14" data-cell-row="3" data-cell-col="2"><rect x="153.0" y="156.0" width="48.0" height="20.0" fill="#6d6874"/><text x="177.0" y="166.0" fill="#ffffff" style="font-family: &quot;JetBrains Mono&quot;, &quot;Menlo&quot;, &quot;Consolas&quot;, &quot;DejaVu Sans Mono&quot;, &quot;Liberation Mono&quot;, &quot;Roboto Mono&quot;, &quot;Noto Sans Mono&quot;, monospace; font-size: 16.0px;" text-anchor="middle" dominant-baseline="central">dGht</text></g><g data-channel="cell" data-cell-index="15" data-cell-row="3" data-cell-col="3"><rect x="213.0" y="156.0" width="48.0" height="20.0" fill="#100221"/><text x="237.0" y="166.0" fill="#ffffff" style="font-family: &quot;JetBrains Mono&quot;, &quot;Menlo&quot;, &quot;Consolas&quot;, &quot;DejaVu Sans Mono&quot;, &quot;Liberation Mono&quot;, &quot;Roboto Mono&quot;, &quot;Noto Sans Mono&quot;, monospace; font-size: 16.0px;" text-anchor="middle" dominant-baseline="central">IQ</text></g></g></g><g data-channel="color-bar"><g data-color-bar-rank="0" data-color-bar-band="G"><rect x="1" y="1" width="20.0" height="67.95611987849412" fill="#ffd966"/><text x="11.0" y="65.43611987849413" fill="#000000" style="font-family: &quot;JetBrains Mono&quot;, &quot;Menlo&quot;, &quot;Consolas&quot;, &quot;DejaVu Sans Mono&quot;, &quot;Liberation Mono&quot;, &quot;Roboto Mono&quot;, &quot;Noto Sans Mono&quot;, monospace; font-size: 16.0px;" text-anchor="middle" data-color-bar-letter="true">g</text></g><g data-color-bar-rank="1" data-color-bar-band="R"><rect x="1" y="68.95611987849412" width="20.0" height="57.178246123235894" fill="#ff3f2f"/><text x="11.0" y="122.61436600173002" fill="#000000" style="font-family: &quot;JetBrains Mono&quot;, &quot;Menlo&quot;, &quot;Consolas&quot;, &quot;DejaVu Sans Mono&quot;, &quot;Liberation Mono&quot;, &quot;Roboto Mono&quot;, &quot;Noto Sans Mono&quot;, monospace; font-size: 16.0px;" text-anchor="middle" data-color-bar-letter="true">r</text></g><g data-color-bar-rank="2" data-color-bar-band="K"><rect x="1" y="126.13436600173002" width="20.0" height="42.12669386795949" fill="#000000"/><text x="11.0" y="164.7410598696895" fill="#ffffff" style="font-family: &quot;JetBrains Mono&quot;, &quot;Menlo&quot;, &quot;Consolas&quot;, &quot;DejaVu Sans Mono&quot;, &quot;Liberation Mono&quot;, &quot;Roboto Mono&quot;, &quot;Noto Sans Mono&quot;, monospace; font-size: 16.0px;" text-anchor="middle" data-color-bar-letter="true">k</text></g><g data-color-bar-rank="3" data-color-bar-band="B"><rect x="1" y="168.26105986968952" width="20.0" height="22.738940130310482" fill="#2f3fbf"/><text x="11.0" y="187.48" fill="#ffffff" style="font-family: &quot;JetBrains Mono&quot;, &quot;Menlo&quot;, &quot;Consolas&quot;, &quot;DejaVu Sans Mono&quot;, &quot;Liberation Mono&quot;, &quot;Roboto Mono&quot;, &quot;Noto Sans Mono&quot;, monospace; font-size: 16.0px;" text-anchor="middle" data-color-bar-letter="true">b</text></g></g><g data-channel="label-top"><text x="27.0" y="16.0" fill="#666666" style="font-family: &quot;JetBrains Mono&quot;, &quot;Menlo&quot;, &quot;Consolas&quot;, &quot;DejaVu Sans Mono&quot;, &quot;Liberation Mono&quot;, &quot;Roboto Mono&quot;, &quot;Noto Sans Mono&quot;, monospace; font-size: 12.0px;" dominant-baseline="central">b64(62):</text></g><line x1="0" y1="0.5" x2="273.0" y2="0.5" stroke="#808080" stroke-width="1" shape-rendering="crispEdges"/><line x1="272.5" y1="0" x2="272.5" y2="192.0" stroke="#808080" stroke-width="1" shape-rendering="crispEdges"/><line x1="0" y1="191.5" x2="273.0" y2="191.5" stroke="#808080" stroke-width="1" shape-rendering="crispEdges"/><line x1="0.5" y1="0" x2="0.5" y2="192.0" stroke="#808080" stroke-width="1" shape-rendering="crispEdges"/><line x1="21.5" y1="0" x2="21.5" y2="192.0" stroke="#808080" stroke-width="1" shape-rendering="crispEdges"/></svg>