<svg width="213" height="192" viewBox="0 0 213 192" xmlns="http://www.w3.org/2000/svg" data-entviz-version="v10" data-entviz-lib="0.10.0" data-input-bytes="83" data-cols="3" data-rows="4"><defs><clipPath id="grid-clip-6d0315d4efb9e5cf-3x4"><rect x="27" y="26" width="180" height="160"/></clipPath></defs><rect x="0" y="0" width="213" height="192" fill="#ffffff"/><g data-channel="grid"><rect x="27" y="26" width="180" height="160" fill="#ffffff"/><g><rect x="27" y="26" width="6" height="10" fill="#ff3f2f"/><rect x="39" y="26" width="6" height="10" fill="#ff3f2f"/><rect x="51" y="26" width="6" height="10" fill="#ff3f2f"/><rect x="75" y="26" width="6" height="10" fill="#ff3f2f"/><rect x="81" y="26" width="6" height="10" fill="#ff3f2f"/><rect x="57" y="56" width="6" height="10" fill="#ff3f2f"/><rect x="45" y="56" width="6" height="10" fill="#ff3f2f"/><rect x="39" y="56" width="6" height="10" fill="#ff3f2f"/><rect x="27" y="56" width="6" height="10" fill="#ff3f2f"/><rect x="27" y="46" width="6" height="10" fill="#ff3f2f"/><rect x="87" y="26" width="6" height="10" fill="#ff3f2f"/><rect x="105" y="26" width="6" height="10" fill="#ff3f2f"/><rect x="111" y="26" width="6" height="10" fill="#ff3f2f"/><rect x="117" y="26" width="6" height="10" fill="#ff3f2f"/><rect x="129" y="26" width="6" height="10" fill="#ff3f2f"/><rect x="135" y="26" width="6" height="10" fill="#ff3f2f"/><rect x="141" y="26" width="6" height="10" fill="#ff3f2f"/><rect x="141" y="36" width="6" height="10" fill="#ff3f2f"/><rect x="141" y="46" width="6" height="10" fill="#ff3f2f"/><rect x="135" y="56" width="6" height="10" fill="#ff3f2f"/><rect x="129" y="56" width="6" height="10" fill="#ff3f2f"/><rect x="123" y="56" width="6" height="10" fill="#ff3f2f"/><rect x="105" y="56" width="6" height="10" fill="#ff3f2f"/><rect x="93" y="56" width="6" height="10" fill="#ff3f2f"/><rect x="87" y="46" width="6" height="10" fill="#ff3f2f"/><rect x="87" y="36" width="6" height="10" fill="#ff3f2f"/><rect x="183" y="26" width="6" height="10" fill="#2f3fbf"/><rect x="195" y="26" width="6" height="10" fill="#2f3fbf"/><rect x="201" y="26" width="6" height="10" fill="#2f3fbf"/><rect x="201" y="36" width="6" height="10" fill="#2f3fbf"/><rect x="201" y="46" width="6" height="10" fill="#2f3fbf"/><rect x="189" y="56" width="6" height="10" fill="#2f3fbf"/><rect x="183" y="56" width="6" height="10" fill="#2f3fbf"/><rect x="177" y="56" width="6" height="10" fill="#2f3fbf"/><rect x="165" y="56" width="6" height="10" fill="#2f3fbf"/><rect x="147" y="56" width="6" height="10" fill="#2f3fbf"/><rect x="147" y="46" width="6" height="10" fill="#2f3fbf"/><rect x="147" y="36" width="6" height="10" fill="#2f3fbf"/><rect x="99" y="66" width="6" height="10" fill="#ff3f2f"/><rect x="123" y="66" width="6" height="10" fill="#ff3f2f"/><rect x="135" y="66" width="6" height="10" fill="#ff3f2f"/><rect x="141" y="96" width="6" height="10" fill="#ff3f2f"/><rect x="123" y="96" width="6" height="10" fill="#ff3f2f"/><rect x="111" y="96" width="6" height="10" fill="#ff3f2f"/><rect x="105" y="96" width="6" height="10" fill="#ff3f2f"/><rect x="93" y="96" width="6" height="10" fill="#ff3f2f"/><rect x="87" y="86" width="6" height="10" fill="#ff3f2f"/><rect x="177" y="66" width="6" height="10" fill="#e7be00"/><rect x="189" y="66" width="6" height="10" fill="#e7be00"/><rect x="195" y="66" width="6" height="10" fill="#e7be00"/><rect x="201" y="66" width="6" height="10" fill="#e7be00"/><rect x="201" y="76" width="6" height="10" fill="#e7be00"/><rect x="201" y="96" width="6" height="10" fill="#e7be00"/><rect x="195" y="96" width="6" height="10" fill="#e7be00"/><rect x="177" y="96" width="6" height="10" fill="#e7be00"/><rect x="165" y="96" width="6" height="10" fill="#e7be00"/><rect x="159" y="96" width="6" height="10" fill="#e7be00"/><rect x="147" y="96" width="6" height="10" fill="#e7be00"/><rect x="147" y="76" width="6" height="10" fill="#e7be00"/><rect x="33" y="106" width="6" height="10" fill="#2f3fbf"/><rect x="69" y="106" width="6" height="10" fill="#2f3fbf"/><rect x="81" y="106" width="6" height="10" fill="#2f3fbf"/><rect x="81" y="116" width="6" height="10" fill="#2f3fbf"/><rect x="81" y="136" width="6" height="10" fill="#2f3fbf"/><rect x="75" y="136" width="6" height="10" fill="#2f3fbf"/><rect x="69" y="136" width="6" height="10" fill="#2f3fbf"/><rect x="57" y="136" width="6" height="10" fill="#2f3fbf"/><rect x="33" y="136" width="6" height="10" fill="#2f3fbf"/><rect x="99" y="106" width="6" height="10" fill="#2f3fbf"/><rect x="105" y="106" width="6" height="10" fill="#2f3fbf"/><rect x="111" y="106" width="6" height="10" fill="#2f3fbf"/><rect x="123" y="106" width="6" height="10" fill="#2f3fbf"/><rect x="141" y="116" width="6" height="10" fill="#2f3fbf"/><rect x="141" y="126" width="6" height="10" fill="#2f3fbf"/><rect x="135" y="136" width="6" height="10" fill="#2f3fbf"/><rect x="129" y="136" width="6" height="10" fill="#2f3fbf"/><rect x="123" y="136" width="6" height="10" fill="#2f3fbf"/><rect x="117" y="136" width="6" height="10" fill="#2f3fbf"/><rect x="111" y="136" width="6" height="10" fill="#2f3fbf"/><rect x="105" y="136" width="6" height="10" fill="#2f3fbf"/><rect x="99" y="136" width="6" height="10" fill="#2f3fbf"/><rect x="93" y="136" width="6" height="10" fill="#2f3fbf"/><rect x="87" y="136" width="6" height="10" fill="#2f3fbf"/><rect x="87" y="126" width="6" height="10" fill="#2f3fbf"/><rect x="147" y="106" width="6" height="10" fill="#2f3fbf"/><rect x="159" y="106" width="6" height="10" fill="#2f3fbf"/><rect x="171" y="106" width="6" height="10" fill="#2f3fbf"/><rect x="177" y="106" width="6" height="10" fill="#2f3fbf"/><rect x="183" y="106" width="6" height="10" fill="#2f3fbf"/><rect x="189" y="106" width="6" height="10" fill="#2f3fbf"/><rect x="201" y="106" width="6" height="10" fill="#2f3fbf"/><rect x="201" y="126" width="6" height="10" fill="#2f3fbf"/><rect x="189" y="136" width="6" height="10" fill="#2f3fbf"/><rect x="183" y="136" width="6" height="10" fill="#2f3fbf"/><rect x="177" y="136" width="6" height="10" fill="#2f3fbf"/><rect x="159" y="136" width="6" height="10" fill="#2f3fbf"/><rect x="153" y="136" width="6" height="10" fill="#2f3fbf"/><rect x="147" y="126" width="6" height="10" fill="#2f3fbf"/><rect x="147" y="116" width="6" height="10" fill="#2f3fbf"/><rect x="27" y="146" width="6" height="10" fill="#2f3fbf"/><rect x="45" y="146" width="6" height="10" fill="#2f3fbf"/><rect x="63" y="146" width="6" height="10" fill="#2f3fbf"/><rect x="81" y="176" width="6" height="10" fill="#2f3fbf"/><rect x="75" y="176" width="6" height="10" fill="#2f3fbf"/><rect x="69" y="176" width="6" height="10" fill="#2f3fbf"/><rect x="63" y="176" width="6" height="10" fill="#2f3fbf"/><rect x="57" y="176" width="6" height="10" fill="#2f3fbf"/><rect x="51" y="176" width="6" height="10" fill="#2f3fbf"/><rect x="33" y="176" width="6" height="10" fill="#2f3fbf"/><rect x="27" y="156" width="6" height="10" fill="#2f3fbf"/><rect x="87" y="146" width="6" height="10" fill="#2f3fbf"/><rect x="93" y="146" width="6" height="10" fill="#2f3fbf"/><rect x="99" y="146" width="6" height="10" fill="#2f3fbf"/><rect x="111" y="146" width="6" height="10" fill="#2f3fbf"/><rect x="117" y="146" width="6" height="10" fill="#2f3fbf"/><rect x="123" y="146" width="6" height="10" fill="#2f3fbf"/><rect x="129" y="146" width="6" height="10" fill="#2f3fbf"/><rect x="135" y="146" width="6" height="10" fill="#2f3fbf"/><rect x="141" y="146" width="6" height="10" fill="#2f3fbf"/><rect x="141" y="156" width="6" height="10" fill="#2f3fbf"/><rect x="129" y="176" width="6" height="10" fill="#2f3fbf"/><rect x="117" y="176" width="6" height="10" fill="#2f3fbf"/><rect x="111" y="176" width="6" height="10" fill="#2f3fbf"/><rect x="99" y="176" width="6" height="10" fill="#2f3fbf"/><rect x="93" y="176" width="6" height="10" fill="#2f3fbf"/><rect x="87" y="166" width="6" height="10" fill="#2f3fbf"/><rect x="87" y="156" width="6" height="10" fill="#2f3fbf"/><rect x="147" y="146" width="6" height="10" fill="#ff3f2f"/><rect x="159" y="146" width="6" height="10" fill="#ff3f2f"/><rect x="171" y="146" width="6" height="10" fill="#ff3f2f"/><rect x="177" y="146" width="6" height="10" fill="#ff3f2f"/><rect x="189" y="146" width="6" height="10" fill="#ff3f2f"/><rect x="201" y="146" width="6" height="10" fill="#ff3f2f"/><rect x="201" y="166" width="6" height="10" fill="#ff3f2f"/><rect x="201" y="176" width="6" height="10" fill="#ff3f2f"/><rect x="177" y="176" width="6" height="10" fill="#ff3f2f"/><rect x="171" y="176" width="6" height="10" fill="#ff3f2f"/><rect x="165" y="176" width="6" height="10" fill="#ff3f2f"/><rect x="159" y="176" width="6" height="10" fill="#ff3f2f"/><rect x="147" y="176" width="6" height="10" fill="#ff3f2f"/><rect x="147" y="156" width="6" height="10" fill="#ff3f2f"/></g><g clip-path="url(#grid-clip-6d0315d4efb9e5cf-3x4)" data-channel="ellipse" data-ellipse-anchor-x="87" data-ellipse-anchor-y="146" data-ellipse-rx="37.335" data-ellipse-ry="57.7" data-ellipse-rotation-deg="0"><ellipse cx="87" cy="146" rx="37.335" ry="57.7" transform="rotate(0 87 146)" fill="#000000" stroke="#000000" fill-opacity="0.2" stroke-opacity="0.3" stroke-width="2"/></g><g><g data-channel="cell" data-cell-index="0" data-cell-row="0" data-cell-col="0"><rect x="33" y="36" width="48" height="20" fill="#0f3a47"/><text x="57" y="46" fill="#ffffff" style="font-family: &quot;JetBrains Mono&quot;, &quot;Menlo&quot;, &quot;Consolas&quot;, &quot;DejaVu Sans Mono&quot;, &quot;Liberation Mono&quot;, &quot;Roboto Mono&quot;, &quot;Noto Sans Mono&quot;, monospace; font-size: 12px;" text-anchor="middle" dominant-baseline="central">473a0f</text></g><g data-channel="cell" data-cell-index="1" data-cell-row="0" data-cell-col="1" data-cell-quartile="2"><rect x="93" y="36" width="48" height="20" fill="#e83b4c"/><text x="117" y="46" fill="#000000" style="font-family: &quot;JetBrains Mono&quot;, &quot;Menlo&quot;, &quot;Consolas&quot;, &quot;DejaVu Sans Mono&quot;, &quot;Liberation Mono&quot;, &quot;Roboto Mono&quot;, &quot;Noto Sans Mono&quot;, monospace; font-size: 12px;" text-anchor="middle" dominant-baseline="central">4c3be8</text><polygon points="141,36 131,36 141,46" fill="#000000"/></g><g data-channel="cell" data-cell-index="2" data-cell-row="0" data-cell-col="2"><rect x="153" y="36" width="48" height="20" fill="#8136a9"/><text x="177" y="46" fill="#ffffff" style="font-family: &quot;JetBrains Mono&quot;, &quot;Menlo&quot;, &quot;Consolas&quot;, &quot;DejaVu Sans Mono&quot;, &quot;Liberation Mono&quot;, &quot;Roboto Mono&quot;, &quot;Noto Sans Mono&quot;, monospace; font-size: 12px;" text-anchor="middle" dominant-baseline="central">a93681</text></g><g data-channel="cell" data-cell-index="3" data-cell-row="1" data-cell-col="0" data-cell-blank="true" data-cell-blank-map="true"><rect x="33" y="76" width="48" height="20" rx="10" ry="10" fill="#ff3f2f" stroke="#000000" stroke-width="1"/><circle cx="41" cy="88.5" r="3.5" fill="#000000" data-blank-map-min="2,0"/><path d="M 68.8,78.5 H 77.2 M 73,74.3 V 82.7" fill="none" stroke="#000000" stroke-width="1.925" stroke-linecap="butt" data-blank-map-max="0,2"/></g><g data-channel="cell" data-cell-index="4" data-cell-row="1" data-cell-col="1" data-cell-quartile="3"><rect x="93" y="76" width="48" height="20" fill="#e367a2"/><text x="117" y="86" fill="#000000" style="font-family: &quot;JetBrains Mono&quot;, &quot;Menlo&quot;, &quot;Consolas&quot;, &quot;DejaVu Sans Mono&quot;, &quot;Liberation Mono&quot;, &quot;Roboto Mono&quot;, &quot;Noto Sans Mono&quot;, monospace; font-size: 12px;" text-anchor="middle" dominant-baseline="central">a267e3</text><polygon points="141,96 141,86 131,96" fill="#000000"/></g><g data-channel="cell" data-cell-index="5" data-cell-row="1" data-cell-col="2"><rect x="153" y="76" width="48" height="20" fill="#a7e9b1"/><text x="177" y="86" fill="#000000" style="font-family: &quot;JetBrains Mono&quot;, &quot;Menlo&quot;, &quot;Consolas&quot;, &quot;DejaVu Sans Mono&quot;, &quot;Liberation Mono&quot;, &quot;Roboto Mono&quot;, &quot;Noto Sans Mono&quot;, monospace; font-size: 12px;" text-anchor="middle" dominant-baseline="central">b1e9a7</text></g><g data-channel="cell" data-cell-index="6" data-cell-row="2" data-cell-col="0"><rect x="33" y="116" width="48" height="20" fill="#11dadc"/><text x="57" y="126" fill="#000000" style="font-family: &quot;JetBrains Mono&quot;, &quot;Menlo&quot;, &quot;Consolas&quot;, &quot;DejaVu Sans Mono&quot;, &quot;Liberation Mono&quot;, &quot;Roboto Mono&quot;, &quot;Noto Sans Mono&quot;, monospace; font-size: 12px;" text-anchor="middle" dominant-baseline="central">dcda11</text></g><g data-channel="cell" data-cell-index="7" data-cell-row="2" data-cell-col="1" data-cell-quartile="4"><rect x="93" y="116" width="48" height="20" fill="#6f4385"/><text x="117" y="126" fill="#ffffff" style="font-family: &quot;JetBrains Mono&quot;, &quot;Menlo&quot;, &quot;Consolas&quot;, &quot;DejaVu Sans Mono&quot;, &quot;Liberation Mono&quot;, &quot;Roboto Mono&quot;, &quot;Noto Sans Mono&quot;, monospace; font-size: 12px;" text-anchor="middle" dominant-baseline="central">85436f</text><polygon points="93,136 93,126 103,136" fill="#ffffff"/></g><g data-channel="cell" data-cell-index="8" data-cell-row="2" data-cell-col="2"><rect x="153" y="116" width="48" height="20" fill="#f741e1"/><text x="177" y="126" fill="#000000" style="font-family: &quot;JetBrains Mono&quot;, &quot;Menlo&quot;, &quot;Consolas&quot;, &quot;DejaVu Sans Mono&quot;, &quot;Liberation Mono&quot;, &quot;Roboto Mono&quot;, &quot;Noto Sans Mono&quot;, monospace; font-size: 12px;" text-anchor="middle" dominant-baseline="central">e141f7</text></g><g data-channel="cell" data-cell-index="9" data-cell-row="3" data-cell-col="0"><rect x="33" y="156" width="48" height="20" fill="#209174"/><text x="57" y="166" fill="#ffffff" style="font-family: &quot;JetBrains Mono&quot;, &quot;Menlo&quot;, &quot;Consolas&quot;, &quot;DejaVu Sans Mono&quot;, &quot;Liberation Mono&quot;, &quot;Roboto Mono&quot;, &quot;Noto Sans Mono&quot;, monospace; font-size: 12px;" text-anchor="middle" dominant-baseline="central">749120</text></g><g data-channel="cell" data-cell-index="10" data-cell-row="3" data-cell-col="1"><rect x="93" y="156" width="48" height="20" fill="#7203a3"/><text x="117" y="166" fill="#ffffff" style="font-family: &quot;JetBrains Mono&quot;, &quot;Menlo&quot;, &quot;Consolas&quot;, &quot;DejaVu Sans Mono&quot;, &quot;Liberation Mono&quot;, &quot;Roboto Mono&quot;, &quot;Noto Sans Mono&quot;, monospace; font-size: 12px;" text-anchor="middle" dominant-baseline="central">a30372</text></g><g data-channel="cell" data-cell-index="11" data-cell-row="3" data-cell-col="2" data-cell-quartile="1"><rect x="153" y="156" width="48" height="20" fill="#131318"/><text x="177" y="166" fill="#ffffff" style="font-family: &quot;JetBrains Mono&quot;, &quot;Menlo&quot;, &quot;Consolas&quot;, &quot;DejaVu Sans Mono&quot;, &quot;Liberation Mono&quot;, &quot;Roboto Mono&quot;, &quot;Noto Sans Mono&quot;, monospace; font-size: 12px;" text-anchor="middle" dominant-baseline="central">1813</text><polygon points="153,156 163,156 153,166" fill="#ffffff"/></g></g></g><g data-channel="color-bar" data-bar-slots="15" data-bar-marker-left="13" data-bar-marker-right="11"><g data-color-bar-rank="0" data-color-bar-band="R"><rect x="1" y="1" width="20" height="84.89" fill="#ff3f2f"/><text x="11" y="83.25" fill="#000000" style="font-family: &quot;JetBrains Mono&quot;, &quot;Menlo&quot;, &quot;Consolas&quot;, &quot;DejaVu Sans Mono&quot;, &quot;Liberation Mono&quot;, &quot;Roboto Mono&quot;, &quot;Noto Sans Mono&quot;, monospace; font-size: 12px;" text-anchor="middle" data-color-bar-letter="true">r</text></g><g data-color-bar-rank="1" data-color-bar-band="K"><rect x="1" y="85.89" width="20" height="51.275" fill="#000000"/><text x="11" y="134.525" fill="#ffffff" style="font-family: &quot;JetBrains Mono&quot;, &quot;Menlo&quot;, &quot;Consolas&quot;, &quot;DejaVu Sans Mono&quot;, &quot;Liberation Mono&quot;, &quot;Roboto Mono&quot;, &quot;Noto Sans Mono&quot;, monospace; font-size: 12px;" text-anchor="middle" data-color-bar-letter="true">k</text></g><g data-color-bar-rank="2" data-color-bar-band="B"><rect x="1" y="137.165" width="20" height="18.604" fill="#2f3fbf"/><text x="11" y="153.129" fill="#ffffff" style="font-family: &quot;JetBrains Mono&quot;, &quot;Menlo&quot;, &quot;Consolas&quot;, &quot;DejaVu Sans Mono&quot;, &quot;Liberation Mono&quot;, &quot;Roboto Mono&quot;, &quot;Noto Sans Mono&quot;, monospace; font-size: 12px;" text-anchor="middle" data-color-bar-letter="true">b</text></g><g data-color-bar-rank="3" data-color-bar-band="G"><rect x="1" y="155.769" width="20" height="35.231" fill="#e7be00"/><text x="11" y="188.36" fill="#000000" style="font-family: &quot;JetBrains Mono&quot;, &quot;Menlo&quot;, &quot;Consolas&quot;, &quot;DejaVu Sans Mono&quot;, &quot;Liberation Mono&quot;, &quot;Roboto Mono&quot;, &quot;Noto Sans Mono&quot;, monospace; font-size: 12px;" text-anchor="middle" data-color-bar-letter="true">g</text></g><circle cx="5.6" cy="172" r="3.4" fill="#ffffff" stroke="#000000" stroke-width="0.75" data-bar-marker="left"/><circle cx="16.4" cy="146.667" r="3.4" fill="#ffffff" stroke="#000000" stroke-width="0.75" data-bar-marker="right"/></g><g data-channel="label-top"><text x="27" y="16" fill="#666666" style="font-family: &quot;JetBrains Mono&quot;, &quot;Menlo&quot;, &quot;Consolas&quot;, &quot;DejaVu Sans Mono&quot;, &quot;Liberation Mono&quot;, &quot;Roboto Mono&quot;, &quot;Noto Sans Mono&quot;, monospace; font-size: 12px;" dominant-baseline="central">gitoid:blob:sha256:...</text></g><line x1="0" y1="0.5" x2="213" y2="0.5" stroke="#808080" stroke-width="1" shape-rendering="crispEdges"/><line x1="212.5" y1="0" x2="212.5" y2="192" stroke="#808080" stroke-width="1" shape-rendering="crispEdges"/><line x1="0" y1="191.5" x2="213" y2="191.5" stroke="#808080" stroke-width="1" shape-rendering="crispEdges"/><line x1="0.5" y1="0" x2="0.5" y2="192" stroke="#808080" stroke-width="1" shape-rendering="crispEdges"/><line x1="21.5" y1="0" x2="21.5" y2="192" stroke="#808080" stroke-width="1" shape-rendering="crispEdges"/></svg>