<svg width="263.0" height="157.0" viewBox="0 0 263.0 157.0" xmlns="http://www.w3.org/2000/svg" data-entviz-version="v5" data-input-bytes="64" data-cols="4" data-rows="3"><defs><clipPath id="grid-clip-8ed0861e43294df7-4x3"><rect x="17.0" y="31.0" width="240.0" height="120.0"/></clipPath></defs><rect x="0" y="0" width="263.0" height="157.0" fill="#ffffff"/><g data-channel="grid"><rect x="17.0" y="31.0" width="240.0" height="120.0" fill="#2f3fbf"/><g><rect x="23.0" y="31.0" width="6.0" height="10.0" fill="#ffffff"/><rect x="29.0" y="31.0" width="6.0" height="10.0" fill="#ffffff"/><rect x="59.0" y="31.0" width="6.0" height="10.0" fill="#ffffff"/><rect x="71.0" y="61.0" width="6.0" height="10.0" fill="#ffffff"/><rect x="59.0" y="61.0" width="6.0" height="10.0" fill="#ffffff"/><rect x="53.0" y="61.0" width="6.0" height="10.0" fill="#ffffff"/><rect x="41.0" y="61.0" width="6.0" height="10.0" fill="#ffffff"/><rect x="35.0" y="61.0" width="6.0" height="10.0" fill="#ffffff"/><rect x="29.0" y="61.0" width="6.0" height="10.0" fill="#ffffff"/><rect x="17.0" y="41.0" width="6.0" height="10.0" fill="#ffffff"/><rect x="77.0" y="31.0" width="6.0" height="10.0" fill="#ffffff"/><rect x="95.0" y="31.0" width="6.0" height="10.0" fill="#ffffff"/><rect x="107.0" y="31.0" width="6.0" height="10.0" fill="#ffffff"/><rect x="125.0" y="31.0" width="6.0" height="10.0" fill="#ffffff"/><rect x="131.0" y="31.0" width="6.0" height="10.0" fill="#ffffff"/><rect x="119.0" y="61.0" width="6.0" height="10.0" fill="#ffffff"/><rect x="101.0" y="61.0" width="6.0" height="10.0" fill="#ffffff"/><rect x="95.0" y="61.0" width="6.0" height="10.0" fill="#ffffff"/><rect x="89.0" y="61.0" width="6.0" height="10.0" fill="#ffffff"/><rect x="83.0" y="61.0" width="6.0" height="10.0" fill="#ffffff"/><rect x="137.0" y="31.0" width="6.0" height="10.0" fill="#ffd966"/><rect x="167.0" y="31.0" width="6.0" height="10.0" fill="#ffd966"/><rect x="173.0" y="31.0" width="6.0" height="10.0" fill="#ffd966"/><rect x="185.0" y="31.0" width="6.0" height="10.0" fill="#ffd966"/><rect x="191.0" y="31.0" width="6.0" height="10.0" fill="#ffd966"/><rect x="191.0" y="41.0" width="6.0" height="10.0" fill="#ffd966"/><rect x="191.0" y="61.0" width="6.0" height="10.0" fill="#ffd966"/><rect x="185.0" y="61.0" width="6.0" height="10.0" fill="#ffd966"/><rect x="179.0" y="61.0" width="6.0" height="10.0" fill="#ffd966"/><rect x="173.0" y="61.0" width="6.0" height="10.0" fill="#ffd966"/><rect x="167.0" y="61.0" width="6.0" height="10.0" fill="#ffd966"/><rect x="155.0" y="61.0" width="6.0" height="10.0" fill="#ffd966"/><rect x="149.0" y="61.0" width="6.0" height="10.0" fill="#ffd966"/><rect x="137.0" y="51.0" width="6.0" height="10.0" fill="#ffd966"/><rect x="197.0" y="31.0" width="6.0" height="10.0" fill="#ff3f2f"/><rect x="203.0" y="31.0" width="6.0" height="10.0" fill="#ff3f2f"/><rect x="209.0" y="31.0" width="6.0" height="10.0" fill="#ff3f2f"/><rect x="227.0" y="31.0" width="6.0" height="10.0" fill="#ff3f2f"/><rect x="251.0" y="51.0" width="6.0" height="10.0" fill="#ff3f2f"/><rect x="233.0" y="61.0" width="6.0" height="10.0" fill="#ff3f2f"/><rect x="227.0" y="61.0" width="6.0" height="10.0" fill="#ff3f2f"/><rect x="215.0" y="61.0" width="6.0" height="10.0" fill="#ff3f2f"/><rect x="203.0" y="61.0" width="6.0" height="10.0" fill="#ff3f2f"/><rect x="197.0" y="61.0" width="6.0" height="10.0" fill="#ff3f2f"/><rect x="197.0" y="51.0" width="6.0" height="10.0" fill="#ff3f2f"/><rect x="17.0" y="71.0" width="6.0" height="10.0" fill="#ffd966"/><rect x="35.0" y="71.0" width="6.0" height="10.0" fill="#ffd966"/><rect x="47.0" y="71.0" width="6.0" height="10.0" fill="#ffd966"/><rect x="53.0" y="71.0" width="6.0" height="10.0" fill="#ffd966"/><rect x="59.0" y="71.0" width="6.0" height="10.0" fill="#ffd966"/><rect x="65.0" y="71.0" width="6.0" height="10.0" fill="#ffd966"/><rect x="71.0" y="91.0" width="6.0" height="10.0" fill="#ffd966"/><rect x="65.0" y="101.0" width="6.0" height="10.0" fill="#ffd966"/><rect x="53.0" y="101.0" width="6.0" height="10.0" fill="#ffd966"/><rect x="29.0" y="101.0" width="6.0" height="10.0" fill="#ffd966"/><rect x="23.0" y="101.0" width="6.0" height="10.0" fill="#ffd966"/><rect x="17.0" y="91.0" width="6.0" height="10.0" fill="#ffd966"/><rect x="17.0" y="81.0" width="6.0" height="10.0" fill="#ffd966"/><rect x="89.0" y="71.0" width="6.0" height="10.0" fill="#ff3f2f"/><rect x="107.0" y="71.0" width="6.0" height="10.0" fill="#ff3f2f"/><rect x="113.0" y="71.0" width="6.0" height="10.0" fill="#ff3f2f"/><rect x="131.0" y="71.0" width="6.0" height="10.0" fill="#ff3f2f"/><rect x="131.0" y="81.0" width="6.0" height="10.0" fill="#ff3f2f"/><rect x="113.0" y="101.0" width="6.0" height="10.0" fill="#ff3f2f"/><rect x="101.0" y="101.0" width="6.0" height="10.0" fill="#ff3f2f"/><rect x="89.0" y="101.0" width="6.0" height="10.0" fill="#ff3f2f"/><rect x="77.0" y="91.0" width="6.0" height="10.0" fill="#ff3f2f"/><rect x="77.0" y="81.0" width="6.0" height="10.0" fill="#ff3f2f"/><rect x="179.0" y="71.0" width="6.0" height="10.0" fill="#ffffff"/><rect x="185.0" y="71.0" width="6.0" height="10.0" fill="#ffffff"/><rect x="191.0" y="81.0" width="6.0" height="10.0" fill="#ffffff"/><rect x="191.0" y="101.0" width="6.0" height="10.0" fill="#ffffff"/><rect x="185.0" y="101.0" width="6.0" height="10.0" fill="#ffffff"/><rect x="179.0" y="101.0" width="6.0" height="10.0" fill="#ffffff"/><rect x="173.0" y="101.0" width="6.0" height="10.0" fill="#ffffff"/><rect x="167.0" y="101.0" width="6.0" height="10.0" fill="#ffffff"/><rect x="155.0" y="101.0" width="6.0" height="10.0" fill="#ffffff"/><rect x="149.0" y="101.0" width="6.0" height="10.0" fill="#ffffff"/><rect x="137.0" y="101.0" width="6.0" height="10.0" fill="#ffffff"/><rect x="227.0" y="71.0" width="6.0" height="10.0" fill="#000000"/><rect x="251.0" y="81.0" width="6.0" height="10.0" fill="#000000"/><rect x="239.0" y="101.0" width="6.0" height="10.0" fill="#000000"/><rect x="233.0" y="101.0" width="6.0" height="10.0" fill="#000000"/><rect x="227.0" y="101.0" width="6.0" height="10.0" fill="#000000"/><rect x="215.0" y="101.0" width="6.0" height="10.0" fill="#000000"/><rect x="203.0" y="101.0" width="6.0" height="10.0" fill="#000000"/><rect x="197.0" y="101.0" width="6.0" height="10.0" fill="#000000"/><rect x="197.0" y="91.0" width="6.0" height="10.0" fill="#000000"/><rect x="197.0" y="81.0" width="6.0" height="10.0" fill="#000000"/><rect x="77.0" y="111.0" width="6.0" height="10.0" fill="#000000"/><rect x="83.0" y="111.0" width="6.0" height="10.0" fill="#000000"/><rect x="95.0" y="111.0" width="6.0" height="10.0" fill="#000000"/><rect x="101.0" y="111.0" width="6.0" height="10.0" fill="#000000"/><rect x="107.0" y="111.0" width="6.0" height="10.0" fill="#000000"/><rect x="113.0" y="111.0" width="6.0" height="10.0" fill="#000000"/><rect x="119.0" y="111.0" width="6.0" height="10.0" fill="#000000"/><rect x="131.0" y="111.0" width="6.0" height="10.0" fill="#000000"/><rect x="131.0" y="121.0" width="6.0" height="10.0" fill="#000000"/><rect x="131.0" y="131.0" width="6.0" height="10.0" fill="#000000"/><rect x="107.0" y="141.0" width="6.0" height="10.0" fill="#000000"/><rect x="95.0" y="141.0" width="6.0" height="10.0" fill="#000000"/><rect x="89.0" y="141.0" width="6.0" height="10.0" fill="#000000"/><rect x="83.0" y="141.0" width="6.0" height="10.0" fill="#000000"/><rect x="77.0" y="131.0" width="6.0" height="10.0" fill="#000000"/><rect x="143.0" y="111.0" width="6.0" height="10.0" fill="#ffd966"/><rect x="149.0" y="111.0" width="6.0" height="10.0" fill="#ffd966"/><rect x="155.0" y="111.0" width="6.0" height="10.0" fill="#ffd966"/><rect x="161.0" y="111.0" width="6.0" height="10.0" fill="#ffd966"/><rect x="167.0" y="111.0" width="6.0" height="10.0" fill="#ffd966"/><rect x="173.0" y="111.0" width="6.0" height="10.0" fill="#ffd966"/><rect x="185.0" y="111.0" width="6.0" height="10.0" fill="#ffd966"/><rect x="191.0" y="111.0" width="6.0" height="10.0" fill="#ffd966"/><rect x="191.0" y="121.0" width="6.0" height="10.0" fill="#ffd966"/><rect x="191.0" y="131.0" width="6.0" height="10.0" fill="#ffd966"/><rect x="161.0" y="141.0" width="6.0" height="10.0" fill="#ffd966"/><rect x="143.0" y="141.0" width="6.0" height="10.0" fill="#ffd966"/><rect x="137.0" y="121.0" width="6.0" height="10.0" fill="#ffd966"/><rect x="197.0" y="111.0" width="6.0" height="10.0" fill="#ffffff"/><rect x="203.0" y="111.0" width="6.0" height="10.0" fill="#ffffff"/><rect x="251.0" y="121.0" width="6.0" height="10.0" fill="#ffffff"/><rect x="251.0" y="141.0" width="6.0" height="10.0" fill="#ffffff"/><rect x="239.0" y="141.0" width="6.0" height="10.0" fill="#ffffff"/><rect x="227.0" y="141.0" width="6.0" height="10.0" fill="#ffffff"/><rect x="197.0" y="141.0" width="6.0" height="10.0" fill="#ffffff"/><rect x="197.0" y="121.0" width="6.0" height="10.0" fill="#ffffff"/></g><g clip-path="url(#grid-clip-8ed0861e43294df7-4x3)" data-channel="ellipse" data-ellipse-anchor-x="137.0" data-ellipse-anchor-y="111.0" data-ellipse-rx="69.48136734570637" data-ellipse-ry="40.0" data-ellipse-rotation-deg="108.0"><ellipse cx="137.0" cy="111.0" rx="69.48136734570637" ry="40.0" transform="rotate(108.0 137.0 111.0)" fill="#ffffff" fill-opacity="0.4"/></g><g><g data-channel="cell" data-cell-index="0" data-cell-row="0" data-cell-col="0"><rect x="23.0" y="41.0" width="48.0" height="20.0" fill="#beadde"/><text x="47.0" y="51.0" fill="#000000" style="font-family: &quot;DejaVu Sans Mono&quot;, &quot;Consolas&quot;, &quot;Menlo&quot;, &quot;Liberation Mono&quot;, monospace; font-size: 12.0px;" text-anchor="middle" dominant-baseline="central">deadbe</text></g><g data-channel="cell" data-cell-index="1" data-cell-row="0" data-cell-col="1" data-cell-quartile="4"><rect x="83.0" y="41.0" width="48.0" height="20.0" fill="#fecaef"/><text x="107.0" y="51.0" fill="#000000" style="font-family: &quot;DejaVu Sans Mono&quot;, &quot;Consolas&quot;, &quot;Menlo&quot;, &quot;Liberation Mono&quot;, monospace; font-size: 12.0px;" text-anchor="middle" dominant-baseline="central">efcafe</text><polygon points="83.0,61.0 83.0,51.0 93.0,61.0" fill="#000000"/></g><g data-channel="cell" data-cell-index="2" data-cell-row="0" data-cell-col="2" data-cell-quartile="3"><rect x="143.0" y="41.0" width="48.0" height="20.0" fill="#12beba"/><text x="167.0" y="51.0" fill="#000000" style="font-family: &quot;DejaVu Sans Mono&quot;, &quot;Consolas&quot;, &quot;Menlo&quot;, &quot;Liberation Mono&quot;, monospace; font-size: 12.0px;" text-anchor="middle" dominant-baseline="central">babe12</text><polygon points="191.0,61.0 191.0,51.0 181.0,61.0" fill="#000000"/></g><g data-channel="cell" data-cell-index="3" data-cell-row="0" data-cell-col="3"><rect x="203.0" y="41.0" width="48.0" height="20.0" fill="#785634"/><text x="227.0" y="51.0" fill="#ffffff" style="font-family: &quot;DejaVu Sans Mono&quot;, &quot;Consolas&quot;, &quot;Menlo&quot;, &quot;Liberation Mono&quot;, monospace; font-size: 12.0px;" text-anchor="middle" dominant-baseline="central">345678</text></g><g data-channel="cell" data-cell-index="4" data-cell-row="1" data-cell-col="0"><rect x="23.0" y="81.0" width="48.0" height="20.0" fill="#cdab90"/><text x="47.0" y="91.0" fill="#000000" style="font-family: &quot;DejaVu Sans Mono&quot;, &quot;Consolas&quot;, &quot;Menlo&quot;, &quot;Liberation Mono&quot;, monospace; font-size: 12.0px;" text-anchor="middle" dominant-baseline="central">90abcd</text></g><g data-channel="cell" data-cell-index="5" data-cell-row="1" data-cell-col="1"><rect x="83.0" y="81.0" width="48.0" height="20.0" fill="#ed0fef"/><text x="107.0" y="91.0" fill="#000000" style="font-family: &quot;DejaVu Sans Mono&quot;, &quot;Consolas&quot;, &quot;Menlo&quot;, &quot;Liberation Mono&quot;, monospace; font-size: 12.0px;" text-anchor="middle" dominant-baseline="central">ef0fed</text></g><g data-channel="cell" data-cell-index="6" data-cell-row="1" data-cell-col="2"><rect x="143.0" y="81.0" width="48.0" height="20.0" fill="#87a9cb"/><text x="167.0" y="91.0" fill="#000000" style="font-family: &quot;DejaVu Sans Mono&quot;, &quot;Consolas&quot;, &quot;Menlo&quot;, &quot;Liberation Mono&quot;, monospace; font-size: 12.0px;" text-anchor="middle" dominant-baseline="central">cba987</text></g><g data-channel="cell" data-cell-index="7" data-cell-row="1" data-cell-col="3"><rect x="203.0" y="81.0" width="48.0" height="20.0" fill="#214365"/><text x="227.0" y="91.0" fill="#ffffff" style="font-family: &quot;DejaVu Sans Mono&quot;, &quot;Consolas&quot;, &quot;Menlo&quot;, &quot;Liberation Mono&quot;, monospace; font-size: 12.0px;" text-anchor="middle" dominant-baseline="central">654321</text></g><g data-channel="cell" data-cell-index="8" data-cell-row="2" data-cell-col="0" data-cell-blank="true" data-cell-blank-marker="true"><circle cx="47.0" cy="131.0" r="17.0" fill="#ffffff" stroke="#000000" stroke-width="1"/><line x1="47.0" y1="131.0" x2="64.57136708331115" y2="127.09525175926419" stroke="#ffffff" style="mix-blend-mode: difference" stroke-width="1"/><line x1="47.0" y1="131.0" x2="52.1" y2="124.2" stroke="#000000" stroke-width="1"/><circle cx="52.1" cy="124.2" r="1.5" fill="#ffffff" stroke="#000000" stroke-width="1"/></g><g data-channel="cell" data-cell-index="9" data-cell-row="2" data-cell-col="1"><rect x="83.0" y="121.0" width="48.0" height="20.0" fill="#452301"/><text x="107.0" y="131.0" fill="#ffffff" style="font-family: &quot;DejaVu Sans Mono&quot;, &quot;Consolas&quot;, &quot;Menlo&quot;, &quot;Liberation Mono&quot;, monospace; font-size: 12.0px;" text-anchor="middle" dominant-baseline="central">012345</text></g><g data-channel="cell" data-cell-index="10" data-cell-row="2" data-cell-col="2" data-cell-quartile="1"><rect x="143.0" y="121.0" width="48.0" height="20.0" fill="#ab8967"/><text x="167.0" y="131.0" fill="#000000" style="font-family: &quot;DejaVu Sans Mono&quot;, &quot;Consolas&quot;, &quot;Menlo&quot;, &quot;Liberation Mono&quot;, monospace; font-size: 12.0px;" text-anchor="middle" dominant-baseline="central">6789ab</text><polygon points="143.0,121.0 153.0,121.0 143.0,131.0" fill="#000000"/></g><g data-channel="cell" data-cell-index="11" data-cell-row="2" data-cell-col="3" data-cell-quartile="2"><rect x="203.0" y="121.0" width="48.0" height="20.0" fill="#efefcd"/><text x="227.0" y="131.0" fill="#000000" style="font-family: &quot;DejaVu Sans Mono&quot;, &quot;Consolas&quot;, &quot;Menlo&quot;, &quot;Liberation Mono&quot;, monospace; font-size: 12.0px;" text-anchor="middle" dominant-baseline="central">cdef</text><polygon points="251.0,121.0 241.0,121.0 251.0,131.0" fill="#000000"/></g></g></g><g data-channel="color-bar"><g data-color-bar-rank="0" data-color-bar-band="W"><rect x="1" y="1" width="10.0" height="50.230896245817114" fill="#ffffff"/><text x="6.0" y="26.115448122908557" fill="#000000" style="font-family: &quot;DejaVu Sans Mono&quot;, &quot;Consolas&quot;, &quot;Menlo&quot;, &quot;Liberation Mono&quot;, monospace; font-size: 30px;" text-anchor="middle" dominant-baseline="central" data-color-bar-letter="true">W</text></g><g data-color-bar-rank="1" data-color-bar-band="R"><rect x="1" y="51.230896245817114" width="10.0" height="50.230896245817114" fill="#ff3f2f"/><text x="6.0" y="76.34634436872567" fill="#000000" style="font-family: &quot;DejaVu Sans Mono&quot;, &quot;Consolas&quot;, &quot;Menlo&quot;, &quot;Liberation Mono&quot;, monospace; font-size: 30px;" text-anchor="middle" dominant-baseline="central" data-color-bar-letter="true">R</text></g><g data-color-bar-rank="2" data-color-bar-band="G"><rect x="1" y="101.46179249163423" width="10.0" height="32.744723095153205" fill="#ffd966"/><text x="6.0" y="117.83415403921083" fill="#000000" style="font-family: &quot;DejaVu Sans Mono&quot;, &quot;Consolas&quot;, &quot;Menlo&quot;, &quot;Liberation Mono&quot;, monospace; font-size: 20px;" text-anchor="middle" dominant-baseline="central" data-color-bar-letter="true">G</text></g><g data-color-bar-rank="3" data-color-bar-band="K"><rect x="1" y="134.20651558678742" width="10.0" height="21.793484413212582" fill="#000000"/><text x="6.0" y="145.1032577933937" fill="#ffffff" style="font-family: &quot;DejaVu Sans Mono&quot;, &quot;Consolas&quot;, &quot;Menlo&quot;, &quot;Liberation Mono&quot;, monospace; font-size: 13px;" text-anchor="middle" dominant-baseline="central" data-color-bar-letter="true">K</text></g></g><g data-channel="label-top"><text x="17.0" y="16.0" fill="#666666" style="font-family: &quot;DejaVu Sans Mono&quot;, &quot;Consolas&quot;, &quot;Menlo&quot;, &quot;Liberation Mono&quot;, monospace; font-size: 12.0px;" dominant-baseline="central">hex(64):</text></g><line x1="0" y1="0.5" x2="263.0" y2="0.5" stroke="#808080" stroke-width="1" shape-rendering="crispEdges"/><line x1="262.5" y1="0" x2="262.5" y2="157.0" stroke="#808080" stroke-width="1" shape-rendering="crispEdges"/><line x1="0" y1="156.5" x2="263.0" y2="156.5" stroke="#808080" stroke-width="1" shape-rendering="crispEdges"/><line x1="0.5" y1="0" x2="0.5" y2="157.0" stroke="#808080" stroke-width="1" shape-rendering="crispEdges"/><line x1="11.5" y1="0" x2="11.5" y2="157.0" stroke="#808080" stroke-width="1" shape-rendering="crispEdges"/></svg>