<svg width="213" height="192" viewBox="0 0 213 192" xmlns="http://www.w3.org/2000/svg" font-family="&quot;JetBrains Mono&quot;, &quot;Menlo&quot;, &quot;Consolas&quot;, &quot;DejaVu Sans Mono&quot;, &quot;Liberation Mono&quot;, &quot;Roboto Mono&quot;, &quot;Noto Sans Mono&quot;, monospace" data-entviz-version="v10" data-entviz-lib="0.10.0" data-input-bytes="46" data-cols="3" data-rows="4"><defs><clipPath id="grid-clip-a7b7e0adbf562ab2-3x4"><rect x="27" y="26" width="180" height="160"/></clipPath></defs><rect x="0" y="0" width="213" height="192" fill="#ffffff"/><g data-channel="grid"><rect x="27" y="26" width="180" height="160" fill="#e7be00"/><g><path fill="#ffffff" d="M57 26h6v10h-6zM63 26h6v10h-6zM69 26h6v10h-6zM75 26h6v10h-6zM81 26h6v10h-6zM81 36h6v10h-6zM81 56h6v10h-6zM75 56h6v10h-6zM63 56h6v10h-6zM57 56h6v10h-6zM51 56h6v10h-6zM45 56h6v10h-6zM27 56h6v10h-6zM27 36h6v10h-6z"/><path fill="#2f3fbf" d="M93 26h6v10h-6zM99 26h6v10h-6zM111 26h6v10h-6zM123 26h6v10h-6zM135 26h6v10h-6zM141 26h6v10h-6zM141 36h6v10h-6zM141 46h6v10h-6zM141 56h6v10h-6zM135 56h6v10h-6zM123 56h6v10h-6zM117 56h6v10h-6zM105 56h6v10h-6zM99 56h6v10h-6zM87 56h6v10h-6zM87 36h6v10h-6z"/><path fill="#ff3f2f" d="M147 26h6v10h-6zM159 26h6v10h-6zM183 26h6v10h-6zM201 26h6v10h-6zM201 56h6v10h-6zM195 56h6v10h-6zM183 56h6v10h-6zM171 56h6v10h-6zM159 56h6v10h-6zM147 56h6v10h-6z"/><path fill="#000000" d="M27 66h6v10h-6zM39 66h6v10h-6zM45 66h6v10h-6zM57 66h6v10h-6zM69 66h6v10h-6zM81 66h6v10h-6zM81 76h6v10h-6zM81 86h6v10h-6zM75 96h6v10h-6zM69 96h6v10h-6zM63 96h6v10h-6zM51 96h6v10h-6zM45 96h6v10h-6zM39 96h6v10h-6zM33 96h6v10h-6zM27 96h6v10h-6zM27 86h6v10h-6zM27 76h6v10h-6z"/><path fill="#2f3fbf" d="M99 66h6v10h-6zM105 66h6v10h-6zM117 66h6v10h-6zM129 66h6v10h-6zM135 66h6v10h-6zM141 66h6v10h-6zM141 86h6v10h-6zM99 96h6v10h-6zM93 96h6v10h-6zM87 96h6v10h-6zM87 86h6v10h-6zM87 76h6v10h-6z"/><path fill="#ff3f2f" d="M147 66h6v10h-6zM165 66h6v10h-6zM195 66h6v10h-6zM201 66h6v10h-6zM201 86h6v10h-6zM201 96h6v10h-6zM189 96h6v10h-6zM183 96h6v10h-6zM165 96h6v10h-6zM159 96h6v10h-6z"/><path fill="#ffffff" d="M87 106h6v10h-6zM105 106h6v10h-6zM117 106h6v10h-6zM123 106h6v10h-6zM129 106h6v10h-6zM135 106h6v10h-6zM141 116h6v10h-6zM141 126h6v10h-6zM135 136h6v10h-6zM129 136h6v10h-6zM111 136h6v10h-6zM99 136h6v10h-6zM87 136h6v10h-6zM87 126h6v10h-6z"/><path fill="#2f3fbf" d="M153 106h6v10h-6zM159 106h6v10h-6zM165 106h6v10h-6zM177 106h6v10h-6zM183 106h6v10h-6zM189 106h6v10h-6zM195 136h6v10h-6zM183 136h6v10h-6zM165 136h6v10h-6zM159 136h6v10h-6zM147 136h6v10h-6zM147 126h6v10h-6z"/><path fill="#ff3f2f" d="M33 146h6v10h-6zM81 166h6v10h-6zM81 176h6v10h-6zM63 176h6v10h-6zM51 176h6v10h-6zM45 176h6v10h-6zM39 176h6v10h-6zM27 156h6v10h-6z"/><path fill="#ff3f2f" d="M87 146h6v10h-6zM99 146h6v10h-6zM105 146h6v10h-6zM111 146h6v10h-6zM117 146h6v10h-6zM129 146h6v10h-6zM141 156h6v10h-6zM129 176h6v10h-6zM117 176h6v10h-6zM105 176h6v10h-6zM93 176h6v10h-6zM87 176h6v10h-6zM87 166h6v10h-6zM87 156h6v10h-6z"/><path fill="#000000" d="M147 146h6v10h-6zM177 146h6v10h-6zM201 156h6v10h-6zM201 166h6v10h-6zM195 176h6v10h-6zM189 176h6v10h-6zM177 176h6v10h-6zM171 176h6v10h-6zM159 176h6v10h-6zM153 176h6v10h-6zM147 176h6v10h-6zM147 156h6v10h-6z"/></g><g clip-path="url(#grid-clip-a7b7e0adbf562ab2-3x4)" data-channel="ellipse" data-ellipse-anchor-x="147" data-ellipse-anchor-y="106" data-ellipse-rx="76.726" data-ellipse-ry="42.113" data-ellipse-rotation-deg="156"><ellipse cx="147" cy="106" rx="76.726" ry="42.113" transform="rotate(156 147 106)" fill="#000000" stroke="#000000" fill-opacity="0.2" stroke-opacity="0.3" stroke-width="2"/></g><g><g data-channel="cell" data-cell-index="0" data-cell-row="0" data-cell-col="0" data-surround-bits="0xa7b7e0" data-edge-color="#ffffff"><rect x="33" y="36" width="48" height="20" fill="#56627f"/><text x="57" y="46" fill="#ffffff" font-size="16" text-anchor="middle" dominant-baseline="central">YwAP</text></g><g data-channel="cell" data-cell-index="1" data-cell-row="0" data-cell-col="1" data-surround-bits="0xadbf56" data-edge-color="#2f3fbf"><rect x="93" y="36" width="48" height="20" fill="#449d47"/><text x="117" y="46" fill="#000000" font-size="16" text-anchor="middle" dominant-baseline="central">Jzv5</text></g><g data-channel="cell" data-cell-index="2" data-cell-row="0" data-cell-col="2" data-surround-bits="0x2ab245" data-edge-color="#ff3f2f"><rect x="153" y="36" width="48" height="20" fill="#ad0c2e"/><text x="177" y="46" fill="#ffffff" font-size="16" text-anchor="middle" dominant-baseline="central">CZsn</text></g><g data-channel="cell" data-cell-index="3" data-cell-row="1" data-cell-col="0" data-surround-bits="0xfeeead" data-edge-color="#000000" data-cell-quartile="4"><rect x="33" y="76" width="48" height="20" fill="#445024"/><text x="57" y="86" fill="#ffffff" font-size="16" text-anchor="middle" dominant-baseline="central">A625</text><polygon points="33,96 33,86 43,96" fill="#ffffff"/></g><g data-channel="cell" data-cell-index="4" data-cell-row="1" data-cell-col="1" data-surround-bits="0xf80bac" data-edge-color="#2f3fbf"><rect x="93" y="76" width="48" height="20" fill="#a627c8"/><text x="117" y="86" fill="#ffffff" font-size="16" text-anchor="middle" dominant-baseline="central">s3Xf</text></g><g data-channel="cell" data-cell-index="5" data-cell-row="1" data-cell-col="2" data-surround-bits="0xcdb09" data-edge-color="#ff3f2f" data-cell-quartile="2"><rect x="153" y="76" width="48" height="20" fill="#6cd906"/><text x="177" y="86" fill="#000000" font-size="16" text-anchor="middle" dominant-baseline="central">2nem</text><polygon points="201,76 191,76 201,86" fill="#000000"/></g><g data-channel="cell" data-cell-index="6" data-cell-row="2" data-cell-col="0" data-cell-blank="true" data-cell-blank-map="true"><rect x="33" y="116" width="48" height="20" rx="10" ry="10" fill="#ff3f2f" stroke="#000000" stroke-width="1"/><circle cx="73" cy="123.5" r="3.5" fill="#000000" data-blank-map-min="1,2"/><path d="M 36.8,123.5 H 45.2 M 41,119.3 V 127.7" fill="none" stroke="#000000" stroke-width="1.925" stroke-linecap="butt" data-blank-map-max="1,0"/></g><g data-channel="cell" data-cell-index="7" data-cell-row="2" data-cell-col="1" data-surround-bits="0x6a6de9" data-edge-color="#ffffff"><rect x="93" y="116" width="48" height="20" fill="#d6f9cd"/><text x="117" y="126" fill="#000000" font-size="16" text-anchor="middle" dominant-baseline="central">tYgP</text></g><g data-channel="cell" data-cell-index="8" data-cell-row="2" data-cell-col="2" data-surround-bits="0x6ca0ee" data-edge-color="#2f3fbf"><rect x="153" y="116" width="48" height="20" fill="#1d09bd"/><text x="177" y="126" fill="#ffffff" font-size="16" text-anchor="middle" dominant-baseline="central">pHdW</text></g><g data-channel="cell" data-cell-index="9" data-cell-row="3" data-cell-col="0" data-surround-bits="0x8e9802" data-edge-color="#ff3f2f"><rect x="33" y="156" width="48" height="20" fill="#889137"/><text x="57" y="166" fill="#000000" font-size="16" text-anchor="middle" dominant-baseline="central">Ez79</text></g><g data-channel="cell" data-cell-index="10" data-cell-row="3" data-cell-col="1" data-surround-bits="0xf544bd" data-edge-color="#ff3f2f" data-cell-quartile="1"><rect x="93" y="156" width="48" height="20" fill="#6da7ba"/><text x="117" y="166" fill="#000000" font-size="16" text-anchor="middle" dominant-baseline="central">ojWn</text><polygon points="93,156 103,156 93,166" fill="#000000"/></g><g data-channel="cell" data-cell-index="11" data-cell-row="3" data-cell-col="2" data-surround-bits="0xbb6c21" data-edge-color="#000000" data-cell-quartile="3"><rect x="153" y="156" width="48" height="20" fill="#0f295a"/><text x="177" y="166" fill="#ffffff" font-size="16" text-anchor="middle" dominant-baseline="central">PbdG</text><polygon points="201,176 201,166 191,176" fill="#ffffff"/></g></g></g><g data-channel="color-bar" data-bar-slots="15" data-bar-marker-left="14" data-bar-marker-right="9"><g data-color-bar-rank="0" data-color-bar-band="K"><rect x="1" y="1" width="20" height="46.081" fill="#000000"/><text x="11" y="43.561" fill="#ffffff" font-size="16" text-anchor="middle" data-color-bar-letter="true">k</text></g><g data-color-bar-rank="1" data-color-bar-band="R"><rect x="1" y="47.081" width="20" height="22.223" fill="#ff3f2f"/><text x="11" y="65.784" fill="#000000" font-size="16" text-anchor="middle" data-color-bar-letter="true">r</text></g><g data-color-bar-rank="2" data-color-bar-band="B"><rect x="1" y="69.304" width="20" height="99.473" fill="#2f3fbf"/><text x="11" y="165.257" fill="#ffffff" font-size="16" text-anchor="middle" data-color-bar-letter="true">b</text></g><g data-color-bar-rank="3" data-color-bar-band="W"><rect x="1" y="168.777" width="20" height="22.223" fill="#ffffff"/><text x="11" y="187.48" fill="#000000" font-size="16" text-anchor="middle" data-color-bar-letter="true">w</text></g><circle cx="5.6" cy="184.667" r="3.4" fill="#ffffff" stroke="#000000" stroke-width="0.75" data-bar-marker="left"/><circle cx="16.4" cy="121.333" r="3.4" fill="#ffffff" stroke="#000000" stroke-width="0.75" data-bar-marker="right"/></g><g data-channel="label-top"><text x="27" y="16" fill="#666666" font-size="12" dominant-baseline="central">CIDv0: Qm...</text></g><line x1="0" y1="0.5" x2="213" y2="0.5" stroke="#808080" stroke-width="1" shape-rendering="crispEdges"/><line x1="212.5" y1="0" x2="212.5" y2="192" stroke="#808080" stroke-width="1" shape-rendering="crispEdges"/><line x1="0" y1="191.5" x2="213" y2="191.5" stroke="#808080" stroke-width="1" shape-rendering="crispEdges"/><line x1="0.5" y1="0" x2="0.5" y2="192" stroke="#808080" stroke-width="1" shape-rendering="crispEdges"/><line x1="21.5" y1="0" x2="21.5" y2="192" stroke="#808080" stroke-width="1" shape-rendering="crispEdges"/></svg>