<svg width="213.0" height="192.0" viewBox="0 0 213.0 192.0" xmlns="http://www.w3.org/2000/svg" data-entviz-version="v9" data-entviz-lib="0.9.1" data-input-bytes="46" data-cols="3" data-rows="4"><defs><clipPath id="grid-clip-a7b7e0adbf562ab2-3x4"><rect x="27.0" y="26.0" width="180.0" height="160.0"/></clipPath></defs><rect x="0" y="0" width="213.0" height="192.0" fill="#ffffff"/><g data-channel="grid"><rect x="27.0" y="26.0" width="180.0" height="160.0" fill="#e7be00"/><g><rect x="57.0" y="26.0" width="6.0" height="10.0" fill="#2f3fbf"/><rect x="63.0" y="26.0" width="6.0" height="10.0" fill="#2f3fbf"/><rect x="69.0" y="26.0" width="6.0" height="10.0" fill="#2f3fbf"/><rect x="75.0" y="26.0" width="6.0" height="10.0" fill="#2f3fbf"/><rect x="81.0" y="26.0" width="6.0" height="10.0" fill="#2f3fbf"/><rect x="81.0" y="36.0" width="6.0" height="10.0" fill="#2f3fbf"/><rect x="81.0" y="56.0" width="6.0" height="10.0" fill="#2f3fbf"/><rect x="75.0" y="56.0" width="6.0" height="10.0" fill="#2f3fbf"/><rect x="63.0" y="56.0" width="6.0" height="10.0" fill="#2f3fbf"/><rect x="57.0" y="56.0" width="6.0" height="10.0" fill="#2f3fbf"/><rect x="51.0" y="56.0" width="6.0" height="10.0" fill="#2f3fbf"/><rect x="45.0" y="56.0" width="6.0" height="10.0" fill="#2f3fbf"/><rect x="27.0" y="56.0" width="6.0" height="10.0" fill="#2f3fbf"/><rect x="27.0" y="36.0" width="6.0" height="10.0" fill="#2f3fbf"/><rect x="93.0" y="26.0" width="6.0" height="10.0" fill="#2f3fbf"/><rect x="99.0" y="26.0" width="6.0" height="10.0" fill="#2f3fbf"/><rect x="111.0" y="26.0" width="6.0" height="10.0" fill="#2f3fbf"/><rect x="123.0" y="26.0" width="6.0" height="10.0" fill="#2f3fbf"/><rect x="135.0" y="26.0" width="6.0" height="10.0" fill="#2f3fbf"/><rect x="141.0" y="26.0" width="6.0" height="10.0" fill="#2f3fbf"/><rect x="141.0" y="36.0" width="6.0" height="10.0" fill="#2f3fbf"/><rect x="141.0" y="46.0" width="6.0" height="10.0" fill="#2f3fbf"/><rect x="141.0" y="56.0" width="6.0" height="10.0" fill="#2f3fbf"/><rect x="135.0" y="56.0" width="6.0" height="10.0" fill="#2f3fbf"/><rect x="123.0" y="56.0" width="6.0" height="10.0" fill="#2f3fbf"/><rect x="117.0" y="56.0" width="6.0" height="10.0" fill="#2f3fbf"/><rect x="105.0" y="56.0" width="6.0" height="10.0" fill="#2f3fbf"/><rect x="99.0" y="56.0" width="6.0" height="10.0" fill="#2f3fbf"/><rect x="87.0" y="56.0" width="6.0" height="10.0" fill="#2f3fbf"/><rect x="87.0" y="36.0" width="6.0" height="10.0" fill="#2f3fbf"/><rect x="147.0" y="26.0" width="6.0" height="10.0" fill="#ff3f2f"/><rect x="159.0" y="26.0" width="6.0" height="10.0" fill="#ff3f2f"/><rect x="183.0" y="26.0" width="6.0" height="10.0" fill="#ff3f2f"/><rect x="201.0" y="26.0" width="6.0" height="10.0" fill="#ff3f2f"/><rect x="201.0" y="56.0" width="6.0" height="10.0" fill="#ff3f2f"/><rect x="195.0" y="56.0" width="6.0" height="10.0" fill="#ff3f2f"/><rect x="183.0" y="56.0" width="6.0" height="10.0" fill="#ff3f2f"/><rect x="171.0" y="56.0" width="6.0" height="10.0" fill="#ff3f2f"/><rect x="159.0" y="56.0" width="6.0" height="10.0" fill="#ff3f2f"/><rect x="147.0" y="56.0" width="6.0" height="10.0" fill="#ff3f2f"/><rect x="27.0" y="66.0" width="6.0" height="10.0" fill="#000000"/><rect x="39.0" y="66.0" width="6.0" height="10.0" fill="#000000"/><rect x="45.0" y="66.0" width="6.0" height="10.0" fill="#000000"/><rect x="57.0" y="66.0" width="6.0" height="10.0" fill="#000000"/><rect x="69.0" y="66.0" width="6.0" height="10.0" fill="#000000"/><rect x="81.0" y="66.0" width="6.0" height="10.0" fill="#000000"/><rect x="81.0" y="76.0" width="6.0" height="10.0" fill="#000000"/><rect x="81.0" y="86.0" width="6.0" height="10.0" fill="#000000"/><rect x="75.0" y="96.0" width="6.0" height="10.0" fill="#000000"/><rect x="69.0" y="96.0" width="6.0" height="10.0" fill="#000000"/><rect x="63.0" y="96.0" width="6.0" height="10.0" fill="#000000"/><rect x="51.0" y="96.0" width="6.0" height="10.0" fill="#000000"/><rect x="45.0" y="96.0" width="6.0" height="10.0" fill="#000000"/><rect x="39.0" y="96.0" width="6.0" height="10.0" fill="#000000"/><rect x="33.0" y="96.0" width="6.0" height="10.0" fill="#000000"/><rect x="27.0" y="96.0" width="6.0" height="10.0" fill="#000000"/><rect x="27.0" y="86.0" width="6.0" height="10.0" fill="#000000"/><rect x="27.0" y="76.0" width="6.0" height="10.0" fill="#000000"/><rect x="99.0" y="66.0" width="6.0" height="10.0" fill="#2f3fbf"/><rect x="105.0" y="66.0" width="6.0" height="10.0" fill="#2f3fbf"/><rect x="117.0" y="66.0" width="6.0" height="10.0" fill="#2f3fbf"/><rect x="129.0" y="66.0" width="6.0" height="10.0" fill="#2f3fbf"/><rect x="135.0" y="66.0" width="6.0" height="10.0" fill="#2f3fbf"/><rect x="141.0" y="66.0" width="6.0" height="10.0" fill="#2f3fbf"/><rect x="141.0" y="86.0" width="6.0" height="10.0" fill="#2f3fbf"/><rect x="99.0" y="96.0" width="6.0" height="10.0" fill="#2f3fbf"/><rect x="93.0" y="96.0" width="6.0" height="10.0" fill="#2f3fbf"/><rect x="87.0" y="96.0" width="6.0" height="10.0" fill="#2f3fbf"/><rect x="87.0" y="86.0" width="6.0" height="10.0" fill="#2f3fbf"/><rect x="87.0" y="76.0" width="6.0" height="10.0" fill="#2f3fbf"/><rect x="147.0" y="66.0" width="6.0" height="10.0" fill="#ff3f2f"/><rect x="165.0" y="66.0" width="6.0" height="10.0" fill="#ff3f2f"/><rect x="195.0" y="66.0" width="6.0" height="10.0" fill="#ff3f2f"/><rect x="201.0" y="66.0" width="6.0" height="10.0" fill="#ff3f2f"/><rect x="201.0" y="86.0" width="6.0" height="10.0" fill="#ff3f2f"/><rect x="201.0" y="96.0" width="6.0" height="10.0" fill="#ff3f2f"/><rect x="189.0" y="96.0" width="6.0" height="10.0" fill="#ff3f2f"/><rect x="183.0" y="96.0" width="6.0" height="10.0" fill="#ff3f2f"/><rect x="165.0" y="96.0" width="6.0" height="10.0" fill="#ff3f2f"/><rect x="159.0" y="96.0" width="6.0" height="10.0" fill="#ff3f2f"/><rect x="87.0" y="106.0" width="6.0" height="10.0" fill="#ffffff"/><rect x="105.0" y="106.0" width="6.0" height="10.0" fill="#ffffff"/><rect x="117.0" y="106.0" width="6.0" height="10.0" fill="#ffffff"/><rect x="123.0" y="106.0" width="6.0" height="10.0" fill="#ffffff"/><rect x="129.0" y="106.0" width="6.0" height="10.0" fill="#ffffff"/><rect x="135.0" y="106.0" width="6.0" height="10.0" fill="#ffffff"/><rect x="141.0" y="116.0" width="6.0" height="10.0" fill="#ffffff"/><rect x="141.0" y="126.0" width="6.0" height="10.0" fill="#ffffff"/><rect x="135.0" y="136.0" width="6.0" height="10.0" fill="#ffffff"/><rect x="129.0" y="136.0" width="6.0" height="10.0" fill="#ffffff"/><rect x="111.0" y="136.0" width="6.0" height="10.0" fill="#ffffff"/><rect x="99.0" y="136.0" width="6.0" height="10.0" fill="#ffffff"/><rect x="87.0" y="136.0" width="6.0" height="10.0" fill="#ffffff"/><rect x="87.0" y="126.0" width="6.0" height="10.0" fill="#ffffff"/><rect x="153.0" y="106.0" width="6.0" height="10.0" fill="#2f3fbf"/><rect x="159.0" y="106.0" width="6.0" height="10.0" fill="#2f3fbf"/><rect x="165.0" y="106.0" width="6.0" height="10.0" fill="#2f3fbf"/><rect x="177.0" y="106.0" width="6.0" height="10.0" fill="#2f3fbf"/><rect x="183.0" y="106.0" width="6.0" height="10.0" fill="#2f3fbf"/><rect x="189.0" y="106.0" width="6.0" height="10.0" fill="#2f3fbf"/><rect x="195.0" y="136.0" width="6.0" height="10.0" fill="#2f3fbf"/><rect x="183.0" y="136.0" width="6.0" height="10.0" fill="#2f3fbf"/><rect x="165.0" y="136.0" width="6.0" height="10.0" fill="#2f3fbf"/><rect x="159.0" y="136.0" width="6.0" height="10.0" fill="#2f3fbf"/><rect x="147.0" y="136.0" width="6.0" height="10.0" fill="#2f3fbf"/><rect x="147.0" y="126.0" width="6.0" height="10.0" fill="#2f3fbf"/><rect x="33.0" y="146.0" width="6.0" height="10.0" fill="#ff3f2f"/><rect x="81.0" y="166.0" width="6.0" height="10.0" fill="#ff3f2f"/><rect x="81.0" y="176.0" width="6.0" height="10.0" fill="#ff3f2f"/><rect x="63.0" y="176.0" width="6.0" height="10.0" fill="#ff3f2f"/><rect x="51.0" y="176.0" width="6.0" height="10.0" fill="#ff3f2f"/><rect x="45.0" y="176.0" width="6.0" height="10.0" fill="#ff3f2f"/><rect x="39.0" y="176.0" width="6.0" height="10.0" fill="#ff3f2f"/><rect x="27.0" y="156.0" width="6.0" height="10.0" fill="#ff3f2f"/><rect x="87.0" y="146.0" width="6.0" height="10.0" fill="#2f3fbf"/><rect x="99.0" y="146.0" width="6.0" height="10.0" fill="#2f3fbf"/><rect x="105.0" y="146.0" width="6.0" height="10.0" fill="#2f3fbf"/><rect x="111.0" y="146.0" width="6.0" height="10.0" fill="#2f3fbf"/><rect x="117.0" y="146.0" width="6.0" height="10.0" fill="#2f3fbf"/><rect x="129.0" y="146.0" width="6.0" height="10.0" fill="#2f3fbf"/><rect x="141.0" y="156.0" width="6.0" height="10.0" fill="#2f3fbf"/><rect x="129.0" y="176.0" width="6.0" height="10.0" fill="#2f3fbf"/><rect x="117.0" y="176.0" width="6.0" height="10.0" fill="#2f3fbf"/><rect x="105.0" y="176.0" width="6.0" height="10.0" fill="#2f3fbf"/><rect x="93.0" y="176.0" width="6.0" height="10.0" fill="#2f3fbf"/><rect x="87.0" y="176.0" width="6.0" height="10.0" fill="#2f3fbf"/><rect x="87.0" y="166.0" width="6.0" height="10.0" fill="#2f3fbf"/><rect x="87.0" y="156.0" width="6.0" height="10.0" fill="#2f3fbf"/><rect x="147.0" y="146.0" width="6.0" height="10.0" fill="#000000"/><rect x="177.0" y="146.0" width="6.0" height="10.0" fill="#000000"/><rect x="201.0" y="156.0" width="6.0" height="10.0" fill="#000000"/><rect x="201.0" y="166.0" width="6.0" height="10.0" fill="#000000"/><rect x="195.0" y="176.0" width="6.0" height="10.0" fill="#000000"/><rect x="189.0" y="176.0" width="6.0" height="10.0" fill="#000000"/><rect x="177.0" y="176.0" width="6.0" height="10.0" fill="#000000"/><rect x="171.0" y="176.0" width="6.0" height="10.0" fill="#000000"/><rect x="159.0" y="176.0" width="6.0" height="10.0" fill="#000000"/><rect x="153.0" y="176.0" width="6.0" height="10.0" fill="#000000"/><rect x="147.0" y="176.0" width="6.0" height="10.0" fill="#000000"/><rect x="147.0" y="156.0" width="6.0" height="10.0" fill="#000000"/></g><g clip-path="url(#grid-clip-a7b7e0adbf562ab2-3x4)" data-channel="ellipse" data-ellipse-anchor-x="147.0" data-ellipse-anchor-y="106.0" data-ellipse-rx="76.7261311418737" data-ellipse-ry="42.112838897419394" data-ellipse-rotation-deg="156.0"><ellipse cx="147.0" cy="106.0" rx="76.7261311418737" ry="42.112838897419394" transform="rotate(156.0 147.0 106.0)" fill="#000000" stroke="#000000" fill-opacity="0.2" stroke-opacity="0.3" stroke-width="2.0"/></g><g><g data-channel="cell" data-cell-index="0" data-cell-row="0" data-cell-col="0"><rect x="33.0" y="36.0" width="48.0" height="20.0" fill="#56627f"/><text x="57.0" y="46.0" fill="#ffffff" style="font-family: &quot;JetBrains Mono&quot;, &quot;Menlo&quot;, &quot;Consolas&quot;, &quot;DejaVu Sans Mono&quot;, &quot;Liberation Mono&quot;, &quot;Roboto Mono&quot;, &quot;Noto Sans Mono&quot;, monospace; font-size: 16.0px;" text-anchor="middle" dominant-baseline="central">YwAP</text></g><g data-channel="cell" data-cell-index="1" data-cell-row="0" data-cell-col="1"><rect x="93.0" y="36.0" width="48.0" height="20.0" fill="#449d47"/><text x="117.0" y="46.0" fill="#000000" style="font-family: &quot;JetBrains Mono&quot;, &quot;Menlo&quot;, &quot;Consolas&quot;, &quot;DejaVu Sans Mono&quot;, &quot;Liberation Mono&quot;, &quot;Roboto Mono&quot;, &quot;Noto Sans Mono&quot;, monospace; font-size: 16.0px;" text-anchor="middle" dominant-baseline="central">Jzv5</text></g><g data-channel="cell" data-cell-index="2" data-cell-row="0" data-cell-col="2"><rect x="153.0" y="36.0" width="48.0" height="20.0" fill="#ad0c2e"/><text x="177.0" y="46.0" fill="#ffffff" style="font-family: &quot;JetBrains Mono&quot;, &quot;Menlo&quot;, &quot;Consolas&quot;, &quot;DejaVu Sans Mono&quot;, &quot;Liberation Mono&quot;, &quot;Roboto Mono&quot;, &quot;Noto Sans Mono&quot;, monospace; font-size: 16.0px;" text-anchor="middle" dominant-baseline="central">CZsn</text></g><g data-channel="cell" data-cell-index="3" data-cell-row="1" data-cell-col="0" data-cell-quartile="4"><rect x="33.0" y="76.0" width="48.0" height="20.0" fill="#445024"/><text x="57.0" y="86.0" fill="#ffffff" style="font-family: &quot;JetBrains Mono&quot;, &quot;Menlo&quot;, &quot;Consolas&quot;, &quot;DejaVu Sans Mono&quot;, &quot;Liberation Mono&quot;, &quot;Roboto Mono&quot;, &quot;Noto Sans Mono&quot;, monospace; font-size: 16.0px;" text-anchor="middle" dominant-baseline="central">A625</text><polygon points="33.0,96.0 33.0,86.0 43.0,96.0" fill="#ffffff"/></g><g data-channel="cell" data-cell-index="4" data-cell-row="1" data-cell-col="1"><rect x="93.0" y="76.0" width="48.0" height="20.0" fill="#a627c8"/><text x="117.0" y="86.0" fill="#ffffff" style="font-family: &quot;JetBrains Mono&quot;, &quot;Menlo&quot;, &quot;Consolas&quot;, &quot;DejaVu Sans Mono&quot;, &quot;Liberation Mono&quot;, &quot;Roboto Mono&quot;, &quot;Noto Sans Mono&quot;, monospace; font-size: 16.0px;" text-anchor="middle" dominant-baseline="central">s3Xf</text></g><g data-channel="cell" data-cell-index="5" data-cell-row="1" data-cell-col="2" data-cell-quartile="2"><rect x="153.0" y="76.0" width="48.0" height="20.0" fill="#6cd906"/><text x="177.0" y="86.0" fill="#000000" style="font-family: &quot;JetBrains Mono&quot;, &quot;Menlo&quot;, &quot;Consolas&quot;, &quot;DejaVu Sans Mono&quot;, &quot;Liberation Mono&quot;, &quot;Roboto Mono&quot;, &quot;Noto Sans Mono&quot;, monospace; font-size: 16.0px;" text-anchor="middle" dominant-baseline="central">2nem</text><polygon points="201.0,76.0 191.0,76.0 201.0,86.0" fill="#000000"/></g><g data-channel="cell" data-cell-index="6" data-cell-row="2" data-cell-col="0" data-cell-blank="true" data-cell-blank-map="true"><rect x="33.0" y="116.0" width="48.0" height="20.0" rx="10.0" ry="10.0" fill="#ffffff" stroke="#000000" stroke-width="1"/><circle cx="73.0" cy="123.5" r="3.5" fill="#1d4ed8" data-blank-map-min="1,2"/><path d="M 36.8,123.5 H 45.2 M 41.0,119.3 V 127.7" fill="none" stroke="#d62828" stroke-width="1.9250000000000003" stroke-linecap="butt" data-blank-map-max="1,0"/></g><g data-channel="cell" data-cell-index="7" data-cell-row="2" data-cell-col="1"><rect x="93.0" y="116.0" width="48.0" height="20.0" fill="#d6f9cd"/><text x="117.0" y="126.0" fill="#000000" style="font-family: &quot;JetBrains Mono&quot;, &quot;Menlo&quot;, &quot;Consolas&quot;, &quot;DejaVu Sans Mono&quot;, &quot;Liberation Mono&quot;, &quot;Roboto Mono&quot;, &quot;Noto Sans Mono&quot;, monospace; font-size: 16.0px;" text-anchor="middle" dominant-baseline="central">tYgP</text></g><g data-channel="cell" data-cell-index="8" data-cell-row="2" data-cell-col="2"><rect x="153.0" y="116.0" width="48.0" height="20.0" fill="#1d09bd"/><text x="177.0" y="126.0" fill="#ffffff" style="font-family: &quot;JetBrains Mono&quot;, &quot;Menlo&quot;, &quot;Consolas&quot;, &quot;DejaVu Sans Mono&quot;, &quot;Liberation Mono&quot;, &quot;Roboto Mono&quot;, &quot;Noto Sans Mono&quot;, monospace; font-size: 16.0px;" text-anchor="middle" dominant-baseline="central">pHdW</text></g><g data-channel="cell" data-cell-index="9" data-cell-row="3" data-cell-col="0"><rect x="33.0" y="156.0" width="48.0" height="20.0" fill="#889137"/><text x="57.0" y="166.0" fill="#000000" style="font-family: &quot;JetBrains Mono&quot;, &quot;Menlo&quot;, &quot;Consolas&quot;, &quot;DejaVu Sans Mono&quot;, &quot;Liberation Mono&quot;, &quot;Roboto Mono&quot;, &quot;Noto Sans Mono&quot;, monospace; font-size: 16.0px;" text-anchor="middle" dominant-baseline="central">Ez79</text></g><g data-channel="cell" data-cell-index="10" data-cell-row="3" data-cell-col="1" data-cell-quartile="1"><rect x="93.0" y="156.0" width="48.0" height="20.0" fill="#6da7ba"/><text x="117.0" y="166.0" fill="#000000" style="font-family: &quot;JetBrains Mono&quot;, &quot;Menlo&quot;, &quot;Consolas&quot;, &quot;DejaVu Sans Mono&quot;, &quot;Liberation Mono&quot;, &quot;Roboto Mono&quot;, &quot;Noto Sans Mono&quot;, monospace; font-size: 16.0px;" text-anchor="middle" dominant-baseline="central">ojWn</text><polygon points="93.0,156.0 103.0,156.0 93.0,166.0" fill="#000000"/></g><g data-channel="cell" data-cell-index="11" data-cell-row="3" data-cell-col="2" data-cell-quartile="3"><rect x="153.0" y="156.0" width="48.0" height="20.0" fill="#0f295a"/><text x="177.0" y="166.0" fill="#ffffff" style="font-family: &quot;JetBrains Mono&quot;, &quot;Menlo&quot;, &quot;Consolas&quot;, &quot;DejaVu Sans Mono&quot;, &quot;Liberation Mono&quot;, &quot;Roboto Mono&quot;, &quot;Noto Sans Mono&quot;, monospace; font-size: 16.0px;" text-anchor="middle" dominant-baseline="central">PbdG</text><polygon points="201.0,176.0 201.0,166.0 191.0,176.0" fill="#ffffff"/></g></g></g><g data-channel="color-bar" data-bar-slots="15" data-bar-marker-square="14" data-bar-marker-triangle="9"><g data-color-bar-rank="0" data-color-bar-band="K"><rect x="1" y="1" width="20.0" height="46.08109419110536" fill="#000000"/><text x="11.0" y="43.561094191105354" fill="#ffffff" style="font-family: &quot;JetBrains Mono&quot;, &quot;Menlo&quot;, &quot;Consolas&quot;, &quot;DejaVu Sans Mono&quot;, &quot;Liberation Mono&quot;, &quot;Roboto Mono&quot;, &quot;Noto Sans Mono&quot;, monospace; font-size: 16.0px;" text-anchor="middle" data-color-bar-letter="true">k</text></g><g data-color-bar-rank="1" data-color-bar-band="R"><rect x="1" y="47.08109419110536" width="20.0" height="22.222749899259913" fill="#ff3f2f"/><text x="11.0" y="65.78384409036528" fill="#000000" style="font-family: &quot;JetBrains Mono&quot;, &quot;Menlo&quot;, &quot;Consolas&quot;, &quot;DejaVu Sans Mono&quot;, &quot;Liberation Mono&quot;, &quot;Roboto Mono&quot;, &quot;Noto Sans Mono&quot;, monospace; font-size: 16.0px;" text-anchor="middle" data-color-bar-letter="true">r</text></g><g data-color-bar-rank="2" data-color-bar-band="B"><rect x="1" y="69.30384409036527" width="20.0" height="99.47340601037482" fill="#2f3fbf"/><text x="11.0" y="165.2572501007401" fill="#ffffff" style="font-family: &quot;JetBrains Mono&quot;, &quot;Menlo&quot;, &quot;Consolas&quot;, &quot;DejaVu Sans Mono&quot;, &quot;Liberation Mono&quot;, &quot;Roboto Mono&quot;, &quot;Noto Sans Mono&quot;, monospace; font-size: 16.0px;" text-anchor="middle" data-color-bar-letter="true">b</text></g><g data-color-bar-rank="3" data-color-bar-band="W"><rect x="1" y="168.7772501007401" width="20.0" height="22.222749899259895" fill="#ffffff"/><text x="11.0" y="187.48" fill="#000000" style="font-family: &quot;JetBrains Mono&quot;, &quot;Menlo&quot;, &quot;Consolas&quot;, &quot;DejaVu Sans Mono&quot;, &quot;Liberation Mono&quot;, &quot;Roboto Mono&quot;, &quot;Noto Sans Mono&quot;, monospace; font-size: 16.0px;" text-anchor="middle" data-color-bar-letter="true">w</text></g><rect x="2.1999999999999997" y="181.86666666666665" width="5.6000000000000005" height="5.6000000000000005" fill="#ffffff" stroke="#000000" stroke-width="0.75" data-bar-marker="square"/><polygon points="17.0,118.53333333333333 14.2,124.13333333333333 19.8,124.13333333333333" fill="#ffffff" stroke="#000000" stroke-width="0.75" data-bar-marker="triangle"/></g><g data-channel="label-top"><text x="27.0" y="16.0" fill="#666666" style="font-family: &quot;JetBrains Mono&quot;, &quot;Menlo&quot;, &quot;Consolas&quot;, &quot;DejaVu Sans Mono&quot;, &quot;Liberation Mono&quot;, &quot;Roboto Mono&quot;, &quot;Noto Sans Mono&quot;, monospace; font-size: 12.0px;" dominant-baseline="central">CIDv0: Qm...</text></g><line x1="0" y1="0.5" x2="213.0" y2="0.5" stroke="#808080" stroke-width="1" shape-rendering="crispEdges"/><line x1="212.5" y1="0" x2="212.5" y2="192.0" stroke="#808080" stroke-width="1" shape-rendering="crispEdges"/><line x1="0" y1="191.5" x2="213.0" y2="191.5" stroke="#808080" stroke-width="1" shape-rendering="crispEdges"/><line x1="0.5" y1="0" x2="0.5" y2="192.0" stroke="#808080" stroke-width="1" shape-rendering="crispEdges"/><line x1="21.5" y1="0" x2="21.5" y2="192.0" stroke="#808080" stroke-width="1" shape-rendering="crispEdges"/></svg>