<svg width="273.0" height="277.0" viewBox="0 0 273.0 277.0" xmlns="http://www.w3.org/2000/svg" data-entviz-version="v6" data-entviz-lib="0.5.0" data-input-bytes="119" data-cols="4" data-rows="6" data-truncated="true"><defs><clipPath id="grid-clip-807e856a24dc33e6-4x6"><rect x="27.0" y="31.0" width="240.0" height="240.0"/></clipPath></defs><rect x="0" y="0" width="273.0" height="277.0" fill="#ffffff"/><g data-channel="grid"><rect x="27.0" y="31.0" width="240.0" height="240.0" fill="#ff3f2f"/><g><rect x="27.0" y="31.0" width="6.0" height="10.0" fill="#000000"/><rect x="39.0" y="31.0" width="6.0" height="10.0" fill="#000000"/><rect x="69.0" y="31.0" width="6.0" height="10.0" fill="#000000"/><rect x="81.0" y="31.0" width="6.0" height="10.0" fill="#000000"/><rect x="81.0" y="41.0" width="6.0" height="10.0" fill="#000000"/><rect x="81.0" y="51.0" width="6.0" height="10.0" fill="#000000"/><rect x="81.0" y="61.0" width="6.0" height="10.0" fill="#000000"/><rect x="75.0" y="61.0" width="6.0" height="10.0" fill="#000000"/><rect x="69.0" y="61.0" width="6.0" height="10.0" fill="#000000"/><rect x="27.0" y="41.0" width="6.0" height="10.0" fill="#000000"/><rect x="99.0" y="31.0" width="6.0" height="10.0" fill="#000000"/><rect x="105.0" y="31.0" width="6.0" height="10.0" fill="#000000"/><rect x="111.0" y="31.0" width="6.0" height="10.0" fill="#000000"/><rect x="123.0" y="31.0" width="6.0" height="10.0" fill="#000000"/><rect x="129.0" y="31.0" width="6.0" height="10.0" fill="#000000"/><rect x="141.0" y="41.0" width="6.0" height="10.0" fill="#000000"/><rect x="135.0" y="61.0" width="6.0" height="10.0" fill="#000000"/><rect x="111.0" y="61.0" width="6.0" height="10.0" fill="#000000"/><rect x="99.0" y="61.0" width="6.0" height="10.0" fill="#000000"/><rect x="87.0" y="61.0" width="6.0" height="10.0" fill="#000000"/><rect x="87.0" y="51.0" width="6.0" height="10.0" fill="#000000"/><rect x="153.0" y="31.0" width="6.0" height="10.0" fill="#000000"/><rect x="159.0" y="31.0" width="6.0" height="10.0" fill="#000000"/><rect x="177.0" y="31.0" width="6.0" height="10.0" fill="#000000"/><rect x="201.0" y="31.0" width="6.0" height="10.0" fill="#000000"/><rect x="201.0" y="41.0" width="6.0" height="10.0" fill="#000000"/><rect x="195.0" y="61.0" width="6.0" height="10.0" fill="#000000"/><rect x="189.0" y="61.0" width="6.0" height="10.0" fill="#000000"/><rect x="183.0" y="61.0" width="6.0" height="10.0" fill="#000000"/><rect x="177.0" y="61.0" width="6.0" height="10.0" fill="#000000"/><rect x="171.0" y="61.0" width="6.0" height="10.0" fill="#000000"/><rect x="153.0" y="61.0" width="6.0" height="10.0" fill="#000000"/><rect x="147.0" y="61.0" width="6.0" height="10.0" fill="#000000"/><rect x="213.0" y="31.0" width="6.0" height="10.0" fill="#2f3fbf"/><rect x="231.0" y="31.0" width="6.0" height="10.0" fill="#2f3fbf"/><rect x="261.0" y="61.0" width="6.0" height="10.0" fill="#2f3fbf"/><rect x="237.0" y="61.0" width="6.0" height="10.0" fill="#2f3fbf"/><rect x="225.0" y="61.0" width="6.0" height="10.0" fill="#2f3fbf"/><rect x="219.0" y="61.0" width="6.0" height="10.0" fill="#2f3fbf"/><rect x="213.0" y="61.0" width="6.0" height="10.0" fill="#2f3fbf"/><rect x="27.0" y="71.0" width="6.0" height="10.0" fill="#2f3fbf"/><rect x="51.0" y="71.0" width="6.0" height="10.0" fill="#2f3fbf"/><rect x="75.0" y="101.0" width="6.0" height="10.0" fill="#2f3fbf"/><rect x="63.0" y="101.0" width="6.0" height="10.0" fill="#2f3fbf"/><rect x="45.0" y="101.0" width="6.0" height="10.0" fill="#2f3fbf"/><rect x="39.0" y="101.0" width="6.0" height="10.0" fill="#2f3fbf"/><rect x="33.0" y="101.0" width="6.0" height="10.0" fill="#2f3fbf"/><rect x="27.0" y="101.0" width="6.0" height="10.0" fill="#2f3fbf"/><rect x="93.0" y="71.0" width="6.0" height="10.0" fill="#000000"/><rect x="99.0" y="71.0" width="6.0" height="10.0" fill="#000000"/><rect x="105.0" y="71.0" width="6.0" height="10.0" fill="#000000"/><rect x="117.0" y="71.0" width="6.0" height="10.0" fill="#000000"/><rect x="123.0" y="71.0" width="6.0" height="10.0" fill="#000000"/><rect x="135.0" y="71.0" width="6.0" height="10.0" fill="#000000"/><rect x="141.0" y="71.0" width="6.0" height="10.0" fill="#000000"/><rect x="141.0" y="81.0" width="6.0" height="10.0" fill="#000000"/><rect x="141.0" y="91.0" width="6.0" height="10.0" fill="#000000"/><rect x="135.0" y="101.0" width="6.0" height="10.0" fill="#000000"/><rect x="129.0" y="101.0" width="6.0" height="10.0" fill="#000000"/><rect x="123.0" y="101.0" width="6.0" height="10.0" fill="#000000"/><rect x="105.0" y="101.0" width="6.0" height="10.0" fill="#000000"/><rect x="99.0" y="101.0" width="6.0" height="10.0" fill="#000000"/><rect x="93.0" y="101.0" width="6.0" height="10.0" fill="#000000"/><rect x="87.0" y="91.0" width="6.0" height="10.0" fill="#000000"/><rect x="207.0" y="71.0" width="6.0" height="10.0" fill="#000000"/><rect x="213.0" y="71.0" width="6.0" height="10.0" fill="#000000"/><rect x="225.0" y="71.0" width="6.0" height="10.0" fill="#000000"/><rect x="231.0" y="71.0" width="6.0" height="10.0" fill="#000000"/><rect x="249.0" y="71.0" width="6.0" height="10.0" fill="#000000"/><rect x="249.0" y="101.0" width="6.0" height="10.0" fill="#000000"/><rect x="243.0" y="101.0" width="6.0" height="10.0" fill="#000000"/><rect x="231.0" y="101.0" width="6.0" height="10.0" fill="#000000"/><rect x="213.0" y="101.0" width="6.0" height="10.0" fill="#000000"/><rect x="207.0" y="101.0" width="6.0" height="10.0" fill="#000000"/><rect x="207.0" y="81.0" width="6.0" height="10.0" fill="#000000"/><rect x="33.0" y="111.0" width="6.0" height="10.0" fill="#000000"/><rect x="45.0" y="111.0" width="6.0" height="10.0" fill="#000000"/><rect x="57.0" y="111.0" width="6.0" height="10.0" fill="#000000"/><rect x="69.0" y="111.0" width="6.0" height="10.0" fill="#000000"/><rect x="81.0" y="111.0" width="6.0" height="10.0" fill="#000000"/><rect x="81.0" y="121.0" width="6.0" height="10.0" fill="#000000"/><rect x="69.0" y="141.0" width="6.0" height="10.0" fill="#000000"/><rect x="63.0" y="141.0" width="6.0" height="10.0" fill="#000000"/><rect x="57.0" y="141.0" width="6.0" height="10.0" fill="#000000"/><rect x="39.0" y="141.0" width="6.0" height="10.0" fill="#000000"/><rect x="27.0" y="141.0" width="6.0" height="10.0" fill="#000000"/><rect x="87.0" y="111.0" width="6.0" height="10.0" fill="#ffd966"/><rect x="99.0" y="111.0" width="6.0" height="10.0" fill="#ffd966"/><rect x="111.0" y="111.0" width="6.0" height="10.0" fill="#ffd966"/><rect x="117.0" y="111.0" width="6.0" height="10.0" fill="#ffd966"/><rect x="123.0" y="111.0" width="6.0" height="10.0" fill="#ffd966"/><rect x="129.0" y="111.0" width="6.0" height="10.0" fill="#ffd966"/><rect x="141.0" y="131.0" width="6.0" height="10.0" fill="#ffd966"/><rect x="141.0" y="141.0" width="6.0" height="10.0" fill="#ffd966"/><rect x="135.0" y="141.0" width="6.0" height="10.0" fill="#ffd966"/><rect x="129.0" y="141.0" width="6.0" height="10.0" fill="#ffd966"/><rect x="123.0" y="141.0" width="6.0" height="10.0" fill="#ffd966"/><rect x="117.0" y="141.0" width="6.0" height="10.0" fill="#ffd966"/><rect x="105.0" y="141.0" width="6.0" height="10.0" fill="#ffd966"/><rect x="99.0" y="141.0" width="6.0" height="10.0" fill="#ffd966"/><rect x="93.0" y="141.0" width="6.0" height="10.0" fill="#ffd966"/><rect x="87.0" y="121.0" width="6.0" height="10.0" fill="#ffd966"/><rect x="147.0" y="111.0" width="6.0" height="10.0" fill="#ffd966"/><rect x="153.0" y="111.0" width="6.0" height="10.0" fill="#ffd966"/><rect x="183.0" y="111.0" width="6.0" height="10.0" fill="#ffd966"/><rect x="189.0" y="111.0" width="6.0" height="10.0" fill="#ffd966"/><rect x="195.0" y="111.0" width="6.0" height="10.0" fill="#ffd966"/><rect x="195.0" y="141.0" width="6.0" height="10.0" fill="#ffd966"/><rect x="183.0" y="141.0" width="6.0" height="10.0" fill="#ffd966"/><rect x="177.0" y="141.0" width="6.0" height="10.0" fill="#ffd966"/><rect x="171.0" y="141.0" width="6.0" height="10.0" fill="#ffd966"/><rect x="165.0" y="141.0" width="6.0" height="10.0" fill="#ffd966"/><rect x="147.0" y="141.0" width="6.0" height="10.0" fill="#ffd966"/><rect x="147.0" y="121.0" width="6.0" height="10.0" fill="#ffd966"/><rect x="219.0" y="111.0" width="6.0" height="10.0" fill="#ffd966"/><rect x="231.0" y="111.0" width="6.0" height="10.0" fill="#ffd966"/><rect x="249.0" y="111.0" width="6.0" height="10.0" fill="#ffd966"/><rect x="261.0" y="111.0" width="6.0" height="10.0" fill="#ffd966"/><rect x="261.0" y="121.0" width="6.0" height="10.0" fill="#ffd966"/><rect x="261.0" y="141.0" width="6.0" height="10.0" fill="#ffd966"/><rect x="255.0" y="141.0" width="6.0" height="10.0" fill="#ffd966"/><rect x="237.0" y="141.0" width="6.0" height="10.0" fill="#ffd966"/><rect x="207.0" y="131.0" width="6.0" height="10.0" fill="#ffd966"/><rect x="33.0" y="151.0" width="6.0" height="10.0" fill="#ffd966"/><rect x="39.0" y="151.0" width="6.0" height="10.0" fill="#ffd966"/><rect x="45.0" y="151.0" width="6.0" height="10.0" fill="#ffd966"/><rect x="51.0" y="151.0" width="6.0" height="10.0" fill="#ffd966"/><rect x="75.0" y="151.0" width="6.0" height="10.0" fill="#ffd966"/><rect x="81.0" y="161.0" width="6.0" height="10.0" fill="#ffd966"/><rect x="75.0" y="181.0" width="6.0" height="10.0" fill="#ffd966"/><rect x="51.0" y="181.0" width="6.0" height="10.0" fill="#ffd966"/><rect x="45.0" y="181.0" width="6.0" height="10.0" fill="#ffd966"/><rect x="33.0" y="181.0" width="6.0" height="10.0" fill="#ffd966"/><rect x="27.0" y="181.0" width="6.0" height="10.0" fill="#ffd966"/><rect x="27.0" y="171.0" width="6.0" height="10.0" fill="#ffd966"/><rect x="153.0" y="151.0" width="6.0" height="10.0" fill="#000000"/><rect x="189.0" y="151.0" width="6.0" height="10.0" fill="#000000"/><rect x="201.0" y="151.0" width="6.0" height="10.0" fill="#000000"/><rect x="201.0" y="161.0" width="6.0" height="10.0" fill="#000000"/><rect x="201.0" y="171.0" width="6.0" height="10.0" fill="#000000"/><rect x="189.0" y="181.0" width="6.0" height="10.0" fill="#000000"/><rect x="177.0" y="181.0" width="6.0" height="10.0" fill="#000000"/><rect x="171.0" y="181.0" width="6.0" height="10.0" fill="#000000"/><rect x="147.0" y="181.0" width="6.0" height="10.0" fill="#000000"/><rect x="147.0" y="171.0" width="6.0" height="10.0" fill="#000000"/><rect x="213.0" y="151.0" width="6.0" height="10.0" fill="#ffd966"/><rect x="231.0" y="151.0" width="6.0" height="10.0" fill="#ffd966"/><rect x="261.0" y="161.0" width="6.0" height="10.0" fill="#ffd966"/><rect x="243.0" y="181.0" width="6.0" height="10.0" fill="#ffd966"/><rect x="237.0" y="181.0" width="6.0" height="10.0" fill="#ffd966"/><rect x="231.0" y="181.0" width="6.0" height="10.0" fill="#ffd966"/><rect x="225.0" y="181.0" width="6.0" height="10.0" fill="#ffd966"/><rect x="219.0" y="181.0" width="6.0" height="10.0" fill="#ffd966"/><rect x="213.0" y="181.0" width="6.0" height="10.0" fill="#ffd966"/><rect x="207.0" y="161.0" width="6.0" height="10.0" fill="#ffd966"/><rect x="27.0" y="191.0" width="6.0" height="10.0" fill="#ffd966"/><rect x="33.0" y="191.0" width="6.0" height="10.0" fill="#ffd966"/><rect x="69.0" y="191.0" width="6.0" height="10.0" fill="#ffd966"/><rect x="81.0" y="191.0" width="6.0" height="10.0" fill="#ffd966"/><rect x="81.0" y="201.0" width="6.0" height="10.0" fill="#ffd966"/><rect x="81.0" y="211.0" width="6.0" height="10.0" fill="#ffd966"/><rect x="81.0" y="221.0" width="6.0" height="10.0" fill="#ffd966"/><rect x="69.0" y="221.0" width="6.0" height="10.0" fill="#ffd966"/><rect x="63.0" y="221.0" width="6.0" height="10.0" fill="#ffd966"/><rect x="57.0" y="221.0" width="6.0" height="10.0" fill="#ffd966"/><rect x="51.0" y="221.0" width="6.0" height="10.0" fill="#ffd966"/><rect x="45.0" y="221.0" width="6.0" height="10.0" fill="#ffd966"/><rect x="33.0" y="221.0" width="6.0" height="10.0" fill="#ffd966"/><rect x="27.0" y="211.0" width="6.0" height="10.0" fill="#ffd966"/><rect x="87.0" y="191.0" width="6.0" height="10.0" fill="#2f3fbf"/><rect x="105.0" y="191.0" width="6.0" height="10.0" fill="#2f3fbf"/><rect x="123.0" y="191.0" width="6.0" height="10.0" fill="#2f3fbf"/><rect x="135.0" y="191.0" width="6.0" height="10.0" fill="#2f3fbf"/><rect x="141.0" y="191.0" width="6.0" height="10.0" fill="#2f3fbf"/><rect x="141.0" y="201.0" width="6.0" height="10.0" fill="#2f3fbf"/><rect x="123.0" y="221.0" width="6.0" height="10.0" fill="#2f3fbf"/><rect x="117.0" y="221.0" width="6.0" height="10.0" fill="#2f3fbf"/><rect x="105.0" y="221.0" width="6.0" height="10.0" fill="#2f3fbf"/><rect x="99.0" y="221.0" width="6.0" height="10.0" fill="#2f3fbf"/><rect x="93.0" y="221.0" width="6.0" height="10.0" fill="#2f3fbf"/><rect x="87.0" y="221.0" width="6.0" height="10.0" fill="#2f3fbf"/><rect x="87.0" y="211.0" width="6.0" height="10.0" fill="#2f3fbf"/><rect x="87.0" y="201.0" width="6.0" height="10.0" fill="#2f3fbf"/><rect x="159.0" y="191.0" width="6.0" height="10.0" fill="#2f3fbf"/><rect x="165.0" y="191.0" width="6.0" height="10.0" fill="#2f3fbf"/><rect x="177.0" y="191.0" width="6.0" height="10.0" fill="#2f3fbf"/><rect x="189.0" y="191.0" width="6.0" height="10.0" fill="#2f3fbf"/><rect x="195.0" y="191.0" width="6.0" height="10.0" fill="#2f3fbf"/><rect x="201.0" y="191.0" width="6.0" height="10.0" fill="#2f3fbf"/><rect x="201.0" y="201.0" width="6.0" height="10.0" fill="#2f3fbf"/><rect x="201.0" y="211.0" width="6.0" height="10.0" fill="#2f3fbf"/><rect x="201.0" y="221.0" width="6.0" height="10.0" fill="#2f3fbf"/><rect x="195.0" y="221.0" width="6.0" height="10.0" fill="#2f3fbf"/><rect x="189.0" y="221.0" width="6.0" height="10.0" fill="#2f3fbf"/><rect x="147.0" y="211.0" width="6.0" height="10.0" fill="#2f3fbf"/><rect x="33.0" y="231.0" width="6.0" height="10.0" fill="#2f3fbf"/><rect x="39.0" y="231.0" width="6.0" height="10.0" fill="#2f3fbf"/><rect x="57.0" y="231.0" width="6.0" height="10.0" fill="#2f3fbf"/><rect x="63.0" y="231.0" width="6.0" height="10.0" fill="#2f3fbf"/><rect x="69.0" y="231.0" width="6.0" height="10.0" fill="#2f3fbf"/><rect x="75.0" y="231.0" width="6.0" height="10.0" fill="#2f3fbf"/><rect x="81.0" y="231.0" width="6.0" height="10.0" fill="#2f3fbf"/><rect x="57.0" y="261.0" width="6.0" height="10.0" fill="#2f3fbf"/><rect x="51.0" y="261.0" width="6.0" height="10.0" fill="#2f3fbf"/><rect x="39.0" y="261.0" width="6.0" height="10.0" fill="#2f3fbf"/><rect x="123.0" y="231.0" width="6.0" height="10.0" fill="#ffd966"/><rect x="129.0" y="231.0" width="6.0" height="10.0" fill="#ffd966"/><rect x="135.0" y="231.0" width="6.0" height="10.0" fill="#ffd966"/><rect x="141.0" y="231.0" width="6.0" height="10.0" fill="#ffd966"/><rect x="141.0" y="251.0" width="6.0" height="10.0" fill="#ffd966"/><rect x="105.0" y="261.0" width="6.0" height="10.0" fill="#ffd966"/><rect x="99.0" y="261.0" width="6.0" height="10.0" fill="#ffd966"/><rect x="93.0" y="261.0" width="6.0" height="10.0" fill="#ffd966"/><rect x="87.0" y="241.0" width="6.0" height="10.0" fill="#ffd966"/><rect x="153.0" y="231.0" width="6.0" height="10.0" fill="#2f3fbf"/><rect x="159.0" y="231.0" width="6.0" height="10.0" fill="#2f3fbf"/><rect x="165.0" y="231.0" width="6.0" height="10.0" fill="#2f3fbf"/><rect x="171.0" y="231.0" width="6.0" height="10.0" fill="#2f3fbf"/><rect x="189.0" y="231.0" width="6.0" height="10.0" fill="#2f3fbf"/><rect x="201.0" y="231.0" width="6.0" height="10.0" fill="#2f3fbf"/><rect x="201.0" y="241.0" width="6.0" height="10.0" fill="#2f3fbf"/><rect x="189.0" y="261.0" width="6.0" height="10.0" fill="#2f3fbf"/><rect x="183.0" y="261.0" width="6.0" height="10.0" fill="#2f3fbf"/><rect x="171.0" y="261.0" width="6.0" height="10.0" fill="#2f3fbf"/><rect x="165.0" y="261.0" width="6.0" height="10.0" fill="#2f3fbf"/><rect x="147.0" y="261.0" width="6.0" height="10.0" fill="#2f3fbf"/><rect x="147.0" y="251.0" width="6.0" height="10.0" fill="#2f3fbf"/></g><g clip-path="url(#grid-clip-807e856a24dc33e6-4x6)" data-channel="ellipse" data-ellipse-anchor-x="207.0" data-ellipse-anchor-y="111.0" data-ellipse-rx="139.68249711399062" data-ellipse-ry="122.34260092052972" data-ellipse-rotation-deg="168.0"><ellipse cx="207.0" cy="111.0" rx="139.68249711399062" ry="122.34260092052972" transform="rotate(168.0 207.0 111.0)" fill="#000000" fill-opacity="0.4"/></g><g><g data-channel="cell" data-cell-index="0" data-cell-row="0" data-cell-col="0" data-cell-quartile="2"><rect x="33.0" y="41.0" width="48.0" height="20.0" fill="#018230"/><text x="57.0" y="51.0" fill="#ffffff" style="font-family: &quot;JetBrains Mono&quot;, &quot;Menlo&quot;, &quot;Consolas&quot;, &quot;DejaVu Sans Mono&quot;, &quot;Liberation Mono&quot;, &quot;Roboto Mono&quot;, &quot;Noto Sans Mono&quot;, monospace; font-size: 16.0px;" text-anchor="middle" dominant-baseline="central">MIIB</text><polygon points="81.0,41.0 71.0,41.0 81.0,51.0" fill="#ffffff"/></g><g data-channel="cell" data-cell-index="1" data-cell-row="0" data-cell-col="1"><rect x="93.0" y="41.0" width="48.0" height="20.0" fill="#0d3022"/><text x="117.0" y="51.0" fill="#ffffff" style="font-family: &quot;JetBrains Mono&quot;, &quot;Menlo&quot;, &quot;Consolas&quot;, &quot;DejaVu Sans Mono&quot;, &quot;Liberation Mono&quot;, &quot;Roboto Mono&quot;, &quot;Noto Sans Mono&quot;, monospace; font-size: 16.0px;" text-anchor="middle" dominant-baseline="central">IjAN</text></g><g data-channel="cell" data-cell-index="2" data-cell-row="0" data-cell-col="2"><rect x="153.0" y="41.0" width="48.0" height="20.0" fill="#2a0906"/><text x="177.0" y="51.0" fill="#ffffff" style="font-family: &quot;JetBrains Mono&quot;, &quot;Menlo&quot;, &quot;Consolas&quot;, &quot;DejaVu Sans Mono&quot;, &quot;Liberation Mono&quot;, &quot;Roboto Mono&quot;, &quot;Noto Sans Mono&quot;, monospace; font-size: 16.0px;" text-anchor="middle" dominant-baseline="central">Bgkq</text></g><g data-channel="cell" data-cell-index="3" data-cell-row="0" data-cell-col="3"><rect x="213.0" y="41.0" width="48.0" height="20.0" fill="#864886"/><text x="237.0" y="51.0" fill="#ffffff" style="font-family: &quot;JetBrains Mono&quot;, &quot;Menlo&quot;, &quot;Consolas&quot;, &quot;DejaVu Sans Mono&quot;, &quot;Liberation Mono&quot;, &quot;Roboto Mono&quot;, &quot;Noto Sans Mono&quot;, monospace; font-size: 16.0px;" text-anchor="middle" dominant-baseline="central">hkiG</text></g><g data-channel="cell" data-cell-index="4" data-cell-row="1" data-cell-col="0"><rect x="33.0" y="81.0" width="48.0" height="20.0" fill="#010df7"/><text x="57.0" y="91.0" fill="#ffffff" style="font-family: &quot;JetBrains Mono&quot;, &quot;Menlo&quot;, &quot;Consolas&quot;, &quot;DejaVu Sans Mono&quot;, &quot;Liberation Mono&quot;, &quot;Roboto Mono&quot;, &quot;Noto Sans Mono&quot;, monospace; font-size: 16.0px;" text-anchor="middle" dominant-baseline="central">9w0B</text></g><g data-channel="cell" data-cell-index="5" data-cell-row="1" data-cell-col="1"><rect x="93.0" y="81.0" width="48.0" height="20.0" fill="#050101"/><text x="117.0" y="91.0" fill="#ffffff" style="font-family: &quot;JetBrains Mono&quot;, &quot;Menlo&quot;, &quot;Consolas&quot;, &quot;DejaVu Sans Mono&quot;, &quot;Liberation Mono&quot;, &quot;Roboto Mono&quot;, &quot;Noto Sans Mono&quot;, monospace; font-size: 16.0px;" text-anchor="middle" dominant-baseline="central">AQEF</text></g><g data-channel="cell" data-cell-index="6" data-cell-row="1" data-cell-col="2" data-cell-blank="true" data-cell-blank-map="true"><rect x="153.0" y="81.0" width="48.0" height="20.0" rx="10.0" ry="10.0" fill="#ffffff" stroke="#000000" stroke-width="1"/><circle cx="171.0" cy="96.0" r="2.5" fill="#d62828" data-blank-map-max="true"/><circle cx="159.0" cy="99.33333333333334" r="2.5" fill="#1d4ed8" data-blank-map-min="true"/></g><g data-channel="cell" data-cell-index="7" data-cell-row="1" data-cell-col="3"><rect x="213.0" y="81.0" width="48.0" height="20.0" fill="#820300"/><text x="237.0" y="91.0" fill="#ffffff" style="font-family: &quot;JetBrains Mono&quot;, &quot;Menlo&quot;, &quot;Consolas&quot;, &quot;DejaVu Sans Mono&quot;, &quot;Liberation Mono&quot;, &quot;Roboto Mono&quot;, &quot;Noto Sans Mono&quot;, monospace; font-size: 16.0px;" text-anchor="middle" dominant-baseline="central">AAOC</text></g><g data-channel="cell" data-cell-index="8" data-cell-row="2" data-cell-col="0"><rect x="33.0" y="121.0" width="48.0" height="20.0" fill="#000f01"/><text x="57.0" y="131.0" fill="#ffffff" style="font-family: &quot;JetBrains Mono&quot;, &quot;Menlo&quot;, &quot;Consolas&quot;, &quot;DejaVu Sans Mono&quot;, &quot;Liberation Mono&quot;, &quot;Roboto Mono&quot;, &quot;Noto Sans Mono&quot;, monospace; font-size: 16.0px;" text-anchor="middle" dominant-baseline="central">AQ8A</text></g><g data-channel="cell" data-cell-index="9" data-cell-row="2" data-cell-col="1" data-cell-fingerprint="true" data-cell-quartile="1"><rect x="93.0" y="121.0" width="48.0" height="20.0" fill="#ff3f2f"/><rect x="93.5" y="121.5" width="47.0" height="19.0" fill="none" stroke="#ffffff" stroke-width="1"/><text x="117.0" y="131.0" fill="#000000" style="font-family: &quot;JetBrains Mono&quot;, &quot;Menlo&quot;, &quot;Consolas&quot;, &quot;DejaVu Sans Mono&quot;, &quot;Liberation Mono&quot;, &quot;Roboto Mono&quot;, &quot;Noto Sans Mono&quot;, monospace; font-size: 16.0px;" text-anchor="middle" dominant-baseline="central">nfj1</text><polygon points="93.0,121.0 103.0,121.0 93.0,131.0" fill="#000000"/></g><g data-channel="cell" data-cell-index="10" data-cell-row="2" data-cell-col="2" data-cell-fingerprint="true"><rect x="153.0" y="121.0" width="48.0" height="20.0" fill="#ff3f2f"/><rect x="153.5" y="121.5" width="47.0" height="19.0" fill="none" stroke="#ffffff" stroke-width="1"/><text x="177.0" y="131.0" fill="#000000" style="font-family: &quot;JetBrains Mono&quot;, &quot;Menlo&quot;, &quot;Consolas&quot;, &quot;DejaVu Sans Mono&quot;, &quot;Liberation Mono&quot;, &quot;Roboto Mono&quot;, &quot;Noto Sans Mono&quot;, monospace; font-size: 16.0px;" text-anchor="middle" dominant-baseline="central">p6HD</text></g><g data-channel="cell" data-cell-index="11" data-cell-row="2" data-cell-col="3" data-cell-fingerprint="true" data-cell-quartile="3"><rect x="213.0" y="121.0" width="48.0" height="20.0" fill="#ff3f2f"/><rect x="213.5" y="121.5" width="47.0" height="19.0" fill="none" stroke="#ffffff" stroke-width="1"/><text x="237.0" y="131.0" fill="#000000" style="font-family: &quot;JetBrains Mono&quot;, &quot;Menlo&quot;, &quot;Consolas&quot;, &quot;DejaVu Sans Mono&quot;, &quot;Liberation Mono&quot;, &quot;Roboto Mono&quot;, &quot;Noto Sans Mono&quot;, monospace; font-size: 16.0px;" text-anchor="middle" dominant-baseline="central">QTaU</text><polygon points="261.0,141.0 261.0,131.0 251.0,141.0" fill="#ffffff"/></g><g data-channel="cell" data-cell-index="12" data-cell-row="3" data-cell-col="0" data-cell-fingerprint="true"><rect x="33.0" y="161.0" width="48.0" height="20.0" fill="#ff3f2f"/><rect x="33.5" y="161.5" width="47.0" height="19.0" fill="none" stroke="#ffffff" stroke-width="1"/><text x="57.0" y="171.0" fill="#000000" style="font-family: &quot;JetBrains Mono&quot;, &quot;Menlo&quot;, &quot;Consolas&quot;, &quot;DejaVu Sans Mono&quot;, &quot;Liberation Mono&quot;, &quot;Roboto Mono&quot;, &quot;Noto Sans Mono&quot;, monospace; font-size: 16.0px;" text-anchor="middle" dominant-baseline="central">diUe</text></g><g data-channel="cell" data-cell-index="13" data-cell-row="3" data-cell-col="1" data-cell-blank="true"><rect x="93.0" y="161.0" width="48.0" height="20.0" rx="10.0" ry="10.0" fill="none" stroke="#000000" stroke-width="1"/></g><g data-channel="cell" data-cell-index="14" data-cell-row="3" data-cell-col="2"><rect x="153.0" y="161.0" width="48.0" height="20.0" fill="#da0d2e"/><text x="177.0" y="171.0" fill="#ffffff" style="font-family: &quot;JetBrains Mono&quot;, &quot;Menlo&quot;, &quot;Consolas&quot;, &quot;DejaVu Sans Mono&quot;, &quot;Liberation Mono&quot;, &quot;Roboto Mono&quot;, &quot;Noto Sans Mono&quot;, monospace; font-size: 16.0px;" text-anchor="middle" dominant-baseline="central">Lg3a</text></g><g data-channel="cell" data-cell-index="15" data-cell-row="3" data-cell-col="3"><rect x="213.0" y="161.0" width="48.0" height="20.0" fill="#2ac837"/><text x="237.0" y="171.0" fill="#000000" style="font-family: &quot;JetBrains Mono&quot;, &quot;Menlo&quot;, &quot;Consolas&quot;, &quot;DejaVu Sans Mono&quot;, &quot;Liberation Mono&quot;, &quot;Roboto Mono&quot;, &quot;Noto Sans Mono&quot;, monospace; font-size: 16.0px;" text-anchor="middle" dominant-baseline="central">N8gq</text></g><g data-channel="cell" data-cell-index="16" data-cell-row="4" data-cell-col="0"><rect x="33.0" y="201.0" width="48.0" height="20.0" fill="#b56c2b"/><text x="57.0" y="211.0" fill="#000000" style="font-family: &quot;JetBrains Mono&quot;, &quot;Menlo&quot;, &quot;Consolas&quot;, &quot;DejaVu Sans Mono&quot;, &quot;Liberation Mono&quot;, &quot;Roboto Mono&quot;, &quot;Noto Sans Mono&quot;, monospace; font-size: 16.0px;" text-anchor="middle" dominant-baseline="central">K2y1</text></g><g data-channel="cell" data-cell-index="17" data-cell-row="4" data-cell-col="1"><rect x="93.0" y="201.0" width="48.0" height="20.0" fill="#ca67cc"/><text x="117.0" y="211.0" fill="#000000" style="font-family: &quot;JetBrains Mono&quot;, &quot;Menlo&quot;, &quot;Consolas&quot;, &quot;DejaVu Sans Mono&quot;, &quot;Liberation Mono&quot;, &quot;Roboto Mono&quot;, &quot;Noto Sans Mono&quot;, monospace; font-size: 16.0px;" text-anchor="middle" dominant-baseline="central">zGfK</text></g><g data-channel="cell" data-cell-index="18" data-cell-row="4" data-cell-col="2"><rect x="153.0" y="201.0" width="48.0" height="20.0" fill="#3d776d"/><text x="177.0" y="211.0" fill="#ffffff" style="font-family: &quot;JetBrains Mono&quot;, &quot;Menlo&quot;, &quot;Consolas&quot;, &quot;DejaVu Sans Mono&quot;, &quot;Liberation Mono&quot;, &quot;Roboto Mono&quot;, &quot;Noto Sans Mono&quot;, monospace; font-size: 16.0px;" text-anchor="middle" dominant-baseline="central">bXc9</text></g><g data-channel="cell" data-cell-index="19" data-cell-row="4" data-cell-col="3" data-cell-blank="true"><rect x="213.0" y="201.0" width="48.0" height="20.0" rx="10.0" ry="10.0" fill="none" stroke="#000000" stroke-width="1"/></g><g data-channel="cell" data-cell-index="20" data-cell-row="5" data-cell-col="0" data-cell-quartile="4"><rect x="33.0" y="241.0" width="48.0" height="20.0" fill="#2d66a7"/><text x="57.0" y="251.0" fill="#ffffff" style="font-family: &quot;JetBrains Mono&quot;, &quot;Menlo&quot;, &quot;Consolas&quot;, &quot;DejaVu Sans Mono&quot;, &quot;Liberation Mono&quot;, &quot;Roboto Mono&quot;, &quot;Noto Sans Mono&quot;, monospace; font-size: 16.0px;" text-anchor="middle" dominant-baseline="central">p2Yt</text><polygon points="33.0,261.0 33.0,251.0 43.0,261.0" fill="#ffffff"/></g><g data-channel="cell" data-cell-index="21" data-cell-row="5" data-cell-col="1"><rect x="93.0" y="241.0" width="48.0" height="20.0" fill="#79f236"/><text x="117.0" y="251.0" fill="#000000" style="font-family: &quot;JetBrains Mono&quot;, &quot;Menlo&quot;, &quot;Consolas&quot;, &quot;DejaVu Sans Mono&quot;, &quot;Liberation Mono&quot;, &quot;Roboto Mono&quot;, &quot;Noto Sans Mono&quot;, monospace; font-size: 16.0px;" text-anchor="middle" dominant-baseline="central">NvJ5</text></g><g data-channel="cell" data-cell-index="22" data-cell-row="5" data-cell-col="2"><rect x="153.0" y="241.0" width="48.0" height="20.0" fill="#174b87"/><text x="177.0" y="251.0" fill="#ffffff" style="font-family: &quot;JetBrains Mono&quot;, &quot;Menlo&quot;, &quot;Consolas&quot;, &quot;DejaVu Sans Mono&quot;, &quot;Liberation Mono&quot;, &quot;Roboto Mono&quot;, &quot;Noto Sans Mono&quot;, monospace; font-size: 16.0px;" text-anchor="middle" dominant-baseline="central">h0sX</text></g><g data-channel="cell" data-cell-index="23" data-cell-row="5" data-cell-col="3" data-cell-blank="true"><rect x="213.0" y="241.0" width="48.0" height="20.0" rx="10.0" ry="10.0" fill="none" stroke="#000000" stroke-width="1"/></g></g></g><g data-channel="color-bar"><g data-color-bar-rank="0" data-color-bar-band="W"><rect x="1" y="1" width="20.0" height="100.23432540116825" fill="#ffffff"/><text x="11.0" y="97.71432540116825" fill="#000000" style="font-family: &quot;JetBrains Mono&quot;, &quot;Menlo&quot;, &quot;Consolas&quot;, &quot;DejaVu Sans Mono&quot;, &quot;Liberation Mono&quot;, &quot;Roboto Mono&quot;, &quot;Noto Sans Mono&quot;, monospace; font-size: 16.0px;" text-anchor="middle" data-color-bar-letter="true">w</text></g><g data-color-bar-rank="1" data-color-bar-band="B"><rect x="1" y="101.23432540116825" width="20.0" height="74.84431520391199" fill="#2f3fbf"/><text x="11.0" y="172.55864060508023" fill="#ffffff" style="font-family: &quot;JetBrains Mono&quot;, &quot;Menlo&quot;, &quot;Consolas&quot;, &quot;DejaVu Sans Mono&quot;, &quot;Liberation Mono&quot;, &quot;Roboto Mono&quot;, &quot;Noto Sans Mono&quot;, monospace; font-size: 16.0px;" text-anchor="middle" data-color-bar-letter="true">b</text></g><g data-color-bar-rank="2" data-color-bar-band="K"><rect x="1" y="176.07864060508024" width="20.0" height="58.28406514551307" fill="#000000"/><text x="11.0" y="230.8427057505933" fill="#ffffff" style="font-family: &quot;JetBrains Mono&quot;, &quot;Menlo&quot;, &quot;Consolas&quot;, &quot;DejaVu Sans Mono&quot;, &quot;Liberation Mono&quot;, &quot;Roboto Mono&quot;, &quot;Noto Sans Mono&quot;, monospace; font-size: 16.0px;" text-anchor="middle" data-color-bar-letter="true">k</text></g><g data-color-bar-rank="3" data-color-bar-band="G"><rect x="1" y="234.3627057505933" width="20.0" height="41.63729424940669" fill="#ffd966"/><text x="11.0" y="272.48" fill="#000000" style="font-family: &quot;JetBrains Mono&quot;, &quot;Menlo&quot;, &quot;Consolas&quot;, &quot;DejaVu Sans Mono&quot;, &quot;Liberation Mono&quot;, &quot;Roboto Mono&quot;, &quot;Noto Sans Mono&quot;, monospace; font-size: 16.0px;" text-anchor="middle" data-color-bar-letter="true">g</text></g></g><g data-channel="label-top"><text x="27.0" y="16.0" fill="#666666" style="font-family: &quot;JetBrains Mono&quot;, &quot;Menlo&quot;, &quot;Consolas&quot;, &quot;DejaVu Sans Mono&quot;, &quot;Liberation Mono&quot;, &quot;Roboto Mono&quot;, &quot;Noto Sans Mono&quot;, monospace; font-size: 12.0px;" dominant-baseline="central"><tspan fill="#a00000" font-weight="bold">fingerprint of </tspan>b64(119):</text></g><line x1="0" y1="0.5" x2="273.0" y2="0.5" stroke="#808080" stroke-width="1" shape-rendering="crispEdges"/><line x1="272.5" y1="0" x2="272.5" y2="277.0" stroke="#808080" stroke-width="1" shape-rendering="crispEdges"/><line x1="0" y1="276.5" x2="273.0" y2="276.5" stroke="#808080" stroke-width="1" shape-rendering="crispEdges"/><line x1="0.5" y1="0" x2="0.5" y2="277.0" stroke="#808080" stroke-width="1" shape-rendering="crispEdges"/><line x1="21.5" y1="0" x2="21.5" y2="277.0" stroke="#808080" stroke-width="1" shape-rendering="crispEdges"/></svg>