<svg width="273.0" height="277.0" viewBox="0 0 273.0 277.0" xmlns="http://www.w3.org/2000/svg" data-entviz-version="v6" data-entviz-lib="0.5.0" data-input-bytes="256" data-cols="4" data-rows="6" data-truncated="true"><defs><clipPath id="grid-clip-c479c3873cc56621-4x6"><rect x="27.0" y="31.0" width="240.0" height="240.0"/></clipPath></defs><rect x="0" y="0" width="273.0" height="277.0" fill="#ffffff"/><g data-channel="grid"><rect x="27.0" y="31.0" width="240.0" height="240.0" fill="#ffffff"/><g><rect x="27.0" y="31.0" width="6.0" height="10.0" fill="#000000"/><rect x="33.0" y="31.0" width="6.0" height="10.0" fill="#000000"/><rect x="63.0" y="31.0" width="6.0" height="10.0" fill="#000000"/><rect x="69.0" y="31.0" width="6.0" height="10.0" fill="#000000"/><rect x="75.0" y="31.0" width="6.0" height="10.0" fill="#000000"/><rect x="81.0" y="51.0" width="6.0" height="10.0" fill="#000000"/><rect x="81.0" y="61.0" width="6.0" height="10.0" fill="#000000"/><rect x="75.0" y="61.0" width="6.0" height="10.0" fill="#000000"/><rect x="69.0" y="61.0" width="6.0" height="10.0" fill="#000000"/><rect x="45.0" y="61.0" width="6.0" height="10.0" fill="#000000"/><rect x="27.0" y="51.0" width="6.0" height="10.0" fill="#000000"/><rect x="27.0" y="41.0" width="6.0" height="10.0" fill="#000000"/><rect x="87.0" y="31.0" width="6.0" height="10.0" fill="#ffd966"/><rect x="99.0" y="31.0" width="6.0" height="10.0" fill="#ffd966"/><rect x="123.0" y="31.0" width="6.0" height="10.0" fill="#ffd966"/><rect x="129.0" y="31.0" width="6.0" height="10.0" fill="#ffd966"/><rect x="141.0" y="41.0" width="6.0" height="10.0" fill="#ffd966"/><rect x="141.0" y="51.0" width="6.0" height="10.0" fill="#ffd966"/><rect x="141.0" y="61.0" width="6.0" height="10.0" fill="#ffd966"/><rect x="135.0" y="61.0" width="6.0" height="10.0" fill="#ffd966"/><rect x="117.0" y="61.0" width="6.0" height="10.0" fill="#ffd966"/><rect x="111.0" y="61.0" width="6.0" height="10.0" fill="#ffd966"/><rect x="105.0" y="61.0" width="6.0" height="10.0" fill="#ffd966"/><rect x="87.0" y="41.0" width="6.0" height="10.0" fill="#ffd966"/><rect x="147.0" y="31.0" width="6.0" height="10.0" fill="#2f3fbf"/><rect x="153.0" y="31.0" width="6.0" height="10.0" fill="#2f3fbf"/><rect x="195.0" y="31.0" width="6.0" height="10.0" fill="#2f3fbf"/><rect x="195.0" y="61.0" width="6.0" height="10.0" fill="#2f3fbf"/><rect x="171.0" y="61.0" width="6.0" height="10.0" fill="#2f3fbf"/><rect x="165.0" y="61.0" width="6.0" height="10.0" fill="#2f3fbf"/><rect x="147.0" y="61.0" width="6.0" height="10.0" fill="#2f3fbf"/><rect x="147.0" y="51.0" width="6.0" height="10.0" fill="#2f3fbf"/><rect x="207.0" y="31.0" width="6.0" height="10.0" fill="#000000"/><rect x="213.0" y="31.0" width="6.0" height="10.0" fill="#000000"/><rect x="219.0" y="31.0" width="6.0" height="10.0" fill="#000000"/><rect x="225.0" y="31.0" width="6.0" height="10.0" fill="#000000"/><rect x="231.0" y="31.0" width="6.0" height="10.0" fill="#000000"/><rect x="237.0" y="31.0" width="6.0" height="10.0" fill="#000000"/><rect x="243.0" y="31.0" width="6.0" height="10.0" fill="#000000"/><rect x="255.0" y="31.0" width="6.0" height="10.0" fill="#000000"/><rect x="261.0" y="41.0" width="6.0" height="10.0" fill="#000000"/><rect x="261.0" y="61.0" width="6.0" height="10.0" fill="#000000"/><rect x="255.0" y="61.0" width="6.0" height="10.0" fill="#000000"/><rect x="243.0" y="61.0" width="6.0" height="10.0" fill="#000000"/><rect x="237.0" y="61.0" width="6.0" height="10.0" fill="#000000"/><rect x="207.0" y="61.0" width="6.0" height="10.0" fill="#000000"/><rect x="207.0" y="51.0" width="6.0" height="10.0" fill="#000000"/><rect x="33.0" y="71.0" width="6.0" height="10.0" fill="#ffd966"/><rect x="39.0" y="71.0" width="6.0" height="10.0" fill="#ffd966"/><rect x="51.0" y="71.0" width="6.0" height="10.0" fill="#ffd966"/><rect x="63.0" y="71.0" width="6.0" height="10.0" fill="#ffd966"/><rect x="75.0" y="71.0" width="6.0" height="10.0" fill="#ffd966"/><rect x="81.0" y="71.0" width="6.0" height="10.0" fill="#ffd966"/><rect x="81.0" y="81.0" width="6.0" height="10.0" fill="#ffd966"/><rect x="75.0" y="101.0" width="6.0" height="10.0" fill="#ffd966"/><rect x="45.0" y="101.0" width="6.0" height="10.0" fill="#ffd966"/><rect x="33.0" y="101.0" width="6.0" height="10.0" fill="#ffd966"/><rect x="27.0" y="91.0" width="6.0" height="10.0" fill="#ffd966"/><rect x="87.0" y="71.0" width="6.0" height="10.0" fill="#2f3fbf"/><rect x="105.0" y="71.0" width="6.0" height="10.0" fill="#2f3fbf"/><rect x="111.0" y="71.0" width="6.0" height="10.0" fill="#2f3fbf"/><rect x="141.0" y="91.0" width="6.0" height="10.0" fill="#2f3fbf"/><rect x="135.0" y="101.0" width="6.0" height="10.0" fill="#2f3fbf"/><rect x="129.0" y="101.0" width="6.0" height="10.0" fill="#2f3fbf"/><rect x="111.0" y="101.0" width="6.0" height="10.0" fill="#2f3fbf"/><rect x="105.0" y="101.0" width="6.0" height="10.0" fill="#2f3fbf"/><rect x="93.0" y="101.0" width="6.0" height="10.0" fill="#2f3fbf"/><rect x="147.0" y="71.0" width="6.0" height="10.0" fill="#ff3f2f"/><rect x="171.0" y="71.0" width="6.0" height="10.0" fill="#ff3f2f"/><rect x="177.0" y="71.0" width="6.0" height="10.0" fill="#ff3f2f"/><rect x="183.0" y="71.0" width="6.0" height="10.0" fill="#ff3f2f"/><rect x="195.0" y="71.0" width="6.0" height="10.0" fill="#ff3f2f"/><rect x="201.0" y="71.0" width="6.0" height="10.0" fill="#ff3f2f"/><rect x="201.0" y="81.0" width="6.0" height="10.0" fill="#ff3f2f"/><rect x="195.0" y="101.0" width="6.0" height="10.0" fill="#ff3f2f"/><rect x="189.0" y="101.0" width="6.0" height="10.0" fill="#ff3f2f"/><rect x="183.0" y="101.0" width="6.0" height="10.0" fill="#ff3f2f"/><rect x="159.0" y="101.0" width="6.0" height="10.0" fill="#ff3f2f"/><rect x="153.0" y="101.0" width="6.0" height="10.0" fill="#ff3f2f"/><rect x="147.0" y="101.0" width="6.0" height="10.0" fill="#ff3f2f"/><rect x="219.0" y="71.0" width="6.0" height="10.0" fill="#ffd966"/><rect x="237.0" y="71.0" width="6.0" height="10.0" fill="#ffd966"/><rect x="243.0" y="71.0" width="6.0" height="10.0" fill="#ffd966"/><rect x="249.0" y="71.0" width="6.0" height="10.0" fill="#ffd966"/><rect x="261.0" y="71.0" width="6.0" height="10.0" fill="#ffd966"/><rect x="261.0" y="81.0" width="6.0" height="10.0" fill="#ffd966"/><rect x="261.0" y="91.0" width="6.0" height="10.0" fill="#ffd966"/><rect x="261.0" y="101.0" width="6.0" height="10.0" fill="#ffd966"/><rect x="255.0" y="101.0" width="6.0" height="10.0" fill="#ffd966"/><rect x="237.0" y="101.0" width="6.0" height="10.0" fill="#ffd966"/><rect x="231.0" y="101.0" width="6.0" height="10.0" fill="#ffd966"/><rect x="225.0" y="101.0" width="6.0" height="10.0" fill="#ffd966"/><rect x="213.0" y="101.0" width="6.0" height="10.0" fill="#ffd966"/><rect x="207.0" y="91.0" width="6.0" height="10.0" fill="#ffd966"/><rect x="99.0" y="111.0" width="6.0" height="10.0" fill="#ffd966"/><rect x="111.0" y="111.0" width="6.0" height="10.0" fill="#ffd966"/><rect x="117.0" y="111.0" width="6.0" height="10.0" fill="#ffd966"/><rect x="123.0" y="111.0" width="6.0" height="10.0" fill="#ffd966"/><rect x="135.0" y="111.0" width="6.0" height="10.0" fill="#ffd966"/><rect x="141.0" y="121.0" width="6.0" height="10.0" fill="#ffd966"/><rect x="141.0" y="131.0" width="6.0" height="10.0" fill="#ffd966"/><rect x="141.0" y="141.0" width="6.0" height="10.0" fill="#ffd966"/><rect x="117.0" y="141.0" width="6.0" height="10.0" fill="#ffd966"/><rect x="111.0" y="141.0" width="6.0" height="10.0" fill="#ffd966"/><rect x="105.0" y="141.0" width="6.0" height="10.0" fill="#ffd966"/><rect x="93.0" y="141.0" width="6.0" height="10.0" fill="#ffd966"/><rect x="87.0" y="141.0" width="6.0" height="10.0" fill="#ffd966"/><rect x="87.0" y="121.0" width="6.0" height="10.0" fill="#ffd966"/><rect x="153.0" y="111.0" width="6.0" height="10.0" fill="#ffd966"/><rect x="177.0" y="111.0" width="6.0" height="10.0" fill="#ffd966"/><rect x="189.0" y="111.0" width="6.0" height="10.0" fill="#ffd966"/><rect x="195.0" y="111.0" width="6.0" height="10.0" fill="#ffd966"/><rect x="201.0" y="111.0" width="6.0" height="10.0" fill="#ffd966"/><rect x="201.0" y="121.0" width="6.0" height="10.0" fill="#ffd966"/><rect x="201.0" y="131.0" width="6.0" height="10.0" fill="#ffd966"/><rect x="201.0" y="141.0" width="6.0" height="10.0" fill="#ffd966"/><rect x="183.0" y="141.0" width="6.0" height="10.0" fill="#ffd966"/><rect x="159.0" y="141.0" width="6.0" height="10.0" fill="#ffd966"/><rect x="153.0" y="141.0" width="6.0" height="10.0" fill="#ffd966"/><rect x="147.0" y="131.0" width="6.0" height="10.0" fill="#ffd966"/><rect x="207.0" y="111.0" width="6.0" height="10.0" fill="#ffd966"/><rect x="249.0" y="111.0" width="6.0" height="10.0" fill="#ffd966"/><rect x="255.0" y="111.0" width="6.0" height="10.0" fill="#ffd966"/><rect x="261.0" y="111.0" width="6.0" height="10.0" fill="#ffd966"/><rect x="261.0" y="141.0" width="6.0" height="10.0" fill="#ffd966"/><rect x="255.0" y="141.0" width="6.0" height="10.0" fill="#ffd966"/><rect x="249.0" y="141.0" width="6.0" height="10.0" fill="#ffd966"/><rect x="231.0" y="141.0" width="6.0" height="10.0" fill="#ffd966"/><rect x="213.0" y="141.0" width="6.0" height="10.0" fill="#ffd966"/><rect x="207.0" y="131.0" width="6.0" height="10.0" fill="#ffd966"/><rect x="207.0" y="121.0" width="6.0" height="10.0" fill="#ffd966"/><rect x="27.0" y="151.0" width="6.0" height="10.0" fill="#ffd966"/><rect x="51.0" y="151.0" width="6.0" height="10.0" fill="#ffd966"/><rect x="57.0" y="151.0" width="6.0" height="10.0" fill="#ffd966"/><rect x="75.0" y="151.0" width="6.0" height="10.0" fill="#ffd966"/><rect x="81.0" y="161.0" width="6.0" height="10.0" fill="#ffd966"/><rect x="81.0" y="171.0" width="6.0" height="10.0" fill="#ffd966"/><rect x="81.0" y="181.0" width="6.0" height="10.0" fill="#ffd966"/><rect x="69.0" y="181.0" width="6.0" height="10.0" fill="#ffd966"/><rect x="63.0" y="181.0" width="6.0" height="10.0" fill="#ffd966"/><rect x="57.0" y="181.0" width="6.0" height="10.0" fill="#ffd966"/><rect x="45.0" y="181.0" width="6.0" height="10.0" fill="#ffd966"/><rect x="39.0" y="181.0" width="6.0" height="10.0" fill="#ffd966"/><rect x="27.0" y="181.0" width="6.0" height="10.0" fill="#ffd966"/><rect x="27.0" y="161.0" width="6.0" height="10.0" fill="#ffd966"/><rect x="195.0" y="151.0" width="6.0" height="10.0" fill="#000000"/><rect x="201.0" y="161.0" width="6.0" height="10.0" fill="#000000"/><rect x="201.0" y="181.0" width="6.0" height="10.0" fill="#000000"/><rect x="189.0" y="181.0" width="6.0" height="10.0" fill="#000000"/><rect x="177.0" y="181.0" width="6.0" height="10.0" fill="#000000"/><rect x="165.0" y="181.0" width="6.0" height="10.0" fill="#000000"/><rect x="153.0" y="181.0" width="6.0" height="10.0" fill="#000000"/><rect x="147.0" y="181.0" width="6.0" height="10.0" fill="#000000"/><rect x="147.0" y="171.0" width="6.0" height="10.0" fill="#000000"/><rect x="207.0" y="151.0" width="6.0" height="10.0" fill="#ffd966"/><rect x="213.0" y="151.0" width="6.0" height="10.0" fill="#ffd966"/><rect x="219.0" y="151.0" width="6.0" height="10.0" fill="#ffd966"/><rect x="261.0" y="161.0" width="6.0" height="10.0" fill="#ffd966"/><rect x="261.0" y="171.0" width="6.0" height="10.0" fill="#ffd966"/><rect x="261.0" y="181.0" width="6.0" height="10.0" fill="#ffd966"/><rect x="255.0" y="181.0" width="6.0" height="10.0" fill="#ffd966"/><rect x="249.0" y="181.0" width="6.0" height="10.0" fill="#ffd966"/><rect x="243.0" y="181.0" width="6.0" height="10.0" fill="#ffd966"/><rect x="219.0" y="181.0" width="6.0" height="10.0" fill="#ffd966"/><rect x="213.0" y="181.0" width="6.0" height="10.0" fill="#ffd966"/><rect x="207.0" y="171.0" width="6.0" height="10.0" fill="#ffd966"/><rect x="63.0" y="191.0" width="6.0" height="10.0" fill="#2f3fbf"/><rect x="69.0" y="191.0" width="6.0" height="10.0" fill="#2f3fbf"/><rect x="81.0" y="221.0" width="6.0" height="10.0" fill="#2f3fbf"/><rect x="75.0" y="221.0" width="6.0" height="10.0" fill="#2f3fbf"/><rect x="45.0" y="221.0" width="6.0" height="10.0" fill="#2f3fbf"/><rect x="27.0" y="211.0" width="6.0" height="10.0" fill="#2f3fbf"/><rect x="87.0" y="191.0" width="6.0" height="10.0" fill="#000000"/><rect x="93.0" y="191.0" width="6.0" height="10.0" fill="#000000"/><rect x="99.0" y="191.0" width="6.0" height="10.0" fill="#000000"/><rect x="105.0" y="191.0" width="6.0" height="10.0" fill="#000000"/><rect x="111.0" y="191.0" width="6.0" height="10.0" fill="#000000"/><rect x="129.0" y="191.0" width="6.0" height="10.0" fill="#000000"/><rect x="141.0" y="221.0" width="6.0" height="10.0" fill="#000000"/><rect x="135.0" y="221.0" width="6.0" height="10.0" fill="#000000"/><rect x="117.0" y="221.0" width="6.0" height="10.0" fill="#000000"/><rect x="111.0" y="221.0" width="6.0" height="10.0" fill="#000000"/><rect x="99.0" y="221.0" width="6.0" height="10.0" fill="#000000"/><rect x="87.0" y="221.0" width="6.0" height="10.0" fill="#000000"/><rect x="153.0" y="191.0" width="6.0" height="10.0" fill="#ffd966"/><rect x="171.0" y="191.0" width="6.0" height="10.0" fill="#ffd966"/><rect x="177.0" y="191.0" width="6.0" height="10.0" fill="#ffd966"/><rect x="183.0" y="191.0" width="6.0" height="10.0" fill="#ffd966"/><rect x="195.0" y="191.0" width="6.0" height="10.0" fill="#ffd966"/><rect x="201.0" y="191.0" width="6.0" height="10.0" fill="#ffd966"/><rect x="201.0" y="201.0" width="6.0" height="10.0" fill="#ffd966"/><rect x="201.0" y="211.0" width="6.0" height="10.0" fill="#ffd966"/><rect x="195.0" y="221.0" width="6.0" height="10.0" fill="#ffd966"/><rect x="189.0" y="221.0" width="6.0" height="10.0" fill="#ffd966"/><rect x="183.0" y="221.0" width="6.0" height="10.0" fill="#ffd966"/><rect x="177.0" y="221.0" width="6.0" height="10.0" fill="#ffd966"/><rect x="159.0" y="221.0" width="6.0" height="10.0" fill="#ffd966"/><rect x="147.0" y="221.0" width="6.0" height="10.0" fill="#ffd966"/><rect x="147.0" y="201.0" width="6.0" height="10.0" fill="#ffd966"/><rect x="213.0" y="191.0" width="6.0" height="10.0" fill="#2f3fbf"/><rect x="231.0" y="191.0" width="6.0" height="10.0" fill="#2f3fbf"/><rect x="243.0" y="191.0" width="6.0" height="10.0" fill="#2f3fbf"/><rect x="261.0" y="211.0" width="6.0" height="10.0" fill="#2f3fbf"/><rect x="255.0" y="221.0" width="6.0" height="10.0" fill="#2f3fbf"/><rect x="249.0" y="221.0" width="6.0" height="10.0" fill="#2f3fbf"/><rect x="243.0" y="221.0" width="6.0" height="10.0" fill="#2f3fbf"/><rect x="231.0" y="221.0" width="6.0" height="10.0" fill="#2f3fbf"/><rect x="213.0" y="221.0" width="6.0" height="10.0" fill="#2f3fbf"/><rect x="207.0" y="211.0" width="6.0" height="10.0" fill="#2f3fbf"/><rect x="39.0" y="231.0" width="6.0" height="10.0" fill="#ff3f2f"/><rect x="45.0" y="231.0" width="6.0" height="10.0" fill="#ff3f2f"/><rect x="51.0" y="231.0" width="6.0" height="10.0" fill="#ff3f2f"/><rect x="81.0" y="231.0" width="6.0" height="10.0" fill="#ff3f2f"/><rect x="81.0" y="241.0" width="6.0" height="10.0" fill="#ff3f2f"/><rect x="81.0" y="251.0" width="6.0" height="10.0" fill="#ff3f2f"/><rect x="81.0" y="261.0" width="6.0" height="10.0" fill="#ff3f2f"/><rect x="75.0" y="261.0" width="6.0" height="10.0" fill="#ff3f2f"/><rect x="69.0" y="261.0" width="6.0" height="10.0" fill="#ff3f2f"/><rect x="57.0" y="261.0" width="6.0" height="10.0" fill="#ff3f2f"/><rect x="45.0" y="261.0" width="6.0" height="10.0" fill="#ff3f2f"/><rect x="33.0" y="261.0" width="6.0" height="10.0" fill="#ff3f2f"/><rect x="27.0" y="261.0" width="6.0" height="10.0" fill="#ff3f2f"/><rect x="27.0" y="251.0" width="6.0" height="10.0" fill="#ff3f2f"/><rect x="27.0" y="241.0" width="6.0" height="10.0" fill="#ff3f2f"/><rect x="87.0" y="231.0" width="6.0" height="10.0" fill="#ffd966"/><rect x="93.0" y="231.0" width="6.0" height="10.0" fill="#ffd966"/><rect x="99.0" y="231.0" width="6.0" height="10.0" fill="#ffd966"/><rect x="105.0" y="231.0" width="6.0" height="10.0" fill="#ffd966"/><rect x="111.0" y="231.0" width="6.0" height="10.0" fill="#ffd966"/><rect x="135.0" y="231.0" width="6.0" height="10.0" fill="#ffd966"/><rect x="141.0" y="231.0" width="6.0" height="10.0" fill="#ffd966"/><rect x="141.0" y="251.0" width="6.0" height="10.0" fill="#ffd966"/><rect x="135.0" y="261.0" width="6.0" height="10.0" fill="#ffd966"/><rect x="117.0" y="261.0" width="6.0" height="10.0" fill="#ffd966"/><rect x="111.0" y="261.0" width="6.0" height="10.0" fill="#ffd966"/><rect x="93.0" y="261.0" width="6.0" height="10.0" fill="#ffd966"/></g><g clip-path="url(#grid-clip-c479c3873cc56621-4x6)" data-channel="ellipse" data-ellipse-anchor-x="147.0" data-ellipse-anchor-y="191.0" data-ellipse-rx="63.199999999999996" data-ellipse-ry="44.0" data-ellipse-rotation-deg="48.0"><ellipse cx="147.0" cy="191.0" rx="63.199999999999996" ry="44.0" transform="rotate(48.0 147.0 191.0)" fill="#000000" fill-opacity="0.2"/></g><g><g data-channel="cell" data-cell-index="0" data-cell-row="0" data-cell-col="0" data-cell-quartile="2"><rect x="33.0" y="41.0" width="48.0" height="20.0" fill="#452301"/><text x="57.0" y="51.0" fill="#ffffff" style="font-family: &quot;JetBrains Mono&quot;, &quot;Menlo&quot;, &quot;Consolas&quot;, &quot;DejaVu Sans Mono&quot;, &quot;Liberation Mono&quot;, &quot;Roboto Mono&quot;, &quot;Noto Sans Mono&quot;, monospace; font-size: 12.0px;" text-anchor="middle" dominant-baseline="central">012345</text><polygon points="81.0,41.0 71.0,41.0 81.0,51.0" fill="#ffffff"/></g><g data-channel="cell" data-cell-index="1" data-cell-row="0" data-cell-col="1"><rect x="93.0" y="41.0" width="48.0" height="20.0" fill="#ab8967"/><text x="117.0" y="51.0" fill="#000000" style="font-family: &quot;JetBrains Mono&quot;, &quot;Menlo&quot;, &quot;Consolas&quot;, &quot;DejaVu Sans Mono&quot;, &quot;Liberation Mono&quot;, &quot;Roboto Mono&quot;, &quot;Noto Sans Mono&quot;, monospace; font-size: 12.0px;" text-anchor="middle" dominant-baseline="central">6789ab</text></g><g data-channel="cell" data-cell-index="2" data-cell-row="0" data-cell-col="2"><rect x="153.0" y="41.0" width="48.0" height="20.0" fill="#01efcd"/><text x="177.0" y="51.0" fill="#000000" style="font-family: &quot;JetBrains Mono&quot;, &quot;Menlo&quot;, &quot;Consolas&quot;, &quot;DejaVu Sans Mono&quot;, &quot;Liberation Mono&quot;, &quot;Roboto Mono&quot;, &quot;Noto Sans Mono&quot;, monospace; font-size: 12.0px;" text-anchor="middle" dominant-baseline="central">cdef01</text></g><g data-channel="cell" data-cell-index="3" data-cell-row="0" data-cell-col="3"><rect x="213.0" y="41.0" width="48.0" height="20.0" fill="#674523"/><text x="237.0" y="51.0" fill="#ffffff" style="font-family: &quot;JetBrains Mono&quot;, &quot;Menlo&quot;, &quot;Consolas&quot;, &quot;DejaVu Sans Mono&quot;, &quot;Liberation Mono&quot;, &quot;Roboto Mono&quot;, &quot;Noto Sans Mono&quot;, monospace; font-size: 12.0px;" text-anchor="middle" dominant-baseline="central">234567</text></g><g data-channel="cell" data-cell-index="4" data-cell-row="1" data-cell-col="0"><rect x="33.0" y="81.0" width="48.0" height="20.0" fill="#cdab89"/><text x="57.0" y="91.0" fill="#000000" style="font-family: &quot;JetBrains Mono&quot;, &quot;Menlo&quot;, &quot;Consolas&quot;, &quot;DejaVu Sans Mono&quot;, &quot;Liberation Mono&quot;, &quot;Roboto Mono&quot;, &quot;Noto Sans Mono&quot;, monospace; font-size: 12.0px;" text-anchor="middle" dominant-baseline="central">89abcd</text></g><g data-channel="cell" data-cell-index="5" data-cell-row="1" data-cell-col="1" data-cell-quartile="3"><rect x="93.0" y="81.0" width="48.0" height="20.0" fill="#2301ef"/><text x="117.0" y="91.0" fill="#ffffff" style="font-family: &quot;JetBrains Mono&quot;, &quot;Menlo&quot;, &quot;Consolas&quot;, &quot;DejaVu Sans Mono&quot;, &quot;Liberation Mono&quot;, &quot;Roboto Mono&quot;, &quot;Noto Sans Mono&quot;, monospace; font-size: 12.0px;" text-anchor="middle" dominant-baseline="central">ef0123</text><polygon points="141.0,101.0 141.0,91.0 131.0,101.0" fill="#ffffff"/></g><g data-channel="cell" data-cell-index="6" data-cell-row="1" data-cell-col="2"><rect x="153.0" y="81.0" width="48.0" height="20.0" fill="#896745"/><text x="177.0" y="91.0" fill="#ffffff" style="font-family: &quot;JetBrains Mono&quot;, &quot;Menlo&quot;, &quot;Consolas&quot;, &quot;DejaVu Sans Mono&quot;, &quot;Liberation Mono&quot;, &quot;Roboto Mono&quot;, &quot;Noto Sans Mono&quot;, monospace; font-size: 12.0px;" text-anchor="middle" dominant-baseline="central">456789</text></g><g data-channel="cell" data-cell-index="7" data-cell-row="1" data-cell-col="3"><rect x="213.0" y="81.0" width="48.0" height="20.0" fill="#efcdab"/><text x="237.0" y="91.0" fill="#000000" style="font-family: &quot;JetBrains Mono&quot;, &quot;Menlo&quot;, &quot;Consolas&quot;, &quot;DejaVu Sans Mono&quot;, &quot;Liberation Mono&quot;, &quot;Roboto Mono&quot;, &quot;Noto Sans Mono&quot;, monospace; font-size: 12.0px;" text-anchor="middle" dominant-baseline="central">abcdef</text></g><g data-channel="cell" data-cell-index="8" data-cell-row="2" data-cell-col="0" data-cell-blank="true" data-cell-blank-map="true"><rect x="33.0" y="121.0" width="48.0" height="20.0" rx="10.0" ry="10.0" fill="#ffd966" stroke="#000000" stroke-width="1"/><circle cx="39.0" cy="139.33333333333334" r="2.5" fill="#d62828" data-blank-map-max="true"/><circle cx="51.0" cy="139.33333333333334" r="2.5" fill="#1d4ed8" data-blank-map-min="true"/></g><g data-channel="cell" data-cell-index="9" data-cell-row="2" data-cell-col="1" data-cell-quartile="1"><rect x="93.0" y="121.0" width="48.0" height="20.0" fill="#ffffff"/><rect x="93.5" y="121.5" width="47.0" height="19.0" fill="none" stroke="#ffd966" stroke-width="1"/><text x="117.0" y="131.0" fill="#000000" style="font-family: &quot;JetBrains Mono&quot;, &quot;Menlo&quot;, &quot;Consolas&quot;, &quot;DejaVu Sans Mono&quot;, &quot;Liberation Mono&quot;, &quot;Roboto Mono&quot;, &quot;Noto Sans Mono&quot;, monospace; font-size: 12.0px;" text-anchor="middle" dominant-baseline="central">b71d74</text><polygon points="93.0,121.0 103.0,121.0 93.0,131.0" fill="#ffffff"/></g><g data-channel="cell" data-cell-index="10" data-cell-row="2" data-cell-col="2" data-cell-quartile="4"><rect x="153.0" y="121.0" width="48.0" height="20.0" fill="#ffffff"/><rect x="153.5" y="121.5" width="47.0" height="19.0" fill="none" stroke="#ffd966" stroke-width="1"/><text x="177.0" y="131.0" fill="#000000" style="font-family: &quot;JetBrains Mono&quot;, &quot;Menlo&quot;, &quot;Consolas&quot;, &quot;DejaVu Sans Mono&quot;, &quot;Liberation Mono&quot;, &quot;Roboto Mono&quot;, &quot;Noto Sans Mono&quot;, monospace; font-size: 12.0px;" text-anchor="middle" dominant-baseline="central">589fa2</text><polygon points="153.0,141.0 153.0,131.0 163.0,141.0" fill="#000000"/></g><g data-channel="cell" data-cell-index="11" data-cell-row="2" data-cell-col="3"><rect x="213.0" y="121.0" width="48.0" height="20.0" fill="#ffffff"/><rect x="213.5" y="121.5" width="47.0" height="19.0" fill="none" stroke="#ffd966" stroke-width="1"/><text x="237.0" y="131.0" fill="#000000" style="font-family: &quot;JetBrains Mono&quot;, &quot;Menlo&quot;, &quot;Consolas&quot;, &quot;DejaVu Sans Mono&quot;, &quot;Liberation Mono&quot;, &quot;Roboto Mono&quot;, &quot;Noto Sans Mono&quot;, monospace; font-size: 12.0px;" text-anchor="middle" dominant-baseline="central">d27381</text></g><g data-channel="cell" data-cell-index="12" data-cell-row="3" data-cell-col="0"><rect x="33.0" y="161.0" width="48.0" height="20.0" fill="#ffffff"/><rect x="33.5" y="161.5" width="47.0" height="19.0" fill="none" stroke="#ffd966" stroke-width="1"/><text x="57.0" y="171.0" fill="#000000" style="font-family: &quot;JetBrains Mono&quot;, &quot;Menlo&quot;, &quot;Consolas&quot;, &quot;DejaVu Sans Mono&quot;, &quot;Liberation Mono&quot;, &quot;Roboto Mono&quot;, &quot;Noto Sans Mono&quot;, monospace; font-size: 12.0px;" text-anchor="middle" dominant-baseline="central">addd31</text></g><g data-channel="cell" data-cell-index="13" data-cell-row="3" data-cell-col="1" data-cell-blank="true"><rect x="93.0" y="161.0" width="48.0" height="20.0" rx="10.0" ry="10.0" fill="none" stroke="#000000" stroke-width="1"/></g><g data-channel="cell" data-cell-index="14" data-cell-row="3" data-cell-col="2"><rect x="153.0" y="161.0" width="48.0" height="20.0" fill="#452301"/><text x="177.0" y="171.0" fill="#ffffff" style="font-family: &quot;JetBrains Mono&quot;, &quot;Menlo&quot;, &quot;Consolas&quot;, &quot;DejaVu Sans Mono&quot;, &quot;Liberation Mono&quot;, &quot;Roboto Mono&quot;, &quot;Noto Sans Mono&quot;, monospace; font-size: 12.0px;" text-anchor="middle" dominant-baseline="central">012345</text></g><g data-channel="cell" data-cell-index="15" data-cell-row="3" data-cell-col="3"><rect x="213.0" y="161.0" width="48.0" height="20.0" fill="#ab8967"/><text x="237.0" y="171.0" fill="#000000" style="font-family: &quot;JetBrains Mono&quot;, &quot;Menlo&quot;, &quot;Consolas&quot;, &quot;DejaVu Sans Mono&quot;, &quot;Liberation Mono&quot;, &quot;Roboto Mono&quot;, &quot;Noto Sans Mono&quot;, monospace; font-size: 12.0px;" text-anchor="middle" dominant-baseline="central">6789ab</text></g><g data-channel="cell" data-cell-index="16" data-cell-row="4" data-cell-col="0"><rect x="33.0" y="201.0" width="48.0" height="20.0" fill="#01efcd"/><text x="57.0" y="211.0" fill="#000000" style="font-family: &quot;JetBrains Mono&quot;, &quot;Menlo&quot;, &quot;Consolas&quot;, &quot;DejaVu Sans Mono&quot;, &quot;Liberation Mono&quot;, &quot;Roboto Mono&quot;, &quot;Noto Sans Mono&quot;, monospace; font-size: 12.0px;" text-anchor="middle" dominant-baseline="central">cdef01</text></g><g data-channel="cell" data-cell-index="17" data-cell-row="4" data-cell-col="1"><rect x="93.0" y="201.0" width="48.0" height="20.0" fill="#674523"/><text x="117.0" y="211.0" fill="#ffffff" style="font-family: &quot;JetBrains Mono&quot;, &quot;Menlo&quot;, &quot;Consolas&quot;, &quot;DejaVu Sans Mono&quot;, &quot;Liberation Mono&quot;, &quot;Roboto Mono&quot;, &quot;Noto Sans Mono&quot;, monospace; font-size: 12.0px;" text-anchor="middle" dominant-baseline="central">234567</text></g><g data-channel="cell" data-cell-index="18" data-cell-row="4" data-cell-col="2"><rect x="153.0" y="201.0" width="48.0" height="20.0" fill="#cdab89"/><text x="177.0" y="211.0" fill="#000000" style="font-family: &quot;JetBrains Mono&quot;, &quot;Menlo&quot;, &quot;Consolas&quot;, &quot;DejaVu Sans Mono&quot;, &quot;Liberation Mono&quot;, &quot;Roboto Mono&quot;, &quot;Noto Sans Mono&quot;, monospace; font-size: 12.0px;" text-anchor="middle" dominant-baseline="central">89abcd</text></g><g data-channel="cell" data-cell-index="19" data-cell-row="4" data-cell-col="3"><rect x="213.0" y="201.0" width="48.0" height="20.0" fill="#2301ef"/><text x="237.0" y="211.0" fill="#ffffff" style="font-family: &quot;JetBrains Mono&quot;, &quot;Menlo&quot;, &quot;Consolas&quot;, &quot;DejaVu Sans Mono&quot;, &quot;Liberation Mono&quot;, &quot;Roboto Mono&quot;, &quot;Noto Sans Mono&quot;, monospace; font-size: 12.0px;" text-anchor="middle" dominant-baseline="central">ef0123</text></g><g data-channel="cell" data-cell-index="20" data-cell-row="5" data-cell-col="0"><rect x="33.0" y="241.0" width="48.0" height="20.0" fill="#896745"/><text x="57.0" y="251.0" fill="#ffffff" style="font-family: &quot;JetBrains Mono&quot;, &quot;Menlo&quot;, &quot;Consolas&quot;, &quot;DejaVu Sans Mono&quot;, &quot;Liberation Mono&quot;, &quot;Roboto Mono&quot;, &quot;Noto Sans Mono&quot;, monospace; font-size: 12.0px;" text-anchor="middle" dominant-baseline="central">456789</text></g><g data-channel="cell" data-cell-index="21" data-cell-row="5" data-cell-col="1"><rect x="93.0" y="241.0" width="48.0" height="20.0" fill="#efcdab"/><text x="117.0" y="251.0" fill="#000000" style="font-family: &quot;JetBrains Mono&quot;, &quot;Menlo&quot;, &quot;Consolas&quot;, &quot;DejaVu Sans Mono&quot;, &quot;Liberation Mono&quot;, &quot;Roboto Mono&quot;, &quot;Noto Sans Mono&quot;, monospace; font-size: 12.0px;" text-anchor="middle" dominant-baseline="central">abcdef</text></g><g data-channel="cell" data-cell-index="22" data-cell-row="5" data-cell-col="2" data-cell-blank="true"><rect x="153.0" y="241.0" width="48.0" height="20.0" rx="10.0" ry="10.0" fill="none" stroke="#000000" stroke-width="1"/></g><g data-channel="cell" data-cell-index="23" data-cell-row="5" data-cell-col="3" data-cell-blank="true"><rect x="213.0" y="241.0" width="48.0" height="20.0" rx="10.0" ry="10.0" fill="none" stroke="#000000" stroke-width="1"/></g></g></g><g data-channel="color-bar"><g data-color-bar-rank="0" data-color-bar-band="R"><rect x="1" y="1" width="20.0" height="116.12787429702854" fill="#ff3f2f"/><text x="11.0" y="114.48787429702854" fill="#000000" style="font-family: &quot;JetBrains Mono&quot;, &quot;Menlo&quot;, &quot;Consolas&quot;, &quot;DejaVu Sans Mono&quot;, &quot;Liberation Mono&quot;, &quot;Roboto Mono&quot;, &quot;Noto Sans Mono&quot;, monospace; font-size: 12.0px;" text-anchor="middle" data-color-bar-letter="true">r</text></g><g data-color-bar-rank="1" data-color-bar-band="G"><rect x="1" y="117.12787429702854" width="20.0" height="88.45359777624182" fill="#ffd966"/><text x="11.0" y="202.94147207327038" fill="#000000" style="font-family: &quot;JetBrains Mono&quot;, &quot;Menlo&quot;, &quot;Consolas&quot;, &quot;DejaVu Sans Mono&quot;, &quot;Liberation Mono&quot;, &quot;Roboto Mono&quot;, &quot;Noto Sans Mono&quot;, monospace; font-size: 12.0px;" text-anchor="middle" data-color-bar-letter="true">g</text></g><g data-color-bar-rank="2" data-color-bar-band="K"><rect x="1" y="205.58147207327036" width="20.0" height="54.83329009516624" fill="#000000"/><text x="11.0" y="257.7747621684366" fill="#ffffff" style="font-family: &quot;JetBrains Mono&quot;, &quot;Menlo&quot;, &quot;Consolas&quot;, &quot;DejaVu Sans Mono&quot;, &quot;Liberation Mono&quot;, &quot;Roboto Mono&quot;, &quot;Noto Sans Mono&quot;, monospace; font-size: 12.0px;" text-anchor="middle" data-color-bar-letter="true">k</text></g><g data-color-bar-rank="3" data-color-bar-band="B"><rect x="1" y="260.4147621684366" width="20.0" height="15.585237831563404" fill="#2f3fbf"/><text x="11.0" y="273.36" fill="#ffffff" style="font-family: &quot;JetBrains Mono&quot;, &quot;Menlo&quot;, &quot;Consolas&quot;, &quot;DejaVu Sans Mono&quot;, &quot;Liberation Mono&quot;, &quot;Roboto Mono&quot;, &quot;Noto Sans Mono&quot;, monospace; font-size: 12.0px;" text-anchor="middle" data-color-bar-letter="true">b</text></g></g><g data-channel="label-top"><text x="27.0" y="16.0" fill="#666666" style="font-family: &quot;JetBrains Mono&quot;, &quot;Menlo&quot;, &quot;Consolas&quot;, &quot;DejaVu Sans Mono&quot;, &quot;Liberation Mono&quot;, &quot;Roboto Mono&quot;, &quot;Noto Sans Mono&quot;, monospace; font-size: 12.0px;" dominant-baseline="central"><tspan fill="#a00000" font-weight="bold">fingerprint of </tspan>hex(256):</text></g><line x1="0" y1="0.5" x2="273.0" y2="0.5" stroke="#808080" stroke-width="1" shape-rendering="crispEdges"/><line x1="272.5" y1="0" x2="272.5" y2="277.0" stroke="#808080" stroke-width="1" shape-rendering="crispEdges"/><line x1="0" y1="276.5" x2="273.0" y2="276.5" stroke="#808080" stroke-width="1" shape-rendering="crispEdges"/><line x1="0.5" y1="0" x2="0.5" y2="277.0" stroke="#808080" stroke-width="1" shape-rendering="crispEdges"/><line x1="21.5" y1="0" x2="21.5" y2="277.0" stroke="#808080" stroke-width="1" shape-rendering="crispEdges"/></svg>