<svg width="143.0" height="277.0" viewBox="0 0 143.0 277.0" xmlns="http://www.w3.org/2000/svg" data-entviz-version="v5" data-entviz-lib="0.5.0" data-input-bytes="64" data-cols="2" data-rows="6"><defs><clipPath id="grid-clip-8ed0861e43294df7-2x6"><rect x="17.0" y="31.0" width="120.0" height="240.0"/></clipPath></defs><rect x="0" y="0" width="143.0" height="277.0" fill="#ffffff"/><g data-channel="grid"><rect x="17.0" y="31.0" width="120.0" height="240.0" fill="#2f3fbf"/><g><rect x="23.0" y="31.0" width="6.0" height="10.0" fill="#ffffff"/><rect x="29.0" y="31.0" width="6.0" height="10.0" fill="#ffffff"/><rect x="59.0" y="31.0" width="6.0" height="10.0" fill="#ffffff"/><rect x="71.0" y="61.0" width="6.0" height="10.0" fill="#ffffff"/><rect x="59.0" y="61.0" width="6.0" height="10.0" fill="#ffffff"/><rect x="53.0" y="61.0" width="6.0" height="10.0" fill="#ffffff"/><rect x="41.0" y="61.0" width="6.0" height="10.0" fill="#ffffff"/><rect x="35.0" y="61.0" width="6.0" height="10.0" fill="#ffffff"/><rect x="29.0" y="61.0" width="6.0" height="10.0" fill="#ffffff"/><rect x="17.0" y="41.0" width="6.0" height="10.0" fill="#ffffff"/><rect x="77.0" y="31.0" width="6.0" height="10.0" fill="#ffffff"/><rect x="95.0" y="31.0" width="6.0" height="10.0" fill="#ffffff"/><rect x="107.0" y="31.0" width="6.0" height="10.0" fill="#ffffff"/><rect x="125.0" y="31.0" width="6.0" height="10.0" fill="#ffffff"/><rect x="131.0" y="31.0" width="6.0" height="10.0" fill="#ffffff"/><rect x="119.0" y="61.0" width="6.0" height="10.0" fill="#ffffff"/><rect x="101.0" y="61.0" width="6.0" height="10.0" fill="#ffffff"/><rect x="95.0" y="61.0" width="6.0" height="10.0" fill="#ffffff"/><rect x="89.0" y="61.0" width="6.0" height="10.0" fill="#ffffff"/><rect x="83.0" y="61.0" width="6.0" height="10.0" fill="#ffffff"/><rect x="17.0" y="71.0" width="6.0" height="10.0" fill="#ffd966"/><rect x="47.0" y="71.0" width="6.0" height="10.0" fill="#ffd966"/><rect x="53.0" y="71.0" width="6.0" height="10.0" fill="#ffd966"/><rect x="65.0" y="71.0" width="6.0" height="10.0" fill="#ffd966"/><rect x="71.0" y="71.0" width="6.0" height="10.0" fill="#ffd966"/><rect x="71.0" y="81.0" width="6.0" height="10.0" fill="#ffd966"/><rect x="71.0" y="101.0" width="6.0" height="10.0" fill="#ffd966"/><rect x="65.0" y="101.0" width="6.0" height="10.0" fill="#ffd966"/><rect x="59.0" y="101.0" width="6.0" height="10.0" fill="#ffd966"/><rect x="53.0" y="101.0" width="6.0" height="10.0" fill="#ffd966"/><rect x="47.0" y="101.0" width="6.0" height="10.0" fill="#ffd966"/><rect x="35.0" y="101.0" width="6.0" height="10.0" fill="#ffd966"/><rect x="29.0" y="101.0" width="6.0" height="10.0" fill="#ffd966"/><rect x="17.0" y="91.0" width="6.0" height="10.0" fill="#ffd966"/><rect x="77.0" y="71.0" width="6.0" height="10.0" fill="#ff3f2f"/><rect x="83.0" y="71.0" width="6.0" height="10.0" fill="#ff3f2f"/><rect x="89.0" y="71.0" width="6.0" height="10.0" fill="#ff3f2f"/><rect x="107.0" y="71.0" width="6.0" height="10.0" fill="#ff3f2f"/><rect x="131.0" y="91.0" width="6.0" height="10.0" fill="#ff3f2f"/><rect x="113.0" y="101.0" width="6.0" height="10.0" fill="#ff3f2f"/><rect x="107.0" y="101.0" width="6.0" height="10.0" fill="#ff3f2f"/><rect x="95.0" y="101.0" width="6.0" height="10.0" fill="#ff3f2f"/><rect x="83.0" y="101.0" width="6.0" height="10.0" fill="#ff3f2f"/><rect x="77.0" y="101.0" width="6.0" height="10.0" fill="#ff3f2f"/><rect x="77.0" y="91.0" width="6.0" height="10.0" fill="#ff3f2f"/><rect x="17.0" y="111.0" width="6.0" height="10.0" fill="#ffd966"/><rect x="35.0" y="111.0" width="6.0" height="10.0" fill="#ffd966"/><rect x="47.0" y="111.0" width="6.0" height="10.0" fill="#ffd966"/><rect x="53.0" y="111.0" width="6.0" height="10.0" fill="#ffd966"/><rect x="59.0" y="111.0" width="6.0" height="10.0" fill="#ffd966"/><rect x="65.0" y="111.0" width="6.0" height="10.0" fill="#ffd966"/><rect x="71.0" y="131.0" width="6.0" height="10.0" fill="#ffd966"/><rect x="65.0" y="141.0" width="6.0" height="10.0" fill="#ffd966"/><rect x="53.0" y="141.0" width="6.0" height="10.0" fill="#ffd966"/><rect x="29.0" y="141.0" width="6.0" height="10.0" fill="#ffd966"/><rect x="23.0" y="141.0" width="6.0" height="10.0" fill="#ffd966"/><rect x="17.0" y="131.0" width="6.0" height="10.0" fill="#ffd966"/><rect x="17.0" y="121.0" width="6.0" height="10.0" fill="#ffd966"/><rect x="89.0" y="111.0" width="6.0" height="10.0" fill="#ff3f2f"/><rect x="107.0" y="111.0" width="6.0" height="10.0" fill="#ff3f2f"/><rect x="113.0" y="111.0" width="6.0" height="10.0" fill="#ff3f2f"/><rect x="131.0" y="111.0" width="6.0" height="10.0" fill="#ff3f2f"/><rect x="131.0" y="121.0" width="6.0" height="10.0" fill="#ff3f2f"/><rect x="113.0" y="141.0" width="6.0" height="10.0" fill="#ff3f2f"/><rect x="101.0" y="141.0" width="6.0" height="10.0" fill="#ff3f2f"/><rect x="89.0" y="141.0" width="6.0" height="10.0" fill="#ff3f2f"/><rect x="77.0" y="131.0" width="6.0" height="10.0" fill="#ff3f2f"/><rect x="77.0" y="121.0" width="6.0" height="10.0" fill="#ff3f2f"/><rect x="59.0" y="151.0" width="6.0" height="10.0" fill="#ffffff"/><rect x="65.0" y="151.0" width="6.0" height="10.0" fill="#ffffff"/><rect x="71.0" y="161.0" width="6.0" height="10.0" fill="#ffffff"/><rect x="71.0" y="181.0" width="6.0" height="10.0" fill="#ffffff"/><rect x="65.0" y="181.0" width="6.0" height="10.0" fill="#ffffff"/><rect x="59.0" y="181.0" width="6.0" height="10.0" fill="#ffffff"/><rect x="53.0" y="181.0" width="6.0" height="10.0" fill="#ffffff"/><rect x="47.0" y="181.0" width="6.0" height="10.0" fill="#ffffff"/><rect x="35.0" y="181.0" width="6.0" height="10.0" fill="#ffffff"/><rect x="29.0" y="181.0" width="6.0" height="10.0" fill="#ffffff"/><rect x="17.0" y="181.0" width="6.0" height="10.0" fill="#ffffff"/><rect x="107.0" y="151.0" width="6.0" height="10.0" fill="#000000"/><rect x="131.0" y="161.0" width="6.0" height="10.0" fill="#000000"/><rect x="119.0" y="181.0" width="6.0" height="10.0" fill="#000000"/><rect x="113.0" y="181.0" width="6.0" height="10.0" fill="#000000"/><rect x="107.0" y="181.0" width="6.0" height="10.0" fill="#000000"/><rect x="95.0" y="181.0" width="6.0" height="10.0" fill="#000000"/><rect x="83.0" y="181.0" width="6.0" height="10.0" fill="#000000"/><rect x="77.0" y="181.0" width="6.0" height="10.0" fill="#000000"/><rect x="77.0" y="171.0" width="6.0" height="10.0" fill="#000000"/><rect x="77.0" y="161.0" width="6.0" height="10.0" fill="#000000"/><rect x="77.0" y="191.0" width="6.0" height="10.0" fill="#000000"/><rect x="83.0" y="191.0" width="6.0" height="10.0" fill="#000000"/><rect x="95.0" y="191.0" width="6.0" height="10.0" fill="#000000"/><rect x="101.0" y="191.0" width="6.0" height="10.0" fill="#000000"/><rect x="107.0" y="191.0" width="6.0" height="10.0" fill="#000000"/><rect x="113.0" y="191.0" width="6.0" height="10.0" fill="#000000"/><rect x="119.0" y="191.0" width="6.0" height="10.0" fill="#000000"/><rect x="131.0" y="191.0" width="6.0" height="10.0" fill="#000000"/><rect x="131.0" y="201.0" width="6.0" height="10.0" fill="#000000"/><rect x="131.0" y="211.0" width="6.0" height="10.0" fill="#000000"/><rect x="107.0" y="221.0" width="6.0" height="10.0" fill="#000000"/><rect x="95.0" y="221.0" width="6.0" height="10.0" fill="#000000"/><rect x="89.0" y="221.0" width="6.0" height="10.0" fill="#000000"/><rect x="83.0" y="221.0" width="6.0" height="10.0" fill="#000000"/><rect x="77.0" y="211.0" width="6.0" height="10.0" fill="#000000"/><rect x="23.0" y="231.0" width="6.0" height="10.0" fill="#ffd966"/><rect x="29.0" y="231.0" width="6.0" height="10.0" fill="#ffd966"/><rect x="35.0" y="231.0" width="6.0" height="10.0" fill="#ffd966"/><rect x="41.0" y="231.0" width="6.0" height="10.0" fill="#ffd966"/><rect x="47.0" y="231.0" width="6.0" height="10.0" fill="#ffd966"/><rect x="53.0" y="231.0" width="6.0" height="10.0" fill="#ffd966"/><rect x="65.0" y="231.0" width="6.0" height="10.0" fill="#ffd966"/><rect x="71.0" y="231.0" width="6.0" height="10.0" fill="#ffd966"/><rect x="71.0" y="241.0" width="6.0" height="10.0" fill="#ffd966"/><rect x="71.0" y="251.0" width="6.0" height="10.0" fill="#ffd966"/><rect x="41.0" y="261.0" width="6.0" height="10.0" fill="#ffd966"/><rect x="23.0" y="261.0" width="6.0" height="10.0" fill="#ffd966"/><rect x="17.0" y="241.0" width="6.0" height="10.0" fill="#ffd966"/><rect x="77.0" y="231.0" width="6.0" height="10.0" fill="#ffffff"/><rect x="83.0" y="231.0" width="6.0" height="10.0" fill="#ffffff"/><rect x="131.0" y="241.0" width="6.0" height="10.0" fill="#ffffff"/><rect x="131.0" y="261.0" width="6.0" height="10.0" fill="#ffffff"/><rect x="119.0" y="261.0" width="6.0" height="10.0" fill="#ffffff"/><rect x="107.0" y="261.0" width="6.0" height="10.0" fill="#ffffff"/><rect x="77.0" y="261.0" width="6.0" height="10.0" fill="#ffffff"/><rect x="77.0" y="241.0" width="6.0" height="10.0" fill="#ffffff"/></g><g clip-path="url(#grid-clip-8ed0861e43294df7-2x6)" data-channel="ellipse" data-ellipse-anchor-x="137.0" data-ellipse-anchor-y="191.0" data-ellipse-rx="100.0" data-ellipse-ry="20.0" data-ellipse-rotation-deg="108.0"><ellipse cx="137.0" cy="191.0" rx="100.0" ry="20.0" transform="rotate(108.0 137.0 191.0)" fill="#ffffff" fill-opacity="0.4"/></g><g><g data-channel="cell" data-cell-index="0" data-cell-row="0" data-cell-col="0"><rect x="23.0" y="41.0" width="48.0" height="20.0" fill="#beadde"/><text x="47.0" y="51.0" fill="#000000" style="font-family: &quot;DejaVu Sans Mono&quot;, &quot;Consolas&quot;, &quot;Menlo&quot;, &quot;Liberation Mono&quot;, monospace; font-size: 12.0px;" text-anchor="middle" dominant-baseline="central">deadbe</text></g><g data-channel="cell" data-cell-index="1" data-cell-row="0" data-cell-col="1" data-cell-quartile="4"><rect x="83.0" y="41.0" width="48.0" height="20.0" fill="#fecaef"/><text x="107.0" y="51.0" fill="#000000" style="font-family: &quot;DejaVu Sans Mono&quot;, &quot;Consolas&quot;, &quot;Menlo&quot;, &quot;Liberation Mono&quot;, monospace; font-size: 12.0px;" text-anchor="middle" dominant-baseline="central">efcafe</text><polygon points="83.0,61.0 83.0,51.0 93.0,61.0" fill="#000000"/></g><g data-channel="cell" data-cell-index="2" data-cell-row="1" data-cell-col="0" data-cell-quartile="3"><rect x="23.0" y="81.0" width="48.0" height="20.0" fill="#12beba"/><text x="47.0" y="91.0" fill="#000000" style="font-family: &quot;DejaVu Sans Mono&quot;, &quot;Consolas&quot;, &quot;Menlo&quot;, &quot;Liberation Mono&quot;, monospace; font-size: 12.0px;" text-anchor="middle" dominant-baseline="central">babe12</text><polygon points="71.0,101.0 71.0,91.0 61.0,101.0" fill="#000000"/></g><g data-channel="cell" data-cell-index="3" data-cell-row="1" data-cell-col="1"><rect x="83.0" y="81.0" width="48.0" height="20.0" fill="#785634"/><text x="107.0" y="91.0" fill="#ffffff" style="font-family: &quot;DejaVu Sans Mono&quot;, &quot;Consolas&quot;, &quot;Menlo&quot;, &quot;Liberation Mono&quot;, monospace; font-size: 12.0px;" text-anchor="middle" dominant-baseline="central">345678</text></g><g data-channel="cell" data-cell-index="4" data-cell-row="2" data-cell-col="0"><rect x="23.0" y="121.0" width="48.0" height="20.0" fill="#cdab90"/><text x="47.0" y="131.0" fill="#000000" style="font-family: &quot;DejaVu Sans Mono&quot;, &quot;Consolas&quot;, &quot;Menlo&quot;, &quot;Liberation Mono&quot;, monospace; font-size: 12.0px;" text-anchor="middle" dominant-baseline="central">90abcd</text></g><g data-channel="cell" data-cell-index="5" data-cell-row="2" data-cell-col="1"><rect x="83.0" y="121.0" width="48.0" height="20.0" fill="#ed0fef"/><text x="107.0" y="131.0" fill="#000000" style="font-family: &quot;DejaVu Sans Mono&quot;, &quot;Consolas&quot;, &quot;Menlo&quot;, &quot;Liberation Mono&quot;, monospace; font-size: 12.0px;" text-anchor="middle" dominant-baseline="central">ef0fed</text></g><g data-channel="cell" data-cell-index="6" data-cell-row="3" data-cell-col="0"><rect x="23.0" y="161.0" width="48.0" height="20.0" fill="#87a9cb"/><text x="47.0" y="171.0" fill="#000000" style="font-family: &quot;DejaVu Sans Mono&quot;, &quot;Consolas&quot;, &quot;Menlo&quot;, &quot;Liberation Mono&quot;, monospace; font-size: 12.0px;" text-anchor="middle" dominant-baseline="central">cba987</text></g><g data-channel="cell" data-cell-index="7" data-cell-row="3" data-cell-col="1"><rect x="83.0" y="161.0" width="48.0" height="20.0" fill="#214365"/><text x="107.0" y="171.0" fill="#ffffff" style="font-family: &quot;DejaVu Sans Mono&quot;, &quot;Consolas&quot;, &quot;Menlo&quot;, &quot;Liberation Mono&quot;, monospace; font-size: 12.0px;" text-anchor="middle" dominant-baseline="central">654321</text></g><g data-channel="cell" data-cell-index="8" data-cell-row="4" data-cell-col="0" data-cell-blank="true" data-cell-blank-marker="true"><circle cx="47.0" cy="211.0" r="17.0" fill="#ffffff" stroke="#000000" stroke-width="1"/><line x1="47.0" y1="211.0" x2="61.976905298081185" y2="201.0153964679459" stroke="#ffffff" style="mix-blend-mode: difference" stroke-width="1"/><line x1="47.0" y1="211.0" x2="49.98454925350133" y2="203.04120199066313" stroke="#000000" stroke-width="1"/><circle cx="49.98454925350133" cy="203.04120199066313" r="1.5" fill="#ffffff" stroke="#000000" stroke-width="1"/></g><g data-channel="cell" data-cell-index="9" data-cell-row="4" data-cell-col="1"><rect x="83.0" y="201.0" width="48.0" height="20.0" fill="#452301"/><text x="107.0" y="211.0" fill="#ffffff" style="font-family: &quot;DejaVu Sans Mono&quot;, &quot;Consolas&quot;, &quot;Menlo&quot;, &quot;Liberation Mono&quot;, monospace; font-size: 12.0px;" text-anchor="middle" dominant-baseline="central">012345</text></g><g data-channel="cell" data-cell-index="10" data-cell-row="5" data-cell-col="0" data-cell-quartile="1"><rect x="23.0" y="241.0" width="48.0" height="20.0" fill="#ab8967"/><text x="47.0" y="251.0" fill="#000000" style="font-family: &quot;DejaVu Sans Mono&quot;, &quot;Consolas&quot;, &quot;Menlo&quot;, &quot;Liberation Mono&quot;, monospace; font-size: 12.0px;" text-anchor="middle" dominant-baseline="central">6789ab</text><polygon points="23.0,241.0 33.0,241.0 23.0,251.0" fill="#000000"/></g><g data-channel="cell" data-cell-index="11" data-cell-row="5" data-cell-col="1" data-cell-quartile="2"><rect x="83.0" y="241.0" width="48.0" height="20.0" fill="#efefcd"/><text x="107.0" y="251.0" fill="#000000" style="font-family: &quot;DejaVu Sans Mono&quot;, &quot;Consolas&quot;, &quot;Menlo&quot;, &quot;Liberation Mono&quot;, monospace; font-size: 12.0px;" text-anchor="middle" dominant-baseline="central">cdef</text><polygon points="131.0,241.0 121.0,241.0 131.0,251.0" fill="#000000"/></g></g></g><g data-channel="color-bar"><g data-color-bar-rank="0" data-color-bar-band="W"><rect x="1" y="1" width="10.0" height="89.11933204903036" fill="#ffffff"/><text x="6.0" y="45.55966602451518" fill="#000000" style="font-family: &quot;DejaVu Sans Mono&quot;, &quot;Consolas&quot;, &quot;Menlo&quot;, &quot;Liberation Mono&quot;, monospace; font-size: 8.5px;" text-anchor="middle" dominant-baseline="central" data-color-bar-letter="true">w</text></g><g data-color-bar-rank="1" data-color-bar-band="R"><rect x="1" y="90.11933204903036" width="10.0" height="89.11933204903036" fill="#ff3f2f"/><text x="6.0" y="134.67899807354553" fill="#000000" style="font-family: &quot;DejaVu Sans Mono&quot;, &quot;Consolas&quot;, &quot;Menlo&quot;, &quot;Liberation Mono&quot;, monospace; font-size: 8.5px;" text-anchor="middle" dominant-baseline="central" data-color-bar-letter="true">r</text></g><g data-color-bar-rank="2" data-color-bar-band="G"><rect x="1" y="179.23866409806072" width="10.0" height="58.09547645914279" fill="#ffd966"/><text x="6.0" y="208.28640232763212" fill="#000000" style="font-family: &quot;DejaVu Sans Mono&quot;, &quot;Consolas&quot;, &quot;Menlo&quot;, &quot;Liberation Mono&quot;, monospace; font-size: 8.5px;" text-anchor="middle" dominant-baseline="central" data-color-bar-letter="true">g</text></g><g data-color-bar-rank="3" data-color-bar-band="K"><rect x="1" y="237.3341405572035" width="10.0" height="38.66585944279649" fill="#000000"/><text x="6.0" y="256.6670702786017" fill="#ffffff" style="font-family: &quot;DejaVu Sans Mono&quot;, &quot;Consolas&quot;, &quot;Menlo&quot;, &quot;Liberation Mono&quot;, monospace; font-size: 8.5px;" text-anchor="middle" dominant-baseline="central" data-color-bar-letter="true">k</text></g></g><g data-channel="label-top"><text x="17.0" y="16.0" fill="#666666" style="font-family: &quot;DejaVu Sans Mono&quot;, &quot;Consolas&quot;, &quot;Menlo&quot;, &quot;Liberation Mono&quot;, monospace; font-size: 12.0px;" dominant-baseline="central">hex(64):</text></g><line x1="0" y1="0.5" x2="143.0" y2="0.5" stroke="#808080" stroke-width="1" shape-rendering="crispEdges"/><line x1="142.5" y1="0" x2="142.5" y2="277.0" stroke="#808080" stroke-width="1" shape-rendering="crispEdges"/><line x1="0" y1="276.5" x2="143.0" y2="276.5" stroke="#808080" stroke-width="1" shape-rendering="crispEdges"/><line x1="0.5" y1="0" x2="0.5" y2="277.0" stroke="#808080" stroke-width="1" shape-rendering="crispEdges"/><line x1="11.5" y1="0" x2="11.5" y2="277.0" stroke="#808080" stroke-width="1" shape-rendering="crispEdges"/></svg>