<svg width="213.0" height="197.0" viewBox="0 0 213.0 197.0" xmlns="http://www.w3.org/2000/svg" data-entviz-version="v6" data-entviz-lib="0.5.0" data-input-bytes="64" data-cols="3" data-rows="4"><defs><clipPath id="grid-clip-8ed0861e43294df7-3x4"><rect x="27.0" y="31.0" width="180.0" height="160.0"/></clipPath></defs><rect x="0" y="0" width="213.0" height="197.0" fill="#ffffff"/><g data-channel="grid"><rect x="27.0" y="31.0" width="180.0" height="160.0" fill="#2f3fbf"/><g><rect x="33.0" y="31.0" width="6.0" height="10.0" fill="#ffffff"/><rect x="39.0" y="31.0" width="6.0" height="10.0" fill="#ffffff"/><rect x="69.0" y="31.0" width="6.0" height="10.0" fill="#ffffff"/><rect x="81.0" y="61.0" width="6.0" height="10.0" fill="#ffffff"/><rect x="69.0" y="61.0" width="6.0" height="10.0" fill="#ffffff"/><rect x="63.0" y="61.0" width="6.0" height="10.0" fill="#ffffff"/><rect x="51.0" y="61.0" width="6.0" height="10.0" fill="#ffffff"/><rect x="45.0" y="61.0" width="6.0" height="10.0" fill="#ffffff"/><rect x="39.0" y="61.0" width="6.0" height="10.0" fill="#ffffff"/><rect x="27.0" y="41.0" width="6.0" height="10.0" fill="#ffffff"/><rect x="87.0" y="31.0" width="6.0" height="10.0" fill="#ffffff"/><rect x="105.0" y="31.0" width="6.0" height="10.0" fill="#ffffff"/><rect x="117.0" y="31.0" width="6.0" height="10.0" fill="#ffffff"/><rect x="135.0" y="31.0" width="6.0" height="10.0" fill="#ffffff"/><rect x="141.0" y="31.0" width="6.0" height="10.0" fill="#ffffff"/><rect x="129.0" y="61.0" width="6.0" height="10.0" fill="#ffffff"/><rect x="111.0" y="61.0" width="6.0" height="10.0" fill="#ffffff"/><rect x="105.0" y="61.0" width="6.0" height="10.0" fill="#ffffff"/><rect x="99.0" y="61.0" width="6.0" height="10.0" fill="#ffffff"/><rect x="93.0" y="61.0" width="6.0" height="10.0" fill="#ffffff"/><rect x="147.0" y="31.0" width="6.0" height="10.0" fill="#ffd966"/><rect x="177.0" y="31.0" width="6.0" height="10.0" fill="#ffd966"/><rect x="183.0" y="31.0" width="6.0" height="10.0" fill="#ffd966"/><rect x="195.0" y="31.0" width="6.0" height="10.0" fill="#ffd966"/><rect x="201.0" y="31.0" width="6.0" height="10.0" fill="#ffd966"/><rect x="201.0" y="41.0" width="6.0" height="10.0" fill="#ffd966"/><rect x="201.0" y="61.0" width="6.0" height="10.0" fill="#ffd966"/><rect x="195.0" y="61.0" width="6.0" height="10.0" fill="#ffd966"/><rect x="189.0" y="61.0" width="6.0" height="10.0" fill="#ffd966"/><rect x="183.0" y="61.0" width="6.0" height="10.0" fill="#ffd966"/><rect x="177.0" y="61.0" width="6.0" height="10.0" fill="#ffd966"/><rect x="165.0" y="61.0" width="6.0" height="10.0" fill="#ffd966"/><rect x="159.0" y="61.0" width="6.0" height="10.0" fill="#ffd966"/><rect x="147.0" y="51.0" width="6.0" height="10.0" fill="#ffd966"/><rect x="27.0" y="71.0" width="6.0" height="10.0" fill="#ff3f2f"/><rect x="33.0" y="71.0" width="6.0" height="10.0" fill="#ff3f2f"/><rect x="39.0" y="71.0" width="6.0" height="10.0" fill="#ff3f2f"/><rect x="57.0" y="71.0" width="6.0" height="10.0" fill="#ff3f2f"/><rect x="81.0" y="91.0" width="6.0" height="10.0" fill="#ff3f2f"/><rect x="63.0" y="101.0" width="6.0" height="10.0" fill="#ff3f2f"/><rect x="57.0" y="101.0" width="6.0" height="10.0" fill="#ff3f2f"/><rect x="45.0" y="101.0" width="6.0" height="10.0" fill="#ff3f2f"/><rect x="33.0" y="101.0" width="6.0" height="10.0" fill="#ff3f2f"/><rect x="27.0" y="101.0" width="6.0" height="10.0" fill="#ff3f2f"/><rect x="27.0" y="91.0" width="6.0" height="10.0" fill="#ff3f2f"/><rect x="87.0" y="71.0" width="6.0" height="10.0" fill="#ffd966"/><rect x="105.0" y="71.0" width="6.0" height="10.0" fill="#ffd966"/><rect x="117.0" y="71.0" width="6.0" height="10.0" fill="#ffd966"/><rect x="123.0" y="71.0" width="6.0" height="10.0" fill="#ffd966"/><rect x="129.0" y="71.0" width="6.0" height="10.0" fill="#ffd966"/><rect x="135.0" y="71.0" width="6.0" height="10.0" fill="#ffd966"/><rect x="141.0" y="91.0" width="6.0" height="10.0" fill="#ffd966"/><rect x="135.0" y="101.0" width="6.0" height="10.0" fill="#ffd966"/><rect x="123.0" y="101.0" width="6.0" height="10.0" fill="#ffd966"/><rect x="99.0" y="101.0" width="6.0" height="10.0" fill="#ffd966"/><rect x="93.0" y="101.0" width="6.0" height="10.0" fill="#ffd966"/><rect x="87.0" y="91.0" width="6.0" height="10.0" fill="#ffd966"/><rect x="87.0" y="81.0" width="6.0" height="10.0" fill="#ffd966"/><rect x="159.0" y="71.0" width="6.0" height="10.0" fill="#ff3f2f"/><rect x="177.0" y="71.0" width="6.0" height="10.0" fill="#ff3f2f"/><rect x="183.0" y="71.0" width="6.0" height="10.0" fill="#ff3f2f"/><rect x="201.0" y="71.0" width="6.0" height="10.0" fill="#ff3f2f"/><rect x="201.0" y="81.0" width="6.0" height="10.0" fill="#ff3f2f"/><rect x="183.0" y="101.0" width="6.0" height="10.0" fill="#ff3f2f"/><rect x="171.0" y="101.0" width="6.0" height="10.0" fill="#ff3f2f"/><rect x="159.0" y="101.0" width="6.0" height="10.0" fill="#ff3f2f"/><rect x="147.0" y="91.0" width="6.0" height="10.0" fill="#ff3f2f"/><rect x="147.0" y="81.0" width="6.0" height="10.0" fill="#ff3f2f"/><rect x="69.0" y="111.0" width="6.0" height="10.0" fill="#ffffff"/><rect x="75.0" y="111.0" width="6.0" height="10.0" fill="#ffffff"/><rect x="81.0" y="121.0" width="6.0" height="10.0" fill="#ffffff"/><rect x="81.0" y="141.0" width="6.0" height="10.0" fill="#ffffff"/><rect x="75.0" y="141.0" width="6.0" height="10.0" fill="#ffffff"/><rect x="69.0" y="141.0" width="6.0" height="10.0" fill="#ffffff"/><rect x="63.0" y="141.0" width="6.0" height="10.0" fill="#ffffff"/><rect x="57.0" y="141.0" width="6.0" height="10.0" fill="#ffffff"/><rect x="45.0" y="141.0" width="6.0" height="10.0" fill="#ffffff"/><rect x="39.0" y="141.0" width="6.0" height="10.0" fill="#ffffff"/><rect x="27.0" y="141.0" width="6.0" height="10.0" fill="#ffffff"/><rect x="117.0" y="111.0" width="6.0" height="10.0" fill="#000000"/><rect x="141.0" y="121.0" width="6.0" height="10.0" fill="#000000"/><rect x="129.0" y="141.0" width="6.0" height="10.0" fill="#000000"/><rect x="123.0" y="141.0" width="6.0" height="10.0" fill="#000000"/><rect x="117.0" y="141.0" width="6.0" height="10.0" fill="#000000"/><rect x="105.0" y="141.0" width="6.0" height="10.0" fill="#000000"/><rect x="93.0" y="141.0" width="6.0" height="10.0" fill="#000000"/><rect x="87.0" y="141.0" width="6.0" height="10.0" fill="#000000"/><rect x="87.0" y="131.0" width="6.0" height="10.0" fill="#000000"/><rect x="87.0" y="121.0" width="6.0" height="10.0" fill="#000000"/><rect x="27.0" y="151.0" width="6.0" height="10.0" fill="#000000"/><rect x="33.0" y="151.0" width="6.0" height="10.0" fill="#000000"/><rect x="45.0" y="151.0" width="6.0" height="10.0" fill="#000000"/><rect x="51.0" y="151.0" width="6.0" height="10.0" fill="#000000"/><rect x="57.0" y="151.0" width="6.0" height="10.0" fill="#000000"/><rect x="63.0" y="151.0" width="6.0" height="10.0" fill="#000000"/><rect x="69.0" y="151.0" width="6.0" height="10.0" fill="#000000"/><rect x="81.0" y="151.0" width="6.0" height="10.0" fill="#000000"/><rect x="81.0" y="161.0" width="6.0" height="10.0" fill="#000000"/><rect x="81.0" y="171.0" width="6.0" height="10.0" fill="#000000"/><rect x="57.0" y="181.0" width="6.0" height="10.0" fill="#000000"/><rect x="45.0" y="181.0" width="6.0" height="10.0" fill="#000000"/><rect x="39.0" y="181.0" width="6.0" height="10.0" fill="#000000"/><rect x="33.0" y="181.0" width="6.0" height="10.0" fill="#000000"/><rect x="27.0" y="171.0" width="6.0" height="10.0" fill="#000000"/><rect x="93.0" y="151.0" width="6.0" height="10.0" fill="#ffd966"/><rect x="99.0" y="151.0" width="6.0" height="10.0" fill="#ffd966"/><rect x="105.0" y="151.0" width="6.0" height="10.0" fill="#ffd966"/><rect x="111.0" y="151.0" width="6.0" height="10.0" fill="#ffd966"/><rect x="117.0" y="151.0" width="6.0" height="10.0" fill="#ffd966"/><rect x="123.0" y="151.0" width="6.0" height="10.0" fill="#ffd966"/><rect x="135.0" y="151.0" width="6.0" height="10.0" fill="#ffd966"/><rect x="141.0" y="151.0" width="6.0" height="10.0" fill="#ffd966"/><rect x="141.0" y="161.0" width="6.0" height="10.0" fill="#ffd966"/><rect x="141.0" y="171.0" width="6.0" height="10.0" fill="#ffd966"/><rect x="111.0" y="181.0" width="6.0" height="10.0" fill="#ffd966"/><rect x="93.0" y="181.0" width="6.0" height="10.0" fill="#ffd966"/><rect x="87.0" y="161.0" width="6.0" height="10.0" fill="#ffd966"/><rect x="147.0" y="151.0" width="6.0" height="10.0" fill="#ffffff"/><rect x="153.0" y="151.0" width="6.0" height="10.0" fill="#ffffff"/><rect x="201.0" y="161.0" width="6.0" height="10.0" fill="#ffffff"/><rect x="201.0" y="181.0" width="6.0" height="10.0" fill="#ffffff"/><rect x="189.0" y="181.0" width="6.0" height="10.0" fill="#ffffff"/><rect x="177.0" y="181.0" width="6.0" height="10.0" fill="#ffffff"/><rect x="147.0" y="181.0" width="6.0" height="10.0" fill="#ffffff"/><rect x="147.0" y="161.0" width="6.0" height="10.0" fill="#ffffff"/></g><g clip-path="url(#grid-clip-8ed0861e43294df7-3x4)" data-channel="ellipse" data-ellipse-anchor-x="87.0" data-ellipse-anchor-y="151.0" data-ellipse-rx="78.06458864299483" data-ellipse-ry="37.335238046649714" data-ellipse-rotation-deg="108.0"><ellipse cx="87.0" cy="151.0" rx="78.06458864299483" ry="37.335238046649714" transform="rotate(108.0 87.0 151.0)" fill="#ffffff" fill-opacity="0.4"/></g><g><g data-channel="cell" data-cell-index="0" data-cell-row="0" data-cell-col="0"><rect x="33.0" y="41.0" width="48.0" height="20.0" fill="#beadde"/><text x="57.0" y="51.0" fill="#000000" style="font-family: &quot;JetBrains Mono&quot;, &quot;Menlo&quot;, &quot;Consolas&quot;, &quot;DejaVu Sans Mono&quot;, &quot;Liberation Mono&quot;, &quot;Roboto Mono&quot;, &quot;Noto Sans Mono&quot;, monospace; font-size: 12.0px;" text-anchor="middle" dominant-baseline="central">deadbe</text></g><g data-channel="cell" data-cell-index="1" data-cell-row="0" data-cell-col="1" data-cell-quartile="4"><rect x="93.0" y="41.0" width="48.0" height="20.0" fill="#fecaef"/><text x="117.0" y="51.0" fill="#000000" style="font-family: &quot;JetBrains Mono&quot;, &quot;Menlo&quot;, &quot;Consolas&quot;, &quot;DejaVu Sans Mono&quot;, &quot;Liberation Mono&quot;, &quot;Roboto Mono&quot;, &quot;Noto Sans Mono&quot;, monospace; font-size: 12.0px;" text-anchor="middle" dominant-baseline="central">efcafe</text><polygon points="93.0,61.0 93.0,51.0 103.0,61.0" fill="#000000"/></g><g data-channel="cell" data-cell-index="2" data-cell-row="0" data-cell-col="2" data-cell-quartile="3"><rect x="153.0" y="41.0" width="48.0" height="20.0" fill="#12beba"/><text x="177.0" y="51.0" fill="#000000" style="font-family: &quot;JetBrains Mono&quot;, &quot;Menlo&quot;, &quot;Consolas&quot;, &quot;DejaVu Sans Mono&quot;, &quot;Liberation Mono&quot;, &quot;Roboto Mono&quot;, &quot;Noto Sans Mono&quot;, monospace; font-size: 12.0px;" text-anchor="middle" dominant-baseline="central">babe12</text><polygon points="201.0,61.0 201.0,51.0 191.0,61.0" fill="#000000"/></g><g data-channel="cell" data-cell-index="3" data-cell-row="1" data-cell-col="0"><rect x="33.0" y="81.0" width="48.0" height="20.0" fill="#785634"/><text x="57.0" y="91.0" fill="#ffffff" style="font-family: &quot;JetBrains Mono&quot;, &quot;Menlo&quot;, &quot;Consolas&quot;, &quot;DejaVu Sans Mono&quot;, &quot;Liberation Mono&quot;, &quot;Roboto Mono&quot;, &quot;Noto Sans Mono&quot;, monospace; font-size: 12.0px;" text-anchor="middle" dominant-baseline="central">345678</text></g><g data-channel="cell" data-cell-index="4" data-cell-row="1" data-cell-col="1"><rect x="93.0" y="81.0" width="48.0" height="20.0" fill="#cdab90"/><text x="117.0" y="91.0" fill="#000000" style="font-family: &quot;JetBrains Mono&quot;, &quot;Menlo&quot;, &quot;Consolas&quot;, &quot;DejaVu Sans Mono&quot;, &quot;Liberation Mono&quot;, &quot;Roboto Mono&quot;, &quot;Noto Sans Mono&quot;, monospace; font-size: 12.0px;" text-anchor="middle" dominant-baseline="central">90abcd</text></g><g data-channel="cell" data-cell-index="5" data-cell-row="1" data-cell-col="2"><rect x="153.0" y="81.0" width="48.0" height="20.0" fill="#ed0fef"/><text x="177.0" y="91.0" fill="#000000" style="font-family: &quot;JetBrains Mono&quot;, &quot;Menlo&quot;, &quot;Consolas&quot;, &quot;DejaVu Sans Mono&quot;, &quot;Liberation Mono&quot;, &quot;Roboto Mono&quot;, &quot;Noto Sans Mono&quot;, monospace; font-size: 12.0px;" text-anchor="middle" dominant-baseline="central">ef0fed</text></g><g data-channel="cell" data-cell-index="6" data-cell-row="2" data-cell-col="0"><rect x="33.0" y="121.0" width="48.0" height="20.0" fill="#87a9cb"/><text x="57.0" y="131.0" fill="#000000" style="font-family: &quot;JetBrains Mono&quot;, &quot;Menlo&quot;, &quot;Consolas&quot;, &quot;DejaVu Sans Mono&quot;, &quot;Liberation Mono&quot;, &quot;Roboto Mono&quot;, &quot;Noto Sans Mono&quot;, monospace; font-size: 12.0px;" text-anchor="middle" dominant-baseline="central">cba987</text></g><g data-channel="cell" data-cell-index="7" data-cell-row="2" data-cell-col="1"><rect x="93.0" y="121.0" width="48.0" height="20.0" fill="#214365"/><text x="117.0" y="131.0" fill="#ffffff" style="font-family: &quot;JetBrains Mono&quot;, &quot;Menlo&quot;, &quot;Consolas&quot;, &quot;DejaVu Sans Mono&quot;, &quot;Liberation Mono&quot;, &quot;Roboto Mono&quot;, &quot;Noto Sans Mono&quot;, monospace; font-size: 12.0px;" text-anchor="middle" dominant-baseline="central">654321</text></g><g data-channel="cell" data-cell-index="8" data-cell-row="2" data-cell-col="2" data-cell-blank="true" data-cell-blank-map="true"><rect x="153.0" y="121.0" width="48.0" height="20.0" rx="2.0" ry="2.0" fill="#ffffff" stroke="#000000" stroke-width="1"/><circle cx="177.0" cy="133.5" r="1.75" fill="#d62828" data-blank-map-max="true"/><circle cx="177.0" cy="123.5" r="1.75" fill="#1d4ed8" data-blank-map-min="true"/></g><g data-channel="cell" data-cell-index="9" data-cell-row="3" data-cell-col="0"><rect x="33.0" y="161.0" width="48.0" height="20.0" fill="#452301"/><text x="57.0" y="171.0" fill="#ffffff" style="font-family: &quot;JetBrains Mono&quot;, &quot;Menlo&quot;, &quot;Consolas&quot;, &quot;DejaVu Sans Mono&quot;, &quot;Liberation Mono&quot;, &quot;Roboto Mono&quot;, &quot;Noto Sans Mono&quot;, monospace; font-size: 12.0px;" text-anchor="middle" dominant-baseline="central">012345</text></g><g data-channel="cell" data-cell-index="10" data-cell-row="3" data-cell-col="1" data-cell-quartile="1"><rect x="93.0" y="161.0" width="48.0" height="20.0" fill="#ab8967"/><text x="117.0" y="171.0" fill="#000000" style="font-family: &quot;JetBrains Mono&quot;, &quot;Menlo&quot;, &quot;Consolas&quot;, &quot;DejaVu Sans Mono&quot;, &quot;Liberation Mono&quot;, &quot;Roboto Mono&quot;, &quot;Noto Sans Mono&quot;, monospace; font-size: 12.0px;" text-anchor="middle" dominant-baseline="central">6789ab</text><polygon points="93.0,161.0 103.0,161.0 93.0,171.0" fill="#000000"/></g><g data-channel="cell" data-cell-index="11" data-cell-row="3" data-cell-col="2" data-cell-quartile="2"><rect x="153.0" y="161.0" width="48.0" height="20.0" fill="#efefcd"/><text x="177.0" y="171.0" fill="#000000" style="font-family: &quot;JetBrains Mono&quot;, &quot;Menlo&quot;, &quot;Consolas&quot;, &quot;DejaVu Sans Mono&quot;, &quot;Liberation Mono&quot;, &quot;Roboto Mono&quot;, &quot;Noto Sans Mono&quot;, monospace; font-size: 12.0px;" text-anchor="middle" dominant-baseline="central">cdef</text><polygon points="201.0,161.0 191.0,161.0 201.0,171.0" fill="#000000"/></g></g></g><g data-channel="color-bar"><g data-color-bar-rank="0" data-color-bar-band="W"><rect x="1" y="1" width="20.0" height="63.19370818022153" fill="#ffffff"/><text x="11.0" y="32.59685409011077" fill="#000000" style="font-family: &quot;JetBrains Mono&quot;, &quot;Menlo&quot;, &quot;Consolas&quot;, &quot;DejaVu Sans Mono&quot;, &quot;Liberation Mono&quot;, &quot;Roboto Mono&quot;, &quot;Noto Sans Mono&quot;, monospace; font-size: 17.0px;" text-anchor="middle" dominant-baseline="central" data-color-bar-letter="true">w</text></g><g data-color-bar-rank="1" data-color-bar-band="R"><rect x="1" y="64.19370818022153" width="20.0" height="63.19370818022153" fill="#ff3f2f"/><text x="11.0" y="95.7905622703323" fill="#000000" style="font-family: &quot;JetBrains Mono&quot;, &quot;Menlo&quot;, &quot;Consolas&quot;, &quot;DejaVu Sans Mono&quot;, &quot;Liberation Mono&quot;, &quot;Roboto Mono&quot;, &quot;Noto Sans Mono&quot;, monospace; font-size: 17.0px;" text-anchor="middle" dominant-baseline="central" data-color-bar-letter="true">r</text></g><g data-color-bar-rank="2" data-color-bar-band="G"><rect x="1" y="127.38741636044307" width="20.0" height="41.19497421648307" fill="#ffd966"/><text x="11.0" y="147.9849034686846" fill="#000000" style="font-family: &quot;JetBrains Mono&quot;, &quot;Menlo&quot;, &quot;Consolas&quot;, &quot;DejaVu Sans Mono&quot;, &quot;Liberation Mono&quot;, &quot;Roboto Mono&quot;, &quot;Noto Sans Mono&quot;, monospace; font-size: 17.0px;" text-anchor="middle" dominant-baseline="central" data-color-bar-letter="true">g</text></g><g data-color-bar-rank="3" data-color-bar-band="K"><rect x="1" y="168.58239057692614" width="20.0" height="27.417609423073856" fill="#000000"/><text x="11.0" y="182.2911952884631" fill="#ffffff" style="font-family: &quot;JetBrains Mono&quot;, &quot;Menlo&quot;, &quot;Consolas&quot;, &quot;DejaVu Sans Mono&quot;, &quot;Liberation Mono&quot;, &quot;Roboto Mono&quot;, &quot;Noto Sans Mono&quot;, monospace; font-size: 17.0px;" text-anchor="middle" dominant-baseline="central" data-color-bar-letter="true">k</text></g></g><g data-channel="label-top"><text x="27.0" y="16.0" fill="#666666" style="font-family: &quot;JetBrains Mono&quot;, &quot;Menlo&quot;, &quot;Consolas&quot;, &quot;DejaVu Sans Mono&quot;, &quot;Liberation Mono&quot;, &quot;Roboto Mono&quot;, &quot;Noto Sans Mono&quot;, monospace; font-size: 12.0px;" dominant-baseline="central">hex(64):</text></g><line x1="0" y1="0.5" x2="213.0" y2="0.5" stroke="#808080" stroke-width="1" shape-rendering="crispEdges"/><line x1="212.5" y1="0" x2="212.5" y2="197.0" stroke="#808080" stroke-width="1" shape-rendering="crispEdges"/><line x1="0" y1="196.5" x2="213.0" y2="196.5" stroke="#808080" stroke-width="1" shape-rendering="crispEdges"/><line x1="0.5" y1="0" x2="0.5" y2="197.0" stroke="#808080" stroke-width="1" shape-rendering="crispEdges"/><line x1="21.5" y1="0" x2="21.5" y2="197.0" stroke="#808080" stroke-width="1" shape-rendering="crispEdges"/></svg>