<svg width="275" height="194" viewBox="0 0 275 194" xmlns="http://www.w3.org/2000/svg" font-family="&quot;JetBrains Mono&quot;, &quot;Menlo&quot;, &quot;Consolas&quot;, &quot;DejaVu Sans Mono&quot;, &quot;Liberation Mono&quot;, &quot;Roboto Mono&quot;, &quot;Noto Sans Mono&quot;, monospace" data-entviz-version="v15" data-entviz-lib="0.15.0" data-input-bytes="59" data-cols="4" data-rows="4" data-encoding="base32" data-scheme="cid" data-role="identifier" data-size-basis="decoded" data-entropy-type="cid" data-size-bits="288" data-qualifiers="{&quot;version&quot;:1,&quot;codec&quot;:&quot;raw&quot;,&quot;hash&quot;:&quot;sha2-256&quot;}" data-parts="[{&quot;text&quot;:&quot;b&quot;,&quot;bind&quot;:&quot;none&quot;},{&quot;text&quot;:&quot;AFKREIGH2AKISCAILDCQABSYG3DFR6CHU3FGPREGIYMSCK7E7AQA4S52ZY&quot;,&quot;bind&quot;:&quot;core&quot;}]"><defs><clipPath id="grid-clip-9c869a034cc31ebe-4x4"><rect x="28" y="27" width="240" height="160"/></clipPath></defs><rect x="1" y="1" width="273" height="192" fill="#ffffff"/><g data-channel="grid"><rect x="28" y="27" width="240" height="160" fill="#e7be00"/><g><path fill="#2f3fbf" d="M34 27h6v10h-6zM46 27h6v10h-6zM52 27h6v10h-6zM70 27h6v10h-6zM82 27h6v10h-6zM82 37h6v10h-6zM64 57h6v10h-6zM46 57h6v10h-6zM40 57h6v10h-6zM34 57h6v10h-6zM28 37h6v10h-6z"/><path fill="#000000" d="M88 27h6v10h-6zM94 27h6v10h-6zM124 27h6v10h-6zM130 27h6v10h-6zM142 37h6v10h-6zM142 47h6v10h-6zM130 57h6v10h-6zM118 57h6v10h-6zM112 57h6v10h-6z"/><path fill="#2f3fbf" d="M154 27h6v10h-6zM160 27h6v10h-6zM184 27h6v10h-6zM202 27h6v10h-6zM202 37h6v10h-6zM202 47h6v10h-6zM202 57h6v10h-6zM196 57h6v10h-6zM184 57h6v10h-6zM172 57h6v10h-6zM166 57h6v10h-6zM160 57h6v10h-6zM154 57h6v10h-6z"/><path fill="#2f3fbf" d="M220 27h6v10h-6zM226 27h6v10h-6zM244 27h6v10h-6zM250 27h6v10h-6zM262 27h6v10h-6zM262 37h6v10h-6zM262 47h6v10h-6zM262 57h6v10h-6zM256 57h6v10h-6zM250 57h6v10h-6zM244 57h6v10h-6zM238 57h6v10h-6zM232 57h6v10h-6zM220 57h6v10h-6zM208 47h6v10h-6zM208 37h6v10h-6z"/><path fill="#2f3fbf" d="M88 67h6v10h-6zM100 67h6v10h-6zM106 67h6v10h-6zM118 67h6v10h-6zM142 67h6v10h-6zM142 87h6v10h-6zM124 97h6v10h-6zM106 97h6v10h-6zM94 97h6v10h-6zM88 97h6v10h-6z"/><path fill="#2f3fbf" d="M154 67h6v10h-6zM202 87h6v10h-6zM196 97h6v10h-6zM184 97h6v10h-6zM154 97h6v10h-6zM148 97h6v10h-6zM148 87h6v10h-6zM148 77h6v10h-6z"/><path fill="#ff3f2f" d="M208 67h6v10h-6zM220 67h6v10h-6zM244 67h6v10h-6zM256 67h6v10h-6zM262 67h6v10h-6zM262 77h6v10h-6zM262 87h6v10h-6zM256 97h6v10h-6zM250 97h6v10h-6zM220 97h6v10h-6zM214 97h6v10h-6zM208 87h6v10h-6z"/><path fill="#2f3fbf" d="M28 107h6v10h-6zM34 107h6v10h-6zM40 107h6v10h-6zM52 107h6v10h-6zM58 107h6v10h-6zM64 107h6v10h-6zM70 107h6v10h-6zM76 107h6v10h-6zM82 107h6v10h-6zM82 117h6v10h-6zM52 137h6v10h-6zM40 137h6v10h-6zM34 137h6v10h-6zM28 137h6v10h-6zM28 127h6v10h-6z"/><path fill="#ffffff" d="M100 107h6v10h-6zM118 107h6v10h-6zM130 107h6v10h-6zM142 117h6v10h-6zM142 137h6v10h-6zM136 137h6v10h-6zM130 137h6v10h-6zM118 137h6v10h-6zM112 137h6v10h-6zM88 137h6v10h-6zM88 127h6v10h-6zM88 117h6v10h-6z"/><path fill="#2f3fbf" d="M154 107h6v10h-6zM160 107h6v10h-6zM178 107h6v10h-6zM190 107h6v10h-6zM196 137h6v10h-6zM190 137h6v10h-6zM184 137h6v10h-6zM172 137h6v10h-6zM166 137h6v10h-6z"/><path fill="#000000" d="M244 107h6v10h-6zM262 107h6v10h-6zM262 117h6v10h-6zM262 137h6v10h-6zM256 137h6v10h-6zM232 137h6v10h-6zM226 137h6v10h-6zM220 137h6v10h-6zM214 137h6v10h-6zM208 127h6v10h-6z"/><path fill="#ff3f2f" d="M28 147h6v10h-6zM40 147h6v10h-6zM58 147h6v10h-6zM64 147h6v10h-6zM70 147h6v10h-6zM76 147h6v10h-6zM82 147h6v10h-6zM82 167h6v10h-6zM82 177h6v10h-6zM76 177h6v10h-6zM70 177h6v10h-6zM46 177h6v10h-6zM40 177h6v10h-6zM28 157h6v10h-6z"/><path fill="#2f3fbf" d="M94 147h6v10h-6zM100 147h6v10h-6zM112 147h6v10h-6zM118 147h6v10h-6zM124 147h6v10h-6zM142 147h6v10h-6zM142 177h6v10h-6zM130 177h6v10h-6zM118 177h6v10h-6zM112 177h6v10h-6zM94 177h6v10h-6zM88 167h6v10h-6z"/><path fill="#ffffff" d="M148 147h6v10h-6zM154 147h6v10h-6zM160 147h6v10h-6zM166 147h6v10h-6zM172 147h6v10h-6zM184 147h6v10h-6zM202 147h6v10h-6zM202 157h6v10h-6zM184 177h6v10h-6zM178 177h6v10h-6zM166 177h6v10h-6zM160 177h6v10h-6z"/><path fill="#2f3fbf" d="M214 147h6v10h-6zM250 147h6v10h-6zM262 147h6v10h-6zM262 157h6v10h-6zM262 167h6v10h-6zM262 177h6v10h-6zM256 177h6v10h-6zM250 177h6v10h-6zM244 177h6v10h-6zM232 177h6v10h-6zM220 177h6v10h-6zM214 177h6v10h-6z"/></g><g clip-path="url(#grid-clip-9c869a034cc31ebe-4x4)" data-channel="ellipse" data-ellipse-anchor-x="88" data-ellipse-anchor-y="67" data-ellipse-rx="99.513" data-ellipse-ry="109.897" data-ellipse-rotation-deg="24"><ellipse cx="88" cy="67" rx="99.513" ry="109.897" transform="rotate(24 88 67)" fill="#000000" stroke="#000000" fill-opacity="0.2" stroke-opacity="0.3" stroke-width="2"/></g><g><g data-channel="cell" data-cell-index="0" data-cell-row="0" data-cell-col="0" data-surround-bits="0x9c869a" data-edge-color="#2f3fbf"><rect x="34" y="37" width="48" height="20" fill="#115501"/><text x="58" y="47" fill="#ffffff" font-size="16" text-anchor="middle" dominant-baseline="central">AFKR</text></g><g data-channel="cell" data-cell-index="1" data-cell-row="0" data-cell-col="1" data-surround-bits="0x34cc3" data-edge-color="#000000"><rect x="94" y="37" width="48" height="20" fill="#770c22"/><text x="118" y="47" fill="#ffffff" font-size="16" text-anchor="middle" dominant-baseline="central">EIGH</text></g><g data-channel="cell" data-cell-index="2" data-cell-row="0" data-cell-col="2" data-surround-bits="0x1ebe46" data-edge-color="#2f3fbf"><rect x="154" y="37" width="48" height="20" fill="#8814d0"/><text x="178" y="47" fill="#ffffff" font-size="16" text-anchor="middle" dominant-baseline="central">2AKI</text></g><g data-channel="cell" data-cell-index="3" data-cell-row="0" data-cell-col="3" data-surround-bits="0xcbfecc" data-edge-color="#2f3fbf" data-cell-quartile="3"><rect x="214" y="37" width="48" height="20" fill="#888090"/><text x="238" y="47" fill="#000000" font-size="16" text-anchor="middle" dominant-baseline="central">SCAI</text><polygon points="262,57 262,47 252,57" fill="#000000"/></g><g data-channel="cell" data-cell-index="4" data-cell-row="1" data-cell-col="0" data-cell-blank="true" data-cell-blank-map="true"><rect x="34" y="77" width="48" height="20" rx="10" ry="10" fill="#ffffff" stroke="#000000" stroke-width="1"/><circle cx="52" cy="79.5" r="3.5" fill="#000000" data-blank-map-min="0,1"/><path d="M 59.8,84.5 H 68.2 M 64,80.3 V 88.7" fill="none" stroke="#000000" stroke-width="1.925" stroke-linecap="butt" data-blank-map-max="1,2"/></g><g data-channel="cell" data-cell-index="5" data-cell-row="1" data-cell-col="1" data-surround-bits="0x348a2d" data-edge-color="#2f3fbf"><rect x="94" y="77" width="48" height="20" fill="#00c558"/><text x="118" y="87" fill="#000000" font-size="16" text-anchor="middle" dominant-baseline="central">LDCQ</text></g><g data-channel="cell" data-cell-index="6" data-cell-row="1" data-cell-col="2" data-surround-bits="0xf0a802" data-edge-color="#2f3fbf" data-cell-quartile="2"><rect x="154" y="77" width="48" height="20" fill="#886500"/><text x="178" y="87" fill="#ffffff" font-size="16" text-anchor="middle" dominant-baseline="central">ABSY</text><polygon points="202,77 192,77 202,87" fill="#ffffff"/></g><g data-channel="cell" data-cell-index="7" data-cell-row="1" data-cell-col="3" data-surround-bits="0x586f45" data-edge-color="#ff3f2f"><rect x="214" y="77" width="48" height="20" fill="#55c636"/><text x="238" y="87" fill="#000000" font-size="16" text-anchor="middle" dominant-baseline="central">G3DF</text></g><g data-channel="cell" data-cell-index="8" data-cell-row="2" data-cell-col="0" data-surround-bits="0x7a07f7" data-edge-color="#2f3fbf"><rect x="34" y="117" width="48" height="20" fill="#77848f"/><text x="58" y="127" fill="#000000" font-size="16" text-anchor="middle" dominant-baseline="central">R6CH</text></g><g data-channel="cell" data-cell-index="9" data-cell-row="2" data-cell-col="1" data-surround-bits="0xe374a4" data-edge-color="#ffffff"><rect x="94" y="117" width="48" height="20" fill="#66caa6"/><text x="118" y="127" fill="#000000" font-size="16" text-anchor="middle" dominant-baseline="central">U3FG</text></g><g data-channel="cell" data-cell-index="10" data-cell-row="2" data-cell-col="2" data-surround-bits="0x6e0a6" data-edge-color="#2f3fbf"><rect x="154" y="117" width="48" height="20" fill="#66487c"/><text x="178" y="127" fill="#ffffff" font-size="16" text-anchor="middle" dominant-baseline="central">PREG</text></g><g data-channel="cell" data-cell-index="11" data-cell-row="2" data-cell-col="3" data-surround-bits="0x5e3640" data-edge-color="#000000"><rect x="214" y="117" width="48" height="20" fill="#221946"/><text x="238" y="127" fill="#ffffff" font-size="16" text-anchor="middle" dominant-baseline="central">IYMS</text></g><g data-channel="cell" data-cell-index="12" data-cell-row="3" data-cell-col="0" data-surround-bits="0x8c7be5" data-edge-color="#ff3f2f" data-cell-quartile="4"><rect x="34" y="157" width="48" height="20" fill="#44be12"/><text x="58" y="167" fill="#000000" font-size="16" text-anchor="middle" dominant-baseline="central">CK7E</text><polygon points="34,177 34,167 44,177" fill="#000000"/></g><g data-channel="cell" data-cell-index="13" data-cell-row="3" data-cell-col="1" data-surround-bits="0x535276" data-edge-color="#2f3fbf" data-cell-quartile="1"><rect x="94" y="157" width="48" height="20" fill="#0020f8"/><text x="118" y="167" fill="#ffffff" font-size="16" text-anchor="middle" dominant-baseline="central">7AQA</text><polygon points="94,157 104,157 94,167" fill="#ffffff"/></g><g data-channel="cell" data-cell-index="14" data-cell-row="3" data-cell-col="2" data-surround-bits="0xd865f" data-edge-color="#ffffff"><rect x="154" y="157" width="48" height="20" fill="#aabbe4"/><text x="178" y="167" fill="#000000" font-size="16" text-anchor="middle" dominant-baseline="central">4S52</text></g><g data-channel="cell" data-cell-index="15" data-cell-row="3" data-cell-col="3" data-surround-bits="0x1afe82" data-edge-color="#2f3fbf"><rect x="214" y="157" width="48" height="20" fill="#8833ce"/><text x="238" y="167" fill="#ffffff" font-size="16" text-anchor="middle" dominant-baseline="central">ZY</text></g></g></g><g data-channel="color-bar" data-bar-slots="15" data-bar-marker-left="2" data-bar-marker-right="0"><g data-color-bar-rank="0" data-color-bar-band="W"><rect x="2" y="2" width="20" height="36.077" fill="#ffffff"/><text x="12" y="34.557" fill="#000000" font-size="16" text-anchor="middle" data-color-bar-letter="true">w</text></g><g data-color-bar-rank="1" data-color-bar-band="K"><rect x="2" y="38.077" width="20" height="63.099" fill="#000000"/><text x="12" y="97.656" fill="#ffffff" font-size="16" text-anchor="middle" data-color-bar-letter="true">k</text></g><g data-color-bar-rank="2" data-color-bar-band="R"><rect x="2" y="101.176" width="20" height="41.133" fill="#ff3f2f"/><text x="12" y="138.789" fill="#000000" font-size="16" text-anchor="middle" data-color-bar-letter="true">r</text></g><g data-color-bar-rank="3" data-color-bar-band="B"><rect x="2" y="142.309" width="20" height="49.691" fill="#2f3fbf"/><text x="12" y="188.48" fill="#ffffff" font-size="16" text-anchor="middle" data-color-bar-letter="true">b</text></g><circle cx="6.6" cy="33.667" r="3.4" fill="#ffffff" stroke="#000000" stroke-width="0.75" data-bar-marker="left"/><circle cx="17.4" cy="8.333" r="3.4" fill="#ffffff" stroke="#000000" stroke-width="0.75" data-bar-marker="right"/></g><g data-channel="label-top"><text x="28" y="17" fill="#666666" font-size="12" dominant-baseline="central">CIDv1, raw, b</text></g><line x1="1" y1="1.5" x2="274" y2="1.5" stroke="#808080" stroke-width="1" shape-rendering="crispEdges"/><line x1="273.5" y1="1" x2="273.5" y2="193" stroke="#808080" stroke-width="1" shape-rendering="crispEdges"/><line x1="1" y1="192.5" x2="274" y2="192.5" stroke="#808080" stroke-width="1" shape-rendering="crispEdges"/><line x1="1.5" y1="1" x2="1.5" y2="193" stroke="#808080" stroke-width="1" shape-rendering="crispEdges"/><line x1="22.5" y1="1" x2="22.5" y2="193" stroke="#808080" stroke-width="1" shape-rendering="crispEdges"/></svg>