<svg width="273" height="192" viewBox="0 0 273 192" xmlns="http://www.w3.org/2000/svg" font-family="&quot;JetBrains Mono&quot;, &quot;Menlo&quot;, &quot;Consolas&quot;, &quot;DejaVu Sans Mono&quot;, &quot;Liberation Mono&quot;, &quot;Roboto Mono&quot;, &quot;Noto Sans Mono&quot;, monospace" data-entviz-version="v11" data-entviz-lib="0.11.0" data-input-bytes="59" data-cols="4" data-rows="4"><defs><clipPath id="grid-clip-9c869a034cc31ebe-4x4"><rect x="27" y="26" width="240" height="160"/></clipPath></defs><rect x="0" y="0" width="273" height="192" fill="#ffffff"/><g data-channel="grid"><rect x="27" y="26" width="240" height="160" fill="#e7be00"/><g><path fill="#2f3fbf" d="M33 26h6v10h-6zM45 26h6v10h-6zM51 26h6v10h-6zM69 26h6v10h-6zM81 26h6v10h-6zM81 36h6v10h-6zM63 56h6v10h-6zM45 56h6v10h-6zM39 56h6v10h-6zM33 56h6v10h-6zM27 36h6v10h-6z"/><path fill="#000000" d="M87 26h6v10h-6zM93 26h6v10h-6zM123 26h6v10h-6zM129 26h6v10h-6zM141 36h6v10h-6zM141 46h6v10h-6zM129 56h6v10h-6zM117 56h6v10h-6zM111 56h6v10h-6z"/><path fill="#2f3fbf" d="M153 26h6v10h-6zM159 26h6v10h-6zM183 26h6v10h-6zM201 26h6v10h-6zM201 36h6v10h-6zM201 46h6v10h-6zM201 56h6v10h-6zM195 56h6v10h-6zM183 56h6v10h-6zM171 56h6v10h-6zM165 56h6v10h-6zM159 56h6v10h-6zM153 56h6v10h-6z"/><path fill="#2f3fbf" d="M219 26h6v10h-6zM225 26h6v10h-6zM243 26h6v10h-6zM249 26h6v10h-6zM261 26h6v10h-6zM261 36h6v10h-6zM261 46h6v10h-6zM261 56h6v10h-6zM255 56h6v10h-6zM249 56h6v10h-6zM243 56h6v10h-6zM237 56h6v10h-6zM231 56h6v10h-6zM219 56h6v10h-6zM207 46h6v10h-6zM207 36h6v10h-6z"/><path fill="#2f3fbf" d="M87 66h6v10h-6zM99 66h6v10h-6zM105 66h6v10h-6zM117 66h6v10h-6zM141 66h6v10h-6zM141 86h6v10h-6zM123 96h6v10h-6zM105 96h6v10h-6zM93 96h6v10h-6zM87 96h6v10h-6z"/><path fill="#2f3fbf" d="M153 66h6v10h-6zM201 86h6v10h-6zM195 96h6v10h-6zM183 96h6v10h-6zM153 96h6v10h-6zM147 96h6v10h-6zM147 86h6v10h-6zM147 76h6v10h-6z"/><path fill="#ff3f2f" d="M207 66h6v10h-6zM219 66h6v10h-6zM243 66h6v10h-6zM255 66h6v10h-6zM261 66h6v10h-6zM261 76h6v10h-6zM261 86h6v10h-6zM255 96h6v10h-6zM249 96h6v10h-6zM219 96h6v10h-6zM213 96h6v10h-6zM207 86h6v10h-6z"/><path fill="#2f3fbf" d="M27 106h6v10h-6zM33 106h6v10h-6zM39 106h6v10h-6zM51 106h6v10h-6zM57 106h6v10h-6zM63 106h6v10h-6zM69 106h6v10h-6zM75 106h6v10h-6zM81 106h6v10h-6zM81 116h6v10h-6zM51 136h6v10h-6zM39 136h6v10h-6zM33 136h6v10h-6zM27 136h6v10h-6zM27 126h6v10h-6z"/><path fill="#ffffff" d="M99 106h6v10h-6zM117 106h6v10h-6zM129 106h6v10h-6zM141 116h6v10h-6zM141 136h6v10h-6zM135 136h6v10h-6zM129 136h6v10h-6zM117 136h6v10h-6zM111 136h6v10h-6zM87 136h6v10h-6zM87 126h6v10h-6zM87 116h6v10h-6z"/><path fill="#2f3fbf" d="M153 106h6v10h-6zM159 106h6v10h-6zM177 106h6v10h-6zM189 106h6v10h-6zM195 136h6v10h-6zM189 136h6v10h-6zM183 136h6v10h-6zM171 136h6v10h-6zM165 136h6v10h-6z"/><path fill="#000000" d="M243 106h6v10h-6zM261 106h6v10h-6zM261 116h6v10h-6zM261 136h6v10h-6zM255 136h6v10h-6zM231 136h6v10h-6zM225 136h6v10h-6zM219 136h6v10h-6zM213 136h6v10h-6zM207 126h6v10h-6z"/><path fill="#ff3f2f" d="M27 146h6v10h-6zM39 146h6v10h-6zM57 146h6v10h-6zM63 146h6v10h-6zM69 146h6v10h-6zM75 146h6v10h-6zM81 146h6v10h-6zM81 166h6v10h-6zM81 176h6v10h-6zM75 176h6v10h-6zM69 176h6v10h-6zM45 176h6v10h-6zM39 176h6v10h-6zM27 156h6v10h-6z"/><path fill="#2f3fbf" d="M93 146h6v10h-6zM99 146h6v10h-6zM111 146h6v10h-6zM117 146h6v10h-6zM123 146h6v10h-6zM141 146h6v10h-6zM141 176h6v10h-6zM129 176h6v10h-6zM117 176h6v10h-6zM111 176h6v10h-6zM93 176h6v10h-6zM87 166h6v10h-6z"/><path fill="#ffffff" d="M147 146h6v10h-6zM153 146h6v10h-6zM159 146h6v10h-6zM165 146h6v10h-6zM171 146h6v10h-6zM183 146h6v10h-6zM201 146h6v10h-6zM201 156h6v10h-6zM183 176h6v10h-6zM177 176h6v10h-6zM165 176h6v10h-6zM159 176h6v10h-6z"/><path fill="#2f3fbf" d="M213 146h6v10h-6zM249 146h6v10h-6zM261 146h6v10h-6zM261 156h6v10h-6zM261 166h6v10h-6zM261 176h6v10h-6zM255 176h6v10h-6zM249 176h6v10h-6zM243 176h6v10h-6zM231 176h6v10h-6zM219 176h6v10h-6zM213 176h6v10h-6z"/></g><g clip-path="url(#grid-clip-9c869a034cc31ebe-4x4)" data-channel="ellipse" data-ellipse-anchor-x="87" data-ellipse-anchor-y="66" data-ellipse-rx="99.513" data-ellipse-ry="109.897" data-ellipse-rotation-deg="24"><ellipse cx="87" cy="66" rx="99.513" ry="109.897" transform="rotate(24 87 66)" fill="#000000" stroke="#000000" fill-opacity="0.2" stroke-opacity="0.3" stroke-width="2"/></g><g><g data-channel="cell" data-cell-index="0" data-cell-row="0" data-cell-col="0" data-surround-bits="0x9c869a" data-edge-color="#2f3fbf"><rect x="33" y="36" width="48" height="20" fill="#115501"/><text x="57" y="46" fill="#ffffff" font-size="16" text-anchor="middle" dominant-baseline="central">AFKR</text></g><g data-channel="cell" data-cell-index="1" data-cell-row="0" data-cell-col="1" data-surround-bits="0x34cc3" data-edge-color="#000000"><rect x="93" y="36" width="48" height="20" fill="#770c22"/><text x="117" y="46" fill="#ffffff" font-size="16" text-anchor="middle" dominant-baseline="central">EIGH</text></g><g data-channel="cell" data-cell-index="2" data-cell-row="0" data-cell-col="2" data-surround-bits="0x1ebe46" data-edge-color="#2f3fbf"><rect x="153" y="36" width="48" height="20" fill="#8814d0"/><text x="177" y="46" fill="#ffffff" font-size="16" text-anchor="middle" dominant-baseline="central">2AKI</text></g><g data-channel="cell" data-cell-index="3" data-cell-row="0" data-cell-col="3" data-surround-bits="0xcbfecc" data-edge-color="#2f3fbf" data-cell-quartile="3"><rect x="213" y="36" width="48" height="20" fill="#888090"/><text x="237" y="46" fill="#000000" font-size="16" text-anchor="middle" dominant-baseline="central">SCAI</text><polygon points="261,56 261,46 251,56" fill="#000000"/></g><g data-channel="cell" data-cell-index="4" data-cell-row="1" data-cell-col="0" data-cell-blank="true" data-cell-blank-map="true"><rect x="33" y="76" width="48" height="20" rx="10" ry="10" fill="#ffffff" stroke="#000000" stroke-width="1"/><circle cx="51" cy="78.5" r="3.5" fill="#000000" data-blank-map-min="0,1"/><path d="M 58.8,83.5 H 67.2 M 63,79.3 V 87.7" fill="none" stroke="#000000" stroke-width="1.925" stroke-linecap="butt" data-blank-map-max="1,2"/></g><g data-channel="cell" data-cell-index="5" data-cell-row="1" data-cell-col="1" data-surround-bits="0x348a2d" data-edge-color="#2f3fbf"><rect x="93" y="76" width="48" height="20" fill="#00c558"/><text x="117" y="86" fill="#000000" font-size="16" text-anchor="middle" dominant-baseline="central">LDCQ</text></g><g data-channel="cell" data-cell-index="6" data-cell-row="1" data-cell-col="2" data-surround-bits="0xf0a802" data-edge-color="#2f3fbf" data-cell-quartile="2"><rect x="153" y="76" width="48" height="20" fill="#886500"/><text x="177" y="86" fill="#ffffff" font-size="16" text-anchor="middle" dominant-baseline="central">ABSY</text><polygon points="201,76 191,76 201,86" fill="#ffffff"/></g><g data-channel="cell" data-cell-index="7" data-cell-row="1" data-cell-col="3" data-surround-bits="0x586f45" data-edge-color="#ff3f2f"><rect x="213" y="76" width="48" height="20" fill="#55c636"/><text x="237" y="86" fill="#000000" font-size="16" text-anchor="middle" dominant-baseline="central">G3DF</text></g><g data-channel="cell" data-cell-index="8" data-cell-row="2" data-cell-col="0" data-surround-bits="0x7a07f7" data-edge-color="#2f3fbf"><rect x="33" y="116" width="48" height="20" fill="#77848f"/><text x="57" y="126" fill="#000000" font-size="16" text-anchor="middle" dominant-baseline="central">R6CH</text></g><g data-channel="cell" data-cell-index="9" data-cell-row="2" data-cell-col="1" data-surround-bits="0xe374a4" data-edge-color="#ffffff"><rect x="93" y="116" width="48" height="20" fill="#66caa6"/><text x="117" y="126" fill="#000000" font-size="16" text-anchor="middle" dominant-baseline="central">U3FG</text></g><g data-channel="cell" data-cell-index="10" data-cell-row="2" data-cell-col="2" data-surround-bits="0x6e0a6" data-edge-color="#2f3fbf"><rect x="153" y="116" width="48" height="20" fill="#66487c"/><text x="177" y="126" fill="#ffffff" font-size="16" text-anchor="middle" dominant-baseline="central">PREG</text></g><g data-channel="cell" data-cell-index="11" data-cell-row="2" data-cell-col="3" data-surround-bits="0x5e3640" data-edge-color="#000000"><rect x="213" y="116" width="48" height="20" fill="#221946"/><text x="237" y="126" fill="#ffffff" font-size="16" text-anchor="middle" dominant-baseline="central">IYMS</text></g><g data-channel="cell" data-cell-index="12" data-cell-row="3" data-cell-col="0" data-surround-bits="0x8c7be5" data-edge-color="#ff3f2f" data-cell-quartile="4"><rect x="33" y="156" width="48" height="20" fill="#44be12"/><text x="57" y="166" fill="#000000" font-size="16" text-anchor="middle" dominant-baseline="central">CK7E</text><polygon points="33,176 33,166 43,176" fill="#000000"/></g><g data-channel="cell" data-cell-index="13" data-cell-row="3" data-cell-col="1" data-surround-bits="0x535276" data-edge-color="#2f3fbf" data-cell-quartile="1"><rect x="93" y="156" width="48" height="20" fill="#0020f8"/><text x="117" y="166" fill="#ffffff" font-size="16" text-anchor="middle" dominant-baseline="central">7AQA</text><polygon points="93,156 103,156 93,166" fill="#ffffff"/></g><g data-channel="cell" data-cell-index="14" data-cell-row="3" data-cell-col="2" data-surround-bits="0xd865f" data-edge-color="#ffffff"><rect x="153" y="156" width="48" height="20" fill="#aabbe4"/><text x="177" y="166" fill="#000000" font-size="16" text-anchor="middle" dominant-baseline="central">4S52</text></g><g data-channel="cell" data-cell-index="15" data-cell-row="3" data-cell-col="3" data-surround-bits="0x1afe82" data-edge-color="#2f3fbf"><rect x="213" y="156" width="48" height="20" fill="#8833ce"/><text x="237" y="166" fill="#ffffff" font-size="16" text-anchor="middle" dominant-baseline="central">ZY</text></g></g></g><g data-channel="color-bar" data-bar-slots="15" data-bar-marker-left="2" data-bar-marker-right="0"><g data-color-bar-rank="0" data-color-bar-band="W"><rect x="1" y="1" width="20" height="36.077" fill="#ffffff"/><text x="11" y="33.557" fill="#000000" font-size="16" text-anchor="middle" data-color-bar-letter="true">w</text></g><g data-color-bar-rank="1" data-color-bar-band="K"><rect x="1" y="37.077" width="20" height="63.099" fill="#000000"/><text x="11" y="96.656" fill="#ffffff" font-size="16" text-anchor="middle" data-color-bar-letter="true">k</text></g><g data-color-bar-rank="2" data-color-bar-band="R"><rect x="1" y="100.176" width="20" height="41.133" fill="#ff3f2f"/><text x="11" y="137.789" fill="#000000" font-size="16" text-anchor="middle" data-color-bar-letter="true">r</text></g><g data-color-bar-rank="3" data-color-bar-band="B"><rect x="1" y="141.309" width="20" height="49.691" fill="#2f3fbf"/><text x="11" y="187.48" fill="#ffffff" font-size="16" text-anchor="middle" data-color-bar-letter="true">b</text></g><circle cx="5.6" cy="32.667" r="3.4" fill="#ffffff" stroke="#000000" stroke-width="0.75" data-bar-marker="left"/><circle cx="16.4" cy="7.333" r="3.4" fill="#ffffff" stroke="#000000" stroke-width="0.75" data-bar-marker="right"/></g><g data-channel="label-top"><text x="27" y="16" fill="#666666" font-size="12" dominant-baseline="central">CIDv1 raw: b...</text></g><line x1="0" y1="0.5" x2="273" y2="0.5" stroke="#808080" stroke-width="1" shape-rendering="crispEdges"/><line x1="272.5" y1="0" x2="272.5" y2="192" stroke="#808080" stroke-width="1" shape-rendering="crispEdges"/><line x1="0" y1="191.5" x2="273" y2="191.5" stroke="#808080" stroke-width="1" shape-rendering="crispEdges"/><line x1="0.5" y1="0" x2="0.5" y2="192" stroke="#808080" stroke-width="1" shape-rendering="crispEdges"/><line x1="21.5" y1="0" x2="21.5" y2="192" stroke="#808080" stroke-width="1" shape-rendering="crispEdges"/></svg>