<svg width="273.0" height="192.0" viewBox="0 0 273.0 192.0" xmlns="http://www.w3.org/2000/svg" data-entviz-version="v10" data-entviz-lib="0.10.0" data-input-bytes="59" data-cols="4" data-rows="4"><defs><clipPath id="grid-clip-9c869a034cc31ebe-4x4"><rect x="27.0" y="26.0" width="240.0" height="160.0"/></clipPath></defs><rect x="0" y="0" width="273.0" height="192.0" fill="#ffffff"/><g data-channel="grid"><rect x="27.0" y="26.0" width="240.0" height="160.0" fill="#e7be00"/><g><rect x="33.0" y="26.0" width="6.0" height="10.0" fill="#2f3fbf"/><rect x="45.0" y="26.0" width="6.0" height="10.0" fill="#2f3fbf"/><rect x="51.0" y="26.0" width="6.0" height="10.0" fill="#2f3fbf"/><rect x="69.0" y="26.0" width="6.0" height="10.0" fill="#2f3fbf"/><rect x="81.0" y="26.0" width="6.0" height="10.0" fill="#2f3fbf"/><rect x="81.0" y="36.0" width="6.0" height="10.0" fill="#2f3fbf"/><rect x="63.0" y="56.0" width="6.0" height="10.0" fill="#2f3fbf"/><rect x="45.0" y="56.0" width="6.0" height="10.0" fill="#2f3fbf"/><rect x="39.0" y="56.0" width="6.0" height="10.0" fill="#2f3fbf"/><rect x="33.0" y="56.0" width="6.0" height="10.0" fill="#2f3fbf"/><rect x="27.0" y="36.0" width="6.0" height="10.0" fill="#2f3fbf"/><rect x="87.0" y="26.0" width="6.0" height="10.0" fill="#000000"/><rect x="93.0" y="26.0" width="6.0" height="10.0" fill="#000000"/><rect x="123.0" y="26.0" width="6.0" height="10.0" fill="#000000"/><rect x="129.0" y="26.0" width="6.0" height="10.0" fill="#000000"/><rect x="141.0" y="36.0" width="6.0" height="10.0" fill="#000000"/><rect x="141.0" y="46.0" width="6.0" height="10.0" fill="#000000"/><rect x="129.0" y="56.0" width="6.0" height="10.0" fill="#000000"/><rect x="117.0" y="56.0" width="6.0" height="10.0" fill="#000000"/><rect x="111.0" y="56.0" width="6.0" height="10.0" fill="#000000"/><rect x="153.0" y="26.0" width="6.0" height="10.0" fill="#2f3fbf"/><rect x="159.0" y="26.0" width="6.0" height="10.0" fill="#2f3fbf"/><rect x="183.0" y="26.0" width="6.0" height="10.0" fill="#2f3fbf"/><rect x="201.0" y="26.0" width="6.0" height="10.0" fill="#2f3fbf"/><rect x="201.0" y="36.0" width="6.0" height="10.0" fill="#2f3fbf"/><rect x="201.0" y="46.0" width="6.0" height="10.0" fill="#2f3fbf"/><rect x="201.0" y="56.0" width="6.0" height="10.0" fill="#2f3fbf"/><rect x="195.0" y="56.0" width="6.0" height="10.0" fill="#2f3fbf"/><rect x="183.0" y="56.0" width="6.0" height="10.0" fill="#2f3fbf"/><rect x="171.0" y="56.0" width="6.0" height="10.0" fill="#2f3fbf"/><rect x="165.0" y="56.0" width="6.0" height="10.0" fill="#2f3fbf"/><rect x="159.0" y="56.0" width="6.0" height="10.0" fill="#2f3fbf"/><rect x="153.0" y="56.0" width="6.0" height="10.0" fill="#2f3fbf"/><rect x="219.0" y="26.0" width="6.0" height="10.0" fill="#2f3fbf"/><rect x="225.0" y="26.0" width="6.0" height="10.0" fill="#2f3fbf"/><rect x="243.0" y="26.0" width="6.0" height="10.0" fill="#2f3fbf"/><rect x="249.0" y="26.0" width="6.0" height="10.0" fill="#2f3fbf"/><rect x="261.0" y="26.0" width="6.0" height="10.0" fill="#2f3fbf"/><rect x="261.0" y="36.0" width="6.0" height="10.0" fill="#2f3fbf"/><rect x="261.0" y="46.0" width="6.0" height="10.0" fill="#2f3fbf"/><rect x="261.0" y="56.0" width="6.0" height="10.0" fill="#2f3fbf"/><rect x="255.0" y="56.0" width="6.0" height="10.0" fill="#2f3fbf"/><rect x="249.0" y="56.0" width="6.0" height="10.0" fill="#2f3fbf"/><rect x="243.0" y="56.0" width="6.0" height="10.0" fill="#2f3fbf"/><rect x="237.0" y="56.0" width="6.0" height="10.0" fill="#2f3fbf"/><rect x="231.0" y="56.0" width="6.0" height="10.0" fill="#2f3fbf"/><rect x="219.0" y="56.0" width="6.0" height="10.0" fill="#2f3fbf"/><rect x="207.0" y="46.0" width="6.0" height="10.0" fill="#2f3fbf"/><rect x="207.0" y="36.0" width="6.0" height="10.0" fill="#2f3fbf"/><rect x="87.0" y="66.0" width="6.0" height="10.0" fill="#2f3fbf"/><rect x="99.0" y="66.0" width="6.0" height="10.0" fill="#2f3fbf"/><rect x="105.0" y="66.0" width="6.0" height="10.0" fill="#2f3fbf"/><rect x="117.0" y="66.0" width="6.0" height="10.0" fill="#2f3fbf"/><rect x="141.0" y="66.0" width="6.0" height="10.0" fill="#2f3fbf"/><rect x="141.0" y="86.0" width="6.0" height="10.0" fill="#2f3fbf"/><rect x="123.0" y="96.0" width="6.0" height="10.0" fill="#2f3fbf"/><rect x="105.0" y="96.0" width="6.0" height="10.0" fill="#2f3fbf"/><rect x="93.0" y="96.0" width="6.0" height="10.0" fill="#2f3fbf"/><rect x="87.0" y="96.0" width="6.0" height="10.0" fill="#2f3fbf"/><rect x="153.0" y="66.0" width="6.0" height="10.0" fill="#2f3fbf"/><rect x="201.0" y="86.0" width="6.0" height="10.0" fill="#2f3fbf"/><rect x="195.0" y="96.0" width="6.0" height="10.0" fill="#2f3fbf"/><rect x="183.0" y="96.0" width="6.0" height="10.0" fill="#2f3fbf"/><rect x="153.0" y="96.0" width="6.0" height="10.0" fill="#2f3fbf"/><rect x="147.0" y="96.0" width="6.0" height="10.0" fill="#2f3fbf"/><rect x="147.0" y="86.0" width="6.0" height="10.0" fill="#2f3fbf"/><rect x="147.0" y="76.0" width="6.0" height="10.0" fill="#2f3fbf"/><rect x="207.0" y="66.0" width="6.0" height="10.0" fill="#ff3f2f"/><rect x="219.0" y="66.0" width="6.0" height="10.0" fill="#ff3f2f"/><rect x="243.0" y="66.0" width="6.0" height="10.0" fill="#ff3f2f"/><rect x="255.0" y="66.0" width="6.0" height="10.0" fill="#ff3f2f"/><rect x="261.0" y="66.0" width="6.0" height="10.0" fill="#ff3f2f"/><rect x="261.0" y="76.0" width="6.0" height="10.0" fill="#ff3f2f"/><rect x="261.0" y="86.0" width="6.0" height="10.0" fill="#ff3f2f"/><rect x="255.0" y="96.0" width="6.0" height="10.0" fill="#ff3f2f"/><rect x="249.0" y="96.0" width="6.0" height="10.0" fill="#ff3f2f"/><rect x="219.0" y="96.0" width="6.0" height="10.0" fill="#ff3f2f"/><rect x="213.0" y="96.0" width="6.0" height="10.0" fill="#ff3f2f"/><rect x="207.0" y="86.0" width="6.0" height="10.0" fill="#ff3f2f"/><rect x="27.0" y="106.0" width="6.0" height="10.0" fill="#2f3fbf"/><rect x="33.0" y="106.0" width="6.0" height="10.0" fill="#2f3fbf"/><rect x="39.0" y="106.0" width="6.0" height="10.0" fill="#2f3fbf"/><rect x="51.0" y="106.0" width="6.0" height="10.0" fill="#2f3fbf"/><rect x="57.0" y="106.0" width="6.0" height="10.0" fill="#2f3fbf"/><rect x="63.0" y="106.0" width="6.0" height="10.0" fill="#2f3fbf"/><rect x="69.0" y="106.0" width="6.0" height="10.0" fill="#2f3fbf"/><rect x="75.0" y="106.0" width="6.0" height="10.0" fill="#2f3fbf"/><rect x="81.0" y="106.0" width="6.0" height="10.0" fill="#2f3fbf"/><rect x="81.0" y="116.0" width="6.0" height="10.0" fill="#2f3fbf"/><rect x="51.0" y="136.0" width="6.0" height="10.0" fill="#2f3fbf"/><rect x="39.0" y="136.0" width="6.0" height="10.0" fill="#2f3fbf"/><rect x="33.0" y="136.0" width="6.0" height="10.0" fill="#2f3fbf"/><rect x="27.0" y="136.0" width="6.0" height="10.0" fill="#2f3fbf"/><rect x="27.0" y="126.0" width="6.0" height="10.0" fill="#2f3fbf"/><rect x="99.0" y="106.0" width="6.0" height="10.0" fill="#ffffff"/><rect x="117.0" y="106.0" width="6.0" height="10.0" fill="#ffffff"/><rect x="129.0" y="106.0" width="6.0" height="10.0" fill="#ffffff"/><rect x="141.0" y="116.0" width="6.0" height="10.0" fill="#ffffff"/><rect x="141.0" y="136.0" width="6.0" height="10.0" fill="#ffffff"/><rect x="135.0" y="136.0" width="6.0" height="10.0" fill="#ffffff"/><rect x="129.0" y="136.0" width="6.0" height="10.0" fill="#ffffff"/><rect x="117.0" y="136.0" width="6.0" height="10.0" fill="#ffffff"/><rect x="111.0" y="136.0" width="6.0" height="10.0" fill="#ffffff"/><rect x="87.0" y="136.0" width="6.0" height="10.0" fill="#ffffff"/><rect x="87.0" y="126.0" width="6.0" height="10.0" fill="#ffffff"/><rect x="87.0" y="116.0" width="6.0" height="10.0" fill="#ffffff"/><rect x="153.0" y="106.0" width="6.0" height="10.0" fill="#2f3fbf"/><rect x="159.0" y="106.0" width="6.0" height="10.0" fill="#2f3fbf"/><rect x="177.0" y="106.0" width="6.0" height="10.0" fill="#2f3fbf"/><rect x="189.0" y="106.0" width="6.0" height="10.0" fill="#2f3fbf"/><rect x="195.0" y="136.0" width="6.0" height="10.0" fill="#2f3fbf"/><rect x="189.0" y="136.0" width="6.0" height="10.0" fill="#2f3fbf"/><rect x="183.0" y="136.0" width="6.0" height="10.0" fill="#2f3fbf"/><rect x="171.0" y="136.0" width="6.0" height="10.0" fill="#2f3fbf"/><rect x="165.0" y="136.0" width="6.0" height="10.0" fill="#2f3fbf"/><rect x="243.0" y="106.0" width="6.0" height="10.0" fill="#000000"/><rect x="261.0" y="106.0" width="6.0" height="10.0" fill="#000000"/><rect x="261.0" y="116.0" width="6.0" height="10.0" fill="#000000"/><rect x="261.0" y="136.0" width="6.0" height="10.0" fill="#000000"/><rect x="255.0" y="136.0" width="6.0" height="10.0" fill="#000000"/><rect x="231.0" y="136.0" width="6.0" height="10.0" fill="#000000"/><rect x="225.0" y="136.0" width="6.0" height="10.0" fill="#000000"/><rect x="219.0" y="136.0" width="6.0" height="10.0" fill="#000000"/><rect x="213.0" y="136.0" width="6.0" height="10.0" fill="#000000"/><rect x="207.0" y="126.0" width="6.0" height="10.0" fill="#000000"/><rect x="27.0" y="146.0" width="6.0" height="10.0" fill="#ff3f2f"/><rect x="39.0" y="146.0" width="6.0" height="10.0" fill="#ff3f2f"/><rect x="57.0" y="146.0" width="6.0" height="10.0" fill="#ff3f2f"/><rect x="63.0" y="146.0" width="6.0" height="10.0" fill="#ff3f2f"/><rect x="69.0" y="146.0" width="6.0" height="10.0" fill="#ff3f2f"/><rect x="75.0" y="146.0" width="6.0" height="10.0" fill="#ff3f2f"/><rect x="81.0" y="146.0" width="6.0" height="10.0" fill="#ff3f2f"/><rect x="81.0" y="166.0" width="6.0" height="10.0" fill="#ff3f2f"/><rect x="81.0" y="176.0" width="6.0" height="10.0" fill="#ff3f2f"/><rect x="75.0" y="176.0" width="6.0" height="10.0" fill="#ff3f2f"/><rect x="69.0" y="176.0" width="6.0" height="10.0" fill="#ff3f2f"/><rect x="45.0" y="176.0" width="6.0" height="10.0" fill="#ff3f2f"/><rect x="39.0" y="176.0" width="6.0" height="10.0" fill="#ff3f2f"/><rect x="27.0" y="156.0" width="6.0" height="10.0" fill="#ff3f2f"/><rect x="93.0" y="146.0" width="6.0" height="10.0" fill="#2f3fbf"/><rect x="99.0" y="146.0" width="6.0" height="10.0" fill="#2f3fbf"/><rect x="111.0" y="146.0" width="6.0" height="10.0" fill="#2f3fbf"/><rect x="117.0" y="146.0" width="6.0" height="10.0" fill="#2f3fbf"/><rect x="123.0" y="146.0" width="6.0" height="10.0" fill="#2f3fbf"/><rect x="141.0" y="146.0" width="6.0" height="10.0" fill="#2f3fbf"/><rect x="141.0" y="176.0" width="6.0" height="10.0" fill="#2f3fbf"/><rect x="129.0" y="176.0" width="6.0" height="10.0" fill="#2f3fbf"/><rect x="117.0" y="176.0" width="6.0" height="10.0" fill="#2f3fbf"/><rect x="111.0" y="176.0" width="6.0" height="10.0" fill="#2f3fbf"/><rect x="93.0" y="176.0" width="6.0" height="10.0" fill="#2f3fbf"/><rect x="87.0" y="166.0" width="6.0" height="10.0" fill="#2f3fbf"/><rect x="147.0" y="146.0" width="6.0" height="10.0" fill="#ffffff"/><rect x="153.0" y="146.0" width="6.0" height="10.0" fill="#ffffff"/><rect x="159.0" y="146.0" width="6.0" height="10.0" fill="#ffffff"/><rect x="165.0" y="146.0" width="6.0" height="10.0" fill="#ffffff"/><rect x="171.0" y="146.0" width="6.0" height="10.0" fill="#ffffff"/><rect x="183.0" y="146.0" width="6.0" height="10.0" fill="#ffffff"/><rect x="201.0" y="146.0" width="6.0" height="10.0" fill="#ffffff"/><rect x="201.0" y="156.0" width="6.0" height="10.0" fill="#ffffff"/><rect x="183.0" y="176.0" width="6.0" height="10.0" fill="#ffffff"/><rect x="177.0" y="176.0" width="6.0" height="10.0" fill="#ffffff"/><rect x="165.0" y="176.0" width="6.0" height="10.0" fill="#ffffff"/><rect x="159.0" y="176.0" width="6.0" height="10.0" fill="#ffffff"/><rect x="213.0" y="146.0" width="6.0" height="10.0" fill="#2f3fbf"/><rect x="249.0" y="146.0" width="6.0" height="10.0" fill="#2f3fbf"/><rect x="261.0" y="146.0" width="6.0" height="10.0" fill="#2f3fbf"/><rect x="261.0" y="156.0" width="6.0" height="10.0" fill="#2f3fbf"/><rect x="261.0" y="166.0" width="6.0" height="10.0" fill="#2f3fbf"/><rect x="261.0" y="176.0" width="6.0" height="10.0" fill="#2f3fbf"/><rect x="255.0" y="176.0" width="6.0" height="10.0" fill="#2f3fbf"/><rect x="249.0" y="176.0" width="6.0" height="10.0" fill="#2f3fbf"/><rect x="243.0" y="176.0" width="6.0" height="10.0" fill="#2f3fbf"/><rect x="231.0" y="176.0" width="6.0" height="10.0" fill="#2f3fbf"/><rect x="219.0" y="176.0" width="6.0" height="10.0" fill="#2f3fbf"/><rect x="213.0" y="176.0" width="6.0" height="10.0" fill="#2f3fbf"/></g><g clip-path="url(#grid-clip-9c869a034cc31ebe-4x4)" data-channel="ellipse" data-ellipse-anchor-x="87.0" data-ellipse-anchor-y="66.0" data-ellipse-rx="99.5132152028061" data-ellipse-ry="109.89720287614239" data-ellipse-rotation-deg="24.0"><ellipse cx="87.0" cy="66.0" rx="99.5132152028061" ry="109.89720287614239" transform="rotate(24.0 87.0 66.0)" fill="#000000" stroke="#000000" fill-opacity="0.2" stroke-opacity="0.3" stroke-width="2.0"/></g><g><g data-channel="cell" data-cell-index="0" data-cell-row="0" data-cell-col="0"><rect x="33.0" y="36.0" width="48.0" height="20.0" fill="#115501"/><text x="57.0" y="46.0" fill="#ffffff" style="font-family: &quot;JetBrains Mono&quot;, &quot;Menlo&quot;, &quot;Consolas&quot;, &quot;DejaVu Sans Mono&quot;, &quot;Liberation Mono&quot;, &quot;Roboto Mono&quot;, &quot;Noto Sans Mono&quot;, monospace; font-size: 16.0px;" text-anchor="middle" dominant-baseline="central">AFKR</text></g><g data-channel="cell" data-cell-index="1" data-cell-row="0" data-cell-col="1"><rect x="93.0" y="36.0" width="48.0" height="20.0" fill="#770c22"/><text x="117.0" y="46.0" fill="#ffffff" style="font-family: &quot;JetBrains Mono&quot;, &quot;Menlo&quot;, &quot;Consolas&quot;, &quot;DejaVu Sans Mono&quot;, &quot;Liberation Mono&quot;, &quot;Roboto Mono&quot;, &quot;Noto Sans Mono&quot;, monospace; font-size: 16.0px;" text-anchor="middle" dominant-baseline="central">EIGH</text></g><g data-channel="cell" data-cell-index="2" data-cell-row="0" data-cell-col="2"><rect x="153.0" y="36.0" width="48.0" height="20.0" fill="#8814d0"/><text x="177.0" y="46.0" fill="#ffffff" style="font-family: &quot;JetBrains Mono&quot;, &quot;Menlo&quot;, &quot;Consolas&quot;, &quot;DejaVu Sans Mono&quot;, &quot;Liberation Mono&quot;, &quot;Roboto Mono&quot;, &quot;Noto Sans Mono&quot;, monospace; font-size: 16.0px;" text-anchor="middle" dominant-baseline="central">2AKI</text></g><g data-channel="cell" data-cell-index="3" data-cell-row="0" data-cell-col="3" data-cell-quartile="3"><rect x="213.0" y="36.0" width="48.0" height="20.0" fill="#888090"/><text x="237.0" y="46.0" fill="#000000" style="font-family: &quot;JetBrains Mono&quot;, &quot;Menlo&quot;, &quot;Consolas&quot;, &quot;DejaVu Sans Mono&quot;, &quot;Liberation Mono&quot;, &quot;Roboto Mono&quot;, &quot;Noto Sans Mono&quot;, monospace; font-size: 16.0px;" text-anchor="middle" dominant-baseline="central">SCAI</text><polygon points="261.0,56.0 261.0,46.0 251.0,56.0" fill="#000000"/></g><g data-channel="cell" data-cell-index="4" data-cell-row="1" data-cell-col="0" data-cell-blank="true" data-cell-blank-map="true"><rect x="33.0" y="76.0" width="48.0" height="20.0" rx="10.0" ry="10.0" fill="#ffffff" stroke="#000000" stroke-width="1"/><circle cx="51.0" cy="78.5" r="3.5" fill="#000000" data-blank-map-min="0,1"/><path d="M 58.8,83.5 H 67.2 M 63.0,79.3 V 87.7" fill="none" stroke="#000000" stroke-width="1.9250000000000003" stroke-linecap="butt" data-blank-map-max="1,2"/></g><g data-channel="cell" data-cell-index="5" data-cell-row="1" data-cell-col="1"><rect x="93.0" y="76.0" width="48.0" height="20.0" fill="#00c558"/><text x="117.0" y="86.0" fill="#000000" style="font-family: &quot;JetBrains Mono&quot;, &quot;Menlo&quot;, &quot;Consolas&quot;, &quot;DejaVu Sans Mono&quot;, &quot;Liberation Mono&quot;, &quot;Roboto Mono&quot;, &quot;Noto Sans Mono&quot;, monospace; font-size: 16.0px;" text-anchor="middle" dominant-baseline="central">LDCQ</text></g><g data-channel="cell" data-cell-index="6" data-cell-row="1" data-cell-col="2" data-cell-quartile="2"><rect x="153.0" y="76.0" width="48.0" height="20.0" fill="#886500"/><text x="177.0" y="86.0" fill="#ffffff" style="font-family: &quot;JetBrains Mono&quot;, &quot;Menlo&quot;, &quot;Consolas&quot;, &quot;DejaVu Sans Mono&quot;, &quot;Liberation Mono&quot;, &quot;Roboto Mono&quot;, &quot;Noto Sans Mono&quot;, monospace; font-size: 16.0px;" text-anchor="middle" dominant-baseline="central">ABSY</text><polygon points="201.0,76.0 191.0,76.0 201.0,86.0" fill="#ffffff"/></g><g data-channel="cell" data-cell-index="7" data-cell-row="1" data-cell-col="3"><rect x="213.0" y="76.0" width="48.0" height="20.0" fill="#55c636"/><text x="237.0" y="86.0" fill="#000000" style="font-family: &quot;JetBrains Mono&quot;, &quot;Menlo&quot;, &quot;Consolas&quot;, &quot;DejaVu Sans Mono&quot;, &quot;Liberation Mono&quot;, &quot;Roboto Mono&quot;, &quot;Noto Sans Mono&quot;, monospace; font-size: 16.0px;" text-anchor="middle" dominant-baseline="central">G3DF</text></g><g data-channel="cell" data-cell-index="8" data-cell-row="2" data-cell-col="0"><rect x="33.0" y="116.0" width="48.0" height="20.0" fill="#77848f"/><text x="57.0" y="126.0" fill="#000000" style="font-family: &quot;JetBrains Mono&quot;, &quot;Menlo&quot;, &quot;Consolas&quot;, &quot;DejaVu Sans Mono&quot;, &quot;Liberation Mono&quot;, &quot;Roboto Mono&quot;, &quot;Noto Sans Mono&quot;, monospace; font-size: 16.0px;" text-anchor="middle" dominant-baseline="central">R6CH</text></g><g data-channel="cell" data-cell-index="9" data-cell-row="2" data-cell-col="1"><rect x="93.0" y="116.0" width="48.0" height="20.0" fill="#66caa6"/><text x="117.0" y="126.0" fill="#000000" style="font-family: &quot;JetBrains Mono&quot;, &quot;Menlo&quot;, &quot;Consolas&quot;, &quot;DejaVu Sans Mono&quot;, &quot;Liberation Mono&quot;, &quot;Roboto Mono&quot;, &quot;Noto Sans Mono&quot;, monospace; font-size: 16.0px;" text-anchor="middle" dominant-baseline="central">U3FG</text></g><g data-channel="cell" data-cell-index="10" data-cell-row="2" data-cell-col="2"><rect x="153.0" y="116.0" width="48.0" height="20.0" fill="#66487c"/><text x="177.0" y="126.0" fill="#ffffff" style="font-family: &quot;JetBrains Mono&quot;, &quot;Menlo&quot;, &quot;Consolas&quot;, &quot;DejaVu Sans Mono&quot;, &quot;Liberation Mono&quot;, &quot;Roboto Mono&quot;, &quot;Noto Sans Mono&quot;, monospace; font-size: 16.0px;" text-anchor="middle" dominant-baseline="central">PREG</text></g><g data-channel="cell" data-cell-index="11" data-cell-row="2" data-cell-col="3"><rect x="213.0" y="116.0" width="48.0" height="20.0" fill="#221946"/><text x="237.0" y="126.0" fill="#ffffff" style="font-family: &quot;JetBrains Mono&quot;, &quot;Menlo&quot;, &quot;Consolas&quot;, &quot;DejaVu Sans Mono&quot;, &quot;Liberation Mono&quot;, &quot;Roboto Mono&quot;, &quot;Noto Sans Mono&quot;, monospace; font-size: 16.0px;" text-anchor="middle" dominant-baseline="central">IYMS</text></g><g data-channel="cell" data-cell-index="12" data-cell-row="3" data-cell-col="0" data-cell-quartile="4"><rect x="33.0" y="156.0" width="48.0" height="20.0" fill="#44be12"/><text x="57.0" y="166.0" fill="#000000" style="font-family: &quot;JetBrains Mono&quot;, &quot;Menlo&quot;, &quot;Consolas&quot;, &quot;DejaVu Sans Mono&quot;, &quot;Liberation Mono&quot;, &quot;Roboto Mono&quot;, &quot;Noto Sans Mono&quot;, monospace; font-size: 16.0px;" text-anchor="middle" dominant-baseline="central">CK7E</text><polygon points="33.0,176.0 33.0,166.0 43.0,176.0" fill="#000000"/></g><g data-channel="cell" data-cell-index="13" data-cell-row="3" data-cell-col="1" data-cell-quartile="1"><rect x="93.0" y="156.0" width="48.0" height="20.0" fill="#0020f8"/><text x="117.0" y="166.0" fill="#ffffff" style="font-family: &quot;JetBrains Mono&quot;, &quot;Menlo&quot;, &quot;Consolas&quot;, &quot;DejaVu Sans Mono&quot;, &quot;Liberation Mono&quot;, &quot;Roboto Mono&quot;, &quot;Noto Sans Mono&quot;, monospace; font-size: 16.0px;" text-anchor="middle" dominant-baseline="central">7AQA</text><polygon points="93.0,156.0 103.0,156.0 93.0,166.0" fill="#ffffff"/></g><g data-channel="cell" data-cell-index="14" data-cell-row="3" data-cell-col="2"><rect x="153.0" y="156.0" width="48.0" height="20.0" fill="#aabbe4"/><text x="177.0" y="166.0" fill="#000000" style="font-family: &quot;JetBrains Mono&quot;, &quot;Menlo&quot;, &quot;Consolas&quot;, &quot;DejaVu Sans Mono&quot;, &quot;Liberation Mono&quot;, &quot;Roboto Mono&quot;, &quot;Noto Sans Mono&quot;, monospace; font-size: 16.0px;" text-anchor="middle" dominant-baseline="central">4S52</text></g><g data-channel="cell" data-cell-index="15" data-cell-row="3" data-cell-col="3"><rect x="213.0" y="156.0" width="48.0" height="20.0" fill="#8833ce"/><text x="237.0" y="166.0" fill="#ffffff" style="font-family: &quot;JetBrains Mono&quot;, &quot;Menlo&quot;, &quot;Consolas&quot;, &quot;DejaVu Sans Mono&quot;, &quot;Liberation Mono&quot;, &quot;Roboto Mono&quot;, &quot;Noto Sans Mono&quot;, monospace; font-size: 16.0px;" text-anchor="middle" dominant-baseline="central">ZY</text></g></g></g><g data-channel="color-bar" data-bar-slots="15" data-bar-marker-left="2" data-bar-marker-right="0"><g data-color-bar-rank="0" data-color-bar-band="W"><rect x="1" y="1" width="20.0" height="36.07696313313539" fill="#ffffff"/><text x="11.0" y="33.55696313313539" fill="#000000" style="font-family: &quot;JetBrains Mono&quot;, &quot;Menlo&quot;, &quot;Consolas&quot;, &quot;DejaVu Sans Mono&quot;, &quot;Liberation Mono&quot;, &quot;Roboto Mono&quot;, &quot;Noto Sans Mono&quot;, monospace; font-size: 16.0px;" text-anchor="middle" data-color-bar-letter="true">w</text></g><g data-color-bar-rank="1" data-color-bar-band="K"><rect x="1" y="37.07696313313539" width="20.0" height="63.09883400087338" fill="#000000"/><text x="11.0" y="96.65579713400878" fill="#ffffff" style="font-family: &quot;JetBrains Mono&quot;, &quot;Menlo&quot;, &quot;Consolas&quot;, &quot;DejaVu Sans Mono&quot;, &quot;Liberation Mono&quot;, &quot;Roboto Mono&quot;, &quot;Noto Sans Mono&quot;, monospace; font-size: 16.0px;" text-anchor="middle" data-color-bar-letter="true">k</text></g><g data-color-bar-rank="2" data-color-bar-band="R"><rect x="1" y="100.17579713400877" width="20.0" height="41.133127246513986" fill="#ff3f2f"/><text x="11.0" y="137.78892438052276" fill="#000000" style="font-family: &quot;JetBrains Mono&quot;, &quot;Menlo&quot;, &quot;Consolas&quot;, &quot;DejaVu Sans Mono&quot;, &quot;Liberation Mono&quot;, &quot;Roboto Mono&quot;, &quot;Noto Sans Mono&quot;, monospace; font-size: 16.0px;" text-anchor="middle" data-color-bar-letter="true">r</text></g><g data-color-bar-rank="3" data-color-bar-band="B"><rect x="1" y="141.30892438052277" width="20.0" height="49.69107561947723" fill="#2f3fbf"/><text x="11.0" y="187.48" fill="#ffffff" style="font-family: &quot;JetBrains Mono&quot;, &quot;Menlo&quot;, &quot;Consolas&quot;, &quot;DejaVu Sans Mono&quot;, &quot;Liberation Mono&quot;, &quot;Roboto Mono&quot;, &quot;Noto Sans Mono&quot;, monospace; font-size: 16.0px;" text-anchor="middle" data-color-bar-letter="true">b</text></g><circle cx="5.6000000000000005" cy="32.666666666666664" r="3.4000000000000004" fill="#ffffff" stroke="#000000" stroke-width="0.75" data-bar-marker="left"/><circle cx="16.4" cy="7.333333333333333" r="3.4000000000000004" fill="#ffffff" stroke="#000000" stroke-width="0.75" data-bar-marker="right"/></g><g data-channel="label-top"><text x="27.0" y="16.0" fill="#666666" style="font-family: &quot;JetBrains Mono&quot;, &quot;Menlo&quot;, &quot;Consolas&quot;, &quot;DejaVu Sans Mono&quot;, &quot;Liberation Mono&quot;, &quot;Roboto Mono&quot;, &quot;Noto Sans Mono&quot;, monospace; font-size: 12.0px;" dominant-baseline="central">CIDv1 raw: b...</text></g><line x1="0" y1="0.5" x2="273.0" y2="0.5" stroke="#808080" stroke-width="1" shape-rendering="crispEdges"/><line x1="272.5" y1="0" x2="272.5" y2="192.0" stroke="#808080" stroke-width="1" shape-rendering="crispEdges"/><line x1="0" y1="191.5" x2="273.0" y2="191.5" stroke="#808080" stroke-width="1" shape-rendering="crispEdges"/><line x1="0.5" y1="0" x2="0.5" y2="192.0" stroke="#808080" stroke-width="1" shape-rendering="crispEdges"/><line x1="21.5" y1="0" x2="21.5" y2="192.0" stroke="#808080" stroke-width="1" shape-rendering="crispEdges"/></svg>