<svg width="273.0" height="152.0" viewBox="0 0 273.0 152.0" xmlns="http://www.w3.org/2000/svg" data-entviz-version="v6" data-entviz-lib="0.6.0" data-input-bytes="64" data-cols="4" data-rows="3"><defs><clipPath id="grid-clip-8ed0861e43294df7-4x3"><rect x="27.0" y="26.0" width="240.0" height="120.0"/></clipPath></defs><rect x="0" y="0" width="273.0" height="152.0" fill="#ffffff"/><g data-channel="grid"><rect x="27.0" y="26.0" width="240.0" height="120.0" fill="#2f3fbf"/><g><rect x="33.0" y="26.0" width="6.0" height="10.0" fill="#ffffff"/><rect x="39.0" y="26.0" width="6.0" height="10.0" fill="#ffffff"/><rect x="69.0" y="26.0" width="6.0" height="10.0" fill="#ffffff"/><rect x="81.0" y="56.0" width="6.0" height="10.0" fill="#ffffff"/><rect x="69.0" y="56.0" width="6.0" height="10.0" fill="#ffffff"/><rect x="63.0" y="56.0" width="6.0" height="10.0" fill="#ffffff"/><rect x="51.0" y="56.0" width="6.0" height="10.0" fill="#ffffff"/><rect x="45.0" y="56.0" width="6.0" height="10.0" fill="#ffffff"/><rect x="39.0" y="56.0" width="6.0" height="10.0" fill="#ffffff"/><rect x="27.0" y="36.0" width="6.0" height="10.0" fill="#ffffff"/><rect x="87.0" y="26.0" width="6.0" height="10.0" fill="#ffffff"/><rect x="105.0" y="26.0" width="6.0" height="10.0" fill="#ffffff"/><rect x="117.0" y="26.0" width="6.0" height="10.0" fill="#ffffff"/><rect x="135.0" y="26.0" width="6.0" height="10.0" fill="#ffffff"/><rect x="141.0" y="26.0" width="6.0" height="10.0" fill="#ffffff"/><rect x="129.0" y="56.0" width="6.0" height="10.0" fill="#ffffff"/><rect x="111.0" y="56.0" width="6.0" height="10.0" fill="#ffffff"/><rect x="105.0" y="56.0" width="6.0" height="10.0" fill="#ffffff"/><rect x="99.0" y="56.0" width="6.0" height="10.0" fill="#ffffff"/><rect x="93.0" y="56.0" width="6.0" height="10.0" fill="#ffffff"/><rect x="147.0" y="26.0" width="6.0" height="10.0" fill="#ffd966"/><rect x="177.0" y="26.0" width="6.0" height="10.0" fill="#ffd966"/><rect x="183.0" y="26.0" width="6.0" height="10.0" fill="#ffd966"/><rect x="195.0" y="26.0" width="6.0" height="10.0" fill="#ffd966"/><rect x="201.0" y="26.0" width="6.0" height="10.0" fill="#ffd966"/><rect x="201.0" y="36.0" width="6.0" height="10.0" fill="#ffd966"/><rect x="201.0" y="56.0" width="6.0" height="10.0" fill="#ffd966"/><rect x="195.0" y="56.0" width="6.0" height="10.0" fill="#ffd966"/><rect x="189.0" y="56.0" width="6.0" height="10.0" fill="#ffd966"/><rect x="183.0" y="56.0" width="6.0" height="10.0" fill="#ffd966"/><rect x="177.0" y="56.0" width="6.0" height="10.0" fill="#ffd966"/><rect x="165.0" y="56.0" width="6.0" height="10.0" fill="#ffd966"/><rect x="159.0" y="56.0" width="6.0" height="10.0" fill="#ffd966"/><rect x="147.0" y="46.0" width="6.0" height="10.0" fill="#ffd966"/><rect x="207.0" y="26.0" width="6.0" height="10.0" fill="#ff3f2f"/><rect x="213.0" y="26.0" width="6.0" height="10.0" fill="#ff3f2f"/><rect x="219.0" y="26.0" width="6.0" height="10.0" fill="#ff3f2f"/><rect x="237.0" y="26.0" width="6.0" height="10.0" fill="#ff3f2f"/><rect x="261.0" y="46.0" width="6.0" height="10.0" fill="#ff3f2f"/><rect x="243.0" y="56.0" width="6.0" height="10.0" fill="#ff3f2f"/><rect x="237.0" y="56.0" width="6.0" height="10.0" fill="#ff3f2f"/><rect x="225.0" y="56.0" width="6.0" height="10.0" fill="#ff3f2f"/><rect x="213.0" y="56.0" width="6.0" height="10.0" fill="#ff3f2f"/><rect x="207.0" y="56.0" width="6.0" height="10.0" fill="#ff3f2f"/><rect x="207.0" y="46.0" width="6.0" height="10.0" fill="#ff3f2f"/><rect x="27.0" y="66.0" width="6.0" height="10.0" fill="#ffd966"/><rect x="45.0" y="66.0" width="6.0" height="10.0" fill="#ffd966"/><rect x="57.0" y="66.0" width="6.0" height="10.0" fill="#ffd966"/><rect x="63.0" y="66.0" width="6.0" height="10.0" fill="#ffd966"/><rect x="69.0" y="66.0" width="6.0" height="10.0" fill="#ffd966"/><rect x="75.0" y="66.0" width="6.0" height="10.0" fill="#ffd966"/><rect x="81.0" y="86.0" width="6.0" height="10.0" fill="#ffd966"/><rect x="75.0" y="96.0" width="6.0" height="10.0" fill="#ffd966"/><rect x="63.0" y="96.0" width="6.0" height="10.0" fill="#ffd966"/><rect x="39.0" y="96.0" width="6.0" height="10.0" fill="#ffd966"/><rect x="33.0" y="96.0" width="6.0" height="10.0" fill="#ffd966"/><rect x="27.0" y="86.0" width="6.0" height="10.0" fill="#ffd966"/><rect x="27.0" y="76.0" width="6.0" height="10.0" fill="#ffd966"/><rect x="99.0" y="66.0" width="6.0" height="10.0" fill="#ff3f2f"/><rect x="117.0" y="66.0" width="6.0" height="10.0" fill="#ff3f2f"/><rect x="123.0" y="66.0" width="6.0" height="10.0" fill="#ff3f2f"/><rect x="141.0" y="66.0" width="6.0" height="10.0" fill="#ff3f2f"/><rect x="141.0" y="76.0" width="6.0" height="10.0" fill="#ff3f2f"/><rect x="123.0" y="96.0" width="6.0" height="10.0" fill="#ff3f2f"/><rect x="111.0" y="96.0" width="6.0" height="10.0" fill="#ff3f2f"/><rect x="99.0" y="96.0" width="6.0" height="10.0" fill="#ff3f2f"/><rect x="87.0" y="86.0" width="6.0" height="10.0" fill="#ff3f2f"/><rect x="87.0" y="76.0" width="6.0" height="10.0" fill="#ff3f2f"/><rect x="189.0" y="66.0" width="6.0" height="10.0" fill="#ffffff"/><rect x="195.0" y="66.0" width="6.0" height="10.0" fill="#ffffff"/><rect x="201.0" y="76.0" width="6.0" height="10.0" fill="#ffffff"/><rect x="201.0" y="96.0" width="6.0" height="10.0" fill="#ffffff"/><rect x="195.0" y="96.0" width="6.0" height="10.0" fill="#ffffff"/><rect x="189.0" y="96.0" width="6.0" height="10.0" fill="#ffffff"/><rect x="183.0" y="96.0" width="6.0" height="10.0" fill="#ffffff"/><rect x="177.0" y="96.0" width="6.0" height="10.0" fill="#ffffff"/><rect x="165.0" y="96.0" width="6.0" height="10.0" fill="#ffffff"/><rect x="159.0" y="96.0" width="6.0" height="10.0" fill="#ffffff"/><rect x="147.0" y="96.0" width="6.0" height="10.0" fill="#ffffff"/><rect x="237.0" y="66.0" width="6.0" height="10.0" fill="#000000"/><rect x="261.0" y="76.0" width="6.0" height="10.0" fill="#000000"/><rect x="249.0" y="96.0" width="6.0" height="10.0" fill="#000000"/><rect x="243.0" y="96.0" width="6.0" height="10.0" fill="#000000"/><rect x="237.0" y="96.0" width="6.0" height="10.0" fill="#000000"/><rect x="225.0" y="96.0" width="6.0" height="10.0" fill="#000000"/><rect x="213.0" y="96.0" width="6.0" height="10.0" fill="#000000"/><rect x="207.0" y="96.0" width="6.0" height="10.0" fill="#000000"/><rect x="207.0" y="86.0" width="6.0" height="10.0" fill="#000000"/><rect x="207.0" y="76.0" width="6.0" height="10.0" fill="#000000"/><rect x="87.0" y="106.0" width="6.0" height="10.0" fill="#000000"/><rect x="93.0" y="106.0" width="6.0" height="10.0" fill="#000000"/><rect x="105.0" y="106.0" width="6.0" height="10.0" fill="#000000"/><rect x="111.0" y="106.0" width="6.0" height="10.0" fill="#000000"/><rect x="117.0" y="106.0" width="6.0" height="10.0" fill="#000000"/><rect x="123.0" y="106.0" width="6.0" height="10.0" fill="#000000"/><rect x="129.0" y="106.0" width="6.0" height="10.0" fill="#000000"/><rect x="141.0" y="106.0" width="6.0" height="10.0" fill="#000000"/><rect x="141.0" y="116.0" width="6.0" height="10.0" fill="#000000"/><rect x="141.0" y="126.0" width="6.0" height="10.0" fill="#000000"/><rect x="117.0" y="136.0" width="6.0" height="10.0" fill="#000000"/><rect x="105.0" y="136.0" width="6.0" height="10.0" fill="#000000"/><rect x="99.0" y="136.0" width="6.0" height="10.0" fill="#000000"/><rect x="93.0" y="136.0" width="6.0" height="10.0" fill="#000000"/><rect x="87.0" y="126.0" width="6.0" height="10.0" fill="#000000"/><rect x="153.0" y="106.0" width="6.0" height="10.0" fill="#ffd966"/><rect x="159.0" y="106.0" width="6.0" height="10.0" fill="#ffd966"/><rect x="165.0" y="106.0" width="6.0" height="10.0" fill="#ffd966"/><rect x="171.0" y="106.0" width="6.0" height="10.0" fill="#ffd966"/><rect x="177.0" y="106.0" width="6.0" height="10.0" fill="#ffd966"/><rect x="183.0" y="106.0" width="6.0" height="10.0" fill="#ffd966"/><rect x="195.0" y="106.0" width="6.0" height="10.0" fill="#ffd966"/><rect x="201.0" y="106.0" width="6.0" height="10.0" fill="#ffd966"/><rect x="201.0" y="116.0" width="6.0" height="10.0" fill="#ffd966"/><rect x="201.0" y="126.0" width="6.0" height="10.0" fill="#ffd966"/><rect x="171.0" y="136.0" width="6.0" height="10.0" fill="#ffd966"/><rect x="153.0" y="136.0" width="6.0" height="10.0" fill="#ffd966"/><rect x="147.0" y="116.0" width="6.0" height="10.0" fill="#ffd966"/><rect x="207.0" y="106.0" width="6.0" height="10.0" fill="#ffffff"/><rect x="213.0" y="106.0" width="6.0" height="10.0" fill="#ffffff"/><rect x="261.0" y="116.0" width="6.0" height="10.0" fill="#ffffff"/><rect x="261.0" y="136.0" width="6.0" height="10.0" fill="#ffffff"/><rect x="249.0" y="136.0" width="6.0" height="10.0" fill="#ffffff"/><rect x="237.0" y="136.0" width="6.0" height="10.0" fill="#ffffff"/><rect x="207.0" y="136.0" width="6.0" height="10.0" fill="#ffffff"/><rect x="207.0" y="116.0" width="6.0" height="10.0" fill="#ffffff"/></g><g clip-path="url(#grid-clip-8ed0861e43294df7-4x3)" data-channel="ellipse" data-ellipse-anchor-x="147.0" data-ellipse-anchor-y="106.0" data-ellipse-rx="66.3421434685374" data-ellipse-ry="31.728851224083105" data-ellipse-rotation-deg="108.0"><ellipse cx="147.0" cy="106.0" rx="66.3421434685374" ry="31.728851224083105" transform="rotate(108.0 147.0 106.0)" fill="#ffffff" fill-opacity="0.4"/></g><g><g data-channel="cell" data-cell-index="0" data-cell-row="0" data-cell-col="0"><rect x="33.0" y="36.0" width="48.0" height="20.0" fill="#beadde"/><text x="57.0" y="46.0" fill="#000000" style="font-family: &quot;JetBrains Mono&quot;, &quot;Menlo&quot;, &quot;Consolas&quot;, &quot;DejaVu Sans Mono&quot;, &quot;Liberation Mono&quot;, &quot;Roboto Mono&quot;, &quot;Noto Sans Mono&quot;, monospace; font-size: 12.0px;" text-anchor="middle" dominant-baseline="central">deadbe</text></g><g data-channel="cell" data-cell-index="1" data-cell-row="0" data-cell-col="1" data-cell-quartile="4"><rect x="93.0" y="36.0" width="48.0" height="20.0" fill="#fecaef"/><text x="117.0" y="46.0" fill="#000000" style="font-family: &quot;JetBrains Mono&quot;, &quot;Menlo&quot;, &quot;Consolas&quot;, &quot;DejaVu Sans Mono&quot;, &quot;Liberation Mono&quot;, &quot;Roboto Mono&quot;, &quot;Noto Sans Mono&quot;, monospace; font-size: 12.0px;" text-anchor="middle" dominant-baseline="central">efcafe</text><polygon points="93.0,56.0 93.0,46.0 103.0,56.0" fill="#000000"/></g><g data-channel="cell" data-cell-index="2" data-cell-row="0" data-cell-col="2" data-cell-quartile="3"><rect x="153.0" y="36.0" width="48.0" height="20.0" fill="#12beba"/><text x="177.0" y="46.0" fill="#000000" style="font-family: &quot;JetBrains Mono&quot;, &quot;Menlo&quot;, &quot;Consolas&quot;, &quot;DejaVu Sans Mono&quot;, &quot;Liberation Mono&quot;, &quot;Roboto Mono&quot;, &quot;Noto Sans Mono&quot;, monospace; font-size: 12.0px;" text-anchor="middle" dominant-baseline="central">babe12</text><polygon points="201.0,56.0 201.0,46.0 191.0,56.0" fill="#000000"/></g><g data-channel="cell" data-cell-index="3" data-cell-row="0" data-cell-col="3"><rect x="213.0" y="36.0" width="48.0" height="20.0" fill="#785634"/><text x="237.0" y="46.0" fill="#ffffff" style="font-family: &quot;JetBrains Mono&quot;, &quot;Menlo&quot;, &quot;Consolas&quot;, &quot;DejaVu Sans Mono&quot;, &quot;Liberation Mono&quot;, &quot;Roboto Mono&quot;, &quot;Noto Sans Mono&quot;, monospace; font-size: 12.0px;" text-anchor="middle" dominant-baseline="central">345678</text></g><g data-channel="cell" data-cell-index="4" data-cell-row="1" data-cell-col="0"><rect x="33.0" y="76.0" width="48.0" height="20.0" fill="#cdab90"/><text x="57.0" y="86.0" fill="#000000" style="font-family: &quot;JetBrains Mono&quot;, &quot;Menlo&quot;, &quot;Consolas&quot;, &quot;DejaVu Sans Mono&quot;, &quot;Liberation Mono&quot;, &quot;Roboto Mono&quot;, &quot;Noto Sans Mono&quot;, monospace; font-size: 12.0px;" text-anchor="middle" dominant-baseline="central">90abcd</text></g><g data-channel="cell" data-cell-index="5" data-cell-row="1" data-cell-col="1"><rect x="93.0" y="76.0" width="48.0" height="20.0" fill="#ed0fef"/><text x="117.0" y="86.0" fill="#000000" style="font-family: &quot;JetBrains Mono&quot;, &quot;Menlo&quot;, &quot;Consolas&quot;, &quot;DejaVu Sans Mono&quot;, &quot;Liberation Mono&quot;, &quot;Roboto Mono&quot;, &quot;Noto Sans Mono&quot;, monospace; font-size: 12.0px;" text-anchor="middle" dominant-baseline="central">ef0fed</text></g><g data-channel="cell" data-cell-index="6" data-cell-row="1" data-cell-col="2"><rect x="153.0" y="76.0" width="48.0" height="20.0" fill="#87a9cb"/><text x="177.0" y="86.0" fill="#000000" style="font-family: &quot;JetBrains Mono&quot;, &quot;Menlo&quot;, &quot;Consolas&quot;, &quot;DejaVu Sans Mono&quot;, &quot;Liberation Mono&quot;, &quot;Roboto Mono&quot;, &quot;Noto Sans Mono&quot;, monospace; font-size: 12.0px;" text-anchor="middle" dominant-baseline="central">cba987</text></g><g data-channel="cell" data-cell-index="7" data-cell-row="1" data-cell-col="3"><rect x="213.0" y="76.0" width="48.0" height="20.0" fill="#214365"/><text x="237.0" y="86.0" fill="#ffffff" style="font-family: &quot;JetBrains Mono&quot;, &quot;Menlo&quot;, &quot;Consolas&quot;, &quot;DejaVu Sans Mono&quot;, &quot;Liberation Mono&quot;, &quot;Roboto Mono&quot;, &quot;Noto Sans Mono&quot;, monospace; font-size: 12.0px;" text-anchor="middle" dominant-baseline="central">654321</text></g><g data-channel="cell" data-cell-index="8" data-cell-row="2" data-cell-col="0" data-cell-blank="true" data-cell-blank-map="true"><rect x="33.0" y="116.0" width="48.0" height="20.0" rx="10.0" ry="10.0" fill="#ffffff" stroke="#000000" stroke-width="1"/><circle cx="75.0" cy="126.0" r="2.5" fill="#d62828" data-blank-map-max="true"/><circle cx="51.0" cy="119.33333333333333" r="2.5" fill="#1d4ed8" data-blank-map-min="true"/></g><g data-channel="cell" data-cell-index="9" data-cell-row="2" data-cell-col="1"><rect x="93.0" y="116.0" width="48.0" height="20.0" fill="#452301"/><text x="117.0" y="126.0" fill="#ffffff" style="font-family: &quot;JetBrains Mono&quot;, &quot;Menlo&quot;, &quot;Consolas&quot;, &quot;DejaVu Sans Mono&quot;, &quot;Liberation Mono&quot;, &quot;Roboto Mono&quot;, &quot;Noto Sans Mono&quot;, monospace; font-size: 12.0px;" text-anchor="middle" dominant-baseline="central">012345</text></g><g data-channel="cell" data-cell-index="10" data-cell-row="2" data-cell-col="2" data-cell-quartile="1"><rect x="153.0" y="116.0" width="48.0" height="20.0" fill="#ab8967"/><text x="177.0" y="126.0" fill="#000000" style="font-family: &quot;JetBrains Mono&quot;, &quot;Menlo&quot;, &quot;Consolas&quot;, &quot;DejaVu Sans Mono&quot;, &quot;Liberation Mono&quot;, &quot;Roboto Mono&quot;, &quot;Noto Sans Mono&quot;, monospace; font-size: 12.0px;" text-anchor="middle" dominant-baseline="central">6789ab</text><polygon points="153.0,116.0 163.0,116.0 153.0,126.0" fill="#000000"/></g><g data-channel="cell" data-cell-index="11" data-cell-row="2" data-cell-col="3" data-cell-quartile="2"><rect x="213.0" y="116.0" width="48.0" height="20.0" fill="#efefcd"/><text x="237.0" y="126.0" fill="#000000" style="font-family: &quot;JetBrains Mono&quot;, &quot;Menlo&quot;, &quot;Consolas&quot;, &quot;DejaVu Sans Mono&quot;, &quot;Liberation Mono&quot;, &quot;Roboto Mono&quot;, &quot;Noto Sans Mono&quot;, monospace; font-size: 12.0px;" text-anchor="middle" dominant-baseline="central">cdef</text><polygon points="261.0,116.0 251.0,116.0 261.0,126.0" fill="#000000"/></g></g></g><g data-channel="color-bar"><g data-color-bar-rank="0" data-color-bar-band="W"><rect x="1" y="1" width="20.0" height="48.61054475401656" fill="#ffffff"/><text x="11.0" y="46.97054475401656" fill="#000000" style="font-family: &quot;JetBrains Mono&quot;, &quot;Menlo&quot;, &quot;Consolas&quot;, &quot;DejaVu Sans Mono&quot;, &quot;Liberation Mono&quot;, &quot;Roboto Mono&quot;, &quot;Noto Sans Mono&quot;, monospace; font-size: 12.0px;" text-anchor="middle" data-color-bar-letter="true">w</text></g><g data-color-bar-rank="1" data-color-bar-band="R"><rect x="1" y="49.61054475401656" width="20.0" height="48.61054475401656" fill="#ff3f2f"/><text x="11.0" y="95.58108950803312" fill="#000000" style="font-family: &quot;JetBrains Mono&quot;, &quot;Menlo&quot;, &quot;Consolas&quot;, &quot;DejaVu Sans Mono&quot;, &quot;Liberation Mono&quot;, &quot;Roboto Mono&quot;, &quot;Noto Sans Mono&quot;, monospace; font-size: 12.0px;" text-anchor="middle" data-color-bar-letter="true">r</text></g><g data-color-bar-rank="2" data-color-bar-band="G"><rect x="1" y="98.22108950803312" width="20.0" height="31.688441704986975" fill="#ffd966"/><text x="11.0" y="127.2695312130201" fill="#000000" style="font-family: &quot;JetBrains Mono&quot;, &quot;Menlo&quot;, &quot;Consolas&quot;, &quot;DejaVu Sans Mono&quot;, &quot;Liberation Mono&quot;, &quot;Roboto Mono&quot;, &quot;Noto Sans Mono&quot;, monospace; font-size: 12.0px;" text-anchor="middle" data-color-bar-letter="true">g</text></g><g data-color-bar-rank="3" data-color-bar-band="K"><rect x="1" y="129.9095312130201" width="20.0" height="21.090468786979898" fill="#000000"/><text x="11.0" y="148.36" fill="#ffffff" style="font-family: &quot;JetBrains Mono&quot;, &quot;Menlo&quot;, &quot;Consolas&quot;, &quot;DejaVu Sans Mono&quot;, &quot;Liberation Mono&quot;, &quot;Roboto Mono&quot;, &quot;Noto Sans Mono&quot;, monospace; font-size: 12.0px;" text-anchor="middle" data-color-bar-letter="true">k</text></g></g><g data-channel="label-top"><text x="27.0" y="16.0" fill="#666666" style="font-family: &quot;JetBrains Mono&quot;, &quot;Menlo&quot;, &quot;Consolas&quot;, &quot;DejaVu Sans Mono&quot;, &quot;Liberation Mono&quot;, &quot;Roboto Mono&quot;, &quot;Noto Sans Mono&quot;, monospace; font-size: 12.0px;" dominant-baseline="central">hex(64):</text></g><line x1="0" y1="0.5" x2="273.0" y2="0.5" stroke="#808080" stroke-width="1" shape-rendering="crispEdges"/><line x1="272.5" y1="0" x2="272.5" y2="152.0" stroke="#808080" stroke-width="1" shape-rendering="crispEdges"/><line x1="0" y1="151.5" x2="273.0" y2="151.5" stroke="#808080" stroke-width="1" shape-rendering="crispEdges"/><line x1="0.5" y1="0" x2="0.5" y2="152.0" stroke="#808080" stroke-width="1" shape-rendering="crispEdges"/><line x1="21.5" y1="0" x2="21.5" y2="152.0" stroke="#808080" stroke-width="1" shape-rendering="crispEdges"/></svg>