<svg width="215" height="194" viewBox="0 0 215 194" xmlns="http://www.w3.org/2000/svg" font-family="&quot;JetBrains Mono&quot;, &quot;Menlo&quot;, &quot;Consolas&quot;, &quot;DejaVu Sans Mono&quot;, &quot;Liberation Mono&quot;, &quot;Roboto Mono&quot;, &quot;Noto Sans Mono&quot;, monospace" data-entviz-version="v15" data-entviz-lib="0.15.1" data-input-bytes="44" data-cols="3" data-rows="4" data-encoding="base64url" data-scheme="cesr" data-role="digest" data-size-basis="decoded" data-entropy-type="cesr" data-size-bits="264" data-qualifiers="{&quot;algorithm&quot;:&quot;Blake3-256&quot;}" data-parts="[{&quot;text&quot;:&quot;EBfdlu8R27Fbx_ehrqwImnK_8Cm79sqbAQ4caaZG_LFv&quot;,&quot;bind&quot;:&quot;core&quot;}]"><defs><clipPath id="grid-clip-1286db3fd960066c-3x4"><rect x="28" y="27" width="180" height="160"/></clipPath></defs><rect x="1" y="1" width="213" height="192" fill="#ffffff"/><g data-channel="grid"><rect x="28" y="27" width="180" height="160" fill="#ffffff"/><g><path fill="#000000" d="M28 27h6v10h-6zM34 27h6v10h-6zM46 27h6v10h-6zM52 27h6v10h-6zM64 27h6v10h-6zM70 27h6v10h-6zM82 27h6v10h-6zM82 37h6v10h-6zM64 57h6v10h-6zM52 57h6v10h-6zM34 57h6v10h-6z"/><path fill="#2f3fbf" d="M118 27h6v10h-6zM124 27h6v10h-6zM136 27h6v10h-6zM142 47h6v10h-6zM142 57h6v10h-6zM130 57h6v10h-6zM124 57h6v10h-6zM118 57h6v10h-6zM112 57h6v10h-6zM106 57h6v10h-6zM100 57h6v10h-6zM94 57h6v10h-6zM88 57h6v10h-6z"/><path fill="#2f3fbf" d="M154 27h6v10h-6zM172 27h6v10h-6zM178 27h6v10h-6zM202 37h6v10h-6zM202 47h6v10h-6zM196 57h6v10h-6zM190 57h6v10h-6zM172 57h6v10h-6zM166 57h6v10h-6z"/><path fill="#2f3fbf" d="M34 67h6v10h-6zM52 67h6v10h-6zM64 67h6v10h-6zM70 67h6v10h-6zM82 67h6v10h-6zM82 77h6v10h-6zM82 87h6v10h-6zM76 97h6v10h-6zM70 97h6v10h-6zM52 97h6v10h-6zM34 97h6v10h-6zM28 97h6v10h-6z"/><path fill="#2f3fbf" d="M94 67h6v10h-6zM106 67h6v10h-6zM124 67h6v10h-6zM142 67h6v10h-6zM142 77h6v10h-6zM142 87h6v10h-6zM142 97h6v10h-6zM136 97h6v10h-6zM118 97h6v10h-6zM112 97h6v10h-6zM88 77h6v10h-6z"/><path fill="#ff3f2f" d="M148 67h6v10h-6zM172 67h6v10h-6zM184 67h6v10h-6zM190 67h6v10h-6zM202 67h6v10h-6zM202 77h6v10h-6zM202 87h6v10h-6zM202 97h6v10h-6zM196 97h6v10h-6zM190 97h6v10h-6zM184 97h6v10h-6zM178 97h6v10h-6zM172 97h6v10h-6zM148 77h6v10h-6z"/><path fill="#2f3fbf" d="M106 107h6v10h-6zM118 107h6v10h-6zM124 107h6v10h-6zM130 107h6v10h-6zM142 107h6v10h-6zM142 117h6v10h-6zM136 137h6v10h-6zM124 137h6v10h-6zM118 137h6v10h-6zM88 127h6v10h-6z"/><path fill="#2f3fbf" d="M148 107h6v10h-6zM154 107h6v10h-6zM166 107h6v10h-6zM190 107h6v10h-6zM196 107h6v10h-6zM202 127h6v10h-6zM202 137h6v10h-6zM196 137h6v10h-6zM184 137h6v10h-6zM166 137h6v10h-6zM148 127h6v10h-6zM148 117h6v10h-6z"/><path fill="#000000" d="M34 147h6v10h-6zM40 147h6v10h-6zM52 147h6v10h-6zM64 147h6v10h-6zM70 147h6v10h-6zM76 147h6v10h-6zM82 167h6v10h-6zM64 177h6v10h-6zM52 177h6v10h-6zM46 177h6v10h-6zM28 167h6v10h-6z"/><path fill="#2f3fbf" d="M94 147h6v10h-6zM100 147h6v10h-6zM118 147h6v10h-6zM124 147h6v10h-6zM130 147h6v10h-6zM142 147h6v10h-6zM142 157h6v10h-6zM142 167h6v10h-6zM136 177h6v10h-6zM130 177h6v10h-6zM100 177h6v10h-6zM94 177h6v10h-6zM88 177h6v10h-6zM88 157h6v10h-6z"/><path fill="#2f3fbf" d="M154 147h6v10h-6zM166 147h6v10h-6zM178 147h6v10h-6zM184 147h6v10h-6zM202 157h6v10h-6zM202 167h6v10h-6zM202 177h6v10h-6zM196 177h6v10h-6zM166 177h6v10h-6z"/></g><g clip-path="url(#grid-clip-1286db3fd960066c-3x4)" data-channel="ellipse" data-ellipse-anchor-x="148" data-ellipse-anchor-y="107" data-ellipse-rx="76.726" data-ellipse-ry="80.187" data-ellipse-rotation-deg="84"><ellipse cx="148" cy="107" rx="76.726" ry="80.187" transform="rotate(84 148 107)" fill="#000000" stroke="#000000" fill-opacity="0.2" stroke-opacity="0.3" stroke-width="2"/></g><g><g data-channel="cell" data-cell-index="0" data-cell-row="0" data-cell-col="0" data-surround-bits="0x1286db" data-edge-color="#000000"><rect x="34" y="37" width="48" height="20" fill="#dd1710"/><text x="58" y="47" fill="#ffffff" font-size="16" text-anchor="middle" dominant-baseline="central">EBfd</text></g><g data-channel="cell" data-cell-index="1" data-cell-row="0" data-cell-col="1" data-surround-bits="0x3fd960" data-edge-color="#2f3fbf" data-cell-quartile="3"><rect x="94" y="37" width="48" height="20" fill="#11ef96"/><text x="118" y="47" fill="#000000" font-size="16" text-anchor="middle" dominant-baseline="central">lu8R</text><polygon points="142,57 142,47 132,57" fill="#000000"/></g><g data-channel="cell" data-cell-index="2" data-cell-row="0" data-cell-col="2" data-surround-bits="0x66c32" data-edge-color="#2f3fbf"><rect x="154" y="37" width="48" height="20" fill="#5bb1db"/><text x="178" y="47" fill="#000000" font-size="16" text-anchor="middle" dominant-baseline="central">27Fb</text></g><g data-channel="cell" data-cell-index="3" data-cell-row="1" data-cell-col="0" data-surround-bits="0x326ed2" data-edge-color="#2f3fbf" data-cell-quartile="2"><rect x="34" y="77" width="48" height="20" fill="#a1f7c7"/><text x="58" y="87" fill="#000000" font-size="16" text-anchor="middle" dominant-baseline="central">x_eh</text><polygon points="82,77 72,77 82,87" fill="#000000"/></g><g data-channel="cell" data-cell-index="4" data-cell-row="1" data-cell-col="1" data-surround-bits="0x833e4a" data-edge-color="#2f3fbf" data-cell-quartile="1"><rect x="94" y="77" width="48" height="20" fill="#08acae"/><text x="118" y="87" fill="#000000" font-size="16" text-anchor="middle" dominant-baseline="central">rqwI</text><polygon points="94,77 104,77 94,87" fill="#000000"/></g><g data-channel="cell" data-cell-index="5" data-cell-row="1" data-cell-col="2" data-surround-bits="0x83fed1" data-edge-color="#ff3f2f"><rect x="154" y="77" width="48" height="20" fill="#bf729a"/><text x="178" y="87" fill="#000000" font-size="16" text-anchor="middle" dominant-baseline="central">mnK_</text></g><g data-channel="cell" data-cell-index="6" data-cell-row="2" data-cell-col="0" data-cell-blank="true" data-cell-blank-map="true"><rect x="34" y="117" width="48" height="20" rx="10" ry="10" fill="#2f3fbf" stroke="#000000" stroke-width="1"/><circle cx="74" cy="134.5" r="3.5" fill="#ffffff" data-blank-map-min="3,2"/><path d="M 69.8,129.5 H 78.2 M 74,125.3 V 133.7" fill="none" stroke="#ffffff" stroke-width="1.925" stroke-linecap="butt" data-blank-map-max="2,2"/></g><g data-channel="cell" data-cell-index="7" data-cell-row="2" data-cell-col="1" data-surround-bits="0x41a6e8" data-edge-color="#2f3fbf"><rect x="94" y="117" width="48" height="20" fill="#bb29f0"/><text x="118" y="127" fill="#000000" font-size="16" text-anchor="middle" dominant-baseline="central">8Cm7</text></g><g data-channel="cell" data-cell-index="8" data-cell-row="2" data-cell-col="2" data-surround-bits="0xc4b98b" data-edge-color="#2f3fbf"><rect x="154" y="117" width="48" height="20" fill="#9bcaf6"/><text x="178" y="127" fill="#000000" font-size="16" text-anchor="middle" dominant-baseline="central">9sqb</text></g><g data-channel="cell" data-cell-index="9" data-cell-row="3" data-cell-col="0" data-surround-bits="0x4689d6" data-edge-color="#000000"><rect x="34" y="157" width="48" height="20" fill="#1c0e01"/><text x="58" y="167" fill="#ffffff" font-size="16" text-anchor="middle" dominant-baseline="central">AQ4c</text></g><g data-channel="cell" data-cell-index="10" data-cell-row="3" data-cell-col="1" data-surround-bits="0xb86ee6" data-edge-color="#2f3fbf"><rect x="94" y="157" width="48" height="20" fill="#46a669"/><text x="118" y="167" fill="#000000" font-size="16" text-anchor="middle" dominant-baseline="central">aaZG</text></g><g data-channel="cell" data-cell-index="11" data-cell-row="3" data-cell-col="2" data-surround-bits="0x43c6a" data-edge-color="#2f3fbf" data-cell-quartile="4"><rect x="154" y="157" width="48" height="20" fill="#6fb1fc"/><text x="178" y="167" fill="#000000" font-size="16" text-anchor="middle" dominant-baseline="central">_LFv</text><polygon points="154,177 154,167 164,177" fill="#000000"/></g></g></g><g data-channel="color-bar" data-bar-slots="15" data-bar-marker-left="5" data-bar-marker-right="11"><g data-color-bar-rank="0" data-color-bar-band="B"><rect x="2" y="2" width="20" height="94.292" fill="#2f3fbf"/><text x="12" y="92.772" fill="#ffffff" font-size="16" text-anchor="middle" data-color-bar-letter="true">b</text></g><g data-color-bar-rank="1" data-color-bar-band="G"><rect x="2" y="96.292" width="20" height="25.052" fill="#e7be00"/><text x="12" y="117.824" fill="#000000" font-size="16" text-anchor="middle" data-color-bar-letter="true">g</text></g><g data-color-bar-rank="2" data-color-bar-band="R"><rect x="2" y="121.344" width="20" height="37.641" fill="#ff3f2f"/><text x="12" y="155.466" fill="#000000" font-size="16" text-anchor="middle" data-color-bar-letter="true">r</text></g><g data-color-bar-rank="3" data-color-bar-band="K"><rect x="2" y="158.986" width="20" height="33.014" fill="#000000"/><text x="12" y="188.48" fill="#ffffff" font-size="16" text-anchor="middle" data-color-bar-letter="true">k</text></g><circle cx="6.6" cy="71.667" r="3.4" fill="#ffffff" stroke="#000000" stroke-width="0.75" data-bar-marker="left"/><circle cx="17.4" cy="147.667" r="3.4" fill="#ffffff" stroke="#000000" stroke-width="0.75" data-bar-marker="right"/></g><g data-channel="label-top"><text x="28" y="17" fill="#666666" font-size="12" dominant-baseline="central">CESR, Blake3-256</text></g><line x1="1" y1="1.5" x2="214" y2="1.5" stroke="#808080" stroke-width="1" shape-rendering="crispEdges"/><line x1="213.5" y1="1" x2="213.5" y2="193" stroke="#808080" stroke-width="1" shape-rendering="crispEdges"/><line x1="1" y1="192.5" x2="214" y2="192.5" stroke="#808080" stroke-width="1" shape-rendering="crispEdges"/><line x1="1.5" y1="1" x2="1.5" y2="193" stroke="#808080" stroke-width="1" shape-rendering="crispEdges"/><line x1="22.5" y1="1" x2="22.5" y2="193" stroke="#808080" stroke-width="1" shape-rendering="crispEdges"/></svg>