<svg width="213.0" height="192.0" viewBox="0 0 213.0 192.0" xmlns="http://www.w3.org/2000/svg" data-entviz-version="v8" data-entviz-lib="0.7.1" data-input-bytes="44" data-cols="3" data-rows="4"><defs><clipPath id="grid-clip-c7111e5b399acc5b-3x4"><rect x="27.0" y="26.0" width="180.0" height="160.0"/></clipPath></defs><rect x="0" y="0" width="213.0" height="192.0" fill="#ffffff"/><g data-channel="grid"><rect x="27.0" y="26.0" width="180.0" height="160.0" fill="#2f3fbf"/><g><rect x="33.0" y="26.0" width="6.0" height="10.0" fill="#e7be00"/><rect x="39.0" y="26.0" width="6.0" height="10.0" fill="#e7be00"/><rect x="45.0" y="26.0" width="6.0" height="10.0" fill="#e7be00"/><rect x="51.0" y="26.0" width="6.0" height="10.0" fill="#e7be00"/><rect x="75.0" y="26.0" width="6.0" height="10.0" fill="#e7be00"/><rect x="81.0" y="56.0" width="6.0" height="10.0" fill="#e7be00"/><rect x="57.0" y="56.0" width="6.0" height="10.0" fill="#e7be00"/><rect x="51.0" y="56.0" width="6.0" height="10.0" fill="#e7be00"/><rect x="45.0" y="56.0" width="6.0" height="10.0" fill="#e7be00"/><rect x="27.0" y="46.0" width="6.0" height="10.0" fill="#e7be00"/><rect x="27.0" y="36.0" width="6.0" height="10.0" fill="#e7be00"/><rect x="93.0" y="26.0" width="6.0" height="10.0" fill="#ffffff"/><rect x="105.0" y="26.0" width="6.0" height="10.0" fill="#ffffff"/><rect x="111.0" y="26.0" width="6.0" height="10.0" fill="#ffffff"/><rect x="129.0" y="26.0" width="6.0" height="10.0" fill="#ffffff"/><rect x="135.0" y="26.0" width="6.0" height="10.0" fill="#ffffff"/><rect x="141.0" y="46.0" width="6.0" height="10.0" fill="#ffffff"/><rect x="141.0" y="56.0" width="6.0" height="10.0" fill="#ffffff"/><rect x="135.0" y="56.0" width="6.0" height="10.0" fill="#ffffff"/><rect x="117.0" y="56.0" width="6.0" height="10.0" fill="#ffffff"/><rect x="111.0" y="56.0" width="6.0" height="10.0" fill="#ffffff"/><rect x="99.0" y="56.0" width="6.0" height="10.0" fill="#ffffff"/><rect x="93.0" y="56.0" width="6.0" height="10.0" fill="#ffffff"/><rect x="87.0" y="46.0" width="6.0" height="10.0" fill="#ffffff"/><rect x="159.0" y="26.0" width="6.0" height="10.0" fill="#e7be00"/><rect x="165.0" y="26.0" width="6.0" height="10.0" fill="#e7be00"/><rect x="177.0" y="26.0" width="6.0" height="10.0" fill="#e7be00"/><rect x="183.0" y="26.0" width="6.0" height="10.0" fill="#e7be00"/><rect x="195.0" y="26.0" width="6.0" height="10.0" fill="#e7be00"/><rect x="201.0" y="26.0" width="6.0" height="10.0" fill="#e7be00"/><rect x="201.0" y="46.0" width="6.0" height="10.0" fill="#e7be00"/><rect x="201.0" y="56.0" width="6.0" height="10.0" fill="#e7be00"/><rect x="189.0" y="56.0" width="6.0" height="10.0" fill="#e7be00"/><rect x="165.0" y="56.0" width="6.0" height="10.0" fill="#e7be00"/><rect x="159.0" y="56.0" width="6.0" height="10.0" fill="#e7be00"/><rect x="147.0" y="46.0" width="6.0" height="10.0" fill="#e7be00"/><rect x="147.0" y="36.0" width="6.0" height="10.0" fill="#e7be00"/><rect x="33.0" y="66.0" width="6.0" height="10.0" fill="#ffffff"/><rect x="51.0" y="66.0" width="6.0" height="10.0" fill="#ffffff"/><rect x="69.0" y="66.0" width="6.0" height="10.0" fill="#ffffff"/><rect x="81.0" y="86.0" width="6.0" height="10.0" fill="#ffffff"/><rect x="75.0" y="96.0" width="6.0" height="10.0" fill="#ffffff"/><rect x="69.0" y="96.0" width="6.0" height="10.0" fill="#ffffff"/><rect x="51.0" y="96.0" width="6.0" height="10.0" fill="#ffffff"/><rect x="33.0" y="96.0" width="6.0" height="10.0" fill="#ffffff"/><rect x="27.0" y="86.0" width="6.0" height="10.0" fill="#ffffff"/><rect x="27.0" y="76.0" width="6.0" height="10.0" fill="#ffffff"/><rect x="93.0" y="66.0" width="6.0" height="10.0" fill="#ffffff"/><rect x="129.0" y="66.0" width="6.0" height="10.0" fill="#ffffff"/><rect x="141.0" y="66.0" width="6.0" height="10.0" fill="#ffffff"/><rect x="141.0" y="76.0" width="6.0" height="10.0" fill="#ffffff"/><rect x="141.0" y="86.0" width="6.0" height="10.0" fill="#ffffff"/><rect x="123.0" y="96.0" width="6.0" height="10.0" fill="#ffffff"/><rect x="117.0" y="96.0" width="6.0" height="10.0" fill="#ffffff"/><rect x="105.0" y="96.0" width="6.0" height="10.0" fill="#ffffff"/><rect x="93.0" y="96.0" width="6.0" height="10.0" fill="#ffffff"/><rect x="87.0" y="76.0" width="6.0" height="10.0" fill="#ffffff"/><rect x="147.0" y="66.0" width="6.0" height="10.0" fill="#ffffff"/><rect x="159.0" y="66.0" width="6.0" height="10.0" fill="#ffffff"/><rect x="165.0" y="66.0" width="6.0" height="10.0" fill="#ffffff"/><rect x="171.0" y="66.0" width="6.0" height="10.0" fill="#ffffff"/><rect x="189.0" y="66.0" width="6.0" height="10.0" fill="#ffffff"/><rect x="195.0" y="66.0" width="6.0" height="10.0" fill="#ffffff"/><rect x="201.0" y="76.0" width="6.0" height="10.0" fill="#ffffff"/><rect x="201.0" y="86.0" width="6.0" height="10.0" fill="#ffffff"/><rect x="189.0" y="96.0" width="6.0" height="10.0" fill="#ffffff"/><rect x="177.0" y="96.0" width="6.0" height="10.0" fill="#ffffff"/><rect x="171.0" y="96.0" width="6.0" height="10.0" fill="#ffffff"/><rect x="165.0" y="96.0" width="6.0" height="10.0" fill="#ffffff"/><rect x="147.0" y="76.0" width="6.0" height="10.0" fill="#ffffff"/><rect x="33.0" y="106.0" width="6.0" height="10.0" fill="#e7be00"/><rect x="39.0" y="106.0" width="6.0" height="10.0" fill="#e7be00"/><rect x="45.0" y="106.0" width="6.0" height="10.0" fill="#e7be00"/><rect x="63.0" y="106.0" width="6.0" height="10.0" fill="#e7be00"/><rect x="81.0" y="126.0" width="6.0" height="10.0" fill="#e7be00"/><rect x="81.0" y="136.0" width="6.0" height="10.0" fill="#e7be00"/><rect x="75.0" y="136.0" width="6.0" height="10.0" fill="#e7be00"/><rect x="69.0" y="136.0" width="6.0" height="10.0" fill="#e7be00"/><rect x="51.0" y="136.0" width="6.0" height="10.0" fill="#e7be00"/><rect x="45.0" y="136.0" width="6.0" height="10.0" fill="#e7be00"/><rect x="39.0" y="136.0" width="6.0" height="10.0" fill="#e7be00"/><rect x="147.0" y="106.0" width="6.0" height="10.0" fill="#e7be00"/><rect x="153.0" y="106.0" width="6.0" height="10.0" fill="#e7be00"/><rect x="165.0" y="106.0" width="6.0" height="10.0" fill="#e7be00"/><rect x="177.0" y="106.0" width="6.0" height="10.0" fill="#e7be00"/><rect x="201.0" y="106.0" width="6.0" height="10.0" fill="#e7be00"/><rect x="201.0" y="116.0" width="6.0" height="10.0" fill="#e7be00"/><rect x="195.0" y="136.0" width="6.0" height="10.0" fill="#e7be00"/><rect x="189.0" y="136.0" width="6.0" height="10.0" fill="#e7be00"/><rect x="183.0" y="136.0" width="6.0" height="10.0" fill="#e7be00"/><rect x="177.0" y="136.0" width="6.0" height="10.0" fill="#e7be00"/><rect x="171.0" y="136.0" width="6.0" height="10.0" fill="#e7be00"/><rect x="165.0" y="136.0" width="6.0" height="10.0" fill="#e7be00"/><rect x="153.0" y="136.0" width="6.0" height="10.0" fill="#e7be00"/><rect x="147.0" y="116.0" width="6.0" height="10.0" fill="#e7be00"/><rect x="27.0" y="146.0" width="6.0" height="10.0" fill="#ff3f2f"/><rect x="33.0" y="146.0" width="6.0" height="10.0" fill="#ff3f2f"/><rect x="51.0" y="146.0" width="6.0" height="10.0" fill="#ff3f2f"/><rect x="57.0" y="146.0" width="6.0" height="10.0" fill="#ff3f2f"/><rect x="63.0" y="146.0" width="6.0" height="10.0" fill="#ff3f2f"/><rect x="69.0" y="146.0" width="6.0" height="10.0" fill="#ff3f2f"/><rect x="75.0" y="146.0" width="6.0" height="10.0" fill="#ff3f2f"/><rect x="81.0" y="176.0" width="6.0" height="10.0" fill="#ff3f2f"/><rect x="75.0" y="176.0" width="6.0" height="10.0" fill="#ff3f2f"/><rect x="69.0" y="176.0" width="6.0" height="10.0" fill="#ff3f2f"/><rect x="57.0" y="176.0" width="6.0" height="10.0" fill="#ff3f2f"/><rect x="27.0" y="176.0" width="6.0" height="10.0" fill="#ff3f2f"/><rect x="27.0" y="156.0" width="6.0" height="10.0" fill="#ff3f2f"/><rect x="87.0" y="146.0" width="6.0" height="10.0" fill="#ffffff"/><rect x="93.0" y="146.0" width="6.0" height="10.0" fill="#ffffff"/><rect x="99.0" y="146.0" width="6.0" height="10.0" fill="#ffffff"/><rect x="123.0" y="146.0" width="6.0" height="10.0" fill="#ffffff"/><rect x="129.0" y="146.0" width="6.0" height="10.0" fill="#ffffff"/><rect x="141.0" y="146.0" width="6.0" height="10.0" fill="#ffffff"/><rect x="141.0" y="156.0" width="6.0" height="10.0" fill="#ffffff"/><rect x="141.0" y="166.0" width="6.0" height="10.0" fill="#ffffff"/><rect x="141.0" y="176.0" width="6.0" height="10.0" fill="#ffffff"/><rect x="135.0" y="176.0" width="6.0" height="10.0" fill="#ffffff"/><rect x="111.0" y="176.0" width="6.0" height="10.0" fill="#ffffff"/><rect x="99.0" y="176.0" width="6.0" height="10.0" fill="#ffffff"/><rect x="87.0" y="166.0" width="6.0" height="10.0" fill="#ffffff"/><rect x="87.0" y="156.0" width="6.0" height="10.0" fill="#ffffff"/><rect x="147.0" y="146.0" width="6.0" height="10.0" fill="#ff3f2f"/><rect x="153.0" y="146.0" width="6.0" height="10.0" fill="#ff3f2f"/><rect x="159.0" y="146.0" width="6.0" height="10.0" fill="#ff3f2f"/><rect x="189.0" y="146.0" width="6.0" height="10.0" fill="#ff3f2f"/><rect x="195.0" y="146.0" width="6.0" height="10.0" fill="#ff3f2f"/><rect x="201.0" y="166.0" width="6.0" height="10.0" fill="#ff3f2f"/><rect x="201.0" y="176.0" width="6.0" height="10.0" fill="#ff3f2f"/><rect x="195.0" y="176.0" width="6.0" height="10.0" fill="#ff3f2f"/><rect x="189.0" y="176.0" width="6.0" height="10.0" fill="#ff3f2f"/><rect x="183.0" y="176.0" width="6.0" height="10.0" fill="#ff3f2f"/><rect x="177.0" y="176.0" width="6.0" height="10.0" fill="#ff3f2f"/><rect x="171.0" y="176.0" width="6.0" height="10.0" fill="#ff3f2f"/></g><g clip-path="url(#grid-clip-c7111e5b399acc5b-3x4)" data-channel="ellipse" data-ellipse-anchor-x="87.0" data-ellipse-anchor-y="66.0" data-ellipse-rx="57.69991334482228" data-ellipse-ry="45.48110816591874" data-ellipse-rotation-deg="180.0"><ellipse cx="87.0" cy="66.0" rx="57.69991334482228" ry="45.48110816591874" transform="rotate(180.0 87.0 66.0)" fill="#ffffff" stroke="#ffffff" fill-opacity="0.35" stroke-opacity="0.45" stroke-width="2.0"/></g><g><g data-channel="cell" data-cell-index="0" data-cell-row="0" data-cell-col="0"><rect x="33.0" y="36.0" width="48.0" height="20.0" fill="#72ac04"/><text x="57.0" y="46.0" fill="#000000" style="font-family: &quot;JetBrains Mono&quot;, &quot;Menlo&quot;, &quot;Consolas&quot;, &quot;DejaVu Sans Mono&quot;, &quot;Liberation Mono&quot;, &quot;Roboto Mono&quot;, &quot;Noto Sans Mono&quot;, monospace; font-size: 16.0px;" text-anchor="middle" dominant-baseline="central">BKxy</text></g><g data-channel="cell" data-cell-index="1" data-cell-row="0" data-cell-col="1"><rect x="93.0" y="36.0" width="48.0" height="20.0" fill="#33c8da"/><text x="117.0" y="46.0" fill="#000000" style="font-family: &quot;JetBrains Mono&quot;, &quot;Menlo&quot;, &quot;Consolas&quot;, &quot;DejaVu Sans Mono&quot;, &quot;Liberation Mono&quot;, &quot;Roboto Mono&quot;, &quot;Noto Sans Mono&quot;, monospace; font-size: 16.0px;" text-anchor="middle" dominant-baseline="central">2sgz</text></g><g data-channel="cell" data-cell-index="2" data-cell-row="0" data-cell-col="2" data-cell-quartile="4"><rect x="153.0" y="36.0" width="48.0" height="20.0" fill="#72997e"/><text x="177.0" y="46.0" fill="#000000" style="font-family: &quot;JetBrains Mono&quot;, &quot;Menlo&quot;, &quot;Consolas&quot;, &quot;DejaVu Sans Mono&quot;, &quot;Liberation Mono&quot;, &quot;Roboto Mono&quot;, &quot;Noto Sans Mono&quot;, monospace; font-size: 16.0px;" text-anchor="middle" dominant-baseline="central">fply</text><polygon points="153.0,56.0 153.0,46.0 163.0,56.0" fill="#000000"/></g><g data-channel="cell" data-cell-index="3" data-cell-row="1" data-cell-col="0"><rect x="33.0" y="76.0" width="48.0" height="20.0" fill="#60fbaf"/><text x="57.0" y="86.0" fill="#000000" style="font-family: &quot;JetBrains Mono&quot;, &quot;Menlo&quot;, &quot;Consolas&quot;, &quot;DejaVu Sans Mono&quot;, &quot;Liberation Mono&quot;, &quot;Roboto Mono&quot;, &quot;Noto Sans Mono&quot;, monospace; font-size: 16.0px;" text-anchor="middle" dominant-baseline="central">r_tg</text></g><g data-channel="cell" data-cell-index="4" data-cell-row="1" data-cell-col="1" data-cell-quartile="1"><rect x="93.0" y="76.0" width="48.0" height="20.0" fill="#528cc0"/><text x="117.0" y="86.0" fill="#000000" style="font-family: &quot;JetBrains Mono&quot;, &quot;Menlo&quot;, &quot;Consolas&quot;, &quot;DejaVu Sans Mono&quot;, &quot;Liberation Mono&quot;, &quot;Roboto Mono&quot;, &quot;Noto Sans Mono&quot;, monospace; font-size: 16.0px;" text-anchor="middle" dominant-baseline="central">wIxS</text><polygon points="93.0,76.0 103.0,76.0 93.0,86.0" fill="#000000"/></g><g data-channel="cell" data-cell-index="5" data-cell-row="1" data-cell-col="2" data-cell-quartile="3"><rect x="153.0" y="76.0" width="48.0" height="20.0" fill="#f6d7d7"/><text x="177.0" y="86.0" fill="#000000" style="font-family: &quot;JetBrains Mono&quot;, &quot;Menlo&quot;, &quot;Consolas&quot;, &quot;DejaVu Sans Mono&quot;, &quot;Liberation Mono&quot;, &quot;Roboto Mono&quot;, &quot;Noto Sans Mono&quot;, monospace; font-size: 16.0px;" text-anchor="middle" dominant-baseline="central">19f2</text><polygon points="201.0,96.0 201.0,86.0 191.0,96.0" fill="#000000"/></g><g data-channel="cell" data-cell-index="6" data-cell-row="2" data-cell-col="0" data-cell-quartile="2"><rect x="33.0" y="116.0" width="48.0" height="20.0" fill="#45c839"/><text x="57.0" y="126.0" fill="#000000" style="font-family: &quot;JetBrains Mono&quot;, &quot;Menlo&quot;, &quot;Consolas&quot;, &quot;DejaVu Sans Mono&quot;, &quot;Liberation Mono&quot;, &quot;Roboto Mono&quot;, &quot;Noto Sans Mono&quot;, monospace; font-size: 16.0px;" text-anchor="middle" dominant-baseline="central">OchF</text><polygon points="81.0,116.0 71.0,116.0 81.0,126.0" fill="#000000"/></g><g data-channel="cell" data-cell-index="7" data-cell-row="2" data-cell-col="1" data-cell-blank="true" data-cell-blank-map="true"><rect x="93.0" y="116.0" width="48.0" height="20.0" rx="10.0" ry="10.0" fill="#ffffff" stroke="#000000" stroke-width="1"/><circle cx="133.0" cy="133.5" r="3.5" fill="#1d4ed8" data-blank-map-min="3,2"/><path d="M 96.8,123.5 H 105.2 M 101.0,119.3 V 127.7" fill="none" stroke="#d62828" stroke-width="1.9250000000000003" stroke-linecap="butt" data-blank-map-max="1,0"/></g><g data-channel="cell" data-cell-index="8" data-cell-row="2" data-cell-col="2"><rect x="153.0" y="116.0" width="48.0" height="20.0" fill="#f0d21e"/><text x="177.0" y="126.0" fill="#000000" style="font-family: &quot;JetBrains Mono&quot;, &quot;Menlo&quot;, &quot;Consolas&quot;, &quot;DejaVu Sans Mono&quot;, &quot;Liberation Mono&quot;, &quot;Roboto Mono&quot;, &quot;Noto Sans Mono&quot;, monospace; font-size: 16.0px;" text-anchor="middle" dominant-baseline="central">HtLw</text></g><g data-channel="cell" data-cell-index="9" data-cell-row="3" data-cell-col="0"><rect x="33.0" y="156.0" width="48.0" height="20.0" fill="#f7603d"/><text x="57.0" y="166.0" fill="#000000" style="font-family: &quot;JetBrains Mono&quot;, &quot;Menlo&quot;, &quot;Consolas&quot;, &quot;DejaVu Sans Mono&quot;, &quot;Liberation Mono&quot;, &quot;Roboto Mono&quot;, &quot;Noto Sans Mono&quot;, monospace; font-size: 16.0px;" text-anchor="middle" dominant-baseline="central">PWD3</text></g><g data-channel="cell" data-cell-index="10" data-cell-row="3" data-cell-col="1"><rect x="93.0" y="156.0" width="48.0" height="20.0" fill="#188abf"/><text x="117.0" y="166.0" fill="#ffffff" style="font-family: &quot;JetBrains Mono&quot;, &quot;Menlo&quot;, &quot;Consolas&quot;, &quot;DejaVu Sans Mono&quot;, &quot;Liberation Mono&quot;, &quot;Roboto Mono&quot;, &quot;Noto Sans Mono&quot;, monospace; font-size: 16.0px;" text-anchor="middle" dominant-baseline="central">v4oY</text></g><g data-channel="cell" data-cell-index="11" data-cell-row="3" data-cell-col="2"><rect x="153.0" y="156.0" width="48.0" height="20.0" fill="#71608a"/><text x="177.0" y="166.0" fill="#ffffff" style="font-family: &quot;JetBrains Mono&quot;, &quot;Menlo&quot;, &quot;Consolas&quot;, &quot;DejaVu Sans Mono&quot;, &quot;Liberation Mono&quot;, &quot;Roboto Mono&quot;, &quot;Noto Sans Mono&quot;, monospace; font-size: 16.0px;" text-anchor="middle" dominant-baseline="central">imBx</text></g></g></g><g data-channel="color-bar"><g data-color-bar-rank="0" data-color-bar-band="K"><rect x="1" y="1" width="20.0" height="74.80627966354609" fill="#000000"/><text x="11.0" y="72.2862796635461" fill="#ffffff" style="font-family: &quot;JetBrains Mono&quot;, &quot;Menlo&quot;, &quot;Consolas&quot;, &quot;DejaVu Sans Mono&quot;, &quot;Liberation Mono&quot;, &quot;Roboto Mono&quot;, &quot;Noto Sans Mono&quot;, monospace; font-size: 16.0px;" text-anchor="middle" data-color-bar-letter="true">k</text></g><g data-color-bar-rank="1" data-color-bar-band="W"><rect x="1" y="75.80627966354609" width="20.0" height="56.322544507155655" fill="#ffffff"/><text x="11.0" y="128.60882417070175" fill="#000000" style="font-family: &quot;JetBrains Mono&quot;, &quot;Menlo&quot;, &quot;Consolas&quot;, &quot;DejaVu Sans Mono&quot;, &quot;Liberation Mono&quot;, &quot;Roboto Mono&quot;, &quot;Noto Sans Mono&quot;, monospace; font-size: 16.0px;" text-anchor="middle" data-color-bar-letter="true">w</text></g><g data-color-bar-rank="2" data-color-bar-band="R"><rect x="1" y="132.12882417070176" width="20.0" height="36.47253553566902" fill="#ff3f2f"/><text x="11.0" y="165.08135970637076" fill="#000000" style="font-family: &quot;JetBrains Mono&quot;, &quot;Menlo&quot;, &quot;Consolas&quot;, &quot;DejaVu Sans Mono&quot;, &quot;Liberation Mono&quot;, &quot;Roboto Mono&quot;, &quot;Noto Sans Mono&quot;, monospace; font-size: 16.0px;" text-anchor="middle" data-color-bar-letter="true">r</text></g><g data-color-bar-rank="3" data-color-bar-band="G"><rect x="1" y="168.60135970637077" width="20.0" height="22.398640293629228" fill="#e7be00"/><text x="11.0" y="187.48" fill="#000000" style="font-family: &quot;JetBrains Mono&quot;, &quot;Menlo&quot;, &quot;Consolas&quot;, &quot;DejaVu Sans Mono&quot;, &quot;Liberation Mono&quot;, &quot;Roboto Mono&quot;, &quot;Noto Sans Mono&quot;, monospace; font-size: 16.0px;" text-anchor="middle" data-color-bar-letter="true">g</text></g></g><g data-channel="label-top"><text x="27.0" y="16.0" fill="#666666" style="font-family: &quot;JetBrains Mono&quot;, &quot;Menlo&quot;, &quot;Consolas&quot;, &quot;DejaVu Sans Mono&quot;, &quot;Liberation Mono&quot;, &quot;Roboto Mono&quot;, &quot;Noto Sans Mono&quot;, monospace; font-size: 12.0px;" dominant-baseline="central">CESR Ed25519 nt pubkey:</text></g><line x1="0" y1="0.5" x2="213.0" y2="0.5" stroke="#808080" stroke-width="1" shape-rendering="crispEdges"/><line x1="212.5" y1="0" x2="212.5" y2="192.0" stroke="#808080" stroke-width="1" shape-rendering="crispEdges"/><line x1="0" y1="191.5" x2="213.0" y2="191.5" stroke="#808080" stroke-width="1" shape-rendering="crispEdges"/><line x1="0.5" y1="0" x2="0.5" y2="192.0" stroke="#808080" stroke-width="1" shape-rendering="crispEdges"/><line x1="21.5" y1="0" x2="21.5" y2="192.0" stroke="#808080" stroke-width="1" shape-rendering="crispEdges"/></svg>