<svg width="213" height="192" viewBox="0 0 213 192" xmlns="http://www.w3.org/2000/svg" font-family="&quot;JetBrains Mono&quot;, &quot;Menlo&quot;, &quot;Consolas&quot;, &quot;DejaVu Sans Mono&quot;, &quot;Liberation Mono&quot;, &quot;Roboto Mono&quot;, &quot;Noto Sans Mono&quot;, monospace" data-entviz-version="v10" data-entviz-lib="0.10.0" data-input-bytes="44" data-cols="3" data-rows="4"><defs><clipPath id="grid-clip-c7111e5b399acc5b-3x4"><rect x="27" y="26" width="180" height="160"/></clipPath></defs><rect x="0" y="0" width="213" height="192" fill="#ffffff"/><g data-channel="grid"><rect x="27" y="26" width="180" height="160" fill="#2f3fbf"/><g><path fill="#ff3f2f" d="M33 26h6v10h-6zM39 26h6v10h-6zM45 26h6v10h-6zM51 26h6v10h-6zM75 26h6v10h-6zM81 56h6v10h-6zM57 56h6v10h-6zM51 56h6v10h-6zM45 56h6v10h-6zM27 46h6v10h-6zM27 36h6v10h-6z"/><path fill="#ffffff" d="M93 26h6v10h-6zM105 26h6v10h-6zM111 26h6v10h-6zM129 26h6v10h-6zM135 26h6v10h-6zM141 46h6v10h-6zM141 56h6v10h-6zM135 56h6v10h-6zM117 56h6v10h-6zM111 56h6v10h-6zM99 56h6v10h-6zM93 56h6v10h-6zM87 46h6v10h-6z"/><path fill="#e7be00" d="M159 26h6v10h-6zM165 26h6v10h-6zM177 26h6v10h-6zM183 26h6v10h-6zM195 26h6v10h-6zM201 26h6v10h-6zM201 46h6v10h-6zM201 56h6v10h-6zM189 56h6v10h-6zM165 56h6v10h-6zM159 56h6v10h-6zM147 46h6v10h-6zM147 36h6v10h-6z"/><path fill="#ffffff" d="M33 66h6v10h-6zM51 66h6v10h-6zM69 66h6v10h-6zM81 86h6v10h-6zM75 96h6v10h-6zM69 96h6v10h-6zM51 96h6v10h-6zM33 96h6v10h-6zM27 86h6v10h-6zM27 76h6v10h-6z"/><path fill="#ff3f2f" d="M93 66h6v10h-6zM129 66h6v10h-6zM141 66h6v10h-6zM141 76h6v10h-6zM141 86h6v10h-6zM123 96h6v10h-6zM117 96h6v10h-6zM105 96h6v10h-6zM93 96h6v10h-6zM87 76h6v10h-6z"/><path fill="#ffffff" d="M147 66h6v10h-6zM159 66h6v10h-6zM165 66h6v10h-6zM171 66h6v10h-6zM189 66h6v10h-6zM195 66h6v10h-6zM201 76h6v10h-6zM201 86h6v10h-6zM189 96h6v10h-6zM177 96h6v10h-6zM171 96h6v10h-6zM165 96h6v10h-6zM147 76h6v10h-6z"/><path fill="#ff3f2f" d="M33 106h6v10h-6zM39 106h6v10h-6zM45 106h6v10h-6zM63 106h6v10h-6zM81 126h6v10h-6zM81 136h6v10h-6zM75 136h6v10h-6zM69 136h6v10h-6zM51 136h6v10h-6zM45 136h6v10h-6zM39 136h6v10h-6z"/><path fill="#e7be00" d="M147 106h6v10h-6zM153 106h6v10h-6zM165 106h6v10h-6zM177 106h6v10h-6zM201 106h6v10h-6zM201 116h6v10h-6zM195 136h6v10h-6zM189 136h6v10h-6zM183 136h6v10h-6zM177 136h6v10h-6zM171 136h6v10h-6zM165 136h6v10h-6zM153 136h6v10h-6zM147 116h6v10h-6z"/><path fill="#ff3f2f" d="M27 146h6v10h-6zM33 146h6v10h-6zM51 146h6v10h-6zM57 146h6v10h-6zM63 146h6v10h-6zM69 146h6v10h-6zM75 146h6v10h-6zM81 176h6v10h-6zM75 176h6v10h-6zM69 176h6v10h-6zM57 176h6v10h-6zM27 176h6v10h-6zM27 156h6v10h-6z"/><path fill="#ffffff" d="M87 146h6v10h-6zM93 146h6v10h-6zM99 146h6v10h-6zM123 146h6v10h-6zM129 146h6v10h-6zM141 146h6v10h-6zM141 156h6v10h-6zM141 166h6v10h-6zM141 176h6v10h-6zM135 176h6v10h-6zM111 176h6v10h-6zM99 176h6v10h-6zM87 166h6v10h-6zM87 156h6v10h-6z"/><path fill="#ff3f2f" d="M147 146h6v10h-6zM153 146h6v10h-6zM159 146h6v10h-6zM189 146h6v10h-6zM195 146h6v10h-6zM201 166h6v10h-6zM201 176h6v10h-6zM195 176h6v10h-6zM189 176h6v10h-6zM183 176h6v10h-6zM177 176h6v10h-6zM171 176h6v10h-6z"/></g><g clip-path="url(#grid-clip-c7111e5b399acc5b-3x4)" data-channel="ellipse" data-ellipse-anchor-x="87" data-ellipse-anchor-y="66" data-ellipse-rx="57.7" data-ellipse-ry="45.481" data-ellipse-rotation-deg="180"><ellipse cx="87" cy="66" rx="57.7" ry="45.481" transform="rotate(180 87 66)" fill="#ffffff" stroke="#ffffff" fill-opacity="0.35" stroke-opacity="0.45" stroke-width="2"/></g><g><g data-channel="cell" data-cell-index="0" data-cell-row="0" data-cell-col="0" data-surround-bits="0xc7111e" data-edge-color="#ff3f2f"><rect x="33" y="36" width="48" height="20" fill="#72ac04"/><text x="57" y="46" fill="#000000" font-size="16" text-anchor="middle" dominant-baseline="central">BKxy</text></g><g data-channel="cell" data-cell-index="1" data-cell-row="0" data-cell-col="1" data-surround-bits="0x5b399a" data-edge-color="#ffffff"><rect x="93" y="36" width="48" height="20" fill="#33c8da"/><text x="117" y="46" fill="#000000" font-size="16" text-anchor="middle" dominant-baseline="central">2sgz</text></g><g data-channel="cell" data-cell-index="2" data-cell-row="0" data-cell-col="2" data-surround-bits="0xcc5b6c" data-edge-color="#e7be00" data-cell-quartile="4"><rect x="153" y="36" width="48" height="20" fill="#72997e"/><text x="177" y="46" fill="#000000" font-size="16" text-anchor="middle" dominant-baseline="central">fply</text><polygon points="153,56 153,46 163,56" fill="#000000"/></g><g data-channel="cell" data-cell-index="3" data-cell-row="1" data-cell-col="0" data-surround-bits="0xd26892" data-edge-color="#ffffff"><rect x="33" y="76" width="48" height="20" fill="#60fbaf"/><text x="57" y="86" fill="#000000" font-size="16" text-anchor="middle" dominant-baseline="central">r_tg</text></g><g data-channel="cell" data-cell-index="4" data-cell-row="1" data-cell-col="1" data-surround-bits="0x958e82" data-edge-color="#ff3f2f" data-cell-quartile="1"><rect x="93" y="76" width="48" height="20" fill="#528cc0"/><text x="117" y="86" fill="#000000" font-size="16" text-anchor="middle" dominant-baseline="central">wIxS</text><polygon points="93,76 103,76 93,86" fill="#000000"/></g><g data-channel="cell" data-cell-index="5" data-cell-row="1" data-cell-col="2" data-surround-bits="0x874d9d" data-edge-color="#ffffff" data-cell-quartile="3"><rect x="153" y="76" width="48" height="20" fill="#f6d7d7"/><text x="177" y="86" fill="#000000" font-size="16" text-anchor="middle" dominant-baseline="central">19f2</text><polygon points="201,96 201,86 191,96" fill="#000000"/></g><g data-channel="cell" data-cell-index="6" data-cell-row="2" data-cell-col="0" data-surround-bits="0xe784e" data-edge-color="#ff3f2f" data-cell-quartile="2"><rect x="33" y="116" width="48" height="20" fill="#45c839"/><text x="57" y="126" fill="#000000" font-size="16" text-anchor="middle" dominant-baseline="central">OchF</text><polygon points="81,116 71,116 81,126" fill="#000000"/></g><g data-channel="cell" data-cell-index="7" data-cell-row="2" data-cell-col="1" data-cell-blank="true" data-cell-blank-map="true"><rect x="93" y="116" width="48" height="20" rx="10" ry="10" fill="#000000" stroke="#000000" stroke-width="1"/><circle cx="133" cy="133.5" r="3.5" fill="#ffffff" data-blank-map-min="3,2"/><path d="M 96.8,123.5 H 105.2 M 101,119.3 V 127.7" fill="none" stroke="#ffffff" stroke-width="1.925" stroke-linecap="butt" data-blank-map-max="1,0"/></g><g data-channel="cell" data-cell-index="8" data-cell-row="2" data-cell-col="2" data-surround-bits="0x97e62b" data-edge-color="#e7be00"><rect x="153" y="116" width="48" height="20" fill="#f0d21e"/><text x="177" y="126" fill="#000000" font-size="16" text-anchor="middle" dominant-baseline="central">HtLw</text></g><g data-channel="cell" data-cell-index="9" data-cell-row="3" data-cell-col="0" data-surround-bits="0xa171f3" data-edge-color="#ff3f2f"><rect x="33" y="156" width="48" height="20" fill="#f7603d"/><text x="57" y="166" fill="#000000" font-size="16" text-anchor="middle" dominant-baseline="central">PWD3</text></g><g data-channel="cell" data-cell-index="10" data-cell-row="3" data-cell-col="1" data-surround-bits="0xca3ec7" data-edge-color="#ffffff"><rect x="93" y="156" width="48" height="20" fill="#188abf"/><text x="117" y="166" fill="#ffffff" font-size="16" text-anchor="middle" dominant-baseline="central">v4oY</text></g><g data-channel="cell" data-cell-index="11" data-cell-row="3" data-cell-col="2" data-surround-bits="0x3f987" data-edge-color="#ff3f2f"><rect x="153" y="156" width="48" height="20" fill="#71608a"/><text x="177" y="166" fill="#ffffff" font-size="16" text-anchor="middle" dominant-baseline="central">imBx</text></g></g></g><g data-channel="color-bar" data-bar-slots="15" data-bar-marker-left="7" data-bar-marker-right="11"><g data-color-bar-rank="0" data-color-bar-band="K"><rect x="1" y="1" width="20" height="74.806" fill="#000000"/><text x="11" y="72.286" fill="#ffffff" font-size="16" text-anchor="middle" data-color-bar-letter="true">k</text></g><g data-color-bar-rank="1" data-color-bar-band="G"><rect x="1" y="75.806" width="20" height="22.399" fill="#e7be00"/><text x="11" y="94.685" fill="#000000" font-size="16" text-anchor="middle" data-color-bar-letter="true">g</text></g><g data-color-bar-rank="2" data-color-bar-band="W"><rect x="1" y="98.205" width="20" height="56.323" fill="#ffffff"/><text x="11" y="151.007" fill="#000000" font-size="16" text-anchor="middle" data-color-bar-letter="true">w</text></g><g data-color-bar-rank="3" data-color-bar-band="R"><rect x="1" y="154.527" width="20" height="36.473" fill="#ff3f2f"/><text x="11" y="187.48" fill="#000000" font-size="16" text-anchor="middle" data-color-bar-letter="true">r</text></g><circle cx="5.6" cy="96" r="3.4" fill="#ffffff" stroke="#000000" stroke-width="0.75" data-bar-marker="left"/><circle cx="16.4" cy="146.667" r="3.4" fill="#ffffff" stroke="#000000" stroke-width="0.75" data-bar-marker="right"/></g><g data-channel="label-top"><text x="27" y="16" fill="#666666" font-size="12" dominant-baseline="central">CESR Ed25519 nt pubkey:</text></g><line x1="0" y1="0.5" x2="213" y2="0.5" stroke="#808080" stroke-width="1" shape-rendering="crispEdges"/><line x1="212.5" y1="0" x2="212.5" y2="192" stroke="#808080" stroke-width="1" shape-rendering="crispEdges"/><line x1="0" y1="191.5" x2="213" y2="191.5" stroke="#808080" stroke-width="1" shape-rendering="crispEdges"/><line x1="0.5" y1="0" x2="0.5" y2="192" stroke="#808080" stroke-width="1" shape-rendering="crispEdges"/><line x1="21.5" y1="0" x2="21.5" y2="192" stroke="#808080" stroke-width="1" shape-rendering="crispEdges"/></svg>