<svg width="213.0" height="192.0" viewBox="0 0 213.0 192.0" xmlns="http://www.w3.org/2000/svg" data-entviz-version="v6" data-entviz-lib="0.6.2" data-input-bytes="44" data-cols="3" data-rows="4"><defs><clipPath id="grid-clip-7bdd8de6c3a76611-3x4"><rect x="27.0" y="26.0" width="180.0" height="160.0"/></clipPath></defs><rect x="0" y="0" width="213.0" height="192.0" fill="#ffffff"/><g data-channel="grid"><rect x="27.0" y="26.0" width="180.0" height="160.0" fill="#ffffff"/><g><rect x="27.0" y="26.0" width="6.0" height="10.0" fill="#ff3f2f"/><rect x="39.0" y="26.0" width="6.0" height="10.0" fill="#ff3f2f"/><rect x="45.0" y="26.0" width="6.0" height="10.0" fill="#ff3f2f"/><rect x="69.0" y="26.0" width="6.0" height="10.0" fill="#ff3f2f"/><rect x="75.0" y="26.0" width="6.0" height="10.0" fill="#ff3f2f"/><rect x="81.0" y="36.0" width="6.0" height="10.0" fill="#ff3f2f"/><rect x="81.0" y="46.0" width="6.0" height="10.0" fill="#ff3f2f"/><rect x="81.0" y="56.0" width="6.0" height="10.0" fill="#ff3f2f"/><rect x="69.0" y="56.0" width="6.0" height="10.0" fill="#ff3f2f"/><rect x="63.0" y="56.0" width="6.0" height="10.0" fill="#ff3f2f"/><rect x="57.0" y="56.0" width="6.0" height="10.0" fill="#ff3f2f"/><rect x="51.0" y="56.0" width="6.0" height="10.0" fill="#ff3f2f"/><rect x="39.0" y="56.0" width="6.0" height="10.0" fill="#ff3f2f"/><rect x="33.0" y="56.0" width="6.0" height="10.0" fill="#ff3f2f"/><rect x="27.0" y="56.0" width="6.0" height="10.0" fill="#ff3f2f"/><rect x="27.0" y="46.0" width="6.0" height="10.0" fill="#ff3f2f"/><rect x="87.0" y="26.0" width="6.0" height="10.0" fill="#ff3f2f"/><rect x="93.0" y="26.0" width="6.0" height="10.0" fill="#ff3f2f"/><rect x="99.0" y="26.0" width="6.0" height="10.0" fill="#ff3f2f"/><rect x="117.0" y="26.0" width="6.0" height="10.0" fill="#ff3f2f"/><rect x="129.0" y="26.0" width="6.0" height="10.0" fill="#ff3f2f"/><rect x="135.0" y="26.0" width="6.0" height="10.0" fill="#ff3f2f"/><rect x="141.0" y="26.0" width="6.0" height="10.0" fill="#ff3f2f"/><rect x="129.0" y="56.0" width="6.0" height="10.0" fill="#ff3f2f"/><rect x="123.0" y="56.0" width="6.0" height="10.0" fill="#ff3f2f"/><rect x="111.0" y="56.0" width="6.0" height="10.0" fill="#ff3f2f"/><rect x="105.0" y="56.0" width="6.0" height="10.0" fill="#ff3f2f"/><rect x="87.0" y="56.0" width="6.0" height="10.0" fill="#ff3f2f"/><rect x="87.0" y="46.0" width="6.0" height="10.0" fill="#ff3f2f"/><rect x="87.0" y="36.0" width="6.0" height="10.0" fill="#ff3f2f"/><rect x="39.0" y="66.0" width="6.0" height="10.0" fill="#2f3fbf"/><rect x="45.0" y="66.0" width="6.0" height="10.0" fill="#2f3fbf"/><rect x="75.0" y="66.0" width="6.0" height="10.0" fill="#2f3fbf"/><rect x="81.0" y="96.0" width="6.0" height="10.0" fill="#2f3fbf"/><rect x="51.0" y="96.0" width="6.0" height="10.0" fill="#2f3fbf"/><rect x="45.0" y="96.0" width="6.0" height="10.0" fill="#2f3fbf"/><rect x="27.0" y="96.0" width="6.0" height="10.0" fill="#2f3fbf"/><rect x="27.0" y="86.0" width="6.0" height="10.0" fill="#2f3fbf"/><rect x="87.0" y="66.0" width="6.0" height="10.0" fill="#2f3fbf"/><rect x="105.0" y="66.0" width="6.0" height="10.0" fill="#2f3fbf"/><rect x="117.0" y="66.0" width="6.0" height="10.0" fill="#2f3fbf"/><rect x="129.0" y="66.0" width="6.0" height="10.0" fill="#2f3fbf"/><rect x="141.0" y="66.0" width="6.0" height="10.0" fill="#2f3fbf"/><rect x="141.0" y="76.0" width="6.0" height="10.0" fill="#2f3fbf"/><rect x="141.0" y="86.0" width="6.0" height="10.0" fill="#2f3fbf"/><rect x="135.0" y="96.0" width="6.0" height="10.0" fill="#2f3fbf"/><rect x="117.0" y="96.0" width="6.0" height="10.0" fill="#2f3fbf"/><rect x="99.0" y="96.0" width="6.0" height="10.0" fill="#2f3fbf"/><rect x="147.0" y="66.0" width="6.0" height="10.0" fill="#ff3f2f"/><rect x="159.0" y="66.0" width="6.0" height="10.0" fill="#ff3f2f"/><rect x="165.0" y="66.0" width="6.0" height="10.0" fill="#ff3f2f"/><rect x="183.0" y="66.0" width="6.0" height="10.0" fill="#ff3f2f"/><rect x="195.0" y="66.0" width="6.0" height="10.0" fill="#ff3f2f"/><rect x="201.0" y="66.0" width="6.0" height="10.0" fill="#ff3f2f"/><rect x="201.0" y="86.0" width="6.0" height="10.0" fill="#ff3f2f"/><rect x="201.0" y="96.0" width="6.0" height="10.0" fill="#ff3f2f"/><rect x="195.0" y="96.0" width="6.0" height="10.0" fill="#ff3f2f"/><rect x="189.0" y="96.0" width="6.0" height="10.0" fill="#ff3f2f"/><rect x="183.0" y="96.0" width="6.0" height="10.0" fill="#ff3f2f"/><rect x="147.0" y="96.0" width="6.0" height="10.0" fill="#ff3f2f"/><rect x="33.0" y="106.0" width="6.0" height="10.0" fill="#2f3fbf"/><rect x="39.0" y="106.0" width="6.0" height="10.0" fill="#2f3fbf"/><rect x="51.0" y="106.0" width="6.0" height="10.0" fill="#2f3fbf"/><rect x="69.0" y="106.0" width="6.0" height="10.0" fill="#2f3fbf"/><rect x="75.0" y="106.0" width="6.0" height="10.0" fill="#2f3fbf"/><rect x="81.0" y="106.0" width="6.0" height="10.0" fill="#2f3fbf"/><rect x="81.0" y="116.0" width="6.0" height="10.0" fill="#2f3fbf"/><rect x="75.0" y="136.0" width="6.0" height="10.0" fill="#2f3fbf"/><rect x="69.0" y="136.0" width="6.0" height="10.0" fill="#2f3fbf"/><rect x="45.0" y="136.0" width="6.0" height="10.0" fill="#2f3fbf"/><rect x="33.0" y="136.0" width="6.0" height="10.0" fill="#2f3fbf"/><rect x="27.0" y="116.0" width="6.0" height="10.0" fill="#2f3fbf"/><rect x="93.0" y="106.0" width="6.0" height="10.0" fill="#2f3fbf"/><rect x="105.0" y="106.0" width="6.0" height="10.0" fill="#2f3fbf"/><rect x="111.0" y="106.0" width="6.0" height="10.0" fill="#2f3fbf"/><rect x="123.0" y="106.0" width="6.0" height="10.0" fill="#2f3fbf"/><rect x="129.0" y="106.0" width="6.0" height="10.0" fill="#2f3fbf"/><rect x="135.0" y="106.0" width="6.0" height="10.0" fill="#2f3fbf"/><rect x="141.0" y="106.0" width="6.0" height="10.0" fill="#2f3fbf"/><rect x="141.0" y="116.0" width="6.0" height="10.0" fill="#2f3fbf"/><rect x="141.0" y="136.0" width="6.0" height="10.0" fill="#2f3fbf"/><rect x="129.0" y="136.0" width="6.0" height="10.0" fill="#2f3fbf"/><rect x="117.0" y="136.0" width="6.0" height="10.0" fill="#2f3fbf"/><rect x="99.0" y="136.0" width="6.0" height="10.0" fill="#2f3fbf"/><rect x="93.0" y="136.0" width="6.0" height="10.0" fill="#2f3fbf"/><rect x="87.0" y="136.0" width="6.0" height="10.0" fill="#2f3fbf"/><rect x="87.0" y="126.0" width="6.0" height="10.0" fill="#2f3fbf"/><rect x="87.0" y="116.0" width="6.0" height="10.0" fill="#2f3fbf"/><rect x="147.0" y="106.0" width="6.0" height="10.0" fill="#2f3fbf"/><rect x="183.0" y="106.0" width="6.0" height="10.0" fill="#2f3fbf"/><rect x="201.0" y="116.0" width="6.0" height="10.0" fill="#2f3fbf"/><rect x="201.0" y="126.0" width="6.0" height="10.0" fill="#2f3fbf"/><rect x="201.0" y="136.0" width="6.0" height="10.0" fill="#2f3fbf"/><rect x="195.0" y="136.0" width="6.0" height="10.0" fill="#2f3fbf"/><rect x="189.0" y="136.0" width="6.0" height="10.0" fill="#2f3fbf"/><rect x="177.0" y="136.0" width="6.0" height="10.0" fill="#2f3fbf"/><rect x="171.0" y="136.0" width="6.0" height="10.0" fill="#2f3fbf"/><rect x="147.0" y="126.0" width="6.0" height="10.0" fill="#2f3fbf"/><rect x="147.0" y="116.0" width="6.0" height="10.0" fill="#2f3fbf"/><rect x="27.0" y="146.0" width="6.0" height="10.0" fill="#ff3f2f"/><rect x="33.0" y="146.0" width="6.0" height="10.0" fill="#ff3f2f"/><rect x="39.0" y="146.0" width="6.0" height="10.0" fill="#ff3f2f"/><rect x="45.0" y="146.0" width="6.0" height="10.0" fill="#ff3f2f"/><rect x="57.0" y="146.0" width="6.0" height="10.0" fill="#ff3f2f"/><rect x="63.0" y="146.0" width="6.0" height="10.0" fill="#ff3f2f"/><rect x="75.0" y="146.0" width="6.0" height="10.0" fill="#ff3f2f"/><rect x="81.0" y="156.0" width="6.0" height="10.0" fill="#ff3f2f"/><rect x="81.0" y="166.0" width="6.0" height="10.0" fill="#ff3f2f"/><rect x="81.0" y="176.0" width="6.0" height="10.0" fill="#ff3f2f"/><rect x="75.0" y="176.0" width="6.0" height="10.0" fill="#ff3f2f"/><rect x="69.0" y="176.0" width="6.0" height="10.0" fill="#ff3f2f"/><rect x="27.0" y="166.0" width="6.0" height="10.0" fill="#ff3f2f"/><rect x="27.0" y="156.0" width="6.0" height="10.0" fill="#ff3f2f"/><rect x="93.0" y="146.0" width="6.0" height="10.0" fill="#2f3fbf"/><rect x="99.0" y="146.0" width="6.0" height="10.0" fill="#2f3fbf"/><rect x="117.0" y="146.0" width="6.0" height="10.0" fill="#2f3fbf"/><rect x="123.0" y="146.0" width="6.0" height="10.0" fill="#2f3fbf"/><rect x="129.0" y="146.0" width="6.0" height="10.0" fill="#2f3fbf"/><rect x="135.0" y="146.0" width="6.0" height="10.0" fill="#2f3fbf"/><rect x="141.0" y="156.0" width="6.0" height="10.0" fill="#2f3fbf"/><rect x="141.0" y="166.0" width="6.0" height="10.0" fill="#2f3fbf"/><rect x="141.0" y="176.0" width="6.0" height="10.0" fill="#2f3fbf"/><rect x="129.0" y="176.0" width="6.0" height="10.0" fill="#2f3fbf"/><rect x="123.0" y="176.0" width="6.0" height="10.0" fill="#2f3fbf"/><rect x="111.0" y="176.0" width="6.0" height="10.0" fill="#2f3fbf"/><rect x="105.0" y="176.0" width="6.0" height="10.0" fill="#2f3fbf"/><rect x="93.0" y="176.0" width="6.0" height="10.0" fill="#2f3fbf"/><rect x="87.0" y="176.0" width="6.0" height="10.0" fill="#2f3fbf"/><rect x="87.0" y="166.0" width="6.0" height="10.0" fill="#2f3fbf"/><rect x="87.0" y="156.0" width="6.0" height="10.0" fill="#2f3fbf"/><rect x="159.0" y="146.0" width="6.0" height="10.0" fill="#2f3fbf"/><rect x="177.0" y="146.0" width="6.0" height="10.0" fill="#2f3fbf"/><rect x="189.0" y="146.0" width="6.0" height="10.0" fill="#2f3fbf"/><rect x="195.0" y="146.0" width="6.0" height="10.0" fill="#2f3fbf"/><rect x="201.0" y="156.0" width="6.0" height="10.0" fill="#2f3fbf"/><rect x="201.0" y="176.0" width="6.0" height="10.0" fill="#2f3fbf"/><rect x="195.0" y="176.0" width="6.0" height="10.0" fill="#2f3fbf"/><rect x="177.0" y="176.0" width="6.0" height="10.0" fill="#2f3fbf"/><rect x="171.0" y="176.0" width="6.0" height="10.0" fill="#2f3fbf"/><rect x="153.0" y="176.0" width="6.0" height="10.0" fill="#2f3fbf"/><rect x="147.0" y="176.0" width="6.0" height="10.0" fill="#2f3fbf"/><rect x="147.0" y="156.0" width="6.0" height="10.0" fill="#2f3fbf"/></g><g clip-path="url(#grid-clip-7bdd8de6c3a76611-3x4)" data-channel="ellipse" data-ellipse-anchor-x="147.0" data-ellipse-anchor-y="106.0" data-ellipse-rx="49.03549734631025" data-ellipse-ry="49.03549734631025" data-ellipse-rotation-deg="96.0"><ellipse cx="147.0" cy="106.0" rx="49.03549734631025" ry="49.03549734631025" transform="rotate(96.0 147.0 106.0)" fill="#000000" stroke="#000000" fill-opacity="0.2" stroke-opacity="0.3" stroke-width="2.0"/></g><g><g data-channel="cell" data-cell-index="0" data-cell-row="0" data-cell-col="0"><rect x="33.0" y="36.0" width="48.0" height="20.0" fill="#b61c2b"/><text x="57.0" y="46.0" fill="#ffffff" style="font-family: &quot;JetBrains Mono&quot;, &quot;Menlo&quot;, &quot;Consolas&quot;, &quot;DejaVu Sans Mono&quot;, &quot;Liberation Mono&quot;, &quot;Roboto Mono&quot;, &quot;Noto Sans Mono&quot;, monospace; font-size: 16.0px;" text-anchor="middle" dominant-baseline="central">Kxy2</text></g><g data-channel="cell" data-cell-index="1" data-cell-row="0" data-cell-col="1"><rect x="93.0" y="36.0" width="48.0" height="20.0" fill="#df0cb2"/><text x="117.0" y="46.0" fill="#000000" style="font-family: &quot;JetBrains Mono&quot;, &quot;Menlo&quot;, &quot;Consolas&quot;, &quot;DejaVu Sans Mono&quot;, &quot;Liberation Mono&quot;, &quot;Roboto Mono&quot;, &quot;Noto Sans Mono&quot;, monospace; font-size: 16.0px;" text-anchor="middle" dominant-baseline="central">sgzf</text></g><g data-channel="cell" data-cell-index="2" data-cell-row="0" data-cell-col="2" data-cell-blank="true" data-cell-blank-map="true"><rect x="153.0" y="36.0" width="48.0" height="20.0" rx="10.0" ry="10.0" fill="#e7be00" stroke="#000000" stroke-width="1"/><circle cx="177.0" cy="48.5" r="3.5" fill="#d62828" data-blank-map-max="true"/><circle cx="177.0" cy="43.5" r="3.5" fill="#1d4ed8" data-blank-map-min="true"/></g><g data-channel="cell" data-cell-index="3" data-cell-row="1" data-cell-col="0"><rect x="33.0" y="76.0" width="48.0" height="20.0" fill="#ab5ca6"/><text x="57.0" y="86.0" fill="#ffffff" style="font-family: &quot;JetBrains Mono&quot;, &quot;Menlo&quot;, &quot;Consolas&quot;, &quot;DejaVu Sans Mono&quot;, &quot;Liberation Mono&quot;, &quot;Roboto Mono&quot;, &quot;Noto Sans Mono&quot;, monospace; font-size: 16.0px;" text-anchor="middle" dominant-baseline="central">plyr</text></g><g data-channel="cell" data-cell-index="4" data-cell-row="1" data-cell-col="1" data-cell-quartile="4"><rect x="93.0" y="76.0" width="48.0" height="20.0" fill="#30d8fe"/><text x="117.0" y="86.0" fill="#000000" style="font-family: &quot;JetBrains Mono&quot;, &quot;Menlo&quot;, &quot;Consolas&quot;, &quot;DejaVu Sans Mono&quot;, &quot;Liberation Mono&quot;, &quot;Roboto Mono&quot;, &quot;Noto Sans Mono&quot;, monospace; font-size: 16.0px;" text-anchor="middle" dominant-baseline="central">_tgw</text><polygon points="93.0,96.0 93.0,86.0 103.0,96.0" fill="#000000"/></g><g data-channel="cell" data-cell-index="5" data-cell-row="1" data-cell-col="2" data-cell-quartile="2"><rect x="153.0" y="76.0" width="48.0" height="20.0" fill="#b51423"/><text x="177.0" y="86.0" fill="#ffffff" style="font-family: &quot;JetBrains Mono&quot;, &quot;Menlo&quot;, &quot;Consolas&quot;, &quot;DejaVu Sans Mono&quot;, &quot;Liberation Mono&quot;, &quot;Roboto Mono&quot;, &quot;Noto Sans Mono&quot;, monospace; font-size: 16.0px;" text-anchor="middle" dominant-baseline="central">IxS1</text><polygon points="201.0,76.0 191.0,76.0 201.0,86.0" fill="#ffffff"/></g><g data-channel="cell" data-cell-index="6" data-cell-row="2" data-cell-col="0"><rect x="33.0" y="116.0" width="48.0" height="20.0" fill="#8efdf5"/><text x="57.0" y="126.0" fill="#000000" style="font-family: &quot;JetBrains Mono&quot;, &quot;Menlo&quot;, &quot;Consolas&quot;, &quot;DejaVu Sans Mono&quot;, &quot;Liberation Mono&quot;, &quot;Roboto Mono&quot;, &quot;Noto Sans Mono&quot;, monospace; font-size: 16.0px;" text-anchor="middle" dominant-baseline="central">9f2O</text></g><g data-channel="cell" data-cell-index="7" data-cell-row="2" data-cell-col="1"><rect x="93.0" y="116.0" width="48.0" height="20.0" fill="#471172"/><text x="117.0" y="126.0" fill="#ffffff" style="font-family: &quot;JetBrains Mono&quot;, &quot;Menlo&quot;, &quot;Consolas&quot;, &quot;DejaVu Sans Mono&quot;, &quot;Liberation Mono&quot;, &quot;Roboto Mono&quot;, &quot;Noto Sans Mono&quot;, monospace; font-size: 16.0px;" text-anchor="middle" dominant-baseline="central">chFH</text></g><g data-channel="cell" data-cell-index="8" data-cell-row="2" data-cell-col="2" data-cell-quartile="1"><rect x="153.0" y="116.0" width="48.0" height="20.0" fill="#0fbcb4"/><text x="177.0" y="126.0" fill="#000000" style="font-family: &quot;JetBrains Mono&quot;, &quot;Menlo&quot;, &quot;Consolas&quot;, &quot;DejaVu Sans Mono&quot;, &quot;Liberation Mono&quot;, &quot;Roboto Mono&quot;, &quot;Noto Sans Mono&quot;, monospace; font-size: 16.0px;" text-anchor="middle" dominant-baseline="central">tLwP</text><polygon points="153.0,116.0 163.0,116.0 153.0,126.0" fill="#000000"/></g><g data-channel="cell" data-cell-index="9" data-cell-row="3" data-cell-col="0"><rect x="33.0" y="156.0" width="48.0" height="20.0" fill="#ef3d58"/><text x="57.0" y="166.0" fill="#000000" style="font-family: &quot;JetBrains Mono&quot;, &quot;Menlo&quot;, &quot;Consolas&quot;, &quot;DejaVu Sans Mono&quot;, &quot;Liberation Mono&quot;, &quot;Roboto Mono&quot;, &quot;Noto Sans Mono&quot;, monospace; font-size: 16.0px;" text-anchor="middle" dominant-baseline="central">WD3v</text></g><g data-channel="cell" data-cell-index="10" data-cell-row="3" data-cell-col="1"><rect x="93.0" y="156.0" width="48.0" height="20.0" fill="#2286e2"/><text x="117.0" y="166.0" fill="#000000" style="font-family: &quot;JetBrains Mono&quot;, &quot;Menlo&quot;, &quot;Consolas&quot;, &quot;DejaVu Sans Mono&quot;, &quot;Liberation Mono&quot;, &quot;Roboto Mono&quot;, &quot;Noto Sans Mono&quot;, monospace; font-size: 16.0px;" text-anchor="middle" dominant-baseline="central">4oYi</text></g><g data-channel="cell" data-cell-index="11" data-cell-row="3" data-cell-col="2" data-cell-quartile="3"><rect x="153.0" y="156.0" width="48.0" height="20.0" fill="#711c98"/><text x="177.0" y="166.0" fill="#ffffff" style="font-family: &quot;JetBrains Mono&quot;, &quot;Menlo&quot;, &quot;Consolas&quot;, &quot;DejaVu Sans Mono&quot;, &quot;Liberation Mono&quot;, &quot;Roboto Mono&quot;, &quot;Noto Sans Mono&quot;, monospace; font-size: 16.0px;" text-anchor="middle" dominant-baseline="central">mBx</text><polygon points="201.0,176.0 201.0,166.0 191.0,176.0" fill="#ffffff"/></g></g></g><g data-channel="color-bar"><g data-color-bar-rank="0" data-color-bar-band="R"><rect x="1" y="1" width="20.0" height="73.15039966996859" fill="#ff3f2f"/><text x="11.0" y="70.6303996699686" fill="#000000" style="font-family: &quot;JetBrains Mono&quot;, &quot;Menlo&quot;, &quot;Consolas&quot;, &quot;DejaVu Sans Mono&quot;, &quot;Liberation Mono&quot;, &quot;Roboto Mono&quot;, &quot;Noto Sans Mono&quot;, monospace; font-size: 16.0px;" text-anchor="middle" data-color-bar-letter="true">r</text></g><g data-color-bar-rank="1" data-color-bar-band="K"><rect x="1" y="74.15039966996859" width="20.0" height="48.58924424945691" fill="#000000"/><text x="11.0" y="119.21964391942551" fill="#ffffff" style="font-family: &quot;JetBrains Mono&quot;, &quot;Menlo&quot;, &quot;Consolas&quot;, &quot;DejaVu Sans Mono&quot;, &quot;Liberation Mono&quot;, &quot;Roboto Mono&quot;, &quot;Noto Sans Mono&quot;, monospace; font-size: 16.0px;" text-anchor="middle" data-color-bar-letter="true">k</text></g><g data-color-bar-rank="2" data-color-bar-band="B"><rect x="1" y="122.7396439194255" width="20.0" height="35.27700601368084" fill="#2f3fbf"/><text x="11.0" y="154.49664993310634" fill="#ffffff" style="font-family: &quot;JetBrains Mono&quot;, &quot;Menlo&quot;, &quot;Consolas&quot;, &quot;DejaVu Sans Mono&quot;, &quot;Liberation Mono&quot;, &quot;Roboto Mono&quot;, &quot;Noto Sans Mono&quot;, monospace; font-size: 16.0px;" text-anchor="middle" data-color-bar-letter="true">b</text></g><g data-color-bar-rank="3" data-color-bar-band="G"><rect x="1" y="158.01664993310635" width="20.0" height="32.98335006689365" fill="#e7be00"/><text x="11.0" y="187.48" fill="#000000" style="font-family: &quot;JetBrains Mono&quot;, &quot;Menlo&quot;, &quot;Consolas&quot;, &quot;DejaVu Sans Mono&quot;, &quot;Liberation Mono&quot;, &quot;Roboto Mono&quot;, &quot;Noto Sans Mono&quot;, monospace; font-size: 16.0px;" text-anchor="middle" data-color-bar-letter="true">g</text></g></g><g data-channel="label-top"><text x="27.0" y="16.0" fill="#666666" style="font-family: &quot;JetBrains Mono&quot;, &quot;Menlo&quot;, &quot;Consolas&quot;, &quot;DejaVu Sans Mono&quot;, &quot;Liberation Mono&quot;, &quot;Roboto Mono&quot;, &quot;Noto Sans Mono&quot;, monospace; font-size: 12.0px;" dominant-baseline="central">CESR Ed25519 nt pubkey: B...</text></g><line x1="0" y1="0.5" x2="213.0" y2="0.5" stroke="#808080" stroke-width="1" shape-rendering="crispEdges"/><line x1="212.5" y1="0" x2="212.5" y2="192.0" stroke="#808080" stroke-width="1" shape-rendering="crispEdges"/><line x1="0" y1="191.5" x2="213.0" y2="191.5" stroke="#808080" stroke-width="1" shape-rendering="crispEdges"/><line x1="0.5" y1="0" x2="0.5" y2="192.0" stroke="#808080" stroke-width="1" shape-rendering="crispEdges"/><line x1="21.5" y1="0" x2="21.5" y2="192.0" stroke="#808080" stroke-width="1" shape-rendering="crispEdges"/></svg>