<svg width="215" height="194" viewBox="0 0 215 194" xmlns="http://www.w3.org/2000/svg" font-family="&quot;JetBrains Mono&quot;, &quot;Menlo&quot;, &quot;Consolas&quot;, &quot;DejaVu Sans Mono&quot;, &quot;Liberation Mono&quot;, &quot;Roboto Mono&quot;, &quot;Noto Sans Mono&quot;, monospace" data-entviz-version="v15" data-entviz-lib="0.15.1" data-input-bytes="44" data-cols="3" data-rows="4" data-encoding="base64url" data-scheme="cesr" data-role="key" data-size-basis="decoded" data-entropy-type="cesr" data-size-bits="264" data-qualifiers="{&quot;algorithm&quot;:&quot;Ed25519 nt pubkey&quot;}" data-parts="[{&quot;text&quot;:&quot;BKxy2sgzfplyr_tgwIxS19f2OchFHtLwPWD3v4oYimBx&quot;,&quot;bind&quot;:&quot;core&quot;}]"><defs><clipPath id="grid-clip-c7111e5b399acc5b-3x4"><rect x="28" y="27" width="180" height="160"/></clipPath></defs><rect x="1" y="1" width="213" height="192" fill="#ffffff"/><g data-channel="grid"><rect x="28" y="27" width="180" height="160" fill="#2f3fbf"/><g><path fill="#ff3f2f" d="M34 27h6v10h-6zM40 27h6v10h-6zM46 27h6v10h-6zM52 27h6v10h-6zM76 27h6v10h-6zM82 57h6v10h-6zM58 57h6v10h-6zM52 57h6v10h-6zM46 57h6v10h-6zM28 47h6v10h-6zM28 37h6v10h-6z"/><path fill="#ffffff" d="M94 27h6v10h-6zM106 27h6v10h-6zM112 27h6v10h-6zM130 27h6v10h-6zM136 27h6v10h-6zM142 47h6v10h-6zM142 57h6v10h-6zM136 57h6v10h-6zM118 57h6v10h-6zM112 57h6v10h-6zM100 57h6v10h-6zM94 57h6v10h-6zM88 47h6v10h-6z"/><path fill="#e7be00" d="M160 27h6v10h-6zM166 27h6v10h-6zM178 27h6v10h-6zM184 27h6v10h-6zM196 27h6v10h-6zM202 27h6v10h-6zM202 47h6v10h-6zM202 57h6v10h-6zM190 57h6v10h-6zM166 57h6v10h-6zM160 57h6v10h-6zM148 47h6v10h-6zM148 37h6v10h-6z"/><path fill="#ffffff" d="M34 67h6v10h-6zM52 67h6v10h-6zM70 67h6v10h-6zM82 87h6v10h-6zM76 97h6v10h-6zM70 97h6v10h-6zM52 97h6v10h-6zM34 97h6v10h-6zM28 87h6v10h-6zM28 77h6v10h-6z"/><path fill="#ff3f2f" d="M94 67h6v10h-6zM130 67h6v10h-6zM142 67h6v10h-6zM142 77h6v10h-6zM142 87h6v10h-6zM124 97h6v10h-6zM118 97h6v10h-6zM106 97h6v10h-6zM94 97h6v10h-6zM88 77h6v10h-6z"/><path fill="#ffffff" d="M148 67h6v10h-6zM160 67h6v10h-6zM166 67h6v10h-6zM172 67h6v10h-6zM190 67h6v10h-6zM196 67h6v10h-6zM202 77h6v10h-6zM202 87h6v10h-6zM190 97h6v10h-6zM178 97h6v10h-6zM172 97h6v10h-6zM166 97h6v10h-6zM148 77h6v10h-6z"/><path fill="#ff3f2f" d="M34 107h6v10h-6zM40 107h6v10h-6zM46 107h6v10h-6zM64 107h6v10h-6zM82 127h6v10h-6zM82 137h6v10h-6zM76 137h6v10h-6zM70 137h6v10h-6zM52 137h6v10h-6zM46 137h6v10h-6zM40 137h6v10h-6z"/><path fill="#e7be00" d="M148 107h6v10h-6zM154 107h6v10h-6zM166 107h6v10h-6zM178 107h6v10h-6zM202 107h6v10h-6zM202 117h6v10h-6zM196 137h6v10h-6zM190 137h6v10h-6zM184 137h6v10h-6zM178 137h6v10h-6zM172 137h6v10h-6zM166 137h6v10h-6zM154 137h6v10h-6zM148 117h6v10h-6z"/><path fill="#ff3f2f" d="M28 147h6v10h-6zM34 147h6v10h-6zM52 147h6v10h-6zM58 147h6v10h-6zM64 147h6v10h-6zM70 147h6v10h-6zM76 147h6v10h-6zM82 177h6v10h-6zM76 177h6v10h-6zM70 177h6v10h-6zM58 177h6v10h-6zM28 177h6v10h-6zM28 157h6v10h-6z"/><path fill="#ffffff" d="M88 147h6v10h-6zM94 147h6v10h-6zM100 147h6v10h-6zM124 147h6v10h-6zM130 147h6v10h-6zM142 147h6v10h-6zM142 157h6v10h-6zM142 167h6v10h-6zM142 177h6v10h-6zM136 177h6v10h-6zM112 177h6v10h-6zM100 177h6v10h-6zM88 167h6v10h-6zM88 157h6v10h-6z"/><path fill="#ff3f2f" d="M148 147h6v10h-6zM154 147h6v10h-6zM160 147h6v10h-6zM190 147h6v10h-6zM196 147h6v10h-6zM202 167h6v10h-6zM202 177h6v10h-6zM196 177h6v10h-6zM190 177h6v10h-6zM184 177h6v10h-6zM178 177h6v10h-6zM172 177h6v10h-6z"/></g><g clip-path="url(#grid-clip-c7111e5b399acc5b-3x4)" data-channel="ellipse" data-ellipse-anchor-x="88" data-ellipse-anchor-y="67" data-ellipse-rx="57.7" data-ellipse-ry="45.481" data-ellipse-rotation-deg="180"><ellipse cx="88" cy="67" rx="57.7" ry="45.481" transform="rotate(180 88 67)" fill="#ffffff" stroke="#ffffff" fill-opacity="0.35" stroke-opacity="0.45" stroke-width="2"/></g><g><g data-channel="cell" data-cell-index="0" data-cell-row="0" data-cell-col="0" data-surround-bits="0xc7111e" data-edge-color="#ff3f2f"><rect x="34" y="37" width="48" height="20" fill="#72ac04"/><text x="58" y="47" fill="#000000" font-size="16" text-anchor="middle" dominant-baseline="central">BKxy</text></g><g data-channel="cell" data-cell-index="1" data-cell-row="0" data-cell-col="1" data-surround-bits="0x5b399a" data-edge-color="#ffffff"><rect x="94" y="37" width="48" height="20" fill="#33c8da"/><text x="118" y="47" fill="#000000" font-size="16" text-anchor="middle" dominant-baseline="central">2sgz</text></g><g data-channel="cell" data-cell-index="2" data-cell-row="0" data-cell-col="2" data-surround-bits="0xcc5b6c" data-edge-color="#e7be00" data-cell-quartile="4"><rect x="154" y="37" width="48" height="20" fill="#72997e"/><text x="178" y="47" fill="#000000" font-size="16" text-anchor="middle" dominant-baseline="central">fply</text><polygon points="154,57 154,47 164,57" fill="#000000"/></g><g data-channel="cell" data-cell-index="3" data-cell-row="1" data-cell-col="0" data-surround-bits="0xd26892" data-edge-color="#ffffff"><rect x="34" y="77" width="48" height="20" fill="#60fbaf"/><text x="58" y="87" fill="#000000" font-size="16" text-anchor="middle" dominant-baseline="central">r_tg</text></g><g data-channel="cell" data-cell-index="4" data-cell-row="1" data-cell-col="1" data-surround-bits="0x958e82" data-edge-color="#ff3f2f" data-cell-quartile="1"><rect x="94" y="77" width="48" height="20" fill="#528cc0"/><text x="118" y="87" fill="#000000" font-size="16" text-anchor="middle" dominant-baseline="central">wIxS</text><polygon points="94,77 104,77 94,87" fill="#000000"/></g><g data-channel="cell" data-cell-index="5" data-cell-row="1" data-cell-col="2" data-surround-bits="0x874d9d" data-edge-color="#ffffff" data-cell-quartile="3"><rect x="154" y="77" width="48" height="20" fill="#f6d7d7"/><text x="178" y="87" fill="#000000" font-size="16" text-anchor="middle" dominant-baseline="central">19f2</text><polygon points="202,97 202,87 192,97" fill="#000000"/></g><g data-channel="cell" data-cell-index="6" data-cell-row="2" data-cell-col="0" data-surround-bits="0xe784e" data-edge-color="#ff3f2f" data-cell-quartile="2"><rect x="34" y="117" width="48" height="20" fill="#45c839"/><text x="58" y="127" fill="#000000" font-size="16" text-anchor="middle" dominant-baseline="central">OchF</text><polygon points="82,117 72,117 82,127" fill="#000000"/></g><g data-channel="cell" data-cell-index="7" data-cell-row="2" data-cell-col="1" data-cell-blank="true" data-cell-blank-map="true"><rect x="94" y="117" width="48" height="20" rx="10" ry="10" fill="#000000" stroke="#000000" stroke-width="1"/><circle cx="134" cy="134.5" r="3.5" fill="#ffffff" data-blank-map-min="3,2"/><path d="M 97.8,124.5 H 106.2 M 102,120.3 V 128.7" fill="none" stroke="#ffffff" stroke-width="1.925" stroke-linecap="butt" data-blank-map-max="1,0"/></g><g data-channel="cell" data-cell-index="8" data-cell-row="2" data-cell-col="2" data-surround-bits="0x97e62b" data-edge-color="#e7be00"><rect x="154" y="117" width="48" height="20" fill="#f0d21e"/><text x="178" y="127" fill="#000000" font-size="16" text-anchor="middle" dominant-baseline="central">HtLw</text></g><g data-channel="cell" data-cell-index="9" data-cell-row="3" data-cell-col="0" data-surround-bits="0xa171f3" data-edge-color="#ff3f2f"><rect x="34" y="157" width="48" height="20" fill="#f7603d"/><text x="58" y="167" fill="#000000" font-size="16" text-anchor="middle" dominant-baseline="central">PWD3</text></g><g data-channel="cell" data-cell-index="10" data-cell-row="3" data-cell-col="1" data-surround-bits="0xca3ec7" data-edge-color="#ffffff"><rect x="94" y="157" width="48" height="20" fill="#188abf"/><text x="118" y="167" fill="#ffffff" font-size="16" text-anchor="middle" dominant-baseline="central">v4oY</text></g><g data-channel="cell" data-cell-index="11" data-cell-row="3" data-cell-col="2" data-surround-bits="0x3f987" data-edge-color="#ff3f2f"><rect x="154" y="157" width="48" height="20" fill="#71608a"/><text x="178" y="167" fill="#ffffff" font-size="16" text-anchor="middle" dominant-baseline="central">imBx</text></g></g></g><g data-channel="color-bar" data-bar-slots="15" data-bar-marker-left="7" data-bar-marker-right="11"><g data-color-bar-rank="0" data-color-bar-band="K"><rect x="2" y="2" width="20" height="74.806" fill="#000000"/><text x="12" y="73.286" fill="#ffffff" font-size="16" text-anchor="middle" data-color-bar-letter="true">k</text></g><g data-color-bar-rank="1" data-color-bar-band="G"><rect x="2" y="76.806" width="20" height="22.399" fill="#e7be00"/><text x="12" y="95.685" fill="#000000" font-size="16" text-anchor="middle" data-color-bar-letter="true">g</text></g><g data-color-bar-rank="2" data-color-bar-band="W"><rect x="2" y="99.205" width="20" height="56.323" fill="#ffffff"/><text x="12" y="152.007" fill="#000000" font-size="16" text-anchor="middle" data-color-bar-letter="true">w</text></g><g data-color-bar-rank="3" data-color-bar-band="R"><rect x="2" y="155.527" width="20" height="36.473" fill="#ff3f2f"/><text x="12" y="188.48" fill="#000000" font-size="16" text-anchor="middle" data-color-bar-letter="true">r</text></g><circle cx="6.6" cy="97" r="3.4" fill="#ffffff" stroke="#000000" stroke-width="0.75" data-bar-marker="left"/><circle cx="17.4" cy="147.667" r="3.4" fill="#ffffff" stroke="#000000" stroke-width="0.75" data-bar-marker="right"/></g><g data-channel="label-top"><text x="28" y="17" fill="#666666" font-size="12" dominant-baseline="central">CESR, Ed25519 nt</text></g><line x1="1" y1="1.5" x2="214" y2="1.5" stroke="#808080" stroke-width="1" shape-rendering="crispEdges"/><line x1="213.5" y1="1" x2="213.5" y2="193" stroke="#808080" stroke-width="1" shape-rendering="crispEdges"/><line x1="1" y1="192.5" x2="214" y2="192.5" stroke="#808080" stroke-width="1" shape-rendering="crispEdges"/><line x1="1.5" y1="1" x2="1.5" y2="193" stroke="#808080" stroke-width="1" shape-rendering="crispEdges"/><line x1="22.5" y1="1" x2="22.5" y2="193" stroke="#808080" stroke-width="1" shape-rendering="crispEdges"/></svg>