<svg width="213" height="192" viewBox="0 0 213 192" xmlns="http://www.w3.org/2000/svg" font-family="&quot;JetBrains Mono&quot;, &quot;Menlo&quot;, &quot;Consolas&quot;, &quot;DejaVu Sans Mono&quot;, &quot;Liberation Mono&quot;, &quot;Roboto Mono&quot;, &quot;Noto Sans Mono&quot;, monospace" data-entviz-version="v10" data-entviz-lib="0.10.0" data-input-bytes="44" data-cols="3" data-rows="4"><defs><clipPath id="grid-clip-c7111e5b399acc5b-3x4"><rect x="27" y="26" width="180" height="160"/></clipPath></defs><rect x="0" y="0" width="213" height="192" fill="#ffffff"/><g data-channel="grid"><rect x="27" y="26" width="180" height="160" fill="#2f3fbf"/><g><rect x="33" y="26" width="6" height="10" fill="#ff3f2f"/><rect x="39" y="26" width="6" height="10" fill="#ff3f2f"/><rect x="45" y="26" width="6" height="10" fill="#ff3f2f"/><rect x="51" y="26" width="6" height="10" fill="#ff3f2f"/><rect x="75" y="26" width="6" height="10" fill="#ff3f2f"/><rect x="81" y="56" width="6" height="10" fill="#ff3f2f"/><rect x="57" y="56" width="6" height="10" fill="#ff3f2f"/><rect x="51" y="56" width="6" height="10" fill="#ff3f2f"/><rect x="45" y="56" width="6" height="10" fill="#ff3f2f"/><rect x="27" y="46" width="6" height="10" fill="#ff3f2f"/><rect x="27" y="36" width="6" height="10" fill="#ff3f2f"/><rect x="93" y="26" width="6" height="10" fill="#ffffff"/><rect x="105" y="26" width="6" height="10" fill="#ffffff"/><rect x="111" y="26" width="6" height="10" fill="#ffffff"/><rect x="129" y="26" width="6" height="10" fill="#ffffff"/><rect x="135" y="26" width="6" height="10" fill="#ffffff"/><rect x="141" y="46" width="6" height="10" fill="#ffffff"/><rect x="141" y="56" width="6" height="10" fill="#ffffff"/><rect x="135" y="56" width="6" height="10" fill="#ffffff"/><rect x="117" y="56" width="6" height="10" fill="#ffffff"/><rect x="111" y="56" width="6" height="10" fill="#ffffff"/><rect x="99" y="56" width="6" height="10" fill="#ffffff"/><rect x="93" y="56" width="6" height="10" fill="#ffffff"/><rect x="87" y="46" width="6" height="10" fill="#ffffff"/><rect x="159" y="26" width="6" height="10" fill="#e7be00"/><rect x="165" y="26" width="6" height="10" fill="#e7be00"/><rect x="177" y="26" width="6" height="10" fill="#e7be00"/><rect x="183" y="26" width="6" height="10" fill="#e7be00"/><rect x="195" y="26" width="6" height="10" fill="#e7be00"/><rect x="201" y="26" width="6" height="10" fill="#e7be00"/><rect x="201" y="46" width="6" height="10" fill="#e7be00"/><rect x="201" y="56" width="6" height="10" fill="#e7be00"/><rect x="189" y="56" width="6" height="10" fill="#e7be00"/><rect x="165" y="56" width="6" height="10" fill="#e7be00"/><rect x="159" y="56" width="6" height="10" fill="#e7be00"/><rect x="147" y="46" width="6" height="10" fill="#e7be00"/><rect x="147" y="36" width="6" height="10" fill="#e7be00"/><rect x="33" y="66" width="6" height="10" fill="#ffffff"/><rect x="51" y="66" width="6" height="10" fill="#ffffff"/><rect x="69" y="66" width="6" height="10" fill="#ffffff"/><rect x="81" y="86" width="6" height="10" fill="#ffffff"/><rect x="75" y="96" width="6" height="10" fill="#ffffff"/><rect x="69" y="96" width="6" height="10" fill="#ffffff"/><rect x="51" y="96" width="6" height="10" fill="#ffffff"/><rect x="33" y="96" width="6" height="10" fill="#ffffff"/><rect x="27" y="86" width="6" height="10" fill="#ffffff"/><rect x="27" y="76" width="6" height="10" fill="#ffffff"/><rect x="93" y="66" width="6" height="10" fill="#ff3f2f"/><rect x="129" y="66" width="6" height="10" fill="#ff3f2f"/><rect x="141" y="66" width="6" height="10" fill="#ff3f2f"/><rect x="141" y="76" width="6" height="10" fill="#ff3f2f"/><rect x="141" y="86" width="6" height="10" fill="#ff3f2f"/><rect x="123" y="96" width="6" height="10" fill="#ff3f2f"/><rect x="117" y="96" width="6" height="10" fill="#ff3f2f"/><rect x="105" y="96" width="6" height="10" fill="#ff3f2f"/><rect x="93" y="96" width="6" height="10" fill="#ff3f2f"/><rect x="87" y="76" width="6" height="10" fill="#ff3f2f"/><rect x="147" y="66" width="6" height="10" fill="#ffffff"/><rect x="159" y="66" width="6" height="10" fill="#ffffff"/><rect x="165" y="66" width="6" height="10" fill="#ffffff"/><rect x="171" y="66" width="6" height="10" fill="#ffffff"/><rect x="189" y="66" width="6" height="10" fill="#ffffff"/><rect x="195" y="66" width="6" height="10" fill="#ffffff"/><rect x="201" y="76" width="6" height="10" fill="#ffffff"/><rect x="201" y="86" width="6" height="10" fill="#ffffff"/><rect x="189" y="96" width="6" height="10" fill="#ffffff"/><rect x="177" y="96" width="6" height="10" fill="#ffffff"/><rect x="171" y="96" width="6" height="10" fill="#ffffff"/><rect x="165" y="96" width="6" height="10" fill="#ffffff"/><rect x="147" y="76" width="6" height="10" fill="#ffffff"/><rect x="33" y="106" width="6" height="10" fill="#ff3f2f"/><rect x="39" y="106" width="6" height="10" fill="#ff3f2f"/><rect x="45" y="106" width="6" height="10" fill="#ff3f2f"/><rect x="63" y="106" width="6" height="10" fill="#ff3f2f"/><rect x="81" y="126" width="6" height="10" fill="#ff3f2f"/><rect x="81" y="136" width="6" height="10" fill="#ff3f2f"/><rect x="75" y="136" width="6" height="10" fill="#ff3f2f"/><rect x="69" y="136" width="6" height="10" fill="#ff3f2f"/><rect x="51" y="136" width="6" height="10" fill="#ff3f2f"/><rect x="45" y="136" width="6" height="10" fill="#ff3f2f"/><rect x="39" y="136" width="6" height="10" fill="#ff3f2f"/><rect x="147" y="106" width="6" height="10" fill="#e7be00"/><rect x="153" y="106" width="6" height="10" fill="#e7be00"/><rect x="165" y="106" width="6" height="10" fill="#e7be00"/><rect x="177" y="106" width="6" height="10" fill="#e7be00"/><rect x="201" y="106" width="6" height="10" fill="#e7be00"/><rect x="201" y="116" width="6" height="10" fill="#e7be00"/><rect x="195" y="136" width="6" height="10" fill="#e7be00"/><rect x="189" y="136" width="6" height="10" fill="#e7be00"/><rect x="183" y="136" width="6" height="10" fill="#e7be00"/><rect x="177" y="136" width="6" height="10" fill="#e7be00"/><rect x="171" y="136" width="6" height="10" fill="#e7be00"/><rect x="165" y="136" width="6" height="10" fill="#e7be00"/><rect x="153" y="136" width="6" height="10" fill="#e7be00"/><rect x="147" y="116" width="6" height="10" fill="#e7be00"/><rect x="27" y="146" width="6" height="10" fill="#ff3f2f"/><rect x="33" y="146" width="6" height="10" fill="#ff3f2f"/><rect x="51" y="146" width="6" height="10" fill="#ff3f2f"/><rect x="57" y="146" width="6" height="10" fill="#ff3f2f"/><rect x="63" y="146" width="6" height="10" fill="#ff3f2f"/><rect x="69" y="146" width="6" height="10" fill="#ff3f2f"/><rect x="75" y="146" width="6" height="10" fill="#ff3f2f"/><rect x="81" y="176" width="6" height="10" fill="#ff3f2f"/><rect x="75" y="176" width="6" height="10" fill="#ff3f2f"/><rect x="69" y="176" width="6" height="10" fill="#ff3f2f"/><rect x="57" y="176" width="6" height="10" fill="#ff3f2f"/><rect x="27" y="176" width="6" height="10" fill="#ff3f2f"/><rect x="27" y="156" width="6" height="10" fill="#ff3f2f"/><rect x="87" y="146" width="6" height="10" fill="#ffffff"/><rect x="93" y="146" width="6" height="10" fill="#ffffff"/><rect x="99" y="146" width="6" height="10" fill="#ffffff"/><rect x="123" y="146" width="6" height="10" fill="#ffffff"/><rect x="129" y="146" width="6" height="10" fill="#ffffff"/><rect x="141" y="146" width="6" height="10" fill="#ffffff"/><rect x="141" y="156" width="6" height="10" fill="#ffffff"/><rect x="141" y="166" width="6" height="10" fill="#ffffff"/><rect x="141" y="176" width="6" height="10" fill="#ffffff"/><rect x="135" y="176" width="6" height="10" fill="#ffffff"/><rect x="111" y="176" width="6" height="10" fill="#ffffff"/><rect x="99" y="176" width="6" height="10" fill="#ffffff"/><rect x="87" y="166" width="6" height="10" fill="#ffffff"/><rect x="87" y="156" width="6" height="10" fill="#ffffff"/><rect x="147" y="146" width="6" height="10" fill="#ff3f2f"/><rect x="153" y="146" width="6" height="10" fill="#ff3f2f"/><rect x="159" y="146" width="6" height="10" fill="#ff3f2f"/><rect x="189" y="146" width="6" height="10" fill="#ff3f2f"/><rect x="195" y="146" width="6" height="10" fill="#ff3f2f"/><rect x="201" y="166" width="6" height="10" fill="#ff3f2f"/><rect x="201" y="176" width="6" height="10" fill="#ff3f2f"/><rect x="195" y="176" width="6" height="10" fill="#ff3f2f"/><rect x="189" y="176" width="6" height="10" fill="#ff3f2f"/><rect x="183" y="176" width="6" height="10" fill="#ff3f2f"/><rect x="177" y="176" width="6" height="10" fill="#ff3f2f"/><rect x="171" y="176" width="6" height="10" fill="#ff3f2f"/></g><g clip-path="url(#grid-clip-c7111e5b399acc5b-3x4)" data-channel="ellipse" data-ellipse-anchor-x="87" data-ellipse-anchor-y="66" data-ellipse-rx="57.7" data-ellipse-ry="45.481" data-ellipse-rotation-deg="180"><ellipse cx="87" cy="66" rx="57.7" ry="45.481" transform="rotate(180 87 66)" fill="#ffffff" stroke="#ffffff" fill-opacity="0.35" stroke-opacity="0.45" stroke-width="2"/></g><g><g data-channel="cell" data-cell-index="0" data-cell-row="0" data-cell-col="0"><rect x="33" y="36" width="48" height="20" fill="#72ac04"/><text x="57" y="46" fill="#000000" font-size="16" text-anchor="middle" dominant-baseline="central">BKxy</text></g><g data-channel="cell" data-cell-index="1" data-cell-row="0" data-cell-col="1"><rect x="93" y="36" width="48" height="20" fill="#33c8da"/><text x="117" y="46" fill="#000000" font-size="16" text-anchor="middle" dominant-baseline="central">2sgz</text></g><g data-channel="cell" data-cell-index="2" data-cell-row="0" data-cell-col="2" data-cell-quartile="4"><rect x="153" y="36" width="48" height="20" fill="#72997e"/><text x="177" y="46" fill="#000000" font-size="16" text-anchor="middle" dominant-baseline="central">fply</text><polygon points="153,56 153,46 163,56" fill="#000000"/></g><g data-channel="cell" data-cell-index="3" data-cell-row="1" data-cell-col="0"><rect x="33" y="76" width="48" height="20" fill="#60fbaf"/><text x="57" y="86" fill="#000000" font-size="16" text-anchor="middle" dominant-baseline="central">r_tg</text></g><g data-channel="cell" data-cell-index="4" data-cell-row="1" data-cell-col="1" data-cell-quartile="1"><rect x="93" y="76" width="48" height="20" fill="#528cc0"/><text x="117" y="86" fill="#000000" font-size="16" text-anchor="middle" dominant-baseline="central">wIxS</text><polygon points="93,76 103,76 93,86" fill="#000000"/></g><g data-channel="cell" data-cell-index="5" data-cell-row="1" data-cell-col="2" data-cell-quartile="3"><rect x="153" y="76" width="48" height="20" fill="#f6d7d7"/><text x="177" y="86" fill="#000000" font-size="16" text-anchor="middle" dominant-baseline="central">19f2</text><polygon points="201,96 201,86 191,96" fill="#000000"/></g><g data-channel="cell" data-cell-index="6" data-cell-row="2" data-cell-col="0" data-cell-quartile="2"><rect x="33" y="116" width="48" height="20" fill="#45c839"/><text x="57" y="126" fill="#000000" font-size="16" text-anchor="middle" dominant-baseline="central">OchF</text><polygon points="81,116 71,116 81,126" fill="#000000"/></g><g data-channel="cell" data-cell-index="7" data-cell-row="2" data-cell-col="1" data-cell-blank="true" data-cell-blank-map="true"><rect x="93" y="116" width="48" height="20" rx="10" ry="10" fill="#000000" stroke="#000000" stroke-width="1"/><circle cx="133" cy="133.5" r="3.5" fill="#ffffff" data-blank-map-min="3,2"/><path d="M 96.8,123.5 H 105.2 M 101,119.3 V 127.7" fill="none" stroke="#ffffff" stroke-width="1.925" stroke-linecap="butt" data-blank-map-max="1,0"/></g><g data-channel="cell" data-cell-index="8" data-cell-row="2" data-cell-col="2"><rect x="153" y="116" width="48" height="20" fill="#f0d21e"/><text x="177" y="126" fill="#000000" font-size="16" text-anchor="middle" dominant-baseline="central">HtLw</text></g><g data-channel="cell" data-cell-index="9" data-cell-row="3" data-cell-col="0"><rect x="33" y="156" width="48" height="20" fill="#f7603d"/><text x="57" y="166" fill="#000000" font-size="16" text-anchor="middle" dominant-baseline="central">PWD3</text></g><g data-channel="cell" data-cell-index="10" data-cell-row="3" data-cell-col="1"><rect x="93" y="156" width="48" height="20" fill="#188abf"/><text x="117" y="166" fill="#ffffff" font-size="16" text-anchor="middle" dominant-baseline="central">v4oY</text></g><g data-channel="cell" data-cell-index="11" data-cell-row="3" data-cell-col="2"><rect x="153" y="156" width="48" height="20" fill="#71608a"/><text x="177" y="166" fill="#ffffff" font-size="16" text-anchor="middle" dominant-baseline="central">imBx</text></g></g></g><g data-channel="color-bar" data-bar-slots="15" data-bar-marker-left="7" data-bar-marker-right="11"><g data-color-bar-rank="0" data-color-bar-band="K"><rect x="1" y="1" width="20" height="74.806" fill="#000000"/><text x="11" y="72.286" fill="#ffffff" font-size="16" text-anchor="middle" data-color-bar-letter="true">k</text></g><g data-color-bar-rank="1" data-color-bar-band="G"><rect x="1" y="75.806" width="20" height="22.399" fill="#e7be00"/><text x="11" y="94.685" fill="#000000" font-size="16" text-anchor="middle" data-color-bar-letter="true">g</text></g><g data-color-bar-rank="2" data-color-bar-band="W"><rect x="1" y="98.205" width="20" height="56.323" fill="#ffffff"/><text x="11" y="151.007" fill="#000000" font-size="16" text-anchor="middle" data-color-bar-letter="true">w</text></g><g data-color-bar-rank="3" data-color-bar-band="R"><rect x="1" y="154.527" width="20" height="36.473" fill="#ff3f2f"/><text x="11" y="187.48" fill="#000000" font-size="16" text-anchor="middle" data-color-bar-letter="true">r</text></g><circle cx="5.6" cy="96" r="3.4" fill="#ffffff" stroke="#000000" stroke-width="0.75" data-bar-marker="left"/><circle cx="16.4" cy="146.667" r="3.4" fill="#ffffff" stroke="#000000" stroke-width="0.75" data-bar-marker="right"/></g><g data-channel="label-top"><text x="27" y="16" fill="#666666" font-size="12" dominant-baseline="central">CESR Ed25519 nt pubkey:</text></g><line x1="0" y1="0.5" x2="213" y2="0.5" stroke="#808080" stroke-width="1" shape-rendering="crispEdges"/><line x1="212.5" y1="0" x2="212.5" y2="192" stroke="#808080" stroke-width="1" shape-rendering="crispEdges"/><line x1="0" y1="191.5" x2="213" y2="191.5" stroke="#808080" stroke-width="1" shape-rendering="crispEdges"/><line x1="0.5" y1="0" x2="0.5" y2="192" stroke="#808080" stroke-width="1" shape-rendering="crispEdges"/><line x1="21.5" y1="0" x2="21.5" y2="192" stroke="#808080" stroke-width="1" shape-rendering="crispEdges"/></svg>