<svg width="213.0" height="192.0" viewBox="0 0 213.0 192.0" xmlns="http://www.w3.org/2000/svg" data-entviz-version="v6" data-entviz-lib="0.6.2" data-input-bytes="44" data-cols="3" data-rows="4"><defs><clipPath id="grid-clip-d23d06d86b144d05-3x4"><rect x="27.0" y="26.0" width="180.0" height="160.0"/></clipPath></defs><rect x="0" y="0" width="213.0" height="192.0" fill="#ffffff"/><g data-channel="grid"><rect x="27.0" y="26.0" width="180.0" height="160.0" fill="#2f3fbf"/><g><rect x="33.0" y="26.0" width="6.0" height="10.0" fill="#e7be00"/><rect x="39.0" y="26.0" width="6.0" height="10.0" fill="#e7be00"/><rect x="75.0" y="26.0" width="6.0" height="10.0" fill="#e7be00"/><rect x="81.0" y="36.0" width="6.0" height="10.0" fill="#e7be00"/><rect x="81.0" y="46.0" width="6.0" height="10.0" fill="#e7be00"/><rect x="81.0" y="56.0" width="6.0" height="10.0" fill="#e7be00"/><rect x="75.0" y="56.0" width="6.0" height="10.0" fill="#e7be00"/><rect x="51.0" y="56.0" width="6.0" height="10.0" fill="#e7be00"/><rect x="33.0" y="56.0" width="6.0" height="10.0" fill="#e7be00"/><rect x="27.0" y="46.0" width="6.0" height="10.0" fill="#e7be00"/><rect x="27.0" y="36.0" width="6.0" height="10.0" fill="#e7be00"/><rect x="99.0" y="26.0" width="6.0" height="10.0" fill="#ffffff"/><rect x="111.0" y="26.0" width="6.0" height="10.0" fill="#ffffff"/><rect x="135.0" y="26.0" width="6.0" height="10.0" fill="#ffffff"/><rect x="141.0" y="26.0" width="6.0" height="10.0" fill="#ffffff"/><rect x="141.0" y="46.0" width="6.0" height="10.0" fill="#ffffff"/><rect x="135.0" y="56.0" width="6.0" height="10.0" fill="#ffffff"/><rect x="129.0" y="56.0" width="6.0" height="10.0" fill="#ffffff"/><rect x="99.0" y="56.0" width="6.0" height="10.0" fill="#ffffff"/><rect x="93.0" y="56.0" width="6.0" height="10.0" fill="#ffffff"/><rect x="87.0" y="46.0" width="6.0" height="10.0" fill="#ffffff"/><rect x="87.0" y="36.0" width="6.0" height="10.0" fill="#ffffff"/><rect x="27.0" y="66.0" width="6.0" height="10.0" fill="#ff3f2f"/><rect x="33.0" y="66.0" width="6.0" height="10.0" fill="#ff3f2f"/><rect x="39.0" y="66.0" width="6.0" height="10.0" fill="#ff3f2f"/><rect x="63.0" y="66.0" width="6.0" height="10.0" fill="#ff3f2f"/><rect x="75.0" y="66.0" width="6.0" height="10.0" fill="#ff3f2f"/><rect x="81.0" y="76.0" width="6.0" height="10.0" fill="#ff3f2f"/><rect x="57.0" y="96.0" width="6.0" height="10.0" fill="#ff3f2f"/><rect x="45.0" y="96.0" width="6.0" height="10.0" fill="#ff3f2f"/><rect x="39.0" y="96.0" width="6.0" height="10.0" fill="#ff3f2f"/><rect x="27.0" y="86.0" width="6.0" height="10.0" fill="#ff3f2f"/><rect x="93.0" y="66.0" width="6.0" height="10.0" fill="#ffffff"/><rect x="105.0" y="66.0" width="6.0" height="10.0" fill="#ffffff"/><rect x="117.0" y="66.0" width="6.0" height="10.0" fill="#ffffff"/><rect x="123.0" y="66.0" width="6.0" height="10.0" fill="#ffffff"/><rect x="135.0" y="66.0" width="6.0" height="10.0" fill="#ffffff"/><rect x="141.0" y="96.0" width="6.0" height="10.0" fill="#ffffff"/><rect x="135.0" y="96.0" width="6.0" height="10.0" fill="#ffffff"/><rect x="123.0" y="96.0" width="6.0" height="10.0" fill="#ffffff"/><rect x="111.0" y="96.0" width="6.0" height="10.0" fill="#ffffff"/><rect x="99.0" y="96.0" width="6.0" height="10.0" fill="#ffffff"/><rect x="87.0" y="76.0" width="6.0" height="10.0" fill="#ffffff"/><rect x="147.0" y="66.0" width="6.0" height="10.0" fill="#000000"/><rect x="165.0" y="66.0" width="6.0" height="10.0" fill="#000000"/><rect x="177.0" y="66.0" width="6.0" height="10.0" fill="#000000"/><rect x="189.0" y="66.0" width="6.0" height="10.0" fill="#000000"/><rect x="201.0" y="66.0" width="6.0" height="10.0" fill="#000000"/><rect x="201.0" y="76.0" width="6.0" height="10.0" fill="#000000"/><rect x="201.0" y="86.0" width="6.0" height="10.0" fill="#000000"/><rect x="201.0" y="96.0" width="6.0" height="10.0" fill="#000000"/><rect x="189.0" y="96.0" width="6.0" height="10.0" fill="#000000"/><rect x="183.0" y="96.0" width="6.0" height="10.0" fill="#000000"/><rect x="153.0" y="96.0" width="6.0" height="10.0" fill="#000000"/><rect x="147.0" y="86.0" width="6.0" height="10.0" fill="#000000"/><rect x="147.0" y="76.0" width="6.0" height="10.0" fill="#000000"/><rect x="27.0" y="106.0" width="6.0" height="10.0" fill="#ffffff"/><rect x="45.0" y="106.0" width="6.0" height="10.0" fill="#ffffff"/><rect x="57.0" y="106.0" width="6.0" height="10.0" fill="#ffffff"/><rect x="69.0" y="106.0" width="6.0" height="10.0" fill="#ffffff"/><rect x="81.0" y="106.0" width="6.0" height="10.0" fill="#ffffff"/><rect x="81.0" y="116.0" width="6.0" height="10.0" fill="#ffffff"/><rect x="81.0" y="126.0" width="6.0" height="10.0" fill="#ffffff"/><rect x="81.0" y="136.0" width="6.0" height="10.0" fill="#ffffff"/><rect x="75.0" y="136.0" width="6.0" height="10.0" fill="#ffffff"/><rect x="63.0" y="136.0" width="6.0" height="10.0" fill="#ffffff"/><rect x="45.0" y="136.0" width="6.0" height="10.0" fill="#ffffff"/><rect x="39.0" y="136.0" width="6.0" height="10.0" fill="#ffffff"/><rect x="33.0" y="136.0" width="6.0" height="10.0" fill="#ffffff"/><rect x="93.0" y="106.0" width="6.0" height="10.0" fill="#ff3f2f"/><rect x="99.0" y="106.0" width="6.0" height="10.0" fill="#ff3f2f"/><rect x="111.0" y="106.0" width="6.0" height="10.0" fill="#ff3f2f"/><rect x="117.0" y="106.0" width="6.0" height="10.0" fill="#ff3f2f"/><rect x="135.0" y="106.0" width="6.0" height="10.0" fill="#ff3f2f"/><rect x="141.0" y="136.0" width="6.0" height="10.0" fill="#ff3f2f"/><rect x="129.0" y="136.0" width="6.0" height="10.0" fill="#ff3f2f"/><rect x="117.0" y="136.0" width="6.0" height="10.0" fill="#ff3f2f"/><rect x="105.0" y="136.0" width="6.0" height="10.0" fill="#ff3f2f"/><rect x="87.0" y="136.0" width="6.0" height="10.0" fill="#ff3f2f"/><rect x="87.0" y="126.0" width="6.0" height="10.0" fill="#ff3f2f"/><rect x="87.0" y="116.0" width="6.0" height="10.0" fill="#ff3f2f"/><rect x="153.0" y="106.0" width="6.0" height="10.0" fill="#ffffff"/><rect x="177.0" y="106.0" width="6.0" height="10.0" fill="#ffffff"/><rect x="195.0" y="106.0" width="6.0" height="10.0" fill="#ffffff"/><rect x="201.0" y="126.0" width="6.0" height="10.0" fill="#ffffff"/><rect x="195.0" y="136.0" width="6.0" height="10.0" fill="#ffffff"/><rect x="189.0" y="136.0" width="6.0" height="10.0" fill="#ffffff"/><rect x="177.0" y="136.0" width="6.0" height="10.0" fill="#ffffff"/><rect x="153.0" y="136.0" width="6.0" height="10.0" fill="#ffffff"/><rect x="147.0" y="116.0" width="6.0" height="10.0" fill="#ffffff"/><rect x="33.0" y="146.0" width="6.0" height="10.0" fill="#000000"/><rect x="39.0" y="146.0" width="6.0" height="10.0" fill="#000000"/><rect x="45.0" y="146.0" width="6.0" height="10.0" fill="#000000"/><rect x="57.0" y="146.0" width="6.0" height="10.0" fill="#000000"/><rect x="69.0" y="146.0" width="6.0" height="10.0" fill="#000000"/><rect x="81.0" y="166.0" width="6.0" height="10.0" fill="#000000"/><rect x="81.0" y="176.0" width="6.0" height="10.0" fill="#000000"/><rect x="69.0" y="176.0" width="6.0" height="10.0" fill="#000000"/><rect x="63.0" y="176.0" width="6.0" height="10.0" fill="#000000"/><rect x="51.0" y="176.0" width="6.0" height="10.0" fill="#000000"/><rect x="45.0" y="176.0" width="6.0" height="10.0" fill="#000000"/><rect x="39.0" y="176.0" width="6.0" height="10.0" fill="#000000"/><rect x="27.0" y="176.0" width="6.0" height="10.0" fill="#000000"/><rect x="27.0" y="166.0" width="6.0" height="10.0" fill="#000000"/><rect x="105.0" y="146.0" width="6.0" height="10.0" fill="#e7be00"/><rect x="111.0" y="146.0" width="6.0" height="10.0" fill="#e7be00"/><rect x="129.0" y="146.0" width="6.0" height="10.0" fill="#e7be00"/><rect x="141.0" y="146.0" width="6.0" height="10.0" fill="#e7be00"/><rect x="141.0" y="166.0" width="6.0" height="10.0" fill="#e7be00"/><rect x="123.0" y="176.0" width="6.0" height="10.0" fill="#e7be00"/><rect x="117.0" y="176.0" width="6.0" height="10.0" fill="#e7be00"/><rect x="105.0" y="176.0" width="6.0" height="10.0" fill="#e7be00"/><rect x="99.0" y="176.0" width="6.0" height="10.0" fill="#e7be00"/><rect x="93.0" y="176.0" width="6.0" height="10.0" fill="#e7be00"/><rect x="87.0" y="176.0" width="6.0" height="10.0" fill="#e7be00"/><rect x="87.0" y="156.0" width="6.0" height="10.0" fill="#e7be00"/><rect x="147.0" y="146.0" width="6.0" height="10.0" fill="#ff3f2f"/><rect x="171.0" y="146.0" width="6.0" height="10.0" fill="#ff3f2f"/><rect x="177.0" y="146.0" width="6.0" height="10.0" fill="#ff3f2f"/><rect x="183.0" y="146.0" width="6.0" height="10.0" fill="#ff3f2f"/><rect x="201.0" y="166.0" width="6.0" height="10.0" fill="#ff3f2f"/><rect x="201.0" y="176.0" width="6.0" height="10.0" fill="#ff3f2f"/><rect x="195.0" y="176.0" width="6.0" height="10.0" fill="#ff3f2f"/><rect x="189.0" y="176.0" width="6.0" height="10.0" fill="#ff3f2f"/><rect x="177.0" y="176.0" width="6.0" height="10.0" fill="#ff3f2f"/><rect x="165.0" y="176.0" width="6.0" height="10.0" fill="#ff3f2f"/><rect x="159.0" y="176.0" width="6.0" height="10.0" fill="#ff3f2f"/><rect x="147.0" y="166.0" width="6.0" height="10.0" fill="#ff3f2f"/><rect x="147.0" y="156.0" width="6.0" height="10.0" fill="#ff3f2f"/></g><g clip-path="url(#grid-clip-d23d06d86b144d05-3x4)" data-channel="ellipse" data-ellipse-anchor-x="87.0" data-ellipse-anchor-y="146.0" data-ellipse-rx="98.4292639411674" data-ellipse-ry="73.99165358336032" data-ellipse-rotation-deg="132.0"><ellipse cx="87.0" cy="146.0" rx="98.4292639411674" ry="73.99165358336032" transform="rotate(132.0 87.0 146.0)" fill="#ffffff" stroke="#ffffff" fill-opacity="0.35" stroke-opacity="0.45" stroke-width="2.0"/></g><g><g data-channel="cell" data-cell-index="0" data-cell-row="0" data-cell-col="0"><rect x="33.0" y="36.0" width="48.0" height="20.0" fill="#65f705"/><text x="57.0" y="46.0" fill="#000000" style="font-family: &quot;JetBrains Mono&quot;, &quot;Menlo&quot;, &quot;Consolas&quot;, &quot;DejaVu Sans Mono&quot;, &quot;Liberation Mono&quot;, &quot;Roboto Mono&quot;, &quot;Noto Sans Mono&quot;, monospace; font-size: 16.0px;" text-anchor="middle" dominant-baseline="central">Bfdl</text></g><g data-channel="cell" data-cell-index="1" data-cell-row="0" data-cell-col="1" data-cell-quartile="2"><rect x="93.0" y="36.0" width="48.0" height="20.0" fill="#76c4bb"/><text x="117.0" y="46.0" fill="#000000" style="font-family: &quot;JetBrains Mono&quot;, &quot;Menlo&quot;, &quot;Consolas&quot;, &quot;DejaVu Sans Mono&quot;, &quot;Liberation Mono&quot;, &quot;Roboto Mono&quot;, &quot;Noto Sans Mono&quot;, monospace; font-size: 16.0px;" text-anchor="middle" dominant-baseline="central">u8R2</text><polygon points="141.0,36.0 131.0,36.0 141.0,46.0" fill="#000000"/></g><g data-channel="cell" data-cell-index="2" data-cell-row="0" data-cell-col="2" data-cell-blank="true" data-cell-blank-map="true"><rect x="153.0" y="36.0" width="48.0" height="20.0" rx="10.0" ry="10.0" fill="#ffffff" stroke="#000000" stroke-width="1"/><circle cx="177.0" cy="48.5" r="3.5" fill="#d62828" data-blank-map-max="true"/><circle cx="161.0" cy="48.5" r="3.5" fill="#1d4ed8" data-blank-map-min="true"/></g><g data-channel="cell" data-cell-index="3" data-cell-row="1" data-cell-col="0"><rect x="33.0" y="76.0" width="48.0" height="20.0" fill="#f156ec"/><text x="57.0" y="86.0" fill="#000000" style="font-family: &quot;JetBrains Mono&quot;, &quot;Menlo&quot;, &quot;Consolas&quot;, &quot;DejaVu Sans Mono&quot;, &quot;Liberation Mono&quot;, &quot;Roboto Mono&quot;, &quot;Noto Sans Mono&quot;, monospace; font-size: 16.0px;" text-anchor="middle" dominant-baseline="central">7Fbx</text></g><g data-channel="cell" data-cell-index="4" data-cell-row="1" data-cell-col="1"><rect x="93.0" y="76.0" width="48.0" height="20.0" fill="#6be8fd"/><text x="117.0" y="86.0" fill="#000000" style="font-family: &quot;JetBrains Mono&quot;, &quot;Menlo&quot;, &quot;Consolas&quot;, &quot;DejaVu Sans Mono&quot;, &quot;Liberation Mono&quot;, &quot;Roboto Mono&quot;, &quot;Noto Sans Mono&quot;, monospace; font-size: 16.0px;" text-anchor="middle" dominant-baseline="central">_ehr</text></g><g data-channel="cell" data-cell-index="5" data-cell-row="1" data-cell-col="2"><rect x="153.0" y="76.0" width="48.0" height="20.0" fill="#2602ab"/><text x="177.0" y="86.0" fill="#ffffff" style="font-family: &quot;JetBrains Mono&quot;, &quot;Menlo&quot;, &quot;Consolas&quot;, &quot;DejaVu Sans Mono&quot;, &quot;Liberation Mono&quot;, &quot;Roboto Mono&quot;, &quot;Noto Sans Mono&quot;, monospace; font-size: 16.0px;" text-anchor="middle" dominant-baseline="central">qwIm</text></g><g data-channel="cell" data-cell-index="6" data-cell-row="2" data-cell-col="0" data-cell-quartile="3"><rect x="33.0" y="116.0" width="48.0" height="20.0" fill="#fcaf9c"/><text x="57.0" y="126.0" fill="#000000" style="font-family: &quot;JetBrains Mono&quot;, &quot;Menlo&quot;, &quot;Consolas&quot;, &quot;DejaVu Sans Mono&quot;, &quot;Liberation Mono&quot;, &quot;Roboto Mono&quot;, &quot;Noto Sans Mono&quot;, monospace; font-size: 16.0px;" text-anchor="middle" dominant-baseline="central">nK_8</text><polygon points="81.0,136.0 81.0,126.0 71.0,136.0" fill="#000000"/></g><g data-channel="cell" data-cell-index="7" data-cell-row="2" data-cell-col="1" data-cell-quartile="1"><rect x="93.0" y="116.0" width="48.0" height="20.0" fill="#fd6e0a"/><text x="117.0" y="126.0" fill="#000000" style="font-family: &quot;JetBrains Mono&quot;, &quot;Menlo&quot;, &quot;Consolas&quot;, &quot;DejaVu Sans Mono&quot;, &quot;Liberation Mono&quot;, &quot;Roboto Mono&quot;, &quot;Noto Sans Mono&quot;, monospace; font-size: 16.0px;" text-anchor="middle" dominant-baseline="central">Cm79</text><polygon points="93.0,116.0 103.0,116.0 93.0,126.0" fill="#000000"/></g><g data-channel="cell" data-cell-index="8" data-cell-row="2" data-cell-col="2"><rect x="153.0" y="116.0" width="48.0" height="20.0" fill="#c0a6b2"/><text x="177.0" y="126.0" fill="#000000" style="font-family: &quot;JetBrains Mono&quot;, &quot;Menlo&quot;, &quot;Consolas&quot;, &quot;DejaVu Sans Mono&quot;, &quot;Liberation Mono&quot;, &quot;Roboto Mono&quot;, &quot;Noto Sans Mono&quot;, monospace; font-size: 16.0px;" text-anchor="middle" dominant-baseline="central">sqbA</text></g><g data-channel="cell" data-cell-index="9" data-cell-row="3" data-cell-col="0" data-cell-quartile="4"><rect x="33.0" y="156.0" width="48.0" height="20.0" fill="#1a8743"/><text x="57.0" y="166.0" fill="#ffffff" style="font-family: &quot;JetBrains Mono&quot;, &quot;Menlo&quot;, &quot;Consolas&quot;, &quot;DejaVu Sans Mono&quot;, &quot;Liberation Mono&quot;, &quot;Roboto Mono&quot;, &quot;Noto Sans Mono&quot;, monospace; font-size: 16.0px;" text-anchor="middle" dominant-baseline="central">Q4ca</text><polygon points="33.0,176.0 33.0,166.0 43.0,176.0" fill="#ffffff"/></g><g data-channel="cell" data-cell-index="10" data-cell-row="3" data-cell-col="1"><rect x="93.0" y="156.0" width="48.0" height="20.0" fill="#bf9169"/><text x="117.0" y="166.0" fill="#000000" style="font-family: &quot;JetBrains Mono&quot;, &quot;Menlo&quot;, &quot;Consolas&quot;, &quot;DejaVu Sans Mono&quot;, &quot;Liberation Mono&quot;, &quot;Roboto Mono&quot;, &quot;Noto Sans Mono&quot;, monospace; font-size: 16.0px;" text-anchor="middle" dominant-baseline="central">aZG_</text></g><g data-channel="cell" data-cell-index="11" data-cell-row="3" data-cell-col="2"><rect x="153.0" y="156.0" width="48.0" height="20.0" fill="#ef5b2c"/><text x="177.0" y="166.0" fill="#000000" style="font-family: &quot;JetBrains Mono&quot;, &quot;Menlo&quot;, &quot;Consolas&quot;, &quot;DejaVu Sans Mono&quot;, &quot;Liberation Mono&quot;, &quot;Roboto Mono&quot;, &quot;Noto Sans Mono&quot;, monospace; font-size: 16.0px;" text-anchor="middle" dominant-baseline="central">LFv</text></g></g></g><g data-channel="color-bar"><g data-color-bar-rank="0" data-color-bar-band="R"><rect x="1" y="1" width="20.0" height="84.41806355217216" fill="#ff3f2f"/><text x="11.0" y="81.89806355217216" fill="#000000" style="font-family: &quot;JetBrains Mono&quot;, &quot;Menlo&quot;, &quot;Consolas&quot;, &quot;DejaVu Sans Mono&quot;, &quot;Liberation Mono&quot;, &quot;Roboto Mono&quot;, &quot;Noto Sans Mono&quot;, monospace; font-size: 16.0px;" text-anchor="middle" data-color-bar-letter="true">r</text></g><g data-color-bar-rank="1" data-color-bar-band="G"><rect x="1" y="85.41806355217216" width="20.0" height="57.35580500273052" fill="#e7be00"/><text x="11.0" y="139.25386855490265" fill="#000000" style="font-family: &quot;JetBrains Mono&quot;, &quot;Menlo&quot;, &quot;Consolas&quot;, &quot;DejaVu Sans Mono&quot;, &quot;Liberation Mono&quot;, &quot;Roboto Mono&quot;, &quot;Noto Sans Mono&quot;, monospace; font-size: 16.0px;" text-anchor="middle" data-color-bar-letter="true">g</text></g><g data-color-bar-rank="2" data-color-bar-band="K"><rect x="1" y="142.77386855490266" width="20.0" height="26.71040292080447" fill="#000000"/><text x="11.0" y="165.96427147570714" fill="#ffffff" style="font-family: &quot;JetBrains Mono&quot;, &quot;Menlo&quot;, &quot;Consolas&quot;, &quot;DejaVu Sans Mono&quot;, &quot;Liberation Mono&quot;, &quot;Roboto Mono&quot;, &quot;Noto Sans Mono&quot;, monospace; font-size: 16.0px;" text-anchor="middle" data-color-bar-letter="true">k</text></g><g data-color-bar-rank="3" data-color-bar-band="W"><rect x="1" y="169.48427147570715" width="20.0" height="21.515728524292854" fill="#ffffff"/><text x="11.0" y="187.48" fill="#000000" style="font-family: &quot;JetBrains Mono&quot;, &quot;Menlo&quot;, &quot;Consolas&quot;, &quot;DejaVu Sans Mono&quot;, &quot;Liberation Mono&quot;, &quot;Roboto Mono&quot;, &quot;Noto Sans Mono&quot;, monospace; font-size: 16.0px;" text-anchor="middle" data-color-bar-letter="true">w</text></g></g><g data-channel="label-top"><text x="27.0" y="16.0" fill="#666666" style="font-family: &quot;JetBrains Mono&quot;, &quot;Menlo&quot;, &quot;Consolas&quot;, &quot;DejaVu Sans Mono&quot;, &quot;Liberation Mono&quot;, &quot;Roboto Mono&quot;, &quot;Noto Sans Mono&quot;, monospace; font-size: 12.0px;" dominant-baseline="central">CESR Blake3-256: E...</text></g><line x1="0" y1="0.5" x2="213.0" y2="0.5" stroke="#808080" stroke-width="1" shape-rendering="crispEdges"/><line x1="212.5" y1="0" x2="212.5" y2="192.0" stroke="#808080" stroke-width="1" shape-rendering="crispEdges"/><line x1="0" y1="191.5" x2="213.0" y2="191.5" stroke="#808080" stroke-width="1" shape-rendering="crispEdges"/><line x1="0.5" y1="0" x2="0.5" y2="192.0" stroke="#808080" stroke-width="1" shape-rendering="crispEdges"/><line x1="21.5" y1="0" x2="21.5" y2="192.0" stroke="#808080" stroke-width="1" shape-rendering="crispEdges"/></svg>