<svg width="215" height="194" viewBox="0 0 215 194" xmlns="http://www.w3.org/2000/svg" font-family="&quot;JetBrains Mono&quot;, &quot;Menlo&quot;, &quot;Consolas&quot;, &quot;DejaVu Sans Mono&quot;, &quot;Liberation Mono&quot;, &quot;Roboto Mono&quot;, &quot;Noto Sans Mono&quot;, monospace" data-entviz-version="v13" data-entviz-lib="0.13.0" data-input-bytes="44" data-cols="3" data-rows="4" data-encoding="base64url" data-scheme="cesr" data-role="key" data-size-basis="decoded" data-entropy-type="cesr" data-size-bits="264" data-qualifiers="{&quot;algorithm&quot;:&quot;Ed25519 pubkey&quot;}" data-parts="[{&quot;text&quot;:&quot;DKxy2sgzfplyr_tgwIxS19f2OchFHtLwPWD3v4oYimBx&quot;,&quot;bind&quot;:&quot;core&quot;}]"><defs><clipPath id="grid-clip-86afcb613401d5c6-3x4"><rect x="28" y="27" width="180" height="160"/></clipPath></defs><rect x="1" y="1" width="213" height="192" fill="#ffffff"/><g data-channel="grid"><rect x="28" y="27" width="180" height="160" fill="#ff3f2f"/><g><path fill="#000000" d="M28 27h6v10h-6zM34 27h6v10h-6zM46 27h6v10h-6zM64 27h6v10h-6zM70 27h6v10h-6zM76 27h6v10h-6zM82 27h6v10h-6zM82 37h6v10h-6zM82 47h6v10h-6zM76 57h6v10h-6zM64 57h6v10h-6zM52 57h6v10h-6zM46 57h6v10h-6zM28 37h6v10h-6z"/><path fill="#2f3fbf" d="M88 27h6v10h-6zM142 37h6v10h-6zM142 57h6v10h-6zM136 57h6v10h-6zM118 57h6v10h-6zM88 57h6v10h-6zM88 47h6v10h-6z"/><path fill="#2f3fbf" d="M148 27h6v10h-6zM166 27h6v10h-6zM178 27h6v10h-6zM184 27h6v10h-6zM190 27h6v10h-6zM202 27h6v10h-6zM202 37h6v10h-6zM190 57h6v10h-6zM184 57h6v10h-6zM178 57h6v10h-6zM166 57h6v10h-6zM154 57h6v10h-6zM148 47h6v10h-6zM148 37h6v10h-6z"/><path fill="#ffffff" d="M58 67h6v10h-6zM70 67h6v10h-6zM76 67h6v10h-6zM82 97h6v10h-6zM76 97h6v10h-6zM64 97h6v10h-6zM46 97h6v10h-6zM28 97h6v10h-6zM28 87h6v10h-6z"/><path fill="#ffffff" d="M100 67h6v10h-6zM112 67h6v10h-6zM118 67h6v10h-6zM124 67h6v10h-6zM142 67h6v10h-6zM142 77h6v10h-6zM142 97h6v10h-6zM130 97h6v10h-6zM124 97h6v10h-6zM112 97h6v10h-6zM100 97h6v10h-6zM88 97h6v10h-6zM88 87h6v10h-6zM88 77h6v10h-6z"/><path fill="#ffffff" d="M34 107h6v10h-6zM46 107h6v10h-6zM64 107h6v10h-6zM70 107h6v10h-6zM82 127h6v10h-6zM82 137h6v10h-6zM64 137h6v10h-6zM58 137h6v10h-6zM34 137h6v10h-6zM28 127h6v10h-6z"/><path fill="#e7be00" d="M100 107h6v10h-6zM106 107h6v10h-6zM112 107h6v10h-6zM124 107h6v10h-6zM136 107h6v10h-6zM142 107h6v10h-6zM142 137h6v10h-6zM130 137h6v10h-6zM124 137h6v10h-6zM100 137h6v10h-6zM94 137h6v10h-6zM88 137h6v10h-6z"/><path fill="#e7be00" d="M154 107h6v10h-6zM202 127h6v10h-6zM190 137h6v10h-6zM178 137h6v10h-6zM172 137h6v10h-6zM166 137h6v10h-6zM160 137h6v10h-6zM148 137h6v10h-6zM148 127h6v10h-6z"/><path fill="#e7be00" d="M28 147h6v10h-6zM40 147h6v10h-6zM76 147h6v10h-6zM76 177h6v10h-6zM64 177h6v10h-6zM58 177h6v10h-6zM52 177h6v10h-6zM40 177h6v10h-6zM28 177h6v10h-6z"/><path fill="#2f3fbf" d="M106 147h6v10h-6zM112 147h6v10h-6zM124 147h6v10h-6zM136 147h6v10h-6zM142 147h6v10h-6zM136 177h6v10h-6zM130 177h6v10h-6zM118 177h6v10h-6zM100 177h6v10h-6zM94 177h6v10h-6zM88 177h6v10h-6z"/><path fill="#2f3fbf" d="M148 147h6v10h-6zM154 147h6v10h-6zM172 147h6v10h-6zM184 147h6v10h-6zM196 147h6v10h-6zM202 147h6v10h-6zM202 157h6v10h-6zM202 167h6v10h-6zM196 177h6v10h-6zM166 177h6v10h-6zM160 177h6v10h-6zM154 177h6v10h-6zM148 167h6v10h-6z"/></g><g clip-path="url(#grid-clip-86afcb613401d5c6-3x4)" data-channel="ellipse" data-ellipse-anchor-x="88" data-ellipse-anchor-y="67" data-ellipse-rx="90.283" data-ellipse-ry="49.554" data-ellipse-rotation-deg="180"><ellipse cx="88" cy="67" rx="90.283" ry="49.554" transform="rotate(180 88 67)" fill="#000000" stroke="#000000" fill-opacity="0.25" stroke-opacity="0.35" stroke-width="2"/></g><g><g data-channel="cell" data-cell-index="0" data-cell-row="0" data-cell-col="0" data-surround-bits="0x86afcb" data-edge-color="#000000"><rect x="34" y="37" width="48" height="20" fill="#72ac0c"/><text x="58" y="47" fill="#000000" font-size="16" text-anchor="middle" dominant-baseline="central">DKxy</text></g><g data-channel="cell" data-cell-index="1" data-cell-row="0" data-cell-col="1" data-surround-bits="0x613401" data-edge-color="#2f3fbf"><rect x="94" y="37" width="48" height="20" fill="#33c8da"/><text x="118" y="47" fill="#000000" font-size="16" text-anchor="middle" dominant-baseline="central">2sgz</text></g><g data-channel="cell" data-cell-index="2" data-cell-row="0" data-cell-col="2" data-surround-bits="0xd5c6e9" data-edge-color="#2f3fbf"><rect x="154" y="37" width="48" height="20" fill="#72997e"/><text x="178" y="47" fill="#000000" font-size="16" text-anchor="middle" dominant-baseline="central">fply</text></g><g data-channel="cell" data-cell-index="3" data-cell-row="1" data-cell-col="0" data-surround-bits="0x64b1a0" data-edge-color="#ffffff" data-cell-quartile="4"><rect x="34" y="77" width="48" height="20" fill="#60fbaf"/><text x="58" y="87" fill="#000000" font-size="16" text-anchor="middle" dominant-baseline="central">r_tg</text><polygon points="34,97 34,87 44,97" fill="#000000"/></g><g data-channel="cell" data-cell-index="4" data-cell-row="1" data-cell-col="1" data-surround-bits="0xead674" data-edge-color="#ffffff" data-cell-quartile="1"><rect x="94" y="77" width="48" height="20" fill="#528cc0"/><text x="118" y="87" fill="#000000" font-size="16" text-anchor="middle" dominant-baseline="central">wIxS</text><polygon points="94,77 104,77 94,87" fill="#000000"/></g><g data-channel="cell" data-cell-index="5" data-cell-row="1" data-cell-col="2" data-cell-blank="true" data-cell-blank-map="true"><rect x="154" y="77" width="48" height="20" rx="10" ry="10" fill="#000000" stroke="#000000" stroke-width="1"/><circle cx="162" cy="94.5" r="3.5" fill="#ffffff" data-blank-map-min="3,0"/><path d="M 173.8,84.5 H 182.2 M 178,80.3 V 88.7" fill="none" stroke="#ffffff" stroke-width="1.925" stroke-linecap="butt" data-blank-map-max="1,1"/></g><g data-channel="cell" data-cell-index="6" data-cell-row="2" data-cell-col="0" data-surround-bits="0x5198ca" data-edge-color="#ffffff"><rect x="34" y="117" width="48" height="20" fill="#f6d7d7"/><text x="58" y="127" fill="#000000" font-size="16" text-anchor="middle" dominant-baseline="central">19f2</text></g><g data-channel="cell" data-cell-index="7" data-cell-row="2" data-cell-col="1" data-surround-bits="0x38d35c" data-edge-color="#e7be00"><rect x="94" y="117" width="48" height="20" fill="#45c839"/><text x="118" y="127" fill="#000000" font-size="16" text-anchor="middle" dominant-baseline="central">OchF</text></g><g data-channel="cell" data-cell-index="8" data-cell-row="2" data-cell-col="2" data-surround-bits="0x6f4802" data-edge-color="#e7be00"><rect x="154" y="117" width="48" height="20" fill="#f0d21e"/><text x="178" y="127" fill="#000000" font-size="16" text-anchor="middle" dominant-baseline="central">HtLw</text></g><g data-channel="cell" data-cell-index="9" data-cell-row="3" data-cell-col="0" data-surround-bits="0x2ba105" data-edge-color="#e7be00" data-cell-quartile="2"><rect x="34" y="157" width="48" height="20" fill="#f7603d"/><text x="58" y="167" fill="#000000" font-size="16" text-anchor="middle" dominant-baseline="central">PWD3</text><polygon points="82,157 72,157 82,167" fill="#000000"/></g><g data-channel="cell" data-cell-index="10" data-cell-row="3" data-cell-col="1" data-surround-bits="0x396358" data-edge-color="#2f3fbf"><rect x="94" y="157" width="48" height="20" fill="#188abf"/><text x="118" y="167" fill="#ffffff" font-size="16" text-anchor="middle" dominant-baseline="central">v4oY</text></g><g data-channel="cell" data-cell-index="11" data-cell-row="3" data-cell-col="2" data-surround-bits="0x5c2f53" data-edge-color="#2f3fbf" data-cell-quartile="3"><rect x="154" y="157" width="48" height="20" fill="#71608a"/><text x="178" y="167" fill="#ffffff" font-size="16" text-anchor="middle" dominant-baseline="central">imBx</text><polygon points="202,177 202,167 192,177" fill="#ffffff"/></g></g></g><g data-channel="color-bar" data-bar-slots="15" data-bar-marker-left="13" data-bar-marker-right="12"><g data-color-bar-rank="0" data-color-bar-band="B"><rect x="2" y="2" width="20" height="50.857" fill="#2f3fbf"/><text x="12" y="49.337" fill="#ffffff" font-size="16" text-anchor="middle" data-color-bar-letter="true">b</text></g><g data-color-bar-rank="1" data-color-bar-band="G"><rect x="2" y="52.857" width="20" height="76.114" fill="#e7be00"/><text x="12" y="125.451" fill="#000000" font-size="16" text-anchor="middle" data-color-bar-letter="true">g</text></g><g data-color-bar-rank="2" data-color-bar-band="W"><rect x="2" y="128.971" width="20" height="34.736" fill="#ffffff"/><text x="12" y="160.187" fill="#000000" font-size="16" text-anchor="middle" data-color-bar-letter="true">w</text></g><g data-color-bar-rank="3" data-color-bar-band="K"><rect x="2" y="163.707" width="20" height="28.293" fill="#000000"/><text x="12" y="188.48" fill="#ffffff" font-size="16" text-anchor="middle" data-color-bar-letter="true">k</text></g><circle cx="6.6" cy="173" r="3.4" fill="#ffffff" stroke="#000000" stroke-width="0.75" data-bar-marker="left"/><circle cx="17.4" cy="160.333" r="3.4" fill="#ffffff" stroke="#000000" stroke-width="0.75" data-bar-marker="right"/></g><g data-channel="label-top"><text x="28" y="17" fill="#666666" font-size="12" dominant-baseline="central">CESR Ed25519 pubkey:</text></g><line x1="1" y1="1.5" x2="214" y2="1.5" stroke="#808080" stroke-width="1" shape-rendering="crispEdges"/><line x1="213.5" y1="1" x2="213.5" y2="193" stroke="#808080" stroke-width="1" shape-rendering="crispEdges"/><line x1="1" y1="192.5" x2="214" y2="192.5" stroke="#808080" stroke-width="1" shape-rendering="crispEdges"/><line x1="1.5" y1="1" x2="1.5" y2="193" stroke="#808080" stroke-width="1" shape-rendering="crispEdges"/><line x1="22.5" y1="1" x2="22.5" y2="193" stroke="#808080" stroke-width="1" shape-rendering="crispEdges"/></svg>