<svg width="273" height="272" viewBox="0 0 273 272" xmlns="http://www.w3.org/2000/svg" font-family="&quot;JetBrains Mono&quot;, &quot;Menlo&quot;, &quot;Consolas&quot;, &quot;DejaVu Sans Mono&quot;, &quot;Liberation Mono&quot;, &quot;Roboto Mono&quot;, &quot;Noto Sans Mono&quot;, monospace" data-entviz-version="v11" data-entviz-lib="0.10.0" data-input-bytes="88" data-cols="4" data-rows="6" data-truncated="true"><defs><clipPath id="grid-clip-069680ac121ada50-4x6"><rect x="27" y="26" width="240" height="240"/></clipPath></defs><rect x="0" y="0" width="273" height="272" fill="#ffffff"/><g data-channel="grid"><rect x="27" y="26" width="240" height="240" fill="#2f3fbf"/><g><path fill="#ffffff" d="M69 26h6v10h-6zM81 26h6v10h-6zM81 36h6v10h-6zM81 56h6v10h-6zM63 56h6v10h-6zM51 56h6v10h-6zM45 56h6v10h-6z"/><path fill="#e7be00" d="M153 26h6v10h-6zM165 26h6v10h-6zM171 26h6v10h-6zM201 26h6v10h-6zM201 56h6v10h-6zM165 56h6v10h-6zM159 56h6v10h-6zM147 56h6v10h-6zM147 36h6v10h-6z"/><path fill="#ffffff" d="M237 26h6v10h-6zM243 26h6v10h-6zM261 56h6v10h-6zM249 56h6v10h-6zM231 56h6v10h-6zM219 56h6v10h-6zM213 56h6v10h-6zM207 46h6v10h-6zM207 36h6v10h-6z"/><path fill="#ff3f2f" d="M51 66h6v10h-6zM69 66h6v10h-6zM81 76h6v10h-6zM63 96h6v10h-6zM51 96h6v10h-6zM39 96h6v10h-6zM27 96h6v10h-6zM27 86h6v10h-6z"/><path fill="#ff3f2f" d="M87 66h6v10h-6zM93 66h6v10h-6zM99 66h6v10h-6zM105 66h6v10h-6zM141 66h6v10h-6zM141 76h6v10h-6zM141 86h6v10h-6zM141 96h6v10h-6zM117 96h6v10h-6zM99 96h6v10h-6zM93 96h6v10h-6zM87 76h6v10h-6z"/><path fill="#ffffff" d="M219 66h6v10h-6zM231 66h6v10h-6zM243 66h6v10h-6zM255 66h6v10h-6zM261 76h6v10h-6zM261 86h6v10h-6zM255 96h6v10h-6zM249 96h6v10h-6zM243 96h6v10h-6zM237 96h6v10h-6zM219 96h6v10h-6zM213 96h6v10h-6zM207 96h6v10h-6zM207 86h6v10h-6zM207 76h6v10h-6z"/><path fill="#ffffff" d="M87 106h6v10h-6zM93 106h6v10h-6zM105 106h6v10h-6zM129 106h6v10h-6zM135 106h6v10h-6zM141 106h6v10h-6zM141 116h6v10h-6zM141 126h6v10h-6zM129 136h6v10h-6zM117 136h6v10h-6zM111 136h6v10h-6zM105 136h6v10h-6zM93 136h6v10h-6zM87 136h6v10h-6z"/><path fill="#ff3f2f" d="M147 106h6v10h-6zM159 106h6v10h-6zM165 106h6v10h-6zM171 106h6v10h-6zM177 106h6v10h-6zM201 106h6v10h-6zM201 116h6v10h-6zM201 126h6v10h-6zM201 136h6v10h-6zM189 136h6v10h-6zM153 136h6v10h-6zM147 136h6v10h-6zM147 126h6v10h-6zM147 116h6v10h-6z"/><path fill="#000000" d="M207 106h6v10h-6zM213 106h6v10h-6zM231 106h6v10h-6zM237 106h6v10h-6zM243 106h6v10h-6zM261 106h6v10h-6zM261 126h6v10h-6zM261 136h6v10h-6zM255 136h6v10h-6zM243 136h6v10h-6zM237 136h6v10h-6zM231 136h6v10h-6zM207 136h6v10h-6zM207 126h6v10h-6z"/><path fill="#000000" d="M27 146h6v10h-6zM39 146h6v10h-6zM45 146h6v10h-6zM57 146h6v10h-6zM69 146h6v10h-6zM81 146h6v10h-6zM81 166h6v10h-6zM75 176h6v10h-6zM45 176h6v10h-6zM33 176h6v10h-6zM27 176h6v10h-6zM27 166h6v10h-6zM27 156h6v10h-6z"/><path fill="#000000" d="M87 146h6v10h-6zM105 146h6v10h-6zM111 146h6v10h-6zM135 146h6v10h-6zM141 146h6v10h-6zM141 156h6v10h-6zM141 176h6v10h-6zM135 176h6v10h-6zM123 176h6v10h-6zM117 176h6v10h-6zM87 176h6v10h-6zM87 156h6v10h-6z"/><path fill="#ff3f2f" d="M153 146h6v10h-6zM159 146h6v10h-6zM165 146h6v10h-6zM171 146h6v10h-6zM177 146h6v10h-6zM189 146h6v10h-6zM195 146h6v10h-6zM201 146h6v10h-6zM201 176h6v10h-6zM183 176h6v10h-6zM147 176h6v10h-6z"/><path fill="#e7be00" d="M207 146h6v10h-6zM213 146h6v10h-6zM243 146h6v10h-6zM249 146h6v10h-6zM255 146h6v10h-6zM261 146h6v10h-6zM261 156h6v10h-6zM261 166h6v10h-6zM261 176h6v10h-6zM255 176h6v10h-6zM243 176h6v10h-6zM237 176h6v10h-6zM219 176h6v10h-6zM213 176h6v10h-6z"/><path fill="#ff3f2f" d="M33 186h6v10h-6zM45 186h6v10h-6zM51 186h6v10h-6zM57 186h6v10h-6zM81 206h6v10h-6zM57 216h6v10h-6zM51 216h6v10h-6zM45 216h6v10h-6zM39 216h6v10h-6zM33 216h6v10h-6zM27 206h6v10h-6zM27 196h6v10h-6z"/><path fill="#ff3f2f" d="M87 186h6v10h-6zM99 186h6v10h-6zM111 186h6v10h-6zM117 186h6v10h-6zM123 186h6v10h-6zM135 186h6v10h-6zM141 186h6v10h-6zM141 206h6v10h-6zM141 216h6v10h-6zM135 216h6v10h-6zM129 216h6v10h-6zM111 216h6v10h-6zM105 216h6v10h-6zM99 216h6v10h-6zM93 216h6v10h-6zM87 206h6v10h-6z"/><path fill="#e7be00" d="M153 186h6v10h-6zM159 186h6v10h-6zM171 186h6v10h-6zM177 186h6v10h-6zM183 186h6v10h-6zM201 186h6v10h-6zM201 206h6v10h-6zM201 216h6v10h-6zM189 216h6v10h-6zM177 216h6v10h-6zM171 216h6v10h-6zM159 216h6v10h-6zM153 216h6v10h-6zM147 216h6v10h-6zM147 206h6v10h-6z"/><path fill="#ffffff" d="M225 186h6v10h-6zM261 196h6v10h-6zM261 216h6v10h-6zM243 216h6v10h-6zM237 216h6v10h-6zM231 216h6v10h-6zM207 206h6v10h-6z"/><path fill="#ff3f2f" d="M33 226h6v10h-6zM39 226h6v10h-6zM51 226h6v10h-6zM75 226h6v10h-6zM81 226h6v10h-6zM81 256h6v10h-6zM75 256h6v10h-6zM69 256h6v10h-6zM63 256h6v10h-6zM51 256h6v10h-6zM33 256h6v10h-6zM27 256h6v10h-6zM27 246h6v10h-6z"/><path fill="#ff3f2f" d="M99 226h6v10h-6zM129 226h6v10h-6zM141 236h6v10h-6zM141 246h6v10h-6zM135 256h6v10h-6zM129 256h6v10h-6zM123 256h6v10h-6zM117 256h6v10h-6z"/><path fill="#ffffff" d="M147 226h6v10h-6zM153 226h6v10h-6zM165 226h6v10h-6zM171 226h6v10h-6zM201 256h6v10h-6zM195 256h6v10h-6zM189 256h6v10h-6zM183 256h6v10h-6zM171 256h6v10h-6zM165 256h6v10h-6zM159 256h6v10h-6zM153 256h6v10h-6zM147 236h6v10h-6z"/></g><g clip-path="url(#grid-clip-069680ac121ada50-4x6)" data-channel="ellipse" data-ellipse-anchor-x="207" data-ellipse-anchor-y="226" data-ellipse-rx="59.196" data-ellipse-ry="97.942" data-ellipse-rotation-deg="96"><ellipse cx="207" cy="226" rx="59.196" ry="97.942" transform="rotate(96 207 226)" fill="#ffffff" stroke="#ffffff" fill-opacity="0.35" stroke-opacity="0.45" stroke-width="2"/></g><g><g data-channel="cell" data-cell-index="0" data-cell-row="0" data-cell-col="0" data-surround-bits="0x69680" data-edge-color="#ffffff" data-cell-quartile="2"><rect x="33" y="36" width="48" height="20" fill="#f012d0"/><text x="57" y="46" fill="#000000" font-size="16" text-anchor="middle" dominant-baseline="central">0BLw</text><polygon points="81,36 71,36 81,46" fill="#000000"/></g><g data-channel="cell" data-cell-index="1" data-cell-row="0" data-cell-col="1" data-cell-blank="true" data-cell-blank-map="true"><rect x="93" y="36" width="48" height="20" rx="10" ry="10" fill="#ffffff" stroke="#000000" stroke-width="1"/><circle cx="111" cy="54.333" r="3.5" fill="#1d4ed8" data-blank-map-min="5,1"/><path d="M 130.8,41 H 139.2 M 135,36.8 V 45.2" fill="none" stroke="#d62828" stroke-width="1.925" stroke-linecap="butt" data-blank-map-max="1,3"/></g><g data-channel="cell" data-cell-index="2" data-cell-row="0" data-cell-col="2" data-surround-bits="0xac121a" data-edge-color="#e7be00" data-cell-quartile="4"><rect x="153" y="36" width="48" height="20" fill="#c4a757"/><text x="177" y="46" fill="#000000" font-size="16" text-anchor="middle" dominant-baseline="central">V6fE</text><polygon points="153,56 153,46 163,56" fill="#000000"/></g><g data-channel="cell" data-cell-index="3" data-cell-row="0" data-cell-col="3" data-surround-bits="0xda5060" data-edge-color="#ffffff"><rect x="213" y="36" width="48" height="20" fill="#d8eca4"/><text x="237" y="46" fill="#000000" font-size="16" text-anchor="middle" dominant-baseline="central">pOzY</text></g><g data-channel="cell" data-cell-index="4" data-cell-row="1" data-cell-col="0" data-surround-bits="0x6a8490" data-edge-color="#ff3f2f"><rect x="33" y="76" width="48" height="20" fill="#ec21f6"/><text x="57" y="86" fill="#000000" font-size="16" text-anchor="middle" dominant-baseline="central">9iHs</text></g><g data-channel="cell" data-cell-index="5" data-cell-row="1" data-cell-col="1" data-surround-bits="0x991e0f" data-edge-color="#ff3f2f" data-cell-quartile="3"><rect x="93" y="76" width="48" height="20" fill="#c06647"/><text x="117" y="86" fill="#000000" font-size="16" text-anchor="middle" dominant-baseline="central">R2bA</text><polygon points="141,96 141,86 131,96" fill="#000000"/></g><g data-channel="cell" data-cell-index="6" data-cell-row="1" data-cell-col="2" data-cell-blank="true"><rect x="153" y="76" width="48" height="20" rx="10" ry="10" fill="#e7be00" stroke="#000000" stroke-width="1"/></g><g data-channel="cell" data-cell-index="7" data-cell-row="1" data-cell-col="3" data-surround-bits="0xf9ed54" data-edge-color="#ffffff"><rect x="213" y="76" width="48" height="20" fill="#d4ab94"/><text x="237" y="86" fill="#000000" font-size="16" text-anchor="middle" dominant-baseline="central">lKvU</text></g><g data-channel="cell" data-cell-index="8" data-cell-row="2" data-cell-col="0" data-cell-blank="true"><rect x="33" y="116" width="48" height="20" rx="10" ry="10" fill="#ffffff" stroke="#000000" stroke-width="1"/></g><g data-channel="cell" data-cell-index="9" data-cell-row="2" data-cell-col="1" data-surround-bits="0x374f8b" data-edge-color="#ffffff"><rect x="93" y="116" width="48" height="20" fill="#e8e0e5"/><text x="117" y="126" fill="#000000" font-size="16" text-anchor="middle" dominant-baseline="central">5eDo</text></g><g data-channel="cell" data-cell-index="10" data-cell-row="2" data-cell-col="2" data-surround-bits="0xf05e3d" data-edge-color="#ff3f2f"><rect x="153" y="116" width="48" height="20" fill="#fc2537"/><text x="177" y="126" fill="#000000" font-size="16" text-anchor="middle" dominant-baseline="central">NyX8</text></g><g data-channel="cell" data-cell-index="11" data-cell-row="2" data-cell-col="3" data-cell-fingerprint="true" data-surround-bits="0x63ba73" data-edge-color="#000000"><rect x="213" y="116" width="48" height="20" fill="#2f3fbf"/><rect x="213.5" y="116.5" width="47" height="19" fill="none" stroke="#ffffff" stroke-width="1"/><text x="237" y="126" fill="#ffffff" font-size="13.333" text-anchor="middle" dominant-baseline="central">33014</text></g><g data-channel="cell" data-cell-index="12" data-cell-row="3" data-cell-col="0" data-cell-fingerprint="true" data-surround-bits="0xf42aad" data-edge-color="#000000"><rect x="33" y="156" width="48" height="20" fill="#2f3fbf"/><rect x="33.5" y="156.5" width="47" height="19" fill="none" stroke="#ffffff" stroke-width="1"/><text x="57" y="166" fill="#ffffff" font-size="13.333" text-anchor="middle" dominant-baseline="central">1fv0j</text></g><g data-channel="cell" data-cell-index="13" data-cell-row="3" data-cell-col="1" data-cell-fingerprint="true" data-surround-bits="0xa1b719" data-edge-color="#000000"><rect x="93" y="156" width="48" height="20" fill="#2f3fbf"/><rect x="93.5" y="156.5" width="47" height="19" fill="none" stroke="#ffffff" stroke-width="1"/><text x="117" y="166" fill="#ffffff" font-size="13.333" text-anchor="middle" dominant-baseline="central">3t6xg</text></g><g data-channel="cell" data-cell-index="14" data-cell-row="3" data-cell-col="2" data-cell-fingerprint="true" data-surround-bits="0x2093be" data-edge-color="#ff3f2f" data-cell-quartile="1"><rect x="153" y="156" width="48" height="20" fill="#2f3fbf"/><rect x="153.5" y="156.5" width="47" height="19" fill="none" stroke="#ffffff" stroke-width="1"/><text x="177" y="166" fill="#ffffff" font-size="13.333" text-anchor="middle" dominant-baseline="central">2v2h2</text><polygon points="153,156 163,156 153,166" fill="#ffffff"/></g><g data-channel="cell" data-cell-index="15" data-cell-row="3" data-cell-col="3" data-surround-bits="0x19bfc3" data-edge-color="#e7be00"><rect x="213" y="156" width="48" height="20" fill="#c8e867"/><text x="237" y="166" fill="#000000" font-size="16" text-anchor="middle" dominant-baseline="central">Z-jI</text></g><g data-channel="cell" data-cell-index="16" data-cell-row="4" data-cell-col="0" data-surround-bits="0xdf083a" data-edge-color="#ff3f2f"><rect x="33" y="196" width="48" height="20" fill="#dc2db5"/><text x="57" y="206" fill="#000000" font-size="16" text-anchor="middle" dominant-baseline="central">tS3c</text></g><g data-channel="cell" data-cell-index="17" data-cell-row="4" data-cell-col="1" data-surround-bits="0x5e7b75" data-edge-color="#ff3f2f"><rect x="93" y="196" width="48" height="20" fill="#f06206"/><text x="117" y="206" fill="#000000" font-size="16" text-anchor="middle" dominant-baseline="central">BmLw</text></g><g data-channel="cell" data-cell-index="18" data-cell-row="4" data-cell-col="2" data-surround-bits="0x7b5a76" data-edge-color="#e7be00"><rect x="153" y="196" width="48" height="20" fill="#c4a757"/><text x="177" y="206" fill="#000000" font-size="16" text-anchor="middle" dominant-baseline="central">V6fE</text></g><g data-channel="cell" data-cell-index="19" data-cell-row="4" data-cell-col="3" data-surround-bits="0x439408" data-edge-color="#ffffff"><rect x="213" y="196" width="48" height="20" fill="#d8eca4"/><text x="237" y="206" fill="#000000" font-size="16" text-anchor="middle" dominant-baseline="central">pOzY</text></g><g data-channel="cell" data-cell-index="20" data-cell-row="5" data-cell-col="0" data-surround-bits="0x72f316" data-edge-color="#ff3f2f"><rect x="33" y="236" width="48" height="20" fill="#ec21f6"/><text x="57" y="246" fill="#000000" font-size="16" text-anchor="middle" dominant-baseline="central">9iHs</text></g><g data-channel="cell" data-cell-index="21" data-cell-row="5" data-cell-col="1" data-surround-bits="0x1ec84" data-edge-color="#ff3f2f"><rect x="93" y="236" width="48" height="20" fill="#c06647"/><text x="117" y="246" fill="#000000" font-size="16" text-anchor="middle" dominant-baseline="central">R2bA</text></g><g data-channel="cell" data-cell-index="22" data-cell-row="5" data-cell-col="2" data-surround-bits="0x9ef01b" data-edge-color="#ffffff"><rect x="153" y="236" width="48" height="20" fill="#d4ab94"/><text x="177" y="246" fill="#000000" font-size="16" text-anchor="middle" dominant-baseline="central">lKvU</text></g><g data-channel="cell" data-cell-index="23" data-cell-row="5" data-cell-col="3" data-cell-blank="true"><rect x="213" y="236" width="48" height="20" rx="10" ry="10" fill="#000000" stroke="#000000" stroke-width="1"/></g></g></g><g data-channel="color-bar" data-bar-slots="16" data-bar-marker-left="11" data-bar-marker-right="12"><g data-color-bar-rank="0" data-color-bar-band="R"><rect x="1" y="1" width="20" height="75.845" fill="#ff3f2f"/><text x="11" y="73.325" fill="#000000" font-size="16" text-anchor="middle" data-color-bar-letter="true">r</text></g><g data-color-bar-rank="1" data-color-bar-band="G"><rect x="1" y="76.845" width="20" height="55.344" fill="#e7be00"/><text x="11" y="128.668" fill="#000000" font-size="16" text-anchor="middle" data-color-bar-letter="true">g</text></g><g data-color-bar-rank="2" data-color-bar-band="W"><rect x="1" y="132.188" width="20" height="75.845" fill="#ffffff"/><text x="11" y="204.513" fill="#000000" font-size="16" text-anchor="middle" data-color-bar-letter="true">w</text></g><g data-color-bar-rank="3" data-color-bar-band="K"><rect x="1" y="208.033" width="20" height="62.967" fill="#000000"/><text x="11" y="267.48" fill="#ffffff" font-size="16" text-anchor="middle" data-color-bar-letter="true">k</text></g><circle cx="5.6" cy="195.062" r="3.4" fill="#ffffff" stroke="#000000" stroke-width="0.75" data-bar-marker="left"/><circle cx="16.4" cy="211.938" r="3.4" fill="#ffffff" stroke="#000000" stroke-width="0.75" data-bar-marker="right"/></g><g data-channel="label-top"><text x="27" y="16" fill="#666666" font-size="12" dominant-baseline="central"><tspan fill="#a00000" font-weight="bold">fingerprint of </tspan>CESR Ed25519 sig:</text></g><line x1="0" y1="0.5" x2="273" y2="0.5" stroke="#808080" stroke-width="1" shape-rendering="crispEdges"/><line x1="272.5" y1="0" x2="272.5" y2="272" stroke="#808080" stroke-width="1" shape-rendering="crispEdges"/><line x1="0" y1="271.5" x2="273" y2="271.5" stroke="#808080" stroke-width="1" shape-rendering="crispEdges"/><line x1="0.5" y1="0" x2="0.5" y2="272" stroke="#808080" stroke-width="1" shape-rendering="crispEdges"/><line x1="21.5" y1="0" x2="21.5" y2="272" stroke="#808080" stroke-width="1" shape-rendering="crispEdges"/></svg>