<svg width="275" height="274" viewBox="0 0 275 274" xmlns="http://www.w3.org/2000/svg" font-family="&quot;JetBrains Mono&quot;, &quot;Menlo&quot;, &quot;Consolas&quot;, &quot;DejaVu Sans Mono&quot;, &quot;Liberation Mono&quot;, &quot;Roboto Mono&quot;, &quot;Noto Sans Mono&quot;, monospace" data-entviz-version="v12" data-entviz-lib="0.12.0" data-input-bytes="88" data-cols="4" data-rows="6" data-truncated="true"><defs><clipPath id="grid-clip-069680ac121ada50-4x6"><rect x="28" y="27" width="240" height="240"/></clipPath></defs><rect x="1" y="1" width="273" height="272" fill="#ffffff"/><g data-channel="grid"><rect x="28" y="27" width="240" height="240" fill="#2f3fbf"/><g><path fill="#ffffff" d="M70 27h6v10h-6zM82 27h6v10h-6zM82 37h6v10h-6zM82 57h6v10h-6zM64 57h6v10h-6zM52 57h6v10h-6zM46 57h6v10h-6z"/><path fill="#e7be00" d="M154 27h6v10h-6zM166 27h6v10h-6zM172 27h6v10h-6zM202 27h6v10h-6zM202 57h6v10h-6zM166 57h6v10h-6zM160 57h6v10h-6zM148 57h6v10h-6zM148 37h6v10h-6z"/><path fill="#ffffff" d="M238 27h6v10h-6zM244 27h6v10h-6zM262 57h6v10h-6zM250 57h6v10h-6zM232 57h6v10h-6zM220 57h6v10h-6zM214 57h6v10h-6zM208 47h6v10h-6zM208 37h6v10h-6z"/><path fill="#ff3f2f" d="M52 67h6v10h-6zM70 67h6v10h-6zM82 77h6v10h-6zM64 97h6v10h-6zM52 97h6v10h-6zM40 97h6v10h-6zM28 97h6v10h-6zM28 87h6v10h-6z"/><path fill="#ff3f2f" d="M88 67h6v10h-6zM94 67h6v10h-6zM100 67h6v10h-6zM106 67h6v10h-6zM142 67h6v10h-6zM142 77h6v10h-6zM142 87h6v10h-6zM142 97h6v10h-6zM118 97h6v10h-6zM100 97h6v10h-6zM94 97h6v10h-6zM88 77h6v10h-6z"/><path fill="#ffffff" d="M220 67h6v10h-6zM232 67h6v10h-6zM244 67h6v10h-6zM256 67h6v10h-6zM262 77h6v10h-6zM262 87h6v10h-6zM256 97h6v10h-6zM250 97h6v10h-6zM244 97h6v10h-6zM238 97h6v10h-6zM220 97h6v10h-6zM214 97h6v10h-6zM208 97h6v10h-6zM208 87h6v10h-6zM208 77h6v10h-6z"/><path fill="#ffffff" d="M88 107h6v10h-6zM94 107h6v10h-6zM106 107h6v10h-6zM130 107h6v10h-6zM136 107h6v10h-6zM142 107h6v10h-6zM142 117h6v10h-6zM142 127h6v10h-6zM130 137h6v10h-6zM118 137h6v10h-6zM112 137h6v10h-6zM106 137h6v10h-6zM94 137h6v10h-6zM88 137h6v10h-6z"/><path fill="#ff3f2f" d="M148 107h6v10h-6zM160 107h6v10h-6zM166 107h6v10h-6zM172 107h6v10h-6zM178 107h6v10h-6zM202 107h6v10h-6zM202 117h6v10h-6zM202 127h6v10h-6zM202 137h6v10h-6zM190 137h6v10h-6zM154 137h6v10h-6zM148 137h6v10h-6zM148 127h6v10h-6zM148 117h6v10h-6z"/><path fill="#000000" d="M208 107h6v10h-6zM214 107h6v10h-6zM232 107h6v10h-6zM238 107h6v10h-6zM244 107h6v10h-6zM262 107h6v10h-6zM262 127h6v10h-6zM262 137h6v10h-6zM256 137h6v10h-6zM244 137h6v10h-6zM238 137h6v10h-6zM232 137h6v10h-6zM208 137h6v10h-6zM208 127h6v10h-6z"/><path fill="#000000" d="M28 147h6v10h-6zM40 147h6v10h-6zM46 147h6v10h-6zM58 147h6v10h-6zM70 147h6v10h-6zM82 147h6v10h-6zM82 167h6v10h-6zM76 177h6v10h-6zM46 177h6v10h-6zM34 177h6v10h-6zM28 177h6v10h-6zM28 167h6v10h-6zM28 157h6v10h-6z"/><path fill="#000000" d="M88 147h6v10h-6zM106 147h6v10h-6zM112 147h6v10h-6zM136 147h6v10h-6zM142 147h6v10h-6zM142 157h6v10h-6zM142 177h6v10h-6zM136 177h6v10h-6zM124 177h6v10h-6zM118 177h6v10h-6zM88 177h6v10h-6zM88 157h6v10h-6z"/><path fill="#ff3f2f" d="M154 147h6v10h-6zM160 147h6v10h-6zM166 147h6v10h-6zM172 147h6v10h-6zM178 147h6v10h-6zM190 147h6v10h-6zM196 147h6v10h-6zM202 147h6v10h-6zM202 177h6v10h-6zM184 177h6v10h-6zM148 177h6v10h-6z"/><path fill="#e7be00" d="M208 147h6v10h-6zM214 147h6v10h-6zM244 147h6v10h-6zM250 147h6v10h-6zM256 147h6v10h-6zM262 147h6v10h-6zM262 157h6v10h-6zM262 167h6v10h-6zM262 177h6v10h-6zM256 177h6v10h-6zM244 177h6v10h-6zM238 177h6v10h-6zM220 177h6v10h-6zM214 177h6v10h-6z"/><path fill="#ff3f2f" d="M34 187h6v10h-6zM46 187h6v10h-6zM52 187h6v10h-6zM58 187h6v10h-6zM82 207h6v10h-6zM58 217h6v10h-6zM52 217h6v10h-6zM46 217h6v10h-6zM40 217h6v10h-6zM34 217h6v10h-6zM28 207h6v10h-6zM28 197h6v10h-6z"/><path fill="#ff3f2f" d="M88 187h6v10h-6zM100 187h6v10h-6zM112 187h6v10h-6zM118 187h6v10h-6zM124 187h6v10h-6zM136 187h6v10h-6zM142 187h6v10h-6zM142 207h6v10h-6zM142 217h6v10h-6zM136 217h6v10h-6zM130 217h6v10h-6zM112 217h6v10h-6zM106 217h6v10h-6zM100 217h6v10h-6zM94 217h6v10h-6zM88 207h6v10h-6z"/><path fill="#e7be00" d="M154 187h6v10h-6zM160 187h6v10h-6zM172 187h6v10h-6zM178 187h6v10h-6zM184 187h6v10h-6zM202 187h6v10h-6zM202 207h6v10h-6zM202 217h6v10h-6zM190 217h6v10h-6zM178 217h6v10h-6zM172 217h6v10h-6zM160 217h6v10h-6zM154 217h6v10h-6zM148 217h6v10h-6zM148 207h6v10h-6z"/><path fill="#ffffff" d="M226 187h6v10h-6zM262 197h6v10h-6zM262 217h6v10h-6zM244 217h6v10h-6zM238 217h6v10h-6zM232 217h6v10h-6zM208 207h6v10h-6z"/><path fill="#ff3f2f" d="M34 227h6v10h-6zM40 227h6v10h-6zM52 227h6v10h-6zM76 227h6v10h-6zM82 227h6v10h-6zM82 257h6v10h-6zM76 257h6v10h-6zM70 257h6v10h-6zM64 257h6v10h-6zM52 257h6v10h-6zM34 257h6v10h-6zM28 257h6v10h-6zM28 247h6v10h-6z"/><path fill="#ff3f2f" d="M100 227h6v10h-6zM130 227h6v10h-6zM142 237h6v10h-6zM142 247h6v10h-6zM136 257h6v10h-6zM130 257h6v10h-6zM124 257h6v10h-6zM118 257h6v10h-6z"/><path fill="#ffffff" d="M148 227h6v10h-6zM154 227h6v10h-6zM166 227h6v10h-6zM172 227h6v10h-6zM202 257h6v10h-6zM196 257h6v10h-6zM190 257h6v10h-6zM184 257h6v10h-6zM172 257h6v10h-6zM166 257h6v10h-6zM160 257h6v10h-6zM154 257h6v10h-6zM148 237h6v10h-6z"/></g><g clip-path="url(#grid-clip-069680ac121ada50-4x6)" data-channel="ellipse" data-ellipse-anchor-x="208" data-ellipse-anchor-y="227" data-ellipse-rx="59.196" data-ellipse-ry="97.942" data-ellipse-rotation-deg="96"><ellipse cx="208" cy="227" rx="59.196" ry="97.942" transform="rotate(96 208 227)" fill="#ffffff" stroke="#ffffff" fill-opacity="0.35" stroke-opacity="0.45" stroke-width="2"/></g><g><g data-channel="cell" data-cell-index="0" data-cell-row="0" data-cell-col="0" data-surround-bits="0x69680" data-edge-color="#ffffff" data-cell-quartile="2"><rect x="34" y="37" width="48" height="20" fill="#f012d0"/><text x="58" y="47" fill="#000000" font-size="16" text-anchor="middle" dominant-baseline="central">0BLw</text><polygon points="82,37 72,37 82,47" fill="#000000"/></g><g data-channel="cell" data-cell-index="1" data-cell-row="0" data-cell-col="1" data-cell-blank="true" data-cell-blank-map="true"><rect x="94" y="37" width="48" height="20" rx="10" ry="10" fill="#ffffff" stroke="#000000" stroke-width="1"/><circle cx="112" cy="55.333" r="3.5" fill="#1d4ed8" data-blank-map-min="5,1"/><path d="M 131.8,42 H 140.2 M 136,37.8 V 46.2" fill="none" stroke="#d62828" stroke-width="1.925" stroke-linecap="butt" data-blank-map-max="1,3"/></g><g data-channel="cell" data-cell-index="2" data-cell-row="0" data-cell-col="2" data-surround-bits="0xac121a" data-edge-color="#e7be00" data-cell-quartile="4"><rect x="154" y="37" width="48" height="20" fill="#c4a757"/><text x="178" y="47" fill="#000000" font-size="16" text-anchor="middle" dominant-baseline="central">V6fE</text><polygon points="154,57 154,47 164,57" fill="#000000"/></g><g data-channel="cell" data-cell-index="3" data-cell-row="0" data-cell-col="3" data-surround-bits="0xda5060" data-edge-color="#ffffff"><rect x="214" y="37" width="48" height="20" fill="#d8eca4"/><text x="238" y="47" fill="#000000" font-size="16" text-anchor="middle" dominant-baseline="central">pOzY</text></g><g data-channel="cell" data-cell-index="4" data-cell-row="1" data-cell-col="0" data-surround-bits="0x6a8490" data-edge-color="#ff3f2f"><rect x="34" y="77" width="48" height="20" fill="#ec21f6"/><text x="58" y="87" fill="#000000" font-size="16" text-anchor="middle" dominant-baseline="central">9iHs</text></g><g data-channel="cell" data-cell-index="5" data-cell-row="1" data-cell-col="1" data-surround-bits="0x991e0f" data-edge-color="#ff3f2f" data-cell-quartile="3"><rect x="94" y="77" width="48" height="20" fill="#c06647"/><text x="118" y="87" fill="#000000" font-size="16" text-anchor="middle" dominant-baseline="central">R2bA</text><polygon points="142,97 142,87 132,97" fill="#000000"/></g><g data-channel="cell" data-cell-index="6" data-cell-row="1" data-cell-col="2" data-cell-blank="true"><rect x="154" y="77" width="48" height="20" rx="10" ry="10" fill="#e7be00" stroke="#000000" stroke-width="1"/></g><g data-channel="cell" data-cell-index="7" data-cell-row="1" data-cell-col="3" data-surround-bits="0xf9ed54" data-edge-color="#ffffff"><rect x="214" y="77" width="48" height="20" fill="#d4ab94"/><text x="238" y="87" fill="#000000" font-size="16" text-anchor="middle" dominant-baseline="central">lKvU</text></g><g data-channel="cell" data-cell-index="8" data-cell-row="2" data-cell-col="0" data-cell-blank="true"><rect x="34" y="117" width="48" height="20" rx="10" ry="10" fill="#ffffff" stroke="#000000" stroke-width="1"/></g><g data-channel="cell" data-cell-index="9" data-cell-row="2" data-cell-col="1" data-surround-bits="0x374f8b" data-edge-color="#ffffff"><rect x="94" y="117" width="48" height="20" fill="#e8e0e5"/><text x="118" y="127" fill="#000000" font-size="16" text-anchor="middle" dominant-baseline="central">5eDo</text></g><g data-channel="cell" data-cell-index="10" data-cell-row="2" data-cell-col="2" data-surround-bits="0xf05e3d" data-edge-color="#ff3f2f"><rect x="154" y="117" width="48" height="20" fill="#fc2537"/><text x="178" y="127" fill="#000000" font-size="16" text-anchor="middle" dominant-baseline="central">NyX8</text></g><g data-channel="cell" data-cell-index="11" data-cell-row="2" data-cell-col="3" data-cell-fingerprint="true" data-surround-bits="0x63ba73" data-edge-color="#000000"><rect x="214" y="117" width="48" height="20" fill="#2f3fbf"/><rect x="214.5" y="117.5" width="47" height="19" fill="none" stroke="#ffffff" stroke-width="1"/><text x="238" y="127" fill="#ffffff" font-size="13.333" text-anchor="middle" dominant-baseline="central">33014</text></g><g data-channel="cell" data-cell-index="12" data-cell-row="3" data-cell-col="0" data-cell-fingerprint="true" data-surround-bits="0xf42aad" data-edge-color="#000000"><rect x="34" y="157" width="48" height="20" fill="#2f3fbf"/><rect x="34.5" y="157.5" width="47" height="19" fill="none" stroke="#ffffff" stroke-width="1"/><text x="58" y="167" fill="#ffffff" font-size="13.333" text-anchor="middle" dominant-baseline="central">1fv0j</text></g><g data-channel="cell" data-cell-index="13" data-cell-row="3" data-cell-col="1" data-cell-fingerprint="true" data-surround-bits="0xa1b719" data-edge-color="#000000"><rect x="94" y="157" width="48" height="20" fill="#2f3fbf"/><rect x="94.5" y="157.5" width="47" height="19" fill="none" stroke="#ffffff" stroke-width="1"/><text x="118" y="167" fill="#ffffff" font-size="13.333" text-anchor="middle" dominant-baseline="central">3t6xg</text></g><g data-channel="cell" data-cell-index="14" data-cell-row="3" data-cell-col="2" data-cell-fingerprint="true" data-surround-bits="0x2093be" data-edge-color="#ff3f2f" data-cell-quartile="1"><rect x="154" y="157" width="48" height="20" fill="#2f3fbf"/><rect x="154.5" y="157.5" width="47" height="19" fill="none" stroke="#ffffff" stroke-width="1"/><text x="178" y="167" fill="#ffffff" font-size="13.333" text-anchor="middle" dominant-baseline="central">2v2h2</text><polygon points="154,157 164,157 154,167" fill="#ffffff"/></g><g data-channel="cell" data-cell-index="15" data-cell-row="3" data-cell-col="3" data-surround-bits="0x19bfc3" data-edge-color="#e7be00"><rect x="214" y="157" width="48" height="20" fill="#c8e867"/><text x="238" y="167" fill="#000000" font-size="16" text-anchor="middle" dominant-baseline="central">Z-jI</text></g><g data-channel="cell" data-cell-index="16" data-cell-row="4" data-cell-col="0" data-surround-bits="0xdf083a" data-edge-color="#ff3f2f"><rect x="34" y="197" width="48" height="20" fill="#dc2db5"/><text x="58" y="207" fill="#000000" font-size="16" text-anchor="middle" dominant-baseline="central">tS3c</text></g><g data-channel="cell" data-cell-index="17" data-cell-row="4" data-cell-col="1" data-surround-bits="0x5e7b75" data-edge-color="#ff3f2f"><rect x="94" y="197" width="48" height="20" fill="#f06206"/><text x="118" y="207" fill="#000000" font-size="16" text-anchor="middle" dominant-baseline="central">BmLw</text></g><g data-channel="cell" data-cell-index="18" data-cell-row="4" data-cell-col="2" data-surround-bits="0x7b5a76" data-edge-color="#e7be00"><rect x="154" y="197" width="48" height="20" fill="#c4a757"/><text x="178" y="207" fill="#000000" font-size="16" text-anchor="middle" dominant-baseline="central">V6fE</text></g><g data-channel="cell" data-cell-index="19" data-cell-row="4" data-cell-col="3" data-surround-bits="0x439408" data-edge-color="#ffffff"><rect x="214" y="197" width="48" height="20" fill="#d8eca4"/><text x="238" y="207" fill="#000000" font-size="16" text-anchor="middle" dominant-baseline="central">pOzY</text></g><g data-channel="cell" data-cell-index="20" data-cell-row="5" data-cell-col="0" data-surround-bits="0x72f316" data-edge-color="#ff3f2f"><rect x="34" y="237" width="48" height="20" fill="#ec21f6"/><text x="58" y="247" fill="#000000" font-size="16" text-anchor="middle" dominant-baseline="central">9iHs</text></g><g data-channel="cell" data-cell-index="21" data-cell-row="5" data-cell-col="1" data-surround-bits="0x1ec84" data-edge-color="#ff3f2f"><rect x="94" y="237" width="48" height="20" fill="#c06647"/><text x="118" y="247" fill="#000000" font-size="16" text-anchor="middle" dominant-baseline="central">R2bA</text></g><g data-channel="cell" data-cell-index="22" data-cell-row="5" data-cell-col="2" data-surround-bits="0x9ef01b" data-edge-color="#ffffff"><rect x="154" y="237" width="48" height="20" fill="#d4ab94"/><text x="178" y="247" fill="#000000" font-size="16" text-anchor="middle" dominant-baseline="central">lKvU</text></g><g data-channel="cell" data-cell-index="23" data-cell-row="5" data-cell-col="3" data-cell-blank="true"><rect x="214" y="237" width="48" height="20" rx="10" ry="10" fill="#000000" stroke="#000000" stroke-width="1"/></g></g></g><g data-channel="color-bar" data-bar-slots="16" data-bar-marker-left="11" data-bar-marker-right="12"><g data-color-bar-rank="0" data-color-bar-band="R"><rect x="2" y="2" width="20" height="75.845" fill="#ff3f2f"/><text x="12" y="74.325" fill="#000000" font-size="16" text-anchor="middle" data-color-bar-letter="true">r</text></g><g data-color-bar-rank="1" data-color-bar-band="G"><rect x="2" y="77.845" width="20" height="55.344" fill="#e7be00"/><text x="12" y="129.668" fill="#000000" font-size="16" text-anchor="middle" data-color-bar-letter="true">g</text></g><g data-color-bar-rank="2" data-color-bar-band="W"><rect x="2" y="133.188" width="20" height="75.845" fill="#ffffff"/><text x="12" y="205.513" fill="#000000" font-size="16" text-anchor="middle" data-color-bar-letter="true">w</text></g><g data-color-bar-rank="3" data-color-bar-band="K"><rect x="2" y="209.033" width="20" height="62.967" fill="#000000"/><text x="12" y="268.48" fill="#ffffff" font-size="16" text-anchor="middle" data-color-bar-letter="true">k</text></g><circle cx="6.6" cy="196.062" r="3.4" fill="#ffffff" stroke="#000000" stroke-width="0.75" data-bar-marker="left"/><circle cx="17.4" cy="212.938" r="3.4" fill="#ffffff" stroke="#000000" stroke-width="0.75" data-bar-marker="right"/></g><g data-channel="label-top"><text x="28" y="17" fill="#666666" font-size="12" dominant-baseline="central"><tspan fill="#a00000" font-weight="bold">fingerprint of </tspan>CESR Ed25519 sig:</text></g><line x1="1" y1="1.5" x2="274" y2="1.5" stroke="#808080" stroke-width="1" shape-rendering="crispEdges"/><line x1="273.5" y1="1" x2="273.5" y2="273" stroke="#808080" stroke-width="1" shape-rendering="crispEdges"/><line x1="1" y1="272.5" x2="274" y2="272.5" stroke="#808080" stroke-width="1" shape-rendering="crispEdges"/><line x1="1.5" y1="1" x2="1.5" y2="273" stroke="#808080" stroke-width="1" shape-rendering="crispEdges"/><line x1="22.5" y1="1" x2="22.5" y2="273" stroke="#808080" stroke-width="1" shape-rendering="crispEdges"/></svg>