<svg width="273" height="272" viewBox="0 0 273 272" xmlns="http://www.w3.org/2000/svg" font-family="&quot;JetBrains Mono&quot;, &quot;Menlo&quot;, &quot;Consolas&quot;, &quot;DejaVu Sans Mono&quot;, &quot;Liberation Mono&quot;, &quot;Roboto Mono&quot;, &quot;Noto Sans Mono&quot;, monospace" data-entviz-version="v10" data-entviz-lib="0.10.0" data-input-bytes="88" data-cols="4" data-rows="6" data-truncated="true"><defs><clipPath id="grid-clip-069680ac121ada50-4x6"><rect x="27" y="26" width="240" height="240"/></clipPath></defs><rect x="0" y="0" width="273" height="272" fill="#ffffff"/><g data-channel="grid"><rect x="27" y="26" width="240" height="240" fill="#2f3fbf"/><g><rect x="69" y="26" width="6" height="10" fill="#ffffff"/><rect x="81" y="26" width="6" height="10" fill="#ffffff"/><rect x="81" y="36" width="6" height="10" fill="#ffffff"/><rect x="81" y="56" width="6" height="10" fill="#ffffff"/><rect x="63" y="56" width="6" height="10" fill="#ffffff"/><rect x="51" y="56" width="6" height="10" fill="#ffffff"/><rect x="45" y="56" width="6" height="10" fill="#ffffff"/><rect x="153" y="26" width="6" height="10" fill="#e7be00"/><rect x="165" y="26" width="6" height="10" fill="#e7be00"/><rect x="171" y="26" width="6" height="10" fill="#e7be00"/><rect x="201" y="26" width="6" height="10" fill="#e7be00"/><rect x="201" y="56" width="6" height="10" fill="#e7be00"/><rect x="165" y="56" width="6" height="10" fill="#e7be00"/><rect x="159" y="56" width="6" height="10" fill="#e7be00"/><rect x="147" y="56" width="6" height="10" fill="#e7be00"/><rect x="147" y="36" width="6" height="10" fill="#e7be00"/><rect x="237" y="26" width="6" height="10" fill="#ffffff"/><rect x="243" y="26" width="6" height="10" fill="#ffffff"/><rect x="261" y="56" width="6" height="10" fill="#ffffff"/><rect x="249" y="56" width="6" height="10" fill="#ffffff"/><rect x="231" y="56" width="6" height="10" fill="#ffffff"/><rect x="219" y="56" width="6" height="10" fill="#ffffff"/><rect x="213" y="56" width="6" height="10" fill="#ffffff"/><rect x="207" y="46" width="6" height="10" fill="#ffffff"/><rect x="207" y="36" width="6" height="10" fill="#ffffff"/><rect x="51" y="66" width="6" height="10" fill="#ff3f2f"/><rect x="69" y="66" width="6" height="10" fill="#ff3f2f"/><rect x="81" y="76" width="6" height="10" fill="#ff3f2f"/><rect x="63" y="96" width="6" height="10" fill="#ff3f2f"/><rect x="51" y="96" width="6" height="10" fill="#ff3f2f"/><rect x="39" y="96" width="6" height="10" fill="#ff3f2f"/><rect x="27" y="96" width="6" height="10" fill="#ff3f2f"/><rect x="27" y="86" width="6" height="10" fill="#ff3f2f"/><rect x="87" y="66" width="6" height="10" fill="#ff3f2f"/><rect x="93" y="66" width="6" height="10" fill="#ff3f2f"/><rect x="99" y="66" width="6" height="10" fill="#ff3f2f"/><rect x="105" y="66" width="6" height="10" fill="#ff3f2f"/><rect x="141" y="66" width="6" height="10" fill="#ff3f2f"/><rect x="141" y="76" width="6" height="10" fill="#ff3f2f"/><rect x="141" y="86" width="6" height="10" fill="#ff3f2f"/><rect x="141" y="96" width="6" height="10" fill="#ff3f2f"/><rect x="117" y="96" width="6" height="10" fill="#ff3f2f"/><rect x="99" y="96" width="6" height="10" fill="#ff3f2f"/><rect x="93" y="96" width="6" height="10" fill="#ff3f2f"/><rect x="87" y="76" width="6" height="10" fill="#ff3f2f"/><rect x="219" y="66" width="6" height="10" fill="#ffffff"/><rect x="231" y="66" width="6" height="10" fill="#ffffff"/><rect x="243" y="66" width="6" height="10" fill="#ffffff"/><rect x="255" y="66" width="6" height="10" fill="#ffffff"/><rect x="261" y="76" width="6" height="10" fill="#ffffff"/><rect x="261" y="86" width="6" height="10" fill="#ffffff"/><rect x="255" y="96" width="6" height="10" fill="#ffffff"/><rect x="249" y="96" width="6" height="10" fill="#ffffff"/><rect x="243" y="96" width="6" height="10" fill="#ffffff"/><rect x="237" y="96" width="6" height="10" fill="#ffffff"/><rect x="219" y="96" width="6" height="10" fill="#ffffff"/><rect x="213" y="96" width="6" height="10" fill="#ffffff"/><rect x="207" y="96" width="6" height="10" fill="#ffffff"/><rect x="207" y="86" width="6" height="10" fill="#ffffff"/><rect x="207" y="76" width="6" height="10" fill="#ffffff"/><rect x="87" y="106" width="6" height="10" fill="#ffffff"/><rect x="93" y="106" width="6" height="10" fill="#ffffff"/><rect x="105" y="106" width="6" height="10" fill="#ffffff"/><rect x="129" y="106" width="6" height="10" fill="#ffffff"/><rect x="135" y="106" width="6" height="10" fill="#ffffff"/><rect x="141" y="106" width="6" height="10" fill="#ffffff"/><rect x="141" y="116" width="6" height="10" fill="#ffffff"/><rect x="141" y="126" width="6" height="10" fill="#ffffff"/><rect x="129" y="136" width="6" height="10" fill="#ffffff"/><rect x="117" y="136" width="6" height="10" fill="#ffffff"/><rect x="111" y="136" width="6" height="10" fill="#ffffff"/><rect x="105" y="136" width="6" height="10" fill="#ffffff"/><rect x="93" y="136" width="6" height="10" fill="#ffffff"/><rect x="87" y="136" width="6" height="10" fill="#ffffff"/><rect x="147" y="106" width="6" height="10" fill="#ff3f2f"/><rect x="159" y="106" width="6" height="10" fill="#ff3f2f"/><rect x="165" y="106" width="6" height="10" fill="#ff3f2f"/><rect x="171" y="106" width="6" height="10" fill="#ff3f2f"/><rect x="177" y="106" width="6" height="10" fill="#ff3f2f"/><rect x="201" y="106" width="6" height="10" fill="#ff3f2f"/><rect x="201" y="116" width="6" height="10" fill="#ff3f2f"/><rect x="201" y="126" width="6" height="10" fill="#ff3f2f"/><rect x="201" y="136" width="6" height="10" fill="#ff3f2f"/><rect x="189" y="136" width="6" height="10" fill="#ff3f2f"/><rect x="153" y="136" width="6" height="10" fill="#ff3f2f"/><rect x="147" y="136" width="6" height="10" fill="#ff3f2f"/><rect x="147" y="126" width="6" height="10" fill="#ff3f2f"/><rect x="147" y="116" width="6" height="10" fill="#ff3f2f"/><rect x="207" y="106" width="6" height="10" fill="#000000"/><rect x="213" y="106" width="6" height="10" fill="#000000"/><rect x="231" y="106" width="6" height="10" fill="#000000"/><rect x="237" y="106" width="6" height="10" fill="#000000"/><rect x="243" y="106" width="6" height="10" fill="#000000"/><rect x="261" y="106" width="6" height="10" fill="#000000"/><rect x="261" y="126" width="6" height="10" fill="#000000"/><rect x="261" y="136" width="6" height="10" fill="#000000"/><rect x="255" y="136" width="6" height="10" fill="#000000"/><rect x="243" y="136" width="6" height="10" fill="#000000"/><rect x="237" y="136" width="6" height="10" fill="#000000"/><rect x="231" y="136" width="6" height="10" fill="#000000"/><rect x="207" y="136" width="6" height="10" fill="#000000"/><rect x="207" y="126" width="6" height="10" fill="#000000"/><rect x="27" y="146" width="6" height="10" fill="#000000"/><rect x="39" y="146" width="6" height="10" fill="#000000"/><rect x="45" y="146" width="6" height="10" fill="#000000"/><rect x="57" y="146" width="6" height="10" fill="#000000"/><rect x="69" y="146" width="6" height="10" fill="#000000"/><rect x="81" y="146" width="6" height="10" fill="#000000"/><rect x="81" y="166" width="6" height="10" fill="#000000"/><rect x="75" y="176" width="6" height="10" fill="#000000"/><rect x="45" y="176" width="6" height="10" fill="#000000"/><rect x="33" y="176" width="6" height="10" fill="#000000"/><rect x="27" y="176" width="6" height="10" fill="#000000"/><rect x="27" y="166" width="6" height="10" fill="#000000"/><rect x="27" y="156" width="6" height="10" fill="#000000"/><rect x="87" y="146" width="6" height="10" fill="#000000"/><rect x="105" y="146" width="6" height="10" fill="#000000"/><rect x="111" y="146" width="6" height="10" fill="#000000"/><rect x="135" y="146" width="6" height="10" fill="#000000"/><rect x="141" y="146" width="6" height="10" fill="#000000"/><rect x="141" y="156" width="6" height="10" fill="#000000"/><rect x="141" y="176" width="6" height="10" fill="#000000"/><rect x="135" y="176" width="6" height="10" fill="#000000"/><rect x="123" y="176" width="6" height="10" fill="#000000"/><rect x="117" y="176" width="6" height="10" fill="#000000"/><rect x="87" y="176" width="6" height="10" fill="#000000"/><rect x="87" y="156" width="6" height="10" fill="#000000"/><rect x="153" y="146" width="6" height="10" fill="#ff3f2f"/><rect x="159" y="146" width="6" height="10" fill="#ff3f2f"/><rect x="165" y="146" width="6" height="10" fill="#ff3f2f"/><rect x="171" y="146" width="6" height="10" fill="#ff3f2f"/><rect x="177" y="146" width="6" height="10" fill="#ff3f2f"/><rect x="189" y="146" width="6" height="10" fill="#ff3f2f"/><rect x="195" y="146" width="6" height="10" fill="#ff3f2f"/><rect x="201" y="146" width="6" height="10" fill="#ff3f2f"/><rect x="201" y="176" width="6" height="10" fill="#ff3f2f"/><rect x="183" y="176" width="6" height="10" fill="#ff3f2f"/><rect x="147" y="176" width="6" height="10" fill="#ff3f2f"/><rect x="207" y="146" width="6" height="10" fill="#e7be00"/><rect x="213" y="146" width="6" height="10" fill="#e7be00"/><rect x="243" y="146" width="6" height="10" fill="#e7be00"/><rect x="249" y="146" width="6" height="10" fill="#e7be00"/><rect x="255" y="146" width="6" height="10" fill="#e7be00"/><rect x="261" y="146" width="6" height="10" fill="#e7be00"/><rect x="261" y="156" width="6" height="10" fill="#e7be00"/><rect x="261" y="166" width="6" height="10" fill="#e7be00"/><rect x="261" y="176" width="6" height="10" fill="#e7be00"/><rect x="255" y="176" width="6" height="10" fill="#e7be00"/><rect x="243" y="176" width="6" height="10" fill="#e7be00"/><rect x="237" y="176" width="6" height="10" fill="#e7be00"/><rect x="219" y="176" width="6" height="10" fill="#e7be00"/><rect x="213" y="176" width="6" height="10" fill="#e7be00"/><rect x="33" y="186" width="6" height="10" fill="#ff3f2f"/><rect x="45" y="186" width="6" height="10" fill="#ff3f2f"/><rect x="51" y="186" width="6" height="10" fill="#ff3f2f"/><rect x="57" y="186" width="6" height="10" fill="#ff3f2f"/><rect x="81" y="206" width="6" height="10" fill="#ff3f2f"/><rect x="57" y="216" width="6" height="10" fill="#ff3f2f"/><rect x="51" y="216" width="6" height="10" fill="#ff3f2f"/><rect x="45" y="216" width="6" height="10" fill="#ff3f2f"/><rect x="39" y="216" width="6" height="10" fill="#ff3f2f"/><rect x="33" y="216" width="6" height="10" fill="#ff3f2f"/><rect x="27" y="206" width="6" height="10" fill="#ff3f2f"/><rect x="27" y="196" width="6" height="10" fill="#ff3f2f"/><rect x="87" y="186" width="6" height="10" fill="#ff3f2f"/><rect x="99" y="186" width="6" height="10" fill="#ff3f2f"/><rect x="111" y="186" width="6" height="10" fill="#ff3f2f"/><rect x="117" y="186" width="6" height="10" fill="#ff3f2f"/><rect x="123" y="186" width="6" height="10" fill="#ff3f2f"/><rect x="135" y="186" width="6" height="10" fill="#ff3f2f"/><rect x="141" y="186" width="6" height="10" fill="#ff3f2f"/><rect x="141" y="206" width="6" height="10" fill="#ff3f2f"/><rect x="141" y="216" width="6" height="10" fill="#ff3f2f"/><rect x="135" y="216" width="6" height="10" fill="#ff3f2f"/><rect x="129" y="216" width="6" height="10" fill="#ff3f2f"/><rect x="111" y="216" width="6" height="10" fill="#ff3f2f"/><rect x="105" y="216" width="6" height="10" fill="#ff3f2f"/><rect x="99" y="216" width="6" height="10" fill="#ff3f2f"/><rect x="93" y="216" width="6" height="10" fill="#ff3f2f"/><rect x="87" y="206" width="6" height="10" fill="#ff3f2f"/><rect x="153" y="186" width="6" height="10" fill="#e7be00"/><rect x="159" y="186" width="6" height="10" fill="#e7be00"/><rect x="171" y="186" width="6" height="10" fill="#e7be00"/><rect x="177" y="186" width="6" height="10" fill="#e7be00"/><rect x="183" y="186" width="6" height="10" fill="#e7be00"/><rect x="201" y="186" width="6" height="10" fill="#e7be00"/><rect x="201" y="206" width="6" height="10" fill="#e7be00"/><rect x="201" y="216" width="6" height="10" fill="#e7be00"/><rect x="189" y="216" width="6" height="10" fill="#e7be00"/><rect x="177" y="216" width="6" height="10" fill="#e7be00"/><rect x="171" y="216" width="6" height="10" fill="#e7be00"/><rect x="159" y="216" width="6" height="10" fill="#e7be00"/><rect x="153" y="216" width="6" height="10" fill="#e7be00"/><rect x="147" y="216" width="6" height="10" fill="#e7be00"/><rect x="147" y="206" width="6" height="10" fill="#e7be00"/><rect x="225" y="186" width="6" height="10" fill="#ffffff"/><rect x="261" y="196" width="6" height="10" fill="#ffffff"/><rect x="261" y="216" width="6" height="10" fill="#ffffff"/><rect x="243" y="216" width="6" height="10" fill="#ffffff"/><rect x="237" y="216" width="6" height="10" fill="#ffffff"/><rect x="231" y="216" width="6" height="10" fill="#ffffff"/><rect x="207" y="206" width="6" height="10" fill="#ffffff"/><rect x="33" y="226" width="6" height="10" fill="#ff3f2f"/><rect x="39" y="226" width="6" height="10" fill="#ff3f2f"/><rect x="51" y="226" width="6" height="10" fill="#ff3f2f"/><rect x="75" y="226" width="6" height="10" fill="#ff3f2f"/><rect x="81" y="226" width="6" height="10" fill="#ff3f2f"/><rect x="81" y="256" width="6" height="10" fill="#ff3f2f"/><rect x="75" y="256" width="6" height="10" fill="#ff3f2f"/><rect x="69" y="256" width="6" height="10" fill="#ff3f2f"/><rect x="63" y="256" width="6" height="10" fill="#ff3f2f"/><rect x="51" y="256" width="6" height="10" fill="#ff3f2f"/><rect x="33" y="256" width="6" height="10" fill="#ff3f2f"/><rect x="27" y="256" width="6" height="10" fill="#ff3f2f"/><rect x="27" y="246" width="6" height="10" fill="#ff3f2f"/><rect x="99" y="226" width="6" height="10" fill="#ff3f2f"/><rect x="129" y="226" width="6" height="10" fill="#ff3f2f"/><rect x="141" y="236" width="6" height="10" fill="#ff3f2f"/><rect x="141" y="246" width="6" height="10" fill="#ff3f2f"/><rect x="135" y="256" width="6" height="10" fill="#ff3f2f"/><rect x="129" y="256" width="6" height="10" fill="#ff3f2f"/><rect x="123" y="256" width="6" height="10" fill="#ff3f2f"/><rect x="117" y="256" width="6" height="10" fill="#ff3f2f"/><rect x="147" y="226" width="6" height="10" fill="#ffffff"/><rect x="153" y="226" width="6" height="10" fill="#ffffff"/><rect x="165" y="226" width="6" height="10" fill="#ffffff"/><rect x="171" y="226" width="6" height="10" fill="#ffffff"/><rect x="201" y="256" width="6" height="10" fill="#ffffff"/><rect x="195" y="256" width="6" height="10" fill="#ffffff"/><rect x="189" y="256" width="6" height="10" fill="#ffffff"/><rect x="183" y="256" width="6" height="10" fill="#ffffff"/><rect x="171" y="256" width="6" height="10" fill="#ffffff"/><rect x="165" y="256" width="6" height="10" fill="#ffffff"/><rect x="159" y="256" width="6" height="10" fill="#ffffff"/><rect x="153" y="256" width="6" height="10" fill="#ffffff"/><rect x="147" y="236" width="6" height="10" fill="#ffffff"/></g><g clip-path="url(#grid-clip-069680ac121ada50-4x6)" data-channel="ellipse" data-ellipse-anchor-x="207" data-ellipse-anchor-y="226" data-ellipse-rx="59.196" data-ellipse-ry="97.942" data-ellipse-rotation-deg="96"><ellipse cx="207" cy="226" rx="59.196" ry="97.942" transform="rotate(96 207 226)" fill="#ffffff" stroke="#ffffff" fill-opacity="0.35" stroke-opacity="0.45" stroke-width="2"/></g><g><g data-channel="cell" data-cell-index="0" data-cell-row="0" data-cell-col="0" data-cell-quartile="2"><rect x="33" y="36" width="48" height="20" fill="#f012d0"/><text x="57" y="46" fill="#000000" font-size="16" text-anchor="middle" dominant-baseline="central">0BLw</text><polygon points="81,36 71,36 81,46" fill="#000000"/></g><g data-channel="cell" data-cell-index="1" data-cell-row="0" data-cell-col="1" data-cell-blank="true" data-cell-blank-map="true"><rect x="93" y="36" width="48" height="20" rx="10" ry="10" fill="#ffffff" stroke="#000000" stroke-width="1"/><circle cx="111" cy="54.333" r="3.5" fill="#1d4ed8" data-blank-map-min="5,1"/><path d="M 130.8,41 H 139.2 M 135,36.8 V 45.2" fill="none" stroke="#d62828" stroke-width="1.925" stroke-linecap="butt" data-blank-map-max="1,3"/></g><g data-channel="cell" data-cell-index="2" data-cell-row="0" data-cell-col="2" data-cell-quartile="4"><rect x="153" y="36" width="48" height="20" fill="#c4a757"/><text x="177" y="46" fill="#000000" font-size="16" text-anchor="middle" dominant-baseline="central">V6fE</text><polygon points="153,56 153,46 163,56" fill="#000000"/></g><g data-channel="cell" data-cell-index="3" data-cell-row="0" data-cell-col="3"><rect x="213" y="36" width="48" height="20" fill="#d8eca4"/><text x="237" y="46" fill="#000000" font-size="16" text-anchor="middle" dominant-baseline="central">pOzY</text></g><g data-channel="cell" data-cell-index="4" data-cell-row="1" data-cell-col="0"><rect x="33" y="76" width="48" height="20" fill="#ec21f6"/><text x="57" y="86" fill="#000000" font-size="16" text-anchor="middle" dominant-baseline="central">9iHs</text></g><g data-channel="cell" data-cell-index="5" data-cell-row="1" data-cell-col="1" data-cell-quartile="3"><rect x="93" y="76" width="48" height="20" fill="#c06647"/><text x="117" y="86" fill="#000000" font-size="16" text-anchor="middle" dominant-baseline="central">R2bA</text><polygon points="141,96 141,86 131,96" fill="#000000"/></g><g data-channel="cell" data-cell-index="6" data-cell-row="1" data-cell-col="2" data-cell-blank="true"><rect x="153" y="76" width="48" height="20" rx="10" ry="10" fill="#e7be00" stroke="#000000" stroke-width="1"/></g><g data-channel="cell" data-cell-index="7" data-cell-row="1" data-cell-col="3"><rect x="213" y="76" width="48" height="20" fill="#d4ab94"/><text x="237" y="86" fill="#000000" font-size="16" text-anchor="middle" dominant-baseline="central">lKvU</text></g><g data-channel="cell" data-cell-index="8" data-cell-row="2" data-cell-col="0" data-cell-blank="true"><rect x="33" y="116" width="48" height="20" rx="10" ry="10" fill="#ffffff" stroke="#000000" stroke-width="1"/></g><g data-channel="cell" data-cell-index="9" data-cell-row="2" data-cell-col="1"><rect x="93" y="116" width="48" height="20" fill="#e8e0e5"/><text x="117" y="126" fill="#000000" font-size="16" text-anchor="middle" dominant-baseline="central">5eDo</text></g><g data-channel="cell" data-cell-index="10" data-cell-row="2" data-cell-col="2"><rect x="153" y="116" width="48" height="20" fill="#fc2537"/><text x="177" y="126" fill="#000000" font-size="16" text-anchor="middle" dominant-baseline="central">NyX8</text></g><g data-channel="cell" data-cell-index="11" data-cell-row="2" data-cell-col="3" data-cell-fingerprint="true"><rect x="213" y="116" width="48" height="20" fill="#2f3fbf"/><rect x="213.5" y="116.5" width="47" height="19" fill="none" stroke="#ffffff" stroke-width="1"/><text x="237" y="126" fill="#ffffff" font-size="13.333" text-anchor="middle" dominant-baseline="central">33014</text></g><g data-channel="cell" data-cell-index="12" data-cell-row="3" data-cell-col="0" data-cell-fingerprint="true"><rect x="33" y="156" width="48" height="20" fill="#2f3fbf"/><rect x="33.5" y="156.5" width="47" height="19" fill="none" stroke="#ffffff" stroke-width="1"/><text x="57" y="166" fill="#ffffff" font-size="13.333" text-anchor="middle" dominant-baseline="central">1fv0j</text></g><g data-channel="cell" data-cell-index="13" data-cell-row="3" data-cell-col="1" data-cell-fingerprint="true"><rect x="93" y="156" width="48" height="20" fill="#2f3fbf"/><rect x="93.5" y="156.5" width="47" height="19" fill="none" stroke="#ffffff" stroke-width="1"/><text x="117" y="166" fill="#ffffff" font-size="13.333" text-anchor="middle" dominant-baseline="central">3t6xg</text></g><g data-channel="cell" data-cell-index="14" data-cell-row="3" data-cell-col="2" data-cell-fingerprint="true" data-cell-quartile="1"><rect x="153" y="156" width="48" height="20" fill="#2f3fbf"/><rect x="153.5" y="156.5" width="47" height="19" fill="none" stroke="#ffffff" stroke-width="1"/><text x="177" y="166" fill="#ffffff" font-size="13.333" text-anchor="middle" dominant-baseline="central">2v2h2</text><polygon points="153,156 163,156 153,166" fill="#ffffff"/></g><g data-channel="cell" data-cell-index="15" data-cell-row="3" data-cell-col="3"><rect x="213" y="156" width="48" height="20" fill="#c8e867"/><text x="237" y="166" fill="#000000" font-size="16" text-anchor="middle" dominant-baseline="central">Z-jI</text></g><g data-channel="cell" data-cell-index="16" data-cell-row="4" data-cell-col="0"><rect x="33" y="196" width="48" height="20" fill="#dc2db5"/><text x="57" y="206" fill="#000000" font-size="16" text-anchor="middle" dominant-baseline="central">tS3c</text></g><g data-channel="cell" data-cell-index="17" data-cell-row="4" data-cell-col="1"><rect x="93" y="196" width="48" height="20" fill="#f06206"/><text x="117" y="206" fill="#000000" font-size="16" text-anchor="middle" dominant-baseline="central">BmLw</text></g><g data-channel="cell" data-cell-index="18" data-cell-row="4" data-cell-col="2"><rect x="153" y="196" width="48" height="20" fill="#c4a757"/><text x="177" y="206" fill="#000000" font-size="16" text-anchor="middle" dominant-baseline="central">V6fE</text></g><g data-channel="cell" data-cell-index="19" data-cell-row="4" data-cell-col="3"><rect x="213" y="196" width="48" height="20" fill="#d8eca4"/><text x="237" y="206" fill="#000000" font-size="16" text-anchor="middle" dominant-baseline="central">pOzY</text></g><g data-channel="cell" data-cell-index="20" data-cell-row="5" data-cell-col="0"><rect x="33" y="236" width="48" height="20" fill="#ec21f6"/><text x="57" y="246" fill="#000000" font-size="16" text-anchor="middle" dominant-baseline="central">9iHs</text></g><g data-channel="cell" data-cell-index="21" data-cell-row="5" data-cell-col="1"><rect x="93" y="236" width="48" height="20" fill="#c06647"/><text x="117" y="246" fill="#000000" font-size="16" text-anchor="middle" dominant-baseline="central">R2bA</text></g><g data-channel="cell" data-cell-index="22" data-cell-row="5" data-cell-col="2"><rect x="153" y="236" width="48" height="20" fill="#d4ab94"/><text x="177" y="246" fill="#000000" font-size="16" text-anchor="middle" dominant-baseline="central">lKvU</text></g><g data-channel="cell" data-cell-index="23" data-cell-row="5" data-cell-col="3" data-cell-blank="true"><rect x="213" y="236" width="48" height="20" rx="10" ry="10" fill="#000000" stroke="#000000" stroke-width="1"/></g></g></g><g data-channel="color-bar" data-bar-slots="16" data-bar-marker-left="11" data-bar-marker-right="12"><g data-color-bar-rank="0" data-color-bar-band="R"><rect x="1" y="1" width="20" height="75.845" fill="#ff3f2f"/><text x="11" y="73.325" fill="#000000" font-size="16" text-anchor="middle" data-color-bar-letter="true">r</text></g><g data-color-bar-rank="1" data-color-bar-band="G"><rect x="1" y="76.845" width="20" height="55.344" fill="#e7be00"/><text x="11" y="128.668" fill="#000000" font-size="16" text-anchor="middle" data-color-bar-letter="true">g</text></g><g data-color-bar-rank="2" data-color-bar-band="W"><rect x="1" y="132.188" width="20" height="75.845" fill="#ffffff"/><text x="11" y="204.513" fill="#000000" font-size="16" text-anchor="middle" data-color-bar-letter="true">w</text></g><g data-color-bar-rank="3" data-color-bar-band="K"><rect x="1" y="208.033" width="20" height="62.967" fill="#000000"/><text x="11" y="267.48" fill="#ffffff" font-size="16" text-anchor="middle" data-color-bar-letter="true">k</text></g><circle cx="5.6" cy="195.062" r="3.4" fill="#ffffff" stroke="#000000" stroke-width="0.75" data-bar-marker="left"/><circle cx="16.4" cy="211.938" r="3.4" fill="#ffffff" stroke="#000000" stroke-width="0.75" data-bar-marker="right"/></g><g data-channel="label-top"><text x="27" y="16" fill="#666666" font-size="12" dominant-baseline="central"><tspan fill="#a00000" font-weight="bold">fingerprint of </tspan>CESR Ed25519 sig:</text></g><line x1="0" y1="0.5" x2="273" y2="0.5" stroke="#808080" stroke-width="1" shape-rendering="crispEdges"/><line x1="272.5" y1="0" x2="272.5" y2="272" stroke="#808080" stroke-width="1" shape-rendering="crispEdges"/><line x1="0" y1="271.5" x2="273" y2="271.5" stroke="#808080" stroke-width="1" shape-rendering="crispEdges"/><line x1="0.5" y1="0" x2="0.5" y2="272" stroke="#808080" stroke-width="1" shape-rendering="crispEdges"/><line x1="21.5" y1="0" x2="21.5" y2="272" stroke="#808080" stroke-width="1" shape-rendering="crispEdges"/></svg>