<svg width="273.0" height="272.0" viewBox="0 0 273.0 272.0" xmlns="http://www.w3.org/2000/svg" data-entviz-version="v9" data-entviz-lib="0.9.1" data-input-bytes="88" data-cols="4" data-rows="6" data-truncated="true"><defs><clipPath id="grid-clip-069680ac121ada50-4x6"><rect x="27.0" y="26.0" width="240.0" height="240.0"/></clipPath></defs><rect x="0" y="0" width="273.0" height="272.0" fill="#ffffff"/><g data-channel="grid"><rect x="27.0" y="26.0" width="240.0" height="240.0" fill="#2f3fbf"/><g><rect x="69.0" y="26.0" width="6.0" height="10.0" fill="#ff3f2f"/><rect x="81.0" y="26.0" width="6.0" height="10.0" fill="#ff3f2f"/><rect x="81.0" y="36.0" width="6.0" height="10.0" fill="#ff3f2f"/><rect x="81.0" y="56.0" width="6.0" height="10.0" fill="#ff3f2f"/><rect x="63.0" y="56.0" width="6.0" height="10.0" fill="#ff3f2f"/><rect x="51.0" y="56.0" width="6.0" height="10.0" fill="#ff3f2f"/><rect x="45.0" y="56.0" width="6.0" height="10.0" fill="#ff3f2f"/><rect x="153.0" y="26.0" width="6.0" height="10.0" fill="#e7be00"/><rect x="165.0" y="26.0" width="6.0" height="10.0" fill="#e7be00"/><rect x="171.0" y="26.0" width="6.0" height="10.0" fill="#e7be00"/><rect x="201.0" y="26.0" width="6.0" height="10.0" fill="#e7be00"/><rect x="201.0" y="56.0" width="6.0" height="10.0" fill="#e7be00"/><rect x="165.0" y="56.0" width="6.0" height="10.0" fill="#e7be00"/><rect x="159.0" y="56.0" width="6.0" height="10.0" fill="#e7be00"/><rect x="147.0" y="56.0" width="6.0" height="10.0" fill="#e7be00"/><rect x="147.0" y="36.0" width="6.0" height="10.0" fill="#e7be00"/><rect x="237.0" y="26.0" width="6.0" height="10.0" fill="#ffffff"/><rect x="243.0" y="26.0" width="6.0" height="10.0" fill="#ffffff"/><rect x="261.0" y="56.0" width="6.0" height="10.0" fill="#ffffff"/><rect x="249.0" y="56.0" width="6.0" height="10.0" fill="#ffffff"/><rect x="231.0" y="56.0" width="6.0" height="10.0" fill="#ffffff"/><rect x="219.0" y="56.0" width="6.0" height="10.0" fill="#ffffff"/><rect x="213.0" y="56.0" width="6.0" height="10.0" fill="#ffffff"/><rect x="207.0" y="46.0" width="6.0" height="10.0" fill="#ffffff"/><rect x="207.0" y="36.0" width="6.0" height="10.0" fill="#ffffff"/><rect x="51.0" y="66.0" width="6.0" height="10.0" fill="#ff3f2f"/><rect x="69.0" y="66.0" width="6.0" height="10.0" fill="#ff3f2f"/><rect x="81.0" y="76.0" width="6.0" height="10.0" fill="#ff3f2f"/><rect x="63.0" y="96.0" width="6.0" height="10.0" fill="#ff3f2f"/><rect x="51.0" y="96.0" width="6.0" height="10.0" fill="#ff3f2f"/><rect x="39.0" y="96.0" width="6.0" height="10.0" fill="#ff3f2f"/><rect x="27.0" y="96.0" width="6.0" height="10.0" fill="#ff3f2f"/><rect x="27.0" y="86.0" width="6.0" height="10.0" fill="#ff3f2f"/><rect x="87.0" y="66.0" width="6.0" height="10.0" fill="#ff3f2f"/><rect x="93.0" y="66.0" width="6.0" height="10.0" fill="#ff3f2f"/><rect x="99.0" y="66.0" width="6.0" height="10.0" fill="#ff3f2f"/><rect x="105.0" y="66.0" width="6.0" height="10.0" fill="#ff3f2f"/><rect x="141.0" y="66.0" width="6.0" height="10.0" fill="#ff3f2f"/><rect x="141.0" y="76.0" width="6.0" height="10.0" fill="#ff3f2f"/><rect x="141.0" y="86.0" width="6.0" height="10.0" fill="#ff3f2f"/><rect x="141.0" y="96.0" width="6.0" height="10.0" fill="#ff3f2f"/><rect x="117.0" y="96.0" width="6.0" height="10.0" fill="#ff3f2f"/><rect x="99.0" y="96.0" width="6.0" height="10.0" fill="#ff3f2f"/><rect x="93.0" y="96.0" width="6.0" height="10.0" fill="#ff3f2f"/><rect x="87.0" y="76.0" width="6.0" height="10.0" fill="#ff3f2f"/><rect x="219.0" y="66.0" width="6.0" height="10.0" fill="#ffffff"/><rect x="231.0" y="66.0" width="6.0" height="10.0" fill="#ffffff"/><rect x="243.0" y="66.0" width="6.0" height="10.0" fill="#ffffff"/><rect x="255.0" y="66.0" width="6.0" height="10.0" fill="#ffffff"/><rect x="261.0" y="76.0" width="6.0" height="10.0" fill="#ffffff"/><rect x="261.0" y="86.0" width="6.0" height="10.0" fill="#ffffff"/><rect x="255.0" y="96.0" width="6.0" height="10.0" fill="#ffffff"/><rect x="249.0" y="96.0" width="6.0" height="10.0" fill="#ffffff"/><rect x="243.0" y="96.0" width="6.0" height="10.0" fill="#ffffff"/><rect x="237.0" y="96.0" width="6.0" height="10.0" fill="#ffffff"/><rect x="219.0" y="96.0" width="6.0" height="10.0" fill="#ffffff"/><rect x="213.0" y="96.0" width="6.0" height="10.0" fill="#ffffff"/><rect x="207.0" y="96.0" width="6.0" height="10.0" fill="#ffffff"/><rect x="207.0" y="86.0" width="6.0" height="10.0" fill="#ffffff"/><rect x="207.0" y="76.0" width="6.0" height="10.0" fill="#ffffff"/><rect x="87.0" y="106.0" width="6.0" height="10.0" fill="#ffffff"/><rect x="93.0" y="106.0" width="6.0" height="10.0" fill="#ffffff"/><rect x="105.0" y="106.0" width="6.0" height="10.0" fill="#ffffff"/><rect x="129.0" y="106.0" width="6.0" height="10.0" fill="#ffffff"/><rect x="135.0" y="106.0" width="6.0" height="10.0" fill="#ffffff"/><rect x="141.0" y="106.0" width="6.0" height="10.0" fill="#ffffff"/><rect x="141.0" y="116.0" width="6.0" height="10.0" fill="#ffffff"/><rect x="141.0" y="126.0" width="6.0" height="10.0" fill="#ffffff"/><rect x="129.0" y="136.0" width="6.0" height="10.0" fill="#ffffff"/><rect x="117.0" y="136.0" width="6.0" height="10.0" fill="#ffffff"/><rect x="111.0" y="136.0" width="6.0" height="10.0" fill="#ffffff"/><rect x="105.0" y="136.0" width="6.0" height="10.0" fill="#ffffff"/><rect x="93.0" y="136.0" width="6.0" height="10.0" fill="#ffffff"/><rect x="87.0" y="136.0" width="6.0" height="10.0" fill="#ffffff"/><rect x="147.0" y="106.0" width="6.0" height="10.0" fill="#ff3f2f"/><rect x="159.0" y="106.0" width="6.0" height="10.0" fill="#ff3f2f"/><rect x="165.0" y="106.0" width="6.0" height="10.0" fill="#ff3f2f"/><rect x="171.0" y="106.0" width="6.0" height="10.0" fill="#ff3f2f"/><rect x="177.0" y="106.0" width="6.0" height="10.0" fill="#ff3f2f"/><rect x="201.0" y="106.0" width="6.0" height="10.0" fill="#ff3f2f"/><rect x="201.0" y="116.0" width="6.0" height="10.0" fill="#ff3f2f"/><rect x="201.0" y="126.0" width="6.0" height="10.0" fill="#ff3f2f"/><rect x="201.0" y="136.0" width="6.0" height="10.0" fill="#ff3f2f"/><rect x="189.0" y="136.0" width="6.0" height="10.0" fill="#ff3f2f"/><rect x="153.0" y="136.0" width="6.0" height="10.0" fill="#ff3f2f"/><rect x="147.0" y="136.0" width="6.0" height="10.0" fill="#ff3f2f"/><rect x="147.0" y="126.0" width="6.0" height="10.0" fill="#ff3f2f"/><rect x="147.0" y="116.0" width="6.0" height="10.0" fill="#ff3f2f"/><rect x="207.0" y="106.0" width="6.0" height="10.0" fill="#000000"/><rect x="213.0" y="106.0" width="6.0" height="10.0" fill="#000000"/><rect x="231.0" y="106.0" width="6.0" height="10.0" fill="#000000"/><rect x="237.0" y="106.0" width="6.0" height="10.0" fill="#000000"/><rect x="243.0" y="106.0" width="6.0" height="10.0" fill="#000000"/><rect x="261.0" y="106.0" width="6.0" height="10.0" fill="#000000"/><rect x="261.0" y="126.0" width="6.0" height="10.0" fill="#000000"/><rect x="261.0" y="136.0" width="6.0" height="10.0" fill="#000000"/><rect x="255.0" y="136.0" width="6.0" height="10.0" fill="#000000"/><rect x="243.0" y="136.0" width="6.0" height="10.0" fill="#000000"/><rect x="237.0" y="136.0" width="6.0" height="10.0" fill="#000000"/><rect x="231.0" y="136.0" width="6.0" height="10.0" fill="#000000"/><rect x="207.0" y="136.0" width="6.0" height="10.0" fill="#000000"/><rect x="207.0" y="126.0" width="6.0" height="10.0" fill="#000000"/><rect x="27.0" y="146.0" width="6.0" height="10.0" fill="#000000"/><rect x="39.0" y="146.0" width="6.0" height="10.0" fill="#000000"/><rect x="45.0" y="146.0" width="6.0" height="10.0" fill="#000000"/><rect x="57.0" y="146.0" width="6.0" height="10.0" fill="#000000"/><rect x="69.0" y="146.0" width="6.0" height="10.0" fill="#000000"/><rect x="81.0" y="146.0" width="6.0" height="10.0" fill="#000000"/><rect x="81.0" y="166.0" width="6.0" height="10.0" fill="#000000"/><rect x="75.0" y="176.0" width="6.0" height="10.0" fill="#000000"/><rect x="45.0" y="176.0" width="6.0" height="10.0" fill="#000000"/><rect x="33.0" y="176.0" width="6.0" height="10.0" fill="#000000"/><rect x="27.0" y="176.0" width="6.0" height="10.0" fill="#000000"/><rect x="27.0" y="166.0" width="6.0" height="10.0" fill="#000000"/><rect x="27.0" y="156.0" width="6.0" height="10.0" fill="#000000"/><rect x="87.0" y="146.0" width="6.0" height="10.0" fill="#000000"/><rect x="105.0" y="146.0" width="6.0" height="10.0" fill="#000000"/><rect x="111.0" y="146.0" width="6.0" height="10.0" fill="#000000"/><rect x="135.0" y="146.0" width="6.0" height="10.0" fill="#000000"/><rect x="141.0" y="146.0" width="6.0" height="10.0" fill="#000000"/><rect x="141.0" y="156.0" width="6.0" height="10.0" fill="#000000"/><rect x="141.0" y="176.0" width="6.0" height="10.0" fill="#000000"/><rect x="135.0" y="176.0" width="6.0" height="10.0" fill="#000000"/><rect x="123.0" y="176.0" width="6.0" height="10.0" fill="#000000"/><rect x="117.0" y="176.0" width="6.0" height="10.0" fill="#000000"/><rect x="87.0" y="176.0" width="6.0" height="10.0" fill="#000000"/><rect x="87.0" y="156.0" width="6.0" height="10.0" fill="#000000"/><rect x="153.0" y="146.0" width="6.0" height="10.0" fill="#000000"/><rect x="159.0" y="146.0" width="6.0" height="10.0" fill="#000000"/><rect x="165.0" y="146.0" width="6.0" height="10.0" fill="#000000"/><rect x="171.0" y="146.0" width="6.0" height="10.0" fill="#000000"/><rect x="177.0" y="146.0" width="6.0" height="10.0" fill="#000000"/><rect x="189.0" y="146.0" width="6.0" height="10.0" fill="#000000"/><rect x="195.0" y="146.0" width="6.0" height="10.0" fill="#000000"/><rect x="201.0" y="146.0" width="6.0" height="10.0" fill="#000000"/><rect x="201.0" y="176.0" width="6.0" height="10.0" fill="#000000"/><rect x="183.0" y="176.0" width="6.0" height="10.0" fill="#000000"/><rect x="147.0" y="176.0" width="6.0" height="10.0" fill="#000000"/><rect x="207.0" y="146.0" width="6.0" height="10.0" fill="#e7be00"/><rect x="213.0" y="146.0" width="6.0" height="10.0" fill="#e7be00"/><rect x="243.0" y="146.0" width="6.0" height="10.0" fill="#e7be00"/><rect x="249.0" y="146.0" width="6.0" height="10.0" fill="#e7be00"/><rect x="255.0" y="146.0" width="6.0" height="10.0" fill="#e7be00"/><rect x="261.0" y="146.0" width="6.0" height="10.0" fill="#e7be00"/><rect x="261.0" y="156.0" width="6.0" height="10.0" fill="#e7be00"/><rect x="261.0" y="166.0" width="6.0" height="10.0" fill="#e7be00"/><rect x="261.0" y="176.0" width="6.0" height="10.0" fill="#e7be00"/><rect x="255.0" y="176.0" width="6.0" height="10.0" fill="#e7be00"/><rect x="243.0" y="176.0" width="6.0" height="10.0" fill="#e7be00"/><rect x="237.0" y="176.0" width="6.0" height="10.0" fill="#e7be00"/><rect x="219.0" y="176.0" width="6.0" height="10.0" fill="#e7be00"/><rect x="213.0" y="176.0" width="6.0" height="10.0" fill="#e7be00"/><rect x="33.0" y="186.0" width="6.0" height="10.0" fill="#ff3f2f"/><rect x="45.0" y="186.0" width="6.0" height="10.0" fill="#ff3f2f"/><rect x="51.0" y="186.0" width="6.0" height="10.0" fill="#ff3f2f"/><rect x="57.0" y="186.0" width="6.0" height="10.0" fill="#ff3f2f"/><rect x="81.0" y="206.0" width="6.0" height="10.0" fill="#ff3f2f"/><rect x="57.0" y="216.0" width="6.0" height="10.0" fill="#ff3f2f"/><rect x="51.0" y="216.0" width="6.0" height="10.0" fill="#ff3f2f"/><rect x="45.0" y="216.0" width="6.0" height="10.0" fill="#ff3f2f"/><rect x="39.0" y="216.0" width="6.0" height="10.0" fill="#ff3f2f"/><rect x="33.0" y="216.0" width="6.0" height="10.0" fill="#ff3f2f"/><rect x="27.0" y="206.0" width="6.0" height="10.0" fill="#ff3f2f"/><rect x="27.0" y="196.0" width="6.0" height="10.0" fill="#ff3f2f"/><rect x="87.0" y="186.0" width="6.0" height="10.0" fill="#ff3f2f"/><rect x="99.0" y="186.0" width="6.0" height="10.0" fill="#ff3f2f"/><rect x="111.0" y="186.0" width="6.0" height="10.0" fill="#ff3f2f"/><rect x="117.0" y="186.0" width="6.0" height="10.0" fill="#ff3f2f"/><rect x="123.0" y="186.0" width="6.0" height="10.0" fill="#ff3f2f"/><rect x="135.0" y="186.0" width="6.0" height="10.0" fill="#ff3f2f"/><rect x="141.0" y="186.0" width="6.0" height="10.0" fill="#ff3f2f"/><rect x="141.0" y="206.0" width="6.0" height="10.0" fill="#ff3f2f"/><rect x="141.0" y="216.0" width="6.0" height="10.0" fill="#ff3f2f"/><rect x="135.0" y="216.0" width="6.0" height="10.0" fill="#ff3f2f"/><rect x="129.0" y="216.0" width="6.0" height="10.0" fill="#ff3f2f"/><rect x="111.0" y="216.0" width="6.0" height="10.0" fill="#ff3f2f"/><rect x="105.0" y="216.0" width="6.0" height="10.0" fill="#ff3f2f"/><rect x="99.0" y="216.0" width="6.0" height="10.0" fill="#ff3f2f"/><rect x="93.0" y="216.0" width="6.0" height="10.0" fill="#ff3f2f"/><rect x="87.0" y="206.0" width="6.0" height="10.0" fill="#ff3f2f"/><rect x="153.0" y="186.0" width="6.0" height="10.0" fill="#e7be00"/><rect x="159.0" y="186.0" width="6.0" height="10.0" fill="#e7be00"/><rect x="171.0" y="186.0" width="6.0" height="10.0" fill="#e7be00"/><rect x="177.0" y="186.0" width="6.0" height="10.0" fill="#e7be00"/><rect x="183.0" y="186.0" width="6.0" height="10.0" fill="#e7be00"/><rect x="201.0" y="186.0" width="6.0" height="10.0" fill="#e7be00"/><rect x="201.0" y="206.0" width="6.0" height="10.0" fill="#e7be00"/><rect x="201.0" y="216.0" width="6.0" height="10.0" fill="#e7be00"/><rect x="189.0" y="216.0" width="6.0" height="10.0" fill="#e7be00"/><rect x="177.0" y="216.0" width="6.0" height="10.0" fill="#e7be00"/><rect x="171.0" y="216.0" width="6.0" height="10.0" fill="#e7be00"/><rect x="159.0" y="216.0" width="6.0" height="10.0" fill="#e7be00"/><rect x="153.0" y="216.0" width="6.0" height="10.0" fill="#e7be00"/><rect x="147.0" y="216.0" width="6.0" height="10.0" fill="#e7be00"/><rect x="147.0" y="206.0" width="6.0" height="10.0" fill="#e7be00"/><rect x="225.0" y="186.0" width="6.0" height="10.0" fill="#ffffff"/><rect x="261.0" y="196.0" width="6.0" height="10.0" fill="#ffffff"/><rect x="261.0" y="216.0" width="6.0" height="10.0" fill="#ffffff"/><rect x="243.0" y="216.0" width="6.0" height="10.0" fill="#ffffff"/><rect x="237.0" y="216.0" width="6.0" height="10.0" fill="#ffffff"/><rect x="231.0" y="216.0" width="6.0" height="10.0" fill="#ffffff"/><rect x="207.0" y="206.0" width="6.0" height="10.0" fill="#ffffff"/><rect x="33.0" y="226.0" width="6.0" height="10.0" fill="#ff3f2f"/><rect x="39.0" y="226.0" width="6.0" height="10.0" fill="#ff3f2f"/><rect x="51.0" y="226.0" width="6.0" height="10.0" fill="#ff3f2f"/><rect x="75.0" y="226.0" width="6.0" height="10.0" fill="#ff3f2f"/><rect x="81.0" y="226.0" width="6.0" height="10.0" fill="#ff3f2f"/><rect x="81.0" y="256.0" width="6.0" height="10.0" fill="#ff3f2f"/><rect x="75.0" y="256.0" width="6.0" height="10.0" fill="#ff3f2f"/><rect x="69.0" y="256.0" width="6.0" height="10.0" fill="#ff3f2f"/><rect x="63.0" y="256.0" width="6.0" height="10.0" fill="#ff3f2f"/><rect x="51.0" y="256.0" width="6.0" height="10.0" fill="#ff3f2f"/><rect x="33.0" y="256.0" width="6.0" height="10.0" fill="#ff3f2f"/><rect x="27.0" y="256.0" width="6.0" height="10.0" fill="#ff3f2f"/><rect x="27.0" y="246.0" width="6.0" height="10.0" fill="#ff3f2f"/><rect x="99.0" y="226.0" width="6.0" height="10.0" fill="#ff3f2f"/><rect x="129.0" y="226.0" width="6.0" height="10.0" fill="#ff3f2f"/><rect x="141.0" y="236.0" width="6.0" height="10.0" fill="#ff3f2f"/><rect x="141.0" y="246.0" width="6.0" height="10.0" fill="#ff3f2f"/><rect x="135.0" y="256.0" width="6.0" height="10.0" fill="#ff3f2f"/><rect x="129.0" y="256.0" width="6.0" height="10.0" fill="#ff3f2f"/><rect x="123.0" y="256.0" width="6.0" height="10.0" fill="#ff3f2f"/><rect x="117.0" y="256.0" width="6.0" height="10.0" fill="#ff3f2f"/><rect x="147.0" y="226.0" width="6.0" height="10.0" fill="#ffffff"/><rect x="153.0" y="226.0" width="6.0" height="10.0" fill="#ffffff"/><rect x="165.0" y="226.0" width="6.0" height="10.0" fill="#ffffff"/><rect x="171.0" y="226.0" width="6.0" height="10.0" fill="#ffffff"/><rect x="201.0" y="256.0" width="6.0" height="10.0" fill="#ffffff"/><rect x="195.0" y="256.0" width="6.0" height="10.0" fill="#ffffff"/><rect x="189.0" y="256.0" width="6.0" height="10.0" fill="#ffffff"/><rect x="183.0" y="256.0" width="6.0" height="10.0" fill="#ffffff"/><rect x="171.0" y="256.0" width="6.0" height="10.0" fill="#ffffff"/><rect x="165.0" y="256.0" width="6.0" height="10.0" fill="#ffffff"/><rect x="159.0" y="256.0" width="6.0" height="10.0" fill="#ffffff"/><rect x="153.0" y="256.0" width="6.0" height="10.0" fill="#ffffff"/><rect x="147.0" y="236.0" width="6.0" height="10.0" fill="#ffffff"/></g><g clip-path="url(#grid-clip-069680ac121ada50-4x6)" data-channel="ellipse" data-ellipse-anchor-x="207.0" data-ellipse-anchor-y="226.0" data-ellipse-rx="59.19594580712433" data-ellipse-ry="97.94238306269662" data-ellipse-rotation-deg="96.0"><ellipse cx="207.0" cy="226.0" rx="59.19594580712433" ry="97.94238306269662" transform="rotate(96.0 207.0 226.0)" fill="#ffffff" stroke="#ffffff" fill-opacity="0.35" stroke-opacity="0.45" stroke-width="2.0"/></g><g><g data-channel="cell" data-cell-index="0" data-cell-row="0" data-cell-col="0" data-cell-quartile="2"><rect x="33.0" y="36.0" width="48.0" height="20.0" fill="#f012d0"/><text x="57.0" y="46.0" fill="#000000" style="font-family: &quot;JetBrains Mono&quot;, &quot;Menlo&quot;, &quot;Consolas&quot;, &quot;DejaVu Sans Mono&quot;, &quot;Liberation Mono&quot;, &quot;Roboto Mono&quot;, &quot;Noto Sans Mono&quot;, monospace; font-size: 16.0px;" text-anchor="middle" dominant-baseline="central">0BLw</text><polygon points="81.0,36.0 71.0,36.0 81.0,46.0" fill="#000000"/></g><g data-channel="cell" data-cell-index="1" data-cell-row="0" data-cell-col="1" data-cell-blank="true" data-cell-blank-map="true"><rect x="93.0" y="36.0" width="48.0" height="20.0" rx="10.0" ry="10.0" fill="#ffffff" stroke="#000000" stroke-width="1"/><circle cx="111.0" cy="54.333333333333336" r="3.5" fill="#1d4ed8" data-blank-map-min="5,1"/><path d="M 130.8,41.0 H 139.2 M 135.0,36.8 V 45.2" fill="none" stroke="#d62828" stroke-width="1.9250000000000003" stroke-linecap="butt" data-blank-map-max="1,3"/></g><g data-channel="cell" data-cell-index="2" data-cell-row="0" data-cell-col="2" data-cell-quartile="4"><rect x="153.0" y="36.0" width="48.0" height="20.0" fill="#c4a757"/><text x="177.0" y="46.0" fill="#000000" style="font-family: &quot;JetBrains Mono&quot;, &quot;Menlo&quot;, &quot;Consolas&quot;, &quot;DejaVu Sans Mono&quot;, &quot;Liberation Mono&quot;, &quot;Roboto Mono&quot;, &quot;Noto Sans Mono&quot;, monospace; font-size: 16.0px;" text-anchor="middle" dominant-baseline="central">V6fE</text><polygon points="153.0,56.0 153.0,46.0 163.0,56.0" fill="#000000"/></g><g data-channel="cell" data-cell-index="3" data-cell-row="0" data-cell-col="3"><rect x="213.0" y="36.0" width="48.0" height="20.0" fill="#d8eca4"/><text x="237.0" y="46.0" fill="#000000" style="font-family: &quot;JetBrains Mono&quot;, &quot;Menlo&quot;, &quot;Consolas&quot;, &quot;DejaVu Sans Mono&quot;, &quot;Liberation Mono&quot;, &quot;Roboto Mono&quot;, &quot;Noto Sans Mono&quot;, monospace; font-size: 16.0px;" text-anchor="middle" dominant-baseline="central">pOzY</text></g><g data-channel="cell" data-cell-index="4" data-cell-row="1" data-cell-col="0"><rect x="33.0" y="76.0" width="48.0" height="20.0" fill="#ec21f6"/><text x="57.0" y="86.0" fill="#000000" style="font-family: &quot;JetBrains Mono&quot;, &quot;Menlo&quot;, &quot;Consolas&quot;, &quot;DejaVu Sans Mono&quot;, &quot;Liberation Mono&quot;, &quot;Roboto Mono&quot;, &quot;Noto Sans Mono&quot;, monospace; font-size: 16.0px;" text-anchor="middle" dominant-baseline="central">9iHs</text></g><g data-channel="cell" data-cell-index="5" data-cell-row="1" data-cell-col="1" data-cell-quartile="3"><rect x="93.0" y="76.0" width="48.0" height="20.0" fill="#c06647"/><text x="117.0" y="86.0" fill="#000000" style="font-family: &quot;JetBrains Mono&quot;, &quot;Menlo&quot;, &quot;Consolas&quot;, &quot;DejaVu Sans Mono&quot;, &quot;Liberation Mono&quot;, &quot;Roboto Mono&quot;, &quot;Noto Sans Mono&quot;, monospace; font-size: 16.0px;" text-anchor="middle" dominant-baseline="central">R2bA</text><polygon points="141.0,96.0 141.0,86.0 131.0,96.0" fill="#000000"/></g><g data-channel="cell" data-cell-index="6" data-cell-row="1" data-cell-col="2" data-cell-blank="true"><rect x="153.0" y="76.0" width="48.0" height="20.0" rx="10.0" ry="10.0" fill="none" stroke="#000000" stroke-width="1"/></g><g data-channel="cell" data-cell-index="7" data-cell-row="1" data-cell-col="3"><rect x="213.0" y="76.0" width="48.0" height="20.0" fill="#d4ab94"/><text x="237.0" y="86.0" fill="#000000" style="font-family: &quot;JetBrains Mono&quot;, &quot;Menlo&quot;, &quot;Consolas&quot;, &quot;DejaVu Sans Mono&quot;, &quot;Liberation Mono&quot;, &quot;Roboto Mono&quot;, &quot;Noto Sans Mono&quot;, monospace; font-size: 16.0px;" text-anchor="middle" dominant-baseline="central">lKvU</text></g><g data-channel="cell" data-cell-index="8" data-cell-row="2" data-cell-col="0" data-cell-blank="true"><rect x="33.0" y="116.0" width="48.0" height="20.0" rx="10.0" ry="10.0" fill="none" stroke="#000000" stroke-width="1"/></g><g data-channel="cell" data-cell-index="9" data-cell-row="2" data-cell-col="1"><rect x="93.0" y="116.0" width="48.0" height="20.0" fill="#e8e0e5"/><text x="117.0" y="126.0" fill="#000000" style="font-family: &quot;JetBrains Mono&quot;, &quot;Menlo&quot;, &quot;Consolas&quot;, &quot;DejaVu Sans Mono&quot;, &quot;Liberation Mono&quot;, &quot;Roboto Mono&quot;, &quot;Noto Sans Mono&quot;, monospace; font-size: 16.0px;" text-anchor="middle" dominant-baseline="central">5eDo</text></g><g data-channel="cell" data-cell-index="10" data-cell-row="2" data-cell-col="2"><rect x="153.0" y="116.0" width="48.0" height="20.0" fill="#fc2537"/><text x="177.0" y="126.0" fill="#000000" style="font-family: &quot;JetBrains Mono&quot;, &quot;Menlo&quot;, &quot;Consolas&quot;, &quot;DejaVu Sans Mono&quot;, &quot;Liberation Mono&quot;, &quot;Roboto Mono&quot;, &quot;Noto Sans Mono&quot;, monospace; font-size: 16.0px;" text-anchor="middle" dominant-baseline="central">NyX8</text></g><g data-channel="cell" data-cell-index="11" data-cell-row="2" data-cell-col="3" data-cell-fingerprint="true"><rect x="213.0" y="116.0" width="48.0" height="20.0" fill="#2f3fbf"/><rect x="213.5" y="116.5" width="47.0" height="19.0" fill="none" stroke="#ffffff" stroke-width="1"/><text x="237.0" y="126.0" fill="#ffffff" style="font-family: &quot;JetBrains Mono&quot;, &quot;Menlo&quot;, &quot;Consolas&quot;, &quot;DejaVu Sans Mono&quot;, &quot;Liberation Mono&quot;, &quot;Roboto Mono&quot;, &quot;Noto Sans Mono&quot;, monospace; font-size: 13.333333333333334px;" text-anchor="middle" dominant-baseline="central">33014</text></g><g data-channel="cell" data-cell-index="12" data-cell-row="3" data-cell-col="0" data-cell-fingerprint="true"><rect x="33.0" y="156.0" width="48.0" height="20.0" fill="#2f3fbf"/><rect x="33.5" y="156.5" width="47.0" height="19.0" fill="none" stroke="#ffffff" stroke-width="1"/><text x="57.0" y="166.0" fill="#ffffff" style="font-family: &quot;JetBrains Mono&quot;, &quot;Menlo&quot;, &quot;Consolas&quot;, &quot;DejaVu Sans Mono&quot;, &quot;Liberation Mono&quot;, &quot;Roboto Mono&quot;, &quot;Noto Sans Mono&quot;, monospace; font-size: 13.333333333333334px;" text-anchor="middle" dominant-baseline="central">1fv0j</text></g><g data-channel="cell" data-cell-index="13" data-cell-row="3" data-cell-col="1" data-cell-fingerprint="true"><rect x="93.0" y="156.0" width="48.0" height="20.0" fill="#2f3fbf"/><rect x="93.5" y="156.5" width="47.0" height="19.0" fill="none" stroke="#ffffff" stroke-width="1"/><text x="117.0" y="166.0" fill="#ffffff" style="font-family: &quot;JetBrains Mono&quot;, &quot;Menlo&quot;, &quot;Consolas&quot;, &quot;DejaVu Sans Mono&quot;, &quot;Liberation Mono&quot;, &quot;Roboto Mono&quot;, &quot;Noto Sans Mono&quot;, monospace; font-size: 13.333333333333334px;" text-anchor="middle" dominant-baseline="central">3t6xg</text></g><g data-channel="cell" data-cell-index="14" data-cell-row="3" data-cell-col="2" data-cell-fingerprint="true" data-cell-quartile="1"><rect x="153.0" y="156.0" width="48.0" height="20.0" fill="#2f3fbf"/><rect x="153.5" y="156.5" width="47.0" height="19.0" fill="none" stroke="#ffffff" stroke-width="1"/><text x="177.0" y="166.0" fill="#ffffff" style="font-family: &quot;JetBrains Mono&quot;, &quot;Menlo&quot;, &quot;Consolas&quot;, &quot;DejaVu Sans Mono&quot;, &quot;Liberation Mono&quot;, &quot;Roboto Mono&quot;, &quot;Noto Sans Mono&quot;, monospace; font-size: 13.333333333333334px;" text-anchor="middle" dominant-baseline="central">2v2h2</text><polygon points="153.0,156.0 163.0,156.0 153.0,166.0" fill="#ffffff"/></g><g data-channel="cell" data-cell-index="15" data-cell-row="3" data-cell-col="3"><rect x="213.0" y="156.0" width="48.0" height="20.0" fill="#c8e867"/><text x="237.0" y="166.0" fill="#000000" style="font-family: &quot;JetBrains Mono&quot;, &quot;Menlo&quot;, &quot;Consolas&quot;, &quot;DejaVu Sans Mono&quot;, &quot;Liberation Mono&quot;, &quot;Roboto Mono&quot;, &quot;Noto Sans Mono&quot;, monospace; font-size: 16.0px;" text-anchor="middle" dominant-baseline="central">Z-jI</text></g><g data-channel="cell" data-cell-index="16" data-cell-row="4" data-cell-col="0"><rect x="33.0" y="196.0" width="48.0" height="20.0" fill="#dc2db5"/><text x="57.0" y="206.0" fill="#000000" style="font-family: &quot;JetBrains Mono&quot;, &quot;Menlo&quot;, &quot;Consolas&quot;, &quot;DejaVu Sans Mono&quot;, &quot;Liberation Mono&quot;, &quot;Roboto Mono&quot;, &quot;Noto Sans Mono&quot;, monospace; font-size: 16.0px;" text-anchor="middle" dominant-baseline="central">tS3c</text></g><g data-channel="cell" data-cell-index="17" data-cell-row="4" data-cell-col="1"><rect x="93.0" y="196.0" width="48.0" height="20.0" fill="#f06206"/><text x="117.0" y="206.0" fill="#000000" style="font-family: &quot;JetBrains Mono&quot;, &quot;Menlo&quot;, &quot;Consolas&quot;, &quot;DejaVu Sans Mono&quot;, &quot;Liberation Mono&quot;, &quot;Roboto Mono&quot;, &quot;Noto Sans Mono&quot;, monospace; font-size: 16.0px;" text-anchor="middle" dominant-baseline="central">BmLw</text></g><g data-channel="cell" data-cell-index="18" data-cell-row="4" data-cell-col="2"><rect x="153.0" y="196.0" width="48.0" height="20.0" fill="#c4a757"/><text x="177.0" y="206.0" fill="#000000" style="font-family: &quot;JetBrains Mono&quot;, &quot;Menlo&quot;, &quot;Consolas&quot;, &quot;DejaVu Sans Mono&quot;, &quot;Liberation Mono&quot;, &quot;Roboto Mono&quot;, &quot;Noto Sans Mono&quot;, monospace; font-size: 16.0px;" text-anchor="middle" dominant-baseline="central">V6fE</text></g><g data-channel="cell" data-cell-index="19" data-cell-row="4" data-cell-col="3"><rect x="213.0" y="196.0" width="48.0" height="20.0" fill="#d8eca4"/><text x="237.0" y="206.0" fill="#000000" style="font-family: &quot;JetBrains Mono&quot;, &quot;Menlo&quot;, &quot;Consolas&quot;, &quot;DejaVu Sans Mono&quot;, &quot;Liberation Mono&quot;, &quot;Roboto Mono&quot;, &quot;Noto Sans Mono&quot;, monospace; font-size: 16.0px;" text-anchor="middle" dominant-baseline="central">pOzY</text></g><g data-channel="cell" data-cell-index="20" data-cell-row="5" data-cell-col="0"><rect x="33.0" y="236.0" width="48.0" height="20.0" fill="#ec21f6"/><text x="57.0" y="246.0" fill="#000000" style="font-family: &quot;JetBrains Mono&quot;, &quot;Menlo&quot;, &quot;Consolas&quot;, &quot;DejaVu Sans Mono&quot;, &quot;Liberation Mono&quot;, &quot;Roboto Mono&quot;, &quot;Noto Sans Mono&quot;, monospace; font-size: 16.0px;" text-anchor="middle" dominant-baseline="central">9iHs</text></g><g data-channel="cell" data-cell-index="21" data-cell-row="5" data-cell-col="1"><rect x="93.0" y="236.0" width="48.0" height="20.0" fill="#c06647"/><text x="117.0" y="246.0" fill="#000000" style="font-family: &quot;JetBrains Mono&quot;, &quot;Menlo&quot;, &quot;Consolas&quot;, &quot;DejaVu Sans Mono&quot;, &quot;Liberation Mono&quot;, &quot;Roboto Mono&quot;, &quot;Noto Sans Mono&quot;, monospace; font-size: 16.0px;" text-anchor="middle" dominant-baseline="central">R2bA</text></g><g data-channel="cell" data-cell-index="22" data-cell-row="5" data-cell-col="2"><rect x="153.0" y="236.0" width="48.0" height="20.0" fill="#d4ab94"/><text x="177.0" y="246.0" fill="#000000" style="font-family: &quot;JetBrains Mono&quot;, &quot;Menlo&quot;, &quot;Consolas&quot;, &quot;DejaVu Sans Mono&quot;, &quot;Liberation Mono&quot;, &quot;Roboto Mono&quot;, &quot;Noto Sans Mono&quot;, monospace; font-size: 16.0px;" text-anchor="middle" dominant-baseline="central">lKvU</text></g><g data-channel="cell" data-cell-index="23" data-cell-row="5" data-cell-col="3" data-cell-blank="true"><rect x="213.0" y="236.0" width="48.0" height="20.0" rx="10.0" ry="10.0" fill="none" stroke="#000000" stroke-width="1"/></g></g></g><g data-channel="color-bar" data-bar-slots="16" data-bar-marker-square="11" data-bar-marker-triangle="12"><g data-color-bar-rank="0" data-color-bar-band="R"><rect x="1" y="1" width="20.0" height="75.84470211629686" fill="#ff3f2f"/><text x="11.0" y="73.32470211629686" fill="#000000" style="font-family: &quot;JetBrains Mono&quot;, &quot;Menlo&quot;, &quot;Consolas&quot;, &quot;DejaVu Sans Mono&quot;, &quot;Liberation Mono&quot;, &quot;Roboto Mono&quot;, &quot;Noto Sans Mono&quot;, monospace; font-size: 16.0px;" text-anchor="middle" data-color-bar-letter="true">r</text></g><g data-color-bar-rank="1" data-color-bar-band="G"><rect x="1" y="76.84470211629686" width="20.0" height="55.34378376566661" fill="#e7be00"/><text x="11.0" y="128.66848588196345" fill="#000000" style="font-family: &quot;JetBrains Mono&quot;, &quot;Menlo&quot;, &quot;Consolas&quot;, &quot;DejaVu Sans Mono&quot;, &quot;Liberation Mono&quot;, &quot;Roboto Mono&quot;, &quot;Noto Sans Mono&quot;, monospace; font-size: 16.0px;" text-anchor="middle" data-color-bar-letter="true">g</text></g><g data-color-bar-rank="2" data-color-bar-band="W"><rect x="1" y="132.18848588196346" width="20.0" height="75.84470211629686" fill="#ffffff"/><text x="11.0" y="204.5131879982603" fill="#000000" style="font-family: &quot;JetBrains Mono&quot;, &quot;Menlo&quot;, &quot;Consolas&quot;, &quot;DejaVu Sans Mono&quot;, &quot;Liberation Mono&quot;, &quot;Roboto Mono&quot;, &quot;Noto Sans Mono&quot;, monospace; font-size: 16.0px;" text-anchor="middle" data-color-bar-letter="true">w</text></g><g data-color-bar-rank="3" data-color-bar-band="K"><rect x="1" y="208.0331879982603" width="20.0" height="62.9668120017397" fill="#000000"/><text x="11.0" y="267.48" fill="#ffffff" style="font-family: &quot;JetBrains Mono&quot;, &quot;Menlo&quot;, &quot;Consolas&quot;, &quot;DejaVu Sans Mono&quot;, &quot;Liberation Mono&quot;, &quot;Roboto Mono&quot;, &quot;Noto Sans Mono&quot;, monospace; font-size: 16.0px;" text-anchor="middle" data-color-bar-letter="true">k</text></g><rect x="2.1999999999999997" y="192.2625" width="5.6000000000000005" height="5.6000000000000005" fill="#ffffff" stroke="#000000" stroke-width="0.75" data-bar-marker="square"/><polygon points="17.0,209.1375 14.2,214.7375 19.8,214.7375" fill="#ffffff" stroke="#000000" stroke-width="0.75" data-bar-marker="triangle"/></g><g data-channel="label-top"><text x="27.0" y="16.0" fill="#666666" style="font-family: &quot;JetBrains Mono&quot;, &quot;Menlo&quot;, &quot;Consolas&quot;, &quot;DejaVu Sans Mono&quot;, &quot;Liberation Mono&quot;, &quot;Roboto Mono&quot;, &quot;Noto Sans Mono&quot;, monospace; font-size: 12.0px;" dominant-baseline="central"><tspan fill="#a00000" font-weight="bold">fingerprint of </tspan>CESR Ed25519 sig:</text></g><line x1="0" y1="0.5" x2="273.0" y2="0.5" stroke="#808080" stroke-width="1" shape-rendering="crispEdges"/><line x1="272.5" y1="0" x2="272.5" y2="272.0" stroke="#808080" stroke-width="1" shape-rendering="crispEdges"/><line x1="0" y1="271.5" x2="273.0" y2="271.5" stroke="#808080" stroke-width="1" shape-rendering="crispEdges"/><line x1="0.5" y1="0" x2="0.5" y2="272.0" stroke="#808080" stroke-width="1" shape-rendering="crispEdges"/><line x1="21.5" y1="0" x2="21.5" y2="272.0" stroke="#808080" stroke-width="1" shape-rendering="crispEdges"/></svg>