<svg width="275" height="274" viewBox="0 0 275 274" xmlns="http://www.w3.org/2000/svg" font-family="&quot;JetBrains Mono&quot;, &quot;Menlo&quot;, &quot;Consolas&quot;, &quot;DejaVu Sans Mono&quot;, &quot;Liberation Mono&quot;, &quot;Roboto Mono&quot;, &quot;Noto Sans Mono&quot;, monospace" data-entviz-version="v15" data-entviz-lib="0.15.2" data-input-bytes="88" data-cols="4" data-rows="6" data-truncated="true" data-encoding="base64url" data-scheme="cesr" data-role="signature" data-size-basis="decoded" data-entropy-type="cesr" data-size-bits="528" data-qualifiers="{&quot;algorithm&quot;:&quot;Ed25519 idx sig&quot;}" data-parts="[{&quot;text&quot;:&quot;ABCfhtCBiEx9ZZov6qDFWtAVn4bQgYhMfWWaL-qgxVrQFZ-G0IGITH1lmi_qoMVa0BWfhtCBiEx9ZZov6qDFWtAV&quot;,&quot;bind&quot;:&quot;core&quot;}]"><defs><clipPath id="grid-clip-07f72e85e70f0325-4x6"><rect x="28" y="27" width="240" height="240"/></clipPath></defs><rect x="1" y="1" width="273" height="272" fill="#ffffff"/><g data-channel="grid"><rect x="28" y="27" width="240" height="240" fill="#ff3f2f"/><g><path fill="#2f3fbf" d="M34 27h6v10h-6zM40 27h6v10h-6zM46 27h6v10h-6zM58 27h6v10h-6zM76 27h6v10h-6zM82 27h6v10h-6zM82 37h6v10h-6zM82 57h6v10h-6zM76 57h6v10h-6zM70 57h6v10h-6zM64 57h6v10h-6zM58 57h6v10h-6zM52 57h6v10h-6zM46 57h6v10h-6z"/><path fill="#e7be00" d="M88 27h6v10h-6zM94 27h6v10h-6zM100 27h6v10h-6zM106 27h6v10h-6zM136 27h6v10h-6zM142 27h6v10h-6zM142 37h6v10h-6zM136 57h6v10h-6zM130 57h6v10h-6zM124 57h6v10h-6zM118 57h6v10h-6zM106 57h6v10h-6zM88 37h6v10h-6z"/><path fill="#2f3fbf" d="M148 27h6v10h-6zM172 27h6v10h-6zM178 27h6v10h-6zM184 27h6v10h-6zM190 27h6v10h-6zM196 27h6v10h-6zM202 37h6v10h-6zM196 57h6v10h-6zM178 57h6v10h-6zM172 57h6v10h-6z"/><path fill="#2f3fbf" d="M208 27h6v10h-6zM214 27h6v10h-6zM226 27h6v10h-6zM232 27h6v10h-6zM244 27h6v10h-6zM262 27h6v10h-6zM262 47h6v10h-6zM262 57h6v10h-6zM256 57h6v10h-6zM244 57h6v10h-6zM232 57h6v10h-6zM226 57h6v10h-6zM208 47h6v10h-6z"/><path fill="#ffffff" d="M34 67h6v10h-6zM46 67h6v10h-6zM52 67h6v10h-6zM58 67h6v10h-6zM64 67h6v10h-6zM70 67h6v10h-6zM82 67h6v10h-6zM82 87h6v10h-6zM82 97h6v10h-6zM76 97h6v10h-6zM64 97h6v10h-6zM58 97h6v10h-6zM46 97h6v10h-6zM34 97h6v10h-6zM28 97h6v10h-6zM28 87h6v10h-6z"/><path fill="#e7be00" d="M88 67h6v10h-6zM106 67h6v10h-6zM112 67h6v10h-6zM118 67h6v10h-6zM124 67h6v10h-6zM130 67h6v10h-6zM136 67h6v10h-6zM142 87h6v10h-6zM142 97h6v10h-6zM130 97h6v10h-6zM118 97h6v10h-6zM106 97h6v10h-6zM88 87h6v10h-6z"/><path fill="#2f3fbf" d="M148 67h6v10h-6zM154 67h6v10h-6zM160 67h6v10h-6zM172 67h6v10h-6zM184 67h6v10h-6zM190 67h6v10h-6zM196 97h6v10h-6zM184 97h6v10h-6zM172 97h6v10h-6zM166 97h6v10h-6zM148 97h6v10h-6zM148 87h6v10h-6zM148 77h6v10h-6z"/><path fill="#2f3fbf" d="M214 67h6v10h-6zM220 67h6v10h-6zM226 67h6v10h-6zM256 67h6v10h-6zM262 67h6v10h-6zM262 87h6v10h-6zM262 97h6v10h-6zM250 97h6v10h-6zM238 97h6v10h-6zM232 97h6v10h-6zM226 97h6v10h-6zM214 97h6v10h-6zM208 87h6v10h-6z"/><path fill="#e7be00" d="M100 107h6v10h-6zM130 107h6v10h-6zM136 107h6v10h-6zM142 107h6v10h-6zM142 117h6v10h-6zM142 127h6v10h-6zM130 137h6v10h-6zM124 137h6v10h-6zM118 137h6v10h-6zM100 137h6v10h-6zM94 137h6v10h-6zM88 137h6v10h-6zM88 127h6v10h-6zM88 117h6v10h-6z"/><path fill="#000000" d="M148 107h6v10h-6zM154 107h6v10h-6zM190 107h6v10h-6zM196 107h6v10h-6zM202 117h6v10h-6zM202 127h6v10h-6zM196 137h6v10h-6zM190 137h6v10h-6zM184 137h6v10h-6zM172 137h6v10h-6zM160 137h6v10h-6zM154 137h6v10h-6zM148 137h6v10h-6zM148 127h6v10h-6z"/><path fill="#e7be00" d="M220 107h6v10h-6zM226 107h6v10h-6zM232 107h6v10h-6zM244 107h6v10h-6zM250 107h6v10h-6zM256 107h6v10h-6zM262 107h6v10h-6zM262 137h6v10h-6zM256 137h6v10h-6zM238 137h6v10h-6zM232 137h6v10h-6zM220 137h6v10h-6zM208 137h6v10h-6zM208 117h6v10h-6z"/><path fill="#e7be00" d="M28 147h6v10h-6zM34 147h6v10h-6zM52 147h6v10h-6zM64 147h6v10h-6zM82 147h6v10h-6zM82 177h6v10h-6zM76 177h6v10h-6zM52 177h6v10h-6zM28 167h6v10h-6zM28 157h6v10h-6z"/><path fill="#2f3fbf" d="M94 147h6v10h-6zM118 147h6v10h-6zM136 147h6v10h-6zM142 147h6v10h-6zM142 157h6v10h-6zM136 177h6v10h-6zM130 177h6v10h-6zM124 177h6v10h-6zM118 177h6v10h-6zM106 177h6v10h-6zM100 177h6v10h-6zM94 177h6v10h-6zM88 177h6v10h-6zM88 167h6v10h-6zM88 157h6v10h-6z"/><path fill="#2f3fbf" d="M148 147h6v10h-6zM154 147h6v10h-6zM160 147h6v10h-6zM166 147h6v10h-6zM190 147h6v10h-6zM202 157h6v10h-6zM202 167h6v10h-6zM202 177h6v10h-6zM196 177h6v10h-6zM184 177h6v10h-6zM178 177h6v10h-6zM166 177h6v10h-6zM148 177h6v10h-6zM148 167h6v10h-6z"/><path fill="#2f3fbf" d="M244 147h6v10h-6zM262 147h6v10h-6zM262 167h6v10h-6zM262 177h6v10h-6zM256 177h6v10h-6zM244 177h6v10h-6zM226 177h6v10h-6zM208 177h6v10h-6zM208 167h6v10h-6z"/><path fill="#e7be00" d="M34 187h6v10h-6zM46 187h6v10h-6zM52 187h6v10h-6zM58 187h6v10h-6zM64 187h6v10h-6zM82 197h6v10h-6zM82 207h6v10h-6zM82 217h6v10h-6zM76 217h6v10h-6zM70 217h6v10h-6zM64 217h6v10h-6zM52 217h6v10h-6zM28 217h6v10h-6zM28 207h6v10h-6zM28 197h6v10h-6z"/><path fill="#2f3fbf" d="M154 187h6v10h-6zM166 187h6v10h-6zM172 187h6v10h-6zM178 187h6v10h-6zM190 217h6v10h-6zM184 217h6v10h-6zM178 217h6v10h-6zM172 217h6v10h-6zM148 217h6v10h-6zM148 207h6v10h-6z"/><path fill="#2f3fbf" d="M220 187h6v10h-6zM226 187h6v10h-6zM232 187h6v10h-6zM244 187h6v10h-6zM250 187h6v10h-6zM250 217h6v10h-6zM244 217h6v10h-6zM238 217h6v10h-6zM232 217h6v10h-6zM226 217h6v10h-6zM220 217h6v10h-6zM208 217h6v10h-6zM208 197h6v10h-6z"/><path fill="#ffffff" d="M40 227h6v10h-6zM46 227h6v10h-6zM70 227h6v10h-6zM76 227h6v10h-6zM82 227h6v10h-6zM76 257h6v10h-6zM58 257h6v10h-6zM52 257h6v10h-6zM40 257h6v10h-6zM34 257h6v10h-6zM28 257h6v10h-6zM28 247h6v10h-6zM28 237h6v10h-6z"/><path fill="#e7be00" d="M166 227h6v10h-6zM178 227h6v10h-6zM190 227h6v10h-6zM196 227h6v10h-6zM202 227h6v10h-6zM202 237h6v10h-6zM202 257h6v10h-6zM184 257h6v10h-6zM178 257h6v10h-6zM166 257h6v10h-6zM160 257h6v10h-6zM148 247h6v10h-6zM148 237h6v10h-6z"/></g><g clip-path="url(#grid-clip-07f72e85e70f0325-4x6)" data-channel="ellipse" data-ellipse-anchor-x="208" data-ellipse-anchor-y="147" data-ellipse-rx="115.089" data-ellipse-ry="104.705" data-ellipse-rotation-deg="108"><ellipse cx="208" cy="147" rx="115.089" ry="104.705" transform="rotate(108 208 147)" fill="#000000" stroke="#000000" fill-opacity="0.25" stroke-opacity="0.35" stroke-width="2"/></g><g><g data-channel="cell" data-cell-index="0" data-cell-row="0" data-cell-col="0" data-surround-bits="0x7f72e" data-edge-color="#2f3fbf"><rect x="34" y="37" width="48" height="20" fill="#9f1000"/><text x="58" y="47" fill="#ffffff" font-size="16" text-anchor="middle" dominant-baseline="central">ABCf</text></g><g data-channel="cell" data-cell-index="1" data-cell-row="0" data-cell-col="1" data-surround-bits="0x85e70f" data-edge-color="#e7be00"><rect x="94" y="37" width="48" height="20" fill="#81d086"/><text x="118" y="47" fill="#000000" font-size="16" text-anchor="middle" dominant-baseline="central">htCB</text></g><g data-channel="cell" data-cell-index="2" data-cell-row="0" data-cell-col="2" data-surround-bits="0x325f1" data-edge-color="#2f3fbf"><rect x="154" y="37" width="48" height="20" fill="#7d4c88"/><text x="178" y="47" fill="#ffffff" font-size="16" text-anchor="middle" dominant-baseline="central">iEx9</text></g><g data-channel="cell" data-cell-index="3" data-cell-row="0" data-cell-col="3" data-surround-bits="0x46ba5b" data-edge-color="#2f3fbf"><rect x="214" y="37" width="48" height="20" fill="#2f9a65"/><text x="238" y="47" fill="#000000" font-size="16" text-anchor="middle" dominant-baseline="central">ZZov</text></g><g data-channel="cell" data-cell-index="4" data-cell-row="1" data-cell-col="0" data-surround-bits="0x75bafa" data-edge-color="#ffffff"><rect x="34" y="77" width="48" height="20" fill="#c5a0ea"/><text x="58" y="87" fill="#000000" font-size="16" text-anchor="middle" dominant-baseline="central">6qDF</text></g><g data-channel="cell" data-cell-index="5" data-cell-row="1" data-cell-col="1" data-surround-bits="0x4559f9" data-edge-color="#e7be00" data-cell-quartile="1"><rect x="94" y="77" width="48" height="20" fill="#15d05a"/><text x="118" y="87" fill="#000000" font-size="16" text-anchor="middle" dominant-baseline="central">WtAV</text><polygon points="94,77 104,77 94,87" fill="#000000"/></g><g data-channel="cell" data-cell-index="6" data-cell-row="1" data-cell-col="2" data-surround-bits="0xe6a0d7" data-edge-color="#2f3fbf"><rect x="154" y="77" width="48" height="20" fill="#d0869f"/><text x="178" y="87" fill="#000000" font-size="16" text-anchor="middle" dominant-baseline="central">n4bQ</text></g><g data-channel="cell" data-cell-index="7" data-cell-row="1" data-cell-col="3" data-surround-bits="0x575b0e" data-edge-color="#2f3fbf"><rect x="214" y="77" width="48" height="20" fill="#4c8881"/><text x="238" y="87" fill="#ffffff" font-size="16" text-anchor="middle" dominant-baseline="central">gYhM</text></g><g data-channel="cell" data-cell-index="8" data-cell-row="2" data-cell-col="0" data-cell-blank="true" data-cell-blank-map="true"><rect x="34" y="117" width="48" height="20" rx="10" ry="10" fill="#ffffff" stroke="#000000" stroke-width="1"/><circle cx="64" cy="118.667" r="3.5" fill="#1d4ed8" data-blank-map-min="0,2"/><path d="M 47.8,128.667 H 56.2 M 52,124.467 V 132.867" fill="none" stroke="#d62828" stroke-width="1.925" stroke-linecap="butt" data-blank-map-max="3,1"/></g><g data-channel="cell" data-cell-index="9" data-cell-row="2" data-cell-col="1" data-cell-fingerprint="true" data-surround-bits="0xf9cf84" data-edge-color="#e7be00"><rect x="94" y="117" width="48" height="20" fill="#ff3f2f"/><rect x="94.5" y="117.5" width="47" height="19" fill="none" stroke="#ffffff" stroke-width="1"/><text x="118" y="127" fill="#000000" font-size="13.333" text-anchor="middle" dominant-baseline="central">4g11e</text></g><g data-channel="cell" data-cell-index="10" data-cell-row="2" data-cell-col="2" data-cell-fingerprint="true" data-surround-bits="0x7aed83" data-edge-color="#000000" data-cell-quartile="2"><rect x="154" y="117" width="48" height="20" fill="#ff3f2f"/><rect x="154.5" y="117.5" width="47" height="19" fill="none" stroke="#ffffff" stroke-width="1"/><text x="178" y="127" fill="#000000" font-size="13.333" text-anchor="middle" dominant-baseline="central">75saj</text><polygon points="202,117 192,117 202,127" fill="#000000"/></g><g data-channel="cell" data-cell-index="11" data-cell-row="2" data-cell-col="3" data-cell-fingerprint="true" data-surround-bits="0xab33dc" data-edge-color="#e7be00" data-cell-quartile="4"><rect x="214" y="117" width="48" height="20" fill="#ff3f2f"/><rect x="214.5" y="117.5" width="47" height="19" fill="none" stroke="#ffffff" stroke-width="1"/><text x="238" y="127" fill="#000000" font-size="13.333" text-anchor="middle" dominant-baseline="central">54dfj</text><polygon points="214,137 214,127 224,137" fill="#000000"/></g><g data-channel="cell" data-cell-index="12" data-cell-row="3" data-cell-col="0" data-cell-fingerprint="true" data-surround-bits="0xc23253" data-edge-color="#e7be00"><rect x="34" y="157" width="48" height="20" fill="#ff3f2f"/><rect x="34.5" y="157.5" width="47" height="19" fill="none" stroke="#ffffff" stroke-width="1"/><text x="58" y="167" fill="#000000" font-size="13.333" text-anchor="middle" dominant-baseline="central">3nbhm</text></g><g data-channel="cell" data-cell-index="13" data-cell-row="3" data-cell-col="1" data-surround-bits="0xfde722" data-edge-color="#2f3fbf"><rect x="94" y="157" width="48" height="20" fill="#ea2f9a"/><text x="118" y="167" fill="#000000" font-size="16" text-anchor="middle" dominant-baseline="central">mi_q</text></g><g data-channel="cell" data-cell-index="14" data-cell-row="3" data-cell-col="2" data-surround-bits="0x65bc8f" data-edge-color="#2f3fbf" data-cell-quartile="3"><rect x="154" y="157" width="48" height="20" fill="#5ac5a0"/><text x="178" y="167" fill="#000000" font-size="16" text-anchor="middle" dominant-baseline="central">oMVa</text><polygon points="202,177 202,167 192,177" fill="#000000"/></g><g data-channel="cell" data-cell-index="15" data-cell-row="3" data-cell-col="3" data-surround-bits="0x64ba40" data-edge-color="#2f3fbf"><rect x="214" y="157" width="48" height="20" fill="#9f15d0"/><text x="238" y="167" fill="#ffffff" font-size="16" text-anchor="middle" dominant-baseline="central">0BWf</text></g><g data-channel="cell" data-cell-index="16" data-cell-row="4" data-cell-col="0" data-surround-bits="0xe2fc7a" data-edge-color="#e7be00"><rect x="34" y="197" width="48" height="20" fill="#81d086"/><text x="58" y="207" fill="#000000" font-size="16" text-anchor="middle" dominant-baseline="central">htCB</text></g><g data-channel="cell" data-cell-index="17" data-cell-row="4" data-cell-col="1" data-cell-blank="true"><rect x="94" y="197" width="48" height="20" rx="10" ry="10" fill="#ffffff" stroke="#000000" stroke-width="1"/></g><g data-channel="cell" data-cell-index="18" data-cell-row="4" data-cell-col="2" data-surround-bits="0x63c03a" data-edge-color="#2f3fbf"><rect x="154" y="197" width="48" height="20" fill="#7d4c88"/><text x="178" y="207" fill="#ffffff" font-size="16" text-anchor="middle" dominant-baseline="central">iEx9</text></g><g data-channel="cell" data-cell-index="19" data-cell-row="4" data-cell-col="3" data-surround-bits="0xafc0dc" data-edge-color="#2f3fbf"><rect x="214" y="197" width="48" height="20" fill="#2f9a65"/><text x="238" y="207" fill="#000000" font-size="16" text-anchor="middle" dominant-baseline="central">ZZov</text></g><g data-channel="cell" data-cell-index="20" data-cell-row="5" data-cell-col="0" data-surround-bits="0xfb238c" data-edge-color="#ffffff"><rect x="34" y="237" width="48" height="20" fill="#c5a0ea"/><text x="58" y="247" fill="#000000" font-size="16" text-anchor="middle" dominant-baseline="central">6qDF</text></g><g data-channel="cell" data-cell-index="21" data-cell-row="5" data-cell-col="1" data-cell-blank="true"><rect x="94" y="237" width="48" height="20" rx="10" ry="10" fill="#2f3fbf" stroke="#000000" stroke-width="1"/></g><g data-channel="cell" data-cell-index="22" data-cell-row="5" data-cell-col="2" data-surround-bits="0xcd97a8" data-edge-color="#e7be00"><rect x="154" y="237" width="48" height="20" fill="#15d05a"/><text x="178" y="247" fill="#000000" font-size="16" text-anchor="middle" dominant-baseline="central">WtAV</text></g><g data-channel="cell" data-cell-index="23" data-cell-row="5" data-cell-col="3" data-cell-blank="true"><rect x="214" y="237" width="48" height="20" rx="10" ry="10" fill="#2f3fbf" stroke="#000000" stroke-width="1"/></g></g></g><g data-channel="color-bar" data-bar-slots="16" data-bar-marker-left="4" data-bar-marker-right="4"><g data-color-bar-rank="0" data-color-bar-band="K"><rect x="2" y="2" width="20" height="137.255" fill="#000000"/><text x="12" y="135.735" fill="#ffffff" font-size="16" text-anchor="middle" data-color-bar-letter="true">k</text></g><g data-color-bar-rank="1" data-color-bar-band="G"><rect x="2" y="139.255" width="20" height="29.964" fill="#e7be00"/><text x="12" y="165.699" fill="#000000" font-size="16" text-anchor="middle" data-color-bar-letter="true">g</text></g><g data-color-bar-rank="2" data-color-bar-band="W"><rect x="2" y="169.219" width="20" height="39.878" fill="#ffffff"/><text x="12" y="205.577" fill="#000000" font-size="16" text-anchor="middle" data-color-bar-letter="true">w</text></g><g data-color-bar-rank="3" data-color-bar-band="B"><rect x="2" y="209.097" width="20" height="62.903" fill="#2f3fbf"/><text x="12" y="268.48" fill="#ffffff" font-size="16" text-anchor="middle" data-color-bar-letter="true">b</text></g><circle cx="6.6" cy="77.938" r="3.4" fill="#ffffff" stroke="#000000" stroke-width="0.75" data-bar-marker="left"/><circle cx="17.4" cy="77.938" r="3.4" fill="#ffffff" stroke="#000000" stroke-width="0.75" data-bar-marker="right"/></g><g data-channel="label-top"><text x="28" y="17" fill="#666666" font-size="12" dominant-baseline="central"><tspan fill="#a00000" font-weight="bold">+hash </tspan>CESR, Ed25519 idx sig</text></g><line x1="1" y1="1.5" x2="274" y2="1.5" stroke="#808080" stroke-width="1" shape-rendering="crispEdges"/><line x1="273.5" y1="1" x2="273.5" y2="273" stroke="#808080" stroke-width="1" shape-rendering="crispEdges"/><line x1="1" y1="272.5" x2="274" y2="272.5" stroke="#808080" stroke-width="1" shape-rendering="crispEdges"/><line x1="1.5" y1="1" x2="1.5" y2="273" stroke="#808080" stroke-width="1" shape-rendering="crispEdges"/><line x1="22.5" y1="1" x2="22.5" y2="273" stroke="#808080" stroke-width="1" shape-rendering="crispEdges"/></svg>