<svg width="155" height="114" viewBox="0 0 155 114" xmlns="http://www.w3.org/2000/svg" font-family="&quot;JetBrains Mono&quot;, &quot;Menlo&quot;, &quot;Consolas&quot;, &quot;DejaVu Sans Mono&quot;, &quot;Liberation Mono&quot;, &quot;Roboto Mono&quot;, &quot;Noto Sans Mono&quot;, monospace" data-entviz-version="v14" data-entviz-lib="0.14.0" data-input-bytes="19" data-cols="2" data-rows="2" data-encoding="decimal" data-scheme="snowflake" data-role="identifier" data-size-basis="decoded" data-entropy-type="snowflake" data-size-bits="64" data-qualifiers="{}" data-parts="[{&quot;text&quot;:&quot;1234567890987654321&quot;,&quot;bind&quot;:&quot;core&quot;}]"><defs><clipPath id="grid-clip-368e6fc81008c9c2-2x2"><rect x="28" y="27" width="120" height="80"/></clipPath></defs><rect x="1" y="1" width="153" height="112" fill="#ffffff"/><g data-channel="grid"><rect x="28" y="27" width="120" height="80" fill="#2f3fbf"/><g><path fill="#000000" d="M28 27h6v10h-6zM34 27h6v10h-6zM40 27h6v10h-6zM46 27h6v10h-6zM58 27h6v10h-6zM64 27h6v10h-6zM82 27h6v10h-6zM82 37h6v10h-6zM82 47h6v10h-6zM64 57h6v10h-6zM52 57h6v10h-6zM46 57h6v10h-6zM34 57h6v10h-6zM28 57h6v10h-6z"/><path fill="#ff3f2f" d="M106 27h6v10h-6zM142 57h6v10h-6zM100 57h6v10h-6zM88 47h6v10h-6zM88 37h6v10h-6z"/><path fill="#ffffff" d="M40 67h6v10h-6zM82 67h6v10h-6zM70 97h6v10h-6zM64 97h6v10h-6zM58 97h6v10h-6zM40 97h6v10h-6zM28 87h6v10h-6zM28 77h6v10h-6z"/><path fill="#ff3f2f" d="M94 67h6v10h-6zM100 67h6v10h-6zM124 67h6v10h-6zM136 67h6v10h-6zM142 87h6v10h-6zM130 97h6v10h-6zM106 97h6v10h-6zM100 97h6v10h-6zM88 97h6v10h-6zM88 87h6v10h-6zM88 77h6v10h-6z"/></g><g clip-path="url(#grid-clip-368e6fc81008c9c2-2x2)" data-channel="ellipse" data-ellipse-anchor-x="28" data-ellipse-anchor-y="107" data-ellipse-rx="66.342" data-ellipse-ry="66.342" data-ellipse-rotation-deg="36"><ellipse cx="28" cy="107" rx="66.342" ry="66.342" transform="rotate(36 28 107)" fill="#ffffff" stroke="#ffffff" fill-opacity="0.35" stroke-opacity="0.45" stroke-width="2"/></g><g><g data-channel="cell" data-cell-index="0" data-cell-row="0" data-cell-col="0" data-surround-bits="0x368e6f" data-edge-color="#000000" data-cell-quartile="4"><rect x="34" y="37" width="48" height="20" fill="#563412"/><text x="58" y="47" fill="#ffffff" font-size="12" text-anchor="middle" dominant-baseline="central">123456</text><polygon points="34,57 34,47 44,57" fill="#ffffff"/></g><g data-channel="cell" data-cell-index="1" data-cell-row="0" data-cell-col="1" data-surround-bits="0xc81008" data-edge-color="#ff3f2f" data-cell-quartile="3"><rect x="94" y="37" width="48" height="20" fill="#989078"/><text x="118" y="47" fill="#000000" font-size="12" text-anchor="middle" dominant-baseline="central">789098</text><polygon points="142,57 142,47 132,57" fill="#000000"/></g><g data-channel="cell" data-cell-index="2" data-cell-row="1" data-cell-col="0" data-surround-bits="0xc9c204" data-edge-color="#ffffff" data-cell-quartile="1"><rect x="34" y="77" width="48" height="20" fill="#325476"/><text x="58" y="87" fill="#ffffff" font-size="12" text-anchor="middle" dominant-baseline="central">765432</text><polygon points="34,77 44,77 34,87" fill="#ffffff"/></g><g data-channel="cell" data-cell-index="3" data-cell-row="1" data-cell-col="1" data-surround-bits="0xec4946" data-edge-color="#ff3f2f" data-cell-quartile="2"><rect x="94" y="77" width="48" height="20" fill="#111111"/><text x="118" y="87" fill="#ffffff" font-size="12" text-anchor="middle" dominant-baseline="central">1</text><polygon points="142,77 132,77 142,87" fill="#ffffff"/></g></g></g><g data-channel="color-bar" data-bar-slots="9" data-bar-marker-left="7" data-bar-marker-right="1"><g data-color-bar-rank="0" data-color-bar-band="R"><rect x="2" y="2" width="20" height="32.788" fill="#ff3f2f"/><text x="12" y="32.148" fill="#000000" font-size="12" text-anchor="middle" data-color-bar-letter="true">r</text></g><g data-color-bar-rank="1" data-color-bar-band="G"><rect x="2" y="34.788" width="20" height="15.081" fill="#e7be00"/><text x="12" y="47.229" fill="#000000" font-size="12" text-anchor="middle" data-color-bar-letter="true">g</text></g><g data-color-bar-rank="2" data-color-bar-band="K"><rect x="2" y="49.869" width="20" height="18.582" fill="#000000"/><text x="12" y="65.811" fill="#ffffff" font-size="12" text-anchor="middle" data-color-bar-letter="true">k</text></g><g data-color-bar-rank="3" data-color-bar-band="W"><rect x="2" y="68.451" width="20" height="43.549" fill="#ffffff"/><text x="12" y="109.36" fill="#000000" font-size="12" text-anchor="middle" data-color-bar-letter="true">w</text></g><circle cx="6.6" cy="93.667" r="3.4" fill="#ffffff" stroke="#000000" stroke-width="0.75" data-bar-marker="left"/><circle cx="17.4" cy="20.333" r="3.4" fill="#ffffff" stroke="#000000" stroke-width="0.75" data-bar-marker="right"/></g><g data-channel="label-top"><text x="28" y="17" fill="#666666" font-size="12" dominant-baseline="central">snowflake</text></g><line x1="1" y1="1.5" x2="154" y2="1.5" stroke="#808080" stroke-width="1" shape-rendering="crispEdges"/><line x1="153.5" y1="1" x2="153.5" y2="113" stroke="#808080" stroke-width="1" shape-rendering="crispEdges"/><line x1="1" y1="112.5" x2="154" y2="112.5" stroke="#808080" stroke-width="1" shape-rendering="crispEdges"/><line x1="1.5" y1="1" x2="1.5" y2="113" stroke="#808080" stroke-width="1" shape-rendering="crispEdges"/><line x1="22.5" y1="1" x2="22.5" y2="113" stroke="#808080" stroke-width="1" shape-rendering="crispEdges"/></svg>