<svg width="153" height="112" viewBox="0 0 153 112" xmlns="http://www.w3.org/2000/svg" font-family="&quot;JetBrains Mono&quot;, &quot;Menlo&quot;, &quot;Consolas&quot;, &quot;DejaVu Sans Mono&quot;, &quot;Liberation Mono&quot;, &quot;Roboto Mono&quot;, &quot;Noto Sans Mono&quot;, monospace" data-entviz-version="v11" data-entviz-lib="0.10.0" data-input-bytes="19" data-cols="2" data-rows="2"><defs><clipPath id="grid-clip-368e6fc81008c9c2-2x2"><rect x="27" y="26" width="120" height="80"/></clipPath></defs><rect x="0" y="0" width="153" height="112" fill="#ffffff"/><g data-channel="grid"><rect x="27" y="26" width="120" height="80" fill="#2f3fbf"/><g><path fill="#000000" d="M27 26h6v10h-6zM33 26h6v10h-6zM39 26h6v10h-6zM45 26h6v10h-6zM57 26h6v10h-6zM63 26h6v10h-6zM81 26h6v10h-6zM81 36h6v10h-6zM81 46h6v10h-6zM63 56h6v10h-6zM51 56h6v10h-6zM45 56h6v10h-6zM33 56h6v10h-6zM27 56h6v10h-6z"/><path fill="#ff3f2f" d="M105 26h6v10h-6zM141 56h6v10h-6zM99 56h6v10h-6zM87 46h6v10h-6zM87 36h6v10h-6z"/><path fill="#ffffff" d="M39 66h6v10h-6zM81 66h6v10h-6zM69 96h6v10h-6zM63 96h6v10h-6zM57 96h6v10h-6zM39 96h6v10h-6zM27 86h6v10h-6zM27 76h6v10h-6z"/><path fill="#ff3f2f" d="M93 66h6v10h-6zM99 66h6v10h-6zM123 66h6v10h-6zM135 66h6v10h-6zM141 86h6v10h-6zM129 96h6v10h-6zM105 96h6v10h-6zM99 96h6v10h-6zM87 96h6v10h-6zM87 86h6v10h-6zM87 76h6v10h-6z"/></g><g clip-path="url(#grid-clip-368e6fc81008c9c2-2x2)" data-channel="ellipse" data-ellipse-anchor-x="27" data-ellipse-anchor-y="106" data-ellipse-rx="66.342" data-ellipse-ry="66.342" data-ellipse-rotation-deg="36"><ellipse cx="27" cy="106" rx="66.342" ry="66.342" transform="rotate(36 27 106)" fill="#ffffff" stroke="#ffffff" fill-opacity="0.35" stroke-opacity="0.45" stroke-width="2"/></g><g><g data-channel="cell" data-cell-index="0" data-cell-row="0" data-cell-col="0" data-surround-bits="0x368e6f" data-edge-color="#000000" data-cell-quartile="4"><rect x="33" y="36" width="48" height="20" fill="#563412"/><text x="57" y="46" fill="#ffffff" font-size="12" text-anchor="middle" dominant-baseline="central">123456</text><polygon points="33,56 33,46 43,56" fill="#ffffff"/></g><g data-channel="cell" data-cell-index="1" data-cell-row="0" data-cell-col="1" data-surround-bits="0xc81008" data-edge-color="#ff3f2f" data-cell-quartile="3"><rect x="93" y="36" width="48" height="20" fill="#989078"/><text x="117" y="46" fill="#000000" font-size="12" text-anchor="middle" dominant-baseline="central">789098</text><polygon points="141,56 141,46 131,56" fill="#000000"/></g><g data-channel="cell" data-cell-index="2" data-cell-row="1" data-cell-col="0" data-surround-bits="0xc9c204" data-edge-color="#ffffff" data-cell-quartile="1"><rect x="33" y="76" width="48" height="20" fill="#325476"/><text x="57" y="86" fill="#ffffff" font-size="12" text-anchor="middle" dominant-baseline="central">765432</text><polygon points="33,76 43,76 33,86" fill="#ffffff"/></g><g data-channel="cell" data-cell-index="3" data-cell-row="1" data-cell-col="1" data-surround-bits="0xec4946" data-edge-color="#ff3f2f" data-cell-quartile="2"><rect x="93" y="76" width="48" height="20" fill="#111111"/><text x="117" y="86" fill="#ffffff" font-size="12" text-anchor="middle" dominant-baseline="central">1</text><polygon points="141,76 131,76 141,86" fill="#ffffff"/></g></g></g><g data-channel="color-bar" data-bar-slots="9" data-bar-marker-left="7" data-bar-marker-right="1"><g data-color-bar-rank="0" data-color-bar-band="R"><rect x="1" y="1" width="20" height="32.788" fill="#ff3f2f"/><text x="11" y="31.148" fill="#000000" font-size="12" text-anchor="middle" data-color-bar-letter="true">r</text></g><g data-color-bar-rank="1" data-color-bar-band="G"><rect x="1" y="33.788" width="20" height="15.081" fill="#e7be00"/><text x="11" y="46.229" fill="#000000" font-size="12" text-anchor="middle" data-color-bar-letter="true">g</text></g><g data-color-bar-rank="2" data-color-bar-band="K"><rect x="1" y="48.869" width="20" height="18.582" fill="#000000"/><text x="11" y="64.811" fill="#ffffff" font-size="12" text-anchor="middle" data-color-bar-letter="true">k</text></g><g data-color-bar-rank="3" data-color-bar-band="W"><rect x="1" y="67.451" width="20" height="43.549" fill="#ffffff"/><text x="11" y="108.36" fill="#000000" font-size="12" text-anchor="middle" data-color-bar-letter="true">w</text></g><circle cx="5.6" cy="92.667" r="3.4" fill="#ffffff" stroke="#000000" stroke-width="0.75" data-bar-marker="left"/><circle cx="16.4" cy="19.333" r="3.4" fill="#ffffff" stroke="#000000" stroke-width="0.75" data-bar-marker="right"/></g><g data-channel="label-top"><text x="27" y="16" fill="#666666" font-size="12" dominant-baseline="central">snowflake:</text></g><line x1="0" y1="0.5" x2="153" y2="0.5" stroke="#808080" stroke-width="1" shape-rendering="crispEdges"/><line x1="152.5" y1="0" x2="152.5" y2="112" stroke="#808080" stroke-width="1" shape-rendering="crispEdges"/><line x1="0" y1="111.5" x2="153" y2="111.5" stroke="#808080" stroke-width="1" shape-rendering="crispEdges"/><line x1="0.5" y1="0" x2="0.5" y2="112" stroke="#808080" stroke-width="1" shape-rendering="crispEdges"/><line x1="21.5" y1="0" x2="21.5" y2="112" stroke="#808080" stroke-width="1" shape-rendering="crispEdges"/></svg>