<svg width="153.0" height="112.0" viewBox="0 0 153.0 112.0" xmlns="http://www.w3.org/2000/svg" data-entviz-version="v9" data-entviz-lib="0.9.1" data-input-bytes="19" data-cols="2" data-rows="2"><defs><clipPath id="grid-clip-368e6fc81008c9c2-2x2"><rect x="27.0" y="26.0" width="120.0" height="80.0"/></clipPath></defs><rect x="0" y="0" width="153.0" height="112.0" fill="#ffffff"/><g data-channel="grid"><rect x="27.0" y="26.0" width="120.0" height="80.0" fill="#2f3fbf"/><g><rect x="27.0" y="26.0" width="6.0" height="10.0" fill="#000000"/><rect x="33.0" y="26.0" width="6.0" height="10.0" fill="#000000"/><rect x="39.0" y="26.0" width="6.0" height="10.0" fill="#000000"/><rect x="45.0" y="26.0" width="6.0" height="10.0" fill="#000000"/><rect x="57.0" y="26.0" width="6.0" height="10.0" fill="#000000"/><rect x="63.0" y="26.0" width="6.0" height="10.0" fill="#000000"/><rect x="81.0" y="26.0" width="6.0" height="10.0" fill="#000000"/><rect x="81.0" y="36.0" width="6.0" height="10.0" fill="#000000"/><rect x="81.0" y="46.0" width="6.0" height="10.0" fill="#000000"/><rect x="63.0" y="56.0" width="6.0" height="10.0" fill="#000000"/><rect x="51.0" y="56.0" width="6.0" height="10.0" fill="#000000"/><rect x="45.0" y="56.0" width="6.0" height="10.0" fill="#000000"/><rect x="33.0" y="56.0" width="6.0" height="10.0" fill="#000000"/><rect x="27.0" y="56.0" width="6.0" height="10.0" fill="#000000"/><rect x="105.0" y="26.0" width="6.0" height="10.0" fill="#ff3f2f"/><rect x="141.0" y="56.0" width="6.0" height="10.0" fill="#ff3f2f"/><rect x="99.0" y="56.0" width="6.0" height="10.0" fill="#ff3f2f"/><rect x="87.0" y="46.0" width="6.0" height="10.0" fill="#ff3f2f"/><rect x="87.0" y="36.0" width="6.0" height="10.0" fill="#ff3f2f"/><rect x="39.0" y="66.0" width="6.0" height="10.0" fill="#000000"/><rect x="81.0" y="66.0" width="6.0" height="10.0" fill="#000000"/><rect x="69.0" y="96.0" width="6.0" height="10.0" fill="#000000"/><rect x="63.0" y="96.0" width="6.0" height="10.0" fill="#000000"/><rect x="57.0" y="96.0" width="6.0" height="10.0" fill="#000000"/><rect x="39.0" y="96.0" width="6.0" height="10.0" fill="#000000"/><rect x="27.0" y="86.0" width="6.0" height="10.0" fill="#000000"/><rect x="27.0" y="76.0" width="6.0" height="10.0" fill="#000000"/><rect x="93.0" y="66.0" width="6.0" height="10.0" fill="#000000"/><rect x="99.0" y="66.0" width="6.0" height="10.0" fill="#000000"/><rect x="123.0" y="66.0" width="6.0" height="10.0" fill="#000000"/><rect x="135.0" y="66.0" width="6.0" height="10.0" fill="#000000"/><rect x="141.0" y="86.0" width="6.0" height="10.0" fill="#000000"/><rect x="129.0" y="96.0" width="6.0" height="10.0" fill="#000000"/><rect x="105.0" y="96.0" width="6.0" height="10.0" fill="#000000"/><rect x="99.0" y="96.0" width="6.0" height="10.0" fill="#000000"/><rect x="87.0" y="96.0" width="6.0" height="10.0" fill="#000000"/><rect x="87.0" y="86.0" width="6.0" height="10.0" fill="#000000"/><rect x="87.0" y="76.0" width="6.0" height="10.0" fill="#000000"/></g><g clip-path="url(#grid-clip-368e6fc81008c9c2-2x2)" data-channel="ellipse" data-ellipse-anchor-x="27.0" data-ellipse-anchor-y="106.0" data-ellipse-rx="66.3421434685374" data-ellipse-ry="66.3421434685374" data-ellipse-rotation-deg="36.0"><ellipse cx="27.0" cy="106.0" rx="66.3421434685374" ry="66.3421434685374" transform="rotate(36.0 27.0 106.0)" fill="#ffffff" stroke="#ffffff" fill-opacity="0.35" stroke-opacity="0.45" stroke-width="2.0"/></g><g><g data-channel="cell" data-cell-index="0" data-cell-row="0" data-cell-col="0" data-cell-quartile="4"><rect x="33.0" y="36.0" width="48.0" height="20.0" fill="#563412"/><text x="57.0" y="46.0" fill="#ffffff" style="font-family: &quot;JetBrains Mono&quot;, &quot;Menlo&quot;, &quot;Consolas&quot;, &quot;DejaVu Sans Mono&quot;, &quot;Liberation Mono&quot;, &quot;Roboto Mono&quot;, &quot;Noto Sans Mono&quot;, monospace; font-size: 12.0px;" text-anchor="middle" dominant-baseline="central">123456</text><polygon points="33.0,56.0 33.0,46.0 43.0,56.0" fill="#ffffff"/></g><g data-channel="cell" data-cell-index="1" data-cell-row="0" data-cell-col="1" data-cell-quartile="3"><rect x="93.0" y="36.0" width="48.0" height="20.0" fill="#989078"/><text x="117.0" y="46.0" fill="#000000" style="font-family: &quot;JetBrains Mono&quot;, &quot;Menlo&quot;, &quot;Consolas&quot;, &quot;DejaVu Sans Mono&quot;, &quot;Liberation Mono&quot;, &quot;Roboto Mono&quot;, &quot;Noto Sans Mono&quot;, monospace; font-size: 12.0px;" text-anchor="middle" dominant-baseline="central">789098</text><polygon points="141.0,56.0 141.0,46.0 131.0,56.0" fill="#000000"/></g><g data-channel="cell" data-cell-index="2" data-cell-row="1" data-cell-col="0" data-cell-quartile="1"><rect x="33.0" y="76.0" width="48.0" height="20.0" fill="#325476"/><text x="57.0" y="86.0" fill="#ffffff" style="font-family: &quot;JetBrains Mono&quot;, &quot;Menlo&quot;, &quot;Consolas&quot;, &quot;DejaVu Sans Mono&quot;, &quot;Liberation Mono&quot;, &quot;Roboto Mono&quot;, &quot;Noto Sans Mono&quot;, monospace; font-size: 12.0px;" text-anchor="middle" dominant-baseline="central">765432</text><polygon points="33.0,76.0 43.0,76.0 33.0,86.0" fill="#ffffff"/></g><g data-channel="cell" data-cell-index="3" data-cell-row="1" data-cell-col="1" data-cell-quartile="2"><rect x="93.0" y="76.0" width="48.0" height="20.0" fill="#111111"/><text x="117.0" y="86.0" fill="#ffffff" style="font-family: &quot;JetBrains Mono&quot;, &quot;Menlo&quot;, &quot;Consolas&quot;, &quot;DejaVu Sans Mono&quot;, &quot;Liberation Mono&quot;, &quot;Roboto Mono&quot;, &quot;Noto Sans Mono&quot;, monospace; font-size: 12.0px;" text-anchor="middle" dominant-baseline="central">1</text><polygon points="141.0,76.0 131.0,76.0 141.0,86.0" fill="#ffffff"/></g></g></g><g data-channel="color-bar" data-bar-slots="9" data-bar-marker-square="7" data-bar-marker-triangle="1"><g data-color-bar-rank="0" data-color-bar-band="R"><rect x="1" y="1" width="20.0" height="32.78827589685387" fill="#ff3f2f"/><text x="11.0" y="31.148275896853868" fill="#000000" style="font-family: &quot;JetBrains Mono&quot;, &quot;Menlo&quot;, &quot;Consolas&quot;, &quot;DejaVu Sans Mono&quot;, &quot;Liberation Mono&quot;, &quot;Roboto Mono&quot;, &quot;Noto Sans Mono&quot;, monospace; font-size: 12.0px;" text-anchor="middle" data-color-bar-letter="true">r</text></g><g data-color-bar-rank="1" data-color-bar-band="G"><rect x="1" y="33.78827589685387" width="20.0" height="15.08117008720607" fill="#e7be00"/><text x="11.0" y="46.229445984059936" fill="#000000" style="font-family: &quot;JetBrains Mono&quot;, &quot;Menlo&quot;, &quot;Consolas&quot;, &quot;DejaVu Sans Mono&quot;, &quot;Liberation Mono&quot;, &quot;Roboto Mono&quot;, &quot;Noto Sans Mono&quot;, monospace; font-size: 12.0px;" text-anchor="middle" data-color-bar-letter="true">g</text></g><g data-color-bar-rank="2" data-color-bar-band="K"><rect x="1" y="48.86944598405994" width="20.0" height="18.58193671023685" fill="#000000"/><text x="11.0" y="64.81138269429678" fill="#ffffff" style="font-family: &quot;JetBrains Mono&quot;, &quot;Menlo&quot;, &quot;Consolas&quot;, &quot;DejaVu Sans Mono&quot;, &quot;Liberation Mono&quot;, &quot;Roboto Mono&quot;, &quot;Noto Sans Mono&quot;, monospace; font-size: 12.0px;" text-anchor="middle" data-color-bar-letter="true">k</text></g><g data-color-bar-rank="3" data-color-bar-band="W"><rect x="1" y="67.45138269429678" width="20.0" height="43.54861730570322" fill="#ffffff"/><text x="11.0" y="108.36" fill="#000000" style="font-family: &quot;JetBrains Mono&quot;, &quot;Menlo&quot;, &quot;Consolas&quot;, &quot;DejaVu Sans Mono&quot;, &quot;Liberation Mono&quot;, &quot;Roboto Mono&quot;, &quot;Noto Sans Mono&quot;, monospace; font-size: 12.0px;" text-anchor="middle" data-color-bar-letter="true">w</text></g><rect x="2.1999999999999997" y="89.86666666666666" width="5.6000000000000005" height="5.6000000000000005" fill="#ffffff" stroke="#000000" stroke-width="0.75" data-bar-marker="square"/><polygon points="17.0,16.53333333333333 14.2,22.133333333333333 19.8,22.133333333333333" fill="#ffffff" stroke="#000000" stroke-width="0.75" data-bar-marker="triangle"/></g><g data-channel="label-top"><text x="27.0" y="16.0" fill="#666666" style="font-family: &quot;JetBrains Mono&quot;, &quot;Menlo&quot;, &quot;Consolas&quot;, &quot;DejaVu Sans Mono&quot;, &quot;Liberation Mono&quot;, &quot;Roboto Mono&quot;, &quot;Noto Sans Mono&quot;, monospace; font-size: 12.0px;" dominant-baseline="central">snowflake:</text></g><line x1="0" y1="0.5" x2="153.0" y2="0.5" stroke="#808080" stroke-width="1" shape-rendering="crispEdges"/><line x1="152.5" y1="0" x2="152.5" y2="112.0" stroke="#808080" stroke-width="1" shape-rendering="crispEdges"/><line x1="0" y1="111.5" x2="153.0" y2="111.5" stroke="#808080" stroke-width="1" shape-rendering="crispEdges"/><line x1="0.5" y1="0" x2="0.5" y2="112.0" stroke="#808080" stroke-width="1" shape-rendering="crispEdges"/><line x1="21.5" y1="0" x2="21.5" y2="112.0" stroke="#808080" stroke-width="1" shape-rendering="crispEdges"/></svg>