<svg width="275" height="274" viewBox="0 0 275 274" xmlns="http://www.w3.org/2000/svg" font-family="&quot;JetBrains Mono&quot;, &quot;Menlo&quot;, &quot;Consolas&quot;, &quot;DejaVu Sans Mono&quot;, &quot;Liberation Mono&quot;, &quot;Roboto Mono&quot;, &quot;Noto Sans Mono&quot;, monospace" data-entviz-version="v15" data-entviz-lib="0.15.2" data-input-bytes="88" data-cols="4" data-rows="6" data-truncated="true" data-encoding="base64url" data-scheme="cesr" data-role="signature" data-size-basis="decoded" data-entropy-type="cesr" data-size-bits="528" data-qualifiers="{&quot;algorithm&quot;:&quot;secp256k1 idx sig&quot;}" data-parts="[{&quot;text&quot;:&quot;CCCfhtCBiEx9ZZov6qDFWtAVn4bQgYhMfWWaL-qgxVrQFZ-G0IGITH1lmi_qoMVa0BWfhtCBiEx9ZZov6qDFWtAV&quot;,&quot;bind&quot;:&quot;core&quot;}]"><defs><clipPath id="grid-clip-6174b7b4577e8f2c-4x6"><rect x="28" y="27" width="240" height="240"/></clipPath></defs><rect x="1" y="1" width="273" height="272" fill="#ffffff"/><g data-channel="grid"><rect x="28" y="27" width="240" height="240" fill="#ffffff"/><g><path fill="#000000" d="M28 27h6v10h-6zM34 27h6v10h-6zM40 27h6v10h-6zM52 27h6v10h-6zM58 27h6v10h-6zM70 27h6v10h-6zM82 37h6v10h-6zM82 57h6v10h-6zM76 57h6v10h-6zM70 57h6v10h-6zM58 57h6v10h-6zM28 57h6v10h-6zM28 47h6v10h-6z"/><path fill="#2f3fbf" d="M94 27h6v10h-6zM100 27h6v10h-6zM106 27h6v10h-6zM112 27h6v10h-6zM118 27h6v10h-6zM124 27h6v10h-6zM136 27h6v10h-6zM142 27h6v10h-6zM142 37h6v10h-6zM142 57h6v10h-6zM130 57h6v10h-6zM106 57h6v10h-6zM94 57h6v10h-6zM88 57h6v10h-6zM88 37h6v10h-6z"/><path fill="#e7be00" d="M226 27h6v10h-6zM244 27h6v10h-6zM262 37h6v10h-6zM262 47h6v10h-6zM256 57h6v10h-6zM238 57h6v10h-6zM232 57h6v10h-6zM226 57h6v10h-6zM220 57h6v10h-6zM208 37h6v10h-6z"/><path fill="#2f3fbf" d="M28 67h6v10h-6zM40 67h6v10h-6zM46 67h6v10h-6zM58 67h6v10h-6zM64 67h6v10h-6zM76 67h6v10h-6zM82 67h6v10h-6zM82 97h6v10h-6zM64 97h6v10h-6zM58 97h6v10h-6zM52 97h6v10h-6zM46 97h6v10h-6zM40 97h6v10h-6zM34 97h6v10h-6zM28 97h6v10h-6zM28 77h6v10h-6z"/><path fill="#2f3fbf" d="M100 67h6v10h-6zM130 67h6v10h-6zM136 67h6v10h-6zM142 87h6v10h-6zM142 97h6v10h-6zM124 97h6v10h-6zM118 97h6v10h-6zM112 97h6v10h-6zM100 97h6v10h-6zM88 87h6v10h-6z"/><path fill="#e7be00" d="M232 67h6v10h-6zM262 67h6v10h-6zM262 77h6v10h-6zM256 97h6v10h-6zM226 97h6v10h-6zM214 97h6v10h-6zM208 87h6v10h-6zM208 77h6v10h-6z"/><path fill="#ff3f2f" d="M28 107h6v10h-6zM34 107h6v10h-6zM46 107h6v10h-6zM64 107h6v10h-6zM70 107h6v10h-6zM76 107h6v10h-6zM82 107h6v10h-6zM82 137h6v10h-6zM64 137h6v10h-6zM40 137h6v10h-6zM34 137h6v10h-6zM28 117h6v10h-6z"/><path fill="#2f3fbf" d="M88 107h6v10h-6zM112 107h6v10h-6zM118 107h6v10h-6zM124 107h6v10h-6zM136 107h6v10h-6zM142 127h6v10h-6zM142 137h6v10h-6zM130 137h6v10h-6zM124 137h6v10h-6zM100 137h6v10h-6zM94 137h6v10h-6zM88 137h6v10h-6zM88 127h6v10h-6z"/><path fill="#e7be00" d="M154 107h6v10h-6zM178 107h6v10h-6zM184 107h6v10h-6zM196 107h6v10h-6zM190 137h6v10h-6zM166 137h6v10h-6zM160 137h6v10h-6zM148 117h6v10h-6z"/><path fill="#e7be00" d="M208 107h6v10h-6zM232 107h6v10h-6zM244 107h6v10h-6zM250 107h6v10h-6zM256 107h6v10h-6zM262 117h6v10h-6zM262 127h6v10h-6zM262 137h6v10h-6zM256 137h6v10h-6zM244 137h6v10h-6zM232 137h6v10h-6zM208 137h6v10h-6zM208 117h6v10h-6z"/><path fill="#e7be00" d="M40 147h6v10h-6zM46 147h6v10h-6zM58 147h6v10h-6zM76 147h6v10h-6zM82 147h6v10h-6zM82 177h6v10h-6zM70 177h6v10h-6zM64 177h6v10h-6zM58 177h6v10h-6zM46 177h6v10h-6zM40 177h6v10h-6zM28 167h6v10h-6z"/><path fill="#e7be00" d="M88 147h6v10h-6zM112 147h6v10h-6zM118 147h6v10h-6zM124 147h6v10h-6zM130 147h6v10h-6zM142 157h6v10h-6zM142 167h6v10h-6zM130 177h6v10h-6zM118 177h6v10h-6zM112 177h6v10h-6zM106 177h6v10h-6zM94 177h6v10h-6zM88 157h6v10h-6z"/><path fill="#ff3f2f" d="M154 147h6v10h-6zM160 147h6v10h-6zM172 147h6v10h-6zM184 147h6v10h-6zM190 147h6v10h-6zM202 147h6v10h-6zM202 157h6v10h-6zM202 167h6v10h-6zM184 177h6v10h-6zM178 177h6v10h-6zM172 177h6v10h-6zM148 177h6v10h-6zM148 167h6v10h-6z"/><path fill="#2f3fbf" d="M214 147h6v10h-6zM244 147h6v10h-6zM262 157h6v10h-6zM262 167h6v10h-6zM256 177h6v10h-6zM250 177h6v10h-6zM244 177h6v10h-6zM238 177h6v10h-6zM220 177h6v10h-6zM208 167h6v10h-6z"/><path fill="#2f3fbf" d="M52 187h6v10h-6zM82 217h6v10h-6zM76 217h6v10h-6zM46 217h6v10h-6zM34 217h6v10h-6zM28 207h6v10h-6z"/><path fill="#e7be00" d="M88 187h6v10h-6zM94 187h6v10h-6zM106 187h6v10h-6zM112 187h6v10h-6zM118 187h6v10h-6zM124 187h6v10h-6zM130 187h6v10h-6zM136 187h6v10h-6zM142 197h6v10h-6zM136 217h6v10h-6zM130 217h6v10h-6zM112 217h6v10h-6zM106 217h6v10h-6zM100 217h6v10h-6zM94 217h6v10h-6zM88 197h6v10h-6z"/><path fill="#2f3fbf" d="M160 187h6v10h-6zM166 187h6v10h-6zM172 187h6v10h-6zM190 187h6v10h-6zM196 187h6v10h-6zM202 197h6v10h-6zM202 217h6v10h-6zM184 217h6v10h-6zM178 217h6v10h-6zM172 217h6v10h-6zM160 217h6v10h-6zM148 217h6v10h-6zM148 197h6v10h-6z"/><path fill="#2f3fbf" d="M34 227h6v10h-6zM58 227h6v10h-6zM64 227h6v10h-6zM82 247h6v10h-6zM64 257h6v10h-6zM46 257h6v10h-6zM40 257h6v10h-6zM28 247h6v10h-6zM28 237h6v10h-6z"/><path fill="#2f3fbf" d="M100 227h6v10h-6zM112 227h6v10h-6zM130 227h6v10h-6zM136 227h6v10h-6zM142 257h6v10h-6zM136 257h6v10h-6zM112 257h6v10h-6zM94 257h6v10h-6zM88 257h6v10h-6zM88 237h6v10h-6z"/><path fill="#e7be00" d="M166 227h6v10h-6zM178 227h6v10h-6zM184 227h6v10h-6zM190 227h6v10h-6zM202 227h6v10h-6zM202 237h6v10h-6zM196 257h6v10h-6zM190 257h6v10h-6zM172 257h6v10h-6zM148 247h6v10h-6zM148 237h6v10h-6z"/></g><g clip-path="url(#grid-clip-6174b7b4577e8f2c-4x6)" data-channel="ellipse" data-ellipse-anchor-x="148" data-ellipse-anchor-y="227" data-ellipse-rx="68.106" data-ellipse-ry="135.278" data-ellipse-rotation-deg="72"><ellipse cx="148" cy="227" rx="68.106" ry="135.278" transform="rotate(72 148 227)" fill="#000000" stroke="#000000" fill-opacity="0.2" stroke-opacity="0.3" stroke-width="2"/></g><g><g data-channel="cell" data-cell-index="0" data-cell-row="0" data-cell-col="0" data-surround-bits="0x6174b7" data-edge-color="#000000"><rect x="34" y="37" width="48" height="20" fill="#9f2008"/><text x="58" y="47" fill="#ffffff" font-size="16" text-anchor="middle" dominant-baseline="central">CCCf</text></g><g data-channel="cell" data-cell-index="1" data-cell-row="0" data-cell-col="1" data-surround-bits="0xb4577e" data-edge-color="#2f3fbf" data-cell-quartile="1"><rect x="94" y="37" width="48" height="20" fill="#81d086"/><text x="118" y="47" fill="#000000" font-size="16" text-anchor="middle" dominant-baseline="central">htCB</text><polygon points="94,37 104,37 94,47" fill="#000000"/></g><g data-channel="cell" data-cell-index="2" data-cell-row="0" data-cell-col="2" data-cell-blank="true" data-cell-blank-map="true"><rect x="154" y="37" width="48" height="20" rx="10" ry="10" fill="#e7be00" stroke="#000000" stroke-width="1"/><circle cx="196" cy="48.667" r="3.5" fill="#1d4ed8" data-blank-map-min="3,3"/><path d="M 191.8,42 H 200.2 M 196,37.8 V 46.2" fill="none" stroke="#d62828" stroke-width="1.925" stroke-linecap="butt" data-blank-map-max="1,3"/></g><g data-channel="cell" data-cell-index="3" data-cell-row="0" data-cell-col="3" data-surround-bits="0x8f2c48" data-edge-color="#e7be00" data-cell-quartile="2"><rect x="214" y="37" width="48" height="20" fill="#7d4c88"/><text x="238" y="47" fill="#ffffff" font-size="16" text-anchor="middle" dominant-baseline="central">iEx9</text><polygon points="262,37 252,37 262,47" fill="#ffffff"/></g><g data-channel="cell" data-cell-index="4" data-cell-row="1" data-cell-col="0" data-surround-bits="0xbf936d" data-edge-color="#2f3fbf"><rect x="34" y="77" width="48" height="20" fill="#2f9a65"/><text x="58" y="87" fill="#000000" font-size="16" text-anchor="middle" dominant-baseline="central">ZZov</text></g><g data-channel="cell" data-cell-index="5" data-cell-row="1" data-cell-col="1" data-surround-bits="0x4b9984" data-edge-color="#2f3fbf"><rect x="94" y="77" width="48" height="20" fill="#c5a0ea"/><text x="118" y="87" fill="#000000" font-size="16" text-anchor="middle" dominant-baseline="central">6qDF</text></g><g data-channel="cell" data-cell-index="6" data-cell-row="1" data-cell-col="2" data-cell-blank="true"><rect x="154" y="77" width="48" height="20" rx="10" ry="10" fill="#e7be00" stroke="#000000" stroke-width="1"/></g><g data-channel="cell" data-cell-index="7" data-cell-row="1" data-cell-col="3" data-surround-bits="0xd42610" data-edge-color="#e7be00"><rect x="214" y="77" width="48" height="20" fill="#15d05a"/><text x="238" y="87" fill="#000000" font-size="16" text-anchor="middle" dominant-baseline="central">WtAV</text></g><g data-channel="cell" data-cell-index="8" data-cell-row="2" data-cell-col="0" data-surround-bits="0x9893cb" data-edge-color="#ff3f2f"><rect x="34" y="117" width="48" height="20" fill="#d0869f"/><text x="58" y="127" fill="#000000" font-size="16" text-anchor="middle" dominant-baseline="central">n4bQ</text></g><g data-channel="cell" data-cell-index="9" data-cell-row="2" data-cell-col="1" data-surround-bits="0x78d971" data-edge-color="#2f3fbf"><rect x="94" y="117" width="48" height="20" fill="#4c8881"/><text x="118" y="127" fill="#ffffff" font-size="16" text-anchor="middle" dominant-baseline="central">gYhM</text></g><g data-channel="cell" data-cell-index="10" data-cell-row="2" data-cell-col="2" data-cell-fingerprint="true" data-surround-bits="0x8c4162" data-edge-color="#e7be00"><rect x="154" y="117" width="48" height="20" fill="#ffffff"/><rect x="154.5" y="117.5" width="47" height="19" fill="none" stroke="#e7be00" stroke-width="1"/><text x="178" y="127" fill="#000000" font-size="13.333" text-anchor="middle" dominant-baseline="central">49swg</text></g><g data-channel="cell" data-cell-index="11" data-cell-row="2" data-cell-col="3" data-cell-fingerprint="true" data-surround-bits="0xa2bdd1" data-edge-color="#e7be00"><rect x="214" y="117" width="48" height="20" fill="#ffffff"/><rect x="214.5" y="117.5" width="47" height="19" fill="none" stroke="#e7be00" stroke-width="1"/><text x="238" y="127" fill="#000000" font-size="13.333" text-anchor="middle" dominant-baseline="central">941ec</text></g><g data-channel="cell" data-cell-index="12" data-cell-row="3" data-cell-col="0" data-cell-fingerprint="true" data-surround-bits="0x4dd32c" data-edge-color="#e7be00"><rect x="34" y="157" width="48" height="20" fill="#ffffff"/><rect x="34.5" y="157.5" width="47" height="19" fill="none" stroke="#e7be00" stroke-width="1"/><text x="58" y="167" fill="#000000" font-size="13.333" text-anchor="middle" dominant-baseline="central">536be</text></g><g data-channel="cell" data-cell-index="13" data-cell-row="3" data-cell-col="1" data-cell-fingerprint="true" data-surround-bits="0x974cf1" data-edge-color="#e7be00"><rect x="94" y="157" width="48" height="20" fill="#ffffff"/><rect x="94.5" y="157.5" width="47" height="19" fill="none" stroke="#e7be00" stroke-width="1"/><text x="118" y="167" fill="#000000" font-size="13.333" text-anchor="middle" dominant-baseline="central">2kr70</text></g><g data-channel="cell" data-cell-index="14" data-cell-row="3" data-cell-col="2" data-surround-bits="0x638ed6" data-edge-color="#ff3f2f"><rect x="154" y="157" width="48" height="20" fill="#ea2f9a"/><text x="178" y="167" fill="#000000" font-size="16" text-anchor="middle" dominant-baseline="central">mi_q</text></g><g data-channel="cell" data-cell-index="15" data-cell-row="3" data-cell-col="3" data-surround-bits="0x49ec42" data-edge-color="#2f3fbf"><rect x="214" y="157" width="48" height="20" fill="#5ac5a0"/><text x="238" y="167" fill="#000000" font-size="16" text-anchor="middle" dominant-baseline="central">oMVa</text></g><g data-channel="cell" data-cell-index="16" data-cell-row="4" data-cell-col="0" data-surround-bits="0x543010" data-edge-color="#2f3fbf"><rect x="34" y="197" width="48" height="20" fill="#9f15d0"/><text x="58" y="207" fill="#ffffff" font-size="16" text-anchor="middle" dominant-baseline="central">0BWf</text></g><g data-channel="cell" data-cell-index="17" data-cell-row="4" data-cell-col="1" data-surround-bits="0x9e65fb" data-edge-color="#e7be00"><rect x="94" y="197" width="48" height="20" fill="#81d086"/><text x="118" y="207" fill="#000000" font-size="16" text-anchor="middle" dominant-baseline="central">htCB</text></g><g data-channel="cell" data-cell-index="18" data-cell-row="4" data-cell-col="2" data-surround-bits="0xab959c" data-edge-color="#2f3fbf"><rect x="154" y="197" width="48" height="20" fill="#7d4c88"/><text x="178" y="207" fill="#ffffff" font-size="16" text-anchor="middle" dominant-baseline="central">iEx9</text></g><g data-channel="cell" data-cell-index="19" data-cell-row="4" data-cell-col="3" data-cell-blank="true"><rect x="214" y="197" width="48" height="20" rx="10" ry="10" fill="#000000" stroke="#000000" stroke-width="1"/></g><g data-channel="cell" data-cell-index="20" data-cell-row="5" data-cell-col="0" data-surround-bits="0xcc8862" data-edge-color="#2f3fbf"><rect x="34" y="237" width="48" height="20" fill="#2f9a65"/><text x="58" y="247" fill="#000000" font-size="16" text-anchor="middle" dominant-baseline="central">ZZov</text></g><g data-channel="cell" data-cell-index="21" data-cell-row="5" data-cell-col="1" data-surround-bits="0xb23194" data-edge-color="#2f3fbf" data-cell-quartile="3"><rect x="94" y="237" width="48" height="20" fill="#c5a0ea"/><text x="118" y="247" fill="#000000" font-size="16" text-anchor="middle" dominant-baseline="central">6qDF</text><polygon points="142,257 142,247 132,257" fill="#000000"/></g><g data-channel="cell" data-cell-index="22" data-cell-row="5" data-cell-col="2" data-surround-bits="0xc266e8" data-edge-color="#e7be00" data-cell-quartile="4"><rect x="154" y="237" width="48" height="20" fill="#15d05a"/><text x="178" y="247" fill="#000000" font-size="16" text-anchor="middle" dominant-baseline="central">WtAV</text><polygon points="154,257 154,247 164,257" fill="#000000"/></g><g data-channel="cell" data-cell-index="23" data-cell-row="5" data-cell-col="3" data-cell-blank="true"><rect x="214" y="237" width="48" height="20" rx="10" ry="10" fill="#e7be00" stroke="#000000" stroke-width="1"/></g></g></g><g data-channel="color-bar" data-bar-slots="16" data-bar-marker-left="3" data-bar-marker-right="8"><g data-color-bar-rank="0" data-color-bar-band="R"><rect x="2" y="2" width="20" height="88.729" fill="#ff3f2f"/><text x="12" y="87.209" fill="#000000" font-size="16" text-anchor="middle" data-color-bar-letter="true">r</text></g><g data-color-bar-rank="1" data-color-bar-band="G"><rect x="2" y="90.729" width="20" height="74.276" fill="#e7be00"/><text x="12" y="161.485" fill="#000000" font-size="16" text-anchor="middle" data-color-bar-letter="true">g</text></g><g data-color-bar-rank="2" data-color-bar-band="B"><rect x="2" y="165.005" width="20" height="65.674" fill="#2f3fbf"/><text x="12" y="227.159" fill="#ffffff" font-size="16" text-anchor="middle" data-color-bar-letter="true">b</text></g><g data-color-bar-rank="3" data-color-bar-band="K"><rect x="2" y="230.679" width="20" height="41.321" fill="#000000"/><text x="12" y="268.48" fill="#ffffff" font-size="16" text-anchor="middle" data-color-bar-letter="true">k</text></g><circle cx="6.6" cy="61.062" r="3.4" fill="#ffffff" stroke="#000000" stroke-width="0.75" data-bar-marker="left"/><circle cx="17.4" cy="145.438" r="3.4" fill="#ffffff" stroke="#000000" stroke-width="0.75" data-bar-marker="right"/></g><g data-channel="label-top"><text x="28" y="17" fill="#666666" font-size="12" dominant-baseline="central"><tspan fill="#a00000" font-weight="bold">+hash </tspan>CESR, secp256k1 idx sig</text></g><line x1="1" y1="1.5" x2="274" y2="1.5" stroke="#808080" stroke-width="1" shape-rendering="crispEdges"/><line x1="273.5" y1="1" x2="273.5" y2="273" stroke="#808080" stroke-width="1" shape-rendering="crispEdges"/><line x1="1" y1="272.5" x2="274" y2="272.5" stroke="#808080" stroke-width="1" shape-rendering="crispEdges"/><line x1="1.5" y1="1" x2="1.5" y2="273" stroke="#808080" stroke-width="1" shape-rendering="crispEdges"/><line x1="22.5" y1="1" x2="22.5" y2="273" stroke="#808080" stroke-width="1" shape-rendering="crispEdges"/></svg>