<svg width="153" height="112" viewBox="0 0 153 112" xmlns="http://www.w3.org/2000/svg" font-family="&quot;JetBrains Mono&quot;, &quot;Menlo&quot;, &quot;Consolas&quot;, &quot;DejaVu Sans Mono&quot;, &quot;Liberation Mono&quot;, &quot;Roboto Mono&quot;, &quot;Noto Sans Mono&quot;, monospace" data-entviz-version="v10" data-entviz-lib="0.10.0" data-input-bytes="19" data-cols="2" data-rows="2"><defs><clipPath id="grid-clip-c2e5f90a143dae44-2x2"><rect x="27" y="26" width="120" height="80"/></clipPath></defs><rect x="0" y="0" width="153" height="112" fill="#ffffff"/><g data-channel="grid"><rect x="27" y="26" width="120" height="80" fill="#ffffff"/><g><rect x="27" y="26" width="6" height="10" fill="#ff3f2f"/><rect x="45" y="26" width="6" height="10" fill="#ff3f2f"/><rect x="51" y="26" width="6" height="10" fill="#ff3f2f"/><rect x="57" y="26" width="6" height="10" fill="#ff3f2f"/><rect x="63" y="26" width="6" height="10" fill="#ff3f2f"/><rect x="69" y="26" width="6" height="10" fill="#ff3f2f"/><rect x="75" y="26" width="6" height="10" fill="#ff3f2f"/><rect x="81" y="36" width="6" height="10" fill="#ff3f2f"/><rect x="75" y="56" width="6" height="10" fill="#ff3f2f"/><rect x="69" y="56" width="6" height="10" fill="#ff3f2f"/><rect x="63" y="56" width="6" height="10" fill="#ff3f2f"/><rect x="51" y="56" width="6" height="10" fill="#ff3f2f"/><rect x="27" y="46" width="6" height="10" fill="#ff3f2f"/><rect x="27" y="36" width="6" height="10" fill="#ff3f2f"/><rect x="87" y="26" width="6" height="10" fill="#ff3f2f"/><rect x="99" y="26" width="6" height="10" fill="#ff3f2f"/><rect x="105" y="26" width="6" height="10" fill="#ff3f2f"/><rect x="111" y="26" width="6" height="10" fill="#ff3f2f"/><rect x="117" y="26" width="6" height="10" fill="#ff3f2f"/><rect x="141" y="36" width="6" height="10" fill="#ff3f2f"/><rect x="141" y="56" width="6" height="10" fill="#ff3f2f"/><rect x="111" y="56" width="6" height="10" fill="#ff3f2f"/><rect x="99" y="56" width="6" height="10" fill="#ff3f2f"/><rect x="39" y="66" width="6" height="10" fill="#2f3fbf"/><rect x="51" y="66" width="6" height="10" fill="#2f3fbf"/><rect x="69" y="66" width="6" height="10" fill="#2f3fbf"/><rect x="81" y="76" width="6" height="10" fill="#2f3fbf"/><rect x="69" y="96" width="6" height="10" fill="#2f3fbf"/><rect x="51" y="96" width="6" height="10" fill="#2f3fbf"/><rect x="45" y="96" width="6" height="10" fill="#2f3fbf"/><rect x="39" y="96" width="6" height="10" fill="#2f3fbf"/><rect x="27" y="96" width="6" height="10" fill="#2f3fbf"/><rect x="27" y="76" width="6" height="10" fill="#2f3fbf"/><rect x="99" y="66" width="6" height="10" fill="#000000"/><rect x="117" y="66" width="6" height="10" fill="#000000"/><rect x="141" y="66" width="6" height="10" fill="#000000"/><rect x="141" y="76" width="6" height="10" fill="#000000"/><rect x="141" y="96" width="6" height="10" fill="#000000"/><rect x="129" y="96" width="6" height="10" fill="#000000"/><rect x="117" y="96" width="6" height="10" fill="#000000"/><rect x="111" y="96" width="6" height="10" fill="#000000"/><rect x="99" y="96" width="6" height="10" fill="#000000"/><rect x="93" y="96" width="6" height="10" fill="#000000"/><rect x="87" y="86" width="6" height="10" fill="#000000"/></g><g clip-path="url(#grid-clip-c2e5f90a143dae44-2x2)" data-channel="ellipse" data-ellipse-anchor-x="87" data-ellipse-anchor-y="26" data-ellipse-rx="43.6" data-ellipse-ry="34" data-ellipse-rotation-deg="72"><ellipse cx="87" cy="26" rx="43.6" ry="34" transform="rotate(72 87 26)" fill="#000000" stroke="#000000" fill-opacity="0.2" stroke-opacity="0.3" stroke-width="2"/></g><g><g data-channel="cell" data-cell-index="0" data-cell-row="0" data-cell-col="0" data-cell-quartile="1"><rect x="33" y="36" width="48" height="20" fill="#563412"/><text x="57" y="46" fill="#ffffff" font-size="12" text-anchor="middle" dominant-baseline="central">123456</text><polygon points="33,36 43,36 33,46" fill="#ffffff"/></g><g data-channel="cell" data-cell-index="1" data-cell-row="0" data-cell-col="1" data-cell-quartile="2"><rect x="93" y="36" width="48" height="20" fill="#989078"/><text x="117" y="46" fill="#000000" font-size="12" text-anchor="middle" dominant-baseline="central">789098</text><polygon points="141,36 131,36 141,46" fill="#000000"/></g><g data-channel="cell" data-cell-index="2" data-cell-row="1" data-cell-col="0" data-cell-quartile="3"><rect x="33" y="76" width="48" height="20" fill="#325476"/><text x="57" y="86" fill="#ffffff" font-size="12" text-anchor="middle" dominant-baseline="central">765432</text><polygon points="81,96 81,86 71,96" fill="#ffffff"/></g><g data-channel="cell" data-cell-index="3" data-cell-row="1" data-cell-col="1" data-cell-quartile="4"><rect x="93" y="76" width="48" height="20" fill="#222222"/><text x="117" y="86" fill="#ffffff" font-size="12" text-anchor="middle" dominant-baseline="central">2</text><polygon points="93,96 93,86 103,96" fill="#ffffff"/></g></g></g><g data-channel="color-bar" data-bar-slots="9" data-bar-marker-left="3" data-bar-marker-right="4"><g data-color-bar-rank="0" data-color-bar-band="B"><rect x="1" y="1" width="20" height="34.711" fill="#2f3fbf"/><text x="11" y="33.071" fill="#ffffff" font-size="12" text-anchor="middle" data-color-bar-letter="true">b</text></g><g data-color-bar-rank="1" data-color-bar-band="G"><rect x="1" y="35.711" width="20" height="22.478" fill="#e7be00"/><text x="11" y="55.549" fill="#000000" font-size="12" text-anchor="middle" data-color-bar-letter="true">g</text></g><g data-color-bar-rank="2" data-color-bar-band="K"><rect x="1" y="58.189" width="20" height="25.574" fill="#000000"/><text x="11" y="81.123" fill="#ffffff" font-size="12" text-anchor="middle" data-color-bar-letter="true">k</text></g><g data-color-bar-rank="3" data-color-bar-band="R"><rect x="1" y="83.763" width="20" height="27.237" fill="#ff3f2f"/><text x="11" y="108.36" fill="#000000" font-size="12" text-anchor="middle" data-color-bar-letter="true">r</text></g><circle cx="5.6" cy="43.778" r="3.4" fill="#ffffff" stroke="#000000" stroke-width="0.75" data-bar-marker="left"/><circle cx="16.4" cy="56" r="3.4" fill="#ffffff" stroke="#000000" stroke-width="0.75" data-bar-marker="right"/></g><g data-channel="label-top"><text x="27" y="16" fill="#666666" font-size="12" dominant-baseline="central">snowflake:</text></g><line x1="0" y1="0.5" x2="153" y2="0.5" stroke="#808080" stroke-width="1" shape-rendering="crispEdges"/><line x1="152.5" y1="0" x2="152.5" y2="112" stroke="#808080" stroke-width="1" shape-rendering="crispEdges"/><line x1="0" y1="111.5" x2="153" y2="111.5" stroke="#808080" stroke-width="1" shape-rendering="crispEdges"/><line x1="0.5" y1="0" x2="0.5" y2="112" stroke="#808080" stroke-width="1" shape-rendering="crispEdges"/><line x1="21.5" y1="0" x2="21.5" y2="112" stroke="#808080" stroke-width="1" shape-rendering="crispEdges"/></svg>