<svg width="153" height="112" viewBox="0 0 153 112" xmlns="http://www.w3.org/2000/svg" font-family="&quot;JetBrains Mono&quot;, &quot;Menlo&quot;, &quot;Consolas&quot;, &quot;DejaVu Sans Mono&quot;, &quot;Liberation Mono&quot;, &quot;Roboto Mono&quot;, &quot;Noto Sans Mono&quot;, monospace" data-entviz-version="v11" data-entviz-lib="0.10.0" data-input-bytes="19" data-cols="2" data-rows="2"><defs><clipPath id="grid-clip-c2e5f90a143dae44-2x2"><rect x="27" y="26" width="120" height="80"/></clipPath></defs><rect x="0" y="0" width="153" height="112" fill="#ffffff"/><g data-channel="grid"><rect x="27" y="26" width="120" height="80" fill="#ffffff"/><g><path fill="#ff3f2f" d="M27 26h6v10h-6zM45 26h6v10h-6zM51 26h6v10h-6zM57 26h6v10h-6zM63 26h6v10h-6zM69 26h6v10h-6zM75 26h6v10h-6zM81 36h6v10h-6zM75 56h6v10h-6zM69 56h6v10h-6zM63 56h6v10h-6zM51 56h6v10h-6zM27 46h6v10h-6zM27 36h6v10h-6z"/><path fill="#ff3f2f" d="M87 26h6v10h-6zM99 26h6v10h-6zM105 26h6v10h-6zM111 26h6v10h-6zM117 26h6v10h-6zM141 36h6v10h-6zM141 56h6v10h-6zM111 56h6v10h-6zM99 56h6v10h-6z"/><path fill="#2f3fbf" d="M39 66h6v10h-6zM51 66h6v10h-6zM69 66h6v10h-6zM81 76h6v10h-6zM69 96h6v10h-6zM51 96h6v10h-6zM45 96h6v10h-6zM39 96h6v10h-6zM27 96h6v10h-6zM27 76h6v10h-6z"/><path fill="#000000" d="M99 66h6v10h-6zM117 66h6v10h-6zM141 66h6v10h-6zM141 76h6v10h-6zM141 96h6v10h-6zM129 96h6v10h-6zM117 96h6v10h-6zM111 96h6v10h-6zM99 96h6v10h-6zM93 96h6v10h-6zM87 86h6v10h-6z"/></g><g clip-path="url(#grid-clip-c2e5f90a143dae44-2x2)" data-channel="ellipse" data-ellipse-anchor-x="87" data-ellipse-anchor-y="26" data-ellipse-rx="43.6" data-ellipse-ry="34" data-ellipse-rotation-deg="72"><ellipse cx="87" cy="26" rx="43.6" ry="34" transform="rotate(72 87 26)" fill="#000000" stroke="#000000" fill-opacity="0.2" stroke-opacity="0.3" stroke-width="2"/></g><g><g data-channel="cell" data-cell-index="0" data-cell-row="0" data-cell-col="0" data-surround-bits="0xc2e5f9" data-edge-color="#ff3f2f" data-cell-quartile="1"><rect x="33" y="36" width="48" height="20" fill="#563412"/><text x="57" y="46" fill="#ffffff" font-size="12" text-anchor="middle" dominant-baseline="central">123456</text><polygon points="33,36 43,36 33,46" fill="#ffffff"/></g><g data-channel="cell" data-cell-index="1" data-cell-row="0" data-cell-col="1" data-surround-bits="0xa143d" data-edge-color="#ff3f2f" data-cell-quartile="2"><rect x="93" y="36" width="48" height="20" fill="#989078"/><text x="117" y="46" fill="#000000" font-size="12" text-anchor="middle" dominant-baseline="central">789098</text><polygon points="141,36 131,36 141,46" fill="#000000"/></g><g data-channel="cell" data-cell-index="2" data-cell-row="1" data-cell-col="0" data-surround-bits="0xae4494" data-edge-color="#2f3fbf" data-cell-quartile="3"><rect x="33" y="76" width="48" height="20" fill="#325476"/><text x="57" y="86" fill="#ffffff" font-size="12" text-anchor="middle" dominant-baseline="central">765432</text><polygon points="81,96 81,86 71,96" fill="#ffffff"/></g><g data-channel="cell" data-cell-index="3" data-cell-row="1" data-cell-col="1" data-surround-bits="0x5b5624" data-edge-color="#000000" data-cell-quartile="4"><rect x="93" y="76" width="48" height="20" fill="#222222"/><text x="117" y="86" fill="#ffffff" font-size="12" text-anchor="middle" dominant-baseline="central">2</text><polygon points="93,96 93,86 103,96" fill="#ffffff"/></g></g></g><g data-channel="color-bar" data-bar-slots="9" data-bar-marker-left="3" data-bar-marker-right="4"><g data-color-bar-rank="0" data-color-bar-band="B"><rect x="1" y="1" width="20" height="34.711" fill="#2f3fbf"/><text x="11" y="33.071" fill="#ffffff" font-size="12" text-anchor="middle" data-color-bar-letter="true">b</text></g><g data-color-bar-rank="1" data-color-bar-band="G"><rect x="1" y="35.711" width="20" height="22.478" fill="#e7be00"/><text x="11" y="55.549" fill="#000000" font-size="12" text-anchor="middle" data-color-bar-letter="true">g</text></g><g data-color-bar-rank="2" data-color-bar-band="K"><rect x="1" y="58.189" width="20" height="25.574" fill="#000000"/><text x="11" y="81.123" fill="#ffffff" font-size="12" text-anchor="middle" data-color-bar-letter="true">k</text></g><g data-color-bar-rank="3" data-color-bar-band="R"><rect x="1" y="83.763" width="20" height="27.237" fill="#ff3f2f"/><text x="11" y="108.36" fill="#000000" font-size="12" text-anchor="middle" data-color-bar-letter="true">r</text></g><circle cx="5.6" cy="43.778" r="3.4" fill="#ffffff" stroke="#000000" stroke-width="0.75" data-bar-marker="left"/><circle cx="16.4" cy="56" r="3.4" fill="#ffffff" stroke="#000000" stroke-width="0.75" data-bar-marker="right"/></g><g data-channel="label-top"><text x="27" y="16" fill="#666666" font-size="12" dominant-baseline="central">snowflake:</text></g><line x1="0" y1="0.5" x2="153" y2="0.5" stroke="#808080" stroke-width="1" shape-rendering="crispEdges"/><line x1="152.5" y1="0" x2="152.5" y2="112" stroke="#808080" stroke-width="1" shape-rendering="crispEdges"/><line x1="0" y1="111.5" x2="153" y2="111.5" stroke="#808080" stroke-width="1" shape-rendering="crispEdges"/><line x1="0.5" y1="0" x2="0.5" y2="112" stroke="#808080" stroke-width="1" shape-rendering="crispEdges"/><line x1="21.5" y1="0" x2="21.5" y2="112" stroke="#808080" stroke-width="1" shape-rendering="crispEdges"/></svg>