<svg width="153.0" height="172.0" viewBox="0 0 153.0 172.0" xmlns="http://www.w3.org/2000/svg" data-entviz-version="v10" data-entviz-lib="0.10.0" data-input-bytes="20" data-cols="2" data-rows="3"><defs><clipPath id="grid-clip-f25bd400635b615d-2x3"><rect x="27.0" y="26.0" width="120.0" height="120.0"/></clipPath></defs><rect x="0" y="0" width="153.0" height="172.0" fill="#ffffff"/><g data-channel="grid"><rect x="27.0" y="26.0" width="120.0" height="120.0" fill="#ffffff"/><g><rect x="39.0" y="26.0" width="6.0" height="10.0" fill="#e7be00"/><rect x="51.0" y="26.0" width="6.0" height="10.0" fill="#e7be00"/><rect x="63.0" y="26.0" width="6.0" height="10.0" fill="#e7be00"/><rect x="69.0" y="26.0" width="6.0" height="10.0" fill="#e7be00"/><rect x="75.0" y="26.0" width="6.0" height="10.0" fill="#e7be00"/><rect x="81.0" y="26.0" width="6.0" height="10.0" fill="#e7be00"/><rect x="81.0" y="46.0" width="6.0" height="10.0" fill="#e7be00"/><rect x="81.0" y="56.0" width="6.0" height="10.0" fill="#e7be00"/><rect x="69.0" y="56.0" width="6.0" height="10.0" fill="#e7be00"/><rect x="51.0" y="56.0" width="6.0" height="10.0" fill="#e7be00"/><rect x="33.0" y="56.0" width="6.0" height="10.0" fill="#e7be00"/><rect x="27.0" y="56.0" width="6.0" height="10.0" fill="#e7be00"/><rect x="27.0" y="46.0" width="6.0" height="10.0" fill="#e7be00"/><rect x="27.0" y="36.0" width="6.0" height="10.0" fill="#e7be00"/><rect x="87.0" y="26.0" width="6.0" height="10.0" fill="#000000"/><rect x="93.0" y="26.0" width="6.0" height="10.0" fill="#000000"/><rect x="105.0" y="26.0" width="6.0" height="10.0" fill="#000000"/><rect x="111.0" y="26.0" width="6.0" height="10.0" fill="#000000"/><rect x="123.0" y="26.0" width="6.0" height="10.0" fill="#000000"/><rect x="135.0" y="26.0" width="6.0" height="10.0" fill="#000000"/><rect x="141.0" y="26.0" width="6.0" height="10.0" fill="#000000"/><rect x="135.0" y="56.0" width="6.0" height="10.0" fill="#000000"/><rect x="129.0" y="56.0" width="6.0" height="10.0" fill="#000000"/><rect x="39.0" y="66.0" width="6.0" height="10.0" fill="#e7be00"/><rect x="45.0" y="66.0" width="6.0" height="10.0" fill="#e7be00"/><rect x="75.0" y="66.0" width="6.0" height="10.0" fill="#e7be00"/><rect x="81.0" y="76.0" width="6.0" height="10.0" fill="#e7be00"/><rect x="81.0" y="86.0" width="6.0" height="10.0" fill="#e7be00"/><rect x="81.0" y="96.0" width="6.0" height="10.0" fill="#e7be00"/><rect x="69.0" y="96.0" width="6.0" height="10.0" fill="#e7be00"/><rect x="57.0" y="96.0" width="6.0" height="10.0" fill="#e7be00"/><rect x="27.0" y="96.0" width="6.0" height="10.0" fill="#e7be00"/><rect x="27.0" y="86.0" width="6.0" height="10.0" fill="#e7be00"/><rect x="51.0" y="106.0" width="6.0" height="10.0" fill="#e7be00"/><rect x="63.0" y="106.0" width="6.0" height="10.0" fill="#e7be00"/><rect x="81.0" y="116.0" width="6.0" height="10.0" fill="#e7be00"/><rect x="81.0" y="126.0" width="6.0" height="10.0" fill="#e7be00"/><rect x="75.0" y="136.0" width="6.0" height="10.0" fill="#e7be00"/><rect x="69.0" y="136.0" width="6.0" height="10.0" fill="#e7be00"/><rect x="63.0" y="136.0" width="6.0" height="10.0" fill="#e7be00"/><rect x="39.0" y="136.0" width="6.0" height="10.0" fill="#e7be00"/><rect x="27.0" y="136.0" width="6.0" height="10.0" fill="#e7be00"/><rect x="99.0" y="106.0" width="6.0" height="10.0" fill="#e7be00"/><rect x="105.0" y="106.0" width="6.0" height="10.0" fill="#e7be00"/><rect x="117.0" y="106.0" width="6.0" height="10.0" fill="#e7be00"/><rect x="123.0" y="106.0" width="6.0" height="10.0" fill="#e7be00"/><rect x="129.0" y="106.0" width="6.0" height="10.0" fill="#e7be00"/><rect x="141.0" y="106.0" width="6.0" height="10.0" fill="#e7be00"/><rect x="141.0" y="116.0" width="6.0" height="10.0" fill="#e7be00"/><rect x="129.0" y="136.0" width="6.0" height="10.0" fill="#e7be00"/><rect x="123.0" y="136.0" width="6.0" height="10.0" fill="#e7be00"/><rect x="117.0" y="136.0" width="6.0" height="10.0" fill="#e7be00"/><rect x="111.0" y="136.0" width="6.0" height="10.0" fill="#e7be00"/><rect x="105.0" y="136.0" width="6.0" height="10.0" fill="#e7be00"/><rect x="99.0" y="136.0" width="6.0" height="10.0" fill="#e7be00"/><rect x="87.0" y="136.0" width="6.0" height="10.0" fill="#e7be00"/><rect x="87.0" y="116.0" width="6.0" height="10.0" fill="#e7be00"/></g><g clip-path="url(#grid-clip-f25bd400635b615d-2x3)" data-channel="ellipse" data-ellipse-anchor-x="27.0" data-ellipse-anchor-y="146.0" data-ellipse-rx="57.69991334482228" data-ellipse-ry="45.48110816591874" data-ellipse-rotation-deg="84.0"><ellipse cx="27.0" cy="146.0" rx="57.69991334482228" ry="45.48110816591874" transform="rotate(84.0 27.0 146.0)" fill="#000000" stroke="#000000" fill-opacity="0.2" stroke-opacity="0.3" stroke-width="2.0"/></g><g><g data-channel="cell" data-cell-index="0" data-cell-row="0" data-cell-col="0" data-cell-quartile="2"><rect x="33.0" y="36.0" width="48.0" height="20.0" fill="#434214"/><text x="57.0" y="46.0" fill="#ffffff" style="font-family: &quot;JetBrains Mono&quot;, &quot;Menlo&quot;, &quot;Consolas&quot;, &quot;DejaVu Sans Mono&quot;, &quot;Liberation Mono&quot;, &quot;Roboto Mono&quot;, &quot;Noto Sans Mono&quot;, monospace; font-size: 16.0px;" text-anchor="middle" dominant-baseline="central">5493</text><polygon points="81.0,36.0 71.0,36.0 81.0,46.0" fill="#ffffff"/></g><g data-channel="cell" data-cell-index="1" data-cell-row="0" data-cell-col="1"><rect x="93.0" y="36.0" width="48.0" height="20.0" fill="#540000"/><text x="117.0" y="46.0" fill="#ffffff" style="font-family: &quot;JetBrains Mono&quot;, &quot;Menlo&quot;, &quot;Consolas&quot;, &quot;DejaVu Sans Mono&quot;, &quot;Liberation Mono&quot;, &quot;Roboto Mono&quot;, &quot;Noto Sans Mono&quot;, monospace; font-size: 16.0px;" text-anchor="middle" dominant-baseline="central">001K</text></g><g data-channel="cell" data-cell-index="2" data-cell-row="1" data-cell-col="0" data-cell-quartile="1"><rect x="33.0" y="76.0" width="48.0" height="20.0" fill="#92d44d"/><text x="57.0" y="86.0" fill="#000000" style="font-family: &quot;JetBrains Mono&quot;, &quot;Menlo&quot;, &quot;Consolas&quot;, &quot;DejaVu Sans Mono&quot;, &quot;Liberation Mono&quot;, &quot;Roboto Mono&quot;, &quot;Noto Sans Mono&quot;, monospace; font-size: 16.0px;" text-anchor="middle" dominant-baseline="central">JTII</text><polygon points="33.0,76.0 43.0,76.0 33.0,86.0" fill="#000000"/></g><g data-channel="cell" data-cell-index="3" data-cell-row="1" data-cell-col="1" data-cell-blank="true" data-cell-blank-map="true"><rect x="93.0" y="76.0" width="48.0" height="20.0" rx="10.0" ry="10.0" fill="#e7be00" stroke="#000000" stroke-width="1"/><circle cx="129.0" cy="79.33333333333333" r="3.5" fill="#000000" data-blank-map-min="0,1"/><path d="M 100.8,79.33333333333333 H 109.2 M 105.0,75.13333333333333 V 83.53333333333333" fill="none" stroke="#000000" stroke-width="1.9250000000000003" stroke-linecap="butt" data-blank-map-max="0,0"/></g><g data-channel="cell" data-cell-index="4" data-cell-row="2" data-cell-col="0"><rect x="33.0" y="116.0" width="48.0" height="20.0" fill="#22c240"/><text x="57.0" y="126.0" fill="#000000" style="font-family: &quot;JetBrains Mono&quot;, &quot;Menlo&quot;, &quot;Consolas&quot;, &quot;DejaVu Sans Mono&quot;, &quot;Liberation Mono&quot;, &quot;Roboto Mono&quot;, &quot;Noto Sans Mono&quot;, monospace; font-size: 16.0px;" text-anchor="middle" dominant-baseline="central">GC8Y</text></g><g data-channel="cell" data-cell-index="5" data-cell-row="2" data-cell-col="1" data-cell-quartile="3"><rect x="93.0" y="116.0" width="48.0" height="20.0" fill="#5bb005"/><text x="117.0" y="126.0" fill="#000000" style="font-family: &quot;JetBrains Mono&quot;, &quot;Menlo&quot;, &quot;Consolas&quot;, &quot;DejaVu Sans Mono&quot;, &quot;Liberation Mono&quot;, &quot;Roboto Mono&quot;, &quot;Noto Sans Mono&quot;, monospace; font-size: 16.0px;" text-anchor="middle" dominant-baseline="central">1R</text><polygon points="141.0,136.0 141.0,126.0 131.0,136.0" fill="#000000"/></g></g></g><g data-channel="color-bar" data-bar-slots="14" data-bar-marker-left="5" data-bar-marker-right="5"><g data-color-bar-rank="0" data-color-bar-band="B"><rect x="1" y="1" width="20.0" height="25.399889410874692" fill="#2f3fbf"/><text x="11.0" y="22.879889410874693" fill="#ffffff" style="font-family: &quot;JetBrains Mono&quot;, &quot;Menlo&quot;, &quot;Consolas&quot;, &quot;DejaVu Sans Mono&quot;, &quot;Liberation Mono&quot;, &quot;Roboto Mono&quot;, &quot;Noto Sans Mono&quot;, monospace; font-size: 16.0px;" text-anchor="middle" data-color-bar-letter="true">b</text></g><g data-color-bar-rank="1" data-color-bar-band="G"><rect x="1" y="26.399889410874692" width="20.0" height="68.33195457857266" fill="#e7be00"/><text x="11.0" y="91.21184398944736" fill="#000000" style="font-family: &quot;JetBrains Mono&quot;, &quot;Menlo&quot;, &quot;Consolas&quot;, &quot;DejaVu Sans Mono&quot;, &quot;Liberation Mono&quot;, &quot;Roboto Mono&quot;, &quot;Noto Sans Mono&quot;, monospace; font-size: 16.0px;" text-anchor="middle" data-color-bar-letter="true">g</text></g><g data-color-bar-rank="2" data-color-bar-band="K"><rect x="1" y="94.73184398944736" width="20.0" height="33.31591482423644" fill="#000000"/><text x="11.0" y="124.5277588136838" fill="#ffffff" style="font-family: &quot;JetBrains Mono&quot;, &quot;Menlo&quot;, &quot;Consolas&quot;, &quot;DejaVu Sans Mono&quot;, &quot;Liberation Mono&quot;, &quot;Roboto Mono&quot;, &quot;Noto Sans Mono&quot;, monospace; font-size: 16.0px;" text-anchor="middle" data-color-bar-letter="true">k</text></g><g data-color-bar-rank="3" data-color-bar-band="R"><rect x="1" y="128.0477588136838" width="20.0" height="42.9522411863162" fill="#ff3f2f"/><text x="11.0" y="167.48" fill="#000000" style="font-family: &quot;JetBrains Mono&quot;, &quot;Menlo&quot;, &quot;Consolas&quot;, &quot;DejaVu Sans Mono&quot;, &quot;Liberation Mono&quot;, &quot;Roboto Mono&quot;, &quot;Noto Sans Mono&quot;, monospace; font-size: 16.0px;" text-anchor="middle" data-color-bar-letter="true">r</text></g><circle cx="5.6000000000000005" cy="67.78571428571428" r="3.4000000000000004" fill="#ffffff" stroke="#000000" stroke-width="0.75" data-bar-marker="left"/><circle cx="16.4" cy="67.78571428571428" r="3.4000000000000004" fill="#ffffff" stroke="#000000" stroke-width="0.75" data-bar-marker="right"/></g><g data-channel="label-top"><text x="27.0" y="16.0" fill="#666666" style="font-family: &quot;JetBrains Mono&quot;, &quot;Menlo&quot;, &quot;Consolas&quot;, &quot;DejaVu Sans Mono&quot;, &quot;Liberation Mono&quot;, &quot;Roboto Mono&quot;, &quot;Noto Sans Mono&quot;, monospace; font-size: 12.0px;" dominant-baseline="central">LEI:</text></g><g data-channel="label-bottom"><text x="147.0" y="156.0" fill="#666666" style="font-family: &quot;JetBrains Mono&quot;, &quot;Menlo&quot;, &quot;Consolas&quot;, &quot;DejaVu Sans Mono&quot;, &quot;Liberation Mono&quot;, &quot;Roboto Mono&quot;, &quot;Noto Sans Mono&quot;, monospace; font-size: 12.0px;" text-anchor="end" dominant-baseline="central">...12</text></g><line x1="0" y1="0.5" x2="153.0" y2="0.5" stroke="#808080" stroke-width="1" shape-rendering="crispEdges"/><line x1="152.5" y1="0" x2="152.5" y2="172.0" stroke="#808080" stroke-width="1" shape-rendering="crispEdges"/><line x1="0" y1="171.5" x2="153.0" y2="171.5" stroke="#808080" stroke-width="1" shape-rendering="crispEdges"/><line x1="0.5" y1="0" x2="0.5" y2="172.0" stroke="#808080" stroke-width="1" shape-rendering="crispEdges"/><line x1="21.5" y1="0" x2="21.5" y2="172.0" stroke="#808080" stroke-width="1" shape-rendering="crispEdges"/></svg>