<svg width="153" height="172" viewBox="0 0 153 172" xmlns="http://www.w3.org/2000/svg" font-family="&quot;JetBrains Mono&quot;, &quot;Menlo&quot;, &quot;Consolas&quot;, &quot;DejaVu Sans Mono&quot;, &quot;Liberation Mono&quot;, &quot;Roboto Mono&quot;, &quot;Noto Sans Mono&quot;, monospace" data-entviz-version="v10" data-entviz-lib="0.10.0" data-input-bytes="20" data-cols="2" data-rows="3"><defs><clipPath id="grid-clip-6795a71d13588655-2x3"><rect x="27" y="26" width="120" height="120"/></clipPath></defs><rect x="0" y="0" width="153" height="172" fill="#ffffff"/><g data-channel="grid"><rect x="27" y="26" width="120" height="120" fill="#2f3fbf"/><g><path fill="#000000" d="M87 26h6v10h-6zM93 26h6v10h-6zM99 26h6v10h-6zM117 26h6v10h-6zM129 26h6v10h-6zM135 26h6v10h-6zM141 36h6v10h-6zM141 56h6v10h-6zM123 56h6v10h-6zM117 56h6v10h-6zM111 56h6v10h-6zM105 56h6v10h-6zM87 56h6v10h-6zM87 46h6v10h-6z"/><path fill="#000000" d="M45 66h6v10h-6zM51 66h6v10h-6zM63 66h6v10h-6zM75 66h6v10h-6zM81 66h6v10h-6zM81 96h6v10h-6zM57 96h6v10h-6zM45 96h6v10h-6zM39 96h6v10h-6zM33 96h6v10h-6z"/><path fill="#e7be00" d="M87 66h6v10h-6zM105 66h6v10h-6zM111 66h6v10h-6zM117 66h6v10h-6zM135 66h6v10h-6zM141 76h6v10h-6zM141 96h6v10h-6zM129 96h6v10h-6zM111 96h6v10h-6zM105 96h6v10h-6zM87 76h6v10h-6z"/><path fill="#e7be00" d="M27 106h6v10h-6zM45 106h6v10h-6zM57 106h6v10h-6zM63 106h6v10h-6zM69 106h6v10h-6zM75 106h6v10h-6zM63 136h6v10h-6zM57 136h6v10h-6zM33 136h6v10h-6zM27 116h6v10h-6z"/><path fill="#e7be00" d="M93 106h6v10h-6zM105 106h6v10h-6zM117 106h6v10h-6zM123 106h6v10h-6zM135 106h6v10h-6zM141 106h6v10h-6zM135 136h6v10h-6zM117 136h6v10h-6zM87 136h6v10h-6zM87 126h6v10h-6zM87 116h6v10h-6z"/></g><g clip-path="url(#grid-clip-6795a71d13588655-2x3)" data-channel="ellipse" data-ellipse-anchor-x="27" data-ellipse-anchor-y="66" data-ellipse-rx="45.574" data-ellipse-ry="45.574" data-ellipse-rotation-deg="60"><ellipse cx="27" cy="66" rx="45.574" ry="45.574" transform="rotate(60 27 66)" fill="#ffffff" stroke="#ffffff" fill-opacity="0.35" stroke-opacity="0.45" stroke-width="2"/></g><g><g data-channel="cell" data-cell-index="0" data-cell-row="0" data-cell-col="0" data-cell-blank="true" data-cell-blank-map="true"><rect x="33" y="36" width="48" height="20" rx="10" ry="10" fill="#ff3f2f" stroke="#000000" stroke-width="1"/><circle cx="45" cy="46" r="3.5" fill="#000000" data-blank-map-min="1,0"/><path d="M 64.8,52.667 H 73.2 M 69,48.467 V 56.867" fill="none" stroke="#000000" stroke-width="1.925" stroke-linecap="butt" data-blank-map-max="2,1"/></g><g data-channel="cell" data-cell-index="1" data-cell-row="0" data-cell-col="1" data-surround-bits="0x6795a7" data-edge-color="#000000" data-cell-quartile="2"><rect x="93" y="36" width="48" height="20" fill="#492214"/><text x="117" y="46" fill="#ffffff" font-size="16" text-anchor="middle" dominant-baseline="central">5299</text><polygon points="141,36 131,36 141,46" fill="#ffffff"/></g><g data-channel="cell" data-cell-index="2" data-cell-row="1" data-cell-col="0" data-surround-bits="0x1d1358" data-edge-color="#000000"><rect x="33" y="76" width="48" height="20" fill="#480700"/><text x="57" y="86" fill="#ffffff" font-size="16" text-anchor="middle" dominant-baseline="central">00T8</text></g><g data-channel="cell" data-cell-index="3" data-cell-row="1" data-cell-col="1" data-surround-bits="0x865539" data-edge-color="#e7be00" data-cell-quartile="1"><rect x="93" y="76" width="48" height="20" fill="#09612d"/><text x="117" y="86" fill="#ffffff" font-size="16" text-anchor="middle" dominant-baseline="central">BM49</text><polygon points="93,76 103,76 93,86" fill="#ffffff"/></g><g data-channel="cell" data-cell-index="4" data-cell-row="2" data-cell-col="0" data-surround-bits="0x9181e9" data-edge-color="#e7be00"><rect x="33" y="116" width="48" height="20" fill="#dce629"/><text x="57" y="126" fill="#000000" font-size="16" text-anchor="middle" dominant-baseline="central">AURS</text></g><g data-channel="cell" data-cell-index="5" data-cell-row="2" data-cell-col="1" data-surround-bits="0xe1236a" data-edge-color="#e7be00" data-cell-quartile="3"><rect x="93" y="116" width="48" height="20" fill="#588335"/><text x="117" y="126" fill="#ffffff" font-size="16" text-anchor="middle" dominant-baseline="central">DO</text><polygon points="141,136 141,126 131,136" fill="#ffffff"/></g></g></g><g data-channel="color-bar" data-bar-slots="14" data-bar-marker-left="5" data-bar-marker-right="8"><g data-color-bar-rank="0" data-color-bar-band="K"><rect x="1" y="1" width="20" height="34.819" fill="#000000"/><text x="11" y="32.299" fill="#ffffff" font-size="16" text-anchor="middle" data-color-bar-letter="true">k</text></g><g data-color-bar-rank="1" data-color-bar-band="G"><rect x="1" y="35.819" width="20" height="44.89" fill="#e7be00"/><text x="11" y="77.189" fill="#000000" font-size="16" text-anchor="middle" data-color-bar-letter="true">g</text></g><g data-color-bar-rank="2" data-color-bar-band="R"><rect x="1" y="80.709" width="20" height="39.615" fill="#ff3f2f"/><text x="11" y="116.805" fill="#000000" font-size="16" text-anchor="middle" data-color-bar-letter="true">r</text></g><g data-color-bar-rank="3" data-color-bar-band="W"><rect x="1" y="120.325" width="20" height="50.675" fill="#ffffff"/><text x="11" y="167.48" fill="#000000" font-size="16" text-anchor="middle" data-color-bar-letter="true">w</text></g><circle cx="5.6" cy="67.786" r="3.4" fill="#ffffff" stroke="#000000" stroke-width="0.75" data-bar-marker="left"/><circle cx="16.4" cy="104.214" r="3.4" fill="#ffffff" stroke="#000000" stroke-width="0.75" data-bar-marker="right"/></g><g data-channel="label-top"><text x="27" y="16" fill="#666666" font-size="12" dominant-baseline="central">LEI:</text></g><g data-channel="label-bottom"><text x="147" y="156" fill="#666666" font-size="12" text-anchor="end" dominant-baseline="central">...55</text></g><line x1="0" y1="0.5" x2="153" y2="0.5" stroke="#808080" stroke-width="1" shape-rendering="crispEdges"/><line x1="152.5" y1="0" x2="152.5" y2="172" stroke="#808080" stroke-width="1" shape-rendering="crispEdges"/><line x1="0" y1="171.5" x2="153" y2="171.5" stroke="#808080" stroke-width="1" shape-rendering="crispEdges"/><line x1="0.5" y1="0" x2="0.5" y2="172" stroke="#808080" stroke-width="1" shape-rendering="crispEdges"/><line x1="21.5" y1="0" x2="21.5" y2="172" stroke="#808080" stroke-width="1" shape-rendering="crispEdges"/></svg>