<svg width="155" height="174" viewBox="0 0 155 174" xmlns="http://www.w3.org/2000/svg" font-family="&quot;JetBrains Mono&quot;, &quot;Menlo&quot;, &quot;Consolas&quot;, &quot;DejaVu Sans Mono&quot;, &quot;Liberation Mono&quot;, &quot;Roboto Mono&quot;, &quot;Noto Sans Mono&quot;, monospace" data-entviz-version="v14" data-entviz-lib="0.14.0" data-input-bytes="20" data-cols="2" data-rows="3" data-encoding="base36" data-scheme="lei" data-role="identifier" data-size-basis="decoded" data-entropy-type="lei" data-size-bits="96" data-qualifiers="{}" data-parts="[{&quot;text&quot;:&quot;529900T8BM49AURSDO&quot;,&quot;bind&quot;:&quot;core&quot;},{&quot;text&quot;:&quot;55&quot;,&quot;bind&quot;:&quot;none&quot;}]"><defs><clipPath id="grid-clip-6795a71d13588655-2x3"><rect x="28" y="27" width="120" height="120"/></clipPath></defs><rect x="1" y="1" width="153" height="172" fill="#ffffff"/><g data-channel="grid"><rect x="28" y="27" width="120" height="120" fill="#2f3fbf"/><g><path fill="#000000" d="M88 27h6v10h-6zM94 27h6v10h-6zM100 27h6v10h-6zM118 27h6v10h-6zM130 27h6v10h-6zM136 27h6v10h-6zM142 37h6v10h-6zM142 57h6v10h-6zM124 57h6v10h-6zM118 57h6v10h-6zM112 57h6v10h-6zM106 57h6v10h-6zM88 57h6v10h-6zM88 47h6v10h-6z"/><path fill="#000000" d="M46 67h6v10h-6zM52 67h6v10h-6zM64 67h6v10h-6zM76 67h6v10h-6zM82 67h6v10h-6zM82 97h6v10h-6zM58 97h6v10h-6zM46 97h6v10h-6zM40 97h6v10h-6zM34 97h6v10h-6z"/><path fill="#e7be00" d="M88 67h6v10h-6zM106 67h6v10h-6zM112 67h6v10h-6zM118 67h6v10h-6zM136 67h6v10h-6zM142 77h6v10h-6zM142 97h6v10h-6zM130 97h6v10h-6zM112 97h6v10h-6zM106 97h6v10h-6zM88 77h6v10h-6z"/><path fill="#e7be00" d="M28 107h6v10h-6zM46 107h6v10h-6zM58 107h6v10h-6zM64 107h6v10h-6zM70 107h6v10h-6zM76 107h6v10h-6zM64 137h6v10h-6zM58 137h6v10h-6zM34 137h6v10h-6zM28 117h6v10h-6z"/><path fill="#e7be00" d="M94 107h6v10h-6zM106 107h6v10h-6zM118 107h6v10h-6zM124 107h6v10h-6zM136 107h6v10h-6zM142 107h6v10h-6zM136 137h6v10h-6zM118 137h6v10h-6zM88 137h6v10h-6zM88 127h6v10h-6zM88 117h6v10h-6z"/></g><g clip-path="url(#grid-clip-6795a71d13588655-2x3)" data-channel="ellipse" data-ellipse-anchor-x="28" data-ellipse-anchor-y="67" data-ellipse-rx="45.574" data-ellipse-ry="45.574" data-ellipse-rotation-deg="60"><ellipse cx="28" cy="67" rx="45.574" ry="45.574" transform="rotate(60 28 67)" fill="#ffffff" stroke="#ffffff" fill-opacity="0.35" stroke-opacity="0.45" stroke-width="2"/></g><g><g data-channel="cell" data-cell-index="0" data-cell-row="0" data-cell-col="0" data-cell-blank="true" data-cell-blank-map="true"><rect x="34" y="37" width="48" height="20" rx="10" ry="10" fill="#ff3f2f" stroke="#000000" stroke-width="1"/><circle cx="46" cy="47" r="3.5" fill="#000000" data-blank-map-min="1,0"/><path d="M 65.8,53.667 H 74.2 M 70,49.467 V 57.867" fill="none" stroke="#000000" stroke-width="1.925" stroke-linecap="butt" data-blank-map-max="2,1"/></g><g data-channel="cell" data-cell-index="1" data-cell-row="0" data-cell-col="1" data-surround-bits="0x6795a7" data-edge-color="#000000" data-cell-quartile="2"><rect x="94" y="37" width="48" height="20" fill="#492214"/><text x="118" y="47" fill="#ffffff" font-size="16" text-anchor="middle" dominant-baseline="central">5299</text><polygon points="142,37 132,37 142,47" fill="#ffffff"/></g><g data-channel="cell" data-cell-index="2" data-cell-row="1" data-cell-col="0" data-surround-bits="0x1d1358" data-edge-color="#000000"><rect x="34" y="77" width="48" height="20" fill="#480700"/><text x="58" y="87" fill="#ffffff" font-size="16" text-anchor="middle" dominant-baseline="central">00T8</text></g><g data-channel="cell" data-cell-index="3" data-cell-row="1" data-cell-col="1" data-surround-bits="0x865539" data-edge-color="#e7be00" data-cell-quartile="1"><rect x="94" y="77" width="48" height="20" fill="#09612d"/><text x="118" y="87" fill="#ffffff" font-size="16" text-anchor="middle" dominant-baseline="central">BM49</text><polygon points="94,77 104,77 94,87" fill="#ffffff"/></g><g data-channel="cell" data-cell-index="4" data-cell-row="2" data-cell-col="0" data-surround-bits="0x9181e9" data-edge-color="#e7be00"><rect x="34" y="117" width="48" height="20" fill="#dce629"/><text x="58" y="127" fill="#000000" font-size="16" text-anchor="middle" dominant-baseline="central">AURS</text></g><g data-channel="cell" data-cell-index="5" data-cell-row="2" data-cell-col="1" data-surround-bits="0xe1236a" data-edge-color="#e7be00" data-cell-quartile="3"><rect x="94" y="117" width="48" height="20" fill="#588335"/><text x="118" y="127" fill="#ffffff" font-size="16" text-anchor="middle" dominant-baseline="central">DO</text><polygon points="142,137 142,127 132,137" fill="#ffffff"/></g></g></g><g data-channel="color-bar" data-bar-slots="14" data-bar-marker-left="5" data-bar-marker-right="8"><g data-color-bar-rank="0" data-color-bar-band="K"><rect x="2" y="2" width="20" height="34.819" fill="#000000"/><text x="12" y="33.299" fill="#ffffff" font-size="16" text-anchor="middle" data-color-bar-letter="true">k</text></g><g data-color-bar-rank="1" data-color-bar-band="G"><rect x="2" y="36.819" width="20" height="44.89" fill="#e7be00"/><text x="12" y="78.189" fill="#000000" font-size="16" text-anchor="middle" data-color-bar-letter="true">g</text></g><g data-color-bar-rank="2" data-color-bar-band="R"><rect x="2" y="81.709" width="20" height="39.615" fill="#ff3f2f"/><text x="12" y="117.805" fill="#000000" font-size="16" text-anchor="middle" data-color-bar-letter="true">r</text></g><g data-color-bar-rank="3" data-color-bar-band="W"><rect x="2" y="121.325" width="20" height="50.675" fill="#ffffff"/><text x="12" y="168.48" fill="#000000" font-size="16" text-anchor="middle" data-color-bar-letter="true">w</text></g><circle cx="6.6" cy="68.786" r="3.4" fill="#ffffff" stroke="#000000" stroke-width="0.75" data-bar-marker="left"/><circle cx="17.4" cy="105.214" r="3.4" fill="#ffffff" stroke="#000000" stroke-width="0.75" data-bar-marker="right"/></g><g data-channel="label-top"><text x="28" y="17" fill="#666666" font-size="12" dominant-baseline="central">LEI</text></g><g data-channel="label-bottom"><text x="148" y="157" fill="#666666" font-size="12" text-anchor="end" dominant-baseline="central">...55</text></g><line x1="1" y1="1.5" x2="154" y2="1.5" stroke="#808080" stroke-width="1" shape-rendering="crispEdges"/><line x1="153.5" y1="1" x2="153.5" y2="173" stroke="#808080" stroke-width="1" shape-rendering="crispEdges"/><line x1="1" y1="172.5" x2="154" y2="172.5" stroke="#808080" stroke-width="1" shape-rendering="crispEdges"/><line x1="1.5" y1="1" x2="1.5" y2="173" stroke="#808080" stroke-width="1" shape-rendering="crispEdges"/><line x1="22.5" y1="1" x2="22.5" y2="173" stroke="#808080" stroke-width="1" shape-rendering="crispEdges"/></svg>