<svg width="153.0" height="172.0" viewBox="0 0 153.0 172.0" xmlns="http://www.w3.org/2000/svg" data-entviz-version="v8" data-entviz-lib="0.7.1" data-input-bytes="20" data-cols="2" data-rows="3"><defs><clipPath id="grid-clip-6795a71d13588655-2x3"><rect x="27.0" y="26.0" width="120.0" height="120.0"/></clipPath></defs><rect x="0" y="0" width="153.0" height="172.0" fill="#ffffff"/><g data-channel="grid"><rect x="27.0" y="26.0" width="120.0" height="120.0" fill="#2f3fbf"/><g><rect x="87.0" y="26.0" width="6.0" height="10.0" fill="#000000"/><rect x="93.0" y="26.0" width="6.0" height="10.0" fill="#000000"/><rect x="99.0" y="26.0" width="6.0" height="10.0" fill="#000000"/><rect x="117.0" y="26.0" width="6.0" height="10.0" fill="#000000"/><rect x="129.0" y="26.0" width="6.0" height="10.0" fill="#000000"/><rect x="135.0" y="26.0" width="6.0" height="10.0" fill="#000000"/><rect x="141.0" y="36.0" width="6.0" height="10.0" fill="#000000"/><rect x="141.0" y="56.0" width="6.0" height="10.0" fill="#000000"/><rect x="123.0" y="56.0" width="6.0" height="10.0" fill="#000000"/><rect x="117.0" y="56.0" width="6.0" height="10.0" fill="#000000"/><rect x="111.0" y="56.0" width="6.0" height="10.0" fill="#000000"/><rect x="105.0" y="56.0" width="6.0" height="10.0" fill="#000000"/><rect x="87.0" y="56.0" width="6.0" height="10.0" fill="#000000"/><rect x="87.0" y="46.0" width="6.0" height="10.0" fill="#000000"/><rect x="45.0" y="66.0" width="6.0" height="10.0" fill="#000000"/><rect x="51.0" y="66.0" width="6.0" height="10.0" fill="#000000"/><rect x="63.0" y="66.0" width="6.0" height="10.0" fill="#000000"/><rect x="75.0" y="66.0" width="6.0" height="10.0" fill="#000000"/><rect x="81.0" y="66.0" width="6.0" height="10.0" fill="#000000"/><rect x="81.0" y="96.0" width="6.0" height="10.0" fill="#000000"/><rect x="57.0" y="96.0" width="6.0" height="10.0" fill="#000000"/><rect x="45.0" y="96.0" width="6.0" height="10.0" fill="#000000"/><rect x="39.0" y="96.0" width="6.0" height="10.0" fill="#000000"/><rect x="33.0" y="96.0" width="6.0" height="10.0" fill="#000000"/><rect x="87.0" y="66.0" width="6.0" height="10.0" fill="#000000"/><rect x="105.0" y="66.0" width="6.0" height="10.0" fill="#000000"/><rect x="111.0" y="66.0" width="6.0" height="10.0" fill="#000000"/><rect x="117.0" y="66.0" width="6.0" height="10.0" fill="#000000"/><rect x="135.0" y="66.0" width="6.0" height="10.0" fill="#000000"/><rect x="141.0" y="76.0" width="6.0" height="10.0" fill="#000000"/><rect x="141.0" y="96.0" width="6.0" height="10.0" fill="#000000"/><rect x="129.0" y="96.0" width="6.0" height="10.0" fill="#000000"/><rect x="111.0" y="96.0" width="6.0" height="10.0" fill="#000000"/><rect x="105.0" y="96.0" width="6.0" height="10.0" fill="#000000"/><rect x="87.0" y="76.0" width="6.0" height="10.0" fill="#000000"/><rect x="27.0" y="106.0" width="6.0" height="10.0" fill="#e7be00"/><rect x="45.0" y="106.0" width="6.0" height="10.0" fill="#e7be00"/><rect x="57.0" y="106.0" width="6.0" height="10.0" fill="#e7be00"/><rect x="63.0" y="106.0" width="6.0" height="10.0" fill="#e7be00"/><rect x="69.0" y="106.0" width="6.0" height="10.0" fill="#e7be00"/><rect x="75.0" y="106.0" width="6.0" height="10.0" fill="#e7be00"/><rect x="63.0" y="136.0" width="6.0" height="10.0" fill="#e7be00"/><rect x="57.0" y="136.0" width="6.0" height="10.0" fill="#e7be00"/><rect x="33.0" y="136.0" width="6.0" height="10.0" fill="#e7be00"/><rect x="27.0" y="116.0" width="6.0" height="10.0" fill="#e7be00"/><rect x="93.0" y="106.0" width="6.0" height="10.0" fill="#e7be00"/><rect x="105.0" y="106.0" width="6.0" height="10.0" fill="#e7be00"/><rect x="117.0" y="106.0" width="6.0" height="10.0" fill="#e7be00"/><rect x="123.0" y="106.0" width="6.0" height="10.0" fill="#e7be00"/><rect x="135.0" y="106.0" width="6.0" height="10.0" fill="#e7be00"/><rect x="141.0" y="106.0" width="6.0" height="10.0" fill="#e7be00"/><rect x="135.0" y="136.0" width="6.0" height="10.0" fill="#e7be00"/><rect x="117.0" y="136.0" width="6.0" height="10.0" fill="#e7be00"/><rect x="87.0" y="136.0" width="6.0" height="10.0" fill="#e7be00"/><rect x="87.0" y="126.0" width="6.0" height="10.0" fill="#e7be00"/><rect x="87.0" y="116.0" width="6.0" height="10.0" fill="#e7be00"/></g><g clip-path="url(#grid-clip-6795a71d13588655-2x3)" data-channel="ellipse" data-ellipse-anchor-x="27.0" data-ellipse-anchor-y="66.0" data-ellipse-rx="45.57416812186482" data-ellipse-ry="45.57416812186482" data-ellipse-rotation-deg="60.0"><ellipse cx="27.0" cy="66.0" rx="45.57416812186482" ry="45.57416812186482" transform="rotate(60.0 27.0 66.0)" fill="#ffffff" stroke="#ffffff" fill-opacity="0.35" stroke-opacity="0.45" stroke-width="2.0"/></g><g><g data-channel="cell" data-cell-index="0" data-cell-row="0" data-cell-col="0" data-cell-blank="true" data-cell-blank-map="true"><rect x="33.0" y="36.0" width="48.0" height="20.0" rx="10.0" ry="10.0" fill="#ffffff" stroke="#000000" stroke-width="1"/><circle cx="45.0" cy="46.0" r="3.5" fill="#1d4ed8" data-blank-map-min="1,0"/><path d="M 64.8,52.66666666666667 H 73.2 M 69.0,48.46666666666667 V 56.866666666666674" fill="none" stroke="#d62828" stroke-width="1.9250000000000003" stroke-linecap="butt" data-blank-map-max="2,1"/></g><g data-channel="cell" data-cell-index="1" data-cell-row="0" data-cell-col="1" data-cell-quartile="2"><rect x="93.0" y="36.0" width="48.0" height="20.0" fill="#492214"/><text x="117.0" y="46.0" fill="#ffffff" style="font-family: &quot;JetBrains Mono&quot;, &quot;Menlo&quot;, &quot;Consolas&quot;, &quot;DejaVu Sans Mono&quot;, &quot;Liberation Mono&quot;, &quot;Roboto Mono&quot;, &quot;Noto Sans Mono&quot;, monospace; font-size: 16.0px;" text-anchor="middle" dominant-baseline="central">5299</text><polygon points="141.0,36.0 131.0,36.0 141.0,46.0" fill="#ffffff"/></g><g data-channel="cell" data-cell-index="2" data-cell-row="1" data-cell-col="0"><rect x="33.0" y="76.0" width="48.0" height="20.0" fill="#480700"/><text x="57.0" y="86.0" fill="#ffffff" style="font-family: &quot;JetBrains Mono&quot;, &quot;Menlo&quot;, &quot;Consolas&quot;, &quot;DejaVu Sans Mono&quot;, &quot;Liberation Mono&quot;, &quot;Roboto Mono&quot;, &quot;Noto Sans Mono&quot;, monospace; font-size: 16.0px;" text-anchor="middle" dominant-baseline="central">00T8</text></g><g data-channel="cell" data-cell-index="3" data-cell-row="1" data-cell-col="1" data-cell-quartile="1"><rect x="93.0" y="76.0" width="48.0" height="20.0" fill="#09612d"/><text x="117.0" y="86.0" fill="#ffffff" style="font-family: &quot;JetBrains Mono&quot;, &quot;Menlo&quot;, &quot;Consolas&quot;, &quot;DejaVu Sans Mono&quot;, &quot;Liberation Mono&quot;, &quot;Roboto Mono&quot;, &quot;Noto Sans Mono&quot;, monospace; font-size: 16.0px;" text-anchor="middle" dominant-baseline="central">BM49</text><polygon points="93.0,76.0 103.0,76.0 93.0,86.0" fill="#ffffff"/></g><g data-channel="cell" data-cell-index="4" data-cell-row="2" data-cell-col="0"><rect x="33.0" y="116.0" width="48.0" height="20.0" fill="#dce629"/><text x="57.0" y="126.0" fill="#000000" style="font-family: &quot;JetBrains Mono&quot;, &quot;Menlo&quot;, &quot;Consolas&quot;, &quot;DejaVu Sans Mono&quot;, &quot;Liberation Mono&quot;, &quot;Roboto Mono&quot;, &quot;Noto Sans Mono&quot;, monospace; font-size: 16.0px;" text-anchor="middle" dominant-baseline="central">AURS</text></g><g data-channel="cell" data-cell-index="5" data-cell-row="2" data-cell-col="1" data-cell-quartile="3"><rect x="93.0" y="116.0" width="48.0" height="20.0" fill="#588335"/><text x="117.0" y="126.0" fill="#ffffff" style="font-family: &quot;JetBrains Mono&quot;, &quot;Menlo&quot;, &quot;Consolas&quot;, &quot;DejaVu Sans Mono&quot;, &quot;Liberation Mono&quot;, &quot;Roboto Mono&quot;, &quot;Noto Sans Mono&quot;, monospace; font-size: 16.0px;" text-anchor="middle" dominant-baseline="central">DO</text><polygon points="141.0,136.0 141.0,126.0 131.0,136.0" fill="#ffffff"/></g></g></g><g data-channel="color-bar"><g data-color-bar-rank="0" data-color-bar-band="W"><rect x="1" y="1" width="20.0" height="50.67548520464656" fill="#ffffff"/><text x="11.0" y="48.15548520464656" fill="#000000" style="font-family: &quot;JetBrains Mono&quot;, &quot;Menlo&quot;, &quot;Consolas&quot;, &quot;DejaVu Sans Mono&quot;, &quot;Liberation Mono&quot;, &quot;Roboto Mono&quot;, &quot;Noto Sans Mono&quot;, monospace; font-size: 16.0px;" text-anchor="middle" data-color-bar-letter="true">w</text></g><g data-color-bar-rank="1" data-color-bar-band="G"><rect x="1" y="51.67548520464656" width="20.0" height="44.89026109669999" fill="#e7be00"/><text x="11.0" y="93.04574630134655" fill="#000000" style="font-family: &quot;JetBrains Mono&quot;, &quot;Menlo&quot;, &quot;Consolas&quot;, &quot;DejaVu Sans Mono&quot;, &quot;Liberation Mono&quot;, &quot;Roboto Mono&quot;, &quot;Noto Sans Mono&quot;, monospace; font-size: 16.0px;" text-anchor="middle" data-color-bar-letter="true">g</text></g><g data-color-bar-rank="2" data-color-bar-band="R"><rect x="1" y="96.56574630134655" width="20.0" height="39.61511332718782" fill="#ff3f2f"/><text x="11.0" y="132.66085962853435" fill="#000000" style="font-family: &quot;JetBrains Mono&quot;, &quot;Menlo&quot;, &quot;Consolas&quot;, &quot;DejaVu Sans Mono&quot;, &quot;Liberation Mono&quot;, &quot;Roboto Mono&quot;, &quot;Noto Sans Mono&quot;, monospace; font-size: 16.0px;" text-anchor="middle" data-color-bar-letter="true">r</text></g><g data-color-bar-rank="3" data-color-bar-band="K"><rect x="1" y="136.18085962853436" width="20.0" height="34.819140371465636" fill="#000000"/><text x="11.0" y="167.48" fill="#ffffff" style="font-family: &quot;JetBrains Mono&quot;, &quot;Menlo&quot;, &quot;Consolas&quot;, &quot;DejaVu Sans Mono&quot;, &quot;Liberation Mono&quot;, &quot;Roboto Mono&quot;, &quot;Noto Sans Mono&quot;, monospace; font-size: 16.0px;" text-anchor="middle" data-color-bar-letter="true">k</text></g></g><g data-channel="label-top"><text x="27.0" y="16.0" fill="#666666" style="font-family: &quot;JetBrains Mono&quot;, &quot;Menlo&quot;, &quot;Consolas&quot;, &quot;DejaVu Sans Mono&quot;, &quot;Liberation Mono&quot;, &quot;Roboto Mono&quot;, &quot;Noto Sans Mono&quot;, monospace; font-size: 12.0px;" dominant-baseline="central">LEI:</text></g><g data-channel="label-bottom"><text x="147.0" y="156.0" fill="#666666" style="font-family: &quot;JetBrains Mono&quot;, &quot;Menlo&quot;, &quot;Consolas&quot;, &quot;DejaVu Sans Mono&quot;, &quot;Liberation Mono&quot;, &quot;Roboto Mono&quot;, &quot;Noto Sans Mono&quot;, monospace; font-size: 12.0px;" text-anchor="end" dominant-baseline="central">...55</text></g><line x1="0" y1="0.5" x2="153.0" y2="0.5" stroke="#808080" stroke-width="1" shape-rendering="crispEdges"/><line x1="152.5" y1="0" x2="152.5" y2="172.0" stroke="#808080" stroke-width="1" shape-rendering="crispEdges"/><line x1="0" y1="171.5" x2="153.0" y2="171.5" stroke="#808080" stroke-width="1" shape-rendering="crispEdges"/><line x1="0.5" y1="0" x2="0.5" y2="172.0" stroke="#808080" stroke-width="1" shape-rendering="crispEdges"/><line x1="21.5" y1="0" x2="21.5" y2="172.0" stroke="#808080" stroke-width="1" shape-rendering="crispEdges"/></svg>