<svg width="153.0" height="132.0" viewBox="0 0 153.0 132.0" xmlns="http://www.w3.org/2000/svg" data-entviz-version="v7" data-entviz-lib="0.7.0" data-input-bytes="20" data-cols="2" data-rows="2"><defs><clipPath id="grid-clip-461689bb47906dcf-2x2"><rect x="27.0" y="26.0" width="120.0" height="80.0"/></clipPath></defs><rect x="0" y="0" width="153.0" height="132.0" fill="#ffffff"/><g data-channel="grid"><rect x="27.0" y="26.0" width="120.0" height="80.0" fill="#ff3f2f"/><g><rect x="27.0" y="26.0" width="6.0" height="10.0" fill="#e7be00"/><rect x="45.0" y="26.0" width="6.0" height="10.0" fill="#e7be00"/><rect x="69.0" y="26.0" width="6.0" height="10.0" fill="#e7be00"/><rect x="81.0" y="26.0" width="6.0" height="10.0" fill="#e7be00"/><rect x="81.0" y="36.0" width="6.0" height="10.0" fill="#e7be00"/><rect x="81.0" y="56.0" width="6.0" height="10.0" fill="#e7be00"/><rect x="51.0" y="56.0" width="6.0" height="10.0" fill="#e7be00"/><rect x="45.0" y="56.0" width="6.0" height="10.0" fill="#e7be00"/><rect x="27.0" y="46.0" width="6.0" height="10.0" fill="#e7be00"/><rect x="111.0" y="26.0" width="6.0" height="10.0" fill="#2f3fbf"/><rect x="129.0" y="26.0" width="6.0" height="10.0" fill="#2f3fbf"/><rect x="135.0" y="26.0" width="6.0" height="10.0" fill="#2f3fbf"/><rect x="141.0" y="26.0" width="6.0" height="10.0" fill="#2f3fbf"/><rect x="141.0" y="36.0" width="6.0" height="10.0" fill="#2f3fbf"/><rect x="129.0" y="56.0" width="6.0" height="10.0" fill="#2f3fbf"/><rect x="117.0" y="56.0" width="6.0" height="10.0" fill="#2f3fbf"/><rect x="111.0" y="56.0" width="6.0" height="10.0" fill="#2f3fbf"/><rect x="99.0" y="56.0" width="6.0" height="10.0" fill="#2f3fbf"/><rect x="93.0" y="56.0" width="6.0" height="10.0" fill="#2f3fbf"/><rect x="87.0" y="56.0" width="6.0" height="10.0" fill="#2f3fbf"/><rect x="87.0" y="36.0" width="6.0" height="10.0" fill="#2f3fbf"/><rect x="93.0" y="66.0" width="6.0" height="10.0" fill="#e7be00"/><rect x="111.0" y="66.0" width="6.0" height="10.0" fill="#e7be00"/><rect x="123.0" y="66.0" width="6.0" height="10.0" fill="#e7be00"/><rect x="129.0" y="66.0" width="6.0" height="10.0" fill="#e7be00"/><rect x="135.0" y="66.0" width="6.0" height="10.0" fill="#e7be00"/><rect x="141.0" y="66.0" width="6.0" height="10.0" fill="#e7be00"/><rect x="141.0" y="76.0" width="6.0" height="10.0" fill="#e7be00"/><rect x="141.0" y="86.0" width="6.0" height="10.0" fill="#e7be00"/><rect x="129.0" y="96.0" width="6.0" height="10.0" fill="#e7be00"/><rect x="123.0" y="96.0" width="6.0" height="10.0" fill="#e7be00"/><rect x="117.0" y="96.0" width="6.0" height="10.0" fill="#e7be00"/><rect x="105.0" y="96.0" width="6.0" height="10.0" fill="#e7be00"/><rect x="99.0" y="96.0" width="6.0" height="10.0" fill="#e7be00"/><rect x="87.0" y="96.0" width="6.0" height="10.0" fill="#e7be00"/><rect x="87.0" y="86.0" width="6.0" height="10.0" fill="#e7be00"/></g><g clip-path="url(#grid-clip-461689bb47906dcf-2x2)" data-channel="ellipse" data-ellipse-anchor-x="87.0" data-ellipse-anchor-y="26.0" data-ellipse-rx="22.0" data-ellipse-ry="31.599999999999998" data-ellipse-rotation-deg="84.0"><ellipse cx="87.0" cy="26.0" rx="22.0" ry="31.599999999999998" transform="rotate(84.0 87.0 26.0)" fill="#000000" stroke="#000000" fill-opacity="0.25" stroke-opacity="0.35" stroke-width="2.0"/></g><g><g data-channel="cell" data-cell-index="0" data-cell-row="0" data-cell-col="0" data-cell-quartile="1"><rect x="33.0" y="36.0" width="48.0" height="20.0" fill="#dfa780"/><text x="57.0" y="46.0" fill="#000000" style="font-family: &quot;JetBrains Mono&quot;, &quot;Menlo&quot;, &quot;Consolas&quot;, &quot;DejaVu Sans Mono&quot;, &quot;Liberation Mono&quot;, &quot;Roboto Mono&quot;, &quot;Noto Sans Mono&quot;, monospace; font-size: 16.0px;" text-anchor="middle" dominant-baseline="central">WAVV</text><polygon points="33.0,36.0 43.0,36.0 33.0,46.0" fill="#000000"/></g><g data-channel="cell" data-cell-index="1" data-cell-row="0" data-cell-col="1" data-cell-quartile="2"><rect x="93.0" y="36.0" width="48.0" height="20.0" fill="#089761"/><text x="117.0" y="46.0" fill="#ffffff" style="font-family: &quot;JetBrains Mono&quot;, &quot;Menlo&quot;, &quot;Consolas&quot;, &quot;DejaVu Sans Mono&quot;, &quot;Liberation Mono&quot;, &quot;Roboto Mono&quot;, &quot;Noto Sans Mono&quot;, monospace; font-size: 16.0px;" text-anchor="middle" dominant-baseline="central">OPS8</text><polygon points="141.0,36.0 131.0,36.0 141.0,46.0" fill="#ffffff"/></g><g data-channel="cell" data-cell-index="2" data-cell-row="1" data-cell-col="0" data-cell-blank="true" data-cell-blank-map="true"><rect x="33.0" y="76.0" width="48.0" height="20.0" rx="10.0" ry="10.0" fill="#ffffff" stroke="#000000" stroke-width="1"/><circle cx="69.0" cy="81.0" r="3.5" fill="#d62828" data-blank-map-max="true"/><circle cx="45.0" cy="81.0" r="3.5" fill="#1d4ed8" data-blank-map-min="true"/></g><g data-channel="cell" data-cell-index="3" data-cell-row="1" data-cell-col="1" data-cell-quartile="3"><rect x="93.0" y="76.0" width="48.0" height="20.0" fill="#827015"/><text x="117.0" y="86.0" fill="#ffffff" style="font-family: &quot;JetBrains Mono&quot;, &quot;Menlo&quot;, &quot;Consolas&quot;, &quot;DejaVu Sans Mono&quot;, &quot;Liberation Mono&quot;, &quot;Roboto Mono&quot;, &quot;Noto Sans Mono&quot;, monospace; font-size: 16.0px;" text-anchor="middle" dominant-baseline="central">5N22</text><polygon points="141.0,96.0 141.0,86.0 131.0,96.0" fill="#ffffff"/></g></g></g><g data-channel="color-bar"><g data-color-bar-rank="0" data-color-bar-band="B"><rect x="1" y="1" width="20.0" height="42.576076023011076" fill="#2f3fbf"/><text x="11.0" y="40.05607602301107" fill="#ffffff" style="font-family: &quot;JetBrains Mono&quot;, &quot;Menlo&quot;, &quot;Consolas&quot;, &quot;DejaVu Sans Mono&quot;, &quot;Liberation Mono&quot;, &quot;Roboto Mono&quot;, &quot;Noto Sans Mono&quot;, monospace; font-size: 16.0px;" text-anchor="middle" data-color-bar-letter="true">b</text></g><g data-color-bar-rank="1" data-color-bar-band="W"><rect x="1" y="43.576076023011076" width="20.0" height="40.16103721564748" fill="#ffffff"/><text x="11.0" y="80.21711323865857" fill="#000000" style="font-family: &quot;JetBrains Mono&quot;, &quot;Menlo&quot;, &quot;Consolas&quot;, &quot;DejaVu Sans Mono&quot;, &quot;Liberation Mono&quot;, &quot;Roboto Mono&quot;, &quot;Noto Sans Mono&quot;, monospace; font-size: 16.0px;" text-anchor="middle" data-color-bar-letter="true">w</text></g><g data-color-bar-rank="2" data-color-bar-band="G"><rect x="1" y="83.73711323865857" width="20.0" height="26.00690131836874" fill="#e7be00"/><text x="11.0" y="106.2240145570273" fill="#000000" style="font-family: &quot;JetBrains Mono&quot;, &quot;Menlo&quot;, &quot;Consolas&quot;, &quot;DejaVu Sans Mono&quot;, &quot;Liberation Mono&quot;, &quot;Roboto Mono&quot;, &quot;Noto Sans Mono&quot;, monospace; font-size: 16.0px;" text-anchor="middle" data-color-bar-letter="true">g</text></g><g data-color-bar-rank="3" data-color-bar-band="K"><rect x="1" y="109.7440145570273" width="20.0" height="21.2559854429727" fill="#000000"/><text x="11.0" y="127.48" fill="#ffffff" style="font-family: &quot;JetBrains Mono&quot;, &quot;Menlo&quot;, &quot;Consolas&quot;, &quot;DejaVu Sans Mono&quot;, &quot;Liberation Mono&quot;, &quot;Roboto Mono&quot;, &quot;Noto Sans Mono&quot;, monospace; font-size: 16.0px;" text-anchor="middle" data-color-bar-letter="true">k</text></g></g><g data-channel="label-top"><text x="27.0" y="16.0" fill="#666666" style="font-family: &quot;JetBrains Mono&quot;, &quot;Menlo&quot;, &quot;Consolas&quot;, &quot;DejaVu Sans Mono&quot;, &quot;Liberation Mono&quot;, &quot;Roboto Mono&quot;, &quot;Noto Sans Mono&quot;, monospace; font-size: 12.0px;" dominant-baseline="central">LEI: 213800...</text></g><g data-channel="label-bottom"><text x="147.0" y="116.0" fill="#666666" style="font-family: &quot;JetBrains Mono&quot;, &quot;Menlo&quot;, &quot;Consolas&quot;, &quot;DejaVu Sans Mono&quot;, &quot;Liberation Mono&quot;, &quot;Roboto Mono&quot;, &quot;Noto Sans Mono&quot;, monospace; font-size: 12.0px;" text-anchor="end" dominant-baseline="central">...05</text></g><line x1="0" y1="0.5" x2="153.0" y2="0.5" stroke="#808080" stroke-width="1" shape-rendering="crispEdges"/><line x1="152.5" y1="0" x2="152.5" y2="132.0" stroke="#808080" stroke-width="1" shape-rendering="crispEdges"/><line x1="0" y1="131.5" x2="153.0" y2="131.5" stroke="#808080" stroke-width="1" shape-rendering="crispEdges"/><line x1="0.5" y1="0" x2="0.5" y2="132.0" stroke="#808080" stroke-width="1" shape-rendering="crispEdges"/><line x1="21.5" y1="0" x2="21.5" y2="132.0" stroke="#808080" stroke-width="1" shape-rendering="crispEdges"/></svg>