<svg width="153" height="172" viewBox="0 0 153 172" xmlns="http://www.w3.org/2000/svg" data-entviz-version="v10" data-entviz-lib="0.10.0" data-input-bytes="20" data-cols="2" data-rows="3"><defs><clipPath id="grid-clip-aa8dd0e5ca2b30fe-2x3"><rect x="27" y="26" width="120" height="120"/></clipPath></defs><rect x="0" y="0" width="153" height="172" fill="#ffffff"/><g data-channel="grid"><rect x="27" y="26" width="120" height="120" fill="#ffffff"/><g><rect x="51" y="26" width="6" height="10" fill="#e7be00"/><rect x="63" y="26" width="6" height="10" fill="#e7be00"/><rect x="69" y="26" width="6" height="10" fill="#e7be00"/><rect x="75" y="26" width="6" height="10" fill="#e7be00"/><rect x="81" y="36" width="6" height="10" fill="#e7be00"/><rect x="81" y="46" width="6" height="10" fill="#e7be00"/><rect x="63" y="56" width="6" height="10" fill="#e7be00"/><rect x="51" y="56" width="6" height="10" fill="#e7be00"/><rect x="39" y="56" width="6" height="10" fill="#e7be00"/><rect x="27" y="56" width="6" height="10" fill="#e7be00"/><rect x="27" y="36" width="6" height="10" fill="#e7be00"/><rect x="87" y="26" width="6" height="10" fill="#000000"/><rect x="93" y="26" width="6" height="10" fill="#000000"/><rect x="105" y="26" width="6" height="10" fill="#000000"/><rect x="117" y="26" width="6" height="10" fill="#000000"/><rect x="141" y="26" width="6" height="10" fill="#000000"/><rect x="141" y="46" width="6" height="10" fill="#000000"/><rect x="129" y="56" width="6" height="10" fill="#000000"/><rect x="123" y="56" width="6" height="10" fill="#000000"/><rect x="117" y="56" width="6" height="10" fill="#000000"/><rect x="105" y="56" width="6" height="10" fill="#000000"/><rect x="87" y="56" width="6" height="10" fill="#000000"/><rect x="87" y="46" width="6" height="10" fill="#000000"/><rect x="87" y="36" width="6" height="10" fill="#000000"/><rect x="27" y="66" width="6" height="10" fill="#000000"/><rect x="33" y="66" width="6" height="10" fill="#000000"/><rect x="39" y="66" width="6" height="10" fill="#000000"/><rect x="69" y="66" width="6" height="10" fill="#000000"/><rect x="81" y="66" width="6" height="10" fill="#000000"/><rect x="81" y="76" width="6" height="10" fill="#000000"/><rect x="81" y="86" width="6" height="10" fill="#000000"/><rect x="81" y="96" width="6" height="10" fill="#000000"/><rect x="75" y="96" width="6" height="10" fill="#000000"/><rect x="69" y="96" width="6" height="10" fill="#000000"/><rect x="63" y="96" width="6" height="10" fill="#000000"/><rect x="33" y="96" width="6" height="10" fill="#000000"/><rect x="27" y="96" width="6" height="10" fill="#000000"/><rect x="87" y="66" width="6" height="10" fill="#2f3fbf"/><rect x="93" y="66" width="6" height="10" fill="#2f3fbf"/><rect x="99" y="66" width="6" height="10" fill="#2f3fbf"/><rect x="105" y="66" width="6" height="10" fill="#2f3fbf"/><rect x="135" y="66" width="6" height="10" fill="#2f3fbf"/><rect x="141" y="66" width="6" height="10" fill="#2f3fbf"/><rect x="141" y="76" width="6" height="10" fill="#2f3fbf"/><rect x="141" y="96" width="6" height="10" fill="#2f3fbf"/><rect x="117" y="96" width="6" height="10" fill="#2f3fbf"/><rect x="111" y="96" width="6" height="10" fill="#2f3fbf"/><rect x="93" y="96" width="6" height="10" fill="#2f3fbf"/><rect x="87" y="96" width="6" height="10" fill="#2f3fbf"/><rect x="87" y="76" width="6" height="10" fill="#2f3fbf"/><rect x="111" y="106" width="6" height="10" fill="#000000"/><rect x="123" y="106" width="6" height="10" fill="#000000"/><rect x="141" y="106" width="6" height="10" fill="#000000"/><rect x="141" y="116" width="6" height="10" fill="#000000"/><rect x="141" y="126" width="6" height="10" fill="#000000"/><rect x="129" y="136" width="6" height="10" fill="#000000"/><rect x="123" y="136" width="6" height="10" fill="#000000"/><rect x="87" y="126" width="6" height="10" fill="#000000"/></g><g clip-path="url(#grid-clip-aa8dd0e5ca2b30fe-2x3)" data-channel="ellipse" data-ellipse-anchor-x="147" data-ellipse-anchor-y="146" data-ellipse-rx="78.065" data-ellipse-ry="61.773" data-ellipse-rotation-deg="96"><ellipse cx="147" cy="146" rx="78.065" ry="61.773" transform="rotate(96 147 146)" fill="#000000" stroke="#000000" fill-opacity="0.2" stroke-opacity="0.3" stroke-width="2"/></g><g><g data-channel="cell" data-cell-index="0" data-cell-row="0" data-cell-col="0" data-cell-quartile="2"><rect x="33" y="36" width="48" height="20" fill="#c81008"/><text x="57" y="46" fill="#ffffff" style="font-family: &quot;JetBrains Mono&quot;, &quot;Menlo&quot;, &quot;Consolas&quot;, &quot;DejaVu Sans Mono&quot;, &quot;Liberation Mono&quot;, &quot;Roboto Mono&quot;, &quot;Noto Sans Mono&quot;, monospace; font-size: 16px;" text-anchor="middle" dominant-baseline="central">2138</text><polygon points="81,36 71,36 81,46" fill="#ffffff"/></g><g data-channel="cell" data-cell-index="1" data-cell-row="0" data-cell-col="1" data-cell-quartile="3"><rect x="93" y="36" width="48" height="20" fill="#0a0800"/><text x="117" y="46" fill="#ffffff" style="font-family: &quot;JetBrains Mono&quot;, &quot;Menlo&quot;, &quot;Consolas&quot;, &quot;DejaVu Sans Mono&quot;, &quot;Liberation Mono&quot;, &quot;Roboto Mono&quot;, &quot;Noto Sans Mono&quot;, monospace; font-size: 16px;" text-anchor="middle" dominant-baseline="central">00WA</text><polygon points="141,56 141,46 131,56" fill="#ffffff"/></g><g data-channel="cell" data-cell-index="2" data-cell-row="1" data-cell-col="0" data-cell-quartile="1"><rect x="33" y="76" width="48" height="20" fill="#19f67d"/><text x="57" y="86" fill="#000000" style="font-family: &quot;JetBrains Mono&quot;, &quot;Menlo&quot;, &quot;Consolas&quot;, &quot;DejaVu Sans Mono&quot;, &quot;Liberation Mono&quot;, &quot;Roboto Mono&quot;, &quot;Noto Sans Mono&quot;, monospace; font-size: 16px;" text-anchor="middle" dominant-baseline="central">VVOP</text><polygon points="33,76 43,76 33,86" fill="#000000"/></g><g data-channel="cell" data-cell-index="3" data-cell-row="1" data-cell-col="1"><rect x="93" y="76" width="48" height="20" fill="#578170"/><text x="117" y="86" fill="#ffffff" style="font-family: &quot;JetBrains Mono&quot;, &quot;Menlo&quot;, &quot;Consolas&quot;, &quot;DejaVu Sans Mono&quot;, &quot;Liberation Mono&quot;, &quot;Roboto Mono&quot;, &quot;Noto Sans Mono&quot;, monospace; font-size: 16px;" text-anchor="middle" dominant-baseline="central">S85N</text></g><g data-channel="cell" data-cell-index="4" data-cell-row="2" data-cell-col="0" data-cell-blank="true" data-cell-blank-map="true"><rect x="33" y="116" width="48" height="20" rx="10" ry="10" fill="#ff3f2f" stroke="#000000" stroke-width="1"/><circle cx="45" cy="126" r="3.5" fill="#000000" data-blank-map-min="1,0"/><path d="M 64.8,119.333 H 73.2 M 69,115.133 V 123.533" fill="none" stroke="#000000" stroke-width="1.925" stroke-linecap="butt" data-blank-map-max="0,1"/></g><g data-channel="cell" data-cell-index="5" data-cell-row="2" data-cell-col="1"><rect x="93" y="116" width="48" height="20" fill="#822008"/><text x="117" y="126" fill="#ffffff" style="font-family: &quot;JetBrains Mono&quot;, &quot;Menlo&quot;, &quot;Consolas&quot;, &quot;DejaVu Sans Mono&quot;, &quot;Liberation Mono&quot;, &quot;Roboto Mono&quot;, &quot;Noto Sans Mono&quot;, monospace; font-size: 16px;" text-anchor="middle" dominant-baseline="central">22</text></g></g></g><g data-channel="color-bar" data-bar-slots="14" data-bar-marker-left="7" data-bar-marker-right="10"><g data-color-bar-rank="0" data-color-bar-band="B"><rect x="1" y="1" width="20" height="54.339" fill="#2f3fbf"/><text x="11" y="51.819" fill="#ffffff" style="font-family: &quot;JetBrains Mono&quot;, &quot;Menlo&quot;, &quot;Consolas&quot;, &quot;DejaVu Sans Mono&quot;, &quot;Liberation Mono&quot;, &quot;Roboto Mono&quot;, &quot;Noto Sans Mono&quot;, monospace; font-size: 16px;" text-anchor="middle" data-color-bar-letter="true">b</text></g><g data-color-bar-rank="1" data-color-bar-band="R"><rect x="1" y="55.339" width="20" height="18.916" fill="#ff3f2f"/><text x="11" y="70.735" fill="#000000" style="font-family: &quot;JetBrains Mono&quot;, &quot;Menlo&quot;, &quot;Consolas&quot;, &quot;DejaVu Sans Mono&quot;, &quot;Liberation Mono&quot;, &quot;Roboto Mono&quot;, &quot;Noto Sans Mono&quot;, monospace; font-size: 16px;" text-anchor="middle" data-color-bar-letter="true">r</text></g><g data-color-bar-rank="2" data-color-bar-band="K"><rect x="1" y="74.255" width="20" height="51.257" fill="#000000"/><text x="11" y="121.992" fill="#ffffff" style="font-family: &quot;JetBrains Mono&quot;, &quot;Menlo&quot;, &quot;Consolas&quot;, &quot;DejaVu Sans Mono&quot;, &quot;Liberation Mono&quot;, &quot;Roboto Mono&quot;, &quot;Noto Sans Mono&quot;, monospace; font-size: 16px;" text-anchor="middle" data-color-bar-letter="true">k</text></g><g data-color-bar-rank="3" data-color-bar-band="G"><rect x="1" y="125.512" width="20" height="45.488" fill="#e7be00"/><text x="11" y="167.48" fill="#000000" style="font-family: &quot;JetBrains Mono&quot;, &quot;Menlo&quot;, &quot;Consolas&quot;, &quot;DejaVu Sans Mono&quot;, &quot;Liberation Mono&quot;, &quot;Roboto Mono&quot;, &quot;Noto Sans Mono&quot;, monospace; font-size: 16px;" text-anchor="middle" data-color-bar-letter="true">g</text></g><circle cx="5.6" cy="92.071" r="3.4" fill="#ffffff" stroke="#000000" stroke-width="0.75" data-bar-marker="left"/><circle cx="16.4" cy="128.5" r="3.4" fill="#ffffff" stroke="#000000" stroke-width="0.75" data-bar-marker="right"/></g><g data-channel="label-top"><text x="27" y="16" fill="#666666" style="font-family: &quot;JetBrains Mono&quot;, &quot;Menlo&quot;, &quot;Consolas&quot;, &quot;DejaVu Sans Mono&quot;, &quot;Liberation Mono&quot;, &quot;Roboto Mono&quot;, &quot;Noto Sans Mono&quot;, monospace; font-size: 12px;" dominant-baseline="central">LEI:</text></g><g data-channel="label-bottom"><text x="147" y="156" fill="#666666" style="font-family: &quot;JetBrains Mono&quot;, &quot;Menlo&quot;, &quot;Consolas&quot;, &quot;DejaVu Sans Mono&quot;, &quot;Liberation Mono&quot;, &quot;Roboto Mono&quot;, &quot;Noto Sans Mono&quot;, monospace; font-size: 12px;" text-anchor="end" dominant-baseline="central">...05</text></g><line x1="0" y1="0.5" x2="153" y2="0.5" stroke="#808080" stroke-width="1" shape-rendering="crispEdges"/><line x1="152.5" y1="0" x2="152.5" y2="172" stroke="#808080" stroke-width="1" shape-rendering="crispEdges"/><line x1="0" y1="171.5" x2="153" y2="171.5" stroke="#808080" stroke-width="1" shape-rendering="crispEdges"/><line x1="0.5" y1="0" x2="0.5" y2="172" stroke="#808080" stroke-width="1" shape-rendering="crispEdges"/><line x1="21.5" y1="0" x2="21.5" y2="172" stroke="#808080" stroke-width="1" shape-rendering="crispEdges"/></svg>