<svg width="273" height="232" viewBox="0 0 273 232" xmlns="http://www.w3.org/2000/svg" font-family="&quot;JetBrains Mono&quot;, &quot;Menlo&quot;, &quot;Consolas&quot;, &quot;DejaVu Sans Mono&quot;, &quot;Liberation Mono&quot;, &quot;Roboto Mono&quot;, &quot;Noto Sans Mono&quot;, monospace" data-entviz-version="v11" data-entviz-lib="0.10.0" data-input-bytes="56" data-cols="4" data-rows="5"><defs><clipPath id="grid-clip-985bef79a49adefd-4x5"><rect x="27" y="26" width="240" height="200"/></clipPath></defs><rect x="0" y="0" width="273" height="232" fill="#ffffff"/><g data-channel="grid"><rect x="27" y="26" width="240" height="200" fill="#ffffff"/><g><path fill="#000000" d="M27 26h6v10h-6zM33 26h6v10h-6zM39 26h6v10h-6zM45 26h6v10h-6zM57 26h6v10h-6zM63 26h6v10h-6zM69 26h6v10h-6zM75 26h6v10h-6zM81 26h6v10h-6zM81 46h6v10h-6zM81 56h6v10h-6zM69 56h6v10h-6zM39 56h6v10h-6zM33 56h6v10h-6zM27 36h6v10h-6z"/><path fill="#2f3fbf" d="M93 26h6v10h-6zM105 26h6v10h-6zM111 26h6v10h-6zM129 26h6v10h-6zM141 36h6v10h-6zM135 56h6v10h-6zM123 56h6v10h-6zM117 56h6v10h-6zM99 56h6v10h-6zM93 56h6v10h-6zM87 56h6v10h-6zM87 46h6v10h-6z"/><path fill="#2f3fbf" d="M153 26h6v10h-6zM159 26h6v10h-6zM165 26h6v10h-6zM171 26h6v10h-6zM195 26h6v10h-6zM201 36h6v10h-6zM201 46h6v10h-6zM201 56h6v10h-6zM195 56h6v10h-6zM189 56h6v10h-6zM183 56h6v10h-6zM171 56h6v10h-6zM165 56h6v10h-6zM159 56h6v10h-6zM153 56h6v10h-6zM147 46h6v10h-6zM147 36h6v10h-6z"/><path fill="#2f3fbf" d="M207 26h6v10h-6zM219 26h6v10h-6zM231 26h6v10h-6zM249 26h6v10h-6zM255 26h6v10h-6zM261 26h6v10h-6zM261 36h6v10h-6zM255 56h6v10h-6zM249 56h6v10h-6zM243 56h6v10h-6zM231 56h6v10h-6zM213 56h6v10h-6zM207 56h6v10h-6z"/><path fill="#2f3fbf" d="M39 66h6v10h-6zM45 66h6v10h-6zM51 66h6v10h-6zM75 66h6v10h-6zM81 66h6v10h-6zM81 96h6v10h-6zM39 96h6v10h-6zM33 96h6v10h-6zM27 96h6v10h-6zM27 86h6v10h-6z"/><path fill="#2f3fbf" d="M117 66h6v10h-6zM135 66h6v10h-6zM141 66h6v10h-6zM141 86h6v10h-6zM135 96h6v10h-6zM123 96h6v10h-6zM117 96h6v10h-6zM111 96h6v10h-6zM93 96h6v10h-6zM87 96h6v10h-6zM87 76h6v10h-6z"/><path fill="#ff3f2f" d="M147 66h6v10h-6zM159 66h6v10h-6zM171 66h6v10h-6zM177 66h6v10h-6zM183 66h6v10h-6zM189 66h6v10h-6zM201 66h6v10h-6zM201 86h6v10h-6zM165 96h6v10h-6zM153 96h6v10h-6z"/><path fill="#ff3f2f" d="M225 66h6v10h-6zM231 66h6v10h-6zM237 66h6v10h-6zM243 66h6v10h-6zM249 66h6v10h-6zM261 66h6v10h-6zM261 96h6v10h-6zM243 96h6v10h-6zM231 96h6v10h-6zM219 96h6v10h-6zM213 96h6v10h-6zM207 86h6v10h-6zM207 76h6v10h-6z"/><path fill="#2f3fbf" d="M33 106h6v10h-6zM39 106h6v10h-6zM45 106h6v10h-6zM57 106h6v10h-6zM75 106h6v10h-6zM81 106h6v10h-6zM81 126h6v10h-6zM81 136h6v10h-6zM69 136h6v10h-6z"/><path fill="#ff3f2f" d="M87 106h6v10h-6zM99 106h6v10h-6zM105 106h6v10h-6zM111 106h6v10h-6zM117 106h6v10h-6zM123 106h6v10h-6zM129 106h6v10h-6zM135 106h6v10h-6zM141 116h6v10h-6zM141 126h6v10h-6zM141 136h6v10h-6zM135 136h6v10h-6zM99 136h6v10h-6zM87 116h6v10h-6z"/><path fill="#2f3fbf" d="M159 106h6v10h-6zM177 106h6v10h-6zM183 106h6v10h-6zM189 106h6v10h-6zM201 116h6v10h-6zM201 126h6v10h-6zM189 136h6v10h-6zM183 136h6v10h-6zM177 136h6v10h-6zM171 136h6v10h-6zM159 136h6v10h-6zM147 136h6v10h-6zM147 126h6v10h-6zM147 116h6v10h-6z"/><path fill="#2f3fbf" d="M213 106h6v10h-6zM219 106h6v10h-6zM243 106h6v10h-6zM255 106h6v10h-6zM261 126h6v10h-6zM249 136h6v10h-6zM231 136h6v10h-6zM207 116h6v10h-6z"/><path fill="#2f3fbf" d="M27 146h6v10h-6zM45 146h6v10h-6zM69 146h6v10h-6zM75 146h6v10h-6zM81 146h6v10h-6zM63 176h6v10h-6zM45 176h6v10h-6zM39 176h6v10h-6zM27 176h6v10h-6zM27 166h6v10h-6z"/><path fill="#ff3f2f" d="M159 146h6v10h-6zM165 146h6v10h-6zM183 146h6v10h-6zM201 176h6v10h-6zM189 176h6v10h-6zM183 176h6v10h-6zM177 176h6v10h-6zM171 176h6v10h-6zM165 176h6v10h-6zM159 176h6v10h-6zM147 176h6v10h-6zM147 166h6v10h-6z"/><path fill="#2f3fbf" d="M213 146h6v10h-6zM225 146h6v10h-6zM243 146h6v10h-6zM255 146h6v10h-6zM261 146h6v10h-6zM261 156h6v10h-6zM261 176h6v10h-6zM243 176h6v10h-6zM231 176h6v10h-6zM207 166h6v10h-6z"/><path fill="#000000" d="M27 186h6v10h-6zM33 186h6v10h-6zM39 186h6v10h-6zM81 206h6v10h-6zM75 216h6v10h-6zM69 216h6v10h-6zM63 216h6v10h-6zM51 216h6v10h-6zM27 216h6v10h-6zM27 206h6v10h-6z"/><path fill="#2f3fbf" d="M87 186h6v10h-6zM99 186h6v10h-6zM123 186h6v10h-6zM135 186h6v10h-6zM141 186h6v10h-6zM141 216h6v10h-6zM135 216h6v10h-6zM123 216h6v10h-6zM111 216h6v10h-6zM99 216h6v10h-6zM93 216h6v10h-6zM87 216h6v10h-6zM87 206h6v10h-6zM87 196h6v10h-6z"/><path fill="#2f3fbf" d="M153 186h6v10h-6zM159 186h6v10h-6zM165 186h6v10h-6zM171 186h6v10h-6zM195 186h6v10h-6zM201 206h6v10h-6zM183 216h6v10h-6zM159 216h6v10h-6zM147 196h6v10h-6z"/><path fill="#2f3fbf" d="M213 186h6v10h-6zM219 186h6v10h-6zM237 186h6v10h-6zM243 186h6v10h-6zM249 186h6v10h-6zM255 186h6v10h-6zM261 186h6v10h-6zM261 196h6v10h-6zM261 216h6v10h-6zM243 216h6v10h-6zM237 216h6v10h-6zM225 216h6v10h-6zM219 216h6v10h-6zM213 216h6v10h-6zM207 216h6v10h-6zM207 206h6v10h-6z"/></g><g clip-path="url(#grid-clip-985bef79a49adefd-4x5)" data-channel="ellipse" data-ellipse-anchor-x="147" data-ellipse-anchor-y="106" data-ellipse-rx="57.7" data-ellipse-ry="69.919" data-ellipse-rotation-deg="108"><ellipse cx="147" cy="106" rx="57.7" ry="69.919" transform="rotate(108 147 106)" fill="#000000" stroke="#000000" fill-opacity="0.2" stroke-opacity="0.3" stroke-width="2"/></g><g><g data-channel="cell" data-cell-index="0" data-cell-row="0" data-cell-col="0" data-surround-bits="0x985bef" data-edge-color="#000000"><rect x="33" y="36" width="48" height="20" fill="#726f4c"/><text x="57" y="46" fill="#ffffff" font-size="16" text-anchor="middle" dominant-baseline="central">TG9y</text></g><g data-channel="cell" data-cell-index="1" data-cell-row="0" data-cell-col="1" data-surround-bits="0x79a49a" data-edge-color="#2f3fbf" data-cell-quartile="3"><rect x="93" y="36" width="48" height="20" fill="#206d65"/><text x="117" y="46" fill="#ffffff" font-size="16" text-anchor="middle" dominant-baseline="central">ZW0g</text><polygon points="141,56 141,46 131,56" fill="#ffffff"/></g><g data-channel="cell" data-cell-index="2" data-cell-row="0" data-cell-col="2" data-surround-bits="0xdefd1e" data-edge-color="#2f3fbf"><rect x="153" y="36" width="48" height="20" fill="#737069"/><text x="177" y="46" fill="#ffffff" font-size="16" text-anchor="middle" dominant-baseline="central">aXBz</text></g><g data-channel="cell" data-cell-index="3" data-cell-row="0" data-cell-col="3" data-surround-bits="0x32e795" data-edge-color="#2f3fbf"><rect x="213" y="36" width="48" height="20" fill="#206d75"/><text x="237" y="46" fill="#ffffff" font-size="16" text-anchor="middle" dominant-baseline="central">dW0g</text></g><g data-channel="cell" data-cell-index="4" data-cell-row="1" data-cell-col="0" data-surround-bits="0x78131c" data-edge-color="#2f3fbf"><rect x="33" y="76" width="48" height="20" fill="#6c6f64"/><text x="57" y="86" fill="#ffffff" font-size="16" text-anchor="middle" dominant-baseline="central">ZG9s</text></g><g data-channel="cell" data-cell-index="5" data-cell-row="1" data-cell-col="1" data-surround-bits="0xb3ab20" data-edge-color="#2f3fbf"><rect x="93" y="76" width="48" height="20" fill="#20726f"/><text x="117" y="86" fill="#ffffff" font-size="16" text-anchor="middle" dominant-baseline="central">b3Ig</text></g><g data-channel="cell" data-cell-index="6" data-cell-row="1" data-cell-col="2" data-surround-bits="0x140af5" data-edge-color="#ff3f2f" data-cell-quartile="1"><rect x="153" y="76" width="48" height="20" fill="#746973"/><text x="177" y="86" fill="#ffffff" font-size="16" text-anchor="middle" dominant-baseline="central">c2l0</text><polygon points="153,76 163,76 153,86" fill="#ffffff"/></g><g data-channel="cell" data-cell-index="7" data-cell-row="1" data-cell-col="3" data-surround-bits="0xda92f8" data-edge-color="#ff3f2f"><rect x="213" y="76" width="48" height="20" fill="#6d6120"/><text x="237" y="86" fill="#ffffff" font-size="16" text-anchor="middle" dominant-baseline="central">IGFt</text></g><g data-channel="cell" data-cell-index="8" data-cell-row="2" data-cell-col="0" data-surround-bits="0x5b2e" data-edge-color="#2f3fbf"><rect x="33" y="116" width="48" height="20" fill="#2c7465"/><text x="57" y="126" fill="#ffffff" font-size="16" text-anchor="middle" dominant-baseline="central">ZXQs</text></g><g data-channel="cell" data-cell-index="9" data-cell-row="2" data-cell-col="1" data-surround-bits="0x883dfd" data-edge-color="#ff3f2f"><rect x="93" y="116" width="48" height="20" fill="#6f6320"/><text x="117" y="126" fill="#ffffff" font-size="16" text-anchor="middle" dominant-baseline="central">IGNv</text></g><g data-channel="cell" data-cell-index="10" data-cell-row="2" data-cell-col="2" data-surround-bits="0xebcce4" data-edge-color="#2f3fbf" data-cell-quartile="4"><rect x="153" y="116" width="48" height="20" fill="#65736e"/><text x="177" y="126" fill="#ffffff" font-size="16" text-anchor="middle" dominant-baseline="central">bnNl</text><polygon points="153,136 153,126 163,136" fill="#ffffff"/></g><g data-channel="cell" data-cell-index="11" data-cell-row="2" data-cell-col="3" data-surround-bits="0x824946" data-edge-color="#2f3fbf"><rect x="213" y="116" width="48" height="20" fill="#657463"/><text x="237" y="126" fill="#ffffff" font-size="16" text-anchor="middle" dominant-baseline="central">Y3Rl</text></g><g data-channel="cell" data-cell-index="12" data-cell-row="3" data-cell-col="0" data-surround-bits="0x6c8389" data-edge-color="#2f3fbf"><rect x="33" y="156" width="48" height="20" fill="#727574"/><text x="57" y="166" fill="#ffffff" font-size="16" text-anchor="middle" dominant-baseline="central">dHVy</text></g><g data-channel="cell" data-cell-index="13" data-cell-row="3" data-cell-col="1" data-cell-blank="true" data-cell-blank-map="true"><rect x="93" y="156" width="48" height="20" rx="10" ry="10" fill="#e7be00" stroke="#000000" stroke-width="1"/><circle cx="99" cy="166" r="3.5" fill="#000000" data-blank-map-min="2,0"/><path d="M 106.8,174 H 115.2 M 111,169.8 V 178.2" fill="none" stroke="#000000" stroke-width="1.925" stroke-linecap="butt" data-blank-map-max="4,1"/></g><g data-channel="cell" data-cell-index="14" data-cell-row="3" data-cell-col="2" data-surround-bits="0x6fd04c" data-edge-color="#ff3f2f"><rect x="153" y="156" width="48" height="20" fill="#646120"/><text x="177" y="166" fill="#ffffff" font-size="16" text-anchor="middle" dominant-baseline="central">IGFk</text></g><g data-channel="cell" data-cell-index="15" data-cell-row="3" data-cell-col="3" data-surround-bits="0x42974a" data-edge-color="#2f3fbf"><rect x="213" y="156" width="48" height="20" fill="#697069"/><text x="237" y="166" fill="#ffffff" font-size="16" text-anchor="middle" dominant-baseline="central">aXBp</text></g><g data-channel="cell" data-cell-index="16" data-cell-row="4" data-cell-col="0" data-surround-bits="0x62e807" data-edge-color="#000000" data-cell-quartile="2"><rect x="33" y="196" width="48" height="20" fill="#696373"/><text x="57" y="206" fill="#ffffff" font-size="16" text-anchor="middle" dominant-baseline="central">c2Np</text><polygon points="81,196 71,196 81,206" fill="#ffffff"/></g><g data-channel="cell" data-cell-index="17" data-cell-row="4" data-cell-col="1" data-surround-bits="0xfab345" data-edge-color="#2f3fbf"><rect x="93" y="196" width="48" height="20" fill="#20676e"/><text x="117" y="206" fill="#ffffff" font-size="16" text-anchor="middle" dominant-baseline="central">bmcg</text></g><g data-channel="cell" data-cell-index="18" data-cell-row="4" data-cell-col="2" data-surround-bits="0x88891e" data-edge-color="#2f3fbf"><rect x="153" y="196" width="48" height="20" fill="#696c65"/><text x="177" y="206" fill="#ffffff" font-size="16" text-anchor="middle" dominant-baseline="central">ZWxp</text></g><g data-channel="cell" data-cell-index="19" data-cell-row="4" data-cell-col="3" data-surround-bits="0x7d97e6" data-edge-color="#2f3fbf"><rect x="213" y="196" width="48" height="20" fill="#382e74"/><text x="237" y="206" fill="#ffffff" font-size="16" text-anchor="middle" dominant-baseline="central">dC4</text></g></g></g><g data-channel="color-bar" data-bar-slots="16" data-bar-marker-left="0" data-bar-marker-right="2"><g data-color-bar-rank="0" data-color-bar-band="G"><rect x="1" y="1" width="20" height="49.325" fill="#e7be00"/><text x="11" y="46.805" fill="#000000" font-size="16" text-anchor="middle" data-color-bar-letter="true">g</text></g><g data-color-bar-rank="1" data-color-bar-band="B"><rect x="1" y="50.325" width="20" height="84.827" fill="#2f3fbf"/><text x="11" y="131.633" fill="#ffffff" font-size="16" text-anchor="middle" data-color-bar-letter="true">b</text></g><g data-color-bar-rank="2" data-color-bar-band="R"><rect x="1" y="135.153" width="20" height="52.585" fill="#ff3f2f"/><text x="11" y="184.218" fill="#000000" font-size="16" text-anchor="middle" data-color-bar-letter="true">r</text></g><g data-color-bar-rank="3" data-color-bar-band="K"><rect x="1" y="187.738" width="20" height="43.262" fill="#000000"/><text x="11" y="227.48" fill="#ffffff" font-size="16" text-anchor="middle" data-color-bar-letter="true">k</text></g><circle cx="5.6" cy="8.188" r="3.4" fill="#ffffff" stroke="#000000" stroke-width="0.75" data-bar-marker="left"/><circle cx="16.4" cy="36.938" r="3.4" fill="#ffffff" stroke="#000000" stroke-width="0.75" data-bar-marker="right"/></g><g data-channel="label-top"><text x="27" y="16" fill="#666666" font-size="12" dominant-baseline="central">txt(56)-&gt;b64url:</text></g><line x1="0" y1="0.5" x2="273" y2="0.5" stroke="#808080" stroke-width="1" shape-rendering="crispEdges"/><line x1="272.5" y1="0" x2="272.5" y2="232" stroke="#808080" stroke-width="1" shape-rendering="crispEdges"/><line x1="0" y1="231.5" x2="273" y2="231.5" stroke="#808080" stroke-width="1" shape-rendering="crispEdges"/><line x1="0.5" y1="0" x2="0.5" y2="232" stroke="#808080" stroke-width="1" shape-rendering="crispEdges"/><line x1="21.5" y1="0" x2="21.5" y2="232" stroke="#808080" stroke-width="1" shape-rendering="crispEdges"/></svg>