<svg width="273" height="232" viewBox="0 0 273 232" xmlns="http://www.w3.org/2000/svg" data-entviz-version="v10" data-entviz-lib="0.10.0" data-input-bytes="56" data-cols="4" data-rows="5"><defs><clipPath id="grid-clip-985bef79a49adefd-4x5"><rect x="27" y="26" width="240" height="200"/></clipPath></defs><rect x="0" y="0" width="273" height="232" fill="#ffffff"/><g data-channel="grid"><rect x="27" y="26" width="240" height="200" fill="#ffffff"/><g><rect x="27" y="26" width="6" height="10" fill="#000000"/><rect x="33" y="26" width="6" height="10" fill="#000000"/><rect x="39" y="26" width="6" height="10" fill="#000000"/><rect x="45" y="26" width="6" height="10" fill="#000000"/><rect x="57" y="26" width="6" height="10" fill="#000000"/><rect x="63" y="26" width="6" height="10" fill="#000000"/><rect x="69" y="26" width="6" height="10" fill="#000000"/><rect x="75" y="26" width="6" height="10" fill="#000000"/><rect x="81" y="26" width="6" height="10" fill="#000000"/><rect x="81" y="46" width="6" height="10" fill="#000000"/><rect x="81" y="56" width="6" height="10" fill="#000000"/><rect x="69" y="56" width="6" height="10" fill="#000000"/><rect x="39" y="56" width="6" height="10" fill="#000000"/><rect x="33" y="56" width="6" height="10" fill="#000000"/><rect x="27" y="36" width="6" height="10" fill="#000000"/><rect x="93" y="26" width="6" height="10" fill="#2f3fbf"/><rect x="105" y="26" width="6" height="10" fill="#2f3fbf"/><rect x="111" y="26" width="6" height="10" fill="#2f3fbf"/><rect x="129" y="26" width="6" height="10" fill="#2f3fbf"/><rect x="141" y="36" width="6" height="10" fill="#2f3fbf"/><rect x="135" y="56" width="6" height="10" fill="#2f3fbf"/><rect x="123" y="56" width="6" height="10" fill="#2f3fbf"/><rect x="117" y="56" width="6" height="10" fill="#2f3fbf"/><rect x="99" y="56" width="6" height="10" fill="#2f3fbf"/><rect x="93" y="56" width="6" height="10" fill="#2f3fbf"/><rect x="87" y="56" width="6" height="10" fill="#2f3fbf"/><rect x="87" y="46" width="6" height="10" fill="#2f3fbf"/><rect x="153" y="26" width="6" height="10" fill="#2f3fbf"/><rect x="159" y="26" width="6" height="10" fill="#2f3fbf"/><rect x="165" y="26" width="6" height="10" fill="#2f3fbf"/><rect x="171" y="26" width="6" height="10" fill="#2f3fbf"/><rect x="195" y="26" width="6" height="10" fill="#2f3fbf"/><rect x="201" y="36" width="6" height="10" fill="#2f3fbf"/><rect x="201" y="46" width="6" height="10" fill="#2f3fbf"/><rect x="201" y="56" width="6" height="10" fill="#2f3fbf"/><rect x="195" y="56" width="6" height="10" fill="#2f3fbf"/><rect x="189" y="56" width="6" height="10" fill="#2f3fbf"/><rect x="183" y="56" width="6" height="10" fill="#2f3fbf"/><rect x="171" y="56" width="6" height="10" fill="#2f3fbf"/><rect x="165" y="56" width="6" height="10" fill="#2f3fbf"/><rect x="159" y="56" width="6" height="10" fill="#2f3fbf"/><rect x="153" y="56" width="6" height="10" fill="#2f3fbf"/><rect x="147" y="46" width="6" height="10" fill="#2f3fbf"/><rect x="147" y="36" width="6" height="10" fill="#2f3fbf"/><rect x="207" y="26" width="6" height="10" fill="#2f3fbf"/><rect x="219" y="26" width="6" height="10" fill="#2f3fbf"/><rect x="231" y="26" width="6" height="10" fill="#2f3fbf"/><rect x="249" y="26" width="6" height="10" fill="#2f3fbf"/><rect x="255" y="26" width="6" height="10" fill="#2f3fbf"/><rect x="261" y="26" width="6" height="10" fill="#2f3fbf"/><rect x="261" y="36" width="6" height="10" fill="#2f3fbf"/><rect x="255" y="56" width="6" height="10" fill="#2f3fbf"/><rect x="249" y="56" width="6" height="10" fill="#2f3fbf"/><rect x="243" y="56" width="6" height="10" fill="#2f3fbf"/><rect x="231" y="56" width="6" height="10" fill="#2f3fbf"/><rect x="213" y="56" width="6" height="10" fill="#2f3fbf"/><rect x="207" y="56" width="6" height="10" fill="#2f3fbf"/><rect x="39" y="66" width="6" height="10" fill="#2f3fbf"/><rect x="45" y="66" width="6" height="10" fill="#2f3fbf"/><rect x="51" y="66" width="6" height="10" fill="#2f3fbf"/><rect x="75" y="66" width="6" height="10" fill="#2f3fbf"/><rect x="81" y="66" width="6" height="10" fill="#2f3fbf"/><rect x="81" y="96" width="6" height="10" fill="#2f3fbf"/><rect x="39" y="96" width="6" height="10" fill="#2f3fbf"/><rect x="33" y="96" width="6" height="10" fill="#2f3fbf"/><rect x="27" y="96" width="6" height="10" fill="#2f3fbf"/><rect x="27" y="86" width="6" height="10" fill="#2f3fbf"/><rect x="117" y="66" width="6" height="10" fill="#2f3fbf"/><rect x="135" y="66" width="6" height="10" fill="#2f3fbf"/><rect x="141" y="66" width="6" height="10" fill="#2f3fbf"/><rect x="141" y="86" width="6" height="10" fill="#2f3fbf"/><rect x="135" y="96" width="6" height="10" fill="#2f3fbf"/><rect x="123" y="96" width="6" height="10" fill="#2f3fbf"/><rect x="117" y="96" width="6" height="10" fill="#2f3fbf"/><rect x="111" y="96" width="6" height="10" fill="#2f3fbf"/><rect x="93" y="96" width="6" height="10" fill="#2f3fbf"/><rect x="87" y="96" width="6" height="10" fill="#2f3fbf"/><rect x="87" y="76" width="6" height="10" fill="#2f3fbf"/><rect x="147" y="66" width="6" height="10" fill="#ff3f2f"/><rect x="159" y="66" width="6" height="10" fill="#ff3f2f"/><rect x="171" y="66" width="6" height="10" fill="#ff3f2f"/><rect x="177" y="66" width="6" height="10" fill="#ff3f2f"/><rect x="183" y="66" width="6" height="10" fill="#ff3f2f"/><rect x="189" y="66" width="6" height="10" fill="#ff3f2f"/><rect x="201" y="66" width="6" height="10" fill="#ff3f2f"/><rect x="201" y="86" width="6" height="10" fill="#ff3f2f"/><rect x="165" y="96" width="6" height="10" fill="#ff3f2f"/><rect x="153" y="96" width="6" height="10" fill="#ff3f2f"/><rect x="225" y="66" width="6" height="10" fill="#ff3f2f"/><rect x="231" y="66" width="6" height="10" fill="#ff3f2f"/><rect x="237" y="66" width="6" height="10" fill="#ff3f2f"/><rect x="243" y="66" width="6" height="10" fill="#ff3f2f"/><rect x="249" y="66" width="6" height="10" fill="#ff3f2f"/><rect x="261" y="66" width="6" height="10" fill="#ff3f2f"/><rect x="261" y="96" width="6" height="10" fill="#ff3f2f"/><rect x="243" y="96" width="6" height="10" fill="#ff3f2f"/><rect x="231" y="96" width="6" height="10" fill="#ff3f2f"/><rect x="219" y="96" width="6" height="10" fill="#ff3f2f"/><rect x="213" y="96" width="6" height="10" fill="#ff3f2f"/><rect x="207" y="86" width="6" height="10" fill="#ff3f2f"/><rect x="207" y="76" width="6" height="10" fill="#ff3f2f"/><rect x="33" y="106" width="6" height="10" fill="#2f3fbf"/><rect x="39" y="106" width="6" height="10" fill="#2f3fbf"/><rect x="45" y="106" width="6" height="10" fill="#2f3fbf"/><rect x="57" y="106" width="6" height="10" fill="#2f3fbf"/><rect x="75" y="106" width="6" height="10" fill="#2f3fbf"/><rect x="81" y="106" width="6" height="10" fill="#2f3fbf"/><rect x="81" y="126" width="6" height="10" fill="#2f3fbf"/><rect x="81" y="136" width="6" height="10" fill="#2f3fbf"/><rect x="69" y="136" width="6" height="10" fill="#2f3fbf"/><rect x="87" y="106" width="6" height="10" fill="#ff3f2f"/><rect x="99" y="106" width="6" height="10" fill="#ff3f2f"/><rect x="105" y="106" width="6" height="10" fill="#ff3f2f"/><rect x="111" y="106" width="6" height="10" fill="#ff3f2f"/><rect x="117" y="106" width="6" height="10" fill="#ff3f2f"/><rect x="123" y="106" width="6" height="10" fill="#ff3f2f"/><rect x="129" y="106" width="6" height="10" fill="#ff3f2f"/><rect x="135" y="106" width="6" height="10" fill="#ff3f2f"/><rect x="141" y="116" width="6" height="10" fill="#ff3f2f"/><rect x="141" y="126" width="6" height="10" fill="#ff3f2f"/><rect x="141" y="136" width="6" height="10" fill="#ff3f2f"/><rect x="135" y="136" width="6" height="10" fill="#ff3f2f"/><rect x="99" y="136" width="6" height="10" fill="#ff3f2f"/><rect x="87" y="116" width="6" height="10" fill="#ff3f2f"/><rect x="159" y="106" width="6" height="10" fill="#2f3fbf"/><rect x="177" y="106" width="6" height="10" fill="#2f3fbf"/><rect x="183" y="106" width="6" height="10" fill="#2f3fbf"/><rect x="189" y="106" width="6" height="10" fill="#2f3fbf"/><rect x="201" y="116" width="6" height="10" fill="#2f3fbf"/><rect x="201" y="126" width="6" height="10" fill="#2f3fbf"/><rect x="189" y="136" width="6" height="10" fill="#2f3fbf"/><rect x="183" y="136" width="6" height="10" fill="#2f3fbf"/><rect x="177" y="136" width="6" height="10" fill="#2f3fbf"/><rect x="171" y="136" width="6" height="10" fill="#2f3fbf"/><rect x="159" y="136" width="6" height="10" fill="#2f3fbf"/><rect x="147" y="136" width="6" height="10" fill="#2f3fbf"/><rect x="147" y="126" width="6" height="10" fill="#2f3fbf"/><rect x="147" y="116" width="6" height="10" fill="#2f3fbf"/><rect x="213" y="106" width="6" height="10" fill="#2f3fbf"/><rect x="219" y="106" width="6" height="10" fill="#2f3fbf"/><rect x="243" y="106" width="6" height="10" fill="#2f3fbf"/><rect x="255" y="106" width="6" height="10" fill="#2f3fbf"/><rect x="261" y="126" width="6" height="10" fill="#2f3fbf"/><rect x="249" y="136" width="6" height="10" fill="#2f3fbf"/><rect x="231" y="136" width="6" height="10" fill="#2f3fbf"/><rect x="207" y="116" width="6" height="10" fill="#2f3fbf"/><rect x="27" y="146" width="6" height="10" fill="#2f3fbf"/><rect x="45" y="146" width="6" height="10" fill="#2f3fbf"/><rect x="69" y="146" width="6" height="10" fill="#2f3fbf"/><rect x="75" y="146" width="6" height="10" fill="#2f3fbf"/><rect x="81" y="146" width="6" height="10" fill="#2f3fbf"/><rect x="63" y="176" width="6" height="10" fill="#2f3fbf"/><rect x="45" y="176" width="6" height="10" fill="#2f3fbf"/><rect x="39" y="176" width="6" height="10" fill="#2f3fbf"/><rect x="27" y="176" width="6" height="10" fill="#2f3fbf"/><rect x="27" y="166" width="6" height="10" fill="#2f3fbf"/><rect x="159" y="146" width="6" height="10" fill="#ff3f2f"/><rect x="165" y="146" width="6" height="10" fill="#ff3f2f"/><rect x="183" y="146" width="6" height="10" fill="#ff3f2f"/><rect x="201" y="176" width="6" height="10" fill="#ff3f2f"/><rect x="189" y="176" width="6" height="10" fill="#ff3f2f"/><rect x="183" y="176" width="6" height="10" fill="#ff3f2f"/><rect x="177" y="176" width="6" height="10" fill="#ff3f2f"/><rect x="171" y="176" width="6" height="10" fill="#ff3f2f"/><rect x="165" y="176" width="6" height="10" fill="#ff3f2f"/><rect x="159" y="176" width="6" height="10" fill="#ff3f2f"/><rect x="147" y="176" width="6" height="10" fill="#ff3f2f"/><rect x="147" y="166" width="6" height="10" fill="#ff3f2f"/><rect x="213" y="146" width="6" height="10" fill="#2f3fbf"/><rect x="225" y="146" width="6" height="10" fill="#2f3fbf"/><rect x="243" y="146" width="6" height="10" fill="#2f3fbf"/><rect x="255" y="146" width="6" height="10" fill="#2f3fbf"/><rect x="261" y="146" width="6" height="10" fill="#2f3fbf"/><rect x="261" y="156" width="6" height="10" fill="#2f3fbf"/><rect x="261" y="176" width="6" height="10" fill="#2f3fbf"/><rect x="243" y="176" width="6" height="10" fill="#2f3fbf"/><rect x="231" y="176" width="6" height="10" fill="#2f3fbf"/><rect x="207" y="166" width="6" height="10" fill="#2f3fbf"/><rect x="27" y="186" width="6" height="10" fill="#000000"/><rect x="33" y="186" width="6" height="10" fill="#000000"/><rect x="39" y="186" width="6" height="10" fill="#000000"/><rect x="81" y="206" width="6" height="10" fill="#000000"/><rect x="75" y="216" width="6" height="10" fill="#000000"/><rect x="69" y="216" width="6" height="10" fill="#000000"/><rect x="63" y="216" width="6" height="10" fill="#000000"/><rect x="51" y="216" width="6" height="10" fill="#000000"/><rect x="27" y="216" width="6" height="10" fill="#000000"/><rect x="27" y="206" width="6" height="10" fill="#000000"/><rect x="87" y="186" width="6" height="10" fill="#2f3fbf"/><rect x="99" y="186" width="6" height="10" fill="#2f3fbf"/><rect x="123" y="186" width="6" height="10" fill="#2f3fbf"/><rect x="135" y="186" width="6" height="10" fill="#2f3fbf"/><rect x="141" y="186" width="6" height="10" fill="#2f3fbf"/><rect x="141" y="216" width="6" height="10" fill="#2f3fbf"/><rect x="135" y="216" width="6" height="10" fill="#2f3fbf"/><rect x="123" y="216" width="6" height="10" fill="#2f3fbf"/><rect x="111" y="216" width="6" height="10" fill="#2f3fbf"/><rect x="99" y="216" width="6" height="10" fill="#2f3fbf"/><rect x="93" y="216" width="6" height="10" fill="#2f3fbf"/><rect x="87" y="216" width="6" height="10" fill="#2f3fbf"/><rect x="87" y="206" width="6" height="10" fill="#2f3fbf"/><rect x="87" y="196" width="6" height="10" fill="#2f3fbf"/><rect x="153" y="186" width="6" height="10" fill="#2f3fbf"/><rect x="159" y="186" width="6" height="10" fill="#2f3fbf"/><rect x="165" y="186" width="6" height="10" fill="#2f3fbf"/><rect x="171" y="186" width="6" height="10" fill="#2f3fbf"/><rect x="195" y="186" width="6" height="10" fill="#2f3fbf"/><rect x="201" y="206" width="6" height="10" fill="#2f3fbf"/><rect x="183" y="216" width="6" height="10" fill="#2f3fbf"/><rect x="159" y="216" width="6" height="10" fill="#2f3fbf"/><rect x="147" y="196" width="6" height="10" fill="#2f3fbf"/><rect x="213" y="186" width="6" height="10" fill="#2f3fbf"/><rect x="219" y="186" width="6" height="10" fill="#2f3fbf"/><rect x="237" y="186" width="6" height="10" fill="#2f3fbf"/><rect x="243" y="186" width="6" height="10" fill="#2f3fbf"/><rect x="249" y="186" width="6" height="10" fill="#2f3fbf"/><rect x="255" y="186" width="6" height="10" fill="#2f3fbf"/><rect x="261" y="186" width="6" height="10" fill="#2f3fbf"/><rect x="261" y="196" width="6" height="10" fill="#2f3fbf"/><rect x="261" y="216" width="6" height="10" fill="#2f3fbf"/><rect x="243" y="216" width="6" height="10" fill="#2f3fbf"/><rect x="237" y="216" width="6" height="10" fill="#2f3fbf"/><rect x="225" y="216" width="6" height="10" fill="#2f3fbf"/><rect x="219" y="216" width="6" height="10" fill="#2f3fbf"/><rect x="213" y="216" width="6" height="10" fill="#2f3fbf"/><rect x="207" y="216" width="6" height="10" fill="#2f3fbf"/><rect x="207" y="206" width="6" height="10" fill="#2f3fbf"/></g><g clip-path="url(#grid-clip-985bef79a49adefd-4x5)" data-channel="ellipse" data-ellipse-anchor-x="147" data-ellipse-anchor-y="106" data-ellipse-rx="57.7" data-ellipse-ry="69.919" data-ellipse-rotation-deg="108"><ellipse cx="147" cy="106" rx="57.7" ry="69.919" transform="rotate(108 147 106)" fill="#000000" stroke="#000000" fill-opacity="0.2" stroke-opacity="0.3" stroke-width="2"/></g><g><g data-channel="cell" data-cell-index="0" data-cell-row="0" data-cell-col="0"><rect x="33" y="36" width="48" height="20" fill="#726f4c"/><text x="57" y="46" fill="#ffffff" style="font-family: &quot;JetBrains Mono&quot;, &quot;Menlo&quot;, &quot;Consolas&quot;, &quot;DejaVu Sans Mono&quot;, &quot;Liberation Mono&quot;, &quot;Roboto Mono&quot;, &quot;Noto Sans Mono&quot;, monospace; font-size: 16px;" text-anchor="middle" dominant-baseline="central">TG9y</text></g><g data-channel="cell" data-cell-index="1" data-cell-row="0" data-cell-col="1" data-cell-quartile="3"><rect x="93" y="36" width="48" height="20" fill="#206d65"/><text x="117" y="46" fill="#ffffff" style="font-family: &quot;JetBrains Mono&quot;, &quot;Menlo&quot;, &quot;Consolas&quot;, &quot;DejaVu Sans Mono&quot;, &quot;Liberation Mono&quot;, &quot;Roboto Mono&quot;, &quot;Noto Sans Mono&quot;, monospace; font-size: 16px;" text-anchor="middle" dominant-baseline="central">ZW0g</text><polygon points="141,56 141,46 131,56" fill="#ffffff"/></g><g data-channel="cell" data-cell-index="2" data-cell-row="0" data-cell-col="2"><rect x="153" y="36" width="48" height="20" fill="#737069"/><text x="177" y="46" fill="#ffffff" style="font-family: &quot;JetBrains Mono&quot;, &quot;Menlo&quot;, &quot;Consolas&quot;, &quot;DejaVu Sans Mono&quot;, &quot;Liberation Mono&quot;, &quot;Roboto Mono&quot;, &quot;Noto Sans Mono&quot;, monospace; font-size: 16px;" text-anchor="middle" dominant-baseline="central">aXBz</text></g><g data-channel="cell" data-cell-index="3" data-cell-row="0" data-cell-col="3"><rect x="213" y="36" width="48" height="20" fill="#206d75"/><text x="237" y="46" fill="#ffffff" style="font-family: &quot;JetBrains Mono&quot;, &quot;Menlo&quot;, &quot;Consolas&quot;, &quot;DejaVu Sans Mono&quot;, &quot;Liberation Mono&quot;, &quot;Roboto Mono&quot;, &quot;Noto Sans Mono&quot;, monospace; font-size: 16px;" text-anchor="middle" dominant-baseline="central">dW0g</text></g><g data-channel="cell" data-cell-index="4" data-cell-row="1" data-cell-col="0"><rect x="33" y="76" width="48" height="20" fill="#6c6f64"/><text x="57" y="86" fill="#ffffff" style="font-family: &quot;JetBrains Mono&quot;, &quot;Menlo&quot;, &quot;Consolas&quot;, &quot;DejaVu Sans Mono&quot;, &quot;Liberation Mono&quot;, &quot;Roboto Mono&quot;, &quot;Noto Sans Mono&quot;, monospace; font-size: 16px;" text-anchor="middle" dominant-baseline="central">ZG9s</text></g><g data-channel="cell" data-cell-index="5" data-cell-row="1" data-cell-col="1"><rect x="93" y="76" width="48" height="20" fill="#20726f"/><text x="117" y="86" fill="#ffffff" style="font-family: &quot;JetBrains Mono&quot;, &quot;Menlo&quot;, &quot;Consolas&quot;, &quot;DejaVu Sans Mono&quot;, &quot;Liberation Mono&quot;, &quot;Roboto Mono&quot;, &quot;Noto Sans Mono&quot;, monospace; font-size: 16px;" text-anchor="middle" dominant-baseline="central">b3Ig</text></g><g data-channel="cell" data-cell-index="6" data-cell-row="1" data-cell-col="2" data-cell-quartile="1"><rect x="153" y="76" width="48" height="20" fill="#746973"/><text x="177" y="86" fill="#ffffff" style="font-family: &quot;JetBrains Mono&quot;, &quot;Menlo&quot;, &quot;Consolas&quot;, &quot;DejaVu Sans Mono&quot;, &quot;Liberation Mono&quot;, &quot;Roboto Mono&quot;, &quot;Noto Sans Mono&quot;, monospace; font-size: 16px;" text-anchor="middle" dominant-baseline="central">c2l0</text><polygon points="153,76 163,76 153,86" fill="#ffffff"/></g><g data-channel="cell" data-cell-index="7" data-cell-row="1" data-cell-col="3"><rect x="213" y="76" width="48" height="20" fill="#6d6120"/><text x="237" y="86" fill="#ffffff" style="font-family: &quot;JetBrains Mono&quot;, &quot;Menlo&quot;, &quot;Consolas&quot;, &quot;DejaVu Sans Mono&quot;, &quot;Liberation Mono&quot;, &quot;Roboto Mono&quot;, &quot;Noto Sans Mono&quot;, monospace; font-size: 16px;" text-anchor="middle" dominant-baseline="central">IGFt</text></g><g data-channel="cell" data-cell-index="8" data-cell-row="2" data-cell-col="0"><rect x="33" y="116" width="48" height="20" fill="#2c7465"/><text x="57" y="126" fill="#ffffff" style="font-family: &quot;JetBrains Mono&quot;, &quot;Menlo&quot;, &quot;Consolas&quot;, &quot;DejaVu Sans Mono&quot;, &quot;Liberation Mono&quot;, &quot;Roboto Mono&quot;, &quot;Noto Sans Mono&quot;, monospace; font-size: 16px;" text-anchor="middle" dominant-baseline="central">ZXQs</text></g><g data-channel="cell" data-cell-index="9" data-cell-row="2" data-cell-col="1"><rect x="93" y="116" width="48" height="20" fill="#6f6320"/><text x="117" y="126" fill="#ffffff" style="font-family: &quot;JetBrains Mono&quot;, &quot;Menlo&quot;, &quot;Consolas&quot;, &quot;DejaVu Sans Mono&quot;, &quot;Liberation Mono&quot;, &quot;Roboto Mono&quot;, &quot;Noto Sans Mono&quot;, monospace; font-size: 16px;" text-anchor="middle" dominant-baseline="central">IGNv</text></g><g data-channel="cell" data-cell-index="10" data-cell-row="2" data-cell-col="2" data-cell-quartile="4"><rect x="153" y="116" width="48" height="20" fill="#65736e"/><text x="177" y="126" fill="#ffffff" style="font-family: &quot;JetBrains Mono&quot;, &quot;Menlo&quot;, &quot;Consolas&quot;, &quot;DejaVu Sans Mono&quot;, &quot;Liberation Mono&quot;, &quot;Roboto Mono&quot;, &quot;Noto Sans Mono&quot;, monospace; font-size: 16px;" text-anchor="middle" dominant-baseline="central">bnNl</text><polygon points="153,136 153,126 163,136" fill="#ffffff"/></g><g data-channel="cell" data-cell-index="11" data-cell-row="2" data-cell-col="3"><rect x="213" y="116" width="48" height="20" fill="#657463"/><text x="237" y="126" fill="#ffffff" style="font-family: &quot;JetBrains Mono&quot;, &quot;Menlo&quot;, &quot;Consolas&quot;, &quot;DejaVu Sans Mono&quot;, &quot;Liberation Mono&quot;, &quot;Roboto Mono&quot;, &quot;Noto Sans Mono&quot;, monospace; font-size: 16px;" text-anchor="middle" dominant-baseline="central">Y3Rl</text></g><g data-channel="cell" data-cell-index="12" data-cell-row="3" data-cell-col="0"><rect x="33" y="156" width="48" height="20" fill="#727574"/><text x="57" y="166" fill="#ffffff" style="font-family: &quot;JetBrains Mono&quot;, &quot;Menlo&quot;, &quot;Consolas&quot;, &quot;DejaVu Sans Mono&quot;, &quot;Liberation Mono&quot;, &quot;Roboto Mono&quot;, &quot;Noto Sans Mono&quot;, monospace; font-size: 16px;" text-anchor="middle" dominant-baseline="central">dHVy</text></g><g data-channel="cell" data-cell-index="13" data-cell-row="3" data-cell-col="1" data-cell-blank="true" data-cell-blank-map="true"><rect x="93" y="156" width="48" height="20" rx="10" ry="10" fill="#e7be00" stroke="#000000" stroke-width="1"/><circle cx="99" cy="166" r="3.5" fill="#000000" data-blank-map-min="2,0"/><path d="M 106.8,174 H 115.2 M 111,169.8 V 178.2" fill="none" stroke="#000000" stroke-width="1.925" stroke-linecap="butt" data-blank-map-max="4,1"/></g><g data-channel="cell" data-cell-index="14" data-cell-row="3" data-cell-col="2"><rect x="153" y="156" width="48" height="20" fill="#646120"/><text x="177" y="166" fill="#ffffff" style="font-family: &quot;JetBrains Mono&quot;, &quot;Menlo&quot;, &quot;Consolas&quot;, &quot;DejaVu Sans Mono&quot;, &quot;Liberation Mono&quot;, &quot;Roboto Mono&quot;, &quot;Noto Sans Mono&quot;, monospace; font-size: 16px;" text-anchor="middle" dominant-baseline="central">IGFk</text></g><g data-channel="cell" data-cell-index="15" data-cell-row="3" data-cell-col="3"><rect x="213" y="156" width="48" height="20" fill="#697069"/><text x="237" y="166" fill="#ffffff" style="font-family: &quot;JetBrains Mono&quot;, &quot;Menlo&quot;, &quot;Consolas&quot;, &quot;DejaVu Sans Mono&quot;, &quot;Liberation Mono&quot;, &quot;Roboto Mono&quot;, &quot;Noto Sans Mono&quot;, monospace; font-size: 16px;" text-anchor="middle" dominant-baseline="central">aXBp</text></g><g data-channel="cell" data-cell-index="16" data-cell-row="4" data-cell-col="0" data-cell-quartile="2"><rect x="33" y="196" width="48" height="20" fill="#696373"/><text x="57" y="206" fill="#ffffff" style="font-family: &quot;JetBrains Mono&quot;, &quot;Menlo&quot;, &quot;Consolas&quot;, &quot;DejaVu Sans Mono&quot;, &quot;Liberation Mono&quot;, &quot;Roboto Mono&quot;, &quot;Noto Sans Mono&quot;, monospace; font-size: 16px;" text-anchor="middle" dominant-baseline="central">c2Np</text><polygon points="81,196 71,196 81,206" fill="#ffffff"/></g><g data-channel="cell" data-cell-index="17" data-cell-row="4" data-cell-col="1"><rect x="93" y="196" width="48" height="20" fill="#20676e"/><text x="117" y="206" fill="#ffffff" style="font-family: &quot;JetBrains Mono&quot;, &quot;Menlo&quot;, &quot;Consolas&quot;, &quot;DejaVu Sans Mono&quot;, &quot;Liberation Mono&quot;, &quot;Roboto Mono&quot;, &quot;Noto Sans Mono&quot;, monospace; font-size: 16px;" text-anchor="middle" dominant-baseline="central">bmcg</text></g><g data-channel="cell" data-cell-index="18" data-cell-row="4" data-cell-col="2"><rect x="153" y="196" width="48" height="20" fill="#696c65"/><text x="177" y="206" fill="#ffffff" style="font-family: &quot;JetBrains Mono&quot;, &quot;Menlo&quot;, &quot;Consolas&quot;, &quot;DejaVu Sans Mono&quot;, &quot;Liberation Mono&quot;, &quot;Roboto Mono&quot;, &quot;Noto Sans Mono&quot;, monospace; font-size: 16px;" text-anchor="middle" dominant-baseline="central">ZWxp</text></g><g data-channel="cell" data-cell-index="19" data-cell-row="4" data-cell-col="3"><rect x="213" y="196" width="48" height="20" fill="#382e74"/><text x="237" y="206" fill="#ffffff" style="font-family: &quot;JetBrains Mono&quot;, &quot;Menlo&quot;, &quot;Consolas&quot;, &quot;DejaVu Sans Mono&quot;, &quot;Liberation Mono&quot;, &quot;Roboto Mono&quot;, &quot;Noto Sans Mono&quot;, monospace; font-size: 16px;" text-anchor="middle" dominant-baseline="central">dC4</text></g></g></g><g data-channel="color-bar" data-bar-slots="16" data-bar-marker-left="0" data-bar-marker-right="2"><g data-color-bar-rank="0" data-color-bar-band="G"><rect x="1" y="1" width="20" height="49.325" fill="#e7be00"/><text x="11" y="46.805" fill="#000000" style="font-family: &quot;JetBrains Mono&quot;, &quot;Menlo&quot;, &quot;Consolas&quot;, &quot;DejaVu Sans Mono&quot;, &quot;Liberation Mono&quot;, &quot;Roboto Mono&quot;, &quot;Noto Sans Mono&quot;, monospace; font-size: 16px;" text-anchor="middle" data-color-bar-letter="true">g</text></g><g data-color-bar-rank="1" data-color-bar-band="B"><rect x="1" y="50.325" width="20" height="84.827" fill="#2f3fbf"/><text x="11" y="131.633" fill="#ffffff" style="font-family: &quot;JetBrains Mono&quot;, &quot;Menlo&quot;, &quot;Consolas&quot;, &quot;DejaVu Sans Mono&quot;, &quot;Liberation Mono&quot;, &quot;Roboto Mono&quot;, &quot;Noto Sans Mono&quot;, monospace; font-size: 16px;" text-anchor="middle" data-color-bar-letter="true">b</text></g><g data-color-bar-rank="2" data-color-bar-band="R"><rect x="1" y="135.153" width="20" height="52.585" fill="#ff3f2f"/><text x="11" y="184.218" fill="#000000" style="font-family: &quot;JetBrains Mono&quot;, &quot;Menlo&quot;, &quot;Consolas&quot;, &quot;DejaVu Sans Mono&quot;, &quot;Liberation Mono&quot;, &quot;Roboto Mono&quot;, &quot;Noto Sans Mono&quot;, monospace; font-size: 16px;" text-anchor="middle" data-color-bar-letter="true">r</text></g><g data-color-bar-rank="3" data-color-bar-band="K"><rect x="1" y="187.738" width="20" height="43.262" fill="#000000"/><text x="11" y="227.48" fill="#ffffff" style="font-family: &quot;JetBrains Mono&quot;, &quot;Menlo&quot;, &quot;Consolas&quot;, &quot;DejaVu Sans Mono&quot;, &quot;Liberation Mono&quot;, &quot;Roboto Mono&quot;, &quot;Noto Sans Mono&quot;, monospace; font-size: 16px;" text-anchor="middle" data-color-bar-letter="true">k</text></g><circle cx="5.6" cy="8.188" r="3.4" fill="#ffffff" stroke="#000000" stroke-width="0.75" data-bar-marker="left"/><circle cx="16.4" cy="36.938" r="3.4" fill="#ffffff" stroke="#000000" stroke-width="0.75" data-bar-marker="right"/></g><g data-channel="label-top"><text x="27" y="16" fill="#666666" style="font-family: &quot;JetBrains Mono&quot;, &quot;Menlo&quot;, &quot;Consolas&quot;, &quot;DejaVu Sans Mono&quot;, &quot;Liberation Mono&quot;, &quot;Roboto Mono&quot;, &quot;Noto Sans Mono&quot;, monospace; font-size: 12px;" dominant-baseline="central">txt(56)-&gt;b64url:</text></g><line x1="0" y1="0.5" x2="273" y2="0.5" stroke="#808080" stroke-width="1" shape-rendering="crispEdges"/><line x1="272.5" y1="0" x2="272.5" y2="232" stroke="#808080" stroke-width="1" shape-rendering="crispEdges"/><line x1="0" y1="231.5" x2="273" y2="231.5" stroke="#808080" stroke-width="1" shape-rendering="crispEdges"/><line x1="0.5" y1="0" x2="0.5" y2="232" stroke="#808080" stroke-width="1" shape-rendering="crispEdges"/><line x1="21.5" y1="0" x2="21.5" y2="232" stroke="#808080" stroke-width="1" shape-rendering="crispEdges"/></svg>