<svg width="273" height="192" viewBox="0 0 273 192" xmlns="http://www.w3.org/2000/svg" font-family="&quot;JetBrains Mono&quot;, &quot;Menlo&quot;, &quot;Consolas&quot;, &quot;DejaVu Sans Mono&quot;, &quot;Liberation Mono&quot;, &quot;Roboto Mono&quot;, &quot;Noto Sans Mono&quot;, monospace" data-entviz-version="v10" data-entviz-lib="0.10.0" data-input-bytes="62" data-cols="4" data-rows="4"><defs><clipPath id="grid-clip-2371623d63e0081d-4x4"><rect x="27" y="26" width="240" height="160"/></clipPath></defs><rect x="0" y="0" width="273" height="192" fill="#ffffff"/><g data-channel="grid"><rect x="27" y="26" width="240" height="160" fill="#ffffff"/><g><path fill="#2f3fbf" d="M33 26h6v10h-6zM57 26h6v10h-6zM63 26h6v10h-6zM75 26h6v10h-6zM81 56h6v10h-6zM75 56h6v10h-6zM69 56h6v10h-6zM57 56h6v10h-6zM51 56h6v10h-6zM27 56h6v10h-6z"/><path fill="#2f3fbf" d="M117 26h6v10h-6zM123 26h6v10h-6zM129 26h6v10h-6zM135 26h6v10h-6zM141 26h6v10h-6zM135 56h6v10h-6zM129 56h6v10h-6zM117 56h6v10h-6zM105 56h6v10h-6zM99 56h6v10h-6zM93 56h6v10h-6zM87 56h6v10h-6z"/><path fill="#ff3f2f" d="M147 26h6v10h-6zM159 26h6v10h-6zM183 26h6v10h-6zM189 26h6v10h-6zM195 26h6v10h-6zM201 36h6v10h-6zM201 46h6v10h-6zM201 56h6v10h-6zM159 56h6v10h-6z"/><path fill="#2f3fbf" d="M207 26h6v10h-6zM225 26h6v10h-6zM243 26h6v10h-6zM261 36h6v10h-6zM261 56h6v10h-6zM255 56h6v10h-6zM243 56h6v10h-6zM231 56h6v10h-6zM225 56h6v10h-6zM219 56h6v10h-6zM213 56h6v10h-6zM207 36h6v10h-6z"/><path fill="#2f3fbf" d="M33 66h6v10h-6zM81 66h6v10h-6zM81 76h6v10h-6zM81 86h6v10h-6zM69 96h6v10h-6zM33 96h6v10h-6zM27 76h6v10h-6z"/><path fill="#2f3fbf" d="M87 66h6v10h-6zM99 66h6v10h-6zM105 66h6v10h-6zM111 66h6v10h-6zM123 66h6v10h-6zM135 66h6v10h-6zM141 66h6v10h-6zM129 96h6v10h-6zM123 96h6v10h-6zM117 96h6v10h-6zM105 96h6v10h-6zM93 96h6v10h-6zM87 76h6v10h-6z"/><path fill="#2f3fbf" d="M147 66h6v10h-6zM153 66h6v10h-6zM159 66h6v10h-6zM171 66h6v10h-6zM177 66h6v10h-6zM183 66h6v10h-6zM201 76h6v10h-6zM201 96h6v10h-6zM195 96h6v10h-6zM171 96h6v10h-6zM165 96h6v10h-6zM147 86h6v10h-6zM147 76h6v10h-6z"/><path fill="#ff3f2f" d="M207 66h6v10h-6zM213 66h6v10h-6zM219 66h6v10h-6zM225 66h6v10h-6zM255 96h6v10h-6zM249 96h6v10h-6zM243 96h6v10h-6zM231 96h6v10h-6zM225 96h6v10h-6zM207 96h6v10h-6zM207 86h6v10h-6z"/><path fill="#e7be00" d="M33 106h6v10h-6zM51 106h6v10h-6zM63 106h6v10h-6zM69 106h6v10h-6zM81 106h6v10h-6zM81 116h6v10h-6zM81 126h6v10h-6zM81 136h6v10h-6zM69 136h6v10h-6zM57 136h6v10h-6zM39 136h6v10h-6zM33 136h6v10h-6zM27 136h6v10h-6zM27 126h6v10h-6z"/><path fill="#2f3fbf" d="M105 106h6v10h-6zM111 106h6v10h-6zM123 106h6v10h-6zM135 106h6v10h-6zM141 106h6v10h-6zM141 116h6v10h-6zM141 126h6v10h-6zM141 136h6v10h-6zM129 136h6v10h-6zM123 136h6v10h-6zM111 136h6v10h-6zM99 136h6v10h-6zM87 136h6v10h-6z"/><path fill="#2f3fbf" d="M165 106h6v10h-6zM171 106h6v10h-6zM183 106h6v10h-6zM201 126h6v10h-6zM201 136h6v10h-6zM195 136h6v10h-6zM183 136h6v10h-6zM171 136h6v10h-6zM165 136h6v10h-6zM147 126h6v10h-6z"/><path fill="#2f3fbf" d="M213 106h6v10h-6zM243 106h6v10h-6zM255 106h6v10h-6zM261 106h6v10h-6zM261 116h6v10h-6zM261 136h6v10h-6zM237 136h6v10h-6zM231 136h6v10h-6zM225 136h6v10h-6z"/><path fill="#ff3f2f" d="M27 146h6v10h-6zM39 146h6v10h-6zM51 146h6v10h-6zM57 146h6v10h-6zM75 146h6v10h-6zM63 176h6v10h-6zM45 176h6v10h-6zM39 176h6v10h-6zM33 176h6v10h-6zM27 176h6v10h-6z"/><path fill="#2f3fbf" d="M87 146h6v10h-6zM93 146h6v10h-6zM111 146h6v10h-6zM123 146h6v10h-6zM141 146h6v10h-6zM141 176h6v10h-6zM135 176h6v10h-6zM99 176h6v10h-6zM87 176h6v10h-6zM87 166h6v10h-6zM87 156h6v10h-6z"/><path fill="#2f3fbf" d="M147 146h6v10h-6zM165 146h6v10h-6zM177 146h6v10h-6zM183 146h6v10h-6zM189 146h6v10h-6zM195 176h6v10h-6zM177 176h6v10h-6zM165 176h6v10h-6zM153 176h6v10h-6zM147 166h6v10h-6z"/><path fill="#000000" d="M231 146h6v10h-6zM249 146h6v10h-6zM255 176h6v10h-6zM243 176h6v10h-6zM231 176h6v10h-6zM225 176h6v10h-6z"/></g><g clip-path="url(#grid-clip-2371623d63e0081d-4x4)" data-channel="ellipse" data-ellipse-anchor-x="87" data-ellipse-anchor-y="66" data-ellipse-rx="104.705" data-ellipse-ry="99.513" data-ellipse-rotation-deg="132"><ellipse cx="87" cy="66" rx="104.705" ry="99.513" transform="rotate(132 87 66)" fill="#000000" stroke="#000000" fill-opacity="0.2" stroke-opacity="0.3" stroke-width="2"/></g><g><g data-channel="cell" data-cell-index="0" data-cell-row="0" data-cell-col="0" data-surround-bits="0x237162" data-edge-color="#2f3fbf"><rect x="33" y="36" width="48" height="20" fill="#6c6548"/><text x="57" y="46" fill="#ffffff" font-size="16" text-anchor="middle" dominant-baseline="central">SGVs</text></g><g data-channel="cell" data-cell-index="1" data-cell-row="0" data-cell-col="1" data-surround-bits="0x3d63e0" data-edge-color="#2f3fbf"><rect x="93" y="36" width="48" height="20" fill="#2c6f6c"/><text x="117" y="46" fill="#ffffff" font-size="16" text-anchor="middle" dominant-baseline="central">bG8s</text></g><g data-channel="cell" data-cell-index="2" data-cell-row="0" data-cell-col="2" data-surround-bits="0x81dc5" data-edge-color="#ff3f2f" data-cell-quartile="2"><rect x="153" y="36" width="48" height="20" fill="#687420"/><text x="177" y="46" fill="#ffffff" font-size="16" text-anchor="middle" dominant-baseline="central">IHRo</text><polygon points="201,36 191,36 201,46" fill="#ffffff"/></g><g data-channel="cell" data-cell-index="3" data-cell-row="0" data-cell-col="3" data-surround-bits="0x9eb449" data-edge-color="#2f3fbf"><rect x="213" y="36" width="48" height="20" fill="#207369"/><text x="237" y="46" fill="#ffffff" font-size="16" text-anchor="middle" dominant-baseline="central">aXMg</text></g><g data-channel="cell" data-cell-index="4" data-cell-row="1" data-cell-col="0" data-surround-bits="0x904e02" data-edge-color="#2f3fbf"><rect x="33" y="76" width="48" height="20" fill="#207369"/><text x="57" y="86" fill="#ffffff" font-size="16" text-anchor="middle" dominant-baseline="central">aXMg</text></g><g data-channel="cell" data-cell-index="5" data-cell-row="1" data-cell-col="1" data-surround-bits="0x95c35d" data-edge-color="#2f3fbf" data-cell-quartile="4"><rect x="93" y="76" width="48" height="20" fill="#742061"/><text x="117" y="86" fill="#ffffff" font-size="16" text-anchor="middle" dominant-baseline="central">YSB0</text><polygon points="93,96 93,86 103,96" fill="#ffffff"/></g><g data-channel="cell" data-cell-index="6" data-cell-row="1" data-cell-col="2" data-surround-bits="0xc63477" data-edge-color="#2f3fbf"><rect x="153" y="76" width="48" height="20" fill="#747365"/><text x="177" y="86" fill="#ffffff" font-size="16" text-anchor="middle" dominant-baseline="central">ZXN0</text></g><g data-channel="cell" data-cell-index="7" data-cell-row="1" data-cell-col="3" data-surround-bits="0x66e00f" data-edge-color="#ff3f2f"><rect x="213" y="76" width="48" height="20" fill="#666f20"/><text x="237" y="86" fill="#ffffff" font-size="16" text-anchor="middle" dominant-baseline="central">IG9m</text></g><g data-channel="cell" data-cell-index="8" data-cell-row="2" data-cell-col="0" data-surround-bits="0x795ed2" data-edge-color="#e7be00" data-cell-quartile="3"><rect x="33" y="116" width="48" height="20" fill="#687420"/><text x="57" y="126" fill="#ffffff" font-size="16" text-anchor="middle" dominant-baseline="central">IHRo</text><polygon points="81,136 81,126 71,136" fill="#ffffff"/></g><g data-channel="cell" data-cell-index="9" data-cell-row="2" data-cell-col="1" data-surround-bits="0x2adf58" data-edge-color="#2f3fbf"><rect x="93" y="116" width="48" height="20" fill="#652065"/><text x="117" y="126" fill="#ffffff" font-size="16" text-anchor="middle" dominant-baseline="central">ZSBl</text></g><g data-channel="cell" data-cell-index="10" data-cell-row="2" data-cell-col="2" data-surround-bits="0x46b858" data-edge-color="#2f3fbf"><rect x="153" y="116" width="48" height="20" fill="#76746e"/><text x="177" y="126" fill="#ffffff" font-size="16" text-anchor="middle" dominant-baseline="central">bnR2</text></g><g data-channel="cell" data-cell-index="11" data-cell-row="2" data-cell-col="3" data-surround-bits="0x71742" data-edge-color="#2f3fbf"><rect x="213" y="116" width="48" height="20" fill="#207a69"/><text x="237" y="126" fill="#ffffff" font-size="16" text-anchor="middle" dominant-baseline="central">aXog</text></g><g data-channel="cell" data-cell-index="12" data-cell-row="3" data-cell-col="0" data-surround-bits="0x3c8135" data-edge-color="#ff3f2f" data-cell-quartile="1"><rect x="33" y="156" width="48" height="20" fill="#676c61"/><text x="57" y="166" fill="#ffffff" font-size="16" text-anchor="middle" dominant-baseline="central">YWxn</text><polygon points="33,156 43,156 33,166" fill="#ffffff"/></g><g data-channel="cell" data-cell-index="13" data-cell-row="3" data-cell-col="1" data-surround-bits="0xe83253" data-edge-color="#2f3fbf"><rect x="93" y="156" width="48" height="20" fill="#69726f"/><text x="117" y="166" fill="#ffffff" font-size="16" text-anchor="middle" dominant-baseline="central">b3Jp</text></g><g data-channel="cell" data-cell-index="14" data-cell-row="3" data-cell-col="2" data-surround-bits="0x5520e9" data-edge-color="#2f3fbf"><rect x="153" y="156" width="48" height="20" fill="#6d6874"/><text x="177" y="166" fill="#ffffff" font-size="16" text-anchor="middle" dominant-baseline="central">dGht</text></g><g data-channel="cell" data-cell-index="15" data-cell-row="3" data-cell-col="3" data-surround-bits="0x6a090" data-edge-color="#000000"><rect x="213" y="156" width="48" height="20" fill="#100221"/><text x="237" y="166" fill="#ffffff" font-size="16" text-anchor="middle" dominant-baseline="central">IQ</text></g></g></g><g data-channel="color-bar" data-bar-slots="15" data-bar-marker-left="8" data-bar-marker-right="13"><g data-color-bar-rank="0" data-color-bar-band="K"><rect x="1" y="1" width="20" height="42.127" fill="#000000"/><text x="11" y="39.607" fill="#ffffff" font-size="16" text-anchor="middle" data-color-bar-letter="true">k</text></g><g data-color-bar-rank="1" data-color-bar-band="G"><rect x="1" y="43.127" width="20" height="67.956" fill="#e7be00"/><text x="11" y="107.563" fill="#000000" font-size="16" text-anchor="middle" data-color-bar-letter="true">g</text></g><g data-color-bar-rank="2" data-color-bar-band="B"><rect x="1" y="111.083" width="20" height="22.739" fill="#2f3fbf"/><text x="11" y="130.302" fill="#ffffff" font-size="16" text-anchor="middle" data-color-bar-letter="true">b</text></g><g data-color-bar-rank="3" data-color-bar-band="R"><rect x="1" y="133.822" width="20" height="57.178" fill="#ff3f2f"/><text x="11" y="187.48" fill="#000000" font-size="16" text-anchor="middle" data-color-bar-letter="true">r</text></g><circle cx="5.6" cy="108.667" r="3.4" fill="#ffffff" stroke="#000000" stroke-width="0.75" data-bar-marker="left"/><circle cx="16.4" cy="172" r="3.4" fill="#ffffff" stroke="#000000" stroke-width="0.75" data-bar-marker="right"/></g><g data-channel="label-top"><text x="27" y="16" fill="#666666" font-size="12" dominant-baseline="central">b64(62):</text></g><line x1="0" y1="0.5" x2="273" y2="0.5" stroke="#808080" stroke-width="1" shape-rendering="crispEdges"/><line x1="272.5" y1="0" x2="272.5" y2="192" stroke="#808080" stroke-width="1" shape-rendering="crispEdges"/><line x1="0" y1="191.5" x2="273" y2="191.5" stroke="#808080" stroke-width="1" shape-rendering="crispEdges"/><line x1="0.5" y1="0" x2="0.5" y2="192" stroke="#808080" stroke-width="1" shape-rendering="crispEdges"/><line x1="21.5" y1="0" x2="21.5" y2="192" stroke="#808080" stroke-width="1" shape-rendering="crispEdges"/></svg>