<svg width="275" height="194" viewBox="0 0 275 194" xmlns="http://www.w3.org/2000/svg" font-family="&quot;JetBrains Mono&quot;, &quot;Menlo&quot;, &quot;Consolas&quot;, &quot;DejaVu Sans Mono&quot;, &quot;Liberation Mono&quot;, &quot;Roboto Mono&quot;, &quot;Noto Sans Mono&quot;, monospace" data-entviz-version="v13" data-entviz-lib="0.13.0" data-input-bytes="62" data-cols="4" data-rows="4" data-encoding="base64" data-scheme="" data-role="" data-size-basis="decoded" data-entropy-type="base64" data-size-bits="368" data-qualifiers="{}" data-parts="[{&quot;text&quot;:&quot;SGVsbG8sIHRoaXMgaXMgYSB0ZXN0IG9mIHRoZSBlbnR2aXogYWxnb3JpdGhtIQ&quot;,&quot;bind&quot;:&quot;core&quot;}]"><defs><clipPath id="grid-clip-2371623d63e0081d-4x4"><rect x="28" y="27" width="240" height="160"/></clipPath></defs><rect x="1" y="1" width="273" height="192" fill="#ffffff"/><g data-channel="grid"><rect x="28" y="27" width="240" height="160" fill="#ffffff"/><g><path fill="#2f3fbf" d="M34 27h6v10h-6zM58 27h6v10h-6zM64 27h6v10h-6zM76 27h6v10h-6zM82 57h6v10h-6zM76 57h6v10h-6zM70 57h6v10h-6zM58 57h6v10h-6zM52 57h6v10h-6zM28 57h6v10h-6z"/><path fill="#2f3fbf" d="M118 27h6v10h-6zM124 27h6v10h-6zM130 27h6v10h-6zM136 27h6v10h-6zM142 27h6v10h-6zM136 57h6v10h-6zM130 57h6v10h-6zM118 57h6v10h-6zM106 57h6v10h-6zM100 57h6v10h-6zM94 57h6v10h-6zM88 57h6v10h-6z"/><path fill="#ff3f2f" d="M148 27h6v10h-6zM160 27h6v10h-6zM184 27h6v10h-6zM190 27h6v10h-6zM196 27h6v10h-6zM202 37h6v10h-6zM202 47h6v10h-6zM202 57h6v10h-6zM160 57h6v10h-6z"/><path fill="#2f3fbf" d="M208 27h6v10h-6zM226 27h6v10h-6zM244 27h6v10h-6zM262 37h6v10h-6zM262 57h6v10h-6zM256 57h6v10h-6zM244 57h6v10h-6zM232 57h6v10h-6zM226 57h6v10h-6zM220 57h6v10h-6zM214 57h6v10h-6zM208 37h6v10h-6z"/><path fill="#2f3fbf" d="M34 67h6v10h-6zM82 67h6v10h-6zM82 77h6v10h-6zM82 87h6v10h-6zM70 97h6v10h-6zM34 97h6v10h-6zM28 77h6v10h-6z"/><path fill="#2f3fbf" d="M88 67h6v10h-6zM100 67h6v10h-6zM106 67h6v10h-6zM112 67h6v10h-6zM124 67h6v10h-6zM136 67h6v10h-6zM142 67h6v10h-6zM130 97h6v10h-6zM124 97h6v10h-6zM118 97h6v10h-6zM106 97h6v10h-6zM94 97h6v10h-6zM88 77h6v10h-6z"/><path fill="#2f3fbf" d="M148 67h6v10h-6zM154 67h6v10h-6zM160 67h6v10h-6zM172 67h6v10h-6zM178 67h6v10h-6zM184 67h6v10h-6zM202 77h6v10h-6zM202 97h6v10h-6zM196 97h6v10h-6zM172 97h6v10h-6zM166 97h6v10h-6zM148 87h6v10h-6zM148 77h6v10h-6z"/><path fill="#ff3f2f" d="M208 67h6v10h-6zM214 67h6v10h-6zM220 67h6v10h-6zM226 67h6v10h-6zM256 97h6v10h-6zM250 97h6v10h-6zM244 97h6v10h-6zM232 97h6v10h-6zM226 97h6v10h-6zM208 97h6v10h-6zM208 87h6v10h-6z"/><path fill="#e7be00" d="M34 107h6v10h-6zM52 107h6v10h-6zM64 107h6v10h-6zM70 107h6v10h-6zM82 107h6v10h-6zM82 117h6v10h-6zM82 127h6v10h-6zM82 137h6v10h-6zM70 137h6v10h-6zM58 137h6v10h-6zM40 137h6v10h-6zM34 137h6v10h-6zM28 137h6v10h-6zM28 127h6v10h-6z"/><path fill="#2f3fbf" d="M106 107h6v10h-6zM112 107h6v10h-6zM124 107h6v10h-6zM136 107h6v10h-6zM142 107h6v10h-6zM142 117h6v10h-6zM142 127h6v10h-6zM142 137h6v10h-6zM130 137h6v10h-6zM124 137h6v10h-6zM112 137h6v10h-6zM100 137h6v10h-6zM88 137h6v10h-6z"/><path fill="#2f3fbf" d="M166 107h6v10h-6zM172 107h6v10h-6zM184 107h6v10h-6zM202 127h6v10h-6zM202 137h6v10h-6zM196 137h6v10h-6zM184 137h6v10h-6zM172 137h6v10h-6zM166 137h6v10h-6zM148 127h6v10h-6z"/><path fill="#2f3fbf" d="M214 107h6v10h-6zM244 107h6v10h-6zM256 107h6v10h-6zM262 107h6v10h-6zM262 117h6v10h-6zM262 137h6v10h-6zM238 137h6v10h-6zM232 137h6v10h-6zM226 137h6v10h-6z"/><path fill="#ff3f2f" d="M28 147h6v10h-6zM40 147h6v10h-6zM52 147h6v10h-6zM58 147h6v10h-6zM76 147h6v10h-6zM64 177h6v10h-6zM46 177h6v10h-6zM40 177h6v10h-6zM34 177h6v10h-6zM28 177h6v10h-6z"/><path fill="#2f3fbf" d="M88 147h6v10h-6zM94 147h6v10h-6zM112 147h6v10h-6zM124 147h6v10h-6zM142 147h6v10h-6zM142 177h6v10h-6zM136 177h6v10h-6zM100 177h6v10h-6zM88 177h6v10h-6zM88 167h6v10h-6zM88 157h6v10h-6z"/><path fill="#2f3fbf" d="M148 147h6v10h-6zM166 147h6v10h-6zM178 147h6v10h-6zM184 147h6v10h-6zM190 147h6v10h-6zM196 177h6v10h-6zM178 177h6v10h-6zM166 177h6v10h-6zM154 177h6v10h-6zM148 167h6v10h-6z"/><path fill="#000000" d="M232 147h6v10h-6zM250 147h6v10h-6zM256 177h6v10h-6zM244 177h6v10h-6zM232 177h6v10h-6zM226 177h6v10h-6z"/></g><g clip-path="url(#grid-clip-2371623d63e0081d-4x4)" data-channel="ellipse" data-ellipse-anchor-x="88" data-ellipse-anchor-y="67" data-ellipse-rx="104.705" data-ellipse-ry="99.513" data-ellipse-rotation-deg="132"><ellipse cx="88" cy="67" rx="104.705" ry="99.513" transform="rotate(132 88 67)" fill="#000000" stroke="#000000" fill-opacity="0.2" stroke-opacity="0.3" stroke-width="2"/></g><g><g data-channel="cell" data-cell-index="0" data-cell-row="0" data-cell-col="0" data-surround-bits="0x237162" data-edge-color="#2f3fbf"><rect x="34" y="37" width="48" height="20" fill="#6c6548"/><text x="58" y="47" fill="#ffffff" font-size="16" text-anchor="middle" dominant-baseline="central">SGVs</text></g><g data-channel="cell" data-cell-index="1" data-cell-row="0" data-cell-col="1" data-surround-bits="0x3d63e0" data-edge-color="#2f3fbf"><rect x="94" y="37" width="48" height="20" fill="#2c6f6c"/><text x="118" y="47" fill="#ffffff" font-size="16" text-anchor="middle" dominant-baseline="central">bG8s</text></g><g data-channel="cell" data-cell-index="2" data-cell-row="0" data-cell-col="2" data-surround-bits="0x81dc5" data-edge-color="#ff3f2f" data-cell-quartile="2"><rect x="154" y="37" width="48" height="20" fill="#687420"/><text x="178" y="47" fill="#ffffff" font-size="16" text-anchor="middle" dominant-baseline="central">IHRo</text><polygon points="202,37 192,37 202,47" fill="#ffffff"/></g><g data-channel="cell" data-cell-index="3" data-cell-row="0" data-cell-col="3" data-surround-bits="0x9eb449" data-edge-color="#2f3fbf"><rect x="214" y="37" width="48" height="20" fill="#207369"/><text x="238" y="47" fill="#ffffff" font-size="16" text-anchor="middle" dominant-baseline="central">aXMg</text></g><g data-channel="cell" data-cell-index="4" data-cell-row="1" data-cell-col="0" data-surround-bits="0x904e02" data-edge-color="#2f3fbf"><rect x="34" y="77" width="48" height="20" fill="#207369"/><text x="58" y="87" fill="#ffffff" font-size="16" text-anchor="middle" dominant-baseline="central">aXMg</text></g><g data-channel="cell" data-cell-index="5" data-cell-row="1" data-cell-col="1" data-surround-bits="0x95c35d" data-edge-color="#2f3fbf" data-cell-quartile="4"><rect x="94" y="77" width="48" height="20" fill="#742061"/><text x="118" y="87" fill="#ffffff" font-size="16" text-anchor="middle" dominant-baseline="central">YSB0</text><polygon points="94,97 94,87 104,97" fill="#ffffff"/></g><g data-channel="cell" data-cell-index="6" data-cell-row="1" data-cell-col="2" data-surround-bits="0xc63477" data-edge-color="#2f3fbf"><rect x="154" y="77" width="48" height="20" fill="#747365"/><text x="178" y="87" fill="#ffffff" font-size="16" text-anchor="middle" dominant-baseline="central">ZXN0</text></g><g data-channel="cell" data-cell-index="7" data-cell-row="1" data-cell-col="3" data-surround-bits="0x66e00f" data-edge-color="#ff3f2f"><rect x="214" y="77" width="48" height="20" fill="#666f20"/><text x="238" y="87" fill="#ffffff" font-size="16" text-anchor="middle" dominant-baseline="central">IG9m</text></g><g data-channel="cell" data-cell-index="8" data-cell-row="2" data-cell-col="0" data-surround-bits="0x795ed2" data-edge-color="#e7be00" data-cell-quartile="3"><rect x="34" y="117" width="48" height="20" fill="#687420"/><text x="58" y="127" fill="#ffffff" font-size="16" text-anchor="middle" dominant-baseline="central">IHRo</text><polygon points="82,137 82,127 72,137" fill="#ffffff"/></g><g data-channel="cell" data-cell-index="9" data-cell-row="2" data-cell-col="1" data-surround-bits="0x2adf58" data-edge-color="#2f3fbf"><rect x="94" y="117" width="48" height="20" fill="#652065"/><text x="118" y="127" fill="#ffffff" font-size="16" text-anchor="middle" dominant-baseline="central">ZSBl</text></g><g data-channel="cell" data-cell-index="10" data-cell-row="2" data-cell-col="2" data-surround-bits="0x46b858" data-edge-color="#2f3fbf"><rect x="154" y="117" width="48" height="20" fill="#76746e"/><text x="178" y="127" fill="#ffffff" font-size="16" text-anchor="middle" dominant-baseline="central">bnR2</text></g><g data-channel="cell" data-cell-index="11" data-cell-row="2" data-cell-col="3" data-surround-bits="0x71742" data-edge-color="#2f3fbf"><rect x="214" y="117" width="48" height="20" fill="#207a69"/><text x="238" y="127" fill="#ffffff" font-size="16" text-anchor="middle" dominant-baseline="central">aXog</text></g><g data-channel="cell" data-cell-index="12" data-cell-row="3" data-cell-col="0" data-surround-bits="0x3c8135" data-edge-color="#ff3f2f" data-cell-quartile="1"><rect x="34" y="157" width="48" height="20" fill="#676c61"/><text x="58" y="167" fill="#ffffff" font-size="16" text-anchor="middle" dominant-baseline="central">YWxn</text><polygon points="34,157 44,157 34,167" fill="#ffffff"/></g><g data-channel="cell" data-cell-index="13" data-cell-row="3" data-cell-col="1" data-surround-bits="0xe83253" data-edge-color="#2f3fbf"><rect x="94" y="157" width="48" height="20" fill="#69726f"/><text x="118" y="167" fill="#ffffff" font-size="16" text-anchor="middle" dominant-baseline="central">b3Jp</text></g><g data-channel="cell" data-cell-index="14" data-cell-row="3" data-cell-col="2" data-surround-bits="0x5520e9" data-edge-color="#2f3fbf"><rect x="154" y="157" width="48" height="20" fill="#6d6874"/><text x="178" y="167" fill="#ffffff" font-size="16" text-anchor="middle" dominant-baseline="central">dGht</text></g><g data-channel="cell" data-cell-index="15" data-cell-row="3" data-cell-col="3" data-surround-bits="0x6a090" data-edge-color="#000000"><rect x="214" y="157" width="48" height="20" fill="#100221"/><text x="238" y="167" fill="#ffffff" font-size="16" text-anchor="middle" dominant-baseline="central">IQ</text></g></g></g><g data-channel="color-bar" data-bar-slots="15" data-bar-marker-left="8" data-bar-marker-right="13"><g data-color-bar-rank="0" data-color-bar-band="K"><rect x="2" y="2" width="20" height="42.127" fill="#000000"/><text x="12" y="40.607" fill="#ffffff" font-size="16" text-anchor="middle" data-color-bar-letter="true">k</text></g><g data-color-bar-rank="1" data-color-bar-band="G"><rect x="2" y="44.127" width="20" height="67.956" fill="#e7be00"/><text x="12" y="108.563" fill="#000000" font-size="16" text-anchor="middle" data-color-bar-letter="true">g</text></g><g data-color-bar-rank="2" data-color-bar-band="B"><rect x="2" y="112.083" width="20" height="22.739" fill="#2f3fbf"/><text x="12" y="131.302" fill="#ffffff" font-size="16" text-anchor="middle" data-color-bar-letter="true">b</text></g><g data-color-bar-rank="3" data-color-bar-band="R"><rect x="2" y="134.822" width="20" height="57.178" fill="#ff3f2f"/><text x="12" y="188.48" fill="#000000" font-size="16" text-anchor="middle" data-color-bar-letter="true">r</text></g><circle cx="6.6" cy="109.667" r="3.4" fill="#ffffff" stroke="#000000" stroke-width="0.75" data-bar-marker="left"/><circle cx="17.4" cy="173" r="3.4" fill="#ffffff" stroke="#000000" stroke-width="0.75" data-bar-marker="right"/></g><g data-channel="label-top"><text x="28" y="17" fill="#666666" font-size="12" dominant-baseline="central">b64(62):</text></g><line x1="1" y1="1.5" x2="274" y2="1.5" stroke="#808080" stroke-width="1" shape-rendering="crispEdges"/><line x1="273.5" y1="1" x2="273.5" y2="193" stroke="#808080" stroke-width="1" shape-rendering="crispEdges"/><line x1="1" y1="192.5" x2="274" y2="192.5" stroke="#808080" stroke-width="1" shape-rendering="crispEdges"/><line x1="1.5" y1="1" x2="1.5" y2="193" stroke="#808080" stroke-width="1" shape-rendering="crispEdges"/><line x1="22.5" y1="1" x2="22.5" y2="193" stroke="#808080" stroke-width="1" shape-rendering="crispEdges"/></svg>