<svg width="275" height="274" viewBox="0 0 275 274" xmlns="http://www.w3.org/2000/svg" font-family="&quot;JetBrains Mono&quot;, &quot;Menlo&quot;, &quot;Consolas&quot;, &quot;DejaVu Sans Mono&quot;, &quot;Liberation Mono&quot;, &quot;Roboto Mono&quot;, &quot;Noto Sans Mono&quot;, monospace" data-entviz-version="v15" data-entviz-lib="0.15.0" data-input-bytes="119" data-cols="4" data-rows="6" data-truncated="true" data-encoding="base64" data-scheme="" data-role="" data-size-basis="decoded" data-entropy-type="base64" data-size-bits="712" data-qualifiers="{}" data-parts="[{&quot;text&quot;:&quot;MIIBIjANBgkqhkiG9w0BAQEFAAOCAQ8AMIIBCgKCAQEAvkLpZUVjlW8zG3p4G7m7Q1xQfP8aZ8WUEpiE8WxC8mTLg3aN8gqK2y1zGfKbXc9p2YtNvJ5h0sX&quot;,&quot;bind&quot;:&quot;core&quot;}]"><defs><clipPath id="grid-clip-807e856a24dc33e6-4x6"><rect x="28" y="27" width="240" height="240"/></clipPath></defs><rect x="1" y="1" width="273" height="272" fill="#ffffff"/><g data-channel="grid"><rect x="28" y="27" width="240" height="240" fill="#ff3f2f"/><g><path fill="#e7be00" d="M28 27h6v10h-6zM40 27h6v10h-6zM70 27h6v10h-6zM82 27h6v10h-6zM82 37h6v10h-6zM82 47h6v10h-6zM82 57h6v10h-6zM76 57h6v10h-6zM70 57h6v10h-6zM28 37h6v10h-6z"/><path fill="#000000" d="M100 27h6v10h-6zM106 27h6v10h-6zM112 27h6v10h-6zM124 27h6v10h-6zM130 27h6v10h-6zM142 37h6v10h-6zM136 57h6v10h-6zM112 57h6v10h-6zM100 57h6v10h-6zM88 57h6v10h-6zM88 47h6v10h-6z"/><path fill="#000000" d="M154 27h6v10h-6zM160 27h6v10h-6zM178 27h6v10h-6zM202 27h6v10h-6zM202 37h6v10h-6zM196 57h6v10h-6zM190 57h6v10h-6zM184 57h6v10h-6zM178 57h6v10h-6zM172 57h6v10h-6zM154 57h6v10h-6zM148 57h6v10h-6z"/><path fill="#2f3fbf" d="M214 27h6v10h-6zM232 27h6v10h-6zM262 57h6v10h-6zM238 57h6v10h-6zM226 57h6v10h-6zM220 57h6v10h-6zM214 57h6v10h-6z"/><path fill="#2f3fbf" d="M28 67h6v10h-6zM52 67h6v10h-6zM76 97h6v10h-6zM64 97h6v10h-6zM46 97h6v10h-6zM40 97h6v10h-6zM34 97h6v10h-6zM28 97h6v10h-6z"/><path fill="#000000" d="M94 67h6v10h-6zM100 67h6v10h-6zM106 67h6v10h-6zM118 67h6v10h-6zM124 67h6v10h-6zM136 67h6v10h-6zM142 67h6v10h-6zM142 77h6v10h-6zM142 87h6v10h-6zM136 97h6v10h-6zM130 97h6v10h-6zM124 97h6v10h-6zM106 97h6v10h-6zM100 97h6v10h-6zM94 97h6v10h-6zM88 87h6v10h-6z"/><path fill="#000000" d="M208 67h6v10h-6zM214 67h6v10h-6zM226 67h6v10h-6zM232 67h6v10h-6zM250 67h6v10h-6zM250 97h6v10h-6zM244 97h6v10h-6zM232 97h6v10h-6zM214 97h6v10h-6zM208 97h6v10h-6zM208 77h6v10h-6z"/><path fill="#000000" d="M34 107h6v10h-6zM46 107h6v10h-6zM58 107h6v10h-6zM70 107h6v10h-6zM82 107h6v10h-6zM82 117h6v10h-6zM70 137h6v10h-6zM64 137h6v10h-6zM58 137h6v10h-6zM40 137h6v10h-6zM28 137h6v10h-6z"/><path fill="#e7be00" d="M88 107h6v10h-6zM100 107h6v10h-6zM112 107h6v10h-6zM118 107h6v10h-6zM124 107h6v10h-6zM130 107h6v10h-6zM142 127h6v10h-6zM142 137h6v10h-6zM136 137h6v10h-6zM130 137h6v10h-6zM124 137h6v10h-6zM118 137h6v10h-6zM106 137h6v10h-6zM100 137h6v10h-6zM94 137h6v10h-6zM88 117h6v10h-6z"/><path fill="#e7be00" d="M148 107h6v10h-6zM154 107h6v10h-6zM184 107h6v10h-6zM190 107h6v10h-6zM196 107h6v10h-6zM196 137h6v10h-6zM184 137h6v10h-6zM178 137h6v10h-6zM172 137h6v10h-6zM166 137h6v10h-6zM148 137h6v10h-6zM148 117h6v10h-6z"/><path fill="#e7be00" d="M220 107h6v10h-6zM232 107h6v10h-6zM250 107h6v10h-6zM262 107h6v10h-6zM262 117h6v10h-6zM262 137h6v10h-6zM256 137h6v10h-6zM238 137h6v10h-6zM208 127h6v10h-6z"/><path fill="#e7be00" d="M34 147h6v10h-6zM40 147h6v10h-6zM46 147h6v10h-6zM52 147h6v10h-6zM76 147h6v10h-6zM82 157h6v10h-6zM76 177h6v10h-6zM52 177h6v10h-6zM46 177h6v10h-6zM34 177h6v10h-6zM28 177h6v10h-6zM28 167h6v10h-6z"/><path fill="#000000" d="M154 147h6v10h-6zM190 147h6v10h-6zM202 147h6v10h-6zM202 157h6v10h-6zM202 167h6v10h-6zM190 177h6v10h-6zM178 177h6v10h-6zM172 177h6v10h-6zM148 177h6v10h-6zM148 167h6v10h-6z"/><path fill="#e7be00" d="M214 147h6v10h-6zM232 147h6v10h-6zM262 157h6v10h-6zM244 177h6v10h-6zM238 177h6v10h-6zM232 177h6v10h-6zM226 177h6v10h-6zM220 177h6v10h-6zM214 177h6v10h-6zM208 157h6v10h-6z"/><path fill="#e7be00" d="M28 187h6v10h-6zM34 187h6v10h-6zM70 187h6v10h-6zM82 187h6v10h-6zM82 197h6v10h-6zM82 207h6v10h-6zM82 217h6v10h-6zM70 217h6v10h-6zM64 217h6v10h-6zM58 217h6v10h-6zM52 217h6v10h-6zM46 217h6v10h-6zM34 217h6v10h-6zM28 207h6v10h-6z"/><path fill="#2f3fbf" d="M88 187h6v10h-6zM106 187h6v10h-6zM124 187h6v10h-6zM136 187h6v10h-6zM142 187h6v10h-6zM142 197h6v10h-6zM124 217h6v10h-6zM118 217h6v10h-6zM106 217h6v10h-6zM100 217h6v10h-6zM94 217h6v10h-6zM88 217h6v10h-6zM88 207h6v10h-6zM88 197h6v10h-6z"/><path fill="#2f3fbf" d="M160 187h6v10h-6zM166 187h6v10h-6zM178 187h6v10h-6zM190 187h6v10h-6zM196 187h6v10h-6zM202 187h6v10h-6zM202 197h6v10h-6zM202 207h6v10h-6zM202 217h6v10h-6zM196 217h6v10h-6zM190 217h6v10h-6zM148 207h6v10h-6z"/><path fill="#2f3fbf" d="M34 227h6v10h-6zM40 227h6v10h-6zM58 227h6v10h-6zM64 227h6v10h-6zM70 227h6v10h-6zM76 227h6v10h-6zM82 227h6v10h-6zM58 257h6v10h-6zM52 257h6v10h-6zM40 257h6v10h-6z"/><path fill="#e7be00" d="M124 227h6v10h-6zM130 227h6v10h-6zM136 227h6v10h-6zM142 227h6v10h-6zM142 247h6v10h-6zM106 257h6v10h-6zM100 257h6v10h-6zM94 257h6v10h-6zM88 237h6v10h-6z"/><path fill="#2f3fbf" d="M154 227h6v10h-6zM160 227h6v10h-6zM166 227h6v10h-6zM172 227h6v10h-6zM190 227h6v10h-6zM202 227h6v10h-6zM202 237h6v10h-6zM190 257h6v10h-6zM184 257h6v10h-6zM172 257h6v10h-6zM166 257h6v10h-6zM148 257h6v10h-6zM148 247h6v10h-6z"/></g><g clip-path="url(#grid-clip-807e856a24dc33e6-4x6)" data-channel="ellipse" data-ellipse-anchor-x="208" data-ellipse-anchor-y="107" data-ellipse-rx="139.682" data-ellipse-ry="122.343" data-ellipse-rotation-deg="168"><ellipse cx="208" cy="107" rx="139.682" ry="122.343" transform="rotate(168 208 107)" fill="#000000" stroke="#000000" fill-opacity="0.25" stroke-opacity="0.35" stroke-width="2"/></g><g><g data-channel="cell" data-cell-index="0" data-cell-row="0" data-cell-col="0" data-surround-bits="0x807e85" data-edge-color="#e7be00" data-cell-quartile="2"><rect x="34" y="37" width="48" height="20" fill="#018230"/><text x="58" y="47" fill="#ffffff" font-size="16" text-anchor="middle" dominant-baseline="central">MIIB</text><polygon points="82,37 72,37 82,47" fill="#ffffff"/></g><g data-channel="cell" data-cell-index="1" data-cell-row="0" data-cell-col="1" data-surround-bits="0x6a24dc" data-edge-color="#000000"><rect x="94" y="37" width="48" height="20" fill="#0d3022"/><text x="118" y="47" fill="#ffffff" font-size="16" text-anchor="middle" dominant-baseline="central">IjAN</text></g><g data-channel="cell" data-cell-index="2" data-cell-row="0" data-cell-col="2" data-surround-bits="0x33e626" data-edge-color="#000000"><rect x="154" y="37" width="48" height="20" fill="#2a0906"/><text x="178" y="47" fill="#ffffff" font-size="16" text-anchor="middle" dominant-baseline="central">Bgkq</text></g><g data-channel="cell" data-cell-index="3" data-cell-row="0" data-cell-col="3" data-surround-bits="0x1d1012" data-edge-color="#2f3fbf"><rect x="214" y="37" width="48" height="20" fill="#864886"/><text x="238" y="47" fill="#ffffff" font-size="16" text-anchor="middle" dominant-baseline="central">hkiG</text></g><g data-channel="cell" data-cell-index="4" data-cell-row="1" data-cell-col="0" data-surround-bits="0x3ca011" data-edge-color="#2f3fbf"><rect x="34" y="77" width="48" height="20" fill="#010df7"/><text x="58" y="87" fill="#ffffff" font-size="16" text-anchor="middle" dominant-baseline="central">9w0B</text></g><g data-channel="cell" data-cell-index="5" data-cell-row="1" data-cell-col="1" data-surround-bits="0x5cef6e" data-edge-color="#000000"><rect x="94" y="77" width="48" height="20" fill="#050101"/><text x="118" y="87" fill="#ffffff" font-size="16" text-anchor="middle" dominant-baseline="central">AQEF</text></g><g data-channel="cell" data-cell-index="6" data-cell-row="1" data-cell-col="2" data-cell-blank="true" data-cell-blank-map="true"><rect x="154" y="77" width="48" height="20" rx="10" ry="10" fill="#ffffff" stroke="#000000" stroke-width="1"/><circle cx="160" cy="95.333" r="3.5" fill="#1d4ed8" data-blank-map-min="5,0"/><path d="M 167.8,92 H 176.2 M 172,87.8 V 96.2" fill="none" stroke="#d62828" stroke-width="1.925" stroke-linecap="butt" data-blank-map-max="4,1"/></g><g data-channel="cell" data-cell-index="7" data-cell-row="1" data-cell-col="3" data-surround-bits="0xb2c09b" data-edge-color="#000000"><rect x="214" y="77" width="48" height="20" fill="#820300"/><text x="238" y="87" fill="#ffffff" font-size="16" text-anchor="middle" dominant-baseline="central">AAOC</text></g><g data-channel="cell" data-cell-index="8" data-cell-row="2" data-cell-col="0" data-surround-bits="0x29c6aa" data-edge-color="#000000"><rect x="34" y="117" width="48" height="20" fill="#000f01"/><text x="58" y="127" fill="#ffffff" font-size="16" text-anchor="middle" dominant-baseline="central">AQ8A</text></g><g data-channel="cell" data-cell-index="9" data-cell-row="2" data-cell-col="1" data-cell-fingerprint="true" data-surround-bits="0x9df8f5" data-edge-color="#e7be00" data-cell-quartile="1"><rect x="94" y="117" width="48" height="20" fill="#ff3f2f"/><rect x="94.5" y="117.5" width="47" height="19" fill="none" stroke="#ffffff" stroke-width="1"/><text x="118" y="127" fill="#000000" font-size="13.333" text-anchor="middle" dominant-baseline="central">55yrq</text><polygon points="94,117 104,117 94,127" fill="#000000"/></g><g data-channel="cell" data-cell-index="10" data-cell-row="2" data-cell-col="2" data-cell-fingerprint="true" data-surround-bits="0xa7a1c3" data-edge-color="#e7be00"><rect x="154" y="117" width="48" height="20" fill="#ff3f2f"/><rect x="154.5" y="117.5" width="47" height="19" fill="none" stroke="#ffffff" stroke-width="1"/><text x="178" y="127" fill="#000000" font-size="13.333" text-anchor="middle" dominant-baseline="central">3h5y7</text></g><g data-channel="cell" data-cell-index="11" data-cell-row="2" data-cell-col="3" data-cell-fingerprint="true" data-surround-bits="0x413694" data-edge-color="#e7be00" data-cell-quartile="3"><rect x="214" y="117" width="48" height="20" fill="#ff3f2f"/><rect x="214.5" y="117.5" width="47" height="19" fill="none" stroke="#ffffff" stroke-width="1"/><text x="238" y="127" fill="#000000" font-size="13.333" text-anchor="middle" dominant-baseline="central">bfvdv</text><polygon points="262,137 262,127 252,137" fill="#000000"/></g><g data-channel="cell" data-cell-index="12" data-cell-row="3" data-cell-col="0" data-cell-fingerprint="true" data-surround-bits="0x76251e" data-edge-color="#e7be00"><rect x="34" y="157" width="48" height="20" fill="#ff3f2f"/><rect x="34.5" y="157.5" width="47" height="19" fill="none" stroke="#ffffff" stroke-width="1"/><text x="58" y="167" fill="#000000" font-size="13.333" text-anchor="middle" dominant-baseline="central">e1me6</text></g><g data-channel="cell" data-cell-index="13" data-cell-row="3" data-cell-col="1" data-cell-blank="true"><rect x="94" y="157" width="48" height="20" rx="10" ry="10" fill="#ffffff" stroke="#000000" stroke-width="1"/></g><g data-channel="cell" data-cell-index="14" data-cell-row="3" data-cell-col="2" data-surround-bits="0x634e82" data-edge-color="#000000"><rect x="154" y="157" width="48" height="20" fill="#da0d2e"/><text x="178" y="167" fill="#ffffff" font-size="16" text-anchor="middle" dominant-baseline="central">Lg3a</text></g><g data-channel="cell" data-cell-index="15" data-cell-row="3" data-cell-col="3" data-surround-bits="0x9f8412" data-edge-color="#e7be00"><rect x="214" y="157" width="48" height="20" fill="#2ac837"/><text x="238" y="167" fill="#000000" font-size="16" text-anchor="middle" dominant-baseline="central">N8gq</text></g><g data-channel="cell" data-cell-index="16" data-cell-row="4" data-cell-col="0" data-surround-bits="0x57de83" data-edge-color="#e7be00"><rect x="34" y="197" width="48" height="20" fill="#b56c2b"/><text x="58" y="207" fill="#000000" font-size="16" text-anchor="middle" dominant-baseline="central">K2y1</text></g><g data-channel="cell" data-cell-index="17" data-cell-row="4" data-cell-col="1" data-surround-bits="0xfd8749" data-edge-color="#2f3fbf"><rect x="94" y="197" width="48" height="20" fill="#ca67cc"/><text x="118" y="207" fill="#000000" font-size="16" text-anchor="middle" dominant-baseline="central">zGfK</text></g><g data-channel="cell" data-cell-index="18" data-cell-row="4" data-cell-col="2" data-surround-bits="0x407fac" data-edge-color="#2f3fbf"><rect x="154" y="197" width="48" height="20" fill="#3d776d"/><text x="178" y="207" fill="#ffffff" font-size="16" text-anchor="middle" dominant-baseline="central">bXc9</text></g><g data-channel="cell" data-cell-index="19" data-cell-row="4" data-cell-col="3" data-cell-blank="true"><rect x="214" y="197" width="48" height="20" rx="10" ry="10" fill="#2f3fbf" stroke="#000000" stroke-width="1"/></g><g data-channel="cell" data-cell-index="20" data-cell-row="5" data-cell-col="0" data-surround-bits="0xb03e6" data-edge-color="#2f3fbf" data-cell-quartile="4"><rect x="34" y="237" width="48" height="20" fill="#2d66a7"/><text x="58" y="247" fill="#ffffff" font-size="16" text-anchor="middle" dominant-baseline="central">p2Yt</text><polygon points="34,257 34,247 44,257" fill="#ffffff"/></g><g data-channel="cell" data-cell-index="21" data-cell-row="5" data-cell-col="1" data-surround-bits="0x9c0bc0" data-edge-color="#e7be00"><rect x="94" y="237" width="48" height="20" fill="#79f236"/><text x="118" y="247" fill="#000000" font-size="16" text-anchor="middle" dominant-baseline="central">NvJ5</text></g><g data-channel="cell" data-cell-index="22" data-cell-row="5" data-cell-col="2" data-surround-bits="0x66c69e" data-edge-color="#2f3fbf"><rect x="154" y="237" width="48" height="20" fill="#174b87"/><text x="178" y="247" fill="#ffffff" font-size="16" text-anchor="middle" dominant-baseline="central">h0sX</text></g><g data-channel="cell" data-cell-index="23" data-cell-row="5" data-cell-col="3" data-cell-blank="true"><rect x="214" y="237" width="48" height="20" rx="10" ry="10" fill="#e7be00" stroke="#000000" stroke-width="1"/></g></g></g><g data-channel="color-bar" data-bar-slots="16" data-bar-marker-left="3" data-bar-marker-right="4"><g data-color-bar-rank="0" data-color-bar-band="W"><rect x="2" y="2" width="20" height="98.412" fill="#ffffff"/><text x="12" y="96.892" fill="#000000" font-size="16" text-anchor="middle" data-color-bar-letter="true">w</text></g><g data-color-bar-rank="1" data-color-bar-band="B"><rect x="2" y="100.412" width="20" height="73.484" fill="#2f3fbf"/><text x="12" y="170.375" fill="#ffffff" font-size="16" text-anchor="middle" data-color-bar-letter="true">b</text></g><g data-color-bar-rank="2" data-color-bar-band="K"><rect x="2" y="173.895" width="20" height="57.224" fill="#000000"/><text x="12" y="227.6" fill="#ffffff" font-size="16" text-anchor="middle" data-color-bar-letter="true">k</text></g><g data-color-bar-rank="3" data-color-bar-band="G"><rect x="2" y="231.12" width="20" height="40.88" fill="#e7be00"/><text x="12" y="268.48" fill="#000000" font-size="16" text-anchor="middle" data-color-bar-letter="true">g</text></g><circle cx="6.6" cy="61.062" r="3.4" fill="#ffffff" stroke="#000000" stroke-width="0.75" data-bar-marker="left"/><circle cx="17.4" cy="77.938" r="3.4" fill="#ffffff" stroke="#000000" stroke-width="0.75" data-bar-marker="right"/></g><g data-channel="label-top"><text x="28" y="17" fill="#666666" font-size="12" dominant-baseline="central"><tspan fill="#a00000" font-weight="bold">+hash </tspan>b64, 712-bit</text></g><line x1="1" y1="1.5" x2="274" y2="1.5" stroke="#808080" stroke-width="1" shape-rendering="crispEdges"/><line x1="273.5" y1="1" x2="273.5" y2="273" stroke="#808080" stroke-width="1" shape-rendering="crispEdges"/><line x1="1" y1="272.5" x2="274" y2="272.5" stroke="#808080" stroke-width="1" shape-rendering="crispEdges"/><line x1="1.5" y1="1" x2="1.5" y2="273" stroke="#808080" stroke-width="1" shape-rendering="crispEdges"/><line x1="22.5" y1="1" x2="22.5" y2="273" stroke="#808080" stroke-width="1" shape-rendering="crispEdges"/></svg>