<svg width="273.0" height="272.0" viewBox="0 0 273.0 272.0" xmlns="http://www.w3.org/2000/svg" data-entviz-version="v7" data-entviz-lib="0.7.1" data-input-bytes="119" data-cols="4" data-rows="6" data-truncated="true"><defs><clipPath id="grid-clip-807e856a24dc33e6-4x6"><rect x="27.0" y="26.0" width="240.0" height="240.0"/></clipPath></defs><rect x="0" y="0" width="273.0" height="272.0" fill="#ffffff"/><g data-channel="grid"><rect x="27.0" y="26.0" width="240.0" height="240.0" fill="#ff3f2f"/><g><rect x="27.0" y="26.0" width="6.0" height="10.0" fill="#000000"/><rect x="39.0" y="26.0" width="6.0" height="10.0" fill="#000000"/><rect x="69.0" y="26.0" width="6.0" height="10.0" fill="#000000"/><rect x="81.0" y="26.0" width="6.0" height="10.0" fill="#000000"/><rect x="81.0" y="36.0" width="6.0" height="10.0" fill="#000000"/><rect x="81.0" y="46.0" width="6.0" height="10.0" fill="#000000"/><rect x="81.0" y="56.0" width="6.0" height="10.0" fill="#000000"/><rect x="75.0" y="56.0" width="6.0" height="10.0" fill="#000000"/><rect x="69.0" y="56.0" width="6.0" height="10.0" fill="#000000"/><rect x="27.0" y="36.0" width="6.0" height="10.0" fill="#000000"/><rect x="99.0" y="26.0" width="6.0" height="10.0" fill="#000000"/><rect x="105.0" y="26.0" width="6.0" height="10.0" fill="#000000"/><rect x="111.0" y="26.0" width="6.0" height="10.0" fill="#000000"/><rect x="123.0" y="26.0" width="6.0" height="10.0" fill="#000000"/><rect x="129.0" y="26.0" width="6.0" height="10.0" fill="#000000"/><rect x="141.0" y="36.0" width="6.0" height="10.0" fill="#000000"/><rect x="135.0" y="56.0" width="6.0" height="10.0" fill="#000000"/><rect x="111.0" y="56.0" width="6.0" height="10.0" fill="#000000"/><rect x="99.0" y="56.0" width="6.0" height="10.0" fill="#000000"/><rect x="87.0" y="56.0" width="6.0" height="10.0" fill="#000000"/><rect x="87.0" y="46.0" width="6.0" height="10.0" fill="#000000"/><rect x="153.0" y="26.0" width="6.0" height="10.0" fill="#000000"/><rect x="159.0" y="26.0" width="6.0" height="10.0" fill="#000000"/><rect x="177.0" y="26.0" width="6.0" height="10.0" fill="#000000"/><rect x="201.0" y="26.0" width="6.0" height="10.0" fill="#000000"/><rect x="201.0" y="36.0" width="6.0" height="10.0" fill="#000000"/><rect x="195.0" y="56.0" width="6.0" height="10.0" fill="#000000"/><rect x="189.0" y="56.0" width="6.0" height="10.0" fill="#000000"/><rect x="183.0" y="56.0" width="6.0" height="10.0" fill="#000000"/><rect x="177.0" y="56.0" width="6.0" height="10.0" fill="#000000"/><rect x="171.0" y="56.0" width="6.0" height="10.0" fill="#000000"/><rect x="153.0" y="56.0" width="6.0" height="10.0" fill="#000000"/><rect x="147.0" y="56.0" width="6.0" height="10.0" fill="#000000"/><rect x="213.0" y="26.0" width="6.0" height="10.0" fill="#2f3fbf"/><rect x="231.0" y="26.0" width="6.0" height="10.0" fill="#2f3fbf"/><rect x="261.0" y="56.0" width="6.0" height="10.0" fill="#2f3fbf"/><rect x="237.0" y="56.0" width="6.0" height="10.0" fill="#2f3fbf"/><rect x="225.0" y="56.0" width="6.0" height="10.0" fill="#2f3fbf"/><rect x="219.0" y="56.0" width="6.0" height="10.0" fill="#2f3fbf"/><rect x="213.0" y="56.0" width="6.0" height="10.0" fill="#2f3fbf"/><rect x="27.0" y="66.0" width="6.0" height="10.0" fill="#2f3fbf"/><rect x="51.0" y="66.0" width="6.0" height="10.0" fill="#2f3fbf"/><rect x="75.0" y="96.0" width="6.0" height="10.0" fill="#2f3fbf"/><rect x="63.0" y="96.0" width="6.0" height="10.0" fill="#2f3fbf"/><rect x="45.0" y="96.0" width="6.0" height="10.0" fill="#2f3fbf"/><rect x="39.0" y="96.0" width="6.0" height="10.0" fill="#2f3fbf"/><rect x="33.0" y="96.0" width="6.0" height="10.0" fill="#2f3fbf"/><rect x="27.0" y="96.0" width="6.0" height="10.0" fill="#2f3fbf"/><rect x="93.0" y="66.0" width="6.0" height="10.0" fill="#000000"/><rect x="99.0" y="66.0" width="6.0" height="10.0" fill="#000000"/><rect x="105.0" y="66.0" width="6.0" height="10.0" fill="#000000"/><rect x="117.0" y="66.0" width="6.0" height="10.0" fill="#000000"/><rect x="123.0" y="66.0" width="6.0" height="10.0" fill="#000000"/><rect x="135.0" y="66.0" width="6.0" height="10.0" fill="#000000"/><rect x="141.0" y="66.0" width="6.0" height="10.0" fill="#000000"/><rect x="141.0" y="76.0" width="6.0" height="10.0" fill="#000000"/><rect x="141.0" y="86.0" width="6.0" height="10.0" fill="#000000"/><rect x="135.0" y="96.0" width="6.0" height="10.0" fill="#000000"/><rect x="129.0" y="96.0" width="6.0" height="10.0" fill="#000000"/><rect x="123.0" y="96.0" width="6.0" height="10.0" fill="#000000"/><rect x="105.0" y="96.0" width="6.0" height="10.0" fill="#000000"/><rect x="99.0" y="96.0" width="6.0" height="10.0" fill="#000000"/><rect x="93.0" y="96.0" width="6.0" height="10.0" fill="#000000"/><rect x="87.0" y="86.0" width="6.0" height="10.0" fill="#000000"/><rect x="207.0" y="66.0" width="6.0" height="10.0" fill="#000000"/><rect x="213.0" y="66.0" width="6.0" height="10.0" fill="#000000"/><rect x="225.0" y="66.0" width="6.0" height="10.0" fill="#000000"/><rect x="231.0" y="66.0" width="6.0" height="10.0" fill="#000000"/><rect x="249.0" y="66.0" width="6.0" height="10.0" fill="#000000"/><rect x="249.0" y="96.0" width="6.0" height="10.0" fill="#000000"/><rect x="243.0" y="96.0" width="6.0" height="10.0" fill="#000000"/><rect x="231.0" y="96.0" width="6.0" height="10.0" fill="#000000"/><rect x="213.0" y="96.0" width="6.0" height="10.0" fill="#000000"/><rect x="207.0" y="96.0" width="6.0" height="10.0" fill="#000000"/><rect x="207.0" y="76.0" width="6.0" height="10.0" fill="#000000"/><rect x="33.0" y="106.0" width="6.0" height="10.0" fill="#000000"/><rect x="45.0" y="106.0" width="6.0" height="10.0" fill="#000000"/><rect x="57.0" y="106.0" width="6.0" height="10.0" fill="#000000"/><rect x="69.0" y="106.0" width="6.0" height="10.0" fill="#000000"/><rect x="81.0" y="106.0" width="6.0" height="10.0" fill="#000000"/><rect x="81.0" y="116.0" width="6.0" height="10.0" fill="#000000"/><rect x="69.0" y="136.0" width="6.0" height="10.0" fill="#000000"/><rect x="63.0" y="136.0" width="6.0" height="10.0" fill="#000000"/><rect x="57.0" y="136.0" width="6.0" height="10.0" fill="#000000"/><rect x="39.0" y="136.0" width="6.0" height="10.0" fill="#000000"/><rect x="27.0" y="136.0" width="6.0" height="10.0" fill="#000000"/><rect x="87.0" y="106.0" width="6.0" height="10.0" fill="#e7be00"/><rect x="99.0" y="106.0" width="6.0" height="10.0" fill="#e7be00"/><rect x="111.0" y="106.0" width="6.0" height="10.0" fill="#e7be00"/><rect x="117.0" y="106.0" width="6.0" height="10.0" fill="#e7be00"/><rect x="123.0" y="106.0" width="6.0" height="10.0" fill="#e7be00"/><rect x="129.0" y="106.0" width="6.0" height="10.0" fill="#e7be00"/><rect x="141.0" y="126.0" width="6.0" height="10.0" fill="#e7be00"/><rect x="141.0" y="136.0" width="6.0" height="10.0" fill="#e7be00"/><rect x="135.0" y="136.0" width="6.0" height="10.0" fill="#e7be00"/><rect x="129.0" y="136.0" width="6.0" height="10.0" fill="#e7be00"/><rect x="123.0" y="136.0" width="6.0" height="10.0" fill="#e7be00"/><rect x="117.0" y="136.0" width="6.0" height="10.0" fill="#e7be00"/><rect x="105.0" y="136.0" width="6.0" height="10.0" fill="#e7be00"/><rect x="99.0" y="136.0" width="6.0" height="10.0" fill="#e7be00"/><rect x="93.0" y="136.0" width="6.0" height="10.0" fill="#e7be00"/><rect x="87.0" y="116.0" width="6.0" height="10.0" fill="#e7be00"/><rect x="147.0" y="106.0" width="6.0" height="10.0" fill="#e7be00"/><rect x="153.0" y="106.0" width="6.0" height="10.0" fill="#e7be00"/><rect x="183.0" y="106.0" width="6.0" height="10.0" fill="#e7be00"/><rect x="189.0" y="106.0" width="6.0" height="10.0" fill="#e7be00"/><rect x="195.0" y="106.0" width="6.0" height="10.0" fill="#e7be00"/><rect x="195.0" y="136.0" width="6.0" height="10.0" fill="#e7be00"/><rect x="183.0" y="136.0" width="6.0" height="10.0" fill="#e7be00"/><rect x="177.0" y="136.0" width="6.0" height="10.0" fill="#e7be00"/><rect x="171.0" y="136.0" width="6.0" height="10.0" fill="#e7be00"/><rect x="165.0" y="136.0" width="6.0" height="10.0" fill="#e7be00"/><rect x="147.0" y="136.0" width="6.0" height="10.0" fill="#e7be00"/><rect x="147.0" y="116.0" width="6.0" height="10.0" fill="#e7be00"/><rect x="219.0" y="106.0" width="6.0" height="10.0" fill="#e7be00"/><rect x="231.0" y="106.0" width="6.0" height="10.0" fill="#e7be00"/><rect x="249.0" y="106.0" width="6.0" height="10.0" fill="#e7be00"/><rect x="261.0" y="106.0" width="6.0" height="10.0" fill="#e7be00"/><rect x="261.0" y="116.0" width="6.0" height="10.0" fill="#e7be00"/><rect x="261.0" y="136.0" width="6.0" height="10.0" fill="#e7be00"/><rect x="255.0" y="136.0" width="6.0" height="10.0" fill="#e7be00"/><rect x="237.0" y="136.0" width="6.0" height="10.0" fill="#e7be00"/><rect x="207.0" y="126.0" width="6.0" height="10.0" fill="#e7be00"/><rect x="33.0" y="146.0" width="6.0" height="10.0" fill="#e7be00"/><rect x="39.0" y="146.0" width="6.0" height="10.0" fill="#e7be00"/><rect x="45.0" y="146.0" width="6.0" height="10.0" fill="#e7be00"/><rect x="51.0" y="146.0" width="6.0" height="10.0" fill="#e7be00"/><rect x="75.0" y="146.0" width="6.0" height="10.0" fill="#e7be00"/><rect x="81.0" y="156.0" width="6.0" height="10.0" fill="#e7be00"/><rect x="75.0" y="176.0" width="6.0" height="10.0" fill="#e7be00"/><rect x="51.0" y="176.0" width="6.0" height="10.0" fill="#e7be00"/><rect x="45.0" y="176.0" width="6.0" height="10.0" fill="#e7be00"/><rect x="33.0" y="176.0" width="6.0" height="10.0" fill="#e7be00"/><rect x="27.0" y="176.0" width="6.0" height="10.0" fill="#e7be00"/><rect x="27.0" y="166.0" width="6.0" height="10.0" fill="#e7be00"/><rect x="153.0" y="146.0" width="6.0" height="10.0" fill="#000000"/><rect x="189.0" y="146.0" width="6.0" height="10.0" fill="#000000"/><rect x="201.0" y="146.0" width="6.0" height="10.0" fill="#000000"/><rect x="201.0" y="156.0" width="6.0" height="10.0" fill="#000000"/><rect x="201.0" y="166.0" width="6.0" height="10.0" fill="#000000"/><rect x="189.0" y="176.0" width="6.0" height="10.0" fill="#000000"/><rect x="177.0" y="176.0" width="6.0" height="10.0" fill="#000000"/><rect x="171.0" y="176.0" width="6.0" height="10.0" fill="#000000"/><rect x="147.0" y="176.0" width="6.0" height="10.0" fill="#000000"/><rect x="147.0" y="166.0" width="6.0" height="10.0" fill="#000000"/><rect x="213.0" y="146.0" width="6.0" height="10.0" fill="#e7be00"/><rect x="231.0" y="146.0" width="6.0" height="10.0" fill="#e7be00"/><rect x="261.0" y="156.0" width="6.0" height="10.0" fill="#e7be00"/><rect x="243.0" y="176.0" width="6.0" height="10.0" fill="#e7be00"/><rect x="237.0" y="176.0" width="6.0" height="10.0" fill="#e7be00"/><rect x="231.0" y="176.0" width="6.0" height="10.0" fill="#e7be00"/><rect x="225.0" y="176.0" width="6.0" height="10.0" fill="#e7be00"/><rect x="219.0" y="176.0" width="6.0" height="10.0" fill="#e7be00"/><rect x="213.0" y="176.0" width="6.0" height="10.0" fill="#e7be00"/><rect x="207.0" y="156.0" width="6.0" height="10.0" fill="#e7be00"/><rect x="27.0" y="186.0" width="6.0" height="10.0" fill="#e7be00"/><rect x="33.0" y="186.0" width="6.0" height="10.0" fill="#e7be00"/><rect x="69.0" y="186.0" width="6.0" height="10.0" fill="#e7be00"/><rect x="81.0" y="186.0" width="6.0" height="10.0" fill="#e7be00"/><rect x="81.0" y="196.0" width="6.0" height="10.0" fill="#e7be00"/><rect x="81.0" y="206.0" width="6.0" height="10.0" fill="#e7be00"/><rect x="81.0" y="216.0" width="6.0" height="10.0" fill="#e7be00"/><rect x="69.0" y="216.0" width="6.0" height="10.0" fill="#e7be00"/><rect x="63.0" y="216.0" width="6.0" height="10.0" fill="#e7be00"/><rect x="57.0" y="216.0" width="6.0" height="10.0" fill="#e7be00"/><rect x="51.0" y="216.0" width="6.0" height="10.0" fill="#e7be00"/><rect x="45.0" y="216.0" width="6.0" height="10.0" fill="#e7be00"/><rect x="33.0" y="216.0" width="6.0" height="10.0" fill="#e7be00"/><rect x="27.0" y="206.0" width="6.0" height="10.0" fill="#e7be00"/><rect x="87.0" y="186.0" width="6.0" height="10.0" fill="#2f3fbf"/><rect x="105.0" y="186.0" width="6.0" height="10.0" fill="#2f3fbf"/><rect x="123.0" y="186.0" width="6.0" height="10.0" fill="#2f3fbf"/><rect x="135.0" y="186.0" width="6.0" height="10.0" fill="#2f3fbf"/><rect x="141.0" y="186.0" width="6.0" height="10.0" fill="#2f3fbf"/><rect x="141.0" y="196.0" width="6.0" height="10.0" fill="#2f3fbf"/><rect x="123.0" y="216.0" width="6.0" height="10.0" fill="#2f3fbf"/><rect x="117.0" y="216.0" width="6.0" height="10.0" fill="#2f3fbf"/><rect x="105.0" y="216.0" width="6.0" height="10.0" fill="#2f3fbf"/><rect x="99.0" y="216.0" width="6.0" height="10.0" fill="#2f3fbf"/><rect x="93.0" y="216.0" width="6.0" height="10.0" fill="#2f3fbf"/><rect x="87.0" y="216.0" width="6.0" height="10.0" fill="#2f3fbf"/><rect x="87.0" y="206.0" width="6.0" height="10.0" fill="#2f3fbf"/><rect x="87.0" y="196.0" width="6.0" height="10.0" fill="#2f3fbf"/><rect x="159.0" y="186.0" width="6.0" height="10.0" fill="#2f3fbf"/><rect x="165.0" y="186.0" width="6.0" height="10.0" fill="#2f3fbf"/><rect x="177.0" y="186.0" width="6.0" height="10.0" fill="#2f3fbf"/><rect x="189.0" y="186.0" width="6.0" height="10.0" fill="#2f3fbf"/><rect x="195.0" y="186.0" width="6.0" height="10.0" fill="#2f3fbf"/><rect x="201.0" y="186.0" width="6.0" height="10.0" fill="#2f3fbf"/><rect x="201.0" y="196.0" width="6.0" height="10.0" fill="#2f3fbf"/><rect x="201.0" y="206.0" width="6.0" height="10.0" fill="#2f3fbf"/><rect x="201.0" y="216.0" width="6.0" height="10.0" fill="#2f3fbf"/><rect x="195.0" y="216.0" width="6.0" height="10.0" fill="#2f3fbf"/><rect x="189.0" y="216.0" width="6.0" height="10.0" fill="#2f3fbf"/><rect x="147.0" y="206.0" width="6.0" height="10.0" fill="#2f3fbf"/><rect x="33.0" y="226.0" width="6.0" height="10.0" fill="#2f3fbf"/><rect x="39.0" y="226.0" width="6.0" height="10.0" fill="#2f3fbf"/><rect x="57.0" y="226.0" width="6.0" height="10.0" fill="#2f3fbf"/><rect x="63.0" y="226.0" width="6.0" height="10.0" fill="#2f3fbf"/><rect x="69.0" y="226.0" width="6.0" height="10.0" fill="#2f3fbf"/><rect x="75.0" y="226.0" width="6.0" height="10.0" fill="#2f3fbf"/><rect x="81.0" y="226.0" width="6.0" height="10.0" fill="#2f3fbf"/><rect x="57.0" y="256.0" width="6.0" height="10.0" fill="#2f3fbf"/><rect x="51.0" y="256.0" width="6.0" height="10.0" fill="#2f3fbf"/><rect x="39.0" y="256.0" width="6.0" height="10.0" fill="#2f3fbf"/><rect x="123.0" y="226.0" width="6.0" height="10.0" fill="#e7be00"/><rect x="129.0" y="226.0" width="6.0" height="10.0" fill="#e7be00"/><rect x="135.0" y="226.0" width="6.0" height="10.0" fill="#e7be00"/><rect x="141.0" y="226.0" width="6.0" height="10.0" fill="#e7be00"/><rect x="141.0" y="246.0" width="6.0" height="10.0" fill="#e7be00"/><rect x="105.0" y="256.0" width="6.0" height="10.0" fill="#e7be00"/><rect x="99.0" y="256.0" width="6.0" height="10.0" fill="#e7be00"/><rect x="93.0" y="256.0" width="6.0" height="10.0" fill="#e7be00"/><rect x="87.0" y="236.0" width="6.0" height="10.0" fill="#e7be00"/><rect x="153.0" y="226.0" width="6.0" height="10.0" fill="#2f3fbf"/><rect x="159.0" y="226.0" width="6.0" height="10.0" fill="#2f3fbf"/><rect x="165.0" y="226.0" width="6.0" height="10.0" fill="#2f3fbf"/><rect x="171.0" y="226.0" width="6.0" height="10.0" fill="#2f3fbf"/><rect x="189.0" y="226.0" width="6.0" height="10.0" fill="#2f3fbf"/><rect x="201.0" y="226.0" width="6.0" height="10.0" fill="#2f3fbf"/><rect x="201.0" y="236.0" width="6.0" height="10.0" fill="#2f3fbf"/><rect x="189.0" y="256.0" width="6.0" height="10.0" fill="#2f3fbf"/><rect x="183.0" y="256.0" width="6.0" height="10.0" fill="#2f3fbf"/><rect x="171.0" y="256.0" width="6.0" height="10.0" fill="#2f3fbf"/><rect x="165.0" y="256.0" width="6.0" height="10.0" fill="#2f3fbf"/><rect x="147.0" y="256.0" width="6.0" height="10.0" fill="#2f3fbf"/><rect x="147.0" y="246.0" width="6.0" height="10.0" fill="#2f3fbf"/></g><g clip-path="url(#grid-clip-807e856a24dc33e6-4x6)" data-channel="ellipse" data-ellipse-anchor-x="207.0" data-ellipse-anchor-y="106.0" data-ellipse-rx="139.68249711399062" data-ellipse-ry="122.34260092052972" data-ellipse-rotation-deg="168.0"><ellipse cx="207.0" cy="106.0" rx="139.68249711399062" ry="122.34260092052972" transform="rotate(168.0 207.0 106.0)" fill="#000000" stroke="#000000" fill-opacity="0.25" stroke-opacity="0.35" stroke-width="2.0"/></g><g><g data-channel="cell" data-cell-index="0" data-cell-row="0" data-cell-col="0" data-cell-quartile="2"><rect x="33.0" y="36.0" width="48.0" height="20.0" fill="#018230"/><text x="57.0" y="46.0" fill="#ffffff" style="font-family: &quot;JetBrains Mono&quot;, &quot;Menlo&quot;, &quot;Consolas&quot;, &quot;DejaVu Sans Mono&quot;, &quot;Liberation Mono&quot;, &quot;Roboto Mono&quot;, &quot;Noto Sans Mono&quot;, monospace; font-size: 16.0px;" text-anchor="middle" dominant-baseline="central">MIIB</text><polygon points="81.0,36.0 71.0,36.0 81.0,46.0" fill="#ffffff"/></g><g data-channel="cell" data-cell-index="1" data-cell-row="0" data-cell-col="1"><rect x="93.0" y="36.0" width="48.0" height="20.0" fill="#0d3022"/><text x="117.0" y="46.0" fill="#ffffff" style="font-family: &quot;JetBrains Mono&quot;, &quot;Menlo&quot;, &quot;Consolas&quot;, &quot;DejaVu Sans Mono&quot;, &quot;Liberation Mono&quot;, &quot;Roboto Mono&quot;, &quot;Noto Sans Mono&quot;, monospace; font-size: 16.0px;" text-anchor="middle" dominant-baseline="central">IjAN</text></g><g data-channel="cell" data-cell-index="2" data-cell-row="0" data-cell-col="2"><rect x="153.0" y="36.0" width="48.0" height="20.0" fill="#2a0906"/><text x="177.0" y="46.0" fill="#ffffff" style="font-family: &quot;JetBrains Mono&quot;, &quot;Menlo&quot;, &quot;Consolas&quot;, &quot;DejaVu Sans Mono&quot;, &quot;Liberation Mono&quot;, &quot;Roboto Mono&quot;, &quot;Noto Sans Mono&quot;, monospace; font-size: 16.0px;" text-anchor="middle" dominant-baseline="central">Bgkq</text></g><g data-channel="cell" data-cell-index="3" data-cell-row="0" data-cell-col="3"><rect x="213.0" y="36.0" width="48.0" height="20.0" fill="#864886"/><text x="237.0" y="46.0" fill="#ffffff" style="font-family: &quot;JetBrains Mono&quot;, &quot;Menlo&quot;, &quot;Consolas&quot;, &quot;DejaVu Sans Mono&quot;, &quot;Liberation Mono&quot;, &quot;Roboto Mono&quot;, &quot;Noto Sans Mono&quot;, monospace; font-size: 16.0px;" text-anchor="middle" dominant-baseline="central">hkiG</text></g><g data-channel="cell" data-cell-index="4" data-cell-row="1" data-cell-col="0"><rect x="33.0" y="76.0" width="48.0" height="20.0" fill="#010df7"/><text x="57.0" y="86.0" fill="#ffffff" style="font-family: &quot;JetBrains Mono&quot;, &quot;Menlo&quot;, &quot;Consolas&quot;, &quot;DejaVu Sans Mono&quot;, &quot;Liberation Mono&quot;, &quot;Roboto Mono&quot;, &quot;Noto Sans Mono&quot;, monospace; font-size: 16.0px;" text-anchor="middle" dominant-baseline="central">9w0B</text></g><g data-channel="cell" data-cell-index="5" data-cell-row="1" data-cell-col="1"><rect x="93.0" y="76.0" width="48.0" height="20.0" fill="#050101"/><text x="117.0" y="86.0" fill="#ffffff" style="font-family: &quot;JetBrains Mono&quot;, &quot;Menlo&quot;, &quot;Consolas&quot;, &quot;DejaVu Sans Mono&quot;, &quot;Liberation Mono&quot;, &quot;Roboto Mono&quot;, &quot;Noto Sans Mono&quot;, monospace; font-size: 16.0px;" text-anchor="middle" dominant-baseline="central">AQEF</text></g><g data-channel="cell" data-cell-index="6" data-cell-row="1" data-cell-col="2" data-cell-blank="true" data-cell-blank-map="true"><rect x="153.0" y="76.0" width="48.0" height="20.0" rx="10.0" ry="10.0" fill="#ffffff" stroke="#000000" stroke-width="1"/><circle cx="171.0" cy="91.0" r="3.5" fill="#d62828" data-blank-map-max="true"/><circle cx="159.0" cy="94.33333333333334" r="3.5" fill="#1d4ed8" data-blank-map-min="true"/></g><g data-channel="cell" data-cell-index="7" data-cell-row="1" data-cell-col="3"><rect x="213.0" y="76.0" width="48.0" height="20.0" fill="#820300"/><text x="237.0" y="86.0" fill="#ffffff" style="font-family: &quot;JetBrains Mono&quot;, &quot;Menlo&quot;, &quot;Consolas&quot;, &quot;DejaVu Sans Mono&quot;, &quot;Liberation Mono&quot;, &quot;Roboto Mono&quot;, &quot;Noto Sans Mono&quot;, monospace; font-size: 16.0px;" text-anchor="middle" dominant-baseline="central">AAOC</text></g><g data-channel="cell" data-cell-index="8" data-cell-row="2" data-cell-col="0"><rect x="33.0" y="116.0" width="48.0" height="20.0" fill="#000f01"/><text x="57.0" y="126.0" fill="#ffffff" style="font-family: &quot;JetBrains Mono&quot;, &quot;Menlo&quot;, &quot;Consolas&quot;, &quot;DejaVu Sans Mono&quot;, &quot;Liberation Mono&quot;, &quot;Roboto Mono&quot;, &quot;Noto Sans Mono&quot;, monospace; font-size: 16.0px;" text-anchor="middle" dominant-baseline="central">AQ8A</text></g><g data-channel="cell" data-cell-index="9" data-cell-row="2" data-cell-col="1" data-cell-fingerprint="true" data-cell-quartile="1"><rect x="93.0" y="116.0" width="48.0" height="20.0" fill="#ff3f2f"/><rect x="93.5" y="116.5" width="47.0" height="19.0" fill="none" stroke="#ffffff" stroke-width="1"/><text x="117.0" y="126.0" fill="#000000" style="font-family: &quot;JetBrains Mono&quot;, &quot;Menlo&quot;, &quot;Consolas&quot;, &quot;DejaVu Sans Mono&quot;, &quot;Liberation Mono&quot;, &quot;Roboto Mono&quot;, &quot;Noto Sans Mono&quot;, monospace; font-size: 12.0px;" text-anchor="middle" dominant-baseline="central">52fb17</text><polygon points="93.0,116.0 103.0,116.0 93.0,126.0" fill="#000000"/></g><g data-channel="cell" data-cell-index="10" data-cell-row="2" data-cell-col="2" data-cell-fingerprint="true"><rect x="153.0" y="116.0" width="48.0" height="20.0" fill="#ff3f2f"/><rect x="153.5" y="116.5" width="47.0" height="19.0" fill="none" stroke="#ffffff" stroke-width="1"/><text x="177.0" y="126.0" fill="#000000" style="font-family: &quot;JetBrains Mono&quot;, &quot;Menlo&quot;, &quot;Consolas&quot;, &quot;DejaVu Sans Mono&quot;, &quot;Liberation Mono&quot;, &quot;Roboto Mono&quot;, &quot;Noto Sans Mono&quot;, monospace; font-size: 12.0px;" text-anchor="middle" dominant-baseline="central">3897c7</text></g><g data-channel="cell" data-cell-index="11" data-cell-row="2" data-cell-col="3" data-cell-fingerprint="true" data-cell-quartile="3"><rect x="213.0" y="116.0" width="48.0" height="20.0" fill="#ff3f2f"/><rect x="213.5" y="116.5" width="47.0" height="19.0" fill="none" stroke="#ffffff" stroke-width="1"/><text x="237.0" y="126.0" fill="#000000" style="font-family: &quot;JetBrains Mono&quot;, &quot;Menlo&quot;, &quot;Consolas&quot;, &quot;DejaVu Sans Mono&quot;, &quot;Liberation Mono&quot;, &quot;Roboto Mono&quot;, &quot;Noto Sans Mono&quot;, monospace; font-size: 12.0px;" text-anchor="middle" dominant-baseline="central">b7edbb</text><polygon points="261.0,136.0 261.0,126.0 251.0,136.0" fill="#000000"/></g><g data-channel="cell" data-cell-index="12" data-cell-row="3" data-cell-col="0" data-cell-fingerprint="true"><rect x="33.0" y="156.0" width="48.0" height="20.0" fill="#ff3f2f"/><rect x="33.5" y="156.5" width="47.0" height="19.0" fill="none" stroke="#ffffff" stroke-width="1"/><text x="57.0" y="166.0" fill="#000000" style="font-family: &quot;JetBrains Mono&quot;, &quot;Menlo&quot;, &quot;Consolas&quot;, &quot;DejaVu Sans Mono&quot;, &quot;Liberation Mono&quot;, &quot;Roboto Mono&quot;, &quot;Noto Sans Mono&quot;, monospace; font-size: 12.0px;" text-anchor="middle" dominant-baseline="central">e0d1c6</text></g><g data-channel="cell" data-cell-index="13" data-cell-row="3" data-cell-col="1" data-cell-blank="true"><rect x="93.0" y="156.0" width="48.0" height="20.0" rx="10.0" ry="10.0" fill="none" stroke="#000000" stroke-width="1"/></g><g data-channel="cell" data-cell-index="14" data-cell-row="3" data-cell-col="2"><rect x="153.0" y="156.0" width="48.0" height="20.0" fill="#da0d2e"/><text x="177.0" y="166.0" fill="#ffffff" style="font-family: &quot;JetBrains Mono&quot;, &quot;Menlo&quot;, &quot;Consolas&quot;, &quot;DejaVu Sans Mono&quot;, &quot;Liberation Mono&quot;, &quot;Roboto Mono&quot;, &quot;Noto Sans Mono&quot;, monospace; font-size: 16.0px;" text-anchor="middle" dominant-baseline="central">Lg3a</text></g><g data-channel="cell" data-cell-index="15" data-cell-row="3" data-cell-col="3"><rect x="213.0" y="156.0" width="48.0" height="20.0" fill="#2ac837"/><text x="237.0" y="166.0" fill="#000000" style="font-family: &quot;JetBrains Mono&quot;, &quot;Menlo&quot;, &quot;Consolas&quot;, &quot;DejaVu Sans Mono&quot;, &quot;Liberation Mono&quot;, &quot;Roboto Mono&quot;, &quot;Noto Sans Mono&quot;, monospace; font-size: 16.0px;" text-anchor="middle" dominant-baseline="central">N8gq</text></g><g data-channel="cell" data-cell-index="16" data-cell-row="4" data-cell-col="0"><rect x="33.0" y="196.0" width="48.0" height="20.0" fill="#b56c2b"/><text x="57.0" y="206.0" fill="#000000" style="font-family: &quot;JetBrains Mono&quot;, &quot;Menlo&quot;, &quot;Consolas&quot;, &quot;DejaVu Sans Mono&quot;, &quot;Liberation Mono&quot;, &quot;Roboto Mono&quot;, &quot;Noto Sans Mono&quot;, monospace; font-size: 16.0px;" text-anchor="middle" dominant-baseline="central">K2y1</text></g><g data-channel="cell" data-cell-index="17" data-cell-row="4" data-cell-col="1"><rect x="93.0" y="196.0" width="48.0" height="20.0" fill="#ca67cc"/><text x="117.0" y="206.0" fill="#000000" style="font-family: &quot;JetBrains Mono&quot;, &quot;Menlo&quot;, &quot;Consolas&quot;, &quot;DejaVu Sans Mono&quot;, &quot;Liberation Mono&quot;, &quot;Roboto Mono&quot;, &quot;Noto Sans Mono&quot;, monospace; font-size: 16.0px;" text-anchor="middle" dominant-baseline="central">zGfK</text></g><g data-channel="cell" data-cell-index="18" data-cell-row="4" data-cell-col="2"><rect x="153.0" y="196.0" width="48.0" height="20.0" fill="#3d776d"/><text x="177.0" y="206.0" fill="#ffffff" style="font-family: &quot;JetBrains Mono&quot;, &quot;Menlo&quot;, &quot;Consolas&quot;, &quot;DejaVu Sans Mono&quot;, &quot;Liberation Mono&quot;, &quot;Roboto Mono&quot;, &quot;Noto Sans Mono&quot;, monospace; font-size: 16.0px;" text-anchor="middle" dominant-baseline="central">bXc9</text></g><g data-channel="cell" data-cell-index="19" data-cell-row="4" data-cell-col="3" data-cell-blank="true"><rect x="213.0" y="196.0" width="48.0" height="20.0" rx="10.0" ry="10.0" fill="none" stroke="#000000" stroke-width="1"/></g><g data-channel="cell" data-cell-index="20" data-cell-row="5" data-cell-col="0" data-cell-quartile="4"><rect x="33.0" y="236.0" width="48.0" height="20.0" fill="#2d66a7"/><text x="57.0" y="246.0" fill="#ffffff" style="font-family: &quot;JetBrains Mono&quot;, &quot;Menlo&quot;, &quot;Consolas&quot;, &quot;DejaVu Sans Mono&quot;, &quot;Liberation Mono&quot;, &quot;Roboto Mono&quot;, &quot;Noto Sans Mono&quot;, monospace; font-size: 16.0px;" text-anchor="middle" dominant-baseline="central">p2Yt</text><polygon points="33.0,256.0 33.0,246.0 43.0,256.0" fill="#ffffff"/></g><g data-channel="cell" data-cell-index="21" data-cell-row="5" data-cell-col="1"><rect x="93.0" y="236.0" width="48.0" height="20.0" fill="#79f236"/><text x="117.0" y="246.0" fill="#000000" style="font-family: &quot;JetBrains Mono&quot;, &quot;Menlo&quot;, &quot;Consolas&quot;, &quot;DejaVu Sans Mono&quot;, &quot;Liberation Mono&quot;, &quot;Roboto Mono&quot;, &quot;Noto Sans Mono&quot;, monospace; font-size: 16.0px;" text-anchor="middle" dominant-baseline="central">NvJ5</text></g><g data-channel="cell" data-cell-index="22" data-cell-row="5" data-cell-col="2"><rect x="153.0" y="236.0" width="48.0" height="20.0" fill="#174b87"/><text x="177.0" y="246.0" fill="#ffffff" style="font-family: &quot;JetBrains Mono&quot;, &quot;Menlo&quot;, &quot;Consolas&quot;, &quot;DejaVu Sans Mono&quot;, &quot;Liberation Mono&quot;, &quot;Roboto Mono&quot;, &quot;Noto Sans Mono&quot;, monospace; font-size: 16.0px;" text-anchor="middle" dominant-baseline="central">h0sX</text></g><g data-channel="cell" data-cell-index="23" data-cell-row="5" data-cell-col="3" data-cell-blank="true"><rect x="213.0" y="236.0" width="48.0" height="20.0" rx="10.0" ry="10.0" fill="none" stroke="#000000" stroke-width="1"/></g></g></g><g data-channel="color-bar"><g data-color-bar-rank="0" data-color-bar-band="W"><rect x="1" y="1" width="20.0" height="98.411883121147" fill="#ffffff"/><text x="11.0" y="95.891883121147" fill="#000000" style="font-family: &quot;JetBrains Mono&quot;, &quot;Menlo&quot;, &quot;Consolas&quot;, &quot;DejaVu Sans Mono&quot;, &quot;Liberation Mono&quot;, &quot;Roboto Mono&quot;, &quot;Noto Sans Mono&quot;, monospace; font-size: 16.0px;" text-anchor="middle" data-color-bar-letter="true">w</text></g><g data-color-bar-rank="1" data-color-bar-band="B"><rect x="1" y="99.411883121147" width="20.0" height="73.48350947293177" fill="#2f3fbf"/><text x="11.0" y="169.37539259407876" fill="#ffffff" style="font-family: &quot;JetBrains Mono&quot;, &quot;Menlo&quot;, &quot;Consolas&quot;, &quot;DejaVu Sans Mono&quot;, &quot;Liberation Mono&quot;, &quot;Roboto Mono&quot;, &quot;Noto Sans Mono&quot;, monospace; font-size: 16.0px;" text-anchor="middle" data-color-bar-letter="true">b</text></g><g data-color-bar-rank="2" data-color-bar-band="K"><rect x="1" y="172.89539259407877" width="20.0" height="57.224354870140104" fill="#000000"/><text x="11.0" y="226.59974746421886" fill="#ffffff" style="font-family: &quot;JetBrains Mono&quot;, &quot;Menlo&quot;, &quot;Consolas&quot;, &quot;DejaVu Sans Mono&quot;, &quot;Liberation Mono&quot;, &quot;Roboto Mono&quot;, &quot;Noto Sans Mono&quot;, monospace; font-size: 16.0px;" text-anchor="middle" data-color-bar-letter="true">k</text></g><g data-color-bar-rank="3" data-color-bar-band="G"><rect x="1" y="230.11974746421888" width="20.0" height="40.880252535781125" fill="#e7be00"/><text x="11.0" y="267.48" fill="#000000" style="font-family: &quot;JetBrains Mono&quot;, &quot;Menlo&quot;, &quot;Consolas&quot;, &quot;DejaVu Sans Mono&quot;, &quot;Liberation Mono&quot;, &quot;Roboto Mono&quot;, &quot;Noto Sans Mono&quot;, monospace; font-size: 16.0px;" text-anchor="middle" data-color-bar-letter="true">g</text></g></g><g data-channel="label-top"><text x="27.0" y="16.0" fill="#666666" style="font-family: &quot;JetBrains Mono&quot;, &quot;Menlo&quot;, &quot;Consolas&quot;, &quot;DejaVu Sans Mono&quot;, &quot;Liberation Mono&quot;, &quot;Roboto Mono&quot;, &quot;Noto Sans Mono&quot;, monospace; font-size: 12.0px;" dominant-baseline="central"><tspan fill="#a00000" font-weight="bold">fingerprint of </tspan>b64(119):</text></g><line x1="0" y1="0.5" x2="273.0" y2="0.5" stroke="#808080" stroke-width="1" shape-rendering="crispEdges"/><line x1="272.5" y1="0" x2="272.5" y2="272.0" stroke="#808080" stroke-width="1" shape-rendering="crispEdges"/><line x1="0" y1="271.5" x2="273.0" y2="271.5" stroke="#808080" stroke-width="1" shape-rendering="crispEdges"/><line x1="0.5" y1="0" x2="0.5" y2="272.0" stroke="#808080" stroke-width="1" shape-rendering="crispEdges"/><line x1="21.5" y1="0" x2="21.5" y2="272.0" stroke="#808080" stroke-width="1" shape-rendering="crispEdges"/></svg>