<svg width="273" height="272" viewBox="0 0 273 272" xmlns="http://www.w3.org/2000/svg" data-entviz-version="v10" data-entviz-lib="0.10.0" data-input-bytes="119" data-cols="4" data-rows="6" data-truncated="true"><defs><clipPath id="grid-clip-807e856a24dc33e6-4x6"><rect x="27" y="26" width="240" height="240"/></clipPath></defs><rect x="0" y="0" width="273" height="272" fill="#ffffff"/><g data-channel="grid"><rect x="27" y="26" width="240" height="240" fill="#ff3f2f"/><g><rect x="27" y="26" width="6" height="10" fill="#e7be00"/><rect x="39" y="26" width="6" height="10" fill="#e7be00"/><rect x="69" y="26" width="6" height="10" fill="#e7be00"/><rect x="81" y="26" width="6" height="10" fill="#e7be00"/><rect x="81" y="36" width="6" height="10" fill="#e7be00"/><rect x="81" y="46" width="6" height="10" fill="#e7be00"/><rect x="81" y="56" width="6" height="10" fill="#e7be00"/><rect x="75" y="56" width="6" height="10" fill="#e7be00"/><rect x="69" y="56" width="6" height="10" fill="#e7be00"/><rect x="27" y="36" width="6" height="10" fill="#e7be00"/><rect x="99" y="26" width="6" height="10" fill="#000000"/><rect x="105" y="26" width="6" height="10" fill="#000000"/><rect x="111" y="26" width="6" height="10" fill="#000000"/><rect x="123" y="26" width="6" height="10" fill="#000000"/><rect x="129" y="26" width="6" height="10" fill="#000000"/><rect x="141" y="36" width="6" height="10" fill="#000000"/><rect x="135" y="56" width="6" height="10" fill="#000000"/><rect x="111" y="56" width="6" height="10" fill="#000000"/><rect x="99" y="56" width="6" height="10" fill="#000000"/><rect x="87" y="56" width="6" height="10" fill="#000000"/><rect x="87" y="46" width="6" height="10" fill="#000000"/><rect x="153" y="26" width="6" height="10" fill="#000000"/><rect x="159" y="26" width="6" height="10" fill="#000000"/><rect x="177" y="26" width="6" height="10" fill="#000000"/><rect x="201" y="26" width="6" height="10" fill="#000000"/><rect x="201" y="36" width="6" height="10" fill="#000000"/><rect x="195" y="56" width="6" height="10" fill="#000000"/><rect x="189" y="56" width="6" height="10" fill="#000000"/><rect x="183" y="56" width="6" height="10" fill="#000000"/><rect x="177" y="56" width="6" height="10" fill="#000000"/><rect x="171" y="56" width="6" height="10" fill="#000000"/><rect x="153" y="56" width="6" height="10" fill="#000000"/><rect x="147" y="56" width="6" height="10" fill="#000000"/><rect x="213" y="26" width="6" height="10" fill="#2f3fbf"/><rect x="231" y="26" width="6" height="10" fill="#2f3fbf"/><rect x="261" y="56" width="6" height="10" fill="#2f3fbf"/><rect x="237" y="56" width="6" height="10" fill="#2f3fbf"/><rect x="225" y="56" width="6" height="10" fill="#2f3fbf"/><rect x="219" y="56" width="6" height="10" fill="#2f3fbf"/><rect x="213" y="56" width="6" height="10" fill="#2f3fbf"/><rect x="27" y="66" width="6" height="10" fill="#2f3fbf"/><rect x="51" y="66" width="6" height="10" fill="#2f3fbf"/><rect x="75" y="96" width="6" height="10" fill="#2f3fbf"/><rect x="63" y="96" width="6" height="10" fill="#2f3fbf"/><rect x="45" y="96" width="6" height="10" fill="#2f3fbf"/><rect x="39" y="96" width="6" height="10" fill="#2f3fbf"/><rect x="33" y="96" width="6" height="10" fill="#2f3fbf"/><rect x="27" y="96" width="6" height="10" fill="#2f3fbf"/><rect x="93" y="66" width="6" height="10" fill="#000000"/><rect x="99" y="66" width="6" height="10" fill="#000000"/><rect x="105" y="66" width="6" height="10" fill="#000000"/><rect x="117" y="66" width="6" height="10" fill="#000000"/><rect x="123" y="66" width="6" height="10" fill="#000000"/><rect x="135" y="66" width="6" height="10" fill="#000000"/><rect x="141" y="66" width="6" height="10" fill="#000000"/><rect x="141" y="76" width="6" height="10" fill="#000000"/><rect x="141" y="86" width="6" height="10" fill="#000000"/><rect x="135" y="96" width="6" height="10" fill="#000000"/><rect x="129" y="96" width="6" height="10" fill="#000000"/><rect x="123" y="96" width="6" height="10" fill="#000000"/><rect x="105" y="96" width="6" height="10" fill="#000000"/><rect x="99" y="96" width="6" height="10" fill="#000000"/><rect x="93" y="96" width="6" height="10" fill="#000000"/><rect x="87" y="86" width="6" height="10" fill="#000000"/><rect x="207" y="66" width="6" height="10" fill="#000000"/><rect x="213" y="66" width="6" height="10" fill="#000000"/><rect x="225" y="66" width="6" height="10" fill="#000000"/><rect x="231" y="66" width="6" height="10" fill="#000000"/><rect x="249" y="66" width="6" height="10" fill="#000000"/><rect x="249" y="96" width="6" height="10" fill="#000000"/><rect x="243" y="96" width="6" height="10" fill="#000000"/><rect x="231" y="96" width="6" height="10" fill="#000000"/><rect x="213" y="96" width="6" height="10" fill="#000000"/><rect x="207" y="96" width="6" height="10" fill="#000000"/><rect x="207" y="76" width="6" height="10" fill="#000000"/><rect x="33" y="106" width="6" height="10" fill="#000000"/><rect x="45" y="106" width="6" height="10" fill="#000000"/><rect x="57" y="106" width="6" height="10" fill="#000000"/><rect x="69" y="106" width="6" height="10" fill="#000000"/><rect x="81" y="106" width="6" height="10" fill="#000000"/><rect x="81" y="116" width="6" height="10" fill="#000000"/><rect x="69" y="136" width="6" height="10" fill="#000000"/><rect x="63" y="136" width="6" height="10" fill="#000000"/><rect x="57" y="136" width="6" height="10" fill="#000000"/><rect x="39" y="136" width="6" height="10" fill="#000000"/><rect x="27" y="136" width="6" height="10" fill="#000000"/><rect x="87" y="106" width="6" height="10" fill="#e7be00"/><rect x="99" y="106" width="6" height="10" fill="#e7be00"/><rect x="111" y="106" width="6" height="10" fill="#e7be00"/><rect x="117" y="106" width="6" height="10" fill="#e7be00"/><rect x="123" y="106" width="6" height="10" fill="#e7be00"/><rect x="129" y="106" width="6" height="10" fill="#e7be00"/><rect x="141" y="126" width="6" height="10" fill="#e7be00"/><rect x="141" y="136" width="6" height="10" fill="#e7be00"/><rect x="135" y="136" width="6" height="10" fill="#e7be00"/><rect x="129" y="136" width="6" height="10" fill="#e7be00"/><rect x="123" y="136" width="6" height="10" fill="#e7be00"/><rect x="117" y="136" width="6" height="10" fill="#e7be00"/><rect x="105" y="136" width="6" height="10" fill="#e7be00"/><rect x="99" y="136" width="6" height="10" fill="#e7be00"/><rect x="93" y="136" width="6" height="10" fill="#e7be00"/><rect x="87" y="116" width="6" height="10" fill="#e7be00"/><rect x="147" y="106" width="6" height="10" fill="#e7be00"/><rect x="153" y="106" width="6" height="10" fill="#e7be00"/><rect x="183" y="106" width="6" height="10" fill="#e7be00"/><rect x="189" y="106" width="6" height="10" fill="#e7be00"/><rect x="195" y="106" width="6" height="10" fill="#e7be00"/><rect x="195" y="136" width="6" height="10" fill="#e7be00"/><rect x="183" y="136" width="6" height="10" fill="#e7be00"/><rect x="177" y="136" width="6" height="10" fill="#e7be00"/><rect x="171" y="136" width="6" height="10" fill="#e7be00"/><rect x="165" y="136" width="6" height="10" fill="#e7be00"/><rect x="147" y="136" width="6" height="10" fill="#e7be00"/><rect x="147" y="116" width="6" height="10" fill="#e7be00"/><rect x="219" y="106" width="6" height="10" fill="#e7be00"/><rect x="231" y="106" width="6" height="10" fill="#e7be00"/><rect x="249" y="106" width="6" height="10" fill="#e7be00"/><rect x="261" y="106" width="6" height="10" fill="#e7be00"/><rect x="261" y="116" width="6" height="10" fill="#e7be00"/><rect x="261" y="136" width="6" height="10" fill="#e7be00"/><rect x="255" y="136" width="6" height="10" fill="#e7be00"/><rect x="237" y="136" width="6" height="10" fill="#e7be00"/><rect x="207" y="126" width="6" height="10" fill="#e7be00"/><rect x="33" y="146" width="6" height="10" fill="#e7be00"/><rect x="39" y="146" width="6" height="10" fill="#e7be00"/><rect x="45" y="146" width="6" height="10" fill="#e7be00"/><rect x="51" y="146" width="6" height="10" fill="#e7be00"/><rect x="75" y="146" width="6" height="10" fill="#e7be00"/><rect x="81" y="156" width="6" height="10" fill="#e7be00"/><rect x="75" y="176" width="6" height="10" fill="#e7be00"/><rect x="51" y="176" width="6" height="10" fill="#e7be00"/><rect x="45" y="176" width="6" height="10" fill="#e7be00"/><rect x="33" y="176" width="6" height="10" fill="#e7be00"/><rect x="27" y="176" width="6" height="10" fill="#e7be00"/><rect x="27" y="166" width="6" height="10" fill="#e7be00"/><rect x="153" y="146" width="6" height="10" fill="#000000"/><rect x="189" y="146" width="6" height="10" fill="#000000"/><rect x="201" y="146" width="6" height="10" fill="#000000"/><rect x="201" y="156" width="6" height="10" fill="#000000"/><rect x="201" y="166" width="6" height="10" fill="#000000"/><rect x="189" y="176" width="6" height="10" fill="#000000"/><rect x="177" y="176" width="6" height="10" fill="#000000"/><rect x="171" y="176" width="6" height="10" fill="#000000"/><rect x="147" y="176" width="6" height="10" fill="#000000"/><rect x="147" y="166" width="6" height="10" fill="#000000"/><rect x="213" y="146" width="6" height="10" fill="#e7be00"/><rect x="231" y="146" width="6" height="10" fill="#e7be00"/><rect x="261" y="156" width="6" height="10" fill="#e7be00"/><rect x="243" y="176" width="6" height="10" fill="#e7be00"/><rect x="237" y="176" width="6" height="10" fill="#e7be00"/><rect x="231" y="176" width="6" height="10" fill="#e7be00"/><rect x="225" y="176" width="6" height="10" fill="#e7be00"/><rect x="219" y="176" width="6" height="10" fill="#e7be00"/><rect x="213" y="176" width="6" height="10" fill="#e7be00"/><rect x="207" y="156" width="6" height="10" fill="#e7be00"/><rect x="27" y="186" width="6" height="10" fill="#e7be00"/><rect x="33" y="186" width="6" height="10" fill="#e7be00"/><rect x="69" y="186" width="6" height="10" fill="#e7be00"/><rect x="81" y="186" width="6" height="10" fill="#e7be00"/><rect x="81" y="196" width="6" height="10" fill="#e7be00"/><rect x="81" y="206" width="6" height="10" fill="#e7be00"/><rect x="81" y="216" width="6" height="10" fill="#e7be00"/><rect x="69" y="216" width="6" height="10" fill="#e7be00"/><rect x="63" y="216" width="6" height="10" fill="#e7be00"/><rect x="57" y="216" width="6" height="10" fill="#e7be00"/><rect x="51" y="216" width="6" height="10" fill="#e7be00"/><rect x="45" y="216" width="6" height="10" fill="#e7be00"/><rect x="33" y="216" width="6" height="10" fill="#e7be00"/><rect x="27" y="206" width="6" height="10" fill="#e7be00"/><rect x="87" y="186" width="6" height="10" fill="#2f3fbf"/><rect x="105" y="186" width="6" height="10" fill="#2f3fbf"/><rect x="123" y="186" width="6" height="10" fill="#2f3fbf"/><rect x="135" y="186" width="6" height="10" fill="#2f3fbf"/><rect x="141" y="186" width="6" height="10" fill="#2f3fbf"/><rect x="141" y="196" width="6" height="10" fill="#2f3fbf"/><rect x="123" y="216" width="6" height="10" fill="#2f3fbf"/><rect x="117" y="216" width="6" height="10" fill="#2f3fbf"/><rect x="105" y="216" width="6" height="10" fill="#2f3fbf"/><rect x="99" y="216" width="6" height="10" fill="#2f3fbf"/><rect x="93" y="216" width="6" height="10" fill="#2f3fbf"/><rect x="87" y="216" width="6" height="10" fill="#2f3fbf"/><rect x="87" y="206" width="6" height="10" fill="#2f3fbf"/><rect x="87" y="196" width="6" height="10" fill="#2f3fbf"/><rect x="159" y="186" width="6" height="10" fill="#2f3fbf"/><rect x="165" y="186" width="6" height="10" fill="#2f3fbf"/><rect x="177" y="186" width="6" height="10" fill="#2f3fbf"/><rect x="189" y="186" width="6" height="10" fill="#2f3fbf"/><rect x="195" y="186" width="6" height="10" fill="#2f3fbf"/><rect x="201" y="186" width="6" height="10" fill="#2f3fbf"/><rect x="201" y="196" width="6" height="10" fill="#2f3fbf"/><rect x="201" y="206" width="6" height="10" fill="#2f3fbf"/><rect x="201" y="216" width="6" height="10" fill="#2f3fbf"/><rect x="195" y="216" width="6" height="10" fill="#2f3fbf"/><rect x="189" y="216" width="6" height="10" fill="#2f3fbf"/><rect x="147" y="206" width="6" height="10" fill="#2f3fbf"/><rect x="33" y="226" width="6" height="10" fill="#2f3fbf"/><rect x="39" y="226" width="6" height="10" fill="#2f3fbf"/><rect x="57" y="226" width="6" height="10" fill="#2f3fbf"/><rect x="63" y="226" width="6" height="10" fill="#2f3fbf"/><rect x="69" y="226" width="6" height="10" fill="#2f3fbf"/><rect x="75" y="226" width="6" height="10" fill="#2f3fbf"/><rect x="81" y="226" width="6" height="10" fill="#2f3fbf"/><rect x="57" y="256" width="6" height="10" fill="#2f3fbf"/><rect x="51" y="256" width="6" height="10" fill="#2f3fbf"/><rect x="39" y="256" width="6" height="10" fill="#2f3fbf"/><rect x="123" y="226" width="6" height="10" fill="#e7be00"/><rect x="129" y="226" width="6" height="10" fill="#e7be00"/><rect x="135" y="226" width="6" height="10" fill="#e7be00"/><rect x="141" y="226" width="6" height="10" fill="#e7be00"/><rect x="141" y="246" width="6" height="10" fill="#e7be00"/><rect x="105" y="256" width="6" height="10" fill="#e7be00"/><rect x="99" y="256" width="6" height="10" fill="#e7be00"/><rect x="93" y="256" width="6" height="10" fill="#e7be00"/><rect x="87" y="236" width="6" height="10" fill="#e7be00"/><rect x="153" y="226" width="6" height="10" fill="#2f3fbf"/><rect x="159" y="226" width="6" height="10" fill="#2f3fbf"/><rect x="165" y="226" width="6" height="10" fill="#2f3fbf"/><rect x="171" y="226" width="6" height="10" fill="#2f3fbf"/><rect x="189" y="226" width="6" height="10" fill="#2f3fbf"/><rect x="201" y="226" width="6" height="10" fill="#2f3fbf"/><rect x="201" y="236" width="6" height="10" fill="#2f3fbf"/><rect x="189" y="256" width="6" height="10" fill="#2f3fbf"/><rect x="183" y="256" width="6" height="10" fill="#2f3fbf"/><rect x="171" y="256" width="6" height="10" fill="#2f3fbf"/><rect x="165" y="256" width="6" height="10" fill="#2f3fbf"/><rect x="147" y="256" width="6" height="10" fill="#2f3fbf"/><rect x="147" y="246" width="6" height="10" fill="#2f3fbf"/></g><g clip-path="url(#grid-clip-807e856a24dc33e6-4x6)" data-channel="ellipse" data-ellipse-anchor-x="207" data-ellipse-anchor-y="106" data-ellipse-rx="139.682" data-ellipse-ry="122.343" data-ellipse-rotation-deg="168"><ellipse cx="207" cy="106" rx="139.682" ry="122.343" transform="rotate(168 207 106)" fill="#000000" stroke="#000000" fill-opacity="0.25" stroke-opacity="0.35" stroke-width="2"/></g><g><g data-channel="cell" data-cell-index="0" data-cell-row="0" data-cell-col="0" data-cell-quartile="2"><rect x="33" y="36" width="48" height="20" fill="#018230"/><text x="57" y="46" fill="#ffffff" style="font-family: &quot;JetBrains Mono&quot;, &quot;Menlo&quot;, &quot;Consolas&quot;, &quot;DejaVu Sans Mono&quot;, &quot;Liberation Mono&quot;, &quot;Roboto Mono&quot;, &quot;Noto Sans Mono&quot;, monospace; font-size: 16px;" text-anchor="middle" dominant-baseline="central">MIIB</text><polygon points="81,36 71,36 81,46" fill="#ffffff"/></g><g data-channel="cell" data-cell-index="1" data-cell-row="0" data-cell-col="1"><rect x="93" y="36" width="48" height="20" fill="#0d3022"/><text x="117" y="46" fill="#ffffff" style="font-family: &quot;JetBrains Mono&quot;, &quot;Menlo&quot;, &quot;Consolas&quot;, &quot;DejaVu Sans Mono&quot;, &quot;Liberation Mono&quot;, &quot;Roboto Mono&quot;, &quot;Noto Sans Mono&quot;, monospace; font-size: 16px;" text-anchor="middle" dominant-baseline="central">IjAN</text></g><g data-channel="cell" data-cell-index="2" data-cell-row="0" data-cell-col="2"><rect x="153" y="36" width="48" height="20" fill="#2a0906"/><text x="177" y="46" fill="#ffffff" style="font-family: &quot;JetBrains Mono&quot;, &quot;Menlo&quot;, &quot;Consolas&quot;, &quot;DejaVu Sans Mono&quot;, &quot;Liberation Mono&quot;, &quot;Roboto Mono&quot;, &quot;Noto Sans Mono&quot;, monospace; font-size: 16px;" text-anchor="middle" dominant-baseline="central">Bgkq</text></g><g data-channel="cell" data-cell-index="3" data-cell-row="0" data-cell-col="3"><rect x="213" y="36" width="48" height="20" fill="#864886"/><text x="237" y="46" fill="#ffffff" style="font-family: &quot;JetBrains Mono&quot;, &quot;Menlo&quot;, &quot;Consolas&quot;, &quot;DejaVu Sans Mono&quot;, &quot;Liberation Mono&quot;, &quot;Roboto Mono&quot;, &quot;Noto Sans Mono&quot;, monospace; font-size: 16px;" text-anchor="middle" dominant-baseline="central">hkiG</text></g><g data-channel="cell" data-cell-index="4" data-cell-row="1" data-cell-col="0"><rect x="33" y="76" width="48" height="20" fill="#010df7"/><text x="57" y="86" fill="#ffffff" style="font-family: &quot;JetBrains Mono&quot;, &quot;Menlo&quot;, &quot;Consolas&quot;, &quot;DejaVu Sans Mono&quot;, &quot;Liberation Mono&quot;, &quot;Roboto Mono&quot;, &quot;Noto Sans Mono&quot;, monospace; font-size: 16px;" text-anchor="middle" dominant-baseline="central">9w0B</text></g><g data-channel="cell" data-cell-index="5" data-cell-row="1" data-cell-col="1"><rect x="93" y="76" width="48" height="20" fill="#050101"/><text x="117" y="86" fill="#ffffff" style="font-family: &quot;JetBrains Mono&quot;, &quot;Menlo&quot;, &quot;Consolas&quot;, &quot;DejaVu Sans Mono&quot;, &quot;Liberation Mono&quot;, &quot;Roboto Mono&quot;, &quot;Noto Sans Mono&quot;, monospace; font-size: 16px;" text-anchor="middle" dominant-baseline="central">AQEF</text></g><g data-channel="cell" data-cell-index="6" data-cell-row="1" data-cell-col="2" data-cell-blank="true" data-cell-blank-map="true"><rect x="153" y="76" width="48" height="20" rx="10" ry="10" fill="#ffffff" stroke="#000000" stroke-width="1"/><circle cx="159" cy="94.333" r="3.5" fill="#1d4ed8" data-blank-map-min="5,0"/><path d="M 166.8,91 H 175.2 M 171,86.8 V 95.2" fill="none" stroke="#d62828" stroke-width="1.925" stroke-linecap="butt" data-blank-map-max="4,1"/></g><g data-channel="cell" data-cell-index="7" data-cell-row="1" data-cell-col="3"><rect x="213" y="76" width="48" height="20" fill="#820300"/><text x="237" y="86" fill="#ffffff" style="font-family: &quot;JetBrains Mono&quot;, &quot;Menlo&quot;, &quot;Consolas&quot;, &quot;DejaVu Sans Mono&quot;, &quot;Liberation Mono&quot;, &quot;Roboto Mono&quot;, &quot;Noto Sans Mono&quot;, monospace; font-size: 16px;" text-anchor="middle" dominant-baseline="central">AAOC</text></g><g data-channel="cell" data-cell-index="8" data-cell-row="2" data-cell-col="0"><rect x="33" y="116" width="48" height="20" fill="#000f01"/><text x="57" y="126" fill="#ffffff" style="font-family: &quot;JetBrains Mono&quot;, &quot;Menlo&quot;, &quot;Consolas&quot;, &quot;DejaVu Sans Mono&quot;, &quot;Liberation Mono&quot;, &quot;Roboto Mono&quot;, &quot;Noto Sans Mono&quot;, monospace; font-size: 16px;" text-anchor="middle" dominant-baseline="central">AQ8A</text></g><g data-channel="cell" data-cell-index="9" data-cell-row="2" data-cell-col="1" data-cell-fingerprint="true" data-cell-quartile="1"><rect x="93" y="116" width="48" height="20" fill="#ff3f2f"/><rect x="93.5" y="116.5" width="47" height="19" fill="none" stroke="#ffffff" stroke-width="1"/><text x="117" y="126" fill="#000000" style="font-family: &quot;JetBrains Mono&quot;, &quot;Menlo&quot;, &quot;Consolas&quot;, &quot;DejaVu Sans Mono&quot;, &quot;Liberation Mono&quot;, &quot;Roboto Mono&quot;, &quot;Noto Sans Mono&quot;, monospace; font-size: 13.333px;" text-anchor="middle" dominant-baseline="central">55yrq</text><polygon points="93,116 103,116 93,126" fill="#000000"/></g><g data-channel="cell" data-cell-index="10" data-cell-row="2" data-cell-col="2" data-cell-fingerprint="true"><rect x="153" y="116" width="48" height="20" fill="#ff3f2f"/><rect x="153.5" y="116.5" width="47" height="19" fill="none" stroke="#ffffff" stroke-width="1"/><text x="177" y="126" fill="#000000" style="font-family: &quot;JetBrains Mono&quot;, &quot;Menlo&quot;, &quot;Consolas&quot;, &quot;DejaVu Sans Mono&quot;, &quot;Liberation Mono&quot;, &quot;Roboto Mono&quot;, &quot;Noto Sans Mono&quot;, monospace; font-size: 13.333px;" text-anchor="middle" dominant-baseline="central">3h5y7</text></g><g data-channel="cell" data-cell-index="11" data-cell-row="2" data-cell-col="3" data-cell-fingerprint="true" data-cell-quartile="3"><rect x="213" y="116" width="48" height="20" fill="#ff3f2f"/><rect x="213.5" y="116.5" width="47" height="19" fill="none" stroke="#ffffff" stroke-width="1"/><text x="237" y="126" fill="#000000" style="font-family: &quot;JetBrains Mono&quot;, &quot;Menlo&quot;, &quot;Consolas&quot;, &quot;DejaVu Sans Mono&quot;, &quot;Liberation Mono&quot;, &quot;Roboto Mono&quot;, &quot;Noto Sans Mono&quot;, monospace; font-size: 13.333px;" text-anchor="middle" dominant-baseline="central">bfvdv</text><polygon points="261,136 261,126 251,136" fill="#000000"/></g><g data-channel="cell" data-cell-index="12" data-cell-row="3" data-cell-col="0" data-cell-fingerprint="true"><rect x="33" y="156" width="48" height="20" fill="#ff3f2f"/><rect x="33.5" y="156.5" width="47" height="19" fill="none" stroke="#ffffff" stroke-width="1"/><text x="57" y="166" fill="#000000" style="font-family: &quot;JetBrains Mono&quot;, &quot;Menlo&quot;, &quot;Consolas&quot;, &quot;DejaVu Sans Mono&quot;, &quot;Liberation Mono&quot;, &quot;Roboto Mono&quot;, &quot;Noto Sans Mono&quot;, monospace; font-size: 13.333px;" text-anchor="middle" dominant-baseline="central">e1me6</text></g><g data-channel="cell" data-cell-index="13" data-cell-row="3" data-cell-col="1" data-cell-blank="true"><rect x="93" y="156" width="48" height="20" rx="10" ry="10" fill="#ffffff" stroke="#000000" stroke-width="1"/></g><g data-channel="cell" data-cell-index="14" data-cell-row="3" data-cell-col="2"><rect x="153" y="156" width="48" height="20" fill="#da0d2e"/><text x="177" y="166" fill="#ffffff" style="font-family: &quot;JetBrains Mono&quot;, &quot;Menlo&quot;, &quot;Consolas&quot;, &quot;DejaVu Sans Mono&quot;, &quot;Liberation Mono&quot;, &quot;Roboto Mono&quot;, &quot;Noto Sans Mono&quot;, monospace; font-size: 16px;" text-anchor="middle" dominant-baseline="central">Lg3a</text></g><g data-channel="cell" data-cell-index="15" data-cell-row="3" data-cell-col="3"><rect x="213" y="156" width="48" height="20" fill="#2ac837"/><text x="237" y="166" fill="#000000" style="font-family: &quot;JetBrains Mono&quot;, &quot;Menlo&quot;, &quot;Consolas&quot;, &quot;DejaVu Sans Mono&quot;, &quot;Liberation Mono&quot;, &quot;Roboto Mono&quot;, &quot;Noto Sans Mono&quot;, monospace; font-size: 16px;" text-anchor="middle" dominant-baseline="central">N8gq</text></g><g data-channel="cell" data-cell-index="16" data-cell-row="4" data-cell-col="0"><rect x="33" y="196" width="48" height="20" fill="#b56c2b"/><text x="57" y="206" fill="#000000" style="font-family: &quot;JetBrains Mono&quot;, &quot;Menlo&quot;, &quot;Consolas&quot;, &quot;DejaVu Sans Mono&quot;, &quot;Liberation Mono&quot;, &quot;Roboto Mono&quot;, &quot;Noto Sans Mono&quot;, monospace; font-size: 16px;" text-anchor="middle" dominant-baseline="central">K2y1</text></g><g data-channel="cell" data-cell-index="17" data-cell-row="4" data-cell-col="1"><rect x="93" y="196" width="48" height="20" fill="#ca67cc"/><text x="117" y="206" fill="#000000" style="font-family: &quot;JetBrains Mono&quot;, &quot;Menlo&quot;, &quot;Consolas&quot;, &quot;DejaVu Sans Mono&quot;, &quot;Liberation Mono&quot;, &quot;Roboto Mono&quot;, &quot;Noto Sans Mono&quot;, monospace; font-size: 16px;" text-anchor="middle" dominant-baseline="central">zGfK</text></g><g data-channel="cell" data-cell-index="18" data-cell-row="4" data-cell-col="2"><rect x="153" y="196" width="48" height="20" fill="#3d776d"/><text x="177" y="206" fill="#ffffff" style="font-family: &quot;JetBrains Mono&quot;, &quot;Menlo&quot;, &quot;Consolas&quot;, &quot;DejaVu Sans Mono&quot;, &quot;Liberation Mono&quot;, &quot;Roboto Mono&quot;, &quot;Noto Sans Mono&quot;, monospace; font-size: 16px;" text-anchor="middle" dominant-baseline="central">bXc9</text></g><g data-channel="cell" data-cell-index="19" data-cell-row="4" data-cell-col="3" data-cell-blank="true"><rect x="213" y="196" width="48" height="20" rx="10" ry="10" fill="#2f3fbf" stroke="#000000" stroke-width="1"/></g><g data-channel="cell" data-cell-index="20" data-cell-row="5" data-cell-col="0" data-cell-quartile="4"><rect x="33" y="236" width="48" height="20" fill="#2d66a7"/><text x="57" y="246" fill="#ffffff" style="font-family: &quot;JetBrains Mono&quot;, &quot;Menlo&quot;, &quot;Consolas&quot;, &quot;DejaVu Sans Mono&quot;, &quot;Liberation Mono&quot;, &quot;Roboto Mono&quot;, &quot;Noto Sans Mono&quot;, monospace; font-size: 16px;" text-anchor="middle" dominant-baseline="central">p2Yt</text><polygon points="33,256 33,246 43,256" fill="#ffffff"/></g><g data-channel="cell" data-cell-index="21" data-cell-row="5" data-cell-col="1"><rect x="93" y="236" width="48" height="20" fill="#79f236"/><text x="117" y="246" fill="#000000" style="font-family: &quot;JetBrains Mono&quot;, &quot;Menlo&quot;, &quot;Consolas&quot;, &quot;DejaVu Sans Mono&quot;, &quot;Liberation Mono&quot;, &quot;Roboto Mono&quot;, &quot;Noto Sans Mono&quot;, monospace; font-size: 16px;" text-anchor="middle" dominant-baseline="central">NvJ5</text></g><g data-channel="cell" data-cell-index="22" data-cell-row="5" data-cell-col="2"><rect x="153" y="236" width="48" height="20" fill="#174b87"/><text x="177" y="246" fill="#ffffff" style="font-family: &quot;JetBrains Mono&quot;, &quot;Menlo&quot;, &quot;Consolas&quot;, &quot;DejaVu Sans Mono&quot;, &quot;Liberation Mono&quot;, &quot;Roboto Mono&quot;, &quot;Noto Sans Mono&quot;, monospace; font-size: 16px;" text-anchor="middle" dominant-baseline="central">h0sX</text></g><g data-channel="cell" data-cell-index="23" data-cell-row="5" data-cell-col="3" data-cell-blank="true"><rect x="213" y="236" width="48" height="20" rx="10" ry="10" fill="#e7be00" stroke="#000000" stroke-width="1"/></g></g></g><g data-channel="color-bar" data-bar-slots="16" data-bar-marker-left="3" data-bar-marker-right="4"><g data-color-bar-rank="0" data-color-bar-band="W"><rect x="1" y="1" width="20" height="98.412" fill="#ffffff"/><text x="11" y="95.892" fill="#000000" style="font-family: &quot;JetBrains Mono&quot;, &quot;Menlo&quot;, &quot;Consolas&quot;, &quot;DejaVu Sans Mono&quot;, &quot;Liberation Mono&quot;, &quot;Roboto Mono&quot;, &quot;Noto Sans Mono&quot;, monospace; font-size: 16px;" text-anchor="middle" data-color-bar-letter="true">w</text></g><g data-color-bar-rank="1" data-color-bar-band="B"><rect x="1" y="99.412" width="20" height="73.484" fill="#2f3fbf"/><text x="11" y="169.375" fill="#ffffff" style="font-family: &quot;JetBrains Mono&quot;, &quot;Menlo&quot;, &quot;Consolas&quot;, &quot;DejaVu Sans Mono&quot;, &quot;Liberation Mono&quot;, &quot;Roboto Mono&quot;, &quot;Noto Sans Mono&quot;, monospace; font-size: 16px;" text-anchor="middle" data-color-bar-letter="true">b</text></g><g data-color-bar-rank="2" data-color-bar-band="K"><rect x="1" y="172.895" width="20" height="57.224" fill="#000000"/><text x="11" y="226.6" fill="#ffffff" style="font-family: &quot;JetBrains Mono&quot;, &quot;Menlo&quot;, &quot;Consolas&quot;, &quot;DejaVu Sans Mono&quot;, &quot;Liberation Mono&quot;, &quot;Roboto Mono&quot;, &quot;Noto Sans Mono&quot;, monospace; font-size: 16px;" text-anchor="middle" data-color-bar-letter="true">k</text></g><g data-color-bar-rank="3" data-color-bar-band="G"><rect x="1" y="230.12" width="20" height="40.88" fill="#e7be00"/><text x="11" y="267.48" fill="#000000" style="font-family: &quot;JetBrains Mono&quot;, &quot;Menlo&quot;, &quot;Consolas&quot;, &quot;DejaVu Sans Mono&quot;, &quot;Liberation Mono&quot;, &quot;Roboto Mono&quot;, &quot;Noto Sans Mono&quot;, monospace; font-size: 16px;" text-anchor="middle" data-color-bar-letter="true">g</text></g><circle cx="5.6" cy="60.062" r="3.4" fill="#ffffff" stroke="#000000" stroke-width="0.75" data-bar-marker="left"/><circle cx="16.4" cy="76.938" r="3.4" fill="#ffffff" stroke="#000000" stroke-width="0.75" data-bar-marker="right"/></g><g data-channel="label-top"><text x="27" y="16" fill="#666666" style="font-family: &quot;JetBrains Mono&quot;, &quot;Menlo&quot;, &quot;Consolas&quot;, &quot;DejaVu Sans Mono&quot;, &quot;Liberation Mono&quot;, &quot;Roboto Mono&quot;, &quot;Noto Sans Mono&quot;, monospace; font-size: 12px;" dominant-baseline="central"><tspan fill="#a00000" font-weight="bold">fingerprint of </tspan>b64(119):</text></g><line x1="0" y1="0.5" x2="273" y2="0.5" stroke="#808080" stroke-width="1" shape-rendering="crispEdges"/><line x1="272.5" y1="0" x2="272.5" y2="272" stroke="#808080" stroke-width="1" shape-rendering="crispEdges"/><line x1="0" y1="271.5" x2="273" y2="271.5" stroke="#808080" stroke-width="1" shape-rendering="crispEdges"/><line x1="0.5" y1="0" x2="0.5" y2="272" stroke="#808080" stroke-width="1" shape-rendering="crispEdges"/><line x1="21.5" y1="0" x2="21.5" y2="272" stroke="#808080" stroke-width="1" shape-rendering="crispEdges"/></svg>