<svg width="273" height="272" viewBox="0 0 273 272" xmlns="http://www.w3.org/2000/svg" font-family="&quot;JetBrains Mono&quot;, &quot;Menlo&quot;, &quot;Consolas&quot;, &quot;DejaVu Sans Mono&quot;, &quot;Liberation Mono&quot;, &quot;Roboto Mono&quot;, &quot;Noto Sans Mono&quot;, monospace" data-entviz-version="v11" data-entviz-lib="0.11.0" data-input-bytes="119" data-cols="4" data-rows="6" data-truncated="true"><defs><clipPath id="grid-clip-807e856a24dc33e6-4x6"><rect x="27" y="26" width="240" height="240"/></clipPath></defs><rect x="0" y="0" width="273" height="272" fill="#ffffff"/><g data-channel="grid"><rect x="27" y="26" width="240" height="240" fill="#ff3f2f"/><g><path fill="#e7be00" d="M27 26h6v10h-6zM39 26h6v10h-6zM69 26h6v10h-6zM81 26h6v10h-6zM81 36h6v10h-6zM81 46h6v10h-6zM81 56h6v10h-6zM75 56h6v10h-6zM69 56h6v10h-6zM27 36h6v10h-6z"/><path fill="#000000" d="M99 26h6v10h-6zM105 26h6v10h-6zM111 26h6v10h-6zM123 26h6v10h-6zM129 26h6v10h-6zM141 36h6v10h-6zM135 56h6v10h-6zM111 56h6v10h-6zM99 56h6v10h-6zM87 56h6v10h-6zM87 46h6v10h-6z"/><path fill="#000000" d="M153 26h6v10h-6zM159 26h6v10h-6zM177 26h6v10h-6zM201 26h6v10h-6zM201 36h6v10h-6zM195 56h6v10h-6zM189 56h6v10h-6zM183 56h6v10h-6zM177 56h6v10h-6zM171 56h6v10h-6zM153 56h6v10h-6zM147 56h6v10h-6z"/><path fill="#2f3fbf" d="M213 26h6v10h-6zM231 26h6v10h-6zM261 56h6v10h-6zM237 56h6v10h-6zM225 56h6v10h-6zM219 56h6v10h-6zM213 56h6v10h-6z"/><path fill="#2f3fbf" d="M27 66h6v10h-6zM51 66h6v10h-6zM75 96h6v10h-6zM63 96h6v10h-6zM45 96h6v10h-6zM39 96h6v10h-6zM33 96h6v10h-6zM27 96h6v10h-6z"/><path fill="#000000" d="M93 66h6v10h-6zM99 66h6v10h-6zM105 66h6v10h-6zM117 66h6v10h-6zM123 66h6v10h-6zM135 66h6v10h-6zM141 66h6v10h-6zM141 76h6v10h-6zM141 86h6v10h-6zM135 96h6v10h-6zM129 96h6v10h-6zM123 96h6v10h-6zM105 96h6v10h-6zM99 96h6v10h-6zM93 96h6v10h-6zM87 86h6v10h-6z"/><path fill="#000000" d="M207 66h6v10h-6zM213 66h6v10h-6zM225 66h6v10h-6zM231 66h6v10h-6zM249 66h6v10h-6zM249 96h6v10h-6zM243 96h6v10h-6zM231 96h6v10h-6zM213 96h6v10h-6zM207 96h6v10h-6zM207 76h6v10h-6z"/><path fill="#000000" d="M33 106h6v10h-6zM45 106h6v10h-6zM57 106h6v10h-6zM69 106h6v10h-6zM81 106h6v10h-6zM81 116h6v10h-6zM69 136h6v10h-6zM63 136h6v10h-6zM57 136h6v10h-6zM39 136h6v10h-6zM27 136h6v10h-6z"/><path fill="#e7be00" d="M87 106h6v10h-6zM99 106h6v10h-6zM111 106h6v10h-6zM117 106h6v10h-6zM123 106h6v10h-6zM129 106h6v10h-6zM141 126h6v10h-6zM141 136h6v10h-6zM135 136h6v10h-6zM129 136h6v10h-6zM123 136h6v10h-6zM117 136h6v10h-6zM105 136h6v10h-6zM99 136h6v10h-6zM93 136h6v10h-6zM87 116h6v10h-6z"/><path fill="#e7be00" d="M147 106h6v10h-6zM153 106h6v10h-6zM183 106h6v10h-6zM189 106h6v10h-6zM195 106h6v10h-6zM195 136h6v10h-6zM183 136h6v10h-6zM177 136h6v10h-6zM171 136h6v10h-6zM165 136h6v10h-6zM147 136h6v10h-6zM147 116h6v10h-6z"/><path fill="#e7be00" d="M219 106h6v10h-6zM231 106h6v10h-6zM249 106h6v10h-6zM261 106h6v10h-6zM261 116h6v10h-6zM261 136h6v10h-6zM255 136h6v10h-6zM237 136h6v10h-6zM207 126h6v10h-6z"/><path fill="#e7be00" d="M33 146h6v10h-6zM39 146h6v10h-6zM45 146h6v10h-6zM51 146h6v10h-6zM75 146h6v10h-6zM81 156h6v10h-6zM75 176h6v10h-6zM51 176h6v10h-6zM45 176h6v10h-6zM33 176h6v10h-6zM27 176h6v10h-6zM27 166h6v10h-6z"/><path fill="#000000" d="M153 146h6v10h-6zM189 146h6v10h-6zM201 146h6v10h-6zM201 156h6v10h-6zM201 166h6v10h-6zM189 176h6v10h-6zM177 176h6v10h-6zM171 176h6v10h-6zM147 176h6v10h-6zM147 166h6v10h-6z"/><path fill="#e7be00" d="M213 146h6v10h-6zM231 146h6v10h-6zM261 156h6v10h-6zM243 176h6v10h-6zM237 176h6v10h-6zM231 176h6v10h-6zM225 176h6v10h-6zM219 176h6v10h-6zM213 176h6v10h-6zM207 156h6v10h-6z"/><path fill="#e7be00" d="M27 186h6v10h-6zM33 186h6v10h-6zM69 186h6v10h-6zM81 186h6v10h-6zM81 196h6v10h-6zM81 206h6v10h-6zM81 216h6v10h-6zM69 216h6v10h-6zM63 216h6v10h-6zM57 216h6v10h-6zM51 216h6v10h-6zM45 216h6v10h-6zM33 216h6v10h-6zM27 206h6v10h-6z"/><path fill="#2f3fbf" d="M87 186h6v10h-6zM105 186h6v10h-6zM123 186h6v10h-6zM135 186h6v10h-6zM141 186h6v10h-6zM141 196h6v10h-6zM123 216h6v10h-6zM117 216h6v10h-6zM105 216h6v10h-6zM99 216h6v10h-6zM93 216h6v10h-6zM87 216h6v10h-6zM87 206h6v10h-6zM87 196h6v10h-6z"/><path fill="#2f3fbf" d="M159 186h6v10h-6zM165 186h6v10h-6zM177 186h6v10h-6zM189 186h6v10h-6zM195 186h6v10h-6zM201 186h6v10h-6zM201 196h6v10h-6zM201 206h6v10h-6zM201 216h6v10h-6zM195 216h6v10h-6zM189 216h6v10h-6zM147 206h6v10h-6z"/><path fill="#2f3fbf" d="M33 226h6v10h-6zM39 226h6v10h-6zM57 226h6v10h-6zM63 226h6v10h-6zM69 226h6v10h-6zM75 226h6v10h-6zM81 226h6v10h-6zM57 256h6v10h-6zM51 256h6v10h-6zM39 256h6v10h-6z"/><path fill="#e7be00" d="M123 226h6v10h-6zM129 226h6v10h-6zM135 226h6v10h-6zM141 226h6v10h-6zM141 246h6v10h-6zM105 256h6v10h-6zM99 256h6v10h-6zM93 256h6v10h-6zM87 236h6v10h-6z"/><path fill="#2f3fbf" d="M153 226h6v10h-6zM159 226h6v10h-6zM165 226h6v10h-6zM171 226h6v10h-6zM189 226h6v10h-6zM201 226h6v10h-6zM201 236h6v10h-6zM189 256h6v10h-6zM183 256h6v10h-6zM171 256h6v10h-6zM165 256h6v10h-6zM147 256h6v10h-6zM147 246h6v10h-6z"/></g><g clip-path="url(#grid-clip-807e856a24dc33e6-4x6)" data-channel="ellipse" data-ellipse-anchor-x="207" data-ellipse-anchor-y="106" data-ellipse-rx="139.682" data-ellipse-ry="122.343" data-ellipse-rotation-deg="168"><ellipse cx="207" cy="106" rx="139.682" ry="122.343" transform="rotate(168 207 106)" fill="#000000" stroke="#000000" fill-opacity="0.25" stroke-opacity="0.35" stroke-width="2"/></g><g><g data-channel="cell" data-cell-index="0" data-cell-row="0" data-cell-col="0" data-surround-bits="0x807e85" data-edge-color="#e7be00" data-cell-quartile="2"><rect x="33" y="36" width="48" height="20" fill="#018230"/><text x="57" y="46" fill="#ffffff" font-size="16" text-anchor="middle" dominant-baseline="central">MIIB</text><polygon points="81,36 71,36 81,46" fill="#ffffff"/></g><g data-channel="cell" data-cell-index="1" data-cell-row="0" data-cell-col="1" data-surround-bits="0x6a24dc" data-edge-color="#000000"><rect x="93" y="36" width="48" height="20" fill="#0d3022"/><text x="117" y="46" fill="#ffffff" font-size="16" text-anchor="middle" dominant-baseline="central">IjAN</text></g><g data-channel="cell" data-cell-index="2" data-cell-row="0" data-cell-col="2" data-surround-bits="0x33e626" data-edge-color="#000000"><rect x="153" y="36" width="48" height="20" fill="#2a0906"/><text x="177" y="46" fill="#ffffff" font-size="16" text-anchor="middle" dominant-baseline="central">Bgkq</text></g><g data-channel="cell" data-cell-index="3" data-cell-row="0" data-cell-col="3" data-surround-bits="0x1d1012" data-edge-color="#2f3fbf"><rect x="213" y="36" width="48" height="20" fill="#864886"/><text x="237" y="46" fill="#ffffff" font-size="16" text-anchor="middle" dominant-baseline="central">hkiG</text></g><g data-channel="cell" data-cell-index="4" data-cell-row="1" data-cell-col="0" data-surround-bits="0x3ca011" data-edge-color="#2f3fbf"><rect x="33" y="76" width="48" height="20" fill="#010df7"/><text x="57" y="86" fill="#ffffff" font-size="16" text-anchor="middle" dominant-baseline="central">9w0B</text></g><g data-channel="cell" data-cell-index="5" data-cell-row="1" data-cell-col="1" data-surround-bits="0x5cef6e" data-edge-color="#000000"><rect x="93" y="76" width="48" height="20" fill="#050101"/><text x="117" y="86" fill="#ffffff" font-size="16" text-anchor="middle" dominant-baseline="central">AQEF</text></g><g data-channel="cell" data-cell-index="6" data-cell-row="1" data-cell-col="2" data-cell-blank="true" data-cell-blank-map="true"><rect x="153" y="76" width="48" height="20" rx="10" ry="10" fill="#ffffff" stroke="#000000" stroke-width="1"/><circle cx="159" cy="94.333" r="3.5" fill="#1d4ed8" data-blank-map-min="5,0"/><path d="M 166.8,91 H 175.2 M 171,86.8 V 95.2" fill="none" stroke="#d62828" stroke-width="1.925" stroke-linecap="butt" data-blank-map-max="4,1"/></g><g data-channel="cell" data-cell-index="7" data-cell-row="1" data-cell-col="3" data-surround-bits="0xb2c09b" data-edge-color="#000000"><rect x="213" y="76" width="48" height="20" fill="#820300"/><text x="237" y="86" fill="#ffffff" font-size="16" text-anchor="middle" dominant-baseline="central">AAOC</text></g><g data-channel="cell" data-cell-index="8" data-cell-row="2" data-cell-col="0" data-surround-bits="0x29c6aa" data-edge-color="#000000"><rect x="33" y="116" width="48" height="20" fill="#000f01"/><text x="57" y="126" fill="#ffffff" font-size="16" text-anchor="middle" dominant-baseline="central">AQ8A</text></g><g data-channel="cell" data-cell-index="9" data-cell-row="2" data-cell-col="1" data-cell-fingerprint="true" data-surround-bits="0x9df8f5" data-edge-color="#e7be00" data-cell-quartile="1"><rect x="93" y="116" width="48" height="20" fill="#ff3f2f"/><rect x="93.5" y="116.5" width="47" height="19" fill="none" stroke="#ffffff" stroke-width="1"/><text x="117" y="126" fill="#000000" font-size="13.333" text-anchor="middle" dominant-baseline="central">55yrq</text><polygon points="93,116 103,116 93,126" fill="#000000"/></g><g data-channel="cell" data-cell-index="10" data-cell-row="2" data-cell-col="2" data-cell-fingerprint="true" data-surround-bits="0xa7a1c3" data-edge-color="#e7be00"><rect x="153" y="116" width="48" height="20" fill="#ff3f2f"/><rect x="153.5" y="116.5" width="47" height="19" fill="none" stroke="#ffffff" stroke-width="1"/><text x="177" y="126" fill="#000000" font-size="13.333" text-anchor="middle" dominant-baseline="central">3h5y7</text></g><g data-channel="cell" data-cell-index="11" data-cell-row="2" data-cell-col="3" data-cell-fingerprint="true" data-surround-bits="0x413694" data-edge-color="#e7be00" data-cell-quartile="3"><rect x="213" y="116" width="48" height="20" fill="#ff3f2f"/><rect x="213.5" y="116.5" width="47" height="19" fill="none" stroke="#ffffff" stroke-width="1"/><text x="237" y="126" fill="#000000" font-size="13.333" text-anchor="middle" dominant-baseline="central">bfvdv</text><polygon points="261,136 261,126 251,136" fill="#000000"/></g><g data-channel="cell" data-cell-index="12" data-cell-row="3" data-cell-col="0" data-cell-fingerprint="true" data-surround-bits="0x76251e" data-edge-color="#e7be00"><rect x="33" y="156" width="48" height="20" fill="#ff3f2f"/><rect x="33.5" y="156.5" width="47" height="19" fill="none" stroke="#ffffff" stroke-width="1"/><text x="57" y="166" fill="#000000" font-size="13.333" text-anchor="middle" dominant-baseline="central">e1me6</text></g><g data-channel="cell" data-cell-index="13" data-cell-row="3" data-cell-col="1" data-cell-blank="true"><rect x="93" y="156" width="48" height="20" rx="10" ry="10" fill="#ffffff" stroke="#000000" stroke-width="1"/></g><g data-channel="cell" data-cell-index="14" data-cell-row="3" data-cell-col="2" data-surround-bits="0x634e82" data-edge-color="#000000"><rect x="153" y="156" width="48" height="20" fill="#da0d2e"/><text x="177" y="166" fill="#ffffff" font-size="16" text-anchor="middle" dominant-baseline="central">Lg3a</text></g><g data-channel="cell" data-cell-index="15" data-cell-row="3" data-cell-col="3" data-surround-bits="0x9f8412" data-edge-color="#e7be00"><rect x="213" y="156" width="48" height="20" fill="#2ac837"/><text x="237" y="166" fill="#000000" font-size="16" text-anchor="middle" dominant-baseline="central">N8gq</text></g><g data-channel="cell" data-cell-index="16" data-cell-row="4" data-cell-col="0" data-surround-bits="0x57de83" data-edge-color="#e7be00"><rect x="33" y="196" width="48" height="20" fill="#b56c2b"/><text x="57" y="206" fill="#000000" font-size="16" text-anchor="middle" dominant-baseline="central">K2y1</text></g><g data-channel="cell" data-cell-index="17" data-cell-row="4" data-cell-col="1" data-surround-bits="0xfd8749" data-edge-color="#2f3fbf"><rect x="93" y="196" width="48" height="20" fill="#ca67cc"/><text x="117" y="206" fill="#000000" font-size="16" text-anchor="middle" dominant-baseline="central">zGfK</text></g><g data-channel="cell" data-cell-index="18" data-cell-row="4" data-cell-col="2" data-surround-bits="0x407fac" data-edge-color="#2f3fbf"><rect x="153" y="196" width="48" height="20" fill="#3d776d"/><text x="177" y="206" fill="#ffffff" font-size="16" text-anchor="middle" dominant-baseline="central">bXc9</text></g><g data-channel="cell" data-cell-index="19" data-cell-row="4" data-cell-col="3" data-cell-blank="true"><rect x="213" y="196" width="48" height="20" rx="10" ry="10" fill="#2f3fbf" stroke="#000000" stroke-width="1"/></g><g data-channel="cell" data-cell-index="20" data-cell-row="5" data-cell-col="0" data-surround-bits="0xb03e6" data-edge-color="#2f3fbf" data-cell-quartile="4"><rect x="33" y="236" width="48" height="20" fill="#2d66a7"/><text x="57" y="246" fill="#ffffff" font-size="16" text-anchor="middle" dominant-baseline="central">p2Yt</text><polygon points="33,256 33,246 43,256" fill="#ffffff"/></g><g data-channel="cell" data-cell-index="21" data-cell-row="5" data-cell-col="1" data-surround-bits="0x9c0bc0" data-edge-color="#e7be00"><rect x="93" y="236" width="48" height="20" fill="#79f236"/><text x="117" y="246" fill="#000000" font-size="16" text-anchor="middle" dominant-baseline="central">NvJ5</text></g><g data-channel="cell" data-cell-index="22" data-cell-row="5" data-cell-col="2" data-surround-bits="0x66c69e" data-edge-color="#2f3fbf"><rect x="153" y="236" width="48" height="20" fill="#174b87"/><text x="177" y="246" fill="#ffffff" font-size="16" text-anchor="middle" dominant-baseline="central">h0sX</text></g><g data-channel="cell" data-cell-index="23" data-cell-row="5" data-cell-col="3" data-cell-blank="true"><rect x="213" y="236" width="48" height="20" rx="10" ry="10" fill="#e7be00" stroke="#000000" stroke-width="1"/></g></g></g><g data-channel="color-bar" data-bar-slots="16" data-bar-marker-left="3" data-bar-marker-right="4"><g data-color-bar-rank="0" data-color-bar-band="W"><rect x="1" y="1" width="20" height="98.412" fill="#ffffff"/><text x="11" y="95.892" fill="#000000" font-size="16" text-anchor="middle" data-color-bar-letter="true">w</text></g><g data-color-bar-rank="1" data-color-bar-band="B"><rect x="1" y="99.412" width="20" height="73.484" fill="#2f3fbf"/><text x="11" y="169.375" fill="#ffffff" font-size="16" text-anchor="middle" data-color-bar-letter="true">b</text></g><g data-color-bar-rank="2" data-color-bar-band="K"><rect x="1" y="172.895" width="20" height="57.224" fill="#000000"/><text x="11" y="226.6" fill="#ffffff" font-size="16" text-anchor="middle" data-color-bar-letter="true">k</text></g><g data-color-bar-rank="3" data-color-bar-band="G"><rect x="1" y="230.12" width="20" height="40.88" fill="#e7be00"/><text x="11" y="267.48" fill="#000000" font-size="16" text-anchor="middle" data-color-bar-letter="true">g</text></g><circle cx="5.6" cy="60.062" r="3.4" fill="#ffffff" stroke="#000000" stroke-width="0.75" data-bar-marker="left"/><circle cx="16.4" cy="76.938" r="3.4" fill="#ffffff" stroke="#000000" stroke-width="0.75" data-bar-marker="right"/></g><g data-channel="label-top"><text x="27" y="16" fill="#666666" font-size="12" dominant-baseline="central"><tspan fill="#a00000" font-weight="bold">fingerprint of </tspan>b64(119):</text></g><line x1="0" y1="0.5" x2="273" y2="0.5" stroke="#808080" stroke-width="1" shape-rendering="crispEdges"/><line x1="272.5" y1="0" x2="272.5" y2="272" stroke="#808080" stroke-width="1" shape-rendering="crispEdges"/><line x1="0" y1="271.5" x2="273" y2="271.5" stroke="#808080" stroke-width="1" shape-rendering="crispEdges"/><line x1="0.5" y1="0" x2="0.5" y2="272" stroke="#808080" stroke-width="1" shape-rendering="crispEdges"/><line x1="21.5" y1="0" x2="21.5" y2="272" stroke="#808080" stroke-width="1" shape-rendering="crispEdges"/></svg>