<svg width="273" height="272" viewBox="0 0 273 272" xmlns="http://www.w3.org/2000/svg" font-family="&quot;JetBrains Mono&quot;, &quot;Menlo&quot;, &quot;Consolas&quot;, &quot;DejaVu Sans Mono&quot;, &quot;Liberation Mono&quot;, &quot;Roboto Mono&quot;, &quot;Noto Sans Mono&quot;, monospace" data-entviz-version="v10" data-entviz-lib="0.10.0" data-input-bytes="256" data-cols="4" data-rows="6" data-truncated="true"><defs><clipPath id="grid-clip-c479c3873cc56621-4x6"><rect x="27" y="26" width="240" height="240"/></clipPath></defs><rect x="0" y="0" width="273" height="272" fill="#ffffff"/><g data-channel="grid"><rect x="27" y="26" width="240" height="240" fill="#ffffff"/><g><rect x="87" y="26" width="6" height="10" fill="#000000"/><rect x="93" y="26" width="6" height="10" fill="#000000"/><rect x="123" y="26" width="6" height="10" fill="#000000"/><rect x="129" y="26" width="6" height="10" fill="#000000"/><rect x="135" y="26" width="6" height="10" fill="#000000"/><rect x="141" y="46" width="6" height="10" fill="#000000"/><rect x="141" y="56" width="6" height="10" fill="#000000"/><rect x="135" y="56" width="6" height="10" fill="#000000"/><rect x="129" y="56" width="6" height="10" fill="#000000"/><rect x="105" y="56" width="6" height="10" fill="#000000"/><rect x="87" y="46" width="6" height="10" fill="#000000"/><rect x="87" y="36" width="6" height="10" fill="#000000"/><rect x="147" y="26" width="6" height="10" fill="#ff3f2f"/><rect x="159" y="26" width="6" height="10" fill="#ff3f2f"/><rect x="183" y="26" width="6" height="10" fill="#ff3f2f"/><rect x="189" y="26" width="6" height="10" fill="#ff3f2f"/><rect x="201" y="36" width="6" height="10" fill="#ff3f2f"/><rect x="201" y="46" width="6" height="10" fill="#ff3f2f"/><rect x="201" y="56" width="6" height="10" fill="#ff3f2f"/><rect x="195" y="56" width="6" height="10" fill="#ff3f2f"/><rect x="177" y="56" width="6" height="10" fill="#ff3f2f"/><rect x="171" y="56" width="6" height="10" fill="#ff3f2f"/><rect x="165" y="56" width="6" height="10" fill="#ff3f2f"/><rect x="147" y="36" width="6" height="10" fill="#ff3f2f"/><rect x="207" y="26" width="6" height="10" fill="#2f3fbf"/><rect x="213" y="26" width="6" height="10" fill="#2f3fbf"/><rect x="255" y="26" width="6" height="10" fill="#2f3fbf"/><rect x="255" y="56" width="6" height="10" fill="#2f3fbf"/><rect x="231" y="56" width="6" height="10" fill="#2f3fbf"/><rect x="225" y="56" width="6" height="10" fill="#2f3fbf"/><rect x="207" y="56" width="6" height="10" fill="#2f3fbf"/><rect x="207" y="46" width="6" height="10" fill="#2f3fbf"/><rect x="27" y="66" width="6" height="10" fill="#000000"/><rect x="33" y="66" width="6" height="10" fill="#000000"/><rect x="39" y="66" width="6" height="10" fill="#000000"/><rect x="45" y="66" width="6" height="10" fill="#000000"/><rect x="51" y="66" width="6" height="10" fill="#000000"/><rect x="57" y="66" width="6" height="10" fill="#000000"/><rect x="63" y="66" width="6" height="10" fill="#000000"/><rect x="75" y="66" width="6" height="10" fill="#000000"/><rect x="81" y="76" width="6" height="10" fill="#000000"/><rect x="81" y="96" width="6" height="10" fill="#000000"/><rect x="75" y="96" width="6" height="10" fill="#000000"/><rect x="63" y="96" width="6" height="10" fill="#000000"/><rect x="57" y="96" width="6" height="10" fill="#000000"/><rect x="27" y="96" width="6" height="10" fill="#000000"/><rect x="27" y="86" width="6" height="10" fill="#000000"/><rect x="93" y="66" width="6" height="10" fill="#e7be00"/><rect x="99" y="66" width="6" height="10" fill="#e7be00"/><rect x="111" y="66" width="6" height="10" fill="#e7be00"/><rect x="123" y="66" width="6" height="10" fill="#e7be00"/><rect x="135" y="66" width="6" height="10" fill="#e7be00"/><rect x="141" y="66" width="6" height="10" fill="#e7be00"/><rect x="141" y="76" width="6" height="10" fill="#e7be00"/><rect x="135" y="96" width="6" height="10" fill="#e7be00"/><rect x="105" y="96" width="6" height="10" fill="#e7be00"/><rect x="93" y="96" width="6" height="10" fill="#e7be00"/><rect x="87" y="86" width="6" height="10" fill="#e7be00"/><rect x="147" y="66" width="6" height="10" fill="#2f3fbf"/><rect x="165" y="66" width="6" height="10" fill="#2f3fbf"/><rect x="171" y="66" width="6" height="10" fill="#2f3fbf"/><rect x="201" y="86" width="6" height="10" fill="#2f3fbf"/><rect x="195" y="96" width="6" height="10" fill="#2f3fbf"/><rect x="189" y="96" width="6" height="10" fill="#2f3fbf"/><rect x="171" y="96" width="6" height="10" fill="#2f3fbf"/><rect x="165" y="96" width="6" height="10" fill="#2f3fbf"/><rect x="153" y="96" width="6" height="10" fill="#2f3fbf"/><rect x="207" y="66" width="6" height="10" fill="#ff3f2f"/><rect x="231" y="66" width="6" height="10" fill="#ff3f2f"/><rect x="237" y="66" width="6" height="10" fill="#ff3f2f"/><rect x="243" y="66" width="6" height="10" fill="#ff3f2f"/><rect x="255" y="66" width="6" height="10" fill="#ff3f2f"/><rect x="261" y="66" width="6" height="10" fill="#ff3f2f"/><rect x="261" y="76" width="6" height="10" fill="#ff3f2f"/><rect x="255" y="96" width="6" height="10" fill="#ff3f2f"/><rect x="249" y="96" width="6" height="10" fill="#ff3f2f"/><rect x="243" y="96" width="6" height="10" fill="#ff3f2f"/><rect x="219" y="96" width="6" height="10" fill="#ff3f2f"/><rect x="213" y="96" width="6" height="10" fill="#ff3f2f"/><rect x="207" y="96" width="6" height="10" fill="#ff3f2f"/><rect x="99" y="106" width="6" height="10" fill="#e7be00"/><rect x="117" y="106" width="6" height="10" fill="#e7be00"/><rect x="123" y="106" width="6" height="10" fill="#e7be00"/><rect x="129" y="106" width="6" height="10" fill="#e7be00"/><rect x="141" y="106" width="6" height="10" fill="#e7be00"/><rect x="141" y="116" width="6" height="10" fill="#e7be00"/><rect x="141" y="126" width="6" height="10" fill="#e7be00"/><rect x="141" y="136" width="6" height="10" fill="#e7be00"/><rect x="135" y="136" width="6" height="10" fill="#e7be00"/><rect x="117" y="136" width="6" height="10" fill="#e7be00"/><rect x="111" y="136" width="6" height="10" fill="#e7be00"/><rect x="105" y="136" width="6" height="10" fill="#e7be00"/><rect x="93" y="136" width="6" height="10" fill="#e7be00"/><rect x="87" y="126" width="6" height="10" fill="#e7be00"/><rect x="159" y="106" width="6" height="10" fill="#e7be00"/><rect x="171" y="106" width="6" height="10" fill="#e7be00"/><rect x="177" y="106" width="6" height="10" fill="#e7be00"/><rect x="183" y="106" width="6" height="10" fill="#e7be00"/><rect x="195" y="106" width="6" height="10" fill="#e7be00"/><rect x="201" y="116" width="6" height="10" fill="#e7be00"/><rect x="201" y="126" width="6" height="10" fill="#e7be00"/><rect x="201" y="136" width="6" height="10" fill="#e7be00"/><rect x="177" y="136" width="6" height="10" fill="#e7be00"/><rect x="171" y="136" width="6" height="10" fill="#e7be00"/><rect x="165" y="136" width="6" height="10" fill="#e7be00"/><rect x="153" y="136" width="6" height="10" fill="#e7be00"/><rect x="147" y="136" width="6" height="10" fill="#e7be00"/><rect x="147" y="116" width="6" height="10" fill="#e7be00"/><rect x="213" y="106" width="6" height="10" fill="#e7be00"/><rect x="237" y="106" width="6" height="10" fill="#e7be00"/><rect x="249" y="106" width="6" height="10" fill="#e7be00"/><rect x="255" y="106" width="6" height="10" fill="#e7be00"/><rect x="261" y="106" width="6" height="10" fill="#e7be00"/><rect x="261" y="116" width="6" height="10" fill="#e7be00"/><rect x="261" y="126" width="6" height="10" fill="#e7be00"/><rect x="261" y="136" width="6" height="10" fill="#e7be00"/><rect x="243" y="136" width="6" height="10" fill="#e7be00"/><rect x="219" y="136" width="6" height="10" fill="#e7be00"/><rect x="213" y="136" width="6" height="10" fill="#e7be00"/><rect x="207" y="126" width="6" height="10" fill="#e7be00"/><rect x="87" y="146" width="6" height="10" fill="#e7be00"/><rect x="129" y="146" width="6" height="10" fill="#e7be00"/><rect x="135" y="146" width="6" height="10" fill="#e7be00"/><rect x="141" y="146" width="6" height="10" fill="#e7be00"/><rect x="141" y="176" width="6" height="10" fill="#e7be00"/><rect x="135" y="176" width="6" height="10" fill="#e7be00"/><rect x="129" y="176" width="6" height="10" fill="#e7be00"/><rect x="111" y="176" width="6" height="10" fill="#e7be00"/><rect x="93" y="176" width="6" height="10" fill="#e7be00"/><rect x="87" y="166" width="6" height="10" fill="#e7be00"/><rect x="87" y="156" width="6" height="10" fill="#e7be00"/><rect x="147" y="146" width="6" height="10" fill="#e7be00"/><rect x="171" y="146" width="6" height="10" fill="#e7be00"/><rect x="177" y="146" width="6" height="10" fill="#e7be00"/><rect x="195" y="146" width="6" height="10" fill="#e7be00"/><rect x="201" y="156" width="6" height="10" fill="#e7be00"/><rect x="201" y="166" width="6" height="10" fill="#e7be00"/><rect x="201" y="176" width="6" height="10" fill="#e7be00"/><rect x="189" y="176" width="6" height="10" fill="#e7be00"/><rect x="183" y="176" width="6" height="10" fill="#e7be00"/><rect x="177" y="176" width="6" height="10" fill="#e7be00"/><rect x="165" y="176" width="6" height="10" fill="#e7be00"/><rect x="159" y="176" width="6" height="10" fill="#e7be00"/><rect x="147" y="176" width="6" height="10" fill="#e7be00"/><rect x="147" y="156" width="6" height="10" fill="#e7be00"/><rect x="255" y="146" width="6" height="10" fill="#000000"/><rect x="261" y="156" width="6" height="10" fill="#000000"/><rect x="261" y="176" width="6" height="10" fill="#000000"/><rect x="249" y="176" width="6" height="10" fill="#000000"/><rect x="237" y="176" width="6" height="10" fill="#000000"/><rect x="225" y="176" width="6" height="10" fill="#000000"/><rect x="213" y="176" width="6" height="10" fill="#000000"/><rect x="207" y="176" width="6" height="10" fill="#000000"/><rect x="207" y="166" width="6" height="10" fill="#000000"/><rect x="27" y="186" width="6" height="10" fill="#ff3f2f"/><rect x="33" y="186" width="6" height="10" fill="#ff3f2f"/><rect x="39" y="186" width="6" height="10" fill="#ff3f2f"/><rect x="81" y="196" width="6" height="10" fill="#ff3f2f"/><rect x="81" y="206" width="6" height="10" fill="#ff3f2f"/><rect x="81" y="216" width="6" height="10" fill="#ff3f2f"/><rect x="75" y="216" width="6" height="10" fill="#ff3f2f"/><rect x="69" y="216" width="6" height="10" fill="#ff3f2f"/><rect x="63" y="216" width="6" height="10" fill="#ff3f2f"/><rect x="39" y="216" width="6" height="10" fill="#ff3f2f"/><rect x="33" y="216" width="6" height="10" fill="#ff3f2f"/><rect x="27" y="206" width="6" height="10" fill="#ff3f2f"/><rect x="123" y="186" width="6" height="10" fill="#2f3fbf"/><rect x="129" y="186" width="6" height="10" fill="#2f3fbf"/><rect x="141" y="216" width="6" height="10" fill="#2f3fbf"/><rect x="135" y="216" width="6" height="10" fill="#2f3fbf"/><rect x="105" y="216" width="6" height="10" fill="#2f3fbf"/><rect x="87" y="206" width="6" height="10" fill="#2f3fbf"/><rect x="147" y="186" width="6" height="10" fill="#000000"/><rect x="153" y="186" width="6" height="10" fill="#000000"/><rect x="159" y="186" width="6" height="10" fill="#000000"/><rect x="165" y="186" width="6" height="10" fill="#000000"/><rect x="171" y="186" width="6" height="10" fill="#000000"/><rect x="189" y="186" width="6" height="10" fill="#000000"/><rect x="201" y="216" width="6" height="10" fill="#000000"/><rect x="195" y="216" width="6" height="10" fill="#000000"/><rect x="177" y="216" width="6" height="10" fill="#000000"/><rect x="171" y="216" width="6" height="10" fill="#000000"/><rect x="159" y="216" width="6" height="10" fill="#000000"/><rect x="147" y="216" width="6" height="10" fill="#000000"/><rect x="213" y="186" width="6" height="10" fill="#e7be00"/><rect x="231" y="186" width="6" height="10" fill="#e7be00"/><rect x="237" y="186" width="6" height="10" fill="#e7be00"/><rect x="243" y="186" width="6" height="10" fill="#e7be00"/><rect x="255" y="186" width="6" height="10" fill="#e7be00"/><rect x="261" y="186" width="6" height="10" fill="#e7be00"/><rect x="261" y="196" width="6" height="10" fill="#e7be00"/><rect x="261" y="206" width="6" height="10" fill="#e7be00"/><rect x="255" y="216" width="6" height="10" fill="#e7be00"/><rect x="249" y="216" width="6" height="10" fill="#e7be00"/><rect x="243" y="216" width="6" height="10" fill="#e7be00"/><rect x="237" y="216" width="6" height="10" fill="#e7be00"/><rect x="219" y="216" width="6" height="10" fill="#e7be00"/><rect x="207" y="216" width="6" height="10" fill="#e7be00"/><rect x="207" y="196" width="6" height="10" fill="#e7be00"/><rect x="33" y="226" width="6" height="10" fill="#2f3fbf"/><rect x="51" y="226" width="6" height="10" fill="#2f3fbf"/><rect x="63" y="226" width="6" height="10" fill="#2f3fbf"/><rect x="81" y="246" width="6" height="10" fill="#2f3fbf"/><rect x="75" y="256" width="6" height="10" fill="#2f3fbf"/><rect x="69" y="256" width="6" height="10" fill="#2f3fbf"/><rect x="63" y="256" width="6" height="10" fill="#2f3fbf"/><rect x="51" y="256" width="6" height="10" fill="#2f3fbf"/><rect x="33" y="256" width="6" height="10" fill="#2f3fbf"/><rect x="27" y="246" width="6" height="10" fill="#2f3fbf"/><rect x="99" y="226" width="6" height="10" fill="#ff3f2f"/><rect x="105" y="226" width="6" height="10" fill="#ff3f2f"/><rect x="111" y="226" width="6" height="10" fill="#ff3f2f"/><rect x="141" y="226" width="6" height="10" fill="#ff3f2f"/><rect x="141" y="236" width="6" height="10" fill="#ff3f2f"/><rect x="141" y="246" width="6" height="10" fill="#ff3f2f"/><rect x="141" y="256" width="6" height="10" fill="#ff3f2f"/><rect x="135" y="256" width="6" height="10" fill="#ff3f2f"/><rect x="129" y="256" width="6" height="10" fill="#ff3f2f"/><rect x="117" y="256" width="6" height="10" fill="#ff3f2f"/><rect x="105" y="256" width="6" height="10" fill="#ff3f2f"/><rect x="93" y="256" width="6" height="10" fill="#ff3f2f"/><rect x="87" y="256" width="6" height="10" fill="#ff3f2f"/><rect x="87" y="246" width="6" height="10" fill="#ff3f2f"/><rect x="87" y="236" width="6" height="10" fill="#ff3f2f"/><rect x="147" y="226" width="6" height="10" fill="#e7be00"/><rect x="153" y="226" width="6" height="10" fill="#e7be00"/><rect x="159" y="226" width="6" height="10" fill="#e7be00"/><rect x="165" y="226" width="6" height="10" fill="#e7be00"/><rect x="171" y="226" width="6" height="10" fill="#e7be00"/><rect x="195" y="226" width="6" height="10" fill="#e7be00"/><rect x="201" y="226" width="6" height="10" fill="#e7be00"/><rect x="201" y="246" width="6" height="10" fill="#e7be00"/><rect x="195" y="256" width="6" height="10" fill="#e7be00"/><rect x="177" y="256" width="6" height="10" fill="#e7be00"/><rect x="171" y="256" width="6" height="10" fill="#e7be00"/><rect x="153" y="256" width="6" height="10" fill="#e7be00"/></g><g clip-path="url(#grid-clip-c479c3873cc56621-4x6)" data-channel="ellipse" data-ellipse-anchor-x="147" data-ellipse-anchor-y="186" data-ellipse-rx="63.2" data-ellipse-ry="44" data-ellipse-rotation-deg="48"><ellipse cx="147" cy="186" rx="63.2" ry="44" transform="rotate(48 147 186)" fill="#000000" stroke="#000000" fill-opacity="0.2" stroke-opacity="0.3" stroke-width="2"/></g><g><g data-channel="cell" data-cell-index="0" data-cell-row="0" data-cell-col="0" data-cell-blank="true" data-cell-blank-map="true"><rect x="33" y="36" width="48" height="20" rx="10" ry="10" fill="#e7be00" stroke="#000000" stroke-width="1"/><circle cx="63" cy="54.333" r="3.5" fill="#1d4ed8" data-blank-map-min="5,2"/><path d="M 46.8,54.333 H 55.2 M 51,50.133 V 58.533" fill="none" stroke="#d62828" stroke-width="1.925" stroke-linecap="butt" data-blank-map-max="5,1"/></g><g data-channel="cell" data-cell-index="1" data-cell-row="0" data-cell-col="1" data-cell-quartile="2"><rect x="93" y="36" width="48" height="20" fill="#452301"/><text x="117" y="46" fill="#ffffff" font-size="12" text-anchor="middle" dominant-baseline="central">012345</text><polygon points="141,36 131,36 141,46" fill="#ffffff"/></g><g data-channel="cell" data-cell-index="2" data-cell-row="0" data-cell-col="2"><rect x="153" y="36" width="48" height="20" fill="#ab8967"/><text x="177" y="46" fill="#000000" font-size="12" text-anchor="middle" dominant-baseline="central">6789ab</text></g><g data-channel="cell" data-cell-index="3" data-cell-row="0" data-cell-col="3"><rect x="213" y="36" width="48" height="20" fill="#01efcd"/><text x="237" y="46" fill="#000000" font-size="12" text-anchor="middle" dominant-baseline="central">cdef01</text></g><g data-channel="cell" data-cell-index="4" data-cell-row="1" data-cell-col="0"><rect x="33" y="76" width="48" height="20" fill="#674523"/><text x="57" y="86" fill="#ffffff" font-size="12" text-anchor="middle" dominant-baseline="central">234567</text></g><g data-channel="cell" data-cell-index="5" data-cell-row="1" data-cell-col="1"><rect x="93" y="76" width="48" height="20" fill="#cdab89"/><text x="117" y="86" fill="#000000" font-size="12" text-anchor="middle" dominant-baseline="central">89abcd</text></g><g data-channel="cell" data-cell-index="6" data-cell-row="1" data-cell-col="2" data-cell-quartile="3"><rect x="153" y="76" width="48" height="20" fill="#2301ef"/><text x="177" y="86" fill="#ffffff" font-size="12" text-anchor="middle" dominant-baseline="central">ef0123</text><polygon points="201,96 201,86 191,96" fill="#ffffff"/></g><g data-channel="cell" data-cell-index="7" data-cell-row="1" data-cell-col="3"><rect x="213" y="76" width="48" height="20" fill="#896745"/><text x="237" y="86" fill="#ffffff" font-size="12" text-anchor="middle" dominant-baseline="central">456789</text></g><g data-channel="cell" data-cell-index="8" data-cell-row="2" data-cell-col="0" data-cell-blank="true"><rect x="33" y="116" width="48" height="20" rx="10" ry="10" fill="#ff3f2f" stroke="#000000" stroke-width="1"/></g><g data-channel="cell" data-cell-index="9" data-cell-row="2" data-cell-col="1"><rect x="93" y="116" width="48" height="20" fill="#efcdab"/><text x="117" y="126" fill="#000000" font-size="12" text-anchor="middle" dominant-baseline="central">abcdef</text></g><g data-channel="cell" data-cell-index="10" data-cell-row="2" data-cell-col="2" data-cell-fingerprint="true" data-cell-quartile="1"><rect x="153" y="116" width="48" height="20" fill="#ffffff"/><rect x="153.5" y="116.5" width="47" height="19" fill="none" stroke="#e7be00" stroke-width="1"/><text x="177" y="126" fill="#000000" font-size="13.333" text-anchor="middle" dominant-baseline="central">91sz9</text><polygon points="153,116 163,116 153,126" fill="#000000"/></g><g data-channel="cell" data-cell-index="11" data-cell-row="2" data-cell-col="3" data-cell-fingerprint="true" data-cell-quartile="4"><rect x="213" y="116" width="48" height="20" fill="#ffffff"/><rect x="213.5" y="116.5" width="47" height="19" fill="none" stroke="#e7be00" stroke-width="1"/><text x="237" y="126" fill="#000000" font-size="13.333" text-anchor="middle" dominant-baseline="central">bepf4</text><polygon points="213,136 213,126 223,136" fill="#000000"/></g><g data-channel="cell" data-cell-index="12" data-cell-row="3" data-cell-col="0" data-cell-blank="true"><rect x="33" y="156" width="48" height="20" rx="10" ry="10" fill="#ff3f2f" stroke="#000000" stroke-width="1"/></g><g data-channel="cell" data-cell-index="13" data-cell-row="3" data-cell-col="1" data-cell-fingerprint="true"><rect x="93" y="156" width="48" height="20" fill="#ffffff"/><rect x="93.5" y="156.5" width="47" height="19" fill="none" stroke="#e7be00" stroke-width="1"/><text x="117" y="166" fill="#000000" font-size="13.333" text-anchor="middle" dominant-baseline="central">03gav</text></g><g data-channel="cell" data-cell-index="14" data-cell-row="3" data-cell-col="2" data-cell-fingerprint="true"><rect x="153" y="156" width="48" height="20" fill="#ffffff"/><rect x="153.5" y="156.5" width="47" height="19" fill="none" stroke="#e7be00" stroke-width="1"/><text x="177" y="166" fill="#000000" font-size="13.333" text-anchor="middle" dominant-baseline="central">3ntgg</text></g><g data-channel="cell" data-cell-index="15" data-cell-row="3" data-cell-col="3"><rect x="213" y="156" width="48" height="20" fill="#452301"/><text x="237" y="166" fill="#ffffff" font-size="12" text-anchor="middle" dominant-baseline="central">012345</text></g><g data-channel="cell" data-cell-index="16" data-cell-row="4" data-cell-col="0"><rect x="33" y="196" width="48" height="20" fill="#ab8967"/><text x="57" y="206" fill="#000000" font-size="12" text-anchor="middle" dominant-baseline="central">6789ab</text></g><g data-channel="cell" data-cell-index="17" data-cell-row="4" data-cell-col="1"><rect x="93" y="196" width="48" height="20" fill="#01efcd"/><text x="117" y="206" fill="#000000" font-size="12" text-anchor="middle" dominant-baseline="central">cdef01</text></g><g data-channel="cell" data-cell-index="18" data-cell-row="4" data-cell-col="2"><rect x="153" y="196" width="48" height="20" fill="#674523"/><text x="177" y="206" fill="#ffffff" font-size="12" text-anchor="middle" dominant-baseline="central">234567</text></g><g data-channel="cell" data-cell-index="19" data-cell-row="4" data-cell-col="3"><rect x="213" y="196" width="48" height="20" fill="#cdab89"/><text x="237" y="206" fill="#000000" font-size="12" text-anchor="middle" dominant-baseline="central">89abcd</text></g><g data-channel="cell" data-cell-index="20" data-cell-row="5" data-cell-col="0"><rect x="33" y="236" width="48" height="20" fill="#2301ef"/><text x="57" y="246" fill="#ffffff" font-size="12" text-anchor="middle" dominant-baseline="central">ef0123</text></g><g data-channel="cell" data-cell-index="21" data-cell-row="5" data-cell-col="1"><rect x="93" y="236" width="48" height="20" fill="#896745"/><text x="117" y="246" fill="#ffffff" font-size="12" text-anchor="middle" dominant-baseline="central">456789</text></g><g data-channel="cell" data-cell-index="22" data-cell-row="5" data-cell-col="2"><rect x="153" y="236" width="48" height="20" fill="#efcdab"/><text x="177" y="246" fill="#000000" font-size="12" text-anchor="middle" dominant-baseline="central">abcdef</text></g><g data-channel="cell" data-cell-index="23" data-cell-row="5" data-cell-col="3" data-cell-blank="true"><rect x="213" y="236" width="48" height="20" rx="10" ry="10" fill="#ff3f2f" stroke="#000000" stroke-width="1"/></g></g></g><g data-channel="color-bar" data-bar-slots="16" data-bar-marker-left="15" data-bar-marker-right="14"><g data-color-bar-rank="0" data-color-bar-band="G"><rect x="1" y="1" width="20" height="86.845" fill="#e7be00"/><text x="11" y="85.205" fill="#000000" font-size="12" text-anchor="middle" data-color-bar-letter="true">g</text></g><g data-color-bar-rank="1" data-color-bar-band="R"><rect x="1" y="87.845" width="20" height="114.016" fill="#ff3f2f"/><text x="11" y="199.222" fill="#000000" font-size="12" text-anchor="middle" data-color-bar-letter="true">r</text></g><g data-color-bar-rank="2" data-color-bar-band="K"><rect x="1" y="201.862" width="20" height="53.836" fill="#000000"/><text x="11" y="253.058" fill="#ffffff" font-size="12" text-anchor="middle" data-color-bar-letter="true">k</text></g><g data-color-bar-rank="3" data-color-bar-band="B"><rect x="1" y="255.698" width="20" height="15.302" fill="#2f3fbf"/><text x="11" y="268.36" fill="#ffffff" font-size="12" text-anchor="middle" data-color-bar-letter="true">b</text></g><circle cx="5.6" cy="262.562" r="3.4" fill="#ffffff" stroke="#000000" stroke-width="0.75" data-bar-marker="left"/><circle cx="16.4" cy="245.688" r="3.4" fill="#ffffff" stroke="#000000" stroke-width="0.75" data-bar-marker="right"/></g><g data-channel="label-top"><text x="27" y="16" fill="#666666" font-size="12" dominant-baseline="central"><tspan fill="#a00000" font-weight="bold">fingerprint of </tspan>hex(256):</text></g><line x1="0" y1="0.5" x2="273" y2="0.5" stroke="#808080" stroke-width="1" shape-rendering="crispEdges"/><line x1="272.5" y1="0" x2="272.5" y2="272" stroke="#808080" stroke-width="1" shape-rendering="crispEdges"/><line x1="0" y1="271.5" x2="273" y2="271.5" stroke="#808080" stroke-width="1" shape-rendering="crispEdges"/><line x1="0.5" y1="0" x2="0.5" y2="272" stroke="#808080" stroke-width="1" shape-rendering="crispEdges"/><line x1="21.5" y1="0" x2="21.5" y2="272" stroke="#808080" stroke-width="1" shape-rendering="crispEdges"/></svg>