<svg width="213" height="192" viewBox="0 0 213 192" xmlns="http://www.w3.org/2000/svg" font-family="&quot;JetBrains Mono&quot;, &quot;Menlo&quot;, &quot;Consolas&quot;, &quot;DejaVu Sans Mono&quot;, &quot;Liberation Mono&quot;, &quot;Roboto Mono&quot;, &quot;Noto Sans Mono&quot;, monospace" data-entviz-version="v11" data-entviz-lib="0.11.0" data-input-bytes="64" data-cols="3" data-rows="4"><defs><clipPath id="grid-clip-8ed0861e43294df7-3x4"><rect x="27" y="26" width="180" height="160"/></clipPath></defs><rect x="0" y="0" width="213" height="192" fill="#ffffff"/><g data-channel="grid"><rect x="27" y="26" width="180" height="160" fill="#2f3fbf"/><g><path fill="#ff3f2f" d="M33 26h6v10h-6zM39 26h6v10h-6zM69 26h6v10h-6zM81 56h6v10h-6zM69 56h6v10h-6zM63 56h6v10h-6zM51 56h6v10h-6zM45 56h6v10h-6zM39 56h6v10h-6zM27 36h6v10h-6z"/><path fill="#ffffff" d="M87 26h6v10h-6zM105 26h6v10h-6zM117 26h6v10h-6zM135 26h6v10h-6zM141 26h6v10h-6zM129 56h6v10h-6zM111 56h6v10h-6zM105 56h6v10h-6zM99 56h6v10h-6zM93 56h6v10h-6z"/><path fill="#ffffff" d="M147 26h6v10h-6zM177 26h6v10h-6zM183 26h6v10h-6zM195 26h6v10h-6zM201 26h6v10h-6zM201 36h6v10h-6zM201 56h6v10h-6zM195 56h6v10h-6zM189 56h6v10h-6zM183 56h6v10h-6zM177 56h6v10h-6zM165 56h6v10h-6zM159 56h6v10h-6zM147 46h6v10h-6z"/><path fill="#ff3f2f" d="M27 66h6v10h-6zM33 66h6v10h-6zM39 66h6v10h-6zM57 66h6v10h-6zM81 86h6v10h-6zM63 96h6v10h-6zM57 96h6v10h-6zM45 96h6v10h-6zM33 96h6v10h-6zM27 96h6v10h-6zM27 86h6v10h-6z"/><path fill="#e7be00" d="M87 66h6v10h-6zM105 66h6v10h-6zM117 66h6v10h-6zM123 66h6v10h-6zM129 66h6v10h-6zM135 66h6v10h-6zM141 86h6v10h-6zM135 96h6v10h-6zM123 96h6v10h-6zM99 96h6v10h-6zM93 96h6v10h-6zM87 86h6v10h-6zM87 76h6v10h-6z"/><path fill="#ff3f2f" d="M159 66h6v10h-6zM177 66h6v10h-6zM183 66h6v10h-6zM201 66h6v10h-6zM201 76h6v10h-6zM183 96h6v10h-6zM171 96h6v10h-6zM159 96h6v10h-6zM147 86h6v10h-6zM147 76h6v10h-6z"/><path fill="#ffffff" d="M69 106h6v10h-6zM75 106h6v10h-6zM81 116h6v10h-6zM81 136h6v10h-6zM75 136h6v10h-6zM69 136h6v10h-6zM63 136h6v10h-6zM57 136h6v10h-6zM45 136h6v10h-6zM39 136h6v10h-6zM27 136h6v10h-6z"/><path fill="#000000" d="M117 106h6v10h-6zM141 116h6v10h-6zM129 136h6v10h-6zM123 136h6v10h-6zM117 136h6v10h-6zM105 136h6v10h-6zM93 136h6v10h-6zM87 136h6v10h-6zM87 126h6v10h-6zM87 116h6v10h-6z"/><path fill="#000000" d="M27 146h6v10h-6zM33 146h6v10h-6zM45 146h6v10h-6zM51 146h6v10h-6zM57 146h6v10h-6zM63 146h6v10h-6zM69 146h6v10h-6zM81 146h6v10h-6zM81 156h6v10h-6zM81 166h6v10h-6zM57 176h6v10h-6zM45 176h6v10h-6zM39 176h6v10h-6zM33 176h6v10h-6zM27 166h6v10h-6z"/><path fill="#ff3f2f" d="M93 146h6v10h-6zM99 146h6v10h-6zM105 146h6v10h-6zM111 146h6v10h-6zM117 146h6v10h-6zM123 146h6v10h-6zM135 146h6v10h-6zM141 146h6v10h-6zM141 156h6v10h-6zM141 166h6v10h-6zM111 176h6v10h-6zM93 176h6v10h-6zM87 156h6v10h-6z"/><path fill="#000000" d="M147 146h6v10h-6zM153 146h6v10h-6zM201 156h6v10h-6zM201 176h6v10h-6zM189 176h6v10h-6zM177 176h6v10h-6zM147 176h6v10h-6zM147 156h6v10h-6z"/></g><g clip-path="url(#grid-clip-8ed0861e43294df7-3x4)" data-channel="ellipse" data-ellipse-anchor-x="87" data-ellipse-anchor-y="146" data-ellipse-rx="78.065" data-ellipse-ry="37.335" data-ellipse-rotation-deg="108"><ellipse cx="87" cy="146" rx="78.065" ry="37.335" transform="rotate(108 87 146)" fill="#ffffff" stroke="#ffffff" fill-opacity="0.35" stroke-opacity="0.45" stroke-width="2"/></g><g><g data-channel="cell" data-cell-index="0" data-cell-row="0" data-cell-col="0" data-surround-bits="0x8ed086" data-edge-color="#ff3f2f"><rect x="33" y="36" width="48" height="20" fill="#beadde"/><text x="57" y="46" fill="#000000" font-size="12" text-anchor="middle" dominant-baseline="central">deadbe</text></g><g data-channel="cell" data-cell-index="1" data-cell-row="0" data-cell-col="1" data-surround-bits="0x1e4329" data-edge-color="#ffffff" data-cell-quartile="4"><rect x="93" y="36" width="48" height="20" fill="#fecaef"/><text x="117" y="46" fill="#000000" font-size="12" text-anchor="middle" dominant-baseline="central">efcafe</text><polygon points="93,56 93,46 103,56" fill="#000000"/></g><g data-channel="cell" data-cell-index="2" data-cell-row="0" data-cell-col="2" data-surround-bits="0x4df761" data-edge-color="#ffffff" data-cell-quartile="3"><rect x="153" y="36" width="48" height="20" fill="#12beba"/><text x="177" y="46" fill="#000000" font-size="12" text-anchor="middle" dominant-baseline="central">babe12</text><polygon points="201,56 201,46 191,56" fill="#000000"/></g><g data-channel="cell" data-cell-index="3" data-cell-row="1" data-cell-col="0" data-surround-bits="0x758827" data-edge-color="#ff3f2f"><rect x="33" y="76" width="48" height="20" fill="#785634"/><text x="57" y="86" fill="#ffffff" font-size="12" text-anchor="middle" dominant-baseline="central">345678</text></g><g data-channel="cell" data-cell-index="4" data-cell-row="1" data-cell-col="1" data-surround-bits="0xd8a9e9" data-edge-color="#e7be00"><rect x="93" y="76" width="48" height="20" fill="#cdab90"/><text x="117" y="86" fill="#000000" font-size="12" text-anchor="middle" dominant-baseline="central">90abcd</text></g><g data-channel="cell" data-cell-index="5" data-cell-row="1" data-cell-col="2" data-surround-bits="0xca8664" data-edge-color="#ff3f2f"><rect x="153" y="76" width="48" height="20" fill="#ed0fef"/><text x="177" y="86" fill="#000000" font-size="12" text-anchor="middle" dominant-baseline="central">ef0fed</text></g><g data-channel="cell" data-cell-index="6" data-cell-row="2" data-cell-col="0" data-surround-bits="0x2df580" data-edge-color="#ffffff"><rect x="33" y="116" width="48" height="20" fill="#87a9cb"/><text x="57" y="126" fill="#000000" font-size="12" text-anchor="middle" dominant-baseline="central">cba987</text></g><g data-channel="cell" data-cell-index="7" data-cell-row="2" data-cell-col="1" data-surround-bits="0xf5c420" data-edge-color="#000000"><rect x="93" y="116" width="48" height="20" fill="#214365"/><text x="117" y="126" fill="#ffffff" font-size="12" text-anchor="middle" dominant-baseline="central">654321</text></g><g data-channel="cell" data-cell-index="8" data-cell-row="2" data-cell-col="2" data-cell-blank="true" data-cell-blank-map="true"><rect x="153" y="116" width="48" height="20" rx="10" ry="10" fill="#000000" stroke="#000000" stroke-width="1"/><circle cx="177" cy="118.5" r="3.5" fill="#ffffff" data-blank-map-min="0,1"/><path d="M 172.8,128.5 H 181.2 M 177,124.3 V 132.7" fill="none" stroke="#ffffff" stroke-width="1.925" stroke-linecap="butt" data-blank-map-max="2,1"/></g><g data-channel="cell" data-cell-index="9" data-cell-row="3" data-cell-col="0" data-surround-bits="0x5d0efb" data-edge-color="#000000"><rect x="33" y="156" width="48" height="20" fill="#452301"/><text x="57" y="166" fill="#ffffff" font-size="12" text-anchor="middle" dominant-baseline="central">012345</text></g><g data-channel="cell" data-cell-index="10" data-cell-row="3" data-cell-col="1" data-surround-bits="0x920f7e" data-edge-color="#ff3f2f" data-cell-quartile="1"><rect x="93" y="156" width="48" height="20" fill="#ab8967"/><text x="117" y="166" fill="#000000" font-size="12" text-anchor="middle" dominant-baseline="central">6789ab</text><polygon points="93,156 103,156 93,166" fill="#000000"/></g><g data-channel="cell" data-cell-index="11" data-cell-row="3" data-cell-col="2" data-surround-bits="0xa15403" data-edge-color="#000000" data-cell-quartile="2"><rect x="153" y="156" width="48" height="20" fill="#efefcd"/><text x="177" y="166" fill="#000000" font-size="12" text-anchor="middle" dominant-baseline="central">cdef</text><polygon points="201,156 191,156 201,166" fill="#000000"/></g></g></g><g data-channel="color-bar" data-bar-slots="15" data-bar-marker-left="4" data-bar-marker-right="0"><g data-color-bar-rank="0" data-color-bar-band="R"><rect x="1" y="1" width="20" height="61.573" fill="#ff3f2f"/><text x="11" y="59.933" fill="#000000" font-size="12" text-anchor="middle" data-color-bar-letter="true">r</text></g><g data-color-bar-rank="1" data-color-bar-band="K"><rect x="1" y="62.573" width="20" height="26.715" fill="#000000"/><text x="11" y="86.648" fill="#ffffff" font-size="12" text-anchor="middle" data-color-bar-letter="true">k</text></g><g data-color-bar-rank="2" data-color-bar-band="W"><rect x="1" y="89.288" width="20" height="61.573" fill="#ffffff"/><text x="11" y="148.221" fill="#000000" font-size="12" text-anchor="middle" data-color-bar-letter="true">w</text></g><g data-color-bar-rank="3" data-color-bar-band="G"><rect x="1" y="150.861" width="20" height="40.139" fill="#e7be00"/><text x="11" y="188.36" fill="#000000" font-size="12" text-anchor="middle" data-color-bar-letter="true">g</text></g><circle cx="5.6" cy="58" r="3.4" fill="#ffffff" stroke="#000000" stroke-width="0.75" data-bar-marker="left"/><circle cx="16.4" cy="7.333" r="3.4" fill="#ffffff" stroke="#000000" stroke-width="0.75" data-bar-marker="right"/></g><g data-channel="label-top"><text x="27" y="16" fill="#666666" font-size="12" dominant-baseline="central">hex(64):</text></g><line x1="0" y1="0.5" x2="213" y2="0.5" stroke="#808080" stroke-width="1" shape-rendering="crispEdges"/><line x1="212.5" y1="0" x2="212.5" y2="192" stroke="#808080" stroke-width="1" shape-rendering="crispEdges"/><line x1="0" y1="191.5" x2="213" y2="191.5" stroke="#808080" stroke-width="1" shape-rendering="crispEdges"/><line x1="0.5" y1="0" x2="0.5" y2="192" stroke="#808080" stroke-width="1" shape-rendering="crispEdges"/><line x1="21.5" y1="0" x2="21.5" y2="192" stroke="#808080" stroke-width="1" shape-rendering="crispEdges"/></svg>