<svg width="153" height="272" viewBox="0 0 153 272" xmlns="http://www.w3.org/2000/svg" font-family="&quot;JetBrains Mono&quot;, &quot;Menlo&quot;, &quot;Consolas&quot;, &quot;DejaVu Sans Mono&quot;, &quot;Liberation Mono&quot;, &quot;Roboto Mono&quot;, &quot;Noto Sans Mono&quot;, monospace" data-entviz-version="v11" data-entviz-lib="0.11.0" data-input-bytes="64" data-cols="2" data-rows="6"><defs><clipPath id="grid-clip-8ed0861e43294df7-2x6"><rect x="27" y="26" width="120" height="240"/></clipPath></defs><rect x="0" y="0" width="153" height="272" fill="#ffffff"/><g data-channel="grid"><rect x="27" y="26" width="120" height="240" fill="#2f3fbf"/><g><path fill="#ff3f2f" d="M33 26h6v10h-6zM39 26h6v10h-6zM69 26h6v10h-6zM81 56h6v10h-6zM69 56h6v10h-6zM63 56h6v10h-6zM51 56h6v10h-6zM45 56h6v10h-6zM39 56h6v10h-6zM27 36h6v10h-6z"/><path fill="#ffffff" d="M87 26h6v10h-6zM105 26h6v10h-6zM117 26h6v10h-6zM135 26h6v10h-6zM141 26h6v10h-6zM129 56h6v10h-6zM111 56h6v10h-6zM105 56h6v10h-6zM99 56h6v10h-6zM93 56h6v10h-6z"/><path fill="#ffffff" d="M27 66h6v10h-6zM57 66h6v10h-6zM63 66h6v10h-6zM75 66h6v10h-6zM81 66h6v10h-6zM81 76h6v10h-6zM81 96h6v10h-6zM75 96h6v10h-6zM69 96h6v10h-6zM63 96h6v10h-6zM57 96h6v10h-6zM45 96h6v10h-6zM39 96h6v10h-6zM27 86h6v10h-6z"/><path fill="#ff3f2f" d="M87 66h6v10h-6zM93 66h6v10h-6zM99 66h6v10h-6zM117 66h6v10h-6zM141 86h6v10h-6zM123 96h6v10h-6zM117 96h6v10h-6zM105 96h6v10h-6zM93 96h6v10h-6zM87 96h6v10h-6zM87 86h6v10h-6z"/><path fill="#e7be00" d="M27 106h6v10h-6zM45 106h6v10h-6zM57 106h6v10h-6zM63 106h6v10h-6zM69 106h6v10h-6zM75 106h6v10h-6zM81 126h6v10h-6zM75 136h6v10h-6zM63 136h6v10h-6zM39 136h6v10h-6zM33 136h6v10h-6zM27 126h6v10h-6zM27 116h6v10h-6z"/><path fill="#ff3f2f" d="M99 106h6v10h-6zM117 106h6v10h-6zM123 106h6v10h-6zM141 106h6v10h-6zM141 116h6v10h-6zM123 136h6v10h-6zM111 136h6v10h-6zM99 136h6v10h-6zM87 126h6v10h-6zM87 116h6v10h-6z"/><path fill="#ffffff" d="M69 146h6v10h-6zM75 146h6v10h-6zM81 156h6v10h-6zM81 176h6v10h-6zM75 176h6v10h-6zM69 176h6v10h-6zM63 176h6v10h-6zM57 176h6v10h-6zM45 176h6v10h-6zM39 176h6v10h-6zM27 176h6v10h-6z"/><path fill="#000000" d="M117 146h6v10h-6zM141 156h6v10h-6zM129 176h6v10h-6zM123 176h6v10h-6zM117 176h6v10h-6zM105 176h6v10h-6zM93 176h6v10h-6zM87 176h6v10h-6zM87 166h6v10h-6zM87 156h6v10h-6z"/><path fill="#000000" d="M87 186h6v10h-6zM93 186h6v10h-6zM105 186h6v10h-6zM111 186h6v10h-6zM117 186h6v10h-6zM123 186h6v10h-6zM129 186h6v10h-6zM141 186h6v10h-6zM141 196h6v10h-6zM141 206h6v10h-6zM117 216h6v10h-6zM105 216h6v10h-6zM99 216h6v10h-6zM93 216h6v10h-6zM87 206h6v10h-6z"/><path fill="#ff3f2f" d="M33 226h6v10h-6zM39 226h6v10h-6zM45 226h6v10h-6zM51 226h6v10h-6zM57 226h6v10h-6zM63 226h6v10h-6zM75 226h6v10h-6zM81 226h6v10h-6zM81 236h6v10h-6zM81 246h6v10h-6zM51 256h6v10h-6zM33 256h6v10h-6zM27 236h6v10h-6z"/><path fill="#000000" d="M87 226h6v10h-6zM93 226h6v10h-6zM141 236h6v10h-6zM141 256h6v10h-6zM129 256h6v10h-6zM117 256h6v10h-6zM87 256h6v10h-6zM87 236h6v10h-6z"/></g><g clip-path="url(#grid-clip-8ed0861e43294df7-2x6)" data-channel="ellipse" data-ellipse-anchor-x="147" data-ellipse-anchor-y="186" data-ellipse-rx="92" data-ellipse-ry="44" data-ellipse-rotation-deg="108"><ellipse cx="147" cy="186" rx="92" ry="44" transform="rotate(108 147 186)" fill="#ffffff" stroke="#ffffff" fill-opacity="0.35" stroke-opacity="0.45" stroke-width="2"/></g><g><g data-channel="cell" data-cell-index="0" data-cell-row="0" data-cell-col="0" data-surround-bits="0x8ed086" data-edge-color="#ff3f2f"><rect x="33" y="36" width="48" height="20" fill="#beadde"/><text x="57" y="46" fill="#000000" font-size="12" text-anchor="middle" dominant-baseline="central">deadbe</text></g><g data-channel="cell" data-cell-index="1" data-cell-row="0" data-cell-col="1" data-surround-bits="0x1e4329" data-edge-color="#ffffff" data-cell-quartile="4"><rect x="93" y="36" width="48" height="20" fill="#fecaef"/><text x="117" y="46" fill="#000000" font-size="12" text-anchor="middle" dominant-baseline="central">efcafe</text><polygon points="93,56 93,46 103,56" fill="#000000"/></g><g data-channel="cell" data-cell-index="2" data-cell-row="1" data-cell-col="0" data-surround-bits="0x4df761" data-edge-color="#ffffff" data-cell-quartile="3"><rect x="33" y="76" width="48" height="20" fill="#12beba"/><text x="57" y="86" fill="#000000" font-size="12" text-anchor="middle" dominant-baseline="central">babe12</text><polygon points="81,96 81,86 71,96" fill="#000000"/></g><g data-channel="cell" data-cell-index="3" data-cell-row="1" data-cell-col="1" data-surround-bits="0x758827" data-edge-color="#ff3f2f"><rect x="93" y="76" width="48" height="20" fill="#785634"/><text x="117" y="86" fill="#ffffff" font-size="12" text-anchor="middle" dominant-baseline="central">345678</text></g><g data-channel="cell" data-cell-index="4" data-cell-row="2" data-cell-col="0" data-surround-bits="0xd8a9e9" data-edge-color="#e7be00"><rect x="33" y="116" width="48" height="20" fill="#cdab90"/><text x="57" y="126" fill="#000000" font-size="12" text-anchor="middle" dominant-baseline="central">90abcd</text></g><g data-channel="cell" data-cell-index="5" data-cell-row="2" data-cell-col="1" data-surround-bits="0xca8664" data-edge-color="#ff3f2f"><rect x="93" y="116" width="48" height="20" fill="#ed0fef"/><text x="117" y="126" fill="#000000" font-size="12" text-anchor="middle" dominant-baseline="central">ef0fed</text></g><g data-channel="cell" data-cell-index="6" data-cell-row="3" data-cell-col="0" data-surround-bits="0x2df580" data-edge-color="#ffffff"><rect x="33" y="156" width="48" height="20" fill="#87a9cb"/><text x="57" y="166" fill="#000000" font-size="12" text-anchor="middle" dominant-baseline="central">cba987</text></g><g data-channel="cell" data-cell-index="7" data-cell-row="3" data-cell-col="1" data-surround-bits="0xf5c420" data-edge-color="#000000"><rect x="93" y="156" width="48" height="20" fill="#214365"/><text x="117" y="166" fill="#ffffff" font-size="12" text-anchor="middle" dominant-baseline="central">654321</text></g><g data-channel="cell" data-cell-index="8" data-cell-row="4" data-cell-col="0" data-cell-blank="true" data-cell-blank-map="true"><rect x="33" y="196" width="48" height="20" rx="10" ry="10" fill="#000000" stroke="#000000" stroke-width="1"/><circle cx="69" cy="197.667" r="3.5" fill="#ffffff" data-blank-map-min="0,1"/><path d="M 64.8,207.667 H 73.2 M 69,203.467 V 211.867" fill="none" stroke="#ffffff" stroke-width="1.925" stroke-linecap="butt" data-blank-map-max="3,1"/></g><g data-channel="cell" data-cell-index="9" data-cell-row="4" data-cell-col="1" data-surround-bits="0x5d0efb" data-edge-color="#000000"><rect x="93" y="196" width="48" height="20" fill="#452301"/><text x="117" y="206" fill="#ffffff" font-size="12" text-anchor="middle" dominant-baseline="central">012345</text></g><g data-channel="cell" data-cell-index="10" data-cell-row="5" data-cell-col="0" data-surround-bits="0x920f7e" data-edge-color="#ff3f2f" data-cell-quartile="1"><rect x="33" y="236" width="48" height="20" fill="#ab8967"/><text x="57" y="246" fill="#000000" font-size="12" text-anchor="middle" dominant-baseline="central">6789ab</text><polygon points="33,236 43,236 33,246" fill="#000000"/></g><g data-channel="cell" data-cell-index="11" data-cell-row="5" data-cell-col="1" data-surround-bits="0xa15403" data-edge-color="#000000" data-cell-quartile="2"><rect x="93" y="236" width="48" height="20" fill="#efefcd"/><text x="117" y="246" fill="#000000" font-size="12" text-anchor="middle" dominant-baseline="central">cdef</text><polygon points="141,236 131,236 141,246" fill="#000000"/></g></g></g><g data-channel="color-bar" data-bar-slots="16" data-bar-marker-left="10" data-bar-marker-right="7"><g data-color-bar-rank="0" data-color-bar-band="R"><rect x="1" y="1" width="20" height="87.499" fill="#ff3f2f"/><text x="11" y="85.859" fill="#000000" font-size="12" text-anchor="middle" data-color-bar-letter="true">r</text></g><g data-color-bar-rank="1" data-color-bar-band="K"><rect x="1" y="88.499" width="20" height="37.963" fill="#000000"/><text x="11" y="123.822" fill="#ffffff" font-size="12" text-anchor="middle" data-color-bar-letter="true">k</text></g><g data-color-bar-rank="2" data-color-bar-band="W"><rect x="1" y="126.462" width="20" height="87.499" fill="#ffffff"/><text x="11" y="211.321" fill="#000000" font-size="12" text-anchor="middle" data-color-bar-letter="true">w</text></g><g data-color-bar-rank="3" data-color-bar-band="G"><rect x="1" y="213.961" width="20" height="57.039" fill="#e7be00"/><text x="11" y="268.36" fill="#000000" font-size="12" text-anchor="middle" data-color-bar-letter="true">g</text></g><circle cx="5.6" cy="178.188" r="3.4" fill="#ffffff" stroke="#000000" stroke-width="0.75" data-bar-marker="left"/><circle cx="16.4" cy="127.562" r="3.4" fill="#ffffff" stroke="#000000" stroke-width="0.75" data-bar-marker="right"/></g><g data-channel="label-top"><text x="27" y="16" fill="#666666" font-size="12" dominant-baseline="central">hex(64):</text></g><line x1="0" y1="0.5" x2="153" y2="0.5" stroke="#808080" stroke-width="1" shape-rendering="crispEdges"/><line x1="152.5" y1="0" x2="152.5" y2="272" stroke="#808080" stroke-width="1" shape-rendering="crispEdges"/><line x1="0" y1="271.5" x2="153" y2="271.5" stroke="#808080" stroke-width="1" shape-rendering="crispEdges"/><line x1="0.5" y1="0" x2="0.5" y2="272" stroke="#808080" stroke-width="1" shape-rendering="crispEdges"/><line x1="21.5" y1="0" x2="21.5" y2="272" stroke="#808080" stroke-width="1" shape-rendering="crispEdges"/></svg>