<svg width="153.0" height="272.0" viewBox="0 0 153.0 272.0" xmlns="http://www.w3.org/2000/svg" data-entviz-version="v10" data-entviz-lib="0.10.0" data-input-bytes="64" data-cols="2" data-rows="6"><defs><clipPath id="grid-clip-8ed0861e43294df7-2x6"><rect x="27.0" y="26.0" width="120.0" height="240.0"/></clipPath></defs><rect x="0" y="0" width="153.0" height="272.0" fill="#ffffff"/><g data-channel="grid"><rect x="27.0" y="26.0" width="120.0" height="240.0" fill="#2f3fbf"/><g><rect x="33.0" y="26.0" width="6.0" height="10.0" fill="#ff3f2f"/><rect x="39.0" y="26.0" width="6.0" height="10.0" fill="#ff3f2f"/><rect x="69.0" y="26.0" width="6.0" height="10.0" fill="#ff3f2f"/><rect x="81.0" y="56.0" width="6.0" height="10.0" fill="#ff3f2f"/><rect x="69.0" y="56.0" width="6.0" height="10.0" fill="#ff3f2f"/><rect x="63.0" y="56.0" width="6.0" height="10.0" fill="#ff3f2f"/><rect x="51.0" y="56.0" width="6.0" height="10.0" fill="#ff3f2f"/><rect x="45.0" y="56.0" width="6.0" height="10.0" fill="#ff3f2f"/><rect x="39.0" y="56.0" width="6.0" height="10.0" fill="#ff3f2f"/><rect x="27.0" y="36.0" width="6.0" height="10.0" fill="#ff3f2f"/><rect x="87.0" y="26.0" width="6.0" height="10.0" fill="#ffffff"/><rect x="105.0" y="26.0" width="6.0" height="10.0" fill="#ffffff"/><rect x="117.0" y="26.0" width="6.0" height="10.0" fill="#ffffff"/><rect x="135.0" y="26.0" width="6.0" height="10.0" fill="#ffffff"/><rect x="141.0" y="26.0" width="6.0" height="10.0" fill="#ffffff"/><rect x="129.0" y="56.0" width="6.0" height="10.0" fill="#ffffff"/><rect x="111.0" y="56.0" width="6.0" height="10.0" fill="#ffffff"/><rect x="105.0" y="56.0" width="6.0" height="10.0" fill="#ffffff"/><rect x="99.0" y="56.0" width="6.0" height="10.0" fill="#ffffff"/><rect x="93.0" y="56.0" width="6.0" height="10.0" fill="#ffffff"/><rect x="27.0" y="66.0" width="6.0" height="10.0" fill="#ffffff"/><rect x="57.0" y="66.0" width="6.0" height="10.0" fill="#ffffff"/><rect x="63.0" y="66.0" width="6.0" height="10.0" fill="#ffffff"/><rect x="75.0" y="66.0" width="6.0" height="10.0" fill="#ffffff"/><rect x="81.0" y="66.0" width="6.0" height="10.0" fill="#ffffff"/><rect x="81.0" y="76.0" width="6.0" height="10.0" fill="#ffffff"/><rect x="81.0" y="96.0" width="6.0" height="10.0" fill="#ffffff"/><rect x="75.0" y="96.0" width="6.0" height="10.0" fill="#ffffff"/><rect x="69.0" y="96.0" width="6.0" height="10.0" fill="#ffffff"/><rect x="63.0" y="96.0" width="6.0" height="10.0" fill="#ffffff"/><rect x="57.0" y="96.0" width="6.0" height="10.0" fill="#ffffff"/><rect x="45.0" y="96.0" width="6.0" height="10.0" fill="#ffffff"/><rect x="39.0" y="96.0" width="6.0" height="10.0" fill="#ffffff"/><rect x="27.0" y="86.0" width="6.0" height="10.0" fill="#ffffff"/><rect x="87.0" y="66.0" width="6.0" height="10.0" fill="#ff3f2f"/><rect x="93.0" y="66.0" width="6.0" height="10.0" fill="#ff3f2f"/><rect x="99.0" y="66.0" width="6.0" height="10.0" fill="#ff3f2f"/><rect x="117.0" y="66.0" width="6.0" height="10.0" fill="#ff3f2f"/><rect x="141.0" y="86.0" width="6.0" height="10.0" fill="#ff3f2f"/><rect x="123.0" y="96.0" width="6.0" height="10.0" fill="#ff3f2f"/><rect x="117.0" y="96.0" width="6.0" height="10.0" fill="#ff3f2f"/><rect x="105.0" y="96.0" width="6.0" height="10.0" fill="#ff3f2f"/><rect x="93.0" y="96.0" width="6.0" height="10.0" fill="#ff3f2f"/><rect x="87.0" y="96.0" width="6.0" height="10.0" fill="#ff3f2f"/><rect x="87.0" y="86.0" width="6.0" height="10.0" fill="#ff3f2f"/><rect x="27.0" y="106.0" width="6.0" height="10.0" fill="#e7be00"/><rect x="45.0" y="106.0" width="6.0" height="10.0" fill="#e7be00"/><rect x="57.0" y="106.0" width="6.0" height="10.0" fill="#e7be00"/><rect x="63.0" y="106.0" width="6.0" height="10.0" fill="#e7be00"/><rect x="69.0" y="106.0" width="6.0" height="10.0" fill="#e7be00"/><rect x="75.0" y="106.0" width="6.0" height="10.0" fill="#e7be00"/><rect x="81.0" y="126.0" width="6.0" height="10.0" fill="#e7be00"/><rect x="75.0" y="136.0" width="6.0" height="10.0" fill="#e7be00"/><rect x="63.0" y="136.0" width="6.0" height="10.0" fill="#e7be00"/><rect x="39.0" y="136.0" width="6.0" height="10.0" fill="#e7be00"/><rect x="33.0" y="136.0" width="6.0" height="10.0" fill="#e7be00"/><rect x="27.0" y="126.0" width="6.0" height="10.0" fill="#e7be00"/><rect x="27.0" y="116.0" width="6.0" height="10.0" fill="#e7be00"/><rect x="99.0" y="106.0" width="6.0" height="10.0" fill="#ff3f2f"/><rect x="117.0" y="106.0" width="6.0" height="10.0" fill="#ff3f2f"/><rect x="123.0" y="106.0" width="6.0" height="10.0" fill="#ff3f2f"/><rect x="141.0" y="106.0" width="6.0" height="10.0" fill="#ff3f2f"/><rect x="141.0" y="116.0" width="6.0" height="10.0" fill="#ff3f2f"/><rect x="123.0" y="136.0" width="6.0" height="10.0" fill="#ff3f2f"/><rect x="111.0" y="136.0" width="6.0" height="10.0" fill="#ff3f2f"/><rect x="99.0" y="136.0" width="6.0" height="10.0" fill="#ff3f2f"/><rect x="87.0" y="126.0" width="6.0" height="10.0" fill="#ff3f2f"/><rect x="87.0" y="116.0" width="6.0" height="10.0" fill="#ff3f2f"/><rect x="69.0" y="146.0" width="6.0" height="10.0" fill="#ffffff"/><rect x="75.0" y="146.0" width="6.0" height="10.0" fill="#ffffff"/><rect x="81.0" y="156.0" width="6.0" height="10.0" fill="#ffffff"/><rect x="81.0" y="176.0" width="6.0" height="10.0" fill="#ffffff"/><rect x="75.0" y="176.0" width="6.0" height="10.0" fill="#ffffff"/><rect x="69.0" y="176.0" width="6.0" height="10.0" fill="#ffffff"/><rect x="63.0" y="176.0" width="6.0" height="10.0" fill="#ffffff"/><rect x="57.0" y="176.0" width="6.0" height="10.0" fill="#ffffff"/><rect x="45.0" y="176.0" width="6.0" height="10.0" fill="#ffffff"/><rect x="39.0" y="176.0" width="6.0" height="10.0" fill="#ffffff"/><rect x="27.0" y="176.0" width="6.0" height="10.0" fill="#ffffff"/><rect x="117.0" y="146.0" width="6.0" height="10.0" fill="#000000"/><rect x="141.0" y="156.0" width="6.0" height="10.0" fill="#000000"/><rect x="129.0" y="176.0" width="6.0" height="10.0" fill="#000000"/><rect x="123.0" y="176.0" width="6.0" height="10.0" fill="#000000"/><rect x="117.0" y="176.0" width="6.0" height="10.0" fill="#000000"/><rect x="105.0" y="176.0" width="6.0" height="10.0" fill="#000000"/><rect x="93.0" y="176.0" width="6.0" height="10.0" fill="#000000"/><rect x="87.0" y="176.0" width="6.0" height="10.0" fill="#000000"/><rect x="87.0" y="166.0" width="6.0" height="10.0" fill="#000000"/><rect x="87.0" y="156.0" width="6.0" height="10.0" fill="#000000"/><rect x="87.0" y="186.0" width="6.0" height="10.0" fill="#000000"/><rect x="93.0" y="186.0" width="6.0" height="10.0" fill="#000000"/><rect x="105.0" y="186.0" width="6.0" height="10.0" fill="#000000"/><rect x="111.0" y="186.0" width="6.0" height="10.0" fill="#000000"/><rect x="117.0" y="186.0" width="6.0" height="10.0" fill="#000000"/><rect x="123.0" y="186.0" width="6.0" height="10.0" fill="#000000"/><rect x="129.0" y="186.0" width="6.0" height="10.0" fill="#000000"/><rect x="141.0" y="186.0" width="6.0" height="10.0" fill="#000000"/><rect x="141.0" y="196.0" width="6.0" height="10.0" fill="#000000"/><rect x="141.0" y="206.0" width="6.0" height="10.0" fill="#000000"/><rect x="117.0" y="216.0" width="6.0" height="10.0" fill="#000000"/><rect x="105.0" y="216.0" width="6.0" height="10.0" fill="#000000"/><rect x="99.0" y="216.0" width="6.0" height="10.0" fill="#000000"/><rect x="93.0" y="216.0" width="6.0" height="10.0" fill="#000000"/><rect x="87.0" y="206.0" width="6.0" height="10.0" fill="#000000"/><rect x="33.0" y="226.0" width="6.0" height="10.0" fill="#ff3f2f"/><rect x="39.0" y="226.0" width="6.0" height="10.0" fill="#ff3f2f"/><rect x="45.0" y="226.0" width="6.0" height="10.0" fill="#ff3f2f"/><rect x="51.0" y="226.0" width="6.0" height="10.0" fill="#ff3f2f"/><rect x="57.0" y="226.0" width="6.0" height="10.0" fill="#ff3f2f"/><rect x="63.0" y="226.0" width="6.0" height="10.0" fill="#ff3f2f"/><rect x="75.0" y="226.0" width="6.0" height="10.0" fill="#ff3f2f"/><rect x="81.0" y="226.0" width="6.0" height="10.0" fill="#ff3f2f"/><rect x="81.0" y="236.0" width="6.0" height="10.0" fill="#ff3f2f"/><rect x="81.0" y="246.0" width="6.0" height="10.0" fill="#ff3f2f"/><rect x="51.0" y="256.0" width="6.0" height="10.0" fill="#ff3f2f"/><rect x="33.0" y="256.0" width="6.0" height="10.0" fill="#ff3f2f"/><rect x="27.0" y="236.0" width="6.0" height="10.0" fill="#ff3f2f"/><rect x="87.0" y="226.0" width="6.0" height="10.0" fill="#000000"/><rect x="93.0" y="226.0" width="6.0" height="10.0" fill="#000000"/><rect x="141.0" y="236.0" width="6.0" height="10.0" fill="#000000"/><rect x="141.0" y="256.0" width="6.0" height="10.0" fill="#000000"/><rect x="129.0" y="256.0" width="6.0" height="10.0" fill="#000000"/><rect x="117.0" y="256.0" width="6.0" height="10.0" fill="#000000"/><rect x="87.0" y="256.0" width="6.0" height="10.0" fill="#000000"/><rect x="87.0" y="236.0" width="6.0" height="10.0" fill="#000000"/></g><g clip-path="url(#grid-clip-8ed0861e43294df7-2x6)" data-channel="ellipse" data-ellipse-anchor-x="147.0" data-ellipse-anchor-y="186.0" data-ellipse-rx="91.99999999999999" data-ellipse-ry="44.0" data-ellipse-rotation-deg="108.0"><ellipse cx="147.0" cy="186.0" rx="91.99999999999999" ry="44.0" transform="rotate(108.0 147.0 186.0)" fill="#ffffff" stroke="#ffffff" fill-opacity="0.35" stroke-opacity="0.45" stroke-width="2.0"/></g><g><g data-channel="cell" data-cell-index="0" data-cell-row="0" data-cell-col="0"><rect x="33.0" y="36.0" width="48.0" height="20.0" fill="#beadde"/><text x="57.0" y="46.0" fill="#000000" style="font-family: &quot;JetBrains Mono&quot;, &quot;Menlo&quot;, &quot;Consolas&quot;, &quot;DejaVu Sans Mono&quot;, &quot;Liberation Mono&quot;, &quot;Roboto Mono&quot;, &quot;Noto Sans Mono&quot;, monospace; font-size: 12.0px;" text-anchor="middle" dominant-baseline="central">deadbe</text></g><g data-channel="cell" data-cell-index="1" data-cell-row="0" data-cell-col="1" data-cell-quartile="4"><rect x="93.0" y="36.0" width="48.0" height="20.0" fill="#fecaef"/><text x="117.0" y="46.0" fill="#000000" style="font-family: &quot;JetBrains Mono&quot;, &quot;Menlo&quot;, &quot;Consolas&quot;, &quot;DejaVu Sans Mono&quot;, &quot;Liberation Mono&quot;, &quot;Roboto Mono&quot;, &quot;Noto Sans Mono&quot;, monospace; font-size: 12.0px;" text-anchor="middle" dominant-baseline="central">efcafe</text><polygon points="93.0,56.0 93.0,46.0 103.0,56.0" fill="#000000"/></g><g data-channel="cell" data-cell-index="2" data-cell-row="1" data-cell-col="0" data-cell-quartile="3"><rect x="33.0" y="76.0" width="48.0" height="20.0" fill="#12beba"/><text x="57.0" y="86.0" fill="#000000" style="font-family: &quot;JetBrains Mono&quot;, &quot;Menlo&quot;, &quot;Consolas&quot;, &quot;DejaVu Sans Mono&quot;, &quot;Liberation Mono&quot;, &quot;Roboto Mono&quot;, &quot;Noto Sans Mono&quot;, monospace; font-size: 12.0px;" text-anchor="middle" dominant-baseline="central">babe12</text><polygon points="81.0,96.0 81.0,86.0 71.0,96.0" fill="#000000"/></g><g data-channel="cell" data-cell-index="3" data-cell-row="1" data-cell-col="1"><rect x="93.0" y="76.0" width="48.0" height="20.0" fill="#785634"/><text x="117.0" y="86.0" fill="#ffffff" style="font-family: &quot;JetBrains Mono&quot;, &quot;Menlo&quot;, &quot;Consolas&quot;, &quot;DejaVu Sans Mono&quot;, &quot;Liberation Mono&quot;, &quot;Roboto Mono&quot;, &quot;Noto Sans Mono&quot;, monospace; font-size: 12.0px;" text-anchor="middle" dominant-baseline="central">345678</text></g><g data-channel="cell" data-cell-index="4" data-cell-row="2" data-cell-col="0"><rect x="33.0" y="116.0" width="48.0" height="20.0" fill="#cdab90"/><text x="57.0" y="126.0" fill="#000000" style="font-family: &quot;JetBrains Mono&quot;, &quot;Menlo&quot;, &quot;Consolas&quot;, &quot;DejaVu Sans Mono&quot;, &quot;Liberation Mono&quot;, &quot;Roboto Mono&quot;, &quot;Noto Sans Mono&quot;, monospace; font-size: 12.0px;" text-anchor="middle" dominant-baseline="central">90abcd</text></g><g data-channel="cell" data-cell-index="5" data-cell-row="2" data-cell-col="1"><rect x="93.0" y="116.0" width="48.0" height="20.0" fill="#ed0fef"/><text x="117.0" y="126.0" fill="#000000" style="font-family: &quot;JetBrains Mono&quot;, &quot;Menlo&quot;, &quot;Consolas&quot;, &quot;DejaVu Sans Mono&quot;, &quot;Liberation Mono&quot;, &quot;Roboto Mono&quot;, &quot;Noto Sans Mono&quot;, monospace; font-size: 12.0px;" text-anchor="middle" dominant-baseline="central">ef0fed</text></g><g data-channel="cell" data-cell-index="6" data-cell-row="3" data-cell-col="0"><rect x="33.0" y="156.0" width="48.0" height="20.0" fill="#87a9cb"/><text x="57.0" y="166.0" fill="#000000" style="font-family: &quot;JetBrains Mono&quot;, &quot;Menlo&quot;, &quot;Consolas&quot;, &quot;DejaVu Sans Mono&quot;, &quot;Liberation Mono&quot;, &quot;Roboto Mono&quot;, &quot;Noto Sans Mono&quot;, monospace; font-size: 12.0px;" text-anchor="middle" dominant-baseline="central">cba987</text></g><g data-channel="cell" data-cell-index="7" data-cell-row="3" data-cell-col="1"><rect x="93.0" y="156.0" width="48.0" height="20.0" fill="#214365"/><text x="117.0" y="166.0" fill="#ffffff" style="font-family: &quot;JetBrains Mono&quot;, &quot;Menlo&quot;, &quot;Consolas&quot;, &quot;DejaVu Sans Mono&quot;, &quot;Liberation Mono&quot;, &quot;Roboto Mono&quot;, &quot;Noto Sans Mono&quot;, monospace; font-size: 12.0px;" text-anchor="middle" dominant-baseline="central">654321</text></g><g data-channel="cell" data-cell-index="8" data-cell-row="4" data-cell-col="0" data-cell-blank="true" data-cell-blank-map="true"><rect x="33.0" y="196.0" width="48.0" height="20.0" rx="10.0" ry="10.0" fill="#000000" stroke="#000000" stroke-width="1"/><circle cx="69.0" cy="197.66666666666666" r="3.5" fill="#ffffff" data-blank-map-min="0,1"/><path d="M 64.8,207.66666666666666 H 73.2 M 69.0,203.46666666666667 V 211.86666666666665" fill="none" stroke="#ffffff" stroke-width="1.9250000000000003" stroke-linecap="butt" data-blank-map-max="3,1"/></g><g data-channel="cell" data-cell-index="9" data-cell-row="4" data-cell-col="1"><rect x="93.0" y="196.0" width="48.0" height="20.0" fill="#452301"/><text x="117.0" y="206.0" fill="#ffffff" style="font-family: &quot;JetBrains Mono&quot;, &quot;Menlo&quot;, &quot;Consolas&quot;, &quot;DejaVu Sans Mono&quot;, &quot;Liberation Mono&quot;, &quot;Roboto Mono&quot;, &quot;Noto Sans Mono&quot;, monospace; font-size: 12.0px;" text-anchor="middle" dominant-baseline="central">012345</text></g><g data-channel="cell" data-cell-index="10" data-cell-row="5" data-cell-col="0" data-cell-quartile="1"><rect x="33.0" y="236.0" width="48.0" height="20.0" fill="#ab8967"/><text x="57.0" y="246.0" fill="#000000" style="font-family: &quot;JetBrains Mono&quot;, &quot;Menlo&quot;, &quot;Consolas&quot;, &quot;DejaVu Sans Mono&quot;, &quot;Liberation Mono&quot;, &quot;Roboto Mono&quot;, &quot;Noto Sans Mono&quot;, monospace; font-size: 12.0px;" text-anchor="middle" dominant-baseline="central">6789ab</text><polygon points="33.0,236.0 43.0,236.0 33.0,246.0" fill="#000000"/></g><g data-channel="cell" data-cell-index="11" data-cell-row="5" data-cell-col="1" data-cell-quartile="2"><rect x="93.0" y="236.0" width="48.0" height="20.0" fill="#efefcd"/><text x="117.0" y="246.0" fill="#000000" style="font-family: &quot;JetBrains Mono&quot;, &quot;Menlo&quot;, &quot;Consolas&quot;, &quot;DejaVu Sans Mono&quot;, &quot;Liberation Mono&quot;, &quot;Roboto Mono&quot;, &quot;Noto Sans Mono&quot;, monospace; font-size: 12.0px;" text-anchor="middle" dominant-baseline="central">cdef</text><polygon points="141.0,236.0 131.0,236.0 141.0,246.0" fill="#000000"/></g></g></g><g data-channel="color-bar" data-bar-slots="16" data-bar-marker-left="10" data-bar-marker-right="7"><g data-color-bar-rank="0" data-color-bar-band="R"><rect x="1" y="1" width="20.0" height="87.4989805572298" fill="#ff3f2f"/><text x="11.0" y="85.8589805572298" fill="#000000" style="font-family: &quot;JetBrains Mono&quot;, &quot;Menlo&quot;, &quot;Consolas&quot;, &quot;DejaVu Sans Mono&quot;, &quot;Liberation Mono&quot;, &quot;Roboto Mono&quot;, &quot;Noto Sans Mono&quot;, monospace; font-size: 12.0px;" text-anchor="middle" data-color-bar-letter="true">r</text></g><g data-color-bar-rank="1" data-color-bar-band="K"><rect x="1" y="88.4989805572298" width="20.0" height="37.96284381656384" fill="#000000"/><text x="11.0" y="123.82182437379363" fill="#ffffff" style="font-family: &quot;JetBrains Mono&quot;, &quot;Menlo&quot;, &quot;Consolas&quot;, &quot;DejaVu Sans Mono&quot;, &quot;Liberation Mono&quot;, &quot;Roboto Mono&quot;, &quot;Noto Sans Mono&quot;, monospace; font-size: 12.0px;" text-anchor="middle" data-color-bar-letter="true">k</text></g><g data-color-bar-rank="2" data-color-bar-band="W"><rect x="1" y="126.46182437379363" width="20.0" height="87.4989805572298" fill="#ffffff"/><text x="11.0" y="211.32080493102345" fill="#000000" style="font-family: &quot;JetBrains Mono&quot;, &quot;Menlo&quot;, &quot;Consolas&quot;, &quot;DejaVu Sans Mono&quot;, &quot;Liberation Mono&quot;, &quot;Roboto Mono&quot;, &quot;Noto Sans Mono&quot;, monospace; font-size: 12.0px;" text-anchor="middle" data-color-bar-letter="true">w</text></g><g data-color-bar-rank="3" data-color-bar-band="G"><rect x="1" y="213.96080493102343" width="20.0" height="57.03919506897657" fill="#e7be00"/><text x="11.0" y="268.36" fill="#000000" style="font-family: &quot;JetBrains Mono&quot;, &quot;Menlo&quot;, &quot;Consolas&quot;, &quot;DejaVu Sans Mono&quot;, &quot;Liberation Mono&quot;, &quot;Roboto Mono&quot;, &quot;Noto Sans Mono&quot;, monospace; font-size: 12.0px;" text-anchor="middle" data-color-bar-letter="true">g</text></g><circle cx="5.6000000000000005" cy="178.1875" r="3.4000000000000004" fill="#ffffff" stroke="#000000" stroke-width="0.75" data-bar-marker="left"/><circle cx="16.4" cy="127.5625" r="3.4000000000000004" fill="#ffffff" stroke="#000000" stroke-width="0.75" data-bar-marker="right"/></g><g data-channel="label-top"><text x="27.0" y="16.0" fill="#666666" style="font-family: &quot;JetBrains Mono&quot;, &quot;Menlo&quot;, &quot;Consolas&quot;, &quot;DejaVu Sans Mono&quot;, &quot;Liberation Mono&quot;, &quot;Roboto Mono&quot;, &quot;Noto Sans Mono&quot;, monospace; font-size: 12.0px;" dominant-baseline="central">hex(64):</text></g><line x1="0" y1="0.5" x2="153.0" y2="0.5" stroke="#808080" stroke-width="1" shape-rendering="crispEdges"/><line x1="152.5" y1="0" x2="152.5" y2="272.0" stroke="#808080" stroke-width="1" shape-rendering="crispEdges"/><line x1="0" y1="271.5" x2="153.0" y2="271.5" stroke="#808080" stroke-width="1" shape-rendering="crispEdges"/><line x1="0.5" y1="0" x2="0.5" y2="272.0" stroke="#808080" stroke-width="1" shape-rendering="crispEdges"/><line x1="21.5" y1="0" x2="21.5" y2="272.0" stroke="#808080" stroke-width="1" shape-rendering="crispEdges"/></svg>