<svg width="275" height="154" viewBox="0 0 275 154" xmlns="http://www.w3.org/2000/svg" font-family="&quot;JetBrains Mono&quot;, &quot;Menlo&quot;, &quot;Consolas&quot;, &quot;DejaVu Sans Mono&quot;, &quot;Liberation Mono&quot;, &quot;Roboto Mono&quot;, &quot;Noto Sans Mono&quot;, monospace" data-entviz-version="v15" data-entviz-lib="0.15.2" data-input-bytes="64" data-cols="4" data-rows="3" data-encoding="hex" data-scheme="" data-role="" data-size-basis="decoded" data-entropy-type="hex" data-size-bits="256" data-qualifiers="{}" data-parts="[{&quot;text&quot;:&quot;deadbeefcafebabe1234567890abcdef0fedcba9876543210123456789abcdef&quot;,&quot;bind&quot;:&quot;core&quot;}]"><defs><clipPath id="grid-clip-8ed0861e43294df7-4x3"><rect x="28" y="27" width="240" height="120"/></clipPath></defs><rect x="1" y="1" width="273" height="152" fill="#ffffff"/><g data-channel="grid"><rect x="28" y="27" width="240" height="120" fill="#2f3fbf"/><g><path fill="#ff3f2f" d="M34 27h6v10h-6zM40 27h6v10h-6zM70 27h6v10h-6zM82 57h6v10h-6zM70 57h6v10h-6zM64 57h6v10h-6zM52 57h6v10h-6zM46 57h6v10h-6zM40 57h6v10h-6zM28 37h6v10h-6z"/><path fill="#ffffff" d="M88 27h6v10h-6zM106 27h6v10h-6zM118 27h6v10h-6zM136 27h6v10h-6zM142 27h6v10h-6zM130 57h6v10h-6zM112 57h6v10h-6zM106 57h6v10h-6zM100 57h6v10h-6zM94 57h6v10h-6z"/><path fill="#ffffff" d="M148 27h6v10h-6zM178 27h6v10h-6zM184 27h6v10h-6zM196 27h6v10h-6zM202 27h6v10h-6zM202 37h6v10h-6zM202 57h6v10h-6zM196 57h6v10h-6zM190 57h6v10h-6zM184 57h6v10h-6zM178 57h6v10h-6zM166 57h6v10h-6zM160 57h6v10h-6zM148 47h6v10h-6z"/><path fill="#ff3f2f" d="M208 27h6v10h-6zM214 27h6v10h-6zM220 27h6v10h-6zM238 27h6v10h-6zM262 47h6v10h-6zM244 57h6v10h-6zM238 57h6v10h-6zM226 57h6v10h-6zM214 57h6v10h-6zM208 57h6v10h-6zM208 47h6v10h-6z"/><path fill="#e7be00" d="M28 67h6v10h-6zM46 67h6v10h-6zM58 67h6v10h-6zM64 67h6v10h-6zM70 67h6v10h-6zM76 67h6v10h-6zM82 87h6v10h-6zM76 97h6v10h-6zM64 97h6v10h-6zM40 97h6v10h-6zM34 97h6v10h-6zM28 87h6v10h-6zM28 77h6v10h-6z"/><path fill="#ff3f2f" d="M100 67h6v10h-6zM118 67h6v10h-6zM124 67h6v10h-6zM142 67h6v10h-6zM142 77h6v10h-6zM124 97h6v10h-6zM112 97h6v10h-6zM100 97h6v10h-6zM88 87h6v10h-6zM88 77h6v10h-6z"/><path fill="#ffffff" d="M190 67h6v10h-6zM196 67h6v10h-6zM202 77h6v10h-6zM202 97h6v10h-6zM196 97h6v10h-6zM190 97h6v10h-6zM184 97h6v10h-6zM178 97h6v10h-6zM166 97h6v10h-6zM160 97h6v10h-6zM148 97h6v10h-6z"/><path fill="#000000" d="M238 67h6v10h-6zM262 77h6v10h-6zM250 97h6v10h-6zM244 97h6v10h-6zM238 97h6v10h-6zM226 97h6v10h-6zM214 97h6v10h-6zM208 97h6v10h-6zM208 87h6v10h-6zM208 77h6v10h-6z"/><path fill="#000000" d="M88 107h6v10h-6zM94 107h6v10h-6zM106 107h6v10h-6zM112 107h6v10h-6zM118 107h6v10h-6zM124 107h6v10h-6zM130 107h6v10h-6zM142 107h6v10h-6zM142 117h6v10h-6zM142 127h6v10h-6zM118 137h6v10h-6zM106 137h6v10h-6zM100 137h6v10h-6zM94 137h6v10h-6zM88 127h6v10h-6z"/><path fill="#ff3f2f" d="M154 107h6v10h-6zM160 107h6v10h-6zM166 107h6v10h-6zM172 107h6v10h-6zM178 107h6v10h-6zM184 107h6v10h-6zM196 107h6v10h-6zM202 107h6v10h-6zM202 117h6v10h-6zM202 127h6v10h-6zM172 137h6v10h-6zM154 137h6v10h-6zM148 117h6v10h-6z"/><path fill="#000000" d="M208 107h6v10h-6zM214 107h6v10h-6zM262 117h6v10h-6zM262 137h6v10h-6zM250 137h6v10h-6zM238 137h6v10h-6zM208 137h6v10h-6zM208 117h6v10h-6z"/></g><g clip-path="url(#grid-clip-8ed0861e43294df7-4x3)" data-channel="ellipse" data-ellipse-anchor-x="148" data-ellipse-anchor-y="107" data-ellipse-rx="66.342" data-ellipse-ry="31.729" data-ellipse-rotation-deg="108"><ellipse cx="148" cy="107" rx="66.342" ry="31.729" transform="rotate(108 148 107)" fill="#ffffff" stroke="#ffffff" fill-opacity="0.35" stroke-opacity="0.45" stroke-width="2"/></g><g><g data-channel="cell" data-cell-index="0" data-cell-row="0" data-cell-col="0" data-surround-bits="0x8ed086" data-edge-color="#ff3f2f"><rect x="34" y="37" width="48" height="20" fill="#beadde"/><text x="58" y="47" fill="#000000" font-size="12" text-anchor="middle" dominant-baseline="central">deadbe</text></g><g data-channel="cell" data-cell-index="1" data-cell-row="0" data-cell-col="1" data-surround-bits="0x1e4329" data-edge-color="#ffffff" data-cell-quartile="4"><rect x="94" y="37" width="48" height="20" fill="#fecaef"/><text x="118" y="47" fill="#000000" font-size="12" text-anchor="middle" dominant-baseline="central">efcafe</text><polygon points="94,57 94,47 104,57" fill="#000000"/></g><g data-channel="cell" data-cell-index="2" data-cell-row="0" data-cell-col="2" data-surround-bits="0x4df761" data-edge-color="#ffffff" data-cell-quartile="3"><rect x="154" y="37" width="48" height="20" fill="#12beba"/><text x="178" y="47" fill="#000000" font-size="12" text-anchor="middle" dominant-baseline="central">babe12</text><polygon points="202,57 202,47 192,57" fill="#000000"/></g><g data-channel="cell" data-cell-index="3" data-cell-row="0" data-cell-col="3" data-surround-bits="0x758827" data-edge-color="#ff3f2f"><rect x="214" y="37" width="48" height="20" fill="#785634"/><text x="238" y="47" fill="#ffffff" font-size="12" text-anchor="middle" dominant-baseline="central">345678</text></g><g data-channel="cell" data-cell-index="4" data-cell-row="1" data-cell-col="0" data-surround-bits="0xd8a9e9" data-edge-color="#e7be00"><rect x="34" y="77" width="48" height="20" fill="#cdab90"/><text x="58" y="87" fill="#000000" font-size="12" text-anchor="middle" dominant-baseline="central">90abcd</text></g><g data-channel="cell" data-cell-index="5" data-cell-row="1" data-cell-col="1" data-surround-bits="0xca8664" data-edge-color="#ff3f2f"><rect x="94" y="77" width="48" height="20" fill="#ed0fef"/><text x="118" y="87" fill="#000000" font-size="12" text-anchor="middle" dominant-baseline="central">ef0fed</text></g><g data-channel="cell" data-cell-index="6" data-cell-row="1" data-cell-col="2" data-surround-bits="0x2df580" data-edge-color="#ffffff"><rect x="154" y="77" width="48" height="20" fill="#87a9cb"/><text x="178" y="87" fill="#000000" font-size="12" text-anchor="middle" dominant-baseline="central">cba987</text></g><g data-channel="cell" data-cell-index="7" data-cell-row="1" data-cell-col="3" data-surround-bits="0xf5c420" data-edge-color="#000000"><rect x="214" y="77" width="48" height="20" fill="#214365"/><text x="238" y="87" fill="#ffffff" font-size="12" text-anchor="middle" dominant-baseline="central">654321</text></g><g data-channel="cell" data-cell-index="8" data-cell-row="2" data-cell-col="0" data-cell-blank="true" data-cell-blank-map="true"><rect x="34" y="117" width="48" height="20" rx="10" ry="10" fill="#000000" stroke="#000000" stroke-width="1"/><circle cx="52" cy="120.333" r="3.5" fill="#ffffff" data-blank-map-min="0,1"/><path d="M 71.8,127 H 80.2 M 76,122.8 V 131.2" fill="none" stroke="#ffffff" stroke-width="1.925" stroke-linecap="butt" data-blank-map-max="1,3"/></g><g data-channel="cell" data-cell-index="9" data-cell-row="2" data-cell-col="1" data-surround-bits="0x5d0efb" data-edge-color="#000000"><rect x="94" y="117" width="48" height="20" fill="#452301"/><text x="118" y="127" fill="#ffffff" font-size="12" text-anchor="middle" dominant-baseline="central">012345</text></g><g data-channel="cell" data-cell-index="10" data-cell-row="2" data-cell-col="2" data-surround-bits="0x920f7e" data-edge-color="#ff3f2f" data-cell-quartile="1"><rect x="154" y="117" width="48" height="20" fill="#ab8967"/><text x="178" y="127" fill="#000000" font-size="12" text-anchor="middle" dominant-baseline="central">6789ab</text><polygon points="154,117 164,117 154,127" fill="#000000"/></g><g data-channel="cell" data-cell-index="11" data-cell-row="2" data-cell-col="3" data-surround-bits="0xa15403" data-edge-color="#000000" data-cell-quartile="2"><rect x="214" y="117" width="48" height="20" fill="#efefcd"/><text x="238" y="127" fill="#000000" font-size="12" text-anchor="middle" dominant-baseline="central">cdef</text><polygon points="262,117 252,117 262,127" fill="#000000"/></g></g></g><g data-channel="color-bar" data-bar-slots="12" data-bar-marker-left="10" data-bar-marker-right="3"><g data-color-bar-rank="0" data-color-bar-band="R"><rect x="2" y="2" width="20" height="48.611" fill="#ff3f2f"/><text x="12" y="47.971" fill="#000000" font-size="12" text-anchor="middle" data-color-bar-letter="true">r</text></g><g data-color-bar-rank="1" data-color-bar-band="K"><rect x="2" y="50.611" width="20" height="21.09" fill="#000000"/><text x="12" y="69.061" fill="#ffffff" font-size="12" text-anchor="middle" data-color-bar-letter="true">k</text></g><g data-color-bar-rank="2" data-color-bar-band="W"><rect x="2" y="71.701" width="20" height="48.611" fill="#ffffff"/><text x="12" y="117.672" fill="#000000" font-size="12" text-anchor="middle" data-color-bar-letter="true">w</text></g><g data-color-bar-rank="3" data-color-bar-band="G"><rect x="2" y="120.312" width="20" height="31.688" fill="#e7be00"/><text x="12" y="149.36" fill="#000000" font-size="12" text-anchor="middle" data-color-bar-letter="true">g</text></g><circle cx="6.6" cy="133.25" r="3.4" fill="#ffffff" stroke="#000000" stroke-width="0.75" data-bar-marker="left"/><circle cx="17.4" cy="45.75" r="3.4" fill="#ffffff" stroke="#000000" stroke-width="0.75" data-bar-marker="right"/></g><g data-channel="label-top"><text x="28" y="17" fill="#666666" font-size="12" dominant-baseline="central">hex, 256-bit</text></g><line x1="1" y1="1.5" x2="274" y2="1.5" stroke="#808080" stroke-width="1" shape-rendering="crispEdges"/><line x1="273.5" y1="1" x2="273.5" y2="153" stroke="#808080" stroke-width="1" shape-rendering="crispEdges"/><line x1="1" y1="152.5" x2="274" y2="152.5" stroke="#808080" stroke-width="1" shape-rendering="crispEdges"/><line x1="1.5" y1="1" x2="1.5" y2="153" stroke="#808080" stroke-width="1" shape-rendering="crispEdges"/><line x1="22.5" y1="1" x2="22.5" y2="153" stroke="#808080" stroke-width="1" shape-rendering="crispEdges"/></svg>