<svg width="155" height="274" viewBox="0 0 155 274" xmlns="http://www.w3.org/2000/svg" font-family="&quot;JetBrains Mono&quot;, &quot;Menlo&quot;, &quot;Consolas&quot;, &quot;DejaVu Sans Mono&quot;, &quot;Liberation Mono&quot;, &quot;Roboto Mono&quot;, &quot;Noto Sans Mono&quot;, monospace" data-entviz-version="v15" data-entviz-lib="0.15.2" data-input-bytes="64" data-cols="2" data-rows="6" data-encoding="hex" data-scheme="" data-role="" data-size-basis="decoded" data-entropy-type="hex" data-size-bits="256" data-qualifiers="{}" data-parts="[{&quot;text&quot;:&quot;deadbeefcafebabe1234567890abcdef0fedcba9876543210123456789abcdef&quot;,&quot;bind&quot;:&quot;core&quot;}]"><defs><clipPath id="grid-clip-8ed0861e43294df7-2x6"><rect x="28" y="27" width="120" height="240"/></clipPath></defs><rect x="1" y="1" width="153" height="272" fill="#ffffff"/><g data-channel="grid"><rect x="28" y="27" width="120" height="240" fill="#2f3fbf"/><g><path fill="#ff3f2f" d="M34 27h6v10h-6zM40 27h6v10h-6zM70 27h6v10h-6zM82 57h6v10h-6zM70 57h6v10h-6zM64 57h6v10h-6zM52 57h6v10h-6zM46 57h6v10h-6zM40 57h6v10h-6zM28 37h6v10h-6z"/><path fill="#ffffff" d="M88 27h6v10h-6zM106 27h6v10h-6zM118 27h6v10h-6zM136 27h6v10h-6zM142 27h6v10h-6zM130 57h6v10h-6zM112 57h6v10h-6zM106 57h6v10h-6zM100 57h6v10h-6zM94 57h6v10h-6z"/><path fill="#ffffff" d="M28 67h6v10h-6zM58 67h6v10h-6zM64 67h6v10h-6zM76 67h6v10h-6zM82 67h6v10h-6zM82 77h6v10h-6zM82 97h6v10h-6zM76 97h6v10h-6zM70 97h6v10h-6zM64 97h6v10h-6zM58 97h6v10h-6zM46 97h6v10h-6zM40 97h6v10h-6zM28 87h6v10h-6z"/><path fill="#ff3f2f" d="M88 67h6v10h-6zM94 67h6v10h-6zM100 67h6v10h-6zM118 67h6v10h-6zM142 87h6v10h-6zM124 97h6v10h-6zM118 97h6v10h-6zM106 97h6v10h-6zM94 97h6v10h-6zM88 97h6v10h-6zM88 87h6v10h-6z"/><path fill="#e7be00" d="M28 107h6v10h-6zM46 107h6v10h-6zM58 107h6v10h-6zM64 107h6v10h-6zM70 107h6v10h-6zM76 107h6v10h-6zM82 127h6v10h-6zM76 137h6v10h-6zM64 137h6v10h-6zM40 137h6v10h-6zM34 137h6v10h-6zM28 127h6v10h-6zM28 117h6v10h-6z"/><path fill="#ff3f2f" d="M100 107h6v10h-6zM118 107h6v10h-6zM124 107h6v10h-6zM142 107h6v10h-6zM142 117h6v10h-6zM124 137h6v10h-6zM112 137h6v10h-6zM100 137h6v10h-6zM88 127h6v10h-6zM88 117h6v10h-6z"/><path fill="#ffffff" d="M70 147h6v10h-6zM76 147h6v10h-6zM82 157h6v10h-6zM82 177h6v10h-6zM76 177h6v10h-6zM70 177h6v10h-6zM64 177h6v10h-6zM58 177h6v10h-6zM46 177h6v10h-6zM40 177h6v10h-6zM28 177h6v10h-6z"/><path fill="#000000" d="M118 147h6v10h-6zM142 157h6v10h-6zM130 177h6v10h-6zM124 177h6v10h-6zM118 177h6v10h-6zM106 177h6v10h-6zM94 177h6v10h-6zM88 177h6v10h-6zM88 167h6v10h-6zM88 157h6v10h-6z"/><path fill="#000000" d="M88 187h6v10h-6zM94 187h6v10h-6zM106 187h6v10h-6zM112 187h6v10h-6zM118 187h6v10h-6zM124 187h6v10h-6zM130 187h6v10h-6zM142 187h6v10h-6zM142 197h6v10h-6zM142 207h6v10h-6zM118 217h6v10h-6zM106 217h6v10h-6zM100 217h6v10h-6zM94 217h6v10h-6zM88 207h6v10h-6z"/><path fill="#ff3f2f" d="M34 227h6v10h-6zM40 227h6v10h-6zM46 227h6v10h-6zM52 227h6v10h-6zM58 227h6v10h-6zM64 227h6v10h-6zM76 227h6v10h-6zM82 227h6v10h-6zM82 237h6v10h-6zM82 247h6v10h-6zM52 257h6v10h-6zM34 257h6v10h-6zM28 237h6v10h-6z"/><path fill="#000000" d="M88 227h6v10h-6zM94 227h6v10h-6zM142 237h6v10h-6zM142 257h6v10h-6zM130 257h6v10h-6zM118 257h6v10h-6zM88 257h6v10h-6zM88 237h6v10h-6z"/></g><g clip-path="url(#grid-clip-8ed0861e43294df7-2x6)" data-channel="ellipse" data-ellipse-anchor-x="148" data-ellipse-anchor-y="187" data-ellipse-rx="92" data-ellipse-ry="44" data-ellipse-rotation-deg="108"><ellipse cx="148" cy="187" rx="92" ry="44" transform="rotate(108 148 187)" fill="#ffffff" stroke="#ffffff" fill-opacity="0.35" stroke-opacity="0.45" stroke-width="2"/></g><g><g data-channel="cell" data-cell-index="0" data-cell-row="0" data-cell-col="0" data-surround-bits="0x8ed086" data-edge-color="#ff3f2f"><rect x="34" y="37" width="48" height="20" fill="#beadde"/><text x="58" y="47" fill="#000000" font-size="12" text-anchor="middle" dominant-baseline="central">deadbe</text></g><g data-channel="cell" data-cell-index="1" data-cell-row="0" data-cell-col="1" data-surround-bits="0x1e4329" data-edge-color="#ffffff" data-cell-quartile="4"><rect x="94" y="37" width="48" height="20" fill="#fecaef"/><text x="118" y="47" fill="#000000" font-size="12" text-anchor="middle" dominant-baseline="central">efcafe</text><polygon points="94,57 94,47 104,57" fill="#000000"/></g><g data-channel="cell" data-cell-index="2" data-cell-row="1" data-cell-col="0" data-surround-bits="0x4df761" data-edge-color="#ffffff" data-cell-quartile="3"><rect x="34" y="77" width="48" height="20" fill="#12beba"/><text x="58" y="87" fill="#000000" font-size="12" text-anchor="middle" dominant-baseline="central">babe12</text><polygon points="82,97 82,87 72,97" fill="#000000"/></g><g data-channel="cell" data-cell-index="3" data-cell-row="1" data-cell-col="1" data-surround-bits="0x758827" data-edge-color="#ff3f2f"><rect x="94" y="77" width="48" height="20" fill="#785634"/><text x="118" y="87" fill="#ffffff" font-size="12" text-anchor="middle" dominant-baseline="central">345678</text></g><g data-channel="cell" data-cell-index="4" data-cell-row="2" data-cell-col="0" data-surround-bits="0xd8a9e9" data-edge-color="#e7be00"><rect x="34" y="117" width="48" height="20" fill="#cdab90"/><text x="58" y="127" fill="#000000" font-size="12" text-anchor="middle" dominant-baseline="central">90abcd</text></g><g data-channel="cell" data-cell-index="5" data-cell-row="2" data-cell-col="1" data-surround-bits="0xca8664" data-edge-color="#ff3f2f"><rect x="94" y="117" width="48" height="20" fill="#ed0fef"/><text x="118" y="127" fill="#000000" font-size="12" text-anchor="middle" dominant-baseline="central">ef0fed</text></g><g data-channel="cell" data-cell-index="6" data-cell-row="3" data-cell-col="0" data-surround-bits="0x2df580" data-edge-color="#ffffff"><rect x="34" y="157" width="48" height="20" fill="#87a9cb"/><text x="58" y="167" fill="#000000" font-size="12" text-anchor="middle" dominant-baseline="central">cba987</text></g><g data-channel="cell" data-cell-index="7" data-cell-row="3" data-cell-col="1" data-surround-bits="0xf5c420" data-edge-color="#000000"><rect x="94" y="157" width="48" height="20" fill="#214365"/><text x="118" y="167" fill="#ffffff" font-size="12" text-anchor="middle" dominant-baseline="central">654321</text></g><g data-channel="cell" data-cell-index="8" data-cell-row="4" data-cell-col="0" data-cell-blank="true" data-cell-blank-map="true"><rect x="34" y="197" width="48" height="20" rx="10" ry="10" fill="#000000" stroke="#000000" stroke-width="1"/><circle cx="70" cy="198.667" r="3.5" fill="#ffffff" data-blank-map-min="0,1"/><path d="M 65.8,208.667 H 74.2 M 70,204.467 V 212.867" fill="none" stroke="#ffffff" stroke-width="1.925" stroke-linecap="butt" data-blank-map-max="3,1"/></g><g data-channel="cell" data-cell-index="9" data-cell-row="4" data-cell-col="1" data-surround-bits="0x5d0efb" data-edge-color="#000000"><rect x="94" y="197" width="48" height="20" fill="#452301"/><text x="118" y="207" fill="#ffffff" font-size="12" text-anchor="middle" dominant-baseline="central">012345</text></g><g data-channel="cell" data-cell-index="10" data-cell-row="5" data-cell-col="0" data-surround-bits="0x920f7e" data-edge-color="#ff3f2f" data-cell-quartile="1"><rect x="34" y="237" width="48" height="20" fill="#ab8967"/><text x="58" y="247" fill="#000000" font-size="12" text-anchor="middle" dominant-baseline="central">6789ab</text><polygon points="34,237 44,237 34,247" fill="#000000"/></g><g data-channel="cell" data-cell-index="11" data-cell-row="5" data-cell-col="1" data-surround-bits="0xa15403" data-edge-color="#000000" data-cell-quartile="2"><rect x="94" y="237" width="48" height="20" fill="#efefcd"/><text x="118" y="247" fill="#000000" font-size="12" text-anchor="middle" dominant-baseline="central">cdef</text><polygon points="142,237 132,237 142,247" fill="#000000"/></g></g></g><g data-channel="color-bar" data-bar-slots="16" data-bar-marker-left="10" data-bar-marker-right="7"><g data-color-bar-rank="0" data-color-bar-band="R"><rect x="2" y="2" width="20" height="87.499" fill="#ff3f2f"/><text x="12" y="86.859" fill="#000000" font-size="12" text-anchor="middle" data-color-bar-letter="true">r</text></g><g data-color-bar-rank="1" data-color-bar-band="K"><rect x="2" y="89.499" width="20" height="37.963" fill="#000000"/><text x="12" y="124.822" fill="#ffffff" font-size="12" text-anchor="middle" data-color-bar-letter="true">k</text></g><g data-color-bar-rank="2" data-color-bar-band="W"><rect x="2" y="127.462" width="20" height="87.499" fill="#ffffff"/><text x="12" y="212.321" fill="#000000" font-size="12" text-anchor="middle" data-color-bar-letter="true">w</text></g><g data-color-bar-rank="3" data-color-bar-band="G"><rect x="2" y="214.961" width="20" height="57.039" fill="#e7be00"/><text x="12" y="269.36" fill="#000000" font-size="12" text-anchor="middle" data-color-bar-letter="true">g</text></g><circle cx="6.6" cy="179.188" r="3.4" fill="#ffffff" stroke="#000000" stroke-width="0.75" data-bar-marker="left"/><circle cx="17.4" cy="128.562" r="3.4" fill="#ffffff" stroke="#000000" stroke-width="0.75" data-bar-marker="right"/></g><g data-channel="label-top"><text x="28" y="17" fill="#666666" font-size="12" dominant-baseline="central">hex, 256-bit</text></g><line x1="1" y1="1.5" x2="154" y2="1.5" stroke="#808080" stroke-width="1" shape-rendering="crispEdges"/><line x1="153.5" y1="1" x2="153.5" y2="273" stroke="#808080" stroke-width="1" shape-rendering="crispEdges"/><line x1="1" y1="272.5" x2="154" y2="272.5" stroke="#808080" stroke-width="1" shape-rendering="crispEdges"/><line x1="1.5" y1="1" x2="1.5" y2="273" stroke="#808080" stroke-width="1" shape-rendering="crispEdges"/><line x1="22.5" y1="1" x2="22.5" y2="273" stroke="#808080" stroke-width="1" shape-rendering="crispEdges"/></svg>