<svg width="213" height="212" viewBox="0 0 213 212" xmlns="http://www.w3.org/2000/svg" font-family="&quot;JetBrains Mono&quot;, &quot;Menlo&quot;, &quot;Consolas&quot;, &quot;DejaVu Sans Mono&quot;, &quot;Liberation Mono&quot;, &quot;Roboto Mono&quot;, &quot;Noto Sans Mono&quot;, monospace" data-entviz-version="v10" data-entviz-lib="0.10.0" data-input-bytes="64" data-cols="3" data-rows="4"><defs><clipPath id="grid-clip-95fc460c4ebe155d-3x4"><rect x="27" y="26" width="180" height="160"/></clipPath></defs><rect x="0" y="0" width="213" height="212" fill="#ffffff"/><g data-channel="grid"><rect x="27" y="26" width="180" height="160" fill="#ffffff"/><g><path fill="#2f3fbf" d="M33 26h6v10h-6zM39 26h6v10h-6zM63 26h6v10h-6zM81 36h6v10h-6zM81 46h6v10h-6zM81 56h6v10h-6zM75 56h6v10h-6zM69 56h6v10h-6zM63 56h6v10h-6zM57 56h6v10h-6zM45 56h6v10h-6zM33 56h6v10h-6zM27 36h6v10h-6z"/><path fill="#2f3fbf" d="M93 26h6v10h-6zM99 26h6v10h-6zM105 26h6v10h-6zM111 26h6v10h-6zM117 26h6v10h-6zM129 26h6v10h-6zM141 26h6v10h-6zM141 36h6v10h-6zM141 46h6v10h-6zM129 56h6v10h-6zM105 56h6v10h-6zM99 56h6v10h-6z"/><path fill="#ff3f2f" d="M183 26h6v10h-6zM189 26h6v10h-6zM195 26h6v10h-6zM201 36h6v10h-6zM201 46h6v10h-6zM201 56h6v10h-6zM189 56h6v10h-6zM177 56h6v10h-6zM165 56h6v10h-6zM153 56h6v10h-6z"/><path fill="#2f3fbf" d="M33 66h6v10h-6zM39 66h6v10h-6zM45 66h6v10h-6zM69 66h6v10h-6zM75 66h6v10h-6zM81 86h6v10h-6zM81 96h6v10h-6zM69 96h6v10h-6zM51 96h6v10h-6zM27 86h6v10h-6z"/><path fill="#000000" d="M111 66h6v10h-6zM135 66h6v10h-6zM141 76h6v10h-6zM141 86h6v10h-6zM141 96h6v10h-6zM129 96h6v10h-6zM93 96h6v10h-6z"/><path fill="#000000" d="M147 66h6v10h-6zM165 66h6v10h-6zM177 66h6v10h-6zM183 66h6v10h-6zM195 66h6v10h-6zM201 66h6v10h-6zM201 76h6v10h-6zM189 96h6v10h-6zM177 96h6v10h-6zM165 96h6v10h-6zM147 96h6v10h-6zM147 76h6v10h-6z"/><path fill="#ff3f2f" d="M27 106h6v10h-6zM33 106h6v10h-6zM39 106h6v10h-6zM45 106h6v10h-6zM57 106h6v10h-6zM63 106h6v10h-6zM75 106h6v10h-6zM81 116h6v10h-6zM81 136h6v10h-6zM75 136h6v10h-6zM69 136h6v10h-6zM45 136h6v10h-6zM39 136h6v10h-6zM33 136h6v10h-6zM27 126h6v10h-6zM27 116h6v10h-6z"/><path fill="#e7be00" d="M93 106h6v10h-6zM99 106h6v10h-6zM105 106h6v10h-6zM111 106h6v10h-6zM117 106h6v10h-6zM123 106h6v10h-6zM135 106h6v10h-6zM141 106h6v10h-6zM141 136h6v10h-6zM135 136h6v10h-6zM111 136h6v10h-6zM105 136h6v10h-6zM99 136h6v10h-6zM87 136h6v10h-6zM87 116h6v10h-6z"/><path fill="#2f3fbf" d="M159 106h6v10h-6zM171 106h6v10h-6zM189 106h6v10h-6zM201 106h6v10h-6zM195 136h6v10h-6zM189 136h6v10h-6zM183 136h6v10h-6zM177 136h6v10h-6zM171 136h6v10h-6zM165 136h6v10h-6zM159 136h6v10h-6zM147 136h6v10h-6zM147 116h6v10h-6z"/><path fill="#e7be00" d="M39 146h6v10h-6zM51 146h6v10h-6zM57 146h6v10h-6zM81 156h6v10h-6zM81 166h6v10h-6zM81 176h6v10h-6zM75 176h6v10h-6zM69 176h6v10h-6zM57 176h6v10h-6zM45 176h6v10h-6z"/><path fill="#2f3fbf" d="M159 146h6v10h-6zM171 146h6v10h-6zM177 146h6v10h-6zM183 146h6v10h-6zM195 146h6v10h-6zM195 176h6v10h-6zM189 176h6v10h-6zM183 176h6v10h-6zM177 176h6v10h-6zM165 176h6v10h-6zM159 176h6v10h-6zM153 176h6v10h-6z"/></g><g clip-path="url(#grid-clip-95fc460c4ebe155d-3x4)" data-channel="ellipse" data-ellipse-anchor-x="147" data-ellipse-anchor-y="106" data-ellipse-rx="73.265" data-ellipse-ry="80.187" data-ellipse-rotation-deg="24"><ellipse cx="147" cy="106" rx="73.265" ry="80.187" transform="rotate(24 147 106)" fill="#000000" stroke="#000000" fill-opacity="0.2" stroke-opacity="0.3" stroke-width="2"/></g><g><g data-channel="cell" data-cell-index="0" data-cell-row="0" data-cell-col="0" data-surround-bits="0x95fc46" data-edge-color="#2f3fbf"><rect x="33" y="36" width="48" height="20" fill="#b4262c"/><text x="57" y="46" fill="#ffffff" font-size="12" text-anchor="middle" dominant-baseline="central">2c26b4</text></g><g data-channel="cell" data-cell-index="1" data-cell-row="0" data-cell-col="1" data-surround-bits="0xc4ebe" data-edge-color="#2f3fbf" data-cell-quartile="1"><rect x="93" y="36" width="48" height="20" fill="#ff686b"/><text x="117" y="46" fill="#000000" font-size="12" text-anchor="middle" dominant-baseline="central">6b68ff</text><polygon points="93,36 103,36 93,46" fill="#000000"/></g><g data-channel="cell" data-cell-index="2" data-cell-row="0" data-cell-col="2" data-surround-bits="0x155dc0" data-edge-color="#ff3f2f"><rect x="153" y="36" width="48" height="20" fill="#f98fc6"/><text x="177" y="46" fill="#000000" font-size="12" text-anchor="middle" dominant-baseline="central">c68ff9</text></g><g data-channel="cell" data-cell-index="3" data-cell-row="1" data-cell-col="0" data-surround-bits="0x42598e" data-edge-color="#2f3fbf" data-cell-quartile="3"><rect x="33" y="76" width="48" height="20" fill="#3c459b"/><text x="57" y="86" fill="#ffffff" font-size="12" text-anchor="middle" dominant-baseline="central">9b453c</text><polygon points="81,96 81,86 71,96" fill="#ffffff"/></g><g data-channel="cell" data-cell-index="4" data-cell-row="1" data-cell-col="1" data-surround-bits="0x105d10" data-edge-color="#000000"><rect x="93" y="76" width="48" height="20" fill="#41301d"/><text x="117" y="86" fill="#ffffff" font-size="12" text-anchor="middle" dominant-baseline="central">1d3041</text></g><g data-channel="cell" data-cell-index="5" data-cell-row="1" data-cell-col="2" data-surround-bits="0xa54769" data-edge-color="#000000" data-cell-quartile="4"><rect x="153" y="76" width="48" height="20" fill="#421334"/><text x="177" y="86" fill="#ffffff" font-size="12" text-anchor="middle" dominant-baseline="central">341342</text><polygon points="153,96 153,86 163,96" fill="#ffffff"/></g><g data-channel="cell" data-cell-index="6" data-cell-row="2" data-cell-col="0" data-surround-bits="0xdc756f" data-edge-color="#ff3f2f"><rect x="33" y="116" width="48" height="20" fill="#64702d"/><text x="57" y="126" fill="#ffffff" font-size="12" text-anchor="middle" dominant-baseline="central">2d7064</text></g><g data-channel="cell" data-cell-index="7" data-cell-row="2" data-cell-col="1" data-surround-bits="0xae337e" data-edge-color="#e7be00"><rect x="93" y="116" width="48" height="20" fill="#a0bf83"/><text x="117" y="126" fill="#000000" font-size="12" text-anchor="middle" dominant-baseline="central">83bfa0</text></g><g data-channel="cell" data-cell-index="8" data-cell-row="2" data-cell-col="2" data-surround-bits="0xafe294" data-edge-color="#2f3fbf"><rect x="153" y="116" width="48" height="20" fill="#5e8af9"/><text x="177" y="126" fill="#000000" font-size="12" text-anchor="middle" dominant-baseline="central">f98a5e</text></g><g data-channel="cell" data-cell-index="9" data-cell-row="3" data-cell-col="0" data-surround-bits="0x57c34" data-edge-color="#e7be00" data-cell-quartile="2"><rect x="33" y="156" width="48" height="20" fill="#666288"/><text x="57" y="166" fill="#ffffff" font-size="12" text-anchor="middle" dominant-baseline="central">886266</text><polygon points="81,156 71,156 81,166" fill="#ffffff"/></g><g data-channel="cell" data-cell-index="10" data-cell-row="3" data-cell-col="1" data-cell-blank="true" data-cell-blank-map="true"><rect x="93" y="156" width="48" height="20" rx="10" ry="10" fill="#e7be00" stroke="#000000" stroke-width="1"/><circle cx="101" cy="173.5" r="3.5" fill="#000000" data-blank-map-min="3,0"/><path d="M 96.8,168.5 H 105.2 M 101,164.3 V 172.7" fill="none" stroke="#000000" stroke-width="1.925" stroke-linecap="butt" data-blank-map-max="2,0"/></g><g data-channel="cell" data-cell-index="11" data-cell-row="3" data-cell-col="2" data-surround-bits="0x1de174" data-edge-color="#2f3fbf"><rect x="153" y="156" width="48" height="20" fill="#aeaee7"/><text x="177" y="166" fill="#000000" font-size="12" text-anchor="middle" dominant-baseline="central">e7ae</text></g></g></g><g data-channel="color-bar" data-bar-slots="16" data-bar-marker-left="0" data-bar-marker-right="7"><g data-color-bar-rank="0" data-color-bar-band="R"><rect x="1" y="1" width="20" height="87.352" fill="#ff3f2f"/><text x="11" y="85.712" fill="#000000" font-size="12" text-anchor="middle" data-color-bar-letter="true">r</text></g><g data-color-bar-rank="1" data-color-bar-band="B"><rect x="1" y="88.352" width="20" height="28.648" fill="#2f3fbf"/><text x="11" y="114.361" fill="#ffffff" font-size="12" text-anchor="middle" data-color-bar-letter="true">b</text></g><g data-color-bar-rank="2" data-color-bar-band="G"><rect x="1" y="117.001" width="20" height="58.701" fill="#e7be00"/><text x="11" y="173.062" fill="#000000" font-size="12" text-anchor="middle" data-color-bar-letter="true">g</text></g><g data-color-bar-rank="3" data-color-bar-band="K"><rect x="1" y="175.702" width="20" height="35.298" fill="#000000"/><text x="11" y="208.36" fill="#ffffff" font-size="12" text-anchor="middle" data-color-bar-letter="true">k</text></g><circle cx="5.6" cy="7.562" r="3.4" fill="#ffffff" stroke="#000000" stroke-width="0.75" data-bar-marker="left"/><circle cx="16.4" cy="99.438" r="3.4" fill="#ffffff" stroke="#000000" stroke-width="0.75" data-bar-marker="right"/></g><g data-channel="label-top"><text x="27" y="16" fill="#666666" font-size="12" dominant-baseline="central">hex(64):</text></g><g data-channel="label-bottom"><text x="207" y="196" fill="#666666" font-size="12" text-anchor="end" dominant-baseline="central"><tspan fill="#808080" data-user-note="git">(git)</tspan></text></g><line x1="0" y1="0.5" x2="213" y2="0.5" stroke="#808080" stroke-width="1" shape-rendering="crispEdges"/><line x1="212.5" y1="0" x2="212.5" y2="212" stroke="#808080" stroke-width="1" shape-rendering="crispEdges"/><line x1="0" y1="211.5" x2="213" y2="211.5" stroke="#808080" stroke-width="1" shape-rendering="crispEdges"/><line x1="0.5" y1="0" x2="0.5" y2="212" stroke="#808080" stroke-width="1" shape-rendering="crispEdges"/><line x1="21.5" y1="0" x2="21.5" y2="212" stroke="#808080" stroke-width="1" shape-rendering="crispEdges"/></svg>