<svg width="215" height="214" viewBox="0 0 215 214" xmlns="http://www.w3.org/2000/svg" font-family="&quot;JetBrains Mono&quot;, &quot;Menlo&quot;, &quot;Consolas&quot;, &quot;DejaVu Sans Mono&quot;, &quot;Liberation Mono&quot;, &quot;Roboto Mono&quot;, &quot;Noto Sans Mono&quot;, monospace" data-entviz-version="v15" data-entviz-lib="0.15.2" data-input-bytes="64" data-cols="3" data-rows="4" data-encoding="hex" data-scheme="" data-role="" data-size-basis="decoded" data-entropy-type="hex" data-size-bits="256" data-qualifiers="{}" data-parts="[{&quot;text&quot;:&quot;2c26b46b68ffc68ff99b453c1d30413413422d706483bfa0f98a5e886266e7ae&quot;,&quot;bind&quot;:&quot;core&quot;}]"><defs><clipPath id="grid-clip-95fc460c4ebe155d-3x4"><rect x="28" y="27" width="180" height="160"/></clipPath></defs><rect x="1" y="1" width="213" height="212" fill="#ffffff"/><g data-channel="grid"><rect x="28" y="27" width="180" height="160" fill="#ffffff"/><g><path fill="#2f3fbf" d="M34 27h6v10h-6zM40 27h6v10h-6zM64 27h6v10h-6zM82 37h6v10h-6zM82 47h6v10h-6zM82 57h6v10h-6zM76 57h6v10h-6zM70 57h6v10h-6zM64 57h6v10h-6zM58 57h6v10h-6zM46 57h6v10h-6zM34 57h6v10h-6zM28 37h6v10h-6z"/><path fill="#2f3fbf" d="M94 27h6v10h-6zM100 27h6v10h-6zM106 27h6v10h-6zM112 27h6v10h-6zM118 27h6v10h-6zM130 27h6v10h-6zM142 27h6v10h-6zM142 37h6v10h-6zM142 47h6v10h-6zM130 57h6v10h-6zM106 57h6v10h-6zM100 57h6v10h-6z"/><path fill="#ff3f2f" d="M184 27h6v10h-6zM190 27h6v10h-6zM196 27h6v10h-6zM202 37h6v10h-6zM202 47h6v10h-6zM202 57h6v10h-6zM190 57h6v10h-6zM178 57h6v10h-6zM166 57h6v10h-6zM154 57h6v10h-6z"/><path fill="#2f3fbf" d="M34 67h6v10h-6zM40 67h6v10h-6zM46 67h6v10h-6zM70 67h6v10h-6zM76 67h6v10h-6zM82 87h6v10h-6zM82 97h6v10h-6zM70 97h6v10h-6zM52 97h6v10h-6zM28 87h6v10h-6z"/><path fill="#000000" d="M112 67h6v10h-6zM136 67h6v10h-6zM142 77h6v10h-6zM142 87h6v10h-6zM142 97h6v10h-6zM130 97h6v10h-6zM94 97h6v10h-6z"/><path fill="#000000" d="M148 67h6v10h-6zM166 67h6v10h-6zM178 67h6v10h-6zM184 67h6v10h-6zM196 67h6v10h-6zM202 67h6v10h-6zM202 77h6v10h-6zM190 97h6v10h-6zM178 97h6v10h-6zM166 97h6v10h-6zM148 97h6v10h-6zM148 77h6v10h-6z"/><path fill="#ff3f2f" d="M28 107h6v10h-6zM34 107h6v10h-6zM40 107h6v10h-6zM46 107h6v10h-6zM58 107h6v10h-6zM64 107h6v10h-6zM76 107h6v10h-6zM82 117h6v10h-6zM82 137h6v10h-6zM76 137h6v10h-6zM70 137h6v10h-6zM46 137h6v10h-6zM40 137h6v10h-6zM34 137h6v10h-6zM28 127h6v10h-6zM28 117h6v10h-6z"/><path fill="#e7be00" d="M94 107h6v10h-6zM100 107h6v10h-6zM106 107h6v10h-6zM112 107h6v10h-6zM118 107h6v10h-6zM124 107h6v10h-6zM136 107h6v10h-6zM142 107h6v10h-6zM142 137h6v10h-6zM136 137h6v10h-6zM112 137h6v10h-6zM106 137h6v10h-6zM100 137h6v10h-6zM88 137h6v10h-6zM88 117h6v10h-6z"/><path fill="#2f3fbf" d="M160 107h6v10h-6zM172 107h6v10h-6zM190 107h6v10h-6zM202 107h6v10h-6zM196 137h6v10h-6zM190 137h6v10h-6zM184 137h6v10h-6zM178 137h6v10h-6zM172 137h6v10h-6zM166 137h6v10h-6zM160 137h6v10h-6zM148 137h6v10h-6zM148 117h6v10h-6z"/><path fill="#e7be00" d="M40 147h6v10h-6zM52 147h6v10h-6zM58 147h6v10h-6zM82 157h6v10h-6zM82 167h6v10h-6zM82 177h6v10h-6zM76 177h6v10h-6zM70 177h6v10h-6zM58 177h6v10h-6zM46 177h6v10h-6z"/><path fill="#2f3fbf" d="M160 147h6v10h-6zM172 147h6v10h-6zM178 147h6v10h-6zM184 147h6v10h-6zM196 147h6v10h-6zM196 177h6v10h-6zM190 177h6v10h-6zM184 177h6v10h-6zM178 177h6v10h-6zM166 177h6v10h-6zM160 177h6v10h-6zM154 177h6v10h-6z"/></g><g clip-path="url(#grid-clip-95fc460c4ebe155d-3x4)" data-channel="ellipse" data-ellipse-anchor-x="148" data-ellipse-anchor-y="107" data-ellipse-rx="73.265" data-ellipse-ry="80.187" data-ellipse-rotation-deg="24"><ellipse cx="148" cy="107" rx="73.265" ry="80.187" transform="rotate(24 148 107)" fill="#000000" stroke="#000000" fill-opacity="0.2" stroke-opacity="0.3" stroke-width="2"/></g><g><g data-channel="cell" data-cell-index="0" data-cell-row="0" data-cell-col="0" data-surround-bits="0x95fc46" data-edge-color="#2f3fbf"><rect x="34" y="37" width="48" height="20" fill="#b4262c"/><text x="58" y="47" fill="#ffffff" font-size="12" text-anchor="middle" dominant-baseline="central">2c26b4</text></g><g data-channel="cell" data-cell-index="1" data-cell-row="0" data-cell-col="1" data-surround-bits="0xc4ebe" data-edge-color="#2f3fbf" data-cell-quartile="1"><rect x="94" y="37" width="48" height="20" fill="#ff686b"/><text x="118" y="47" fill="#000000" font-size="12" text-anchor="middle" dominant-baseline="central">6b68ff</text><polygon points="94,37 104,37 94,47" fill="#000000"/></g><g data-channel="cell" data-cell-index="2" data-cell-row="0" data-cell-col="2" data-surround-bits="0x155dc0" data-edge-color="#ff3f2f"><rect x="154" y="37" width="48" height="20" fill="#f98fc6"/><text x="178" y="47" fill="#000000" font-size="12" text-anchor="middle" dominant-baseline="central">c68ff9</text></g><g data-channel="cell" data-cell-index="3" data-cell-row="1" data-cell-col="0" data-surround-bits="0x42598e" data-edge-color="#2f3fbf" data-cell-quartile="3"><rect x="34" y="77" width="48" height="20" fill="#3c459b"/><text x="58" y="87" fill="#ffffff" font-size="12" text-anchor="middle" dominant-baseline="central">9b453c</text><polygon points="82,97 82,87 72,97" fill="#ffffff"/></g><g data-channel="cell" data-cell-index="4" data-cell-row="1" data-cell-col="1" data-surround-bits="0x105d10" data-edge-color="#000000"><rect x="94" y="77" width="48" height="20" fill="#41301d"/><text x="118" y="87" fill="#ffffff" font-size="12" text-anchor="middle" dominant-baseline="central">1d3041</text></g><g data-channel="cell" data-cell-index="5" data-cell-row="1" data-cell-col="2" data-surround-bits="0xa54769" data-edge-color="#000000" data-cell-quartile="4"><rect x="154" y="77" width="48" height="20" fill="#421334"/><text x="178" y="87" fill="#ffffff" font-size="12" text-anchor="middle" dominant-baseline="central">341342</text><polygon points="154,97 154,87 164,97" fill="#ffffff"/></g><g data-channel="cell" data-cell-index="6" data-cell-row="2" data-cell-col="0" data-surround-bits="0xdc756f" data-edge-color="#ff3f2f"><rect x="34" y="117" width="48" height="20" fill="#64702d"/><text x="58" y="127" fill="#ffffff" font-size="12" text-anchor="middle" dominant-baseline="central">2d7064</text></g><g data-channel="cell" data-cell-index="7" data-cell-row="2" data-cell-col="1" data-surround-bits="0xae337e" data-edge-color="#e7be00"><rect x="94" y="117" width="48" height="20" fill="#a0bf83"/><text x="118" y="127" fill="#000000" font-size="12" text-anchor="middle" dominant-baseline="central">83bfa0</text></g><g data-channel="cell" data-cell-index="8" data-cell-row="2" data-cell-col="2" data-surround-bits="0xafe294" data-edge-color="#2f3fbf"><rect x="154" y="117" width="48" height="20" fill="#5e8af9"/><text x="178" y="127" fill="#000000" font-size="12" text-anchor="middle" dominant-baseline="central">f98a5e</text></g><g data-channel="cell" data-cell-index="9" data-cell-row="3" data-cell-col="0" data-surround-bits="0x57c34" data-edge-color="#e7be00" data-cell-quartile="2"><rect x="34" y="157" width="48" height="20" fill="#666288"/><text x="58" y="167" fill="#ffffff" font-size="12" text-anchor="middle" dominant-baseline="central">886266</text><polygon points="82,157 72,157 82,167" fill="#ffffff"/></g><g data-channel="cell" data-cell-index="10" data-cell-row="3" data-cell-col="1" data-cell-blank="true" data-cell-blank-map="true"><rect x="94" y="157" width="48" height="20" rx="10" ry="10" fill="#e7be00" stroke="#000000" stroke-width="1"/><circle cx="102" cy="174.5" r="3.5" fill="#000000" data-blank-map-min="3,0"/><path d="M 97.8,169.5 H 106.2 M 102,165.3 V 173.7" fill="none" stroke="#000000" stroke-width="1.925" stroke-linecap="butt" data-blank-map-max="2,0"/></g><g data-channel="cell" data-cell-index="11" data-cell-row="3" data-cell-col="2" data-surround-bits="0x1de174" data-edge-color="#2f3fbf"><rect x="154" y="157" width="48" height="20" fill="#aeaee7"/><text x="178" y="167" fill="#000000" font-size="12" text-anchor="middle" dominant-baseline="central">e7ae</text></g></g></g><g data-channel="color-bar" data-bar-slots="16" data-bar-marker-left="0" data-bar-marker-right="7"><g data-color-bar-rank="0" data-color-bar-band="R"><rect x="2" y="2" width="20" height="87.352" fill="#ff3f2f"/><text x="12" y="86.712" fill="#000000" font-size="12" text-anchor="middle" data-color-bar-letter="true">r</text></g><g data-color-bar-rank="1" data-color-bar-band="B"><rect x="2" y="89.352" width="20" height="28.648" fill="#2f3fbf"/><text x="12" y="115.361" fill="#ffffff" font-size="12" text-anchor="middle" data-color-bar-letter="true">b</text></g><g data-color-bar-rank="2" data-color-bar-band="G"><rect x="2" y="118.001" width="20" height="58.701" fill="#e7be00"/><text x="12" y="174.062" fill="#000000" font-size="12" text-anchor="middle" data-color-bar-letter="true">g</text></g><g data-color-bar-rank="3" data-color-bar-band="K"><rect x="2" y="176.702" width="20" height="35.298" fill="#000000"/><text x="12" y="209.36" fill="#ffffff" font-size="12" text-anchor="middle" data-color-bar-letter="true">k</text></g><circle cx="6.6" cy="8.562" r="3.4" fill="#ffffff" stroke="#000000" stroke-width="0.75" data-bar-marker="left"/><circle cx="17.4" cy="100.438" r="3.4" fill="#ffffff" stroke="#000000" stroke-width="0.75" data-bar-marker="right"/></g><g data-channel="label-top"><text x="28" y="17" fill="#666666" font-size="12" dominant-baseline="central">hex, 256-bit</text></g><g data-channel="label-bottom"><text x="208" y="197" fill="#666666" font-size="12" text-anchor="end" dominant-baseline="central"><tspan fill="#808080" data-user-note="git">(git)</tspan></text></g><line x1="1" y1="1.5" x2="214" y2="1.5" stroke="#808080" stroke-width="1" shape-rendering="crispEdges"/><line x1="213.5" y1="1" x2="213.5" y2="213" stroke="#808080" stroke-width="1" shape-rendering="crispEdges"/><line x1="1" y1="212.5" x2="214" y2="212.5" stroke="#808080" stroke-width="1" shape-rendering="crispEdges"/><line x1="1.5" y1="1" x2="1.5" y2="213" stroke="#808080" stroke-width="1" shape-rendering="crispEdges"/><line x1="22.5" y1="1" x2="22.5" y2="213" stroke="#808080" stroke-width="1" shape-rendering="crispEdges"/></svg>