<svg width="215" height="194" viewBox="0 0 215 194" xmlns="http://www.w3.org/2000/svg" font-family="&quot;JetBrains Mono&quot;, &quot;Menlo&quot;, &quot;Consolas&quot;, &quot;DejaVu Sans Mono&quot;, &quot;Liberation Mono&quot;, &quot;Roboto Mono&quot;, &quot;Noto Sans Mono&quot;, monospace" data-entviz-version="v15" data-entviz-lib="0.15.2" data-input-bytes="56" data-cols="3" data-rows="4" data-encoding="base64url" data-scheme="did" data-role="identifier" data-size-basis="utf8" data-entropy-type="did" data-size-bits="384" data-qualifiers="{&quot;method&quot;:&quot;key&quot;}" data-parts="[{&quot;text&quot;:&quot;did:key:&quot;,&quot;bind&quot;:&quot;fold&quot;},{&quot;text&quot;:&quot;z6MkhaXgBZDvotDkL5257faiztiGiC2QtKLGpbnnEGta2doK&quot;,&quot;bind&quot;:&quot;core&quot;}]"><defs><clipPath id="grid-clip-914e3d0ed3b14021-3x4"><rect x="28" y="27" width="180" height="160"/></clipPath></defs><rect x="1" y="1" width="213" height="192" fill="#ffffff"/><g data-channel="grid"><rect x="28" y="27" width="180" height="160" fill="#2f3fbf"/><g><path fill="#e7be00" d="M28 27h6v10h-6zM40 27h6v10h-6zM46 27h6v10h-6zM52 27h6v10h-6zM58 27h6v10h-6zM82 27h6v10h-6zM82 37h6v10h-6zM82 47h6v10h-6zM70 57h6v10h-6zM58 57h6v10h-6zM34 57h6v10h-6zM28 37h6v10h-6z"/><path fill="#e7be00" d="M88 27h6v10h-6zM112 27h6v10h-6zM118 27h6v10h-6zM130 27h6v10h-6zM136 27h6v10h-6zM142 27h6v10h-6zM142 57h6v10h-6zM130 57h6v10h-6zM124 57h6v10h-6zM112 57h6v10h-6zM106 57h6v10h-6zM100 57h6v10h-6z"/><path fill="#e7be00" d="M148 27h6v10h-6zM154 27h6v10h-6zM160 27h6v10h-6zM178 27h6v10h-6zM190 27h6v10h-6zM196 27h6v10h-6zM196 57h6v10h-6zM148 47h6v10h-6z"/><path fill="#ffffff" d="M34 67h6v10h-6zM46 67h6v10h-6zM64 67h6v10h-6zM76 67h6v10h-6zM82 97h6v10h-6zM76 97h6v10h-6zM70 97h6v10h-6zM64 97h6v10h-6zM52 97h6v10h-6zM28 87h6v10h-6zM28 77h6v10h-6z"/><path fill="#e7be00" d="M100 67h6v10h-6zM112 67h6v10h-6zM130 67h6v10h-6zM136 67h6v10h-6zM142 67h6v10h-6zM118 97h6v10h-6zM106 97h6v10h-6zM94 97h6v10h-6zM88 77h6v10h-6z"/><path fill="#ffffff" d="M160 67h6v10h-6zM166 67h6v10h-6zM196 67h6v10h-6zM202 67h6v10h-6zM202 97h6v10h-6zM190 97h6v10h-6zM184 97h6v10h-6zM172 97h6v10h-6zM148 77h6v10h-6z"/><path fill="#ffffff" d="M40 107h6v10h-6zM52 107h6v10h-6zM58 107h6v10h-6zM64 107h6v10h-6zM76 107h6v10h-6zM82 117h6v10h-6zM82 127h6v10h-6zM82 137h6v10h-6zM64 137h6v10h-6zM46 137h6v10h-6zM40 137h6v10h-6zM28 137h6v10h-6zM28 127h6v10h-6zM28 117h6v10h-6z"/><path fill="#ff3f2f" d="M88 107h6v10h-6zM112 107h6v10h-6zM118 107h6v10h-6zM124 107h6v10h-6zM136 107h6v10h-6zM142 127h6v10h-6zM142 137h6v10h-6zM100 137h6v10h-6zM88 137h6v10h-6zM88 127h6v10h-6zM88 117h6v10h-6z"/><path fill="#ffffff" d="M148 107h6v10h-6zM154 107h6v10h-6zM184 107h6v10h-6zM202 107h6v10h-6zM202 117h6v10h-6zM202 137h6v10h-6zM196 137h6v10h-6zM190 137h6v10h-6zM184 137h6v10h-6zM178 137h6v10h-6zM172 137h6v10h-6zM166 137h6v10h-6zM160 137h6v10h-6zM148 127h6v10h-6z"/><path fill="#ffffff" d="M34 147h6v10h-6zM40 147h6v10h-6zM52 147h6v10h-6zM58 147h6v10h-6zM70 147h6v10h-6zM82 147h6v10h-6zM82 157h6v10h-6zM82 167h6v10h-6zM82 177h6v10h-6zM70 177h6v10h-6zM58 177h6v10h-6zM46 177h6v10h-6zM40 177h6v10h-6zM28 157h6v10h-6z"/><path fill="#000000" d="M106 147h6v10h-6zM112 147h6v10h-6zM118 147h6v10h-6zM124 147h6v10h-6zM130 147h6v10h-6zM142 157h6v10h-6zM142 167h6v10h-6zM142 177h6v10h-6zM136 177h6v10h-6zM112 177h6v10h-6zM100 177h6v10h-6zM88 177h6v10h-6zM88 167h6v10h-6z"/><path fill="#ffffff" d="M148 147h6v10h-6zM178 147h6v10h-6zM190 147h6v10h-6zM202 157h6v10h-6zM202 177h6v10h-6zM196 177h6v10h-6zM190 177h6v10h-6zM154 177h6v10h-6zM148 177h6v10h-6zM148 167h6v10h-6zM148 157h6v10h-6z"/></g><g clip-path="url(#grid-clip-914e3d0ed3b14021-3x4)" data-channel="ellipse" data-ellipse-anchor-x="88" data-ellipse-anchor-y="67" data-ellipse-rx="90.283" data-ellipse-ry="65.846" data-ellipse-rotation-deg="12"><ellipse cx="88" cy="67" rx="90.283" ry="65.846" transform="rotate(12 88 67)" fill="#ffffff" stroke="#ffffff" fill-opacity="0.35" stroke-opacity="0.45" stroke-width="2"/></g><g><g data-channel="cell" data-cell-index="0" data-cell-row="0" data-cell-col="0" data-surround-bits="0x914e3d" data-edge-color="#e7be00" data-cell-quartile="2"><rect x="34" y="37" width="48" height="20" fill="#24a3cf"/><text x="58" y="47" fill="#000000" font-size="16" text-anchor="middle" dominant-baseline="central">z6Mk</text><polygon points="82,37 72,37 82,47" fill="#000000"/></g><g data-channel="cell" data-cell-index="1" data-cell-row="0" data-cell-col="1" data-surround-bits="0xed3b1" data-edge-color="#e7be00"><rect x="94" y="37" width="48" height="20" fill="#e0a585"/><text x="118" y="47" fill="#000000" font-size="16" text-anchor="middle" dominant-baseline="central">haXg</text></g><g data-channel="cell" data-cell-index="2" data-cell-row="0" data-cell-col="2" data-surround-bits="0x4021a7" data-edge-color="#e7be00" data-cell-quartile="4"><rect x="154" y="37" width="48" height="20" fill="#ef9005"/><text x="178" y="47" fill="#000000" font-size="16" text-anchor="middle" dominant-baseline="central">BZDv</text><polygon points="154,57 154,47 164,57" fill="#000000"/></g><g data-channel="cell" data-cell-index="3" data-cell-row="1" data-cell-col="0" data-surround-bits="0xc2f14a" data-edge-color="#ffffff"><rect x="34" y="77" width="48" height="20" fill="#e4d0a2"/><text x="58" y="87" fill="#000000" font-size="16" text-anchor="middle" dominant-baseline="central">otDk</text></g><g data-channel="cell" data-cell-index="4" data-cell-row="1" data-cell-col="1" data-surround-bits="0x950394" data-edge-color="#e7be00"><rect x="94" y="77" width="48" height="20" fill="#b99d2f"/><text x="118" y="87" fill="#000000" font-size="16" text-anchor="middle" dominant-baseline="central">L525</text></g><g data-channel="cell" data-cell-index="5" data-cell-row="1" data-cell-col="2" data-surround-bits="0x82d30c" data-edge-color="#ffffff" data-cell-quartile="3"><rect x="154" y="77" width="48" height="20" fill="#a2f6ed"/><text x="178" y="87" fill="#000000" font-size="16" text-anchor="middle" dominant-baseline="central">7fai</text><polygon points="202,97 202,87 192,97" fill="#000000"/></g><g data-channel="cell" data-cell-index="6" data-cell-row="2" data-cell-col="0" data-surround-bits="0xec9d74" data-edge-color="#ffffff" data-cell-quartile="1"><rect x="34" y="117" width="48" height="20" fill="#86d8ce"/><text x="58" y="127" fill="#000000" font-size="16" text-anchor="middle" dominant-baseline="central">ztiG</text><polygon points="34,117 44,117 34,127" fill="#000000"/></g><g data-channel="cell" data-cell-index="7" data-cell-row="2" data-cell-col="1" data-surround-bits="0xe81971" data-edge-color="#ff3f2f"><rect x="94" y="117" width="48" height="20" fill="#902d88"/><text x="118" y="127" fill="#ffffff" font-size="16" text-anchor="middle" dominant-baseline="central">iC2Q</text></g><g data-channel="cell" data-cell-index="8" data-cell-row="2" data-cell-col="2" data-surround-bits="0x4ff643" data-edge-color="#ffffff"><rect x="154" y="117" width="48" height="20" fill="#c6a2b4"/><text x="178" y="127" fill="#000000" font-size="16" text-anchor="middle" dominant-baseline="central">tKLG</text></g><g data-channel="cell" data-cell-index="9" data-cell-row="3" data-cell-col="0" data-surround-bits="0x8d5eb6" data-edge-color="#ffffff"><rect x="34" y="157" width="48" height="20" fill="#e7b9a5"/><text x="58" y="167" fill="#000000" font-size="16" text-anchor="middle" dominant-baseline="central">pbnn</text></g><g data-channel="cell" data-cell-index="10" data-cell-row="3" data-cell-col="1" data-surround-bits="0x6a3cf8" data-edge-color="#000000"><rect x="94" y="157" width="48" height="20" fill="#5a6b10"/><text x="118" y="167" fill="#ffffff" font-size="16" text-anchor="middle" dominant-baseline="central">EGta</text></g><g data-channel="cell" data-cell-index="11" data-cell-row="3" data-cell-col="2" data-surround-bits="0xf074a1" data-edge-color="#ffffff"><rect x="154" y="157" width="48" height="20" fill="#0adad9"/><text x="178" y="167" fill="#000000" font-size="16" text-anchor="middle" dominant-baseline="central">2doK</text></g></g></g><g data-channel="color-bar" data-bar-slots="15" data-bar-marker-left="13" data-bar-marker-right="13"><g data-color-bar-rank="0" data-color-bar-band="G"><rect x="2" y="2" width="20" height="86.707" fill="#e7be00"/><text x="12" y="85.187" fill="#000000" font-size="16" text-anchor="middle" data-color-bar-letter="true">g</text></g><g data-color-bar-rank="1" data-color-bar-band="W"><rect x="2" y="88.707" width="20" height="59.222" fill="#ffffff"/><text x="12" y="144.409" fill="#000000" font-size="16" text-anchor="middle" data-color-bar-letter="true">w</text></g><g data-color-bar-rank="2" data-color-bar-band="R"><rect x="2" y="147.929" width="20" height="18.034" fill="#ff3f2f"/><text x="12" y="162.443" fill="#000000" font-size="16" text-anchor="middle" data-color-bar-letter="true">r</text></g><g data-color-bar-rank="3" data-color-bar-band="K"><rect x="2" y="165.963" width="20" height="26.037" fill="#000000"/><text x="12" y="188.48" fill="#ffffff" font-size="16" text-anchor="middle" data-color-bar-letter="true">k</text></g><circle cx="6.6" cy="173" r="3.4" fill="#ffffff" stroke="#000000" stroke-width="0.75" data-bar-marker="left"/><circle cx="17.4" cy="173" r="3.4" fill="#ffffff" stroke="#000000" stroke-width="0.75" data-bar-marker="right"/></g><g data-channel="label-top"><text x="28" y="17" fill="#666666" font-size="12" dominant-baseline="central">did:key</text></g><line x1="1" y1="1.5" x2="214" y2="1.5" stroke="#808080" stroke-width="1" shape-rendering="crispEdges"/><line x1="213.5" y1="1" x2="213.5" y2="193" stroke="#808080" stroke-width="1" shape-rendering="crispEdges"/><line x1="1" y1="192.5" x2="214" y2="192.5" stroke="#808080" stroke-width="1" shape-rendering="crispEdges"/><line x1="1.5" y1="1" x2="1.5" y2="193" stroke="#808080" stroke-width="1" shape-rendering="crispEdges"/><line x1="22.5" y1="1" x2="22.5" y2="193" stroke="#808080" stroke-width="1" shape-rendering="crispEdges"/></svg>