<svg width="275" height="274" viewBox="0 0 275 274" xmlns="http://www.w3.org/2000/svg" font-family="&quot;JetBrains Mono&quot;, &quot;Menlo&quot;, &quot;Consolas&quot;, &quot;DejaVu Sans Mono&quot;, &quot;Liberation Mono&quot;, &quot;Roboto Mono&quot;, &quot;Noto Sans Mono&quot;, monospace" data-entviz-version="v15" data-entviz-lib="0.15.0" data-input-bytes="110" data-cols="4" data-rows="6" data-truncated="true" data-encoding="base64url" data-scheme="did" data-role="identifier" data-size-basis="utf8" data-entropy-type="did" data-size-bits="808" data-qualifiers="{&quot;method&quot;:&quot;peer&quot;}" data-parts="[{&quot;text&quot;:&quot;did:peer:&quot;,&quot;bind&quot;:&quot;fold&quot;},{&quot;text&quot;:&quot;2.Ez6LSt4Jscr227NFyuzKHT85haVE4AFVXm1tDwYeZ5xenxMmW.Vz6MkfvwnoNS6Cto38MEMbqdnypVDN7gS4oAMaHFkjAUse5JE&quot;,&quot;bind&quot;:&quot;core&quot;}]"><defs><clipPath id="grid-clip-aa3c42e5f1424b5b-4x6"><rect x="28" y="27" width="240" height="240"/></clipPath></defs><rect x="1" y="1" width="273" height="272" fill="#ffffff"/><g data-channel="grid"><rect x="28" y="27" width="240" height="240" fill="#2f3fbf"/><g><path fill="#ff3f2f" d="M34 27h6v10h-6zM64 27h6v10h-6zM82 37h6v10h-6zM82 47h6v10h-6zM82 57h6v10h-6zM76 57h6v10h-6zM52 57h6v10h-6zM40 57h6v10h-6zM28 57h6v10h-6zM28 37h6v10h-6z"/><path fill="#ffffff" d="M94 27h6v10h-6zM124 27h6v10h-6zM136 27h6v10h-6zM142 57h6v10h-6zM136 57h6v10h-6zM130 57h6v10h-6zM124 57h6v10h-6zM118 57h6v10h-6zM106 57h6v10h-6zM88 57h6v10h-6zM88 47h6v10h-6zM88 37h6v10h-6z"/><path fill="#ffffff" d="M154 27h6v10h-6zM172 27h6v10h-6zM178 27h6v10h-6zM184 27h6v10h-6zM190 27h6v10h-6zM196 27h6v10h-6zM202 27h6v10h-6zM202 47h6v10h-6zM202 57h6v10h-6zM190 57h6v10h-6zM178 57h6v10h-6zM172 57h6v10h-6zM160 57h6v10h-6zM148 47h6v10h-6z"/><path fill="#ff3f2f" d="M34 67h6v10h-6zM52 67h6v10h-6zM58 67h6v10h-6zM76 97h6v10h-6zM70 97h6v10h-6zM64 97h6v10h-6zM58 97h6v10h-6zM46 97h6v10h-6zM28 87h6v10h-6zM28 77h6v10h-6z"/><path fill="#ff3f2f" d="M88 67h6v10h-6zM94 67h6v10h-6zM100 67h6v10h-6zM106 67h6v10h-6zM118 67h6v10h-6zM142 67h6v10h-6zM142 77h6v10h-6zM136 97h6v10h-6zM124 97h6v10h-6zM112 97h6v10h-6zM106 97h6v10h-6zM88 97h6v10h-6zM88 87h6v10h-6z"/><path fill="#ffffff" d="M160 67h6v10h-6zM172 67h6v10h-6zM178 67h6v10h-6zM184 67h6v10h-6zM190 67h6v10h-6zM196 67h6v10h-6zM202 77h6v10h-6zM202 87h6v10h-6zM184 97h6v10h-6zM172 97h6v10h-6zM166 97h6v10h-6zM154 97h6v10h-6zM148 97h6v10h-6zM148 77h6v10h-6z"/><path fill="#ffffff" d="M208 67h6v10h-6zM238 67h6v10h-6zM244 67h6v10h-6zM250 67h6v10h-6zM256 67h6v10h-6zM256 97h6v10h-6zM250 97h6v10h-6zM244 97h6v10h-6zM238 97h6v10h-6zM226 97h6v10h-6zM214 97h6v10h-6zM208 77h6v10h-6z"/><path fill="#000000" d="M28 107h6v10h-6zM46 107h6v10h-6zM52 107h6v10h-6zM70 107h6v10h-6zM82 107h6v10h-6zM82 117h6v10h-6zM76 137h6v10h-6zM52 137h6v10h-6zM46 137h6v10h-6zM34 137h6v10h-6zM28 137h6v10h-6z"/><path fill="#000000" d="M88 107h6v10h-6zM100 107h6v10h-6zM112 107h6v10h-6zM130 107h6v10h-6zM136 107h6v10h-6zM142 127h6v10h-6zM142 137h6v10h-6zM130 137h6v10h-6zM124 137h6v10h-6zM88 137h6v10h-6zM88 117h6v10h-6z"/><path fill="#ff3f2f" d="M154 107h6v10h-6zM160 107h6v10h-6zM166 107h6v10h-6zM172 107h6v10h-6zM178 107h6v10h-6zM184 107h6v10h-6zM190 107h6v10h-6zM196 107h6v10h-6zM202 107h6v10h-6zM202 127h6v10h-6zM178 137h6v10h-6zM172 137h6v10h-6zM148 137h6v10h-6zM148 127h6v10h-6zM148 117h6v10h-6z"/><path fill="#e7be00" d="M208 107h6v10h-6zM226 107h6v10h-6zM250 107h6v10h-6zM262 117h6v10h-6zM262 127h6v10h-6zM262 137h6v10h-6zM250 137h6v10h-6zM244 137h6v10h-6zM232 137h6v10h-6zM226 137h6v10h-6zM214 137h6v10h-6zM208 137h6v10h-6zM208 127h6v10h-6zM208 117h6v10h-6z"/><path fill="#000000" d="M28 147h6v10h-6zM58 147h6v10h-6zM64 147h6v10h-6zM76 147h6v10h-6zM82 147h6v10h-6zM82 177h6v10h-6zM76 177h6v10h-6zM58 177h6v10h-6zM28 177h6v10h-6z"/><path fill="#ffffff" d="M94 147h6v10h-6zM100 147h6v10h-6zM112 147h6v10h-6zM124 147h6v10h-6zM130 147h6v10h-6zM136 147h6v10h-6zM124 177h6v10h-6zM118 177h6v10h-6zM112 177h6v10h-6zM106 177h6v10h-6zM94 177h6v10h-6z"/><path fill="#e7be00" d="M214 147h6v10h-6zM220 147h6v10h-6zM238 147h6v10h-6zM244 147h6v10h-6zM262 157h6v10h-6zM244 177h6v10h-6zM238 177h6v10h-6zM226 177h6v10h-6zM214 177h6v10h-6zM208 167h6v10h-6zM208 157h6v10h-6z"/><path fill="#ffffff" d="M28 187h6v10h-6zM40 187h6v10h-6zM58 187h6v10h-6zM82 187h6v10h-6zM82 207h6v10h-6zM76 217h6v10h-6zM58 217h6v10h-6zM46 217h6v10h-6zM40 217h6v10h-6zM34 217h6v10h-6zM28 217h6v10h-6z"/><path fill="#e7be00" d="M100 187h6v10h-6zM106 187h6v10h-6zM124 187h6v10h-6zM136 187h6v10h-6zM142 187h6v10h-6zM142 207h6v10h-6zM124 217h6v10h-6zM118 217h6v10h-6zM88 217h6v10h-6zM88 207h6v10h-6z"/><path fill="#ffffff" d="M208 187h6v10h-6zM214 187h6v10h-6zM220 187h6v10h-6zM232 187h6v10h-6zM238 187h6v10h-6zM250 187h6v10h-6zM262 187h6v10h-6zM262 207h6v10h-6zM262 217h6v10h-6zM238 217h6v10h-6zM226 217h6v10h-6zM220 217h6v10h-6zM214 217h6v10h-6zM208 217h6v10h-6z"/><path fill="#ff3f2f" d="M52 227h6v10h-6zM58 227h6v10h-6zM76 227h6v10h-6zM82 227h6v10h-6zM82 237h6v10h-6zM82 257h6v10h-6zM70 257h6v10h-6zM58 257h6v10h-6zM28 257h6v10h-6zM28 247h6v10h-6z"/><path fill="#000000" d="M112 227h6v10h-6zM124 227h6v10h-6zM142 227h6v10h-6zM142 237h6v10h-6zM142 247h6v10h-6zM142 257h6v10h-6zM130 257h6v10h-6zM118 257h6v10h-6zM112 257h6v10h-6zM100 257h6v10h-6zM88 257h6v10h-6zM88 247h6v10h-6zM88 237h6v10h-6z"/><path fill="#e7be00" d="M148 227h6v10h-6zM154 227h6v10h-6zM178 227h6v10h-6zM196 227h6v10h-6zM196 257h6v10h-6zM184 257h6v10h-6zM172 257h6v10h-6zM154 257h6v10h-6zM148 257h6v10h-6z"/></g><g clip-path="url(#grid-clip-aa3c42e5f1424b5b-4x6)" data-channel="ellipse" data-ellipse-anchor-x="88" data-ellipse-anchor-y="147" data-ellipse-rx="73.553" data-ellipse-ry="83.937" data-ellipse-rotation-deg="120"><ellipse cx="88" cy="147" rx="73.553" ry="83.937" transform="rotate(120 88 147)" fill="#ffffff" stroke="#ffffff" fill-opacity="0.35" stroke-opacity="0.45" stroke-width="2"/></g><g><g data-channel="cell" data-cell-index="0" data-cell-row="0" data-cell-col="0" data-surround-bits="0xaa3c42" data-edge-color="#ff3f2f"><rect x="34" y="37" width="48" height="20" fill="#3301d8"/><text x="58" y="47" fill="#ffffff" font-size="16" text-anchor="middle" dominant-baseline="central">2.Ez</text></g><g data-channel="cell" data-cell-index="1" data-cell-row="0" data-cell-col="1" data-surround-bits="0xe5f142" data-edge-color="#ffffff"><rect x="94" y="37" width="48" height="20" fill="#adb4e8"/><text x="118" y="47" fill="#000000" font-size="16" text-anchor="middle" dominant-baseline="central">6LSt</text></g><g data-channel="cell" data-cell-index="2" data-cell-row="0" data-cell-col="2" data-surround-bits="0x4b5bf2" data-edge-color="#ffffff"><rect x="154" y="37" width="48" height="20" fill="#1c9be0"/><text x="178" y="47" fill="#000000" font-size="16" text-anchor="middle" dominant-baseline="central">4Jsc</text></g><g data-channel="cell" data-cell-index="3" data-cell-row="0" data-cell-col="3" data-cell-blank="true" data-cell-blank-map="true"><rect x="214" y="37" width="48" height="20" rx="10" ry="10" fill="#ffffff" stroke="#000000" stroke-width="1"/><circle cx="232" cy="48.667" r="3.5" fill="#1d4ed8" data-blank-map-min="3,1"/><path d="M 251.8,45.333 H 260.2 M 256,41.133 V 49.533" fill="none" stroke="#d62828" stroke-width="1.925" stroke-linecap="butt" data-blank-map-max="2,3"/></g><g data-channel="cell" data-cell-index="4" data-cell-row="1" data-cell-col="0" data-surround-bits="0xc5e032" data-edge-color="#ff3f2f"><rect x="34" y="77" width="48" height="20" fill="#bb6daf"/><text x="58" y="87" fill="#000000" font-size="16" text-anchor="middle" dominant-baseline="central">r227</text></g><g data-channel="cell" data-cell-index="5" data-cell-row="1" data-cell-col="1" data-surround-bits="0x66a62f" data-edge-color="#ff3f2f"><rect x="94" y="77" width="48" height="20" fill="#ae5c34"/><text x="118" y="87" fill="#ffffff" font-size="16" text-anchor="middle" dominant-baseline="central">NFyu</text></g><g data-channel="cell" data-cell-index="6" data-cell-row="1" data-cell-col="2" data-surround-bits="0xb68df4" data-edge-color="#ffffff"><rect x="154" y="77" width="48" height="20" fill="#d3a1cc"/><text x="178" y="87" fill="#000000" font-size="16" text-anchor="middle" dominant-baseline="central">zKHT</text></g><g data-channel="cell" data-cell-index="7" data-cell-row="1" data-cell-col="3" data-surround-bits="0x95e1e1" data-edge-color="#ffffff"><rect x="214" y="77" width="48" height="20" fill="#5a98f3"/><text x="238" y="87" fill="#000000" font-size="16" text-anchor="middle" dominant-baseline="central">85ha</text></g><g data-channel="cell" data-cell-index="8" data-cell-row="2" data-cell-col="0" data-surround-bits="0x362699" data-edge-color="#000000" data-cell-quartile="3"><rect x="34" y="117" width="48" height="20" fill="#004e54"/><text x="58" y="127" fill="#ffffff" font-size="16" text-anchor="middle" dominant-baseline="central">VE4A</text><polygon points="82,137 82,127 72,137" fill="#ffffff"/></g><g data-channel="cell" data-cell-index="9" data-cell-row="2" data-cell-col="1" data-cell-fingerprint="true" data-surround-bits="0xa0d995" data-edge-color="#000000"><rect x="94" y="117" width="48" height="20" fill="#2f3fbf"/><rect x="94.5" y="117.5" width="47" height="19" fill="none" stroke="#ffffff" stroke-width="1"/><text x="118" y="127" fill="#ffffff" font-size="13.333" text-anchor="middle" dominant-baseline="central">5mra2</text></g><g data-channel="cell" data-cell-index="10" data-cell-row="2" data-cell-col="2" data-cell-fingerprint="true" data-surround-bits="0xe30bfe" data-edge-color="#ff3f2f" data-cell-quartile="1"><rect x="154" y="117" width="48" height="20" fill="#2f3fbf"/><rect x="154.5" y="117.5" width="47" height="19" fill="none" stroke="#ffffff" stroke-width="1"/><text x="178" y="127" fill="#ffffff" font-size="13.333" text-anchor="middle" dominant-baseline="central">04w7g</text><polygon points="154,117 164,117 154,127" fill="#000000"/></g><g data-channel="cell" data-cell-index="11" data-cell-row="2" data-cell-col="3" data-cell-fingerprint="true" data-surround-bits="0xf6dc89" data-edge-color="#e7be00" data-cell-quartile="2"><rect x="214" y="117" width="48" height="20" fill="#2f3fbf"/><rect x="214.5" y="117.5" width="47" height="19" fill="none" stroke="#ffffff" stroke-width="1"/><text x="238" y="127" fill="#ffffff" font-size="13.333" text-anchor="middle" dominant-baseline="central">9yb1j</text><polygon points="262,117 252,117 262,127" fill="#ffffff"/></g><g data-channel="cell" data-cell-index="12" data-cell-row="3" data-cell-col="0" data-cell-fingerprint="true" data-surround-bits="0x213361" data-edge-color="#000000"><rect x="34" y="157" width="48" height="20" fill="#2f3fbf"/><rect x="34.5" y="157.5" width="47" height="19" fill="none" stroke="#ffffff" stroke-width="1"/><text x="58" y="167" fill="#ffffff" font-size="13.333" text-anchor="middle" dominant-baseline="central">cdtft</text></g><g data-channel="cell" data-cell-index="13" data-cell-row="3" data-cell-col="1" data-surround-bits="0x1781d6" data-edge-color="#ffffff"><rect x="94" y="157" width="48" height="20" fill="#0cc1f0"/><text x="118" y="167" fill="#000000" font-size="16" text-anchor="middle" dominant-baseline="central">8MEM</text></g><g data-channel="cell" data-cell-index="14" data-cell-row="3" data-cell-col="2" data-cell-blank="true"><rect x="154" y="157" width="48" height="20" rx="10" ry="10" fill="#e7be00" stroke="#000000" stroke-width="1"/></g><g data-channel="cell" data-cell-index="15" data-cell-row="3" data-cell-col="3" data-surround-bits="0xd58466" data-edge-color="#e7be00" data-cell-quartile="4"><rect x="214" y="157" width="48" height="20" fill="#67a76e"/><text x="238" y="167" fill="#000000" font-size="16" text-anchor="middle" dominant-baseline="central">bqdn</text><polygon points="214,177 214,167 224,177" fill="#000000"/></g><g data-channel="cell" data-cell-index="16" data-cell-row="4" data-cell-col="0" data-surround-bits="0x3d2a25" data-edge-color="#ffffff"><rect x="34" y="197" width="48" height="20" fill="#4395ca"/><text x="58" y="207" fill="#000000" font-size="16" text-anchor="middle" dominant-baseline="central">ypVD</text></g><g data-channel="cell" data-cell-index="17" data-cell-row="4" data-cell-col="1" data-surround-bits="0x618b4c" data-edge-color="#e7be00"><rect x="94" y="197" width="48" height="20" fill="#12b837"/><text x="118" y="207" fill="#000000" font-size="16" text-anchor="middle" dominant-baseline="central">N7gS</text></g><g data-channel="cell" data-cell-index="18" data-cell-row="4" data-cell-col="2" data-cell-blank="true"><rect x="154" y="197" width="48" height="20" rx="10" ry="10" fill="#e7be00" stroke="#000000" stroke-width="1"/></g><g data-channel="cell" data-cell-index="19" data-cell-row="4" data-cell-col="3" data-surround-bits="0x3d1ab7" data-edge-color="#ffffff"><rect x="214" y="197" width="48" height="20" fill="#0c80e2"/><text x="238" y="207" fill="#ffffff" font-size="16" text-anchor="middle" dominant-baseline="central">4oAM</text></g><g data-channel="cell" data-cell-index="20" data-cell-row="5" data-cell-col="0" data-surround-bits="0x615730" data-edge-color="#ff3f2f"><rect x="34" y="237" width="48" height="20" fill="#647168"/><text x="58" y="247" fill="#ffffff" font-size="16" text-anchor="middle" dominant-baseline="central">aHFk</text></g><g data-channel="cell" data-cell-index="21" data-cell-row="5" data-cell-col="1" data-surround-bits="0xeb5e50" data-edge-color="#000000"><rect x="94" y="237" width="48" height="20" fill="#2c058c"/><text x="118" y="247" fill="#ffffff" font-size="16" text-anchor="middle" dominant-baseline="central">jAUs</text></g><g data-channel="cell" data-cell-index="22" data-cell-row="5" data-cell-col="2" data-surround-bits="0x32a123" data-edge-color="#e7be00"><rect x="154" y="237" width="48" height="20" fill="#44927b"/><text x="178" y="247" fill="#000000" font-size="16" text-anchor="middle" dominant-baseline="central">e5JE</text></g><g data-channel="cell" data-cell-index="23" data-cell-row="5" data-cell-col="3" data-cell-blank="true"><rect x="214" y="237" width="48" height="20" rx="10" ry="10" fill="#000000" stroke="#000000" stroke-width="1"/></g></g></g><g data-channel="color-bar" data-bar-slots="16" data-bar-marker-left="8" data-bar-marker-right="6"><g data-color-bar-rank="0" data-color-bar-band="R"><rect x="2" y="2" width="20" height="75.059" fill="#ff3f2f"/><text x="12" y="73.539" fill="#000000" font-size="16" text-anchor="middle" data-color-bar-letter="true">r</text></g><g data-color-bar-rank="1" data-color-bar-band="W"><rect x="2" y="77.059" width="20" height="51.573" fill="#ffffff"/><text x="12" y="125.113" fill="#000000" font-size="16" text-anchor="middle" data-color-bar-letter="true">w</text></g><g data-color-bar-rank="2" data-color-bar-band="K"><rect x="2" y="128.633" width="20" height="31.672" fill="#000000"/><text x="12" y="156.785" fill="#ffffff" font-size="16" text-anchor="middle" data-color-bar-letter="true">k</text></g><g data-color-bar-rank="3" data-color-bar-band="G"><rect x="2" y="160.305" width="20" height="111.695" fill="#e7be00"/><text x="12" y="268.48" fill="#000000" font-size="16" text-anchor="middle" data-color-bar-letter="true">g</text></g><circle cx="6.6" cy="145.438" r="3.4" fill="#ffffff" stroke="#000000" stroke-width="0.75" data-bar-marker="left"/><circle cx="17.4" cy="111.688" r="3.4" fill="#ffffff" stroke="#000000" stroke-width="0.75" data-bar-marker="right"/></g><g data-channel="label-top"><text x="28" y="17" fill="#666666" font-size="12" dominant-baseline="central"><tspan fill="#a00000" font-weight="bold">+hash </tspan>did:peer</text></g><line x1="1" y1="1.5" x2="274" y2="1.5" stroke="#808080" stroke-width="1" shape-rendering="crispEdges"/><line x1="273.5" y1="1" x2="273.5" y2="273" stroke="#808080" stroke-width="1" shape-rendering="crispEdges"/><line x1="1" y1="272.5" x2="274" y2="272.5" stroke="#808080" stroke-width="1" shape-rendering="crispEdges"/><line x1="1.5" y1="1" x2="1.5" y2="273" stroke="#808080" stroke-width="1" shape-rendering="crispEdges"/><line x1="22.5" y1="1" x2="22.5" y2="273" stroke="#808080" stroke-width="1" shape-rendering="crispEdges"/></svg>