<svg width="273" height="272" viewBox="0 0 273 272" xmlns="http://www.w3.org/2000/svg" font-family="&quot;JetBrains Mono&quot;, &quot;Menlo&quot;, &quot;Consolas&quot;, &quot;DejaVu Sans Mono&quot;, &quot;Liberation Mono&quot;, &quot;Roboto Mono&quot;, &quot;Noto Sans Mono&quot;, monospace" data-entviz-version="v11" data-entviz-lib="0.10.0" data-input-bytes="110" data-cols="4" data-rows="6" data-truncated="true"><defs><clipPath id="grid-clip-aa3c42e5f1424b5b-4x6"><rect x="27" y="26" width="240" height="240"/></clipPath></defs><rect x="0" y="0" width="273" height="272" fill="#ffffff"/><g data-channel="grid"><rect x="27" y="26" width="240" height="240" fill="#2f3fbf"/><g><path fill="#ff3f2f" d="M33 26h6v10h-6zM63 26h6v10h-6zM81 36h6v10h-6zM81 46h6v10h-6zM81 56h6v10h-6zM75 56h6v10h-6zM51 56h6v10h-6zM39 56h6v10h-6zM27 56h6v10h-6zM27 36h6v10h-6z"/><path fill="#ffffff" d="M93 26h6v10h-6zM123 26h6v10h-6zM135 26h6v10h-6zM141 56h6v10h-6zM135 56h6v10h-6zM129 56h6v10h-6zM123 56h6v10h-6zM117 56h6v10h-6zM105 56h6v10h-6zM87 56h6v10h-6zM87 46h6v10h-6zM87 36h6v10h-6z"/><path fill="#ffffff" d="M153 26h6v10h-6zM171 26h6v10h-6zM177 26h6v10h-6zM183 26h6v10h-6zM189 26h6v10h-6zM195 26h6v10h-6zM201 26h6v10h-6zM201 46h6v10h-6zM201 56h6v10h-6zM189 56h6v10h-6zM177 56h6v10h-6zM171 56h6v10h-6zM159 56h6v10h-6zM147 46h6v10h-6z"/><path fill="#ff3f2f" d="M33 66h6v10h-6zM51 66h6v10h-6zM57 66h6v10h-6zM75 96h6v10h-6zM69 96h6v10h-6zM63 96h6v10h-6zM57 96h6v10h-6zM45 96h6v10h-6zM27 86h6v10h-6zM27 76h6v10h-6z"/><path fill="#ff3f2f" d="M87 66h6v10h-6zM93 66h6v10h-6zM99 66h6v10h-6zM105 66h6v10h-6zM117 66h6v10h-6zM141 66h6v10h-6zM141 76h6v10h-6zM135 96h6v10h-6zM123 96h6v10h-6zM111 96h6v10h-6zM105 96h6v10h-6zM87 96h6v10h-6zM87 86h6v10h-6z"/><path fill="#ffffff" d="M159 66h6v10h-6zM171 66h6v10h-6zM177 66h6v10h-6zM183 66h6v10h-6zM189 66h6v10h-6zM195 66h6v10h-6zM201 76h6v10h-6zM201 86h6v10h-6zM183 96h6v10h-6zM171 96h6v10h-6zM165 96h6v10h-6zM153 96h6v10h-6zM147 96h6v10h-6zM147 76h6v10h-6z"/><path fill="#ffffff" d="M207 66h6v10h-6zM237 66h6v10h-6zM243 66h6v10h-6zM249 66h6v10h-6zM255 66h6v10h-6zM255 96h6v10h-6zM249 96h6v10h-6zM243 96h6v10h-6zM237 96h6v10h-6zM225 96h6v10h-6zM213 96h6v10h-6zM207 76h6v10h-6z"/><path fill="#000000" d="M27 106h6v10h-6zM45 106h6v10h-6zM51 106h6v10h-6zM69 106h6v10h-6zM81 106h6v10h-6zM81 116h6v10h-6zM75 136h6v10h-6zM51 136h6v10h-6zM45 136h6v10h-6zM33 136h6v10h-6zM27 136h6v10h-6z"/><path fill="#000000" d="M87 106h6v10h-6zM99 106h6v10h-6zM111 106h6v10h-6zM129 106h6v10h-6zM135 106h6v10h-6zM141 126h6v10h-6zM141 136h6v10h-6zM129 136h6v10h-6zM123 136h6v10h-6zM87 136h6v10h-6zM87 116h6v10h-6z"/><path fill="#ff3f2f" d="M153 106h6v10h-6zM159 106h6v10h-6zM165 106h6v10h-6zM171 106h6v10h-6zM177 106h6v10h-6zM183 106h6v10h-6zM189 106h6v10h-6zM195 106h6v10h-6zM201 106h6v10h-6zM201 126h6v10h-6zM177 136h6v10h-6zM171 136h6v10h-6zM147 136h6v10h-6zM147 126h6v10h-6zM147 116h6v10h-6z"/><path fill="#e7be00" d="M207 106h6v10h-6zM225 106h6v10h-6zM249 106h6v10h-6zM261 116h6v10h-6zM261 126h6v10h-6zM261 136h6v10h-6zM249 136h6v10h-6zM243 136h6v10h-6zM231 136h6v10h-6zM225 136h6v10h-6zM213 136h6v10h-6zM207 136h6v10h-6zM207 126h6v10h-6zM207 116h6v10h-6z"/><path fill="#000000" d="M27 146h6v10h-6zM57 146h6v10h-6zM63 146h6v10h-6zM75 146h6v10h-6zM81 146h6v10h-6zM81 176h6v10h-6zM75 176h6v10h-6zM57 176h6v10h-6zM27 176h6v10h-6z"/><path fill="#ffffff" d="M93 146h6v10h-6zM99 146h6v10h-6zM111 146h6v10h-6zM123 146h6v10h-6zM129 146h6v10h-6zM135 146h6v10h-6zM123 176h6v10h-6zM117 176h6v10h-6zM111 176h6v10h-6zM105 176h6v10h-6zM93 176h6v10h-6z"/><path fill="#e7be00" d="M213 146h6v10h-6zM219 146h6v10h-6zM237 146h6v10h-6zM243 146h6v10h-6zM261 156h6v10h-6zM243 176h6v10h-6zM237 176h6v10h-6zM225 176h6v10h-6zM213 176h6v10h-6zM207 166h6v10h-6zM207 156h6v10h-6z"/><path fill="#ffffff" d="M27 186h6v10h-6zM39 186h6v10h-6zM57 186h6v10h-6zM81 186h6v10h-6zM81 206h6v10h-6zM75 216h6v10h-6zM57 216h6v10h-6zM45 216h6v10h-6zM39 216h6v10h-6zM33 216h6v10h-6zM27 216h6v10h-6z"/><path fill="#e7be00" d="M99 186h6v10h-6zM105 186h6v10h-6zM123 186h6v10h-6zM135 186h6v10h-6zM141 186h6v10h-6zM141 206h6v10h-6zM123 216h6v10h-6zM117 216h6v10h-6zM87 216h6v10h-6zM87 206h6v10h-6z"/><path fill="#ffffff" d="M207 186h6v10h-6zM213 186h6v10h-6zM219 186h6v10h-6zM231 186h6v10h-6zM237 186h6v10h-6zM249 186h6v10h-6zM261 186h6v10h-6zM261 206h6v10h-6zM261 216h6v10h-6zM237 216h6v10h-6zM225 216h6v10h-6zM219 216h6v10h-6zM213 216h6v10h-6zM207 216h6v10h-6z"/><path fill="#ff3f2f" d="M51 226h6v10h-6zM57 226h6v10h-6zM75 226h6v10h-6zM81 226h6v10h-6zM81 236h6v10h-6zM81 256h6v10h-6zM69 256h6v10h-6zM57 256h6v10h-6zM27 256h6v10h-6zM27 246h6v10h-6z"/><path fill="#000000" d="M111 226h6v10h-6zM123 226h6v10h-6zM141 226h6v10h-6zM141 236h6v10h-6zM141 246h6v10h-6zM141 256h6v10h-6zM129 256h6v10h-6zM117 256h6v10h-6zM111 256h6v10h-6zM99 256h6v10h-6zM87 256h6v10h-6zM87 246h6v10h-6zM87 236h6v10h-6z"/><path fill="#e7be00" d="M147 226h6v10h-6zM153 226h6v10h-6zM177 226h6v10h-6zM195 226h6v10h-6zM195 256h6v10h-6zM183 256h6v10h-6zM171 256h6v10h-6zM153 256h6v10h-6zM147 256h6v10h-6z"/></g><g clip-path="url(#grid-clip-aa3c42e5f1424b5b-4x6)" data-channel="ellipse" data-ellipse-anchor-x="87" data-ellipse-anchor-y="146" data-ellipse-rx="73.553" data-ellipse-ry="83.937" data-ellipse-rotation-deg="120"><ellipse cx="87" cy="146" rx="73.553" ry="83.937" transform="rotate(120 87 146)" fill="#ffffff" stroke="#ffffff" fill-opacity="0.35" stroke-opacity="0.45" stroke-width="2"/></g><g><g data-channel="cell" data-cell-index="0" data-cell-row="0" data-cell-col="0" data-surround-bits="0xaa3c42" data-edge-color="#ff3f2f"><rect x="33" y="36" width="48" height="20" fill="#3301d8"/><text x="57" y="46" fill="#ffffff" font-size="16" text-anchor="middle" dominant-baseline="central">2.Ez</text></g><g data-channel="cell" data-cell-index="1" data-cell-row="0" data-cell-col="1" data-surround-bits="0xe5f142" data-edge-color="#ffffff"><rect x="93" y="36" width="48" height="20" fill="#adb4e8"/><text x="117" y="46" fill="#000000" font-size="16" text-anchor="middle" dominant-baseline="central">6LSt</text></g><g data-channel="cell" data-cell-index="2" data-cell-row="0" data-cell-col="2" data-surround-bits="0x4b5bf2" data-edge-color="#ffffff"><rect x="153" y="36" width="48" height="20" fill="#1c9be0"/><text x="177" y="46" fill="#000000" font-size="16" text-anchor="middle" dominant-baseline="central">4Jsc</text></g><g data-channel="cell" data-cell-index="3" data-cell-row="0" data-cell-col="3" data-cell-blank="true" data-cell-blank-map="true"><rect x="213" y="36" width="48" height="20" rx="10" ry="10" fill="#ffffff" stroke="#000000" stroke-width="1"/><circle cx="231" cy="47.667" r="3.5" fill="#1d4ed8" data-blank-map-min="3,1"/><path d="M 250.8,44.333 H 259.2 M 255,40.133 V 48.533" fill="none" stroke="#d62828" stroke-width="1.925" stroke-linecap="butt" data-blank-map-max="2,3"/></g><g data-channel="cell" data-cell-index="4" data-cell-row="1" data-cell-col="0" data-surround-bits="0xc5e032" data-edge-color="#ff3f2f"><rect x="33" y="76" width="48" height="20" fill="#bb6daf"/><text x="57" y="86" fill="#000000" font-size="16" text-anchor="middle" dominant-baseline="central">r227</text></g><g data-channel="cell" data-cell-index="5" data-cell-row="1" data-cell-col="1" data-surround-bits="0x66a62f" data-edge-color="#ff3f2f"><rect x="93" y="76" width="48" height="20" fill="#ae5c34"/><text x="117" y="86" fill="#ffffff" font-size="16" text-anchor="middle" dominant-baseline="central">NFyu</text></g><g data-channel="cell" data-cell-index="6" data-cell-row="1" data-cell-col="2" data-surround-bits="0xb68df4" data-edge-color="#ffffff"><rect x="153" y="76" width="48" height="20" fill="#d3a1cc"/><text x="177" y="86" fill="#000000" font-size="16" text-anchor="middle" dominant-baseline="central">zKHT</text></g><g data-channel="cell" data-cell-index="7" data-cell-row="1" data-cell-col="3" data-surround-bits="0x95e1e1" data-edge-color="#ffffff"><rect x="213" y="76" width="48" height="20" fill="#5a98f3"/><text x="237" y="86" fill="#000000" font-size="16" text-anchor="middle" dominant-baseline="central">85ha</text></g><g data-channel="cell" data-cell-index="8" data-cell-row="2" data-cell-col="0" data-surround-bits="0x362699" data-edge-color="#000000" data-cell-quartile="3"><rect x="33" y="116" width="48" height="20" fill="#004e54"/><text x="57" y="126" fill="#ffffff" font-size="16" text-anchor="middle" dominant-baseline="central">VE4A</text><polygon points="81,136 81,126 71,136" fill="#ffffff"/></g><g data-channel="cell" data-cell-index="9" data-cell-row="2" data-cell-col="1" data-cell-fingerprint="true" data-surround-bits="0xa0d995" data-edge-color="#000000"><rect x="93" y="116" width="48" height="20" fill="#2f3fbf"/><rect x="93.5" y="116.5" width="47" height="19" fill="none" stroke="#ffffff" stroke-width="1"/><text x="117" y="126" fill="#ffffff" font-size="13.333" text-anchor="middle" dominant-baseline="central">5mra2</text></g><g data-channel="cell" data-cell-index="10" data-cell-row="2" data-cell-col="2" data-cell-fingerprint="true" data-surround-bits="0xe30bfe" data-edge-color="#ff3f2f" data-cell-quartile="1"><rect x="153" y="116" width="48" height="20" fill="#2f3fbf"/><rect x="153.5" y="116.5" width="47" height="19" fill="none" stroke="#ffffff" stroke-width="1"/><text x="177" y="126" fill="#ffffff" font-size="13.333" text-anchor="middle" dominant-baseline="central">04w7g</text><polygon points="153,116 163,116 153,126" fill="#000000"/></g><g data-channel="cell" data-cell-index="11" data-cell-row="2" data-cell-col="3" data-cell-fingerprint="true" data-surround-bits="0xf6dc89" data-edge-color="#e7be00" data-cell-quartile="2"><rect x="213" y="116" width="48" height="20" fill="#2f3fbf"/><rect x="213.5" y="116.5" width="47" height="19" fill="none" stroke="#ffffff" stroke-width="1"/><text x="237" y="126" fill="#ffffff" font-size="13.333" text-anchor="middle" dominant-baseline="central">9yb1j</text><polygon points="261,116 251,116 261,126" fill="#ffffff"/></g><g data-channel="cell" data-cell-index="12" data-cell-row="3" data-cell-col="0" data-cell-fingerprint="true" data-surround-bits="0x213361" data-edge-color="#000000"><rect x="33" y="156" width="48" height="20" fill="#2f3fbf"/><rect x="33.5" y="156.5" width="47" height="19" fill="none" stroke="#ffffff" stroke-width="1"/><text x="57" y="166" fill="#ffffff" font-size="13.333" text-anchor="middle" dominant-baseline="central">cdtft</text></g><g data-channel="cell" data-cell-index="13" data-cell-row="3" data-cell-col="1" data-surround-bits="0x1781d6" data-edge-color="#ffffff"><rect x="93" y="156" width="48" height="20" fill="#0cc1f0"/><text x="117" y="166" fill="#000000" font-size="16" text-anchor="middle" dominant-baseline="central">8MEM</text></g><g data-channel="cell" data-cell-index="14" data-cell-row="3" data-cell-col="2" data-cell-blank="true"><rect x="153" y="156" width="48" height="20" rx="10" ry="10" fill="#e7be00" stroke="#000000" stroke-width="1"/></g><g data-channel="cell" data-cell-index="15" data-cell-row="3" data-cell-col="3" data-surround-bits="0xd58466" data-edge-color="#e7be00" data-cell-quartile="4"><rect x="213" y="156" width="48" height="20" fill="#67a76e"/><text x="237" y="166" fill="#000000" font-size="16" text-anchor="middle" dominant-baseline="central">bqdn</text><polygon points="213,176 213,166 223,176" fill="#000000"/></g><g data-channel="cell" data-cell-index="16" data-cell-row="4" data-cell-col="0" data-surround-bits="0x3d2a25" data-edge-color="#ffffff"><rect x="33" y="196" width="48" height="20" fill="#4395ca"/><text x="57" y="206" fill="#000000" font-size="16" text-anchor="middle" dominant-baseline="central">ypVD</text></g><g data-channel="cell" data-cell-index="17" data-cell-row="4" data-cell-col="1" data-surround-bits="0x618b4c" data-edge-color="#e7be00"><rect x="93" y="196" width="48" height="20" fill="#12b837"/><text x="117" y="206" fill="#000000" font-size="16" text-anchor="middle" dominant-baseline="central">N7gS</text></g><g data-channel="cell" data-cell-index="18" data-cell-row="4" data-cell-col="2" data-cell-blank="true"><rect x="153" y="196" width="48" height="20" rx="10" ry="10" fill="#e7be00" stroke="#000000" stroke-width="1"/></g><g data-channel="cell" data-cell-index="19" data-cell-row="4" data-cell-col="3" data-surround-bits="0x3d1ab7" data-edge-color="#ffffff"><rect x="213" y="196" width="48" height="20" fill="#0c80e2"/><text x="237" y="206" fill="#ffffff" font-size="16" text-anchor="middle" dominant-baseline="central">4oAM</text></g><g data-channel="cell" data-cell-index="20" data-cell-row="5" data-cell-col="0" data-surround-bits="0x615730" data-edge-color="#ff3f2f"><rect x="33" y="236" width="48" height="20" fill="#647168"/><text x="57" y="246" fill="#ffffff" font-size="16" text-anchor="middle" dominant-baseline="central">aHFk</text></g><g data-channel="cell" data-cell-index="21" data-cell-row="5" data-cell-col="1" data-surround-bits="0xeb5e50" data-edge-color="#000000"><rect x="93" y="236" width="48" height="20" fill="#2c058c"/><text x="117" y="246" fill="#ffffff" font-size="16" text-anchor="middle" dominant-baseline="central">jAUs</text></g><g data-channel="cell" data-cell-index="22" data-cell-row="5" data-cell-col="2" data-surround-bits="0x32a123" data-edge-color="#e7be00"><rect x="153" y="236" width="48" height="20" fill="#44927b"/><text x="177" y="246" fill="#000000" font-size="16" text-anchor="middle" dominant-baseline="central">e5JE</text></g><g data-channel="cell" data-cell-index="23" data-cell-row="5" data-cell-col="3" data-cell-blank="true"><rect x="213" y="236" width="48" height="20" rx="10" ry="10" fill="#000000" stroke="#000000" stroke-width="1"/></g></g></g><g data-channel="color-bar" data-bar-slots="16" data-bar-marker-left="8" data-bar-marker-right="6"><g data-color-bar-rank="0" data-color-bar-band="R"><rect x="1" y="1" width="20" height="75.059" fill="#ff3f2f"/><text x="11" y="72.539" fill="#000000" font-size="16" text-anchor="middle" data-color-bar-letter="true">r</text></g><g data-color-bar-rank="1" data-color-bar-band="W"><rect x="1" y="76.059" width="20" height="51.573" fill="#ffffff"/><text x="11" y="124.113" fill="#000000" font-size="16" text-anchor="middle" data-color-bar-letter="true">w</text></g><g data-color-bar-rank="2" data-color-bar-band="K"><rect x="1" y="127.633" width="20" height="31.672" fill="#000000"/><text x="11" y="155.785" fill="#ffffff" font-size="16" text-anchor="middle" data-color-bar-letter="true">k</text></g><g data-color-bar-rank="3" data-color-bar-band="G"><rect x="1" y="159.305" width="20" height="111.695" fill="#e7be00"/><text x="11" y="267.48" fill="#000000" font-size="16" text-anchor="middle" data-color-bar-letter="true">g</text></g><circle cx="5.6" cy="144.438" r="3.4" fill="#ffffff" stroke="#000000" stroke-width="0.75" data-bar-marker="left"/><circle cx="16.4" cy="110.688" r="3.4" fill="#ffffff" stroke="#000000" stroke-width="0.75" data-bar-marker="right"/></g><g data-channel="label-top"><text x="27" y="16" fill="#666666" font-size="12" dominant-baseline="central"><tspan fill="#a00000" font-weight="bold">fingerprint of </tspan>did:peer:...</text></g><line x1="0" y1="0.5" x2="273" y2="0.5" stroke="#808080" stroke-width="1" shape-rendering="crispEdges"/><line x1="272.5" y1="0" x2="272.5" y2="272" stroke="#808080" stroke-width="1" shape-rendering="crispEdges"/><line x1="0" y1="271.5" x2="273" y2="271.5" stroke="#808080" stroke-width="1" shape-rendering="crispEdges"/><line x1="0.5" y1="0" x2="0.5" y2="272" stroke="#808080" stroke-width="1" shape-rendering="crispEdges"/><line x1="21.5" y1="0" x2="21.5" y2="272" stroke="#808080" stroke-width="1" shape-rendering="crispEdges"/></svg>