<svg width="215" height="154" viewBox="0 0 215 154" xmlns="http://www.w3.org/2000/svg" font-family="&quot;JetBrains Mono&quot;, &quot;Menlo&quot;, &quot;Consolas&quot;, &quot;DejaVu Sans Mono&quot;, &quot;Liberation Mono&quot;, &quot;Roboto Mono&quot;, &quot;Noto Sans Mono&quot;, monospace" data-entviz-version="v15" data-entviz-lib="0.15.2" data-input-bytes="36" data-cols="3" data-rows="3" data-encoding="base64url" data-scheme="did" data-role="identifier" data-size-basis="utf8" data-entropy-type="did" data-size-bits="224" data-qualifiers="{&quot;method&quot;:&quot;web&quot;}" data-parts="[{&quot;text&quot;:&quot;did:web:&quot;,&quot;bind&quot;:&quot;fold&quot;},{&quot;text&quot;:&quot;w3c-ccg.github.io:user:alice&quot;,&quot;bind&quot;:&quot;core&quot;}]"><defs><clipPath id="grid-clip-bf1e571ad78e05e4-3x3"><rect x="28" y="27" width="180" height="120"/></clipPath></defs><rect x="1" y="1" width="213" height="152" fill="#ffffff"/><g data-channel="grid"><rect x="28" y="27" width="180" height="120" fill="#ffffff"/><g><path fill="#000000" d="M28 27h6v10h-6zM34 27h6v10h-6zM40 27h6v10h-6zM52 27h6v10h-6zM64 27h6v10h-6zM82 27h6v10h-6zM82 37h6v10h-6zM82 47h6v10h-6zM82 57h6v10h-6zM58 57h6v10h-6zM52 57h6v10h-6zM46 57h6v10h-6zM40 57h6v10h-6zM34 57h6v10h-6zM28 57h6v10h-6zM28 37h6v10h-6z"/><path fill="#2f3fbf" d="M94 27h6v10h-6zM100 27h6v10h-6zM106 27h6v10h-6zM130 27h6v10h-6zM136 27h6v10h-6zM142 27h6v10h-6zM142 37h6v10h-6zM142 57h6v10h-6zM130 57h6v10h-6zM124 57h6v10h-6zM112 57h6v10h-6zM100 57h6v10h-6zM94 57h6v10h-6z"/><path fill="#2f3fbf" d="M148 27h6v10h-6zM154 27h6v10h-6zM160 27h6v10h-6zM166 27h6v10h-6zM172 27h6v10h-6zM178 27h6v10h-6zM184 27h6v10h-6zM202 37h6v10h-6zM196 57h6v10h-6zM190 57h6v10h-6zM184 57h6v10h-6zM178 57h6v10h-6zM166 57h6v10h-6z"/><path fill="#2f3fbf" d="M94 67h6v10h-6zM100 67h6v10h-6zM112 67h6v10h-6zM118 67h6v10h-6zM130 67h6v10h-6zM142 87h6v10h-6zM136 97h6v10h-6zM130 97h6v10h-6zM112 97h6v10h-6zM100 97h6v10h-6zM88 87h6v10h-6zM88 77h6v10h-6z"/><path fill="#2f3fbf" d="M154 67h6v10h-6zM196 67h6v10h-6zM202 67h6v10h-6zM202 97h6v10h-6zM196 97h6v10h-6zM184 97h6v10h-6zM178 97h6v10h-6zM154 97h6v10h-6zM148 97h6v10h-6zM148 87h6v10h-6zM148 77h6v10h-6z"/><path fill="#2f3fbf" d="M28 107h6v10h-6zM64 107h6v10h-6zM70 137h6v10h-6zM34 137h6v10h-6zM28 137h6v10h-6zM28 127h6v10h-6z"/><path fill="#2f3fbf" d="M178 107h6v10h-6zM190 107h6v10h-6zM202 107h6v10h-6zM202 137h6v10h-6zM196 137h6v10h-6zM172 137h6v10h-6zM160 137h6v10h-6zM154 137h6v10h-6zM148 127h6v10h-6z"/></g><g clip-path="url(#grid-clip-bf1e571ad78e05e4-3x3)" data-channel="ellipse" data-ellipse-anchor-x="208" data-ellipse-anchor-y="67" data-ellipse-rx="57.517" data-ellipse-ry="76.427" data-ellipse-rotation-deg="132"><ellipse cx="208" cy="67" rx="57.517" ry="76.427" transform="rotate(132 208 67)" fill="#000000" stroke="#000000" fill-opacity="0.2" stroke-opacity="0.3" stroke-width="2"/></g><g><g data-channel="cell" data-cell-index="0" data-cell-row="0" data-cell-col="0" data-surround-bits="0xbf1e57" data-edge-color="#000000" data-cell-quartile="3"><rect x="34" y="37" width="48" height="20" fill="#3e77c3"/><text x="58" y="47" fill="#ffffff" font-size="16" text-anchor="middle" dominant-baseline="central">w3c-</text><polygon points="82,57 82,47 72,57" fill="#ffffff"/></g><g data-channel="cell" data-cell-index="1" data-cell-row="0" data-cell-col="1" data-surround-bits="0x1ad78e" data-edge-color="#2f3fbf"><rect x="94" y="37" width="48" height="20" fill="#00c871"/><text x="118" y="47" fill="#000000" font-size="16" text-anchor="middle" dominant-baseline="central">ccg.</text></g><g data-channel="cell" data-cell-index="2" data-cell-row="0" data-cell-col="2" data-surround-bits="0x5e47f" data-edge-color="#2f3fbf"><rect x="154" y="37" width="48" height="20" fill="#612b82"/><text x="178" y="47" fill="#ffffff" font-size="16" text-anchor="middle" dominant-baseline="central">gith</text></g><g data-channel="cell" data-cell-index="3" data-cell-row="1" data-cell-col="0" data-cell-blank="true" data-cell-blank-map="true"><rect x="34" y="77" width="48" height="20" rx="10" ry="10" fill="#e7be00" stroke="#000000" stroke-width="1"/><circle cx="74" cy="80.333" r="3.5" fill="#1d4ed8" data-blank-map-min="0,2"/><path d="M 69.8,87 H 78.2 M 74,82.8 V 91.2" fill="none" stroke="#d62828" stroke-width="1.925" stroke-linecap="butt" data-blank-map-max="1,2"/></g><g data-channel="cell" data-cell-index="4" data-cell-row="1" data-cell-col="1" data-surround-bits="0xca68b6" data-edge-color="#2f3fbf" data-cell-quartile="1"><rect x="94" y="77" width="48" height="20" fill="#22b0b9"/><text x="118" y="87" fill="#000000" font-size="16" text-anchor="middle" dominant-baseline="central">ub.i</text><polygon points="94,77 104,77 94,87" fill="#000000"/></g><g data-channel="cell" data-cell-index="5" data-cell-row="1" data-cell-col="2" data-surround-bits="0xf1b302" data-edge-color="#2f3fbf" data-cell-quartile="2"><rect x="154" y="77" width="48" height="20" fill="#ac0ba0"/><text x="178" y="87" fill="#ffffff" font-size="16" text-anchor="middle" dominant-baseline="central">o:us</text><polygon points="202,77 192,77 202,87" fill="#ffffff"/></g><g data-channel="cell" data-cell-index="6" data-cell-row="2" data-cell-col="0" data-surround-bits="0x704041" data-edge-color="#2f3fbf"><rect x="34" y="117" width="48" height="20" fill="#1ab07a"/><text x="58" y="127" fill="#000000" font-size="16" text-anchor="middle" dominant-baseline="central">er:a</text></g><g data-channel="cell" data-cell-index="7" data-cell-row="2" data-cell-col="1" data-cell-blank="true"><rect x="94" y="117" width="48" height="20" rx="10" ry="10" fill="#2f3fbf" stroke="#000000" stroke-width="1"/></g><g data-channel="cell" data-cell-index="8" data-cell-row="2" data-cell-col="2" data-surround-bits="0x5a32a0" data-edge-color="#2f3fbf" data-cell-quartile="4"><rect x="154" y="117" width="48" height="20" fill="#1e2796"/><text x="178" y="127" fill="#ffffff" font-size="16" text-anchor="middle" dominant-baseline="central">lice</text><polygon points="154,137 154,127 164,137" fill="#ffffff"/></g></g></g><g data-channel="color-bar" data-bar-slots="12" data-bar-marker-left="8" data-bar-marker-right="7"><g data-color-bar-rank="0" data-color-bar-band="K"><rect x="2" y="2" width="20" height="19.705" fill="#000000"/><text x="12" y="18.185" fill="#ffffff" font-size="16" text-anchor="middle" data-color-bar-letter="true">k</text></g><g data-color-bar-rank="1" data-color-bar-band="B"><rect x="2" y="21.705" width="20" height="43.393" fill="#2f3fbf"/><text x="12" y="61.578" fill="#ffffff" font-size="16" text-anchor="middle" data-color-bar-letter="true">b</text></g><g data-color-bar-rank="2" data-color-bar-band="R"><rect x="2" y="65.098" width="20" height="46.042" fill="#ff3f2f"/><text x="12" y="107.62" fill="#000000" font-size="16" text-anchor="middle" data-color-bar-letter="true">r</text></g><g data-color-bar-rank="3" data-color-bar-band="G"><rect x="2" y="111.14" width="20" height="40.86" fill="#e7be00"/><text x="12" y="148.48" fill="#000000" font-size="16" text-anchor="middle" data-color-bar-letter="true">g</text></g><circle cx="6.6" cy="108.25" r="3.4" fill="#ffffff" stroke="#000000" stroke-width="0.75" data-bar-marker="left"/><circle cx="17.4" cy="95.75" r="3.4" fill="#ffffff" stroke="#000000" stroke-width="0.75" data-bar-marker="right"/></g><g data-channel="label-top"><text x="28" y="17" fill="#666666" font-size="12" dominant-baseline="central">did:web</text></g><line x1="1" y1="1.5" x2="214" y2="1.5" stroke="#808080" stroke-width="1" shape-rendering="crispEdges"/><line x1="213.5" y1="1" x2="213.5" y2="153" stroke="#808080" stroke-width="1" shape-rendering="crispEdges"/><line x1="1" y1="152.5" x2="214" y2="152.5" stroke="#808080" stroke-width="1" shape-rendering="crispEdges"/><line x1="1.5" y1="1" x2="1.5" y2="153" stroke="#808080" stroke-width="1" shape-rendering="crispEdges"/><line x1="22.5" y1="1" x2="22.5" y2="153" stroke="#808080" stroke-width="1" shape-rendering="crispEdges"/></svg>