<svg width="215" height="194" viewBox="0 0 215 194" xmlns="http://www.w3.org/2000/svg" font-family="&quot;JetBrains Mono&quot;, &quot;Menlo&quot;, &quot;Consolas&quot;, &quot;DejaVu Sans Mono&quot;, &quot;Liberation Mono&quot;, &quot;Roboto Mono&quot;, &quot;Noto Sans Mono&quot;, monospace" data-entviz-version="v12" data-entviz-lib="0.12.0" data-input-bytes="54" data-cols="3" data-rows="4"><defs><clipPath id="grid-clip-dd13ad3ef8405675-3x4"><rect x="28" y="27" width="180" height="160"/></clipPath></defs><rect x="1" y="1" width="213" height="192" fill="#ffffff"/><g data-channel="grid"><rect x="28" y="27" width="180" height="160" fill="#2f3fbf"/><g><path fill="#e7be00" d="M28 27h6v10h-6zM40 27h6v10h-6zM46 27h6v10h-6zM58 27h6v10h-6zM70 27h6v10h-6zM76 27h6v10h-6zM82 27h6v10h-6zM82 57h6v10h-6zM58 57h6v10h-6zM46 57h6v10h-6zM40 57h6v10h-6zM34 57h6v10h-6zM28 47h6v10h-6zM28 37h6v10h-6z"/><path fill="#000000" d="M124 27h6v10h-6zM142 47h6v10h-6zM142 57h6v10h-6zM136 57h6v10h-6zM130 57h6v10h-6zM124 57h6v10h-6zM112 57h6v10h-6zM106 57h6v10h-6zM100 57h6v10h-6zM94 57h6v10h-6zM88 57h6v10h-6z"/><path fill="#ff3f2f" d="M154 27h6v10h-6zM160 27h6v10h-6zM172 27h6v10h-6zM178 27h6v10h-6zM184 27h6v10h-6zM196 27h6v10h-6zM202 37h6v10h-6zM202 57h6v10h-6zM196 57h6v10h-6zM190 57h6v10h-6zM172 57h6v10h-6zM166 57h6v10h-6zM154 57h6v10h-6zM148 47h6v10h-6z"/><path fill="#e7be00" d="M28 67h6v10h-6zM40 67h6v10h-6zM46 67h6v10h-6zM76 67h6v10h-6zM82 77h6v10h-6zM82 97h6v10h-6zM70 97h6v10h-6zM52 97h6v10h-6zM40 97h6v10h-6zM34 97h6v10h-6zM28 97h6v10h-6zM28 87h6v10h-6z"/><path fill="#000000" d="M106 67h6v10h-6zM112 67h6v10h-6zM124 67h6v10h-6zM136 67h6v10h-6zM142 77h6v10h-6zM142 87h6v10h-6zM142 97h6v10h-6zM124 97h6v10h-6zM112 97h6v10h-6zM106 97h6v10h-6zM88 77h6v10h-6z"/><path fill="#ff3f2f" d="M148 67h6v10h-6zM166 67h6v10h-6zM172 67h6v10h-6zM178 67h6v10h-6zM184 67h6v10h-6zM190 67h6v10h-6zM196 67h6v10h-6zM202 87h6v10h-6zM190 97h6v10h-6zM184 97h6v10h-6zM178 97h6v10h-6zM172 97h6v10h-6zM154 97h6v10h-6zM148 97h6v10h-6zM148 77h6v10h-6z"/><path fill="#ffffff" d="M28 107h6v10h-6zM34 107h6v10h-6zM46 107h6v10h-6zM58 107h6v10h-6zM64 107h6v10h-6zM70 107h6v10h-6zM82 117h6v10h-6zM82 127h6v10h-6zM70 137h6v10h-6zM64 137h6v10h-6zM52 137h6v10h-6zM34 137h6v10h-6zM28 127h6v10h-6z"/><path fill="#e7be00" d="M88 107h6v10h-6zM94 107h6v10h-6zM100 107h6v10h-6zM106 107h6v10h-6zM142 107h6v10h-6zM142 117h6v10h-6zM142 127h6v10h-6zM136 137h6v10h-6zM124 137h6v10h-6zM118 137h6v10h-6zM106 137h6v10h-6zM88 127h6v10h-6zM88 117h6v10h-6z"/><path fill="#ff3f2f" d="M148 107h6v10h-6zM154 107h6v10h-6zM160 107h6v10h-6zM166 107h6v10h-6zM172 107h6v10h-6zM178 107h6v10h-6zM184 107h6v10h-6zM190 107h6v10h-6zM196 107h6v10h-6zM202 117h6v10h-6zM202 127h6v10h-6zM202 137h6v10h-6zM196 137h6v10h-6zM190 137h6v10h-6zM184 137h6v10h-6zM178 137h6v10h-6zM172 137h6v10h-6zM166 137h6v10h-6zM148 137h6v10h-6z"/><path fill="#e7be00" d="M40 147h6v10h-6zM52 147h6v10h-6zM64 147h6v10h-6zM70 147h6v10h-6zM82 167h6v10h-6zM82 177h6v10h-6zM76 177h6v10h-6zM70 177h6v10h-6zM58 177h6v10h-6z"/><path fill="#000000" d="M88 147h6v10h-6zM94 147h6v10h-6zM100 147h6v10h-6zM130 147h6v10h-6zM136 147h6v10h-6zM142 157h6v10h-6zM142 167h6v10h-6zM136 177h6v10h-6zM124 177h6v10h-6zM112 177h6v10h-6zM106 177h6v10h-6zM94 177h6v10h-6z"/><path fill="#ff3f2f" d="M148 147h6v10h-6zM166 147h6v10h-6zM178 147h6v10h-6zM184 147h6v10h-6zM190 147h6v10h-6zM202 157h6v10h-6zM202 167h6v10h-6zM160 177h6v10h-6zM148 167h6v10h-6zM148 157h6v10h-6z"/></g><g clip-path="url(#grid-clip-dd13ad3ef8405675-3x4)" data-channel="ellipse" data-ellipse-anchor-x="88" data-ellipse-anchor-y="67" data-ellipse-rx="82.138" data-ellipse-ry="94.356" data-ellipse-rotation-deg="84"><ellipse cx="88" cy="67" rx="82.138" ry="94.356" transform="rotate(84 88 67)" fill="#ffffff" stroke="#ffffff" fill-opacity="0.35" stroke-opacity="0.45" stroke-width="2"/></g><g><g data-channel="cell" data-cell-index="0" data-cell-row="0" data-cell-col="0" data-surround-bits="0xdd13ad" data-edge-color="#e7be00"><rect x="34" y="37" width="48" height="20" fill="#a52012"/><text x="58" y="47" fill="#ffffff" font-size="16" text-anchor="middle" dominant-baseline="central">EiCl</text></g><g data-channel="cell" data-cell-index="1" data-cell-row="0" data-cell-col="1" data-surround-bits="0x3ef840" data-edge-color="#000000"><rect x="94" y="37" width="48" height="20" fill="#039391"/><text x="118" y="47" fill="#ffffff" font-size="16" text-anchor="middle" dominant-baseline="central">kZMD</text></g><g data-channel="cell" data-cell-index="2" data-cell-row="0" data-cell-col="2" data-surround-bits="0x567576" data-edge-color="#ff3f2f" data-cell-quartile="1"><rect x="154" y="37" width="48" height="20" fill="#aaf2c4"/><text x="178" y="47" fill="#000000" font-size="16" text-anchor="middle" dominant-baseline="central">xPKq</text><polygon points="154,37 164,37 154,47" fill="#000000"/></g><g data-channel="cell" data-cell-index="3" data-cell-row="1" data-cell-col="0" data-surround-bits="0x7a550d" data-edge-color="#e7be00"><rect x="34" y="77" width="48" height="20" fill="#3ed70b"/><text x="58" y="87" fill="#000000" font-size="16" text-anchor="middle" dominant-baseline="central">C9c-</text></g><g data-channel="cell" data-cell-index="4" data-cell-row="1" data-cell-col="1" data-surround-bits="0x869d58" data-edge-color="#000000"><rect x="94" y="77" width="48" height="20" fill="#1f64ba"/><text x="118" y="87" fill="#ffffff" font-size="16" text-anchor="middle" dominant-baseline="central">umQf</text></g><g data-channel="cell" data-cell-index="5" data-cell-row="1" data-cell-col="2" data-surround-bits="0xb3c9f9" data-edge-color="#ff3f2f"><rect x="154" y="77" width="48" height="20" fill="#7c444e"/><text x="178" y="87" fill="#ffffff" font-size="16" text-anchor="middle" dominant-baseline="central">TkR8</text></g><g data-channel="cell" data-cell-index="6" data-cell-row="2" data-cell-col="0" data-surround-bits="0x52cceb" data-edge-color="#ffffff"><rect x="34" y="117" width="48" height="20" fill="#7df6be"/><text x="58" y="127" fill="#000000" font-size="16" text-anchor="middle" dominant-baseline="central">vvZ9</text></g><g data-channel="cell" data-cell-index="7" data-cell-row="2" data-cell-col="1" data-surround-bits="0xc5ae0f" data-edge-color="#e7be00"><rect x="94" y="117" width="48" height="20" fill="#65f824"/><text x="118" y="127" fill="#000000" font-size="16" text-anchor="middle" dominant-baseline="central">JPhl</text></g><g data-channel="cell" data-cell-index="8" data-cell-row="2" data-cell-col="2" data-surround-bits="0x27fdff" data-edge-color="#ff3f2f"><rect x="154" y="117" width="48" height="20" fill="#c312ff"/><text x="178" y="127" fill="#000000" font-size="16" text-anchor="middle" dominant-baseline="central">_xLD</text></g><g data-channel="cell" data-cell-index="9" data-cell-row="3" data-cell-col="0" data-surround-bits="0x178d4" data-edge-color="#e7be00" data-cell-quartile="3"><rect x="34" y="157" width="48" height="20" fill="#5fd323"/><text x="58" y="167" fill="#000000" font-size="16" text-anchor="middle" dominant-baseline="central">I9Nf</text><polygon points="82,177 82,167 72,177" fill="#000000"/></g><g data-channel="cell" data-cell-index="10" data-cell-row="3" data-cell-col="1" data-surround-bits="0x16ad87" data-edge-color="#000000" data-cell-quartile="2"><rect x="94" y="157" width="48" height="20" fill="#307f93"/><text x="118" y="167" fill="#ffffff" font-size="16" text-anchor="middle" dominant-baseline="central">k38w</text><polygon points="142,157 132,157 142,167" fill="#ffffff"/></g><g data-channel="cell" data-cell-index="11" data-cell-row="3" data-cell-col="2" data-surround-bits="0xc80ce9" data-edge-color="#ff3f2f" data-cell-quartile="4"><rect x="154" y="157" width="48" height="20" fill="#700ee7"/><text x="178" y="167" fill="#ffffff" font-size="16" text-anchor="middle" dominant-baseline="central">5w</text><polygon points="154,177 154,167 164,177" fill="#ffffff"/></g></g></g><g data-channel="color-bar" data-bar-slots="15" data-bar-marker-left="0" data-bar-marker-right="14"><g data-color-bar-rank="0" data-color-bar-band="G"><rect x="2" y="2" width="20" height="64.694" fill="#e7be00"/><text x="12" y="63.174" fill="#000000" font-size="16" text-anchor="middle" data-color-bar-letter="true">g</text></g><g data-color-bar-rank="1" data-color-bar-band="K"><rect x="2" y="66.694" width="20" height="54.297" fill="#000000"/><text x="12" y="117.471" fill="#ffffff" font-size="16" text-anchor="middle" data-color-bar-letter="true">k</text></g><g data-color-bar-rank="2" data-color-bar-band="W"><rect x="2" y="120.991" width="20" height="48.098" fill="#ffffff"/><text x="12" y="165.569" fill="#000000" font-size="16" text-anchor="middle" data-color-bar-letter="true">w</text></g><g data-color-bar-rank="3" data-color-bar-band="R"><rect x="2" y="169.089" width="20" height="22.911" fill="#ff3f2f"/><text x="12" y="188.48" fill="#000000" font-size="16" text-anchor="middle" data-color-bar-letter="true">r</text></g><circle cx="6.6" cy="8.333" r="3.4" fill="#ffffff" stroke="#000000" stroke-width="0.75" data-bar-marker="left"/><circle cx="17.4" cy="185.667" r="3.4" fill="#ffffff" stroke="#000000" stroke-width="0.75" data-bar-marker="right"/></g><g data-channel="label-top"><text x="28" y="17" fill="#666666" font-size="12" dominant-baseline="central">did:ion:...</text></g><line x1="1" y1="1.5" x2="214" y2="1.5" stroke="#808080" stroke-width="1" shape-rendering="crispEdges"/><line x1="213.5" y1="1" x2="213.5" y2="193" stroke="#808080" stroke-width="1" shape-rendering="crispEdges"/><line x1="1" y1="192.5" x2="214" y2="192.5" stroke="#808080" stroke-width="1" shape-rendering="crispEdges"/><line x1="1.5" y1="1" x2="1.5" y2="193" stroke="#808080" stroke-width="1" shape-rendering="crispEdges"/><line x1="22.5" y1="1" x2="22.5" y2="193" stroke="#808080" stroke-width="1" shape-rendering="crispEdges"/></svg>