<svg width="273" height="232" viewBox="0 0 273 232" xmlns="http://www.w3.org/2000/svg" font-family="&quot;JetBrains Mono&quot;, &quot;Menlo&quot;, &quot;Consolas&quot;, &quot;DejaVu Sans Mono&quot;, &quot;Liberation Mono&quot;, &quot;Roboto Mono&quot;, &quot;Noto Sans Mono&quot;, monospace" data-entviz-version="v11" data-entviz-lib="0.11.0" data-input-bytes="85" data-cols="4" data-rows="5"><defs><clipPath id="grid-clip-31498057b520dd05-4x5"><rect x="27" y="26" width="240" height="200"/></clipPath></defs><rect x="0" y="0" width="273" height="232" fill="#ffffff"/><g data-channel="grid"><rect x="27" y="26" width="240" height="200" fill="#ffffff"/><g><path fill="#2f3fbf" d="M129 26h6v10h-6zM135 26h6v10h-6zM141 46h6v10h-6zM129 56h6v10h-6zM117 56h6v10h-6zM93 56h6v10h-6zM87 56h6v10h-6z"/><path fill="#e7be00" d="M177 26h6v10h-6zM195 26h6v10h-6zM201 36h6v10h-6zM201 56h6v10h-6zM195 56h6v10h-6zM183 56h6v10h-6zM177 56h6v10h-6zM171 56h6v10h-6zM165 56h6v10h-6zM153 56h6v10h-6zM147 46h6v10h-6z"/><path fill="#000000" d="M207 26h6v10h-6zM213 26h6v10h-6zM243 26h6v10h-6zM249 26h6v10h-6zM255 26h6v10h-6zM261 36h6v10h-6zM237 56h6v10h-6zM225 56h6v10h-6zM219 56h6v10h-6zM213 56h6v10h-6zM207 46h6v10h-6zM207 36h6v10h-6z"/><path fill="#000000" d="M45 66h6v10h-6zM57 66h6v10h-6zM63 66h6v10h-6zM75 66h6v10h-6zM81 86h6v10h-6zM69 96h6v10h-6zM63 96h6v10h-6zM57 96h6v10h-6zM51 96h6v10h-6zM39 96h6v10h-6zM27 96h6v10h-6zM27 86h6v10h-6z"/><path fill="#2f3fbf" d="M123 66h6v10h-6zM135 66h6v10h-6zM141 76h6v10h-6zM135 96h6v10h-6zM129 96h6v10h-6zM123 96h6v10h-6zM117 96h6v10h-6zM87 96h6v10h-6zM87 76h6v10h-6z"/><path fill="#2f3fbf" d="M147 66h6v10h-6zM159 66h6v10h-6zM183 66h6v10h-6zM189 66h6v10h-6zM201 66h6v10h-6zM201 76h6v10h-6zM195 96h6v10h-6zM183 96h6v10h-6zM177 96h6v10h-6zM165 96h6v10h-6zM159 96h6v10h-6zM153 96h6v10h-6zM147 86h6v10h-6zM147 76h6v10h-6z"/><path fill="#2f3fbf" d="M219 66h6v10h-6zM249 66h6v10h-6zM261 66h6v10h-6zM261 96h6v10h-6zM255 96h6v10h-6zM237 96h6v10h-6zM231 96h6v10h-6zM225 96h6v10h-6z"/><path fill="#ff3f2f" d="M27 106h6v10h-6zM39 106h6v10h-6zM51 106h6v10h-6zM57 106h6v10h-6zM69 106h6v10h-6zM75 106h6v10h-6zM81 106h6v10h-6zM81 126h6v10h-6zM75 136h6v10h-6zM51 136h6v10h-6zM45 136h6v10h-6zM39 136h6v10h-6zM27 136h6v10h-6zM27 126h6v10h-6zM27 116h6v10h-6z"/><path fill="#000000" d="M87 106h6v10h-6zM99 106h6v10h-6zM105 106h6v10h-6zM111 106h6v10h-6zM123 106h6v10h-6zM129 106h6v10h-6zM141 106h6v10h-6zM141 126h6v10h-6zM135 136h6v10h-6zM129 136h6v10h-6zM123 136h6v10h-6zM93 136h6v10h-6zM87 136h6v10h-6zM87 126h6v10h-6z"/><path fill="#2f3fbf" d="M153 106h6v10h-6zM183 106h6v10h-6zM189 106h6v10h-6zM201 116h6v10h-6zM195 136h6v10h-6zM189 136h6v10h-6zM183 136h6v10h-6zM177 136h6v10h-6zM165 136h6v10h-6zM159 136h6v10h-6zM147 126h6v10h-6zM147 116h6v10h-6z"/><path fill="#2f3fbf" d="M219 106h6v10h-6zM231 106h6v10h-6zM261 106h6v10h-6zM261 116h6v10h-6zM255 136h6v10h-6zM249 136h6v10h-6zM237 136h6v10h-6zM231 136h6v10h-6zM225 136h6v10h-6zM219 136h6v10h-6z"/><path fill="#2f3fbf" d="M63 146h6v10h-6zM69 146h6v10h-6zM75 146h6v10h-6zM81 176h6v10h-6zM75 176h6v10h-6zM69 176h6v10h-6zM63 176h6v10h-6zM57 176h6v10h-6zM39 176h6v10h-6zM33 176h6v10h-6zM27 156h6v10h-6z"/><path fill="#ff3f2f" d="M93 146h6v10h-6zM111 146h6v10h-6zM141 176h6v10h-6zM135 176h6v10h-6zM129 176h6v10h-6zM111 176h6v10h-6zM87 176h6v10h-6z"/><path fill="#e7be00" d="M153 146h6v10h-6zM165 146h6v10h-6zM183 146h6v10h-6zM189 146h6v10h-6zM195 146h6v10h-6zM201 176h6v10h-6zM183 176h6v10h-6zM177 176h6v10h-6zM147 176h6v10h-6zM147 166h6v10h-6zM147 156h6v10h-6z"/><path fill="#e7be00" d="M213 146h6v10h-6zM219 146h6v10h-6zM225 146h6v10h-6zM237 146h6v10h-6zM261 146h6v10h-6zM261 156h6v10h-6zM261 166h6v10h-6zM261 176h6v10h-6zM255 176h6v10h-6zM243 176h6v10h-6zM237 176h6v10h-6zM231 176h6v10h-6zM225 176h6v10h-6zM219 176h6v10h-6z"/><path fill="#ff3f2f" d="M27 186h6v10h-6zM33 186h6v10h-6zM57 186h6v10h-6zM75 186h6v10h-6zM81 186h6v10h-6zM81 196h6v10h-6zM81 206h6v10h-6zM81 216h6v10h-6zM75 216h6v10h-6zM69 216h6v10h-6zM57 216h6v10h-6zM45 216h6v10h-6zM39 216h6v10h-6zM27 196h6v10h-6z"/><path fill="#e7be00" d="M87 186h6v10h-6zM117 186h6v10h-6zM123 186h6v10h-6zM135 186h6v10h-6zM141 206h6v10h-6zM129 216h6v10h-6zM117 216h6v10h-6zM105 216h6v10h-6zM93 216h6v10h-6zM87 216h6v10h-6z"/><path fill="#000000" d="M147 186h6v10h-6zM165 186h6v10h-6zM171 186h6v10h-6zM189 186h6v10h-6zM195 186h6v10h-6zM201 186h6v10h-6zM201 196h6v10h-6zM201 216h6v10h-6zM159 216h6v10h-6zM147 216h6v10h-6zM147 206h6v10h-6zM147 196h6v10h-6z"/><path fill="#2f3fbf" d="M225 186h6v10h-6zM231 186h6v10h-6zM243 186h6v10h-6zM249 186h6v10h-6zM261 186h6v10h-6zM243 216h6v10h-6zM237 216h6v10h-6zM225 216h6v10h-6zM219 216h6v10h-6zM207 196h6v10h-6z"/></g><g clip-path="url(#grid-clip-31498057b520dd05-4x5)" data-channel="ellipse" data-ellipse-anchor-x="87" data-ellipse-anchor-y="146" data-ellipse-rx="73.553" data-ellipse-ry="68.361" data-ellipse-rotation-deg="72"><ellipse cx="87" cy="146" rx="73.553" ry="68.361" transform="rotate(72 87 146)" fill="#000000" stroke="#000000" fill-opacity="0.2" stroke-opacity="0.3" stroke-width="2"/></g><g><g data-channel="cell" data-cell-index="0" data-cell-row="0" data-cell-col="0" data-cell-blank="true" data-cell-blank-map="true"><rect x="33" y="36" width="48" height="20" rx="10" ry="10" fill="#e7be00" stroke="#000000" stroke-width="1"/><circle cx="75" cy="42" r="3.5" fill="#000000" data-blank-map-min="1,3"/><path d="M 34.8,46 H 43.2 M 39,41.8 V 50.2" fill="none" stroke="#000000" stroke-width="1.925" stroke-linecap="butt" data-blank-map-max="2,0"/></g><g data-channel="cell" data-cell-index="1" data-cell-row="0" data-cell-col="1" data-surround-bits="0x314980" data-edge-color="#2f3fbf"><rect x="93" y="36" width="48" height="20" fill="#248a86"/><text x="117" y="46" fill="#ffffff" font-size="16" text-anchor="middle" dominant-baseline="central">hook</text></g><g data-channel="cell" data-cell-index="2" data-cell-row="0" data-cell-col="2" data-surround-bits="0x57b520" data-edge-color="#e7be00"><rect x="153" y="36" width="48" height="20" fill="#acd702"/><text x="177" y="46" fill="#000000" font-size="16" text-anchor="middle" dominant-baseline="central">.tes</text></g><g data-channel="cell" data-cell-index="3" data-cell-row="0" data-cell-col="3" data-surround-bits="0xdd05c3" data-edge-color="#000000" data-cell-quartile="2"><rect x="213" y="36" width="48" height="20" fill="#ad77b6"/><text x="237" y="46" fill="#000000" font-size="16" text-anchor="middle" dominant-baseline="central">tnet</text><polygon points="261,36 251,36 261,46" fill="#000000"/></g><g data-channel="cell" data-cell-index="4" data-cell-row="1" data-cell-col="0" data-surround-bits="0x6bc968" data-edge-color="#000000"><rect x="33" y="76" width="48" height="20" fill="#5e0902"/><text x="57" y="86" fill="#ffffff" font-size="16" text-anchor="middle" dominant-baseline="central">.gle</text></g><g data-channel="cell" data-cell-index="5" data-cell-row="1" data-cell-col="1" data-surround-bits="0xa1e540" data-edge-color="#2f3fbf"><rect x="93" y="76" width="48" height="20" fill="#28f089"/><text x="117" y="86" fill="#000000" font-size="16" text-anchor="middle" dominant-baseline="central">if.o</text></g><g data-channel="cell" data-cell-index="6" data-cell-row="1" data-cell-col="2" data-surround-bits="0xdda6c5" data-edge-color="#2f3fbf"><rect x="153" y="76" width="48" height="20" fill="#3b00ae"/><text x="177" y="86" fill="#ffffff" font-size="16" text-anchor="middle" dominant-baseline="central">rg:7</text></g><g data-channel="cell" data-cell-index="7" data-cell-row="1" data-cell-col="3" data-surround-bits="0x73284" data-edge-color="#2f3fbf"><rect x="213" y="76" width="48" height="20" fill="#804def"/><text x="237" y="86" fill="#ffffff" font-size="16" text-anchor="middle" dominant-baseline="central">702:</text></g><g data-channel="cell" data-cell-index="8" data-cell-row="2" data-cell-col="0" data-surround-bits="0xee2bb5" data-edge-color="#ff3f2f" data-cell-quartile="1"><rect x="33" y="116" width="48" height="20" fill="#000b77"/><text x="57" y="126" fill="#ffffff" font-size="16" text-anchor="middle" dominant-baseline="central">dws:</text><polygon points="33,116 43,116 33,126" fill="#ffffff"/></g><g data-channel="cell" data-cell-index="9" data-cell-row="2" data-cell-col="1" data-surround-bits="0x70eadd" data-edge-color="#000000"><rect x="93" y="116" width="48" height="20" fill="#5e3d10"/><text x="117" y="126" fill="#ffffff" font-size="16" text-anchor="middle" dominant-baseline="central">ED1e</text></g><g data-channel="cell" data-cell-index="10" data-cell-row="2" data-cell-col="2" data-surround-bits="0xcde4c2" data-edge-color="#2f3fbf"><rect x="153" y="116" width="48" height="20" fill="#f690f2"/><text x="177" y="126" fill="#000000" font-size="16" text-anchor="middle" dominant-baseline="central">8pD2</text></g><g data-channel="cell" data-cell-index="11" data-cell-row="2" data-cell-col="3" data-surround-bits="0xf6614" data-edge-color="#2f3fbf" data-cell-quartile="3"><rect x="213" y="116" width="48" height="20" fill="#9daae1"/><text x="237" y="126" fill="#000000" font-size="16" text-anchor="middle" dominant-baseline="central">4aqd</text><polygon points="261,136 261,126 251,136" fill="#000000"/></g><g data-channel="cell" data-cell-index="12" data-cell-row="3" data-cell-col="0" data-surround-bits="0x99f1c0" data-edge-color="#2f3fbf"><rect x="33" y="156" width="48" height="20" fill="#99d0d1"/><text x="57" y="166" fill="#000000" font-size="16" text-anchor="middle" dominant-baseline="central">0dCZ</text></g><g data-channel="cell" data-cell-index="13" data-cell-row="3" data-cell-col="1" data-surround-bits="0x227012" data-edge-color="#ff3f2f"><rect x="93" y="156" width="48" height="20" fill="#da014d"/><text x="117" y="166" fill="#ffffff" font-size="16" text-anchor="middle" dominant-baseline="central">TQHa</text></g><g data-channel="cell" data-cell-index="14" data-cell-row="3" data-cell-col="2" data-surround-bits="0xe191ca" data-edge-color="#e7be00"><rect x="153" y="156" width="48" height="20" fill="#dc971a"/><text x="177" y="166" fill="#000000" font-size="16" text-anchor="middle" dominant-baseline="central">Gpfc</text></g><g data-channel="cell" data-cell-index="15" data-cell-row="3" data-cell-col="3" data-surround-bits="0xfbe2e" data-edge-color="#e7be00"><rect x="213" y="156" width="48" height="20" fill="#c5e396"/><text x="237" y="166" fill="#000000" font-size="16" text-anchor="middle" dominant-baseline="central">luPF</text></g><g data-channel="cell" data-cell-index="16" data-cell-row="4" data-cell-col="0" data-surround-bits="0x8d7f23" data-edge-color="#ff3f2f"><rect x="33" y="196" width="48" height="20" fill="#a3660f"/><text x="57" y="206" fill="#ffffff" font-size="16" text-anchor="middle" dominant-baseline="central">D2aj</text></g><g data-channel="cell" data-cell-index="17" data-cell-row="4" data-cell-col="1" data-surround-bits="0x354961" data-edge-color="#e7be00" data-cell-quartile="4"><rect x="93" y="196" width="48" height="20" fill="#378618"/><text x="117" y="206" fill="#ffffff" font-size="16" text-anchor="middle" dominant-baseline="central">GIY3</text><polygon points="93,216 93,206 103,216" fill="#ffffff"/></g><g data-channel="cell" data-cell-index="18" data-cell-row="4" data-cell-col="2" data-surround-bits="0xe81799" data-edge-color="#000000"><rect x="153" y="196" width="48" height="20" fill="#041801"/><text x="177" y="206" fill="#ffffff" font-size="16" text-anchor="middle" dominant-baseline="central">ARgE</text></g><g data-channel="cell" data-cell-index="19" data-cell-row="4" data-cell-col="3" data-surround-bits="0x8d82d8" data-edge-color="#2f3fbf"><rect x="213" y="196" width="48" height="20" fill="#eb8be5"/><text x="237" y="206" fill="#000000" font-size="16" text-anchor="middle" dominant-baseline="central">5Yvr</text></g></g></g><g data-channel="color-bar" data-bar-slots="16" data-bar-marker-left="1" data-bar-marker-right="13"><g data-color-bar-rank="0" data-color-bar-band="R"><rect x="1" y="1" width="20" height="66.693" fill="#ff3f2f"/><text x="11" y="64.173" fill="#000000" font-size="16" text-anchor="middle" data-color-bar-letter="true">r</text></g><g data-color-bar-rank="1" data-color-bar-band="G"><rect x="1" y="67.693" width="20" height="79.465" fill="#e7be00"/><text x="11" y="143.638" fill="#000000" font-size="16" text-anchor="middle" data-color-bar-letter="true">g</text></g><g data-color-bar-rank="2" data-color-bar-band="K"><rect x="1" y="147.158" width="20" height="34.937" fill="#000000"/><text x="11" y="178.575" fill="#ffffff" font-size="16" text-anchor="middle" data-color-bar-letter="true">k</text></g><g data-color-bar-rank="3" data-color-bar-band="B"><rect x="1" y="182.095" width="20" height="48.905" fill="#2f3fbf"/><text x="11" y="227.48" fill="#ffffff" font-size="16" text-anchor="middle" data-color-bar-letter="true">b</text></g><circle cx="5.6" cy="22.562" r="3.4" fill="#ffffff" stroke="#000000" stroke-width="0.75" data-bar-marker="left"/><circle cx="16.4" cy="195.062" r="3.4" fill="#ffffff" stroke="#000000" stroke-width="0.75" data-bar-marker="right"/></g><g data-channel="label-top"><text x="27" y="16" fill="#666666" font-size="12" dominant-baseline="central">did:webs:...</text></g><line x1="0" y1="0.5" x2="273" y2="0.5" stroke="#808080" stroke-width="1" shape-rendering="crispEdges"/><line x1="272.5" y1="0" x2="272.5" y2="232" stroke="#808080" stroke-width="1" shape-rendering="crispEdges"/><line x1="0" y1="231.5" x2="273" y2="231.5" stroke="#808080" stroke-width="1" shape-rendering="crispEdges"/><line x1="0.5" y1="0" x2="0.5" y2="232" stroke="#808080" stroke-width="1" shape-rendering="crispEdges"/><line x1="21.5" y1="0" x2="21.5" y2="232" stroke="#808080" stroke-width="1" shape-rendering="crispEdges"/></svg>