<svg width="275" height="234" viewBox="0 0 275 234" xmlns="http://www.w3.org/2000/svg" font-family="&quot;JetBrains Mono&quot;, &quot;Menlo&quot;, &quot;Consolas&quot;, &quot;DejaVu Sans Mono&quot;, &quot;Liberation Mono&quot;, &quot;Roboto Mono&quot;, &quot;Noto Sans Mono&quot;, monospace" data-entviz-version="v15" data-entviz-lib="0.15.0" data-input-bytes="85" data-cols="4" data-rows="5" data-encoding="base64url" data-scheme="did" data-role="identifier" data-size-basis="utf8" data-entropy-type="did" data-size-bits="608" data-qualifiers="{&quot;method&quot;:&quot;webs&quot;}" data-parts="[{&quot;text&quot;:&quot;did:webs:&quot;,&quot;bind&quot;:&quot;fold&quot;},{&quot;text&quot;:&quot;hook.testnet.gleif.org:7702:dws:ED1e8pD24aqd0dCZTQHaGpfcluPFD2ajGIY3ARgE5Yvr&quot;,&quot;bind&quot;:&quot;core&quot;}]"><defs><clipPath id="grid-clip-31498057b520dd05-4x5"><rect x="28" y="27" width="240" height="200"/></clipPath></defs><rect x="1" y="1" width="273" height="232" fill="#ffffff"/><g data-channel="grid"><rect x="28" y="27" width="240" height="200" fill="#ffffff"/><g><path fill="#2f3fbf" d="M130 27h6v10h-6zM136 27h6v10h-6zM142 47h6v10h-6zM130 57h6v10h-6zM118 57h6v10h-6zM94 57h6v10h-6zM88 57h6v10h-6z"/><path fill="#e7be00" d="M178 27h6v10h-6zM196 27h6v10h-6zM202 37h6v10h-6zM202 57h6v10h-6zM196 57h6v10h-6zM184 57h6v10h-6zM178 57h6v10h-6zM172 57h6v10h-6zM166 57h6v10h-6zM154 57h6v10h-6zM148 47h6v10h-6z"/><path fill="#000000" d="M208 27h6v10h-6zM214 27h6v10h-6zM244 27h6v10h-6zM250 27h6v10h-6zM256 27h6v10h-6zM262 37h6v10h-6zM238 57h6v10h-6zM226 57h6v10h-6zM220 57h6v10h-6zM214 57h6v10h-6zM208 47h6v10h-6zM208 37h6v10h-6z"/><path fill="#000000" d="M46 67h6v10h-6zM58 67h6v10h-6zM64 67h6v10h-6zM76 67h6v10h-6zM82 87h6v10h-6zM70 97h6v10h-6zM64 97h6v10h-6zM58 97h6v10h-6zM52 97h6v10h-6zM40 97h6v10h-6zM28 97h6v10h-6zM28 87h6v10h-6z"/><path fill="#2f3fbf" d="M124 67h6v10h-6zM136 67h6v10h-6zM142 77h6v10h-6zM136 97h6v10h-6zM130 97h6v10h-6zM124 97h6v10h-6zM118 97h6v10h-6zM88 97h6v10h-6zM88 77h6v10h-6z"/><path fill="#2f3fbf" d="M148 67h6v10h-6zM160 67h6v10h-6zM184 67h6v10h-6zM190 67h6v10h-6zM202 67h6v10h-6zM202 77h6v10h-6zM196 97h6v10h-6zM184 97h6v10h-6zM178 97h6v10h-6zM166 97h6v10h-6zM160 97h6v10h-6zM154 97h6v10h-6zM148 87h6v10h-6zM148 77h6v10h-6z"/><path fill="#2f3fbf" d="M220 67h6v10h-6zM250 67h6v10h-6zM262 67h6v10h-6zM262 97h6v10h-6zM256 97h6v10h-6zM238 97h6v10h-6zM232 97h6v10h-6zM226 97h6v10h-6z"/><path fill="#ff3f2f" d="M28 107h6v10h-6zM40 107h6v10h-6zM52 107h6v10h-6zM58 107h6v10h-6zM70 107h6v10h-6zM76 107h6v10h-6zM82 107h6v10h-6zM82 127h6v10h-6zM76 137h6v10h-6zM52 137h6v10h-6zM46 137h6v10h-6zM40 137h6v10h-6zM28 137h6v10h-6zM28 127h6v10h-6zM28 117h6v10h-6z"/><path fill="#000000" d="M88 107h6v10h-6zM100 107h6v10h-6zM106 107h6v10h-6zM112 107h6v10h-6zM124 107h6v10h-6zM130 107h6v10h-6zM142 107h6v10h-6zM142 127h6v10h-6zM136 137h6v10h-6zM130 137h6v10h-6zM124 137h6v10h-6zM94 137h6v10h-6zM88 137h6v10h-6zM88 127h6v10h-6z"/><path fill="#2f3fbf" d="M154 107h6v10h-6zM184 107h6v10h-6zM190 107h6v10h-6zM202 117h6v10h-6zM196 137h6v10h-6zM190 137h6v10h-6zM184 137h6v10h-6zM178 137h6v10h-6zM166 137h6v10h-6zM160 137h6v10h-6zM148 127h6v10h-6zM148 117h6v10h-6z"/><path fill="#2f3fbf" d="M220 107h6v10h-6zM232 107h6v10h-6zM262 107h6v10h-6zM262 117h6v10h-6zM256 137h6v10h-6zM250 137h6v10h-6zM238 137h6v10h-6zM232 137h6v10h-6zM226 137h6v10h-6zM220 137h6v10h-6z"/><path fill="#2f3fbf" d="M64 147h6v10h-6zM70 147h6v10h-6zM76 147h6v10h-6zM82 177h6v10h-6zM76 177h6v10h-6zM70 177h6v10h-6zM64 177h6v10h-6zM58 177h6v10h-6zM40 177h6v10h-6zM34 177h6v10h-6zM28 157h6v10h-6z"/><path fill="#ff3f2f" d="M94 147h6v10h-6zM112 147h6v10h-6zM142 177h6v10h-6zM136 177h6v10h-6zM130 177h6v10h-6zM112 177h6v10h-6zM88 177h6v10h-6z"/><path fill="#e7be00" d="M154 147h6v10h-6zM166 147h6v10h-6zM184 147h6v10h-6zM190 147h6v10h-6zM196 147h6v10h-6zM202 177h6v10h-6zM184 177h6v10h-6zM178 177h6v10h-6zM148 177h6v10h-6zM148 167h6v10h-6zM148 157h6v10h-6z"/><path fill="#e7be00" d="M214 147h6v10h-6zM220 147h6v10h-6zM226 147h6v10h-6zM238 147h6v10h-6zM262 147h6v10h-6zM262 157h6v10h-6zM262 167h6v10h-6zM262 177h6v10h-6zM256 177h6v10h-6zM244 177h6v10h-6zM238 177h6v10h-6zM232 177h6v10h-6zM226 177h6v10h-6zM220 177h6v10h-6z"/><path fill="#ff3f2f" d="M28 187h6v10h-6zM34 187h6v10h-6zM58 187h6v10h-6zM76 187h6v10h-6zM82 187h6v10h-6zM82 197h6v10h-6zM82 207h6v10h-6zM82 217h6v10h-6zM76 217h6v10h-6zM70 217h6v10h-6zM58 217h6v10h-6zM46 217h6v10h-6zM40 217h6v10h-6zM28 197h6v10h-6z"/><path fill="#e7be00" d="M88 187h6v10h-6zM118 187h6v10h-6zM124 187h6v10h-6zM136 187h6v10h-6zM142 207h6v10h-6zM130 217h6v10h-6zM118 217h6v10h-6zM106 217h6v10h-6zM94 217h6v10h-6zM88 217h6v10h-6z"/><path fill="#000000" d="M148 187h6v10h-6zM166 187h6v10h-6zM172 187h6v10h-6zM190 187h6v10h-6zM196 187h6v10h-6zM202 187h6v10h-6zM202 197h6v10h-6zM202 217h6v10h-6zM160 217h6v10h-6zM148 217h6v10h-6zM148 207h6v10h-6zM148 197h6v10h-6z"/><path fill="#2f3fbf" d="M226 187h6v10h-6zM232 187h6v10h-6zM244 187h6v10h-6zM250 187h6v10h-6zM262 187h6v10h-6zM244 217h6v10h-6zM238 217h6v10h-6zM226 217h6v10h-6zM220 217h6v10h-6zM208 197h6v10h-6z"/></g><g clip-path="url(#grid-clip-31498057b520dd05-4x5)" data-channel="ellipse" data-ellipse-anchor-x="88" data-ellipse-anchor-y="147" data-ellipse-rx="73.553" data-ellipse-ry="68.361" data-ellipse-rotation-deg="72"><ellipse cx="88" cy="147" rx="73.553" ry="68.361" transform="rotate(72 88 147)" fill="#000000" stroke="#000000" fill-opacity="0.2" stroke-opacity="0.3" stroke-width="2"/></g><g><g data-channel="cell" data-cell-index="0" data-cell-row="0" data-cell-col="0" data-cell-blank="true" data-cell-blank-map="true"><rect x="34" y="37" width="48" height="20" rx="10" ry="10" fill="#e7be00" stroke="#000000" stroke-width="1"/><circle cx="76" cy="43" r="3.5" fill="#000000" data-blank-map-min="1,3"/><path d="M 35.8,47 H 44.2 M 40,42.8 V 51.2" fill="none" stroke="#000000" stroke-width="1.925" stroke-linecap="butt" data-blank-map-max="2,0"/></g><g data-channel="cell" data-cell-index="1" data-cell-row="0" data-cell-col="1" data-surround-bits="0x314980" data-edge-color="#2f3fbf"><rect x="94" y="37" width="48" height="20" fill="#248a86"/><text x="118" y="47" fill="#ffffff" font-size="16" text-anchor="middle" dominant-baseline="central">hook</text></g><g data-channel="cell" data-cell-index="2" data-cell-row="0" data-cell-col="2" data-surround-bits="0x57b520" data-edge-color="#e7be00"><rect x="154" y="37" width="48" height="20" fill="#acd702"/><text x="178" y="47" fill="#000000" font-size="16" text-anchor="middle" dominant-baseline="central">.tes</text></g><g data-channel="cell" data-cell-index="3" data-cell-row="0" data-cell-col="3" data-surround-bits="0xdd05c3" data-edge-color="#000000" data-cell-quartile="2"><rect x="214" y="37" width="48" height="20" fill="#ad77b6"/><text x="238" y="47" fill="#000000" font-size="16" text-anchor="middle" dominant-baseline="central">tnet</text><polygon points="262,37 252,37 262,47" fill="#000000"/></g><g data-channel="cell" data-cell-index="4" data-cell-row="1" data-cell-col="0" data-surround-bits="0x6bc968" data-edge-color="#000000"><rect x="34" y="77" width="48" height="20" fill="#5e0902"/><text x="58" y="87" fill="#ffffff" font-size="16" text-anchor="middle" dominant-baseline="central">.gle</text></g><g data-channel="cell" data-cell-index="5" data-cell-row="1" data-cell-col="1" data-surround-bits="0xa1e540" data-edge-color="#2f3fbf"><rect x="94" y="77" width="48" height="20" fill="#28f089"/><text x="118" y="87" fill="#000000" font-size="16" text-anchor="middle" dominant-baseline="central">if.o</text></g><g data-channel="cell" data-cell-index="6" data-cell-row="1" data-cell-col="2" data-surround-bits="0xdda6c5" data-edge-color="#2f3fbf"><rect x="154" y="77" width="48" height="20" fill="#3b00ae"/><text x="178" y="87" fill="#ffffff" font-size="16" text-anchor="middle" dominant-baseline="central">rg:7</text></g><g data-channel="cell" data-cell-index="7" data-cell-row="1" data-cell-col="3" data-surround-bits="0x73284" data-edge-color="#2f3fbf"><rect x="214" y="77" width="48" height="20" fill="#804def"/><text x="238" y="87" fill="#ffffff" font-size="16" text-anchor="middle" dominant-baseline="central">702:</text></g><g data-channel="cell" data-cell-index="8" data-cell-row="2" data-cell-col="0" data-surround-bits="0xee2bb5" data-edge-color="#ff3f2f" data-cell-quartile="1"><rect x="34" y="117" width="48" height="20" fill="#000b77"/><text x="58" y="127" fill="#ffffff" font-size="16" text-anchor="middle" dominant-baseline="central">dws:</text><polygon points="34,117 44,117 34,127" fill="#ffffff"/></g><g data-channel="cell" data-cell-index="9" data-cell-row="2" data-cell-col="1" data-surround-bits="0x70eadd" data-edge-color="#000000"><rect x="94" y="117" width="48" height="20" fill="#5e3d10"/><text x="118" y="127" fill="#ffffff" font-size="16" text-anchor="middle" dominant-baseline="central">ED1e</text></g><g data-channel="cell" data-cell-index="10" data-cell-row="2" data-cell-col="2" data-surround-bits="0xcde4c2" data-edge-color="#2f3fbf"><rect x="154" y="117" width="48" height="20" fill="#f690f2"/><text x="178" y="127" fill="#000000" font-size="16" text-anchor="middle" dominant-baseline="central">8pD2</text></g><g data-channel="cell" data-cell-index="11" data-cell-row="2" data-cell-col="3" data-surround-bits="0xf6614" data-edge-color="#2f3fbf" data-cell-quartile="3"><rect x="214" y="117" width="48" height="20" fill="#9daae1"/><text x="238" y="127" fill="#000000" font-size="16" text-anchor="middle" dominant-baseline="central">4aqd</text><polygon points="262,137 262,127 252,137" fill="#000000"/></g><g data-channel="cell" data-cell-index="12" data-cell-row="3" data-cell-col="0" data-surround-bits="0x99f1c0" data-edge-color="#2f3fbf"><rect x="34" y="157" width="48" height="20" fill="#99d0d1"/><text x="58" y="167" fill="#000000" font-size="16" text-anchor="middle" dominant-baseline="central">0dCZ</text></g><g data-channel="cell" data-cell-index="13" data-cell-row="3" data-cell-col="1" data-surround-bits="0x227012" data-edge-color="#ff3f2f"><rect x="94" y="157" width="48" height="20" fill="#da014d"/><text x="118" y="167" fill="#ffffff" font-size="16" text-anchor="middle" dominant-baseline="central">TQHa</text></g><g data-channel="cell" data-cell-index="14" data-cell-row="3" data-cell-col="2" data-surround-bits="0xe191ca" data-edge-color="#e7be00"><rect x="154" y="157" width="48" height="20" fill="#dc971a"/><text x="178" y="167" fill="#000000" font-size="16" text-anchor="middle" dominant-baseline="central">Gpfc</text></g><g data-channel="cell" data-cell-index="15" data-cell-row="3" data-cell-col="3" data-surround-bits="0xfbe2e" data-edge-color="#e7be00"><rect x="214" y="157" width="48" height="20" fill="#c5e396"/><text x="238" y="167" fill="#000000" font-size="16" text-anchor="middle" dominant-baseline="central">luPF</text></g><g data-channel="cell" data-cell-index="16" data-cell-row="4" data-cell-col="0" data-surround-bits="0x8d7f23" data-edge-color="#ff3f2f"><rect x="34" y="197" width="48" height="20" fill="#a3660f"/><text x="58" y="207" fill="#ffffff" font-size="16" text-anchor="middle" dominant-baseline="central">D2aj</text></g><g data-channel="cell" data-cell-index="17" data-cell-row="4" data-cell-col="1" data-surround-bits="0x354961" data-edge-color="#e7be00" data-cell-quartile="4"><rect x="94" y="197" width="48" height="20" fill="#378618"/><text x="118" y="207" fill="#ffffff" font-size="16" text-anchor="middle" dominant-baseline="central">GIY3</text><polygon points="94,217 94,207 104,217" fill="#ffffff"/></g><g data-channel="cell" data-cell-index="18" data-cell-row="4" data-cell-col="2" data-surround-bits="0xe81799" data-edge-color="#000000"><rect x="154" y="197" width="48" height="20" fill="#041801"/><text x="178" y="207" fill="#ffffff" font-size="16" text-anchor="middle" dominant-baseline="central">ARgE</text></g><g data-channel="cell" data-cell-index="19" data-cell-row="4" data-cell-col="3" data-surround-bits="0x8d82d8" data-edge-color="#2f3fbf"><rect x="214" y="197" width="48" height="20" fill="#eb8be5"/><text x="238" y="207" fill="#000000" font-size="16" text-anchor="middle" dominant-baseline="central">5Yvr</text></g></g></g><g data-channel="color-bar" data-bar-slots="16" data-bar-marker-left="1" data-bar-marker-right="13"><g data-color-bar-rank="0" data-color-bar-band="R"><rect x="2" y="2" width="20" height="66.693" fill="#ff3f2f"/><text x="12" y="65.173" fill="#000000" font-size="16" text-anchor="middle" data-color-bar-letter="true">r</text></g><g data-color-bar-rank="1" data-color-bar-band="G"><rect x="2" y="68.693" width="20" height="79.465" fill="#e7be00"/><text x="12" y="144.638" fill="#000000" font-size="16" text-anchor="middle" data-color-bar-letter="true">g</text></g><g data-color-bar-rank="2" data-color-bar-band="K"><rect x="2" y="148.158" width="20" height="34.937" fill="#000000"/><text x="12" y="179.575" fill="#ffffff" font-size="16" text-anchor="middle" data-color-bar-letter="true">k</text></g><g data-color-bar-rank="3" data-color-bar-band="B"><rect x="2" y="183.095" width="20" height="48.905" fill="#2f3fbf"/><text x="12" y="228.48" fill="#ffffff" font-size="16" text-anchor="middle" data-color-bar-letter="true">b</text></g><circle cx="6.6" cy="23.562" r="3.4" fill="#ffffff" stroke="#000000" stroke-width="0.75" data-bar-marker="left"/><circle cx="17.4" cy="196.062" r="3.4" fill="#ffffff" stroke="#000000" stroke-width="0.75" data-bar-marker="right"/></g><g data-channel="label-top"><text x="28" y="17" fill="#666666" font-size="12" dominant-baseline="central">did:webs</text></g><line x1="1" y1="1.5" x2="274" y2="1.5" stroke="#808080" stroke-width="1" shape-rendering="crispEdges"/><line x1="273.5" y1="1" x2="273.5" y2="233" stroke="#808080" stroke-width="1" shape-rendering="crispEdges"/><line x1="1" y1="232.5" x2="274" y2="232.5" stroke="#808080" stroke-width="1" shape-rendering="crispEdges"/><line x1="1.5" y1="1" x2="1.5" y2="233" stroke="#808080" stroke-width="1" shape-rendering="crispEdges"/><line x1="22.5" y1="1" x2="22.5" y2="233" stroke="#808080" stroke-width="1" shape-rendering="crispEdges"/></svg>