<svg width="275" height="194" viewBox="0 0 275 194" xmlns="http://www.w3.org/2000/svg" font-family="&quot;JetBrains Mono&quot;, &quot;Menlo&quot;, &quot;Consolas&quot;, &quot;DejaVu Sans Mono&quot;, &quot;Liberation Mono&quot;, &quot;Roboto Mono&quot;, &quot;Noto Sans Mono&quot;, monospace" data-entviz-version="v14" data-entviz-lib="0.14.0" data-input-bytes="74" data-cols="4" data-rows="4" data-encoding="base64url" data-scheme="did" data-role="identifier" data-size-basis="utf8" data-entropy-type="did" data-size-bits="512" data-qualifiers="{&quot;method&quot;:&quot;prism&quot;}" data-parts="[{&quot;text&quot;:&quot;did:prism:&quot;,&quot;bind&quot;:&quot;fold&quot;},{&quot;text&quot;:&quot;9b5118411248d9663b6ab15128fba8106511230ff654e7514cdcc4ce919bde9b&quot;,&quot;bind&quot;:&quot;core&quot;}]"><defs><clipPath id="grid-clip-00c122264faeae48-4x4"><rect x="28" y="27" width="240" height="160"/></clipPath></defs><rect x="1" y="1" width="273" height="192" fill="#ffffff"/><g data-channel="grid"><rect x="28" y="27" width="240" height="160" fill="#ff3f2f"/><g><path fill="#2f3fbf" d="M34 27h6v10h-6zM58 27h6v10h-6zM76 27h6v10h-6zM70 57h6v10h-6zM64 57h6v10h-6z"/><path fill="#2f3fbf" d="M94 27h6v10h-6zM100 27h6v10h-6zM106 27h6v10h-6zM118 27h6v10h-6zM130 27h6v10h-6zM136 27h6v10h-6zM142 27h6v10h-6zM142 37h6v10h-6zM142 47h6v10h-6zM130 57h6v10h-6zM112 57h6v10h-6zM106 57h6v10h-6zM88 57h6v10h-6z"/><path fill="#ffffff" d="M172 27h6v10h-6zM190 27h6v10h-6zM202 47h6v10h-6zM190 57h6v10h-6zM172 57h6v10h-6zM166 57h6v10h-6zM160 57h6v10h-6zM148 57h6v10h-6zM148 37h6v10h-6z"/><path fill="#e7be00" d="M226 27h6v10h-6zM238 27h6v10h-6zM244 27h6v10h-6zM256 27h6v10h-6zM262 47h6v10h-6zM262 57h6v10h-6zM232 57h6v10h-6zM226 57h6v10h-6zM214 57h6v10h-6z"/><path fill="#ffffff" d="M40 67h6v10h-6zM58 67h6v10h-6zM70 67h6v10h-6zM82 67h6v10h-6zM82 87h6v10h-6zM82 97h6v10h-6zM70 97h6v10h-6zM64 97h6v10h-6zM58 97h6v10h-6zM52 97h6v10h-6zM46 97h6v10h-6zM40 97h6v10h-6zM34 97h6v10h-6zM28 97h6v10h-6zM28 87h6v10h-6z"/><path fill="#e7be00" d="M88 67h6v10h-6zM100 67h6v10h-6zM112 67h6v10h-6zM118 67h6v10h-6zM130 67h6v10h-6zM142 77h6v10h-6zM142 97h6v10h-6zM130 97h6v10h-6zM106 97h6v10h-6zM88 97h6v10h-6z"/><path fill="#ffffff" d="M178 67h6v10h-6zM196 67h6v10h-6zM202 77h6v10h-6zM202 87h6v10h-6zM202 97h6v10h-6zM184 97h6v10h-6zM178 97h6v10h-6zM172 97h6v10h-6zM166 97h6v10h-6zM160 97h6v10h-6z"/><path fill="#e7be00" d="M208 67h6v10h-6zM214 67h6v10h-6zM226 67h6v10h-6zM238 67h6v10h-6zM250 67h6v10h-6zM256 67h6v10h-6zM262 67h6v10h-6zM262 77h6v10h-6zM262 87h6v10h-6zM244 97h6v10h-6zM232 97h6v10h-6zM226 97h6v10h-6zM214 97h6v10h-6zM208 97h6v10h-6zM208 87h6v10h-6zM208 77h6v10h-6z"/><path fill="#2f3fbf" d="M28 107h6v10h-6zM34 107h6v10h-6zM52 107h6v10h-6zM82 107h6v10h-6zM82 117h6v10h-6zM82 127h6v10h-6zM70 137h6v10h-6zM64 137h6v10h-6zM52 137h6v10h-6zM28 137h6v10h-6zM28 117h6v10h-6z"/><path fill="#2f3fbf" d="M94 107h6v10h-6zM100 107h6v10h-6zM106 107h6v10h-6zM124 107h6v10h-6zM130 107h6v10h-6zM136 107h6v10h-6zM142 107h6v10h-6zM142 117h6v10h-6zM118 137h6v10h-6zM106 137h6v10h-6zM100 137h6v10h-6zM88 127h6v10h-6z"/><path fill="#2f3fbf" d="M148 107h6v10h-6zM160 107h6v10h-6zM172 107h6v10h-6zM190 107h6v10h-6zM202 127h6v10h-6zM202 137h6v10h-6zM178 137h6v10h-6zM172 137h6v10h-6zM166 137h6v10h-6zM148 117h6v10h-6z"/><path fill="#e7be00" d="M208 107h6v10h-6zM214 107h6v10h-6zM226 107h6v10h-6zM262 117h6v10h-6zM256 137h6v10h-6zM250 137h6v10h-6zM244 137h6v10h-6zM232 137h6v10h-6zM226 137h6v10h-6zM214 137h6v10h-6z"/><path fill="#ffffff" d="M34 147h6v10h-6zM40 147h6v10h-6zM64 147h6v10h-6zM70 147h6v10h-6zM76 147h6v10h-6zM82 167h6v10h-6zM64 177h6v10h-6zM58 177h6v10h-6zM46 177h6v10h-6zM40 177h6v10h-6zM28 167h6v10h-6zM28 157h6v10h-6z"/><path fill="#2f3fbf" d="M94 147h6v10h-6zM106 147h6v10h-6zM118 147h6v10h-6zM124 147h6v10h-6zM130 147h6v10h-6zM142 157h6v10h-6zM142 167h6v10h-6zM130 177h6v10h-6zM124 177h6v10h-6zM112 177h6v10h-6zM94 177h6v10h-6zM88 177h6v10h-6z"/><path fill="#2f3fbf" d="M154 147h6v10h-6zM160 147h6v10h-6zM178 147h6v10h-6zM202 157h6v10h-6zM196 177h6v10h-6zM190 177h6v10h-6zM148 177h6v10h-6zM148 157h6v10h-6z"/><path fill="#e7be00" d="M220 147h6v10h-6zM226 147h6v10h-6zM232 147h6v10h-6zM256 147h6v10h-6zM262 147h6v10h-6zM262 157h6v10h-6zM238 177h6v10h-6zM226 177h6v10h-6zM220 177h6v10h-6z"/></g><g clip-path="url(#grid-clip-00c122264faeae48-4x4)" data-channel="ellipse" data-ellipse-anchor-x="88" data-ellipse-anchor-y="67" data-ellipse-rx="47.593" data-ellipse-ry="57.977" data-ellipse-rotation-deg="0"><ellipse cx="88" cy="67" rx="47.593" ry="57.977" transform="rotate(0 88 67)" fill="#000000" stroke="#000000" fill-opacity="0.25" stroke-opacity="0.35" stroke-width="2"/></g><g><g data-channel="cell" data-cell-index="0" data-cell-row="0" data-cell-col="0" data-surround-bits="0xc122" data-edge-color="#2f3fbf"><rect x="34" y="37" width="48" height="20" fill="#75bef5"/><text x="58" y="47" fill="#000000" font-size="16" text-anchor="middle" dominant-baseline="central">9b51</text></g><g data-channel="cell" data-cell-index="1" data-cell-row="0" data-cell-col="1" data-surround-bits="0x264fae" data-edge-color="#2f3fbf"><rect x="94" y="37" width="48" height="20" fill="#35ced7"/><text x="118" y="47" fill="#000000" font-size="16" text-anchor="middle" dominant-baseline="central">1841</text></g><g data-channel="cell" data-cell-index="2" data-cell-row="0" data-cell-col="2" data-surround-bits="0xae4890" data-edge-color="#ffffff" data-cell-quartile="2"><rect x="154" y="37" width="48" height="20" fill="#3c6ed7"/><text x="178" y="47" fill="#ffffff" font-size="16" text-anchor="middle" dominant-baseline="central">1248</text><polygon points="202,37 192,37 202,47" fill="#ffffff"/></g><g data-channel="cell" data-cell-index="3" data-cell-row="0" data-cell-col="3" data-surround-bits="0x161968" data-edge-color="#e7be00" data-cell-quartile="4"><rect x="214" y="37" width="48" height="20" fill="#bade77"/><text x="238" y="47" fill="#000000" font-size="16" text-anchor="middle" dominant-baseline="central">d966</text><polygon points="214,57 214,47 224,57" fill="#000000"/></g><g data-channel="cell" data-cell-index="4" data-cell-row="1" data-cell-col="0" data-surround-bits="0x7fdaa4" data-edge-color="#ffffff"><rect x="34" y="77" width="48" height="20" fill="#9abedd"/><text x="58" y="87" fill="#000000" font-size="16" text-anchor="middle" dominant-baseline="central">3b6a</text></g><g data-channel="cell" data-cell-index="5" data-cell-row="1" data-cell-col="1" data-surround-bits="0x2454b5" data-edge-color="#e7be00" data-cell-quartile="1"><rect x="94" y="77" width="48" height="20" fill="#755e6f"/><text x="118" y="87" fill="#ffffff" font-size="16" text-anchor="middle" dominant-baseline="central">b151</text><polygon points="94,77 104,77 94,87" fill="#ffffff"/></g><g data-channel="cell" data-cell-index="6" data-cell-row="1" data-cell-col="2" data-surround-bits="0xf9d20" data-edge-color="#ffffff" data-cell-quartile="3"><rect x="154" y="77" width="48" height="20" fill="#dbc7db"/><text x="178" y="87" fill="#000000" font-size="16" text-anchor="middle" dominant-baseline="central">28fb</text><polygon points="202,97 202,87 192,97" fill="#000000"/></g><g data-channel="cell" data-cell-index="7" data-cell-row="1" data-cell-col="3" data-surround-bits="0xf68fab" data-edge-color="#e7be00"><rect x="214" y="77" width="48" height="20" fill="#74cd6b"/><text x="238" y="87" fill="#000000" font-size="16" text-anchor="middle" dominant-baseline="central">a810</text></g><g data-channel="cell" data-cell-index="8" data-cell-row="2" data-cell-col="0" data-surround-bits="0xa2ce13" data-edge-color="#2f3fbf"><rect x="34" y="117" width="48" height="20" fill="#759deb"/><text x="58" y="127" fill="#000000" font-size="16" text-anchor="middle" dominant-baseline="central">6511</text></g><g data-channel="cell" data-cell-index="9" data-cell-row="2" data-cell-col="1" data-surround-bits="0x4d07ce" data-edge-color="#2f3fbf"><rect x="94" y="117" width="48" height="20" fill="#1f7ddb"/><text x="118" y="127" fill="#ffffff" font-size="16" text-anchor="middle" dominant-baseline="central">230f</text></g><g data-channel="cell" data-cell-index="10" data-cell-row="2" data-cell-col="2" data-surround-bits="0x871895" data-edge-color="#2f3fbf"><rect x="154" y="117" width="48" height="20" fill="#78ae7f"/><text x="178" y="127" fill="#000000" font-size="16" text-anchor="middle" dominant-baseline="central">f654</text></g><g data-channel="cell" data-cell-index="11" data-cell-row="2" data-cell-col="3" data-surround-bits="0x16e40b" data-edge-color="#e7be00"><rect x="214" y="117" width="48" height="20" fill="#75be7b"/><text x="238" y="127" fill="#000000" font-size="16" text-anchor="middle" dominant-baseline="central">e751</text></g><g data-channel="cell" data-cell-index="12" data-cell-row="3" data-cell-col="0" data-surround-bits="0xcd89c6" data-edge-color="#ffffff"><rect x="34" y="157" width="48" height="20" fill="#5cc7e1"/><text x="58" y="167" fill="#000000" font-size="16" text-anchor="middle" dominant-baseline="central">4cdc</text></g><g data-channel="cell" data-cell-index="13" data-cell-row="3" data-cell-col="1" data-surround-bits="0x32ccea" data-edge-color="#2f3fbf"><rect x="94" y="157" width="48" height="20" fill="#1e8773"/><text x="118" y="167" fill="#ffffff" font-size="16" text-anchor="middle" dominant-baseline="central">c4ce</text></g><g data-channel="cell" data-cell-index="14" data-cell-row="3" data-cell-col="2" data-surround-bits="0xa06426" data-edge-color="#2f3fbf"><rect x="154" y="157" width="48" height="20" fill="#5b5ff7"/><text x="178" y="167" fill="#ffffff" font-size="16" text-anchor="middle" dominant-baseline="central">919b</text></g><g data-channel="cell" data-cell-index="15" data-cell-row="3" data-cell-col="3" data-surround-bits="0xd071c" data-edge-color="#e7be00"><rect x="214" y="157" width="48" height="20" fill="#5bef75"/><text x="238" y="167" fill="#000000" font-size="16" text-anchor="middle" dominant-baseline="central">de9b</text></g></g></g><g data-channel="color-bar" data-bar-slots="15" data-bar-marker-left="5" data-bar-marker-right="0"><g data-color-bar-rank="0" data-color-bar-band="W"><rect x="2" y="2" width="20" height="102.846" fill="#ffffff"/><text x="12" y="101.326" fill="#000000" font-size="16" text-anchor="middle" data-color-bar-letter="true">w</text></g><g data-color-bar-rank="1" data-color-bar-band="G"><rect x="2" y="104.846" width="20" height="27.037" fill="#e7be00"/><text x="12" y="128.363" fill="#000000" font-size="16" text-anchor="middle" data-color-bar-letter="true">g</text></g><g data-color-bar-rank="2" data-color-bar-band="K"><rect x="2" y="131.883" width="20" height="17.469" fill="#000000"/><text x="12" y="145.832" fill="#ffffff" font-size="16" text-anchor="middle" data-color-bar-letter="true">k</text></g><g data-color-bar-rank="3" data-color-bar-band="B"><rect x="2" y="149.352" width="20" height="42.648" fill="#2f3fbf"/><text x="12" y="188.48" fill="#ffffff" font-size="16" text-anchor="middle" data-color-bar-letter="true">b</text></g><circle cx="6.6" cy="71.667" r="3.4" fill="#ffffff" stroke="#000000" stroke-width="0.75" data-bar-marker="left"/><circle cx="17.4" cy="8.333" r="3.4" fill="#ffffff" stroke="#000000" stroke-width="0.75" data-bar-marker="right"/></g><g data-channel="label-top"><text x="28" y="17" fill="#666666" font-size="12" dominant-baseline="central">did:prism</text></g><line x1="1" y1="1.5" x2="274" y2="1.5" stroke="#808080" stroke-width="1" shape-rendering="crispEdges"/><line x1="273.5" y1="1" x2="273.5" y2="193" stroke="#808080" stroke-width="1" shape-rendering="crispEdges"/><line x1="1" y1="192.5" x2="274" y2="192.5" stroke="#808080" stroke-width="1" shape-rendering="crispEdges"/><line x1="1.5" y1="1" x2="1.5" y2="193" stroke="#808080" stroke-width="1" shape-rendering="crispEdges"/><line x1="22.5" y1="1" x2="22.5" y2="193" stroke="#808080" stroke-width="1" shape-rendering="crispEdges"/></svg>