<svg width="215" height="194" viewBox="0 0 215 194" xmlns="http://www.w3.org/2000/svg" font-family="&quot;JetBrains Mono&quot;, &quot;Menlo&quot;, &quot;Consolas&quot;, &quot;DejaVu Sans Mono&quot;, &quot;Liberation Mono&quot;, &quot;Roboto Mono&quot;, &quot;Noto Sans Mono&quot;, monospace" data-entviz-version="v15" data-entviz-lib="0.15.1" data-input-bytes="53" data-cols="3" data-rows="4" data-encoding="base64url" data-scheme="did" data-role="identifier" data-size-basis="utf8" data-entropy-type="did" data-size-bits="352" data-qualifiers="{&quot;method&quot;:&quot;keri&quot;}" data-parts="[{&quot;text&quot;:&quot;did:keri:&quot;,&quot;bind&quot;:&quot;fold&quot;},{&quot;text&quot;:&quot;EBDCrJM9thBcC3hYZSzKGo-Iv53zQY9KIYEDhN0g5DnV&quot;,&quot;bind&quot;:&quot;core&quot;}]"><defs><clipPath id="grid-clip-cdf9fd1d36e3af72-3x4"><rect x="28" y="27" width="180" height="160"/></clipPath></defs><rect x="1" y="1" width="213" height="192" fill="#ffffff"/><g data-channel="grid"><rect x="28" y="27" width="180" height="160" fill="#e7be00"/><g><path fill="#ff3f2f" d="M28 27h6v10h-6zM40 27h6v10h-6zM46 27h6v10h-6zM52 27h6v10h-6zM58 27h6v10h-6zM64 27h6v10h-6zM70 27h6v10h-6zM76 27h6v10h-6zM82 47h6v10h-6zM82 57h6v10h-6zM76 57h6v10h-6zM70 57h6v10h-6zM64 57h6v10h-6zM58 57h6v10h-6zM46 57h6v10h-6zM40 57h6v10h-6zM28 47h6v10h-6zM28 37h6v10h-6z"/><path fill="#2f3fbf" d="M88 27h6v10h-6zM94 27h6v10h-6zM118 27h6v10h-6zM124 27h6v10h-6zM130 27h6v10h-6zM142 27h6v10h-6zM142 37h6v10h-6zM142 57h6v10h-6zM136 57h6v10h-6zM118 57h6v10h-6zM106 57h6v10h-6zM100 57h6v10h-6zM94 57h6v10h-6z"/><path fill="#ffffff" d="M166 27h6v10h-6zM172 27h6v10h-6zM178 27h6v10h-6zM202 27h6v10h-6zM202 57h6v10h-6zM196 57h6v10h-6zM190 57h6v10h-6zM178 57h6v10h-6zM172 57h6v10h-6zM166 57h6v10h-6zM160 57h6v10h-6zM148 57h6v10h-6zM148 37h6v10h-6z"/><path fill="#ff3f2f" d="M28 67h6v10h-6zM40 67h6v10h-6zM46 67h6v10h-6zM64 67h6v10h-6zM70 67h6v10h-6zM82 77h6v10h-6zM82 87h6v10h-6zM76 97h6v10h-6zM70 97h6v10h-6zM64 97h6v10h-6zM40 97h6v10h-6zM28 87h6v10h-6zM28 77h6v10h-6z"/><path fill="#ff3f2f" d="M112 67h6v10h-6zM124 67h6v10h-6zM130 67h6v10h-6zM136 67h6v10h-6zM142 77h6v10h-6zM136 97h6v10h-6zM130 97h6v10h-6zM118 97h6v10h-6zM106 97h6v10h-6zM88 87h6v10h-6z"/><path fill="#ff3f2f" d="M172 67h6v10h-6zM184 67h6v10h-6zM202 77h6v10h-6zM202 97h6v10h-6zM190 97h6v10h-6zM184 97h6v10h-6zM166 97h6v10h-6zM160 97h6v10h-6z"/><path fill="#ffffff" d="M28 107h6v10h-6zM40 107h6v10h-6zM46 107h6v10h-6zM52 107h6v10h-6zM82 107h6v10h-6zM82 117h6v10h-6zM82 127h6v10h-6zM82 137h6v10h-6zM76 137h6v10h-6zM52 137h6v10h-6zM40 137h6v10h-6zM28 117h6v10h-6z"/><path fill="#2f3fbf" d="M94 107h6v10h-6zM100 107h6v10h-6zM106 107h6v10h-6zM130 107h6v10h-6zM136 107h6v10h-6zM142 107h6v10h-6zM142 117h6v10h-6zM142 127h6v10h-6zM136 137h6v10h-6zM118 137h6v10h-6zM112 137h6v10h-6zM106 137h6v10h-6zM88 137h6v10h-6zM88 127h6v10h-6zM88 117h6v10h-6z"/><path fill="#000000" d="M148 107h6v10h-6zM154 107h6v10h-6zM166 107h6v10h-6zM178 107h6v10h-6zM202 107h6v10h-6zM202 117h6v10h-6zM202 127h6v10h-6zM196 137h6v10h-6zM184 137h6v10h-6zM178 137h6v10h-6zM172 137h6v10h-6zM160 137h6v10h-6zM148 127h6v10h-6zM148 117h6v10h-6z"/><path fill="#2f3fbf" d="M52 147h6v10h-6zM58 147h6v10h-6zM64 147h6v10h-6zM82 157h6v10h-6zM70 177h6v10h-6zM58 177h6v10h-6zM40 177h6v10h-6zM28 167h6v10h-6z"/><path fill="#2f3fbf" d="M148 147h6v10h-6zM160 147h6v10h-6zM166 147h6v10h-6zM178 147h6v10h-6zM184 147h6v10h-6zM196 147h6v10h-6zM202 157h6v10h-6zM202 167h6v10h-6zM202 177h6v10h-6zM190 177h6v10h-6zM166 177h6v10h-6zM160 177h6v10h-6zM148 167h6v10h-6z"/></g><g clip-path="url(#grid-clip-cdf9fd1d36e3af72-3x4)" data-channel="ellipse" data-ellipse-anchor-x="148" data-ellipse-anchor-y="67" data-ellipse-rx="73.992" data-ellipse-ry="45.481" data-ellipse-rotation-deg="96"><ellipse cx="148" cy="67" rx="73.992" ry="45.481" transform="rotate(96 148 67)" fill="#000000" stroke="#000000" fill-opacity="0.2" stroke-opacity="0.3" stroke-width="2"/></g><g><g data-channel="cell" data-cell-index="0" data-cell-row="0" data-cell-col="0" data-surround-bits="0xcdf9fd" data-edge-color="#ff3f2f"><rect x="34" y="37" width="48" height="20" fill="#c21010"/><text x="58" y="47" fill="#ffffff" font-size="16" text-anchor="middle" dominant-baseline="central">EBDC</text></g><g data-channel="cell" data-cell-index="1" data-cell-row="0" data-cell-col="1" data-surround-bits="0x1d36e3" data-edge-color="#2f3fbf"><rect x="94" y="37" width="48" height="20" fill="#3d93ac"/><text x="118" y="47" fill="#000000" font-size="16" text-anchor="middle" dominant-baseline="central">rJM9</text></g><g data-channel="cell" data-cell-index="2" data-cell-row="0" data-cell-col="2" data-surround-bits="0xaf7238" data-edge-color="#ffffff" data-cell-quartile="1"><rect x="154" y="37" width="48" height="20" fill="#5c10b6"/><text x="178" y="47" fill="#ffffff" font-size="16" text-anchor="middle" dominant-baseline="central">thBc</text><polygon points="154,37 164,37 154,47" fill="#ffffff"/></g><g data-channel="cell" data-cell-index="3" data-cell-row="1" data-cell-col="0" data-surround-bits="0xc8eccd" data-edge-color="#ff3f2f"><rect x="34" y="77" width="48" height="20" fill="#58780b"/><text x="58" y="87" fill="#ffffff" font-size="16" text-anchor="middle" dominant-baseline="central">C3hY</text></g><g data-channel="cell" data-cell-index="4" data-cell-row="1" data-cell-col="1" data-surround-bits="0x4565d0" data-edge-color="#ff3f2f"><rect x="94" y="77" width="48" height="20" fill="#ca2c65"/><text x="118" y="87" fill="#ffffff" font-size="16" text-anchor="middle" dominant-baseline="central">ZSzK</text></g><g data-channel="cell" data-cell-index="5" data-cell-row="1" data-cell-col="2" data-surround-bits="0xcd450" data-edge-color="#ff3f2f"><rect x="154" y="77" width="48" height="20" fill="#888f1a"/><text x="178" y="87" fill="#000000" font-size="16" text-anchor="middle" dominant-baseline="central">Go-I</text></g><g data-channel="cell" data-cell-index="6" data-cell-row="2" data-cell-col="0" data-surround-bits="0x8a3e1d" data-edge-color="#ffffff" data-cell-quartile="3"><rect x="34" y="117" width="48" height="20" fill="#f39dbf"/><text x="58" y="127" fill="#000000" font-size="16" text-anchor="middle" dominant-baseline="central">v53z</text><polygon points="82,137 82,127 72,137" fill="#000000"/></g><g data-channel="cell" data-cell-index="7" data-cell-row="2" data-cell-col="1" data-surround-bits="0xe72f8e" data-edge-color="#2f3fbf" data-cell-quartile="2"><rect x="94" y="117" width="48" height="20" fill="#4a8f41"/><text x="118" y="127" fill="#ffffff" font-size="16" text-anchor="middle" dominant-baseline="central">QY9K</text><polygon points="142,117 132,117 142,127" fill="#ffffff"/></g><g data-channel="cell" data-cell-index="8" data-cell-row="2" data-cell-col="2" data-surround-bits="0xcbae2b" data-edge-color="#000000"><rect x="154" y="117" width="48" height="20" fill="#038121"/><text x="178" y="127" fill="#ffffff" font-size="16" text-anchor="middle" dominant-baseline="central">IYED</text></g><g data-channel="cell" data-cell-index="9" data-cell-row="3" data-cell-col="0" data-surround-bits="0x494470" data-edge-color="#2f3fbf"><rect x="34" y="157" width="48" height="20" fill="#20dd84"/><text x="58" y="167" fill="#000000" font-size="16" text-anchor="middle" dominant-baseline="central">hN0g</text></g><g data-channel="cell" data-cell-index="10" data-cell-row="3" data-cell-col="1" data-cell-blank="true" data-cell-blank-map="true"><rect x="94" y="157" width="48" height="20" rx="10" ry="10" fill="#ff3f2f" stroke="#000000" stroke-width="1"/><circle cx="134" cy="164.5" r="3.5" fill="#000000" data-blank-map-min="1,2"/><path d="M 113.8,169.5 H 122.2 M 118,165.3 V 173.7" fill="none" stroke="#000000" stroke-width="1.925" stroke-linecap="butt" data-blank-map-max="2,1"/></g><g data-channel="cell" data-cell-index="11" data-cell-row="3" data-cell-col="2" data-surround-bits="0x4c5d6d" data-edge-color="#2f3fbf" data-cell-quartile="4"><rect x="154" y="157" width="48" height="20" fill="#d539e4"/><text x="178" y="167" fill="#000000" font-size="16" text-anchor="middle" dominant-baseline="central">5DnV</text><polygon points="154,177 154,167 164,177" fill="#000000"/></g></g></g><g data-channel="color-bar" data-bar-slots="15" data-bar-marker-left="7" data-bar-marker-right="6"><g data-color-bar-rank="0" data-color-bar-band="R"><rect x="2" y="2" width="20" height="75.416" fill="#ff3f2f"/><text x="12" y="73.896" fill="#000000" font-size="16" text-anchor="middle" data-color-bar-letter="true">r</text></g><g data-color-bar-rank="1" data-color-bar-band="K"><rect x="2" y="77.416" width="20" height="53.514" fill="#000000"/><text x="12" y="127.41" fill="#ffffff" font-size="16" text-anchor="middle" data-color-bar-letter="true">k</text></g><g data-color-bar-rank="2" data-color-bar-band="W"><rect x="2" y="130.93" width="20" height="36.77" fill="#ffffff"/><text x="12" y="164.179" fill="#000000" font-size="16" text-anchor="middle" data-color-bar-letter="true">w</text></g><g data-color-bar-rank="3" data-color-bar-band="B"><rect x="2" y="167.699" width="20" height="24.301" fill="#2f3fbf"/><text x="12" y="188.48" fill="#ffffff" font-size="16" text-anchor="middle" data-color-bar-letter="true">b</text></g><circle cx="6.6" cy="97" r="3.4" fill="#ffffff" stroke="#000000" stroke-width="0.75" data-bar-marker="left"/><circle cx="17.4" cy="84.333" r="3.4" fill="#ffffff" stroke="#000000" stroke-width="0.75" data-bar-marker="right"/></g><g data-channel="label-top"><text x="28" y="17" fill="#666666" font-size="12" dominant-baseline="central">did:keri</text></g><line x1="1" y1="1.5" x2="214" y2="1.5" stroke="#808080" stroke-width="1" shape-rendering="crispEdges"/><line x1="213.5" y1="1" x2="213.5" y2="193" stroke="#808080" stroke-width="1" shape-rendering="crispEdges"/><line x1="1" y1="192.5" x2="214" y2="192.5" stroke="#808080" stroke-width="1" shape-rendering="crispEdges"/><line x1="1.5" y1="1" x2="1.5" y2="193" stroke="#808080" stroke-width="1" shape-rendering="crispEdges"/><line x1="22.5" y1="1" x2="22.5" y2="193" stroke="#808080" stroke-width="1" shape-rendering="crispEdges"/></svg>