<svg width="273" height="192" viewBox="0 0 273 192" xmlns="http://www.w3.org/2000/svg" font-family="&quot;JetBrains Mono&quot;, &quot;Menlo&quot;, &quot;Consolas&quot;, &quot;DejaVu Sans Mono&quot;, &quot;Liberation Mono&quot;, &quot;Roboto Mono&quot;, &quot;Noto Sans Mono&quot;, monospace" data-entviz-version="v11" data-entviz-lib="0.11.0" data-input-bytes="74" data-cols="4" data-rows="4"><defs><clipPath id="grid-clip-00c122264faeae48-4x4"><rect x="27" y="26" width="240" height="160"/></clipPath></defs><rect x="0" y="0" width="273" height="192" fill="#ffffff"/><g data-channel="grid"><rect x="27" y="26" width="240" height="160" fill="#ff3f2f"/><g><path fill="#2f3fbf" d="M33 26h6v10h-6zM57 26h6v10h-6zM75 26h6v10h-6zM69 56h6v10h-6zM63 56h6v10h-6z"/><path fill="#2f3fbf" d="M93 26h6v10h-6zM99 26h6v10h-6zM105 26h6v10h-6zM117 26h6v10h-6zM129 26h6v10h-6zM135 26h6v10h-6zM141 26h6v10h-6zM141 36h6v10h-6zM141 46h6v10h-6zM129 56h6v10h-6zM111 56h6v10h-6zM105 56h6v10h-6zM87 56h6v10h-6z"/><path fill="#ffffff" d="M171 26h6v10h-6zM189 26h6v10h-6zM201 46h6v10h-6zM189 56h6v10h-6zM171 56h6v10h-6zM165 56h6v10h-6zM159 56h6v10h-6zM147 56h6v10h-6zM147 36h6v10h-6z"/><path fill="#e7be00" d="M225 26h6v10h-6zM237 26h6v10h-6zM243 26h6v10h-6zM255 26h6v10h-6zM261 46h6v10h-6zM261 56h6v10h-6zM231 56h6v10h-6zM225 56h6v10h-6zM213 56h6v10h-6z"/><path fill="#ffffff" d="M39 66h6v10h-6zM57 66h6v10h-6zM69 66h6v10h-6zM81 66h6v10h-6zM81 86h6v10h-6zM81 96h6v10h-6zM69 96h6v10h-6zM63 96h6v10h-6zM57 96h6v10h-6zM51 96h6v10h-6zM45 96h6v10h-6zM39 96h6v10h-6zM33 96h6v10h-6zM27 96h6v10h-6zM27 86h6v10h-6z"/><path fill="#e7be00" d="M87 66h6v10h-6zM99 66h6v10h-6zM111 66h6v10h-6zM117 66h6v10h-6zM129 66h6v10h-6zM141 76h6v10h-6zM141 96h6v10h-6zM129 96h6v10h-6zM105 96h6v10h-6zM87 96h6v10h-6z"/><path fill="#ffffff" d="M177 66h6v10h-6zM195 66h6v10h-6zM201 76h6v10h-6zM201 86h6v10h-6zM201 96h6v10h-6zM183 96h6v10h-6zM177 96h6v10h-6zM171 96h6v10h-6zM165 96h6v10h-6zM159 96h6v10h-6z"/><path fill="#e7be00" d="M207 66h6v10h-6zM213 66h6v10h-6zM225 66h6v10h-6zM237 66h6v10h-6zM249 66h6v10h-6zM255 66h6v10h-6zM261 66h6v10h-6zM261 76h6v10h-6zM261 86h6v10h-6zM243 96h6v10h-6zM231 96h6v10h-6zM225 96h6v10h-6zM213 96h6v10h-6zM207 96h6v10h-6zM207 86h6v10h-6zM207 76h6v10h-6z"/><path fill="#2f3fbf" d="M27 106h6v10h-6zM33 106h6v10h-6zM51 106h6v10h-6zM81 106h6v10h-6zM81 116h6v10h-6zM81 126h6v10h-6zM69 136h6v10h-6zM63 136h6v10h-6zM51 136h6v10h-6zM27 136h6v10h-6zM27 116h6v10h-6z"/><path fill="#2f3fbf" d="M93 106h6v10h-6zM99 106h6v10h-6zM105 106h6v10h-6zM123 106h6v10h-6zM129 106h6v10h-6zM135 106h6v10h-6zM141 106h6v10h-6zM141 116h6v10h-6zM117 136h6v10h-6zM105 136h6v10h-6zM99 136h6v10h-6zM87 126h6v10h-6z"/><path fill="#2f3fbf" d="M147 106h6v10h-6zM159 106h6v10h-6zM171 106h6v10h-6zM189 106h6v10h-6zM201 126h6v10h-6zM201 136h6v10h-6zM177 136h6v10h-6zM171 136h6v10h-6zM165 136h6v10h-6zM147 116h6v10h-6z"/><path fill="#e7be00" d="M207 106h6v10h-6zM213 106h6v10h-6zM225 106h6v10h-6zM261 116h6v10h-6zM255 136h6v10h-6zM249 136h6v10h-6zM243 136h6v10h-6zM231 136h6v10h-6zM225 136h6v10h-6zM213 136h6v10h-6z"/><path fill="#ffffff" d="M33 146h6v10h-6zM39 146h6v10h-6zM63 146h6v10h-6zM69 146h6v10h-6zM75 146h6v10h-6zM81 166h6v10h-6zM63 176h6v10h-6zM57 176h6v10h-6zM45 176h6v10h-6zM39 176h6v10h-6zM27 166h6v10h-6zM27 156h6v10h-6z"/><path fill="#2f3fbf" d="M93 146h6v10h-6zM105 146h6v10h-6zM117 146h6v10h-6zM123 146h6v10h-6zM129 146h6v10h-6zM141 156h6v10h-6zM141 166h6v10h-6zM129 176h6v10h-6zM123 176h6v10h-6zM111 176h6v10h-6zM93 176h6v10h-6zM87 176h6v10h-6z"/><path fill="#2f3fbf" d="M153 146h6v10h-6zM159 146h6v10h-6zM177 146h6v10h-6zM201 156h6v10h-6zM195 176h6v10h-6zM189 176h6v10h-6zM147 176h6v10h-6zM147 156h6v10h-6z"/><path fill="#e7be00" d="M219 146h6v10h-6zM225 146h6v10h-6zM231 146h6v10h-6zM255 146h6v10h-6zM261 146h6v10h-6zM261 156h6v10h-6zM237 176h6v10h-6zM225 176h6v10h-6zM219 176h6v10h-6z"/></g><g clip-path="url(#grid-clip-00c122264faeae48-4x4)" data-channel="ellipse" data-ellipse-anchor-x="87" data-ellipse-anchor-y="66" data-ellipse-rx="47.593" data-ellipse-ry="57.977" data-ellipse-rotation-deg="0"><ellipse cx="87" cy="66" rx="47.593" ry="57.977" transform="rotate(0 87 66)" fill="#000000" stroke="#000000" fill-opacity="0.25" stroke-opacity="0.35" stroke-width="2"/></g><g><g data-channel="cell" data-cell-index="0" data-cell-row="0" data-cell-col="0" data-surround-bits="0xc122" data-edge-color="#2f3fbf"><rect x="33" y="36" width="48" height="20" fill="#75bef5"/><text x="57" y="46" fill="#000000" font-size="16" text-anchor="middle" dominant-baseline="central">9b51</text></g><g data-channel="cell" data-cell-index="1" data-cell-row="0" data-cell-col="1" data-surround-bits="0x264fae" data-edge-color="#2f3fbf"><rect x="93" y="36" width="48" height="20" fill="#35ced7"/><text x="117" y="46" fill="#000000" font-size="16" text-anchor="middle" dominant-baseline="central">1841</text></g><g data-channel="cell" data-cell-index="2" data-cell-row="0" data-cell-col="2" data-surround-bits="0xae4890" data-edge-color="#ffffff" data-cell-quartile="2"><rect x="153" y="36" width="48" height="20" fill="#3c6ed7"/><text x="177" y="46" fill="#ffffff" font-size="16" text-anchor="middle" dominant-baseline="central">1248</text><polygon points="201,36 191,36 201,46" fill="#ffffff"/></g><g data-channel="cell" data-cell-index="3" data-cell-row="0" data-cell-col="3" data-surround-bits="0x161968" data-edge-color="#e7be00" data-cell-quartile="4"><rect x="213" y="36" width="48" height="20" fill="#bade77"/><text x="237" y="46" fill="#000000" font-size="16" text-anchor="middle" dominant-baseline="central">d966</text><polygon points="213,56 213,46 223,56" fill="#000000"/></g><g data-channel="cell" data-cell-index="4" data-cell-row="1" data-cell-col="0" data-surround-bits="0x7fdaa4" data-edge-color="#ffffff"><rect x="33" y="76" width="48" height="20" fill="#9abedd"/><text x="57" y="86" fill="#000000" font-size="16" text-anchor="middle" dominant-baseline="central">3b6a</text></g><g data-channel="cell" data-cell-index="5" data-cell-row="1" data-cell-col="1" data-surround-bits="0x2454b5" data-edge-color="#e7be00" data-cell-quartile="1"><rect x="93" y="76" width="48" height="20" fill="#755e6f"/><text x="117" y="86" fill="#ffffff" font-size="16" text-anchor="middle" dominant-baseline="central">b151</text><polygon points="93,76 103,76 93,86" fill="#ffffff"/></g><g data-channel="cell" data-cell-index="6" data-cell-row="1" data-cell-col="2" data-surround-bits="0xf9d20" data-edge-color="#ffffff" data-cell-quartile="3"><rect x="153" y="76" width="48" height="20" fill="#dbc7db"/><text x="177" y="86" fill="#000000" font-size="16" text-anchor="middle" dominant-baseline="central">28fb</text><polygon points="201,96 201,86 191,96" fill="#000000"/></g><g data-channel="cell" data-cell-index="7" data-cell-row="1" data-cell-col="3" data-surround-bits="0xf68fab" data-edge-color="#e7be00"><rect x="213" y="76" width="48" height="20" fill="#74cd6b"/><text x="237" y="86" fill="#000000" font-size="16" text-anchor="middle" dominant-baseline="central">a810</text></g><g data-channel="cell" data-cell-index="8" data-cell-row="2" data-cell-col="0" data-surround-bits="0xa2ce13" data-edge-color="#2f3fbf"><rect x="33" y="116" width="48" height="20" fill="#759deb"/><text x="57" y="126" fill="#000000" font-size="16" text-anchor="middle" dominant-baseline="central">6511</text></g><g data-channel="cell" data-cell-index="9" data-cell-row="2" data-cell-col="1" data-surround-bits="0x4d07ce" data-edge-color="#2f3fbf"><rect x="93" y="116" width="48" height="20" fill="#1f7ddb"/><text x="117" y="126" fill="#ffffff" font-size="16" text-anchor="middle" dominant-baseline="central">230f</text></g><g data-channel="cell" data-cell-index="10" data-cell-row="2" data-cell-col="2" data-surround-bits="0x871895" data-edge-color="#2f3fbf"><rect x="153" y="116" width="48" height="20" fill="#78ae7f"/><text x="177" y="126" fill="#000000" font-size="16" text-anchor="middle" dominant-baseline="central">f654</text></g><g data-channel="cell" data-cell-index="11" data-cell-row="2" data-cell-col="3" data-surround-bits="0x16e40b" data-edge-color="#e7be00"><rect x="213" y="116" width="48" height="20" fill="#75be7b"/><text x="237" y="126" fill="#000000" font-size="16" text-anchor="middle" dominant-baseline="central">e751</text></g><g data-channel="cell" data-cell-index="12" data-cell-row="3" data-cell-col="0" data-surround-bits="0xcd89c6" data-edge-color="#ffffff"><rect x="33" y="156" width="48" height="20" fill="#5cc7e1"/><text x="57" y="166" fill="#000000" font-size="16" text-anchor="middle" dominant-baseline="central">4cdc</text></g><g data-channel="cell" data-cell-index="13" data-cell-row="3" data-cell-col="1" data-surround-bits="0x32ccea" data-edge-color="#2f3fbf"><rect x="93" y="156" width="48" height="20" fill="#1e8773"/><text x="117" y="166" fill="#ffffff" font-size="16" text-anchor="middle" dominant-baseline="central">c4ce</text></g><g data-channel="cell" data-cell-index="14" data-cell-row="3" data-cell-col="2" data-surround-bits="0xa06426" data-edge-color="#2f3fbf"><rect x="153" y="156" width="48" height="20" fill="#5b5ff7"/><text x="177" y="166" fill="#ffffff" font-size="16" text-anchor="middle" dominant-baseline="central">919b</text></g><g data-channel="cell" data-cell-index="15" data-cell-row="3" data-cell-col="3" data-surround-bits="0xd071c" data-edge-color="#e7be00"><rect x="213" y="156" width="48" height="20" fill="#5bef75"/><text x="237" y="166" fill="#000000" font-size="16" text-anchor="middle" dominant-baseline="central">de9b</text></g></g></g><g data-channel="color-bar" data-bar-slots="15" data-bar-marker-left="5" data-bar-marker-right="0"><g data-color-bar-rank="0" data-color-bar-band="W"><rect x="1" y="1" width="20" height="102.846" fill="#ffffff"/><text x="11" y="100.326" fill="#000000" font-size="16" text-anchor="middle" data-color-bar-letter="true">w</text></g><g data-color-bar-rank="1" data-color-bar-band="G"><rect x="1" y="103.846" width="20" height="27.037" fill="#e7be00"/><text x="11" y="127.363" fill="#000000" font-size="16" text-anchor="middle" data-color-bar-letter="true">g</text></g><g data-color-bar-rank="2" data-color-bar-band="K"><rect x="1" y="130.883" width="20" height="17.469" fill="#000000"/><text x="11" y="144.832" fill="#ffffff" font-size="16" text-anchor="middle" data-color-bar-letter="true">k</text></g><g data-color-bar-rank="3" data-color-bar-band="B"><rect x="1" y="148.352" width="20" height="42.648" fill="#2f3fbf"/><text x="11" y="187.48" fill="#ffffff" font-size="16" text-anchor="middle" data-color-bar-letter="true">b</text></g><circle cx="5.6" cy="70.667" r="3.4" fill="#ffffff" stroke="#000000" stroke-width="0.75" data-bar-marker="left"/><circle cx="16.4" cy="7.333" r="3.4" fill="#ffffff" stroke="#000000" stroke-width="0.75" data-bar-marker="right"/></g><g data-channel="label-top"><text x="27" y="16" fill="#666666" font-size="12" dominant-baseline="central">did:prism:...</text></g><line x1="0" y1="0.5" x2="273" y2="0.5" stroke="#808080" stroke-width="1" shape-rendering="crispEdges"/><line x1="272.5" y1="0" x2="272.5" y2="192" stroke="#808080" stroke-width="1" shape-rendering="crispEdges"/><line x1="0" y1="191.5" x2="273" y2="191.5" stroke="#808080" stroke-width="1" shape-rendering="crispEdges"/><line x1="0.5" y1="0" x2="0.5" y2="192" stroke="#808080" stroke-width="1" shape-rendering="crispEdges"/><line x1="21.5" y1="0" x2="21.5" y2="192" stroke="#808080" stroke-width="1" shape-rendering="crispEdges"/></svg>