<svg width="213" height="192" viewBox="0 0 213 192" xmlns="http://www.w3.org/2000/svg" font-family="&quot;JetBrains Mono&quot;, &quot;Menlo&quot;, &quot;Consolas&quot;, &quot;DejaVu Sans Mono&quot;, &quot;Liberation Mono&quot;, &quot;Roboto Mono&quot;, &quot;Noto Sans Mono&quot;, monospace" data-entviz-version="v11" data-entviz-lib="0.11.0" data-input-bytes="54" data-cols="3" data-rows="4"><defs><clipPath id="grid-clip-a4a035dd2871346b-3x4"><rect x="27" y="26" width="180" height="160"/></clipPath></defs><rect x="0" y="0" width="213" height="192" fill="#ffffff"/><g data-channel="grid"><rect x="27" y="26" width="180" height="160" fill="#ff3f2f"/><g><path fill="#e7be00" d="M27 26h6v10h-6zM39 26h6v10h-6zM51 26h6v10h-6zM57 26h6v10h-6zM75 56h6v10h-6zM63 56h6v10h-6zM45 56h6v10h-6zM27 56h6v10h-6zM27 36h6v10h-6z"/><path fill="#ffffff" d="M87 26h6v10h-6zM111 26h6v10h-6zM117 26h6v10h-6zM123 26h6v10h-6zM141 46h6v10h-6zM135 56h6v10h-6zM117 56h6v10h-6zM105 56h6v10h-6zM99 56h6v10h-6zM93 56h6v10h-6zM87 46h6v10h-6zM87 36h6v10h-6z"/><path fill="#ffffff" d="M183 26h6v10h-6zM195 26h6v10h-6zM201 26h6v10h-6zM201 46h6v10h-6zM195 56h6v10h-6zM189 56h6v10h-6zM165 56h6v10h-6zM153 56h6v10h-6zM147 56h6v10h-6z"/><path fill="#2f3fbf" d="M27 66h6v10h-6zM33 66h6v10h-6zM39 66h6v10h-6zM57 66h6v10h-6zM63 66h6v10h-6zM69 66h6v10h-6zM81 86h6v10h-6zM57 96h6v10h-6zM45 96h6v10h-6zM39 96h6v10h-6zM33 96h6v10h-6zM27 76h6v10h-6z"/><path fill="#ffffff" d="M93 66h6v10h-6zM99 66h6v10h-6zM105 66h6v10h-6zM111 66h6v10h-6zM123 66h6v10h-6zM129 66h6v10h-6zM141 66h6v10h-6zM141 96h6v10h-6zM123 96h6v10h-6zM117 96h6v10h-6zM111 96h6v10h-6zM99 96h6v10h-6zM93 96h6v10h-6zM87 96h6v10h-6zM87 86h6v10h-6zM87 76h6v10h-6z"/><path fill="#ffffff" d="M159 66h6v10h-6zM165 66h6v10h-6zM171 66h6v10h-6zM177 66h6v10h-6zM189 66h6v10h-6zM195 66h6v10h-6zM201 66h6v10h-6zM201 86h6v10h-6zM201 96h6v10h-6zM189 96h6v10h-6zM183 96h6v10h-6zM171 96h6v10h-6zM159 96h6v10h-6zM147 96h6v10h-6zM147 86h6v10h-6z"/><path fill="#ffffff" d="M39 106h6v10h-6zM45 106h6v10h-6zM51 106h6v10h-6zM63 106h6v10h-6zM69 106h6v10h-6zM75 106h6v10h-6zM81 116h6v10h-6zM81 126h6v10h-6zM75 136h6v10h-6zM69 136h6v10h-6zM57 136h6v10h-6zM45 136h6v10h-6zM39 136h6v10h-6zM27 116h6v10h-6z"/><path fill="#2f3fbf" d="M99 106h6v10h-6zM105 106h6v10h-6zM111 106h6v10h-6zM117 106h6v10h-6zM129 106h6v10h-6zM141 116h6v10h-6zM141 136h6v10h-6zM117 136h6v10h-6zM105 136h6v10h-6zM93 136h6v10h-6zM87 136h6v10h-6z"/><path fill="#2f3fbf" d="M147 106h6v10h-6zM159 106h6v10h-6zM165 106h6v10h-6zM171 106h6v10h-6zM183 106h6v10h-6zM201 116h6v10h-6zM201 126h6v10h-6zM195 136h6v10h-6zM183 136h6v10h-6zM177 136h6v10h-6zM165 136h6v10h-6zM147 136h6v10h-6zM147 126h6v10h-6zM147 116h6v10h-6z"/><path fill="#e7be00" d="M93 146h6v10h-6zM99 146h6v10h-6zM117 146h6v10h-6zM129 146h6v10h-6zM135 146h6v10h-6zM141 146h6v10h-6zM141 176h6v10h-6zM129 176h6v10h-6zM123 176h6v10h-6zM117 176h6v10h-6zM111 176h6v10h-6zM105 176h6v10h-6zM99 176h6v10h-6zM93 176h6v10h-6zM87 166h6v10h-6z"/><path fill="#ffffff" d="M147 146h6v10h-6zM159 146h6v10h-6zM177 146h6v10h-6zM183 146h6v10h-6zM189 146h6v10h-6zM195 146h6v10h-6zM201 146h6v10h-6zM201 176h6v10h-6zM189 176h6v10h-6zM183 176h6v10h-6zM177 176h6v10h-6zM147 166h6v10h-6zM147 156h6v10h-6z"/></g><g clip-path="url(#grid-clip-a4a035dd2871346b-3x4)" data-channel="ellipse" data-ellipse-anchor-x="87" data-ellipse-anchor-y="146" data-ellipse-rx="37.335" data-ellipse-ry="78.065" data-ellipse-rotation-deg="72"><ellipse cx="87" cy="146" rx="37.335" ry="78.065" transform="rotate(72 87 146)" fill="#000000" stroke="#000000" fill-opacity="0.25" stroke-opacity="0.35" stroke-width="2"/></g><g><g data-channel="cell" data-cell-index="0" data-cell-row="0" data-cell-col="0" data-surround-bits="0xa4a035" data-edge-color="#e7be00" data-cell-quartile="1"><rect x="33" y="36" width="48" height="20" fill="#a7a899"/><text x="57" y="46" fill="#000000" font-size="16" text-anchor="middle" dominant-baseline="central">main</text><polygon points="33,36 43,36 33,46" fill="#000000"/></g><g data-channel="cell" data-cell-index="1" data-cell-row="0" data-cell-col="1" data-surround-bits="0xdd2871" data-edge-color="#ffffff"><rect x="93" y="36" width="48" height="20" fill="#40eb9d"/><text x="117" y="46" fill="#000000" font-size="16" text-anchor="middle" dominant-baseline="central">net:</text></g><g data-channel="cell" data-cell-index="2" data-cell-row="0" data-cell-col="2" data-surround-bits="0x346b40" data-edge-color="#ffffff" data-cell-quartile="2"><rect x="153" y="36" width="48" height="20" fill="#7bef75"/><text x="177" y="46" fill="#000000" font-size="16" text-anchor="middle" dominant-baseline="central">de97</text><polygon points="201,36 191,36 201,46" fill="#000000"/></g><g data-channel="cell" data-cell-index="3" data-cell-row="1" data-cell-col="0" data-surround-bits="0x9d08e7" data-edge-color="#2f3fbf" data-cell-quartile="4"><rect x="33" y="76" width="48" height="20" fill="#1da7f3"/><text x="57" y="86" fill="#000000" font-size="16" text-anchor="middle" dominant-baseline="central">86cd</text><polygon points="33,96 33,86 43,96" fill="#000000"/></g><g data-channel="cell" data-cell-index="4" data-cell-row="1" data-cell-col="1" data-surround-bits="0xfb92de" data-edge-color="#ffffff" data-cell-quartile="3"><rect x="93" y="76" width="48" height="20" fill="#39e7f9"/><text x="117" y="86" fill="#000000" font-size="16" text-anchor="middle" dominant-baseline="central">-ec5</text><polygon points="141,96 141,86 131,96" fill="#000000"/></g><g data-channel="cell" data-cell-index="5" data-cell-row="1" data-cell-col="2" data-surround-bits="0x6adbbc" data-edge-color="#ffffff"><rect x="153" y="76" width="48" height="20" fill="#39eedf"/><text x="177" y="86" fill="#000000" font-size="16" text-anchor="middle" dominant-baseline="central">3-45</text></g><g data-channel="cell" data-cell-index="6" data-cell-row="2" data-cell-col="0" data-surround-bits="0x8d6ddc" data-edge-color="#ffffff"><rect x="33" y="116" width="48" height="20" fill="#bccff1"/><text x="57" y="126" fill="#000000" font-size="16" text-anchor="middle" dominant-baseline="central">8c-8</text></g><g data-channel="cell" data-cell-index="7" data-cell-row="2" data-cell-col="1" data-surround-bits="0x3514bc" data-edge-color="#2f3fbf"><rect x="93" y="116" width="48" height="20" fill="#3eb7e7"/><text x="117" y="126" fill="#000000" font-size="16" text-anchor="middle" dominant-baseline="central">57c-</text></g><g data-channel="cell" data-cell-index="8" data-cell-row="2" data-cell-col="2" data-surround-bits="0xe5ac5d" data-edge-color="#2f3fbf"><rect x="153" y="116" width="48" height="20" fill="#367ef7"/><text x="177" y="126" fill="#000000" font-size="16" text-anchor="middle" dominant-baseline="central">9342</text></g><g data-channel="cell" data-cell-index="9" data-cell-row="3" data-cell-col="0" data-cell-blank="true" data-cell-blank-map="true"><rect x="33" y="156" width="48" height="20" rx="10" ry="10" fill="#e7be00" stroke="#000000" stroke-width="1"/><circle cx="73" cy="158.5" r="3.5" fill="#000000" data-blank-map-min="0,2"/><path d="M 52.8,163.5 H 61.2 M 57,159.3 V 167.7" fill="none" stroke="#000000" stroke-width="1.925" stroke-linecap="butt" data-blank-map-max="1,1"/></g><g data-channel="cell" data-cell-index="10" data-cell-row="3" data-cell-col="1" data-surround-bits="0x5fd3a6" data-edge-color="#e7be00"><rect x="93" y="156" width="48" height="20" fill="#bafd71"/><text x="117" y="166" fill="#000000" font-size="16" text-anchor="middle" dominant-baseline="central">cf26</text></g><g data-channel="cell" data-cell-index="11" data-cell-row="3" data-cell-col="2" data-surround-bits="0xc1d3e5" data-edge-color="#ffffff"><rect x="153" y="156" width="48" height="20" fill="#34ffe1"/><text x="177" y="166" fill="#000000" font-size="16" text-anchor="middle" dominant-baseline="central">4f80</text></g></g></g><g data-channel="color-bar" data-bar-slots="15" data-bar-marker-left="6" data-bar-marker-right="10"><g data-color-bar-rank="0" data-color-bar-band="W"><rect x="1" y="1" width="20" height="22.739" fill="#ffffff"/><text x="11" y="20.219" fill="#000000" font-size="16" text-anchor="middle" data-color-bar-letter="true">w</text></g><g data-color-bar-rank="1" data-color-bar-band="G"><rect x="1" y="23.739" width="20" height="42.127" fill="#e7be00"/><text x="11" y="62.346" fill="#000000" font-size="16" text-anchor="middle" data-color-bar-letter="true">g</text></g><g data-color-bar-rank="2" data-color-bar-band="B"><rect x="1" y="65.866" width="20" height="67.956" fill="#2f3fbf"/><text x="11" y="130.302" fill="#ffffff" font-size="16" text-anchor="middle" data-color-bar-letter="true">b</text></g><g data-color-bar-rank="3" data-color-bar-band="K"><rect x="1" y="133.822" width="20" height="57.178" fill="#000000"/><text x="11" y="187.48" fill="#ffffff" font-size="16" text-anchor="middle" data-color-bar-letter="true">k</text></g><circle cx="5.6" cy="83.333" r="3.4" fill="#ffffff" stroke="#000000" stroke-width="0.75" data-bar-marker="left"/><circle cx="16.4" cy="134" r="3.4" fill="#ffffff" stroke="#000000" stroke-width="0.75" data-bar-marker="right"/></g><g data-channel="label-top"><text x="27" y="16" fill="#666666" font-size="12" dominant-baseline="central">did:cheqd:...</text></g><line x1="0" y1="0.5" x2="213" y2="0.5" stroke="#808080" stroke-width="1" shape-rendering="crispEdges"/><line x1="212.5" y1="0" x2="212.5" y2="192" stroke="#808080" stroke-width="1" shape-rendering="crispEdges"/><line x1="0" y1="191.5" x2="213" y2="191.5" stroke="#808080" stroke-width="1" shape-rendering="crispEdges"/><line x1="0.5" y1="0" x2="0.5" y2="192" stroke="#808080" stroke-width="1" shape-rendering="crispEdges"/><line x1="21.5" y1="0" x2="21.5" y2="192" stroke="#808080" stroke-width="1" shape-rendering="crispEdges"/></svg>