<svg width="213" height="192" viewBox="0 0 213 192" xmlns="http://www.w3.org/2000/svg" font-family="&quot;JetBrains Mono&quot;, &quot;Menlo&quot;, &quot;Consolas&quot;, &quot;DejaVu Sans Mono&quot;, &quot;Liberation Mono&quot;, &quot;Roboto Mono&quot;, &quot;Noto Sans Mono&quot;, monospace" data-entviz-version="v11" data-entviz-lib="0.11.0" data-input-bytes="57" data-cols="3" data-rows="4"><defs><clipPath id="grid-clip-53665df35ee7077f-3x4"><rect x="27" y="26" width="180" height="160"/></clipPath></defs><rect x="0" y="0" width="213" height="192" fill="#ffffff"/><g data-channel="grid"><rect x="27" y="26" width="180" height="160" fill="#e7be00"/><g><path fill="#ff3f2f" d="M27 26h6v10h-6zM39 26h6v10h-6zM45 26h6v10h-6zM51 26h6v10h-6zM63 26h6v10h-6zM81 26h6v10h-6zM81 36h6v10h-6zM75 56h6v10h-6zM69 56h6v10h-6zM57 56h6v10h-6zM51 56h6v10h-6zM33 56h6v10h-6zM27 46h6v10h-6z"/><path fill="#2f3fbf" d="M87 26h6v10h-6zM93 26h6v10h-6zM99 26h6v10h-6zM117 26h6v10h-6zM123 26h6v10h-6zM129 26h6v10h-6zM141 26h6v10h-6zM141 36h6v10h-6zM141 46h6v10h-6zM141 56h6v10h-6zM129 56h6v10h-6zM117 56h6v10h-6zM111 56h6v10h-6zM93 56h6v10h-6zM87 56h6v10h-6zM87 46h6v10h-6zM87 36h6v10h-6z"/><path fill="#2f3fbf" d="M153 26h6v10h-6zM165 26h6v10h-6zM195 26h6v10h-6zM201 26h6v10h-6zM201 36h6v10h-6zM201 46h6v10h-6zM201 56h6v10h-6zM195 56h6v10h-6zM189 56h6v10h-6zM177 56h6v10h-6zM171 56h6v10h-6zM165 56h6v10h-6z"/><path fill="#2f3fbf" d="M27 66h6v10h-6zM39 66h6v10h-6zM45 66h6v10h-6zM57 66h6v10h-6zM69 66h6v10h-6zM81 66h6v10h-6zM81 96h6v10h-6zM75 96h6v10h-6zM63 96h6v10h-6zM57 96h6v10h-6zM39 96h6v10h-6z"/><path fill="#ffffff" d="M111 66h6v10h-6zM123 66h6v10h-6zM135 66h6v10h-6zM141 66h6v10h-6zM111 96h6v10h-6zM105 96h6v10h-6zM93 96h6v10h-6zM87 86h6v10h-6z"/><path fill="#ff3f2f" d="M153 66h6v10h-6zM183 66h6v10h-6zM189 66h6v10h-6zM183 96h6v10h-6zM177 96h6v10h-6zM165 96h6v10h-6zM147 86h6v10h-6zM147 76h6v10h-6z"/><path fill="#2f3fbf" d="M45 106h6v10h-6zM81 106h6v10h-6zM81 136h6v10h-6zM57 136h6v10h-6zM39 136h6v10h-6zM33 136h6v10h-6zM27 126h6v10h-6zM27 116h6v10h-6z"/><path fill="#ff3f2f" d="M99 106h6v10h-6zM105 106h6v10h-6zM141 106h6v10h-6zM141 116h6v10h-6zM129 136h6v10h-6zM111 136h6v10h-6zM105 136h6v10h-6zM93 136h6v10h-6zM87 136h6v10h-6zM87 116h6v10h-6z"/><path fill="#2f3fbf" d="M147 106h6v10h-6zM153 106h6v10h-6zM171 106h6v10h-6zM183 106h6v10h-6zM189 106h6v10h-6zM201 106h6v10h-6zM195 136h6v10h-6zM171 136h6v10h-6zM159 136h6v10h-6z"/><path fill="#ff3f2f" d="M27 146h6v10h-6zM33 146h6v10h-6zM57 146h6v10h-6zM63 146h6v10h-6zM69 146h6v10h-6zM75 176h6v10h-6zM69 176h6v10h-6zM63 176h6v10h-6zM51 176h6v10h-6zM45 176h6v10h-6zM33 176h6v10h-6zM27 176h6v10h-6z"/><path fill="#2f3fbf" d="M87 146h6v10h-6zM99 146h6v10h-6zM105 146h6v10h-6zM117 146h6v10h-6zM123 146h6v10h-6zM135 146h6v10h-6zM141 146h6v10h-6zM141 176h6v10h-6zM135 176h6v10h-6zM129 176h6v10h-6zM105 176h6v10h-6zM99 176h6v10h-6zM93 176h6v10h-6z"/><path fill="#ff3f2f" d="M147 146h6v10h-6zM165 146h6v10h-6zM171 146h6v10h-6zM177 146h6v10h-6zM201 146h6v10h-6zM201 156h6v10h-6zM201 166h6v10h-6zM195 176h6v10h-6zM189 176h6v10h-6zM183 176h6v10h-6zM171 176h6v10h-6zM153 176h6v10h-6zM147 176h6v10h-6zM147 156h6v10h-6z"/></g><g clip-path="url(#grid-clip-53665df35ee7077f-3x4)" data-channel="ellipse" data-ellipse-anchor-x="147" data-ellipse-anchor-y="66" data-ellipse-rx="69.919" data-ellipse-ry="41.408" data-ellipse-rotation-deg="108"><ellipse cx="147" cy="66" rx="69.919" ry="41.408" transform="rotate(108 147 66)" fill="#000000" stroke="#000000" fill-opacity="0.2" stroke-opacity="0.3" stroke-width="2"/></g><g><g data-channel="cell" data-cell-index="0" data-cell-row="0" data-cell-col="0" data-surround-bits="0x53665d" data-edge-color="#ff3f2f"><rect x="33" y="36" width="48" height="20" fill="#1d21e4"/><text x="57" y="46" fill="#ffffff" font-size="16" text-anchor="middle" dominant-baseline="central">5CEd</text></g><g data-channel="cell" data-cell-index="1" data-cell-row="0" data-cell-col="1" data-surround-bits="0xf35ee7" data-edge-color="#2f3fbf" data-cell-quartile="4"><rect x="93" y="36" width="48" height="20" fill="#1999c9"/><text x="117" y="46" fill="#000000" font-size="16" text-anchor="middle" dominant-baseline="central">yZkZ</text><polygon points="93,56 93,46 103,56" fill="#000000"/></g><g data-channel="cell" data-cell-index="2" data-cell-row="0" data-cell-col="2" data-surround-bits="0x77f0a" data-edge-color="#2f3fbf" data-cell-quartile="2"><rect x="153" y="36" width="48" height="20" fill="#c3029c"/><text x="177" y="46" fill="#ffffff" font-size="16" text-anchor="middle" dominant-baseline="central">nALD</text><polygon points="201,36 191,36 201,46" fill="#ffffff"/></g><g data-channel="cell" data-cell-index="3" data-cell-row="1" data-cell-col="0" data-surround-bits="0x9b2ad" data-edge-color="#2f3fbf"><rect x="33" y="76" width="48" height="20" fill="#292074"/><text x="57" y="86" fill="#ffffff" font-size="16" text-anchor="middle" dominant-baseline="central">dCAp</text></g><g data-channel="cell" data-cell-index="4" data-cell-row="1" data-cell-col="1" data-surround-bits="0x560350" data-edge-color="#ffffff"><rect x="93" y="76" width="48" height="20" fill="#d3caed"/><text x="117" y="86" fill="#000000" font-size="16" text-anchor="middle" dominant-baseline="central">7crT</text></g><g data-channel="cell" data-cell-index="5" data-cell-row="1" data-cell-col="2" data-surround-bits="0xc580c2" data-edge-color="#ff3f2f"><rect x="153" y="76" width="48" height="20" fill="#822646"/><text x="177" y="86" fill="#ffffff" font-size="16" text-anchor="middle" dominant-baseline="central">RiaC</text></g><g data-channel="cell" data-cell-index="6" data-cell-row="2" data-cell-col="0" data-surround-bits="0xd91208" data-edge-color="#2f3fbf"><rect x="33" y="116" width="48" height="20" fill="#95a2ab"/><text x="57" y="126" fill="#000000" font-size="16" text-anchor="middle" dominant-baseline="central">q6KV</text></g><g data-channel="cell" data-cell-index="7" data-cell-row="2" data-cell-col="1" data-surround-bits="0xb6460c" data-edge-color="#ff3f2f"><rect x="93" y="116" width="48" height="20" fill="#d39a8a"/><text x="117" y="126" fill="#000000" font-size="16" text-anchor="middle" dominant-baseline="central">iprT</text></g><g data-channel="cell" data-cell-index="8" data-cell-row="2" data-cell-col="2" data-surround-bits="0xa22d3" data-edge-color="#2f3fbf" data-cell-quartile="3"><rect x="153" y="116" width="48" height="20" fill="#07a933"/><text x="177" y="126" fill="#000000" font-size="16" text-anchor="middle" dominant-baseline="central">M6kH</text><polygon points="201,136 201,126 191,136" fill="#000000"/></g><g data-channel="cell" data-cell-index="9" data-cell-row="3" data-cell-col="0" data-surround-bits="0x36e0e3" data-edge-color="#ff3f2f"><rect x="33" y="156" width="48" height="20" fill="#830051"/><text x="57" y="166" fill="#ffffff" font-size="16" text-anchor="middle" dominant-baseline="central">UQCD</text></g><g data-channel="cell" data-cell-index="10" data-cell-row="3" data-cell-col="1" data-surround-bits="0x1c736d" data-edge-color="#2f3fbf"><rect x="93" y="156" width="48" height="20" fill="#957ef1"/><text x="117" y="166" fill="#000000" font-size="16" text-anchor="middle" dominant-baseline="central">8X6V</text></g><g data-channel="cell" data-cell-index="11" data-cell-row="3" data-cell-col="2" data-surround-bits="0xb2ee39" data-edge-color="#ff3f2f" data-cell-quartile="1"><rect x="153" y="156" width="48" height="20" fill="#d663a8"/><text x="177" y="166" fill="#000000" font-size="16" text-anchor="middle" dominant-baseline="central">qGPW</text><polygon points="153,156 163,156 153,166" fill="#000000"/></g></g></g><g data-channel="color-bar" data-bar-slots="15" data-bar-marker-left="5" data-bar-marker-right="8"><g data-color-bar-rank="0" data-color-bar-band="K"><rect x="1" y="1" width="20" height="36.077" fill="#000000"/><text x="11" y="33.557" fill="#ffffff" font-size="16" text-anchor="middle" data-color-bar-letter="true">k</text></g><g data-color-bar-rank="1" data-color-bar-band="W"><rect x="1" y="37.077" width="20" height="63.099" fill="#ffffff"/><text x="11" y="96.656" fill="#000000" font-size="16" text-anchor="middle" data-color-bar-letter="true">w</text></g><g data-color-bar-rank="2" data-color-bar-band="R"><rect x="1" y="100.176" width="20" height="49.691" fill="#ff3f2f"/><text x="11" y="146.347" fill="#000000" font-size="16" text-anchor="middle" data-color-bar-letter="true">r</text></g><g data-color-bar-rank="3" data-color-bar-band="B"><rect x="1" y="149.867" width="20" height="41.133" fill="#2f3fbf"/><text x="11" y="187.48" fill="#ffffff" font-size="16" text-anchor="middle" data-color-bar-letter="true">b</text></g><circle cx="5.6" cy="70.667" r="3.4" fill="#ffffff" stroke="#000000" stroke-width="0.75" data-bar-marker="left"/><circle cx="16.4" cy="108.667" r="3.4" fill="#ffffff" stroke="#000000" stroke-width="0.75" data-bar-marker="right"/></g><g data-channel="label-top"><text x="27" y="16" fill="#666666" font-size="12" dominant-baseline="central">did:dock:...</text></g><line x1="0" y1="0.5" x2="213" y2="0.5" stroke="#808080" stroke-width="1" shape-rendering="crispEdges"/><line x1="212.5" y1="0" x2="212.5" y2="192" stroke="#808080" stroke-width="1" shape-rendering="crispEdges"/><line x1="0" y1="191.5" x2="213" y2="191.5" stroke="#808080" stroke-width="1" shape-rendering="crispEdges"/><line x1="0.5" y1="0" x2="0.5" y2="192" stroke="#808080" stroke-width="1" shape-rendering="crispEdges"/><line x1="21.5" y1="0" x2="21.5" y2="192" stroke="#808080" stroke-width="1" shape-rendering="crispEdges"/></svg>