<svg width="215" height="194" viewBox="0 0 215 194" xmlns="http://www.w3.org/2000/svg" font-family="&quot;JetBrains Mono&quot;, &quot;Menlo&quot;, &quot;Consolas&quot;, &quot;DejaVu Sans Mono&quot;, &quot;Liberation Mono&quot;, &quot;Roboto Mono&quot;, &quot;Noto Sans Mono&quot;, monospace" data-entviz-version="v15" data-entviz-lib="0.15.2" data-input-bytes="54" data-cols="3" data-rows="4" data-encoding="base64url" data-scheme="did" data-role="identifier" data-size-basis="utf8" data-entropy-type="did" data-size-bits="352" data-qualifiers="{&quot;method&quot;:&quot;cheqd&quot;}" data-parts="[{&quot;text&quot;:&quot;did:cheqd:&quot;,&quot;bind&quot;:&quot;fold&quot;},{&quot;text&quot;:&quot;mainnet:de9786cd-ec53-458c-857c-9342cf264f80&quot;,&quot;bind&quot;:&quot;core&quot;}]"><defs><clipPath id="grid-clip-a4a035dd2871346b-3x4"><rect x="28" y="27" width="180" height="160"/></clipPath></defs><rect x="1" y="1" width="213" height="192" fill="#ffffff"/><g data-channel="grid"><rect x="28" y="27" width="180" height="160" fill="#ff3f2f"/><g><path fill="#e7be00" d="M28 27h6v10h-6zM40 27h6v10h-6zM52 27h6v10h-6zM58 27h6v10h-6zM76 57h6v10h-6zM64 57h6v10h-6zM46 57h6v10h-6zM28 57h6v10h-6zM28 37h6v10h-6z"/><path fill="#ffffff" d="M88 27h6v10h-6zM112 27h6v10h-6zM118 27h6v10h-6zM124 27h6v10h-6zM142 47h6v10h-6zM136 57h6v10h-6zM118 57h6v10h-6zM106 57h6v10h-6zM100 57h6v10h-6zM94 57h6v10h-6zM88 47h6v10h-6zM88 37h6v10h-6z"/><path fill="#ffffff" d="M184 27h6v10h-6zM196 27h6v10h-6zM202 27h6v10h-6zM202 47h6v10h-6zM196 57h6v10h-6zM190 57h6v10h-6zM166 57h6v10h-6zM154 57h6v10h-6zM148 57h6v10h-6z"/><path fill="#2f3fbf" d="M28 67h6v10h-6zM34 67h6v10h-6zM40 67h6v10h-6zM58 67h6v10h-6zM64 67h6v10h-6zM70 67h6v10h-6zM82 87h6v10h-6zM58 97h6v10h-6zM46 97h6v10h-6zM40 97h6v10h-6zM34 97h6v10h-6zM28 77h6v10h-6z"/><path fill="#ffffff" d="M94 67h6v10h-6zM100 67h6v10h-6zM106 67h6v10h-6zM112 67h6v10h-6zM124 67h6v10h-6zM130 67h6v10h-6zM142 67h6v10h-6zM142 97h6v10h-6zM124 97h6v10h-6zM118 97h6v10h-6zM112 97h6v10h-6zM100 97h6v10h-6zM94 97h6v10h-6zM88 97h6v10h-6zM88 87h6v10h-6zM88 77h6v10h-6z"/><path fill="#ffffff" d="M160 67h6v10h-6zM166 67h6v10h-6zM172 67h6v10h-6zM178 67h6v10h-6zM190 67h6v10h-6zM196 67h6v10h-6zM202 67h6v10h-6zM202 87h6v10h-6zM202 97h6v10h-6zM190 97h6v10h-6zM184 97h6v10h-6zM172 97h6v10h-6zM160 97h6v10h-6zM148 97h6v10h-6zM148 87h6v10h-6z"/><path fill="#ffffff" d="M40 107h6v10h-6zM46 107h6v10h-6zM52 107h6v10h-6zM64 107h6v10h-6zM70 107h6v10h-6zM76 107h6v10h-6zM82 117h6v10h-6zM82 127h6v10h-6zM76 137h6v10h-6zM70 137h6v10h-6zM58 137h6v10h-6zM46 137h6v10h-6zM40 137h6v10h-6zM28 117h6v10h-6z"/><path fill="#2f3fbf" d="M100 107h6v10h-6zM106 107h6v10h-6zM112 107h6v10h-6zM118 107h6v10h-6zM130 107h6v10h-6zM142 117h6v10h-6zM142 137h6v10h-6zM118 137h6v10h-6zM106 137h6v10h-6zM94 137h6v10h-6zM88 137h6v10h-6z"/><path fill="#2f3fbf" d="M148 107h6v10h-6zM160 107h6v10h-6zM166 107h6v10h-6zM172 107h6v10h-6zM184 107h6v10h-6zM202 117h6v10h-6zM202 127h6v10h-6zM196 137h6v10h-6zM184 137h6v10h-6zM178 137h6v10h-6zM166 137h6v10h-6zM148 137h6v10h-6zM148 127h6v10h-6zM148 117h6v10h-6z"/><path fill="#e7be00" d="M94 147h6v10h-6zM100 147h6v10h-6zM118 147h6v10h-6zM130 147h6v10h-6zM136 147h6v10h-6zM142 147h6v10h-6zM142 177h6v10h-6zM130 177h6v10h-6zM124 177h6v10h-6zM118 177h6v10h-6zM112 177h6v10h-6zM106 177h6v10h-6zM100 177h6v10h-6zM94 177h6v10h-6zM88 167h6v10h-6z"/><path fill="#ffffff" d="M148 147h6v10h-6zM160 147h6v10h-6zM178 147h6v10h-6zM184 147h6v10h-6zM190 147h6v10h-6zM196 147h6v10h-6zM202 147h6v10h-6zM202 177h6v10h-6zM190 177h6v10h-6zM184 177h6v10h-6zM178 177h6v10h-6zM148 167h6v10h-6zM148 157h6v10h-6z"/></g><g clip-path="url(#grid-clip-a4a035dd2871346b-3x4)" data-channel="ellipse" data-ellipse-anchor-x="88" data-ellipse-anchor-y="147" data-ellipse-rx="37.335" data-ellipse-ry="78.065" data-ellipse-rotation-deg="72"><ellipse cx="88" cy="147" rx="37.335" ry="78.065" transform="rotate(72 88 147)" fill="#000000" stroke="#000000" fill-opacity="0.25" stroke-opacity="0.35" stroke-width="2"/></g><g><g data-channel="cell" data-cell-index="0" data-cell-row="0" data-cell-col="0" data-surround-bits="0xa4a035" data-edge-color="#e7be00" data-cell-quartile="1"><rect x="34" y="37" width="48" height="20" fill="#a7a899"/><text x="58" y="47" fill="#000000" font-size="16" text-anchor="middle" dominant-baseline="central">main</text><polygon points="34,37 44,37 34,47" fill="#000000"/></g><g data-channel="cell" data-cell-index="1" data-cell-row="0" data-cell-col="1" data-surround-bits="0xdd2871" data-edge-color="#ffffff"><rect x="94" y="37" width="48" height="20" fill="#40eb9d"/><text x="118" y="47" fill="#000000" font-size="16" text-anchor="middle" dominant-baseline="central">net:</text></g><g data-channel="cell" data-cell-index="2" data-cell-row="0" data-cell-col="2" data-surround-bits="0x346b40" data-edge-color="#ffffff" data-cell-quartile="2"><rect x="154" y="37" width="48" height="20" fill="#7bef75"/><text x="178" y="47" fill="#000000" font-size="16" text-anchor="middle" dominant-baseline="central">de97</text><polygon points="202,37 192,37 202,47" fill="#000000"/></g><g data-channel="cell" data-cell-index="3" data-cell-row="1" data-cell-col="0" data-surround-bits="0x9d08e7" data-edge-color="#2f3fbf" data-cell-quartile="4"><rect x="34" y="77" width="48" height="20" fill="#1da7f3"/><text x="58" y="87" fill="#000000" font-size="16" text-anchor="middle" dominant-baseline="central">86cd</text><polygon points="34,97 34,87 44,97" fill="#000000"/></g><g data-channel="cell" data-cell-index="4" data-cell-row="1" data-cell-col="1" data-surround-bits="0xfb92de" data-edge-color="#ffffff" data-cell-quartile="3"><rect x="94" y="77" width="48" height="20" fill="#39e7f9"/><text x="118" y="87" fill="#000000" font-size="16" text-anchor="middle" dominant-baseline="central">-ec5</text><polygon points="142,97 142,87 132,97" fill="#000000"/></g><g data-channel="cell" data-cell-index="5" data-cell-row="1" data-cell-col="2" data-surround-bits="0x6adbbc" data-edge-color="#ffffff"><rect x="154" y="77" width="48" height="20" fill="#39eedf"/><text x="178" y="87" fill="#000000" font-size="16" text-anchor="middle" dominant-baseline="central">3-45</text></g><g data-channel="cell" data-cell-index="6" data-cell-row="2" data-cell-col="0" data-surround-bits="0x8d6ddc" data-edge-color="#ffffff"><rect x="34" y="117" width="48" height="20" fill="#bccff1"/><text x="58" y="127" fill="#000000" font-size="16" text-anchor="middle" dominant-baseline="central">8c-8</text></g><g data-channel="cell" data-cell-index="7" data-cell-row="2" data-cell-col="1" data-surround-bits="0x3514bc" data-edge-color="#2f3fbf"><rect x="94" y="117" width="48" height="20" fill="#3eb7e7"/><text x="118" y="127" fill="#000000" font-size="16" text-anchor="middle" dominant-baseline="central">57c-</text></g><g data-channel="cell" data-cell-index="8" data-cell-row="2" data-cell-col="2" data-surround-bits="0xe5ac5d" data-edge-color="#2f3fbf"><rect x="154" y="117" width="48" height="20" fill="#367ef7"/><text x="178" y="127" fill="#000000" font-size="16" text-anchor="middle" dominant-baseline="central">9342</text></g><g data-channel="cell" data-cell-index="9" data-cell-row="3" data-cell-col="0" data-cell-blank="true" data-cell-blank-map="true"><rect x="34" y="157" width="48" height="20" rx="10" ry="10" fill="#e7be00" stroke="#000000" stroke-width="1"/><circle cx="74" cy="159.5" r="3.5" fill="#000000" data-blank-map-min="0,2"/><path d="M 53.8,164.5 H 62.2 M 58,160.3 V 168.7" fill="none" stroke="#000000" stroke-width="1.925" stroke-linecap="butt" data-blank-map-max="1,1"/></g><g data-channel="cell" data-cell-index="10" data-cell-row="3" data-cell-col="1" data-surround-bits="0x5fd3a6" data-edge-color="#e7be00"><rect x="94" y="157" width="48" height="20" fill="#bafd71"/><text x="118" y="167" fill="#000000" font-size="16" text-anchor="middle" dominant-baseline="central">cf26</text></g><g data-channel="cell" data-cell-index="11" data-cell-row="3" data-cell-col="2" data-surround-bits="0xc1d3e5" data-edge-color="#ffffff"><rect x="154" y="157" width="48" height="20" fill="#34ffe1"/><text x="178" y="167" fill="#000000" font-size="16" text-anchor="middle" dominant-baseline="central">4f80</text></g></g></g><g data-channel="color-bar" data-bar-slots="15" data-bar-marker-left="6" data-bar-marker-right="10"><g data-color-bar-rank="0" data-color-bar-band="W"><rect x="2" y="2" width="20" height="22.739" fill="#ffffff"/><text x="12" y="21.219" fill="#000000" font-size="16" text-anchor="middle" data-color-bar-letter="true">w</text></g><g data-color-bar-rank="1" data-color-bar-band="G"><rect x="2" y="24.739" width="20" height="42.127" fill="#e7be00"/><text x="12" y="63.346" fill="#000000" font-size="16" text-anchor="middle" data-color-bar-letter="true">g</text></g><g data-color-bar-rank="2" data-color-bar-band="B"><rect x="2" y="66.866" width="20" height="67.956" fill="#2f3fbf"/><text x="12" y="131.302" fill="#ffffff" font-size="16" text-anchor="middle" data-color-bar-letter="true">b</text></g><g data-color-bar-rank="3" data-color-bar-band="K"><rect x="2" y="134.822" width="20" height="57.178" fill="#000000"/><text x="12" y="188.48" fill="#ffffff" font-size="16" text-anchor="middle" data-color-bar-letter="true">k</text></g><circle cx="6.6" cy="84.333" r="3.4" fill="#ffffff" stroke="#000000" stroke-width="0.75" data-bar-marker="left"/><circle cx="17.4" cy="135" r="3.4" fill="#ffffff" stroke="#000000" stroke-width="0.75" data-bar-marker="right"/></g><g data-channel="label-top"><text x="28" y="17" fill="#666666" font-size="12" dominant-baseline="central">did:cheqd</text></g><line x1="1" y1="1.5" x2="214" y2="1.5" stroke="#808080" stroke-width="1" shape-rendering="crispEdges"/><line x1="213.5" y1="1" x2="213.5" y2="193" stroke="#808080" stroke-width="1" shape-rendering="crispEdges"/><line x1="1" y1="192.5" x2="214" y2="192.5" stroke="#808080" stroke-width="1" shape-rendering="crispEdges"/><line x1="1.5" y1="1" x2="1.5" y2="193" stroke="#808080" stroke-width="1" shape-rendering="crispEdges"/><line x1="22.5" y1="1" x2="22.5" y2="193" stroke="#808080" stroke-width="1" shape-rendering="crispEdges"/></svg>