<svg width="213" height="192" viewBox="0 0 213 192" xmlns="http://www.w3.org/2000/svg" font-family="&quot;JetBrains Mono&quot;, &quot;Menlo&quot;, &quot;Consolas&quot;, &quot;DejaVu Sans Mono&quot;, &quot;Liberation Mono&quot;, &quot;Roboto Mono&quot;, &quot;Noto Sans Mono&quot;, monospace" data-entviz-version="v11" data-entviz-lib="0.11.0" data-input-bytes="55" data-cols="3" data-rows="4"><defs><clipPath id="grid-clip-daeb0de92451b468-3x4"><rect x="27" y="26" width="180" height="160"/></clipPath></defs><rect x="0" y="0" width="213" height="192" fill="#ffffff"/><g data-channel="grid"><rect x="27" y="26" width="180" height="160" fill="#ffffff"/><g><path fill="#ff3f2f" d="M27 26h6v10h-6zM39 26h6v10h-6zM45 26h6v10h-6zM75 26h6v10h-6zM81 26h6v10h-6zM81 46h6v10h-6zM75 56h6v10h-6zM69 56h6v10h-6zM63 56h6v10h-6zM51 56h6v10h-6zM39 56h6v10h-6zM33 56h6v10h-6zM27 46h6v10h-6zM27 36h6v10h-6z"/><path fill="#e7be00" d="M87 26h6v10h-6zM111 26h6v10h-6zM123 26h6v10h-6zM141 36h6v10h-6zM135 56h6v10h-6zM117 56h6v10h-6zM99 56h6v10h-6zM87 56h6v10h-6zM87 46h6v10h-6zM87 36h6v10h-6z"/><path fill="#2f3fbf" d="M147 26h6v10h-6zM153 26h6v10h-6zM159 26h6v10h-6zM165 26h6v10h-6zM171 26h6v10h-6zM189 26h6v10h-6zM201 46h6v10h-6zM195 56h6v10h-6zM189 56h6v10h-6zM165 56h6v10h-6zM153 56h6v10h-6zM147 56h6v10h-6zM147 36h6v10h-6z"/><path fill="#2f3fbf" d="M33 66h6v10h-6zM39 66h6v10h-6zM75 66h6v10h-6zM81 86h6v10h-6zM81 96h6v10h-6zM75 96h6v10h-6zM63 96h6v10h-6zM51 96h6v10h-6zM27 96h6v10h-6zM27 76h6v10h-6z"/><path fill="#2f3fbf" d="M93 66h6v10h-6zM105 66h6v10h-6zM117 66h6v10h-6zM123 66h6v10h-6zM129 66h6v10h-6zM135 66h6v10h-6zM141 66h6v10h-6zM135 96h6v10h-6zM117 96h6v10h-6zM105 96h6v10h-6zM99 96h6v10h-6zM87 76h6v10h-6z"/><path fill="#e7be00" d="M159 66h6v10h-6zM177 66h6v10h-6zM183 66h6v10h-6zM189 66h6v10h-6zM201 66h6v10h-6zM201 76h6v10h-6zM201 86h6v10h-6zM201 96h6v10h-6zM189 96h6v10h-6zM183 96h6v10h-6zM177 96h6v10h-6zM165 96h6v10h-6zM159 96h6v10h-6zM147 96h6v10h-6z"/><path fill="#2f3fbf" d="M27 106h6v10h-6zM57 106h6v10h-6zM63 106h6v10h-6zM69 106h6v10h-6zM75 106h6v10h-6zM81 116h6v10h-6zM81 136h6v10h-6zM69 136h6v10h-6zM63 136h6v10h-6zM45 136h6v10h-6zM39 136h6v10h-6zM27 126h6v10h-6zM27 116h6v10h-6z"/><path fill="#2f3fbf" d="M93 106h6v10h-6zM99 106h6v10h-6zM111 106h6v10h-6zM117 106h6v10h-6zM123 106h6v10h-6zM129 106h6v10h-6zM135 106h6v10h-6zM141 106h6v10h-6zM141 116h6v10h-6zM141 126h6v10h-6zM135 136h6v10h-6zM129 136h6v10h-6zM105 136h6v10h-6zM99 136h6v10h-6zM93 136h6v10h-6zM87 126h6v10h-6zM87 116h6v10h-6z"/><path fill="#2f3fbf" d="M183 106h6v10h-6zM201 106h6v10h-6zM201 136h6v10h-6zM183 136h6v10h-6zM171 136h6v10h-6zM159 136h6v10h-6zM153 136h6v10h-6zM147 136h6v10h-6z"/><path fill="#2f3fbf" d="M27 146h6v10h-6zM57 146h6v10h-6zM63 146h6v10h-6zM69 146h6v10h-6zM81 146h6v10h-6zM81 166h6v10h-6zM75 176h6v10h-6zM63 176h6v10h-6zM57 176h6v10h-6zM51 176h6v10h-6zM45 176h6v10h-6zM33 176h6v10h-6zM27 176h6v10h-6z"/><path fill="#ff3f2f" d="M111 146h6v10h-6zM117 146h6v10h-6zM129 146h6v10h-6zM141 166h6v10h-6zM135 176h6v10h-6zM129 176h6v10h-6zM123 176h6v10h-6zM117 176h6v10h-6zM99 176h6v10h-6zM87 176h6v10h-6zM87 166h6v10h-6z"/><path fill="#000000" d="M147 146h6v10h-6zM153 146h6v10h-6zM165 146h6v10h-6zM171 146h6v10h-6zM177 146h6v10h-6zM189 146h6v10h-6zM195 146h6v10h-6zM201 146h6v10h-6zM177 176h6v10h-6zM165 176h6v10h-6zM153 176h6v10h-6zM147 166h6v10h-6z"/></g><g clip-path="url(#grid-clip-daeb0de92451b468-3x4)" data-channel="ellipse" data-ellipse-anchor-x="147" data-ellipse-anchor-y="146" data-ellipse-rx="78.065" data-ellipse-ry="73.992" data-ellipse-rotation-deg="156"><ellipse cx="147" cy="146" rx="78.065" ry="73.992" transform="rotate(156 147 146)" fill="#000000" stroke="#000000" fill-opacity="0.2" stroke-opacity="0.3" stroke-width="2"/></g><g><g data-channel="cell" data-cell-index="0" data-cell-row="0" data-cell-col="0" data-surround-bits="0xdaeb0d" data-edge-color="#ff3f2f"><rect x="33" y="36" width="48" height="20" fill="#896742"/><text x="57" y="46" fill="#ffffff" font-size="16" text-anchor="middle" dominant-baseline="central">QmeJ</text></g><g data-channel="cell" data-cell-index="1" data-cell-row="0" data-cell-col="1" data-surround-bits="0xe92451" data-edge-color="#e7be00"><rect x="93" y="36" width="48" height="20" fill="#d6f619"/><text x="117" y="46" fill="#000000" font-size="16" text-anchor="middle" dominant-baseline="central">GfbW</text></g><g data-channel="cell" data-cell-index="2" data-cell-row="0" data-cell-col="2" data-surround-bits="0xb4689f" data-edge-color="#2f3fbf" data-cell-quartile="3"><rect x="153" y="36" width="48" height="20" fill="#5ab8e9"/><text x="177" y="46" fill="#000000" font-size="16" text-anchor="middle" dominant-baseline="central">6bha</text><polygon points="201,56 201,46 191,56" fill="#000000"/></g><g data-channel="cell" data-cell-index="3" data-cell-row="1" data-cell-col="0" data-surround-bits="0xa2b906" data-edge-color="#2f3fbf" data-cell-quartile="2"><rect x="33" y="76" width="48" height="20" fill="#f227a5"/><text x="57" y="86" fill="#000000" font-size="16" text-anchor="middle" dominant-baseline="central">pSfy</text><polygon points="81,76 71,76 81,86" fill="#000000"/></g><g data-channel="cell" data-cell-index="4" data-cell-row="1" data-cell-col="1" data-surround-bits="0x8d23ea" data-edge-color="#2f3fbf"><rect x="93" y="76" width="48" height="20" fill="#645e8d"/><text x="117" y="86" fill="#ffffff" font-size="16" text-anchor="middle" dominant-baseline="central">jV5k</text></g><g data-channel="cell" data-cell-index="5" data-cell-row="1" data-cell-col="2" data-surround-bits="0x2ddee4" data-edge-color="#e7be00" data-cell-quartile="4"><rect x="153" y="76" width="48" height="20" fill="#70ae0e"/><text x="177" y="86" fill="#000000" font-size="16" text-anchor="middle" dominant-baseline="central">Dq5w</text><polygon points="153,96 153,86 163,96" fill="#000000"/></g><g data-channel="cell" data-cell-index="6" data-cell-row="2" data-cell-col="0" data-surround-bits="0xccd5e1" data-edge-color="#2f3fbf"><rect x="33" y="116" width="48" height="20" fill="#7678b7"/><text x="57" y="126" fill="#ffffff" font-size="16" text-anchor="middle" dominant-baseline="central">t3h2</text></g><g data-channel="cell" data-cell-index="7" data-cell-row="2" data-cell-col="1" data-surround-bits="0xdc6ff6" data-edge-color="#2f3fbf" data-cell-quartile="1"><rect x="93" y="116" width="48" height="20" fill="#8f8e83"/><text x="117" y="126" fill="#000000" font-size="16" text-anchor="middle" dominant-baseline="central">g46P</text><polygon points="93,116 103,116 93,126" fill="#000000"/></g><g data-channel="cell" data-cell-index="8" data-cell-row="2" data-cell-col="2" data-surround-bits="0x3a9240" data-edge-color="#2f3fbf"><rect x="153" y="116" width="48" height="20" fill="#793dc2"/><text x="177" y="126" fill="#ffffff" font-size="16" text-anchor="middle" dominant-baseline="central">wj15</text></g><g data-channel="cell" data-cell-index="9" data-cell-row="3" data-cell-col="0" data-surround-bits="0x37aae1" data-edge-color="#2f3fbf"><rect x="33" y="156" width="48" height="20" fill="#5590a4"/><text x="57" y="166" fill="#000000" font-size="16" text-anchor="middle" dominant-baseline="central">pJBV</text></g><g data-channel="cell" data-cell-index="10" data-cell-row="3" data-cell-col="1" data-surround-bits="0x69e8b0" data-edge-color="#ff3f2f"><rect x="93" y="156" width="48" height="20" fill="#e32ebf"/><text x="117" y="166" fill="#000000" font-size="16" text-anchor="middle" dominant-baseline="central">vy7j</text></g><g data-channel="cell" data-cell-index="11" data-cell-row="3" data-cell-col="2" data-surround-bits="0x5503bb" data-edge-color="#000000"><rect x="153" y="156" width="48" height="20" fill="#377333"/><text x="177" y="166" fill="#ffffff" font-size="16" text-anchor="middle" dominant-baseline="central">M3</text></g></g></g><g data-channel="color-bar" data-bar-slots="15" data-bar-marker-left="13" data-bar-marker-right="14"><g data-color-bar-rank="0" data-color-bar-band="B"><rect x="1" y="1" width="20" height="100" fill="#2f3fbf"/><text x="11" y="97.48" fill="#ffffff" font-size="16" text-anchor="middle" data-color-bar-letter="true">b</text></g><g data-color-bar-rank="1" data-color-bar-band="R"><rect x="1" y="101" width="20" height="36.075" fill="#ff3f2f"/><text x="11" y="133.555" fill="#000000" font-size="16" text-anchor="middle" data-color-bar-letter="true">r</text></g><g data-color-bar-rank="2" data-color-bar-band="K"><rect x="1" y="137.075" width="20" height="36.075" fill="#000000"/><text x="11" y="169.629" fill="#ffffff" font-size="16" text-anchor="middle" data-color-bar-letter="true">k</text></g><g data-color-bar-rank="3" data-color-bar-band="G"><rect x="1" y="173.149" width="20" height="17.851" fill="#e7be00"/><text x="11" y="187.48" fill="#000000" font-size="16" text-anchor="middle" data-color-bar-letter="true">g</text></g><circle cx="5.6" cy="172" r="3.4" fill="#ffffff" stroke="#000000" stroke-width="0.75" data-bar-marker="left"/><circle cx="16.4" cy="184.667" r="3.4" fill="#ffffff" stroke="#000000" stroke-width="0.75" data-bar-marker="right"/></g><g data-channel="label-top"><text x="27" y="16" fill="#666666" font-size="12" dominant-baseline="central">did:ipid:...</text></g><line x1="0" y1="0.5" x2="213" y2="0.5" stroke="#808080" stroke-width="1" shape-rendering="crispEdges"/><line x1="212.5" y1="0" x2="212.5" y2="192" stroke="#808080" stroke-width="1" shape-rendering="crispEdges"/><line x1="0" y1="191.5" x2="213" y2="191.5" stroke="#808080" stroke-width="1" shape-rendering="crispEdges"/><line x1="0.5" y1="0" x2="0.5" y2="192" stroke="#808080" stroke-width="1" shape-rendering="crispEdges"/><line x1="21.5" y1="0" x2="21.5" y2="192" stroke="#808080" stroke-width="1" shape-rendering="crispEdges"/></svg>