<svg width="213" height="152" viewBox="0 0 213 152" xmlns="http://www.w3.org/2000/svg" font-family="&quot;JetBrains Mono&quot;, &quot;Menlo&quot;, &quot;Consolas&quot;, &quot;DejaVu Sans Mono&quot;, &quot;Liberation Mono&quot;, &quot;Roboto Mono&quot;, &quot;Noto Sans Mono&quot;, monospace" data-entviz-version="v11" data-entviz-lib="0.11.0" data-input-bytes="45" data-cols="3" data-rows="3"><defs><clipPath id="grid-clip-fbc60799375a6e4e-3x3"><rect x="27" y="26" width="180" height="120"/></clipPath></defs><rect x="0" y="0" width="213" height="152" fill="#ffffff"/><g data-channel="grid"><rect x="27" y="26" width="180" height="120" fill="#2f3fbf"/><g><path fill="#000000" d="M27 26h6v10h-6zM33 26h6v10h-6zM39 26h6v10h-6zM81 26h6v10h-6zM81 36h6v10h-6zM69 56h6v10h-6zM63 56h6v10h-6zM57 56h6v10h-6zM51 56h6v10h-6zM39 56h6v10h-6zM33 56h6v10h-6zM27 56h6v10h-6zM27 46h6v10h-6zM27 36h6v10h-6z"/><path fill="#ffffff" d="M93 26h6v10h-6zM105 26h6v10h-6zM111 26h6v10h-6zM123 26h6v10h-6zM135 26h6v10h-6zM141 26h6v10h-6zM141 36h6v10h-6zM141 56h6v10h-6zM135 56h6v10h-6zM117 56h6v10h-6zM99 56h6v10h-6zM93 56h6v10h-6zM87 36h6v10h-6z"/><path fill="#ffffff" d="M147 26h6v10h-6zM153 26h6v10h-6zM165 26h6v10h-6zM177 26h6v10h-6zM183 26h6v10h-6zM201 26h6v10h-6zM201 36h6v10h-6zM201 46h6v10h-6zM189 56h6v10h-6zM171 56h6v10h-6zM165 56h6v10h-6zM159 56h6v10h-6zM147 56h6v10h-6zM147 46h6v10h-6z"/><path fill="#e7be00" d="M27 66h6v10h-6zM33 66h6v10h-6zM51 66h6v10h-6zM57 66h6v10h-6zM63 66h6v10h-6zM81 76h6v10h-6zM63 96h6v10h-6zM57 96h6v10h-6zM51 96h6v10h-6zM27 96h6v10h-6zM27 86h6v10h-6z"/><path fill="#ffffff" d="M99 66h6v10h-6zM123 66h6v10h-6zM141 76h6v10h-6zM141 96h6v10h-6zM135 96h6v10h-6zM129 96h6v10h-6zM123 96h6v10h-6zM105 96h6v10h-6zM99 96h6v10h-6zM87 86h6v10h-6zM87 76h6v10h-6z"/><path fill="#ffffff" d="M147 66h6v10h-6zM171 66h6v10h-6zM183 66h6v10h-6zM195 66h6v10h-6zM201 86h6v10h-6zM201 96h6v10h-6zM195 96h6v10h-6zM171 96h6v10h-6zM159 96h6v10h-6z"/><path fill="#ff3f2f" d="M39 106h6v10h-6zM45 106h6v10h-6zM57 106h6v10h-6zM69 106h6v10h-6zM75 106h6v10h-6zM81 106h6v10h-6zM81 116h6v10h-6zM81 126h6v10h-6zM75 136h6v10h-6zM57 136h6v10h-6zM33 136h6v10h-6zM27 126h6v10h-6z"/><path fill="#ffffff" d="M111 106h6v10h-6zM123 106h6v10h-6zM135 106h6v10h-6zM129 136h6v10h-6zM117 136h6v10h-6zM87 126h6v10h-6zM87 116h6v10h-6z"/><path fill="#ffffff" d="M147 106h6v10h-6zM153 106h6v10h-6zM165 106h6v10h-6zM195 106h6v10h-6zM201 126h6v10h-6zM189 136h6v10h-6zM159 136h6v10h-6zM147 126h6v10h-6z"/></g><g clip-path="url(#grid-clip-fbc60799375a6e4e-3x3)" data-channel="ellipse" data-ellipse-anchor-x="27" data-ellipse-anchor-y="146" data-ellipse-rx="63.169" data-ellipse-ry="73.553" data-ellipse-rotation-deg="132"><ellipse cx="27" cy="146" rx="63.169" ry="73.553" transform="rotate(132 27 146)" fill="#ffffff" stroke="#ffffff" fill-opacity="0.35" stroke-opacity="0.45" stroke-width="2"/></g><g><g data-channel="cell" data-cell-index="0" data-cell-row="0" data-cell-col="0" data-surround-bits="0xfbc607" data-edge-color="#000000"><rect x="33" y="36" width="48" height="20" fill="#5dcd7f"/><text x="57" y="46" fill="#000000" font-size="16" text-anchor="middle" dominant-baseline="central">f81d</text></g><g data-channel="cell" data-cell-index="1" data-cell-row="0" data-cell-col="1" data-surround-bits="0x99375a" data-edge-color="#ffffff"><rect x="93" y="36" width="48" height="20" fill="#9ef6e1"/><text x="117" y="46" fill="#000000" font-size="16" text-anchor="middle" dominant-baseline="central">4fae</text></g><g data-channel="cell" data-cell-index="2" data-cell-row="0" data-cell-col="2" data-surround-bits="0x6e4e6b" data-edge-color="#ffffff" data-cell-quartile="3"><rect x="153" y="36" width="48" height="20" fill="#5eb7fb"/><text x="177" y="46" fill="#000000" font-size="16" text-anchor="middle" dominant-baseline="central">-7de</text><polygon points="201,56 201,46 191,56" fill="#000000"/></g><g data-channel="cell" data-cell-index="3" data-cell-row="1" data-cell-col="0" data-surround-bits="0x638473" data-edge-color="#e7be00"><rect x="33" y="76" width="48" height="20" fill="#75ed73"/><text x="57" y="86" fill="#000000" font-size="16" text-anchor="middle" dominant-baseline="central">c-11</text></g><g data-channel="cell" data-cell-index="4" data-cell-row="1" data-cell-col="1" data-surround-bits="0xccf444" data-edge-color="#ffffff" data-cell-quartile="1"><rect x="93" y="76" width="48" height="20" fill="#9a4f77"/><text x="117" y="86" fill="#ffffff" font-size="16" text-anchor="middle" dominant-baseline="central">d0-a</text><polygon points="93,76 103,76 93,86" fill="#ffffff"/></g><g data-channel="cell" data-cell-index="5" data-cell-row="1" data-cell-col="2" data-surround-bits="0xa3951" data-edge-color="#ffffff"><rect x="153" y="76" width="48" height="20" fill="#7eaeef"/><text x="177" y="86" fill="#000000" font-size="16" text-anchor="middle" dominant-baseline="central">765-</text></g><g data-channel="cell" data-cell-index="6" data-cell-row="2" data-cell-col="0" data-surround-bits="0x512fac" data-edge-color="#ff3f2f"><rect x="33" y="116" width="48" height="20" fill="#b446d3"/><text x="57" y="126" fill="#000000" font-size="16" text-anchor="middle" dominant-baseline="central">00a0</text></g><g data-channel="cell" data-cell-index="7" data-cell-row="2" data-cell-col="1" data-surround-bits="0xc14150" data-edge-color="#ffffff" data-cell-quartile="2"><rect x="93" y="116" width="48" height="20" fill="#5edd73"/><text x="117" y="126" fill="#000000" font-size="16" text-anchor="middle" dominant-baseline="central">c91e</text><polygon points="141,116 131,116 141,126" fill="#000000"/></g><g data-channel="cell" data-cell-index="8" data-cell-row="2" data-cell-col="2" data-surround-bits="0x48490b" data-edge-color="#ffffff"><rect x="153" y="116" width="48" height="20" fill="#fab7e9"/><text x="177" y="126" fill="#000000" font-size="16" text-anchor="middle" dominant-baseline="central">6bf6</text></g></g></g><g data-channel="color-bar" data-bar-slots="12" data-bar-marker-left="9" data-bar-marker-right="7"><g data-color-bar-rank="0" data-color-bar-band="K"><rect x="1" y="1" width="20" height="25.424" fill="#000000"/><text x="11" y="22.904" fill="#ffffff" font-size="16" text-anchor="middle" data-color-bar-letter="true">k</text></g><g data-color-bar-rank="1" data-color-bar-band="R"><rect x="1" y="26.424" width="20" height="20.634" fill="#ff3f2f"/><text x="11" y="43.537" fill="#000000" font-size="16" text-anchor="middle" data-color-bar-letter="true">r</text></g><g data-color-bar-rank="2" data-color-bar-band="G"><rect x="1" y="47.057" width="20" height="56.384" fill="#e7be00"/><text x="11" y="99.922" fill="#000000" font-size="16" text-anchor="middle" data-color-bar-letter="true">g</text></g><g data-color-bar-rank="3" data-color-bar-band="W"><rect x="1" y="103.442" width="20" height="47.558" fill="#ffffff"/><text x="11" y="147.48" fill="#000000" font-size="16" text-anchor="middle" data-color-bar-letter="true">w</text></g><circle cx="5.6" cy="119.75" r="3.4" fill="#ffffff" stroke="#000000" stroke-width="0.75" data-bar-marker="left"/><circle cx="16.4" cy="94.75" r="3.4" fill="#ffffff" stroke="#000000" stroke-width="0.75" data-bar-marker="right"/></g><g data-channel="label-top"><text x="27" y="16" fill="#666666" font-size="12" dominant-baseline="central">urn:uuid:...</text></g><line x1="0" y1="0.5" x2="213" y2="0.5" stroke="#808080" stroke-width="1" shape-rendering="crispEdges"/><line x1="212.5" y1="0" x2="212.5" y2="152" stroke="#808080" stroke-width="1" shape-rendering="crispEdges"/><line x1="0" y1="151.5" x2="213" y2="151.5" stroke="#808080" stroke-width="1" shape-rendering="crispEdges"/><line x1="0.5" y1="0" x2="0.5" y2="152" stroke="#808080" stroke-width="1" shape-rendering="crispEdges"/><line x1="21.5" y1="0" x2="21.5" y2="152" stroke="#808080" stroke-width="1" shape-rendering="crispEdges"/></svg>