<svg width="215" height="154" viewBox="0 0 215 154" xmlns="http://www.w3.org/2000/svg" font-family="&quot;JetBrains Mono&quot;, &quot;Menlo&quot;, &quot;Consolas&quot;, &quot;DejaVu Sans Mono&quot;, &quot;Liberation Mono&quot;, &quot;Roboto Mono&quot;, &quot;Noto Sans Mono&quot;, monospace" data-entviz-version="v12" data-entviz-lib="0.12.0" data-input-bytes="45" data-cols="3" data-rows="3"><defs><clipPath id="grid-clip-fbc60799375a6e4e-3x3"><rect x="28" y="27" width="180" height="120"/></clipPath></defs><rect x="1" y="1" width="213" height="152" fill="#ffffff"/><g data-channel="grid"><rect x="28" y="27" width="180" height="120" fill="#2f3fbf"/><g><path fill="#000000" d="M28 27h6v10h-6zM34 27h6v10h-6zM40 27h6v10h-6zM82 27h6v10h-6zM82 37h6v10h-6zM70 57h6v10h-6zM64 57h6v10h-6zM58 57h6v10h-6zM52 57h6v10h-6zM40 57h6v10h-6zM34 57h6v10h-6zM28 57h6v10h-6zM28 47h6v10h-6zM28 37h6v10h-6z"/><path fill="#ffffff" d="M94 27h6v10h-6zM106 27h6v10h-6zM112 27h6v10h-6zM124 27h6v10h-6zM136 27h6v10h-6zM142 27h6v10h-6zM142 37h6v10h-6zM142 57h6v10h-6zM136 57h6v10h-6zM118 57h6v10h-6zM100 57h6v10h-6zM94 57h6v10h-6zM88 37h6v10h-6z"/><path fill="#ffffff" d="M148 27h6v10h-6zM154 27h6v10h-6zM166 27h6v10h-6zM178 27h6v10h-6zM184 27h6v10h-6zM202 27h6v10h-6zM202 37h6v10h-6zM202 47h6v10h-6zM190 57h6v10h-6zM172 57h6v10h-6zM166 57h6v10h-6zM160 57h6v10h-6zM148 57h6v10h-6zM148 47h6v10h-6z"/><path fill="#e7be00" d="M28 67h6v10h-6zM34 67h6v10h-6zM52 67h6v10h-6zM58 67h6v10h-6zM64 67h6v10h-6zM82 77h6v10h-6zM64 97h6v10h-6zM58 97h6v10h-6zM52 97h6v10h-6zM28 97h6v10h-6zM28 87h6v10h-6z"/><path fill="#ffffff" d="M100 67h6v10h-6zM124 67h6v10h-6zM142 77h6v10h-6zM142 97h6v10h-6zM136 97h6v10h-6zM130 97h6v10h-6zM124 97h6v10h-6zM106 97h6v10h-6zM100 97h6v10h-6zM88 87h6v10h-6zM88 77h6v10h-6z"/><path fill="#ffffff" d="M148 67h6v10h-6zM172 67h6v10h-6zM184 67h6v10h-6zM196 67h6v10h-6zM202 87h6v10h-6zM202 97h6v10h-6zM196 97h6v10h-6zM172 97h6v10h-6zM160 97h6v10h-6z"/><path fill="#ff3f2f" d="M40 107h6v10h-6zM46 107h6v10h-6zM58 107h6v10h-6zM70 107h6v10h-6zM76 107h6v10h-6zM82 107h6v10h-6zM82 117h6v10h-6zM82 127h6v10h-6zM76 137h6v10h-6zM58 137h6v10h-6zM34 137h6v10h-6zM28 127h6v10h-6z"/><path fill="#ffffff" d="M112 107h6v10h-6zM124 107h6v10h-6zM136 107h6v10h-6zM130 137h6v10h-6zM118 137h6v10h-6zM88 127h6v10h-6zM88 117h6v10h-6z"/><path fill="#ffffff" d="M148 107h6v10h-6zM154 107h6v10h-6zM166 107h6v10h-6zM196 107h6v10h-6zM202 127h6v10h-6zM190 137h6v10h-6zM160 137h6v10h-6zM148 127h6v10h-6z"/></g><g clip-path="url(#grid-clip-fbc60799375a6e4e-3x3)" data-channel="ellipse" data-ellipse-anchor-x="28" data-ellipse-anchor-y="147" data-ellipse-rx="63.169" data-ellipse-ry="73.553" data-ellipse-rotation-deg="132"><ellipse cx="28" cy="147" rx="63.169" ry="73.553" transform="rotate(132 28 147)" fill="#ffffff" stroke="#ffffff" fill-opacity="0.35" stroke-opacity="0.45" stroke-width="2"/></g><g><g data-channel="cell" data-cell-index="0" data-cell-row="0" data-cell-col="0" data-surround-bits="0xfbc607" data-edge-color="#000000"><rect x="34" y="37" width="48" height="20" fill="#5dcd7f"/><text x="58" y="47" fill="#000000" font-size="16" text-anchor="middle" dominant-baseline="central">f81d</text></g><g data-channel="cell" data-cell-index="1" data-cell-row="0" data-cell-col="1" data-surround-bits="0x99375a" data-edge-color="#ffffff"><rect x="94" y="37" width="48" height="20" fill="#9ef6e1"/><text x="118" y="47" fill="#000000" font-size="16" text-anchor="middle" dominant-baseline="central">4fae</text></g><g data-channel="cell" data-cell-index="2" data-cell-row="0" data-cell-col="2" data-surround-bits="0x6e4e6b" data-edge-color="#ffffff" data-cell-quartile="3"><rect x="154" y="37" width="48" height="20" fill="#5eb7fb"/><text x="178" y="47" fill="#000000" font-size="16" text-anchor="middle" dominant-baseline="central">-7de</text><polygon points="202,57 202,47 192,57" fill="#000000"/></g><g data-channel="cell" data-cell-index="3" data-cell-row="1" data-cell-col="0" data-surround-bits="0x638473" data-edge-color="#e7be00"><rect x="34" y="77" width="48" height="20" fill="#75ed73"/><text x="58" y="87" fill="#000000" font-size="16" text-anchor="middle" dominant-baseline="central">c-11</text></g><g data-channel="cell" data-cell-index="4" data-cell-row="1" data-cell-col="1" data-surround-bits="0xccf444" data-edge-color="#ffffff" data-cell-quartile="1"><rect x="94" y="77" width="48" height="20" fill="#9a4f77"/><text x="118" y="87" fill="#ffffff" font-size="16" text-anchor="middle" dominant-baseline="central">d0-a</text><polygon points="94,77 104,77 94,87" fill="#ffffff"/></g><g data-channel="cell" data-cell-index="5" data-cell-row="1" data-cell-col="2" data-surround-bits="0xa3951" data-edge-color="#ffffff"><rect x="154" y="77" width="48" height="20" fill="#7eaeef"/><text x="178" y="87" fill="#000000" font-size="16" text-anchor="middle" dominant-baseline="central">765-</text></g><g data-channel="cell" data-cell-index="6" data-cell-row="2" data-cell-col="0" data-surround-bits="0x512fac" data-edge-color="#ff3f2f"><rect x="34" y="117" width="48" height="20" fill="#b446d3"/><text x="58" y="127" fill="#000000" font-size="16" text-anchor="middle" dominant-baseline="central">00a0</text></g><g data-channel="cell" data-cell-index="7" data-cell-row="2" data-cell-col="1" data-surround-bits="0xc14150" data-edge-color="#ffffff" data-cell-quartile="2"><rect x="94" y="117" width="48" height="20" fill="#5edd73"/><text x="118" y="127" fill="#000000" font-size="16" text-anchor="middle" dominant-baseline="central">c91e</text><polygon points="142,117 132,117 142,127" fill="#000000"/></g><g data-channel="cell" data-cell-index="8" data-cell-row="2" data-cell-col="2" data-surround-bits="0x48490b" data-edge-color="#ffffff"><rect x="154" y="117" width="48" height="20" fill="#fab7e9"/><text x="178" y="127" fill="#000000" font-size="16" text-anchor="middle" dominant-baseline="central">6bf6</text></g></g></g><g data-channel="color-bar" data-bar-slots="12" data-bar-marker-left="9" data-bar-marker-right="7"><g data-color-bar-rank="0" data-color-bar-band="K"><rect x="2" y="2" width="20" height="25.424" fill="#000000"/><text x="12" y="23.904" fill="#ffffff" font-size="16" text-anchor="middle" data-color-bar-letter="true">k</text></g><g data-color-bar-rank="1" data-color-bar-band="R"><rect x="2" y="27.424" width="20" height="20.634" fill="#ff3f2f"/><text x="12" y="44.537" fill="#000000" font-size="16" text-anchor="middle" data-color-bar-letter="true">r</text></g><g data-color-bar-rank="2" data-color-bar-band="G"><rect x="2" y="48.057" width="20" height="56.384" fill="#e7be00"/><text x="12" y="100.922" fill="#000000" font-size="16" text-anchor="middle" data-color-bar-letter="true">g</text></g><g data-color-bar-rank="3" data-color-bar-band="W"><rect x="2" y="104.442" width="20" height="47.558" fill="#ffffff"/><text x="12" y="148.48" fill="#000000" font-size="16" text-anchor="middle" data-color-bar-letter="true">w</text></g><circle cx="6.6" cy="120.75" r="3.4" fill="#ffffff" stroke="#000000" stroke-width="0.75" data-bar-marker="left"/><circle cx="17.4" cy="95.75" r="3.4" fill="#ffffff" stroke="#000000" stroke-width="0.75" data-bar-marker="right"/></g><g data-channel="label-top"><text x="28" y="17" fill="#666666" font-size="12" dominant-baseline="central">urn:uuid:...</text></g><line x1="1" y1="1.5" x2="214" y2="1.5" stroke="#808080" stroke-width="1" shape-rendering="crispEdges"/><line x1="213.5" y1="1" x2="213.5" y2="153" stroke="#808080" stroke-width="1" shape-rendering="crispEdges"/><line x1="1" y1="152.5" x2="214" y2="152.5" stroke="#808080" stroke-width="1" shape-rendering="crispEdges"/><line x1="1.5" y1="1" x2="1.5" y2="153" stroke="#808080" stroke-width="1" shape-rendering="crispEdges"/><line x1="22.5" y1="1" x2="22.5" y2="153" stroke="#808080" stroke-width="1" shape-rendering="crispEdges"/></svg>