<svg width="153" height="152" viewBox="0 0 153 152" xmlns="http://www.w3.org/2000/svg" font-family="&quot;JetBrains Mono&quot;, &quot;Menlo&quot;, &quot;Consolas&quot;, &quot;DejaVu Sans Mono&quot;, &quot;Liberation Mono&quot;, &quot;Roboto Mono&quot;, &quot;Noto Sans Mono&quot;, monospace" data-entviz-version="v11" data-entviz-lib="0.11.0" data-input-bytes="29" data-cols="2" data-rows="3"><defs><clipPath id="grid-clip-dd810753343f5b66-2x3"><rect x="27" y="26" width="120" height="120"/></clipPath></defs><rect x="0" y="0" width="153" height="152" fill="#ffffff"/><g data-channel="grid"><rect x="27" y="26" width="120" height="120" fill="#2f3fbf"/><g><path fill="#000000" d="M27 26h6v10h-6zM33 26h6v10h-6zM39 26h6v10h-6zM75 26h6v10h-6zM63 56h6v10h-6zM57 56h6v10h-6zM45 56h6v10h-6zM39 56h6v10h-6zM33 56h6v10h-6zM27 46h6v10h-6zM27 36h6v10h-6z"/><path fill="#e7be00" d="M87 26h6v10h-6zM93 26h6v10h-6zM99 26h6v10h-6zM105 26h6v10h-6zM111 26h6v10h-6zM117 26h6v10h-6zM141 36h6v10h-6zM141 56h6v10h-6zM135 56h6v10h-6zM117 56h6v10h-6zM111 56h6v10h-6zM93 56h6v10h-6zM87 46h6v10h-6z"/><path fill="#000000" d="M27 66h6v10h-6zM39 66h6v10h-6zM57 66h6v10h-6zM81 66h6v10h-6zM81 76h6v10h-6zM75 96h6v10h-6zM69 96h6v10h-6zM57 96h6v10h-6zM51 96h6v10h-6zM39 96h6v10h-6zM33 96h6v10h-6zM27 86h6v10h-6z"/><path fill="#000000" d="M87 66h6v10h-6zM93 66h6v10h-6zM99 66h6v10h-6zM105 66h6v10h-6zM123 66h6v10h-6zM135 66h6v10h-6zM141 66h6v10h-6zM141 96h6v10h-6zM111 96h6v10h-6zM105 96h6v10h-6zM93 96h6v10h-6zM87 96h6v10h-6zM87 86h6v10h-6zM87 76h6v10h-6z"/><path fill="#ff3f2f" d="M27 106h6v10h-6zM33 106h6v10h-6zM39 106h6v10h-6zM45 106h6v10h-6zM63 106h6v10h-6zM69 106h6v10h-6zM75 106h6v10h-6zM81 106h6v10h-6zM81 126h6v10h-6zM75 136h6v10h-6zM63 136h6v10h-6zM51 136h6v10h-6zM45 136h6v10h-6zM39 136h6v10h-6zM27 136h6v10h-6zM27 126h6v10h-6z"/><path fill="#ff3f2f" d="M99 106h6v10h-6zM105 106h6v10h-6zM123 106h6v10h-6zM135 106h6v10h-6zM141 106h6v10h-6zM141 116h6v10h-6zM141 136h6v10h-6zM117 136h6v10h-6zM105 136h6v10h-6zM87 126h6v10h-6zM87 116h6v10h-6z"/></g><g clip-path="url(#grid-clip-dd810753343f5b66-2x3)" data-channel="ellipse" data-ellipse-anchor-x="27" data-ellipse-anchor-y="146" data-ellipse-rx="78.065" data-ellipse-ry="78.065" data-ellipse-rotation-deg="132"><ellipse cx="27" cy="146" rx="78.065" ry="78.065" transform="rotate(132 27 146)" fill="#ffffff" stroke="#ffffff" fill-opacity="0.35" stroke-opacity="0.45" stroke-width="2"/></g><g><g data-channel="cell" data-cell-index="0" data-cell-row="0" data-cell-col="0" data-surround-bits="0xdd8107" data-edge-color="#000000" data-cell-quartile="1"><rect x="33" y="36" width="48" height="20" fill="#7a0dd8"/><text x="57" y="46" fill="#ffffff" font-size="16" text-anchor="middle" dominant-baseline="central">2.16</text><polygon points="33,36 43,36 33,46" fill="#ffffff"/></g><g data-channel="cell" data-cell-index="1" data-cell-row="0" data-cell-col="1" data-surround-bits="0x53343f" data-edge-color="#e7be00" data-cell-quartile="3"><rect x="93" y="36" width="48" height="20" fill="#34ce03"/><text x="117" y="46" fill="#000000" font-size="16" text-anchor="middle" dominant-baseline="central">.840</text><polygon points="141,56 141,46 131,56" fill="#000000"/></g><g data-channel="cell" data-cell-index="2" data-cell-row="1" data-cell-col="0" data-surround-bits="0x5b6625" data-edge-color="#000000"><rect x="33" y="76" width="48" height="20" fill="#355003"/><text x="57" y="86" fill="#ffffff" font-size="16" text-anchor="middle" dominant-baseline="central">.1.1</text></g><g data-channel="cell" data-cell-index="3" data-cell-row="1" data-cell-col="1" data-surround-bits="0xf6134f" data-edge-color="#000000" data-cell-quartile="2"><rect x="93" y="76" width="48" height="20" fill="#3c7fd7"/><text x="117" y="86" fill="#ffffff" font-size="16" text-anchor="middle" dominant-baseline="central">1388</text><polygon points="141,76 131,76 141,86" fill="#ffffff"/></g><g data-channel="cell" data-cell-index="4" data-cell-row="2" data-cell-col="0" data-surround-bits="0x6eabcf" data-edge-color="#ff3f2f"><rect x="33" y="116" width="48" height="20" fill="#800edc"/><text x="57" y="126" fill="#ffffff" font-size="16" text-anchor="middle" dominant-baseline="central">3.6.</text></g><g data-channel="cell" data-cell-index="5" data-cell-row="2" data-cell-col="1" data-surround-bits="0xc5174c" data-edge-color="#ff3f2f"><rect x="93" y="116" width="48" height="20" fill="#755dd7"/><text x="117" y="126" fill="#ffffff" font-size="16" text-anchor="middle" dominant-baseline="central">1</text></g></g></g><g data-channel="color-bar" data-bar-slots="12" data-bar-marker-left="10" data-bar-marker-right="8"><g data-color-bar-rank="0" data-color-bar-band="G"><rect x="1" y="1" width="20" height="52.665" fill="#e7be00"/><text x="11" y="50.145" fill="#000000" font-size="16" text-anchor="middle" data-color-bar-letter="true">g</text></g><g data-color-bar-rank="1" data-color-bar-band="K"><rect x="1" y="53.665" width="20" height="34.553" fill="#000000"/><text x="11" y="84.698" fill="#ffffff" font-size="16" text-anchor="middle" data-color-bar-letter="true">k</text></g><g data-color-bar-rank="2" data-color-bar-band="W"><rect x="1" y="88.218" width="20" height="30.37" fill="#ffffff"/><text x="11" y="115.069" fill="#000000" font-size="16" text-anchor="middle" data-color-bar-letter="true">w</text></g><g data-color-bar-rank="3" data-color-bar-band="R"><rect x="1" y="118.589" width="20" height="32.411" fill="#ff3f2f"/><text x="11" y="147.48" fill="#000000" font-size="16" text-anchor="middle" data-color-bar-letter="true">r</text></g><circle cx="5.6" cy="132.25" r="3.4" fill="#ffffff" stroke="#000000" stroke-width="0.75" data-bar-marker="left"/><circle cx="16.4" cy="107.25" r="3.4" fill="#ffffff" stroke="#000000" stroke-width="0.75" data-bar-marker="right"/></g><g data-channel="label-top"><text x="27" y="16" fill="#666666" font-size="12" dominant-baseline="central">urn:oid:...</text></g><line x1="0" y1="0.5" x2="153" y2="0.5" stroke="#808080" stroke-width="1" shape-rendering="crispEdges"/><line x1="152.5" y1="0" x2="152.5" y2="152" stroke="#808080" stroke-width="1" shape-rendering="crispEdges"/><line x1="0" y1="151.5" x2="153" y2="151.5" stroke="#808080" stroke-width="1" shape-rendering="crispEdges"/><line x1="0.5" y1="0" x2="0.5" y2="152" stroke="#808080" stroke-width="1" shape-rendering="crispEdges"/><line x1="21.5" y1="0" x2="21.5" y2="152" stroke="#808080" stroke-width="1" shape-rendering="crispEdges"/></svg>