<svg width="215" height="154" viewBox="0 0 215 154" xmlns="http://www.w3.org/2000/svg" font-family="&quot;JetBrains Mono&quot;, &quot;Menlo&quot;, &quot;Consolas&quot;, &quot;DejaVu Sans Mono&quot;, &quot;Liberation Mono&quot;, &quot;Roboto Mono&quot;, &quot;Noto Sans Mono&quot;, monospace" data-entviz-version="v14" data-entviz-lib="0.14.0" data-input-bytes="36" data-cols="3" data-rows="3" data-encoding="base64url" data-scheme="urn" data-role="identifier" data-size-basis="utf8" data-entropy-type="urn" data-size-bits="224" data-qualifiers="{&quot;nid&quot;:&quot;lex&quot;}" data-parts="[{&quot;text&quot;:&quot;urn:lex:&quot;,&quot;bind&quot;:&quot;fold&quot;},{&quot;text&quot;:&quot;eu:council:directive:2010-19&quot;,&quot;bind&quot;:&quot;core&quot;}]"><defs><clipPath id="grid-clip-0d2f90f38d03c9b4-3x3"><rect x="28" y="27" width="180" height="120"/></clipPath></defs><rect x="1" y="1" width="213" height="152" fill="#ffffff"/><g data-channel="grid"><rect x="28" y="27" width="180" height="120" fill="#ff3f2f"/><g><path fill="#ffffff" d="M52 27h6v10h-6zM70 27h6v10h-6zM76 27h6v10h-6zM82 27h6v10h-6zM82 37h6v10h-6zM82 47h6v10h-6zM76 57h6v10h-6zM58 57h6v10h-6zM46 57h6v10h-6zM40 57h6v10h-6z"/><path fill="#ffffff" d="M88 27h6v10h-6zM94 27h6v10h-6zM136 27h6v10h-6zM142 37h6v10h-6zM142 47h6v10h-6zM124 57h6v10h-6zM118 57h6v10h-6zM112 57h6v10h-6zM94 57h6v10h-6zM88 57h6v10h-6zM88 47h6v10h-6zM88 37h6v10h-6z"/><path fill="#ffffff" d="M160 27h6v10h-6zM172 27h6v10h-6zM178 27h6v10h-6zM202 37h6v10h-6zM202 57h6v10h-6zM196 57h6v10h-6zM184 57h6v10h-6zM178 57h6v10h-6zM160 57h6v10h-6zM148 47h6v10h-6zM148 37h6v10h-6z"/><path fill="#e7be00" d="M94 67h6v10h-6zM100 67h6v10h-6zM112 67h6v10h-6zM124 67h6v10h-6zM130 67h6v10h-6zM142 67h6v10h-6zM142 87h6v10h-6zM142 97h6v10h-6zM124 97h6v10h-6zM112 97h6v10h-6zM88 77h6v10h-6z"/><path fill="#2f3fbf" d="M148 67h6v10h-6zM154 67h6v10h-6zM160 67h6v10h-6zM166 67h6v10h-6zM172 67h6v10h-6zM178 67h6v10h-6zM184 67h6v10h-6zM202 77h6v10h-6zM178 97h6v10h-6zM166 97h6v10h-6zM160 97h6v10h-6zM148 87h6v10h-6zM148 77h6v10h-6z"/><path fill="#000000" d="M88 107h6v10h-6zM118 107h6v10h-6zM130 107h6v10h-6zM142 107h6v10h-6zM142 117h6v10h-6zM142 137h6v10h-6zM136 137h6v10h-6zM124 137h6v10h-6zM112 137h6v10h-6zM106 137h6v10h-6zM100 137h6v10h-6zM88 127h6v10h-6zM88 117h6v10h-6z"/><path fill="#ffffff" d="M148 107h6v10h-6zM178 107h6v10h-6zM190 107h6v10h-6zM202 107h6v10h-6zM202 127h6v10h-6zM196 137h6v10h-6zM190 137h6v10h-6zM172 137h6v10h-6zM166 137h6v10h-6zM154 137h6v10h-6zM148 137h6v10h-6z"/></g><g clip-path="url(#grid-clip-0d2f90f38d03c9b4-3x3)" data-channel="ellipse" data-ellipse-anchor-x="28" data-ellipse-anchor-y="107" data-ellipse-rx="104.792" data-ellipse-ry="95.337" data-ellipse-rotation-deg="168"><ellipse cx="28" cy="107" rx="104.792" ry="95.337" transform="rotate(168 28 107)" fill="#000000" stroke="#000000" fill-opacity="0.25" stroke-opacity="0.35" stroke-width="2"/></g><g><g data-channel="cell" data-cell-index="0" data-cell-row="0" data-cell-col="0" data-surround-bits="0xd2f90" data-edge-color="#ffffff" data-cell-quartile="2"><rect x="34" y="37" width="48" height="20" fill="#1ce07a"/><text x="58" y="47" fill="#000000" font-size="16" text-anchor="middle" dominant-baseline="central">eu:c</text><polygon points="82,37 72,37 82,47" fill="#000000"/></g><g data-channel="cell" data-cell-index="1" data-cell-row="0" data-cell-col="1" data-surround-bits="0xf38d03" data-edge-color="#ffffff"><rect x="94" y="37" width="48" height="20" fill="#dce9a2"/><text x="118" y="47" fill="#000000" font-size="16" text-anchor="middle" dominant-baseline="central">ounc</text></g><g data-channel="cell" data-cell-index="2" data-cell-row="0" data-cell-col="2" data-surround-bits="0xc9b434" data-edge-color="#ffffff" data-cell-quartile="1"><rect x="154" y="37" width="48" height="20" fill="#1d508a"/><text x="178" y="47" fill="#ffffff" font-size="16" text-anchor="middle" dominant-baseline="central">il:d</text><polygon points="154,37 164,37 154,47" fill="#ffffff"/></g><g data-channel="cell" data-cell-index="3" data-cell-row="1" data-cell-col="0" data-cell-blank="true" data-cell-blank-map="true"><rect x="34" y="77" width="48" height="20" rx="10" ry="10" fill="#ffffff" stroke="#000000" stroke-width="1"/><circle cx="42" cy="80.333" r="3.5" fill="#1d4ed8" data-blank-map-min="0,0"/><path d="M 53.8,80.333 H 62.2 M 58,76.133 V 84.533" fill="none" stroke="#d62828" stroke-width="1.925" stroke-linecap="butt" data-blank-map-max="0,1"/></g><g data-channel="cell" data-cell-index="4" data-cell-row="1" data-cell-col="1" data-surround-bits="0x829ad6" data-edge-color="#e7be00"><rect x="94" y="77" width="48" height="20" fill="#9cb78a"/><text x="118" y="87" fill="#000000" font-size="16" text-anchor="middle" dominant-baseline="central">irec</text></g><g data-channel="cell" data-cell-index="5" data-cell-row="1" data-cell-col="2" data-surround-bits="0xcd047f" data-edge-color="#2f3fbf" data-cell-quartile="3"><rect x="154" y="77" width="48" height="20" fill="#de2bb6"/><text x="178" y="87" fill="#000000" font-size="16" text-anchor="middle" dominant-baseline="central">tive</text><polygon points="202,97 202,87 192,97" fill="#000000"/></g><g data-channel="cell" data-cell-index="6" data-cell-row="2" data-cell-col="0" data-cell-blank="true"><rect x="34" y="117" width="48" height="20" rx="10" ry="10" fill="#2f3fbf" stroke="#000000" stroke-width="1"/></g><g data-channel="cell" data-cell-index="7" data-cell-row="2" data-cell-col="1" data-surround-bits="0xceb6a1" data-edge-color="#000000"><rect x="94" y="117" width="48" height="20" fill="#356d03"/><text x="118" y="127" fill="#ffffff" font-size="16" text-anchor="middle" dominant-baseline="central">:201</text></g><g data-channel="cell" data-cell-index="8" data-cell-row="2" data-cell-col="2" data-surround-bits="0x366aa1" data-edge-color="#ffffff" data-cell-quartile="4"><rect x="154" y="117" width="48" height="20" fill="#7dedd3"/><text x="178" y="127" fill="#000000" font-size="16" text-anchor="middle" dominant-baseline="central">0-19</text><polygon points="154,137 154,127 164,137" fill="#000000"/></g></g></g><g data-channel="color-bar" data-bar-slots="12" data-bar-marker-left="0" data-bar-marker-right="11"><g data-color-bar-rank="0" data-color-bar-band="G"><rect x="2" y="2" width="20" height="25.94" fill="#e7be00"/><text x="12" y="24.42" fill="#000000" font-size="16" text-anchor="middle" data-color-bar-letter="true">g</text></g><g data-color-bar-rank="1" data-color-bar-band="K"><rect x="2" y="27.94" width="20" height="31.633" fill="#000000"/><text x="12" y="56.053" fill="#ffffff" font-size="16" text-anchor="middle" data-color-bar-letter="true">k</text></g><g data-color-bar-rank="2" data-color-bar-band="W"><rect x="2" y="59.573" width="20" height="60.794" fill="#ffffff"/><text x="12" y="116.847" fill="#000000" font-size="16" text-anchor="middle" data-color-bar-letter="true">w</text></g><g data-color-bar-rank="3" data-color-bar-band="B"><rect x="2" y="120.367" width="20" height="31.633" fill="#2f3fbf"/><text x="12" y="148.48" fill="#ffffff" font-size="16" text-anchor="middle" data-color-bar-letter="true">b</text></g><circle cx="6.6" cy="8.25" r="3.4" fill="#ffffff" stroke="#000000" stroke-width="0.75" data-bar-marker="left"/><circle cx="17.4" cy="145.75" r="3.4" fill="#ffffff" stroke="#000000" stroke-width="0.75" data-bar-marker="right"/></g><g data-channel="label-top"><text x="28" y="17" fill="#666666" font-size="12" dominant-baseline="central">urn:lex</text></g><line x1="1" y1="1.5" x2="214" y2="1.5" stroke="#808080" stroke-width="1" shape-rendering="crispEdges"/><line x1="213.5" y1="1" x2="213.5" y2="153" stroke="#808080" stroke-width="1" shape-rendering="crispEdges"/><line x1="1" y1="152.5" x2="214" y2="152.5" stroke="#808080" stroke-width="1" shape-rendering="crispEdges"/><line x1="1.5" y1="1" x2="1.5" y2="153" stroke="#808080" stroke-width="1" shape-rendering="crispEdges"/><line x1="22.5" y1="1" x2="22.5" y2="153" stroke="#808080" stroke-width="1" shape-rendering="crispEdges"/></svg>