<svg width="213" height="192" viewBox="0 0 213 192" xmlns="http://www.w3.org/2000/svg" font-family="&quot;JetBrains Mono&quot;, &quot;Menlo&quot;, &quot;Consolas&quot;, &quot;DejaVu Sans Mono&quot;, &quot;Liberation Mono&quot;, &quot;Roboto Mono&quot;, &quot;Noto Sans Mono&quot;, monospace" data-entviz-version="v10" data-entviz-lib="0.10.0" data-input-bytes="64" data-cols="3" data-rows="4"><defs><clipPath id="grid-clip-8ed0861e43294df7-3x4"><rect x="27" y="26" width="180" height="160"/></clipPath></defs><rect x="0" y="0" width="213" height="192" fill="#ffffff"/><g data-channel="grid"><rect x="27" y="26" width="180" height="160" fill="#2f3fbf"/><g><rect x="33" y="26" width="6" height="10" fill="#ff3f2f"/><rect x="39" y="26" width="6" height="10" fill="#ff3f2f"/><rect x="69" y="26" width="6" height="10" fill="#ff3f2f"/><rect x="81" y="56" width="6" height="10" fill="#ff3f2f"/><rect x="69" y="56" width="6" height="10" fill="#ff3f2f"/><rect x="63" y="56" width="6" height="10" fill="#ff3f2f"/><rect x="51" y="56" width="6" height="10" fill="#ff3f2f"/><rect x="45" y="56" width="6" height="10" fill="#ff3f2f"/><rect x="39" y="56" width="6" height="10" fill="#ff3f2f"/><rect x="27" y="36" width="6" height="10" fill="#ff3f2f"/><rect x="87" y="26" width="6" height="10" fill="#ffffff"/><rect x="105" y="26" width="6" height="10" fill="#ffffff"/><rect x="117" y="26" width="6" height="10" fill="#ffffff"/><rect x="135" y="26" width="6" height="10" fill="#ffffff"/><rect x="141" y="26" width="6" height="10" fill="#ffffff"/><rect x="129" y="56" width="6" height="10" fill="#ffffff"/><rect x="111" y="56" width="6" height="10" fill="#ffffff"/><rect x="105" y="56" width="6" height="10" fill="#ffffff"/><rect x="99" y="56" width="6" height="10" fill="#ffffff"/><rect x="93" y="56" width="6" height="10" fill="#ffffff"/><rect x="147" y="26" width="6" height="10" fill="#ffffff"/><rect x="177" y="26" width="6" height="10" fill="#ffffff"/><rect x="183" y="26" width="6" height="10" fill="#ffffff"/><rect x="195" y="26" width="6" height="10" fill="#ffffff"/><rect x="201" y="26" width="6" height="10" fill="#ffffff"/><rect x="201" y="36" width="6" height="10" fill="#ffffff"/><rect x="201" y="56" width="6" height="10" fill="#ffffff"/><rect x="195" y="56" width="6" height="10" fill="#ffffff"/><rect x="189" y="56" width="6" height="10" fill="#ffffff"/><rect x="183" y="56" width="6" height="10" fill="#ffffff"/><rect x="177" y="56" width="6" height="10" fill="#ffffff"/><rect x="165" y="56" width="6" height="10" fill="#ffffff"/><rect x="159" y="56" width="6" height="10" fill="#ffffff"/><rect x="147" y="46" width="6" height="10" fill="#ffffff"/><rect x="27" y="66" width="6" height="10" fill="#ff3f2f"/><rect x="33" y="66" width="6" height="10" fill="#ff3f2f"/><rect x="39" y="66" width="6" height="10" fill="#ff3f2f"/><rect x="57" y="66" width="6" height="10" fill="#ff3f2f"/><rect x="81" y="86" width="6" height="10" fill="#ff3f2f"/><rect x="63" y="96" width="6" height="10" fill="#ff3f2f"/><rect x="57" y="96" width="6" height="10" fill="#ff3f2f"/><rect x="45" y="96" width="6" height="10" fill="#ff3f2f"/><rect x="33" y="96" width="6" height="10" fill="#ff3f2f"/><rect x="27" y="96" width="6" height="10" fill="#ff3f2f"/><rect x="27" y="86" width="6" height="10" fill="#ff3f2f"/><rect x="87" y="66" width="6" height="10" fill="#e7be00"/><rect x="105" y="66" width="6" height="10" fill="#e7be00"/><rect x="117" y="66" width="6" height="10" fill="#e7be00"/><rect x="123" y="66" width="6" height="10" fill="#e7be00"/><rect x="129" y="66" width="6" height="10" fill="#e7be00"/><rect x="135" y="66" width="6" height="10" fill="#e7be00"/><rect x="141" y="86" width="6" height="10" fill="#e7be00"/><rect x="135" y="96" width="6" height="10" fill="#e7be00"/><rect x="123" y="96" width="6" height="10" fill="#e7be00"/><rect x="99" y="96" width="6" height="10" fill="#e7be00"/><rect x="93" y="96" width="6" height="10" fill="#e7be00"/><rect x="87" y="86" width="6" height="10" fill="#e7be00"/><rect x="87" y="76" width="6" height="10" fill="#e7be00"/><rect x="159" y="66" width="6" height="10" fill="#ff3f2f"/><rect x="177" y="66" width="6" height="10" fill="#ff3f2f"/><rect x="183" y="66" width="6" height="10" fill="#ff3f2f"/><rect x="201" y="66" width="6" height="10" fill="#ff3f2f"/><rect x="201" y="76" width="6" height="10" fill="#ff3f2f"/><rect x="183" y="96" width="6" height="10" fill="#ff3f2f"/><rect x="171" y="96" width="6" height="10" fill="#ff3f2f"/><rect x="159" y="96" width="6" height="10" fill="#ff3f2f"/><rect x="147" y="86" width="6" height="10" fill="#ff3f2f"/><rect x="147" y="76" width="6" height="10" fill="#ff3f2f"/><rect x="69" y="106" width="6" height="10" fill="#ffffff"/><rect x="75" y="106" width="6" height="10" fill="#ffffff"/><rect x="81" y="116" width="6" height="10" fill="#ffffff"/><rect x="81" y="136" width="6" height="10" fill="#ffffff"/><rect x="75" y="136" width="6" height="10" fill="#ffffff"/><rect x="69" y="136" width="6" height="10" fill="#ffffff"/><rect x="63" y="136" width="6" height="10" fill="#ffffff"/><rect x="57" y="136" width="6" height="10" fill="#ffffff"/><rect x="45" y="136" width="6" height="10" fill="#ffffff"/><rect x="39" y="136" width="6" height="10" fill="#ffffff"/><rect x="27" y="136" width="6" height="10" fill="#ffffff"/><rect x="117" y="106" width="6" height="10" fill="#000000"/><rect x="141" y="116" width="6" height="10" fill="#000000"/><rect x="129" y="136" width="6" height="10" fill="#000000"/><rect x="123" y="136" width="6" height="10" fill="#000000"/><rect x="117" y="136" width="6" height="10" fill="#000000"/><rect x="105" y="136" width="6" height="10" fill="#000000"/><rect x="93" y="136" width="6" height="10" fill="#000000"/><rect x="87" y="136" width="6" height="10" fill="#000000"/><rect x="87" y="126" width="6" height="10" fill="#000000"/><rect x="87" y="116" width="6" height="10" fill="#000000"/><rect x="27" y="146" width="6" height="10" fill="#000000"/><rect x="33" y="146" width="6" height="10" fill="#000000"/><rect x="45" y="146" width="6" height="10" fill="#000000"/><rect x="51" y="146" width="6" height="10" fill="#000000"/><rect x="57" y="146" width="6" height="10" fill="#000000"/><rect x="63" y="146" width="6" height="10" fill="#000000"/><rect x="69" y="146" width="6" height="10" fill="#000000"/><rect x="81" y="146" width="6" height="10" fill="#000000"/><rect x="81" y="156" width="6" height="10" fill="#000000"/><rect x="81" y="166" width="6" height="10" fill="#000000"/><rect x="57" y="176" width="6" height="10" fill="#000000"/><rect x="45" y="176" width="6" height="10" fill="#000000"/><rect x="39" y="176" width="6" height="10" fill="#000000"/><rect x="33" y="176" width="6" height="10" fill="#000000"/><rect x="27" y="166" width="6" height="10" fill="#000000"/><rect x="93" y="146" width="6" height="10" fill="#ff3f2f"/><rect x="99" y="146" width="6" height="10" fill="#ff3f2f"/><rect x="105" y="146" width="6" height="10" fill="#ff3f2f"/><rect x="111" y="146" width="6" height="10" fill="#ff3f2f"/><rect x="117" y="146" width="6" height="10" fill="#ff3f2f"/><rect x="123" y="146" width="6" height="10" fill="#ff3f2f"/><rect x="135" y="146" width="6" height="10" fill="#ff3f2f"/><rect x="141" y="146" width="6" height="10" fill="#ff3f2f"/><rect x="141" y="156" width="6" height="10" fill="#ff3f2f"/><rect x="141" y="166" width="6" height="10" fill="#ff3f2f"/><rect x="111" y="176" width="6" height="10" fill="#ff3f2f"/><rect x="93" y="176" width="6" height="10" fill="#ff3f2f"/><rect x="87" y="156" width="6" height="10" fill="#ff3f2f"/><rect x="147" y="146" width="6" height="10" fill="#000000"/><rect x="153" y="146" width="6" height="10" fill="#000000"/><rect x="201" y="156" width="6" height="10" fill="#000000"/><rect x="201" y="176" width="6" height="10" fill="#000000"/><rect x="189" y="176" width="6" height="10" fill="#000000"/><rect x="177" y="176" width="6" height="10" fill="#000000"/><rect x="147" y="176" width="6" height="10" fill="#000000"/><rect x="147" y="156" width="6" height="10" fill="#000000"/></g><g clip-path="url(#grid-clip-8ed0861e43294df7-3x4)" data-channel="ellipse" data-ellipse-anchor-x="87" data-ellipse-anchor-y="146" data-ellipse-rx="78.065" data-ellipse-ry="37.335" data-ellipse-rotation-deg="108"><ellipse cx="87" cy="146" rx="78.065" ry="37.335" transform="rotate(108 87 146)" fill="#ffffff" stroke="#ffffff" fill-opacity="0.35" stroke-opacity="0.45" stroke-width="2"/></g><g><g data-channel="cell" data-cell-index="0" data-cell-row="0" data-cell-col="0"><rect x="33" y="36" width="48" height="20" fill="#beadde"/><text x="57" y="46" fill="#000000" font-size="12" text-anchor="middle" dominant-baseline="central">deadbe</text></g><g data-channel="cell" data-cell-index="1" data-cell-row="0" data-cell-col="1" data-cell-quartile="4"><rect x="93" y="36" width="48" height="20" fill="#fecaef"/><text x="117" y="46" fill="#000000" font-size="12" text-anchor="middle" dominant-baseline="central">efcafe</text><polygon points="93,56 93,46 103,56" fill="#000000"/></g><g data-channel="cell" data-cell-index="2" data-cell-row="0" data-cell-col="2" data-cell-quartile="3"><rect x="153" y="36" width="48" height="20" fill="#12beba"/><text x="177" y="46" fill="#000000" font-size="12" text-anchor="middle" dominant-baseline="central">babe12</text><polygon points="201,56 201,46 191,56" fill="#000000"/></g><g data-channel="cell" data-cell-index="3" data-cell-row="1" data-cell-col="0"><rect x="33" y="76" width="48" height="20" fill="#785634"/><text x="57" y="86" fill="#ffffff" font-size="12" text-anchor="middle" dominant-baseline="central">345678</text></g><g data-channel="cell" data-cell-index="4" data-cell-row="1" data-cell-col="1"><rect x="93" y="76" width="48" height="20" fill="#cdab90"/><text x="117" y="86" fill="#000000" font-size="12" text-anchor="middle" dominant-baseline="central">90abcd</text></g><g data-channel="cell" data-cell-index="5" data-cell-row="1" data-cell-col="2"><rect x="153" y="76" width="48" height="20" fill="#ed0fef"/><text x="177" y="86" fill="#000000" font-size="12" text-anchor="middle" dominant-baseline="central">ef0fed</text></g><g data-channel="cell" data-cell-index="6" data-cell-row="2" data-cell-col="0"><rect x="33" y="116" width="48" height="20" fill="#87a9cb"/><text x="57" y="126" fill="#000000" font-size="12" text-anchor="middle" dominant-baseline="central">cba987</text></g><g data-channel="cell" data-cell-index="7" data-cell-row="2" data-cell-col="1"><rect x="93" y="116" width="48" height="20" fill="#214365"/><text x="117" y="126" fill="#ffffff" font-size="12" text-anchor="middle" dominant-baseline="central">654321</text></g><g data-channel="cell" data-cell-index="8" data-cell-row="2" data-cell-col="2" data-cell-blank="true" data-cell-blank-map="true"><rect x="153" y="116" width="48" height="20" rx="10" ry="10" fill="#000000" stroke="#000000" stroke-width="1"/><circle cx="177" cy="118.5" r="3.5" fill="#ffffff" data-blank-map-min="0,1"/><path d="M 172.8,128.5 H 181.2 M 177,124.3 V 132.7" fill="none" stroke="#ffffff" stroke-width="1.925" stroke-linecap="butt" data-blank-map-max="2,1"/></g><g data-channel="cell" data-cell-index="9" data-cell-row="3" data-cell-col="0"><rect x="33" y="156" width="48" height="20" fill="#452301"/><text x="57" y="166" fill="#ffffff" font-size="12" text-anchor="middle" dominant-baseline="central">012345</text></g><g data-channel="cell" data-cell-index="10" data-cell-row="3" data-cell-col="1" data-cell-quartile="1"><rect x="93" y="156" width="48" height="20" fill="#ab8967"/><text x="117" y="166" fill="#000000" font-size="12" text-anchor="middle" dominant-baseline="central">6789ab</text><polygon points="93,156 103,156 93,166" fill="#000000"/></g><g data-channel="cell" data-cell-index="11" data-cell-row="3" data-cell-col="2" data-cell-quartile="2"><rect x="153" y="156" width="48" height="20" fill="#efefcd"/><text x="177" y="166" fill="#000000" font-size="12" text-anchor="middle" dominant-baseline="central">cdef</text><polygon points="201,156 191,156 201,166" fill="#000000"/></g></g></g><g data-channel="color-bar" data-bar-slots="15" data-bar-marker-left="4" data-bar-marker-right="0"><g data-color-bar-rank="0" data-color-bar-band="R"><rect x="1" y="1" width="20" height="61.573" fill="#ff3f2f"/><text x="11" y="59.933" fill="#000000" font-size="12" text-anchor="middle" data-color-bar-letter="true">r</text></g><g data-color-bar-rank="1" data-color-bar-band="K"><rect x="1" y="62.573" width="20" height="26.715" fill="#000000"/><text x="11" y="86.648" fill="#ffffff" font-size="12" text-anchor="middle" data-color-bar-letter="true">k</text></g><g data-color-bar-rank="2" data-color-bar-band="W"><rect x="1" y="89.288" width="20" height="61.573" fill="#ffffff"/><text x="11" y="148.221" fill="#000000" font-size="12" text-anchor="middle" data-color-bar-letter="true">w</text></g><g data-color-bar-rank="3" data-color-bar-band="G"><rect x="1" y="150.861" width="20" height="40.139" fill="#e7be00"/><text x="11" y="188.36" fill="#000000" font-size="12" text-anchor="middle" data-color-bar-letter="true">g</text></g><circle cx="5.6" cy="58" r="3.4" fill="#ffffff" stroke="#000000" stroke-width="0.75" data-bar-marker="left"/><circle cx="16.4" cy="7.333" r="3.4" fill="#ffffff" stroke="#000000" stroke-width="0.75" data-bar-marker="right"/></g><g data-channel="label-top"><text x="27" y="16" fill="#666666" font-size="12" dominant-baseline="central">hex(64):</text></g><line x1="0" y1="0.5" x2="213" y2="0.5" stroke="#808080" stroke-width="1" shape-rendering="crispEdges"/><line x1="212.5" y1="0" x2="212.5" y2="192" stroke="#808080" stroke-width="1" shape-rendering="crispEdges"/><line x1="0" y1="191.5" x2="213" y2="191.5" stroke="#808080" stroke-width="1" shape-rendering="crispEdges"/><line x1="0.5" y1="0" x2="0.5" y2="192" stroke="#808080" stroke-width="1" shape-rendering="crispEdges"/><line x1="21.5" y1="0" x2="21.5" y2="192" stroke="#808080" stroke-width="1" shape-rendering="crispEdges"/></svg>