<svg width="213" height="192" viewBox="0 0 213 192" xmlns="http://www.w3.org/2000/svg" font-family="&quot;JetBrains Mono&quot;, &quot;Menlo&quot;, &quot;Consolas&quot;, &quot;DejaVu Sans Mono&quot;, &quot;Liberation Mono&quot;, &quot;Roboto Mono&quot;, &quot;Noto Sans Mono&quot;, monospace" data-entviz-version="v11" data-entviz-lib="0.10.0" data-input-bytes="64" data-cols="3" data-rows="4"><defs><clipPath id="grid-clip-ad2981aa58beca63-3x4"><rect x="27" y="26" width="180" height="160"/></clipPath></defs><rect x="0" y="0" width="213" height="192" fill="#ffffff"/><g data-channel="grid"><rect x="27" y="26" width="180" height="160" fill="#2f3fbf"/><g><path fill="#e7be00" d="M27 26h6v10h-6zM69 26h6v10h-6zM75 26h6v10h-6zM81 46h6v10h-6zM75 56h6v10h-6zM57 56h6v10h-6zM45 56h6v10h-6zM39 56h6v10h-6zM27 56h6v10h-6zM27 36h6v10h-6z"/><path fill="#ff3f2f" d="M93 26h6v10h-6zM99 26h6v10h-6zM105 26h6v10h-6zM111 26h6v10h-6zM117 26h6v10h-6zM129 26h6v10h-6zM141 46h6v10h-6zM141 56h6v10h-6zM129 56h6v10h-6zM111 56h6v10h-6zM99 56h6v10h-6zM87 56h6v10h-6zM87 36h6v10h-6z"/><path fill="#ffffff" d="M159 26h6v10h-6zM177 26h6v10h-6zM189 26h6v10h-6zM195 26h6v10h-6zM201 26h6v10h-6zM195 56h6v10h-6zM189 56h6v10h-6zM171 56h6v10h-6zM159 56h6v10h-6zM147 46h6v10h-6zM147 36h6v10h-6z"/><path fill="#000000" d="M27 66h6v10h-6zM51 66h6v10h-6zM57 66h6v10h-6zM81 86h6v10h-6zM63 96h6v10h-6zM57 96h6v10h-6zM51 96h6v10h-6zM39 96h6v10h-6zM33 96h6v10h-6zM27 76h6v10h-6z"/><path fill="#e7be00" d="M87 66h6v10h-6zM105 66h6v10h-6zM129 66h6v10h-6zM135 66h6v10h-6zM141 66h6v10h-6zM141 86h6v10h-6zM129 96h6v10h-6zM117 96h6v10h-6zM111 96h6v10h-6zM105 96h6v10h-6zM87 96h6v10h-6z"/><path fill="#000000" d="M153 66h6v10h-6zM159 66h6v10h-6zM177 66h6v10h-6zM183 66h6v10h-6zM195 66h6v10h-6zM201 66h6v10h-6zM201 76h6v10h-6zM201 96h6v10h-6zM159 96h6v10h-6zM153 96h6v10h-6zM147 86h6v10h-6zM147 76h6v10h-6z"/><path fill="#ff3f2f" d="M27 106h6v10h-6zM45 106h6v10h-6zM51 106h6v10h-6zM57 106h6v10h-6zM63 106h6v10h-6zM75 106h6v10h-6zM81 116h6v10h-6zM81 126h6v10h-6zM81 136h6v10h-6zM75 136h6v10h-6zM51 136h6v10h-6zM27 136h6v10h-6zM27 116h6v10h-6z"/><path fill="#ffffff" d="M147 106h6v10h-6zM153 106h6v10h-6zM159 106h6v10h-6zM165 106h6v10h-6zM183 106h6v10h-6zM195 106h6v10h-6zM201 106h6v10h-6zM201 116h6v10h-6zM189 136h6v10h-6zM171 136h6v10h-6zM153 136h6v10h-6zM147 136h6v10h-6z"/><path fill="#000000" d="M39 146h6v10h-6zM45 146h6v10h-6zM51 146h6v10h-6zM63 146h6v10h-6zM75 146h6v10h-6zM81 156h6v10h-6zM75 176h6v10h-6zM69 176h6v10h-6zM63 176h6v10h-6zM57 176h6v10h-6zM51 176h6v10h-6z"/><path fill="#ff3f2f" d="M93 146h6v10h-6zM99 146h6v10h-6zM105 146h6v10h-6zM111 146h6v10h-6zM117 146h6v10h-6zM129 146h6v10h-6zM141 156h6v10h-6zM141 166h6v10h-6zM93 176h6v10h-6zM87 176h6v10h-6zM87 166h6v10h-6zM87 156h6v10h-6z"/><path fill="#ffffff" d="M153 146h6v10h-6zM159 146h6v10h-6zM165 146h6v10h-6zM183 146h6v10h-6zM177 176h6v10h-6zM171 176h6v10h-6zM165 176h6v10h-6zM147 176h6v10h-6z"/></g><g clip-path="url(#grid-clip-ad2981aa58beca63-3x4)" data-channel="ellipse" data-ellipse-anchor-x="87" data-ellipse-anchor-y="66" data-ellipse-rx="37.335" data-ellipse-ry="57.7" data-ellipse-rotation-deg="12"><ellipse cx="87" cy="66" rx="37.335" ry="57.7" transform="rotate(12 87 66)" fill="#ffffff" stroke="#ffffff" fill-opacity="0.35" stroke-opacity="0.45" stroke-width="2"/></g><g><g data-channel="cell" data-cell-index="0" data-cell-row="0" data-cell-col="0" data-surround-bits="0xad2981" data-edge-color="#e7be00" data-cell-quartile="2"><rect x="33" y="36" width="48" height="20" fill="#452301"/><text x="57" y="46" fill="#ffffff" font-size="12" text-anchor="middle" dominant-baseline="central">012345</text><polygon points="81,36 71,36 81,46" fill="#ffffff"/></g><g data-channel="cell" data-cell-index="1" data-cell-row="0" data-cell-col="1" data-surround-bits="0xaa58be" data-edge-color="#ff3f2f" data-cell-quartile="1"><rect x="93" y="36" width="48" height="20" fill="#ab8967"/><text x="117" y="46" fill="#000000" font-size="12" text-anchor="middle" dominant-baseline="central">6789ab</text><polygon points="93,36 103,36 93,46" fill="#000000"/></g><g data-channel="cell" data-cell-index="2" data-cell-row="0" data-cell-col="2" data-surround-bits="0xca63a4" data-edge-color="#ffffff"><rect x="153" y="36" width="48" height="20" fill="#01efcd"/><text x="177" y="46" fill="#000000" font-size="12" text-anchor="middle" dominant-baseline="central">cdef01</text></g><g data-channel="cell" data-cell-index="3" data-cell-row="1" data-cell-col="0" data-surround-bits="0x9b8831" data-edge-color="#000000"><rect x="33" y="76" width="48" height="20" fill="#674523"/><text x="57" y="86" fill="#ffffff" font-size="12" text-anchor="middle" dominant-baseline="central">234567</text></g><g data-channel="cell" data-cell-index="4" data-cell-row="1" data-cell-col="1" data-surround-bits="0x274b89" data-edge-color="#e7be00"><rect x="93" y="76" width="48" height="20" fill="#cdab89"/><text x="117" y="86" fill="#000000" font-size="12" text-anchor="middle" dominant-baseline="central">89abcd</text></g><g data-channel="cell" data-cell-index="5" data-cell-row="1" data-cell-col="2" data-surround-bits="0xd81766" data-edge-color="#000000" data-cell-quartile="4"><rect x="153" y="76" width="48" height="20" fill="#2301ef"/><text x="177" y="86" fill="#ffffff" font-size="12" text-anchor="middle" dominant-baseline="central">ef0123</text><polygon points="153,96 153,86 163,96" fill="#ffffff"/></g><g data-channel="cell" data-cell-index="6" data-cell-row="2" data-cell-col="0" data-surround-bits="0xa23d79" data-edge-color="#ff3f2f"><rect x="33" y="116" width="48" height="20" fill="#896745"/><text x="57" y="126" fill="#ffffff" font-size="12" text-anchor="middle" dominant-baseline="central">456789</text></g><g data-channel="cell" data-cell-index="7" data-cell-row="2" data-cell-col="1" data-cell-blank="true" data-cell-blank-map="true"><rect x="93" y="116" width="48" height="20" rx="10" ry="10" fill="#ff3f2f" stroke="#000000" stroke-width="1"/><circle cx="101" cy="133.5" r="3.5" fill="#000000" data-blank-map-min="3,0"/><path d="M 112.8,133.5 H 121.2 M 117,129.3 V 137.7" fill="none" stroke="#000000" stroke-width="1.925" stroke-linecap="butt" data-blank-map-max="3,1"/></g><g data-channel="cell" data-cell-index="8" data-cell-row="2" data-cell-col="2" data-surround-bits="0x32474f" data-edge-color="#ffffff" data-cell-quartile="3"><rect x="153" y="116" width="48" height="20" fill="#efcdab"/><text x="177" y="126" fill="#000000" font-size="12" text-anchor="middle" dominant-baseline="central">abcdef</text><polygon points="201,136 201,126 191,136" fill="#000000"/></g><g data-channel="cell" data-cell-index="9" data-cell-row="3" data-cell-col="0" data-surround-bits="0x3e55c" data-edge-color="#000000"><rect x="33" y="156" width="48" height="20" fill="#452301"/><text x="57" y="166" fill="#ffffff" font-size="12" text-anchor="middle" dominant-baseline="central">012345</text></g><g data-channel="cell" data-cell-index="10" data-cell-row="3" data-cell-col="1" data-surround-bits="0xf00cbe" data-edge-color="#ff3f2f"><rect x="93" y="156" width="48" height="20" fill="#ab8967"/><text x="117" y="166" fill="#000000" font-size="12" text-anchor="middle" dominant-baseline="central">6789ab</text></g><g data-channel="cell" data-cell-index="11" data-cell-row="3" data-cell-col="2" data-surround-bits="0x27004e" data-edge-color="#ffffff"><rect x="153" y="156" width="48" height="20" fill="#efefcd"/><text x="177" y="166" fill="#000000" font-size="12" text-anchor="middle" dominant-baseline="central">cdef</text></g></g></g><g data-channel="color-bar" data-bar-slots="15" data-bar-marker-left="2" data-bar-marker-right="5"><g data-color-bar-rank="0" data-color-bar-band="G"><rect x="1" y="1" width="20" height="35.986" fill="#e7be00"/><text x="11" y="34.346" fill="#000000" font-size="12" text-anchor="middle" data-color-bar-letter="true">g</text></g><g data-color-bar-rank="1" data-color-bar-band="K"><rect x="1" y="36.986" width="20" height="20.508" fill="#000000"/><text x="11" y="54.853" fill="#ffffff" font-size="12" text-anchor="middle" data-color-bar-letter="true">k</text></g><g data-color-bar-rank="2" data-color-bar-band="R"><rect x="1" y="57.493" width="20" height="77.936" fill="#ff3f2f"/><text x="11" y="132.789" fill="#000000" font-size="12" text-anchor="middle" data-color-bar-letter="true">r</text></g><g data-color-bar-rank="3" data-color-bar-band="W"><rect x="1" y="135.429" width="20" height="55.571" fill="#ffffff"/><text x="11" y="188.36" fill="#000000" font-size="12" text-anchor="middle" data-color-bar-letter="true">w</text></g><circle cx="5.6" cy="32.667" r="3.4" fill="#ffffff" stroke="#000000" stroke-width="0.75" data-bar-marker="left"/><circle cx="16.4" cy="70.667" r="3.4" fill="#ffffff" stroke="#000000" stroke-width="0.75" data-bar-marker="right"/></g><g data-channel="label-top"><text x="27" y="16" fill="#666666" font-size="12" dominant-baseline="central">hex(64):</text></g><line x1="0" y1="0.5" x2="213" y2="0.5" stroke="#808080" stroke-width="1" shape-rendering="crispEdges"/><line x1="212.5" y1="0" x2="212.5" y2="192" stroke="#808080" stroke-width="1" shape-rendering="crispEdges"/><line x1="0" y1="191.5" x2="213" y2="191.5" stroke="#808080" stroke-width="1" shape-rendering="crispEdges"/><line x1="0.5" y1="0" x2="0.5" y2="192" stroke="#808080" stroke-width="1" shape-rendering="crispEdges"/><line x1="21.5" y1="0" x2="21.5" y2="192" stroke="#808080" stroke-width="1" shape-rendering="crispEdges"/></svg>