<svg width="273" height="192" viewBox="0 0 273 192" xmlns="http://www.w3.org/2000/svg" font-family="&quot;JetBrains Mono&quot;, &quot;Menlo&quot;, &quot;Consolas&quot;, &quot;DejaVu Sans Mono&quot;, &quot;Liberation Mono&quot;, &quot;Roboto Mono&quot;, &quot;Noto Sans Mono&quot;, monospace" data-entviz-version="v10" data-entviz-lib="0.10.0" data-input-bytes="59" data-cols="4" data-rows="4"><defs><clipPath id="grid-clip-683953058c1b52c4-4x4"><rect x="27" y="26" width="240" height="160"/></clipPath></defs><rect x="0" y="0" width="273" height="192" fill="#ffffff"/><g data-channel="grid"><rect x="27" y="26" width="240" height="160" fill="#ffffff"/><g><rect x="27" y="26" width="6" height="10" fill="#000000"/><rect x="33" y="26" width="6" height="10" fill="#000000"/><rect x="51" y="26" width="6" height="10" fill="#000000"/><rect x="63" y="26" width="6" height="10" fill="#000000"/><rect x="75" y="26" width="6" height="10" fill="#000000"/><rect x="81" y="46" width="6" height="10" fill="#000000"/><rect x="81" y="56" width="6" height="10" fill="#000000"/><rect x="75" y="56" width="6" height="10" fill="#000000"/><rect x="39" y="56" width="6" height="10" fill="#000000"/><rect x="27" y="56" width="6" height="10" fill="#000000"/><rect x="27" y="46" width="6" height="10" fill="#000000"/><rect x="87" y="26" width="6" height="10" fill="#000000"/><rect x="93" y="26" width="6" height="10" fill="#000000"/><rect x="105" y="26" width="6" height="10" fill="#000000"/><rect x="111" y="26" width="6" height="10" fill="#000000"/><rect x="141" y="36" width="6" height="10" fill="#000000"/><rect x="141" y="46" width="6" height="10" fill="#000000"/><rect x="123" y="56" width="6" height="10" fill="#000000"/><rect x="117" y="56" width="6" height="10" fill="#000000"/><rect x="105" y="56" width="6" height="10" fill="#000000"/><rect x="159" y="26" width="6" height="10" fill="#2f3fbf"/><rect x="177" y="26" width="6" height="10" fill="#2f3fbf"/><rect x="189" y="26" width="6" height="10" fill="#2f3fbf"/><rect x="201" y="36" width="6" height="10" fill="#2f3fbf"/><rect x="189" y="56" width="6" height="10" fill="#2f3fbf"/><rect x="183" y="56" width="6" height="10" fill="#2f3fbf"/><rect x="171" y="56" width="6" height="10" fill="#2f3fbf"/><rect x="153" y="56" width="6" height="10" fill="#2f3fbf"/><rect x="147" y="46" width="6" height="10" fill="#2f3fbf"/><rect x="219" y="26" width="6" height="10" fill="#e7be00"/><rect x="249" y="26" width="6" height="10" fill="#e7be00"/><rect x="255" y="26" width="6" height="10" fill="#e7be00"/><rect x="261" y="26" width="6" height="10" fill="#e7be00"/><rect x="261" y="46" width="6" height="10" fill="#e7be00"/><rect x="261" y="56" width="6" height="10" fill="#e7be00"/><rect x="255" y="56" width="6" height="10" fill="#e7be00"/><rect x="249" y="56" width="6" height="10" fill="#e7be00"/><rect x="237" y="56" width="6" height="10" fill="#e7be00"/><rect x="225" y="56" width="6" height="10" fill="#e7be00"/><rect x="213" y="56" width="6" height="10" fill="#e7be00"/><rect x="207" y="36" width="6" height="10" fill="#e7be00"/><rect x="27" y="66" width="6" height="10" fill="#2f3fbf"/><rect x="33" y="66" width="6" height="10" fill="#2f3fbf"/><rect x="39" y="66" width="6" height="10" fill="#2f3fbf"/><rect x="51" y="66" width="6" height="10" fill="#2f3fbf"/><rect x="63" y="66" width="6" height="10" fill="#2f3fbf"/><rect x="81" y="66" width="6" height="10" fill="#2f3fbf"/><rect x="81" y="76" width="6" height="10" fill="#2f3fbf"/><rect x="81" y="86" width="6" height="10" fill="#2f3fbf"/><rect x="81" y="96" width="6" height="10" fill="#2f3fbf"/><rect x="63" y="96" width="6" height="10" fill="#2f3fbf"/><rect x="57" y="96" width="6" height="10" fill="#2f3fbf"/><rect x="39" y="96" width="6" height="10" fill="#2f3fbf"/><rect x="93" y="66" width="6" height="10" fill="#e7be00"/><rect x="111" y="66" width="6" height="10" fill="#e7be00"/><rect x="135" y="66" width="6" height="10" fill="#e7be00"/><rect x="141" y="76" width="6" height="10" fill="#e7be00"/><rect x="141" y="86" width="6" height="10" fill="#e7be00"/><rect x="141" y="96" width="6" height="10" fill="#e7be00"/><rect x="129" y="96" width="6" height="10" fill="#e7be00"/><rect x="123" y="96" width="6" height="10" fill="#e7be00"/><rect x="105" y="96" width="6" height="10" fill="#e7be00"/><rect x="93" y="96" width="6" height="10" fill="#e7be00"/><rect x="87" y="96" width="6" height="10" fill="#e7be00"/><rect x="87" y="86" width="6" height="10" fill="#e7be00"/><rect x="153" y="66" width="6" height="10" fill="#2f3fbf"/><rect x="159" y="66" width="6" height="10" fill="#2f3fbf"/><rect x="165" y="66" width="6" height="10" fill="#2f3fbf"/><rect x="183" y="66" width="6" height="10" fill="#2f3fbf"/><rect x="201" y="96" width="6" height="10" fill="#2f3fbf"/><rect x="195" y="96" width="6" height="10" fill="#2f3fbf"/><rect x="189" y="96" width="6" height="10" fill="#2f3fbf"/><rect x="183" y="96" width="6" height="10" fill="#2f3fbf"/><rect x="165" y="96" width="6" height="10" fill="#2f3fbf"/><rect x="153" y="96" width="6" height="10" fill="#2f3fbf"/><rect x="147" y="96" width="6" height="10" fill="#2f3fbf"/><rect x="147" y="86" width="6" height="10" fill="#2f3fbf"/><rect x="147" y="76" width="6" height="10" fill="#2f3fbf"/><rect x="207" y="66" width="6" height="10" fill="#e7be00"/><rect x="213" y="66" width="6" height="10" fill="#e7be00"/><rect x="219" y="66" width="6" height="10" fill="#e7be00"/><rect x="237" y="66" width="6" height="10" fill="#e7be00"/><rect x="243" y="66" width="6" height="10" fill="#e7be00"/><rect x="249" y="66" width="6" height="10" fill="#e7be00"/><rect x="255" y="66" width="6" height="10" fill="#e7be00"/><rect x="261" y="66" width="6" height="10" fill="#e7be00"/><rect x="261" y="96" width="6" height="10" fill="#e7be00"/><rect x="249" y="96" width="6" height="10" fill="#e7be00"/><rect x="213" y="96" width="6" height="10" fill="#e7be00"/><rect x="207" y="86" width="6" height="10" fill="#e7be00"/><rect x="33" y="106" width="6" height="10" fill="#e7be00"/><rect x="57" y="106" width="6" height="10" fill="#e7be00"/><rect x="75" y="106" width="6" height="10" fill="#e7be00"/><rect x="75" y="136" width="6" height="10" fill="#e7be00"/><rect x="57" y="136" width="6" height="10" fill="#e7be00"/><rect x="45" y="136" width="6" height="10" fill="#e7be00"/><rect x="33" y="136" width="6" height="10" fill="#e7be00"/><rect x="27" y="136" width="6" height="10" fill="#e7be00"/><rect x="27" y="126" width="6" height="10" fill="#e7be00"/><rect x="159" y="106" width="6" height="10" fill="#2f3fbf"/><rect x="177" y="106" width="6" height="10" fill="#2f3fbf"/><rect x="201" y="116" width="6" height="10" fill="#2f3fbf"/><rect x="201" y="126" width="6" height="10" fill="#2f3fbf"/><rect x="201" y="136" width="6" height="10" fill="#2f3fbf"/><rect x="195" y="136" width="6" height="10" fill="#2f3fbf"/><rect x="183" y="136" width="6" height="10" fill="#2f3fbf"/><rect x="177" y="136" width="6" height="10" fill="#2f3fbf"/><rect x="171" y="136" width="6" height="10" fill="#2f3fbf"/><rect x="159" y="136" width="6" height="10" fill="#2f3fbf"/><rect x="147" y="136" width="6" height="10" fill="#2f3fbf"/><rect x="147" y="126" width="6" height="10" fill="#2f3fbf"/><rect x="207" y="106" width="6" height="10" fill="#ff3f2f"/><rect x="213" y="106" width="6" height="10" fill="#ff3f2f"/><rect x="219" y="106" width="6" height="10" fill="#ff3f2f"/><rect x="225" y="106" width="6" height="10" fill="#ff3f2f"/><rect x="255" y="106" width="6" height="10" fill="#ff3f2f"/><rect x="261" y="106" width="6" height="10" fill="#ff3f2f"/><rect x="261" y="126" width="6" height="10" fill="#ff3f2f"/><rect x="255" y="136" width="6" height="10" fill="#ff3f2f"/><rect x="243" y="136" width="6" height="10" fill="#ff3f2f"/><rect x="237" y="136" width="6" height="10" fill="#ff3f2f"/><rect x="225" y="136" width="6" height="10" fill="#ff3f2f"/><rect x="213" y="136" width="6" height="10" fill="#ff3f2f"/><rect x="207" y="136" width="6" height="10" fill="#ff3f2f"/><rect x="207" y="126" width="6" height="10" fill="#ff3f2f"/><rect x="45" y="146" width="6" height="10" fill="#2f3fbf"/><rect x="51" y="146" width="6" height="10" fill="#2f3fbf"/><rect x="75" y="146" width="6" height="10" fill="#2f3fbf"/><rect x="81" y="176" width="6" height="10" fill="#2f3fbf"/><rect x="69" y="176" width="6" height="10" fill="#2f3fbf"/><rect x="51" y="176" width="6" height="10" fill="#2f3fbf"/><rect x="45" y="176" width="6" height="10" fill="#2f3fbf"/><rect x="33" y="176" width="6" height="10" fill="#2f3fbf"/><rect x="27" y="176" width="6" height="10" fill="#2f3fbf"/><rect x="27" y="156" width="6" height="10" fill="#2f3fbf"/><rect x="87" y="146" width="6" height="10" fill="#ff3f2f"/><rect x="99" y="146" width="6" height="10" fill="#ff3f2f"/><rect x="105" y="146" width="6" height="10" fill="#ff3f2f"/><rect x="111" y="146" width="6" height="10" fill="#ff3f2f"/><rect x="129" y="146" width="6" height="10" fill="#ff3f2f"/><rect x="123" y="176" width="6" height="10" fill="#ff3f2f"/><rect x="105" y="176" width="6" height="10" fill="#ff3f2f"/><rect x="93" y="176" width="6" height="10" fill="#ff3f2f"/><rect x="87" y="176" width="6" height="10" fill="#ff3f2f"/><rect x="147" y="146" width="6" height="10" fill="#2f3fbf"/><rect x="153" y="146" width="6" height="10" fill="#2f3fbf"/><rect x="165" y="146" width="6" height="10" fill="#2f3fbf"/><rect x="177" y="146" width="6" height="10" fill="#2f3fbf"/><rect x="195" y="146" width="6" height="10" fill="#2f3fbf"/><rect x="201" y="146" width="6" height="10" fill="#2f3fbf"/><rect x="201" y="166" width="6" height="10" fill="#2f3fbf"/><rect x="195" y="176" width="6" height="10" fill="#2f3fbf"/><rect x="189" y="176" width="6" height="10" fill="#2f3fbf"/><rect x="183" y="176" width="6" height="10" fill="#2f3fbf"/><rect x="177" y="176" width="6" height="10" fill="#2f3fbf"/><rect x="171" y="176" width="6" height="10" fill="#2f3fbf"/><rect x="159" y="176" width="6" height="10" fill="#2f3fbf"/><rect x="153" y="176" width="6" height="10" fill="#2f3fbf"/><rect x="147" y="166" width="6" height="10" fill="#2f3fbf"/><rect x="225" y="146" width="6" height="10" fill="#000000"/><rect x="237" y="146" width="6" height="10" fill="#000000"/><rect x="261" y="146" width="6" height="10" fill="#000000"/><rect x="261" y="166" width="6" height="10" fill="#000000"/><rect x="243" y="176" width="6" height="10" fill="#000000"/><rect x="231" y="176" width="6" height="10" fill="#000000"/><rect x="225" y="176" width="6" height="10" fill="#000000"/><rect x="213" y="176" width="6" height="10" fill="#000000"/><rect x="207" y="156" width="6" height="10" fill="#000000"/></g><g clip-path="url(#grid-clip-683953058c1b52c4-4x4)" data-channel="ellipse" data-ellipse-anchor-x="147" data-ellipse-anchor-y="146" data-ellipse-rx="49.554" data-ellipse-ry="49.554" data-ellipse-rotation-deg="108"><ellipse cx="147" cy="146" rx="49.554" ry="49.554" transform="rotate(108 147 146)" fill="#000000" stroke="#000000" fill-opacity="0.2" stroke-opacity="0.3" stroke-width="2"/></g><g><g data-channel="cell" data-cell-index="0" data-cell-row="0" data-cell-col="0" data-cell-quartile="2"><rect x="33" y="36" width="48" height="20" fill="#117001"/><text x="57" y="46" fill="#ffffff" font-size="16" text-anchor="middle" dominant-baseline="central">AFYB</text><polygon points="81,36 71,36 81,46" fill="#ffffff"/></g><g data-channel="cell" data-cell-index="1" data-cell-row="0" data-cell-col="1"><rect x="93" y="36" width="48" height="20" fill="#330c22"/><text x="117" y="46" fill="#ffffff" font-size="16" text-anchor="middle" dominant-baseline="central">EIGD</text></g><g data-channel="cell" data-cell-index="2" data-cell-row="0" data-cell-col="2"><rect x="153" y="36" width="48" height="20" fill="#3373c4"/><text x="177" y="46" fill="#ffffff" font-size="16" text-anchor="middle" dominant-baseline="central">YRZT</text></g><g data-channel="cell" data-cell-index="3" data-cell-row="0" data-cell-col="3" data-cell-quartile="1"><rect x="213" y="36" width="48" height="20" fill="#ff8aec"/><text x="237" y="46" fill="#000000" font-size="16" text-anchor="middle" dominant-baseline="central">5SFP</text><polygon points="213,36 223,36 213,46" fill="#000000"/></g><g data-channel="cell" data-cell-index="4" data-cell-row="1" data-cell-col="0"><rect x="33" y="76" width="48" height="20" fill="#cc06fd"/><text x="57" y="86" fill="#000000" font-size="16" text-anchor="middle" dominant-baseline="central">7UDM</text></g><g data-channel="cell" data-cell-index="5" data-cell-row="1" data-cell-col="1"><rect x="93" y="76" width="48" height="20" fill="#ffe9f9"/><text x="117" y="86" fill="#000000" font-size="16" text-anchor="middle" dominant-baseline="central">7HU7</text></g><g data-channel="cell" data-cell-index="6" data-cell-row="1" data-cell-col="2"><rect x="153" y="76" width="48" height="20" fill="#ff0ff5"/><text x="177" y="86" fill="#000000" font-size="16" text-anchor="middle" dominant-baseline="central">6UH7</text></g><g data-channel="cell" data-cell-index="7" data-cell-row="1" data-cell-col="3" data-cell-quartile="4"><rect x="213" y="76" width="48" height="20" fill="#ddbcc6"/><text x="237" y="86" fill="#000000" font-size="16" text-anchor="middle" dominant-baseline="central">Y26N</text><polygon points="213,96 213,86 223,96" fill="#000000"/></g><g data-channel="cell" data-cell-index="8" data-cell-row="2" data-cell-col="0"><rect x="33" y="116" width="48" height="20" fill="#55c82e"/><text x="57" y="126" fill="#000000" font-size="16" text-anchor="middle" dominant-baseline="central">F3EF</text></g><g data-channel="cell" data-cell-index="9" data-cell-row="2" data-cell-col="1" data-cell-blank="true" data-cell-blank-map="true"><rect x="93" y="116" width="48" height="20" rx="10" ry="10" fill="#000000" stroke="#000000" stroke-width="1"/><circle cx="111" cy="118.5" r="3.5" fill="#ffffff" data-blank-map-min="0,1"/><path d="M 118.8,123.5 H 127.2 M 123,119.3 V 127.7" fill="none" stroke="#ffffff" stroke-width="1.925" stroke-linecap="butt" data-blank-map-max="1,2"/></g><g data-channel="cell" data-cell-index="10" data-cell-row="2" data-cell-col="2"><rect x="153" y="116" width="48" height="20" fill="#0017a6"/><text x="177" y="126" fill="#ffffff" font-size="16" text-anchor="middle" dominant-baseline="central">UYLQ</text></g><g data-channel="cell" data-cell-index="11" data-cell-row="2" data-cell-col="3"><rect x="213" y="116" width="48" height="20" fill="#bb4b00"/><text x="237" y="126" fill="#ffffff" font-size="16" text-anchor="middle" dominant-baseline="central">ABF3</text></g><g data-channel="cell" data-cell-index="12" data-cell-row="3" data-cell-col="0"><rect x="33" y="156" width="48" height="20" fill="#669670"/><text x="57" y="166" fill="#000000" font-size="16" text-anchor="middle" dominant-baseline="central">OCLG</text></g><g data-channel="cell" data-cell-index="13" data-cell-row="3" data-cell-col="1" data-cell-quartile="3"><rect x="93" y="156" width="48" height="20" fill="#dd319c"/><text x="117" y="166" fill="#000000" font-size="16" text-anchor="middle" dominant-baseline="central">TQY5</text><polygon points="141,176 141,166 131,176" fill="#000000"/></g><g data-channel="cell" data-cell-index="14" data-cell-row="3" data-cell-col="2"><rect x="153" y="156" width="48" height="20" fill="#9943e9"/><text x="177" y="166" fill="#ffffff" font-size="16" text-anchor="middle" dominant-baseline="central">5FBZ</text></g><g data-channel="cell" data-cell-index="15" data-cell-row="3" data-cell-col="3"><rect x="213" y="156" width="48" height="20" fill="#88061a"/><text x="237" y="166" fill="#ffffff" font-size="16" text-anchor="middle" dominant-baseline="central">DI</text></g></g></g><g data-channel="color-bar" data-bar-slots="15" data-bar-marker-left="10" data-bar-marker-right="14"><g data-color-bar-rank="0" data-color-bar-band="G"><rect x="1" y="1" width="20" height="63.126" fill="#e7be00"/><text x="11" y="60.606" fill="#000000" font-size="16" text-anchor="middle" data-color-bar-letter="true">g</text></g><g data-color-bar-rank="1" data-color-bar-band="B"><rect x="1" y="64.126" width="20" height="28.464" fill="#2f3fbf"/><text x="11" y="89.07" fill="#ffffff" font-size="16" text-anchor="middle" data-color-bar-letter="true">b</text></g><g data-color-bar-rank="2" data-color-bar-band="R"><rect x="1" y="92.59" width="20" height="86.948" fill="#ff3f2f"/><text x="11" y="176.018" fill="#000000" font-size="16" text-anchor="middle" data-color-bar-letter="true">r</text></g><g data-color-bar-rank="3" data-color-bar-band="K"><rect x="1" y="179.538" width="20" height="11.462" fill="#000000"/><text x="11" y="187.48" fill="#ffffff" font-size="16" text-anchor="middle" data-color-bar-letter="true">k</text></g><circle cx="5.6" cy="134" r="3.4" fill="#ffffff" stroke="#000000" stroke-width="0.75" data-bar-marker="left"/><circle cx="16.4" cy="184.667" r="3.4" fill="#ffffff" stroke="#000000" stroke-width="0.75" data-bar-marker="right"/></g><g data-channel="label-top"><text x="27" y="16" fill="#666666" font-size="12" dominant-baseline="central">CIDv1 dag-pb: b...</text></g><line x1="0" y1="0.5" x2="273" y2="0.5" stroke="#808080" stroke-width="1" shape-rendering="crispEdges"/><line x1="272.5" y1="0" x2="272.5" y2="192" stroke="#808080" stroke-width="1" shape-rendering="crispEdges"/><line x1="0" y1="191.5" x2="273" y2="191.5" stroke="#808080" stroke-width="1" shape-rendering="crispEdges"/><line x1="0.5" y1="0" x2="0.5" y2="192" stroke="#808080" stroke-width="1" shape-rendering="crispEdges"/><line x1="21.5" y1="0" x2="21.5" y2="192" stroke="#808080" stroke-width="1" shape-rendering="crispEdges"/></svg>