<svg width="213" height="152" viewBox="0 0 213 152" xmlns="http://www.w3.org/2000/svg" data-entviz-version="v10" data-entviz-lib="0.10.0" data-input-bytes="50" data-cols="3" data-rows="3"><defs><clipPath id="grid-clip-b2d45e3d12f64e72-3x3"><rect x="27" y="26" width="180" height="120"/></clipPath></defs><rect x="0" y="0" width="213" height="152" fill="#ffffff"/><g data-channel="grid"><rect x="27" y="26" width="180" height="120" fill="#ffffff"/><g><rect x="93" y="26" width="6" height="10" fill="#e7be00"/><rect x="99" y="26" width="6" height="10" fill="#e7be00"/><rect x="105" y="26" width="6" height="10" fill="#e7be00"/><rect x="111" y="26" width="6" height="10" fill="#e7be00"/><rect x="123" y="26" width="6" height="10" fill="#e7be00"/><rect x="141" y="36" width="6" height="10" fill="#e7be00"/><rect x="141" y="56" width="6" height="10" fill="#e7be00"/><rect x="129" y="56" width="6" height="10" fill="#e7be00"/><rect x="123" y="56" width="6" height="10" fill="#e7be00"/><rect x="111" y="56" width="6" height="10" fill="#e7be00"/><rect x="93" y="56" width="6" height="10" fill="#e7be00"/><rect x="87" y="56" width="6" height="10" fill="#e7be00"/><rect x="87" y="36" width="6" height="10" fill="#e7be00"/><rect x="153" y="26" width="6" height="10" fill="#2f3fbf"/><rect x="159" y="26" width="6" height="10" fill="#2f3fbf"/><rect x="171" y="26" width="6" height="10" fill="#2f3fbf"/><rect x="177" y="26" width="6" height="10" fill="#2f3fbf"/><rect x="183" y="26" width="6" height="10" fill="#2f3fbf"/><rect x="189" y="26" width="6" height="10" fill="#2f3fbf"/><rect x="201" y="26" width="6" height="10" fill="#2f3fbf"/><rect x="201" y="56" width="6" height="10" fill="#2f3fbf"/><rect x="177" y="56" width="6" height="10" fill="#2f3fbf"/><rect x="165" y="56" width="6" height="10" fill="#2f3fbf"/><rect x="159" y="56" width="6" height="10" fill="#2f3fbf"/><rect x="153" y="56" width="6" height="10" fill="#2f3fbf"/><rect x="147" y="56" width="6" height="10" fill="#2f3fbf"/><rect x="105" y="66" width="6" height="10" fill="#2f3fbf"/><rect x="111" y="66" width="6" height="10" fill="#2f3fbf"/><rect x="123" y="66" width="6" height="10" fill="#2f3fbf"/><rect x="129" y="66" width="6" height="10" fill="#2f3fbf"/><rect x="141" y="66" width="6" height="10" fill="#2f3fbf"/><rect x="141" y="96" width="6" height="10" fill="#2f3fbf"/><rect x="135" y="96" width="6" height="10" fill="#2f3fbf"/><rect x="129" y="96" width="6" height="10" fill="#2f3fbf"/><rect x="111" y="96" width="6" height="10" fill="#2f3fbf"/><rect x="105" y="96" width="6" height="10" fill="#2f3fbf"/><rect x="99" y="96" width="6" height="10" fill="#2f3fbf"/><rect x="87" y="86" width="6" height="10" fill="#2f3fbf"/><rect x="147" y="66" width="6" height="10" fill="#e7be00"/><rect x="153" y="66" width="6" height="10" fill="#e7be00"/><rect x="159" y="66" width="6" height="10" fill="#e7be00"/><rect x="171" y="66" width="6" height="10" fill="#e7be00"/><rect x="177" y="66" width="6" height="10" fill="#e7be00"/><rect x="201" y="76" width="6" height="10" fill="#e7be00"/><rect x="201" y="86" width="6" height="10" fill="#e7be00"/><rect x="201" y="96" width="6" height="10" fill="#e7be00"/><rect x="153" y="96" width="6" height="10" fill="#e7be00"/><rect x="147" y="96" width="6" height="10" fill="#e7be00"/><rect x="147" y="86" width="6" height="10" fill="#e7be00"/><rect x="33" y="106" width="6" height="10" fill="#e7be00"/><rect x="45" y="106" width="6" height="10" fill="#e7be00"/><rect x="51" y="106" width="6" height="10" fill="#e7be00"/><rect x="69" y="106" width="6" height="10" fill="#e7be00"/><rect x="81" y="116" width="6" height="10" fill="#e7be00"/><rect x="81" y="126" width="6" height="10" fill="#e7be00"/><rect x="81" y="136" width="6" height="10" fill="#e7be00"/><rect x="57" y="136" width="6" height="10" fill="#e7be00"/><rect x="39" y="136" width="6" height="10" fill="#e7be00"/><rect x="33" y="136" width="6" height="10" fill="#e7be00"/><rect x="27" y="136" width="6" height="10" fill="#e7be00"/><rect x="105" y="106" width="6" height="10" fill="#e7be00"/><rect x="111" y="106" width="6" height="10" fill="#e7be00"/><rect x="117" y="106" width="6" height="10" fill="#e7be00"/><rect x="123" y="106" width="6" height="10" fill="#e7be00"/><rect x="135" y="106" width="6" height="10" fill="#e7be00"/><rect x="141" y="106" width="6" height="10" fill="#e7be00"/><rect x="141" y="136" width="6" height="10" fill="#e7be00"/><rect x="129" y="136" width="6" height="10" fill="#e7be00"/><rect x="117" y="136" width="6" height="10" fill="#e7be00"/><rect x="111" y="136" width="6" height="10" fill="#e7be00"/><rect x="93" y="136" width="6" height="10" fill="#e7be00"/><rect x="87" y="136" width="6" height="10" fill="#e7be00"/><rect x="153" y="106" width="6" height="10" fill="#e7be00"/><rect x="159" y="106" width="6" height="10" fill="#e7be00"/><rect x="177" y="106" width="6" height="10" fill="#e7be00"/><rect x="189" y="106" width="6" height="10" fill="#e7be00"/><rect x="195" y="106" width="6" height="10" fill="#e7be00"/><rect x="201" y="136" width="6" height="10" fill="#e7be00"/><rect x="195" y="136" width="6" height="10" fill="#e7be00"/><rect x="183" y="136" width="6" height="10" fill="#e7be00"/><rect x="165" y="136" width="6" height="10" fill="#e7be00"/><rect x="147" y="116" width="6" height="10" fill="#e7be00"/></g><g clip-path="url(#grid-clip-b2d45e3d12f64e72-3x3)" data-channel="ellipse" data-ellipse-anchor-x="87" data-ellipse-anchor-y="146" data-ellipse-rx="61.773" data-ellipse-ry="73.992" data-ellipse-rotation-deg="180"><ellipse cx="87" cy="146" rx="61.773" ry="73.992" transform="rotate(180 87 146)" fill="#000000" stroke="#000000" fill-opacity="0.2" stroke-opacity="0.3" stroke-width="2"/></g><g><g data-channel="cell" data-cell-index="0" data-cell-row="0" data-cell-col="0" data-cell-blank="true" data-cell-blank-map="true"><rect x="33" y="36" width="48" height="20" rx="10" ry="10" fill="#e7be00" stroke="#000000" stroke-width="1"/><circle cx="57" cy="52.667" r="3.5" fill="#1d4ed8" data-blank-map-min="2,1"/><path d="M 52.8,39.333 H 61.2 M 57,35.133 V 43.533" fill="none" stroke="#d62828" stroke-width="1.925" stroke-linecap="butt" data-blank-map-max="0,1"/></g><g data-channel="cell" data-cell-index="1" data-cell-row="0" data-cell-col="1"><rect x="93" y="36" width="48" height="20" fill="#f29c30"/><text x="117" y="46" fill="#000000" style="font-family: &quot;JetBrains Mono&quot;, &quot;Menlo&quot;, &quot;Consolas&quot;, &quot;DejaVu Sans Mono&quot;, &quot;Liberation Mono&quot;, &quot;Roboto Mono&quot;, &quot;Noto Sans Mono&quot;, monospace; font-size: 12px;" text-anchor="middle" dominant-baseline="central">309cf2</text></g><g data-channel="cell" data-cell-index="2" data-cell-row="0" data-cell-col="2" data-cell-quartile="1"><rect x="153" y="36" width="48" height="20" fill="#e74e67"/><text x="177" y="46" fill="#000000" style="font-family: &quot;JetBrains Mono&quot;, &quot;Menlo&quot;, &quot;Consolas&quot;, &quot;DejaVu Sans Mono&quot;, &quot;Liberation Mono&quot;, &quot;Roboto Mono&quot;, &quot;Noto Sans Mono&quot;, monospace; font-size: 12px;" text-anchor="middle" dominant-baseline="central">674ee7</text><polygon points="153,36 163,36 153,46" fill="#000000"/></g><g data-channel="cell" data-cell-index="3" data-cell-row="1" data-cell-col="0" data-cell-blank="true"><rect x="33" y="76" width="48" height="20" rx="10" ry="10" fill="#e7be00" stroke="#000000" stroke-width="1"/></g><g data-channel="cell" data-cell-index="4" data-cell-row="1" data-cell-col="1"><rect x="93" y="76" width="48" height="20" fill="#9974a0"/><text x="117" y="86" fill="#000000" style="font-family: &quot;JetBrains Mono&quot;, &quot;Menlo&quot;, &quot;Consolas&quot;, &quot;DejaVu Sans Mono&quot;, &quot;Liberation Mono&quot;, &quot;Roboto Mono&quot;, &quot;Noto Sans Mono&quot;, monospace; font-size: 12px;" text-anchor="middle" dominant-baseline="central">a07499</text></g><g data-channel="cell" data-cell-index="5" data-cell-row="1" data-cell-col="2"><rect x="153" y="76" width="48" height="20" fill="#82cf78"/><text x="177" y="86" fill="#000000" style="font-family: &quot;JetBrains Mono&quot;, &quot;Menlo&quot;, &quot;Consolas&quot;, &quot;DejaVu Sans Mono&quot;, &quot;Liberation Mono&quot;, &quot;Roboto Mono&quot;, &quot;Noto Sans Mono&quot;, monospace; font-size: 12px;" text-anchor="middle" dominant-baseline="central">78cf82</text></g><g data-channel="cell" data-cell-index="6" data-cell-row="2" data-cell-col="0" data-cell-quartile="3"><rect x="33" y="116" width="48" height="20" fill="#91ab65"/><text x="57" y="126" fill="#000000" style="font-family: &quot;JetBrains Mono&quot;, &quot;Menlo&quot;, &quot;Consolas&quot;, &quot;DejaVu Sans Mono&quot;, &quot;Liberation Mono&quot;, &quot;Roboto Mono&quot;, &quot;Noto Sans Mono&quot;, monospace; font-size: 12px;" text-anchor="middle" dominant-baseline="central">65ab91</text><polygon points="81,136 81,126 71,136" fill="#000000"/></g><g data-channel="cell" data-cell-index="7" data-cell-row="2" data-cell-col="1" data-cell-quartile="2"><rect x="93" y="116" width="48" height="20" fill="#ea0aa6"/><text x="117" y="126" fill="#000000" style="font-family: &quot;JetBrains Mono&quot;, &quot;Menlo&quot;, &quot;Consolas&quot;, &quot;DejaVu Sans Mono&quot;, &quot;Liberation Mono&quot;, &quot;Roboto Mono&quot;, &quot;Noto Sans Mono&quot;, monospace; font-size: 12px;" text-anchor="middle" dominant-baseline="central">a60aea</text><polygon points="141,116 131,116 141,126" fill="#000000"/></g><g data-channel="cell" data-cell-index="8" data-cell-row="2" data-cell-col="2" data-cell-quartile="4"><rect x="153" y="116" width="48" height="20" fill="#7d7d0f"/><text x="177" y="126" fill="#ffffff" style="font-family: &quot;JetBrains Mono&quot;, &quot;Menlo&quot;, &quot;Consolas&quot;, &quot;DejaVu Sans Mono&quot;, &quot;Liberation Mono&quot;, &quot;Roboto Mono&quot;, &quot;Noto Sans Mono&quot;, monospace; font-size: 12px;" text-anchor="middle" dominant-baseline="central">0f7d</text><polygon points="153,136 153,126 163,136" fill="#ffffff"/></g></g></g><g data-channel="color-bar" data-bar-slots="12" data-bar-marker-left="2" data-bar-marker-right="0"><g data-color-bar-rank="0" data-color-bar-band="B"><rect x="1" y="1" width="20" height="15.864" fill="#2f3fbf"/><text x="11" y="14.224" fill="#ffffff" style="font-family: &quot;JetBrains Mono&quot;, &quot;Menlo&quot;, &quot;Consolas&quot;, &quot;DejaVu Sans Mono&quot;, &quot;Liberation Mono&quot;, &quot;Roboto Mono&quot;, &quot;Noto Sans Mono&quot;, monospace; font-size: 12px;" text-anchor="middle" data-color-bar-letter="true">b</text></g><g data-color-bar-rank="1" data-color-bar-band="G"><rect x="1" y="16.864" width="20" height="60.29" fill="#e7be00"/><text x="11" y="74.515" fill="#000000" style="font-family: &quot;JetBrains Mono&quot;, &quot;Menlo&quot;, &quot;Consolas&quot;, &quot;DejaVu Sans Mono&quot;, &quot;Liberation Mono&quot;, &quot;Roboto Mono&quot;, &quot;Noto Sans Mono&quot;, monospace; font-size: 12px;" text-anchor="middle" data-color-bar-letter="true">g</text></g><g data-color-bar-rank="2" data-color-bar-band="K"><rect x="1" y="77.155" width="20" height="22.753" fill="#000000"/><text x="11" y="97.268" fill="#ffffff" style="font-family: &quot;JetBrains Mono&quot;, &quot;Menlo&quot;, &quot;Consolas&quot;, &quot;DejaVu Sans Mono&quot;, &quot;Liberation Mono&quot;, &quot;Roboto Mono&quot;, &quot;Noto Sans Mono&quot;, monospace; font-size: 12px;" text-anchor="middle" data-color-bar-letter="true">k</text></g><g data-color-bar-rank="3" data-color-bar-band="R"><rect x="1" y="99.908" width="20" height="51.092" fill="#ff3f2f"/><text x="11" y="148.36" fill="#000000" style="font-family: &quot;JetBrains Mono&quot;, &quot;Menlo&quot;, &quot;Consolas&quot;, &quot;DejaVu Sans Mono&quot;, &quot;Liberation Mono&quot;, &quot;Roboto Mono&quot;, &quot;Noto Sans Mono&quot;, monospace; font-size: 12px;" text-anchor="middle" data-color-bar-letter="true">r</text></g><circle cx="5.6" cy="32.25" r="3.4" fill="#ffffff" stroke="#000000" stroke-width="0.75" data-bar-marker="left"/><circle cx="16.4" cy="7.25" r="3.4" fill="#ffffff" stroke="#000000" stroke-width="0.75" data-bar-marker="right"/></g><g data-channel="label-top"><text x="27" y="16" fill="#666666" style="font-family: &quot;JetBrains Mono&quot;, &quot;Menlo&quot;, &quot;Consolas&quot;, &quot;DejaVu Sans Mono&quot;, &quot;Liberation Mono&quot;, &quot;Roboto Mono&quot;, &quot;Noto Sans Mono&quot;, monospace; font-size: 12px;" dominant-baseline="central">swh:1:rev:...</text></g><line x1="0" y1="0.5" x2="213" y2="0.5" stroke="#808080" stroke-width="1" shape-rendering="crispEdges"/><line x1="212.5" y1="0" x2="212.5" y2="152" stroke="#808080" stroke-width="1" shape-rendering="crispEdges"/><line x1="0" y1="151.5" x2="213" y2="151.5" stroke="#808080" stroke-width="1" shape-rendering="crispEdges"/><line x1="0.5" y1="0" x2="0.5" y2="152" stroke="#808080" stroke-width="1" shape-rendering="crispEdges"/><line x1="21.5" y1="0" x2="21.5" y2="152" stroke="#808080" stroke-width="1" shape-rendering="crispEdges"/></svg>