<svg width="215" height="154" viewBox="0 0 215 154" xmlns="http://www.w3.org/2000/svg" font-family="&quot;JetBrains Mono&quot;, &quot;Menlo&quot;, &quot;Consolas&quot;, &quot;DejaVu Sans Mono&quot;, &quot;Liberation Mono&quot;, &quot;Roboto Mono&quot;, &quot;Noto Sans Mono&quot;, monospace" data-entviz-version="v15" data-entviz-lib="0.15.0" data-input-bytes="50" data-cols="3" data-rows="3" data-encoding="hex" data-scheme="swhid" data-role="digest" data-size-basis="decoded" data-entropy-type="swhid" data-size-bits="160" data-qualifiers="{&quot;object&quot;:&quot;rev&quot;,&quot;algorithm&quot;:&quot;sha1&quot;}" data-parts="[{&quot;text&quot;:&quot;swh:1:rev:&quot;,&quot;bind&quot;:&quot;fold&quot;},{&quot;text&quot;:&quot;309cf2674ee7a0749978cf8265ab91a60aea0f7d&quot;,&quot;bind&quot;:&quot;core&quot;}]"><defs><clipPath id="grid-clip-b2d45e3d12f64e72-3x3"><rect x="28" y="27" width="180" height="120"/></clipPath></defs><rect x="1" y="1" width="213" height="152" fill="#ffffff"/><g data-channel="grid"><rect x="28" y="27" width="180" height="120" fill="#ffffff"/><g><path fill="#e7be00" d="M94 27h6v10h-6zM100 27h6v10h-6zM106 27h6v10h-6zM112 27h6v10h-6zM124 27h6v10h-6zM142 37h6v10h-6zM142 57h6v10h-6zM130 57h6v10h-6zM124 57h6v10h-6zM112 57h6v10h-6zM94 57h6v10h-6zM88 57h6v10h-6zM88 37h6v10h-6z"/><path fill="#2f3fbf" d="M154 27h6v10h-6zM160 27h6v10h-6zM172 27h6v10h-6zM178 27h6v10h-6zM184 27h6v10h-6zM190 27h6v10h-6zM202 27h6v10h-6zM202 57h6v10h-6zM178 57h6v10h-6zM166 57h6v10h-6zM160 57h6v10h-6zM154 57h6v10h-6zM148 57h6v10h-6z"/><path fill="#2f3fbf" d="M106 67h6v10h-6zM112 67h6v10h-6zM124 67h6v10h-6zM130 67h6v10h-6zM142 67h6v10h-6zM142 97h6v10h-6zM136 97h6v10h-6zM130 97h6v10h-6zM112 97h6v10h-6zM106 97h6v10h-6zM100 97h6v10h-6zM88 87h6v10h-6z"/><path fill="#e7be00" d="M148 67h6v10h-6zM154 67h6v10h-6zM160 67h6v10h-6zM172 67h6v10h-6zM178 67h6v10h-6zM202 77h6v10h-6zM202 87h6v10h-6zM202 97h6v10h-6zM154 97h6v10h-6zM148 97h6v10h-6zM148 87h6v10h-6z"/><path fill="#e7be00" d="M34 107h6v10h-6zM46 107h6v10h-6zM52 107h6v10h-6zM70 107h6v10h-6zM82 117h6v10h-6zM82 127h6v10h-6zM82 137h6v10h-6zM58 137h6v10h-6zM40 137h6v10h-6zM34 137h6v10h-6zM28 137h6v10h-6z"/><path fill="#e7be00" d="M106 107h6v10h-6zM112 107h6v10h-6zM118 107h6v10h-6zM124 107h6v10h-6zM136 107h6v10h-6zM142 107h6v10h-6zM142 137h6v10h-6zM130 137h6v10h-6zM118 137h6v10h-6zM112 137h6v10h-6zM94 137h6v10h-6zM88 137h6v10h-6z"/><path fill="#e7be00" d="M154 107h6v10h-6zM160 107h6v10h-6zM178 107h6v10h-6zM190 107h6v10h-6zM196 107h6v10h-6zM202 137h6v10h-6zM196 137h6v10h-6zM184 137h6v10h-6zM166 137h6v10h-6zM148 117h6v10h-6z"/></g><g clip-path="url(#grid-clip-b2d45e3d12f64e72-3x3)" data-channel="ellipse" data-ellipse-anchor-x="88" data-ellipse-anchor-y="147" data-ellipse-rx="61.773" data-ellipse-ry="73.992" data-ellipse-rotation-deg="180"><ellipse cx="88" cy="147" rx="61.773" ry="73.992" transform="rotate(180 88 147)" fill="#000000" stroke="#000000" fill-opacity="0.2" stroke-opacity="0.3" stroke-width="2"/></g><g><g data-channel="cell" data-cell-index="0" data-cell-row="0" data-cell-col="0" data-cell-blank="true" data-cell-blank-map="true"><rect x="34" y="37" width="48" height="20" rx="10" ry="10" fill="#e7be00" stroke="#000000" stroke-width="1"/><circle cx="58" cy="53.667" r="3.5" fill="#1d4ed8" data-blank-map-min="2,1"/><path d="M 53.8,40.333 H 62.2 M 58,36.133 V 44.533" fill="none" stroke="#d62828" stroke-width="1.925" stroke-linecap="butt" data-blank-map-max="0,1"/></g><g data-channel="cell" data-cell-index="1" data-cell-row="0" data-cell-col="1" data-surround-bits="0xb2d45e" data-edge-color="#e7be00"><rect x="94" y="37" width="48" height="20" fill="#f29c30"/><text x="118" y="47" fill="#000000" font-size="12" text-anchor="middle" dominant-baseline="central">309cf2</text></g><g data-channel="cell" data-cell-index="2" data-cell-row="0" data-cell-col="2" data-surround-bits="0x3d12f6" data-edge-color="#2f3fbf" data-cell-quartile="1"><rect x="154" y="37" width="48" height="20" fill="#e74e67"/><text x="178" y="47" fill="#000000" font-size="12" text-anchor="middle" dominant-baseline="central">674ee7</text><polygon points="154,37 164,37 154,47" fill="#000000"/></g><g data-channel="cell" data-cell-index="3" data-cell-row="1" data-cell-col="0" data-cell-blank="true"><rect x="34" y="77" width="48" height="20" rx="10" ry="10" fill="#e7be00" stroke="#000000" stroke-width="1"/></g><g data-channel="cell" data-cell-index="4" data-cell-row="1" data-cell-col="1" data-surround-bits="0x4e72d8" data-edge-color="#2f3fbf"><rect x="94" y="77" width="48" height="20" fill="#9974a0"/><text x="118" y="87" fill="#000000" font-size="12" text-anchor="middle" dominant-baseline="central">a07499</text></g><g data-channel="cell" data-cell-index="5" data-cell-row="1" data-cell-col="2" data-surround-bits="0x701c37" data-edge-color="#e7be00"><rect x="154" y="77" width="48" height="20" fill="#82cf78"/><text x="178" y="87" fill="#000000" font-size="12" text-anchor="middle" dominant-baseline="central">78cf82</text></g><g data-channel="cell" data-cell-index="6" data-cell-row="2" data-cell-col="0" data-surround-bits="0x391c9a" data-edge-color="#e7be00" data-cell-quartile="3"><rect x="34" y="117" width="48" height="20" fill="#91ab65"/><text x="58" y="127" fill="#000000" font-size="12" text-anchor="middle" dominant-baseline="central">65ab91</text><polygon points="82,137 82,127 72,137" fill="#000000"/></g><g data-channel="cell" data-cell-index="7" data-cell-row="2" data-cell-col="1" data-surround-bits="0x335378" data-edge-color="#e7be00" data-cell-quartile="2"><rect x="94" y="117" width="48" height="20" fill="#ea0aa6"/><text x="118" y="127" fill="#000000" font-size="12" text-anchor="middle" dominant-baseline="central">a60aea</text><polygon points="142,117 132,117 142,127" fill="#000000"/></g><g data-channel="cell" data-cell-index="8" data-cell-row="2" data-cell-col="2" data-surround-bits="0x84b1a6" data-edge-color="#e7be00" data-cell-quartile="4"><rect x="154" y="117" width="48" height="20" fill="#7d7d0f"/><text x="178" y="127" fill="#ffffff" font-size="12" text-anchor="middle" dominant-baseline="central">0f7d</text><polygon points="154,137 154,127 164,137" fill="#ffffff"/></g></g></g><g data-channel="color-bar" data-bar-slots="12" data-bar-marker-left="2" data-bar-marker-right="0"><g data-color-bar-rank="0" data-color-bar-band="B"><rect x="2" y="2" width="20" height="15.864" fill="#2f3fbf"/><text x="12" y="15.224" fill="#ffffff" font-size="12" text-anchor="middle" data-color-bar-letter="true">b</text></g><g data-color-bar-rank="1" data-color-bar-band="G"><rect x="2" y="17.864" width="20" height="60.29" fill="#e7be00"/><text x="12" y="75.515" fill="#000000" font-size="12" text-anchor="middle" data-color-bar-letter="true">g</text></g><g data-color-bar-rank="2" data-color-bar-band="K"><rect x="2" y="78.155" width="20" height="22.753" fill="#000000"/><text x="12" y="98.268" fill="#ffffff" font-size="12" text-anchor="middle" data-color-bar-letter="true">k</text></g><g data-color-bar-rank="3" data-color-bar-band="R"><rect x="2" y="100.908" width="20" height="51.092" fill="#ff3f2f"/><text x="12" y="149.36" fill="#000000" font-size="12" text-anchor="middle" data-color-bar-letter="true">r</text></g><circle cx="6.6" cy="33.25" r="3.4" fill="#ffffff" stroke="#000000" stroke-width="0.75" data-bar-marker="left"/><circle cx="17.4" cy="8.25" r="3.4" fill="#ffffff" stroke="#000000" stroke-width="0.75" data-bar-marker="right"/></g><g data-channel="label-top"><text x="28" y="17" fill="#666666" font-size="12" dominant-baseline="central">swh:1:rev</text></g><line x1="1" y1="1.5" x2="214" y2="1.5" stroke="#808080" stroke-width="1" shape-rendering="crispEdges"/><line x1="213.5" y1="1" x2="213.5" y2="153" stroke="#808080" stroke-width="1" shape-rendering="crispEdges"/><line x1="1" y1="152.5" x2="214" y2="152.5" stroke="#808080" stroke-width="1" shape-rendering="crispEdges"/><line x1="1.5" y1="1" x2="1.5" y2="153" stroke="#808080" stroke-width="1" shape-rendering="crispEdges"/><line x1="22.5" y1="1" x2="22.5" y2="153" stroke="#808080" stroke-width="1" shape-rendering="crispEdges"/></svg>