<svg width="213" height="172" viewBox="0 0 213 172" xmlns="http://www.w3.org/2000/svg" font-family="&quot;JetBrains Mono&quot;, &quot;Menlo&quot;, &quot;Consolas&quot;, &quot;DejaVu Sans Mono&quot;, &quot;Liberation Mono&quot;, &quot;Roboto Mono&quot;, &quot;Noto Sans Mono&quot;, monospace" data-entviz-version="v11" data-entviz-lib="0.10.0" data-input-bytes="40" data-cols="3" data-rows="3"><defs><clipPath id="grid-clip-0f0858a203721468-3x3"><rect x="27" y="26" width="180" height="120"/></clipPath></defs><rect x="0" y="0" width="213" height="172" fill="#ffffff"/><g data-channel="grid"><rect x="27" y="26" width="180" height="120" fill="#ffffff"/><g><path fill="#e7be00" d="M105 26h6v10h-6zM111 26h6v10h-6zM123 26h6v10h-6zM141 46h6v10h-6zM117 56h6v10h-6zM111 56h6v10h-6zM105 56h6v10h-6zM99 56h6v10h-6z"/><path fill="#ff3f2f" d="M153 26h6v10h-6zM171 26h6v10h-6zM177 26h6v10h-6zM183 26h6v10h-6zM195 26h6v10h-6zM201 26h6v10h-6zM171 56h6v10h-6zM147 56h6v10h-6zM147 36h6v10h-6z"/><path fill="#2f3fbf" d="M33 66h6v10h-6zM39 66h6v10h-6zM51 66h6v10h-6zM57 66h6v10h-6zM69 66h6v10h-6zM81 86h6v10h-6zM75 96h6v10h-6zM69 96h6v10h-6zM45 96h6v10h-6zM33 96h6v10h-6z"/><path fill="#e7be00" d="M87 66h6v10h-6zM93 66h6v10h-6zM99 66h6v10h-6zM111 66h6v10h-6zM135 96h6v10h-6zM123 96h6v10h-6zM117 96h6v10h-6zM99 96h6v10h-6zM93 96h6v10h-6zM87 86h6v10h-6zM87 76h6v10h-6z"/><path fill="#e7be00" d="M147 66h6v10h-6zM183 66h6v10h-6zM201 66h6v10h-6zM201 76h6v10h-6zM201 86h6v10h-6zM201 96h6v10h-6zM189 96h6v10h-6zM171 96h6v10h-6zM159 96h6v10h-6z"/><path fill="#e7be00" d="M45 106h6v10h-6zM69 106h6v10h-6zM81 116h6v10h-6zM81 126h6v10h-6zM81 136h6v10h-6zM69 136h6v10h-6zM45 136h6v10h-6z"/><path fill="#e7be00" d="M147 106h6v10h-6zM153 106h6v10h-6zM159 106h6v10h-6zM165 106h6v10h-6zM189 106h6v10h-6zM201 126h6v10h-6zM201 136h6v10h-6zM147 126h6v10h-6zM147 116h6v10h-6z"/></g><g clip-path="url(#grid-clip-0f0858a203721468-3x3)" data-channel="ellipse" data-ellipse-anchor-x="27" data-ellipse-anchor-y="66" data-ellipse-rx="81.155" data-ellipse-ry="104.792" data-ellipse-rotation-deg="0"><ellipse cx="27" cy="66" rx="81.155" ry="104.792" transform="rotate(0 27 66)" fill="#000000" stroke="#000000" fill-opacity="0.2" stroke-opacity="0.3" stroke-width="2"/></g><g><g data-channel="cell" data-cell-index="0" data-cell-row="0" data-cell-col="0" data-cell-blank="true" data-cell-blank-map="true"><rect x="33" y="36" width="48" height="20" rx="10" ry="10" fill="#e7be00" stroke="#000000" stroke-width="1"/><circle cx="41" cy="52.667" r="3.5" fill="#1d4ed8" data-blank-map-min="2,0"/><path d="M 52.8,46 H 61.2 M 57,41.8 V 50.2" fill="none" stroke="#d62828" stroke-width="1.925" stroke-linecap="butt" data-blank-map-max="1,1"/></g><g data-channel="cell" data-cell-index="1" data-cell-row="0" data-cell-col="1" data-surround-bits="0xf0858" data-edge-color="#e7be00"><rect x="93" y="36" width="48" height="20" fill="#f29c30"/><text x="117" y="46" fill="#000000" font-size="12" text-anchor="middle" dominant-baseline="central">309cf2</text></g><g data-channel="cell" data-cell-index="2" data-cell-row="0" data-cell-col="2" data-surround-bits="0xa20372" data-edge-color="#ff3f2f" data-cell-quartile="4"><rect x="153" y="36" width="48" height="20" fill="#e74e67"/><text x="177" y="46" fill="#000000" font-size="12" text-anchor="middle" dominant-baseline="central">674ee7</text><polygon points="153,56 153,46 163,56" fill="#000000"/></g><g data-channel="cell" data-cell-index="3" data-cell-row="1" data-cell-col="0" data-surround-bits="0x1468b6" data-edge-color="#2f3fbf" data-cell-quartile="1"><rect x="33" y="76" width="48" height="20" fill="#9974a0"/><text x="57" y="86" fill="#000000" font-size="12" text-anchor="middle" dominant-baseline="central">a07499</text><polygon points="33,76 43,76 33,86" fill="#000000"/></g><g data-channel="cell" data-cell-index="4" data-cell-row="1" data-cell-col="1" data-surround-bits="0xd9a017" data-edge-color="#e7be00" data-cell-quartile="3"><rect x="93" y="76" width="48" height="20" fill="#82cf78"/><text x="117" y="86" fill="#000000" font-size="12" text-anchor="middle" dominant-baseline="central">78cf82</text><polygon points="141,96 141,86 131,96" fill="#000000"/></g><g data-channel="cell" data-cell-index="5" data-cell-row="1" data-cell-col="2" data-surround-bits="0xa5e41" data-edge-color="#e7be00"><rect x="153" y="76" width="48" height="20" fill="#91ab65"/><text x="177" y="86" fill="#000000" font-size="12" text-anchor="middle" dominant-baseline="central">65ab91</text></g><g data-channel="cell" data-cell-index="6" data-cell-row="2" data-cell-col="0" data-surround-bits="0x45c88" data-edge-color="#e7be00" data-cell-quartile="2"><rect x="33" y="116" width="48" height="20" fill="#ea0aa6"/><text x="57" y="126" fill="#000000" font-size="12" text-anchor="middle" dominant-baseline="central">a60aea</text><polygon points="81,116 71,116 81,126" fill="#000000"/></g><g data-channel="cell" data-cell-index="7" data-cell-row="2" data-cell-col="1" data-cell-blank="true"><rect x="93" y="116" width="48" height="20" rx="10" ry="10" fill="#000000" stroke="#000000" stroke-width="1"/></g><g data-channel="cell" data-cell-index="8" data-cell-row="2" data-cell-col="2" data-surround-bits="0xc0188f" data-edge-color="#e7be00"><rect x="153" y="116" width="48" height="20" fill="#7d7d0f"/><text x="177" y="126" fill="#ffffff" font-size="12" text-anchor="middle" dominant-baseline="central">0f7d</text></g></g></g><g data-channel="color-bar" data-bar-slots="14" data-bar-marker-left="12" data-bar-marker-right="2"><g data-color-bar-rank="0" data-color-bar-band="K"><rect x="1" y="1" width="20" height="42.1" fill="#000000"/><text x="11" y="40.46" fill="#ffffff" font-size="12" text-anchor="middle" data-color-bar-letter="true">k</text></g><g data-color-bar-rank="1" data-color-bar-band="G"><rect x="1" y="43.1" width="20" height="74.022" fill="#e7be00"/><text x="11" y="114.482" fill="#000000" font-size="12" text-anchor="middle" data-color-bar-letter="true">g</text></g><g data-color-bar-rank="2" data-color-bar-band="B"><rect x="1" y="117.122" width="20" height="42.1" fill="#2f3fbf"/><text x="11" y="156.582" fill="#ffffff" font-size="12" text-anchor="middle" data-color-bar-letter="true">b</text></g><g data-color-bar-rank="3" data-color-bar-band="R"><rect x="1" y="159.222" width="20" height="11.778" fill="#ff3f2f"/><text x="11" y="168.36" fill="#000000" font-size="12" text-anchor="middle" data-color-bar-letter="true">r</text></g><circle cx="5.6" cy="152.786" r="3.4" fill="#ffffff" stroke="#000000" stroke-width="0.75" data-bar-marker="left"/><circle cx="16.4" cy="31.357" r="3.4" fill="#ffffff" stroke="#000000" stroke-width="0.75" data-bar-marker="right"/></g><g data-channel="label-top"><text x="27" y="16" fill="#666666" font-size="12" dominant-baseline="central">hex(40):</text></g><g data-channel="label-bottom"><text x="207" y="156" fill="#666666" font-size="12" text-anchor="end" dominant-baseline="central"><tspan fill="#808080" data-user-note="two words">(two words)</tspan></text></g><line x1="0" y1="0.5" x2="213" y2="0.5" stroke="#808080" stroke-width="1" shape-rendering="crispEdges"/><line x1="212.5" y1="0" x2="212.5" y2="172" stroke="#808080" stroke-width="1" shape-rendering="crispEdges"/><line x1="0" y1="171.5" x2="213" y2="171.5" stroke="#808080" stroke-width="1" shape-rendering="crispEdges"/><line x1="0.5" y1="0" x2="0.5" y2="172" stroke="#808080" stroke-width="1" shape-rendering="crispEdges"/><line x1="21.5" y1="0" x2="21.5" y2="172" stroke="#808080" stroke-width="1" shape-rendering="crispEdges"/></svg>