<svg width="215" height="174" viewBox="0 0 215 174" xmlns="http://www.w3.org/2000/svg" font-family="&quot;JetBrains Mono&quot;, &quot;Menlo&quot;, &quot;Consolas&quot;, &quot;DejaVu Sans Mono&quot;, &quot;Liberation Mono&quot;, &quot;Roboto Mono&quot;, &quot;Noto Sans Mono&quot;, monospace" data-entviz-version="v15" data-entviz-lib="0.15.0" data-input-bytes="40" data-cols="3" data-rows="3" data-encoding="hex" data-scheme="" data-role="" data-size-basis="decoded" data-entropy-type="hex" data-size-bits="160" data-qualifiers="{}" data-parts="[{&quot;text&quot;:&quot;309cf2674ee7a0749978cf8265ab91a60aea0f7d&quot;,&quot;bind&quot;:&quot;core&quot;}]"><defs><clipPath id="grid-clip-0f0858a203721468-3x3"><rect x="28" y="27" width="180" height="120"/></clipPath></defs><rect x="1" y="1" width="213" height="172" fill="#ffffff"/><g data-channel="grid"><rect x="28" y="27" width="180" height="120" fill="#ffffff"/><g><path fill="#e7be00" d="M106 27h6v10h-6zM112 27h6v10h-6zM124 27h6v10h-6zM142 47h6v10h-6zM118 57h6v10h-6zM112 57h6v10h-6zM106 57h6v10h-6zM100 57h6v10h-6z"/><path fill="#ff3f2f" d="M154 27h6v10h-6zM172 27h6v10h-6zM178 27h6v10h-6zM184 27h6v10h-6zM196 27h6v10h-6zM202 27h6v10h-6zM172 57h6v10h-6zM148 57h6v10h-6zM148 37h6v10h-6z"/><path fill="#2f3fbf" d="M34 67h6v10h-6zM40 67h6v10h-6zM52 67h6v10h-6zM58 67h6v10h-6zM70 67h6v10h-6zM82 87h6v10h-6zM76 97h6v10h-6zM70 97h6v10h-6zM46 97h6v10h-6zM34 97h6v10h-6z"/><path fill="#e7be00" d="M88 67h6v10h-6zM94 67h6v10h-6zM100 67h6v10h-6zM112 67h6v10h-6zM136 97h6v10h-6zM124 97h6v10h-6zM118 97h6v10h-6zM100 97h6v10h-6zM94 97h6v10h-6zM88 87h6v10h-6zM88 77h6v10h-6z"/><path fill="#e7be00" d="M148 67h6v10h-6zM184 67h6v10h-6zM202 67h6v10h-6zM202 77h6v10h-6zM202 87h6v10h-6zM202 97h6v10h-6zM190 97h6v10h-6zM172 97h6v10h-6zM160 97h6v10h-6z"/><path fill="#e7be00" d="M46 107h6v10h-6zM70 107h6v10h-6zM82 117h6v10h-6zM82 127h6v10h-6zM82 137h6v10h-6zM70 137h6v10h-6zM46 137h6v10h-6z"/><path fill="#e7be00" d="M148 107h6v10h-6zM154 107h6v10h-6zM160 107h6v10h-6zM166 107h6v10h-6zM190 107h6v10h-6zM202 127h6v10h-6zM202 137h6v10h-6zM148 127h6v10h-6zM148 117h6v10h-6z"/></g><g clip-path="url(#grid-clip-0f0858a203721468-3x3)" data-channel="ellipse" data-ellipse-anchor-x="28" data-ellipse-anchor-y="67" data-ellipse-rx="81.155" data-ellipse-ry="104.792" data-ellipse-rotation-deg="0"><ellipse cx="28" cy="67" rx="81.155" ry="104.792" transform="rotate(0 28 67)" fill="#000000" stroke="#000000" fill-opacity="0.2" stroke-opacity="0.3" stroke-width="2"/></g><g><g data-channel="cell" data-cell-index="0" data-cell-row="0" data-cell-col="0" data-cell-blank="true" data-cell-blank-map="true"><rect x="34" y="37" width="48" height="20" rx="10" ry="10" fill="#e7be00" stroke="#000000" stroke-width="1"/><circle cx="42" cy="53.667" r="3.5" fill="#1d4ed8" data-blank-map-min="2,0"/><path d="M 53.8,47 H 62.2 M 58,42.8 V 51.2" fill="none" stroke="#d62828" stroke-width="1.925" stroke-linecap="butt" data-blank-map-max="1,1"/></g><g data-channel="cell" data-cell-index="1" data-cell-row="0" data-cell-col="1" data-surround-bits="0xf0858" data-edge-color="#e7be00"><rect x="94" y="37" width="48" height="20" fill="#f29c30"/><text x="118" y="47" fill="#000000" font-size="12" text-anchor="middle" dominant-baseline="central">309cf2</text></g><g data-channel="cell" data-cell-index="2" data-cell-row="0" data-cell-col="2" data-surround-bits="0xa20372" data-edge-color="#ff3f2f" data-cell-quartile="4"><rect x="154" y="37" width="48" height="20" fill="#e74e67"/><text x="178" y="47" fill="#000000" font-size="12" text-anchor="middle" dominant-baseline="central">674ee7</text><polygon points="154,57 154,47 164,57" fill="#000000"/></g><g data-channel="cell" data-cell-index="3" data-cell-row="1" data-cell-col="0" data-surround-bits="0x1468b6" data-edge-color="#2f3fbf" data-cell-quartile="1"><rect x="34" y="77" width="48" height="20" fill="#9974a0"/><text x="58" y="87" fill="#000000" font-size="12" text-anchor="middle" dominant-baseline="central">a07499</text><polygon points="34,77 44,77 34,87" fill="#000000"/></g><g data-channel="cell" data-cell-index="4" data-cell-row="1" data-cell-col="1" data-surround-bits="0xd9a017" data-edge-color="#e7be00" data-cell-quartile="3"><rect x="94" y="77" width="48" height="20" fill="#82cf78"/><text x="118" y="87" fill="#000000" font-size="12" text-anchor="middle" dominant-baseline="central">78cf82</text><polygon points="142,97 142,87 132,97" fill="#000000"/></g><g data-channel="cell" data-cell-index="5" data-cell-row="1" data-cell-col="2" data-surround-bits="0xa5e41" data-edge-color="#e7be00"><rect x="154" y="77" width="48" height="20" fill="#91ab65"/><text x="178" y="87" fill="#000000" font-size="12" text-anchor="middle" dominant-baseline="central">65ab91</text></g><g data-channel="cell" data-cell-index="6" data-cell-row="2" data-cell-col="0" data-surround-bits="0x45c88" data-edge-color="#e7be00" data-cell-quartile="2"><rect x="34" y="117" width="48" height="20" fill="#ea0aa6"/><text x="58" y="127" fill="#000000" font-size="12" text-anchor="middle" dominant-baseline="central">a60aea</text><polygon points="82,117 72,117 82,127" fill="#000000"/></g><g data-channel="cell" data-cell-index="7" data-cell-row="2" data-cell-col="1" data-cell-blank="true"><rect x="94" y="117" width="48" height="20" rx="10" ry="10" fill="#000000" stroke="#000000" stroke-width="1"/></g><g data-channel="cell" data-cell-index="8" data-cell-row="2" data-cell-col="2" data-surround-bits="0xc0188f" data-edge-color="#e7be00"><rect x="154" y="117" width="48" height="20" fill="#7d7d0f"/><text x="178" y="127" fill="#ffffff" font-size="12" text-anchor="middle" dominant-baseline="central">0f7d</text></g></g></g><g data-channel="color-bar" data-bar-slots="14" data-bar-marker-left="12" data-bar-marker-right="2"><g data-color-bar-rank="0" data-color-bar-band="K"><rect x="2" y="2" width="20" height="42.1" fill="#000000"/><text x="12" y="41.46" fill="#ffffff" font-size="12" text-anchor="middle" data-color-bar-letter="true">k</text></g><g data-color-bar-rank="1" data-color-bar-band="G"><rect x="2" y="44.1" width="20" height="74.022" fill="#e7be00"/><text x="12" y="115.482" fill="#000000" font-size="12" text-anchor="middle" data-color-bar-letter="true">g</text></g><g data-color-bar-rank="2" data-color-bar-band="B"><rect x="2" y="118.122" width="20" height="42.1" fill="#2f3fbf"/><text x="12" y="157.582" fill="#ffffff" font-size="12" text-anchor="middle" data-color-bar-letter="true">b</text></g><g data-color-bar-rank="3" data-color-bar-band="R"><rect x="2" y="160.222" width="20" height="11.778" fill="#ff3f2f"/><text x="12" y="169.36" fill="#000000" font-size="12" text-anchor="middle" data-color-bar-letter="true">r</text></g><circle cx="6.6" cy="153.786" r="3.4" fill="#ffffff" stroke="#000000" stroke-width="0.75" data-bar-marker="left"/><circle cx="17.4" cy="32.357" r="3.4" fill="#ffffff" stroke="#000000" stroke-width="0.75" data-bar-marker="right"/></g><g data-channel="label-top"><text x="28" y="17" fill="#666666" font-size="12" dominant-baseline="central">hex, 160-bit</text></g><g data-channel="label-bottom"><text x="208" y="157" fill="#666666" font-size="12" text-anchor="end" dominant-baseline="central"><tspan fill="#808080" data-user-note="two words">(two words)</tspan></text></g><line x1="1" y1="1.5" x2="214" y2="1.5" stroke="#808080" stroke-width="1" shape-rendering="crispEdges"/><line x1="213.5" y1="1" x2="213.5" y2="173" stroke="#808080" stroke-width="1" shape-rendering="crispEdges"/><line x1="1" y1="172.5" x2="214" y2="172.5" stroke="#808080" stroke-width="1" shape-rendering="crispEdges"/><line x1="1.5" y1="1" x2="1.5" y2="173" stroke="#808080" stroke-width="1" shape-rendering="crispEdges"/><line x1="22.5" y1="1" x2="22.5" y2="173" stroke="#808080" stroke-width="1" shape-rendering="crispEdges"/></svg>