<svg width="155" height="114" viewBox="0 0 155 114" xmlns="http://www.w3.org/2000/svg" font-family="&quot;JetBrains Mono&quot;, &quot;Menlo&quot;, &quot;Consolas&quot;, &quot;DejaVu Sans Mono&quot;, &quot;Liberation Mono&quot;, &quot;Roboto Mono&quot;, &quot;Noto Sans Mono&quot;, monospace" data-entviz-version="v13" data-entviz-lib="0.13.0" data-input-bytes="25" data-cols="2" data-rows="2" data-encoding="base64url" data-scheme="urn" data-role="identifier" data-size-basis="utf8" data-entropy-type="urn" data-size-bits="104" data-qualifiers="{&quot;nid&quot;:&quot;example&quot;}" data-parts="[{&quot;text&quot;:&quot;urn:example:&quot;,&quot;bind&quot;:&quot;fold&quot;},{&quot;text&quot;:&quot;a123,z456/foo&quot;,&quot;bind&quot;:&quot;core&quot;}]"><defs><clipPath id="grid-clip-b8359435097fbdcf-2x2"><rect x="28" y="27" width="120" height="80"/></clipPath></defs><rect x="1" y="1" width="153" height="112" fill="#ffffff"/><g data-channel="grid"><rect x="28" y="27" width="120" height="80" fill="#ffffff"/><g><path fill="#e7be00" d="M40 27h6v10h-6zM52 27h6v10h-6zM70 27h6v10h-6zM76 27h6v10h-6zM82 37h6v10h-6zM82 57h6v10h-6zM76 57h6v10h-6zM40 57h6v10h-6zM34 57h6v10h-6zM28 57h6v10h-6zM28 37h6v10h-6z"/><path fill="#000000" d="M88 27h6v10h-6zM94 27h6v10h-6zM100 27h6v10h-6zM106 27h6v10h-6zM112 27h6v10h-6zM118 27h6v10h-6zM124 27h6v10h-6zM136 27h6v10h-6zM142 47h6v10h-6zM118 57h6v10h-6zM106 57h6v10h-6zM94 57h6v10h-6zM88 57h6v10h-6z"/><path fill="#e7be00" d="M34 67h6v10h-6zM58 67h6v10h-6zM70 67h6v10h-6zM76 67h6v10h-6zM82 67h6v10h-6zM82 77h6v10h-6zM82 87h6v10h-6zM70 97h6v10h-6zM64 97h6v10h-6zM58 97h6v10h-6zM46 97h6v10h-6zM40 97h6v10h-6zM34 97h6v10h-6zM28 97h6v10h-6zM28 77h6v10h-6z"/><path fill="#e7be00" d="M112 67h6v10h-6zM124 67h6v10h-6zM130 67h6v10h-6zM142 67h6v10h-6zM142 77h6v10h-6zM142 87h6v10h-6zM142 97h6v10h-6zM136 97h6v10h-6zM100 97h6v10h-6zM88 97h6v10h-6zM88 77h6v10h-6z"/></g><g clip-path="url(#grid-clip-b8359435097fbdcf-2x2)" data-channel="ellipse" data-ellipse-anchor-x="88" data-ellipse-anchor-y="27" data-ellipse-rx="24.4" data-ellipse-ry="41.2" data-ellipse-rotation-deg="0"><ellipse cx="88" cy="27" rx="24.4" ry="41.2" transform="rotate(0 88 27)" fill="#000000" stroke="#000000" fill-opacity="0.2" stroke-opacity="0.3" stroke-width="2"/></g><g><g data-channel="cell" data-cell-index="0" data-cell-row="0" data-cell-col="0" data-surround-bits="0xb83594" data-edge-color="#e7be00" data-cell-quartile="2"><rect x="34" y="37" width="48" height="20" fill="#b75d6b"/><text x="58" y="47" fill="#ffffff" font-size="16" text-anchor="middle" dominant-baseline="central">a123</text><polygon points="82,37 72,37 82,47" fill="#ffffff"/></g><g data-channel="cell" data-cell-index="1" data-cell-row="0" data-cell-col="1" data-surround-bits="0x35097f" data-edge-color="#000000" data-cell-quartile="3"><rect x="94" y="37" width="48" height="20" fill="#393e03"/><text x="118" y="47" fill="#ffffff" font-size="16" text-anchor="middle" dominant-baseline="central">,z45</text><polygon points="142,57 142,47 132,57" fill="#ffffff"/></g><g data-channel="cell" data-cell-index="2" data-cell-row="1" data-cell-col="0" data-surround-bits="0xbdcfa2" data-edge-color="#e7be00" data-cell-quartile="4"><rect x="34" y="77" width="48" height="20" fill="#e8f7eb"/><text x="58" y="87" fill="#000000" font-size="16" text-anchor="middle" dominant-baseline="central">6/fo</text><polygon points="34,97 34,87 44,97" fill="#000000"/></g><g data-channel="cell" data-cell-index="3" data-cell-row="1" data-cell-col="1" data-surround-bits="0xa83ed0" data-edge-color="#e7be00" data-cell-quartile="1"><rect x="94" y="77" width="48" height="20" fill="#288aa2"/><text x="118" y="87" fill="#ffffff" font-size="16" text-anchor="middle" dominant-baseline="central">o</text><polygon points="94,77 104,77 94,87" fill="#ffffff"/></g></g></g><g data-channel="color-bar" data-bar-slots="9" data-bar-marker-left="6" data-bar-marker-right="1"><g data-color-bar-rank="0" data-color-bar-band="G"><rect x="2" y="2" width="20" height="29.387" fill="#e7be00"/><text x="12" y="27.867" fill="#000000" font-size="16" text-anchor="middle" data-color-bar-letter="true">g</text></g><g data-color-bar-rank="1" data-color-bar-band="B"><rect x="2" y="31.387" width="20" height="31.208" fill="#2f3fbf"/><text x="12" y="59.075" fill="#ffffff" font-size="16" text-anchor="middle" data-color-bar-letter="true">b</text></g><g data-color-bar-rank="2" data-color-bar-band="K"><rect x="2" y="62.595" width="20" height="37.185" fill="#000000"/><text x="12" y="96.26" fill="#ffffff" font-size="16" text-anchor="middle" data-color-bar-letter="true">k</text></g><g data-color-bar-rank="3" data-color-bar-band="R"><rect x="2" y="99.78" width="20" height="12.22" fill="#ff3f2f"/><text x="12" y="108.48" fill="#000000" font-size="16" text-anchor="middle" data-color-bar-letter="true">r</text></g><circle cx="6.6" cy="81.444" r="3.4" fill="#ffffff" stroke="#000000" stroke-width="0.75" data-bar-marker="left"/><circle cx="17.4" cy="20.333" r="3.4" fill="#ffffff" stroke="#000000" stroke-width="0.75" data-bar-marker="right"/></g><g data-channel="label-top"><text x="28" y="17" fill="#666666" font-size="12" dominant-baseline="central">urn:example:...</text></g><line x1="1" y1="1.5" x2="154" y2="1.5" stroke="#808080" stroke-width="1" shape-rendering="crispEdges"/><line x1="153.5" y1="1" x2="153.5" y2="113" stroke="#808080" stroke-width="1" shape-rendering="crispEdges"/><line x1="1" y1="112.5" x2="154" y2="112.5" stroke="#808080" stroke-width="1" shape-rendering="crispEdges"/><line x1="1.5" y1="1" x2="1.5" y2="113" stroke="#808080" stroke-width="1" shape-rendering="crispEdges"/><line x1="22.5" y1="1" x2="22.5" y2="113" stroke="#808080" stroke-width="1" shape-rendering="crispEdges"/></svg>