<svg width="213" height="192" viewBox="0 0 213 192" xmlns="http://www.w3.org/2000/svg" font-family="&quot;JetBrains Mono&quot;, &quot;Menlo&quot;, &quot;Consolas&quot;, &quot;DejaVu Sans Mono&quot;, &quot;Liberation Mono&quot;, &quot;Roboto Mono&quot;, &quot;Noto Sans Mono&quot;, monospace" data-entviz-version="v11" data-entviz-lib="0.11.0" data-input-bytes="54" data-cols="3" data-rows="4"><defs><clipPath id="grid-clip-dd13ad3ef8405675-3x4"><rect x="27" y="26" width="180" height="160"/></clipPath></defs><rect x="0" y="0" width="213" height="192" fill="#ffffff"/><g data-channel="grid"><rect x="27" y="26" width="180" height="160" fill="#2f3fbf"/><g><path fill="#e7be00" d="M27 26h6v10h-6zM39 26h6v10h-6zM45 26h6v10h-6zM57 26h6v10h-6zM69 26h6v10h-6zM75 26h6v10h-6zM81 26h6v10h-6zM81 56h6v10h-6zM57 56h6v10h-6zM45 56h6v10h-6zM39 56h6v10h-6zM33 56h6v10h-6zM27 46h6v10h-6zM27 36h6v10h-6z"/><path fill="#000000" d="M123 26h6v10h-6zM141 46h6v10h-6zM141 56h6v10h-6zM135 56h6v10h-6zM129 56h6v10h-6zM123 56h6v10h-6zM111 56h6v10h-6zM105 56h6v10h-6zM99 56h6v10h-6zM93 56h6v10h-6zM87 56h6v10h-6z"/><path fill="#ff3f2f" d="M153 26h6v10h-6zM159 26h6v10h-6zM171 26h6v10h-6zM177 26h6v10h-6zM183 26h6v10h-6zM195 26h6v10h-6zM201 36h6v10h-6zM201 56h6v10h-6zM195 56h6v10h-6zM189 56h6v10h-6zM171 56h6v10h-6zM165 56h6v10h-6zM153 56h6v10h-6zM147 46h6v10h-6z"/><path fill="#e7be00" d="M27 66h6v10h-6zM39 66h6v10h-6zM45 66h6v10h-6zM75 66h6v10h-6zM81 76h6v10h-6zM81 96h6v10h-6zM69 96h6v10h-6zM51 96h6v10h-6zM39 96h6v10h-6zM33 96h6v10h-6zM27 96h6v10h-6zM27 86h6v10h-6z"/><path fill="#000000" d="M105 66h6v10h-6zM111 66h6v10h-6zM123 66h6v10h-6zM135 66h6v10h-6zM141 76h6v10h-6zM141 86h6v10h-6zM141 96h6v10h-6zM123 96h6v10h-6zM111 96h6v10h-6zM105 96h6v10h-6zM87 76h6v10h-6z"/><path fill="#ff3f2f" d="M147 66h6v10h-6zM165 66h6v10h-6zM171 66h6v10h-6zM177 66h6v10h-6zM183 66h6v10h-6zM189 66h6v10h-6zM195 66h6v10h-6zM201 86h6v10h-6zM189 96h6v10h-6zM183 96h6v10h-6zM177 96h6v10h-6zM171 96h6v10h-6zM153 96h6v10h-6zM147 96h6v10h-6zM147 76h6v10h-6z"/><path fill="#ffffff" d="M27 106h6v10h-6zM33 106h6v10h-6zM45 106h6v10h-6zM57 106h6v10h-6zM63 106h6v10h-6zM69 106h6v10h-6zM81 116h6v10h-6zM81 126h6v10h-6zM69 136h6v10h-6zM63 136h6v10h-6zM51 136h6v10h-6zM33 136h6v10h-6zM27 126h6v10h-6z"/><path fill="#e7be00" d="M87 106h6v10h-6zM93 106h6v10h-6zM99 106h6v10h-6zM105 106h6v10h-6zM141 106h6v10h-6zM141 116h6v10h-6zM141 126h6v10h-6zM135 136h6v10h-6zM123 136h6v10h-6zM117 136h6v10h-6zM105 136h6v10h-6zM87 126h6v10h-6zM87 116h6v10h-6z"/><path fill="#ff3f2f" d="M147 106h6v10h-6zM153 106h6v10h-6zM159 106h6v10h-6zM165 106h6v10h-6zM171 106h6v10h-6zM177 106h6v10h-6zM183 106h6v10h-6zM189 106h6v10h-6zM195 106h6v10h-6zM201 116h6v10h-6zM201 126h6v10h-6zM201 136h6v10h-6zM195 136h6v10h-6zM189 136h6v10h-6zM183 136h6v10h-6zM177 136h6v10h-6zM171 136h6v10h-6zM165 136h6v10h-6zM147 136h6v10h-6z"/><path fill="#e7be00" d="M39 146h6v10h-6zM51 146h6v10h-6zM63 146h6v10h-6zM69 146h6v10h-6zM81 166h6v10h-6zM81 176h6v10h-6zM75 176h6v10h-6zM69 176h6v10h-6zM57 176h6v10h-6z"/><path fill="#000000" d="M87 146h6v10h-6zM93 146h6v10h-6zM99 146h6v10h-6zM129 146h6v10h-6zM135 146h6v10h-6zM141 156h6v10h-6zM141 166h6v10h-6zM135 176h6v10h-6zM123 176h6v10h-6zM111 176h6v10h-6zM105 176h6v10h-6zM93 176h6v10h-6z"/><path fill="#ff3f2f" d="M147 146h6v10h-6zM165 146h6v10h-6zM177 146h6v10h-6zM183 146h6v10h-6zM189 146h6v10h-6zM201 156h6v10h-6zM201 166h6v10h-6zM159 176h6v10h-6zM147 166h6v10h-6zM147 156h6v10h-6z"/></g><g clip-path="url(#grid-clip-dd13ad3ef8405675-3x4)" data-channel="ellipse" data-ellipse-anchor-x="87" data-ellipse-anchor-y="66" data-ellipse-rx="82.138" data-ellipse-ry="94.356" data-ellipse-rotation-deg="84"><ellipse cx="87" cy="66" rx="82.138" ry="94.356" transform="rotate(84 87 66)" fill="#ffffff" stroke="#ffffff" fill-opacity="0.35" stroke-opacity="0.45" stroke-width="2"/></g><g><g data-channel="cell" data-cell-index="0" data-cell-row="0" data-cell-col="0" data-surround-bits="0xdd13ad" data-edge-color="#e7be00"><rect x="33" y="36" width="48" height="20" fill="#a52012"/><text x="57" y="46" fill="#ffffff" font-size="16" text-anchor="middle" dominant-baseline="central">EiCl</text></g><g data-channel="cell" data-cell-index="1" data-cell-row="0" data-cell-col="1" data-surround-bits="0x3ef840" data-edge-color="#000000"><rect x="93" y="36" width="48" height="20" fill="#039391"/><text x="117" y="46" fill="#ffffff" font-size="16" text-anchor="middle" dominant-baseline="central">kZMD</text></g><g data-channel="cell" data-cell-index="2" data-cell-row="0" data-cell-col="2" data-surround-bits="0x567576" data-edge-color="#ff3f2f" data-cell-quartile="1"><rect x="153" y="36" width="48" height="20" fill="#aaf2c4"/><text x="177" y="46" fill="#000000" font-size="16" text-anchor="middle" dominant-baseline="central">xPKq</text><polygon points="153,36 163,36 153,46" fill="#000000"/></g><g data-channel="cell" data-cell-index="3" data-cell-row="1" data-cell-col="0" data-surround-bits="0x7a550d" data-edge-color="#e7be00"><rect x="33" y="76" width="48" height="20" fill="#3ed70b"/><text x="57" y="86" fill="#000000" font-size="16" text-anchor="middle" dominant-baseline="central">C9c-</text></g><g data-channel="cell" data-cell-index="4" data-cell-row="1" data-cell-col="1" data-surround-bits="0x869d58" data-edge-color="#000000"><rect x="93" y="76" width="48" height="20" fill="#1f64ba"/><text x="117" y="86" fill="#ffffff" font-size="16" text-anchor="middle" dominant-baseline="central">umQf</text></g><g data-channel="cell" data-cell-index="5" data-cell-row="1" data-cell-col="2" data-surround-bits="0xb3c9f9" data-edge-color="#ff3f2f"><rect x="153" y="76" width="48" height="20" fill="#7c444e"/><text x="177" y="86" fill="#ffffff" font-size="16" text-anchor="middle" dominant-baseline="central">TkR8</text></g><g data-channel="cell" data-cell-index="6" data-cell-row="2" data-cell-col="0" data-surround-bits="0x52cceb" data-edge-color="#ffffff"><rect x="33" y="116" width="48" height="20" fill="#7df6be"/><text x="57" y="126" fill="#000000" font-size="16" text-anchor="middle" dominant-baseline="central">vvZ9</text></g><g data-channel="cell" data-cell-index="7" data-cell-row="2" data-cell-col="1" data-surround-bits="0xc5ae0f" data-edge-color="#e7be00"><rect x="93" y="116" width="48" height="20" fill="#65f824"/><text x="117" y="126" fill="#000000" font-size="16" text-anchor="middle" dominant-baseline="central">JPhl</text></g><g data-channel="cell" data-cell-index="8" data-cell-row="2" data-cell-col="2" data-surround-bits="0x27fdff" data-edge-color="#ff3f2f"><rect x="153" y="116" width="48" height="20" fill="#c312ff"/><text x="177" y="126" fill="#000000" font-size="16" text-anchor="middle" dominant-baseline="central">_xLD</text></g><g data-channel="cell" data-cell-index="9" data-cell-row="3" data-cell-col="0" data-surround-bits="0x178d4" data-edge-color="#e7be00" data-cell-quartile="3"><rect x="33" y="156" width="48" height="20" fill="#5fd323"/><text x="57" y="166" fill="#000000" font-size="16" text-anchor="middle" dominant-baseline="central">I9Nf</text><polygon points="81,176 81,166 71,176" fill="#000000"/></g><g data-channel="cell" data-cell-index="10" data-cell-row="3" data-cell-col="1" data-surround-bits="0x16ad87" data-edge-color="#000000" data-cell-quartile="2"><rect x="93" y="156" width="48" height="20" fill="#307f93"/><text x="117" y="166" fill="#ffffff" font-size="16" text-anchor="middle" dominant-baseline="central">k38w</text><polygon points="141,156 131,156 141,166" fill="#ffffff"/></g><g data-channel="cell" data-cell-index="11" data-cell-row="3" data-cell-col="2" data-surround-bits="0xc80ce9" data-edge-color="#ff3f2f" data-cell-quartile="4"><rect x="153" y="156" width="48" height="20" fill="#700ee7"/><text x="177" y="166" fill="#ffffff" font-size="16" text-anchor="middle" dominant-baseline="central">5w</text><polygon points="153,176 153,166 163,176" fill="#ffffff"/></g></g></g><g data-channel="color-bar" data-bar-slots="15" data-bar-marker-left="0" data-bar-marker-right="14"><g data-color-bar-rank="0" data-color-bar-band="G"><rect x="1" y="1" width="20" height="64.694" fill="#e7be00"/><text x="11" y="62.174" fill="#000000" font-size="16" text-anchor="middle" data-color-bar-letter="true">g</text></g><g data-color-bar-rank="1" data-color-bar-band="K"><rect x="1" y="65.694" width="20" height="54.297" fill="#000000"/><text x="11" y="116.471" fill="#ffffff" font-size="16" text-anchor="middle" data-color-bar-letter="true">k</text></g><g data-color-bar-rank="2" data-color-bar-band="W"><rect x="1" y="119.991" width="20" height="48.098" fill="#ffffff"/><text x="11" y="164.569" fill="#000000" font-size="16" text-anchor="middle" data-color-bar-letter="true">w</text></g><g data-color-bar-rank="3" data-color-bar-band="R"><rect x="1" y="168.089" width="20" height="22.911" fill="#ff3f2f"/><text x="11" y="187.48" fill="#000000" font-size="16" text-anchor="middle" data-color-bar-letter="true">r</text></g><circle cx="5.6" cy="7.333" r="3.4" fill="#ffffff" stroke="#000000" stroke-width="0.75" data-bar-marker="left"/><circle cx="16.4" cy="184.667" r="3.4" fill="#ffffff" stroke="#000000" stroke-width="0.75" data-bar-marker="right"/></g><g data-channel="label-top"><text x="27" y="16" fill="#666666" font-size="12" dominant-baseline="central">did:ion:...</text></g><line x1="0" y1="0.5" x2="213" y2="0.5" stroke="#808080" stroke-width="1" shape-rendering="crispEdges"/><line x1="212.5" y1="0" x2="212.5" y2="192" stroke="#808080" stroke-width="1" shape-rendering="crispEdges"/><line x1="0" y1="191.5" x2="213" y2="191.5" stroke="#808080" stroke-width="1" shape-rendering="crispEdges"/><line x1="0.5" y1="0" x2="0.5" y2="192" stroke="#808080" stroke-width="1" shape-rendering="crispEdges"/><line x1="21.5" y1="0" x2="21.5" y2="192" stroke="#808080" stroke-width="1" shape-rendering="crispEdges"/></svg>