<svg width="153" height="112" viewBox="0 0 153 112" xmlns="http://www.w3.org/2000/svg" font-family="&quot;JetBrains Mono&quot;, &quot;Menlo&quot;, &quot;Consolas&quot;, &quot;DejaVu Sans Mono&quot;, &quot;Liberation Mono&quot;, &quot;Roboto Mono&quot;, &quot;Noto Sans Mono&quot;, monospace" data-entviz-version="v11" data-entviz-lib="0.10.0" data-input-bytes="19" data-cols="2" data-rows="2"><defs><clipPath id="grid-clip-83b916741be51a71-2x2"><rect x="27" y="26" width="120" height="80"/></clipPath></defs><rect x="0" y="0" width="153" height="112" fill="#ffffff"/><g data-channel="grid"><rect x="27" y="26" width="120" height="80" fill="#e7be00"/><g><path fill="#2f3fbf" d="M33 26h6v10h-6zM39 26h6v10h-6zM51 26h6v10h-6zM75 26h6v10h-6zM81 46h6v10h-6zM81 56h6v10h-6zM75 56h6v10h-6zM63 56h6v10h-6zM57 56h6v10h-6zM51 56h6v10h-6zM27 36h6v10h-6z"/><path fill="#2f3fbf" d="M27 66h6v10h-6zM39 66h6v10h-6zM57 66h6v10h-6zM63 66h6v10h-6zM69 66h6v10h-6zM75 66h6v10h-6zM81 66h6v10h-6zM81 86h6v10h-6zM81 96h6v10h-6zM45 96h6v10h-6zM33 96h6v10h-6zM27 96h6v10h-6zM27 86h6v10h-6z"/><path fill="#ff3f2f" d="M87 66h6v10h-6zM117 66h6v10h-6zM135 66h6v10h-6zM141 96h6v10h-6zM135 96h6v10h-6zM129 96h6v10h-6zM111 96h6v10h-6zM99 96h6v10h-6zM93 96h6v10h-6z"/></g><g clip-path="url(#grid-clip-83b916741be51a71-2x2)" data-channel="ellipse" data-ellipse-anchor-x="27" data-ellipse-anchor-y="66" data-ellipse-rx="27.828" data-ellipse-ry="52.114" data-ellipse-rotation-deg="84"><ellipse cx="27" cy="66" rx="27.828" ry="52.114" transform="rotate(84 27 66)" fill="#000000" stroke="#000000" fill-opacity="0.2" stroke-opacity="0.3" stroke-width="2"/></g><g><g data-channel="cell" data-cell-index="0" data-cell-row="0" data-cell-col="0" data-surround-bits="0x83b916" data-edge-color="#2f3fbf" data-cell-quartile="1"><rect x="33" y="36" width="48" height="20" fill="#758ed3"/><text x="57" y="46" fill="#000000" font-size="16" text-anchor="middle" dominant-baseline="central">0451</text><polygon points="33,36 43,36 33,46" fill="#000000"/></g><g data-channel="cell" data-cell-index="1" data-cell-row="0" data-cell-col="1" data-cell-blank="true" data-cell-blank-map="true"><rect x="93" y="36" width="48" height="20" rx="10" ry="10" fill="#2f3fbf" stroke="#000000" stroke-width="1"/><circle cx="129" cy="51" r="3.5" fill="#ffffff" data-blank-map-min="1,1"/><path d="M 100.8,41 H 109.2 M 105,36.8 V 45.2" fill="none" stroke="#ffffff" stroke-width="1.925" stroke-linecap="butt" data-blank-map-max="0,0"/></g><g data-channel="cell" data-cell-index="2" data-cell-row="1" data-cell-col="0" data-surround-bits="0x741be5" data-edge-color="#2f3fbf" data-cell-quartile="3"><rect x="33" y="76" width="48" height="20" fill="#399de3"/><text x="57" y="86" fill="#000000" font-size="16" text-anchor="middle" dominant-baseline="central">4505</text><polygon points="81,96 81,86 71,96" fill="#000000"/></g><g data-channel="cell" data-cell-index="3" data-cell-row="1" data-cell-col="1" data-surround-bits="0x1a7121" data-edge-color="#ff3f2f" data-cell-quartile="2"><rect x="93" y="76" width="48" height="20" fill="#b77ddb"/><text x="117" y="86" fill="#000000" font-size="16" text-anchor="middle" dominant-baseline="central">23</text><polygon points="141,76 131,76 141,86" fill="#000000"/></g></g></g><g data-channel="color-bar" data-bar-slots="9" data-bar-marker-left="6" data-bar-marker-right="5"><g data-color-bar-rank="0" data-color-bar-band="K"><rect x="1" y="1" width="20" height="16.303" fill="#000000"/><text x="11" y="13.783" fill="#ffffff" font-size="16" text-anchor="middle" data-color-bar-letter="true">k</text></g><g data-color-bar-rank="1" data-color-bar-band="W"><rect x="1" y="17.303" width="20" height="31.122" fill="#ffffff"/><text x="11" y="44.906" fill="#000000" font-size="16" text-anchor="middle" data-color-bar-letter="true">w</text></g><g data-color-bar-rank="2" data-color-bar-band="B"><rect x="1" y="48.426" width="20" height="18.715" fill="#2f3fbf"/><text x="11" y="63.62" fill="#ffffff" font-size="16" text-anchor="middle" data-color-bar-letter="true">b</text></g><g data-color-bar-rank="3" data-color-bar-band="R"><rect x="1" y="67.14" width="20" height="43.86" fill="#ff3f2f"/><text x="11" y="107.48" fill="#000000" font-size="16" text-anchor="middle" data-color-bar-letter="true">r</text></g><circle cx="5.6" cy="80.444" r="3.4" fill="#ffffff" stroke="#000000" stroke-width="0.75" data-bar-marker="left"/><circle cx="16.4" cy="68.222" r="3.4" fill="#ffffff" stroke="#000000" stroke-width="0.75" data-bar-marker="right"/></g><g data-channel="label-top"><text x="27" y="16" fill="#666666" font-size="12" dominant-baseline="central">urn:isbn:...</text></g><line x1="0" y1="0.5" x2="153" y2="0.5" stroke="#808080" stroke-width="1" shape-rendering="crispEdges"/><line x1="152.5" y1="0" x2="152.5" y2="112" stroke="#808080" stroke-width="1" shape-rendering="crispEdges"/><line x1="0" y1="111.5" x2="153" y2="111.5" stroke="#808080" stroke-width="1" shape-rendering="crispEdges"/><line x1="0.5" y1="0" x2="0.5" y2="112" stroke="#808080" stroke-width="1" shape-rendering="crispEdges"/><line x1="21.5" y1="0" x2="21.5" y2="112" stroke="#808080" stroke-width="1" shape-rendering="crispEdges"/></svg>