<svg width="155" height="114" viewBox="0 0 155 114" xmlns="http://www.w3.org/2000/svg" font-family="&quot;JetBrains Mono&quot;, &quot;Menlo&quot;, &quot;Consolas&quot;, &quot;DejaVu Sans Mono&quot;, &quot;Liberation Mono&quot;, &quot;Roboto Mono&quot;, &quot;Noto Sans Mono&quot;, monospace" data-entviz-version="v13" data-entviz-lib="0.13.0" data-input-bytes="19" data-cols="2" data-rows="2" data-encoding="base64url" data-scheme="urn" data-role="identifier" data-size-basis="utf8" data-entropy-type="urn" data-size-bits="80" data-qualifiers="{&quot;nid&quot;:&quot;isbn&quot;}" data-parts="[{&quot;text&quot;:&quot;urn:isbn:&quot;,&quot;bind&quot;:&quot;fold&quot;},{&quot;text&quot;:&quot;0451450523&quot;,&quot;bind&quot;:&quot;core&quot;}]"><defs><clipPath id="grid-clip-83b916741be51a71-2x2"><rect x="28" y="27" width="120" height="80"/></clipPath></defs><rect x="1" y="1" width="153" height="112" fill="#ffffff"/><g data-channel="grid"><rect x="28" y="27" width="120" height="80" fill="#e7be00"/><g><path fill="#2f3fbf" d="M34 27h6v10h-6zM40 27h6v10h-6zM52 27h6v10h-6zM76 27h6v10h-6zM82 47h6v10h-6zM82 57h6v10h-6zM76 57h6v10h-6zM64 57h6v10h-6zM58 57h6v10h-6zM52 57h6v10h-6zM28 37h6v10h-6z"/><path fill="#2f3fbf" d="M28 67h6v10h-6zM40 67h6v10h-6zM58 67h6v10h-6zM64 67h6v10h-6zM70 67h6v10h-6zM76 67h6v10h-6zM82 67h6v10h-6zM82 87h6v10h-6zM82 97h6v10h-6zM46 97h6v10h-6zM34 97h6v10h-6zM28 97h6v10h-6zM28 87h6v10h-6z"/><path fill="#ff3f2f" d="M88 67h6v10h-6zM118 67h6v10h-6zM136 67h6v10h-6zM142 97h6v10h-6zM136 97h6v10h-6zM130 97h6v10h-6zM112 97h6v10h-6zM100 97h6v10h-6zM94 97h6v10h-6z"/></g><g clip-path="url(#grid-clip-83b916741be51a71-2x2)" data-channel="ellipse" data-ellipse-anchor-x="28" data-ellipse-anchor-y="67" data-ellipse-rx="27.828" data-ellipse-ry="52.114" data-ellipse-rotation-deg="84"><ellipse cx="28" cy="67" rx="27.828" ry="52.114" transform="rotate(84 28 67)" fill="#000000" stroke="#000000" fill-opacity="0.2" stroke-opacity="0.3" stroke-width="2"/></g><g><g data-channel="cell" data-cell-index="0" data-cell-row="0" data-cell-col="0" data-surround-bits="0x83b916" data-edge-color="#2f3fbf" data-cell-quartile="1"><rect x="34" y="37" width="48" height="20" fill="#758ed3"/><text x="58" y="47" fill="#000000" font-size="16" text-anchor="middle" dominant-baseline="central">0451</text><polygon points="34,37 44,37 34,47" fill="#000000"/></g><g data-channel="cell" data-cell-index="1" data-cell-row="0" data-cell-col="1" data-cell-blank="true" data-cell-blank-map="true"><rect x="94" y="37" width="48" height="20" rx="10" ry="10" fill="#2f3fbf" stroke="#000000" stroke-width="1"/><circle cx="130" cy="52" r="3.5" fill="#ffffff" data-blank-map-min="1,1"/><path d="M 101.8,42 H 110.2 M 106,37.8 V 46.2" fill="none" stroke="#ffffff" stroke-width="1.925" stroke-linecap="butt" data-blank-map-max="0,0"/></g><g data-channel="cell" data-cell-index="2" data-cell-row="1" data-cell-col="0" data-surround-bits="0x741be5" data-edge-color="#2f3fbf" data-cell-quartile="3"><rect x="34" y="77" width="48" height="20" fill="#399de3"/><text x="58" y="87" fill="#000000" font-size="16" text-anchor="middle" dominant-baseline="central">4505</text><polygon points="82,97 82,87 72,97" fill="#000000"/></g><g data-channel="cell" data-cell-index="3" data-cell-row="1" data-cell-col="1" data-surround-bits="0x1a7121" data-edge-color="#ff3f2f" data-cell-quartile="2"><rect x="94" y="77" width="48" height="20" fill="#b77ddb"/><text x="118" y="87" fill="#000000" font-size="16" text-anchor="middle" dominant-baseline="central">23</text><polygon points="142,77 132,77 142,87" fill="#000000"/></g></g></g><g data-channel="color-bar" data-bar-slots="9" data-bar-marker-left="6" data-bar-marker-right="5"><g data-color-bar-rank="0" data-color-bar-band="K"><rect x="2" y="2" width="20" height="16.303" fill="#000000"/><text x="12" y="14.783" fill="#ffffff" font-size="16" text-anchor="middle" data-color-bar-letter="true">k</text></g><g data-color-bar-rank="1" data-color-bar-band="W"><rect x="2" y="18.303" width="20" height="31.122" fill="#ffffff"/><text x="12" y="45.906" fill="#000000" font-size="16" text-anchor="middle" data-color-bar-letter="true">w</text></g><g data-color-bar-rank="2" data-color-bar-band="B"><rect x="2" y="49.426" width="20" height="18.715" fill="#2f3fbf"/><text x="12" y="64.62" fill="#ffffff" font-size="16" text-anchor="middle" data-color-bar-letter="true">b</text></g><g data-color-bar-rank="3" data-color-bar-band="R"><rect x="2" y="68.14" width="20" height="43.86" fill="#ff3f2f"/><text x="12" y="108.48" fill="#000000" font-size="16" text-anchor="middle" data-color-bar-letter="true">r</text></g><circle cx="6.6" cy="81.444" r="3.4" fill="#ffffff" stroke="#000000" stroke-width="0.75" data-bar-marker="left"/><circle cx="17.4" cy="69.222" r="3.4" fill="#ffffff" stroke="#000000" stroke-width="0.75" data-bar-marker="right"/></g><g data-channel="label-top"><text x="28" y="17" fill="#666666" font-size="12" dominant-baseline="central">urn:isbn:...</text></g><line x1="1" y1="1.5" x2="154" y2="1.5" stroke="#808080" stroke-width="1" shape-rendering="crispEdges"/><line x1="153.5" y1="1" x2="153.5" y2="113" stroke="#808080" stroke-width="1" shape-rendering="crispEdges"/><line x1="1" y1="112.5" x2="154" y2="112.5" stroke="#808080" stroke-width="1" shape-rendering="crispEdges"/><line x1="1.5" y1="1" x2="1.5" y2="113" stroke="#808080" stroke-width="1" shape-rendering="crispEdges"/><line x1="22.5" y1="1" x2="22.5" y2="113" stroke="#808080" stroke-width="1" shape-rendering="crispEdges"/></svg>