<svg width="205.0" height="158.0" xmlns="http://www.w3.org/2000/svg"><defs><linearGradient id="g0" gradientUnits="userSpaceOnUse" x1="28.0" y1="13.0" x2="28.0" y2="5.0"><stop offset="0%" stop-color="#aaaaaa"/><stop offset="100%" stop-color="#2f3fbf"/></linearGradient><linearGradient id="g1" gradientUnits="userSpaceOnUse" x1="52.0" y1="13.0" x2="52.0" y2="5.0"><stop offset="0%" stop-color="#aaaaaa"/><stop offset="100%" stop-color="#ffffff"/></linearGradient><linearGradient id="g2" gradientUnits="userSpaceOnUse" x1="64.0" y1="21.0" x2="72.0" y2="21.0"><stop offset="0%" stop-color="#aaaaaa"/><stop offset="100%" stop-color="#000000"/></linearGradient><linearGradient id="g3" gradientUnits="userSpaceOnUse" x1="52.0" y1="29.0" x2="52.0" y2="37.0"><stop offset="0%" stop-color="#aaaaaa"/><stop offset="100%" stop-color="#2f3fbf"/></linearGradient><linearGradient id="g4" gradientUnits="userSpaceOnUse" x1="28.0" y1="29.0" x2="28.0" y2="37.0"><stop offset="0%" stop-color="#aaaaaa"/><stop offset="100%" stop-color="#ffffff"/></linearGradient><linearGradient id="g5" gradientUnits="userSpaceOnUse" x1="16.0" y1="21.0" x2="8.0" y2="21.0"><stop offset="0%" stop-color="#aaaaaa"/><stop offset="100%" stop-color="#ffffff"/></linearGradient><linearGradient id="g6" gradientUnits="userSpaceOnUse" x1="156.0" y1="13.0" x2="156.0" y2="5.0"><stop offset="0%" stop-color="#aaaaaa"/><stop offset="100%" stop-color="#ffffff"/></linearGradient><linearGradient id="g7" gradientUnits="userSpaceOnUse" x1="180.0" y1="13.0" x2="180.0" y2="5.0"><stop offset="0%" stop-color="#aaaaaa"/><stop offset="100%" stop-color="#000000"/></linearGradient><linearGradient id="g8" gradientUnits="userSpaceOnUse" x1="192.0" y1="21.0" x2="200.0" y2="21.0"><stop offset="0%" stop-color="#aaaaaa"/><stop offset="100%" stop-color="#000000"/></linearGradient><linearGradient id="g9" gradientUnits="userSpaceOnUse" x1="180.0" y1="29.0" x2="180.0" y2="37.0"><stop offset="0%" stop-color="#aaaaaa"/><stop offset="100%" stop-color="#000000"/></linearGradient><linearGradient id="g10" gradientUnits="userSpaceOnUse" x1="156.0" y1="29.0" x2="156.0" y2="37.0"><stop offset="0%" stop-color="#aaaaaa"/><stop offset="100%" stop-color="#2f3fbf"/></linearGradient><linearGradient id="g11" gradientUnits="userSpaceOnUse" x1="144.0" y1="21.0" x2="136.0" y2="21.0"><stop offset="0%" stop-color="#aaaaaa"/><stop offset="100%" stop-color="#000000"/></linearGradient><linearGradient id="g12" gradientUnits="userSpaceOnUse" x1="28.0" y1="45.0" x2="28.0" y2="37.0"><stop offset="0%" stop-color="#aaaaaa"/><stop offset="100%" stop-color="#ffffff"/></linearGradient><linearGradient id="g13" gradientUnits="userSpaceOnUse" x1="52.0" y1="45.0" x2="52.0" y2="37.0"><stop offset="0%" stop-color="#aaaaaa"/><stop offset="100%" stop-color="#ffd966"/></linearGradient><linearGradient id="g14" gradientUnits="userSpaceOnUse" x1="64.0" y1="53.0" x2="72.0" y2="53.0"><stop offset="0%" stop-color="#aaaaaa"/><stop offset="100%" stop-color="#ffffff"/></linearGradient><linearGradient id="g15" gradientUnits="userSpaceOnUse" x1="52.0" y1="61.0" x2="52.0" y2="69.0"><stop offset="0%" stop-color="#aaaaaa"/><stop offset="100%" stop-color="#2f3fbf"/></linearGradient><linearGradient id="g16" gradientUnits="userSpaceOnUse" x1="28.0" y1="61.0" x2="28.0" y2="69.0"><stop offset="0%" stop-color="#aaaaaa"/><stop offset="100%" stop-color="#2f3fbf"/></linearGradient><linearGradient id="g17" gradientUnits="userSpaceOnUse" x1="16.0" y1="53.0" x2="8.0" y2="53.0"><stop offset="0%" stop-color="#aaaaaa"/><stop offset="100%" stop-color="#2f3fbf"/></linearGradient><linearGradient id="g18" gradientUnits="userSpaceOnUse" x1="92.0" y1="45.0" x2="92.0" y2="37.0"><stop offset="0%" stop-color="#aaaaaa"/><stop offset="100%" stop-color="#ffffff"/></linearGradient><linearGradient id="g19" gradientUnits="userSpaceOnUse" x1="116.0" y1="45.0" x2="116.0" y2="37.0"><stop offset="0%" stop-color="#aaaaaa"/><stop offset="100%" stop-color="#ffd966"/></linearGradient><linearGradient id="g20" gradientUnits="userSpaceOnUse" x1="128.0" y1="53.0" x2="136.0" y2="53.0"><stop offset="0%" stop-color="#aaaaaa"/><stop offset="100%" stop-color="#ffd966"/></linearGradient><linearGradient id="g21" gradientUnits="userSpaceOnUse" x1="116.0" y1="61.0" x2="116.0" y2="69.0"><stop offset="0%" stop-color="#aaaaaa"/><stop offset="100%" stop-color="#000000"/></linearGradient><linearGradient id="g22" gradientUnits="userSpaceOnUse" x1="92.0" y1="61.0" x2="92.0" y2="69.0"><stop offset="0%" stop-color="#aaaaaa"/><stop offset="100%" stop-color="#000000"/></linearGradient><linearGradient id="g23" gradientUnits="userSpaceOnUse" x1="80.0" y1="53.0" x2="72.0" y2="53.0"><stop offset="0%" stop-color="#aaaaaa"/><stop offset="100%" stop-color="#ffd966"/></linearGradient><linearGradient id="g24" gradientUnits="userSpaceOnUse" x1="156.0" y1="45.0" x2="156.0" y2="37.0"><stop offset="0%" stop-color="#aaaaaa"/><stop offset="100%" stop-color="#000000"/></linearGradient><linearGradient id="g25" gradientUnits="userSpaceOnUse" x1="180.0" y1="45.0" x2="180.0" y2="37.0"><stop offset="0%" stop-color="#aaaaaa"/><stop offset="100%" stop-color="#ffd966"/></linearGradient><linearGradient id="g26" gradientUnits="userSpaceOnUse" x1="192.0" y1="53.0" x2="200.0" y2="53.0"><stop offset="0%" stop-color="#aaaaaa"/><stop offset="100%" stop-color="#000000"/></linearGradient><linearGradient id="g27" gradientUnits="userSpaceOnUse" x1="180.0" y1="61.0" x2="180.0" y2="69.0"><stop offset="0%" stop-color="#aaaaaa"/><stop offset="100%" stop-color="#2f3fbf"/></linearGradient><linearGradient id="g28" gradientUnits="userSpaceOnUse" x1="156.0" y1="61.0" x2="156.0" y2="69.0"><stop offset="0%" stop-color="#aaaaaa"/><stop offset="100%" stop-color="#000000"/></linearGradient><linearGradient id="g29" gradientUnits="userSpaceOnUse" x1="144.0" y1="53.0" x2="136.0" y2="53.0"><stop offset="0%" stop-color="#aaaaaa"/><stop offset="100%" stop-color="#000000"/></linearGradient><linearGradient id="g30" gradientUnits="userSpaceOnUse" x1="28.0" y1="77.0" x2="28.0" y2="69.0"><stop offset="0%" stop-color="#aaaaaa"/><stop offset="100%" stop-color="#000000"/></linearGradient><linearGradient id="g31" gradientUnits="userSpaceOnUse" x1="52.0" y1="77.0" x2="52.0" y2="69.0"><stop offset="0%" stop-color="#aaaaaa"/><stop offset="100%" stop-color="#ffffff"/></linearGradient><linearGradient id="g32" gradientUnits="userSpaceOnUse" x1="64.0" y1="85.0" x2="72.0" y2="85.0"><stop offset="0%" stop-color="#aaaaaa"/><stop offset="100%" stop-color="#2f3fbf"/></linearGradient><linearGradient id="g33" gradientUnits="userSpaceOnUse" x1="52.0" y1="93.0" x2="52.0" y2="101.0"><stop offset="0%" stop-color="#aaaaaa"/><stop offset="100%" stop-color="#ffd966"/></linearGradient><linearGradient id="g34" gradientUnits="userSpaceOnUse" x1="28.0" y1="93.0" x2="28.0" y2="101.0"><stop offset="0%" stop-color="#aaaaaa"/><stop offset="100%" stop-color="#000000"/></linearGradient><linearGradient id="g35" gradientUnits="userSpaceOnUse" x1="16.0" y1="85.0" x2="8.0" y2="85.0"><stop offset="0%" stop-color="#aaaaaa"/><stop offset="100%" stop-color="#ffffff"/></linearGradient><linearGradient id="g36" gradientUnits="userSpaceOnUse" x1="92.0" y1="77.0" x2="92.0" y2="69.0"><stop offset="0%" stop-color="#aaaaaa"/><stop offset="100%" stop-color="#2f3fbf"/></linearGradient><linearGradient id="g37" gradientUnits="userSpaceOnUse" x1="116.0" y1="77.0" x2="116.0" y2="69.0"><stop offset="0%" stop-color="#aaaaaa"/><stop offset="100%" stop-color="#ffffff"/></linearGradient><linearGradient id="g38" gradientUnits="userSpaceOnUse" x1="128.0" y1="85.0" x2="136.0" y2="85.0"><stop offset="0%" stop-color="#aaaaaa"/><stop offset="100%" stop-color="#ffffff"/></linearGradient><linearGradient id="g39" gradientUnits="userSpaceOnUse" x1="116.0" y1="93.0" x2="116.0" y2="101.0"><stop offset="0%" stop-color="#aaaaaa"/><stop offset="100%" stop-color="#ffd966"/></linearGradient><linearGradient id="g40" gradientUnits="userSpaceOnUse" x1="92.0" y1="93.0" x2="92.0" y2="101.0"><stop offset="0%" stop-color="#aaaaaa"/><stop offset="100%" stop-color="#ffffff"/></linearGradient><linearGradient id="g41" gradientUnits="userSpaceOnUse" x1="80.0" y1="85.0" x2="72.0" y2="85.0"><stop offset="0%" stop-color="#aaaaaa"/><stop offset="100%" stop-color="#ffd966"/></linearGradient><linearGradient id="g42" gradientUnits="userSpaceOnUse" x1="156.0" y1="77.0" x2="156.0" y2="69.0"><stop offset="0%" stop-color="#aaaaaa"/><stop offset="100%" stop-color="#000000"/></linearGradient><linearGradient id="g43" gradientUnits="userSpaceOnUse" x1="180.0" y1="77.0" x2="180.0" y2="69.0"><stop offset="0%" stop-color="#aaaaaa"/><stop offset="100%" stop-color="#2f3fbf"/></linearGradient><linearGradient id="g44" gradientUnits="userSpaceOnUse" x1="192.0" y1="85.0" x2="200.0" y2="85.0"><stop offset="0%" stop-color="#aaaaaa"/><stop offset="100%" stop-color="#2f3fbf"/></linearGradient><linearGradient id="g45" gradientUnits="userSpaceOnUse" x1="180.0" y1="93.0" x2="180.0" y2="101.0"><stop offset="0%" stop-color="#aaaaaa"/><stop offset="100%" stop-color="#000000"/></linearGradient><linearGradient id="g46" gradientUnits="userSpaceOnUse" x1="156.0" y1="93.0" x2="156.0" y2="101.0"><stop offset="0%" stop-color="#aaaaaa"/><stop offset="100%" stop-color="#2f3fbf"/></linearGradient><linearGradient id="g47" gradientUnits="userSpaceOnUse" x1="144.0" y1="85.0" x2="136.0" y2="85.0"><stop offset="0%" stop-color="#aaaaaa"/><stop offset="100%" stop-color="#2f3fbf"/></linearGradient><linearGradient id="g48" gradientUnits="userSpaceOnUse" x1="28.0" y1="109.0" x2="28.0" y2="101.0"><stop offset="0%" stop-color="#aaaaaa"/><stop offset="100%" stop-color="#2f3fbf"/></linearGradient><linearGradient id="g49" gradientUnits="userSpaceOnUse" x1="52.0" y1="109.0" x2="52.0" y2="101.0"><stop offset="0%" stop-color="#aaaaaa"/><stop offset="100%" stop-color="#2f3fbf"/></linearGradient><linearGradient id="g50" gradientUnits="userSpaceOnUse" x1="64.0" y1="117.0" x2="72.0" y2="117.0"><stop offset="0%" stop-color="#aaaaaa"/><stop offset="100%" stop-color="#ffd966"/></linearGradient><linearGradient id="g51" gradientUnits="userSpaceOnUse" x1="52.0" y1="125.0" x2="52.0" y2="133.0"><stop offset="0%" stop-color="#aaaaaa"/><stop offset="100%" stop-color="#000000"/></linearGradient><linearGradient id="g52" gradientUnits="userSpaceOnUse" x1="28.0" y1="125.0" x2="28.0" y2="133.0"><stop offset="0%" stop-color="#aaaaaa"/><stop offset="100%" stop-color="#ffd966"/></linearGradient><linearGradient id="g53" gradientUnits="userSpaceOnUse" x1="16.0" y1="117.0" x2="8.0" y2="117.0"><stop offset="0%" stop-color="#aaaaaa"/><stop offset="100%" stop-color="#2f3fbf"/></linearGradient><linearGradient id="g54" gradientUnits="userSpaceOnUse" x1="92.0" y1="109.0" x2="92.0" y2="101.0"><stop offset="0%" stop-color="#aaaaaa"/><stop offset="100%" stop-color="#2f3fbf"/></linearGradient><linearGradient id="g55" gradientUnits="userSpaceOnUse" x1="116.0" y1="109.0" x2="116.0" y2="101.0"><stop offset="0%" stop-color="#aaaaaa"/><stop offset="100%" stop-color="#2f3fbf"/></linearGradient><linearGradient id="g56" gradientUnits="userSpaceOnUse" x1="128.0" y1="117.0" x2="136.0" y2="117.0"><stop offset="0%" stop-color="#aaaaaa"/><stop offset="100%" stop-color="#ffffff"/></linearGradient><linearGradient id="g57" gradientUnits="userSpaceOnUse" x1="116.0" y1="125.0" x2="116.0" y2="133.0"><stop offset="0%" stop-color="#aaaaaa"/><stop offset="100%" stop-color="#ffd966"/></linearGradient><linearGradient id="g58" gradientUnits="userSpaceOnUse" x1="92.0" y1="125.0" x2="92.0" y2="133.0"><stop offset="0%" stop-color="#aaaaaa"/><stop offset="100%" stop-color="#000000"/></linearGradient><linearGradient id="g59" gradientUnits="userSpaceOnUse" x1="80.0" y1="117.0" x2="72.0" y2="117.0"><stop offset="0%" stop-color="#aaaaaa"/><stop offset="100%" stop-color="#2f3fbf"/></linearGradient><linearGradient id="g60" gradientUnits="userSpaceOnUse" x1="156.0" y1="109.0" x2="156.0" y2="101.0"><stop offset="0%" stop-color="#aaaaaa"/><stop offset="100%" stop-color="#ffd966"/></linearGradient><linearGradient id="g61" gradientUnits="userSpaceOnUse" x1="180.0" y1="109.0" x2="180.0" y2="101.0"><stop offset="0%" stop-color="#aaaaaa"/><stop offset="100%" stop-color="#2f3fbf"/></linearGradient><linearGradient id="g62" gradientUnits="userSpaceOnUse" x1="192.0" y1="117.0" x2="200.0" y2="117.0"><stop offset="0%" stop-color="#aaaaaa"/><stop offset="100%" stop-color="#000000"/></linearGradient><linearGradient id="g63" gradientUnits="userSpaceOnUse" x1="180.0" y1="125.0" x2="180.0" y2="133.0"><stop offset="0%" stop-color="#aaaaaa"/><stop offset="100%" stop-color="#000000"/></linearGradient><linearGradient id="g64" gradientUnits="userSpaceOnUse" x1="156.0" y1="125.0" x2="156.0" y2="133.0"><stop offset="0%" stop-color="#aaaaaa"/><stop offset="100%" stop-color="#000000"/></linearGradient><linearGradient id="g65" gradientUnits="userSpaceOnUse" x1="144.0" y1="117.0" x2="136.0" y2="117.0"><stop offset="0%" stop-color="#aaaaaa"/><stop offset="100%" stop-color="#2f3fbf"/></linearGradient></defs><rect x="0" y="0" width="205.0" height="158.0" fill="#ffffff"/><rect x="8.0" y="5.0" width="192.0" height="128.0" fill="#ff3f2f"/><rect x="16.0" y="5.0" width="20.0" height="2.0" fill="url(#g0)"/><rect x="36.0" y="5.0" width="4.0" height="8.0" fill="url(#g0)"/><rect x="40.0" y="5.0" width="20.0" height="2.0" fill="url(#g1)"/><rect x="60.0" y="5.0" width="4.0" height="8.0" fill="url(#g1)"/><polygon points="64.0,13.0 72.0,13.0 64.0,29.0" fill="url(#g2)"/><rect x="40.0" y="29.0" width="24.0" height="8.0" fill="url(#g3)"/><rect x="20.0" y="35.0" width="20.0" height="2.0" fill="url(#g4)"/><rect x="16.0" y="29.0" width="4.0" height="8.0" fill="url(#g4)"/><rect x="8.0" y="17.0" width="8.0" height="8.0" fill="url(#g5)"/><polygon points="144.0,5.0 144.0,13.0 168.0,13.0" fill="url(#g6)"/><rect x="176.0" y="5.0" width="8.0" height="8.0" fill="url(#g7)"/><polygon points="192.0,13.0 200.0,13.0 192.0,29.0" fill="url(#g8)"/><rect x="176.0" y="29.0" width="8.0" height="8.0" fill="url(#g9)"/><rect x="148.0" y="35.0" width="20.0" height="2.0" fill="url(#g10)"/><rect x="144.0" y="29.0" width="4.0" height="8.0" fill="url(#g10)"/><rect x="136.0" y="17.0" width="8.0" height="8.0" fill="url(#g11)"/><polygon points="16.0,37.0 16.0,45.0 40.0,45.0" fill="url(#g12)"/><rect x="40.0" y="37.0" width="24.0" height="8.0" fill="url(#g13)"/><rect x="64.0" y="45.0" width="2.0" height="12.0" fill="url(#g14)"/><rect x="64.0" y="57.0" width="8.0" height="4.0" fill="url(#g14)"/><rect x="40.0" y="61.0" width="24.0" height="8.0" fill="url(#g15)"/><polygon points="16.0,61.0 40.0,61.0 40.0,69.0" fill="url(#g16)"/><rect x="8.0" y="45.0" width="8.0" height="16.0" fill="url(#g17)"/><polygon points="80.0,37.0 80.0,45.0 104.0,45.0" fill="url(#g18)"/><rect x="104.0" y="37.0" width="24.0" height="8.0" fill="url(#g19)"/><polygon points="128.0,45.0 136.0,45.0 128.0,61.0" fill="url(#g20)"/><rect x="104.0" y="61.0" width="24.0" height="8.0" fill="url(#g21)"/><rect x="88.0" y="61.0" width="8.0" height="8.0" fill="url(#g22)"/><polygon points="72.0,61.0 80.0,45.0 80.0,61.0" fill="url(#g23)"/><rect x="152.0" y="37.0" width="8.0" height="8.0" fill="url(#g24)"/><polygon points="168.0,37.0 168.0,45.0 192.0,45.0" fill="url(#g25)"/><rect x="192.0" y="45.0" width="8.0" height="16.0" fill="url(#g26)"/><rect x="168.0" y="61.0" width="24.0" height="8.0" fill="url(#g27)"/><rect x="144.0" y="61.0" width="24.0" height="8.0" fill="url(#g28)"/><polygon points="136.0,61.0 144.0,45.0 144.0,61.0" fill="url(#g29)"/><rect x="24.0" y="69.0" width="8.0" height="8.0" fill="url(#g30)"/><rect x="40.0" y="69.0" width="20.0" height="2.0" fill="url(#g31)"/><rect x="60.0" y="69.0" width="4.0" height="8.0" fill="url(#g31)"/><rect x="64.0" y="77.0" width="2.0" height="12.0" fill="url(#g32)"/><rect x="64.0" y="89.0" width="8.0" height="4.0" fill="url(#g32)"/><rect x="40.0" y="93.0" width="24.0" height="8.0" fill="url(#g33)"/><polygon points="16.0,93.0 40.0,93.0 40.0,101.0" fill="url(#g34)"/><rect x="14.0" y="81.0" width="2.0" height="12.0" fill="url(#g35)"/><rect x="8.0" y="77.0" width="8.0" height="4.0" fill="url(#g35)"/><rect x="88.0" y="69.0" width="8.0" height="8.0" fill="url(#g36)"/><rect x="112.0" y="69.0" width="8.0" height="8.0" fill="url(#g37)"/><rect x="128.0" y="81.0" width="8.0" height="8.0" fill="url(#g38)"/><rect x="108.0" y="99.0" width="20.0" height="2.0" fill="url(#g39)"/><rect x="104.0" y="93.0" width="4.0" height="8.0" fill="url(#g39)"/><rect x="88.0" y="93.0" width="8.0" height="8.0" fill="url(#g40)"/><rect x="78.0" y="81.0" width="2.0" height="12.0" fill="url(#g41)"/><rect x="72.0" y="77.0" width="8.0" height="4.0" fill="url(#g41)"/><rect x="144.0" y="69.0" width="24.0" height="8.0" fill="url(#g42)"/><rect x="168.0" y="69.0" width="20.0" height="2.0" fill="url(#g43)"/><rect x="188.0" y="69.0" width="4.0" height="8.0" fill="url(#g43)"/><polygon points="192.0,77.0 200.0,77.0 192.0,93.0" fill="url(#g44)"/><rect x="176.0" y="93.0" width="8.0" height="8.0" fill="url(#g45)"/><rect x="152.0" y="93.0" width="8.0" height="8.0" fill="url(#g46)"/><rect x="136.0" y="77.0" width="8.0" height="16.0" fill="url(#g47)"/><rect x="16.0" y="101.0" width="24.0" height="8.0" fill="url(#g48)"/><rect x="48.0" y="101.0" width="8.0" height="8.0" fill="url(#g49)"/><rect x="64.0" y="113.0" width="8.0" height="8.0" fill="url(#g50)"/><polygon points="40.0,125.0 64.0,125.0 64.0,133.0" fill="url(#g51)"/><polygon points="16.0,125.0 40.0,125.0 40.0,133.0" fill="url(#g52)"/><rect x="14.0" y="113.0" width="2.0" height="12.0" fill="url(#g53)"/><rect x="8.0" y="109.0" width="8.0" height="4.0" fill="url(#g53)"/><polygon points="80.0,101.0 80.0,109.0 104.0,109.0" fill="url(#g54)"/><rect x="112.0" y="101.0" width="8.0" height="8.0" fill="url(#g55)"/><rect x="128.0" y="109.0" width="8.0" height="16.0" fill="url(#g56)"/><polygon points="104.0,125.0 128.0,125.0 128.0,133.0" fill="url(#g57)"/><polygon points="80.0,125.0 104.0,125.0 104.0,133.0" fill="url(#g58)"/><rect x="72.0" y="109.0" width="8.0" height="16.0" fill="url(#g59)"/><rect x="152.0" y="101.0" width="8.0" height="8.0" fill="url(#g60)"/><rect x="176.0" y="101.0" width="8.0" height="8.0" fill="url(#g61)"/><polygon points="192.0,109.0 200.0,109.0 192.0,125.0" fill="url(#g62)"/><rect x="176.0" y="125.0" width="8.0" height="8.0" fill="url(#g63)"/><polygon points="144.0,125.0 168.0,125.0 168.0,133.0" fill="url(#g64)"/><rect x="142.0" y="113.0" width="2.0" height="12.0" fill="url(#g65)"/><rect x="136.0" y="109.0" width="8.0" height="4.0" fill="url(#g65)"/><rect x="16.0" y="13.0" width="48.0" height="16.0" fill="#aaaaaa"/><text x="40.0" y="21.0" fill="#ffffff" style="font-family: monospace; font-size: 16.0px;" text-anchor="middle" dominant-baseline="central">AAAAAA</text><rect x="144.0" y="13.0" width="48.0" height="16.0" fill="#aaaaaa"/><text x="168.0" y="21.0" fill="#ffffff" style="font-family: monospace; font-size: 16.0px;" text-anchor="middle" dominant-baseline="central">AAAAAA</text><rect x="16.0" y="45.0" width="48.0" height="16.0" fill="#aaaaaa"/><text x="40.0" y="53.0" fill="#ffffff" style="font-family: monospace; font-size: 16.0px;" text-anchor="middle" dominant-baseline="central">AAAAAA</text><rect x="80.0" y="45.0" width="48.0" height="16.0" fill="#aaaaaa"/><text x="104.0" y="53.0" fill="#ffffff" style="font-family: monospace; font-size: 16.0px;" text-anchor="middle" dominant-baseline="central">AAAAAA</text><rect x="144.0" y="45.0" width="48.0" height="16.0" fill="#aaaaaa"/><text x="168.0" y="53.0" fill="#ffffff" style="font-family: monospace; font-size: 16.0px;" text-anchor="middle" dominant-baseline="central">AAAAAA</text><rect x="16.0" y="77.0" width="48.0" height="16.0" fill="#aaaaaa"/><text x="40.0" y="85.0" fill="#ffffff" style="font-family: monospace; font-size: 16.0px;" text-anchor="middle" dominant-baseline="central">AAAAAA</text><rect x="80.0" y="77.0" width="48.0" height="16.0" fill="#aaaaaa"/><text x="104.0" y="85.0" fill="#ffffff" style="font-family: monospace; font-size: 16.0px;" text-anchor="middle" dominant-baseline="central">AAAAAA</text><rect x="144.0" y="77.0" width="48.0" height="16.0" fill="#aaaaaa"/><text x="168.0" y="85.0" fill="#ffffff" style="font-family: monospace; font-size: 16.0px;" text-anchor="middle" dominant-baseline="central">AAAAAA</text><rect x="16.0" y="109.0" width="48.0" height="16.0" fill="#aaaaaa"/><text x="40.0" y="117.0" fill="#ffffff" style="font-family: monospace; font-size: 16.0px;" text-anchor="middle" dominant-baseline="central">AAAAAA</text><rect x="80.0" y="109.0" width="48.0" height="16.0" fill="#aaaaaa"/><text x="104.0" y="117.0" fill="#ffffff" style="font-family: monospace; font-size: 16.0px;" text-anchor="middle" dominant-baseline="central">AAAAAA</text><rect x="144.0" y="109.0" width="48.0" height="16.0" fill="#aaaaaa"/><text x="168.0" y="117.0" fill="#ffffff" style="font-family: monospace; font-size: 16.0px;" text-anchor="middle" dominant-baseline="central">AAAA</text><circle cx="10.0" cy="71.0" r="2.0" fill="#ffffff"/><circle cx="70.0" cy="103.0" r="2.0" fill="#ffd966"/><circle cx="198.0" cy="131.0" r="2.0" fill="#2f3fbf"/><circle cx="10.0" cy="67.0" r="2.0" fill="#000000"/><line x1="4.0" y1="0" x2="204.0" y2="0" stroke="#000000" stroke-width="1"/><line x1="204.0" y1="0" x2="204.0" y2="157.0" stroke="#000000" stroke-width="1"/><line x1="4.0" y1="157.0" x2="204.0" y2="157.0" stroke="#000000" stroke-width="1"/></svg>