<svg xmlns="http://www.w3.org/2000/svg" width="397" height="190" viewBox="0 0 397 190"><defs><clipPath id="clip"><rect x="8" y="5" width="384" height="160"/></clipPath></defs><rect x="0" y="0" width="397" height="190" fill="#ffffff"/><rect x="8" y="5" width="384" height="160" fill="#f8fafc"/><line x1="8" y1="5" x2="8" y2="165" stroke="#cbd5e1" stroke-width="0.5"/><line x1="72" y1="5" x2="72" y2="165" stroke="#cbd5e1" stroke-width="0.5"/><line x1="136" y1="5" x2="136" y2="165" stroke="#cbd5e1" stroke-width="0.5"/><line x1="200" y1="5" x2="200" y2="165" stroke="#cbd5e1" stroke-width="0.5"/><line x1="264" y1="5" x2="264" y2="165" stroke="#cbd5e1" stroke-width="0.5"/><line x1="328" y1="5" x2="328" y2="165" stroke="#cbd5e1" stroke-width="0.5"/><line x1="392" y1="5" x2="392" y2="165" stroke="#cbd5e1" stroke-width="0.5"/><line x1="8" y1="5" x2="392" y2="5" stroke="#cbd5e1" stroke-width="0.5"/><line x1="8" y1="37" x2="392" y2="37" stroke="#cbd5e1" stroke-width="0.5"/><line x1="8" y1="69" x2="392" y2="69" stroke="#cbd5e1" stroke-width="0.5"/><line x1="8" y1="101" x2="392" y2="101" stroke="#cbd5e1" stroke-width="0.5"/><line x1="8" y1="133" x2="392" y2="133" stroke="#cbd5e1" stroke-width="0.5"/><line x1="8" y1="165" x2="392" y2="165" stroke="#cbd5e1" stroke-width="0.5"/><circle cx="72" cy="37" r="1.5" fill="#94a3b8"/><circle cx="136" cy="37" r="1.5" fill="#94a3b8"/><circle cx="200" cy="37" r="1.5" fill="#94a3b8"/><circle cx="264" cy="37" r="1.5" fill="#94a3b8"/><circle cx="328" cy="37" r="1.5" fill="#94a3b8"/><circle cx="72" cy="69" r="1.5" fill="#94a3b8"/><circle cx="136" cy="69" r="1.5" fill="#94a3b8"/><circle cx="200" cy="69" r="1.5" fill="#94a3b8"/><circle cx="264" cy="69" r="1.5" fill="#94a3b8"/><circle cx="328" cy="69" r="1.5" fill="#94a3b8"/><circle cx="72" cy="101" r="1.5" fill="#94a3b8"/><circle cx="136" cy="101" r="1.5" fill="#94a3b8"/><circle cx="200" cy="101" r="1.5" fill="#94a3b8"/><circle cx="264" cy="101" r="1.5" fill="#94a3b8"/><circle cx="328" cy="101" r="1.5" fill="#94a3b8"/><circle cx="72" cy="133" r="1.5" fill="#94a3b8"/><circle cx="136" cy="133" r="1.5" fill="#94a3b8"/><circle cx="200" cy="133" r="1.5" fill="#94a3b8"/><circle cx="264" cy="133" r="1.5" fill="#94a3b8"/><circle cx="328" cy="133" r="1.5" fill="#94a3b8"/><ellipse cx="136" cy="101" rx="162.09928789011803" ry="102.96324794006439" transform="rotate(96.0 136 101)" fill="none" stroke="#1e40af" stroke-opacity="0.5" stroke-width="1" stroke-dasharray="3 2"/><g clip-path="url(#clip)"><ellipse cx="136" cy="101" rx="162.09928789011803" ry="102.96324794006439" transform="rotate(96.0 136 101)" fill="#1e40af" stroke="#1e40af" fill-opacity="0.2" stroke-opacity="0.85" stroke-width="1.5"/></g><circle cx="136" cy="101" r="3" fill="#dc2626"/><line x1="0" y1="0" x2="396" y2="0" stroke="#000" stroke-width="1"/><line x1="396" y1="0" x2="396" y2="189" stroke="#000" stroke-width="1"/><line x1="0" y1="189" x2="396" y2="189" stroke="#000" stroke-width="1"/><line x1="0" y1="0" x2="0" y2="189" stroke="#000" stroke-width="1"/></svg>