<svg width="213" height="192" viewBox="0 0 213 192" xmlns="http://www.w3.org/2000/svg" font-family="&quot;JetBrains Mono&quot;, &quot;Menlo&quot;, &quot;Consolas&quot;, &quot;DejaVu Sans Mono&quot;, &quot;Liberation Mono&quot;, &quot;Roboto Mono&quot;, &quot;Noto Sans Mono&quot;, monospace" data-entviz-version="v11" data-entviz-lib="0.11.0" data-input-bytes="97" data-cols="3" data-rows="4"><defs><clipPath id="grid-clip-9d0287415e6fa1da-3x4"><rect x="27" y="26" width="180" height="160"/></clipPath></defs><rect x="0" y="0" width="213" height="192" fill="#ffffff"/><g data-channel="grid"><rect x="27" y="26" width="180" height="160" fill="#ff3f2f"/><g><path fill="#000000" d="M27 26h6v10h-6zM33 26h6v10h-6zM39 26h6v10h-6zM69 26h6v10h-6zM81 26h6v10h-6zM57 56h6v10h-6zM45 56h6v10h-6zM39 56h6v10h-6zM33 56h6v10h-6zM27 36h6v10h-6z"/><path fill="#2f3fbf" d="M87 26h6v10h-6zM93 26h6v10h-6zM99 26h6v10h-6zM105 26h6v10h-6zM117 26h6v10h-6zM123 26h6v10h-6zM141 26h6v10h-6zM141 36h6v10h-6zM141 46h6v10h-6zM141 56h6v10h-6zM129 56h6v10h-6zM117 56h6v10h-6zM87 46h6v10h-6z"/><path fill="#e7be00" d="M147 26h6v10h-6zM153 26h6v10h-6zM171 26h6v10h-6zM189 26h6v10h-6zM201 26h6v10h-6zM201 46h6v10h-6zM201 56h6v10h-6zM189 56h6v10h-6zM183 56h6v10h-6zM177 56h6v10h-6zM147 56h6v10h-6zM147 36h6v10h-6z"/><path fill="#2f3fbf" d="M39 66h6v10h-6zM57 66h6v10h-6zM63 66h6v10h-6zM69 66h6v10h-6zM75 66h6v10h-6zM81 76h6v10h-6zM81 96h6v10h-6zM75 96h6v10h-6zM69 96h6v10h-6zM51 96h6v10h-6zM45 96h6v10h-6zM39 96h6v10h-6zM27 86h6v10h-6zM27 76h6v10h-6z"/><path fill="#e7be00" d="M99 66h6v10h-6zM117 66h6v10h-6zM123 66h6v10h-6zM141 96h6v10h-6zM123 96h6v10h-6zM93 96h6v10h-6z"/><path fill="#e7be00" d="M33 106h6v10h-6zM39 106h6v10h-6zM45 106h6v10h-6zM51 106h6v10h-6zM63 106h6v10h-6zM69 106h6v10h-6zM81 116h6v10h-6zM69 136h6v10h-6zM57 136h6v10h-6zM51 136h6v10h-6zM45 136h6v10h-6zM33 136h6v10h-6zM27 136h6v10h-6zM27 126h6v10h-6z"/><path fill="#e7be00" d="M99 106h6v10h-6zM105 106h6v10h-6zM111 106h6v10h-6zM129 106h6v10h-6zM135 106h6v10h-6zM141 126h6v10h-6zM93 136h6v10h-6zM87 136h6v10h-6zM87 126h6v10h-6zM87 116h6v10h-6z"/><path fill="#2f3fbf" d="M147 106h6v10h-6zM171 106h6v10h-6zM195 106h6v10h-6zM201 136h6v10h-6zM189 136h6v10h-6zM177 136h6v10h-6zM171 136h6v10h-6zM165 136h6v10h-6zM159 136h6v10h-6zM147 116h6v10h-6z"/><path fill="#000000" d="M27 146h6v10h-6zM33 146h6v10h-6zM51 146h6v10h-6zM75 146h6v10h-6zM81 146h6v10h-6zM81 156h6v10h-6zM81 176h6v10h-6zM69 176h6v10h-6zM57 176h6v10h-6zM51 176h6v10h-6zM39 176h6v10h-6zM33 176h6v10h-6zM27 176h6v10h-6zM27 166h6v10h-6zM27 156h6v10h-6z"/><path fill="#e7be00" d="M87 146h6v10h-6zM99 146h6v10h-6zM123 146h6v10h-6zM129 146h6v10h-6zM135 146h6v10h-6zM141 146h6v10h-6zM141 166h6v10h-6zM141 176h6v10h-6zM135 176h6v10h-6zM123 176h6v10h-6zM87 166h6v10h-6zM87 156h6v10h-6z"/><path fill="#2f3fbf" d="M147 146h6v10h-6zM159 146h6v10h-6zM171 146h6v10h-6zM183 146h6v10h-6zM189 146h6v10h-6zM195 146h6v10h-6zM189 176h6v10h-6zM183 176h6v10h-6zM177 176h6v10h-6zM171 176h6v10h-6zM153 176h6v10h-6zM147 166h6v10h-6z"/></g><g clip-path="url(#grid-clip-9d0287415e6fa1da-3x4)" data-channel="ellipse" data-ellipse-anchor-x="147" data-ellipse-anchor-y="146" data-ellipse-rx="65.846" data-ellipse-ry="78.065" data-ellipse-rotation-deg="0"><ellipse cx="147" cy="146" rx="65.846" ry="78.065" transform="rotate(0 147 146)" fill="#000000" stroke="#000000" fill-opacity="0.25" stroke-opacity="0.35" stroke-width="2"/></g><g><g data-channel="cell" data-cell-index="0" data-cell-row="0" data-cell-col="0" data-surround-bits="0x9d0287" data-edge-color="#000000"><rect x="33" y="36" width="48" height="20" fill="#493b20"/><text x="57" y="46" fill="#ffffff" font-size="16" text-anchor="middle" dominant-baseline="central">IDtJ</text></g><g data-channel="cell" data-cell-index="1" data-cell-row="0" data-cell-col="1" data-surround-bits="0x415e6f" data-edge-color="#2f3fbf"><rect x="93" y="36" width="48" height="20" fill="#617f54"/><text x="117" y="46" fill="#ffffff" font-size="16" text-anchor="middle" dominant-baseline="central">VH9h</text></g><g data-channel="cell" data-cell-index="2" data-cell-row="0" data-cell-col="2" data-surround-bits="0xa1da93" data-edge-color="#e7be00"><rect x="153" y="36" width="48" height="20" fill="#83ed33"/><text x="177" y="46" fill="#000000" font-size="16" text-anchor="middle" dominant-baseline="central">M+2D</text></g><g data-channel="cell" data-cell-index="3" data-cell-row="1" data-cell-col="0" data-surround-bits="0xce75e4" data-edge-color="#2f3fbf" data-cell-quartile="4"><rect x="33" y="76" width="48" height="20" fill="#a019ca"/><text x="57" y="86" fill="#ffffff" font-size="16" text-anchor="middle" dominant-baseline="central">yhmg</text><polygon points="33,96 33,86 43,96" fill="#ffffff"/></g><g data-channel="cell" data-cell-index="4" data-cell-row="1" data-cell-col="1" data-surround-bits="0x109064" data-edge-color="#e7be00"><rect x="93" y="76" width="48" height="20" fill="#5f9045"/><text x="117" y="86" fill="#000000" font-size="16" text-anchor="middle" dominant-baseline="central">RZBf</text></g><g data-channel="cell" data-cell-index="5" data-cell-row="1" data-cell-col="2" data-cell-blank="true" data-cell-blank-map="true"><rect x="153" y="76" width="48" height="20" rx="10" ry="10" fill="#e7be00" stroke="#000000" stroke-width="1"/><circle cx="177" cy="83.5" r="3.5" fill="#000000" data-blank-map-min="1,1"/><path d="M 156.8,93.5 H 165.2 M 161,89.3 V 97.7" fill="none" stroke="#000000" stroke-width="1.925" stroke-linecap="butt" data-blank-map-max="3,0"/></g><g data-channel="cell" data-cell-index="6" data-cell-row="2" data-cell-col="0" data-surround-bits="0x7744de" data-edge-color="#e7be00"><rect x="33" y="116" width="48" height="20" fill="#e88078"/><text x="57" y="126" fill="#000000" font-size="16" text-anchor="middle" dominant-baseline="central">eIDo</text></g><g data-channel="cell" data-cell-index="7" data-cell-row="2" data-cell-col="1" data-surround-bits="0xf0099c" data-edge-color="#e7be00" data-cell-quartile="3"><rect x="93" y="116" width="48" height="20" fill="#93a056"/><text x="117" y="126" fill="#000000" font-size="16" text-anchor="middle" dominant-baseline="central">VqCT</text><polygon points="141,136 141,126 131,136" fill="#000000"/></g><g data-channel="cell" data-cell-index="8" data-cell-row="2" data-cell-col="2" data-surround-bits="0x8f5111" data-edge-color="#2f3fbf"><rect x="153" y="116" width="48" height="20" fill="#3e766d"/><text x="177" y="126" fill="#ffffff" font-size="16" text-anchor="middle" dominant-baseline="central">bXY+</text></g><g data-channel="cell" data-cell-index="9" data-cell-row="3" data-cell-col="0" data-surround-bits="0xfb5713" data-edge-color="#000000" data-cell-quartile="2"><rect x="33" y="156" width="48" height="20" fill="#a572d2"/><text x="57" y="166" fill="#000000" font-size="16" text-anchor="middle" dominant-baseline="central">0nKl</text><polygon points="81,156 71,156 81,166" fill="#000000"/></g><g data-channel="cell" data-cell-index="10" data-cell-row="3" data-cell-col="1" data-surround-bits="0xc0bbc5" data-edge-color="#e7be00" data-cell-quartile="1"><rect x="93" y="156" width="48" height="20" fill="#539a4b"/><text x="117" y="166" fill="#000000" font-size="16" text-anchor="middle" dominant-baseline="central">S5pT</text><polygon points="93,156 103,156 93,166" fill="#000000"/></g><g data-channel="cell" data-cell-index="11" data-cell-row="3" data-cell-col="2" data-surround-bits="0x53c1d5" data-edge-color="#2f3fbf"><rect x="153" y="156" width="48" height="20" fill="#d84592"/><text x="177" y="166" fill="#000000" font-size="16" text-anchor="middle" dominant-baseline="central">kkXY</text></g></g></g><g data-channel="color-bar" data-bar-slots="15" data-bar-marker-left="0" data-bar-marker-right="6"><g data-color-bar-rank="0" data-color-bar-band="G"><rect x="1" y="1" width="20" height="69.422" fill="#e7be00"/><text x="11" y="66.902" fill="#000000" font-size="16" text-anchor="middle" data-color-bar-letter="true">g</text></g><g data-color-bar-rank="1" data-color-bar-band="K"><rect x="1" y="70.422" width="20" height="51.837" fill="#000000"/><text x="11" y="118.739" fill="#ffffff" font-size="16" text-anchor="middle" data-color-bar-letter="true">k</text></g><g data-color-bar-rank="2" data-color-bar-band="B"><rect x="1" y="122.259" width="20" height="30.915" fill="#2f3fbf"/><text x="11" y="149.655" fill="#ffffff" font-size="16" text-anchor="middle" data-color-bar-letter="true">b</text></g><g data-color-bar-rank="3" data-color-bar-band="W"><rect x="1" y="153.175" width="20" height="37.825" fill="#ffffff"/><text x="11" y="187.48" fill="#000000" font-size="16" text-anchor="middle" data-color-bar-letter="true">w</text></g><circle cx="5.6" cy="7.333" r="3.4" fill="#ffffff" stroke="#000000" stroke-width="0.75" data-bar-marker="left"/><circle cx="16.4" cy="83.333" r="3.4" fill="#ffffff" stroke="#000000" stroke-width="0.75" data-bar-marker="right"/></g><g data-channel="label-top"><text x="27" y="16" fill="#666666" font-size="12" dominant-baseline="central">SSH ed25519: AAAAC3NzaC1lZDI1NTE5AAAA...</text></g><line x1="0" y1="0.5" x2="213" y2="0.5" stroke="#808080" stroke-width="1" shape-rendering="crispEdges"/><line x1="212.5" y1="0" x2="212.5" y2="192" stroke="#808080" stroke-width="1" shape-rendering="crispEdges"/><line x1="0" y1="191.5" x2="213" y2="191.5" stroke="#808080" stroke-width="1" shape-rendering="crispEdges"/><line x1="0.5" y1="0" x2="0.5" y2="192" stroke="#808080" stroke-width="1" shape-rendering="crispEdges"/><line x1="21.5" y1="0" x2="21.5" y2="192" stroke="#808080" stroke-width="1" shape-rendering="crispEdges"/></svg>