<svg width="213.0" height="192.0" viewBox="0 0 213.0 192.0" xmlns="http://www.w3.org/2000/svg" data-entviz-version="v9" data-entviz-lib="0.9.1" data-input-bytes="44" data-cols="3" data-rows="4"><defs><clipPath id="grid-clip-86afcb613401d5c6-3x4"><rect x="27.0" y="26.0" width="180.0" height="160.0"/></clipPath></defs><rect x="0" y="0" width="213.0" height="192.0" fill="#ffffff"/><g data-channel="grid"><rect x="27.0" y="26.0" width="180.0" height="160.0" fill="#ff3f2f"/><g><rect x="27.0" y="26.0" width="6.0" height="10.0" fill="#e7be00"/><rect x="33.0" y="26.0" width="6.0" height="10.0" fill="#e7be00"/><rect x="45.0" y="26.0" width="6.0" height="10.0" fill="#e7be00"/><rect x="63.0" y="26.0" width="6.0" height="10.0" fill="#e7be00"/><rect x="69.0" y="26.0" width="6.0" height="10.0" fill="#e7be00"/><rect x="75.0" y="26.0" width="6.0" height="10.0" fill="#e7be00"/><rect x="81.0" y="26.0" width="6.0" height="10.0" fill="#e7be00"/><rect x="81.0" y="36.0" width="6.0" height="10.0" fill="#e7be00"/><rect x="81.0" y="46.0" width="6.0" height="10.0" fill="#e7be00"/><rect x="75.0" y="56.0" width="6.0" height="10.0" fill="#e7be00"/><rect x="63.0" y="56.0" width="6.0" height="10.0" fill="#e7be00"/><rect x="51.0" y="56.0" width="6.0" height="10.0" fill="#e7be00"/><rect x="45.0" y="56.0" width="6.0" height="10.0" fill="#e7be00"/><rect x="27.0" y="36.0" width="6.0" height="10.0" fill="#e7be00"/><rect x="87.0" y="26.0" width="6.0" height="10.0" fill="#2f3fbf"/><rect x="141.0" y="36.0" width="6.0" height="10.0" fill="#2f3fbf"/><rect x="141.0" y="56.0" width="6.0" height="10.0" fill="#2f3fbf"/><rect x="135.0" y="56.0" width="6.0" height="10.0" fill="#2f3fbf"/><rect x="117.0" y="56.0" width="6.0" height="10.0" fill="#2f3fbf"/><rect x="87.0" y="56.0" width="6.0" height="10.0" fill="#2f3fbf"/><rect x="87.0" y="46.0" width="6.0" height="10.0" fill="#2f3fbf"/><rect x="147.0" y="26.0" width="6.0" height="10.0" fill="#2f3fbf"/><rect x="165.0" y="26.0" width="6.0" height="10.0" fill="#2f3fbf"/><rect x="177.0" y="26.0" width="6.0" height="10.0" fill="#2f3fbf"/><rect x="183.0" y="26.0" width="6.0" height="10.0" fill="#2f3fbf"/><rect x="189.0" y="26.0" width="6.0" height="10.0" fill="#2f3fbf"/><rect x="201.0" y="26.0" width="6.0" height="10.0" fill="#2f3fbf"/><rect x="201.0" y="36.0" width="6.0" height="10.0" fill="#2f3fbf"/><rect x="189.0" y="56.0" width="6.0" height="10.0" fill="#2f3fbf"/><rect x="183.0" y="56.0" width="6.0" height="10.0" fill="#2f3fbf"/><rect x="177.0" y="56.0" width="6.0" height="10.0" fill="#2f3fbf"/><rect x="165.0" y="56.0" width="6.0" height="10.0" fill="#2f3fbf"/><rect x="153.0" y="56.0" width="6.0" height="10.0" fill="#2f3fbf"/><rect x="147.0" y="46.0" width="6.0" height="10.0" fill="#2f3fbf"/><rect x="147.0" y="36.0" width="6.0" height="10.0" fill="#2f3fbf"/><rect x="57.0" y="66.0" width="6.0" height="10.0" fill="#ffffff"/><rect x="69.0" y="66.0" width="6.0" height="10.0" fill="#ffffff"/><rect x="75.0" y="66.0" width="6.0" height="10.0" fill="#ffffff"/><rect x="81.0" y="96.0" width="6.0" height="10.0" fill="#ffffff"/><rect x="75.0" y="96.0" width="6.0" height="10.0" fill="#ffffff"/><rect x="63.0" y="96.0" width="6.0" height="10.0" fill="#ffffff"/><rect x="45.0" y="96.0" width="6.0" height="10.0" fill="#ffffff"/><rect x="27.0" y="96.0" width="6.0" height="10.0" fill="#ffffff"/><rect x="27.0" y="86.0" width="6.0" height="10.0" fill="#ffffff"/><rect x="99.0" y="66.0" width="6.0" height="10.0" fill="#2f3fbf"/><rect x="111.0" y="66.0" width="6.0" height="10.0" fill="#2f3fbf"/><rect x="117.0" y="66.0" width="6.0" height="10.0" fill="#2f3fbf"/><rect x="123.0" y="66.0" width="6.0" height="10.0" fill="#2f3fbf"/><rect x="141.0" y="66.0" width="6.0" height="10.0" fill="#2f3fbf"/><rect x="141.0" y="76.0" width="6.0" height="10.0" fill="#2f3fbf"/><rect x="141.0" y="96.0" width="6.0" height="10.0" fill="#2f3fbf"/><rect x="129.0" y="96.0" width="6.0" height="10.0" fill="#2f3fbf"/><rect x="123.0" y="96.0" width="6.0" height="10.0" fill="#2f3fbf"/><rect x="111.0" y="96.0" width="6.0" height="10.0" fill="#2f3fbf"/><rect x="99.0" y="96.0" width="6.0" height="10.0" fill="#2f3fbf"/><rect x="87.0" y="96.0" width="6.0" height="10.0" fill="#2f3fbf"/><rect x="87.0" y="86.0" width="6.0" height="10.0" fill="#2f3fbf"/><rect x="87.0" y="76.0" width="6.0" height="10.0" fill="#2f3fbf"/><rect x="33.0" y="106.0" width="6.0" height="10.0" fill="#ffffff"/><rect x="45.0" y="106.0" width="6.0" height="10.0" fill="#ffffff"/><rect x="63.0" y="106.0" width="6.0" height="10.0" fill="#ffffff"/><rect x="69.0" y="106.0" width="6.0" height="10.0" fill="#ffffff"/><rect x="81.0" y="126.0" width="6.0" height="10.0" fill="#ffffff"/><rect x="81.0" y="136.0" width="6.0" height="10.0" fill="#ffffff"/><rect x="63.0" y="136.0" width="6.0" height="10.0" fill="#ffffff"/><rect x="57.0" y="136.0" width="6.0" height="10.0" fill="#ffffff"/><rect x="33.0" y="136.0" width="6.0" height="10.0" fill="#ffffff"/><rect x="27.0" y="126.0" width="6.0" height="10.0" fill="#ffffff"/><rect x="99.0" y="106.0" width="6.0" height="10.0" fill="#e7be00"/><rect x="105.0" y="106.0" width="6.0" height="10.0" fill="#e7be00"/><rect x="111.0" y="106.0" width="6.0" height="10.0" fill="#e7be00"/><rect x="123.0" y="106.0" width="6.0" height="10.0" fill="#e7be00"/><rect x="135.0" y="106.0" width="6.0" height="10.0" fill="#e7be00"/><rect x="141.0" y="106.0" width="6.0" height="10.0" fill="#e7be00"/><rect x="141.0" y="136.0" width="6.0" height="10.0" fill="#e7be00"/><rect x="129.0" y="136.0" width="6.0" height="10.0" fill="#e7be00"/><rect x="123.0" y="136.0" width="6.0" height="10.0" fill="#e7be00"/><rect x="99.0" y="136.0" width="6.0" height="10.0" fill="#e7be00"/><rect x="93.0" y="136.0" width="6.0" height="10.0" fill="#e7be00"/><rect x="87.0" y="136.0" width="6.0" height="10.0" fill="#e7be00"/><rect x="153.0" y="106.0" width="6.0" height="10.0" fill="#e7be00"/><rect x="201.0" y="126.0" width="6.0" height="10.0" fill="#e7be00"/><rect x="189.0" y="136.0" width="6.0" height="10.0" fill="#e7be00"/><rect x="177.0" y="136.0" width="6.0" height="10.0" fill="#e7be00"/><rect x="171.0" y="136.0" width="6.0" height="10.0" fill="#e7be00"/><rect x="165.0" y="136.0" width="6.0" height="10.0" fill="#e7be00"/><rect x="159.0" y="136.0" width="6.0" height="10.0" fill="#e7be00"/><rect x="147.0" y="136.0" width="6.0" height="10.0" fill="#e7be00"/><rect x="147.0" y="126.0" width="6.0" height="10.0" fill="#e7be00"/><rect x="27.0" y="146.0" width="6.0" height="10.0" fill="#e7be00"/><rect x="39.0" y="146.0" width="6.0" height="10.0" fill="#e7be00"/><rect x="75.0" y="146.0" width="6.0" height="10.0" fill="#e7be00"/><rect x="75.0" y="176.0" width="6.0" height="10.0" fill="#e7be00"/><rect x="63.0" y="176.0" width="6.0" height="10.0" fill="#e7be00"/><rect x="57.0" y="176.0" width="6.0" height="10.0" fill="#e7be00"/><rect x="51.0" y="176.0" width="6.0" height="10.0" fill="#e7be00"/><rect x="39.0" y="176.0" width="6.0" height="10.0" fill="#e7be00"/><rect x="27.0" y="176.0" width="6.0" height="10.0" fill="#e7be00"/><rect x="105.0" y="146.0" width="6.0" height="10.0" fill="#2f3fbf"/><rect x="111.0" y="146.0" width="6.0" height="10.0" fill="#2f3fbf"/><rect x="123.0" y="146.0" width="6.0" height="10.0" fill="#2f3fbf"/><rect x="135.0" y="146.0" width="6.0" height="10.0" fill="#2f3fbf"/><rect x="141.0" y="146.0" width="6.0" height="10.0" fill="#2f3fbf"/><rect x="135.0" y="176.0" width="6.0" height="10.0" fill="#2f3fbf"/><rect x="129.0" y="176.0" width="6.0" height="10.0" fill="#2f3fbf"/><rect x="117.0" y="176.0" width="6.0" height="10.0" fill="#2f3fbf"/><rect x="99.0" y="176.0" width="6.0" height="10.0" fill="#2f3fbf"/><rect x="93.0" y="176.0" width="6.0" height="10.0" fill="#2f3fbf"/><rect x="87.0" y="176.0" width="6.0" height="10.0" fill="#2f3fbf"/><rect x="147.0" y="146.0" width="6.0" height="10.0" fill="#2f3fbf"/><rect x="153.0" y="146.0" width="6.0" height="10.0" fill="#2f3fbf"/><rect x="171.0" y="146.0" width="6.0" height="10.0" fill="#2f3fbf"/><rect x="183.0" y="146.0" width="6.0" height="10.0" fill="#2f3fbf"/><rect x="195.0" y="146.0" width="6.0" height="10.0" fill="#2f3fbf"/><rect x="201.0" y="146.0" width="6.0" height="10.0" fill="#2f3fbf"/><rect x="201.0" y="156.0" width="6.0" height="10.0" fill="#2f3fbf"/><rect x="201.0" y="166.0" width="6.0" height="10.0" fill="#2f3fbf"/><rect x="195.0" y="176.0" width="6.0" height="10.0" fill="#2f3fbf"/><rect x="165.0" y="176.0" width="6.0" height="10.0" fill="#2f3fbf"/><rect x="159.0" y="176.0" width="6.0" height="10.0" fill="#2f3fbf"/><rect x="153.0" y="176.0" width="6.0" height="10.0" fill="#2f3fbf"/><rect x="147.0" y="166.0" width="6.0" height="10.0" fill="#2f3fbf"/></g><g clip-path="url(#grid-clip-86afcb613401d5c6-3x4)" data-channel="ellipse" data-ellipse-anchor-x="87.0" data-ellipse-anchor-y="66.0" data-ellipse-rx="90.28339382189839" data-ellipse-ry="49.55404322555325" data-ellipse-rotation-deg="180.0"><ellipse cx="87.0" cy="66.0" rx="90.28339382189839" ry="49.55404322555325" transform="rotate(180.0 87.0 66.0)" fill="#000000" stroke="#000000" fill-opacity="0.25" stroke-opacity="0.35" stroke-width="2.0"/></g><g><g data-channel="cell" data-cell-index="0" data-cell-row="0" data-cell-col="0"><rect x="33.0" y="36.0" width="48.0" height="20.0" fill="#72ac0c"/><text x="57.0" y="46.0" fill="#000000" style="font-family: &quot;JetBrains Mono&quot;, &quot;Menlo&quot;, &quot;Consolas&quot;, &quot;DejaVu Sans Mono&quot;, &quot;Liberation Mono&quot;, &quot;Roboto Mono&quot;, &quot;Noto Sans Mono&quot;, monospace; font-size: 16.0px;" text-anchor="middle" dominant-baseline="central">DKxy</text></g><g data-channel="cell" data-cell-index="1" data-cell-row="0" data-cell-col="1"><rect x="93.0" y="36.0" width="48.0" height="20.0" fill="#33c8da"/><text x="117.0" y="46.0" fill="#000000" style="font-family: &quot;JetBrains Mono&quot;, &quot;Menlo&quot;, &quot;Consolas&quot;, &quot;DejaVu Sans Mono&quot;, &quot;Liberation Mono&quot;, &quot;Roboto Mono&quot;, &quot;Noto Sans Mono&quot;, monospace; font-size: 16.0px;" text-anchor="middle" dominant-baseline="central">2sgz</text></g><g data-channel="cell" data-cell-index="2" data-cell-row="0" data-cell-col="2"><rect x="153.0" y="36.0" width="48.0" height="20.0" fill="#72997e"/><text x="177.0" y="46.0" fill="#000000" style="font-family: &quot;JetBrains Mono&quot;, &quot;Menlo&quot;, &quot;Consolas&quot;, &quot;DejaVu Sans Mono&quot;, &quot;Liberation Mono&quot;, &quot;Roboto Mono&quot;, &quot;Noto Sans Mono&quot;, monospace; font-size: 16.0px;" text-anchor="middle" dominant-baseline="central">fply</text></g><g data-channel="cell" data-cell-index="3" data-cell-row="1" data-cell-col="0" data-cell-quartile="4"><rect x="33.0" y="76.0" width="48.0" height="20.0" fill="#60fbaf"/><text x="57.0" y="86.0" fill="#000000" style="font-family: &quot;JetBrains Mono&quot;, &quot;Menlo&quot;, &quot;Consolas&quot;, &quot;DejaVu Sans Mono&quot;, &quot;Liberation Mono&quot;, &quot;Roboto Mono&quot;, &quot;Noto Sans Mono&quot;, monospace; font-size: 16.0px;" text-anchor="middle" dominant-baseline="central">r_tg</text><polygon points="33.0,96.0 33.0,86.0 43.0,96.0" fill="#000000"/></g><g data-channel="cell" data-cell-index="4" data-cell-row="1" data-cell-col="1" data-cell-quartile="1"><rect x="93.0" y="76.0" width="48.0" height="20.0" fill="#528cc0"/><text x="117.0" y="86.0" fill="#000000" style="font-family: &quot;JetBrains Mono&quot;, &quot;Menlo&quot;, &quot;Consolas&quot;, &quot;DejaVu Sans Mono&quot;, &quot;Liberation Mono&quot;, &quot;Roboto Mono&quot;, &quot;Noto Sans Mono&quot;, monospace; font-size: 16.0px;" text-anchor="middle" dominant-baseline="central">wIxS</text><polygon points="93.0,76.0 103.0,76.0 93.0,86.0" fill="#000000"/></g><g data-channel="cell" data-cell-index="5" data-cell-row="1" data-cell-col="2" data-cell-blank="true" data-cell-blank-map="true"><rect x="153.0" y="76.0" width="48.0" height="20.0" rx="10.0" ry="10.0" fill="#ffffff" stroke="#000000" stroke-width="1"/><circle cx="161.0" cy="93.5" r="3.5" fill="#1d4ed8" data-blank-map-min="3,0"/><path d="M 172.8,83.5 H 181.2 M 177.0,79.3 V 87.7" fill="none" stroke="#d62828" stroke-width="1.9250000000000003" stroke-linecap="butt" data-blank-map-max="1,1"/></g><g data-channel="cell" data-cell-index="6" data-cell-row="2" data-cell-col="0"><rect x="33.0" y="116.0" width="48.0" height="20.0" fill="#f6d7d7"/><text x="57.0" y="126.0" fill="#000000" style="font-family: &quot;JetBrains Mono&quot;, &quot;Menlo&quot;, &quot;Consolas&quot;, &quot;DejaVu Sans Mono&quot;, &quot;Liberation Mono&quot;, &quot;Roboto Mono&quot;, &quot;Noto Sans Mono&quot;, monospace; font-size: 16.0px;" text-anchor="middle" dominant-baseline="central">19f2</text></g><g data-channel="cell" data-cell-index="7" data-cell-row="2" data-cell-col="1"><rect x="93.0" y="116.0" width="48.0" height="20.0" fill="#45c839"/><text x="117.0" y="126.0" fill="#000000" style="font-family: &quot;JetBrains Mono&quot;, &quot;Menlo&quot;, &quot;Consolas&quot;, &quot;DejaVu Sans Mono&quot;, &quot;Liberation Mono&quot;, &quot;Roboto Mono&quot;, &quot;Noto Sans Mono&quot;, monospace; font-size: 16.0px;" text-anchor="middle" dominant-baseline="central">OchF</text></g><g data-channel="cell" data-cell-index="8" data-cell-row="2" data-cell-col="2"><rect x="153.0" y="116.0" width="48.0" height="20.0" fill="#f0d21e"/><text x="177.0" y="126.0" fill="#000000" style="font-family: &quot;JetBrains Mono&quot;, &quot;Menlo&quot;, &quot;Consolas&quot;, &quot;DejaVu Sans Mono&quot;, &quot;Liberation Mono&quot;, &quot;Roboto Mono&quot;, &quot;Noto Sans Mono&quot;, monospace; font-size: 16.0px;" text-anchor="middle" dominant-baseline="central">HtLw</text></g><g data-channel="cell" data-cell-index="9" data-cell-row="3" data-cell-col="0" data-cell-quartile="2"><rect x="33.0" y="156.0" width="48.0" height="20.0" fill="#f7603d"/><text x="57.0" y="166.0" fill="#000000" style="font-family: &quot;JetBrains Mono&quot;, &quot;Menlo&quot;, &quot;Consolas&quot;, &quot;DejaVu Sans Mono&quot;, &quot;Liberation Mono&quot;, &quot;Roboto Mono&quot;, &quot;Noto Sans Mono&quot;, monospace; font-size: 16.0px;" text-anchor="middle" dominant-baseline="central">PWD3</text><polygon points="81.0,156.0 71.0,156.0 81.0,166.0" fill="#000000"/></g><g data-channel="cell" data-cell-index="10" data-cell-row="3" data-cell-col="1"><rect x="93.0" y="156.0" width="48.0" height="20.0" fill="#188abf"/><text x="117.0" y="166.0" fill="#ffffff" style="font-family: &quot;JetBrains Mono&quot;, &quot;Menlo&quot;, &quot;Consolas&quot;, &quot;DejaVu Sans Mono&quot;, &quot;Liberation Mono&quot;, &quot;Roboto Mono&quot;, &quot;Noto Sans Mono&quot;, monospace; font-size: 16.0px;" text-anchor="middle" dominant-baseline="central">v4oY</text></g><g data-channel="cell" data-cell-index="11" data-cell-row="3" data-cell-col="2" data-cell-quartile="3"><rect x="153.0" y="156.0" width="48.0" height="20.0" fill="#71608a"/><text x="177.0" y="166.0" fill="#ffffff" style="font-family: &quot;JetBrains Mono&quot;, &quot;Menlo&quot;, &quot;Consolas&quot;, &quot;DejaVu Sans Mono&quot;, &quot;Liberation Mono&quot;, &quot;Roboto Mono&quot;, &quot;Noto Sans Mono&quot;, monospace; font-size: 16.0px;" text-anchor="middle" dominant-baseline="central">imBx</text><polygon points="201.0,176.0 201.0,166.0 191.0,176.0" fill="#ffffff"/></g></g></g><g data-channel="color-bar" data-bar-slots="15" data-bar-marker-left="13" data-bar-marker-right="12"><g data-color-bar-rank="0" data-color-bar-band="B"><rect x="1" y="1" width="20.0" height="50.85698710453972" fill="#2f3fbf"/><text x="11.0" y="48.336987104539716" fill="#ffffff" style="font-family: &quot;JetBrains Mono&quot;, &quot;Menlo&quot;, &quot;Consolas&quot;, &quot;DejaVu Sans Mono&quot;, &quot;Liberation Mono&quot;, &quot;Roboto Mono&quot;, &quot;Noto Sans Mono&quot;, monospace; font-size: 16.0px;" text-anchor="middle" data-color-bar-letter="true">b</text></g><g data-color-bar-rank="1" data-color-bar-band="G"><rect x="1" y="51.85698710453972" width="20.0" height="76.11431201617832" fill="#e7be00"/><text x="11.0" y="124.45129912071805" fill="#000000" style="font-family: &quot;JetBrains Mono&quot;, &quot;Menlo&quot;, &quot;Consolas&quot;, &quot;DejaVu Sans Mono&quot;, &quot;Liberation Mono&quot;, &quot;Roboto Mono&quot;, &quot;Noto Sans Mono&quot;, monospace; font-size: 16.0px;" text-anchor="middle" data-color-bar-letter="true">g</text></g><g data-color-bar-rank="2" data-color-bar-band="W"><rect x="1" y="127.97129912071804" width="20.0" height="34.73600649172852" fill="#ffffff"/><text x="11.0" y="159.18730561244655" fill="#000000" style="font-family: &quot;JetBrains Mono&quot;, &quot;Menlo&quot;, &quot;Consolas&quot;, &quot;DejaVu Sans Mono&quot;, &quot;Liberation Mono&quot;, &quot;Roboto Mono&quot;, &quot;Noto Sans Mono&quot;, monospace; font-size: 16.0px;" text-anchor="middle" data-color-bar-letter="true">w</text></g><g data-color-bar-rank="3" data-color-bar-band="K"><rect x="1" y="162.70730561244656" width="20.0" height="28.29269438755344" fill="#000000"/><text x="11.0" y="187.48" fill="#ffffff" style="font-family: &quot;JetBrains Mono&quot;, &quot;Menlo&quot;, &quot;Consolas&quot;, &quot;DejaVu Sans Mono&quot;, &quot;Liberation Mono&quot;, &quot;Roboto Mono&quot;, &quot;Noto Sans Mono&quot;, monospace; font-size: 16.0px;" text-anchor="middle" data-color-bar-letter="true">k</text></g><circle cx="5.6000000000000005" cy="172.0" r="3.4000000000000004" fill="#ffffff" stroke="#000000" stroke-width="0.75" data-bar-marker="left"/><circle cx="16.4" cy="159.33333333333331" r="3.4000000000000004" fill="#ffffff" stroke="#000000" stroke-width="0.75" data-bar-marker="right"/></g><g data-channel="label-top"><text x="27.0" y="16.0" fill="#666666" style="font-family: &quot;JetBrains Mono&quot;, &quot;Menlo&quot;, &quot;Consolas&quot;, &quot;DejaVu Sans Mono&quot;, &quot;Liberation Mono&quot;, &quot;Roboto Mono&quot;, &quot;Noto Sans Mono&quot;, monospace; font-size: 12.0px;" dominant-baseline="central">CESR Ed25519 pubkey:</text></g><line x1="0" y1="0.5" x2="213.0" y2="0.5" stroke="#808080" stroke-width="1" shape-rendering="crispEdges"/><line x1="212.5" y1="0" x2="212.5" y2="192.0" stroke="#808080" stroke-width="1" shape-rendering="crispEdges"/><line x1="0" y1="191.5" x2="213.0" y2="191.5" stroke="#808080" stroke-width="1" shape-rendering="crispEdges"/><line x1="0.5" y1="0" x2="0.5" y2="192.0" stroke="#808080" stroke-width="1" shape-rendering="crispEdges"/><line x1="21.5" y1="0" x2="21.5" y2="192.0" stroke="#808080" stroke-width="1" shape-rendering="crispEdges"/></svg>