<svg width="213" height="192" viewBox="0 0 213 192" xmlns="http://www.w3.org/2000/svg" data-entviz-version="v10" data-entviz-lib="0.10.0" data-input-bytes="44" data-cols="3" data-rows="4"><defs><clipPath id="grid-clip-86afcb613401d5c6-3x4"><rect x="27" y="26" width="180" height="160"/></clipPath></defs><rect x="0" y="0" width="213" height="192" fill="#ffffff"/><g data-channel="grid"><rect x="27" y="26" width="180" height="160" fill="#ff3f2f"/><g><rect x="27" y="26" width="6" height="10" fill="#000000"/><rect x="33" y="26" width="6" height="10" fill="#000000"/><rect x="45" y="26" width="6" height="10" fill="#000000"/><rect x="63" y="26" width="6" height="10" fill="#000000"/><rect x="69" y="26" width="6" height="10" fill="#000000"/><rect x="75" y="26" width="6" height="10" fill="#000000"/><rect x="81" y="26" width="6" height="10" fill="#000000"/><rect x="81" y="36" width="6" height="10" fill="#000000"/><rect x="81" y="46" width="6" height="10" fill="#000000"/><rect x="75" y="56" width="6" height="10" fill="#000000"/><rect x="63" y="56" width="6" height="10" fill="#000000"/><rect x="51" y="56" width="6" height="10" fill="#000000"/><rect x="45" y="56" width="6" height="10" fill="#000000"/><rect x="27" y="36" width="6" height="10" fill="#000000"/><rect x="87" y="26" width="6" height="10" fill="#2f3fbf"/><rect x="141" y="36" width="6" height="10" fill="#2f3fbf"/><rect x="141" y="56" width="6" height="10" fill="#2f3fbf"/><rect x="135" y="56" width="6" height="10" fill="#2f3fbf"/><rect x="117" y="56" width="6" height="10" fill="#2f3fbf"/><rect x="87" y="56" width="6" height="10" fill="#2f3fbf"/><rect x="87" y="46" width="6" height="10" fill="#2f3fbf"/><rect x="147" y="26" width="6" height="10" fill="#2f3fbf"/><rect x="165" y="26" width="6" height="10" fill="#2f3fbf"/><rect x="177" y="26" width="6" height="10" fill="#2f3fbf"/><rect x="183" y="26" width="6" height="10" fill="#2f3fbf"/><rect x="189" y="26" width="6" height="10" fill="#2f3fbf"/><rect x="201" y="26" width="6" height="10" fill="#2f3fbf"/><rect x="201" y="36" width="6" height="10" fill="#2f3fbf"/><rect x="189" y="56" width="6" height="10" fill="#2f3fbf"/><rect x="183" y="56" width="6" height="10" fill="#2f3fbf"/><rect x="177" y="56" width="6" height="10" fill="#2f3fbf"/><rect x="165" y="56" width="6" height="10" fill="#2f3fbf"/><rect x="153" y="56" width="6" height="10" fill="#2f3fbf"/><rect x="147" y="46" width="6" height="10" fill="#2f3fbf"/><rect x="147" y="36" width="6" height="10" fill="#2f3fbf"/><rect x="57" y="66" width="6" height="10" fill="#ffffff"/><rect x="69" y="66" width="6" height="10" fill="#ffffff"/><rect x="75" y="66" width="6" height="10" fill="#ffffff"/><rect x="81" y="96" width="6" height="10" fill="#ffffff"/><rect x="75" y="96" width="6" height="10" fill="#ffffff"/><rect x="63" y="96" width="6" height="10" fill="#ffffff"/><rect x="45" y="96" width="6" height="10" fill="#ffffff"/><rect x="27" y="96" width="6" height="10" fill="#ffffff"/><rect x="27" y="86" width="6" height="10" fill="#ffffff"/><rect x="99" y="66" width="6" height="10" fill="#ffffff"/><rect x="111" y="66" width="6" height="10" fill="#ffffff"/><rect x="117" y="66" width="6" height="10" fill="#ffffff"/><rect x="123" y="66" width="6" height="10" fill="#ffffff"/><rect x="141" y="66" width="6" height="10" fill="#ffffff"/><rect x="141" y="76" width="6" height="10" fill="#ffffff"/><rect x="141" y="96" width="6" height="10" fill="#ffffff"/><rect x="129" y="96" width="6" height="10" fill="#ffffff"/><rect x="123" y="96" width="6" height="10" fill="#ffffff"/><rect x="111" y="96" width="6" height="10" fill="#ffffff"/><rect x="99" y="96" width="6" height="10" fill="#ffffff"/><rect x="87" y="96" width="6" height="10" fill="#ffffff"/><rect x="87" y="86" width="6" height="10" fill="#ffffff"/><rect x="87" y="76" width="6" height="10" fill="#ffffff"/><rect x="33" y="106" width="6" height="10" fill="#ffffff"/><rect x="45" y="106" width="6" height="10" fill="#ffffff"/><rect x="63" y="106" width="6" height="10" fill="#ffffff"/><rect x="69" y="106" width="6" height="10" fill="#ffffff"/><rect x="81" y="126" width="6" height="10" fill="#ffffff"/><rect x="81" y="136" width="6" height="10" fill="#ffffff"/><rect x="63" y="136" width="6" height="10" fill="#ffffff"/><rect x="57" y="136" width="6" height="10" fill="#ffffff"/><rect x="33" y="136" width="6" height="10" fill="#ffffff"/><rect x="27" y="126" width="6" height="10" fill="#ffffff"/><rect x="99" y="106" width="6" height="10" fill="#e7be00"/><rect x="105" y="106" width="6" height="10" fill="#e7be00"/><rect x="111" y="106" width="6" height="10" fill="#e7be00"/><rect x="123" y="106" width="6" height="10" fill="#e7be00"/><rect x="135" y="106" width="6" height="10" fill="#e7be00"/><rect x="141" y="106" width="6" height="10" fill="#e7be00"/><rect x="141" y="136" width="6" height="10" fill="#e7be00"/><rect x="129" y="136" width="6" height="10" fill="#e7be00"/><rect x="123" y="136" width="6" height="10" fill="#e7be00"/><rect x="99" y="136" width="6" height="10" fill="#e7be00"/><rect x="93" y="136" width="6" height="10" fill="#e7be00"/><rect x="87" y="136" width="6" height="10" fill="#e7be00"/><rect x="153" y="106" width="6" height="10" fill="#e7be00"/><rect x="201" y="126" width="6" height="10" fill="#e7be00"/><rect x="189" y="136" width="6" height="10" fill="#e7be00"/><rect x="177" y="136" width="6" height="10" fill="#e7be00"/><rect x="171" y="136" width="6" height="10" fill="#e7be00"/><rect x="165" y="136" width="6" height="10" fill="#e7be00"/><rect x="159" y="136" width="6" height="10" fill="#e7be00"/><rect x="147" y="136" width="6" height="10" fill="#e7be00"/><rect x="147" y="126" width="6" height="10" fill="#e7be00"/><rect x="27" y="146" width="6" height="10" fill="#e7be00"/><rect x="39" y="146" width="6" height="10" fill="#e7be00"/><rect x="75" y="146" width="6" height="10" fill="#e7be00"/><rect x="75" y="176" width="6" height="10" fill="#e7be00"/><rect x="63" y="176" width="6" height="10" fill="#e7be00"/><rect x="57" y="176" width="6" height="10" fill="#e7be00"/><rect x="51" y="176" width="6" height="10" fill="#e7be00"/><rect x="39" y="176" width="6" height="10" fill="#e7be00"/><rect x="27" y="176" width="6" height="10" fill="#e7be00"/><rect x="105" y="146" width="6" height="10" fill="#2f3fbf"/><rect x="111" y="146" width="6" height="10" fill="#2f3fbf"/><rect x="123" y="146" width="6" height="10" fill="#2f3fbf"/><rect x="135" y="146" width="6" height="10" fill="#2f3fbf"/><rect x="141" y="146" width="6" height="10" fill="#2f3fbf"/><rect x="135" y="176" width="6" height="10" fill="#2f3fbf"/><rect x="129" y="176" width="6" height="10" fill="#2f3fbf"/><rect x="117" y="176" width="6" height="10" fill="#2f3fbf"/><rect x="99" y="176" width="6" height="10" fill="#2f3fbf"/><rect x="93" y="176" width="6" height="10" fill="#2f3fbf"/><rect x="87" y="176" width="6" height="10" fill="#2f3fbf"/><rect x="147" y="146" width="6" height="10" fill="#2f3fbf"/><rect x="153" y="146" width="6" height="10" fill="#2f3fbf"/><rect x="171" y="146" width="6" height="10" fill="#2f3fbf"/><rect x="183" y="146" width="6" height="10" fill="#2f3fbf"/><rect x="195" y="146" width="6" height="10" fill="#2f3fbf"/><rect x="201" y="146" width="6" height="10" fill="#2f3fbf"/><rect x="201" y="156" width="6" height="10" fill="#2f3fbf"/><rect x="201" y="166" width="6" height="10" fill="#2f3fbf"/><rect x="195" y="176" width="6" height="10" fill="#2f3fbf"/><rect x="165" y="176" width="6" height="10" fill="#2f3fbf"/><rect x="159" y="176" width="6" height="10" fill="#2f3fbf"/><rect x="153" y="176" width="6" height="10" fill="#2f3fbf"/><rect x="147" y="166" width="6" height="10" fill="#2f3fbf"/></g><g clip-path="url(#grid-clip-86afcb613401d5c6-3x4)" data-channel="ellipse" data-ellipse-anchor-x="87" data-ellipse-anchor-y="66" data-ellipse-rx="90.283" data-ellipse-ry="49.554" data-ellipse-rotation-deg="180"><ellipse cx="87" cy="66" rx="90.283" ry="49.554" transform="rotate(180 87 66)" fill="#000000" stroke="#000000" fill-opacity="0.25" stroke-opacity="0.35" stroke-width="2"/></g><g><g data-channel="cell" data-cell-index="0" data-cell-row="0" data-cell-col="0"><rect x="33" y="36" width="48" height="20" fill="#72ac0c"/><text x="57" y="46" fill="#000000" style="font-family: &quot;JetBrains Mono&quot;, &quot;Menlo&quot;, &quot;Consolas&quot;, &quot;DejaVu Sans Mono&quot;, &quot;Liberation Mono&quot;, &quot;Roboto Mono&quot;, &quot;Noto Sans Mono&quot;, monospace; font-size: 16px;" text-anchor="middle" dominant-baseline="central">DKxy</text></g><g data-channel="cell" data-cell-index="1" data-cell-row="0" data-cell-col="1"><rect x="93" y="36" width="48" height="20" fill="#33c8da"/><text x="117" y="46" fill="#000000" style="font-family: &quot;JetBrains Mono&quot;, &quot;Menlo&quot;, &quot;Consolas&quot;, &quot;DejaVu Sans Mono&quot;, &quot;Liberation Mono&quot;, &quot;Roboto Mono&quot;, &quot;Noto Sans Mono&quot;, monospace; font-size: 16px;" text-anchor="middle" dominant-baseline="central">2sgz</text></g><g data-channel="cell" data-cell-index="2" data-cell-row="0" data-cell-col="2"><rect x="153" y="36" width="48" height="20" fill="#72997e"/><text x="177" y="46" fill="#000000" style="font-family: &quot;JetBrains Mono&quot;, &quot;Menlo&quot;, &quot;Consolas&quot;, &quot;DejaVu Sans Mono&quot;, &quot;Liberation Mono&quot;, &quot;Roboto Mono&quot;, &quot;Noto Sans Mono&quot;, monospace; font-size: 16px;" text-anchor="middle" dominant-baseline="central">fply</text></g><g data-channel="cell" data-cell-index="3" data-cell-row="1" data-cell-col="0" data-cell-quartile="4"><rect x="33" y="76" width="48" height="20" fill="#60fbaf"/><text x="57" y="86" fill="#000000" style="font-family: &quot;JetBrains Mono&quot;, &quot;Menlo&quot;, &quot;Consolas&quot;, &quot;DejaVu Sans Mono&quot;, &quot;Liberation Mono&quot;, &quot;Roboto Mono&quot;, &quot;Noto Sans Mono&quot;, monospace; font-size: 16px;" text-anchor="middle" dominant-baseline="central">r_tg</text><polygon points="33,96 33,86 43,96" fill="#000000"/></g><g data-channel="cell" data-cell-index="4" data-cell-row="1" data-cell-col="1" data-cell-quartile="1"><rect x="93" y="76" width="48" height="20" fill="#528cc0"/><text x="117" y="86" fill="#000000" style="font-family: &quot;JetBrains Mono&quot;, &quot;Menlo&quot;, &quot;Consolas&quot;, &quot;DejaVu Sans Mono&quot;, &quot;Liberation Mono&quot;, &quot;Roboto Mono&quot;, &quot;Noto Sans Mono&quot;, monospace; font-size: 16px;" text-anchor="middle" dominant-baseline="central">wIxS</text><polygon points="93,76 103,76 93,86" fill="#000000"/></g><g data-channel="cell" data-cell-index="5" data-cell-row="1" data-cell-col="2" data-cell-blank="true" data-cell-blank-map="true"><rect x="153" y="76" width="48" height="20" rx="10" ry="10" fill="#000000" stroke="#000000" stroke-width="1"/><circle cx="161" cy="93.5" r="3.5" fill="#ffffff" data-blank-map-min="3,0"/><path d="M 172.8,83.5 H 181.2 M 177,79.3 V 87.7" fill="none" stroke="#ffffff" stroke-width="1.925" stroke-linecap="butt" data-blank-map-max="1,1"/></g><g data-channel="cell" data-cell-index="6" data-cell-row="2" data-cell-col="0"><rect x="33" y="116" width="48" height="20" fill="#f6d7d7"/><text x="57" y="126" fill="#000000" style="font-family: &quot;JetBrains Mono&quot;, &quot;Menlo&quot;, &quot;Consolas&quot;, &quot;DejaVu Sans Mono&quot;, &quot;Liberation Mono&quot;, &quot;Roboto Mono&quot;, &quot;Noto Sans Mono&quot;, monospace; font-size: 16px;" text-anchor="middle" dominant-baseline="central">19f2</text></g><g data-channel="cell" data-cell-index="7" data-cell-row="2" data-cell-col="1"><rect x="93" y="116" width="48" height="20" fill="#45c839"/><text x="117" y="126" fill="#000000" style="font-family: &quot;JetBrains Mono&quot;, &quot;Menlo&quot;, &quot;Consolas&quot;, &quot;DejaVu Sans Mono&quot;, &quot;Liberation Mono&quot;, &quot;Roboto Mono&quot;, &quot;Noto Sans Mono&quot;, monospace; font-size: 16px;" text-anchor="middle" dominant-baseline="central">OchF</text></g><g data-channel="cell" data-cell-index="8" data-cell-row="2" data-cell-col="2"><rect x="153" y="116" width="48" height="20" fill="#f0d21e"/><text x="177" y="126" fill="#000000" style="font-family: &quot;JetBrains Mono&quot;, &quot;Menlo&quot;, &quot;Consolas&quot;, &quot;DejaVu Sans Mono&quot;, &quot;Liberation Mono&quot;, &quot;Roboto Mono&quot;, &quot;Noto Sans Mono&quot;, monospace; font-size: 16px;" text-anchor="middle" dominant-baseline="central">HtLw</text></g><g data-channel="cell" data-cell-index="9" data-cell-row="3" data-cell-col="0" data-cell-quartile="2"><rect x="33" y="156" width="48" height="20" fill="#f7603d"/><text x="57" y="166" fill="#000000" style="font-family: &quot;JetBrains Mono&quot;, &quot;Menlo&quot;, &quot;Consolas&quot;, &quot;DejaVu Sans Mono&quot;, &quot;Liberation Mono&quot;, &quot;Roboto Mono&quot;, &quot;Noto Sans Mono&quot;, monospace; font-size: 16px;" text-anchor="middle" dominant-baseline="central">PWD3</text><polygon points="81,156 71,156 81,166" fill="#000000"/></g><g data-channel="cell" data-cell-index="10" data-cell-row="3" data-cell-col="1"><rect x="93" y="156" width="48" height="20" fill="#188abf"/><text x="117" y="166" fill="#ffffff" style="font-family: &quot;JetBrains Mono&quot;, &quot;Menlo&quot;, &quot;Consolas&quot;, &quot;DejaVu Sans Mono&quot;, &quot;Liberation Mono&quot;, &quot;Roboto Mono&quot;, &quot;Noto Sans Mono&quot;, monospace; font-size: 16px;" text-anchor="middle" dominant-baseline="central">v4oY</text></g><g data-channel="cell" data-cell-index="11" data-cell-row="3" data-cell-col="2" data-cell-quartile="3"><rect x="153" y="156" width="48" height="20" fill="#71608a"/><text x="177" y="166" fill="#ffffff" style="font-family: &quot;JetBrains Mono&quot;, &quot;Menlo&quot;, &quot;Consolas&quot;, &quot;DejaVu Sans Mono&quot;, &quot;Liberation Mono&quot;, &quot;Roboto Mono&quot;, &quot;Noto Sans Mono&quot;, monospace; font-size: 16px;" text-anchor="middle" dominant-baseline="central">imBx</text><polygon points="201,176 201,166 191,176" fill="#ffffff"/></g></g></g><g data-channel="color-bar" data-bar-slots="15" data-bar-marker-left="13" data-bar-marker-right="12"><g data-color-bar-rank="0" data-color-bar-band="B"><rect x="1" y="1" width="20" height="50.857" fill="#2f3fbf"/><text x="11" y="48.337" fill="#ffffff" style="font-family: &quot;JetBrains Mono&quot;, &quot;Menlo&quot;, &quot;Consolas&quot;, &quot;DejaVu Sans Mono&quot;, &quot;Liberation Mono&quot;, &quot;Roboto Mono&quot;, &quot;Noto Sans Mono&quot;, monospace; font-size: 16px;" text-anchor="middle" data-color-bar-letter="true">b</text></g><g data-color-bar-rank="1" data-color-bar-band="G"><rect x="1" y="51.857" width="20" height="76.114" fill="#e7be00"/><text x="11" y="124.451" fill="#000000" style="font-family: &quot;JetBrains Mono&quot;, &quot;Menlo&quot;, &quot;Consolas&quot;, &quot;DejaVu Sans Mono&quot;, &quot;Liberation Mono&quot;, &quot;Roboto Mono&quot;, &quot;Noto Sans Mono&quot;, monospace; font-size: 16px;" text-anchor="middle" data-color-bar-letter="true">g</text></g><g data-color-bar-rank="2" data-color-bar-band="W"><rect x="1" y="127.971" width="20" height="34.736" fill="#ffffff"/><text x="11" y="159.187" fill="#000000" style="font-family: &quot;JetBrains Mono&quot;, &quot;Menlo&quot;, &quot;Consolas&quot;, &quot;DejaVu Sans Mono&quot;, &quot;Liberation Mono&quot;, &quot;Roboto Mono&quot;, &quot;Noto Sans Mono&quot;, monospace; font-size: 16px;" text-anchor="middle" data-color-bar-letter="true">w</text></g><g data-color-bar-rank="3" data-color-bar-band="K"><rect x="1" y="162.707" width="20" height="28.293" fill="#000000"/><text x="11" y="187.48" fill="#ffffff" style="font-family: &quot;JetBrains Mono&quot;, &quot;Menlo&quot;, &quot;Consolas&quot;, &quot;DejaVu Sans Mono&quot;, &quot;Liberation Mono&quot;, &quot;Roboto Mono&quot;, &quot;Noto Sans Mono&quot;, monospace; font-size: 16px;" text-anchor="middle" data-color-bar-letter="true">k</text></g><circle cx="5.6" cy="172" r="3.4" fill="#ffffff" stroke="#000000" stroke-width="0.75" data-bar-marker="left"/><circle cx="16.4" cy="159.333" r="3.4" fill="#ffffff" stroke="#000000" stroke-width="0.75" data-bar-marker="right"/></g><g data-channel="label-top"><text x="27" y="16" fill="#666666" style="font-family: &quot;JetBrains Mono&quot;, &quot;Menlo&quot;, &quot;Consolas&quot;, &quot;DejaVu Sans Mono&quot;, &quot;Liberation Mono&quot;, &quot;Roboto Mono&quot;, &quot;Noto Sans Mono&quot;, monospace; font-size: 12px;" dominant-baseline="central">CESR Ed25519 pubkey:</text></g><line x1="0" y1="0.5" x2="213" y2="0.5" stroke="#808080" stroke-width="1" shape-rendering="crispEdges"/><line x1="212.5" y1="0" x2="212.5" y2="192" stroke="#808080" stroke-width="1" shape-rendering="crispEdges"/><line x1="0" y1="191.5" x2="213" y2="191.5" stroke="#808080" stroke-width="1" shape-rendering="crispEdges"/><line x1="0.5" y1="0" x2="0.5" y2="192" stroke="#808080" stroke-width="1" shape-rendering="crispEdges"/><line x1="21.5" y1="0" x2="21.5" y2="192" stroke="#808080" stroke-width="1" shape-rendering="crispEdges"/></svg>