<svg width="269.0" height="254.0" xmlns="http://www.w3.org/2000/svg"><defs><clipPath id="bounding-clip"><rect x="0" y="0" width="269.0" height="254.0"/></clipPath><linearGradient id="g0" gradientUnits="userSpaceOnUse" x1="28.0" y1="13.0" x2="28.0" y2="5.0"><stop offset="0%" stop-color="#beadde"/><stop offset="100%" stop-color="#2f3fbf"/></linearGradient><linearGradient id="g1" gradientUnits="userSpaceOnUse" x1="52.0" y1="13.0" x2="52.0" y2="5.0"><stop offset="0%" stop-color="#beadde"/><stop offset="100%" stop-color="#ffd966"/></linearGradient><linearGradient id="g2" gradientUnits="userSpaceOnUse" x1="64.0" y1="21.0" x2="72.0" y2="21.0"><stop offset="0%" stop-color="#beadde"/><stop offset="100%" stop-color="#ffd966"/></linearGradient><linearGradient id="g3" gradientUnits="userSpaceOnUse" x1="52.0" y1="29.0" x2="52.0" y2="37.0"><stop offset="0%" stop-color="#beadde"/><stop offset="100%" stop-color="#000000"/></linearGradient><linearGradient id="g4" gradientUnits="userSpaceOnUse" x1="28.0" y1="29.0" x2="28.0" y2="37.0"><stop offset="0%" stop-color="#beadde"/><stop offset="100%" stop-color="#2f3fbf"/></linearGradient><linearGradient id="g5" gradientUnits="userSpaceOnUse" x1="16.0" y1="21.0" x2="8.0" y2="21.0"><stop offset="0%" stop-color="#beadde"/><stop offset="100%" stop-color="#000000"/></linearGradient><linearGradient id="g6" gradientUnits="userSpaceOnUse" x1="92.0" y1="13.0" x2="92.0" y2="5.0"><stop offset="0%" stop-color="#addeef"/><stop offset="100%" stop-color="#ffffff"/></linearGradient><linearGradient id="g7" gradientUnits="userSpaceOnUse" x1="116.0" y1="13.0" x2="116.0" y2="5.0"><stop offset="0%" stop-color="#addeef"/><stop offset="100%" stop-color="#2f3fbf"/></linearGradient><linearGradient id="g8" gradientUnits="userSpaceOnUse" x1="128.0" y1="21.0" x2="136.0" y2="21.0"><stop offset="0%" stop-color="#addeef"/><stop offset="100%" stop-color="#ffd966"/></linearGradient><linearGradient id="g9" gradientUnits="userSpaceOnUse" x1="116.0" y1="29.0" x2="116.0" y2="37.0"><stop offset="0%" stop-color="#addeef"/><stop offset="100%" stop-color="#2f3fbf"/></linearGradient><linearGradient id="g10" gradientUnits="userSpaceOnUse" x1="92.0" y1="29.0" x2="92.0" y2="37.0"><stop offset="0%" stop-color="#addeef"/><stop offset="100%" stop-color="#ffffff"/></linearGradient><linearGradient id="g11" gradientUnits="userSpaceOnUse" x1="80.0" y1="21.0" x2="72.0" y2="21.0"><stop offset="0%" stop-color="#addeef"/><stop offset="100%" stop-color="#000000"/></linearGradient><linearGradient id="g12" gradientUnits="userSpaceOnUse" x1="220.0" y1="13.0" x2="220.0" y2="5.0"><stop offset="0%" stop-color="#deefbe"/><stop offset="100%" stop-color="#ffd966"/></linearGradient><linearGradient id="g13" gradientUnits="userSpaceOnUse" x1="244.0" y1="13.0" x2="244.0" y2="5.0"><stop offset="0%" stop-color="#deefbe"/><stop offset="100%" stop-color="#ffd966"/></linearGradient><linearGradient id="g14" gradientUnits="userSpaceOnUse" x1="256.0" y1="21.0" x2="264.0" y2="21.0"><stop offset="0%" stop-color="#deefbe"/><stop offset="100%" stop-color="#ffd966"/></linearGradient><linearGradient id="g15" gradientUnits="userSpaceOnUse" x1="244.0" y1="29.0" x2="244.0" y2="37.0"><stop offset="0%" stop-color="#deefbe"/><stop offset="100%" stop-color="#ffffff"/></linearGradient><linearGradient id="g16" gradientUnits="userSpaceOnUse" x1="220.0" y1="29.0" x2="220.0" y2="37.0"><stop offset="0%" stop-color="#deefbe"/><stop offset="100%" stop-color="#2f3fbf"/></linearGradient><linearGradient id="g17" gradientUnits="userSpaceOnUse" x1="208.0" y1="21.0" x2="200.0" y2="21.0"><stop offset="0%" stop-color="#deefbe"/><stop offset="100%" stop-color="#2f3fbf"/></linearGradient><linearGradient id="g18" gradientUnits="userSpaceOnUse" x1="28.0" y1="45.0" x2="28.0" y2="37.0"><stop offset="0%" stop-color="#efbead"/><stop offset="100%" stop-color="#2f3fbf"/></linearGradient><linearGradient id="g19" gradientUnits="userSpaceOnUse" x1="52.0" y1="45.0" x2="52.0" y2="37.0"><stop offset="0%" stop-color="#efbead"/><stop offset="100%" stop-color="#2f3fbf"/></linearGradient><linearGradient id="g20" gradientUnits="userSpaceOnUse" x1="64.0" y1="53.0" x2="72.0" y2="53.0"><stop offset="0%" stop-color="#efbead"/><stop offset="100%" stop-color="#2f3fbf"/></linearGradient><linearGradient id="g21" gradientUnits="userSpaceOnUse" x1="52.0" y1="61.0" x2="52.0" y2="69.0"><stop offset="0%" stop-color="#efbead"/><stop offset="100%" stop-color="#ffd966"/></linearGradient><linearGradient id="g22" gradientUnits="userSpaceOnUse" x1="28.0" y1="61.0" x2="28.0" y2="69.0"><stop offset="0%" stop-color="#efbead"/><stop offset="100%" stop-color="#000000"/></linearGradient><linearGradient id="g23" gradientUnits="userSpaceOnUse" x1="16.0" y1="53.0" x2="8.0" y2="53.0"><stop offset="0%" stop-color="#efbead"/><stop offset="100%" stop-color="#2f3fbf"/></linearGradient><linearGradient id="g24" gradientUnits="userSpaceOnUse" x1="156.0" y1="45.0" x2="156.0" y2="37.0"><stop offset="0%" stop-color="#beadde"/><stop offset="100%" stop-color="#2f3fbf"/></linearGradient><linearGradient id="g25" gradientUnits="userSpaceOnUse" x1="180.0" y1="45.0" x2="180.0" y2="37.0"><stop offset="0%" stop-color="#beadde"/><stop offset="100%" stop-color="#000000"/></linearGradient><linearGradient id="g26" gradientUnits="userSpaceOnUse" x1="192.0" y1="53.0" x2="200.0" y2="53.0"><stop offset="0%" stop-color="#beadde"/><stop offset="100%" stop-color="#ffffff"/></linearGradient><linearGradient id="g27" gradientUnits="userSpaceOnUse" x1="180.0" y1="61.0" x2="180.0" y2="69.0"><stop offset="0%" stop-color="#beadde"/><stop offset="100%" stop-color="#ffd966"/></linearGradient><linearGradient id="g28" gradientUnits="userSpaceOnUse" x1="156.0" y1="61.0" x2="156.0" y2="69.0"><stop offset="0%" stop-color="#beadde"/><stop offset="100%" stop-color="#ffd966"/></linearGradient><linearGradient id="g29" gradientUnits="userSpaceOnUse" x1="144.0" y1="53.0" x2="136.0" y2="53.0"><stop offset="0%" stop-color="#beadde"/><stop offset="100%" stop-color="#000000"/></linearGradient><linearGradient id="g30" gradientUnits="userSpaceOnUse" x1="220.0" y1="45.0" x2="220.0" y2="37.0"><stop offset="0%" stop-color="#addeef"/><stop offset="100%" stop-color="#ffd966"/></linearGradient><linearGradient id="g31" gradientUnits="userSpaceOnUse" x1="244.0" y1="45.0" x2="244.0" y2="37.0"><stop offset="0%" stop-color="#addeef"/><stop offset="100%" stop-color="#000000"/></linearGradient><linearGradient id="g32" gradientUnits="userSpaceOnUse" x1="256.0" y1="53.0" x2="264.0" y2="53.0"><stop offset="0%" stop-color="#addeef"/><stop offset="100%" stop-color="#ffd966"/></linearGradient><linearGradient id="g33" gradientUnits="userSpaceOnUse" x1="244.0" y1="61.0" x2="244.0" y2="69.0"><stop offset="0%" stop-color="#addeef"/><stop offset="100%" stop-color="#ffffff"/></linearGradient><linearGradient id="g34" gradientUnits="userSpaceOnUse" x1="220.0" y1="61.0" x2="220.0" y2="69.0"><stop offset="0%" stop-color="#addeef"/><stop offset="100%" stop-color="#ffd966"/></linearGradient><linearGradient id="g35" gradientUnits="userSpaceOnUse" x1="208.0" y1="53.0" x2="200.0" y2="53.0"><stop offset="0%" stop-color="#addeef"/><stop offset="100%" stop-color="#000000"/></linearGradient><linearGradient id="g36" gradientUnits="userSpaceOnUse" x1="28.0" y1="77.0" x2="28.0" y2="69.0"><stop offset="0%" stop-color="#deefbe"/><stop offset="100%" stop-color="#000000"/></linearGradient><linearGradient id="g37" gradientUnits="userSpaceOnUse" x1="52.0" y1="77.0" x2="52.0" y2="69.0"><stop offset="0%" stop-color="#deefbe"/><stop offset="100%" stop-color="#2f3fbf"/></linearGradient><linearGradient id="g38" gradientUnits="userSpaceOnUse" x1="64.0" y1="85.0" x2="72.0" y2="85.0"><stop offset="0%" stop-color="#deefbe"/><stop offset="100%" stop-color="#ffffff"/></linearGradient><linearGradient id="g39" gradientUnits="userSpaceOnUse" x1="52.0" y1="93.0" x2="52.0" y2="101.0"><stop offset="0%" stop-color="#deefbe"/><stop offset="100%" stop-color="#2f3fbf"/></linearGradient><linearGradient id="g40" gradientUnits="userSpaceOnUse" x1="28.0" y1="93.0" x2="28.0" y2="101.0"><stop offset="0%" stop-color="#deefbe"/><stop offset="100%" stop-color="#ffd966"/></linearGradient><linearGradient id="g41" gradientUnits="userSpaceOnUse" x1="16.0" y1="85.0" x2="8.0" y2="85.0"><stop offset="0%" stop-color="#deefbe"/><stop offset="100%" stop-color="#ffffff"/></linearGradient><linearGradient id="g42" gradientUnits="userSpaceOnUse" x1="92.0" y1="77.0" x2="92.0" y2="69.0"><stop offset="0%" stop-color="#efbead"/><stop offset="100%" stop-color="#ffffff"/></linearGradient><linearGradient id="g43" gradientUnits="userSpaceOnUse" x1="116.0" y1="77.0" x2="116.0" y2="69.0"><stop offset="0%" stop-color="#efbead"/><stop offset="100%" stop-color="#ffffff"/></linearGradient><linearGradient id="g44" gradientUnits="userSpaceOnUse" x1="128.0" y1="85.0" x2="136.0" y2="85.0"><stop offset="0%" stop-color="#efbead"/><stop offset="100%" stop-color="#000000"/></linearGradient><linearGradient id="g45" gradientUnits="userSpaceOnUse" x1="116.0" y1="93.0" x2="116.0" y2="101.0"><stop offset="0%" stop-color="#efbead"/><stop offset="100%" stop-color="#ffffff"/></linearGradient><linearGradient id="g46" gradientUnits="userSpaceOnUse" x1="92.0" y1="93.0" x2="92.0" y2="101.0"><stop offset="0%" stop-color="#efbead"/><stop offset="100%" stop-color="#000000"/></linearGradient><linearGradient id="g47" gradientUnits="userSpaceOnUse" x1="80.0" y1="85.0" x2="72.0" y2="85.0"><stop offset="0%" stop-color="#efbead"/><stop offset="100%" stop-color="#ffffff"/></linearGradient><linearGradient id="g48" gradientUnits="userSpaceOnUse" x1="156.0" y1="77.0" x2="156.0" y2="69.0"><stop offset="0%" stop-color="#beadde"/><stop offset="100%" stop-color="#2f3fbf"/></linearGradient><linearGradient id="g49" gradientUnits="userSpaceOnUse" x1="180.0" y1="77.0" x2="180.0" y2="69.0"><stop offset="0%" stop-color="#beadde"/><stop offset="100%" stop-color="#2f3fbf"/></linearGradient><linearGradient id="g50" gradientUnits="userSpaceOnUse" x1="192.0" y1="85.0" x2="200.0" y2="85.0"><stop offset="0%" stop-color="#beadde"/><stop offset="100%" stop-color="#ffd966"/></linearGradient><linearGradient id="g51" gradientUnits="userSpaceOnUse" x1="180.0" y1="93.0" x2="180.0" y2="101.0"><stop offset="0%" stop-color="#beadde"/><stop offset="100%" stop-color="#ffffff"/></linearGradient><linearGradient id="g52" gradientUnits="userSpaceOnUse" x1="156.0" y1="93.0" x2="156.0" y2="101.0"><stop offset="0%" stop-color="#beadde"/><stop offset="100%" stop-color="#2f3fbf"/></linearGradient><linearGradient id="g53" gradientUnits="userSpaceOnUse" x1="144.0" y1="85.0" x2="136.0" y2="85.0"><stop offset="0%" stop-color="#beadde"/><stop offset="100%" stop-color="#ffd966"/></linearGradient><linearGradient id="g54" gradientUnits="userSpaceOnUse" x1="220.0" y1="77.0" x2="220.0" y2="69.0"><stop offset="0%" stop-color="#addeef"/><stop offset="100%" stop-color="#000000"/></linearGradient><linearGradient id="g55" gradientUnits="userSpaceOnUse" x1="244.0" y1="77.0" x2="244.0" y2="69.0"><stop offset="0%" stop-color="#addeef"/><stop offset="100%" stop-color="#2f3fbf"/></linearGradient><linearGradient id="g56" gradientUnits="userSpaceOnUse" x1="256.0" y1="85.0" x2="264.0" y2="85.0"><stop offset="0%" stop-color="#addeef"/><stop offset="100%" stop-color="#ffd966"/></linearGradient><linearGradient id="g57" gradientUnits="userSpaceOnUse" x1="244.0" y1="93.0" x2="244.0" y2="101.0"><stop offset="0%" stop-color="#addeef"/><stop offset="100%" stop-color="#ffd966"/></linearGradient><linearGradient id="g58" gradientUnits="userSpaceOnUse" x1="220.0" y1="93.0" x2="220.0" y2="101.0"><stop offset="0%" stop-color="#addeef"/><stop offset="100%" stop-color="#ffffff"/></linearGradient><linearGradient id="g59" gradientUnits="userSpaceOnUse" x1="208.0" y1="85.0" x2="200.0" y2="85.0"><stop offset="0%" stop-color="#addeef"/><stop offset="100%" stop-color="#000000"/></linearGradient><linearGradient id="g60" gradientUnits="userSpaceOnUse" x1="28.0" y1="109.0" x2="28.0" y2="101.0"><stop offset="0%" stop-color="#efefbe"/><stop offset="100%" stop-color="#ffffff"/></linearGradient><linearGradient id="g61" gradientUnits="userSpaceOnUse" x1="52.0" y1="109.0" x2="52.0" y2="101.0"><stop offset="0%" stop-color="#efefbe"/><stop offset="100%" stop-color="#2f3fbf"/></linearGradient><linearGradient id="g62" gradientUnits="userSpaceOnUse" x1="64.0" y1="117.0" x2="72.0" y2="117.0"><stop offset="0%" stop-color="#efefbe"/><stop offset="100%" stop-color="#2f3fbf"/></linearGradient><linearGradient id="g63" gradientUnits="userSpaceOnUse" x1="52.0" y1="125.0" x2="52.0" y2="133.0"><stop offset="0%" stop-color="#efefbe"/><stop offset="100%" stop-color="#ffffff"/></linearGradient><linearGradient id="g64" gradientUnits="userSpaceOnUse" x1="28.0" y1="125.0" x2="28.0" y2="133.0"><stop offset="0%" stop-color="#efefbe"/><stop offset="100%" stop-color="#000000"/></linearGradient><linearGradient id="g65" gradientUnits="userSpaceOnUse" x1="16.0" y1="117.0" x2="8.0" y2="117.0"><stop offset="0%" stop-color="#efefbe"/><stop offset="100%" stop-color="#2f3fbf"/></linearGradient><linearGradient id="g66" gradientUnits="userSpaceOnUse" x1="156.0" y1="109.0" x2="156.0" y2="101.0"><stop offset="0%" stop-color="#beadde"/><stop offset="100%" stop-color="#2f3fbf"/></linearGradient><linearGradient id="g67" gradientUnits="userSpaceOnUse" x1="180.0" y1="109.0" x2="180.0" y2="101.0"><stop offset="0%" stop-color="#beadde"/><stop offset="100%" stop-color="#ffd966"/></linearGradient><linearGradient id="g68" gradientUnits="userSpaceOnUse" x1="192.0" y1="117.0" x2="200.0" y2="117.0"><stop offset="0%" stop-color="#beadde"/><stop offset="100%" stop-color="#000000"/></linearGradient><linearGradient id="g69" gradientUnits="userSpaceOnUse" x1="180.0" y1="125.0" x2="180.0" y2="133.0"><stop offset="0%" stop-color="#beadde"/><stop offset="100%" stop-color="#ffd966"/></linearGradient><linearGradient id="g70" gradientUnits="userSpaceOnUse" x1="156.0" y1="125.0" x2="156.0" y2="133.0"><stop offset="0%" stop-color="#beadde"/><stop offset="100%" stop-color="#ffd966"/></linearGradient><linearGradient id="g71" gradientUnits="userSpaceOnUse" x1="144.0" y1="117.0" x2="136.0" y2="117.0"><stop offset="0%" stop-color="#beadde"/><stop offset="100%" stop-color="#ffd966"/></linearGradient><linearGradient id="g72" gradientUnits="userSpaceOnUse" x1="28.0" y1="141.0" x2="28.0" y2="133.0"><stop offset="0%" stop-color="#addeef"/><stop offset="100%" stop-color="#ffd966"/></linearGradient><linearGradient id="g73" gradientUnits="userSpaceOnUse" x1="52.0" y1="141.0" x2="52.0" y2="133.0"><stop offset="0%" stop-color="#addeef"/><stop offset="100%" stop-color="#ffd966"/></linearGradient><linearGradient id="g74" gradientUnits="userSpaceOnUse" x1="64.0" y1="149.0" x2="72.0" y2="149.0"><stop offset="0%" stop-color="#addeef"/><stop offset="100%" stop-color="#000000"/></linearGradient><linearGradient id="g75" gradientUnits="userSpaceOnUse" x1="52.0" y1="157.0" x2="52.0" y2="165.0"><stop offset="0%" stop-color="#addeef"/><stop offset="100%" stop-color="#000000"/></linearGradient><linearGradient id="g76" gradientUnits="userSpaceOnUse" x1="28.0" y1="157.0" x2="28.0" y2="165.0"><stop offset="0%" stop-color="#addeef"/><stop offset="100%" stop-color="#000000"/></linearGradient><linearGradient id="g77" gradientUnits="userSpaceOnUse" x1="16.0" y1="149.0" x2="8.0" y2="149.0"><stop offset="0%" stop-color="#addeef"/><stop offset="100%" stop-color="#000000"/></linearGradient><linearGradient id="g78" gradientUnits="userSpaceOnUse" x1="92.0" y1="141.0" x2="92.0" y2="133.0"><stop offset="0%" stop-color="#deefbe"/><stop offset="100%" stop-color="#ffd966"/></linearGradient><linearGradient id="g79" gradientUnits="userSpaceOnUse" x1="116.0" y1="141.0" x2="116.0" y2="133.0"><stop offset="0%" stop-color="#deefbe"/><stop offset="100%" stop-color="#ffffff"/></linearGradient><linearGradient id="g80" gradientUnits="userSpaceOnUse" x1="128.0" y1="149.0" x2="136.0" y2="149.0"><stop offset="0%" stop-color="#deefbe"/><stop offset="100%" stop-color="#ffd966"/></linearGradient><linearGradient id="g81" gradientUnits="userSpaceOnUse" x1="116.0" y1="157.0" x2="116.0" y2="165.0"><stop offset="0%" stop-color="#deefbe"/><stop offset="100%" stop-color="#2f3fbf"/></linearGradient><linearGradient id="g82" gradientUnits="userSpaceOnUse" x1="92.0" y1="157.0" x2="92.0" y2="165.0"><stop offset="0%" stop-color="#deefbe"/><stop offset="100%" stop-color="#ffd966"/></linearGradient><linearGradient id="g83" gradientUnits="userSpaceOnUse" x1="80.0" y1="149.0" x2="72.0" y2="149.0"><stop offset="0%" stop-color="#deefbe"/><stop offset="100%" stop-color="#ffd966"/></linearGradient><linearGradient id="g84" gradientUnits="userSpaceOnUse" x1="156.0" y1="141.0" x2="156.0" y2="133.0"><stop offset="0%" stop-color="#efbead"/><stop offset="100%" stop-color="#000000"/></linearGradient><linearGradient id="g85" gradientUnits="userSpaceOnUse" x1="180.0" y1="141.0" x2="180.0" y2="133.0"><stop offset="0%" stop-color="#efbead"/><stop offset="100%" stop-color="#000000"/></linearGradient><linearGradient id="g86" gradientUnits="userSpaceOnUse" x1="192.0" y1="149.0" x2="200.0" y2="149.0"><stop offset="0%" stop-color="#efbead"/><stop offset="100%" stop-color="#ffd966"/></linearGradient><linearGradient id="g87" gradientUnits="userSpaceOnUse" x1="180.0" y1="157.0" x2="180.0" y2="165.0"><stop offset="0%" stop-color="#efbead"/><stop offset="100%" stop-color="#ffffff"/></linearGradient><linearGradient id="g88" gradientUnits="userSpaceOnUse" x1="156.0" y1="157.0" x2="156.0" y2="165.0"><stop offset="0%" stop-color="#efbead"/><stop offset="100%" stop-color="#ffd966"/></linearGradient><linearGradient id="g89" gradientUnits="userSpaceOnUse" x1="144.0" y1="149.0" x2="136.0" y2="149.0"><stop offset="0%" stop-color="#efbead"/><stop offset="100%" stop-color="#2f3fbf"/></linearGradient><linearGradient id="g90" gradientUnits="userSpaceOnUse" x1="220.0" y1="141.0" x2="220.0" y2="133.0"><stop offset="0%" stop-color="#beadde"/><stop offset="100%" stop-color="#2f3fbf"/></linearGradient><linearGradient id="g91" gradientUnits="userSpaceOnUse" x1="244.0" y1="141.0" x2="244.0" y2="133.0"><stop offset="0%" stop-color="#beadde"/><stop offset="100%" stop-color="#000000"/></linearGradient><linearGradient id="g92" gradientUnits="userSpaceOnUse" x1="256.0" y1="149.0" x2="264.0" y2="149.0"><stop offset="0%" stop-color="#beadde"/><stop offset="100%" stop-color="#ffffff"/></linearGradient><linearGradient id="g93" gradientUnits="userSpaceOnUse" x1="244.0" y1="157.0" x2="244.0" y2="165.0"><stop offset="0%" stop-color="#beadde"/><stop offset="100%" stop-color="#2f3fbf"/></linearGradient><linearGradient id="g94" gradientUnits="userSpaceOnUse" x1="220.0" y1="157.0" x2="220.0" y2="165.0"><stop offset="0%" stop-color="#beadde"/><stop offset="100%" stop-color="#000000"/></linearGradient><linearGradient id="g95" gradientUnits="userSpaceOnUse" x1="208.0" y1="149.0" x2="200.0" y2="149.0"><stop offset="0%" stop-color="#beadde"/><stop offset="100%" stop-color="#ffd966"/></linearGradient><linearGradient id="g96" gradientUnits="userSpaceOnUse" x1="28.0" y1="173.0" x2="28.0" y2="165.0"><stop offset="0%" stop-color="#addeef"/><stop offset="100%" stop-color="#ffd966"/></linearGradient><linearGradient id="g97" gradientUnits="userSpaceOnUse" x1="52.0" y1="173.0" x2="52.0" y2="165.0"><stop offset="0%" stop-color="#addeef"/><stop offset="100%" stop-color="#ffffff"/></linearGradient><linearGradient id="g98" gradientUnits="userSpaceOnUse" x1="64.0" y1="181.0" x2="72.0" y2="181.0"><stop offset="0%" stop-color="#addeef"/><stop offset="100%" stop-color="#ffffff"/></linearGradient><linearGradient id="g99" gradientUnits="userSpaceOnUse" x1="52.0" y1="189.0" x2="52.0" y2="197.0"><stop offset="0%" stop-color="#addeef"/><stop offset="100%" stop-color="#2f3fbf"/></linearGradient><linearGradient id="g100" gradientUnits="userSpaceOnUse" x1="28.0" y1="189.0" x2="28.0" y2="197.0"><stop offset="0%" stop-color="#addeef"/><stop offset="100%" stop-color="#2f3fbf"/></linearGradient><linearGradient id="g101" gradientUnits="userSpaceOnUse" x1="16.0" y1="181.0" x2="8.0" y2="181.0"><stop offset="0%" stop-color="#addeef"/><stop offset="100%" stop-color="#000000"/></linearGradient><linearGradient id="g102" gradientUnits="userSpaceOnUse" x1="92.0" y1="173.0" x2="92.0" y2="165.0"><stop offset="0%" stop-color="#deefbe"/><stop offset="100%" stop-color="#ffd966"/></linearGradient><linearGradient id="g103" gradientUnits="userSpaceOnUse" x1="116.0" y1="173.0" x2="116.0" y2="165.0"><stop offset="0%" stop-color="#deefbe"/><stop offset="100%" stop-color="#000000"/></linearGradient><linearGradient id="g104" gradientUnits="userSpaceOnUse" x1="128.0" y1="181.0" x2="136.0" y2="181.0"><stop offset="0%" stop-color="#deefbe"/><stop offset="100%" stop-color="#ffffff"/></linearGradient><linearGradient id="g105" gradientUnits="userSpaceOnUse" x1="116.0" y1="189.0" x2="116.0" y2="197.0"><stop offset="0%" stop-color="#deefbe"/><stop offset="100%" stop-color="#ffd966"/></linearGradient><linearGradient id="g106" gradientUnits="userSpaceOnUse" x1="92.0" y1="189.0" x2="92.0" y2="197.0"><stop offset="0%" stop-color="#deefbe"/><stop offset="100%" stop-color="#ffffff"/></linearGradient><linearGradient id="g107" gradientUnits="userSpaceOnUse" x1="80.0" y1="181.0" x2="72.0" y2="181.0"><stop offset="0%" stop-color="#deefbe"/><stop offset="100%" stop-color="#ffffff"/></linearGradient><linearGradient id="g108" gradientUnits="userSpaceOnUse" x1="156.0" y1="173.0" x2="156.0" y2="165.0"><stop offset="0%" stop-color="#efbead"/><stop offset="100%" stop-color="#ffd966"/></linearGradient><linearGradient id="g109" gradientUnits="userSpaceOnUse" x1="180.0" y1="173.0" x2="180.0" y2="165.0"><stop offset="0%" stop-color="#efbead"/><stop offset="100%" stop-color="#ffffff"/></linearGradient><linearGradient id="g110" gradientUnits="userSpaceOnUse" x1="192.0" y1="181.0" x2="200.0" y2="181.0"><stop offset="0%" stop-color="#efbead"/><stop offset="100%" stop-color="#2f3fbf"/></linearGradient><linearGradient id="g111" gradientUnits="userSpaceOnUse" x1="180.0" y1="189.0" x2="180.0" y2="197.0"><stop offset="0%" stop-color="#efbead"/><stop offset="100%" stop-color="#ffffff"/></linearGradient><linearGradient id="g112" gradientUnits="userSpaceOnUse" x1="156.0" y1="189.0" x2="156.0" y2="197.0"><stop offset="0%" stop-color="#efbead"/><stop offset="100%" stop-color="#000000"/></linearGradient><linearGradient id="g113" gradientUnits="userSpaceOnUse" x1="144.0" y1="181.0" x2="136.0" y2="181.0"><stop offset="0%" stop-color="#efbead"/><stop offset="100%" stop-color="#ffd966"/></linearGradient><linearGradient id="g114" gradientUnits="userSpaceOnUse" x1="220.0" y1="173.0" x2="220.0" y2="165.0"><stop offset="0%" stop-color="#beadde"/><stop offset="100%" stop-color="#ffffff"/></linearGradient><linearGradient id="g115" gradientUnits="userSpaceOnUse" x1="244.0" y1="173.0" x2="244.0" y2="165.0"><stop offset="0%" stop-color="#beadde"/><stop offset="100%" stop-color="#2f3fbf"/></linearGradient><linearGradient id="g116" gradientUnits="userSpaceOnUse" x1="256.0" y1="181.0" x2="264.0" y2="181.0"><stop offset="0%" stop-color="#beadde"/><stop offset="100%" stop-color="#000000"/></linearGradient><linearGradient id="g117" gradientUnits="userSpaceOnUse" x1="244.0" y1="189.0" x2="244.0" y2="197.0"><stop offset="0%" stop-color="#beadde"/><stop offset="100%" stop-color="#ffd966"/></linearGradient><linearGradient id="g118" gradientUnits="userSpaceOnUse" x1="220.0" y1="189.0" x2="220.0" y2="197.0"><stop offset="0%" stop-color="#beadde"/><stop offset="100%" stop-color="#ffd966"/></linearGradient><linearGradient id="g119" gradientUnits="userSpaceOnUse" x1="208.0" y1="181.0" x2="200.0" y2="181.0"><stop offset="0%" stop-color="#beadde"/><stop offset="100%" stop-color="#ffffff"/></linearGradient><linearGradient id="g120" gradientUnits="userSpaceOnUse" x1="28.0" y1="205.0" x2="28.0" y2="197.0"><stop offset="0%" stop-color="#addeef"/><stop offset="100%" stop-color="#000000"/></linearGradient><linearGradient id="g121" gradientUnits="userSpaceOnUse" x1="52.0" y1="205.0" x2="52.0" y2="197.0"><stop offset="0%" stop-color="#addeef"/><stop offset="100%" stop-color="#000000"/></linearGradient><linearGradient id="g122" gradientUnits="userSpaceOnUse" x1="64.0" y1="213.0" x2="72.0" y2="213.0"><stop offset="0%" stop-color="#addeef"/><stop offset="100%" stop-color="#ffffff"/></linearGradient><linearGradient id="g123" gradientUnits="userSpaceOnUse" x1="52.0" y1="221.0" x2="52.0" y2="229.0"><stop offset="0%" stop-color="#addeef"/><stop offset="100%" stop-color="#000000"/></linearGradient><linearGradient id="g124" gradientUnits="userSpaceOnUse" x1="28.0" y1="221.0" x2="28.0" y2="229.0"><stop offset="0%" stop-color="#addeef"/><stop offset="100%" stop-color="#ffd966"/></linearGradient><linearGradient id="g125" gradientUnits="userSpaceOnUse" x1="16.0" y1="213.0" x2="8.0" y2="213.0"><stop offset="0%" stop-color="#addeef"/><stop offset="100%" stop-color="#000000"/></linearGradient><linearGradient id="g126" gradientUnits="userSpaceOnUse" x1="92.0" y1="205.0" x2="92.0" y2="197.0"><stop offset="0%" stop-color="#efefbe"/><stop offset="100%" stop-color="#2f3fbf"/></linearGradient><linearGradient id="g127" gradientUnits="userSpaceOnUse" x1="116.0" y1="205.0" x2="116.0" y2="197.0"><stop offset="0%" stop-color="#efefbe"/><stop offset="100%" stop-color="#2f3fbf"/></linearGradient><linearGradient id="g128" gradientUnits="userSpaceOnUse" x1="128.0" y1="213.0" x2="136.0" y2="213.0"><stop offset="0%" stop-color="#efefbe"/><stop offset="100%" stop-color="#ffd966"/></linearGradient><linearGradient id="g129" gradientUnits="userSpaceOnUse" x1="116.0" y1="221.0" x2="116.0" y2="229.0"><stop offset="0%" stop-color="#efefbe"/><stop offset="100%" stop-color="#ffd966"/></linearGradient><linearGradient id="g130" gradientUnits="userSpaceOnUse" x1="92.0" y1="221.0" x2="92.0" y2="229.0"><stop offset="0%" stop-color="#efefbe"/><stop offset="100%" stop-color="#000000"/></linearGradient><linearGradient id="g131" gradientUnits="userSpaceOnUse" x1="80.0" y1="213.0" x2="72.0" y2="213.0"><stop offset="0%" stop-color="#efefbe"/><stop offset="100%" stop-color="#2f3fbf"/></linearGradient></defs><rect x="0" y="0" width="269.0" height="254.0" fill="#ffffff"/><rect x="8.0" y="5.0" width="256.0" height="224.0" fill="#ff3f2f"/><g><title>wave</title><polygon points="16.0,13.0 24.0,5.0 24.0,13.0" fill="url(#g0)"/><polygon points="32.0,5.0 40.0,5.0 32.0,13.0" fill="url(#g0)"/></g><g><title>inf</title><rect x="48.0" y="5.0" width="8.0" height="8.0" fill="url(#g1)"/></g><g><title>wave</title><polygon points="64.0,13.0 64.0,21.0 72.0,21.0" fill="url(#g2)"/><polygon points="64.0,21.0 72.0,21.0 72.0,29.0" fill="url(#g2)"/></g><g><title>hole</title><rect x="50.0" y="29.0" width="4.0" height="8.0" fill="url(#g3)"/><rect x="43.0" y="33.0" width="18.0" height="2.0" fill="url(#g3)"/></g><g><title>hole</title><rect x="26.0" y="29.0" width="4.0" height="8.0" fill="url(#g4)"/><rect x="19.0" y="33.0" width="18.0" height="2.0" fill="url(#g4)"/></g><g><title>wave</title><polygon points="8.0,13.0 16.0,13.0 16.0,21.0" fill="url(#g5)"/><polygon points="8.0,21.0 8.0,29.0 16.0,29.0" fill="url(#g5)"/></g><g><title>inf</title><rect x="88.0" y="5.0" width="8.0" height="8.0" fill="url(#g6)"/></g><g><title>hole</title><rect x="114.0" y="5.0" width="4.0" height="8.0" fill="url(#g7)"/><rect x="107.0" y="7.0" width="18.0" height="2.0" fill="url(#g7)"/></g><g><title>wave</title><polygon points="128.0,13.0 128.0,21.0 136.0,21.0" fill="url(#g8)"/><polygon points="128.0,21.0 136.0,21.0 136.0,29.0" fill="url(#g8)"/></g><g><title>hole</title><rect x="114.0" y="29.0" width="4.0" height="8.0" fill="url(#g9)"/><rect x="107.0" y="33.0" width="18.0" height="2.0" fill="url(#g9)"/></g><g><title>inf</title><rect x="88.0" y="29.0" width="8.0" height="8.0" fill="url(#g10)"/></g><g><title>brick</title><rect x="72.0" y="13.0" width="8.0" height="16.0" fill="url(#g11)"/></g><g><title>inf</title><rect x="216.0" y="5.0" width="8.0" height="8.0" fill="url(#g12)"/></g><g><title>wave</title><polygon points="232.0,13.0 240.0,5.0 240.0,13.0" fill="url(#g13)"/><polygon points="248.0,5.0 256.0,5.0 248.0,13.0" fill="url(#g13)"/></g><g><title>brick</title><rect x="256.0" y="13.0" width="8.0" height="16.0" fill="url(#g14)"/></g><g><title>inf</title><rect x="240.0" y="29.0" width="8.0" height="8.0" fill="url(#g15)"/></g><g><title>brick</title><rect x="208.0" y="29.0" width="24.0" height="8.0" fill="url(#g16)"/></g><g><title>inf</title><rect x="200.0" y="17.0" width="8.0" height="8.0" fill="url(#g17)"/></g><g><title>brick</title><rect x="16.0" y="37.0" width="24.0" height="8.0" fill="url(#g18)"/></g><g><title>hole</title><rect x="50.0" y="37.0" width="4.0" height="8.0" fill="url(#g19)"/><rect x="43.0" y="39.0" width="18.0" height="2.0" fill="url(#g19)"/></g><g><title>hole</title><rect x="64.0" y="51.0" width="8.0" height="4.0" fill="url(#g20)"/><rect x="67.0" y="48.0" width="2.0" height="10.0" fill="url(#g20)"/></g><g><title>wave</title><polygon points="40.0,61.0 48.0,61.0 40.0,69.0" fill="url(#g21)"/><polygon points="56.0,69.0 64.0,61.0 64.0,69.0" fill="url(#g21)"/></g><g><title>brick</title><rect x="16.0" y="61.0" width="24.0" height="8.0" fill="url(#g22)"/></g><g><title>wave</title><polygon points="8.0,45.0 16.0,45.0 16.0,53.0" fill="url(#g23)"/><polygon points="8.0,53.0 8.0,61.0 16.0,61.0" fill="url(#g23)"/></g><g><title>hole</title><rect x="154.0" y="37.0" width="4.0" height="8.0" fill="url(#g24)"/><rect x="147.0" y="39.0" width="18.0" height="2.0" fill="url(#g24)"/></g><g><title>inf</title><rect x="176.0" y="37.0" width="8.0" height="8.0" fill="url(#g25)"/></g><g><title>inf</title><rect x="192.0" y="49.0" width="8.0" height="8.0" fill="url(#g26)"/></g><g><title>wave</title><polygon points="168.0,61.0 176.0,61.0 168.0,69.0" fill="url(#g27)"/><polygon points="184.0,69.0 192.0,61.0 192.0,69.0" fill="url(#g27)"/></g><g><title>brick</title><rect x="144.0" y="61.0" width="24.0" height="8.0" fill="url(#g28)"/></g><g><title>brick</title><rect x="136.0" y="45.0" width="8.0" height="16.0" fill="url(#g29)"/></g><g><title>wave</title><polygon points="208.0,45.0 216.0,37.0 216.0,45.0" fill="url(#g30)"/><polygon points="224.0,37.0 232.0,37.0 224.0,45.0" fill="url(#g30)"/></g><g><title>wave</title><polygon points="232.0,45.0 240.0,37.0 240.0,45.0" fill="url(#g31)"/><polygon points="248.0,37.0 256.0,37.0 248.0,45.0" fill="url(#g31)"/></g><g><title>brick</title><rect x="256.0" y="45.0" width="8.0" height="16.0" fill="url(#g32)"/></g><g><title>inf</title><rect x="240.0" y="61.0" width="8.0" height="8.0" fill="url(#g33)"/></g><g><title>inf</title><rect x="216.0" y="61.0" width="8.0" height="8.0" fill="url(#g34)"/></g><g><title>wave</title><polygon points="200.0,45.0 208.0,45.0 208.0,53.0" fill="url(#g35)"/><polygon points="200.0,53.0 200.0,61.0 208.0,61.0" fill="url(#g35)"/></g><g><title>hole</title><rect x="26.0" y="69.0" width="4.0" height="8.0" fill="url(#g36)"/><rect x="19.0" y="71.0" width="18.0" height="2.0" fill="url(#g36)"/></g><g><title>inf</title><rect x="48.0" y="69.0" width="8.0" height="8.0" fill="url(#g37)"/></g><g><title>inf</title><rect x="64.0" y="81.0" width="8.0" height="8.0" fill="url(#g38)"/></g><g><title>hole</title><rect x="50.0" y="93.0" width="4.0" height="8.0" fill="url(#g39)"/><rect x="43.0" y="97.0" width="18.0" height="2.0" fill="url(#g39)"/></g><g><title>hole</title><rect x="26.0" y="93.0" width="4.0" height="8.0" fill="url(#g40)"/><rect x="19.0" y="97.0" width="18.0" height="2.0" fill="url(#g40)"/></g><g><title>brick</title><rect x="8.0" y="77.0" width="8.0" height="16.0" fill="url(#g41)"/></g><g><title>hole</title><rect x="90.0" y="69.0" width="4.0" height="8.0" fill="url(#g42)"/><rect x="83.0" y="71.0" width="18.0" height="2.0" fill="url(#g42)"/></g><g><title>hole</title><rect x="114.0" y="69.0" width="4.0" height="8.0" fill="url(#g43)"/><rect x="107.0" y="71.0" width="18.0" height="2.0" fill="url(#g43)"/></g><g><title>wave</title><polygon points="128.0,77.0 128.0,85.0 136.0,85.0" fill="url(#g44)"/><polygon points="128.0,85.0 136.0,85.0 136.0,93.0" fill="url(#g44)"/></g><g><title>brick</title><rect x="104.0" y="93.0" width="24.0" height="8.0" fill="url(#g45)"/></g><g><title>wave</title><polygon points="80.0,93.0 88.0,93.0 80.0,101.0" fill="url(#g46)"/><polygon points="96.0,101.0 104.0,93.0 104.0,101.0" fill="url(#g46)"/></g><g><title>brick</title><rect x="72.0" y="77.0" width="8.0" height="16.0" fill="url(#g47)"/></g><g><title>brick</title><rect x="144.0" y="69.0" width="24.0" height="8.0" fill="url(#g48)"/></g><g><title>brick</title><rect x="168.0" y="69.0" width="24.0" height="8.0" fill="url(#g49)"/></g><g><title>hole</title><rect x="192.0" y="83.0" width="8.0" height="4.0" fill="url(#g50)"/><rect x="195.0" y="80.0" width="2.0" height="10.0" fill="url(#g50)"/></g><g><title>brick</title><rect x="168.0" y="93.0" width="24.0" height="8.0" fill="url(#g51)"/></g><g><title>inf</title><rect x="152.0" y="93.0" width="8.0" height="8.0" fill="url(#g52)"/></g><g><title>wave</title><polygon points="136.0,77.0 144.0,77.0 144.0,85.0" fill="url(#g53)"/><polygon points="136.0,85.0 136.0,93.0 144.0,93.0" fill="url(#g53)"/></g><g><title>inf</title><rect x="216.0" y="69.0" width="8.0" height="8.0" fill="url(#g54)"/></g><g><title>inf</title><rect x="240.0" y="69.0" width="8.0" height="8.0" fill="url(#g55)"/></g><g><title>inf</title><rect x="256.0" y="81.0" width="8.0" height="8.0" fill="url(#g56)"/></g><g><title>hole</title><rect x="242.0" y="93.0" width="4.0" height="8.0" fill="url(#g57)"/><rect x="235.0" y="97.0" width="18.0" height="2.0" fill="url(#g57)"/></g><g><title>wave</title><polygon points="208.0,93.0 216.0,93.0 208.0,101.0" fill="url(#g58)"/><polygon points="224.0,101.0 232.0,93.0 232.0,101.0" fill="url(#g58)"/></g><g><title>hole</title><rect x="200.0" y="83.0" width="8.0" height="4.0" fill="url(#g59)"/><rect x="203.0" y="80.0" width="2.0" height="10.0" fill="url(#g59)"/></g><g><title>inf</title><rect x="24.0" y="101.0" width="8.0" height="8.0" fill="url(#g60)"/></g><g><title>brick</title><rect x="40.0" y="101.0" width="24.0" height="8.0" fill="url(#g61)"/></g><g><title>wave</title><polygon points="64.0,109.0 64.0,117.0 72.0,117.0" fill="url(#g62)"/><polygon points="64.0,117.0 72.0,117.0 72.0,125.0" fill="url(#g62)"/></g><g><title>brick</title><rect x="40.0" y="125.0" width="24.0" height="8.0" fill="url(#g63)"/></g><g><title>brick</title><rect x="16.0" y="125.0" width="24.0" height="8.0" fill="url(#g64)"/></g><g><title>wave</title><polygon points="8.0,109.0 16.0,109.0 16.0,117.0" fill="url(#g65)"/><polygon points="8.0,117.0 8.0,125.0 16.0,125.0" fill="url(#g65)"/></g><g><title>brick</title><rect x="144.0" y="101.0" width="24.0" height="8.0" fill="url(#g66)"/></g><g><title>inf</title><rect x="176.0" y="101.0" width="8.0" height="8.0" fill="url(#g67)"/></g><g><title>hole</title><rect x="192.0" y="115.0" width="8.0" height="4.0" fill="url(#g68)"/><rect x="195.0" y="112.0" width="2.0" height="10.0" fill="url(#g68)"/></g><g><title>hole</title><rect x="178.0" y="125.0" width="4.0" height="8.0" fill="url(#g69)"/><rect x="171.0" y="129.0" width="18.0" height="2.0" fill="url(#g69)"/></g><g><title>hole</title><rect x="154.0" y="125.0" width="4.0" height="8.0" fill="url(#g70)"/><rect x="147.0" y="129.0" width="18.0" height="2.0" fill="url(#g70)"/></g><g><title>hole</title><rect x="136.0" y="115.0" width="8.0" height="4.0" fill="url(#g71)"/><rect x="139.0" y="112.0" width="2.0" height="10.0" fill="url(#g71)"/></g><g><title>wave</title><polygon points="16.0,141.0 24.0,133.0 24.0,141.0" fill="url(#g72)"/><polygon points="32.0,133.0 40.0,133.0 32.0,141.0" fill="url(#g72)"/></g><g><title>hole</title><rect x="50.0" y="133.0" width="4.0" height="8.0" fill="url(#g73)"/><rect x="43.0" y="135.0" width="18.0" height="2.0" fill="url(#g73)"/></g><g><title>brick</title><rect x="64.0" y="141.0" width="8.0" height="16.0" fill="url(#g74)"/></g><g><title>hole</title><rect x="50.0" y="157.0" width="4.0" height="8.0" fill="url(#g75)"/><rect x="43.0" y="161.0" width="18.0" height="2.0" fill="url(#g75)"/></g><g><title>hole</title><rect x="26.0" y="157.0" width="4.0" height="8.0" fill="url(#g76)"/><rect x="19.0" y="161.0" width="18.0" height="2.0" fill="url(#g76)"/></g><g><title>wave</title><polygon points="8.0,141.0 16.0,141.0 16.0,149.0" fill="url(#g77)"/><polygon points="8.0,149.0 8.0,157.0 16.0,157.0" fill="url(#g77)"/></g><g><title>inf</title><rect x="88.0" y="133.0" width="8.0" height="8.0" fill="url(#g78)"/></g><g><title>hole</title><rect x="114.0" y="133.0" width="4.0" height="8.0" fill="url(#g79)"/><rect x="107.0" y="135.0" width="18.0" height="2.0" fill="url(#g79)"/></g><g><title>wave</title><polygon points="128.0,141.0 128.0,149.0 136.0,149.0" fill="url(#g80)"/><polygon points="128.0,149.0 136.0,149.0 136.0,157.0" fill="url(#g80)"/></g><g><title>hole</title><rect x="114.0" y="157.0" width="4.0" height="8.0" fill="url(#g81)"/><rect x="107.0" y="161.0" width="18.0" height="2.0" fill="url(#g81)"/></g><g><title>wave</title><polygon points="80.0,157.0 88.0,157.0 80.0,165.0" fill="url(#g82)"/><polygon points="96.0,165.0 104.0,157.0 104.0,165.0" fill="url(#g82)"/></g><g><title>brick</title><rect x="72.0" y="141.0" width="8.0" height="16.0" fill="url(#g83)"/></g><g><title>brick</title><rect x="144.0" y="133.0" width="24.0" height="8.0" fill="url(#g84)"/></g><g><title>inf</title><rect x="176.0" y="133.0" width="8.0" height="8.0" fill="url(#g85)"/></g><g><title>wave</title><polygon points="192.0,141.0 192.0,149.0 200.0,149.0" fill="url(#g86)"/><polygon points="192.0,149.0 200.0,149.0 200.0,157.0" fill="url(#g86)"/></g><g><title>brick</title><rect x="168.0" y="157.0" width="24.0" height="8.0" fill="url(#g87)"/></g><g><title>wave</title><polygon points="144.0,157.0 152.0,157.0 144.0,165.0" fill="url(#g88)"/><polygon points="160.0,165.0 168.0,157.0 168.0,165.0" fill="url(#g88)"/></g><g><title>brick</title><rect x="136.0" y="141.0" width="8.0" height="16.0" fill="url(#g89)"/></g><g><title>wave</title><polygon points="208.0,141.0 216.0,133.0 216.0,141.0" fill="url(#g90)"/><polygon points="224.0,133.0 232.0,133.0 224.0,141.0" fill="url(#g90)"/></g><g><title>hole</title><rect x="242.0" y="133.0" width="4.0" height="8.0" fill="url(#g91)"/><rect x="235.0" y="135.0" width="18.0" height="2.0" fill="url(#g91)"/></g><g><title>hole</title><rect x="256.0" y="147.0" width="8.0" height="4.0" fill="url(#g92)"/><rect x="259.0" y="144.0" width="2.0" height="10.0" fill="url(#g92)"/></g><g><title>inf</title><rect x="240.0" y="157.0" width="8.0" height="8.0" fill="url(#g93)"/></g><g><title>wave</title><polygon points="208.0,157.0 216.0,157.0 208.0,165.0" fill="url(#g94)"/><polygon points="224.0,165.0 232.0,157.0 232.0,165.0" fill="url(#g94)"/></g><g><title>brick</title><rect x="200.0" y="141.0" width="8.0" height="16.0" fill="url(#g95)"/></g><g><title>hole</title><rect x="26.0" y="165.0" width="4.0" height="8.0" fill="url(#g96)"/><rect x="19.0" y="167.0" width="18.0" height="2.0" fill="url(#g96)"/></g><g><title>brick</title><rect x="40.0" y="165.0" width="24.0" height="8.0" fill="url(#g97)"/></g><g><title>wave</title><polygon points="64.0,173.0 64.0,181.0 72.0,181.0" fill="url(#g98)"/><polygon points="64.0,181.0 72.0,181.0 72.0,189.0" fill="url(#g98)"/></g><g><title>inf</title><rect x="48.0" y="189.0" width="8.0" height="8.0" fill="url(#g99)"/></g><g><title>brick</title><rect x="16.0" y="189.0" width="24.0" height="8.0" fill="url(#g100)"/></g><g><title>brick</title><rect x="8.0" y="173.0" width="8.0" height="16.0" fill="url(#g101)"/></g><g><title>brick</title><rect x="80.0" y="165.0" width="24.0" height="8.0" fill="url(#g102)"/></g><g><title>inf</title><rect x="112.0" y="165.0" width="8.0" height="8.0" fill="url(#g103)"/></g><g><title>wave</title><polygon points="128.0,173.0 128.0,181.0 136.0,181.0" fill="url(#g104)"/><polygon points="128.0,181.0 136.0,181.0 136.0,189.0" fill="url(#g104)"/></g><g><title>inf</title><rect x="112.0" y="189.0" width="8.0" height="8.0" fill="url(#g105)"/></g><g><title>inf</title><rect x="88.0" y="189.0" width="8.0" height="8.0" fill="url(#g106)"/></g><g><title>hole</title><rect x="72.0" y="179.0" width="8.0" height="4.0" fill="url(#g107)"/><rect x="75.0" y="176.0" width="2.0" height="10.0" fill="url(#g107)"/></g><g><title>wave</title><polygon points="144.0,173.0 152.0,165.0 152.0,173.0" fill="url(#g108)"/><polygon points="160.0,165.0 168.0,165.0 160.0,173.0" fill="url(#g108)"/></g><g><title>brick</title><rect x="168.0" y="165.0" width="24.0" height="8.0" fill="url(#g109)"/></g><g><title>hole</title><rect x="192.0" y="179.0" width="8.0" height="4.0" fill="url(#g110)"/><rect x="195.0" y="176.0" width="2.0" height="10.0" fill="url(#g110)"/></g><g><title>hole</title><rect x="178.0" y="189.0" width="4.0" height="8.0" fill="url(#g111)"/><rect x="171.0" y="193.0" width="18.0" height="2.0" fill="url(#g111)"/></g><g><title>wave</title><polygon points="144.0,189.0 152.0,189.0 144.0,197.0" fill="url(#g112)"/><polygon points="160.0,197.0 168.0,189.0 168.0,197.0" fill="url(#g112)"/></g><g><title>wave</title><polygon points="136.0,173.0 144.0,173.0 144.0,181.0" fill="url(#g113)"/><polygon points="136.0,181.0 136.0,189.0 144.0,189.0" fill="url(#g113)"/></g><g><title>brick</title><rect x="208.0" y="165.0" width="24.0" height="8.0" fill="url(#g114)"/></g><g><title>wave</title><polygon points="232.0,173.0 240.0,165.0 240.0,173.0" fill="url(#g115)"/><polygon points="248.0,165.0 256.0,165.0 248.0,173.0" fill="url(#g115)"/></g><g><title>wave</title><polygon points="256.0,173.0 256.0,181.0 264.0,181.0" fill="url(#g116)"/><polygon points="256.0,181.0 264.0,181.0 264.0,189.0" fill="url(#g116)"/></g><g><title>wave</title><polygon points="232.0,189.0 240.0,189.0 232.0,197.0" fill="url(#g117)"/><polygon points="248.0,197.0 256.0,189.0 256.0,197.0" fill="url(#g117)"/></g><g><title>inf</title><rect x="216.0" y="189.0" width="8.0" height="8.0" fill="url(#g118)"/></g><g><title>wave</title><polygon points="200.0,173.0 208.0,173.0 208.0,181.0" fill="url(#g119)"/><polygon points="200.0,181.0 200.0,189.0 208.0,189.0" fill="url(#g119)"/></g><g><title>brick</title><rect x="16.0" y="197.0" width="24.0" height="8.0" fill="url(#g120)"/></g><g><title>hole</title><rect x="50.0" y="197.0" width="4.0" height="8.0" fill="url(#g121)"/><rect x="43.0" y="199.0" width="18.0" height="2.0" fill="url(#g121)"/></g><g><title>wave</title><polygon points="64.0,205.0 64.0,213.0 72.0,213.0" fill="url(#g122)"/><polygon points="64.0,213.0 72.0,213.0 72.0,221.0" fill="url(#g122)"/></g><g><title>wave</title><polygon points="40.0,221.0 48.0,221.0 40.0,229.0" fill="url(#g123)"/><polygon points="56.0,229.0 64.0,221.0 64.0,229.0" fill="url(#g123)"/></g><g><title>inf</title><rect x="24.0" y="221.0" width="8.0" height="8.0" fill="url(#g124)"/></g><g><title>hole</title><rect x="8.0" y="211.0" width="8.0" height="4.0" fill="url(#g125)"/><rect x="11.0" y="208.0" width="2.0" height="10.0" fill="url(#g125)"/></g><g><title>wave</title><polygon points="80.0,205.0 88.0,197.0 88.0,205.0" fill="url(#g126)"/><polygon points="96.0,197.0 104.0,197.0 96.0,205.0" fill="url(#g126)"/></g><g><title>inf</title><rect x="112.0" y="197.0" width="8.0" height="8.0" fill="url(#g127)"/></g><g><title>inf</title><rect x="128.0" y="209.0" width="8.0" height="8.0" fill="url(#g128)"/></g><g><title>inf</title><rect x="112.0" y="221.0" width="8.0" height="8.0" fill="url(#g129)"/></g><g><title>brick</title><rect x="80.0" y="221.0" width="24.0" height="8.0" fill="url(#g130)"/></g><g><title>wave</title><polygon points="72.0,205.0 80.0,205.0 80.0,213.0" fill="url(#g131)"/><polygon points="72.0,213.0 72.0,221.0 80.0,221.0" fill="url(#g131)"/></g><ellipse cx="264.0" cy="133.0" rx="184.9844588066792" ry="256.8019545786841" transform="rotate(115.05882352941175 264.0 133.0)" fill="#000000" fill-opacity="0.16980392156862745" clip-path="url(#bounding-clip)"/><rect x="16.0" y="13.0" width="48.0" height="16.0" fill="#beadde"/><text x="40.0" y="21.0" fill="#ffffff" style="font-family: monospace; font-size: 16.0px;" text-anchor="middle" dominant-baseline="central">DEADBE</text><rect x="80.0" y="13.0" width="48.0" height="16.0" fill="#addeef"/><text x="104.0" y="21.0" fill="#000000" style="font-family: monospace; font-size: 16.0px;" text-anchor="middle" dominant-baseline="central">EFDEAD</text><rect x="208.0" y="13.0" width="48.0" height="16.0" fill="#deefbe"/><text x="232.0" y="21.0" fill="#000000" style="font-family: monospace; font-size: 16.0px;" text-anchor="middle" dominant-baseline="central">BEEFDE</text><rect x="16.0" y="45.0" width="48.0" height="16.0" fill="#efbead"/><text x="40.0" y="53.0" fill="#000000" style="font-family: monospace; font-size: 16.0px;" text-anchor="middle" dominant-baseline="central">ADBEEF</text><rect x="144.0" y="45.0" width="48.0" height="16.0" fill="#beadde"/><text x="168.0" y="53.0" fill="#ffffff" style="font-family: monospace; font-size: 16.0px;" text-anchor="middle" dominant-baseline="central">DEADBE</text><rect x="208.0" y="45.0" width="48.0" height="16.0" fill="#addeef"/><text x="232.0" y="53.0" fill="#000000" style="font-family: monospace; font-size: 16.0px;" text-anchor="middle" dominant-baseline="central">EFDEAD</text><rect x="16.0" y="77.0" width="48.0" height="16.0" fill="#deefbe"/><text x="40.0" y="85.0" fill="#000000" style="font-family: monospace; font-size: 16.0px;" text-anchor="middle" dominant-baseline="central">BEEFDE</text><rect x="80.0" y="77.0" width="48.0" height="16.0" fill="#efbead"/><text x="104.0" y="85.0" fill="#000000" style="font-family: monospace; font-size: 16.0px;" text-anchor="middle" dominant-baseline="central">ADBEEF</text><rect x="144.0" y="77.0" width="48.0" height="16.0" fill="#beadde"/><text x="168.0" y="85.0" fill="#ffffff" style="font-family: monospace; font-size: 16.0px;" text-anchor="middle" dominant-baseline="central">DEADBE</text><rect x="208.0" y="77.0" width="48.0" height="16.0" fill="#addeef"/><text x="232.0" y="85.0" fill="#000000" style="font-family: monospace; font-size: 16.0px;" text-anchor="middle" dominant-baseline="central">EFDEAD</text><rect x="16.0" y="109.0" width="48.0" height="16.0" fill="#efefbe"/><text x="40.0" y="117.0" fill="#000000" style="font-family: monospace; font-size: 16.0px;" text-anchor="middle" dominant-baseline="central">BEEF</text><rect x="144.0" y="109.0" width="48.0" height="16.0" fill="#beadde"/><text x="168.0" y="117.0" fill="#ffffff" style="font-family: monospace; font-size: 16.0px;" text-anchor="middle" dominant-baseline="central">DEADBE</text><rect x="16.0" y="141.0" width="48.0" height="16.0" fill="#addeef"/><text x="40.0" y="149.0" fill="#000000" style="font-family: monospace; font-size: 16.0px;" text-anchor="middle" dominant-baseline="central">EFDEAD</text><rect x="80.0" y="141.0" width="48.0" height="16.0" fill="#deefbe"/><text x="104.0" y="149.0" fill="#000000" style="font-family: monospace; font-size: 16.0px;" text-anchor="middle" dominant-baseline="central">BEEFDE</text><rect x="144.0" y="141.0" width="48.0" height="16.0" fill="#efbead"/><text x="168.0" y="149.0" fill="#000000" style="font-family: monospace; font-size: 16.0px;" text-anchor="middle" dominant-baseline="central">ADBEEF</text><rect x="208.0" y="141.0" width="48.0" height="16.0" fill="#beadde"/><text x="232.0" y="149.0" fill="#ffffff" style="font-family: monospace; font-size: 16.0px;" text-anchor="middle" dominant-baseline="central">DEADBE</text><rect x="16.0" y="173.0" width="48.0" height="16.0" fill="#addeef"/><text x="40.0" y="181.0" fill="#000000" style="font-family: monospace; font-size: 16.0px;" text-anchor="middle" dominant-baseline="central">EFDEAD</text><rect x="80.0" y="173.0" width="48.0" height="16.0" fill="#deefbe"/><text x="104.0" y="181.0" fill="#000000" style="font-family: monospace; font-size: 16.0px;" text-anchor="middle" dominant-baseline="central">BEEFDE</text><rect x="144.0" y="173.0" width="48.0" height="16.0" fill="#efbead"/><text x="168.0" y="181.0" fill="#000000" style="font-family: monospace; font-size: 16.0px;" text-anchor="middle" dominant-baseline="central">ADBEEF</text><rect x="208.0" y="173.0" width="48.0" height="16.0" fill="#beadde"/><text x="232.0" y="181.0" fill="#ffffff" style="font-family: monospace; font-size: 16.0px;" text-anchor="middle" dominant-baseline="central">DEADBE</text><rect x="16.0" y="205.0" width="48.0" height="16.0" fill="#addeef"/><text x="40.0" y="213.0" fill="#000000" style="font-family: monospace; font-size: 16.0px;" text-anchor="middle" dominant-baseline="central">EFDEAD</text><rect x="80.0" y="205.0" width="48.0" height="16.0" fill="#efefbe"/><text x="104.0" y="213.0" fill="#000000" style="font-family: monospace; font-size: 16.0px;" text-anchor="middle" dominant-baseline="central">BEEF</text><circle cx="74.0" cy="71.0" r="2.0" fill="#ffffff"/><circle cx="262.0" cy="39.0" r="2.0" fill="#ffd966"/><circle cx="70.0" cy="131.0" r="2.0" fill="#2f3fbf"/><circle cx="10.0" cy="163.0" r="2.0" fill="#000000"/><rect x="0" y="0" width="4.0" height="76.96969696969697" fill="#ffd966"/><rect x="0" y="76.96969696969697" width="4.0" height="61.57575757575758" fill="#2f3fbf"/><rect x="0" y="138.54545454545456" width="4.0" height="61.57575757575758" fill="#000000"/><rect x="0" y="200.12121212121212" width="4.0" height="53.878787878787875" fill="#ffffff"/><text x="264.0" y="241.0" fill="#000000" style="font-family: monospace; font-size: 16.0px;" text-anchor="end" dominant-baseline="central">W38 B32 H32 I30</text><line x1="4.0" y1="0" x2="268.0" y2="0" stroke="#000000" stroke-width="1"/><line x1="268.0" y1="0" x2="268.0" y2="253.0" stroke="#000000" stroke-width="1"/><line x1="4.0" y1="253.0" x2="268.0" y2="253.0" stroke="#000000" stroke-width="1"/></svg>