<svg width="215" height="154" viewBox="0 0 215 154" xmlns="http://www.w3.org/2000/svg" font-family="&quot;JetBrains Mono&quot;, &quot;Menlo&quot;, &quot;Consolas&quot;, &quot;DejaVu Sans Mono&quot;, &quot;Liberation Mono&quot;, &quot;Roboto Mono&quot;, &quot;Noto Sans Mono&quot;, monospace" data-entviz-version="v12" data-entviz-lib="0.12.0" data-input-bytes="50" data-cols="3" data-rows="3"><defs><clipPath id="grid-clip-ad5c028545f0af6f-3x3"><rect x="28" y="27" width="180" height="120"/></clipPath></defs><rect x="1" y="1" width="213" height="152" fill="#ffffff"/><g data-channel="grid"><rect x="28" y="27" width="180" height="120" fill="#ffffff"/><g><path fill="#2f3fbf" d="M34 27h6v10h-6zM82 37h6v10h-6zM82 47h6v10h-6zM82 57h6v10h-6zM70 57h6v10h-6zM58 57h6v10h-6zM46 57h6v10h-6zM40 57h6v10h-6zM28 57h6v10h-6zM28 37h6v10h-6z"/><path fill="#ff3f2f" d="M172 27h6v10h-6zM178 27h6v10h-6zM184 27h6v10h-6zM190 27h6v10h-6zM196 27h6v10h-6zM202 37h6v10h-6zM190 57h6v10h-6zM178 57h6v10h-6zM166 57h6v10h-6zM148 37h6v10h-6z"/><path fill="#2f3fbf" d="M28 67h6v10h-6zM46 67h6v10h-6zM52 67h6v10h-6zM58 67h6v10h-6zM64 67h6v10h-6zM76 67h6v10h-6zM82 67h6v10h-6zM82 77h6v10h-6zM82 87h6v10h-6zM76 97h6v10h-6zM70 97h6v10h-6zM58 97h6v10h-6zM52 97h6v10h-6zM46 97h6v10h-6zM40 97h6v10h-6zM28 97h6v10h-6zM28 77h6v10h-6z"/><path fill="#e7be00" d="M112 67h6v10h-6zM142 97h6v10h-6zM88 97h6v10h-6zM88 87h6v10h-6z"/><path fill="#e7be00" d="M148 67h6v10h-6zM166 67h6v10h-6zM184 67h6v10h-6zM196 67h6v10h-6zM202 67h6v10h-6zM202 77h6v10h-6zM202 87h6v10h-6zM196 97h6v10h-6zM172 97h6v10h-6zM154 97h6v10h-6zM148 97h6v10h-6z"/><path fill="#ff3f2f" d="M28 107h6v10h-6zM52 107h6v10h-6zM58 107h6v10h-6zM64 107h6v10h-6zM82 127h6v10h-6zM76 137h6v10h-6zM70 137h6v10h-6zM64 137h6v10h-6zM58 137h6v10h-6zM52 137h6v10h-6zM34 137h6v10h-6zM28 137h6v10h-6z"/><path fill="#e7be00" d="M160 107h6v10h-6zM172 107h6v10h-6zM178 107h6v10h-6zM190 107h6v10h-6zM202 107h6v10h-6zM202 117h6v10h-6zM178 137h6v10h-6zM172 137h6v10h-6zM166 137h6v10h-6zM160 137h6v10h-6zM148 127h6v10h-6zM148 117h6v10h-6z"/></g><g clip-path="url(#grid-clip-ad5c028545f0af6f-3x3)" data-channel="ellipse" data-ellipse-anchor-x="208" data-ellipse-anchor-y="67" data-ellipse-rx="114.247" data-ellipse-ry="81.155" data-ellipse-rotation-deg="36"><ellipse cx="208" cy="67" rx="114.247" ry="81.155" transform="rotate(36 208 67)" fill="#000000" stroke="#000000" fill-opacity="0.2" stroke-opacity="0.3" stroke-width="2"/></g><g><g data-channel="cell" data-cell-index="0" data-cell-row="0" data-cell-col="0" data-surround-bits="0xad5c02" data-edge-color="#2f3fbf" data-cell-quartile="2"><rect x="34" y="37" width="48" height="20" fill="#f29c30"/><text x="58" y="47" fill="#000000" font-size="12" text-anchor="middle" dominant-baseline="central">309cf2</text><polygon points="82,37 72,37 82,47" fill="#000000"/></g><g data-channel="cell" data-cell-index="1" data-cell-row="0" data-cell-col="1" data-cell-blank="true" data-cell-blank-map="true"><rect x="94" y="37" width="48" height="20" rx="10" ry="10" fill="#e7be00" stroke="#000000" stroke-width="1"/><circle cx="134" cy="47" r="3.5" fill="#1d4ed8" data-blank-map-min="1,2"/><path d="M 129.8,53.667 H 138.2 M 134,49.467 V 57.867" fill="none" stroke="#d62828" stroke-width="1.925" stroke-linecap="butt" data-blank-map-max="2,2"/></g><g data-channel="cell" data-cell-index="2" data-cell-row="0" data-cell-col="2" data-surround-bits="0x8545f0" data-edge-color="#ff3f2f"><rect x="154" y="37" width="48" height="20" fill="#e74e67"/><text x="178" y="47" fill="#000000" font-size="12" text-anchor="middle" dominant-baseline="central">674ee7</text></g><g data-channel="cell" data-cell-index="3" data-cell-row="1" data-cell-col="0" data-surround-bits="0xaf6f79" data-edge-color="#2f3fbf"><rect x="34" y="77" width="48" height="20" fill="#9974a0"/><text x="58" y="87" fill="#000000" font-size="12" text-anchor="middle" dominant-baseline="central">a07499</text></g><g data-channel="cell" data-cell-index="4" data-cell-row="1" data-cell-col="1" data-surround-bits="0x601010" data-edge-color="#e7be00" data-cell-quartile="3"><rect x="94" y="77" width="48" height="20" fill="#82cf78"/><text x="118" y="87" fill="#000000" font-size="12" text-anchor="middle" dominant-baseline="central">78cf82</text><polygon points="142,97 142,87 132,97" fill="#000000"/></g><g data-channel="cell" data-cell-index="5" data-cell-row="1" data-cell-col="2" data-surround-bits="0x322f49" data-edge-color="#e7be00"><rect x="154" y="77" width="48" height="20" fill="#91ab65"/><text x="178" y="87" fill="#000000" font-size="12" text-anchor="middle" dominant-baseline="central">65ab91</text></g><g data-channel="cell" data-cell-index="6" data-cell-row="2" data-cell-col="0" data-surround-bits="0x33e871" data-edge-color="#ff3f2f" data-cell-quartile="4"><rect x="34" y="117" width="48" height="20" fill="#ea0aa6"/><text x="58" y="127" fill="#000000" font-size="12" text-anchor="middle" dominant-baseline="central">a60aea</text><polygon points="34,137 34,127 44,137" fill="#000000"/></g><g data-channel="cell" data-cell-index="7" data-cell-row="2" data-cell-col="1" data-cell-blank="true"><rect x="94" y="117" width="48" height="20" rx="10" ry="10" fill="#2f3fbf" stroke="#000000" stroke-width="1"/></g><g data-channel="cell" data-cell-index="8" data-cell-row="2" data-cell-col="2" data-surround-bits="0xcf06b4" data-edge-color="#e7be00" data-cell-quartile="1"><rect x="154" y="117" width="48" height="20" fill="#7d7d0f"/><text x="178" y="127" fill="#ffffff" font-size="12" text-anchor="middle" dominant-baseline="central">0f7d</text><polygon points="154,117 164,117 154,127" fill="#ffffff"/></g></g></g><g data-channel="color-bar" data-bar-slots="12" data-bar-marker-left="2" data-bar-marker-right="0"><g data-color-bar-rank="0" data-color-bar-band="R"><rect x="2" y="2" width="20" height="56.308" fill="#ff3f2f"/><text x="12" y="55.668" fill="#000000" font-size="12" text-anchor="middle" data-color-bar-letter="true">r</text></g><g data-color-bar-rank="1" data-color-bar-band="K"><rect x="2" y="58.308" width="20" height="37.402" fill="#000000"/><text x="12" y="93.07" fill="#ffffff" font-size="12" text-anchor="middle" data-color-bar-letter="true">k</text></g><g data-color-bar-rank="2" data-color-bar-band="B"><rect x="2" y="95.71" width="20" height="16.533" fill="#2f3fbf"/><text x="12" y="109.603" fill="#ffffff" font-size="12" text-anchor="middle" data-color-bar-letter="true">b</text></g><g data-color-bar-rank="3" data-color-bar-band="G"><rect x="2" y="112.243" width="20" height="39.757" fill="#e7be00"/><text x="12" y="149.36" fill="#000000" font-size="12" text-anchor="middle" data-color-bar-letter="true">g</text></g><circle cx="6.6" cy="33.25" r="3.4" fill="#ffffff" stroke="#000000" stroke-width="0.75" data-bar-marker="left"/><circle cx="17.4" cy="8.25" r="3.4" fill="#ffffff" stroke="#000000" stroke-width="0.75" data-bar-marker="right"/></g><g data-channel="label-top"><text x="28" y="17" fill="#666666" font-size="12" dominant-baseline="central">swh:1:cnt:...</text></g><line x1="1" y1="1.5" x2="214" y2="1.5" stroke="#808080" stroke-width="1" shape-rendering="crispEdges"/><line x1="213.5" y1="1" x2="213.5" y2="153" stroke="#808080" stroke-width="1" shape-rendering="crispEdges"/><line x1="1" y1="152.5" x2="214" y2="152.5" stroke="#808080" stroke-width="1" shape-rendering="crispEdges"/><line x1="1.5" y1="1" x2="1.5" y2="153" stroke="#808080" stroke-width="1" shape-rendering="crispEdges"/><line x1="22.5" y1="1" x2="22.5" y2="153" stroke="#808080" stroke-width="1" shape-rendering="crispEdges"/></svg>