<svg width="213" height="152" viewBox="0 0 213 152" xmlns="http://www.w3.org/2000/svg" font-family="&quot;JetBrains Mono&quot;, &quot;Menlo&quot;, &quot;Consolas&quot;, &quot;DejaVu Sans Mono&quot;, &quot;Liberation Mono&quot;, &quot;Roboto Mono&quot;, &quot;Noto Sans Mono&quot;, monospace" data-entviz-version="v10" data-entviz-lib="0.10.0" data-input-bytes="50" data-cols="3" data-rows="3"><defs><clipPath id="grid-clip-ad5c028545f0af6f-3x3"><rect x="27" y="26" width="180" height="120"/></clipPath></defs><rect x="0" y="0" width="213" height="152" fill="#ffffff"/><g data-channel="grid"><rect x="27" y="26" width="180" height="120" fill="#ffffff"/><g><path fill="#2f3fbf" d="M33 26h6v10h-6zM81 36h6v10h-6zM81 46h6v10h-6zM81 56h6v10h-6zM69 56h6v10h-6zM57 56h6v10h-6zM45 56h6v10h-6zM39 56h6v10h-6zM27 56h6v10h-6zM27 36h6v10h-6z"/><path fill="#ff3f2f" d="M171 26h6v10h-6zM177 26h6v10h-6zM183 26h6v10h-6zM189 26h6v10h-6zM195 26h6v10h-6zM201 36h6v10h-6zM189 56h6v10h-6zM177 56h6v10h-6zM165 56h6v10h-6zM147 36h6v10h-6z"/><path fill="#2f3fbf" d="M27 66h6v10h-6zM45 66h6v10h-6zM51 66h6v10h-6zM57 66h6v10h-6zM63 66h6v10h-6zM75 66h6v10h-6zM81 66h6v10h-6zM81 76h6v10h-6zM81 86h6v10h-6zM75 96h6v10h-6zM69 96h6v10h-6zM57 96h6v10h-6zM51 96h6v10h-6zM45 96h6v10h-6zM39 96h6v10h-6zM27 96h6v10h-6zM27 76h6v10h-6z"/><path fill="#e7be00" d="M111 66h6v10h-6zM141 96h6v10h-6zM87 96h6v10h-6zM87 86h6v10h-6z"/><path fill="#e7be00" d="M147 66h6v10h-6zM165 66h6v10h-6zM183 66h6v10h-6zM195 66h6v10h-6zM201 66h6v10h-6zM201 76h6v10h-6zM201 86h6v10h-6zM195 96h6v10h-6zM171 96h6v10h-6zM153 96h6v10h-6zM147 96h6v10h-6z"/><path fill="#ff3f2f" d="M27 106h6v10h-6zM51 106h6v10h-6zM57 106h6v10h-6zM63 106h6v10h-6zM81 126h6v10h-6zM75 136h6v10h-6zM69 136h6v10h-6zM63 136h6v10h-6zM57 136h6v10h-6zM51 136h6v10h-6zM33 136h6v10h-6zM27 136h6v10h-6z"/><path fill="#e7be00" d="M159 106h6v10h-6zM171 106h6v10h-6zM177 106h6v10h-6zM189 106h6v10h-6zM201 106h6v10h-6zM201 116h6v10h-6zM177 136h6v10h-6zM171 136h6v10h-6zM165 136h6v10h-6zM159 136h6v10h-6zM147 126h6v10h-6zM147 116h6v10h-6z"/></g><g clip-path="url(#grid-clip-ad5c028545f0af6f-3x3)" data-channel="ellipse" data-ellipse-anchor-x="207" data-ellipse-anchor-y="66" data-ellipse-rx="114.247" data-ellipse-ry="81.155" data-ellipse-rotation-deg="36"><ellipse cx="207" cy="66" rx="114.247" ry="81.155" transform="rotate(36 207 66)" fill="#000000" stroke="#000000" fill-opacity="0.2" stroke-opacity="0.3" stroke-width="2"/></g><g><g data-channel="cell" data-cell-index="0" data-cell-row="0" data-cell-col="0" data-surround-bits="0xad5c02" data-edge-color="#2f3fbf" data-cell-quartile="2"><rect x="33" y="36" width="48" height="20" fill="#f29c30"/><text x="57" y="46" fill="#000000" font-size="12" text-anchor="middle" dominant-baseline="central">309cf2</text><polygon points="81,36 71,36 81,46" fill="#000000"/></g><g data-channel="cell" data-cell-index="1" data-cell-row="0" data-cell-col="1" data-cell-blank="true" data-cell-blank-map="true"><rect x="93" y="36" width="48" height="20" rx="10" ry="10" fill="#e7be00" stroke="#000000" stroke-width="1"/><circle cx="133" cy="46" r="3.5" fill="#1d4ed8" data-blank-map-min="1,2"/><path d="M 128.8,52.667 H 137.2 M 133,48.467 V 56.867" fill="none" stroke="#d62828" stroke-width="1.925" stroke-linecap="butt" data-blank-map-max="2,2"/></g><g data-channel="cell" data-cell-index="2" data-cell-row="0" data-cell-col="2" data-surround-bits="0x8545f0" data-edge-color="#ff3f2f"><rect x="153" y="36" width="48" height="20" fill="#e74e67"/><text x="177" y="46" fill="#000000" font-size="12" text-anchor="middle" dominant-baseline="central">674ee7</text></g><g data-channel="cell" data-cell-index="3" data-cell-row="1" data-cell-col="0" data-surround-bits="0xaf6f79" data-edge-color="#2f3fbf"><rect x="33" y="76" width="48" height="20" fill="#9974a0"/><text x="57" y="86" fill="#000000" font-size="12" text-anchor="middle" dominant-baseline="central">a07499</text></g><g data-channel="cell" data-cell-index="4" data-cell-row="1" data-cell-col="1" data-surround-bits="0x601010" data-edge-color="#e7be00" data-cell-quartile="3"><rect x="93" y="76" width="48" height="20" fill="#82cf78"/><text x="117" y="86" fill="#000000" font-size="12" text-anchor="middle" dominant-baseline="central">78cf82</text><polygon points="141,96 141,86 131,96" fill="#000000"/></g><g data-channel="cell" data-cell-index="5" data-cell-row="1" data-cell-col="2" data-surround-bits="0x322f49" data-edge-color="#e7be00"><rect x="153" y="76" width="48" height="20" fill="#91ab65"/><text x="177" y="86" fill="#000000" font-size="12" text-anchor="middle" dominant-baseline="central">65ab91</text></g><g data-channel="cell" data-cell-index="6" data-cell-row="2" data-cell-col="0" data-surround-bits="0x33e871" data-edge-color="#ff3f2f" data-cell-quartile="4"><rect x="33" y="116" width="48" height="20" fill="#ea0aa6"/><text x="57" y="126" fill="#000000" font-size="12" text-anchor="middle" dominant-baseline="central">a60aea</text><polygon points="33,136 33,126 43,136" fill="#000000"/></g><g data-channel="cell" data-cell-index="7" data-cell-row="2" data-cell-col="1" data-cell-blank="true"><rect x="93" y="116" width="48" height="20" rx="10" ry="10" fill="#2f3fbf" stroke="#000000" stroke-width="1"/></g><g data-channel="cell" data-cell-index="8" data-cell-row="2" data-cell-col="2" data-surround-bits="0xcf06b4" data-edge-color="#e7be00" data-cell-quartile="1"><rect x="153" y="116" width="48" height="20" fill="#7d7d0f"/><text x="177" y="126" fill="#ffffff" font-size="12" text-anchor="middle" dominant-baseline="central">0f7d</text><polygon points="153,116 163,116 153,126" fill="#ffffff"/></g></g></g><g data-channel="color-bar" data-bar-slots="12" data-bar-marker-left="2" data-bar-marker-right="0"><g data-color-bar-rank="0" data-color-bar-band="R"><rect x="1" y="1" width="20" height="56.308" fill="#ff3f2f"/><text x="11" y="54.668" fill="#000000" font-size="12" text-anchor="middle" data-color-bar-letter="true">r</text></g><g data-color-bar-rank="1" data-color-bar-band="K"><rect x="1" y="57.308" width="20" height="37.402" fill="#000000"/><text x="11" y="92.07" fill="#ffffff" font-size="12" text-anchor="middle" data-color-bar-letter="true">k</text></g><g data-color-bar-rank="2" data-color-bar-band="B"><rect x="1" y="94.71" width="20" height="16.533" fill="#2f3fbf"/><text x="11" y="108.603" fill="#ffffff" font-size="12" text-anchor="middle" data-color-bar-letter="true">b</text></g><g data-color-bar-rank="3" data-color-bar-band="G"><rect x="1" y="111.243" width="20" height="39.757" fill="#e7be00"/><text x="11" y="148.36" fill="#000000" font-size="12" text-anchor="middle" data-color-bar-letter="true">g</text></g><circle cx="5.6" cy="32.25" r="3.4" fill="#ffffff" stroke="#000000" stroke-width="0.75" data-bar-marker="left"/><circle cx="16.4" cy="7.25" r="3.4" fill="#ffffff" stroke="#000000" stroke-width="0.75" data-bar-marker="right"/></g><g data-channel="label-top"><text x="27" y="16" fill="#666666" font-size="12" dominant-baseline="central">swh:1:cnt:...</text></g><line x1="0" y1="0.5" x2="213" y2="0.5" stroke="#808080" stroke-width="1" shape-rendering="crispEdges"/><line x1="212.5" y1="0" x2="212.5" y2="152" stroke="#808080" stroke-width="1" shape-rendering="crispEdges"/><line x1="0" y1="151.5" x2="213" y2="151.5" stroke="#808080" stroke-width="1" shape-rendering="crispEdges"/><line x1="0.5" y1="0" x2="0.5" y2="152" stroke="#808080" stroke-width="1" shape-rendering="crispEdges"/><line x1="21.5" y1="0" x2="21.5" y2="152" stroke="#808080" stroke-width="1" shape-rendering="crispEdges"/></svg>