<svg width="273" height="192" viewBox="0 0 273 192" xmlns="http://www.w3.org/2000/svg" data-entviz-version="v10" data-entviz-lib="0.10.0" data-input-bytes="56" data-cols="4" data-rows="4"><defs><clipPath id="grid-clip-0505b85683fede30-4x4"><rect x="27" y="26" width="240" height="160"/></clipPath></defs><rect x="0" y="0" width="273" height="192" fill="#ffffff"/><g data-channel="grid"><rect x="27" y="26" width="240" height="160" fill="#ff3f2f"/><g><rect x="45" y="26" width="6" height="10" fill="#ffffff"/><rect x="51" y="26" width="6" height="10" fill="#ffffff"/><rect x="57" y="26" width="6" height="10" fill="#ffffff"/><rect x="69" y="26" width="6" height="10" fill="#ffffff"/><rect x="75" y="26" width="6" height="10" fill="#ffffff"/><rect x="81" y="36" width="6" height="10" fill="#ffffff"/><rect x="57" y="56" width="6" height="10" fill="#ffffff"/><rect x="45" y="56" width="6" height="10" fill="#ffffff"/><rect x="93" y="26" width="6" height="10" fill="#2f3fbf"/><rect x="99" y="26" width="6" height="10" fill="#2f3fbf"/><rect x="105" y="26" width="6" height="10" fill="#2f3fbf"/><rect x="111" y="26" width="6" height="10" fill="#2f3fbf"/><rect x="117" y="26" width="6" height="10" fill="#2f3fbf"/><rect x="123" y="26" width="6" height="10" fill="#2f3fbf"/><rect x="129" y="26" width="6" height="10" fill="#2f3fbf"/><rect x="135" y="26" width="6" height="10" fill="#2f3fbf"/><rect x="141" y="26" width="6" height="10" fill="#2f3fbf"/><rect x="123" y="56" width="6" height="10" fill="#2f3fbf"/><rect x="111" y="56" width="6" height="10" fill="#2f3fbf"/><rect x="105" y="56" width="6" height="10" fill="#2f3fbf"/><rect x="93" y="56" width="6" height="10" fill="#2f3fbf"/><rect x="87" y="46" width="6" height="10" fill="#2f3fbf"/><rect x="171" y="26" width="6" height="10" fill="#e7be00"/><rect x="177" y="26" width="6" height="10" fill="#e7be00"/><rect x="183" y="26" width="6" height="10" fill="#e7be00"/><rect x="201" y="56" width="6" height="10" fill="#e7be00"/><rect x="195" y="56" width="6" height="10" fill="#e7be00"/><rect x="171" y="56" width="6" height="10" fill="#e7be00"/><rect x="165" y="56" width="6" height="10" fill="#e7be00"/><rect x="159" y="56" width="6" height="10" fill="#e7be00"/><rect x="153" y="56" width="6" height="10" fill="#e7be00"/><rect x="147" y="46" width="6" height="10" fill="#e7be00"/><rect x="147" y="36" width="6" height="10" fill="#e7be00"/><rect x="213" y="26" width="6" height="10" fill="#e7be00"/><rect x="225" y="26" width="6" height="10" fill="#e7be00"/><rect x="243" y="26" width="6" height="10" fill="#e7be00"/><rect x="249" y="26" width="6" height="10" fill="#e7be00"/><rect x="255" y="26" width="6" height="10" fill="#e7be00"/><rect x="261" y="26" width="6" height="10" fill="#e7be00"/><rect x="219" y="56" width="6" height="10" fill="#e7be00"/><rect x="213" y="56" width="6" height="10" fill="#e7be00"/><rect x="207" y="56" width="6" height="10" fill="#e7be00"/><rect x="207" y="36" width="6" height="10" fill="#e7be00"/><rect x="63" y="66" width="6" height="10" fill="#ffffff"/><rect x="69" y="66" width="6" height="10" fill="#ffffff"/><rect x="81" y="86" width="6" height="10" fill="#ffffff"/><rect x="69" y="96" width="6" height="10" fill="#ffffff"/><rect x="63" y="96" width="6" height="10" fill="#ffffff"/><rect x="57" y="96" width="6" height="10" fill="#ffffff"/><rect x="45" y="96" width="6" height="10" fill="#ffffff"/><rect x="33" y="96" width="6" height="10" fill="#ffffff"/><rect x="27" y="76" width="6" height="10" fill="#ffffff"/><rect x="111" y="66" width="6" height="10" fill="#e7be00"/><rect x="117" y="66" width="6" height="10" fill="#e7be00"/><rect x="123" y="66" width="6" height="10" fill="#e7be00"/><rect x="141" y="96" width="6" height="10" fill="#e7be00"/><rect x="135" y="96" width="6" height="10" fill="#e7be00"/><rect x="117" y="96" width="6" height="10" fill="#e7be00"/><rect x="111" y="96" width="6" height="10" fill="#e7be00"/><rect x="87" y="86" width="6" height="10" fill="#e7be00"/><rect x="159" y="66" width="6" height="10" fill="#e7be00"/><rect x="189" y="66" width="6" height="10" fill="#e7be00"/><rect x="195" y="66" width="6" height="10" fill="#e7be00"/><rect x="201" y="86" width="6" height="10" fill="#e7be00"/><rect x="201" y="96" width="6" height="10" fill="#e7be00"/><rect x="195" y="96" width="6" height="10" fill="#e7be00"/><rect x="183" y="96" width="6" height="10" fill="#e7be00"/><rect x="177" y="96" width="6" height="10" fill="#e7be00"/><rect x="171" y="96" width="6" height="10" fill="#e7be00"/><rect x="165" y="96" width="6" height="10" fill="#e7be00"/><rect x="159" y="96" width="6" height="10" fill="#e7be00"/><rect x="153" y="96" width="6" height="10" fill="#e7be00"/><rect x="207" y="66" width="6" height="10" fill="#ffffff"/><rect x="213" y="66" width="6" height="10" fill="#ffffff"/><rect x="219" y="66" width="6" height="10" fill="#ffffff"/><rect x="243" y="66" width="6" height="10" fill="#ffffff"/><rect x="261" y="66" width="6" height="10" fill="#ffffff"/><rect x="261" y="76" width="6" height="10" fill="#ffffff"/><rect x="261" y="86" width="6" height="10" fill="#ffffff"/><rect x="261" y="96" width="6" height="10" fill="#ffffff"/><rect x="255" y="96" width="6" height="10" fill="#ffffff"/><rect x="237" y="96" width="6" height="10" fill="#ffffff"/><rect x="231" y="96" width="6" height="10" fill="#ffffff"/><rect x="219" y="96" width="6" height="10" fill="#ffffff"/><rect x="207" y="96" width="6" height="10" fill="#ffffff"/><rect x="207" y="86" width="6" height="10" fill="#ffffff"/><rect x="207" y="76" width="6" height="10" fill="#ffffff"/><rect x="87" y="106" width="6" height="10" fill="#e7be00"/><rect x="99" y="106" width="6" height="10" fill="#e7be00"/><rect x="105" y="106" width="6" height="10" fill="#e7be00"/><rect x="117" y="106" width="6" height="10" fill="#e7be00"/><rect x="123" y="106" width="6" height="10" fill="#e7be00"/><rect x="129" y="106" width="6" height="10" fill="#e7be00"/><rect x="135" y="106" width="6" height="10" fill="#e7be00"/><rect x="141" y="116" width="6" height="10" fill="#e7be00"/><rect x="123" y="136" width="6" height="10" fill="#e7be00"/><rect x="117" y="136" width="6" height="10" fill="#e7be00"/><rect x="111" y="136" width="6" height="10" fill="#e7be00"/><rect x="105" y="136" width="6" height="10" fill="#e7be00"/><rect x="87" y="126" width="6" height="10" fill="#e7be00"/><rect x="87" y="116" width="6" height="10" fill="#e7be00"/><rect x="147" y="106" width="6" height="10" fill="#000000"/><rect x="153" y="106" width="6" height="10" fill="#000000"/><rect x="183" y="106" width="6" height="10" fill="#000000"/><rect x="195" y="106" width="6" height="10" fill="#000000"/><rect x="201" y="106" width="6" height="10" fill="#000000"/><rect x="201" y="116" width="6" height="10" fill="#000000"/><rect x="201" y="126" width="6" height="10" fill="#000000"/><rect x="201" y="136" width="6" height="10" fill="#000000"/><rect x="171" y="136" width="6" height="10" fill="#000000"/><rect x="147" y="116" width="6" height="10" fill="#000000"/><rect x="219" y="106" width="6" height="10" fill="#2f3fbf"/><rect x="225" y="106" width="6" height="10" fill="#2f3fbf"/><rect x="231" y="106" width="6" height="10" fill="#2f3fbf"/><rect x="237" y="106" width="6" height="10" fill="#2f3fbf"/><rect x="243" y="106" width="6" height="10" fill="#2f3fbf"/><rect x="255" y="106" width="6" height="10" fill="#2f3fbf"/><rect x="261" y="106" width="6" height="10" fill="#2f3fbf"/><rect x="261" y="136" width="6" height="10" fill="#2f3fbf"/><rect x="249" y="136" width="6" height="10" fill="#2f3fbf"/><rect x="225" y="136" width="6" height="10" fill="#2f3fbf"/><rect x="219" y="136" width="6" height="10" fill="#2f3fbf"/><rect x="213" y="136" width="6" height="10" fill="#2f3fbf"/><rect x="207" y="136" width="6" height="10" fill="#2f3fbf"/><rect x="207" y="126" width="6" height="10" fill="#2f3fbf"/><rect x="93" y="146" width="6" height="10" fill="#ffffff"/><rect x="105" y="146" width="6" height="10" fill="#ffffff"/><rect x="123" y="146" width="6" height="10" fill="#ffffff"/><rect x="129" y="146" width="6" height="10" fill="#ffffff"/><rect x="141" y="146" width="6" height="10" fill="#ffffff"/><rect x="141" y="176" width="6" height="10" fill="#ffffff"/><rect x="135" y="176" width="6" height="10" fill="#ffffff"/><rect x="123" y="176" width="6" height="10" fill="#ffffff"/><rect x="111" y="176" width="6" height="10" fill="#ffffff"/><rect x="93" y="176" width="6" height="10" fill="#ffffff"/><rect x="87" y="166" width="6" height="10" fill="#ffffff"/><rect x="147" y="146" width="6" height="10" fill="#e7be00"/><rect x="159" y="146" width="6" height="10" fill="#e7be00"/><rect x="177" y="146" width="6" height="10" fill="#e7be00"/><rect x="201" y="146" width="6" height="10" fill="#e7be00"/><rect x="201" y="156" width="6" height="10" fill="#e7be00"/><rect x="201" y="176" width="6" height="10" fill="#e7be00"/><rect x="195" y="176" width="6" height="10" fill="#e7be00"/><rect x="183" y="176" width="6" height="10" fill="#e7be00"/><rect x="165" y="176" width="6" height="10" fill="#e7be00"/><rect x="147" y="166" width="6" height="10" fill="#e7be00"/><rect x="207" y="146" width="6" height="10" fill="#e7be00"/><rect x="213" y="146" width="6" height="10" fill="#e7be00"/><rect x="225" y="146" width="6" height="10" fill="#e7be00"/><rect x="243" y="146" width="6" height="10" fill="#e7be00"/><rect x="255" y="146" width="6" height="10" fill="#e7be00"/><rect x="261" y="156" width="6" height="10" fill="#e7be00"/><rect x="261" y="166" width="6" height="10" fill="#e7be00"/><rect x="261" y="176" width="6" height="10" fill="#e7be00"/><rect x="255" y="176" width="6" height="10" fill="#e7be00"/><rect x="243" y="176" width="6" height="10" fill="#e7be00"/><rect x="231" y="176" width="6" height="10" fill="#e7be00"/><rect x="225" y="176" width="6" height="10" fill="#e7be00"/><rect x="219" y="176" width="6" height="10" fill="#e7be00"/><rect x="213" y="176" width="6" height="10" fill="#e7be00"/><rect x="207" y="176" width="6" height="10" fill="#e7be00"/><rect x="207" y="156" width="6" height="10" fill="#e7be00"/></g><g clip-path="url(#grid-clip-0505b85683fede30-4x4)" data-channel="ellipse" data-ellipse-anchor-x="207" data-ellipse-anchor-y="146" data-ellipse-rx="57.977" data-ellipse-ry="78.745" data-ellipse-rotation-deg="24"><ellipse cx="207" cy="146" rx="57.977" ry="78.745" transform="rotate(24 207 146)" fill="#000000" stroke="#000000" fill-opacity="0.25" stroke-opacity="0.35" stroke-width="2"/></g><g><g data-channel="cell" data-cell-index="0" data-cell-row="0" data-cell-col="0"><rect x="33" y="36" width="48" height="20" fill="#118a12"/><text x="57" y="46" fill="#ffffff" style="font-family: &quot;JetBrains Mono&quot;, &quot;Menlo&quot;, &quot;Consolas&quot;, &quot;DejaVu Sans Mono&quot;, &quot;Liberation Mono&quot;, &quot;Roboto Mono&quot;, &quot;Noto Sans Mono&quot;, monospace; font-size: 16px;" text-anchor="middle" dominant-baseline="central">CKFB</text></g><g data-channel="cell" data-cell-index="1" data-cell-row="0" data-cell-col="1" data-cell-quartile="1"><rect x="93" y="36" width="48" height="20" fill="#333122"/><text x="117" y="46" fill="#ffffff" style="font-family: &quot;JetBrains Mono&quot;, &quot;Menlo&quot;, &quot;Consolas&quot;, &quot;DejaVu Sans Mono&quot;, &quot;Liberation Mono&quot;, &quot;Roboto Mono&quot;, &quot;Noto Sans Mono&quot;, monospace; font-size: 16px;" text-anchor="middle" dominant-baseline="central">EIYT</text><polygon points="93,36 103,36 93,46" fill="#ffffff"/></g><g data-channel="cell" data-cell-index="2" data-cell-row="0" data-cell-col="2" data-cell-quartile="4"><rect x="153" y="36" width="48" height="20" fill="#11fb53"/><text x="177" y="46" fill="#000000" style="font-family: &quot;JetBrains Mono&quot;, &quot;Menlo&quot;, &quot;Consolas&quot;, &quot;DejaVu Sans Mono&quot;, &quot;Liberation Mono&quot;, &quot;Roboto Mono&quot;, &quot;Noto Sans Mono&quot;, monospace; font-size: 16px;" text-anchor="middle" dominant-baseline="central">KP5R</text><polygon points="153,56 153,46 163,56" fill="#000000"/></g><g data-channel="cell" data-cell-index="3" data-cell-row="0" data-cell-col="3" data-cell-quartile="3"><rect x="213" y="36" width="48" height="20" fill="#cc6018"/><text x="237" y="46" fill="#000000" style="font-family: &quot;JetBrains Mono&quot;, &quot;Menlo&quot;, &quot;Consolas&quot;, &quot;DejaVu Sans Mono&quot;, &quot;Liberation Mono&quot;, &quot;Roboto Mono&quot;, &quot;Noto Sans Mono&quot;, monospace; font-size: 16px;" text-anchor="middle" dominant-baseline="central">DBQM</text><polygon points="261,56 261,46 251,56" fill="#000000"/></g><g data-channel="cell" data-cell-index="4" data-cell-row="1" data-cell-col="0"><rect x="33" y="76" width="48" height="20" fill="#ffc0a4"/><text x="57" y="86" fill="#000000" style="font-family: &quot;JetBrains Mono&quot;, &quot;Menlo&quot;, &quot;Consolas&quot;, &quot;DejaVu Sans Mono&quot;, &quot;Liberation Mono&quot;, &quot;Roboto Mono&quot;, &quot;Noto Sans Mono&quot;, monospace; font-size: 16px;" text-anchor="middle" dominant-baseline="central">UTAP</text></g><g data-channel="cell" data-cell-index="5" data-cell-row="1" data-cell-col="1"><rect x="93" y="76" width="48" height="20" fill="#778618"/><text x="117" y="86" fill="#ffffff" style="font-family: &quot;JetBrains Mono&quot;, &quot;Menlo&quot;, &quot;Consolas&quot;, &quot;DejaVu Sans Mono&quot;, &quot;Liberation Mono&quot;, &quot;Roboto Mono&quot;, &quot;Noto Sans Mono&quot;, monospace; font-size: 16px;" text-anchor="middle" dominant-baseline="central">DCDH</text></g><g data-channel="cell" data-cell-index="6" data-cell-row="1" data-cell-col="2"><rect x="153" y="76" width="48" height="20" fill="#11a72e"/><text x="177" y="86" fill="#000000" style="font-family: &quot;JetBrains Mono&quot;, &quot;Menlo&quot;, &quot;Consolas&quot;, &quot;DejaVu Sans Mono&quot;, &quot;Liberation Mono&quot;, &quot;Roboto Mono&quot;, &quot;Noto Sans Mono&quot;, monospace; font-size: 16px;" text-anchor="middle" dominant-baseline="central">F2TR</text></g><g data-channel="cell" data-cell-index="7" data-cell-row="1" data-cell-col="3"><rect x="213" y="76" width="48" height="20" fill="#dddee2"/><text x="237" y="86" fill="#000000" style="font-family: &quot;JetBrains Mono&quot;, &quot;Menlo&quot;, &quot;Consolas&quot;, &quot;DejaVu Sans Mono&quot;, &quot;Liberation Mono&quot;, &quot;Roboto Mono&quot;, &quot;Noto Sans Mono&quot;, monospace; font-size: 16px;" text-anchor="middle" dominant-baseline="central">4LPN</text></g><g data-channel="cell" data-cell-index="8" data-cell-row="2" data-cell-col="0" data-cell-blank="true" data-cell-blank-map="true"><rect x="33" y="116" width="48" height="20" rx="10" ry="10" fill="#ffffff" stroke="#000000" stroke-width="1"/><circle cx="39" cy="118.5" r="3.5" fill="#1d4ed8" data-blank-map-min="0,0"/><path d="M 70.8,123.5 H 79.2 M 75,119.3 V 127.7" fill="none" stroke="#d62828" stroke-width="1.925" stroke-linecap="butt" data-blank-map-max="1,3"/></g><g data-channel="cell" data-cell-index="9" data-cell-row="2" data-cell-col="1"><rect x="93" y="116" width="48" height="20" fill="#ccad89"/><text x="117" y="126" fill="#000000" style="font-family: &quot;JetBrains Mono&quot;, &quot;Menlo&quot;, &quot;Consolas&quot;, &quot;DejaVu Sans Mono&quot;, &quot;Liberation Mono&quot;, &quot;Roboto Mono&quot;, &quot;Noto Sans Mono&quot;, monospace; font-size: 16px;" text-anchor="middle" dominant-baseline="central">RGW4</text></g><g data-channel="cell" data-cell-index="10" data-cell-row="2" data-cell-col="2" data-cell-quartile="2"><rect x="153" y="116" width="48" height="20" fill="#006148"/><text x="177" y="126" fill="#ffffff" style="font-family: &quot;JetBrains Mono&quot;, &quot;Menlo&quot;, &quot;Consolas&quot;, &quot;DejaVu Sans Mono&quot;, &quot;Liberation Mono&quot;, &quot;Roboto Mono&quot;, &quot;Noto Sans Mono&quot;, monospace; font-size: 16px;" text-anchor="middle" dominant-baseline="central">JBQQ</text><polygon points="201,116 191,116 201,126" fill="#ffffff"/></g><g data-channel="cell" data-cell-index="11" data-cell-row="2" data-cell-col="3"><rect x="213" y="116" width="48" height="20" fill="#88299c"/><text x="237" y="126" fill="#ffffff" style="font-family: &quot;JetBrains Mono&quot;, &quot;Menlo&quot;, &quot;Consolas&quot;, &quot;DejaVu Sans Mono&quot;, &quot;Liberation Mono&quot;, &quot;Roboto Mono&quot;, &quot;Noto Sans Mono&quot;, monospace; font-size: 16px;" text-anchor="middle" dominant-baseline="central">TQUY</text></g><g data-channel="cell" data-cell-index="12" data-cell-row="3" data-cell-col="0" data-cell-blank="true"><rect x="33" y="156" width="48" height="20" rx="10" ry="10" fill="#ffffff" stroke="#000000" stroke-width="1"/></g><g data-channel="cell" data-cell-index="13" data-cell-row="3" data-cell-col="1"><rect x="93" y="156" width="48" height="20" fill="#bbf8cb"/><text x="117" y="166" fill="#000000" style="font-family: &quot;JetBrains Mono&quot;, &quot;Menlo&quot;, &quot;Consolas&quot;, &quot;DejaVu Sans Mono&quot;, &quot;Liberation Mono&quot;, &quot;Roboto Mono&quot;, &quot;Noto Sans Mono&quot;, monospace; font-size: 16px;" text-anchor="middle" dominant-baseline="central">ZP4L</text></g><g data-channel="cell" data-cell-index="14" data-cell-row="3" data-cell-col="2"><rect x="153" y="156" width="48" height="20" fill="#bb9f1a"/><text x="177" y="166" fill="#000000" style="font-family: &quot;JetBrains Mono&quot;, &quot;Menlo&quot;, &quot;Consolas&quot;, &quot;DejaVu Sans Mono&quot;, &quot;Liberation Mono&quot;, &quot;Roboto Mono&quot;, &quot;Noto Sans Mono&quot;, monospace; font-size: 16px;" text-anchor="middle" dominant-baseline="central">DKP3</text></g><g data-channel="cell" data-cell-index="15" data-cell-row="3" data-cell-col="3"><rect x="213" y="156" width="48" height="20" fill="#cc9891"/><text x="237" y="166" fill="#000000" style="font-family: &quot;JetBrains Mono&quot;, &quot;Menlo&quot;, &quot;Consolas&quot;, &quot;DejaVu Sans Mono&quot;, &quot;Liberation Mono&quot;, &quot;Roboto Mono&quot;, &quot;Noto Sans Mono&quot;, monospace; font-size: 16px;" text-anchor="middle" dominant-baseline="central">SGM</text></g></g></g><g data-channel="color-bar" data-bar-slots="15" data-bar-marker-left="9" data-bar-marker-right="5"><g data-color-bar-rank="0" data-color-bar-band="G"><rect x="1" y="1" width="20" height="41.459" fill="#e7be00"/><text x="11" y="38.939" fill="#000000" style="font-family: &quot;JetBrains Mono&quot;, &quot;Menlo&quot;, &quot;Consolas&quot;, &quot;DejaVu Sans Mono&quot;, &quot;Liberation Mono&quot;, &quot;Roboto Mono&quot;, &quot;Noto Sans Mono&quot;, monospace; font-size: 16px;" text-anchor="middle" data-color-bar-letter="true">g</text></g><g data-color-bar-rank="1" data-color-bar-band="W"><rect x="1" y="42.459" width="20" height="74.74" fill="#ffffff"/><text x="11" y="113.679" fill="#000000" style="font-family: &quot;JetBrains Mono&quot;, &quot;Menlo&quot;, &quot;Consolas&quot;, &quot;DejaVu Sans Mono&quot;, &quot;Liberation Mono&quot;, &quot;Roboto Mono&quot;, &quot;Noto Sans Mono&quot;, monospace; font-size: 16px;" text-anchor="middle" data-color-bar-letter="true">w</text></g><g data-color-bar-rank="2" data-color-bar-band="B"><rect x="1" y="117.199" width="20" height="20.766" fill="#2f3fbf"/><text x="11" y="134.445" fill="#ffffff" style="font-family: &quot;JetBrains Mono&quot;, &quot;Menlo&quot;, &quot;Consolas&quot;, &quot;DejaVu Sans Mono&quot;, &quot;Liberation Mono&quot;, &quot;Roboto Mono&quot;, &quot;Noto Sans Mono&quot;, monospace; font-size: 16px;" text-anchor="middle" data-color-bar-letter="true">b</text></g><g data-color-bar-rank="3" data-color-bar-band="K"><rect x="1" y="137.965" width="20" height="53.035" fill="#000000"/><text x="11" y="187.48" fill="#ffffff" style="font-family: &quot;JetBrains Mono&quot;, &quot;Menlo&quot;, &quot;Consolas&quot;, &quot;DejaVu Sans Mono&quot;, &quot;Liberation Mono&quot;, &quot;Roboto Mono&quot;, &quot;Noto Sans Mono&quot;, monospace; font-size: 16px;" text-anchor="middle" data-color-bar-letter="true">k</text></g><circle cx="5.6" cy="121.333" r="3.4" fill="#ffffff" stroke="#000000" stroke-width="0.75" data-bar-marker="left"/><circle cx="16.4" cy="70.667" r="3.4" fill="#ffffff" stroke="#000000" stroke-width="0.75" data-bar-marker="right"/></g><g data-channel="label-top"><text x="27" y="16" fill="#666666" style="font-family: &quot;JetBrains Mono&quot;, &quot;Menlo&quot;, &quot;Consolas&quot;, &quot;DejaVu Sans Mono&quot;, &quot;Liberation Mono&quot;, &quot;Roboto Mono&quot;, &quot;Noto Sans Mono&quot;, monospace; font-size: 12px;" dominant-baseline="central">XLM: G...</text></g><line x1="0" y1="0.5" x2="273" y2="0.5" stroke="#808080" stroke-width="1" shape-rendering="crispEdges"/><line x1="272.5" y1="0" x2="272.5" y2="192" stroke="#808080" stroke-width="1" shape-rendering="crispEdges"/><line x1="0" y1="191.5" x2="273" y2="191.5" stroke="#808080" stroke-width="1" shape-rendering="crispEdges"/><line x1="0.5" y1="0" x2="0.5" y2="192" stroke="#808080" stroke-width="1" shape-rendering="crispEdges"/><line x1="21.5" y1="0" x2="21.5" y2="192" stroke="#808080" stroke-width="1" shape-rendering="crispEdges"/></svg>