<svg width="275" height="194" viewBox="0 0 275 194" xmlns="http://www.w3.org/2000/svg" font-family="&quot;JetBrains Mono&quot;, &quot;Menlo&quot;, &quot;Consolas&quot;, &quot;DejaVu Sans Mono&quot;, &quot;Liberation Mono&quot;, &quot;Roboto Mono&quot;, &quot;Noto Sans Mono&quot;, monospace" data-entviz-version="v15" data-entviz-lib="0.15.0" data-input-bytes="56" data-cols="4" data-rows="4" data-encoding="base32" data-scheme="stellar" data-role="address" data-size-basis="decoded" data-entropy-type="stellar" data-size-bits="272" data-qualifiers="{}" data-parts="[{&quot;text&quot;:&quot;G&quot;,&quot;bind&quot;:&quot;none&quot;},{&quot;text&quot;:&quot;CKFBEIYTKP5RDBQMUTAPDCDHF2TR4LPNRGW4JBQQTQUYZP4LDKP3SGM&quot;,&quot;bind&quot;:&quot;core&quot;}]"><defs><clipPath id="grid-clip-0505b85683fede30-4x4"><rect x="28" y="27" width="240" height="160"/></clipPath></defs><rect x="1" y="1" width="273" height="192" fill="#ffffff"/><g data-channel="grid"><rect x="28" y="27" width="240" height="160" fill="#ff3f2f"/><g><path fill="#ffffff" d="M46 27h6v10h-6zM52 27h6v10h-6zM58 27h6v10h-6zM70 27h6v10h-6zM76 27h6v10h-6zM82 37h6v10h-6zM58 57h6v10h-6zM46 57h6v10h-6z"/><path fill="#2f3fbf" d="M94 27h6v10h-6zM100 27h6v10h-6zM106 27h6v10h-6zM112 27h6v10h-6zM118 27h6v10h-6zM124 27h6v10h-6zM130 27h6v10h-6zM136 27h6v10h-6zM142 27h6v10h-6zM124 57h6v10h-6zM112 57h6v10h-6zM106 57h6v10h-6zM94 57h6v10h-6zM88 47h6v10h-6z"/><path fill="#e7be00" d="M172 27h6v10h-6zM178 27h6v10h-6zM184 27h6v10h-6zM202 57h6v10h-6zM196 57h6v10h-6zM172 57h6v10h-6zM166 57h6v10h-6zM160 57h6v10h-6zM154 57h6v10h-6zM148 47h6v10h-6zM148 37h6v10h-6z"/><path fill="#e7be00" d="M214 27h6v10h-6zM226 27h6v10h-6zM244 27h6v10h-6zM250 27h6v10h-6zM256 27h6v10h-6zM262 27h6v10h-6zM220 57h6v10h-6zM214 57h6v10h-6zM208 57h6v10h-6zM208 37h6v10h-6z"/><path fill="#ffffff" d="M64 67h6v10h-6zM70 67h6v10h-6zM82 87h6v10h-6zM70 97h6v10h-6zM64 97h6v10h-6zM58 97h6v10h-6zM46 97h6v10h-6zM34 97h6v10h-6zM28 77h6v10h-6z"/><path fill="#e7be00" d="M112 67h6v10h-6zM118 67h6v10h-6zM124 67h6v10h-6zM142 97h6v10h-6zM136 97h6v10h-6zM118 97h6v10h-6zM112 97h6v10h-6zM88 87h6v10h-6z"/><path fill="#e7be00" d="M160 67h6v10h-6zM190 67h6v10h-6zM196 67h6v10h-6zM202 87h6v10h-6zM202 97h6v10h-6zM196 97h6v10h-6zM184 97h6v10h-6zM178 97h6v10h-6zM172 97h6v10h-6zM166 97h6v10h-6zM160 97h6v10h-6zM154 97h6v10h-6z"/><path fill="#ffffff" d="M208 67h6v10h-6zM214 67h6v10h-6zM220 67h6v10h-6zM244 67h6v10h-6zM262 67h6v10h-6zM262 77h6v10h-6zM262 87h6v10h-6zM262 97h6v10h-6zM256 97h6v10h-6zM238 97h6v10h-6zM232 97h6v10h-6zM220 97h6v10h-6zM208 97h6v10h-6zM208 87h6v10h-6zM208 77h6v10h-6z"/><path fill="#e7be00" d="M88 107h6v10h-6zM100 107h6v10h-6zM106 107h6v10h-6zM118 107h6v10h-6zM124 107h6v10h-6zM130 107h6v10h-6zM136 107h6v10h-6zM142 117h6v10h-6zM124 137h6v10h-6zM118 137h6v10h-6zM112 137h6v10h-6zM106 137h6v10h-6zM88 127h6v10h-6zM88 117h6v10h-6z"/><path fill="#000000" d="M148 107h6v10h-6zM154 107h6v10h-6zM184 107h6v10h-6zM196 107h6v10h-6zM202 107h6v10h-6zM202 117h6v10h-6zM202 127h6v10h-6zM202 137h6v10h-6zM172 137h6v10h-6zM148 117h6v10h-6z"/><path fill="#2f3fbf" d="M220 107h6v10h-6zM226 107h6v10h-6zM232 107h6v10h-6zM238 107h6v10h-6zM244 107h6v10h-6zM256 107h6v10h-6zM262 107h6v10h-6zM262 137h6v10h-6zM250 137h6v10h-6zM226 137h6v10h-6zM220 137h6v10h-6zM214 137h6v10h-6zM208 137h6v10h-6zM208 127h6v10h-6z"/><path fill="#ffffff" d="M94 147h6v10h-6zM106 147h6v10h-6zM124 147h6v10h-6zM130 147h6v10h-6zM142 147h6v10h-6zM142 177h6v10h-6zM136 177h6v10h-6zM124 177h6v10h-6zM112 177h6v10h-6zM94 177h6v10h-6zM88 167h6v10h-6z"/><path fill="#e7be00" d="M148 147h6v10h-6zM160 147h6v10h-6zM178 147h6v10h-6zM202 147h6v10h-6zM202 157h6v10h-6zM202 177h6v10h-6zM196 177h6v10h-6zM184 177h6v10h-6zM166 177h6v10h-6zM148 167h6v10h-6z"/><path fill="#e7be00" d="M208 147h6v10h-6zM214 147h6v10h-6zM226 147h6v10h-6zM244 147h6v10h-6zM256 147h6v10h-6zM262 157h6v10h-6zM262 167h6v10h-6zM262 177h6v10h-6zM256 177h6v10h-6zM244 177h6v10h-6zM232 177h6v10h-6zM226 177h6v10h-6zM220 177h6v10h-6zM214 177h6v10h-6zM208 177h6v10h-6zM208 157h6v10h-6z"/></g><g clip-path="url(#grid-clip-0505b85683fede30-4x4)" data-channel="ellipse" data-ellipse-anchor-x="208" data-ellipse-anchor-y="147" data-ellipse-rx="57.977" data-ellipse-ry="78.745" data-ellipse-rotation-deg="24"><ellipse cx="208" cy="147" rx="57.977" ry="78.745" transform="rotate(24 208 147)" fill="#000000" stroke="#000000" fill-opacity="0.25" stroke-opacity="0.35" stroke-width="2"/></g><g><g data-channel="cell" data-cell-index="0" data-cell-row="0" data-cell-col="0" data-surround-bits="0x505b8" data-edge-color="#ffffff"><rect x="34" y="37" width="48" height="20" fill="#118a12"/><text x="58" y="47" fill="#ffffff" font-size="16" text-anchor="middle" dominant-baseline="central">CKFB</text></g><g data-channel="cell" data-cell-index="1" data-cell-row="0" data-cell-col="1" data-surround-bits="0x5683fe" data-edge-color="#2f3fbf" data-cell-quartile="1"><rect x="94" y="37" width="48" height="20" fill="#333122"/><text x="118" y="47" fill="#ffffff" font-size="16" text-anchor="middle" dominant-baseline="central">EIYT</text><polygon points="94,37 104,37 94,47" fill="#ffffff"/></g><g data-channel="cell" data-cell-index="2" data-cell-row="0" data-cell-col="2" data-surround-bits="0xde3070" data-edge-color="#e7be00" data-cell-quartile="4"><rect x="154" y="37" width="48" height="20" fill="#11fb53"/><text x="178" y="47" fill="#000000" font-size="16" text-anchor="middle" dominant-baseline="central">KP5R</text><polygon points="154,57 154,47 164,57" fill="#000000"/></g><g data-channel="cell" data-cell-index="3" data-cell-row="0" data-cell-col="3" data-surround-bits="0xb803ca" data-edge-color="#e7be00" data-cell-quartile="3"><rect x="214" y="37" width="48" height="20" fill="#cc6018"/><text x="238" y="47" fill="#000000" font-size="16" text-anchor="middle" dominant-baseline="central">DBQM</text><polygon points="262,57 262,47 252,57" fill="#000000"/></g><g data-channel="cell" data-cell-index="4" data-cell-row="1" data-cell-col="0" data-surround-bits="0x95c8c0" data-edge-color="#ffffff"><rect x="34" y="77" width="48" height="20" fill="#ffc0a4"/><text x="58" y="87" fill="#000000" font-size="16" text-anchor="middle" dominant-baseline="central">UTAP</text></g><g data-channel="cell" data-cell-index="5" data-cell-row="1" data-cell-col="1" data-surround-bits="0x433070" data-edge-color="#e7be00"><rect x="94" y="77" width="48" height="20" fill="#778618"/><text x="118" y="87" fill="#ffffff" font-size="16" text-anchor="middle" dominant-baseline="central">DCDH</text></g><g data-channel="cell" data-cell-index="6" data-cell-row="1" data-cell-col="2" data-surround-bits="0x1fb984" data-edge-color="#e7be00"><rect x="154" y="77" width="48" height="20" fill="#11a72e"/><text x="178" y="87" fill="#000000" font-size="16" text-anchor="middle" dominant-baseline="central">F2TR</text></g><g data-channel="cell" data-cell-index="7" data-cell-row="1" data-cell-col="3" data-surround-bits="0xeb3e47" data-edge-color="#ffffff"><rect x="214" y="77" width="48" height="20" fill="#dddee2"/><text x="238" y="87" fill="#000000" font-size="16" text-anchor="middle" dominant-baseline="central">4LPN</text></g><g data-channel="cell" data-cell-index="8" data-cell-row="2" data-cell-col="0" data-cell-blank="true" data-cell-blank-map="true"><rect x="34" y="117" width="48" height="20" rx="10" ry="10" fill="#ffffff" stroke="#000000" stroke-width="1"/><circle cx="40" cy="119.5" r="3.5" fill="#1d4ed8" data-blank-map-min="0,0"/><path d="M 71.8,124.5 H 80.2 M 76,120.3 V 128.7" fill="none" stroke="#d62828" stroke-width="1.925" stroke-linecap="butt" data-blank-map-max="1,3"/></g><g data-channel="cell" data-cell-index="9" data-cell-row="2" data-cell-col="1" data-surround-bits="0xc785ed" data-edge-color="#e7be00"><rect x="94" y="117" width="48" height="20" fill="#ccad89"/><text x="118" y="127" fill="#000000" font-size="16" text-anchor="middle" dominant-baseline="central">RGW4</text></g><g data-channel="cell" data-cell-index="10" data-cell-row="2" data-cell-col="2" data-surround-bits="0x821f43" data-edge-color="#000000" data-cell-quartile="2"><rect x="154" y="117" width="48" height="20" fill="#006148"/><text x="178" y="127" fill="#ffffff" font-size="16" text-anchor="middle" dominant-baseline="central">JBQQ</text><polygon points="202,117 192,117 202,127" fill="#ffffff"/></g><g data-channel="cell" data-cell-index="11" data-cell-row="2" data-cell-col="3" data-surround-bits="0x7c537c" data-edge-color="#2f3fbf"><rect x="214" y="117" width="48" height="20" fill="#88299c"/><text x="238" y="127" fill="#ffffff" font-size="16" text-anchor="middle" dominant-baseline="central">TQUY</text></g><g data-channel="cell" data-cell-index="12" data-cell-row="3" data-cell-col="0" data-cell-blank="true"><rect x="34" y="157" width="48" height="20" rx="10" ry="10" fill="#ffffff" stroke="#000000" stroke-width="1"/></g><g data-channel="cell" data-cell-index="13" data-cell-row="3" data-cell-col="1" data-surround-bits="0x52b2ca" data-edge-color="#ffffff"><rect x="94" y="157" width="48" height="20" fill="#bbf8cb"/><text x="118" y="167" fill="#000000" font-size="16" text-anchor="middle" dominant-baseline="central">ZP4L</text></g><g data-channel="cell" data-cell-index="14" data-cell-row="3" data-cell-col="2" data-surround-bits="0x44b625" data-edge-color="#e7be00"><rect x="154" y="157" width="48" height="20" fill="#bb9f1a"/><text x="178" y="167" fill="#000000" font-size="16" text-anchor="middle" dominant-baseline="central">DKP3</text></g><g data-channel="cell" data-cell-index="15" data-cell-row="3" data-cell-col="3" data-surround-bits="0xbebd4b" data-edge-color="#e7be00"><rect x="214" y="157" width="48" height="20" fill="#cc9891"/><text x="238" y="167" fill="#000000" font-size="16" text-anchor="middle" dominant-baseline="central">SGM</text></g></g></g><g data-channel="color-bar" data-bar-slots="15" data-bar-marker-left="9" data-bar-marker-right="5"><g data-color-bar-rank="0" data-color-bar-band="G"><rect x="2" y="2" width="20" height="41.459" fill="#e7be00"/><text x="12" y="39.939" fill="#000000" font-size="16" text-anchor="middle" data-color-bar-letter="true">g</text></g><g data-color-bar-rank="1" data-color-bar-band="W"><rect x="2" y="43.459" width="20" height="74.74" fill="#ffffff"/><text x="12" y="114.679" fill="#000000" font-size="16" text-anchor="middle" data-color-bar-letter="true">w</text></g><g data-color-bar-rank="2" data-color-bar-band="B"><rect x="2" y="118.199" width="20" height="20.766" fill="#2f3fbf"/><text x="12" y="135.445" fill="#ffffff" font-size="16" text-anchor="middle" data-color-bar-letter="true">b</text></g><g data-color-bar-rank="3" data-color-bar-band="K"><rect x="2" y="138.965" width="20" height="53.035" fill="#000000"/><text x="12" y="188.48" fill="#ffffff" font-size="16" text-anchor="middle" data-color-bar-letter="true">k</text></g><circle cx="6.6" cy="122.333" r="3.4" fill="#ffffff" stroke="#000000" stroke-width="0.75" data-bar-marker="left"/><circle cx="17.4" cy="71.667" r="3.4" fill="#ffffff" stroke="#000000" stroke-width="0.75" data-bar-marker="right"/></g><g data-channel="label-top"><text x="28" y="17" fill="#666666" font-size="12" dominant-baseline="central">XLM, G</text></g><line x1="1" y1="1.5" x2="274" y2="1.5" stroke="#808080" stroke-width="1" shape-rendering="crispEdges"/><line x1="273.5" y1="1" x2="273.5" y2="193" stroke="#808080" stroke-width="1" shape-rendering="crispEdges"/><line x1="1" y1="192.5" x2="274" y2="192.5" stroke="#808080" stroke-width="1" shape-rendering="crispEdges"/><line x1="1.5" y1="1" x2="1.5" y2="193" stroke="#808080" stroke-width="1" shape-rendering="crispEdges"/><line x1="22.5" y1="1" x2="22.5" y2="193" stroke="#808080" stroke-width="1" shape-rendering="crispEdges"/></svg>