<svg width="275" height="194" viewBox="0 0 275 194" xmlns="http://www.w3.org/2000/svg" font-family="&quot;JetBrains Mono&quot;, &quot;Menlo&quot;, &quot;Consolas&quot;, &quot;DejaVu Sans Mono&quot;, &quot;Liberation Mono&quot;, &quot;Roboto Mono&quot;, &quot;Noto Sans Mono&quot;, monospace" data-entviz-version="v14" data-entviz-lib="0.14.0" data-input-bytes="71" data-cols="4" data-rows="4" data-encoding="base64url" data-scheme="did" data-role="identifier" data-size-basis="utf8" data-entropy-type="did" data-size-bits="488" data-qualifiers="{&quot;method&quot;:&quot;webvh&quot;}" data-parts="[{&quot;text&quot;:&quot;did:webvh:&quot;,&quot;bind&quot;:&quot;fold&quot;},{&quot;text&quot;:&quot;QmQyDxVnosYTzHAMbzYDRZkVrD32ea9Sr2XNs8NkgMB5mn:domain.example&quot;,&quot;bind&quot;:&quot;core&quot;}]"><defs><clipPath id="grid-clip-bf779a0effa5160a-4x4"><rect x="28" y="27" width="240" height="160"/></clipPath></defs><rect x="1" y="1" width="273" height="192" fill="#ffffff"/><g data-channel="grid"><rect x="28" y="27" width="240" height="160" fill="#ffffff"/><g><path fill="#2f3fbf" d="M34 27h6v10h-6zM46 27h6v10h-6zM52 27h6v10h-6zM70 27h6v10h-6zM76 27h6v10h-6zM82 27h6v10h-6zM82 37h6v10h-6zM82 57h6v10h-6zM76 57h6v10h-6zM70 57h6v10h-6zM58 57h6v10h-6zM52 57h6v10h-6zM46 57h6v10h-6zM40 57h6v10h-6zM34 57h6v10h-6zM28 57h6v10h-6zM28 37h6v10h-6z"/><path fill="#000000" d="M88 27h6v10h-6zM100 27h6v10h-6zM118 27h6v10h-6zM130 27h6v10h-6zM136 27h6v10h-6zM142 27h6v10h-6zM142 37h6v10h-6zM142 47h6v10h-6zM142 57h6v10h-6zM136 57h6v10h-6zM130 57h6v10h-6zM124 57h6v10h-6zM112 57h6v10h-6zM106 57h6v10h-6zM100 57h6v10h-6z"/><path fill="#000000" d="M148 27h6v10h-6zM154 27h6v10h-6zM166 27h6v10h-6zM184 27h6v10h-6zM202 27h6v10h-6zM202 47h6v10h-6zM172 57h6v10h-6zM166 57h6v10h-6zM154 57h6v10h-6z"/><path fill="#2f3fbf" d="M214 27h6v10h-6zM226 27h6v10h-6zM232 27h6v10h-6zM250 27h6v10h-6zM262 47h6v10h-6zM262 57h6v10h-6zM244 57h6v10h-6zM238 57h6v10h-6zM226 57h6v10h-6zM220 57h6v10h-6zM208 47h6v10h-6zM208 37h6v10h-6z"/><path fill="#2f3fbf" d="M40 67h6v10h-6zM46 67h6v10h-6zM52 67h6v10h-6zM58 67h6v10h-6zM64 67h6v10h-6zM70 67h6v10h-6zM82 77h6v10h-6zM70 97h6v10h-6zM34 97h6v10h-6zM28 97h6v10h-6z"/><path fill="#2f3fbf" d="M94 67h6v10h-6zM100 67h6v10h-6zM106 67h6v10h-6zM112 67h6v10h-6zM136 97h6v10h-6zM130 97h6v10h-6zM124 97h6v10h-6zM112 97h6v10h-6zM106 97h6v10h-6zM100 97h6v10h-6zM94 97h6v10h-6zM88 87h6v10h-6zM88 77h6v10h-6z"/><path fill="#ff3f2f" d="M148 67h6v10h-6zM184 67h6v10h-6zM190 67h6v10h-6zM202 77h6v10h-6zM196 97h6v10h-6zM184 97h6v10h-6zM178 97h6v10h-6zM160 97h6v10h-6zM148 97h6v10h-6z"/><path fill="#2f3fbf" d="M220 67h6v10h-6zM232 67h6v10h-6zM244 67h6v10h-6zM250 97h6v10h-6zM232 97h6v10h-6zM226 97h6v10h-6zM208 87h6v10h-6zM208 77h6v10h-6z"/><path fill="#2f3fbf" d="M34 107h6v10h-6zM46 107h6v10h-6zM52 107h6v10h-6zM58 107h6v10h-6zM82 117h6v10h-6zM82 127h6v10h-6zM82 137h6v10h-6zM70 137h6v10h-6zM64 137h6v10h-6zM40 137h6v10h-6zM28 137h6v10h-6zM28 127h6v10h-6z"/><path fill="#2f3fbf" d="M106 107h6v10h-6zM112 107h6v10h-6zM124 107h6v10h-6zM142 107h6v10h-6zM142 117h6v10h-6zM142 137h6v10h-6zM136 137h6v10h-6zM106 137h6v10h-6zM100 137h6v10h-6zM94 137h6v10h-6z"/><path fill="#e7be00" d="M160 107h6v10h-6zM166 107h6v10h-6zM178 107h6v10h-6zM184 107h6v10h-6zM196 137h6v10h-6zM172 137h6v10h-6zM166 137h6v10h-6zM160 137h6v10h-6z"/><path fill="#2f3fbf" d="M214 107h6v10h-6zM220 107h6v10h-6zM232 107h6v10h-6zM238 107h6v10h-6zM256 107h6v10h-6zM262 117h6v10h-6zM256 137h6v10h-6zM238 137h6v10h-6zM226 137h6v10h-6zM220 137h6v10h-6zM214 137h6v10h-6zM208 137h6v10h-6z"/><path fill="#2f3fbf" d="M40 147h6v10h-6zM46 147h6v10h-6zM58 147h6v10h-6zM70 147h6v10h-6zM82 167h6v10h-6zM82 177h6v10h-6zM70 177h6v10h-6zM64 177h6v10h-6zM58 177h6v10h-6zM52 177h6v10h-6zM46 177h6v10h-6zM34 177h6v10h-6zM28 177h6v10h-6z"/><path fill="#2f3fbf" d="M94 147h6v10h-6zM112 147h6v10h-6zM118 147h6v10h-6zM124 147h6v10h-6zM130 147h6v10h-6zM136 147h6v10h-6zM142 147h6v10h-6zM142 167h6v10h-6zM136 177h6v10h-6zM124 177h6v10h-6zM118 177h6v10h-6zM106 177h6v10h-6zM94 177h6v10h-6zM88 177h6v10h-6zM88 157h6v10h-6z"/><path fill="#2f3fbf" d="M154 147h6v10h-6zM160 147h6v10h-6zM178 147h6v10h-6zM190 147h6v10h-6zM202 147h6v10h-6zM196 177h6v10h-6zM190 177h6v10h-6zM178 177h6v10h-6zM172 177h6v10h-6zM166 177h6v10h-6zM154 177h6v10h-6z"/><path fill="#e7be00" d="M214 147h6v10h-6zM220 147h6v10h-6zM226 147h6v10h-6zM232 147h6v10h-6zM244 147h6v10h-6zM250 147h6v10h-6zM262 147h6v10h-6zM256 177h6v10h-6zM220 177h6v10h-6zM214 177h6v10h-6zM208 177h6v10h-6zM208 167h6v10h-6z"/></g><g clip-path="url(#grid-clip-bf779a0effa5160a-4x4)" data-channel="ellipse" data-ellipse-anchor-x="208" data-ellipse-anchor-y="147" data-ellipse-rx="47.593" data-ellipse-ry="78.745" data-ellipse-rotation-deg="144"><ellipse cx="208" cy="147" rx="47.593" ry="78.745" transform="rotate(144 208 147)" fill="#000000" stroke="#000000" fill-opacity="0.2" stroke-opacity="0.3" stroke-width="2"/></g><g><g data-channel="cell" data-cell-index="0" data-cell-row="0" data-cell-col="0" data-surround-bits="0xbf779a" data-edge-color="#2f3fbf"><rect x="34" y="37" width="48" height="20" fill="#326442"/><text x="58" y="47" fill="#ffffff" font-size="16" text-anchor="middle" dominant-baseline="central">QmQy</text></g><g data-channel="cell" data-cell-index="1" data-cell-row="0" data-cell-col="1" data-surround-bits="0xeffa5" data-edge-color="#000000"><rect x="94" y="37" width="48" height="20" fill="#67150f"/><text x="118" y="47" fill="#ffffff" font-size="16" text-anchor="middle" dominant-baseline="central">DxVn</text></g><g data-channel="cell" data-cell-index="2" data-cell-row="0" data-cell-col="2" data-surround-bits="0x160a4b" data-edge-color="#000000" data-cell-quartile="2"><rect x="154" y="37" width="48" height="20" fill="#13c6a2"/><text x="178" y="47" fill="#000000" font-size="16" text-anchor="middle" dominant-baseline="central">osYT</text><polygon points="202,37 192,37 202,47" fill="#000000"/></g><g data-channel="cell" data-cell-index="3" data-cell-row="0" data-cell-col="3" data-surround-bits="0xcd989a" data-edge-color="#2f3fbf" data-cell-quartile="3"><rect x="214" y="37" width="48" height="20" fill="#0c70cc"/><text x="238" y="47" fill="#ffffff" font-size="16" text-anchor="middle" dominant-baseline="central">zHAM</text><polygon points="262,57 262,47 252,57" fill="#ffffff"/></g><g data-channel="cell" data-cell-index="4" data-cell-row="1" data-cell-col="0" data-surround-bits="0x3044fc" data-edge-color="#2f3fbf"><rect x="34" y="77" width="48" height="20" fill="#03366f"/><text x="58" y="87" fill="#ffffff" font-size="16" text-anchor="middle" dominant-baseline="central">bzYD</text></g><g data-channel="cell" data-cell-index="5" data-cell-row="1" data-cell-col="1" data-surround-bits="0xdee01e" data-edge-color="#2f3fbf"><rect x="94" y="77" width="48" height="20" fill="#159945"/><text x="118" y="87" fill="#ffffff" font-size="16" text-anchor="middle" dominant-baseline="central">RZkV</text></g><g data-channel="cell" data-cell-index="6" data-cell-row="1" data-cell-col="2" data-surround-bits="0x29a4c1" data-edge-color="#ff3f2f"><rect x="154" y="77" width="48" height="20" fill="#f63dac"/><text x="178" y="87" fill="#000000" font-size="16" text-anchor="middle" dominant-baseline="central">rD32</text></g><g data-channel="cell" data-cell-index="7" data-cell-row="1" data-cell-col="3" data-surround-bits="0xc64054" data-edge-color="#2f3fbf"><rect x="214" y="77" width="48" height="20" fill="#52af79"/><text x="238" y="87" fill="#000000" font-size="16" text-anchor="middle" dominant-baseline="central">ea9S</text></g><g data-channel="cell" data-cell-index="8" data-cell-row="2" data-cell-col="0" data-surround-bits="0x68dc3a" data-edge-color="#2f3fbf"><rect x="34" y="117" width="48" height="20" fill="#cd65af"/><text x="58" y="127" fill="#000000" font-size="16" text-anchor="middle" dominant-baseline="central">r2XN</text></g><g data-channel="cell" data-cell-index="9" data-cell-row="2" data-cell-col="1" data-surround-bits="0x1c3658" data-edge-color="#2f3fbf"><rect x="94" y="117" width="48" height="20" fill="#64c3b3"/><text x="118" y="127" fill="#000000" font-size="16" text-anchor="middle" dominant-baseline="central">s8Nk</text></g><g data-channel="cell" data-cell-index="10" data-cell-row="2" data-cell-col="2" data-surround-bits="0xe206c" data-edge-color="#e7be00"><rect x="154" y="117" width="48" height="20" fill="#79c080"/><text x="178" y="127" fill="#000000" font-size="16" text-anchor="middle" dominant-baseline="central">gMB5</text></g><g data-channel="cell" data-cell-index="11" data-cell-row="2" data-cell-col="3" data-surround-bits="0x3d2536" data-edge-color="#2f3fbf" data-cell-quartile="1"><rect x="214" y="117" width="48" height="20" fill="#1d709a"/><text x="238" y="127" fill="#ffffff" font-size="16" text-anchor="middle" dominant-baseline="central">mn:d</text><polygon points="214,117 224,117 214,127" fill="#ffffff"/></g><g data-channel="cell" data-cell-index="12" data-cell-row="3" data-cell-col="0" data-surround-bits="0x37d8ac" data-edge-color="#2f3fbf"><rect x="34" y="157" width="48" height="20" fill="#a266a2"/><text x="58" y="167" fill="#ffffff" font-size="16" text-anchor="middle" dominant-baseline="central">omai</text></g><g data-channel="cell" data-cell-index="13" data-cell-row="3" data-cell-col="1" data-surround-bits="0xb5abf2" data-edge-color="#2f3fbf"><rect x="94" y="157" width="48" height="20" fill="#b1079c"/><text x="118" y="167" fill="#ffffff" font-size="16" text-anchor="middle" dominant-baseline="central">n.ex</text></g><g data-channel="cell" data-cell-index="14" data-cell-row="3" data-cell-col="2" data-surround-bits="0x1762a6" data-edge-color="#2f3fbf" data-cell-quartile="4"><rect x="154" y="157" width="48" height="20" fill="#656a6a"/><text x="178" y="167" fill="#ffffff" font-size="16" text-anchor="middle" dominant-baseline="central">ampl</text><polygon points="154,177 154,167 164,177" fill="#ffffff"/></g><g data-channel="cell" data-cell-index="15" data-cell-row="3" data-cell-col="3" data-surround-bits="0x7822de" data-edge-color="#e7be00"><rect x="214" y="157" width="48" height="20" fill="#9ee779"/><text x="238" y="167" fill="#000000" font-size="16" text-anchor="middle" dominant-baseline="central">e</text></g></g></g><g data-channel="color-bar" data-bar-slots="15" data-bar-marker-left="7" data-bar-marker-right="11"><g data-color-bar-rank="0" data-color-bar-band="K"><rect x="2" y="2" width="20" height="30.609" fill="#000000"/><text x="12" y="29.089" fill="#ffffff" font-size="16" text-anchor="middle" data-color-bar-letter="true">k</text></g><g data-color-bar-rank="1" data-color-bar-band="B"><rect x="2" y="32.609" width="20" height="39.968" fill="#2f3fbf"/><text x="12" y="69.057" fill="#ffffff" font-size="16" text-anchor="middle" data-color-bar-letter="true">b</text></g><g data-color-bar-rank="2" data-color-bar-band="R"><rect x="2" y="72.577" width="20" height="42.609" fill="#ff3f2f"/><text x="12" y="111.667" fill="#000000" font-size="16" text-anchor="middle" data-color-bar-letter="true">r</text></g><g data-color-bar-rank="3" data-color-bar-band="G"><rect x="2" y="115.187" width="20" height="76.813" fill="#e7be00"/><text x="12" y="188.48" fill="#000000" font-size="16" text-anchor="middle" data-color-bar-letter="true">g</text></g><circle cx="6.6" cy="97" r="3.4" fill="#ffffff" stroke="#000000" stroke-width="0.75" data-bar-marker="left"/><circle cx="17.4" cy="147.667" r="3.4" fill="#ffffff" stroke="#000000" stroke-width="0.75" data-bar-marker="right"/></g><g data-channel="label-top"><text x="28" y="17" fill="#666666" font-size="12" dominant-baseline="central">did:webvh</text></g><line x1="1" y1="1.5" x2="274" y2="1.5" stroke="#808080" stroke-width="1" shape-rendering="crispEdges"/><line x1="273.5" y1="1" x2="273.5" y2="193" stroke="#808080" stroke-width="1" shape-rendering="crispEdges"/><line x1="1" y1="192.5" x2="274" y2="192.5" stroke="#808080" stroke-width="1" shape-rendering="crispEdges"/><line x1="1.5" y1="1" x2="1.5" y2="193" stroke="#808080" stroke-width="1" shape-rendering="crispEdges"/><line x1="22.5" y1="1" x2="22.5" y2="193" stroke="#808080" stroke-width="1" shape-rendering="crispEdges"/></svg>