<svg width="211.0" height="158.0" xmlns="http://www.w3.org/2000/svg"><defs><clipPath id="bounding-clip"><rect x="0" y="0" width="211.0" height="158.0"/></clipPath><linearGradient id="g0" gradientUnits="userSpaceOnUse" x1="34.0" y1="13.0" x2="34.0" y2="5.0"><stop offset="0%" stop-color="#aaaaaa"/><stop offset="100%" stop-color="#2f3fbf"/></linearGradient><linearGradient id="g1" gradientUnits="userSpaceOnUse" x1="58.0" y1="13.0" x2="58.0" y2="5.0"><stop offset="0%" stop-color="#aaaaaa"/><stop offset="100%" stop-color="#ffffff"/></linearGradient><linearGradient id="g2" gradientUnits="userSpaceOnUse" x1="70.0" y1="21.0" x2="78.0" y2="21.0"><stop offset="0%" stop-color="#aaaaaa"/><stop offset="100%" stop-color="#000000"/></linearGradient><linearGradient id="g3" gradientUnits="userSpaceOnUse" x1="58.0" y1="29.0" x2="58.0" y2="37.0"><stop offset="0%" stop-color="#aaaaaa"/><stop offset="100%" stop-color="#2f3fbf"/></linearGradient><linearGradient id="g4" gradientUnits="userSpaceOnUse" x1="34.0" y1="29.0" x2="34.0" y2="37.0"><stop offset="0%" stop-color="#aaaaaa"/><stop offset="100%" stop-color="#ffffff"/></linearGradient><linearGradient id="g5" gradientUnits="userSpaceOnUse" x1="22.0" y1="21.0" x2="14.0" y2="21.0"><stop offset="0%" stop-color="#aaaaaa"/><stop offset="100%" stop-color="#ffffff"/></linearGradient><linearGradient id="g6" gradientUnits="userSpaceOnUse" x1="162.0" y1="13.0" x2="162.0" y2="5.0"><stop offset="0%" stop-color="#aaaaaa"/><stop offset="100%" stop-color="#ffffff"/></linearGradient><linearGradient id="g7" gradientUnits="userSpaceOnUse" x1="186.0" y1="13.0" x2="186.0" y2="5.0"><stop offset="0%" stop-color="#aaaaaa"/><stop offset="100%" stop-color="#000000"/></linearGradient><linearGradient id="g8" gradientUnits="userSpaceOnUse" x1="198.0" y1="21.0" x2="206.0" y2="21.0"><stop offset="0%" stop-color="#aaaaaa"/><stop offset="100%" stop-color="#000000"/></linearGradient><linearGradient id="g9" gradientUnits="userSpaceOnUse" x1="186.0" y1="29.0" x2="186.0" y2="37.0"><stop offset="0%" stop-color="#aaaaaa"/><stop offset="100%" stop-color="#000000"/></linearGradient><linearGradient id="g10" gradientUnits="userSpaceOnUse" x1="162.0" y1="29.0" x2="162.0" y2="37.0"><stop offset="0%" stop-color="#aaaaaa"/><stop offset="100%" stop-color="#2f3fbf"/></linearGradient><linearGradient id="g11" gradientUnits="userSpaceOnUse" x1="150.0" y1="21.0" x2="142.0" y2="21.0"><stop offset="0%" stop-color="#aaaaaa"/><stop offset="100%" stop-color="#000000"/></linearGradient><linearGradient id="g12" gradientUnits="userSpaceOnUse" x1="34.0" y1="45.0" x2="34.0" y2="37.0"><stop offset="0%" stop-color="#aaaaaa"/><stop offset="100%" stop-color="#ffffff"/></linearGradient><linearGradient id="g13" gradientUnits="userSpaceOnUse" x1="58.0" y1="45.0" x2="58.0" y2="37.0"><stop offset="0%" stop-color="#aaaaaa"/><stop offset="100%" stop-color="#ffd966"/></linearGradient><linearGradient id="g14" gradientUnits="userSpaceOnUse" x1="70.0" y1="53.0" x2="78.0" y2="53.0"><stop offset="0%" stop-color="#aaaaaa"/><stop offset="100%" stop-color="#ffffff"/></linearGradient><linearGradient id="g15" gradientUnits="userSpaceOnUse" x1="58.0" y1="61.0" x2="58.0" y2="69.0"><stop offset="0%" stop-color="#aaaaaa"/><stop offset="100%" stop-color="#2f3fbf"/></linearGradient><linearGradient id="g16" gradientUnits="userSpaceOnUse" x1="34.0" y1="61.0" x2="34.0" y2="69.0"><stop offset="0%" stop-color="#aaaaaa"/><stop offset="100%" stop-color="#2f3fbf"/></linearGradient><linearGradient id="g17" gradientUnits="userSpaceOnUse" x1="22.0" y1="53.0" x2="14.0" y2="53.0"><stop offset="0%" stop-color="#aaaaaa"/><stop offset="100%" stop-color="#2f3fbf"/></linearGradient><linearGradient id="g18" gradientUnits="userSpaceOnUse" x1="98.0" y1="45.0" x2="98.0" y2="37.0"><stop offset="0%" stop-color="#aaaaaa"/><stop offset="100%" stop-color="#ffffff"/></linearGradient><linearGradient id="g19" gradientUnits="userSpaceOnUse" x1="122.0" y1="45.0" x2="122.0" y2="37.0"><stop offset="0%" stop-color="#aaaaaa"/><stop offset="100%" stop-color="#ffd966"/></linearGradient><linearGradient id="g20" gradientUnits="userSpaceOnUse" x1="134.0" y1="53.0" x2="142.0" y2="53.0"><stop offset="0%" stop-color="#aaaaaa"/><stop offset="100%" stop-color="#ffd966"/></linearGradient><linearGradient id="g21" gradientUnits="userSpaceOnUse" x1="122.0" y1="61.0" x2="122.0" y2="69.0"><stop offset="0%" stop-color="#aaaaaa"/><stop offset="100%" stop-color="#000000"/></linearGradient><linearGradient id="g22" gradientUnits="userSpaceOnUse" x1="98.0" y1="61.0" x2="98.0" y2="69.0"><stop offset="0%" stop-color="#aaaaaa"/><stop offset="100%" stop-color="#000000"/></linearGradient><linearGradient id="g23" gradientUnits="userSpaceOnUse" x1="86.0" y1="53.0" x2="78.0" y2="53.0"><stop offset="0%" stop-color="#aaaaaa"/><stop offset="100%" stop-color="#ffd966"/></linearGradient><linearGradient id="g24" gradientUnits="userSpaceOnUse" x1="162.0" y1="45.0" x2="162.0" y2="37.0"><stop offset="0%" stop-color="#aaaaaa"/><stop offset="100%" stop-color="#000000"/></linearGradient><linearGradient id="g25" gradientUnits="userSpaceOnUse" x1="186.0" y1="45.0" x2="186.0" y2="37.0"><stop offset="0%" stop-color="#aaaaaa"/><stop offset="100%" stop-color="#ffd966"/></linearGradient><linearGradient id="g26" gradientUnits="userSpaceOnUse" x1="198.0" y1="53.0" x2="206.0" y2="53.0"><stop offset="0%" stop-color="#aaaaaa"/><stop offset="100%" stop-color="#000000"/></linearGradient><linearGradient id="g27" gradientUnits="userSpaceOnUse" x1="186.0" y1="61.0" x2="186.0" y2="69.0"><stop offset="0%" stop-color="#aaaaaa"/><stop offset="100%" stop-color="#2f3fbf"/></linearGradient><linearGradient id="g28" gradientUnits="userSpaceOnUse" x1="162.0" y1="61.0" x2="162.0" y2="69.0"><stop offset="0%" stop-color="#aaaaaa"/><stop offset="100%" stop-color="#000000"/></linearGradient><linearGradient id="g29" gradientUnits="userSpaceOnUse" x1="150.0" y1="53.0" x2="142.0" y2="53.0"><stop offset="0%" stop-color="#aaaaaa"/><stop offset="100%" stop-color="#000000"/></linearGradient><linearGradient id="g30" gradientUnits="userSpaceOnUse" x1="34.0" y1="77.0" x2="34.0" y2="69.0"><stop offset="0%" stop-color="#aaaaaa"/><stop offset="100%" stop-color="#000000"/></linearGradient><linearGradient id="g31" gradientUnits="userSpaceOnUse" x1="58.0" y1="77.0" x2="58.0" y2="69.0"><stop offset="0%" stop-color="#aaaaaa"/><stop offset="100%" stop-color="#ffffff"/></linearGradient><linearGradient id="g32" gradientUnits="userSpaceOnUse" x1="70.0" y1="85.0" x2="78.0" y2="85.0"><stop offset="0%" stop-color="#aaaaaa"/><stop offset="100%" stop-color="#2f3fbf"/></linearGradient><linearGradient id="g33" gradientUnits="userSpaceOnUse" x1="58.0" y1="93.0" x2="58.0" y2="101.0"><stop offset="0%" stop-color="#aaaaaa"/><stop offset="100%" stop-color="#ffd966"/></linearGradient><linearGradient id="g34" gradientUnits="userSpaceOnUse" x1="34.0" y1="93.0" x2="34.0" y2="101.0"><stop offset="0%" stop-color="#aaaaaa"/><stop offset="100%" stop-color="#000000"/></linearGradient><linearGradient id="g35" gradientUnits="userSpaceOnUse" x1="22.0" y1="85.0" x2="14.0" y2="85.0"><stop offset="0%" stop-color="#aaaaaa"/><stop offset="100%" stop-color="#ffffff"/></linearGradient><linearGradient id="g36" gradientUnits="userSpaceOnUse" x1="98.0" y1="77.0" x2="98.0" y2="69.0"><stop offset="0%" stop-color="#aaaaaa"/><stop offset="100%" stop-color="#2f3fbf"/></linearGradient><linearGradient id="g37" gradientUnits="userSpaceOnUse" x1="122.0" y1="77.0" x2="122.0" y2="69.0"><stop offset="0%" stop-color="#aaaaaa"/><stop offset="100%" stop-color="#ffffff"/></linearGradient><linearGradient id="g38" gradientUnits="userSpaceOnUse" x1="134.0" y1="85.0" x2="142.0" y2="85.0"><stop offset="0%" stop-color="#aaaaaa"/><stop offset="100%" stop-color="#ffffff"/></linearGradient><linearGradient id="g39" gradientUnits="userSpaceOnUse" x1="122.0" y1="93.0" x2="122.0" y2="101.0"><stop offset="0%" stop-color="#aaaaaa"/><stop offset="100%" stop-color="#ffd966"/></linearGradient><linearGradient id="g40" gradientUnits="userSpaceOnUse" x1="98.0" y1="93.0" x2="98.0" y2="101.0"><stop offset="0%" stop-color="#aaaaaa"/><stop offset="100%" stop-color="#ffffff"/></linearGradient><linearGradient id="g41" gradientUnits="userSpaceOnUse" x1="86.0" y1="85.0" x2="78.0" y2="85.0"><stop offset="0%" stop-color="#aaaaaa"/><stop offset="100%" stop-color="#ffd966"/></linearGradient><linearGradient id="g42" gradientUnits="userSpaceOnUse" x1="162.0" y1="77.0" x2="162.0" y2="69.0"><stop offset="0%" stop-color="#aaaaaa"/><stop offset="100%" stop-color="#000000"/></linearGradient><linearGradient id="g43" gradientUnits="userSpaceOnUse" x1="186.0" y1="77.0" x2="186.0" y2="69.0"><stop offset="0%" stop-color="#aaaaaa"/><stop offset="100%" stop-color="#2f3fbf"/></linearGradient><linearGradient id="g44" gradientUnits="userSpaceOnUse" x1="198.0" y1="85.0" x2="206.0" y2="85.0"><stop offset="0%" stop-color="#aaaaaa"/><stop offset="100%" stop-color="#2f3fbf"/></linearGradient><linearGradient id="g45" gradientUnits="userSpaceOnUse" x1="186.0" y1="93.0" x2="186.0" y2="101.0"><stop offset="0%" stop-color="#aaaaaa"/><stop offset="100%" stop-color="#000000"/></linearGradient><linearGradient id="g46" gradientUnits="userSpaceOnUse" x1="162.0" y1="93.0" x2="162.0" y2="101.0"><stop offset="0%" stop-color="#aaaaaa"/><stop offset="100%" stop-color="#2f3fbf"/></linearGradient><linearGradient id="g47" gradientUnits="userSpaceOnUse" x1="150.0" y1="85.0" x2="142.0" y2="85.0"><stop offset="0%" stop-color="#aaaaaa"/><stop offset="100%" stop-color="#2f3fbf"/></linearGradient><linearGradient id="g48" gradientUnits="userSpaceOnUse" x1="34.0" y1="109.0" x2="34.0" y2="101.0"><stop offset="0%" stop-color="#aaaaaa"/><stop offset="100%" stop-color="#2f3fbf"/></linearGradient><linearGradient id="g49" gradientUnits="userSpaceOnUse" x1="58.0" y1="109.0" x2="58.0" y2="101.0"><stop offset="0%" stop-color="#aaaaaa"/><stop offset="100%" stop-color="#2f3fbf"/></linearGradient><linearGradient id="g50" gradientUnits="userSpaceOnUse" x1="70.0" y1="117.0" x2="78.0" y2="117.0"><stop offset="0%" stop-color="#aaaaaa"/><stop offset="100%" stop-color="#ffd966"/></linearGradient><linearGradient id="g51" gradientUnits="userSpaceOnUse" x1="58.0" y1="125.0" x2="58.0" y2="133.0"><stop offset="0%" stop-color="#aaaaaa"/><stop offset="100%" stop-color="#000000"/></linearGradient><linearGradient id="g52" gradientUnits="userSpaceOnUse" x1="34.0" y1="125.0" x2="34.0" y2="133.0"><stop offset="0%" stop-color="#aaaaaa"/><stop offset="100%" stop-color="#ffd966"/></linearGradient><linearGradient id="g53" gradientUnits="userSpaceOnUse" x1="22.0" y1="117.0" x2="14.0" y2="117.0"><stop offset="0%" stop-color="#aaaaaa"/><stop offset="100%" stop-color="#2f3fbf"/></linearGradient><linearGradient id="g54" gradientUnits="userSpaceOnUse" x1="98.0" y1="109.0" x2="98.0" y2="101.0"><stop offset="0%" stop-color="#aaaaaa"/><stop offset="100%" stop-color="#2f3fbf"/></linearGradient><linearGradient id="g55" gradientUnits="userSpaceOnUse" x1="122.0" y1="109.0" x2="122.0" y2="101.0"><stop offset="0%" stop-color="#aaaaaa"/><stop offset="100%" stop-color="#2f3fbf"/></linearGradient><linearGradient id="g56" gradientUnits="userSpaceOnUse" x1="134.0" y1="117.0" x2="142.0" y2="117.0"><stop offset="0%" stop-color="#aaaaaa"/><stop offset="100%" stop-color="#ffffff"/></linearGradient><linearGradient id="g57" gradientUnits="userSpaceOnUse" x1="122.0" y1="125.0" x2="122.0" y2="133.0"><stop offset="0%" stop-color="#aaaaaa"/><stop offset="100%" stop-color="#ffd966"/></linearGradient><linearGradient id="g58" gradientUnits="userSpaceOnUse" x1="98.0" y1="125.0" x2="98.0" y2="133.0"><stop offset="0%" stop-color="#aaaaaa"/><stop offset="100%" stop-color="#000000"/></linearGradient><linearGradient id="g59" gradientUnits="userSpaceOnUse" x1="86.0" y1="117.0" x2="78.0" y2="117.0"><stop offset="0%" stop-color="#aaaaaa"/><stop offset="100%" stop-color="#2f3fbf"/></linearGradient><linearGradient id="g60" gradientUnits="userSpaceOnUse" x1="162.0" y1="109.0" x2="162.0" y2="101.0"><stop offset="0%" stop-color="#aaaaaa"/><stop offset="100%" stop-color="#ffd966"/></linearGradient><linearGradient id="g61" gradientUnits="userSpaceOnUse" x1="186.0" y1="109.0" x2="186.0" y2="101.0"><stop offset="0%" stop-color="#aaaaaa"/><stop offset="100%" stop-color="#2f3fbf"/></linearGradient><linearGradient id="g62" gradientUnits="userSpaceOnUse" x1="198.0" y1="117.0" x2="206.0" y2="117.0"><stop offset="0%" stop-color="#aaaaaa"/><stop offset="100%" stop-color="#000000"/></linearGradient><linearGradient id="g63" gradientUnits="userSpaceOnUse" x1="186.0" y1="125.0" x2="186.0" y2="133.0"><stop offset="0%" stop-color="#aaaaaa"/><stop offset="100%" stop-color="#000000"/></linearGradient><linearGradient id="g64" gradientUnits="userSpaceOnUse" x1="162.0" y1="125.0" x2="162.0" y2="133.0"><stop offset="0%" stop-color="#aaaaaa"/><stop offset="100%" stop-color="#000000"/></linearGradient><linearGradient id="g65" gradientUnits="userSpaceOnUse" x1="150.0" y1="117.0" x2="142.0" y2="117.0"><stop offset="0%" stop-color="#aaaaaa"/><stop offset="100%" stop-color="#2f3fbf"/></linearGradient></defs><rect x="0" y="0" width="211.0" height="158.0" fill="#ffffff"/><rect x="14.0" y="5.0" width="192.0" height="128.0" fill="#ff3f2f"/><g><title>axe</title><rect x="22.0" y="5.0" width="20.0" height="2.0" fill="url(#g0)"/><rect x="42.0" y="5.0" width="4.0" height="8.0" fill="url(#g0)"/></g><g><title>axe</title><rect x="46.0" y="5.0" width="20.0" height="2.0" fill="url(#g1)"/><rect x="66.0" y="5.0" width="4.0" height="8.0" fill="url(#g1)"/></g><g><title>fin</title><polygon points="70.0,13.0 78.0,13.0 70.0,29.0" fill="url(#g2)"/></g><g><title>brick</title><rect x="46.0" y="29.0" width="24.0" height="8.0" fill="url(#g3)"/></g><g><title>axe</title><rect x="26.0" y="35.0" width="20.0" height="2.0" fill="url(#g4)"/><rect x="22.0" y="29.0" width="4.0" height="8.0" fill="url(#g4)"/></g><g><title>inf</title><rect x="14.0" y="17.0" width="8.0" height="8.0" fill="url(#g5)"/></g><g><title>fin</title><polygon points="150.0,5.0 150.0,13.0 174.0,13.0" fill="url(#g6)"/></g><g><title>inf</title><rect x="182.0" y="5.0" width="8.0" height="8.0" fill="url(#g7)"/></g><g><title>fin</title><polygon points="198.0,13.0 206.0,13.0 198.0,29.0" fill="url(#g8)"/></g><g><title>inf</title><rect x="182.0" y="29.0" width="8.0" height="8.0" fill="url(#g9)"/></g><g><title>axe</title><rect x="154.0" y="35.0" width="20.0" height="2.0" fill="url(#g10)"/><rect x="150.0" y="29.0" width="4.0" height="8.0" fill="url(#g10)"/></g><g><title>inf</title><rect x="142.0" y="17.0" width="8.0" height="8.0" fill="url(#g11)"/></g><g><title>fin</title><polygon points="22.0,37.0 22.0,45.0 46.0,45.0" fill="url(#g12)"/></g><g><title>brick</title><rect x="46.0" y="37.0" width="24.0" height="8.0" fill="url(#g13)"/></g><g><title>axe</title><rect x="70.0" y="45.0" width="2.0" height="12.0" fill="url(#g14)"/><rect x="70.0" y="57.0" width="8.0" height="4.0" fill="url(#g14)"/></g><g><title>brick</title><rect x="46.0" y="61.0" width="24.0" height="8.0" fill="url(#g15)"/></g><g><title>fin</title><polygon points="22.0,61.0 46.0,61.0 46.0,69.0" fill="url(#g16)"/></g><g><title>brick</title><rect x="14.0" y="45.0" width="8.0" height="16.0" fill="url(#g17)"/></g><g><title>fin</title><polygon points="86.0,37.0 86.0,45.0 110.0,45.0" fill="url(#g18)"/></g><g><title>brick</title><rect x="110.0" y="37.0" width="24.0" height="8.0" fill="url(#g19)"/></g><g><title>fin</title><polygon points="134.0,45.0 142.0,45.0 134.0,61.0" fill="url(#g20)"/></g><g><title>brick</title><rect x="110.0" y="61.0" width="24.0" height="8.0" fill="url(#g21)"/></g><g><title>inf</title><rect x="94.0" y="61.0" width="8.0" height="8.0" fill="url(#g22)"/></g><g><title>fin</title><polygon points="78.0,61.0 86.0,45.0 86.0,61.0" fill="url(#g23)"/></g><g><title>inf</title><rect x="158.0" y="37.0" width="8.0" height="8.0" fill="url(#g24)"/></g><g><title>fin</title><polygon points="174.0,37.0 174.0,45.0 198.0,45.0" fill="url(#g25)"/></g><g><title>brick</title><rect x="198.0" y="45.0" width="8.0" height="16.0" fill="url(#g26)"/></g><g><title>brick</title><rect x="174.0" y="61.0" width="24.0" height="8.0" fill="url(#g27)"/></g><g><title>brick</title><rect x="150.0" y="61.0" width="24.0" height="8.0" fill="url(#g28)"/></g><g><title>fin</title><polygon points="142.0,61.0 150.0,45.0 150.0,61.0" fill="url(#g29)"/></g><g><title>inf</title><rect x="30.0" y="69.0" width="8.0" height="8.0" fill="url(#g30)"/></g><g><title>axe</title><rect x="46.0" y="69.0" width="20.0" height="2.0" fill="url(#g31)"/><rect x="66.0" y="69.0" width="4.0" height="8.0" fill="url(#g31)"/></g><g><title>axe</title><rect x="70.0" y="77.0" width="2.0" height="12.0" fill="url(#g32)"/><rect x="70.0" y="89.0" width="8.0" height="4.0" fill="url(#g32)"/></g><g><title>brick</title><rect x="46.0" y="93.0" width="24.0" height="8.0" fill="url(#g33)"/></g><g><title>fin</title><polygon points="22.0,93.0 46.0,93.0 46.0,101.0" fill="url(#g34)"/></g><g><title>axe</title><rect x="20.0" y="81.0" width="2.0" height="12.0" fill="url(#g35)"/><rect x="14.0" y="77.0" width="8.0" height="4.0" fill="url(#g35)"/></g><g><title>inf</title><rect x="94.0" y="69.0" width="8.0" height="8.0" fill="url(#g36)"/></g><g><title>inf</title><rect x="118.0" y="69.0" width="8.0" height="8.0" fill="url(#g37)"/></g><g><title>inf</title><rect x="134.0" y="81.0" width="8.0" height="8.0" fill="url(#g38)"/></g><g><title>axe</title><rect x="114.0" y="99.0" width="20.0" height="2.0" fill="url(#g39)"/><rect x="110.0" y="93.0" width="4.0" height="8.0" fill="url(#g39)"/></g><g><title>inf</title><rect x="94.0" y="93.0" width="8.0" height="8.0" fill="url(#g40)"/></g><g><title>axe</title><rect x="84.0" y="81.0" width="2.0" height="12.0" fill="url(#g41)"/><rect x="78.0" y="77.0" width="8.0" height="4.0" fill="url(#g41)"/></g><g><title>brick</title><rect x="150.0" y="69.0" width="24.0" height="8.0" fill="url(#g42)"/></g><g><title>axe</title><rect x="174.0" y="69.0" width="20.0" height="2.0" fill="url(#g43)"/><rect x="194.0" y="69.0" width="4.0" height="8.0" fill="url(#g43)"/></g><g><title>fin</title><polygon points="198.0,77.0 206.0,77.0 198.0,93.0" fill="url(#g44)"/></g><g><title>inf</title><rect x="182.0" y="93.0" width="8.0" height="8.0" fill="url(#g45)"/></g><g><title>inf</title><rect x="158.0" y="93.0" width="8.0" height="8.0" fill="url(#g46)"/></g><g><title>brick</title><rect x="142.0" y="77.0" width="8.0" height="16.0" fill="url(#g47)"/></g><g><title>brick</title><rect x="22.0" y="101.0" width="24.0" height="8.0" fill="url(#g48)"/></g><g><title>inf</title><rect x="54.0" y="101.0" width="8.0" height="8.0" fill="url(#g49)"/></g><g><title>inf</title><rect x="70.0" y="113.0" width="8.0" height="8.0" fill="url(#g50)"/></g><g><title>fin</title><polygon points="46.0,125.0 70.0,125.0 70.0,133.0" fill="url(#g51)"/></g><g><title>fin</title><polygon points="22.0,125.0 46.0,125.0 46.0,133.0" fill="url(#g52)"/></g><g><title>axe</title><rect x="20.0" y="113.0" width="2.0" height="12.0" fill="url(#g53)"/><rect x="14.0" y="109.0" width="8.0" height="4.0" fill="url(#g53)"/></g><g><title>fin</title><polygon points="86.0,101.0 86.0,109.0 110.0,109.0" fill="url(#g54)"/></g><g><title>inf</title><rect x="118.0" y="101.0" width="8.0" height="8.0" fill="url(#g55)"/></g><g><title>brick</title><rect x="134.0" y="109.0" width="8.0" height="16.0" fill="url(#g56)"/></g><g><title>fin</title><polygon points="110.0,125.0 134.0,125.0 134.0,133.0" fill="url(#g57)"/></g><g><title>fin</title><polygon points="86.0,125.0 110.0,125.0 110.0,133.0" fill="url(#g58)"/></g><g><title>brick</title><rect x="78.0" y="109.0" width="8.0" height="16.0" fill="url(#g59)"/></g><g><title>inf</title><rect x="158.0" y="101.0" width="8.0" height="8.0" fill="url(#g60)"/></g><g><title>inf</title><rect x="182.0" y="101.0" width="8.0" height="8.0" fill="url(#g61)"/></g><g><title>fin</title><polygon points="198.0,109.0 206.0,109.0 198.0,125.0" fill="url(#g62)"/></g><g><title>inf</title><rect x="182.0" y="125.0" width="8.0" height="8.0" fill="url(#g63)"/></g><g><title>fin</title><polygon points="150.0,125.0 174.0,125.0 174.0,133.0" fill="url(#g64)"/></g><g><title>axe</title><rect x="148.0" y="113.0" width="2.0" height="12.0" fill="url(#g65)"/><rect x="142.0" y="109.0" width="8.0" height="4.0" fill="url(#g65)"/></g><g clip-path="url(#bounding-clip)"><ellipse cx="206.0" cy="37.0" rx="131.80003793626162" ry="148.08121909309395" transform="rotate(159.52941176470588 206.0 37.0)" fill="#000000" fill-opacity="0.2380392156862745"/></g><rect x="22.0" y="13.0" width="48.0" height="16.0" fill="#aaaaaa"/><text x="46.0" y="21.0" fill="#ffffff" style="font-family: monospace; font-size: 16.0px;" text-anchor="middle" dominant-baseline="central">AAAAAA</text><rect x="150.0" y="13.0" width="48.0" height="16.0" fill="#aaaaaa"/><text x="174.0" y="21.0" fill="#ffffff" style="font-family: monospace; font-size: 16.0px;" text-anchor="middle" dominant-baseline="central">AAAAAA</text><rect x="22.0" y="45.0" width="48.0" height="16.0" fill="#aaaaaa"/><text x="46.0" y="53.0" fill="#ffffff" style="font-family: monospace; font-size: 16.0px;" text-anchor="middle" dominant-baseline="central">AAAAAA</text><rect x="86.0" y="45.0" width="48.0" height="16.0" fill="#aaaaaa"/><text x="110.0" y="53.0" fill="#ffffff" style="font-family: monospace; font-size: 16.0px;" text-anchor="middle" dominant-baseline="central">AAAAAA</text><rect x="150.0" y="45.0" width="48.0" height="16.0" fill="#aaaaaa"/><text x="174.0" y="53.0" fill="#ffffff" style="font-family: monospace; font-size: 16.0px;" text-anchor="middle" dominant-baseline="central">AAAAAA</text><rect x="22.0" y="77.0" width="48.0" height="16.0" fill="#aaaaaa"/><text x="46.0" y="85.0" fill="#ffffff" style="font-family: monospace; font-size: 16.0px;" text-anchor="middle" dominant-baseline="central">AAAAAA</text><rect x="86.0" y="77.0" width="48.0" height="16.0" fill="#aaaaaa"/><text x="110.0" y="85.0" fill="#ffffff" style="font-family: monospace; font-size: 16.0px;" text-anchor="middle" dominant-baseline="central">AAAAAA</text><rect x="150.0" y="77.0" width="48.0" height="16.0" fill="#aaaaaa"/><text x="174.0" y="85.0" fill="#ffffff" style="font-family: monospace; font-size: 16.0px;" text-anchor="middle" dominant-baseline="central">AAAAAA</text><rect x="22.0" y="109.0" width="48.0" height="16.0" fill="#aaaaaa"/><text x="46.0" y="117.0" fill="#ffffff" style="font-family: monospace; font-size: 16.0px;" text-anchor="middle" dominant-baseline="central">AAAAAA</text><rect x="86.0" y="109.0" width="48.0" height="16.0" fill="#aaaaaa"/><text x="110.0" y="117.0" fill="#ffffff" style="font-family: monospace; font-size: 16.0px;" text-anchor="middle" dominant-baseline="central">AAAAAA</text><rect x="150.0" y="109.0" width="48.0" height="16.0" fill="#aaaaaa"/><text x="174.0" y="117.0" fill="#ffffff" style="font-family: monospace; font-size: 16.0px;" text-anchor="middle" dominant-baseline="central">AAAA</text><circle cx="16.0" cy="71.0" r="2.0" fill="#ffffff"/><circle cx="76.0" cy="103.0" r="2.0" fill="#ffd966"/><circle cx="204.0" cy="131.0" r="2.0" fill="#2f3fbf"/><circle cx="16.0" cy="67.0" r="2.0" fill="#000000"/><rect x="1" y="1" width="8.0" height="75.13791241721937" fill="#2f3fbf"/><rect x="1" y="76.13791241721937" width="8.0" height="61.81614649634205" fill="#000000"/><rect x="1" y="137.95405891356143" width="8.0" height="11.034568500512657" fill="#ffffff"/><rect x="1" y="148.98862741407407" width="8.0" height="8.011372585925926" fill="#ffd966"/><text x="206.0" y="145.0" fill="#000000" style="font-family: monospace; font-size: 16.0px;" text-anchor="end" dominant-baseline="central">F19 I19 B15 A13</text><line x1="0" y1="0" x2="210.0" y2="0" stroke="#000000" stroke-width="1"/><line x1="210.0" y1="0" x2="210.0" y2="157.0" stroke="#000000" stroke-width="1"/><line x1="0" y1="157.0" x2="210.0" y2="157.0" stroke="#000000" stroke-width="1"/><line x1="0" y1="0" x2="0" y2="157.0" stroke="#000000" stroke-width="1"/><line x1="9.0" y1="0" x2="9.0" y2="157.0" stroke="#000000" stroke-width="1"/></svg>