<svg width="155" height="154" viewBox="0 0 155 154" xmlns="http://www.w3.org/2000/svg" font-family="&quot;JetBrains Mono&quot;, &quot;Menlo&quot;, &quot;Consolas&quot;, &quot;DejaVu Sans Mono&quot;, &quot;Liberation Mono&quot;, &quot;Roboto Mono&quot;, &quot;Noto Sans Mono&quot;, monospace" data-entviz-version="v15" data-entviz-lib="0.15.0" data-input-bytes="36" data-cols="2" data-rows="3" data-encoding="hex" data-scheme="uuid" data-role="identifier" data-size-basis="decoded" data-entropy-type="uuid" data-size-bits="128" data-qualifiers="{}" data-parts="[{&quot;text&quot;:&quot;550e8400e29b41d4a716446655440001&quot;,&quot;bind&quot;:&quot;core&quot;}]"><defs><clipPath id="grid-clip-b5ad00c6f67e1fb1-2x3"><rect x="28" y="27" width="120" height="120"/></clipPath></defs><rect x="1" y="1" width="153" height="152" fill="#ffffff"/><g data-channel="grid"><rect x="28" y="27" width="120" height="120" fill="#2f3fbf"/><g><path fill="#ffffff" d="M76 27h6v10h-6zM82 37h6v10h-6zM82 47h6v10h-6zM76 57h6v10h-6zM64 57h6v10h-6zM58 57h6v10h-6zM46 57h6v10h-6zM34 57h6v10h-6zM28 57h6v10h-6zM28 37h6v10h-6z"/><path fill="#ff3f2f" d="M94 27h6v10h-6zM100 27h6v10h-6zM106 27h6v10h-6zM112 27h6v10h-6zM118 27h6v10h-6zM124 27h6v10h-6zM142 27h6v10h-6zM142 37h6v10h-6zM142 57h6v10h-6zM136 57h6v10h-6zM130 57h6v10h-6zM124 57h6v10h-6zM112 57h6v10h-6zM106 57h6v10h-6zM88 47h6v10h-6zM88 37h6v10h-6z"/><path fill="#e7be00" d="M40 67h6v10h-6zM46 67h6v10h-6zM58 67h6v10h-6zM76 67h6v10h-6zM82 97h6v10h-6zM76 97h6v10h-6zM64 97h6v10h-6zM58 97h6v10h-6zM52 97h6v10h-6zM46 97h6v10h-6zM40 97h6v10h-6zM34 97h6v10h-6z"/><path fill="#000000" d="M88 67h6v10h-6zM100 67h6v10h-6zM106 67h6v10h-6zM118 67h6v10h-6zM142 67h6v10h-6zM124 97h6v10h-6zM118 97h6v10h-6zM112 97h6v10h-6zM106 97h6v10h-6zM100 97h6v10h-6zM94 97h6v10h-6zM88 97h6v10h-6zM88 87h6v10h-6zM88 77h6v10h-6z"/><path fill="#000000" d="M28 107h6v10h-6zM34 107h6v10h-6zM46 107h6v10h-6zM58 107h6v10h-6zM76 107h6v10h-6zM82 107h6v10h-6zM82 127h6v10h-6zM70 137h6v10h-6zM64 137h6v10h-6zM58 137h6v10h-6zM46 137h6v10h-6zM40 137h6v10h-6zM34 137h6v10h-6zM28 137h6v10h-6zM28 117h6v10h-6z"/><path fill="#000000" d="M88 107h6v10h-6zM94 107h6v10h-6zM142 117h6v10h-6zM142 127h6v10h-6zM142 137h6v10h-6zM136 137h6v10h-6zM112 137h6v10h-6zM106 137h6v10h-6zM100 137h6v10h-6zM94 137h6v10h-6zM88 137h6v10h-6zM88 127h6v10h-6zM88 117h6v10h-6z"/></g><g clip-path="url(#grid-clip-b5ad00c6f67e1fb1-2x3)" data-channel="ellipse" data-ellipse-anchor-x="148" data-ellipse-anchor-y="107" data-ellipse-rx="49.035" data-ellipse-ry="69.803" data-ellipse-rotation-deg="120"><ellipse cx="148" cy="107" rx="49.035" ry="69.803" transform="rotate(120 148 107)" fill="#ffffff" stroke="#ffffff" fill-opacity="0.35" stroke-opacity="0.45" stroke-width="2"/></g><g><g data-channel="cell" data-cell-index="0" data-cell-row="0" data-cell-col="0" data-surround-bits="0xb5ad00" data-edge-color="#ffffff"><rect x="34" y="37" width="48" height="20" fill="#840e55"/><text x="58" y="47" fill="#ffffff" font-size="12" text-anchor="middle" dominant-baseline="central">550e84</text></g><g data-channel="cell" data-cell-index="1" data-cell-row="0" data-cell-col="1" data-surround-bits="0xc6f67e" data-edge-color="#ff3f2f" data-cell-quartile="1"><rect x="94" y="37" width="48" height="20" fill="#9be200"/><text x="118" y="47" fill="#000000" font-size="12" text-anchor="middle" dominant-baseline="central">00e29b</text><polygon points="94,37 104,37 94,47" fill="#000000"/></g><g data-channel="cell" data-cell-index="2" data-cell-row="1" data-cell-col="0" data-surround-bits="0x1fb12c" data-edge-color="#e7be00" data-cell-quartile="3"><rect x="34" y="77" width="48" height="20" fill="#a7d441"/><text x="58" y="87" fill="#000000" font-size="12" text-anchor="middle" dominant-baseline="central">41d4a7</text><polygon points="82,97 82,87 72,97" fill="#000000"/></g><g data-channel="cell" data-cell-index="3" data-cell-row="1" data-cell-col="1" data-surround-bits="0xff822d" data-edge-color="#000000"><rect x="94" y="77" width="48" height="20" fill="#664416"/><text x="118" y="87" fill="#ffffff" font-size="12" text-anchor="middle" dominant-baseline="central">164466</text></g><g data-channel="cell" data-cell-index="4" data-cell-row="2" data-cell-col="0" data-surround-bits="0xbdcb2b" data-edge-color="#000000"><rect x="34" y="117" width="48" height="20" fill="#004455"/><text x="58" y="127" fill="#ffffff" font-size="12" text-anchor="middle" dominant-baseline="central">554400</text></g><g data-channel="cell" data-cell-index="5" data-cell-row="2" data-cell-col="1" data-surround-bits="0xfe3c03" data-edge-color="#000000" data-cell-quartile="2"><rect x="94" y="117" width="48" height="20" fill="#010101"/><text x="118" y="127" fill="#ffffff" font-size="12" text-anchor="middle" dominant-baseline="central">01</text><polygon points="142,117 132,117 142,127" fill="#ffffff"/></g></g></g><g data-channel="color-bar" data-bar-slots="12" data-bar-marker-left="0" data-bar-marker-right="1"><g data-color-bar-rank="0" data-color-bar-band="G"><rect x="2" y="2" width="20" height="28.522" fill="#e7be00"/><text x="12" y="27.882" fill="#000000" font-size="12" text-anchor="middle" data-color-bar-letter="true">g</text></g><g data-color-bar-rank="1" data-color-bar-band="K"><rect x="2" y="30.522" width="20" height="49.886" fill="#000000"/><text x="12" y="77.768" fill="#ffffff" font-size="12" text-anchor="middle" data-color-bar-letter="true">k</text></g><g data-color-bar-rank="2" data-color-bar-band="R"><rect x="2" y="80.408" width="20" height="34.669" fill="#ff3f2f"/><text x="12" y="112.437" fill="#000000" font-size="12" text-anchor="middle" data-color-bar-letter="true">r</text></g><g data-color-bar-rank="3" data-color-bar-band="W"><rect x="2" y="115.077" width="20" height="36.923" fill="#ffffff"/><text x="12" y="149.36" fill="#000000" font-size="12" text-anchor="middle" data-color-bar-letter="true">w</text></g><circle cx="6.6" cy="8.25" r="3.4" fill="#ffffff" stroke="#000000" stroke-width="0.75" data-bar-marker="left"/><circle cx="17.4" cy="20.75" r="3.4" fill="#ffffff" stroke="#000000" stroke-width="0.75" data-bar-marker="right"/></g><g data-channel="label-top"><text x="28" y="17" fill="#666666" font-size="12" dominant-baseline="central">UUID</text></g><line x1="1" y1="1.5" x2="154" y2="1.5" stroke="#808080" stroke-width="1" shape-rendering="crispEdges"/><line x1="153.5" y1="1" x2="153.5" y2="153" stroke="#808080" stroke-width="1" shape-rendering="crispEdges"/><line x1="1" y1="152.5" x2="154" y2="152.5" stroke="#808080" stroke-width="1" shape-rendering="crispEdges"/><line x1="1.5" y1="1" x2="1.5" y2="153" stroke="#808080" stroke-width="1" shape-rendering="crispEdges"/><line x1="22.5" y1="1" x2="22.5" y2="153" stroke="#808080" stroke-width="1" shape-rendering="crispEdges"/></svg>