<svg width="153" height="152" viewBox="0 0 153 152" xmlns="http://www.w3.org/2000/svg" font-family="&quot;JetBrains Mono&quot;, &quot;Menlo&quot;, &quot;Consolas&quot;, &quot;DejaVu Sans Mono&quot;, &quot;Liberation Mono&quot;, &quot;Roboto Mono&quot;, &quot;Noto Sans Mono&quot;, monospace" data-entviz-version="v10" data-entviz-lib="0.10.0" data-input-bytes="36" data-cols="2" data-rows="3"><defs><clipPath id="grid-clip-b5ad00c6f67e1fb1-2x3"><rect x="27" y="26" width="120" height="120"/></clipPath></defs><rect x="0" y="0" width="153" height="152" fill="#ffffff"/><g data-channel="grid"><rect x="27" y="26" width="120" height="120" fill="#2f3fbf"/><g><path fill="#ffffff" d="M75 26h6v10h-6zM81 36h6v10h-6zM81 46h6v10h-6zM75 56h6v10h-6zM63 56h6v10h-6zM57 56h6v10h-6zM45 56h6v10h-6zM33 56h6v10h-6zM27 56h6v10h-6zM27 36h6v10h-6z"/><path fill="#ff3f2f" d="M93 26h6v10h-6zM99 26h6v10h-6zM105 26h6v10h-6zM111 26h6v10h-6zM117 26h6v10h-6zM123 26h6v10h-6zM141 26h6v10h-6zM141 36h6v10h-6zM141 56h6v10h-6zM135 56h6v10h-6zM129 56h6v10h-6zM123 56h6v10h-6zM111 56h6v10h-6zM105 56h6v10h-6zM87 46h6v10h-6zM87 36h6v10h-6z"/><path fill="#e7be00" d="M39 66h6v10h-6zM45 66h6v10h-6zM57 66h6v10h-6zM75 66h6v10h-6zM81 96h6v10h-6zM75 96h6v10h-6zM63 96h6v10h-6zM57 96h6v10h-6zM51 96h6v10h-6zM45 96h6v10h-6zM39 96h6v10h-6zM33 96h6v10h-6z"/><path fill="#000000" d="M87 66h6v10h-6zM99 66h6v10h-6zM105 66h6v10h-6zM117 66h6v10h-6zM141 66h6v10h-6zM123 96h6v10h-6zM117 96h6v10h-6zM111 96h6v10h-6zM105 96h6v10h-6zM99 96h6v10h-6zM93 96h6v10h-6zM87 96h6v10h-6zM87 86h6v10h-6zM87 76h6v10h-6z"/><path fill="#000000" d="M27 106h6v10h-6zM33 106h6v10h-6zM45 106h6v10h-6zM57 106h6v10h-6zM75 106h6v10h-6zM81 106h6v10h-6zM81 126h6v10h-6zM69 136h6v10h-6zM63 136h6v10h-6zM57 136h6v10h-6zM45 136h6v10h-6zM39 136h6v10h-6zM33 136h6v10h-6zM27 136h6v10h-6zM27 116h6v10h-6z"/><path fill="#000000" d="M87 106h6v10h-6zM93 106h6v10h-6zM141 116h6v10h-6zM141 126h6v10h-6zM141 136h6v10h-6zM135 136h6v10h-6zM111 136h6v10h-6zM105 136h6v10h-6zM99 136h6v10h-6zM93 136h6v10h-6zM87 136h6v10h-6zM87 126h6v10h-6zM87 116h6v10h-6z"/></g><g clip-path="url(#grid-clip-b5ad00c6f67e1fb1-2x3)" data-channel="ellipse" data-ellipse-anchor-x="147" data-ellipse-anchor-y="106" data-ellipse-rx="49.035" data-ellipse-ry="69.803" data-ellipse-rotation-deg="120"><ellipse cx="147" cy="106" rx="49.035" ry="69.803" transform="rotate(120 147 106)" fill="#ffffff" stroke="#ffffff" fill-opacity="0.35" stroke-opacity="0.45" stroke-width="2"/></g><g><g data-channel="cell" data-cell-index="0" data-cell-row="0" data-cell-col="0" data-surround-bits="0xb5ad00" data-edge-color="#ffffff"><rect x="33" y="36" width="48" height="20" fill="#840e55"/><text x="57" y="46" fill="#ffffff" font-size="12" text-anchor="middle" dominant-baseline="central">550e84</text></g><g data-channel="cell" data-cell-index="1" data-cell-row="0" data-cell-col="1" data-surround-bits="0xc6f67e" data-edge-color="#ff3f2f" data-cell-quartile="1"><rect x="93" y="36" width="48" height="20" fill="#9be200"/><text x="117" y="46" fill="#000000" font-size="12" text-anchor="middle" dominant-baseline="central">00e29b</text><polygon points="93,36 103,36 93,46" fill="#000000"/></g><g data-channel="cell" data-cell-index="2" data-cell-row="1" data-cell-col="0" data-surround-bits="0x1fb12c" data-edge-color="#e7be00" data-cell-quartile="3"><rect x="33" y="76" width="48" height="20" fill="#a7d441"/><text x="57" y="86" fill="#000000" font-size="12" text-anchor="middle" dominant-baseline="central">41d4a7</text><polygon points="81,96 81,86 71,96" fill="#000000"/></g><g data-channel="cell" data-cell-index="3" data-cell-row="1" data-cell-col="1" data-surround-bits="0xff822d" data-edge-color="#000000"><rect x="93" y="76" width="48" height="20" fill="#664416"/><text x="117" y="86" fill="#ffffff" font-size="12" text-anchor="middle" dominant-baseline="central">164466</text></g><g data-channel="cell" data-cell-index="4" data-cell-row="2" data-cell-col="0" data-surround-bits="0xbdcb2b" data-edge-color="#000000"><rect x="33" y="116" width="48" height="20" fill="#004455"/><text x="57" y="126" fill="#ffffff" font-size="12" text-anchor="middle" dominant-baseline="central">554400</text></g><g data-channel="cell" data-cell-index="5" data-cell-row="2" data-cell-col="1" data-surround-bits="0xfe3c03" data-edge-color="#000000" data-cell-quartile="2"><rect x="93" y="116" width="48" height="20" fill="#010101"/><text x="117" y="126" fill="#ffffff" font-size="12" text-anchor="middle" dominant-baseline="central">01</text><polygon points="141,116 131,116 141,126" fill="#ffffff"/></g></g></g><g data-channel="color-bar" data-bar-slots="12" data-bar-marker-left="0" data-bar-marker-right="1"><g data-color-bar-rank="0" data-color-bar-band="G"><rect x="1" y="1" width="20" height="28.522" fill="#e7be00"/><text x="11" y="26.882" fill="#000000" font-size="12" text-anchor="middle" data-color-bar-letter="true">g</text></g><g data-color-bar-rank="1" data-color-bar-band="K"><rect x="1" y="29.522" width="20" height="49.886" fill="#000000"/><text x="11" y="76.768" fill="#ffffff" font-size="12" text-anchor="middle" data-color-bar-letter="true">k</text></g><g data-color-bar-rank="2" data-color-bar-band="R"><rect x="1" y="79.408" width="20" height="34.669" fill="#ff3f2f"/><text x="11" y="111.437" fill="#000000" font-size="12" text-anchor="middle" data-color-bar-letter="true">r</text></g><g data-color-bar-rank="3" data-color-bar-band="W"><rect x="1" y="114.077" width="20" height="36.923" fill="#ffffff"/><text x="11" y="148.36" fill="#000000" font-size="12" text-anchor="middle" data-color-bar-letter="true">w</text></g><circle cx="5.6" cy="7.25" r="3.4" fill="#ffffff" stroke="#000000" stroke-width="0.75" data-bar-marker="left"/><circle cx="16.4" cy="19.75" r="3.4" fill="#ffffff" stroke="#000000" stroke-width="0.75" data-bar-marker="right"/></g><g data-channel="label-top"><text x="27" y="16" fill="#666666" font-size="12" dominant-baseline="central">UUID:</text></g><line x1="0" y1="0.5" x2="153" y2="0.5" stroke="#808080" stroke-width="1" shape-rendering="crispEdges"/><line x1="152.5" y1="0" x2="152.5" y2="152" stroke="#808080" stroke-width="1" shape-rendering="crispEdges"/><line x1="0" y1="151.5" x2="153" y2="151.5" stroke="#808080" stroke-width="1" shape-rendering="crispEdges"/><line x1="0.5" y1="0" x2="0.5" y2="152" stroke="#808080" stroke-width="1" shape-rendering="crispEdges"/><line x1="21.5" y1="0" x2="21.5" y2="152" stroke="#808080" stroke-width="1" shape-rendering="crispEdges"/></svg>