<svg width="205.0" height="158.0" xmlns="http://www.w3.org/2000/svg"><defs><clipPath id="bounding-clip"><rect x="0" y="0" width="205.0" height="158.0"/></clipPath><linearGradient id="g0" gradientUnits="userSpaceOnUse" x1="28.0" y1="13.0" x2="28.0" y2="5.0"><stop offset="0%" stop-color="#0f0063"/><stop offset="100%" stop-color="#ffffff"/></linearGradient><linearGradient id="g1" gradientUnits="userSpaceOnUse" x1="52.0" y1="13.0" x2="52.0" y2="5.0"><stop offset="0%" stop-color="#0f0063"/><stop offset="100%" stop-color="#000000"/></linearGradient><linearGradient id="g2" gradientUnits="userSpaceOnUse" x1="64.0" y1="21.0" x2="72.0" y2="21.0"><stop offset="0%" stop-color="#0f0063"/><stop offset="100%" stop-color="#ff3f2f"/></linearGradient><linearGradient id="g3" gradientUnits="userSpaceOnUse" x1="52.0" y1="29.0" x2="52.0" y2="37.0"><stop offset="0%" stop-color="#0f0063"/><stop offset="100%" stop-color="#ffffff"/></linearGradient><linearGradient id="g4" gradientUnits="userSpaceOnUse" x1="28.0" y1="29.0" x2="28.0" y2="37.0"><stop offset="0%" stop-color="#0f0063"/><stop offset="100%" stop-color="#000000"/></linearGradient><linearGradient id="g5" gradientUnits="userSpaceOnUse" x1="16.0" y1="21.0" x2="8.0" y2="21.0"><stop offset="0%" stop-color="#0f0063"/><stop offset="100%" stop-color="#000000"/></linearGradient><linearGradient id="g6" gradientUnits="userSpaceOnUse" x1="92.0" y1="13.0" x2="92.0" y2="5.0"><stop offset="0%" stop-color="#f93b27"/><stop offset="100%" stop-color="#ffffff"/></linearGradient><linearGradient id="g7" gradientUnits="userSpaceOnUse" x1="116.0" y1="13.0" x2="116.0" y2="5.0"><stop offset="0%" stop-color="#f93b27"/><stop offset="100%" stop-color="#2f3fbf"/></linearGradient><linearGradient id="g8" gradientUnits="userSpaceOnUse" x1="128.0" y1="21.0" x2="136.0" y2="21.0"><stop offset="0%" stop-color="#f93b27"/><stop offset="100%" stop-color="#000000"/></linearGradient><linearGradient id="g9" gradientUnits="userSpaceOnUse" x1="116.0" y1="29.0" x2="116.0" y2="37.0"><stop offset="0%" stop-color="#f93b27"/><stop offset="100%" stop-color="#2f3fbf"/></linearGradient><linearGradient id="g10" gradientUnits="userSpaceOnUse" x1="92.0" y1="29.0" x2="92.0" y2="37.0"><stop offset="0%" stop-color="#f93b27"/><stop offset="100%" stop-color="#000000"/></linearGradient><linearGradient id="g11" gradientUnits="userSpaceOnUse" x1="80.0" y1="21.0" x2="72.0" y2="21.0"><stop offset="0%" stop-color="#f93b27"/><stop offset="100%" stop-color="#ff3f2f"/></linearGradient><linearGradient id="g12" gradientUnits="userSpaceOnUse" x1="156.0" y1="13.0" x2="156.0" y2="5.0"><stop offset="0%" stop-color="#279b09"/><stop offset="100%" stop-color="#ff3f2f"/></linearGradient><linearGradient id="g13" gradientUnits="userSpaceOnUse" x1="180.0" y1="13.0" x2="180.0" y2="5.0"><stop offset="0%" stop-color="#279b09"/><stop offset="100%" stop-color="#ff3f2f"/></linearGradient><linearGradient id="g14" gradientUnits="userSpaceOnUse" x1="192.0" y1="21.0" x2="200.0" y2="21.0"><stop offset="0%" stop-color="#279b09"/><stop offset="100%" stop-color="#ffffff"/></linearGradient><linearGradient id="g15" gradientUnits="userSpaceOnUse" x1="180.0" y1="29.0" x2="180.0" y2="37.0"><stop offset="0%" stop-color="#279b09"/><stop offset="100%" stop-color="#ffffff"/></linearGradient><linearGradient id="g16" gradientUnits="userSpaceOnUse" x1="156.0" y1="29.0" x2="156.0" y2="37.0"><stop offset="0%" stop-color="#279b09"/><stop offset="100%" stop-color="#2f3fbf"/></linearGradient><linearGradient id="g17" gradientUnits="userSpaceOnUse" x1="144.0" y1="21.0" x2="136.0" y2="21.0"><stop offset="0%" stop-color="#279b09"/><stop offset="100%" stop-color="#000000"/></linearGradient><linearGradient id="g18" gradientUnits="userSpaceOnUse" x1="28.0" y1="45.0" x2="28.0" y2="37.0"><stop offset="0%" stop-color="#b9ad03"/><stop offset="100%" stop-color="#000000"/></linearGradient><linearGradient id="g19" gradientUnits="userSpaceOnUse" x1="52.0" y1="45.0" x2="52.0" y2="37.0"><stop offset="0%" stop-color="#b9ad03"/><stop offset="100%" stop-color="#ff3f2f"/></linearGradient><linearGradient id="g20" gradientUnits="userSpaceOnUse" x1="64.0" y1="53.0" x2="72.0" y2="53.0"><stop offset="0%" stop-color="#b9ad03"/><stop offset="100%" stop-color="#2f3fbf"/></linearGradient><linearGradient id="g21" gradientUnits="userSpaceOnUse" x1="52.0" y1="61.0" x2="52.0" y2="69.0"><stop offset="0%" stop-color="#b9ad03"/><stop offset="100%" stop-color="#000000"/></linearGradient><linearGradient id="g22" gradientUnits="userSpaceOnUse" x1="28.0" y1="61.0" x2="28.0" y2="69.0"><stop offset="0%" stop-color="#b9ad03"/><stop offset="100%" stop-color="#ffffff"/></linearGradient><linearGradient id="g23" gradientUnits="userSpaceOnUse" x1="16.0" y1="53.0" x2="8.0" y2="53.0"><stop offset="0%" stop-color="#b9ad03"/><stop offset="100%" stop-color="#ffffff"/></linearGradient><linearGradient id="g24" gradientUnits="userSpaceOnUse" x1="92.0" y1="45.0" x2="92.0" y2="37.0"><stop offset="0%" stop-color="#df75b3"/><stop offset="100%" stop-color="#ffffff"/></linearGradient><linearGradient id="g25" gradientUnits="userSpaceOnUse" x1="116.0" y1="45.0" x2="116.0" y2="37.0"><stop offset="0%" stop-color="#df75b3"/><stop offset="100%" stop-color="#000000"/></linearGradient><linearGradient id="g26" gradientUnits="userSpaceOnUse" x1="128.0" y1="53.0" x2="136.0" y2="53.0"><stop offset="0%" stop-color="#df75b3"/><stop offset="100%" stop-color="#ff3f2f"/></linearGradient><linearGradient id="g27" gradientUnits="userSpaceOnUse" x1="116.0" y1="61.0" x2="116.0" y2="69.0"><stop offset="0%" stop-color="#df75b3"/><stop offset="100%" stop-color="#000000"/></linearGradient><linearGradient id="g28" gradientUnits="userSpaceOnUse" x1="92.0" y1="61.0" x2="92.0" y2="69.0"><stop offset="0%" stop-color="#df75b3"/><stop offset="100%" stop-color="#ffffff"/></linearGradient><linearGradient id="g29" gradientUnits="userSpaceOnUse" x1="80.0" y1="53.0" x2="72.0" y2="53.0"><stop offset="0%" stop-color="#df75b3"/><stop offset="100%" stop-color="#2f3fbf"/></linearGradient><linearGradient id="g30" gradientUnits="userSpaceOnUse" x1="156.0" y1="45.0" x2="156.0" y2="37.0"><stop offset="0%" stop-color="#a677da"/><stop offset="100%" stop-color="#000000"/></linearGradient><linearGradient id="g31" gradientUnits="userSpaceOnUse" x1="180.0" y1="45.0" x2="180.0" y2="37.0"><stop offset="0%" stop-color="#a677da"/><stop offset="100%" stop-color="#000000"/></linearGradient><linearGradient id="g32" gradientUnits="userSpaceOnUse" x1="192.0" y1="53.0" x2="200.0" y2="53.0"><stop offset="0%" stop-color="#a677da"/><stop offset="100%" stop-color="#000000"/></linearGradient><linearGradient id="g33" gradientUnits="userSpaceOnUse" x1="180.0" y1="61.0" x2="180.0" y2="69.0"><stop offset="0%" stop-color="#a677da"/><stop offset="100%" stop-color="#ffffff"/></linearGradient><linearGradient id="g34" gradientUnits="userSpaceOnUse" x1="156.0" y1="61.0" x2="156.0" y2="69.0"><stop offset="0%" stop-color="#a677da"/><stop offset="100%" stop-color="#2f3fbf"/></linearGradient><linearGradient id="g35" gradientUnits="userSpaceOnUse" x1="144.0" y1="53.0" x2="136.0" y2="53.0"><stop offset="0%" stop-color="#a677da"/><stop offset="100%" stop-color="#000000"/></linearGradient><linearGradient id="g36" gradientUnits="userSpaceOnUse" x1="92.0" y1="77.0" x2="92.0" y2="69.0"><stop offset="0%" stop-color="#0f88b5"/><stop offset="100%" stop-color="#ff3f2f"/></linearGradient><linearGradient id="g37" gradientUnits="userSpaceOnUse" x1="116.0" y1="77.0" x2="116.0" y2="69.0"><stop offset="0%" stop-color="#0f88b5"/><stop offset="100%" stop-color="#000000"/></linearGradient><linearGradient id="g38" gradientUnits="userSpaceOnUse" x1="128.0" y1="85.0" x2="136.0" y2="85.0"><stop offset="0%" stop-color="#0f88b5"/><stop offset="100%" stop-color="#000000"/></linearGradient><linearGradient id="g39" gradientUnits="userSpaceOnUse" x1="116.0" y1="93.0" x2="116.0" y2="101.0"><stop offset="0%" stop-color="#0f88b5"/><stop offset="100%" stop-color="#ff3f2f"/></linearGradient><linearGradient id="g40" gradientUnits="userSpaceOnUse" x1="92.0" y1="93.0" x2="92.0" y2="101.0"><stop offset="0%" stop-color="#0f88b5"/><stop offset="100%" stop-color="#2f3fbf"/></linearGradient><linearGradient id="g41" gradientUnits="userSpaceOnUse" x1="80.0" y1="85.0" x2="72.0" y2="85.0"><stop offset="0%" stop-color="#0f88b5"/><stop offset="100%" stop-color="#000000"/></linearGradient><linearGradient id="g42" gradientUnits="userSpaceOnUse" x1="156.0" y1="77.0" x2="156.0" y2="69.0"><stop offset="0%" stop-color="#5677a4"/><stop offset="100%" stop-color="#ffffff"/></linearGradient><linearGradient id="g43" gradientUnits="userSpaceOnUse" x1="180.0" y1="77.0" x2="180.0" y2="69.0"><stop offset="0%" stop-color="#5677a4"/><stop offset="100%" stop-color="#ff3f2f"/></linearGradient><linearGradient id="g44" gradientUnits="userSpaceOnUse" x1="192.0" y1="85.0" x2="200.0" y2="85.0"><stop offset="0%" stop-color="#5677a4"/><stop offset="100%" stop-color="#ffffff"/></linearGradient><linearGradient id="g45" gradientUnits="userSpaceOnUse" x1="180.0" y1="93.0" x2="180.0" y2="101.0"><stop offset="0%" stop-color="#5677a4"/><stop offset="100%" stop-color="#000000"/></linearGradient><linearGradient id="g46" gradientUnits="userSpaceOnUse" x1="156.0" y1="93.0" x2="156.0" y2="101.0"><stop offset="0%" stop-color="#5677a4"/><stop offset="100%" stop-color="#2f3fbf"/></linearGradient><linearGradient id="g47" gradientUnits="userSpaceOnUse" x1="144.0" y1="85.0" x2="136.0" y2="85.0"><stop offset="0%" stop-color="#5677a4"/><stop offset="100%" stop-color="#ff3f2f"/></linearGradient><linearGradient id="g48" gradientUnits="userSpaceOnUse" x1="28.0" y1="109.0" x2="28.0" y2="101.0"><stop offset="0%" stop-color="#fd3e13"/><stop offset="100%" stop-color="#ffffff"/></linearGradient><linearGradient id="g49" gradientUnits="userSpaceOnUse" x1="52.0" y1="109.0" x2="52.0" y2="101.0"><stop offset="0%" stop-color="#fd3e13"/><stop offset="100%" stop-color="#000000"/></linearGradient><linearGradient id="g50" gradientUnits="userSpaceOnUse" x1="64.0" y1="117.0" x2="72.0" y2="117.0"><stop offset="0%" stop-color="#fd3e13"/><stop offset="100%" stop-color="#ffffff"/></linearGradient><linearGradient id="g51" gradientUnits="userSpaceOnUse" x1="52.0" y1="125.0" x2="52.0" y2="133.0"><stop offset="0%" stop-color="#fd3e13"/><stop offset="100%" stop-color="#ffffff"/></linearGradient><linearGradient id="g52" gradientUnits="userSpaceOnUse" x1="28.0" y1="125.0" x2="28.0" y2="133.0"><stop offset="0%" stop-color="#fd3e13"/><stop offset="100%" stop-color="#ffffff"/></linearGradient><linearGradient id="g53" gradientUnits="userSpaceOnUse" x1="16.0" y1="117.0" x2="8.0" y2="117.0"><stop offset="0%" stop-color="#fd3e13"/><stop offset="100%" stop-color="#000000"/></linearGradient><linearGradient id="g54" gradientUnits="userSpaceOnUse" x1="92.0" y1="109.0" x2="92.0" y2="101.0"><stop offset="0%" stop-color="#a735a2"/><stop offset="100%" stop-color="#ff3f2f"/></linearGradient><linearGradient id="g55" gradientUnits="userSpaceOnUse" x1="116.0" y1="109.0" x2="116.0" y2="101.0"><stop offset="0%" stop-color="#a735a2"/><stop offset="100%" stop-color="#2f3fbf"/></linearGradient><linearGradient id="g56" gradientUnits="userSpaceOnUse" x1="128.0" y1="117.0" x2="136.0" y2="117.0"><stop offset="0%" stop-color="#a735a2"/><stop offset="100%" stop-color="#2f3fbf"/></linearGradient><linearGradient id="g57" gradientUnits="userSpaceOnUse" x1="116.0" y1="125.0" x2="116.0" y2="133.0"><stop offset="0%" stop-color="#a735a2"/><stop offset="100%" stop-color="#000000"/></linearGradient><linearGradient id="g58" gradientUnits="userSpaceOnUse" x1="92.0" y1="125.0" x2="92.0" y2="133.0"><stop offset="0%" stop-color="#a735a2"/><stop offset="100%" stop-color="#ff3f2f"/></linearGradient><linearGradient id="g59" gradientUnits="userSpaceOnUse" x1="80.0" y1="117.0" x2="72.0" y2="117.0"><stop offset="0%" stop-color="#a735a2"/><stop offset="100%" stop-color="#2f3fbf"/></linearGradient><linearGradient id="g60" gradientUnits="userSpaceOnUse" x1="156.0" y1="109.0" x2="156.0" y2="101.0"><stop offset="0%" stop-color="#46b73d"/><stop offset="100%" stop-color="#000000"/></linearGradient><linearGradient id="g61" gradientUnits="userSpaceOnUse" x1="180.0" y1="109.0" x2="180.0" y2="101.0"><stop offset="0%" stop-color="#46b73d"/><stop offset="100%" stop-color="#ff3f2f"/></linearGradient><linearGradient id="g62" gradientUnits="userSpaceOnUse" x1="192.0" y1="117.0" x2="200.0" y2="117.0"><stop offset="0%" stop-color="#46b73d"/><stop offset="100%" stop-color="#ffffff"/></linearGradient><linearGradient id="g63" gradientUnits="userSpaceOnUse" x1="180.0" y1="125.0" x2="180.0" y2="133.0"><stop offset="0%" stop-color="#46b73d"/><stop offset="100%" stop-color="#000000"/></linearGradient><linearGradient id="g64" gradientUnits="userSpaceOnUse" x1="156.0" y1="125.0" x2="156.0" y2="133.0"><stop offset="0%" stop-color="#46b73d"/><stop offset="100%" stop-color="#ff3f2f"/></linearGradient><linearGradient id="g65" gradientUnits="userSpaceOnUse" x1="144.0" y1="117.0" x2="136.0" y2="117.0"><stop offset="0%" stop-color="#46b73d"/><stop offset="100%" stop-color="#ffffff"/></linearGradient></defs><rect x="0" y="0" width="205.0" height="158.0" fill="#ffffff"/><rect x="8.0" y="5.0" width="192.0" height="128.0" fill="#ffd966"/><g><title>wave</title><polygon points="16.0,13.0 24.0,5.0 24.0,13.0" fill="url(#g0)"/><polygon points="32.0,5.0 40.0,5.0 32.0,13.0" fill="url(#g0)"/></g><g><title>brick</title><rect x="40.0" y="5.0" width="24.0" height="8.0" fill="url(#g1)"/></g><g><title>mound</title><rect x="64.0" y="17.0" width="8.0" height="2.0" fill="url(#g2)"/><rect x="64.0" y="23.0" width="8.0" height="2.0" fill="url(#g2)"/></g><g><title>axe</title><rect x="44.0" y="35.0" width="20.0" height="2.0" fill="url(#g3)"/><rect x="40.0" y="29.0" width="4.0" height="8.0" fill="url(#g3)"/></g><g><title>axe</title><rect x="20.0" y="35.0" width="20.0" height="2.0" fill="url(#g4)"/><rect x="16.0" y="29.0" width="4.0" height="8.0" fill="url(#g4)"/></g><g><title>mound</title><rect x="8.0" y="17.0" width="8.0" height="2.0" fill="url(#g5)"/><rect x="8.0" y="23.0" width="8.0" height="2.0" fill="url(#g5)"/></g><g><title>mound</title><rect x="88.0" y="5.0" width="2.0" height="8.0" fill="url(#g6)"/><rect x="94.0" y="5.0" width="2.0" height="8.0" fill="url(#g6)"/></g><g><title>brick</title><rect x="104.0" y="5.0" width="24.0" height="8.0" fill="url(#g7)"/></g><g><title>mound</title><rect x="128.0" y="17.0" width="8.0" height="2.0" fill="url(#g8)"/><rect x="128.0" y="23.0" width="8.0" height="2.0" fill="url(#g8)"/></g><g><title>mound</title><rect x="112.0" y="29.0" width="2.0" height="8.0" fill="url(#g9)"/><rect x="118.0" y="29.0" width="2.0" height="8.0" fill="url(#g9)"/></g><g><title>axe</title><rect x="84.0" y="35.0" width="20.0" height="2.0" fill="url(#g10)"/><rect x="80.0" y="29.0" width="4.0" height="8.0" fill="url(#g10)"/></g><g><title>axe</title><rect x="78.0" y="17.0" width="2.0" height="12.0" fill="url(#g11)"/><rect x="72.0" y="13.0" width="8.0" height="4.0" fill="url(#g11)"/></g><g><title>axe</title><rect x="144.0" y="5.0" width="20.0" height="2.0" fill="url(#g12)"/><rect x="164.0" y="5.0" width="4.0" height="8.0" fill="url(#g12)"/></g><g><title>axe</title><rect x="168.0" y="5.0" width="20.0" height="2.0" fill="url(#g13)"/><rect x="188.0" y="5.0" width="4.0" height="8.0" fill="url(#g13)"/></g><g><title>wave</title><polygon points="192.0,13.0 192.0,21.0 200.0,21.0" fill="url(#g14)"/><polygon points="192.0,21.0 200.0,21.0 200.0,29.0" fill="url(#g14)"/></g><g><title>brick</title><rect x="168.0" y="29.0" width="24.0" height="8.0" fill="url(#g15)"/></g><g><title>brick</title><rect x="144.0" y="29.0" width="24.0" height="8.0" fill="url(#g16)"/></g><g><title>wave</title><polygon points="136.0,13.0 144.0,13.0 144.0,21.0" fill="url(#g17)"/><polygon points="136.0,21.0 136.0,29.0 144.0,29.0" fill="url(#g17)"/></g><g><title>mound</title><rect x="24.0" y="37.0" width="2.0" height="8.0" fill="url(#g18)"/><rect x="30.0" y="37.0" width="2.0" height="8.0" fill="url(#g18)"/></g><g><title>mound</title><rect x="48.0" y="37.0" width="2.0" height="8.0" fill="url(#g19)"/><rect x="54.0" y="37.0" width="2.0" height="8.0" fill="url(#g19)"/></g><g><title>axe</title><rect x="64.0" y="45.0" width="2.0" height="12.0" fill="url(#g20)"/><rect x="64.0" y="57.0" width="8.0" height="4.0" fill="url(#g20)"/></g><g><title>wave</title><polygon points="40.0,61.0 48.0,61.0 40.0,69.0" fill="url(#g21)"/><polygon points="56.0,69.0 64.0,61.0 64.0,69.0" fill="url(#g21)"/></g><g><title>mound</title><rect x="24.0" y="61.0" width="2.0" height="8.0" fill="url(#g22)"/><rect x="30.0" y="61.0" width="2.0" height="8.0" fill="url(#g22)"/></g><g><title>brick</title><rect x="8.0" y="45.0" width="8.0" height="16.0" fill="url(#g23)"/></g><g><title>axe</title><rect x="80.0" y="37.0" width="20.0" height="2.0" fill="url(#g24)"/><rect x="100.0" y="37.0" width="4.0" height="8.0" fill="url(#g24)"/></g><g><title>axe</title><rect x="104.0" y="37.0" width="20.0" height="2.0" fill="url(#g25)"/><rect x="124.0" y="37.0" width="4.0" height="8.0" fill="url(#g25)"/></g><g><title>brick</title><rect x="128.0" y="45.0" width="8.0" height="16.0" fill="url(#g26)"/></g><g><title>axe</title><rect x="108.0" y="67.0" width="20.0" height="2.0" fill="url(#g27)"/><rect x="104.0" y="61.0" width="4.0" height="8.0" fill="url(#g27)"/></g><g><title>wave</title><polygon points="80.0,61.0 88.0,61.0 80.0,69.0" fill="url(#g28)"/><polygon points="96.0,69.0 104.0,61.0 104.0,69.0" fill="url(#g28)"/></g><g><title>wave</title><polygon points="72.0,45.0 80.0,45.0 80.0,53.0" fill="url(#g29)"/><polygon points="72.0,53.0 72.0,61.0 80.0,61.0" fill="url(#g29)"/></g><g><title>brick</title><rect x="144.0" y="37.0" width="24.0" height="8.0" fill="url(#g30)"/></g><g><title>wave</title><polygon points="168.0,45.0 176.0,37.0 176.0,45.0" fill="url(#g31)"/><polygon points="184.0,37.0 192.0,37.0 184.0,45.0" fill="url(#g31)"/></g><g><title>brick</title><rect x="192.0" y="45.0" width="8.0" height="16.0" fill="url(#g32)"/></g><g><title>mound</title><rect x="176.0" y="61.0" width="2.0" height="8.0" fill="url(#g33)"/><rect x="182.0" y="61.0" width="2.0" height="8.0" fill="url(#g33)"/></g><g><title>mound</title><rect x="152.0" y="61.0" width="2.0" height="8.0" fill="url(#g34)"/><rect x="158.0" y="61.0" width="2.0" height="8.0" fill="url(#g34)"/></g><g><title>wave</title><polygon points="136.0,45.0 144.0,45.0 144.0,53.0" fill="url(#g35)"/><polygon points="136.0,53.0 136.0,61.0 144.0,61.0" fill="url(#g35)"/></g><g><title>brick</title><rect x="80.0" y="69.0" width="24.0" height="8.0" fill="url(#g36)"/></g><g><title>brick</title><rect x="104.0" y="69.0" width="24.0" height="8.0" fill="url(#g37)"/></g><g><title>axe</title><rect x="128.0" y="77.0" width="2.0" height="12.0" fill="url(#g38)"/><rect x="128.0" y="89.0" width="8.0" height="4.0" fill="url(#g38)"/></g><g><title>brick</title><rect x="104.0" y="93.0" width="24.0" height="8.0" fill="url(#g39)"/></g><g><title>brick</title><rect x="80.0" y="93.0" width="24.0" height="8.0" fill="url(#g40)"/></g><g><title>wave</title><polygon points="72.0,77.0 80.0,77.0 80.0,85.0" fill="url(#g41)"/><polygon points="72.0,85.0 72.0,93.0 80.0,93.0" fill="url(#g41)"/></g><g><title>axe</title><rect x="144.0" y="69.0" width="20.0" height="2.0" fill="url(#g42)"/><rect x="164.0" y="69.0" width="4.0" height="8.0" fill="url(#g42)"/></g><g><title>axe</title><rect x="168.0" y="69.0" width="20.0" height="2.0" fill="url(#g43)"/><rect x="188.0" y="69.0" width="4.0" height="8.0" fill="url(#g43)"/></g><g><title>brick</title><rect x="192.0" y="77.0" width="8.0" height="16.0" fill="url(#g44)"/></g><g><title>wave</title><polygon points="168.0,93.0 176.0,93.0 168.0,101.0" fill="url(#g45)"/><polygon points="184.0,101.0 192.0,93.0 192.0,101.0" fill="url(#g45)"/></g><g><title>axe</title><rect x="148.0" y="99.0" width="20.0" height="2.0" fill="url(#g46)"/><rect x="144.0" y="93.0" width="4.0" height="8.0" fill="url(#g46)"/></g><g><title>mound</title><rect x="136.0" y="81.0" width="8.0" height="2.0" fill="url(#g47)"/><rect x="136.0" y="87.0" width="8.0" height="2.0" fill="url(#g47)"/></g><g><title>brick</title><rect x="16.0" y="101.0" width="24.0" height="8.0" fill="url(#g48)"/></g><g><title>mound</title><rect x="48.0" y="101.0" width="2.0" height="8.0" fill="url(#g49)"/><rect x="54.0" y="101.0" width="2.0" height="8.0" fill="url(#g49)"/></g><g><title>brick</title><rect x="64.0" y="109.0" width="8.0" height="16.0" fill="url(#g50)"/></g><g><title>mound</title><rect x="48.0" y="125.0" width="2.0" height="8.0" fill="url(#g51)"/><rect x="54.0" y="125.0" width="2.0" height="8.0" fill="url(#g51)"/></g><g><title>axe</title><rect x="20.0" y="131.0" width="20.0" height="2.0" fill="url(#g52)"/><rect x="16.0" y="125.0" width="4.0" height="8.0" fill="url(#g52)"/></g><g><title>axe</title><rect x="14.0" y="113.0" width="2.0" height="12.0" fill="url(#g53)"/><rect x="8.0" y="109.0" width="8.0" height="4.0" fill="url(#g53)"/></g><g><title>mound</title><rect x="88.0" y="101.0" width="2.0" height="8.0" fill="url(#g54)"/><rect x="94.0" y="101.0" width="2.0" height="8.0" fill="url(#g54)"/></g><g><title>mound</title><rect x="112.0" y="101.0" width="2.0" height="8.0" fill="url(#g55)"/><rect x="118.0" y="101.0" width="2.0" height="8.0" fill="url(#g55)"/></g><g><title>mound</title><rect x="128.0" y="113.0" width="8.0" height="2.0" fill="url(#g56)"/><rect x="128.0" y="119.0" width="8.0" height="2.0" fill="url(#g56)"/></g><g><title>brick</title><rect x="104.0" y="125.0" width="24.0" height="8.0" fill="url(#g57)"/></g><g><title>axe</title><rect x="84.0" y="131.0" width="20.0" height="2.0" fill="url(#g58)"/><rect x="80.0" y="125.0" width="4.0" height="8.0" fill="url(#g58)"/></g><g><title>brick</title><rect x="72.0" y="109.0" width="8.0" height="16.0" fill="url(#g59)"/></g><g><title>brick</title><rect x="144.0" y="101.0" width="24.0" height="8.0" fill="url(#g60)"/></g><g><title>brick</title><rect x="168.0" y="101.0" width="24.0" height="8.0" fill="url(#g61)"/></g><g><title>axe</title><rect x="192.0" y="109.0" width="2.0" height="12.0" fill="url(#g62)"/><rect x="192.0" y="121.0" width="8.0" height="4.0" fill="url(#g62)"/></g><g><title>mound</title><rect x="176.0" y="125.0" width="2.0" height="8.0" fill="url(#g63)"/><rect x="182.0" y="125.0" width="2.0" height="8.0" fill="url(#g63)"/></g><g><title>wave</title><polygon points="144.0,125.0 152.0,125.0 144.0,133.0" fill="url(#g64)"/><polygon points="160.0,133.0 168.0,125.0 168.0,133.0" fill="url(#g64)"/></g><g><title>wave</title><polygon points="136.0,109.0 144.0,109.0 144.0,117.0" fill="url(#g65)"/><polygon points="136.0,117.0 136.0,125.0 144.0,125.0" fill="url(#g65)"/></g><ellipse cx="136.0" cy="37.0" rx="129.4111664424674" ry="236.74631037416094" transform="rotate(81.17647058823529 136.0 37.0)" fill="#000000" fill-opacity="0.2733333333333333" clip-path="url(#bounding-clip)"/><rect x="16.0" y="13.0" width="48.0" height="16.0" fill="#0f0063"/><text x="40.0" y="21.0" fill="#ffffff" style="font-family: monospace; font-size: 16.0px;" text-anchor="middle" dominant-baseline="central">YwAP</text><rect x="80.0" y="13.0" width="48.0" height="16.0" fill="#f93b27"/><text x="104.0" y="21.0" fill="#ffffff" style="font-family: monospace; font-size: 16.0px;" text-anchor="middle" dominant-baseline="central">Jzv5</text><rect x="144.0" y="13.0" width="48.0" height="16.0" fill="#279b09"/><text x="168.0" y="21.0" fill="#ffffff" style="font-family: monospace; font-size: 16.0px;" text-anchor="middle" dominant-baseline="central">CZsn</text><rect x="16.0" y="45.0" width="48.0" height="16.0" fill="#b9ad03"/><text x="40.0" y="53.0" fill="#ffffff" style="font-family: monospace; font-size: 16.0px;" text-anchor="middle" dominant-baseline="central">A625</text><rect x="80.0" y="45.0" width="48.0" height="16.0" fill="#df75b3"/><text x="104.0" y="53.0" fill="#ffffff" style="font-family: monospace; font-size: 16.0px;" text-anchor="middle" dominant-baseline="central">s3Xf</text><rect x="144.0" y="45.0" width="48.0" height="16.0" fill="#a677da"/><text x="168.0" y="53.0" fill="#ffffff" style="font-family: monospace; font-size: 16.0px;" text-anchor="middle" dominant-baseline="central">2nem</text><rect x="80.0" y="77.0" width="48.0" height="16.0" fill="#0f88b5"/><text x="104.0" y="85.0" fill="#ffffff" style="font-family: monospace; font-size: 16.0px;" text-anchor="middle" dominant-baseline="central">tYgP</text><rect x="144.0" y="77.0" width="48.0" height="16.0" fill="#5677a4"/><text x="168.0" y="85.0" fill="#ffffff" style="font-family: monospace; font-size: 16.0px;" text-anchor="middle" dominant-baseline="central">pHdW</text><rect x="16.0" y="109.0" width="48.0" height="16.0" fill="#fd3e13"/><text x="40.0" y="117.0" fill="#ffffff" style="font-family: monospace; font-size: 16.0px;" text-anchor="middle" dominant-baseline="central">Ez79</text><rect x="80.0" y="109.0" width="48.0" height="16.0" fill="#a735a2"/><text x="104.0" y="117.0" fill="#ffffff" style="font-family: monospace; font-size: 16.0px;" text-anchor="middle" dominant-baseline="central">ojWn</text><rect x="144.0" y="109.0" width="48.0" height="16.0" fill="#46b73d"/><text x="168.0" y="117.0" fill="#ffffff" style="font-family: monospace; font-size: 16.0px;" text-anchor="middle" dominant-baseline="central">PbdG</text><circle cx="74.0" cy="103.0" r="2.0" fill="#ffffff"/><circle cx="198.0" cy="39.0" r="2.0" fill="#ff3f2f"/><circle cx="198.0" cy="131.0" r="2.0" fill="#2f3fbf"/><circle cx="10.0" cy="67.0" r="2.0" fill="#000000"/><rect x="0" y="0" width="4.0" height="55.06060606060606" fill="#000000"/><rect x="0" y="55.06060606060606" width="4.0" height="43.09090909090909" fill="#ffffff"/><rect x="0" y="98.15151515151516" width="4.0" height="33.515151515151516" fill="#ff3f2f"/><rect x="0" y="131.66666666666669" width="4.0" height="26.333333333333314" fill="#2f3fbf"/><text x="200.0" y="145.0" fill="#000000" style="font-family: monospace; font-size: 16.0px;" text-anchor="end" dominant-baseline="central">B19 A18 M17 W12</text><line x1="4.0" y1="0" x2="204.0" y2="0" stroke="#000000" stroke-width="1"/><line x1="204.0" y1="0" x2="204.0" y2="157.0" stroke="#000000" stroke-width="1"/><line x1="4.0" y1="157.0" x2="204.0" y2="157.0" stroke="#000000" stroke-width="1"/></svg>