<svg width="213" height="192" viewBox="0 0 213 192" xmlns="http://www.w3.org/2000/svg" font-family="&quot;JetBrains Mono&quot;, &quot;Menlo&quot;, &quot;Consolas&quot;, &quot;DejaVu Sans Mono&quot;, &quot;Liberation Mono&quot;, &quot;Roboto Mono&quot;, &quot;Noto Sans Mono&quot;, monospace" data-entviz-version="v10" data-entviz-lib="0.10.0" data-input-bytes="54" data-cols="3" data-rows="4"><defs><clipPath id="grid-clip-424139f2c5617ae2-3x4"><rect x="27" y="26" width="180" height="160"/></clipPath></defs><rect x="0" y="0" width="213" height="192" fill="#ffffff"/><g data-channel="grid"><rect x="27" y="26" width="180" height="160" fill="#e7be00"/><g><rect x="27" y="26" width="6" height="10" fill="#ff3f2f"/><rect x="45" y="26" width="6" height="10" fill="#ff3f2f"/><rect x="51" y="26" width="6" height="10" fill="#ff3f2f"/><rect x="57" y="26" width="6" height="10" fill="#ff3f2f"/><rect x="75" y="26" width="6" height="10" fill="#ff3f2f"/><rect x="69" y="56" width="6" height="10" fill="#ff3f2f"/><rect x="51" y="56" width="6" height="10" fill="#ff3f2f"/><rect x="27" y="46" width="6" height="10" fill="#ff3f2f"/><rect x="87" y="26" width="6" height="10" fill="#000000"/><rect x="117" y="26" width="6" height="10" fill="#000000"/><rect x="123" y="26" width="6" height="10" fill="#000000"/><rect x="135" y="26" width="6" height="10" fill="#000000"/><rect x="141" y="36" width="6" height="10" fill="#000000"/><rect x="129" y="56" width="6" height="10" fill="#000000"/><rect x="123" y="56" width="6" height="10" fill="#000000"/><rect x="111" y="56" width="6" height="10" fill="#000000"/><rect x="93" y="56" width="6" height="10" fill="#000000"/><rect x="87" y="56" width="6" height="10" fill="#000000"/><rect x="87" y="46" width="6" height="10" fill="#000000"/><rect x="87" y="36" width="6" height="10" fill="#000000"/><rect x="153" y="26" width="6" height="10" fill="#2f3fbf"/><rect x="201" y="26" width="6" height="10" fill="#2f3fbf"/><rect x="195" y="56" width="6" height="10" fill="#2f3fbf"/><rect x="189" y="56" width="6" height="10" fill="#2f3fbf"/><rect x="183" y="56" width="6" height="10" fill="#2f3fbf"/><rect x="171" y="56" width="6" height="10" fill="#2f3fbf"/><rect x="159" y="56" width="6" height="10" fill="#2f3fbf"/><rect x="153" y="56" width="6" height="10" fill="#2f3fbf"/><rect x="147" y="56" width="6" height="10" fill="#2f3fbf"/><rect x="147" y="46" width="6" height="10" fill="#2f3fbf"/><rect x="27" y="66" width="6" height="10" fill="#ffffff"/><rect x="51" y="66" width="6" height="10" fill="#ffffff"/><rect x="69" y="66" width="6" height="10" fill="#ffffff"/><rect x="75" y="66" width="6" height="10" fill="#ffffff"/><rect x="81" y="66" width="6" height="10" fill="#ffffff"/><rect x="81" y="76" width="6" height="10" fill="#ffffff"/><rect x="69" y="96" width="6" height="10" fill="#ffffff"/><rect x="27" y="96" width="6" height="10" fill="#ffffff"/><rect x="27" y="76" width="6" height="10" fill="#ffffff"/><rect x="93" y="66" width="6" height="10" fill="#ff3f2f"/><rect x="99" y="66" width="6" height="10" fill="#ff3f2f"/><rect x="123" y="66" width="6" height="10" fill="#ff3f2f"/><rect x="129" y="66" width="6" height="10" fill="#ff3f2f"/><rect x="141" y="76" width="6" height="10" fill="#ff3f2f"/><rect x="141" y="86" width="6" height="10" fill="#ff3f2f"/><rect x="135" y="96" width="6" height="10" fill="#ff3f2f"/><rect x="117" y="96" width="6" height="10" fill="#ff3f2f"/><rect x="111" y="96" width="6" height="10" fill="#ff3f2f"/><rect x="93" y="96" width="6" height="10" fill="#ff3f2f"/><rect x="87" y="96" width="6" height="10" fill="#ff3f2f"/><rect x="87" y="86" width="6" height="10" fill="#ff3f2f"/><rect x="27" y="106" width="6" height="10" fill="#2f3fbf"/><rect x="39" y="106" width="6" height="10" fill="#2f3fbf"/><rect x="45" y="106" width="6" height="10" fill="#2f3fbf"/><rect x="51" y="106" width="6" height="10" fill="#2f3fbf"/><rect x="69" y="106" width="6" height="10" fill="#2f3fbf"/><rect x="81" y="116" width="6" height="10" fill="#2f3fbf"/><rect x="81" y="136" width="6" height="10" fill="#2f3fbf"/><rect x="75" y="136" width="6" height="10" fill="#2f3fbf"/><rect x="63" y="136" width="6" height="10" fill="#2f3fbf"/><rect x="45" y="136" width="6" height="10" fill="#2f3fbf"/><rect x="27" y="126" width="6" height="10" fill="#2f3fbf"/><rect x="93" y="106" width="6" height="10" fill="#ffffff"/><rect x="123" y="106" width="6" height="10" fill="#ffffff"/><rect x="129" y="106" width="6" height="10" fill="#ffffff"/><rect x="135" y="106" width="6" height="10" fill="#ffffff"/><rect x="141" y="106" width="6" height="10" fill="#ffffff"/><rect x="117" y="136" width="6" height="10" fill="#ffffff"/><rect x="111" y="136" width="6" height="10" fill="#ffffff"/><rect x="99" y="136" width="6" height="10" fill="#ffffff"/><rect x="93" y="136" width="6" height="10" fill="#ffffff"/><rect x="87" y="136" width="6" height="10" fill="#ffffff"/><rect x="87" y="126" width="6" height="10" fill="#ffffff"/><rect x="147" y="106" width="6" height="10" fill="#2f3fbf"/><rect x="159" y="106" width="6" height="10" fill="#2f3fbf"/><rect x="183" y="106" width="6" height="10" fill="#2f3fbf"/><rect x="195" y="106" width="6" height="10" fill="#2f3fbf"/><rect x="201" y="116" width="6" height="10" fill="#2f3fbf"/><rect x="201" y="126" width="6" height="10" fill="#2f3fbf"/><rect x="195" y="136" width="6" height="10" fill="#2f3fbf"/><rect x="159" y="136" width="6" height="10" fill="#2f3fbf"/><rect x="153" y="136" width="6" height="10" fill="#2f3fbf"/><rect x="147" y="136" width="6" height="10" fill="#2f3fbf"/><rect x="147" y="126" width="6" height="10" fill="#2f3fbf"/><rect x="147" y="116" width="6" height="10" fill="#2f3fbf"/><rect x="27" y="146" width="6" height="10" fill="#ff3f2f"/><rect x="69" y="146" width="6" height="10" fill="#ff3f2f"/><rect x="81" y="146" width="6" height="10" fill="#ff3f2f"/><rect x="81" y="156" width="6" height="10" fill="#ff3f2f"/><rect x="81" y="176" width="6" height="10" fill="#ff3f2f"/><rect x="69" y="176" width="6" height="10" fill="#ff3f2f"/><rect x="63" y="176" width="6" height="10" fill="#ff3f2f"/><rect x="51" y="176" width="6" height="10" fill="#ff3f2f"/><rect x="27" y="176" width="6" height="10" fill="#ff3f2f"/><rect x="27" y="166" width="6" height="10" fill="#ff3f2f"/><rect x="27" y="156" width="6" height="10" fill="#ff3f2f"/><rect x="93" y="146" width="6" height="10" fill="#000000"/><rect x="99" y="146" width="6" height="10" fill="#000000"/><rect x="135" y="146" width="6" height="10" fill="#000000"/><rect x="141" y="146" width="6" height="10" fill="#000000"/><rect x="141" y="156" width="6" height="10" fill="#000000"/><rect x="141" y="166" width="6" height="10" fill="#000000"/><rect x="135" y="176" width="6" height="10" fill="#000000"/><rect x="123" y="176" width="6" height="10" fill="#000000"/><rect x="117" y="176" width="6" height="10" fill="#000000"/><rect x="111" y="176" width="6" height="10" fill="#000000"/><rect x="105" y="176" width="6" height="10" fill="#000000"/><rect x="99" y="176" width="6" height="10" fill="#000000"/><rect x="93" y="176" width="6" height="10" fill="#000000"/><rect x="87" y="166" width="6" height="10" fill="#000000"/><rect x="147" y="146" width="6" height="10" fill="#2f3fbf"/><rect x="165" y="146" width="6" height="10" fill="#2f3fbf"/><rect x="171" y="146" width="6" height="10" fill="#2f3fbf"/><rect x="177" y="146" width="6" height="10" fill="#2f3fbf"/><rect x="183" y="146" width="6" height="10" fill="#2f3fbf"/><rect x="201" y="146" width="6" height="10" fill="#2f3fbf"/><rect x="201" y="166" width="6" height="10" fill="#2f3fbf"/><rect x="195" y="176" width="6" height="10" fill="#2f3fbf"/><rect x="177" y="176" width="6" height="10" fill="#2f3fbf"/><rect x="165" y="176" width="6" height="10" fill="#2f3fbf"/><rect x="159" y="176" width="6" height="10" fill="#2f3fbf"/><rect x="153" y="176" width="6" height="10" fill="#2f3fbf"/><rect x="147" y="166" width="6" height="10" fill="#2f3fbf"/><rect x="147" y="156" width="6" height="10" fill="#2f3fbf"/></g><g clip-path="url(#grid-clip-424139f2c5617ae2-3x4)" data-channel="ellipse" data-ellipse-anchor-x="87" data-ellipse-anchor-y="146" data-ellipse-rx="53.627" data-ellipse-ry="98.429" data-ellipse-rotation-deg="24"><ellipse cx="87" cy="146" rx="53.627" ry="98.429" transform="rotate(24 87 146)" fill="#000000" stroke="#000000" fill-opacity="0.2" stroke-opacity="0.3" stroke-width="2"/></g><g><g data-channel="cell" data-cell-index="0" data-cell-row="0" data-cell-col="0" data-cell-quartile="1"><rect x="33" y="36" width="48" height="20" fill="#aa7600"/><text x="57" y="46" fill="#000000" font-size="16" text-anchor="middle" dominant-baseline="central">qpm2</text><polygon points="33,36 43,36 33,46" fill="#000000"/></g><g data-channel="cell" data-cell-index="1" data-cell-row="0" data-cell-col="1"><rect x="93" y="36" width="48" height="20" fill="#330504"/><text x="117" y="46" fill="#ffffff" font-size="16" text-anchor="middle" dominant-baseline="central">qszn</text></g><g data-channel="cell" data-cell-index="2" data-cell-row="0" data-cell-col="2" data-cell-quartile="2"><rect x="153" y="36" width="48" height="20" fill="#aaa0bd"/><text x="177" y="46" fill="#000000" font-size="16" text-anchor="middle" dominant-baseline="central">hks2</text><polygon points="201,36 191,36 201,46" fill="#000000"/></g><g data-channel="cell" data-cell-index="3" data-cell-row="1" data-cell-col="0"><rect x="33" y="76" width="48" height="20" fill="#aabd88"/><text x="57" y="86" fill="#000000" font-size="16" text-anchor="middle" dominant-baseline="central">3z76</text></g><g data-channel="cell" data-cell-index="4" data-cell-row="1" data-cell-col="1"><rect x="93" y="76" width="48" height="20" fill="#bb7751"/><text x="117" y="86" fill="#000000" font-size="16" text-anchor="middle" dominant-baseline="central">29mm</text></g><g data-channel="cell" data-cell-index="5" data-cell-row="1" data-cell-col="2" data-cell-blank="true" data-cell-blank-map="true"><rect x="153" y="76" width="48" height="20" rx="10" ry="10" fill="#ff3f2f" stroke="#000000" stroke-width="1"/><circle cx="161" cy="78.5" r="3.5" fill="#000000" data-blank-map-min="0,0"/><path d="M 188.8,88.5 H 197.2 M 193,84.3 V 92.7" fill="none" stroke="#000000" stroke-width="1.925" stroke-linecap="butt" data-blank-map-max="2,2"/></g><g data-channel="cell" data-cell-index="6" data-cell-row="2" data-cell-col="0" data-cell-quartile="4"><rect x="33" y="116" width="48" height="20" fill="#55a186"/><text x="57" y="126" fill="#000000" font-size="16" text-anchor="middle" dominant-baseline="central">s6s4</text><polygon points="33,136 33,126 43,136" fill="#000000"/></g><g data-channel="cell" data-cell-index="7" data-cell-row="2" data-cell-col="1"><rect x="93" y="116" width="48" height="20" fill="#99b2c3"/><text x="117" y="126" fill="#000000" font-size="16" text-anchor="middle" dominant-baseline="central">cwef</text></g><g data-channel="cell" data-cell-index="8" data-cell-row="2" data-cell-col="2"><rect x="153" y="116" width="48" height="20" fill="#8859f5"/><text x="177" y="126" fill="#ffffff" font-size="16" text-anchor="middle" dominant-baseline="central">74vc</text></g><g data-channel="cell" data-cell-index="9" data-cell-row="3" data-cell-col="0"><rect x="33" y="156" width="48" height="20" fill="#aa0873"/><text x="57" y="166" fill="#ffffff" font-size="16" text-anchor="middle" dominant-baseline="central">wvy2</text></g><g data-channel="cell" data-cell-index="10" data-cell-row="3" data-cell-col="1" data-cell-quartile="3"><rect x="93" y="156" width="48" height="20" fill="#661a52"/><text x="117" y="166" fill="#ffffff" font-size="16" text-anchor="middle" dominant-baseline="central">2gdx</text><polygon points="141,176 141,166 131,176" fill="#ffffff"/></g><g data-channel="cell" data-cell-index="11" data-cell-row="3" data-cell-col="2"><rect x="153" y="156" width="48" height="20" fill="#dd75d7"/><text x="177" y="166" fill="#000000" font-size="16" text-anchor="middle" dominant-baseline="central">6a</text></g></g></g><g data-channel="color-bar" data-bar-slots="15" data-bar-marker-left="12" data-bar-marker-right="4"><g data-color-bar-rank="0" data-color-bar-band="B"><rect x="1" y="1" width="20" height="28.432" fill="#2f3fbf"/><text x="11" y="25.912" fill="#ffffff" font-size="16" text-anchor="middle" data-color-bar-letter="true">b</text></g><g data-color-bar-rank="1" data-color-bar-band="W"><rect x="1" y="29.432" width="20" height="72.384" fill="#ffffff"/><text x="11" y="98.296" fill="#000000" font-size="16" text-anchor="middle" data-color-bar-letter="true">w</text></g><g data-color-bar-rank="2" data-color-bar-band="R"><rect x="1" y="101.816" width="20" height="54.276" fill="#ff3f2f"/><text x="11" y="152.573" fill="#000000" font-size="16" text-anchor="middle" data-color-bar-letter="true">r</text></g><g data-color-bar-rank="3" data-color-bar-band="K"><rect x="1" y="156.093" width="20" height="34.907" fill="#000000"/><text x="11" y="187.48" fill="#ffffff" font-size="16" text-anchor="middle" data-color-bar-letter="true">k</text></g><circle cx="5.6" cy="159.333" r="3.4" fill="#ffffff" stroke="#000000" stroke-width="0.75" data-bar-marker="left"/><circle cx="16.4" cy="58" r="3.4" fill="#ffffff" stroke="#000000" stroke-width="0.75" data-bar-marker="right"/></g><g data-channel="label-top"><text x="27" y="16" fill="#666666" font-size="12" dominant-baseline="central">BCH: bitcoincash:...</text></g><line x1="0" y1="0.5" x2="213" y2="0.5" stroke="#808080" stroke-width="1" shape-rendering="crispEdges"/><line x1="212.5" y1="0" x2="212.5" y2="192" stroke="#808080" stroke-width="1" shape-rendering="crispEdges"/><line x1="0" y1="191.5" x2="213" y2="191.5" stroke="#808080" stroke-width="1" shape-rendering="crispEdges"/><line x1="0.5" y1="0" x2="0.5" y2="192" stroke="#808080" stroke-width="1" shape-rendering="crispEdges"/><line x1="21.5" y1="0" x2="21.5" y2="192" stroke="#808080" stroke-width="1" shape-rendering="crispEdges"/></svg>