<svg width="213" height="192" viewBox="0 0 213 192" xmlns="http://www.w3.org/2000/svg" font-family="&quot;JetBrains Mono&quot;, &quot;Menlo&quot;, &quot;Consolas&quot;, &quot;DejaVu Sans Mono&quot;, &quot;Liberation Mono&quot;, &quot;Roboto Mono&quot;, &quot;Noto Sans Mono&quot;, monospace" data-entviz-version="v10" data-entviz-lib="0.10.0" data-input-bytes="54" data-cols="3" data-rows="4"><defs><clipPath id="grid-clip-424139f2c5617ae2-3x4"><rect x="27" y="26" width="180" height="160"/></clipPath></defs><rect x="0" y="0" width="213" height="192" fill="#ffffff"/><g data-channel="grid"><rect x="27" y="26" width="180" height="160" fill="#e7be00"/><g><path fill="#ff3f2f" d="M27 26h6v10h-6zM45 26h6v10h-6zM51 26h6v10h-6zM57 26h6v10h-6zM75 26h6v10h-6zM69 56h6v10h-6zM51 56h6v10h-6zM27 46h6v10h-6z"/><path fill="#000000" d="M87 26h6v10h-6zM117 26h6v10h-6zM123 26h6v10h-6zM135 26h6v10h-6zM141 36h6v10h-6zM129 56h6v10h-6zM123 56h6v10h-6zM111 56h6v10h-6zM93 56h6v10h-6zM87 56h6v10h-6zM87 46h6v10h-6zM87 36h6v10h-6z"/><path fill="#2f3fbf" d="M153 26h6v10h-6zM201 26h6v10h-6zM195 56h6v10h-6zM189 56h6v10h-6zM183 56h6v10h-6zM171 56h6v10h-6zM159 56h6v10h-6zM153 56h6v10h-6zM147 56h6v10h-6zM147 46h6v10h-6z"/><path fill="#ffffff" d="M27 66h6v10h-6zM51 66h6v10h-6zM69 66h6v10h-6zM75 66h6v10h-6zM81 66h6v10h-6zM81 76h6v10h-6zM69 96h6v10h-6zM27 96h6v10h-6zM27 76h6v10h-6z"/><path fill="#ff3f2f" d="M93 66h6v10h-6zM99 66h6v10h-6zM123 66h6v10h-6zM129 66h6v10h-6zM141 76h6v10h-6zM141 86h6v10h-6zM135 96h6v10h-6zM117 96h6v10h-6zM111 96h6v10h-6zM93 96h6v10h-6zM87 96h6v10h-6zM87 86h6v10h-6z"/><path fill="#2f3fbf" d="M27 106h6v10h-6zM39 106h6v10h-6zM45 106h6v10h-6zM51 106h6v10h-6zM69 106h6v10h-6zM81 116h6v10h-6zM81 136h6v10h-6zM75 136h6v10h-6zM63 136h6v10h-6zM45 136h6v10h-6zM27 126h6v10h-6z"/><path fill="#ffffff" d="M93 106h6v10h-6zM123 106h6v10h-6zM129 106h6v10h-6zM135 106h6v10h-6zM141 106h6v10h-6zM117 136h6v10h-6zM111 136h6v10h-6zM99 136h6v10h-6zM93 136h6v10h-6zM87 136h6v10h-6zM87 126h6v10h-6z"/><path fill="#2f3fbf" d="M147 106h6v10h-6zM159 106h6v10h-6zM183 106h6v10h-6zM195 106h6v10h-6zM201 116h6v10h-6zM201 126h6v10h-6zM195 136h6v10h-6zM159 136h6v10h-6zM153 136h6v10h-6zM147 136h6v10h-6zM147 126h6v10h-6zM147 116h6v10h-6z"/><path fill="#ff3f2f" d="M27 146h6v10h-6zM69 146h6v10h-6zM81 146h6v10h-6zM81 156h6v10h-6zM81 176h6v10h-6zM69 176h6v10h-6zM63 176h6v10h-6zM51 176h6v10h-6zM27 176h6v10h-6zM27 166h6v10h-6zM27 156h6v10h-6z"/><path fill="#000000" d="M93 146h6v10h-6zM99 146h6v10h-6zM135 146h6v10h-6zM141 146h6v10h-6zM141 156h6v10h-6zM141 166h6v10h-6zM135 176h6v10h-6zM123 176h6v10h-6zM117 176h6v10h-6zM111 176h6v10h-6zM105 176h6v10h-6zM99 176h6v10h-6zM93 176h6v10h-6zM87 166h6v10h-6z"/><path fill="#2f3fbf" d="M147 146h6v10h-6zM165 146h6v10h-6zM171 146h6v10h-6zM177 146h6v10h-6zM183 146h6v10h-6zM201 146h6v10h-6zM201 166h6v10h-6zM195 176h6v10h-6zM177 176h6v10h-6zM165 176h6v10h-6zM159 176h6v10h-6zM153 176h6v10h-6zM147 166h6v10h-6zM147 156h6v10h-6z"/></g><g clip-path="url(#grid-clip-424139f2c5617ae2-3x4)" data-channel="ellipse" data-ellipse-anchor-x="87" data-ellipse-anchor-y="146" data-ellipse-rx="53.627" data-ellipse-ry="98.429" data-ellipse-rotation-deg="24"><ellipse cx="87" cy="146" rx="53.627" ry="98.429" transform="rotate(24 87 146)" fill="#000000" stroke="#000000" fill-opacity="0.2" stroke-opacity="0.3" stroke-width="2"/></g><g><g data-channel="cell" data-cell-index="0" data-cell-row="0" data-cell-col="0" data-surround-bits="0x424139" data-edge-color="#ff3f2f" data-cell-quartile="1"><rect x="33" y="36" width="48" height="20" fill="#aa7600"/><text x="57" y="46" fill="#000000" font-size="16" text-anchor="middle" dominant-baseline="central">qpm2</text><polygon points="33,36 43,36 33,46" fill="#000000"/></g><g data-channel="cell" data-cell-index="1" data-cell-row="0" data-cell-col="1" data-surround-bits="0xf2c561" data-edge-color="#000000"><rect x="93" y="36" width="48" height="20" fill="#330504"/><text x="117" y="46" fill="#ffffff" font-size="16" text-anchor="middle" dominant-baseline="central">qszn</text></g><g data-channel="cell" data-cell-index="2" data-cell-row="0" data-cell-col="2" data-surround-bits="0x7ae202" data-edge-color="#2f3fbf" data-cell-quartile="2"><rect x="153" y="36" width="48" height="20" fill="#aaa0bd"/><text x="177" y="46" fill="#000000" font-size="16" text-anchor="middle" dominant-baseline="central">hks2</text><polygon points="201,36 191,36 201,46" fill="#000000"/></g><g data-channel="cell" data-cell-index="3" data-cell-row="1" data-cell-col="0" data-surround-bits="0xa04791" data-edge-color="#ffffff"><rect x="33" y="76" width="48" height="20" fill="#aabd88"/><text x="57" y="86" fill="#000000" font-size="16" text-anchor="middle" dominant-baseline="central">3z76</text></g><g data-channel="cell" data-cell-index="4" data-cell-row="1" data-cell-col="1" data-surround-bits="0x732cc6" data-edge-color="#ff3f2f"><rect x="93" y="76" width="48" height="20" fill="#bb7751"/><text x="117" y="86" fill="#000000" font-size="16" text-anchor="middle" dominant-baseline="central">29mm</text></g><g data-channel="cell" data-cell-index="5" data-cell-row="1" data-cell-col="2" data-cell-blank="true" data-cell-blank-map="true"><rect x="153" y="76" width="48" height="20" rx="10" ry="10" fill="#ff3f2f" stroke="#000000" stroke-width="1"/><circle cx="161" cy="78.5" r="3.5" fill="#000000" data-blank-map-min="0,0"/><path d="M 188.8,88.5 H 197.2 M 193,84.3 V 92.7" fill="none" stroke="#000000" stroke-width="1.925" stroke-linecap="butt" data-blank-map-max="2,2"/></g><g data-channel="cell" data-cell-index="6" data-cell-row="2" data-cell-col="0" data-surround-bits="0x44b49d" data-edge-color="#2f3fbf" data-cell-quartile="4"><rect x="33" y="116" width="48" height="20" fill="#55a186"/><text x="57" y="126" fill="#000000" font-size="16" text-anchor="middle" dominant-baseline="central">s6s4</text><polygon points="33,136 33,126 43,136" fill="#000000"/></g><g data-channel="cell" data-cell-index="7" data-cell-row="2" data-cell-col="1" data-surround-bits="0x7b03c2" data-edge-color="#ffffff"><rect x="93" y="116" width="48" height="20" fill="#99b2c3"/><text x="117" y="126" fill="#000000" font-size="16" text-anchor="middle" dominant-baseline="central">cwef</text></g><g data-channel="cell" data-cell-index="8" data-cell-row="2" data-cell-col="2" data-surround-bits="0xf82d45" data-edge-color="#2f3fbf"><rect x="153" y="116" width="48" height="20" fill="#8859f5"/><text x="177" y="126" fill="#ffffff" font-size="16" text-anchor="middle" dominant-baseline="central">74vc</text></g><g data-channel="cell" data-cell-index="9" data-cell-row="3" data-cell-col="0" data-surround-bits="0xe2d681" data-edge-color="#ff3f2f"><rect x="33" y="156" width="48" height="20" fill="#aa0873"/><text x="57" y="166" fill="#ffffff" font-size="16" text-anchor="middle" dominant-baseline="central">wvy2</text></g><g data-channel="cell" data-cell-index="10" data-cell-row="3" data-cell-col="1" data-surround-bits="0x5faf06" data-edge-color="#000000" data-cell-quartile="3"><rect x="93" y="156" width="48" height="20" fill="#661a52"/><text x="117" y="166" fill="#ffffff" font-size="16" text-anchor="middle" dominant-baseline="central">2gdx</text><polygon points="141,176 141,166 131,176" fill="#ffffff"/></g><g data-channel="cell" data-cell-index="11" data-cell-row="3" data-cell-col="2" data-surround-bits="0xdd2a79" data-edge-color="#2f3fbf"><rect x="153" y="156" width="48" height="20" fill="#dd75d7"/><text x="177" y="166" fill="#000000" font-size="16" text-anchor="middle" dominant-baseline="central">6a</text></g></g></g><g data-channel="color-bar" data-bar-slots="15" data-bar-marker-left="12" data-bar-marker-right="4"><g data-color-bar-rank="0" data-color-bar-band="B"><rect x="1" y="1" width="20" height="28.432" fill="#2f3fbf"/><text x="11" y="25.912" fill="#ffffff" font-size="16" text-anchor="middle" data-color-bar-letter="true">b</text></g><g data-color-bar-rank="1" data-color-bar-band="W"><rect x="1" y="29.432" width="20" height="72.384" fill="#ffffff"/><text x="11" y="98.296" fill="#000000" font-size="16" text-anchor="middle" data-color-bar-letter="true">w</text></g><g data-color-bar-rank="2" data-color-bar-band="R"><rect x="1" y="101.816" width="20" height="54.276" fill="#ff3f2f"/><text x="11" y="152.573" fill="#000000" font-size="16" text-anchor="middle" data-color-bar-letter="true">r</text></g><g data-color-bar-rank="3" data-color-bar-band="K"><rect x="1" y="156.093" width="20" height="34.907" fill="#000000"/><text x="11" y="187.48" fill="#ffffff" font-size="16" text-anchor="middle" data-color-bar-letter="true">k</text></g><circle cx="5.6" cy="159.333" r="3.4" fill="#ffffff" stroke="#000000" stroke-width="0.75" data-bar-marker="left"/><circle cx="16.4" cy="58" r="3.4" fill="#ffffff" stroke="#000000" stroke-width="0.75" data-bar-marker="right"/></g><g data-channel="label-top"><text x="27" y="16" fill="#666666" font-size="12" dominant-baseline="central">BCH: bitcoincash:...</text></g><line x1="0" y1="0.5" x2="213" y2="0.5" stroke="#808080" stroke-width="1" shape-rendering="crispEdges"/><line x1="212.5" y1="0" x2="212.5" y2="192" stroke="#808080" stroke-width="1" shape-rendering="crispEdges"/><line x1="0" y1="191.5" x2="213" y2="191.5" stroke="#808080" stroke-width="1" shape-rendering="crispEdges"/><line x1="0.5" y1="0" x2="0.5" y2="192" stroke="#808080" stroke-width="1" shape-rendering="crispEdges"/><line x1="21.5" y1="0" x2="21.5" y2="192" stroke="#808080" stroke-width="1" shape-rendering="crispEdges"/></svg>