<svg width="213" height="152" viewBox="0 0 213 152" xmlns="http://www.w3.org/2000/svg" font-family="&quot;JetBrains Mono&quot;, &quot;Menlo&quot;, &quot;Consolas&quot;, &quot;DejaVu Sans Mono&quot;, &quot;Liberation Mono&quot;, &quot;Roboto Mono&quot;, &quot;Noto Sans Mono&quot;, monospace" data-entviz-version="v11" data-entviz-lib="0.11.0" data-input-bytes="26" data-cols="3" data-rows="3"><defs><clipPath id="grid-clip-7154c6d615fe7973-3x3"><rect x="27" y="26" width="180" height="120"/></clipPath></defs><rect x="0" y="0" width="213" height="152" fill="#ffffff"/><g data-channel="grid"><rect x="27" y="26" width="180" height="120" fill="#2f3fbf"/><g><path fill="#ff3f2f" d="M33 26h6v10h-6zM39 26h6v10h-6zM63 26h6v10h-6zM69 26h6v10h-6zM81 36h6v10h-6zM81 56h6v10h-6zM69 56h6v10h-6zM57 56h6v10h-6zM33 56h6v10h-6zM27 56h6v10h-6zM27 46h6v10h-6z"/><path fill="#ff3f2f" d="M93 26h6v10h-6zM99 26h6v10h-6zM105 26h6v10h-6zM111 26h6v10h-6zM117 26h6v10h-6zM123 26h6v10h-6zM129 26h6v10h-6zM135 26h6v10h-6zM141 36h6v10h-6zM141 56h6v10h-6zM111 56h6v10h-6zM105 56h6v10h-6zM93 56h6v10h-6zM87 46h6v10h-6zM87 36h6v10h-6z"/><path fill="#e7be00" d="M33 66h6v10h-6zM51 66h6v10h-6zM63 66h6v10h-6zM69 66h6v10h-6zM75 66h6v10h-6zM81 66h6v10h-6zM81 96h6v10h-6zM75 96h6v10h-6zM69 96h6v10h-6zM57 96h6v10h-6zM39 96h6v10h-6zM33 96h6v10h-6zM27 96h6v10h-6zM27 86h6v10h-6z"/><path fill="#ff3f2f" d="M87 66h6v10h-6zM99 66h6v10h-6zM105 66h6v10h-6zM117 66h6v10h-6zM123 66h6v10h-6zM141 66h6v10h-6zM141 76h6v10h-6zM135 96h6v10h-6zM123 96h6v10h-6zM111 96h6v10h-6zM99 96h6v10h-6zM93 96h6v10h-6zM87 96h6v10h-6zM87 86h6v10h-6zM87 76h6v10h-6z"/><path fill="#e7be00" d="M153 66h6v10h-6zM159 66h6v10h-6zM171 66h6v10h-6zM177 66h6v10h-6zM183 66h6v10h-6zM195 66h6v10h-6zM201 76h6v10h-6zM201 86h6v10h-6zM189 96h6v10h-6zM183 96h6v10h-6zM177 96h6v10h-6zM165 96h6v10h-6zM153 96h6v10h-6zM147 86h6v10h-6zM147 76h6v10h-6z"/><path fill="#ff3f2f" d="M27 106h6v10h-6zM39 106h6v10h-6zM51 106h6v10h-6zM69 106h6v10h-6zM75 106h6v10h-6zM69 136h6v10h-6zM57 136h6v10h-6zM45 136h6v10h-6zM39 136h6v10h-6zM33 136h6v10h-6zM27 126h6v10h-6z"/><path fill="#000000" d="M147 106h6v10h-6zM153 106h6v10h-6zM189 106h6v10h-6zM195 106h6v10h-6zM201 106h6v10h-6zM201 136h6v10h-6zM183 136h6v10h-6zM177 136h6v10h-6zM165 136h6v10h-6zM159 136h6v10h-6z"/></g><g clip-path="url(#grid-clip-7154c6d615fe7973-3x3)" data-channel="ellipse" data-ellipse-anchor-x="27" data-ellipse-anchor-y="66" data-ellipse-rx="85.882" data-ellipse-ry="76.427" data-ellipse-rotation-deg="0"><ellipse cx="27" cy="66" rx="85.882" ry="76.427" transform="rotate(0 27 66)" fill="#ffffff" stroke="#ffffff" fill-opacity="0.35" stroke-opacity="0.45" stroke-width="2"/></g><g><g data-channel="cell" data-cell-index="0" data-cell-row="0" data-cell-col="0" data-surround-bits="0x7154c6" data-edge-color="#ff3f2f"><rect x="33" y="36" width="48" height="20" fill="#885500"/><text x="57" y="46" fill="#ffffff" font-size="16" text-anchor="middle" dominant-baseline="central">01AR</text></g><g data-channel="cell" data-cell-index="1" data-cell-row="0" data-cell-col="1" data-surround-bits="0xd615fe" data-edge-color="#ff3f2f" data-cell-quartile="1"><rect x="93" y="36" width="48" height="20" fill="#ddeaf8"/><text x="117" y="46" fill="#000000" font-size="16" text-anchor="middle" dominant-baseline="central">Z3ND</text><polygon points="93,36 103,36 93,46" fill="#000000"/></g><g data-channel="cell" data-cell-index="2" data-cell-row="0" data-cell-col="2" data-cell-blank="true" data-cell-blank-map="true"><rect x="153" y="36" width="48" height="20" rx="10" ry="10" fill="#ffffff" stroke="#000000" stroke-width="1"/><circle cx="193" cy="52.667" r="3.5" fill="#1d4ed8" data-blank-map-min="2,2"/><path d="M 172.8,46 H 181.2 M 177,41.8 V 50.2" fill="none" stroke="#d62828" stroke-width="1.925" stroke-linecap="butt" data-blank-map-max="1,1"/></g><g data-channel="cell" data-cell-index="3" data-cell-row="1" data-cell-col="0" data-surround-bits="0x7973d2" data-edge-color="#e7be00" data-cell-quartile="3"><rect x="33" y="76" width="48" height="20" fill="#99f574"/><text x="57" y="86" fill="#000000" font-size="16" text-anchor="middle" dominant-baseline="central">EKTS</text><polygon points="81,96 81,86 71,96" fill="#000000"/></g><g data-channel="cell" data-cell-index="4" data-cell-row="1" data-cell-col="1" data-surround-bits="0xfaa66d" data-edge-color="#ff3f2f" data-cell-quartile="4"><rect x="93" y="76" width="48" height="20" fill="#8831d9"/><text x="117" y="86" fill="#ffffff" font-size="16" text-anchor="middle" dominant-baseline="central">V4RR</text><polygon points="93,96 93,86 103,96" fill="#ffffff"/></g><g data-channel="cell" data-cell-index="5" data-cell-row="1" data-cell-col="2" data-surround-bits="0xd5cd76" data-edge-color="#e7be00"><rect x="153" y="76" width="48" height="20" fill="#66ee7b"/><text x="177" y="86" fill="#000000" font-size="16" text-anchor="middle" dominant-baseline="central">FFQ6</text></g><g data-channel="cell" data-cell-index="6" data-cell-row="2" data-cell-col="0" data-surround-bits="0x5d4195" data-edge-color="#ff3f2f"><rect x="33" y="116" width="48" height="20" fill="#ff0a4c"/><text x="57" y="126" fill="#000000" font-size="16" text-anchor="middle" dominant-baseline="central">9G5F</text></g><g data-channel="cell" data-cell-index="7" data-cell-row="2" data-cell-col="1" data-cell-blank="true"><rect x="93" y="116" width="48" height="20" rx="10" ry="10" fill="#000000" stroke="#000000" stroke-width="1"/></g><g data-channel="cell" data-cell-index="8" data-cell-row="2" data-cell-col="2" data-surround-bits="0xd9383" data-edge-color="#000000" data-cell-quartile="2"><rect x="153" y="116" width="48" height="20" fill="#bbd556"/><text x="177" y="126" fill="#000000" font-size="16" text-anchor="middle" dominant-baseline="central">AV</text><polygon points="201,116 191,116 201,126" fill="#000000"/></g></g></g><g data-channel="color-bar" data-bar-slots="12" data-bar-marker-left="11" data-bar-marker-right="7"><g data-color-bar-rank="0" data-color-bar-band="G"><rect x="1" y="1" width="20" height="65.979" fill="#e7be00"/><text x="11" y="63.459" fill="#000000" font-size="16" text-anchor="middle" data-color-bar-letter="true">g</text></g><g data-color-bar-rank="1" data-color-bar-band="W"><rect x="1" y="66.979" width="20" height="22.012" fill="#ffffff"/><text x="11" y="85.47" fill="#000000" font-size="16" text-anchor="middle" data-color-bar-letter="true">w</text></g><g data-color-bar-rank="2" data-color-bar-band="K"><rect x="1" y="88.99" width="20" height="34.985" fill="#000000"/><text x="11" y="120.455" fill="#ffffff" font-size="16" text-anchor="middle" data-color-bar-letter="true">k</text></g><g data-color-bar-rank="3" data-color-bar-band="R"><rect x="1" y="123.975" width="20" height="27.025" fill="#ff3f2f"/><text x="11" y="147.48" fill="#000000" font-size="16" text-anchor="middle" data-color-bar-letter="true">r</text></g><circle cx="5.6" cy="144.75" r="3.4" fill="#ffffff" stroke="#000000" stroke-width="0.75" data-bar-marker="left"/><circle cx="16.4" cy="94.75" r="3.4" fill="#ffffff" stroke="#000000" stroke-width="0.75" data-bar-marker="right"/></g><g data-channel="label-top"><text x="27" y="16" fill="#666666" font-size="12" dominant-baseline="central">ULID:</text></g><line x1="0" y1="0.5" x2="213" y2="0.5" stroke="#808080" stroke-width="1" shape-rendering="crispEdges"/><line x1="212.5" y1="0" x2="212.5" y2="152" stroke="#808080" stroke-width="1" shape-rendering="crispEdges"/><line x1="0" y1="151.5" x2="213" y2="151.5" stroke="#808080" stroke-width="1" shape-rendering="crispEdges"/><line x1="0.5" y1="0" x2="0.5" y2="152" stroke="#808080" stroke-width="1" shape-rendering="crispEdges"/><line x1="21.5" y1="0" x2="21.5" y2="152" stroke="#808080" stroke-width="1" shape-rendering="crispEdges"/></svg>