<svg width="256.0" height="192.0" xmlns="http://www.w3.org/2000/svg"><rect x="0" y="0" width="256.0" height="192.0" fill="#ffd966"/><rect x="8.0" y="8.0" width="48.0" height="16.0" fill="#beadde"/><text x="32.0" y="16.0" fill="#ffffff" style="font-family: monospace; font-size: 16.0px;" text-anchor="middle" dominant-baseline="central">DEADBE</text><rect x="16.0" y="0.0" width="8.0" height="8.0" fill="#ffffff"/><polygon points="32.0,0.0 40.0,0.0 40.0,8.0" fill="#ff3f2f"/><rect x="40.0" y="0.0" width="8.0" height="8.0" fill="#ff3f2f"/><polygon points="48.0,0.0 48.0,8.0 56.0,8.0" fill="#ff3f2f"/><polygon points="56.0,16.0 64.0,8.0 64.0,16.0" fill="#ffffff"/><polygon points="56.0,16.0 64.0,16.0 56.0,24.0" fill="#ffffff"/><rect x="42.0" y="24.0" width="4.0" height="8.0" fill="#ff3f2f"/><rect x="35.0" y="28.0" width="18.0" height="2.0" fill="#ff3f2f"/><rect x="18.0" y="24.0" width="4.0" height="8.0" fill="#ffffff"/><rect x="11.0" y="28.0" width="18.0" height="2.0" fill="#ffffff"/><rect x="0.0" y="14.0" width="8.0" height="4.0" fill="#2f3fbf"/><rect x="3.0" y="11.0" width="2.0" height="10.0" fill="#2f3fbf"/><rect x="72.0" y="8.0" width="48.0" height="16.0" fill="#addeef"/><text x="96.0" y="16.0" fill="#000000" style="font-family: monospace; font-size: 16.0px;" text-anchor="middle" dominant-baseline="central">EFDEAD</text><polygon points="72.0,0.0 80.0,0.0 80.0,8.0" fill="#ff3f2f"/><rect x="80.0" y="0.0" width="8.0" height="8.0" fill="#ff3f2f"/><polygon points="88.0,0.0 88.0,8.0 96.0,8.0" fill="#ff3f2f"/><rect x="106.0" y="0.0" width="4.0" height="8.0" fill="#2f3fbf"/><rect x="99.0" y="2.0" width="18.0" height="2.0" fill="#2f3fbf"/><rect x="120.0" y="14.0" width="8.0" height="4.0" fill="#000000"/><rect x="123.0" y="11.0" width="2.0" height="10.0" fill="#000000"/><rect x="104.0" y="24.0" width="8.0" height="8.0" fill="#000000"/><rect x="80.0" y="24.0" width="8.0" height="8.0" fill="#2f3fbf"/><rect x="64.0" y="14.0" width="8.0" height="4.0" fill="#000000"/><rect x="67.0" y="11.0" width="2.0" height="10.0" fill="#000000"/><rect x="136.0" y="8.0" width="48.0" height="16.0" fill="#deefbe"/><text x="160.0" y="16.0" fill="#000000" style="font-family: monospace; font-size: 16.0px;" text-anchor="middle" dominant-baseline="central">BEEFDE</text><rect x="146.0" y="0.0" width="4.0" height="8.0" fill="#ff3f2f"/><rect x="139.0" y="2.0" width="18.0" height="2.0" fill="#ff3f2f"/><rect x="170.0" y="0.0" width="4.0" height="8.0" fill="#2f3fbf"/><rect x="163.0" y="2.0" width="18.0" height="2.0" fill="#2f3fbf"/><polygon points="184.0,8.0 184.0,16.0 192.0,16.0" fill="#ff3f2f"/><polygon points="184.0,16.0 192.0,16.0 192.0,24.0" fill="#ff3f2f"/><polygon points="160.0,24.0 160.0,32.0 168.0,32.0" fill="#000000"/><rect x="168.0" y="24.0" width="8.0" height="8.0" fill="#000000"/><polygon points="176.0,24.0 184.0,24.0 184.0,32.0" fill="#000000"/><polygon points="136.0,24.0 144.0,24.0 136.0,32.0" fill="#ffffff"/><polygon points="152.0,32.0 160.0,24.0 160.0,32.0" fill="#ffffff"/><rect x="128.0" y="12.0" width="8.0" height="8.0" fill="#ff3f2f"/><rect x="200.0" y="8.0" width="48.0" height="16.0" fill="#efbead"/><text x="224.0" y="16.0" fill="#000000" style="font-family: monospace; font-size: 16.0px;" text-anchor="middle" dominant-baseline="central">ADBEEF</text><polygon points="200.0,8.0 208.0,0.0 208.0,8.0" fill="#ff3f2f"/><polygon points="216.0,0.0 224.0,0.0 216.0,8.0" fill="#ff3f2f"/><rect x="234.0" y="0.0" width="4.0" height="8.0" fill="#ffffff"/><rect x="227.0" y="2.0" width="18.0" height="2.0" fill="#ffffff"/><polygon points="248.0,16.0 256.0,8.0 256.0,16.0" fill="#ff3f2f"/><polygon points="248.0,16.0 256.0,16.0 248.0,24.0" fill="#ff3f2f"/><polygon points="224.0,24.0 224.0,32.0 232.0,32.0" fill="#ff3f2f"/><rect x="232.0" y="24.0" width="8.0" height="8.0" fill="#ff3f2f"/><polygon points="240.0,24.0 248.0,24.0 248.0,32.0" fill="#ff3f2f"/><polygon points="200.0,24.0 208.0,24.0 200.0,32.0" fill="#ffffff"/><polygon points="216.0,32.0 224.0,24.0 224.0,32.0" fill="#ffffff"/><rect x="192.0" y="14.0" width="8.0" height="4.0" fill="#ffffff"/><rect x="195.0" y="11.0" width="2.0" height="10.0" fill="#ffffff"/><rect x="8.0" y="40.0" width="48.0" height="16.0" fill="#beadde"/><text x="32.0" y="48.0" fill="#ffffff" style="font-family: monospace; font-size: 16.0px;" text-anchor="middle" dominant-baseline="central">DEADBE</text><rect x="16.0" y="32.0" width="8.0" height="8.0" fill="#ff3f2f"/><rect x="40.0" y="32.0" width="8.0" height="8.0" fill="#000000"/><polygon points="56.0,48.0 64.0,40.0 64.0,48.0" fill="#2f3fbf"/><polygon points="56.0,48.0 64.0,48.0 56.0,56.0" fill="#2f3fbf"/><rect x="40.0" y="56.0" width="8.0" height="8.0" fill="#ffffff"/><polygon points="8.0,56.0 8.0,64.0 16.0,64.0" fill="#ff3f2f"/><rect x="16.0" y="56.0" width="8.0" height="8.0" fill="#ff3f2f"/><polygon points="24.0,56.0 32.0,56.0 32.0,64.0" fill="#ff3f2f"/><rect x="0.0" y="46.0" width="8.0" height="4.0" fill="#2f3fbf"/><rect x="3.0" y="43.0" width="2.0" height="10.0" fill="#2f3fbf"/><rect x="72.0" y="40.0" width="48.0" height="16.0" fill="#addeef"/><text x="96.0" y="48.0" fill="#000000" style="font-family: monospace; font-size: 16.0px;" text-anchor="middle" dominant-baseline="central">EFDEAD</text><rect x="80.0" y="32.0" width="8.0" height="8.0" fill="#000000"/><rect x="106.0" y="32.0" width="4.0" height="8.0" fill="#ff3f2f"/><rect x="99.0" y="34.0" width="18.0" height="2.0" fill="#ff3f2f"/><rect x="120.0" y="46.0" width="8.0" height="4.0" fill="#ffffff"/><rect x="123.0" y="43.0" width="2.0" height="10.0" fill="#ffffff"/><polygon points="96.0,56.0 96.0,64.0 104.0,64.0" fill="#000000"/><rect x="104.0" y="56.0" width="8.0" height="8.0" fill="#000000"/><polygon points="112.0,56.0 120.0,56.0 120.0,64.0" fill="#000000"/><polygon points="72.0,56.0 72.0,64.0 80.0,64.0" fill="#ff3f2f"/><rect x="80.0" y="56.0" width="8.0" height="8.0" fill="#ff3f2f"/><polygon points="88.0,56.0 96.0,56.0 96.0,64.0" fill="#ff3f2f"/><rect x="64.0" y="44.0" width="8.0" height="8.0" fill="#000000"/><rect x="136.0" y="40.0" width="48.0" height="16.0" fill="#deefbe"/><text x="160.0" y="48.0" fill="#000000" style="font-family: monospace; font-size: 16.0px;" text-anchor="middle" dominant-baseline="central">BEEFDE</text><rect x="146.0" y="32.0" width="4.0" height="8.0" fill="#ffffff"/><rect x="139.0" y="34.0" width="18.0" height="2.0" fill="#ffffff"/><rect x="170.0" y="32.0" width="4.0" height="8.0" fill="#ffffff"/><rect x="163.0" y="34.0" width="18.0" height="2.0" fill="#ffffff"/><polygon points="184.0,48.0 192.0,40.0 192.0,48.0" fill="#ff3f2f"/><polygon points="184.0,48.0 192.0,48.0 184.0,56.0" fill="#ff3f2f"/><rect x="168.0" y="56.0" width="8.0" height="8.0" fill="#000000"/><rect x="144.0" y="56.0" width="8.0" height="8.0" fill="#000000"/><rect x="128.0" y="44.0" width="8.0" height="8.0" fill="#ffffff"/><rect x="200.0" y="40.0" width="48.0" height="16.0" fill="#efbead"/><text x="224.0" y="48.0" fill="#000000" style="font-family: monospace; font-size: 16.0px;" text-anchor="middle" dominant-baseline="central">ADBEEF</text><rect x="210.0" y="32.0" width="4.0" height="8.0" fill="#000000"/><rect x="203.0" y="34.0" width="18.0" height="2.0" fill="#000000"/><rect x="234.0" y="32.0" width="4.0" height="8.0" fill="#ff3f2f"/><rect x="227.0" y="34.0" width="18.0" height="2.0" fill="#ff3f2f"/><rect x="248.0" y="46.0" width="8.0" height="4.0" fill="#ffffff"/><rect x="251.0" y="43.0" width="2.0" height="10.0" fill="#ffffff"/><rect x="234.0" y="56.0" width="4.0" height="8.0" fill="#ff3f2f"/><rect x="227.0" y="60.0" width="18.0" height="2.0" fill="#ff3f2f"/><polygon points="200.0,56.0 200.0,64.0 208.0,64.0" fill="#ff3f2f"/><rect x="208.0" y="56.0" width="8.0" height="8.0" fill="#ff3f2f"/><polygon points="216.0,56.0 224.0,56.0 224.0,64.0" fill="#ff3f2f"/><polygon points="192.0,40.0 200.0,40.0 200.0,48.0" fill="#2f3fbf"/><polygon points="192.0,48.0 192.0,56.0 200.0,56.0" fill="#2f3fbf"/><rect x="8.0" y="72.0" width="48.0" height="16.0" fill="#beadde"/><text x="32.0" y="80.0" fill="#ffffff" style="font-family: monospace; font-size: 16.0px;" text-anchor="middle" dominant-baseline="central">DEADBE</text><polygon points="8.0,72.0 16.0,64.0 16.0,72.0" fill="#ff3f2f"/><polygon points="24.0,64.0 32.0,64.0 24.0,72.0" fill="#ff3f2f"/><rect x="42.0" y="64.0" width="4.0" height="8.0" fill="#000000"/><rect x="35.0" y="66.0" width="18.0" height="2.0" fill="#000000"/><rect x="56.0" y="78.0" width="8.0" height="4.0" fill="#ff3f2f"/><rect x="59.0" y="75.0" width="2.0" height="10.0" fill="#ff3f2f"/><polygon points="32.0,88.0 32.0,96.0 40.0,96.0" fill="#2f3fbf"/><rect x="40.0" y="88.0" width="8.0" height="8.0" fill="#2f3fbf"/><polygon points="48.0,88.0 56.0,88.0 56.0,96.0" fill="#2f3fbf"/><polygon points="8.0,88.0 16.0,88.0 8.0,96.0" fill="#000000"/><polygon points="24.0,96.0 32.0,88.0 32.0,96.0" fill="#000000"/><rect x="0.0" y="78.0" width="8.0" height="4.0" fill="#2f3fbf"/><rect x="3.0" y="75.0" width="2.0" height="10.0" fill="#2f3fbf"/><rect x="72.0" y="72.0" width="48.0" height="16.0" fill="#addeef"/><text x="96.0" y="80.0" fill="#000000" style="font-family: monospace; font-size: 16.0px;" text-anchor="middle" dominant-baseline="central">EFDEAD</text><polygon points="72.0,64.0 80.0,64.0 80.0,72.0" fill="#ffffff"/><rect x="80.0" y="64.0" width="8.0" height="8.0" fill="#ffffff"/><polygon points="88.0,64.0 88.0,72.0 96.0,72.0" fill="#ffffff"/><polygon points="96.0,64.0 104.0,64.0 104.0,72.0" fill="#ffffff"/><rect x="104.0" y="64.0" width="8.0" height="8.0" fill="#ffffff"/><polygon points="112.0,64.0 112.0,72.0 120.0,72.0" fill="#ffffff"/><rect x="120.0" y="76.0" width="8.0" height="8.0" fill="#ffffff"/><polygon points="96.0,88.0 104.0,88.0 96.0,96.0" fill="#ffffff"/><polygon points="112.0,96.0 120.0,88.0 120.0,96.0" fill="#ffffff"/><rect x="80.0" y="88.0" width="8.0" height="8.0" fill="#ffffff"/><polygon points="64.0,72.0 72.0,72.0 72.0,80.0" fill="#ff3f2f"/><polygon points="64.0,80.0 64.0,88.0 72.0,88.0" fill="#ff3f2f"/><rect x="136.0" y="72.0" width="48.0" height="16.0" fill="#deefbe"/><text x="160.0" y="80.0" fill="#000000" style="font-family: monospace; font-size: 16.0px;" text-anchor="middle" dominant-baseline="central">BEEFDE</text><polygon points="136.0,64.0 144.0,64.0 144.0,72.0" fill="#000000"/><rect x="144.0" y="64.0" width="8.0" height="8.0" fill="#000000"/><polygon points="152.0,64.0 152.0,72.0 160.0,72.0" fill="#000000"/><rect x="168.0" y="64.0" width="8.0" height="8.0" fill="#2f3fbf"/><rect x="184.0" y="76.0" width="8.0" height="8.0" fill="#ff3f2f"/><rect x="168.0" y="88.0" width="8.0" height="8.0" fill="#2f3fbf"/><rect x="146.0" y="88.0" width="4.0" height="8.0" fill="#000000"/><rect x="139.0" y="92.0" width="18.0" height="2.0" fill="#000000"/><rect x="128.0" y="78.0" width="8.0" height="4.0" fill="#2f3fbf"/><rect x="131.0" y="75.0" width="2.0" height="10.0" fill="#2f3fbf"/><rect x="200.0" y="72.0" width="48.0" height="16.0" fill="#efbead"/><text x="224.0" y="80.0" fill="#000000" style="font-family: monospace; font-size: 16.0px;" text-anchor="middle" dominant-baseline="central">ADBEEF</text><rect x="210.0" y="64.0" width="4.0" height="8.0" fill="#000000"/><rect x="203.0" y="66.0" width="18.0" height="2.0" fill="#000000"/><rect x="232.0" y="64.0" width="8.0" height="8.0" fill="#2f3fbf"/><polygon points="248.0,80.0 256.0,72.0 256.0,80.0" fill="#ffffff"/><polygon points="248.0,80.0 256.0,80.0 248.0,88.0" fill="#ffffff"/><rect x="234.0" y="88.0" width="4.0" height="8.0" fill="#2f3fbf"/><rect x="227.0" y="92.0" width="18.0" height="2.0" fill="#2f3fbf"/><polygon points="200.0,88.0 200.0,96.0 208.0,96.0" fill="#ffffff"/><rect x="208.0" y="88.0" width="8.0" height="8.0" fill="#ffffff"/><polygon points="216.0,88.0 224.0,88.0 224.0,96.0" fill="#ffffff"/><polygon points="192.0,72.0 200.0,72.0 192.0,80.0" fill="#000000"/><polygon points="192.0,88.0 200.0,80.0 200.0,88.0" fill="#000000"/><rect x="8.0" y="104.0" width="48.0" height="16.0" fill="#beadde"/><text x="32.0" y="112.0" fill="#ffffff" style="font-family: monospace; font-size: 16.0px;" text-anchor="middle" dominant-baseline="central">DEADBE</text><rect x="18.0" y="96.0" width="4.0" height="8.0" fill="#000000"/><rect x="11.0" y="98.0" width="18.0" height="2.0" fill="#000000"/><rect x="42.0" y="96.0" width="4.0" height="8.0" fill="#ff3f2f"/><rect x="35.0" y="98.0" width="18.0" height="2.0" fill="#ff3f2f"/><rect x="56.0" y="108.0" width="8.0" height="8.0" fill="#000000"/><rect x="40.0" y="120.0" width="8.0" height="8.0" fill="#ffffff"/><rect x="18.0" y="120.0" width="4.0" height="8.0" fill="#000000"/><rect x="11.0" y="124.0" width="18.0" height="2.0" fill="#000000"/><polygon points="0.0,104.0 8.0,104.0 0.0,112.0" fill="#ff3f2f"/><polygon points="0.0,120.0 8.0,112.0 8.0,120.0" fill="#ff3f2f"/><rect x="72.0" y="104.0" width="48.0" height="16.0" fill="#addeef"/><text x="96.0" y="112.0" fill="#000000" style="font-family: monospace; font-size: 16.0px;" text-anchor="middle" dominant-baseline="central">EFDEAD</text><polygon points="72.0,104.0 80.0,96.0 80.0,104.0" fill="#2f3fbf"/><polygon points="88.0,96.0 96.0,96.0 88.0,104.0" fill="#2f3fbf"/><polygon points="96.0,104.0 104.0,96.0 104.0,104.0" fill="#2f3fbf"/><polygon points="112.0,96.0 120.0,96.0 112.0,104.0" fill="#2f3fbf"/><polygon points="120.0,104.0 120.0,112.0 128.0,112.0" fill="#2f3fbf"/><polygon points="120.0,112.0 128.0,112.0 128.0,120.0" fill="#2f3fbf"/><polygon points="96.0,120.0 96.0,128.0 104.0,128.0" fill="#ffffff"/><rect x="104.0" y="120.0" width="8.0" height="8.0" fill="#ffffff"/><polygon points="112.0,120.0 120.0,120.0 120.0,128.0" fill="#ffffff"/><rect x="82.0" y="120.0" width="4.0" height="8.0" fill="#2f3fbf"/><rect x="75.0" y="124.0" width="18.0" height="2.0" fill="#2f3fbf"/><polygon points="64.0,104.0 72.0,104.0 72.0,112.0" fill="#ff3f2f"/><polygon points="64.0,112.0 64.0,120.0 72.0,120.0" fill="#ff3f2f"/><rect x="200.0" y="104.0" width="48.0" height="16.0" fill="#deefbe"/><text x="224.0" y="112.0" fill="#000000" style="font-family: monospace; font-size: 16.0px;" text-anchor="middle" dominant-baseline="central">BEEFDE</text><rect x="208.0" y="96.0" width="8.0" height="8.0" fill="#000000"/><rect x="234.0" y="96.0" width="4.0" height="8.0" fill="#ffffff"/><rect x="227.0" y="98.0" width="18.0" height="2.0" fill="#ffffff"/><rect x="248.0" y="110.0" width="8.0" height="4.0" fill="#2f3fbf"/><rect x="251.0" y="107.0" width="2.0" height="10.0" fill="#2f3fbf"/><rect x="232.0" y="120.0" width="8.0" height="8.0" fill="#2f3fbf"/><rect x="210.0" y="120.0" width="4.0" height="8.0" fill="#2f3fbf"/><rect x="203.0" y="124.0" width="18.0" height="2.0" fill="#2f3fbf"/><rect x="192.0" y="110.0" width="8.0" height="4.0" fill="#ff3f2f"/><rect x="195.0" y="107.0" width="2.0" height="10.0" fill="#ff3f2f"/><rect x="8.0" y="136.0" width="48.0" height="16.0" fill="#efbead"/><text x="32.0" y="144.0" fill="#000000" style="font-family: monospace; font-size: 16.0px;" text-anchor="middle" dominant-baseline="central">ADBEEF</text><polygon points="8.0,128.0 16.0,128.0 16.0,136.0" fill="#ffffff"/><rect x="16.0" y="128.0" width="8.0" height="8.0" fill="#ffffff"/><polygon points="24.0,128.0 24.0,136.0 32.0,136.0" fill="#ffffff"/><rect x="40.0" y="128.0" width="8.0" height="8.0" fill="#ffffff"/><rect x="56.0" y="142.0" width="8.0" height="4.0" fill="#000000"/><rect x="59.0" y="139.0" width="2.0" height="10.0" fill="#000000"/><rect x="40.0" y="152.0" width="8.0" height="8.0" fill="#000000"/><rect x="18.0" y="152.0" width="4.0" height="8.0" fill="#ff3f2f"/><rect x="11.0" y="156.0" width="18.0" height="2.0" fill="#ff3f2f"/><polygon points="0.0,136.0 8.0,136.0 8.0,144.0" fill="#ff3f2f"/><polygon points="0.0,144.0 0.0,152.0 8.0,152.0" fill="#ff3f2f"/><rect x="72.0" y="136.0" width="48.0" height="16.0" fill="#beadde"/><text x="96.0" y="144.0" fill="#ffffff" style="font-family: monospace; font-size: 16.0px;" text-anchor="middle" dominant-baseline="central">DEADBE</text><rect x="82.0" y="128.0" width="4.0" height="8.0" fill="#000000"/><rect x="75.0" y="130.0" width="18.0" height="2.0" fill="#000000"/><polygon points="96.0,128.0 104.0,128.0 104.0,136.0" fill="#ff3f2f"/><rect x="104.0" y="128.0" width="8.0" height="8.0" fill="#ff3f2f"/><polygon points="112.0,128.0 112.0,136.0 120.0,136.0" fill="#ff3f2f"/><rect x="120.0" y="142.0" width="8.0" height="4.0" fill="#ffffff"/><rect x="123.0" y="139.0" width="2.0" height="10.0" fill="#ffffff"/><rect x="106.0" y="152.0" width="4.0" height="8.0" fill="#000000"/><rect x="99.0" y="156.0" width="18.0" height="2.0" fill="#000000"/><polygon points="72.0,152.0 72.0,160.0 80.0,160.0" fill="#ff3f2f"/><rect x="80.0" y="152.0" width="8.0" height="8.0" fill="#ff3f2f"/><polygon points="88.0,152.0 96.0,152.0 96.0,160.0" fill="#ff3f2f"/><polygon points="64.0,136.0 72.0,136.0 64.0,144.0" fill="#ffffff"/><polygon points="64.0,152.0 72.0,144.0 72.0,152.0" fill="#ffffff"/><rect x="136.0" y="136.0" width="48.0" height="16.0" fill="#addeef"/><text x="160.0" y="144.0" fill="#000000" style="font-family: monospace; font-size: 16.0px;" text-anchor="middle" dominant-baseline="central">EFDEAD</text><rect x="144.0" y="128.0" width="8.0" height="8.0" fill="#000000"/><rect x="170.0" y="128.0" width="4.0" height="8.0" fill="#ff3f2f"/><rect x="163.0" y="130.0" width="18.0" height="2.0" fill="#ff3f2f"/><polygon points="184.0,136.0 184.0,144.0 192.0,144.0" fill="#ffffff"/><polygon points="184.0,144.0 192.0,144.0 192.0,152.0" fill="#ffffff"/><rect x="168.0" y="152.0" width="8.0" height="8.0" fill="#ff3f2f"/><rect x="146.0" y="152.0" width="4.0" height="8.0" fill="#ffffff"/><rect x="139.0" y="156.0" width="18.0" height="2.0" fill="#ffffff"/><polygon points="128.0,136.0 136.0,136.0 136.0,144.0" fill="#ffffff"/><polygon points="128.0,144.0 128.0,152.0 136.0,152.0" fill="#ffffff"/><rect x="200.0" y="136.0" width="48.0" height="16.0" fill="#deefbe"/><text x="224.0" y="144.0" fill="#000000" style="font-family: monospace; font-size: 16.0px;" text-anchor="middle" dominant-baseline="central">BEEFDE</text><polygon points="200.0,128.0 208.0,128.0 208.0,136.0" fill="#ff3f2f"/><rect x="208.0" y="128.0" width="8.0" height="8.0" fill="#ff3f2f"/><polygon points="216.0,128.0 216.0,136.0 224.0,136.0" fill="#ff3f2f"/><rect x="234.0" y="128.0" width="4.0" height="8.0" fill="#ffffff"/><rect x="227.0" y="130.0" width="18.0" height="2.0" fill="#ffffff"/><polygon points="248.0,144.0 256.0,136.0 256.0,144.0" fill="#000000"/><polygon points="248.0,144.0 256.0,144.0 248.0,152.0" fill="#000000"/><polygon points="224.0,152.0 232.0,152.0 224.0,160.0" fill="#ff3f2f"/><polygon points="240.0,160.0 248.0,152.0 248.0,160.0" fill="#ff3f2f"/><polygon points="200.0,152.0 208.0,152.0 200.0,160.0" fill="#2f3fbf"/><polygon points="216.0,160.0 224.0,152.0 224.0,160.0" fill="#2f3fbf"/><rect x="192.0" y="140.0" width="8.0" height="8.0" fill="#000000"/><rect x="8.0" y="168.0" width="48.0" height="16.0" fill="#efbead"/><text x="32.0" y="176.0" fill="#000000" style="font-family: monospace; font-size: 16.0px;" text-anchor="middle" dominant-baseline="central">ADBEEF</text><rect x="18.0" y="160.0" width="4.0" height="8.0" fill="#2f3fbf"/><rect x="11.0" y="162.0" width="18.0" height="2.0" fill="#2f3fbf"/><polygon points="32.0,160.0 40.0,160.0 40.0,168.0" fill="#000000"/><rect x="40.0" y="160.0" width="8.0" height="8.0" fill="#000000"/><polygon points="48.0,160.0 48.0,168.0 56.0,168.0" fill="#000000"/><polygon points="56.0,176.0 64.0,168.0 64.0,176.0" fill="#ffffff"/><polygon points="56.0,176.0 64.0,176.0 56.0,184.0" fill="#ffffff"/><rect x="42.0" y="184.0" width="4.0" height="8.0" fill="#ffffff"/><rect x="35.0" y="188.0" width="18.0" height="2.0" fill="#ffffff"/><rect x="18.0" y="184.0" width="4.0" height="8.0" fill="#ff3f2f"/><rect x="11.0" y="188.0" width="18.0" height="2.0" fill="#ff3f2f"/><polygon points="0.0,168.0 8.0,168.0 0.0,176.0" fill="#2f3fbf"/><polygon points="0.0,184.0 8.0,176.0 8.0,184.0" fill="#2f3fbf"/><rect x="136.0" y="168.0" width="48.0" height="16.0" fill="#beadde"/><text x="160.0" y="176.0" fill="#ffffff" style="font-family: monospace; font-size: 16.0px;" text-anchor="middle" dominant-baseline="central">DEADBE</text><rect x="146.0" y="160.0" width="4.0" height="8.0" fill="#000000"/><rect x="139.0" y="162.0" width="18.0" height="2.0" fill="#000000"/><rect x="170.0" y="160.0" width="4.0" height="8.0" fill="#000000"/><rect x="163.0" y="162.0" width="18.0" height="2.0" fill="#000000"/><polygon points="184.0,168.0 184.0,176.0 192.0,176.0" fill="#000000"/><polygon points="184.0,176.0 192.0,176.0 192.0,184.0" fill="#000000"/><polygon points="160.0,184.0 160.0,192.0 168.0,192.0" fill="#ffffff"/><rect x="168.0" y="184.0" width="8.0" height="8.0" fill="#ffffff"/><polygon points="176.0,184.0 184.0,184.0 184.0,192.0" fill="#ffffff"/><polygon points="136.0,184.0 144.0,184.0 136.0,192.0" fill="#ffffff"/><polygon points="152.0,192.0 160.0,184.0 160.0,192.0" fill="#ffffff"/><polygon points="128.0,168.0 136.0,168.0 128.0,176.0" fill="#000000"/><polygon points="128.0,184.0 136.0,176.0 136.0,184.0" fill="#000000"/><rect x="200.0" y="168.0" width="48.0" height="16.0" fill="#efefef"/><text x="224.0" y="176.0" fill="#000000" style="font-family: monospace; font-size: 16.0px;" text-anchor="middle" dominant-baseline="central">EF</text><polygon points="200.0,168.0 208.0,160.0 208.0,168.0" fill="#ffffff"/><polygon points="216.0,160.0 224.0,160.0 216.0,168.0" fill="#ffffff"/><polygon points="224.0,168.0 232.0,160.0 232.0,168.0" fill="#000000"/><polygon points="240.0,160.0 248.0,160.0 240.0,168.0" fill="#000000"/><polygon points="248.0,176.0 256.0,168.0 256.0,176.0" fill="#ffffff"/><polygon points="248.0,176.0 256.0,176.0 248.0,184.0" fill="#ffffff"/><polygon points="224.0,184.0 232.0,184.0 224.0,192.0" fill="#000000"/><polygon points="240.0,192.0 248.0,184.0 248.0,192.0" fill="#000000"/><polygon points="200.0,184.0 208.0,184.0 200.0,192.0" fill="#2f3fbf"/><polygon points="216.0,192.0 224.0,184.0 224.0,192.0" fill="#2f3fbf"/><polygon points="192.0,168.0 200.0,168.0 192.0,176.0" fill="#000000"/><polygon points="192.0,184.0 200.0,176.0 200.0,184.0" fill="#000000"/><circle cx="130.0" cy="34.0" r="2.0" fill="#ffffff"/><circle cx="254.0" cy="34.0" r="2.0" fill="#ff3f2f"/><circle cx="126.0" cy="94.0" r="2.0" fill="#2f3fbf"/><circle cx="194.0" cy="94.0" r="2.0" fill="#000000"/></svg>