<svg xmlns="http://www.w3.org/2000/svg" width="785.00" height="490.00" viewBox="0 0 785.00 490.00" font-family="'DejaVu Sans', 'Bitstream Vera Sans', Verdana, sans-serif" data-spec-version="v9" data-generator="scripts/spec_figures.py"><rect x="0.00" y="0.00" width="785.00" height="490.00" fill="#ffffff" stroke="none" stroke-width="1.0"/><text x="40.00" y="36.00" font-family="'DejaVu Sans', 'Bitstream Vera Sans', Verdana, sans-serif" font-size="18px" font-weight="bold" text-anchor="start" fill="#2b2b33">Cell and 24-box surround geometry</text><text x="40.00" y="56.00" font-family="'DejaVu Sans', 'Bitstream Vera Sans', Verdana, sans-serif" font-size="13px" font-weight="normal" text-anchor="start" fill="#5a5f6a">all lengths derive from font_size_px (12 pt @ 96 dpi → 16 px)</text><rect x="205.00" y="130.00" width="39.00" height="65.00" fill="#eef0f3" stroke="#c9cdd4" stroke-width="0.8"/><rect x="205.00" y="325.00" width="39.00" height="65.00" fill="#eef0f3" stroke="#c9cdd4" stroke-width="0.8"/><rect x="244.00" y="130.00" width="39.00" height="65.00" fill="#eef0f3" stroke="#c9cdd4" stroke-width="0.8"/><rect x="244.00" y="325.00" width="39.00" height="65.00" fill="#eef0f3" stroke="#c9cdd4" stroke-width="0.8"/><rect x="283.00" y="130.00" width="39.00" height="65.00" fill="#eef0f3" stroke="#c9cdd4" stroke-width="0.8"/><rect x="283.00" y="325.00" width="39.00" height="65.00" fill="#eef0f3" stroke="#c9cdd4" stroke-width="0.8"/><rect x="322.00" y="130.00" width="39.00" height="65.00" fill="#eef0f3" stroke="#c9cdd4" stroke-width="0.8"/><rect x="322.00" y="325.00" width="39.00" height="65.00" fill="#eef0f3" stroke="#c9cdd4" stroke-width="0.8"/><rect x="361.00" y="130.00" width="39.00" height="65.00" fill="#eef0f3" stroke="#c9cdd4" stroke-width="0.8"/><rect x="361.00" y="325.00" width="39.00" height="65.00" fill="#eef0f3" stroke="#c9cdd4" stroke-width="0.8"/><rect x="400.00" y="130.00" width="39.00" height="65.00" fill="#eef0f3" stroke="#c9cdd4" stroke-width="0.8"/><rect x="400.00" y="325.00" width="39.00" height="65.00" fill="#eef0f3" stroke="#c9cdd4" stroke-width="0.8"/><rect x="439.00" y="130.00" width="39.00" height="65.00" fill="#eef0f3" stroke="#c9cdd4" stroke-width="0.8"/><rect x="439.00" y="325.00" width="39.00" height="65.00" fill="#eef0f3" stroke="#c9cdd4" stroke-width="0.8"/><rect x="478.00" y="130.00" width="39.00" height="65.00" fill="#eef0f3" stroke="#c9cdd4" stroke-width="0.8"/><rect x="478.00" y="325.00" width="39.00" height="65.00" fill="#eef0f3" stroke="#c9cdd4" stroke-width="0.8"/><rect x="517.00" y="130.00" width="39.00" height="65.00" fill="#eef0f3" stroke="#c9cdd4" stroke-width="0.8"/><rect x="517.00" y="325.00" width="39.00" height="65.00" fill="#eef0f3" stroke="#c9cdd4" stroke-width="0.8"/><rect x="556.00" y="130.00" width="39.00" height="65.00" fill="#eef0f3" stroke="#c9cdd4" stroke-width="0.8"/><rect x="556.00" y="325.00" width="39.00" height="65.00" fill="#eef0f3" stroke="#c9cdd4" stroke-width="0.8"/><rect x="205.00" y="195.00" width="39.00" height="65.00" fill="#eef0f3" stroke="#c9cdd4" stroke-width="0.8"/><rect x="556.00" y="195.00" width="39.00" height="65.00" fill="#eef0f3" stroke="#c9cdd4" stroke-width="0.8"/><rect x="205.00" y="260.00" width="39.00" height="65.00" fill="#eef0f3" stroke="#c9cdd4" stroke-width="0.8"/><rect x="556.00" y="260.00" width="39.00" height="65.00" fill="#eef0f3" stroke="#c9cdd4" stroke-width="0.8"/><rect x="244.00" y="195.00" width="312.00" height="130.00" fill="#cdeacd" stroke="#7bbf7b" stroke-width="1"/><text x="400.00" y="266.00" font-family="'DejaVu Sans', 'Bitstream Vera Sans', Verdana, sans-serif" font-size="15px" font-weight="normal" text-anchor="middle" fill="#2b2b33">nucleus</text><text x="400.00" y="167.50" font-family="'DejaVu Sans', 'Bitstream Vera Sans', Verdana, sans-serif" font-size="13px" font-weight="normal" text-anchor="middle" fill="#5a5f6a">surround box ×24</text><line x1="205.00" y1="118.30" x2="595.00" y2="118.30" stroke="#5a5f6a" stroke-width="1.0"/><line x1="205.00" y1="114.30" x2="205.00" y2="122.30" stroke="#5a5f6a" stroke-width="1.0"/><line x1="595.00" y1="114.30" x2="595.00" y2="122.30" stroke="#5a5f6a" stroke-width="1.0"/><text x="400.00" y="112.30" font-family="'DejaVu Sans', 'Bitstream Vera Sans', Verdana, sans-serif" font-size="13px" font-weight="normal" text-anchor="middle" fill="#5a5f6a">cell width = 3.75·fs = 60</text><line x1="244.00" y1="401.70" x2="556.00" y2="401.70" stroke="#5a5f6a" stroke-width="1.0"/><line x1="244.00" y1="397.70" x2="244.00" y2="405.70" stroke="#5a5f6a" stroke-width="1.0"/><line x1="556.00" y1="397.70" x2="556.00" y2="405.70" stroke="#5a5f6a" stroke-width="1.0"/><text x="400.00" y="420.70" font-family="'DejaVu Sans', 'Bitstream Vera Sans', Verdana, sans-serif" font-size="13px" font-weight="normal" text-anchor="middle" fill="#5a5f6a">nucleus width = 3·fs = 48</text><line x1="606.70" y1="130.00" x2="606.70" y2="390.00" stroke="#5a5f6a" stroke-width="1.0"/><line x1="602.70" y1="130.00" x2="610.70" y2="130.00" stroke="#5a5f6a" stroke-width="1.0"/><line x1="602.70" y1="390.00" x2="610.70" y2="390.00" stroke="#5a5f6a" stroke-width="1.0"/><text x="614.70" y="264.00" font-family="'DejaVu Sans', 'Bitstream Vera Sans', Verdana, sans-serif" font-size="13px" font-weight="normal" text-anchor="start" fill="#5a5f6a">cell height = 2.5·fs = 40</text><line x1="193.30" y1="195.00" x2="193.30" y2="325.00" stroke="#5a5f6a" stroke-width="1.0"/><line x1="189.30" y1="195.00" x2="197.30" y2="195.00" stroke="#5a5f6a" stroke-width="1.0"/><line x1="189.30" y1="325.00" x2="197.30" y2="325.00" stroke="#5a5f6a" stroke-width="1.0"/><text x="185.30" y="264.00" font-family="'DejaVu Sans', 'Bitstream Vera Sans', Verdana, sans-serif" font-size="13px" font-weight="normal" text-anchor="end" fill="#5a5f6a">nucleus h = 1.25·fs = 20</text><text x="665.00" y="420.00" font-family="'DejaVu Sans', 'Bitstream Vera Sans', Verdana, sans-serif" font-size="13px" font-weight="normal" text-anchor="middle" fill="#5a5f6a">box = 6×10  (0.375·fs × 0.625·fs)</text></svg>
