<svg xmlns="http://www.w3.org/2000/svg" width="880.00" height="510.00" viewBox="0 0 880.00 510.00" font-family="'DejaVu Sans', 'Bitstream Vera Sans', Verdana, sans-serif" data-spec-version="v7" data-generator="scripts/spec_figures.py"><rect x="0.00" y="0.00" width="880.00" height="510.00" fill="#ffffff" stroke="none" stroke-width="1.0"/><text x="40.00" y="36.00" font-family="'DejaVu Sans', 'Bitstream Vera Sans', Verdana, sans-serif" font-size="16px" font-weight="bold" text-anchor="start" fill="#2b2b33">Cell and 24-box surround geometry</text><text x="40.00" y="56.00" font-family="'DejaVu Sans', 'Bitstream Vera Sans', Verdana, sans-serif" font-size="12px" font-weight="normal" text-anchor="start" fill="#5a5f6a">all lengths derive from font_size_px (12 pt @ 96 dpi → 16 px)</text><rect x="210.00" y="130.00" width="42.00" height="70.00" fill="#eef0f3" stroke="#c9cdd4" stroke-width="0.8"/><rect x="210.00" y="340.00" width="42.00" height="70.00" fill="#eef0f3" stroke="#c9cdd4" stroke-width="0.8"/><rect x="252.00" y="130.00" width="42.00" height="70.00" fill="#eef0f3" stroke="#c9cdd4" stroke-width="0.8"/><rect x="252.00" y="340.00" width="42.00" height="70.00" fill="#eef0f3" stroke="#c9cdd4" stroke-width="0.8"/><rect x="294.00" y="130.00" width="42.00" height="70.00" fill="#eef0f3" stroke="#c9cdd4" stroke-width="0.8"/><rect x="294.00" y="340.00" width="42.00" height="70.00" fill="#eef0f3" stroke="#c9cdd4" stroke-width="0.8"/><rect x="336.00" y="130.00" width="42.00" height="70.00" fill="#eef0f3" stroke="#c9cdd4" stroke-width="0.8"/><rect x="336.00" y="340.00" width="42.00" height="70.00" fill="#eef0f3" stroke="#c9cdd4" stroke-width="0.8"/><rect x="378.00" y="130.00" width="42.00" height="70.00" fill="#eef0f3" stroke="#c9cdd4" stroke-width="0.8"/><rect x="378.00" y="340.00" width="42.00" height="70.00" fill="#eef0f3" stroke="#c9cdd4" stroke-width="0.8"/><rect x="420.00" y="130.00" width="42.00" height="70.00" fill="#eef0f3" stroke="#c9cdd4" stroke-width="0.8"/><rect x="420.00" y="340.00" width="42.00" height="70.00" fill="#eef0f3" stroke="#c9cdd4" stroke-width="0.8"/><rect x="462.00" y="130.00" width="42.00" height="70.00" fill="#eef0f3" stroke="#c9cdd4" stroke-width="0.8"/><rect x="462.00" y="340.00" width="42.00" height="70.00" fill="#eef0f3" stroke="#c9cdd4" stroke-width="0.8"/><rect x="504.00" y="130.00" width="42.00" height="70.00" fill="#eef0f3" stroke="#c9cdd4" stroke-width="0.8"/><rect x="504.00" y="340.00" width="42.00" height="70.00" fill="#eef0f3" stroke="#c9cdd4" stroke-width="0.8"/><rect x="546.00" y="130.00" width="42.00" height="70.00" fill="#eef0f3" stroke="#c9cdd4" stroke-width="0.8"/><rect x="546.00" y="340.00" width="42.00" height="70.00" fill="#eef0f3" stroke="#c9cdd4" stroke-width="0.8"/><rect x="588.00" y="130.00" width="42.00" height="70.00" fill="#eef0f3" stroke="#c9cdd4" stroke-width="0.8"/><rect x="588.00" y="340.00" width="42.00" height="70.00" fill="#eef0f3" stroke="#c9cdd4" stroke-width="0.8"/><rect x="210.00" y="200.00" width="42.00" height="70.00" fill="#eef0f3" stroke="#c9cdd4" stroke-width="0.8"/><rect x="588.00" y="200.00" width="42.00" height="70.00" fill="#eef0f3" stroke="#c9cdd4" stroke-width="0.8"/><rect x="210.00" y="270.00" width="42.00" height="70.00" fill="#eef0f3" stroke="#c9cdd4" stroke-width="0.8"/><rect x="588.00" y="270.00" width="42.00" height="70.00" fill="#eef0f3" stroke="#c9cdd4" stroke-width="0.8"/><rect x="252.00" y="200.00" width="336.00" height="140.00" fill="#cdeacd" stroke="#7bbf7b" stroke-width="1"/><text x="420.00" y="276.00" font-family="'DejaVu Sans', 'Bitstream Vera Sans', Verdana, sans-serif" font-size="13px" font-weight="normal" text-anchor="middle" fill="#2b2b33">nucleus</text><text x="420.00" y="170.00" font-family="'DejaVu Sans', 'Bitstream Vera Sans', Verdana, sans-serif" font-size="12px" font-weight="normal" text-anchor="middle" fill="#5a5f6a">surround box ×24</text><line x1="210.00" y1="117.40" x2="630.00" y2="117.40" stroke="#5a5f6a" stroke-width="1.0"/><line x1="210.00" y1="113.40" x2="210.00" y2="121.40" stroke="#5a5f6a" stroke-width="1.0"/><line x1="630.00" y1="113.40" x2="630.00" y2="121.40" stroke="#5a5f6a" stroke-width="1.0"/><text x="420.00" y="111.40" font-family="'DejaVu Sans', 'Bitstream Vera Sans', Verdana, sans-serif" font-size="12px" font-weight="normal" text-anchor="middle" fill="#5a5f6a">cell width = 3.75·fs = 60</text><line x1="252.00" y1="422.60" x2="588.00" y2="422.60" stroke="#5a5f6a" stroke-width="1.0"/><line x1="252.00" y1="418.60" x2="252.00" y2="426.60" stroke="#5a5f6a" stroke-width="1.0"/><line x1="588.00" y1="418.60" x2="588.00" y2="426.60" stroke="#5a5f6a" stroke-width="1.0"/><text x="420.00" y="440.60" font-family="'DejaVu Sans', 'Bitstream Vera Sans', Verdana, sans-serif" font-size="12px" font-weight="normal" text-anchor="middle" fill="#5a5f6a">nucleus width = 3·fs = 48</text><line x1="642.60" y1="130.00" x2="642.60" y2="410.00" stroke="#5a5f6a" stroke-width="1.0"/><line x1="638.60" y1="130.00" x2="646.60" y2="130.00" stroke="#5a5f6a" stroke-width="1.0"/><line x1="638.60" y1="410.00" x2="646.60" y2="410.00" stroke="#5a5f6a" stroke-width="1.0"/><text x="650.60" y="274.00" font-family="'DejaVu Sans', 'Bitstream Vera Sans', Verdana, sans-serif" font-size="12px" font-weight="normal" text-anchor="start" fill="#5a5f6a">cell height = 2.5·fs = 40</text><line x1="197.40" y1="200.00" x2="197.40" y2="340.00" stroke="#5a5f6a" stroke-width="1.0"/><line x1="193.40" y1="200.00" x2="201.40" y2="200.00" stroke="#5a5f6a" stroke-width="1.0"/><line x1="193.40" y1="340.00" x2="201.40" y2="340.00" stroke="#5a5f6a" stroke-width="1.0"/><text x="189.40" y="274.00" font-family="'DejaVu Sans', 'Bitstream Vera Sans', Verdana, sans-serif" font-size="12px" font-weight="normal" text-anchor="end" fill="#5a5f6a">nucleus h = 1.25·fs = 20</text><text x="700.00" y="440.00" font-family="'DejaVu Sans', 'Bitstream Vera Sans', Verdana, sans-serif" font-size="12px" font-weight="normal" text-anchor="middle" fill="#5a5f6a">box = 6×10  (0.375·fs × 0.625·fs)</text></svg>
