<svg xmlns="http://www.w3.org/2000/svg" width="760.00" height="320.00" viewBox="0 0 760.00 320.00" font-family="'DejaVu Sans', 'Bitstream Vera Sans', Verdana, sans-serif" data-spec-version="v10" data-generator="scripts/spec_figures.py"><rect x="0.00" y="0.00" width="760.00" height="320.00" fill="#ffffff" stroke="none" stroke-width="1.0"/><svg x="40.00" y="50.00" width="300.00" height="219.61" viewBox="0.000 0.000 153.000 112.000"><defs xmlns="http://www.w3.org/2000/svg"><clipPath id="grid-clip-b2befddfcc66b255-2x2"><rect x="27" y="26" width="120" height="80"/></clipPath></defs><rect xmlns="http://www.w3.org/2000/svg" x="0" y="0" width="153" height="112" fill="#ffffff"/><g xmlns="http://www.w3.org/2000/svg" data-channel="grid"><rect x="27" y="26" width="120" height="80" fill="#ffffff"/><g><rect x="27" y="26" width="6" height="10" fill="#ff3f2f"/><rect x="39" y="26" width="6" height="10" fill="#ff3f2f"/><rect x="45" y="26" width="6" height="10" fill="#ff3f2f"/><rect x="51" y="26" width="6" height="10" fill="#ff3f2f"/><rect x="57" y="26" width="6" height="10" fill="#ff3f2f"/><rect x="63" y="26" width="6" height="10" fill="#ff3f2f"/><rect x="69" y="26" width="6" height="10" fill="#ff3f2f"/><rect x="81" y="26" width="6" height="10" fill="#ff3f2f"/><rect x="81" y="36" width="6" height="10" fill="#ff3f2f"/><rect x="81" y="46" width="6" height="10" fill="#ff3f2f"/><rect x="81" y="56" width="6" height="10" fill="#ff3f2f"/><rect x="75" y="56" width="6" height="10" fill="#ff3f2f"/><rect x="63" y="56" width="6" height="10" fill="#ff3f2f"/><rect x="51" y="56" width="6" height="10" fill="#ff3f2f"/><rect x="33" y="56" width="6" height="10" fill="#ff3f2f"/><rect x="27" y="56" width="6" height="10" fill="#ff3f2f"/><rect x="27" y="36" width="6" height="10" fill="#ff3f2f"/><rect x="93" y="26" width="6" height="10" fill="#2f3fbf"/><rect x="99" y="26" width="6" height="10" fill="#2f3fbf"/><rect x="117" y="26" width="6" height="10" fill="#2f3fbf"/><rect x="123" y="26" width="6" height="10" fill="#2f3fbf"/><rect x="141" y="36" width="6" height="10" fill="#2f3fbf"/><rect x="141" y="46" width="6" height="10" fill="#2f3fbf"/><rect x="129" y="56" width="6" height="10" fill="#2f3fbf"/><rect x="123" y="56" width="6" height="10" fill="#2f3fbf"/><rect x="117" y="56" width="6" height="10" fill="#2f3fbf"/><rect x="111" y="56" width="6" height="10" fill="#2f3fbf"/><rect x="105" y="56" width="6" height="10" fill="#2f3fbf"/><rect x="99" y="56" width="6" height="10" fill="#2f3fbf"/><rect x="93" y="56" width="6" height="10" fill="#2f3fbf"/><rect x="87" y="46" width="6" height="10" fill="#2f3fbf"/><rect x="87" y="36" width="6" height="10" fill="#2f3fbf"/><rect x="111" y="66" width="6" height="10" fill="#e7be00"/><rect x="117" y="66" width="6" height="10" fill="#e7be00"/><rect x="123" y="66" width="6" height="10" fill="#e7be00"/><rect x="135" y="66" width="6" height="10" fill="#e7be00"/><rect x="141" y="76" width="6" height="10" fill="#e7be00"/><rect x="141" y="96" width="6" height="10" fill="#e7be00"/><rect x="129" y="96" width="6" height="10" fill="#e7be00"/><rect x="111" y="96" width="6" height="10" fill="#e7be00"/><rect x="93" y="96" width="6" height="10" fill="#e7be00"/><rect x="87" y="96" width="6" height="10" fill="#e7be00"/><rect x="87" y="76" width="6" height="10" fill="#e7be00"/></g><g clip-path="url(#grid-clip-b2befddfcc66b255-2x2)" data-channel="ellipse" data-ellipse-anchor-x="147" data-ellipse-anchor-y="66" data-ellipse-rx="30.864" data-ellipse-ry="58.186" data-ellipse-rotation-deg="96"><ellipse cx="147" cy="66" rx="30.864" ry="58.186" transform="rotate(96 147 66)" fill="#000000" stroke="#000000" fill-opacity="0.2" stroke-opacity="0.3" stroke-width="2"/></g><g><g data-channel="cell" data-cell-index="0" data-cell-row="0" data-cell-col="0" data-cell-quartile="1"><rect x="33" y="36" width="48" height="20" fill="#c3b2a1"/><text x="57" y="46" fill="#000000" font-size="12" text-anchor="middle" dominant-baseline="central">a1b2c3</text><polygon points="33,36 43,36 33,46" fill="#000000"/></g><g data-channel="cell" data-cell-index="1" data-cell-row="0" data-cell-col="1" data-cell-quartile="2"><rect x="93" y="36" width="48" height="20" fill="#f6e5d4"/><text x="117" y="46" fill="#000000" font-size="12" text-anchor="middle" dominant-baseline="central">d4e5f6</text><polygon points="141,36 131,36 141,46" fill="#000000"/></g><g data-channel="cell" data-cell-index="2" data-cell-row="1" data-cell-col="0" data-cell-blank="true" data-cell-blank-map="true"><rect x="33" y="76" width="48" height="20" rx="10" ry="10" fill="#ff3f2f" stroke="#000000" stroke-width="1"/><circle cx="69" cy="91" r="3.5" fill="#000000" data-blank-map-min="1,1"/><path d="M 64.8,81 H 73.2 M 69,76.8 V 85.2" fill="none" stroke="#000000" stroke-width="1.925" stroke-linecap="butt" data-blank-map-max="0,1"/></g><g data-channel="cell" data-cell-index="3" data-cell-row="1" data-cell-col="1" data-cell-quartile="3"><rect x="93" y="76" width="48" height="20" fill="#b8b8a7"/><text x="117" y="86" fill="#000000" font-size="12" text-anchor="middle" dominant-baseline="central">a7b8</text><polygon points="141,96 141,86 131,96" fill="#000000"/></g></g></g><g xmlns="http://www.w3.org/2000/svg" data-channel="color-bar" data-bar-slots="9" data-bar-marker-left="1" data-bar-marker-right="0"><g data-color-bar-rank="0" data-color-bar-band="B"><rect x="1" y="1" width="20" height="17.843" fill="#2f3fbf"/><text x="11" y="16.203" fill="#ffffff" font-size="12" text-anchor="middle" data-color-bar-letter="true">b</text></g><g data-color-bar-rank="1" data-color-bar-band="G"><rect x="1" y="18.843" width="20" height="39.573" fill="#e7be00"/><text x="11" y="55.776" fill="#000000" font-size="12" text-anchor="middle" data-color-bar-letter="true">g</text></g><g data-color-bar-rank="2" data-color-bar-band="K"><rect x="1" y="58.416" width="20" height="41.817" fill="#000000"/><text x="11" y="97.593" fill="#ffffff" font-size="12" text-anchor="middle" data-color-bar-letter="true">k</text></g><g data-color-bar-rank="3" data-color-bar-band="R"><rect x="1" y="100.233" width="20" height="10.767" fill="#ff3f2f"/><text x="11" y="108.36" fill="#000000" font-size="12" text-anchor="middle" data-color-bar-letter="true">r</text></g><circle cx="5.6" cy="19.333" r="3.4" fill="#ffffff" stroke="#000000" stroke-width="0.75" data-bar-marker="left"/><circle cx="16.4" cy="7.111" r="3.4" fill="#ffffff" stroke="#000000" stroke-width="0.75" data-bar-marker="right"/></g><g xmlns="http://www.w3.org/2000/svg" data-channel="label-top"><text x="27" y="16" fill="#666666" font-size="12" dominant-baseline="central">hex(16):</text></g><line xmlns="http://www.w3.org/2000/svg" x1="0" y1="0.5" x2="153" y2="0.5" stroke="#808080" stroke-width="1" shape-rendering="crispEdges"/><line xmlns="http://www.w3.org/2000/svg" x1="152.5" y1="0" x2="152.5" y2="112" stroke="#808080" stroke-width="1" shape-rendering="crispEdges"/><line xmlns="http://www.w3.org/2000/svg" x1="0" y1="111.5" x2="153" y2="111.5" stroke="#808080" stroke-width="1" shape-rendering="crispEdges"/><line xmlns="http://www.w3.org/2000/svg" x1="0.5" y1="0" x2="0.5" y2="112" stroke="#808080" stroke-width="1" shape-rendering="crispEdges"/><line xmlns="http://www.w3.org/2000/svg" x1="21.5" y1="0" x2="21.5" y2="112" stroke="#808080" stroke-width="1" shape-rendering="crispEdges"/></svg><rect x="40.00" y="50.00" width="300.00" height="219.61" fill="none" stroke="#c9cdd4" stroke-width="1"/><line x1="111.24" y1="127.12" x2="382.00" y2="66.00" stroke="#3f5b73" stroke-width="1.0"/><line x1="382.00" y1="66.00" x2="400.00" y2="70.00" stroke="#3f5b73" stroke-width="1.0"/><circle cx="111.24" cy="127.12" r="2.6" fill="#3f5b73"/><text x="400.00" y="66.00" font-family="'DejaVu Sans', 'Bitstream Vera Sans', Verdana, sans-serif" font-size="13px" font-weight="bold" text-anchor="start" fill="#2b2b33">quartile mark</text><text x="400.00" y="85.00" font-family="'DejaVu Sans', 'Bitstream Vera Sans', Verdana, sans-serif" font-size="12px" font-weight="normal" text-anchor="start" fill="#5a5f6a">corner orientation encodes the token's rank quartile</text><circle cx="111.24" cy="127.12" r="3.0" fill="#3f5b73"/><line x1="175.29" y1="208.82" x2="382.00" y2="146.00" stroke="#3f5b73" stroke-width="1.0"/><line x1="382.00" y1="146.00" x2="400.00" y2="150.00" stroke="#3f5b73" stroke-width="1.0"/><circle cx="175.29" cy="208.82" r="2.6" fill="#3f5b73"/><text x="400.00" y="146.00" font-family="'DejaVu Sans', 'Bitstream Vera Sans', Verdana, sans-serif" font-size="13px" font-weight="bold" text-anchor="start" fill="#2b2b33">blank-cell map — max (plus)</text><text x="400.00" y="165.00" font-family="'DejaVu Sans', 'Bitstream Vera Sans', Verdana, sans-serif" font-size="12px" font-weight="normal" text-anchor="start" fill="#5a5f6a">the cell holding the largest fingerprint token</text><circle cx="175.29" cy="208.82" r="3.0" fill="#000000"/><line x1="175.29" y1="228.43" x2="382.00" y2="226.00" stroke="#3f5b73" stroke-width="1.0"/><line x1="382.00" y1="226.00" x2="400.00" y2="230.00" stroke="#3f5b73" stroke-width="1.0"/><circle cx="175.29" cy="228.43" r="2.6" fill="#3f5b73"/><text x="400.00" y="226.00" font-family="'DejaVu Sans', 'Bitstream Vera Sans', Verdana, sans-serif" font-size="13px" font-weight="bold" text-anchor="start" fill="#2b2b33">blank-cell map — min (dot)</text><text x="400.00" y="245.00" font-family="'DejaVu Sans', 'Bitstream Vera Sans', Verdana, sans-serif" font-size="12px" font-weight="normal" text-anchor="start" fill="#5a5f6a">the cell holding the smallest token</text><circle cx="175.29" cy="228.43" r="3.0" fill="#000000"/><text x="190.00" y="291.61" font-family="'DejaVu Sans', 'Bitstream Vera Sans', Verdana, sans-serif" font-size="12px" font-weight="normal" text-anchor="middle" fill="#5a5f6a">blank positions and quartile marks act as a</text><text x="190.00" y="307.61" font-family="'DejaVu Sans', 'Bitstream Vera Sans', Verdana, sans-serif" font-size="12px" font-weight="normal" text-anchor="middle" fill="#5a5f6a">visual CRC — easily checked, derived from the fingerprint</text></svg>
