<svg xmlns="http://www.w3.org/2000/svg" width="645.00" height="254.00" viewBox="0 0 645.00 254.00" font-family="'DejaVu Sans', 'Bitstream Vera Sans', Verdana, sans-serif" data-spec-version="v14" data-generator="scripts/spec_figures.py"><rect x="0.00" y="0.00" width="645.00" height="254.00" fill="#ffffff" stroke="none" stroke-width="1.0"/><text x="36.00" y="32.00" font-family="'DejaVu Sans', 'Bitstream Vera Sans', Verdana, sans-serif" font-size="16px" font-weight="bold" text-anchor="start" fill="#2b2b33">Grid options for 11 tokens (target aspect 1:1)</text><text x="36.00" y="52.00" font-family="'DejaVu Sans', 'Bitstream Vera Sans', Verdana, sans-serif" font-size="12px" font-weight="normal" text-anchor="start" fill="#5a5f6a">choose the layout whose aspect is closest to 1:1 without going below it</text><rect x="36.00" y="70.00" width="162.00" height="36.00" fill="none" stroke="#5a5f6a" stroke-width="1.0"/><line x1="63.00" y1="70.00" x2="63.00" y2="106.00" stroke="#5a5f6a" stroke-width="0.6"/><line x1="90.00" y1="70.00" x2="90.00" y2="106.00" stroke="#5a5f6a" stroke-width="0.6"/><line x1="117.00" y1="70.00" x2="117.00" y2="106.00" stroke="#5a5f6a" stroke-width="0.6"/><line x1="144.00" y1="70.00" x2="144.00" y2="106.00" stroke="#5a5f6a" stroke-width="0.6"/><line x1="171.00" y1="70.00" x2="171.00" y2="106.00" stroke="#5a5f6a" stroke-width="0.6"/><line x1="36.00" y1="88.00" x2="198.00" y2="88.00" stroke="#5a5f6a" stroke-width="0.6"/><text x="117.00" y="126.00" font-family="'DejaVu Sans', 'Bitstream Vera Sans', Verdana, sans-serif" font-size="13px" font-weight="bold" text-anchor="middle" fill="#5a5f6a">6×2</text><text x="117.00" y="142.00" font-family="'DejaVu Sans', 'Bitstream Vera Sans', Verdana, sans-serif" font-size="12px" font-weight="normal" text-anchor="middle" fill="#5a5f6a">AR 4.50</text><rect x="254.00" y="70.00" width="108.00" height="54.00" fill="none" stroke="#5a5f6a" stroke-width="1.0"/><line x1="281.00" y1="70.00" x2="281.00" y2="124.00" stroke="#5a5f6a" stroke-width="0.6"/><line x1="308.00" y1="70.00" x2="308.00" y2="124.00" stroke="#5a5f6a" stroke-width="0.6"/><line x1="335.00" y1="70.00" x2="335.00" y2="124.00" stroke="#5a5f6a" stroke-width="0.6"/><line x1="254.00" y1="88.00" x2="362.00" y2="88.00" stroke="#5a5f6a" stroke-width="0.6"/><line x1="254.00" y1="106.00" x2="362.00" y2="106.00" stroke="#5a5f6a" stroke-width="0.6"/><text x="308.00" y="144.00" font-family="'DejaVu Sans', 'Bitstream Vera Sans', Verdana, sans-serif" font-size="13px" font-weight="bold" text-anchor="middle" fill="#5a5f6a">4×3</text><text x="308.00" y="160.00" font-family="'DejaVu Sans', 'Bitstream Vera Sans', Verdana, sans-serif" font-size="12px" font-weight="normal" text-anchor="middle" fill="#5a5f6a">AR 2.00</text><rect x="418.00" y="70.00" width="81.00" height="72.00" fill="#eef2f6" stroke="#3f5b73" stroke-width="2.0"/><line x1="445.00" y1="70.00" x2="445.00" y2="142.00" stroke="#3f5b73" stroke-width="0.6"/><line x1="472.00" y1="70.00" x2="472.00" y2="142.00" stroke="#3f5b73" stroke-width="0.6"/><line x1="418.00" y1="88.00" x2="499.00" y2="88.00" stroke="#3f5b73" stroke-width="0.6"/><line x1="418.00" y1="106.00" x2="499.00" y2="106.00" stroke="#3f5b73" stroke-width="0.6"/><line x1="418.00" y1="124.00" x2="499.00" y2="124.00" stroke="#3f5b73" stroke-width="0.6"/><text x="458.50" y="162.00" font-family="'DejaVu Sans', 'Bitstream Vera Sans', Verdana, sans-serif" font-size="13px" font-weight="bold" text-anchor="middle" fill="#2b2b33">3×4</text><text x="458.50" y="178.00" font-family="'DejaVu Sans', 'Bitstream Vera Sans', Verdana, sans-serif" font-size="12px" font-weight="normal" text-anchor="middle" fill="#3f5b73">AR 1.12  ✓ chosen</text><rect x="555.00" y="70.00" width="54.00" height="108.00" fill="none" stroke="#5a5f6a" stroke-width="1.0"/><line x1="582.00" y1="70.00" x2="582.00" y2="178.00" stroke="#5a5f6a" stroke-width="0.6"/><line x1="555.00" y1="88.00" x2="609.00" y2="88.00" stroke="#5a5f6a" stroke-width="0.6"/><line x1="555.00" y1="106.00" x2="609.00" y2="106.00" stroke="#5a5f6a" stroke-width="0.6"/><line x1="555.00" y1="124.00" x2="609.00" y2="124.00" stroke="#5a5f6a" stroke-width="0.6"/><line x1="555.00" y1="142.00" x2="609.00" y2="142.00" stroke="#5a5f6a" stroke-width="0.6"/><line x1="555.00" y1="160.00" x2="609.00" y2="160.00" stroke="#5a5f6a" stroke-width="0.6"/><text x="582.00" y="198.00" font-family="'DejaVu Sans', 'Bitstream Vera Sans', Verdana, sans-serif" font-size="13px" font-weight="bold" text-anchor="middle" fill="#5a5f6a">2×6</text><text x="582.00" y="214.00" font-family="'DejaVu Sans', 'Bitstream Vera Sans', Verdana, sans-serif" font-size="12px" font-weight="normal" text-anchor="middle" fill="#5a5f6a">AR 0.50</text></svg>
