<svg xmlns="http://www.w3.org/2000/svg" width="790.00" height="272.00" viewBox="0 0 790.00 272.00" font-family="'DejaVu Sans', 'Bitstream Vera Sans', Verdana, sans-serif" data-spec-version="v15" data-generator="scripts/spec_figures.py"><rect x="0.00" y="0.00" width="790.00" height="272.00" fill="#ffffff" stroke="none" stroke-width="1.0"/><svg x="40.00" y="48.00" width="300.00" height="200.00" viewBox="52.000 51.000 120.000 80.000"><defs xmlns="http://www.w3.org/2000/svg"><clipPath id="grid-clip-0372a8619ebcbbcd-2x3"><rect x="53" y="52" width="240" height="240"/></clipPath></defs><rect xmlns="http://www.w3.org/2000/svg" x="1" y="1" width="303" height="302" fill="#ffffff"/><g xmlns="http://www.w3.org/2000/svg" data-channel="grid"><rect x="53" y="52" width="240" height="240" fill="#e7be00"/><g><path fill="#ffffff" d="M89 52h12v20h-12zM113 52h12v20h-12zM137 52h12v20h-12zM161 52h12v20h-12zM161 112h12v20h-12zM149 112h12v20h-12zM137 112h12v20h-12zM113 112h12v20h-12zM101 112h12v20h-12z"/><path fill="#ffffff" d="M197 52h12v20h-12zM209 52h12v20h-12zM221 52h12v20h-12zM233 52h12v20h-12zM257 52h12v20h-12zM281 52h12v20h-12zM281 72h12v20h-12zM281 92h12v20h-12zM281 112h12v20h-12zM245 112h12v20h-12zM233 112h12v20h-12zM173 112h12v20h-12zM173 92h12v20h-12z"/><path fill="#2f3fbf" d="M53 132h12v20h-12zM101 132h12v20h-12zM137 132h12v20h-12zM149 132h12v20h-12zM161 152h12v20h-12zM161 172h12v20h-12zM137 192h12v20h-12zM125 192h12v20h-12zM113 192h12v20h-12zM101 192h12v20h-12zM77 192h12v20h-12zM65 192h12v20h-12zM53 192h12v20h-12zM53 152h12v20h-12z"/><path fill="#000000" d="M173 132h12v20h-12zM233 132h12v20h-12zM257 132h12v20h-12zM269 132h12v20h-12zM281 152h12v20h-12zM281 172h12v20h-12zM257 192h12v20h-12zM245 192h12v20h-12zM233 192h12v20h-12zM221 192h12v20h-12zM197 192h12v20h-12zM173 192h12v20h-12zM173 152h12v20h-12z"/><path fill="#2f3fbf" d="M65 212h12v20h-12zM89 212h12v20h-12zM101 212h12v20h-12zM137 212h12v20h-12zM161 252h12v20h-12zM161 272h12v20h-12zM149 272h12v20h-12zM101 272h12v20h-12zM77 272h12v20h-12zM65 272h12v20h-12zM53 272h12v20h-12zM53 232h12v20h-12z"/><path fill="#ffffff" d="M185 212h12v20h-12zM221 212h12v20h-12zM233 212h12v20h-12zM245 212h12v20h-12zM281 212h12v20h-12zM281 232h12v20h-12zM281 252h12v20h-12zM269 272h12v20h-12zM257 272h12v20h-12zM233 272h12v20h-12zM221 272h12v20h-12zM173 252h12v20h-12zM173 232h12v20h-12z"/></g><g clip-path="url(#grid-clip-0372a8619ebcbbcd-2x3)" data-channel="ellipse" data-ellipse-anchor-x="293" data-ellipse-anchor-y="212" data-ellipse-rx="98.071" data-ellipse-ry="63.458" data-ellipse-rotation-deg="60"><ellipse cx="293" cy="212" rx="98.071" ry="63.458" transform="rotate(60 293 212)" fill="#000000" stroke="#000000" fill-opacity="0.2" stroke-opacity="0.3" stroke-width="4"/></g><g><g data-channel="cell" data-cell-index="0" data-cell-row="0" data-cell-col="0" data-surround-bits="0x372a8" data-edge-color="#ffffff" data-cell-quartile="3"><rect x="65" y="72" width="96" height="40" fill="#452301"/><text x="113" y="92" fill="#ffffff" font-size="24" text-anchor="middle" dominant-baseline="central">012345</text><polygon points="161,112 161,92 141,112" fill="#ffffff"/></g><g data-channel="cell" data-cell-index="1" data-cell-row="0" data-cell-col="1" data-surround-bits="0x619ebc" data-edge-color="#ffffff" data-cell-quartile="1"><rect x="185" y="72" width="96" height="40" fill="#ab8967"/><text x="233" y="92" fill="#000000" font-size="24" text-anchor="middle" dominant-baseline="central">6789ab</text><polygon points="185,72 205,72 185,92" fill="#000000"/></g><g data-channel="cell" data-cell-index="2" data-cell-row="1" data-cell-col="0" data-surround-bits="0xbbcd91" data-edge-color="#2f3fbf"><rect x="65" y="152" width="96" height="40" fill="#01efcd"/><text x="113" y="172" fill="#000000" font-size="24" text-anchor="middle" dominant-baseline="central">cdef01</text></g><g data-channel="cell" data-cell-index="3" data-cell-row="1" data-cell-col="1" data-surround-bits="0xabcda1" data-edge-color="#000000"><rect x="185" y="152" width="96" height="40" fill="#674523"/><text x="233" y="172" fill="#ffffff" font-size="24" text-anchor="middle" dominant-baseline="central">234567</text></g><g data-channel="cell" data-cell-index="4" data-cell-row="2" data-cell-col="0" data-surround-bits="0xba389a" data-edge-color="#2f3fbf" data-cell-quartile="2"><rect x="65" y="232" width="96" height="40" fill="#cdab89"/><text x="113" y="252" fill="#000000" font-size="24" text-anchor="middle" dominant-baseline="central">89abcd</text><polygon points="161,232 141,232 161,252" fill="#000000"/></g><g data-channel="cell" data-cell-index="5" data-cell-row="2" data-cell-col="1" data-surround-bits="0xc36e72" data-edge-color="#ffffff"><rect x="185" y="232" width="96" height="40" fill="#efefef"/><text x="233" y="252" fill="#000000" font-size="24" text-anchor="middle" dominant-baseline="central">ef</text></g></g></g><g xmlns="http://www.w3.org/2000/svg" data-channel="color-bar" data-bar-slots="16" data-bar-marker-left="1" data-bar-marker-right="11"><g data-color-bar-rank="0" data-color-bar-band="K"><rect x="2" y="2" width="40" height="36.124" fill="#000000"/><text x="22" y="32.844" fill="#ffffff" font-size="24" text-anchor="middle" data-color-bar-letter="true">k</text></g><g data-color-bar-rank="1" data-color-bar-band="W"><rect x="2" y="38.124" width="40" height="29.098" fill="#ffffff"/><text x="22" y="61.942" fill="#000000" font-size="24" text-anchor="middle" data-color-bar-letter="true">w</text></g><g data-color-bar-rank="2" data-color-bar-band="B"><rect x="2" y="67.222" width="40" height="196.052" fill="#2f3fbf"/><text x="22" y="257.994" fill="#ffffff" font-size="24" text-anchor="middle" data-color-bar-letter="true">b</text></g><g data-color-bar-rank="3" data-color-bar-band="R"><rect x="2" y="263.274" width="40" height="38.726" fill="#ff3f2f"/><text x="22" y="296.72" fill="#000000" font-size="24" text-anchor="middle" data-color-bar-letter="true">r</text></g><circle cx="11.2" cy="30.125" r="6.8" fill="#ffffff" stroke="#000000" stroke-width="0.75" data-bar-marker="left"/><circle cx="32.8" cy="217.625" r="6.8" fill="#ffffff" stroke="#000000" stroke-width="0.75" data-bar-marker="right"/></g><g xmlns="http://www.w3.org/2000/svg" data-channel="label-top"><text x="53" y="32" fill="#666666" font-size="24" dominant-baseline="central">UUID</text></g><line xmlns="http://www.w3.org/2000/svg" x1="1" y1="1.5" x2="304" y2="1.5" stroke="#808080" stroke-width="1" shape-rendering="crispEdges"/><line xmlns="http://www.w3.org/2000/svg" x1="303.5" y1="1" x2="303.5" y2="303" stroke="#808080" stroke-width="1" shape-rendering="crispEdges"/><line xmlns="http://www.w3.org/2000/svg" x1="1" y1="302.5" x2="304" y2="302.5" stroke="#808080" stroke-width="1" shape-rendering="crispEdges"/><line xmlns="http://www.w3.org/2000/svg" x1="1.5" y1="1" x2="1.5" y2="303" stroke="#808080" stroke-width="1" shape-rendering="crispEdges"/><line xmlns="http://www.w3.org/2000/svg" x1="42.5" y1="1" x2="42.5" y2="303" stroke="#808080" stroke-width="1" shape-rendering="crispEdges"/></svg><rect x="40.00" y="48.00" width="300.00" height="200.00" fill="none" stroke="#c9cdd4" stroke-width="1"/><text x="40.00" y="36.00" font-family="'DejaVu Sans', 'Bitstream Vera Sans', Verdana, sans-serif" font-size="12px" font-weight="normal" text-anchor="start" font-style="italic" fill="#5a5f6a">one cell, enlarged</text><line x1="192.50" y1="108.00" x2="392.00" y2="66.00" stroke="#3f5b73" stroke-width="1.0"/><line x1="392.00" y1="66.00" x2="410.00" y2="70.00" stroke="#3f5b73" stroke-width="1.0"/><circle cx="192.50" cy="108.00" r="2.6" fill="#3f5b73"/><text x="410.00" y="66.00" font-family="'DejaVu Sans', 'Bitstream Vera Sans', Verdana, sans-serif" font-size="13px" font-weight="bold" text-anchor="start" fill="#2b2b33">nucleus background</text><text x="410.00" y="85.00" font-family="'DejaVu Sans', 'Bitstream Vera Sans', Verdana, sans-serif" font-size="12px" font-weight="normal" text-anchor="start" fill="#5a5f6a">the 24-bit token read as a 24-bit RGB color</text><line x1="192.50" y1="108.00" x2="392.00" y2="128.00" stroke="#3f5b73" stroke-width="1.0"/><line x1="392.00" y1="128.00" x2="410.00" y2="132.00" stroke="#3f5b73" stroke-width="1.0"/><circle cx="192.50" cy="108.00" r="2.6" fill="#3f5b73"/><text x="410.00" y="128.00" font-family="'DejaVu Sans', 'Bitstream Vera Sans', Verdana, sans-serif" font-size="13px" font-weight="bold" text-anchor="start" fill="#2b2b33">lossless ≤ 512 bits</text><text x="410.00" y="147.00" font-family="'DejaVu Sans', 'Bitstream Vera Sans', Verdana, sans-serif" font-size="12px" font-weight="normal" text-anchor="start" fill="#5a5f6a">derived from the entropy, not the fingerprint</text><line x1="192.50" y1="140.50" x2="392.00" y2="190.00" stroke="#3f5b73" stroke-width="1.0"/><line x1="392.00" y1="190.00" x2="410.00" y2="194.00" stroke="#3f5b73" stroke-width="1.0"/><circle cx="192.50" cy="140.50" r="2.6" fill="#3f5b73"/><text x="410.00" y="190.00" font-family="'DejaVu Sans', 'Bitstream Vera Sans', Verdana, sans-serif" font-size="13px" font-weight="bold" text-anchor="start" fill="#2b2b33">a redundant hint, not primary</text><text x="410.00" y="209.00" font-family="'DejaVu Sans', 'Bitstream Vera Sans', Verdana, sans-serif" font-size="12px" font-weight="normal" text-anchor="start" fill="#5a5f6a">fine gradations fall below the JND / vanish &lt; 16M colors</text></svg>
