<svg xmlns="http://www.w3.org/2000/svg" width="790.00" height="272.00" viewBox="0 0 790.00 272.00" font-family="'DejaVu Sans', 'Bitstream Vera Sans', Verdana, sans-serif" data-spec-version="v10" data-generator="scripts/spec_figures.py"><rect x="0.00" y="0.00" width="790.00" height="272.00" fill="#ffffff" stroke="none" stroke-width="1.0"/><svg x="40.00" y="48.00" width="300.00" height="200.00" viewBox="52.000 51.000 120.000 80.000"><defs xmlns="http://www.w3.org/2000/svg"><clipPath id="grid-clip-0372a8619ebcbbcd-2x3"><rect x="52" y="51" width="240" height="240"/></clipPath></defs><rect xmlns="http://www.w3.org/2000/svg" x="0" y="0" width="303" height="302" fill="#ffffff"/><g xmlns="http://www.w3.org/2000/svg" data-channel="grid"><rect x="52" y="51" width="240" height="240" fill="#e7be00"/><g><path fill="#ffffff" d="M88 51h12v20h-12zM112 51h12v20h-12zM136 51h12v20h-12zM160 51h12v20h-12zM160 111h12v20h-12zM148 111h12v20h-12zM136 111h12v20h-12zM112 111h12v20h-12zM100 111h12v20h-12z"/><path fill="#ffffff" d="M196 51h12v20h-12zM208 51h12v20h-12zM220 51h12v20h-12zM232 51h12v20h-12zM256 51h12v20h-12zM280 51h12v20h-12zM280 71h12v20h-12zM280 91h12v20h-12zM280 111h12v20h-12zM244 111h12v20h-12zM232 111h12v20h-12zM172 111h12v20h-12zM172 91h12v20h-12z"/><path fill="#2f3fbf" d="M52 131h12v20h-12zM100 131h12v20h-12zM136 131h12v20h-12zM148 131h12v20h-12zM160 151h12v20h-12zM160 171h12v20h-12zM136 191h12v20h-12zM124 191h12v20h-12zM112 191h12v20h-12zM100 191h12v20h-12zM76 191h12v20h-12zM64 191h12v20h-12zM52 191h12v20h-12zM52 151h12v20h-12z"/><path fill="#000000" d="M172 131h12v20h-12zM232 131h12v20h-12zM256 131h12v20h-12zM268 131h12v20h-12zM280 151h12v20h-12zM280 171h12v20h-12zM256 191h12v20h-12zM244 191h12v20h-12zM232 191h12v20h-12zM220 191h12v20h-12zM196 191h12v20h-12zM172 191h12v20h-12zM172 151h12v20h-12z"/><path fill="#2f3fbf" d="M64 211h12v20h-12zM88 211h12v20h-12zM100 211h12v20h-12zM136 211h12v20h-12zM160 251h12v20h-12zM160 271h12v20h-12zM148 271h12v20h-12zM100 271h12v20h-12zM76 271h12v20h-12zM64 271h12v20h-12zM52 271h12v20h-12zM52 231h12v20h-12z"/><path fill="#ffffff" d="M184 211h12v20h-12zM220 211h12v20h-12zM232 211h12v20h-12zM244 211h12v20h-12zM280 211h12v20h-12zM280 231h12v20h-12zM280 251h12v20h-12zM268 271h12v20h-12zM256 271h12v20h-12zM232 271h12v20h-12zM220 271h12v20h-12zM172 251h12v20h-12zM172 231h12v20h-12z"/></g><g clip-path="url(#grid-clip-0372a8619ebcbbcd-2x3)" data-channel="ellipse" data-ellipse-anchor-x="292" data-ellipse-anchor-y="211" data-ellipse-rx="98.071" data-ellipse-ry="63.458" data-ellipse-rotation-deg="60"><ellipse cx="292" cy="211" rx="98.071" ry="63.458" transform="rotate(60 292 211)" fill="#000000" stroke="#000000" fill-opacity="0.2" stroke-opacity="0.3" stroke-width="4"/></g><g><g data-channel="cell" data-cell-index="0" data-cell-row="0" data-cell-col="0" data-surround-bits="0x372a8" data-edge-color="#ffffff" data-cell-quartile="3"><rect x="64" y="71" width="96" height="40" fill="#452301"/><text x="112" y="91" fill="#ffffff" font-size="24" text-anchor="middle" dominant-baseline="central">012345</text><polygon points="160,111 160,91 140,111" fill="#ffffff"/></g><g data-channel="cell" data-cell-index="1" data-cell-row="0" data-cell-col="1" data-surround-bits="0x619ebc" data-edge-color="#ffffff" data-cell-quartile="1"><rect x="184" y="71" width="96" height="40" fill="#ab8967"/><text x="232" y="91" fill="#000000" font-size="24" text-anchor="middle" dominant-baseline="central">6789ab</text><polygon points="184,71 204,71 184,91" fill="#000000"/></g><g data-channel="cell" data-cell-index="2" data-cell-row="1" data-cell-col="0" data-surround-bits="0xbbcd91" data-edge-color="#2f3fbf"><rect x="64" y="151" width="96" height="40" fill="#01efcd"/><text x="112" y="171" fill="#000000" font-size="24" text-anchor="middle" dominant-baseline="central">cdef01</text></g><g data-channel="cell" data-cell-index="3" data-cell-row="1" data-cell-col="1" data-surround-bits="0xabcda1" data-edge-color="#000000"><rect x="184" y="151" width="96" height="40" fill="#674523"/><text x="232" y="171" fill="#ffffff" font-size="24" text-anchor="middle" dominant-baseline="central">234567</text></g><g data-channel="cell" data-cell-index="4" data-cell-row="2" data-cell-col="0" data-surround-bits="0xba389a" data-edge-color="#2f3fbf" data-cell-quartile="2"><rect x="64" y="231" width="96" height="40" fill="#cdab89"/><text x="112" y="251" fill="#000000" font-size="24" text-anchor="middle" dominant-baseline="central">89abcd</text><polygon points="160,231 140,231 160,251" fill="#000000"/></g><g data-channel="cell" data-cell-index="5" data-cell-row="2" data-cell-col="1" data-surround-bits="0xc36e72" data-edge-color="#ffffff"><rect x="184" y="231" width="96" height="40" fill="#efefef"/><text x="232" y="251" fill="#000000" font-size="24" text-anchor="middle" dominant-baseline="central">ef</text></g></g></g><g xmlns="http://www.w3.org/2000/svg" data-channel="color-bar" data-bar-slots="16" data-bar-marker-left="1" data-bar-marker-right="11"><g data-color-bar-rank="0" data-color-bar-band="K"><rect x="1" y="1" width="40" height="36.124" fill="#000000"/><text x="21" y="31.844" fill="#ffffff" font-size="24" text-anchor="middle" data-color-bar-letter="true">k</text></g><g data-color-bar-rank="1" data-color-bar-band="W"><rect x="1" y="37.124" width="40" height="29.098" fill="#ffffff"/><text x="21" y="60.942" fill="#000000" font-size="24" text-anchor="middle" data-color-bar-letter="true">w</text></g><g data-color-bar-rank="2" data-color-bar-band="B"><rect x="1" y="66.222" width="40" height="196.052" fill="#2f3fbf"/><text x="21" y="256.994" fill="#ffffff" font-size="24" text-anchor="middle" data-color-bar-letter="true">b</text></g><g data-color-bar-rank="3" data-color-bar-band="R"><rect x="1" y="262.274" width="40" height="38.726" fill="#ff3f2f"/><text x="21" y="295.72" fill="#000000" font-size="24" text-anchor="middle" data-color-bar-letter="true">r</text></g><circle cx="10.2" cy="29.125" r="6.8" fill="#ffffff" stroke="#000000" stroke-width="0.75" data-bar-marker="left"/><circle cx="31.8" cy="216.625" r="6.8" fill="#ffffff" stroke="#000000" stroke-width="0.75" data-bar-marker="right"/></g><g xmlns="http://www.w3.org/2000/svg" data-channel="label-top"><text x="52" y="31" fill="#666666" font-size="24" dominant-baseline="central">UUID:</text></g><line xmlns="http://www.w3.org/2000/svg" x1="0" y1="0.5" x2="303" y2="0.5" stroke="#808080" stroke-width="1" shape-rendering="crispEdges"/><line xmlns="http://www.w3.org/2000/svg" x1="302.5" y1="0" x2="302.5" y2="302" stroke="#808080" stroke-width="1" shape-rendering="crispEdges"/><line xmlns="http://www.w3.org/2000/svg" x1="0" y1="301.5" x2="303" y2="301.5" stroke="#808080" stroke-width="1" shape-rendering="crispEdges"/><line xmlns="http://www.w3.org/2000/svg" x1="0.5" y1="0" x2="0.5" y2="302" stroke="#808080" stroke-width="1" shape-rendering="crispEdges"/><line xmlns="http://www.w3.org/2000/svg" x1="41.5" y1="0" x2="41.5" y2="302" stroke="#808080" stroke-width="1" shape-rendering="crispEdges"/></svg><rect x="40.00" y="48.00" width="300.00" height="200.00" fill="none" stroke="#c9cdd4" stroke-width="1"/><text x="40.00" y="36.00" font-family="'DejaVu Sans', 'Bitstream Vera Sans', Verdana, sans-serif" font-size="12px" font-weight="normal" text-anchor="start" font-style="italic" fill="#5a5f6a">one cell, enlarged</text><line x1="190.00" y1="105.50" x2="392.00" y2="66.00" stroke="#3f5b73" stroke-width="1.0"/><line x1="392.00" y1="66.00" x2="410.00" y2="70.00" stroke="#3f5b73" stroke-width="1.0"/><circle cx="190.00" cy="105.50" r="2.6" fill="#3f5b73"/><text x="410.00" y="66.00" font-family="'DejaVu Sans', 'Bitstream Vera Sans', Verdana, sans-serif" font-size="13px" font-weight="bold" text-anchor="start" fill="#2b2b33">nucleus background</text><text x="410.00" y="85.00" font-family="'DejaVu Sans', 'Bitstream Vera Sans', Verdana, sans-serif" font-size="12px" font-weight="normal" text-anchor="start" fill="#5a5f6a">the 24-bit token read as a 24-bit RGB color</text><line x1="190.00" y1="105.50" x2="392.00" y2="128.00" stroke="#3f5b73" stroke-width="1.0"/><line x1="392.00" y1="128.00" x2="410.00" y2="132.00" stroke="#3f5b73" stroke-width="1.0"/><circle cx="190.00" cy="105.50" r="2.6" fill="#3f5b73"/><text x="410.00" y="128.00" font-family="'DejaVu Sans', 'Bitstream Vera Sans', Verdana, sans-serif" font-size="13px" font-weight="bold" text-anchor="start" fill="#2b2b33">lossless ≤ 512 bits</text><text x="410.00" y="147.00" font-family="'DejaVu Sans', 'Bitstream Vera Sans', Verdana, sans-serif" font-size="12px" font-weight="normal" text-anchor="start" fill="#5a5f6a">derived from the entropy, not the fingerprint</text><line x1="190.00" y1="138.00" x2="392.00" y2="190.00" stroke="#3f5b73" stroke-width="1.0"/><line x1="392.00" y1="190.00" x2="410.00" y2="194.00" stroke="#3f5b73" stroke-width="1.0"/><circle cx="190.00" cy="138.00" r="2.6" fill="#3f5b73"/><text x="410.00" y="190.00" font-family="'DejaVu Sans', 'Bitstream Vera Sans', Verdana, sans-serif" font-size="13px" font-weight="bold" text-anchor="start" fill="#2b2b33">a redundant hint, not primary</text><text x="410.00" y="209.00" font-family="'DejaVu Sans', 'Bitstream Vera Sans', Verdana, sans-serif" font-size="12px" font-weight="normal" text-anchor="start" fill="#5a5f6a">fine gradations fall below the JND / vanish &lt; 16M colors</text></svg>
