<svg xmlns="http://www.w3.org/2000/svg" width="790.00" height="272.00" viewBox="0 0 790.00 272.00" font-family="'DejaVu Sans', 'Bitstream Vera Sans', Verdana, sans-serif" data-spec-version="v7" data-generator="scripts/spec_figures.py"><rect x="0.00" y="0.00" width="790.00" height="272.00" fill="#ffffff" stroke="none" stroke-width="1.0"/><svg x="40.00" y="48.00" width="300.00" height="200.00" viewBox="52.000 51.000 120.000 80.000"><defs xmlns="http://www.w3.org/2000/svg"><clipPath id="grid-clip-0372a8619ebcbbcd-2x3"><rect x="52.0" y="51.0" width="240.0" height="240.0"/></clipPath></defs><rect xmlns="http://www.w3.org/2000/svg" x="0" y="0" width="303.0" height="302.0" fill="#ffffff"/><g xmlns="http://www.w3.org/2000/svg" data-channel="grid"><rect x="52.0" y="51.0" width="240.0" height="240.0" fill="#e7be00"/><g><rect x="88.0" y="51.0" width="12.0" height="20.0" fill="#000000"/><rect x="112.0" y="51.0" width="12.0" height="20.0" fill="#000000"/><rect x="136.0" y="51.0" width="12.0" height="20.0" fill="#000000"/><rect x="160.0" y="51.0" width="12.0" height="20.0" fill="#000000"/><rect x="160.0" y="111.0" width="12.0" height="20.0" fill="#000000"/><rect x="148.0" y="111.0" width="12.0" height="20.0" fill="#000000"/><rect x="136.0" y="111.0" width="12.0" height="20.0" fill="#000000"/><rect x="112.0" y="111.0" width="12.0" height="20.0" fill="#000000"/><rect x="100.0" y="111.0" width="12.0" height="20.0" fill="#000000"/><rect x="196.0" y="51.0" width="12.0" height="20.0" fill="#ff3f2f"/><rect x="208.0" y="51.0" width="12.0" height="20.0" fill="#ff3f2f"/><rect x="220.0" y="51.0" width="12.0" height="20.0" fill="#ff3f2f"/><rect x="232.0" y="51.0" width="12.0" height="20.0" fill="#ff3f2f"/><rect x="256.0" y="51.0" width="12.0" height="20.0" fill="#ff3f2f"/><rect x="280.0" y="51.0" width="12.0" height="20.0" fill="#ff3f2f"/><rect x="280.0" y="71.0" width="12.0" height="20.0" fill="#ff3f2f"/><rect x="280.0" y="91.0" width="12.0" height="20.0" fill="#ff3f2f"/><rect x="280.0" y="111.0" width="12.0" height="20.0" fill="#ff3f2f"/><rect x="244.0" y="111.0" width="12.0" height="20.0" fill="#ff3f2f"/><rect x="232.0" y="111.0" width="12.0" height="20.0" fill="#ff3f2f"/><rect x="172.0" y="111.0" width="12.0" height="20.0" fill="#ff3f2f"/><rect x="172.0" y="91.0" width="12.0" height="20.0" fill="#ff3f2f"/><rect x="52.0" y="131.0" width="12.0" height="20.0" fill="#2f3fbf"/><rect x="100.0" y="131.0" width="12.0" height="20.0" fill="#2f3fbf"/><rect x="136.0" y="131.0" width="12.0" height="20.0" fill="#2f3fbf"/><rect x="148.0" y="131.0" width="12.0" height="20.0" fill="#2f3fbf"/><rect x="160.0" y="151.0" width="12.0" height="20.0" fill="#2f3fbf"/><rect x="160.0" y="171.0" width="12.0" height="20.0" fill="#2f3fbf"/><rect x="136.0" y="191.0" width="12.0" height="20.0" fill="#2f3fbf"/><rect x="124.0" y="191.0" width="12.0" height="20.0" fill="#2f3fbf"/><rect x="112.0" y="191.0" width="12.0" height="20.0" fill="#2f3fbf"/><rect x="100.0" y="191.0" width="12.0" height="20.0" fill="#2f3fbf"/><rect x="76.0" y="191.0" width="12.0" height="20.0" fill="#2f3fbf"/><rect x="64.0" y="191.0" width="12.0" height="20.0" fill="#2f3fbf"/><rect x="52.0" y="191.0" width="12.0" height="20.0" fill="#2f3fbf"/><rect x="52.0" y="151.0" width="12.0" height="20.0" fill="#2f3fbf"/><rect x="172.0" y="131.0" width="12.0" height="20.0" fill="#000000"/><rect x="232.0" y="131.0" width="12.0" height="20.0" fill="#000000"/><rect x="256.0" y="131.0" width="12.0" height="20.0" fill="#000000"/><rect x="268.0" y="131.0" width="12.0" height="20.0" fill="#000000"/><rect x="280.0" y="151.0" width="12.0" height="20.0" fill="#000000"/><rect x="280.0" y="171.0" width="12.0" height="20.0" fill="#000000"/><rect x="256.0" y="191.0" width="12.0" height="20.0" fill="#000000"/><rect x="244.0" y="191.0" width="12.0" height="20.0" fill="#000000"/><rect x="232.0" y="191.0" width="12.0" height="20.0" fill="#000000"/><rect x="220.0" y="191.0" width="12.0" height="20.0" fill="#000000"/><rect x="196.0" y="191.0" width="12.0" height="20.0" fill="#000000"/><rect x="172.0" y="191.0" width="12.0" height="20.0" fill="#000000"/><rect x="172.0" y="151.0" width="12.0" height="20.0" fill="#000000"/><rect x="64.0" y="211.0" width="12.0" height="20.0" fill="#ffffff"/><rect x="88.0" y="211.0" width="12.0" height="20.0" fill="#ffffff"/><rect x="100.0" y="211.0" width="12.0" height="20.0" fill="#ffffff"/><rect x="136.0" y="211.0" width="12.0" height="20.0" fill="#ffffff"/><rect x="160.0" y="251.0" width="12.0" height="20.0" fill="#ffffff"/><rect x="160.0" y="271.0" width="12.0" height="20.0" fill="#ffffff"/><rect x="148.0" y="271.0" width="12.0" height="20.0" fill="#ffffff"/><rect x="100.0" y="271.0" width="12.0" height="20.0" fill="#ffffff"/><rect x="76.0" y="271.0" width="12.0" height="20.0" fill="#ffffff"/><rect x="64.0" y="271.0" width="12.0" height="20.0" fill="#ffffff"/><rect x="52.0" y="271.0" width="12.0" height="20.0" fill="#ffffff"/><rect x="52.0" y="231.0" width="12.0" height="20.0" fill="#ffffff"/><rect x="184.0" y="211.0" width="12.0" height="20.0" fill="#ffffff"/><rect x="220.0" y="211.0" width="12.0" height="20.0" fill="#ffffff"/><rect x="232.0" y="211.0" width="12.0" height="20.0" fill="#ffffff"/><rect x="244.0" y="211.0" width="12.0" height="20.0" fill="#ffffff"/><rect x="280.0" y="211.0" width="12.0" height="20.0" fill="#ffffff"/><rect x="280.0" y="231.0" width="12.0" height="20.0" fill="#ffffff"/><rect x="280.0" y="251.0" width="12.0" height="20.0" fill="#ffffff"/><rect x="268.0" y="271.0" width="12.0" height="20.0" fill="#ffffff"/><rect x="256.0" y="271.0" width="12.0" height="20.0" fill="#ffffff"/><rect x="232.0" y="271.0" width="12.0" height="20.0" fill="#ffffff"/><rect x="220.0" y="271.0" width="12.0" height="20.0" fill="#ffffff"/><rect x="172.0" y="251.0" width="12.0" height="20.0" fill="#ffffff"/><rect x="172.0" y="231.0" width="12.0" height="20.0" fill="#ffffff"/></g><g clip-path="url(#grid-clip-0372a8619ebcbbcd-2x3)" data-channel="ellipse" data-ellipse-anchor-x="292.0" data-ellipse-anchor-y="211.0" data-ellipse-rx="98.0709946926205" data-ellipse-ry="63.45770244816621" data-ellipse-rotation-deg="60.0"><ellipse cx="292.0" cy="211.0" rx="98.0709946926205" ry="63.45770244816621" transform="rotate(60.0 292.0 211.0)" fill="#000000" stroke="#000000" fill-opacity="0.2" stroke-opacity="0.3" stroke-width="4.0"/></g><g><g data-channel="cell" data-cell-index="0" data-cell-row="0" data-cell-col="0" data-cell-quartile="3"><rect x="64.0" y="71.0" width="96.0" height="40.0" fill="#452301"/><text x="112.0" y="91.0" fill="#ffffff" style="font-family: &quot;JetBrains Mono&quot;, &quot;Menlo&quot;, &quot;Consolas&quot;, &quot;DejaVu Sans Mono&quot;, &quot;Liberation Mono&quot;, &quot;Roboto Mono&quot;, &quot;Noto Sans Mono&quot;, monospace; font-size: 24.0px;" text-anchor="middle" dominant-baseline="central">012345</text><polygon points="160.0,111.0 160.0,91.0 140.0,111.0" fill="#ffffff"/></g><g data-channel="cell" data-cell-index="1" data-cell-row="0" data-cell-col="1" data-cell-quartile="1"><rect x="184.0" y="71.0" width="96.0" height="40.0" fill="#ab8967"/><text x="232.0" y="91.0" fill="#000000" style="font-family: &quot;JetBrains Mono&quot;, &quot;Menlo&quot;, &quot;Consolas&quot;, &quot;DejaVu Sans Mono&quot;, &quot;Liberation Mono&quot;, &quot;Roboto Mono&quot;, &quot;Noto Sans Mono&quot;, monospace; font-size: 24.0px;" text-anchor="middle" dominant-baseline="central">6789ab</text><polygon points="184.0,71.0 204.0,71.0 184.0,91.0" fill="#000000"/></g><g data-channel="cell" data-cell-index="2" data-cell-row="1" data-cell-col="0"><rect x="64.0" y="151.0" width="96.0" height="40.0" fill="#01efcd"/><text x="112.0" y="171.0" fill="#000000" style="font-family: &quot;JetBrains Mono&quot;, &quot;Menlo&quot;, &quot;Consolas&quot;, &quot;DejaVu Sans Mono&quot;, &quot;Liberation Mono&quot;, &quot;Roboto Mono&quot;, &quot;Noto Sans Mono&quot;, monospace; font-size: 24.0px;" text-anchor="middle" dominant-baseline="central">cdef01</text></g><g data-channel="cell" data-cell-index="3" data-cell-row="1" data-cell-col="1"><rect x="184.0" y="151.0" width="96.0" height="40.0" fill="#674523"/><text x="232.0" y="171.0" fill="#ffffff" style="font-family: &quot;JetBrains Mono&quot;, &quot;Menlo&quot;, &quot;Consolas&quot;, &quot;DejaVu Sans Mono&quot;, &quot;Liberation Mono&quot;, &quot;Roboto Mono&quot;, &quot;Noto Sans Mono&quot;, monospace; font-size: 24.0px;" text-anchor="middle" dominant-baseline="central">234567</text></g><g data-channel="cell" data-cell-index="4" data-cell-row="2" data-cell-col="0" data-cell-quartile="2"><rect x="64.0" y="231.0" width="96.0" height="40.0" fill="#cdab89"/><text x="112.0" y="251.0" fill="#000000" style="font-family: &quot;JetBrains Mono&quot;, &quot;Menlo&quot;, &quot;Consolas&quot;, &quot;DejaVu Sans Mono&quot;, &quot;Liberation Mono&quot;, &quot;Roboto Mono&quot;, &quot;Noto Sans Mono&quot;, monospace; font-size: 24.0px;" text-anchor="middle" dominant-baseline="central">89abcd</text><polygon points="160.0,231.0 140.0,231.0 160.0,251.0" fill="#000000"/></g><g data-channel="cell" data-cell-index="5" data-cell-row="2" data-cell-col="1"><rect x="184.0" y="231.0" width="96.0" height="40.0" fill="#efefef"/><text x="232.0" y="251.0" fill="#000000" style="font-family: &quot;JetBrains Mono&quot;, &quot;Menlo&quot;, &quot;Consolas&quot;, &quot;DejaVu Sans Mono&quot;, &quot;Liberation Mono&quot;, &quot;Roboto Mono&quot;, &quot;Noto Sans Mono&quot;, monospace; font-size: 24.0px;" text-anchor="middle" dominant-baseline="central">ef</text></g></g></g><g xmlns="http://www.w3.org/2000/svg" data-channel="color-bar"><g data-color-bar-rank="0" data-color-bar-band="B"><rect x="1" y="1" width="40.0" height="196.0516367967381" fill="#2f3fbf"/><text x="21.0" y="191.7716367967381" fill="#ffffff" style="font-family: &quot;JetBrains Mono&quot;, &quot;Menlo&quot;, &quot;Consolas&quot;, &quot;DejaVu Sans Mono&quot;, &quot;Liberation Mono&quot;, &quot;Roboto Mono&quot;, &quot;Noto Sans Mono&quot;, monospace; font-size: 24.0px;" text-anchor="middle" data-color-bar-letter="true">b</text></g><g data-color-bar-rank="1" data-color-bar-band="R"><rect x="1" y="197.0516367967381" width="40.0" height="38.72624924380012" fill="#ff3f2f"/><text x="21.0" y="230.49788604053822" fill="#000000" style="font-family: &quot;JetBrains Mono&quot;, &quot;Menlo&quot;, &quot;Consolas&quot;, &quot;DejaVu Sans Mono&quot;, &quot;Liberation Mono&quot;, &quot;Roboto Mono&quot;, &quot;Noto Sans Mono&quot;, monospace; font-size: 24.0px;" text-anchor="middle" data-color-bar-letter="true">r</text></g><g data-color-bar-rank="2" data-color-bar-band="K"><rect x="1" y="235.77788604053822" width="40.0" height="36.12375471557656" fill="#000000"/><text x="21.0" y="266.6216407561148" fill="#ffffff" style="font-family: &quot;JetBrains Mono&quot;, &quot;Menlo&quot;, &quot;Consolas&quot;, &quot;DejaVu Sans Mono&quot;, &quot;Liberation Mono&quot;, &quot;Roboto Mono&quot;, &quot;Noto Sans Mono&quot;, monospace; font-size: 24.0px;" text-anchor="middle" data-color-bar-letter="true">k</text></g><g data-color-bar-rank="3" data-color-bar-band="W"><rect x="1" y="271.9016407561148" width="40.0" height="29.098359243885227" fill="#ffffff"/><text x="21.0" y="295.72" fill="#000000" style="font-family: &quot;JetBrains Mono&quot;, &quot;Menlo&quot;, &quot;Consolas&quot;, &quot;DejaVu Sans Mono&quot;, &quot;Liberation Mono&quot;, &quot;Roboto Mono&quot;, &quot;Noto Sans Mono&quot;, monospace; font-size: 24.0px;" text-anchor="middle" data-color-bar-letter="true">w</text></g></g><g xmlns="http://www.w3.org/2000/svg" data-channel="label-top"><text x="52.0" y="31.0" fill="#666666" style="font-family: &quot;JetBrains Mono&quot;, &quot;Menlo&quot;, &quot;Consolas&quot;, &quot;DejaVu Sans Mono&quot;, &quot;Liberation Mono&quot;, &quot;Roboto Mono&quot;, &quot;Noto Sans Mono&quot;, monospace; font-size: 24.0px;" dominant-baseline="central">UUID:</text></g><line xmlns="http://www.w3.org/2000/svg" x1="0" y1="0.5" x2="303.0" y2="0.5" stroke="#808080" stroke-width="1" shape-rendering="crispEdges"/><line xmlns="http://www.w3.org/2000/svg" x1="302.5" y1="0" x2="302.5" y2="302.0" stroke="#808080" stroke-width="1" shape-rendering="crispEdges"/><line xmlns="http://www.w3.org/2000/svg" x1="0" y1="301.5" x2="303.0" y2="301.5" stroke="#808080" stroke-width="1" shape-rendering="crispEdges"/><line xmlns="http://www.w3.org/2000/svg" x1="0.5" y1="0" x2="0.5" y2="302.0" stroke="#808080" stroke-width="1" shape-rendering="crispEdges"/><line xmlns="http://www.w3.org/2000/svg" x1="41.5" y1="0" x2="41.5" y2="302.0" stroke="#808080" stroke-width="1" shape-rendering="crispEdges"/></svg><rect x="40.00" y="48.00" width="300.00" height="200.00" fill="none" stroke="#c9cdd4" stroke-width="1"/><text x="40.00" y="36.00" font-family="'DejaVu Sans', 'Bitstream Vera Sans', Verdana, sans-serif" font-size="12px" font-weight="normal" text-anchor="start" font-style="italic" fill="#5a5f6a">one cell, enlarged</text><line x1="190.00" y1="105.50" x2="392.00" y2="66.00" stroke="#3f5b73" stroke-width="1.0"/><line x1="392.00" y1="66.00" x2="410.00" y2="70.00" stroke="#3f5b73" stroke-width="1.0"/><circle cx="190.00" cy="105.50" r="2.6" fill="#3f5b73"/><text x="410.00" y="66.00" font-family="'DejaVu Sans', 'Bitstream Vera Sans', Verdana, sans-serif" font-size="13px" font-weight="bold" text-anchor="start" fill="#2b2b33">nucleus background</text><text x="410.00" y="85.00" font-family="'DejaVu Sans', 'Bitstream Vera Sans', Verdana, sans-serif" font-size="12px" font-weight="normal" text-anchor="start" fill="#5a5f6a">the 24-bit token read as a 24-bit RGB color</text><line x1="190.00" y1="105.50" x2="392.00" y2="128.00" stroke="#3f5b73" stroke-width="1.0"/><line x1="392.00" y1="128.00" x2="410.00" y2="132.00" stroke="#3f5b73" stroke-width="1.0"/><circle cx="190.00" cy="105.50" r="2.6" fill="#3f5b73"/><text x="410.00" y="128.00" font-family="'DejaVu Sans', 'Bitstream Vera Sans', Verdana, sans-serif" font-size="13px" font-weight="bold" text-anchor="start" fill="#2b2b33">lossless ≤ 512 bits</text><text x="410.00" y="147.00" font-family="'DejaVu Sans', 'Bitstream Vera Sans', Verdana, sans-serif" font-size="12px" font-weight="normal" text-anchor="start" fill="#5a5f6a">derived from the entropy, not the fingerprint</text><line x1="190.00" y1="138.00" x2="392.00" y2="190.00" stroke="#3f5b73" stroke-width="1.0"/><line x1="392.00" y1="190.00" x2="410.00" y2="194.00" stroke="#3f5b73" stroke-width="1.0"/><circle cx="190.00" cy="138.00" r="2.6" fill="#3f5b73"/><text x="410.00" y="190.00" font-family="'DejaVu Sans', 'Bitstream Vera Sans', Verdana, sans-serif" font-size="13px" font-weight="bold" text-anchor="start" fill="#2b2b33">a redundant hint, not primary</text><text x="410.00" y="209.00" font-family="'DejaVu Sans', 'Bitstream Vera Sans', Verdana, sans-serif" font-size="12px" font-weight="normal" text-anchor="start" fill="#5a5f6a">fine gradations fall below the JND / vanish &lt; 16M colors</text></svg>
