<svg width="248" height="200.333" viewBox="0 0 248 200.333" xmlns="http://www.w3.org/2000/svg" font-family="&quot;JetBrains Mono&quot;, &quot;Menlo&quot;, &quot;Consolas&quot;, &quot;DejaVu Sans Mono&quot;, &quot;Liberation Mono&quot;, &quot;Roboto Mono&quot;, &quot;Noto Sans Mono&quot;, monospace" data-entviz-version="v11" data-entviz-lib="0.10.0" data-input-bytes="40" data-cols="3" data-rows="3"><defs><clipPath id="grid-clip-f589bd6555251ece-3x3"><rect x="31.167" y="30.167" width="210" height="140"/></clipPath></defs><rect x="0" y="0" width="248" height="200.333" fill="#ffffff"/><g data-channel="grid"><rect x="31.167" y="30.167" width="210" height="140" fill="#ff3f2f"/><g><path fill="#e7be00" d="M31.167 30.167h7v11.667h-7zM45.167 30.167h7v11.667h-7zM52.167 30.167h7v11.667h-7zM59.167 30.167h7v11.667h-7zM66.167 30.167h7v11.667h-7zM80.167 30.167h7v11.667h-7zM87.167 30.167h7v11.667h-7zM94.167 53.5h7v11.667h-7zM73.167 65.167h7v11.667h-7zM66.167 65.167h7v11.667h-7zM52.167 65.167h7v11.667h-7zM38.167 65.167h7v11.667h-7zM31.167 65.167h7v11.667h-7zM31.167 53.5h7v11.667h-7zM31.167 41.833h7v11.667h-7z"/><path fill="#2f3fbf" d="M171.167 30.167h7v11.667h-7zM185.167 30.167h7v11.667h-7zM206.167 30.167h7v11.667h-7zM227.167 30.167h7v11.667h-7zM234.167 41.833h7v11.667h-7zM234.167 65.167h7v11.667h-7zM220.167 65.167h7v11.667h-7zM206.167 65.167h7v11.667h-7zM192.167 65.167h7v11.667h-7zM171.167 65.167h7v11.667h-7zM171.167 53.5h7v11.667h-7z"/><path fill="#e7be00" d="M31.167 76.833h7v11.667h-7zM59.167 76.833h7v11.667h-7zM73.167 76.833h7v11.667h-7zM94.167 76.833h7v11.667h-7zM94.167 88.5h7v11.667h-7zM94.167 100.167h7v11.667h-7zM80.167 111.833h7v11.667h-7zM73.167 111.833h7v11.667h-7zM59.167 111.833h7v11.667h-7zM52.167 111.833h7v11.667h-7zM45.167 111.833h7v11.667h-7zM38.167 111.833h7v11.667h-7z"/><path fill="#ffffff" d="M178.167 76.833h7v11.667h-7zM185.167 76.833h7v11.667h-7zM192.167 76.833h7v11.667h-7zM213.167 76.833h7v11.667h-7zM234.167 111.833h7v11.667h-7zM227.167 111.833h7v11.667h-7zM220.167 111.833h7v11.667h-7zM206.167 111.833h7v11.667h-7zM199.167 111.833h7v11.667h-7zM171.167 111.833h7v11.667h-7z"/><path fill="#e7be00" d="M31.167 123.5h7v11.667h-7zM38.167 123.5h7v11.667h-7zM45.167 123.5h7v11.667h-7zM52.167 123.5h7v11.667h-7zM66.167 123.5h7v11.667h-7zM80.167 123.5h7v11.667h-7zM94.167 123.5h7v11.667h-7zM94.167 146.833h7v11.667h-7zM80.167 158.5h7v11.667h-7zM66.167 158.5h7v11.667h-7zM59.167 158.5h7v11.667h-7zM52.167 158.5h7v11.667h-7zM31.167 158.5h7v11.667h-7zM31.167 146.833h7v11.667h-7z"/><path fill="#e7be00" d="M101.167 123.5h7v11.667h-7zM122.167 123.5h7v11.667h-7zM136.167 123.5h7v11.667h-7zM143.167 123.5h7v11.667h-7zM150.167 123.5h7v11.667h-7zM164.167 146.833h7v11.667h-7zM164.167 158.5h7v11.667h-7zM150.167 158.5h7v11.667h-7zM122.167 158.5h7v11.667h-7zM108.167 158.5h7v11.667h-7z"/><path fill="#2f3fbf" d="M171.167 123.5h7v11.667h-7zM178.167 123.5h7v11.667h-7zM185.167 123.5h7v11.667h-7zM192.167 123.5h7v11.667h-7zM206.167 123.5h7v11.667h-7zM213.167 123.5h7v11.667h-7zM220.167 123.5h7v11.667h-7zM227.167 123.5h7v11.667h-7zM234.167 146.833h7v11.667h-7zM234.167 158.5h7v11.667h-7zM199.167 158.5h7v11.667h-7zM185.167 158.5h7v11.667h-7zM178.167 158.5h7v11.667h-7zM171.167 146.833h7v11.667h-7z"/></g><g clip-path="url(#grid-clip-f589bd6555251ece-3x3)" data-channel="ellipse" data-ellipse-anchor-x="31.167" data-ellipse-anchor-y="76.833" data-ellipse-rx="89.165" data-ellipse-ry="72.619" data-ellipse-rotation-deg="108"><ellipse cx="31.167" cy="76.833" rx="89.165" ry="72.619" transform="rotate(108 31.167 76.833)" fill="#000000" stroke="#000000" fill-opacity="0.25" stroke-opacity="0.35" stroke-width="2.333"/></g><g><g data-channel="cell" data-cell-index="0" data-cell-row="0" data-cell-col="0" data-surround-bits="0xf589bd" data-edge-color="#e7be00" data-cell-quartile="1"><rect x="38.167" y="41.833" width="56" height="23.333" fill="#5ed918"/><text x="66.167" y="53.5" fill="#000000" font-size="13.333" text-anchor="middle" dominant-baseline="central">18d95e</text><polygon points="38.167,41.833 49.833,41.833 38.167,53.5" fill="#000000"/></g><g data-channel="cell" data-cell-index="1" data-cell-row="0" data-cell-col="1" data-cell-blank="true" data-cell-blank-map="true"><rect x="108.167" y="41.833" width="56" height="23.333" rx="11.667" ry="11.667" fill="#ffffff" stroke="#000000" stroke-width="1"/><circle cx="136.167" cy="61.278" r="4.083" fill="#1d4ed8" data-blank-map-min="2,1"/><path d="M 112.6,45.722 H 122.4 M 117.5,40.822 V 50.622" fill="none" stroke="#d62828" stroke-width="2.246" stroke-linecap="butt" data-blank-map-max="0,0"/></g><g data-channel="cell" data-cell-index="2" data-cell-row="0" data-cell-col="2" data-surround-bits="0x655525" data-edge-color="#2f3fbf"><rect x="178.167" y="41.833" width="56" height="23.333" fill="#8450cf"/><text x="206.167" y="53.5" fill="#ffffff" font-size="13.333" text-anchor="middle" dominant-baseline="central">cf5084</text></g><g data-channel="cell" data-cell-index="3" data-cell-row="1" data-cell-col="0" data-surround-bits="0x1ece51" data-edge-color="#e7be00" data-cell-quartile="2"><rect x="38.167" y="88.5" width="56" height="23.333" fill="#fbe7c8"/><text x="66.167" y="100.167" fill="#000000" font-size="13.333" text-anchor="middle" dominant-baseline="central">c8e7fb</text><polygon points="94.167,88.5 82.5,88.5 94.167,100.167" fill="#000000"/></g><g data-channel="cell" data-cell-index="4" data-cell-row="1" data-cell-col="1" data-cell-blank="true"><rect x="108.167" y="88.5" width="56" height="23.333" rx="11.667" ry="11.667" fill="#000000" stroke="#000000" stroke-width="1"/></g><g data-channel="cell" data-cell-index="5" data-cell-row="1" data-cell-col="2" data-surround-bits="0x23704e" data-edge-color="#ffffff"><rect x="178.167" y="88.5" width="56" height="23.333" fill="#9bacbd"/><text x="206.167" y="100.167" fill="#000000" font-size="13.333" text-anchor="middle" dominant-baseline="central">bdac9b</text></g><g data-channel="cell" data-cell-index="6" data-cell-row="2" data-cell-col="0" data-surround-bits="0x674aaf" data-edge-color="#e7be00" data-cell-quartile="4"><rect x="38.167" y="135.167" width="56" height="23.333" fill="#f31516"/><text x="66.167" y="146.833" fill="#000000" font-size="13.333" text-anchor="middle" dominant-baseline="central">1615f3</text><polygon points="38.167,158.5 38.167,146.833 49.833,158.5" fill="#000000"/></g><g data-channel="cell" data-cell-index="7" data-cell-row="2" data-cell-col="1" data-surround-bits="0x1458e9" data-edge-color="#e7be00" data-cell-quartile="3"><rect x="108.167" y="135.167" width="56" height="23.333" fill="#815c17"/><text x="136.167" y="146.833" fill="#ffffff" font-size="13.333" text-anchor="middle" dominant-baseline="central">175c81</text><polygon points="164.167,158.5 164.167,146.833 152.5,158.5" fill="#ffffff"/></g><g data-channel="cell" data-cell-index="8" data-cell-row="2" data-cell-col="2" data-surround-bits="0x5a19ef" data-edge-color="#2f3fbf"><rect x="178.167" y="135.167" width="56" height="23.333" fill="#1818e7"/><text x="206.167" y="146.833" fill="#ffffff" font-size="13.333" text-anchor="middle" dominant-baseline="central">e718</text></g></g></g><g data-channel="color-bar" data-bar-slots="16" data-bar-marker-left="10" data-bar-marker-right="6"><g data-color-bar-rank="0" data-color-bar-band="G"><rect x="1" y="1" width="23.333" height="92.608" fill="#e7be00"/><text x="12.667" y="90.675" fill="#000000" font-size="13.333" text-anchor="middle" data-color-bar-letter="true">g</text></g><g data-color-bar-rank="1" data-color-bar-band="K"><rect x="1" y="93.608" width="23.333" height="36.476" fill="#000000"/><text x="12.667" y="127.151" fill="#ffffff" font-size="13.333" text-anchor="middle" data-color-bar-letter="true">k</text></g><g data-color-bar-rank="2" data-color-bar-band="B"><rect x="1" y="130.084" width="23.333" height="49.988" fill="#2f3fbf"/><text x="12.667" y="177.138" fill="#ffffff" font-size="13.333" text-anchor="middle" data-color-bar-letter="true">b</text></g><g data-color-bar-rank="3" data-color-bar-band="W"><rect x="1" y="180.071" width="23.333" height="19.262" fill="#ffffff"/><text x="12.667" y="196.4" fill="#000000" font-size="13.333" text-anchor="middle" data-color-bar-letter="true">w</text></g><circle cx="6.367" cy="131.156" r="3.967" fill="#ffffff" stroke="#000000" stroke-width="0.75" data-bar-marker="left"/><circle cx="18.967" cy="81.573" r="3.967" fill="#ffffff" stroke="#000000" stroke-width="0.75" data-bar-marker="right"/></g><g data-channel="label-top"><text x="31.167" y="18.5" fill="#666666" font-size="13.333" dominant-baseline="central">hex(40):</text></g><g data-channel="label-bottom"><text x="241.167" y="181.833" fill="#666666" font-size="13.333" text-anchor="end" dominant-baseline="central"><tspan fill="#808080" data-user-note="git">(git)</tspan></text></g><line x1="0" y1="0.5" x2="248" y2="0.5" stroke="#808080" stroke-width="1" shape-rendering="crispEdges"/><line x1="247.5" y1="0" x2="247.5" y2="200.333" stroke="#808080" stroke-width="1" shape-rendering="crispEdges"/><line x1="0" y1="199.833" x2="248" y2="199.833" stroke="#808080" stroke-width="1" shape-rendering="crispEdges"/><line x1="0.5" y1="0" x2="0.5" y2="200.333" stroke="#808080" stroke-width="1" shape-rendering="crispEdges"/><line x1="24.833" y1="0" x2="24.833" y2="200.333" stroke="#808080" stroke-width="1" shape-rendering="crispEdges"/></svg>
