<svg xmlns="http://www.w3.org/2000/svg" width="1280" height="640" viewBox="0 0 1280 640" font-family="'Helvetica Neue', Arial, 'Segoe UI', Roboto, 'DejaVu Sans', sans-serif">
<defs><filter id="lift" x="-20%" y="-20%" width="140%" height="140%"><feDropShadow dx="0" dy="6" stdDeviation="9" flood-color="#000000" flood-opacity="0.16"/></filter></defs>
<rect width="1280" height="640" fill="#ffffff"/>
<rect x="0" y="0.00" width="26" height="128.00" fill="#ffffff"/>
<rect x="0" y="128.00" width="26" height="128.00" fill="#e7be00"/>
<rect x="0" y="256.00" width="26" height="128.00" fill="#ff3f2f"/>
<rect x="0" y="384.00" width="26" height="128.00" fill="#2f3fbf"/>
<rect x="0" y="512.00" width="26" height="128.00" fill="#000000"/>
<rect x="760.0" y="138.2" width="450.0" height="363.5" rx="8" fill="#ffffff" filter="url(#lift)"/>
<svg x="760.0" y="138.2" width="450.0" height="363.5" viewBox="0 0 248.00000000000003 200.33333333333337"><defs><clipPath id="grid-clip-f589bd6555251ece-3x3"><rect x="31.16666666666667" y="30.16666666666667" width="210.0" height="140.0"/></clipPath></defs><rect x="0" y="0" width="248.00000000000003" height="200.33333333333337" fill="#ffffff"/><g data-channel="grid"><rect x="31.16666666666667" y="30.16666666666667" width="210.0" height="140.0" fill="#ff3f2f"/><g><rect x="31.16666666666667" y="30.166666666666675" width="7.0" height="11.666666666666668" fill="#e7be00"/><rect x="45.16666666666667" y="30.166666666666675" width="7.0" height="11.666666666666668" fill="#e7be00"/><rect x="52.16666666666667" y="30.166666666666675" width="7.0" height="11.666666666666668" fill="#e7be00"/><rect x="59.16666666666667" y="30.166666666666675" width="7.0" height="11.666666666666668" fill="#e7be00"/><rect x="66.16666666666667" y="30.166666666666675" width="7.0" height="11.666666666666668" fill="#e7be00"/><rect x="80.16666666666667" y="30.166666666666675" width="7.0" height="11.666666666666668" fill="#e7be00"/><rect x="87.16666666666667" y="30.166666666666675" width="7.0" height="11.666666666666668" fill="#e7be00"/><rect x="94.16666666666667" y="53.500000000000014" width="7.0" height="11.666666666666668" fill="#e7be00"/><rect x="73.16666666666667" y="65.16666666666669" width="7.0" height="11.666666666666668" fill="#e7be00"/><rect x="66.16666666666667" y="65.16666666666669" width="7.0" height="11.666666666666668" fill="#e7be00"/><rect x="52.16666666666667" y="65.16666666666669" width="7.0" height="11.666666666666668" fill="#e7be00"/><rect x="38.16666666666667" y="65.16666666666669" width="7.0" height="11.666666666666668" fill="#e7be00"/><rect x="31.16666666666667" y="65.16666666666669" width="7.0" height="11.666666666666668" fill="#e7be00"/><rect x="31.16666666666667" y="53.500000000000014" width="7.0" height="11.666666666666668" fill="#e7be00"/><rect x="31.16666666666667" y="41.83333333333334" width="7.0" height="11.666666666666668" fill="#e7be00"/><rect x="171.16666666666669" y="30.166666666666675" width="7.0" height="11.666666666666668" fill="#2f3fbf"/><rect x="185.16666666666669" y="30.166666666666675" width="7.0" height="11.666666666666668" fill="#2f3fbf"/><rect x="206.16666666666669" y="30.166666666666675" width="7.0" height="11.666666666666668" fill="#2f3fbf"/><rect x="227.16666666666669" y="30.166666666666675" width="7.0" height="11.666666666666668" fill="#2f3fbf"/><rect x="234.16666666666669" y="41.83333333333334" width="7.0" height="11.666666666666668" fill="#2f3fbf"/><rect x="234.16666666666669" y="65.16666666666669" width="7.0" height="11.666666666666668" fill="#2f3fbf"/><rect x="220.16666666666669" y="65.16666666666669" width="7.0" height="11.666666666666668" fill="#2f3fbf"/><rect x="206.16666666666669" y="65.16666666666669" width="7.0" height="11.666666666666668" fill="#2f3fbf"/><rect x="192.16666666666669" y="65.16666666666669" width="7.0" height="11.666666666666668" fill="#2f3fbf"/><rect x="171.16666666666669" y="65.16666666666669" width="7.0" height="11.666666666666668" fill="#2f3fbf"/><rect x="171.16666666666669" y="53.500000000000014" width="7.0" height="11.666666666666668" fill="#2f3fbf"/><rect x="31.16666666666667" y="76.83333333333334" width="7.0" height="11.666666666666668" fill="#ffffff"/><rect x="59.16666666666667" y="76.83333333333334" width="7.0" height="11.666666666666668" fill="#ffffff"/><rect x="73.16666666666667" y="76.83333333333334" width="7.0" height="11.666666666666668" fill="#ffffff"/><rect x="94.16666666666667" y="76.83333333333334" width="7.0" height="11.666666666666668" fill="#ffffff"/><rect x="94.16666666666667" y="88.50000000000001" width="7.0" height="11.666666666666668" fill="#ffffff"/><rect x="94.16666666666667" y="100.16666666666669" width="7.0" height="11.666666666666668" fill="#ffffff"/><rect x="80.16666666666667" y="111.83333333333334" width="7.0" height="11.666666666666668" fill="#ffffff"/><rect x="73.16666666666667" y="111.83333333333334" width="7.0" height="11.666666666666668" fill="#ffffff"/><rect x="59.16666666666667" y="111.83333333333334" width="7.0" height="11.666666666666668" fill="#ffffff"/><rect x="52.16666666666667" y="111.83333333333334" width="7.0" height="11.666666666666668" fill="#ffffff"/><rect x="45.16666666666667" y="111.83333333333334" width="7.0" height="11.666666666666668" fill="#ffffff"/><rect x="38.16666666666667" y="111.83333333333334" width="7.0" height="11.666666666666668" fill="#ffffff"/><rect x="178.16666666666669" y="76.83333333333334" width="7.0" height="11.666666666666668" fill="#ffffff"/><rect x="185.16666666666669" y="76.83333333333334" width="7.0" height="11.666666666666668" fill="#ffffff"/><rect x="192.16666666666669" y="76.83333333333334" width="7.0" height="11.666666666666668" fill="#ffffff"/><rect x="213.16666666666669" y="76.83333333333334" width="7.0" height="11.666666666666668" fill="#ffffff"/><rect x="234.16666666666669" y="111.83333333333334" width="7.0" height="11.666666666666668" fill="#ffffff"/><rect x="227.16666666666669" y="111.83333333333334" width="7.0" height="11.666666666666668" fill="#ffffff"/><rect x="220.16666666666669" y="111.83333333333334" width="7.0" height="11.666666666666668" fill="#ffffff"/><rect x="206.16666666666669" y="111.83333333333334" width="7.0" height="11.666666666666668" fill="#ffffff"/><rect x="199.16666666666669" y="111.83333333333334" width="7.0" height="11.666666666666668" fill="#ffffff"/><rect x="171.16666666666669" y="111.83333333333334" width="7.0" height="11.666666666666668" fill="#ffffff"/><rect x="31.16666666666667" y="123.50000000000001" width="7.0" height="11.666666666666668" fill="#e7be00"/><rect x="38.16666666666667" y="123.50000000000001" width="7.0" height="11.666666666666668" fill="#e7be00"/><rect x="45.16666666666667" y="123.50000000000001" width="7.0" height="11.666666666666668" fill="#e7be00"/><rect x="52.16666666666667" y="123.50000000000001" width="7.0" height="11.666666666666668" fill="#e7be00"/><rect x="66.16666666666667" y="123.50000000000001" width="7.0" height="11.666666666666668" fill="#e7be00"/><rect x="80.16666666666667" y="123.50000000000001" width="7.0" height="11.666666666666668" fill="#e7be00"/><rect x="94.16666666666667" y="123.50000000000001" width="7.0" height="11.666666666666668" fill="#e7be00"/><rect x="94.16666666666667" y="146.83333333333334" width="7.0" height="11.666666666666668" fill="#e7be00"/><rect x="80.16666666666667" y="158.50000000000003" width="7.0" height="11.666666666666668" fill="#e7be00"/><rect x="66.16666666666667" y="158.50000000000003" width="7.0" height="11.666666666666668" fill="#e7be00"/><rect x="59.16666666666667" y="158.50000000000003" width="7.0" height="11.666666666666668" fill="#e7be00"/><rect x="52.16666666666667" y="158.50000000000003" width="7.0" height="11.666666666666668" fill="#e7be00"/><rect x="31.16666666666667" y="158.50000000000003" width="7.0" height="11.666666666666668" fill="#e7be00"/><rect x="31.16666666666667" y="146.83333333333334" width="7.0" height="11.666666666666668" fill="#e7be00"/><rect x="101.16666666666667" y="123.50000000000001" width="7.0" height="11.666666666666668" fill="#e7be00"/><rect x="122.16666666666667" y="123.50000000000001" width="7.0" height="11.666666666666668" fill="#e7be00"/><rect x="136.16666666666669" y="123.50000000000001" width="7.0" height="11.666666666666668" fill="#e7be00"/><rect x="143.16666666666669" y="123.50000000000001" width="7.0" height="11.666666666666668" fill="#e7be00"/><rect x="150.16666666666669" y="123.50000000000001" width="7.0" height="11.666666666666668" fill="#e7be00"/><rect x="164.16666666666669" y="146.83333333333334" width="7.0" height="11.666666666666668" fill="#e7be00"/><rect x="164.16666666666669" y="158.50000000000003" width="7.0" height="11.666666666666668" fill="#e7be00"/><rect x="150.16666666666669" y="158.50000000000003" width="7.0" height="11.666666666666668" fill="#e7be00"/><rect x="122.16666666666667" y="158.50000000000003" width="7.0" height="11.666666666666668" fill="#e7be00"/><rect x="108.16666666666667" y="158.50000000000003" width="7.0" height="11.666666666666668" fill="#e7be00"/><rect x="171.16666666666669" y="123.50000000000001" width="7.0" height="11.666666666666668" fill="#2f3fbf"/><rect x="178.16666666666669" y="123.50000000000001" width="7.0" height="11.666666666666668" fill="#2f3fbf"/><rect x="185.16666666666669" y="123.50000000000001" width="7.0" height="11.666666666666668" fill="#2f3fbf"/><rect x="192.16666666666669" y="123.50000000000001" width="7.0" height="11.666666666666668" fill="#2f3fbf"/><rect x="206.16666666666669" y="123.50000000000001" width="7.0" height="11.666666666666668" fill="#2f3fbf"/><rect x="213.16666666666669" y="123.50000000000001" width="7.0" height="11.666666666666668" fill="#2f3fbf"/><rect x="220.16666666666669" y="123.50000000000001" width="7.0" height="11.666666666666668" fill="#2f3fbf"/><rect x="227.16666666666669" y="123.50000000000001" width="7.0" height="11.666666666666668" fill="#2f3fbf"/><rect x="234.16666666666669" y="146.83333333333334" width="7.0" height="11.666666666666668" fill="#2f3fbf"/><rect x="234.16666666666669" y="158.50000000000003" width="7.0" height="11.666666666666668" fill="#2f3fbf"/><rect x="199.16666666666669" y="158.50000000000003" width="7.0" height="11.666666666666668" fill="#2f3fbf"/><rect x="185.16666666666669" y="158.50000000000003" width="7.0" height="11.666666666666668" fill="#2f3fbf"/><rect x="178.16666666666669" y="158.50000000000003" width="7.0" height="11.666666666666668" fill="#2f3fbf"/><rect x="171.16666666666669" y="146.83333333333334" width="7.0" height="11.666666666666668" fill="#2f3fbf"/></g><g clip-path="url(#grid-clip-f589bd6555251ece-3x3)" data-channel="ellipse" data-ellipse-anchor-x="31.16666666666667" data-ellipse-anchor-y="76.83333333333334" data-ellipse-rx="89.16499263226073" data-ellipse-ry="72.61891152524328" data-ellipse-rotation-deg="108.0"><ellipse cx="31.16666666666667" cy="76.83333333333334" rx="89.16499263226073" ry="72.61891152524328" transform="rotate(108.0 31.16666666666667 76.83333333333334)" fill="#000000" stroke="#000000" fill-opacity="0.25" stroke-opacity="0.35" stroke-width="2.3333333333333335"/></g><g><g data-channel="cell" data-cell-index="0" data-cell-row="0" data-cell-col="0" data-cell-quartile="1"><rect x="38.16666666666667" y="41.83333333333334" width="56.0" height="23.333333333333336" fill="#5ed918"/><text x="66.16666666666667" y="53.500000000000014" fill="#000000" style="font-family: &quot;JetBrains Mono&quot;, &quot;Menlo&quot;, &quot;Consolas&quot;, &quot;DejaVu Sans Mono&quot;, &quot;Liberation Mono&quot;, &quot;Roboto Mono&quot;, &quot;Noto Sans Mono&quot;, monospace; font-size: 13.333333333333334px;" text-anchor="middle" dominant-baseline="central">18d95e</text><polygon points="38.16666666666667,41.83333333333334 49.83333333333334,41.83333333333334 38.16666666666667,53.500000000000014" fill="#000000"/></g><g data-channel="cell" data-cell-index="1" data-cell-row="0" data-cell-col="1" data-cell-blank="true" data-cell-blank-map="true"><rect x="108.16666666666667" y="41.83333333333334" width="56.0" height="23.333333333333336" rx="11.666666666666668" ry="11.666666666666668" fill="#ffffff" stroke="#000000" stroke-width="1"/><circle cx="117.5" cy="45.72222222222223" r="4.083333333333334" fill="#d62828" data-blank-map-max="true"/><circle cx="136.16666666666669" cy="61.277777777777786" r="4.083333333333334" fill="#1d4ed8" data-blank-map-min="true"/></g><g data-channel="cell" data-cell-index="2" data-cell-row="0" data-cell-col="2"><rect x="178.16666666666669" y="41.83333333333334" width="56.0" height="23.333333333333336" fill="#8450cf"/><text x="206.16666666666669" y="53.500000000000014" fill="#ffffff" style="font-family: &quot;JetBrains Mono&quot;, &quot;Menlo&quot;, &quot;Consolas&quot;, &quot;DejaVu Sans Mono&quot;, &quot;Liberation Mono&quot;, &quot;Roboto Mono&quot;, &quot;Noto Sans Mono&quot;, monospace; font-size: 13.333333333333334px;" text-anchor="middle" dominant-baseline="central">cf5084</text></g><g data-channel="cell" data-cell-index="3" data-cell-row="1" data-cell-col="0" data-cell-quartile="2"><rect x="38.16666666666667" y="88.50000000000001" width="56.0" height="23.333333333333336" fill="#fbe7c8"/><text x="66.16666666666667" y="100.16666666666669" fill="#000000" style="font-family: &quot;JetBrains Mono&quot;, &quot;Menlo&quot;, &quot;Consolas&quot;, &quot;DejaVu Sans Mono&quot;, &quot;Liberation Mono&quot;, &quot;Roboto Mono&quot;, &quot;Noto Sans Mono&quot;, monospace; font-size: 13.333333333333334px;" text-anchor="middle" dominant-baseline="central">c8e7fb</text><polygon points="94.16666666666667,88.50000000000001 82.5,88.50000000000001 94.16666666666667,100.16666666666669" fill="#000000"/></g><g data-channel="cell" data-cell-index="4" data-cell-row="1" data-cell-col="1" data-cell-blank="true"><rect x="108.16666666666667" y="88.50000000000001" width="56.0" height="23.333333333333336" rx="11.666666666666668" ry="11.666666666666668" fill="none" stroke="#000000" stroke-width="1"/></g><g data-channel="cell" data-cell-index="5" data-cell-row="1" data-cell-col="2"><rect x="178.16666666666669" y="88.50000000000001" width="56.0" height="23.333333333333336" fill="#9bacbd"/><text x="206.16666666666669" y="100.16666666666669" fill="#000000" style="font-family: &quot;JetBrains Mono&quot;, &quot;Menlo&quot;, &quot;Consolas&quot;, &quot;DejaVu Sans Mono&quot;, &quot;Liberation Mono&quot;, &quot;Roboto Mono&quot;, &quot;Noto Sans Mono&quot;, monospace; font-size: 13.333333333333334px;" text-anchor="middle" dominant-baseline="central">bdac9b</text></g><g data-channel="cell" data-cell-index="6" data-cell-row="2" data-cell-col="0" data-cell-quartile="4"><rect x="38.16666666666667" y="135.16666666666669" width="56.0" height="23.333333333333336" fill="#f31516"/><text x="66.16666666666667" y="146.83333333333334" fill="#000000" style="font-family: &quot;JetBrains Mono&quot;, &quot;Menlo&quot;, &quot;Consolas&quot;, &quot;DejaVu Sans Mono&quot;, &quot;Liberation Mono&quot;, &quot;Roboto Mono&quot;, &quot;Noto Sans Mono&quot;, monospace; font-size: 13.333333333333334px;" text-anchor="middle" dominant-baseline="central">1615f3</text><polygon points="38.16666666666667,158.50000000000003 38.16666666666667,146.83333333333337 49.83333333333334,158.50000000000003" fill="#000000"/></g><g data-channel="cell" data-cell-index="7" data-cell-row="2" data-cell-col="1" data-cell-quartile="3"><rect x="108.16666666666667" y="135.16666666666669" width="56.0" height="23.333333333333336" fill="#815c17"/><text x="136.16666666666669" y="146.83333333333334" fill="#ffffff" style="font-family: &quot;JetBrains Mono&quot;, &quot;Menlo&quot;, &quot;Consolas&quot;, &quot;DejaVu Sans Mono&quot;, &quot;Liberation Mono&quot;, &quot;Roboto Mono&quot;, &quot;Noto Sans Mono&quot;, monospace; font-size: 13.333333333333334px;" text-anchor="middle" dominant-baseline="central">175c81</text><polygon points="164.16666666666669,158.50000000000003 164.16666666666669,146.83333333333337 152.50000000000003,158.50000000000003" fill="#ffffff"/></g><g data-channel="cell" data-cell-index="8" data-cell-row="2" data-cell-col="2"><rect x="178.16666666666669" y="135.16666666666669" width="56.0" height="23.333333333333336" fill="#1818e7"/><text x="206.16666666666669" y="146.83333333333334" fill="#ffffff" style="font-family: &quot;JetBrains Mono&quot;, &quot;Menlo&quot;, &quot;Consolas&quot;, &quot;DejaVu Sans Mono&quot;, &quot;Liberation Mono&quot;, &quot;Roboto Mono&quot;, &quot;Noto Sans Mono&quot;, monospace; font-size: 13.333333333333334px;" text-anchor="middle" dominant-baseline="central">e718</text></g></g></g><g data-channel="color-bar"><g data-color-bar-rank="0" data-color-bar-band="G"><rect x="1" y="1" width="23.333333333333336" height="92.60806439591242" fill="#e7be00"/><text x="12.666666666666668" y="90.67473106257908" fill="#000000" style="font-family: &quot;JetBrains Mono&quot;, &quot;Menlo&quot;, &quot;Consolas&quot;, &quot;DejaVu Sans Mono&quot;, &quot;Liberation Mono&quot;, &quot;Roboto Mono&quot;, &quot;Noto Sans Mono&quot;, monospace; font-size: 13.333333333333334px;" text-anchor="middle" data-color-bar-letter="true">g</text></g><g data-color-bar-rank="1" data-color-bar-band="B"><rect x="1" y="93.60806439591242" width="23.333333333333336" height="49.98752663769367" fill="#2f3fbf"/><text x="12.666666666666668" y="140.66225770027276" fill="#ffffff" style="font-family: &quot;JetBrains Mono&quot;, &quot;Menlo&quot;, &quot;Consolas&quot;, &quot;DejaVu Sans Mono&quot;, &quot;Liberation Mono&quot;, &quot;Roboto Mono&quot;, &quot;Noto Sans Mono&quot;, monospace; font-size: 13.333333333333334px;" text-anchor="middle" data-color-bar-letter="true">b</text></g><g data-color-bar-rank="2" data-color-bar-band="K"><rect x="1" y="143.5955910336061" width="23.333333333333336" height="36.47583533224236" fill="#000000"/><text x="12.666666666666668" y="177.13809303251512" fill="#ffffff" style="font-family: &quot;JetBrains Mono&quot;, &quot;Menlo&quot;, &quot;Consolas&quot;, &quot;DejaVu Sans Mono&quot;, &quot;Liberation Mono&quot;, &quot;Roboto Mono&quot;, &quot;Noto Sans Mono&quot;, monospace; font-size: 13.333333333333334px;" text-anchor="middle" data-color-bar-letter="true">k</text></g><g data-color-bar-rank="3" data-color-bar-band="W"><rect x="1" y="180.07142636584845" width="23.333333333333336" height="19.26190696748492" fill="#ffffff"/><text x="12.666666666666668" y="196.40000000000003" fill="#000000" style="font-family: &quot;JetBrains Mono&quot;, &quot;Menlo&quot;, &quot;Consolas&quot;, &quot;DejaVu Sans Mono&quot;, &quot;Liberation Mono&quot;, &quot;Roboto Mono&quot;, &quot;Noto Sans Mono&quot;, monospace; font-size: 13.333333333333334px;" text-anchor="middle" data-color-bar-letter="true">w</text></g></g><g data-channel="label-top"><text x="31.16666666666667" y="18.500000000000004" fill="#666666" style="font-family: &quot;JetBrains Mono&quot;, &quot;Menlo&quot;, &quot;Consolas&quot;, &quot;DejaVu Sans Mono&quot;, &quot;Liberation Mono&quot;, &quot;Roboto Mono&quot;, &quot;Noto Sans Mono&quot;, monospace; font-size: 13.333333333333334px;" dominant-baseline="central">hex(40):</text></g><g data-channel="label-bottom"><text x="241.16666666666669" y="181.83333333333334" fill="#666666" style="font-family: &quot;JetBrains Mono&quot;, &quot;Menlo&quot;, &quot;Consolas&quot;, &quot;DejaVu Sans Mono&quot;, &quot;Liberation Mono&quot;, &quot;Roboto Mono&quot;, &quot;Noto Sans Mono&quot;, monospace; font-size: 13.333333333333334px;" text-anchor="end" dominant-baseline="central"><tspan fill="#808080" data-user-note="git">(git)</tspan></text></g><line x1="0" y1="0.5" x2="248.00000000000003" y2="0.5" stroke="#808080" stroke-width="1" shape-rendering="crispEdges"/><line x1="247.50000000000003" y1="0" x2="247.50000000000003" y2="200.33333333333337" stroke="#808080" stroke-width="1" shape-rendering="crispEdges"/><line x1="0" y1="199.83333333333337" x2="248.00000000000003" y2="199.83333333333337" stroke="#808080" stroke-width="1" shape-rendering="crispEdges"/><line x1="0.5" y1="0" x2="0.5" y2="200.33333333333337" stroke="#808080" stroke-width="1" shape-rendering="crispEdges"/><line x1="24.833333333333336" y1="0" x2="24.833333333333336" y2="200.33333333333337" stroke="#808080" stroke-width="1" shape-rendering="crispEdges"/></svg>
<rect x="760.0" y="138.2" width="450.0" height="363.5" rx="8" fill="none" stroke="#dddddd" stroke-width="1"/>
<text x="985.0" y="529.8" font-family="'JetBrains Mono', 'Menlo', 'Consolas', 'DejaVu Sans Mono', monospace" font-size="22" fill="#9a9a9a" text-anchor="middle">root commit 18d95ec</text>
<text x="78" y="156" font-size="34" font-weight="600" fill="#6b6b6b" letter-spacing="2">dhh1128</text>
<text x="78" y="300" font-size="140" font-weight="800" fill="#111111" letter-spacing="-2">entviz</text>
<rect x="78" y="332" width="120" height="6" fill="#ff3f2f"/>
<text x="78" y="408" font-size="32" fill="#333333">Visualize high-entropy values</text>
<text x="78" y="452" font-size="32" fill="#333333">as diagrams a human can</text>
<text x="78" y="496" font-size="32" fill="#333333">compare at a glance.</text>
<circle cx="87" cy="553" r="9" fill="#3572A5"/>
<text x="106" y="562" font-size="26" fill="#333333">Python</text>
<text x="248" y="562" font-size="26" fill="#9a9a9a">Apache-2.0</text>
</svg>
