<svg xmlns="http://www.w3.org/2000/svg" width="1280" height="640" viewBox="0 0 1280 640" font-family="'Helvetica Neue', Arial, 'Segoe UI', Roboto, 'DejaVu Sans', sans-serif">
<defs><filter id="lift" x="-20%" y="-20%" width="140%" height="140%"><feDropShadow dx="0" dy="6" stdDeviation="9" flood-color="#000000" flood-opacity="0.16"/></filter></defs>
<rect width="1280" height="640" fill="#ffffff"/>
<rect x="0" y="0.00" width="26" height="128.00" fill="#ffffff"/>
<rect x="0" y="128.00" width="26" height="128.00" fill="#e7be00"/>
<rect x="0" y="256.00" width="26" height="128.00" fill="#ff3f2f"/>
<rect x="0" y="384.00" width="26" height="128.00" fill="#2f3fbf"/>
<rect x="0" y="512.00" width="26" height="128.00" fill="#000000"/>
<rect x="760.0" y="138.2" width="450.0" height="363.5" rx="8" fill="#ffffff" filter="url(#lift)"/>
<svg x="760.0" y="138.2" width="450.0" height="363.5" viewBox="0 0 248 200.333"><defs><clipPath id="grid-clip-f589bd6555251ece-3x3"><rect x="31.167" y="30.167" width="210" height="140"/></clipPath></defs><rect x="0" y="0" width="248" height="200.333" fill="#ffffff"/><g data-channel="grid"><rect x="31.167" y="30.167" width="210" height="140" fill="#ff3f2f"/><g><rect x="31.167" y="30.167" width="7" height="11.667" fill="#e7be00"/><rect x="45.167" y="30.167" width="7" height="11.667" fill="#e7be00"/><rect x="52.167" y="30.167" width="7" height="11.667" fill="#e7be00"/><rect x="59.167" y="30.167" width="7" height="11.667" fill="#e7be00"/><rect x="66.167" y="30.167" width="7" height="11.667" fill="#e7be00"/><rect x="80.167" y="30.167" width="7" height="11.667" fill="#e7be00"/><rect x="87.167" y="30.167" width="7" height="11.667" fill="#e7be00"/><rect x="94.167" y="53.5" width="7" height="11.667" fill="#e7be00"/><rect x="73.167" y="65.167" width="7" height="11.667" fill="#e7be00"/><rect x="66.167" y="65.167" width="7" height="11.667" fill="#e7be00"/><rect x="52.167" y="65.167" width="7" height="11.667" fill="#e7be00"/><rect x="38.167" y="65.167" width="7" height="11.667" fill="#e7be00"/><rect x="31.167" y="65.167" width="7" height="11.667" fill="#e7be00"/><rect x="31.167" y="53.5" width="7" height="11.667" fill="#e7be00"/><rect x="31.167" y="41.833" width="7" height="11.667" fill="#e7be00"/><rect x="171.167" y="30.167" width="7" height="11.667" fill="#2f3fbf"/><rect x="185.167" y="30.167" width="7" height="11.667" fill="#2f3fbf"/><rect x="206.167" y="30.167" width="7" height="11.667" fill="#2f3fbf"/><rect x="227.167" y="30.167" width="7" height="11.667" fill="#2f3fbf"/><rect x="234.167" y="41.833" width="7" height="11.667" fill="#2f3fbf"/><rect x="234.167" y="65.167" width="7" height="11.667" fill="#2f3fbf"/><rect x="220.167" y="65.167" width="7" height="11.667" fill="#2f3fbf"/><rect x="206.167" y="65.167" width="7" height="11.667" fill="#2f3fbf"/><rect x="192.167" y="65.167" width="7" height="11.667" fill="#2f3fbf"/><rect x="171.167" y="65.167" width="7" height="11.667" fill="#2f3fbf"/><rect x="171.167" y="53.5" width="7" height="11.667" fill="#2f3fbf"/><rect x="31.167" y="76.833" width="7" height="11.667" fill="#e7be00"/><rect x="59.167" y="76.833" width="7" height="11.667" fill="#e7be00"/><rect x="73.167" y="76.833" width="7" height="11.667" fill="#e7be00"/><rect x="94.167" y="76.833" width="7" height="11.667" fill="#e7be00"/><rect x="94.167" y="88.5" width="7" height="11.667" fill="#e7be00"/><rect x="94.167" y="100.167" width="7" height="11.667" fill="#e7be00"/><rect x="80.167" y="111.833" width="7" height="11.667" fill="#e7be00"/><rect x="73.167" y="111.833" width="7" height="11.667" fill="#e7be00"/><rect x="59.167" y="111.833" width="7" height="11.667" fill="#e7be00"/><rect x="52.167" y="111.833" width="7" height="11.667" fill="#e7be00"/><rect x="45.167" y="111.833" width="7" height="11.667" fill="#e7be00"/><rect x="38.167" y="111.833" width="7" height="11.667" fill="#e7be00"/><rect x="178.167" y="76.833" width="7" height="11.667" fill="#ffffff"/><rect x="185.167" y="76.833" width="7" height="11.667" fill="#ffffff"/><rect x="192.167" y="76.833" width="7" height="11.667" fill="#ffffff"/><rect x="213.167" y="76.833" width="7" height="11.667" fill="#ffffff"/><rect x="234.167" y="111.833" width="7" height="11.667" fill="#ffffff"/><rect x="227.167" y="111.833" width="7" height="11.667" fill="#ffffff"/><rect x="220.167" y="111.833" width="7" height="11.667" fill="#ffffff"/><rect x="206.167" y="111.833" width="7" height="11.667" fill="#ffffff"/><rect x="199.167" y="111.833" width="7" height="11.667" fill="#ffffff"/><rect x="171.167" y="111.833" width="7" height="11.667" fill="#ffffff"/><rect x="31.167" y="123.5" width="7" height="11.667" fill="#e7be00"/><rect x="38.167" y="123.5" width="7" height="11.667" fill="#e7be00"/><rect x="45.167" y="123.5" width="7" height="11.667" fill="#e7be00"/><rect x="52.167" y="123.5" width="7" height="11.667" fill="#e7be00"/><rect x="66.167" y="123.5" width="7" height="11.667" fill="#e7be00"/><rect x="80.167" y="123.5" width="7" height="11.667" fill="#e7be00"/><rect x="94.167" y="123.5" width="7" height="11.667" fill="#e7be00"/><rect x="94.167" y="146.833" width="7" height="11.667" fill="#e7be00"/><rect x="80.167" y="158.5" width="7" height="11.667" fill="#e7be00"/><rect x="66.167" y="158.5" width="7" height="11.667" fill="#e7be00"/><rect x="59.167" y="158.5" width="7" height="11.667" fill="#e7be00"/><rect x="52.167" y="158.5" width="7" height="11.667" fill="#e7be00"/><rect x="31.167" y="158.5" width="7" height="11.667" fill="#e7be00"/><rect x="31.167" y="146.833" width="7" height="11.667" fill="#e7be00"/><rect x="101.167" y="123.5" width="7" height="11.667" fill="#e7be00"/><rect x="122.167" y="123.5" width="7" height="11.667" fill="#e7be00"/><rect x="136.167" y="123.5" width="7" height="11.667" fill="#e7be00"/><rect x="143.167" y="123.5" width="7" height="11.667" fill="#e7be00"/><rect x="150.167" y="123.5" width="7" height="11.667" fill="#e7be00"/><rect x="164.167" y="146.833" width="7" height="11.667" fill="#e7be00"/><rect x="164.167" y="158.5" width="7" height="11.667" fill="#e7be00"/><rect x="150.167" y="158.5" width="7" height="11.667" fill="#e7be00"/><rect x="122.167" y="158.5" width="7" height="11.667" fill="#e7be00"/><rect x="108.167" y="158.5" width="7" height="11.667" fill="#e7be00"/><rect x="171.167" y="123.5" width="7" height="11.667" fill="#2f3fbf"/><rect x="178.167" y="123.5" width="7" height="11.667" fill="#2f3fbf"/><rect x="185.167" y="123.5" width="7" height="11.667" fill="#2f3fbf"/><rect x="192.167" y="123.5" width="7" height="11.667" fill="#2f3fbf"/><rect x="206.167" y="123.5" width="7" height="11.667" fill="#2f3fbf"/><rect x="213.167" y="123.5" width="7" height="11.667" fill="#2f3fbf"/><rect x="220.167" y="123.5" width="7" height="11.667" fill="#2f3fbf"/><rect x="227.167" y="123.5" width="7" height="11.667" fill="#2f3fbf"/><rect x="234.167" y="146.833" width="7" height="11.667" fill="#2f3fbf"/><rect x="234.167" y="158.5" width="7" height="11.667" fill="#2f3fbf"/><rect x="199.167" y="158.5" width="7" height="11.667" fill="#2f3fbf"/><rect x="185.167" y="158.5" width="7" height="11.667" fill="#2f3fbf"/><rect x="178.167" y="158.5" width="7" height="11.667" fill="#2f3fbf"/><rect x="171.167" y="146.833" width="7" height="11.667" fill="#2f3fbf"/></g><g clip-path="url(#grid-clip-f589bd6555251ece-3x3)" data-channel="ellipse" data-ellipse-anchor-x="31.167" data-ellipse-anchor-y="76.833" data-ellipse-rx="89.165" data-ellipse-ry="72.619" data-ellipse-rotation-deg="108"><ellipse cx="31.167" cy="76.833" rx="89.165" ry="72.619" transform="rotate(108 31.167 76.833)" fill="#000000" stroke="#000000" fill-opacity="0.25" stroke-opacity="0.35" stroke-width="2.333"/></g><g><g data-channel="cell" data-cell-index="0" data-cell-row="0" data-cell-col="0" data-cell-quartile="1"><rect x="38.167" y="41.833" width="56" height="23.333" fill="#5ed918"/><text x="66.167" y="53.5" fill="#000000" font-size="13.333" text-anchor="middle" dominant-baseline="central">18d95e</text><polygon points="38.167,41.833 49.833,41.833 38.167,53.5" fill="#000000"/></g><g data-channel="cell" data-cell-index="1" data-cell-row="0" data-cell-col="1" data-cell-blank="true" data-cell-blank-map="true"><rect x="108.167" y="41.833" width="56" height="23.333" rx="11.667" ry="11.667" fill="#ffffff" stroke="#000000" stroke-width="1"/><circle cx="136.167" cy="61.278" r="4.083" fill="#1d4ed8" data-blank-map-min="2,1"/><path d="M 112.6,45.722 H 122.4 M 117.5,40.822 V 50.622" fill="none" stroke="#d62828" stroke-width="2.246" stroke-linecap="butt" data-blank-map-max="0,0"/></g><g data-channel="cell" data-cell-index="2" data-cell-row="0" data-cell-col="2"><rect x="178.167" y="41.833" width="56" height="23.333" fill="#8450cf"/><text x="206.167" y="53.5" fill="#ffffff" font-size="13.333" text-anchor="middle" dominant-baseline="central">cf5084</text></g><g data-channel="cell" data-cell-index="3" data-cell-row="1" data-cell-col="0" data-cell-quartile="2"><rect x="38.167" y="88.5" width="56" height="23.333" fill="#fbe7c8"/><text x="66.167" y="100.167" fill="#000000" font-size="13.333" text-anchor="middle" dominant-baseline="central">c8e7fb</text><polygon points="94.167,88.5 82.5,88.5 94.167,100.167" fill="#000000"/></g><g data-channel="cell" data-cell-index="4" data-cell-row="1" data-cell-col="1" data-cell-blank="true"><rect x="108.167" y="88.5" width="56" height="23.333" rx="11.667" ry="11.667" fill="#000000" stroke="#000000" stroke-width="1"/></g><g data-channel="cell" data-cell-index="5" data-cell-row="1" data-cell-col="2"><rect x="178.167" y="88.5" width="56" height="23.333" fill="#9bacbd"/><text x="206.167" y="100.167" fill="#000000" font-size="13.333" text-anchor="middle" dominant-baseline="central">bdac9b</text></g><g data-channel="cell" data-cell-index="6" data-cell-row="2" data-cell-col="0" data-cell-quartile="4"><rect x="38.167" y="135.167" width="56" height="23.333" fill="#f31516"/><text x="66.167" y="146.833" fill="#000000" font-size="13.333" text-anchor="middle" dominant-baseline="central">1615f3</text><polygon points="38.167,158.5 38.167,146.833 49.833,158.5" fill="#000000"/></g><g data-channel="cell" data-cell-index="7" data-cell-row="2" data-cell-col="1" data-cell-quartile="3"><rect x="108.167" y="135.167" width="56" height="23.333" fill="#815c17"/><text x="136.167" y="146.833" fill="#ffffff" font-size="13.333" text-anchor="middle" dominant-baseline="central">175c81</text><polygon points="164.167,158.5 164.167,146.833 152.5,158.5" fill="#ffffff"/></g><g data-channel="cell" data-cell-index="8" data-cell-row="2" data-cell-col="2"><rect x="178.167" y="135.167" width="56" height="23.333" fill="#1818e7"/><text x="206.167" y="146.833" fill="#ffffff" font-size="13.333" text-anchor="middle" dominant-baseline="central">e718</text></g></g></g><g data-channel="color-bar" data-bar-slots="16" data-bar-marker-left="10" data-bar-marker-right="6"><g data-color-bar-rank="0" data-color-bar-band="G"><rect x="1" y="1" width="23.333" height="92.608" fill="#e7be00"/><text x="12.667" y="90.675" fill="#000000" font-size="13.333" text-anchor="middle" data-color-bar-letter="true">g</text></g><g data-color-bar-rank="1" data-color-bar-band="K"><rect x="1" y="93.608" width="23.333" height="36.476" fill="#000000"/><text x="12.667" y="127.151" fill="#ffffff" font-size="13.333" text-anchor="middle" data-color-bar-letter="true">k</text></g><g data-color-bar-rank="2" data-color-bar-band="B"><rect x="1" y="130.084" width="23.333" height="49.988" fill="#2f3fbf"/><text x="12.667" y="177.138" fill="#ffffff" font-size="13.333" text-anchor="middle" data-color-bar-letter="true">b</text></g><g data-color-bar-rank="3" data-color-bar-band="W"><rect x="1" y="180.071" width="23.333" height="19.262" fill="#ffffff"/><text x="12.667" y="196.4" fill="#000000" font-size="13.333" text-anchor="middle" data-color-bar-letter="true">w</text></g><circle cx="6.367" cy="131.156" r="3.967" fill="#ffffff" stroke="#000000" stroke-width="0.75" data-bar-marker="left"/><circle cx="18.967" cy="81.573" r="3.967" fill="#ffffff" stroke="#000000" stroke-width="0.75" data-bar-marker="right"/></g><g data-channel="label-top"><text x="31.167" y="18.5" fill="#666666" font-size="13.333" dominant-baseline="central">hex(40):</text></g><g data-channel="label-bottom"><text x="241.167" y="181.833" fill="#666666" font-size="13.333" text-anchor="end" dominant-baseline="central"><tspan fill="#808080" data-user-note="git">(git)</tspan></text></g><line x1="0" y1="0.5" x2="248" y2="0.5" stroke="#808080" stroke-width="1" shape-rendering="crispEdges"/><line x1="247.5" y1="0" x2="247.5" y2="200.333" stroke="#808080" stroke-width="1" shape-rendering="crispEdges"/><line x1="0" y1="199.833" x2="248" y2="199.833" stroke="#808080" stroke-width="1" shape-rendering="crispEdges"/><line x1="0.5" y1="0" x2="0.5" y2="200.333" stroke="#808080" stroke-width="1" shape-rendering="crispEdges"/><line x1="24.833" y1="0" x2="24.833" y2="200.333" stroke="#808080" stroke-width="1" shape-rendering="crispEdges"/></svg>
<rect x="760.0" y="138.2" width="450.0" height="363.5" rx="8" fill="none" stroke="#dddddd" stroke-width="1"/>
<text x="985.0" y="529.8" font-family="'JetBrains Mono', 'Menlo', 'Consolas', 'DejaVu Sans Mono', monospace" font-size="22" fill="#9a9a9a" text-anchor="middle">root commit 18d95ec</text>
<text x="78" y="156" font-size="34" font-weight="600" fill="#6b6b6b" letter-spacing="2">dhh1128</text>
<text x="78" y="300" font-size="140" font-weight="800" fill="#111111" letter-spacing="-2">entviz</text>
<rect x="78" y="332" width="120" height="6" fill="#ff3f2f"/>
<text x="78" y="408" font-size="32" fill="#333333">Visualize high-entropy values</text>
<text x="78" y="452" font-size="32" fill="#333333">as diagrams a human can</text>
<text x="78" y="496" font-size="32" fill="#333333">compare at a glance.</text>
<circle cx="87" cy="553" r="9" fill="#3572A5"/>
<text x="106" y="562" font-size="26" fill="#333333">Python</text>
<text x="248" y="562" font-size="26" fill="#9a9a9a">Apache-2.0</text>
</svg>
