<svg xmlns="http://www.w3.org/2000/svg" width="1280" height="640" viewBox="0 0 1280 640" font-family="'Helvetica Neue', Arial, 'Segoe UI', Roboto, 'DejaVu Sans', sans-serif">
<defs><filter id="lift" x="-20%" y="-20%" width="140%" height="140%"><feDropShadow dx="0" dy="6" stdDeviation="9" flood-color="#000000" flood-opacity="0.16"/></filter></defs>
<rect width="1280" height="640" fill="#ffffff"/>
<rect x="0" y="0.00" width="26" height="128.00" fill="#ffffff"/>
<rect x="0" y="128.00" width="26" height="128.00" fill="#e7be00"/>
<rect x="0" y="256.00" width="26" height="128.00" fill="#ff3f2f"/>
<rect x="0" y="384.00" width="26" height="128.00" fill="#2f3fbf"/>
<rect x="0" y="512.00" width="26" height="128.00" fill="#000000"/>
<rect x="760.0" y="137.9" width="450.0" height="364.2" rx="8" fill="#ffffff" filter="url(#lift)"/>
<svg x="760.0" y="137.9" width="450.0" height="364.2" viewBox="0 0 250 202.333"><defs><clipPath id="grid-clip-f589bd6555251ece-3x3"><rect x="32.167" y="31.167" width="210" height="140"/></clipPath></defs><rect x="1" y="1" width="248" height="200.333" fill="#ffffff"/><g data-channel="grid"><rect x="32.167" y="31.167" width="210" height="140" fill="#ff3f2f"/><g><path fill="#e7be00" d="M32.167 31.167h7v11.667h-7zM46.167 31.167h7v11.667h-7zM53.167 31.167h7v11.667h-7zM60.167 31.167h7v11.667h-7zM67.167 31.167h7v11.667h-7zM81.167 31.167h7v11.667h-7zM88.167 31.167h7v11.667h-7zM95.167 54.5h7v11.667h-7zM74.167 66.167h7v11.667h-7zM67.167 66.167h7v11.667h-7zM53.167 66.167h7v11.667h-7zM39.167 66.167h7v11.667h-7zM32.167 66.167h7v11.667h-7zM32.167 54.5h7v11.667h-7zM32.167 42.833h7v11.667h-7z"/><path fill="#2f3fbf" d="M172.167 31.167h7v11.667h-7zM186.167 31.167h7v11.667h-7zM207.167 31.167h7v11.667h-7zM228.167 31.167h7v11.667h-7zM235.167 42.833h7v11.667h-7zM235.167 66.167h7v11.667h-7zM221.167 66.167h7v11.667h-7zM207.167 66.167h7v11.667h-7zM193.167 66.167h7v11.667h-7zM172.167 66.167h7v11.667h-7zM172.167 54.5h7v11.667h-7z"/><path fill="#e7be00" d="M32.167 77.833h7v11.667h-7zM60.167 77.833h7v11.667h-7zM74.167 77.833h7v11.667h-7zM95.167 77.833h7v11.667h-7zM95.167 89.5h7v11.667h-7zM95.167 101.167h7v11.667h-7zM81.167 112.833h7v11.667h-7zM74.167 112.833h7v11.667h-7zM60.167 112.833h7v11.667h-7zM53.167 112.833h7v11.667h-7zM46.167 112.833h7v11.667h-7zM39.167 112.833h7v11.667h-7z"/><path fill="#ffffff" d="M179.167 77.833h7v11.667h-7zM186.167 77.833h7v11.667h-7zM193.167 77.833h7v11.667h-7zM214.167 77.833h7v11.667h-7zM235.167 112.833h7v11.667h-7zM228.167 112.833h7v11.667h-7zM221.167 112.833h7v11.667h-7zM207.167 112.833h7v11.667h-7zM200.167 112.833h7v11.667h-7zM172.167 112.833h7v11.667h-7z"/><path fill="#e7be00" d="M32.167 124.5h7v11.667h-7zM39.167 124.5h7v11.667h-7zM46.167 124.5h7v11.667h-7zM53.167 124.5h7v11.667h-7zM67.167 124.5h7v11.667h-7zM81.167 124.5h7v11.667h-7zM95.167 124.5h7v11.667h-7zM95.167 147.833h7v11.667h-7zM81.167 159.5h7v11.667h-7zM67.167 159.5h7v11.667h-7zM60.167 159.5h7v11.667h-7zM53.167 159.5h7v11.667h-7zM32.167 159.5h7v11.667h-7zM32.167 147.833h7v11.667h-7z"/><path fill="#e7be00" d="M102.167 124.5h7v11.667h-7zM123.167 124.5h7v11.667h-7zM137.167 124.5h7v11.667h-7zM144.167 124.5h7v11.667h-7zM151.167 124.5h7v11.667h-7zM165.167 147.833h7v11.667h-7zM165.167 159.5h7v11.667h-7zM151.167 159.5h7v11.667h-7zM123.167 159.5h7v11.667h-7zM109.167 159.5h7v11.667h-7z"/><path fill="#2f3fbf" d="M172.167 124.5h7v11.667h-7zM179.167 124.5h7v11.667h-7zM186.167 124.5h7v11.667h-7zM193.167 124.5h7v11.667h-7zM207.167 124.5h7v11.667h-7zM214.167 124.5h7v11.667h-7zM221.167 124.5h7v11.667h-7zM228.167 124.5h7v11.667h-7zM235.167 147.833h7v11.667h-7zM235.167 159.5h7v11.667h-7zM200.167 159.5h7v11.667h-7zM186.167 159.5h7v11.667h-7zM179.167 159.5h7v11.667h-7zM172.167 147.833h7v11.667h-7z"/></g><g clip-path="url(#grid-clip-f589bd6555251ece-3x3)" data-channel="ellipse" data-ellipse-anchor-x="32.167" data-ellipse-anchor-y="77.833" data-ellipse-rx="89.165" data-ellipse-ry="72.619" data-ellipse-rotation-deg="108"><ellipse cx="32.167" cy="77.833" rx="89.165" ry="72.619" transform="rotate(108 32.167 77.833)" fill="#000000" stroke="#000000" fill-opacity="0.25" stroke-opacity="0.35" stroke-width="2.333"/></g><g><g data-channel="cell" data-cell-index="0" data-cell-row="0" data-cell-col="0" data-surround-bits="0xf589bd" data-edge-color="#e7be00" data-cell-quartile="1"><rect x="39.167" y="42.833" width="56" height="23.333" fill="#5ed918"/><text x="67.167" y="54.5" fill="#000000" font-size="13.333" text-anchor="middle" dominant-baseline="central">18d95e</text><polygon points="39.167,42.833 50.833,42.833 39.167,54.5" fill="#000000"/></g><g data-channel="cell" data-cell-index="1" data-cell-row="0" data-cell-col="1" data-cell-blank="true" data-cell-blank-map="true"><rect x="109.167" y="42.833" width="56" height="23.333" rx="11.667" ry="11.667" fill="#ffffff" stroke="#000000" stroke-width="1"/><circle cx="137.167" cy="62.278" r="4.083" fill="#1d4ed8" data-blank-map-min="2,1"/><path d="M 113.6,46.722 H 123.4 M 118.5,41.822 V 51.622" fill="none" stroke="#d62828" stroke-width="2.246" stroke-linecap="butt" data-blank-map-max="0,0"/></g><g data-channel="cell" data-cell-index="2" data-cell-row="0" data-cell-col="2" data-surround-bits="0x655525" data-edge-color="#2f3fbf"><rect x="179.167" y="42.833" width="56" height="23.333" fill="#8450cf"/><text x="207.167" y="54.5" fill="#ffffff" font-size="13.333" text-anchor="middle" dominant-baseline="central">cf5084</text></g><g data-channel="cell" data-cell-index="3" data-cell-row="1" data-cell-col="0" data-surround-bits="0x1ece51" data-edge-color="#e7be00" data-cell-quartile="2"><rect x="39.167" y="89.5" width="56" height="23.333" fill="#fbe7c8"/><text x="67.167" y="101.167" fill="#000000" font-size="13.333" text-anchor="middle" dominant-baseline="central">c8e7fb</text><polygon points="95.167,89.5 83.5,89.5 95.167,101.167" fill="#000000"/></g><g data-channel="cell" data-cell-index="4" data-cell-row="1" data-cell-col="1" data-cell-blank="true"><rect x="109.167" y="89.5" width="56" height="23.333" rx="11.667" ry="11.667" fill="#000000" stroke="#000000" stroke-width="1"/></g><g data-channel="cell" data-cell-index="5" data-cell-row="1" data-cell-col="2" data-surround-bits="0x23704e" data-edge-color="#ffffff"><rect x="179.167" y="89.5" width="56" height="23.333" fill="#9bacbd"/><text x="207.167" y="101.167" fill="#000000" font-size="13.333" text-anchor="middle" dominant-baseline="central">bdac9b</text></g><g data-channel="cell" data-cell-index="6" data-cell-row="2" data-cell-col="0" data-surround-bits="0x674aaf" data-edge-color="#e7be00" data-cell-quartile="4"><rect x="39.167" y="136.167" width="56" height="23.333" fill="#f31516"/><text x="67.167" y="147.833" fill="#000000" font-size="13.333" text-anchor="middle" dominant-baseline="central">1615f3</text><polygon points="39.167,159.5 39.167,147.833 50.833,159.5" fill="#000000"/></g><g data-channel="cell" data-cell-index="7" data-cell-row="2" data-cell-col="1" data-surround-bits="0x1458e9" data-edge-color="#e7be00" data-cell-quartile="3"><rect x="109.167" y="136.167" width="56" height="23.333" fill="#815c17"/><text x="137.167" y="147.833" fill="#ffffff" font-size="13.333" text-anchor="middle" dominant-baseline="central">175c81</text><polygon points="165.167,159.5 165.167,147.833 153.5,159.5" fill="#ffffff"/></g><g data-channel="cell" data-cell-index="8" data-cell-row="2" data-cell-col="2" data-surround-bits="0x5a19ef" data-edge-color="#2f3fbf"><rect x="179.167" y="136.167" width="56" height="23.333" fill="#1818e7"/><text x="207.167" y="147.833" fill="#ffffff" font-size="13.333" text-anchor="middle" dominant-baseline="central">e718</text></g></g></g><g data-channel="color-bar" data-bar-slots="16" data-bar-marker-left="10" data-bar-marker-right="6"><g data-color-bar-rank="0" data-color-bar-band="G"><rect x="2" y="2" width="23.333" height="92.608" fill="#e7be00"/><text x="13.667" y="91.675" fill="#000000" font-size="13.333" text-anchor="middle" data-color-bar-letter="true">g</text></g><g data-color-bar-rank="1" data-color-bar-band="K"><rect x="2" y="94.608" width="23.333" height="36.476" fill="#000000"/><text x="13.667" y="128.151" fill="#ffffff" font-size="13.333" text-anchor="middle" data-color-bar-letter="true">k</text></g><g data-color-bar-rank="2" data-color-bar-band="B"><rect x="2" y="131.084" width="23.333" height="49.988" fill="#2f3fbf"/><text x="13.667" y="178.138" fill="#ffffff" font-size="13.333" text-anchor="middle" data-color-bar-letter="true">b</text></g><g data-color-bar-rank="3" data-color-bar-band="W"><rect x="2" y="181.071" width="23.333" height="19.262" fill="#ffffff"/><text x="13.667" y="197.4" fill="#000000" font-size="13.333" text-anchor="middle" data-color-bar-letter="true">w</text></g><circle cx="7.367" cy="132.156" r="3.967" fill="#ffffff" stroke="#000000" stroke-width="0.75" data-bar-marker="left"/><circle cx="19.967" cy="82.573" r="3.967" fill="#ffffff" stroke="#000000" stroke-width="0.75" data-bar-marker="right"/></g><g data-channel="label-top"><text x="32.167" y="19.5" fill="#666666" font-size="13.333" dominant-baseline="central">hex, 160-bit</text></g><g data-channel="label-bottom"><text x="242.167" y="182.833" fill="#666666" font-size="13.333" text-anchor="end" dominant-baseline="central"><tspan fill="#808080" data-user-note="git">(git)</tspan></text></g><line x1="1" y1="1.5" x2="249" y2="1.5" stroke="#808080" stroke-width="1" shape-rendering="crispEdges"/><line x1="248.5" y1="1" x2="248.5" y2="201.333" stroke="#808080" stroke-width="1" shape-rendering="crispEdges"/><line x1="1" y1="200.833" x2="249" y2="200.833" stroke="#808080" stroke-width="1" shape-rendering="crispEdges"/><line x1="1.5" y1="1" x2="1.5" y2="201.333" stroke="#808080" stroke-width="1" shape-rendering="crispEdges"/><line x1="25.833" y1="1" x2="25.833" y2="201.333" stroke="#808080" stroke-width="1" shape-rendering="crispEdges"/></svg>
<rect x="760.0" y="137.9" width="450.0" height="364.2" rx="8" fill="none" stroke="#dddddd" stroke-width="1"/>
<text x="985.0" y="530.1" font-family="'JetBrains Mono', 'Menlo', 'Consolas', 'DejaVu Sans Mono', monospace" font-size="22" fill="#9a9a9a" text-anchor="middle">root commit 18d95ec</text>
<text x="78" y="156" font-size="34" font-weight="600" fill="#6b6b6b" letter-spacing="2">dhh1128</text>
<text x="78" y="300" font-size="140" font-weight="800" fill="#111111" letter-spacing="-2">entviz</text>
<rect x="78" y="332" width="120" height="6" fill="#ff3f2f"/>
<text x="78" y="408" font-size="32" fill="#333333">Visualize high-entropy values</text>
<text x="78" y="452" font-size="32" fill="#333333">as diagrams a human can</text>
<text x="78" y="496" font-size="32" fill="#333333">compare at a glance.</text>
<circle cx="87" cy="553" r="9" fill="#3572A5"/>
<text x="106" y="562" font-size="26" fill="#333333">Python</text>
<text x="248" y="562" font-size="26" fill="#9a9a9a">Apache-2.0</text>
</svg>
