<svg xmlns="http://www.w3.org/2000/svg" width="780.00" height="368.06" viewBox="0 0 780.00 368.06" font-family="'DejaVu Sans', 'Bitstream Vera Sans', Verdana, sans-serif" data-spec-version="v15" data-generator="scripts/spec_figures.py"><rect x="0.00" y="0.00" width="780.00" height="368.06" fill="#ffffff" stroke="none" stroke-width="1.0"/><svg x="40.00" y="40.00" width="300.00" height="298.06" viewBox="0.000 0.000 155.000 154.000"><defs xmlns="http://www.w3.org/2000/svg"><clipPath id="grid-clip-24292fbf2cbc3d58-2x3"><rect x="28" y="27" width="120" height="120"/></clipPath></defs><rect xmlns="http://www.w3.org/2000/svg" x="1" y="1" width="153" height="152" fill="#ffffff"/><g xmlns="http://www.w3.org/2000/svg" data-channel="grid"><rect x="28" y="27" width="120" height="120" fill="#ffffff"/><g><path fill="#000000" d="M28 27h6v10h-6zM34 27h6v10h-6zM40 27h6v10h-6zM46 27h6v10h-6zM58 27h6v10h-6zM76 27h6v10h-6zM82 47h6v10h-6zM76 57h6v10h-6zM46 57h6v10h-6zM28 57h6v10h-6z"/><path fill="#e7be00" d="M100 27h6v10h-6zM106 27h6v10h-6zM112 27h6v10h-6zM118 27h6v10h-6zM130 27h6v10h-6zM142 37h6v10h-6zM142 47h6v10h-6zM136 57h6v10h-6zM118 57h6v10h-6zM112 57h6v10h-6zM106 57h6v10h-6zM100 57h6v10h-6zM94 57h6v10h-6zM88 57h6v10h-6zM88 37h6v10h-6z"/><path fill="#e7be00" d="M28 67h6v10h-6zM34 67h6v10h-6zM40 67h6v10h-6zM46 67h6v10h-6zM52 67h6v10h-6zM58 67h6v10h-6zM64 67h6v10h-6zM70 67h6v10h-6zM82 87h6v10h-6zM82 97h6v10h-6zM70 97h6v10h-6zM58 97h6v10h-6zM46 97h6v10h-6zM40 97h6v10h-6zM34 97h6v10h-6zM28 97h6v10h-6z"/><path fill="#2f3fbf" d="M94 67h6v10h-6zM130 67h6v10h-6zM136 67h6v10h-6zM142 77h6v10h-6zM130 97h6v10h-6zM124 97h6v10h-6zM118 97h6v10h-6z"/><path fill="#000000" d="M28 107h6v10h-6zM34 107h6v10h-6zM40 107h6v10h-6zM52 107h6v10h-6zM58 107h6v10h-6zM64 107h6v10h-6zM82 127h6v10h-6zM64 137h6v10h-6zM40 137h6v10h-6zM34 137h6v10h-6zM28 137h6v10h-6zM28 117h6v10h-6z"/><path fill="#000000" d="M100 107h6v10h-6zM106 107h6v10h-6zM130 107h6v10h-6zM142 127h6v10h-6zM142 137h6v10h-6zM130 137h6v10h-6zM112 137h6v10h-6zM106 137h6v10h-6zM100 137h6v10h-6zM88 137h6v10h-6z"/></g><g clip-path="url(#grid-clip-24292fbf2cbc3d58-2x3)" data-channel="ellipse" data-ellipse-anchor-x="28" data-ellipse-anchor-y="147" data-ellipse-rx="73.992" data-ellipse-ry="37.335" data-ellipse-rotation-deg="72"><ellipse cx="28" cy="147" rx="73.992" ry="37.335" transform="rotate(72 28 147)" fill="#000000" stroke="#000000" fill-opacity="0.2" stroke-opacity="0.3" stroke-width="2"/></g><g><g data-channel="cell" data-cell-index="0" data-cell-row="0" data-cell-col="0" data-surround-bits="0x24292f" data-edge-color="#000000"><rect x="34" y="37" width="48" height="20" fill="#840e55"/><text x="58" y="47" fill="#ffffff" font-size="12" text-anchor="middle" dominant-baseline="central">550e84</text></g><g data-channel="cell" data-cell-index="1" data-cell-row="0" data-cell-col="1" data-surround-bits="0xbf2cbc" data-edge-color="#e7be00"><rect x="94" y="37" width="48" height="20" fill="#9be200"/><text x="118" y="47" fill="#000000" font-size="12" text-anchor="middle" dominant-baseline="central">00e29b</text></g><g data-channel="cell" data-cell-index="2" data-cell-row="1" data-cell-col="0" data-surround-bits="0x3d58ff" data-edge-color="#e7be00" data-cell-quartile="3"><rect x="34" y="77" width="48" height="20" fill="#a7d441"/><text x="58" y="87" fill="#000000" font-size="12" text-anchor="middle" dominant-baseline="central">41d4a7</text><polygon points="82,97 82,87 72,97" fill="#000000"/></g><g data-channel="cell" data-cell-index="3" data-cell-row="1" data-cell-col="1" data-surround-bits="0x1c582" data-edge-color="#2f3fbf" data-cell-quartile="2"><rect x="94" y="77" width="48" height="20" fill="#664416"/><text x="118" y="87" fill="#ffffff" font-size="12" text-anchor="middle" dominant-baseline="central">164466</text><polygon points="142,77 132,77 142,87" fill="#ffffff"/></g><g data-channel="cell" data-cell-index="4" data-cell-row="2" data-cell-col="0" data-surround-bits="0xb88877" data-edge-color="#000000" data-cell-quartile="1"><rect x="34" y="117" width="48" height="20" fill="#004455"/><text x="58" y="127" fill="#ffffff" font-size="12" text-anchor="middle" dominant-baseline="central">554400</text><polygon points="34,117 44,117 34,127" fill="#ffffff"/></g><g data-channel="cell" data-cell-index="5" data-cell-row="2" data-cell-col="1" data-surround-bits="0x2e588c" data-edge-color="#000000"><rect x="94" y="117" width="48" height="20" fill="#000000"/><text x="118" y="127" fill="#ffffff" font-size="12" text-anchor="middle" dominant-baseline="central">00</text></g></g></g><g xmlns="http://www.w3.org/2000/svg" data-channel="color-bar" data-bar-slots="12" data-bar-marker-left="2" data-bar-marker-right="8"><g data-color-bar-rank="0" data-color-bar-band="G"><rect x="2" y="2" width="20" height="82.12" fill="#e7be00"/><text x="12" y="81.48" fill="#000000" font-size="12" text-anchor="middle" data-color-bar-letter="true">g</text></g><g data-color-bar-rank="1" data-color-bar-band="R"><rect x="2" y="84.12" width="20" height="15.053" fill="#ff3f2f"/><text x="12" y="96.533" fill="#000000" font-size="12" text-anchor="middle" data-color-bar-letter="true">r</text></g><g data-color-bar-rank="2" data-color-bar-band="B"><rect x="2" y="99.173" width="20" height="26.414" fill="#2f3fbf"/><text x="12" y="122.946" fill="#ffffff" font-size="12" text-anchor="middle" data-color-bar-letter="true">b</text></g><g data-color-bar-rank="3" data-color-bar-band="K"><rect x="2" y="125.586" width="20" height="26.414" fill="#000000"/><text x="12" y="149.36" fill="#ffffff" font-size="12" text-anchor="middle" data-color-bar-letter="true">k</text></g><circle cx="6.6" cy="33.25" r="3.4" fill="#ffffff" stroke="#000000" stroke-width="0.75" data-bar-marker="left"/><circle cx="17.4" cy="108.25" r="3.4" fill="#ffffff" stroke="#000000" stroke-width="0.75" data-bar-marker="right"/></g><g xmlns="http://www.w3.org/2000/svg" data-channel="label-top"><text x="28" y="17" fill="#666666" font-size="12" dominant-baseline="central">UUID</text></g><line xmlns="http://www.w3.org/2000/svg" x1="1" y1="1.5" x2="154" y2="1.5" stroke="#808080" stroke-width="1" shape-rendering="crispEdges"/><line xmlns="http://www.w3.org/2000/svg" x1="153.5" y1="1" x2="153.5" y2="153" stroke="#808080" stroke-width="1" shape-rendering="crispEdges"/><line xmlns="http://www.w3.org/2000/svg" x1="1" y1="152.5" x2="154" y2="152.5" stroke="#808080" stroke-width="1" shape-rendering="crispEdges"/><line xmlns="http://www.w3.org/2000/svg" x1="1.5" y1="1" x2="1.5" y2="153" stroke="#808080" stroke-width="1" shape-rendering="crispEdges"/><line xmlns="http://www.w3.org/2000/svg" x1="22.5" y1="1" x2="22.5" y2="153" stroke="#808080" stroke-width="1" shape-rendering="crispEdges"/></svg><rect x="40.00" y="40.00" width="300.00" height="298.06" fill="none" stroke="#c9cdd4" stroke-width="1"/><line x1="152.26" y1="123.23" x2="382.00" y2="106.00" stroke="#3f5b73" stroke-width="1.0"/><line x1="382.00" y1="106.00" x2="400.00" y2="110.00" stroke="#3f5b73" stroke-width="1.0"/><circle cx="152.26" cy="123.23" r="2.6" fill="#3f5b73"/><text x="400.00" y="106.00" font-family="'DejaVu Sans', 'Bitstream Vera Sans', Verdana, sans-serif" font-size="13px" font-weight="bold" text-anchor="start" fill="#2b2b33">text channel</text><text x="400.00" y="125.00" font-family="'DejaVu Sans', 'Bitstream Vera Sans', Verdana, sans-serif" font-size="12px" font-weight="normal" text-anchor="start" fill="#5a5f6a">the normalized input, tokenized into cells and</text><text x="400.00" y="141.00" font-family="'DejaVu Sans', 'Bitstream Vera Sans', Verdana, sans-serif" font-size="12px" font-weight="normal" text-anchor="start" fill="#5a5f6a">read left-to-right, top-to-bottom. Lossless for</text><text x="400.00" y="157.00" font-family="'DejaVu Sans', 'Bitstream Vera Sans', Verdana, sans-serif" font-size="12px" font-weight="normal" text-anchor="start" fill="#5a5f6a">inputs ≤ 512 bits: read aloud (with case), it</text><text x="400.00" y="173.00" font-family="'DejaVu Sans', 'Bitstream Vera Sans', Verdana, sans-serif" font-size="12px" font-weight="normal" text-anchor="start" fill="#5a5f6a">transmits every bit. It does not, by itself,</text><text x="400.00" y="189.00" font-family="'DejaVu Sans', 'Bitstream Vera Sans', Verdana, sans-serif" font-size="12px" font-weight="normal" text-anchor="start" fill="#5a5f6a">amplify difference — that is the other channels.</text></svg>
